solid OpenSCAD_Model
  facet normal 1 -0 0
    outer loop
      vertex 12 -12 10
      vertex 12 12 1.46953e-015
      vertex 12 12 10
    endloop
  endfacet
  facet normal 1 0 0
    outer loop
      vertex 12 12 1.46953e-015
      vertex 12 -12 10
      vertex 12 -12 1.46953e-015
    endloop
  endfacet
  facet normal 1.22461e-016 0 -1
    outer loop
      vertex 12 -12 1.46953e-015
      vertex 3.26228 -0.957891 3.995e-016
      vertex 12 12 1.46953e-015
    endloop
  endfacet
  facet normal 1.22461e-016 6.40648e-024 -1
    outer loop
      vertex 12 -12 1.46953e-015
      vertex 2.22653 -2.56955 2.72662e-016
      vertex 3.26228 -0.957891 3.995e-016
    endloop
  endfacet
  facet normal 1.22461e-016 -3.40212e-024 -1
    outer loop
      vertex 12 -12 1.46953e-015
      vertex 0.48387 -3.36539 5.9255e-017
      vertex 2.22653 -2.56955 2.72662e-016
    endloop
  endfacet
  facet normal 1.22461e-016 -2.51471e-025 -1
    outer loop
      vertex -12 -12 -1.46953e-015
      vertex 0.48387 -3.36539 5.9255e-017
      vertex 12 -12 1.46953e-015
    endloop
  endfacet
  facet normal 1.22461e-016 -2.29177e-024 -1
    outer loop
      vertex -2.86026 -1.83818 -3.50269e-016
      vertex -12 -12 -1.46953e-015
      vertex -3.4 0 -4.16366e-016
    endloop
  endfacet
  facet normal 1.22461e-016 7.0802e-025 -1
    outer loop
      vertex -1.41241 -3.09275 -1.72965e-016
      vertex -12 -12 -1.46953e-015
      vertex -2.86026 -1.83818 -3.50269e-016
    endloop
  endfacet
  facet normal 1.22461e-016 4.94789e-024 -1
    outer loop
      vertex 0.48387 -3.36539 5.9255e-017
      vertex -12 -12 -1.46953e-015
      vertex -1.41241 -3.09275 -1.72965e-016
    endloop
  endfacet
  facet normal 1.22461e-016 0 -1
    outer loop
      vertex 3.26228 0.957891 3.995e-016
      vertex 12 12 1.46953e-015
      vertex 3.26228 -0.957891 3.995e-016
    endloop
  endfacet
  facet normal 1.22461e-016 -6.40648e-024 -1
    outer loop
      vertex 2.22653 2.56955 2.72662e-016
      vertex 12 12 1.46953e-015
      vertex 3.26228 0.957891 3.995e-016
    endloop
  endfacet
  facet normal 1.22461e-016 3.40212e-024 -1
    outer loop
      vertex 0.48387 3.36539 5.9255e-017
      vertex 12 12 1.46953e-015
      vertex 2.22653 2.56955 2.72662e-016
    endloop
  endfacet
  facet normal 1.22461e-016 -4.94789e-024 -1
    outer loop
      vertex -12 12 -1.46953e-015
      vertex 0.48387 3.36539 5.9255e-017
      vertex -1.41241 3.09275 -1.72965e-016
    endloop
  endfacet
  facet normal 1.22461e-016 0 -1
    outer loop
      vertex -12 12 -1.46953e-015
      vertex -3.4 0 -4.16366e-016
      vertex -12 -12 -1.46953e-015
    endloop
  endfacet
  facet normal 1.22461e-016 2.51471e-025 -1
    outer loop
      vertex 0.48387 3.36539 5.9255e-017
      vertex -12 12 -1.46953e-015
      vertex 12 12 1.46953e-015
    endloop
  endfacet
  facet normal 1.22461e-016 -7.0802e-025 -1
    outer loop
      vertex -2.86026 1.83818 -3.50269e-016
      vertex -12 12 -1.46953e-015
      vertex -1.41241 3.09275 -1.72965e-016
    endloop
  endfacet
  facet normal 1.22461e-016 2.29177e-024 -1
    outer loop
      vertex -3.4 0 -4.16366e-016
      vertex -12 12 -1.46953e-015
      vertex -2.86026 1.83818 -3.50269e-016
    endloop
  endfacet
  facet normal -1 0 0
    outer loop
      vertex -12 -12 -1.46953e-015
      vertex -12 12 10
      vertex -12 12 -1.46953e-015
    endloop
  endfacet
  facet normal -1 -0 0
    outer loop
      vertex -12 12 10
      vertex -12 -12 -1.46953e-015
      vertex -12 -12 10
    endloop
  endfacet
  facet normal 0 0 1
    outer loop
      vertex 12 12 10
      vertex 7.5 0 10
      vertex 12 -12 10
    endloop
  endfacet
  facet normal 0 0 1
    outer loop
      vertex 12 12 10
      vertex 7.24444 1.94114 10
      vertex 7.5 0 10
    endloop
  endfacet
  facet normal 0 0 1
    outer loop
      vertex 12 12 10
      vertex 6.49519 3.75 10
      vertex 7.24444 1.94114 10
    endloop
  endfacet
  facet normal 0 0 1
    outer loop
      vertex 12 12 10
      vertex 5.3033 5.3033 10
      vertex 6.49519 3.75 10
    endloop
  endfacet
  facet normal 0 0 1
    outer loop
      vertex 12 12 10
      vertex 3.75 6.49519 10
      vertex 5.3033 5.3033 10
    endloop
  endfacet
  facet normal 0 0 1
    outer loop
      vertex 12 12 10
      vertex 1.94114 7.24444 10
      vertex 3.75 6.49519 10
    endloop
  endfacet
  facet normal 0 0 1
    outer loop
      vertex 12 12 10
      vertex 0 7.5 10
      vertex 1.94114 7.24444 10
    endloop
  endfacet
  facet normal -0 0 1
    outer loop
      vertex -12 12 10
      vertex 0 7.5 10
      vertex 12 12 10
    endloop
  endfacet
  facet normal 0 0 1
    outer loop
      vertex -7.24444 1.94114 10
      vertex -12 12 10
      vertex -7.5 0 10
    endloop
  endfacet
  facet normal 0 0 1
    outer loop
      vertex -6.49519 3.75 10
      vertex -12 12 10
      vertex -7.24444 1.94114 10
    endloop
  endfacet
  facet normal 0 0 1
    outer loop
      vertex -5.3033 5.3033 10
      vertex -12 12 10
      vertex -6.49519 3.75 10
    endloop
  endfacet
  facet normal 0 0 1
    outer loop
      vertex -3.75 6.49519 10
      vertex -12 12 10
      vertex -5.3033 5.3033 10
    endloop
  endfacet
  facet normal 0 0 1
    outer loop
      vertex -1.94114 7.24444 10
      vertex -12 12 10
      vertex -3.75 6.49519 10
    endloop
  endfacet
  facet normal 0 0 1
    outer loop
      vertex 0 7.5 10
      vertex -12 12 10
      vertex -1.94114 7.24444 10
    endloop
  endfacet
  facet normal -0 0 1
    outer loop
      vertex 7.24444 -1.94114 10
      vertex 12 -12 10
      vertex 7.5 0 10
    endloop
  endfacet
  facet normal -0 0 1
    outer loop
      vertex 6.49519 -3.75 10
      vertex 12 -12 10
      vertex 7.24444 -1.94114 10
    endloop
  endfacet
  facet normal -0 0 1
    outer loop
      vertex 5.3033 -5.3033 10
      vertex 12 -12 10
      vertex 6.49519 -3.75 10
    endloop
  endfacet
  facet normal -0 0 1
    outer loop
      vertex 3.75 -6.49519 10
      vertex 12 -12 10
      vertex 5.3033 -5.3033 10
    endloop
  endfacet
  facet normal -0 0 1
    outer loop
      vertex 1.94114 -7.24444 10
      vertex 12 -12 10
      vertex 3.75 -6.49519 10
    endloop
  endfacet
  facet normal -0 0 1
    outer loop
      vertex 0 -7.5 10
      vertex 12 -12 10
      vertex 1.94114 -7.24444 10
    endloop
  endfacet
  facet normal 0 0 1
    outer loop
      vertex -12 -12 10
      vertex 0 -7.5 10
      vertex -1.94114 -7.24444 10
    endloop
  endfacet
  facet normal 0 0 1
    outer loop
      vertex -12 -12 10
      vertex -7.5 0 10
      vertex -12 12 10
    endloop
  endfacet
  facet normal 0 0 1
    outer loop
      vertex 0 -7.5 10
      vertex -12 -12 10
      vertex 12 -12 10
    endloop
  endfacet
  facet normal 0 0 1
    outer loop
      vertex -3.75 -6.49519 10
      vertex -12 -12 10
      vertex -1.94114 -7.24444 10
    endloop
  endfacet
  facet normal 0 0 1
    outer loop
      vertex -5.3033 -5.3033 10
      vertex -12 -12 10
      vertex -3.75 -6.49519 10
    endloop
  endfacet
  facet normal 0 0 1
    outer loop
      vertex -6.49519 -3.75 10
      vertex -12 -12 10
      vertex -5.3033 -5.3033 10
    endloop
  endfacet
  facet normal 0 0 1
    outer loop
      vertex -7.24444 -1.94114 10
      vertex -12 -12 10
      vertex -6.49519 -3.75 10
    endloop
  endfacet
  facet normal 0 0 1
    outer loop
      vertex -7.5 0 10
      vertex -12 -12 10
      vertex -7.24444 -1.94114 10
    endloop
  endfacet
  facet normal 0 -1 0
    outer loop
      vertex -12 -12 10
      vertex 12 -12 1.46953e-015
      vertex 12 -12 10
    endloop
  endfacet
  facet normal -0 -1 0
    outer loop
      vertex 12 -12 1.46953e-015
      vertex -12 -12 10
      vertex -12 -12 -1.46953e-015
    endloop
  endfacet
  facet normal 0 1 -0
    outer loop
      vertex 12 12 1.46953e-015
      vertex -12 12 10
      vertex 12 12 10
    endloop
  endfacet
  facet normal 0 1 0
    outer loop
      vertex -12 12 10
      vertex 12 12 1.46953e-015
      vertex -12 12 -1.46953e-015
    endloop
  endfacet
  facet normal 0.991445 -0.130527 0
    outer loop
      vertex -7.5 0 10
      vertex -7.24444 1.94114 5.8
      vertex -7.24444 1.94114 10
    endloop
  endfacet
  facet normal 0.991445 -0.130527 0
    outer loop
      vertex -7.24444 1.94114 5.8
      vertex -7.5 0 10
      vertex -7.5 0 5.8
    endloop
  endfacet
  facet normal -0.991445 -0.130527 0
    outer loop
      vertex 7.5 0 5.8
      vertex 7.24444 1.94114 10
      vertex 7.24444 1.94114 5.8
    endloop
  endfacet
  facet normal -0.991445 -0.130527 0
    outer loop
      vertex 7.24444 1.94114 10
      vertex 7.5 0 5.8
      vertex 7.5 0 10
    endloop
  endfacet
  facet normal 0.130527 -0.991445 0
    outer loop
      vertex -1.94114 7.24444 5.8
      vertex 0 7.5 10
      vertex -1.94114 7.24444 10
    endloop
  endfacet
  facet normal 0.130527 -0.991445 1.59844e-017
    outer loop
      vertex 0 7.5 10
      vertex -1.94114 7.24444 5.8
      vertex 5.14335e-016 7.5 5.8
    endloop
  endfacet
  facet normal -0.130527 0.991445 0
    outer loop
      vertex 1.94114 -7.24444 5.8
      vertex 0 -7.5 10
      vertex 1.94114 -7.24444 10
    endloop
  endfacet
  facet normal -0.130527 0.991445 -1.59844e-017
    outer loop
      vertex 0 -7.5 10
      vertex 1.94114 -7.24444 5.8
      vertex 5.14335e-016 -7.5 5.8
    endloop
  endfacet
  facet normal -0.793354 0.608761 0
    outer loop
      vertex 5.3033 -5.3033 5.8
      vertex 6.49519 -3.75 10
      vertex 6.49519 -3.75 5.8
    endloop
  endfacet
  facet normal -0.793354 0.608761 0
    outer loop
      vertex 6.49519 -3.75 10
      vertex 5.3033 -5.3033 5.8
      vertex 5.3033 -5.3033 10
    endloop
  endfacet
  facet normal 0.793354 -0.608761 0
    outer loop
      vertex -6.49519 3.75 10
      vertex -5.3033 5.3033 5.8
      vertex -5.3033 5.3033 10
    endloop
  endfacet
  facet normal 0.793354 -0.608761 0
    outer loop
      vertex -5.3033 5.3033 5.8
      vertex -6.49519 3.75 10
      vertex -6.49519 3.75 5.8
    endloop
  endfacet
  facet normal 0.923879 -0.382684 0
    outer loop
      vertex -7.24444 1.94114 10
      vertex -6.49519 3.75 5.8
      vertex -6.49519 3.75 10
    endloop
  endfacet
  facet normal 0.923879 -0.382684 0
    outer loop
      vertex -6.49519 3.75 5.8
      vertex -7.24444 1.94114 10
      vertex -7.24444 1.94114 5.8
    endloop
  endfacet
  facet normal 0.608761 -0.793354 0
    outer loop
      vertex -5.3033 5.3033 5.8
      vertex -3.75 6.49519 10
      vertex -5.3033 5.3033 10
    endloop
  endfacet
  facet normal 0.608761 -0.793354 0
    outer loop
      vertex -3.75 6.49519 10
      vertex -5.3033 5.3033 5.8
      vertex -3.75 6.49519 5.8
    endloop
  endfacet
  facet normal -0.608761 -0.793354 0
    outer loop
      vertex 3.75 6.49519 5.8
      vertex 5.3033 5.3033 10
      vertex 3.75 6.49519 10
    endloop
  endfacet
  facet normal -0.608761 -0.793354 -0
    outer loop
      vertex 5.3033 5.3033 10
      vertex 3.75 6.49519 5.8
      vertex 5.3033 5.3033 5.8
    endloop
  endfacet
  facet normal 0 0 1
    outer loop
      vertex 1.94114 7.24444 5.8
      vertex 3.4 3.4 5.8
      vertex 3.75 6.49519 5.8
    endloop
  endfacet
  facet normal 0 0 1
    outer loop
      vertex 5.14335e-016 7.5 5.8
      vertex 3.4 3.4 5.8
      vertex 1.94114 7.24444 5.8
    endloop
  endfacet
  facet normal 0 0 1
    outer loop
      vertex -3.4 3.4 5.8
      vertex 5.14335e-016 7.5 5.8
      vertex -1.94114 7.24444 5.8
    endloop
  endfacet
  facet normal 0 0 1
    outer loop
      vertex 5.14335e-016 7.5 5.8
      vertex -3.4 3.4 5.8
      vertex 3.4 3.4 5.8
    endloop
  endfacet
  facet normal -0 0 1
    outer loop
      vertex -5.3033 5.3033 5.8
      vertex -3.4 3.4 5.8
      vertex -3.75 6.49519 5.8
    endloop
  endfacet
  facet normal -0 0 1
    outer loop
      vertex -3.75 6.49519 5.8
      vertex -3.4 3.4 5.8
      vertex -1.94114 7.24444 5.8
    endloop
  endfacet
  facet normal 0 0 1
    outer loop
      vertex 3.4 3.4 5.8
      vertex 7.5 0 5.8
      vertex 7.24444 1.94114 5.8
    endloop
  endfacet
  facet normal -0 0 1
    outer loop
      vertex 3.4 3.4 5.8
      vertex 7.24444 1.94114 5.8
      vertex 6.49519 3.75 5.8
    endloop
  endfacet
  facet normal 0 0 1
    outer loop
      vertex 3.4 -3.4 5.8
      vertex 7.5 0 5.8
      vertex 3.4 3.4 5.8
    endloop
  endfacet
  facet normal 0 0 1
    outer loop
      vertex 3.4 3.4 5.8
      vertex 6.49519 3.75 5.8
      vertex 5.3033 5.3033 5.8
    endloop
  endfacet
  facet normal 0 0 1
    outer loop
      vertex 7.5 0 5.8
      vertex 3.4 -3.4 5.8
      vertex 7.24444 -1.94114 5.8
    endloop
  endfacet
  facet normal 0 0 1
    outer loop
      vertex 6.49519 -3.75 5.8
      vertex 3.4 -3.4 5.8
      vertex 5.3033 -5.3033 5.8
    endloop
  endfacet
  facet normal 0 0 1
    outer loop
      vertex 3.4 3.4 5.8
      vertex 5.3033 5.3033 5.8
      vertex 3.75 6.49519 5.8
    endloop
  endfacet
  facet normal 0 0 1
    outer loop
      vertex 7.24444 -1.94114 5.8
      vertex 3.4 -3.4 5.8
      vertex 6.49519 -3.75 5.8
    endloop
  endfacet
  facet normal 0 0 1
    outer loop
      vertex 5.3033 -5.3033 5.8
      vertex 3.4 -3.4 5.8
      vertex 3.75 -6.49519 5.8
    endloop
  endfacet
  facet normal 0 0 1
    outer loop
      vertex 3.4 -3.4 5.8
      vertex 1.94114 -7.24444 5.8
      vertex 3.75 -6.49519 5.8
    endloop
  endfacet
  facet normal 0 0 1
    outer loop
      vertex 3.4 -3.4 5.8
      vertex 5.14335e-016 -7.5 5.8
      vertex 1.94114 -7.24444 5.8
    endloop
  endfacet
  facet normal -0 0 1
    outer loop
      vertex -3.4 -3.4 5.8
      vertex 5.14335e-016 -7.5 5.8
      vertex 3.4 -3.4 5.8
    endloop
  endfacet
  facet normal 0 0 1
    outer loop
      vertex 5.14335e-016 -7.5 5.8
      vertex -3.4 -3.4 5.8
      vertex -1.94114 -7.24444 5.8
    endloop
  endfacet
  facet normal 0 0 1
    outer loop
      vertex -3.4 -3.4 5.8
      vertex -3.75 -6.49519 5.8
      vertex -1.94114 -7.24444 5.8
    endloop
  endfacet
  facet normal -0 0 1
    outer loop
      vertex -6.49519 3.75 5.8
      vertex -3.4 3.4 5.8
      vertex -5.3033 5.3033 5.8
    endloop
  endfacet
  facet normal 0 0 1
    outer loop
      vertex -7.24444 1.94114 5.8
      vertex -3.4 3.4 5.8
      vertex -6.49519 3.75 5.8
    endloop
  endfacet
  facet normal 0 0 1
    outer loop
      vertex -3.4 -3.4 5.8
      vertex -5.3033 -5.3033 5.8
      vertex -3.75 -6.49519 5.8
    endloop
  endfacet
  facet normal 0 0 1
    outer loop
      vertex -7.5 0 5.8
      vertex -3.4 3.4 5.8
      vertex -7.24444 1.94114 5.8
    endloop
  endfacet
  facet normal 0 0 1
    outer loop
      vertex -3.4 -3.4 5.8
      vertex -6.49519 -3.75 5.8
      vertex -5.3033 -5.3033 5.8
    endloop
  endfacet
  facet normal 0 0 1
    outer loop
      vertex -3.4 3.4 5.8
      vertex -7.5 0 5.8
      vertex -3.4 -3.4 5.8
    endloop
  endfacet
  facet normal 0 0 1
    outer loop
      vertex -3.4 -3.4 5.8
      vertex -7.24444 -1.94114 5.8
      vertex -6.49519 -3.75 5.8
    endloop
  endfacet
  facet normal 0 0 1
    outer loop
      vertex -3.4 -3.4 5.8
      vertex -7.5 0 5.8
      vertex -7.24444 -1.94114 5.8
    endloop
  endfacet
  facet normal -0.130527 -0.991445 -1.59844e-017
    outer loop
      vertex 5.14335e-016 7.5 5.8
      vertex 1.94114 7.24444 10
      vertex 0 7.5 10
    endloop
  endfacet
  facet normal -0.130527 -0.991445 -0
    outer loop
      vertex 1.94114 7.24444 10
      vertex 5.14335e-016 7.5 5.8
      vertex 1.94114 7.24444 5.8
    endloop
  endfacet
  facet normal 0.793354 0.608761 0
    outer loop
      vertex -5.3033 -5.3033 10
      vertex -6.49519 -3.75 5.8
      vertex -6.49519 -3.75 10
    endloop
  endfacet
  facet normal 0.793354 0.608761 0
    outer loop
      vertex -6.49519 -3.75 5.8
      vertex -5.3033 -5.3033 10
      vertex -5.3033 -5.3033 5.8
    endloop
  endfacet
  facet normal -0.608761 0.793354 0
    outer loop
      vertex 5.3033 -5.3033 5.8
      vertex 3.75 -6.49519 10
      vertex 5.3033 -5.3033 10
    endloop
  endfacet
  facet normal -0.608761 0.793354 0
    outer loop
      vertex 3.75 -6.49519 10
      vertex 5.3033 -5.3033 5.8
      vertex 3.75 -6.49519 5.8
    endloop
  endfacet
  facet normal -0.991445 0.130527 0
    outer loop
      vertex 7.24444 -1.94114 5.8
      vertex 7.5 0 10
      vertex 7.5 0 5.8
    endloop
  endfacet
  facet normal -0.991445 0.130527 0
    outer loop
      vertex 7.5 0 10
      vertex 7.24444 -1.94114 5.8
      vertex 7.24444 -1.94114 10
    endloop
  endfacet
  facet normal 0.382683 -0.92388 0
    outer loop
      vertex -3.75 6.49519 5.8
      vertex -1.94114 7.24444 10
      vertex -3.75 6.49519 10
    endloop
  endfacet
  facet normal 0.382683 -0.92388 0
    outer loop
      vertex -1.94114 7.24444 10
      vertex -3.75 6.49519 5.8
      vertex -1.94114 7.24444 5.8
    endloop
  endfacet
  facet normal -0.793354 -0.608761 0
    outer loop
      vertex 6.49519 3.75 5.8
      vertex 5.3033 5.3033 10
      vertex 5.3033 5.3033 5.8
    endloop
  endfacet
  facet normal -0.793354 -0.608761 0
    outer loop
      vertex 5.3033 5.3033 10
      vertex 6.49519 3.75 5.8
      vertex 6.49519 3.75 10
    endloop
  endfacet
  facet normal -0.923879 -0.382684 0
    outer loop
      vertex 7.24444 1.94114 5.8
      vertex 6.49519 3.75 10
      vertex 6.49519 3.75 5.8
    endloop
  endfacet
  facet normal -0.923879 -0.382684 0
    outer loop
      vertex 6.49519 3.75 10
      vertex 7.24444 1.94114 5.8
      vertex 7.24444 1.94114 10
    endloop
  endfacet
  facet normal -0.382684 -0.923879 0
    outer loop
      vertex 1.94114 7.24444 5.8
      vertex 3.75 6.49519 10
      vertex 1.94114 7.24444 10
    endloop
  endfacet
  facet normal -0.382684 -0.923879 -0
    outer loop
      vertex 3.75 6.49519 10
      vertex 1.94114 7.24444 5.8
      vertex 3.75 6.49519 5.8
    endloop
  endfacet
  facet normal 0.130527 0.991445 1.59844e-017
    outer loop
      vertex 5.14335e-016 -7.5 5.8
      vertex -1.94114 -7.24444 10
      vertex 0 -7.5 10
    endloop
  endfacet
  facet normal 0.130527 0.991445 0
    outer loop
      vertex -1.94114 -7.24444 10
      vertex 5.14335e-016 -7.5 5.8
      vertex -1.94114 -7.24444 5.8
    endloop
  endfacet
  facet normal 0.608761 0.793354 -0
    outer loop
      vertex -3.75 -6.49519 5.8
      vertex -5.3033 -5.3033 10
      vertex -3.75 -6.49519 10
    endloop
  endfacet
  facet normal 0.608761 0.793354 0
    outer loop
      vertex -5.3033 -5.3033 10
      vertex -3.75 -6.49519 5.8
      vertex -5.3033 -5.3033 5.8
    endloop
  endfacet
  facet normal -0.382683 0.92388 0
    outer loop
      vertex 3.75 -6.49519 5.8
      vertex 1.94114 -7.24444 10
      vertex 3.75 -6.49519 10
    endloop
  endfacet
  facet normal -0.382683 0.92388 0
    outer loop
      vertex 1.94114 -7.24444 10
      vertex 3.75 -6.49519 5.8
      vertex 1.94114 -7.24444 5.8
    endloop
  endfacet
  facet normal -0.923879 0.382684 0
    outer loop
      vertex 6.49519 -3.75 5.8
      vertex 7.24444 -1.94114 10
      vertex 7.24444 -1.94114 5.8
    endloop
  endfacet
  facet normal -0.923879 0.382684 0
    outer loop
      vertex 7.24444 -1.94114 10
      vertex 6.49519 -3.75 5.8
      vertex 6.49519 -3.75 10
    endloop
  endfacet
  facet normal 0.382683 0.92388 -0
    outer loop
      vertex -1.94114 -7.24444 5.8
      vertex -3.75 -6.49519 10
      vertex -1.94114 -7.24444 10
    endloop
  endfacet
  facet normal 0.382683 0.92388 0
    outer loop
      vertex -3.75 -6.49519 10
      vertex -1.94114 -7.24444 5.8
      vertex -3.75 -6.49519 5.8
    endloop
  endfacet
  facet normal 0.92388 0.382683 0
    outer loop
      vertex -6.49519 -3.75 10
      vertex -7.24444 -1.94114 5.8
      vertex -7.24444 -1.94114 10
    endloop
  endfacet
  facet normal 0.92388 0.382683 0
    outer loop
      vertex -7.24444 -1.94114 5.8
      vertex -6.49519 -3.75 10
      vertex -6.49519 -3.75 5.8
    endloop
  endfacet
  facet normal 0.991445 0.130527 0
    outer loop
      vertex -7.24444 -1.94114 10
      vertex -7.5 0 5.8
      vertex -7.5 0 10
    endloop
  endfacet
  facet normal 0.991445 0.130527 0
    outer loop
      vertex -7.5 0 5.8
      vertex -7.24444 -1.94114 10
      vertex -7.24444 -1.94114 5.8
    endloop
  endfacet
  facet normal -1 0 0
    outer loop
      vertex 3.4 -3.4 1.3
      vertex 3.4 3.4 5.8
      vertex 3.4 3.4 1.3
    endloop
  endfacet
  facet normal -1 -0 0
    outer loop
      vertex 3.4 3.4 5.8
      vertex 3.4 -3.4 1.3
      vertex 3.4 -3.4 5.8
    endloop
  endfacet
  facet normal 0 0 1
    outer loop
      vertex 3.4 3.4 1.3
      vertex 3.26228 0.957891 1.3
      vertex 3.4 -3.4 1.3
    endloop
  endfacet
  facet normal 0 0 1
    outer loop
      vertex 3.4 3.4 1.3
      vertex 2.22653 2.56955 1.3
      vertex 3.26228 0.957891 1.3
    endloop
  endfacet
  facet normal 0 0 1
    outer loop
      vertex 3.4 3.4 1.3
      vertex 0.48387 3.36539 1.3
      vertex 2.22653 2.56955 1.3
    endloop
  endfacet
  facet normal -0 0 1
    outer loop
      vertex -3.4 3.4 1.3
      vertex 0.48387 3.36539 1.3
      vertex 3.4 3.4 1.3
    endloop
  endfacet
  facet normal 0 0 1
    outer loop
      vertex -3.4 3.4 1.3
      vertex -1.41241 3.09275 1.3
      vertex 0.48387 3.36539 1.3
    endloop
  endfacet
  facet normal 0 0 1
    outer loop
      vertex -3.4 3.4 1.3
      vertex -2.86026 1.83818 1.3
      vertex -1.41241 3.09275 1.3
    endloop
  endfacet
  facet normal 0 0 1
    outer loop
      vertex -2.86026 1.83818 1.3
      vertex -3.4 3.4 1.3
      vertex -3.4 0 1.3
    endloop
  endfacet
  facet normal -0 0 1
    outer loop
      vertex 3.26228 -0.957891 1.3
      vertex 3.4 -3.4 1.3
      vertex 3.26228 0.957891 1.3
    endloop
  endfacet
  facet normal -0 0 1
    outer loop
      vertex 2.22653 -2.56955 1.3
      vertex 3.4 -3.4 1.3
      vertex 3.26228 -0.957891 1.3
    endloop
  endfacet
  facet normal -0 0 1
    outer loop
      vertex 0.48387 -3.36539 1.3
      vertex 3.4 -3.4 1.3
      vertex 2.22653 -2.56955 1.3
    endloop
  endfacet
  facet normal 0 0 1
    outer loop
      vertex 0.48387 -3.36539 1.3
      vertex -3.4 -3.4 1.3
      vertex 3.4 -3.4 1.3
    endloop
  endfacet
  facet normal 0 0 1
    outer loop
      vertex -1.41241 -3.09275 1.3
      vertex -3.4 -3.4 1.3
      vertex 0.48387 -3.36539 1.3
    endloop
  endfacet
  facet normal 0 0 1
    outer loop
      vertex -2.86026 -1.83818 1.3
      vertex -3.4 -3.4 1.3
      vertex -1.41241 -3.09275 1.3
    endloop
  endfacet
  facet normal 0 0 1
    outer loop
      vertex -3.4 -3.4 1.3
      vertex -2.86026 -1.83818 1.3
      vertex -3.4 0 1.3
    endloop
  endfacet
  facet normal 1 0 0
    outer loop
      vertex -3.4 3.4 5.8
      vertex -3.4 0 1.3
      vertex -3.4 3.4 1.3
    endloop
  endfacet
  facet normal 1 -0 0
    outer loop
      vertex -3.4 -3.4 5.8
      vertex -3.4 0 1.3
      vertex -3.4 3.4 5.8
    endloop
  endfacet
  facet normal 1 0 0
    outer loop
      vertex -3.4 0 1.3
      vertex -3.4 -3.4 5.8
      vertex -3.4 -3.4 1.3
    endloop
  endfacet
  facet normal 0 -1 0
    outer loop
      vertex -3.4 3.4 1.3
      vertex 3.4 3.4 5.8
      vertex -3.4 3.4 5.8
    endloop
  endfacet
  facet normal 0 -1 -0
    outer loop
      vertex 3.4 3.4 5.8
      vertex -3.4 3.4 1.3
      vertex 3.4 3.4 1.3
    endloop
  endfacet
  facet normal 0 1 -0
    outer loop
      vertex 3.4 -3.4 1.3
      vertex -3.4 -3.4 5.8
      vertex 3.4 -3.4 5.8
    endloop
  endfacet
  facet normal 0 1 0
    outer loop
      vertex -3.4 -3.4 5.8
      vertex 3.4 -3.4 1.3
      vertex -3.4 -3.4 1.3
    endloop
  endfacet
  facet normal 0.959493 -0.281732 0
    outer loop
      vertex -3.4 0 1.3
      vertex -2.86026 1.83818 -3.50269e-016
      vertex -2.86026 1.83818 1.3
    endloop
  endfacet
  facet normal 0.959493 -0.281732 0
    outer loop
      vertex -2.86026 1.83818 -3.50269e-016
      vertex -3.4 0 1.3
      vertex -3.4 0 -4.16366e-016
    endloop
  endfacet
  facet normal -1 0 0
    outer loop
      vertex 3.26228 -0.957891 3.995e-016
      vertex 3.26228 0.957891 1.3
      vertex 3.26228 0.957891 3.995e-016
    endloop
  endfacet
  facet normal -1 -0 0
    outer loop
      vertex 3.26228 0.957891 1.3
      vertex 3.26228 -0.957891 3.995e-016
      vertex 3.26228 -0.957891 1.3
    endloop
  endfacet
  facet normal 0.142315 0.989821 -0
    outer loop
      vertex 0.48387 -3.36539 5.9255e-017
      vertex -1.41241 -3.09275 1.3
      vertex 0.48387 -3.36539 1.3
    endloop
  endfacet
  facet normal 0.142315 0.989821 0
    outer loop
      vertex -1.41241 -3.09275 1.3
      vertex 0.48387 -3.36539 5.9255e-017
      vertex -1.41241 -3.09275 -1.72965e-016
    endloop
  endfacet
  facet normal 0.142315 -0.989821 0
    outer loop
      vertex -1.41241 3.09275 1.3
      vertex 0.48387 3.36539 5.9255e-017
      vertex 0.48387 3.36539 1.3
    endloop
  endfacet
  facet normal 0.142315 -0.989821 0
    outer loop
      vertex 0.48387 3.36539 5.9255e-017
      vertex -1.41241 3.09275 1.3
      vertex -1.41241 3.09275 -1.72965e-016
    endloop
  endfacet
  facet normal 0.654861 -0.75575 0
    outer loop
      vertex -2.86026 1.83818 1.3
      vertex -1.41241 3.09275 -1.72965e-016
      vertex -1.41241 3.09275 1.3
    endloop
  endfacet
  facet normal 0.654861 -0.75575 0
    outer loop
      vertex -1.41241 3.09275 -1.72965e-016
      vertex -2.86026 1.83818 1.3
      vertex -2.86026 1.83818 -3.50269e-016
    endloop
  endfacet
  facet normal -0.841253 -0.540641 0
    outer loop
      vertex 3.26228 0.957891 3.995e-016
      vertex 2.22653 2.56955 1.3
      vertex 2.22653 2.56955 2.72662e-016
    endloop
  endfacet
  facet normal -0.841253 -0.540641 0
    outer loop
      vertex 2.22653 2.56955 1.3
      vertex 3.26228 0.957891 3.995e-016
      vertex 3.26228 0.957891 1.3
    endloop
  endfacet
  facet normal -0.415415 -0.909632 0
    outer loop
      vertex 0.48387 3.36539 1.3
      vertex 2.22653 2.56955 2.72662e-016
      vertex 2.22653 2.56955 1.3
    endloop
  endfacet
  facet normal -0.415415 -0.909632 0
    outer loop
      vertex 2.22653 2.56955 2.72662e-016
      vertex 0.48387 3.36539 1.3
      vertex 0.48387 3.36539 5.9255e-017
    endloop
  endfacet
  facet normal 0.959493 0.281732 0
    outer loop
      vertex -2.86026 -1.83818 1.3
      vertex -3.4 0 -4.16366e-016
      vertex -3.4 0 1.3
    endloop
  endfacet
  facet normal 0.959493 0.281732 0
    outer loop
      vertex -3.4 0 -4.16366e-016
      vertex -2.86026 -1.83818 1.3
      vertex -2.86026 -1.83818 -3.50269e-016
    endloop
  endfacet
  facet normal 0.654861 0.75575 -0
    outer loop
      vertex -1.41241 -3.09275 -1.72965e-016
      vertex -2.86026 -1.83818 1.3
      vertex -1.41241 -3.09275 1.3
    endloop
  endfacet
  facet normal 0.654861 0.75575 0
    outer loop
      vertex -2.86026 -1.83818 1.3
      vertex -1.41241 -3.09275 -1.72965e-016
      vertex -2.86026 -1.83818 -3.50269e-016
    endloop
  endfacet
  facet normal -0.415415 0.909632 0
    outer loop
      vertex 2.22653 -2.56955 2.72662e-016
      vertex 0.48387 -3.36539 1.3
      vertex 2.22653 -2.56955 1.3
    endloop
  endfacet
  facet normal -0.415415 0.909632 0
    outer loop
      vertex 0.48387 -3.36539 1.3
      vertex 2.22653 -2.56955 2.72662e-016
      vertex 0.48387 -3.36539 5.9255e-017
    endloop
  endfacet
  facet normal -0.841253 0.540641 0
    outer loop
      vertex 2.22653 -2.56955 2.72662e-016
      vertex 3.26228 -0.957891 1.3
      vertex 3.26228 -0.957891 3.995e-016
    endloop
  endfacet
  facet normal -0.841253 0.540641 0
    outer loop
      vertex 3.26228 -0.957891 1.3
      vertex 2.22653 -2.56955 2.72662e-016
      vertex 2.22653 -2.56955 1.3
    endloop
  endfacet
endsolid OpenSCAD_Model
