solid OpenSCAD_Model
  facet normal -1 0 0
    outer loop
      vertex -15 6.76336 7.42705
      vertex -15 0 10
      vertex -15 10 10
    endloop
  endfacet
  facet normal -1 0 0
    outer loop
      vertex -15 0 0
      vertex -15 0 10
      vertex -15 2.14683 5.92705
    endloop
  endfacet
  facet normal -1 0 0
    outer loop
      vertex -15 0 0
      vertex -15 2.14683 5.92705
      vertex -15 2.14683 4.07295
    endloop
  endfacet
  facet normal -1 0 0
    outer loop
      vertex -15 0 0
      vertex -15 2.14683 4.07295
      vertex -15 3.23664 2.57295
    endloop
  endfacet
  facet normal -1 0 0
    outer loop
      vertex -15 0 0
      vertex -15 3.23664 2.57295
      vertex -15 10 0
    endloop
  endfacet
  facet normal -1 0 0
    outer loop
      vertex -15 3.23664 2.57295
      vertex -15 5 2
      vertex -15 10 0
    endloop
  endfacet
  facet normal -1 0 0
    outer loop
      vertex -15 6.76336 2.57295
      vertex -15 10 0
      vertex -15 5 2
    endloop
  endfacet
  facet normal -1 0 0
    outer loop
      vertex -15 7.85317 4.07295
      vertex -15 10 0
      vertex -15 6.76336 2.57295
    endloop
  endfacet
  facet normal -1 0 0
    outer loop
      vertex -15 10 0
      vertex -15 7.85317 4.07295
      vertex -15 10 10
    endloop
  endfacet
  facet normal -1 0 0
    outer loop
      vertex -15 7.85317 4.07295
      vertex -15 7.85317 5.92705
      vertex -15 10 10
    endloop
  endfacet
  facet normal -1 0 0
    outer loop
      vertex -15 5 8
      vertex -15 0 10
      vertex -15 6.76336 7.42705
    endloop
  endfacet
  facet normal -1 0 0
    outer loop
      vertex -15 7.85317 5.92705
      vertex -15 6.76336 7.42705
      vertex -15 10 10
    endloop
  endfacet
  facet normal -1 0 0
    outer loop
      vertex -15 3.23664 7.42705
      vertex -15 0 10
      vertex -15 5 8
    endloop
  endfacet
  facet normal -1 0 0
    outer loop
      vertex -15 2.14683 5.92705
      vertex -15 0 10
      vertex -15 3.23664 7.42705
    endloop
  endfacet
  facet normal 0 -1 0
    outer loop
      vertex -15 0 10
      vertex -15 0 0
      vertex 15 0 0
    endloop
  endfacet
  facet normal 0 -1 0
    outer loop
      vertex 15 0 10
      vertex -15 0 10
      vertex 15 0 0
    endloop
  endfacet
  facet normal 0 0 -1
    outer loop
      vertex -15 0 0
      vertex -15 10 0
      vertex 15 0 0
    endloop
  endfacet
  facet normal 0 0 -1
    outer loop
      vertex 15 0 0
      vertex -15 10 0
      vertex -13.5 10 0
    endloop
  endfacet
  facet normal 0 0 -1
    outer loop
      vertex -10.5 10 0
      vertex -13.5 10 0
      vertex -13.5 30 0
    endloop
  endfacet
  facet normal 0 0 -1
    outer loop
      vertex 15 0 0
      vertex -13.5 10 0
      vertex -10.5 10 0
    endloop
  endfacet
  facet normal 0 0 -1
    outer loop
      vertex 10.5 10 0
      vertex 15 0 0
      vertex -10.5 10 0
    endloop
  endfacet
  facet normal 0 0 -1
    outer loop
      vertex 15 10 0
      vertex 15 0 0
      vertex 13.5 10 0
    endloop
  endfacet
  facet normal 0 0 -1
    outer loop
      vertex 15 0 0
      vertex 10.5 10 0
      vertex 13.5 10 0
    endloop
  endfacet
  facet normal 0 0 -1
    outer loop
      vertex 13.5 10 0
      vertex 10.5 30 0
      vertex 13.5 30 0
    endloop
  endfacet
  facet normal 0 0 -1
    outer loop
      vertex 10.5 10 0
      vertex 10.5 30 0
      vertex 13.5 10 0
    endloop
  endfacet
  facet normal 0 0 -1
    outer loop
      vertex -10.5 10 0
      vertex -13.5 30 0
      vertex -10.5 30 0
    endloop
  endfacet
  facet normal 0 1 0
    outer loop
      vertex -15 10 0
      vertex -15 10 10
      vertex -13.5 10 0
    endloop
  endfacet
  facet normal 0 1 0
    outer loop
      vertex -13.5 10 0
      vertex -15 10 10
      vertex -13.5 10 10
    endloop
  endfacet
  facet normal 0 0 1
    outer loop
      vertex -15 10 10
      vertex -15 0 10
      vertex 15 0 10
    endloop
  endfacet
  facet normal 0 0 1
    outer loop
      vertex 10.5 10 10
      vertex -10.5 10 10
      vertex 15 0 10
    endloop
  endfacet
  facet normal 0 0 1
    outer loop
      vertex 13.5 10 10
      vertex 10.5 10 10
      vertex 15 0 10
    endloop
  endfacet
  facet normal 0 0 1
    outer loop
      vertex 15 10 10
      vertex 13.5 10 10
      vertex 15 0 10
    endloop
  endfacet
  facet normal 0 0 1
    outer loop
      vertex 13.5 30 10
      vertex 10.5 10 10
      vertex 13.5 10 10
    endloop
  endfacet
  facet normal 0 0 1
    outer loop
      vertex -10.5 10 10
      vertex -13.5 10 10
      vertex 15 0 10
    endloop
  endfacet
  facet normal 0 0 1
    outer loop
      vertex -13.5 10 10
      vertex -15 10 10
      vertex 15 0 10
    endloop
  endfacet
  facet normal 0 0 1
    outer loop
      vertex -10.5 10 10
      vertex -10.5 30 10
      vertex -13.5 10 10
    endloop
  endfacet
  facet normal 0 0 1
    outer loop
      vertex -13.5 30 10
      vertex -13.5 10 10
      vertex -10.5 30 10
    endloop
  endfacet
  facet normal 0 0 1
    outer loop
      vertex 10.5 30 10
      vertex 10.5 10 10
      vertex 13.5 30 10
    endloop
  endfacet
  facet normal 3.59903e-017 0.809017 -0.587785
    outer loop
      vertex 15 3.23664 7.42705
      vertex 15 2.14683 5.92705
      vertex -15 3.23664 7.42705
    endloop
  endfacet
  facet normal 3.59903e-017 0.809017 -0.587785
    outer loop
      vertex -15 3.23664 7.42705
      vertex 15 2.14683 5.92705
      vertex -15 2.14683 5.92705
    endloop
  endfacet
  facet normal 0 1 0
    outer loop
      vertex 15 2.14683 5.92705
      vertex 15 2.14683 4.07295
      vertex -15 2.14683 5.92705
    endloop
  endfacet
  facet normal 0 1 0
    outer loop
      vertex -15 2.14683 5.92705
      vertex 15 2.14683 4.07295
      vertex -15 2.14683 4.07295
    endloop
  endfacet
  facet normal 5.82335e-017 0.309017 -0.951057
    outer loop
      vertex 15 5 8
      vertex 15 3.23664 7.42705
      vertex -15 5 8
    endloop
  endfacet
  facet normal 5.82335e-017 0.309017 -0.951057
    outer loop
      vertex -15 5 8
      vertex 15 3.23664 7.42705
      vertex -15 3.23664 7.42705
    endloop
  endfacet
  facet normal 5.82335e-017 -0.309017 -0.951057
    outer loop
      vertex 15 6.76336 7.42705
      vertex 15 5 8
      vertex -15 6.76336 7.42705
    endloop
  endfacet
  facet normal 5.82335e-017 -0.309017 -0.951057
    outer loop
      vertex -15 6.76336 7.42705
      vertex 15 5 8
      vertex -15 5 8
    endloop
  endfacet
  facet normal 3.59903e-017 -0.809017 -0.587785
    outer loop
      vertex -15 7.85317 5.92705
      vertex 15 7.85317 5.92705
      vertex 15 6.76336 7.42705
    endloop
  endfacet
  facet normal 3.59903e-017 -0.809017 -0.587785
    outer loop
      vertex -15 6.76336 7.42705
      vertex -15 7.85317 5.92705
      vertex 15 6.76336 7.42705
    endloop
  endfacet
  facet normal 0 -1 0
    outer loop
      vertex 15 7.85317 4.07295
      vertex 15 7.85317 5.92705
      vertex -15 7.85317 5.92705
    endloop
  endfacet
  facet normal 0 -1 0
    outer loop
      vertex -15 7.85317 4.07295
      vertex 15 7.85317 4.07295
      vertex -15 7.85317 5.92705
    endloop
  endfacet
  facet normal -3.59903e-017 -0.809017 0.587785
    outer loop
      vertex 15 6.76336 2.57295
      vertex 15 7.85317 4.07295
      vertex -15 7.85317 4.07295
    endloop
  endfacet
  facet normal -3.59903e-017 -0.809017 0.587785
    outer loop
      vertex -15 6.76336 2.57295
      vertex 15 6.76336 2.57295
      vertex -15 7.85317 4.07295
    endloop
  endfacet
  facet normal -5.82335e-017 -0.309017 0.951057
    outer loop
      vertex 15 5 2
      vertex 15 6.76336 2.57295
      vertex -15 6.76336 2.57295
    endloop
  endfacet
  facet normal -5.82335e-017 -0.309017 0.951057
    outer loop
      vertex -15 5 2
      vertex 15 5 2
      vertex -15 6.76336 2.57295
    endloop
  endfacet
  facet normal -5.82335e-017 0.309017 0.951057
    outer loop
      vertex 15 3.23664 2.57295
      vertex 15 5 2
      vertex -15 5 2
    endloop
  endfacet
  facet normal -5.82335e-017 0.309017 0.951057
    outer loop
      vertex -15 3.23664 2.57295
      vertex 15 3.23664 2.57295
      vertex -15 5 2
    endloop
  endfacet
  facet normal -3.59903e-017 0.809017 0.587785
    outer loop
      vertex 15 3.23664 2.57295
      vertex -15 3.23664 2.57295
      vertex 15 2.14683 4.07295
    endloop
  endfacet
  facet normal -3.59903e-017 0.809017 0.587785
    outer loop
      vertex 15 2.14683 4.07295
      vertex -15 3.23664 2.57295
      vertex -15 2.14683 4.07295
    endloop
  endfacet
  facet normal 1 0 0
    outer loop
      vertex 15 5 2
      vertex 15 0 0
      vertex 15 10 0
    endloop
  endfacet
  facet normal 1 0 0
    outer loop
      vertex 15 0 10
      vertex 15 0 0
      vertex 15 2.14683 4.07295
    endloop
  endfacet
  facet normal 1 0 0
    outer loop
      vertex 15 0 10
      vertex 15 2.14683 4.07295
      vertex 15 2.14683 5.92705
    endloop
  endfacet
  facet normal 1 0 0
    outer loop
      vertex 15 10 10
      vertex 15 0 10
      vertex 15 3.23664 7.42705
    endloop
  endfacet
  facet normal 1 0 0
    outer loop
      vertex 15 6.76336 2.57295
      vertex 15 5 2
      vertex 15 10 0
    endloop
  endfacet
  facet normal 1 0 0
    outer loop
      vertex 15 10 10
      vertex 15 3.23664 7.42705
      vertex 15 5 8
    endloop
  endfacet
  facet normal 1 0 0
    outer loop
      vertex 15 10 10
      vertex 15 5 8
      vertex 15 6.76336 7.42705
    endloop
  endfacet
  facet normal 1 0 0
    outer loop
      vertex 15 10 10
      vertex 15 7.85317 5.92705
      vertex 15 10 0
    endloop
  endfacet
  facet normal 1 0 0
    outer loop
      vertex 15 10 10
      vertex 15 6.76336 7.42705
      vertex 15 7.85317 5.92705
    endloop
  endfacet
  facet normal 1 0 0
    outer loop
      vertex 15 7.85317 5.92705
      vertex 15 7.85317 4.07295
      vertex 15 10 0
    endloop
  endfacet
  facet normal 1 0 0
    outer loop
      vertex 15 7.85317 4.07295
      vertex 15 6.76336 2.57295
      vertex 15 10 0
    endloop
  endfacet
  facet normal 1 0 0
    outer loop
      vertex 15 3.23664 2.57295
      vertex 15 0 0
      vertex 15 5 2
    endloop
  endfacet
  facet normal 1 0 0
    outer loop
      vertex 15 2.14683 4.07295
      vertex 15 0 0
      vertex 15 3.23664 2.57295
    endloop
  endfacet
  facet normal 1 0 0
    outer loop
      vertex 15 2.14683 5.92705
      vertex 15 3.23664 7.42705
      vertex 15 0 10
    endloop
  endfacet
  facet normal 0 1 0
    outer loop
      vertex 13.5 10 0
      vertex 13.5 10 10
      vertex 15 10 0
    endloop
  endfacet
  facet normal 0 1 0
    outer loop
      vertex 15 10 0
      vertex 13.5 10 10
      vertex 15 10 10
    endloop
  endfacet
  facet normal 1 0 0
    outer loop
      vertex 13.5 10 10
      vertex 13.5 10 0
      vertex 13.5 30 0
    endloop
  endfacet
  facet normal 1 0 0
    outer loop
      vertex 13.5 30 10
      vertex 13.5 10 10
      vertex 13.5 30 0
    endloop
  endfacet
  facet normal 0 1 0
    outer loop
      vertex 10.5 30 0
      vertex 10.5 30 10
      vertex 13.5 30 0
    endloop
  endfacet
  facet normal 0 1 0
    outer loop
      vertex 13.5 30 0
      vertex 10.5 30 10
      vertex 13.5 30 10
    endloop
  endfacet
  facet normal -1 0 0
    outer loop
      vertex 10.5 25 7.5
      vertex 10.5 10 10
      vertex 10.5 30 10
    endloop
  endfacet
  facet normal -1 0 0
    outer loop
      vertex 10.5 10 0
      vertex 10.5 10 10
      vertex 10.5 23.2322 3.23223
    endloop
  endfacet
  facet normal -1 0 0
    outer loop
      vertex 10.5 10 0
      vertex 10.5 23.2322 3.23223
      vertex 10.5 30 0
    endloop
  endfacet
  facet normal -1 0 0
    outer loop
      vertex 10.5 26.7678 3.23223
      vertex 10.5 30 0
      vertex 10.5 25 2.5
    endloop
  endfacet
  facet normal -1 0 0
    outer loop
      vertex 10.5 23.2322 3.23223
      vertex 10.5 25 2.5
      vertex 10.5 30 0
    endloop
  endfacet
  facet normal -1 0 0
    outer loop
      vertex 10.5 25 7.5
      vertex 10.5 30 10
      vertex 10.5 26.7678 6.76777
    endloop
  endfacet
  facet normal -1 0 0
    outer loop
      vertex 10.5 30 0
      vertex 10.5 26.7678 3.23223
      vertex 10.5 30 10
    endloop
  endfacet
  facet normal -1 0 0
    outer loop
      vertex 10.5 26.7678 3.23223
      vertex 10.5 27.5 5
      vertex 10.5 30 10
    endloop
  endfacet
  facet normal -1 0 0
    outer loop
      vertex 10.5 27.5 5
      vertex 10.5 26.7678 6.76777
      vertex 10.5 30 10
    endloop
  endfacet
  facet normal -1 0 0
    outer loop
      vertex 10.5 23.2322 6.76777
      vertex 10.5 10 10
      vertex 10.5 25 7.5
    endloop
  endfacet
  facet normal -1 0 0
    outer loop
      vertex 10.5 22.5 5
      vertex 10.5 10 10
      vertex 10.5 23.2322 6.76777
    endloop
  endfacet
  facet normal -1 0 0
    outer loop
      vertex 10.5 23.2322 3.23223
      vertex 10.5 10 10
      vertex 10.5 22.5 5
    endloop
  endfacet
  facet normal 0 1 0
    outer loop
      vertex -10.5 10 0
      vertex -10.5 10 10
      vertex 10.5 10 0
    endloop
  endfacet
  facet normal 0 1 0
    outer loop
      vertex 10.5 10 0
      vertex -10.5 10 10
      vertex 10.5 10 10
    endloop
  endfacet
  facet normal 1 0 0
    outer loop
      vertex -10.5 23.2322 3.23223
      vertex -10.5 10 0
      vertex -10.5 30 0
    endloop
  endfacet
  facet normal 1 0 0
    outer loop
      vertex -10.5 25 2.5
      vertex -10.5 23.2322 3.23223
      vertex -10.5 30 0
    endloop
  endfacet
  facet normal 1 0 0
    outer loop
      vertex -10.5 10 10
      vertex -10.5 10 0
      vertex -10.5 23.2322 3.23223
    endloop
  endfacet
  facet normal 1 0 0
    outer loop
      vertex -10.5 23.2322 6.76777
      vertex -10.5 10 10
      vertex -10.5 22.5 5
    endloop
  endfacet
  facet normal 1 0 0
    outer loop
      vertex -10.5 30 10
      vertex -10.5 10 10
      vertex -10.5 23.2322 6.76777
    endloop
  endfacet
  facet normal 1 0 0
    outer loop
      vertex -10.5 26.7678 3.23223
      vertex -10.5 25 2.5
      vertex -10.5 30 0
    endloop
  endfacet
  facet normal 1 0 0
    outer loop
      vertex -10.5 30 10
      vertex -10.5 23.2322 6.76777
      vertex -10.5 25 7.5
    endloop
  endfacet
  facet normal 1 0 0
    outer loop
      vertex -10.5 30 10
      vertex -10.5 26.7678 6.76777
      vertex -10.5 30 0
    endloop
  endfacet
  facet normal 1 0 0
    outer loop
      vertex -10.5 26.7678 6.76777
      vertex -10.5 27.5 5
      vertex -10.5 30 0
    endloop
  endfacet
  facet normal 1 0 0
    outer loop
      vertex -10.5 27.5 5
      vertex -10.5 26.7678 3.23223
      vertex -10.5 30 0
    endloop
  endfacet
  facet normal 1 0 0
    outer loop
      vertex -10.5 25 7.5
      vertex -10.5 26.7678 6.76777
      vertex -10.5 30 10
    endloop
  endfacet
  facet normal 1 0 0
    outer loop
      vertex -10.5 23.2322 3.23223
      vertex -10.5 22.5 5
      vertex -10.5 10 10
    endloop
  endfacet
  facet normal 0 1 0
    outer loop
      vertex -13.5 30 0
      vertex -13.5 30 10
      vertex -10.5 30 0
    endloop
  endfacet
  facet normal 0 1 0
    outer loop
      vertex -10.5 30 0
      vertex -13.5 30 10
      vertex -10.5 30 10
    endloop
  endfacet
  facet normal -1 0 0
    outer loop
      vertex -13.5 10 0
      vertex -13.5 10 10
      vertex -13.5 30 0
    endloop
  endfacet
  facet normal -1 0 0
    outer loop
      vertex -13.5 30 0
      vertex -13.5 10 10
      vertex -13.5 30 10
    endloop
  endfacet
  facet normal -2.34318e-017 -0.92388 0.382683
    outer loop
      vertex 10.5 23.2322 6.76777
      vertex 9 23.2322 6.76777
      vertex 9 22.5 5
    endloop
  endfacet
  facet normal -2.34318e-017 -0.92388 0.382683
    outer loop
      vertex 10.5 22.5 5
      vertex 10.5 23.2322 6.76777
      vertex 9 22.5 5
    endloop
  endfacet
  facet normal 2.34318e-017 -0.92388 -0.382683
    outer loop
      vertex 10.5 22.5 5
      vertex 9 22.5 5
      vertex 9 23.2322 3.23223
    endloop
  endfacet
  facet normal 2.34318e-017 -0.92388 -0.382683
    outer loop
      vertex 10.5 23.2322 3.23223
      vertex 10.5 22.5 5
      vertex 9 23.2322 3.23223
    endloop
  endfacet
  facet normal -5.65694e-017 -0.382683 0.92388
    outer loop
      vertex 10.5 25 7.5
      vertex 9 25 7.5
      vertex 9 23.2322 6.76777
    endloop
  endfacet
  facet normal -5.65694e-017 -0.382683 0.92388
    outer loop
      vertex 10.5 23.2322 6.76777
      vertex 10.5 25 7.5
      vertex 9 23.2322 6.76777
    endloop
  endfacet
  facet normal -5.65694e-017 0.382683 0.92388
    outer loop
      vertex 9 26.7678 6.76777
      vertex 9 25 7.5
      vertex 10.5 25 7.5
    endloop
  endfacet
  facet normal -5.65694e-017 0.382683 0.92388
    outer loop
      vertex 10.5 26.7678 6.76777
      vertex 9 26.7678 6.76777
      vertex 10.5 25 7.5
    endloop
  endfacet
  facet normal -2.34318e-017 0.92388 0.382683
    outer loop
      vertex 9 26.7678 6.76777
      vertex 10.5 26.7678 6.76777
      vertex 9 27.5 5
    endloop
  endfacet
  facet normal -2.34318e-017 0.92388 0.382683
    outer loop
      vertex 9 27.5 5
      vertex 10.5 26.7678 6.76777
      vertex 10.5 27.5 5
    endloop
  endfacet
  facet normal 2.34318e-017 0.92388 -0.382683
    outer loop
      vertex 9 27.5 5
      vertex 10.5 27.5 5
      vertex 9 26.7678 3.23223
    endloop
  endfacet
  facet normal 2.34318e-017 0.92388 -0.382683
    outer loop
      vertex 9 26.7678 3.23223
      vertex 10.5 27.5 5
      vertex 10.5 26.7678 3.23223
    endloop
  endfacet
  facet normal 5.65694e-017 0.382683 -0.92388
    outer loop
      vertex 9 26.7678 3.23223
      vertex 10.5 26.7678 3.23223
      vertex 9 25 2.5
    endloop
  endfacet
  facet normal 5.65694e-017 0.382683 -0.92388
    outer loop
      vertex 9 25 2.5
      vertex 10.5 26.7678 3.23223
      vertex 10.5 25 2.5
    endloop
  endfacet
  facet normal 5.65694e-017 -0.382683 -0.92388
    outer loop
      vertex 9 23.2322 3.23223
      vertex 9 25 2.5
      vertex 10.5 23.2322 3.23223
    endloop
  endfacet
  facet normal 5.65694e-017 -0.382683 -0.92388
    outer loop
      vertex 10.5 23.2322 3.23223
      vertex 9 25 2.5
      vertex 10.5 25 2.5
    endloop
  endfacet
  facet normal 2.34318e-017 -0.92388 -0.382683
    outer loop
      vertex -9 22.5 5
      vertex -10.5 22.5 5
      vertex -10.5 23.2322 3.23223
    endloop
  endfacet
  facet normal 2.34318e-017 -0.92388 -0.382683
    outer loop
      vertex -9 23.2322 3.23223
      vertex -9 22.5 5
      vertex -10.5 23.2322 3.23223
    endloop
  endfacet
  facet normal 5.65694e-017 -0.382683 -0.92388
    outer loop
      vertex -10.5 23.2322 3.23223
      vertex -10.5 25 2.5
      vertex -9 23.2322 3.23223
    endloop
  endfacet
  facet normal 5.65694e-017 -0.382683 -0.92388
    outer loop
      vertex -9 23.2322 3.23223
      vertex -10.5 25 2.5
      vertex -9 25 2.5
    endloop
  endfacet
  facet normal 5.65694e-017 0.382683 -0.92388
    outer loop
      vertex -10.5 25 2.5
      vertex -10.5 26.7678 3.23223
      vertex -9 25 2.5
    endloop
  endfacet
  facet normal 5.65694e-017 0.382683 -0.92388
    outer loop
      vertex -9 25 2.5
      vertex -10.5 26.7678 3.23223
      vertex -9 26.7678 3.23223
    endloop
  endfacet
  facet normal 2.34318e-017 0.92388 -0.382683
    outer loop
      vertex -10.5 26.7678 3.23223
      vertex -10.5 27.5 5
      vertex -9 26.7678 3.23223
    endloop
  endfacet
  facet normal 2.34318e-017 0.92388 -0.382683
    outer loop
      vertex -9 26.7678 3.23223
      vertex -10.5 27.5 5
      vertex -9 27.5 5
    endloop
  endfacet
  facet normal -2.34318e-017 0.92388 0.382683
    outer loop
      vertex -10.5 26.7678 6.76777
      vertex -9 26.7678 6.76777
      vertex -10.5 27.5 5
    endloop
  endfacet
  facet normal -2.34318e-017 0.92388 0.382683
    outer loop
      vertex -10.5 27.5 5
      vertex -9 26.7678 6.76777
      vertex -9 27.5 5
    endloop
  endfacet
  facet normal -5.65694e-017 0.382683 0.92388
    outer loop
      vertex -10.5 26.7678 6.76777
      vertex -10.5 25 7.5
      vertex -9 25 7.5
    endloop
  endfacet
  facet normal -5.65694e-017 0.382683 0.92388
    outer loop
      vertex -9 26.7678 6.76777
      vertex -10.5 26.7678 6.76777
      vertex -9 25 7.5
    endloop
  endfacet
  facet normal -5.65694e-017 -0.382683 0.92388
    outer loop
      vertex -10.5 25 7.5
      vertex -10.5 23.2322 6.76777
      vertex -9 23.2322 6.76777
    endloop
  endfacet
  facet normal -5.65694e-017 -0.382683 0.92388
    outer loop
      vertex -9 25 7.5
      vertex -10.5 25 7.5
      vertex -9 23.2322 6.76777
    endloop
  endfacet
  facet normal -2.34318e-017 -0.92388 0.382683
    outer loop
      vertex -10.5 23.2322 6.76777
      vertex -10.5 22.5 5
      vertex -9 22.5 5
    endloop
  endfacet
  facet normal -2.34318e-017 -0.92388 0.382683
    outer loop
      vertex -9 23.2322 6.76777
      vertex -10.5 23.2322 6.76777
      vertex -9 22.5 5
    endloop
  endfacet
  facet normal -1 0 -6.12303e-017
    outer loop
      vertex 9 25 7.5
      vertex 9 26.7678 6.76777
      vertex 9 23.2322 6.76777
    endloop
  endfacet
  facet normal -1 0 -6.12303e-017
    outer loop
      vertex 9 23.2322 6.76777
      vertex 9 26.7678 6.76777
      vertex 9 27.5 5
    endloop
  endfacet
  facet normal -1 0 -6.12303e-017
    outer loop
      vertex 9 23.2322 6.76777
      vertex 9 27.5 5
      vertex 9 26.7678 3.23223
    endloop
  endfacet
  facet normal -1 0 -6.12303e-017
    outer loop
      vertex 9 23.2322 6.76777
      vertex 9 26.7678 3.23223
      vertex 9 25 2.5
    endloop
  endfacet
  facet normal -1 0 -6.12303e-017
    outer loop
      vertex 9 23.2322 6.76777
      vertex 9 25 2.5
      vertex 9 23.2322 3.23223
    endloop
  endfacet
  facet normal -1 0 -6.12303e-017
    outer loop
      vertex 9 23.2322 6.76777
      vertex 9 23.2322 3.23223
      vertex 9 22.5 5
    endloop
  endfacet
  facet normal 1 0 6.12303e-017
    outer loop
      vertex -9 26.7678 6.76777
      vertex -9 25 7.5
      vertex -9 23.2322 6.76777
    endloop
  endfacet
  facet normal 1 0 6.12303e-017
    outer loop
      vertex -9 23.2322 3.23223
      vertex -9 26.7678 6.76777
      vertex -9 22.5 5
    endloop
  endfacet
  facet normal 1 0 6.12303e-017
    outer loop
      vertex -9 22.5 5
      vertex -9 26.7678 6.76777
      vertex -9 23.2322 6.76777
    endloop
  endfacet
  facet normal 1 0 6.12303e-017
    outer loop
      vertex -9 25 2.5
      vertex -9 26.7678 6.76777
      vertex -9 23.2322 3.23223
    endloop
  endfacet
  facet normal 1 0 6.12303e-017
    outer loop
      vertex -9 26.7678 3.23223
      vertex -9 26.7678 6.76777
      vertex -9 25 2.5
    endloop
  endfacet
  facet normal 1 0 6.12303e-017
    outer loop
      vertex -9 27.5 5
      vertex -9 26.7678 6.76777
      vertex -9 26.7678 3.23223
    endloop
  endfacet
endsolid OpenSCAD_Model
