  0
SECTION
  2
HEADER
  9
$ACADVER
  1
AC1024
  9
$ACADMAINTVER
 70
6
  9
$DWGCODEPAGE
  3
ANSI_1252
  9
$LASTSAVEDBY
  1
ezdxf
  9
$INSBASE
 10
0.0
 20
0.0
 30
0.0
  9
$EXTMIN
 10
1e+20
 20
1e+20
 30
1e+20
  9
$EXTMAX
 10
-1e+20
 20
-1e+20
 30
-1e+20
  9
$LIMMIN
 10
0.0
 20
0.0
  9
$LIMMAX
 10
420.0
 20
297.0
  9
$ORTHOMODE
 70
0
  9
$REGENMODE
 70
1
  9
$FILLMODE
 70
1
  9
$QTEXTMODE
 70
0
  9
$MIRRTEXT
 70
1
  9
$LTSCALE
 40
1.0
  9
$ATTMODE
 70
1
  9
$TEXTSIZE
 40
2.5
  9
$TRACEWID
 40
1.0
  9
$TEXTSTYLE
  7
Standard
  9
$CLAYER
  8
0
  9
$CELTYPE
  6
ByLayer
  9
$CECOLOR
 62
256
  9
$CELTSCALE
 40
1.0
  9
$DISPSILH
 70
0
  9
$DIMSCALE
 40
1.0
  9
$DIMASZ
 40
2.5
  9
$DIMEXO
 40
0.625
  9
$DIMDLI
 40
3.75
  9
$DIMRND
 40
0.0
  9
$DIMDLE
 40
0.0
  9
$DIMEXE
 40
1.25
  9
$DIMTP
 40
0.0
  9
$DIMTM
 40
0.0
  9
$DIMTXT
 40
2.5
  9
$DIMCEN
 40
2.5
  9
$DIMTSZ
 40
0.0
  9
$DIMTOL
 70
0
  9
$DIMLIM
 70
0
  9
$DIMTIH
 70
0
  9
$DIMTOH
 70
0
  9
$DIMSE1
 70
0
  9
$DIMSE2
 70
0
  9
$DIMTAD
 70
1
  9
$DIMZIN
 70
8
  9
$DIMBLK
  1

  9
$DIMASO
 70
1
  9
$DIMSHO
 70
1
  9
$DIMPOST
  1

  9
$DIMAPOST
  1

  9
$DIMALT
 70
0
  9
$DIMALTD
 70
3
  9
$DIMALTF
 40
0.03937007874
  9
$DIMLFAC
 40
1.0
  9
$DIMTOFL
 70
1
  9
$DIMTVP
 40
0.0
  9
$DIMTIX
 70
0
  9
$DIMSOXD
 70
0
  9
$DIMSAH
 70
0
  9
$DIMBLK1
  1

  9
$DIMBLK2
  1

  9
$DIMSTYLE
  2
ISO-25
  9
$DIMCLRD
 70
0
  9
$DIMCLRE
 70
0
  9
$DIMCLRT
 70
0
  9
$DIMTFAC
 40
1.0
  9
$DIMGAP
 40
0.625
  9
$DIMJUST
 70
0
  9
$DIMSD1
 70
0
  9
$DIMSD2
 70
0
  9
$DIMTOLJ
 70
0
  9
$DIMTZIN
 70
8
  9
$DIMALTZ
 70
0
  9
$DIMALTTZ
 70
0
  9
$DIMUPT
 70
0
  9
$DIMDEC
 70
2
  9
$DIMTDEC
 70
2
  9
$DIMALTU
 70
2
  9
$DIMALTTD
 70
3
  9
$DIMTXSTY
  7
Standard
  9
$DIMAUNIT
 70
0
  9
$DIMADEC
 70
0
  9
$DIMALTRND
 40
0.0
  9
$DIMAZIN
 70
0
  9
$DIMDSEP
 70
44
  9
$DIMATFIT
 70
3
  9
$DIMFRAC
 70
0
  9
$DIMLDRBLK
  1

  9
$DIMLUNIT
 70
2
  9
$DIMLWD
 70
-2
  9
$DIMLWE
 70
-2
  9
$DIMTMOVE
 70
0
  9
$DIMFXL
 40
1.0
  9
$DIMFXLON
 70
0
  9
$DIMJOGANG
 40
0.785398163397
  9
$DIMTFILL
 70
0
  9
$DIMTFILLCLR
 70
0
  9
$DIMARCSYM
 70
0
  9
$DIMLTYPE
  6

  9
$DIMLTEX1
  6

  9
$DIMLTEX2
  6

  9
$DIMTXTDIRECTION
 70
0
  9
$LUNITS
 70
2
  9
$LUPREC
 70
4
  9
$SKETCHINC
 40
1.0
  9
$FILLETRAD
 40
10.0
  9
$AUNITS
 70
0
  9
$AUPREC
 70
2
  9
$MENU
  1
.
  9
$ELEVATION
 40
0.0
  9
$PELEVATION
 40
0.0
  9
$THICKNESS
 40
0.0
  9
$LIMCHECK
 70
0
  9
$CHAMFERA
 40
0.0
  9
$CHAMFERB
 40
0.0
  9
$CHAMFERC
 40
0.0
  9
$CHAMFERD
 40
0.0
  9
$SKPOLY
 70
0
  9
$TDCREATE
 40
2460647.7480439814
  9
$TDUCREATE
 40
2458532.153996898
  9
$TDUPDATE
 40
2460647.7480439814
  9
$TDUUPDATE
 40
2458532.1544311
  9
$TDINDWG
 40
0.0
  9
$TDUSRTIMER
 40
0.0
  9
$USRTIMER
 70
1
  9
$ANGBASE
 50
0.0
  9
$ANGDIR
 70
0
  9
$PDMODE
 70
0
  9
$PDSIZE
 40
0.0
  9
$PLINEWID
 40
0.0
  9
$SPLFRAME
 70
0
  9
$SPLINETYPE
 70
6
  9
$SPLINESEGS
 70
8
  9
$HANDSEED
  5
60
  9
$SURFTAB1
 70
6
  9
$SURFTAB2
 70
6
  9
$SURFTYPE
 70
6
  9
$SURFU
 70
6
  9
$SURFV
 70
6
  9
$UCSBASE
  2

  9
$UCSNAME
  2

  9
$UCSORG
 10
0.0
 20
0.0
 30
0.0
  9
$UCSXDIR
 10
1.0
 20
0.0
 30
0.0
  9
$UCSYDIR
 10
0.0
 20
1.0
 30
0.0
  9
$UCSORTHOREF
  2

  9
$UCSORTHOVIEW
 70
0
  9
$UCSORGTOP
 10
0.0
 20
0.0
 30
0.0
  9
$UCSORGBOTTOM
 10
0.0
 20
0.0
 30
0.0
  9
$UCSORGLEFT
 10
0.0
 20
0.0
 30
0.0
  9
$UCSORGRIGHT
 10
0.0
 20
0.0
 30
0.0
  9
$UCSORGFRONT
 10
0.0
 20
0.0
 30
0.0
  9
$UCSORGBACK
 10
0.0
 20
0.0
 30
0.0
  9
$PUCSBASE
  2

  9
$PUCSNAME
  2

  9
$PUCSORG
 10
0.0
 20
0.0
 30
0.0
  9
$PUCSXDIR
 10
1.0
 20
0.0
 30
0.0
  9
$PUCSYDIR
 10
0.0
 20
1.0
 30
0.0
  9
$PUCSORTHOREF
  2

  9
$PUCSORTHOVIEW
 70
0
  9
$PUCSORGTOP
 10
0.0
 20
0.0
 30
0.0
  9
$PUCSORGBOTTOM
 10
0.0
 20
0.0
 30
0.0
  9
$PUCSORGLEFT
 10
0.0
 20
0.0
 30
0.0
  9
$PUCSORGRIGHT
 10
0.0
 20
0.0
 30
0.0
  9
$PUCSORGFRONT
 10
0.0
 20
0.0
 30
0.0
  9
$PUCSORGBACK
 10
0.0
 20
0.0
 30
0.0
  9
$USERI1
 70
0
  9
$USERI2
 70
0
  9
$USERI3
 70
0
  9
$USERI4
 70
0
  9
$USERI5
 70
0
  9
$USERR1
 40
0.0
  9
$USERR2
 40
0.0
  9
$USERR3
 40
0.0
  9
$USERR4
 40
0.0
  9
$USERR5
 40
0.0
  9
$WORLDVIEW
 70
1
  9
$SHADEDGE
 70
3
  9
$SHADEDIF
 70
70
  9
$TILEMODE
 70
1
  9
$MAXACTVP
 70
64
  9
$PINSBASE
 10
0.0
 20
0.0
 30
0.0
  9
$PLIMCHECK
 70
0
  9
$PEXTMIN
 10
1e+20
 20
1e+20
 30
1e+20
  9
$PEXTMAX
 10
-1e+20
 20
-1e+20
 30
-1e+20
  9
$PLIMMIN
 10
0.0
 20
0.0
  9
$PLIMMAX
 10
420.0
 20
297.0
  9
$UNITMODE
 70
0
  9
$VISRETAIN
 70
1
  9
$PLINEGEN
 70
0
  9
$PSLTSCALE
 70
1
  9
$TREEDEPTH
 70
3020
  9
$CMLSTYLE
  2
Standard
  9
$CMLJUST
 70
0
  9
$CMLSCALE
 40
20.0
  9
$PROXYGRAPHICS
 70
1
  9
$MEASUREMENT
 70
1
  9
$CELWEIGHT
370
-1
  9
$ENDCAPS
280
0
  9
$JOINSTYLE
280
0
  9
$LWDISPLAY
290
0
  9
$INSUNITS
 70
4
  9
$HYPERLINKBASE
  1

  9
$STYLESHEET
  1

  9
$XEDIT
290
1
  9
$CEPSNTYPE
380
0
  9
$PSTYLEMODE
290
1
  9
$FINGERPRINTGUID
  2
{592B07E3-2CD6-48BE-955D-D41D7F06A425}
  9
$VERSIONGUID
  2
{74F9285C-93F7-43AE-9792-A5379229452A}
  9
$EXTNAMES
290
1
  9
$PSVPSCALE
 40
0.0
  9
$OLESTARTUP
290
0
  9
$SORTENTS
280
127
  9
$INDEXCTL
280
0
  9
$HIDETEXT
280
1
  9
$XCLIPFRAME
280
1
  9
$HALOGAP
280
0
  9
$OBSCOLOR
 70
257
  9
$OBSLTYPE
280
0
  9
$INTERSECTIONDISPLAY
280
0
  9
$INTERSECTIONCOLOR
 70
257
  9
$DIMASSOC
280
2
  9
$PROJECTNAME
  1

  9
$CAMERADISPLAY
290
0
  9
$LENSLENGTH
 40
50.0
  9
$CAMERAHEIGHT
 40
0.0
  9
$STEPSPERSEC
 40
24.0
  9
$STEPSIZE
 40
100.0
  9
$3DDWFPREC
 40
2.0
  9
$PSOLWIDTH
 40
0.005
  9
$PSOLHEIGHT
 40
0.08
  9
$LOFTANG1
 40
1.570796326795
  9
$LOFTANG2
 40
1.570796326795
  9
$LOFTMAG1
 40
0.0
  9
$LOFTMAG2
 40
0.0
  9
$LOFTPARAM
 70
7
  9
$LOFTNORMALS
280
1
  9
$LATITUDE
 40
37.795
  9
$LONGITUDE
 40
-122.394
  9
$NORTHDIRECTION
 40
0.0
  9
$TIMEZONE
 70
-8000
  9
$LIGHTGLYPHDISPLAY
280
1
  9
$TILEMODELIGHTSYNCH
280
1
  9
$CMATERIAL
347
20
  9
$SOLIDHIST
280
0
  9
$SHOWHIST
280
1
  9
$DWFFRAME
280
2
  9
$DGNFRAME
280
2
  9
$REALWORLDSCALE
290
1
  9
$INTERFERECOLOR
 62
256
  9
$CSHADOW
280
0
  9
$SHADOWPLANELOCATION
 40
0.0
  0
ENDSEC
  0
SECTION
  2
CLASSES
  0
CLASS
  1
ACDBDICTIONARYWDFLT
  2
AcDbDictionaryWithDefault
  3
ObjectDBX Classes
 90
0
 91
0
280
0
281
0
  0
CLASS
  1
SUN
  2
AcDbSun
  3
SCENEOE
 90
1153
 91
0
280
0
281
0
  0
CLASS
  1
VISUALSTYLE
  2
AcDbVisualStyle
  3
ObjectDBX Classes
 90
4095
 91
0
280
0
281
0
  0
CLASS
  1
MATERIAL
  2
AcDbMaterial
  3
ObjectDBX Classes
 90
1153
 91
0
280
0
281
0
  0
CLASS
  1
SCALE
  2
AcDbScale
  3
ObjectDBX Classes
 90
1153
 91
0
280
0
281
0
  0
CLASS
  1
TABLESTYLE
  2
AcDbTableStyle
  3
ObjectDBX Classes
 90
4095
 91
0
280
0
281
0
  0
CLASS
  1
MLEADERSTYLE
  2
AcDbMLeaderStyle
  3
ACDB_MLEADERSTYLE_CLASS
 90
4095
 91
0
280
0
281
0
  0
CLASS
  1
DICTIONARYVAR
  2
AcDbDictionaryVar
  3
ObjectDBX Classes
 90
0
 91
0
280
0
281
0
  0
CLASS
  1
CELLSTYLEMAP
  2
AcDbCellStyleMap
  3
ObjectDBX Classes
 90
1152
 91
0
280
0
281
0
  0
CLASS
  1
MENTALRAYRENDERSETTINGS
  2
AcDbMentalRayRenderSettings
  3
SCENEOE
 90
1024
 91
0
280
0
281
0
  0
CLASS
  1
ACDBDETAILVIEWSTYLE
  2
AcDbDetailViewStyle
  3
ObjectDBX Classes
 90
1025
 91
0
280
0
281
0
  0
CLASS
  1
ACDBSECTIONVIEWSTYLE
  2
AcDbSectionViewStyle
  3
ObjectDBX Classes
 90
1025
 91
0
280
0
281
0
  0
CLASS
  1
RASTERVARIABLES
  2
AcDbRasterVariables
  3
ISM
 90
0
 91
0
280
0
281
0
  0
CLASS
  1
LAYOUT
  2
AcDbLayout
  3
ObjectDBX Classes
 90
0
 91
0
280
0
281
0
  0
CLASS
  1
ACDBPLACEHOLDER
  2
AcDbPlaceHolder
  3
ObjectDBX Classes
 90
0
 91
0
280
0
281
0
  0
ENDSEC
  0
SECTION
  2
TABLES
  0
TABLE
  2
VPORT
  5
8
330
0
100
AcDbSymbolTable
 70
1
  0
VPORT
  5
23
330
8
100
AcDbSymbolTableRecord
100
AcDbViewportTableRecord
  2
*Active
 70
0
 10
0.0
 20
0.0
 11
1.0
 21
1.0
 12
0.0
 22
0.0
 13
0.0
 23
0.0
 14
0.5
 24
0.5
 15
0.5
 25
0.5
 16
0.0
 26
0.0
 36
1.0
 17
0.0
 27
0.0
 37
0.0
 40
1000.0
 41
1.34
 42
50.0
 43
0.0
 44
0.0
 50
0.0
 51
0.0
 71
0
 72
1000
 73
1
 74
3
 75
0
 76
0
 77
0
 78
0
281
0
 65
0
146
0.0
  0
ENDTAB
  0
TABLE
  2
LTYPE
  5
2
330
0
100
AcDbSymbolTable
 70
3
  0
LTYPE
  5
24
330
2
100
AcDbSymbolTableRecord
100
AcDbLinetypeTableRecord
  2
ByBlock
 70
0
  3

 72
65
 73
0
 40
0.0
  0
LTYPE
  5
25
330
2
100
AcDbSymbolTableRecord
100
AcDbLinetypeTableRecord
  2
ByLayer
 70
0
  3

 72
65
 73
0
 40
0.0
  0
LTYPE
  5
26
330
2
100
AcDbSymbolTableRecord
100
AcDbLinetypeTableRecord
  2
Continuous
 70
0
  3

 72
65
 73
0
 40
0.0
  0
ENDTAB
  0
TABLE
  2
LAYER
  5
1
330
0
100
AcDbSymbolTable
 70
4
  0
LAYER
  5
27
330
1
100
AcDbSymbolTableRecord
100
AcDbLayerTableRecord
  2
0
 70
0
 62
7
  6
Continuous
370
-3
390
13
347
21
  0
LAYER
  5
28
330
1
100
AcDbSymbolTableRecord
100
AcDbLayerTableRecord
  2
Defpoints
 70
0
 62
7
  6
Continuous
290
0
370
-3
390
13
347
21
  0
LAYER
  5
2F
330
1
100
AcDbSymbolTableRecord
100
AcDbLayerTableRecord
  2
text
 70
0
 62
7
  6
Continuous
370
-3
390
13
347
21
  0
LAYER
  5
30
330
1
100
AcDbSymbolTableRecord
100
AcDbLayerTableRecord
  2
default
 70
0
 62
7
  6
Continuous
370
-3
390
13
347
21
  0
ENDTAB
  0
TABLE
  2
STYLE
  5
5
330
0
100
AcDbSymbolTable
 70
1
  0
STYLE
  5
29
330
5
100
AcDbSymbolTableRecord
100
AcDbTextStyleTableRecord
  2
Standard
 70
0
 40
0.0
 41
1.0
 50
0.0
 71
0
 42
2.5
  3
txt
  4

  0
ENDTAB
  0
TABLE
  2
VIEW
  5
7
330
0
100
AcDbSymbolTable
 70
0
  0
ENDTAB
  0
TABLE
  2
UCS
  5
6
330
0
100
AcDbSymbolTable
 70
0
  0
ENDTAB
  0
TABLE
  2
APPID
  5
3
330
0
100
AcDbSymbolTable
 70
3
  0
APPID
  5
2A
330
3
100
AcDbSymbolTableRecord
100
AcDbRegAppTableRecord
  2
ACAD
 70
0
  0
APPID
  5
5D
330
3
100
AcDbSymbolTableRecord
100
AcDbRegAppTableRecord
  2
HATCHBACKGROUNDCOLOR
 70
0
  0
APPID
  5
5E
330
3
100
AcDbSymbolTableRecord
100
AcDbRegAppTableRecord
  2
EZDXF
 70
0
  0
ENDTAB
  0
TABLE
  2
DIMSTYLE
  5
4
330
0
100
AcDbSymbolTable
 70
1
100
AcDbDimStyleTable
  0
DIMSTYLE
105
2B
330
4
100
AcDbSymbolTableRecord
100
AcDbDimStyleTableRecord
  2
Standard
 70
0
 40
1.0
 41
2.5
 42
0.625
 43
3.75
 44
1.25
 45
0.0
 46
0.0
 47
0.0
 48
0.0
 49
2.5
140
2.5
141
2.5
142
0.0
143
0.03937007874
144
1.0
145
0.0
146
1.0
147
0.625
148
0.0
 69
0
 70
0
 71
0
 72
0
 73
0
 74
0
 75
0
 76
0
 77
1
 78
8
 79
3
170
0
171
3
172
1
173
0
174
0
175
0
176
0
177
0
178
0
179
2
271
2
272
2
273
2
274
3
275
0
276
0
277
2
278
44
279
0
280
0
281
0
282
0
283
0
284
8
285
0
286
0
288
0
289
3
290
0
371
-2
372
-2
  0
ENDTAB
  0
TABLE
  2
BLOCK_RECORD
  5
9
330
0
100
AcDbSymbolTable
 70
2
  0
BLOCK_RECORD
  5
17
330
9
100
AcDbSymbolTableRecord
100
AcDbBlockTableRecord
  2
*Model_Space
340
1A
 70
0
280
1
281
0
  0
BLOCK_RECORD
  5
1B
330
9
100
AcDbSymbolTableRecord
100
AcDbBlockTableRecord
  2
*Paper_Space
340
1E
 70
0
280
1
281
0
  0
ENDTAB
  0
ENDSEC
  0
SECTION
  2
BLOCKS
  0
BLOCK
  5
18
330
17
100
AcDbEntity
  8
0
100
AcDbBlockBegin
  2
*Model_Space
 70
0
 10
0.0
 20
0.0
 30
0.0
  3
*Model_Space
  1

  0
ENDBLK
  5
19
330
17
100
AcDbEntity
  8
0
100
AcDbBlockEnd
  0
BLOCK
  5
1C
330
1B
100
AcDbEntity
  8
0
100
AcDbBlockBegin
  2
*Paper_Space
 70
0
 10
0.0
 20
0.0
 30
0.0
  3
*Paper_Space
  1

  0
ENDBLK
  5
1D
330
1B
100
AcDbEntity
  8
0
100
AcDbBlockEnd
  0
ENDSEC
  0
SECTION
  2
ENTITIES
  0
LWPOLYLINE
  5
31
330
17
100
AcDbEntity
  8
0
 62
1
100
AcDbPolyline
 90
65
 70
0
 10
10.0
 20
0.0
 10
0.0
 20
0.0
 10
0.0
 20
5.0
 10
0.0
 20
55.0
 10
22.3
 20
55.0
 10
23.05
 20
44.0
 10
23.8
 20
55.0
 10
26.9
 20
55.0
 10
27.65
 20
44.0
 10
28.4
 20
55.0
 10
31.5
 20
55.0
 10
32.25
 20
44.0
 10
33.0
 20
55.0
 10
36.099999999999994
 20
55.0
 10
36.849999999999994
 20
44.0
 10
37.599999999999994
 20
55.0
 10
40.7
 20
55.0
 10
41.45
 20
44.0
 10
42.2
 20
55.0
 10
45.3
 20
55.0
 10
46.05
 20
44.0
 10
46.8
 20
55.0
 10
49.9
 20
55.0
 10
50.65
 20
44.0
 10
51.4
 20
55.0
 10
54.5
 20
55.0
 10
55.25
 20
44.0
 10
56.0
 20
55.0
 10
59.099999999999994
 20
55.0
 10
59.849999999999994
 20
44.0
 10
60.599999999999994
 20
55.0
 10
81.4
 20
55.0
 10
81.4
 20
5.0
 10
81.4
 20
0.0
 10
71.4
 20
0.0
 10
71.4
 20
5.0
 10
60.599999999999994
 20
5.0
 10
59.849999999999994
 20
16.0
 10
59.099999999999994
 20
5.0
 10
56.0
 20
5.0
 10
55.25
 20
16.0
 10
54.5
 20
5.0
 10
51.4
 20
5.0
 10
50.65
 20
16.0
 10
49.9
 20
5.0
 10
46.8
 20
5.0
 10
46.05
 20
16.0
 10
45.3
 20
5.0
 10
42.2
 20
5.0
 10
41.45
 20
16.0
 10
40.7
 20
5.0
 10
37.599999999999994
 20
5.0
 10
36.849999999999994
 20
16.0
 10
36.099999999999994
 20
5.0
 10
33.0
 20
5.0
 10
32.25
 20
16.0
 10
31.5
 20
5.0
 10
28.4
 20
5.0
 10
27.65
 20
16.0
 10
26.9
 20
5.0
 10
23.8
 20
5.0
 10
23.05
 20
16.0
 10
22.3
 20
5.0
 10
10.0
 20
5.0
 10
10.0
 20
0.0
  0
LWPOLYLINE
  5
32
330
17
100
AcDbEntity
  8
0
 62
1
100
AcDbPolyline
 90
5
 70
0
 10
20.75
 20
28.5
 10
20.0
 20
17.5
 10
20.75
 20
6.5
 10
21.5
 20
17.5
 10
20.75
 20
28.5
  0
LWPOLYLINE
  5
33
330
17
100
AcDbEntity
  8
0
 62
1
100
AcDbPolyline
 90
5
 70
0
 10
21.5
 20
42.5
 10
20.75
 20
53.5
 10
20.0
 20
42.5
 10
20.75
 20
31.5
 10
21.5
 20
42.5
  0
LWPOLYLINE
  5
34
330
17
100
AcDbEntity
  8
0
 62
1
100
AcDbPolyline
 90
5
 70
0
 10
23.05
 20
19.0
 10
23.8
 20
30.0
 10
23.05
 20
41.0
 10
22.3
 20
30.0
 10
23.05
 20
19.0
  0
LWPOLYLINE
  5
35
330
17
100
AcDbEntity
  8
0
 62
1
100
AcDbPolyline
 90
5
 70
0
 10
25.35
 20
6.5
 10
26.1
 20
17.5
 10
25.35
 20
28.5
 10
24.6
 20
17.5
 10
25.35
 20
6.5
  0
LWPOLYLINE
  5
36
330
17
100
AcDbEntity
  8
0
 62
1
100
AcDbPolyline
 90
5
 70
0
 10
24.6
 20
42.5
 10
25.35
 20
31.5
 10
26.1
 20
42.5
 10
25.35
 20
53.5
 10
24.6
 20
42.5
  0
LWPOLYLINE
  5
37
330
17
100
AcDbEntity
  8
0
 62
1
100
AcDbPolyline
 90
5
 70
0
 10
27.65
 20
41.0
 10
26.9
 20
30.0
 10
27.65
 20
19.0
 10
28.4
 20
30.0
 10
27.65
 20
41.0
  0
LWPOLYLINE
  5
38
330
17
100
AcDbEntity
  8
0
 62
1
100
AcDbPolyline
 90
5
 70
0
 10
29.95
 20
28.5
 10
29.2
 20
17.5
 10
29.95
 20
6.5
 10
30.7
 20
17.5
 10
29.95
 20
28.5
  0
LWPOLYLINE
  5
39
330
17
100
AcDbEntity
  8
0
 62
1
100
AcDbPolyline
 90
5
 70
0
 10
30.7
 20
42.5
 10
29.95
 20
53.5
 10
29.2
 20
42.5
 10
29.95
 20
31.5
 10
30.7
 20
42.5
  0
LWPOLYLINE
  5
3A
330
17
100
AcDbEntity
  8
0
 62
1
100
AcDbPolyline
 90
5
 70
0
 10
32.25
 20
19.0
 10
33.0
 20
30.0
 10
32.25
 20
41.0
 10
31.5
 20
30.0
 10
32.25
 20
19.0
  0
LWPOLYLINE
  5
3B
330
17
100
AcDbEntity
  8
0
 62
1
100
AcDbPolyline
 90
5
 70
0
 10
34.55
 20
6.5
 10
35.3
 20
17.5
 10
34.55
 20
28.5
 10
33.8
 20
17.5
 10
34.55
 20
6.5
  0
LWPOLYLINE
  5
3C
330
17
100
AcDbEntity
  8
0
 62
1
100
AcDbPolyline
 90
5
 70
0
 10
33.8
 20
42.5
 10
34.55
 20
31.5
 10
35.3
 20
42.5
 10
34.55
 20
53.5
 10
33.8
 20
42.5
  0
LWPOLYLINE
  5
3D
330
17
100
AcDbEntity
  8
0
 62
1
100
AcDbPolyline
 90
5
 70
0
 10
36.849999999999994
 20
41.0
 10
36.099999999999994
 20
30.0
 10
36.849999999999994
 20
19.0
 10
37.599999999999994
 20
30.0
 10
36.849999999999994
 20
41.0
  0
LWPOLYLINE
  5
3E
330
17
100
AcDbEntity
  8
0
 62
1
100
AcDbPolyline
 90
5
 70
0
 10
39.15
 20
28.5
 10
38.4
 20
17.5
 10
39.15
 20
6.5
 10
39.9
 20
17.5
 10
39.15
 20
28.5
  0
LWPOLYLINE
  5
3F
330
17
100
AcDbEntity
  8
0
 62
1
100
AcDbPolyline
 90
5
 70
0
 10
39.9
 20
42.5
 10
39.15
 20
53.5
 10
38.4
 20
42.5
 10
39.15
 20
31.5
 10
39.9
 20
42.5
  0
LWPOLYLINE
  5
40
330
17
100
AcDbEntity
  8
0
 62
1
100
AcDbPolyline
 90
5
 70
0
 10
41.45
 20
19.0
 10
42.2
 20
30.0
 10
41.45
 20
41.0
 10
40.7
 20
30.0
 10
41.45
 20
19.0
  0
LWPOLYLINE
  5
41
330
17
100
AcDbEntity
  8
0
 62
1
100
AcDbPolyline
 90
5
 70
0
 10
43.75
 20
6.5
 10
44.5
 20
17.5
 10
43.75
 20
28.5
 10
43.0
 20
17.5
 10
43.75
 20
6.5
  0
LWPOLYLINE
  5
42
330
17
100
AcDbEntity
  8
0
 62
1
100
AcDbPolyline
 90
5
 70
0
 10
43.0
 20
42.5
 10
43.75
 20
31.5
 10
44.5
 20
42.5
 10
43.75
 20
53.5
 10
43.0
 20
42.5
  0
LWPOLYLINE
  5
43
330
17
100
AcDbEntity
  8
0
 62
1
100
AcDbPolyline
 90
5
 70
0
 10
46.05
 20
41.0
 10
45.3
 20
30.0
 10
46.05
 20
19.0
 10
46.8
 20
30.0
 10
46.05
 20
41.0
  0
LWPOLYLINE
  5
44
330
17
100
AcDbEntity
  8
0
 62
1
100
AcDbPolyline
 90
5
 70
0
 10
48.349999999999994
 20
28.5
 10
47.599999999999994
 20
17.5
 10
48.349999999999994
 20
6.5
 10
49.099999999999994
 20
17.5
 10
48.349999999999994
 20
28.5
  0
LWPOLYLINE
  5
45
330
17
100
AcDbEntity
  8
0
 62
1
100
AcDbPolyline
 90
5
 70
0
 10
49.099999999999994
 20
42.5
 10
48.349999999999994
 20
53.5
 10
47.599999999999994
 20
42.5
 10
48.349999999999994
 20
31.5
 10
49.099999999999994
 20
42.5
  0
LWPOLYLINE
  5
46
330
17
100
AcDbEntity
  8
0
 62
1
100
AcDbPolyline
 90
5
 70
0
 10
50.65
 20
19.0
 10
51.4
 20
30.0
 10
50.65
 20
41.0
 10
49.9
 20
30.0
 10
50.65
 20
19.0
  0
LWPOLYLINE
  5
47
330
17
100
AcDbEntity
  8
0
 62
1
100
AcDbPolyline
 90
5
 70
0
 10
52.949999999999996
 20
6.5
 10
53.699999999999996
 20
17.5
 10
52.949999999999996
 20
28.5
 10
52.199999999999996
 20
17.5
 10
52.949999999999996
 20
6.5
  0
LWPOLYLINE
  5
48
330
17
100
AcDbEntity
  8
0
 62
1
100
AcDbPolyline
 90
5
 70
0
 10
52.199999999999996
 20
42.5
 10
52.949999999999996
 20
31.5
 10
53.699999999999996
 20
42.5
 10
52.949999999999996
 20
53.5
 10
52.199999999999996
 20
42.5
  0
LWPOLYLINE
  5
49
330
17
100
AcDbEntity
  8
0
 62
1
100
AcDbPolyline
 90
5
 70
0
 10
55.25
 20
41.0
 10
54.5
 20
30.0
 10
55.25
 20
19.0
 10
56.0
 20
30.0
 10
55.25
 20
41.0
  0
LWPOLYLINE
  5
4A
330
17
100
AcDbEntity
  8
0
 62
1
100
AcDbPolyline
 90
5
 70
0
 10
57.55
 20
28.5
 10
56.8
 20
17.5
 10
57.55
 20
6.5
 10
58.3
 20
17.5
 10
57.55
 20
28.5
  0
LWPOLYLINE
  5
4B
330
17
100
AcDbEntity
  8
0
 62
1
100
AcDbPolyline
 90
5
 70
0
 10
58.3
 20
42.5
 10
57.55
 20
53.5
 10
56.8
 20
42.5
 10
57.55
 20
31.5
 10
58.3
 20
42.5
  0
LWPOLYLINE
  5
4C
330
17
100
AcDbEntity
  8
0
 62
1
100
AcDbPolyline
 90
5
 70
0
 10
59.849999999999994
 20
19.0
 10
60.599999999999994
 20
30.0
 10
59.849999999999994
 20
41.0
 10
59.099999999999994
 20
30.0
 10
59.849999999999994
 20
19.0
  0
LWPOLYLINE
  5
4D
330
17
100
AcDbEntity
  8
0
 62
1
100
AcDbPolyline
 90
71
 70
0
 10
2.7059485790113182
 20
57.01444581998341
 10
2.4147290339516143
 20
57.05764415879031
 10
2.129145968236612
 20
57.12917899280337
 10
1.8519497029047294
 20
57.228361402466135
 10
1.5858097895220062
 20
57.35423620695493
 10
1.3332893009411926
 20
57.50559116309236
 10
1.096820147509062
 20
57.68096863991179
 10
0.8786796564403581
 20
57.878679656440355
 10
0.6809686399117894
 20
58.096820147509064
 10
0.5055911630923635
 20
58.33328930094119
 10
0.3542362069549352
 20
58.585809789522
 10
0.22836140246614
 20
58.851949702904726
 10
0.1291789928033733
 20
59.129145968236614
 10
0.05764415879030871
 20
59.414729033951616
 10
0.014445819983409436
 20
59.70594857901131
 10
0.0
 20
60.0
 10
0.0
 20
64.8
 10
0.014445819983409436
 20
65.09405142098868
 10
0.05764415879030871
 20
65.38527096604838
 10
0.1291789928033733
 20
65.67085403176338
 10
0.22836140246614
 20
65.94805029709526
 10
0.3542362069549352
 20
66.214190210478
 10
0.5055911630923635
 20
66.46671069905881
 10
0.6809686399117894
 20
66.70317985249093
 10
0.8786796564403581
 20
66.92132034355964
 10
47.23473823245823
 20
113.27737891957752
 10
47.452878723526936
 20
113.47508993610609
 10
47.68934787695907
 20
113.65046741292551
 10
47.94186836553988
 20
113.80182236906293
 10
48.208008278922605
 20
113.92769717355173
 10
48.485204544254486
 20
114.0268795832145
 10
48.77078760996949
 20
114.09841441722756
 10
49.06200715502919
 20
114.14161275603446
 10
49.35605857601787
 20
114.15605857601787
 10
54.15605857601787
 20
114.15605857601787
 10
54.45010999700655
 20
114.14161275603446
 10
54.741329542066254
 20
114.09841441722756
 10
55.026912607781256
 20
114.0268795832145
 10
55.30410887311314
 20
113.92769717355173
 10
55.57024878649586
 20
113.80182236906293
 10
55.82276927507667
 20
113.65046741292551
 10
56.059238428508806
 20
113.47508993610609
 10
56.277378919577515
 20
113.27737891957752
 10
56.47508993610608
 20
113.0592384285088
 10
56.65046741292551
 20
112.82276927507667
 10
56.80182236906293
 20
112.57024878649585
 10
56.92769717355173
 20
112.30410887311314
 10
57.026879583214495
 20
112.02691260778126
 10
57.09841441722756
 20
111.74132954206625
 10
57.14161275603446
 20
111.45010999700655
 10
57.15605857601787
 20
111.15605857601787
 10
57.15605857601787
 20
101.15605857601787
 10
57.14161275603446
 20
100.86200715502919
 10
57.09841441722756
 20
100.57078760996949
 10
57.026879583214495
 20
100.28520454425448
 10
56.92769717355173
 20
100.0080082789226
 10
56.80182236906293
 20
99.74186836553989
 10
56.65046741292551
 20
99.48934787695907
 10
56.47508993610608
 20
99.25287872352693
 10
56.277378919577515
 20
99.03473823245822
 10
15.121320343559642
 20
57.878679656440355
 10
14.903179852490936
 20
57.68096863991178
 10
14.666710699058807
 20
57.50559116309236
 10
14.414190210477994
 20
57.35423620695493
 10
14.148050297095269
 20
57.228361402466135
 10
13.870854031763386
 20
57.12917899280337
 10
13.585270966048386
 20
57.0576441587903
 10
13.294051420988682
 20
57.01444581998341
 10
13.0
 20
57.0
 10
3.0
 20
57.0
 10
2.7059485790113182
 20
57.01444581998341
  0
LWPOLYLINE
  5
4E
330
17
100
AcDbEntity
  8
0
 62
1
100
AcDbPolyline
 90
5
 70
0
 10
13.0
 20
60.0
 10
13.0
 20
64.8
 10
3.0
 20
64.8
 10
3.0
 20
60.0
 10
13.0
 20
60.0
  0
LWPOLYLINE
  5
4F
330
17
100
AcDbEntity
  8
0
 62
1
100
AcDbPolyline
 90
5
 70
0
 10
54.15605857601787
 20
101.15605857601787
 10
54.15605857601787
 20
111.15605857601787
 10
49.35605857601787
 20
111.15605857601787
 10
49.35605857601787
 20
101.15605857601787
 10
54.15605857601787
 20
101.15605857601787
  0
LWPOLYLINE
  5
50
330
17
100
AcDbEntity
  8
0
 62
0
100
AcDbPolyline
 90
15
 70
0
 10
25.08
 20
75.352
 10
24.586
 20
74.758
 10
24.156
 20
74.758
 10
23.726
 20
74.758
 10
23.226
 20
75.354
 10
23.226
 20
75.91
 10
23.226
 20
76.6
 10
23.226
 20
77.15599999999999
 10
23.724
 20
77.75399999999999
 10
24.152
 20
77.75399999999999
 10
24.582
 20
77.75399999999999
 10
25.08
 20
77.15599999999999
 10
25.08
 20
76.6
 10
25.08
 20
75.91
 10
25.08
 20
75.352
  0
LWPOLYLINE
  5
51
330
17
100
AcDbEntity
  8
0
 62
0
100
AcDbPolyline
 90
15
 70
0
 10
24.686
 20
77.062
 10
24.412
 20
77.444
 10
24.152
 20
77.444
 10
23.892
 20
77.444
 10
23.619999999999997
 20
77.062
 10
23.619999999999997
 20
76.684
 10
23.619999999999997
 20
75.83
 10
23.619999999999997
 20
75.452
 10
23.896
 20
75.066
 10
24.156
 20
75.066
 10
24.416
 20
75.066
 10
24.686
 20
75.45
 10
24.686
 20
75.83
 10
24.686
 20
76.684
 10
24.686
 20
77.062
  0
LWPOLYLINE
  5
52
330
17
100
AcDbEntity
  8
0
 62
1
100
AcDbPolyline
 90
71
 70
0
 10
2.7059485790113182
 20
116.1714458199834
 10
2.4147290339516143
 20
116.2146441587903
 10
2.129145968236612
 20
116.28617899280337
 10
1.8519497029047294
 20
116.38536140246613
 10
1.5858097895220062
 20
116.51123620695493
 10
1.3332893009411926
 20
116.66259116309236
 10
1.096820147509062
 20
116.83796863991178
 10
0.8786796564403581
 20
117.03567965644035
 10
0.6809686399117894
 20
117.25382014750906
 10
0.5055911630923635
 20
117.49028930094119
 10
0.3542362069549352
 20
117.742809789522
 10
0.22836140246614
 20
118.00894970290473
 10
0.1291789928033733
 20
118.28614596823661
 10
0.05764415879030871
 20
118.57172903395161
 10
0.014445819983409436
 20
118.86294857901132
 10
0.0
 20
119.157
 10
0.0
 20
123.957
 10
0.014445819983409436
 20
124.25105142098867
 10
0.05764415879030871
 20
124.54227096604838
 10
0.1291789928033733
 20
124.82785403176338
 10
0.22836140246614
 20
125.10505029709526
 10
0.3542362069549352
 20
125.37119021047799
 10
0.5055911630923635
 20
125.6237106990588
 10
0.6809686399117894
 20
125.86017985249093
 10
0.8786796564403581
 20
126.07832034355964
 10
44.73473823245823
 20
169.9343789195775
 10
44.952878723526936
 20
170.13208993610607
 10
45.18934787695907
 20
170.30746741292552
 10
45.44186836553988
 20
170.45882236906294
 10
45.708008278922605
 20
170.58469717355172
 10
45.985204544254486
 20
170.6838795832145
 10
46.27078760996949
 20
170.75541441722754
 10
46.56200715502919
 20
170.79861275603446
 10
46.85605857601787
 20
170.81305857601785
 10
51.65605857601787
 20
170.81305857601785
 10
51.95010999700655
 20
170.79861275603446
 10
52.241329542066254
 20
170.75541441722754
 10
52.526912607781256
 20
170.6838795832145
 10
52.80410887311314
 20
170.58469717355172
 10
53.07024878649586
 20
170.45882236906294
 10
53.32276927507667
 20
170.30746741292552
 10
53.559238428508806
 20
170.13208993610607
 10
53.777378919577515
 20
169.9343789195775
 10
53.97508993610608
 20
169.7162384285088
 10
54.15046741292551
 20
169.47976927507668
 10
54.30182236906293
 20
169.22724878649586
 10
54.42769717355173
 20
168.96110887311312
 10
54.526879583214495
 20
168.68391260778125
 10
54.59841441722756
 20
168.39832954206625
 10
54.64161275603446
 20
168.10710999700655
 10
54.65605857601787
 20
167.81305857601785
 10
54.65605857601787
 20
157.81305857601785
 10
54.64161275603446
 20
157.5190071550292
 10
54.59841441722756
 20
157.22778760996948
 10
54.526879583214495
 20
156.94220454425448
 10
54.42769717355173
 20
156.66500827892258
 10
54.30182236906293
 20
156.39886836553987
 10
54.15046741292551
 20
156.14634787695906
 10
53.97508993610608
 20
155.90987872352693
 10
53.777378919577515
 20
155.69173823245822
 10
15.121320343559642
 20
117.03567965644035
 10
14.903179852490936
 20
116.83796863991178
 10
14.666710699058807
 20
116.66259116309236
 10
14.414190210477994
 20
116.51123620695493
 10
14.148050297095269
 20
116.38536140246613
 10
13.870854031763386
 20
116.28617899280337
 10
13.585270966048386
 20
116.2146441587903
 10
13.294051420988682
 20
116.1714458199834
 10
13.0
 20
116.157
 10
3.0
 20
116.157
 10
2.7059485790113182
 20
116.1714458199834
  0
LWPOLYLINE
  5
53
330
17
100
AcDbEntity
  8
0
 62
1
100
AcDbPolyline
 90
5
 70
0
 10
13.0
 20
119.157
 10
13.0
 20
123.957
 10
3.0
 20
123.957
 10
3.0
 20
119.157
 10
13.0
 20
119.157
  0
LWPOLYLINE
  5
54
330
17
100
AcDbEntity
  8
0
 62
1
100
AcDbPolyline
 90
5
 70
0
 10
51.65605857601787
 20
157.81305857601785
 10
51.65605857601787
 20
167.81305857601785
 10
46.85605857601787
 20
167.81305857601785
 10
46.85605857601787
 20
157.81305857601785
 10
51.65605857601787
 20
157.81305857601785
  0
LWPOLYLINE
  5
55
330
17
100
AcDbEntity
  8
0
 62
0
100
AcDbPolyline
 90
5
 70
0
 10
25.402
 20
133.957
 10
25.402
 20
134.361
 10
25.796
 20
134.361
 10
25.796
 20
133.957
 10
25.402
 20
133.957
  0
LWPOLYLINE
  5
56
330
17
100
AcDbEntity
  8
0
 62
0
100
AcDbPolyline
 90
33
 70
0
 10
27.772
 20
136.869
 10
27.772
 20
136.519
 10
26.648
 20
136.519
 10
26.552
 20
135.701
 10
26.644
 20
135.769
 10
26.87
 20
135.85899999999998
 10
27.018
 20
135.863
 10
27.42
 20
135.867
 10
27.881999999999998
 20
135.33499999999998
 10
27.881999999999998
 20
134.885
 10
27.881999999999998
 20
134.447
 10
27.412
 20
133.915
 10
26.962
 20
133.915
 10
26.592
 20
133.915
 10
26.1
 20
134.319
 10
26.11
 20
134.71099999999998
 10
26.114
 20
134.72299999999998
 10
26.47
 20
134.72299999999998
 10
26.47
 20
134.48499999999999
 10
26.744
 20
134.22299999999998
 10
26.962
 20
134.22299999999998
 10
27.212
 20
134.22299999999998
 10
27.488
 20
134.575
 10
27.488
 20
134.881
 10
27.488
 20
135.161
 10
27.208
 20
135.521
 10
26.962
 20
135.521
 10
26.73
 20
135.521
 10
26.522
 20
135.381
 10
26.474
 20
135.237
 10
26.146
 20
135.271
 10
26.314
 20
136.869
 10
27.772
 20
136.869
  0
LWPOLYLINE
  5
57
330
17
100
AcDbEntity
  8
0
 62
0
100
AcDbPolyline
 90
15
 70
0
 10
24.156
 20
133.915
 10
23.726
 20
133.915
 10
23.226
 20
134.511
 10
23.226
 20
135.067
 10
23.226
 20
135.757
 10
23.226
 20
136.313
 10
23.724
 20
136.911
 10
24.152
 20
136.911
 10
24.582
 20
136.911
 10
25.08
 20
136.313
 10
25.08
 20
135.757
 10
25.08
 20
135.067
 10
25.08
 20
134.509
 10
24.586
 20
133.915
 10
24.156
 20
133.915
  0
LWPOLYLINE
  5
58
330
17
100
AcDbEntity
  8
0
 62
0
100
AcDbPolyline
 90
15
 70
0
 10
24.152
 20
136.601
 10
23.892
 20
136.601
 10
23.619999999999997
 20
136.219
 10
23.619999999999997
 20
135.841
 10
23.619999999999997
 20
134.987
 10
23.619999999999997
 20
134.60899999999998
 10
23.896
 20
134.22299999999998
 10
24.156
 20
134.22299999999998
 10
24.416
 20
134.22299999999998
 10
24.686
 20
134.607
 10
24.686
 20
134.987
 10
24.686
 20
135.841
 10
24.686
 20
136.219
 10
24.412
 20
136.601
 10
24.152
 20
136.601
  0
LWPOLYLINE
  5
59
330
17
100
AcDbEntity
  8
0
 62
1
100
AcDbPolyline
 90
71
 70
0
 10
2.7059485790113182
 20
172.82844581998341
 10
2.4147290339516143
 20
172.8716441587903
 10
2.129145968236612
 20
172.94317899280338
 10
1.8519497029047294
 20
173.04236140246616
 10
1.5858097895220062
 20
173.16823620695493
 10
1.3332893009411926
 20
173.31959116309235
 10
1.096820147509062
 20
173.4949686399118
 10
0.8786796564403581
 20
173.69267965644036
 10
0.6809686399117894
 20
173.91082014750907
 10
0.5055911630923635
 20
174.1472893009412
 10
0.3542362069549352
 20
174.399809789522
 10
0.22836140246614
 20
174.66594970290473
 10
0.1291789928033733
 20
174.94314596823662
 10
0.05764415879030871
 20
175.22872903395162
 10
0.014445819983409436
 20
175.51994857901133
 10
0.0
 20
175.814
 10
0.0
 20
180.614
 10
0.014445819983409436
 20
180.9080514209887
 10
0.05764415879030871
 20
181.1992709660484
 10
0.1291789928033733
 20
181.4848540317634
 10
0.22836140246614
 20
181.76205029709527
 10
0.3542362069549352
 20
182.028190210478
 10
0.5055911630923635
 20
182.2807106990588
 10
0.6809686399117894
 20
182.51717985249095
 10
0.8786796564403581
 20
182.73532034355964
 10
42.23473823245823
 20
224.09137891957752
 10
42.452878723526936
 20
224.28908993610608
 10
42.68934787695907
 20
224.4644674129255
 10
42.94186836553988
 20
224.61582236906293
 10
43.208008278922605
 20
224.74169717355173
 10
43.485204544254486
 20
224.8408795832145
 10
43.77078760996949
 20
224.91241441722758
 10
44.06200715502919
 20
224.95561275603447
 10
44.35605857601787
 20
224.9700585760179
 10
49.15605857601787
 20
224.9700585760179
 10
49.45010999700655
 20
224.95561275603447
 10
49.741329542066254
 20
224.91241441722758
 10
50.026912607781256
 20
224.8408795832145
 10
50.30410887311314
 20
224.74169717355173
 10
50.57024878649586
 20
224.61582236906293
 10
50.82276927507667
 20
224.4644674129255
 10
51.059238428508806
 20
224.28908993610608
 10
51.277378919577515
 20
224.09137891957752
 10
51.47508993610608
 20
223.8732384285088
 10
51.65046741292551
 20
223.6367692750767
 10
51.80182236906293
 20
223.38424878649587
 10
51.92769717355173
 20
223.11810887311316
 10
52.026879583214495
 20
222.84091260778126
 10
52.09841441722756
 20
222.55532954206626
 10
52.14161275603446
 20
222.26410999700656
 10
52.15605857601787
 20
221.9700585760179
 10
52.15605857601787
 20
211.9700585760179
 10
52.14161275603446
 20
211.6760071550292
 10
52.09841441722756
 20
211.3847876099695
 10
52.026879583214495
 20
211.0992045442545
 10
51.92769717355173
 20
210.82200827892262
 10
51.80182236906293
 20
210.55586836553988
 10
51.65046741292551
 20
210.30334787695907
 10
51.47508993610608
 20
210.06687872352694
 10
51.277378919577515
 20
209.84873823245823
 10
15.121320343559642
 20
173.69267965644036
 10
14.903179852490936
 20
173.4949686399118
 10
14.666710699058807
 20
173.31959116309235
 10
14.414190210477994
 20
173.16823620695493
 10
14.148050297095269
 20
173.04236140246616
 10
13.870854031763386
 20
172.94317899280338
 10
13.585270966048386
 20
172.8716441587903
 10
13.294051420988682
 20
172.82844581998341
 10
13.0
 20
172.814
 10
3.0
 20
172.814
 10
2.7059485790113182
 20
172.82844581998341
  0
LWPOLYLINE
  5
5A
330
17
100
AcDbEntity
  8
0
 62
1
100
AcDbPolyline
 90
5
 70
0
 10
13.0
 20
175.814
 10
13.0
 20
180.614
 10
3.0
 20
180.614
 10
3.0
 20
175.814
 10
13.0
 20
175.814
  0
LWPOLYLINE
  5
5B
330
17
100
AcDbEntity
  8
0
 62
1
100
AcDbPolyline
 90
5
 70
0
 10
49.15605857601787
 20
211.9700585760179
 10
49.15605857601787
 20
221.9700585760179
 10
44.35605857601787
 20
221.9700585760179
 10
44.35605857601787
 20
211.9700585760179
 10
49.15605857601787
 20
211.9700585760179
  0
LWPOLYLINE
  5
5C
330
17
100
AcDbEntity
  8
0
 62
0
100
AcDbPolyline
 90
7
 70
0
 10
24.362000000000002
 20
190.614
 10
23.968
 20
190.614
 10
23.968
 20
193.142
 10
23.372
 20
193.13400000000001
 10
23.372
 20
193.418
 10
24.362000000000002
 20
193.526
 10
24.362000000000002
 20
190.614
  0
ENDSEC
  0
SECTION
  2
OBJECTS
  0
DICTIONARY
  5
A
330
0
100
AcDbDictionary
280
0
281
1
  3
ACAD_COLOR
350
B
  3
ACAD_GROUP
350
C
  3
ACAD_LAYOUT
350
D
  3
ACAD_MATERIAL
350
E
  3
ACAD_MLEADERSTYLE
350
F
  3
ACAD_MLINESTYLE
350
10
  3
ACAD_PLOTSETTINGS
350
11
  3
ACAD_PLOTSTYLENAME
350
12
  3
ACAD_SCALELIST
350
14
  3
ACAD_TABLESTYLE
350
15
  3
ACAD_VISUALSTYLE
350
16
  3
EZDXF_META
350
2D
  0
DICTIONARY
  5
B
330
A
100
AcDbDictionary
280
0
281
1
  0
DICTIONARY
  5
C
330
A
100
AcDbDictionary
280
0
281
1
  0
DICTIONARY
  5
D
330
A
100
AcDbDictionary
280
0
281
1
  3
Model
350
1A
  3
Layout1
350
1E
  0
DICTIONARY
  5
E
330
A
100
AcDbDictionary
280
0
281
1
  3
ByBlock
350
1F
  3
ByLayer
350
20
  3
Global
350
21
  0
DICTIONARY
  5
F
330
A
100
AcDbDictionary
280
0
281
1
  3
Standard
350
2C
  0
DICTIONARY
  5
10
330
A
100
AcDbDictionary
280
0
281
1
  3
Standard
350
22
  0
DICTIONARY
  5
11
330
A
100
AcDbDictionary
280
0
281
1
  0
ACDBDICTIONARYWDFLT
  5
12
330
A
100
AcDbDictionary
280
0
281
1
  3
Normal
350
13
100
AcDbDictionaryWithDefault
340
13
  0
ACDBPLACEHOLDER
  5
13
330
12
  0
DICTIONARY
  5
14
330
A
100
AcDbDictionary
280
0
281
1
  0
DICTIONARY
  5
15
330
A
100
AcDbDictionary
280
0
281
1
  0
DICTIONARY
  5
16
330
A
100
AcDbDictionary
280
0
281
1
  0
LAYOUT
  5
1A
330
D
100
AcDbPlotSettings
  1

  4
A3
  6

 40
7.5
 41
20.0
 42
7.5
 43
20.0
 44
420.0
 45
297.0
 46
0.0
 47
0.0
 48
0.0
 49
0.0
140
0.0
141
0.0
142
1.0
143
1.0
 70
1024
 72
1
 73
0
 74
5
  7

 75
16
 76
0
 77
2
 78
300
147
1.0
148
0.0
149
0.0
100
AcDbLayout
  1
Model
 70
1
 71
0
 10
0.0
 20
0.0
 11
420.0
 21
297.0
 12
0.0
 22
0.0
 32
0.0
 14
1e+20
 24
1e+20
 34
1e+20
 15
-1e+20
 25
-1e+20
 35
-1e+20
146
0.0
 13
0.0
 23
0.0
 33
0.0
 16
1.0
 26
0.0
 36
0.0
 17
0.0
 27
1.0
 37
0.0
 76
1
330
17
  0
LAYOUT
  5
1E
330
D
100
AcDbPlotSettings
  1

  4
A3
  6

 40
7.5
 41
20.0
 42
7.5
 43
20.0
 44
420.0
 45
297.0
 46
0.0
 47
0.0
 48
0.0
 49
0.0
140
0.0
141
0.0
142
1.0
143
1.0
 70
0
 72
1
 73
0
 74
5
  7

 75
16
 76
0
 77
2
 78
300
147
1.0
148
0.0
149
0.0
100
AcDbLayout
  1
Layout1
 70
1
 71
1
 10
0.0
 20
0.0
 11
420.0
 21
297.0
 12
0.0
 22
0.0
 32
0.0
 14
1e+20
 24
1e+20
 34
1e+20
 15
-1e+20
 25
-1e+20
 35
-1e+20
146
0.0
 13
0.0
 23
0.0
 33
0.0
 16
1.0
 26
0.0
 36
0.0
 17
0.0
 27
1.0
 37
0.0
 76
1
330
1B
  0
MATERIAL
  5
1F
102
{ACAD_REACTORS
330
E
102
}
330
E
100
AcDbMaterial
  1
ByBlock
  2

 70
0
 40
1.0
 71
1
 41
1.0
 91
-1023410177
 42
1.0
 72
1
  3

 73
1
 74
1
 75
1
 44
0.5
 73
0
 45
1.0
 46
1.0
 77
1
  4

 78
1
 79
1
170
1
 48
1.0
171
1
  6

172
1
173
1
174
1
140
1.0
141
1.0
175
1
  7

176
1
177
1
178
1
143
1.0
179
1
  8

270
1
271
1
272
1
145
1.0
146
1.0
273
1
  9

274
1
275
1
276
1
 42
1.0
 72
1
  3

 73
1
 74
1
 75
1
 94
63
  0
MATERIAL
  5
20
102
{ACAD_REACTORS
330
E
102
}
330
E
100
AcDbMaterial
  1
ByLayer
  2

 70
0
 40
1.0
 71
1
 41
1.0
 91
-1023410177
 42
1.0
 72
1
  3

 73
1
 74
1
 75
1
 44
0.5
 73
0
 45
1.0
 46
1.0
 77
1
  4

 78
1
 79
1
170
1
 48
1.0
171
1
  6

172
1
173
1
174
1
140
1.0
141
1.0
175
1
  7

176
1
177
1
178
1
143
1.0
179
1
  8

270
1
271
1
272
1
145
1.0
146
1.0
273
1
  9

274
1
275
1
276
1
 42
1.0
 72
1
  3

 73
1
 74
1
 75
1
 94
63
  0
MATERIAL
  5
21
102
{ACAD_REACTORS
330
E
102
}
330
E
100
AcDbMaterial
  1
Global
  2

 70
0
 40
1.0
 71
1
 41
1.0
 91
-1023410177
 42
1.0
 72
1
  3

 73
1
 74
1
 75
1
 44
0.5
 73
0
 45
1.0
 46
1.0
 77
1
  4

 78
1
 79
1
170
1
 48
1.0
171
1
  6

172
1
173
1
174
1
140
1.0
141
1.0
175
1
  7

176
1
177
1
178
1
143
1.0
179
1
  8

270
1
271
1
272
1
145
1.0
146
1.0
273
1
  9

274
1
275
1
276
1
 42
1.0
 72
1
  3

 73
1
 74
1
 75
1
 94
63
  0
MLINESTYLE
  5
22
102
{ACAD_REACTORS
330
10
102
}
330
10
100
AcDbMlineStyle
  2
Standard
 70
0
  3

 62
256
 51
90.0
 52
90.0
 71
2
 49
0.5
 62
256
  6
BYLAYER
 49
-0.5
 62
256
  6
BYLAYER
  0
MLEADERSTYLE
  5
2C
102
{ACAD_REACTORS
330
F
102
}
330
F
100
AcDbMLeaderStyle
179
2
170
2
171
1
172
0
 90
2
 40
0.0
 41
0.0
173
1
 91
-1056964608
 92
-2
290
1
 42
2.0
291
1
 43
8.0
  3
Standard
 44
4.0
300

342
29
174
1
175
1
176
0
178
1
 93
-1056964608
 45
4.0
292
0
297
0
 46
4.0
 94
-1056964608
 47
1.0
 49
1.0
140
1.0
294
1
141
0.0
177
0
142
1.0
295
0
296
0
143
3.75
271
0
272
9
273
9
  0
DICTIONARY
  5
2D
330
A
100
AcDbDictionary
281
1
  3
CREATED_BY_EZDXF
350
2E
  3
WRITTEN_BY_EZDXF
350
5F
  0
DICTIONARYVAR
  5
2E
330
2D
100
DictionaryVariables
280
0
  1
1.3.2 @ 2024-12-03T01:57:11.237821+00:00
  0
DICTIONARYVAR
  5
5F
330
2D
100
DictionaryVariables
280
0
  1
1.3.2 @ 2024-12-03T01:57:11.243217+00:00
  0
ENDSEC
  0
EOF
