  0
SECTION
  2
HEADER
  9
$ACADVER
  1
AC1024
  9
$ACADMAINTVER
 70
6
  9
$DWGCODEPAGE
  3
ANSI_1252
  9
$LASTSAVEDBY
  1
ezdxf
  9
$INSBASE
 10
0.0
 20
0.0
 30
0.0
  9
$EXTMIN
 10
1e+20
 20
1e+20
 30
1e+20
  9
$EXTMAX
 10
-1e+20
 20
-1e+20
 30
-1e+20
  9
$LIMMIN
 10
0.0
 20
0.0
  9
$LIMMAX
 10
420.0
 20
297.0
  9
$ORTHOMODE
 70
0
  9
$REGENMODE
 70
1
  9
$FILLMODE
 70
1
  9
$QTEXTMODE
 70
0
  9
$MIRRTEXT
 70
1
  9
$LTSCALE
 40
1.0
  9
$ATTMODE
 70
1
  9
$TEXTSIZE
 40
2.5
  9
$TRACEWID
 40
1.0
  9
$TEXTSTYLE
  7
Standard
  9
$CLAYER
  8
0
  9
$CELTYPE
  6
ByLayer
  9
$CECOLOR
 62
256
  9
$CELTSCALE
 40
1.0
  9
$DISPSILH
 70
0
  9
$DIMSCALE
 40
1.0
  9
$DIMASZ
 40
2.5
  9
$DIMEXO
 40
0.625
  9
$DIMDLI
 40
3.75
  9
$DIMRND
 40
0.0
  9
$DIMDLE
 40
0.0
  9
$DIMEXE
 40
1.25
  9
$DIMTP
 40
0.0
  9
$DIMTM
 40
0.0
  9
$DIMTXT
 40
2.5
  9
$DIMCEN
 40
2.5
  9
$DIMTSZ
 40
0.0
  9
$DIMTOL
 70
0
  9
$DIMLIM
 70
0
  9
$DIMTIH
 70
0
  9
$DIMTOH
 70
0
  9
$DIMSE1
 70
0
  9
$DIMSE2
 70
0
  9
$DIMTAD
 70
1
  9
$DIMZIN
 70
8
  9
$DIMBLK
  1

  9
$DIMASO
 70
1
  9
$DIMSHO
 70
1
  9
$DIMPOST
  1

  9
$DIMAPOST
  1

  9
$DIMALT
 70
0
  9
$DIMALTD
 70
3
  9
$DIMALTF
 40
0.03937007874
  9
$DIMLFAC
 40
1.0
  9
$DIMTOFL
 70
1
  9
$DIMTVP
 40
0.0
  9
$DIMTIX
 70
0
  9
$DIMSOXD
 70
0
  9
$DIMSAH
 70
0
  9
$DIMBLK1
  1

  9
$DIMBLK2
  1

  9
$DIMSTYLE
  2
ISO-25
  9
$DIMCLRD
 70
0
  9
$DIMCLRE
 70
0
  9
$DIMCLRT
 70
0
  9
$DIMTFAC
 40
1.0
  9
$DIMGAP
 40
0.625
  9
$DIMJUST
 70
0
  9
$DIMSD1
 70
0
  9
$DIMSD2
 70
0
  9
$DIMTOLJ
 70
0
  9
$DIMTZIN
 70
8
  9
$DIMALTZ
 70
0
  9
$DIMALTTZ
 70
0
  9
$DIMUPT
 70
0
  9
$DIMDEC
 70
2
  9
$DIMTDEC
 70
2
  9
$DIMALTU
 70
2
  9
$DIMALTTD
 70
3
  9
$DIMTXSTY
  7
Standard
  9
$DIMAUNIT
 70
0
  9
$DIMADEC
 70
0
  9
$DIMALTRND
 40
0.0
  9
$DIMAZIN
 70
0
  9
$DIMDSEP
 70
44
  9
$DIMATFIT
 70
3
  9
$DIMFRAC
 70
0
  9
$DIMLDRBLK
  1

  9
$DIMLUNIT
 70
2
  9
$DIMLWD
 70
-2
  9
$DIMLWE
 70
-2
  9
$DIMTMOVE
 70
0
  9
$DIMFXL
 40
1.0
  9
$DIMFXLON
 70
0
  9
$DIMJOGANG
 40
0.785398163397
  9
$DIMTFILL
 70
0
  9
$DIMTFILLCLR
 70
0
  9
$DIMARCSYM
 70
0
  9
$DIMLTYPE
  6

  9
$DIMLTEX1
  6

  9
$DIMLTEX2
  6

  9
$DIMTXTDIRECTION
 70
0
  9
$LUNITS
 70
2
  9
$LUPREC
 70
4
  9
$SKETCHINC
 40
1.0
  9
$FILLETRAD
 40
10.0
  9
$AUNITS
 70
0
  9
$AUPREC
 70
2
  9
$MENU
  1
.
  9
$ELEVATION
 40
0.0
  9
$PELEVATION
 40
0.0
  9
$THICKNESS
 40
0.0
  9
$LIMCHECK
 70
0
  9
$CHAMFERA
 40
0.0
  9
$CHAMFERB
 40
0.0
  9
$CHAMFERC
 40
0.0
  9
$CHAMFERD
 40
0.0
  9
$SKPOLY
 70
0
  9
$TDCREATE
 40
2460417.707337963
  9
$TDUCREATE
 40
2458532.153996898
  9
$TDUPDATE
 40
2460417.707337963
  9
$TDUUPDATE
 40
2458532.1544311
  9
$TDINDWG
 40
0.0
  9
$TDUSRTIMER
 40
0.0
  9
$USRTIMER
 70
1
  9
$ANGBASE
 50
0.0
  9
$ANGDIR
 70
0
  9
$PDMODE
 70
0
  9
$PDSIZE
 40
0.0
  9
$PLINEWID
 40
0.0
  9
$SPLFRAME
 70
0
  9
$SPLINETYPE
 70
6
  9
$SPLINESEGS
 70
8
  9
$HANDSEED
  5
56
  9
$SURFTAB1
 70
6
  9
$SURFTAB2
 70
6
  9
$SURFTYPE
 70
6
  9
$SURFU
 70
6
  9
$SURFV
 70
6
  9
$UCSBASE
  2

  9
$UCSNAME
  2

  9
$UCSORG
 10
0.0
 20
0.0
 30
0.0
  9
$UCSXDIR
 10
1.0
 20
0.0
 30
0.0
  9
$UCSYDIR
 10
0.0
 20
1.0
 30
0.0
  9
$UCSORTHOREF
  2

  9
$UCSORTHOVIEW
 70
0
  9
$UCSORGTOP
 10
0.0
 20
0.0
 30
0.0
  9
$UCSORGBOTTOM
 10
0.0
 20
0.0
 30
0.0
  9
$UCSORGLEFT
 10
0.0
 20
0.0
 30
0.0
  9
$UCSORGRIGHT
 10
0.0
 20
0.0
 30
0.0
  9
$UCSORGFRONT
 10
0.0
 20
0.0
 30
0.0
  9
$UCSORGBACK
 10
0.0
 20
0.0
 30
0.0
  9
$PUCSBASE
  2

  9
$PUCSNAME
  2

  9
$PUCSORG
 10
0.0
 20
0.0
 30
0.0
  9
$PUCSXDIR
 10
1.0
 20
0.0
 30
0.0
  9
$PUCSYDIR
 10
0.0
 20
1.0
 30
0.0
  9
$PUCSORTHOREF
  2

  9
$PUCSORTHOVIEW
 70
0
  9
$PUCSORGTOP
 10
0.0
 20
0.0
 30
0.0
  9
$PUCSORGBOTTOM
 10
0.0
 20
0.0
 30
0.0
  9
$PUCSORGLEFT
 10
0.0
 20
0.0
 30
0.0
  9
$PUCSORGRIGHT
 10
0.0
 20
0.0
 30
0.0
  9
$PUCSORGFRONT
 10
0.0
 20
0.0
 30
0.0
  9
$PUCSORGBACK
 10
0.0
 20
0.0
 30
0.0
  9
$USERI1
 70
0
  9
$USERI2
 70
0
  9
$USERI3
 70
0
  9
$USERI4
 70
0
  9
$USERI5
 70
0
  9
$USERR1
 40
0.0
  9
$USERR2
 40
0.0
  9
$USERR3
 40
0.0
  9
$USERR4
 40
0.0
  9
$USERR5
 40
0.0
  9
$WORLDVIEW
 70
1
  9
$SHADEDGE
 70
3
  9
$SHADEDIF
 70
70
  9
$TILEMODE
 70
1
  9
$MAXACTVP
 70
64
  9
$PINSBASE
 10
0.0
 20
0.0
 30
0.0
  9
$PLIMCHECK
 70
0
  9
$PEXTMIN
 10
1e+20
 20
1e+20
 30
1e+20
  9
$PEXTMAX
 10
-1e+20
 20
-1e+20
 30
-1e+20
  9
$PLIMMIN
 10
0.0
 20
0.0
  9
$PLIMMAX
 10
420.0
 20
297.0
  9
$UNITMODE
 70
0
  9
$VISRETAIN
 70
1
  9
$PLINEGEN
 70
0
  9
$PSLTSCALE
 70
1
  9
$TREEDEPTH
 70
3020
  9
$CMLSTYLE
  2
Standard
  9
$CMLJUST
 70
0
  9
$CMLSCALE
 40
20.0
  9
$PROXYGRAPHICS
 70
1
  9
$MEASUREMENT
 70
1
  9
$CELWEIGHT
370
-1
  9
$ENDCAPS
280
0
  9
$JOINSTYLE
280
0
  9
$LWDISPLAY
290
0
  9
$INSUNITS
 70
4
  9
$HYPERLINKBASE
  1

  9
$STYLESHEET
  1

  9
$XEDIT
290
1
  9
$CEPSNTYPE
380
0
  9
$PSTYLEMODE
290
1
  9
$FINGERPRINTGUID
  2
{F11BB36E-5847-4C24-8D6D-444EDD718411}
  9
$VERSIONGUID
  2
{03BB28D7-E976-476C-8DDD-55502CA47564}
  9
$EXTNAMES
290
1
  9
$PSVPSCALE
 40
0.0
  9
$OLESTARTUP
290
0
  9
$SORTENTS
280
127
  9
$INDEXCTL
280
0
  9
$HIDETEXT
280
1
  9
$XCLIPFRAME
280
0
  9
$HALOGAP
280
0
  9
$OBSCOLOR
 70
257
  9
$OBSLTYPE
280
0
  9
$INTERSECTIONDISPLAY
280
0
  9
$INTERSECTIONCOLOR
 70
257
  9
$DIMASSOC
280
2
  9
$PROJECTNAME
  1

  9
$CAMERADISPLAY
290
0
  9
$LENSLENGTH
 40
50.0
  9
$CAMERAHEIGHT
 40
0.0
  9
$STEPSPERSEC
 40
24.0
  9
$STEPSIZE
 40
100.0
  9
$3DDWFPREC
 40
2.0
  9
$PSOLWIDTH
 40
0.005
  9
$PSOLHEIGHT
 40
0.08
  9
$LOFTANG1
 40
1.570796326795
  9
$LOFTANG2
 40
1.570796326795
  9
$LOFTMAG1
 40
0.0
  9
$LOFTMAG2
 40
0.0
  9
$LOFTPARAM
 70
7
  9
$LOFTNORMALS
280
1
  9
$LATITUDE
 40
37.795
  9
$LONGITUDE
 40
-122.394
  9
$NORTHDIRECTION
 40
0.0
  9
$TIMEZONE
 70
-8000
  9
$LIGHTGLYPHDISPLAY
280
1
  9
$TILEMODELIGHTSYNCH
280
1
  9
$CMATERIAL
347
20
  9
$SOLIDHIST
280
0
  9
$SHOWHIST
280
1
  9
$DWFFRAME
280
2
  9
$DGNFRAME
280
2
  9
$REALWORLDSCALE
290
1
  9
$INTERFERECOLOR
 62
256
  9
$CSHADOW
280
0
  9
$SHADOWPLANELOCATION
 40
0.0
  0
ENDSEC
  0
SECTION
  2
CLASSES
  0
CLASS
  1
ACDBDICTIONARYWDFLT
  2
AcDbDictionaryWithDefault
  3
ObjectDBX Classes
 90
0
 91
0
280
0
281
0
  0
CLASS
  1
SUN
  2
AcDbSun
  3
SCENEOE
 90
1153
 91
0
280
0
281
0
  0
CLASS
  1
VISUALSTYLE
  2
AcDbVisualStyle
  3
ObjectDBX Classes
 90
4095
 91
0
280
0
281
0
  0
CLASS
  1
MATERIAL
  2
AcDbMaterial
  3
ObjectDBX Classes
 90
1153
 91
0
280
0
281
0
  0
CLASS
  1
SCALE
  2
AcDbScale
  3
ObjectDBX Classes
 90
1153
 91
0
280
0
281
0
  0
CLASS
  1
TABLESTYLE
  2
AcDbTableStyle
  3
ObjectDBX Classes
 90
4095
 91
0
280
0
281
0
  0
CLASS
  1
MLEADERSTYLE
  2
AcDbMLeaderStyle
  3
ACDB_MLEADERSTYLE_CLASS
 90
4095
 91
0
280
0
281
0
  0
CLASS
  1
DICTIONARYVAR
  2
AcDbDictionaryVar
  3
ObjectDBX Classes
 90
0
 91
0
280
0
281
0
  0
CLASS
  1
CELLSTYLEMAP
  2
AcDbCellStyleMap
  3
ObjectDBX Classes
 90
1152
 91
0
280
0
281
0
  0
CLASS
  1
MENTALRAYRENDERSETTINGS
  2
AcDbMentalRayRenderSettings
  3
SCENEOE
 90
1024
 91
0
280
0
281
0
  0
CLASS
  1
ACDBDETAILVIEWSTYLE
  2
AcDbDetailViewStyle
  3
ObjectDBX Classes
 90
1025
 91
0
280
0
281
0
  0
CLASS
  1
ACDBSECTIONVIEWSTYLE
  2
AcDbSectionViewStyle
  3
ObjectDBX Classes
 90
1025
 91
0
280
0
281
0
  0
CLASS
  1
RASTERVARIABLES
  2
AcDbRasterVariables
  3
ISM
 90
0
 91
0
280
0
281
0
  0
CLASS
  1
ACDBPLACEHOLDER
  2
AcDbPlaceHolder
  3
ObjectDBX Classes
 90
0
 91
0
280
0
281
0
  0
CLASS
  1
LAYOUT
  2
AcDbLayout
  3
ObjectDBX Classes
 90
0
 91
0
280
0
281
0
  0
ENDSEC
  0
SECTION
  2
TABLES
  0
TABLE
  2
VPORT
  5
8
330
0
100
AcDbSymbolTable
 70
1
  0
VPORT
  5
23
330
8
100
AcDbSymbolTableRecord
100
AcDbViewportTableRecord
  2
*Active
 70
0
 10
0.0
 20
0.0
 11
1.0
 21
1.0
 12
0.0
 22
0.0
 13
0.0
 23
0.0
 14
0.5
 24
0.5
 15
0.5
 25
0.5
 16
0.0
 26
0.0
 36
1.0
 17
0.0
 27
0.0
 37
0.0
 40
1000.0
 41
1.34
 42
50.0
 43
0.0
 44
0.0
 50
0.0
 51
0.0
 71
0
 72
1000
 73
1
 74
3
 75
0
 76
0
 77
0
 78
0
281
0
 65
0
146
0.0
  0
ENDTAB
  0
TABLE
  2
LTYPE
  5
2
330
0
100
AcDbSymbolTable
 70
3
  0
LTYPE
  5
24
330
2
100
AcDbSymbolTableRecord
100
AcDbLinetypeTableRecord
  2
ByBlock
 70
0
  3

 72
65
 73
0
 40
0.0
  0
LTYPE
  5
25
330
2
100
AcDbSymbolTableRecord
100
AcDbLinetypeTableRecord
  2
ByLayer
 70
0
  3

 72
65
 73
0
 40
0.0
  0
LTYPE
  5
26
330
2
100
AcDbSymbolTableRecord
100
AcDbLinetypeTableRecord
  2
Continuous
 70
0
  3

 72
65
 73
0
 40
0.0
  0
ENDTAB
  0
TABLE
  2
LAYER
  5
1
330
0
100
AcDbSymbolTable
 70
4
  0
LAYER
  5
27
330
1
100
AcDbSymbolTableRecord
100
AcDbLayerTableRecord
  2
0
 70
0
 62
7
  6
Continuous
370
-3
390
13
347
21
  0
LAYER
  5
28
330
1
100
AcDbSymbolTableRecord
100
AcDbLayerTableRecord
  2
Defpoints
 70
0
 62
7
  6
Continuous
290
0
370
-3
390
13
347
21
  0
LAYER
  5
2F
330
1
100
AcDbSymbolTableRecord
100
AcDbLayerTableRecord
  2
default
 70
0
 62
7
  6
Continuous
370
-3
390
13
347
21
  0
LAYER
  5
30
330
1
100
AcDbSymbolTableRecord
100
AcDbLayerTableRecord
  2
text
 70
0
 62
7
  6
Continuous
370
-3
390
13
347
21
  0
ENDTAB
  0
TABLE
  2
STYLE
  5
5
330
0
100
AcDbSymbolTable
 70
1
  0
STYLE
  5
29
330
5
100
AcDbSymbolTableRecord
100
AcDbTextStyleTableRecord
  2
Standard
 70
0
 40
0.0
 41
1.0
 50
0.0
 71
0
 42
2.5
  3
txt
  4

  0
ENDTAB
  0
TABLE
  2
VIEW
  5
7
330
0
100
AcDbSymbolTable
 70
0
  0
ENDTAB
  0
TABLE
  2
UCS
  5
6
330
0
100
AcDbSymbolTable
 70
0
  0
ENDTAB
  0
TABLE
  2
APPID
  5
3
330
0
100
AcDbSymbolTable
 70
3
  0
APPID
  5
2A
330
3
100
AcDbSymbolTableRecord
100
AcDbRegAppTableRecord
  2
ACAD
 70
0
  0
APPID
  5
53
330
3
100
AcDbSymbolTableRecord
100
AcDbRegAppTableRecord
  2
HATCHBACKGROUNDCOLOR
 70
0
  0
APPID
  5
54
330
3
100
AcDbSymbolTableRecord
100
AcDbRegAppTableRecord
  2
EZDXF
 70
0
  0
ENDTAB
  0
TABLE
  2
DIMSTYLE
  5
4
330
0
100
AcDbSymbolTable
 70
1
100
AcDbDimStyleTable
  0
DIMSTYLE
105
2B
330
4
100
AcDbSymbolTableRecord
100
AcDbDimStyleTableRecord
  2
Standard
 70
0
 40
1.0
 41
2.5
 42
0.625
 43
3.75
 44
1.25
 45
0.0
 46
0.0
 47
0.0
 48
0.0
 49
2.5
140
2.5
141
2.5
142
0.0
143
0.03937007874
144
1.0
145
0.0
146
1.0
147
0.625
148
0.0
 69
0
 70
0
 71
0
 72
0
 73
0
 74
0
 75
0
 76
0
 77
1
 78
8
 79
3
170
0
171
3
172
1
173
0
174
0
175
0
176
0
177
0
178
0
179
2
271
2
272
2
273
2
274
3
275
0
276
0
277
2
278
44
279
0
280
0
281
0
282
0
283
0
284
8
285
0
286
0
288
0
289
3
290
0
371
-2
372
-2
  0
ENDTAB
  0
TABLE
  2
BLOCK_RECORD
  5
9
330
0
100
AcDbSymbolTable
 70
2
  0
BLOCK_RECORD
  5
17
330
9
100
AcDbSymbolTableRecord
100
AcDbBlockTableRecord
  2
*Model_Space
340
1A
 70
0
280
1
281
0
  0
BLOCK_RECORD
  5
1B
330
9
100
AcDbSymbolTableRecord
100
AcDbBlockTableRecord
  2
*Paper_Space
340
1E
 70
0
280
1
281
0
  0
ENDTAB
  0
ENDSEC
  0
SECTION
  2
BLOCKS
  0
BLOCK
  5
18
330
17
100
AcDbEntity
  8
0
100
AcDbBlockBegin
  2
*Model_Space
 70
0
 10
0.0
 20
0.0
 30
0.0
  3
*Model_Space
  1

  0
ENDBLK
  5
19
330
17
100
AcDbEntity
  8
0
100
AcDbBlockEnd
  0
BLOCK
  5
1C
330
1B
100
AcDbEntity
  8
0
100
AcDbBlockBegin
  2
*Paper_Space
 70
0
 10
0.0
 20
0.0
 30
0.0
  3
*Paper_Space
  1

  0
ENDBLK
  5
1D
330
1B
100
AcDbEntity
  8
0
100
AcDbBlockEnd
  0
ENDSEC
  0
SECTION
  2
ENTITIES
  0
LWPOLYLINE
  5
31
330
17
100
AcDbEntity
  8
0
 62
1
100
AcDbPolyline
 90
71
 70
0
 10
123.43682812499999
 20
8.118820312499997
 10
123.579703125
 20
8.729007812499999
 10
123.770203125
 20
9.3082578125
 10
124.008328125
 20
9.8565703125
 10
124.294078125
 20
10.373945312500002
 10
124.62745312499999
 20
10.860382812500001
 10
124.812
 20
11.092
 10
125.00675
 20
11.3126328125
 10
125.42175
 20
11.7111953125
 10
125.87075
 20
12.052820312500002
 10
126.35374999999999
 20
12.3375078125
 10
126.87075
 20
12.5652578125
 10
127.42175
 20
12.736070312499999
 10
128.00674999999998
 20
12.849945312499997
 10
128.62575
 20
12.9068828125
 10
128.948
 20
12.914
 10
129.2734140625
 20
12.906906249999999
 10
129.8982265625
 20
12.850156249999998
 10
130.48835156250001
 20
12.736656250000001
 10
131.0437890625
 20
12.56640625
 10
131.5645390625
 20
12.339406250000001
 10
132.0506015625
 20
12.05565625
 10
132.5019765625
 20
11.715156250000001
 10
132.91866406250003
 20
11.317906250000002
 10
133.114
 20
11.098
 10
133.2992734375
 20
10.867062500000001
 10
133.6339609375
 20
10.381562500000001
 10
133.9208359375
 20
9.8645625
 10
134.1598984375
 20
9.3160625
 10
134.3511484375
 20
8.736062500000001
 10
134.4945859375
 20
8.1245625
 10
134.62009375
 20
7.148249999999999
 10
134.644
 20
6.458
 10
134.644
 20
6.2
 10
134.62018750000001
 20
5.50709375
 10
134.495171875
 20
4.5280859375
 10
134.352296875
 20
3.9156484375000007
 10
134.16179687500002
 20
3.3353984375
 10
133.923671875
 20
2.7873359375000004
 10
133.63792187500002
 20
2.2714609375
 10
133.304546875
 20
1.7877734374999996
 10
133.12
 20
1.558
 10
132.92543750000002
 20
1.339546875
 10
132.5104375
 20
0.944921875
 10
132.0609375
 20
0.606671875
 10
131.57693749999999
 20
0.32479687500000004
 10
131.0584375
 20
0.09929687500000002
 10
130.5054375
 20
-0.069828125
 10
129.9179375
 20
-0.182578125
 10
129.2959375
 20
-0.23895312500000002
 10
128.972
 20
-0.246
 10
128.64827343750002
 20
-0.2389296875
 10
128.0264609375
 20
-0.1823671875
 10
127.4388359375
 20
-0.0692421875
 10
126.8853984375
 20
0.1004453125
 10
126.36614843749999
 20
0.3266953125
 10
125.88108593750002
 20
0.6095078125
 10
125.4302109375
 20
0.9488828125000002
 10
125.0135234375
 20
1.3448203125000002
 10
124.81800000000001
 20
1.564
 10
124.6327265625
 20
1.7944531250000002
 10
124.2980390625
 20
2.279078125
 10
124.01116406250001
 20
2.795328125
 10
123.77210156250001
 20
3.3432031250000005
 10
123.5808515625
 20
3.922703125
 10
123.4374140625
 20
4.533828125
 10
123.31190624999999
 20
5.5098125
 10
123.288
 20
6.2
 10
123.288
 20
6.458
 10
123.3118125
 20
7.1455312499999994
 10
123.43682812499999
 20
8.118820312499997
  0
LWPOLYLINE
  5
32
330
17
100
AcDbEntity
  8
0
 62
1
100
AcDbPolyline
 90
43
 70
0
 10
125.71724999999999
 20
4.787000000000001
 10
125.92925000000001
 20
3.955
 10
126.24725000000001
 20
3.2110000000000003
 10
126.44600000000001
 20
2.872
 10
126.67140625
 20
2.56403125
 10
127.19965625
 20
2.0712812499999997
 10
127.83115625
 20
1.7427812500000002
 10
128.56590624999998
 20
1.5785312500000002
 10
128.972
 20
1.558
 10
129.37256250000002
 20
1.5785312500000002
 10
130.0990625
 20
1.7427812500000002
 10
130.72606249999998
 20
2.0712812499999997
 10
131.25356250000002
 20
2.56403125
 10
131.48
 20
2.872
 10
131.68062500000002
 20
3.2110000000000003
 10
132.001625
 20
3.955
 10
132.21562500000002
 20
4.787000000000001
 10
132.322625
 20
5.707000000000001
 10
132.33599999999998
 20
6.2
 10
132.33599999999998
 20
6.458
 10
132.32253125
 20
6.9455625
 10
132.21478125
 20
7.8580625
 10
131.99928125
 20
8.687062500000001
 10
131.67603125000002
 20
9.432562500000001
 10
131.47400000000002
 20
9.774000000000001
 10
131.24596875
 20
10.0843125
 10
130.71471875
 20
10.5808125
 10
130.08321875
 20
10.911812500000002
 10
129.35146875
 20
11.0773125
 10
128.948
 20
11.098
 10
128.54753125
 20
11.0773125
 10
127.82178125000002
 20
10.911812500000002
 10
127.19628125
 20
10.5808125
 10
126.67103125
 20
10.0843125
 10
126.44600000000001
 20
9.774000000000001
 10
126.24725000000001
 20
9.432562500000001
 10
125.92925000000001
 20
8.687062500000001
 10
125.71724999999999
 20
7.8580625
 10
125.61125
 20
6.9455625
 10
125.59800000000001
 20
6.458
 10
125.59800000000001
 20
6.2
 10
125.61125
 20
5.707000000000001
 10
125.71724999999999
 20
4.787000000000001
  0
LWPOLYLINE
  5
33
330
17
100
AcDbEntity
  8
0
 62
1
100
AcDbPolyline
 90
90
 70
0
 10
23.802000000000007
 20
1.014
 10
23.749500000000005
 20
1.455
 10
23.724000000000007
 20
1.8980000000000001
 10
23.556875000000005
 20
1.6741875000000002
 10
23.185875000000006
 20
1.2546875000000002
 10
22.76587500000001
 20
0.8726875000000001
 10
22.296875000000007
 20
0.5281874999999999
 10
22.044000000000008
 20
0.37000000000000005
 10
21.782031250000006
 20
0.22562500000000002
 10
21.243281250000006
 20
-0.005374999999999991
 10
20.684781250000004
 20
-0.15937500000000002
 10
20.106531250000007
 20
-0.236375
 10
19.810000000000006
 20
-0.246
 10
19.329750000000004
 20
-0.23015625000000003
 10
18.457750000000004
 20
-0.10340624999999999
 10
17.703750000000007
 20
0.15009375
 10
17.067750000000004
 20
0.53034375
 10
16.794000000000008
 20
0.768
 10
16.550718750000005
 20
1.0334687500000002
 10
16.161468750000008
 20
1.6362187499999998
 10
15.901968750000004
 20
2.33471875
 10
15.772218750000006
 20
3.12896875
 10
15.756000000000004
 20
3.562
 10
15.778968750000004
 20
4.003656250000001
 10
15.899554687500007
 20
4.6198515625
 10
16.037367187500006
 20
4.9997890625000005
 10
16.221117187500006
 20
5.3550390625
 10
16.450804687500007
 20
5.6856015625000005
 10
16.881468750000007
 20
6.13515625
 10
17.226000000000006
 20
6.404
 10
17.610375000000005
 20
6.644468749999999
 10
18.477375000000006
 20
7.029218749999998
 10
19.475375000000003
 20
7.285718749999998
 10
20.604375000000005
 20
7.413968750000001
 10
21.218000000000004
 20
7.43
 10
23.724000000000007
 20
7.43
 10
23.724000000000007
 20
8.684
 10
23.713406250000006
 20
8.9548125
 10
23.628656250000006
 20
9.4533125
 10
23.459156250000007
 20
9.8943125
 10
23.204906250000008
 20
10.2778125
 10
23.046000000000006
 20
10.448
 10
22.867218750000006
 20
10.60034375
 10
22.456968750000005
 20
10.84409375
 10
21.976468750000006
 20
11.00659375
 10
21.425718750000005
 20
11.087843750000001
 10
21.12400000000001
 20
11.098
 10
20.852000000000004
 20
11.089125000000003
 10
20.34700000000001
 20
11.018125000000001
 10
19.894000000000005
 20
10.876125
 10
19.49300000000001
 20
10.663125
 10
19.31200000000001
 20
10.530000000000001
 10
19.148875000000004
 20
10.383968750000001
 10
18.887875000000005
 20
10.070718750000001
 10
18.713875000000005
 20
9.729218750000001
 10
18.626875000000005
 20
9.35946875
 10
18.616000000000007
 20
9.164
 10
16.412000000000003
 20
9.164
 10
16.390000000000004
 20
9.234
 10
16.394656250000004
 20
9.5763125
 10
16.539906250000005
 20
10.238812500000002
 10
16.866406250000008
 20
10.871812499999999
 10
17.374156250000006
 20
11.475312500000001
 10
17.696000000000005
 20
11.766
 10
18.052562500000004
 20
12.0350625
 10
18.841062500000003
 20
12.465562499999999
 10
19.730062500000006
 20
12.752562499999998
 10
20.71956250000001
 20
12.8960625
 10
21.252000000000006
 20
12.914
 10
21.777843750000006
 20
12.896875000000001
 10
22.750593750000007
 20
12.759875
 10
23.618093750000003
 20
12.485875
 10
24.380343750000005
 20
12.074874999999999
 10
24.722000000000005
 20
11.818
 10
24.880875000000003
 20
11.677226562500001
 10
25.167875000000006
 20
11.3730390625
 10
25.413875000000004
 20
11.0386640625
 10
25.618875000000003
 20
10.6741015625
 10
25.849500000000003
 20
10.070656249999999
 10
26.013500000000008
 20
9.16040625
 10
26.034000000000006
 20
8.66
 10
26.034000000000006
 20
2.5540000000000003
 10
26.051500000000004
 20
1.8869999999999998
 10
26.10400000000001
 20
1.242
 10
26.146375000000003
 20
0.9273750000000001
 10
26.275375000000004
 20
0.306375
 10
26.36200000000001
 20
0.0
 10
23.982000000000006
 20
0.0
 10
23.879000000000005
 20
0.5405
 10
23.802000000000007
 20
1.014
  0
LWPOLYLINE
  5
34
330
17
100
AcDbEntity
  8
0
 62
1
100
AcDbPolyline
 90
33
 70
0
 10
21.055906250000007
 20
1.7785625000000005
 10
21.621406250000007
 20
1.9395625000000003
 10
22.156156250000006
 20
2.1810625000000003
 10
22.412000000000006
 20
2.3320000000000003
 10
22.653000000000006
 20
2.4959375
 10
23.069000000000006
 20
2.8414375
 10
23.397000000000006
 20
3.2104375000000007
 10
23.637000000000008
 20
3.6029375000000003
 10
23.724000000000007
 20
3.808
 10
23.724000000000007
 20
5.872
 10
21.136000000000006
 20
5.872
 10
20.795718750000006
 20
5.861000000000001
 10
20.167468750000005
 20
5.773000000000001
 10
19.608968750000003
 20
5.597
 10
19.120218750000003
 20
5.333
 10
18.902000000000005
 20
5.168
 10
18.705593750000002
 20
4.9881875
 10
18.391343750000004
 20
4.6056875
 10
18.181843750000006
 20
4.192687500000001
 10
18.077093750000007
 20
3.7491875
 10
18.064000000000004
 20
3.516
 10
18.072250000000004
 20
3.3104999999999998
 10
18.138250000000006
 20
2.9325
 10
18.270250000000004
 20
2.5985
 10
18.46825000000001
 20
2.3085
 10
18.592000000000006
 20
2.18
 10
18.731843750000007
 20
2.0646875000000002
 10
19.058593750000007
 20
1.8801875000000003
 10
19.448093750000005
 20
1.7571875
 10
19.900343750000005
 20
1.6956874999999998
 10
20.150000000000006
 20
1.688
 10
20.459656250000005
 20
1.6980624999999998
 10
21.055906250000007
 20
1.7785625000000005
  0
LWPOLYLINE
  5
35
330
17
100
AcDbEntity
  8
0
 62
1
100
AcDbPolyline
 90
90
 70
0
 10
106.546
 20
1.014
 10
106.4935
 20
1.455
 10
106.46800000000002
 20
1.8980000000000001
 10
106.300875
 20
1.6741875000000002
 10
105.929875
 20
1.2546875000000002
 10
105.50987500000002
 20
0.8726875000000001
 10
105.04087500000001
 20
0.5281874999999999
 10
104.78800000000001
 20
0.37000000000000005
 10
104.52603125000002
 20
0.22562500000000002
 10
103.98728125000001
 20
-0.005374999999999991
 10
103.42878125
 20
-0.15937500000000002
 10
102.85053125
 20
-0.236375
 10
102.554
 20
-0.246
 10
102.07375000000002
 20
-0.23015625000000003
 10
101.20175
 20
-0.10340624999999999
 10
100.44775000000001
 20
0.15009375
 10
99.81175000000002
 20
0.53034375
 10
99.53800000000001
 20
0.768
 10
99.29471875000002
 20
1.0334687500000002
 10
98.90546875000001
 20
1.6362187499999998
 10
98.64596875000001
 20
2.33471875
 10
98.51621875000001
 20
3.12896875
 10
98.5
 20
3.562
 10
98.52296875000002
 20
4.003656250000001
 10
98.6435546875
 20
4.6198515625
 10
98.78136718750001
 20
4.9997890625000005
 10
98.96511718750001
 20
5.3550390625
 10
99.19480468750001
 20
5.6856015625000005
 10
99.62546875000001
 20
6.13515625
 10
99.97000000000001
 20
6.404
 10
100.354375
 20
6.644468749999999
 10
101.22137500000001
 20
7.029218749999998
 10
102.21937500000001
 20
7.285718749999998
 10
103.34837500000002
 20
7.413968750000001
 10
103.96200000000002
 20
7.43
 10
106.46800000000002
 20
7.43
 10
106.46800000000002
 20
8.684
 10
106.45740625000002
 20
8.9548125
 10
106.37265625
 20
9.4533125
 10
106.20315625
 20
9.8943125
 10
105.94890625000001
 20
10.2778125
 10
105.79000000000002
 20
10.448
 10
105.61121875000002
 20
10.60034375
 10
105.20096875
 20
10.84409375
 10
104.72046875000001
 20
11.00659375
 10
104.16971875
 20
11.087843750000001
 10
103.86800000000001
 20
11.098
 10
103.596
 20
11.089125000000003
 10
103.09100000000001
 20
11.018125000000001
 10
102.63800000000002
 20
10.876125
 10
102.23700000000001
 20
10.663125
 10
102.05600000000001
 20
10.530000000000001
 10
101.892875
 20
10.383968750000001
 10
101.63187500000001
 20
10.070718750000001
 10
101.457875
 20
9.729218750000001
 10
101.37087500000001
 20
9.35946875
 10
101.36000000000001
 20
9.164
 10
99.156
 20
9.164
 10
99.13400000000001
 20
9.234
 10
99.13865625000001
 20
9.5763125
 10
99.28390625000002
 20
10.238812500000002
 10
99.61040625000001
 20
10.871812499999999
 10
100.11815625000001
 20
11.475312500000001
 10
100.44000000000001
 20
11.766
 10
100.79656250000001
 20
12.0350625
 10
101.5850625
 20
12.465562499999999
 10
102.47406250000002
 20
12.752562499999998
 10
103.46356250000002
 20
12.8960625
 10
103.99600000000001
 20
12.914
 10
104.52184375000002
 20
12.896875000000001
 10
105.49459375000002
 20
12.759875
 10
106.36209375000001
 20
12.485875
 10
107.12434375000001
 20
12.074874999999999
 10
107.46600000000001
 20
11.818
 10
107.624875
 20
11.677226562500001
 10
107.91187500000001
 20
11.3730390625
 10
108.15787500000002
 20
11.0386640625
 10
108.36287500000002
 20
10.6741015625
 10
108.5935
 20
10.070656249999999
 10
108.75750000000001
 20
9.16040625
 10
108.778
 20
8.66
 10
108.778
 20
2.5540000000000003
 10
108.7955
 20
1.8869999999999998
 10
108.84800000000001
 20
1.242
 10
108.890375
 20
0.9273750000000001
 10
109.01937500000003
 20
0.306375
 10
109.106
 20
0.0
 10
106.726
 20
0.0
 10
106.623
 20
0.5405
 10
106.546
 20
1.014
  0
LWPOLYLINE
  5
36
330
17
100
AcDbEntity
  8
0
 62
1
100
AcDbPolyline
 90
33
 70
0
 10
103.79990625
 20
1.7785625000000005
 10
104.36540625
 20
1.9395625000000003
 10
104.90015625000001
 20
2.1810625000000003
 10
105.156
 20
2.3320000000000003
 10
105.397
 20
2.4959375
 10
105.81300000000002
 20
2.8414375
 10
106.14100000000002
 20
3.2104375000000007
 10
106.381
 20
3.6029375000000003
 10
106.46800000000002
 20
3.808
 10
106.46800000000002
 20
5.872
 10
103.88
 20
5.872
 10
103.53971875
 20
5.861000000000001
 10
102.91146875
 20
5.773000000000001
 10
102.35296875
 20
5.597
 10
101.86421875000002
 20
5.333
 10
101.64600000000002
 20
5.168
 10
101.44959375000002
 20
4.9881875
 10
101.13534375
 20
4.6056875
 10
100.92584375000001
 20
4.192687500000001
 10
100.82109375
 20
3.7491875
 10
100.808
 20
3.516
 10
100.81625000000001
 20
3.3104999999999998
 10
100.88225
 20
2.9325
 10
101.01425
 20
2.5985
 10
101.21225000000001
 20
2.3085
 10
101.33600000000001
 20
2.18
 10
101.47584375000001
 20
2.0646875000000002
 10
101.80259375000001
 20
1.8801875000000003
 10
102.19209375000001
 20
1.7571875
 10
102.64434375000002
 20
1.6956874999999998
 10
102.894
 20
1.688
 10
103.20365625
 20
1.6980624999999998
 10
103.79990625
 20
1.7785625000000005
  0
LWPOLYLINE
  5
37
330
17
100
AcDbEntity
  8
0
 62
1
100
AcDbPolyline
 90
90
 70
0
 10
73.49350000000001
 20
1.455
 10
73.468
 20
1.8980000000000001
 10
73.300875
 20
1.6741875000000002
 10
72.92987500000001
 20
1.2546875000000002
 10
72.50987500000001
 20
0.8726875000000001
 10
72.04087500000001
 20
0.5281874999999999
 10
71.788
 20
0.37000000000000005
 10
71.52603125
 20
0.22562500000000002
 10
70.98728125000001
 20
-0.005374999999999991
 10
70.42878125000001
 20
-0.15937500000000002
 10
69.85053125
 20
-0.236375
 10
69.55400000000002
 20
-0.246
 10
69.07375
 20
-0.23015625000000003
 10
68.20175
 20
-0.10340624999999999
 10
67.44775000000001
 20
0.15009375
 10
66.81175
 20
0.53034375
 10
66.538
 20
0.768
 10
66.29471875
 20
1.0334687500000002
 10
65.90546875
 20
1.6362187499999998
 10
65.64596875000001
 20
2.33471875
 10
65.51621875000001
 20
3.12896875
 10
65.5
 20
3.562
 10
65.52296875
 20
4.003656250000001
 10
65.6435546875
 20
4.6198515625
 10
65.78136718750001
 20
4.9997890625000005
 10
65.96511718750001
 20
5.3550390625
 10
66.19480468750001
 20
5.6856015625000005
 10
66.62546875000001
 20
6.13515625
 10
66.97000000000001
 20
6.404
 10
67.354375
 20
6.644468749999999
 10
68.22137500000001
 20
7.029218749999998
 10
69.219375
 20
7.285718749999998
 10
70.348375
 20
7.413968750000001
 10
70.962
 20
7.43
 10
73.468
 20
7.43
 10
73.468
 20
8.684
 10
73.45740625
 20
8.9548125
 10
73.37265625
 20
9.4533125
 10
73.20315625
 20
9.8943125
 10
72.94890625000001
 20
10.2778125
 10
72.79
 20
10.448
 10
72.61121875
 20
10.60034375
 10
72.20096875
 20
10.84409375
 10
71.72046875000001
 20
11.00659375
 10
71.16971875
 20
11.087843750000001
 10
70.86800000000001
 20
11.098
 10
70.596
 20
11.089125000000003
 10
70.09100000000001
 20
11.018125000000001
 10
69.638
 20
10.876125
 10
69.23700000000001
 20
10.663125
 10
69.05600000000001
 20
10.530000000000001
 10
68.892875
 20
10.383968750000001
 10
68.63187500000001
 20
10.070718750000001
 10
68.457875
 20
9.729218750000001
 10
68.370875
 20
9.35946875
 10
68.36
 20
9.164
 10
66.156
 20
9.164
 10
66.134
 20
9.234
 10
66.13865625000001
 20
9.5763125
 10
66.28390625000002
 20
10.238812500000002
 10
66.61040625000001
 20
10.871812499999999
 10
67.11815625000001
 20
11.475312500000001
 10
67.44000000000001
 20
11.766
 10
67.79656250000001
 20
12.0350625
 10
68.5850625
 20
12.465562499999999
 10
69.4740625
 20
12.752562499999998
 10
70.46356250000001
 20
12.8960625
 10
70.99600000000001
 20
12.914
 10
71.52184375
 20
12.896875000000001
 10
72.49459375
 20
12.759875
 10
73.36209375000001
 20
12.485875
 10
74.12434375000001
 20
12.074874999999999
 10
74.46600000000001
 20
11.818
 10
74.62487500000002
 20
11.677226562500001
 10
74.91187500000001
 20
11.3730390625
 10
75.157875
 20
11.0386640625
 10
75.36287500000002
 20
10.6741015625
 10
75.5935
 20
10.070656249999999
 10
75.75750000000001
 20
9.16040625
 10
75.778
 20
8.66
 10
75.778
 20
2.5540000000000003
 10
75.7955
 20
1.8869999999999998
 10
75.848
 20
1.242
 10
75.890375
 20
0.9273750000000001
 10
76.01937500000001
 20
0.306375
 10
76.10600000000001
 20
0.0
 10
73.726
 20
0.0
 10
73.623
 20
0.5405
 10
73.546
 20
1.014
 10
73.49350000000001
 20
1.455
  0
LWPOLYLINE
  5
38
330
17
100
AcDbEntity
  8
0
 62
1
100
AcDbPolyline
 90
33
 70
0
 10
71.36540625
 20
1.9395625000000003
 10
71.90015625000001
 20
2.1810625000000003
 10
72.156
 20
2.3320000000000003
 10
72.397
 20
2.4959375
 10
72.81300000000002
 20
2.8414375
 10
73.141
 20
3.2104375000000007
 10
73.38100000000001
 20
3.6029375000000003
 10
73.468
 20
3.808
 10
73.468
 20
5.872
 10
70.88000000000001
 20
5.872
 10
70.53971875
 20
5.861000000000001
 10
69.91146875000001
 20
5.773000000000001
 10
69.35296875
 20
5.597
 10
68.86421875
 20
5.333
 10
68.646
 20
5.168
 10
68.44959375
 20
4.9881875
 10
68.13534375
 20
4.6056875
 10
67.92584375
 20
4.192687500000001
 10
67.82109375
 20
3.7491875
 10
67.808
 20
3.516
 10
67.81625000000001
 20
3.3104999999999998
 10
67.88225
 20
2.9325
 10
68.01425
 20
2.5985
 10
68.21225000000001
 20
2.3085
 10
68.336
 20
2.18
 10
68.47584375000001
 20
2.0646875000000002
 10
68.80259375000001
 20
1.8801875000000003
 10
69.19209375000001
 20
1.7571875
 10
69.64434375
 20
1.6956874999999998
 10
69.894
 20
1.688
 10
70.20365625000001
 20
1.6980624999999998
 10
70.79990625
 20
1.7785625000000005
 10
71.36540625
 20
1.9395625000000003
  0
LWPOLYLINE
  5
39
330
17
100
AcDbEntity
  8
0
 62
1
100
AcDbPolyline
 90
11
 70
0
 10
86.28200000000001
 20
1.618
 10
93.13800000000002
 20
10.852000000000002
 10
86.36400000000002
 20
10.852000000000002
 10
86.36400000000002
 20
12.68
 10
95.96200000000002
 20
12.68
 10
95.96200000000002
 20
11.11
 10
89.03600000000002
 20
1.804
 10
96.36000000000001
 20
1.804
 10
96.36000000000001
 20
0.0
 10
86.28200000000001
 20
0.0
 10
86.28200000000001
 20
1.618
  0
LWPOLYLINE
  5
3A
330
17
100
AcDbEntity
  8
0
 62
1
100
AcDbPolyline
 90
32
 70
0
 10
82.71100000000001
 20
10.649250000000002
 10
82.32600000000002
 20
10.54125
 10
81.97700000000002
 20
10.379249999999999
 10
81.81600000000002
 20
10.278
 10
81.66350000000001
 20
10.164
 10
81.38550000000002
 20
9.903
 10
81.14350000000002
 20
9.597999999999999
 10
80.93750000000001
 20
9.249
 10
80.84800000000001
 20
9.058
 10
80.84800000000001
 20
0.0
 10
78.54000000000002
 20
0.0
 10
78.54000000000002
 20
12.68
 10
80.60200000000002
 20
12.68
 10
80.82400000000001
 20
10.828000000000001
 10
80.96293750000001
 20
11.06725
 10
81.26443750000001
 20
11.505249999999998
 10
81.59743750000001
 20
11.88925
 10
81.96193750000002
 20
12.219250000000002
 10
82.156
 20
12.364000000000003
 10
82.35728125000001
 20
12.492906250000003
 10
82.78253125000002
 20
12.69915625
 10
83.23803125
 20
12.836656249999999
 10
83.72378125000002
 20
12.905406249999999
 10
83.97800000000001
 20
12.914
 10
84.23000000000002
 20
12.904
 10
84.47000000000001
 20
12.874000000000002
 10
84.68350000000001
 20
12.831000000000001
 10
84.85600000000001
 20
12.786000000000001
 10
84.54000000000002
 20
10.64
 10
83.35600000000001
 20
10.71
 10
83.13200000000002
 20
10.70325
 10
82.71100000000001
 20
10.649250000000002
  0
LWPOLYLINE
  5
3B
330
17
100
AcDbEntity
  8
0
 62
1
100
AcDbPolyline
 90
50
 70
0
 10
31.542500000000008
 20
11.48471875
 10
31.939500000000006
 20
11.876218750000001
 10
32.37650000000001
 20
12.211468750000002
 10
32.61000000000001
 20
12.358000000000002
 10
32.853093750000006
 20
12.488312500000001
 10
33.36384375
 20
12.6968125
 10
33.90734375000001
 20
12.835812499999998
 10
34.483593750000004
 20
12.9053125
 10
34.784000000000006
 20
12.914
 10
35.28206250000001
 20
12.895218749999998
 10
36.19156250000001
 20
12.74496875
 10
36.98556250000001
 20
12.444468749999999
 10
37.66406250000001
 20
11.99371875
 10
37.96
 20
11.712000000000002
 10
38.096109375000005
 20
11.556890625000001
 10
38.341984375
 20
11.216015625
 10
38.644937500000005
 20
10.6280625
 10
38.92593750000001
 20
9.7010625
 10
39.066437500000006
 20
8.6105625
 10
39.084
 20
8.004
 10
39.084
 20
0.0
 10
36.776
 20
0.0
 10
36.776
 20
7.958
 10
36.765656250000006
 20
8.36134375
 10
36.68290625000001
 20
9.07709375
 10
36.51740625000001
 20
9.67159375
 10
36.26915625
 20
10.14484375
 10
36.114000000000004
 20
10.336
 10
35.93759375000001
 20
10.501000000000001
 10
35.51934375000001
 20
10.765
 10
35.01384375000001
 20
10.940999999999999
 10
34.421093750000004
 20
11.029
 10
34.092000000000006
 20
11.04
 10
33.846562500000005
 20
11.03246875
 10
33.37706250000001
 20
10.97221875
 10
32.936062500000006
 20
10.851718750000002
 10
32.523562500000004
 20
10.67096875
 10
32.328
 20
10.558
 10
32.141312500000005
 20
10.4325
 10
31.796812500000005
 20
10.1485
 10
31.490812500000004
 20
9.820500000000003
 10
31.223312500000006
 20
9.448500000000001
 10
31.10400000000001
 20
9.246
 10
31.10400000000001
 20
0.0
 10
28.796000000000006
 20
0.0
 10
28.796000000000006
 20
12.68
 10
30.858000000000004
 20
12.68
 10
31.022000000000006
 20
10.792000000000002
 10
31.185500000000005
 20
11.03696875
 10
31.542500000000008
 20
11.48471875
  0
LWPOLYLINE
  5
3C
330
17
100
AcDbEntity
  8
0
 62
1
100
AcDbPolyline
 90
50
 70
0
 10
114.28649999999999
 20
11.48471875
 10
114.68349999999998
 20
11.876218750000001
 10
115.12049999999999
 20
12.211468750000002
 10
115.354
 20
12.358000000000002
 10
115.59709374999998
 20
12.488312500000001
 10
116.10784374999999
 20
12.6968125
 10
116.65134374999998
 20
12.835812499999998
 10
117.22759374999998
 20
12.9053125
 10
117.528
 20
12.914
 10
118.0260625
 20
12.895218749999998
 10
118.9355625
 20
12.74496875
 10
119.7295625
 20
12.444468749999999
 10
120.40806249999999
 20
11.99371875
 10
120.70400000000001
 20
11.712000000000002
 10
120.840109375
 20
11.556890625000001
 10
121.08598437500001
 20
11.216015625
 10
121.3889375
 20
10.6280625
 10
121.6699375
 20
9.7010625
 10
121.81043749999999
 20
8.6105625
 10
121.828
 20
8.004
 10
121.828
 20
0.0
 10
119.51999999999998
 20
0.0
 10
119.51999999999998
 20
7.958
 10
119.50965624999999
 20
8.36134375
 10
119.42690624999999
 20
9.07709375
 10
119.26140625
 20
9.67159375
 10
119.01315625000001
 20
10.14484375
 10
118.858
 20
10.336
 10
118.68159374999999
 20
10.501000000000001
 10
118.26334374999999
 20
10.765
 10
117.75784374999999
 20
10.940999999999999
 10
117.16509374999998
 20
11.029
 10
116.836
 20
11.04
 10
116.59056249999999
 20
11.03246875
 10
116.1210625
 20
10.97221875
 10
115.68006249999999
 20
10.851718750000002
 10
115.2675625
 20
10.67096875
 10
115.07199999999999
 20
10.558
 10
114.8853125
 20
10.4325
 10
114.5408125
 20
10.1485
 10
114.2348125
 20
9.820500000000003
 10
113.96731249999999
 20
9.448500000000001
 10
113.84799999999998
 20
9.246
 10
113.84799999999998
 20
0.0
 10
111.53999999999999
 20
0.0
 10
111.53999999999999
 20
12.68
 10
113.602
 20
12.68
 10
113.76599999999999
 20
10.792000000000002
 10
113.92949999999999
 20
11.03696875
 10
114.28649999999999
 20
11.48471875
  0
LWPOLYLINE
  5
3D
330
17
100
AcDbEntity
  8
0
 62
1
100
AcDbPolyline
 90
150
 70
0
 10
10.729781250000002
 20
6.060062500000001
 10
10.524000000000001
 20
6.264
 10
10.28278125
 20
6.457593750000001
 10
9.673031250000001
 20
6.8213437500000005
 10
8.89353125
 20
7.153843750000002
 10
7.94428125
 20
7.4550937500000005
 10
7.406000000000001
 20
7.594
 10
6.7480625000000005
 20
7.764531250000001
 10
5.5435625
 20
8.16278125
 10
4.4875625
 20
8.637281250000001
 10
3.5800625
 20
9.188031250000002
 10
3.1820000000000004
 20
9.492000000000003
 10
2.8262187500000002
 20
9.815562500000002
 10
2.3814921875000006
 20
10.338640625000002
 10
2.1443046875000005
 20
10.712515625000002
 10
1.9545546875
 20
11.106515625
 10
1.8122421875
 20
11.520640625
 10
1.6877187500000002
 20
12.179562500000001
 10
1.6640000000000001
 20
12.644
 10
1.6703828125000002
 20
12.890437500000003
 10
1.7214453125000002
 20
13.3679375
 10
1.8235703125000002
 20
13.824937499999999
 10
1.9767578125
 20
14.2614375
 10
2.1810078125000003
 20
14.6774375
 10
2.436320312500001
 20
15.072937500000002
 10
2.7426953125000004
 20
15.447937500000002
 10
3.1001328125000005
 20
15.8024375
 10
3.2980000000000005
 20
15.972000000000001
 10
3.506273437500001
 20
16.13378125
 10
3.9454609375000005
 20
16.42603125
 10
4.4148359375
 20
16.67653125
 10
4.914398437500001
 20
16.88528125
 10
5.7203437500000005
 20
17.120124999999998
 10
6.9005937500000005
 20
17.287125
 10
7.5360000000000005
 20
17.308
 10
7.8815390625
 20
17.3020078125
 10
8.545851562500003
 20
17.2540703125
 10
9.174476562500002
 20
17.1581953125
 10
9.767414062500002
 20
17.0143828125
 10
10.3246640625
 20
16.8226328125
 10
10.8462265625
 20
16.582945312499998
 10
11.3321015625
 20
16.295320312500003
 10
11.7822890625
 20
15.9597578125
 10
11.994
 20
15.774
 10
12.194546875
 20
15.580078125
 10
12.555421875
 20
15.180703125
 10
12.862671875000002
 20
14.765953125
 10
13.116296875000002
 20
14.335828125
 10
13.316296875
 20
13.890328125000003
 10
13.462671874999996
 20
13.429453125000002
 10
13.555421874999997
 20
12.953203125
 10
13.594546874999999
 20
12.461578125000003
 10
13.594000000000001
 20
12.21
 10
13.57
 20
12.14
 10
11.368000000000002
 20
12.14
 10
11.352500000000001
 20
12.506031250000001
 10
11.2285
 20
13.184281250000002
 10
10.980500000000001
 20
13.790781249999998
 10
10.6085
 20
14.325531250000001
 10
10.376
 20
14.566
 10
10.1150625
 20
14.78303125
 10
9.5125625
 20
15.130281250000003
 10
8.802562499999999
 20
15.361781250000002
 10
7.985062499999998
 20
15.477531250000002
 10
7.5360000000000005
 20
15.492000000000003
 10
7.117562500000002
 20
15.479812500000003
 10
6.356062500000001
 20
15.382312500000005
 10
5.695062500000001
 20
15.187312500000003
 10
5.1345625
 20
14.8948125
 10
4.892
 20
14.712000000000002
 10
4.676375
 20
14.510062500000002
 10
4.331375
 20
14.061562500000003
 10
4.101375
 20
13.553562500000002
 10
3.986375
 20
12.986062500000001
 10
3.972
 20
12.68
 10
3.9875625
 20
12.40728125
 10
4.1120625
 20
11.896531250000002
 10
4.3610625
 20
11.432031250000001
 10
4.7345625
 20
11.013781250000001
 10
4.968
 20
10.822000000000001
 10
5.2364375
 20
10.63884375
 10
5.8899375
 20
10.289593750000002
 10
6.698937500000001
 20
9.963093749999999
 10
7.663437500000001
 20
9.65934375
 10
8.204
 20
9.516
 10
8.857375000000001
 20
9.33909375
 10
10.043375
 20
8.925843749999999
 10
11.068375
 20
8.43334375
 10
11.932375
 20
7.861593750000001
 10
12.304000000000002
 20
7.546000000000001
 10
12.633531250000003
 20
7.211281250000001
 10
13.160781250000003
 20
6.483531250000002
 10
13.512281250000001
 20
5.67803125
 10
13.688031250000003
 20
4.79478125
 10
13.710000000000003
 20
4.324
 10
13.703414062500002
 20
4.069406249999999
 10
13.650726562500001
 20
3.57915625
 10
13.545351562500002
 20
3.1141562499999997
 10
13.387289062500003
 20
2.67440625
 10
13.176539062500002
 20
2.2599062500000002
 10
12.913101562500003
 20
1.8706562500000001
 10
12.596976562500002
 20
1.50665625
 10
12.2281640625
 20
1.1679062500000001
 10
12.024000000000001
 20
1.008
 10
11.8089765625
 20
0.8561484374999999
 10
11.3547890625
 20
0.5818359375000001
 10
10.613156250000001
 20
0.24384375000000003
 10
9.51165625
 20
-0.06965625
 10
8.281406250000002
 20
-0.22640625000000003
 10
7.618000000000001
 20
-0.246
 10
6.988281250000002
 20
-0.22440625000000003
 10
5.784531250000001
 20
-0.05165625000000003
 10
4.65503125
 20
0.29384374999999996
 10
3.5997812500000004
 20
0.8120937500000001
 10
3.1
 20
1.136
 10
2.8624062500000003
 20
1.3126562499999999
 10
2.4346562499999997
 20
1.6879062500000004
 10
2.07015625
 20
2.0924062500000007
 10
1.76890625
 20
2.52615625
 10
1.5309062500000001
 20
2.98915625
 10
1.3561562500000002
 20
3.48140625
 10
1.24465625
 20
4.00290625
 10
1.19640625
 20
4.55365625
 10
1.196
 20
4.84
 10
1.218
 20
4.91
 10
3.422
 20
4.91
 10
3.44084375
 20
4.512250000000001
 10
3.59159375
 20
3.7902500000000003
 10
3.8930937500000002
 20
3.1662500000000002
 10
4.3453437500000005
 20
2.6402500000000004
 10
4.628
 20
2.414
 10
4.93896875
 20
2.213375
 10
5.614718750000001
 20
1.892375
 10
6.362218750000001
 20
1.678375
 10
7.181468750000002
 20
1.5713750000000002
 10
7.618000000000001
 20
1.558
 10
8.043125000000002
 20
1.56953125
 10
8.825125
 20
1.66178125
 10
9.516125
 20
1.8462812499999999
 10
10.116125
 20
2.12303125
 10
10.382
 20
2.296
 10
10.6210625
 20
2.4891875
 10
11.003562500000001
 20
2.9246874999999997
 10
11.2585625
 20
3.4256875000000004
 10
11.386062500000001
 20
3.9921875
 10
11.402000000000001
 20
4.3
 10
11.38828125
 20
4.587062500000001
 10
11.27853125
 20
5.125562500000001
 10
11.059031249999999
 20
5.616562500000001
 10
10.729781250000002
 20
6.060062500000001
  0
LWPOLYLINE
  5
3E
330
17
100
AcDbEntity
  8
0
 62
1
100
AcDbPolyline
 90
19
 70
0
 10
64.36800000000001
 20
17.062
 10
64.36800000000001
 20
0.0
 10
62.06
 20
0.0
 10
62.06
 20
6.75
 10
62.29400000000001
 20
13.688
 10
62.236000000000004
 20
13.700000000000001
 10
56.70400000000001
 20
0.0
 10
55.17000000000001
 20
0.0
 10
49.662000000000006
 20
13.664
 10
49.604000000000006
 20
13.652
 10
49.82600000000001
 20
6.75
 10
49.82600000000001
 20
0.0
 10
47.51800000000001
 20
0.0
 10
47.51800000000001
 20
17.062
 10
50.470000000000006
 20
17.062
 10
55.90800000000001
 20
3.2
 10
55.97800000000001
 20
3.2
 10
61.41600000000001
 20
17.062
 10
64.36800000000001
 20
17.062
  0
LWPOLYLINE
  5
3F
330
17
100
AcDbEntity
  8
0
 62
0
100
AcDbPolyline
 90
141
 70
0
 10
-7.980205683954728
 20
-19.942216720066362
 10
-9.145083864193538
 20
-19.769423364838765
 10
-10.287416127053547
 20
-19.483284028786507
 10
-11.396201188381077
 20
-19.08655439013544
 10
-12.460760841911974
 20
-18.58305517218026
 10
-13.470842796235225
 20
-17.977635347630546
 10
-14.416719409963745
 20
-17.276125440352846
 10
-15.28928137423857
 20
-16.48528137423857
 10
-16.080125440352845
 20
-15.612719409963745
 10
-16.781635347630544
 20
-14.666842796235226
 10
-17.38705517218026
 20
-13.656760841911975
 10
-17.890554390135442
 20
-12.592201188381079
 10
-18.28728402878651
 20
-11.483416127053548
 10
-18.573423364838767
 20
-10.341083864193543
 10
-18.746216720066364
 20
-9.17620568395473
 10
-18.804000000000002
 20
-8.0
 10
-18.804000000000002
 20
24.0
 10
-18.746216720066364
 20
25.17620568395473
 10
-18.573423364838767
 20
26.341083864193543
 10
-18.28728402878651
 20
27.483416127053548
 10
-17.890554390135442
 20
28.59220118838108
 10
-17.38705517218026
 20
29.656760841911975
 10
-16.781635347630544
 20
30.666842796235226
 10
-16.080125440352845
 20
31.612719409963745
 10
-15.28928137423857
 20
32.48528137423857
 10
-14.416719409963745
 20
33.27612544035284
 10
-13.470842796235225
 20
33.977635347630546
 10
-12.460760841911974
 20
34.58305517218026
 10
-11.396201188381077
 20
35.08655439013544
 10
-10.287416127053547
 20
35.48328402878651
 10
-9.145083864193538
 20
35.769423364838765
 10
-7.980205683954728
 20
35.94221672006636
 10
-6.804
 20
36.0
 10
29.92
 20
36.0
 10
29.92
 20
42.0
 10
29.944076366639017
 20
42.49008570164781
 10
30.016073597983848
 20
42.97545161008064
 10
30.135298321338958
 20
43.45142338627231
 10
30.300602337443568
 20
43.91341716182545
 10
30.510393678258225
 20
44.356983684129986
 10
30.762651938487274
 20
44.777851165098014
 10
31.054947733186317
 20
45.17196642081823
 10
31.384466094067264
 20
45.53553390593274
 10
31.748033579181776
 20
45.865052266813684
 10
32.14214883490199
 20
46.15734806151273
 10
32.563016315870016
 20
46.40960632174178
 10
33.00658283817455
 20
46.61939766255644
 10
33.46857661372769
 20
46.784701678661044
 10
33.94454838991936
 20
46.903926402016154
 10
34.4299142983522
 20
46.975923633360985
 10
34.92
 20
47.0
 10
40.92
 20
47.0
 10
41.41008570164781
 20
46.975923633360985
 10
41.89545161008064
 20
46.903926402016154
 10
42.37142338627231
 20
46.784701678661044
 10
42.83341716182545
 20
46.61939766255644
 10
43.27698368412999
 20
46.40960632174178
 10
43.697851165098015
 20
46.15734806151273
 10
44.09196642081823
 20
45.865052266813684
 10
44.45553390593274
 20
45.53553390593274
 10
44.785052266813686
 20
45.17196642081823
 10
45.07734806151273
 20
44.777851165098014
 10
45.32960632174178
 20
44.356983684129986
 10
45.53939766255644
 20
43.91341716182545
 10
45.704701678661046
 20
43.45142338627231
 10
45.823926402016156
 20
42.97545161008064
 10
45.89592363336099
 20
42.49008570164781
 10
45.92
 20
42.0
 10
45.92
 20
36.0
 10
89.92
 20
36.0
 10
89.92
 20
42.0
 10
89.94407636663902
 20
42.49008570164781
 10
90.01607359798385
 20
42.97545161008064
 10
90.13529832133895
 20
43.45142338627231
 10
90.30060233744356
 20
43.91341716182545
 10
90.51039367825823
 20
44.356983684129986
 10
90.76265193848728
 20
44.777851165098014
 10
91.05494773318631
 20
45.17196642081823
 10
91.38446609406726
 20
45.53553390593274
 10
91.74803357918178
 20
45.865052266813684
 10
92.14214883490199
 20
46.15734806151273
 10
92.56301631587002
 20
46.40960632174178
 10
93.00658283817455
 20
46.61939766255644
 10
93.46857661372769
 20
46.784701678661044
 10
93.94454838991936
 20
46.903926402016154
 10
94.4299142983522
 20
46.975923633360985
 10
94.92
 20
47.0
 10
100.92
 20
47.0
 10
101.4100857016478
 20
46.975923633360985
 10
101.89545161008064
 20
46.903926402016154
 10
102.37142338627231
 20
46.784701678661044
 10
102.83341716182545
 20
46.61939766255644
 10
103.27698368412999
 20
46.40960632174178
 10
103.69785116509802
 20
46.15734806151273
 10
104.09196642081822
 20
45.865052266813684
 10
104.45553390593274
 20
45.53553390593274
 10
104.7850522668137
 20
45.17196642081823
 10
105.07734806151272
 20
44.777851165098014
 10
105.32960632174178
 20
44.356983684129986
 10
105.53939766255644
 20
43.91341716182545
 10
105.70470167866105
 20
43.45142338627231
 10
105.82392640201616
 20
42.97545161008064
 10
105.89592363336098
 20
42.49008570164781
 10
105.92
 20
42.0
 10
105.92
 20
36.0
 10
142.644
 20
36.0
 10
143.82020568395473
 20
35.94221672006636
 10
144.98508386419354
 20
35.769423364838765
 10
146.12741612705355
 20
35.48328402878651
 10
147.23620118838107
 20
35.08655439013544
 10
148.30076084191197
 20
34.58305517218026
 10
149.31084279623522
 20
33.97763534763054
 10
150.25671940996375
 20
33.27612544035284
 10
151.1292813742386
 20
32.48528137423857
 10
151.92012544035285
 20
31.612719409963745
 10
152.62163534763056
 20
30.666842796235226
 10
153.22705517218026
 20
29.65676084191197
 10
153.73055439013544
 20
28.592201188381075
 10
154.1272840287865
 20
27.483416127053548
 10
154.41342336483876
 20
26.34108386419354
 10
154.58621672006637
 20
25.176205683954727
 10
154.644
 20
24.0
 10
154.644
 20
-8.0
 10
154.58621672006637
 20
-9.176205683954729
 10
154.41342336483876
 20
-10.34108386419354
 10
154.1272840287865
 20
-11.483416127053548
 10
153.73055439013544
 20
-12.592201188381077
 10
153.22705517218026
 20
-13.656760841911973
 10
152.62163534763056
 20
-14.666842796235226
 10
151.92012544035285
 20
-15.612719409963745
 10
151.1292813742386
 20
-16.485281374238568
 10
150.25671940996375
 20
-17.276125440352843
 10
149.31084279623522
 20
-17.977635347630542
 10
148.30076084191197
 20
-18.58305517218026
 10
147.23620118838107
 20
-19.08655439013544
 10
146.12741612705355
 20
-19.483284028786507
 10
144.98508386419354
 20
-19.769423364838765
 10
143.82020568395473
 20
-19.942216720066362
 10
142.644
 20
-20.0
 10
-6.804
 20
-20.0
 10
-7.980205683954728
 20
-19.942216720066362
  0
LWPOLYLINE
  5
40
330
17
100
AcDbEntity
  8
0
 62
0
100
AcDbPolyline
 90
5
 70
0
 10
40.92
 20
30.0
 10
40.92
 20
42.0
 10
34.92
 20
42.0
 10
34.92
 20
30.0
 10
40.92
 20
30.0
  0
LWPOLYLINE
  5
41
330
17
100
AcDbEntity
  8
0
 62
0
100
AcDbPolyline
 90
5
 70
0
 10
100.92
 20
30.0
 10
100.92
 20
42.0
 10
94.92
 20
42.0
 10
94.92
 20
30.0
 10
100.92
 20
30.0
  0
LWPOLYLINE
  5
42
330
17
100
AcDbEntity
  8
0
 62
0
100
AcDbPolyline
 90
346
 70
0
 10
42.0
 20
138.0
 10
30.0
 20
138.0
 10
12.0
 20
138.0
 10
0.0
 20
138.0
 10
0.0
 20
150.0
 10
0.0
 20
178.0
 10
12.0
 20
178.0
 10
12.0
 20
150.0
 10
30.0
 20
150.0
 10
30.0
 20
198.0
 10
42.0
 20
198.0
 10
42.0
 20
197.99927318196816
 10
42.01527160721031
 20
197.99997667774693
 10
42.198530038930656
 20
197.99941694497863
 10
42.22907268348357
 20
197.99923036825948
 10
42.41232427682064
 20
197.99755119084134
 10
42.442865211790846
 20
197.99717804436526
 10
42.62610312861651
 20
197.9943794849566
 10
42.65664121435315
 20
197.99381978264773
 10
42.839858617049664
 20
197.98990194567833
 10
42.870392714009085
 20
197.98915570842223
 10
43.053582765724165
 20
197.98411874008812
 10
43.084111734509655
 20
197.98318599573105
 10
43.26726759941167
 20
197.97703008398935
 10
43.29779030081944
 20
197.97591086733718
 10
43.48090514435242
 20
197.96863624189893
 10
43.51142043941245
 20
197.96733059471572
 10
43.69448742855118
 20
197.9589375270373
 10
43.72499417856835
 20
197.95744549804405
 10
43.90800648207333
 20
197.9479343013172
 10
43.938503548673985
 20
197.94625594618964
 10
44.121454337346314
 20
197.93562697532948
 10
44.15194058251479
 20
197.93376235669643
 10
44.33482302945105
 20
197.92201600832863
 10
44.36529731557902
 20
197.91996519576918
 10
44.54810459642601
 20
197.9071019082147
 10
44.57856578634878
 20
197.90486497825606
 10
44.76129107955811
 20
197.89088523151526
 10
44.791738036600556
 20
197.8884622676296
 10
44.974374523683295
 20
197.87336658336386
 10
45.00480611170213
 20
197.8707576759653
 10
45.18734697748318
 20
197.85454661747798
 10
45.21776206090722
 20
197.85175186391928
 10
45.40020049377963
 20
197.83442603613437
 10
45.43059793765469
 20
197.83144554070324
 10
45.612927129833864
 20
197.81300559014298
 10
45.64330579986325
 20
197.80983946405814
 10
45.825518947640944
 20
197.79028607881884
 10
45.855877710229564
 20
197.78693444022585
 10
46.03796801422783
 20
197.7662683499522
 10
46.06830573652165
 20
197.7627313239193
 10
46.250266401946455
 20
197.7409532997772
 10
46.28058195187833
 20
197.7372310182903
 10
46.46240618877324
 20
197.71434187293795
 10
46.49269843510293
 20
197.71043447489586
 10
46.674379458602374
 20
197.68643506245363
 10
46.704647270958766
 20
197.68234269366295
 10
46.886178301541236
 20
197.65723390968128
 10
46.9164205504648
 20
197.65295672285097
 10
47.09779481420591
 20
197.6267395042772
 10
47.12801037119214
 20
197.62227765901258
 10
47.30922110001729
 20
197.59495298415575
 10
47.339408837556796
 20
197.59030664695294
 10
47.5204492694938
 20
197.56187553544746
 10
47.550608061115206
 20
197.55704487968694
 10
47.731471440546585
 20
197.52750839245448
 10
47.76160016085946
 20
197.52249359839465
 10
47.94227973877455
 20
197.49185283760448
 10
47.97237726350961
 20
197.48665409237503
 10
48.15286629775638
 20
197.45491020140307
 10
48.182931503809506
 20
197.44952769899777
 10
48.36322325934617
 20
197.4166818623837
 10
48.393255024818004
 20
197.41111580365356
 10
48.57334277396435
 20
197.37716924705677
 10
48.60333997820462
 20
197.371419839702
 10
48.78321700089302
 20
197.33637382985586
 10
48.81317852453982
 20
197.3304412884187
 10
48.992838108566
 20
197.29429713308326
 10
49.02276283358982
 20
197.28818167893954
 10
49.20219827486338
 20
197.2509407268526
 10
49.23208508460816
 20
197.24464258820353
 10
49.41128968740266
 20
197.20630622903056
 10
49.441137466625946
 20
197.1998256408946
 10
49.62010454382883
 20
197.16039530517665
 10
49.649912178745254
 20
197.1537325093803
 10
49.828635052107366
 20
197.1132096684808
 10
49.85840143043047
 20
197.10636491364954
 10
50.03687343081522
 20
197.06475107969925
 10
50.06659744179579
 20
197.05772462124898
 10
50.24481190942806
 20
197.01502134708971
 10
50.27449244390046
 20
197.00781344721605
 10
50.45244272861509
 20
196.9640223263426
 10
50.4820786790344
 20
196.9566332540122
 10
50.65975814052437
 20
196.91175592051283
 10
50.68934840100938
 20
196.90418595145283
 10
50.86675040907356
 20
196.85822407994857
 10
50.89629387544878
 20
196.85047349663617
 10
51.07341181023935
 20
196.80342880221804
 10
51.10290738007492
 20
196.79549789387033
 10
51.27973463234444
 20
196.74737213203545
 10
51.30918120499828
 20
196.73926119459824
 10
51.48571117634624
 20
196.69005616118434
 10
51.51510765300335
 20
196.68176549732175
 10
51.69133375612245
 20
196.63148302844013
 10
51.72067903983898
 20
196.62301294752228
 10
51.89659469876093
 20
196.57165491948933
 10
51.92588769450176
 20
196.56300573758188
 10
52.10148634484263
 20
196.51057406684902
 10
52.13072595952493
 20
196.50174610670052
 10
52.306001048730145
 20
196.44824274978268
 10
52.33518619126217
 20
196.43923634081315
 10
52.510131178851
 20
196.3846632942158
 10
52.53926076017447
 20
196.37547877250395
 10
52.71386911798411
 20
196.3198380726486
 10
52.742942051113374
 20
196.31047578091966
 10
52.91720726354252
 20
196.2537695040678
 10
52.94622246360587
 20
196.24422979168062
 10
53.12013802785786
 20
196.18646005385636
 10
53.14909441213818
 20
196.1767432767902
 10
53.32265383846371
 20
196.11791223370125
 10
53.351550326438876
 20
196.10801875454254
 10
53.524747138378004
 20
196.0481286014997
 10
53.553582651759825
 20
196.03805878942904
 10
53.726410386383854
 20
195.97711176126444
 10
53.755183849161035
 20
195.96686599204176
 10
53.92763605731355
 20
195.90486436302524
 10
53.95634639578904
 20
195.89444301897692
 10
54.128416642326556
 20
195.83138910273144
 10
54.15706278515928
 20
195.82079257273523
 10
54.32874464919146
 20
195.7566887221503
 10
54.35732552743564
 20
195.74591740162128
 10
54.5286126025648
 20
195.68076600876532
 10
54.55712714971021
 20
195.66982029964086
 10
54.72801304427044
 20
195.6036237956718
 10
54.75646019628203
 20
195.59250410639675
 10
54.92693853357767
 20
195.5252649614714
 10
54.95531722893543
 20
195.5139717069826
 10
55.12538164747904
 20
195.44569243016454
 10
55.15369082721687
 20
195.43422603187574
 10
55.323334980966614
 20
195.36490917104152
 10
55.35157358871315
 20
195.35327005682723
 10
55.52079114730954
 20
195.2829181985714
 10
55.54895812932625
 20
195.27110680275126
 10
55.71774277832847
 20
195.19972257228986
 10
55.74583708354982
 20
195.18773933561226
 10
55.9141825246713
 20
195.1153253966848
 10
55.942203104743896
 20
195.10317076631037
 10
56.11010305608728
 20
195.02972982108048
 10
56.13804886540892
 20
195.01740425056542
 10
56.3054970617006
 20
194.94293903952
 10
56.33336705745827
 20
194.93044298879965
 10
56.500357250282065
 20
194.85495629064664
 10
56.5281503924931
 20
194.84229022601733
 10
56.69467635052348
 20
194.76578485758193
 10
56.72239160207192
 20
194.7529492516846
 10
56.88844711130654
 20
194.6754280678043
 10
56.91608343798384
 20
194.66242339960604
 10
57.08166230197537
 20
194.5838892930239
 10
57.10921867251712
 20
194.57071604780094
 10
57.274314712604486
 20
194.49117194905787
 10
57.30179009873082
 20
194.47783061837646
 10
57.46639715426979
 20
194.3972794957017
 10
57.49379053072275
 20
194.38377057740038
 10
57.6579024593158
 20
194.30221543660076
 10
57.68521280389663
 20
194.28853943477216
 10
57.84882348162216
 20
194.20598331912004
 10
57.8760497752317
 20
194.19214074409098
 10
58.039153096872525
 20
194.10858673421055
 10
58.06629432354757
 20
194.0945781025239
 10
58.22888420281879
 20
194.01002931627627
 10
58.255939349769974
 20
193.99585515067162
 10
58.41800971954603
 20
193.91031474303858
 10
58.44497777719701
 20
193.89597557243195
 10
58.606522589738134
 20
193.8094467353981
 10
58.63340255176177
 20
193.79494309486319
 10
58.79441577893959
 20
193.70742905729688
 10
58.82120664229579
 20
193.6927614880447
 10
58.981682275818386
 20
193.6042655155776
 10
59.00838304079268
 20
193.58943456493586
 10
59.16831509242865
 20
193.49995995984096
 10
59.19492476266808
 20
193.4849661812343
 10
59.3543072644701
 20
193.3945162823029
 10
59.38082484702076
 20
193.3793602352321
 10
59.539651851548236
 20
193.28793841764897
 10
59.566076356893156
 20
193.27262066766957
 10
59.724341937434154
 20
193.1802303428872
 10
59.75067237952891
 20
193.16475146158916
 10
59.90837063032133
 20
193.07139607720035
 10
59.934606026632224
 20
193.0557566421859
 10
60.091731063084175
 20
192.96143968179518
 10
60.11787043462315
 20
192.94564027665837
 10
60.274416393532526
 20
192.85036525975192
 10
60.30045876489623
 20
192.83440647405524
 10
60.45641980466948
 20
192.7381769558697
 10
60.48236420407297
 20
192.72205938512366
 10
60.637734504943154
 20
192.62487895651333
 10
60.66357996425718
 20
192.6086032021538
 10
60.81835372850104
 20
192.51047548945672
 10
60.844099283289985
 20
192.49404215882126
 10
60.99827073544434
 20
192.39497082372384
 10
61.023915424998705
 20
192.37838053003114
 10
61.177478812076004
 20
192.27836926943152
 10
61.203021679451126
 20
192.26162263175686
 10
61.35597127115403
 20
192.16067517762707
 10
61.38141136320455
 20
192.14377282087997
 10
61.53374145213984
 20
192.0418929401265
 10
61.559077819555746
 20
192.024835495027
 10
61.71078272144727
 20
191.92202698935037
 10
61.73601441878858
 20
191.90481509240607
 10
61.88708847268935
 20
191.80108179815892
 10
61.91221455842226
 20
191.78371609164066
 10
62.06265212692572
 20
191.6790618796846
 10
62.451214199208046
 20
191.3794234602958
 10
62.80853553790616
 20
191.04314213863023
 10
63.13117494319668
 20
190.6734564876456
 10
63.41602522123402
 20
190.2739267822516
 10
63.66034310812569
 20
189.84840071191638
 10
63.86177568906315
 20
189.40097632531342
 10
64.01838305817776
 20
188.9359625638728
 10
64.12865700089462
 20
188.45783776431955
 10
64.19153551886352
 20
187.971206529843
 10
64.2064130575835
 20
187.4807553852508
 10
64.17314633822383
 20
186.99120764317328
 10
64.09205573747735
 20
186.50727791598064
 10
63.96392220215791
 20
186.03362671148867
 10
63.789979728255524
 20
185.5748155497207
 10
63.571903476880514
 20
185.13526303297624
 10
63.31179364154623
 20
184.7192022922754
 10
63.01215522215743
 20
184.3306402199931
 10
62.67587390049186
 20
183.97331888129497
 10
62.30618824950722
 20
183.65067947600446
 10
61.906658544113235
 20
183.36582919796712
 10
61.481132473778
 20
183.12151131107544
 10
61.03370808717505
 20
182.920078730138
 10
60.56869432573443
 20
182.7634713610234
 10
60.09056952618118
 20
182.65319741830652
 10
59.60393829170461
 20
182.59031890033762
 10
59.113487147112416
 20
182.57544136161764
 10
58.623939405034896
 20
182.6087080809773
 10
58.140009677842265
 20
182.68979868172377
 10
57.66635847335029
 20
182.81793221704322
 10
57.207547311582324
 20
182.99187469094562
 10
56.767994794837875
 20
183.20995094232063
 10
56.35193405413704
 20
183.4700607776549
 10
56.2140330081509
 20
183.56599376460198
 10
56.088138080681254
 20
183.65243809583046
 10
55.961717447041835
 20
183.73811177063666
 10
55.83477582468471
 20
183.82301159206253
 10
55.70731795050519
 20
183.90713439202534
 10
55.579348580655584
 20
183.9904770314421
 10
55.45087249038171
 20
184.07303640033737
 10
55.32189447383491
 20
184.15480941796588
 10
55.19241934389653
 20
184.23579303292524
 10
55.062451931998524
 20
184.31598422326962
 10
54.93199708794048
 20
184.39537999662429
 10
54.801059679715415
 20
184.47397739029302
 10
54.66964459331882
 20
184.55177347137442
 10
54.53775673257161
 20
184.62876533686807
 10
54.405401018938385
 20
184.7049501137822
 10
54.272582391343796
 20
184.78032495924083
 10
54.13930580598032
 20
184.85488706059456
 10
54.00557623613334
 20
184.9286336355196
 10
53.87139867199227
 20
185.00156193212362
 10
53.73677812046175
 20
185.07366922904984
 10
53.601719604977205
 20
185.14495283557721
 10
53.46622816531719
 20
185.21541009172097
 10
53.33030885741438
 20
185.28503836833244
 10
53.193966753169946
 20
185.35383506719546
 10
53.05720694025785
 20
185.42179762112676
 10
52.92003452194381
 20
185.48892349406717
 10
52.78245461688393
 20
185.55521018118185
 10
52.64447235894857
 20
185.62065520894635
 10
52.50609289701284
 20
185.68525613524758
 10
52.36732139477942
 20
185.74901054946787
 10
52.228163030579424
 20
185.81191607257793
 10
52.088622997181126
 20
185.8739703572248
 10
51.94870650158835
 20
185.93517108782282
 10
51.80841876486078
 20
185.99551598063366
 10
51.66776502190735
 20
186.0550027838566
 10
51.526750521294865
 20
186.113629277711
 10
51.385380525054764
 20
186.17139327451792
 10
51.24366030847794
 20
186.22829261878542
 10
51.101595159930284
 20
186.2843251872839
 10
50.959190380646
 20
186.3394888891293
 10
50.816451284531674
 20
186.39378166586008
 10
50.67338319797239
 20
186.4472014915124
 10
50.52999145962736
 20
186.49974637269804
 10
50.38628142023358
 20
186.55141434867758
 10
50.24225844240512
 20
186.60220349143384
 10
50.09792790043444
 20
186.65211190574357
 10
49.95329518009012
 20
186.7011377292485
 10
49.80836567841816
 20
186.74927913252426
 10
49.663144803535324
 20
186.79653431915037
 10
49.51763797443772
 20
186.84290152577373
 10
49.37185062078502
 20
186.888379022179
 10
49.22578818270756
 20
186.93296511134997
 10
49.079456110602536
 20
186.97665812953306
 10
48.93285986492645
 20
187.01945644630084
 10
48.786004915994354
 20
187.0613584646119
 10
48.63889674377382
 20
187.10236262087102
 10
48.49154083768467
 20
187.14246738498622
 10
48.343942696385064
 20
187.18167126042852
 10
48.19610782757931
 20
187.21997278428407
 10
48.0480417478013
 20
187.257370527312
 10
47.89974998221367
 20
187.293863093996
 10
47.751238064400134
 20
187.3294491225972
 10
47.60251153615777
 20
187.364127285205
 10
47.45357594729831
 20
187.39789628778473
 10
47.30443685542673
 20
187.4307548702295
 10
47.15509982574728
 20
187.4627018064038
 10
47.005570430847285
 20
187.49373590419145
 10
46.855854250495334
 20
187.52385600553873
 10
46.70595687142777
 20
187.55306098649845
 10
46.55588388714021
 20
187.58134975727222
 10
46.40564089768759
 20
187.60872126224916
 10
46.25523350946421
 20
187.6351744800475
 10
46.10466733499657
 20
187.6607084235523
 10
45.9539479927423
 20
187.6853221399507
 10
45.80308110687126
 20
187.70901471076922
 10
45.6520723070586
 20
187.73178525190744
 10
45.50092722827693
 20
187.75363291367069
 10
45.34965151058358
 20
187.77455688080204
 10
45.19825079890751
 20
187.79455637251328
 10
45.04673074284789
 20
187.81363064251252
 10
44.89509699645237
 20
187.83177897903377
 10
44.74335521801317
 20
187.84900070486236
 10
44.591511069852636
 20
187.8652951773608
 10
44.43957021811429
 20
187.88066178849232
 10
44.28753833255168
 20
187.89509996484364
 10
44.13542108630994
 20
187.9086091676471
 10
43.98322415572475
 20
187.92118889279965
 10
43.83095322010264
 20
187.93283867088235
 10
43.67861396151425
 20
187.9435580671776
 10
43.52621206457454
 20
187.95334668168576
 10
43.373753216243635
 20
187.96220414913938
 10
43.2212431055988
 20
187.97013013901767
 10
43.06868742363437
 20
187.97712435555817
 10
42.91609186304535
 20
187.983186537768
 10
42.763462118016065
 20
187.9883164594337
 10
42.61080388400007
 20
187.9925139291297
 10
42.458122857521836
 20
187.9957787902251
 10
42.30542473595133
 20
187.99811092089
 10
42.152715217300084
 20
187.99951023409972
 10
42.0
 20
187.99997667763813
 10
42.0
 20
150.0
 10
42.0
 20
138.0
  0
LWPOLYLINE
  5
43
330
17
100
AcDbEntity
  8
0
 62
0
100
AcDbPolyline
 90
346
 70
0
 10
42.0
 20
200.0
 10
30.0
 20
200.0
 10
12.0
 20
200.0
 10
0.0
 20
200.0
 10
0.0
 20
212.0
 10
0.0
 20
240.0
 10
12.0
 20
240.0
 10
12.0
 20
212.0
 10
30.0
 20
212.0
 10
30.0
 20
260.0
 10
42.0
 20
260.0
 10
42.0
 20
259.9992731819682
 10
42.01527160721031
 20
259.99997667774693
 10
42.198530038930656
 20
259.99941694497863
 10
42.22907268348357
 20
259.9992303682595
 10
42.41232427682064
 20
259.99755119084136
 10
42.442865211790846
 20
259.9971780443652
 10
42.62610312861651
 20
259.9943794849566
 10
42.65664121435315
 20
259.99381978264773
 10
42.839858617049664
 20
259.9899019456783
 10
42.870392714009085
 20
259.98915570842223
 10
43.053582765724165
 20
259.9841187400881
 10
43.084111734509655
 20
259.98318599573105
 10
43.26726759941167
 20
259.97703008398935
 10
43.29779030081944
 20
259.9759108673372
 10
43.48090514435242
 20
259.96863624189893
 10
43.51142043941245
 20
259.96733059471575
 10
43.69448742855118
 20
259.95893752703734
 10
43.72499417856835
 20
259.9574454980441
 10
43.90800648207333
 20
259.94793430131716
 10
43.938503548673985
 20
259.94625594618964
 10
44.121454337346314
 20
259.9356269753295
 10
44.15194058251479
 20
259.93376235669643
 10
44.33482302945105
 20
259.9220160083286
 10
44.36529731557902
 20
259.9199651957692
 10
44.54810459642601
 20
259.9071019082147
 10
44.57856578634878
 20
259.90486497825606
 10
44.76129107955811
 20
259.89088523151526
 10
44.791738036600556
 20
259.88846226762956
 10
44.974374523683295
 20
259.87336658336386
 10
45.00480611170213
 20
259.8707576759653
 10
45.18734697748318
 20
259.854546617478
 10
45.21776206090722
 20
259.8517518639193
 10
45.40020049377963
 20
259.83442603613435
 10
45.43059793765469
 20
259.8314455407032
 10
45.612927129833864
 20
259.813005590143
 10
45.64330579986325
 20
259.80983946405814
 10
45.825518947640944
 20
259.79028607881884
 10
45.855877710229564
 20
259.7869344402258
 10
46.03796801422783
 20
259.7662683499522
 10
46.06830573652165
 20
259.7627313239193
 10
46.250266401946455
 20
259.7409532997772
 10
46.28058195187833
 20
259.7372310182903
 10
46.46240618877324
 20
259.71434187293795
 10
46.49269843510293
 20
259.71043447489586
 10
46.674379458602374
 20
259.6864350624536
 10
46.704647270958766
 20
259.682342693663
 10
46.886178301541236
 20
259.6572339096813
 10
46.9164205504648
 20
259.652956722851
 10
47.09779481420591
 20
259.6267395042772
 10
47.12801037119214
 20
259.6222776590126
 10
47.30922110001729
 20
259.5949529841557
 10
47.339408837556796
 20
259.5903066469529
 10
47.5204492694938
 20
259.5618755354474
 10
47.550608061115206
 20
259.55704487968694
 10
47.731471440546585
 20
259.5275083924545
 10
47.76160016085946
 20
259.52249359839465
 10
47.94227973877455
 20
259.4918528376045
 10
47.97237726350961
 20
259.48665409237503
 10
48.15286629775638
 20
259.4549102014031
 10
48.182931503809506
 20
259.44952769899777
 10
48.36322325934617
 20
259.4166818623837
 10
48.393255024818004
 20
259.41111580365356
 10
48.57334277396435
 20
259.37716924705677
 10
48.60333997820462
 20
259.371419839702
 10
48.78321700089302
 20
259.33637382985586
 10
48.81317852453982
 20
259.33044128841874
 10
48.992838108566
 20
259.29429713308326
 10
49.02276283358982
 20
259.2881816789395
 10
49.20219827486338
 20
259.2509407268526
 10
49.23208508460816
 20
259.24464258820353
 10
49.41128968740266
 20
259.2063062290306
 10
49.441137466625946
 20
259.1998256408946
 10
49.62010454382883
 20
259.1603953051766
 10
49.649912178745254
 20
259.1537325093803
 10
49.828635052107366
 20
259.1132096684808
 10
49.85840143043047
 20
259.10636491364954
 10
50.03687343081522
 20
259.06475107969925
 10
50.06659744179579
 20
259.057724621249
 10
50.24481190942806
 20
259.0150213470897
 10
50.27449244390046
 20
259.00781344721605
 10
50.45244272861509
 20
258.9640223263426
 10
50.4820786790344
 20
258.95663325401216
 10
50.65975814052437
 20
258.91175592051286
 10
50.68934840100938
 20
258.90418595145286
 10
50.86675040907356
 20
258.85822407994857
 10
50.89629387544878
 20
258.8504734966362
 10
51.07341181023935
 20
258.80342880221804
 10
51.10290738007492
 20
258.79549789387033
 10
51.27973463234444
 20
258.7473721320355
 10
51.30918120499828
 20
258.73926119459827
 10
51.48571117634624
 20
258.6900561611844
 10
51.51510765300335
 20
258.68176549732175
 10
51.69133375612245
 20
258.63148302844013
 10
51.72067903983898
 20
258.6230129475223
 10
51.89659469876093
 20
258.57165491948933
 10
51.92588769450176
 20
258.5630057375819
 10
52.10148634484263
 20
258.510574066849
 10
52.13072595952493
 20
258.5017461067005
 10
52.306001048730145
 20
258.44824274978265
 10
52.33518619126217
 20
258.4392363408132
 10
52.510131178851
 20
258.3846632942158
 10
52.53926076017447
 20
258.375478772504
 10
52.71386911798411
 20
258.31983807264857
 10
52.742942051113374
 20
258.31047578091966
 10
52.91720726354252
 20
258.2537695040678
 10
52.94622246360587
 20
258.24422979168065
 10
53.12013802785786
 20
258.18646005385636
 10
53.14909441213818
 20
258.1767432767902
 10
53.32265383846371
 20
258.11791223370125
 10
53.351550326438876
 20
258.10801875454257
 10
53.524747138378004
 20
258.0481286014997
 10
53.553582651759825
 20
258.03805878942904
 10
53.726410386383854
 20
257.97711176126444
 10
53.755183849161035
 20
257.96686599204173
 10
53.92763605731355
 20
257.90486436302524
 10
53.95634639578904
 20
257.8944430189769
 10
54.128416642326556
 20
257.8313891027314
 10
54.15706278515928
 20
257.82079257273523
 10
54.32874464919146
 20
257.75668872215033
 10
54.35732552743564
 20
257.7459174016213
 10
54.5286126025648
 20
257.6807660087653
 10
54.55712714971021
 20
257.66982029964083
 10
54.72801304427044
 20
257.6036237956718
 10
54.75646019628203
 20
257.59250410639675
 10
54.92693853357767
 20
257.5252649614714
 10
54.95531722893543
 20
257.5139717069826
 10
55.12538164747904
 20
257.4456924301645
 10
55.15369082721687
 20
257.43422603187577
 10
55.323334980966614
 20
257.3649091710415
 10
55.35157358871315
 20
257.3532700568272
 10
55.52079114730954
 20
257.2829181985714
 10
55.54895812932625
 20
257.27110680275126
 10
55.71774277832847
 20
257.19972257228983
 10
55.74583708354982
 20
257.18773933561226
 10
55.9141825246713
 20
257.1153253966848
 10
55.942203104743896
 20
257.10317076631037
 10
56.11010305608728
 20
257.0297298210805
 10
56.13804886540892
 20
257.01740425056545
 10
56.3054970617006
 20
256.94293903952
 10
56.33336705745827
 20
256.93044298879965
 10
56.500357250282065
 20
256.85495629064667
 10
56.5281503924931
 20
256.8422902260173
 10
56.69467635052348
 20
256.76578485758193
 10
56.72239160207192
 20
256.7529492516846
 10
56.88844711130654
 20
256.6754280678043
 10
56.91608343798384
 20
256.66242339960604
 10
57.08166230197537
 20
256.5838892930239
 10
57.10921867251712
 20
256.57071604780094
 10
57.274314712604486
 20
256.4911719490579
 10
57.30179009873082
 20
256.47783061837646
 10
57.46639715426979
 20
256.3972794957017
 10
57.49379053072275
 20
256.38377057740036
 10
57.6579024593158
 20
256.30221543660076
 10
57.68521280389663
 20
256.28853943477213
 10
57.84882348162216
 20
256.20598331912004
 10
57.8760497752317
 20
256.192140744091
 10
58.039153096872525
 20
256.1085867342106
 10
58.06629432354757
 20
256.0945781025239
 10
58.22888420281879
 20
256.0100293162763
 10
58.255939349769974
 20
255.99585515067162
 10
58.41800971954603
 20
255.91031474303858
 10
58.44497777719701
 20
255.89597557243195
 10
58.606522589738134
 20
255.8094467353981
 10
58.63340255176177
 20
255.79494309486319
 10
58.79441577893959
 20
255.70742905729688
 10
58.82120664229579
 20
255.6927614880447
 10
58.981682275818386
 20
255.6042655155776
 10
59.00838304079268
 20
255.58943456493586
 10
59.16831509242865
 20
255.49995995984096
 10
59.19492476266808
 20
255.4849661812343
 10
59.3543072644701
 20
255.3945162823029
 10
59.38082484702076
 20
255.3793602352321
 10
59.539651851548236
 20
255.28793841764897
 10
59.566076356893156
 20
255.27262066766957
 10
59.724341937434154
 20
255.1802303428872
 10
59.75067237952891
 20
255.16475146158916
 10
59.90837063032133
 20
255.07139607720035
 10
59.934606026632224
 20
255.0557566421859
 10
60.091731063084175
 20
254.96143968179518
 10
60.11787043462315
 20
254.94564027665837
 10
60.274416393532526
 20
254.85036525975192
 10
60.30045876489623
 20
254.83440647405524
 10
60.45641980466948
 20
254.7381769558697
 10
60.48236420407297
 20
254.72205938512366
 10
60.637734504943154
 20
254.62487895651333
 10
60.66357996425718
 20
254.6086032021538
 10
60.81835372850104
 20
254.51047548945672
 10
60.844099283289985
 20
254.49404215882126
 10
60.99827073544434
 20
254.39497082372384
 10
61.023915424998705
 20
254.37838053003114
 10
61.177478812076004
 20
254.27836926943152
 10
61.203021679451126
 20
254.26162263175686
 10
61.35597127115403
 20
254.16067517762707
 10
61.38141136320455
 20
254.14377282087997
 10
61.53374145213984
 20
254.0418929401265
 10
61.559077819555746
 20
254.024835495027
 10
61.71078272144727
 20
253.92202698935037
 10
61.73601441878858
 20
253.90481509240607
 10
61.88708847268935
 20
253.80108179815892
 10
61.91221455842226
 20
253.78371609164066
 10
62.06265212692572
 20
253.6790618796846
 10
62.451214199208046
 20
253.3794234602958
 10
62.80853553790616
 20
253.04314213863023
 10
63.13117494319668
 20
252.6734564876456
 10
63.41602522123402
 20
252.2739267822516
 10
63.66034310812569
 20
251.84840071191638
 10
63.86177568906315
 20
251.40097632531342
 10
64.01838305817776
 20
250.9359625638728
 10
64.12865700089462
 20
250.45783776431955
 10
64.19153551886352
 20
249.971206529843
 10
64.2064130575835
 20
249.4807553852508
 10
64.17314633822383
 20
248.99120764317328
 10
64.09205573747735
 20
248.50727791598064
 10
63.96392220215791
 20
248.03362671148867
 10
63.789979728255524
 20
247.5748155497207
 10
63.571903476880514
 20
247.13526303297624
 10
63.31179364154623
 20
246.7192022922754
 10
63.01215522215743
 20
246.3306402199931
 10
62.67587390049186
 20
245.97331888129497
 10
62.30618824950722
 20
245.65067947600446
 10
61.906658544113235
 20
245.36582919796712
 10
61.481132473778
 20
245.12151131107544
 10
61.03370808717505
 20
244.920078730138
 10
60.56869432573443
 20
244.7634713610234
 10
60.09056952618118
 20
244.65319741830652
 10
59.60393829170461
 20
244.59031890033762
 10
59.113487147112416
 20
244.57544136161764
 10
58.623939405034896
 20
244.6087080809773
 10
58.140009677842265
 20
244.68979868172377
 10
57.66635847335029
 20
244.81793221704322
 10
57.207547311582324
 20
244.99187469094562
 10
56.767994794837875
 20
245.20995094232063
 10
56.35193405413704
 20
245.4700607776549
 10
56.2140330081509
 20
245.56599376460198
 10
56.088138080681254
 20
245.65243809583046
 10
55.961717447041835
 20
245.73811177063666
 10
55.83477582468471
 20
245.82301159206253
 10
55.70731795050519
 20
245.90713439202534
 10
55.579348580655584
 20
245.9904770314421
 10
55.45087249038171
 20
246.07303640033737
 10
55.32189447383491
 20
246.15480941796588
 10
55.19241934389653
 20
246.23579303292524
 10
55.062451931998524
 20
246.31598422326962
 10
54.93199708794048
 20
246.39537999662429
 10
54.801059679715415
 20
246.47397739029302
 10
54.66964459331882
 20
246.55177347137442
 10
54.53775673257161
 20
246.62876533686807
 10
54.405401018938385
 20
246.7049501137822
 10
54.272582391343796
 20
246.78032495924083
 10
54.13930580598032
 20
246.85488706059456
 10
54.00557623613334
 20
246.9286336355196
 10
53.87139867199227
 20
247.00156193212362
 10
53.73677812046175
 20
247.07366922904984
 10
53.601719604977205
 20
247.14495283557721
 10
53.46622816531719
 20
247.21541009172097
 10
53.33030885741438
 20
247.28503836833244
 10
53.193966753169946
 20
247.35383506719546
 10
53.05720694025785
 20
247.42179762112676
 10
52.92003452194381
 20
247.48892349406717
 10
52.78245461688393
 20
247.55521018118185
 10
52.64447235894857
 20
247.62065520894635
 10
52.50609289701284
 20
247.68525613524758
 10
52.36732139477942
 20
247.74901054946787
 10
52.228163030579424
 20
247.81191607257793
 10
52.088622997181126
 20
247.8739703572248
 10
51.94870650158835
 20
247.93517108782282
 10
51.80841876486078
 20
247.99551598063366
 10
51.66776502190735
 20
248.0550027838566
 10
51.526750521294865
 20
248.113629277711
 10
51.385380525054764
 20
248.17139327451792
 10
51.24366030847794
 20
248.22829261878542
 10
51.101595159930284
 20
248.2843251872839
 10
50.959190380646
 20
248.3394888891293
 10
50.816451284531674
 20
248.39378166586008
 10
50.67338319797239
 20
248.4472014915124
 10
50.52999145962736
 20
248.49974637269804
 10
50.38628142023358
 20
248.55141434867758
 10
50.24225844240512
 20
248.60220349143384
 10
50.09792790043444
 20
248.65211190574357
 10
49.95329518009012
 20
248.7011377292485
 10
49.80836567841816
 20
248.74927913252426
 10
49.663144803535324
 20
248.79653431915037
 10
49.51763797443772
 20
248.84290152577373
 10
49.37185062078502
 20
248.888379022179
 10
49.22578818270756
 20
248.93296511134997
 10
49.079456110602536
 20
248.97665812953306
 10
48.93285986492645
 20
249.01945644630084
 10
48.786004915994354
 20
249.0613584646119
 10
48.63889674377382
 20
249.10236262087102
 10
48.49154083768467
 20
249.14246738498622
 10
48.343942696385064
 20
249.18167126042852
 10
48.19610782757931
 20
249.21997278428407
 10
48.0480417478013
 20
249.257370527312
 10
47.89974998221367
 20
249.293863093996
 10
47.751238064400134
 20
249.3294491225972
 10
47.60251153615777
 20
249.364127285205
 10
47.45357594729831
 20
249.39789628778473
 10
47.30443685542673
 20
249.4307548702295
 10
47.15509982574728
 20
249.4627018064038
 10
47.005570430847285
 20
249.49373590419145
 10
46.855854250495334
 20
249.52385600553873
 10
46.70595687142777
 20
249.55306098649845
 10
46.55588388714021
 20
249.58134975727222
 10
46.40564089768759
 20
249.60872126224916
 10
46.25523350946421
 20
249.6351744800475
 10
46.10466733499657
 20
249.6607084235523
 10
45.9539479927423
 20
249.6853221399507
 10
45.80308110687126
 20
249.70901471076922
 10
45.6520723070586
 20
249.73178525190744
 10
45.50092722827693
 20
249.75363291367069
 10
45.34965151058358
 20
249.77455688080204
 10
45.19825079890751
 20
249.79455637251328
 10
45.04673074284789
 20
249.81363064251252
 10
44.89509699645237
 20
249.83177897903377
 10
44.74335521801317
 20
249.84900070486236
 10
44.591511069852636
 20
249.8652951773608
 10
44.43957021811429
 20
249.88066178849232
 10
44.28753833255168
 20
249.89509996484364
 10
44.13542108630994
 20
249.9086091676471
 10
43.98322415572475
 20
249.92118889279965
 10
43.83095322010264
 20
249.93283867088235
 10
43.67861396151425
 20
249.9435580671776
 10
43.52621206457454
 20
249.95334668168576
 10
43.373753216243635
 20
249.96220414913938
 10
43.2212431055988
 20
249.97013013901767
 10
43.06868742363437
 20
249.97712435555817
 10
42.91609186304535
 20
249.983186537768
 10
42.763462118016065
 20
249.9883164594337
 10
42.61080388400007
 20
249.9925139291297
 10
42.458122857521836
 20
249.9957787902251
 10
42.30542473595133
 20
249.99811092089
 10
42.152715217300084
 20
249.99951023409972
 10
42.0
 20
249.99997667763813
 10
42.0
 20
212.0
 10
42.0
 20
200.0
  0
LWPOLYLINE
  5
44
330
17
100
AcDbEntity
  8
0
 62
1
100
AcDbPolyline
 90
96
 70
0
 10
40.32087500000001
 20
75.85203125
 10
40.48787500000001
 20
77.23328125
 10
40.72271875000001
 20
78.17225781249999
 10
40.931468750000015
 20
78.7520703125
 10
41.18196875000001
 20
79.2949453125
 10
41.47421875000001
 20
79.80088281249999
 10
41.63600000000001
 20
80.03999999999999
 10
41.80698437500001
 20
80.2669296875
 10
42.17285937500001
 20
80.6768671875
 10
42.57060937500001
 20
81.0282421875
 10
43.00023437500001
 20
81.3210546875
 10
43.46173437500001
 20
81.5553046875
 10
43.955109375000006
 20
81.7309921875
 10
44.48035937500001
 20
81.8481171875
 10
45.03748437500001
 20
81.9066796875
 10
45.32800000000001
 20
81.914
 10
45.624937500000016
 20
81.90640625
 10
46.191437500000006
 20
81.84565625
 10
46.72143750000001
 20
81.72415625
 10
47.21493750000001
 20
81.54190625
 10
47.44800000000001
 20
81.428
 10
47.67175000000001
 20
81.2998125
 10
48.090750000000014
 20
81.00331249999999
 10
48.471750000000014
 20
80.6533125
 10
48.81475000000001
 20
80.2498125
 10
48.97200000000001
 20
80.028
 10
49.25200000000001
 20
81.68
 10
51.09200000000001
 20
81.68
 10
51.09200000000001
 20
68.93
 10
51.06984375000001
 20
68.3381875
 10
50.95352343750001
 20
67.516796875
 10
50.82058593750001
 20
67.013421875
 10
50.64333593750001
 20
66.545421875
 10
50.42177343750001
 20
66.112796875
 10
50.155898437500014
 20
65.715546875
 10
49.84571093750001
 20
65.353671875
 10
49.67400000000001
 20
65.186
 10
49.49185937500001
 20
65.027609375
 10
49.09823437500001
 20
64.741484375
 10
48.66548437500001
 20
64.496234375
 10
48.193609375000015
 20
64.291859375
 10
47.41243750000001
 20
64.0619375
 10
46.23393750000001
 20
63.8984375
 10
45.58600000000001
 20
63.878
 10
45.11900000000001
 20
63.89375
 10
44.13100000000001
 20
64.01975
 10
43.610000000000014
 20
64.13
 10
43.09575000000001
 20
64.267375
 10
42.16175000000001
 20
64.610375
 10
41.74200000000001
 20
64.816
 10
42.32800000000001
 20
66.61
 10
42.65425000000001
 20
66.4425
 10
43.40425000000001
 20
66.1585
 10
43.82800000000001
 20
66.042
 10
44.265625000000014
 20
65.946625
 10
45.13262500000001
 20
65.837625
 10
45.56200000000001
 20
65.824
 10
45.969593750000016
 20
65.836
 10
46.698343750000014
 20
65.932
 10
47.31184375000001
 20
66.124
 10
47.810093750000014
 20
66.412
 10
48.01600000000001
 20
66.592
 10
48.19600000000001
 20
66.79653125
 10
48.48400000000001
 20
67.28078125
 10
48.676000000000016
 20
67.86528125
 10
48.77200000000001
 20
68.55003125
 10
48.78400000000001
 20
68.93
 10
48.78400000000001
 20
70.36
 10
48.62512500000001
 20
70.16665625
 10
48.28412500000002
 20
69.81690625
 10
47.91212500000001
 20
69.51640625
 10
47.50912500000001
 20
69.26515625
 10
47.296000000000014
 20
69.158
 10
47.07500000000002
 20
69.0633125
 10
46.60900000000001
 20
68.9118125
 10
46.11100000000002
 20
68.8108125
 10
45.58100000000001
 20
68.7603125
 10
45.30400000000001
 20
68.754
 10
45.016390625000014
 20
68.76059375
 10
44.46451562500001
 20
68.81334375
 10
43.94376562500001
 20
68.91884375
 10
43.45414062500001
 20
69.07709375
 10
42.995640625000014
 20
69.28809375
 10
42.56826562500001
 20
69.55184375
 10
42.17201562500001
 20
69.86834375
 10
41.806890625000015
 20
70.23759375
 10
41.63600000000001
 20
70.44200000000001
 10
41.47421875000001
 20
70.6568359375
 10
41.18196875000001
 20
71.1110234375
 10
40.931468750000015
 20
71.5978984375
 10
40.72271875000001
 20
72.1174609375
 10
40.48787500000001
 20
72.95809375
 10
40.32087500000001
 20
74.19334375
 10
40.30000000000001
 20
74.86
 10
40.30000000000001
 20
75.106
 10
40.32087500000001
 20
75.85203125
  0
LWPOLYLINE
  5
45
330
17
100
AcDbEntity
  8
0
 62
1
100
AcDbPolyline
 90
44
 70
0
 10
42.62065625000001
 20
74.39421875
 10
42.72190625000001
 20
73.53296875
 10
42.92440625000001
 20
72.76546875
 10
43.22815625000001
 20
72.09171875
 10
43.418000000000006
 20
71.79
 10
43.63318750000001
 20
71.51765625
 10
44.142687500000015
 20
71.08190625
 10
44.75768750000001
 20
70.79140625
 10
45.47818750000001
 20
70.64615625
 10
45.878000000000014
 20
70.628
 10
46.13321875000001
 20
70.6354375
 10
46.61196875000002
 20
70.6949375
 10
47.04846875000001
 20
70.8139375
 10
47.44271875000001
 20
70.9924375
 10
47.62400000000002
 20
71.104
 10
47.79612500000001
 20
71.22865625
 10
48.117125000000016
 20
71.51490625
 10
48.40712500000001
 20
71.85040625
 10
48.666125000000015
 20
72.23515625
 10
48.78400000000001
 20
72.446
 10
48.78400000000001
 20
78.282
 10
48.66831250000001
 20
78.47878125
 10
48.41181250000001
 20
78.84103125
 10
48.12181250000001
 20
79.16153125
 10
47.79831250000001
 20
79.44028125
 10
47.62400000000002
 20
79.564
 10
47.44090625000001
 20
79.6755625
 10
47.047156250000015
 20
79.8540625
 10
46.616656250000005
 20
79.9730625
 10
46.14940625000001
 20
80.0325625
 10
45.902000000000015
 20
80.03999999999999
 10
45.50196875000001
 20
80.018375
 10
44.77971875000001
 20
79.845375
 10
44.30611718750001
 20
79.60209375
 10
44.02280468750001
 20
79.38584374999999
 10
43.64646875000001
 20
78.980375
 10
43.42800000000001
 20
78.656
 10
43.23581250000001
 20
78.29821875
 10
42.92831250000001
 20
77.50896875
 10
42.72331250000001
 20
76.62146875
 10
42.620812500000014
 20
75.63571875
 10
42.60800000000001
 20
75.106
 10
42.60800000000001
 20
74.86
 10
42.62065625000001
 20
74.39421875
  0
LWPOLYLINE
  5
46
330
17
100
AcDbEntity
  8
0
 62
1
100
AcDbPolyline
 90
52
 70
0
 10
23.360468750000006
 20
69.7838125
 10
22.934718750000005
 20
69.4493125
 10
22.706000000000007
 20
69.304
 10
22.466937500000004
 20
69.17509375
 10
21.961437500000006
 20
68.96884375
 10
21.419437500000004
 20
68.83134375
 10
20.840937500000006
 20
68.76259375
 10
20.538000000000007
 20
68.754
 10
20.033781250000004
 20
68.7746875
 10
19.111031250000007
 20
68.9401875
 10
18.493945312500006
 20
69.172921875
 10
18.118257812500005
 20
69.379796875
 10
17.608281250000005
 20
69.7676875
 10
17.304000000000006
 20
70.078
 10
17.163289062500006
 20
70.2492734375
 10
16.909101562500005
 20
70.6264609375
 10
16.691226562500002
 20
71.0498359375
 10
16.509664062500004
 20
71.5193984375
 10
16.305406250000004
 20
72.31034375
 10
16.160156250000007
 20
73.52659375
 10
16.142000000000007
 20
74.20400000000001
 10
16.142000000000007
 20
81.68
 10
18.452000000000005
 20
81.68
 10
18.452000000000005
 20
74.18
 10
18.461343750000005
 20
73.69278125
 10
18.536093750000003
 20
72.83703125
 10
18.685593750000006
 20
72.13953125
 10
18.909843750000004
 20
71.60028125
 10
19.050000000000008
 20
71.39
 10
19.209468750000003
 20
71.21140625
 10
19.591218750000003
 20
70.92565625
 10
20.056718750000005
 20
70.73515625
 10
20.605968750000006
 20
70.63990625
 10
20.912000000000006
 20
70.628
 10
21.212843750000005
 20
70.63578125
 10
21.774593750000005
 20
70.69803125
 10
22.283093750000006
 20
70.82253125
 10
22.738343750000006
 20
71.00928125
 10
22.946000000000005
 20
71.126
 10
23.140375000000006
 20
71.25703125
 10
23.492375000000006
 20
71.55828125
 10
23.795375000000007
 20
71.91178125
 10
24.049375000000005
 20
72.31753125
 10
24.158000000000005
 20
72.54
 10
24.158000000000005
 20
81.68
 10
26.468000000000007
 20
81.68
 10
26.468000000000007
 20
69.0
 10
24.392000000000007
 20
69.0
 10
24.240000000000006
 20
70.876
 10
24.08521875000001
 20
70.62831249999999
 10
23.743968750000008
 20
70.1768125
 10
23.360468750000006
 20
69.7838125
  0
LWPOLYLINE
  5
47
330
17
100
AcDbEntity
  8
0
 62
1
100
AcDbPolyline
 90
71
 70
0
 10
53.204828125000006
 20
77.11882031249999
 10
53.34770312500001
 20
77.7290078125
 10
53.53820312500001
 20
78.3082578125
 10
53.77632812500001
 20
78.8565703125
 10
54.062078125000006
 20
79.3739453125
 10
54.39545312500001
 20
79.8603828125
 10
54.58000000000001
 20
80.092
 10
54.77475000000001
 20
80.3126328125
 10
55.189750000000004
 20
80.7111953125
 10
55.63875000000001
 20
81.0528203125
 10
56.12175000000001
 20
81.33750781250001
 10
56.63875000000001
 20
81.5652578125
 10
57.189750000000004
 20
81.7360703125
 10
57.77475000000001
 20
81.8499453125
 10
58.393750000000004
 20
81.9068828125
 10
58.71600000000001
 20
81.914
 10
59.04141406250001
 20
81.90690624999999
 10
59.66622656250001
 20
81.85015625
 10
60.25635156250001
 20
81.73665625
 10
60.81178906250001
 20
81.56640625
 10
61.33253906250001
 20
81.33940625
 10
61.8186015625
 20
81.05565625
 10
62.269976562500005
 20
80.71515625
 10
62.68666406250001
 20
80.31790625000001
 10
62.882000000000005
 20
80.098
 10
63.067273437500006
 20
79.8670625
 10
63.40196093750001
 20
79.3815625
 10
63.68883593750001
 20
78.8645625
 10
63.927898437500005
 20
78.3160625
 10
64.11914843750002
 20
77.7360625
 10
64.26258593750002
 20
77.1245625
 10
64.38809375000001
 20
76.14825
 10
64.41200000000002
 20
75.458
 10
64.41200000000002
 20
75.2
 10
64.3881875
 20
74.50709375
 10
64.26317187500001
 20
73.5280859375
 10
64.12029687500001
 20
72.9156484375
 10
63.929796875000015
 20
72.3353984375
 10
63.69167187500001
 20
71.7873359375
 10
63.405921875000004
 20
71.2714609375
 10
63.072546875000015
 20
70.7877734375
 10
62.88800000000001
 20
70.558
 10
62.69343750000001
 20
70.339546875
 10
62.27843750000001
 20
69.944921875
 10
61.82893750000001
 20
69.606671875
 10
61.34493750000001
 20
69.324796875
 10
60.8264375
 20
69.099296875
 10
60.2734375
 20
68.930171875
 10
59.6859375
 20
68.817421875
 10
59.06393750000001
 20
68.761046875
 10
58.74000000000001
 20
68.754
 10
58.4162734375
 20
68.7610703125
 10
57.794460937500006
 20
68.8176328125
 10
57.2068359375
 20
68.9307578125
 10
56.65339843750001
 20
69.1004453125
 10
56.13414843750001
 20
69.3266953125
 10
55.649085937500004
 20
69.6095078125
 10
55.19821093750001
 20
69.9488828125
 10
54.781523437500006
 20
70.3448203125
 10
54.586000000000006
 20
70.564
 10
54.40072656250001
 20
70.794453125
 10
54.0660390625
 20
71.279078125
 10
53.7791640625
 20
71.795328125
 10
53.540101562500006
 20
72.343203125
 10
53.3488515625
 20
72.922703125
 10
53.20541406250001
 20
73.533828125
 10
53.07990625
 20
74.5098125
 10
53.05600000000001
 20
75.2
 10
53.05600000000001
 20
75.458
 10
53.0798125
 20
76.14553125
 10
53.204828125000006
 20
77.11882031249999
  0
LWPOLYLINE
  5
48
330
17
100
AcDbEntity
  8
0
 62
1
100
AcDbPolyline
 90
43
 70
0
 10
55.48525000000001
 20
73.787
 10
55.69725000000001
 20
72.955
 10
56.01525000000001
 20
72.211
 10
56.21400000000001
 20
71.872
 10
56.439406250000005
 20
71.56403125
 10
56.967656250000005
 20
71.07128125
 10
57.599156250000014
 20
70.74278125000001
 10
58.33390625000001
 20
70.57853125
 10
58.74000000000001
 20
70.558
 10
59.140562500000016
 20
70.57853125
 10
59.86706250000001
 20
70.74278125000001
 10
60.49406250000001
 20
71.07128125
 10
61.02156250000001
 20
71.56403125
 10
61.248000000000005
 20
71.872
 10
61.44862500000001
 20
72.211
 10
61.76962500000001
 20
72.955
 10
61.98362500000001
 20
73.787
 10
62.090625
 20
74.707
 10
62.10400000000001
 20
75.2
 10
62.10400000000001
 20
75.458
 10
62.090531250000005
 20
75.9455625
 10
61.98278125000001
 20
76.8580625
 10
61.76728125000001
 20
77.6870625
 10
61.44403125
 20
78.4325625
 10
61.24200000000001
 20
78.774
 10
61.013968750000004
 20
79.0843125
 10
60.482718750000004
 20
79.58081250000001
 10
59.85121875
 20
79.9118125
 10
59.11946875000001
 20
80.0773125
 10
58.71600000000001
 20
80.098
 10
58.31553125000001
 20
80.0773125
 10
57.589781250000016
 20
79.9118125
 10
56.96428125
 20
79.58081250000001
 10
56.439031250000006
 20
79.0843125
 10
56.21400000000001
 20
78.774
 10
56.01525000000001
 20
78.4325625
 10
55.69725000000001
 20
77.6870625
 10
55.48525000000001
 20
76.8580625
 10
55.379250000000006
 20
75.9455625
 10
55.366000000000014
 20
75.458
 10
55.366000000000014
 20
75.2
 10
55.379250000000006
 20
74.707
 10
55.48525000000001
 20
73.787
  0
LWPOLYLINE
  5
49
330
17
100
AcDbEntity
  8
0
 62
1
100
AcDbPolyline
 90
50
 70
0
 10
31.262500000000014
 20
80.48471875
 10
31.65950000000001
 20
80.87621875
 10
32.09650000000001
 20
81.21146875
 10
32.330000000000005
 20
81.358
 10
32.57309375000001
 20
81.4883125
 10
33.08384375000001
 20
81.6968125
 10
33.627343750000016
 20
81.8358125
 10
34.20359375000001
 20
81.90531250000001
 10
34.50400000000001
 20
81.914
 10
35.002062500000015
 20
81.89521875
 10
35.91156250000002
 20
81.74496875
 10
36.705562500000006
 20
81.44446875
 10
37.38406250000001
 20
80.99371875
 10
37.68000000000001
 20
80.712
 10
37.81610937500001
 20
80.556890625
 10
38.06198437500001
 20
80.216015625
 10
38.36493750000001
 20
79.6280625
 10
38.64593750000002
 20
78.7010625
 10
38.78643750000001
 20
77.6105625
 10
38.80400000000001
 20
77.004
 10
38.80400000000001
 20
69.0
 10
36.49600000000001
 20
69.0
 10
36.49600000000001
 20
76.958
 10
36.48565625000001
 20
77.36134375
 10
36.402906250000015
 20
78.07709375
 10
36.237406250000014
 20
78.67159375
 10
35.98915625000001
 20
79.14484375
 10
35.83400000000001
 20
79.336
 10
35.65759375000001
 20
79.501
 10
35.23934375000001
 20
79.765
 10
34.73384375000001
 20
79.941
 10
34.14109375000001
 20
80.029
 10
33.81200000000001
 20
80.03999999999999
 10
33.56656250000001
 20
80.03246874999999
 10
33.097062500000014
 20
79.97221875
 10
32.65606250000001
 20
79.85171875
 10
32.24356250000001
 20
79.67096875
 10
32.04800000000001
 20
79.55799999999999
 10
31.86131250000001
 20
79.4325
 10
31.51681250000001
 20
79.1485
 10
31.21081250000001
 20
78.82050000000001
 10
30.943312500000008
 20
78.4485
 10
30.824000000000012
 20
78.246
 10
30.824000000000012
 20
69.0
 10
28.51600000000001
 20
69.0
 10
28.51600000000001
 20
81.68
 10
30.57800000000001
 20
81.68
 10
30.742000000000008
 20
79.792
 10
30.905500000000007
 20
80.03696875
 10
31.262500000000014
 20
80.48471875
  0
LWPOLYLINE
  5
4A
330
17
100
AcDbEntity
  8
0
 62
1
100
AcDbPolyline
 90
150
 70
0
 10
11.059031249999999
 20
74.6165625
 10
10.729781250000002
 20
75.0600625
 10
10.524000000000001
 20
75.264
 10
10.28278125
 20
75.45759375
 10
9.673031250000001
 20
75.82134375
 10
8.89353125
 20
76.15384375000001
 10
7.94428125
 20
76.45509375
 10
7.406000000000001
 20
76.594
 10
6.7480625000000005
 20
76.76453125
 10
5.5435625
 20
77.16278125
 10
4.4875625
 20
77.63728125
 10
3.5800625
 20
78.18803125
 10
3.1820000000000004
 20
78.492
 10
2.8262187500000002
 20
78.8155625
 10
2.3814921875000006
 20
79.338640625
 10
2.1443046875000005
 20
79.71251562500001
 10
1.9545546875
 20
80.106515625
 10
1.8122421875
 20
80.520640625
 10
1.6877187500000002
 20
81.1795625
 10
1.6640000000000001
 20
81.644
 10
1.6703828125000002
 20
81.8904375
 10
1.7214453125000002
 20
82.3679375
 10
1.8235703125000002
 20
82.8249375
 10
1.9767578125
 20
83.2614375
 10
2.1810078125000003
 20
83.6774375
 10
2.436320312500001
 20
84.0729375
 10
2.7426953125000004
 20
84.4479375
 10
3.1001328125000005
 20
84.8024375
 10
3.2980000000000005
 20
84.97200000000001
 10
3.506273437500001
 20
85.13378125
 10
3.9454609375000005
 20
85.42603125
 10
4.4148359375
 20
85.67653125
 10
4.914398437500001
 20
85.88528124999999
 10
5.7203437500000005
 20
86.120125
 10
6.9005937500000005
 20
86.287125
 10
7.5360000000000005
 20
86.30799999999999
 10
7.8815390625
 20
86.3020078125
 10
8.545851562500003
 20
86.2540703125
 10
9.174476562500002
 20
86.1581953125
 10
9.767414062500002
 20
86.0143828125
 10
10.3246640625
 20
85.8226328125
 10
10.8462265625
 20
85.5829453125
 10
11.3321015625
 20
85.2953203125
 10
11.7822890625
 20
84.9597578125
 10
11.994
 20
84.774
 10
12.194546875
 20
84.580078125
 10
12.555421875
 20
84.18070312500001
 10
12.862671875000002
 20
83.765953125
 10
13.116296875000002
 20
83.335828125
 10
13.316296875
 20
82.890328125
 10
13.462671874999996
 20
82.42945312500001
 10
13.555421874999997
 20
81.953203125
 10
13.594546874999999
 20
81.461578125
 10
13.594000000000001
 20
81.21000000000001
 10
13.57
 20
81.14
 10
11.368000000000002
 20
81.14
 10
11.352500000000001
 20
81.50603125
 10
11.2285
 20
82.18428125
 10
10.980500000000001
 20
82.79078125
 10
10.6085
 20
83.32553125
 10
10.376
 20
83.566
 10
10.1150625
 20
83.78303125
 10
9.5125625
 20
84.13028125
 10
8.802562499999999
 20
84.36178125
 10
7.985062499999998
 20
84.47753125
 10
7.5360000000000005
 20
84.492
 10
7.117562500000002
 20
84.47981250000001
 10
6.356062500000001
 20
84.38231250000001
 10
5.695062500000001
 20
84.1873125
 10
5.1345625
 20
83.8948125
 10
4.892
 20
83.712
 10
4.676375
 20
83.5100625
 10
4.331375
 20
83.06156250000001
 10
4.101375
 20
82.5535625
 10
3.986375
 20
81.9860625
 10
3.972
 20
81.68
 10
3.9875625
 20
81.40728125
 10
4.1120625
 20
80.89653125000001
 10
4.3610625
 20
80.43203125
 10
4.7345625
 20
80.01378125
 10
4.968
 20
79.822
 10
5.2364375
 20
79.63884375
 10
5.8899375
 20
79.28959375
 10
6.698937500000001
 20
78.96309375
 10
7.663437500000001
 20
78.65934375
 10
8.204
 20
78.516
 10
8.857375000000001
 20
78.33909375
 10
10.043375
 20
77.92584375
 10
11.068375
 20
77.43334375
 10
11.932375
 20
76.86159375
 10
12.304000000000002
 20
76.546
 10
12.633531250000003
 20
76.21128125
 10
13.160781250000003
 20
75.48353125
 10
13.512281250000001
 20
74.67803125
 10
13.688031250000003
 20
73.79478125
 10
13.710000000000003
 20
73.324
 10
13.703414062500002
 20
73.06940625
 10
13.650726562500001
 20
72.57915625
 10
13.545351562500002
 20
72.11415625
 10
13.387289062500003
 20
71.67440625
 10
13.176539062500002
 20
71.25990625
 10
12.913101562500003
 20
70.87065625
 10
12.596976562500002
 20
70.50665625
 10
12.2281640625
 20
70.16790625
 10
12.024000000000001
 20
70.008
 10
11.8089765625
 20
69.8561484375
 10
11.3547890625
 20
69.5818359375
 10
10.613156250000001
 20
69.24384375
 10
9.51165625
 20
68.93034375
 10
8.281406250000002
 20
68.77359375
 10
7.618000000000001
 20
68.754
 10
6.988281250000002
 20
68.77559375
 10
5.784531250000001
 20
68.94834375
 10
4.65503125
 20
69.29384375
 10
3.5997812500000004
 20
69.81209375
 10
3.1
 20
70.136
 10
2.8624062500000003
 20
70.31265625
 10
2.4346562499999997
 20
70.68790625
 10
2.07015625
 20
71.09240625
 10
1.76890625
 20
71.52615625
 10
1.5309062500000001
 20
71.98915625
 10
1.3561562500000002
 20
72.48140625
 10
1.24465625
 20
73.00290625
 10
1.19640625
 20
73.55365625
 10
1.196
 20
73.84
 10
1.218
 20
73.91
 10
3.422
 20
73.91
 10
3.44084375
 20
73.51225
 10
3.59159375
 20
72.79025
 10
3.8930937500000002
 20
72.16625
 10
4.3453437500000005
 20
71.64025
 10
4.628
 20
71.414
 10
4.93896875
 20
71.213375
 10
5.614718750000001
 20
70.892375
 10
6.362218750000001
 20
70.678375
 10
7.181468750000002
 20
70.571375
 10
7.618000000000001
 20
70.558
 10
8.043125000000002
 20
70.56953125
 10
8.825125
 20
70.66178125
 10
9.516125
 20
70.84628125
 10
10.116125
 20
71.12303125
 10
10.382
 20
71.296
 10
10.6210625
 20
71.4891875
 10
11.003562500000001
 20
71.9246875
 10
11.2585625
 20
72.4256875
 10
11.386062500000001
 20
72.9921875
 10
11.402000000000001
 20
73.3
 10
11.38828125
 20
73.5870625
 10
11.27853125
 20
74.1255625
 10
11.059031249999999
 20
74.6165625
  0
LWPOLYLINE
  5
4B
330
17
100
AcDbEntity
  8
0
 62
1
100
AcDbPolyline
 90
59
 70
0
 10
70.91593750000003
 20
77.23328125
 10
71.14585937500001
 20
78.17225781249999
 10
71.35023437500001
 20
78.7520703125
 10
71.59548437500001
 20
79.2949453125
 10
71.88160937500002
 20
79.80088281249999
 10
72.04
 20
80.03999999999999
 10
72.20735156250002
 20
80.2669296875
 10
72.56666406250001
 20
80.6768671875
 10
72.95878906250002
 20
81.0282421875
 10
73.38372656250002
 20
81.3210546875
 10
73.84147656250002
 20
81.5553046875
 10
74.33203906250002
 20
81.7309921875
 10
74.85541406250002
 20
81.8481171875
 10
75.41160156250002
 20
81.9066796875
 10
75.70200000000003
 20
81.914
 10
75.97609375000002
 20
81.90759375
 10
76.50084375000002
 20
81.85634375000001
 10
76.99434375000003
 20
81.75384375
 10
77.45659375000002
 20
81.60009375
 10
77.67600000000002
 20
81.504
 10
77.88753125000002
 20
81.395625
 10
78.28678125000002
 20
81.143625
 10
78.65428125000001
 20
80.84462500000001
 10
78.99003125000002
 20
80.498625
 10
79.14600000000002
 20
80.30799999999999
 10
79.14600000000002
 20
87.282
 10
81.45600000000002
 20
87.282
 10
81.45600000000002
 20
69.0
 10
79.56800000000003
 20
69.0
 10
79.29800000000002
 20
70.558
 10
79.13859375000003
 20
70.34225
 10
78.79334375000002
 20
69.95125
 10
78.41284375000002
 20
69.61425
 10
77.99709375000003
 20
69.33125
 10
77.77600000000001
 20
69.21
 10
77.54590625000002
 20
69.103125
 10
77.05815625000002
 20
68.932125
 10
76.53365625000002
 20
68.818125
 10
75.97240625000002
 20
68.761125
 10
75.67800000000003
 20
68.754
 10
75.39192968750001
 20
68.7605703125
 10
74.84336718750002
 20
68.8131328125
 10
74.32624218750003
 20
68.9182578125
 10
73.84055468750002
 20
69.0759453125
 10
73.38630468750002
 20
69.2861953125
 10
72.96349218750002
 20
69.5490078125
 10
72.57211718750001
 20
69.8643828125
 10
72.21217968750003
 20
70.2323203125
 10
72.04400000000003
 20
70.436
 10
71.88512500000002
 20
70.650390625
 10
71.59812500000002
 20
71.104015625
 10
71.35212500000002
 20
71.590765625
 10
71.14712500000002
 20
72.110640625
 10
70.91650000000003
 20
72.9525625
 10
70.75250000000001
 20
74.1910625
 10
70.73200000000001
 20
74.86
 10
70.73200000000001
 20
75.106
 10
70.75243750000003
 20
75.85203125
 10
70.91593750000003
 20
77.23328125
  0
LWPOLYLINE
  5
4C
330
17
100
AcDbEntity
  8
0
 62
1
100
AcDbPolyline
 90
44
 70
0
 10
73.15225000000002
 20
73.5265
 10
73.34825000000002
 20
72.7575
 10
73.64225000000002
 20
72.0845
 10
73.82600000000001
 20
71.784
 10
74.03603125000002
 20
71.5130625
 10
74.53728125000002
 20
71.0795625
 10
75.14678125000002
 20
70.7905625
 10
75.86453125000001
 20
70.6460625
 10
76.26400000000001
 20
70.628
 10
76.51640625000002
 20
70.63534375
 10
76.99065625000003
 20
70.69409375
 10
77.42415625000001
 20
70.81159375
 10
77.81690625000002
 20
70.98784375
 10
77.99800000000002
 20
71.098
 10
78.16993750000002
 20
71.220875
 10
78.48943750000001
 20
71.501875
 10
78.77643750000003
 20
71.829875
 10
79.03093750000002
 20
72.204875
 10
79.14600000000002
 20
72.41
 10
79.14600000000002
 20
78.328
 10
79.03084375000002
 20
78.5194375
 10
78.77559375000003
 20
78.8719375
 10
78.48709375000001
 20
79.1839375
 10
78.16534375000002
 20
79.4554375
 10
77.99200000000002
 20
79.576
 10
77.81050000000002
 20
79.68475000000001
 10
77.42050000000002
 20
79.85875
 10
76.99450000000002
 20
79.97475
 10
76.53250000000001
 20
80.03275
 10
76.28800000000001
 20
80.03999999999999
 10
75.88562500000002
 20
80.0185625
 10
75.16262500000002
 20
79.84706249999999
 10
74.69190625000002
 20
79.605890625
 10
74.41215625000002
 20
79.391515625
 10
74.04362500000002
 20
78.9895625
 10
73.83200000000002
 20
78.668
 10
73.64684375000002
 20
78.31221875
 10
73.35059375000002
 20
77.52396875
 10
73.15309375000002
 20
76.63346875
 10
73.05434375000002
 20
75.64071875
 10
73.04200000000002
 20
75.106
 10
73.04200000000002
 20
74.86
 10
73.05425000000001
 20
74.39150000000001
 10
73.15225000000002
 20
73.5265
  0
LWPOLYLINE
  5
4D
330
17
100
AcDbEntity
  8
0
 62
1
100
AcDbPolyline
 90
5
 70
0
 10
69.44800000000002
 20
87.282
 10
69.44800000000002
 20
69.0
 10
67.14000000000001
 20
69.0
 10
67.14000000000001
 20
87.282
 10
69.44800000000002
 20
87.282
  0
LWPOLYLINE
  5
4E
330
17
100
AcDbEntity
  8
0
 62
0
100
AcDbPolyline
 90
141
 70
0
 10
-7.980205683954728
 20
49.05778327993364
 10
-9.145083864193538
 20
49.230576635161235
 10
-10.287416127053547
 20
49.51671597121349
 10
-11.396201188381077
 20
49.91344560986456
 10
-12.460760841911974
 20
50.41694482781974
 10
-13.470842796235225
 20
51.022364652369454
 10
-14.416719409963745
 20
51.72387455964716
 10
-15.28928137423857
 20
52.51471862576143
 10
-16.080125440352845
 20
53.387280590036255
 10
-16.781635347630544
 20
54.33315720376477
 10
-17.38705517218026
 20
55.343239158088025
 10
-17.890554390135442
 20
56.40779881161892
 10
-18.28728402878651
 20
57.516583872946455
 10
-18.573423364838767
 20
58.65891613580646
 10
-18.746216720066364
 20
59.823794316045266
 10
-18.804000000000002
 20
61.0
 10
-18.804000000000002
 20
93.0
 10
-18.746216720066364
 20
94.17620568395473
 10
-18.573423364838767
 20
95.34108386419354
 10
-18.28728402878651
 20
96.48341612705354
 10
-17.890554390135442
 20
97.59220118838108
 10
-17.38705517218026
 20
98.65676084191198
 10
-16.781635347630544
 20
99.66684279623523
 10
-16.080125440352845
 20
100.61271940996374
 10
-15.28928137423857
 20
101.48528137423857
 10
-14.416719409963745
 20
102.27612544035284
 10
-13.470842796235225
 20
102.97763534763055
 10
-12.460760841911974
 20
103.58305517218025
 10
-11.396201188381077
 20
104.08655439013543
 10
-10.287416127053547
 20
104.4832840287865
 10
-9.145083864193538
 20
104.76942336483876
 10
-7.980205683954728
 20
104.94221672006637
 10
-6.804
 20
105.0
 10
3.3260000000000076
 20
105.0
 10
3.3260000000000076
 20
111.0
 10
3.3500763666390236
 20
111.49008570164781
 10
3.4220735979838555
 20
111.97545161008064
 10
3.5412983213389637
 20
112.45142338627231
 10
3.7066023374435737
 20
112.91341716182545
 10
3.916393678258233
 20
113.35698368412999
 10
4.168651938487281
 20
113.77785116509801
 10
4.460947733186323
 20
114.17196642081822
 10
4.79046609406727
 20
114.53553390593274
 10
5.154033579181781
 20
114.86505226681368
 10
5.548148834901998
 20
115.15734806151272
 10
5.969016315870019
 20
115.40960632174178
 10
6.4125828381745595
 20
115.61939766255644
 10
6.874576613727697
 20
115.78470167866104
 10
7.350548389919367
 20
115.90392640201615
 10
7.835914298352204
 20
115.97592363336099
 10
8.326000000000008
 20
116.0
 10
14.326000000000008
 20
116.0
 10
14.816085701647811
 20
115.97592363336099
 10
15.30145161008065
 20
115.90392640201615
 10
15.77742338627232
 20
115.78470167866104
 10
16.239417161825457
 20
115.61939766255644
 10
16.682983684129997
 20
115.40960632174178
 10
17.103851165098018
 20
115.15734806151272
 10
17.497966420818237
 20
114.86505226681368
 10
17.861533905932745
 20
114.53553390593274
 10
18.191052266813692
 20
114.17196642081822
 10
18.483348061512736
 20
113.77785116509801
 10
18.735606321741784
 20
113.35698368412999
 10
18.94539766255644
 20
112.91341716182545
 10
19.11070167866105
 20
112.45142338627231
 10
19.22992640201616
 20
111.97545161008064
 10
19.301923633360992
 20
111.49008570164781
 10
19.326000000000008
 20
111.0
 10
19.326000000000008
 20
105.0
 10
63.32600000000001
 20
105.0
 10
63.32600000000001
 20
111.0
 10
63.35007636663902
 20
111.49008570164781
 10
63.422073597983854
 20
111.97545161008064
 10
63.541298321338964
 20
112.45142338627231
 10
63.70660233744357
 20
112.91341716182545
 10
63.91639367825823
 20
113.35698368412999
 10
64.16865193848729
 20
113.77785116509801
 10
64.46094773318632
 20
114.17196642081822
 10
64.79046609406727
 20
114.53553390593274
 10
65.15403357918179
 20
114.86505226681368
 10
65.548148834902
 20
115.15734806151272
 10
65.96901631587002
 20
115.40960632174178
 10
66.41258283817456
 20
115.61939766255644
 10
66.8745766137277
 20
115.78470167866104
 10
67.35054838991937
 20
115.90392640201615
 10
67.83591429835221
 20
115.97592363336099
 10
68.32600000000001
 20
116.0
 10
74.32600000000001
 20
116.0
 10
74.81608570164781
 20
115.97592363336099
 10
75.30145161008065
 20
115.90392640201615
 10
75.77742338627232
 20
115.78470167866104
 10
76.23941716182546
 20
115.61939766255644
 10
76.68298368413
 20
115.40960632174178
 10
77.10385116509802
 20
115.15734806151272
 10
77.49796642081823
 20
114.86505226681368
 10
77.86153390593275
 20
114.53553390593274
 10
78.1910522668137
 20
114.17196642081822
 10
78.48334806151273
 20
113.77785116509801
 10
78.73560632174178
 20
113.35698368412999
 10
78.94539766255645
 20
112.91341716182545
 10
79.11070167866106
 20
112.45142338627231
 10
79.22992640201616
 20
111.97545161008064
 10
79.30192363336099
 20
111.49008570164781
 10
79.32600000000001
 20
111.0
 10
79.32600000000001
 20
105.0
 10
89.45600000000002
 20
105.0
 10
90.63220568395475
 20
104.94221672006637
 10
91.79708386419355
 20
104.76942336483876
 10
92.93941612705356
 20
104.4832840287865
 10
94.0482011883811
 20
104.08655439013543
 10
95.11276084191199
 20
103.58305517218025
 10
96.12284279623525
 20
102.97763534763054
 10
97.06871940996376
 20
102.27612544035284
 10
97.94128137423859
 20
101.48528137423857
 10
98.73212544035286
 20
100.61271940996374
 10
99.43363534763056
 20
99.66684279623523
 10
100.03905517218028
 20
98.65676084191198
 10
100.54255439013545
 20
97.59220118838107
 10
100.93928402878652
 20
96.48341612705354
 10
101.22542336483878
 20
95.34108386419354
 10
101.39821672006639
 20
94.17620568395472
 10
101.45600000000002
 20
93.0
 10
101.45600000000002
 20
61.0
 10
101.39821672006639
 20
59.82379431604527
 10
101.22542336483878
 20
58.658916135806464
 10
100.93928402878652
 20
57.516583872946455
 10
100.54255439013545
 20
56.407798811618925
 10
100.03905517218027
 20
55.343239158088025
 10
99.43363534763056
 20
54.33315720376477
 10
98.73212544035286
 20
53.387280590036255
 10
97.94128137423859
 20
52.51471862576143
 10
97.06871940996376
 20
51.72387455964716
 10
96.12284279623525
 20
51.02236465236946
 10
95.11276084191199
 20
50.41694482781974
 10
94.0482011883811
 20
49.91344560986456
 10
92.93941612705356
 20
49.51671597121349
 10
91.79708386419355
 20
49.230576635161235
 10
90.63220568395475
 20
49.05778327993364
 10
89.45600000000002
 20
49.0
 10
-6.804
 20
49.0
 10
-7.980205683954728
 20
49.05778327993364
  0
LWPOLYLINE
  5
4F
330
17
100
AcDbEntity
  8
0
 62
0
100
AcDbPolyline
 90
5
 70
0
 10
14.326000000000008
 20
99.0
 10
14.326000000000008
 20
111.0
 10
8.326000000000008
 20
111.0
 10
8.326000000000008
 20
99.0
 10
14.326000000000008
 20
99.0
  0
LWPOLYLINE
  5
50
330
17
100
AcDbEntity
  8
0
 62
0
100
AcDbPolyline
 90
5
 70
0
 10
74.32600000000001
 20
99.0
 10
74.32600000000001
 20
111.0
 10
68.32600000000001
 20
111.0
 10
68.32600000000001
 20
99.0
 10
74.32600000000001
 20
99.0
  0
LWPOLYLINE
  5
51
330
17
100
AcDbEntity
  8
0
 62
0
100
AcDbPolyline
 90
346
 70
0
 10
108.207
 20
138.0
 10
96.207
 20
138.0
 10
78.207
 20
138.0
 10
66.207
 20
138.0
 10
66.207
 20
150.0
 10
66.207
 20
178.0
 10
78.207
 20
178.0
 10
78.207
 20
150.0
 10
96.207
 20
150.0
 10
96.207
 20
198.0
 10
108.207
 20
198.0
 10
108.207
 20
197.99927318196816
 10
108.2222716072103
 20
197.99997667774693
 10
108.40553003893065
 20
197.99941694497863
 10
108.43607268348356
 20
197.99923036825948
 10
108.61932427682063
 20
197.99755119084134
 10
108.64986521179084
 20
197.99717804436526
 10
108.8331031286165
 20
197.9943794849566
 10
108.86364121435315
 20
197.99381978264773
 10
109.04685861704965
 20
197.98990194567833
 10
109.07739271400908
 20
197.98915570842223
 10
109.26058276572417
 20
197.98411874008812
 10
109.29111173450966
 20
197.98318599573105
 10
109.47426759941166
 20
197.97703008398935
 10
109.50479030081944
 20
197.97591086733718
 10
109.68790514435241
 20
197.96863624189893
 10
109.71842043941244
 20
197.96733059471572
 10
109.90148742855118
 20
197.9589375270373
 10
109.93199417856835
 20
197.95744549804405
 10
110.11500648207333
 20
197.9479343013172
 10
110.14550354867399
 20
197.94625594618964
 10
110.3284543373463
 20
197.93562697532948
 10
110.35894058251478
 20
197.93376235669643
 10
110.54182302945105
 20
197.92201600832863
 10
110.57229731557902
 20
197.91996519576918
 10
110.75510459642601
 20
197.9071019082147
 10
110.78556578634877
 20
197.90486497825606
 10
110.9682910795581
 20
197.89088523151526
 10
110.99873803660054
 20
197.8884622676296
 10
111.18137452368329
 20
197.87336658336386
 10
111.21180611170212
 20
197.8707576759653
 10
111.39434697748317
 20
197.85454661747798
 10
111.42476206090721
 20
197.85175186391928
 10
111.60720049377963
 20
197.83442603613437
 10
111.63759793765468
 20
197.83144554070324
 10
111.81992712983386
 20
197.81300559014298
 10
111.85030579986324
 20
197.80983946405814
 10
112.03251894764094
 20
197.79028607881884
 10
112.06287771022956
 20
197.78693444022585
 10
112.24496801422782
 20
197.7662683499522
 10
112.27530573652164
 20
197.7627313239193
 10
112.45726640194644
 20
197.7409532997772
 10
112.48758195187833
 20
197.7372310182903
 10
112.66940618877322
 20
197.71434187293795
 10
112.69969843510293
 20
197.71043447489586
 10
112.88137945860237
 20
197.68643506245363
 10
112.91164727095875
 20
197.68234269366295
 10
113.09317830154123
 20
197.65723390968128
 10
113.1234205504648
 20
197.65295672285097
 10
113.3047948142059
 20
197.6267395042772
 10
113.33501037119214
 20
197.62227765901258
 10
113.51622110001728
 20
197.59495298415575
 10
113.54640883755678
 20
197.59030664695294
 10
113.7274492694938
 20
197.56187553544746
 10
113.7576080611152
 20
197.55704487968694
 10
113.93847144054658
 20
197.52750839245448
 10
113.96860016085945
 20
197.52249359839465
 10
114.14927973877454
 20
197.49185283760448
 10
114.1793772635096
 20
197.48665409237503
 10
114.35986629775638
 20
197.45491020140307
 10
114.38993150380949
 20
197.44952769899777
 10
114.57022325934616
 20
197.4166818623837
 10
114.600255024818
 20
197.41111580365356
 10
114.78034277396435
 20
197.37716924705677
 10
114.81033997820461
 20
197.371419839702
 10
114.99021700089301
 20
197.33637382985586
 10
115.02017852453982
 20
197.3304412884187
 10
115.19983810856598
 20
197.29429713308326
 10
115.22976283358982
 20
197.28818167893954
 10
115.40919827486337
 20
197.2509407268526
 10
115.43908508460815
 20
197.24464258820353
 10
115.61828968740265
 20
197.20630622903056
 10
115.64813746662594
 20
197.1998256408946
 10
115.82710454382882
 20
197.16039530517665
 10
115.85691217874525
 20
197.1537325093803
 10
116.03563505210735
 20
197.1132096684808
 10
116.06540143043046
 20
197.10636491364954
 10
116.24387343081521
 20
197.06475107969925
 10
116.27359744179579
 20
197.05772462124898
 10
116.45181190942805
 20
197.01502134708971
 10
116.48149244390046
 20
197.00781344721605
 10
116.65944272861509
 20
196.9640223263426
 10
116.6890786790344
 20
196.9566332540122
 10
116.86675814052435
 20
196.91175592051283
 10
116.89634840100938
 20
196.90418595145283
 10
117.07375040907355
 20
196.85822407994857
 10
117.10329387544877
 20
196.85047349663617
 10
117.28041181023934
 20
196.80342880221804
 10
117.30990738007492
 20
196.79549789387033
 10
117.48673463234444
 20
196.74737213203545
 10
117.51618120499828
 20
196.73926119459824
 10
117.69271117634624
 20
196.69005616118434
 10
117.72210765300335
 20
196.68176549732175
 10
117.89833375612244
 20
196.63148302844013
 10
117.92767903983898
 20
196.62301294752228
 10
118.10359469876093
 20
196.57165491948933
 10
118.13288769450176
 20
196.56300573758188
 10
118.30848634484262
 20
196.51057406684902
 10
118.33772595952493
 20
196.50174610670052
 10
118.51300104873013
 20
196.44824274978268
 10
118.54218619126216
 20
196.43923634081315
 10
118.71713117885099
 20
196.3846632942158
 10
118.74626076017447
 20
196.37547877250395
 10
118.9208691179841
 20
196.3198380726486
 10
118.94994205111337
 20
196.31047578091966
 10
119.12420726354252
 20
196.2537695040678
 10
119.15322246360586
 20
196.24422979168062
 10
119.32713802785786
 20
196.18646005385636
 10
119.35609441213818
 20
196.1767432767902
 10
119.5296538384637
 20
196.11791223370125
 10
119.55855032643888
 20
196.10801875454254
 10
119.731747138378
 20
196.0481286014997
 10
119.76058265175982
 20
196.03805878942904
 10
119.93341038638385
 20
195.97711176126444
 10
119.96218384916102
 20
195.96686599204176
 10
120.13463605731354
 20
195.90486436302524
 10
120.16334639578903
 20
195.89444301897692
 10
120.33541664232655
 20
195.83138910273144
 10
120.36406278515928
 20
195.82079257273523
 10
120.53574464919146
 20
195.7566887221503
 10
120.56432552743564
 20
195.74591740162128
 10
120.7356126025648
 20
195.68076600876532
 10
120.7641271497102
 20
195.66982029964086
 10
120.93501304427043
 20
195.6036237956718
 10
120.96346019628203
 20
195.59250410639675
 10
121.13393853357766
 20
195.5252649614714
 10
121.16231722893542
 20
195.5139717069826
 10
121.33238164747902
 20
195.44569243016454
 10
121.36069082721687
 20
195.43422603187574
 10
121.53033498096661
 20
195.36490917104152
 10
121.55857358871314
 20
195.35327005682723
 10
121.72779114730953
 20
195.2829181985714
 10
121.75595812932625
 20
195.27110680275126
 10
121.92474277832846
 20
195.19972257228986
 10
121.95283708354981
 20
195.18773933561226
 10
122.1211825246713
 20
195.1153253966848
 10
122.14920310474389
 20
195.10317076631037
 10
122.31710305608728
 20
195.02972982108048
 10
122.34504886540891
 20
195.01740425056542
 10
122.5124970617006
 20
194.94293903952
 10
122.54036705745827
 20
194.93044298879965
 10
122.70735725028206
 20
194.85495629064664
 10
122.7351503924931
 20
194.84229022601733
 10
122.90167635052347
 20
194.76578485758193
 10
122.92939160207192
 20
194.7529492516846
 10
123.09544711130653
 20
194.6754280678043
 10
123.12308343798384
 20
194.66242339960604
 10
123.28866230197536
 20
194.5838892930239
 10
123.31621867251712
 20
194.57071604780094
 10
123.48131471260447
 20
194.49117194905787
 10
123.50879009873081
 20
194.47783061837646
 10
123.6733971542698
 20
194.3972794957017
 10
123.70079053072274
 20
194.38377057740038
 10
123.8649024593158
 20
194.30221543660076
 10
123.89221280389663
 20
194.28853943477216
 10
124.05582348162216
 20
194.20598331912004
 10
124.0830497752317
 20
194.19214074409098
 10
124.24615309687252
 20
194.10858673421055
 10
124.27329432354756
 20
194.0945781025239
 10
124.43588420281878
 20
194.01002931627627
 10
124.46293934976997
 20
193.99585515067162
 10
124.62500971954603
 20
193.91031474303858
 10
124.651977777197
 20
193.89597557243195
 10
124.81352258973813
 20
193.8094467353981
 10
124.84040255176177
 20
193.79494309486319
 10
125.00141577893959
 20
193.70742905729688
 10
125.02820664229579
 20
193.6927614880447
 10
125.18868227581838
 20
193.6042655155776
 10
125.21538304079267
 20
193.58943456493586
 10
125.37531509242865
 20
193.49995995984096
 10
125.40192476266807
 20
193.4849661812343
 10
125.56130726447009
 20
193.3945162823029
 10
125.58782484702076
 20
193.3793602352321
 10
125.74665185154822
 20
193.28793841764897
 10
125.77307635689314
 20
193.27262066766957
 10
125.93134193743415
 20
193.1802303428872
 10
125.9576723795289
 20
193.16475146158916
 10
126.11537063032132
 20
193.07139607720035
 10
126.14160602663222
 20
193.0557566421859
 10
126.29873106308418
 20
192.96143968179518
 10
126.32487043462314
 20
192.94564027665837
 10
126.48141639353253
 20
192.85036525975192
 10
126.50745876489623
 20
192.83440647405524
 10
126.66341980466947
 20
192.7381769558697
 10
126.68936420407297
 20
192.72205938512366
 10
126.84473450494315
 20
192.62487895651333
 10
126.87057996425717
 20
192.6086032021538
 10
127.02535372850103
 20
192.51047548945672
 10
127.05109928328997
 20
192.49404215882126
 10
127.20527073544434
 20
192.39497082372384
 10
127.2309154249987
 20
192.37838053003114
 10
127.384478812076
 20
192.27836926943152
 10
127.41002167945112
 20
192.26162263175686
 10
127.56297127115403
 20
192.16067517762707
 10
127.58841136320454
 20
192.14377282087997
 10
127.74074145213984
 20
192.0418929401265
 10
127.76607781955573
 20
192.024835495027
 10
127.91778272144727
 20
191.92202698935037
 10
127.94301441878858
 20
191.90481509240607
 10
128.09408847268935
 20
191.80108179815892
 10
128.11921455842224
 20
191.78371609164066
 10
128.2696521269257
 20
191.6790618796846
 10
128.65821419920803
 20
191.3794234602958
 10
129.01553553790615
 20
191.04314213863023
 10
129.3381749431967
 20
190.6734564876456
 10
129.623025221234
 20
190.2739267822516
 10
129.86734310812568
 20
189.84840071191638
 10
130.06877568906316
 20
189.40097632531342
 10
130.22538305817775
 20
188.9359625638728
 10
130.33565700089463
 20
188.45783776431955
 10
130.39853551886353
 20
187.971206529843
 10
130.4134130575835
 20
187.4807553852508
 10
130.38014633822382
 20
186.99120764317328
 10
130.29905573747735
 20
186.50727791598064
 10
130.1709222021579
 20
186.03362671148867
 10
129.99697972825552
 20
185.5748155497207
 10
129.77890347688052
 20
185.13526303297624
 10
129.5187936415462
 20
184.7192022922754
 10
129.21915522215744
 20
184.3306402199931
 10
128.88287390049186
 20
183.97331888129497
 10
128.5131882495072
 20
183.65067947600446
 10
128.11365854411324
 20
183.36582919796712
 10
127.68813247377798
 20
183.12151131107544
 10
127.24070808717505
 20
182.920078730138
 10
126.77569432573442
 20
182.7634713610234
 10
126.29756952618118
 20
182.65319741830652
 10
125.8109382917046
 20
182.59031890033762
 10
125.3204871471124
 20
182.57544136161764
 10
124.83093940503488
 20
182.6087080809773
 10
124.34700967784227
 20
182.68979868172377
 10
123.8733584733503
 20
182.81793221704322
 10
123.41454731158231
 20
182.99187469094562
 10
122.97499479483787
 20
183.20995094232063
 10
122.55893405413704
 20
183.4700607776549
 10
122.42103300815089
 20
183.56599376460198
 10
122.29513808068126
 20
183.65243809583046
 10
122.16871744704183
 20
183.73811177063666
 10
122.0417758246847
 20
183.82301159206253
 10
121.9143179505052
 20
183.90713439202534
 10
121.78634858065558
 20
183.9904770314421
 10
121.6578724903817
 20
184.07303640033737
 10
121.5288944738349
 20
184.15480941796588
 10
121.39941934389653
 20
184.23579303292524
 10
121.26945193199852
 20
184.31598422326962
 10
121.13899708794048
 20
184.39537999662429
 10
121.00805967971542
 20
184.47397739029302
 10
120.87664459331882
 20
184.55177347137442
 10
120.7447567325716
 20
184.62876533686807
 10
120.61240101893839
 20
184.7049501137822
 10
120.4795823913438
 20
184.78032495924083
 10
120.34630580598031
 20
184.85488706059456
 10
120.21257623613333
 20
184.9286336355196
 10
120.07839867199226
 20
185.00156193212362
 10
119.94377812046174
 20
185.07366922904984
 10
119.8087196049772
 20
185.14495283557721
 10
119.67322816531718
 20
185.21541009172097
 10
119.53730885741437
 20
185.28503836833244
 10
119.40096675316994
 20
185.35383506719546
 10
119.26420694025785
 20
185.42179762112676
 10
119.12703452194381
 20
185.48892349406717
 10
118.98945461688393
 20
185.55521018118185
 10
118.85147235894857
 20
185.62065520894635
 10
118.71309289701284
 20
185.68525613524758
 10
118.57432139477942
 20
185.74901054946787
 10
118.43516303057942
 20
185.81191607257793
 10
118.29562299718111
 20
185.8739703572248
 10
118.15570650158834
 20
185.93517108782282
 10
118.01541876486078
 20
185.99551598063366
 10
117.87476502190734
 20
186.0550027838566
 10
117.73375052129487
 20
186.113629277711
 10
117.59238052505475
 20
186.17139327451792
 10
117.45066030847794
 20
186.22829261878542
 10
117.30859515993028
 20
186.2843251872839
 10
117.16619038064599
 20
186.3394888891293
 10
117.02345128453166
 20
186.39378166586008
 10
116.88038319797238
 20
186.4472014915124
 10
116.73699145962735
 20
186.49974637269804
 10
116.59328142023358
 20
186.55141434867758
 10
116.44925844240511
 20
186.60220349143384
 10
116.30492790043444
 20
186.65211190574357
 10
116.16029518009012
 20
186.7011377292485
 10
116.01536567841816
 20
186.74927913252426
 10
115.87014480353531
 20
186.79653431915037
 10
115.72463797443771
 20
186.84290152577373
 10
115.578850620785
 20
186.888379022179
 10
115.43278818270755
 20
186.93296511134997
 10
115.28645611060253
 20
186.97665812953306
 10
115.13985986492645
 20
187.01945644630084
 10
114.99300491599435
 20
187.0613584646119
 10
114.8458967437738
 20
187.10236262087102
 10
114.69854083768466
 20
187.14246738498622
 10
114.55094269638505
 20
187.18167126042852
 10
114.4031078275793
 20
187.21997278428407
 10
114.2550417478013
 20
187.257370527312
 10
114.10674998221367
 20
187.293863093996
 10
113.95823806440012
 20
187.3294491225972
 10
113.80951153615777
 20
187.364127285205
 10
113.6605759472983
 20
187.39789628778473
 10
113.51143685542672
 20
187.4307548702295
 10
113.36209982574726
 20
187.4627018064038
 10
113.21257043084728
 20
187.49373590419145
 10
113.06285425049532
 20
187.52385600553873
 10
112.91295687142777
 20
187.55306098649845
 10
112.7628838871402
 20
187.58134975727222
 10
112.61264089768758
 20
187.60872126224916
 10
112.4622335094642
 20
187.6351744800475
 10
112.31166733499657
 20
187.6607084235523
 10
112.1609479927423
 20
187.6853221399507
 10
112.01008110687125
 20
187.70901471076922
 10
111.8590723070586
 20
187.73178525190744
 10
111.70792722827693
 20
187.75363291367069
 10
111.55665151058358
 20
187.77455688080204
 10
111.4052507989075
 20
187.79455637251328
 10
111.25373074284789
 20
187.81363064251252
 10
111.10209699645236
 20
187.83177897903377
 10
110.95035521801316
 20
187.84900070486236
 10
110.79851106985262
 20
187.8652951773608
 10
110.64657021811428
 20
187.88066178849232
 10
110.49453833255167
 20
187.89509996484364
 10
110.34242108630994
 20
187.9086091676471
 10
110.19022415572474
 20
187.92118889279965
 10
110.03795322010264
 20
187.93283867088235
 10
109.88561396151425
 20
187.9435580671776
 10
109.73321206457453
 20
187.95334668168576
 10
109.58075321624364
 20
187.96220414913938
 10
109.4282431055988
 20
187.97013013901767
 10
109.27568742363437
 20
187.97712435555817
 10
109.12309186304535
 20
187.983186537768
 10
108.97046211801606
 20
187.9883164594337
 10
108.81780388400006
 20
187.9925139291297
 10
108.66512285752182
 20
187.9957787902251
 10
108.51242473595133
 20
187.99811092089
 10
108.35971521730008
 20
187.99951023409972
 10
108.207
 20
187.99997667763813
 10
108.207
 20
150.0
 10
108.207
 20
138.0
  0
LWPOLYLINE
  5
52
330
17
100
AcDbEntity
  8
0
 62
0
100
AcDbPolyline
 90
346
 70
0
 10
164.261
 20
69.0
 10
152.261
 20
69.0
 10
134.261
 20
69.0
 10
122.261
 20
69.0
 10
122.261
 20
81.0
 10
122.261
 20
109.0
 10
134.261
 20
109.0
 10
134.261
 20
81.0
 10
152.261
 20
81.0
 10
152.261
 20
129.0
 10
164.261
 20
129.0
 10
164.261
 20
128.99927318196816
 10
164.2762716072103
 20
128.99997667774693
 10
164.45953003893067
 20
128.99941694497863
 10
164.49007268348356
 20
128.99923036825948
 10
164.67332427682064
 20
128.99755119084134
 10
164.70386521179086
 20
128.99717804436526
 10
164.8871031286165
 20
128.9943794849566
 10
164.91764121435315
 20
128.99381978264773
 10
165.10085861704965
 20
128.98990194567833
 10
165.13139271400908
 20
128.98915570842223
 10
165.31458276572417
 20
128.98411874008812
 10
165.34511173450966
 20
128.98318599573105
 10
165.52826759941166
 20
128.97703008398935
 10
165.55879030081945
 20
128.97591086733718
 10
165.74190514435242
 20
128.96863624189893
 10
165.77242043941243
 20
128.96733059471572
 10
165.95548742855118
 20
128.9589375270373
 10
165.98599417856835
 20
128.95744549804405
 10
166.1690064820733
 20
128.9479343013172
 10
166.199503548674
 20
128.94625594618964
 10
166.3824543373463
 20
128.93562697532948
 10
166.41294058251478
 20
128.93376235669643
 10
166.59582302945105
 20
128.92201600832863
 10
166.62629731557902
 20
128.91996519576918
 10
166.809104596426
 20
128.9071019082147
 10
166.83956578634877
 20
128.90486497825606
 10
167.0222910795581
 20
128.89088523151526
 10
167.05273803660054
 20
128.8884622676296
 10
167.23537452368328
 20
128.87336658336386
 10
167.26580611170212
 20
128.8707576759653
 10
167.44834697748317
 20
128.85454661747798
 10
167.47876206090723
 20
128.85175186391928
 10
167.66120049377963
 20
128.83442603613437
 10
167.69159793765468
 20
128.83144554070324
 10
167.87392712983387
 20
128.81300559014298
 10
167.90430579986324
 20
128.80983946405814
 10
168.08651894764094
 20
128.79028607881884
 10
168.11687771022957
 20
128.78693444022585
 10
168.29896801422782
 20
128.7662683499522
 10
168.32930573652163
 20
128.7627313239193
 10
168.51126640194644
 20
128.7409532997772
 10
168.54158195187833
 20
128.7372310182903
 10
168.72340618877323
 20
128.71434187293795
 10
168.75369843510293
 20
128.71043447489586
 10
168.93537945860237
 20
128.68643506245363
 10
168.96564727095875
 20
128.68234269366295
 10
169.14717830154123
 20
128.65723390968128
 10
169.1774205504648
 20
128.65295672285097
 10
169.3587948142059
 20
128.6267395042772
 10
169.38901037119214
 20
128.62227765901258
 10
169.57022110001728
 20
128.59495298415575
 10
169.60040883755678
 20
128.59030664695294
 10
169.7814492694938
 20
128.56187553544746
 10
169.8116080611152
 20
128.55704487968694
 10
169.99247144054658
 20
128.52750839245448
 10
170.02260016085944
 20
128.52249359839465
 10
170.20327973877454
 20
128.49185283760448
 10
170.2333772635096
 20
128.48665409237503
 10
170.41386629775639
 20
128.45491020140307
 10
170.4439315038095
 20
128.44952769899777
 10
170.62422325934617
 20
128.4166818623837
 10
170.65425502481799
 20
128.41111580365356
 10
170.83434277396435
 20
128.37716924705677
 10
170.8643399782046
 20
128.371419839702
 10
171.044217000893
 20
128.33637382985586
 10
171.07417852453983
 20
128.3304412884187
 10
171.253838108566
 20
128.29429713308326
 10
171.28376283358983
 20
128.28818167893954
 10
171.46319827486337
 20
128.2509407268526
 10
171.49308508460814
 20
128.24464258820353
 10
171.67228968740267
 20
128.20630622903056
 10
171.70213746662594
 20
128.1998256408946
 10
171.88110454382883
 20
128.16039530517665
 10
171.91091217874526
 20
128.1537325093803
 10
172.08963505210735
 20
128.1132096684808
 10
172.11940143043046
 20
128.10636491364954
 10
172.29787343081523
 20
128.06475107969925
 10
172.32759744179577
 20
128.05772462124898
 10
172.50581190942805
 20
128.01502134708971
 10
172.53549244390047
 20
128.00781344721605
 10
172.7134427286151
 20
127.96402232634259
 10
172.7430786790344
 20
127.95663325401219
 10
172.92075814052436
 20
127.91175592051283
 10
172.95034840100936
 20
127.90418595145283
 10
173.12775040907354
 20
127.85822407994857
 10
173.15729387544877
 20
127.85047349663617
 10
173.33441181023935
 20
127.80342880221805
 10
173.36390738007492
 20
127.79549789387032
 10
173.54073463234442
 20
127.74737213203545
 10
173.57018120499828
 20
127.73926119459824
 10
173.74671117634625
 20
127.69005616118434
 10
173.77610765300335
 20
127.68176549732173
 10
173.95233375612244
 20
127.63148302844014
 10
173.98167903983898
 20
127.62301294752228
 10
174.15759469876093
 20
127.57165491948933
 10
174.18688769450176
 20
127.56300573758188
 10
174.36248634484264
 20
127.51057406684902
 10
174.39172595952493
 20
127.50174610670052
 10
174.56700104873013
 20
127.44824274978268
 10
174.59618619126218
 20
127.43923634081315
 10
174.771131178851
 20
127.38466329421581
 10
174.80026076017447
 20
127.37547877250395
 10
174.9748691179841
 20
127.3198380726486
 10
175.00394205111337
 20
127.31047578091967
 10
175.1782072635425
 20
127.2537695040678
 10
175.20722246360586
 20
127.24422979168062
 10
175.38113802785784
 20
127.18646005385638
 10
175.41009441213816
 20
127.17674327679022
 10
175.5836538384637
 20
127.11791223370125
 10
175.61255032643888
 20
127.10801875454254
 10
175.78574713837799
 20
127.04812860149971
 10
175.81458265175982
 20
127.03805878942904
 10
175.98741038638386
 20
126.97711176126442
 10
176.01618384916102
 20
126.96686599204176
 10
176.18863605731354
 20
126.90486436302525
 10
176.21734639578904
 20
126.8944430189769
 10
176.38941664232655
 20
126.83138910273144
 10
176.4180627851593
 20
126.82079257273521
 10
176.58974464919146
 20
126.7566887221503
 10
176.61832552743564
 20
126.74591740162128
 10
176.7896126025648
 20
126.68076600876532
 10
176.81812714971022
 20
126.66982029964086
 10
176.98901304427045
 20
126.60362379567181
 10
177.01746019628203
 20
126.59250410639673
 10
177.18793853357766
 20
126.52526496147142
 10
177.21631722893542
 20
126.5139717069826
 10
177.38638164747903
 20
126.44569243016454
 10
177.41469082721687
 20
126.43422603187574
 10
177.58433498096662
 20
126.36490917104152
 10
177.61257358871313
 20
126.35327005682723
 10
177.78179114730955
 20
126.2829181985714
 10
177.80995812932625
 20
126.27110680275128
 10
177.97874277832847
 20
126.19972257228986
 10
178.0068370835498
 20
126.18773933561228
 10
178.1751825246713
 20
126.1153253966848
 10
178.2032031047439
 20
126.10317076631037
 10
178.3711030560873
 20
126.02972982108048
 10
178.39904886540893
 20
126.01740425056542
 10
178.5664970617006
 20
125.94293903952
 10
178.59436705745827
 20
125.93044298879967
 10
178.76135725028206
 20
125.85495629064664
 10
178.7891503924931
 20
125.84229022601733
 10
178.95567635052348
 20
125.76578485758193
 10
178.98339160207192
 20
125.75294925168461
 10
179.14944711130653
 20
125.67542806780429
 10
179.17708343798384
 20
125.66242339960604
 10
179.34266230197537
 20
125.5838892930239
 10
179.37021867251713
 20
125.57071604780094
 10
179.53531471260447
 20
125.49117194905787
 10
179.56279009873083
 20
125.47783061837646
 10
179.7273971542698
 20
125.39727949570171
 10
179.75479053072274
 20
125.38377057740038
 10
179.9189024593158
 20
125.30221543660078
 10
179.94621280389663
 20
125.28853943477216
 10
180.10982348162216
 20
125.20598331912004
 10
180.1370497752317
 20
125.19214074409099
 10
180.30015309687252
 20
125.10858673421055
 10
180.32729432354756
 20
125.09457810252391
 10
180.48988420281879
 20
125.01002931627627
 10
180.51693934976998
 20
124.99585515067162
 10
180.67900971954603
 20
124.91031474303858
 10
180.705977777197
 20
124.89597557243195
 10
180.86752258973814
 20
124.8094467353981
 10
180.89440255176177
 20
124.79494309486317
 10
181.0554157789396
 20
124.70742905729688
 10
181.08220664229577
 20
124.6927614880447
 10
181.24268227581837
 20
124.6042655155776
 10
181.26938304079266
 20
124.58943456493584
 10
181.42931509242865
 20
124.49995995984096
 10
181.45592476266808
 20
124.48496618123431
 10
181.6153072644701
 20
124.3945162823029
 10
181.64182484702076
 20
124.3793602352321
 10
181.80065185154822
 20
124.28793841764897
 10
181.82707635689314
 20
124.27262066766957
 10
181.98534193743416
 20
124.1802303428872
 10
182.0116723795289
 20
124.16475146158916
 10
182.16937063032134
 20
124.07139607720035
 10
182.19560602663222
 20
124.05575664218591
 10
182.35273106308418
 20
123.96143968179517
 10
182.37887043462314
 20
123.94564027665837
 10
182.53541639353253
 20
123.85036525975194
 10
182.56145876489623
 20
123.83440647405523
 10
182.71741980466948
 20
123.7381769558697
 10
182.74336420407298
 20
123.72205938512366
 10
182.89873450494315
 20
123.62487895651333
 10
182.9245799642572
 20
123.60860320215382
 10
183.07935372850102
 20
123.51047548945674
 10
183.10509928328997
 20
123.49404215882126
 10
183.25927073544435
 20
123.39497082372382
 10
183.2849154249987
 20
123.37838053003114
 10
183.438478812076
 20
123.27836926943152
 10
183.46402167945112
 20
123.26162263175686
 10
183.61697127115403
 20
123.16067517762707
 10
183.64241136320453
 20
123.14377282087996
 10
183.79474145213985
 20
123.0418929401265
 10
183.82007781955573
 20
123.02483549502699
 10
183.97178272144725
 20
122.92202698935037
 10
183.99701441878858
 20
122.90481509240605
 10
184.14808847268935
 20
122.80108179815893
 10
184.17321455842225
 20
122.78371609164064
 10
184.3236521269257
 20
122.67906187968461
 10
184.71221419920803
 20
122.37942346029581
 10
185.06953553790615
 20
122.04314213863023
 10
185.39217494319666
 20
121.67345648764561
 10
185.67702522123403
 20
121.2739267822516
 10
185.92134310812568
 20
120.84840071191638
 10
186.12277568906313
 20
120.40097632531342
 10
186.27938305817776
 20
119.9359625638728
 10
186.3896570008946
 20
119.45783776431955
 10
186.4525355188635
 20
118.97120652984299
 10
186.46741305758349
 20
118.4807553852508
 10
186.43414633822383
 20
117.99120764317328
 10
186.35305573747735
 20
117.50727791598064
 10
186.2249222021579
 20
117.03362671148867
 10
186.05097972825553
 20
116.57481554972071
 10
185.83290347688052
 20
116.13526303297625
 10
185.57279364154624
 20
115.71920229227541
 10
185.2731552221574
 20
115.33064021999309
 10
184.93687390049186
 20
114.97331888129497
 10
184.5671882495072
 20
114.65067947600446
 10
184.16765854411324
 20
114.36582919796712
 10
183.74213247377799
 20
114.12151131107545
 10
183.29470808717505
 20
113.92007873013799
 10
182.8296943257344
 20
113.76347136102339
 10
182.35156952618118
 20
113.65319741830652
 10
181.86493829170462
 20
113.59031890033762
 10
181.3744871471124
 20
113.57544136161764
 10
180.88493940503488
 20
113.60870808097731
 10
180.40100967784227
 20
113.68979868172377
 10
179.9273584733503
 20
113.81793221704322
 10
179.4685473115823
 20
113.99187469094562
 10
179.02899479483787
 20
114.20995094232063
 10
178.61293405413704
 20
114.47006077765491
 10
178.4750330081509
 20
114.56599376460198
 10
178.34913808068126
 20
114.65243809583046
 10
178.22271744704182
 20
114.73811177063666
 10
178.09577582468472
 20
114.82301159206253
 10
177.9683179505052
 20
114.90713439202536
 10
177.8403485806556
 20
114.99047703144211
 10
177.71187249038172
 20
115.07303640033737
 10
177.5828944738349
 20
115.15480941796588
 10
177.45341934389654
 20
115.23579303292523
 10
177.32345193199853
 20
115.31598422326962
 10
177.19299708794048
 20
115.39537999662427
 10
177.06205967971542
 20
115.47397739029302
 10
176.93064459331882
 20
115.55177347137442
 10
176.7987567325716
 20
115.62876533686807
 10
176.6664010189384
 20
115.70495011378219
 10
176.5335823913438
 20
115.78032495924084
 10
176.4003058059803
 20
115.85488706059456
 10
176.26657623613335
 20
115.9286336355196
 10
176.13239867199226
 20
116.00156193212362
 10
175.99777812046176
 20
116.07366922904984
 10
175.8627196049772
 20
116.1449528355772
 10
175.72722816531717
 20
116.21541009172097
 10
175.5913088574144
 20
116.28503836833242
 10
175.45496675316994
 20
116.35383506719545
 10
175.31820694025785
 20
116.42179762112674
 10
175.18103452194381
 20
116.48892349406717
 10
175.04345461688393
 20
116.55521018118185
 10
174.90547235894857
 20
116.62065520894635
 10
174.76709289701284
 20
116.68525613524757
 10
174.62832139477942
 20
116.74901054946787
 10
174.48916303057942
 20
116.81191607257793
 10
174.34962299718111
 20
116.8739703572248
 10
174.20970650158836
 20
116.93517108782284
 10
174.06941876486079
 20
116.99551598063366
 10
173.92876502190734
 20
117.0550027838566
 10
173.78775052129487
 20
117.113629277711
 10
173.64638052505475
 20
117.17139327451791
 10
173.50466030847792
 20
117.22829261878542
 10
173.36259515993027
 20
117.28432518728393
 10
173.220190380646
 20
117.33948888912931
 10
173.07745128453166
 20
117.39378166586008
 10
172.93438319797238
 20
117.4472014915124
 10
172.79099145962735
 20
117.49974637269806
 10
172.64728142023358
 20
117.55141434867758
 10
172.50325844240513
 20
117.60220349143385
 10
172.35892790043442
 20
117.65211190574357
 10
172.21429518009012
 20
117.70113772924849
 10
172.06936567841817
 20
117.74927913252426
 10
171.9241448035353
 20
117.79653431915037
 10
171.77863797443771
 20
117.84290152577373
 10
171.632850620785
 20
117.88837902217901
 10
171.48678818270756
 20
117.93296511134997
 10
171.34045611060253
 20
117.97665812953305
 10
171.19385986492645
 20
118.01945644630084
 10
171.04700491599436
 20
118.06135846461191
 10
170.8998967437738
 20
118.10236262087102
 10
170.75254083768465
 20
118.14246738498622
 10
170.60494269638505
 20
118.1816712604285
 10
170.4571078275793
 20
118.21997278428407
 10
170.3090417478013
 20
118.25737052731199
 10
170.16074998221367
 20
118.29386309399601
 10
170.01223806440012
 20
118.3294491225972
 10
169.86351153615777
 20
118.364127285205
 10
169.7145759472983
 20
118.39789628778473
 10
169.56543685542673
 20
118.43075487022949
 10
169.41609982574727
 20
118.4627018064038
 10
169.26657043084728
 20
118.49373590419147
 10
169.11685425049532
 20
118.52385600553872
 10
168.96695687142778
 20
118.55306098649847
 10
168.8168838871402
 20
118.58134975727222
 10
168.66664089768759
 20
118.60872126224916
 10
168.5162335094642
 20
118.63517448004751
 10
168.36566733499657
 20
118.6607084235523
 10
168.21494799274228
 20
118.6853221399507
 10
168.06408110687124
 20
118.70901471076922
 10
167.9130723070586
 20
118.73178525190744
 10
167.76192722827693
 20
118.75363291367069
 10
167.61065151058358
 20
118.77455688080205
 10
167.4592507989075
 20
118.79455637251328
 10
167.3077307428479
 20
118.81363064251252
 10
167.15609699645236
 20
118.83177897903377
 10
167.00435521801316
 20
118.84900070486238
 10
166.85251106985262
 20
118.86529517736079
 10
166.70057021811428
 20
118.8806617884923
 10
166.5485383325517
 20
118.89509996484364
 10
166.39642108630994
 20
118.90860916764711
 10
166.24422415572474
 20
118.92118889279965
 10
166.09195322010265
 20
118.93283867088236
 10
165.93961396151425
 20
118.9435580671776
 10
165.78721206457453
 20
118.95334668168576
 10
165.63475321624364
 20
118.96220414913938
 10
165.4822431055988
 20
118.97013013901767
 10
165.32968742363437
 20
118.97712435555817
 10
165.17709186304535
 20
118.98318653776802
 10
165.02446211801606
 20
118.9883164594337
 10
164.87180388400006
 20
118.9925139291297
 10
164.71912285752182
 20
118.9957787902251
 10
164.56642473595133
 20
118.99811092089001
 10
164.41371521730008
 20
118.99951023409972
 10
164.261
 20
118.99997667763814
 10
164.261
 20
81.0
 10
164.261
 20
69.0
  0
ENDSEC
  0
SECTION
  2
OBJECTS
  0
DICTIONARY
  5
A
330
0
100
AcDbDictionary
280
0
281
1
  3
ACAD_COLOR
350
B
  3
ACAD_GROUP
350
C
  3
ACAD_LAYOUT
350
D
  3
ACAD_MATERIAL
350
E
  3
ACAD_MLEADERSTYLE
350
F
  3
ACAD_MLINESTYLE
350
10
  3
ACAD_PLOTSETTINGS
350
11
  3
ACAD_PLOTSTYLENAME
350
12
  3
ACAD_SCALELIST
350
14
  3
ACAD_TABLESTYLE
350
15
  3
ACAD_VISUALSTYLE
350
16
  3
EZDXF_META
350
2D
  0
DICTIONARY
  5
B
330
A
100
AcDbDictionary
280
0
281
1
  0
DICTIONARY
  5
C
330
A
100
AcDbDictionary
280
0
281
1
  0
DICTIONARY
  5
D
330
A
100
AcDbDictionary
280
0
281
1
  3
Model
350
1A
  3
Layout1
350
1E
  0
DICTIONARY
  5
E
330
A
100
AcDbDictionary
280
0
281
1
  3
ByBlock
350
1F
  3
ByLayer
350
20
  3
Global
350
21
  0
DICTIONARY
  5
F
330
A
100
AcDbDictionary
280
0
281
1
  3
Standard
350
2C
  0
DICTIONARY
  5
10
330
A
100
AcDbDictionary
280
0
281
1
  3
Standard
350
22
  0
DICTIONARY
  5
11
330
A
100
AcDbDictionary
280
0
281
1
  0
ACDBDICTIONARYWDFLT
  5
12
330
A
100
AcDbDictionary
280
0
281
1
  3
Normal
350
13
100
AcDbDictionaryWithDefault
340
13
  0
ACDBPLACEHOLDER
  5
13
330
12
  0
DICTIONARY
  5
14
330
A
100
AcDbDictionary
280
0
281
1
  0
DICTIONARY
  5
15
330
A
100
AcDbDictionary
280
0
281
1
  0
DICTIONARY
  5
16
330
A
100
AcDbDictionary
280
0
281
1
  0
LAYOUT
  5
1A
330
D
100
AcDbPlotSettings
  1

  2
Adobe PDF
  4
A3
  6

 40
7.5
 41
20.0
 42
7.5
 43
20.0
 44
420.0
 45
297.0
 46
0.0
 47
0.0
 48
0.0
 49
0.0
140
0.0
141
0.0
142
1.0
143
1.0
 70
1024
 72
1
 73
0
 74
5
  7

 75
16
 76
0
 77
2
 78
300
147
1.0
148
0.0
149
0.0
100
AcDbLayout
  1
Model
 70
1
 71
0
 10
0.0
 20
0.0
 11
420.0
 21
297.0
 12
0.0
 22
0.0
 32
0.0
 14
1e+20
 24
1e+20
 34
1e+20
 15
-1e+20
 25
-1e+20
 35
-1e+20
146
0.0
 13
0.0
 23
0.0
 33
0.0
 16
1.0
 26
0.0
 36
0.0
 17
0.0
 27
1.0
 37
0.0
 76
1
330
17
  0
LAYOUT
  5
1E
330
D
100
AcDbPlotSettings
  1

  2
Adobe PDF
  4
A3
  6

 40
7.5
 41
20.0
 42
7.5
 43
20.0
 44
420.0
 45
297.0
 46
0.0
 47
0.0
 48
0.0
 49
0.0
140
0.0
141
0.0
142
1.0
143
1.0
 70
0
 72
1
 73
0
 74
5
  7

 75
16
 76
0
 77
2
 78
300
147
1.0
148
0.0
149
0.0
100
AcDbLayout
  1
Layout1
 70
1
 71
1
 10
0.0
 20
0.0
 11
420.0
 21
297.0
 12
0.0
 22
0.0
 32
0.0
 14
1e+20
 24
1e+20
 34
1e+20
 15
-1e+20
 25
-1e+20
 35
-1e+20
146
0.0
 13
0.0
 23
0.0
 33
0.0
 16
1.0
 26
0.0
 36
0.0
 17
0.0
 27
1.0
 37
0.0
 76
1
330
1B
  0
MATERIAL
  5
1F
102
{ACAD_REACTORS
330
E
102
}
330
E
100
AcDbMaterial
  1
ByBlock
  2

 70
0
 40
1.0
 71
1
 41
1.0
 91
-1023410177
 42
1.0
 72
1
  3

 73
1
 74
1
 75
1
 44
0.5
 73
0
 45
1.0
 46
1.0
 77
1
  4

 78
1
 79
1
170
1
 48
1.0
171
1
  6

172
1
173
1
174
1
140
1.0
141
1.0
175
1
  7

176
1
177
1
178
1
143
1.0
179
1
  8

270
1
271
1
272
1
145
1.0
146
1.0
273
1
  9

274
1
275
1
276
1
 42
1.0
 72
1
  3

 73
1
 74
1
 75
1
 94
63
  0
MATERIAL
  5
20
102
{ACAD_REACTORS
330
E
102
}
330
E
100
AcDbMaterial
  1
ByLayer
  2

 70
0
 40
1.0
 71
1
 41
1.0
 91
-1023410177
 42
1.0
 72
1
  3

 73
1
 74
1
 75
1
 44
0.5
 73
0
 45
1.0
 46
1.0
 77
1
  4

 78
1
 79
1
170
1
 48
1.0
171
1
  6

172
1
173
1
174
1
140
1.0
141
1.0
175
1
  7

176
1
177
1
178
1
143
1.0
179
1
  8

270
1
271
1
272
1
145
1.0
146
1.0
273
1
  9

274
1
275
1
276
1
 42
1.0
 72
1
  3

 73
1
 74
1
 75
1
 94
63
  0
MATERIAL
  5
21
102
{ACAD_REACTORS
330
E
102
}
330
E
100
AcDbMaterial
  1
Global
  2

 70
0
 40
1.0
 71
1
 41
1.0
 91
-1023410177
 42
1.0
 72
1
  3

 73
1
 74
1
 75
1
 44
0.5
 73
0
 45
1.0
 46
1.0
 77
1
  4

 78
1
 79
1
170
1
 48
1.0
171
1
  6

172
1
173
1
174
1
140
1.0
141
1.0
175
1
  7

176
1
177
1
178
1
143
1.0
179
1
  8

270
1
271
1
272
1
145
1.0
146
1.0
273
1
  9

274
1
275
1
276
1
 42
1.0
 72
1
  3

 73
1
 74
1
 75
1
 94
63
  0
MLINESTYLE
  5
22
102
{ACAD_REACTORS
330
10
102
}
330
10
100
AcDbMlineStyle
  2
Standard
 70
0
  3

 62
256
 51
90.0
 52
90.0
 71
2
 49
0.5
 62
256
  6
BYLAYER
 49
-0.5
 62
256
  6
BYLAYER
  0
MLEADERSTYLE
  5
2C
102
{ACAD_REACTORS
330
F
102
}
330
F
100
AcDbMLeaderStyle
179
2
170
2
171
1
172
0
 90
2
 40
0.0
 41
0.0
173
1
 91
-1056964608
 92
-2
290
1
 42
2.0
291
1
 43
8.0
  3
Standard
 44
4.0
300

342
29
174
1
175
1
176
0
178
1
 93
-1056964608
 45
4.0
292
0
297
0
 46
4.0
 94
-1056964608
 47
1.0
 49
1.0
140
1.0
294
1
141
0.0
177
0
142
1.0
295
0
296
0
143
3.75
271
0
272
9
273
9
  0
DICTIONARY
  5
2D
330
A
100
AcDbDictionary
281
1
  3
CREATED_BY_EZDXF
350
2E
  3
WRITTEN_BY_EZDXF
350
55
  0
DICTIONARYVAR
  5
2E
330
2D
100
DictionaryVariables
280
0
  1
1.1.1 @ 2024-04-16T21:58:34.533681+00:00
  0
DICTIONARYVAR
  5
55
330
2D
100
DictionaryVariables
280
0
  1
1.1.1 @ 2024-04-16T21:58:34.561096+00:00
  0
ENDSEC
  0
EOF
