  0
SECTION
  2
HEADER
  9
$ACADVER
  1
AC1024
  9
$ACADMAINTVER
 70
6
  9
$DWGCODEPAGE
  3
ANSI_1252
  9
$LASTSAVEDBY
  1
ezdxf
  9
$INSBASE
 10
0.0
 20
0.0
 30
0.0
  9
$EXTMIN
 10
1e+20
 20
1e+20
 30
1e+20
  9
$EXTMAX
 10
-1e+20
 20
-1e+20
 30
-1e+20
  9
$LIMMIN
 10
0.0
 20
0.0
  9
$LIMMAX
 10
420.0
 20
297.0
  9
$ORTHOMODE
 70
0
  9
$REGENMODE
 70
1
  9
$FILLMODE
 70
1
  9
$QTEXTMODE
 70
0
  9
$MIRRTEXT
 70
1
  9
$LTSCALE
 40
1.0
  9
$ATTMODE
 70
1
  9
$TEXTSIZE
 40
2.5
  9
$TRACEWID
 40
1.0
  9
$TEXTSTYLE
  7
Standard
  9
$CLAYER
  8
0
  9
$CELTYPE
  6
ByLayer
  9
$CECOLOR
 62
256
  9
$CELTSCALE
 40
1.0
  9
$DISPSILH
 70
0
  9
$DIMSCALE
 40
1.0
  9
$DIMASZ
 40
2.5
  9
$DIMEXO
 40
0.625
  9
$DIMDLI
 40
3.75
  9
$DIMRND
 40
0.0
  9
$DIMDLE
 40
0.0
  9
$DIMEXE
 40
1.25
  9
$DIMTP
 40
0.0
  9
$DIMTM
 40
0.0
  9
$DIMTXT
 40
2.5
  9
$DIMCEN
 40
2.5
  9
$DIMTSZ
 40
0.0
  9
$DIMTOL
 70
0
  9
$DIMLIM
 70
0
  9
$DIMTIH
 70
0
  9
$DIMTOH
 70
0
  9
$DIMSE1
 70
0
  9
$DIMSE2
 70
0
  9
$DIMTAD
 70
1
  9
$DIMZIN
 70
8
  9
$DIMBLK
  1

  9
$DIMASO
 70
1
  9
$DIMSHO
 70
1
  9
$DIMPOST
  1

  9
$DIMAPOST
  1

  9
$DIMALT
 70
0
  9
$DIMALTD
 70
3
  9
$DIMALTF
 40
0.03937007874
  9
$DIMLFAC
 40
1.0
  9
$DIMTOFL
 70
1
  9
$DIMTVP
 40
0.0
  9
$DIMTIX
 70
0
  9
$DIMSOXD
 70
0
  9
$DIMSAH
 70
0
  9
$DIMBLK1
  1

  9
$DIMBLK2
  1

  9
$DIMSTYLE
  2
ISO-25
  9
$DIMCLRD
 70
0
  9
$DIMCLRE
 70
0
  9
$DIMCLRT
 70
0
  9
$DIMTFAC
 40
1.0
  9
$DIMGAP
 40
0.625
  9
$DIMJUST
 70
0
  9
$DIMSD1
 70
0
  9
$DIMSD2
 70
0
  9
$DIMTOLJ
 70
0
  9
$DIMTZIN
 70
8
  9
$DIMALTZ
 70
0
  9
$DIMALTTZ
 70
0
  9
$DIMUPT
 70
0
  9
$DIMDEC
 70
2
  9
$DIMTDEC
 70
2
  9
$DIMALTU
 70
2
  9
$DIMALTTD
 70
3
  9
$DIMTXSTY
  7
Standard
  9
$DIMAUNIT
 70
0
  9
$DIMADEC
 70
0
  9
$DIMALTRND
 40
0.0
  9
$DIMAZIN
 70
0
  9
$DIMDSEP
 70
44
  9
$DIMATFIT
 70
3
  9
$DIMFRAC
 70
0
  9
$DIMLDRBLK
  1

  9
$DIMLUNIT
 70
2
  9
$DIMLWD
 70
-2
  9
$DIMLWE
 70
-2
  9
$DIMTMOVE
 70
0
  9
$DIMFXL
 40
1.0
  9
$DIMFXLON
 70
0
  9
$DIMJOGANG
 40
0.785398163397
  9
$DIMTFILL
 70
0
  9
$DIMTFILLCLR
 70
0
  9
$DIMARCSYM
 70
0
  9
$DIMLTYPE
  6

  9
$DIMLTEX1
  6

  9
$DIMLTEX2
  6

  9
$DIMTXTDIRECTION
 70
0
  9
$LUNITS
 70
2
  9
$LUPREC
 70
4
  9
$SKETCHINC
 40
1.0
  9
$FILLETRAD
 40
10.0
  9
$AUNITS
 70
0
  9
$AUPREC
 70
2
  9
$MENU
  1
.
  9
$ELEVATION
 40
0.0
  9
$PELEVATION
 40
0.0
  9
$THICKNESS
 40
0.0
  9
$LIMCHECK
 70
0
  9
$CHAMFERA
 40
0.0
  9
$CHAMFERB
 40
0.0
  9
$CHAMFERC
 40
0.0
  9
$CHAMFERD
 40
0.0
  9
$SKPOLY
 70
0
  9
$TDCREATE
 40
2460461.7586458335
  9
$TDUCREATE
 40
2458532.153996898
  9
$TDUPDATE
 40
2460461.7586458335
  9
$TDUUPDATE
 40
2458532.1544311
  9
$TDINDWG
 40
0.0
  9
$TDUSRTIMER
 40
0.0
  9
$USRTIMER
 70
1
  9
$ANGBASE
 50
0.0
  9
$ANGDIR
 70
0
  9
$PDMODE
 70
0
  9
$PDSIZE
 40
0.0
  9
$PLINEWID
 40
0.0
  9
$SPLFRAME
 70
0
  9
$SPLINETYPE
 70
6
  9
$SPLINESEGS
 70
8
  9
$HANDSEED
  5
62
  9
$SURFTAB1
 70
6
  9
$SURFTAB2
 70
6
  9
$SURFTYPE
 70
6
  9
$SURFU
 70
6
  9
$SURFV
 70
6
  9
$UCSBASE
  2

  9
$UCSNAME
  2

  9
$UCSORG
 10
0.0
 20
0.0
 30
0.0
  9
$UCSXDIR
 10
1.0
 20
0.0
 30
0.0
  9
$UCSYDIR
 10
0.0
 20
1.0
 30
0.0
  9
$UCSORTHOREF
  2

  9
$UCSORTHOVIEW
 70
0
  9
$UCSORGTOP
 10
0.0
 20
0.0
 30
0.0
  9
$UCSORGBOTTOM
 10
0.0
 20
0.0
 30
0.0
  9
$UCSORGLEFT
 10
0.0
 20
0.0
 30
0.0
  9
$UCSORGRIGHT
 10
0.0
 20
0.0
 30
0.0
  9
$UCSORGFRONT
 10
0.0
 20
0.0
 30
0.0
  9
$UCSORGBACK
 10
0.0
 20
0.0
 30
0.0
  9
$PUCSBASE
  2

  9
$PUCSNAME
  2

  9
$PUCSORG
 10
0.0
 20
0.0
 30
0.0
  9
$PUCSXDIR
 10
1.0
 20
0.0
 30
0.0
  9
$PUCSYDIR
 10
0.0
 20
1.0
 30
0.0
  9
$PUCSORTHOREF
  2

  9
$PUCSORTHOVIEW
 70
0
  9
$PUCSORGTOP
 10
0.0
 20
0.0
 30
0.0
  9
$PUCSORGBOTTOM
 10
0.0
 20
0.0
 30
0.0
  9
$PUCSORGLEFT
 10
0.0
 20
0.0
 30
0.0
  9
$PUCSORGRIGHT
 10
0.0
 20
0.0
 30
0.0
  9
$PUCSORGFRONT
 10
0.0
 20
0.0
 30
0.0
  9
$PUCSORGBACK
 10
0.0
 20
0.0
 30
0.0
  9
$USERI1
 70
0
  9
$USERI2
 70
0
  9
$USERI3
 70
0
  9
$USERI4
 70
0
  9
$USERI5
 70
0
  9
$USERR1
 40
0.0
  9
$USERR2
 40
0.0
  9
$USERR3
 40
0.0
  9
$USERR4
 40
0.0
  9
$USERR5
 40
0.0
  9
$WORLDVIEW
 70
1
  9
$SHADEDGE
 70
3
  9
$SHADEDIF
 70
70
  9
$TILEMODE
 70
1
  9
$MAXACTVP
 70
64
  9
$PINSBASE
 10
0.0
 20
0.0
 30
0.0
  9
$PLIMCHECK
 70
0
  9
$PEXTMIN
 10
1e+20
 20
1e+20
 30
1e+20
  9
$PEXTMAX
 10
-1e+20
 20
-1e+20
 30
-1e+20
  9
$PLIMMIN
 10
0.0
 20
0.0
  9
$PLIMMAX
 10
420.0
 20
297.0
  9
$UNITMODE
 70
0
  9
$VISRETAIN
 70
1
  9
$PLINEGEN
 70
0
  9
$PSLTSCALE
 70
1
  9
$TREEDEPTH
 70
3020
  9
$CMLSTYLE
  2
Standard
  9
$CMLJUST
 70
0
  9
$CMLSCALE
 40
20.0
  9
$PROXYGRAPHICS
 70
1
  9
$MEASUREMENT
 70
1
  9
$CELWEIGHT
370
-1
  9
$ENDCAPS
280
0
  9
$JOINSTYLE
280
0
  9
$LWDISPLAY
290
0
  9
$INSUNITS
 70
4
  9
$HYPERLINKBASE
  1

  9
$STYLESHEET
  1

  9
$XEDIT
290
1
  9
$CEPSNTYPE
380
0
  9
$PSTYLEMODE
290
1
  9
$FINGERPRINTGUID
  2
{7E5EE0FC-D8B5-44F6-AD93-5EA64E80D6E9}
  9
$VERSIONGUID
  2
{C30A19A5-2655-4931-9A90-526D079A13B5}
  9
$EXTNAMES
290
1
  9
$PSVPSCALE
 40
0.0
  9
$OLESTARTUP
290
0
  9
$SORTENTS
280
127
  9
$INDEXCTL
280
0
  9
$HIDETEXT
280
1
  9
$XCLIPFRAME
280
0
  9
$HALOGAP
280
0
  9
$OBSCOLOR
 70
257
  9
$OBSLTYPE
280
0
  9
$INTERSECTIONDISPLAY
280
0
  9
$INTERSECTIONCOLOR
 70
257
  9
$DIMASSOC
280
2
  9
$PROJECTNAME
  1

  9
$CAMERADISPLAY
290
0
  9
$LENSLENGTH
 40
50.0
  9
$CAMERAHEIGHT
 40
0.0
  9
$STEPSPERSEC
 40
24.0
  9
$STEPSIZE
 40
100.0
  9
$3DDWFPREC
 40
2.0
  9
$PSOLWIDTH
 40
0.005
  9
$PSOLHEIGHT
 40
0.08
  9
$LOFTANG1
 40
1.570796326795
  9
$LOFTANG2
 40
1.570796326795
  9
$LOFTMAG1
 40
0.0
  9
$LOFTMAG2
 40
0.0
  9
$LOFTPARAM
 70
7
  9
$LOFTNORMALS
280
1
  9
$LATITUDE
 40
37.795
  9
$LONGITUDE
 40
-122.394
  9
$NORTHDIRECTION
 40
0.0
  9
$TIMEZONE
 70
-8000
  9
$LIGHTGLYPHDISPLAY
280
1
  9
$TILEMODELIGHTSYNCH
280
1
  9
$CMATERIAL
347
20
  9
$SOLIDHIST
280
0
  9
$SHOWHIST
280
1
  9
$DWFFRAME
280
2
  9
$DGNFRAME
280
2
  9
$REALWORLDSCALE
290
1
  9
$INTERFERECOLOR
 62
256
  9
$CSHADOW
280
0
  9
$SHADOWPLANELOCATION
 40
0.0
  0
ENDSEC
  0
SECTION
  2
CLASSES
  0
CLASS
  1
ACDBDICTIONARYWDFLT
  2
AcDbDictionaryWithDefault
  3
ObjectDBX Classes
 90
0
 91
0
280
0
281
0
  0
CLASS
  1
SUN
  2
AcDbSun
  3
SCENEOE
 90
1153
 91
0
280
0
281
0
  0
CLASS
  1
VISUALSTYLE
  2
AcDbVisualStyle
  3
ObjectDBX Classes
 90
4095
 91
0
280
0
281
0
  0
CLASS
  1
MATERIAL
  2
AcDbMaterial
  3
ObjectDBX Classes
 90
1153
 91
0
280
0
281
0
  0
CLASS
  1
SCALE
  2
AcDbScale
  3
ObjectDBX Classes
 90
1153
 91
0
280
0
281
0
  0
CLASS
  1
TABLESTYLE
  2
AcDbTableStyle
  3
ObjectDBX Classes
 90
4095
 91
0
280
0
281
0
  0
CLASS
  1
MLEADERSTYLE
  2
AcDbMLeaderStyle
  3
ACDB_MLEADERSTYLE_CLASS
 90
4095
 91
0
280
0
281
0
  0
CLASS
  1
DICTIONARYVAR
  2
AcDbDictionaryVar
  3
ObjectDBX Classes
 90
0
 91
0
280
0
281
0
  0
CLASS
  1
CELLSTYLEMAP
  2
AcDbCellStyleMap
  3
ObjectDBX Classes
 90
1152
 91
0
280
0
281
0
  0
CLASS
  1
MENTALRAYRENDERSETTINGS
  2
AcDbMentalRayRenderSettings
  3
SCENEOE
 90
1024
 91
0
280
0
281
0
  0
CLASS
  1
ACDBDETAILVIEWSTYLE
  2
AcDbDetailViewStyle
  3
ObjectDBX Classes
 90
1025
 91
0
280
0
281
0
  0
CLASS
  1
ACDBSECTIONVIEWSTYLE
  2
AcDbSectionViewStyle
  3
ObjectDBX Classes
 90
1025
 91
0
280
0
281
0
  0
CLASS
  1
RASTERVARIABLES
  2
AcDbRasterVariables
  3
ISM
 90
0
 91
0
280
0
281
0
  0
CLASS
  1
LAYOUT
  2
AcDbLayout
  3
ObjectDBX Classes
 90
0
 91
0
280
0
281
0
  0
CLASS
  1
ACDBPLACEHOLDER
  2
AcDbPlaceHolder
  3
ObjectDBX Classes
 90
0
 91
0
280
0
281
0
  0
ENDSEC
  0
SECTION
  2
TABLES
  0
TABLE
  2
VPORT
  5
8
330
0
100
AcDbSymbolTable
 70
1
  0
VPORT
  5
23
330
8
100
AcDbSymbolTableRecord
100
AcDbViewportTableRecord
  2
*Active
 70
0
 10
0.0
 20
0.0
 11
1.0
 21
1.0
 12
0.0
 22
0.0
 13
0.0
 23
0.0
 14
0.5
 24
0.5
 15
0.5
 25
0.5
 16
0.0
 26
0.0
 36
1.0
 17
0.0
 27
0.0
 37
0.0
 40
1000.0
 41
1.34
 42
50.0
 43
0.0
 44
0.0
 50
0.0
 51
0.0
 71
0
 72
1000
 73
1
 74
3
 75
0
 76
0
 77
0
 78
0
281
0
 65
0
146
0.0
  0
ENDTAB
  0
TABLE
  2
LTYPE
  5
2
330
0
100
AcDbSymbolTable
 70
3
  0
LTYPE
  5
24
330
2
100
AcDbSymbolTableRecord
100
AcDbLinetypeTableRecord
  2
ByBlock
 70
0
  3

 72
65
 73
0
 40
0.0
  0
LTYPE
  5
25
330
2
100
AcDbSymbolTableRecord
100
AcDbLinetypeTableRecord
  2
ByLayer
 70
0
  3

 72
65
 73
0
 40
0.0
  0
LTYPE
  5
26
330
2
100
AcDbSymbolTableRecord
100
AcDbLinetypeTableRecord
  2
Continuous
 70
0
  3

 72
65
 73
0
 40
0.0
  0
ENDTAB
  0
TABLE
  2
LAYER
  5
1
330
0
100
AcDbSymbolTable
 70
4
  0
LAYER
  5
27
330
1
100
AcDbSymbolTableRecord
100
AcDbLayerTableRecord
  2
0
 70
0
 62
7
  6
Continuous
370
-3
390
13
347
21
  0
LAYER
  5
28
330
1
100
AcDbSymbolTableRecord
100
AcDbLayerTableRecord
  2
Defpoints
 70
0
 62
7
  6
Continuous
290
0
370
-3
390
13
347
21
  0
LAYER
  5
2F
330
1
100
AcDbSymbolTableRecord
100
AcDbLayerTableRecord
  2
text
 70
0
 62
7
  6
Continuous
370
-3
390
13
347
21
  0
LAYER
  5
30
330
1
100
AcDbSymbolTableRecord
100
AcDbLayerTableRecord
  2
default
 70
0
 62
7
  6
Continuous
370
-3
390
13
347
21
  0
ENDTAB
  0
TABLE
  2
STYLE
  5
5
330
0
100
AcDbSymbolTable
 70
1
  0
STYLE
  5
29
330
5
100
AcDbSymbolTableRecord
100
AcDbTextStyleTableRecord
  2
Standard
 70
0
 40
0.0
 41
1.0
 50
0.0
 71
0
 42
2.5
  3
txt
  4

  0
ENDTAB
  0
TABLE
  2
VIEW
  5
7
330
0
100
AcDbSymbolTable
 70
0
  0
ENDTAB
  0
TABLE
  2
UCS
  5
6
330
0
100
AcDbSymbolTable
 70
0
  0
ENDTAB
  0
TABLE
  2
APPID
  5
3
330
0
100
AcDbSymbolTable
 70
3
  0
APPID
  5
2A
330
3
100
AcDbSymbolTableRecord
100
AcDbRegAppTableRecord
  2
ACAD
 70
0
  0
APPID
  5
5F
330
3
100
AcDbSymbolTableRecord
100
AcDbRegAppTableRecord
  2
HATCHBACKGROUNDCOLOR
 70
0
  0
APPID
  5
60
330
3
100
AcDbSymbolTableRecord
100
AcDbRegAppTableRecord
  2
EZDXF
 70
0
  0
ENDTAB
  0
TABLE
  2
DIMSTYLE
  5
4
330
0
100
AcDbSymbolTable
 70
1
100
AcDbDimStyleTable
  0
DIMSTYLE
105
2B
330
4
100
AcDbSymbolTableRecord
100
AcDbDimStyleTableRecord
  2
Standard
 70
0
 40
1.0
 41
2.5
 42
0.625
 43
3.75
 44
1.25
 45
0.0
 46
0.0
 47
0.0
 48
0.0
 49
2.5
140
2.5
141
2.5
142
0.0
143
0.03937007874
144
1.0
145
0.0
146
1.0
147
0.625
148
0.0
 69
0
 70
0
 71
0
 72
0
 73
0
 74
0
 75
0
 76
0
 77
1
 78
8
 79
3
170
0
171
3
172
1
173
0
174
0
175
0
176
0
177
0
178
0
179
2
271
2
272
2
273
2
274
3
275
0
276
0
277
2
278
44
279
0
280
0
281
0
282
0
283
0
284
8
285
0
286
0
288
0
289
3
290
0
371
-2
372
-2
  0
ENDTAB
  0
TABLE
  2
BLOCK_RECORD
  5
9
330
0
100
AcDbSymbolTable
 70
2
  0
BLOCK_RECORD
  5
17
330
9
100
AcDbSymbolTableRecord
100
AcDbBlockTableRecord
  2
*Model_Space
340
1A
 70
0
280
1
281
0
  0
BLOCK_RECORD
  5
1B
330
9
100
AcDbSymbolTableRecord
100
AcDbBlockTableRecord
  2
*Paper_Space
340
1E
 70
0
280
1
281
0
  0
ENDTAB
  0
ENDSEC
  0
SECTION
  2
BLOCKS
  0
BLOCK
  5
18
330
17
100
AcDbEntity
  8
0
100
AcDbBlockBegin
  2
*Model_Space
 70
0
 10
0.0
 20
0.0
 30
0.0
  3
*Model_Space
  1

  0
ENDBLK
  5
19
330
17
100
AcDbEntity
  8
0
100
AcDbBlockEnd
  0
BLOCK
  5
1C
330
1B
100
AcDbEntity
  8
0
100
AcDbBlockBegin
  2
*Paper_Space
 70
0
 10
0.0
 20
0.0
 30
0.0
  3
*Paper_Space
  1

  0
ENDBLK
  5
1D
330
1B
100
AcDbEntity
  8
0
100
AcDbBlockEnd
  0
ENDSEC
  0
SECTION
  2
ENTITIES
  0
LWPOLYLINE
  5
31
330
17
100
AcDbEntity
  8
0
 62
0
100
AcDbPolyline
 90
71
 70
0
 10
87.448828125
 20
8.118820312499997
 10
87.59170312500001
 20
8.729007812499999
 10
87.78220312500001
 20
9.3082578125
 10
88.020328125
 20
9.8565703125
 10
88.306078125
 20
10.373945312500002
 10
88.639453125
 20
10.860382812500001
 10
88.82400000000001
 20
11.092
 10
89.01875000000001
 20
11.3126328125
 10
89.43375
 20
11.7111953125
 10
89.88275
 20
12.052820312500002
 10
90.36575
 20
12.3375078125
 10
90.88275
 20
12.5652578125
 10
91.43375
 20
12.736070312499999
 10
92.01875000000001
 20
12.849945312499997
 10
92.63775000000001
 20
12.9068828125
 10
92.96000000000001
 20
12.914
 10
93.28541406250001
 20
12.906906249999999
 10
93.9102265625
 20
12.850156249999998
 10
94.5003515625
 20
12.736656250000001
 10
95.05578906250001
 20
12.56640625
 10
95.5765390625
 20
12.339406250000001
 10
96.0626015625
 20
12.05565625
 10
96.5139765625
 20
11.715156250000001
 10
96.9306640625
 20
11.317906250000002
 10
97.126
 20
11.098
 10
97.3112734375
 20
10.867062500000001
 10
97.6459609375
 20
10.381562500000001
 10
97.9328359375
 20
9.8645625
 10
98.1718984375
 20
9.3160625
 10
98.3631484375
 20
8.736062500000001
 10
98.5065859375
 20
8.1245625
 10
98.63209375000001
 20
7.148249999999999
 10
98.656
 20
6.458
 10
98.656
 20
6.2
 10
98.6321875
 20
5.50709375
 10
98.507171875
 20
4.5280859375
 10
98.36429687500001
 20
3.9156484375000007
 10
98.17379687500001
 20
3.3353984375
 10
97.93567187500001
 20
2.7873359375000004
 10
97.649921875
 20
2.2714609375
 10
97.316546875
 20
1.7877734374999996
 10
97.132
 20
1.558
 10
96.9374375
 20
1.339546875
 10
96.52243750000001
 20
0.944921875
 10
96.07293750000001
 20
0.606671875
 10
95.5889375
 20
0.32479687500000004
 10
95.07043750000001
 20
0.09929687500000002
 10
94.5174375
 20
-0.069828125
 10
93.9299375
 20
-0.182578125
 10
93.30793750000001
 20
-0.23895312500000002
 10
92.98400000000001
 20
-0.246
 10
92.6602734375
 20
-0.2389296875
 10
92.0384609375
 20
-0.1823671875
 10
91.4508359375
 20
-0.0692421875
 10
90.8973984375
 20
0.1004453125
 10
90.3781484375
 20
0.3266953125
 10
89.8930859375
 20
0.6095078125
 10
89.44221093750001
 20
0.9488828125000002
 10
89.0255234375
 20
1.3448203125000002
 10
88.83
 20
1.564
 10
88.64472656250001
 20
1.7944531250000002
 10
88.3100390625
 20
2.279078125
 10
88.0231640625
 20
2.795328125
 10
87.7841015625
 20
3.3432031250000005
 10
87.5928515625
 20
3.922703125
 10
87.44941406250001
 20
4.533828125
 10
87.32390625
 20
5.5098125
 10
87.30000000000001
 20
6.2
 10
87.30000000000001
 20
6.458
 10
87.3238125
 20
7.1455312499999994
 10
87.448828125
 20
8.118820312499997
  0
LWPOLYLINE
  5
32
330
17
100
AcDbEntity
  8
0
 62
0
100
AcDbPolyline
 90
43
 70
0
 10
89.72925000000001
 20
4.787000000000001
 10
89.94125000000001
 20
3.955
 10
90.25925000000001
 20
3.2110000000000003
 10
90.458
 20
2.872
 10
90.68340625
 20
2.56403125
 10
91.21165625
 20
2.0712812499999997
 10
91.84315624999999
 20
1.7427812500000002
 10
92.57790625000001
 20
1.5785312500000002
 10
92.98400000000001
 20
1.558
 10
93.38456250000002
 20
1.5785312500000002
 10
94.1110625
 20
1.7427812500000002
 10
94.73806250000001
 20
2.0712812499999997
 10
95.2655625
 20
2.56403125
 10
95.492
 20
2.872
 10
95.692625
 20
3.2110000000000003
 10
96.013625
 20
3.955
 10
96.227625
 20
4.787000000000001
 10
96.334625
 20
5.707000000000001
 10
96.34800000000001
 20
6.2
 10
96.34800000000001
 20
6.458
 10
96.33453125
 20
6.9455625
 10
96.22678125
 20
7.8580625
 10
96.01128125000001
 20
8.687062500000001
 10
95.68803125
 20
9.432562500000001
 10
95.486
 20
9.774000000000001
 10
95.25796875
 20
10.0843125
 10
94.72671875
 20
10.5808125
 10
94.09521875000002
 20
10.911812500000002
 10
93.36346875
 20
11.0773125
 10
92.96000000000001
 20
11.098
 10
92.55953125
 20
11.0773125
 10
91.83378125000002
 20
10.911812500000002
 10
91.20828125
 20
10.5808125
 10
90.68303125
 20
10.0843125
 10
90.458
 20
9.774000000000001
 10
90.25925000000001
 20
9.432562500000001
 10
89.94125000000001
 20
8.687062500000001
 10
89.72925000000001
 20
7.8580625
 10
89.62325
 20
6.9455625
 10
89.61000000000001
 20
6.458
 10
89.61000000000001
 20
6.2
 10
89.62325
 20
5.707000000000001
 10
89.72925000000001
 20
4.787000000000001
  0
LWPOLYLINE
  5
33
330
17
100
AcDbEntity
  8
0
 62
0
100
AcDbPolyline
 90
90
 70
0
 10
24.19
 20
1.014
 10
24.137500000000003
 20
1.455
 10
24.112000000000002
 20
1.8980000000000001
 10
23.944875000000003
 20
1.6741875000000002
 10
23.573875
 20
1.2546875000000002
 10
23.153875000000003
 20
0.8726875000000001
 10
22.684875
 20
0.5281874999999999
 10
22.432000000000002
 20
0.37000000000000005
 10
22.17003125
 20
0.22562500000000002
 10
21.63128125
 20
-0.005374999999999991
 10
21.072781250000006
 20
-0.15937500000000002
 10
20.49453125
 20
-0.236375
 10
20.198000000000004
 20
-0.246
 10
19.717750000000002
 20
-0.23015625000000003
 10
18.845750000000002
 20
-0.10340624999999999
 10
18.09175
 20
0.15009375
 10
17.455750000000002
 20
0.53034375
 10
17.182
 20
0.768
 10
16.938718750000003
 20
1.0334687500000002
 10
16.54946875
 20
1.6362187499999998
 10
16.28996875
 20
2.33471875
 10
16.160218750000002
 20
3.12896875
 10
16.144000000000002
 20
3.562
 10
16.166968750000002
 20
4.003656250000001
 10
16.287554687500002
 20
4.6198515625
 10
16.4253671875
 20
4.9997890625000005
 10
16.6091171875
 20
5.3550390625
 10
16.8388046875
 20
5.6856015625000005
 10
17.26946875
 20
6.13515625
 10
17.614
 20
6.404
 10
17.998375000000003
 20
6.644468749999999
 10
18.865375
 20
7.029218749999998
 10
19.863375000000005
 20
7.285718749999998
 10
20.992375000000003
 20
7.413968750000001
 10
21.606
 20
7.43
 10
24.112000000000002
 20
7.43
 10
24.112000000000002
 20
8.684
 10
24.101406250000004
 20
8.9548125
 10
24.01665625
 20
9.4533125
 10
23.84715625
 20
9.8943125
 10
23.59290625
 20
10.2778125
 10
23.434
 20
10.448
 10
23.25521875
 20
10.60034375
 10
22.844968750000003
 20
10.84409375
 10
22.364468750000004
 20
11.00659375
 10
21.813718750000003
 20
11.087843750000001
 10
21.512
 20
11.098
 10
21.240000000000006
 20
11.089125000000003
 10
20.735000000000003
 20
11.018125000000001
 10
20.282000000000004
 20
10.876125
 10
19.881
 20
10.663125
 10
19.700000000000003
 20
10.530000000000001
 10
19.536875000000002
 20
10.383968750000001
 10
19.275875000000003
 20
10.070718750000001
 10
19.101875000000003
 20
9.729218750000001
 10
19.014875
 20
9.35946875
 10
19.004
 20
9.164
 10
16.8
 20
9.164
 10
16.778000000000002
 20
9.234
 10
16.782656250000002
 20
9.5763125
 10
16.927906250000003
 20
10.238812500000002
 10
17.25440625
 20
10.871812499999999
 10
17.76215625
 20
11.475312500000001
 10
18.084
 20
11.766
 10
18.440562500000002
 20
12.0350625
 10
19.2290625
 20
12.465562499999999
 10
20.118062500000004
 20
12.752562499999998
 10
21.1075625
 20
12.8960625
 10
21.640000000000004
 20
12.914
 10
22.165843750000004
 20
12.896875000000001
 10
23.138593750000002
 20
12.759875
 10
24.00609375
 20
12.485875
 10
24.76834375
 20
12.074874999999999
 10
25.110000000000003
 20
11.818
 10
25.268875000000005
 20
11.677226562500001
 10
25.555875
 20
11.3730390625
 10
25.801875000000003
 20
11.0386640625
 10
26.006875000000004
 20
10.6741015625
 10
26.2375
 20
10.070656249999999
 10
26.4015
 20
9.16040625
 10
26.422000000000004
 20
8.66
 10
26.422000000000004
 20
2.5540000000000003
 10
26.4395
 20
1.8869999999999998
 10
26.492000000000004
 20
1.242
 10
26.534375
 20
0.9273750000000001
 10
26.663375000000002
 20
0.306375
 10
26.75
 20
0.0
 10
24.370000000000005
 20
0.0
 10
24.267000000000003
 20
0.5405
 10
24.19
 20
1.014
  0
LWPOLYLINE
  5
34
330
17
100
AcDbEntity
  8
0
 62
0
100
AcDbPolyline
 90
33
 70
0
 10
21.44390625
 20
1.7785625000000005
 10
22.00940625
 20
1.9395625000000003
 10
22.54415625
 20
2.1810625000000003
 10
22.8
 20
2.3320000000000003
 10
23.041
 20
2.4959375
 10
23.457000000000004
 20
2.8414375
 10
23.785000000000004
 20
3.2104375000000007
 10
24.025000000000002
 20
3.6029375000000003
 10
24.112000000000002
 20
3.808
 10
24.112000000000002
 20
5.872
 10
21.524
 20
5.872
 10
21.18371875
 20
5.861000000000001
 10
20.555468750000003
 20
5.773000000000001
 10
19.996968750000004
 20
5.597
 10
19.50821875
 20
5.333
 10
19.290000000000003
 20
5.168
 10
19.093593750000004
 20
4.9881875
 10
18.779343750000002
 20
4.6056875
 10
18.56984375
 20
4.192687500000001
 10
18.46509375
 20
3.7491875
 10
18.452
 20
3.516
 10
18.460250000000002
 20
3.3104999999999998
 10
18.52625
 20
2.9325
 10
18.658250000000002
 20
2.5985
 10
18.85625
 20
2.3085
 10
18.98
 20
2.18
 10
19.11984375
 20
2.0646875000000002
 10
19.44659375
 20
1.8801875000000003
 10
19.836093750000003
 20
1.7571875
 10
20.288343750000003
 20
1.6956874999999998
 10
20.538
 20
1.688
 10
20.84765625
 20
1.6980624999999998
 10
21.44390625
 20
1.7785625000000005
  0
LWPOLYLINE
  5
35
330
17
100
AcDbEntity
  8
0
 62
0
100
AcDbPolyline
 90
83
 70
0
 10
71.2130390625
 20
-0.183984375
 10
70.61866406250002
 20
-0.073734375
 10
70.05810156250001
 20
0.09164062499999998
 10
69.5313515625
 20
0.312140625
 10
69.03841406250001
 20
0.587765625
 10
68.57928906250001
 20
0.918515625
 10
68.1539765625
 20
1.304390625
 10
67.95400000000001
 20
1.518
 10
67.764609375
 20
1.7425937500000002
 10
67.42248437500001
 20
2.21634375
 10
67.12923437500001
 20
2.72284375
 10
66.884859375
 20
3.26209375
 10
66.68935937500001
 20
3.8340937499999996
 10
66.54273437500001
 20
4.438843749999999
 10
66.444984375
 20
5.0763437499999995
 10
66.39610937500001
 20
5.746593750000001
 10
66.39000000000001
 20
6.094000000000001
 10
66.39000000000001
 20
6.610000000000001
 10
66.396296875
 20
6.944710937500003
 10
66.446671875
 20
7.592898437500003
 10
66.54742187500001
 20
8.212773437500001
 10
66.69854687500002
 20
8.804335937500003
 10
66.90004687500002
 20
9.367585937500001
 10
67.15192187500001
 20
9.902523437500001
 10
67.45417187500001
 20
10.4091484375
 10
67.80679687500002
 20
10.887460937500002
 10
68.00200000000001
 20
11.116
 10
68.2055703125
 20
11.3337265625
 10
68.6266328125
 20
11.7270390625
 10
69.06625781250001
 20
12.064164062499998
 10
69.5244453125
 20
12.345101562499998
 10
70.00119531250002
 20
12.569851562499998
 10
70.49650781250001
 20
12.738414062499999
 10
71.01038281250001
 20
12.850789062500002
 10
71.54282031250001
 20
12.9069765625
 10
71.81600000000002
 20
12.914
 10
72.1318515625
 20
12.9079609375
 10
72.73416406250001
 20
12.859648437499999
 10
73.29728906250001
 20
12.7630234375
 10
73.82122656250002
 20
12.618085937499998
 10
74.3059765625
 20
12.424835937500001
 10
74.7515390625
 20
12.1832734375
 10
75.15791406250001
 20
11.8933984375
 10
75.52510156250001
 20
11.555210937500002
 10
75.694
 20
11.368000000000002
 10
75.8531171875
 20
11.170476562500001
 10
76.1405546875
 20
10.7512890625
 10
76.38692968750001
 20
10.299914062500001
 10
76.5922421875
 20
9.816351562500001
 10
76.82321875000001
 20
9.030656250000002
 10
76.98746875
 20
7.870406250000001
 10
77.00800000000001
 20
7.242000000000001
 10
77.00800000000001
 20
5.800000000000001
 10
68.78000000000002
 20
5.800000000000001
 10
68.74600000000001
 20
5.742000000000001
 10
68.76790625000001
 20
5.295156250000001
 10
68.89215625000001
 20
4.46240625
 10
69.12365625000001
 20
3.7109062500000003
 10
69.46240625
 20
3.04065625
 10
69.67200000000001
 20
2.7360000000000007
 10
69.90568750000001
 20
2.4599062500000004
 10
70.44018750000001
 20
2.0181562500000005
 10
71.0641875
 20
1.7236562500000003
 10
71.7776875
 20
1.5764062500000002
 10
72.168
 20
1.558
 10
72.73600000000002
 20
1.578875
 10
73.76400000000001
 20
1.7458750000000003
 10
74.224
 20
1.892
 10
74.65112500000001
 20
2.0747499999999994
 10
75.41612500000001
 20
2.53475
 10
75.754
 20
2.812
 10
76.656
 20
1.3120000000000003
 10
76.47921875000002
 20
1.1485
 10
76.08496875000002
 20
0.8425000000000001
 10
75.39187500000001
 20
0.43600000000000017
 10
74.86200000000001
 20
0.2
 10
74.57665625000001
 20
0.09546874999999999
 10
73.96190625000001
 20
-0.07178125
 10
73.28840625000001
 20
-0.18328125
 10
72.55615625
 20
-0.23903125
 10
72.168
 20
-0.246
 10
71.84122656250001
 20
-0.239109375
 10
71.2130390625
 20
-0.183984375
  0
LWPOLYLINE
  5
36
330
17
100
AcDbEntity
  8
0
 62
0
100
AcDbPolyline
 90
24
 70
0
 10
70.99381250000002
 20
10.96046875
 10
70.49881250000001
 20
10.71596875
 10
70.04631250000001
 20
10.349218749999999
 10
69.83600000000001
 20
10.12
 10
69.64087500000001
 20
9.86725
 10
69.30987500000002
 20
9.315249999999999
 10
69.05787500000001
 20
8.70125
 10
68.88487500000001
 20
8.025250000000002
 10
68.82800000000002
 20
7.664000000000001
 10
68.85200000000002
 20
7.606000000000001
 10
74.69800000000001
 20
7.606000000000001
 10
74.69800000000001
 20
7.91
 10
74.68665625000001
 20
8.24303125
 10
74.59590625000001
 20
8.86728125
 10
74.41440625
 20
9.435781249999998
 10
74.14215625000001
 20
9.94853125
 10
73.97200000000001
 20
10.184
 10
73.77950000000001
 20
10.39821875
 10
73.3285
 20
10.74096875
 10
72.78950000000002
 20
10.96946875
 10
72.16250000000001
 20
11.083718750000001
 10
71.81600000000002
 20
11.098
 10
71.53131250000001
 20
11.082718750000002
 10
70.99381250000002
 20
10.96046875
  0
LWPOLYLINE
  5
37
330
17
100
AcDbEntity
  8
0
 62
0
100
AcDbPolyline
 90
90
 70
0
 10
49.624
 20
1.014
 10
49.57150000000001
 20
1.455
 10
49.54600000000001
 20
1.8980000000000001
 10
49.37887500000001
 20
1.6741875000000002
 10
49.007875000000006
 20
1.2546875000000002
 10
48.587875000000004
 20
0.8726875000000001
 10
48.118875
 20
0.5281874999999999
 10
47.86600000000001
 20
0.37000000000000005
 10
47.604031250000006
 20
0.22562500000000002
 10
47.06528125
 20
-0.005374999999999991
 10
46.50678125
 20
-0.15937500000000002
 10
45.928531250000006
 20
-0.236375
 10
45.632000000000005
 20
-0.246
 10
45.15175000000001
 20
-0.23015625000000003
 10
44.27975000000001
 20
-0.10340624999999999
 10
43.52575
 20
0.15009375
 10
42.88975000000001
 20
0.53034375
 10
42.61600000000001
 20
0.768
 10
42.372718750000004
 20
1.0334687500000002
 10
41.98346875000001
 20
1.6362187499999998
 10
41.723968750000004
 20
2.33471875
 10
41.59421875
 20
3.12896875
 10
41.578
 20
3.562
 10
41.60096875000001
 20
4.003656250000001
 10
41.7215546875
 20
4.6198515625
 10
41.859367187500006
 20
4.9997890625000005
 10
42.0431171875
 20
5.3550390625
 10
42.272804687500006
 20
5.6856015625000005
 10
42.703468750000006
 20
6.13515625
 10
43.048
 20
6.404
 10
43.43237500000001
 20
6.644468749999999
 10
44.299375000000005
 20
7.029218749999998
 10
45.297375
 20
7.285718749999998
 10
46.42637500000001
 20
7.413968750000001
 10
47.04
 20
7.43
 10
49.54600000000001
 20
7.43
 10
49.54600000000001
 20
8.684
 10
49.53540625000001
 20
8.9548125
 10
49.45065625000001
 20
9.4533125
 10
49.28115625000001
 20
9.8943125
 10
49.02690625
 20
10.2778125
 10
48.868
 20
10.448
 10
48.68921875000001
 20
10.60034375
 10
48.278968750000004
 20
10.84409375
 10
47.798468750000005
 20
11.00659375
 10
47.247718750000004
 20
11.087843750000001
 10
46.946000000000005
 20
11.098
 10
46.67400000000001
 20
11.089125000000003
 10
46.169000000000004
 20
11.018125000000001
 10
45.71600000000001
 20
10.876125
 10
45.315000000000005
 20
10.663125
 10
45.13400000000001
 20
10.530000000000001
 10
44.97087500000001
 20
10.383968750000001
 10
44.709875000000004
 20
10.070718750000001
 10
44.535875000000004
 20
9.729218750000001
 10
44.448875
 20
9.35946875
 10
44.438
 20
9.164
 10
42.23400000000001
 20
9.164
 10
42.212
 20
9.234
 10
42.21665625
 20
9.5763125
 10
42.361906250000004
 20
10.238812500000002
 10
42.68840625000001
 20
10.871812499999999
 10
43.19615625
 20
11.475312500000001
 10
43.518
 20
11.766
 10
43.8745625
 20
12.0350625
 10
44.6630625
 20
12.465562499999999
 10
45.552062500000005
 20
12.752562499999998
 10
46.541562500000005
 20
12.8960625
 10
47.074000000000005
 20
12.914
 10
47.599843750000005
 20
12.896875000000001
 10
48.57259375
 20
12.759875
 10
49.44009375
 20
12.485875
 10
50.202343750000004
 20
12.074874999999999
 10
50.544000000000004
 20
11.818
 10
50.702875000000006
 20
11.677226562500001
 10
50.989875000000005
 20
11.3730390625
 10
51.235875
 20
11.0386640625
 10
51.440875000000005
 20
10.6741015625
 10
51.67150000000001
 20
10.070656249999999
 10
51.8355
 20
9.16040625
 10
51.855999999999995
 20
8.66
 10
51.855999999999995
 20
2.5540000000000003
 10
51.87350000000001
 20
1.8869999999999998
 10
51.926
 20
1.242
 10
51.96837500000001
 20
0.9273750000000001
 10
52.097375
 20
0.306375
 10
52.184000000000005
 20
0.0
 10
49.804
 20
0.0
 10
49.701
 20
0.5405
 10
49.624
 20
1.014
  0
LWPOLYLINE
  5
38
330
17
100
AcDbEntity
  8
0
 62
0
100
AcDbPolyline
 90
33
 70
0
 10
46.87790625
 20
1.7785625000000005
 10
47.44340625
 20
1.9395625000000003
 10
47.978156250000005
 20
2.1810625000000003
 10
48.23400000000001
 20
2.3320000000000003
 10
48.475
 20
2.4959375
 10
48.891000000000005
 20
2.8414375
 10
49.21900000000001
 20
3.2104375000000007
 10
49.459
 20
3.6029375000000003
 10
49.54600000000001
 20
3.808
 10
49.54600000000001
 20
5.872
 10
46.958000000000006
 20
5.872
 10
46.61771875
 20
5.861000000000001
 10
45.98946875000001
 20
5.773000000000001
 10
45.430968750000005
 20
5.597
 10
44.94221875
 20
5.333
 10
44.724000000000004
 20
5.168
 10
44.52759375
 20
4.9881875
 10
44.21334375000001
 20
4.6056875
 10
44.00384375
 20
4.192687500000001
 10
43.899093750000006
 20
3.7491875
 10
43.886
 20
3.516
 10
43.89425
 20
3.3104999999999998
 10
43.96025
 20
2.9325
 10
44.09225000000001
 20
2.5985
 10
44.29025000000001
 20
2.3085
 10
44.414
 20
2.18
 10
44.55384375
 20
2.0646875000000002
 10
44.88059375
 20
1.8801875000000003
 10
45.27009375
 20
1.7571875
 10
45.72234375000001
 20
1.6956874999999998
 10
45.97200000000001
 20
1.688
 10
46.281656250000005
 20
1.6980624999999998
 10
46.87790625
 20
1.7785625000000005
  0
LWPOLYLINE
  5
39
330
17
100
AcDbEntity
  8
0
 62
0
100
AcDbPolyline
 90
50
 70
0
 10
57.364500000000014
 20
11.48471875
 10
57.761500000000005
 20
11.876218750000001
 10
58.19850000000002
 20
12.211468750000002
 10
58.43200000000001
 20
12.358000000000002
 10
58.67509375000001
 20
12.488312500000001
 10
59.185843750000004
 20
12.6968125
 10
59.72934375000001
 20
12.835812499999998
 10
60.30559375000001
 20
12.9053125
 10
60.60600000000001
 20
12.914
 10
61.10406250000001
 20
12.895218749999998
 10
62.01356250000001
 20
12.74496875
 10
62.80756250000001
 20
12.444468749999999
 10
63.4860625
 20
11.99371875
 10
63.78200000000001
 20
11.712000000000002
 10
63.91810937500001
 20
11.556890625000001
 10
64.16398437500001
 20
11.216015625
 10
64.46693750000001
 20
10.6280625
 10
64.74793750000002
 20
9.7010625
 10
64.88843750000001
 20
8.6105625
 10
64.906
 20
8.004
 10
64.906
 20
0.0
 10
62.598000000000006
 20
0.0
 10
62.598000000000006
 20
7.958
 10
62.58765625000001
 20
8.36134375
 10
62.50490625000001
 20
9.07709375
 10
62.33940625
 20
9.67159375
 10
62.09115625000001
 20
10.14484375
 10
61.936000000000014
 20
10.336
 10
61.759593750000015
 20
10.501000000000001
 10
61.341343750000014
 20
10.765
 10
60.83584375000001
 20
10.940999999999999
 10
60.24309375000001
 20
11.029
 10
59.914000000000016
 20
11.04
 10
59.66856250000001
 20
11.03246875
 10
59.199062500000004
 20
10.97221875
 10
58.75806250000001
 20
10.851718750000002
 10
58.34556250000001
 20
10.67096875
 10
58.15000000000001
 20
10.558
 10
57.96331250000001
 20
10.4325
 10
57.61881250000002
 20
10.1485
 10
57.31281250000001
 20
9.820500000000003
 10
57.045312500000016
 20
9.448500000000001
 10
56.926000000000016
 20
9.246
 10
56.926000000000016
 20
0.0
 10
54.61800000000001
 20
0.0
 10
54.61800000000001
 20
12.68
 10
56.68000000000001
 20
12.68
 10
56.84400000000001
 20
10.792000000000002
 10
57.00750000000001
 20
11.03696875
 10
57.364500000000014
 20
11.48471875
  0
LWPOLYLINE
  5
3A
330
17
100
AcDbEntity
  8
0
 62
0
100
AcDbPolyline
 90
32
 70
0
 10
83.69500000000001
 20
10.649250000000002
 10
83.31
 20
10.54125
 10
82.96100000000001
 20
10.379249999999999
 10
82.80000000000001
 20
10.278
 10
82.64750000000001
 20
10.164
 10
82.36950000000002
 20
9.903
 10
82.1275
 20
9.597999999999999
 10
81.92150000000001
 20
9.249
 10
81.83200000000001
 20
9.058
 10
81.83200000000001
 20
0.0
 10
79.524
 20
0.0
 10
79.524
 20
12.68
 10
81.58600000000001
 20
12.68
 10
81.808
 20
10.828000000000001
 10
81.9469375
 20
11.06725
 10
82.24843750000001
 20
11.505249999999998
 10
82.5814375
 20
11.88925
 10
82.94593750000001
 20
12.219250000000002
 10
83.14
 20
12.364000000000003
 10
83.34128125000001
 20
12.492906250000003
 10
83.76653125000001
 20
12.69915625
 10
84.22203125
 20
12.836656249999999
 10
84.70778125000001
 20
12.905406249999999
 10
84.962
 20
12.914
 10
85.214
 20
12.904
 10
85.45400000000001
 20
12.874000000000002
 10
85.6675
 20
12.831000000000001
 10
85.84
 20
12.786000000000001
 10
85.524
 20
10.64
 10
84.34
 20
10.71
 10
84.11600000000001
 20
10.70325
 10
83.69500000000001
 20
10.649250000000002
  0
LWPOLYLINE
  5
3B
330
17
100
AcDbEntity
  8
0
 62
0
100
AcDbPolyline
 90
13
 70
0
 10
4.418
 20
7.5360000000000005
 10
4.418
 20
0.0
 10
2.11
 20
0.0
 10
2.11
 20
17.062
 10
4.418
 20
17.062
 10
4.418
 20
9.352000000000002
 10
12.704
 20
9.352000000000002
 10
12.704
 20
17.062
 10
15.012
 20
17.062
 10
15.012
 20
0.0
 10
12.704
 20
0.0
 10
12.704
 20
7.5360000000000005
 10
4.418
 20
7.5360000000000005
  0
LWPOLYLINE
  5
3C
330
17
100
AcDbEntity
  8
0
 62
0
100
AcDbPolyline
 90
59
 70
0
 10
39.826656250000006
 20
3.9525625
 10
39.59497656250001
 20
3.1106406250000003
 10
39.389039062500004
 20
2.590765625
 10
39.14191406250001
 20
2.1040156249999997
 10
38.8536015625
 20
1.650390625
 10
38.69400000000001
 20
1.436
 10
38.525375000000004
 20
1.2323203125
 10
38.16487500000001
 20
0.8643828124999999
 10
37.77337500000001
 20
0.5490078125
 10
37.35087500000001
 20
0.28619531249999997
 10
36.897375000000004
 20
0.07594531249999997
 10
36.41287500000001
 20
-0.08174218750000001
 10
35.897375000000004
 20
-0.1868671875
 10
35.35087500000001
 20
-0.23942968750000004
 10
35.066
 20
-0.246
 10
34.757625000000004
 20
-0.23840625
 10
34.171625000000006
 20
-0.17765625000000002
 10
33.626625000000004
 20
-0.05615625000000001
 10
33.122625000000006
 20
0.12609375
 10
32.886
 20
0.24
 10
32.659906250000006
 20
0.36875
 10
32.237156250000005
 20
0.66975
 10
31.853656250000007
 20
1.0287499999999998
 10
31.50940625000001
 20
1.4457499999999999
 10
31.352000000000004
 20
1.676
 10
31.070000000000007
 20
0.0
 10
29.184000000000005
 20
0.0
 10
29.184000000000005
 20
18.282
 10
31.492000000000008
 20
18.282
 10
31.492000000000008
 20
11.18
 10
31.645968750000005
 20
11.38475
 10
31.98071875000001
 20
11.75675
 10
32.35121875000001
 20
12.078750000000001
 10
32.75746875000001
 20
12.350750000000001
 10
32.97400000000001
 20
12.468000000000002
 10
33.200156250000006
 20
12.57253125
 10
33.680406250000004
 20
12.73978125
 10
34.19790625000001
 20
12.85128125
 10
34.75265625000001
 20
12.907031250000001
 10
35.044000000000004
 20
12.914
 10
35.33273437500001
 20
12.9066796875
 10
35.886109375000004
 20
12.848117187499998
 10
36.407359375000006
 20
12.7309921875
 10
36.896484375
 20
12.555304687499998
 10
37.35348437500001
 20
12.3210546875
 10
37.778359375
 20
12.028242187499998
 10
38.17110937500001
 20
11.6768671875
 10
38.531734375000006
 20
11.2669296875
 10
38.70000000000001
 20
11.04
 10
38.85887500000001
 20
10.8008828125
 10
39.145875000000004
 20
10.2949453125
 10
39.391875000000006
 20
9.7520703125
 10
39.596875000000004
 20
9.1722578125
 10
39.82750000000001
 20
8.23328125
 10
39.9915
 20
6.85203125
 10
40.012
 20
6.106000000000001
 10
40.012
 20
5.86
 10
39.991406250000004
 20
5.191062500000001
 10
39.826656250000006
 20
3.9525625
  0
LWPOLYLINE
  5
3D
330
17
100
AcDbEntity
  8
0
 62
0
100
AcDbPolyline
 90
44
 70
0
 10
37.5909375
 20
7.627937500000001
 10
37.3899375
 20
8.516937500000003
 10
37.088437500000005
 20
9.305437500000002
 10
36.9
 20
9.662
 10
36.686406250000005
 20
9.98496875
 10
36.31691406250001
 20
10.3886796875
 10
36.0378515625
 20
10.6039921875
 10
35.570156250000004
 20
10.846218749999998
 10
34.854906250000006
 20
11.01846875
 10
34.458000000000006
 20
11.04
 10
34.196250000000006
 20
11.03184375
 10
33.70425
 20
10.966593750000001
 10
33.254250000000006
 20
10.836093750000002
 10
32.846250000000005
 20
10.640343750000001
 10
32.65800000000001
 20
10.518
 10
32.479656250000005
 20
10.381937500000001
 10
32.150906250000006
 20
10.0764375
 10
31.859406250000006
 20
9.726437500000001
 10
31.605156250000007
 20
9.3319375
 10
31.492000000000008
 20
9.118
 10
31.492000000000008
 20
3.622
 10
31.607781250000006
 20
3.39390625
 10
31.865031250000005
 20
2.9761562500000003
 10
32.15653125
 20
2.6096562500000005
 10
32.48228125000001
 20
2.29440625
 10
32.65800000000001
 20
2.156
 10
32.844406250000006
 20
2.0322500000000003
 10
33.25265625000001
 20
1.8342500000000002
 10
33.70815625
 20
1.7022500000000003
 10
34.21090625000001
 20
1.6362499999999998
 10
34.48000000000001
 20
1.628
 10
34.874468750000005
 20
1.64615625
 10
35.58521875
 20
1.7914062499999994
 10
36.19171875000001
 20
2.0819062499999994
 10
36.69396875
 20
2.51765625
 10
36.906000000000006
 20
2.79
 10
37.09303125
 20
3.09171875
 10
37.39228125000001
 20
3.76546875
 10
37.59178125000001
 20
4.53296875
 10
37.691531250000004
 20
5.39421875
 10
37.704
 20
5.86
 10
37.704
 20
6.106000000000001
 10
37.691437500000006
 20
6.638437500000001
 10
37.5909375
 20
7.627937500000001
  0
LWPOLYLINE
  5
3E
330
17
100
AcDbEntity
  8
0
 62
1
100
AcDbPolyline
 90
141
 70
0
 10
-7.0662056839547285
 20
-19.942216720066362
 10
-8.23108386419354
 20
-19.769423364838765
 10
-9.373416127053547
 20
-19.483284028786507
 10
-10.482201188381078
 20
-19.08655439013544
 10
-11.546760841911972
 20
-18.58305517218026
 10
-12.556842796235223
 20
-17.977635347630546
 10
-13.502719409963746
 20
-17.276125440352846
 10
-14.37528137423857
 20
-16.48528137423857
 10
-15.166125440352845
 20
-15.612719409963745
 10
-15.867635347630545
 20
-14.666842796235226
 10
-16.47305517218026
 20
-13.656760841911975
 10
-16.97655439013544
 20
-12.592201188381079
 10
-17.373284028786507
 20
-11.483416127053548
 10
-17.659423364838766
 20
-10.341083864193543
 10
-17.832216720066363
 20
-9.17620568395473
 10
-17.89
 20
-8.0
 10
-17.89
 20
24.0
 10
-17.832216720066363
 20
25.17620568395473
 10
-17.659423364838766
 20
26.341083864193543
 10
-17.373284028786507
 20
27.483416127053548
 10
-16.97655439013544
 20
28.59220118838108
 10
-16.47305517218026
 20
29.656760841911975
 10
-15.867635347630545
 20
30.666842796235226
 10
-15.166125440352845
 20
31.612719409963745
 10
-14.37528137423857
 20
32.48528137423857
 10
-13.502719409963746
 20
33.27612544035284
 10
-12.556842796235223
 20
33.977635347630546
 10
-11.546760841911972
 20
34.58305517218026
 10
-10.482201188381078
 20
35.08655439013544
 10
-9.373416127053547
 20
35.48328402878651
 10
-8.23108386419354
 20
35.769423364838765
 10
-7.0662056839547285
 20
35.94221672006636
 10
-5.890000000000001
 20
36.0
 10
12.383000000000003
 20
36.0
 10
12.383000000000003
 20
42.0
 10
12.407076366639018
 20
42.49008570164781
 10
12.47907359798385
 20
42.97545161008064
 10
12.598298321338959
 20
43.45142338627231
 10
12.763602337443569
 20
43.91341716182545
 10
12.973393678258228
 20
44.356983684129986
 10
13.225651938487276
 20
44.777851165098014
 10
13.517947733186318
 20
45.17196642081823
 10
13.847466094067265
 20
45.53553390593274
 10
14.211033579181777
 20
45.865052266813684
 10
14.605148834901993
 20
46.15734806151273
 10
15.026016315870013
 20
46.40960632174178
 10
15.469582838174555
 20
46.61939766255644
 10
15.931576613727692
 20
46.784701678661044
 10
16.407548389919363
 20
46.903926402016154
 10
16.8929142983522
 20
46.975923633360985
 10
17.383000000000003
 20
47.0
 10
23.383000000000003
 20
47.0
 10
23.873085701647806
 20
46.975923633360985
 10
24.358451610080643
 20
46.903926402016154
 10
24.834423386272313
 20
46.784701678661044
 10
25.296417161825453
 20
46.61939766255644
 10
25.739983684129992
 20
46.40960632174178
 10
26.160851165098013
 20
46.15734806151273
 10
26.554966420818232
 20
45.865052266813684
 10
26.91853390593274
 20
45.53553390593274
 10
27.248052266813687
 20
45.17196642081823
 10
27.54034806151273
 20
44.777851165098014
 10
27.79260632174178
 20
44.356983684129986
 10
28.002397662556437
 20
43.91341716182545
 10
28.167701678661047
 20
43.45142338627231
 10
28.286926402016157
 20
42.97545161008064
 10
28.358923633360988
 20
42.49008570164781
 10
28.383000000000003
 20
42.0
 10
28.383000000000003
 20
36.0
 10
72.38300000000001
 20
36.0
 10
72.38300000000001
 20
42.0
 10
72.40707636663903
 20
42.49008570164781
 10
72.47907359798386
 20
42.97545161008064
 10
72.59829832133897
 20
43.45142338627231
 10
72.76360233744357
 20
43.91341716182545
 10
72.97339367825823
 20
44.356983684129986
 10
73.22565193848729
 20
44.777851165098014
 10
73.51794773318632
 20
45.17196642081823
 10
73.84746609406727
 20
45.53553390593274
 10
74.21103357918179
 20
45.865052266813684
 10
74.605148834902
 20
46.15734806151273
 10
75.02601631587002
 20
46.40960632174178
 10
75.46958283817456
 20
46.61939766255644
 10
75.9315766137277
 20
46.784701678661044
 10
76.40754838991937
 20
46.903926402016154
 10
76.89291429835221
 20
46.975923633360985
 10
77.38300000000001
 20
47.0
 10
83.38300000000001
 20
47.0
 10
83.87308570164781
 20
46.975923633360985
 10
84.35845161008065
 20
46.903926402016154
 10
84.83442338627232
 20
46.784701678661044
 10
85.29641716182546
 20
46.61939766255644
 10
85.73998368413
 20
46.40960632174178
 10
86.16085116509802
 20
46.15734806151273
 10
86.55496642081823
 20
45.865052266813684
 10
86.91853390593275
 20
45.53553390593274
 10
87.2480522668137
 20
45.17196642081823
 10
87.54034806151273
 20
44.777851165098014
 10
87.79260632174179
 20
44.356983684129986
 10
88.00239766255645
 20
43.91341716182545
 10
88.16770167866106
 20
43.45142338627231
 10
88.28692640201616
 20
42.97545161008064
 10
88.358923633361
 20
42.49008570164781
 10
88.38300000000001
 20
42.0
 10
88.38300000000001
 20
36.0
 10
106.656
 20
36.0
 10
107.83220568395474
 20
35.94221672006636
 10
108.99708386419354
 20
35.769423364838765
 10
110.13941612705355
 20
35.48328402878651
 10
111.24820118838109
 20
35.08655439013544
 10
112.31276084191198
 20
34.58305517218026
 10
113.32284279623524
 20
33.97763534763054
 10
114.26871940996375
 20
33.27612544035284
 10
115.14128137423857
 20
32.48528137423857
 10
115.93212544035285
 20
31.612719409963745
 10
116.63363534763054
 20
30.666842796235226
 10
117.23905517218027
 20
29.65676084191197
 10
117.74255439013544
 20
28.592201188381075
 10
118.1392840287865
 20
27.483416127053548
 10
118.42542336483876
 20
26.34108386419354
 10
118.59821672006638
 20
25.176205683954727
 10
118.656
 20
24.0
 10
118.656
 20
-8.0
 10
118.59821672006638
 20
-9.176205683954729
 10
118.42542336483876
 20
-10.34108386419354
 10
118.1392840287865
 20
-11.483416127053548
 10
117.74255439013544
 20
-12.592201188381077
 10
117.23905517218026
 20
-13.656760841911973
 10
116.63363534763054
 20
-14.666842796235226
 10
115.93212544035285
 20
-15.612719409963745
 10
115.14128137423857
 20
-16.485281374238568
 10
114.26871940996375
 20
-17.276125440352843
 10
113.32284279623524
 20
-17.977635347630542
 10
112.31276084191198
 20
-18.58305517218026
 10
111.24820118838109
 20
-19.08655439013544
 10
110.13941612705355
 20
-19.483284028786507
 10
108.99708386419354
 20
-19.769423364838765
 10
107.83220568395474
 20
-19.942216720066362
 10
106.656
 20
-20.0
 10
-5.890000000000001
 20
-20.0
 10
-7.0662056839547285
 20
-19.942216720066362
  0
LWPOLYLINE
  5
3F
330
17
100
AcDbEntity
  8
0
 62
1
100
AcDbPolyline
 90
5
 70
0
 10
23.383000000000003
 20
30.0
 10
23.383000000000003
 20
42.0
 10
17.383000000000003
 20
42.0
 10
17.383000000000003
 20
30.0
 10
23.383000000000003
 20
30.0
  0
LWPOLYLINE
  5
40
330
17
100
AcDbEntity
  8
0
 62
1
100
AcDbPolyline
 90
5
 70
0
 10
83.38300000000001
 20
30.0
 10
83.38300000000001
 20
42.0
 10
77.38300000000001
 20
42.0
 10
77.38300000000001
 20
30.0
 10
83.38300000000001
 20
30.0
  0
LWPOLYLINE
  5
41
330
17
100
AcDbEntity
  8
0
 62
1
100
AcDbPolyline
 90
15
 70
0
 10
12.4
 20
207.0
 10
0.0
 20
207.0
 10
0.0
 20
219.4
 10
0.0
 20
247.0
 10
12.4
 20
247.0
 10
12.4
 20
219.4
 10
35.4
 20
219.4
 10
35.4
 20
220.4
 10
45.4
 20
219.4
 10
45.4
 20
214.7
 10
25.4
 20
214.7
 10
25.4
 20
211.7
 10
45.4
 20
211.7
 10
45.4
 20
207.0
 10
12.4
 20
207.0
  0
LWPOLYLINE
  5
42
330
17
100
AcDbEntity
  8
0
 62
1
100
AcDbPolyline
 90
15
 70
0
 10
59.8
 20
207.0
 10
47.4
 20
207.0
 10
47.4
 20
219.4
 10
47.4
 20
247.0
 10
59.8
 20
247.0
 10
59.8
 20
219.4
 10
82.8
 20
219.4
 10
82.8
 20
220.4
 10
92.8
 20
219.4
 10
92.8
 20
214.7
 10
72.8
 20
214.7
 10
72.8
 20
211.7
 10
92.8
 20
211.7
 10
92.8
 20
207.0
 10
59.8
 20
207.0
  0
LWPOLYLINE
  5
43
330
17
100
AcDbEntity
  8
0
 62
0
100
AcDbPolyline
 90
71
 70
0
 10
70.8258125
 20
76.14553125
 10
70.950828125
 20
77.11882031249999
 10
71.093703125
 20
77.7290078125
 10
71.284203125
 20
78.3082578125
 10
71.522328125
 20
78.8565703125
 10
71.808078125
 20
79.3739453125
 10
72.141453125
 20
79.8603828125
 10
72.32600000000001
 20
80.092
 10
72.52075
 20
80.3126328125
 10
72.93575
 20
80.7111953125
 10
73.38475
 20
81.0528203125
 10
73.86775
 20
81.33750781250001
 10
74.38475
 20
81.5652578125
 10
74.93575
 20
81.7360703125
 10
75.52075
 20
81.8499453125
 10
76.13975
 20
81.9068828125
 10
76.462
 20
81.914
 10
76.7874140625
 20
81.90690624999999
 10
77.4122265625
 20
81.85015625
 10
78.0023515625
 20
81.73665625
 10
78.5577890625
 20
81.56640625
 10
79.0785390625
 20
81.33940625
 10
79.5646015625
 20
81.05565625
 10
80.0159765625
 20
80.71515625
 10
80.43266406250001
 20
80.31790625000001
 10
80.628
 20
80.098
 10
80.8132734375
 20
79.8670625
 10
81.1479609375
 20
79.3815625
 10
81.4348359375
 20
78.8645625
 10
81.6738984375
 20
78.3160625
 10
81.86514843750001
 20
77.7360625
 10
82.0085859375
 20
77.1245625
 10
82.13409375
 20
76.14825
 10
82.158
 20
75.458
 10
82.158
 20
75.2
 10
82.1341875
 20
74.50709375
 10
82.00917187499999
 20
73.5280859375
 10
81.866296875
 20
72.9156484375
 10
81.675796875
 20
72.3353984375
 10
81.437671875
 20
71.7873359375
 10
81.151921875
 20
71.2714609375
 10
80.818546875
 20
70.7877734375
 10
80.634
 20
70.558
 10
80.4394375
 20
70.339546875
 10
80.0244375
 20
69.944921875
 10
79.5749375
 20
69.606671875
 10
79.0909375
 20
69.324796875
 10
78.5724375
 20
69.099296875
 10
78.0194375
 20
68.930171875
 10
77.4319375
 20
68.817421875
 10
76.8099375
 20
68.761046875
 10
76.486
 20
68.754
 10
76.16227343749999
 20
68.7610703125
 10
75.5404609375
 20
68.8176328125
 10
74.9528359375
 20
68.9307578125
 10
74.3993984375
 20
69.1004453125
 10
73.8801484375
 20
69.3266953125
 10
73.3950859375
 20
69.6095078125
 10
72.9442109375
 20
69.9488828125
 10
72.5275234375
 20
70.3448203125
 10
72.332
 20
70.564
 10
72.1467265625
 20
70.794453125
 10
71.81203906249999
 20
71.279078125
 10
71.5251640625
 20
71.795328125
 10
71.2861015625
 20
72.343203125
 10
71.0948515625
 20
72.922703125
 10
70.9514140625
 20
73.533828125
 10
70.82590624999999
 20
74.5098125
 10
70.802
 20
75.2
 10
70.802
 20
75.458
 10
70.8258125
 20
76.14553125
  0
LWPOLYLINE
  5
44
330
17
100
AcDbEntity
  8
0
 62
0
100
AcDbPolyline
 90
43
 70
0
 10
73.12525
 20
74.707
 10
73.23125
 20
73.787
 10
73.44325
 20
72.955
 10
73.76125
 20
72.211
 10
73.96
 20
71.872
 10
74.18540625
 20
71.56403125
 10
74.71365625
 20
71.07128125
 10
75.34515624999999
 20
70.74278125000001
 10
76.07990625000001
 20
70.57853125
 10
76.486
 20
70.558
 10
76.88656250000001
 20
70.57853125
 10
77.61306250000001
 20
70.74278125000001
 10
78.24006250000001
 20
71.07128125
 10
78.7675625
 20
71.56403125
 10
78.994
 20
71.872
 10
79.194625
 20
72.211
 10
79.515625
 20
72.955
 10
79.729625
 20
73.787
 10
79.836625
 20
74.707
 10
79.85000000000001
 20
75.2
 10
79.85000000000001
 20
75.458
 10
79.83653125000001
 20
75.9455625
 10
79.72878125
 20
76.8580625
 10
79.51328125
 20
77.6870625
 10
79.19003125
 20
78.4325625
 10
78.988
 20
78.774
 10
78.75996875
 20
79.0843125
 10
78.22871875
 20
79.58081250000001
 10
77.59721875000001
 20
79.9118125
 10
76.86546874999999
 20
80.0773125
 10
76.462
 20
80.098
 10
76.06153125
 20
80.0773125
 10
75.33578125000001
 20
79.9118125
 10
74.71028125
 20
79.58081250000001
 10
74.18503125
 20
79.0843125
 10
73.96
 20
78.774
 10
73.76125
 20
78.4325625
 10
73.44325
 20
77.6870625
 10
73.23125
 20
76.8580625
 10
73.12525
 20
75.9455625
 10
73.11200000000001
 20
75.458
 10
73.11200000000001
 20
75.2
 10
73.12525
 20
74.707
  0
LWPOLYLINE
  5
45
330
17
100
AcDbEntity
  8
0
 62
0
100
AcDbPolyline
 90
71
 70
0
 10
15.564828125000004
 20
77.11882031249999
 10
15.707703125000002
 20
77.7290078125
 10
15.898203125000002
 20
78.3082578125
 10
16.136328125000002
 20
78.8565703125
 10
16.422078125000002
 20
79.3739453125
 10
16.755453125000003
 20
79.8603828125
 10
16.94
 20
80.092
 10
17.134750000000004
 20
80.3126328125
 10
17.54975
 20
80.7111953125
 10
17.99875
 20
81.0528203125
 10
18.48175
 20
81.33750781250001
 10
18.99875
 20
81.5652578125
 10
19.549750000000003
 20
81.7360703125
 10
20.134750000000004
 20
81.8499453125
 10
20.753750000000004
 20
81.9068828125
 10
21.076000000000004
 20
81.914
 10
21.401414062500006
 20
81.90690624999999
 10
22.026226562500003
 20
81.85015625
 10
22.616351562500004
 20
81.73665625
 10
23.171789062500004
 20
81.56640625
 10
23.692539062500003
 20
81.33940625
 10
24.178601562500003
 20
81.05565625
 10
24.629976562500005
 20
80.71515625
 10
25.046664062500003
 20
80.31790625000001
 10
25.242000000000004
 20
80.098
 10
25.427273437500006
 20
79.8670625
 10
25.7619609375
 20
79.3815625
 10
26.0488359375
 20
78.8645625
 10
26.287898437500004
 20
78.3160625
 10
26.479148437500005
 20
77.7360625
 10
26.622585937500006
 20
77.1245625
 10
26.748093750000006
 20
76.14825
 10
26.772000000000006
 20
75.458
 10
26.772000000000006
 20
75.2
 10
26.748187500000007
 20
74.50709375
 10
26.623171875000004
 20
73.5280859375
 10
26.480296875
 20
72.9156484375
 10
26.289796875000004
 20
72.3353984375
 10
26.051671875
 20
71.7873359375
 10
25.765921875000004
 20
71.2714609375
 10
25.432546875000003
 20
70.7877734375
 10
25.248000000000005
 20
70.558
 10
25.0534375
 20
70.339546875
 10
24.638437500000002
 20
69.944921875
 10
24.1889375
 20
69.606671875
 10
23.7049375
 20
69.324796875
 10
23.1864375
 20
69.099296875
 10
22.6334375
 20
68.930171875
 10
22.0459375
 20
68.817421875
 10
21.4239375
 20
68.761046875
 10
21.1
 20
68.754
 10
20.776273437500002
 20
68.7610703125
 10
20.1544609375
 20
68.8176328125
 10
19.566835937500002
 20
68.9307578125
 10
19.0133984375
 20
69.1004453125
 10
18.4941484375
 20
69.3266953125
 10
18.0090859375
 20
69.6095078125
 10
17.558210937500004
 20
69.9488828125
 10
17.141523437500002
 20
70.3448203125
 10
16.946
 20
70.564
 10
16.760726562500004
 20
70.794453125
 10
16.426039062500003
 20
71.279078125
 10
16.1391640625
 20
71.795328125
 10
15.900101562500002
 20
72.343203125
 10
15.708851562500001
 20
72.922703125
 10
15.565414062500004
 20
73.533828125
 10
15.439906250000002
 20
74.5098125
 10
15.416000000000004
 20
75.2
 10
15.416000000000004
 20
75.458
 10
15.439812500000002
 20
76.14553125
 10
15.564828125000004
 20
77.11882031249999
  0
LWPOLYLINE
  5
46
330
17
100
AcDbEntity
  8
0
 62
0
100
AcDbPolyline
 90
43
 70
0
 10
17.845250000000004
 20
73.787
 10
18.057250000000003
 20
72.955
 10
18.37525
 20
72.211
 10
18.574
 20
71.872
 10
18.79940625
 20
71.56403125
 10
19.327656250000004
 20
71.07128125
 10
19.959156250000003
 20
70.74278125000001
 10
20.69390625
 20
70.57853125
 10
21.1
 20
70.558
 10
21.5005625
 20
70.57853125
 10
22.227062500000002
 20
70.74278125000001
 10
22.854062500000005
 20
71.07128125
 10
23.3815625
 20
71.56403125
 10
23.608000000000004
 20
71.872
 10
23.808625000000003
 20
72.211
 10
24.129625000000004
 20
72.955
 10
24.343625000000003
 20
73.787
 10
24.450625000000002
 20
74.707
 10
24.464
 20
75.2
 10
24.464
 20
75.458
 10
24.45053125
 20
75.9455625
 10
24.34278125
 20
76.8580625
 10
24.127281250000003
 20
77.6870625
 10
23.804031250000005
 20
78.4325625
 10
23.602000000000004
 20
78.774
 10
23.373968750000003
 20
79.0843125
 10
22.842718750000003
 20
79.58081250000001
 10
22.21121875
 20
79.9118125
 10
21.479468750000002
 20
80.0773125
 10
21.076000000000004
 20
80.098
 10
20.675531250000002
 20
80.0773125
 10
19.94978125
 20
79.9118125
 10
19.324281250000002
 20
79.58081250000001
 10
18.799031250000002
 20
79.0843125
 10
18.574
 20
78.774
 10
18.37525
 20
78.4325625
 10
18.057250000000003
 20
77.6870625
 10
17.845250000000004
 20
76.8580625
 10
17.739250000000002
 20
75.9455625
 10
17.726000000000003
 20
75.458
 10
17.726000000000003
 20
75.2
 10
17.739250000000002
 20
74.707
 10
17.845250000000004
 20
73.787
  0
LWPOLYLINE
  5
47
330
17
100
AcDbEntity
  8
0
 62
0
100
AcDbPolyline
 90
90
 70
0
 10
54.06
 20
70.014
 10
54.00750000000001
 20
70.455
 10
53.982000000000006
 20
70.898
 10
53.81487500000001
 20
70.6741875
 10
53.443875000000006
 20
70.2546875
 10
53.023875000000004
 20
69.8726875
 10
52.55487500000001
 20
69.5281875
 10
52.302
 20
69.37
 10
52.040031250000006
 20
69.225625
 10
51.501281250000005
 20
68.994625
 10
50.94278125
 20
68.840625
 10
50.364531250000006
 20
68.763625
 10
50.068000000000005
 20
68.754
 10
49.58775000000001
 20
68.76984375
 10
48.71575000000001
 20
68.89659375
 10
47.96175
 20
69.15009375
 10
47.325750000000006
 20
69.53034375
 10
47.05200000000001
 20
69.768
 10
46.808718750000004
 20
70.03346875
 10
46.41946875000001
 20
70.63621875
 10
46.159968750000004
 20
71.33471875
 10
46.03021875
 20
72.12896875
 10
46.01400000000001
 20
72.562
 10
46.03696875000001
 20
73.00365625
 10
46.15755468750001
 20
73.6198515625
 10
46.295367187500005
 20
73.9997890625
 10
46.47911718750001
 20
74.3550390625
 10
46.708804687500006
 20
74.6856015625
 10
47.139468750000006
 20
75.13515625
 10
47.48400000000001
 20
75.404
 10
47.86837500000001
 20
75.64446875
 10
48.735375000000005
 20
76.02921875
 10
49.733375
 20
76.28571875
 10
50.86237500000001
 20
76.41396875
 10
51.476
 20
76.43
 10
53.982000000000006
 20
76.43
 10
53.982000000000006
 20
77.684
 10
53.97140625000001
 20
77.9548125
 10
53.88665625
 20
78.4533125
 10
53.71715625000001
 20
78.8943125
 10
53.46290625
 20
79.2778125
 10
53.304
 20
79.44800000000001
 10
53.12521875
 20
79.60034375000001
 10
52.714968750000004
 20
79.84409375
 10
52.23446875000001
 20
80.00659375000001
 10
51.683718750000004
 20
80.08784375
 10
51.382000000000005
 20
80.098
 10
51.11000000000001
 20
80.089125
 10
50.605000000000004
 20
80.018125
 10
50.15200000000001
 20
79.876125
 10
49.751000000000005
 20
79.66312500000001
 10
49.57000000000001
 20
79.53
 10
49.40687500000001
 20
79.38396875000001
 10
49.145875000000004
 20
79.07071875
 10
48.971875000000004
 20
78.72921875
 10
48.884875
 20
78.35946875
 10
48.874
 20
78.164
 10
46.67000000000001
 20
78.164
 10
46.648
 20
78.234
 10
46.65265625000001
 20
78.5763125
 10
46.79790625000001
 20
79.2388125
 10
47.12440625000001
 20
79.8718125
 10
47.63215625000001
 20
80.4753125
 10
47.95400000000001
 20
80.766
 10
48.3105625
 20
81.0350625
 10
49.0990625
 20
81.4655625
 10
49.988062500000005
 20
81.7525625
 10
50.977562500000005
 20
81.8960625
 10
51.510000000000005
 20
81.914
 10
52.035843750000005
 20
81.896875
 10
53.00859375
 20
81.759875
 10
53.876093749999995
 20
81.485875
 10
54.638343750000004
 20
81.07487499999999
 10
54.98000000000001
 20
80.818
 10
55.13887500000001
 20
80.6772265625
 10
55.425875
 20
80.3730390625
 10
55.671875
 20
80.0386640625
 10
55.876875
 20
79.6741015625
 10
56.10750000000001
 20
79.07065625
 10
56.2715
 20
78.16040625
 10
56.29200000000001
 20
77.66
 10
56.29200000000001
 20
71.554
 10
56.30950000000001
 20
70.887
 10
56.362
 20
70.242
 10
56.40437500000001
 20
69.927375
 10
56.53337500000001
 20
69.306375
 10
56.620000000000005
 20
69.0
 10
54.24000000000001
 20
69.0
 10
54.137
 20
69.5405
 10
54.06
 20
70.014
  0
LWPOLYLINE
  5
48
330
17
100
AcDbEntity
  8
0
 62
0
100
AcDbPolyline
 90
33
 70
0
 10
51.31390625
 20
70.7785625
 10
51.87940625
 20
70.9395625
 10
52.41415625
 20
71.1810625
 10
52.67000000000001
 20
71.332
 10
52.911
 20
71.4959375
 10
53.327
 20
71.8414375
 10
53.65500000000001
 20
72.2104375
 10
53.89500000000001
 20
72.6029375
 10
53.982000000000006
 20
72.80799999999999
 10
53.982000000000006
 20
74.872
 10
51.394000000000005
 20
74.872
 10
51.05371875
 20
74.861
 10
50.42546875000001
 20
74.773
 10
49.866968750000005
 20
74.597
 10
49.37821875
 20
74.333
 10
49.160000000000004
 20
74.168
 10
48.96359375
 20
73.9881875
 10
48.64934375000001
 20
73.6056875
 10
48.43984375
 20
73.1926875
 10
48.335093750000006
 20
72.7491875
 10
48.322
 20
72.516
 10
48.33025000000001
 20
72.3105
 10
48.39625000000001
 20
71.9325
 10
48.52825000000001
 20
71.5985
 10
48.72625000000001
 20
71.3085
 10
48.85
 20
71.18
 10
48.989843750000006
 20
71.0646875
 10
49.31659375000001
 20
70.8801875
 10
49.70609375000001
 20
70.7571875
 10
50.15834375000001
 20
70.6956875
 10
50.40800000000001
 20
70.688
 10
50.717656250000005
 20
70.6980625
 10
51.31390625
 20
70.7785625
  0
LWPOLYLINE
  5
49
330
17
100
AcDbEntity
  8
0
 62
0
100
AcDbPolyline
 90
50
 70
0
 10
61.8005
 20
80.48471875
 10
62.19749999999999
 20
80.87621875
 10
62.6345
 20
81.21146875
 10
62.867999999999995
 20
81.358
 10
63.11109375
 20
81.4883125
 10
63.62184375
 20
81.6968125
 10
64.16534375
 20
81.8358125
 10
64.74159374999999
 20
81.90531250000001
 10
65.042
 20
81.914
 10
65.5400625
 20
81.89521875
 10
66.4495625
 20
81.74496875
 10
67.2435625
 20
81.44446875
 10
67.9220625
 20
80.99371875
 10
68.218
 20
80.712
 10
68.354109375
 20
80.556890625
 10
68.599984375
 20
80.216015625
 10
68.9029375
 20
79.6280625
 10
69.1839375
 20
78.7010625
 10
69.3244375
 20
77.6105625
 10
69.342
 20
77.004
 10
69.342
 20
69.0
 10
67.03399999999999
 20
69.0
 10
67.03399999999999
 20
76.958
 10
67.02365625
 20
77.36134375
 10
66.94090625
 20
78.07709375
 10
66.77540624999999
 20
78.67159375
 10
66.52715625
 20
79.14484375
 10
66.372
 20
79.336
 10
66.19559375
 20
79.501
 10
65.77734375
 20
79.765
 10
65.27184375
 20
79.941
 10
64.67909374999999
 20
80.029
 10
64.35000000000001
 20
80.03999999999999
 10
64.1045625
 20
80.03246874999999
 10
63.6350625
 20
79.97221875
 10
63.1940625
 20
79.85171875
 10
62.7815625
 20
79.67096875
 10
62.586000000000006
 20
79.55799999999999
 10
62.3993125
 20
79.4325
 10
62.054812500000004
 20
79.1485
 10
61.7488125
 20
78.82050000000001
 10
61.4813125
 20
78.4485
 10
61.362
 20
78.246
 10
61.362
 20
69.0
 10
59.054
 20
69.0
 10
59.054
 20
81.68
 10
61.116
 20
81.68
 10
61.28
 20
79.792
 10
61.4435
 20
80.03696875
 10
61.8005
 20
80.48471875
  0
LWPOLYLINE
  5
4A
330
17
100
AcDbEntity
  8
0
 62
0
100
AcDbPolyline
 90
38
 70
0
 10
2.11
 20
69.0
 10
2.11
 20
86.062
 10
8.636
 20
86.062
 10
9.29990625
 20
86.04003125
 10
10.2241640625
 20
85.9246953125
 10
10.7926015625
 20
85.7928828125
 10
11.3228515625
 20
85.6171328125
 10
11.814914062500002
 20
85.3974453125
 10
12.2687890625
 20
85.1338203125
 10
12.684476562500002
 20
84.8262578125
 10
12.878
 20
84.656
 10
13.061093750000005
 20
84.4767734375
 10
13.391843750000005
 20
84.0974609375
 10
13.67534375
 20
83.69033593750001
 10
13.911593750000003
 20
83.2553984375
 10
14.100593750000002
 20
82.7926484375
 10
14.242343750000002
 20
82.30208593750001
 10
14.366375
 20
81.51409375
 10
14.39
 20
80.95400000000001
 10
14.366375
 20
80.38571875
 10
14.242343750000002
 20
79.5884921875
 10
14.100593750000002
 20
79.0938046875
 10
13.911593750000003
 20
78.6285546875
 10
13.67534375
 20
78.1927421875
 10
13.391843750000005
 20
77.78636718749999
 10
13.061093750000005
 20
77.4094296875
 10
12.878
 20
77.232
 10
12.684476562500002
 20
77.063921875
 10
12.2687890625
 20
76.760296875
 10
11.814914062500002
 20
76.500046875
 10
11.3228515625
 20
76.283171875
 10
10.7926015625
 20
76.109671875
 10
10.2241640625
 20
75.979546875
 10
9.29990625
 20
75.8656875
 10
8.636
 20
75.844
 10
4.418
 20
75.844
 10
4.418
 20
69.0
 10
2.11
 20
69.0
  0
LWPOLYLINE
  5
4B
330
17
100
AcDbEntity
  8
0
 62
0
100
AcDbPolyline
 90
24
 70
0
 10
9.05621875
 20
77.66256249999999
 10
9.81396875
 20
77.7790625
 10
10.461468750000002
 20
78.0120625
 10
10.998718750000002
 20
78.3615625
 10
11.226
 20
78.58
 10
11.426625000000001
 20
78.82059375
 10
11.747625000000001
 20
79.34734375
 10
11.961625000000002
 20
79.93484375
 10
12.068625
 20
80.58309375
 10
12.082
 20
80.93
 10
12.068531250000001
 20
81.27715625
 10
11.960781250000002
 20
81.92740625
 10
11.74528125
 20
82.51890625
 10
11.422031250000002
 20
83.05165625
 10
11.22
 20
83.29599999999999
 10
10.991500000000002
 20
83.51865624999999
 10
10.453500000000002
 20
83.87490625
 10
9.8075
 20
84.11240624999999
 10
9.0535
 20
84.23115625
 10
8.636
 20
84.24600000000001
 10
4.418
 20
84.24600000000001
 10
4.418
 20
77.648
 10
8.636
 20
77.648
 10
9.05621875
 20
77.66256249999999
  0
LWPOLYLINE
  5
4C
330
17
100
AcDbEntity
  8
0
 62
0
100
AcDbPolyline
 90
59
 70
0
 10
39.95465625
 20
72.9525625
 10
39.72297656250001
 20
72.110640625
 10
39.517039062500004
 20
71.590765625
 10
39.26991406250001
 20
71.104015625
 10
38.9816015625
 20
70.650390625
 10
38.822
 20
70.436
 10
38.653375000000004
 20
70.2323203125
 10
38.292875
 20
69.8643828125
 10
37.901375
 20
69.5490078125
 10
37.47887500000001
 20
69.2861953125
 10
37.025375000000004
 20
69.0759453125
 10
36.540875
 20
68.9182578125
 10
36.025375000000004
 20
68.8131328125
 10
35.47887500000001
 20
68.7605703125
 10
35.194
 20
68.754
 10
34.885625
 20
68.76159375
 10
34.299625000000006
 20
68.82234375
 10
33.754625
 20
68.94384375
 10
33.25062500000001
 20
69.12609375
 10
33.014
 20
69.24
 10
32.787906250000006
 20
69.36875
 10
32.365156250000005
 20
69.66975
 10
31.981656250000004
 20
70.02875
 10
31.637406250000005
 20
70.44575
 10
31.480000000000004
 20
70.676
 10
31.198000000000004
 20
69.0
 10
29.312
 20
69.0
 10
29.312
 20
87.282
 10
31.620000000000005
 20
87.282
 10
31.620000000000005
 20
80.18
 10
31.77396875
 20
80.38475
 10
32.10871875
 20
80.75675
 10
32.47921875
 20
81.07875
 10
32.88546875
 20
81.35075
 10
33.102000000000004
 20
81.468
 10
33.32815625
 20
81.57253125
 10
33.808406250000004
 20
81.73978125
 10
34.32590625
 20
81.85128125
 10
34.88065625000001
 20
81.90703125
 10
35.172000000000004
 20
81.914
 10
35.46073437500001
 20
81.9066796875
 10
36.014109375
 20
81.8481171875
 10
36.535359375000006
 20
81.7309921875
 10
37.024484375
 20
81.5553046875
 10
37.481484375
 20
81.3210546875
 10
37.906359375
 20
81.0282421875
 10
38.299109375
 20
80.6768671875
 10
38.659734375
 20
80.2669296875
 10
38.828
 20
80.03999999999999
 10
38.986875000000005
 20
79.80088281249999
 10
39.273875000000004
 20
79.2949453125
 10
39.519875000000006
 20
78.7520703125
 10
39.724875
 20
78.17225781249999
 10
39.9555
 20
77.23328125
 10
40.1195
 20
75.85203125
 10
40.14
 20
75.106
 10
40.14
 20
74.86
 10
40.11940625
 20
74.1910625
 10
39.95465625
 20
72.9525625
  0
LWPOLYLINE
  5
4D
330
17
100
AcDbEntity
  8
0
 62
0
100
AcDbPolyline
 90
44
 70
0
 10
37.7189375
 20
76.6279375
 10
37.5179375
 20
77.5169375
 10
37.216437500000005
 20
78.3054375
 10
37.028
 20
78.662
 10
36.814406250000005
 20
78.98496875000001
 10
36.444914062500004
 20
79.3886796875
 10
36.1658515625
 20
79.6039921875
 10
35.698156250000004
 20
79.84621874999999
 10
34.982906250000006
 20
80.01846875
 10
34.586000000000006
 20
80.03999999999999
 10
34.32425
 20
80.03184375000001
 10
33.83225
 20
79.96659375
 10
33.38225
 20
79.83609375
 10
32.974250000000005
 20
79.64034375
 10
32.786
 20
79.518
 10
32.607656250000005
 20
79.3819375
 10
32.27890625
 20
79.0764375
 10
31.987406250000006
 20
78.7264375
 10
31.733156250000004
 20
78.3319375
 10
31.620000000000005
 20
78.118
 10
31.620000000000005
 20
72.622
 10
31.735781250000002
 20
72.39390625
 10
31.99303125
 20
71.97615625
 10
32.28453125
 20
71.60965625
 10
32.61028125000001
 20
71.29440625
 10
32.786
 20
71.156
 10
32.97240625
 20
71.03225
 10
33.38065625000001
 20
70.83425
 10
33.83615625
 20
70.70225
 10
34.33890625
 20
70.63625
 10
34.608000000000004
 20
70.628
 10
35.002468750000006
 20
70.64615625
 10
35.71321875
 20
70.79140625
 10
36.31971875000001
 20
71.08190625
 10
36.82196875
 20
71.51765625
 10
37.034000000000006
 20
71.79
 10
37.22103125
 20
72.09171875
 10
37.520281250000004
 20
72.76546875
 10
37.719781250000004
 20
73.53296875
 10
37.819531250000004
 20
74.39421875
 10
37.832
 20
74.86
 10
37.832
 20
75.106
 10
37.81943750000001
 20
75.6384375
 10
37.7189375
 20
76.6279375
  0
LWPOLYLINE
  5
4E
330
17
100
AcDbEntity
  8
0
 62
0
100
AcDbPolyline
 90
5
 70
0
 10
44.636
 20
87.282
 10
44.636
 20
69.0
 10
42.328
 20
69.0
 10
42.328
 20
87.282
 10
44.636
 20
87.282
  0
LWPOLYLINE
  5
4F
330
17
100
AcDbEntity
  8
0
 62
1
100
AcDbPolyline
 90
141
 70
0
 10
-7.0662056839547285
 20
49.05778327993364
 10
-8.23108386419354
 20
49.230576635161235
 10
-9.373416127053547
 20
49.51671597121349
 10
-10.482201188381078
 20
49.91344560986456
 10
-11.546760841911972
 20
50.41694482781974
 10
-12.556842796235223
 20
51.022364652369454
 10
-13.502719409963746
 20
51.72387455964716
 10
-14.37528137423857
 20
52.51471862576143
 10
-15.166125440352845
 20
53.387280590036255
 10
-15.867635347630545
 20
54.33315720376477
 10
-16.47305517218026
 20
55.343239158088025
 10
-16.97655439013544
 20
56.40779881161892
 10
-17.373284028786507
 20
57.516583872946455
 10
-17.659423364838766
 20
58.65891613580646
 10
-17.832216720066363
 20
59.823794316045266
 10
-17.89
 20
61.0
 10
-17.89
 20
93.0
 10
-17.832216720066363
 20
94.17620568395473
 10
-17.659423364838766
 20
95.34108386419354
 10
-17.373284028786507
 20
96.48341612705354
 10
-16.97655439013544
 20
97.59220118838108
 10
-16.47305517218026
 20
98.65676084191198
 10
-15.867635347630545
 20
99.66684279623523
 10
-15.166125440352845
 20
100.61271940996374
 10
-14.37528137423857
 20
101.48528137423857
 10
-13.502719409963746
 20
102.27612544035284
 10
-12.556842796235223
 20
102.97763534763055
 10
-11.546760841911972
 20
103.58305517218025
 10
-10.482201188381078
 20
104.08655439013543
 10
-9.373416127053547
 20
104.4832840287865
 10
-8.23108386419354
 20
104.76942336483876
 10
-7.0662056839547285
 20
104.94221672006637
 10
-5.890000000000001
 20
105.0
 10
4.134
 20
105.0
 10
4.134
 20
111.0
 10
4.158076366639016
 20
111.49008570164781
 10
4.230073597983848
 20
111.97545161008064
 10
4.349298321338956
 20
112.45142338627231
 10
4.514602337443566
 20
112.91341716182545
 10
4.724393678258226
 20
113.35698368412999
 10
4.976651938487274
 20
113.77785116509801
 10
5.268947733186316
 20
114.17196642081822
 10
5.598466094067263
 20
114.53553390593274
 10
5.962033579181774
 20
114.86505226681368
 10
6.35614883490199
 20
115.15734806151272
 10
6.777016315870012
 20
115.40960632174178
 10
7.220582838174552
 20
115.61939766255644
 10
7.68257661372769
 20
115.78470167866104
 10
8.158548389919359
 20
115.90392640201615
 10
8.643914298352197
 20
115.97592363336099
 10
9.134
 20
116.0
 10
15.134
 20
116.0
 10
15.624085701647804
 20
115.97592363336099
 10
16.10945161008064
 20
115.90392640201615
 10
16.58542338627231
 20
115.78470167866104
 10
17.04741716182545
 20
115.61939766255644
 10
17.49098368412999
 20
115.40960632174178
 10
17.91185116509801
 20
115.15734806151272
 10
18.30596642081823
 20
114.86505226681368
 10
18.669533905932738
 20
114.53553390593274
 10
18.999052266813685
 20
114.17196642081822
 10
19.29134806151273
 20
113.77785116509801
 10
19.543606321741777
 20
113.35698368412999
 10
19.753397662556434
 20
112.91341716182545
 10
19.918701678661044
 20
112.45142338627231
 10
20.037926402016154
 20
111.97545161008064
 10
20.109923633360985
 20
111.49008570164781
 10
20.134
 20
111.0
 10
20.134
 20
105.0
 10
64.134
 20
105.0
 10
64.134
 20
111.0
 10
64.15807636663902
 20
111.49008570164781
 10
64.23007359798385
 20
111.97545161008064
 10
64.34929832133895
 20
112.45142338627231
 10
64.51460233744356
 20
112.91341716182545
 10
64.72439367825822
 20
113.35698368412999
 10
64.97665193848728
 20
113.77785116509801
 10
65.26894773318631
 20
114.17196642081822
 10
65.59846609406726
 20
114.53553390593274
 10
65.96203357918178
 20
114.86505226681368
 10
66.35614883490199
 20
115.15734806151272
 10
66.77701631587001
 20
115.40960632174178
 10
67.22058283817455
 20
115.61939766255644
 10
67.68257661372769
 20
115.78470167866104
 10
68.15854838991936
 20
115.90392640201615
 10
68.6439142983522
 20
115.97592363336099
 10
69.134
 20
116.0
 10
75.134
 20
116.0
 10
75.6240857016478
 20
115.97592363336099
 10
76.10945161008064
 20
115.90392640201615
 10
76.58542338627231
 20
115.78470167866104
 10
77.04741716182545
 20
115.61939766255644
 10
77.49098368412999
 20
115.40960632174178
 10
77.91185116509801
 20
115.15734806151272
 10
78.30596642081822
 20
114.86505226681368
 10
78.66953390593274
 20
114.53553390593274
 10
78.99905226681369
 20
114.17196642081822
 10
79.29134806151272
 20
113.77785116509801
 10
79.54360632174178
 20
113.35698368412999
 10
79.75339766255644
 20
112.91341716182545
 10
79.91870167866105
 20
112.45142338627231
 10
80.03792640201615
 20
111.97545161008064
 10
80.10992363336098
 20
111.49008570164781
 10
80.134
 20
111.0
 10
80.134
 20
105.0
 10
90.158
 20
105.0
 10
91.33420568395474
 20
104.94221672006637
 10
92.49908386419354
 20
104.76942336483876
 10
93.64141612705355
 20
104.4832840287865
 10
94.75020118838108
 20
104.08655439013543
 10
95.81476084191198
 20
103.58305517218025
 10
96.82484279623523
 20
102.97763534763054
 10
97.77071940996375
 20
102.27612544035284
 10
98.64328137423857
 20
101.48528137423857
 10
99.43412544035284
 20
100.61271940996374
 10
100.13563534763054
 20
99.66684279623523
 10
100.74105517218027
 20
98.65676084191198
 10
101.24455439013545
 20
97.59220118838107
 10
101.64128402878652
 20
96.48341612705354
 10
101.92742336483877
 20
95.34108386419354
 10
102.10021672006636
 20
94.17620568395472
 10
102.158
 20
93.0
 10
102.158
 20
61.0
 10
102.10021672006636
 20
59.82379431604527
 10
101.92742336483877
 20
58.658916135806464
 10
101.64128402878652
 20
57.516583872946455
 10
101.24455439013545
 20
56.407798811618925
 10
100.74105517218027
 20
55.343239158088025
 10
100.13563534763054
 20
54.33315720376477
 10
99.43412544035284
 20
53.387280590036255
 10
98.64328137423857
 20
52.51471862576143
 10
97.77071940996375
 20
51.72387455964716
 10
96.82484279623523
 20
51.02236465236946
 10
95.81476084191198
 20
50.41694482781974
 10
94.75020118838108
 20
49.91344560986456
 10
93.64141612705355
 20
49.51671597121349
 10
92.49908386419354
 20
49.230576635161235
 10
91.33420568395474
 20
49.05778327993364
 10
90.158
 20
49.0
 10
-5.890000000000001
 20
49.0
 10
-7.0662056839547285
 20
49.05778327993364
  0
LWPOLYLINE
  5
50
330
17
100
AcDbEntity
  8
0
 62
1
100
AcDbPolyline
 90
5
 70
0
 10
15.134
 20
99.0
 10
15.134
 20
111.0
 10
9.134
 20
111.0
 10
9.134
 20
99.0
 10
15.134
 20
99.0
  0
LWPOLYLINE
  5
51
330
17
100
AcDbEntity
  8
0
 62
1
100
AcDbPolyline
 90
5
 70
0
 10
75.134
 20
99.0
 10
75.134
 20
111.0
 10
69.134
 20
111.0
 10
69.134
 20
99.0
 10
75.134
 20
99.0
  0
LWPOLYLINE
  5
52
330
17
100
AcDbEntity
  8
0
 62
1
100
AcDbPolyline
 90
15
 70
0
 10
87.405
 20
138.0
 10
75.005
 20
138.0
 10
75.005
 20
150.4
 10
75.005
 20
178.0
 10
87.405
 20
178.0
 10
87.405
 20
150.4
 10
110.405
 20
150.4
 10
110.405
 20
151.4
 10
120.405
 20
150.4
 10
120.405
 20
145.7
 10
100.405
 20
145.7
 10
100.405
 20
142.7
 10
120.405
 20
142.7
 10
120.405
 20
138.0
 10
87.405
 20
138.0
  0
LWPOLYLINE
  5
53
330
17
100
AcDbEntity
  8
0
 62
1
100
AcDbPolyline
 90
15
 70
0
 10
134.449
 20
69.0
 10
122.049
 20
69.0
 10
122.049
 20
81.4
 10
122.049
 20
109.0
 10
134.449
 20
109.0
 10
134.449
 20
81.4
 10
157.449
 20
81.4
 10
157.449
 20
82.4
 10
167.449
 20
81.4
 10
167.449
 20
76.7
 10
147.449
 20
76.7
 10
147.449
 20
73.7
 10
167.449
 20
73.7
 10
167.449
 20
69.0
 10
134.449
 20
69.0
  0
LWPOLYLINE
  5
54
330
17
100
AcDbEntity
  8
0
 62
0
100
AcDbPolyline
 90
5
 70
0
 10
4.136
 20
138.0
 10
4.136
 20
140.438
 10
6.550000000000001
 20
140.438
 10
6.550000000000001
 20
138.0
 10
4.136
 20
138.0
  0
LWPOLYLINE
  5
55
330
17
100
AcDbEntity
  8
0
 62
0
100
AcDbPolyline
 90
5
 70
0
 10
15.804
 20
140.438
 10
18.218
 20
140.438
 10
18.218
 20
138.0
 10
15.804
 20
138.0
 10
15.804
 20
140.438
  0
LWPOLYLINE
  5
56
330
17
100
AcDbEntity
  8
0
 62
0
100
AcDbPolyline
 90
5
 70
0
 10
27.472000000000005
 20
140.438
 10
29.886000000000003
 20
140.438
 10
29.886000000000003
 20
138.0
 10
27.472000000000005
 20
138.0
 10
27.472000000000005
 20
140.438
  0
LWPOLYLINE
  5
57
330
17
100
AcDbEntity
  8
0
 62
0
100
AcDbPolyline
 90
74
 70
0
 10
4.182875
 20
143.58875
 10
4.28046875
 20
144.5211875
 10
4.38771875
 20
144.9796875
 10
4.454
 20
145.16
 10
4.5383125
 20
145.33059375
 10
4.792812499999999
 20
145.71134375
 10
5.3892500000000005
 20
146.381375
 10
5.93
 20
146.894
 10
6.468249999999999
 20
147.540375
 10
7.29425
 20
148.595375
 10
7.582
 20
149.004
 10
7.6973125
 20
149.19328124999998
 10
7.8818125
 20
149.60053125
 10
8.0048125
 20
150.04603125
 10
8.0663125
 20
150.52978125
 10
8.074
 20
150.786
 10
8.06365625
 20
151.08753125
 10
7.98090625
 20
151.63678125
 10
7.815406250000001
 20
152.11428125
 10
7.567156250000001
 20
152.52003125
 10
7.412000000000001
 20
152.696
 10
7.237625
 20
152.8525625
 10
6.835624999999999
 20
153.1030625
 10
6.3626249999999995
 20
153.2700625
 10
5.818625
 20
153.3535625
 10
5.52
 20
153.364
 10
5.258437499999999
 20
153.3549375
 10
4.764937499999999
 20
153.28243750000001
 10
4.3109375000000005
 20
153.1374375
 10
3.8964375000000007
 20
152.9199375
 10
3.704
 20
152.784
 10
3.52821875
 20
152.63046875
 10
3.24696875
 20
152.27221875
 10
3.05946875
 20
151.84571875
 10
2.96571875
 20
151.35096875
 10
2.9540000000000006
 20
151.078
 10
0.75
 20
151.078
 10
0.714
 20
151.148
 10
0.7273437500000001
 20
151.60825
 10
0.8850937500000001
 20
152.45825
 10
1.2175937500000003
 20
153.21425
 10
1.7248437500000002
 20
153.87625
 10
2.044
 20
154.172
 10
2.3971250000000004
 20
154.43825
 10
3.1731250000000006
 20
154.86425
 10
4.042125
 20
155.14825
 10
5.004125
 20
155.29025
 10
5.52
 20
155.308
 10
6.08090625
 20
155.28959375
 10
7.1061562500000015
 20
155.14234375
 10
8.00265625
 20
154.84784375
 10
8.77040625
 20
154.40609375
 10
9.106
 20
154.13
 10
9.4050625
 20
153.82140625
 10
9.8835625
 20
153.11665625
 10
10.202562499999999
 20
152.29515625
 10
10.3620625
 20
151.35690625
 10
10.382
 20
150.844
 10
10.36909375
 20
150.47003125
 10
10.26584375
 20
149.74628125
 10
10.05934375
 20
149.05478125
 10
9.74959375
 20
148.39553125
 10
9.556
 20
148.078
 10
9.10975
 20
147.447375
 10
8.017750000000001
 20
146.164375
 10
7.372
 20
145.512
 10
7.0862500000000015
 20
145.20325
 10
6.702250000000001
 20
144.63525
 10
6.604000000000001
 20
144.376
 10
6.544500000000003
 20
144.08875
 10
6.4765000000000015
 20
143.30275
 10
6.468000000000001
 20
142.804
 10
4.16
 20
142.804
 10
4.182875
 20
143.58875
  0
LWPOLYLINE
  5
58
330
17
100
AcDbEntity
  8
0
 62
0
100
AcDbPolyline
 90
74
 70
0
 10
15.948468750000002
 20
144.5211875
 10
16.05571875
 20
144.9796875
 10
16.122
 20
145.16
 10
16.2063125
 20
145.33059375
 10
16.4608125
 20
145.71134375
 10
17.05725
 20
146.381375
 10
17.598
 20
146.894
 10
18.13625
 20
147.540375
 10
18.96225
 20
148.595375
 10
19.25
 20
149.004
 10
19.3653125
 20
149.19328124999998
 10
19.5498125
 20
149.60053125
 10
19.6728125
 20
150.04603125
 10
19.7343125
 20
150.52978125
 10
19.742
 20
150.786
 10
19.73165625
 20
151.08753125
 10
19.64890625
 20
151.63678125
 10
19.48340625
 20
152.11428125
 10
19.235156250000003
 20
152.52003125
 10
19.080000000000002
 20
152.696
 10
18.905624999999997
 20
152.8525625
 10
18.503625
 20
153.1030625
 10
18.030624999999997
 20
153.2700625
 10
17.486625
 20
153.3535625
 10
17.188
 20
153.364
 10
16.9264375
 20
153.3549375
 10
16.432937499999998
 20
153.28243750000001
 10
15.9789375
 20
153.1374375
 10
15.5644375
 20
152.9199375
 10
15.372
 20
152.784
 10
15.19621875
 20
152.63046875
 10
14.91496875
 20
152.27221875
 10
14.72746875
 20
151.84571875
 10
14.63371875
 20
151.35096875
 10
14.622
 20
151.078
 10
12.418
 20
151.078
 10
12.382
 20
151.148
 10
12.39534375
 20
151.60825
 10
12.55309375
 20
152.45825
 10
12.885593749999998
 20
153.21425
 10
13.39284375
 20
153.87625
 10
13.712000000000002
 20
154.172
 10
14.065125000000002
 20
154.43825
 10
14.841125
 20
154.86425
 10
15.710125
 20
155.14825
 10
16.672125
 20
155.29025
 10
17.188
 20
155.308
 10
17.74890625
 20
155.28959375
 10
18.77415625
 20
155.14234375
 10
19.67065625
 20
154.84784375
 10
20.43840625
 20
154.40609375
 10
20.774
 20
154.13
 10
21.0730625
 20
153.82140625
 10
21.551562500000003
 20
153.11665625
 10
21.870562500000002
 20
152.29515625
 10
22.0300625
 20
151.35690625
 10
22.05
 20
150.844
 10
22.037093749999997
 20
150.47003125
 10
21.93384375
 20
149.74628125
 10
21.727343750000003
 20
149.05478125
 10
21.417593749999998
 20
148.39553125
 10
21.224
 20
148.078
 10
20.777749999999997
 20
147.447375
 10
19.685750000000002
 20
146.164375
 10
19.04
 20
145.512
 10
18.754250000000003
 20
145.20325
 10
18.37025
 20
144.63525
 10
18.272000000000002
 20
144.376
 10
18.212500000000002
 20
144.08875
 10
18.1445
 20
143.30275
 10
18.136000000000003
 20
142.804
 10
15.828000000000001
 20
142.804
 10
15.850875
 20
143.58875
 10
15.948468750000002
 20
144.5211875
  0
LWPOLYLINE
  5
59
330
17
100
AcDbEntity
  8
0
 62
0
100
AcDbPolyline
 90
74
 70
0
 10
27.616468750000003
 20
144.5211875
 10
27.723718750000003
 20
144.9796875
 10
27.790000000000006
 20
145.16
 10
27.874312500000002
 20
145.33059375
 10
28.128812500000006
 20
145.71134375
 10
28.725250000000003
 20
146.381375
 10
29.266000000000005
 20
146.894
 10
29.804250000000003
 20
147.540375
 10
30.630250000000004
 20
148.595375
 10
30.918000000000003
 20
149.004
 10
31.0333125
 20
149.19328124999998
 10
31.217812500000004
 20
149.60053125
 10
31.340812500000006
 20
150.04603125
 10
31.402312500000008
 20
150.52978125
 10
31.410000000000004
 20
150.786
 10
31.39965625
 20
151.08753125
 10
31.316906250000002
 20
151.63678125
 10
31.151406250000004
 20
152.11428125
 10
30.903156250000002
 20
152.52003125
 10
30.748000000000005
 20
152.696
 10
30.573625000000007
 20
152.8525625
 10
30.171625000000002
 20
153.1030625
 10
29.698625
 20
153.2700625
 10
29.154625
 20
153.3535625
 10
28.856
 20
153.364
 10
28.594437500000005
 20
153.3549375
 10
28.1009375
 20
153.28243750000001
 10
27.646937500000003
 20
153.1374375
 10
27.232437500000003
 20
152.9199375
 10
27.040000000000006
 20
152.784
 10
26.864218750000006
 20
152.63046875
 10
26.582968750000006
 20
152.27221875
 10
26.395468750000006
 20
151.84571875
 10
26.301718750000006
 20
151.35096875
 10
26.290000000000006
 20
151.078
 10
24.086000000000002
 20
151.078
 10
24.05
 20
151.148
 10
24.06334375
 20
151.60825
 10
24.22109375
 20
152.45825
 10
24.553593750000005
 20
153.21425
 10
25.060843750000004
 20
153.87625
 10
25.380000000000003
 20
154.172
 10
25.733125
 20
154.43825
 10
26.509125
 20
154.86425
 10
27.378125
 20
155.14825
 10
28.340125
 20
155.29025
 10
28.856
 20
155.308
 10
29.41690625
 20
155.28959375
 10
30.442156250000007
 20
155.14234375
 10
31.338656250000003
 20
154.84784375
 10
32.106406250000006
 20
154.40609375
 10
32.442
 20
154.13
 10
32.7410625
 20
153.82140625
 10
33.2195625
 20
153.11665625
 10
33.538562500000005
 20
152.29515625
 10
33.698062500000006
 20
151.35690625
 10
33.718
 20
150.844
 10
33.70509375
 20
150.47003125
 10
33.60184375
 20
149.74628125
 10
33.39534375
 20
149.05478125
 10
33.08559375
 20
148.39553125
 10
32.892
 20
148.078
 10
32.44575
 20
147.447375
 10
31.353750000000005
 20
146.164375
 10
30.708000000000006
 20
145.512
 10
30.422250000000005
 20
145.20325
 10
30.038250000000005
 20
144.63525
 10
29.940000000000005
 20
144.376
 10
29.88050000000001
 20
144.08875
 10
29.8125
 20
143.30275
 10
29.804000000000002
 20
142.804
 10
27.496000000000006
 20
142.804
 10
27.518875000000005
 20
143.58875
 10
27.616468750000003
 20
144.5211875
  0
LWPOLYLINE
  5
5A
330
17
100
AcDbEntity
  8
0
 62
1
100
AcDbPolyline
 90
133
 70
0
 10
-8.462205683954727
 20
118.05778327993363
 10
-9.627083864193537
 20
118.23057663516124
 10
-10.769416127053546
 20
118.5167159712135
 10
-11.878201188381077
 20
118.91344560986457
 10
-12.942760841911973
 20
119.41694482781975
 10
-13.952842796235224
 20
120.02236465236945
 10
-14.898719409963745
 20
120.72387455964716
 10
-15.77128137423857
 20
121.51471862576143
 10
-16.562125440352844
 20
122.38728059003626
 10
-17.263635347630544
 20
123.33315720376477
 10
-17.86905517218026
 20
124.34323915808802
 10
-18.37255439013544
 20
125.40779881161892
 10
-18.769284028786508
 20
126.51658387294646
 10
-19.055423364838767
 20
127.65891613580646
 10
-19.228216720066364
 20
128.82379431604528
 10
-19.286
 20
130.0
 10
-19.286
 20
162.0
 10
-19.228216720066364
 20
163.17620568395472
 10
-19.055423364838767
 20
164.34108386419354
 10
-18.769284028786508
 20
165.48341612705354
 10
-18.37255439013544
 20
166.59220118838107
 10
-17.86905517218026
 20
167.656760841912
 10
-17.263635347630544
 20
168.66684279623522
 10
-16.562125440352844
 20
169.61271940996374
 10
-15.77128137423857
 20
170.48528137423858
 10
-14.898719409963745
 20
171.27612544035284
 10
-13.952842796235224
 20
171.97763534763055
 10
-12.942760841911973
 20
172.58305517218025
 10
-11.878201188381077
 20
173.08655439013543
 10
-10.783999999999999
 20
173.47806583560734
 10
-10.783999999999999
 20
180.0
 10
-10.759923633360984
 20
180.4900857016478
 10
-10.687926402016151
 20
180.97545161008065
 10
-10.568701678661043
 20
181.45142338627232
 10
-10.403397662556433
 20
181.91341716182546
 10
-10.193606321741774
 20
182.35698368413
 10
-9.941348061512725
 20
182.777851165098
 10
-9.649052266813683
 20
183.17196642081822
 10
-9.319533905932737
 20
183.53553390593274
 10
-8.955966420818225
 20
183.86505226681368
 10
-8.561851165098009
 20
184.15734806151272
 10
-8.140983684129989
 20
184.40960632174176
 10
-7.697417161825447
 20
184.61939766255642
 10
-7.235423386272309
 20
184.78470167866104
 10
-6.75945161008064
 20
184.90392640201617
 10
-6.274085701647802
 20
184.975923633361
 10
-5.783999999999999
 20
185.0
 10
0.21600000000000108
 20
185.0
 10
0.7060857016478049
 20
184.975923633361
 10
1.1914516100806427
 20
184.90392640201617
 10
1.6674233862723127
 20
184.78470167866104
 10
2.12941716182545
 20
184.61939766255642
 10
2.5729836841299902
 20
184.40960632174176
 10
2.9938511650980124
 20
184.15734806151272
 10
3.3879664208182287
 20
183.86505226681368
 10
3.751533905932739
 20
183.53553390593274
 10
4.0810522668136855
 20
183.17196642081822
 10
4.373348061512727
 20
182.777851165098
 10
4.625606321741776
 20
182.35698368413
 10
4.835397662556435
 20
181.91341716182546
 10
5.000701678661046
 20
181.45142338627232
 10
5.119926402016153
 20
180.97545161008065
 10
5.191923633360986
 20
180.4900857016478
 10
5.216000000000001
 20
180.0
 10
5.216000000000001
 20
174.0
 10
29.216
 20
174.0
 10
29.216
 20
180.0
 10
29.240076366639016
 20
180.4900857016478
 10
29.312073597983847
 20
180.97545161008065
 10
29.431298321338957
 20
181.45142338627232
 10
29.596602337443567
 20
181.91341716182546
 10
29.806393678258225
 20
182.35698368413
 10
30.058651938487273
 20
182.777851165098
 10
30.350947733186317
 20
183.17196642081822
 10
30.680466094067263
 20
183.53553390593274
 10
31.044033579181775
 20
183.86505226681368
 10
31.43814883490199
 20
184.15734806151272
 10
31.85901631587001
 20
184.40960632174176
 10
32.30258283817455
 20
184.61939766255642
 10
32.76457661372769
 20
184.78470167866104
 10
33.24054838991936
 20
184.90392640201617
 10
33.7259142983522
 20
184.975923633361
 10
34.216
 20
185.0
 10
40.216
 20
185.0
 10
40.70608570164781
 20
184.975923633361
 10
41.19145161008064
 20
184.90392640201617
 10
41.66742338627231
 20
184.78470167866104
 10
42.12941716182545
 20
184.61939766255642
 10
42.57298368412999
 20
184.40960632174176
 10
42.993851165098015
 20
184.15734806151272
 10
43.38796642081823
 20
183.86505226681368
 10
43.75153390593274
 20
183.53553390593274
 10
44.081052266813685
 20
183.17196642081822
 10
44.37334806151273
 20
182.777851165098
 10
44.62560632174178
 20
182.35698368413
 10
44.83539766255643
 20
181.91341716182546
 10
45.000701678661045
 20
181.45142338627232
 10
45.119926402016155
 20
180.97545161008065
 10
45.191923633360986
 20
180.4900857016478
 10
45.216
 20
180.0
 10
45.216
 20
173.47806583560734
 10
46.31020118838108
 20
173.08655439013543
 10
47.37476084191198
 20
172.58305517218025
 10
48.38484279623523
 20
171.97763534763055
 10
49.33071940996375
 20
171.27612544035284
 10
50.20328137423857
 20
170.48528137423858
 10
50.994125440352846
 20
169.61271940996374
 10
51.69563534763054
 20
168.66684279623522
 10
52.30105517218026
 20
167.65676084191196
 10
52.80455439013544
 20
166.59220118838107
 10
53.20128402878651
 20
165.48341612705354
 10
53.48742336483877
 20
164.34108386419354
 10
53.660216720066366
 20
163.17620568395472
 10
53.718
 20
162.0
 10
53.718
 20
130.0
 10
53.660216720066366
 20
128.82379431604528
 10
53.48742336483877
 20
127.65891613580646
 10
53.20128402878651
 20
126.51658387294646
 10
52.80455439013544
 20
125.40779881161892
 10
52.30105517218026
 20
124.34323915808802
 10
51.69563534763054
 20
123.33315720376477
 10
50.994125440352846
 20
122.38728059003626
 10
50.20328137423857
 20
121.51471862576143
 10
49.33071940996375
 20
120.72387455964716
 10
48.38484279623523
 20
120.02236465236946
 10
47.37476084191198
 20
119.41694482781975
 10
46.31020118838108
 20
118.91344560986457
 10
45.20141612705355
 20
118.5167159712135
 10
44.059083864193546
 20
118.23057663516124
 10
42.89420568395473
 20
118.05778327993363
 10
41.718
 20
118.0
 10
-7.286
 20
118.0
 10
-8.462205683954727
 20
118.05778327993363
  0
LWPOLYLINE
  5
5B
330
17
100
AcDbEntity
  8
0
 62
1
100
AcDbPolyline
 90
5
 70
0
 10
0.21600000000000108
 20
168.0
 10
0.21600000000000108
 20
180.0
 10
-5.783999999999999
 20
180.0
 10
-5.783999999999999
 20
168.0
 10
0.21600000000000108
 20
168.0
  0
LWPOLYLINE
  5
5C
330
17
100
AcDbEntity
  8
0
 62
1
100
AcDbPolyline
 90
5
 70
0
 10
40.216
 20
168.0
 10
40.216
 20
180.0
 10
34.216
 20
180.0
 10
34.216
 20
168.0
 10
40.216
 20
168.0
  0
LWPOLYLINE
  5
5D
330
17
100
AcDbEntity
  8
0
 62
1
100
AcDbPolyline
 90
15
 70
0
 10
150.946
 20
0.0
 10
138.546
 20
0.0
 10
138.546
 20
12.4
 10
138.546
 20
40.0
 10
150.946
 20
40.0
 10
150.946
 20
12.4
 10
173.946
 20
12.4
 10
173.946
 20
13.4
 10
183.946
 20
12.4
 10
183.946
 20
7.7
 10
163.946
 20
7.7
 10
163.946
 20
4.7
 10
183.946
 20
4.7
 10
183.946
 20
0.0
 10
150.946
 20
0.0
  0
LWPOLYLINE
  5
5E
330
17
100
AcDbEntity
  8
0
 62
1
100
AcDbPolyline
 90
15
 70
0
 10
107.2
 20
180.0
 10
94.8
 20
180.0
 10
94.8
 20
192.4
 10
94.8
 20
220.0
 10
107.2
 20
220.0
 10
107.2
 20
192.4
 10
130.2
 20
192.4
 10
130.2
 20
193.4
 10
140.2
 20
192.4
 10
140.2
 20
187.7
 10
120.19999999999999
 20
187.7
 10
120.19999999999999
 20
184.7
 10
140.2
 20
184.7
 10
140.2
 20
180.0
 10
107.2
 20
180.0
  0
ENDSEC
  0
SECTION
  2
OBJECTS
  0
DICTIONARY
  5
A
330
0
100
AcDbDictionary
280
0
281
1
  3
ACAD_COLOR
350
B
  3
ACAD_GROUP
350
C
  3
ACAD_LAYOUT
350
D
  3
ACAD_MATERIAL
350
E
  3
ACAD_MLEADERSTYLE
350
F
  3
ACAD_MLINESTYLE
350
10
  3
ACAD_PLOTSETTINGS
350
11
  3
ACAD_PLOTSTYLENAME
350
12
  3
ACAD_SCALELIST
350
14
  3
ACAD_TABLESTYLE
350
15
  3
ACAD_VISUALSTYLE
350
16
  3
EZDXF_META
350
2D
  0
DICTIONARY
  5
B
330
A
100
AcDbDictionary
280
0
281
1
  0
DICTIONARY
  5
C
330
A
100
AcDbDictionary
280
0
281
1
  0
DICTIONARY
  5
D
330
A
100
AcDbDictionary
280
0
281
1
  3
Model
350
1A
  3
Layout1
350
1E
  0
DICTIONARY
  5
E
330
A
100
AcDbDictionary
280
0
281
1
  3
ByBlock
350
1F
  3
ByLayer
350
20
  3
Global
350
21
  0
DICTIONARY
  5
F
330
A
100
AcDbDictionary
280
0
281
1
  3
Standard
350
2C
  0
DICTIONARY
  5
10
330
A
100
AcDbDictionary
280
0
281
1
  3
Standard
350
22
  0
DICTIONARY
  5
11
330
A
100
AcDbDictionary
280
0
281
1
  0
ACDBDICTIONARYWDFLT
  5
12
330
A
100
AcDbDictionary
280
0
281
1
  3
Normal
350
13
100
AcDbDictionaryWithDefault
340
13
  0
ACDBPLACEHOLDER
  5
13
330
12
  0
DICTIONARY
  5
14
330
A
100
AcDbDictionary
280
0
281
1
  0
DICTIONARY
  5
15
330
A
100
AcDbDictionary
280
0
281
1
  0
DICTIONARY
  5
16
330
A
100
AcDbDictionary
280
0
281
1
  0
LAYOUT
  5
1A
330
D
100
AcDbPlotSettings
  1

  2
Adobe PDF
  4
A3
  6

 40
7.5
 41
20.0
 42
7.5
 43
20.0
 44
420.0
 45
297.0
 46
0.0
 47
0.0
 48
0.0
 49
0.0
140
0.0
141
0.0
142
1.0
143
1.0
 70
1024
 72
1
 73
0
 74
5
  7

 75
16
 76
0
 77
2
 78
300
147
1.0
148
0.0
149
0.0
100
AcDbLayout
  1
Model
 70
1
 71
0
 10
0.0
 20
0.0
 11
420.0
 21
297.0
 12
0.0
 22
0.0
 32
0.0
 14
1e+20
 24
1e+20
 34
1e+20
 15
-1e+20
 25
-1e+20
 35
-1e+20
146
0.0
 13
0.0
 23
0.0
 33
0.0
 16
1.0
 26
0.0
 36
0.0
 17
0.0
 27
1.0
 37
0.0
 76
1
330
17
  0
LAYOUT
  5
1E
330
D
100
AcDbPlotSettings
  1

  2
Adobe PDF
  4
A3
  6

 40
7.5
 41
20.0
 42
7.5
 43
20.0
 44
420.0
 45
297.0
 46
0.0
 47
0.0
 48
0.0
 49
0.0
140
0.0
141
0.0
142
1.0
143
1.0
 70
0
 72
1
 73
0
 74
5
  7

 75
16
 76
0
 77
2
 78
300
147
1.0
148
0.0
149
0.0
100
AcDbLayout
  1
Layout1
 70
1
 71
1
 10
0.0
 20
0.0
 11
420.0
 21
297.0
 12
0.0
 22
0.0
 32
0.0
 14
1e+20
 24
1e+20
 34
1e+20
 15
-1e+20
 25
-1e+20
 35
-1e+20
146
0.0
 13
0.0
 23
0.0
 33
0.0
 16
1.0
 26
0.0
 36
0.0
 17
0.0
 27
1.0
 37
0.0
 76
1
330
1B
  0
MATERIAL
  5
1F
102
{ACAD_REACTORS
330
E
102
}
330
E
100
AcDbMaterial
  1
ByBlock
  2

 70
0
 40
1.0
 71
1
 41
1.0
 91
-1023410177
 42
1.0
 72
1
  3

 73
1
 74
1
 75
1
 44
0.5
 73
0
 45
1.0
 46
1.0
 77
1
  4

 78
1
 79
1
170
1
 48
1.0
171
1
  6

172
1
173
1
174
1
140
1.0
141
1.0
175
1
  7

176
1
177
1
178
1
143
1.0
179
1
  8

270
1
271
1
272
1
145
1.0
146
1.0
273
1
  9

274
1
275
1
276
1
 42
1.0
 72
1
  3

 73
1
 74
1
 75
1
 94
63
  0
MATERIAL
  5
20
102
{ACAD_REACTORS
330
E
102
}
330
E
100
AcDbMaterial
  1
ByLayer
  2

 70
0
 40
1.0
 71
1
 41
1.0
 91
-1023410177
 42
1.0
 72
1
  3

 73
1
 74
1
 75
1
 44
0.5
 73
0
 45
1.0
 46
1.0
 77
1
  4

 78
1
 79
1
170
1
 48
1.0
171
1
  6

172
1
173
1
174
1
140
1.0
141
1.0
175
1
  7

176
1
177
1
178
1
143
1.0
179
1
  8

270
1
271
1
272
1
145
1.0
146
1.0
273
1
  9

274
1
275
1
276
1
 42
1.0
 72
1
  3

 73
1
 74
1
 75
1
 94
63
  0
MATERIAL
  5
21
102
{ACAD_REACTORS
330
E
102
}
330
E
100
AcDbMaterial
  1
Global
  2

 70
0
 40
1.0
 71
1
 41
1.0
 91
-1023410177
 42
1.0
 72
1
  3

 73
1
 74
1
 75
1
 44
0.5
 73
0
 45
1.0
 46
1.0
 77
1
  4

 78
1
 79
1
170
1
 48
1.0
171
1
  6

172
1
173
1
174
1
140
1.0
141
1.0
175
1
  7

176
1
177
1
178
1
143
1.0
179
1
  8

270
1
271
1
272
1
145
1.0
146
1.0
273
1
  9

274
1
275
1
276
1
 42
1.0
 72
1
  3

 73
1
 74
1
 75
1
 94
63
  0
MLINESTYLE
  5
22
102
{ACAD_REACTORS
330
10
102
}
330
10
100
AcDbMlineStyle
  2
Standard
 70
0
  3

 62
256
 51
90.0
 52
90.0
 71
2
 49
0.5
 62
256
  6
BYLAYER
 49
-0.5
 62
256
  6
BYLAYER
  0
MLEADERSTYLE
  5
2C
102
{ACAD_REACTORS
330
F
102
}
330
F
100
AcDbMLeaderStyle
179
2
170
2
171
1
172
0
 90
2
 40
0.0
 41
0.0
173
1
 91
-1056964608
 92
-2
290
1
 42
2.0
291
1
 43
8.0
  3
Standard
 44
4.0
300

342
29
174
1
175
1
176
0
178
1
 93
-1056964608
 45
4.0
292
0
297
0
 46
4.0
 94
-1056964608
 47
1.0
 49
1.0
140
1.0
294
1
141
0.0
177
0
142
1.0
295
0
296
0
143
3.75
271
0
272
9
273
9
  0
DICTIONARY
  5
2D
330
A
100
AcDbDictionary
281
1
  3
CREATED_BY_EZDXF
350
2E
  3
WRITTEN_BY_EZDXF
350
61
  0
DICTIONARYVAR
  5
2E
330
2D
100
DictionaryVariables
280
0
  1
1.1.1 @ 2024-05-30T23:12:27.522500+00:00
  0
DICTIONARYVAR
  5
61
330
2D
100
DictionaryVariables
280
0
  1
1.1.1 @ 2024-05-30T23:12:27.547580+00:00
  0
ENDSEC
  0
EOF
