  0
SECTION
  2
HEADER
  9
$ACADVER
  1
AC1032
  9
$ACADMAINTVER
 90
4
  9
$DWGCODEPAGE
  3
ANSI_1252
  9
$LASTSAVEDBY
  1
ezdxf
  9
$REQUIREDVERSIONS
160
0
  9
$INSBASE
 10
0.0
 20
0.0
 30
0.0
  9
$EXTMIN
 10
1e+20
 20
1e+20
 30
1e+20
  9
$EXTMAX
 10
-1e+20
 20
-1e+20
 30
-1e+20
  9
$LIMMIN
 10
0.0
 20
0.0
  9
$LIMMAX
 10
420.0
 20
297.0
  9
$ORTHOMODE
 70
0
  9
$REGENMODE
 70
1
  9
$FILLMODE
 70
1
  9
$QTEXTMODE
 70
0
  9
$MIRRTEXT
 70
1
  9
$LTSCALE
 40
1.0
  9
$ATTMODE
 70
1
  9
$TEXTSIZE
 40
2.5
  9
$TRACEWID
 40
1.0
  9
$TEXTSTYLE
  7
Standard
  9
$CLAYER
  8
0
  9
$CELTYPE
  6
ByLayer
  9
$CECOLOR
 62
256
  9
$CELTSCALE
 40
1.0
  9
$DISPSILH
 70
0
  9
$DIMSCALE
 40
1.0
  9
$DIMASZ
 40
2.5
  9
$DIMEXO
 40
0.625
  9
$DIMDLI
 40
3.75
  9
$DIMRND
 40
0.0
  9
$DIMDLE
 40
0.0
  9
$DIMEXE
 40
1.25
  9
$DIMTP
 40
0.0
  9
$DIMTM
 40
0.0
  9
$DIMTXT
 40
2.5
  9
$DIMCEN
 40
2.5
  9
$DIMTSZ
 40
0.0
  9
$DIMTOL
 70
0
  9
$DIMLIM
 70
0
  9
$DIMTIH
 70
0
  9
$DIMTOH
 70
0
  9
$DIMSE1
 70
0
  9
$DIMSE2
 70
0
  9
$DIMTAD
 70
1
  9
$DIMZIN
 70
8
  9
$DIMBLK
  1

  9
$DIMASO
 70
1
  9
$DIMSHO
 70
1
  9
$DIMPOST
  1

  9
$DIMAPOST
  1

  9
$DIMALT
 70
0
  9
$DIMALTD
 70
3
  9
$DIMALTF
 40
0.03937007874
  9
$DIMLFAC
 40
1.0
  9
$DIMTOFL
 70
1
  9
$DIMTVP
 40
0.0
  9
$DIMTIX
 70
0
  9
$DIMSOXD
 70
0
  9
$DIMSAH
 70
0
  9
$DIMBLK1
  1

  9
$DIMBLK2
  1

  9
$DIMSTYLE
  2
ISO-25
  9
$DIMCLRD
 70
0
  9
$DIMCLRE
 70
0
  9
$DIMCLRT
 70
0
  9
$DIMTFAC
 40
1.0
  9
$DIMGAP
 40
0.625
  9
$DIMJUST
 70
0
  9
$DIMSD1
 70
0
  9
$DIMSD2
 70
0
  9
$DIMTOLJ
 70
0
  9
$DIMTZIN
 70
8
  9
$DIMALTZ
 70
0
  9
$DIMALTTZ
 70
0
  9
$DIMUPT
 70
0
  9
$DIMDEC
 70
2
  9
$DIMTDEC
 70
2
  9
$DIMALTU
 70
2
  9
$DIMALTTD
 70
3
  9
$DIMTXSTY
  7
Standard
  9
$DIMAUNIT
 70
0
  9
$DIMADEC
 70
0
  9
$DIMALTRND
 40
0.0
  9
$DIMAZIN
 70
0
  9
$DIMDSEP
 70
44
  9
$DIMATFIT
 70
3
  9
$DIMFRAC
 70
0
  9
$DIMLDRBLK
  1

  9
$DIMLUNIT
 70
2
  9
$DIMLWD
 70
-2
  9
$DIMLWE
 70
-2
  9
$DIMTMOVE
 70
0
  9
$DIMFXL
 40
1.0
  9
$DIMFXLON
 70
0
  9
$DIMJOGANG
 40
0.785398163397
  9
$DIMTFILL
 70
0
  9
$DIMTFILLCLR
 70
0
  9
$DIMARCSYM
 70
0
  9
$DIMLTYPE
  6

  9
$DIMLTEX1
  6

  9
$DIMLTEX2
  6

  9
$DIMTXTDIRECTION
 70
0
  9
$LUNITS
 70
2
  9
$LUPREC
 70
4
  9
$SKETCHINC
 40
1.0
  9
$FILLETRAD
 40
10.0
  9
$AUNITS
 70
0
  9
$AUPREC
 70
2
  9
$MENU
  1
.
  9
$ELEVATION
 40
0.0
  9
$PELEVATION
 40
0.0
  9
$THICKNESS
 40
0.0
  9
$LIMCHECK
 70
0
  9
$CHAMFERA
 40
0.0
  9
$CHAMFERB
 40
0.0
  9
$CHAMFERC
 40
0.0
  9
$CHAMFERD
 40
0.0
  9
$SKPOLY
 70
0
  9
$TDCREATE
 40
2460397.482615741
  9
$TDUCREATE
 40
2458532.153996898
  9
$TDUPDATE
 40
2460397.482615741
  9
$TDUUPDATE
 40
2458532.1544311
  9
$TDINDWG
 40
0.0
  9
$TDUSRTIMER
 40
0.0
  9
$USRTIMER
 70
1
  9
$ANGBASE
 50
0.0
  9
$ANGDIR
 70
0
  9
$PDMODE
 70
0
  9
$PDSIZE
 40
0.0
  9
$PLINEWID
 40
0.0
  9
$SPLFRAME
 70
0
  9
$SPLINETYPE
 70
6
  9
$SPLINESEGS
 70
8
  9
$HANDSEED
  5
35
  9
$SURFTAB1
 70
6
  9
$SURFTAB2
 70
6
  9
$SURFTYPE
 70
6
  9
$SURFU
 70
6
  9
$SURFV
 70
6
  9
$UCSBASE
  2

  9
$UCSNAME
  2

  9
$UCSORG
 10
0.0
 20
0.0
 30
0.0
  9
$UCSXDIR
 10
1.0
 20
0.0
 30
0.0
  9
$UCSYDIR
 10
0.0
 20
1.0
 30
0.0
  9
$UCSORTHOREF
  2

  9
$UCSORTHOVIEW
 70
0
  9
$UCSORGTOP
 10
0.0
 20
0.0
 30
0.0
  9
$UCSORGBOTTOM
 10
0.0
 20
0.0
 30
0.0
  9
$UCSORGLEFT
 10
0.0
 20
0.0
 30
0.0
  9
$UCSORGRIGHT
 10
0.0
 20
0.0
 30
0.0
  9
$UCSORGFRONT
 10
0.0
 20
0.0
 30
0.0
  9
$UCSORGBACK
 10
0.0
 20
0.0
 30
0.0
  9
$PUCSBASE
  2

  9
$PUCSNAME
  2

  9
$PUCSORG
 10
0.0
 20
0.0
 30
0.0
  9
$PUCSXDIR
 10
1.0
 20
0.0
 30
0.0
  9
$PUCSYDIR
 10
0.0
 20
1.0
 30
0.0
  9
$PUCSORTHOREF
  2

  9
$PUCSORTHOVIEW
 70
0
  9
$PUCSORGTOP
 10
0.0
 20
0.0
 30
0.0
  9
$PUCSORGBOTTOM
 10
0.0
 20
0.0
 30
0.0
  9
$PUCSORGLEFT
 10
0.0
 20
0.0
 30
0.0
  9
$PUCSORGRIGHT
 10
0.0
 20
0.0
 30
0.0
  9
$PUCSORGFRONT
 10
0.0
 20
0.0
 30
0.0
  9
$PUCSORGBACK
 10
0.0
 20
0.0
 30
0.0
  9
$USERI1
 70
0
  9
$USERI2
 70
0
  9
$USERI3
 70
0
  9
$USERI4
 70
0
  9
$USERI5
 70
0
  9
$USERR1
 40
0.0
  9
$USERR2
 40
0.0
  9
$USERR3
 40
0.0
  9
$USERR4
 40
0.0
  9
$USERR5
 40
0.0
  9
$WORLDVIEW
 70
1
  9
$SHADEDGE
 70
3
  9
$SHADEDIF
 70
70
  9
$TILEMODE
 70
1
  9
$MAXACTVP
 70
64
  9
$PINSBASE
 10
0.0
 20
0.0
 30
0.0
  9
$PLIMCHECK
 70
0
  9
$PEXTMIN
 10
1e+20
 20
1e+20
 30
1e+20
  9
$PEXTMAX
 10
-1e+20
 20
-1e+20
 30
-1e+20
  9
$PLIMMIN
 10
0.0
 20
0.0
  9
$PLIMMAX
 10
420.0
 20
297.0
  9
$UNITMODE
 70
0
  9
$VISRETAIN
 70
1
  9
$PLINEGEN
 70
0
  9
$PSLTSCALE
 70
1
  9
$TREEDEPTH
 70
3020
  9
$CMLSTYLE
  2
Standard
  9
$CMLJUST
 70
0
  9
$CMLSCALE
 40
20.0
  9
$PROXYGRAPHICS
 70
1
  9
$MEASUREMENT
 70
1
  9
$CELWEIGHT
370
-1
  9
$ENDCAPS
280
0
  9
$JOINSTYLE
280
0
  9
$LWDISPLAY
290
0
  9
$INSUNITS
 70
4
  9
$HYPERLINKBASE
  1

  9
$STYLESHEET
  1

  9
$XEDIT
290
1
  9
$CEPSNTYPE
380
0
  9
$PSTYLEMODE
290
1
  9
$FINGERPRINTGUID
  2
{84348BCB-EEA6-4053-96E4-1F85898589D5}
  9
$VERSIONGUID
  2
{668FFD48-F1EB-4D87-8831-45EB08E605E2}
  9
$EXTNAMES
290
1
  9
$PSVPSCALE
 40
0.0
  9
$OLESTARTUP
290
0
  9
$SORTENTS
280
127
  9
$INDEXCTL
280
0
  9
$HIDETEXT
280
1
  9
$XCLIPFRAME
280
0
  9
$HALOGAP
280
0
  9
$OBSCOLOR
 70
257
  9
$OBSLTYPE
280
0
  9
$INTERSECTIONDISPLAY
280
0
  9
$INTERSECTIONCOLOR
 70
257
  9
$DIMASSOC
280
2
  9
$PROJECTNAME
  1

  9
$CAMERADISPLAY
290
0
  9
$LENSLENGTH
 40
50.0
  9
$CAMERAHEIGHT
 40
0.0
  9
$STEPSPERSEC
 40
24.0
  9
$STEPSIZE
 40
100.0
  9
$3DDWFPREC
 40
2.0
  9
$PSOLWIDTH
 40
0.005
  9
$PSOLHEIGHT
 40
0.08
  9
$LOFTANG1
 40
1.570796326795
  9
$LOFTANG2
 40
1.570796326795
  9
$LOFTMAG1
 40
0.0
  9
$LOFTMAG2
 40
0.0
  9
$LOFTPARAM
 70
7
  9
$LOFTNORMALS
280
1
  9
$LATITUDE
 40
37.795
  9
$LONGITUDE
 40
-122.394
  9
$NORTHDIRECTION
 40
0.0
  9
$TIMEZONE
 70
-8000
  9
$LIGHTGLYPHDISPLAY
280
1
  9
$TILEMODELIGHTSYNCH
280
1
  9
$CMATERIAL
347
20
  9
$SOLIDHIST
280
0
  9
$SHOWHIST
280
1
  9
$DWFFRAME
280
2
  9
$DGNFRAME
280
2
  9
$REALWORLDSCALE
290
1
  9
$INTERFERECOLOR
 62
256
  9
$CSHADOW
280
0
  9
$SHADOWPLANELOCATION
 40
0.0
  0
ENDSEC
  0
SECTION
  2
CLASSES
  0
CLASS
  1
ACDBDICTIONARYWDFLT
  2
AcDbDictionaryWithDefault
  3
ObjectDBX Classes
 90
0
 91
0
280
0
281
0
  0
CLASS
  1
SUN
  2
AcDbSun
  3
SCENEOE
 90
1153
 91
0
280
0
281
0
  0
CLASS
  1
VISUALSTYLE
  2
AcDbVisualStyle
  3
ObjectDBX Classes
 90
4095
 91
0
280
0
281
0
  0
CLASS
  1
MATERIAL
  2
AcDbMaterial
  3
ObjectDBX Classes
 90
1153
 91
0
280
0
281
0
  0
CLASS
  1
SCALE
  2
AcDbScale
  3
ObjectDBX Classes
 90
1153
 91
0
280
0
281
0
  0
CLASS
  1
TABLESTYLE
  2
AcDbTableStyle
  3
ObjectDBX Classes
 90
4095
 91
0
280
0
281
0
  0
CLASS
  1
MLEADERSTYLE
  2
AcDbMLeaderStyle
  3
ACDB_MLEADERSTYLE_CLASS
 90
4095
 91
0
280
0
281
0
  0
CLASS
  1
DICTIONARYVAR
  2
AcDbDictionaryVar
  3
ObjectDBX Classes
 90
0
 91
0
280
0
281
0
  0
CLASS
  1
CELLSTYLEMAP
  2
AcDbCellStyleMap
  3
ObjectDBX Classes
 90
1152
 91
0
280
0
281
0
  0
CLASS
  1
MENTALRAYRENDERSETTINGS
  2
AcDbMentalRayRenderSettings
  3
SCENEOE
 90
1024
 91
0
280
0
281
0
  0
CLASS
  1
ACDBDETAILVIEWSTYLE
  2
AcDbDetailViewStyle
  3
ObjectDBX Classes
 90
1025
 91
0
280
0
281
0
  0
CLASS
  1
ACDBSECTIONVIEWSTYLE
  2
AcDbSectionViewStyle
  3
ObjectDBX Classes
 90
1025
 91
0
280
0
281
0
  0
CLASS
  1
RASTERVARIABLES
  2
AcDbRasterVariables
  3
ISM
 90
0
 91
0
280
0
281
0
  0
CLASS
  1
LAYOUT
  2
AcDbLayout
  3
ObjectDBX Classes
 90
0
 91
0
280
0
281
0
  0
CLASS
  1
ACDBPLACEHOLDER
  2
AcDbPlaceHolder
  3
ObjectDBX Classes
 90
0
 91
0
280
0
281
0
  0
ENDSEC
  0
SECTION
  2
TABLES
  0
TABLE
  2
VPORT
  5
8
330
0
100
AcDbSymbolTable
 70
1
  0
VPORT
  5
23
330
8
100
AcDbSymbolTableRecord
100
AcDbViewportTableRecord
  2
*Active
 70
0
 10
0.0
 20
0.0
 11
1.0
 21
1.0
 12
0.0
 22
0.0
 13
0.0
 23
0.0
 14
0.5
 24
0.5
 15
0.5
 25
0.5
 16
0.0
 26
0.0
 36
1.0
 17
0.0
 27
0.0
 37
0.0
 40
1000.0
 41
1.34
 42
50.0
 43
0.0
 44
0.0
 50
0.0
 51
0.0
 71
0
 72
1000
 73
1
 74
3
 75
0
 76
0
 77
0
 78
0
281
0
 65
0
146
0.0
  0
ENDTAB
  0
TABLE
  2
LTYPE
  5
2
330
0
100
AcDbSymbolTable
 70
3
  0
LTYPE
  5
24
330
2
100
AcDbSymbolTableRecord
100
AcDbLinetypeTableRecord
  2
ByBlock
 70
0
  3

 72
65
 73
0
 40
0.0
  0
LTYPE
  5
25
330
2
100
AcDbSymbolTableRecord
100
AcDbLinetypeTableRecord
  2
ByLayer
 70
0
  3

 72
65
 73
0
 40
0.0
  0
LTYPE
  5
26
330
2
100
AcDbSymbolTableRecord
100
AcDbLinetypeTableRecord
  2
Continuous
 70
0
  3

 72
65
 73
0
 40
0.0
  0
ENDTAB
  0
TABLE
  2
LAYER
  5
1
330
0
100
AcDbSymbolTable
 70
2
  0
LAYER
  5
27
330
1
100
AcDbSymbolTableRecord
100
AcDbLayerTableRecord
  2
0
 70
0
 62
7
  6
Continuous
370
-3
390
13
347
21
  0
LAYER
  5
28
330
1
100
AcDbSymbolTableRecord
100
AcDbLayerTableRecord
  2
Defpoints
 70
0
 62
7
  6
Continuous
290
0
370
-3
390
13
347
21
  0
ENDTAB
  0
TABLE
  2
STYLE
  5
5
330
0
100
AcDbSymbolTable
 70
1
  0
STYLE
  5
29
330
5
100
AcDbSymbolTableRecord
100
AcDbTextStyleTableRecord
  2
Standard
 70
0
 40
0.0
 41
1.0
 50
0.0
 71
0
 42
2.5
  3
txt
  4

  0
ENDTAB
  0
TABLE
  2
VIEW
  5
7
330
0
100
AcDbSymbolTable
 70
0
  0
ENDTAB
  0
TABLE
  2
UCS
  5
6
330
0
100
AcDbSymbolTable
 70
0
  0
ENDTAB
  0
TABLE
  2
APPID
  5
3
330
0
100
AcDbSymbolTable
 70
3
  0
APPID
  5
2A
330
3
100
AcDbSymbolTableRecord
100
AcDbRegAppTableRecord
  2
ACAD
 70
0
  0
APPID
  5
32
330
3
100
AcDbSymbolTableRecord
100
AcDbRegAppTableRecord
  2
HATCHBACKGROUNDCOLOR
 70
0
  0
APPID
  5
33
330
3
100
AcDbSymbolTableRecord
100
AcDbRegAppTableRecord
  2
EZDXF
 70
0
  0
ENDTAB
  0
TABLE
  2
DIMSTYLE
  5
4
330
0
100
AcDbSymbolTable
 70
1
100
AcDbDimStyleTable
  0
DIMSTYLE
105
2B
330
4
100
AcDbSymbolTableRecord
100
AcDbDimStyleTableRecord
  2
Standard
 70
0
 40
1.0
 41
2.5
 42
0.625
 43
3.75
 44
1.25
 45
0.0
 46
0.0
 47
0.0
 48
0.0
 49
2.5
140
2.5
141
2.5
142
0.0
143
0.03937007874
144
1.0
145
0.0
146
1.0
147
0.625
148
0.0
 69
0
 70
0
 71
0
 72
0
 73
0
 74
0
 75
0
 76
0
 77
1
 78
8
 79
3
170
0
171
3
172
1
173
0
174
0
175
0
176
0
177
0
178
0
179
2
271
2
272
2
273
2
274
3
275
0
276
0
277
2
278
44
279
0
280
0
281
0
282
0
283
0
284
8
285
0
286
0
288
0
289
3
290
0
371
-2
372
-2
  0
ENDTAB
  0
TABLE
  2
BLOCK_RECORD
  5
9
330
0
100
AcDbSymbolTable
 70
2
  0
BLOCK_RECORD
  5
17
330
9
100
AcDbSymbolTableRecord
100
AcDbBlockTableRecord
  2
*Model_Space
340
1A
 70
0
280
1
281
0
  0
BLOCK_RECORD
  5
1B
330
9
100
AcDbSymbolTableRecord
100
AcDbBlockTableRecord
  2
*Paper_Space
340
1E
 70
0
280
1
281
0
  0
ENDTAB
  0
ENDSEC
  0
SECTION
  2
BLOCKS
  0
BLOCK
  5
18
330
17
100
AcDbEntity
  8
0
100
AcDbBlockBegin
  2
*Model_Space
 70
0
 10
0.0
 20
0.0
 30
0.0
  3
*Model_Space
  1

  0
ENDBLK
  5
19
330
17
100
AcDbEntity
  8
0
100
AcDbBlockEnd
  0
BLOCK
  5
1C
330
1B
100
AcDbEntity
  8
0
100
AcDbBlockBegin
  2
*Paper_Space
 70
0
 10
0.0
 20
0.0
 30
0.0
  3
*Paper_Space
  1

  0
ENDBLK
  5
1D
330
1B
100
AcDbEntity
  8
0
100
AcDbBlockEnd
  0
ENDSEC
  0
SECTION
  2
ENTITIES
  0
LWPOLYLINE
  5
2F
330
17
100
AcDbEntity
  8
0
 62
0
100
AcDbPolyline
 90
103
 70
0
 10
31.35500000000001
 20
32.065000000000005
 10
31.35500000000001
 20
62.355000000000004
 10
-2.5049999999999955
 20
62.355000000000004
 10
-2.5049999999999955
 20
71.61633723095706
 10
-2.676619579044015
 20
71.51347241390988
 10
-3.2088994058094613
 20
71.26172280493228
 10
-3.763291936473223
 20
71.06335798560676
 10
-4.334458067903228
 20
70.92028831758063
 10
-4.9168971580226355
 20
70.83389163996682
 10
-5.5049999999999955
 20
70.805
 10
-6.093102841977355
 20
70.83389163996682
 10
-6.675541932096763
 20
70.92028831758063
 10
-7.246708063526768
 20
71.06335798560676
 10
-7.80110059419053
 20
71.26172280493228
 10
-8.333380420955976
 20
71.51347241390987
 10
-8.838421398117603
 20
71.81618232618473
 10
-9.311359704981868
 20
72.16693727982357
 10
-9.747640687119286
 20
72.56235931288072
 10
-10.143062720176417
 20
72.99864029501813
 10
-10.493817673815272
 20
73.47157860188238
 10
-10.796527586090122
 20
73.97661957904401
 10
-11.048277195067712
 20
74.50889940580946
 10
-11.246642014393245
 20
75.06329193647323
 10
-11.389711682419374
 20
75.63445806790324
 10
-11.47610836003318
 20
76.21689715802265
 10
-11.504999999999995
 20
76.805
 10
-11.47610836003318
 20
77.39310284197737
 10
-11.389711682419374
 20
77.97554193209677
 10
-11.246642014393245
 20
78.54670806352678
 10
-11.048277195067712
 20
79.10110059419054
 10
-10.796527586090122
 20
79.63338042095597
 10
-10.493817673815272
 20
80.1384213981176
 10
-10.143062720176417
 20
80.61135970498188
 10
-9.747640687119286
 20
81.04764068711927
 10
-9.311359704981868
 20
81.44306272017641
 10
-8.838421398117603
 20
81.79381767381528
 10
-8.33338042095599
 20
82.09652758609013
 10
-7.801100594190544
 20
82.34827719506771
 10
-7.246708063526768
 20
82.54664201439326
 10
-6.675541932096763
 20
82.68971168241939
 10
-6.093102841977355
 20
82.77610836003319
 10
-5.5049999999999955
 20
82.805
 10
-4.9168971580226355
 20
82.77610836003319
 10
-4.334458067903228
 20
82.68971168241939
 10
-3.763291936473223
 20
82.54664201439326
 10
-3.2088994058094613
 20
82.34827719506771
 10
-2.676619579044015
 20
82.09652758609013
 10
-2.5049999999999955
 20
81.99366276904294
 10
-2.5049999999999955
 20
82.805
 10
82.805
 20
82.805
 10
82.805
 20
62.355000000000004
 10
47.18500000000001
 20
62.355000000000004
 10
47.18500000000001
 20
32.065000000000005
 10
82.805
 20
32.065000000000005
 10
82.805
 20
11.505000000000003
 10
-2.5049999999999955
 20
11.505000000000003
 10
-2.5049999999999955
 20
12.31633723095706
 10
-2.676619579044015
 20
12.213472413909873
 10
-3.2088994058094613
 20
11.961722804932283
 10
-3.763291936473223
 20
11.76335798560675
 10
-4.334458067903228
 20
11.62028831758062
 10
-4.9168971580226355
 20
11.533891639966821
 10
-5.5049999999999955
 20
11.505000000000003
 10
-6.093102841977355
 20
11.533891639966821
 10
-6.675541932096763
 20
11.62028831758062
 10
-7.246708063526768
 20
11.76335798560675
 10
-7.80110059419053
 20
11.961722804932283
 10
-8.333380420955976
 20
12.213472413909873
 10
-8.838421398117603
 20
12.51618232618473
 10
-9.311359704981868
 20
12.86693727982358
 10
-9.747640687119286
 20
13.262359312880717
 10
-10.143062720176417
 20
13.698640295018127
 10
-10.493817673815272
 20
14.17157860188239
 10
-10.796527586090122
 20
14.676619579044015
 10
-11.048277195067712
 20
15.208899405809461
 10
-11.246642014393245
 20
15.763291936473228
 10
-11.389711682419374
 20
16.33445806790323
 10
-11.47610836003318
 20
16.91689715802264
 10
-11.504999999999995
 20
17.505000000000003
 10
-11.47610836003318
 20
18.093102841977363
 10
-11.389711682419374
 20
18.67554193209677
 10
-11.246642014393245
 20
19.246708063526775
 10
-11.048277195067712
 20
19.801100594190544
 10
-10.796527586090122
 20
20.33338042095599
 10
-10.493817673815272
 20
20.838421398117614
 10
-10.143062720176417
 20
21.311359704981875
 10
-9.747640687119286
 20
21.747640687119286
 10
-9.311359704981868
 20
22.143062720176424
 10
-8.838421398117603
 20
22.493817673815272
 10
-8.33338042095599
 20
22.796527586090132
 10
-7.801100594190544
 20
23.048277195067723
 10
-7.246708063526768
 20
23.246642014393256
 10
-6.675541932096763
 20
23.389711682419385
 10
-6.093102841977355
 20
23.476108360033184
 10
-5.5049999999999955
 20
23.505000000000003
 10
-4.9168971580226355
 20
23.476108360033184
 10
-4.334458067903228
 20
23.389711682419385
 10
-3.763291936473223
 20
23.246642014393256
 10
-3.2088994058094613
 20
23.048277195067723
 10
-2.676619579044015
 20
22.796527586090132
 10
-2.5049999999999955
 20
22.693662769042945
 10
-2.5049999999999955
 20
32.065000000000005
 10
31.35500000000001
 20
32.065000000000005
  0
LWPOLYLINE
  5
30
330
17
100
AcDbEntity
  8
0
 62
0
100
AcDbPolyline
 90
65
 70
0
 10
-6.375854031763382
 20
20.375821007196627
 10
-6.6530502970952625
 20
20.27663859753386
 10
-6.919190210477993
 20
20.150763793045066
 10
-7.171710699058806
 20
19.999408836907637
 10
-7.408179852490932
 20
19.824031360088213
 10
-7.626320343559641
 20
19.626320343559644
 10
-7.824031360088213
 20
19.40817985249094
 10
-7.999408836907634
 20
19.171710699058806
 10
-8.150763793045058
 20
18.919190210477996
 10
-8.27663859753386
 20
18.653050297095273
 10
-8.37582100719662
 20
18.37585403176339
 10
-8.447355841209685
 20
18.090270966048386
 10
-8.490554180016588
 20
17.799051420988683
 10
-8.504999999999995
 20
17.505000000000003
 10
-8.490554180016588
 20
17.210948579011323
 10
-8.447355841209685
 20
16.91972903395162
 10
-8.37582100719662
 20
16.634145968236616
 10
-8.27663859753386
 20
16.356949702904732
 10
-8.150763793045058
 20
16.09080978952201
 10
-7.999408836907634
 20
15.838289300941195
 10
-7.824031360088199
 20
15.601820147509065
 10
-7.626320343559641
 20
15.38367965644036
 10
-7.408179852490932
 20
15.185968639911792
 10
-7.171710699058806
 20
15.010591163092366
 10
-6.919190210477993
 20
14.859236206954938
 10
-6.6530502970952625
 20
14.733361402466143
 10
-6.375854031763382
 20
14.634178992803376
 10
-6.090270966048379
 20
14.562644158790311
 10
-5.799051420988675
 20
14.519445819983412
 10
-5.5049999999999955
 20
14.505000000000003
 10
-5.2109485790113155
 20
14.519445819983412
 10
-4.9197290339516115
 20
14.562644158790311
 10
-4.634145968236609
 20
14.634178992803376
 10
-4.356949702904728
 20
14.733361402466143
 10
-4.090809789521998
 20
14.859236206954938
 10
-3.8382893009411845
 20
15.010591163092366
 10
-3.601820147509059
 20
15.185968639911792
 10
-3.38367965644035
 20
15.38367965644036
 10
-3.1859686399117777
 20
15.601820147509066
 10
-3.010591163092357
 20
15.838289300941197
 10
-2.8592362069549324
 20
16.09080978952201
 10
-2.73336140246613
 20
16.356949702904735
 10
-2.6341789928033705
 20
16.634145968236616
 10
-2.562644158790306
 20
16.91972903395162
 10
-2.519445819983403
 20
17.210948579011323
 10
-2.5049999999999955
 20
17.505000000000003
 10
-2.519445819983403
 20
17.799051420988686
 10
-2.562644158790306
 20
18.090270966048386
 10
-2.6341789928033705
 20
18.37585403176339
 10
-2.73336140246613
 20
18.653050297095273
 10
-2.8592362069549324
 20
18.919190210477996
 10
-3.010591163092357
 20
19.17171069905881
 10
-3.1859686399117777
 20
19.40817985249094
 10
-3.38367965644035
 20
19.626320343559644
 10
-3.601820147509059
 20
19.824031360088213
 10
-3.8382893009411845
 20
19.999408836907637
 10
-4.090809789521998
 20
20.150763793045066
 10
-4.356949702904728
 20
20.27663859753386
 10
-4.634145968236609
 20
20.375821007196627
 10
-4.9197290339516115
 20
20.447355841209692
 10
-5.2109485790113155
 20
20.490554180016595
 10
-5.5049999999999955
 20
20.505000000000003
 10
-5.799051420988675
 20
20.490554180016595
 10
-6.090270966048379
 20
20.447355841209692
 10
-6.375854031763382
 20
20.375821007196627
  0
LWPOLYLINE
  5
31
330
17
100
AcDbEntity
  8
0
 62
0
100
AcDbPolyline
 90
65
 70
0
 10
-6.090270966048379
 20
79.7473558412097
 10
-6.375854031763382
 20
79.67582100719662
 10
-6.6530502970952625
 20
79.57663859753387
 10
-6.919190210477993
 20
79.45076379304507
 10
-7.171710699058806
 20
79.29940883690765
 10
-7.408179852490932
 20
79.1240313600882
 10
-7.626320343559641
 20
78.92632034355964
 10
-7.824031360088213
 20
78.70817985249093
 10
-7.999408836907634
 20
78.4717106990588
 10
-8.150763793045058
 20
78.21919021047799
 10
-8.27663859753386
 20
77.95305029709527
 10
-8.37582100719662
 20
77.67585403176338
 10
-8.447355841209685
 20
77.39027096604838
 10
-8.490554180016588
 20
77.09905142098867
 10
-8.504999999999995
 20
76.805
 10
-8.490554180016588
 20
76.51094857901131
 10
-8.447355841209685
 20
76.21972903395161
 10
-8.37582100719662
 20
75.9341459682366
 10
-8.27663859753386
 20
75.65694970290474
 10
-8.150763793045058
 20
75.39080978952201
 10
-7.999408836907634
 20
75.1382893009412
 10
-7.824031360088199
 20
74.90182014750906
 10
-7.626320343559641
 20
74.68367965644035
 10
-7.408179852490932
 20
74.48596863991179
 10
-7.171710699058806
 20
74.31059116309237
 10
-6.919190210477993
 20
74.15923620695494
 10
-6.6530502970952625
 20
74.03336140246614
 10
-6.375854031763382
 20
73.93417899280337
 10
-6.090270966048379
 20
73.86264415879032
 10
-5.799051420988675
 20
73.8194458199834
 10
-5.5049999999999955
 20
73.805
 10
-5.2109485790113155
 20
73.8194458199834
 10
-4.9197290339516115
 20
73.86264415879032
 10
-4.634145968236609
 20
73.93417899280337
 10
-4.356949702904728
 20
74.03336140246614
 10
-4.090809789521998
 20
74.15923620695494
 10
-3.8382893009411845
 20
74.31059116309237
 10
-3.601820147509059
 20
74.48596863991179
 10
-3.38367965644035
 20
74.68367965644035
 10
-3.1859686399117777
 20
74.90182014750906
 10
-3.010591163092357
 20
75.1382893009412
 10
-2.8592362069549324
 20
75.39080978952201
 10
-2.73336140246613
 20
75.65694970290474
 10
-2.6341789928033705
 20
75.9341459682366
 10
-2.562644158790306
 20
76.21972903395161
 10
-2.519445819983403
 20
76.51094857901131
 10
-2.5049999999999955
 20
76.805
 10
-2.519445819983403
 20
77.09905142098867
 10
-2.562644158790306
 20
77.39027096604838
 10
-2.6341789928033705
 20
77.67585403176338
 10
-2.73336140246613
 20
77.95305029709527
 10
-2.8592362069549324
 20
78.21919021047799
 10
-3.010591163092357
 20
78.4717106990588
 10
-3.1859686399117777
 20
78.70817985249093
 10
-3.38367965644035
 20
78.92632034355964
 10
-3.601820147509059
 20
79.12403136008822
 10
-3.8382893009411845
 20
79.29940883690765
 10
-4.090809789521998
 20
79.45076379304507
 10
-4.356949702904728
 20
79.57663859753387
 10
-4.634145968236609
 20
79.67582100719662
 10
-4.9197290339516115
 20
79.7473558412097
 10
-5.2109485790113155
 20
79.79055418001658
 10
-5.5049999999999955
 20
79.805
 10
-5.799051420988675
 20
79.79055418001658
 10
-6.090270966048379
 20
79.7473558412097
  0
ENDSEC
  0
SECTION
  2
OBJECTS
  0
DICTIONARY
  5
A
330
0
100
AcDbDictionary
280
0
281
1
  3
ACAD_COLOR
350
B
  3
ACAD_GROUP
350
C
  3
ACAD_LAYOUT
350
D
  3
ACAD_MATERIAL
350
E
  3
ACAD_MLEADERSTYLE
350
F
  3
ACAD_MLINESTYLE
350
10
  3
ACAD_PLOTSETTINGS
350
11
  3
ACAD_PLOTSTYLENAME
350
12
  3
ACAD_SCALELIST
350
14
  3
ACAD_TABLESTYLE
350
15
  3
ACAD_VISUALSTYLE
350
16
  3
EZDXF_META
350
2D
  0
DICTIONARY
  5
B
330
A
100
AcDbDictionary
280
0
281
1
  0
DICTIONARY
  5
C
330
A
100
AcDbDictionary
280
0
281
1
  0
DICTIONARY
  5
D
330
A
100
AcDbDictionary
280
0
281
1
  3
Model
350
1A
  3
Layout1
350
1E
  0
DICTIONARY
  5
E
330
A
100
AcDbDictionary
280
0
281
1
  3
ByBlock
350
1F
  3
ByLayer
350
20
  3
Global
350
21
  0
DICTIONARY
  5
F
330
A
100
AcDbDictionary
280
0
281
1
  3
Standard
350
2C
  0
DICTIONARY
  5
10
330
A
100
AcDbDictionary
280
0
281
1
  3
Standard
350
22
  0
DICTIONARY
  5
11
330
A
100
AcDbDictionary
280
0
281
1
  0
ACDBDICTIONARYWDFLT
  5
12
330
A
100
AcDbDictionary
280
0
281
1
  3
Normal
350
13
100
AcDbDictionaryWithDefault
340
13
  0
ACDBPLACEHOLDER
  5
13
330
12
  0
DICTIONARY
  5
14
330
A
100
AcDbDictionary
280
0
281
1
  0
DICTIONARY
  5
15
330
A
100
AcDbDictionary
280
0
281
1
  0
DICTIONARY
  5
16
330
A
100
AcDbDictionary
280
0
281
1
  0
LAYOUT
  5
1A
330
D
100
AcDbPlotSettings
  1

  2
Adobe PDF
  4
A3
  6

 40
7.5
 41
20.0
 42
7.5
 43
20.0
 44
420.0
 45
297.0
 46
0.0
 47
0.0
 48
0.0
 49
0.0
140
0.0
141
0.0
142
1.0
143
1.0
 70
1024
 72
1
 73
0
 74
5
  7

 75
16
 76
0
 77
2
 78
300
147
1.0
148
0.0
149
0.0
100
AcDbLayout
  1
Model
 70
1
 71
0
 10
0.0
 20
0.0
 11
420.0
 21
297.0
 12
0.0
 22
0.0
 32
0.0
 14
1e+20
 24
1e+20
 34
1e+20
 15
-1e+20
 25
-1e+20
 35
-1e+20
146
0.0
 13
0.0
 23
0.0
 33
0.0
 16
1.0
 26
0.0
 36
0.0
 17
0.0
 27
1.0
 37
0.0
 76
1
330
17
  0
LAYOUT
  5
1E
330
D
100
AcDbPlotSettings
  1

  2
Adobe PDF
  4
A3
  6

 40
7.5
 41
20.0
 42
7.5
 43
20.0
 44
420.0
 45
297.0
 46
0.0
 47
0.0
 48
0.0
 49
0.0
140
0.0
141
0.0
142
1.0
143
1.0
 70
0
 72
1
 73
0
 74
5
  7

 75
16
 76
0
 77
2
 78
300
147
1.0
148
0.0
149
0.0
100
AcDbLayout
  1
Layout1
 70
1
 71
1
 10
0.0
 20
0.0
 11
420.0
 21
297.0
 12
0.0
 22
0.0
 32
0.0
 14
1e+20
 24
1e+20
 34
1e+20
 15
-1e+20
 25
-1e+20
 35
-1e+20
146
0.0
 13
0.0
 23
0.0
 33
0.0
 16
1.0
 26
0.0
 36
0.0
 17
0.0
 27
1.0
 37
0.0
 76
1
330
1B
  0
MATERIAL
  5
1F
102
{ACAD_REACTORS
330
E
102
}
330
E
100
AcDbMaterial
  1
ByBlock
  2

 70
0
 40
1.0
 71
1
 41
1.0
 91
-1023410177
 42
1.0
 72
1
  3

 73
1
 74
1
 75
1
 44
0.5
 73
0
 45
1.0
 46
1.0
 77
1
  4

 78
1
 79
1
170
1
 48
1.0
171
1
  6

172
1
173
1
174
1
140
1.0
141
1.0
175
1
  7

176
1
177
1
178
1
143
1.0
179
1
  8

270
1
271
1
272
1
145
1.0
146
1.0
273
1
  9

274
1
275
1
276
1
 42
1.0
 72
1
  3

 73
1
 74
1
 75
1
 94
63
  0
MATERIAL
  5
20
102
{ACAD_REACTORS
330
E
102
}
330
E
100
AcDbMaterial
  1
ByLayer
  2

 70
0
 40
1.0
 71
1
 41
1.0
 91
-1023410177
 42
1.0
 72
1
  3

 73
1
 74
1
 75
1
 44
0.5
 73
0
 45
1.0
 46
1.0
 77
1
  4

 78
1
 79
1
170
1
 48
1.0
171
1
  6

172
1
173
1
174
1
140
1.0
141
1.0
175
1
  7

176
1
177
1
178
1
143
1.0
179
1
  8

270
1
271
1
272
1
145
1.0
146
1.0
273
1
  9

274
1
275
1
276
1
 42
1.0
 72
1
  3

 73
1
 74
1
 75
1
 94
63
  0
MATERIAL
  5
21
102
{ACAD_REACTORS
330
E
102
}
330
E
100
AcDbMaterial
  1
Global
  2

 70
0
 40
1.0
 71
1
 41
1.0
 91
-1023410177
 42
1.0
 72
1
  3

 73
1
 74
1
 75
1
 44
0.5
 73
0
 45
1.0
 46
1.0
 77
1
  4

 78
1
 79
1
170
1
 48
1.0
171
1
  6

172
1
173
1
174
1
140
1.0
141
1.0
175
1
  7

176
1
177
1
178
1
143
1.0
179
1
  8

270
1
271
1
272
1
145
1.0
146
1.0
273
1
  9

274
1
275
1
276
1
 42
1.0
 72
1
  3

 73
1
 74
1
 75
1
 94
63
  0
MLINESTYLE
  5
22
102
{ACAD_REACTORS
330
10
102
}
330
10
100
AcDbMlineStyle
  2
Standard
 70
0
  3

 62
256
 51
90.0
 52
90.0
 71
2
 49
0.5
 62
256
  6
BYLAYER
 49
-0.5
 62
256
  6
BYLAYER
  0
MLEADERSTYLE
  5
2C
102
{ACAD_REACTORS
330
F
102
}
330
F
100
AcDbMLeaderStyle
179
2
170
2
171
1
172
0
 90
2
 40
0.0
 41
0.0
173
1
 91
-1056964608
 92
-2
290
1
 42
2.0
291
1
 43
8.0
  3
Standard
 44
4.0
300

342
29
174
1
175
1
176
0
178
1
 93
-1056964608
 45
4.0
292
0
297
0
 46
4.0
 94
-1056964608
 47
1.0
 49
1.0
140
1.0
294
1
141
0.0
177
0
142
1.0
295
0
296
0
143
3.75
271
0
272
9
273
9
  0
DICTIONARY
  5
2D
330
A
100
AcDbDictionary
281
1
  3
CREATED_BY_EZDXF
350
2E
  3
WRITTEN_BY_EZDXF
350
34
  0
DICTIONARYVAR
  5
2E
330
2D
100
DictionaryVariables
280
0
  1
1.1.1 @ 2024-03-27T16:34:58.010822+00:00
  0
DICTIONARYVAR
  5
34
330
2D
100
DictionaryVariables
280
0
  1
1.1.1 @ 2024-03-27T16:34:58.014818+00:00
  0
ENDSEC
  0
EOF
