  0
SECTION
  2
HEADER
  9
$ACADVER
  1
AC1032
  9
$ACADMAINTVER
 90
4
  9
$DWGCODEPAGE
  3
ANSI_1252
  9
$LASTSAVEDBY
  1
ezdxf
  9
$REQUIREDVERSIONS
160
0
  9
$INSBASE
 10
0.0
 20
0.0
 30
0.0
  9
$EXTMIN
 10
1e+20
 20
1e+20
 30
1e+20
  9
$EXTMAX
 10
-1e+20
 20
-1e+20
 30
-1e+20
  9
$LIMMIN
 10
0.0
 20
0.0
  9
$LIMMAX
 10
420.0
 20
297.0
  9
$ORTHOMODE
 70
0
  9
$REGENMODE
 70
1
  9
$FILLMODE
 70
1
  9
$QTEXTMODE
 70
0
  9
$MIRRTEXT
 70
1
  9
$LTSCALE
 40
1.0
  9
$ATTMODE
 70
1
  9
$TEXTSIZE
 40
2.5
  9
$TRACEWID
 40
1.0
  9
$TEXTSTYLE
  7
Standard
  9
$CLAYER
  8
0
  9
$CELTYPE
  6
ByLayer
  9
$CECOLOR
 62
256
  9
$CELTSCALE
 40
1.0
  9
$DISPSILH
 70
0
  9
$DIMSCALE
 40
1.0
  9
$DIMASZ
 40
2.5
  9
$DIMEXO
 40
0.625
  9
$DIMDLI
 40
3.75
  9
$DIMRND
 40
0.0
  9
$DIMDLE
 40
0.0
  9
$DIMEXE
 40
1.25
  9
$DIMTP
 40
0.0
  9
$DIMTM
 40
0.0
  9
$DIMTXT
 40
2.5
  9
$DIMCEN
 40
2.5
  9
$DIMTSZ
 40
0.0
  9
$DIMTOL
 70
0
  9
$DIMLIM
 70
0
  9
$DIMTIH
 70
0
  9
$DIMTOH
 70
0
  9
$DIMSE1
 70
0
  9
$DIMSE2
 70
0
  9
$DIMTAD
 70
1
  9
$DIMZIN
 70
8
  9
$DIMBLK
  1

  9
$DIMASO
 70
1
  9
$DIMSHO
 70
1
  9
$DIMPOST
  1

  9
$DIMAPOST
  1

  9
$DIMALT
 70
0
  9
$DIMALTD
 70
3
  9
$DIMALTF
 40
0.03937007874
  9
$DIMLFAC
 40
1.0
  9
$DIMTOFL
 70
1
  9
$DIMTVP
 40
0.0
  9
$DIMTIX
 70
0
  9
$DIMSOXD
 70
0
  9
$DIMSAH
 70
0
  9
$DIMBLK1
  1

  9
$DIMBLK2
  1

  9
$DIMSTYLE
  2
ISO-25
  9
$DIMCLRD
 70
0
  9
$DIMCLRE
 70
0
  9
$DIMCLRT
 70
0
  9
$DIMTFAC
 40
1.0
  9
$DIMGAP
 40
0.625
  9
$DIMJUST
 70
0
  9
$DIMSD1
 70
0
  9
$DIMSD2
 70
0
  9
$DIMTOLJ
 70
0
  9
$DIMTZIN
 70
8
  9
$DIMALTZ
 70
0
  9
$DIMALTTZ
 70
0
  9
$DIMUPT
 70
0
  9
$DIMDEC
 70
2
  9
$DIMTDEC
 70
2
  9
$DIMALTU
 70
2
  9
$DIMALTTD
 70
3
  9
$DIMTXSTY
  7
Standard
  9
$DIMAUNIT
 70
0
  9
$DIMADEC
 70
0
  9
$DIMALTRND
 40
0.0
  9
$DIMAZIN
 70
0
  9
$DIMDSEP
 70
44
  9
$DIMATFIT
 70
3
  9
$DIMFRAC
 70
0
  9
$DIMLDRBLK
  1

  9
$DIMLUNIT
 70
2
  9
$DIMLWD
 70
-2
  9
$DIMLWE
 70
-2
  9
$DIMTMOVE
 70
0
  9
$DIMFXL
 40
1.0
  9
$DIMFXLON
 70
0
  9
$DIMJOGANG
 40
0.785398163397
  9
$DIMTFILL
 70
0
  9
$DIMTFILLCLR
 70
0
  9
$DIMARCSYM
 70
0
  9
$DIMLTYPE
  6

  9
$DIMLTEX1
  6

  9
$DIMLTEX2
  6

  9
$DIMTXTDIRECTION
 70
0
  9
$LUNITS
 70
2
  9
$LUPREC
 70
4
  9
$SKETCHINC
 40
1.0
  9
$FILLETRAD
 40
10.0
  9
$AUNITS
 70
0
  9
$AUPREC
 70
2
  9
$MENU
  1
.
  9
$ELEVATION
 40
0.0
  9
$PELEVATION
 40
0.0
  9
$THICKNESS
 40
0.0
  9
$LIMCHECK
 70
0
  9
$CHAMFERA
 40
0.0
  9
$CHAMFERB
 40
0.0
  9
$CHAMFERC
 40
0.0
  9
$CHAMFERD
 40
0.0
  9
$SKPOLY
 70
0
  9
$TDCREATE
 40
2460681.8034606483
  9
$TDUCREATE
 40
2458532.153996898
  9
$TDUPDATE
 40
2460681.8034606483
  9
$TDUUPDATE
 40
2458532.1544311
  9
$TDINDWG
 40
0.0
  9
$TDUSRTIMER
 40
0.0
  9
$USRTIMER
 70
1
  9
$ANGBASE
 50
0.0
  9
$ANGDIR
 70
0
  9
$PDMODE
 70
0
  9
$PDSIZE
 40
0.0
  9
$PLINEWID
 40
0.0
  9
$SPLFRAME
 70
0
  9
$SPLINETYPE
 70
6
  9
$SPLINESEGS
 70
8
  9
$HANDSEED
  5
35
  9
$SURFTAB1
 70
6
  9
$SURFTAB2
 70
6
  9
$SURFTYPE
 70
6
  9
$SURFU
 70
6
  9
$SURFV
 70
6
  9
$UCSBASE
  2

  9
$UCSNAME
  2

  9
$UCSORG
 10
0.0
 20
0.0
 30
0.0
  9
$UCSXDIR
 10
1.0
 20
0.0
 30
0.0
  9
$UCSYDIR
 10
0.0
 20
1.0
 30
0.0
  9
$UCSORTHOREF
  2

  9
$UCSORTHOVIEW
 70
0
  9
$UCSORGTOP
 10
0.0
 20
0.0
 30
0.0
  9
$UCSORGBOTTOM
 10
0.0
 20
0.0
 30
0.0
  9
$UCSORGLEFT
 10
0.0
 20
0.0
 30
0.0
  9
$UCSORGRIGHT
 10
0.0
 20
0.0
 30
0.0
  9
$UCSORGFRONT
 10
0.0
 20
0.0
 30
0.0
  9
$UCSORGBACK
 10
0.0
 20
0.0
 30
0.0
  9
$PUCSBASE
  2

  9
$PUCSNAME
  2

  9
$PUCSORG
 10
0.0
 20
0.0
 30
0.0
  9
$PUCSXDIR
 10
1.0
 20
0.0
 30
0.0
  9
$PUCSYDIR
 10
0.0
 20
1.0
 30
0.0
  9
$PUCSORTHOREF
  2

  9
$PUCSORTHOVIEW
 70
0
  9
$PUCSORGTOP
 10
0.0
 20
0.0
 30
0.0
  9
$PUCSORGBOTTOM
 10
0.0
 20
0.0
 30
0.0
  9
$PUCSORGLEFT
 10
0.0
 20
0.0
 30
0.0
  9
$PUCSORGRIGHT
 10
0.0
 20
0.0
 30
0.0
  9
$PUCSORGFRONT
 10
0.0
 20
0.0
 30
0.0
  9
$PUCSORGBACK
 10
0.0
 20
0.0
 30
0.0
  9
$USERI1
 70
0
  9
$USERI2
 70
0
  9
$USERI3
 70
0
  9
$USERI4
 70
0
  9
$USERI5
 70
0
  9
$USERR1
 40
0.0
  9
$USERR2
 40
0.0
  9
$USERR3
 40
0.0
  9
$USERR4
 40
0.0
  9
$USERR5
 40
0.0
  9
$WORLDVIEW
 70
1
  9
$SHADEDGE
 70
3
  9
$SHADEDIF
 70
70
  9
$TILEMODE
 70
1
  9
$MAXACTVP
 70
64
  9
$PINSBASE
 10
0.0
 20
0.0
 30
0.0
  9
$PLIMCHECK
 70
0
  9
$PEXTMIN
 10
1e+20
 20
1e+20
 30
1e+20
  9
$PEXTMAX
 10
-1e+20
 20
-1e+20
 30
-1e+20
  9
$PLIMMIN
 10
0.0
 20
0.0
  9
$PLIMMAX
 10
420.0
 20
297.0
  9
$UNITMODE
 70
0
  9
$VISRETAIN
 70
1
  9
$PLINEGEN
 70
0
  9
$PSLTSCALE
 70
1
  9
$TREEDEPTH
 70
3020
  9
$CMLSTYLE
  2
Standard
  9
$CMLJUST
 70
0
  9
$CMLSCALE
 40
20.0
  9
$PROXYGRAPHICS
 70
1
  9
$MEASUREMENT
 70
1
  9
$CELWEIGHT
370
-1
  9
$ENDCAPS
280
0
  9
$JOINSTYLE
280
0
  9
$LWDISPLAY
290
0
  9
$INSUNITS
 70
4
  9
$HYPERLINKBASE
  1

  9
$STYLESHEET
  1

  9
$XEDIT
290
1
  9
$CEPSNTYPE
380
0
  9
$PSTYLEMODE
290
1
  9
$FINGERPRINTGUID
  2
{2D0FAE26-9079-49F7-AD60-7ED459174132}
  9
$VERSIONGUID
  2
{9FF5D20C-AB64-4CE1-9374-26E4E991F65F}
  9
$EXTNAMES
290
1
  9
$PSVPSCALE
 40
0.0
  9
$OLESTARTUP
290
0
  9
$SORTENTS
280
127
  9
$INDEXCTL
280
0
  9
$HIDETEXT
280
1
  9
$XCLIPFRAME
280
1
  9
$HALOGAP
280
0
  9
$OBSCOLOR
 70
257
  9
$OBSLTYPE
280
0
  9
$INTERSECTIONDISPLAY
280
0
  9
$INTERSECTIONCOLOR
 70
257
  9
$DIMASSOC
280
2
  9
$PROJECTNAME
  1

  9
$CAMERADISPLAY
290
0
  9
$LENSLENGTH
 40
50.0
  9
$CAMERAHEIGHT
 40
0.0
  9
$STEPSPERSEC
 40
24.0
  9
$STEPSIZE
 40
100.0
  9
$3DDWFPREC
 40
2.0
  9
$PSOLWIDTH
 40
0.005
  9
$PSOLHEIGHT
 40
0.08
  9
$LOFTANG1
 40
1.570796326795
  9
$LOFTANG2
 40
1.570796326795
  9
$LOFTMAG1
 40
0.0
  9
$LOFTMAG2
 40
0.0
  9
$LOFTPARAM
 70
7
  9
$LOFTNORMALS
280
1
  9
$LATITUDE
 40
37.795
  9
$LONGITUDE
 40
-122.394
  9
$NORTHDIRECTION
 40
0.0
  9
$TIMEZONE
 70
-8000
  9
$LIGHTGLYPHDISPLAY
280
1
  9
$TILEMODELIGHTSYNCH
280
1
  9
$CMATERIAL
347
20
  9
$SOLIDHIST
280
0
  9
$SHOWHIST
280
1
  9
$DWFFRAME
280
2
  9
$DGNFRAME
280
2
  9
$REALWORLDSCALE
290
1
  9
$INTERFERECOLOR
 62
256
  9
$CSHADOW
280
0
  9
$SHADOWPLANELOCATION
 40
0.0
  0
ENDSEC
  0
SECTION
  2
CLASSES
  0
CLASS
  1
ACDBDICTIONARYWDFLT
  2
AcDbDictionaryWithDefault
  3
ObjectDBX Classes
 90
0
 91
0
280
0
281
0
  0
CLASS
  1
SUN
  2
AcDbSun
  3
SCENEOE
 90
1153
 91
0
280
0
281
0
  0
CLASS
  1
VISUALSTYLE
  2
AcDbVisualStyle
  3
ObjectDBX Classes
 90
4095
 91
0
280
0
281
0
  0
CLASS
  1
MATERIAL
  2
AcDbMaterial
  3
ObjectDBX Classes
 90
1153
 91
0
280
0
281
0
  0
CLASS
  1
SCALE
  2
AcDbScale
  3
ObjectDBX Classes
 90
1153
 91
0
280
0
281
0
  0
CLASS
  1
TABLESTYLE
  2
AcDbTableStyle
  3
ObjectDBX Classes
 90
4095
 91
0
280
0
281
0
  0
CLASS
  1
MLEADERSTYLE
  2
AcDbMLeaderStyle
  3
ACDB_MLEADERSTYLE_CLASS
 90
4095
 91
0
280
0
281
0
  0
CLASS
  1
DICTIONARYVAR
  2
AcDbDictionaryVar
  3
ObjectDBX Classes
 90
0
 91
0
280
0
281
0
  0
CLASS
  1
CELLSTYLEMAP
  2
AcDbCellStyleMap
  3
ObjectDBX Classes
 90
1152
 91
0
280
0
281
0
  0
CLASS
  1
MENTALRAYRENDERSETTINGS
  2
AcDbMentalRayRenderSettings
  3
SCENEOE
 90
1024
 91
0
280
0
281
0
  0
CLASS
  1
ACDBDETAILVIEWSTYLE
  2
AcDbDetailViewStyle
  3
ObjectDBX Classes
 90
1025
 91
0
280
0
281
0
  0
CLASS
  1
ACDBSECTIONVIEWSTYLE
  2
AcDbSectionViewStyle
  3
ObjectDBX Classes
 90
1025
 91
0
280
0
281
0
  0
CLASS
  1
RASTERVARIABLES
  2
AcDbRasterVariables
  3
ISM
 90
0
 91
0
280
0
281
0
  0
CLASS
  1
LAYOUT
  2
AcDbLayout
  3
ObjectDBX Classes
 90
0
 91
0
280
0
281
0
  0
CLASS
  1
ACDBPLACEHOLDER
  2
AcDbPlaceHolder
  3
ObjectDBX Classes
 90
0
 91
0
280
0
281
0
  0
ENDSEC
  0
SECTION
  2
TABLES
  0
TABLE
  2
VPORT
  5
8
330
0
100
AcDbSymbolTable
 70
1
  0
VPORT
  5
23
330
8
100
AcDbSymbolTableRecord
100
AcDbViewportTableRecord
  2
*Active
 70
0
 10
0.0
 20
0.0
 11
1.0
 21
1.0
 12
0.0
 22
0.0
 13
0.0
 23
0.0
 14
0.5
 24
0.5
 15
0.5
 25
0.5
 16
0.0
 26
0.0
 36
1.0
 17
0.0
 27
0.0
 37
0.0
 40
1000.0
 41
1.34
 42
50.0
 43
0.0
 44
0.0
 50
0.0
 51
0.0
 71
0
 72
1000
 73
1
 74
3
 75
0
 76
0
 77
0
 78
0
281
0
 65
0
146
0.0
  0
ENDTAB
  0
TABLE
  2
LTYPE
  5
2
330
0
100
AcDbSymbolTable
 70
3
  0
LTYPE
  5
24
330
2
100
AcDbSymbolTableRecord
100
AcDbLinetypeTableRecord
  2
ByBlock
 70
0
  3

 72
65
 73
0
 40
0.0
  0
LTYPE
  5
25
330
2
100
AcDbSymbolTableRecord
100
AcDbLinetypeTableRecord
  2
ByLayer
 70
0
  3

 72
65
 73
0
 40
0.0
  0
LTYPE
  5
26
330
2
100
AcDbSymbolTableRecord
100
AcDbLinetypeTableRecord
  2
Continuous
 70
0
  3

 72
65
 73
0
 40
0.0
  0
ENDTAB
  0
TABLE
  2
LAYER
  5
1
330
0
100
AcDbSymbolTable
 70
2
  0
LAYER
  5
27
330
1
100
AcDbSymbolTableRecord
100
AcDbLayerTableRecord
  2
0
 70
0
 62
7
  6
Continuous
370
-3
390
13
347
21
  0
LAYER
  5
28
330
1
100
AcDbSymbolTableRecord
100
AcDbLayerTableRecord
  2
Defpoints
 70
0
 62
7
  6
Continuous
290
0
370
-3
390
13
347
21
  0
ENDTAB
  0
TABLE
  2
STYLE
  5
5
330
0
100
AcDbSymbolTable
 70
1
  0
STYLE
  5
29
330
5
100
AcDbSymbolTableRecord
100
AcDbTextStyleTableRecord
  2
Standard
 70
0
 40
0.0
 41
1.0
 50
0.0
 71
0
 42
2.5
  3
txt
  4

  0
ENDTAB
  0
TABLE
  2
VIEW
  5
7
330
0
100
AcDbSymbolTable
 70
0
  0
ENDTAB
  0
TABLE
  2
UCS
  5
6
330
0
100
AcDbSymbolTable
 70
0
  0
ENDTAB
  0
TABLE
  2
APPID
  5
3
330
0
100
AcDbSymbolTable
 70
3
  0
APPID
  5
2A
330
3
100
AcDbSymbolTableRecord
100
AcDbRegAppTableRecord
  2
ACAD
 70
0
  0
APPID
  5
32
330
3
100
AcDbSymbolTableRecord
100
AcDbRegAppTableRecord
  2
HATCHBACKGROUNDCOLOR
 70
0
  0
APPID
  5
33
330
3
100
AcDbSymbolTableRecord
100
AcDbRegAppTableRecord
  2
EZDXF
 70
0
  0
ENDTAB
  0
TABLE
  2
DIMSTYLE
  5
4
330
0
100
AcDbSymbolTable
 70
1
100
AcDbDimStyleTable
  0
DIMSTYLE
105
2B
330
4
100
AcDbSymbolTableRecord
100
AcDbDimStyleTableRecord
  2
Standard
 70
0
 40
1.0
 41
2.5
 42
0.625
 43
3.75
 44
1.25
 45
0.0
 46
0.0
 47
0.0
 48
0.0
 49
2.5
140
2.5
141
2.5
142
0.0
143
0.03937007874
144
1.0
145
0.0
146
1.0
147
0.625
148
0.0
 69
0
 70
0
 71
0
 72
0
 73
0
 74
0
 75
0
 76
0
 77
1
 78
8
 79
3
170
0
171
3
172
1
173
0
174
0
175
0
176
0
177
0
178
0
179
2
271
2
272
2
273
2
274
3
275
0
276
0
277
2
278
44
279
0
280
0
281
0
282
0
283
0
284
8
285
0
286
0
288
0
289
3
290
0
371
-2
372
-2
  0
ENDTAB
  0
TABLE
  2
BLOCK_RECORD
  5
9
330
0
100
AcDbSymbolTable
 70
2
  0
BLOCK_RECORD
  5
17
330
9
100
AcDbSymbolTableRecord
100
AcDbBlockTableRecord
  2
*Model_Space
340
1A
 70
0
280
1
281
0
  0
BLOCK_RECORD
  5
1B
330
9
100
AcDbSymbolTableRecord
100
AcDbBlockTableRecord
  2
*Paper_Space
340
1E
 70
0
280
1
281
0
  0
ENDTAB
  0
ENDSEC
  0
SECTION
  2
BLOCKS
  0
BLOCK
  5
18
330
17
100
AcDbEntity
  8
0
100
AcDbBlockBegin
  2
*Model_Space
 70
0
 10
0.0
 20
0.0
 30
0.0
  3
*Model_Space
  1

  0
ENDBLK
  5
19
330
17
100
AcDbEntity
  8
0
100
AcDbBlockEnd
  0
BLOCK
  5
1C
330
1B
100
AcDbEntity
  8
0
100
AcDbBlockBegin
  2
*Paper_Space
 70
0
 10
0.0
 20
0.0
 30
0.0
  3
*Paper_Space
  1

  0
ENDBLK
  5
1D
330
1B
100
AcDbEntity
  8
0
100
AcDbBlockEnd
  0
ENDSEC
  0
SECTION
  2
ENTITIES
  0
LWPOLYLINE
  5
2F
330
17
100
AcDbEntity
  8
0
 62
0
100
AcDbPolyline
 90
107
 70
0
 10
-1.3045231814483742
 20
56.13860181855164
 10
-0.01827318144836454
 20
60.97235181855164
 10
1.9139143185516332
 20
65.51266431855163
 10
3.149851818551639
 20
67.65985181855163
 10
4.485164318551625
 20
69.74641431855164
 10
7.609383068551637
 20
73.52360181855164
 10
11.278758068551639
 20
76.82735181855162
 10
15.494226818551624
 20
79.65953931855162
 10
17.829851818551617
 20
80.87985181855163
 10
20.239851818551614
 20
82.00891431855165
 10
25.348289318551622
 20
83.78266431855162
 10
30.80453931855162
 20
84.97516431855163
 10
36.61047681855162
 20
85.58641431855163
 10
39.65985181855162
 20
85.64985181855162
 10
43.579851818551624
 20
85.64985181855162
 10
46.67016431855163
 20
85.60172681855163
 10
52.55297681855163
 20
85.02375806855163
 10
58.07672681855162
 20
83.86688306855162
 10
63.23953931855162
 20
82.13016431855164
 10
65.66985181855162
 20
81.01985181855163
 10
68.02735181855162
 20
79.82391431855164
 10
72.28032056855163
 20
77.02360181855163
 10
75.97969556855162
 20
73.73485181855165
 10
79.12641431855162
 20
69.95953931855163
 10
80.46985181855163
 20
67.86985181855164
 10
81.70985181855163
 20
65.71172681855163
 10
83.65188306855163
 20
61.15078931855164
 10
84.94750806855163
 20
56.294539318551635
 10
85.59578931855162
 20
51.14110181855163
 10
85.64985181855162
 20
48.43985181855163
 10
85.59766431855162
 20
45.742664318551626
 10
84.97141431855162
 20
40.60235181855163
 10
83.71891431855163
 20
35.76860181855163
 10
81.84016431855163
 20
31.243289318551632
 10
80.63985181855162
 20
29.109851818551633
 10
79.34266431855163
 20
27.037664318551634
 10
76.30094556855163
 20
23.282976818551635
 10
72.72157056855163
 20
19.994226818551635
 10
68.60360181855162
 20
17.169539318551635
 10
66.31985181855163
 20
15.949851818551632
 10
63.95922681855162
 20
14.818914318551634
 10
58.95532056855162
 20
13.022664318551634
 10
53.60969556855162
 20
11.785164318551633
 10
47.91953931855163
 20
11.106414318551632
 10
44.929851818551626
 20
10.999851818551633
 10
40.11985181855162
 20
10.999851818551633
 10
37.01891431855162
 20
11.047976818551632
 10
31.12157056855162
 20
11.624539318551633
 10
25.592195568551617
 20
12.775789318551634
 10
20.433601818551622
 20
14.499851818551633
 10
18.009851818551624
 20
15.599851818551635
 10
15.65922681855163
 20
16.792351818551634
 10
11.41375806855163
 20
19.590789318551636
 10
7.714383068551626
 20
22.887039318551636
 10
4.560164318551614
 20
26.682976818551637
 10
3.2098518185516127
 20
28.789851818551632
 10
1.959539318551606
 20
30.959539318551634
 10
0.004851818551628639
 20
35.54625806855164
 10
-1.2963981814483532
 20
40.43063306855164
 10
-1.6599539029348307
 20
43.33094736326727
 10
-1.6664304204340255
 20
43.32614405052605
 10
-2.1714713975956528
 20
43.02343413825119
 10
-2.703751224361099
 20
42.7716845292736
 10
-3.258143755024861
 20
42.573319709948066
 10
-3.8293098864548654
 20
42.43025004192194
 10
-4.411748976574273
 20
42.34385336430813
 10
-4.999851818551633
 20
42.314961724341316
 10
-5.587954660528993
 20
42.34385336430813
 10
-6.170393750648401
 20
42.43025004192194
 10
-6.7415598820784055
 20
42.573319709948066
 10
-7.295952412742167
 20
42.7716845292736
 10
-7.828232239507614
 20
43.02343413825118
 10
-8.333273216669241
 20
43.32614405052604
 10
-8.806211523533506
 20
43.676899004164895
 10
-9.242492505670924
 20
44.07232103722203
 10
-9.637914538728054
 20
44.508602019359444
 10
-9.98866949236691
 20
44.9815403262237
 10
-10.29137940464176
 20
45.48658130338533
 10
-10.54312901361935
 20
46.018861130150775
 10
-10.741493832944883
 20
46.573253660814544
 10
-10.884563500971012
 20
47.14441979224454
 10
-10.970960178584818
 20
47.726858882363956
 10
-10.999851818551633
 20
48.314961724341316
 10
-10.970960178584818
 20
48.903064566318676
 10
-10.884563500971012
 20
49.485503656438084
 10
-10.741493832944883
 20
50.05666978786809
 10
-10.54312901361935
 20
50.61106231853186
 10
-10.29137940464176
 20
51.143342145297304
 10
-9.98866949236691
 20
51.648383122458924
 10
-9.637914538728054
 20
52.12132142932319
 10
-9.242492505670924
 20
52.5576024114606
 10
-8.806211523533506
 20
52.95302444451774
 10
-8.333273216669241
 20
53.303779398156586
 10
-7.828232239507628
 20
53.60648931043144
 10
-7.2959524127421815
 20
53.85823891940903
 10
-6.7415598820784055
 20
54.056603738734566
 10
-6.170393750648401
 20
54.199673406760695
 10
-5.587954660528993
 20
54.2860700843745
 10
-4.999851818551633
 20
54.314961724341316
 10
-4.411748976574273
 20
54.2860700843745
 10
-3.8293098864548654
 20
54.199673406760695
 10
-3.258143755024861
 20
54.056603738734566
 10
-2.703751224361099
 20
53.85823891940903
 10
-2.1714713975956528
 20
53.60648931043145
 10
-1.6664304204340255
 20
53.303779398156586
 10
-1.6602892774220805
 20
53.29922481608704
 10
-1.3045231814483742
 20
56.13860181855164
  0
LWPOLYLINE
  5
30
330
17
100
AcDbEntity
  8
0
 62
0
100
AcDbPolyline
 90
42
 70
0
 10
40.009851818551624
 20
64.72985181855164
 10
36.89391431855162
 20
64.68578931855163
 10
31.30172681855162
 20
64.15657056855164
 10
26.47547681855162
 20
63.09719556855163
 10
22.41328931855162
 20
61.506726818551634
 10
20.699851818551622
 20
60.489851818551635
 10
19.12203931855163
 20
59.387039318551636
 10
16.651258068551627
 20
56.80282056855163
 10
15.00313306855162
 20
53.76344556855163
 10
14.178601818551613
 20
50.26797681855163
 10
14.109851818551618
 20
48.32985181855163
 10
14.170242443551615
 20
46.43297681855163
 10
14.894988537301629
 20
43.02030103730163
 10
16.344597912301623
 20
40.064597912301636
 10
18.519187756051622
 20
37.56551588105163
 10
21.418875256051635
 20
35.52270338105163
 10
25.043777599801622
 20
33.93580884980163
 10
29.39401197480163
 20
32.804480724801635
 10
34.46969556855163
 20
32.12836744355163
 10
37.30985181855163
 20
31.97985181855163
 10
43.579851818551624
 20
31.919851818551635
 10
46.65453931855162
 20
31.963289318551634
 10
52.20032056855162
 20
32.48407056855164
 10
57.020945568551625
 20
33.524695568551635
 10
61.11547681855162
 20
35.084226818551635
 10
62.859851818551626
 20
36.07985181855163
 10
64.47360181855163
 20
37.161101818551636
 10
67.00063306855162
 20
39.74719556855163
 10
68.68625806855162
 20
42.83907056855163
 10
69.52953931855163
 20
46.43391431855163
 10
69.59985181855163
 20
48.43985181855163
 10
69.53078931855163
 20
50.35235181855163
 10
68.70250806855162
 20
53.80328931855163
 10
67.04688306855162
 20
56.807039318551624
 10
64.56485181855163
 20
59.365476818551635
 10
62.97985181855162
 20
60.459851818551634
 10
61.26203931855162
 20
61.47016431855163
 10
57.22328931855162
 20
63.056883068551635
 10
52.46078931855162
 20
64.12375806855164
 10
46.97453931855162
 20
64.67172681855163
 10
43.929851818551626
 20
64.72985181855164
 10
40.009851818551624
 20
64.72985181855164
  0
LWPOLYLINE
  5
31
330
17
100
AcDbEntity
  8
0
 62
0
100
AcDbPolyline
 90
65
 70
0
 10
-5.585122784600017
 20
51.257317565551006
 10
-5.870705850315019
 20
51.18578273153794
 10
-6.1479021156469
 20
51.086600321875174
 10
-6.4140420290296305
 20
50.96072551738638
 10
-6.666562517610444
 20
50.809370561248954
 10
-6.903031671042569
 20
50.63399308442953
 10
-7.121172162111279
 20
50.43628206790096
 10
-7.318883178639837
 20
50.21814157683225
 10
-7.4942606554592714
 20
49.98167242340012
 10
-7.645615611596696
 20
49.729151934819306
 10
-7.7714904160854985
 20
49.46301202143658
 10
-7.870672825748258
 20
49.1858157561047
 10
-7.942207659761323
 20
48.9002326903897
 10
-7.9854059985682255
 20
48.609013145329996
 10
-7.999851818551633
 20
48.314961724341316
 10
-7.9854059985682255
 20
48.020910303352636
 10
-7.942207659761323
 20
47.72969075829293
 10
-7.870672825748258
 20
47.44410769257793
 10
-7.7714904160854985
 20
47.16691142724604
 10
-7.645615611596696
 20
46.90077151386332
 10
-7.4942606554592714
 20
46.64825102528251
 10
-7.318883178639837
 20
46.41178187185038
 10
-7.121172162111279
 20
46.19364138078167
 10
-6.903031671042569
 20
45.995930364253105
 10
-6.666562517610444
 20
45.82055288743368
 10
-6.4140420290296305
 20
45.66919793129625
 10
-6.1479021156469
 20
45.54332312680746
 10
-5.870705850315019
 20
45.44414071714469
 10
-5.585122784600017
 20
45.37260588313163
 10
-5.293903239540313
 20
45.329407544324724
 10
-4.999851818551633
 20
45.314961724341316
 10
-4.705800397562953
 20
45.329407544324724
 10
-4.414580852503249
 20
45.37260588313163
 10
-4.128997786788247
 20
45.44414071714469
 10
-3.851801521456366
 20
45.54332312680746
 10
-3.585661608073636
 20
45.66919793129625
 10
-3.333141119492822
 20
45.82055288743368
 10
-3.096671966060697
 20
45.995930364253105
 10
-2.8785314749919877
 20
46.19364138078167
 10
-2.6808204584634154
 20
46.41178187185038
 10
-2.505442981643995
 20
46.64825102528251
 10
-2.35408802550657
 20
46.900771513863326
 10
-2.228213221017768
 20
47.16691142724605
 10
-2.1290308113550083
 20
47.44410769257793
 10
-2.0574959773419437
 20
47.72969075829293
 10
-2.014297638535041
 20
48.020910303352636
 10
-1.9998518185516332
 20
48.314961724341316
 10
-2.014297638535041
 20
48.609013145329996
 10
-2.0574959773419437
 20
48.9002326903897
 10
-2.1290308113550083
 20
49.1858157561047
 10
-2.228213221017768
 20
49.46301202143658
 10
-2.35408802550657
 20
49.729151934819306
 10
-2.505442981643995
 20
49.98167242340012
 10
-2.6808204584634154
 20
50.21814157683225
 10
-2.8785314749919877
 20
50.43628206790096
 10
-3.096671966060697
 20
50.63399308442953
 10
-3.333141119492822
 20
50.809370561248954
 10
-3.585661608073636
 20
50.96072551738638
 10
-3.851801521456366
 20
51.086600321875174
 10
-4.128997786788247
 20
51.18578273153794
 10
-4.414580852503249
 20
51.257317565551006
 10
-4.705800397562953
 20
51.30051590435791
 10
-4.999851818551633
 20
51.314961724341316
 10
-5.293903239540313
 20
51.30051590435791
 10
-5.585122784600017
 20
51.257317565551006
  0
ENDSEC
  0
SECTION
  2
OBJECTS
  0
DICTIONARY
  5
A
330
0
100
AcDbDictionary
280
0
281
1
  3
ACAD_COLOR
350
B
  3
ACAD_GROUP
350
C
  3
ACAD_LAYOUT
350
D
  3
ACAD_MATERIAL
350
E
  3
ACAD_MLEADERSTYLE
350
F
  3
ACAD_MLINESTYLE
350
10
  3
ACAD_PLOTSETTINGS
350
11
  3
ACAD_PLOTSTYLENAME
350
12
  3
ACAD_SCALELIST
350
14
  3
ACAD_TABLESTYLE
350
15
  3
ACAD_VISUALSTYLE
350
16
  3
EZDXF_META
350
2D
  0
DICTIONARY
  5
B
330
A
100
AcDbDictionary
280
0
281
1
  0
DICTIONARY
  5
C
330
A
100
AcDbDictionary
280
0
281
1
  0
DICTIONARY
  5
D
330
A
100
AcDbDictionary
280
0
281
1
  3
Model
350
1A
  3
Layout1
350
1E
  0
DICTIONARY
  5
E
330
A
100
AcDbDictionary
280
0
281
1
  3
ByBlock
350
1F
  3
ByLayer
350
20
  3
Global
350
21
  0
DICTIONARY
  5
F
330
A
100
AcDbDictionary
280
0
281
1
  3
Standard
350
2C
  0
DICTIONARY
  5
10
330
A
100
AcDbDictionary
280
0
281
1
  3
Standard
350
22
  0
DICTIONARY
  5
11
330
A
100
AcDbDictionary
280
0
281
1
  0
ACDBDICTIONARYWDFLT
  5
12
330
A
100
AcDbDictionary
280
0
281
1
  3
Normal
350
13
100
AcDbDictionaryWithDefault
340
13
  0
ACDBPLACEHOLDER
  5
13
330
12
  0
DICTIONARY
  5
14
330
A
100
AcDbDictionary
280
0
281
1
  0
DICTIONARY
  5
15
330
A
100
AcDbDictionary
280
0
281
1
  0
DICTIONARY
  5
16
330
A
100
AcDbDictionary
280
0
281
1
  0
LAYOUT
  5
1A
330
D
100
AcDbPlotSettings
  1

  4
A3
  6

 40
7.5
 41
20.0
 42
7.5
 43
20.0
 44
420.0
 45
297.0
 46
0.0
 47
0.0
 48
0.0
 49
0.0
140
0.0
141
0.0
142
1.0
143
1.0
 70
1024
 72
1
 73
0
 74
5
  7

 75
16
 76
0
 77
2
 78
300
147
1.0
148
0.0
149
0.0
100
AcDbLayout
  1
Model
 70
1
 71
0
 10
0.0
 20
0.0
 11
420.0
 21
297.0
 12
0.0
 22
0.0
 32
0.0
 14
1e+20
 24
1e+20
 34
1e+20
 15
-1e+20
 25
-1e+20
 35
-1e+20
146
0.0
 13
0.0
 23
0.0
 33
0.0
 16
1.0
 26
0.0
 36
0.0
 17
0.0
 27
1.0
 37
0.0
 76
1
330
17
  0
LAYOUT
  5
1E
330
D
100
AcDbPlotSettings
  1

  4
A3
  6

 40
7.5
 41
20.0
 42
7.5
 43
20.0
 44
420.0
 45
297.0
 46
0.0
 47
0.0
 48
0.0
 49
0.0
140
0.0
141
0.0
142
1.0
143
1.0
 70
0
 72
1
 73
0
 74
5
  7

 75
16
 76
0
 77
2
 78
300
147
1.0
148
0.0
149
0.0
100
AcDbLayout
  1
Layout1
 70
1
 71
1
 10
0.0
 20
0.0
 11
420.0
 21
297.0
 12
0.0
 22
0.0
 32
0.0
 14
1e+20
 24
1e+20
 34
1e+20
 15
-1e+20
 25
-1e+20
 35
-1e+20
146
0.0
 13
0.0
 23
0.0
 33
0.0
 16
1.0
 26
0.0
 36
0.0
 17
0.0
 27
1.0
 37
0.0
 76
1
330
1B
  0
MATERIAL
  5
1F
102
{ACAD_REACTORS
330
E
102
}
330
E
100
AcDbMaterial
  1
ByBlock
  2

 70
0
 40
1.0
 71
1
 41
1.0
 91
-1023410177
 42
1.0
 72
1
  3

 73
1
 74
1
 75
1
 44
0.5
 73
0
 45
1.0
 46
1.0
 77
1
  4

 78
1
 79
1
170
1
 48
1.0
171
1
  6

172
1
173
1
174
1
140
1.0
141
1.0
175
1
  7

176
1
177
1
178
1
143
1.0
179
1
  8

270
1
271
1
272
1
145
1.0
146
1.0
273
1
  9

274
1
275
1
276
1
 42
1.0
 72
1
  3

 73
1
 74
1
 75
1
 94
63
  0
MATERIAL
  5
20
102
{ACAD_REACTORS
330
E
102
}
330
E
100
AcDbMaterial
  1
ByLayer
  2

 70
0
 40
1.0
 71
1
 41
1.0
 91
-1023410177
 42
1.0
 72
1
  3

 73
1
 74
1
 75
1
 44
0.5
 73
0
 45
1.0
 46
1.0
 77
1
  4

 78
1
 79
1
170
1
 48
1.0
171
1
  6

172
1
173
1
174
1
140
1.0
141
1.0
175
1
  7

176
1
177
1
178
1
143
1.0
179
1
  8

270
1
271
1
272
1
145
1.0
146
1.0
273
1
  9

274
1
275
1
276
1
 42
1.0
 72
1
  3

 73
1
 74
1
 75
1
 94
63
  0
MATERIAL
  5
21
102
{ACAD_REACTORS
330
E
102
}
330
E
100
AcDbMaterial
  1
Global
  2

 70
0
 40
1.0
 71
1
 41
1.0
 91
-1023410177
 42
1.0
 72
1
  3

 73
1
 74
1
 75
1
 44
0.5
 73
0
 45
1.0
 46
1.0
 77
1
  4

 78
1
 79
1
170
1
 48
1.0
171
1
  6

172
1
173
1
174
1
140
1.0
141
1.0
175
1
  7

176
1
177
1
178
1
143
1.0
179
1
  8

270
1
271
1
272
1
145
1.0
146
1.0
273
1
  9

274
1
275
1
276
1
 42
1.0
 72
1
  3

 73
1
 74
1
 75
1
 94
63
  0
MLINESTYLE
  5
22
102
{ACAD_REACTORS
330
10
102
}
330
10
100
AcDbMlineStyle
  2
Standard
 70
0
  3

 62
256
 51
90.0
 52
90.0
 71
2
 49
0.5
 62
256
  6
BYLAYER
 49
-0.5
 62
256
  6
BYLAYER
  0
MLEADERSTYLE
  5
2C
102
{ACAD_REACTORS
330
F
102
}
330
F
100
AcDbMLeaderStyle
179
2
170
2
171
1
172
0
 90
2
 40
0.0
 41
0.0
173
1
 91
-1056964608
 92
-2
290
1
 42
2.0
291
1
 43
8.0
  3
Standard
 44
4.0
300

342
29
174
1
175
1
176
0
178
1
 93
-1056964608
 45
4.0
292
0
297
0
 46
4.0
 94
-1056964608
 47
1.0
 49
1.0
140
1.0
294
1
141
0.0
177
0
142
1.0
295
0
296
0
143
3.75
271
0
272
9
273
9
  0
DICTIONARY
  5
2D
330
A
100
AcDbDictionary
281
1
  3
CREATED_BY_EZDXF
350
2E
  3
WRITTEN_BY_EZDXF
350
34
  0
DICTIONARYVAR
  5
2E
330
2D
100
DictionaryVariables
280
0
  1
1.3.2 @ 2025-01-06T02:16:59.632747+00:00
  0
DICTIONARYVAR
  5
34
330
2D
100
DictionaryVariables
280
0
  1
1.3.2 @ 2025-01-06T02:16:59.637122+00:00
  0
ENDSEC
  0
EOF
