<?xml version="1.0" encoding="UTF-8" standalone="no"?>
<!-- Created with Inkscape (http://www.inkscape.org/) -->
<svg
   xmlns:svg="http://www.w3.org/2000/svg"
   xmlns="http://www.w3.org/2000/svg"
   version="1.0"
   width="200"
   height="200"
   id="svg2">
  <defs
     id="defs5" />
  <path
     d="M 1.3641358e-06,-2.5e-06 L 1.3641358e-06,200 L 200,200 L 200,-2.5e-06 L 1.3641358e-06,-2.5e-06 z M 4.0000014,3.9999975 L 196,3.9999975 L 196,196 L 4.0000014,196 L 4.0000014,3.9999975 z M 36.707031,7.0195375 C 34.098831,7.0185975 31.054761,7.0213575 27.562501,7.0273475 L 7.0625014,7.0624975 L 7.0625014,25.124999 L 7.0625014,43.187499 L 7.3593714,43.937499 C 7.6403214,44.649587 8.2508114,45.285624 19.480471,56.53125 L 31.308591,68.375001 L 34.218751,65.468751 L 37.125001,62.5625 L 26.187501,51.625 L 15.250001,40.687499 L 15.250001,27.968749 L 15.250001,15.249999 L 29.808591,15.249999 L 44.371091,15.249999 L 44.402341,18.488286 L 44.437501,21.722661 L 46.625001,20.265624 C 47.828121,19.464186 49.644921,18.311474 50.664061,17.703124 L 52.519531,16.597661 L 52.476561,13.394536 C 52.436581,10.227911 52.432901,10.178874 52.105471,9.4804775 C 51.485551,8.1581775 50.424851,7.3937575 48.839841,7.1249975 C 48.442141,7.0575575 44.531631,7.0223375 36.707031,7.0195375 z M 163.8086,7.0234375 C 156.14539,7.0273375 151.5164,7.0609775 151.14844,7.1171875 C 149.667,7.3435275 148.59842,8.0960575 147.91015,9.4023475 L 147.5625,10.062499 L 147.48827,25.749999 C 147.43692,36.556837 147.36989,41.651399 147.27344,42.124999 C 146.993,43.502024 146.71144,44.531612 146.36327,45.464849 C 146.03207,46.352649 146.02292,46.430349 146.22265,46.570312 C 147.34131,47.354187 149.00104,48.770487 150.53125,50.2461 L 152.3789,52.02735 L 153.0586,50.605475 C 154.2472,48.133399 154.96901,45.753924 155.38281,42.941412 C 155.60684,41.418787 155.62446,40.470537 155.625,28.281249 L 155.625,15.249999 L 170.1875,15.249999 L 184.75,15.249999 L 184.75,27.968749 L 184.75,40.683599 L 182.04298,43.394537 L 179.33594,46.101562 L 179.77735,46.707037 C 180.30598,47.432962 182.64493,51.21465 183.3125,52.421875 L 183.78906,53.28125 L 188.0625,48.984374 C 192.17116,44.851049 192.34605,44.656474 192.63673,43.874999 L 192.9375,43.062499 L 192.9375,25.062499 L 192.9375,7.0624975 L 172.4375,7.0273475 C 169.2546,7.0220875 166.36299,7.0221375 163.8086,7.0234375 z M 101.22265,7.1249975 C 99.449061,7.1251475 97.908881,7.1881375 97.171871,7.3164075 C 91.326181,8.3337975 86.375401,12.550449 84.457031,18.140624 C 82.681021,23.315949 83.585671,29.100774 86.851561,33.437499 C 87.162211,33.849999 88.461901,35.244999 89.738281,36.535162 L 92.058591,38.878912 L 94.925781,36.007812 L 97.796871,33.140624 L 95.726561,31.019537 C 93.527071,28.768699 93.086241,28.216174 92.500001,26.976562 C 91.375551,24.598912 91.533771,21.549011 92.898441,19.292974 C 93.904761,17.629324 95.584231,16.281699 97.437501,15.652349 C 98.418021,15.319361 98.494711,15.314149 101.375,15.324224 C 112.33802,15.362536 124.11855,17.931399 134.375,22.523436 C 137.51141,23.927674 142.05484,26.306987 144.03125,27.578124 L 144.5,27.878912 L 144.5,23.136724 L 144.5,18.398436 L 142.46875,17.339849 C 131.66202,11.710111 119.48139,8.2974775 106.67578,7.3164075 C 105.00406,7.1883375 102.99625,7.1248475 101.22265,7.1249975 z M 88.105471,7.8749975 C 87.009211,7.8891575 82.221461,8.7178775 78.679681,9.5468735 C 64.867171,12.779899 51.845511,19.243474 40.875001,28.304687 C 35.950771,32.371899 30.734411,37.722299 26.796871,42.749999 C 25.355881,44.589962 24.625001,45.587124 24.625001,45.710937 C 24.625001,45.764899 25.926881,47.113287 27.519531,48.707037 C 30.383551,51.573 30.420301,51.6047 30.625001,51.335937 C 30.738821,51.186487 31.104391,50.66875 31.441401,50.1875 C 34.829731,45.349149 40.680281,39.114149 45.937501,34.738287 C 51.679271,29.959087 58.584631,25.675299 65.625001,22.523436 C 69.892781,20.612811 75.865811,18.575299 79.812501,17.683599 C 81.540661,17.293136 81.593151,17.273274 81.683591,16.906249 C 81.802711,16.422836 82.780181,14.379599 83.332031,13.460936 C 84.550331,11.432849 86.552771,9.2168475 88.304691,7.9570375 C 88.386011,7.8985475 88.308481,7.8723775 88.105471,7.8749975 z M 106.64062,18.562499 L 106.89062,18.937499 C 108.53253,21.381149 108.69235,24.731512 107.29297,27.394537 C 107.03397,27.887399 106.3761,28.779387 105.80078,29.417974 C 105.23447,30.046537 101.02219,34.303124 96.441401,38.874999 L 88.113281,47.187499 L 88.519531,47.499999 C 89.912271,48.568062 92.443471,51.099437 93.425781,52.40625 C 93.619571,52.664062 93.815351,52.875 93.859371,52.875 C 93.903401,52.875 98.137261,48.670312 103.26562,43.531249 C 108.39398,38.392187 112.84302,33.849999 113.15234,33.437499 C 114.97101,31.012199 116.08208,28.095099 116.38281,24.957037 C 116.57295,22.972924 116.2802,19.935236 115.89062,19.824224 C 114.98563,19.566336 108.85034,18.697711 107.22656,18.597661 L 106.64062,18.562499 z M 158.8125,28.011724 L 158.78125,33.464849 L 158.7461,38.917974 L 160.59765,40.804687 C 173.48865,53.923712 181.76433,71.030375 184.0625,89.312502 C 184.55023,93.192317 184.6836,95.447728 184.6836,100 C 184.68359,105.75959 184.31771,110.03419 183.39063,115.125 C 182.19726,121.67789 179.93221,129.06083 177.51173,134.29298 C 177.23026,134.90136 177,135.46438 177,135.54298 C 177,135.62155 178.36131,137.04778 180.02735,138.71485 L 183.0586,141.7461 L 183.30078,141.28125 C 183.43378,141.02408 183.98669,139.82813 184.53125,138.625 C 187.18753,132.75643 189.047,127.32909 190.45313,121.32031 C 192.96491,110.58664 193.55261,99.288378 192.17578,88.312501 C 190.86359,77.8518 187.91243,68.067199 183.25,58.742187 C 180.97618,54.194462 179.0167,50.876337 176.21094,46.812499 C 172.25868,41.088087 166.3443,34.519362 160.9375,29.847662 L 158.8125,28.011724 z M 52.437501,33.507812 L 50.687501,34.832037 C 48.744981,36.302187 47.260011,37.514874 45.539061,39.042974 L 44.394531,40.062499 L 44.386721,40.687499 C 44.374761,41.525499 44.792761,44.315937 45.125001,45.617187 C 45.765561,48.126049 46.919771,50.870362 48.210931,52.949225 C 49.698661,55.344537 50.595671,56.3532 56.617181,62.410162 L 62.554681,68.382814 L 65.464841,65.472657 L 68.371091,62.566412 L 62.582031,56.753912 C 59.396681,53.555937 56.537401,50.6 56.226561,50.1875 C 54.422751,47.793737 53.297291,45.197449 52.738281,42.124999 C 52.656981,41.678124 52.558061,39.556512 52.515621,37.410162 L 52.437501,33.507812 z M 107.87109,43.195312 L 104.99609,46.066412 L 102.125,48.937499 L 111.84375,58.65625 L 121.5625,68.375001 L 124.40625,65.531251 C 125.97081,63.967799 127.23626,62.646275 127.21875,62.59375 C 127.19121,62.511137 114.80433,50.08055 109.65234,44.964849 L 107.87109,43.195312 z M 70.457031,44.374999 C 66.483941,44.376137 62.944741,45.168874 59.308591,46.871099 L 57.980471,47.492187 L 58.574221,48.277349 C 58.901701,48.708949 60.219151,50.121587 61.500001,51.417975 L 63.828121,53.77735 L 65.039061,53.390625 C 69.054601,52.104337 73.405761,52.273 77.312501,53.8711 C 79.638231,54.822462 81.376511,55.993187 83.257811,57.8711 C 86.667001,61.274125 88.490901,65.673636 88.496091,70.500001 C 88.498381,72.630887 88.055451,75.189111 87.417971,76.714845 L 87.230471,77.164064 L 90.269531,80.207033 C 91.941761,81.8803 93.345381,83.250001 93.386721,83.250001 C 93.428051,83.250003 93.747741,82.645314 94.097651,81.906251 C 95.255931,79.459814 95.992061,77.056188 96.441401,74.250001 C 96.730431,72.445036 96.729611,68.668782 96.441401,66.812501 C 95.543181,61.027137 93.078691,56.105212 89.054691,52.0625 C 84.064211,47.048824 77.590721,44.372962 70.457031,44.374999 z M 129.54297,44.374999 C 125.35384,44.373812 121.42274,45.276912 117.88672,47.054687 L 116.71094,47.648437 L 119.77344,50.710937 L 122.83984,53.77735 L 123.76562,53.460937 C 125.61024,52.825812 127.13432,52.586612 129.375,52.582037 C 132.90931,52.574812 135.66934,53.311325 138.6875,55.066412 C 140.26101,55.981412 141.47631,57.076487 147,62.578125 L 152.8125,68.371095 L 155.71875,65.464845 L 158.625,62.5625 L 153.84375,57.769537 C 147.0508,50.959137 145.69792,49.751825 143.11327,48.179687 C 138.95532,45.650537 134.41654,44.376387 129.54297,44.374999 z M 169.08594,56.351562 L 158.16798,67.269532 L 147.25,78.187501 L 150.15625,81.093751 L 153.0625,84.000001 L 163.16798,73.894532 L 173.27344,63.789064 L 172.8086,62.863287 C 172.14381,61.542987 170.72679,59.020337 169.84375,57.582037 L 169.08594,56.351562 z M 47.140621,56.8125 L 36.812501,67.125001 C 31.131461,72.796877 26.145461,77.852906 25.734371,78.359376 C 24.227251,80.216194 23.570601,82.054739 23.585931,84.375001 C 23.597461,86.118606 23.882431,87.300416 24.644531,88.785158 C 25.134421,89.73959 25.446911,90.091707 29.109371,93.781252 C 31.276161,95.964065 33.080011,97.750002 33.117181,97.750002 C 33.154371,97.750003 34.463741,96.47264 36.027341,94.910158 L 38.871091,92.066408 L 35.312501,88.492189 L 31.750001,84.91797 L 31.750001,84.367189 L 31.750001,83.816408 L 42.250001,73.312501 L 52.750001,62.8086 L 51.613281,61.6875 C 50.397031,60.486362 48.356821,58.289425 47.601561,57.3711 L 47.140621,56.8125 z M 136.7539,57.4375 L 126.5625,67.628907 L 116.37109,77.816408 L 117.01953,78.816408 C 117.85148,80.096183 119.90388,82.148556 121.18359,82.98047 L 122.18359,83.628908 L 132.59765,73.222657 L 143.01172,62.8125 L 141.16406,61 C 139.29085,59.163337 138.24236,58.284012 137.28125,57.738287 L 136.7539,57.4375 z M 77.894531,57.5 C 77.792541,57.5 57.207181,78.06983 57.156251,78.222658 C 57.083281,78.441524 61.076101,82.205824 62.125001,82.906251 L 63.187501,83.617189 L 73.398431,73.410157 L 83.605471,63.207037 L 83.160151,62.511725 C 82.039931,60.7526 80.567731,59.229775 78.898431,58.113287 C 78.393781,57.775737 77.941801,57.5 77.894531,57.5 z M 106.59375,57.832037 C 106.43483,57.93025 105.33016,60.323025 104.88672,61.53125 C 104.34274,63.013387 103.91023,64.707052 103.61328,66.500001 C 103.2742,68.547292 103.24673,72.306092 103.55859,74.250001 C 104.50336,80.13898 106.91644,84.932065 110.99219,89.007814 C 116.89126,94.906889 124.87058,97.570782 133.1875,96.421877 C 134.91426,96.183344 136.61861,95.759149 138.34375,95.13672 C 139.79016,94.614847 142.05499,93.592944 142.16797,93.410158 C 142.20612,93.348415 140.87241,91.933852 139.20702,90.269533 L 136.17969,87.246095 L 135.4336,87.500001 C 133.45515,88.181574 131.59676,88.493841 129.5,88.496095 C 121.32553,88.504884 114.2686,83.091355 112.07422,75.125001 C 111.17764,71.870137 111.35392,67.669304 112.51562,64.507814 L 112.76562,63.828126 L 109.73437,60.796875 C 108.06773,59.129187 106.65423,57.79465 106.59375,57.832037 z M 16.925781,58.242187 L 16.695311,58.71485 C 11.320701,69.742482 8.2502314,81.079583 7.3125014,93.375002 C 7.0540014,96.764399 7.0540014,103.23561 7.3125014,106.625 C 8.2669314,119.13944 11.351471,130.46059 16.750001,141.25781 C 19.023821,145.80554 20.983301,149.12366 23.789061,153.1875 C 27.741311,158.91191 33.655681,165.48063 39.062501,170.15235 L 41.187501,171.98828 L 41.218751,166.53515 L 41.253901,161.08203 L 39.402341,159.19531 C 26.511351,146.07629 18.235681,128.96963 15.937501,110.6875 C 15.449781,106.80769 15.316401,104.55228 15.316401,100 C 15.316401,94.240419 15.682281,89.965818 16.609371,84.875001 C 17.802721,78.322114 20.067781,70.939162 22.488281,65.707032 C 22.769741,65.098624 23.000001,64.536651 23.000001,64.457032 C 23.000001,64.377417 21.635221,62.946675 19.964841,61.27735 L 16.925781,58.242187 z M 168.6914,72.621095 L 165.78515,75.527345 L 162.8789,78.433595 L 165.5625,81.128908 L 168.25,83.82422 L 168.25,84.378908 L 168.25,84.929689 L 157.65625,95.539064 L 147.0625,106.14453 L 147.5,106.47656 C 148.1721,106.99229 150.42947,109.0937 151.7461,110.42578 C 152.39786,111.0852 152.96226,111.625 153,111.625 C 153.03772,111.625 157.86122,106.82969 163.71875,100.96875 C 169.57628,95.107815 174.51646,90.115627 174.69531,89.875002 C 175.80446,88.382803 176.40015,86.47846 176.41406,84.375001 C 176.425,82.720886 176.15943,81.554813 175.44923,80.144533 C 174.82383,78.902643 174.243,78.220493 171.32813,75.281251 L 168.6914,72.621095 z M 78.437501,72.625001 L 75.531251,75.531251 L 72.625001,78.437501 L 82.343751,88.156251 L 92.062501,97.875002 L 94.968751,94.968752 L 97.875001,92.062502 L 88.156251,82.343751 L 78.437501,72.625001 z M 47.183591,72.628907 L 44.273431,75.539064 L 41.367181,78.445314 L 47.402341,84.44922 C 53.694201,90.707179 54.595921,91.499822 57.144531,93.015627 C 60.684081,95.120799 64.968611,96.437049 69.062501,96.671877 C 70.341301,96.745229 72.875981,96.62204 74.250001,96.421877 C 75.866781,96.186349 78.088581,95.636189 79.500001,95.121095 C 80.687961,94.687552 83.250001,93.502908 83.250001,93.38672 C 83.250001,93.345385 81.880301,91.941758 80.207031,90.269533 L 77.164061,87.23047 L 76.714841,87.41797 C 75.189121,88.055463 72.630881,88.498386 70.500001,88.496095 C 66.805681,88.492125 63.596381,87.50309 60.367181,85.367189 C 59.371341,84.708505 58.245751,83.647268 53.183591,78.60547 L 47.183591,72.628907 z M 137.3711,72.691407 L 134.5,75.562501 L 131.625,78.437501 L 141.34375,88.156251 L 151.0625,97.875002 L 153.90625,95.031252 C 155.47081,93.467799 156.73651,92.147044 156.71875,92.093752 C 156.69047,92.008928 147.85647,83.138113 140.03125,75.339845 L 137.3711,72.691407 z M 106.13672,88.125001 C 106.09596,88.125003 102.01232,92.175709 97.062501,97.128908 L 88.062501,106.13672 L 88.437501,106.41016 C 89.697301,107.33254 92.653031,110.277 93.464841,111.41797 C 93.643141,111.66857 93.822521,111.875 93.863281,111.875 C 93.904041,111.875 97.987681,107.82429 102.9375,102.8711 L 111.9375,93.863283 L 111.5625,93.589845 C 110.30269,92.667467 107.34697,89.723007 106.53515,88.582033 C 106.35685,88.331439 106.17748,88.125001 106.13672,88.125001 z M 46.988281,88.335939 L 45.214841,90.097658 C 38.291171,96.972388 25.572271,109.76538 25.304681,110.125 C 24.195821,111.61526 23.599851,113.5212 23.585931,115.625 C 23.575001,117.27912 23.840581,118.44519 24.550781,119.85547 C 25.176191,121.09736 25.757001,121.77951 28.671871,124.71875 L 31.308591,127.3789 L 34.214841,124.47266 L 37.121091,121.56641 L 34.437501,118.8711 L 31.750001,116.17578 L 31.750001,115.6211 L 31.750001,115.07031 L 42.312501,104.5 C 48.121871,98.687948 52.875001,93.897838 52.875001,93.85547 C 52.875001,93.813102 52.569431,93.548092 52.195311,93.265627 C 51.821181,92.983163 50.494511,91.758032 49.250001,90.54297 L 46.988281,88.335939 z M 48.937501,102.125 L 46.066401,104.9961 C 44.488661,106.57496 43.238551,107.9107 43.289061,107.96485 C 43.926811,108.64853 62.577381,127.25 62.625001,127.25 C 62.661061,127.25 63.967931,125.97068 65.531251,124.40625 L 68.375001,121.5625 L 58.656251,111.84375 L 48.937501,102.125 z M 107.9375,102.125 L 105.03125,105.03125 L 102.125,107.9375 L 111.84375,117.65625 L 121.5625,127.375 L 124.46875,124.46875 L 127.375,121.5625 L 117.65625,111.84375 L 107.9375,102.125 z M 166.88281,102.1875 L 164.0039,105.0586 L 161.1289,107.9336 L 164.6875,111.50781 L 168.25,115.08203 L 168.25,115.63281 L 168.25,116.1836 L 157.75781,126.6875 L 147.26562,137.1875 L 149.29687,139.25781 C 150.41435,140.39709 151.65594,141.73303 152.05469,142.22656 C 152.45344,142.72009 152.81424,143.125 152.85937,143.125 C 152.90451,143.125 157.72612,138.32969 163.57423,132.46875 C 169.42231,126.60781 174.40853,121.53125 174.65235,121.1875 C 175.88096,119.45515 176.42796,117.72836 176.41406,115.625 C 176.40254,113.88166 176.11743,112.69993 175.35548,111.21485 C 174.86511,110.25909 174.55511,109.91124 170.85548,106.1875 L 166.88281,102.1875 z M 70.625001,103.34375 C 67.238121,103.3363 64.691151,103.76829 61.656251,104.86328 C 60.209811,105.38516 57.945001,106.40706 57.832031,106.58985 C 57.793881,106.65159 59.127601,108.06615 60.792971,109.73047 L 63.820311,112.75391 L 64.566401,112.5 C 66.544861,111.81842 68.403231,111.50616 70.500001,111.50391 C 78.674461,111.49512 85.731391,116.90865 87.925781,124.875 C 88.822361,128.12985 88.646071,132.33069 87.484371,135.49219 L 87.234371,136.17188 L 90.265621,139.20313 C 91.932261,140.8708 93.345761,142.20534 93.406251,142.16798 C 93.466741,142.1306 93.790331,141.51568 94.125001,140.80078 C 95.284291,138.32439 95.937351,136.21315 96.386721,133.5 C 96.725801,131.45271 96.753271,127.69391 96.441401,125.75 C 95.496631,119.86103 93.083561,115.06794 89.007811,110.99219 C 84.004191,105.98856 77.683551,103.35929 70.625001,103.34375 z M 129.375,103.34375 C 125.28156,103.35276 121.81845,104.13887 118.09375,105.90235 C 117.35468,106.25226 116.75,106.57195 116.75,106.61328 C 116.75,106.65462 118.1197,108.05825 119.79297,109.73047 L 122.83594,112.76953 L 123.28515,112.58203 C 124.79912,111.94946 127.36209,111.50069 129.46875,111.5 C 133.46051,111.49869 137.16857,112.75523 140.39844,115.19922 C 140.99185,115.64824 143.8727,118.42211 147.125,121.67969 L 152.8125,127.375 L 155.72265,124.46875 L 158.63281,121.5625 L 152.59765,115.55469 C 146.30269,109.28915 145.40824,108.50267 142.85547,106.98438 C 138.70976,104.51869 134.32626,103.33285 129.375,103.34375 z M 46.937501,116 L 36.832031,126.10548 L 26.726561,136.21094 L 27.191401,137.13673 C 27.856191,138.45701 29.273201,140.97964 30.156251,142.41798 L 30.914061,143.64844 L 41.832031,132.73048 L 52.750001,121.8125 L 49.843751,118.90625 L 46.937501,116 z M 77.816401,116.3711 L 67.410151,126.77735 L 57.003901,137.1836 L 58.093751,138.29298 C 60.225461,140.45506 62.702371,142.5 63.187501,142.5 C 63.256981,142.5 67.885681,137.92713 73.472651,132.33985 L 83.628901,122.1836 L 82.980471,121.1836 C 82.148581,119.90392 80.096081,117.85142 78.816401,117.01953 L 77.816401,116.3711 z M 136.8125,116.38281 L 126.60156,126.58985 L 116.39453,136.79298 L 116.83984,137.48828 C 117.96008,139.24741 119.43226,140.77021 121.10156,141.88673 C 121.60622,142.22425 122.0582,142.5 122.10547,142.5 C 122.15273,142.5 126.83011,137.86174 132.5,132.1914 C 138.1699,126.5211 142.8245,121.8351 142.84375,121.77735 C 142.91671,121.55847 138.9239,117.79418 137.875,117.09375 L 136.8125,116.38281 z M 106.61328,116.75 C 106.57194,116.75 106.25225,117.35469 105.90234,118.09375 C 104.12619,121.84524 103.35201,125.28674 103.34765,129.4375 C 103.34337,133.52699 104.02401,136.71328 105.6875,140.375 C 108.53857,146.65088 114.06454,151.7618 120.5,154.07813 C 124.46739,155.50611 129.1143,155.98268 133.1914,155.38281 C 135.91302,154.98238 138.19509,154.29755 140.6914,153.1289 L 142.01952,152.50781 L 141.42577,151.72265 C 141.09829,151.29105 139.78084,149.87844 138.5,148.58203 L 136.17187,146.22265 L 134.96094,146.60938 C 130.9454,147.89566 126.59425,147.72703 122.6875,146.1289 C 120.36177,145.17755 118.62349,144.00681 116.74219,142.1289 C 113.333,138.72589 111.50909,134.32636 111.5039,129.5 C 111.50161,127.36911 111.94454,124.81089 112.58203,123.28516 L 112.76953,122.83594 L 109.73047,119.79297 C 108.05824,118.1197 106.65461,116.75 106.61328,116.75 z M 137.44531,131.61719 L 134.53515,134.52735 L 131.6289,137.4336 L 137.41797,143.2461 C 140.60332,146.44406 143.4626,149.4 143.77344,149.8125 C 144.9287,151.34561 145.78534,152.92734 146.4414,154.75 C 147.27027,157.0526 147.49294,158.84676 147.4961,163.17188 C 147.49804,165.84003 147.53214,166.50625 147.65625,166.41015 C 147.74219,166.34363 148.4875,165.7826 149.3125,165.16406 C 151.04839,163.86259 152.83147,162.40623 154.46094,160.95703 L 155.60547,159.9375 L 155.61327,159.3125 C 155.62522,158.4745 155.20724,155.68408 154.875,154.38281 C 154.23442,151.87395 153.08022,149.12965 151.78906,147.05078 C 150.30134,144.65545 149.40432,143.6468 143.38281,137.58985 L 137.44531,131.61719 z M 78.437501,131.625 L 75.566401,134.4961 C 73.988661,136.07496 72.722681,137.39518 72.753901,137.42969 C 73.200111,137.92266 92.073161,156.75 92.121091,156.75 C 92.157891,156.75 93.467941,155.47068 95.031251,153.90625 L 97.875001,151.0625 L 88.156251,141.34375 L 78.437501,131.625 z M 168.6914,131.625 L 165.78125,134.53125 L 162.875,137.4375 L 173.8125,148.375 L 184.75,159.3125 L 184.75,172.03125 L 184.75,184.75 L 170.1914,184.75 L 155.6289,184.75 L 155.59765,181.51173 L 155.5625,178.27735 L 153.375,179.73438 C 152.17187,180.53581 150.35506,181.68853 149.33594,182.29688 L 147.48047,183.40235 L 147.52344,186.60548 C 147.56341,189.7721 147.5671,189.82113 147.89452,190.51953 C 148.26841,191.31703 149.09674,192.19033 149.75,192.47656 C 150.9034,192.98194 150.76792,192.9788 172.25,192.95703 L 192.9375,192.9375 L 192.9375,174.875 L 192.9375,156.8125 L 192.64063,156.0625 C 192.35968,155.35041 191.7492,154.71439 180.51953,143.46875 L 168.6914,131.625 z M 47.179681,131.6289 L 44.277341,134.53515 L 41.371091,137.4414 L 46.968751,143.01173 C 53.642471,149.65135 54.348281,150.27716 56.878901,151.8164 C 59.907951,153.65884 63.162421,154.83978 66.687501,155.375 C 68.642421,155.67181 71.953591,155.69468 73.957031,155.42578 C 76.781661,155.04669 79.690191,154.16355 82.113281,152.94531 L 83.289061,152.35156 L 80.226561,149.28906 L 77.160151,146.22265 L 76.234371,146.53906 C 74.389771,147.17419 72.865671,147.41338 70.625001,147.41798 C 67.090681,147.4252 64.330661,146.68868 61.312501,144.9336 C 59.741061,144.0198 58.520101,142.91746 52.996091,137.41798 L 47.179681,131.6289 z M 16.210931,146.71875 L 11.941401,151.01563 C 8.0519414,154.92981 7.6437814,155.37939 7.3671814,156.0625 L 7.0625014,156.8125 L 7.0273414,174.7461 C 7.0085714,184.60955 7.0208714,192.75174 7.0546814,192.83985 C 7.1043114,192.96918 11.070491,193.00059 27.652341,193 C 40.182251,192.99958 48.474581,192.95216 48.921871,192.8789 C 50.354351,192.64433 51.414071,191.88026 52.089841,190.59765 L 52.437501,189.9375 L 52.511721,174.25 C 52.563081,163.44316 52.630111,158.34861 52.726561,157.875 C 53.007001,156.49798 53.288571,155.4684 53.636721,154.53515 C 53.967931,153.64736 53.977081,153.56965 53.777341,153.42969 C 52.658681,152.64581 50.998961,151.22953 49.468751,149.7539 L 47.621091,147.97265 L 46.941401,149.39453 C 45.752801,151.86661 45.030981,154.24608 44.617181,157.0586 C 44.393161,158.58123 44.375531,159.52946 44.375001,171.71875 L 44.375001,184.75 L 29.812501,184.75 L 15.250001,184.75 L 15.250001,172.03125 L 15.250001,159.3164 L 17.957031,156.60548 L 20.664061,153.89844 L 20.222651,153.29298 C 19.694021,152.56704 17.355071,148.78536 16.687501,147.57813 L 16.210931,146.71875 z M 106.14062,147.0625 L 97.000001,156.1875 C 91.971061,161.20625 87.502291,165.7625 87.070311,166.3125 C 85.080851,168.84555 83.933381,171.74347 83.617181,175.04298 C 83.543651,175.81042 83.520281,176.83125 83.562501,177.3125 C 83.651731,178.33003 83.887791,180.125 83.933591,180.125 C 83.950881,180.125 84.692371,180.26063 85.578121,180.42578 C 86.463871,180.59093 88.087501,180.8418 89.187501,180.98438 C 90.287501,181.12696 91.328121,181.26631 91.500001,181.29298 C 91.930481,181.35973 93.250001,181.38623 93.250001,181.32813 C 93.250001,181.30208 93.060871,180.96986 92.832031,180.58985 C 92.176361,179.50101 91.852151,178.36414 91.781251,176.92188 C 91.684771,174.95949 92.149391,173.30754 93.265621,171.65235 C 93.484651,171.32755 97.765511,166.95069 102.77734,161.92578 L 111.89062,152.78906 L 111.41406,152.4336 C 110.09384,151.44101 107.60243,148.95029 106.47656,147.4961 L 106.14062,147.0625 z M 169.5625,148.38281 L 168.7539,149.53515 C 164.60556,155.44831 157.97402,162.31653 151.875,167.01563 C 143.16832,173.72384 133.22182,178.73039 122.875,181.61328 C 121.87812,181.89105 120.66875,182.20769 120.1875,182.3164 C 118.39639,182.72109 118.4261,182.70398 118.26953,183.22656 C 118.04399,183.97934 116.83494,186.34808 116.16797,187.33985 C 115.03991,189.01721 113.16087,190.99131 111.69531,192.04298 C 111.3975,192.25669 113.73718,191.96086 116.875,191.38673 C 132.31622,188.56134 146.98226,181.72474 159.125,171.69532 C 164.04923,167.6281 169.26559,162.2777 173.20313,157.25 C 174.65071,155.40163 175.375,154.41086 175.375,154.28515 C 175.375,154.23011 174.06719,152.8809 172.46875,151.28515 L 169.5625,148.38281 z M 107.93359,161.125 L 105.07031,163.99219 L 102.20312,166.85938 L 104.27344,168.98048 C 105.41206,170.14567 106.5133,171.34487 106.71875,171.64453 C 109.02316,175.0057 108.70329,179.36975 105.94922,182.17578 C 104.90698,183.23769 103.94065,183.85036 102.5625,184.32031 C 101.2955,184.75238 99.308891,184.84178 95.625001,184.63281 C 83.528791,183.94664 72.604721,181.05679 61.937501,175.71875 C 60.066521,174.78249 57.036061,173.10833 55.968751,172.42188 L 55.500001,172.1211 L 55.500001,176.86328 L 55.500001,181.60156 L 57.531251,182.66015 C 69.433201,188.86044 83.218651,192.433 96.937501,192.86719 C 100.09712,192.96719 101.23794,192.92783 102.8125,192.67188 C 104.95542,192.32355 107.36496,191.35989 109.1875,190.1211 C 115.64373,185.73275 118.14353,177.57101 115.25781,170.30078 C 114.30832,167.90867 113.07487,166.23766 110.03906,163.21875 L 107.93359,161.125 z"
     id="rect2386"
     style="opacity:1;fill:#000000;fill-opacity:1;fill-rule:nonzero;stroke:#000000;stroke-width:0;stroke-miterlimit:4;stroke-dasharray:none;stroke-opacity:1" />
</svg>
