  0
SECTION
  2
HEADER
  9
$ACADVER
  1
AC1014
  9
$ACADMAINTVER
 70
     9
  9
$DWGCODEPAGE
  3
ANSI_1252
  9
$INSBASE
 10
0.0
 20
0.0
 30
0.0
  9
$EXTMIN
 10
1.000000000000000E+20
 20
1.000000000000000E+20
 30
1.000000000000000E+20
  9
$EXTMAX
 10
-1.000000000000000E+20
 20
-1.000000000000000E+20
 30
-1.000000000000000E+20
  9
$LIMMIN
 10
0.0
 20
0.0
  9
$LIMMAX
 10
12.0
 20
9.0
  9
$ORTHOMODE
 70
     0
  9
$REGENMODE
 70
     1
  9
$FILLMODE
 70
     1
  9
$QTEXTMODE
 70
     0
  9
$MIRRTEXT
 70
     1
  9
$DRAGMODE
 70
     2
  9
$LTSCALE
 40
1.0
  9
$OSMODE
 70
    37
  9
$ATTMODE
 70
     1
  9
$TEXTSIZE
 40
2.5
  9
$TRACEWID
 40
0.05
  9
$TEXTSTYLE
  7
STANDARD
  9
$CLAYER
  8
0
  9
$CELTYPE
  6
BYLAYER
  9
$CECOLOR
 62
    18
  9
$CELTSCALE
 40
1.0
  9
$DELOBJ
 70
     1
  9
$DISPSILH
 70
     0
  9
$DIMSCALE
 40
1.0
  9
$DIMASZ
 40
0.18
  9
$DIMEXO
 40
0.0625
  9
$DIMDLI
 40
0.38
  9
$DIMRND
 40
0.0
  9
$DIMDLE
 40
0.0
  9
$DIMEXE
 40
0.18
  9
$DIMTP
 40
0.0
  9
$DIMTM
 40
0.0
  9
$DIMTXT
 40
0.18
  9
$DIMCEN
 40
0.09
  9
$DIMTSZ
 40
0.0
  9
$DIMTOL
 70
     0
  9
$DIMLIM
 70
     0
  9
$DIMTIH
 70
     1
  9
$DIMTOH
 70
     1
  9
$DIMSE1
 70
     0
  9
$DIMSE2
 70
     0
  9
$DIMTAD
 70
     0
  9
$DIMZIN
 70
     0
  9
$DIMBLK
  1

  9
$DIMASO
 70
     1
  9
$DIMSHO
 70
     1
  9
$DIMPOST
  1

  9
$DIMAPOST
  1

  9
$DIMALT
 70
     0
  9
$DIMALTD
 70
     2
  9
$DIMALTF
 40
25.4
  9
$DIMLFAC
 40
1.0
  9
$DIMTOFL
 70
     0
  9
$DIMTVP
 40
0.0
  9
$DIMTIX
 70
     0
  9
$DIMSOXD
 70
     0
  9
$DIMSAH
 70
     0
  9
$DIMBLK1
  1

  9
$DIMBLK2
  1

  9
$DIMSTYLE
  2
STANDARD
  9
$DIMCLRD
 70
    18
  9
$DIMCLRE
 70
    18
  9
$DIMCLRT
 70
    18
  9
$DIMTFAC
 40
1.0
  9
$DIMGAP
 40
0.09
  9
$DIMJUST
 70
     0
  9
$DIMSD1
 70
     0
  9
$DIMSD2
 70
     0
  9
$DIMTOLJ
 70
     1
  9
$DIMTZIN
 70
     0
  9
$DIMALTZ
 70
     0
  9
$DIMALTTZ
 70
     0
  9
$DIMFIT
 70
     3
  9
$DIMUPT
 70
     0
  9
$DIMUNIT
 70
     2
  9
$DIMDEC
 70
     4
  9
$DIMTDEC
 70
     4
  9
$DIMALTU
 70
     2
  9
$DIMALTTD
 70
     2
  9
$DIMTXSTY
  7
STANDARD
  9
$DIMAUNIT
 70
     0
  9
$LUNITS
 70
     2
  9
$LUPREC
 70
     4
  9
$SKETCHINC
 40
0.1
  9
$FILLETRAD
 40
0.5
  9
$AUNITS
 70
     0
  9
$AUPREC
 70
     0
  9
$MENU
  1
.
  9
$ELEVATION
 40
0.0
  9
$PELEVATION
 40
0.0
  9
$THICKNESS
 40
0.0
  9
$LIMCHECK
 70
     0
  9
$CHAMFERA
 40
0.0
  9
$CHAMFERB
 40
0.0
  9
$CHAMFERC
 40
0.0
  9
$CHAMFERD
 40
0.0
  9
$SKPOLY
 70
     0
  9
$TDCREATE
 40
2456706.82264272
  9
$TDUPDATE
 40
2456706.822642731
  9
$TDINDWG
 40
0.0000000116
  9
$TDUSRTIMER
 40
0.0000000116
  9
$USRTIMER
 70
     1
  9
$ANGBASE
 50
0.0
  9
$ANGDIR
 70
     0
  9
$PDMODE
 70
     0
  9
$PDSIZE
 40
0.0
  9
$PLINEWID
 40
0.0
  9
$COORDS
 70
     1
  9
$SPLFRAME
 70
     0
  9
$SPLINETYPE
 70
     6
  9
$SPLINESEGS
 70
     8
  9
$ATTDIA
 70
     0
  9
$ATTREQ
 70
     1
  9
$HANDLING
 70
     1
  9
$HANDSEED
  5
204
  9
$SURFTAB1
 70
     6
  9
$SURFTAB2
 70
     6
  9
$SURFTYPE
 70
     6
  9
$SURFU
 70
     6
  9
$SURFV
 70
     6
  9
$UCSNAME
  2

  9
$UCSORG
 10
0.0
 20
0.0
 30
0.0
  9
$UCSXDIR
 10
1.0
 20
0.0
 30
0.0
  9
$UCSYDIR
 10
0.0
 20
1.0
 30
0.0
  9
$PUCSNAME
  2

  9
$PUCSORG
 10
0.0
 20
0.0
 30
0.0
  9
$PUCSXDIR
 10
1.0
 20
0.0
 30
0.0
  9
$PUCSYDIR
 10
0.0
 20
1.0
 30
0.0
  9
$USERI1
 70
     0
  9
$USERI2
 70
     0
  9
$USERI3
 70
     0
  9
$USERI4
 70
     0
  9
$USERI5
 70
     0
  9
$USERR1
 40
0.0
  9
$USERR2
 40
0.0
  9
$USERR3
 40
0.0
  9
$USERR4
 40
0.0
  9
$USERR5
 40
0.0
  9
$WORLDVIEW
 70
     1
  9
$SHADEDGE
 70
     3
  9
$SHADEDIF
 70
    70
  9
$TILEMODE
 70
     1
  9
$MAXACTVP
 70
    64
  9
$PINSBASE
 10
0.0
 20
0.0
 30
0.0
  9
$PLIMCHECK
 70
     0
  9
$PEXTMIN
 10
1.000000000000000E+20
 20
1.000000000000000E+20
 30
1.000000000000000E+20
  9
$PEXTMAX
 10
-1.000000000000000E+20
 20
-1.000000000000000E+20
 30
-1.000000000000000E+20
  9
$PLIMMIN
 10
0.0
 20
0.0
  9
$PLIMMAX
 10
12.0
 20
9.0
  9
$UNITMODE
 70
     0
  9
$VISRETAIN
 70
     1
  9
$PLINEGEN
 70
     0
  9
$PSLTSCALE
 70
     1
  9
$TREEDEPTH
 70
  3020
  9
$PICKSTYLE
 70
     1
  9
$CMLSTYLE
  2
STANDARD
  9
$CMLJUST
 70
     0
  9
$CMLSCALE
 40
1.0
  9
$PROXYGRAPHICS
 70
     1
  9
$MEASUREMENT
 70
     1
  0
ENDSEC
  0
SECTION
  2
CLASSES
  0
CLASS
  1
ACDBDICTIONARYWDFLT
  2
AcDbDictionaryWithDefault
  3
ObjectDBX Classes
 90
        0
280
     0
281
     0
  0
CLASS
  1
VISUALSTYLE
  2
AcDbVisualStyle
  3
ObjectDBX Classes
 90
     4095
280
     0
281
     0
  0
CLASS
  1
MATERIAL
  2
AcDbMaterial
  3
ObjectDBX Classes
 90
     1153
280
     0
281
     0
  0
CLASS
  1
SCALE
  2
AcDbScale
  3
ObjectDBX Classes
 90
     1153
280
     0
281
     0
  0
CLASS
  1
SUN
  2
AcDbSun
  3
SCENEOE
 90
     1153
280
     0
281
     0
  0
CLASS
  1
DICTIONARYVAR
  2
AcDbDictionaryVar
  3
ObjectDBX Classes
 90
        0
280
     0
281
     0
  0
CLASS
  1
XRECORD
  2
AcDbXrecord
  3
ObjectDBX Classes
 90
        0
280
     0
281
     0
  0
CLASS
  1
LWPOLYLINE
  2
AcDbPolyline
  3
ObjectDBX Classes
 90
        0
280
     0
281
     1
  0
CLASS
  1
HATCH
  2
AcDbHatch
  3
ObjectDBX Classes
 90
        0
280
     0
281
     1
  0
CLASS
  1
ACDBPLACEHOLDER
  2
AcDbPlaceHolder
  3
ObjectDBX Classes
 90
        0
280
     0
281
     0
  0
CLASS
  1
LAYOUT
  2
AcDbLayout
  3
ObjectDBX Classes
 90
        0
280
     0
281
     0
  0
ENDSEC
  0
SECTION
  2
TABLES
  0
TABLE
  2
VPORT
  5
131
102
{ACAD_XDICTIONARY
360
1FA
102
}
330
0
100
AcDbSymbolTable
 70
     1
  0
VPORT
  5
151
330
131
100
AcDbSymbolTableRecord
100
AcDbViewportTableRecord
  2
*ACTIVE
 70
     0
 10
0.0
 20
0.0
 11
1.0
 21
1.0
 12
10.42990654205607
 22
4.5
 13
0.0
 23
0.0
 14
0.5
 24
0.5
 15
0.5
 25
0.5
 16
0.0
 26
0.0
 36
1.0
 17
0.0
 27
0.0
 37
0.0
 40
9.0
 41
1.972972972850329
 42
50.0
 43
0.0
 44
0.0
 50
0.0
 51
0.0
 71
     0
 72
   100
 73
     1
 74
     3
 75
     0
 76
     0
 77
     0
 78
     0
  0
ENDTAB
  0
TABLE
  2
LTYPE
  5
12E
330
0
100
AcDbSymbolTable
 70
    19
  0
LTYPE
  5
13C
330
12E
100
AcDbSymbolTableRecord
100
AcDbLinetypeTableRecord
  2
BYBLOCK
 70
     0
  3

 72
    65
 73
     0
 40
0.0
  0
LTYPE
  5
13D
330
12E
100
AcDbSymbolTableRecord
100
AcDbLinetypeTableRecord
  2
BYLAYER
 70
     0
  3

 72
    65
 73
     0
 40
0.0
  0
LTYPE
  5
13E
330
12E
100
AcDbSymbolTableRecord
100
AcDbLinetypeTableRecord
  2
CONTINUOUS
 70
     0
  3
Solid line
 72
    65
 73
     0
 40
0.0
  0
LTYPE
  5
1C0
330
12E
100
AcDbSymbolTableRecord
100
AcDbLinetypeTableRecord
  2
BORDER
 70
     0
  3

 72
    65
 73
     6
 40
42.00000000000001
 49
12.0
 74
     0
 49
-6.0
 74
     0
 49
12.0
 74
     0
 49
-5.95
 74
     0
 49
0.1
 74
     0
 49
-5.95
 74
     0
  0
LTYPE
  5
1C1
330
12E
100
AcDbSymbolTableRecord
100
AcDbLinetypeTableRecord
  2
BORDER2
 70
     0
  3

 72
    65
 73
     6
 40
21.0
 49
6.0
 74
     0
 49
-3.0
 74
     0
 49
6.0
 74
     0
 49
-2.95
 74
     0
 49
0.1
 74
     0
 49
-2.95
 74
     0
  0
LTYPE
  5
1C2
330
12E
100
AcDbSymbolTableRecord
100
AcDbLinetypeTableRecord
  2
BORDERX2
 70
     0
  3

 72
    65
 73
     6
 40
84.0
 49
24.0
 74
     0
 49
-12.0
 74
     0
 49
24.0
 74
     0
 49
-11.95
 74
     0
 49
0.1
 74
     0
 49
-11.95
 74
     0
  0
LTYPE
  5
1C3
330
12E
100
AcDbSymbolTableRecord
100
AcDbLinetypeTableRecord
  2
CENTER
 70
     0
  3

 72
    65
 73
     4
 40
50.0
 49
32.0
 74
     0
 49
-6.0
 74
     0
 49
6.0
 74
     0
 49
-6.0
 74
     0
  0
LTYPE
  5
1C4
330
12E
100
AcDbSymbolTableRecord
100
AcDbLinetypeTableRecord
  2
CENTER2
 70
     0
  3

 72
    65
 73
     4
 40
25.0
 49
16.0
 74
     0
 49
-3.0
 74
     0
 49
3.0
 74
     0
 49
-3.0
 74
     0
  0
LTYPE
  5
1C5
330
12E
100
AcDbSymbolTableRecord
100
AcDbLinetypeTableRecord
  2
CENTERX2
 70
     0
  3

 72
    65
 73
     4
 40
100.0
 49
64.0
 74
     0
 49
-12.0
 74
     0
 49
12.0
 74
     0
 49
-12.0
 74
     0
  0
LTYPE
  5
1C6
330
12E
100
AcDbSymbolTableRecord
100
AcDbLinetypeTableRecord
  2
DASHDOT
 70
     0
  3

 72
    65
 73
     4
 40
24.0
 49
12.0
 74
     0
 49
-5.95
 74
     0
 49
0.1
 74
     0
 49
-5.95
 74
     0
  0
LTYPE
  5
1C7
330
12E
100
AcDbSymbolTableRecord
100
AcDbLinetypeTableRecord
  2
DASHDOT2
 70
     0
  3

 72
    65
 73
     4
 40
12.0
 49
6.0
 74
     0
 49
-2.95
 74
     0
 49
0.1
 74
     0
 49
-2.95
 74
     0
  0
LTYPE
  5
1C8
330
12E
100
AcDbSymbolTableRecord
100
AcDbLinetypeTableRecord
  2
DASHDOTX2
 70
     0
  3

 72
    65
 73
     4
 40
48.0
 49
24.0
 74
     0
 49
-11.95
 74
     0
 49
0.1
 74
     0
 49
-11.95
 74
     0
  0
LTYPE
  5
1C9
330
12E
100
AcDbSymbolTableRecord
100
AcDbLinetypeTableRecord
  2
DASHED
 70
     0
  3

 72
    65
 73
     2
 40
18.0
 49
12.0
 74
     0
 49
-6.0
 74
     0
  0
LTYPE
  5
1CA
330
12E
100
AcDbSymbolTableRecord
100
AcDbLinetypeTableRecord
  2
DASHED2
 70
     0
  3

 72
    65
 73
     2
 40
9.0
 49
6.0
 74
     0
 49
-3.0
 74
     0
  0
LTYPE
  5
1CB
330
12E
100
AcDbSymbolTableRecord
100
AcDbLinetypeTableRecord
  2
DASHEDX2
 70
     0
  3

 72
    65
 73
     2
 40
36.0
 49
24.0
 74
     0
 49
-12.0
 74
     0
  0
LTYPE
  5
1CC
330
12E
100
AcDbSymbolTableRecord
100
AcDbLinetypeTableRecord
  2
DIVIDE
 70
     0
  3

 72
    65
 73
     6
 40
29.99999999999999
 49
12.0
 74
     0
 49
-5.9
 74
     0
 49
0.15
 74
     0
 49
-5.9
 74
     0
 49
0.15
 74
     0
 49
-5.9
 74
     0
  0
LTYPE
  5
1CD
330
12E
100
AcDbSymbolTableRecord
100
AcDbLinetypeTableRecord
  2
DIVIDE2
 70
     0
  3

 72
    65
 73
     6
 40
15.0
 49
6.0
 74
     0
 49
-2.9
 74
     0
 49
0.15
 74
     0
 49
-2.9
 74
     0
 49
0.15
 74
     0
 49
-2.9
 74
     0
  0
LTYPE
  5
1CE
330
12E
100
AcDbSymbolTableRecord
100
AcDbLinetypeTableRecord
  2
DIVIDEX2
 70
     0
  3

 72
    65
 73
     6
 40
59.99999999999999
 49
24.0
 74
     0
 49
-11.9
 74
     0
 49
0.15
 74
     0
 49
-11.9
 74
     0
 49
0.15
 74
     0
 49
-11.9
 74
     0
  0
LTYPE
  5
1CF
330
12E
100
AcDbSymbolTableRecord
100
AcDbLinetypeTableRecord
  2
DOT
 70
     0
  3

 72
    65
 73
     2
 40
6.3
 49
0.1
 74
     0
 49
-6.2
 74
     0
  0
LTYPE
  5
1D0
330
12E
100
AcDbSymbolTableRecord
100
AcDbLinetypeTableRecord
  2
DOT2
 70
     0
  3

 72
    65
 73
     2
 40
3.2
 49
0.1
 74
     0
 49
-3.1
 74
     0
  0
LTYPE
  5
1D1
330
12E
100
AcDbSymbolTableRecord
100
AcDbLinetypeTableRecord
  2
DOTX2
 70
     0
  3

 72
    65
 73
     2
 40
12.5
 49
0.1
 74
     0
 49
-12.4
 74
     0
  0
ENDTAB
  0
TABLE
  2
LAYER
  5
12B
330
0
100
AcDbSymbolTable
 70
     1
  0
LAYER
  5
139
330
12B
100
AcDbSymbolTableRecord
100
AcDbLayerTableRecord
  2
0
 70
     0
 62
     7
  6
CONTINUOUS
  0
ENDTAB
  0
TABLE
  2
STYLE
  5
12C
330
0
100
AcDbSymbolTable
 70
     1
  0
STYLE
  5
13A
330
12C
100
AcDbSymbolTableRecord
100
AcDbTextStyleTableRecord
  2
STANDARD
 70
     0
 40
0.0
 41
1.0
 50
0.0
 71
     0
 42
2.5
  3
txt
  4

  0
ENDTAB
  0
TABLE
  2
VIEW
  5
12F
330
0
100
AcDbSymbolTable
 70
     0
  0
ENDTAB
  0
TABLE
  2
UCS
  5
130
330
0
100
AcDbSymbolTable
 70
     0
  0
ENDTAB
  0
TABLE
  2
APPID
  5
132
330
0
100
AcDbSymbolTable
 70
     2
  0
APPID
  5
13B
330
132
100
AcDbSymbolTableRecord
100
AcDbRegAppTableRecord
  2
ACAD
 70
     0
  0
APPID
  5
192
330
132
100
AcDbSymbolTableRecord
100
AcDbRegAppTableRecord
  2
QCAD
 70
     0
  0
ENDTAB
  0
TABLE
  2
DIMSTYLE
  5
133
330
0
100
AcDbSymbolTable
 70
     2
  0
DIMSTYLE
105
14F
330
133
100
AcDbSymbolTableRecord
100
AcDbDimStyleTableRecord
  2
STANDARD
 70
     0
  3

  4

  5

  6

  7

 40
1.0
 41
0.18
 42
0.0625
 43
0.38
 44
0.18
 45
0.0
 46
0.0
 47
0.0
 48
0.0
140
0.18
141
0.09
142
0.0
143
25.4
144
1.0
145
0.0
146
1.0
147
0.09
 71
     0
 72
     0
 73
     1
 74
     1
 75
     0
 76
     0
 77
     0
 78
     0
170
     0
171
     2
172
     0
173
     0
174
     0
175
     0
176
     0
177
     0
178
     0
270
     2
271
     4
272
     4
273
     2
274
     2
340
13A
275
     0
280
     0
281
     0
282
     0
283
     1
284
     0
285
     0
286
     0
287
     3
288
     0
  0
DIMSTYLE
105
1BF
330
133
100
AcDbSymbolTableRecord
100
AcDbDimStyleTableRecord
  2
QCADDIMSTYLE
 70
     0
  3

  4

  5

  6

  7

 40
1.0
 41
0.18
 42
0.0625
 43
0.38
 44
0.18
 45
0.0
 46
0.0
 47
0.0
 48
0.0
140
0.18
141
0.09
142
0.0
143
25.4
144
1.0
145
0.0
146
1.0
147
0.09
 71
     0
 72
     0
 73
     0
 74
     1
 75
     0
 76
     0
 77
     1
 78
     0
170
     0
171
     2
172
     0
173
     0
174
     0
175
     0
176
     0
177
     0
178
     0
270
     2
271
     4
272
     4
273
     2
274
     2
340
13A
275
     0
280
     0
281
     0
282
     0
283
     1
284
     0
285
     0
286
     0
287
     3
288
     0
  0
ENDTAB
  0
TABLE
  2
BLOCK_RECORD
  5
12A
330
0
100
AcDbSymbolTable
 70
     1
  0
BLOCK_RECORD
  5
147
330
12A
100
AcDbSymbolTableRecord
100
AcDbBlockTableRecord
  2
*MODEL_SPACE
  0
BLOCK_RECORD
  5
143
330
12A
100
AcDbSymbolTableRecord
100
AcDbBlockTableRecord
  2
*PAPER_SPACE
  0
ENDTAB
  0
ENDSEC
  0
SECTION
  2
BLOCKS
  0
BLOCK
  5
148
330
147
100
AcDbEntity
  8
0
100
AcDbBlockBegin
  2
*MODEL_SPACE
 70
     0
 10
0.0
 20
0.0
 30
0.0
  3
*MODEL_SPACE
  1

  0
ENDBLK
  5
149
330
147
100
AcDbEntity
  8
0
100
AcDbBlockEnd
  0
BLOCK
  5
144
330
143
100
AcDbEntity
 67
     1
  8
0
100
AcDbBlockBegin
  2
*PAPER_SPACE
 70
     0
 10
0.0
 20
0.0
 30
0.0
  3
*PAPER_SPACE
  1

  0
ENDBLK
  5
145
330
143
100
AcDbEntity
 67
     1
  8
0
100
AcDbBlockEnd
  0
ENDSEC
  0
SECTION
  2
ENTITIES
  0
LWPOLYLINE
  5
102
330
147
100
AcDbEntity
  8
0
 62
     7
100
AcDbPolyline
 90
       29
 70
     0
 43
0.0
 10
8.368552000000001
 20
52.442622
 10
5.787762
 20
52.440418
 10
0.0022070000000001
 20
52.430498
 10
0.0022070000000001
 20
47.332858
 10
0.0022070000000001
 20
42.23522
 10
0.08599
 20
42.023553
 10
0.6376739999999999
 20
41.361234
 10
3.506834
 20
38.469316
 10
6.844992
 20
35.126747
 10
7.666304
 20
35.946955
 10
8.486512
 20
36.767164
 10
5.399707
 20
39.853969
 10
2.312901
 20
42.940775
 10
2.312901
 20
46.530289
 10
2.312901
 20
50.119803
 10
6.421659
 20
50.119803
 10
10.53152
 20
50.119803
 10
10.540339
 20
49.205886
 10
10.550262
 20
48.293074
 10
11.167623
 20
48.704282
 10
12.307536
 20
49.427476
 10
12.831191
 20
49.739463
 10
12.819064
 20
50.643456
 10
12.797121
 20
51.456994
 10
12.714334
 20
51.74809
 10
12.355656
 20
52.191974
 10
11.7927
 20
52.412859
 10
8.368552000000001
 20
52.442622
 10
8.368552000000001
 20
52.442622
  0
LWPOLYLINE
  5
103
330
147
100
AcDbEntity
  8
0
 62
     7
100
AcDbPolyline
 90
       36
 70
     0
 43
0.0
 10
44.239439
 20
52.441521
 10
40.666461
 20
52.415063
 10
40.125558
 20
52.206896
 10
39.752543
 20
51.77014
 10
39.654429
 20
51.583831
 10
39.633479
 20
47.15647
 10
39.57285
 20
42.535081
 10
39.315979
 20
41.592501
 10
39.239946
 20
41.357362
 10
39.276293
 20
41.280515
 10
40.492276
 20
40.243125
 10
41.013724
 20
39.740417
 10
41.20555
 20
40.141702
 10
41.615522
 20
41.187157
 10
41.861494
 20
42.304671
 10
41.919322
 20
43.244494
 10
41.929845
 20
46.442095
 10
41.929845
 20
50.119803
 10
46.039706
 20
50.119803
 10
50.149568
 20
50.119803
 10
50.149568
 20
46.530289
 10
50.149568
 20
42.941876
 10
49.385586
 20
42.176789
 10
48.6216
 20
41.412806
 10
48.746175
 20
41.241928
 10
49.743873
 20
39.629073
 10
49.878369
 20
39.386539
 10
51.084429
 20
40.599213
 10
52.133973
 20
41.67494
 10
52.375378
 20
42.041192
 10
52.460262
 20
42.270497
 10
52.460262
 20
47.350497
 10
52.460262
 20
52.430498
 10
46.674706
 20
52.440418
 10
44.239439
 20
52.441521
 10
44.239439
 20
52.441521
  0
LWPOLYLINE
  5
104
330
147
100
AcDbEntity
  8
0
 62
     7
100
AcDbPolyline
 90
       43
 70
     0
 43
0.0
 10
26.576293
 20
52.412859
 10
25.433073
 20
52.358839
 10
24.827422
 20
52.209848
 10
24.252517
 20
51.982248
 10
23.223227
 20
51.315375
 10
22.401757
 20
50.406525
 10
22.086628
 20
49.876454
 10
21.844663
 20
49.304004
 10
21.609184
 20
48.185381
 10
21.648957
 20
47.056693
 10
21.95553
 20
45.972381
 10
22.520453
 20
44.986886
 10
23.335149
 20
44.112657
 10
23.989992
 20
43.451199
 10
24.799177
 20
44.261487
 10
25.609462
 20
45.070671
 10
25.025175
 20
45.669289
 10
24.399136
 20
46.346819
 10
24.114568
 20
46.810306
 10
23.944098
 20
47.342684
 10
23.90736
 20
47.907417
 10
24.002339
 20
48.465714
 10
24.227016
 20
48.978785
 10
24.777893
 20
49.601982
 10
25.50804
 20
50.006251
 10
25.862606
 20
50.08886
 10
26.61929
 20
50.098855
 10
28.97273
 20
49.959075
 10
31.350735
 20
49.564902
 10
33.691351
 20
48.929761
 10
35.932623
 20
48.067077
 10
37.417994
 20
47.339718
 10
38.657831
 20
46.640532
 10
38.790123
 20
46.555643
 10
38.790123
 20
47.893994
 10
38.790123
 20
49.231244
 10
38.216859
 20
49.530001
 10
35.860035
 20
50.603361
 10
33.377622
 20
51.436404
 10
30.789434
 20
52.023454
 10
28.115288
 20
52.358839
 10
26.576293
 20
52.412859
 10
26.576293
 20
52.412859
  0
LWPOLYLINE
  5
105
330
147
100
AcDbEntity
  8
0
 62
     7
100
AcDbPolyline
 90
       35
 70
     0
 43
0.0
 10
22.874334
 20
52.201192
 10
20.214166
 20
51.729352
 10
18.763499
 20
51.344801
 10
17.337925
 20
50.876869
 10
15.941612
 20
50.327648
 10
14.578728
 20
49.699232
 10
13.253441
 20
48.993714
 10
11.969919
 20
48.213187
 10
10.732332
 20
47.359745
 10
9.544846
 20
46.43548
 10
7.45384
 20
44.498737
 10
5.571684
 20
42.358692
 10
4.958735
 20
41.523049
 10
5.775635
 20
40.677483
 10
6.495296
 20
39.974758
 10
6.604419
 20
39.905734
 10
6.652068
 20
39.935549
 10
6.882474
 20
40.259664
 10
7.716489000000001
 20
41.34333
 10
8.730244
 20
42.488666
 10
9.842894
 20
43.609528
 10
10.973596
 20
44.619775
 10
12.245974
 20
45.60235
 10
13.614285
 20
46.515653
 10
15.051314
 20
47.342842
 10
16.529846
 20
48.067077
 10
18.565842
 20
48.857868
 10
20.533873
 20
49.432987
 10
20.97123
 20
49.54516
 10
21.061937
 20
49.652372
 10
21.527163
 20
50.624716
 10
22.172386
 20
51.482687
 10
22.930558
 20
52.178039
 10
22.874334
 20
52.201192
 10
22.874334
 20
52.201192
  0
LWPOLYLINE
  5
106
330
147
100
AcDbEntity
  8
0
 62
     7
100
AcDbPolyline
 90
       24
 70
     0
 43
0.0
 10
28.105365
 20
49.184942
 10
28.17592
 20
49.079108
 10
28.444691
 20
48.520918
 10
28.554566
 20
47.908944
 10
28.503507
 20
47.28536
 10
28.289472
 20
46.692344
 10
27.868343
 20
46.121285
 10
25.226919
 20
43.452303
 10
22.876538
 20
41.106331
 10
22.991191
 20
41.018136
 10
23.726954
 20
40.351077
 10
24.375844
 20
39.633483
 10
24.498212
 20
39.501191
 10
27.152865
 20
42.138206
 10
29.943117
 20
44.986886
 10
30.290172
 20
45.525071
 10
30.559621
 20
46.10814
 10
30.748745
 20
46.728925
 10
30.854827
 20
47.380261
 10
30.846727
 20
48.302794
 10
30.71592
 20
48.828855
 10
28.27073
 20
49.175018
 10
28.105365
 20
49.184942
 10
28.105365
 20
49.184942
  0
LWPOLYLINE
  5
107
330
147
100
AcDbEntity
  8
0
 62
     7
100
AcDbPolyline
 90
       43
 70
     0
 43
0.0
 10
42.829429
 20
46.51816
 10
42.820609
 20
44.979167
 10
42.810689
 20
43.440174
 10
43.333238
 20
42.907702
 10
44.635727
 20
41.468069
 10
45.811598
 20
39.93223
 10
46.856345
 20
38.309486
 10
47.765463
 20
36.609139
 10
48.534447
 20
34.840487
 10
49.158791
 20
33.012833
 10
49.63399
 20
31.135477
 10
49.95554
 20
29.217719
 10
50.094802
 20
27.780762
 10
50.130828
 20
26.201469
 10
50.04649
 20
23.996384
 10
49.765923
 20
21.932858
 10
49.460657
 20
20.515051
 10
49.066214
 20
19.088265
 10
48.606837
 20
17.731368
 10
48.106767
 20
16.523228
 10
47.962345
 20
16.17045
 10
48.816731
 20
15.275278
 10
49.672217
 20
14.419792
 10
49.740565
 20
14.550983
 10
50.087831
 20
15.300636
 10
51.055782
 20
17.727681
 10
51.759118
 20
20.184404
 10
52.188783
 20
22.482329
 10
52.413747
 20
24.816539
 10
52.432939
 20
27.163566
 10
52.245288
 20
29.499941
 10
51.880493
 20
31.679301
 10
51.340328
 20
33.792835
 10
50.622879
 20
35.846272
 10
49.726234
 20
37.845341
 10
48.789242
 20
39.579964
 10
47.739655
 20
41.212164
 10
46.810155
 20
42.456421
 10
45.738342
 20
43.717503
 10
44.589559
 20
44.922879
 10
43.429151
 20
46.000018
 10
42.829429
 20
46.51816
 10
42.829429
 20
46.51816
  0
LWPOLYLINE
  5
108
330
147
100
AcDbEntity
  8
0
 62
     7
100
AcDbPolyline
 90
       20
 70
     0
 43
0.0
 10
12.80804
 20
44.967042
 10
12.314151
 20
44.593317
 10
10.861147
 20
43.404897
 10
10.538135
 20
43.117164
 10
10.535931
 20
42.940775
 10
10.74429
 20
41.549508
 10
11.110894
 20
40.469367
 10
11.615208
 20
39.480243
 10
12.321598
 20
38.532725
 10
13.987639
 20
36.810157
 10
15.663333
 20
35.124542
 10
16.484645
 20
35.945853
 10
17.304853
 20
36.76606
 10
15.671052
 20
38.406476
 10
13.877397
 20
40.259664
 10
13.253421
 20
41.325544
 10
12.892927
 20
42.535081
 10
12.830087
 20
43.865712
 10
12.80804
 20
44.967042
 10
12.80804
 20
44.967042
  0
LWPOLYLINE
  5
109
330
147
100
AcDbEntity
  8
0
 62
     7
100
AcDbPolyline
 90
       10
 70
     0
 43
0.0
 10
28.452631
 20
42.233015
 10
27.641242
 20
41.422726
 10
26.830956
 20
40.612442
 10
29.573804
 20
37.869594
 10
32.316651
 20
35.126747
 10
33.11922
 20
35.929316
 10
33.91297
 20
36.758344
 10
28.955339
 20
41.733612
 10
28.452631
 20
42.233015
 10
28.452631
 20
42.233015
  0
LWPOLYLINE
  5
10A
330
147
100
AcDbEntity
  8
0
 62
     7
100
AcDbPolyline
 90
       39
 70
     0
 43
0.0
 10
17.893552
 20
41.900081
 10
17.0732
 20
41.857431
 10
16.284724
 20
41.727885
 10
15.514077
 20
41.508323
 10
14.747214
 20
41.195626
 10
14.372389
 20
41.020341
 10
14.539959
 20
40.798751
 10
15.365679
 20
39.912396
 10
16.022726
 20
39.246528
 10
16.36448
 20
39.355671
 10
17.228756
 20
39.551056
 10
18.107914
 20
39.593135
 10
18.981314
 20
39.482581
 10
19.828318
 20
39.22007
 10
20.714303
 20
38.753685
 10
21.506216
 20
38.091181
 10
22.142911
 20
37.320655
 10
22.605653
 20
36.45974
 10
22.888266
 20
35.523505
 10
22.984575
 20
34.527024
 10
22.90015
 20
33.585996
 10
22.680306
 20
32.773057
 10
22.627389
 20
32.646278
 10
23.48508
 20
31.787484
 10
24.36482
 20
30.928691
 10
24.56546
 20
31.307927
 10
24.971219
 20
32.350236
 10
25.226919
 20
33.468691
 10
25.28801
 20
34.512774
 10
25.226919
 20
35.567719
 10
24.953943
 20
36.746528
 10
24.515383
 20
37.833539
 10
23.911418
 20
38.828334
 10
23.142225
 20
39.730497
 10
22.011059
 20
40.666516
 10
20.744711
 20
41.346118
 10
19.364952
 20
41.760306
 10
17.893552
 20
41.900081
 10
17.893552
 20
41.900081
  0
LWPOLYLINE
  5
10B
330
147
100
AcDbEntity
  8
0
 62
     7
100
AcDbPolyline
 90
       28
 70
     0
 43
0.0
 10
34.568917
 20
41.900081
 10
33.696476
 20
41.852611
 10
32.85497
 20
41.71022
 10
32.048024
 20
41.473693
 10
31.279264
 20
41.143813
 10
30.947433
 20
40.976244
 10
31.811738
 20
40.111938
 10
32.677145
 20
39.246528
 10
32.93842
 20
39.335827
 10
33.68805
 20
39.526583
 10
34.521512
 20
39.583872
 10
35.233188
 20
39.544833
 10
35.890235
 20
39.419811
 10
36.519969
 20
39.201532
 10
37.149706
 20
38.882726
 10
37.904632
 20
38.308159
 10
39.495679
 20
36.762754
 10
41.136095
 20
35.127849
 10
41.956304
 20
35.948057
 10
42.776512
 20
36.767164
 10
41.427137
 20
38.119844
 10
39.467569
 20
40.027461
 10
38.398757
 20
40.826313
 10
37.498708
 20
41.295161
 10
36.559573
 20
41.630718
 10
35.58257
 20
41.832515
 10
34.568917
 20
41.900081
 10
34.568917
 20
41.900081
  0
LWPOLYLINE
  5
10C
330
147
100
AcDbEntity
  8
0
 62
     7
100
AcDbPolyline
 90
       11
 70
     0
 43
0.0
 10
45.728822
 20
38.520028
 10
42.647531
 20
35.438735
 10
39.566234
 20
32.357441
 10
40.386443
 20
31.537233
 10
41.206651
 20
30.717024
 10
44.058642
 20
33.569012
 10
46.910627
 20
36.421
 10
46.779439
 20
36.682275
 10
45.942693
 20
38.172761
 10
45.728822
 20
38.520028
 10
45.728822
 20
38.520028
  0
LWPOLYLINE
  5
10D
330
147
100
AcDbEntity
  8
0
 62
     7
100
AcDbPolyline
 90
       22
 70
     0
 43
0.0
 10
11.313143
 20
38.389941
 10
8.398318
 20
35.479524
 10
5.271823
 20
32.308934
 10
4.807529000000001
 20
31.509111
 10
4.665486
 20
30.611191
 10
4.735431
 20
29.961473
 10
4.964246
 20
29.366547
 10
5.258521
 20
28.951009
 10
6.224323
 20
27.956538
 10
7.355416
 20
26.836469
 10
8.176728
 20
27.637936
 10
8.979298
 20
28.440505
 10
7.974985
 20
29.449229
 10
6.969568000000001
 20
30.457953
 10
6.969568000000001
 20
30.613396
 10
6.969568000000001
 20
30.768839
 10
9.932901000000001
 20
33.733274
 10
12.896235
 20
36.697709
 10
12.575427
 20
37.014108
 10
11.44323
 20
38.232292
 10
11.313143
 20
38.389941
 10
11.313143
 20
38.389941
  0
LWPOLYLINE
  5
10E
330
147
100
AcDbEntity
  8
0
 62
     7
100
AcDbPolyline
 90
       14
 70
     0
 43
0.0
 10
36.604002
 20
38.213553
 10
33.727762
 20
35.337311
 10
30.85152
 20
32.462172
 10
31.034524
 20
32.17995
 10
31.574731
 20
31.544956
 10
32.209714
 20
31.004759
 10
32.491936
 20
30.821755
 10
35.431015
 20
33.75863
 10
38.370097
 20
36.696608
 10
37.848647
 20
37.208136
 10
37.204208
 20
37.805024
 10
36.752831
 20
38.128664
 10
36.604002
 20
38.213553
 10
36.604002
 20
38.213553
  0
LWPOLYLINE
  5
10F
330
147
100
AcDbEntity
  8
0
 62
     7
100
AcDbPolyline
 90
       12
 70
     0
 43
0.0
 10
19.99258
 20
38.195914
 10
14.139776
 20
32.347519
 10
14.722191
 20
31.737577
 10
15.542068
 20
31.025705
 10
15.841929
 20
30.825063
 10
18.72368
 20
33.705714
 10
21.604334
 20
36.585261
 10
21.478655
 20
36.781493
 10
20.93539
 20
37.470174
 10
20.275903
 20
38.02283
 10
19.99258
 20
38.195914
 10
19.99258
 20
38.195914
  0
LWPOLYLINE
  5
110
330
147
100
AcDbEntity
  8
0
 62
     7
100
AcDbPolyline
 90
       40
 70
     0
 43
0.0
 10
28.092137
 20
38.102205
 10
27.610375
 20
37.058205
 10
27.250982
 20
35.655913
 10
27.174374
 20
34.551361
 10
27.235547
 20
33.468691
 10
27.514079
 20
32.278512
 10
27.953149
 20
31.1943
 10
28.5579
 20
30.206037
 10
29.333475
 20
29.303708
 10
29.984352
 20
28.722507
 10
30.684506
 20
28.228813
 10
31.428173
 20
27.824537
 10
32.20959
 20
27.51159
 10
33.022993
 20
27.291882
 10
33.862619
 20
27.167324
 10
34.722704
 20
27.139824
 10
35.597484
 20
27.211295
 10
37.052693
 20
27.573995
 10
38.131972
 20
28.061269
 10
37.296327
 20
28.947623
 10
36.441947
 20
29.800905
 10
36.231384
 20
29.729247
 10
35.406608
 20
29.516792
 10
34.55679
 20
29.448127
 10
33.708507
 20
29.517348
 10
32.902178
 20
29.720544
 10
32.150189
 20
30.048225
 10
31.464926
 20
30.490901
 10
30.858774
 20
31.039081
 10
30.34412
 20
31.683276
 10
29.933349
 20
32.413994
 10
29.638847
 20
33.221747
 10
29.505458
 20
33.951996
 10
29.483299
 20
34.729832
 10
29.570058
 20
35.502727
 10
29.76342
 20
36.218153
 10
29.833976
 20
36.409976
 10
28.97849
 20
37.265462
 10
28.092137
 20
38.102205
 10
28.092137
 20
38.102205
  0
LWPOLYLINE
  5
111
330
147
100
AcDbEntity
  8
0
 62
     7
100
AcDbPolyline
 90
       42
 70
     0
 43
0.0
 10
2.785844
 20
37.986452
 10
2.720800000000001
 20
37.853056
 10
1.704346
 20
35.499637
 10
0.927211
 20
33.096298
 10
0.3848619999999998
 20
30.625871
 10
0.0727620000000002
 20
28.071191
 10
0.0180469999999999
 20
26.201468
 10
0.0727620000000002
 20
24.331747
 10
0.3883129999999999
 20
21.74305
 10
0.9341649999999999
 20
19.262934
 10
1.715183
 20
16.873686
 10
2.736235000000001
 20
14.557598
 10
3.673227000000001
 20
12.822975
 10
4.722814000000001
 20
11.190775
 10
5.652312
 20
9.946518000000001
 10
6.724124
 20
8.685436
 10
7.872907
 20
7.480059
 10
9.033318
 20
6.402917
 10
9.63304
 20
5.884777
 10
9.64186
 20
7.423770999999999
 10
9.65178
 20
8.962762999999999
 10
9.129228
 20
9.495237
 10
7.826739
 20
10.93487
 10
6.650869
 20
12.470708
 10
5.606123
 20
14.093452
 10
4.697006
 20
15.793799
 10
3.928023
 20
17.56245
 10
3.303679
 20
19.390105
 10
2.828479000000001
 20
21.267461
 10
2.506929
 20
23.185219
 10
2.367668
 20
24.622174
 10
2.331641
 20
26.201469
 10
2.415976000000001
 20
28.406552
 10
2.696546000000001
 20
30.47008
 10
3.001809000000001
 20
31.887887
 10
3.396252
 20
33.314674
 10
3.855631
 20
34.67157
 10
4.355705
 20
35.879707
 10
4.500123
 20
36.232485
 10
3.643534
 20
37.129862
 10
2.785844
 20
37.986452
 10
2.785844
 20
37.986452
  0
LWPOLYLINE
  5
112
330
147
100
AcDbEntity
  8
0
 62
     7
100
AcDbPolyline
 90
       22
 70
     0
 43
0.0
 10
45.617474
 20
33.928405
 10
44.797265
 20
33.108196
 10
43.97705699999999
 20
32.287988
 10
44.734429
 20
31.527311
 10
45.492901
 20
30.766634
 10
45.492901
 20
30.610089
 10
45.492901
 20
30.454646
 10
42.50310899999999
 20
27.460444
 10
39.513318
 20
24.467346
 10
39.63679
 20
24.37364
 10
40.835134
 20
23.259082
 10
41.189012
 20
22.920636
 10
44.214081
 20
25.928066
 10
47.31191099999999
 20
29.058969
 10
47.670358
 20
29.770388
 10
47.79698
 20
30.611191
 10
47.737152
 20
31.233963
 10
47.524684
 20
31.805123
 10
47.185453
 20
32.31175
 10
46.361618
 20
33.177649
 10
45.617474
 20
33.928405
 10
45.617474
 20
33.928405
  0
LWPOLYLINE
  5
113
330
147
100
AcDbEntity
  8
0
 62
     7
100
AcDbPolyline
 90
       10
 70
     0
 43
0.0
 10
20.145818
 20
33.927302
 10
19.32561
 20
33.107094
 10
18.505401
 20
32.286886
 10
21.248248
 20
29.544038
 10
23.991096
 20
26.801191
 10
24.811304
 20
27.621399
 10
25.631512
 20
28.441608
 10
22.888665
 20
31.184455
 10
20.145818
 20
33.927302
 10
20.145818
 20
33.927302
  0
LWPOLYLINE
  5
114
330
147
100
AcDbEntity
  8
0
 62
     7
100
AcDbPolyline
 90
       26
 70
     0
 43
0.0
 10
11.32527
 20
33.9262
 10
10.503958
 20
33.104889
 10
9.68375
 20
32.284681
 10
11.387006
 20
30.590245
 10
13.157898
 20
28.879552
 10
14.136469
 20
28.172614
 10
14.920969
 20
27.770057
 10
15.759559
 20
27.458732
 10
16.627482
 20
27.24638
 10
17.499985
 20
27.140739
 10
18.964012
 20
27.211295
 10
20.445679
 20
27.578405
 10
21.504012
 20
28.067884
 10
20.645219
 20
28.947623
 10
19.786425
 20
29.805314
 10
19.659645
 20
29.752398
 10
18.846708
 20
29.532552
 10
17.905679
 20
29.448127
 10
17.147154
 20
29.501807
 10
16.4266
 20
29.664021
 10
15.730659
 20
29.939049
 10
15.045972
 20
30.331174
 10
14.46264
 20
30.821448
 10
13.018603
 20
32.239481
 10
11.32527
 20
33.9262
 10
11.32527
 20
33.9262
  0
LWPOLYLINE
  5
115
330
147
100
AcDbEntity
  8
0
 62
     7
100
AcDbPolyline
 90
       10
 70
     0
 43
0.0
 10
36.778189
 20
33.908561
 10
35.967901
 20
33.098274
 10
35.156512
 20
32.286886
 10
37.899359
 20
29.544038
 10
40.642206
 20
26.801191
 10
41.444776
 20
27.60376
 10
42.238526
 20
28.432788
 10
37.528943
 20
33.161113
 10
36.778189
 20
33.908561
 10
36.778189
 20
33.908561
  0
LWPOLYLINE
  5
116
330
147
100
AcDbEntity
  8
0
 62
     7
100
AcDbPolyline
 90
       14
 70
     0
 43
0.0
 10
27.963153
 20
29.552858
 10
25.402207
 20
27.011755
 10
22.862207
 20
24.46955
 10
22.96804
 20
24.39238
 10
23.724866
 20
23.708856
 10
24.386867
 20
22.979064
 10
24.499316
 20
22.85008
 10
27.060262
 20
25.391181
 10
29.600262
 20
27.933387
 10
29.494429
 20
28.010557
 10
28.737601
 20
28.694081
 10
28.075599
 20
29.423873
 10
27.963153
 20
29.552858
 10
27.963153
 20
29.552858
  0
LWPOLYLINE
  5
117
330
147
100
AcDbEntity
  8
0
 62
     7
100
AcDbPolyline
 90
       22
 70
     0
 43
0.0
 10
11.270149
 20
29.493326
 10
10.769645
 20
28.99613
 10
5.150555000000001
 20
23.343969
 10
4.792139000000001
 20
22.632791
 10
4.665486
 20
21.791747
 10
4.725317
 20
21.168974
 10
4.937788
 20
20.597814
 10
5.277018
 20
20.091188
 10
6.100851
 20
19.225289
 10
6.844992
 20
18.474535
 10
7.6652
 20
19.294741
 10
8.485409
 20
20.114949
 10
7.72804
 20
20.875625
 10
6.969568000000001
 20
21.636305
 10
6.969568000000001
 20
21.792848
 10
6.969568000000001
 20
21.948293
 10
9.95054
 20
24.931469
 10
12.931512
 20
27.935592
 10
12.739689
 20
28.102059
 10
11.908457
 20
28.870453
 10
11.270149
 20
29.493326
 10
11.270149
 20
29.493326
  0
LWPOLYLINE
  5
118
330
147
100
AcDbEntity
  8
0
 62
     7
100
AcDbPolyline
 90
        9
 70
     0
 43
0.0
 10
11.820262
 20
25.601747
 10
11.009974
 20
24.791459
 10
10.226147
 20
23.953612
 10
15.683179
 20
18.510914
 10
16.503387
 20
19.313483
 10
17.305957
 20
20.116053
 10
14.56311
 20
22.8589
 10
11.820262
 20
25.601747
 10
11.820262
 20
25.601747
  0
LWPOLYLINE
  5
119
330
147
100
AcDbEntity
  8
0
 62
     7
100
AcDbPolyline
 90
       10
 70
     0
 43
0.0
 10
28.471373
 20
25.601747
 10
27.651165
 20
24.781539
 10
26.830956
 20
23.96133
 10
29.573804
 20
21.218483
 10
32.316651
 20
18.475636
 10
33.136859
 20
19.295844
 10
33.957068
 20
20.116053
 10
31.21422
 20
22.8589
 10
28.471373
 20
25.601747
 10
28.471373
 20
25.601747
  0
LWPOLYLINE
  5
11A
330
147
100
AcDbEntity
  8
0
 62
     7
100
AcDbPolyline
 90
       22
 70
     0
 43
0.0
 10
45.107049
 20
25.584108
 10
44.294557
 20
24.77382
 10
43.483168
 20
23.962431
 10
44.48748399999999
 20
22.95371
 10
45.492901
 20
21.944985
 10
45.492901
 20
21.789543
 10
45.492901
 20
21.634098
 10
42.531772
 20
18.669664
 10
39.570643
 20
15.70633
 10
40.143906
 20
15.122043
 10
40.922225
 20
14.284196
 10
41.149323
 20
14.030636
 10
44.173295
 20
17.038066
 10
47.299786
 20
20.221886
 10
47.679882
 20
20.967551
 10
47.79698
 20
21.791747
 10
47.727023
 20
22.441401
 10
47.498225
 20
23.036389
 10
47.202872
 20
23.45286
 10
46.228225
 20
24.455219
 10
45.107049
 20
25.584108
 10
45.107049
 20
25.584108
  0
LWPOLYLINE
  5
11B
330
147
100
AcDbEntity
  8
0
 62
     7
100
AcDbPolyline
 90
       38
 70
     0
 43
0.0
 10
17.940957
 20
25.257789
 10
16.638115
 20
25.160041
 10
15.409776
 20
24.828944
 10
14.330496
 20
24.341667
 10
15.166139
 20
23.455314
 10
16.020522
 20
22.602032
 10
16.231085
 20
22.673691
 10
17.055861
 20
22.886147
 10
17.905679
 20
22.95481
 10
18.753961
 20
22.885589
 10
19.560289
 20
22.682393
 10
20.312278
 20
22.354712
 10
20.997541
 20
21.912036
 10
21.603693
 20
21.363856
 10
22.118347
 20
20.719662
 10
22.529119
 20
19.988943
 10
22.823621
 20
19.181191
 10
22.95701
 20
18.450944
 10
22.979168
 20
17.673108
 10
22.892408
 20
16.900212
 10
22.699046
 20
16.184784
 10
22.62849
 20
15.992961
 10
23.483976
 20
15.137475
 10
24.370332
 20
14.300728
 10
24.573179
 20
14.686582
 10
24.967466
 20
15.691747
 10
25.211487
 20
16.747025
 10
25.288095
 20
17.851577
 10
25.226919
 20
18.934247
 10
24.948387
 20
20.124425
 10
24.509318
 20
21.208637
 10
23.904568
 20
22.1969
 10
23.128994
 20
23.099229
 10
22.002756
 20
24.031632
 10
20.752456
 20
24.706415
 10
19.393415
 20
25.117245
 10
17.940957
 20
25.257789
 10
17.940957
 20
25.257789
  0
LWPOLYLINE
  5
11C
330
147
100
AcDbEntity
  8
0
 62
     7
100
AcDbPolyline
 90
       27
 70
     0
 43
0.0
 10
34.521512
 20
25.257789
 10
33.684489
 20
25.213877
 10
32.890577
 20
25.082423
 10
32.116178
 20
24.858129
 10
31.337693
 20
24.535695
 10
30.958456
 20
24.335055
 10
31.81725
 20
23.455314
 10
32.676044
 20
22.597624
 10
32.802821
 20
22.650541
 10
33.612669
 20
22.870101
 10
34.54797
 20
22.955914
 10
35.377023
 20
22.88994
 10
36.170904
 20
22.692707
 10
36.924469
 20
22.366076
 10
37.632572
 20
21.911912
 10
39.530956
 20
20.082979
 10
41.136095
 20
18.475636
 10
41.957404
 20
19.295844
 10
42.778716
 20
20.116053
 10
41.07546
 20
21.81159
 10
39.304682
 20
23.523373
 10
38.326
 20
24.230322
 10
37.434453
 20
24.684867
 10
36.50901
 20
25.006161
 10
35.54094
 20
25.196402
 10
34.521512
 20
25.257789
 10
34.521512
 20
25.257789
  0
LWPOLYLINE
  5
11D
330
147
100
AcDbEntity
  8
0
 62
     7
100
AcDbPolyline
 90
       11
 70
     0
 43
0.0
 10
11.255818
 20
21.685914
 10
8.403830000000001
 20
18.833923
 10
5.551841
 20
15.981937
 10
5.68303
 20
15.720659
 10
6.519776
 20
14.230173
 10
6.733646999999999
 20
13.882909
 10
9.814941000000001
 20
16.9642
 10
12.896235
 20
20.045497
 10
12.076026
 20
20.865705
 10
11.255818
 20
21.685914
 10
11.255818
 20
21.685914
  0
LWPOLYLINE
  5
11E
330
147
100
AcDbEntity
  8
0
 62
     7
100
AcDbPolyline
 90
       13
 70
     0
 43
0.0
 10
19.97053
 20
21.581181
 10
17.033655
 20
18.644306
 10
14.09678
 20
15.707431
 10
14.40436
 20
15.394339
 10
15.297407
 20
14.571862
 10
15.841929
 20
14.207025
 10
18.744627
 20
17.074445
 10
21.610946
 20
19.940764
 10
21.427945
 20
20.222987
 10
20.887739
 20
20.857974
 10
20.252752
 20
21.39818
 10
19.97053
 20
21.581181
 10
19.97053
 20
21.581181
  0
LWPOLYLINE
  5
11F
330
147
100
AcDbEntity
  8
0
 62
     7
100
AcDbPolyline
 90
       13
 70
     0
 43
0.0
 10
36.62054
 20
21.577876
 10
33.738786
 20
18.697223
 10
30.858135
 20
15.817673
 10
30.983811
 20
15.621444
 10
31.527078
 20
14.932764
 10
32.186563
 20
14.380103
 10
32.469889
 20
14.207025
 10
35.403456
 20
17.116341
 10
38.322693
 20
20.055417
 10
37.740277
 20
20.665361
 10
36.920401
 20
21.377233
 10
36.62054
 20
21.577876
 10
36.62054
 20
21.577876
  0
LWPOLYLINE
  5
120
330
147
100
AcDbEntity
  8
0
 62
     7
100
AcDbPolyline
 90
       41
 70
     0
 43
0.0
 10
28.097649
 20
21.474247
 10
27.897006
 20
21.095011
 10
27.573051
 20
20.312855
 10
27.348996
 20
19.536538
 10
27.218698
 20
18.739093
 10
27.176015
 20
17.893553
 10
27.212667
 20
17.069659
 10
27.329689
 20
16.304877
 10
27.534963
 20
15.562732
 10
27.836373
 20
14.806747
 10
28.573611
 20
13.547184
 10
29.547234
 20
12.454031
 10
30.71053
 20
11.570403
 10
32.01679
 20
10.939419
 10
32.887003
 20
10.68806
 10
33.796076
 20
10.5407
 10
34.710955
 20
10.500647
 10
35.598585
 20
10.57121
 10
36.680764
 20
10.807958
 10
37.715252
 20
11.207313
 10
38.090077
 20
11.382598
 10
37.922507
 20
11.604188
 10
37.09679
 20
12.490541
 10
36.43974
 20
13.15641
 10
36.097988
 20
13.047266
 10
35.233713
 20
12.851881
 10
34.354556
 20
12.809801
 10
33.481156
 20
12.920354
 10
32.634151
 20
13.182869
 10
31.748166
 20
13.649252
 10
30.956252
 20
14.311757
 10
30.319558
 20
15.082282
 10
29.856815
 20
15.943198
 10
29.5742
 20
16.879433
 10
29.47789
 20
17.875914
 10
29.562317
 20
18.816943
 10
29.782163
 20
19.62988
 10
29.835079
 20
19.756659
 10
28.977389
 20
20.615453
 10
28.097649
 20
21.474247
 10
28.097649
 20
21.474247
  0
LWPOLYLINE
  5
121
330
147
100
AcDbEntity
  8
0
 62
     7
100
AcDbPolyline
 90
       21
 70
     0
 43
0.0
 10
36.799133
 20
17.278396
 10
35.977821
 20
16.457084
 10
35.157613
 20
15.636875
 10
36.791417
 20
13.996459
 10
38.585072
 20
12.143275
 10
39.014383
 20
11.477183
 10
39.338029
 20
10.749803
 10
39.574247
 20
9.775431999999999
 10
39.635689
 20
8.372961
 10
39.680887
 20
7.459048999999999
 10
40.148318
 20
7.810723
 10
41.601322
 20
8.998041
 10
41.924334
 20
9.285775000000001
 10
41.926535
 20
9.462164000000001
 10
41.718179
 20
10.853432
 10
41.351571
 20
11.93357
 10
40.847258
 20
12.922694
 10
40.140869
 20
13.870214
 10
38.474827
 20
15.592778
 10
36.799133
 20
17.278396
 10
36.799133
 20
17.278396
  0
LWPOLYLINE
  5
122
330
147
100
AcDbEntity
  8
0
 62
     7
100
AcDbPolyline
 90
        9
 70
     0
 43
0.0
 10
20.145818
 20
17.276191
 10
19.33553
 20
16.465903
 10
18.54178
 20
15.637979
 10
24.007631
 20
10.185358
 10
24.828943
 20
10.987928
 10
25.631512
 20
11.790497
 10
22.888665
 20
14.533344
 10
20.145818
 20
17.276191
 10
20.145818
 20
17.276191
  0
LWPOLYLINE
  5
123
330
147
100
AcDbEntity
  8
0
 62
     7
100
AcDbPolyline
 90
       30
 70
     0
 43
0.0
 10
45.617474
 20
17.276191
 10
44.796165
 20
16.455983
 10
43.975956
 20
15.635775
 10
47.062762
 20
12.548969
 10
50.149568
 20
9.462164000000001
 10
50.149568
 20
5.87265
 10
50.149568
 20
2.283136
 10
46.040807
 20
2.283136
 10
41.930946
 20
2.283136
 10
41.922127
 20
3.197048
 10
41.912206
 20
4.109862
 10
41.294845
 20
3.698655
 10
40.154933
 20
2.975461
 10
39.631278
 20
2.663473
 10
39.643405
 20
1.759478
 10
39.665347
 20
0.9459420000000001
 10
39.748132
 20
0.654846
 10
39.980394
 20
0.3245779999999998
 10
40.27179
 20
0.1025290000000001
 10
40.548734
 20
0.0203060000000002
 10
41.295338
 20
-0.021061
 10
46.62179
 20
-0.0330699999999999
 10
52.460262
 20
-0.0275590000000001
 10
52.460262
 20
5.07008
 10
52.460262
 20
10.167719
 10
52.376479
 20
10.379386
 10
51.824796
 20
11.041703
 10
48.955635
 20
13.933622
 10
45.617474
 20
17.276191
 10
45.617474
 20
17.276191
  0
LWPOLYLINE
  5
124
330
147
100
AcDbEntity
  8
0
 62
     7
100
AcDbPolyline
 90
       26
 70
     0
 43
0.0
 10
11.324166
 20
17.275091
 10
10.505062
 20
16.454882
 10
9.684853
 20
15.634674
 10
11.264637
 20
14.062603
 10
13.101548
 20
12.280376
 10
14.061502
 20
11.57773
 10
15.393108
 20
10.937224
 10
16.829707
 20
10.573414
 10
17.850383
 20
10.506377
 10
18.88133
 20
10.559082
 10
20.074763
 20
10.820294
 10
21.183205
 20
11.259126
 10
21.515036
 20
11.426696
 10
20.65073
 20
12.291001
 10
19.785321
 20
13.15641
 10
19.524046
 20
13.067112
 10
18.774419
 20
12.876356
 10
17.940957
 20
12.819062
 10
17.22928
 20
12.858101
 10
16.572233
 20
12.983125
 10
15.942499
 20
13.201404
 10
15.312762
 20
13.520209
 10
14.557538
 20
14.095428
 10
12.965687
 20
15.641284
 10
11.324166
 20
17.275091
 10
11.324166
 20
17.275091
  0
LWPOLYLINE
  5
125
330
147
100
AcDbEntity
  8
0
 62
     7
100
AcDbPolyline
 90
       35
 70
     0
 43
0.0
 10
2.584097
 20
13.0164
 10
1.379141
 20
11.803725
 10
0.351307
 20
10.7496
 10
0.0881939999999999
 20
10.379386
 10
0.0022070000000001
 20
10.167719
 10
-0.0077160000000001
 20
5.106459
 10
0.0
 20
0.0
 10
5.813117
 20
-0.0451969999999999
 10
11.815851
 20
-0.0110199999999998
 10
12.342972
 20
0.1999719999999998
 10
12.709923
 20
0.6327989999999999
 10
12.80804
 20
0.819108
 10
12.828987
 20
5.246469
 10
12.889619
 20
9.867857999999998
 10
13.146487
 20
10.810438
 10
13.222522
 20
11.045576
 10
13.186173
 20
11.122423
 10
11.970193
 20
12.159813
 10
11.448742
 20
12.662521
 10
11.256919
 20
12.261235
 10
10.846946
 20
11.21578
 10
10.600972
 20
10.098264
 10
10.543145
 20
9.158442
 10
10.532623
 20
5.960844
 10
10.532623
 20
2.283136
 10
6.422762000000001
 20
2.283136
 10
2.312901
 20
2.283136
 10
2.312901
 20
5.87265
 10
2.312901
 20
9.461063
 10
3.076885
 20
10.226145
 10
3.840869000000001
 20
10.990132
 10
3.716294
 20
11.161006
 10
2.718596000000001
 20
12.773864
 10
2.584097
 20
13.0164
 10
2.584097
 20
13.0164
  0
LWPOLYLINE
  5
126
330
147
100
AcDbEntity
  8
0
 62
     7
100
AcDbPolyline
 90
       25
 70
     0
 43
0.0
 10
27.964254
 20
12.919386
 10
25.384568
 20
10.344108
 10
22.582189
 20
7.486607999999999
 10
22.205594
 20
6.930976
 10
21.917827
 20
6.335757
 10
21.718603
 20
5.69998
 10
21.607639
 20
5.022673
 10
21.592207
 20
4.382164
 10
21.696937
 20
3.588414
 10
22.161059
 20
3.503527
 10
23.179707
 20
3.345878
 10
23.832346
 20
3.258784
 10
24.326235
 20
3.248864
 10
24.208274
 20
3.457223
 10
23.998109
 20
3.93741
 10
23.911721
 20
4.492405
 10
23.992837
 20
5.268507
 10
24.330643
 20
5.979584
 10
27.015061
 20
8.724637999999999
 10
29.587031
 20
11.303223
 10
29.452536
 20
11.403542
 10
28.735231
 20
12.051426
 10
28.059063
 20
12.797014
 10
27.964254
 20
12.919386
 10
27.964254
 20
12.919386
  0
LWPOLYLINE
  5
127
330
147
100
AcDbEntity
  8
0
 62
     7
100
AcDbPolyline
 90
       32
 70
     0
 43
0.0
 10
45.863318
 20
12.546765
 10
45.635113
 20
12.221549
 10
44.638943
 20
10.933168
 10
43.459759
 20
9.626370999999999
 10
42.177352
 20
8.383818000000002
 10
40.871512
 20
7.288169000000001
 10
38.966693
 20
5.960172
 10
36.952871
 20
4.823432
 10
34.852259
 20
3.889116
 10
32.687068
 20
3.168388
 10
31.928595
 20
2.969952
 10
31.48496
 20
2.853995
 10
31.387302
 20
2.713085
 10
30.794195
 20
1.552223
 10
30.198771
 20
0.8223400000000001
 10
29.531911
 20
0.2248950000000001
 10
29.899218
 20
0.2341190000000002
 10
30.993734
 20
0.4101029999999999
 10
32.616711
 20
0.7617370000000001
 10
34.213397
 20
1.216795
 10
35.77801
 20
1.772569
 10
37.304768
 20
2.426353
 10
38.78789
 20
3.175441
 10
40.221594
 20
4.017125
 10
41.600099
 20
4.948699
 10
42.917623
 20
5.967457
 10
45.008628
 20
7.904201
 10
46.890784
 20
10.044247
 10
47.503734
 20
10.880994
 10
46.683526
 20
11.72766
 10
45.863318
 20
12.546765
 10
45.863318
 20
12.546765
  0
LWPOLYLINE
  5
128
330
147
100
AcDbEntity
  8
0
 62
     7
100
AcDbPolyline
 90
       42
 70
     0
 43
0.0
 10
28.47027
 20
8.950636
 10
27.662188
 20
8.141451
 10
26.853004
 20
7.332266
 10
27.437294
 20
6.733645
 10
28.127415
 20
5.981791
 10
28.477152
 20
5.228567
 10
28.554181
 20
4.436962
 10
28.363533
 20
3.674733
 10
27.910236
 20
3.009638
 10
27.467883
 20
2.644372
 10
26.954429
 20
2.404404
 10
26.231258
 20
2.292463
 10
24.996512
 20
2.31621
 10
22.494137
 20
2.579138
 10
20.091597
 20
3.08176
 10
17.764674
 20
3.830542
 10
15.489151
 20
4.831955
 10
13.804637
 20
5.762405
 10
13.672346
 20
5.847292
 10
13.672346
 20
4.508944
 10
13.672346
 20
3.171696
 10
14.24561
 20
2.872938
 10
16.855925
 20
1.701846
 10
19.613981
 20
0.8223660000000002
 10
22.468181
 20
0.248008
 10
25.366929
 20
-0.0077159999999998
 10
26.363709
 20
-0.0178259999999999
 10
27.024984
 20
0.0474049999999999
 10
27.958474
 20
0.3131080000000002
 10
28.824151
 20
0.7672919999999999
 10
29.454307
 20
1.279073
 10
29.975057
 20
1.875264
 10
30.381673
 20
2.540436
 10
30.669429
 20
3.259161
 10
30.833599
 20
4.01601
 10
30.869456
 20
4.795557
 10
30.772274
 20
5.582372
 10
30.537327
 20
6.361026999999999
 10
30.021706
 20
7.294044
 10
29.06448
 20
8.359732999999999
 10
28.47027
 20
8.950636
 10
28.47027
 20
8.950636
  0
ENDSEC
  0
SECTION
  2
OBJECTS
  0
DICTIONARY
  5
135
330
0
100
AcDbDictionary
  3
ACAD_GROUP
350
136
  3
ACAD_LAYOUT
350
142
  3
ACAD_MATERIAL
350
16B
  3
ACAD_MLEADERSTYLE
350
1F5
  3
ACAD_MLINESTYLE
350
13F
  3
ACAD_PLOTSETTINGS
350
141
  3
ACAD_SCALELIST
350
16F
  3
ACAD_VISUALSTYLE
350
152
  3
ACDBHEADERROUNDTRIPXREC
350
1D2
  3
ACDBVARIABLEDICTIONARY
350
1F3
  3
QCAD_OBJECTS
350
193
  0
DICTIONARY
  5
1FA
330
131
100
AcDbDictionary
280
     1
  3
ACAD_XREC_ROUNDTRIP
360
1FB
  0
DICTIONARY
  5
136
102
{ACAD_REACTORS
330
135
102
}
330
135
100
AcDbDictionary
  0
DICTIONARY
  5
142
102
{ACAD_REACTORS
330
135
102
}
330
135
100
AcDbDictionary
  0
DICTIONARY
  5
16B
102
{ACAD_REACTORS
330
135
102
}
330
135
100
AcDbDictionary
  3
BYBLOCK
350
16D
  3
BYLAYER
350
16C
  3
GLOBAL
350
16E
  0
DICTIONARY
  5
1F5
102
{ACAD_REACTORS
330
135
102
}
330
135
100
AcDbDictionary
  0
DICTIONARY
  5
13F
102
{ACAD_REACTORS
330
135
102
}
330
135
100
AcDbDictionary
  3
STANDARD
350
140
  0
DICTIONARY
  5
141
102
{ACAD_REACTORS
330
135
102
}
330
135
100
AcDbDictionary
  0
DICTIONARY
  5
16F
102
{ACAD_REACTORS
330
135
102
}
330
135
100
AcDbDictionary
  3
A0
350
170
  3
A1
350
171
  3
A2
350
172
  3
A3
350
173
  3
A4
350
174
  3
A5
350
175
  3
A6
350
176
  3
A7
350
177
  3
A8
350
178
  3
A9
350
179
  3
B0
350
17A
  3
B1
350
17B
  3
B2
350
17C
  3
B3
350
17D
  3
B4
350
17E
  3
B5
350
17F
  3
B6
350
180
  3
B7
350
181
  3
B8
350
182
  3
B9
350
183
  3
C0
350
184
  3
C1
350
185
  3
C2
350
186
  3
C3
350
187
  3
C4
350
188
  3
C5
350
189
  3
C6
350
18A
  3
C7
350
18B
  3
C8
350
18C
  3
C9
350
18D
  3
D0
350
18E
  3
D1
350
18F
  3
D2
350
190
  0
DICTIONARY
  5
152
102
{ACAD_REACTORS
330
135
102
}
330
135
100
AcDbDictionary
  3
2DWIREFRAME
350
157
  3
BASIC
350
15A
  3
BRIGHTEN
350
15E
  3
COLORCHANGE
350
162
  3
CONCEPTUAL
350
15C
  3
DIM
350
15D
  3
EDGECOLOROFF
350
165
  3
FACEPATTERN
350
161
  3
FLAT
350
153
  3
FLATWITHEDGES
350
154
  3
GOURAUD
350
155
  3
GOURAUDWITHEDGES
350
156
  3
HIDDEN
350
159
  3
JITTEROFF
350
163
  3
LINEPATTERN
350
160
  3
OVERHANGOFF
350
164
  3
REALISTIC
350
15B
  3
SHADED
350
16A
  3
SHADED_WITH_EDGES
350
169
  3
SHADES_OF_GRAY
350
166
  3
SKETCHY
350
167
  3
THICKEN
350
15F
  3
WIREFRAME
350
158
  3
X-RAY
350
168
  0
DICTIONARY
  5
1D2
102
{ACAD_REACTORS
330
135
102
}
330
135
100
AcDbDictionary
  3
CEPSNID
350
1DC
  3
CEPSNTYPE
350
1DB
  3
DIMSTYLEDATA
350
1F2
  3
FINGERPRINTGUID
350
1DD
  3
HYPERLINKBASE
350
1D5
  3
INSUNITS
350
1DA
  3
LAYOUTDICT
350
1D7
  3
LWETCUNION
350
1D9
  3
PLOTSETDICT
350
1D8
  3
PSVPSCALE
350
1DF
  3
PUCSBASE
350
1E2
  3
PUCSORGBACK
350
1E8
  3
PUCSORGBOTTOM
350
1E4
  3
PUCSORGFRONT
350
1E7
  3
PUCSORGLEFT
350
1E5
  3
PUCSORGRIGHT
350
1E6
  3
PUCSORGTOP
350
1E3
  3
PUCSORTHOREF
350
1E0
  3
PUCSORTHOVIEW
350
1E1
  3
STYLESHEET
350
1D6
  3
TSTACKALIGN
350
1D3
  3
TSTACKSIZE
350
1D4
  3
UCSBASE
350
1EB
  3
UCSORGBACK
350
1F1
  3
UCSORGBOTTOM
350
1ED
  3
UCSORGFRONT
350
1F0
  3
UCSORGLEFT
350
1EE
  3
UCSORGRIGHT
350
1EF
  3
UCSORGTOP
350
1EC
  3
UCSORTHOREF
350
1E9
  3
UCSORTHOVIEW
350
1EA
  3
VERSIONGUID
350
1DE
  0
DICTIONARY
  5
1F3
102
{ACAD_REACTORS
330
135
102
}
330
135
100
AcDbDictionary
  3
CANNOSCALE
350
1FC
  3
DIMASSOC
350
1F8
  3
HIDETEXT
350
1F9
  3
MSLTSCALE
350
1FD
  0
DICTIONARY
  5
193
102
{ACAD_REACTORS
330
135
102
}
330
135
100
AcDbDictionary
  3
GRID/DISPLAYGRID00
350
194
  3
GRID/DISPLAYGRID01
350
195
  3
GRID/DISPLAYGRID02
350
196
  3
GRID/DISPLAYGRID03
350
197
  3
GRID/GRIDSPACINGX00
350
198
  3
GRID/GRIDSPACINGX01
350
199
  3
GRID/GRIDSPACINGX02
350
19A
  3
GRID/GRIDSPACINGX03
350
19B
  3
GRID/GRIDSPACINGY00
350
19C
  3
GRID/GRIDSPACINGY01
350
19D
  3
GRID/GRIDSPACINGY02
350
19E
  3
GRID/GRIDSPACINGY03
350
19F
  3
GRID/ISOMETRICGRID00
350
1A0
  3
GRID/ISOMETRICGRID01
350
1A1
  3
GRID/ISOMETRICGRID02
350
1A2
  3
GRID/ISOMETRICGRID03
350
1A3
  3
GRID/ISOMETRICPROJECTION00
350
1A4
  3
GRID/ISOMETRICPROJECTION01
350
1A5
  3
GRID/ISOMETRICPROJECTION02
350
1A6
  3
GRID/ISOMETRICPROJECTION03
350
1A7
  3
GRID/METAGRIDSPACINGX00
350
1A8
  3
GRID/METAGRIDSPACINGX01
350
1A9
  3
GRID/METAGRIDSPACINGX02
350
1AA
  3
GRID/METAGRIDSPACINGX03
350
1AB
  3
GRID/METAGRIDSPACINGY00
350
1AC
  3
GRID/METAGRIDSPACINGY01
350
1AD
  3
GRID/METAGRIDSPACINGY02
350
1AE
  3
GRID/METAGRIDSPACINGY03
350
1AF
  3
MULTIPAGESETTINGS/COLUMNS
350
1B0
  3
MULTIPAGESETTINGS/GLUEMAR0
350
1B2
  3
MULTIPAGESETTINGS/GLUEMAR1
350
1B3
  3
MULTIPAGESETTINGS/GLUEMAR2
350
1B4
  3
MULTIPAGESETTINGS/GLUEMARG
350
1B1
  3
MULTIPAGESETTINGS/PRINTCRO
350
1B5
  3
MULTIPAGESETTINGS/ROWS
350
1B6
  3
PAGESETTINGS/OFFSETX
350
1B7
  3
PAGESETTINGS/OFFSETY
350
1B8
  3
PAGESETTINGS/PAGEORIENTATION
350
1B9
  3
PAGESETTINGS/PAPERHEIGHT
350
1BA
  3
PAGESETTINGS/PAPERWIDTH
350
1BB
  3
PAGESETTINGS/SCALE
350
1BC
  3
PAGESETTINGS/SHOWPAPERBORDERS
350
1BD
  3
UNITSETTINGS/PAPERUNIT
350
1BE
  0
XRECORD
  5
1FB
102
{ACAD_REACTORS
330
1FA
102
}
330
1FA
100
AcDbXrecord
102
VTR_0.000_0.000_1.000_1.000_GRIDDISPLAY
 70
     3
102
VTR_0.000_0.000_1.000_1.000_GRIDMAJOR
 70
     5
102
VTR_0.000_0.000_1.000_1.000_DEFAULTLIGHTING
280
     1
102
VTR_0.000_0.000_1.000_1.000_DEFAULTLIGHTINGTYPE
 70
     1
102
VTR_0.000_0.000_1.000_1.000_BRIGHTNESS
141
0.0
102
VTR_0.000_0.000_1.000_1.000_CONTRAST
142
0.0
  0
MATERIAL
  5
16D
102
{ACAD_REACTORS
330
16B
102
}
102
{ACAD_XDICTIONARY
360
200
102
}
330
16B
100
AcDbMaterial
  1
BYBLOCK
  0
MATERIAL
  5
16C
102
{ACAD_REACTORS
330
16B
102
}
102
{ACAD_XDICTIONARY
360
1FE
102
}
330
16B
100
AcDbMaterial
  1
BYLAYER
  0
MATERIAL
  5
16E
102
{ACAD_REACTORS
330
16B
102
}
102
{ACAD_XDICTIONARY
360
202
102
}
330
16B
100
AcDbMaterial
  1
GLOBAL
  0
MLINESTYLE
  5
140
102
{ACAD_REACTORS
330
13F
102
}
330
13F
100
AcDbMlineStyle
  2
Standard
 70
     0
  3

 62
   256
 51
90.0
 52
90.0
 71
     2
 49
0.5
 62
   256
  6
BYLAYER
 49
-0.5
 62
   256
  6
BYLAYER
  0
ACAD_PROXY_OBJECT
  5
170
102
{ACAD_REACTORS
330
16F
102
}
330
16F
100
AcDbProxyObject
 90
      499
 91
      503
 93
       41
310
903313A31580
  0
ACAD_PROXY_OBJECT
  5
171
102
{ACAD_REACTORS
330
16F
102
}
330
16F
100
AcDbProxyObject
 90
      499
 91
      503
 93
      105
310
903313A324000000000000004000
  0
ACAD_PROXY_OBJECT
  5
172
102
{ACAD_REACTORS
330
16F
102
}
330
16F
100
AcDbProxyObject
 90
      499
 91
      503
 93
      105
310
903313A344000000000000104000
  0
ACAD_PROXY_OBJECT
  5
173
102
{ACAD_REACTORS
330
16F
102
}
330
16F
100
AcDbProxyObject
 90
      499
 91
      503
 93
      105
310
903313A354000000000000144000
  0
ACAD_PROXY_OBJECT
  5
174
102
{ACAD_REACTORS
330
16F
102
}
330
16F
100
AcDbProxyObject
 90
      499
 91
      503
 93
      105
310
903313A384000000000000204000
  0
ACAD_PROXY_OBJECT
  5
175
102
{ACAD_REACTORS
330
16F
102
}
330
16F
100
AcDbProxyObject
 90
      499
 91
      503
 93
      113
310
904313A31304000000000000244000
  0
ACAD_PROXY_OBJECT
  5
176
102
{ACAD_REACTORS
330
16F
102
}
330
16F
100
AcDbProxyObject
 90
      499
 91
      503
 93
      113
310
904313A31364000000000000304000
  0
ACAD_PROXY_OBJECT
  5
177
102
{ACAD_REACTORS
330
16F
102
}
330
16F
100
AcDbProxyObject
 90
      499
 91
      503
 93
      113
310
904313A32304000000000000344000
  0
ACAD_PROXY_OBJECT
  5
178
102
{ACAD_REACTORS
330
16F
102
}
330
16F
100
AcDbProxyObject
 90
      499
 91
      503
 93
      113
310
904313A333040000000000003E4000
  0
ACAD_PROXY_OBJECT
  5
179
102
{ACAD_REACTORS
330
16F
102
}
330
16F
100
AcDbProxyObject
 90
      499
 91
      503
 93
      113
310
904313A34304000000000000444000
  0
ACAD_PROXY_OBJECT
  5
17A
102
{ACAD_REACTORS
330
16F
102
}
330
16F
100
AcDbProxyObject
 90
      499
 91
      503
 93
      113
310
904313A35304000000000000494000
  0
ACAD_PROXY_OBJECT
  5
17B
102
{ACAD_REACTORS
330
16F
102
}
330
16F
100
AcDbProxyObject
 90
      499
 91
      503
 93
      121
310
905313A3130304000000000000594000
  0
ACAD_PROXY_OBJECT
  5
17C
102
{ACAD_REACTORS
330
16F
102
}
330
16F
100
AcDbProxyObject
 90
      499
 91
      503
 93
      105
310
903323A310000000000000010100
  0
ACAD_PROXY_OBJECT
  5
17D
102
{ACAD_REACTORS
330
16F
102
}
330
16F
100
AcDbProxyObject
 90
      499
 91
      503
 93
      105
310
903343A310000000000000410100
  0
ACAD_PROXY_OBJECT
  5
17E
102
{ACAD_REACTORS
330
16F
102
}
330
16F
100
AcDbProxyObject
 90
      499
 91
      503
 93
      105
310
903383A310000000000000810100
  0
ACAD_PROXY_OBJECT
  5
17F
102
{ACAD_REACTORS
330
16F
102
}
330
16F
100
AcDbProxyObject
 90
      499
 91
      503
 93
      113
310
90431303A310000000000000910100
  0
ACAD_PROXY_OBJECT
  5
180
102
{ACAD_REACTORS
330
16F
102
}
330
16F
100
AcDbProxyObject
 90
      499
 91
      503
 93
      121
310
9053130303A310000000000001650100
  0
ACAD_PROXY_OBJECT
  5
181
102
{ACAD_REACTORS
330
16F
102
}
330
16F
100
AcDbProxyObject
 90
      499
 91
      503
 93
      257
310
90E312F31323822203D2031272D3022000000000000200FC000000000000284000
  0
ACAD_PROXY_OBJECT
  5
182
102
{ACAD_REACTORS
330
16F
102
}
330
16F
100
AcDbProxyObject
 90
      499
 91
      503
 93
      249
310
90D312F363422203D2031272D3022000000000000240FC000000000000284000
  0
ACAD_PROXY_OBJECT
  5
183
102
{ACAD_REACTORS
330
16F
102
}
330
16F
100
AcDbProxyObject
 90
      499
 91
      503
 93
      249
310
90D312F333222203D2031272D3022000000000000280FC000000000000284000
  0
ACAD_PROXY_OBJECT
  5
184
102
{ACAD_REACTORS
330
16F
102
}
330
16F
100
AcDbProxyObject
 90
      499
 91
      503
 93
      249
310
90D312F313622203D2031272D30220000000000002C0FC000000000000284000
  0
ACAD_PROXY_OBJECT
  5
185
102
{ACAD_REACTORS
330
16F
102
}
330
16F
100
AcDbProxyObject
 90
      499
 91
      503
 93
      249
310
90D332F333222203D2031272D30220000000000002E0FC000000000000284000
  0
ACAD_PROXY_OBJECT
  5
186
102
{ACAD_REACTORS
330
16F
102
}
330
16F
100
AcDbProxyObject
 90
      499
 91
      503
 93
      241
310
90C312F3822203D2031272D3022000000000000300FC000000000000284000
  0
ACAD_PROXY_OBJECT
  5
187
102
{ACAD_REACTORS
330
16F
102
}
330
16F
100
AcDbProxyObject
 90
      499
 91
      503
 93
      249
310
90D332F313622203D2031272D3022000000000000320FC000000000000284000
  0
ACAD_PROXY_OBJECT
  5
188
102
{ACAD_REACTORS
330
16F
102
}
330
16F
100
AcDbProxyObject
 90
      499
 91
      503
 93
      241
310
90C312F3422203D2031272D3022000000000000340FC000000000000284000
  0
ACAD_PROXY_OBJECT
  5
189
102
{ACAD_REACTORS
330
16F
102
}
330
16F
100
AcDbProxyObject
 90
      499
 91
      503
 93
      241
310
90C332F3822203D2031272D3022000000000000360FC000000000000284000
  0
ACAD_PROXY_OBJECT
  5
18A
102
{ACAD_REACTORS
330
16F
102
}
330
16F
100
AcDbProxyObject
 90
      499
 91
      503
 93
      241
310
90C312F3222203D2031272D3022000000000000380FC000000000000284000
  0
ACAD_PROXY_OBJECT
  5
18B
102
{ACAD_REACTORS
330
16F
102
}
330
16F
100
AcDbProxyObject
 90
      499
 91
      503
 93
      241
310
90C332F3422203D2031272D30220000000000003A0FC000000000000284000
  0
ACAD_PROXY_OBJECT
  5
18C
102
{ACAD_REACTORS
330
16F
102
}
330
16F
100
AcDbProxyObject
 90
      499
 91
      503
 93
      161
310
90A3122203D2031272D30224000000000000284000
  0
ACAD_PROXY_OBJECT
  5
18D
102
{ACAD_REACTORS
330
16F
102
}
330
16F
100
AcDbProxyObject
 90
      499
 91
      503
 93
      257
310
90E312D312F3222203D2031272D30220000000000003E0FC000000000000284000
  0
ACAD_PROXY_OBJECT
  5
18E
102
{ACAD_REACTORS
330
16F
102
}
330
16F
100
AcDbProxyObject
 90
      499
 91
      503
 93
      225
310
90A3322203D2031272D302200000000000002100000000000000284000
  0
ACAD_PROXY_OBJECT
  5
18F
102
{ACAD_REACTORS
330
16F
102
}
330
16F
100
AcDbProxyObject
 90
      499
 91
      503
 93
      225
310
90A3622203D2031272D302200000000000006100000000000000284000
  0
ACAD_PROXY_OBJECT
  5
190
102
{ACAD_REACTORS
330
16F
102
}
330
16F
100
AcDbProxyObject
 90
      499
 91
      503
 93
      249
310
90D31272D3022203D2031272D30220000000000000A100000000000000284000
  0
ACAD_PROXY_OBJECT
  5
157
102
{ACAD_REACTORS
330
152
102
}
330
152
100
AcDbProxyObject
 90
      499
 91
      501
 93
      436
310
42CC9915DA5C99599C985B595049028333333333333E33F0000000000000F90107901411070040501600405405064090741402480A0340
1001
ACAD
1000
AcDbSavedByObjectVersion
1070
     0
  0
ACAD_PROXY_OBJECT
  5
15A
102
{ACAD_REACTORS
330
152
102
}
330
152
100
AcDbProxyObject
 90
      499
 91
      501
 93
      388
310
4150985CDA58D07406404333333333333E33F0000000000000F90107A41107004050150841D405064090741402480A0350
1001
ACAD
1000
AcDbSavedByObjectVersion
1070
     0
  0
ACAD_PROXY_OBJECT
  5
15E
102
{ACAD_REACTORS
330
152
102
}
330
152
100
AcDbProxyObject
 90
      499
 91
      501
 93
      428
310
42109C9A59DA1D195B90C409028333333333333E33F0000000000000F9010790141107004050150841D405064090741402480A029950
1001
ACAD
1000
AcDbSavedByObjectVersion
1070
     0
  0
ACAD_PROXY_OBJECT
  5
162
102
{ACAD_REACTORS
330
152
102
}
330
152
100
AcDbProxyObject
 90
      499
 91
      501
 93
      452
310
42D0DBDB1BDC90DA185B99D95104090240C333333333333E33F0000000000000F90108901411070040501508421405064090741402480A0350
1001
ACAD
1000
AcDbSavedByObjectVersion
1070
     0
  0
ACAD_PROXY_OBJECT
  5
15C
102
{ACAD_REACTORS
330
152
102
}
330
152
100
AcDbProxyObject
 90
      499
 91
      501
 93
      500
310
4290DBDB98D95C1D1D585B10940D028333333333333E33F0000000000000F90107902409070040501000000000018199010841D405064090740C02480A0340
1001
ACAD
1000
AcDbSavedByObjectVersion
1070
     0
  0
ACAD_PROXY_OBJECT
  5
15D
102
{ACAD_REACTORS
330
152
102
}
330
152
100
AcDbProxyObject
 90
      499
 91
      501
 93
      412
310
40D11A5B50B409028333333333333E33F0000000000000F9010790141107004050150841D405064090741402480A02677FFFFFD0
1001
ACAD
1000
AcDbSavedByObjectVersion
1070
     0
  0
ACAD_PROXY_OBJECT
  5
165
102
{ACAD_REACTORS
330
152
102
}
330
152
100
AcDbProxyObject
 90
      499
 91
      501
 93
      452
310
43115919D950DBDB1BDC93D999916409028333333333333E33F0000000000000F9010790141107004050150841D405064090741402480A0350
1001
ACAD
1000
AcDbSavedByObjectVersion
1070
     0
  0
ACAD_PROXY_OBJECT
  5
161
102
{ACAD_REACTORS
330
152
102
}
330
152
100
AcDbProxyObject
 90
      499
 91
      501
 93
      444
310
42D19858D95C185D1D195C9B90F409028333333333333E33F0000000000000F9010790141107004050150841D405064090741402480A0350
1001
ACAD
1000
AcDbSavedByObjectVersion
1070
     0
  0
ACAD_PROXY_OBJECT
  5
153
102
{ACAD_REACTORS
330
152
102
}
330
152
100
AcDbProxyObject
 90
      499
 91
      501
 93
      380
310
41119B185D240901404333333333333E33F0000000000000F9010740A907004050150841D405064090741402480A1B50
1001
ACAD
1000
AcDbSavedByObjectVersion
1070
     0
  0
ACAD_PROXY_OBJECT
  5
154
102
{ACAD_REACTORS
330
152
102
}
330
152
100
AcDbProxyObject
 90
      499
 91
      501
 93
      468
310
43519B185D15DA5D1A115919D95CD0140901404333333333333E33F0000000000000F90107409019070040501600405405064090741402480A1B50
1001
ACAD
1000
AcDbSavedByObjectVersion
1070
     0
  0
ACAD_PROXY_OBJECT
  5
155
102
{ACAD_REACTORS
330
152
102
}
330
152
100
AcDbProxyObject
 90
      499
 91
      501
 93
      404
310
41D1DBDD5C985D5910240902404333333333333E33F0000000000000F9010740A9070040501641D405064090741402480A1B50
1001
ACAD
1000
AcDbSavedByObjectVersion
1070
     0
  0
ACAD_PROXY_OBJECT
  5
156
102
{ACAD_REACTORS
330
152
102
}
330
152
100
AcDbProxyObject
 90
      499
 91
      501
 93
      492
310
4411DBDD5C985D5915DA5D1A115919D95CD0340902404333333333333E33F0000000000000F90107409019070040501600405405064090741402480A1B50
1001
ACAD
1000
AcDbSavedByObjectVersion
1070
     0
  0
ACAD_PROXY_OBJECT
  5
159
102
{ACAD_REACTORS
330
152
102
}
330
152
100
AcDbProxyObject
 90
      499
 91
      501
 93
      476
310
41921A5919195B90640502408333333333333E33F0000000000000F901079024090700405020000000000001110200405405064090740C02480A0340
1001
ACAD
1000
AcDbSavedByObjectVersion
1070
     0
  0
ACAD_PROXY_OBJECT
  5
163
102
{ACAD_REACTORS
330
152
102
}
330
152
100
AcDbProxyObject
 90
      499
 91
      501
 93
      428
310
42529A5D1D195C93D999914409028333333333333E33F0000000000000F9010790141107004050150A41D405064090741402480A0350
1001
ACAD
1000
AcDbSavedByObjectVersion
1070
     0
  0
ACAD_PROXY_OBJECT
  5
160
102
{ACAD_REACTORS
330
152
102
}
330
152
100
AcDbProxyObject
 90
      499
 91
      501
 93
      444
310
42D31A5B995C185D1D195C9B90E409028333333333333E33F0000000000000F9010790141107004050750841D405064090741402483A0350
1001
ACAD
1000
AcDbSavedByObjectVersion
1070
     0
  0
ACAD_PROXY_OBJECT
  5
164
102
{ACAD_REACTORS
330
152
102
}
330
152
100
AcDbProxyObject
 90
      499
 91
      501
 93
      444
310
42D3DD995C9A185B99D3D999915409028333333333333E33F0000000000000F9010790141107004050150941D405064090741402480A0350
1001
ACAD
1000
AcDbSavedByObjectVersion
1070
     0
  0
ACAD_PROXY_OBJECT
  5
15B
102
{ACAD_REACTORS
330
152
102
}
330
152
100
AcDbProxyObject
 90
      499
 91
      501
 93
      428
310
425499585B1A5CDD1A58D08409038333333333333E33F0000000000000F9010740A907004050150800405405064090740C02480A1B40
1001
ACAD
1000
AcDbSavedByObjectVersion
1070
     0
  0
ACAD_PROXY_OBJECT
  5
16A
102
{ACAD_REACTORS
330
152
102
}
330
152
100
AcDbProxyObject
 90
      499
 91
      501
 93
      420
310
4194DA1859195911B40902404333333333333E33F0000000000000F9010740A41107004050150800405405064090840C02480A0B40
1001
ACAD
1000
AcDbSavedByObjectVersion
1070
     0
  0
ACAD_PROXY_OBJECT
  5
169
102
{ACAD_REACTORS
330
152
102
}
330
152
100
AcDbProxyObject
 90
      499
 91
      501
 93
      516
310
4454DA18591959081DDA5D1A08195919D95CD1A40902404333333333333E33F0000000000000F901074090142907004050250800405405064090740C02480A0B40
1001
ACAD
1000
AcDbSavedByObjectVersion
1070
     0
  0
ACAD_PROXY_OBJECT
  5
166
102
{ACAD_REACTORS
330
152
102
}
330
152
100
AcDbProxyObject
 90
      499
 91
      501
 93
      532
310
4394DA1859195CC81BD98811DC985E5174090240C333333333333E33F0000000000000F901079024090741D01000000000000111010841D405064090740C02480A0340
1001
ACAD
1000
AcDbSavedByObjectVersion
1070
     0
  0
ACAD_PROXY_OBJECT
  5
167
102
{ACAD_REACTORS
330
152
102
}
330
152
100
AcDbProxyObject
 90
      499
 91
      501
 93
      476
310
41D4DAD95D18DA1E51840502408333333333333E33F0000000000000F901079024090741D01000000000000111010B41D405064090741802480A0340
1001
ACAD
1000
AcDbSavedByObjectVersion
1070
     0
  0
ACAD_PROXY_OBJECT
  5
15F
102
{ACAD_REACTORS
330
152
102
}
330
152
100
AcDbProxyObject
 90
      499
 91
      501
 93
      412
310
41D51A1A58DAD95B90D409028333333333333E33F0000000000000F9010790141107004050150C41D405064090741402480A0350
1001
ACAD
1000
AcDbSavedByObjectVersion
1070
     0
  0
ACAD_PROXY_OBJECT
  5
158
102
{ACAD_REACTORS
330
152
102
}
330
152
100
AcDbProxyObject
 90
      499
 91
      501
 93
      420
310
4255DA5C99599C985B595059028333333333333E33F0000000000000F90107901411070040501600405405064090740C02480A0340
1001
ACAD
1000
AcDbSavedByObjectVersion
1070
     0
  0
ACAD_PROXY_OBJECT
  5
168
102
{ACAD_REACTORS
330
152
102
}
330
152
100
AcDbProxyObject
 90
      499
 91
      501
 93
      404
310
41560B54985E51940902404000000000000E03F0000000000000F9010740501907004050150841D405064090740C02480A1B40
1001
ACAD
1000
AcDbSavedByObjectVersion
1070
     0
  0
XRECORD
  5
1DC
102
{ACAD_REACTORS
330
1D2
102
}
330
1D2
100
AcDbXrecord
340
0
  0
XRECORD
  5
1DB
102
{ACAD_REACTORS
330
1D2
102
}
330
1D2
100
AcDbXrecord
 90
        0
  0
XRECORD
  5
1F2
102
{ACAD_REACTORS
330
1D2
102
}
330
1D2
100
AcDbXrecord
1000
DSTYLE
1002
{
1070
   171
 70
     2
1070
   143
 40
25.4
1070
   274
 70
     2
1070
    41
 40
0.18
1070
   141
 40
0.09
1070
   176
 70
    18
1070
   177
 70
    18
1070
   178
 70
    18
1070
   271
 70
     4
1070
    43
 40
0.38
1070
   278
 70
    46
1070
    44
 40
0.18
1070
    42
 40
0.0625
1070
   147
 40
0.09
1070
    77
 70
     0
1070
   272
 70
     4
1070
    73
 70
     1
1070
   172
 70
     0
1070
    74
 70
     1
1070
   283
 70
     1
1070
   340
340
13A
1070
   140
 40
0.18
1070
   284
 70
     0
1070
    78
 70
     0
1002
}
  0
XRECORD
  5
1DD
102
{ACAD_REACTORS
330
1D2
102
}
330
1D2
100
AcDbXrecord
  1
{7CAE0DA1-0D5F-489E-BD04-04F56973FDEE}
  0
XRECORD
  5
1D5
102
{ACAD_REACTORS
330
1D2
102
}
330
1D2
100
AcDbXrecord
  1

  0
XRECORD
  5
1DA
102
{ACAD_REACTORS
330
1D2
102
}
330
1D2
100
AcDbXrecord
 90
        0
  0
XRECORD
  5
1D7
102
{ACAD_REACTORS
330
1D2
102
}
330
1D2
100
AcDbXrecord
340
142
  0
XRECORD
  5
1D9
102
{ACAD_REACTORS
330
1D2
102
}
330
1D2
100
AcDbXrecord
 90
    10781
  0
XRECORD
  5
1D8
102
{ACAD_REACTORS
330
1D2
102
}
330
1D2
100
AcDbXrecord
340
141
  0
XRECORD
  5
1DF
102
{ACAD_REACTORS
330
1D2
102
}
330
1D2
100
AcDbXrecord
 40
0.0
  0
XRECORD
  5
1E2
102
{ACAD_REACTORS
330
1D2
102
}
330
1D2
100
AcDbXrecord
340
0
  0
XRECORD
  5
1E8
102
{ACAD_REACTORS
330
1D2
102
}
330
1D2
100
AcDbXrecord
 10
0.0
 20
0.0
 30
0.0
  0
XRECORD
  5
1E4
102
{ACAD_REACTORS
330
1D2
102
}
330
1D2
100
AcDbXrecord
 10
0.0
 20
0.0
 30
0.0
  0
XRECORD
  5
1E7
102
{ACAD_REACTORS
330
1D2
102
}
330
1D2
100
AcDbXrecord
 10
0.0
 20
0.0
 30
0.0
  0
XRECORD
  5
1E5
102
{ACAD_REACTORS
330
1D2
102
}
330
1D2
100
AcDbXrecord
 10
0.0
 20
0.0
 30
0.0
  0
XRECORD
  5
1E6
102
{ACAD_REACTORS
330
1D2
102
}
330
1D2
100
AcDbXrecord
 10
0.0
 20
0.0
 30
0.0
  0
XRECORD
  5
1E3
102
{ACAD_REACTORS
330
1D2
102
}
330
1D2
100
AcDbXrecord
 10
0.0
 20
0.0
 30
0.0
  0
XRECORD
  5
1E0
102
{ACAD_REACTORS
330
1D2
102
}
330
1D2
100
AcDbXrecord
340
0
  0
XRECORD
  5
1E1
102
{ACAD_REACTORS
330
1D2
102
}
330
1D2
100
AcDbXrecord
 70
     0
  0
XRECORD
  5
1D6
102
{ACAD_REACTORS
330
1D2
102
}
330
1D2
100
AcDbXrecord
  1

  0
XRECORD
  5
1D3
102
{ACAD_REACTORS
330
1D2
102
}
330
1D2
100
AcDbXrecord
 90
        1
  0
XRECORD
  5
1D4
102
{ACAD_REACTORS
330
1D2
102
}
330
1D2
100
AcDbXrecord
 90
       70
  0
XRECORD
  5
1EB
102
{ACAD_REACTORS
330
1D2
102
}
330
1D2
100
AcDbXrecord
340
0
  0
XRECORD
  5
1F1
102
{ACAD_REACTORS
330
1D2
102
}
330
1D2
100
AcDbXrecord
 10
0.0
 20
0.0
 30
0.0
  0
XRECORD
  5
1ED
102
{ACAD_REACTORS
330
1D2
102
}
330
1D2
100
AcDbXrecord
 10
0.0
 20
0.0
 30
0.0
  0
XRECORD
  5
1F0
102
{ACAD_REACTORS
330
1D2
102
}
330
1D2
100
AcDbXrecord
 10
0.0
 20
0.0
 30
0.0
  0
XRECORD
  5
1EE
102
{ACAD_REACTORS
330
1D2
102
}
330
1D2
100
AcDbXrecord
 10
0.0
 20
0.0
 30
0.0
  0
XRECORD
  5
1EF
102
{ACAD_REACTORS
330
1D2
102
}
330
1D2
100
AcDbXrecord
 10
0.0
 20
0.0
 30
0.0
  0
XRECORD
  5
1EC
102
{ACAD_REACTORS
330
1D2
102
}
330
1D2
100
AcDbXrecord
 10
0.0
 20
0.0
 30
0.0
  0
XRECORD
  5
1E9
102
{ACAD_REACTORS
330
1D2
102
}
330
1D2
100
AcDbXrecord
340
0
  0
XRECORD
  5
1EA
102
{ACAD_REACTORS
330
1D2
102
}
330
1D2
100
AcDbXrecord
 70
     0
  0
XRECORD
  5
1DE
102
{ACAD_REACTORS
330
1D2
102
}
330
1D2
100
AcDbXrecord
  1
{FAEB1C32-E019-11D5-929B-00C0DF256EC4}
  0
DICTIONARYVAR
  5
1FC
102
{ACAD_REACTORS
330
1F3
102
}
330
1F3
100
DictionaryVariables
280
     0
  1
1:1
  0
DICTIONARYVAR
  5
1F8
102
{ACAD_REACTORS
330
1F3
102
}
330
1F3
100
DictionaryVariables
280
     0
  1
2
  0
DICTIONARYVAR
  5
1F9
102
{ACAD_REACTORS
330
1F3
102
}
330
1F3
100
DictionaryVariables
280
     0
  1
1
  0
DICTIONARYVAR
  5
1FD
102
{ACAD_REACTORS
330
1F3
102
}
330
1F3
100
DictionaryVariables
280
     0
  1
1
  0
ACAD_PROXY_OBJECT
  5
194
102
{ACAD_REACTORS
330
193
102
}
330
193
100
AcDbProxyObject
 90
      499
 91
      506
 93
       34
310
40C8804040
  0
ACAD_PROXY_OBJECT
  5
195
102
{ACAD_REACTORS
330
193
102
}
330
193
100
AcDbProxyObject
 90
      499
 91
      506
 93
       34
310
40C8804040
  0
ACAD_PROXY_OBJECT
  5
196
102
{ACAD_REACTORS
330
193
102
}
330
193
100
AcDbProxyObject
 90
      499
 91
      506
 93
       34
310
40C8804040
  0
ACAD_PROXY_OBJECT
  5
197
102
{ACAD_REACTORS
330
193
102
}
330
193
100
AcDbProxyObject
 90
      499
 91
      506
 93
       34
310
40C8804040
  0
XRECORD
  5
198
102
{ACAD_REACTORS
330
193
102
}
330
193
100
AcDbXrecord
1000
auto
  0
XRECORD
  5
199
102
{ACAD_REACTORS
330
193
102
}
330
193
100
AcDbXrecord
1000
auto
  0
XRECORD
  5
19A
102
{ACAD_REACTORS
330
193
102
}
330
193
100
AcDbXrecord
1000
auto
  0
XRECORD
  5
19B
102
{ACAD_REACTORS
330
193
102
}
330
193
100
AcDbXrecord
1000
auto
  0
XRECORD
  5
19C
102
{ACAD_REACTORS
330
193
102
}
330
193
100
AcDbXrecord
1000
auto
  0
XRECORD
  5
19D
102
{ACAD_REACTORS
330
193
102
}
330
193
100
AcDbXrecord
1000
auto
  0
XRECORD
  5
19E
102
{ACAD_REACTORS
330
193
102
}
330
193
100
AcDbXrecord
1000
auto
  0
XRECORD
  5
19F
102
{ACAD_REACTORS
330
193
102
}
330
193
100
AcDbXrecord
1000
auto
  0
ACAD_PROXY_OBJECT
  5
1A0
102
{ACAD_REACTORS
330
193
102
}
330
193
100
AcDbProxyObject
 90
      499
 91
      506
 93
       34
310
40C8804000
  0
ACAD_PROXY_OBJECT
  5
1A1
102
{ACAD_REACTORS
330
193
102
}
330
193
100
AcDbProxyObject
 90
      499
 91
      506
 93
       34
310
40C8804000
  0
ACAD_PROXY_OBJECT
  5
1A2
102
{ACAD_REACTORS
330
193
102
}
330
193
100
AcDbProxyObject
 90
      499
 91
      506
 93
       34
310
40C8804000
  0
ACAD_PROXY_OBJECT
  5
1A3
102
{ACAD_REACTORS
330
193
102
}
330
193
100
AcDbProxyObject
 90
      499
 91
      506
 93
       34
310
40C8804000
  0
XRECORD
  5
1A4
102
{ACAD_REACTORS
330
193
102
}
330
193
100
AcDbXrecord
 90
        0
  0
XRECORD
  5
1A5
102
{ACAD_REACTORS
330
193
102
}
330
193
100
AcDbXrecord
 90
        0
  0
XRECORD
  5
1A6
102
{ACAD_REACTORS
330
193
102
}
330
193
100
AcDbXrecord
 90
        0
  0
XRECORD
  5
1A7
102
{ACAD_REACTORS
330
193
102
}
330
193
100
AcDbXrecord
 90
        0
  0
XRECORD
  5
1A8
102
{ACAD_REACTORS
330
193
102
}
330
193
100
AcDbXrecord
1000
auto
  0
XRECORD
  5
1A9
102
{ACAD_REACTORS
330
193
102
}
330
193
100
AcDbXrecord
1000
auto
  0
XRECORD
  5
1AA
102
{ACAD_REACTORS
330
193
102
}
330
193
100
AcDbXrecord
1000
auto
  0
XRECORD
  5
1AB
102
{ACAD_REACTORS
330
193
102
}
330
193
100
AcDbXrecord
1000
auto
  0
XRECORD
  5
1AC
102
{ACAD_REACTORS
330
193
102
}
330
193
100
AcDbXrecord
1000
auto
  0
XRECORD
  5
1AD
102
{ACAD_REACTORS
330
193
102
}
330
193
100
AcDbXrecord
1000
auto
  0
XRECORD
  5
1AE
102
{ACAD_REACTORS
330
193
102
}
330
193
100
AcDbXrecord
1000
auto
  0
XRECORD
  5
1AF
102
{ACAD_REACTORS
330
193
102
}
330
193
100
AcDbXrecord
1000
auto
  0
XRECORD
  5
1B0
102
{ACAD_REACTORS
330
193
102
}
330
193
100
AcDbXrecord
 90
        1
  0
XRECORD
  5
1B2
102
{ACAD_REACTORS
330
193
102
}
330
193
100
AcDbXrecord
 40
10.0
  0
XRECORD
  5
1B3
102
{ACAD_REACTORS
330
193
102
}
330
193
100
AcDbXrecord
 40
10.0
  0
XRECORD
  5
1B4
102
{ACAD_REACTORS
330
193
102
}
330
193
100
AcDbXrecord
 40
10.0
  0
XRECORD
  5
1B1
102
{ACAD_REACTORS
330
193
102
}
330
193
100
AcDbXrecord
 40
10.0
  0
ACAD_PROXY_OBJECT
  5
1B5
102
{ACAD_REACTORS
330
193
102
}
330
193
100
AcDbProxyObject
 90
      499
 91
      506
 93
       34
310
40C8804000
  0
XRECORD
  5
1B6
102
{ACAD_REACTORS
330
193
102
}
330
193
100
AcDbXrecord
 90
        1
  0
XRECORD
  5
1B7
102
{ACAD_REACTORS
330
193
102
}
330
193
100
AcDbXrecord
 40
0.0
  0
XRECORD
  5
1B8
102
{ACAD_REACTORS
330
193
102
}
330
193
100
AcDbXrecord
 40
0.0
  0
XRECORD
  5
1B9
102
{ACAD_REACTORS
330
193
102
}
330
193
100
AcDbXrecord
1000
Portrait
  0
XRECORD
  5
1BA
102
{ACAD_REACTORS
330
193
102
}
330
193
100
AcDbXrecord
 40
297.0
  0
XRECORD
  5
1BB
102
{ACAD_REACTORS
330
193
102
}
330
193
100
AcDbXrecord
 40
210.0
  0
XRECORD
  5
1BC
102
{ACAD_REACTORS
330
193
102
}
330
193
100
AcDbXrecord
1000
1:1
  0
ACAD_PROXY_OBJECT
  5
1BD
102
{ACAD_REACTORS
330
193
102
}
330
193
100
AcDbProxyObject
 90
      499
 91
      506
 93
       34
310
40C8804040
  0
XRECORD
  5
1BE
102
{ACAD_REACTORS
330
193
102
}
330
193
100
AcDbXrecord
 90
        4
  0
DICTIONARY
  5
200
330
16D
100
AcDbDictionary
280
     1
  3
ACAD_XREC_ROUNDTRIP
360
201
  0
DICTIONARY
  5
1FE
330
16C
100
AcDbDictionary
280
     1
  3
ACAD_XREC_ROUNDTRIP
360
1FF
  0
DICTIONARY
  5
202
330
16E
100
AcDbDictionary
280
     1
  3
ACAD_XREC_ROUNDTRIP
360
203
  0
XRECORD
  5
201
102
{ACAD_REACTORS
330
200
102
}
330
200
100
AcDbXrecord
102
MATERIAL
148
0.0
149
0.0
149
0.0
 93
        0
 94
      127
282
     0
 72
     1
 77
     1
171
     1
175
     1
179
     1
273
     0
  0
XRECORD
  5
1FF
102
{ACAD_REACTORS
330
1FE
102
}
330
1FE
100
AcDbXrecord
102
MATERIAL
148
0.0
149
0.0
149
0.0
 93
        0
 94
      127
282
     0
 72
     1
 77
     1
171
     1
175
     1
179
     1
273
     0
  0
XRECORD
  5
203
102
{ACAD_REACTORS
330
202
102
}
330
202
100
AcDbXrecord
102
MATERIAL
148
0.0
149
0.0
149
0.0
 93
        0
 94
      127
282
     0
 72
     1
 77
     1
171
     1
175
     1
179
     1
273
     0
  0
ENDSEC
  0
EOF
