solid OpenSCAD_Model
  facet normal -1 0 0
    outer loop
      vertex -10 -10 0
      vertex -10 -10 8.5
      vertex -10 10 0
    endloop
  endfacet
  facet normal -1 0 0
    outer loop
      vertex -10 10 0
      vertex -10 -10 8.5
      vertex -10 10 8.5
    endloop
  endfacet
  facet normal 0 -1 0
    outer loop
      vertex 3.5 -10 4
      vertex -10 -10 0
      vertex 73.0254 -10 0
    endloop
  endfacet
  facet normal 0 -1 0
    outer loop
      vertex 3.5 -10 4
      vertex 3.5 -10 8.5
      vertex -10 -10 8.5
    endloop
  endfacet
  facet normal 0 -1 0
    outer loop
      vertex -10 -10 8.5
      vertex -10 -10 0
      vertex 3.5 -10 4
    endloop
  endfacet
  facet normal 0 -1 0
    outer loop
      vertex 73.0254 -10 4
      vertex 3.5 -10 4
      vertex 73.0254 -10 0
    endloop
  endfacet
  facet normal 0 0 -1
    outer loop
      vertex -10 -10 0
      vertex -10 10 0
      vertex 73.0254 -10 0
    endloop
  endfacet
  facet normal 0 0 -1
    outer loop
      vertex 73.0254 -10 0
      vertex -10 10 0
      vertex 73.0254 10 0
    endloop
  endfacet
  facet normal 0 1 0
    outer loop
      vertex 73.0254 10 4
      vertex 73.0254 10 0
      vertex 3.5 10 4
    endloop
  endfacet
  facet normal 0 1 0
    outer loop
      vertex -10 10 0
      vertex -10 10 8.5
      vertex 3.5 10 4
    endloop
  endfacet
  facet normal 0 1 0
    outer loop
      vertex -10 10 0
      vertex 3.5 10 4
      vertex 73.0254 10 0
    endloop
  endfacet
  facet normal 0 1 0
    outer loop
      vertex 3.5 10 4
      vertex -10 10 8.5
      vertex 3.5 10 8.5
    endloop
  endfacet
  facet normal 0 0 1
    outer loop
      vertex -2.29201 -2.64512 8.5
      vertex -10 -10 8.5
      vertex 3.5 -10 8.5
    endloop
  endfacet
  facet normal 0 0 1
    outer loop
      vertex 3.5 0 8.5
      vertex 2.94439 -1.89224 8.5
      vertex 3.5 -10 8.5
    endloop
  endfacet
  facet normal 0 0 1
    outer loop
      vertex 2.94439 -1.89224 8.5
      vertex 1.45395 -3.18371 8.5
      vertex 3.5 -10 8.5
    endloop
  endfacet
  facet normal 0 0 1
    outer loop
      vertex 1.45395 -3.18371 8.5
      vertex -0.498102 -3.46437 8.5
      vertex 3.5 -10 8.5
    endloop
  endfacet
  facet normal 0 0 1
    outer loop
      vertex -3.35823 -0.986064 8.5
      vertex -10 -10 8.5
      vertex -2.29201 -2.64512 8.5
    endloop
  endfacet
  facet normal 0 0 1
    outer loop
      vertex -2.29201 2.64512 8.5
      vertex -0.498102 3.46437 8.5
      vertex -10 10 8.5
    endloop
  endfacet
  facet normal 0 0 1
    outer loop
      vertex -10 10 8.5
      vertex -10 -10 8.5
      vertex -3.35823 -0.986064 8.5
    endloop
  endfacet
  facet normal 0 0 1
    outer loop
      vertex 1.45395 3.18371 8.5
      vertex -10 10 8.5
      vertex -0.498102 3.46437 8.5
    endloop
  endfacet
  facet normal 0 0 1
    outer loop
      vertex 3.5 10 8.5
      vertex -10 10 8.5
      vertex 1.45395 3.18371 8.5
    endloop
  endfacet
  facet normal 0 0 1
    outer loop
      vertex 3.5 10 8.5
      vertex 1.45395 3.18371 8.5
      vertex 2.94439 1.89224 8.5
    endloop
  endfacet
  facet normal 0 0 1
    outer loop
      vertex 3.5 0 8.5
      vertex 3.5 10 8.5
      vertex 2.94439 1.89224 8.5
    endloop
  endfacet
  facet normal 0 0 1
    outer loop
      vertex -3.35823 0.986064 8.5
      vertex -2.29201 2.64512 8.5
      vertex -10 10 8.5
    endloop
  endfacet
  facet normal 0 0 1
    outer loop
      vertex -0.498102 -3.46437 8.5
      vertex -2.29201 -2.64512 8.5
      vertex 3.5 -10 8.5
    endloop
  endfacet
  facet normal 0 0 1
    outer loop
      vertex -3.35823 -0.986064 8.5
      vertex -3.35823 0.986064 8.5
      vertex -10 10 8.5
    endloop
  endfacet
  facet normal 1 0 0
    outer loop
      vertex 3.5 -10 8.5
      vertex 3.5 -10 4
      vertex 3.5 10 4
    endloop
  endfacet
  facet normal 1 0 0
    outer loop
      vertex 3.5 0 8.5
      vertex 3.5 -10 8.5
      vertex 3.5 10 4
    endloop
  endfacet
  facet normal 1 0 0
    outer loop
      vertex 3.5 10 8.5
      vertex 3.5 0 8.5
      vertex 3.5 10 4
    endloop
  endfacet
  facet normal 0 0 1
    outer loop
      vertex 38.3779 -3.18371 4
      vertex 3.5 -10 4
      vertex 73.0254 -10 4
    endloop
  endfacet
  facet normal 0 0 1
    outer loop
      vertex 36.4258 3.46437 4
      vertex 38.3779 3.18371 4
      vertex 73.0254 10 4
    endloop
  endfacet
  facet normal 0 0 1
    outer loop
      vertex 3.5 10 4
      vertex 3.5 -10 4
      vertex 33.5657 -0.986064 4
    endloop
  endfacet
  facet normal 0 0 1
    outer loop
      vertex 3.5 10 4
      vertex 33.5657 -0.986064 4
      vertex 33.5657 0.986064 4
    endloop
  endfacet
  facet normal 0 0 1
    outer loop
      vertex 40.4239 0 4
      vertex 39.8683 -1.89224 4
      vertex 73.0254 -10 4
    endloop
  endfacet
  facet normal 0 0 1
    outer loop
      vertex 36.4258 3.46437 4
      vertex 3.5 10 4
      vertex 34.6319 2.64512 4
    endloop
  endfacet
  facet normal 0 0 1
    outer loop
      vertex 39.8683 1.89224 4
      vertex 40.4239 0 4
      vertex 73.0254 -10 4
    endloop
  endfacet
  facet normal 0 0 1
    outer loop
      vertex 73.0254 10 4
      vertex 3.5 10 4
      vertex 36.4258 3.46437 4
    endloop
  endfacet
  facet normal 0 0 1
    outer loop
      vertex 73.0254 10 4
      vertex 38.3779 3.18371 4
      vertex 73.0254 -10 4
    endloop
  endfacet
  facet normal 0 0 1
    outer loop
      vertex 38.3779 3.18371 4
      vertex 39.8683 1.89224 4
      vertex 73.0254 -10 4
    endloop
  endfacet
  facet normal 0 0 1
    outer loop
      vertex 36.4258 -3.46437 4
      vertex 3.5 -10 4
      vertex 38.3779 -3.18371 4
    endloop
  endfacet
  facet normal 0 0 1
    outer loop
      vertex 34.6319 -2.64512 4
      vertex 3.5 -10 4
      vertex 36.4258 -3.46437 4
    endloop
  endfacet
  facet normal 0 0 1
    outer loop
      vertex 33.5657 -0.986064 4
      vertex 3.5 -10 4
      vertex 34.6319 -2.64512 4
    endloop
  endfacet
  facet normal 0 0 1
    outer loop
      vertex 39.8683 -1.89224 4
      vertex 38.3779 -3.18371 4
      vertex 73.0254 -10 4
    endloop
  endfacet
  facet normal 0 0 1
    outer loop
      vertex 33.5657 0.986064 4
      vertex 34.6319 2.64512 4
      vertex 3.5 10 4
    endloop
  endfacet
  facet normal 1 0 0
    outer loop
      vertex 73.0254 -10 4
      vertex 73.0254 -10 0
      vertex 73.0254 10 0
    endloop
  endfacet
  facet normal 1 0 0
    outer loop
      vertex 73.0254 10 4
      vertex 73.0254 -10 4
      vertex 73.0254 10 0
    endloop
  endfacet
  facet normal 0.959493 -0.281733 0
    outer loop
      vertex 2.94439 -1.89224 14
      vertex 2.94439 -1.89224 8.5
      vertex 3.5 0 8.5
    endloop
  endfacet
  facet normal 0.959493 -0.281733 0
    outer loop
      vertex 3.5 0 14
      vertex 2.94439 -1.89224 14
      vertex 3.5 0 8.5
    endloop
  endfacet
  facet normal 0.959493 0.281733 0
    outer loop
      vertex 3.5 0 8.5
      vertex 2.94439 1.89224 8.5
      vertex 2.94439 1.89224 14
    endloop
  endfacet
  facet normal 0.959493 0.281733 0
    outer loop
      vertex 3.5 0 14
      vertex 3.5 0 8.5
      vertex 2.94439 1.89224 14
    endloop
  endfacet
  facet normal 0.654861 0.755749 0
    outer loop
      vertex 1.45395 3.18371 8.5
      vertex 1.45395 3.18371 14
      vertex 2.94439 1.89224 8.5
    endloop
  endfacet
  facet normal 0.654861 0.755749 0
    outer loop
      vertex 2.94439 1.89224 8.5
      vertex 1.45395 3.18371 14
      vertex 2.94439 1.89224 14
    endloop
  endfacet
  facet normal 0.142315 0.989821 0
    outer loop
      vertex -0.498102 3.46437 8.5
      vertex -0.498102 3.46437 14
      vertex 1.45395 3.18371 8.5
    endloop
  endfacet
  facet normal 0.142315 0.989821 0
    outer loop
      vertex 1.45395 3.18371 8.5
      vertex -0.498102 3.46437 14
      vertex 1.45395 3.18371 14
    endloop
  endfacet
  facet normal -0.415415 0.909632 0
    outer loop
      vertex -2.29201 2.64512 8.5
      vertex -2.29201 2.64512 14
      vertex -0.498102 3.46437 8.5
    endloop
  endfacet
  facet normal -0.415415 0.909632 0
    outer loop
      vertex -0.498102 3.46437 8.5
      vertex -2.29201 2.64512 14
      vertex -0.498102 3.46437 14
    endloop
  endfacet
  facet normal -0.841254 0.54064 0
    outer loop
      vertex -3.35823 0.986064 8.5
      vertex -3.35823 0.986064 14
      vertex -2.29201 2.64512 8.5
    endloop
  endfacet
  facet normal -0.841254 0.54064 0
    outer loop
      vertex -2.29201 2.64512 8.5
      vertex -3.35823 0.986064 14
      vertex -2.29201 2.64512 14
    endloop
  endfacet
  facet normal -1 0 0
    outer loop
      vertex -3.35823 -0.986064 8.5
      vertex -3.35823 -0.986064 14
      vertex -3.35823 0.986064 8.5
    endloop
  endfacet
  facet normal -1 0 0
    outer loop
      vertex -3.35823 0.986064 8.5
      vertex -3.35823 -0.986064 14
      vertex -3.35823 0.986064 14
    endloop
  endfacet
  facet normal -0.841254 -0.54064 0
    outer loop
      vertex -3.35823 -0.986064 8.5
      vertex -2.29201 -2.64512 8.5
      vertex -3.35823 -0.986064 14
    endloop
  endfacet
  facet normal -0.841254 -0.54064 0
    outer loop
      vertex -3.35823 -0.986064 14
      vertex -2.29201 -2.64512 8.5
      vertex -2.29201 -2.64512 14
    endloop
  endfacet
  facet normal -0.415415 -0.909632 0
    outer loop
      vertex -2.29201 -2.64512 14
      vertex -2.29201 -2.64512 8.5
      vertex -0.498102 -3.46437 8.5
    endloop
  endfacet
  facet normal -0.415415 -0.909632 0
    outer loop
      vertex -0.498102 -3.46437 14
      vertex -2.29201 -2.64512 14
      vertex -0.498102 -3.46437 8.5
    endloop
  endfacet
  facet normal 0.142315 -0.989821 0
    outer loop
      vertex -0.498102 -3.46437 14
      vertex -0.498102 -3.46437 8.5
      vertex 1.45395 -3.18371 8.5
    endloop
  endfacet
  facet normal 0.142315 -0.989821 0
    outer loop
      vertex 1.45395 -3.18371 14
      vertex -0.498102 -3.46437 14
      vertex 1.45395 -3.18371 8.5
    endloop
  endfacet
  facet normal 0.654861 -0.755749 0
    outer loop
      vertex 1.45395 -3.18371 14
      vertex 1.45395 -3.18371 8.5
      vertex 2.94439 -1.89224 8.5
    endloop
  endfacet
  facet normal 0.654861 -0.755749 0
    outer loop
      vertex 2.94439 -1.89224 14
      vertex 1.45395 -3.18371 14
      vertex 2.94439 -1.89224 8.5
    endloop
  endfacet
  facet normal -1 0 0
    outer loop
      vertex 33.5657 -0.986064 4
      vertex 33.5657 -0.986064 14
      vertex 33.5657 0.986064 4
    endloop
  endfacet
  facet normal -1 0 0
    outer loop
      vertex 33.5657 0.986064 4
      vertex 33.5657 -0.986064 14
      vertex 33.5657 0.986064 14
    endloop
  endfacet
  facet normal -0.841254 -0.54064 0
    outer loop
      vertex 33.5657 -0.986064 4
      vertex 34.6319 -2.64512 4
      vertex 33.5657 -0.986064 14
    endloop
  endfacet
  facet normal -0.841254 -0.54064 0
    outer loop
      vertex 33.5657 -0.986064 14
      vertex 34.6319 -2.64512 4
      vertex 34.6319 -2.64512 14
    endloop
  endfacet
  facet normal -0.415415 -0.909632 0
    outer loop
      vertex 34.6319 -2.64512 14
      vertex 34.6319 -2.64512 4
      vertex 36.4258 -3.46437 4
    endloop
  endfacet
  facet normal -0.415415 -0.909632 0
    outer loop
      vertex 36.4258 -3.46437 14
      vertex 34.6319 -2.64512 14
      vertex 36.4258 -3.46437 4
    endloop
  endfacet
  facet normal 0.142315 -0.989821 0
    outer loop
      vertex 36.4258 -3.46437 14
      vertex 36.4258 -3.46437 4
      vertex 38.3779 -3.18371 4
    endloop
  endfacet
  facet normal 0.142315 -0.989821 0
    outer loop
      vertex 38.3779 -3.18371 14
      vertex 36.4258 -3.46437 14
      vertex 38.3779 -3.18371 4
    endloop
  endfacet
  facet normal 0.654861 -0.755749 0
    outer loop
      vertex 38.3779 -3.18371 14
      vertex 38.3779 -3.18371 4
      vertex 39.8683 -1.89224 4
    endloop
  endfacet
  facet normal 0.654861 -0.755749 0
    outer loop
      vertex 39.8683 -1.89224 14
      vertex 38.3779 -3.18371 14
      vertex 39.8683 -1.89224 4
    endloop
  endfacet
  facet normal 0.959493 -0.281733 0
    outer loop
      vertex 39.8683 -1.89224 14
      vertex 39.8683 -1.89224 4
      vertex 40.4239 0 4
    endloop
  endfacet
  facet normal 0.959493 -0.281733 0
    outer loop
      vertex 40.4239 0 14
      vertex 39.8683 -1.89224 14
      vertex 40.4239 0 4
    endloop
  endfacet
  facet normal 0.959493 0.281733 0
    outer loop
      vertex 40.4239 0 4
      vertex 39.8683 1.89224 4
      vertex 39.8683 1.89224 14
    endloop
  endfacet
  facet normal 0.959493 0.281733 0
    outer loop
      vertex 40.4239 0 14
      vertex 40.4239 0 4
      vertex 39.8683 1.89224 14
    endloop
  endfacet
  facet normal 0.654861 0.755749 0
    outer loop
      vertex 38.3779 3.18371 4
      vertex 38.3779 3.18371 14
      vertex 39.8683 1.89224 4
    endloop
  endfacet
  facet normal 0.654861 0.755749 0
    outer loop
      vertex 39.8683 1.89224 4
      vertex 38.3779 3.18371 14
      vertex 39.8683 1.89224 14
    endloop
  endfacet
  facet normal 0.142315 0.989821 0
    outer loop
      vertex 36.4258 3.46437 4
      vertex 36.4258 3.46437 14
      vertex 38.3779 3.18371 4
    endloop
  endfacet
  facet normal 0.142315 0.989821 0
    outer loop
      vertex 38.3779 3.18371 4
      vertex 36.4258 3.46437 14
      vertex 38.3779 3.18371 14
    endloop
  endfacet
  facet normal -0.415415 0.909632 0
    outer loop
      vertex 34.6319 2.64512 4
      vertex 34.6319 2.64512 14
      vertex 36.4258 3.46437 4
    endloop
  endfacet
  facet normal -0.415415 0.909632 0
    outer loop
      vertex 36.4258 3.46437 4
      vertex 34.6319 2.64512 14
      vertex 36.4258 3.46437 14
    endloop
  endfacet
  facet normal -0.841254 0.54064 0
    outer loop
      vertex 33.5657 0.986064 4
      vertex 33.5657 0.986064 14
      vertex 34.6319 2.64512 4
    endloop
  endfacet
  facet normal -0.841254 0.54064 0
    outer loop
      vertex 34.6319 2.64512 4
      vertex 33.5657 0.986064 14
      vertex 34.6319 2.64512 14
    endloop
  endfacet
  facet normal 0 0 1
    outer loop
      vertex -3.35823 0.986064 14
      vertex -3.35823 -0.986064 14
      vertex -2.29201 -2.64512 14
    endloop
  endfacet
  facet normal 0 0 1
    outer loop
      vertex 1.45395 -3.18371 14
      vertex -3.35823 0.986064 14
      vertex -0.498102 -3.46437 14
    endloop
  endfacet
  facet normal 0 0 1
    outer loop
      vertex -0.498102 -3.46437 14
      vertex -3.35823 0.986064 14
      vertex -2.29201 -2.64512 14
    endloop
  endfacet
  facet normal 0 0 1
    outer loop
      vertex 2.94439 -1.89224 14
      vertex -3.35823 0.986064 14
      vertex 1.45395 -3.18371 14
    endloop
  endfacet
  facet normal 0 0 1
    outer loop
      vertex 3.5 0 14
      vertex -3.35823 0.986064 14
      vertex 2.94439 -1.89224 14
    endloop
  endfacet
  facet normal 0 0 1
    outer loop
      vertex 2.94439 1.89224 14
      vertex -3.35823 0.986064 14
      vertex 3.5 0 14
    endloop
  endfacet
  facet normal 0 0 1
    outer loop
      vertex 1.45395 3.18371 14
      vertex -3.35823 0.986064 14
      vertex 2.94439 1.89224 14
    endloop
  endfacet
  facet normal 0 0 1
    outer loop
      vertex -0.498102 3.46437 14
      vertex -3.35823 0.986064 14
      vertex 1.45395 3.18371 14
    endloop
  endfacet
  facet normal 0 0 1
    outer loop
      vertex -2.29201 2.64512 14
      vertex -3.35823 0.986064 14
      vertex -0.498102 3.46437 14
    endloop
  endfacet
  facet normal 0 0 1
    outer loop
      vertex 33.5657 0.986064 14
      vertex 33.5657 -0.986064 14
      vertex 34.6319 -2.64512 14
    endloop
  endfacet
  facet normal 0 0 1
    outer loop
      vertex 38.3779 -3.18371 14
      vertex 33.5657 0.986064 14
      vertex 36.4258 -3.46437 14
    endloop
  endfacet
  facet normal 0 0 1
    outer loop
      vertex 36.4258 -3.46437 14
      vertex 33.5657 0.986064 14
      vertex 34.6319 -2.64512 14
    endloop
  endfacet
  facet normal 0 0 1
    outer loop
      vertex 39.8683 -1.89224 14
      vertex 33.5657 0.986064 14
      vertex 38.3779 -3.18371 14
    endloop
  endfacet
  facet normal 0 0 1
    outer loop
      vertex 40.4239 0 14
      vertex 33.5657 0.986064 14
      vertex 39.8683 -1.89224 14
    endloop
  endfacet
  facet normal 0 0 1
    outer loop
      vertex 39.8683 1.89224 14
      vertex 33.5657 0.986064 14
      vertex 40.4239 0 14
    endloop
  endfacet
  facet normal 0 0 1
    outer loop
      vertex 38.3779 3.18371 14
      vertex 33.5657 0.986064 14
      vertex 39.8683 1.89224 14
    endloop
  endfacet
  facet normal 0 0 1
    outer loop
      vertex 36.4258 3.46437 14
      vertex 33.5657 0.986064 14
      vertex 38.3779 3.18371 14
    endloop
  endfacet
  facet normal 0 0 1
    outer loop
      vertex 34.6319 2.64512 14
      vertex 33.5657 0.986064 14
      vertex 36.4258 3.46437 14
    endloop
  endfacet
endsolid OpenSCAD_Model
