  0
SECTION
  2
HEADER
  9
$ACADVER
  1
AC1032
  9
$ACADMAINTVER
 90
4
  9
$DWGCODEPAGE
  3
ANSI_1252
  9
$LASTSAVEDBY
  1
ezdxf
  9
$REQUIREDVERSIONS
160
0
  9
$INSBASE
 10
0.0
 20
0.0
 30
0.0
  9
$EXTMIN
 10
1e+20
 20
1e+20
 30
1e+20
  9
$EXTMAX
 10
-1e+20
 20
-1e+20
 30
-1e+20
  9
$LIMMIN
 10
0.0
 20
0.0
  9
$LIMMAX
 10
420.0
 20
297.0
  9
$ORTHOMODE
 70
0
  9
$REGENMODE
 70
1
  9
$FILLMODE
 70
1
  9
$QTEXTMODE
 70
0
  9
$MIRRTEXT
 70
1
  9
$LTSCALE
 40
1.0
  9
$ATTMODE
 70
1
  9
$TEXTSIZE
 40
2.5
  9
$TRACEWID
 40
1.0
  9
$TEXTSTYLE
  7
Standard
  9
$CLAYER
  8
0
  9
$CELTYPE
  6
ByLayer
  9
$CECOLOR
 62
256
  9
$CELTSCALE
 40
1.0
  9
$DISPSILH
 70
0
  9
$DIMSCALE
 40
1.0
  9
$DIMASZ
 40
2.5
  9
$DIMEXO
 40
0.625
  9
$DIMDLI
 40
3.75
  9
$DIMRND
 40
0.0
  9
$DIMDLE
 40
0.0
  9
$DIMEXE
 40
1.25
  9
$DIMTP
 40
0.0
  9
$DIMTM
 40
0.0
  9
$DIMTXT
 40
2.5
  9
$DIMCEN
 40
2.5
  9
$DIMTSZ
 40
0.0
  9
$DIMTOL
 70
0
  9
$DIMLIM
 70
0
  9
$DIMTIH
 70
0
  9
$DIMTOH
 70
0
  9
$DIMSE1
 70
0
  9
$DIMSE2
 70
0
  9
$DIMTAD
 70
1
  9
$DIMZIN
 70
8
  9
$DIMBLK
  1

  9
$DIMASO
 70
1
  9
$DIMSHO
 70
1
  9
$DIMPOST
  1

  9
$DIMAPOST
  1

  9
$DIMALT
 70
0
  9
$DIMALTD
 70
3
  9
$DIMALTF
 40
0.03937007874
  9
$DIMLFAC
 40
1.0
  9
$DIMTOFL
 70
1
  9
$DIMTVP
 40
0.0
  9
$DIMTIX
 70
0
  9
$DIMSOXD
 70
0
  9
$DIMSAH
 70
0
  9
$DIMBLK1
  1

  9
$DIMBLK2
  1

  9
$DIMSTYLE
  2
ISO-25
  9
$DIMCLRD
 70
0
  9
$DIMCLRE
 70
0
  9
$DIMCLRT
 70
0
  9
$DIMTFAC
 40
1.0
  9
$DIMGAP
 40
0.625
  9
$DIMJUST
 70
0
  9
$DIMSD1
 70
0
  9
$DIMSD2
 70
0
  9
$DIMTOLJ
 70
0
  9
$DIMTZIN
 70
8
  9
$DIMALTZ
 70
0
  9
$DIMALTTZ
 70
0
  9
$DIMUPT
 70
0
  9
$DIMDEC
 70
2
  9
$DIMTDEC
 70
2
  9
$DIMALTU
 70
2
  9
$DIMALTTD
 70
3
  9
$DIMTXSTY
  7
Standard
  9
$DIMAUNIT
 70
0
  9
$DIMADEC
 70
0
  9
$DIMALTRND
 40
0.0
  9
$DIMAZIN
 70
0
  9
$DIMDSEP
 70
44
  9
$DIMATFIT
 70
3
  9
$DIMFRAC
 70
0
  9
$DIMLDRBLK
  1

  9
$DIMLUNIT
 70
2
  9
$DIMLWD
 70
-2
  9
$DIMLWE
 70
-2
  9
$DIMTMOVE
 70
0
  9
$DIMFXL
 40
1.0
  9
$DIMFXLON
 70
0
  9
$DIMJOGANG
 40
0.785398163397
  9
$DIMTFILL
 70
0
  9
$DIMTFILLCLR
 70
0
  9
$DIMARCSYM
 70
0
  9
$DIMLTYPE
  6

  9
$DIMLTEX1
  6

  9
$DIMLTEX2
  6

  9
$DIMTXTDIRECTION
 70
0
  9
$LUNITS
 70
2
  9
$LUPREC
 70
4
  9
$SKETCHINC
 40
1.0
  9
$FILLETRAD
 40
10.0
  9
$AUNITS
 70
0
  9
$AUPREC
 70
2
  9
$MENU
  1
.
  9
$ELEVATION
 40
0.0
  9
$PELEVATION
 40
0.0
  9
$THICKNESS
 40
0.0
  9
$LIMCHECK
 70
0
  9
$CHAMFERA
 40
0.0
  9
$CHAMFERB
 40
0.0
  9
$CHAMFERC
 40
0.0
  9
$CHAMFERD
 40
0.0
  9
$SKPOLY
 70
0
  9
$TDCREATE
 40
2460923.613935185
  9
$TDUCREATE
 40
2458532.153996898
  9
$TDUPDATE
 40
2460923.613935185
  9
$TDUUPDATE
 40
2458532.1544311
  9
$TDINDWG
 40
0.0
  9
$TDUSRTIMER
 40
0.0
  9
$USRTIMER
 70
1
  9
$ANGBASE
 50
0.0
  9
$ANGDIR
 70
0
  9
$PDMODE
 70
0
  9
$PDSIZE
 40
0.0
  9
$PLINEWID
 40
0.0
  9
$SPLFRAME
 70
0
  9
$SPLINETYPE
 70
6
  9
$SPLINESEGS
 70
8
  9
$HANDSEED
  5
40
  9
$SURFTAB1
 70
6
  9
$SURFTAB2
 70
6
  9
$SURFTYPE
 70
6
  9
$SURFU
 70
6
  9
$SURFV
 70
6
  9
$UCSBASE
  2

  9
$UCSNAME
  2

  9
$UCSORG
 10
0.0
 20
0.0
 30
0.0
  9
$UCSXDIR
 10
1.0
 20
0.0
 30
0.0
  9
$UCSYDIR
 10
0.0
 20
1.0
 30
0.0
  9
$UCSORTHOREF
  2

  9
$UCSORTHOVIEW
 70
0
  9
$UCSORGTOP
 10
0.0
 20
0.0
 30
0.0
  9
$UCSORGBOTTOM
 10
0.0
 20
0.0
 30
0.0
  9
$UCSORGLEFT
 10
0.0
 20
0.0
 30
0.0
  9
$UCSORGRIGHT
 10
0.0
 20
0.0
 30
0.0
  9
$UCSORGFRONT
 10
0.0
 20
0.0
 30
0.0
  9
$UCSORGBACK
 10
0.0
 20
0.0
 30
0.0
  9
$PUCSBASE
  2

  9
$PUCSNAME
  2

  9
$PUCSORG
 10
0.0
 20
0.0
 30
0.0
  9
$PUCSXDIR
 10
1.0
 20
0.0
 30
0.0
  9
$PUCSYDIR
 10
0.0
 20
1.0
 30
0.0
  9
$PUCSORTHOREF
  2

  9
$PUCSORTHOVIEW
 70
0
  9
$PUCSORGTOP
 10
0.0
 20
0.0
 30
0.0
  9
$PUCSORGBOTTOM
 10
0.0
 20
0.0
 30
0.0
  9
$PUCSORGLEFT
 10
0.0
 20
0.0
 30
0.0
  9
$PUCSORGRIGHT
 10
0.0
 20
0.0
 30
0.0
  9
$PUCSORGFRONT
 10
0.0
 20
0.0
 30
0.0
  9
$PUCSORGBACK
 10
0.0
 20
0.0
 30
0.0
  9
$USERI1
 70
0
  9
$USERI2
 70
0
  9
$USERI3
 70
0
  9
$USERI4
 70
0
  9
$USERI5
 70
0
  9
$USERR1
 40
0.0
  9
$USERR2
 40
0.0
  9
$USERR3
 40
0.0
  9
$USERR4
 40
0.0
  9
$USERR5
 40
0.0
  9
$WORLDVIEW
 70
1
  9
$SHADEDGE
 70
3
  9
$SHADEDIF
 70
70
  9
$TILEMODE
 70
1
  9
$MAXACTVP
 70
64
  9
$PINSBASE
 10
0.0
 20
0.0
 30
0.0
  9
$PLIMCHECK
 70
0
  9
$PEXTMIN
 10
1e+20
 20
1e+20
 30
1e+20
  9
$PEXTMAX
 10
-1e+20
 20
-1e+20
 30
-1e+20
  9
$PLIMMIN
 10
0.0
 20
0.0
  9
$PLIMMAX
 10
420.0
 20
297.0
  9
$UNITMODE
 70
0
  9
$VISRETAIN
 70
1
  9
$PLINEGEN
 70
0
  9
$PSLTSCALE
 70
1
  9
$TREEDEPTH
 70
3020
  9
$CMLSTYLE
  2
Standard
  9
$CMLJUST
 70
0
  9
$CMLSCALE
 40
20.0
  9
$PROXYGRAPHICS
 70
1
  9
$MEASUREMENT
 70
1
  9
$CELWEIGHT
370
-1
  9
$ENDCAPS
280
0
  9
$JOINSTYLE
280
0
  9
$LWDISPLAY
290
0
  9
$INSUNITS
 70
4
  9
$HYPERLINKBASE
  1

  9
$STYLESHEET
  1

  9
$XEDIT
290
1
  9
$CEPSNTYPE
380
0
  9
$PSTYLEMODE
290
1
  9
$FINGERPRINTGUID
  2
{BBD38752-D045-4373-8ED1-D8C8CD4E5FA8}
  9
$VERSIONGUID
  2
{C8FB7EB2-09DF-44EE-806E-905F16541A6E}
  9
$EXTNAMES
290
1
  9
$PSVPSCALE
 40
0.0
  9
$OLESTARTUP
290
0
  9
$SORTENTS
280
127
  9
$INDEXCTL
280
0
  9
$HIDETEXT
280
1
  9
$XCLIPFRAME
280
1
  9
$HALOGAP
280
0
  9
$OBSCOLOR
 70
257
  9
$OBSLTYPE
280
0
  9
$INTERSECTIONDISPLAY
280
0
  9
$INTERSECTIONCOLOR
 70
257
  9
$DIMASSOC
280
2
  9
$PROJECTNAME
  1

  9
$CAMERADISPLAY
290
0
  9
$LENSLENGTH
 40
50.0
  9
$CAMERAHEIGHT
 40
0.0
  9
$STEPSPERSEC
 40
24.0
  9
$STEPSIZE
 40
100.0
  9
$3DDWFPREC
 40
2.0
  9
$PSOLWIDTH
 40
0.005
  9
$PSOLHEIGHT
 40
0.08
  9
$LOFTANG1
 40
1.570796326795
  9
$LOFTANG2
 40
1.570796326795
  9
$LOFTMAG1
 40
0.0
  9
$LOFTMAG2
 40
0.0
  9
$LOFTPARAM
 70
7
  9
$LOFTNORMALS
280
1
  9
$LATITUDE
 40
37.795
  9
$LONGITUDE
 40
-122.394
  9
$NORTHDIRECTION
 40
0.0
  9
$TIMEZONE
 70
-8000
  9
$LIGHTGLYPHDISPLAY
280
1
  9
$TILEMODELIGHTSYNCH
280
1
  9
$CMATERIAL
347
20
  9
$SOLIDHIST
280
0
  9
$SHOWHIST
280
1
  9
$DWFFRAME
280
2
  9
$DGNFRAME
280
2
  9
$REALWORLDSCALE
290
1
  9
$INTERFERECOLOR
 62
256
  9
$CSHADOW
280
0
  9
$SHADOWPLANELOCATION
 40
0.0
  0
ENDSEC
  0
SECTION
  2
CLASSES
  0
CLASS
  1
ACDBDICTIONARYWDFLT
  2
AcDbDictionaryWithDefault
  3
ObjectDBX Classes
 90
0
 91
0
280
0
281
0
  0
CLASS
  1
SUN
  2
AcDbSun
  3
SCENEOE
 90
1153
 91
0
280
0
281
0
  0
CLASS
  1
VISUALSTYLE
  2
AcDbVisualStyle
  3
ObjectDBX Classes
 90
4095
 91
0
280
0
281
0
  0
CLASS
  1
MATERIAL
  2
AcDbMaterial
  3
ObjectDBX Classes
 90
1153
 91
0
280
0
281
0
  0
CLASS
  1
SCALE
  2
AcDbScale
  3
ObjectDBX Classes
 90
1153
 91
0
280
0
281
0
  0
CLASS
  1
TABLESTYLE
  2
AcDbTableStyle
  3
ObjectDBX Classes
 90
4095
 91
0
280
0
281
0
  0
CLASS
  1
MLEADERSTYLE
  2
AcDbMLeaderStyle
  3
ACDB_MLEADERSTYLE_CLASS
 90
4095
 91
0
280
0
281
0
  0
CLASS
  1
DICTIONARYVAR
  2
AcDbDictionaryVar
  3
ObjectDBX Classes
 90
0
 91
0
280
0
281
0
  0
CLASS
  1
CELLSTYLEMAP
  2
AcDbCellStyleMap
  3
ObjectDBX Classes
 90
1152
 91
0
280
0
281
0
  0
CLASS
  1
MENTALRAYRENDERSETTINGS
  2
AcDbMentalRayRenderSettings
  3
SCENEOE
 90
1024
 91
0
280
0
281
0
  0
CLASS
  1
ACDBDETAILVIEWSTYLE
  2
AcDbDetailViewStyle
  3
ObjectDBX Classes
 90
1025
 91
0
280
0
281
0
  0
CLASS
  1
ACDBSECTIONVIEWSTYLE
  2
AcDbSectionViewStyle
  3
ObjectDBX Classes
 90
1025
 91
0
280
0
281
0
  0
CLASS
  1
RASTERVARIABLES
  2
AcDbRasterVariables
  3
ISM
 90
0
 91
0
280
0
281
0
  0
CLASS
  1
ACDBPLACEHOLDER
  2
AcDbPlaceHolder
  3
ObjectDBX Classes
 90
0
 91
0
280
0
281
0
  0
CLASS
  1
LAYOUT
  2
AcDbLayout
  3
ObjectDBX Classes
 90
0
 91
0
280
0
281
0
  0
ENDSEC
  0
SECTION
  2
TABLES
  0
TABLE
  2
VPORT
  5
8
330
0
100
AcDbSymbolTable
 70
1
  0
VPORT
  5
23
330
8
100
AcDbSymbolTableRecord
100
AcDbViewportTableRecord
  2
*Active
 70
0
 10
0.0
 20
0.0
 11
1.0
 21
1.0
 12
0.0
 22
0.0
 13
0.0
 23
0.0
 14
0.5
 24
0.5
 15
0.5
 25
0.5
 16
0.0
 26
0.0
 36
1.0
 17
0.0
 27
0.0
 37
0.0
 40
1000.0
 41
1.34
 42
50.0
 43
0.0
 44
0.0
 50
0.0
 51
0.0
 71
0
 72
1000
 73
1
 74
3
 75
0
 76
0
 77
0
 78
0
281
0
 65
0
146
0.0
  0
ENDTAB
  0
TABLE
  2
LTYPE
  5
2
330
0
100
AcDbSymbolTable
 70
3
  0
LTYPE
  5
24
330
2
100
AcDbSymbolTableRecord
100
AcDbLinetypeTableRecord
  2
ByBlock
 70
0
  3

 72
65
 73
0
 40
0.0
  0
LTYPE
  5
25
330
2
100
AcDbSymbolTableRecord
100
AcDbLinetypeTableRecord
  2
ByLayer
 70
0
  3

 72
65
 73
0
 40
0.0
  0
LTYPE
  5
26
330
2
100
AcDbSymbolTableRecord
100
AcDbLinetypeTableRecord
  2
Continuous
 70
0
  3

 72
65
 73
0
 40
0.0
  0
ENDTAB
  0
TABLE
  2
LAYER
  5
1
330
0
100
AcDbSymbolTable
 70
2
  0
LAYER
  5
27
330
1
100
AcDbSymbolTableRecord
100
AcDbLayerTableRecord
  2
0
 70
0
 62
7
  6
Continuous
370
-3
390
13
347
21
  0
LAYER
  5
28
330
1
100
AcDbSymbolTableRecord
100
AcDbLayerTableRecord
  2
Defpoints
 70
0
 62
7
  6
Continuous
290
0
370
-3
390
13
347
21
  0
ENDTAB
  0
TABLE
  2
STYLE
  5
5
330
0
100
AcDbSymbolTable
 70
1
  0
STYLE
  5
29
330
5
100
AcDbSymbolTableRecord
100
AcDbTextStyleTableRecord
  2
Standard
 70
0
 40
0.0
 41
1.0
 50
0.0
 71
0
 42
2.5
  3
txt
  4

  0
ENDTAB
  0
TABLE
  2
VIEW
  5
7
330
0
100
AcDbSymbolTable
 70
0
  0
ENDTAB
  0
TABLE
  2
UCS
  5
6
330
0
100
AcDbSymbolTable
 70
0
  0
ENDTAB
  0
TABLE
  2
APPID
  5
3
330
0
100
AcDbSymbolTable
 70
3
  0
APPID
  5
2A
330
3
100
AcDbSymbolTableRecord
100
AcDbRegAppTableRecord
  2
ACAD
 70
0
  0
APPID
  5
3D
330
3
100
AcDbSymbolTableRecord
100
AcDbRegAppTableRecord
  2
HATCHBACKGROUNDCOLOR
 70
0
  0
APPID
  5
3E
330
3
100
AcDbSymbolTableRecord
100
AcDbRegAppTableRecord
  2
EZDXF
 70
0
  0
ENDTAB
  0
TABLE
  2
DIMSTYLE
  5
4
330
0
100
AcDbSymbolTable
 70
1
100
AcDbDimStyleTable
  0
DIMSTYLE
105
2B
330
4
100
AcDbSymbolTableRecord
100
AcDbDimStyleTableRecord
  2
Standard
 70
0
 40
1.0
 41
2.5
 42
0.625
 43
3.75
 44
1.25
 45
0.0
 46
0.0
 47
0.0
 48
0.0
 49
2.5
140
2.5
141
2.5
142
0.0
143
0.03937007874
144
1.0
145
0.0
146
1.0
147
0.625
148
0.0
 69
0
 70
0
 71
0
 72
0
 73
0
 74
0
 75
0
 76
0
 77
1
 78
8
 79
3
170
0
171
3
172
1
173
0
174
0
175
0
176
0
177
0
178
0
179
2
271
2
272
2
273
2
274
3
275
0
276
0
277
2
278
44
279
0
280
0
281
0
282
0
283
0
284
8
285
0
286
0
288
0
289
3
290
0
371
-2
372
-2
  0
ENDTAB
  0
TABLE
  2
BLOCK_RECORD
  5
9
330
0
100
AcDbSymbolTable
 70
2
  0
BLOCK_RECORD
  5
17
330
9
100
AcDbSymbolTableRecord
100
AcDbBlockTableRecord
  2
*Model_Space
340
1A
 70
0
280
1
281
0
  0
BLOCK_RECORD
  5
1B
330
9
100
AcDbSymbolTableRecord
100
AcDbBlockTableRecord
  2
*Paper_Space
340
1E
 70
0
280
1
281
0
  0
ENDTAB
  0
ENDSEC
  0
SECTION
  2
BLOCKS
  0
BLOCK
  5
18
330
17
100
AcDbEntity
  8
0
100
AcDbBlockBegin
  2
*Model_Space
 70
0
 10
0.0
 20
0.0
 30
0.0
  3
*Model_Space
  1

  0
ENDBLK
  5
19
330
17
100
AcDbEntity
  8
0
100
AcDbBlockEnd
  0
BLOCK
  5
1C
330
1B
100
AcDbEntity
  8
0
100
AcDbBlockBegin
  2
*Paper_Space
 70
0
 10
0.0
 20
0.0
 30
0.0
  3
*Paper_Space
  1

  0
ENDBLK
  5
1D
330
1B
100
AcDbEntity
  8
0
100
AcDbBlockEnd
  0
ENDSEC
  0
SECTION
  2
ENTITIES
  0
LWPOLYLINE
  5
2F
330
17
100
AcDbEntity
  8
0
 62
0
100
AcDbPolyline
 90
65
 70
0
 10
9.869679026651719
 20
-32.5359714148951
 10
6.633070948548363
 20
-33.34669953370984
 10
3.3325827712050664
 20
-33.836280706854694
 10
2.0818995585505003e-15
 20
-34.0
 10
-3.332582771205062
 20
-33.836280706854694
 10
-6.633070948548358
 20
-33.34669953370984
 10
-9.869679026651713
 20
-32.5359714148951
 10
-13.01123670041305
 20
-31.411904105383748
 10
-16.027489052083922
 20
-29.98532298784407
 10
-18.889387922666465
 20
-28.26996681828654
 10
-21.56937166156394
 20
-26.28235541433306
 10
-24.041630560342615
 20
-24.041630560342618
 10
-26.282355414333058
 20
-21.569371661563945
 10
-28.26996681828654
 20
-18.889387922666472
 10
-29.985322987844068
 20
-16.027489052083926
 10
-31.411904105383748
 20
-13.011236700413056
 10
-32.5359714148951
 20
-9.86967902665172
 10
-33.34669953370984
 20
-6.633070948548372
 10
-33.836280706854694
 20
-3.332582771205068
 10
-34.0
 20
-4.1637991171010006e-15
 10
-33.836280706854694
 20
3.33258277120506
 10
-33.34669953370984
 20
6.633070948548364
 10
-32.5359714148951
 20
9.869679026651712
 10
-31.41190410538375
 20
13.011236700413049
 10
-29.98532298784407
 20
16.02748905208392
 10
-28.269966818286544
 20
18.889387922666465
 10
-26.28235541433306
 20
21.569371661563938
 10
-24.04163056034262
 20
24.041630560342615
 10
-21.569371661563963
 20
26.282355414333047
 10
-18.889387922666472
 20
28.269966818286537
 10
-16.027489052083926
 20
29.985322987844068
 10
-13.011236700413072
 20
31.41190410538374
 10
-9.869679026651722
 20
32.5359714148951
 10
-6.633070948548375
 20
33.34669953370983
 10
-3.3325827712050553
 20
33.836280706854694
 10
-6.245698675651501e-15
 20
34.0
 10
3.332582771205043
 20
33.836280706854694
 10
6.6330709485483625
 20
33.34669953370984
 10
9.86967902665171
 20
32.5359714148951
 10
13.01123670041306
 20
31.411904105383744
 10
16.02748905208392
 20
29.98532298784407
 10
18.88938792266646
 20
28.269966818286544
 10
21.56937166156395
 20
26.282355414333054
 10
24.04163056034261
 20
24.04163056034262
 10
26.282355414333043
 20
21.569371661563963
 10
28.269966818286537
 20
18.889387922666472
 10
29.985322987844064
 20
16.02748905208393
 10
31.41190410538374
 20
13.011236700413074
 10
32.5359714148951
 20
9.869679026651724
 10
33.34669953370983
 20
6.633070948548377
 10
33.836280706854694
 20
3.332582771205057
 10
34.0
 20
0.0
 10
33.836280706854694
 20
-3.3325827712050606
 10
33.34669953370984
 20
-6.633070948548361
 10
32.5359714148951
 20
-9.869679026651719
 10
31.411904105383748
 20
-13.011236700413052
 10
29.98532298784407
 20
-16.02748905208392
 10
28.269966818286537
 20
-18.889387922666472
 10
26.282355414333058
 20
-21.569371661563945
 10
24.041630560342618
 20
-24.041630560342618
 10
21.569371661563945
 20
-26.282355414333054
 10
18.88938792266648
 20
-28.269966818286537
 10
16.027489052083926
 20
-29.985322987844068
 10
13.011236700413054
 20
-31.411904105383748
 10
9.869679026651719
 20
-32.5359714148951
  0
LWPOLYLINE
  5
30
330
17
100
AcDbEntity
  8
0
 62
0
100
AcDbPolyline
 90
65
 70
0
 10
0.986967902665171
 20
3.2535971414895104
 10
0.6633070948548362
 20
3.3346699533709834
 10
0.3332582771205043
 20
3.3836280706854693
 10
-6.245698675651501e-16
 20
3.4
 10
-0.33325827712050554
 20
3.3836280706854693
 10
-0.6633070948548374
 20
3.334669953370983
 10
-0.9869679026651723
 20
3.25359714148951
 10
-1.3011236700413071
 20
3.141190410538374
 10
-1.6027489052083927
 20
2.9985322987844065
 10
-1.8889387922666474
 20
2.826996681828654
 10
-2.1569371661563963
 20
2.6282355414333045
 10
-2.404163056034262
 20
2.4041630560342613
 10
-2.6282355414333063
 20
2.1569371661563936
 10
-2.8269966818286543
 20
1.8889387922666465
 10
-2.998532298784407
 20
1.6027489052083919
 10
-3.141190410538375
 20
1.301123670041305
 10
-3.2535971414895104
 20
0.9869679026651711
 10
-3.3346699533709834
 20
0.6633070948548364
 10
-3.3836280706854693
 20
0.333258277120506
 10
-3.4
 20
-4.1637991171010006e-16
 10
-3.383628070685469
 20
-0.3332582771205068
 10
-3.3346699533709834
 20
-0.6633070948548373
 10
-3.25359714148951
 20
-0.9869679026651721
 10
-3.1411904105383748
 20
-1.3011236700413056
 10
-2.9985322987844065
 20
-1.6027489052083925
 10
-2.8269966818286543
 20
-1.8889387922666474
 10
-2.628235541433306
 20
-2.1569371661563945
 10
-2.4041630560342613
 20
-2.4041630560342617
 10
-2.156937166156394
 20
-2.6282355414333063
 10
-1.8889387922666465
 20
-2.8269966818286543
 10
-1.602748905208392
 20
-2.998532298784407
 10
-1.3011236700413051
 20
-3.1411904105383748
 10
-0.9869679026651713
 20
-3.2535971414895104
 10
-0.6633070948548359
 20
-3.3346699533709834
 10
-0.3332582771205062
 20
-3.3836280706854693
 10
2.0818995585505003e-16
 20
-3.4
 10
0.3332582771205066
 20
-3.383628070685469
 10
0.6633070948548363
 20
-3.3346699533709834
 10
0.9869679026651719
 20
-3.2535971414895104
 10
1.3011236700413054
 20
-3.1411904105383748
 10
1.6027489052083925
 20
-2.9985322987844065
 10
1.8889387922666476
 20
-2.826996681828654
 10
2.1569371661563945
 20
-2.6282355414333054
 10
2.4041630560342617
 20
-2.4041630560342617
 10
2.628235541433306
 20
-2.1569371661563945
 10
2.826996681828654
 20
-1.8889387922666474
 10
2.998532298784407
 20
-1.6027489052083919
 10
3.1411904105383748
 20
-1.3011236700413051
 10
3.25359714148951
 20
-0.9869679026651719
 10
3.3346699533709834
 20
-0.6633070948548361
 10
3.3836280706854693
 20
-0.33325827712050604
 10
3.4
 20
0.0
 10
3.3836280706854693
 20
0.3332582771205057
 10
3.334669953370983
 20
0.6633070948548376
 10
3.25359714148951
 20
0.9869679026651724
 10
3.141190410538374
 20
1.3011236700413074
 10
2.9985322987844065
 20
1.602748905208393
 10
2.826996681828654
 20
1.8889387922666474
 10
2.628235541433304
 20
2.1569371661563963
 10
2.404163056034261
 20
2.404163056034262
 10
2.156937166156395
 20
2.6282355414333054
 10
1.8889387922666463
 20
2.8269966818286543
 10
1.6027489052083919
 20
2.998532298784407
 10
1.301123670041306
 20
3.1411904105383743
 10
0.986967902665171
 20
3.2535971414895104
  0
LWPOLYLINE
  5
31
330
17
100
AcDbEntity
  8
0
 62
0
100
AcDbPolyline
 90
65
 70
0
 10
22.574025148547634
 20
1.38581929876693
 10
22.435427015881693
 20
1.4354105035983133
 10
22.292635483024192
 20
1.4711779206048456
 10
22.14702571049434
 20
1.4927770900082953
 10
22.0
 20
1.5
 10
21.85297428950566
 20
1.4927770900082953
 10
21.707364516975808
 20
1.4711779206048454
 10
21.564572984118307
 20
1.4354105035983133
 10
21.425974851452363
 20
1.3858192987669298
 10
21.292904894761005
 20
1.3228818965225324
 10
21.166644650470598
 20
1.2472044184538178
 10
21.048410073754532
 20
1.1595156800441049
 10
20.939339828220177
 20
1.0606601717798212
 10
20.840484319955895
 20
0.9515899262454679
 10
20.75279558154618
 20
0.8333553495294029
 10
20.67711810347747
 20
0.7070951052389964
 10
20.61418070123307
 20
0.5740251485476345
 10
20.564589496401688
 20
0.4354270158816932
 10
20.528822079395155
 20
0.2926354830241925
 10
20.507222909991704
 20
0.14702571049434088
 10
20.5
 20
-1.8369701987210297e-16
 10
20.507222909991704
 20
-0.14702571049434124
 10
20.528822079395155
 20
-0.2926354830241929
 10
20.564589496401688
 20
-0.4354270158816936
 10
20.61418070123307
 20
-0.5740251485476349
 10
20.67711810347747
 20
-0.7070951052389967
 10
20.75279558154618
 20
-0.8333553495294033
 10
20.840484319955895
 20
-0.9515899262454682
 10
20.939339828220177
 20
-1.0606601717798214
 10
21.048410073754532
 20
-1.1595156800441058
 10
21.166644650470598
 20
-1.247204418453818
 10
21.292904894761005
 20
-1.3228818965225326
 10
21.425974851452366
 20
-1.38581929876693
 10
21.564572984118307
 20
-1.4354105035983133
 10
21.707364516975808
 20
-1.4711779206048456
 10
21.85297428950566
 20
-1.4927770900082953
 10
22.0
 20
-1.5
 10
22.14702571049434
 20
-1.4927770900082953
 10
22.292635483024192
 20
-1.4711779206048456
 10
22.435427015881693
 20
-1.4354105035983133
 10
22.574025148547634
 20
-1.38581929876693
 10
22.707095105238995
 20
-1.3228818965225324
 10
22.833355349529402
 20
-1.2472044184538178
 10
22.951589926245468
 20
-1.1595156800441053
 10
23.060660171779823
 20
-1.0606601717798214
 10
23.159515680044105
 20
-0.9515899262454682
 10
23.24720441845382
 20
-0.8333553495294033
 10
23.32288189652253
 20
-0.7070951052389964
 10
23.38581929876693
 20
-0.5740251485476346
 10
23.435410503598312
 20
-0.4354270158816935
 10
23.471177920604845
 20
-0.2926354830241924
 10
23.492777090008296
 20
-0.1470257104943409
 10
23.5
 20
0.0
 10
23.492777090008296
 20
0.14702571049434077
 10
23.471177920604845
 20
0.29263548302419307
 10
23.435410503598312
 20
0.43542701588169375
 10
23.38581929876693
 20
0.5740251485476355
 10
23.32288189652253
 20
0.7070951052389969
 10
23.24720441845382
 20
0.8333553495294033
 10
23.159515680044105
 20
0.9515899262454689
 10
23.060660171779823
 20
1.0606601717798214
 10
22.951589926245468
 20
1.1595156800441053
 10
22.833355349529402
 20
1.2472044184538182
 10
22.707095105238995
 20
1.3228818965225326
 10
22.574025148547634
 20
1.38581929876693
  0
LWPOLYLINE
  5
32
330
17
100
AcDbEntity
  8
0
 62
0
100
AcDbPolyline
 90
65
 70
0
 10
19.75965398849665
 20
12.322881896522532
 10
19.626584031805287
 20
12.385819298766929
 10
19.487985899139346
 20
12.435410503598312
 10
19.345194366281845
 20
12.471177920604845
 10
19.199584593751993
 20
12.492777090008293
 10
19.052558883257653
 20
12.499999999999998
 10
18.905533172763313
 20
12.492777090008293
 10
18.75992340023346
 20
12.471177920604843
 10
18.61713186737596
 20
12.435410503598312
 10
18.478533734710016
 20
12.385819298766927
 10
18.345463778018658
 20
12.322881896522532
 10
18.21920353372825
 20
12.247204418453816
 10
18.100968957012185
 20
12.159515680044104
 10
17.99189871147783
 20
12.06066017177982
 10
17.893043203213548
 20
11.951589926245466
 10
17.805354464803834
 20
11.833355349529402
 10
17.72967698673512
 20
11.707095105238995
 10
17.666739584490724
 20
11.574025148547634
 10
17.61714837965934
 20
11.435427015881691
 10
17.58138096265281
 20
11.29263548302419
 10
17.559781793249357
 20
11.14702571049434
 10
17.552558883257653
 20
10.999999999999998
 10
17.559781793249357
 20
10.852974289505656
 10
17.58138096265281
 20
10.707364516975804
 10
17.61714837965934
 20
10.564572984118305
 10
17.666739584490724
 20
10.425974851452363
 10
17.72967698673512
 20
10.292904894761001
 10
17.805354464803834
 20
10.166644650470595
 10
17.893043203213548
 20
10.04841007375453
 10
17.99189871147783
 20
9.939339828220177
 10
18.100968957012185
 20
9.840484319955893
 10
18.21920353372825
 20
9.75279558154618
 10
18.345463778018658
 20
9.677118103477465
 10
18.47853373471002
 20
9.614180701233067
 10
18.61713186737596
 20
9.564589496401684
 10
18.75992340023346
 20
9.528822079395152
 10
18.905533172763313
 20
9.507222909991704
 10
19.052558883257653
 20
9.499999999999998
 10
19.199584593751993
 20
9.507222909991704
 10
19.345194366281845
 20
9.528822079395152
 10
19.487985899139346
 20
9.564589496401684
 10
19.626584031805287
 20
9.614180701233067
 10
19.75965398849665
 20
9.677118103477465
 10
19.885914232787055
 20
9.75279558154618
 10
20.00414880950312
 20
9.840484319955893
 10
20.113219055037476
 20
9.939339828220177
 10
20.21207456330176
 20
10.04841007375453
 10
20.299763301711472
 20
10.166644650470595
 10
20.375440779780185
 20
10.292904894761001
 10
20.438378182024582
 20
10.425974851452363
 10
20.487969386855966
 20
10.564572984118305
 10
20.523736803862498
 20
10.707364516975806
 10
20.54533597326595
 20
10.852974289505656
 10
20.552558883257653
 20
10.999999999999998
 10
20.54533597326595
 20
11.147025710494338
 10
20.523736803862498
 20
11.292635483024192
 10
20.487969386855966
 20
11.435427015881691
 10
20.438378182024582
 20
11.574025148547634
 10
20.375440779780185
 20
11.707095105238995
 10
20.299763301711472
 20
11.833355349529402
 10
20.21207456330176
 20
11.951589926245466
 10
20.113219055037476
 20
12.06066017177982
 10
20.00414880950312
 20
12.159515680044104
 10
19.885914232787055
 20
12.247204418453816
 10
19.75965398849665
 20
12.322881896522532
  0
LWPOLYLINE
  5
33
330
17
100
AcDbEntity
  8
0
 62
0
100
AcDbPolyline
 90
65
 70
0
 10
11.833355349529405
 20
20.29976330171147
 10
11.707095105238999
 20
20.37544077978018
 10
11.574025148547637
 20
20.43837818202458
 10
11.435427015881695
 20
20.487969386855962
 10
11.292635483024194
 20
20.523736803862494
 10
11.147025710494342
 20
20.545335973265946
 10
11.000000000000002
 20
20.55255888325765
 10
10.852974289505662
 20
20.545335973265946
 10
10.707364516975808
 20
20.523736803862494
 10
10.564572984118309
 20
20.487969386855962
 10
10.425974851452366
 20
20.43837818202458
 10
10.292904894761005
 20
20.37544077978018
 10
10.166644650470598
 20
20.29976330171147
 10
10.048410073754534
 20
20.212074563301755
 10
9.93933982822018
 20
20.113219055037472
 10
9.840484319955896
 20
20.004148809503118
 10
9.752795581546184
 20
19.88591423278705
 10
9.677118103477468
 20
19.759653988496645
 10
9.614180701233071
 20
19.626584031805283
 10
9.564589496401688
 20
19.487985899139343
 10
9.528822079395155
 20
19.34519436628184
 10
9.507222909991707
 20
19.19958459375199
 10
9.500000000000002
 20
19.05255888325765
 10
9.507222909991707
 20
18.90553317276331
 10
9.528822079395155
 20
18.759923400233458
 10
9.564589496401688
 20
18.617131867375956
 10
9.614180701233071
 20
18.478533734710016
 10
9.677118103477468
 20
18.345463778018654
 10
9.752795581546184
 20
18.219203533728248
 10
9.840484319955896
 20
18.10096895701218
 10
9.93933982822018
 20
17.991898711477827
 10
10.048410073754534
 20
17.893043203213544
 10
10.166644650470598
 20
17.80535446480383
 10
10.292904894761005
 20
17.729676986735118
 10
10.425974851452366
 20
17.66673958449072
 10
10.564572984118309
 20
17.617148379659337
 10
10.70736451697581
 20
17.581380962652805
 10
10.85297428950566
 20
17.559781793249353
 10
11.000000000000002
 20
17.55255888325765
 10
11.147025710494344
 20
17.559781793249353
 10
11.292635483024194
 20
17.581380962652805
 10
11.435427015881695
 20
17.617148379659337
 10
11.574025148547637
 20
17.66673958449072
 10
11.707095105238999
 20
17.729676986735118
 10
11.833355349529405
 20
17.80535446480383
 10
11.95158992624547
 20
17.893043203213544
 10
12.060660171779823
 20
17.991898711477827
 10
12.159515680044107
 20
18.10096895701218
 10
12.24720441845382
 20
18.219203533728248
 10
12.322881896522535
 20
18.345463778018654
 10
12.385819298766933
 20
18.478533734710016
 10
12.435410503598316
 20
18.617131867375956
 10
12.471177920604848
 20
18.759923400233458
 10
12.492777090008296
 20
18.90553317276331
 10
12.500000000000002
 20
19.05255888325765
 10
12.492777090008296
 20
19.19958459375199
 10
12.471177920604847
 20
19.34519436628184
 10
12.435410503598316
 20
19.487985899139343
 10
12.38581929876693
 20
19.626584031805287
 10
12.322881896522533
 20
19.759653988496645
 10
12.24720441845382
 20
19.88591423278705
 10
12.159515680044107
 20
20.004148809503118
 10
12.060660171779823
 20
20.113219055037472
 10
11.95158992624547
 20
20.212074563301755
 10
11.833355349529405
 20
20.29976330171147
  0
LWPOLYLINE
  5
34
330
17
100
AcDbEntity
  8
0
 62
0
100
AcDbPolyline
 90
65
 70
0
 10
0.9515899262454697
 20
23.159515680044105
 10
0.8333553495294042
 20
23.24720441845382
 10
0.7070951052389978
 20
23.32288189652253
 10
0.5740251485476363
 20
23.38581929876693
 10
0.4354270158816944
 20
23.435410503598312
 10
0.2926354830241938
 20
23.471177920604845
 10
0.1470257104943415
 20
23.492777090008296
 10
1.0715659492539341e-15
 20
23.5
 10
-0.14702571049433932
 20
23.492777090008296
 10
-0.2926354830241917
 20
23.471177920604845
 10
-0.4354270158816923
 20
23.435410503598312
 10
-0.5740251485476342
 20
23.38581929876693
 10
-0.7070951052389954
 20
23.32288189652253
 10
-0.8333553495294019
 20
23.24720441845382
 10
-0.9515899262454676
 20
23.159515680044105
 10
-1.06066017177982
 20
23.060660171779823
 10
-1.1595156800441044
 20
22.951589926245468
 10
-1.247204418453817
 20
22.833355349529402
 10
-1.3228818965225313
 20
22.707095105238995
 10
-1.3858192987669289
 20
22.574025148547634
 10
-1.435410503598312
 20
22.435427015881693
 10
-1.4711779206048443
 20
22.292635483024192
 10
-1.492777090008294
 20
22.14702571049434
 10
-1.4999999999999987
 20
22.0
 10
-1.492777090008294
 20
21.85297428950566
 10
-1.4711779206048443
 20
21.707364516975808
 10
-1.435410503598312
 20
21.564572984118307
 10
-1.3858192987669287
 20
21.425974851452366
 10
-1.322881896522531
 20
21.292904894761005
 10
-1.2472044184538167
 20
21.166644650470598
 10
-1.1595156800441042
 20
21.048410073754532
 10
-1.0606601717798199
 20
20.939339828220177
 10
-0.9515899262454668
 20
20.840484319955895
 10
-0.8333553495294016
 20
20.75279558154618
 10
-0.7070951052389952
 20
20.67711810347747
 10
-0.5740251485476333
 20
20.61418070123307
 10
-0.4354270158816919
 20
20.564589496401688
 10
-0.29263548302419096
 20
20.528822079395155
 10
-0.1470257104943396
 20
20.507222909991704
 10
1.4389599889981402e-15
 20
20.5
 10
0.14702571049434252
 20
20.507222909991704
 10
0.29263548302419384
 20
20.528822079395155
 10
0.43542701588169486
 20
20.564589496401688
 10
0.5740251485476361
 20
20.61418070123307
 10
0.707095105238998
 20
20.67711810347747
 10
0.8333553495294048
 20
20.75279558154618
 10
0.9515899262454696
 20
20.840484319955895
 10
1.0606601717798227
 20
20.939339828220177
 10
1.1595156800441069
 20
21.048410073754532
 10
1.2472044184538191
 20
21.166644650470598
 10
1.322881896522534
 20
21.292904894761005
 10
1.3858192987669313
 20
21.425974851452366
 10
1.4354105035983147
 20
21.564572984118307
 10
1.471177920604847
 20
21.707364516975808
 10
1.4927770900082966
 20
21.85297428950566
 10
1.5000000000000013
 20
22.0
 10
1.4927770900082966
 20
22.14702571049434
 10
1.4711779206048468
 20
22.292635483024192
 10
1.4354105035983147
 20
22.435427015881693
 10
1.385819298766931
 20
22.574025148547637
 10
1.3228818965225335
 20
22.707095105239
 10
1.2472044184538191
 20
22.833355349529402
 10
1.1595156800441062
 20
22.951589926245468
 10
1.0606601717798223
 20
23.060660171779823
 10
0.9515899262454697
 20
23.159515680044105
  0
LWPOLYLINE
  5
35
330
17
100
AcDbEntity
  8
0
 62
0
100
AcDbPolyline
 90
65
 70
0
 10
-9.939339828220174
 20
20.113219055037476
 10
-10.048410073754527
 20
20.21207456330176
 10
-10.166644650470591
 20
20.299763301711472
 10
-10.292904894760998
 20
20.375440779780185
 10
-10.42597485145236
 20
20.438378182024582
 10
-10.564572984118302
 20
20.487969386855966
 10
-10.707364516975803
 20
20.523736803862498
 10
-10.852974289505655
 20
20.54533597326595
 10
-10.999999999999995
 20
20.552558883257653
 10
-11.147025710494335
 20
20.54533597326595
 10
-11.292635483024188
 20
20.523736803862498
 10
-11.435427015881688
 20
20.487969386855966
 10
-11.57402514854763
 20
20.438378182024582
 10
-11.707095105238992
 20
20.375440779780185
 10
-11.833355349529398
 20
20.299763301711472
 10
-11.951589926245463
 20
20.21207456330176
 10
-12.060660171779816
 20
20.113219055037476
 10
-12.1595156800441
 20
20.00414880950312
 10
-12.247204418453812
 20
19.885914232787055
 10
-12.322881896522528
 20
19.75965398849665
 10
-12.385819298766926
 20
19.626584031805287
 10
-12.435410503598309
 20
19.487985899139346
 10
-12.471177920604841
 20
19.345194366281845
 10
-12.492777090008289
 20
19.199584593751993
 10
-12.499999999999995
 20
19.052558883257653
 10
-12.492777090008289
 20
18.905533172763313
 10
-12.471177920604841
 20
18.75992340023346
 10
-12.435410503598309
 20
18.61713186737596
 10
-12.385819298766926
 20
18.47853373471002
 10
-12.322881896522528
 20
18.345463778018658
 10
-12.247204418453812
 20
18.21920353372825
 10
-12.1595156800441
 20
18.100968957012185
 10
-12.060660171779816
 20
17.99189871147783
 10
-11.951589926245463
 20
17.893043203213548
 10
-11.833355349529398
 20
17.805354464803834
 10
-11.707095105238992
 20
17.72967698673512
 10
-11.57402514854763
 20
17.666739584490724
 10
-11.435427015881688
 20
17.61714837965934
 10
-11.292635483024187
 20
17.58138096265281
 10
-11.147025710494336
 20
17.559781793249357
 10
-10.999999999999995
 20
17.552558883257653
 10
-10.852974289505653
 20
17.559781793249357
 10
-10.707364516975803
 20
17.58138096265281
 10
-10.564572984118302
 20
17.61714837965934
 10
-10.42597485145236
 20
17.666739584490724
 10
-10.292904894760998
 20
17.72967698673512
 10
-10.166644650470591
 20
17.805354464803834
 10
-10.048410073754527
 20
17.893043203213548
 10
-9.939339828220174
 20
17.99189871147783
 10
-9.84048431995589
 20
18.100968957012185
 10
-9.752795581546177
 20
18.21920353372825
 10
-9.677118103477461
 20
18.345463778018658
 10
-9.614180701233064
 20
18.47853373471002
 10
-9.56458949640168
 20
18.61713186737596
 10
-9.528822079395148
 20
18.75992340023346
 10
-9.5072229099917
 20
18.905533172763313
 10
-9.499999999999995
 20
19.052558883257653
 10
-9.5072229099917
 20
19.199584593751993
 10
-9.52882207939515
 20
19.345194366281845
 10
-9.56458949640168
 20
19.487985899139346
 10
-9.614180701233066
 20
19.62658403180529
 10
-9.677118103477463
 20
19.759653988496652
 10
-9.752795581546177
 20
19.885914232787055
 10
-9.84048431995589
 20
20.00414880950312
 10
-9.939339828220174
 20
20.113219055037476
  0
LWPOLYLINE
  5
36
330
17
100
AcDbEntity
  8
0
 62
0
100
AcDbPolyline
 90
65
 70
0
 10
-17.89304320321354
 20
11.951589926245475
 10
-17.991898711477823
 20
12.060660171779828
 10
-18.100968957012178
 20
12.159515680044112
 10
-18.219203533728244
 20
12.247204418453826
 10
-18.34546377801865
 20
12.32288189652254
 10
-18.478533734710012
 20
12.385819298766936
 10
-18.617131867375953
 20
12.43541050359832
 10
-18.759923400233454
 20
12.471177920604852
 10
-18.905533172763306
 20
12.492777090008303
 10
-19.052558883257646
 20
12.500000000000007
 10
-19.199584593751986
 20
12.492777090008303
 10
-19.345194366281838
 20
12.471177920604852
 10
-19.48798589913934
 20
12.43541050359832
 10
-19.626584031805283
 20
12.385819298766936
 10
-19.75965398849664
 20
12.322881896522539
 10
-19.885914232787048
 20
12.247204418453824
 10
-20.004148809503114
 20
12.159515680044112
 10
-20.11321905503747
 20
12.060660171779828
 10
-20.21207456330175
 20
11.951589926245475
 10
-20.299763301711465
 20
11.83335534952941
 10
-20.375440779780178
 20
11.707095105239004
 10
-20.438378182024575
 20
11.574025148547642
 10
-20.48796938685596
 20
11.4354270158817
 10
-20.52373680386249
 20
11.292635483024199
 10
-20.545335973265942
 20
11.147025710494347
 10
-20.552558883257646
 20
11.000000000000007
 10
-20.545335973265942
 20
10.852974289505665
 10
-20.52373680386249
 20
10.707364516975813
 10
-20.48796938685596
 20
10.564572984118314
 10
-20.438378182024575
 20
10.425974851452372
 10
-20.375440779780178
 20
10.29290489476101
 10
-20.299763301711465
 20
10.166644650470603
 10
-20.21207456330175
 20
10.048410073754539
 10
-20.11321905503747
 20
9.939339828220186
 10
-20.004148809503114
 20
9.840484319955902
 10
-19.885914232787048
 20
9.75279558154619
 10
-19.75965398849664
 20
9.677118103477474
 10
-19.62658403180528
 20
9.614180701233078
 10
-19.48798589913934
 20
9.564589496401695
 10
-19.345194366281838
 20
9.528822079395162
 10
-19.199584593751986
 20
9.507222909991711
 10
-19.052558883257646
 20
9.500000000000007
 10
-18.905533172763306
 20
9.507222909991711
 10
-18.759923400233454
 20
9.528822079395162
 10
-18.617131867375953
 20
9.564589496401695
 10
-18.478533734710012
 20
9.614180701233078
 10
-18.34546377801865
 20
9.677118103477476
 10
-18.219203533728244
 20
9.75279558154619
 10
-18.100968957012178
 20
9.840484319955902
 10
-17.991898711477823
 20
9.939339828220186
 10
-17.89304320321354
 20
10.048410073754539
 10
-17.805354464803827
 20
10.166644650470603
 10
-17.729676986735114
 20
10.29290489476101
 10
-17.666739584490717
 20
10.425974851452372
 10
-17.617148379659334
 20
10.564572984118314
 10
-17.5813809626528
 20
10.707364516975815
 10
-17.55978179324935
 20
10.852974289505665
 10
-17.552558883257646
 20
11.000000000000007
 10
-17.55978179324935
 20
11.147025710494347
 10
-17.5813809626528
 20
11.2926354830242
 10
-17.617148379659334
 20
11.4354270158817
 10
-17.666739584490717
 20
11.574025148547642
 10
-17.729676986735114
 20
11.707095105239004
 10
-17.805354464803827
 20
11.83335534952941
 10
-17.89304320321354
 20
11.951589926245475
  0
LWPOLYLINE
  5
37
330
17
100
AcDbEntity
  8
0
 62
0
100
AcDbPolyline
 90
65
 70
0
 10
-20.75279558154618
 20
0.8333553495294059
 10
-20.840484319955895
 20
0.9515899262454716
 10
-20.939339828220177
 20
1.060660171779824
 10
-21.048410073754532
 20
1.159515680044108
 10
-21.166644650470598
 20
1.247204418453821
 10
-21.292904894761005
 20
1.3228818965225353
 10
-21.425974851452366
 20
1.3858192987669327
 10
-21.564572984118307
 20
1.435410503598316
 10
-21.707364516975808
 20
1.4711779206048483
 10
-21.85297428950566
 20
1.492777090008298
 10
-22.0
 20
1.5000000000000027
 10
-22.14702571049434
 20
1.492777090008298
 10
-22.292635483024192
 20
1.471177920604848
 10
-22.435427015881693
 20
1.435410503598316
 10
-22.574025148547637
 20
1.3858192987669324
 10
-22.707095105238995
 20
1.322881896522535
 10
-22.833355349529402
 20
1.2472044184538205
 10
-22.951589926245468
 20
1.1595156800441075
 10
-23.060660171779823
 20
1.0606601717798239
 10
-23.159515680044105
 20
0.9515899262454706
 10
-23.24720441845382
 20
0.8333553495294056
 10
-23.32288189652253
 20
0.7070951052389991
 10
-23.38581929876693
 20
0.5740251485476372
 10
-23.435410503598312
 20
0.4354270158816959
 10
-23.471177920604845
 20
0.29263548302419523
 10
-23.492777090008296
 20
0.14702571049434357
 10
-23.5
 20
2.510525938252074e-15
 10
-23.492777090008296
 20
-0.14702571049433855
 10
-23.471177920604845
 20
-0.2926354830241902
 10
-23.435410503598312
 20
-0.43542701588169086
 10
-23.38581929876693
 20
-0.5740251485476322
 10
-23.32288189652253
 20
-0.707095105238994
 10
-23.24720441845382
 20
-0.8333553495294006
 10
-23.159515680044105
 20
-0.9515899262454656
 10
-23.060660171779823
 20
-1.0606601717798188
 10
-22.951589926245468
 20
-1.159515680044103
 10
-22.833355349529402
 20
-1.2472044184538154
 10
-22.707095105238995
 20
-1.32288189652253
 10
-22.574025148547634
 20
-1.3858192987669273
 10
-22.435427015881693
 20
-1.4354105035983107
 10
-22.292635483024192
 20
-1.471177920604843
 10
-22.14702571049434
 20
-1.4927770900082926
 10
-22.0
 20
-1.4999999999999973
 10
-21.85297428950566
 20
-1.4927770900082926
 10
-21.707364516975808
 20
-1.471177920604843
 10
-21.564572984118307
 20
-1.4354105035983107
 10
-21.425974851452366
 20
-1.3858192987669273
 10
-21.292904894761005
 20
-1.3228818965225297
 10
-21.166644650470598
 20
-1.2472044184538151
 10
-21.048410073754532
 20
-1.1595156800441027
 10
-20.939339828220177
 20
-1.0606601717798188
 10
-20.840484319955895
 20
-0.9515899262454656
 10
-20.75279558154618
 20
-0.8333553495294006
 10
-20.67711810347747
 20
-0.7070951052389938
 10
-20.61418070123307
 20
-0.574025148547632
 10
-20.564589496401688
 20
-0.4354270158816908
 10
-20.528822079395155
 20
-0.2926354830241897
 10
-20.507222909991704
 20
-0.1470257104943382
 10
-20.5
 20
2.6942229581241772e-15
 10
-20.507222909991704
 20
0.14702571049434346
 10
-20.528822079395155
 20
0.2926354830241958
 10
-20.564589496401688
 20
0.43542701588169647
 10
-20.61418070123307
 20
0.5740251485476382
 10
-20.67711810347747
 20
0.7070951052389995
 10
-20.75279558154618
 20
0.8333553495294059
  0
LWPOLYLINE
  5
38
330
17
100
AcDbEntity
  8
0
 62
0
100
AcDbPolyline
 90
65
 70
0
 10
-17.72967698673512
 20
-10.292904894760998
 10
-17.805354464803834
 20
-10.166644650470591
 10
-17.893043203213548
 20
-10.048410073754527
 10
-17.99189871147783
 20
-9.939339828220174
 10
-18.100968957012185
 20
-9.84048431995589
 10
-18.21920353372825
 20
-9.752795581546177
 10
-18.345463778018658
 20
-9.677118103477461
 10
-18.47853373471002
 20
-9.614180701233064
 10
-18.61713186737596
 20
-9.56458949640168
 10
-18.75992340023346
 20
-9.528822079395148
 10
-18.905533172763313
 20
-9.5072229099917
 10
-19.052558883257653
 20
-9.499999999999995
 10
-19.199584593751993
 20
-9.5072229099917
 10
-19.345194366281845
 20
-9.52882207939515
 10
-19.487985899139346
 20
-9.56458949640168
 10
-19.62658403180529
 20
-9.614180701233066
 10
-19.75965398849665
 20
-9.677118103477461
 10
-19.885914232787055
 20
-9.752795581546177
 10
-20.00414880950312
 20
-9.84048431995589
 10
-20.113219055037476
 20
-9.939339828220174
 10
-20.21207456330176
 20
-10.048410073754527
 10
-20.299763301711472
 20
-10.166644650470591
 10
-20.375440779780185
 20
-10.292904894760998
 10
-20.438378182024582
 20
-10.42597485145236
 10
-20.487969386855966
 20
-10.564572984118302
 10
-20.523736803862498
 20
-10.707364516975803
 10
-20.54533597326595
 20
-10.852974289505653
 10
-20.552558883257653
 20
-10.999999999999995
 10
-20.54533597326595
 20
-11.147025710494336
 10
-20.523736803862498
 20
-11.292635483024188
 10
-20.487969386855966
 20
-11.435427015881688
 10
-20.438378182024582
 20
-11.57402514854763
 10
-20.375440779780185
 20
-11.707095105238992
 10
-20.299763301711472
 20
-11.833355349529398
 10
-20.21207456330176
 20
-11.951589926245463
 10
-20.113219055037476
 20
-12.060660171779816
 10
-20.00414880950312
 20
-12.1595156800441
 10
-19.885914232787055
 20
-12.247204418453812
 10
-19.75965398849665
 20
-12.322881896522528
 10
-19.626584031805287
 20
-12.385819298766926
 10
-19.487985899139346
 20
-12.435410503598309
 10
-19.345194366281845
 20
-12.471177920604841
 10
-19.199584593751993
 20
-12.492777090008289
 10
-19.052558883257653
 20
-12.499999999999995
 10
-18.905533172763313
 20
-12.492777090008289
 10
-18.75992340023346
 20
-12.471177920604841
 10
-18.61713186737596
 20
-12.435410503598309
 10
-18.47853373471002
 20
-12.385819298766926
 10
-18.345463778018658
 20
-12.322881896522528
 10
-18.21920353372825
 20
-12.247204418453812
 10
-18.100968957012185
 20
-12.1595156800441
 10
-17.99189871147783
 20
-12.060660171779816
 10
-17.893043203213548
 20
-11.951589926245463
 10
-17.805354464803834
 20
-11.833355349529398
 10
-17.72967698673512
 20
-11.707095105238992
 10
-17.666739584490724
 20
-11.57402514854763
 10
-17.61714837965934
 20
-11.435427015881688
 10
-17.58138096265281
 20
-11.292635483024187
 10
-17.559781793249357
 20
-11.147025710494336
 10
-17.552558883257653
 20
-10.999999999999995
 10
-17.559781793249357
 20
-10.852974289505655
 10
-17.58138096265281
 20
-10.707364516975801
 10
-17.61714837965934
 20
-10.564572984118302
 10
-17.666739584490724
 20
-10.42597485145236
 10
-17.72967698673512
 20
-10.292904894760998
  0
LWPOLYLINE
  5
39
330
17
100
AcDbEntity
  8
0
 62
0
100
AcDbPolyline
 90
65
 70
0
 10
-9.614180701233082
 20
-18.47853373471001
 10
-9.67711810347748
 20
-18.345463778018647
 10
-9.752795581546193
 20
-18.219203533728244
 10
-9.840484319955905
 20
-18.100968957012178
 10
-9.93933982822019
 20
-17.991898711477823
 10
-10.048410073754543
 20
-17.89304320321354
 10
-10.166644650470609
 20
-17.805354464803827
 10
-10.292904894761014
 20
-17.729676986735114
 10
-10.425974851452375
 20
-17.666739584490717
 10
-10.564572984118318
 20
-17.617148379659334
 10
-10.707364516975819
 20
-17.5813809626528
 10
-10.85297428950567
 20
-17.55978179324935
 10
-11.00000000000001
 20
-17.552558883257646
 10
-11.14702571049435
 20
-17.55978179324935
 10
-11.292635483024204
 20
-17.5813809626528
 10
-11.435427015881704
 20
-17.617148379659334
 10
-11.574025148547646
 20
-17.666739584490717
 10
-11.707095105239008
 20
-17.729676986735114
 10
-11.833355349529414
 20
-17.805354464803827
 10
-11.951589926245479
 20
-17.89304320321354
 10
-12.060660171779832
 20
-17.991898711477823
 10
-12.159515680044116
 20
-18.100968957012178
 10
-12.24720441845383
 20
-18.219203533728244
 10
-12.322881896522544
 20
-18.34546377801865
 10
-12.385819298766942
 20
-18.478533734710012
 10
-12.435410503598323
 20
-18.617131867375953
 10
-12.471177920604855
 20
-18.759923400233454
 10
-12.492777090008307
 20
-18.905533172763306
 10
-12.50000000000001
 20
-19.052558883257646
 10
-12.492777090008307
 20
-19.199584593751986
 10
-12.471177920604855
 20
-19.345194366281838
 10
-12.435410503598323
 20
-19.48798589913934
 10
-12.38581929876694
 20
-19.62658403180528
 10
-12.322881896522542
 20
-19.75965398849664
 10
-12.247204418453828
 20
-19.885914232787048
 10
-12.159515680044116
 20
-20.004148809503114
 10
-12.060660171779832
 20
-20.11321905503747
 10
-11.951589926245479
 20
-20.21207456330175
 10
-11.833355349529414
 20
-20.299763301711465
 10
-11.707095105239008
 20
-20.375440779780178
 10
-11.574025148547646
 20
-20.438378182024575
 10
-11.435427015881704
 20
-20.48796938685596
 10
-11.292635483024203
 20
-20.52373680386249
 10
-11.147025710494352
 20
-20.545335973265942
 10
-11.00000000000001
 20
-20.552558883257646
 10
-10.852974289505669
 20
-20.545335973265942
 10
-10.707364516975819
 20
-20.52373680386249
 10
-10.564572984118318
 20
-20.48796938685596
 10
-10.425974851452375
 20
-20.438378182024575
 10
-10.292904894761014
 20
-20.375440779780178
 10
-10.166644650470607
 20
-20.299763301711465
 10
-10.048410073754543
 20
-20.21207456330175
 10
-9.93933982822019
 20
-20.11321905503747
 10
-9.840484319955905
 20
-20.004148809503114
 10
-9.752795581546193
 20
-19.885914232787048
 10
-9.677118103477477
 20
-19.75965398849664
 10
-9.614180701233082
 20
-19.62658403180528
 10
-9.564589496401698
 20
-19.48798589913934
 10
-9.528822079395166
 20
-19.345194366281838
 10
-9.507222909991714
 20
-19.199584593751986
 10
-9.50000000000001
 20
-19.052558883257646
 10
-9.507222909991714
 20
-18.905533172763306
 10
-9.528822079395166
 20
-18.759923400233454
 10
-9.564589496401698
 20
-18.617131867375953
 10
-9.614180701233082
 20
-18.47853373471001
  0
LWPOLYLINE
  5
3A
330
17
100
AcDbEntity
  8
0
 62
0
100
AcDbPolyline
 90
65
 70
0
 10
1.4354105035983094
 20
-21.564572984118307
 10
1.3858192987669258
 20
-21.425974851452363
 10
1.3228818965225282
 20
-21.292904894761
 10
1.2472044184538138
 20
-21.166644650470598
 10
1.1595156800441009
 20
-21.048410073754532
 10
1.060660171779817
 20
-20.939339828220177
 10
0.9515899262454643
 20
-20.840484319955895
 10
0.8333553495293988
 20
-20.75279558154618
 10
0.7070951052389924
 20
-20.67711810347747
 10
0.574025148547631
 20
-20.61418070123307
 10
0.43542701588168903
 20
-20.564589496401688
 10
0.2926354830241884
 20
-20.528822079395155
 10
0.14702571049433608
 20
-20.507222909991704
 10
-4.31687996699442e-15
 20
-20.5
 10
-0.14702571049434474
 20
-20.507222909991704
 10
-0.29263548302419706
 20
-20.528822079395155
 10
-0.4354270158816977
 20
-20.564589496401688
 10
-0.5740251485476395
 20
-20.61418070123307
 10
-0.7070951052390008
 20
-20.67711810347747
 10
-0.8333553495294073
 20
-20.75279558154618
 10
-0.9515899262454729
 20
-20.840484319955895
 10
-1.0606601717798254
 20
-20.939339828220177
 10
-1.1595156800441098
 20
-21.048410073754532
 10
-1.2472044184538222
 20
-21.166644650470598
 10
-1.3228818965225366
 20
-21.292904894761005
 10
-1.3858192987669342
 20
-21.425974851452366
 10
-1.4354105035983173
 20
-21.564572984118307
 10
-1.4711779206048496
 20
-21.707364516975808
 10
-1.4927770900082993
 20
-21.85297428950566
 10
-1.500000000000004
 20
-22.0
 10
-1.4927770900082993
 20
-22.14702571049434
 10
-1.4711779206048496
 20
-22.292635483024192
 10
-1.4354105035983173
 20
-22.435427015881693
 10
-1.385819298766934
 20
-22.574025148547634
 10
-1.3228818965225364
 20
-22.707095105238995
 10
-1.247204418453822
 20
-22.833355349529402
 10
-1.1595156800441095
 20
-22.951589926245468
 10
-1.0606601717798252
 20
-23.060660171779823
 10
-0.9515899262454721
 20
-23.159515680044105
 10
-0.8333553495294069
 20
-23.24720441845382
 10
-0.7070951052390005
 20
-23.32288189652253
 10
-0.5740251485476386
 20
-23.38581929876693
 10
-0.4354270158816973
 20
-23.435410503598312
 10
-0.29263548302419634
 20
-23.471177920604845
 10
-0.147025710494345
 20
-23.492777090008296
 10
-3.949485927250214e-15
 20
-23.5
 10
0.1470257104943371
 20
-23.492777090008296
 10
0.29263548302418846
 20
-23.471177920604845
 10
0.43542701588168947
 20
-23.435410503598312
 10
0.5740251485476308
 20
-23.38581929876693
 10
0.7070951052389927
 20
-23.32288189652253
 10
0.8333553495293995
 20
-23.24720441845382
 10
0.9515899262454642
 20
-23.159515680044105
 10
1.0606601717798174
 20
-23.060660171779823
 10
1.1595156800441015
 20
-22.951589926245468
 10
1.2472044184538138
 20
-22.833355349529402
 10
1.3228818965225286
 20
-22.707095105238995
 10
1.385819298766926
 20
-22.574025148547634
 10
1.4354105035983094
 20
-22.435427015881693
 10
1.4711779206048416
 20
-22.292635483024192
 10
1.4927770900082913
 20
-22.14702571049434
 10
1.499999999999996
 20
-22.0
 10
1.4927770900082913
 20
-21.85297428950566
 10
1.4711779206048414
 20
-21.707364516975808
 10
1.4354105035983094
 20
-21.564572984118307
  0
LWPOLYLINE
  5
3B
330
17
100
AcDbEntity
  8
0
 62
0
100
AcDbPolyline
 90
65
 70
0
 10
12.47117792060483
 20
-18.75992340023347
 10
12.435410503598298
 20
-18.617131867375967
 10
12.385819298766915
 20
-18.478533734710023
 10
12.322881896522517
 20
-18.34546377801866
 10
12.247204418453803
 20
-18.21920353372826
 10
12.159515680044091
 20
-18.100968957012192
 10
12.060660171779807
 20
-17.991898711477837
 10
11.951589926245454
 20
-17.893043203213555
 10
11.833355349529388
 20
-17.80535446480384
 10
11.707095105238983
 20
-17.72967698673513
 10
11.574025148547621
 20
-17.66673958449073
 10
11.435427015881679
 20
-17.617148379659348
 10
11.292635483024178
 20
-17.581380962652815
 10
11.147025710494326
 20
-17.559781793249364
 10
10.999999999999986
 20
-17.55255888325766
 10
10.852974289505646
 20
-17.559781793249364
 10
10.707364516975792
 20
-17.581380962652815
 10
10.564572984118293
 20
-17.617148379659348
 10
10.42597485145235
 20
-17.66673958449073
 10
10.292904894760989
 20
-17.72967698673513
 10
10.166644650470582
 20
-17.80535446480384
 10
10.048410073754518
 20
-17.893043203213555
 10
9.939339828220165
 20
-17.991898711477837
 10
9.84048431995588
 20
-18.100968957012192
 10
9.752795581546167
 20
-18.21920353372826
 10
9.677118103477452
 20
-18.345463778018665
 10
9.614180701233055
 20
-18.478533734710027
 10
9.564589496401673
 20
-18.617131867375967
 10
9.528822079395141
 20
-18.75992340023347
 10
9.50722290999169
 20
-18.90553317276332
 10
9.499999999999986
 20
-19.05255888325766
 10
9.50722290999169
 20
-19.199584593752
 10
9.528822079395141
 20
-19.345194366281852
 10
9.564589496401673
 20
-19.487985899139353
 10
9.614180701233057
 20
-19.626584031805294
 10
9.677118103477454
 20
-19.759653988496655
 10
9.752795581546168
 20
-19.885914232787062
 10
9.84048431995588
 20
-20.00414880950313
 10
9.939339828220165
 20
-20.113219055037483
 10
10.048410073754518
 20
-20.212074563301766
 10
10.166644650470582
 20
-20.29976330171148
 10
10.292904894760989
 20
-20.37544077978019
 10
10.42597485145235
 20
-20.43837818202459
 10
10.564572984118293
 20
-20.487969386855973
 10
10.707364516975794
 20
-20.523736803862505
 10
10.852974289505644
 20
-20.545335973265956
 10
10.999999999999986
 20
-20.55255888325766
 10
11.147025710494328
 20
-20.545335973265956
 10
11.292635483024178
 20
-20.523736803862505
 10
11.435427015881679
 20
-20.487969386855973
 10
11.574025148547621
 20
-20.43837818202459
 10
11.707095105238983
 20
-20.37544077978019
 10
11.83335534952939
 20
-20.29976330171148
 10
11.951589926245454
 20
-20.212074563301766
 10
12.060660171779807
 20
-20.113219055037483
 10
12.159515680044091
 20
-20.00414880950313
 10
12.247204418453803
 20
-19.885914232787062
 10
12.322881896522519
 20
-19.759653988496655
 10
12.385819298766915
 20
-19.626584031805294
 10
12.435410503598298
 20
-19.487985899139353
 10
12.47117792060483
 20
-19.345194366281852
 10
12.492777090008282
 20
-19.199584593752
 10
12.499999999999986
 20
-19.05255888325766
 10
12.492777090008282
 20
-18.90553317276332
 10
12.47117792060483
 20
-18.75992340023347
  0
LWPOLYLINE
  5
3C
330
17
100
AcDbEntity
  8
0
 62
0
100
AcDbPolyline
 90
65
 70
0
 10
20.545335973265942
 20
-10.85297428950567
 10
20.52373680386249
 20
-10.707364516975817
 10
20.48796938685596
 20
-10.564572984118318
 10
20.438378182024575
 20
-10.425974851452375
 10
20.375440779780178
 20
-10.292904894761014
 10
20.299763301711465
 20
-10.166644650470607
 10
20.21207456330175
 20
-10.048410073754543
 10
20.11321905503747
 20
-9.93933982822019
 10
20.004148809503114
 20
-9.840484319955905
 10
19.885914232787048
 20
-9.752795581546192
 10
19.75965398849664
 20
-9.677118103477477
 10
19.62658403180528
 20
-9.614180701233082
 10
19.48798589913934
 20
-9.564589496401698
 10
19.345194366281838
 20
-9.528822079395166
 10
19.199584593751986
 20
-9.507222909991714
 10
19.052558883257646
 20
-9.50000000000001
 10
18.905533172763306
 20
-9.507222909991714
 10
18.759923400233454
 20
-9.528822079395166
 10
18.617131867375953
 20
-9.564589496401698
 10
18.47853373471001
 20
-9.614180701233082
 10
18.34546377801865
 20
-9.67711810347748
 10
18.219203533728244
 20
-9.752795581546193
 10
18.100968957012178
 20
-9.840484319955905
 10
17.991898711477823
 20
-9.93933982822019
 10
17.89304320321354
 20
-10.048410073754543
 10
17.805354464803827
 20
-10.166644650470607
 10
17.729676986735114
 20
-10.292904894761014
 10
17.666739584490717
 20
-10.425974851452375
 10
17.617148379659334
 20
-10.564572984118318
 10
17.5813809626528
 20
-10.707364516975819
 10
17.55978179324935
 20
-10.85297428950567
 10
17.552558883257646
 20
-11.00000000000001
 10
17.55978179324935
 20
-11.147025710494352
 10
17.5813809626528
 20
-11.292635483024204
 10
17.617148379659334
 20
-11.435427015881704
 10
17.666739584490717
 20
-11.574025148547646
 10
17.729676986735114
 20
-11.707095105239008
 10
17.805354464803827
 20
-11.833355349529414
 10
17.89304320321354
 20
-11.951589926245479
 10
17.991898711477823
 20
-12.060660171779832
 10
18.100968957012178
 20
-12.159515680044116
 10
18.219203533728244
 20
-12.247204418453828
 10
18.34546377801865
 20
-12.322881896522544
 10
18.478533734710012
 20
-12.38581929876694
 10
18.617131867375953
 20
-12.435410503598323
 10
18.759923400233454
 20
-12.471177920604855
 10
18.905533172763306
 20
-12.492777090008307
 10
19.052558883257646
 20
-12.50000000000001
 10
19.199584593751986
 20
-12.492777090008307
 10
19.345194366281838
 20
-12.471177920604855
 10
19.48798589913934
 20
-12.435410503598323
 10
19.62658403180528
 20
-12.38581929876694
 10
19.75965398849664
 20
-12.322881896522542
 10
19.885914232787048
 20
-12.247204418453828
 10
20.004148809503114
 20
-12.159515680044116
 10
20.11321905503747
 20
-12.060660171779832
 10
20.21207456330175
 20
-11.951589926245479
 10
20.299763301711465
 20
-11.833355349529414
 10
20.375440779780178
 20
-11.707095105239008
 10
20.438378182024575
 20
-11.574025148547646
 10
20.48796938685596
 20
-11.435427015881704
 10
20.52373680386249
 20
-11.292635483024203
 10
20.545335973265942
 20
-11.147025710494352
 10
20.552558883257646
 20
-11.00000000000001
 10
20.545335973265942
 20
-10.85297428950567
  0
ENDSEC
  0
SECTION
  2
OBJECTS
  0
DICTIONARY
  5
A
330
0
100
AcDbDictionary
280
0
281
1
  3
ACAD_COLOR
350
B
  3
ACAD_GROUP
350
C
  3
ACAD_LAYOUT
350
D
  3
ACAD_MATERIAL
350
E
  3
ACAD_MLEADERSTYLE
350
F
  3
ACAD_MLINESTYLE
350
10
  3
ACAD_PLOTSETTINGS
350
11
  3
ACAD_PLOTSTYLENAME
350
12
  3
ACAD_SCALELIST
350
14
  3
ACAD_TABLESTYLE
350
15
  3
ACAD_VISUALSTYLE
350
16
  3
EZDXF_META
350
2D
  0
DICTIONARY
  5
B
330
A
100
AcDbDictionary
280
0
281
1
  0
DICTIONARY
  5
C
330
A
100
AcDbDictionary
280
0
281
1
  0
DICTIONARY
  5
D
330
A
100
AcDbDictionary
280
0
281
1
  3
Model
350
1A
  3
Layout1
350
1E
  0
DICTIONARY
  5
E
330
A
100
AcDbDictionary
280
0
281
1
  3
ByBlock
350
1F
  3
ByLayer
350
20
  3
Global
350
21
  0
DICTIONARY
  5
F
330
A
100
AcDbDictionary
280
0
281
1
  3
Standard
350
2C
  0
DICTIONARY
  5
10
330
A
100
AcDbDictionary
280
0
281
1
  3
Standard
350
22
  0
DICTIONARY
  5
11
330
A
100
AcDbDictionary
280
0
281
1
  0
ACDBDICTIONARYWDFLT
  5
12
330
A
100
AcDbDictionary
280
0
281
1
  3
Normal
350
13
100
AcDbDictionaryWithDefault
340
13
  0
ACDBPLACEHOLDER
  5
13
330
12
  0
DICTIONARY
  5
14
330
A
100
AcDbDictionary
280
0
281
1
  0
DICTIONARY
  5
15
330
A
100
AcDbDictionary
280
0
281
1
  0
DICTIONARY
  5
16
330
A
100
AcDbDictionary
280
0
281
1
  0
LAYOUT
  5
1A
330
D
100
AcDbPlotSettings
  1

  4
A3
  6

 40
7.5
 41
20.0
 42
7.5
 43
20.0
 44
420.0
 45
297.0
 46
0.0
 47
0.0
 48
0.0
 49
0.0
140
0.0
141
0.0
142
1.0
143
1.0
 70
1024
 72
1
 73
0
 74
5
  7

 75
16
 76
0
 77
2
 78
300
147
1.0
148
0.0
149
0.0
100
AcDbLayout
  1
Model
 70
1
 71
0
 10
0.0
 20
0.0
 11
420.0
 21
297.0
 12
0.0
 22
0.0
 32
0.0
 14
1e+20
 24
1e+20
 34
1e+20
 15
-1e+20
 25
-1e+20
 35
-1e+20
146
0.0
 13
0.0
 23
0.0
 33
0.0
 16
1.0
 26
0.0
 36
0.0
 17
0.0
 27
1.0
 37
0.0
 76
1
330
17
  0
LAYOUT
  5
1E
330
D
100
AcDbPlotSettings
  1

  4
A3
  6

 40
7.5
 41
20.0
 42
7.5
 43
20.0
 44
420.0
 45
297.0
 46
0.0
 47
0.0
 48
0.0
 49
0.0
140
0.0
141
0.0
142
1.0
143
1.0
 70
0
 72
1
 73
0
 74
5
  7

 75
16
 76
0
 77
2
 78
300
147
1.0
148
0.0
149
0.0
100
AcDbLayout
  1
Layout1
 70
1
 71
1
 10
0.0
 20
0.0
 11
420.0
 21
297.0
 12
0.0
 22
0.0
 32
0.0
 14
1e+20
 24
1e+20
 34
1e+20
 15
-1e+20
 25
-1e+20
 35
-1e+20
146
0.0
 13
0.0
 23
0.0
 33
0.0
 16
1.0
 26
0.0
 36
0.0
 17
0.0
 27
1.0
 37
0.0
 76
1
330
1B
  0
MATERIAL
  5
1F
102
{ACAD_REACTORS
330
E
102
}
330
E
100
AcDbMaterial
  1
ByBlock
  2

 70
0
 40
1.0
 71
1
 41
1.0
 91
-1023410177
 42
1.0
 72
1
  3

 73
1
 74
1
 75
1
 44
0.5
 73
0
 45
1.0
 46
1.0
 77
1
  4

 78
1
 79
1
170
1
 48
1.0
171
1
  6

172
1
173
1
174
1
140
1.0
141
1.0
175
1
  7

176
1
177
1
178
1
143
1.0
179
1
  8

270
1
271
1
272
1
145
1.0
146
1.0
273
1
  9

274
1
275
1
276
1
 42
1.0
 72
1
  3

 73
1
 74
1
 75
1
 94
63
  0
MATERIAL
  5
20
102
{ACAD_REACTORS
330
E
102
}
330
E
100
AcDbMaterial
  1
ByLayer
  2

 70
0
 40
1.0
 71
1
 41
1.0
 91
-1023410177
 42
1.0
 72
1
  3

 73
1
 74
1
 75
1
 44
0.5
 73
0
 45
1.0
 46
1.0
 77
1
  4

 78
1
 79
1
170
1
 48
1.0
171
1
  6

172
1
173
1
174
1
140
1.0
141
1.0
175
1
  7

176
1
177
1
178
1
143
1.0
179
1
  8

270
1
271
1
272
1
145
1.0
146
1.0
273
1
  9

274
1
275
1
276
1
 42
1.0
 72
1
  3

 73
1
 74
1
 75
1
 94
63
  0
MATERIAL
  5
21
102
{ACAD_REACTORS
330
E
102
}
330
E
100
AcDbMaterial
  1
Global
  2

 70
0
 40
1.0
 71
1
 41
1.0
 91
-1023410177
 42
1.0
 72
1
  3

 73
1
 74
1
 75
1
 44
0.5
 73
0
 45
1.0
 46
1.0
 77
1
  4

 78
1
 79
1
170
1
 48
1.0
171
1
  6

172
1
173
1
174
1
140
1.0
141
1.0
175
1
  7

176
1
177
1
178
1
143
1.0
179
1
  8

270
1
271
1
272
1
145
1.0
146
1.0
273
1
  9

274
1
275
1
276
1
 42
1.0
 72
1
  3

 73
1
 74
1
 75
1
 94
63
  0
MLINESTYLE
  5
22
102
{ACAD_REACTORS
330
10
102
}
330
10
100
AcDbMlineStyle
  2
Standard
 70
0
  3

 62
256
 51
90.0
 52
90.0
 71
2
 49
0.5
 62
256
  6
BYLAYER
 49
-0.5
 62
256
  6
BYLAYER
  0
MLEADERSTYLE
  5
2C
102
{ACAD_REACTORS
330
F
102
}
330
F
100
AcDbMLeaderStyle
179
2
170
2
171
1
172
0
 90
2
 40
0.0
 41
0.0
173
1
 91
-1056964608
 92
-2
290
1
 42
2.0
291
1
 43
8.0
  3
Standard
 44
4.0
300

342
29
174
1
175
1
176
0
178
1
 93
-1056964608
 45
4.0
292
0
297
0
 46
4.0
 94
-1056964608
 47
1.0
 49
1.0
140
1.0
294
1
141
0.0
177
0
142
1.0
295
0
296
0
143
3.75
271
0
272
9
273
9
  0
DICTIONARY
  5
2D
330
A
100
AcDbDictionary
281
1
  3
CREATED_BY_EZDXF
350
2E
  3
WRITTEN_BY_EZDXF
350
3F
  0
DICTIONARYVAR
  5
2E
330
2D
100
DictionaryVariables
280
0
  1
1.3.4 @ 2025-09-04T19:44:04.293516+00:00
  0
DICTIONARYVAR
  5
3F
330
2D
100
DictionaryVariables
280
0
  1
1.3.4 @ 2025-09-04T19:44:04.311016+00:00
  0
ENDSEC
  0
EOF
