  0
SECTION
  2
HEADER
  9
$ACADVER
  1
AC1032
  9
$ACADMAINTVER
 90
4
  9
$DWGCODEPAGE
  3
ANSI_1252
  9
$LASTSAVEDBY
  1
ezdxf
  9
$REQUIREDVERSIONS
160
0
  9
$INSBASE
 10
0.0
 20
0.0
 30
0.0
  9
$EXTMIN
 10
1e+20
 20
1e+20
 30
1e+20
  9
$EXTMAX
 10
-1e+20
 20
-1e+20
 30
-1e+20
  9
$LIMMIN
 10
0.0
 20
0.0
  9
$LIMMAX
 10
420.0
 20
297.0
  9
$ORTHOMODE
 70
0
  9
$REGENMODE
 70
1
  9
$FILLMODE
 70
1
  9
$QTEXTMODE
 70
0
  9
$MIRRTEXT
 70
1
  9
$LTSCALE
 40
1.0
  9
$ATTMODE
 70
1
  9
$TEXTSIZE
 40
2.5
  9
$TRACEWID
 40
1.0
  9
$TEXTSTYLE
  7
Standard
  9
$CLAYER
  8
0
  9
$CELTYPE
  6
ByLayer
  9
$CECOLOR
 62
256
  9
$CELTSCALE
 40
1.0
  9
$DISPSILH
 70
0
  9
$DIMSCALE
 40
1.0
  9
$DIMASZ
 40
2.5
  9
$DIMEXO
 40
0.625
  9
$DIMDLI
 40
3.75
  9
$DIMRND
 40
0.0
  9
$DIMDLE
 40
0.0
  9
$DIMEXE
 40
1.25
  9
$DIMTP
 40
0.0
  9
$DIMTM
 40
0.0
  9
$DIMTXT
 40
2.5
  9
$DIMCEN
 40
2.5
  9
$DIMTSZ
 40
0.0
  9
$DIMTOL
 70
0
  9
$DIMLIM
 70
0
  9
$DIMTIH
 70
0
  9
$DIMTOH
 70
0
  9
$DIMSE1
 70
0
  9
$DIMSE2
 70
0
  9
$DIMTAD
 70
1
  9
$DIMZIN
 70
8
  9
$DIMBLK
  1

  9
$DIMASO
 70
1
  9
$DIMSHO
 70
1
  9
$DIMPOST
  1

  9
$DIMAPOST
  1

  9
$DIMALT
 70
0
  9
$DIMALTD
 70
3
  9
$DIMALTF
 40
0.03937007874
  9
$DIMLFAC
 40
1.0
  9
$DIMTOFL
 70
1
  9
$DIMTVP
 40
0.0
  9
$DIMTIX
 70
0
  9
$DIMSOXD
 70
0
  9
$DIMSAH
 70
0
  9
$DIMBLK1
  1

  9
$DIMBLK2
  1

  9
$DIMSTYLE
  2
ISO-25
  9
$DIMCLRD
 70
0
  9
$DIMCLRE
 70
0
  9
$DIMCLRT
 70
0
  9
$DIMTFAC
 40
1.0
  9
$DIMGAP
 40
0.625
  9
$DIMJUST
 70
0
  9
$DIMSD1
 70
0
  9
$DIMSD2
 70
0
  9
$DIMTOLJ
 70
0
  9
$DIMTZIN
 70
8
  9
$DIMALTZ
 70
0
  9
$DIMALTTZ
 70
0
  9
$DIMUPT
 70
0
  9
$DIMDEC
 70
2
  9
$DIMTDEC
 70
2
  9
$DIMALTU
 70
2
  9
$DIMALTTD
 70
3
  9
$DIMTXSTY
  7
Standard
  9
$DIMAUNIT
 70
0
  9
$DIMADEC
 70
0
  9
$DIMALTRND
 40
0.0
  9
$DIMAZIN
 70
0
  9
$DIMDSEP
 70
44
  9
$DIMATFIT
 70
3
  9
$DIMFRAC
 70
0
  9
$DIMLDRBLK
  1

  9
$DIMLUNIT
 70
2
  9
$DIMLWD
 70
-2
  9
$DIMLWE
 70
-2
  9
$DIMTMOVE
 70
0
  9
$DIMFXL
 40
1.0
  9
$DIMFXLON
 70
0
  9
$DIMJOGANG
 40
0.785398163397
  9
$DIMTFILL
 70
0
  9
$DIMTFILLCLR
 70
0
  9
$DIMARCSYM
 70
0
  9
$DIMLTYPE
  6

  9
$DIMLTEX1
  6

  9
$DIMLTEX2
  6

  9
$DIMTXTDIRECTION
 70
0
  9
$LUNITS
 70
2
  9
$LUPREC
 70
4
  9
$SKETCHINC
 40
1.0
  9
$FILLETRAD
 40
10.0
  9
$AUNITS
 70
0
  9
$AUPREC
 70
2
  9
$MENU
  1
.
  9
$ELEVATION
 40
0.0
  9
$PELEVATION
 40
0.0
  9
$THICKNESS
 40
0.0
  9
$LIMCHECK
 70
0
  9
$CHAMFERA
 40
0.0
  9
$CHAMFERB
 40
0.0
  9
$CHAMFERC
 40
0.0
  9
$CHAMFERD
 40
0.0
  9
$SKPOLY
 70
0
  9
$TDCREATE
 40
2460923.613935185
  9
$TDUCREATE
 40
2458532.153996898
  9
$TDUPDATE
 40
2460923.613935185
  9
$TDUUPDATE
 40
2458532.1544311
  9
$TDINDWG
 40
0.0
  9
$TDUSRTIMER
 40
0.0
  9
$USRTIMER
 70
1
  9
$ANGBASE
 50
0.0
  9
$ANGDIR
 70
0
  9
$PDMODE
 70
0
  9
$PDSIZE
 40
0.0
  9
$PLINEWID
 40
0.0
  9
$SPLFRAME
 70
0
  9
$SPLINETYPE
 70
6
  9
$SPLINESEGS
 70
8
  9
$HANDSEED
  5
40
  9
$SURFTAB1
 70
6
  9
$SURFTAB2
 70
6
  9
$SURFTYPE
 70
6
  9
$SURFU
 70
6
  9
$SURFV
 70
6
  9
$UCSBASE
  2

  9
$UCSNAME
  2

  9
$UCSORG
 10
0.0
 20
0.0
 30
0.0
  9
$UCSXDIR
 10
1.0
 20
0.0
 30
0.0
  9
$UCSYDIR
 10
0.0
 20
1.0
 30
0.0
  9
$UCSORTHOREF
  2

  9
$UCSORTHOVIEW
 70
0
  9
$UCSORGTOP
 10
0.0
 20
0.0
 30
0.0
  9
$UCSORGBOTTOM
 10
0.0
 20
0.0
 30
0.0
  9
$UCSORGLEFT
 10
0.0
 20
0.0
 30
0.0
  9
$UCSORGRIGHT
 10
0.0
 20
0.0
 30
0.0
  9
$UCSORGFRONT
 10
0.0
 20
0.0
 30
0.0
  9
$UCSORGBACK
 10
0.0
 20
0.0
 30
0.0
  9
$PUCSBASE
  2

  9
$PUCSNAME
  2

  9
$PUCSORG
 10
0.0
 20
0.0
 30
0.0
  9
$PUCSXDIR
 10
1.0
 20
0.0
 30
0.0
  9
$PUCSYDIR
 10
0.0
 20
1.0
 30
0.0
  9
$PUCSORTHOREF
  2

  9
$PUCSORTHOVIEW
 70
0
  9
$PUCSORGTOP
 10
0.0
 20
0.0
 30
0.0
  9
$PUCSORGBOTTOM
 10
0.0
 20
0.0
 30
0.0
  9
$PUCSORGLEFT
 10
0.0
 20
0.0
 30
0.0
  9
$PUCSORGRIGHT
 10
0.0
 20
0.0
 30
0.0
  9
$PUCSORGFRONT
 10
0.0
 20
0.0
 30
0.0
  9
$PUCSORGBACK
 10
0.0
 20
0.0
 30
0.0
  9
$USERI1
 70
0
  9
$USERI2
 70
0
  9
$USERI3
 70
0
  9
$USERI4
 70
0
  9
$USERI5
 70
0
  9
$USERR1
 40
0.0
  9
$USERR2
 40
0.0
  9
$USERR3
 40
0.0
  9
$USERR4
 40
0.0
  9
$USERR5
 40
0.0
  9
$WORLDVIEW
 70
1
  9
$SHADEDGE
 70
3
  9
$SHADEDIF
 70
70
  9
$TILEMODE
 70
1
  9
$MAXACTVP
 70
64
  9
$PINSBASE
 10
0.0
 20
0.0
 30
0.0
  9
$PLIMCHECK
 70
0
  9
$PEXTMIN
 10
1e+20
 20
1e+20
 30
1e+20
  9
$PEXTMAX
 10
-1e+20
 20
-1e+20
 30
-1e+20
  9
$PLIMMIN
 10
0.0
 20
0.0
  9
$PLIMMAX
 10
420.0
 20
297.0
  9
$UNITMODE
 70
0
  9
$VISRETAIN
 70
1
  9
$PLINEGEN
 70
0
  9
$PSLTSCALE
 70
1
  9
$TREEDEPTH
 70
3020
  9
$CMLSTYLE
  2
Standard
  9
$CMLJUST
 70
0
  9
$CMLSCALE
 40
20.0
  9
$PROXYGRAPHICS
 70
1
  9
$MEASUREMENT
 70
1
  9
$CELWEIGHT
370
-1
  9
$ENDCAPS
280
0
  9
$JOINSTYLE
280
0
  9
$LWDISPLAY
290
0
  9
$INSUNITS
 70
4
  9
$HYPERLINKBASE
  1

  9
$STYLESHEET
  1

  9
$XEDIT
290
1
  9
$CEPSNTYPE
380
0
  9
$PSTYLEMODE
290
1
  9
$FINGERPRINTGUID
  2
{EEBA8C7B-3200-4065-A0EC-1DC5631E659B}
  9
$VERSIONGUID
  2
{ABDF0D5D-7EE3-45C1-B9CA-16316EA2ECF0}
  9
$EXTNAMES
290
1
  9
$PSVPSCALE
 40
0.0
  9
$OLESTARTUP
290
0
  9
$SORTENTS
280
127
  9
$INDEXCTL
280
0
  9
$HIDETEXT
280
1
  9
$XCLIPFRAME
280
1
  9
$HALOGAP
280
0
  9
$OBSCOLOR
 70
257
  9
$OBSLTYPE
280
0
  9
$INTERSECTIONDISPLAY
280
0
  9
$INTERSECTIONCOLOR
 70
257
  9
$DIMASSOC
280
2
  9
$PROJECTNAME
  1

  9
$CAMERADISPLAY
290
0
  9
$LENSLENGTH
 40
50.0
  9
$CAMERAHEIGHT
 40
0.0
  9
$STEPSPERSEC
 40
24.0
  9
$STEPSIZE
 40
100.0
  9
$3DDWFPREC
 40
2.0
  9
$PSOLWIDTH
 40
0.005
  9
$PSOLHEIGHT
 40
0.08
  9
$LOFTANG1
 40
1.570796326795
  9
$LOFTANG2
 40
1.570796326795
  9
$LOFTMAG1
 40
0.0
  9
$LOFTMAG2
 40
0.0
  9
$LOFTPARAM
 70
7
  9
$LOFTNORMALS
280
1
  9
$LATITUDE
 40
37.795
  9
$LONGITUDE
 40
-122.394
  9
$NORTHDIRECTION
 40
0.0
  9
$TIMEZONE
 70
-8000
  9
$LIGHTGLYPHDISPLAY
280
1
  9
$TILEMODELIGHTSYNCH
280
1
  9
$CMATERIAL
347
20
  9
$SOLIDHIST
280
0
  9
$SHOWHIST
280
1
  9
$DWFFRAME
280
2
  9
$DGNFRAME
280
2
  9
$REALWORLDSCALE
290
1
  9
$INTERFERECOLOR
 62
256
  9
$CSHADOW
280
0
  9
$SHADOWPLANELOCATION
 40
0.0
  0
ENDSEC
  0
SECTION
  2
CLASSES
  0
CLASS
  1
ACDBDICTIONARYWDFLT
  2
AcDbDictionaryWithDefault
  3
ObjectDBX Classes
 90
0
 91
0
280
0
281
0
  0
CLASS
  1
SUN
  2
AcDbSun
  3
SCENEOE
 90
1153
 91
0
280
0
281
0
  0
CLASS
  1
VISUALSTYLE
  2
AcDbVisualStyle
  3
ObjectDBX Classes
 90
4095
 91
0
280
0
281
0
  0
CLASS
  1
MATERIAL
  2
AcDbMaterial
  3
ObjectDBX Classes
 90
1153
 91
0
280
0
281
0
  0
CLASS
  1
SCALE
  2
AcDbScale
  3
ObjectDBX Classes
 90
1153
 91
0
280
0
281
0
  0
CLASS
  1
TABLESTYLE
  2
AcDbTableStyle
  3
ObjectDBX Classes
 90
4095
 91
0
280
0
281
0
  0
CLASS
  1
MLEADERSTYLE
  2
AcDbMLeaderStyle
  3
ACDB_MLEADERSTYLE_CLASS
 90
4095
 91
0
280
0
281
0
  0
CLASS
  1
DICTIONARYVAR
  2
AcDbDictionaryVar
  3
ObjectDBX Classes
 90
0
 91
0
280
0
281
0
  0
CLASS
  1
CELLSTYLEMAP
  2
AcDbCellStyleMap
  3
ObjectDBX Classes
 90
1152
 91
0
280
0
281
0
  0
CLASS
  1
MENTALRAYRENDERSETTINGS
  2
AcDbMentalRayRenderSettings
  3
SCENEOE
 90
1024
 91
0
280
0
281
0
  0
CLASS
  1
ACDBDETAILVIEWSTYLE
  2
AcDbDetailViewStyle
  3
ObjectDBX Classes
 90
1025
 91
0
280
0
281
0
  0
CLASS
  1
ACDBSECTIONVIEWSTYLE
  2
AcDbSectionViewStyle
  3
ObjectDBX Classes
 90
1025
 91
0
280
0
281
0
  0
CLASS
  1
RASTERVARIABLES
  2
AcDbRasterVariables
  3
ISM
 90
0
 91
0
280
0
281
0
  0
CLASS
  1
ACDBPLACEHOLDER
  2
AcDbPlaceHolder
  3
ObjectDBX Classes
 90
0
 91
0
280
0
281
0
  0
CLASS
  1
LAYOUT
  2
AcDbLayout
  3
ObjectDBX Classes
 90
0
 91
0
280
0
281
0
  0
ENDSEC
  0
SECTION
  2
TABLES
  0
TABLE
  2
VPORT
  5
8
330
0
100
AcDbSymbolTable
 70
1
  0
VPORT
  5
23
330
8
100
AcDbSymbolTableRecord
100
AcDbViewportTableRecord
  2
*Active
 70
0
 10
0.0
 20
0.0
 11
1.0
 21
1.0
 12
0.0
 22
0.0
 13
0.0
 23
0.0
 14
0.5
 24
0.5
 15
0.5
 25
0.5
 16
0.0
 26
0.0
 36
1.0
 17
0.0
 27
0.0
 37
0.0
 40
1000.0
 41
1.34
 42
50.0
 43
0.0
 44
0.0
 50
0.0
 51
0.0
 71
0
 72
1000
 73
1
 74
3
 75
0
 76
0
 77
0
 78
0
281
0
 65
0
146
0.0
  0
ENDTAB
  0
TABLE
  2
LTYPE
  5
2
330
0
100
AcDbSymbolTable
 70
3
  0
LTYPE
  5
24
330
2
100
AcDbSymbolTableRecord
100
AcDbLinetypeTableRecord
  2
ByBlock
 70
0
  3

 72
65
 73
0
 40
0.0
  0
LTYPE
  5
25
330
2
100
AcDbSymbolTableRecord
100
AcDbLinetypeTableRecord
  2
ByLayer
 70
0
  3

 72
65
 73
0
 40
0.0
  0
LTYPE
  5
26
330
2
100
AcDbSymbolTableRecord
100
AcDbLinetypeTableRecord
  2
Continuous
 70
0
  3

 72
65
 73
0
 40
0.0
  0
ENDTAB
  0
TABLE
  2
LAYER
  5
1
330
0
100
AcDbSymbolTable
 70
2
  0
LAYER
  5
27
330
1
100
AcDbSymbolTableRecord
100
AcDbLayerTableRecord
  2
0
 70
0
 62
7
  6
Continuous
370
-3
390
13
347
21
  0
LAYER
  5
28
330
1
100
AcDbSymbolTableRecord
100
AcDbLayerTableRecord
  2
Defpoints
 70
0
 62
7
  6
Continuous
290
0
370
-3
390
13
347
21
  0
ENDTAB
  0
TABLE
  2
STYLE
  5
5
330
0
100
AcDbSymbolTable
 70
1
  0
STYLE
  5
29
330
5
100
AcDbSymbolTableRecord
100
AcDbTextStyleTableRecord
  2
Standard
 70
0
 40
0.0
 41
1.0
 50
0.0
 71
0
 42
2.5
  3
txt
  4

  0
ENDTAB
  0
TABLE
  2
VIEW
  5
7
330
0
100
AcDbSymbolTable
 70
0
  0
ENDTAB
  0
TABLE
  2
UCS
  5
6
330
0
100
AcDbSymbolTable
 70
0
  0
ENDTAB
  0
TABLE
  2
APPID
  5
3
330
0
100
AcDbSymbolTable
 70
3
  0
APPID
  5
2A
330
3
100
AcDbSymbolTableRecord
100
AcDbRegAppTableRecord
  2
ACAD
 70
0
  0
APPID
  5
3D
330
3
100
AcDbSymbolTableRecord
100
AcDbRegAppTableRecord
  2
HATCHBACKGROUNDCOLOR
 70
0
  0
APPID
  5
3E
330
3
100
AcDbSymbolTableRecord
100
AcDbRegAppTableRecord
  2
EZDXF
 70
0
  0
ENDTAB
  0
TABLE
  2
DIMSTYLE
  5
4
330
0
100
AcDbSymbolTable
 70
1
100
AcDbDimStyleTable
  0
DIMSTYLE
105
2B
330
4
100
AcDbSymbolTableRecord
100
AcDbDimStyleTableRecord
  2
Standard
 70
0
 40
1.0
 41
2.5
 42
0.625
 43
3.75
 44
1.25
 45
0.0
 46
0.0
 47
0.0
 48
0.0
 49
2.5
140
2.5
141
2.5
142
0.0
143
0.03937007874
144
1.0
145
0.0
146
1.0
147
0.625
148
0.0
 69
0
 70
0
 71
0
 72
0
 73
0
 74
0
 75
0
 76
0
 77
1
 78
8
 79
3
170
0
171
3
172
1
173
0
174
0
175
0
176
0
177
0
178
0
179
2
271
2
272
2
273
2
274
3
275
0
276
0
277
2
278
44
279
0
280
0
281
0
282
0
283
0
284
8
285
0
286
0
288
0
289
3
290
0
371
-2
372
-2
  0
ENDTAB
  0
TABLE
  2
BLOCK_RECORD
  5
9
330
0
100
AcDbSymbolTable
 70
2
  0
BLOCK_RECORD
  5
17
330
9
100
AcDbSymbolTableRecord
100
AcDbBlockTableRecord
  2
*Model_Space
340
1A
 70
0
280
1
281
0
  0
BLOCK_RECORD
  5
1B
330
9
100
AcDbSymbolTableRecord
100
AcDbBlockTableRecord
  2
*Paper_Space
340
1E
 70
0
280
1
281
0
  0
ENDTAB
  0
ENDSEC
  0
SECTION
  2
BLOCKS
  0
BLOCK
  5
18
330
17
100
AcDbEntity
  8
0
100
AcDbBlockBegin
  2
*Model_Space
 70
0
 10
0.0
 20
0.0
 30
0.0
  3
*Model_Space
  1

  0
ENDBLK
  5
19
330
17
100
AcDbEntity
  8
0
100
AcDbBlockEnd
  0
BLOCK
  5
1C
330
1B
100
AcDbEntity
  8
0
100
AcDbBlockBegin
  2
*Paper_Space
 70
0
 10
0.0
 20
0.0
 30
0.0
  3
*Paper_Space
  1

  0
ENDBLK
  5
1D
330
1B
100
AcDbEntity
  8
0
100
AcDbBlockEnd
  0
ENDSEC
  0
SECTION
  2
ENTITIES
  0
LWPOLYLINE
  5
2F
330
17
100
AcDbEntity
  8
0
 62
0
100
AcDbPolyline
 90
65
 70
0
 10
9.869679026651719
 20
-32.5359714148951
 10
6.633070948548363
 20
-33.34669953370984
 10
3.3325827712050664
 20
-33.836280706854694
 10
2.0818995585505003e-15
 20
-34.0
 10
-3.332582771205062
 20
-33.836280706854694
 10
-6.633070948548358
 20
-33.34669953370984
 10
-9.869679026651713
 20
-32.5359714148951
 10
-13.01123670041305
 20
-31.411904105383748
 10
-16.027489052083922
 20
-29.98532298784407
 10
-18.889387922666465
 20
-28.26996681828654
 10
-21.56937166156394
 20
-26.28235541433306
 10
-24.041630560342615
 20
-24.041630560342618
 10
-26.282355414333058
 20
-21.569371661563945
 10
-28.26996681828654
 20
-18.889387922666472
 10
-29.985322987844068
 20
-16.027489052083926
 10
-31.411904105383748
 20
-13.011236700413056
 10
-32.5359714148951
 20
-9.86967902665172
 10
-33.34669953370984
 20
-6.633070948548372
 10
-33.836280706854694
 20
-3.332582771205068
 10
-34.0
 20
-4.1637991171010006e-15
 10
-33.836280706854694
 20
3.33258277120506
 10
-33.34669953370984
 20
6.633070948548364
 10
-32.5359714148951
 20
9.869679026651712
 10
-31.41190410538375
 20
13.011236700413049
 10
-29.98532298784407
 20
16.02748905208392
 10
-28.269966818286544
 20
18.889387922666465
 10
-26.28235541433306
 20
21.569371661563938
 10
-24.04163056034262
 20
24.041630560342615
 10
-21.569371661563963
 20
26.282355414333047
 10
-18.889387922666472
 20
28.269966818286537
 10
-16.027489052083926
 20
29.985322987844068
 10
-13.011236700413072
 20
31.41190410538374
 10
-9.869679026651722
 20
32.5359714148951
 10
-6.633070948548375
 20
33.34669953370983
 10
-3.3325827712050553
 20
33.836280706854694
 10
-6.245698675651501e-15
 20
34.0
 10
3.332582771205043
 20
33.836280706854694
 10
6.6330709485483625
 20
33.34669953370984
 10
9.86967902665171
 20
32.5359714148951
 10
13.01123670041306
 20
31.411904105383744
 10
16.02748905208392
 20
29.98532298784407
 10
18.88938792266646
 20
28.269966818286544
 10
21.56937166156395
 20
26.282355414333054
 10
24.04163056034261
 20
24.04163056034262
 10
26.282355414333043
 20
21.569371661563963
 10
28.269966818286537
 20
18.889387922666472
 10
29.985322987844064
 20
16.02748905208393
 10
31.41190410538374
 20
13.011236700413074
 10
32.5359714148951
 20
9.869679026651724
 10
33.34669953370983
 20
6.633070948548377
 10
33.836280706854694
 20
3.332582771205057
 10
34.0
 20
0.0
 10
33.836280706854694
 20
-3.3325827712050606
 10
33.34669953370984
 20
-6.633070948548361
 10
32.5359714148951
 20
-9.869679026651719
 10
31.411904105383748
 20
-13.011236700413052
 10
29.98532298784407
 20
-16.02748905208392
 10
28.269966818286537
 20
-18.889387922666472
 10
26.282355414333058
 20
-21.569371661563945
 10
24.041630560342618
 20
-24.041630560342618
 10
21.569371661563945
 20
-26.282355414333054
 10
18.88938792266648
 20
-28.269966818286537
 10
16.027489052083926
 20
-29.985322987844068
 10
13.011236700413054
 20
-31.411904105383748
 10
9.869679026651719
 20
-32.5359714148951
  0
LWPOLYLINE
  5
30
330
17
100
AcDbEntity
  8
0
 62
0
100
AcDbPolyline
 90
65
 70
0
 10
0.7982828624497706
 20
2.6315859232635748
 10
0.5364983855443528
 20
2.6971595211088837
 10
0.26954713590629026
 20
2.7367579983485415
 10
-5.051668046482832e-16
 20
2.75
 10
-0.26954713590629126
 20
2.7367579983485415
 10
-0.5364983855443538
 20
2.6971595211088832
 10
-0.7982828624497718
 20
2.6315859232635743
 10
-1.0523794390039984
 20
2.540668714406038
 10
-1.296341026271494
 20
2.425283476957976
 10
-1.527818140803906
 20
2.2865414338319994
 10
-1.7445815314500264
 20
2.125778746747526
 10
-1.944543648263006
 20
1.9445436482630054
 10
-2.125778746747527
 20
1.7445815314500246
 10
-2.286541433832
 20
1.5278181408039053
 10
-2.4252834769579765
 20
1.2963410262714936
 10
-2.540668714406039
 20
1.0523794390039967
 10
-2.6315859232635748
 20
0.7982828624497708
 10
-2.6971595211088837
 20
0.536498385544353
 10
-2.7367579983485415
 20
0.26954713590629165
 10
-2.75
 20
-3.3677786976552215e-16
 10
-2.736757998348541
 20
-0.26954713590629226
 10
-2.6971595211088837
 20
-0.5364983855443537
 10
-2.6315859232635743
 20
-0.7982828624497715
 10
-2.5406687144060385
 20
-1.052379439003997
 10
-2.425283476957976
 20
-1.296341026271494
 10
-2.286541433832
 20
-1.527818140803906
 10
-2.125778746747527
 20
-1.744581531450025
 10
-1.9445436482630054
 20
-1.9445436482630059
 10
-1.7445815314500248
 20
-2.125778746747527
 10
-1.5278181408039053
 20
-2.286541433832
 10
-1.2963410262714936
 20
-2.4252834769579765
 10
-1.0523794390039967
 20
-2.5406687144060385
 10
-0.798282862449771
 20
-2.6315859232635748
 10
-0.5364983855443526
 20
-2.6971595211088837
 10
-0.26954713590629176
 20
-2.7367579983485415
 10
1.6838893488276108e-16
 20
-2.75
 10
0.2695471359062921
 20
-2.736757998348541
 10
0.5364983855443529
 20
-2.6971595211088837
 10
0.7982828624497714
 20
-2.6315859232635748
 10
1.052379439003997
 20
-2.5406687144060385
 10
1.296341026271494
 20
-2.425283476957976
 10
1.5278181408039062
 20
-2.2865414338319994
 10
1.744581531450025
 20
-2.1257787467475264
 10
1.9445436482630059
 20
-1.9445436482630059
 10
2.125778746747527
 20
-1.744581531450025
 10
2.2865414338319994
 20
-1.527818140803906
 10
2.4252834769579765
 20
-1.2963410262714936
 10
2.5406687144060385
 20
-1.0523794390039969
 10
2.6315859232635743
 20
-0.7982828624497714
 10
2.6971595211088837
 20
-0.5364983855443527
 10
2.7367579983485415
 20
-0.26954713590629165
 10
2.75
 20
0.0
 10
2.7367579983485415
 20
0.26954713590629137
 10
2.6971595211088832
 20
0.536498385544354
 10
2.6315859232635743
 20
0.7982828624497719
 10
2.540668714406038
 20
1.0523794390039987
 10
2.4252834769579756
 20
1.2963410262714943
 10
2.2865414338319994
 20
1.527818140803906
 10
2.1257787467475255
 20
1.7445815314500264
 10
1.9445436482630052
 20
1.944543648263006
 10
1.7445815314500255
 20
2.1257787467475264
 10
1.527818140803905
 20
2.286541433832
 10
1.2963410262714934
 20
2.4252834769579765
 10
1.0523794390039976
 20
2.540668714406038
 10
0.7982828624497706
 20
2.6315859232635748
  0
LWPOLYLINE
  5
31
330
17
100
AcDbEntity
  8
0
 62
0
100
AcDbPolyline
 90
65
 70
0
 10
23.052379439003996
 20
2.540668714406038
 10
22.79828286244977
 20
2.6315859232635748
 10
22.536498385544352
 20
2.6971595211088837
 10
22.26954713590629
 20
2.7367579983485415
 10
22.0
 20
2.75
 10
21.73045286409371
 20
2.7367579983485415
 10
21.463501614455645
 20
2.6971595211088832
 10
21.20171713755023
 20
2.6315859232635743
 10
20.947620560996
 20
2.540668714406038
 10
20.703658973728505
 20
2.425283476957976
 10
20.472181859196095
 20
2.2865414338319994
 10
20.255418468549973
 20
2.125778746747526
 10
20.055456351736993
 20
1.9445436482630054
 10
19.874221253252472
 20
1.7445815314500246
 10
19.713458566168
 20
1.5278181408039053
 10
19.574716523042024
 20
1.2963410262714936
 10
19.45933128559396
 20
1.0523794390039967
 10
19.368414076736425
 20
0.7982828624497708
 10
19.302840478891117
 20
0.536498385544353
 10
19.26324200165146
 20
0.26954713590629165
 10
19.25
 20
-3.3677786976552215e-16
 10
19.26324200165146
 20
-0.26954713590629226
 10
19.302840478891117
 20
-0.5364983855443537
 10
19.368414076736425
 20
-0.7982828624497715
 10
19.45933128559396
 20
-1.052379439003997
 10
19.574716523042024
 20
-1.296341026271494
 10
19.713458566168
 20
-1.527818140803906
 10
19.874221253252472
 20
-1.744581531450025
 10
20.055456351736993
 20
-1.9445436482630059
 10
20.255418468549976
 20
-2.125778746747527
 10
20.472181859196095
 20
-2.286541433832
 10
20.703658973728505
 20
-2.4252834769579765
 10
20.947620560996004
 20
-2.5406687144060385
 10
21.20171713755023
 20
-2.6315859232635748
 10
21.463501614455648
 20
-2.6971595211088837
 10
21.730452864093706
 20
-2.7367579983485415
 10
22.0
 20
-2.75
 10
22.269547135906294
 20
-2.736757998348541
 10
22.536498385544352
 20
-2.6971595211088837
 10
22.79828286244977
 20
-2.6315859232635748
 10
23.052379439003996
 20
-2.5406687144060385
 10
23.296341026271495
 20
-2.425283476957976
 10
23.527818140803905
 20
-2.2865414338319994
 10
23.744581531450024
 20
-2.1257787467475264
 10
23.944543648263007
 20
-1.9445436482630059
 10
24.125778746747528
 20
-1.744581531450025
 10
24.286541433832
 20
-1.527818140803906
 10
24.425283476957976
 20
-1.2963410262714936
 10
24.54066871440604
 20
-1.0523794390039969
 10
24.631585923263575
 20
-0.7982828624497714
 10
24.697159521108883
 20
-0.5364983855443527
 10
24.73675799834854
 20
-0.26954713590629165
 10
24.75
 20
0.0
 10
24.73675799834854
 20
0.26954713590629137
 10
24.697159521108883
 20
0.536498385544354
 10
24.631585923263575
 20
0.7982828624497719
 10
24.54066871440604
 20
1.0523794390039987
 10
24.425283476957976
 20
1.2963410262714943
 10
24.286541433832
 20
1.527818140803906
 10
24.125778746747525
 20
1.7445815314500264
 10
23.944543648263004
 20
1.944543648263006
 10
23.744581531450024
 20
2.1257787467475264
 10
23.527818140803905
 20
2.286541433832
 10
23.29634102627149
 20
2.4252834769579765
 10
23.052379439003996
 20
2.540668714406038
  0
LWPOLYLINE
  5
32
330
17
100
AcDbEntity
  8
0
 62
0
100
AcDbPolyline
 90
65
 70
0
 10
20.348899909529145
 20
13.425283476957976
 10
20.10493832226165
 20
13.540668714406037
 10
19.850841745707424
 20
13.631585923263573
 10
19.589057268802005
 20
13.697159521108881
 10
19.322106019163943
 20
13.73675799834854
 10
19.052558883257653
 20
13.749999999999998
 10
18.783011747351363
 20
13.73675799834854
 10
18.516060497713298
 20
13.697159521108881
 10
18.254276020807882
 20
13.631585923263572
 10
18.000179444253654
 20
13.540668714406037
 10
17.756217856986158
 20
13.425283476957974
 10
17.524740742453748
 20
13.286541433831998
 10
17.307977351807626
 20
13.125778746747525
 10
17.108015234994646
 20
12.944543648263004
 10
16.926780136510125
 20
12.744581531450024
 10
16.766017449425654
 20
12.527818140803904
 10
16.627275406299677
 20
12.296341026271492
 10
16.511890168851615
 20
12.052379439003994
 10
16.420972959994078
 20
11.798282862449769
 10
16.35539936214877
 20
11.536498385544352
 10
16.315800884909113
 20
11.26954713590629
 10
16.302558883257653
 20
10.999999999999998
 10
16.315800884909113
 20
10.730452864093706
 10
16.35539936214877
 20
10.463501614455645
 10
16.420972959994078
 20
10.201717137550226
 10
16.511890168851615
 20
9.947620560996
 10
16.627275406299677
 20
9.703658973728505
 10
16.766017449425654
 20
9.472181859196093
 10
16.926780136510125
 20
9.255418468549973
 10
17.108015234994646
 20
9.055456351736993
 10
17.30797735180763
 20
8.874221253252472
 10
17.524740742453748
 20
8.713458566167999
 10
17.756217856986158
 20
8.57471652304202
 10
18.000179444253657
 20
8.45933128559396
 10
18.254276020807882
 20
8.368414076736423
 10
18.5160604977133
 20
8.302840478891115
 10
18.78301174735136
 20
8.263242001651456
 10
19.052558883257653
 20
8.249999999999998
 10
19.322106019163947
 20
8.263242001651458
 10
19.589057268802005
 20
8.302840478891115
 10
19.850841745707424
 20
8.368414076736423
 10
20.10493832226165
 20
8.45933128559396
 10
20.34889990952915
 20
8.574716523042023
 10
20.58037702406156
 20
8.713458566167999
 10
20.797140414707677
 20
8.874221253252472
 10
20.99710253152066
 20
9.055456351736993
 10
21.17833763000518
 20
9.255418468549973
 10
21.339100317089652
 20
9.472181859196093
 10
21.47784236021563
 20
9.703658973728505
 10
21.59322759766369
 20
9.947620560996
 10
21.68414480652123
 20
10.201717137550228
 10
21.749718404366536
 20
10.463501614455646
 10
21.789316881606194
 20
10.730452864093706
 10
21.802558883257653
 20
10.999999999999998
 10
21.789316881606194
 20
11.26954713590629
 10
21.749718404366536
 20
11.536498385544352
 10
21.68414480652123
 20
11.79828286244977
 10
21.59322759766369
 20
12.052379439003996
 10
21.47784236021563
 20
12.296341026271492
 10
21.339100317089652
 20
12.527818140803904
 10
21.178337630005178
 20
12.744581531450024
 10
20.997102531520657
 20
12.944543648263004
 10
20.797140414707677
 20
13.125778746747525
 10
20.58037702406156
 20
13.286541433831998
 10
20.348899909529145
 20
13.425283476957976
  0
LWPOLYLINE
  5
33
330
17
100
AcDbEntity
  8
0
 62
0
100
AcDbPolyline
 90
65
 70
0
 10
12.527818140803907
 20
21.33910031708965
 10
12.296341026271495
 20
21.477842360215625
 10
12.052379439004
 20
21.593227597663688
 10
11.798282862449772
 20
21.684144806521225
 10
11.536498385544355
 20
21.749718404366533
 10
11.269547135906292
 20
21.78931688160619
 10
11.000000000000002
 20
21.80255888325765
 10
10.73045286409371
 20
21.78931688160619
 10
10.463501614455648
 20
21.749718404366533
 10
10.20171713755023
 20
21.684144806521225
 10
9.947620560996004
 20
21.593227597663688
 10
9.703658973728508
 20
21.477842360215625
 10
9.472181859196096
 20
21.33910031708965
 10
9.255418468549976
 20
21.178337630005174
 10
9.055456351736996
 20
20.997102531520653
 10
8.874221253252475
 20
20.797140414707673
 10
8.713458566168002
 20
20.580377024061555
 10
8.574716523042024
 20
20.348899909529145
 10
8.459331285593963
 20
20.104938322261646
 10
8.368414076736427
 20
19.85084174570742
 10
8.302840478891119
 20
19.589057268802
 10
8.26324200165146
 20
19.32210601916394
 10
8.250000000000002
 20
19.05255888325765
 10
8.263242001651461
 20
18.783011747351356
 10
8.302840478891119
 20
18.516060497713298
 10
8.368414076736428
 20
18.25427602080788
 10
8.459331285593963
 20
18.000179444253654
 10
8.574716523042026
 20
17.756217856986154
 10
8.713458566168002
 20
17.524740742453744
 10
8.874221253252475
 20
17.307977351807626
 10
9.055456351736996
 20
17.108015234994642
 10
9.255418468549976
 20
16.92678013651012
 10
9.472181859196096
 20
16.76601744942565
 10
9.703658973728508
 20
16.627275406299674
 10
9.947620560996006
 20
16.51189016885161
 10
10.201717137550231
 20
16.420972959994074
 10
10.46350161445565
 20
16.355399362148766
 10
10.73045286409371
 20
16.31580088490911
 10
11.000000000000002
 20
16.30255888325765
 10
11.269547135906294
 20
16.31580088490911
 10
11.536498385544355
 20
16.355399362148766
 10
11.798282862449772
 20
16.420972959994074
 10
12.052379439004
 20
16.51189016885161
 10
12.296341026271495
 20
16.627275406299674
 10
12.527818140803909
 20
16.76601744942565
 10
12.744581531450027
 20
16.926780136510125
 10
12.944543648263007
 20
17.108015234994642
 10
13.125778746747528
 20
17.307977351807626
 10
13.286541433832001
 20
17.524740742453744
 10
13.42528347695798
 20
17.756217856986154
 10
13.54066871440604
 20
18.000179444253654
 10
13.631585923263575
 20
18.25427602080788
 10
13.697159521108885
 20
18.516060497713298
 10
13.736757998348544
 20
18.78301174735136
 10
13.750000000000002
 20
19.05255888325765
 10
13.736757998348544
 20
19.32210601916394
 10
13.697159521108885
 20
19.589057268802005
 10
13.631585923263575
 20
19.85084174570742
 10
13.54066871440604
 20
20.10493832226165
 10
13.425283476957977
 20
20.348899909529145
 10
13.286541433832001
 20
20.580377024061555
 10
13.125778746747528
 20
20.797140414707677
 10
12.944543648263007
 20
20.997102531520657
 10
12.744581531450027
 20
21.178337630005174
 10
12.527818140803907
 20
21.33910031708965
  0
LWPOLYLINE
  5
34
330
17
100
AcDbEntity
  8
0
 62
0
100
AcDbPolyline
 90
65
 70
0
 10
1.7445815314500268
 20
24.125778746747528
 10
1.5278181408039064
 20
24.286541433832
 10
1.2963410262714947
 20
24.425283476957976
 10
1.0523794390039989
 20
24.54066871440604
 10
0.798282862449772
 20
24.631585923263575
 10
0.5364983855443541
 20
24.697159521108883
 10
0.2695471359062916
 20
24.73675799834854
 10
8.419446744138054e-16
 20
24.75
 10
-0.2695471359062899
 20
24.73675799834854
 10
-0.5364983855443525
 20
24.697159521108883
 10
-0.7982828624497704
 20
24.631585923263575
 10
-1.052379439003997
 20
24.54066871440604
 10
-1.2963410262714927
 20
24.425283476957976
 10
-1.5278181408039047
 20
24.286541433832
 10
-1.744581531450025
 20
24.125778746747525
 10
-1.9445436482630047
 20
23.944543648263007
 10
-2.1257787467475255
 20
23.744581531450024
 10
-2.2865414338319985
 20
23.527818140803905
 10
-2.425283476957975
 20
23.296341026271495
 10
-2.5406687144060376
 20
23.052379439003996
 10
-2.6315859232635734
 20
22.79828286244977
 10
-2.6971595211088824
 20
22.536498385544352
 10
-2.73675799834854
 20
22.26954713590629
 10
-2.7499999999999987
 20
22.0
 10
-2.7367579983485397
 20
21.730452864093706
 10
-2.6971595211088824
 20
21.463501614455645
 10
-2.631585923263573
 20
21.20171713755023
 10
-2.540668714406037
 20
20.947620560996004
 10
-2.4252834769579747
 20
20.703658973728505
 10
-2.2865414338319985
 20
20.472181859196095
 10
-2.1257787467475255
 20
20.255418468549976
 10
-1.944543648263004
 20
20.055456351736993
 10
-1.7445815314500235
 20
19.874221253252472
 10
-1.527818140803904
 20
19.713458566168
 10
-1.2963410262714923
 20
19.574716523042024
 10
-1.0523794390039953
 20
19.45933128559396
 10
-0.7982828624497696
 20
19.368414076736425
 10
-0.5364983855443513
 20
19.302840478891117
 10
-0.2695471359062904
 20
19.26324200165146
 10
1.5155004139448496e-15
 20
19.25
 10
0.2695471359062934
 20
19.26324200165146
 10
0.5364983855443543
 20
19.302840478891117
 10
0.7982828624497728
 20
19.368414076736425
 10
1.0523794390039984
 20
19.45933128559396
 10
1.2963410262714954
 20
19.574716523042024
 10
1.5278181408039075
 20
19.713458566168
 10
1.7445815314500264
 20
19.874221253252472
 10
1.9445436482630072
 20
20.055456351736993
 10
2.125778746747528
 20
20.255418468549976
 10
2.2865414338320007
 20
20.472181859196095
 10
2.425283476957978
 20
20.703658973728505
 10
2.54066871440604
 20
20.947620560996004
 10
2.6315859232635757
 20
21.20171713755023
 10
2.697159521108885
 20
21.463501614455648
 10
2.736757998348543
 20
21.73045286409371
 10
2.7500000000000013
 20
22.0
 10
2.736757998348543
 20
22.26954713590629
 10
2.6971595211088846
 20
22.536498385544355
 10
2.6315859232635757
 20
22.79828286244977
 10
2.5406687144060394
 20
23.052379439004
 10
2.425283476957977
 20
23.296341026271495
 10
2.2865414338320007
 20
23.527818140803905
 10
2.125778746747527
 20
23.744581531450027
 10
1.9445436482630065
 20
23.944543648263007
 10
1.7445815314500268
 20
24.125778746747528
  0
LWPOLYLINE
  5
35
330
17
100
AcDbEntity
  8
0
 62
0
100
AcDbPolyline
 90
65
 70
0
 10
-9.05545635173699
 20
20.99710253152066
 10
-9.25541846854997
 20
21.17833763000518
 10
-9.47218185919609
 20
21.339100317089652
 10
-9.703658973728501
 20
21.47784236021563
 10
-9.947620560995997
 20
21.59322759766369
 10
-10.201717137550224
 20
21.68414480652123
 10
-10.463501614455641
 20
21.749718404366536
 10
-10.730452864093705
 20
21.789316881606194
 10
-10.999999999999995
 20
21.802558883257653
 10
-11.269547135906286
 20
21.789316881606194
 10
-11.536498385544348
 20
21.749718404366536
 10
-11.798282862449767
 20
21.68414480652123
 10
-12.052379439003992
 20
21.59322759766369
 10
-12.296341026271488
 20
21.47784236021563
 10
-12.5278181408039
 20
21.339100317089652
 10
-12.74458153145002
 20
21.178337630005178
 10
-12.944543648263
 20
20.99710253152066
 10
-13.125778746747521
 20
20.797140414707677
 10
-13.286541433831994
 20
20.58037702406156
 10
-13.425283476957972
 20
20.34889990952915
 10
-13.540668714406033
 20
20.10493832226165
 10
-13.63158592326357
 20
19.850841745707424
 10
-13.697159521108878
 20
19.589057268802005
 10
-13.736757998348537
 20
19.322106019163943
 10
-13.749999999999995
 20
19.052558883257653
 10
-13.736757998348535
 20
18.78301174735136
 10
-13.697159521108878
 20
18.516060497713298
 10
-13.631585923263568
 20
18.254276020807882
 10
-13.540668714406033
 20
18.000179444253657
 10
-13.42528347695797
 20
17.756217856986158
 10
-13.286541433831994
 20
17.524740742453748
 10
-13.125778746747521
 20
17.30797735180763
 10
-12.944543648263
 20
17.108015234994646
 10
-12.74458153145002
 20
16.926780136510125
 10
-12.5278181408039
 20
16.766017449425654
 10
-12.296341026271488
 20
16.627275406299677
 10
-12.05237943900399
 20
16.511890168851615
 10
-11.798282862449765
 20
16.420972959994078
 10
-11.536498385544347
 20
16.35539936214877
 10
-11.269547135906286
 20
16.315800884909113
 10
-10.999999999999995
 20
16.302558883257653
 10
-10.730452864093703
 20
16.315800884909113
 10
-10.463501614455641
 20
16.35539936214877
 10
-10.201717137550224
 20
16.420972959994078
 10
-9.947620560995997
 20
16.511890168851615
 10
-9.703658973728501
 20
16.627275406299677
 10
-9.472181859196088
 20
16.766017449425654
 10
-9.25541846854997
 20
16.926780136510125
 10
-9.05545635173699
 20
17.108015234994646
 10
-8.874221253252468
 20
17.30797735180763
 10
-8.713458566167995
 20
17.524740742453748
 10
-8.574716523042017
 20
17.756217856986158
 10
-8.459331285593956
 20
18.000179444253657
 10
-8.368414076736421
 20
18.254276020807882
 10
-8.302840478891111
 20
18.5160604977133
 10
-8.263242001651452
 20
18.783011747351363
 10
-8.249999999999995
 20
19.052558883257653
 10
-8.263242001651452
 20
19.322106019163943
 10
-8.302840478891111
 20
19.58905726880201
 10
-8.368414076736421
 20
19.850841745707424
 10
-8.459331285593956
 20
20.104938322261653
 10
-8.574716523042019
 20
20.34889990952915
 10
-8.713458566167995
 20
20.58037702406156
 10
-8.874221253252468
 20
20.79714041470768
 10
-9.05545635173699
 20
20.99710253152066
  0
LWPOLYLINE
  5
36
330
17
100
AcDbEntity
  8
0
 62
0
100
AcDbPolyline
 90
65
 70
0
 10
-16.92678013651012
 20
12.744581531450034
 10
-17.108015234994642
 20
12.944543648263013
 10
-17.307977351807622
 20
13.125778746747534
 10
-17.52474074245374
 20
13.286541433832006
 10
-17.756217856986154
 20
13.425283476957983
 10
-18.00017944425365
 20
13.540668714406046
 10
-18.254276020807875
 20
13.631585923263582
 10
-18.516060497713294
 20
13.69715952110889
 10
-18.783011747351356
 20
13.736757998348548
 10
-19.052558883257646
 20
13.750000000000007
 10
-19.322106019163936
 20
13.736757998348548
 10
-19.589057268802
 20
13.69715952110889
 10
-19.850841745707417
 20
13.631585923263582
 10
-20.104938322261646
 20
13.540668714406046
 10
-20.34889990952914
 20
13.425283476957983
 10
-20.58037702406155
 20
13.286541433832006
 10
-20.797140414707673
 20
13.125778746747534
 10
-20.997102531520653
 20
12.944543648263013
 10
-21.178337630005174
 20
12.74458153145003
 10
-21.339100317089645
 20
12.527818140803912
 10
-21.47784236021562
 20
12.2963410262715
 10
-21.593227597663684
 20
12.052379439004003
 10
-21.68414480652122
 20
11.798282862449778
 10
-21.74971840436653
 20
11.53649838554436
 10
-21.789316881606187
 20
11.269547135906299
 10
-21.802558883257646
 20
11.000000000000007
 10
-21.789316881606187
 20
10.730452864093715
 10
-21.74971840436653
 20
10.463501614455653
 10
-21.68414480652122
 20
10.201717137550236
 10
-21.593227597663684
 20
9.94762056099601
 10
-21.47784236021562
 20
9.703658973728514
 10
-21.339100317089645
 20
9.472181859196102
 10
-21.178337630005174
 20
9.255418468549982
 10
-20.997102531520653
 20
9.055456351737002
 10
-20.79714041470767
 20
8.87422125325248
 10
-20.58037702406155
 20
8.713458566168008
 10
-20.34889990952914
 20
8.574716523042031
 10
-20.104938322261642
 20
8.459331285593969
 10
-19.850841745707417
 20
8.368414076736432
 10
-19.589057268801998
 20
8.302840478891124
 10
-19.32210601916394
 20
8.263242001651466
 10
-19.052558883257646
 20
8.250000000000007
 10
-18.783011747351352
 20
8.263242001651466
 10
-18.516060497713294
 20
8.302840478891124
 10
-18.254276020807875
 20
8.368414076736432
 10
-18.00017944425365
 20
8.459331285593969
 10
-17.75621785698615
 20
8.574716523042031
 10
-17.52474074245374
 20
8.713458566168008
 10
-17.307977351807622
 20
8.87422125325248
 10
-17.10801523499464
 20
9.055456351737002
 10
-16.926780136510118
 20
9.255418468549982
 10
-16.766017449425647
 20
9.472181859196102
 10
-16.62727540629967
 20
9.703658973728514
 10
-16.511890168851608
 20
9.947620560996011
 10
-16.42097295999407
 20
10.201717137550236
 10
-16.355399362148763
 20
10.463501614455655
 10
-16.315800884909105
 20
10.730452864093715
 10
-16.302558883257646
 20
11.000000000000007
 10
-16.315800884909105
 20
11.269547135906299
 10
-16.355399362148763
 20
11.53649838554436
 10
-16.42097295999407
 20
11.79828286244978
 10
-16.511890168851608
 20
12.052379439004007
 10
-16.62727540629967
 20
12.296341026271502
 10
-16.766017449425647
 20
12.527818140803912
 10
-16.92678013651012
 20
12.744581531450034
  0
LWPOLYLINE
  5
37
330
17
100
AcDbEntity
  8
0
 62
0
100
AcDbPolyline
 90
65
 70
0
 10
-19.713458566168
 20
1.5278181408039087
 10
-19.874221253252475
 20
1.744581531450029
 10
-20.055456351736996
 20
1.9445436482630087
 10
-20.255418468549976
 20
2.125778746747529
 10
-20.472181859196095
 20
2.2865414338320025
 10
-20.70365897372851
 20
2.425283476957979
 10
-20.947620560996004
 20
2.5406687144060407
 10
-21.20171713755023
 20
2.6315859232635774
 10
-21.463501614455648
 20
2.6971595211088863
 10
-21.73045286409371
 20
2.736757998348544
 10
-22.0
 20
2.7500000000000027
 10
-22.26954713590629
 20
2.736757998348544
 10
-22.536498385544355
 20
2.697159521108886
 10
-22.79828286244977
 20
2.631585923263577
 10
-23.052379439004
 20
2.5406687144060407
 10
-23.296341026271495
 20
2.4252834769579787
 10
-23.527818140803905
 20
2.286541433832002
 10
-23.744581531450027
 20
2.1257787467475286
 10
-23.944543648263007
 20
1.944543648263008
 10
-24.125778746747528
 20
1.7445815314500273
 10
-24.286541433832
 20
1.527818140803908
 10
-24.425283476957976
 20
1.2963410262714963
 10
-24.54066871440604
 20
1.0523794390039993
 10
-24.631585923263575
 20
0.7982828624497734
 10
-24.697159521108883
 20
0.5364983855443557
 10
-24.73675799834854
 20
0.26954713590629437
 10
-24.75
 20
2.357445088358655e-15
 10
-24.73675799834854
 20
-0.26954713590628954
 10
-24.697159521108883
 20
-0.536498385544351
 10
-24.631585923263575
 20
-0.7982828624497689
 10
-24.54066871440604
 20
-1.0523794390039944
 10
-24.425283476957976
 20
-1.2963410262714914
 10
-24.286541433832
 20
-1.5278181408039033
 10
-24.125778746747528
 20
-1.7445815314500224
 10
-23.944543648263007
 20
-1.9445436482630032
 10
-23.744581531450024
 20
-2.125778746747524
 10
-23.527818140803905
 20
-2.286541433831997
 10
-23.296341026271495
 20
-2.425283476957974
 10
-23.052379439003996
 20
-2.540668714406036
 10
-22.79828286244977
 20
-2.631585923263572
 10
-22.536498385544352
 20
-2.697159521108881
 10
-22.269547135906294
 20
-2.736757998348539
 10
-22.0
 20
-2.7499999999999973
 10
-21.730452864093706
 20
-2.7367579983485384
 10
-21.463501614455648
 20
-2.697159521108881
 10
-21.20171713755023
 20
-2.631585923263572
 10
-20.947620560996004
 20
-2.540668714406036
 10
-20.703658973728505
 20
-2.4252834769579734
 10
-20.472181859196095
 20
-2.2865414338319967
 10
-20.255418468549976
 20
-2.1257787467475238
 10
-20.055456351736993
 20
-1.9445436482630032
 10
-19.874221253252472
 20
-1.7445815314500224
 10
-19.713458566168
 20
-1.5278181408039033
 10
-19.574716523042024
 20
-1.296341026271491
 10
-19.45933128559396
 20
-1.0523794390039942
 10
-19.368414076736425
 20
-0.7982828624497688
 10
-19.302840478891117
 20
-0.53649838554435
 10
-19.26324200165146
 20
-0.2695471359062889
 10
-19.25
 20
2.6942229581241772e-15
 10
-19.26324200165146
 20
0.2695471359062941
 10
-19.302840478891117
 20
0.5364983855443567
 10
-19.368414076736425
 20
0.7982828624497745
 10
-19.45933128559396
 20
1.0523794390040013
 10
-19.574716523042024
 20
1.296341026271497
 10
-19.713458566168
 20
1.5278181408039087
  0
LWPOLYLINE
  5
38
330
17
100
AcDbEntity
  8
0
 62
0
100
AcDbPolyline
 90
65
 70
0
 10
-16.627275406299677
 20
-9.703658973728501
 10
-16.766017449425654
 20
-9.47218185919609
 10
-16.92678013651013
 20
-9.25541846854997
 10
-17.10801523499465
 20
-9.05545635173699
 10
-17.30797735180763
 20
-8.874221253252468
 10
-17.524740742453748
 20
-8.713458566167995
 10
-17.75621785698616
 20
-8.574716523042017
 10
-18.000179444253657
 20
-8.459331285593956
 10
-18.254276020807882
 20
-8.36841407673642
 10
-18.5160604977133
 20
-8.302840478891111
 10
-18.783011747351363
 20
-8.263242001651452
 10
-19.052558883257653
 20
-8.249999999999995
 10
-19.322106019163943
 20
-8.263242001651452
 10
-19.58905726880201
 20
-8.302840478891111
 10
-19.850841745707424
 20
-8.368414076736421
 10
-20.104938322261653
 20
-8.459331285593956
 10
-20.34889990952915
 20
-8.574716523042019
 10
-20.58037702406156
 20
-8.713458566167995
 10
-20.79714041470768
 20
-8.874221253252468
 10
-20.99710253152066
 20
-9.05545635173699
 10
-21.17833763000518
 20
-9.25541846854997
 10
-21.339100317089652
 20
-9.47218185919609
 10
-21.47784236021563
 20
-9.703658973728501
 10
-21.59322759766369
 20
-9.947620560995999
 10
-21.68414480652123
 20
-10.201717137550224
 10
-21.749718404366536
 20
-10.463501614455641
 10
-21.789316881606194
 20
-10.730452864093703
 10
-21.802558883257653
 20
-10.999999999999995
 10
-21.789316881606194
 20
-11.269547135906286
 10
-21.749718404366536
 20
-11.536498385544348
 10
-21.68414480652123
 20
-11.798282862449767
 10
-21.59322759766369
 20
-12.052379439003992
 10
-21.47784236021563
 20
-12.296341026271488
 10
-21.339100317089652
 20
-12.5278181408039
 10
-21.17833763000518
 20
-12.74458153145002
 10
-20.99710253152066
 20
-12.944543648263
 10
-20.797140414707677
 20
-13.125778746747521
 10
-20.58037702406156
 20
-13.286541433831994
 10
-20.34889990952915
 20
-13.425283476957972
 10
-20.10493832226165
 20
-13.540668714406033
 10
-19.850841745707424
 20
-13.63158592326357
 10
-19.589057268802005
 20
-13.697159521108878
 10
-19.322106019163947
 20
-13.736757998348537
 10
-19.052558883257653
 20
-13.749999999999995
 10
-18.78301174735136
 20
-13.736757998348535
 10
-18.5160604977133
 20
-13.697159521108878
 10
-18.254276020807882
 20
-13.63158592326357
 10
-18.000179444253657
 20
-13.540668714406033
 10
-17.756217856986158
 20
-13.42528347695797
 10
-17.524740742453748
 20
-13.286541433831994
 10
-17.30797735180763
 20
-13.125778746747521
 10
-17.108015234994646
 20
-12.944543648263
 10
-16.926780136510125
 20
-12.74458153145002
 10
-16.766017449425654
 20
-12.5278181408039
 10
-16.627275406299677
 20
-12.296341026271488
 10
-16.511890168851615
 20
-12.052379439003992
 10
-16.420972959994078
 20
-11.798282862449765
 10
-16.35539936214877
 20
-11.536498385544347
 10
-16.315800884909113
 20
-11.269547135906286
 10
-16.302558883257653
 20
-10.999999999999995
 10
-16.315800884909113
 20
-10.730452864093703
 10
-16.35539936214877
 20
-10.463501614455641
 10
-16.420972959994078
 20
-10.201717137550222
 10
-16.511890168851615
 20
-9.947620560995997
 10
-16.627275406299677
 20
-9.703658973728501
  0
LWPOLYLINE
  5
39
330
17
100
AcDbEntity
  8
0
 62
0
100
AcDbPolyline
 90
65
 70
0
 10
-8.459331285593972
 20
-18.000179444253646
 10
-8.574716523042035
 20
-17.75621785698615
 10
-8.713458566168011
 20
-17.52474074245374
 10
-8.874221253252486
 20
-17.30797735180762
 10
-9.055456351737005
 20
-17.10801523499464
 10
-9.255418468549985
 20
-16.926780136510118
 10
-9.472181859196105
 20
-16.766017449425647
 10
-9.703658973728517
 20
-16.62727540629967
 10
-9.947620560996013
 20
-16.511890168851608
 10
-10.20171713755024
 20
-16.42097295999407
 10
-10.463501614455659
 20
-16.355399362148763
 10
-10.73045286409372
 20
-16.315800884909105
 10
-11.00000000000001
 20
-16.302558883257646
 10
-11.269547135906302
 20
-16.315800884909105
 10
-11.536498385544364
 20
-16.355399362148763
 10
-11.798282862449783
 20
-16.42097295999407
 10
-12.052379439004008
 20
-16.511890168851608
 10
-12.296341026271504
 20
-16.62727540629967
 10
-12.527818140803916
 20
-16.766017449425647
 10
-12.744581531450038
 20
-16.92678013651012
 10
-12.944543648263016
 20
-17.10801523499464
 10
-13.125778746747537
 20
-17.307977351807622
 10
-13.28654143383201
 20
-17.52474074245374
 10
-13.425283476957986
 20
-17.75621785698615
 10
-13.54066871440605
 20
-18.00017944425365
 10
-13.631585923263586
 20
-18.254276020807875
 10
-13.697159521108894
 20
-18.516060497713294
 10
-13.736757998348551
 20
-18.783011747351356
 10
-13.75000000000001
 20
-19.052558883257646
 10
-13.736757998348551
 20
-19.32210601916394
 10
-13.697159521108894
 20
-19.589057268802
 10
-13.631585923263586
 20
-19.850841745707417
 10
-13.54066871440605
 20
-20.104938322261642
 10
-13.425283476957986
 20
-20.34889990952914
 10
-13.28654143383201
 20
-20.58037702406155
 10
-13.125778746747537
 20
-20.79714041470767
 10
-12.944543648263016
 20
-20.997102531520653
 10
-12.744581531450036
 20
-21.178337630005174
 10
-12.527818140803916
 20
-21.339100317089645
 10
-12.296341026271504
 20
-21.47784236021562
 10
-12.052379439004007
 20
-21.593227597663684
 10
-11.798282862449781
 20
-21.68414480652122
 10
-11.536498385544363
 20
-21.74971840436653
 10
-11.269547135906302
 20
-21.789316881606187
 10
-11.00000000000001
 20
-21.802558883257646
 10
-10.730452864093719
 20
-21.789316881606187
 10
-10.463501614455657
 20
-21.74971840436653
 10
-10.20171713755024
 20
-21.68414480652122
 10
-9.947620560996013
 20
-21.593227597663684
 10
-9.703658973728517
 20
-21.47784236021562
 10
-9.472181859196105
 20
-21.339100317089645
 10
-9.255418468549985
 20
-21.178337630005174
 10
-9.055456351737005
 20
-20.997102531520653
 10
-8.874221253252484
 20
-20.79714041470767
 10
-8.713458566168011
 20
-20.58037702406155
 10
-8.574716523042035
 20
-20.34889990952914
 10
-8.459331285593972
 20
-20.104938322261642
 10
-8.368414076736435
 20
-19.850841745707417
 10
-8.302840478891127
 20
-19.589057268801998
 10
-8.26324200165147
 20
-19.322106019163936
 10
-8.25000000000001
 20
-19.052558883257646
 10
-8.26324200165147
 20
-18.783011747351356
 10
-8.302840478891127
 20
-18.51606049771329
 10
-8.368414076736435
 20
-18.254276020807875
 10
-8.459331285593972
 20
-18.000179444253646
  0
LWPOLYLINE
  5
3A
330
17
100
AcDbEntity
  8
0
 62
0
100
AcDbPolyline
 90
65
 70
0
 10
2.6315859232635703
 20
-21.20171713755023
 10
2.540668714406034
 20
-20.947620560996
 10
2.4252834769579716
 20
-20.703658973728505
 10
2.2865414338319954
 20
-20.472181859196095
 10
2.1257787467475215
 20
-20.255418468549973
 10
1.9445436482630012
 20
-20.055456351736993
 10
1.7445815314500215
 20
-19.874221253252472
 10
1.527818140803901
 20
-19.713458566168
 10
1.2963410262714894
 20
-19.574716523042024
 10
1.0523794390039936
 20
-19.45933128559396
 10
0.7982828624497667
 20
-19.368414076736425
 10
0.5364983855443488
 20
-19.302840478891117
 10
0.2695471359062862
 20
-19.26324200165146
 10
-4.546501241834549e-15
 20
-19.25
 10
-0.2695471359062953
 20
-19.26324200165146
 10
-0.5364983855443578
 20
-19.302840478891117
 10
-0.7982828624497758
 20
-19.368414076736425
 10
-1.0523794390040024
 20
-19.45933128559396
 10
-1.296341026271498
 20
-19.574716523042024
 10
-1.52781814080391
 20
-19.713458566168
 10
-1.7445815314500304
 20
-19.874221253252475
 10
-1.94454364826301
 20
-20.055456351736993
 10
-2.125778746747531
 20
-20.255418468549976
 10
-2.286541433832004
 20
-20.472181859196095
 10
-2.4252834769579805
 20
-20.703658973728505
 10
-2.540668714406043
 20
-20.947620560996004
 10
-2.6315859232635788
 20
-21.20171713755023
 10
-2.6971595211088877
 20
-21.463501614455648
 10
-2.7367579983485455
 20
-21.73045286409371
 10
-2.750000000000004
 20
-22.0
 10
-2.736757998348545
 20
-22.269547135906294
 10
-2.6971595211088877
 20
-22.536498385544355
 10
-2.6315859232635783
 20
-22.79828286244977
 10
-2.5406687144060425
 20
-23.052379439003996
 10
-2.42528347695798
 20
-23.296341026271495
 10
-2.286541433832004
 20
-23.527818140803905
 10
-2.125778746747531
 20
-23.744581531450024
 10
-1.9445436482630094
 20
-23.944543648263007
 10
-1.7445815314500288
 20
-24.125778746747528
 10
-1.5278181408039093
 20
-24.286541433832
 10
-1.2963410262714976
 20
-24.425283476957976
 10
-1.0523794390040007
 20
-24.54066871440604
 10
-0.798282862449775
 20
-24.631585923263575
 10
-0.5364983855443566
 20
-24.697159521108883
 10
-0.2695471359062958
 20
-24.73675799834854
 10
-3.8729455023035046e-15
 20
-24.75
 10
0.26954713590628804
 20
-24.73675799834854
 10
0.5364983855443489
 20
-24.697159521108883
 10
0.7982828624497674
 20
-24.631585923263575
 10
1.0523794390039931
 20
-24.54066871440604
 10
1.29634102627149
 20
-24.425283476957976
 10
1.5278181408039022
 20
-24.286541433832
 10
1.744581531450021
 20
-24.125778746747528
 10
1.9445436482630019
 20
-23.944543648263007
 10
2.125778746747523
 20
-23.744581531450024
 10
2.2865414338319954
 20
-23.527818140803905
 10
2.4252834769579725
 20
-23.296341026271495
 10
2.5406687144060345
 20
-23.052379439003996
 10
2.6315859232635703
 20
-22.79828286244977
 10
2.6971595211088797
 20
-22.536498385544352
 10
2.7367579983485375
 20
-22.26954713590629
 10
2.749999999999996
 20
-22.0
 10
2.7367579983485375
 20
-21.73045286409371
 10
2.6971595211088792
 20
-21.463501614455645
 10
2.6315859232635703
 20
-21.20171713755023
  0
LWPOLYLINE
  5
3B
330
17
100
AcDbEntity
  8
0
 62
0
100
AcDbPolyline
 90
65
 70
0
 10
13.697159521108869
 20
-18.516060497713305
 10
13.631585923263561
 20
-18.25427602080789
 10
13.540668714406024
 20
-18.00017944425366
 10
13.425283476957961
 20
-17.756217856986165
 10
13.286541433831985
 20
-17.524740742453755
 10
13.12577874674751
 20
-17.307977351807633
 10
12.944543648262991
 20
-17.108015234994653
 10
12.744581531450011
 20
-16.926780136510132
 10
12.527818140803891
 20
-16.76601744942566
 10
12.29634102627148
 20
-16.627275406299685
 10
12.052379439003984
 20
-16.51189016885162
 10
11.798282862449756
 20
-16.420972959994085
 10
11.536498385544338
 20
-16.355399362148777
 10
11.269547135906276
 20
-16.31580088490912
 10
10.999999999999986
 20
-16.30255888325766
 10
10.730452864093694
 20
-16.31580088490912
 10
10.463501614455632
 20
-16.355399362148777
 10
10.201717137550213
 20
-16.420972959994085
 10
9.947620560995988
 20
-16.51189016885162
 10
9.703658973728492
 20
-16.627275406299685
 10
9.47218185919608
 20
-16.76601744942566
 10
9.255418468549959
 20
-16.926780136510136
 10
9.05545635173698
 20
-17.108015234994653
 10
8.87422125325246
 20
-17.307977351807637
 10
8.713458566167986
 20
-17.524740742453755
 10
8.57471652304201
 20
-17.756217856986165
 10
8.459331285593947
 20
-18.000179444253664
 10
8.36841407673641
 20
-18.25427602080789
 10
8.302840478891103
 20
-18.51606049771331
 10
8.263242001651445
 20
-18.78301174735137
 10
8.249999999999986
 20
-19.05255888325766
 10
8.263242001651445
 20
-19.322106019163954
 10
8.302840478891103
 20
-19.589057268802016
 10
8.36841407673641
 20
-19.85084174570743
 10
8.459331285593947
 20
-20.104938322261656
 10
8.57471652304201
 20
-20.348899909529155
 10
8.713458566167986
 20
-20.580377024061566
 10
8.87422125325246
 20
-20.797140414707684
 10
9.05545635173698
 20
-20.997102531520667
 10
9.25541846854996
 20
-21.17833763000519
 10
9.47218185919608
 20
-21.33910031708966
 10
9.703658973728492
 20
-21.477842360215636
 10
9.94762056099599
 20
-21.5932275976637
 10
10.201717137550215
 20
-21.684144806521235
 10
10.463501614455634
 20
-21.749718404366543
 10
10.730452864093694
 20
-21.7893168816062
 10
10.999999999999986
 20
-21.80255888325766
 10
11.269547135906278
 20
-21.7893168816062
 10
11.53649838554434
 20
-21.749718404366543
 10
11.798282862449756
 20
-21.684144806521235
 10
12.052379439003984
 20
-21.5932275976637
 10
12.29634102627148
 20
-21.477842360215636
 10
12.527818140803891
 20
-21.33910031708966
 10
12.744581531450011
 20
-21.17833763000519
 10
12.944543648262991
 20
-20.997102531520667
 10
13.125778746747512
 20
-20.797140414707684
 10
13.286541433831985
 20
-20.580377024061566
 10
13.425283476957961
 20
-20.348899909529155
 10
13.540668714406024
 20
-20.104938322261656
 10
13.631585923263561
 20
-19.85084174570743
 10
13.697159521108869
 20
-19.589057268802012
 10
13.736757998348526
 20
-19.32210601916395
 10
13.749999999999986
 20
-19.05255888325766
 10
13.736757998348526
 20
-18.78301174735137
 10
13.697159521108869
 20
-18.516060497713305
  0
LWPOLYLINE
  5
3C
330
17
100
AcDbEntity
  8
0
 62
0
100
AcDbPolyline
 90
65
 70
0
 10
21.789316881606187
 20
-10.730452864093719
 10
21.74971840436653
 20
-10.463501614455657
 10
21.68414480652122
 20
-10.201717137550238
 10
21.593227597663684
 20
-9.947620560996011
 10
21.47784236021562
 20
-9.703658973728515
 10
21.339100317089645
 20
-9.472181859196105
 10
21.17833763000517
 20
-9.255418468549983
 10
20.99710253152065
 20
-9.055456351737005
 10
20.79714041470767
 20
-8.874221253252484
 10
20.58037702406155
 20
-8.713458566168011
 10
20.348899909529138
 20
-8.574716523042035
 10
20.104938322261642
 20
-8.459331285593972
 10
19.850841745707417
 20
-8.368414076736435
 10
19.589057268801998
 20
-8.302840478891127
 10
19.322106019163936
 20
-8.26324200165147
 10
19.052558883257646
 20
-8.25000000000001
 10
18.783011747351356
 20
-8.26324200165147
 10
18.51606049771329
 20
-8.302840478891127
 10
18.254276020807875
 20
-8.368414076736435
 10
18.000179444253646
 20
-8.459331285593972
 10
17.75621785698615
 20
-8.574716523042035
 10
17.52474074245374
 20
-8.713458566168011
 10
17.30797735180762
 20
-8.874221253252484
 10
17.10801523499464
 20
-9.055456351737005
 10
16.926780136510118
 20
-9.255418468549987
 10
16.766017449425647
 20
-9.472181859196105
 10
16.62727540629967
 20
-9.703658973728517
 10
16.511890168851608
 20
-9.947620560996015
 10
16.42097295999407
 20
-10.20171713755024
 10
16.355399362148763
 20
-10.463501614455657
 10
16.315800884909105
 20
-10.730452864093719
 10
16.302558883257646
 20
-11.00000000000001
 10
16.315800884909105
 20
-11.269547135906302
 10
16.355399362148763
 20
-11.536498385544364
 10
16.42097295999407
 20
-11.798282862449781
 10
16.511890168851608
 20
-12.052379439004008
 10
16.62727540629967
 20
-12.296341026271504
 10
16.766017449425647
 20
-12.527818140803916
 10
16.926780136510118
 20
-12.744581531450036
 10
17.10801523499464
 20
-12.944543648263016
 10
17.307977351807622
 20
-13.125778746747537
 10
17.52474074245374
 20
-13.28654143383201
 10
17.75621785698615
 20
-13.425283476957986
 10
18.00017944425365
 20
-13.54066871440605
 10
18.254276020807875
 20
-13.631585923263586
 10
18.516060497713294
 20
-13.697159521108894
 10
18.783011747351352
 20
-13.736757998348551
 10
19.052558883257646
 20
-13.75000000000001
 10
19.32210601916394
 20
-13.736757998348551
 10
19.589057268801998
 20
-13.697159521108894
 10
19.850841745707417
 20
-13.631585923263586
 10
20.104938322261642
 20
-13.54066871440605
 10
20.34889990952914
 20
-13.425283476957986
 10
20.58037702406155
 20
-13.28654143383201
 10
20.79714041470767
 20
-13.125778746747537
 10
20.997102531520653
 20
-12.944543648263016
 10
21.178337630005174
 20
-12.744581531450036
 10
21.339100317089645
 20
-12.527818140803916
 10
21.47784236021562
 20
-12.296341026271504
 10
21.593227597663684
 20
-12.052379439004007
 10
21.68414480652122
 20
-11.798282862449781
 10
21.74971840436653
 20
-11.536498385544363
 10
21.789316881606187
 20
-11.269547135906302
 10
21.802558883257646
 20
-11.00000000000001
 10
21.789316881606187
 20
-10.730452864093719
  0
ENDSEC
  0
SECTION
  2
OBJECTS
  0
DICTIONARY
  5
A
330
0
100
AcDbDictionary
280
0
281
1
  3
ACAD_COLOR
350
B
  3
ACAD_GROUP
350
C
  3
ACAD_LAYOUT
350
D
  3
ACAD_MATERIAL
350
E
  3
ACAD_MLEADERSTYLE
350
F
  3
ACAD_MLINESTYLE
350
10
  3
ACAD_PLOTSETTINGS
350
11
  3
ACAD_PLOTSTYLENAME
350
12
  3
ACAD_SCALELIST
350
14
  3
ACAD_TABLESTYLE
350
15
  3
ACAD_VISUALSTYLE
350
16
  3
EZDXF_META
350
2D
  0
DICTIONARY
  5
B
330
A
100
AcDbDictionary
280
0
281
1
  0
DICTIONARY
  5
C
330
A
100
AcDbDictionary
280
0
281
1
  0
DICTIONARY
  5
D
330
A
100
AcDbDictionary
280
0
281
1
  3
Model
350
1A
  3
Layout1
350
1E
  0
DICTIONARY
  5
E
330
A
100
AcDbDictionary
280
0
281
1
  3
ByBlock
350
1F
  3
ByLayer
350
20
  3
Global
350
21
  0
DICTIONARY
  5
F
330
A
100
AcDbDictionary
280
0
281
1
  3
Standard
350
2C
  0
DICTIONARY
  5
10
330
A
100
AcDbDictionary
280
0
281
1
  3
Standard
350
22
  0
DICTIONARY
  5
11
330
A
100
AcDbDictionary
280
0
281
1
  0
ACDBDICTIONARYWDFLT
  5
12
330
A
100
AcDbDictionary
280
0
281
1
  3
Normal
350
13
100
AcDbDictionaryWithDefault
340
13
  0
ACDBPLACEHOLDER
  5
13
330
12
  0
DICTIONARY
  5
14
330
A
100
AcDbDictionary
280
0
281
1
  0
DICTIONARY
  5
15
330
A
100
AcDbDictionary
280
0
281
1
  0
DICTIONARY
  5
16
330
A
100
AcDbDictionary
280
0
281
1
  0
LAYOUT
  5
1A
330
D
100
AcDbPlotSettings
  1

  4
A3
  6

 40
7.5
 41
20.0
 42
7.5
 43
20.0
 44
420.0
 45
297.0
 46
0.0
 47
0.0
 48
0.0
 49
0.0
140
0.0
141
0.0
142
1.0
143
1.0
 70
1024
 72
1
 73
0
 74
5
  7

 75
16
 76
0
 77
2
 78
300
147
1.0
148
0.0
149
0.0
100
AcDbLayout
  1
Model
 70
1
 71
0
 10
0.0
 20
0.0
 11
420.0
 21
297.0
 12
0.0
 22
0.0
 32
0.0
 14
1e+20
 24
1e+20
 34
1e+20
 15
-1e+20
 25
-1e+20
 35
-1e+20
146
0.0
 13
0.0
 23
0.0
 33
0.0
 16
1.0
 26
0.0
 36
0.0
 17
0.0
 27
1.0
 37
0.0
 76
1
330
17
  0
LAYOUT
  5
1E
330
D
100
AcDbPlotSettings
  1

  4
A3
  6

 40
7.5
 41
20.0
 42
7.5
 43
20.0
 44
420.0
 45
297.0
 46
0.0
 47
0.0
 48
0.0
 49
0.0
140
0.0
141
0.0
142
1.0
143
1.0
 70
0
 72
1
 73
0
 74
5
  7

 75
16
 76
0
 77
2
 78
300
147
1.0
148
0.0
149
0.0
100
AcDbLayout
  1
Layout1
 70
1
 71
1
 10
0.0
 20
0.0
 11
420.0
 21
297.0
 12
0.0
 22
0.0
 32
0.0
 14
1e+20
 24
1e+20
 34
1e+20
 15
-1e+20
 25
-1e+20
 35
-1e+20
146
0.0
 13
0.0
 23
0.0
 33
0.0
 16
1.0
 26
0.0
 36
0.0
 17
0.0
 27
1.0
 37
0.0
 76
1
330
1B
  0
MATERIAL
  5
1F
102
{ACAD_REACTORS
330
E
102
}
330
E
100
AcDbMaterial
  1
ByBlock
  2

 70
0
 40
1.0
 71
1
 41
1.0
 91
-1023410177
 42
1.0
 72
1
  3

 73
1
 74
1
 75
1
 44
0.5
 73
0
 45
1.0
 46
1.0
 77
1
  4

 78
1
 79
1
170
1
 48
1.0
171
1
  6

172
1
173
1
174
1
140
1.0
141
1.0
175
1
  7

176
1
177
1
178
1
143
1.0
179
1
  8

270
1
271
1
272
1
145
1.0
146
1.0
273
1
  9

274
1
275
1
276
1
 42
1.0
 72
1
  3

 73
1
 74
1
 75
1
 94
63
  0
MATERIAL
  5
20
102
{ACAD_REACTORS
330
E
102
}
330
E
100
AcDbMaterial
  1
ByLayer
  2

 70
0
 40
1.0
 71
1
 41
1.0
 91
-1023410177
 42
1.0
 72
1
  3

 73
1
 74
1
 75
1
 44
0.5
 73
0
 45
1.0
 46
1.0
 77
1
  4

 78
1
 79
1
170
1
 48
1.0
171
1
  6

172
1
173
1
174
1
140
1.0
141
1.0
175
1
  7

176
1
177
1
178
1
143
1.0
179
1
  8

270
1
271
1
272
1
145
1.0
146
1.0
273
1
  9

274
1
275
1
276
1
 42
1.0
 72
1
  3

 73
1
 74
1
 75
1
 94
63
  0
MATERIAL
  5
21
102
{ACAD_REACTORS
330
E
102
}
330
E
100
AcDbMaterial
  1
Global
  2

 70
0
 40
1.0
 71
1
 41
1.0
 91
-1023410177
 42
1.0
 72
1
  3

 73
1
 74
1
 75
1
 44
0.5
 73
0
 45
1.0
 46
1.0
 77
1
  4

 78
1
 79
1
170
1
 48
1.0
171
1
  6

172
1
173
1
174
1
140
1.0
141
1.0
175
1
  7

176
1
177
1
178
1
143
1.0
179
1
  8

270
1
271
1
272
1
145
1.0
146
1.0
273
1
  9

274
1
275
1
276
1
 42
1.0
 72
1
  3

 73
1
 74
1
 75
1
 94
63
  0
MLINESTYLE
  5
22
102
{ACAD_REACTORS
330
10
102
}
330
10
100
AcDbMlineStyle
  2
Standard
 70
0
  3

 62
256
 51
90.0
 52
90.0
 71
2
 49
0.5
 62
256
  6
BYLAYER
 49
-0.5
 62
256
  6
BYLAYER
  0
MLEADERSTYLE
  5
2C
102
{ACAD_REACTORS
330
F
102
}
330
F
100
AcDbMLeaderStyle
179
2
170
2
171
1
172
0
 90
2
 40
0.0
 41
0.0
173
1
 91
-1056964608
 92
-2
290
1
 42
2.0
291
1
 43
8.0
  3
Standard
 44
4.0
300

342
29
174
1
175
1
176
0
178
1
 93
-1056964608
 45
4.0
292
0
297
0
 46
4.0
 94
-1056964608
 47
1.0
 49
1.0
140
1.0
294
1
141
0.0
177
0
142
1.0
295
0
296
0
143
3.75
271
0
272
9
273
9
  0
DICTIONARY
  5
2D
330
A
100
AcDbDictionary
281
1
  3
CREATED_BY_EZDXF
350
2E
  3
WRITTEN_BY_EZDXF
350
3F
  0
DICTIONARYVAR
  5
2E
330
2D
100
DictionaryVariables
280
0
  1
1.3.4 @ 2025-09-04T19:44:04.348015+00:00
  0
DICTIONARYVAR
  5
3F
330
2D
100
DictionaryVariables
280
0
  1
1.3.4 @ 2025-09-04T19:44:04.364016+00:00
  0
ENDSEC
  0
EOF
