  0
SECTION
  2
HEADER
  9
$ACADVER
  1
AC1024
  9
$ACADMAINTVER
 70
6
  9
$DWGCODEPAGE
  3
ANSI_1252
  9
$LASTSAVEDBY
  1
ezdxf
  9
$INSBASE
 10
0.0
 20
0.0
 30
0.0
  9
$EXTMIN
 10
1e+20
 20
1e+20
 30
1e+20
  9
$EXTMAX
 10
-1e+20
 20
-1e+20
 30
-1e+20
  9
$LIMMIN
 10
0.0
 20
0.0
  9
$LIMMAX
 10
420.0
 20
297.0
  9
$ORTHOMODE
 70
0
  9
$REGENMODE
 70
1
  9
$FILLMODE
 70
1
  9
$QTEXTMODE
 70
0
  9
$MIRRTEXT
 70
1
  9
$LTSCALE
 40
1.0
  9
$ATTMODE
 70
1
  9
$TEXTSIZE
 40
2.5
  9
$TRACEWID
 40
1.0
  9
$TEXTSTYLE
  7
Standard
  9
$CLAYER
  8
0
  9
$CELTYPE
  6
ByLayer
  9
$CECOLOR
 62
256
  9
$CELTSCALE
 40
1.0
  9
$DISPSILH
 70
0
  9
$DIMSCALE
 40
1.0
  9
$DIMASZ
 40
2.5
  9
$DIMEXO
 40
0.625
  9
$DIMDLI
 40
3.75
  9
$DIMRND
 40
0.0
  9
$DIMDLE
 40
0.0
  9
$DIMEXE
 40
1.25
  9
$DIMTP
 40
0.0
  9
$DIMTM
 40
0.0
  9
$DIMTXT
 40
2.5
  9
$DIMCEN
 40
2.5
  9
$DIMTSZ
 40
0.0
  9
$DIMTOL
 70
0
  9
$DIMLIM
 70
0
  9
$DIMTIH
 70
0
  9
$DIMTOH
 70
0
  9
$DIMSE1
 70
0
  9
$DIMSE2
 70
0
  9
$DIMTAD
 70
1
  9
$DIMZIN
 70
8
  9
$DIMBLK
  1

  9
$DIMASO
 70
1
  9
$DIMSHO
 70
1
  9
$DIMPOST
  1

  9
$DIMAPOST
  1

  9
$DIMALT
 70
0
  9
$DIMALTD
 70
3
  9
$DIMALTF
 40
0.03937007874
  9
$DIMLFAC
 40
1.0
  9
$DIMTOFL
 70
1
  9
$DIMTVP
 40
0.0
  9
$DIMTIX
 70
0
  9
$DIMSOXD
 70
0
  9
$DIMSAH
 70
0
  9
$DIMBLK1
  1

  9
$DIMBLK2
  1

  9
$DIMSTYLE
  2
ISO-25
  9
$DIMCLRD
 70
0
  9
$DIMCLRE
 70
0
  9
$DIMCLRT
 70
0
  9
$DIMTFAC
 40
1.0
  9
$DIMGAP
 40
0.625
  9
$DIMJUST
 70
0
  9
$DIMSD1
 70
0
  9
$DIMSD2
 70
0
  9
$DIMTOLJ
 70
0
  9
$DIMTZIN
 70
8
  9
$DIMALTZ
 70
0
  9
$DIMALTTZ
 70
0
  9
$DIMUPT
 70
0
  9
$DIMDEC
 70
2
  9
$DIMTDEC
 70
2
  9
$DIMALTU
 70
2
  9
$DIMALTTD
 70
3
  9
$DIMTXSTY
  7
Standard
  9
$DIMAUNIT
 70
0
  9
$DIMADEC
 70
0
  9
$DIMALTRND
 40
0.0
  9
$DIMAZIN
 70
0
  9
$DIMDSEP
 70
44
  9
$DIMATFIT
 70
3
  9
$DIMFRAC
 70
0
  9
$DIMLDRBLK
  1

  9
$DIMLUNIT
 70
2
  9
$DIMLWD
 70
-2
  9
$DIMLWE
 70
-2
  9
$DIMTMOVE
 70
0
  9
$DIMFXL
 40
1.0
  9
$DIMFXLON
 70
0
  9
$DIMJOGANG
 40
0.785398163397
  9
$DIMTFILL
 70
0
  9
$DIMTFILLCLR
 70
0
  9
$DIMARCSYM
 70
0
  9
$DIMLTYPE
  6

  9
$DIMLTEX1
  6

  9
$DIMLTEX2
  6

  9
$DIMTXTDIRECTION
 70
0
  9
$LUNITS
 70
2
  9
$LUPREC
 70
4
  9
$SKETCHINC
 40
1.0
  9
$FILLETRAD
 40
10.0
  9
$AUNITS
 70
0
  9
$AUPREC
 70
2
  9
$MENU
  1
.
  9
$ELEVATION
 40
0.0
  9
$PELEVATION
 40
0.0
  9
$THICKNESS
 40
0.0
  9
$LIMCHECK
 70
0
  9
$CHAMFERA
 40
0.0
  9
$CHAMFERB
 40
0.0
  9
$CHAMFERC
 40
0.0
  9
$CHAMFERD
 40
0.0
  9
$SKPOLY
 70
0
  9
$TDCREATE
 40
2460923.613935185
  9
$TDUCREATE
 40
2458532.153996898
  9
$TDUPDATE
 40
2460923.613935185
  9
$TDUUPDATE
 40
2458532.1544311
  9
$TDINDWG
 40
0.0
  9
$TDUSRTIMER
 40
0.0
  9
$USRTIMER
 70
1
  9
$ANGBASE
 50
0.0
  9
$ANGDIR
 70
0
  9
$PDMODE
 70
0
  9
$PDSIZE
 40
0.0
  9
$PLINEWID
 40
0.0
  9
$SPLFRAME
 70
0
  9
$SPLINETYPE
 70
6
  9
$SPLINESEGS
 70
8
  9
$HANDSEED
  5
4F
  9
$SURFTAB1
 70
6
  9
$SURFTAB2
 70
6
  9
$SURFTYPE
 70
6
  9
$SURFU
 70
6
  9
$SURFV
 70
6
  9
$UCSBASE
  2

  9
$UCSNAME
  2

  9
$UCSORG
 10
0.0
 20
0.0
 30
0.0
  9
$UCSXDIR
 10
1.0
 20
0.0
 30
0.0
  9
$UCSYDIR
 10
0.0
 20
1.0
 30
0.0
  9
$UCSORTHOREF
  2

  9
$UCSORTHOVIEW
 70
0
  9
$UCSORGTOP
 10
0.0
 20
0.0
 30
0.0
  9
$UCSORGBOTTOM
 10
0.0
 20
0.0
 30
0.0
  9
$UCSORGLEFT
 10
0.0
 20
0.0
 30
0.0
  9
$UCSORGRIGHT
 10
0.0
 20
0.0
 30
0.0
  9
$UCSORGFRONT
 10
0.0
 20
0.0
 30
0.0
  9
$UCSORGBACK
 10
0.0
 20
0.0
 30
0.0
  9
$PUCSBASE
  2

  9
$PUCSNAME
  2

  9
$PUCSORG
 10
0.0
 20
0.0
 30
0.0
  9
$PUCSXDIR
 10
1.0
 20
0.0
 30
0.0
  9
$PUCSYDIR
 10
0.0
 20
1.0
 30
0.0
  9
$PUCSORTHOREF
  2

  9
$PUCSORTHOVIEW
 70
0
  9
$PUCSORGTOP
 10
0.0
 20
0.0
 30
0.0
  9
$PUCSORGBOTTOM
 10
0.0
 20
0.0
 30
0.0
  9
$PUCSORGLEFT
 10
0.0
 20
0.0
 30
0.0
  9
$PUCSORGRIGHT
 10
0.0
 20
0.0
 30
0.0
  9
$PUCSORGFRONT
 10
0.0
 20
0.0
 30
0.0
  9
$PUCSORGBACK
 10
0.0
 20
0.0
 30
0.0
  9
$USERI1
 70
0
  9
$USERI2
 70
0
  9
$USERI3
 70
0
  9
$USERI4
 70
0
  9
$USERI5
 70
0
  9
$USERR1
 40
0.0
  9
$USERR2
 40
0.0
  9
$USERR3
 40
0.0
  9
$USERR4
 40
0.0
  9
$USERR5
 40
0.0
  9
$WORLDVIEW
 70
1
  9
$SHADEDGE
 70
3
  9
$SHADEDIF
 70
70
  9
$TILEMODE
 70
1
  9
$MAXACTVP
 70
64
  9
$PINSBASE
 10
0.0
 20
0.0
 30
0.0
  9
$PLIMCHECK
 70
0
  9
$PEXTMIN
 10
1e+20
 20
1e+20
 30
1e+20
  9
$PEXTMAX
 10
-1e+20
 20
-1e+20
 30
-1e+20
  9
$PLIMMIN
 10
0.0
 20
0.0
  9
$PLIMMAX
 10
420.0
 20
297.0
  9
$UNITMODE
 70
0
  9
$VISRETAIN
 70
1
  9
$PLINEGEN
 70
0
  9
$PSLTSCALE
 70
1
  9
$TREEDEPTH
 70
3020
  9
$CMLSTYLE
  2
Standard
  9
$CMLJUST
 70
0
  9
$CMLSCALE
 40
20.0
  9
$PROXYGRAPHICS
 70
1
  9
$MEASUREMENT
 70
1
  9
$CELWEIGHT
370
-1
  9
$ENDCAPS
280
0
  9
$JOINSTYLE
280
0
  9
$LWDISPLAY
290
0
  9
$INSUNITS
 70
4
  9
$HYPERLINKBASE
  1

  9
$STYLESHEET
  1

  9
$XEDIT
290
1
  9
$CEPSNTYPE
380
0
  9
$PSTYLEMODE
290
1
  9
$FINGERPRINTGUID
  2
{15C47E30-8C45-4A51-9EE7-CE6E8BC9D578}
  9
$VERSIONGUID
  2
{65EA37B6-238E-495B-8DFA-FCAE926B34E1}
  9
$EXTNAMES
290
1
  9
$PSVPSCALE
 40
0.0
  9
$OLESTARTUP
290
0
  9
$SORTENTS
280
127
  9
$INDEXCTL
280
0
  9
$HIDETEXT
280
1
  9
$XCLIPFRAME
280
1
  9
$HALOGAP
280
0
  9
$OBSCOLOR
 70
257
  9
$OBSLTYPE
280
0
  9
$INTERSECTIONDISPLAY
280
0
  9
$INTERSECTIONCOLOR
 70
257
  9
$DIMASSOC
280
2
  9
$PROJECTNAME
  1

  9
$CAMERADISPLAY
290
0
  9
$LENSLENGTH
 40
50.0
  9
$CAMERAHEIGHT
 40
0.0
  9
$STEPSPERSEC
 40
24.0
  9
$STEPSIZE
 40
100.0
  9
$3DDWFPREC
 40
2.0
  9
$PSOLWIDTH
 40
0.005
  9
$PSOLHEIGHT
 40
0.08
  9
$LOFTANG1
 40
1.570796326795
  9
$LOFTANG2
 40
1.570796326795
  9
$LOFTMAG1
 40
0.0
  9
$LOFTMAG2
 40
0.0
  9
$LOFTPARAM
 70
7
  9
$LOFTNORMALS
280
1
  9
$LATITUDE
 40
37.795
  9
$LONGITUDE
 40
-122.394
  9
$NORTHDIRECTION
 40
0.0
  9
$TIMEZONE
 70
-8000
  9
$LIGHTGLYPHDISPLAY
280
1
  9
$TILEMODELIGHTSYNCH
280
1
  9
$CMATERIAL
347
20
  9
$SOLIDHIST
280
0
  9
$SHOWHIST
280
1
  9
$DWFFRAME
280
2
  9
$DGNFRAME
280
2
  9
$REALWORLDSCALE
290
1
  9
$INTERFERECOLOR
 62
256
  9
$CSHADOW
280
0
  9
$SHADOWPLANELOCATION
 40
0.0
  0
ENDSEC
  0
SECTION
  2
CLASSES
  0
CLASS
  1
ACDBDICTIONARYWDFLT
  2
AcDbDictionaryWithDefault
  3
ObjectDBX Classes
 90
0
 91
0
280
0
281
0
  0
CLASS
  1
SUN
  2
AcDbSun
  3
SCENEOE
 90
1153
 91
0
280
0
281
0
  0
CLASS
  1
VISUALSTYLE
  2
AcDbVisualStyle
  3
ObjectDBX Classes
 90
4095
 91
0
280
0
281
0
  0
CLASS
  1
MATERIAL
  2
AcDbMaterial
  3
ObjectDBX Classes
 90
1153
 91
0
280
0
281
0
  0
CLASS
  1
SCALE
  2
AcDbScale
  3
ObjectDBX Classes
 90
1153
 91
0
280
0
281
0
  0
CLASS
  1
TABLESTYLE
  2
AcDbTableStyle
  3
ObjectDBX Classes
 90
4095
 91
0
280
0
281
0
  0
CLASS
  1
MLEADERSTYLE
  2
AcDbMLeaderStyle
  3
ACDB_MLEADERSTYLE_CLASS
 90
4095
 91
0
280
0
281
0
  0
CLASS
  1
DICTIONARYVAR
  2
AcDbDictionaryVar
  3
ObjectDBX Classes
 90
0
 91
0
280
0
281
0
  0
CLASS
  1
CELLSTYLEMAP
  2
AcDbCellStyleMap
  3
ObjectDBX Classes
 90
1152
 91
0
280
0
281
0
  0
CLASS
  1
MENTALRAYRENDERSETTINGS
  2
AcDbMentalRayRenderSettings
  3
SCENEOE
 90
1024
 91
0
280
0
281
0
  0
CLASS
  1
ACDBDETAILVIEWSTYLE
  2
AcDbDetailViewStyle
  3
ObjectDBX Classes
 90
1025
 91
0
280
0
281
0
  0
CLASS
  1
ACDBSECTIONVIEWSTYLE
  2
AcDbSectionViewStyle
  3
ObjectDBX Classes
 90
1025
 91
0
280
0
281
0
  0
CLASS
  1
RASTERVARIABLES
  2
AcDbRasterVariables
  3
ISM
 90
0
 91
0
280
0
281
0
  0
CLASS
  1
ACDBPLACEHOLDER
  2
AcDbPlaceHolder
  3
ObjectDBX Classes
 90
0
 91
0
280
0
281
0
  0
CLASS
  1
LAYOUT
  2
AcDbLayout
  3
ObjectDBX Classes
 90
0
 91
0
280
0
281
0
  0
ENDSEC
  0
SECTION
  2
TABLES
  0
TABLE
  2
VPORT
  5
8
330
0
100
AcDbSymbolTable
 70
1
  0
VPORT
  5
23
330
8
100
AcDbSymbolTableRecord
100
AcDbViewportTableRecord
  2
*Active
 70
0
 10
0.0
 20
0.0
 11
1.0
 21
1.0
 12
0.0
 22
0.0
 13
0.0
 23
0.0
 14
0.5
 24
0.5
 15
0.5
 25
0.5
 16
0.0
 26
0.0
 36
1.0
 17
0.0
 27
0.0
 37
0.0
 40
1000.0
 41
1.34
 42
50.0
 43
0.0
 44
0.0
 50
0.0
 51
0.0
 71
0
 72
1000
 73
1
 74
3
 75
0
 76
0
 77
0
 78
0
281
0
 65
0
146
0.0
  0
ENDTAB
  0
TABLE
  2
LTYPE
  5
2
330
0
100
AcDbSymbolTable
 70
3
  0
LTYPE
  5
24
330
2
100
AcDbSymbolTableRecord
100
AcDbLinetypeTableRecord
  2
ByBlock
 70
0
  3

 72
65
 73
0
 40
0.0
  0
LTYPE
  5
25
330
2
100
AcDbSymbolTableRecord
100
AcDbLinetypeTableRecord
  2
ByLayer
 70
0
  3

 72
65
 73
0
 40
0.0
  0
LTYPE
  5
26
330
2
100
AcDbSymbolTableRecord
100
AcDbLinetypeTableRecord
  2
Continuous
 70
0
  3

 72
65
 73
0
 40
0.0
  0
ENDTAB
  0
TABLE
  2
LAYER
  5
1
330
0
100
AcDbSymbolTable
 70
3
  0
LAYER
  5
27
330
1
100
AcDbSymbolTableRecord
100
AcDbLayerTableRecord
  2
0
 70
0
 62
7
  6
Continuous
370
-3
390
13
347
21
  0
LAYER
  5
28
330
1
100
AcDbSymbolTableRecord
100
AcDbLayerTableRecord
  2
Defpoints
 70
0
 62
7
  6
Continuous
290
0
370
-3
390
13
347
21
  0
LAYER
  5
2F
330
1
100
AcDbSymbolTableRecord
100
AcDbLayerTableRecord
  2
default
 70
0
 62
7
  6
Continuous
370
-3
390
13
347
21
  0
ENDTAB
  0
TABLE
  2
STYLE
  5
5
330
0
100
AcDbSymbolTable
 70
1
  0
STYLE
  5
29
330
5
100
AcDbSymbolTableRecord
100
AcDbTextStyleTableRecord
  2
Standard
 70
0
 40
0.0
 41
1.0
 50
0.0
 71
0
 42
2.5
  3
txt
  4

  0
ENDTAB
  0
TABLE
  2
VIEW
  5
7
330
0
100
AcDbSymbolTable
 70
0
  0
ENDTAB
  0
TABLE
  2
UCS
  5
6
330
0
100
AcDbSymbolTable
 70
0
  0
ENDTAB
  0
TABLE
  2
APPID
  5
3
330
0
100
AcDbSymbolTable
 70
3
  0
APPID
  5
2A
330
3
100
AcDbSymbolTableRecord
100
AcDbRegAppTableRecord
  2
ACAD
 70
0
  0
APPID
  5
4C
330
3
100
AcDbSymbolTableRecord
100
AcDbRegAppTableRecord
  2
HATCHBACKGROUNDCOLOR
 70
0
  0
APPID
  5
4D
330
3
100
AcDbSymbolTableRecord
100
AcDbRegAppTableRecord
  2
EZDXF
 70
0
  0
ENDTAB
  0
TABLE
  2
DIMSTYLE
  5
4
330
0
100
AcDbSymbolTable
 70
1
100
AcDbDimStyleTable
  0
DIMSTYLE
105
2B
330
4
100
AcDbSymbolTableRecord
100
AcDbDimStyleTableRecord
  2
Standard
 70
0
 40
1.0
 41
2.5
 42
0.625
 43
3.75
 44
1.25
 45
0.0
 46
0.0
 47
0.0
 48
0.0
 49
2.5
140
2.5
141
2.5
142
0.0
143
0.03937007874
144
1.0
145
0.0
146
1.0
147
0.625
148
0.0
 69
0
 70
0
 71
0
 72
0
 73
0
 74
0
 75
0
 76
0
 77
1
 78
8
 79
3
170
0
171
3
172
1
173
0
174
0
175
0
176
0
177
0
178
0
179
2
271
2
272
2
273
2
274
3
275
0
276
0
277
2
278
44
279
0
280
0
281
0
282
0
283
0
284
8
285
0
286
0
288
0
289
3
290
0
371
-2
372
-2
  0
ENDTAB
  0
TABLE
  2
BLOCK_RECORD
  5
9
330
0
100
AcDbSymbolTable
 70
2
  0
BLOCK_RECORD
  5
17
330
9
100
AcDbSymbolTableRecord
100
AcDbBlockTableRecord
  2
*Model_Space
340
1A
 70
0
280
1
281
0
  0
BLOCK_RECORD
  5
1B
330
9
100
AcDbSymbolTableRecord
100
AcDbBlockTableRecord
  2
*Paper_Space
340
1E
 70
0
280
1
281
0
  0
ENDTAB
  0
ENDSEC
  0
SECTION
  2
BLOCKS
  0
BLOCK
  5
18
330
17
100
AcDbEntity
  8
0
100
AcDbBlockBegin
  2
*Model_Space
 70
0
 10
0.0
 20
0.0
 30
0.0
  3
*Model_Space
  1

  0
ENDBLK
  5
19
330
17
100
AcDbEntity
  8
0
100
AcDbBlockEnd
  0
BLOCK
  5
1C
330
1B
100
AcDbEntity
  8
0
100
AcDbBlockBegin
  2
*Paper_Space
 70
0
 10
0.0
 20
0.0
 30
0.0
  3
*Paper_Space
  1

  0
ENDBLK
  5
1D
330
1B
100
AcDbEntity
  8
0
100
AcDbBlockEnd
  0
ENDSEC
  0
SECTION
  2
ENTITIES
  0
LWPOLYLINE
  5
30
330
17
100
AcDbEntity
  8
0
 62
0
100
AcDbPolyline
 90
65
 70
0
 10
43.86967902665172
 20
1.4640285851048986
 10
40.633070948548365
 20
0.6533004662901618
 10
37.33258277120507
 20
0.16371929314530576
 10
34.0
 20
0.0
 10
30.66741722879494
 20
0.16371929314530576
 10
27.366929051451642
 20
0.6533004662901618
 10
24.130320973348287
 20
1.4640285851048986
 10
20.98876329958695
 20
2.5880958946162522
 10
17.972510947916078
 20
4.0146770121559285
 10
15.110612077333535
 20
5.730033181713459
 10
12.430628338436058
 20
7.717644585666939
 10
9.958369439657385
 20
9.958369439657382
 10
7.7176445856669424
 20
12.430628338436055
 10
5.730033181713459
 20
15.110612077333528
 10
4.014677012155932
 20
17.972510947916074
 10
2.5880958946162522
 20
20.988763299586942
 10
1.4640285851048986
 20
24.13032097334828
 10
0.6533004662901618
 20
27.366929051451628
 10
0.16371929314530576
 20
30.667417228794932
 10
0.0
 20
33.99999999999999
 10
0.16371929314530576
 20
37.33258277120506
 10
0.6533004662901618
 20
40.633070948548365
 10
1.4640285851048986
 20
43.86967902665171
 10
2.5880958946162487
 20
47.01123670041305
 10
4.0146770121559285
 20
50.02748905208392
 10
5.7300331817134555
 20
52.889387922666465
 10
7.717644585666939
 20
55.569371661563935
 10
9.958369439657378
 20
58.04163056034261
 10
12.430628338436037
 20
60.28235541433305
 10
15.110612077333528
 20
62.269966818286534
 10
17.972510947916074
 20
63.98532298784407
 10
20.988763299586928
 20
65.41190410538374
 10
24.130320973348276
 20
66.5359714148951
 10
27.366929051451624
 20
67.34669953370982
 10
30.667417228794946
 20
67.8362807068547
 10
33.99999999999999
 20
68.0
 10
37.33258277120504
 20
67.8362807068547
 10
40.633070948548365
 20
67.34669953370984
 10
43.86967902665171
 20
66.5359714148951
 10
47.01123670041306
 20
65.41190410538374
 10
50.02748905208392
 20
63.98532298784407
 10
52.88938792266646
 20
62.26996681828655
 10
55.56937166156395
 20
60.282355414333054
 10
58.04163056034261
 20
58.041630560342625
 10
60.28235541433304
 20
55.56937166156396
 10
62.269966818286534
 20
52.88938792266647
 10
63.985322987844064
 20
50.02748905208393
 10
65.41190410538374
 20
47.01123670041307
 10
66.5359714148951
 20
43.869679026651724
 10
67.34669953370982
 20
40.63307094854838
 10
67.8362807068547
 20
37.332582771205054
 10
68.0
 20
34.0
 10
67.8362807068547
 20
30.66741722879494
 10
67.34669953370984
 20
27.36692905145164
 10
66.5359714148951
 20
24.130320973348283
 10
65.41190410538374
 20
20.98876329958695
 10
63.98532298784407
 20
17.97251094791608
 10
62.269966818286534
 20
15.110612077333528
 10
60.282355414333054
 20
12.430628338436055
 10
58.04163056034262
 20
9.958369439657382
 10
55.56937166156395
 20
7.717644585666946
 10
52.88938792266648
 20
5.730033181713463
 10
50.02748905208392
 20
4.014677012155932
 10
47.01123670041305
 20
2.5880958946162522
 10
43.86967902665172
 20
1.4640285851048986
  0
LWPOLYLINE
  5
31
330
17
100
AcDbEntity
  8
0
 62
0
100
AcDbPolyline
 90
65
 70
0
 10
34.98696790266517
 20
37.25359714148951
 10
34.66330709485484
 20
37.334669953370984
 10
34.33325827712051
 20
37.38362807068547
 10
34.0
 20
37.4
 10
33.66674172287949
 20
37.38362807068547
 10
33.33669290514516
 20
37.334669953370984
 10
33.01303209733483
 20
37.25359714148951
 10
32.69887632995869
 20
37.14119041053837
 10
32.397251094791606
 20
36.998532298784404
 10
32.11106120773335
 20
36.82699668182865
 10
31.843062833843604
 20
36.628235541433305
 10
31.595836943965736
 20
36.404163056034264
 10
31.371764458566695
 20
36.156937166156396
 10
31.173003318171347
 20
35.88893879226664
 10
31.001467701215592
 20
35.602748905208394
 10
30.858809589461625
 20
35.30112367004131
 10
30.74640285851049
 20
34.98696790266517
 10
30.665330046629016
 20
34.66330709485484
 10
30.616371929314532
 20
34.33325827712051
 10
30.6
 20
34.0
 10
30.616371929314532
 20
33.66674172287949
 10
30.665330046629016
 20
33.33669290514516
 10
30.74640285851049
 20
33.01303209733483
 10
30.858809589461625
 20
32.69887632995869
 10
31.001467701215592
 20
32.397251094791606
 10
31.173003318171347
 20
32.11106120773335
 10
31.371764458566695
 20
31.843062833843604
 10
31.59583694396574
 20
31.59583694396574
 10
31.843062833843607
 20
31.371764458566695
 10
32.11106120773336
 20
31.173003318171347
 10
32.397251094791606
 20
31.001467701215592
 10
32.69887632995869
 20
30.858809589461625
 10
33.01303209733483
 20
30.74640285851049
 10
33.33669290514516
 20
30.665330046629016
 10
33.66674172287949
 20
30.616371929314532
 10
34.0
 20
30.6
 10
34.33325827712051
 20
30.616371929314532
 10
34.66330709485484
 20
30.665330046629016
 10
34.98696790266517
 20
30.74640285851049
 10
35.30112367004131
 20
30.858809589461625
 10
35.602748905208394
 20
31.001467701215592
 10
35.88893879226665
 20
31.173003318171347
 10
36.156937166156396
 20
31.371764458566695
 10
36.404163056034264
 20
31.59583694396574
 10
36.628235541433305
 20
31.843062833843604
 10
36.82699668182865
 20
32.11106120773335
 10
36.998532298784404
 20
32.397251094791606
 10
37.14119041053837
 20
32.69887632995869
 10
37.25359714148951
 20
33.01303209733483
 10
37.334669953370984
 20
33.33669290514516
 10
37.38362807068547
 20
33.66674172287949
 10
37.4
 20
34.0
 10
37.38362807068547
 20
34.33325827712051
 10
37.334669953370984
 20
34.66330709485484
 10
37.25359714148951
 20
34.98696790266517
 10
37.14119041053837
 20
35.30112367004131
 10
36.998532298784404
 20
35.602748905208394
 10
36.82699668182865
 20
35.88893879226665
 10
36.628235541433305
 20
36.156937166156396
 10
36.404163056034264
 20
36.404163056034264
 10
36.156937166156396
 20
36.628235541433305
 10
35.88893879226664
 20
36.82699668182865
 10
35.602748905208394
 20
36.998532298784404
 10
35.30112367004131
 20
37.14119041053837
 10
34.98696790266517
 20
37.25359714148951
  0
LWPOLYLINE
  5
32
330
17
100
AcDbEntity
  8
0
 62
0
100
AcDbPolyline
 90
65
 70
0
 10
56.57402514854763
 20
35.38581929876693
 10
56.43542701588169
 20
35.43541050359831
 10
56.29263548302419
 20
35.471177920604845
 10
56.14702571049434
 20
35.492777090008296
 10
56.0
 20
35.5
 10
55.85297428950566
 20
35.492777090008296
 10
55.70736451697581
 20
35.471177920604845
 10
55.56457298411831
 20
35.43541050359831
 10
55.42597485145237
 20
35.38581929876693
 10
55.29290489476101
 20
35.32288189652253
 10
55.1666446504706
 20
35.24720441845382
 10
55.04841007375453
 20
35.1595156800441
 10
54.93933982822018
 20
35.06066017177982
 10
54.84048431995589
 20
34.95158992624547
 10
54.75279558154618
 20
34.833355349529405
 10
54.67711810347747
 20
34.707095105239
 10
54.61418070123307
 20
34.57402514854763
 10
54.56458949640169
 20
34.43542701588169
 10
54.528822079395155
 20
34.29263548302419
 10
54.507222909991704
 20
34.14702571049434
 10
54.5
 20
34.0
 10
54.507222909991704
 20
33.85297428950566
 10
54.528822079395155
 20
33.70736451697581
 10
54.56458949640169
 20
33.56457298411831
 10
54.61418070123307
 20
33.42597485145237
 10
54.67711810347747
 20
33.292904894761
 10
54.75279558154618
 20
33.166644650470595
 10
54.84048431995589
 20
33.04841007375453
 10
54.93933982822018
 20
32.93933982822018
 10
55.04841007375453
 20
32.84048431995589
 10
55.1666446504706
 20
32.75279558154618
 10
55.29290489476101
 20
32.67711810347747
 10
55.42597485145237
 20
32.61418070123307
 10
55.56457298411831
 20
32.56458949640169
 10
55.70736451697581
 20
32.528822079395155
 10
55.85297428950566
 20
32.507222909991704
 10
56.0
 20
32.5
 10
56.14702571049434
 20
32.507222909991704
 10
56.29263548302419
 20
32.528822079395155
 10
56.43542701588169
 20
32.56458949640169
 10
56.57402514854763
 20
32.61418070123307
 10
56.70709510523899
 20
32.67711810347747
 10
56.8333553495294
 20
32.75279558154618
 10
56.95158992624547
 20
32.84048431995589
 10
57.06066017177982
 20
32.93933982822018
 10
57.15951568004411
 20
33.04841007375453
 10
57.24720441845382
 20
33.166644650470595
 10
57.32288189652253
 20
33.292904894761
 10
57.38581929876693
 20
33.42597485145237
 10
57.43541050359831
 20
33.56457298411831
 10
57.471177920604845
 20
33.70736451697581
 10
57.492777090008296
 20
33.85297428950566
 10
57.5
 20
34.0
 10
57.492777090008296
 20
34.14702571049434
 10
57.471177920604845
 20
34.29263548302419
 10
57.43541050359831
 20
34.43542701588169
 10
57.38581929876693
 20
34.57402514854763
 10
57.32288189652253
 20
34.707095105239
 10
57.24720441845382
 20
34.833355349529405
 10
57.15951568004411
 20
34.95158992624547
 10
57.06066017177982
 20
35.06066017177982
 10
56.95158992624547
 20
35.15951568004411
 10
56.8333553495294
 20
35.24720441845382
 10
56.70709510523899
 20
35.32288189652253
 10
56.57402514854763
 20
35.38581929876693
  0
LWPOLYLINE
  5
33
330
17
100
AcDbEntity
  8
0
 62
0
100
AcDbPolyline
 90
65
 70
0
 10
53.75965398849665
 20
46.32288189652253
 10
53.62658403180529
 20
46.38581929876693
 10
53.487985899139346
 20
46.43541050359831
 10
53.345194366281845
 20
46.471177920604845
 10
53.19958459375199
 20
46.49277709000829
 10
53.05255888325765
 20
46.5
 10
52.90553317276331
 20
46.49277709000829
 10
52.75992340023346
 20
46.471177920604845
 10
52.61713186737596
 20
46.43541050359831
 10
52.47853373471001
 20
46.385819298766926
 10
52.345463778018654
 20
46.32288189652253
 10
52.21920353372825
 20
46.24720441845382
 10
52.100968957012185
 20
46.1595156800441
 10
51.99189871147783
 20
46.060660171779816
 10
51.89304320321355
 20
45.95158992624547
 10
51.805354464803834
 20
45.8333553495294
 10
51.72967698673512
 20
45.70709510523899
 10
51.66673958449073
 20
45.57402514854763
 10
51.61714837965934
 20
45.43542701588169
 10
51.58138096265281
 20
45.29263548302419
 10
51.55978179324936
 20
45.14702571049434
 10
51.55255888325765
 20
45.0
 10
51.55978179324936
 20
44.85297428950565
 10
51.58138096265281
 20
44.7073645169758
 10
51.61714837965934
 20
44.56457298411831
 10
51.66673958449073
 20
44.42597485145237
 10
51.72967698673512
 20
44.292904894761
 10
51.805354464803834
 20
44.166644650470595
 10
51.89304320321355
 20
44.04841007375453
 10
51.99189871147783
 20
43.93933982822018
 10
52.100968957012185
 20
43.84048431995589
 10
52.21920353372825
 20
43.75279558154618
 10
52.345463778018654
 20
43.67711810347747
 10
52.47853373471002
 20
43.61418070123307
 10
52.61713186737596
 20
43.56458949640168
 10
52.75992340023346
 20
43.528822079395155
 10
52.90553317276331
 20
43.507222909991704
 10
53.05255888325765
 20
43.5
 10
53.19958459375199
 20
43.507222909991704
 10
53.345194366281845
 20
43.528822079395155
 10
53.487985899139346
 20
43.56458949640168
 10
53.62658403180529
 20
43.61418070123307
 10
53.75965398849665
 20
43.67711810347747
 10
53.88591423278706
 20
43.75279558154618
 10
54.00414880950312
 20
43.84048431995589
 10
54.113219055037476
 20
43.93933982822018
 10
54.212074563301755
 20
44.04841007375453
 10
54.29976330171147
 20
44.166644650470595
 10
54.375440779780185
 20
44.292904894761
 10
54.43837818202458
 20
44.42597485145237
 10
54.487969386855966
 20
44.56457298411831
 10
54.5237368038625
 20
44.70736451697581
 10
54.54533597326595
 20
44.85297428950565
 10
54.55255888325765
 20
45.0
 10
54.54533597326595
 20
45.14702571049434
 10
54.5237368038625
 20
45.29263548302419
 10
54.487969386855966
 20
45.43542701588169
 10
54.43837818202458
 20
45.57402514854763
 10
54.375440779780185
 20
45.70709510523899
 10
54.29976330171147
 20
45.8333553495294
 10
54.212074563301755
 20
45.95158992624547
 10
54.113219055037476
 20
46.060660171779816
 10
54.00414880950312
 20
46.1595156800441
 10
53.88591423278706
 20
46.24720441845382
 10
53.75965398849665
 20
46.32288189652253
  0
LWPOLYLINE
  5
34
330
17
100
AcDbEntity
  8
0
 62
0
100
AcDbPolyline
 90
65
 70
0
 10
45.833355349529405
 20
54.299763301711465
 10
45.707095105239
 20
54.37544077978018
 10
45.57402514854763
 20
54.43837818202458
 10
45.43542701588169
 20
54.487969386855966
 10
45.29263548302419
 20
54.52373680386249
 10
45.14702571049434
 20
54.54533597326595
 10
45.0
 20
54.552558883257646
 10
44.85297428950566
 20
54.54533597326595
 10
44.70736451697581
 20
54.52373680386249
 10
44.56457298411831
 20
54.487969386855966
 10
44.42597485145237
 20
54.43837818202458
 10
44.29290489476101
 20
54.37544077978018
 10
44.1666446504706
 20
54.299763301711465
 10
44.04841007375453
 20
54.212074563301755
 10
43.939339828220184
 20
54.113219055037476
 10
43.8404843199559
 20
54.00414880950312
 10
43.75279558154618
 20
53.88591423278705
 10
43.67711810347747
 20
53.759653988496645
 10
43.61418070123307
 20
53.62658403180528
 10
43.56458949640169
 20
53.487985899139346
 10
43.528822079395155
 20
53.345194366281845
 10
43.50722290999171
 20
53.19958459375199
 10
43.5
 20
53.052558883257646
 10
43.50722290999171
 20
52.90553317276331
 10
43.528822079395155
 20
52.75992340023346
 10
43.56458949640169
 20
52.61713186737596
 10
43.61418070123307
 20
52.47853373471001
 10
43.67711810347747
 20
52.345463778018654
 10
43.75279558154618
 20
52.21920353372825
 10
43.8404843199559
 20
52.100968957012185
 10
43.939339828220184
 20
51.99189871147783
 10
44.04841007375453
 20
51.893043203213544
 10
44.1666446504706
 20
51.80535446480383
 10
44.29290489476101
 20
51.729676986735114
 10
44.42597485145237
 20
51.66673958449072
 10
44.56457298411831
 20
51.61714837965934
 10
44.70736451697581
 20
51.5813809626528
 10
44.85297428950566
 20
51.55978179324936
 10
45.0
 20
51.552558883257646
 10
45.14702571049435
 20
51.55978179324936
 10
45.29263548302419
 20
51.5813809626528
 10
45.43542701588169
 20
51.61714837965934
 10
45.57402514854763
 20
51.66673958449072
 10
45.707095105239
 20
51.729676986735114
 10
45.833355349529405
 20
51.80535446480383
 10
45.95158992624547
 20
51.893043203213544
 10
46.06066017177982
 20
51.99189871147783
 10
46.15951568004411
 20
52.100968957012185
 10
46.24720441845382
 20
52.21920353372825
 10
46.32288189652253
 20
52.345463778018654
 10
46.38581929876693
 20
52.47853373471001
 10
46.43541050359832
 20
52.61713186737596
 10
46.471177920604845
 20
52.75992340023346
 10
46.492777090008296
 20
52.90553317276331
 10
46.5
 20
53.052558883257646
 10
46.492777090008296
 20
53.19958459375199
 10
46.471177920604845
 20
53.345194366281845
 10
46.43541050359832
 20
53.487985899139346
 10
46.38581929876693
 20
53.62658403180529
 10
46.32288189652253
 20
53.759653988496645
 10
46.24720441845382
 20
53.88591423278705
 10
46.15951568004411
 20
54.00414880950312
 10
46.06066017177982
 20
54.113219055037476
 10
45.95158992624547
 20
54.212074563301755
 10
45.833355349529405
 20
54.299763301711465
  0
LWPOLYLINE
  5
35
330
17
100
AcDbEntity
  8
0
 62
0
100
AcDbPolyline
 90
65
 70
0
 10
34.95158992624547
 20
57.15951568004411
 10
34.833355349529405
 20
57.24720441845382
 10
34.707095105239
 20
57.32288189652253
 10
34.57402514854763
 20
57.38581929876693
 10
34.43542701588169
 20
57.43541050359831
 10
34.29263548302419
 20
57.471177920604845
 10
34.14702571049434
 20
57.492777090008296
 10
34.0
 20
57.5
 10
33.85297428950566
 20
57.492777090008296
 10
33.70736451697581
 20
57.471177920604845
 10
33.56457298411831
 20
57.43541050359831
 10
33.42597485145237
 20
57.38581929876693
 10
33.292904894761
 20
57.32288189652253
 10
33.1666446504706
 20
57.24720441845382
 10
33.04841007375453
 20
57.15951568004411
 10
32.93933982822018
 20
57.06066017177982
 10
32.8404843199559
 20
56.95158992624547
 10
32.75279558154618
 20
56.8333553495294
 10
32.67711810347747
 20
56.70709510523899
 10
32.614180701233074
 20
56.57402514854763
 10
32.56458949640169
 20
56.43542701588169
 10
32.528822079395155
 20
56.29263548302419
 10
32.507222909991704
 20
56.14702571049434
 10
32.5
 20
56.0
 10
32.507222909991704
 20
55.85297428950566
 10
32.528822079395155
 20
55.70736451697581
 10
32.56458949640169
 20
55.56457298411831
 10
32.614180701233074
 20
55.42597485145237
 10
32.67711810347747
 20
55.29290489476101
 10
32.75279558154618
 20
55.1666446504706
 10
32.8404843199559
 20
55.04841007375453
 10
32.93933982822018
 20
54.93933982822018
 10
33.04841007375453
 20
54.84048431995589
 10
33.1666446504706
 20
54.75279558154618
 10
33.292904894761
 20
54.67711810347747
 10
33.42597485145237
 20
54.61418070123307
 10
33.56457298411831
 20
54.56458949640169
 10
33.70736451697581
 20
54.528822079395155
 10
33.85297428950566
 20
54.507222909991704
 10
34.0
 20
54.5
 10
34.14702571049434
 20
54.507222909991704
 10
34.29263548302419
 20
54.528822079395155
 10
34.43542701588169
 20
54.56458949640169
 10
34.57402514854763
 20
54.61418070123307
 10
34.707095105239
 20
54.67711810347747
 10
34.833355349529405
 20
54.75279558154618
 10
34.95158992624547
 20
54.84048431995589
 10
35.06066017177982
 20
54.93933982822018
 10
35.15951568004411
 20
55.04841007375453
 10
35.24720441845382
 20
55.1666446504706
 10
35.32288189652253
 20
55.29290489476101
 10
35.38581929876693
 20
55.42597485145237
 10
35.43541050359831
 20
55.56457298411831
 10
35.471177920604845
 20
55.70736451697581
 10
35.492777090008296
 20
55.85297428950566
 10
35.5
 20
56.0
 10
35.492777090008296
 20
56.14702571049434
 10
35.471177920604845
 20
56.29263548302419
 10
35.43541050359831
 20
56.43542701588169
 10
35.38581929876693
 20
56.57402514854763
 10
35.32288189652253
 20
56.707095105239
 10
35.24720441845382
 20
56.8333553495294
 10
35.15951568004411
 20
56.95158992624547
 10
35.06066017177982
 20
57.06066017177982
 10
34.95158992624547
 20
57.15951568004411
  0
LWPOLYLINE
  5
36
330
17
100
AcDbEntity
  8
0
 62
0
100
AcDbPolyline
 90
65
 70
0
 10
24.060660171779826
 20
54.113219055037476
 10
23.951589926245475
 20
54.212074563301755
 10
23.83335534952941
 20
54.29976330171147
 10
23.707095105239002
 20
54.375440779780185
 10
23.57402514854764
 20
54.43837818202458
 10
23.4354270158817
 20
54.487969386855966
 10
23.2926354830242
 20
54.5237368038625
 10
23.147025710494347
 20
54.54533597326595
 10
23.000000000000007
 20
54.55255888325765
 10
22.852974289505667
 20
54.54533597326595
 10
22.70736451697581
 20
54.5237368038625
 10
22.564572984118314
 20
54.487969386855966
 10
22.42597485145237
 20
54.43837818202458
 10
22.29290489476101
 20
54.375440779780185
 10
22.1666446504706
 20
54.29976330171147
 10
22.04841007375454
 20
54.212074563301755
 10
21.939339828220184
 20
54.113219055037476
 10
21.8404843199559
 20
54.00414880950312
 10
21.752795581546188
 20
53.88591423278706
 10
21.677118103477472
 20
53.75965398849665
 10
21.614180701233074
 20
53.62658403180529
 10
21.56458949640169
 20
53.487985899139346
 10
21.52882207939516
 20
53.345194366281845
 10
21.50722290999171
 20
53.19958459375199
 10
21.500000000000007
 20
53.05255888325765
 10
21.50722290999171
 20
52.90553317276331
 10
21.52882207939516
 20
52.75992340023346
 10
21.56458949640169
 20
52.61713186737596
 10
21.614180701233074
 20
52.47853373471002
 10
21.677118103477472
 20
52.345463778018654
 10
21.752795581546188
 20
52.21920353372825
 10
21.8404843199559
 20
52.100968957012185
 10
21.939339828220184
 20
51.99189871147783
 10
22.04841007375454
 20
51.89304320321355
 10
22.1666446504706
 20
51.805354464803834
 10
22.29290489476101
 20
51.72967698673512
 10
22.42597485145237
 20
51.66673958449073
 10
22.564572984118314
 20
51.61714837965934
 10
22.707364516975815
 20
51.58138096265281
 10
22.852974289505664
 20
51.55978179324936
 10
23.000000000000007
 20
51.55255888325765
 10
23.147025710494347
 20
51.55978179324936
 10
23.2926354830242
 20
51.58138096265281
 10
23.4354270158817
 20
51.61714837965934
 10
23.57402514854764
 20
51.66673958449073
 10
23.707095105239002
 20
51.72967698673512
 10
23.83335534952941
 20
51.805354464803834
 10
23.951589926245475
 20
51.89304320321355
 10
24.060660171779826
 20
51.99189871147783
 10
24.15951568004411
 20
52.100968957012185
 10
24.247204418453823
 20
52.21920353372825
 10
24.32288189652254
 20
52.345463778018654
 10
24.385819298766936
 20
52.47853373471002
 10
24.43541050359832
 20
52.61713186737596
 10
24.471177920604852
 20
52.75992340023346
 10
24.4927770900083
 20
52.90553317276331
 10
24.500000000000007
 20
53.05255888325765
 10
24.4927770900083
 20
53.19958459375199
 10
24.471177920604852
 20
53.345194366281845
 10
24.43541050359832
 20
53.487985899139346
 10
24.385819298766933
 20
53.626584031805294
 10
24.32288189652254
 20
53.75965398849665
 10
24.247204418453823
 20
53.88591423278706
 10
24.15951568004411
 20
54.00414880950312
 10
24.060660171779826
 20
54.113219055037476
  0
LWPOLYLINE
  5
37
330
17
100
AcDbEntity
  8
0
 62
0
100
AcDbPolyline
 90
65
 70
0
 10
16.10695679678646
 20
45.951589926245475
 10
16.008101288522177
 20
46.06066017177983
 10
15.899031042987822
 20
46.15951568004411
 10
15.780796466271756
 20
46.247204418453826
 10
15.654536221981349
 20
46.32288189652254
 10
15.521466265289988
 20
46.38581929876693
 10
15.382868132624047
 20
46.43541050359832
 10
15.240076599766546
 20
46.47117792060485
 10
15.094466827236694
 20
46.4927770900083
 10
14.947441116742354
 20
46.50000000000001
 10
14.800415406248014
 20
46.4927770900083
 10
14.654805633718162
 20
46.47117792060485
 10
14.512014100860661
 20
46.43541050359832
 10
14.373415968194717
 20
46.38581929876693
 10
14.240346011503359
 20
46.32288189652254
 10
14.114085767212952
 20
46.247204418453826
 10
13.995851190496886
 20
46.15951568004411
 10
13.886780944962531
 20
46.06066017177983
 10
13.787925436698249
 20
45.951589926245475
 10
13.700236698288535
 20
45.83335534952941
 10
13.624559220219822
 20
45.707095105239006
 10
13.561621817975425
 20
45.57402514854764
 10
13.512030613144042
 20
45.4354270158817
 10
13.47626319613751
 20
45.2926354830242
 10
13.454664026734058
 20
45.14702571049435
 10
13.447441116742354
 20
45.00000000000001
 10
13.454664026734058
 20
44.85297428950567
 10
13.47626319613751
 20
44.707364516975815
 10
13.512030613144042
 20
44.564572984118314
 10
13.561621817975425
 20
44.425974851452374
 10
13.624559220219822
 20
44.29290489476101
 10
13.700236698288535
 20
44.1666446504706
 10
13.787925436698249
 20
44.04841007375454
 10
13.886780944962531
 20
43.939339828220184
 10
13.995851190496886
 20
43.840484319955905
 10
14.114085767212952
 20
43.75279558154619
 10
14.240346011503359
 20
43.677118103477476
 10
14.37341596819472
 20
43.61418070123308
 10
14.512014100860661
 20
43.564589496401695
 10
14.654805633718162
 20
43.52882207939516
 10
14.800415406248014
 20
43.50722290999171
 10
14.947441116742354
 20
43.50000000000001
 10
15.094466827236694
 20
43.50722290999171
 10
15.240076599766546
 20
43.52882207939516
 10
15.382868132624047
 20
43.564589496401695
 10
15.521466265289988
 20
43.61418070123308
 10
15.654536221981349
 20
43.677118103477476
 10
15.780796466271756
 20
43.75279558154619
 10
15.899031042987822
 20
43.840484319955905
 10
16.008101288522177
 20
43.939339828220184
 10
16.10695679678646
 20
44.04841007375454
 10
16.194645535196173
 20
44.1666446504706
 10
16.270323013264886
 20
44.29290489476101
 10
16.333260415509283
 20
44.425974851452374
 10
16.382851620340666
 20
44.564572984118314
 10
16.4186190373472
 20
44.707364516975815
 10
16.44021820675065
 20
44.85297428950567
 10
16.447441116742354
 20
45.00000000000001
 10
16.44021820675065
 20
45.14702571049435
 10
16.4186190373472
 20
45.2926354830242
 10
16.382851620340666
 20
45.4354270158817
 10
16.333260415509283
 20
45.57402514854764
 10
16.270323013264886
 20
45.707095105239006
 10
16.194645535196173
 20
45.83335534952941
 10
16.10695679678646
 20
45.951589926245475
  0
LWPOLYLINE
  5
38
330
17
100
AcDbEntity
  8
0
 62
0
100
AcDbPolyline
 90
65
 70
0
 10
13.24720441845382
 20
34.833355349529405
 10
13.159515680044105
 20
34.95158992624547
 10
13.060660171779823
 20
35.06066017177982
 10
12.951589926245468
 20
35.15951568004411
 10
12.833355349529402
 20
35.24720441845382
 10
12.707095105238995
 20
35.32288189652254
 10
12.574025148547634
 20
35.38581929876693
 10
12.435427015881693
 20
35.43541050359832
 10
12.292635483024192
 20
35.471177920604845
 10
12.14702571049434
 20
35.492777090008296
 10
12.0
 20
35.5
 10
11.85297428950566
 20
35.492777090008296
 10
11.707364516975808
 20
35.471177920604845
 10
11.564572984118307
 20
35.43541050359832
 10
11.425974851452363
 20
35.38581929876693
 10
11.292904894761005
 20
35.32288189652253
 10
11.166644650470598
 20
35.24720441845382
 10
11.048410073754532
 20
35.15951568004411
 10
10.939339828220177
 20
35.06066017177982
 10
10.840484319955895
 20
34.95158992624547
 10
10.75279558154618
 20
34.833355349529405
 10
10.677118103477468
 20
34.707095105239
 10
10.614180701233071
 20
34.57402514854764
 10
10.564589496401688
 20
34.43542701588169
 10
10.528822079395155
 20
34.29263548302419
 10
10.507222909991704
 20
34.14702571049435
 10
10.5
 20
34.0
 10
10.507222909991704
 20
33.85297428950566
 10
10.528822079395155
 20
33.70736451697581
 10
10.564589496401688
 20
33.56457298411831
 10
10.614180701233071
 20
33.42597485145237
 10
10.677118103477468
 20
33.29290489476101
 10
10.75279558154618
 20
33.1666446504706
 10
10.840484319955895
 20
33.04841007375453
 10
10.939339828220177
 20
32.939339828220184
 10
11.048410073754532
 20
32.8404843199559
 10
11.166644650470598
 20
32.75279558154619
 10
11.292904894761005
 20
32.67711810347747
 10
11.425974851452366
 20
32.614180701233074
 10
11.564572984118307
 20
32.56458949640169
 10
11.707364516975808
 20
32.528822079395155
 10
11.85297428950566
 20
32.50722290999171
 10
12.0
 20
32.5
 10
12.14702571049434
 20
32.50722290999171
 10
12.292635483024192
 20
32.528822079395155
 10
12.435427015881693
 20
32.56458949640169
 10
12.574025148547634
 20
32.614180701233074
 10
12.707095105238995
 20
32.67711810347747
 10
12.833355349529402
 20
32.75279558154619
 10
12.951589926245468
 20
32.8404843199559
 10
13.060660171779823
 20
32.939339828220184
 10
13.159515680044105
 20
33.04841007375453
 10
13.24720441845382
 20
33.1666446504706
 10
13.322881896522532
 20
33.29290489476101
 10
13.385819298766929
 20
33.42597485145237
 10
13.435410503598312
 20
33.56457298411831
 10
13.471177920604845
 20
33.70736451697581
 10
13.492777090008296
 20
33.85297428950566
 10
13.5
 20
34.0
 10
13.492777090008296
 20
34.14702571049434
 10
13.471177920604845
 20
34.2926354830242
 10
13.435410503598312
 20
34.43542701588169
 10
13.385819298766929
 20
34.57402514854764
 10
13.322881896522532
 20
34.707095105239
 10
13.24720441845382
 20
34.833355349529405
  0
LWPOLYLINE
  5
39
330
17
100
AcDbEntity
  8
0
 62
0
100
AcDbPolyline
 90
65
 70
0
 10
16.27032301326488
 20
23.707095105239002
 10
16.194645535196166
 20
23.83335534952941
 10
16.106956796786452
 20
23.951589926245475
 10
16.00810128852217
 20
24.060660171779826
 10
15.899031042987815
 20
24.15951568004411
 10
15.780796466271749
 20
24.247204418453823
 10
15.654536221981342
 20
24.32288189652254
 10
15.52146626528998
 20
24.385819298766936
 10
15.38286813262404
 20
24.43541050359832
 10
15.240076599766539
 20
24.471177920604852
 10
15.094466827236687
 20
24.4927770900083
 10
14.947441116742347
 20
24.500000000000007
 10
14.800415406248007
 20
24.4927770900083
 10
14.654805633718155
 20
24.471177920604852
 10
14.512014100860654
 20
24.43541050359832
 10
14.37341596819471
 20
24.385819298766933
 10
14.240346011503352
 20
24.32288189652254
 10
14.114085767212945
 20
24.247204418453823
 10
13.995851190496879
 20
24.15951568004411
 10
13.886780944962524
 20
24.060660171779826
 10
13.787925436698242
 20
23.951589926245475
 10
13.700236698288528
 20
23.83335534952941
 10
13.624559220219815
 20
23.707095105239002
 10
13.561621817975418
 20
23.57402514854764
 10
13.512030613144034
 20
23.4354270158817
 10
13.476263196137502
 20
23.2926354830242
 10
13.45466402673405
 20
23.147025710494347
 10
13.447441116742347
 20
23.000000000000007
 10
13.45466402673405
 20
22.852974289505664
 10
13.476263196137502
 20
22.70736451697581
 10
13.512030613144034
 20
22.564572984118314
 10
13.561621817975418
 20
22.42597485145237
 10
13.624559220219815
 20
22.29290489476101
 10
13.700236698288528
 20
22.1666446504706
 10
13.787925436698242
 20
22.04841007375454
 10
13.886780944962524
 20
21.939339828220184
 10
13.995851190496879
 20
21.8404843199559
 10
14.114085767212945
 20
21.752795581546188
 10
14.240346011503352
 20
21.677118103477472
 10
14.373415968194713
 20
21.614180701233074
 10
14.512014100860654
 20
21.56458949640169
 10
14.654805633718155
 20
21.52882207939516
 10
14.800415406248007
 20
21.50722290999171
 10
14.947441116742347
 20
21.500000000000007
 10
15.094466827236687
 20
21.50722290999171
 10
15.240076599766539
 20
21.52882207939516
 10
15.38286813262404
 20
21.56458949640169
 10
15.52146626528998
 20
21.614180701233074
 10
15.654536221981342
 20
21.677118103477472
 10
15.780796466271749
 20
21.752795581546188
 10
15.899031042987815
 20
21.8404843199559
 10
16.00810128852217
 20
21.939339828220184
 10
16.106956796786452
 20
22.04841007375454
 10
16.194645535196166
 20
22.1666446504706
 10
16.27032301326488
 20
22.29290489476101
 10
16.333260415509276
 20
22.42597485145237
 10
16.38285162034066
 20
22.564572984118314
 10
16.41861903734719
 20
22.707364516975815
 10
16.440218206750643
 20
22.852974289505664
 10
16.447441116742347
 20
23.000000000000007
 10
16.440218206750643
 20
23.147025710494347
 10
16.41861903734719
 20
23.2926354830242
 10
16.38285162034066
 20
23.4354270158817
 10
16.333260415509276
 20
23.57402514854764
 10
16.27032301326488
 20
23.707095105239002
  0
LWPOLYLINE
  5
3A
330
17
100
AcDbEntity
  8
0
 62
0
100
AcDbPolyline
 90
65
 70
0
 10
24.38581929876692
 20
15.521466265289991
 10
24.32288189652252
 20
15.654536221981353
 10
24.247204418453805
 20
15.780796466271756
 10
24.159515680044095
 20
15.899031042987822
 10
24.06066017177981
 20
16.008101288522177
 10
23.951589926245457
 20
16.10695679678646
 10
23.83335534952939
 20
16.194645535196173
 10
23.707095105238984
 20
16.270323013264886
 10
23.574025148547626
 20
16.333260415509283
 10
23.435427015881682
 20
16.382851620340666
 10
23.29263548302418
 20
16.4186190373472
 10
23.14702571049433
 20
16.44021820675065
 10
22.99999999999999
 20
16.447441116742354
 10
22.85297428950565
 20
16.44021820675065
 10
22.707364516975794
 20
16.4186190373472
 10
22.564572984118296
 20
16.382851620340666
 10
22.425974851452352
 20
16.333260415509283
 10
22.292904894760994
 20
16.270323013264886
 10
22.166644650470587
 20
16.194645535196173
 10
22.04841007375452
 20
16.10695679678646
 10
21.93933982822017
 20
16.008101288522177
 10
21.840484319955884
 20
15.899031042987822
 10
21.75279558154617
 20
15.780796466271756
 10
21.677118103477454
 20
15.654536221981349
 10
21.61418070123306
 20
15.521466265289988
 10
21.564589496401677
 20
15.382868132624047
 10
21.528822079395145
 20
15.240076599766546
 10
21.507222909991693
 20
15.094466827236694
 10
21.49999999999999
 20
14.947441116742354
 10
21.507222909991693
 20
14.800415406248014
 10
21.528822079395145
 20
14.654805633718162
 10
21.564589496401677
 20
14.512014100860661
 10
21.61418070123306
 20
14.37341596819472
 10
21.677118103477458
 20
14.240346011503359
 10
21.752795581546174
 20
14.114085767212952
 10
21.840484319955884
 20
13.995851190496886
 10
21.93933982822017
 20
13.886780944962531
 10
22.04841007375452
 20
13.787925436698249
 10
22.166644650470587
 20
13.700236698288535
 10
22.292904894760994
 20
13.624559220219822
 10
22.425974851452352
 20
13.561621817975425
 10
22.564572984118296
 20
13.512030613144042
 10
22.707364516975797
 20
13.47626319613751
 10
22.852974289505646
 20
13.454664026734058
 10
22.99999999999999
 20
13.447441116742354
 10
23.147025710494333
 20
13.454664026734058
 10
23.29263548302418
 20
13.47626319613751
 10
23.435427015881682
 20
13.512030613144042
 10
23.574025148547626
 20
13.561621817975425
 10
23.707095105238984
 20
13.624559220219822
 10
23.83335534952939
 20
13.700236698288535
 10
23.951589926245457
 20
13.787925436698249
 10
24.06066017177981
 20
13.886780944962531
 10
24.159515680044095
 20
13.995851190496886
 10
24.247204418453805
 20
14.114085767212952
 10
24.322881896522524
 20
14.240346011503359
 10
24.38581929876692
 20
14.37341596819472
 10
24.435410503598302
 20
14.512014100860661
 10
24.471177920604834
 20
14.654805633718162
 10
24.492777090008286
 20
14.800415406248014
 10
24.49999999999999
 20
14.947441116742354
 10
24.492777090008286
 20
15.094466827236694
 10
24.471177920604834
 20
15.240076599766546
 10
24.435410503598302
 20
15.382868132624047
 10
24.38581929876692
 20
15.521466265289991
  0
LWPOLYLINE
  5
3B
330
17
100
AcDbEntity
  8
0
 62
0
100
AcDbPolyline
 90
65
 70
0
 10
35.43541050359831
 20
12.435427015881693
 10
35.385819298766926
 20
12.574025148547637
 10
35.32288189652253
 20
12.707095105238999
 10
35.24720441845381
 20
12.833355349529402
 10
35.1595156800441
 20
12.951589926245468
 10
35.060660171779816
 20
13.060660171779823
 10
34.95158992624546
 20
13.159515680044105
 10
34.8333553495294
 20
13.24720441845382
 10
34.70709510523899
 20
13.322881896522532
 10
34.57402514854763
 20
13.385819298766929
 10
34.435427015881686
 20
13.435410503598312
 10
34.292635483024185
 20
13.471177920604845
 10
34.14702571049433
 20
13.492777090008296
 10
33.99999999999999
 20
13.5
 10
33.85297428950565
 20
13.492777090008296
 10
33.7073645169758
 20
13.471177920604845
 10
33.5645729841183
 20
13.435410503598312
 10
33.42597485145236
 20
13.385819298766929
 10
33.292904894761
 20
13.322881896522532
 10
33.166644650470595
 20
13.24720441845382
 10
33.048410073754525
 20
13.159515680044105
 10
32.93933982822018
 20
13.060660171779823
 10
32.84048431995589
 20
12.951589926245468
 10
32.75279558154618
 20
12.833355349529402
 10
32.67711810347746
 20
12.707095105238995
 10
32.61418070123307
 20
12.574025148547634
 10
32.56458949640168
 20
12.435427015881693
 10
32.52882207939515
 20
12.292635483024192
 10
32.507222909991704
 20
12.14702571049434
 10
32.49999999999999
 20
12.0
 10
32.507222909991704
 20
11.85297428950566
 10
32.52882207939515
 20
11.707364516975808
 10
32.56458949640168
 20
11.564572984118307
 10
32.61418070123307
 20
11.425974851452366
 10
32.67711810347746
 20
11.292904894761005
 10
32.75279558154618
 20
11.166644650470598
 10
32.84048431995589
 20
11.048410073754532
 10
32.93933982822018
 20
10.939339828220177
 10
33.048410073754525
 20
10.840484319955895
 10
33.166644650470595
 20
10.75279558154618
 10
33.292904894761
 20
10.677118103477468
 10
33.42597485145236
 20
10.614180701233071
 10
33.5645729841183
 20
10.564589496401688
 10
33.7073645169758
 20
10.528822079395155
 10
33.85297428950565
 20
10.507222909991704
 10
33.99999999999999
 20
10.5
 10
34.14702571049434
 20
10.507222909991704
 10
34.29263548302419
 20
10.528822079395155
 10
34.435427015881686
 20
10.564589496401688
 10
34.57402514854763
 20
10.614180701233071
 10
34.70709510523899
 20
10.677118103477468
 10
34.8333553495294
 20
10.75279558154618
 10
34.95158992624546
 20
10.840484319955895
 10
35.060660171779816
 20
10.939339828220177
 10
35.1595156800441
 20
11.048410073754532
 10
35.24720441845381
 20
11.166644650470598
 10
35.32288189652253
 20
11.292904894761005
 10
35.385819298766926
 20
11.425974851452366
 10
35.43541050359831
 20
11.564572984118307
 10
35.471177920604845
 20
11.707364516975808
 10
35.49277709000829
 20
11.85297428950566
 10
35.49999999999999
 20
12.0
 10
35.49277709000829
 20
12.14702571049434
 10
35.471177920604845
 20
12.292635483024192
 10
35.43541050359831
 20
12.435427015881693
  0
LWPOLYLINE
  5
3C
330
17
100
AcDbEntity
  8
0
 62
0
100
AcDbPolyline
 90
65
 70
0
 10
46.47117792060483
 20
15.240076599766532
 10
46.4354105035983
 20
15.382868132624033
 10
46.38581929876692
 20
15.521466265289977
 10
46.32288189652252
 20
15.654536221981338
 10
46.247204418453805
 20
15.780796466271742
 10
46.159515680044095
 20
15.899031042987808
 10
46.06066017177981
 20
16.008101288522163
 10
45.951589926245454
 20
16.106956796786445
 10
45.833355349529384
 20
16.19464553519616
 10
45.707095105238984
 20
16.27032301326487
 10
45.57402514854762
 20
16.33326041550927
 10
45.43542701588168
 20
16.382851620340652
 10
45.29263548302418
 20
16.418619037347185
 10
45.147025710494326
 20
16.440218206750636
 10
44.999999999999986
 20
16.44744111674234
 10
44.852974289505646
 20
16.440218206750636
 10
44.707364516975794
 20
16.418619037347185
 10
44.56457298411829
 20
16.382851620340652
 10
44.42597485145235
 20
16.33326041550927
 10
44.29290489476099
 20
16.27032301326487
 10
44.16664465047058
 20
16.19464553519616
 10
44.04841007375452
 20
16.106956796786445
 10
43.93933982822016
 20
16.008101288522163
 10
43.84048431995588
 20
15.899031042987808
 10
43.75279558154617
 20
15.780796466271742
 10
43.677118103477454
 20
15.654536221981335
 10
43.61418070123305
 20
15.521466265289973
 10
43.56458949640167
 20
15.382868132624033
 10
43.52882207939514
 20
15.240076599766532
 10
43.50722290999169
 20
15.09446682723668
 10
43.499999999999986
 20
14.94744111674234
 10
43.50722290999169
 20
14.800415406248
 10
43.52882207939514
 20
14.654805633718148
 10
43.56458949640167
 20
14.512014100860647
 10
43.61418070123305
 20
14.373415968194706
 10
43.677118103477454
 20
14.240346011503345
 10
43.75279558154617
 20
14.114085767212938
 10
43.84048431995588
 20
13.995851190496872
 10
43.93933982822016
 20
13.886780944962517
 10
44.04841007375452
 20
13.787925436698234
 10
44.16664465047058
 20
13.70023669828852
 10
44.29290489476099
 20
13.624559220219808
 10
44.42597485145235
 20
13.56162181797541
 10
44.56457298411829
 20
13.512030613144027
 10
44.707364516975794
 20
13.476263196137495
 10
44.852974289505646
 20
13.454664026734044
 10
44.999999999999986
 20
13.44744111674234
 10
45.147025710494326
 20
13.454664026734044
 10
45.29263548302418
 20
13.476263196137495
 10
45.43542701588168
 20
13.512030613144027
 10
45.57402514854762
 20
13.56162181797541
 10
45.707095105238984
 20
13.624559220219808
 10
45.83335534952939
 20
13.70023669828852
 10
45.951589926245454
 20
13.787925436698234
 10
46.06066017177981
 20
13.886780944962517
 10
46.159515680044095
 20
13.995851190496872
 10
46.247204418453805
 20
14.114085767212938
 10
46.32288189652252
 20
14.240346011503345
 10
46.38581929876692
 20
14.373415968194706
 10
46.4354105035983
 20
14.512014100860647
 10
46.47117792060483
 20
14.654805633718148
 10
46.49277709000828
 20
14.800415406248
 10
46.499999999999986
 20
14.94744111674234
 10
46.49277709000828
 20
15.09446682723668
 10
46.47117792060483
 20
15.240076599766532
  0
LWPOLYLINE
  5
3D
330
17
100
AcDbEntity
  8
0
 62
0
100
AcDbPolyline
 90
65
 70
0
 10
54.54533597326594
 20
23.14702571049433
 10
54.52373680386249
 20
23.292635483024185
 10
54.48796938685596
 20
23.435427015881682
 10
54.43837818202458
 20
23.574025148547626
 10
54.37544077978018
 20
23.707095105238984
 10
54.299763301711465
 20
23.83335534952939
 10
54.212074563301755
 20
23.951589926245457
 10
54.11321905503747
 20
24.06066017177981
 10
54.004148809503114
 20
24.159515680044095
 10
53.885914232787044
 20
24.24720441845381
 10
53.75965398849664
 20
24.322881896522524
 10
53.62658403180528
 20
24.38581929876692
 10
53.48798589913934
 20
24.435410503598302
 10
53.34519436628184
 20
24.471177920604834
 10
53.199584593751986
 20
24.492777090008286
 10
53.052558883257646
 20
24.49999999999999
 10
52.905533172763306
 20
24.492777090008286
 10
52.759923400233454
 20
24.471177920604834
 10
52.61713186737595
 20
24.435410503598302
 10
52.47853373471001
 20
24.38581929876692
 10
52.345463778018654
 20
24.32288189652252
 10
52.21920353372825
 20
24.247204418453805
 10
52.10096895701218
 20
24.159515680044095
 10
51.99189871147782
 20
24.06066017177981
 10
51.89304320321354
 20
23.951589926245457
 10
51.80535446480383
 20
23.83335534952939
 10
51.729676986735114
 20
23.707095105238984
 10
51.66673958449071
 20
23.574025148547626
 10
51.617148379659334
 20
23.435427015881682
 10
51.5813809626528
 20
23.29263548302418
 10
51.55978179324935
 20
23.14702571049433
 10
51.552558883257646
 20
22.99999999999999
 10
51.55978179324935
 20
22.852974289505646
 10
51.5813809626528
 20
22.707364516975794
 10
51.617148379659334
 20
22.564572984118296
 10
51.66673958449071
 20
22.425974851452352
 10
51.729676986735114
 20
22.292904894760994
 10
51.80535446480383
 20
22.166644650470587
 10
51.89304320321354
 20
22.04841007375452
 10
51.99189871147782
 20
21.93933982822017
 10
52.10096895701218
 20
21.840484319955884
 10
52.21920353372825
 20
21.752795581546174
 10
52.345463778018654
 20
21.677118103477454
 10
52.47853373471001
 20
21.61418070123306
 10
52.61713186737595
 20
21.564589496401677
 10
52.759923400233454
 20
21.528822079395145
 10
52.905533172763306
 20
21.507222909991693
 10
53.052558883257646
 20
21.49999999999999
 10
53.199584593751986
 20
21.507222909991693
 10
53.34519436628184
 20
21.528822079395145
 10
53.48798589913934
 20
21.564589496401677
 10
53.62658403180528
 20
21.61418070123306
 10
53.75965398849664
 20
21.677118103477458
 10
53.885914232787044
 20
21.752795581546174
 10
54.004148809503114
 20
21.840484319955884
 10
54.11321905503747
 20
21.93933982822017
 10
54.212074563301755
 20
22.04841007375452
 10
54.299763301711465
 20
22.166644650470587
 10
54.37544077978018
 20
22.292904894760994
 10
54.43837818202458
 20
22.425974851452352
 10
54.48796938685596
 20
22.564572984118296
 10
54.52373680386249
 20
22.707364516975797
 10
54.54533597326594
 20
22.852974289505646
 10
54.552558883257646
 20
22.99999999999999
 10
54.54533597326594
 20
23.14702571049433
  0
LWPOLYLINE
  5
3E
330
17
100
AcDbEntity
  8
0
 62
0
100
AcDbPolyline
 90
65
 70
0
 10
43.86967902665172
 20
71.4640285851049
 10
40.633070948548365
 20
70.65330046629016
 10
37.33258277120507
 20
70.1637192931453
 10
34.0
 20
70.0
 10
30.66741722879494
 20
70.1637192931453
 10
27.366929051451642
 20
70.65330046629016
 10
24.130320973348287
 20
71.4640285851049
 10
20.98876329958695
 20
72.58809589461626
 10
17.972510947916078
 20
74.01467701215593
 10
15.110612077333535
 20
75.73003318171345
 10
12.430628338436058
 20
77.71764458566693
 10
9.958369439657385
 20
79.95836943965739
 10
7.7176445856669424
 20
82.43062833843605
 10
5.730033181713459
 20
85.11061207733353
 10
4.014677012155932
 20
87.97251094791608
 10
2.5880958946162522
 20
90.98876329958695
 10
1.4640285851048986
 20
94.13032097334828
 10
0.6533004662901618
 20
97.36692905145162
 10
0.16371929314530576
 20
100.66741722879493
 10
0.0
 20
104.0
 10
0.16371929314530576
 20
107.33258277120505
 10
0.6533004662901618
 20
110.63307094854837
 10
1.4640285851048986
 20
113.86967902665171
 10
2.5880958946162487
 20
117.01123670041305
 10
4.0146770121559285
 20
120.02748905208392
 10
5.7300331817134555
 20
122.88938792266646
 10
7.717644585666939
 20
125.56937166156393
 10
9.958369439657378
 20
128.0416305603426
 10
12.430628338436037
 20
130.28235541433304
 10
15.110612077333528
 20
132.26996681828655
 10
17.972510947916074
 20
133.98532298784406
 10
20.988763299586928
 20
135.41190410538374
 10
24.130320973348276
 20
136.5359714148951
 10
27.366929051451624
 20
137.34669953370982
 10
30.667417228794946
 20
137.8362807068547
 10
33.99999999999999
 20
138.0
 10
37.33258277120504
 20
137.8362807068547
 10
40.633070948548365
 20
137.34669953370985
 10
43.86967902665171
 20
136.5359714148951
 10
47.01123670041306
 20
135.41190410538374
 10
50.02748905208392
 20
133.98532298784409
 10
52.88938792266646
 20
132.26996681828655
 10
55.56937166156395
 20
130.28235541433304
 10
58.04163056034261
 20
128.0416305603426
 10
60.28235541433304
 20
125.56937166156396
 10
62.269966818286534
 20
122.88938792266647
 10
63.985322987844064
 20
120.02748905208392
 10
65.41190410538374
 20
117.01123670041308
 10
66.5359714148951
 20
113.86967902665172
 10
67.34669953370982
 20
110.63307094854838
 10
67.8362807068547
 20
107.33258277120505
 10
68.0
 20
104.0
 10
67.8362807068547
 20
100.66741722879495
 10
67.34669953370984
 20
97.36692905145163
 10
66.5359714148951
 20
94.13032097334828
 10
65.41190410538374
 20
90.98876329958695
 10
63.98532298784407
 20
87.97251094791608
 10
62.269966818286534
 20
85.11061207733353
 10
60.282355414333054
 20
82.43062833843605
 10
58.04163056034262
 20
79.95836943965739
 10
55.56937166156395
 20
77.71764458566695
 10
52.88938792266648
 20
75.73003318171347
 10
50.02748905208392
 20
74.01467701215593
 10
47.01123670041305
 20
72.58809589461626
 10
43.86967902665172
 20
71.4640285851049
  0
LWPOLYLINE
  5
3F
330
17
100
AcDbEntity
  8
0
 62
0
100
AcDbPolyline
 90
65
 70
0
 10
34.79828286244977
 20
106.63158592326357
 10
34.536498385544355
 20
106.69715952110889
 10
34.26954713590629
 20
106.73675799834854
 10
34.0
 20
106.75
 10
33.73045286409371
 20
106.73675799834854
 10
33.463501614455645
 20
106.69715952110889
 10
33.201717137550226
 20
106.63158592326357
 10
32.947620560996
 20
106.54066871440604
 10
32.70365897372851
 20
106.42528347695797
 10
32.47218185919609
 20
106.286541433832
 10
32.255418468549976
 20
106.12577874674753
 10
32.05545635173699
 20
105.94454364826301
 10
31.874221253252472
 20
105.74458153145002
 10
31.713458566168
 20
105.5278181408039
 10
31.574716523042024
 20
105.29634102627149
 10
31.45933128559396
 20
105.052379439004
 10
31.368414076736425
 20
104.79828286244977
 10
31.302840478891117
 20
104.53649838554435
 10
31.26324200165146
 20
104.2695471359063
 10
31.25
 20
104.0
 10
31.26324200165146
 20
103.7304528640937
 10
31.302840478891117
 20
103.46350161445565
 10
31.368414076736425
 20
103.20171713755023
 10
31.45933128559396
 20
102.947620560996
 10
31.574716523042024
 20
102.70365897372851
 10
31.713458566168
 20
102.4721818591961
 10
31.874221253252472
 20
102.25541846854998
 10
32.05545635173699
 20
102.05545635173699
 10
32.255418468549976
 20
101.87422125325247
 10
32.4721818591961
 20
101.713458566168
 10
32.70365897372851
 20
101.57471652304203
 10
32.947620560996
 20
101.45933128559396
 10
33.201717137550226
 20
101.36841407673643
 10
33.463501614455645
 20
101.30284047889111
 10
33.73045286409371
 20
101.26324200165146
 10
34.0
 20
101.25
 10
34.26954713590629
 20
101.26324200165146
 10
34.536498385544355
 20
101.30284047889111
 10
34.798282862449774
 20
101.36841407673643
 10
35.052379439004
 20
101.45933128559396
 10
35.29634102627149
 20
101.57471652304203
 10
35.52781814080391
 20
101.713458566168
 10
35.744581531450024
 20
101.87422125325247
 10
35.94454364826301
 20
102.05545635173699
 10
36.12577874674753
 20
102.25541846854998
 10
36.286541433832
 20
102.4721818591961
 10
36.42528347695798
 20
102.70365897372851
 10
36.54066871440604
 20
102.947620560996
 10
36.63158592326357
 20
103.20171713755023
 10
36.69715952110889
 20
103.46350161445565
 10
36.736757998348544
 20
103.7304528640937
 10
36.75
 20
104.0
 10
36.736757998348544
 20
104.2695471359063
 10
36.69715952110889
 20
104.53649838554435
 10
36.63158592326357
 20
104.79828286244977
 10
36.54066871440604
 20
105.052379439004
 10
36.42528347695797
 20
105.29634102627149
 10
36.286541433832
 20
105.5278181408039
 10
36.12577874674753
 20
105.74458153145002
 10
35.94454364826301
 20
105.94454364826301
 10
35.744581531450024
 20
106.12577874674753
 10
35.5278181408039
 20
106.286541433832
 10
35.29634102627149
 20
106.42528347695797
 10
35.052379439004
 20
106.54066871440604
 10
34.79828286244977
 20
106.63158592326357
  0
LWPOLYLINE
  5
40
330
17
100
AcDbEntity
  8
0
 62
0
100
AcDbPolyline
 90
65
 70
0
 10
57.052379439004
 20
106.54066871440604
 10
56.79828286244977
 20
106.63158592326357
 10
56.53649838554435
 20
106.69715952110889
 10
56.26954713590629
 20
106.73675799834854
 10
56.0
 20
106.75
 10
55.73045286409371
 20
106.73675799834854
 10
55.463501614455645
 20
106.69715952110889
 10
55.20171713755023
 20
106.63158592326357
 10
54.947620560996
 20
106.54066871440604
 10
54.70365897372851
 20
106.42528347695797
 10
54.4721818591961
 20
106.286541433832
 10
54.255418468549976
 20
106.12577874674753
 10
54.05545635173699
 20
105.94454364826301
 10
53.87422125325247
 20
105.74458153145002
 10
53.713458566168
 20
105.5278181408039
 10
53.57471652304203
 20
105.29634102627149
 10
53.45933128559396
 20
105.052379439004
 10
53.36841407673643
 20
104.79828286244977
 10
53.30284047889111
 20
104.53649838554435
 10
53.26324200165146
 20
104.2695471359063
 10
53.25
 20
104.0
 10
53.26324200165146
 20
103.7304528640937
 10
53.30284047889111
 20
103.46350161445565
 10
53.36841407673643
 20
103.20171713755023
 10
53.45933128559396
 20
102.947620560996
 10
53.57471652304203
 20
102.70365897372851
 10
53.713458566168
 20
102.4721818591961
 10
53.87422125325247
 20
102.25541846854998
 10
54.05545635173699
 20
102.05545635173699
 10
54.255418468549976
 20
101.87422125325247
 10
54.4721818591961
 20
101.713458566168
 10
54.70365897372851
 20
101.57471652304203
 10
54.947620560996
 20
101.45933128559396
 10
55.20171713755023
 20
101.36841407673643
 10
55.46350161445565
 20
101.30284047889111
 10
55.73045286409371
 20
101.26324200165146
 10
56.0
 20
101.25
 10
56.26954713590629
 20
101.26324200165146
 10
56.53649838554435
 20
101.30284047889111
 10
56.79828286244977
 20
101.36841407673643
 10
57.052379439004
 20
101.45933128559396
 10
57.29634102627149
 20
101.57471652304203
 10
57.5278181408039
 20
101.713458566168
 10
57.744581531450024
 20
101.87422125325247
 10
57.94454364826301
 20
102.05545635173699
 10
58.12577874674753
 20
102.25541846854998
 10
58.286541433832
 20
102.4721818591961
 10
58.42528347695797
 20
102.70365897372851
 10
58.54066871440604
 20
102.947620560996
 10
58.63158592326357
 20
103.20171713755023
 10
58.69715952110889
 20
103.46350161445565
 10
58.73675799834854
 20
103.7304528640937
 10
58.75
 20
104.0
 10
58.73675799834854
 20
104.2695471359063
 10
58.69715952110889
 20
104.53649838554435
 10
58.63158592326357
 20
104.79828286244977
 10
58.54066871440604
 20
105.052379439004
 10
58.42528347695797
 20
105.29634102627149
 10
58.286541433832
 20
105.5278181408039
 10
58.12577874674753
 20
105.74458153145002
 10
57.94454364826301
 20
105.94454364826301
 10
57.744581531450024
 20
106.12577874674753
 10
57.5278181408039
 20
106.286541433832
 10
57.29634102627149
 20
106.42528347695797
 10
57.052379439004
 20
106.54066871440604
  0
LWPOLYLINE
  5
41
330
17
100
AcDbEntity
  8
0
 62
0
100
AcDbPolyline
 90
65
 70
0
 10
54.348899909529145
 20
117.42528347695797
 10
54.104938322261646
 20
117.54066871440604
 10
53.85084174570743
 20
117.63158592326357
 10
53.58905726880201
 20
117.69715952110889
 10
53.32210601916394
 20
117.73675799834854
 10
53.05255888325765
 20
117.75
 10
52.78301174735137
 20
117.73675799834854
 10
52.5160604977133
 20
117.69715952110889
 10
52.25427602080788
 20
117.63158592326357
 10
52.000179444253654
 20
117.54066871440604
 10
51.756217856986154
 20
117.42528347695797
 10
51.524740742453744
 20
117.286541433832
 10
51.30797735180762
 20
117.12577874674753
 10
51.108015234994646
 20
116.94454364826301
 10
50.926780136510125
 20
116.74458153145002
 10
50.766017449425654
 20
116.5278181408039
 10
50.627275406299674
 20
116.29634102627149
 10
50.511890168851615
 20
116.052379439004
 10
50.420972959994074
 20
115.79828286244977
 10
50.35539936214877
 20
115.53649838554435
 10
50.31580088490911
 20
115.2695471359063
 10
50.30255888325765
 20
115.0
 10
50.31580088490911
 20
114.7304528640937
 10
50.35539936214877
 20
114.46350161445565
 10
50.420972959994074
 20
114.20171713755022
 10
50.511890168851615
 20
113.947620560996
 10
50.627275406299674
 20
113.70365897372851
 10
50.766017449425654
 20
113.4721818591961
 10
50.926780136510125
 20
113.25541846854998
 10
51.108015234994646
 20
113.05545635173699
 10
51.30797735180763
 20
112.87422125325247
 10
51.524740742453744
 20
112.713458566168
 10
51.756217856986154
 20
112.57471652304201
 10
52.00017944425366
 20
112.45933128559396
 10
52.25427602080788
 20
112.36841407673643
 10
52.5160604977133
 20
112.30284047889111
 10
52.78301174735136
 20
112.26324200165146
 10
53.05255888325765
 20
112.25
 10
53.32210601916395
 20
112.26324200165146
 10
53.58905726880201
 20
112.30284047889111
 10
53.85084174570743
 20
112.36841407673643
 10
54.104938322261646
 20
112.45933128559396
 10
54.34889990952915
 20
112.57471652304203
 10
54.58037702406156
 20
112.713458566168
 10
54.79714041470768
 20
112.87422125325247
 10
54.99710253152066
 20
113.05545635173699
 10
55.17833763000518
 20
113.25541846854998
 10
55.33910031708965
 20
113.4721818591961
 10
55.47784236021563
 20
113.70365897372851
 10
55.59322759766369
 20
113.947620560996
 10
55.68414480652123
 20
114.20171713755023
 10
55.74971840436653
 20
114.46350161445565
 10
55.7893168816062
 20
114.7304528640937
 10
55.80255888325765
 20
115.0
 10
55.7893168816062
 20
115.2695471359063
 10
55.74971840436653
 20
115.53649838554435
 10
55.68414480652123
 20
115.79828286244977
 10
55.59322759766369
 20
116.052379439004
 10
55.47784236021563
 20
116.29634102627149
 10
55.33910031708965
 20
116.5278181408039
 10
55.178337630005174
 20
116.74458153145002
 10
54.99710253152065
 20
116.94454364826301
 10
54.79714041470768
 20
117.12577874674753
 10
54.58037702406156
 20
117.286541433832
 10
54.348899909529145
 20
117.42528347695797
  0
LWPOLYLINE
  5
42
330
17
100
AcDbEntity
  8
0
 62
0
100
AcDbPolyline
 90
65
 70
0
 10
46.52781814080391
 20
125.33910031708965
 10
46.29634102627149
 20
125.47784236021562
 10
46.052379439004
 20
125.59322759766368
 10
45.798282862449774
 20
125.68414480652123
 10
45.536498385544355
 20
125.74971840436653
 10
45.26954713590629
 20
125.7893168816062
 10
45.0
 20
125.80255888325765
 10
44.73045286409371
 20
125.7893168816062
 10
44.46350161445565
 20
125.74971840436653
 10
44.20171713755023
 20
125.68414480652123
 10
43.947620560996
 20
125.59322759766368
 10
43.70365897372851
 20
125.47784236021562
 10
43.4721818591961
 20
125.33910031708965
 10
43.255418468549976
 20
125.17833763000517
 10
43.05545635173699
 20
124.99710253152065
 10
42.87422125325247
 20
124.79714041470767
 10
42.713458566168
 20
124.58037702406156
 10
42.57471652304203
 20
124.34889990952914
 10
42.45933128559396
 20
124.10493832226165
 10
42.36841407673643
 20
123.85084174570741
 10
42.30284047889112
 20
123.58905726880201
 10
42.26324200165146
 20
123.32210601916394
 10
42.25
 20
123.05255888325765
 10
42.26324200165146
 20
122.78301174735135
 10
42.30284047889112
 20
122.5160604977133
 10
42.36841407673643
 20
122.25427602080788
 10
42.45933128559396
 20
122.00017944425366
 10
42.57471652304203
 20
121.75621785698615
 10
42.713458566168
 20
121.52474074245374
 10
42.87422125325247
 20
121.30797735180762
 10
43.05545635173699
 20
121.10801523499464
 10
43.255418468549976
 20
120.92678013651012
 10
43.4721818591961
 20
120.76601744942565
 10
43.70365897372851
 20
120.62727540629967
 10
43.94762056099601
 20
120.51189016885161
 10
44.20171713755023
 20
120.42097295999407
 10
44.46350161445565
 20
120.35539936214877
 10
44.73045286409371
 20
120.31580088490911
 10
45.0
 20
120.30255888325765
 10
45.26954713590629
 20
120.31580088490911
 10
45.536498385544355
 20
120.35539936214877
 10
45.798282862449774
 20
120.42097295999407
 10
46.052379439004
 20
120.51189016885161
 10
46.29634102627149
 20
120.62727540629967
 10
46.52781814080391
 20
120.76601744942565
 10
46.744581531450024
 20
120.92678013651013
 10
46.94454364826301
 20
121.10801523499464
 10
47.12577874674753
 20
121.30797735180762
 10
47.286541433832
 20
121.52474074245374
 10
47.42528347695798
 20
121.75621785698615
 10
47.54066871440604
 20
122.00017944425366
 10
47.63158592326357
 20
122.25427602080788
 10
47.69715952110889
 20
122.5160604977133
 10
47.736757998348544
 20
122.78301174735137
 10
47.75
 20
123.05255888325765
 10
47.736757998348544
 20
123.32210601916394
 10
47.69715952110889
 20
123.58905726880201
 10
47.63158592326357
 20
123.85084174570741
 10
47.54066871440604
 20
124.10493832226165
 10
47.42528347695798
 20
124.34889990952914
 10
47.286541433832
 20
124.58037702406156
 10
47.12577874674753
 20
124.79714041470768
 10
46.94454364826301
 20
124.99710253152065
 10
46.744581531450024
 20
125.17833763000517
 10
46.52781814080391
 20
125.33910031708965
  0
LWPOLYLINE
  5
43
330
17
100
AcDbEntity
  8
0
 62
0
100
AcDbPolyline
 90
65
 70
0
 10
35.744581531450024
 20
128.12577874674753
 10
35.52781814080391
 20
128.28654143383199
 10
35.29634102627149
 20
128.425283476958
 10
35.052379439004
 20
128.54066871440602
 10
34.798282862449774
 20
128.63158592326357
 10
34.536498385544355
 20
128.6971595211089
 10
34.26954713590629
 20
128.73675799834854
 10
34.0
 20
128.75
 10
33.730452864093714
 20
128.73675799834854
 10
33.463501614455645
 20
128.6971595211089
 10
33.20171713755023
 20
128.63158592326357
 10
32.947620560996
 20
128.54066871440602
 10
32.70365897372851
 20
128.425283476958
 10
32.4721818591961
 20
128.28654143383199
 10
32.255418468549976
 20
128.12577874674753
 10
32.05545635173699
 20
127.94454364826301
 10
31.874221253252475
 20
127.74458153145002
 10
31.713458566168
 20
127.5278181408039
 10
31.574716523042024
 20
127.29634102627149
 10
31.45933128559396
 20
127.052379439004
 10
31.36841407673643
 20
126.79828286244977
 10
31.302840478891117
 20
126.53649838554435
 10
31.26324200165146
 20
126.2695471359063
 10
31.25
 20
126.0
 10
31.26324200165146
 20
125.7304528640937
 10
31.302840478891117
 20
125.46350161445565
 10
31.36841407673643
 20
125.20171713755023
 10
31.45933128559396
 20
124.947620560996
 10
31.574716523042024
 20
124.70365897372851
 10
31.713458566168
 20
124.4721818591961
 10
31.874221253252475
 20
124.25541846854998
 10
32.05545635173699
 20
124.05545635173699
 10
32.255418468549976
 20
123.87422125325247
 10
32.4721818591961
 20
123.713458566168
 10
32.70365897372851
 20
123.57471652304203
 10
32.94762056099601
 20
123.45933128559396
 10
33.20171713755023
 20
123.36841407673643
 10
33.46350161445565
 20
123.30284047889111
 10
33.73045286409371
 20
123.26324200165146
 10
34.0
 20
123.25
 10
34.26954713590629
 20
123.26324200165146
 10
34.536498385544355
 20
123.30284047889111
 10
34.798282862449774
 20
123.36841407673643
 10
35.052379439004
 20
123.45933128559396
 10
35.2963410262715
 20
123.57471652304203
 10
35.52781814080391
 20
123.713458566168
 10
35.744581531450024
 20
123.87422125325247
 10
35.94454364826301
 20
124.05545635173699
 10
36.12577874674753
 20
124.25541846854998
 10
36.286541433832
 20
124.4721818591961
 10
36.42528347695798
 20
124.70365897372851
 10
36.54066871440604
 20
124.947620560996
 10
36.63158592326358
 20
125.20171713755023
 10
36.69715952110889
 20
125.46350161445565
 10
36.736757998348544
 20
125.7304528640937
 10
36.75
 20
126.0
 10
36.736757998348544
 20
126.2695471359063
 10
36.69715952110889
 20
126.53649838554435
 10
36.63158592326358
 20
126.79828286244977
 10
36.54066871440604
 20
127.052379439004
 10
36.42528347695798
 20
127.29634102627149
 10
36.286541433832
 20
127.5278181408039
 10
36.12577874674753
 20
127.74458153145002
 10
35.94454364826301
 20
127.94454364826301
 10
35.744581531450024
 20
128.12577874674753
  0
LWPOLYLINE
  5
44
330
17
100
AcDbEntity
  8
0
 62
0
100
AcDbPolyline
 90
65
 70
0
 10
24.94454364826301
 20
124.99710253152065
 10
24.74458153145003
 20
125.17833763000519
 10
24.52781814080391
 20
125.33910031708965
 10
24.2963410262715
 20
125.47784236021563
 10
24.052379439004003
 20
125.59322759766368
 10
23.798282862449774
 20
125.68414480652123
 10
23.53649838554436
 20
125.74971840436653
 10
23.269547135906294
 20
125.7893168816062
 10
23.000000000000007
 20
125.80255888325766
 10
22.730452864093714
 20
125.7893168816062
 10
22.46350161445565
 20
125.74971840436653
 10
22.201717137550233
 20
125.68414480652123
 10
21.947620560996008
 20
125.59322759766368
 10
21.703658973728512
 20
125.47784236021563
 10
21.4721818591961
 20
125.33910031708965
 10
21.25541846854998
 20
125.17833763000517
 10
21.055456351737
 20
124.99710253152065
 10
20.87422125325248
 20
124.79714041470768
 10
20.713458566168008
 20
124.58037702406156
 10
20.574716523042028
 20
124.34889990952915
 10
20.45933128559397
 20
124.10493832226165
 10
20.36841407673643
 20
123.85084174570743
 10
20.30284047889112
 20
123.58905726880201
 10
20.263242001651463
 20
123.32210601916394
 10
20.250000000000007
 20
123.05255888325766
 10
20.263242001651463
 20
122.78301174735137
 10
20.30284047889112
 20
122.5160604977133
 10
20.368414076736432
 20
122.25427602080788
 10
20.45933128559397
 20
122.00017944425366
 10
20.574716523042028
 20
121.75621785698615
 10
20.713458566168008
 20
121.52474074245374
 10
20.87422125325248
 20
121.30797735180764
 10
21.055456351737
 20
121.10801523499464
 10
21.25541846854998
 20
120.92678013651013
 10
21.4721818591961
 20
120.76601744942565
 10
21.703658973728512
 20
120.62727540629967
 10
21.947620560996008
 20
120.51189016885161
 10
22.201717137550233
 20
120.42097295999407
 10
22.46350161445565
 20
120.35539936214877
 10
22.730452864093714
 20
120.31580088490911
 10
23.000000000000007
 20
120.30255888325766
 10
23.269547135906297
 20
120.31580088490911
 10
23.53649838554436
 20
120.35539936214877
 10
23.798282862449774
 20
120.42097295999407
 10
24.052379439004003
 20
120.51189016885161
 10
24.2963410262715
 20
120.62727540629967
 10
24.527818140803912
 20
120.76601744942565
 10
24.74458153145003
 20
120.92678013651013
 10
24.94454364826301
 20
121.10801523499464
 10
25.12577874674753
 20
121.30797735180764
 10
25.286541433832006
 20
121.52474074245374
 10
25.425283476957983
 20
121.75621785698615
 10
25.540668714406046
 20
122.00017944425366
 10
25.63158592326358
 20
122.25427602080788
 10
25.697159521108887
 20
122.5160604977133
 10
25.736757998348548
 20
122.78301174735137
 10
25.750000000000007
 20
123.05255888325766
 10
25.736757998348548
 20
123.32210601916394
 10
25.697159521108887
 20
123.58905726880201
 10
25.63158592326358
 20
123.85084174570743
 10
25.540668714406046
 20
124.10493832226166
 10
25.42528347695798
 20
124.34889990952915
 10
25.286541433832006
 20
124.58037702406156
 10
25.12577874674753
 20
124.79714041470768
 10
24.94454364826301
 20
124.99710253152065
  0
LWPOLYLINE
  5
45
330
17
100
AcDbEntity
  8
0
 62
0
100
AcDbPolyline
 90
65
 70
0
 10
17.07321986348988
 20
116.74458153145004
 10
16.891984765005358
 20
116.94454364826301
 10
16.692022648192378
 20
117.12577874674753
 10
16.47525925754626
 20
117.28654143383201
 10
16.243782143013846
 20
117.42528347695799
 10
15.99982055574635
 20
117.54066871440605
 10
15.745723979192125
 20
117.63158592326359
 10
15.483939502286706
 20
117.69715952110889
 10
15.216988252648644
 20
117.73675799834855
 10
14.947441116742354
 20
117.75
 10
14.677893980836064
 20
117.73675799834855
 10
14.410942731197999
 20
117.69715952110889
 10
14.149158254292583
 20
117.63158592326359
 10
13.895061677738354
 20
117.54066871440605
 10
13.651100090470859
 20
117.42528347695799
 10
13.419622975938449
 20
117.28654143383201
 10
13.202859585292327
 20
117.12577874674753
 10
13.002897468479347
 20
116.94454364826301
 10
12.821662369994826
 20
116.74458153145002
 10
12.660899682910355
 20
116.52781814080392
 10
12.522157639784378
 20
116.2963410262715
 10
12.406772402336316
 20
116.052379439004
 10
12.315855193478779
 20
115.79828286244978
 10
12.25028159563347
 20
115.53649838554436
 10
12.210683118393813
 20
115.2695471359063
 10
12.197441116742354
 20
115.0
 10
12.210683118393813
 20
114.73045286409372
 10
12.25028159563347
 20
114.46350161445565
 10
12.315855193478779
 20
114.20171713755023
 10
12.406772402336316
 20
113.94762056099601
 10
12.522157639784378
 20
113.70365897372851
 10
12.660899682910355
 20
113.4721818591961
 10
12.821662369994826
 20
113.25541846854998
 10
13.002897468479347
 20
113.055456351737
 10
13.20285958529233
 20
112.87422125325249
 10
13.419622975938449
 20
112.71345856616801
 10
13.651100090470859
 20
112.57471652304203
 10
13.895061677738358
 20
112.45933128559398
 10
14.149158254292583
 20
112.36841407673643
 10
14.410942731198002
 20
112.30284047889113
 10
14.67789398083606
 20
112.26324200165146
 10
14.947441116742354
 20
112.25
 10
15.216988252648648
 20
112.26324200165146
 10
15.483939502286706
 20
112.30284047889113
 10
15.745723979192125
 20
112.36841407673643
 10
15.99982055574635
 20
112.45933128559398
 10
16.24378214301385
 20
112.57471652304203
 10
16.47525925754626
 20
112.71345856616801
 10
16.692022648192378
 20
112.87422125325249
 10
16.89198476500536
 20
113.055456351737
 10
17.073219863489882
 20
113.25541846854998
 10
17.233982550574353
 20
113.4721818591961
 10
17.37272459370033
 20
113.70365897372851
 10
17.488109831148392
 20
113.94762056099601
 10
17.57902704000593
 20
114.20171713755023
 10
17.644600637851237
 20
114.46350161445565
 10
17.684199115090895
 20
114.73045286409372
 10
17.697441116742354
 20
115.0
 10
17.684199115090895
 20
115.2695471359063
 10
17.644600637851237
 20
115.53649838554436
 10
17.57902704000593
 20
115.79828286244978
 10
17.488109831148392
 20
116.052379439004
 10
17.37272459370033
 20
116.2963410262715
 10
17.233982550574353
 20
116.52781814080392
 10
17.07321986348988
 20
116.74458153145004
  0
LWPOLYLINE
  5
46
330
17
100
AcDbEntity
  8
0
 62
0
100
AcDbPolyline
 90
65
 70
0
 10
14.286541433832
 20
105.5278181408039
 10
14.125778746747525
 20
105.74458153145002
 10
13.944543648263004
 20
105.94454364826301
 10
13.744581531450024
 20
106.12577874674753
 10
13.527818140803905
 20
106.286541433832
 10
13.296341026271492
 20
106.42528347695799
 10
13.052379439003996
 20
106.54066871440604
 10
12.79828286244977
 20
106.63158592326357
 10
12.536498385544352
 20
106.69715952110889
 10
12.26954713590629
 20
106.73675799834854
 10
12.0
 20
106.75
 10
11.73045286409371
 20
106.73675799834854
 10
11.463501614455645
 20
106.69715952110889
 10
11.20171713755023
 20
106.63158592326357
 10
10.947620560996
 20
106.54066871440604
 10
10.703658973728505
 20
106.42528347695797
 10
10.472181859196095
 20
106.286541433832
 10
10.255418468549973
 20
106.12577874674753
 10
10.055456351736993
 20
105.94454364826301
 10
9.874221253252472
 20
105.74458153145002
 10
9.713458566168
 20
105.5278181408039
 10
9.574716523042024
 20
105.29634102627149
 10
9.459331285593962
 20
105.052379439004
 10
9.368414076736425
 20
104.79828286244977
 10
9.302840478891117
 20
104.53649838554436
 10
9.26324200165146
 20
104.2695471359063
 10
9.25
 20
104.0
 10
9.26324200165146
 20
103.7304528640937
 10
9.302840478891117
 20
103.46350161445565
 10
9.368414076736425
 20
103.20171713755023
 10
9.459331285593962
 20
102.947620560996
 10
9.574716523042024
 20
102.70365897372851
 10
9.713458566168
 20
102.4721818591961
 10
9.874221253252472
 20
102.25541846854998
 10
10.055456351736993
 20
102.05545635173699
 10
10.255418468549976
 20
101.87422125325247
 10
10.472181859196095
 20
101.713458566168
 10
10.703658973728505
 20
101.57471652304203
 10
10.947620560996004
 20
101.45933128559396
 10
11.20171713755023
 20
101.36841407673643
 10
11.463501614455648
 20
101.30284047889111
 10
11.730452864093706
 20
101.26324200165146
 10
12.0
 20
101.25
 10
12.269547135906294
 20
101.26324200165146
 10
12.536498385544352
 20
101.30284047889111
 10
12.79828286244977
 20
101.36841407673643
 10
13.052379439003996
 20
101.45933128559396
 10
13.296341026271495
 20
101.57471652304203
 10
13.527818140803905
 20
101.713458566168
 10
13.744581531450024
 20
101.87422125325247
 10
13.944543648263007
 20
102.05545635173699
 10
14.125778746747528
 20
102.25541846854998
 10
14.286541433832
 20
102.4721818591961
 10
14.425283476957976
 20
102.70365897372851
 10
14.540668714406038
 20
102.947620560996
 10
14.631585923263575
 20
103.20171713755023
 10
14.697159521108883
 20
103.46350161445565
 10
14.73675799834854
 20
103.7304528640937
 10
14.75
 20
104.0
 10
14.73675799834854
 20
104.2695471359063
 10
14.697159521108883
 20
104.53649838554436
 10
14.631585923263575
 20
104.79828286244978
 10
14.540668714406038
 20
105.052379439004
 10
14.425283476957976
 20
105.29634102627149
 10
14.286541433832
 20
105.5278181408039
  0
LWPOLYLINE
  5
47
330
17
100
AcDbEntity
  8
0
 62
0
100
AcDbPolyline
 90
65
 70
0
 10
17.372724593700323
 20
94.2963410262715
 10
17.233982550574346
 20
94.52781814080392
 10
17.07321986348987
 20
94.74458153145002
 10
16.89198476500535
 20
94.94454364826301
 10
16.69202264819237
 20
95.12577874674753
 10
16.475259257546252
 20
95.286541433832
 10
16.24378214301384
 20
95.42528347695799
 10
15.999820555746343
 20
95.54066871440604
 10
15.745723979192118
 20
95.63158592326359
 10
15.483939502286699
 20
95.69715952110889
 10
15.216988252648637
 20
95.73675799834855
 10
14.947441116742347
 20
95.75
 10
14.677893980836057
 20
95.73675799834855
 10
14.410942731197991
 20
95.69715952110889
 10
14.149158254292576
 20
95.63158592326357
 10
13.895061677738347
 20
95.54066871440604
 10
13.651100090470852
 20
95.42528347695799
 10
13.419622975938442
 20
95.286541433832
 10
13.20285958529232
 20
95.12577874674753
 10
13.00289746847934
 20
94.94454364826301
 10
12.821662369994819
 20
94.74458153145002
 10
12.660899682910348
 20
94.52781814080392
 10
12.522157639784371
 20
94.2963410262715
 10
12.406772402336308
 20
94.052379439004
 10
12.315855193478772
 20
93.79828286244978
 10
12.250281595633464
 20
93.53649838554436
 10
12.210683118393806
 20
93.2695471359063
 10
12.197441116742347
 20
93.0
 10
12.210683118393806
 20
92.7304528640937
 10
12.250281595633464
 20
92.46350161445565
 10
12.315855193478772
 20
92.20171713755023
 10
12.406772402336308
 20
91.947620560996
 10
12.522157639784371
 20
91.70365897372851
 10
12.660899682910348
 20
91.4721818591961
 10
12.821662369994819
 20
91.25541846854998
 10
13.00289746847934
 20
91.055456351737
 10
13.202859585292323
 20
90.87422125325247
 10
13.419622975938442
 20
90.713458566168
 10
13.651100090470852
 20
90.57471652304203
 10
13.89506167773835
 20
90.45933128559396
 10
14.149158254292576
 20
90.36841407673643
 10
14.410942731197995
 20
90.30284047889113
 10
14.677893980836053
 20
90.26324200165146
 10
14.947441116742347
 20
90.25
 10
15.21698825264864
 20
90.26324200165146
 10
15.483939502286699
 20
90.30284047889113
 10
15.745723979192118
 20
90.36841407673643
 10
15.999820555746343
 20
90.45933128559396
 10
16.243782143013842
 20
90.57471652304203
 10
16.475259257546252
 20
90.713458566168
 10
16.69202264819237
 20
90.87422125325247
 10
16.891984765005354
 20
91.055456351737
 10
17.073219863489875
 20
91.25541846854998
 10
17.233982550574346
 20
91.4721818591961
 10
17.372724593700323
 20
91.70365897372851
 10
17.488109831148385
 20
91.947620560996
 10
17.579027040005922
 20
92.20171713755023
 10
17.64460063785123
 20
92.46350161445565
 10
17.684199115090887
 20
92.7304528640937
 10
17.697441116742347
 20
93.0
 10
17.684199115090887
 20
93.2695471359063
 10
17.64460063785123
 20
93.53649838554436
 10
17.579027040005922
 20
93.79828286244978
 10
17.488109831148385
 20
94.052379439004
 10
17.372724593700323
 20
94.2963410262715
  0
LWPOLYLINE
  5
48
330
17
100
AcDbEntity
  8
0
 62
0
100
AcDbPolyline
 90
65
 70
0
 10
25.540668714406028
 20
85.99982055574635
 10
25.425283476957965
 20
86.24378214301385
 10
25.28654143383199
 20
86.47525925754626
 10
25.125778746747514
 20
86.69202264819238
 10
24.944543648262993
 20
86.89198476500536
 10
24.744581531450017
 20
87.07321986348988
 10
24.527818140803895
 20
87.23398255057435
 10
24.296341026271485
 20
87.37272459370033
 10
24.052379439003985
 20
87.48810983114839
 10
23.79828286244976
 20
87.57902704000593
 10
23.53649838554434
 20
87.64460063785124
 10
23.26954713590628
 20
87.68419911509089
 10
22.99999999999999
 20
87.69744111674235
 10
22.7304528640937
 20
87.68419911509089
 10
22.463501614455637
 20
87.64460063785124
 10
22.20171713755022
 20
87.57902704000593
 10
21.947620560995993
 20
87.48810983114839
 10
21.703658973728494
 20
87.37272459370033
 10
21.472181859196084
 20
87.23398255057435
 10
21.255418468549962
 20
87.07321986348988
 10
21.055456351736986
 20
86.89198476500536
 10
20.874221253252465
 20
86.69202264819238
 10
20.71345856616799
 20
86.47525925754626
 10
20.574716523042014
 20
86.24378214301385
 10
20.45933128559395
 20
85.99982055574635
 10
20.368414076736414
 20
85.74572397919212
 10
20.302840478891106
 20
85.4839395022867
 10
20.26324200165145
 20
85.21698825264865
 10
20.24999999999999
 20
84.94744111674235
 10
20.26324200165145
 20
84.67789398083606
 10
20.302840478891106
 20
84.41094273119799
 10
20.368414076736414
 20
84.14915825429259
 10
20.45933128559395
 20
83.89506167773835
 10
20.574716523042014
 20
83.65110009047086
 10
20.71345856616799
 20
83.41962297593845
 10
20.874221253252465
 20
83.20285958529233
 10
21.055456351736986
 20
83.00289746847935
 10
21.255418468549962
 20
82.82166236999483
 10
21.472181859196084
 20
82.66089968291035
 10
21.703658973728494
 20
82.52215763978438
 10
21.947620560995993
 20
82.40677240233632
 10
22.20171713755022
 20
82.31585519347878
 10
22.463501614455637
 20
82.25028159563347
 10
22.7304528640937
 20
82.21068311839382
 10
22.99999999999999
 20
82.19744111674235
 10
23.26954713590628
 20
82.21068311839382
 10
23.53649838554434
 20
82.25028159563347
 10
23.79828286244976
 20
82.31585519347878
 10
24.052379439003985
 20
82.40677240233632
 10
24.296341026271485
 20
82.52215763978438
 10
24.527818140803895
 20
82.66089968291035
 10
24.744581531450017
 20
82.82166236999483
 10
24.944543648262993
 20
83.00289746847935
 10
25.125778746747514
 20
83.20285958529233
 10
25.28654143383199
 20
83.41962297593845
 10
25.425283476957965
 20
83.65110009047086
 10
25.540668714406028
 20
83.89506167773835
 10
25.631585923263565
 20
84.14915825429259
 10
25.697159521108873
 20
84.410942731198
 10
25.73675799834853
 20
84.67789398083606
 10
25.74999999999999
 20
84.94744111674235
 10
25.73675799834853
 20
85.21698825264865
 10
25.697159521108873
 20
85.48393950228672
 10
25.631585923263565
 20
85.74572397919212
 10
25.540668714406028
 20
85.99982055574635
  0
LWPOLYLINE
  5
49
330
17
100
AcDbEntity
  8
0
 62
0
100
AcDbPolyline
 90
65
 70
0
 10
36.63158592326357
 20
82.79828286244977
 10
36.54066871440603
 20
83.052379439004
 10
36.42528347695797
 20
83.29634102627149
 10
36.28654143383199
 20
83.5278181408039
 10
36.12577874674752
 20
83.74458153145002
 10
35.944543648263
 20
83.94454364826301
 10
35.744581531450024
 20
84.12577874674753
 10
35.5278181408039
 20
84.286541433832
 10
35.29634102627149
 20
84.42528347695797
 10
35.05237943900399
 20
84.54066871440604
 10
34.79828286244977
 20
84.63158592326357
 10
34.53649838554435
 20
84.69715952110889
 10
34.269547135906286
 20
84.73675799834854
 10
33.99999999999999
 20
84.75
 10
33.73045286409371
 20
84.73675799834854
 10
33.463501614455645
 20
84.69715952110889
 10
33.201717137550226
 20
84.63158592326357
 10
32.947620560996
 20
84.54066871440604
 10
32.7036589737285
 20
84.42528347695797
 10
32.47218185919609
 20
84.286541433832
 10
32.25541846854997
 20
84.12577874674753
 10
32.05545635173699
 20
83.94454364826301
 10
31.87422125325247
 20
83.74458153145002
 10
31.713458566167997
 20
83.5278181408039
 10
31.57471652304202
 20
83.29634102627149
 10
31.459331285593958
 20
83.052379439004
 10
31.36841407673642
 20
82.79828286244977
 10
31.302840478891113
 20
82.53649838554435
 10
31.263242001651456
 20
82.2695471359063
 10
31.249999999999996
 20
82.0
 10
31.263242001651456
 20
81.7304528640937
 10
31.302840478891113
 20
81.46350161445565
 10
31.36841407673642
 20
81.20171713755023
 10
31.459331285593958
 20
80.947620560996
 10
31.57471652304202
 20
80.70365897372851
 10
31.713458566167997
 20
80.4721818591961
 10
31.87422125325247
 20
80.25541846854998
 10
32.05545635173699
 20
80.05545635173699
 10
32.25541846854997
 20
79.87422125325247
 10
32.47218185919609
 20
79.713458566168
 10
32.7036589737285
 20
79.57471652304203
 10
32.947620560996
 20
79.45933128559396
 10
33.201717137550226
 20
79.36841407673643
 10
33.463501614455645
 20
79.30284047889111
 10
33.73045286409371
 20
79.26324200165146
 10
33.99999999999999
 20
79.25
 10
34.269547135906286
 20
79.26324200165146
 10
34.53649838554435
 20
79.30284047889111
 10
34.79828286244977
 20
79.36841407673643
 10
35.05237943900399
 20
79.45933128559396
 10
35.29634102627149
 20
79.57471652304203
 10
35.5278181408039
 20
79.713458566168
 10
35.744581531450024
 20
79.87422125325247
 10
35.944543648263
 20
80.05545635173699
 10
36.12577874674752
 20
80.25541846854998
 10
36.28654143383199
 20
80.4721818591961
 10
36.42528347695797
 20
80.70365897372851
 10
36.54066871440603
 20
80.947620560996
 10
36.63158592326357
 20
81.20171713755023
 10
36.69715952110888
 20
81.46350161445565
 10
36.73675799834854
 20
81.7304528640937
 10
36.74999999999999
 20
82.0
 10
36.73675799834854
 20
82.2695471359063
 10
36.69715952110888
 20
82.53649838554435
 10
36.63158592326357
 20
82.79828286244977
  0
LWPOLYLINE
  5
4A
330
17
100
AcDbEntity
  8
0
 62
0
100
AcDbPolyline
 90
65
 70
0
 10
47.69715952110887
 20
85.48393950228669
 10
47.63158592326356
 20
85.7457239791921
 10
47.540668714406024
 20
85.99982055574634
 10
47.42528347695796
 20
86.24378214301383
 10
47.286541433831985
 20
86.47525925754624
 10
47.125778746747514
 20
86.69202264819236
 10
46.94454364826299
 20
86.89198476500535
 10
46.74458153145001
 20
87.07321986348987
 10
46.52781814080389
 20
87.23398255057434
 10
46.29634102627148
 20
87.37272459370031
 10
46.052379439003985
 20
87.48810983114838
 10
45.79828286244975
 20
87.57902704000591
 10
45.536498385544334
 20
87.64460063785123
 10
45.26954713590628
 20
87.68419911509088
 10
44.999999999999986
 20
87.69744111674234
 10
44.73045286409369
 20
87.68419911509088
 10
44.46350161445563
 20
87.64460063785123
 10
44.20171713755021
 20
87.57902704000591
 10
43.947620560995986
 20
87.48810983114838
 10
43.703658973728494
 20
87.37272459370031
 10
43.472181859196084
 20
87.23398255057434
 10
43.25541846854996
 20
87.07321986348987
 10
43.05545635173698
 20
86.89198476500535
 10
42.87422125325246
 20
86.69202264819236
 10
42.713458566167986
 20
86.47525925754624
 10
42.574716523042014
 20
86.24378214301383
 10
42.45933128559395
 20
85.99982055574634
 10
42.368414076736414
 20
85.7457239791921
 10
42.3028404788911
 20
85.48393950228669
 10
42.26324200165145
 20
85.21698825264863
 10
42.249999999999986
 20
84.94744111674234
 10
42.26324200165145
 20
84.67789398083605
 10
42.3028404788911
 20
84.41094273119799
 10
42.368414076736414
 20
84.14915825429257
 10
42.45933128559395
 20
83.89506167773834
 10
42.574716523042014
 20
83.65110009047085
 10
42.713458566167986
 20
83.41962297593844
 10
42.87422125325246
 20
83.20285958529232
 10
43.05545635173698
 20
83.00289746847933
 10
43.25541846854996
 20
82.82166236999481
 10
43.472181859196084
 20
82.66089968291034
 10
43.703658973728494
 20
82.52215763978437
 10
43.947620560995986
 20
82.4067724023363
 10
44.20171713755022
 20
82.31585519347877
 10
44.46350161445564
 20
82.25028159563345
 10
44.73045286409369
 20
82.2106831183938
 10
44.999999999999986
 20
82.19744111674234
 10
45.26954713590628
 20
82.2106831183938
 10
45.53649838554434
 20
82.25028159563345
 10
45.79828286244975
 20
82.31585519347877
 10
46.052379439003985
 20
82.4067724023363
 10
46.29634102627148
 20
82.52215763978437
 10
46.52781814080389
 20
82.66089968291034
 10
46.74458153145001
 20
82.82166236999481
 10
46.94454364826299
 20
83.00289746847933
 10
47.125778746747514
 20
83.20285958529232
 10
47.286541433831985
 20
83.41962297593844
 10
47.42528347695796
 20
83.65110009047085
 10
47.540668714406024
 20
83.89506167773834
 10
47.63158592326356
 20
84.14915825429257
 10
47.69715952110887
 20
84.41094273119799
 10
47.73675799834852
 20
84.67789398083605
 10
47.749999999999986
 20
84.94744111674234
 10
47.73675799834852
 20
85.21698825264863
 10
47.69715952110887
 20
85.48393950228669
  0
LWPOLYLINE
  5
4B
330
17
100
AcDbEntity
  8
0
 62
0
100
AcDbPolyline
 90
65
 70
0
 10
55.78931688160618
 20
93.26954713590628
 10
55.74971840436653
 20
93.53649838554435
 10
55.68414480652122
 20
93.79828286244977
 10
55.593227597663684
 20
94.05237943900399
 10
55.47784236021562
 20
94.29634102627148
 10
55.339100317089645
 20
94.5278181408039
 10
55.178337630005174
 20
94.74458153145002
 10
54.99710253152065
 20
94.944543648263
 10
54.79714041470767
 20
95.12577874674751
 10
54.58037702406155
 20
95.28654143383199
 10
54.34889990952914
 20
95.42528347695796
 10
54.104938322261646
 20
95.54066871440602
 10
53.85084174570741
 20
95.63158592326357
 10
53.589057268801994
 20
95.69715952110887
 10
53.32210601916394
 20
95.73675799834854
 10
53.052558883257646
 20
95.74999999999999
 10
52.78301174735135
 20
95.73675799834854
 10
52.51606049771329
 20
95.69715952110887
 10
52.25427602080788
 20
95.63158592326357
 10
52.00017944425365
 20
95.54066871440602
 10
51.756217856986154
 20
95.42528347695796
 10
51.524740742453744
 20
95.28654143383199
 10
51.30797735180762
 20
95.12577874674751
 10
51.10801523499464
 20
94.944543648263
 10
50.92678013651012
 20
94.74458153145001
 10
50.76601744942565
 20
94.5278181408039
 10
50.627275406299674
 20
94.29634102627148
 10
50.51189016885161
 20
94.05237943900399
 10
50.420972959994074
 20
93.79828286244975
 10
50.35539936214876
 20
93.53649838554435
 10
50.31580088490911
 20
93.26954713590628
 10
50.302558883257646
 20
92.99999999999999
 10
50.31580088490911
 20
92.73045286409369
 10
50.35539936214876
 20
92.46350161445564
 10
50.420972959994074
 20
92.20171713755022
 10
50.51189016885161
 20
91.94762056099599
 10
50.627275406299674
 20
91.7036589737285
 10
50.76601744942565
 20
91.47218185919608
 10
50.92678013651012
 20
91.25541846854996
 10
51.10801523499464
 20
91.05545635173698
 10
51.30797735180762
 20
90.87422125325246
 10
51.524740742453744
 20
90.71345856616799
 10
51.756217856986154
 20
90.57471652304201
 10
52.00017944425365
 20
90.45933128559395
 10
52.25427602080788
 20
90.36841407673641
 10
52.5160604977133
 20
90.30284047889111
 10
52.78301174735135
 20
90.26324200165145
 10
53.052558883257646
 20
90.24999999999999
 10
53.32210601916394
 20
90.26324200165145
 10
53.589057268801994
 20
90.30284047889111
 10
53.85084174570741
 20
90.36841407673641
 10
54.104938322261646
 20
90.45933128559395
 10
54.34889990952914
 20
90.57471652304201
 10
54.58037702406155
 20
90.71345856616799
 10
54.79714041470767
 20
90.87422125325246
 10
54.99710253152065
 20
91.05545635173698
 10
55.178337630005174
 20
91.25541846854996
 10
55.339100317089645
 20
91.47218185919608
 10
55.47784236021562
 20
91.7036589737285
 10
55.593227597663684
 20
91.947620560996
 10
55.68414480652122
 20
92.20171713755022
 10
55.74971840436653
 20
92.46350161445564
 10
55.78931688160618
 20
92.73045286409369
 10
55.802558883257646
 20
92.99999999999999
 10
55.78931688160618
 20
93.26954713590628
  0
ENDSEC
  0
SECTION
  2
OBJECTS
  0
DICTIONARY
  5
A
330
0
100
AcDbDictionary
280
0
281
1
  3
ACAD_COLOR
350
B
  3
ACAD_GROUP
350
C
  3
ACAD_LAYOUT
350
D
  3
ACAD_MATERIAL
350
E
  3
ACAD_MLEADERSTYLE
350
F
  3
ACAD_MLINESTYLE
350
10
  3
ACAD_PLOTSETTINGS
350
11
  3
ACAD_PLOTSTYLENAME
350
12
  3
ACAD_SCALELIST
350
14
  3
ACAD_TABLESTYLE
350
15
  3
ACAD_VISUALSTYLE
350
16
  3
EZDXF_META
350
2D
  0
DICTIONARY
  5
B
330
A
100
AcDbDictionary
280
0
281
1
  0
DICTIONARY
  5
C
330
A
100
AcDbDictionary
280
0
281
1
  0
DICTIONARY
  5
D
330
A
100
AcDbDictionary
280
0
281
1
  3
Model
350
1A
  3
Layout1
350
1E
  0
DICTIONARY
  5
E
330
A
100
AcDbDictionary
280
0
281
1
  3
ByBlock
350
1F
  3
ByLayer
350
20
  3
Global
350
21
  0
DICTIONARY
  5
F
330
A
100
AcDbDictionary
280
0
281
1
  3
Standard
350
2C
  0
DICTIONARY
  5
10
330
A
100
AcDbDictionary
280
0
281
1
  3
Standard
350
22
  0
DICTIONARY
  5
11
330
A
100
AcDbDictionary
280
0
281
1
  0
ACDBDICTIONARYWDFLT
  5
12
330
A
100
AcDbDictionary
280
0
281
1
  3
Normal
350
13
100
AcDbDictionaryWithDefault
340
13
  0
ACDBPLACEHOLDER
  5
13
330
12
  0
DICTIONARY
  5
14
330
A
100
AcDbDictionary
280
0
281
1
  0
DICTIONARY
  5
15
330
A
100
AcDbDictionary
280
0
281
1
  0
DICTIONARY
  5
16
330
A
100
AcDbDictionary
280
0
281
1
  0
LAYOUT
  5
1A
330
D
100
AcDbPlotSettings
  1

  4
A3
  6

 40
7.5
 41
20.0
 42
7.5
 43
20.0
 44
420.0
 45
297.0
 46
0.0
 47
0.0
 48
0.0
 49
0.0
140
0.0
141
0.0
142
1.0
143
1.0
 70
1024
 72
1
 73
0
 74
5
  7

 75
16
 76
0
 77
2
 78
300
147
1.0
148
0.0
149
0.0
100
AcDbLayout
  1
Model
 70
1
 71
0
 10
0.0
 20
0.0
 11
420.0
 21
297.0
 12
0.0
 22
0.0
 32
0.0
 14
1e+20
 24
1e+20
 34
1e+20
 15
-1e+20
 25
-1e+20
 35
-1e+20
146
0.0
 13
0.0
 23
0.0
 33
0.0
 16
1.0
 26
0.0
 36
0.0
 17
0.0
 27
1.0
 37
0.0
 76
1
330
17
  0
LAYOUT
  5
1E
330
D
100
AcDbPlotSettings
  1

  4
A3
  6

 40
7.5
 41
20.0
 42
7.5
 43
20.0
 44
420.0
 45
297.0
 46
0.0
 47
0.0
 48
0.0
 49
0.0
140
0.0
141
0.0
142
1.0
143
1.0
 70
0
 72
1
 73
0
 74
5
  7

 75
16
 76
0
 77
2
 78
300
147
1.0
148
0.0
149
0.0
100
AcDbLayout
  1
Layout1
 70
1
 71
1
 10
0.0
 20
0.0
 11
420.0
 21
297.0
 12
0.0
 22
0.0
 32
0.0
 14
1e+20
 24
1e+20
 34
1e+20
 15
-1e+20
 25
-1e+20
 35
-1e+20
146
0.0
 13
0.0
 23
0.0
 33
0.0
 16
1.0
 26
0.0
 36
0.0
 17
0.0
 27
1.0
 37
0.0
 76
1
330
1B
  0
MATERIAL
  5
1F
102
{ACAD_REACTORS
330
E
102
}
330
E
100
AcDbMaterial
  1
ByBlock
  2

 70
0
 40
1.0
 71
1
 41
1.0
 91
-1023410177
 42
1.0
 72
1
  3

 73
1
 74
1
 75
1
 44
0.5
 73
0
 45
1.0
 46
1.0
 77
1
  4

 78
1
 79
1
170
1
 48
1.0
171
1
  6

172
1
173
1
174
1
140
1.0
141
1.0
175
1
  7

176
1
177
1
178
1
143
1.0
179
1
  8

270
1
271
1
272
1
145
1.0
146
1.0
273
1
  9

274
1
275
1
276
1
 42
1.0
 72
1
  3

 73
1
 74
1
 75
1
 94
63
  0
MATERIAL
  5
20
102
{ACAD_REACTORS
330
E
102
}
330
E
100
AcDbMaterial
  1
ByLayer
  2

 70
0
 40
1.0
 71
1
 41
1.0
 91
-1023410177
 42
1.0
 72
1
  3

 73
1
 74
1
 75
1
 44
0.5
 73
0
 45
1.0
 46
1.0
 77
1
  4

 78
1
 79
1
170
1
 48
1.0
171
1
  6

172
1
173
1
174
1
140
1.0
141
1.0
175
1
  7

176
1
177
1
178
1
143
1.0
179
1
  8

270
1
271
1
272
1
145
1.0
146
1.0
273
1
  9

274
1
275
1
276
1
 42
1.0
 72
1
  3

 73
1
 74
1
 75
1
 94
63
  0
MATERIAL
  5
21
102
{ACAD_REACTORS
330
E
102
}
330
E
100
AcDbMaterial
  1
Global
  2

 70
0
 40
1.0
 71
1
 41
1.0
 91
-1023410177
 42
1.0
 72
1
  3

 73
1
 74
1
 75
1
 44
0.5
 73
0
 45
1.0
 46
1.0
 77
1
  4

 78
1
 79
1
170
1
 48
1.0
171
1
  6

172
1
173
1
174
1
140
1.0
141
1.0
175
1
  7

176
1
177
1
178
1
143
1.0
179
1
  8

270
1
271
1
272
1
145
1.0
146
1.0
273
1
  9

274
1
275
1
276
1
 42
1.0
 72
1
  3

 73
1
 74
1
 75
1
 94
63
  0
MLINESTYLE
  5
22
102
{ACAD_REACTORS
330
10
102
}
330
10
100
AcDbMlineStyle
  2
Standard
 70
0
  3

 62
256
 51
90.0
 52
90.0
 71
2
 49
0.5
 62
256
  6
BYLAYER
 49
-0.5
 62
256
  6
BYLAYER
  0
MLEADERSTYLE
  5
2C
102
{ACAD_REACTORS
330
F
102
}
330
F
100
AcDbMLeaderStyle
179
2
170
2
171
1
172
0
 90
2
 40
0.0
 41
0.0
173
1
 91
-1056964608
 92
-2
290
1
 42
2.0
291
1
 43
8.0
  3
Standard
 44
4.0
300

342
29
174
1
175
1
176
0
178
1
 93
-1056964608
 45
4.0
292
0
297
0
 46
4.0
 94
-1056964608
 47
1.0
 49
1.0
140
1.0
294
1
141
0.0
177
0
142
1.0
295
0
296
0
143
3.75
271
0
272
9
273
9
  0
DICTIONARY
  5
2D
330
A
100
AcDbDictionary
281
1
  3
CREATED_BY_EZDXF
350
2E
  3
WRITTEN_BY_EZDXF
350
4E
  0
DICTIONARYVAR
  5
2E
330
2D
100
DictionaryVariables
280
0
  1
1.3.4 @ 2025-09-04T19:44:04.398016+00:00
  0
DICTIONARYVAR
  5
4E
330
2D
100
DictionaryVariables
280
0
  1
1.3.4 @ 2025-09-04T19:44:04.431516+00:00
  0
ENDSEC
  0
EOF
