  0
SECTION
  2
HEADER
  9
$ACADVER
  1
AC1024
  9
$ACADMAINTVER
 70
6
  9
$DWGCODEPAGE
  3
ANSI_1252
  9
$LASTSAVEDBY
  1
ezdxf
  9
$INSBASE
 10
0.0
 20
0.0
 30
0.0
  9
$EXTMIN
 10
1e+20
 20
1e+20
 30
1e+20
  9
$EXTMAX
 10
-1e+20
 20
-1e+20
 30
-1e+20
  9
$LIMMIN
 10
0.0
 20
0.0
  9
$LIMMAX
 10
420.0
 20
297.0
  9
$ORTHOMODE
 70
0
  9
$REGENMODE
 70
1
  9
$FILLMODE
 70
1
  9
$QTEXTMODE
 70
0
  9
$MIRRTEXT
 70
1
  9
$LTSCALE
 40
1.0
  9
$ATTMODE
 70
1
  9
$TEXTSIZE
 40
2.5
  9
$TRACEWID
 40
1.0
  9
$TEXTSTYLE
  7
Standard
  9
$CLAYER
  8
0
  9
$CELTYPE
  6
ByLayer
  9
$CECOLOR
 62
256
  9
$CELTSCALE
 40
1.0
  9
$DISPSILH
 70
0
  9
$DIMSCALE
 40
1.0
  9
$DIMASZ
 40
2.5
  9
$DIMEXO
 40
0.625
  9
$DIMDLI
 40
3.75
  9
$DIMRND
 40
0.0
  9
$DIMDLE
 40
0.0
  9
$DIMEXE
 40
1.25
  9
$DIMTP
 40
0.0
  9
$DIMTM
 40
0.0
  9
$DIMTXT
 40
2.5
  9
$DIMCEN
 40
2.5
  9
$DIMTSZ
 40
0.0
  9
$DIMTOL
 70
0
  9
$DIMLIM
 70
0
  9
$DIMTIH
 70
0
  9
$DIMTOH
 70
0
  9
$DIMSE1
 70
0
  9
$DIMSE2
 70
0
  9
$DIMTAD
 70
1
  9
$DIMZIN
 70
8
  9
$DIMBLK
  1

  9
$DIMASO
 70
1
  9
$DIMSHO
 70
1
  9
$DIMPOST
  1

  9
$DIMAPOST
  1

  9
$DIMALT
 70
0
  9
$DIMALTD
 70
3
  9
$DIMALTF
 40
0.03937007874
  9
$DIMLFAC
 40
1.0
  9
$DIMTOFL
 70
1
  9
$DIMTVP
 40
0.0
  9
$DIMTIX
 70
0
  9
$DIMSOXD
 70
0
  9
$DIMSAH
 70
0
  9
$DIMBLK1
  1

  9
$DIMBLK2
  1

  9
$DIMSTYLE
  2
ISO-25
  9
$DIMCLRD
 70
0
  9
$DIMCLRE
 70
0
  9
$DIMCLRT
 70
0
  9
$DIMTFAC
 40
1.0
  9
$DIMGAP
 40
0.625
  9
$DIMJUST
 70
0
  9
$DIMSD1
 70
0
  9
$DIMSD2
 70
0
  9
$DIMTOLJ
 70
0
  9
$DIMTZIN
 70
8
  9
$DIMALTZ
 70
0
  9
$DIMALTTZ
 70
0
  9
$DIMUPT
 70
0
  9
$DIMDEC
 70
2
  9
$DIMTDEC
 70
2
  9
$DIMALTU
 70
2
  9
$DIMALTTD
 70
3
  9
$DIMTXSTY
  7
Standard
  9
$DIMAUNIT
 70
0
  9
$DIMADEC
 70
0
  9
$DIMALTRND
 40
0.0
  9
$DIMAZIN
 70
0
  9
$DIMDSEP
 70
44
  9
$DIMATFIT
 70
3
  9
$DIMFRAC
 70
0
  9
$DIMLDRBLK
  1

  9
$DIMLUNIT
 70
2
  9
$DIMLWD
 70
-2
  9
$DIMLWE
 70
-2
  9
$DIMTMOVE
 70
0
  9
$DIMFXL
 40
1.0
  9
$DIMFXLON
 70
0
  9
$DIMJOGANG
 40
0.785398163397
  9
$DIMTFILL
 70
0
  9
$DIMTFILLCLR
 70
0
  9
$DIMARCSYM
 70
0
  9
$DIMLTYPE
  6

  9
$DIMLTEX1
  6

  9
$DIMLTEX2
  6

  9
$DIMTXTDIRECTION
 70
0
  9
$LUNITS
 70
2
  9
$LUPREC
 70
4
  9
$SKETCHINC
 40
1.0
  9
$FILLETRAD
 40
10.0
  9
$AUNITS
 70
0
  9
$AUPREC
 70
2
  9
$MENU
  1
.
  9
$ELEVATION
 40
0.0
  9
$PELEVATION
 40
0.0
  9
$THICKNESS
 40
0.0
  9
$LIMCHECK
 70
0
  9
$CHAMFERA
 40
0.0
  9
$CHAMFERB
 40
0.0
  9
$CHAMFERC
 40
0.0
  9
$CHAMFERD
 40
0.0
  9
$SKPOLY
 70
0
  9
$TDCREATE
 40
2460448.735509259
  9
$TDUCREATE
 40
2458532.153996898
  9
$TDUPDATE
 40
2460448.735509259
  9
$TDUUPDATE
 40
2458532.1544311
  9
$TDINDWG
 40
0.0
  9
$TDUSRTIMER
 40
0.0
  9
$USRTIMER
 70
1
  9
$ANGBASE
 50
0.0
  9
$ANGDIR
 70
0
  9
$PDMODE
 70
0
  9
$PDSIZE
 40
0.0
  9
$PLINEWID
 40
0.0
  9
$SPLFRAME
 70
0
  9
$SPLINETYPE
 70
6
  9
$SPLINESEGS
 70
8
  9
$HANDSEED
  5
65
  9
$SURFTAB1
 70
6
  9
$SURFTAB2
 70
6
  9
$SURFTYPE
 70
6
  9
$SURFU
 70
6
  9
$SURFV
 70
6
  9
$UCSBASE
  2

  9
$UCSNAME
  2

  9
$UCSORG
 10
0.0
 20
0.0
 30
0.0
  9
$UCSXDIR
 10
1.0
 20
0.0
 30
0.0
  9
$UCSYDIR
 10
0.0
 20
1.0
 30
0.0
  9
$UCSORTHOREF
  2

  9
$UCSORTHOVIEW
 70
0
  9
$UCSORGTOP
 10
0.0
 20
0.0
 30
0.0
  9
$UCSORGBOTTOM
 10
0.0
 20
0.0
 30
0.0
  9
$UCSORGLEFT
 10
0.0
 20
0.0
 30
0.0
  9
$UCSORGRIGHT
 10
0.0
 20
0.0
 30
0.0
  9
$UCSORGFRONT
 10
0.0
 20
0.0
 30
0.0
  9
$UCSORGBACK
 10
0.0
 20
0.0
 30
0.0
  9
$PUCSBASE
  2

  9
$PUCSNAME
  2

  9
$PUCSORG
 10
0.0
 20
0.0
 30
0.0
  9
$PUCSXDIR
 10
1.0
 20
0.0
 30
0.0
  9
$PUCSYDIR
 10
0.0
 20
1.0
 30
0.0
  9
$PUCSORTHOREF
  2

  9
$PUCSORTHOVIEW
 70
0
  9
$PUCSORGTOP
 10
0.0
 20
0.0
 30
0.0
  9
$PUCSORGBOTTOM
 10
0.0
 20
0.0
 30
0.0
  9
$PUCSORGLEFT
 10
0.0
 20
0.0
 30
0.0
  9
$PUCSORGRIGHT
 10
0.0
 20
0.0
 30
0.0
  9
$PUCSORGFRONT
 10
0.0
 20
0.0
 30
0.0
  9
$PUCSORGBACK
 10
0.0
 20
0.0
 30
0.0
  9
$USERI1
 70
0
  9
$USERI2
 70
0
  9
$USERI3
 70
0
  9
$USERI4
 70
0
  9
$USERI5
 70
0
  9
$USERR1
 40
0.0
  9
$USERR2
 40
0.0
  9
$USERR3
 40
0.0
  9
$USERR4
 40
0.0
  9
$USERR5
 40
0.0
  9
$WORLDVIEW
 70
1
  9
$SHADEDGE
 70
3
  9
$SHADEDIF
 70
70
  9
$TILEMODE
 70
1
  9
$MAXACTVP
 70
64
  9
$PINSBASE
 10
0.0
 20
0.0
 30
0.0
  9
$PLIMCHECK
 70
0
  9
$PEXTMIN
 10
1e+20
 20
1e+20
 30
1e+20
  9
$PEXTMAX
 10
-1e+20
 20
-1e+20
 30
-1e+20
  9
$PLIMMIN
 10
0.0
 20
0.0
  9
$PLIMMAX
 10
420.0
 20
297.0
  9
$UNITMODE
 70
0
  9
$VISRETAIN
 70
1
  9
$PLINEGEN
 70
0
  9
$PSLTSCALE
 70
1
  9
$TREEDEPTH
 70
3020
  9
$CMLSTYLE
  2
Standard
  9
$CMLJUST
 70
0
  9
$CMLSCALE
 40
20.0
  9
$PROXYGRAPHICS
 70
1
  9
$MEASUREMENT
 70
1
  9
$CELWEIGHT
370
-1
  9
$ENDCAPS
280
0
  9
$JOINSTYLE
280
0
  9
$LWDISPLAY
290
0
  9
$INSUNITS
 70
4
  9
$HYPERLINKBASE
  1

  9
$STYLESHEET
  1

  9
$XEDIT
290
1
  9
$CEPSNTYPE
380
0
  9
$PSTYLEMODE
290
1
  9
$FINGERPRINTGUID
  2
{CAFF4D9B-5D23-4F21-8884-8C3703C545AD}
  9
$VERSIONGUID
  2
{3432874A-9A55-4A2A-8913-5F8833994806}
  9
$EXTNAMES
290
1
  9
$PSVPSCALE
 40
0.0
  9
$OLESTARTUP
290
0
  9
$SORTENTS
280
127
  9
$INDEXCTL
280
0
  9
$HIDETEXT
280
1
  9
$XCLIPFRAME
280
0
  9
$HALOGAP
280
0
  9
$OBSCOLOR
 70
257
  9
$OBSLTYPE
280
0
  9
$INTERSECTIONDISPLAY
280
0
  9
$INTERSECTIONCOLOR
 70
257
  9
$DIMASSOC
280
2
  9
$PROJECTNAME
  1

  9
$CAMERADISPLAY
290
0
  9
$LENSLENGTH
 40
50.0
  9
$CAMERAHEIGHT
 40
0.0
  9
$STEPSPERSEC
 40
24.0
  9
$STEPSIZE
 40
100.0
  9
$3DDWFPREC
 40
2.0
  9
$PSOLWIDTH
 40
0.005
  9
$PSOLHEIGHT
 40
0.08
  9
$LOFTANG1
 40
1.570796326795
  9
$LOFTANG2
 40
1.570796326795
  9
$LOFTMAG1
 40
0.0
  9
$LOFTMAG2
 40
0.0
  9
$LOFTPARAM
 70
7
  9
$LOFTNORMALS
280
1
  9
$LATITUDE
 40
37.795
  9
$LONGITUDE
 40
-122.394
  9
$NORTHDIRECTION
 40
0.0
  9
$TIMEZONE
 70
-8000
  9
$LIGHTGLYPHDISPLAY
280
1
  9
$TILEMODELIGHTSYNCH
280
1
  9
$CMATERIAL
347
20
  9
$SOLIDHIST
280
0
  9
$SHOWHIST
280
1
  9
$DWFFRAME
280
2
  9
$DGNFRAME
280
2
  9
$REALWORLDSCALE
290
1
  9
$INTERFERECOLOR
 62
256
  9
$CSHADOW
280
0
  9
$SHADOWPLANELOCATION
 40
0.0
  0
ENDSEC
  0
SECTION
  2
CLASSES
  0
CLASS
  1
ACDBDICTIONARYWDFLT
  2
AcDbDictionaryWithDefault
  3
ObjectDBX Classes
 90
0
 91
0
280
0
281
0
  0
CLASS
  1
SUN
  2
AcDbSun
  3
SCENEOE
 90
1153
 91
0
280
0
281
0
  0
CLASS
  1
VISUALSTYLE
  2
AcDbVisualStyle
  3
ObjectDBX Classes
 90
4095
 91
0
280
0
281
0
  0
CLASS
  1
MATERIAL
  2
AcDbMaterial
  3
ObjectDBX Classes
 90
1153
 91
0
280
0
281
0
  0
CLASS
  1
SCALE
  2
AcDbScale
  3
ObjectDBX Classes
 90
1153
 91
0
280
0
281
0
  0
CLASS
  1
TABLESTYLE
  2
AcDbTableStyle
  3
ObjectDBX Classes
 90
4095
 91
0
280
0
281
0
  0
CLASS
  1
MLEADERSTYLE
  2
AcDbMLeaderStyle
  3
ACDB_MLEADERSTYLE_CLASS
 90
4095
 91
0
280
0
281
0
  0
CLASS
  1
DICTIONARYVAR
  2
AcDbDictionaryVar
  3
ObjectDBX Classes
 90
0
 91
0
280
0
281
0
  0
CLASS
  1
CELLSTYLEMAP
  2
AcDbCellStyleMap
  3
ObjectDBX Classes
 90
1152
 91
0
280
0
281
0
  0
CLASS
  1
MENTALRAYRENDERSETTINGS
  2
AcDbMentalRayRenderSettings
  3
SCENEOE
 90
1024
 91
0
280
0
281
0
  0
CLASS
  1
ACDBDETAILVIEWSTYLE
  2
AcDbDetailViewStyle
  3
ObjectDBX Classes
 90
1025
 91
0
280
0
281
0
  0
CLASS
  1
ACDBSECTIONVIEWSTYLE
  2
AcDbSectionViewStyle
  3
ObjectDBX Classes
 90
1025
 91
0
280
0
281
0
  0
CLASS
  1
RASTERVARIABLES
  2
AcDbRasterVariables
  3
ISM
 90
0
 91
0
280
0
281
0
  0
CLASS
  1
ACDBPLACEHOLDER
  2
AcDbPlaceHolder
  3
ObjectDBX Classes
 90
0
 91
0
280
0
281
0
  0
CLASS
  1
LAYOUT
  2
AcDbLayout
  3
ObjectDBX Classes
 90
0
 91
0
280
0
281
0
  0
ENDSEC
  0
SECTION
  2
TABLES
  0
TABLE
  2
VPORT
  5
8
330
0
100
AcDbSymbolTable
 70
1
  0
VPORT
  5
23
330
8
100
AcDbSymbolTableRecord
100
AcDbViewportTableRecord
  2
*Active
 70
0
 10
0.0
 20
0.0
 11
1.0
 21
1.0
 12
0.0
 22
0.0
 13
0.0
 23
0.0
 14
0.5
 24
0.5
 15
0.5
 25
0.5
 16
0.0
 26
0.0
 36
1.0
 17
0.0
 27
0.0
 37
0.0
 40
1000.0
 41
1.34
 42
50.0
 43
0.0
 44
0.0
 50
0.0
 51
0.0
 71
0
 72
1000
 73
1
 74
3
 75
0
 76
0
 77
0
 78
0
281
0
 65
0
146
0.0
  0
ENDTAB
  0
TABLE
  2
LTYPE
  5
2
330
0
100
AcDbSymbolTable
 70
3
  0
LTYPE
  5
24
330
2
100
AcDbSymbolTableRecord
100
AcDbLinetypeTableRecord
  2
ByBlock
 70
0
  3

 72
65
 73
0
 40
0.0
  0
LTYPE
  5
25
330
2
100
AcDbSymbolTableRecord
100
AcDbLinetypeTableRecord
  2
ByLayer
 70
0
  3

 72
65
 73
0
 40
0.0
  0
LTYPE
  5
26
330
2
100
AcDbSymbolTableRecord
100
AcDbLinetypeTableRecord
  2
Continuous
 70
0
  3

 72
65
 73
0
 40
0.0
  0
ENDTAB
  0
TABLE
  2
LAYER
  5
1
330
0
100
AcDbSymbolTable
 70
4
  0
LAYER
  5
27
330
1
100
AcDbSymbolTableRecord
100
AcDbLayerTableRecord
  2
0
 70
0
 62
7
  6
Continuous
370
-3
390
13
347
21
  0
LAYER
  5
28
330
1
100
AcDbSymbolTableRecord
100
AcDbLayerTableRecord
  2
Defpoints
 70
0
 62
7
  6
Continuous
290
0
370
-3
390
13
347
21
  0
LAYER
  5
2F
330
1
100
AcDbSymbolTableRecord
100
AcDbLayerTableRecord
  2
text
 70
0
 62
7
  6
Continuous
370
-3
390
13
347
21
  0
LAYER
  5
30
330
1
100
AcDbSymbolTableRecord
100
AcDbLayerTableRecord
  2
default
 70
0
 62
7
  6
Continuous
370
-3
390
13
347
21
  0
ENDTAB
  0
TABLE
  2
STYLE
  5
5
330
0
100
AcDbSymbolTable
 70
1
  0
STYLE
  5
29
330
5
100
AcDbSymbolTableRecord
100
AcDbTextStyleTableRecord
  2
Standard
 70
0
 40
0.0
 41
1.0
 50
0.0
 71
0
 42
2.5
  3
txt
  4

  0
ENDTAB
  0
TABLE
  2
VIEW
  5
7
330
0
100
AcDbSymbolTable
 70
0
  0
ENDTAB
  0
TABLE
  2
UCS
  5
6
330
0
100
AcDbSymbolTable
 70
0
  0
ENDTAB
  0
TABLE
  2
APPID
  5
3
330
0
100
AcDbSymbolTable
 70
3
  0
APPID
  5
2A
330
3
100
AcDbSymbolTableRecord
100
AcDbRegAppTableRecord
  2
ACAD
 70
0
  0
APPID
  5
62
330
3
100
AcDbSymbolTableRecord
100
AcDbRegAppTableRecord
  2
HATCHBACKGROUNDCOLOR
 70
0
  0
APPID
  5
63
330
3
100
AcDbSymbolTableRecord
100
AcDbRegAppTableRecord
  2
EZDXF
 70
0
  0
ENDTAB
  0
TABLE
  2
DIMSTYLE
  5
4
330
0
100
AcDbSymbolTable
 70
1
100
AcDbDimStyleTable
  0
DIMSTYLE
105
2B
330
4
100
AcDbSymbolTableRecord
100
AcDbDimStyleTableRecord
  2
Standard
 70
0
 40
1.0
 41
2.5
 42
0.625
 43
3.75
 44
1.25
 45
0.0
 46
0.0
 47
0.0
 48
0.0
 49
2.5
140
2.5
141
2.5
142
0.0
143
0.03937007874
144
1.0
145
0.0
146
1.0
147
0.625
148
0.0
 69
0
 70
0
 71
0
 72
0
 73
0
 74
0
 75
0
 76
0
 77
1
 78
8
 79
3
170
0
171
3
172
1
173
0
174
0
175
0
176
0
177
0
178
0
179
2
271
2
272
2
273
2
274
3
275
0
276
0
277
2
278
44
279
0
280
0
281
0
282
0
283
0
284
8
285
0
286
0
288
0
289
3
290
0
371
-2
372
-2
  0
ENDTAB
  0
TABLE
  2
BLOCK_RECORD
  5
9
330
0
100
AcDbSymbolTable
 70
2
  0
BLOCK_RECORD
  5
17
330
9
100
AcDbSymbolTableRecord
100
AcDbBlockTableRecord
  2
*Model_Space
340
1A
 70
0
280
1
281
0
  0
BLOCK_RECORD
  5
1B
330
9
100
AcDbSymbolTableRecord
100
AcDbBlockTableRecord
  2
*Paper_Space
340
1E
 70
0
280
1
281
0
  0
ENDTAB
  0
ENDSEC
  0
SECTION
  2
BLOCKS
  0
BLOCK
  5
18
330
17
100
AcDbEntity
  8
0
100
AcDbBlockBegin
  2
*Model_Space
 70
0
 10
0.0
 20
0.0
 30
0.0
  3
*Model_Space
  1

  0
ENDBLK
  5
19
330
17
100
AcDbEntity
  8
0
100
AcDbBlockEnd
  0
BLOCK
  5
1C
330
1B
100
AcDbEntity
  8
0
100
AcDbBlockBegin
  2
*Paper_Space
 70
0
 10
0.0
 20
0.0
 30
0.0
  3
*Paper_Space
  1

  0
ENDBLK
  5
1D
330
1B
100
AcDbEntity
  8
0
100
AcDbBlockEnd
  0
ENDSEC
  0
SECTION
  2
ENTITIES
  0
LWPOLYLINE
  5
31
330
17
100
AcDbEntity
  8
0
 62
1
100
AcDbPolyline
 90
61
 70
0
 10
39.81584793468715
 20
-3.8338301008089792
 10
47.552825814757675
 20
-15.450849718747383
 10
38.54521812834492
 20
-10.689535043130284
 10
36.682402975404955
 20
-15.949962757009866
 10
40.450849718747364
 20
-29.389262614623668
 10
33.35543288268672
 20
-22.077479412482333
 10
29.958228831560074
 20
-26.50480192862951
 10
29.389262614623647
 20
-40.45084971874738
 10
24.900585465504772
 20
-31.30432627409656
 10
20.30153451842815
 20
-34.46516641766104
 10
15.450849718747362
 20
-47.55282581475768
 10
14.008295250378689
 20
-37.466887569935906
 10
8.657584557524098
 20
-39.051840284797336
 10
-9.184850993605149e-15
 20
-50.0
 10
1.7447754946134306
 20
-39.96192886327431
 10
-3.8338301008089766
 20
-39.81584793468715
 10
-15.450849718747378
 20
-47.552825814757675
 10
-10.689535043130283
 20
-38.54521812834492
 10
-15.949962757009864
 20
-36.682402975404955
 10
-29.38926261462366
 20
-40.450849718747364
 10
-22.077479412482333
 20
-33.35543288268673
 10
-26.504801928629497
 20
-29.95822883156009
 10
-40.45084971874737
 20
-29.38926261462365
 10
-31.30432627409656
 20
-24.900585465504776
 10
-34.46516641766103
 20
-20.30153451842817
 10
-47.55282581475768
 20
-15.450849718747364
 10
-37.466887569935906
 20
-14.00829525037869
 10
-39.051840284797336
 20
-8.657584557524117
 10
-50.0
 20
6.123233995736766e-15
 10
-39.96192886327431
 20
-1.744775494613433
 10
-39.815847934687156
 20
3.8338301008089566
 10
-47.552825814757675
 20
15.450849718747376
 10
-38.54521812834492
 20
10.689535043130281
 10
-36.68240297540496
 20
15.949962757009846
 10
-40.450849718747364
 20
29.38926261462366
 10
-33.35543288268673
 20
22.07747941248233
 10
-29.95822883156009
 20
26.504801928629497
 10
-29.38926261462365
 20
40.45084971874737
 10
-24.900585465504776
 20
31.30432627409656
 10
-20.301534518428173
 20
34.46516641766103
 10
-15.450849718747367
 20
47.55282581475768
 10
-14.008295250378692
 20
37.466887569935906
 10
-8.657584557524112
 20
39.051840284797336
 10
3.061616997868383e-15
 20
50.0
 10
-1.7447754946134355
 20
39.96192886327431
 10
3.833830100808963
 20
39.81584793468715
 10
15.450849718747373
 20
47.552825814757675
 10
10.689535043130277
 20
38.54521812834492
 10
15.94996275700985
 20
36.68240297540496
 10
29.389262614623657
 20
40.45084971874737
 10
22.07747941248233
 20
33.35543288268673
 10
26.5048019286295
 20
29.958228831560085
 10
40.45084971874737
 20
29.389262614623657
 10
31.304326274096557
 20
24.900585465504783
 10
34.46516641766103
 20
20.301534518428163
 10
47.552825814757675
 20
15.450849718747369
 10
37.466887569935906
 20
14.008295250378698
 10
39.051840284797336
 20
8.657584557524116
 10
50.0
 20
0.0
 10
39.96192886327431
 20
1.74477549461344
 10
39.81584793468715
 20
-3.8338301008089792
  0
LWPOLYLINE
  5
32
330
17
100
AcDbEntity
  8
0
 62
1
100
AcDbPolyline
 90
13
 70
0
 10
-6.828161270564487
 20
-34.32748481411306
 10
-3.4305999115346224
 20
-34.831465433526894
 10
2.1431318985078682e-15
 20
-35.0
 10
3.430599911534627
 20
-34.83146543352689
 10
6.828161270564491
 20
-34.32748481411306
 10
8.883473440698808
 20
-33.812655916371924
 10
2.688677770929007
 20
-14.747035267356848
 10
1.4702571049434114
 20
-14.927770900082953
 10
9.18485099360515e-16
 20
-15.0
 10
-1.4702571049434097
 20
-14.927770900082955
 10
-2.6886777709290115
 20
-14.747035267356848
 10
-8.883473440698818
 20
-33.812655916371924
 10
-6.828161270564487
 20
-34.32748481411306
  0
LWPOLYLINE
  5
33
330
17
100
AcDbEntity
  8
0
 62
1
100
AcDbPolyline
 90
15
 70
0
 10
-27.055365867695794
 20
-22.203764945727592
 10
-24.74873734152916
 20
-24.748737341529164
 10
-22.20376494572759
 20
-27.055365867695798
 10
-19.44495815568607
 20
-29.101436430589086
 10
-16.49888578890992
 20
-30.867244252192428
 10
-13.39392013277814
 20
-32.335783637895034
 10
-12.691159123693174
 20
-32.5872355476624
 10
-6.4904388348598845
 20
-13.503380796091614
 10
-7.070951052389965
 20
-13.228818965225326
 10
-8.33355349529403
 20
-12.47204418453818
 10
-9.515899262454681
 20
-11.595156800441057
 10
-10.606601717798211
 20
-10.606601717798213
 10
-10.840671870952802
 20
-10.348345101398229
 10
-27.091394382609895
 20
-22.155186116931198
 10
-27.055365867695794
 20
-22.203764945727592
  0
LWPOLYLINE
  5
34
330
17
100
AcDbEntity
  8
0
 62
1
100
AcDbPolyline
 90
14
 70
0
 10
-14.849190964603311
 20
-1.9999999999999982
 10
-34.90174630046106
 20
-1.9999999999999958
 10
-34.83146543352689
 20
-3.430599911534629
 10
-34.32748481411306
 20
-6.828161270564501
 10
-33.49291175062731
 20
-10.159963703906184
 10
-32.335783637895034
 20
-13.393920132778145
 10
-30.86724425219242
 20
-16.498885788909924
 10
-29.424476823166323
 20
-18.90599782133883
 10
-13.200337033838917
 20
-7.118470284088533
 10
-13.228818965225324
 20
-7.070951052389967
 10
-13.858192987669302
 20
-5.740251485476349
 10
-14.354105035983132
 20
-4.354270158816936
 10
-14.711779206048456
 20
-2.9263548302419293
 10
-14.849190964603311
 20
-1.9999999999999982
  0
LWPOLYLINE
  5
35
330
17
100
AcDbEntity
  8
0
 62
1
100
AcDbPolyline
 90
65
 70
0
 10
10.421080256123755
 20
-3.161200135301095
 10
10.68075170359118
 20
-2.124533606755637
 10
10.837561673460225
 20
-1.067406658188915
 10
10.89
 20
0.0
 10
10.837561673460225
 20
1.067406658188914
 10
10.680751703591179
 20
2.1245336067556417
 10
10.421080256123755
 20
3.1612001353010966
 10
10.06104810904791
 20
4.1674225784558345
 10
9.604122568753585
 20
5.133510464035117
 10
9.054704077974717
 20
6.050159837583468
 10
8.418083837120202
 20
6.908542864542104
 10
7.700392847121501
 20
7.700392847121504
 10
6.908542864542101
 20
8.418083837120205
 10
6.050159837583465
 20
9.054704077974721
 10
5.133510464035114
 20
9.604122568753587
 10
4.16742257845583
 20
10.061048109047912
 10
3.161200135301092
 20
10.421080256123755
 10
2.1245336067556373
 20
10.68075170359118
 10
1.0674066581889095
 20
10.837561673460225
 10
-2.0004605464072013e-15
 20
10.89
 10
-1.0674066581889134
 20
10.837561673460225
 10
-2.1245336067556413
 20
10.680751703591179
 10
-3.161200135301096
 20
10.421080256123755
 10
-4.167422578455834
 20
10.06104810904791
 10
-5.133510464035117
 20
9.604122568753585
 10
-6.050159837583468
 20
9.054704077974717
 10
-6.908542864542104
 20
8.418083837120202
 10
-7.700392847121504
 20
7.700392847121503
 10
-8.418083837120207
 20
6.908542864542097
 10
-9.054704077974721
 20
6.0501598375834655
 10
-9.604122568753587
 20
5.133510464035115
 10
-10.061048109047915
 20
4.1674225784558265
 10
-10.421080256123755
 20
3.1612001353010926
 10
-10.68075170359118
 20
2.1245336067556377
 10
-10.837561673460225
 20
1.0674066581889148
 10
-10.89
 20
-1.3336403642714677e-15
 10
-10.837561673460224
 20
-1.0674066581889174
 10
-10.68075170359118
 20
-2.124533606755641
 10
-10.421080256123755
 20
-3.1612001353010957
 10
-10.061048109047913
 20
-4.167422578455829
 10
-9.604122568753585
 20
-5.133510464035116
 10
-9.05470407797472
 20
-6.050159837583468
 10
-8.418083837120207
 20
-6.9085428645421
 10
-7.700392847121503
 20
-7.7003928471215035
 10
-6.908542864542098
 20
-8.418083837120207
 10
-6.0501598375834655
 20
-9.05470407797472
 10
-5.1335104640351155
 20
-9.604122568753587
 10
-4.167422578455827
 20
-10.061048109047913
 10
-3.161200135301093
 20
-10.421080256123755
 10
-2.124533606755636
 20
-10.68075170359118
 10
-1.0674066581889154
 20
-10.837561673460225
 10
6.668201821357338e-16
 20
-10.89
 10
1.0674066581889168
 20
-10.837561673460224
 10
2.1245336067556377
 20
-10.68075170359118
 10
3.161200135301095
 20
-10.421080256123755
 10
4.167422578455828
 20
-10.061048109047913
 10
5.133510464035116
 20
-9.604122568753585
 10
6.050159837583469
 20
-9.054704077974717
 10
6.9085428645421
 20
-8.418083837120205
 10
7.7003928471215035
 20
-7.7003928471215035
 10
8.418083837120207
 20
-6.9085428645421
 10
9.054704077974717
 20
-6.050159837583468
 10
9.604122568753587
 20
-5.133510464035115
 10
10.061048109047913
 20
-4.167422578455828
 10
10.421080256123755
 20
-3.161200135301095
  0
LWPOLYLINE
  5
36
330
17
100
AcDbEntity
  8
0
 62
1
100
AcDbPolyline
 90
14
 70
0
 10
-13.858192987669304
 20
5.740251485476345
 10
-13.228818965225326
 20
7.070951052389964
 10
-13.200337033838915
 20
7.118470284088536
 10
-29.42447682316632
 20
18.905997821338836
 10
-30.867244252192428
 20
16.498885788909917
 10
-32.33578363789504
 20
13.393920132778138
 10
-33.492911750627314
 20
10.159963703906174
 10
-34.32748481411306
 20
6.828161270564492
 10
-34.831465433526894
 20
3.4305999115346206
 10
-34.90174630046107
 20
2.0000000000000044
 10
-14.849190964603311
 20
2.0000000000000018
 10
-14.711779206048456
 20
2.9263548302419253
 10
-14.354105035983133
 20
4.354270158816932
 10
-13.858192987669304
 20
5.740251485476345
  0
LWPOLYLINE
  5
37
330
17
100
AcDbEntity
  8
0
 62
1
100
AcDbPolyline
 90
15
 70
0
 10
-7.070951052389968
 20
13.228818965225324
 10
-6.490438834859881
 20
13.503380796091616
 10
-12.691159123693167
 20
32.58723554766241
 10
-13.393920132778161
 20
32.33578363789503
 10
-16.498885788909924
 20
30.86724425219242
 10
-19.444958155686077
 20
29.101436430589082
 10
-22.203764945727606
 20
27.055365867695784
 10
-24.748737341529168
 20
24.74873734152916
 10
-27.055365867695798
 20
22.203764945727585
 10
-27.091394382609888
 20
22.15518611693121
 10
-10.840671870952798
 20
10.348345101398234
 10
-10.606601717798215
 20
10.606601717798211
 10
-9.515899262454688
 20
11.59515680044105
 10
-8.333553495294034
 20
12.472044184538179
 10
-7.070951052389968
 20
13.228818965225324
  0
LWPOLYLINE
  5
38
330
17
100
AcDbEntity
  8
0
 62
1
100
AcDbPolyline
 90
15
 70
0
 10
6.490438834859879
 20
-13.503380796091616
 10
12.691159123693163
 20
-32.58723554766241
 10
13.393920132778144
 20
-32.335783637895034
 10
16.498885788909924
 20
-30.86724425219242
 10
19.44495815568608
 20
-29.101436430589082
 10
22.203764945727592
 20
-27.05536586769579
 10
24.748737341529164
 20
-24.748737341529164
 10
27.055365867695794
 20
-22.203764945727592
 10
27.091394382609888
 20
-22.15518611693121
 10
10.840671870952798
 20
-10.348345101398234
 10
10.606601717798213
 20
-10.606601717798213
 10
9.515899262454683
 20
-11.595156800441053
 10
8.333553495294034
 20
-12.472044184538179
 10
7.070951052389967
 20
-13.228818965225324
 10
6.490438834859879
 20
-13.503380796091616
  0
LWPOLYLINE
  5
39
330
17
100
AcDbEntity
  8
0
 62
1
100
AcDbPolyline
 90
14
 70
0
 10
32.335783637895034
 20
-13.393920132778142
 10
33.49291175062731
 20
-10.15996370390618
 10
34.32748481411306
 20
-6.828161270564489
 10
34.831465433526894
 20
-3.430599911534621
 10
34.90174630046107
 20
-2.0
 10
14.849190964603311
 20
-2.0
 10
14.711779206048456
 20
-2.9263548302419236
 10
14.354105035983132
 20
-4.354270158816935
 10
13.858192987669302
 20
-5.740251485476347
 10
13.228818965225326
 20
-7.070951052389964
 10
13.200337033838915
 20
-7.118470284088537
 10
29.424476823166316
 20
-18.90599782133884
 10
30.867244252192428
 20
-16.498885788909917
 10
32.335783637895034
 20
-13.393920132778142
  0
LWPOLYLINE
  5
3A
330
17
100
AcDbEntity
  8
0
 62
1
100
AcDbPolyline
 90
14
 70
0
 10
34.32748481411306
 20
6.828161270564506
 10
33.49291175062731
 20
10.159963703906188
 10
32.33578363789503
 20
13.393920132778163
 10
30.867244252192418
 20
16.498885788909927
 10
29.42447682316632
 20
18.90599782133883
 10
13.200337033838915
 20
7.118470284088533
 10
13.228818965225322
 20
7.070951052389969
 10
13.858192987669298
 20
5.740251485476356
 10
14.354105035983132
 20
4.354270158816938
 10
14.711779206048455
 20
2.9263548302419307
 10
14.849190964603311
 20
2.0
 10
34.90174630046107
 20
2.0
 10
34.831465433526894
 20
3.4305999115346175
 10
34.32748481411306
 20
6.828161270564506
  0
LWPOLYLINE
  5
3B
330
17
100
AcDbEntity
  8
0
 62
1
100
AcDbPolyline
 90
15
 70
0
 10
19.444958155686063
 20
29.10143643058909
 10
16.498885788909917
 20
30.867244252192428
 10
13.39392013277815
 20
32.335783637895034
 10
12.691159123693172
 20
32.58723554766241
 10
6.490438834859883
 20
13.503380796091614
 10
7.0709510523899635
 20
13.228818965225326
 10
8.333553495294028
 20
12.472044184538182
 10
9.515899262454685
 20
11.595156800441053
 10
10.60660171779821
 20
10.606601717798215
 10
10.840671870952798
 20
10.348345101398232
 10
27.091394382609888
 20
22.1551861169312
 10
27.05536586769578
 20
22.203764945727606
 10
24.748737341529157
 20
24.748737341529168
 10
22.203764945727595
 20
27.05536586769579
 10
19.444958155686063
 20
29.10143643058909
  0
LWPOLYLINE
  5
3C
330
17
100
AcDbEntity
  8
0
 62
1
100
AcDbPolyline
 90
13
 70
0
 10
-6.429395695523604e-15
 20
35.0
 10
-3.4305999115346157
 20
34.831465433526894
 10
-6.828161270564503
 20
34.32748481411306
 10
-8.883473440698811
 20
33.812655916371924
 10
-2.688677770929007
 20
14.747035267356848
 10
-1.4702571049434068
 20
14.927770900082955
 10
-2.7554552980815444e-15
 20
15.0
 10
1.4702571049434014
 20
14.927770900082955
 10
2.6886777709290097
 20
14.747035267356848
 10
8.883473440698817
 20
33.812655916371924
 10
6.8281612705644905
 20
34.32748481411306
 10
3.4305999115346033
 20
34.831465433526894
 10
-6.429395695523604e-15
 20
35.0
  0
LWPOLYLINE
  5
3D
330
17
100
AcDbEntity
  8
0
 62
1
100
AcDbPolyline
 90
156
 70
0
 10
80.9753796224999
 20
78.75168300278268
 10
81.0489403353956
 20
78.68859861059111
 10
81.11604955977285
 20
78.61869030619606
 10
81.1760770850509
 20
78.5426145858321
 10
81.22845920360372
 20
78.461085862821
 10
81.27270400443606
 20
78.37486975864543
 10
81.30839599263075
 20
78.28477591313634
 10
81.33519999118619
 20
78.19165038129172
 10
81.35286428860292
 20
78.09636768812723
 10
81.36122300266081
 20
77.99982261617012
 10
81.36019763818888
 20
77.90292180271841
 10
81.34979782419933
 20
77.8065752257741
 10
81.33012122346318
 20
77.71168765860445
 10
81.30135261537686
 20
77.61915017318
 10
81.26376216073237
 20
77.52983177227892
 10
81.21770286468615
 20
77.44457122883925
 10
81.16360726175154
 20
77.36416920919393
 10
81.10198335394549
 20
77.2893807541583
 10
81.0334098402335
 20
77.22090818857838
 10
80.9585306820724
 20
77.15939452592536
 10
67.11485901017201
 20
66.86840537171469
 10
67.03268269233133
 20
66.81340940156335
 10
66.94547669361248
 20
66.76679805386576
 10
66.85409367101207
 20
66.72902707125802
 10
66.75942712239427
 20
66.70046575967163
 10
66.66240265031183
 20
66.68139337744336
 10
66.56396891192344
 20
66.67199640486571
 10
66.4650883434947
 20
66.67236672087515
 10
66.36672775017365
 20
66.68250070470546
 10
66.26984885304972
 20
66.70229927128969
 10
66.1753988859219
 20
66.73156884006497
 10
66.08430133371651
 20
66.77002322770707
 10
65.99744690310982
 20
66.81728644628905
 10
65.91568481363987
 20
66.87289637950465
 10
65.83981449445912
 20
66.93630930101244
 10
65.77057776791284
 20
67.00690519072207
 10
65.70865159636806
 20
67.08399379704328
 10
65.65464146321148
 20
67.16682138582351
 10
65.60907545273321
 20
67.2545781099866
 10
65.57239908678052
 20
67.34640592781562
 10
65.54497096866629
 20
67.4414069924594
 10
65.52705927692361
 20
67.53865243063342
 10
65.5188391431892
 20
67.6371914246821
 10
65.52039093985307
 20
67.73606050920226
 10
65.53169949421725
 20
67.83429299132976
 10
65.55265423684679
 20
67.93092840258294
 10
65.58305028266292
 20
68.02502188984684
 10
65.62259043420772
 20
68.11565345367839
 10
65.67088808749342
 20
68.20193694360455
 10
71.53221765103476
 20
77.55582907072466
 10
43.512168825540904
 20
91.3869142715245
 10
43.28150597829104
 20
91.17785365292168
 10
42.17798326227443
 20
90.35942542776436
 10
40.99955431556397
 20
89.65310229912303
 10
39.75756805311126
 20
89.06568654484198
 10
38.463985481562474
 20
88.60283529974907
 10
37.1312645082258
 20
88.26900607435478
 10
35.77223996461385
 20
88.06741382658925
 10
34.4
 20
88.0
 10
33.02776003538615
 20
88.06741382658925
 10
31.668735491774203
 20
88.26900607435478
 10
30.33601451843753
 20
88.60283529974907
 10
29.04243194688874
 20
89.06568654484198
 10
27.80044568443603
 20
89.65310229912303
 10
26.622016737725573
 20
90.35942542776436
 10
25.54685693889841
 20
91.15681827989425
 10
-6.703689291153346
 20
73.99744131475968
 10
-1.4717047181553653
 20
63.292924995494154
 10
-1.4333059009815727
 20
63.20359731917984
 10
-1.4037637588008565
 20
63.110962742744064
 10
-1.3833575801573232
 20
63.01589702447912
 10
-1.372280283082759
 20
62.919298906456135
 10
-1.370636591268287
 20
62.822081617904765
 10
-1.3784420440167295
 20
62.72516424163274
 10
-1.395622849335595
 20
62.62946302510622
 10
-1.422016581559383
 20
62.53588271833519
 10
-1.457373716906048
 20
62.44530802045472
 10
-1.501359992450645
 20
62.35859521586522
 10
-1.553559566214524
 20
62.27656407900287
 10
-1.6134789484950645
 20
62.19999012427164
 10
-1.6805516672694054
 20
62.129597274405484
 10
-1.7541436235659233
 20
62.066051016573006
 10
-1.8335590861743967
 20
62.00995211092643
 10
-1.9180472690212937
 20
61.96183091107345
 10
-2.006809429028415
 20
61.922142350165664
 10
-2.0990064173524416
 20
61.89126164000478
 10
-2.1937666126166064
 20
61.86948072382664
 10
-2.290194161134565
 20
61.857005516298216
 10
-2.387377446224207
 20
61.853953956820334
 10
-2.48439770654322
 20
61.860354894540045
 10
-2.580337721969663
 20
61.87614781561358
 10
-2.6742904849119356
 20
61.901183415298334
 10
-2.765367775070473
 20
61.93522500946545
 10
-2.8527085565862578
 20
61.977950772188564
 10
-2.935487118190238
 20
62.02895677825488
 10
-3.012920879397477
 20
62.08776082183491
 10
-16.035676412420102
 20
73.01515018650608
 10
-16.107291538851747
 20
73.08145987228707
 10
-16.172101478595437
 20
73.15443502197937
 10
-16.229488871558758
 20
73.23338049614392
 10
-16.278907062608816
 20
73.31754428381733
 10
-16.319885308845464
 20
73.40612466594318
 10
-16.352033263757292
 20
73.49827785230795
 10
-16.375044695545697
 20
73.59312601923405
 10
-16.388700404197344
 20
73.6897656714655
 10
-16.39287030951793
 20
73.78727624859337
 10
-16.387514690237154
 20
73.8847288940388
 10
-16.372684562381693
 20
73.98119530306279
 10
-16.34852119331176
 20
74.07575656551938
 10
-16.315254756050514
 20
74.16751191911871
 10
-16.27320213672474
 20
74.25558732981905
 10
-16.222763916002393
 20
74.33914381761359
 10
-16.164420553281055
 20
74.41738544840283
 10
-16.098727809975472
 20
74.48956691582474
 10
-16.02631145550062
 20
74.55500064082008
 10
-15.947861306379515
 20
74.6130633213048
 10
20.717749168768748
 20
99.07414215096018
 10
20.669006074354773
 20
99.2687354917742
 10
20.467413826589244
 20
100.62776003538615
 10
20.4
 20
102.0
 10
20.467413826589244
 20
103.37223996461385
 10
20.669006074354773
 20
104.73126450822579
 10
21.002835299749073
 20
106.06398548156247
 10
21.465686544841983
 20
107.35756805311125
 10
22.053102299123026
 20
108.59955431556396
 10
22.759425427764363
 20
109.77798326227443
 10
23.57785365292168
 20
110.88150597829103
 10
24.50050506338833
 20
111.89949493661166
 10
25.518494021708953
 20
112.82214634707832
 10
26.622016737725566
 20
113.64057457223564
 10
27.800445684436028
 20
114.34689770087697
 10
29.042431946888733
 20
114.93431345515802
 10
30.336014518437523
 20
115.39716470025093
 10
31.668735491774196
 20
115.73099392564522
 10
33.02776003538615
 20
115.93258617341075
 10
34.4
 20
116.0
 10
35.77223996461384
 20
115.93258617341075
 10
37.1312645082258
 20
115.73099392564522
 10
38.46398548156247
 20
115.39716470025093
 10
39.75756805311126
 20
114.93431345515802
 10
40.99955431556396
 20
114.34689770087697
 10
42.177983262274424
 20
113.64057457223564
 10
43.28150597829104
 20
112.82214634707832
 10
44.299494936611666
 20
111.89949493661166
 10
45.22214634707831
 20
110.88150597829105
 10
46.040574572235634
 20
109.77798326227443
 10
46.746897700876964
 20
108.59955431556398
 10
47.33431345515801
 20
107.35756805311127
 10
47.797164700250924
 20
106.06398548156247
 10
48.13099392564522
 20
104.7312645082258
 10
48.33258617341075
 20
103.37223996461384
 10
48.4
 20
102.0
 10
48.33258617341075
 20
100.62776003538615
 10
48.16342035757573
 20
99.48733673931113
 10
80.89605821642752
 20
78.80735106866075
 10
80.9753796224999
 20
78.75168300278268
  0
LWPOLYLINE
  5
3E
330
17
100
AcDbEntity
  8
0
 62
1
100
AcDbPolyline
 90
65
 70
0
 10
45.23756167346022
 20
103.06740665818892
 10
45.080751703591176
 20
104.12453360675565
 10
44.82108025612375
 20
105.1612001353011
 10
44.46104810904791
 20
106.16742257845584
 10
44.00412256875359
 20
107.13351046403511
 10
43.45470407797472
 20
108.05015983758346
 10
42.8180838371202
 20
108.9085428645421
 10
42.1003928471215
 20
109.7003928471215
 10
41.3085428645421
 20
110.41808383712021
 10
40.45015983758346
 20
111.05470407797472
 10
39.53351046403511
 20
111.60412256875358
 10
38.567422578455826
 20
112.06104810904792
 10
37.56120013530109
 20
112.42108025612376
 10
36.52453360675564
 20
112.68075170359118
 10
35.46740665818891
 20
112.83756167346023
 10
34.4
 20
112.89
 10
33.332593341811084
 20
112.83756167346023
 10
32.27546639324436
 20
112.68075170359118
 10
31.2387998646989
 20
112.42108025612376
 10
30.232577421544164
 20
112.0610481090479
 10
29.26648953596488
 20
111.60412256875358
 10
28.34984016241653
 20
111.05470407797472
 10
27.491457135457892
 20
110.41808383712021
 10
26.699607152878492
 20
109.7003928471215
 10
25.98191616287979
 20
108.9085428645421
 10
25.34529592202528
 20
108.05015983758346
 10
24.79587743124641
 20
107.13351046403511
 10
24.33895189095208
 20
106.16742257845583
 10
23.978919743876244
 20
105.16120013530109
 10
23.719248296408818
 20
104.12453360675563
 10
23.562438326539773
 20
103.06740665818892
 10
23.509999999999998
 20
102.0
 10
23.562438326539777
 20
100.93259334181108
 10
23.719248296408818
 20
99.87546639324435
 10
23.978919743876244
 20
98.8387998646989
 10
24.338951890952085
 20
97.83257742154417
 10
24.795877431246414
 20
96.86648953596489
 10
25.34529592202528
 20
95.94984016241654
 10
25.98191616287979
 20
95.0914571354579
 10
26.699607152878496
 20
94.2996071528785
 10
27.4914571354579
 20
93.58191616287979
 10
28.349840162416534
 20
92.94529592202528
 10
29.266489535964883
 20
92.39587743124642
 10
30.23257742154417
 20
91.93895189095208
 10
31.238799864698905
 20
91.57891974387624
 10
32.275466393244365
 20
91.31924829640882
 10
33.332593341811084
 20
91.16243832653977
 10
34.4
 20
91.11
 10
35.467406658188914
 20
91.16243832653977
 10
36.52453360675564
 20
91.31924829640882
 10
37.56120013530109
 20
91.57891974387624
 10
38.567422578455826
 20
91.93895189095208
 10
39.53351046403512
 20
92.39587743124642
 10
40.45015983758347
 20
92.94529592202528
 10
41.3085428645421
 20
93.58191616287979
 10
42.100392847121505
 20
94.2996071528785
 10
42.818083837120206
 20
95.0914571354579
 10
43.45470407797472
 20
95.94984016241654
 10
44.00412256875359
 20
96.86648953596489
 10
44.46104810904791
 20
97.83257742154417
 10
44.82108025612375
 20
98.8387998646989
 10
45.080751703591176
 20
99.87546639324437
 10
45.23756167346022
 20
100.93259334181108
 10
45.29
 20
102.0
 10
45.23756167346022
 20
103.06740665818892
  0
LWPOLYLINE
  5
3F
330
17
100
AcDbEntity
  8
0
 62
1
100
AcDbPolyline
 90
67
 70
0
 10
14.78429439193539
 20
232.04880644032255
 10
15.261193285355823
 20
233.95269354508923
 10
15.922409349774263
 20
235.8006686473018
 10
16.7615747130329
 20
237.57493473651994
 10
17.770607753949093
 20
239.25840466039205
 10
18.93979093274526
 20
240.8348656832729
 10
20.257864376269048
 20
242.28913562373094
 10
21.71213431672709
 20
243.60720906725473
 10
23.28859533960796
 20
244.7763922460509
 10
24.972065263480044
 20
245.7854252869671
 10
26.746331352698206
 20
246.62459065022574
 10
28.594306454910758
 20
247.28580671464417
 10
30.498193559677436
 20
247.7627056080646
 10
32.439657193408785
 20
248.05069453344393
 10
34.4
 20
248.147
 10
36.36034280659121
 20
248.05069453344393
 10
38.301806440322565
 20
247.7627056080646
 10
40.20569354508925
 20
247.28580671464417
 10
42.0536686473018
 20
246.62459065022574
 10
43.82793473651996
 20
245.7854252869671
 10
45.51140466039204
 20
244.7763922460509
 10
47.08786568327291
 20
243.60720906725473
 10
48.54213562373095
 20
242.28913562373094
 10
49.860209067254736
 20
240.83486568327288
 10
51.029392246050904
 20
239.25840466039205
 10
52.0384252869671
 20
237.57493473651994
 10
52.877590650225734
 20
235.8006686473018
 10
53.53880671464418
 20
233.95269354508923
 10
54.01570560806461
 20
232.04880644032255
 10
54.30369453344394
 20
230.1073428065912
 10
54.4
 20
228.147
 10
54.4
 20
158.147
 10
54.30369453344394
 20
156.1866571934088
 10
54.01570560806461
 20
154.24519355967743
 10
53.538806714644174
 20
152.34130645491075
 10
52.877590650225734
 20
150.4933313526982
 10
52.0384252869671
 20
148.71906526348005
 10
51.029392246050904
 20
147.03559533960794
 10
49.860209067254736
 20
145.45913431672707
 10
48.54213562373095
 20
144.00486437626904
 10
47.08786568327291
 20
142.68679093274525
 10
45.511404660392046
 20
141.51760775394908
 10
43.82793473651996
 20
140.50857471303289
 10
42.0536686473018
 20
139.66940934977424
 10
40.20569354508925
 20
139.00819328535582
 10
38.301806440322565
 20
138.53129439193538
 10
36.36034280659121
 20
138.24330546655605
 10
34.4
 20
138.147
 10
32.439657193408785
 20
138.24330546655605
 10
30.498193559677436
 20
138.53129439193538
 10
28.594306454910758
 20
139.00819328535582
 10
26.746331352698206
 20
139.66940934977424
 10
24.972065263480044
 20
140.50857471303289
 10
23.28859533960796
 20
141.51760775394908
 10
21.71213431672709
 20
142.68679093274525
 10
20.257864376269048
 20
144.00486437626904
 10
18.93979093274526
 20
145.45913431672707
 10
17.770607753949093
 20
147.03559533960794
 10
16.7615747130329
 20
148.71906526348005
 10
15.922409349774263
 20
150.4933313526982
 10
15.261193285355823
 20
152.34130645491075
 10
14.78429439193539
 20
154.24519355967743
 10
14.496305466556063
 20
156.18665719340876
 10
14.399999999999999
 20
158.147
 10
14.399999999999999
 20
228.147
 10
14.496305466556063
 20
230.1073428065912
 10
14.78429439193539
 20
232.04880644032255
  0
LWPOLYLINE
  5
40
330
17
100
AcDbEntity
  8
0
 62
1
100
AcDbPolyline
 90
65
 70
0
 10
36.11637424070565
 20
158.48840806352823
 10
36.074645587531364
 20
158.6549981851953
 10
36.01678918189475
 20
158.8166960066389
 10
35.94336221260962
 20
158.97194428944547
 10
35.85507182152945
 20
159.11924790778428
 10
35.75276829338479
 20
159.25718824728636
 10
35.63743686707646
 20
159.38443686707646
 10
35.51018824728638
 20
159.4997682933848
 10
35.3722479077843
 20
159.60207182152945
 10
35.224944289445496
 20
159.6903622126096
 10
35.06969600663891
 20
159.76378918189474
 10
34.90799818519531
 20
159.82164558753135
 10
34.741408063528226
 20
159.86337424070564
 10
34.57152999557673
 20
159.88857327167634
 10
34.4
 20
159.897
 10
34.228470004423265
 20
159.88857327167634
 10
34.05859193647177
 20
159.86337424070564
 10
33.892001814804686
 20
159.82164558753135
 10
33.73030399336109
 20
159.76378918189474
 10
33.5750557105545
 20
159.6903622126096
 10
33.4277520922157
 20
159.60207182152945
 10
33.28981175271362
 20
159.4997682933848
 10
33.16256313292354
 20
159.38443686707646
 10
33.04723170661521
 20
159.25718824728636
 10
32.94492817847055
 20
159.11924790778428
 10
32.856637787390376
 20
158.97194428944547
 10
32.783210818105246
 20
158.8166960066389
 10
32.72535441246863
 20
158.6549981851953
 10
32.683625759294344
 20
158.48840806352823
 10
32.658426728323654
 20
158.3185299955767
 10
32.65
 20
158.147
 10
32.658426728323654
 20
157.97547000442327
 10
32.683625759294344
 20
157.80559193647176
 10
32.72535441246863
 20
157.6390018148047
 10
32.783210818105246
 20
157.4773039933611
 10
32.856637787390376
 20
157.3220557105545
 10
32.94492817847055
 20
157.1747520922157
 10
33.04723170661521
 20
157.03681175271362
 10
33.16256313292354
 20
156.90956313292352
 10
33.28981175271362
 20
156.7942317066152
 10
33.4277520922157
 20
156.69192817847053
 10
33.5750557105545
 20
156.60363778739037
 10
33.73030399336109
 20
156.53021081810525
 10
33.892001814804686
 20
156.47235441246863
 10
34.05859193647177
 20
156.43062575929434
 10
34.228470004423265
 20
156.40542672832365
 10
34.4
 20
156.397
 10
34.57152999557673
 20
156.40542672832365
 10
34.741408063528226
 20
156.43062575929434
 10
34.90799818519531
 20
156.47235441246863
 10
35.06969600663891
 20
156.53021081810525
 10
35.224944289445496
 20
156.60363778739037
 10
35.3722479077843
 20
156.69192817847053
 10
35.51018824728638
 20
156.7942317066152
 10
35.63743686707646
 20
156.90956313292352
 10
35.75276829338479
 20
157.03681175271362
 10
35.85507182152945
 20
157.1747520922157
 10
35.94336221260962
 20
157.3220557105545
 10
36.01678918189475
 20
157.4773039933611
 10
36.074645587531364
 20
157.6390018148047
 10
36.11637424070565
 20
157.80559193647176
 10
36.14157327167634
 20
157.97547000442327
 10
36.15
 20
158.147
 10
36.14157327167634
 20
158.3185299955767
 10
36.11637424070565
 20
158.48840806352823
  0
LWPOLYLINE
  5
41
330
17
100
AcDbEntity
  8
0
 62
1
100
AcDbPolyline
 90
65
 70
0
 10
36.14157327167634
 20
228.31852999557674
 10
36.11637424070565
 20
228.4884080635282
 10
36.074645587531364
 20
228.6549981851953
 10
36.01678918189475
 20
228.8166960066389
 10
35.94336221260962
 20
228.9719442894455
 10
35.85507182152945
 20
229.1192479077843
 10
35.75276829338479
 20
229.25718824728636
 10
35.63743686707646
 20
229.38443686707643
 10
35.51018824728638
 20
229.49976829338476
 10
35.3722479077843
 20
229.60207182152945
 10
35.224944289445496
 20
229.6903622126096
 10
35.06969600663891
 20
229.76378918189474
 10
34.90799818519531
 20
229.82164558753135
 10
34.741408063528226
 20
229.86337424070564
 10
34.57152999557673
 20
229.88857327167634
 10
34.4
 20
229.897
 10
34.228470004423265
 20
229.88857327167634
 10
34.05859193647177
 20
229.86337424070564
 10
33.892001814804686
 20
229.82164558753135
 10
33.73030399336109
 20
229.76378918189474
 10
33.5750557105545
 20
229.6903622126096
 10
33.4277520922157
 20
229.60207182152945
 10
33.28981175271362
 20
229.49976829338476
 10
33.16256313292354
 20
229.38443686707643
 10
33.04723170661521
 20
229.25718824728636
 10
32.94492817847055
 20
229.1192479077843
 10
32.856637787390376
 20
228.9719442894455
 10
32.783210818105246
 20
228.8166960066389
 10
32.72535441246863
 20
228.6549981851953
 10
32.683625759294344
 20
228.4884080635282
 10
32.658426728323654
 20
228.31852999557674
 10
32.65
 20
228.147
 10
32.658426728323654
 20
227.97547000442324
 10
32.683625759294344
 20
227.80559193647179
 10
32.72535441246863
 20
227.6390018148047
 10
32.783210818105246
 20
227.4773039933611
 10
32.856637787390376
 20
227.32205571055448
 10
32.94492817847055
 20
227.17475209221567
 10
33.04723170661521
 20
227.03681175271362
 10
33.16256313292354
 20
226.90956313292355
 10
33.28981175271362
 20
226.79423170661522
 10
33.4277520922157
 20
226.69192817847053
 10
33.5750557105545
 20
226.60363778739037
 10
33.73030399336109
 20
226.53021081810525
 10
33.892001814804686
 20
226.47235441246863
 10
34.05859193647177
 20
226.43062575929434
 10
34.228470004423265
 20
226.40542672832365
 10
34.4
 20
226.397
 10
34.57152999557673
 20
226.40542672832365
 10
34.741408063528226
 20
226.43062575929434
 10
34.90799818519531
 20
226.47235441246863
 10
35.06969600663891
 20
226.53021081810525
 10
35.224944289445496
 20
226.60363778739037
 10
35.3722479077843
 20
226.69192817847053
 10
35.51018824728638
 20
226.79423170661522
 10
35.63743686707646
 20
226.90956313292355
 10
35.75276829338479
 20
227.03681175271362
 10
35.85507182152945
 20
227.17475209221567
 10
35.94336221260962
 20
227.32205571055448
 10
36.01678918189475
 20
227.4773039933611
 10
36.074645587531364
 20
227.6390018148047
 10
36.11637424070565
 20
227.80559193647179
 10
36.14157327167634
 20
227.97547000442324
 10
36.15
 20
228.147
 10
36.14157327167634
 20
228.31852999557674
  0
LWPOLYLINE
  5
42
330
17
100
AcDbEntity
  8
0
 62
0
100
AcDbPolyline
 90
5
 70
0
 10
11.3825
 20
110.3552
 10
11.729
 20
110.3552
 10
11.729
 20
110.0
 10
11.3825
 20
110.0
 10
11.3825
 20
110.3552
  0
LWPOLYLINE
  5
43
330
17
100
AcDbEntity
  8
0
 62
0
100
AcDbPolyline
 90
43
 70
0
 10
10.99480625
 20
110.8565609375
 10
10.967656250000001
 20
110.6399984375
 10
10.91335625
 20
110.4521234375
 10
10.831906250000001
 20
110.2929359375
 10
10.781
 20
110.22409999999999
 10
10.7241921875
 20
110.16292812500001
 10
10.595529687500001
 20
110.065053125
 10
10.4468046875
 20
109.999803125
 10
10.2780171875
 20
109.967178125
 10
10.1861
 20
109.9631
 10
10.094075
 20
109.9671921875
 10
9.924875
 20
109.9999296875
 10
9.775475
 20
110.0654046875
 10
9.645875
 20
110.1636171875
 10
9.5885
 20
110.225
 10
9.5369609375
 20
110.29401874999999
 10
9.4544984375
 20
110.45331875
 10
9.399523437500001
 20
110.64096875
 10
9.3720359375
 20
110.85696875
 10
9.3686
 20
110.9756
 10
9.3686
 20
111.5819
 10
9.372021875
 20
111.7005453125
 10
9.399396875
 20
111.9166578125
 10
9.454146875
 20
112.1045328125
 10
9.536271875
 20
112.2641703125
 10
9.5876
 20
112.3334
 10
9.6447359375
 20
112.39499375
 10
9.773773437500001
 20
112.49354375
 10
9.9224984375
 20
112.55924375000001
 10
10.0909109375
 20
112.59209375
 10
10.182500000000001
 20
112.5962
 10
10.2745109375
 20
112.59209375
 10
10.4435984375
 20
112.55924375000001
 10
10.5927734375
 20
112.49354375
 10
10.7220359375
 20
112.39499375
 10
10.7792
 20
112.3334
 10
10.830528125
 20
112.2641703125
 10
10.912653125
 20
112.1045328125
 10
10.967403125
 20
111.9166578125
 10
10.994778125
 20
111.7005453125
 10
10.9982
 20
111.5819
 10
10.9982
 20
110.9756
 10
10.99480625
 20
110.8565609375
  0
LWPOLYLINE
  5
44
330
17
100
AcDbEntity
  8
0
 62
0
100
AcDbPolyline
 90
43
 70
0
 10
10.649820312500001
 20
111.7364609375
 10
10.6347828125
 20
111.8819984375
 10
10.604707812500001
 20
112.0070234375
 10
10.5595953125
 20
112.11153593750001
 10
10.5314
 20
112.1561
 10
10.4996328125
 20
112.1954046875
 10
10.4259453125
 20
112.2582921875
 10
10.3387203125
 20
112.3002171875
 10
10.2379578125
 20
112.3211796875
 10
10.182500000000001
 20
112.3238
 10
10.127056249999999
 20
112.3211796875
 10
10.02640625
 20
112.3002171875
 10
9.939406250000001
 20
112.2582921875
 10
9.86605625
 20
112.1954046875
 10
9.8345
 20
112.1561
 10
9.8064453125
 20
112.11153593750001
 10
9.7615578125
 20
112.0070234375
 10
9.731632812500001
 20
111.8819984375
 10
9.7166703125
 20
111.7364609375
 10
9.7148
 20
111.656
 10
9.7148
 20
110.9054
 10
9.7166984375
 20
110.8248453125
 10
9.7318859375
 20
110.6790078125
 10
9.7622609375
 20
110.5535328125
 10
9.8078234375
 20
110.4484203125
 10
9.8363
 20
110.4035
 10
9.868278125
 20
110.363703125
 10
9.942303125
 20
110.300028125
 10
10.029753125
 20
110.257578125
 10
10.130628125
 20
110.236353125
 10
10.1861
 20
110.2337
 10
10.2414640625
 20
110.23633906250001
 10
10.3419265625
 20
110.2574515625
 10
10.428701562499999
 20
110.2996765625
 10
10.5017890625
 20
110.3630140625
 10
10.5332
 20
110.4026
 10
10.5609734375
 20
110.4473375
 10
10.6054109375
 20
110.5523375
 10
10.6350359375
 20
110.6780375
 10
10.649848437500001
 20
110.8244375
 10
10.6517
 20
110.9054
 10
10.6517
 20
111.656
 10
10.649820312500001
 20
111.7364609375
  0
LWPOLYLINE
  5
45
330
17
100
AcDbEntity
  8
0
 62
0
100
AcDbPolyline
 90
72
 70
0
 10
13.5215
 20
111.89150000000001
 10
13.514468749999999
 20
111.79443125
 10
13.4775546875
 20
111.6605703125
 10
13.435367187499999
 20
111.5791578125
 10
13.408999999999999
 20
111.5408
 10
13.3478
 20
111.47043125
 10
13.195699999999999
 20
111.35838125000001
 10
13.104800000000001
 20
111.3167
 10
13.21008125
 20
111.27250624999999
 10
13.3471203125
 20
111.1856140625
 10
13.4245578125
 20
111.1139515625
 10
13.4591
 20
111.074
 10
13.490178125
 20
111.0318828125
 10
13.539903125
 20
110.9428953125
 10
13.573053125
 20
110.8475703125
 10
13.589628125
 20
110.74590781250001
 10
13.5917
 20
110.6927
 10
13.588090625
 20
110.606525
 10
13.559215625
 20
110.44992500000001
 10
13.501465625
 20
110.314325
 10
13.414840625
 20
110.199725
 10
13.3607
 20
110.1503
 10
13.3007234375
 20
110.106425
 10
13.1678609375
 20
110.036225
 10
13.017785937500001
 20
109.989425
 10
12.8504984375
 20
109.966025
 10
12.7604
 20
109.9631
 10
12.6686421875
 20
109.966025
 10
12.4988796875
 20
109.989425
 10
12.3474546875
 20
110.036225
 10
12.214367187499999
 20
110.106425
 10
12.1547
 20
110.1503
 10
12.10098125
 20
110.199725
 10
12.01503125
 20
110.314325
 10
11.95773125
 20
110.44992500000001
 10
11.92908125
 20
110.606525
 10
11.9255
 20
110.6927
 10
11.9275296875
 20
110.74590781250001
 10
11.9437671875
 20
110.8475703125
 10
11.976242187499999
 20
110.9428953125
 10
12.0249546875
 20
111.0318828125
 10
12.055399999999999
 20
111.074
 10
12.089375
 20
111.1139515625
 10
12.165875
 20
111.1856140625
 10
12.302
 20
111.27250624999999
 10
12.407
 20
111.3167
 10
12.316324999999999
 20
111.35838125000001
 10
12.166025000000001
 20
111.47043125
 10
12.1064
 20
111.5408
 10
12.05875625
 20
111.61908125
 10
12.004306249999999
 20
111.79443125
 10
11.9975
 20
111.89150000000001
 10
12.000753125
 20
111.9734703125
 10
12.026778125
 20
112.1229828125
 10
12.078828125000001
 20
112.2532578125
 10
12.156903125
 20
112.3642953125
 10
12.2057
 20
112.4126
 10
12.2599203125
 20
112.45563125
 10
12.3809328125
 20
112.52448125
 10
12.5187078125
 20
112.57038125
 10
12.6732453125
 20
112.59333125
 10
12.7568
 20
112.5962
 10
12.839239062499999
 20
112.59333125
 10
12.9925015625
 20
112.57038125
 10
13.1302765625
 20
112.52448125
 10
13.2525640625
 20
112.45563125
 10
13.3079
 20
112.4126
 10
13.3579625
 20
112.3642953125
 10
13.438062500000001
 20
112.2532578125
 10
13.4914625
 20
112.1229828125
 10
13.518162499999999
 20
111.9734703125
 10
13.5215
 20
111.89150000000001
  0
LWPOLYLINE
  5
46
330
17
100
AcDbEntity
  8
0
 62
0
100
AcDbPolyline
 90
41
 70
0
 10
13.2473
 20
110.6996
 10
13.2451296875
 20
110.75114375
 10
13.2277671875
 20
110.84714375
 10
13.1930421875
 20
110.93369375
 10
13.140954687499999
 20
111.01079375
 10
13.1084
 20
111.0458
 10
13.072521875
 20
111.07758125
 10
12.993846875
 20
111.12843125
 10
12.905946875
 20
111.16233125
 10
12.808821875
 20
111.17928125
 10
12.7568
 20
111.1814
 10
12.7040046875
 20
111.17928125
 10
12.6060921875
 20
111.16233125
 10
12.518417187499999
 20
111.12843125
 10
12.4409796875
 20
111.07758125
 10
12.4061
 20
111.0458
 10
12.374600000000001
 20
111.01079375
 10
12.324200000000001
 20
110.93369375
 10
12.290600000000001
 20
110.84714375
 10
12.273800000000001
 20
110.75114375
 10
12.2717
 20
110.6996
 10
12.2737859375
 20
110.646546875
 10
12.290473437500001
 20
110.549271875
 10
12.3238484375
 20
110.463771875
 10
12.3739109375
 20
110.390046875
 10
12.4052
 20
110.3576
 10
12.44001875
 20
110.3285609375
 10
12.51786875
 20
110.2820984375
 10
12.60666875
 20
110.2511234375
 10
12.706418750000001
 20
110.2356359375
 10
12.7604
 20
110.2337
 10
12.813209375
 20
110.23564999999999
 10
12.911234375
 20
110.25125
 10
12.999134375
 20
110.28245
 10
13.076909375
 20
110.32925
 10
13.112
 20
110.35849999999999
 10
13.1437109375
 20
110.3911296875
 10
13.1944484375
 20
110.4649671875
 10
13.2282734375
 20
110.5502421875
 10
13.2451859375
 20
110.6469546875
 10
13.2473
 20
110.6996
  0
LWPOLYLINE
  5
47
330
17
100
AcDbEntity
  8
0
 62
0
100
AcDbPolyline
 90
41
 70
0
 10
13.17344375
 20
111.9307578125
 10
13.15859375
 20
112.0175703125
 10
13.12889375
 20
112.0962453125
 10
13.08434375
 20
112.1667828125
 10
13.0565
 20
112.199
 10
13.0258953125
 20
112.22825
 10
12.9588078125
 20
112.27505
 10
12.883882812500001
 20
112.30625
 10
12.8011203125
 20
112.32185
 10
12.7568
 20
112.3238
 10
12.711771875
 20
112.3219203125
 10
12.628296875
 20
112.30688281249999
 10
12.553596875
 20
112.2768078125
 10
12.487671875
 20
112.2316953125
 10
12.458
 20
112.2035
 10
12.4312109375
 20
112.17213125
 10
12.3883484375
 20
112.10208125
 10
12.3597734375
 20
112.02228124999999
 10
12.345485937500001
 20
111.93273125
 10
12.3437
 20
111.8843
 10
12.345500000000001
 20
111.8367546875
 10
12.3599
 20
111.7488921875
 10
12.3887
 20
111.6706671875
 10
12.4319
 20
111.6020796875
 10
12.4589
 20
111.5714
 10
12.4888109375
 20
111.5438375
 10
12.5552984375
 20
111.4997375
 10
12.6306734375
 20
111.4703375
 10
12.714935937499998
 20
111.4556375
 10
12.7604
 20
111.4538
 10
12.805034375
 20
111.4556375
 10
12.888059375000001
 20
111.4703375
 10
12.962759375000001
 20
111.4997375
 10
13.029134375
 20
111.5438375
 10
13.0592
 20
111.5714
 10
13.0864109375
 20
111.6020796875
 10
13.1299484375
 20
111.6706671875
 10
13.1589734375
 20
111.7488921875
 10
13.1734859375
 20
111.8367546875
 10
13.1753
 20
111.8843
 10
13.17344375
 20
111.9307578125
  0
LWPOLYLINE
  5
48
330
17
100
AcDbEntity
  8
0
 62
0
100
AcDbPolyline
 90
7
 70
0
 10
8.8508
 20
112.2218
 10
8.327
 20
112.2149
 10
8.327
 20
112.4645
 10
9.197
 20
112.55930000000001
 10
9.197
 20
110.0
 10
8.8508
 20
110.0
 10
8.8508
 20
112.2218
  0
LWPOLYLINE
  5
49
330
17
100
AcDbEntity
  8
0
 62
0
100
AcDbPolyline
 90
5
 70
0
 10
11.3825
 20
136.7552
 10
11.729
 20
136.7552
 10
11.729
 20
136.4
 10
11.3825
 20
136.4
 10
11.3825
 20
136.7552
  0
LWPOLYLINE
  5
4A
330
17
100
AcDbEntity
  8
0
 62
0
100
AcDbPolyline
 90
43
 70
0
 10
10.99480625
 20
137.2565609375
 10
10.967656250000001
 20
137.0399984375
 10
10.91335625
 20
136.85212343749998
 10
10.831906250000001
 20
136.6929359375
 10
10.781
 20
136.6241
 10
10.7241921875
 20
136.56292812499998
 10
10.595529687500001
 20
136.465053125
 10
10.4468046875
 20
136.399803125
 10
10.2780171875
 20
136.367178125
 10
10.1861
 20
136.3631
 10
10.094075
 20
136.3671921875
 10
9.924875
 20
136.3999296875
 10
9.775475
 20
136.46540468749998
 10
9.645875
 20
136.5636171875
 10
9.5885
 20
136.625
 10
9.5369609375
 20
136.69401875
 10
9.4544984375
 20
136.85331875
 10
9.399523437500001
 20
137.04096875
 10
9.3720359375
 20
137.25696875
 10
9.3686
 20
137.3756
 10
9.3686
 20
137.9819
 10
9.372021875
 20
138.1005453125
 10
9.399396875
 20
138.3166578125
 10
9.454146875
 20
138.5045328125
 10
9.536271875
 20
138.6641703125
 10
9.5876
 20
138.7334
 10
9.6447359375
 20
138.79499375
 10
9.773773437500001
 20
138.89354375
 10
9.9224984375
 20
138.95924374999998
 10
10.0909109375
 20
138.99209374999998
 10
10.182500000000001
 20
138.9962
 10
10.2745109375
 20
138.99209374999998
 10
10.4435984375
 20
138.95924374999998
 10
10.5927734375
 20
138.89354375
 10
10.7220359375
 20
138.79499375
 10
10.7792
 20
138.7334
 10
10.830528125
 20
138.6641703125
 10
10.912653125
 20
138.5045328125
 10
10.967403125
 20
138.3166578125
 10
10.994778125
 20
138.1005453125
 10
10.9982
 20
137.9819
 10
10.9982
 20
137.3756
 10
10.99480625
 20
137.2565609375
  0
LWPOLYLINE
  5
4B
330
17
100
AcDbEntity
  8
0
 62
0
100
AcDbPolyline
 90
43
 70
0
 10
10.649820312500001
 20
138.1364609375
 10
10.6347828125
 20
138.2819984375
 10
10.604707812500001
 20
138.40702343750002
 10
10.5595953125
 20
138.5115359375
 10
10.5314
 20
138.55610000000001
 10
10.4996328125
 20
138.5954046875
 10
10.4259453125
 20
138.6582921875
 10
10.3387203125
 20
138.70021718750002
 10
10.2379578125
 20
138.7211796875
 10
10.182500000000001
 20
138.72379999999998
 10
10.127056249999999
 20
138.7211796875
 10
10.02640625
 20
138.70021718750002
 10
9.939406250000001
 20
138.6582921875
 10
9.86605625
 20
138.5954046875
 10
9.8345
 20
138.55610000000001
 10
9.8064453125
 20
138.5115359375
 10
9.7615578125
 20
138.40702343750002
 10
9.731632812500001
 20
138.2819984375
 10
9.7166703125
 20
138.1364609375
 10
9.7148
 20
138.05599999999998
 10
9.7148
 20
137.3054
 10
9.7166984375
 20
137.2248453125
 10
9.7318859375
 20
137.07900781249998
 10
9.7622609375
 20
136.9535328125
 10
9.8078234375
 20
136.8484203125
 10
9.8363
 20
136.80349999999999
 10
9.868278125
 20
136.763703125
 10
9.942303125
 20
136.700028125
 10
10.029753125
 20
136.657578125
 10
10.130628125
 20
136.636353125
 10
10.1861
 20
136.6337
 10
10.2414640625
 20
136.63633906249999
 10
10.3419265625
 20
136.6574515625
 10
10.428701562499999
 20
136.6996765625
 10
10.5017890625
 20
136.7630140625
 10
10.5332
 20
136.80259999999998
 10
10.5609734375
 20
136.8473375
 10
10.6054109375
 20
136.9523375
 10
10.6350359375
 20
137.0780375
 10
10.649848437500001
 20
137.2244375
 10
10.6517
 20
137.3054
 10
10.6517
 20
138.05599999999998
 10
10.649820312500001
 20
138.1364609375
  0
LWPOLYLINE
  5
4C
330
17
100
AcDbEntity
  8
0
 62
0
100
AcDbPolyline
 90
70
 70
0
 10
12.7060203125
 20
136.6366953125
 10
12.819982812500001
 20
136.6606578125
 10
12.9213078125
 20
136.7085828125
 10
13.0099953125
 20
136.7804703125
 10
13.0496
 20
136.8254
 10
13.085248437499999
 20
136.87623125
 10
13.1422859375
 20
136.99533125
 10
13.1803109375
 20
137.13768125
 10
13.199323437499999
 20
137.30328125
 10
13.2017
 20
137.3948
 10
13.2017
 20
137.5109
 10
13.1558375
 20
137.4522875
 10
13.0481375
 20
137.3577875
 10
12.9863
 20
137.3219
 10
12.91985
 20
137.2938125
 10
12.776150000000001
 20
137.2617125
 10
12.6989
 20
137.2577
 10
12.6085203125
 20
137.2612859375
 10
12.4421328125
 20
137.2899734375
 10
12.2949078125
 20
137.3473484375
 10
12.166845312500001
 20
137.4334109375
 10
12.11
 20
137.4872
 10
12.0588828125
 20
137.547275
 10
11.977095312500001
 20
137.683625
 10
11.9225703125
 20
137.841575
 10
11.8953078125
 20
138.02112499999998
 10
11.8919
 20
138.119
 10
11.8955140625
 20
138.213125
 10
11.9244265625
 20
138.388325
 10
11.9822515625
 20
138.546125
 10
12.0689890625
 20
138.686525
 10
12.1232
 20
138.7502
 10
12.18250625
 20
138.80785625
 10
12.31045625
 20
138.90010625
 10
12.450856250000001
 20
138.96160625
 10
12.60370625
 20
138.99235625
 10
12.6848
 20
138.9962
 10
12.782346875
 20
138.99228593750001
 10
12.961521874999999
 20
138.9609734375
 10
13.119471875
 20
138.8983484375
 10
13.256196875
 20
138.8044109375
 10
13.3166
 20
138.7457
 10
13.3708109375
 20
138.67938125
 10
13.4575484375
 20
138.52458124999998
 10
13.5153734375
 20
138.34023125
 10
13.5442859375
 20
138.12633125
 10
13.5479
 20
138.0083
 10
13.5479
 20
137.39839999999998
 10
13.5439859375
 20
137.27680625
 10
13.5126734375
 20
137.05555625
 10
13.4500484375
 20
136.86355625
 10
13.3561109375
 20
136.70080625
 10
13.2974
 20
136.6304
 10
13.2323984375
 20
136.5677515625
 10
13.088135937499999
 20
136.46751406250002
 10
12.9248609375
 20
136.4006890625
 10
12.7425734375
 20
136.3672765625
 10
12.644300000000001
 20
136.3631
 10
12.507875
 20
136.369475
 10
12.3692
 20
136.3886
 10
12.30111875
 20
136.40305625
 10
12.17586875
 20
136.44220625
 10
12.1187
 20
136.4669
 10
12.1715
 20
136.7321
 10
12.2238875
 20
136.706975
 10
12.331587500000001
 20
136.668875
 10
12.3869
 20
136.6559
 10
12.50705
 20
136.63925
 10
12.644300000000001
 20
136.6337
 10
12.7060203125
 20
136.6366953125
  0
LWPOLYLINE
  5
4D
330
17
100
AcDbEntity
  8
0
 62
0
100
AcDbPolyline
 90
38
 70
0
 10
12.79060625
 20
137.53375625
 10
12.95005625
 20
137.57500625
 10
13.0178
 20
137.6111
 10
13.07710625
 20
137.65521875
 10
13.16905625
 20
137.76066875
 10
13.2017
 20
137.822
 10
13.2017
 20
138.0437
 10
13.199679687500002
 20
138.1250703125
 10
13.1835171875
 20
138.27248281250002
 10
13.1511921875
 20
138.3994578125
 10
13.102704687500001
 20
138.5059953125
 10
13.0724
 20
138.5516
 10
13.038223437500001
 20
138.591959375
 10
12.9587609375
 20
138.656534375
 10
12.8644859375
 20
138.699584375
 10
12.7553984375
 20
138.721109375
 10
12.6953
 20
138.72379999999998
 10
12.64870625
 20
138.72115156249998
 10
12.56080625
 20
138.6999640625
 10
12.47995625
 20
138.6575890625
 10
12.406156249999999
 20
138.5940265625
 10
12.3719
 20
138.5543
 10
12.3406109375
 20
138.5103546875
 10
12.2905484375
 20
138.4134921875
 10
12.2571734375
 20
138.3046671875
 10
12.2404859375
 20
138.1838796875
 10
12.238399999999999
 20
138.119
 10
12.2403359375
 20
138.0547109375
 10
12.2558234375
 20
137.9354984375
 10
12.2867984375
 20
137.8287734375
 10
12.3332609375
 20
137.7345359375
 10
12.3623
 20
137.69209999999998
 10
12.394662499999999
 20
137.6537796875
 10
12.467712500000001
 20
137.5924671875
 10
12.5518625
 20
137.5515921875
 10
12.647112499999999
 20
137.5311546875
 10
12.6989
 20
137.52859999999998
 10
12.79060625
 20
137.53375625
  0
LWPOLYLINE
  5
4E
330
17
100
AcDbEntity
  8
0
 62
0
100
AcDbPolyline
 90
7
 70
0
 10
8.8508
 20
138.6218
 10
8.327
 20
138.6149
 10
8.327
 20
138.8645
 10
9.197
 20
138.95929999999998
 10
9.197
 20
136.4
 10
8.8508
 20
136.4
 10
8.8508
 20
138.6218
  0
LWPOLYLINE
  5
4F
330
17
100
AcDbEntity
  8
0
 62
0
100
AcDbPolyline
 90
5
 70
0
 10
10.6229
 20
163.15519999999998
 10
10.9694
 20
163.15519999999998
 10
10.9694
 20
162.8
 10
10.6229
 20
162.8
 10
10.6229
 20
163.15519999999998
  0
LWPOLYLINE
  5
50
330
17
100
AcDbEntity
  8
0
 62
0
100
AcDbPolyline
 90
43
 70
0
 10
12.81130625
 20
163.6565609375
 10
12.78415625
 20
163.43999843749998
 10
12.729856250000001
 20
163.2521234375
 10
12.648406249999999
 20
163.0929359375
 10
12.5975
 20
163.0241
 10
12.5406921875
 20
162.962928125
 10
12.412029687499999
 20
162.865053125
 10
12.2633046875
 20
162.79980312499998
 10
12.0945171875
 20
162.767178125
 10
12.0026
 20
162.7631
 10
11.910575
 20
162.7671921875
 10
11.741375
 20
162.7999296875
 10
11.591975
 20
162.8654046875
 10
11.462375
 20
162.9636171875
 10
11.405
 20
163.025
 10
11.3534609375
 20
163.09401875
 10
11.2709984375
 20
163.25331875
 10
11.216023437499999
 20
163.44096875
 10
11.1885359375
 20
163.65696875
 10
11.185099999999998
 20
163.7756
 10
11.185099999999998
 20
164.3819
 10
11.188521875
 20
164.50054531249998
 10
11.215896874999999
 20
164.7166578125
 10
11.270646874999999
 20
164.9045328125
 10
11.352771874999998
 20
165.06417031249998
 10
11.4041
 20
165.1334
 10
11.4612359375
 20
165.19499374999998
 10
11.590273437499999
 20
165.29354375
 10
11.7389984375
 20
165.35924375
 10
11.9074109375
 20
165.39209375
 10
11.998999999999999
 20
165.3962
 10
12.091010937499998
 20
165.39209375
 10
12.260098437499998
 20
165.35924375
 10
12.4092734375
 20
165.29354375
 10
12.5385359375
 20
165.19499374999998
 10
12.5957
 20
165.1334
 10
12.647028124999999
 20
165.06417031249998
 10
12.729153125
 20
164.9045328125
 10
12.783903125
 20
164.7166578125
 10
12.811278125
 20
164.50054531249998
 10
12.814699999999998
 20
164.3819
 10
12.814699999999998
 20
163.7756
 10
12.81130625
 20
163.6565609375
  0
LWPOLYLINE
  5
51
330
17
100
AcDbEntity
  8
0
 62
0
100
AcDbPolyline
 90
43
 70
0
 10
12.466320312499999
 20
164.5364609375
 10
12.4512828125
 20
164.6819984375
 10
12.4212078125
 20
164.8070234375
 10
12.376095312499999
 20
164.9115359375
 10
12.3479
 20
164.9561
 10
12.3161328125
 20
164.9954046875
 10
12.2424453125
 20
165.0582921875
 10
12.1552203125
 20
165.1002171875
 10
12.054457812499999
 20
165.1211796875
 10
11.998999999999999
 20
165.1238
 10
11.943556249999999
 20
165.1211796875
 10
11.842906249999999
 20
165.1002171875
 10
11.755906249999999
 20
165.0582921875
 10
11.68255625
 20
164.9954046875
 10
11.651
 20
164.9561
 10
11.622945312499999
 20
164.9115359375
 10
11.578057812499999
 20
164.8070234375
 10
11.548132812499999
 20
164.6819984375
 10
11.5331703125
 20
164.5364609375
 10
11.5313
 20
164.456
 10
11.5313
 20
163.7054
 10
11.5331984375
 20
163.62484531249999
 10
11.548385937499999
 20
163.4790078125
 10
11.5787609375
 20
163.3535328125
 10
11.6243234375
 20
163.2484203125
 10
11.6528
 20
163.2035
 10
11.684778125
 20
163.16370312499998
 10
11.758803125
 20
163.100028125
 10
11.846253124999999
 20
163.057578125
 10
11.947128124999999
 20
163.036353125
 10
12.0026
 20
163.0337
 10
12.057964062499998
 20
163.0363390625
 10
12.158426562499999
 20
163.0574515625
 10
12.2452015625
 20
163.0996765625
 10
12.3182890625
 20
163.1630140625
 10
12.349699999999999
 20
163.2026
 10
12.377473437499999
 20
163.24733750000001
 10
12.4219109375
 20
163.3523375
 10
12.4515359375
 20
163.4780375
 10
12.466348437499999
 20
163.6244375
 10
12.4682
 20
163.7054
 10
12.4682
 20
164.456
 10
12.466320312499999
 20
164.5364609375
  0
LWPOLYLINE
  5
52
330
17
100
AcDbEntity
  8
0
 62
0
100
AcDbPolyline
 90
7
 70
0
 10
8.8508
 20
165.02179999999998
 10
8.327
 20
165.0149
 10
8.327
 20
165.2645
 10
9.197
 20
165.3593
 10
9.197
 20
162.8
 10
8.8508
 20
162.8
 10
8.8508
 20
165.02179999999998
  0
LWPOLYLINE
  5
53
330
17
100
AcDbEntity
  8
0
 62
0
100
AcDbPolyline
 90
7
 70
0
 10
10.020800000000001
 20
165.02179999999998
 10
9.497
 20
165.0149
 10
9.497
 20
165.2645
 10
10.367
 20
165.3593
 10
10.367
 20
162.8
 10
10.020800000000001
 20
162.8
 10
10.020800000000001
 20
165.02179999999998
  0
LWPOLYLINE
  5
54
330
17
100
AcDbEntity
  8
0
 62
0
100
AcDbPolyline
 90
5
 70
0
 10
10.6229
 20
189.55519999999999
 10
10.9694
 20
189.55519999999999
 10
10.9694
 20
189.2
 10
10.6229
 20
189.2
 10
10.6229
 20
189.55519999999999
  0
LWPOLYLINE
  5
55
330
17
100
AcDbEntity
  8
0
 62
0
100
AcDbPolyline
 90
7
 70
0
 10
8.8508
 20
191.4218
 10
8.327
 20
191.4149
 10
8.327
 20
191.66449999999998
 10
9.197
 20
191.7593
 10
9.197
 20
189.2
 10
8.8508
 20
189.2
 10
8.8508
 20
191.4218
  0
LWPOLYLINE
  5
56
330
17
100
AcDbEntity
  8
0
 62
0
100
AcDbPolyline
 90
7
 70
0
 10
10.020800000000001
 20
191.4218
 10
9.497
 20
191.4149
 10
9.497
 20
191.66449999999998
 10
10.367
 20
191.7593
 10
10.367
 20
189.2
 10
10.020800000000001
 20
189.2
 10
10.020800000000001
 20
191.4218
  0
LWPOLYLINE
  5
57
330
17
100
AcDbEntity
  8
0
 62
0
100
AcDbPolyline
 90
7
 70
0
 10
11.837299999999999
 20
191.4218
 10
11.3135
 20
191.4149
 10
11.3135
 20
191.66449999999998
 10
12.183499999999999
 20
191.7593
 10
12.183499999999999
 20
189.2
 10
11.837299999999999
 20
189.2
 10
11.837299999999999
 20
191.4218
  0
LWPOLYLINE
  5
58
330
17
100
AcDbEntity
  8
0
 62
0
100
AcDbPolyline
 90
5
 70
0
 10
10.6229
 20
215.9552
 10
10.9694
 20
215.9552
 10
10.9694
 20
215.6
 10
10.6229
 20
215.6
 10
10.6229
 20
215.9552
  0
LWPOLYLINE
  5
59
330
17
100
AcDbEntity
  8
0
 62
0
100
AcDbPolyline
 90
7
 70
0
 10
8.8508
 20
217.8218
 10
8.327
 20
217.8149
 10
8.327
 20
218.0645
 10
9.197
 20
218.15929999999997
 10
9.197
 20
215.6
 10
8.8508
 20
215.6
 10
8.8508
 20
217.8218
  0
LWPOLYLINE
  5
5A
330
17
100
AcDbEntity
  8
0
 62
0
100
AcDbPolyline
 90
7
 70
0
 10
10.020800000000001
 20
217.8218
 10
9.497
 20
217.8149
 10
9.497
 20
218.0645
 10
10.367
 20
218.15929999999997
 10
10.367
 20
215.6
 10
10.020800000000001
 20
215.6
 10
10.020800000000001
 20
217.8218
  0
LWPOLYLINE
  5
5B
330
17
100
AcDbEntity
  8
0
 62
0
100
AcDbPolyline
 90
63
 70
0
 10
11.1938
 20
215.8373
 10
12.0323
 20
216.7688
 10
12.13574375
 20
216.88803124999998
 10
12.28829375
 20
217.08768125
 10
12.337399999999999
 20
217.16809999999998
 10
12.372443749999999
 20
217.24233125
 10
12.41249375
 20
217.39338125
 10
12.417499999999999
 20
217.47019999999998
 10
12.415751562499999
 20
217.517178125
 10
12.4017640625
 20
217.605453125
 10
12.373789062499998
 20
217.68615312499998
 10
12.3318265625
 20
217.75927812499998
 10
12.305599999999998
 20
217.793
 10
12.2765609375
 20
217.82365625
 10
12.2116484375
 20
217.87270625
 10
12.1376234375
 20
217.90540625
 10
12.0544859375
 20
217.92175625
 10
12.0095
 20
217.9238
 10
11.945309375
 20
217.92167187500002
 10
11.830034375
 20
217.904646875
 10
11.732234374999999
 20
217.870596875
 10
11.651909374999999
 20
217.819521875
 10
11.6183
 20
217.7876
 10
11.588909375
 20
217.751834375
 10
11.541884374999999
 20
217.670009375
 10
11.510534374999999
 20
217.574459375
 10
11.494859374999999
 20
217.46518437499998
 10
11.492899999999999
 20
217.4054
 10
11.160499999999999
 20
217.4054
 10
11.1569
 20
217.4159
 10
11.1584328125
 20
217.4968296875
 10
11.1837453125
 20
217.64881718750001
 10
11.2387203125
 20
217.7876421875
 10
11.3233578125
 20
217.9133046875
 10
11.3768
 20
217.9712
 10
11.436626562499999
 20
218.023934375
 10
11.5727890625
 20
218.10830937499998
 10
11.7309640625
 20
218.164559375
 10
11.911151562499999
 20
218.192684375
 10
12.0095
 20
218.19619999999998
 10
12.093485937499999
 20
218.1930546875
 10
12.248323437499998
 20
218.1678921875
 10
12.385648437499999
 20
218.11756718750001
 10
12.505460937499999
 20
218.0420796875
 10
12.558799999999998
 20
217.9949
 10
12.6068234375
 20
217.942859375
 10
12.683660937500001
 20
217.828484375
 10
12.7348859375
 20
217.700384375
 10
12.7604984375
 20
217.558559375
 10
12.7637
 20
217.4825
 10
12.7617640625
 20
217.4302109375
 10
12.7462765625
 20
217.3255484375
 10
12.69400625
 20
217.16834375
 10
12.6398
 20
217.0634
 10
12.57164375
 20
216.95646875
 10
12.39809375
 20
216.73101874999998
 10
12.2927
 20
216.6125
 10
11.6192
 20
215.87959999999998
 10
11.6228
 20
215.8706
 10
12.853399999999999
 20
215.8706
 10
12.853399999999999
 20
215.6
 10
11.1938
 20
215.6
 10
11.1938
 20
215.8373
  0
LWPOLYLINE
  5
5C
330
17
100
AcDbEntity
  8
0
 62
1
100
AcDbPolyline
 90
67
 70
0
 10
-14.28712448244335
 20
241.63662713658115
 10
-13.469807719301235
 20
243.00023777491757
 10
-12.52276934447634
 20
244.27717120345105
 10
-11.455129855222069
 20
245.45512985522208
 10
-10.277171203451054
 20
246.52276934447633
 10
-9.00023777491755
 20
247.46980771930123
 10
-7.636627136581162
 20
248.28712448244335
 10
-6.1994716043144535
 20
248.96684842668284
 10
-4.702611771522287
 20
249.50243343886177
 10
-3.1604632166612765
 20
249.88872154253232
 10
-1.5878776733388824
 20
250.1219925720896
 10
9.919639073093561e-16
 20
250.2
 10
1.5878776733388844
 20
250.1219925720896
 10
3.1604632166612787
 20
249.88872154253232
 10
4.70261177152229
 20
249.50243343886177
 10
6.199471604314455
 20
248.96684842668284
 10
7.636627136581164
 20
248.28712448244335
 10
9.000237774917553
 20
247.46980771930123
 10
10.277171203451056
 20
246.52276934447633
 10
11.45512985522207
 20
245.45512985522208
 10
12.52276934447634
 20
244.27717120345105
 10
13.469807719301235
 20
243.00023777491754
 10
14.28712448244335
 20
241.63662713658115
 10
14.966848426682844
 20
240.19947160431445
 10
15.502433438861784
 20
238.7026117715223
 10
15.888721542532332
 20
237.16046321666127
 10
16.12199257208959
 20
235.58787767333888
 10
16.2
 20
234.0
 10
16.2
 20
102.0
 10
16.12199257208959
 20
100.41212232666112
 10
15.888721542532332
 20
98.83953678333873
 10
15.502433438861782
 20
97.29738822847771
 10
14.966848426682844
 20
95.80052839568555
 10
14.287124482443351
 20
94.36337286341885
 10
13.469807719301233
 20
92.99976222508245
 10
12.52276934447634
 20
91.72282879654894
 10
11.45512985522207
 20
90.54487014477793
 10
10.277171203451056
 20
89.47723065552367
 10
9.000237774917556
 20
88.53019228069877
 10
7.636627136581164
 20
87.71287551755665
 10
6.199471604314455
 20
87.03315157331716
 10
4.70261177152229
 20
86.49756656113821
 10
3.1604632166612787
 20
86.11127845746766
 10
1.5878776733388844
 20
85.8780074279104
 10
9.919639073093561e-16
 20
85.8
 10
-1.5878776733388824
 20
85.8780074279104
 10
-3.1604632166612765
 20
86.11127845746766
 10
-4.702611771522287
 20
86.49756656113821
 10
-6.1994716043144535
 20
87.03315157331716
 10
-7.636627136581162
 20
87.71287551755665
 10
-9.00023777491755
 20
88.53019228069877
 10
-10.277171203451054
 20
89.47723065552366
 10
-11.455129855222069
 20
90.54487014477793
 10
-12.52276934447634
 20
91.72282879654894
 10
-13.469807719301235
 20
92.99976222508245
 10
-14.28712448244335
 20
94.36337286341883
 10
-14.966848426682844
 20
95.80052839568555
 10
-15.502433438861782
 20
97.29738822847771
 10
-15.888721542532332
 20
98.83953678333872
 10
-16.12199257208959
 20
100.41212232666112
 10
-16.2
 20
102.0
 10
-16.2
 20
234.0
 10
-16.12199257208959
 20
235.58787767333888
 10
-15.888721542532332
 20
237.16046321666127
 10
-15.502433438861782
 20
238.7026117715223
 10
-14.966848426682844
 20
240.19947160431445
 10
-14.28712448244335
 20
241.63662713658115
  0
LWPOLYLINE
  5
5D
330
17
100
AcDbEntity
  8
0
 62
1
100
AcDbPolyline
 90
65
 70
0
 10
9.524749654962232
 20
107.09108475772078
 10
8.97987181286749
 20
108.0001585166117
 10
8.348512896317555
 20
108.85144746896738
 10
7.6367532368147115
 20
109.63675323681471
 10
6.851447468967373
 20
110.34851289631756
 10
6.0001585166117
 20
110.97987181286749
 10
5.0910847577207745
 20
111.52474965496224
 10
4.132981069542972
 20
111.9778989511219
 10
3.13507451434819
 20
112.33495562590785
 10
2.106975477774186
 20
112.59248102835488
 10
1.058585115559249
 20
112.74799504805972
 10
-1.9839278146187122e-15
 20
112.8
 10
-1.058585115559253
 20
112.74799504805972
 10
-2.10697547777419
 20
112.59248102835488
 10
-3.1350745143481946
 20
112.33495562590785
 10
-4.132981069542976
 20
111.9778989511219
 10
-5.091084757720777
 20
111.52474965496224
 10
-6.0001585166117035
 20
110.97987181286749
 10
-6.851447468967376
 20
110.34851289631756
 10
-7.636753236814715
 20
109.63675323681471
 10
-8.348512896317562
 20
108.85144746896736
 10
-8.979871812867492
 20
108.0001585166117
 10
-9.524749654962235
 20
107.09108475772078
 10
-9.9778989511219
 20
106.13298106954296
 10
-10.334955625907858
 20
105.13507451434819
 10
-10.59248102835489
 20
104.10697547777418
 10
-10.747995048059728
 20
103.05858511555925
 10
-10.8
 20
102.0
 10
-10.747995048059726
 20
100.94141488444075
 10
-10.59248102835489
 20
99.89302452222582
 10
-10.334955625907856
 20
98.86492548565181
 10
-9.977898951121897
 20
97.86701893045702
 10
-9.524749654962234
 20
96.90891524227922
 10
-8.97987181286749
 20
95.9998414833883
 10
-8.34851289631756
 20
95.14855253103264
 10
-7.636753236814713
 20
94.36324676318529
 10
-6.85144746896737
 20
93.65148710368244
 10
-6.000158516611702
 20
93.02012818713251
 10
-5.091084757720775
 20
92.47525034503776
 10
-4.13298106954297
 20
92.0221010488781
 10
-3.1350745143481915
 20
91.66504437409215
 10
-2.1069754777741845
 20
91.40751897164512
 10
-1.058585115559255
 20
91.25200495194028
 10
6.613092715395707e-16
 20
91.2
 10
1.0585851155592565
 20
91.25200495194028
 10
2.1069754777741863
 20
91.40751897164512
 10
3.1350745143481933
 20
91.66504437409215
 10
4.1329810695429705
 20
92.0221010488781
 10
5.091084757720776
 20
92.47525034503776
 10
6.000158516611705
 20
93.02012818713251
 10
6.851447468967372
 20
93.65148710368244
 10
7.636753236814714
 20
94.36324676318529
 10
8.34851289631756
 20
95.14855253103264
 10
8.97987181286749
 20
95.9998414833883
 10
9.524749654962235
 20
96.90891524227922
 10
9.977898951121897
 20
97.86701893045704
 10
10.334955625907856
 20
98.86492548565181
 10
10.59248102835489
 20
99.89302452222582
 10
10.747995048059728
 20
100.94141488444075
 10
10.8
 20
102.0
 10
10.747995048059728
 20
103.05858511555925
 10
10.592481028354888
 20
104.10697547777418
 10
10.334955625907856
 20
105.13507451434819
 10
9.977898951121896
 20
106.13298106954298
 10
9.524749654962232
 20
107.09108475772078
  0
LWPOLYLINE
  5
5E
330
17
100
AcDbEntity
  8
0
 62
1
100
AcDbPolyline
 90
65
 70
0
 10
10.070286904373024
 20
132.57124941277948
 10
9.612941781397067
 20
133.53822443140336
 10
9.063018774097744
 20
134.45571553991365
 10
8.425813941653828
 20
135.31488679738374
 10
7.707463914933366
 20
136.10746391493336
 10
6.914886797383737
 20
136.82581394165385
 10
6.055715539913661
 20
137.46301877409775
 10
5.138224431403374
 20
138.01294178139707
 10
4.171249412779481
 20
138.47028690437304
 10
3.1641029820736364
 20
138.83064965948108
 10
2.1264845099757985
 20
139.0905595563952
 10
1.068386829592205
 20
139.24751352072695
 10
-2.0022975166059223e-15
 20
139.3
 10
-1.068386829592209
 20
139.24751352072695
 10
-2.1264845099758025
 20
139.0905595563952
 10
-3.164102982073641
 20
138.83064965948108
 10
-4.171249412779485
 20
138.47028690437304
 10
-5.138224431403377
 20
138.01294178139707
 10
-6.055715539913664
 20
137.46301877409775
 10
-6.9148867973837405
 20
136.82581394165382
 10
-7.70746391493337
 20
136.10746391493336
 10
-8.425813941653836
 20
135.31488679738374
 10
-9.063018774097745
 20
134.45571553991365
 10
-9.61294178139707
 20
133.53822443140336
 10
-10.070286904373027
 20
132.57124941277948
 10
-10.430649659481078
 20
131.56410298207362
 10
-10.690559556395211
 20
130.5264845099758
 10
-10.847513520726947
 20
129.46838682959222
 10
-10.9
 20
128.4
 10
-10.847513520726945
 20
127.33161317040779
 10
-10.690559556395211
 20
126.2735154900242
 10
-10.430649659481077
 20
125.23589701792636
 10
-10.070286904373026
 20
124.22875058722052
 10
-9.612941781397069
 20
123.26177556859662
 10
-9.063018774097744
 20
122.34428446008633
 10
-8.425813941653834
 20
121.48511320261626
 10
-7.707463914933368
 20
120.69253608506662
 10
-6.914886797383735
 20
119.97418605834616
 10
-6.0557155399136615
 20
119.33698122590226
 10
-5.138224431403375
 20
118.78705821860294
 10
-4.171249412779479
 20
118.32971309562697
 10
-3.1641029820736377
 20
117.96935034051891
 10
-2.126484509975797
 20
117.70944044360479
 10
-1.068386829592211
 20
117.55248647927306
 10
6.674325055353075e-16
 20
117.5
 10
1.0683868295922125
 20
117.55248647927306
 10
2.126484509975799
 20
117.70944044360479
 10
3.1641029820736395
 20
117.96935034051891
 10
4.1712494127794795
 20
118.32971309562697
 10
5.138224431403376
 20
118.78705821860294
 10
6.055715539913665
 20
119.33698122590226
 10
6.914886797383736
 20
119.97418605834616
 10
7.707463914933369
 20
120.69253608506662
 10
8.425813941653834
 20
121.48511320261626
 10
9.063018774097744
 20
122.34428446008633
 10
9.61294178139707
 20
123.26177556859662
 10
10.070286904373026
 20
124.22875058722052
 10
10.430649659481077
 20
125.23589701792636
 10
10.690559556395211
 20
126.27351549002421
 10
10.847513520726947
 20
127.33161317040779
 10
10.9
 20
128.4
 10
10.847513520726947
 20
129.46838682959222
 10
10.690559556395211
 20
130.5264845099758
 10
10.430649659481077
 20
131.56410298207365
 10
10.070286904373024
 20
132.57124941277948
  0
LWPOLYLINE
  5
5F
330
17
100
AcDbEntity
  8
0
 62
1
100
AcDbPolyline
 90
65
 70
0
 10
10.526343693054297
 20
157.99313144979908
 10
10.162674857624152
 20
159.009517756016
 10
9.701133907831903
 20
159.98536410508598
 10
9.146165735327997
 20
160.91127256321562
 10
8.503114986990102
 20
161.7783261258001
 10
7.778174593052021
 20
162.578174593052
 10
6.978326125800102
 20
163.3031149869901
 10
6.11127256321562
 20
163.946165735328
 10
5.185364105085974
 20
164.5011339078319
 10
4.20951775601599
 20
164.96267485762417
 10
3.1931314497990826
 20
165.3263436930543
 10
2.1459935421774112
 20
165.58863808443553
 10
1.078188543625161
 20
165.74703199339416
 10
-2.0206672185931327e-15
 20
165.8
 10
-1.078188543625165
 20
165.74703199339416
 10
-2.1459935421774152
 20
165.58863808443553
 10
-3.193131449799087
 20
165.3263436930543
 10
-4.209517756015994
 20
164.96267485762417
 10
-5.185364105085976
 20
164.5011339078319
 10
-6.111272563215624
 20
163.946165735328
 10
-6.9783261258001055
 20
163.3031149869901
 10
-7.778174593052024
 20
162.578174593052
 10
-8.503114986990107
 20
161.7783261258001
 10
-9.146165735328
 20
160.91127256321562
 10
-9.701133907831906
 20
159.98536410508598
 10
-10.162674857624156
 20
159.00951775601598
 10
-10.526343693054299
 20
157.99313144979908
 10
-10.788638084435535
 20
156.9459935421774
 10
-10.947031993394166
 20
155.87818854362516
 10
-11.0
 20
154.8
 10
-10.947031993394164
 20
153.72181145637484
 10
-10.788638084435535
 20
152.6540064578226
 10
-10.526343693054297
 20
151.60686855020091
 10
-10.162674857624154
 20
150.590482243984
 10
-9.701133907831904
 20
149.61463589491402
 10
-9.146165735328
 20
148.68872743678438
 10
-8.503114986990107
 20
147.8216738741999
 10
-7.778174593052022
 20
147.02182540694798
 10
-6.978326125800099
 20
146.2968850130099
 10
-6.111272563215621
 20
145.653834264672
 10
-5.1853641050859745
 20
145.0988660921681
 10
-4.209517756015987
 20
144.63732514237586
 10
-3.193131449799084
 20
144.2736563069457
 10
-2.1459935421774103
 20
144.01136191556446
 10
-1.078188543625167
 20
143.85296800660583
 10
6.735557395310443e-16
 20
143.8
 10
1.0781885436251684
 20
143.85296800660583
 10
2.1459935421774117
 20
144.01136191556446
 10
3.1931314497990857
 20
144.2736563069457
 10
4.209517756015988
 20
144.63732514237586
 10
5.185364105085976
 20
145.0988660921681
 10
6.111272563215625
 20
145.653834264672
 10
6.9783261258001
 20
146.2968850130099
 10
7.778174593052023
 20
147.02182540694798
 10
8.503114986990107
 20
147.8216738741999
 10
9.146165735327997
 20
148.68872743678438
 10
9.701133907831906
 20
149.61463589491402
 10
10.162674857624154
 20
150.590482243984
 10
10.526343693054297
 20
151.60686855020091
 10
10.788638084435535
 20
152.6540064578226
 10
10.947031993394166
 20
153.72181145637484
 10
11.0
 20
154.8
 10
10.947031993394166
 20
155.87818854362516
 10
10.788638084435533
 20
156.9459935421774
 10
10.526343693054297
 20
157.99313144979908
  0
LWPOLYLINE
  5
60
330
17
100
AcDbEntity
  8
0
 62
1
100
AcDbPolyline
 90
65
 70
0
 10
10.886716612475857
 20
183.36550257437904
 10
10.622037726627518
 20
184.42215991752454
 10
10.25506281087528
 20
185.44778609925248
 10
9.789326034266738
 20
186.43250377876856
 10
9.229312696558251
 20
187.36682958651755
 10
8.580416032326376
 20
188.24176545421648
 10
7.848885271170675
 20
189.04888527117066
 10
7.041765454216466
 20
189.78041603232637
 10
6.16682958651758
 20
190.42931269655824
 10
5.232503778768573
 20
190.98932603426672
 10
4.247786099252499
 20
191.45506281087526
 10
3.222159917524529
 20
191.8220377266275
 10
2.165502574379024
 20
192.08671661247584
 10
1.0879902576581169
 20
192.24655046606136
 10
-2.0390369205803427e-15
 20
192.29999999999998
 10
-1.087990257658121
 20
192.24655046606136
 10
-2.165502574379028
 20
192.08671661247584
 10
-3.222159917524533
 20
191.8220377266275
 10
-4.247786099252503
 20
191.45506281087526
 10
-5.232503778768576
 20
190.98932603426672
 10
-6.166829586517584
 20
190.42931269655824
 10
-7.04176545421647
 20
189.78041603232637
 10
-7.848885271170679
 20
189.04888527117066
 10
-8.580416032326381
 20
188.24176545421645
 10
-9.229312696558255
 20
187.36682958651755
 10
-9.789326034266741
 20
186.43250377876856
 10
-10.255062810875284
 20
185.44778609925248
 10
-10.62203772662752
 20
184.42215991752454
 10
-10.886716612475858
 20
183.365502574379
 10
-11.046550466061385
 20
182.28799025765812
 10
-11.1
 20
181.2
 10
-11.046550466061385
 20
180.11200974234185
 10
-10.886716612475858
 20
179.03449742562094
 10
-10.622037726627518
 20
177.97784008247544
 10
-10.255062810875282
 20
176.9522139007475
 10
-9.78932603426674
 20
175.9674962212314
 10
-9.229312696558253
 20
175.03317041348242
 10
-8.580416032326381
 20
174.15823454578353
 10
-7.848885271170676
 20
173.35111472882932
 10
-7.041765454216463
 20
172.6195839676736
 10
-6.166829586517582
 20
171.97068730344174
 10
-5.232503778768574
 20
171.41067396573325
 10
-4.247786099252496
 20
170.9449371891247
 10
-3.22215991752453
 20
170.57796227337246
 10
-2.165502574379023
 20
170.31328338752414
 10
-1.087990257658123
 20
170.1534495339386
 10
6.79678973526781e-16
 20
170.1
 10
1.0879902576581244
 20
170.1534495339386
 10
2.1655025743790244
 20
170.31328338752414
 10
3.222159917524532
 20
170.57796227337246
 10
4.247786099252497
 20
170.9449371891247
 10
5.232503778768575
 20
171.41067396573325
 10
6.1668295865175855
 20
171.97068730344174
 10
7.041765454216464
 20
172.6195839676736
 10
7.848885271170678
 20
173.35111472882932
 10
8.580416032326381
 20
174.15823454578353
 10
9.229312696558251
 20
175.03317041348242
 10
9.789326034266741
 20
175.9674962212314
 10
10.255062810875282
 20
176.9522139007475
 10
10.622037726627518
 20
177.97784008247544
 10
10.886716612475858
 20
179.03449742562097
 10
11.046550466061385
 20
180.11200974234185
 10
11.1
 20
181.2
 10
11.046550466061385
 20
182.28799025765812
 10
10.886716612475857
 20
183.36550257437904
  0
LWPOLYLINE
  5
61
330
17
100
AcDbEntity
  8
0
 62
1
100
AcDbPolyline
 90
65
 70
0
 10
11.146068938728606
 20
208.69779197169106
 10
10.984795140516178
 20
209.78501160658064
 10
10.717731760200738
 20
210.85118838524997
 10
10.347450764126409
 20
211.886054442489
 10
9.877518160701573
 20
212.87964345245118
 10
9.312459657788507
 20
213.82238660981955
 10
8.65771707766265
 20
214.70520478263285
 10
7.91959594928933
 20
215.51959594928934
 10
7.10520478263283
 20
216.25771707766265
 10
6.22238660981954
 20
216.9124596577885
 10
5.279643452451173
 20
217.47751816070158
 10
4.286054442489008
 20
217.94745076412642
 10
3.251188385249975
 20
218.31773176020073
 10
2.1850116065806366
 20
218.58479514051618
 10
1.097791971691073
 20
218.7460689387286
 10
-2.057406622567553e-15
 20
218.8
 10
-1.097791971691077
 20
218.7460689387286
 10
-2.185011606580641
 20
218.58479514051618
 10
-3.251188385249979
 20
218.31773176020073
 10
-4.286054442489012
 20
217.94745076412642
 10
-5.279643452451176
 20
217.47751816070155
 10
-6.222386609819544
 20
216.9124596577885
 10
-7.105204782632834
 20
216.25771707766265
 10
-7.9195959492893335
 20
215.51959594928934
 10
-8.657717077662655
 20
214.70520478263282
 10
-9.312459657788509
 20
213.82238660981955
 10
-9.877518160701577
 20
212.87964345245115
 10
-10.347450764126412
 20
211.886054442489
 10
-10.71773176020074
 20
210.85118838524997
 10
-10.98479514051618
 20
209.78501160658064
 10
-11.146068938728606
 20
208.69779197169106
 10
-11.2
 20
207.6
 10
-11.146068938728604
 20
206.50220802830893
 10
-10.98479514051618
 20
205.41498839341935
 10
-10.717731760200738
 20
204.34881161475002
 10
-10.34745076412641
 20
203.31394555751098
 10
-9.877518160701575
 20
202.3203565475488
 10
-9.312459657788507
 20
201.37761339018044
 10
-8.657717077662653
 20
200.49479521736717
 10
-7.919595949289331
 20
199.68040405071065
 10
-7.1052047826328275
 20
198.94228292233734
 10
-6.222386609819542
 20
198.28754034221149
 10
-5.2796434524511735
 20
197.7224818392984
 10
-4.286054442489005
 20
197.25254923587357
 10
-3.251188385249976
 20
196.88226823979926
 10
-2.1850116065806358
 20
196.6152048594838
 10
-1.0977919716910791
 20
196.4539310612714
 10
6.858022075225178e-16
 20
196.39999999999998
 10
1.0977919716910804
 20
196.4539310612714
 10
2.185011606580637
 20
196.6152048594838
 10
3.251188385249978
 20
196.88226823979926
 10
4.2860544424890055
 20
197.25254923587357
 10
5.279643452451175
 20
197.72248183929844
 10
6.222386609819545
 20
198.28754034221149
 10
7.105204782632829
 20
198.94228292233734
 10
7.919595949289333
 20
199.68040405071065
 10
8.657717077662653
 20
200.49479521736717
 10
9.312459657788507
 20
201.37761339018044
 10
9.877518160701577
 20
202.32035654754884
 10
10.34745076412641
 20
203.31394555751098
 10
10.717731760200738
 20
204.34881161475002
 10
10.98479514051618
 20
205.41498839341938
 10
11.146068938728606
 20
206.50220802830893
 10
11.2
 20
207.6
 10
11.146068938728606
 20
208.69779197169106
  0
ENDSEC
  0
SECTION
  2
OBJECTS
  0
DICTIONARY
  5
A
330
0
100
AcDbDictionary
280
0
281
1
  3
ACAD_COLOR
350
B
  3
ACAD_GROUP
350
C
  3
ACAD_LAYOUT
350
D
  3
ACAD_MATERIAL
350
E
  3
ACAD_MLEADERSTYLE
350
F
  3
ACAD_MLINESTYLE
350
10
  3
ACAD_PLOTSETTINGS
350
11
  3
ACAD_PLOTSTYLENAME
350
12
  3
ACAD_SCALELIST
350
14
  3
ACAD_TABLESTYLE
350
15
  3
ACAD_VISUALSTYLE
350
16
  3
EZDXF_META
350
2D
  0
DICTIONARY
  5
B
330
A
100
AcDbDictionary
280
0
281
1
  0
DICTIONARY
  5
C
330
A
100
AcDbDictionary
280
0
281
1
  0
DICTIONARY
  5
D
330
A
100
AcDbDictionary
280
0
281
1
  3
Model
350
1A
  3
Layout1
350
1E
  0
DICTIONARY
  5
E
330
A
100
AcDbDictionary
280
0
281
1
  3
ByBlock
350
1F
  3
ByLayer
350
20
  3
Global
350
21
  0
DICTIONARY
  5
F
330
A
100
AcDbDictionary
280
0
281
1
  3
Standard
350
2C
  0
DICTIONARY
  5
10
330
A
100
AcDbDictionary
280
0
281
1
  3
Standard
350
22
  0
DICTIONARY
  5
11
330
A
100
AcDbDictionary
280
0
281
1
  0
ACDBDICTIONARYWDFLT
  5
12
330
A
100
AcDbDictionary
280
0
281
1
  3
Normal
350
13
100
AcDbDictionaryWithDefault
340
13
  0
ACDBPLACEHOLDER
  5
13
330
12
  0
DICTIONARY
  5
14
330
A
100
AcDbDictionary
280
0
281
1
  0
DICTIONARY
  5
15
330
A
100
AcDbDictionary
280
0
281
1
  0
DICTIONARY
  5
16
330
A
100
AcDbDictionary
280
0
281
1
  0
LAYOUT
  5
1A
330
D
100
AcDbPlotSettings
  1

  2
Adobe PDF
  4
A3
  6

 40
7.5
 41
20.0
 42
7.5
 43
20.0
 44
420.0
 45
297.0
 46
0.0
 47
0.0
 48
0.0
 49
0.0
140
0.0
141
0.0
142
1.0
143
1.0
 70
1024
 72
1
 73
0
 74
5
  7

 75
16
 76
0
 77
2
 78
300
147
1.0
148
0.0
149
0.0
100
AcDbLayout
  1
Model
 70
1
 71
0
 10
0.0
 20
0.0
 11
420.0
 21
297.0
 12
0.0
 22
0.0
 32
0.0
 14
1e+20
 24
1e+20
 34
1e+20
 15
-1e+20
 25
-1e+20
 35
-1e+20
146
0.0
 13
0.0
 23
0.0
 33
0.0
 16
1.0
 26
0.0
 36
0.0
 17
0.0
 27
1.0
 37
0.0
 76
1
330
17
  0
LAYOUT
  5
1E
330
D
100
AcDbPlotSettings
  1

  2
Adobe PDF
  4
A3
  6

 40
7.5
 41
20.0
 42
7.5
 43
20.0
 44
420.0
 45
297.0
 46
0.0
 47
0.0
 48
0.0
 49
0.0
140
0.0
141
0.0
142
1.0
143
1.0
 70
0
 72
1
 73
0
 74
5
  7

 75
16
 76
0
 77
2
 78
300
147
1.0
148
0.0
149
0.0
100
AcDbLayout
  1
Layout1
 70
1
 71
1
 10
0.0
 20
0.0
 11
420.0
 21
297.0
 12
0.0
 22
0.0
 32
0.0
 14
1e+20
 24
1e+20
 34
1e+20
 15
-1e+20
 25
-1e+20
 35
-1e+20
146
0.0
 13
0.0
 23
0.0
 33
0.0
 16
1.0
 26
0.0
 36
0.0
 17
0.0
 27
1.0
 37
0.0
 76
1
330
1B
  0
MATERIAL
  5
1F
102
{ACAD_REACTORS
330
E
102
}
330
E
100
AcDbMaterial
  1
ByBlock
  2

 70
0
 40
1.0
 71
1
 41
1.0
 91
-1023410177
 42
1.0
 72
1
  3

 73
1
 74
1
 75
1
 44
0.5
 73
0
 45
1.0
 46
1.0
 77
1
  4

 78
1
 79
1
170
1
 48
1.0
171
1
  6

172
1
173
1
174
1
140
1.0
141
1.0
175
1
  7

176
1
177
1
178
1
143
1.0
179
1
  8

270
1
271
1
272
1
145
1.0
146
1.0
273
1
  9

274
1
275
1
276
1
 42
1.0
 72
1
  3

 73
1
 74
1
 75
1
 94
63
  0
MATERIAL
  5
20
102
{ACAD_REACTORS
330
E
102
}
330
E
100
AcDbMaterial
  1
ByLayer
  2

 70
0
 40
1.0
 71
1
 41
1.0
 91
-1023410177
 42
1.0
 72
1
  3

 73
1
 74
1
 75
1
 44
0.5
 73
0
 45
1.0
 46
1.0
 77
1
  4

 78
1
 79
1
170
1
 48
1.0
171
1
  6

172
1
173
1
174
1
140
1.0
141
1.0
175
1
  7

176
1
177
1
178
1
143
1.0
179
1
  8

270
1
271
1
272
1
145
1.0
146
1.0
273
1
  9

274
1
275
1
276
1
 42
1.0
 72
1
  3

 73
1
 74
1
 75
1
 94
63
  0
MATERIAL
  5
21
102
{ACAD_REACTORS
330
E
102
}
330
E
100
AcDbMaterial
  1
Global
  2

 70
0
 40
1.0
 71
1
 41
1.0
 91
-1023410177
 42
1.0
 72
1
  3

 73
1
 74
1
 75
1
 44
0.5
 73
0
 45
1.0
 46
1.0
 77
1
  4

 78
1
 79
1
170
1
 48
1.0
171
1
  6

172
1
173
1
174
1
140
1.0
141
1.0
175
1
  7

176
1
177
1
178
1
143
1.0
179
1
  8

270
1
271
1
272
1
145
1.0
146
1.0
273
1
  9

274
1
275
1
276
1
 42
1.0
 72
1
  3

 73
1
 74
1
 75
1
 94
63
  0
MLINESTYLE
  5
22
102
{ACAD_REACTORS
330
10
102
}
330
10
100
AcDbMlineStyle
  2
Standard
 70
0
  3

 62
256
 51
90.0
 52
90.0
 71
2
 49
0.5
 62
256
  6
BYLAYER
 49
-0.5
 62
256
  6
BYLAYER
  0
MLEADERSTYLE
  5
2C
102
{ACAD_REACTORS
330
F
102
}
330
F
100
AcDbMLeaderStyle
179
2
170
2
171
1
172
0
 90
2
 40
0.0
 41
0.0
173
1
 91
-1056964608
 92
-2
290
1
 42
2.0
291
1
 43
8.0
  3
Standard
 44
4.0
300

342
29
174
1
175
1
176
0
178
1
 93
-1056964608
 45
4.0
292
0
297
0
 46
4.0
 94
-1056964608
 47
1.0
 49
1.0
140
1.0
294
1
141
0.0
177
0
142
1.0
295
0
296
0
143
3.75
271
0
272
9
273
9
  0
DICTIONARY
  5
2D
330
A
100
AcDbDictionary
281
1
  3
CREATED_BY_EZDXF
350
2E
  3
WRITTEN_BY_EZDXF
350
64
  0
DICTIONARYVAR
  5
2E
330
2D
100
DictionaryVariables
280
0
  1
1.1.1 @ 2024-05-17T22:39:08.781602+00:00
  0
DICTIONARYVAR
  5
64
330
2D
100
DictionaryVariables
280
0
  1
1.1.1 @ 2024-05-17T22:39:08.817602+00:00
  0
ENDSEC
  0
EOF
