  0
SECTION
  2
HEADER
  9
$ACADVER
  1
AC1024
  9
$ACADMAINTVER
 70
6
  9
$DWGCODEPAGE
  3
ANSI_1252
  9
$LASTSAVEDBY
  1
ezdxf
  9
$INSBASE
 10
0.0
 20
0.0
 30
0.0
  9
$EXTMIN
 10
1e+20
 20
1e+20
 30
1e+20
  9
$EXTMAX
 10
-1e+20
 20
-1e+20
 30
-1e+20
  9
$LIMMIN
 10
0.0
 20
0.0
  9
$LIMMAX
 10
420.0
 20
297.0
  9
$ORTHOMODE
 70
0
  9
$REGENMODE
 70
1
  9
$FILLMODE
 70
1
  9
$QTEXTMODE
 70
0
  9
$MIRRTEXT
 70
1
  9
$LTSCALE
 40
1.0
  9
$ATTMODE
 70
1
  9
$TEXTSIZE
 40
2.5
  9
$TRACEWID
 40
1.0
  9
$TEXTSTYLE
  7
Standard
  9
$CLAYER
  8
0
  9
$CELTYPE
  6
ByLayer
  9
$CECOLOR
 62
256
  9
$CELTSCALE
 40
1.0
  9
$DISPSILH
 70
0
  9
$DIMSCALE
 40
1.0
  9
$DIMASZ
 40
2.5
  9
$DIMEXO
 40
0.625
  9
$DIMDLI
 40
3.75
  9
$DIMRND
 40
0.0
  9
$DIMDLE
 40
0.0
  9
$DIMEXE
 40
1.25
  9
$DIMTP
 40
0.0
  9
$DIMTM
 40
0.0
  9
$DIMTXT
 40
2.5
  9
$DIMCEN
 40
2.5
  9
$DIMTSZ
 40
0.0
  9
$DIMTOL
 70
0
  9
$DIMLIM
 70
0
  9
$DIMTIH
 70
0
  9
$DIMTOH
 70
0
  9
$DIMSE1
 70
0
  9
$DIMSE2
 70
0
  9
$DIMTAD
 70
1
  9
$DIMZIN
 70
8
  9
$DIMBLK
  1

  9
$DIMASO
 70
1
  9
$DIMSHO
 70
1
  9
$DIMPOST
  1

  9
$DIMAPOST
  1

  9
$DIMALT
 70
0
  9
$DIMALTD
 70
3
  9
$DIMALTF
 40
0.03937007874
  9
$DIMLFAC
 40
1.0
  9
$DIMTOFL
 70
1
  9
$DIMTVP
 40
0.0
  9
$DIMTIX
 70
0
  9
$DIMSOXD
 70
0
  9
$DIMSAH
 70
0
  9
$DIMBLK1
  1

  9
$DIMBLK2
  1

  9
$DIMSTYLE
  2
ISO-25
  9
$DIMCLRD
 70
0
  9
$DIMCLRE
 70
0
  9
$DIMCLRT
 70
0
  9
$DIMTFAC
 40
1.0
  9
$DIMGAP
 40
0.625
  9
$DIMJUST
 70
0
  9
$DIMSD1
 70
0
  9
$DIMSD2
 70
0
  9
$DIMTOLJ
 70
0
  9
$DIMTZIN
 70
8
  9
$DIMALTZ
 70
0
  9
$DIMALTTZ
 70
0
  9
$DIMUPT
 70
0
  9
$DIMDEC
 70
2
  9
$DIMTDEC
 70
2
  9
$DIMALTU
 70
2
  9
$DIMALTTD
 70
3
  9
$DIMTXSTY
  7
Standard
  9
$DIMAUNIT
 70
0
  9
$DIMADEC
 70
0
  9
$DIMALTRND
 40
0.0
  9
$DIMAZIN
 70
0
  9
$DIMDSEP
 70
44
  9
$DIMATFIT
 70
3
  9
$DIMFRAC
 70
0
  9
$DIMLDRBLK
  1

  9
$DIMLUNIT
 70
2
  9
$DIMLWD
 70
-2
  9
$DIMLWE
 70
-2
  9
$DIMTMOVE
 70
0
  9
$DIMFXL
 40
1.0
  9
$DIMFXLON
 70
0
  9
$DIMJOGANG
 40
0.785398163397
  9
$DIMTFILL
 70
0
  9
$DIMTFILLCLR
 70
0
  9
$DIMARCSYM
 70
0
  9
$DIMLTYPE
  6

  9
$DIMLTEX1
  6

  9
$DIMLTEX2
  6

  9
$DIMTXTDIRECTION
 70
0
  9
$LUNITS
 70
2
  9
$LUPREC
 70
4
  9
$SKETCHINC
 40
1.0
  9
$FILLETRAD
 40
10.0
  9
$AUNITS
 70
0
  9
$AUPREC
 70
2
  9
$MENU
  1
.
  9
$ELEVATION
 40
0.0
  9
$PELEVATION
 40
0.0
  9
$THICKNESS
 40
0.0
  9
$LIMCHECK
 70
0
  9
$CHAMFERA
 40
0.0
  9
$CHAMFERB
 40
0.0
  9
$CHAMFERC
 40
0.0
  9
$CHAMFERD
 40
0.0
  9
$SKPOLY
 70
0
  9
$TDCREATE
 40
2460235.497951389
  9
$TDUCREATE
 40
2458532.153996898
  9
$TDUPDATE
 40
2460235.497951389
  9
$TDUUPDATE
 40
2458532.1544311
  9
$TDINDWG
 40
0.0
  9
$TDUSRTIMER
 40
0.0
  9
$USRTIMER
 70
1
  9
$ANGBASE
 50
0.0
  9
$ANGDIR
 70
0
  9
$PDMODE
 70
0
  9
$PDSIZE
 40
0.0
  9
$PLINEWID
 40
0.0
  9
$SPLFRAME
 70
0
  9
$SPLINETYPE
 70
6
  9
$SPLINESEGS
 70
8
  9
$HANDSEED
  5
8B
  9
$SURFTAB1
 70
6
  9
$SURFTAB2
 70
6
  9
$SURFTYPE
 70
6
  9
$SURFU
 70
6
  9
$SURFV
 70
6
  9
$UCSBASE
  2

  9
$UCSNAME
  2

  9
$UCSORG
 10
0.0
 20
0.0
 30
0.0
  9
$UCSXDIR
 10
1.0
 20
0.0
 30
0.0
  9
$UCSYDIR
 10
0.0
 20
1.0
 30
0.0
  9
$UCSORTHOREF
  2

  9
$UCSORTHOVIEW
 70
0
  9
$UCSORGTOP
 10
0.0
 20
0.0
 30
0.0
  9
$UCSORGBOTTOM
 10
0.0
 20
0.0
 30
0.0
  9
$UCSORGLEFT
 10
0.0
 20
0.0
 30
0.0
  9
$UCSORGRIGHT
 10
0.0
 20
0.0
 30
0.0
  9
$UCSORGFRONT
 10
0.0
 20
0.0
 30
0.0
  9
$UCSORGBACK
 10
0.0
 20
0.0
 30
0.0
  9
$PUCSBASE
  2

  9
$PUCSNAME
  2

  9
$PUCSORG
 10
0.0
 20
0.0
 30
0.0
  9
$PUCSXDIR
 10
1.0
 20
0.0
 30
0.0
  9
$PUCSYDIR
 10
0.0
 20
1.0
 30
0.0
  9
$PUCSORTHOREF
  2

  9
$PUCSORTHOVIEW
 70
0
  9
$PUCSORGTOP
 10
0.0
 20
0.0
 30
0.0
  9
$PUCSORGBOTTOM
 10
0.0
 20
0.0
 30
0.0
  9
$PUCSORGLEFT
 10
0.0
 20
0.0
 30
0.0
  9
$PUCSORGRIGHT
 10
0.0
 20
0.0
 30
0.0
  9
$PUCSORGFRONT
 10
0.0
 20
0.0
 30
0.0
  9
$PUCSORGBACK
 10
0.0
 20
0.0
 30
0.0
  9
$USERI1
 70
0
  9
$USERI2
 70
0
  9
$USERI3
 70
0
  9
$USERI4
 70
0
  9
$USERI5
 70
0
  9
$USERR1
 40
0.0
  9
$USERR2
 40
0.0
  9
$USERR3
 40
0.0
  9
$USERR4
 40
0.0
  9
$USERR5
 40
0.0
  9
$WORLDVIEW
 70
1
  9
$SHADEDGE
 70
3
  9
$SHADEDIF
 70
70
  9
$TILEMODE
 70
1
  9
$MAXACTVP
 70
64
  9
$PINSBASE
 10
0.0
 20
0.0
 30
0.0
  9
$PLIMCHECK
 70
0
  9
$PEXTMIN
 10
1e+20
 20
1e+20
 30
1e+20
  9
$PEXTMAX
 10
-1e+20
 20
-1e+20
 30
-1e+20
  9
$PLIMMIN
 10
0.0
 20
0.0
  9
$PLIMMAX
 10
420.0
 20
297.0
  9
$UNITMODE
 70
0
  9
$VISRETAIN
 70
1
  9
$PLINEGEN
 70
0
  9
$PSLTSCALE
 70
1
  9
$TREEDEPTH
 70
3020
  9
$CMLSTYLE
  2
Standard
  9
$CMLJUST
 70
0
  9
$CMLSCALE
 40
20.0
  9
$PROXYGRAPHICS
 70
1
  9
$MEASUREMENT
 70
1
  9
$CELWEIGHT
370
-1
  9
$ENDCAPS
280
0
  9
$JOINSTYLE
280
0
  9
$LWDISPLAY
290
0
  9
$INSUNITS
 70
4
  9
$HYPERLINKBASE
  1

  9
$STYLESHEET
  1

  9
$XEDIT
290
1
  9
$CEPSNTYPE
380
0
  9
$PSTYLEMODE
290
1
  9
$FINGERPRINTGUID
  2
{7C7C451C-6920-4EEE-AD82-80EC5BBA1A57}
  9
$VERSIONGUID
  2
{20DEB49D-E64E-455A-82D2-193BE1BF1DA1}
  9
$EXTNAMES
290
1
  9
$PSVPSCALE
 40
0.0
  9
$OLESTARTUP
290
0
  9
$SORTENTS
280
127
  9
$INDEXCTL
280
0
  9
$HIDETEXT
280
1
  9
$XCLIPFRAME
280
0
  9
$HALOGAP
280
0
  9
$OBSCOLOR
 70
257
  9
$OBSLTYPE
280
0
  9
$INTERSECTIONDISPLAY
280
0
  9
$INTERSECTIONCOLOR
 70
257
  9
$DIMASSOC
280
2
  9
$PROJECTNAME
  1

  9
$CAMERADISPLAY
290
0
  9
$LENSLENGTH
 40
50.0
  9
$CAMERAHEIGHT
 40
0.0
  9
$STEPSPERSEC
 40
24.0
  9
$STEPSIZE
 40
100.0
  9
$3DDWFPREC
 40
2.0
  9
$PSOLWIDTH
 40
0.005
  9
$PSOLHEIGHT
 40
0.08
  9
$LOFTANG1
 40
1.570796326795
  9
$LOFTANG2
 40
1.570796326795
  9
$LOFTMAG1
 40
0.0
  9
$LOFTMAG2
 40
0.0
  9
$LOFTPARAM
 70
7
  9
$LOFTNORMALS
280
1
  9
$LATITUDE
 40
37.795
  9
$LONGITUDE
 40
-122.394
  9
$NORTHDIRECTION
 40
0.0
  9
$TIMEZONE
 70
-8000
  9
$LIGHTGLYPHDISPLAY
280
1
  9
$TILEMODELIGHTSYNCH
280
1
  9
$CMATERIAL
347
20
  9
$SOLIDHIST
280
0
  9
$SHOWHIST
280
1
  9
$DWFFRAME
280
2
  9
$DGNFRAME
280
2
  9
$REALWORLDSCALE
290
1
  9
$INTERFERECOLOR
 62
256
  9
$CSHADOW
280
0
  9
$SHADOWPLANELOCATION
 40
0.0
  0
ENDSEC
  0
SECTION
  2
CLASSES
  0
CLASS
  1
ACDBDICTIONARYWDFLT
  2
AcDbDictionaryWithDefault
  3
ObjectDBX Classes
 90
0
 91
0
280
0
281
0
  0
CLASS
  1
SUN
  2
AcDbSun
  3
SCENEOE
 90
1153
 91
0
280
0
281
0
  0
CLASS
  1
VISUALSTYLE
  2
AcDbVisualStyle
  3
ObjectDBX Classes
 90
4095
 91
0
280
0
281
0
  0
CLASS
  1
MATERIAL
  2
AcDbMaterial
  3
ObjectDBX Classes
 90
1153
 91
0
280
0
281
0
  0
CLASS
  1
SCALE
  2
AcDbScale
  3
ObjectDBX Classes
 90
1153
 91
0
280
0
281
0
  0
CLASS
  1
TABLESTYLE
  2
AcDbTableStyle
  3
ObjectDBX Classes
 90
4095
 91
0
280
0
281
0
  0
CLASS
  1
MLEADERSTYLE
  2
AcDbMLeaderStyle
  3
ACDB_MLEADERSTYLE_CLASS
 90
4095
 91
0
280
0
281
0
  0
CLASS
  1
DICTIONARYVAR
  2
AcDbDictionaryVar
  3
ObjectDBX Classes
 90
0
 91
0
280
0
281
0
  0
CLASS
  1
CELLSTYLEMAP
  2
AcDbCellStyleMap
  3
ObjectDBX Classes
 90
1152
 91
0
280
0
281
0
  0
CLASS
  1
MENTALRAYRENDERSETTINGS
  2
AcDbMentalRayRenderSettings
  3
SCENEOE
 90
1024
 91
0
280
0
281
0
  0
CLASS
  1
ACDBDETAILVIEWSTYLE
  2
AcDbDetailViewStyle
  3
ObjectDBX Classes
 90
1025
 91
0
280
0
281
0
  0
CLASS
  1
ACDBSECTIONVIEWSTYLE
  2
AcDbSectionViewStyle
  3
ObjectDBX Classes
 90
1025
 91
0
280
0
281
0
  0
CLASS
  1
RASTERVARIABLES
  2
AcDbRasterVariables
  3
ISM
 90
0
 91
0
280
0
281
0
  0
CLASS
  1
LAYOUT
  2
AcDbLayout
  3
ObjectDBX Classes
 90
0
 91
0
280
0
281
0
  0
CLASS
  1
ACDBPLACEHOLDER
  2
AcDbPlaceHolder
  3
ObjectDBX Classes
 90
0
 91
0
280
0
281
0
  0
ENDSEC
  0
SECTION
  2
TABLES
  0
TABLE
  2
VPORT
  5
8
330
0
100
AcDbSymbolTable
 70
1
  0
VPORT
  5
23
330
8
100
AcDbSymbolTableRecord
100
AcDbViewportTableRecord
  2
*Active
 70
0
 10
0.0
 20
0.0
 11
1.0
 21
1.0
 12
0.0
 22
0.0
 13
0.0
 23
0.0
 14
0.5
 24
0.5
 15
0.5
 25
0.5
 16
0.0
 26
0.0
 36
1.0
 17
0.0
 27
0.0
 37
0.0
 40
1000.0
 41
1.34
 42
50.0
 43
0.0
 44
0.0
 50
0.0
 51
0.0
 71
0
 72
1000
 73
1
 74
3
 75
0
 76
0
 77
0
 78
0
281
0
 65
0
146
0.0
  0
ENDTAB
  0
TABLE
  2
LTYPE
  5
2
330
0
100
AcDbSymbolTable
 70
3
  0
LTYPE
  5
24
330
2
100
AcDbSymbolTableRecord
100
AcDbLinetypeTableRecord
  2
ByBlock
 70
0
  3

 72
65
 73
0
 40
0.0
  0
LTYPE
  5
25
330
2
100
AcDbSymbolTableRecord
100
AcDbLinetypeTableRecord
  2
ByLayer
 70
0
  3

 72
65
 73
0
 40
0.0
  0
LTYPE
  5
26
330
2
100
AcDbSymbolTableRecord
100
AcDbLinetypeTableRecord
  2
Continuous
 70
0
  3

 72
65
 73
0
 40
0.0
  0
ENDTAB
  0
TABLE
  2
LAYER
  5
1
330
0
100
AcDbSymbolTable
 70
2
  0
LAYER
  5
27
330
1
100
AcDbSymbolTableRecord
100
AcDbLayerTableRecord
  2
0
 70
0
 62
7
  6
Continuous
370
-3
390
13
347
21
  0
LAYER
  5
28
330
1
100
AcDbSymbolTableRecord
100
AcDbLayerTableRecord
  2
Defpoints
 70
0
 62
7
  6
Continuous
290
0
370
-3
390
13
347
21
  0
ENDTAB
  0
TABLE
  2
STYLE
  5
5
330
0
100
AcDbSymbolTable
 70
1
  0
STYLE
  5
29
330
5
100
AcDbSymbolTableRecord
100
AcDbTextStyleTableRecord
  2
Standard
 70
0
 40
0.0
 41
1.0
 50
0.0
 71
0
 42
2.5
  3
txt
  4

  0
ENDTAB
  0
TABLE
  2
VIEW
  5
7
330
0
100
AcDbSymbolTable
 70
0
  0
ENDTAB
  0
TABLE
  2
UCS
  5
6
330
0
100
AcDbSymbolTable
 70
0
  0
ENDTAB
  0
TABLE
  2
APPID
  5
3
330
0
100
AcDbSymbolTable
 70
3
  0
APPID
  5
2A
330
3
100
AcDbSymbolTableRecord
100
AcDbRegAppTableRecord
  2
ACAD
 70
0
  0
APPID
  5
88
330
3
100
AcDbSymbolTableRecord
100
AcDbRegAppTableRecord
  2
HATCHBACKGROUNDCOLOR
 70
0
  0
APPID
  5
89
330
3
100
AcDbSymbolTableRecord
100
AcDbRegAppTableRecord
  2
EZDXF
 70
0
  0
ENDTAB
  0
TABLE
  2
DIMSTYLE
  5
4
330
0
100
AcDbSymbolTable
 70
1
100
AcDbDimStyleTable
  0
DIMSTYLE
105
2B
330
4
100
AcDbSymbolTableRecord
100
AcDbDimStyleTableRecord
  2
Standard
 70
0
 40
1.0
 41
2.5
 42
0.625
 43
3.75
 44
1.25
 45
0.0
 46
0.0
 47
0.0
 48
0.0
 49
2.5
140
2.5
141
2.5
142
0.0
143
0.03937007874
144
1.0
145
0.0
146
1.0
147
0.625
148
0.0
 69
0
 70
0
 71
0
 72
0
 73
0
 74
0
 75
0
 76
0
 77
1
 78
8
 79
3
170
0
171
3
172
1
173
0
174
0
175
0
176
0
177
0
178
0
179
2
271
2
272
2
273
2
274
3
275
0
276
0
277
2
278
44
279
0
280
0
281
0
282
0
283
0
284
8
285
0
286
0
288
0
289
3
290
0
371
-2
372
-2
  0
ENDTAB
  0
TABLE
  2
BLOCK_RECORD
  5
9
330
0
100
AcDbSymbolTable
 70
2
  0
BLOCK_RECORD
  5
17
330
9
100
AcDbSymbolTableRecord
100
AcDbBlockTableRecord
  2
*Model_Space
340
1A
 70
0
280
1
281
0
  0
BLOCK_RECORD
  5
1B
330
9
100
AcDbSymbolTableRecord
100
AcDbBlockTableRecord
  2
*Paper_Space
340
1E
 70
0
280
1
281
0
  0
ENDTAB
  0
ENDSEC
  0
SECTION
  2
BLOCKS
  0
BLOCK
  5
18
330
17
100
AcDbEntity
  8
0
100
AcDbBlockBegin
  2
*Model_Space
 70
0
 10
0.0
 20
0.0
 30
0.0
  3
*Model_Space
  1

  0
ENDBLK
  5
19
330
17
100
AcDbEntity
  8
0
100
AcDbBlockEnd
  0
BLOCK
  5
1C
330
1B
100
AcDbEntity
  8
0
100
AcDbBlockBegin
  2
*Paper_Space
 70
0
 10
0.0
 20
0.0
 30
0.0
  3
*Paper_Space
  1

  0
ENDBLK
  5
1D
330
1B
100
AcDbEntity
  8
0
100
AcDbBlockEnd
  0
ENDSEC
  0
SECTION
  2
ENTITIES
  0
LWPOLYLINE
  5
2F
330
17
100
AcDbEntity
  8
default
100
AcDbPolyline
 90
669
 70
0
 10
-8.444894542420233
 20
-2.7233160541326487
 10
-8.733080866285984
 20
-2.7440090075267287
 10
-12.674488332593267
 20
-2.8366795450581046
 10
-12.95989697718909
 20
-2.8298020985186314
 10
-13.243359526487863
 20
-2.7958259771100877
 10
-13.522308899747989
 20
-2.7350588738492694
 10
-13.794218888248952
 20
-2.6480511050333
 10
-14.056627033028695
 20
-2.5355906264900296
 10
-14.307156925293286
 20
-2.3986958977280373
 10
-14.543539727542965
 20
-2.238606658609611
 10
-14.76363472051587
 20
-2.056772702074576
 10
-14.96544868987317
 20
-1.8548407445909265
 10
-15.147153977056778
 20
-1.6346395132354925
 10
-15.307105030848275
 20
-1.398163184458345
 10
-16.658671698047414
 20
0.8206805547165181
 10
-16.658671698685325
 20
0.8206805546710814
 10
-19.25603007819835
 20
0.7596113553213502
 10
-19.54143872278543
 20
0.766488801829845
 10
-19.824901272078556
 20
0.8004649232058227
 10
-20.103850645336344
 20
0.8612320264328037
 10
-20.37576063383848
 20
0.9482397952140063
 10
-20.638168778623044
 20
1.060700273721948
 10
-20.88869867089623
 20
1.1975950024484368
 10
-21.125081473158343
 20
1.3576842415315897
 10
-21.345176466147553
 20
1.5395181980319963
 10
-21.546990435525018
 20
1.741450155482085
 10
-21.72869572273259
 20
1.9616513868054528
 10
-21.88864677655173
 20
2.19812771555245
 10
-23.67912060510961
 20
5.137517787685843
 10
-23.8237193993285
 20
5.404425544117334
 10
-23.940605037264
 20
5.684579625610463
 10
-24.02858075853579
 20
5.975111610423765
 10
-24.086745803568014
 20
6.2730468202752485
 10
-24.11450463622259
 20
6.5753347772674235
 10
-24.111573041332342
 20
6.878880436904072
 10
-24.07798103470313
 20
7.180575877412328
 10
-24.01407255579013
 20
7.477332120911727
 10
-23.920501946194946
 20
7.766110760621858
 10
-23.40908413352716
 20
9.108651282262189
 10
-23.293589238089094
 20
9.372902447065556
 10
-23.15325503298173
 20
9.624843035000627
 10
-22.989378327087568
 20
9.862144898114812
 10
-22.946506254662168
 20
9.912988205440204
 10
-23.03645670439894
 20
10.177253142688729
 10
-23.102643915987354
 20
10.457222459507344
 10
-23.141709874917993
 20
10.742244241465425
 10
-23.153295332519246
 20
11.029697442021448
 10
-23.13729374948255
 20
11.31693865542588
 10
-23.093852275592695
 20
11.6013264253528
 10
-23.02337039654553
 20
11.8802455356047
 10
-22.926496260296798
 20
12.151131059514327
 10
-21.56729113400007
 20
15.44451258751188
 10
-21.567291133795372
 20
15.444512587947802
 10
-23.151548495439545
 20
17.503669845456745
 10
-23.314672131602308
 20
17.737968955558205
 10
-23.45478558495664
 20
17.986713028569852
 10
-23.57061996637209
 20
18.247649399647933
 10
-23.661126261753356
 20
18.51841498860941
 10
-23.72548483207438
 20
18.79655770035202
 10
-23.763112836156264
 20
19.079558631407224
 10
-23.77366950896727
 20
19.36485488152008
 10
-23.757059247643696
 20
19.64986276367084
 10
-23.713432477284226
 20
19.93200120234466
 10
-23.64318428867693
 20
20.208715108151164
 10
-23.546950860295922
 20
20.477498517109634
 10
-21.430304449398548
 20
25.606175605411263
 10
-21.30631751732571
 20
25.869572737941034
 10
-21.15738441609723
 20
26.119712179269683
 10
-20.9849076124663
 20
26.354238427180228
 10
-20.89099373901572
 20
26.45892952855705
 10
-20.95742126034548
 20
26.68202778071039
 10
-21.012691261076363
 20
26.963949817320948
 10
-21.040741126209166
 20
27.249865911260187
 10
-21.316284437819984
 20
32.76801960944378
 10
-21.31693896639365
 20
33.05351035408342
 10
-21.290452910626172
 20
33.33777059142314
 10
-21.237066132340033
 20
33.61822601673486
 10
-21.157262110466533
 20
33.892336782257416
 10
-21.0517635625857
 20
34.1576204984512
 10
-20.921525899883974
 20
34.41167471490222
 10
-20.767728574802554
 20
34.65219867728507
 10
-20.59176439973345
 20
34.877014163350424
 10
-20.395226933494776
 20
35.084085209242964
 10
-20.179896049815326
 20
35.2715365475054
 10
-19.947721818522474
 20
35.437670589790905
 10
-17.76530706981655
 20
36.84730382765945
 10
-17.765307069483256
 20
36.8473038278529
 10
-17.95014608387035
 20
40.548972665506426
 10
-17.950714363721893
 20
40.83635258761504
 10
-17.923782504553984
 20
41.122468329116444
 10
-17.869597643707248
 20
41.404694379345976
 10
-17.78865700279302
 20
41.68044092097711
 10
-17.681703324992117
 20
41.94717759520472
 10
-17.549718059351072
 20
42.20245672131338
 10
-17.39391235461934
 20
42.44393575755916
 10
-17.21571594527167
 20
42.669398797254665
 10
-16.965154287512163
 20
42.956960449549314
 10
-16.972007145129282
 20
42.97216065220334
 10
-17.067209412311623
 20
43.255866034238345
 10
-17.99536225708709
 20
46.5598156110409
 10
-18.059408879836628
 20
46.838030319128194
 10
-18.096719505180076
 20
47.12107326802147
 10
-18.106956242316635
 20
47.40638117694535
 10
-18.090026385769605
 20
47.69137025329569
 10
-18.04608325494153
 20
47.97345959186549
 10
-17.975524805629924
 20
48.25009454792214
 10
-17.87899002607799
 20
48.51876987246568
 10
-17.757353150198096
 20
48.777052400151746
 10
-17.61171574037411
 20
49.02260308441363
 10
-17.443396711541865
 20
49.253198180230285
 10
-17.25392038689126
 20
49.46674938270552
 10
-15.439099737788927
 20
51.325895963736905
 10
-15.439099737168764
 20
51.32589596431449
 10
-16.141757581263917
 20
53.82715003981311
 10
-16.141757581335654
 20
53.82715004012473
 10
-18.65923607391031
 20
54.46925753523098
 10
-18.93220039013807
 20
54.55289888695682
 10
-19.19597808685755
 20
54.66210841202482
 10
-19.448180352401224
 20
54.79589709206485
 10
-19.68652320399874
 20
54.95305331607325
 10
-19.90884817187858
 20
55.13215385294972
 10
-20.113141846704558
 20
55.33157674049855
 10
-20.297554113322516
 20
55.5495159741694
 10
-20.460414905689678
 20
55.78399786251423
 10
-20.600249331251334
 20
56.03289890124258
 10
-20.715791027796204
 20
56.293965004005365
 10
-20.805993631828713
 20
56.5648319157498
 10
-21.508651476234334
 20
59.0660859923536
 10
-21.572698099020222
 20
59.34430070047033
 10
-21.610008724393577
 20
59.62734364939681
 10
-21.620245461553246
 20
59.91265155835672
 10
-21.603315605022296
 20
60.197640634744914
 10
-21.55937247420315
 20
60.479729973353386
 10
-21.488814024893372
 20
60.75636492944851
 10
-21.39227924533629
 20
61.02504025402935
 10
-21.270642369444552
 20
61.28332278175054
 10
-21.12500495960242
 20
61.528873466044494
 10
-20.956685930746225
 20
61.759468561889264
 10
-20.76720960606648
 20
61.97301976438789
 10
-18.825337772448812
 20
63.96232068062671
 10
-20.212026111176584
 20
66.60416741132107
 10
-20.33597516309466
 20
66.8714340355651
 10
-20.433111761903202
 20
67.14956942899445
 10
-20.50249913502318
 20
67.43589129046805
 10
-20.543468119757236
 20
67.72763836962405
 10
-20.555623616606724
 20
68.02199709601504
 10
-20.538848399559278
 20
68.31612871281133
 10
-20.49330424660105
 20
68.60719665339825
 10
-20.41943037955111
 20
68.89239389685142
 10
-20.317939228264002
 20
69.1689700384772
 10
-20.18980956004996
 20
69.4342578143538
 10
-19.07623767267976
 20
71.47718254539231
 10
-19.076237672529242
 20
71.47718254563966
 10
-19.076237672780813
 20
71.47718254601077
 10
-20.43008368492982
 20
73.6946362604709
 10
-20.56708941540848
 20
73.94510546720286
 10
-20.679666161566985
 20
74.20746375262434
 10
-20.766794410958934
 20
74.47933515947476
 10
-20.827685116665485
 20
74.75825757819274
 10
-20.861786843026465
 20
75.04170504416153
 10
-20.868790759527087
 20
75.32711061323576
 10
-20.848633437614925
 20
75.6118896083851
 10
-20.801497425118697
 20
75.89346302692968
 10
-20.727809593066873
 20
76.16928089638783
 10
-20.628237269877516
 20
76.43684536742165
 10
-20.50368219792882
 20
76.69373333474746
 10
-19.671174569069084
 20
78.22102622196647
 10
-19.672391260571644
 20
78.22396357509318
 10
-19.738512867013487
 20
78.40876108531444
 10
-19.82397443104805
 20
78.69049010578128
 10
-19.871664320390092
 20
78.88087881625795
 10
-19.929100090700803
 20
79.16962793260166
 10
-19.957898983238735
 20
79.36377429597479
 10
-19.98675582195991
 20
79.65676269635863
 10
-19.996386368615518
 20
79.85279697701775
 10
-19.996386368615518
 20
80.14720302298225
 10
-19.994864980158884
 20
80.17817159645631
 10
-20.61407996776738
 20
81.1923789447898
 10
-20.751085698261804
 20
81.44284815149328
 10
-20.86366244444023
 20
81.70520643688724
 10
-20.950790693856202
 20
81.97707784371165
 10
-21.011681399590763
 20
82.25600026240568
 10
-21.045783125983554
 20
82.5394477283531
 10
-21.052787042519533
 20
82.82485329740902
 10
-21.032629720645964
 20
83.10963229254361
 10
-20.985493708191196
 20
83.39120571107748
 10
-20.911805876183266
 20
83.66702358052932
 10
-20.81223355303976
 20
83.9345880515616
 10
-20.68767848113835
 20
84.19147601889097
 10
-19.444230239058882
 20
86.47266791507252
 10
-19.444230238963012
 20
86.47266791523006
 10
-19.444230239258196
 20
86.47266791566551
 10
-21.365806608812
 20
89.62000270878241
 10
-21.511724621284024
 20
89.8889445674916
 10
-21.62948938600294
 20
90.17135074646161
 10
-21.71787586429764
 20
90.46428353770288
 10
-21.775964622803013
 20
90.76469573097246
 10
-21.80315139779302
 20
91.0694623121381
 10
-21.799153380986375
 20
91.37541297089103
 10
-21.76401216143739
 20
91.67936507964889
 10
-21.698093292909114
 20
91.9781568005879
 10
-21.336560387304424
 20
93.29389298820985
 10
-21.244568852639567
 20
93.57400215033421
 10
-21.16371843895127
 20
93.75719393568708
 10
-21.192618164251552
 20
93.79510306160937
 10
-21.348870814451324
 20
94.04882468546576
 10
-22.098621859354274
 20
95.41375010118655
 10
-22.226062222863362
 20
95.67500665966543
 10
-22.327619883266003
 20
95.94737052880578
 10
-22.402341371707884
 20
96.22828463447615
 10
-22.4495251693504
 20
96.51511162909065
 10
-22.46872829354408
 20
96.80515865221062
 10
-22.462721089009957
 20
97.0
 10
-25.0
 20
97.0
 10
-25.29405142098868
 20
97.01444581998341
 10
-25.585270966048384
 20
97.05764415879031
 10
-25.870854031763386
 20
97.12917899280338
 10
-26.148050297095267
 20
97.22836140246613
 10
-26.414190210477994
 20
97.35423620695494
 10
-26.666710699058804
 20
97.50559116309236
 10
-26.903179852490936
 20
97.68096863991178
 10
-27.121320343559642
 20
97.87867965644035
 10
-27.31903136008821
 20
98.09682014750906
 10
-27.49440883690764
 20
98.33328930094119
 10
-27.645763793045063
 20
98.585809789522
 10
-27.771638597533858
 20
98.85194970290473
 10
-27.870821007196625
 20
99.12914596823661
 10
-27.94235584120969
 20
99.41472903395162
 10
-27.985554180016592
 20
99.70594857901132
 10
-28.0
 20
100.0
 10
-28.0
 20
105.0
 10
-27.985554180016592
 20
105.29405142098868
 10
-27.94235584120969
 20
105.58527096604838
 10
-27.870821007196625
 20
105.87085403176339
 10
-27.771638597533858
 20
106.14805029709527
 10
-27.645763793045063
 20
106.414190210478
 10
-27.49440883690764
 20
106.66671069905881
 10
-27.31903136008821
 20
106.90317985249094
 10
-27.121320343559642
 20
107.12132034355965
 10
-26.903179852490936
 20
107.31903136008822
 10
-26.666710699058804
 20
107.49440883690764
 10
-26.414190210477994
 20
107.64576379304506
 10
-26.148050297095267
 20
107.77163859753387
 10
-25.870854031763386
 20
107.87082100719662
 10
-25.585270966048384
 20
107.94235584120969
 10
-25.29405142098868
 20
107.98555418001659
 10
-25.0
 20
108.0
 10
-17.728644810748573
 20
108.0
 10
-17.80453074939984
 20
110.57616860399143
 10
-17.79861294939387
 20
110.87248895382197
 10
-17.76348534603737
 20
111.16677932329239
 10
-17.69949078774477
 20
111.45616741321584
 10
-17.671136138153216
 20
111.54275322972738
 10
-17.680934895817085
 20
111.55108889286744
 10
-17.881605315319277
 20
111.75813779135085
 10
-19.18935816811306
 20
113.24414350737668
 10
-19.38057998317254
 20
113.48532969168177
 10
-19.546082808099314
 20
113.74483956239106
 10
-19.684124513117613
 20
114.01994144484543
 10
-19.79325203200506
 20
114.30773953843843
 10
-19.872316657480727
 20
114.60520439863656
 10
-19.920486132824458
 20
114.90920482577343
 10
-19.93725341244765
 20
115.21654082494751
 10
-19.940185232210684
 20
116.13807722632737
 10
-19.926580576431036
 20
116.43316228579359
 10
-19.88402121331062
 20
116.72547886005827
 10
-19.855235943988433
 20
116.84155439869653
 10
-19.944002091692703
 20
116.92370853467547
 10
-20.140993356183337
 20
117.14605652747272
 10
-20.315029039149415
 20
117.3867965724198
 10
-21.265585361615997
 20
118.84906986466328
 10
-21.415852285198298
 20
119.1075697731014
 10
-21.53964085561256
 20
119.37974387330236
 10
-21.63572140738989
 20
119.66288849810667
 10
-21.703139515284413
 20
119.95419100361138
 10
-21.7412254751467
 20
120.2507577088343
 10
-21.749600956493293
 20
120.54964264036752
 10
-21.7281827606883
 20
120.84787679648292
 10
-21.677183647404917
 20
121.14249763999152
 10
-21.597110221157116
 20
121.43057852688675
 10
-21.48875789889579
 20
121.70925777843948
 10
-21.353203008659257
 20
121.97576710795416
 10
-21.19179209776693
 20
122.22745911980657
 10
-21.006128556764192
 20
122.4618336075985
 10
-17.155867282038994
 20
126.85352636613634
 10
-16.95766011563785
 20
127.05899975336104
 10
-16.740818959440386
 20
127.24470195218836
 10
-16.507307560535466
 20
127.40895121474935
 10
-16.259240634311343
 20
127.55026007428786
 10
-15.998864713265627
 20
127.66734881588994
 10
-15.72853780205911
 20
127.75915706578016
 10
-15.450708023060413
 20
127.8248533942308
 10
-15.167891445770714
 20
127.8638428451182
 10
-14.882649300908739
 20
127.87577232393751
 10
-14.597564785508748
 20
127.86053379548123
 10
-14.315219669088187
 20
127.8182652622228
 10
-9.872839881523909
 20
126.93530456784642
 10
-9.58402987031279
 20
126.86283488827607
 10
-9.303826535953517
 20
126.76209180689209
 10
-9.138183516975879
 20
126.68321001565398
 10
-9.094002088953552
 20
126.71498053486087
 10
-8.839206053019318
 20
126.86263916191596
 10
-8.571160454539488
 20
126.98460492435437
 10
-4.378643310399632
 20
128.64903823928503
 10
-4.108585740079931
 20
128.74163576839751
 10
-3.83094905661118
 20
128.80814340462967
 10
-3.548247580791976
 20
128.84795884452882
 10
-3.263041500964757
 20
128.86072151330566
 10
-2.9779136875536967
 20
128.84631583025538
 10
-2.695446302190188
 20
128.80487225547446
 10
-2.4181974132572464
 20
128.73676610839385
 10
-2.148677829626111
 20
128.64261416882798
 10
-1.8893283623822903
 20
128.52326909132134
 10
-1.6424977204624103
 20
128.37981168337691
 10
-1.4104212403823695
 20
128.21354111749594
 10
0.6271695268745461
 20
126.60164041770535
 10
0.6271695270969584
 20
126.6016404175115
 10
3.1945072667199668
 20
127.62087595531537
 10
3.4833305823983984
 20
127.71885878100686
 10
3.7806097480450624
 20
127.78701037293543
 10
4.083272233462388
 20
127.82462635000607
 10
4.388189869126315
 20
127.83131793211304
 10
4.692211177396924
 20
127.80701595837837
 10
4.9921939446302375
 20
127.75197160196451
 10
5.285037697541934
 20
127.66675377407289
 10
5.567715748163369
 20
127.55224324395955
 10
7.964047333641407
 20
126.43653774779365
 10
8.219651375906714
 20
126.3022023816119
 10
8.461156393630883
 20
126.1439154792997
 10
8.686324992637523
 20
125.96314347081682
 10
8.893071125535684
 20
125.76156109668355
 10
9.079479417654902
 20
125.54103589254865
 10
9.24382291180336
 20
125.30361088762999
 10
9.384579067454975
 20
125.0514856773163
 10
9.500443866142916
 20
124.78699604528028
 10
9.59034389238175
 20
124.51259232389187
 10
10.138130466492719
 20
122.52133233220587
 10
10.185040669207336
 20
122.51297902980579
 10
13.943573710200251
 20
121.64385401051251
 10
14.224977298973688
 20
121.56414909040849
 10
14.497282288953535
 20
121.45742118170871
 10
14.757900546649953
 20
121.3246846840201
 10
15.004355015579847
 20
121.16720119660684
 10
15.234303259547659
 20
120.98646752747052
 10
15.445559726422346
 20
120.78420146687958
 10
15.636116520803593
 20
120.56232546056411
 10
15.804162488142627
 20
120.32294833775484
 10
15.948100428931884
 20
120.0683452677327
 10
16.066562279350556
 20
119.80093613539286
 10
16.158422114081013
 20
119.52326254135366
 10
16.222806847710252
 20
119.2379636452134
 10
16.259104533004578
 20
118.94775108155423
 10
16.266970177186145
 20
118.6553831871045
 10
16.187507123233157
 20
115.02223355332583
 10
16.187507123865583
 20
115.02223355298209
 10
18.408563809182887
 20
113.67430655260848
 10
18.645302063949003
 20
113.51474342272674
 10
18.865800909783538
 20
113.33339940525441
 10
19.068063474993437
 20
113.13191677969559
 10
19.250258038466974
 20
112.91212020390775
 10
19.41073461802374
 20
112.67600018971767
 10
19.548039912908806
 20
112.42569507653799
 10
19.660930465109395
 20
112.16347166623446
 10
19.74838392030322
 20
111.89170469461718
 10
19.809608286457497
 20
111.61285532546535
 10
19.844049106231502
 20
111.329448861847
 10
19.851394478228045
 20
111.04405187658331
 10
19.794583796054226
 20
108.44659686303994
 10
19.7747671994496
 20
108.16179395544604
 10
19.74788148962496
 20
108.0
 10
25.0
 20
108.0
 10
25.29405142098868
 20
107.98555418001659
 10
25.585270966048384
 20
107.94235584120969
 10
25.870854031763386
 20
107.87082100719662
 10
26.148050297095267
 20
107.77163859753387
 10
26.41419021047799
 20
107.64576379304506
 10
26.666710699058804
 20
107.49440883690764
 10
26.903179852490936
 20
107.31903136008822
 10
27.121320343559645
 20
107.12132034355965
 10
27.31903136008821
 20
106.90317985249094
 10
27.49440883690764
 20
106.66671069905881
 10
27.645763793045063
 20
106.414190210478
 10
27.771638597533858
 20
106.14805029709527
 10
27.870821007196625
 20
105.87085403176339
 10
27.94235584120969
 20
105.58527096604838
 10
27.985554180016592
 20
105.29405142098868
 10
28.0
 20
105.0
 10
28.0
 20
100.0
 10
27.985554180016592
 20
99.70594857901132
 10
27.94235584120969
 20
99.41472903395162
 10
27.870821007196625
 20
99.12914596823661
 10
27.771638597533858
 20
98.85194970290473
 10
27.645763793045063
 20
98.585809789522
 10
27.49440883690764
 20
98.33328930094119
 10
27.31903136008821
 20
98.09682014750906
 10
27.121320343559645
 20
97.87867965644035
 10
26.903179852490936
 20
97.68096863991178
 10
26.666710699058804
 20
97.50559116309236
 10
26.41419021047799
 20
97.35423620695494
 10
26.148050297095267
 20
97.22836140246613
 10
25.870854031763386
 20
97.12917899280338
 10
25.585270966048384
 20
97.05764415879031
 10
25.29405142098868
 20
97.01444581998341
 10
25.0
 20
97.0
 10
19.544227593774828
 20
97.0
 10
19.51053038658212
 20
95.45932179625443
 10
19.49071378997793
 20
95.17451888866427
 10
19.443914686942378
 20
94.8928892779557
 10
19.370556897399517
 20
94.61698344549438
 10
19.27130476085108
 20
94.3493000372238
 10
19.14705712001509
 20
94.09226323554068
 10
18.99893918076704
 20
93.8482008055239
 10
18.828292322101177
 20
93.61932301433336
 10
18.63666194839469
 20
93.40770261468839
 10
18.4257834939863
 20
93.21525607369813
 10
18.197566706814207
 20
93.04372621703861
 10
17.95407835344298
 20
92.89466644565358
 10
15.80565090707017
 20
91.7161429214549
 10
15.706875720631771
 20
91.66816887872965
 10
15.703505188897132
 20
91.5798098687005
 10
15.490288093348024
 20
89.12603974213069
 10
17.840456989407954
 20
87.699756419259
 10
18.07719524420149
 20
87.54019328940745
 10
18.297694090065825
 20
87.35884927196213
 10
18.49995665530757
 20
87.15736664642698
 10
18.682151218814624
 20
86.93757007065932
 10
18.84262779840622
 20
86.70145005648583
 10
18.97993309332704
 20
86.45114494331908
 10
19.09282364556394
 20
86.1889215330248
 10
19.180277100794257
 20
85.91715456141311
 10
19.24150146698485
 20
85.63830519226325
 10
19.27594228679463
 20
85.35489872864335
 10
19.28328765882609
 20
85.0695017433747
 10
19.230624589380177
 20
82.66168072657304
 10
19.23612505460592
 20
82.65344869861885
 10
19.337028358697545
 20
82.48510170623163
 10
19.47581040806702
 20
82.22545875394287
 10
19.559726944392878
 20
82.04803214502107
 10
19.65510167030063
 20
81.81777718822697
 10
22.342365377418474
 20
80.33973519669591
 10
22.59980731556174
 20
80.18072137285982
 10
22.83992136133908
 20
79.9965828578599
 10
23.060264707897687
 20
79.78919298994614
 10
23.258595686137348
 20
79.56066165564724
 10
23.432896570392742
 20
79.31331382478203
 10
23.58139410582102
 20
79.04966589731501
 10
23.70257754865876
 20
78.77240010269199
 10
23.795214035815192
 20
78.48433721210515
 10
23.858361127438826
 20
78.18840784129952
 10
23.891376394855165
 20
77.88762263587319
 10
23.893923956332564
 20
77.58504164239135
 10
23.865977894184212
 20
77.28374317691843
 10
23.807822518442464
 20
76.98679250768485
 10
23.720049474422915
 20
76.69721067049633
 10
23.60355172360446
 20
76.417943734143
 10
23.459514459061154
 20
76.15183282848744
 10
21.401673233068266
 20
72.76940954169555
 10
21.40167323250096
 20
72.76940954085586
 10
22.648693212845345
 20
70.49016818286971
 10
22.773650521757666
 20
70.23347563404798
 10
22.873641836265584
 20
69.96606746159586
 10
22.947761619541026
 20
69.69036535533186
 10
22.995338631349036
 20
69.40886611622344
 10
23.01594200690326
 20
69.12411904497075
 10
23.009385158844196
 20
68.83870285514486
 10
22.975727467003217
 20
68.55520231995817
 10
22.91527374064961
 20
68.27618486415805
 10
22.82857145809062
 20
68.00417731303077
 10
22.716405808623172
 20
67.74164300908032
 10
22.57979258173794
 20
67.49095950361733
 10
21.229421654955452
 20
65.2713878428789
 10
21.229421654811333
 20
65.27138784266558
 10
22.476441635595513
 20
62.9921464847267
 10
22.601398944576452
 20
62.73545393585878
 10
22.70139025914191
 20
62.46804576335176
 10
22.775510042462827
 20
62.19234365702587
 10
22.823087054303492
 20
61.91084441785038
 10
22.84369042987705
 20
61.62609734652734
 10
22.83713358182373
 20
61.340681156629714
 10
22.803475889974877
 20
61.057180621371884
 10
22.743022163600003
 20
60.778163165503145
 10
22.656319881006823
 20
60.50615561431163
 10
22.54415423149296
 20
60.243621310303176
 10
22.40754100455004
 20
59.992937804790124
 10
21.15030410055104
 20
57.92644825962736
 10
21.01252545238976
 20
57.722917504021986
 10
21.071983269455153
 20
57.58975920207413
 10
22.011825840028244
 20
55.17970260079564
 10
22.10622880271069
 20
54.896828043414516
 10
22.172081325310344
 20
54.60597863247467
 10
22.208732712213163
 20
54.31002828120795
 10
22.2158208072592
 20
54.01190130576726
 10
22.19327557224527
 20
53.714543529755
 10
22.141319778979685
 20
53.42089317623412
 10
22.06046680805089
 20
53.13385183484096
 10
21.95151557606055
 20
52.85625579087675
 10
21.815542641445667
 20
52.590847999677976
 10
21.653891566892852
 20
52.340250983189925
 10
21.468159643455913
 20
52.10694091655497
 10
19.80323937301295
 20
50.216547720881145
 10
19.684522457239453
 20
50.09460494371336
 10
19.73145498750082
 20
49.91769493773123
 10
20.38351137046984
 20
46.83969506930103
 10
20.42959125854793
 20
46.555530954231095
 10
20.44822238599815
 20
46.26825846778539
 10
20.439233196156096
 20
45.980522834182686
 10
20.402706462081483
 20
45.69497354233168
 10
20.338978524378312
 20
45.41423994916038
 10
20.248636194148183
 20
45.1409070683221
 10
20.132511349594473
 20
44.87749176721728
 10
19.991673276032373
 20
44.626419591510604
 10
19.82741881983837
 20
44.3900024305447
 10
18.71434076952299
 20
42.94152172947069
 10
18.525897475569018
 20
42.71949244884173
 10
18.48446768710211
 20
42.67932506393662
 10
18.500842960621014
 20
42.62762398066318
 10
18.561269927205075
 20
42.344301046106786
 10
18.97889163661145
 20
39.78624469158408
 10
19.012581258899466
 20
39.484579788255175
 10
19.01561503428328
 20
39.181054664489004
 10
19.01127805056202
 20
39.13364683293568
 10
19.23347268855261
 20
38.975139927901246
 10
19.45631826672505
 20
38.780341139815285
 10
19.658883516724686
 20
38.56453094764784
 10
19.83919665221292
 20
38.329810065063505
 10
19.99550249071286
 20
38.078463283899325
 10
20.126279538695883
 20
37.81293723381833
 10
20.230254801921276
 20
37.53581656662085
 10
20.306416176863983
 20
37.24979879703721
 10
20.354022302611206
 20
36.95766804490367
 10
21.114440691603754
 20
30.20823503362144
 10
21.13308726153811
 20
29.908187424002016
 10
21.121610558027953
 20
29.607780120686687
 10
21.080125827914443
 20
29.310029755823678
 10
21.009049652849008
 20
29.01792628109817
 10
20.909095766060872
 20
28.73440294321469
 10
20.781267885185713
 20
28.462306828799925
 10
20.74238167151057
 20
28.389282042256824
 10
20.590320107108326
 20
28.134873980685153
 10
20.41389679367198
 20
27.896712280075555
 10
20.214833743907455
 20
27.677121562194404
 10
19.99507394989608
 20
27.47824518326218
 10
19.7567624181575
 20
27.302024313324697
 10
19.5022252329128
 20
27.15017898910028
 10
19.23394685190501
 20
27.024191325240064
 10
18.495263582372182
 20
26.720873422786067
 10
18.479717034840284
 20
26.489108130897677
 10
18.431941007315267
 20
26.201037293780747
 10
17.96137616030922
 20
24.0257356494317
 10
18.055884481804583
 20
23.955643501167415
 10
18.283463432868324
 20
23.76887428279037
 10
18.42889042691413
 20
23.637066938437997
 10
18.637066938437968
 20
23.428890426914155
 10
18.76887428279035
 20
23.283463432868352
 10
18.955643501167437
 20
23.055884481804558
 10
19.072561819047053
 20
22.898238379516467
 10
19.236125054605893
 20
22.653448698618888
 10
19.337028358697516
 20
22.48510170623168
 10
19.475810408067048
 20
22.22545875394282
 10
19.559726944392914
 20
22.048032145021004
 10
19.672391260571622
 20
21.776036424906874
 10
19.73851286701347
 20
21.59123891468562
 10
19.823974431048057
 20
21.309509894218696
 10
19.871664320390096
 20
21.119121183742028
 10
19.929100090700807
 20
20.830372067398322
 10
19.957898983238735
 20
20.636225704025186
 10
19.98675582195991
 20
20.343237303641395
 10
19.996386368615518
 20
20.147203022982275
 10
19.996386368615518
 20
19.852796977017725
 10
19.98675582195991
 20
19.656762696358605
 10
19.982785908986543
 20
19.61645549351602
 10
19.993050473924477
 20
19.6013274603642
 10
20.13016265875816
 20
19.35091651316691
 10
20.242850915158797
 20
19.088606104346574
 10
20.330094720825947
 20
18.816771757585865
 10
20.391103982345243
 20
18.537875246824296
 10
20.425326190396703
 20
18.254442302052183
 10
20.432451423364682
 20
17.969039735908744
 10
20.412415154036047
 20
17.684252198229338
 10
20.36539883396857
 20
17.402658769056316
 10
19.81608435378508
 20
14.863317594481575
 10
19.81608435404378
 20
14.86331759426848
 10
21.74056108002442
 20
13.117926712949881
 10
21.942668174391898
 20
12.916288135012906
 10
22.124693146788594
 20
12.696351091452502
 10
22.284987550876785
 20
12.46010736619378
 10
22.422099735710468
 20
12.209696418996492
 10
22.534787992111106
 20
11.947386010176153
 10
22.622031797778256
 20
11.675551663415446
 10
22.68304105929755
 20
11.396655152653874
 10
22.71726326734901
 20
11.113222207881762
 10
22.72438850031699
 20
10.827819641738321
 10
22.704352230988356
 20
10.543032104058916
 10
22.657335910920878
 20
10.261438674885895
 10
22.108021430645962
 20
7.722097499888506
 10
22.034450846935123
 20
7.446248332986326
 10
21.93499226617174
 20
7.178641561060213
 10
21.810546400664578
 20
6.921700672476179
 10
21.66224025144235
 20
6.677752563709058
 10
21.491416901957926
 20
6.449006466607702
 10
21.299623354916577
 20
6.2375339412492545
 10
21.08859652237993
 20
6.045250115570311
 10
20.860247496021366
 20
5.873896341671758
 10
20.6166442399839
 20
5.7250244258644996
 10
20.359992863076656
 20
5.599982575271203
 10
20.092617639911893
 20
5.499903188253823
 10
15.9174588892241
 20
4.159907918858113
 10
17.015587466884405
 20
0.0763508365800456
 10
17.076808729897635
 20
-0.20424679346423236
 10
17.110917822657335
 20
-0.4894127851646992
 10
17.117602142631377
 20
-0.7765336532636327
 10
17.09680042945837
 20
-1.0629779964796726
 10
17.048703326385727
 20
-1.3461206137371606
 10
16.973751633065167
 20
-1.623366563571925
 10
16.87263226571823
 20
-1.8921749462142008
 10
16.74627196169623
 20
-2.1500821903909957
 10
16.595828786130827
 20
-2.3947246314293356
 10
16.422681518515045
 20
-2.6238601737369147
 10
16.22841701648443
 20
-2.835388839128152
 10
16.014815672606584
 20
-3.0273720126746353
 10
15.783835097464472
 20
-3.198050209695872
 10
15.53759217857457
 20
-3.3458592010596653
 10
15.27834367956602
 20
-3.4694443490071976
 10
15.00846555742515
 20
-3.5676730221180524
 10
10.8019806720045
 20
-4.874353146371087
 10
10.525619388031775
 20
-4.945976008528147
 10
10.24370130346448
 20
-4.991004746646511
 10
9.958779512131876
 20
-5.009031573501018
 10
9.673434309896802
 20
-4.999893235356193
 10
9.39024982709681
 20
-4.96367249041736
 10
9.111790626259648
 20
-4.900697359359519
 10
8.840578477027897
 20
-4.811538154721316
 10
8.579069518622575
 20
-4.697002316066383
 10
8.32963201666604
 20
-4.558127097685615
 10
8.094524915801749
 20
-4.39617017506169
 10
7.875877382341798
 20
-4.212598255165147
 10
5.967848188351866
 20
-2.449242195375489
 10
5.967848188165469
 20
-2.4492421951860046
 10
5.967848187802403
 20
-2.449242195318034
 10
3.48672244700235
 20
-3.2199659181931524
 10
3.21036116303247
 20
-3.291588780345373
 10
2.928443078468529
 20
-3.3366175184595654
 10
2.6435212871396807
 20
-3.3546443453106143
 10
2.3581760849086635
 20
-3.345506007163082
 10
2.07499160211292
 20
-3.309285262222315
 10
1.7965324012800856
 20
-3.246310131163321
 10
1.5253202520526337
 20
-3.157150926524741
 10
1.2638112936514823
 20
-3.042615087870188
 10
1.0143737916988727
 20
-2.9037398694905248
 10
0.7792666908381705
 20
-2.741782946868384
 10
0.5606191573813799
 20
-2.5582110269742477
 10
-1.3474100366085526
 20
-0.7948549671845901
 10
-1.3474100367956865
 20
-0.7948549669943563
 10
-1.347410037177216
 20
-0.7948549671331002
 10
-4.989734307392101
 20
-1.926287234039004
 10
-5.277610446179018
 20
-2.000292564723096
 10
-5.571396957305881
 20
-2.0454472558684613
 10
-5.868209854140737
 20
-2.061308041631704
 10
-6.1651354412134385
 20
-2.0477192229171166
 10
-6.459258916818092
 20
-2.0048141958134673
 10
-6.747692986475002
 20
-1.9330141420970586
 10
-6.753915922987179
 20
-1.9307911925632424
 10
-6.87568781465562
 20
-2.0433513712112363
 10
-7.105740693513318
 20
-2.2181519104344103
 10
-7.351542053696433
 20
-2.3700112101679345
 10
-7.610811963170537
 20
-2.4975206985392586
 10
-7.881145562289065
 20
-2.5994976605015037
 10
-8.160035370083833
 20
-2.6749962081141856
 10
-8.444894542420233
 20
-2.7233160541326487
  0
LWPOLYLINE
  5
30
330
17
100
AcDbEntity
  8
default
100
AcDbPolyline
 90
18
 70
0
 10
-5.485554180016591
 20
9.705948579011318
 10
-5.5
 20
10.0
 10
-5.5
 20
14.736355878688748
 10
-10.395168709103018
 20
10.61774308187887
 10
-10.39647645944309
 20
10.60635726979813
 10
-10.396476460358475
 20
10.606357255995537
 10
-10.49747421426547
 20
9.727029293354864
 10
-10.497474215193416
 20
9.727029287755467
 10
-10.532057752367109
 20
9.425930795725435
 10
-10.214422275501274
 20
9.23546600128187
 10
-10.214422273842445
 20
9.235466000397473
 10
-8.250017651749602
 20
8.057543665409803
 10
-8.250017651691493
 20
8.057543665371146
 10
-8.248194602318108
 20
8.056450504343957
 10
-5.313217903577728
 20
8.968156078507421
 10
-5.370821007196627
 20
9.129145968236612
 10
-5.442355841209691
 20
9.414729033951614
 10
-5.485554180016591
 20
9.705948579011318
  0
LWPOLYLINE
  5
31
330
17
100
AcDbEntity
  8
default
100
AcDbPolyline
 90
6
 70
0
 10
-1.5882791620969652
 20
24.5
 10
-2.2968050311373673
 20
24.411841635054138
 10
-2.402263216792999
 20
23.0
 10
1.5449337985375848
 20
23.0
 10
-0.6563102470323319
 20
24.5
 10
-1.5882791620969652
 20
24.5
  0
LWPOLYLINE
  5
32
330
17
100
AcDbEntity
  8
default
100
AcDbPolyline
 90
16
 70
0
 10
5.370821007196625
 20
20.870854031763386
 10
5.4423558412096895
 20
20.585270966048384
 10
5.485554180016592
 20
20.294051420988684
 10
5.5
 20
20.0
 10
5.5
 20
19.64584644969131
 10
9.334147873334587
 20
18.89995296485722
 10
9.857448760420084
 20
19.9931831038557
 10
9.679463801728335
 20
20.275177202720563
 10
9.67946379989828
 20
20.275177205318307
 10
7.63370951814661
 20
23.5164097199957
 10
7.572374438401312
 20
23.613587204366922
 10
5.074556744657457
 20
22.40995438490063
 10
5.016310389868757
 20
21.63017016549743
 10
5.145763793045067
 20
21.414190210477994
 10
5.271638597533858
 20
21.14805029709527
 10
5.370821007196625
 20
20.870854031763386
  0
LWPOLYLINE
  5
33
330
17
100
AcDbEntity
  8
default
100
AcDbPolyline
 90
6
 70
0
 10
9.600263411578691
 20
13.600800709657662
 10
8.980224381553029
 20
15.91256380232144
 10
5.5
 20
16.58960516265472
 10
5.5
 20
12.327116659802302
 10
9.244746288633454
 20
13.490364758699798
 10
9.600263411578691
 20
13.600800709657662
  0
LWPOLYLINE
  5
34
330
17
100
AcDbEntity
  8
default
100
AcDbPolyline
 90
4
 70
0
 10
0.9919507818090096
 20
7.0
 10
0.16346099249084212
 20
7.0
 10
0.37187960384424024
 20
6.807384382508252
 10
0.9919507818090096
 20
7.0
  0
LWPOLYLINE
  5
35
330
17
100
AcDbEntity
  8
default
100
AcDbPolyline
 90
21
 70
0
 10
-10.662971641302484
 20
17.514898293768322
 10
-10.763874945394104
 20
17.346551301381115
 10
-10.927438180952972
 20
17.1017616204835
 10
-11.044356498832588
 20
16.944115518195414
 10
-11.231125717209633
 20
16.716536567131673
 10
-11.362933061562012
 20
16.571109573085867
 10
-11.57110957308586
 20
16.362933061562018
 10
-11.716536567131662
 20
16.23112571720964
 10
-11.944115518195414
 20
16.044356498832588
 10
-12.101761620483499
 20
15.927438180952972
 10
-12.346551301381123
 20
15.763874945394099
 10
-12.514898293768333
 20
15.662971641302478
 10
-12.774541246057174
 20
15.524189591932952
 10
-12.95196785497899
 20
15.44027305560709
 10
-13.024360909917819
 20
15.410286870429806
 10
-11.583968917839229
 20
13.538120329845697
 10
-7.954227216176679
 20
16.592049930625727
 10
-10.339473179494483
 20
18.195320282975572
 10
-10.440273055607094
 20
17.95196785497898
 10
-10.524189591932958
 20
17.774541246057165
 10
-10.662971641302484
 20
17.514898293768322
  0
LWPOLYLINE
  5
36
330
17
100
AcDbEntity
  8
default
100
AcDbPolyline
 90
42
 70
0
 10
-19.47581040806704
 20
17.77454124605716
 10
-19.559726944392906
 20
17.951967854978978
 10
-19.672391260571636
 20
18.223963575093162
 10
-19.73851286701348
 20
18.408761085314417
 10
-19.82397443104805
 20
18.690490105781283
 10
-19.871664320390092
 20
18.88087881625795
 10
-19.929100090700803
 20
19.16962793260166
 10
-19.957898983238735
 20
19.363774295974796
 10
-19.98675582195991
 20
19.656762696358623
 10
-19.996386368615518
 20
19.852796977017743
 10
-19.996386368615518
 20
20.147203022982254
 10
-19.98675582195991
 20
20.343237303641374
 10
-19.957898983238735
 20
20.636225704025204
 10
-19.929100090700803
 20
20.83037206739834
 10
-19.871664320390096
 20
21.119121183742045
 10
-19.82397443104805
 20
21.309509894218714
 10
-19.73851286701348
 20
21.591238914685583
 10
-19.672391260571636
 20
21.776036424906838
 10
-19.559726944392906
 20
22.048032145021022
 10
-19.47581040806704
 20
22.22545875394284
 10
-19.33702835869752
 20
22.485101706231674
 10
-19.2361250546059
 20
22.65344869861888
 10
-19.072561819047028
 20
22.8982383795165
 10
-18.955643501167412
 20
23.055884481804586
 10
-18.768874282790367
 20
23.283463432868327
 10
-18.63706693843799
 20
23.428890426914133
 10
-18.428890426914148
 20
23.637066938437975
 10
-18.283463432868345
 20
23.768874282790353
 10
-18.05588448180458
 20
23.95564350116742
 10
-17.898238379516492
 20
24.072561819047035
 10
-17.653448698618877
 20
24.2361250546059
 10
-17.5981199154213
 20
24.269287851023215
 10
-18.58070789275045
 20
24.447794858278755
 10
-18.58070790071187
 20
24.44779486012281
 10
-18.657192090526223
 20
24.46168976230547
 10
-20.773838501423597
 20
19.33301267400384
 10
-19.18958113979801
 20
17.27385541651905
 10
-19.189581139642396
 20
17.273855416547335
 10
-19.187716844114863
 20
17.27410329459991
 10
-19.2361250546059
 20
17.34655130138112
 10
-19.33702835869752
 20
17.514898293768326
 10
-19.47581040806704
 20
17.77454124605716
  0
LWPOLYLINE
  5
37
330
17
100
AcDbEntity
  8
default
100
AcDbPolyline
 90
25
 70
0
 10
-11.716536567131657
 20
23.768874282790353
 10
-11.571109573085852
 20
23.637066938437975
 10
-11.362933061562035
 20
23.42889042691416
 10
-11.231125717209656
 20
23.283463432868356
 10
-11.044356498832576
 20
23.055884481804572
 10
-10.927438180952958
 20
22.89823837951648
 10
-10.7638749453941
 20
22.65344869861888
 10
-10.66297164130248
 20
22.485101706231674
 10
-10.524189591932958
 20
22.225458753942835
 10
-10.440273055607094
 20
22.04803214502102
 10
-10.342550993658492
 20
21.81211021772164
 10
-6.28066715963706
 20
19.081868546090135
 10
-6.280667157556001
 20
19.08186854453911
 10
-5.730890277307481
 20
18.712329727131873
 10
-5.258935130264291
 20
25.03071954762025
 10
-7.1208225727768735
 20
26.39543815498709
 10
-7.12082258839017
 20
26.39543816766752
 10
-8.17320198751986
 20
27.166806895751506
 10
-9.10111092031002
 20
27.29518960835412
 10
-11.229776265651818
 20
25.474089980967527
 10
-12.275960752227046
 20
24.57906616551359
 10
-12.17084616558433
 20
24.118722636293775
 10
-12.101761620483508
 20
24.072561819047035
 10
-11.94411551819542
 20
23.95564350116742
 10
-11.716536567131657
 20
23.768874282790353
  0
LWPOLYLINE
  5
38
330
17
100
AcDbEntity
  8
default
100
AcDbPolyline
 90
13
 70
0
 10
-7.7283485774768765
 20
36.38190467441743
 10
-7.728348580087825
 20
36.381904668763454
 10
-8.978296961999789
 20
33.99756154989096
 10
-8.978296967840336
 20
33.997561539960266
 10
-9.377676710256287
 20
33.23572340791239
 10
-8.435953362133205
 20
30.276272679024633
 10
-8.435953361782264
 20
30.276272677701563
 10
-8.421129478607327
 20
30.229687285143882
 10
-8.160505851730704
 20
30.193628177046776
 10
-5.5
 20
33.06166656351698
 10
-5.5
 20
36.893167387215186
 10
-7.681044484954327
 20
36.47213975060731
 10
-7.7283485774768765
 20
36.38190467441743
  0
LWPOLYLINE
  5
39
330
17
100
AcDbEntity
  8
default
100
AcDbPolyline
 90
5
 70
0
 10
-1.9127992750503857
 20
42.0
 10
-1.4914159474638105
 20
40.5
 10
0.1954229587905978
 20
40.5
 10
1.659659830781461
 20
42.0
 10
-1.9127992750503857
 20
42.0
  0
LWPOLYLINE
  5
3A
330
17
100
AcDbEntity
  8
default
100
AcDbPolyline
 90
20
 70
0
 10
4.621320343559642
 20
39.621320343559645
 10
4.819031360088211
 20
39.403179852490936
 10
4.994408836907635
 20
39.166710699058804
 10
5.145763793045067
 20
38.91419021047799
 10
5.271638597533858
 20
38.64805029709527
 10
5.370821007196625
 20
38.370854031763386
 10
5.4423558412096895
 20
38.085270966048384
 10
5.485554180016592
 20
37.79405142098868
 10
5.5
 20
37.5
 10
5.5
 20
34.65275775879471
 10
6.883974163328823
 20
35.50489625028355
 10
8.245645575953365
 20
36.3433025258291
 10
7.179422676069983
 20
40.13874065832354
 10
7.179422676002918
 20
40.138740658614864
 10
4.6619441828964945
 20
40.78084815361921
 10
4.661944182832684
 20
40.780848153638765
 10
3.9948238820401762
 20
40.09743383023261
 10
4.166710699058807
 20
39.99440883690764
 10
4.403179852490936
 20
39.81903136008821
 10
4.621320343559642
 20
39.621320343559645
  0
LWPOLYLINE
  5
3B
330
17
100
AcDbEntity
  8
default
100
AcDbPolyline
 90
11
 70
0
 10
5.4423558412096895
 20
26.914729033951616
 10
5.370821007196625
 20
26.629145968236614
 10
5.271638597533858
 20
26.35194970290473
 10
5.145763793045063
 20
26.085809789522006
 10
4.994408836907635
 20
25.833289300941193
 10
4.84227686335457
 20
25.628163080354195
 10
6.56017181603238
 20
26.455971591174603
 10
5.5
 20
28.978794855047635
 10
5.5
 20
27.5
 10
5.485554180016592
 20
27.205948579011316
 10
5.4423558412096895
 20
26.914729033951616
  0
LWPOLYLINE
  5
3C
330
17
100
AcDbEntity
  8
default
100
AcDbPolyline
 90
9
 70
0
 10
-6.371013872752664
 20
50.952242735974316
 10
-7.8866642570453465
 20
49.39957347834096
 10
-7.886664257305278
 20
49.39957347809888
 10
-7.1840064129945205
 20
46.898319401832765
 10
-5.5
 20
46.468797106973
 10
-5.5
 20
51.11286575789216
 10
-6.071843607846894
 20
51.258720059133005
 10
-6.0718436080345
 20
51.25872005919049
 10
-6.371013872752664
 20
50.952242735974316
  0
LWPOLYLINE
  5
3D
330
17
100
AcDbEntity
  8
default
100
AcDbPolyline
 90
29
 70
0
 10
-5.370821007196627
 20
55.870854031763386
 10
-5.27163859753386
 20
56.14805029709527
 10
-5.145763793045065
 20
56.41419021047799
 10
-4.9944088369076365
 20
56.666710699058804
 10
-4.819031360088211
 20
56.903179852490936
 10
-4.621320343559642
 20
57.121320343559645
 10
-4.403179852490936
 20
57.31903136008821
 10
-4.166710699058806
 20
57.49440883690764
 10
-3.9141902104779938
 20
57.64576379304506
 10
-3.648050297095269
 20
57.77163859753386
 10
-3.370854031763386
 20
57.870821007196625
 10
-3.085270966048384
 20
57.94235584120969
 10
-2.7940514209886818
 20
57.98555418001659
 10
-2.5
 20
58.0
 10
0.2659653737948755
 20
58.0
 10
-1.0774451377669134
 20
59.5
 10
-2.5
 20
59.5
 10
-2.7940514209886818
 20
59.51444581998341
 10
-3.085270966048384
 20
59.55764415879031
 10
-3.370854031763386
 20
59.629178992803375
 10
-3.648050297095269
 20
59.72836140246614
 10
-3.7226817003548867
 20
59.76365942738328
 10
-6.2829315382715905
 20
58.20825898980796
 10
-6.439362042784458
 20
58.11322448511858
 10
-5.5
 20
54.76937347910144
 10
-5.5
 20
55.0
 10
-5.485554180016591
 20
55.29405142098868
 10
-5.442355841209691
 20
55.585270966048384
 10
-5.370821007196627
 20
55.870854031763386
  0
LWPOLYLINE
  5
3E
330
17
100
AcDbEntity
  8
default
100
AcDbPolyline
 90
18
 70
0
 10
5.370821007196625
 20
44.129145968236614
 10
5.319606711691115
 20
43.98601160102371
 10
5.403386053650152
 20
43.68778192577351
 10
5.40338605372262
 20
43.68778192545871
 10
7.920864546830327
 20
43.045674430454035
 10
7.920864546894137
 20
43.04567443043448
 10
8.220021829690271
 20
43.35213845465278
 10
9.735685195900011
 20
44.90482101127892
 10
9.735685196159942
 20
44.904821011521
 10
9.033027351990096
 20
47.40607508775118
 10
6.515548859435327
 20
48.04818258273359
 10
6.5155488590374055
 20
48.04818258285552
 10
6.515548858606351
 20
48.0481825823697
 10
5.5
 20
47.007829537938086
 10
5.5
 20
45.0
 10
5.485554180016592
 20
44.70594857901132
 10
5.4423558412096895
 20
44.414729033951616
 10
5.370821007196625
 20
44.129145968236614
  0
LWPOLYLINE
  5
3F
330
17
100
AcDbEntity
  8
default
100
AcDbPolyline
 90
13
 70
0
 10
-6.360351529398031
 20
120.00897132873425
 10
-6.360351523284358
 20
120.0089713216723
 10
-6.211022158153355
 20
119.85216147638857
 10
-1.6112446496263146
 20
121.67827754560858
 10
-1.2340930788777769
 20
124.24883326189592
 10
-3.2716838461346924
 20
125.86073396168649
 10
-7.464200989798019
 20
124.19630064694503
 10
-7.242801901943917
 20
121.55911120986393
 10
-7.242801901571312
 20
121.55911119926594
 10
-7.185398129746318
 20
120.87534767435864
 10
-6.913177424020688
 20
120.5894903902912
 10
-6.9131774161542126
 20
120.58949038281926
 10
-6.360351529398031
 20
120.00897132873425
  0
LWPOLYLINE
  5
40
330
17
100
AcDbEntity
  8
default
100
AcDbPolyline
 90
12
 70
0
 10
-4.797106142045987
 20
112.53238575122981
 10
-4.710342180915177
 20
112.81570325931534
 10
-4.783697170194461
 20
112.92128464728471
 10
-4.78369717700674
 20
112.92128465616433
 10
-6.5515218206786
 20
115.46575206626957
 10
-8.858104706496345
 20
111.84116103771541
 10
-7.398245376014803
 20
109.57833268774844
 10
-5.4819429917261004
 20
110.29613158339635
 10
-5.392403890945003
 20
110.58851098354008
 10
-5.392403890330888
 20
110.58851098598089
 10
-4.797106142573602
 20
112.53238574977141
 10
-4.797106142045987
 20
112.53238575122981
  0
LWPOLYLINE
  5
41
330
17
100
AcDbEntity
  8
default
100
AcDbPolyline
 90
5
 70
0
 10
-1.4839659976292445
 20
95.91612641232697
 10
-0.8931605027978033
 20
97.0
 10
-4.781924084121547
 20
97.0
 10
-4.081260251704892
 20
95.85238823063216
 10
-1.4839659976292445
 20
95.91612641232697
  0
LWPOLYLINE
  5
42
330
17
100
AcDbEntity
  8
default
100
AcDbPolyline
 90
7
 70
0
 10
-4.228102263629722
 20
92.44887774950712
 10
-4.166710699058806
 20
92.49440883690764
 10
-3.9141902104779938
 20
92.64576379304506
 10
-3.648050297095269
 20
92.77163859753387
 10
-3.3765625358350615
 20
92.86877847177963
 10
-4.007661738387858
 20
92.85329115624862
 10
-4.228102263629722
 20
92.44887774950712
  0
LWPOLYLINE
  5
43
330
17
100
AcDbEntity
  8
default
100
AcDbPolyline
 90
21
 70
0
 10
-2.5
 20
77.0
 10
-2.7940514209886818
 20
77.01444581998341
 10
-3.085270966048384
 20
77.05764415879031
 10
-3.370854031763386
 20
77.12917899280338
 10
-3.648050297095269
 20
77.22836140246613
 10
-3.9141649571787713
 20
77.35422426303393
 10
-4.883117414393425
 20
75.57661389021553
 10
-4.883117414491828
 20
75.57661389005382
 10
-4.883117414145556
 20
75.57661388954301
 10
-4.414382973562505
 20
74.80887744302082
 10
-4.403179852490936
 20
74.81903136008822
 10
-4.166710699058806
 20
74.99440883690764
 10
-3.9141902104779938
 20
75.14576379304506
 10
-3.648050297095269
 20
75.27163859753387
 10
-3.370854031763386
 20
75.37082100719662
 10
-3.085270966048384
 20
75.44235584120969
 10
-2.7940514209886818
 20
75.48555418001659
 10
-2.5
 20
75.5
 10
0.4360765253917478
 20
75.5
 10
-0.47973470685509234
 20
77.0
 10
-2.5
 20
77.0
  0
LWPOLYLINE
  5
44
330
17
100
AcDbEntity
  8
default
100
AcDbPolyline
 90
27
 70
0
 10
7.293131897015005
 20
70.73843667686276
 10
10.434173478999615
 20
71.88215095766179
 10
10.434173481704157
 20
71.88215095849398
 10
11.098260684404522
 20
72.12395801441744
 10
11.20045225645391
 20
72.3194463388981
 10
11.20045225899273
 20
72.3194463443966
 10
11.465261638346849
 20
72.82601592643422
 10
11.465261644252578
 20
72.82601593646233
 10
11.635760206729174
 20
73.15217275777832
 10
10.60464930627495
 20
77.40659891208634
 10
10.385290591136993
 20
77.55006960688598
 10
10.385290588750287
 20
77.55006960829107
 10
9.99556003441731
 20
77.80497132645735
 10
4.8414766710777855
 20
74.37291585403183
 10
4.994408836907635
 20
74.16671069905881
 10
5.145763793045067
 20
73.914190210478
 10
5.271638597533858
 20
73.64805029709527
 10
5.370821007196625
 20
73.37085403176339
 10
5.4423558412096895
 20
73.08527096604838
 10
5.485554180016592
 20
72.79405142098868
 10
5.5
 20
72.5
 10
5.5
 20
70.6280670698189
 10
6.030971147716972
 20
70.48886744537688
 10
6.030971149256118
 20
70.48886744489033
 10
6.366297313943505
 20
70.40095819346607
 10
7.293131892950164
 20
70.73843667515695
 10
7.293131897015005
 20
70.73843667686276
  0
LWPOLYLINE
  5
45
330
17
100
AcDbEntity
  8
default
100
AcDbPolyline
 90
11
 70
0
 10
13.437248931535706
 20
65.45039693326845
 10
13.437248931634706
 20
65.45039693341499
 10
11.46060528438889
 20
69.06320829245102
 10
8.319563702746667
 20
67.91949401170352
 10
8.367447213965754
 20
67.77437843587589
 10
10.593007708735051
 20
61.029603785394045
 10
10.593007711861198
 20
61.029603774016735
 10
10.6473940606229
 20
60.86478072497994
 10
11.173367339889843
 20
61.72931013806096
 10
11.173367341784015
 20
61.729310141551935
 10
13.437248931535706
 20
65.45039693326845
  0
LWPOLYLINE
  5
46
330
17
100
AcDbEntity
  8
default
100
AcDbPolyline
 90
12
 70
0
 10
9.774469223058688
 20
50.31300886033227
 10
11.589289872341514
 20
52.172155440605856
 10
11.556643186634275
 20
52.288367984789
 10
10.054969121236354
 20
57.63388345716521
 10
9.795033182483166
 20
57.67008273024112
 10
8.836002424319837
 20
57.29532046016414
 10
8.836002419903032
 20
57.29532045817531
 10
5.808261369389463
 20
56.11216433985937
 10
7.256990729674943
 20
50.95511635495079
 10
9.774469222229712
 20
50.31300885996838
 10
9.774469222627634
 20
50.31300885984645
 10
9.774469223058688
 20
50.31300886033227
  0
LWPOLYLINE
  5
47
330
17
100
AcDbEntity
  8
default
100
AcDbPolyline
 90
15
 70
0
 10
16.018089286484617
 20
39.30287170569905
 10
15.600467577110976
 20
41.86092806002125
 10
15.594124144924326
 20
41.86254601440003
 10
15.594124142757412
 20
41.862546014841946
 10
11.882442754904535
 20
42.80924663018465
 10
11.882442754493457
 20
42.80924663031062
 10
11.882442754304794
 20
42.80924663009798
 10
10.36678916304529
 20
41.25657408755841
 10
10.06762210513795
 20
40.95010004940078
 10
11.133845005189468
 20
37.154661916713195
 10
11.133845008331548
 20
37.15466190293049
 10
11.137290668673813
 20
37.14239637134597
 10
11.866568002075283
 20
37.46520946279586
 10
11.866568004576806
 20
37.46520946405252
 10
16.018089286484617
 20
39.30287170569905
  0
LWPOLYLINE
  5
48
330
17
100
AcDbEntity
  8
default
100
AcDbPolyline
 90
11
 70
0
 10
11.796645516110697
 20
30.846675513905744
 10
10.455970422119968
 20
33.26939245445241
 10
10.45597042007429
 20
33.269392458616636
 10
10.079636721871793
 20
33.94946030667052
 10
9.818556460227725
 20
33.788708360383005
 10
9.818556457467583
 20
33.78870835848812
 10
8.456884406547129
 20
32.95030169012738
 10
7.367139543872327
 20
32.27932562120259
 10
9.146465379717995
 20
28.0451773973819
 10
12.577060831182042
 20
29.4363969062662
 10
11.796645516110697
 20
30.846675513905744
  0
LWPOLYLINE
  5
49
330
17
100
AcDbEntity
  8
default
100
AcDbPolyline
 90
9
 70
0
 10
-16.883735241368413
 20
88.03595463465899
 10
-14.28644098671936
 20
88.09969281683354
 10
-13.04299274486982
 20
90.38088471305893
 10
-13.042992744653171
 20
90.38088471341496
 10
-13.04299274475538
 20
90.38088471356573
 10
-14.396838756851563
 20
92.59833842747369
 10
-18.443778705317527
 20
92.49902561539784
 10
-18.805311610922217
 20
91.18328942777589
 10
-16.883735241368413
 20
88.03595463465899
  0
LWPOLYLINE
  5
4A
330
17
100
AcDbEntity
  8
default
100
AcDbPolyline
 90
8
 70
0
 10
-5.93645177170097
 20
1.2387447747819083
 10
-5.879689405176304
 20
0.9386699949485268
 10
-2.2373651349917054
 20
2.0701022618450224
 10
-1.664268588209639
 20
4.604182044851415
 10
-1.6642685883415425
 20
4.604182044962158
 10
-3.5722977818363457
 20
6.3675381047245825
 10
-6.72156737325713
 20
5.3892657244578
 10
-5.93645177170097
 20
1.2387447747819083
  0
LWPOLYLINE
  5
4B
330
17
100
AcDbEntity
  8
default
100
AcDbPolyline
 90
12
 70
0
 10
-13.292342178811126
 20
49.23032158265765
 10
-13.292342179468024
 20
49.230321582858934
 10
-15.107162828557193
 20
47.37117500184104
 10
-14.179009983863606
 20
44.06722542532996
 10
-12.279642868900748
 20
44.067923526674875
 10
-12.279642862939214
 20
44.067923526392484
 10
-12.043019390199333
 20
44.068010495975614
 10
-11.69175058270752
 20
44.42785883842085
 10
-11.691750576320617
 20
44.427858845651414
 10
-10.072205842091789
 20
46.08696001146386
 10
-10.774863686397268
 20
48.58821408771119
 10
-13.292342178811126
 20
49.23032158265765
  0
LWPOLYLINE
  5
4C
330
17
100
AcDbEntity
  8
default
100
AcDbPolyline
 90
7
 70
0
 10
-19.326546715572476
 20
3.7587824747897685
 10
-16.729188336065373
 20
3.81985167413936
 10
-16.729188335865512
 20
3.819851674550492
 10
-14.863375734300085
 20
7.2344596325739845
 10
-20.605602731462568
 20
8.040713068563491
 10
-21.117020544130355
 20
6.6981725469231606
 10
-19.326546715572476
 20
3.7587824747897685
  0
LWPOLYLINE
  5
4D
330
17
100
AcDbEntity
  8
default
100
AcDbPolyline
 90
11
 70
0
 10
-8.884177927723005
 20
0.681151276699421
 10
-9.792811038437417
 20
5.4846486877607035
 10
-11.757215660576467
 20
6.662571022669599
 10
-12.23075903364601
 20
5.795943276241095
 10
-12.230759035593877
 20
5.795943272227229
 10
-14.09657163730139
 20
2.3813353143367313
 10
-12.745004969649017
 20
0.1624915744177997
 10
-8.803597503341734
 20
0.2551621119491756
 10
-8.827415459921264
 20
0.38107596146384615
 10
-8.827415460070291
 20
0.38107596208215877
 10
-8.884177927723005
 20
0.681151276699421
  0
LWPOLYLINE
  5
4E
330
17
100
AcDbEntity
  8
default
100
AcDbPolyline
 90
8
 70
0
 10
-13.477879376896619
 20
10.06935233999254
 10
-13.37688162329226
 20
10.948680303351521
 10
-16.218767598883517
 20
14.642455236571426
 10
-16.21876759903913
 20
14.642455236543142
 10
-18.794178774882457
 20
14.300026744160974
 10
-18.79417877524147
 20
14.300026744130534
 10
-20.15338390134275
 20
11.006645216606557
 10
-13.477879376896619
 20
10.06935233999254
  0
LWPOLYLINE
  5
4F
330
17
100
AcDbEntity
  8
default
100
AcDbPolyline
 90
17
 70
0
 10
-12.236941365525126
 20
32.327643865253776
 10
-13.00389290291
 20
32.720811815961724
 10
-13.003892910050364
 20
32.72081181919251
 10
-16.137602811062845
 20
34.32726834202234
 10
-16.137602811523863
 20
34.327268342287105
 10
-18.320017559919506
 20
32.91763510461897
 10
-18.04447424832873
 20
27.39948140683671
 10
-14.645989778762882
 20
26.78207787038659
 10
-14.645989775129303
 20
26.782077869542256
 10
-14.373569966293871
 20
26.732587293721735
 10
-14.226191404391727
 20
26.858671482966006
 10
-14.226191401595415
 20
26.85867148560849
 10
-13.180003680767832
 20
27.753698067755256
 10
-11.294708391706587
 20
29.366591591340867
 10
-12.236431739921056
 20
32.32604231957385
 10
-12.236431741745164
 20
32.326042326468446
 10
-12.236941365525126
 20
32.327643865253776
  0
LWPOLYLINE
  5
50
330
17
100
AcDbEntity
  8
default
100
AcDbPolyline
 90
9
 70
0
 10
-14.17790735711721
 20
41.06722562796092
 10
-14.632819286547601
 20
41.06705842772499
 10
-14.953879205975682
 20
40.698588160797954
 10
-14.76904019156596
 20
36.99691932269133
 10
-11.635330290856235
 20
35.39046280005844
 10
-10.385381908806295
 20
37.77480591865712
 10
-12.27854023624619
 20
41.067923729023434
 10
-14.177907351279796
 20
41.06722562767157
 10
-14.17790735711721
 20
41.06722562796092
  0
LWPOLYLINE
  5
51
330
17
100
AcDbEntity
  8
default
100
AcDbPolyline
 90
8
 70
0
 10
-7.907457432709634
 20
39.48381821392104
 10
-4.506506619974971
 20
40.14033590210602
 10
-5.4079697909611895
 20
43.34927813517069
 10
-7.925448283375047
 20
43.991385630117165
 10
-7.925448283741429
 20
43.99138563022943
 10
-7.925448283763526
 20
43.991385630204526
 10
-9.544993018017013
 20
42.33228446406806
 10
-7.907457432709634
 20
39.48381821392104
  0
LWPOLYLINE
  5
52
330
17
100
AcDbEntity
  8
default
100
AcDbPolyline
 90
11
 70
0
 10
-7.333214642990763
 20
69.5146815604405
 10
-6.089766401018053
 20
71.7958734564262
 10
-6.08976640091965
 20
71.7958734565879
 10
-6.089766401265923
 20
71.79587345709871
 10
-7.443612412657309
 20
74.01332717061499
 10
-10.040906667198604
 20
73.94958898845451
 10
-11.284354909171313
 20
71.66839709246881
 10
-11.284354909257239
 20
71.6683970923276
 10
-11.284354909162587
 20
71.66839709218797
 10
-9.930508897066403
 20
69.45094337828002
 10
-7.333214642990763
 20
69.5146815604405
  0
LWPOLYLINE
  5
53
330
17
100
AcDbEntity
  8
default
100
AcDbPolyline
 90
7
 70
0
 10
-18.620452047791332
 20
59.877445383463055
 10
-17.91779420338571
 20
57.376191306859255
 10
-15.400315711113034
 20
56.734083811830025
 10
-12.657355563179046
 20
59.54403915549184
 10
-14.175065324176103
 20
61.85136664798483
 10
-16.433175244368613
 20
62.118145142216235
 10
-18.620452047791332
 20
59.877445383463055
  0
LWPOLYLINE
  5
54
330
17
100
AcDbEntity
  8
default
100
AcDbPolyline
 90
15
 70
0
 10
-10.033421815637602
 20
51.495147859310606
 10
-10.03342181545013
 20
51.4951478595219
 10
-8.517758635501991
 20
53.04783022494821
 10
-8.218601166281246
 20
53.35429444022119
 10
-8.218601166298017
 20
53.354294440271545
 10
-9.327561471638605
 20
57.30186509436949
 10
-9.327561472965446
 20
57.30186510019583
 10
-9.391775406897068
 20
57.53044771030545
 10
-10.248223034199327
 20
57.71724810032174
 10
-10.510597995091782
 20
57.44846478461877
 10
-10.510598004721576
 20
57.448464773747936
 10
-13.253558152736078
 20
54.63850943062057
 10
-12.550900308430599
 20
52.13725535437325
 10
-10.033421816016741
 20
51.49514785942678
 10
-10.033421815637602
 20
51.495147859310606
  0
LWPOLYLINE
  5
55
330
17
100
AcDbEntity
  8
default
100
AcDbPolyline
 90
9
 70
0
 10
-16.442144161555916
 20
70.04137219069526
 10
-17.555716048926115
 20
67.99844745965675
 10
-16.02980111911893
 20
65.09135344577953
 10
-14.137117493720554
 20
64.86774728590306
 10
-12.491003895326422
 20
67.88765665868655
 10
-12.491003895244589
 20
67.88765665882103
 10
-12.491003895339006
 20
67.88765665896031
 10
-13.844849907435188
 20
70.10511037286827
 10
-16.442144161555916
 20
70.04137219069526
  0
LWPOLYLINE
  5
56
330
17
100
AcDbEntity
  8
default
100
AcDbPolyline
 90
13
 70
0
 10
-11.503023982437844
 20
63.43193693093403
 10
-11.503023985276855
 20
63.431936926289104
 10
-11.557800492737442
 20
63.33144563063979
 10
-9.82372954627499
 20
60.6951908795163
 10
-8.457736956886947
 20
60.39725328236818
 10
-7.840572427179701
 20
60.772192464219174
 10
-5.48514082026942
 20
62.20316193394945
 10
-5.485554180016591
 20
62.20594857901132
 10
-5.5
 20
62.5
 10
-5.5
 20
63.63352309394714
 10
-7.259616129673729
 20
66.51558448605695
 10
-9.856910383749373
 20
66.45184630389647
 10
-11.503023982437844
 20
63.43193693093403
  0
LWPOLYLINE
  5
57
330
17
100
AcDbEntity
  8
default
100
AcDbPolyline
 90
25
 70
0
 10
-6.273762684156358
 20
79.2936161415042
 10
-7.627608696106536
 20
81.51106985563868
 10
-10.217885587240753
 20
81.44750388113498
 10
-10.17602556895195
 20
81.3095098942187
 10
-10.128335679609908
 20
81.11912118374204
 10
-10.070899909299197
 20
80.83037206739834
 10
-10.042101016761263
 20
80.63622570402521
 10
-10.01324417804009
 20
80.34323730364137
 10
-10.003613631384482
 20
80.14720302298225
 10
-10.003613631384482
 20
79.85279697701775
 10
-10.01324417804009
 20
79.65676269635863
 10
-10.042101016761263
 20
79.36377429597479
 10
-10.070899909299197
 20
79.16962793260166
 10
-10.128335679609908
 20
78.88087881625795
 10
-10.17602556895195
 20
78.69049010578128
 10
-10.261487132986513
 20
78.40876108531444
 10
-10.327608739428356
 20
78.22396357509318
 10
-10.440273055607124
 20
77.95196785497892
 10
-10.524189591932988
 20
77.77454124605711
 10
-10.56831808477017
 20
77.69198264274816
 10
-10.114505180515632
 20
76.94868606283805
 10
-7.517210925974334
 20
77.01242424499853
 10
-6.273762684001625
 20
79.29361614098423
 10
-6.27376268390808
 20
79.29361614113795
 10
-6.273762684156358
 20
79.2936161415042
  0
LWPOLYLINE
  5
58
330
17
100
AcDbEntity
  8
default
100
AcDbPolyline
 90
30
 70
0
 10
-12.67500017917339
 20
75.38539934414918
 10
-12.76337974497297
 20
75.53015553855639
 10
-12.774541246057218
 20
75.52418959193292
 10
-12.951967854979035
 20
75.44027305560707
 10
-13.223963575093222
 20
75.32760873942834
 10
-13.408761085314477
 20
75.2614871329865
 10
-13.690490105781148
 20
75.17602556895199
 10
-13.880878816257816
 20
75.12833567960993
 10
-14.169627932601623
 20
75.0708999092992
 10
-14.363774295974757
 20
75.04210101676126
 10
-14.656762696358713
 20
75.01324417804008
 10
-14.852796977017835
 20
75.00361363138448
 10
-15.147203022982165
 20
75.00361363138448
 10
-15.343237303641287
 20
75.01324417804008
 10
-15.636225704025243
 20
75.04210101676126
 10
-15.830372067398377
 20
75.0708999092992
 10
-16.119121183742184
 20
75.12833567960993
 10
-16.309509894218852
 20
75.17602556895199
 10
-16.591238914685523
 20
75.2614871329865
 10
-16.776036424906778
 20
75.32760873942834
 10
-17.048032145020965
 20
75.44027305560707
 10
-17.22545875394278
 20
75.52418959193292
 10
-17.48510170623163
 20
75.66297164130245
 10
-17.6084895319361
 20
75.73692745792687
 10
-17.869588687084615
 20
75.2579229795374
 10
-16.51574267493561
 20
73.04046926507726
 10
-13.918448420752222
 20
73.10420744725181
 10
-12.675000178779513
 20
75.38539934323751
 10
-12.67500017867349
 20
75.38539934341175
 10
-12.67500017917339
 20
75.38539934414918
  0
LWPOLYLINE
  5
59
330
17
100
AcDbEntity
  8
default
100
AcDbPolyline
 90
18
 70
0
 10
-16.776036424906774
 20
84.67239126057166
 10
-16.59123891468552
 20
84.7385128670135
 10
-16.309509894218852
 20
84.82397443104801
 10
-16.119121183742187
 20
84.87166432039007
 10
-15.830372067398375
 20
84.9291000907008
 10
-15.63622570402524
 20
84.95789898323874
 10
-15.343237303641287
 20
84.98675582195992
 10
-15.147203022982165
 20
84.99638636861552
 10
-14.852796977017835
 20
84.99638636861552
 10
-14.656762696358715
 20
84.98675582195992
 10
-14.363774295974762
 20
84.95789898323874
 10
-14.169627932601625
 20
84.9291000907008
 10
-14.099637444035995
 20
84.91517811692616
 10
-14.21284247340234
 20
85.10059574245
 10
-16.81013672798872
 20
85.03685756027699
 10
-17.077919680344518
 20
84.54559119294669
 10
-17.048032145020972
 20
84.55972694439293
 10
-16.776036424906774
 20
84.67239126057166
  0
LWPOLYLINE
  5
5A
330
17
100
AcDbEntity
  8
default
100
AcDbPolyline
 90
11
 70
0
 10
-7.701207209304367
 20
84.5101669302409
 10
-6.457758966904233
 20
86.79135882615645
 10
-6.4577589669939215
 20
86.79135882628876
 10
-7.811604979090105
 20
89.00881254019671
 10
-10.408899233165751
 20
88.9450743585019
 10
-11.65234747501529
 20
86.6638824622765
 10
-11.652347475244415
 20
86.66388246189997
 10
-11.652347474890586
 20
86.66388246137802
 10
-10.2985014634992
 20
84.44642874786175
 10
-7.701207209410236
 20
84.51016693002255
 10
-7.701207209304367
 20
84.5101669302409
  0
LWPOLYLINE
  5
5B
330
17
100
AcDbEntity
  8
default
100
AcDbPolyline
 90
13
 70
0
 10
-18.719444227870554
 20
95.49316392047331
 10
-14.470437270155267
 20
95.59743550185756
 10
-14.470437270049398
 20
95.59743550207591
 10
-13.47741343661616
 20
97.41920648058195
 10
-13.585809789522006
 20
97.35423620695494
 10
-13.851949702904731
 20
97.22836140246613
 10
-14.129145968236614
 20
97.12917899280338
 10
-14.414729033951614
 20
97.05764415879031
 10
-14.705948579011318
 20
97.01444581998341
 10
-15.0
 20
97.0
 10
-19.397641547039854
 20
97.0
 10
-19.469195272773504
 20
96.8580893361941
 10
-18.719444227870554
 20
95.49316392047331
  0
LWPOLYLINE
  5
5C
330
17
100
AcDbEntity
  8
default
100
AcDbPolyline
 90
10
 70
0
 10
-7.885203492407139
 20
92.00790961458026
 10
-6.641755249887806
 20
94.28910151118015
 10
-6.641755249977493
 20
94.28910151131245
 10
-7.995601262073676
 20
96.50655522522041
 10
-10.592895516162649
 20
96.4428170430596
 10
-10.592895516268516
 20
96.44281704284126
 10
-11.83634375866865
 20
94.1616251469257
 10
-11.836343758578963
 20
94.1616251467934
 10
-10.482497746482778
 20
91.94417143288544
 10
-7.885203492407139
 20
92.00790961458026
  0
LWPOLYLINE
  5
5D
330
17
100
AcDbEntity
  8
default
100
AcDbPolyline
 90
11
 70
0
 10
-9.191430389415473
 20
104.27821752754971
 10
-12.0
 20
103.0122825662891
 10
-12.0
 20
101.626053037791
 10
-10.666494029466348
 20
99.44191411744347
 10
-8.069199775390704
 20
99.50565229960395
 10
-7.9800921318754785
 20
99.66912644143193
 10
-7.985554180016591
 20
99.70594857901132
 10
-8.0
 20
100.0
 10
-8.0
 20
102.48988963596523
 10
-8.589478874711636
 20
103.37469291328976
 10
-9.191430389415473
 20
104.27821752754971
  0
LWPOLYLINE
  5
5E
330
17
100
AcDbEntity
  8
default
100
AcDbPolyline
 90
24
 70
0
 10
-11.379009839409758
 20
110.2148039694971
 10
-11.379009843800137
 20
110.21480397706871
 10
-11.498220391571522
 20
110.39958411408588
 10
-14.805831466335803
 20
110.6645009862259
 10
-14.726948389895494
 20
107.98658583457109
 10
-14.705948579011318
 20
107.98555418001659
 10
-14.414729033951614
 20
107.94235584120969
 10
-14.129145968236614
 20
107.87082100719662
 10
-13.851949702904731
 20
107.77163859753387
 10
-13.585809789522006
 20
107.64576379304506
 10
-13.333289300941193
 20
107.49440883690764
 10
-13.096820147509064
 20
107.31903136008822
 10
-12.878679656440358
 20
107.12132034355965
 10
-12.68096863991179
 20
106.90317985249094
 10
-12.505591163092365
 20
106.66671069905881
 10
-12.354236206954935
 20
106.414190210478
 10
-12.248621813014353
 20
106.19088733609047
 10
-9.811075371690094
 20
107.28958727512509
 10
-9.737197036316672
 20
107.470821840277
 10
-9.737197035773999
 20
107.47082184181927
 10
-9.687456560875845
 20
107.59284263863059
 10
-9.919150508055868
 20
107.95197561894436
 10
-9.919150508736987
 20
107.95197561989562
 10
-11.379009839409758
 20
110.2148039694971
  0
LWPOLYLINE
  5
5F
330
17
100
AcDbEntity
  8
default
100
AcDbPolyline
 90
8
 70
0
 10
-18.750316358171403
 20
120.48413005936891
 10
-17.799760035854415
 20
119.02185676735556
 10
-10.232285385060727
 20
121.30813609702673
 10
-10.453684472887383
 20
123.94532553407525
 10
-10.453684473233771
 20
123.9453255440666
 10
-10.457675295881927
 20
123.99286212353036
 10
-14.900055083446205
 20
124.87582281790674
 10
-18.750316358171403
 20
120.48413005936891
  0
LWPOLYLINE
  5
60
330
17
100
AcDbEntity
  8
default
100
AcDbPolyline
 90
11
 70
0
 10
-9.085683539161643
 20
118.52062181552016
 10
-9.364659966361867
 20
118.43633768264812
 10
-9.364659966811011
 20
118.43633768248822
 10
-16.932134617961417
 20
116.15005835245813
 10
-16.93213462312741
 20
116.15005835117272
 10
-16.94020041450858
 20
116.14762152079493
 10
-16.937268594745547
 20
115.22608511941507
 10
-15.629515741951764
 20
113.74007940338925
 10
-11.42017420521006
 20
113.40294013079256
 10
-8.532857652067172
 20
117.9401027612265
 10
-9.085683539161643
 20
118.52062181552016
  0
LWPOLYLINE
  5
61
330
17
100
AcDbEntity
  8
default
100
AcDbPolyline
 90
7
 70
0
 10
2.5967673491686583
 20
-0.3550086892209947
 10
5.077893089968711
 20
0.41571503365412354
 10
5.6509896367788315
 20
2.9497948163188994
 10
3.742960442788899
 20
4.713150876108557
 10
1.261834701988846
 20
3.9424271532334387
 10
0.6887381551787257
 20
1.4083473705686629
 10
2.5967673491686583
 20
-0.3550086892209947
  0
LWPOLYLINE
  5
62
330
17
100
AcDbEntity
  8
default
100
AcDbPolyline
 90
26
 70
0
 10
4.716353666637712
 20
58.9063972522472
 10
4.716353668995101
 20
58.90639725330447
 10
7.744094719011528
 20
60.089553371552945
 10
5.51852815371387
 20
66.83434642125675
 10
5.5
 20
66.8904977691007
 10
5.5
 20
62.5
 10
5.485554180016592
 20
62.20594857901132
 10
5.4423558412096895
 20
61.914729033951616
 10
5.370821007196625
 20
61.629145968236614
 10
5.271638597533858
 20
61.35194970290473
 10
5.145763793045063
 20
61.08580978952201
 10
4.994408836907635
 20
60.833289300941196
 10
4.819031360088211
 20
60.596820147509064
 10
4.621320343559642
 20
60.378679656440355
 10
4.403179852490936
 20
60.18096863991179
 10
4.166710699058807
 20
60.00559116309236
 10
3.9141902104779938
 20
59.85423620695494
 10
3.6480502970952706
 20
59.72836140246614
 10
3.370854031763386
 20
59.629178992803375
 10
3.085270966048384
 20
59.55764415879031
 10
2.9201479268925254
 20
59.53315046971179
 10
3.1183658454861245
 20
59.31182804049492
 10
3.1183658517011814
 20
59.31182803281338
 10
3.7405107840895653
 20
58.617165165022016
 10
3.887139153201133
 20
58.58236352261156
 10
4.716353666637712
 20
58.9063972522472
  0
LWPOLYLINE
  5
63
330
17
100
AcDbEntity
  8
default
100
AcDbPolyline
 90
11
 70
0
 10
10.910357053658501
 20
113.83830486532038
 10
13.188224420882761
 20
115.0878328778781
 10
13.267687474843115
 20
118.7209825119935
 10
9.50915443409528
 20
119.5901075312301
 10
7.145187077439537
 20
116.63992347235758
 10
7.1451870740747765
 20
116.63992346855525
 10
6.866680786013603
 20
116.29235318209976
 10
6.960942455568965
 20
116.2351471457538
 10
6.960942463025706
 20
116.23514714170689
 10
10.910357053399341
 20
113.83830486549506
 10
10.910357053658501
 20
113.83830486532038
  0
LWPOLYLINE
  5
64
330
17
100
AcDbEntity
  8
default
100
AcDbPolyline
 90
10
 70
0
 10
9.297094338107854
 20
108.67619450064376
 10
9.353905020274642
 20
111.27364951433132
 10
5.404490429937244
 20
113.67049179036842
 10
4.9870247771860505
 20
113.1428006028585
 10
4.98702477435177
 20
113.14280059963329
 10
4.891057098750025
 20
113.02149410080165
 10
4.798170284840669
 20
108.77459348862921
 10
4.798170284928961
 20
108.77459348858122
 10
7.019226970740213
 20
107.4266664880074
 10
9.297094338107854
 20
108.67619450064376
  0
LWPOLYLINE
  5
65
330
17
100
AcDbEntity
  8
default
100
AcDbPolyline
 90
14
 70
0
 10
8.780805077885343
 20
99.83867842635361
 10
12.0
 20
101.60457326779037
 10
12.0
 20
105.0
 10
12.013415413670273
 20
105.27307701864112
 10
10.739925008015263
 20
106.0459398245541
 10
10.739925007546805
 20
106.04593982486983
 10
8.462057640299854
 20
104.79641181208946
 10
8.462057640308593
 20
104.79641181174995
 10
8.371013368943785
 20
100.633754537351
 10
8.371013368357854
 20
100.63375452916254
 10
8.357328044716269
 20
100.00804451806471
 10
8.65991085441783
 20
99.77236169436947
 10
8.780805071978719
 20
99.83867842272238
 10
8.780805077885343
 20
99.83867842635361
  0
LWPOLYLINE
  5
66
330
17
100
AcDbEntity
  8
default
100
AcDbPolyline
 90
20
 70
0
 10
15.0
 20
97.0
 10
14.705948579011316
 20
97.01444581998341
 10
14.414729033951616
 20
97.05764415879031
 10
14.129145968236614
 20
97.12917899280338
 10
13.85194970290473
 20
97.22836140246613
 10
13.585809789522006
 20
97.35423620695494
 10
13.333289300941193
 20
97.50559116309236
 10
13.096820147509064
 20
97.68096863991178
 10
12.878679656440358
 20
97.87867965644035
 10
12.68096863991179
 20
98.09682014750906
 10
12.505591163092365
 20
98.33328930094119
 10
12.448348141732772
 20
98.42879351230273
 10
10.223635747463753
 20
97.20842375028488
 10
10.2480458263888
 20
97.09791597580383
 10
11.112093020103057
 20
96.52013418375078
 10
11.112093025316337
 20
96.52013418062191
 10
14.362820237991738
 20
94.34639759740678
 10
16.51124768424779
 20
95.52492112154141
 10
16.543510124562825
 20
97.0
 10
15.0
 20
97.0
  0
LWPOLYLINE
  5
67
330
17
100
AcDbEntity
  8
default
100
AcDbPolyline
 90
12
 70
0
 10
12.714767218567431
 20
91.83951228437945
 10
12.695223878469601
 20
91.85258076738326
 10
12.695223876425615
 20
91.85258076860795
 10
9.444496663610249
 20
94.02631735170159
 10
9.138628608441419
 20
93.46518122638498
 10
7.735361291326001
 20
90.89079017087676
 10
7.73536129115384
 20
90.89079017059383
 10
7.735361291311293
 20
90.89079017036157
 10
9.628475534447677
 20
87.7900732704182
 10
12.279172480149644
 20
89.16754521957043
 10
12.492210010066628
 20
89.27825316833332
 10
12.714767218567431
 20
91.83951228437945
  0
LWPOLYLINE
  5
68
330
17
100
AcDbEntity
  8
default
100
AcDbPolyline
 90
43
 70
0
 10
10.52418959193298
 20
82.22545875394287
 10
10.662971641302459
 20
82.48510170623163
 10
10.763874945394079
 20
82.65344869861885
 10
10.92743818095299
 20
82.89823837951651
 10
11.044356498832606
 20
83.0558844818046
 10
11.231125717209629
 20
83.28346343286832
 10
11.362933061562003
 20
83.42889042691412
 10
11.571109573085817
 20
83.63706693843794
 10
11.71653656713162
 20
83.76887428279032
 10
11.944115518195371
 20
83.95564350116739
 10
12.101761620483462
 20
84.07256181904701
 10
12.346551301381151
 20
84.23612505460592
 10
12.514898293768358
 20
84.33702835869754
 10
12.774541246057222
 20
84.47581040806708
 10
12.951967854979038
 20
84.55972694439293
 10
13.223963575093222
 20
84.67239126057166
 10
13.408761085314477
 20
84.7385128670135
 10
13.690490105781148
 20
84.82397443104801
 10
13.880878816257816
 20
84.87166432039007
 10
14.169627932601625
 20
84.9291000907008
 10
14.36377429597476
 20
84.95789898323874
 10
14.656762696358715
 20
84.98675582195992
 10
14.852796977017835
 20
84.99638636861552
 10
15.147203022982165
 20
84.99638636861552
 10
15.343237303641285
 20
84.98675582195992
 10
15.63622570402524
 20
84.95789898323874
 10
15.830372067398375
 20
84.9291000907008
 10
16.119121183742184
 20
84.87166432039007
 10
16.277376143940113
 20
84.83202351647489
 10
16.28400495648384
 20
85.13510106829926
 10
13.858265309594572
 20
86.60724718077108
 10
13.66251669526763
 20
86.50552366018606
 10
11.011829771940537
 20
85.12805691895731
 10
11.011829766384626
 20
85.12805691641469
 10
10.322471873369068
 20
84.76982239168137
 10
10.207147952201321
 20
84.40223229804933
 10
10.07408526187725
 20
83.97810063170778
 10
10.074085260776844
 20
83.97810062870981
 10
9.921069288626313
 20
83.49036872573197
 10
10.099514029611658
 20
83.08341787337088
 10
10.09951403400402
 20
83.08341786456081
 10
10.499039414768244
 20
82.17228317206717
 10
10.52418959193298
 20
82.22545875394287
  0
LWPOLYLINE
  5
69
330
17
100
AcDbEntity
  8
default
100
AcDbPolyline
 90
14
 70
0
 10
5.5
 20
81.83322431054921
 10
5.5
 20
80.0
 10
5.485554180016592
 20
79.70594857901132
 10
5.4423558412096895
 20
79.41472903395162
 10
5.370821007196625
 20
79.12914596823661
 10
5.271638597533858
 20
78.85194970290473
 10
5.145763793045063
 20
78.585809789522
 10
4.994408836907635
 20
78.33328930094119
 10
4.819031360088211
 20
78.09682014750906
 10
4.621320343559642
 20
77.87867965644035
 10
4.421269523357246
 20
77.69736416188995
 10
8.108801172037296
 20
80.1528566876534
 10
7.352043935505495
 20
81.87867388314214
 10
5.5
 20
81.83322431054921
  0
LWPOLYLINE
  5
6A
330
17
100
AcDbEntity
  8
default
100
AcDbPolyline
 90
7
 70
0
 10
3.8858444623159336
 20
77.340829666528
 10
3.6480502970952706
 20
77.22836140246613
 10
3.370854031763386
 20
77.12917899280338
 10
3.085270966048384
 20
77.05764415879031
 10
3.0070964276514616
 20
77.04604806143685
 10
3.1331362753619274
 20
76.83960838811318
 10
3.8858444623159336
 20
77.340829666528
  0
LWPOLYLINE
  5
6B
330
17
100
AcDbEntity
  8
default
100
AcDbPolyline
 90
17
 70
0
 10
2.942797538314238
 20
116.16304932250898
 10
2.942797532749502
 20
116.16304932648495
 10
0.558040245471318
 20
118.04958709591295
 10
-0.5042851851321757
 20
118.88997326791286
 10
-4.245624309871346
 20
117.40465805772692
 10
-4.087790045713607
 20
117.17748386214994
 10
-4.08779004151922
 20
117.17748385670518
 10
-2.319965397327932
 20
114.63301644618544
 10
-2.1526915560316056
 20
114.64554616953815
 10
-2.1526915465654763
 20
114.64554617072491
 10
1.6425578536292562
 20
114.92983105762897
 10
1.642557865279045
 20
114.92983105792872
 10
2.634258469731787
 20
115.00411484388246
 10
3.0517241224527893
 20
115.53180603152991
 10
3.0517241269638085
 20
115.53180603669887
 10
3.316951631102711
 20
115.86706287926063
 10
2.942797538314238
 20
116.16304932250898
  0
LWPOLYLINE
  5
6C
330
17
100
AcDbEntity
  8
default
100
AcDbPolyline
 90
32
 70
0
 10
7.294250590913119
 20
96.56135141547145
 10
7.294250589842996
 20
96.56135142178427
 10
7.168306265491992
 20
97.13151864800602
 10
6.67764227392243
 20
97.51369857156158
 10
6.666710699058807
 20
97.50559116309236
 10
6.414190210477994
 20
97.35423620695494
 10
6.148050297095271
 20
97.22836140246613
 10
5.870854031763386
 20
97.12917899280338
 10
5.585270966048384
 20
97.05764415879031
 10
5.2940514209886835
 20
97.01444581998341
 10
5.0
 20
97.0
 10
2.5235746900693776
 20
97.0
 10
1.150127514115276
 20
94.48031605784415
 10
1.1501275138432199
 20
94.48031605739708
 10
1.1501275141995286
 20
94.48031605687146
 10
2.0539208953096413
 20
93.0
 10
2.5
 20
93.0
 10
2.7940514209886835
 20
92.98555418001659
 10
3.085270966048384
 20
92.94235584120969
 10
3.370854031763386
 20
92.87082100719662
 10
3.6480502970952706
 20
92.77163859753387
 10
3.9141902104779938
 20
92.64576379304506
 10
4.166710699058807
 20
92.49440883690764
 10
4.403179852490936
 20
92.31903136008822
 10
4.41345184519642
 20
92.30972136857942
 10
5.1012677796700565
 20
92.32660052551574
 10
5.1012677796979204
 20
92.32660052557321
 10
6.5045351465159555
 20
94.90099167133987
 10
7.327507718931884
 20
96.41079183807597
 10
7.318660670411578
 20
96.45084363986271
 10
7.318660670146468
 20
96.45084364083903
 10
7.294250590913119
 20
96.56135141547145
  0
LWPOLYLINE
  5
6D
330
17
100
AcDbEntity
  8
default
100
AcDbPolyline
 90
8
 70
0
 10
7.344710269002295
 20
85.30025819401911
 10
7.44279122678563
 20
85.61288707563654
 10
7.067980540901907
 20
86.22678654430969
 10
7.0679805365573145
 20
86.22678655068479
 10
5.5
 20
88.79496951469743
 10
5.5
 20
84.83412750883762
 10
7.21164922120704
 20
84.87613176367782
 10
7.344710269002295
 20
85.30025819401911
  0
LWPOLYLINE
  5
6E
330
17
100
AcDbEntity
  8
default
100
AcDbPolyline
 90
7
 70
0
 10
1.8666464397558222
 20
111.93821204629155
 10
-1.928602960493187
 20
111.65392715947863
 10
-2.5239007080117783
 20
109.7100523962965
 10
-0.28118988465752004
 20
108.0
 10
0.2672310105750686
 20
108.0
 10
1.7988875820301473
 20
108.84019281342626
 10
1.8666464397558222
 20
111.93821204629155
  0
LWPOLYLINE
  5
6F
330
17
100
AcDbEntity
  8
default
100
AcDbPolyline
 90
10
 70
0
 10
7.168027498135938
 20
121.46604054435335
 10
7.278919488191605
 20
121.60443153372034
 10
6.697798316832632
 20
123.7168661816977
 10
4.301466731354594
 20
124.8325716778636
 10
1.7341289916075766
 20
123.8133361400105
 10
1.3569774208590388
 20
121.24278042372316
 10
2.41928818013659
 20
120.40240585775038
 10
4.8040601387764
 20
118.51585648250335
 10
7.168027495183303
 20
121.46604054103103
 10
7.168027498135938
 20
121.46604054435335
  0
LWPOLYLINE
  5
70
330
17
100
AcDbEntity
  8
default
100
AcDbPolyline
 90
28
 70
0
 10
10.273885244385308
 20
25.265083073592116
 10
10.273885243045278
 20
25.26508307312326
 10
10.117592412047088
 20
25.201701179612428
 10
10.170683633084074
 20
25.11758502089093
 10
11.288419509617533
 20
23.34667739145541
 10
11.362933061562003
 20
23.428890426914126
 10
11.571109573085845
 20
23.63706693843797
 10
11.716536567131648
 20
23.76887428279035
 10
11.944115518195442
 20
23.955643501167433
 10
12.101761620483533
 20
24.07256181904705
 10
12.346551301381112
 20
24.236125054605893
 10
12.514898293768319
 20
24.337028358697513
 10
12.77454124605718
 20
24.475810408067048
 10
12.951967854978996
 20
24.559726944392914
 10
13.223963575093126
 20
24.672391260571622
 10
13.408761085314381
 20
24.73851286701347
 10
13.690490105781304
 20
24.823974431048054
 10
13.880878816257972
 20
24.871664320390096
 10
14.169627932601678
 20
24.929100090700807
 10
14.363774295974814
 20
24.95789898323874
 10
14.656762696358605
 20
24.98675582195991
 10
14.852796977017725
 20
24.996386368615518
 10
15.101958839367473
 20
24.996386368615518
 10
15.499762385617942
 20
26.83533101947978
 10
14.758358473423868
 20
27.08368475129828
 10
13.704480698241706
 20
26.656302583521164
 10
13.704480695885575
 20
26.6563025824263
 10
10.273885244385308
 20
25.265083073592116
  0
LWPOLYLINE
  5
71
330
17
100
AcDbEntity
  8
default
100
AcDbPolyline
 90
6
 70
0
 10
12.949044595006853
 20
3.646119771990925
 10
8.577092926949263
 20
2.28803992504254
 10
8.003996380139142
 20
-0.246039857622236
 10
9.912025574129075
 20
-2.0093959174118936
 10
14.118510459549725
 20
-0.702715793158859
 10
12.949044595006853
 20
3.646119771990925
  0
LWPOLYLINE
  5
72
330
17
100
AcDbEntity
  8
default
100
AcDbPolyline
 90
7
 70
0
 10
17.800680563319474
 20
12.641123282257468
 10
13.65965622617485
 20
11.312083273662166
 10
13.704453781156523
 20
11.145280004211472
 10
14.828195933718234
 20
6.961036799009889
 10
19.175842809025198
 20
8.35639122594148
 10
19.725157289300114
 20
10.895732400938869
 10
17.800680563319474
 20
12.641123282257468
  0
LWPOLYLINE
  5
73
330
17
100
AcDbEntity
  8
default
100
AcDbPolyline
 90
12
 70
0
 10
7.687137829139829
 20
5.152997154276818
 10
11.85939201246947
 20
6.449044035281986
 10
10.807120967918674
 20
10.367165250852073
 10
10.762325427009799
 20
10.533961020899511
 10
10.762325426983804
 20
10.533961021018673
 10
10.691329041030258
 20
10.798315388150513
 10
10.490218510481007
 20
10.735843481017454
 10
10.490218510032204
 20
10.735843480854113
 10
10.134702955079572
 20
10.625408016993076
 10
6.3522051819600165
 20
9.450432997196913
 10
5.779108635149896
 20
6.916353214066476
 10
7.687137829139829
 20
5.152997154276818
  0
LWPOLYLINE
  5
74
330
17
100
AcDbEntity
  8
default
100
AcDbPolyline
 90
21
 70
0
 10
12.497851549789974
 20
14.377964129600512
 10
12.568982258439064
 20
14.112759297247976
 10
15.388650408423395
 20
15.017716978460877
 10
15.343237303641395
 20
15.013244178040091
 10
15.147203022982275
 20
15.003613631384484
 10
14.852796977017725
 20
15.003613631384484
 10
14.656762696358605
 20
15.013244178040091
 10
14.363774295974814
 20
15.042101016761261
 10
14.169627932601678
 20
15.070899909299193
 10
13.880878816257972
 20
15.128335679609902
 10
13.690490105781304
 20
15.176025568951944
 10
13.408761085314381
 20
15.261487132986531
 10
13.223963575093126
 20
15.327608739428378
 10
12.951967854978996
 20
15.440273055607088
 10
12.77454124605718
 20
15.52418959193295
 10
12.514898293768319
 20
15.662971641302487
 10
12.346551301381112
 20
15.763874945394107
 10
12.101761620483508
 20
15.927438180952969
 10
12.077425509672516
 20
15.945487070830078
 10
12.497851547345572
 20
14.377964140838362
 10
12.497851549789974
 20
14.377964129600512
  0
LWPOLYLINE
  5
75
330
17
100
AcDbEntity
  8
default
100
AcDbPolyline
 90
13
 70
0
 10
14.343927503252072
 20
71.43115092250066
 10
14.343927498904112
 20
71.43115092282018
 10
14.12391288271547
 20
71.43620530467837
 10
13.859103502877272
 20
70.9296357223422
 10
14.092446504007484
 20
70.50314294191138
 10
14.092446507765189
 20
70.50314293580054
 10
16.0690901552981
 20
66.89033157668932
 10
16.06909015556248
 20
66.89033157614622
 10
18.66648106242554
 20
66.83066187944222
 10
18.666481062788044
 20
66.8306618794166
 10
20.01685198955238
 20
69.05023354012519
 10
18.769832009004354
 20
71.32947489848354
 10
14.343927503252072
 20
71.43115092250066
  0
LWPOLYLINE
  5
76
330
17
100
AcDbEntity
  8
default
100
AcDbPolyline
 90
9
 70
0
 10
16.33556601319129
 20
44.76947978660413
 10
17.448644063435495
 20
46.217960487585515
 10
16.796587680586434
 20
49.29596035544944
 10
13.736047430779067
 20
50.07658105923092
 10
13.73604743060081
 20
50.07658105928554
 10
13.736047430506733
 20
50.07658105917951
 10
11.921226781048034
 20
48.21743447826009
 10
12.623884625251932
 20
45.716180401908694
 10
16.33556601319129
 20
44.76947978660413
  0
LWPOLYLINE
  5
77
330
17
100
AcDbEntity
  8
default
100
AcDbPolyline
 90
10
 70
0
 10
14.42152884290476
 20
32.29925512322968
 10
15.738617492839694
 20
29.919160946272314
 10
17.196716515813023
 20
29.43073037918657
 10
18.094414896331728
 20
29.79934301879257
 10
18.13330111000687
 20
29.87236780533567
 10
17.37288272101432
 20
36.621800816617906
 10
17.232387891348367
 20
36.55961107312584
 10
17.23238788787902
 20
36.55961107137515
 10
13.080866606248932
 20
34.72194882991719
 10
14.42152884290476
 20
32.29925512322968
  0
LWPOLYLINE
  5
78
330
17
100
AcDbEntity
  8
default
100
AcDbPolyline
 90
13
 70
0
 10
17.62919950621324
 20
56.59118369606801
 10
13.292144981212914
 20
57.20298998290673
 10
14.444840428684813
 20
53.09973515880889
 10
14.477489300954751
 20
52.98351483117852
 10
14.477489300969665
 20
52.98351483111373
 10
17.53802955036423
 20
52.202894127803866
 10
17.53802956017533
 20
52.20289412476577
 10
17.551910693757236
 20
52.199353605974466
 10
19.2168309642002
 20
54.08974680164829
 10
18.276988393627107
 20
56.49980340292677
 10
18.168317548957
 20
56.51513304786944
 10
18.168317548111453
 20
56.51513304794713
 10
17.62919950621324
 20
56.59118369606801
  0
LWPOLYLINE
  5
79
330
17
100
AcDbEntity
  8
default
100
AcDbPolyline
 90
7
 70
0
 10
18.048289257511378
 20
59.56176676716915
 10
18.58736350855326
 20
59.48572229644388
 10
19.844600412528962
 20
61.55221184156835
 10
18.59758043152121
 20
63.831453199915856
 10
16.000189524107956
 20
63.891122896632496
 10
13.73630793413814
 20
60.17003610494356
 10
18.048289257511378
 20
59.56176676716915
  0
LWPOLYLINE
  5
7A
330
17
100
AcDbEntity
  8
default
100
AcDbPolyline
 90
35
 70
0
 10
19.720365328173827
 20
78.35804211197608
 10
19.67239126057163
 20
78.22396357509314
 10
19.559726944392878
 20
77.95196785497893
 10
19.47581040806702
 20
77.77454124605713
 10
19.337028358697545
 20
77.51489829376837
 10
19.23612505460592
 20
77.34655130138115
 10
19.07256181904701
 20
77.10176162048349
 10
18.955643501167394
 20
76.9441155181954
 10
18.76887428279037
 20
76.71653656713168
 10
18.637066938437997
 20
76.57110957308588
 10
18.42889042691416
 20
76.36293306156203
 10
18.283463432868352
 20
76.23112571720965
 10
18.055884481804675
 20
76.04435649883266
 10
17.89823837951659
 20
75.92743818095303
 10
17.65344869861883
 20
75.76387494539406
 10
17.485101706231617
 20
75.66297164130245
 10
17.225458753942775
 20
75.52418959193292
 10
17.04803214502096
 20
75.44027305560707
 10
16.776036424906778
 20
75.32760873942834
 10
16.591238914685523
 20
75.2614871329865
 10
16.309509894218852
 20
75.17602556895199
 10
16.119121183742184
 20
75.12833567960993
 10
15.830372067398375
 20
75.0708999092992
 10
15.63622570402524
 20
75.04210101676126
 10
15.343237303641285
 20
75.01324417804008
 10
15.147203022982165
 20
75.00361363138448
 10
14.852796977017835
 20
75.00361363138448
 10
14.656762696358715
 20
75.01324417804008
 10
14.36377429597476
 20
75.04210101676126
 10
14.260865640639082
 20
75.05736607377673
 10
14.412828134319302
 20
74.43035960219535
 10
18.8387326402285
 20
74.32868357799184
 10
18.838732640732317
 20
74.32868357795623
 10
20.896573866717517
 20
77.71110686473548
 10
19.720365328173827
 20
78.35804211197608
  0
LWPOLYLINE
  5
7B
330
17
100
AcDbEntity
  8
default
100
AcDbPolyline
 90
13
 70
0
 10
16.852111775893718
 20
111.10965120187029
 10
14.63105509057641
 20
112.4575782022439
 10
12.353187723085284
 20
111.20805018953979
 10
12.296377040918497
 20
108.61059517585223
 10
13.754623385507333
 20
107.72560667763767
 10
13.85194970290473
 20
107.77163859753387
 10
14.129145968236614
 20
107.87082100719662
 10
14.414729033951616
 20
107.94235584120969
 10
14.705948579011316
 20
107.98555418001659
 10
15.0
 20
108.0
 10
15.861576542304395
 20
108.0
 10
16.7953010937199
 20
108.51219618832693
 10
16.852111775893718
 20
111.10965120187029
  0
LWPOLYLINE
  5
7C
330
17
100
AcDbEntity
  8
default
100
AcDbPolyline
 90
5
 70
0
 10
-2.5
 20
20.0
 10
-2.5
 20
10.0
 10
2.5
 20
10.0
 10
2.5
 20
20.0
 10
-2.5
 20
20.0
  0
LWPOLYLINE
  5
7D
330
17
100
AcDbEntity
  8
default
100
AcDbPolyline
 90
65
 70
0
 10
-13.086119328535583
 20
19.419430645491076
 10
-13.03842943919354
 20
19.609819355967744
 10
-13.009630546655606
 20
19.80396571934088
 10
-13.0
 20
20.0
 10
-13.009630546655606
 20
20.19603428065912
 10
-13.03842943919354
 20
20.390180644032256
 10
-13.086119328535583
 20
20.580569354508924
 10
-13.152240934977428
 20
20.76536686473018
 10
-13.23615747130329
 20
20.942793473651996
 10
-13.33706077539491
 20
21.111140466039203
 10
-13.453979093274526
 20
21.268786568327293
 10
-13.585786437626906
 20
21.414213562373096
 10
-13.731213431672709
 20
21.546020906725474
 10
-13.888859533960796
 20
21.66293922460509
 10
-14.057206526348004
 20
21.76384252869671
 10
-14.23463313526982
 20
21.847759065022572
 10
-14.419430645491076
 20
21.91388067146442
 10
-14.609819355967744
 20
21.96157056080646
 10
-14.80396571934088
 20
21.990369453344393
 10
-15.0
 20
22.0
 10
-15.196034280659122
 20
21.990369453344393
 10
-15.390180644032258
 20
21.96157056080646
 10
-15.580569354508924
 20
21.91388067146442
 10
-15.765366864730181
 20
21.847759065022572
 10
-15.942793473651996
 20
21.76384252869671
 10
-16.111140466039203
 20
21.66293922460509
 10
-16.268786568327293
 20
21.546020906725474
 10
-16.414213562373096
 20
21.414213562373096
 10
-16.546020906725474
 20
21.26878656832729
 10
-16.66293922460509
 20
21.111140466039203
 10
-16.76384252869671
 20
20.942793473651996
 10
-16.847759065022572
 20
20.76536686473018
 10
-16.91388067146442
 20
20.580569354508924
 10
-16.96157056080646
 20
20.390180644032256
 10
-16.990369453344393
 20
20.19603428065912
 10
-17.0
 20
20.0
 10
-16.990369453344393
 20
19.80396571934088
 10
-16.96157056080646
 20
19.609819355967744
 10
-16.91388067146442
 20
19.419430645491076
 10
-16.847759065022572
 20
19.23463313526982
 10
-16.76384252869671
 20
19.057206526348004
 10
-16.66293922460509
 20
18.888859533960797
 10
-16.546020906725474
 20
18.73121343167271
 10
-16.414213562373096
 20
18.585786437626904
 10
-16.26878656832729
 20
18.453979093274526
 10
-16.111140466039203
 20
18.33706077539491
 10
-15.942793473651996
 20
18.23615747130329
 10
-15.76536686473018
 20
18.152240934977428
 10
-15.580569354508924
 20
18.08611932853558
 10
-15.390180644032256
 20
18.03842943919354
 10
-15.196034280659122
 20
18.009630546655607
 10
-15.0
 20
18.0
 10
-14.803965719340878
 20
18.009630546655607
 10
-14.609819355967744
 20
18.03842943919354
 10
-14.419430645491076
 20
18.08611932853558
 10
-14.23463313526982
 20
18.152240934977428
 10
-14.057206526348004
 20
18.23615747130329
 10
-13.888859533960796
 20
18.33706077539491
 10
-13.731213431672709
 20
18.453979093274526
 10
-13.585786437626904
 20
18.585786437626904
 10
-13.453979093274526
 20
18.73121343167271
 10
-13.33706077539491
 20
18.888859533960797
 10
-13.23615747130329
 20
19.057206526348004
 10
-13.152240934977426
 20
19.23463313526982
 10
-13.086119328535583
 20
19.419430645491076
  0
LWPOLYLINE
  5
7E
330
17
100
AcDbEntity
  8
default
100
AcDbPolyline
 90
5
 70
0
 10
2.5
 20
37.5
 10
-2.5
 20
37.5
 10
-2.5
 20
27.5
 10
2.5
 20
27.5
 10
2.5
 20
37.5
  0
LWPOLYLINE
  5
7F
330
17
100
AcDbEntity
  8
default
100
AcDbPolyline
 90
5
 70
0
 10
-2.5
 20
55.0
 10
-2.5
 20
45.0
 10
2.5
 20
45.0
 10
2.5
 20
55.0
 10
-2.5
 20
55.0
  0
LWPOLYLINE
  5
80
330
17
100
AcDbEntity
  8
default
100
AcDbPolyline
 90
65
 70
0
 10
-13.086119328535583
 20
79.41943064549108
 10
-13.03842943919354
 20
79.60981935596774
 10
-13.009630546655606
 20
79.80396571934088
 10
-13.0
 20
80.0
 10
-13.009630546655606
 20
80.19603428065912
 10
-13.03842943919354
 20
80.39018064403226
 10
-13.086119328535583
 20
80.58056935450892
 10
-13.152240934977428
 20
80.76536686473018
 10
-13.23615747130329
 20
80.94279347365199
 10
-13.33706077539491
 20
81.1111404660392
 10
-13.453979093274526
 20
81.26878656832729
 10
-13.585786437626906
 20
81.41421356237309
 10
-13.731213431672709
 20
81.54602090672547
 10
-13.888859533960796
 20
81.6629392246051
 10
-14.057206526348004
 20
81.76384252869671
 10
-14.23463313526982
 20
81.84775906502257
 10
-14.419430645491076
 20
81.91388067146441
 10
-14.609819355967744
 20
81.96157056080646
 10
-14.80396571934088
 20
81.9903694533444
 10
-15.0
 20
82.0
 10
-15.196034280659122
 20
81.9903694533444
 10
-15.390180644032258
 20
81.96157056080646
 10
-15.580569354508924
 20
81.91388067146441
 10
-15.765366864730181
 20
81.84775906502257
 10
-15.942793473651996
 20
81.76384252869671
 10
-16.111140466039203
 20
81.6629392246051
 10
-16.268786568327293
 20
81.54602090672547
 10
-16.414213562373096
 20
81.41421356237309
 10
-16.546020906725474
 20
81.26878656832729
 10
-16.66293922460509
 20
81.1111404660392
 10
-16.76384252869671
 20
80.94279347365199
 10
-16.847759065022572
 20
80.76536686473018
 10
-16.91388067146442
 20
80.58056935450892
 10
-16.96157056080646
 20
80.39018064403226
 10
-16.990369453344393
 20
80.19603428065912
 10
-17.0
 20
80.0
 10
-16.990369453344393
 20
79.80396571934088
 10
-16.96157056080646
 20
79.60981935596774
 10
-16.91388067146442
 20
79.41943064549108
 10
-16.847759065022572
 20
79.23463313526982
 10
-16.76384252869671
 20
79.05720652634801
 10
-16.66293922460509
 20
78.8888595339608
 10
-16.546020906725474
 20
78.73121343167271
 10
-16.414213562373096
 20
78.58578643762691
 10
-16.26878656832729
 20
78.45397909327453
 10
-16.111140466039203
 20
78.3370607753949
 10
-15.942793473651996
 20
78.23615747130329
 10
-15.76536686473018
 20
78.15224093497743
 10
-15.580569354508924
 20
78.08611932853559
 10
-15.390180644032256
 20
78.03842943919354
 10
-15.196034280659122
 20
78.0096305466556
 10
-15.0
 20
78.0
 10
-14.803965719340878
 20
78.0096305466556
 10
-14.609819355967744
 20
78.03842943919354
 10
-14.419430645491076
 20
78.08611932853559
 10
-14.23463313526982
 20
78.15224093497743
 10
-14.057206526348004
 20
78.23615747130329
 10
-13.888859533960796
 20
78.3370607753949
 10
-13.731213431672709
 20
78.45397909327453
 10
-13.585786437626904
 20
78.58578643762691
 10
-13.453979093274526
 20
78.73121343167271
 10
-13.33706077539491
 20
78.8888595339608
 10
-13.23615747130329
 20
79.05720652634801
 10
-13.152240934977426
 20
79.23463313526982
 10
-13.086119328535583
 20
79.41943064549108
  0
LWPOLYLINE
  5
81
330
17
100
AcDbEntity
  8
default
100
AcDbPolyline
 90
5
 70
0
 10
-15.0
 20
105.0
 10
-25.0
 20
105.0
 10
-25.0
 20
100.0
 10
-15.0
 20
100.0
 10
-15.0
 20
105.0
  0
LWPOLYLINE
  5
82
330
17
100
AcDbEntity
  8
default
100
AcDbPolyline
 90
65
 70
0
 10
16.96157056080646
 20
19.609819355967744
 10
16.990369453344393
 20
19.80396571934088
 10
17.0
 20
20.0
 10
16.990369453344393
 20
20.19603428065912
 10
16.96157056080646
 20
20.390180644032256
 10
16.91388067146442
 20
20.580569354508924
 10
16.847759065022572
 20
20.76536686473018
 10
16.76384252869671
 20
20.942793473651996
 10
16.66293922460509
 20
21.111140466039203
 10
16.546020906725474
 20
21.268786568327293
 10
16.414213562373096
 20
21.414213562373096
 10
16.26878656832729
 20
21.546020906725474
 10
16.111140466039203
 20
21.66293922460509
 10
15.942793473651996
 20
21.76384252869671
 10
15.76536686473018
 20
21.847759065022572
 10
15.580569354508924
 20
21.91388067146442
 10
15.390180644032256
 20
21.96157056080646
 10
15.19603428065912
 20
21.990369453344393
 10
15.0
 20
22.0
 10
14.80396571934088
 20
21.990369453344393
 10
14.609819355967744
 20
21.96157056080646
 10
14.419430645491076
 20
21.91388067146442
 10
14.23463313526982
 20
21.847759065022572
 10
14.057206526348004
 20
21.76384252869671
 10
13.888859533960797
 20
21.66293922460509
 10
13.731213431672707
 20
21.546020906725474
 10
13.585786437626904
 20
21.414213562373096
 10
13.453979093274526
 20
21.26878656832729
 10
13.33706077539491
 20
21.111140466039203
 10
13.23615747130329
 20
20.942793473651996
 10
13.152240934977428
 20
20.76536686473018
 10
13.086119328535581
 20
20.580569354508924
 10
13.03842943919354
 20
20.390180644032256
 10
13.009630546655607
 20
20.19603428065912
 10
13.0
 20
20.0
 10
13.009630546655607
 20
19.80396571934088
 10
13.03842943919354
 20
19.609819355967744
 10
13.086119328535581
 20
19.419430645491076
 10
13.152240934977428
 20
19.23463313526982
 10
13.23615747130329
 20
19.057206526348004
 10
13.33706077539491
 20
18.888859533960797
 10
13.453979093274526
 20
18.73121343167271
 10
13.585786437626904
 20
18.585786437626904
 10
13.73121343167271
 20
18.453979093274526
 10
13.888859533960797
 20
18.33706077539491
 10
14.057206526348004
 20
18.23615747130329
 10
14.23463313526982
 20
18.152240934977428
 10
14.419430645491076
 20
18.08611932853558
 10
14.609819355967744
 20
18.03842943919354
 10
14.80396571934088
 20
18.009630546655607
 10
15.0
 20
18.0
 10
15.19603428065912
 20
18.009630546655607
 10
15.390180644032256
 20
18.03842943919354
 10
15.580569354508924
 20
18.08611932853558
 10
15.76536686473018
 20
18.152240934977428
 10
15.942793473651996
 20
18.23615747130329
 10
16.111140466039206
 20
18.33706077539491
 10
16.26878656832729
 20
18.453979093274526
 10
16.414213562373096
 20
18.585786437626904
 10
16.546020906725474
 20
18.73121343167271
 10
16.66293922460509
 20
18.888859533960797
 10
16.76384252869671
 20
19.057206526348004
 10
16.847759065022572
 20
19.23463313526982
 10
16.91388067146442
 20
19.419430645491076
 10
16.96157056080646
 20
19.609819355967744
  0
LWPOLYLINE
  5
83
330
17
100
AcDbEntity
  8
default
100
AcDbPolyline
 90
5
 70
0
 10
2.5
 20
72.5
 10
-2.5
 20
72.5
 10
-2.5
 20
62.5
 10
2.5
 20
62.5
 10
2.5
 20
72.5
  0
LWPOLYLINE
  5
84
330
17
100
AcDbEntity
  8
default
100
AcDbPolyline
 90
65
 70
0
 10
16.91388067146442
 20
79.41943064549108
 10
16.96157056080646
 20
79.60981935596774
 10
16.990369453344393
 20
79.80396571934088
 10
17.0
 20
80.0
 10
16.990369453344393
 20
80.19603428065912
 10
16.96157056080646
 20
80.39018064403226
 10
16.91388067146442
 20
80.58056935450892
 10
16.847759065022572
 20
80.76536686473018
 10
16.76384252869671
 20
80.94279347365199
 10
16.66293922460509
 20
81.1111404660392
 10
16.546020906725474
 20
81.26878656832729
 10
16.414213562373096
 20
81.41421356237309
 10
16.26878656832729
 20
81.54602090672547
 10
16.111140466039203
 20
81.6629392246051
 10
15.942793473651996
 20
81.76384252869671
 10
15.76536686473018
 20
81.84775906502257
 10
15.580569354508924
 20
81.91388067146441
 10
15.390180644032256
 20
81.96157056080646
 10
15.19603428065912
 20
81.9903694533444
 10
15.0
 20
82.0
 10
14.80396571934088
 20
81.9903694533444
 10
14.609819355967744
 20
81.96157056080646
 10
14.419430645491076
 20
81.91388067146441
 10
14.23463313526982
 20
81.84775906502257
 10
14.057206526348004
 20
81.76384252869671
 10
13.888859533960797
 20
81.6629392246051
 10
13.731213431672707
 20
81.54602090672547
 10
13.585786437626904
 20
81.41421356237309
 10
13.453979093274526
 20
81.26878656832729
 10
13.33706077539491
 20
81.1111404660392
 10
13.23615747130329
 20
80.94279347365199
 10
13.152240934977428
 20
80.76536686473018
 10
13.086119328535581
 20
80.58056935450892
 10
13.03842943919354
 20
80.39018064403226
 10
13.009630546655607
 20
80.19603428065912
 10
13.0
 20
80.0
 10
13.009630546655607
 20
79.80396571934088
 10
13.03842943919354
 20
79.60981935596774
 10
13.086119328535581
 20
79.41943064549108
 10
13.152240934977428
 20
79.23463313526982
 10
13.23615747130329
 20
79.05720652634801
 10
13.33706077539491
 20
78.8888595339608
 10
13.453979093274526
 20
78.73121343167271
 10
13.585786437626904
 20
78.58578643762691
 10
13.73121343167271
 20
78.45397909327453
 10
13.888859533960797
 20
78.3370607753949
 10
14.057206526348004
 20
78.23615747130329
 10
14.23463313526982
 20
78.15224093497743
 10
14.419430645491076
 20
78.08611932853559
 10
14.609819355967744
 20
78.03842943919354
 10
14.80396571934088
 20
78.0096305466556
 10
15.0
 20
78.0
 10
15.19603428065912
 20
78.0096305466556
 10
15.390180644032256
 20
78.03842943919354
 10
15.580569354508924
 20
78.08611932853559
 10
15.76536686473018
 20
78.15224093497743
 10
15.942793473651996
 20
78.23615747130329
 10
16.111140466039206
 20
78.3370607753949
 10
16.26878656832729
 20
78.45397909327453
 10
16.414213562373096
 20
78.58578643762691
 10
16.546020906725474
 20
78.73121343167271
 10
16.66293922460509
 20
78.8888595339608
 10
16.76384252869671
 20
79.05720652634801
 10
16.847759065022572
 20
79.23463313526982
 10
16.91388067146442
 20
79.41943064549108
  0
LWPOLYLINE
  5
85
330
17
100
AcDbEntity
  8
default
100
AcDbPolyline
 90
5
 70
0
 10
-2.5
 20
90.0
 10
-2.5
 20
80.0
 10
2.5
 20
80.0
 10
2.5
 20
90.0
 10
-2.5
 20
90.0
  0
LWPOLYLINE
  5
86
330
17
100
AcDbEntity
  8
default
100
AcDbPolyline
 90
5
 70
0
 10
5.0
 20
105.0
 10
-5.0
 20
105.0
 10
-5.0
 20
100.0
 10
5.0
 20
100.0
 10
5.0
 20
105.0
  0
LWPOLYLINE
  5
87
330
17
100
AcDbEntity
  8
default
100
AcDbPolyline
 90
5
 70
0
 10
25.0
 20
105.0
 10
15.0
 20
105.0
 10
15.0
 20
100.0
 10
25.0
 20
100.0
 10
25.0
 20
105.0
  0
ENDSEC
  0
SECTION
  2
OBJECTS
  0
DICTIONARY
  5
A
330
0
100
AcDbDictionary
280
0
281
1
  3
ACAD_COLOR
350
B
  3
ACAD_GROUP
350
C
  3
ACAD_LAYOUT
350
D
  3
ACAD_MATERIAL
350
E
  3
ACAD_MLEADERSTYLE
350
F
  3
ACAD_MLINESTYLE
350
10
  3
ACAD_PLOTSETTINGS
350
11
  3
ACAD_PLOTSTYLENAME
350
12
  3
ACAD_SCALELIST
350
14
  3
ACAD_TABLESTYLE
350
15
  3
ACAD_VISUALSTYLE
350
16
  3
EZDXF_META
350
2D
  0
DICTIONARY
  5
B
330
A
100
AcDbDictionary
280
0
281
1
  0
DICTIONARY
  5
C
330
A
100
AcDbDictionary
280
0
281
1
  0
DICTIONARY
  5
D
330
A
100
AcDbDictionary
280
0
281
1
  3
Model
350
1A
  3
Layout1
350
1E
  0
DICTIONARY
  5
E
330
A
100
AcDbDictionary
280
0
281
1
  3
ByBlock
350
1F
  3
ByLayer
350
20
  3
Global
350
21
  0
DICTIONARY
  5
F
330
A
100
AcDbDictionary
280
0
281
1
  3
Standard
350
2C
  0
DICTIONARY
  5
10
330
A
100
AcDbDictionary
280
0
281
1
  3
Standard
350
22
  0
DICTIONARY
  5
11
330
A
100
AcDbDictionary
280
0
281
1
  0
ACDBDICTIONARYWDFLT
  5
12
330
A
100
AcDbDictionary
280
0
281
1
  3
Normal
350
13
100
AcDbDictionaryWithDefault
340
13
  0
ACDBPLACEHOLDER
  5
13
330
12
  0
DICTIONARY
  5
14
330
A
100
AcDbDictionary
280
0
281
1
  0
DICTIONARY
  5
15
330
A
100
AcDbDictionary
280
0
281
1
  0
DICTIONARY
  5
16
330
A
100
AcDbDictionary
280
0
281
1
  0
LAYOUT
  5
1A
330
D
100
AcDbPlotSettings
  1

  2
Adobe PDF
  4
A3
  6

 40
7.5
 41
20.0
 42
7.5
 43
20.0
 44
420.0
 45
297.0
 46
0.0
 47
0.0
 48
0.0
 49
0.0
140
0.0
141
0.0
142
1.0
143
1.0
 70
1024
 72
1
 73
0
 74
5
  7

 75
16
 76
0
 77
2
 78
300
147
1.0
148
0.0
149
0.0
100
AcDbLayout
  1
Model
 70
1
 71
0
 10
0.0
 20
0.0
 11
420.0
 21
297.0
 12
0.0
 22
0.0
 32
0.0
 14
1e+20
 24
1e+20
 34
1e+20
 15
-1e+20
 25
-1e+20
 35
-1e+20
146
0.0
 13
0.0
 23
0.0
 33
0.0
 16
1.0
 26
0.0
 36
0.0
 17
0.0
 27
1.0
 37
0.0
 76
1
330
17
  0
LAYOUT
  5
1E
330
D
100
AcDbPlotSettings
  1

  2
Adobe PDF
  4
A3
  6

 40
7.5
 41
20.0
 42
7.5
 43
20.0
 44
420.0
 45
297.0
 46
0.0
 47
0.0
 48
0.0
 49
0.0
140
0.0
141
0.0
142
1.0
143
1.0
 70
0
 72
1
 73
0
 74
5
  7

 75
16
 76
0
 77
2
 78
300
147
1.0
148
0.0
149
0.0
100
AcDbLayout
  1
Layout1
 70
1
 71
1
 10
0.0
 20
0.0
 11
420.0
 21
297.0
 12
0.0
 22
0.0
 32
0.0
 14
1e+20
 24
1e+20
 34
1e+20
 15
-1e+20
 25
-1e+20
 35
-1e+20
146
0.0
 13
0.0
 23
0.0
 33
0.0
 16
1.0
 26
0.0
 36
0.0
 17
0.0
 27
1.0
 37
0.0
 76
1
330
1B
  0
MATERIAL
  5
1F
102
{ACAD_REACTORS
330
E
102
}
330
E
100
AcDbMaterial
  1
ByBlock
  2

 70
0
 40
1.0
 71
1
 41
1.0
 91
-1023410177
 42
1.0
 72
1
  3

 73
1
 74
1
 75
1
 44
0.5
 73
0
 45
1.0
 46
1.0
 77
1
  4

 78
1
 79
1
170
1
 48
1.0
171
1
  6

172
1
173
1
174
1
140
1.0
141
1.0
175
1
  7

176
1
177
1
178
1
143
1.0
179
1
  8

270
1
271
1
272
1
145
1.0
146
1.0
273
1
  9

274
1
275
1
276
1
 42
1.0
 72
1
  3

 73
1
 74
1
 75
1
 94
63
  0
MATERIAL
  5
20
102
{ACAD_REACTORS
330
E
102
}
330
E
100
AcDbMaterial
  1
ByLayer
  2

 70
0
 40
1.0
 71
1
 41
1.0
 91
-1023410177
 42
1.0
 72
1
  3

 73
1
 74
1
 75
1
 44
0.5
 73
0
 45
1.0
 46
1.0
 77
1
  4

 78
1
 79
1
170
1
 48
1.0
171
1
  6

172
1
173
1
174
1
140
1.0
141
1.0
175
1
  7

176
1
177
1
178
1
143
1.0
179
1
  8

270
1
271
1
272
1
145
1.0
146
1.0
273
1
  9

274
1
275
1
276
1
 42
1.0
 72
1
  3

 73
1
 74
1
 75
1
 94
63
  0
MATERIAL
  5
21
102
{ACAD_REACTORS
330
E
102
}
330
E
100
AcDbMaterial
  1
Global
  2

 70
0
 40
1.0
 71
1
 41
1.0
 91
-1023410177
 42
1.0
 72
1
  3

 73
1
 74
1
 75
1
 44
0.5
 73
0
 45
1.0
 46
1.0
 77
1
  4

 78
1
 79
1
170
1
 48
1.0
171
1
  6

172
1
173
1
174
1
140
1.0
141
1.0
175
1
  7

176
1
177
1
178
1
143
1.0
179
1
  8

270
1
271
1
272
1
145
1.0
146
1.0
273
1
  9

274
1
275
1
276
1
 42
1.0
 72
1
  3

 73
1
 74
1
 75
1
 94
63
  0
MLINESTYLE
  5
22
102
{ACAD_REACTORS
330
10
102
}
330
10
100
AcDbMlineStyle
  2
Standard
 70
0
  3

 62
256
 51
90.0
 52
90.0
 71
2
 49
0.5
 62
256
  6
BYLAYER
 49
-0.5
 62
256
  6
BYLAYER
  0
MLEADERSTYLE
  5
2C
102
{ACAD_REACTORS
330
F
102
}
330
F
100
AcDbMLeaderStyle
179
2
170
2
171
1
172
0
 90
2
 40
0.0
 41
0.0
173
1
 91
-1056964608
 92
-2
290
1
 42
2.0
291
1
 43
8.0
  3
Standard
 44
4.0
300

342
29
174
1
175
1
176
0
178
1
 93
-1056964608
 45
4.0
292
0
297
0
 46
4.0
 94
-1056964608
 47
1.0
 49
1.0
140
1.0
294
1
141
0.0
177
0
142
1.0
295
0
296
0
143
3.75
271
0
272
9
273
9
  0
DICTIONARY
  5
2D
330
A
100
AcDbDictionary
281
1
  3
CREATED_BY_EZDXF
350
2E
  3
WRITTEN_BY_EZDXF
350
8A
  0
DICTIONARYVAR
  5
2E
330
2D
100
DictionaryVariables
280
0
  1
1.1.1 @ 2023-10-17T16:57:03.790295+00:00
  0
DICTIONARYVAR
  5
8A
330
2D
100
DictionaryVariables
280
0
  1
1.1.1 @ 2023-10-17T16:57:03.817295+00:00
  0
ENDSEC
  0
EOF
