  0
SECTION
  2
HEADER
  9
$ACADVER
  1
AC1024
  9
$ACADMAINTVER
 70
6
  9
$DWGCODEPAGE
  3
ANSI_1252
  9
$LASTSAVEDBY
  1
ezdxf
  9
$INSBASE
 10
0.0
 20
0.0
 30
0.0
  9
$EXTMIN
 10
1e+20
 20
1e+20
 30
1e+20
  9
$EXTMAX
 10
-1e+20
 20
-1e+20
 30
-1e+20
  9
$LIMMIN
 10
0.0
 20
0.0
  9
$LIMMAX
 10
420.0
 20
297.0
  9
$ORTHOMODE
 70
0
  9
$REGENMODE
 70
1
  9
$FILLMODE
 70
1
  9
$QTEXTMODE
 70
0
  9
$MIRRTEXT
 70
1
  9
$LTSCALE
 40
1.0
  9
$ATTMODE
 70
1
  9
$TEXTSIZE
 40
2.5
  9
$TRACEWID
 40
1.0
  9
$TEXTSTYLE
  7
Standard
  9
$CLAYER
  8
0
  9
$CELTYPE
  6
ByLayer
  9
$CECOLOR
 62
256
  9
$CELTSCALE
 40
1.0
  9
$DISPSILH
 70
0
  9
$DIMSCALE
 40
1.0
  9
$DIMASZ
 40
2.5
  9
$DIMEXO
 40
0.625
  9
$DIMDLI
 40
3.75
  9
$DIMRND
 40
0.0
  9
$DIMDLE
 40
0.0
  9
$DIMEXE
 40
1.25
  9
$DIMTP
 40
0.0
  9
$DIMTM
 40
0.0
  9
$DIMTXT
 40
2.5
  9
$DIMCEN
 40
2.5
  9
$DIMTSZ
 40
0.0
  9
$DIMTOL
 70
0
  9
$DIMLIM
 70
0
  9
$DIMTIH
 70
0
  9
$DIMTOH
 70
0
  9
$DIMSE1
 70
0
  9
$DIMSE2
 70
0
  9
$DIMTAD
 70
1
  9
$DIMZIN
 70
8
  9
$DIMBLK
  1

  9
$DIMASO
 70
1
  9
$DIMSHO
 70
1
  9
$DIMPOST
  1

  9
$DIMAPOST
  1

  9
$DIMALT
 70
0
  9
$DIMALTD
 70
3
  9
$DIMALTF
 40
0.03937007874
  9
$DIMLFAC
 40
1.0
  9
$DIMTOFL
 70
1
  9
$DIMTVP
 40
0.0
  9
$DIMTIX
 70
0
  9
$DIMSOXD
 70
0
  9
$DIMSAH
 70
0
  9
$DIMBLK1
  1

  9
$DIMBLK2
  1

  9
$DIMSTYLE
  2
ISO-25
  9
$DIMCLRD
 70
0
  9
$DIMCLRE
 70
0
  9
$DIMCLRT
 70
0
  9
$DIMTFAC
 40
1.0
  9
$DIMGAP
 40
0.625
  9
$DIMJUST
 70
0
  9
$DIMSD1
 70
0
  9
$DIMSD2
 70
0
  9
$DIMTOLJ
 70
0
  9
$DIMTZIN
 70
8
  9
$DIMALTZ
 70
0
  9
$DIMALTTZ
 70
0
  9
$DIMUPT
 70
0
  9
$DIMDEC
 70
2
  9
$DIMTDEC
 70
2
  9
$DIMALTU
 70
2
  9
$DIMALTTD
 70
3
  9
$DIMTXSTY
  7
Standard
  9
$DIMAUNIT
 70
0
  9
$DIMADEC
 70
0
  9
$DIMALTRND
 40
0.0
  9
$DIMAZIN
 70
0
  9
$DIMDSEP
 70
44
  9
$DIMATFIT
 70
3
  9
$DIMFRAC
 70
0
  9
$DIMLDRBLK
  1

  9
$DIMLUNIT
 70
2
  9
$DIMLWD
 70
-2
  9
$DIMLWE
 70
-2
  9
$DIMTMOVE
 70
0
  9
$DIMFXL
 40
1.0
  9
$DIMFXLON
 70
0
  9
$DIMJOGANG
 40
0.785398163397
  9
$DIMTFILL
 70
0
  9
$DIMTFILLCLR
 70
0
  9
$DIMARCSYM
 70
0
  9
$DIMLTYPE
  6

  9
$DIMLTEX1
  6

  9
$DIMLTEX2
  6

  9
$DIMTXTDIRECTION
 70
0
  9
$LUNITS
 70
2
  9
$LUPREC
 70
4
  9
$SKETCHINC
 40
1.0
  9
$FILLETRAD
 40
10.0
  9
$AUNITS
 70
0
  9
$AUPREC
 70
2
  9
$MENU
  1
.
  9
$ELEVATION
 40
0.0
  9
$PELEVATION
 40
0.0
  9
$THICKNESS
 40
0.0
  9
$LIMCHECK
 70
0
  9
$CHAMFERA
 40
0.0
  9
$CHAMFERB
 40
0.0
  9
$CHAMFERC
 40
0.0
  9
$CHAMFERD
 40
0.0
  9
$SKPOLY
 70
0
  9
$TDCREATE
 40
2460235.5429513888
  9
$TDUCREATE
 40
2458532.153996898
  9
$TDUPDATE
 40
2460235.5429513888
  9
$TDUUPDATE
 40
2458532.1544311
  9
$TDINDWG
 40
0.0
  9
$TDUSRTIMER
 40
0.0
  9
$USRTIMER
 70
1
  9
$ANGBASE
 50
0.0
  9
$ANGDIR
 70
0
  9
$PDMODE
 70
0
  9
$PDSIZE
 40
0.0
  9
$PLINEWID
 40
0.0
  9
$SPLFRAME
 70
0
  9
$SPLINETYPE
 70
6
  9
$SPLINESEGS
 70
8
  9
$HANDSEED
  5
58
  9
$SURFTAB1
 70
6
  9
$SURFTAB2
 70
6
  9
$SURFTYPE
 70
6
  9
$SURFU
 70
6
  9
$SURFV
 70
6
  9
$UCSBASE
  2

  9
$UCSNAME
  2

  9
$UCSORG
 10
0.0
 20
0.0
 30
0.0
  9
$UCSXDIR
 10
1.0
 20
0.0
 30
0.0
  9
$UCSYDIR
 10
0.0
 20
1.0
 30
0.0
  9
$UCSORTHOREF
  2

  9
$UCSORTHOVIEW
 70
0
  9
$UCSORGTOP
 10
0.0
 20
0.0
 30
0.0
  9
$UCSORGBOTTOM
 10
0.0
 20
0.0
 30
0.0
  9
$UCSORGLEFT
 10
0.0
 20
0.0
 30
0.0
  9
$UCSORGRIGHT
 10
0.0
 20
0.0
 30
0.0
  9
$UCSORGFRONT
 10
0.0
 20
0.0
 30
0.0
  9
$UCSORGBACK
 10
0.0
 20
0.0
 30
0.0
  9
$PUCSBASE
  2

  9
$PUCSNAME
  2

  9
$PUCSORG
 10
0.0
 20
0.0
 30
0.0
  9
$PUCSXDIR
 10
1.0
 20
0.0
 30
0.0
  9
$PUCSYDIR
 10
0.0
 20
1.0
 30
0.0
  9
$PUCSORTHOREF
  2

  9
$PUCSORTHOVIEW
 70
0
  9
$PUCSORGTOP
 10
0.0
 20
0.0
 30
0.0
  9
$PUCSORGBOTTOM
 10
0.0
 20
0.0
 30
0.0
  9
$PUCSORGLEFT
 10
0.0
 20
0.0
 30
0.0
  9
$PUCSORGRIGHT
 10
0.0
 20
0.0
 30
0.0
  9
$PUCSORGFRONT
 10
0.0
 20
0.0
 30
0.0
  9
$PUCSORGBACK
 10
0.0
 20
0.0
 30
0.0
  9
$USERI1
 70
0
  9
$USERI2
 70
0
  9
$USERI3
 70
0
  9
$USERI4
 70
0
  9
$USERI5
 70
0
  9
$USERR1
 40
0.0
  9
$USERR2
 40
0.0
  9
$USERR3
 40
0.0
  9
$USERR4
 40
0.0
  9
$USERR5
 40
0.0
  9
$WORLDVIEW
 70
1
  9
$SHADEDGE
 70
3
  9
$SHADEDIF
 70
70
  9
$TILEMODE
 70
1
  9
$MAXACTVP
 70
64
  9
$PINSBASE
 10
0.0
 20
0.0
 30
0.0
  9
$PLIMCHECK
 70
0
  9
$PEXTMIN
 10
1e+20
 20
1e+20
 30
1e+20
  9
$PEXTMAX
 10
-1e+20
 20
-1e+20
 30
-1e+20
  9
$PLIMMIN
 10
0.0
 20
0.0
  9
$PLIMMAX
 10
420.0
 20
297.0
  9
$UNITMODE
 70
0
  9
$VISRETAIN
 70
1
  9
$PLINEGEN
 70
0
  9
$PSLTSCALE
 70
1
  9
$TREEDEPTH
 70
3020
  9
$CMLSTYLE
  2
Standard
  9
$CMLJUST
 70
0
  9
$CMLSCALE
 40
20.0
  9
$PROXYGRAPHICS
 70
1
  9
$MEASUREMENT
 70
1
  9
$CELWEIGHT
370
-1
  9
$ENDCAPS
280
0
  9
$JOINSTYLE
280
0
  9
$LWDISPLAY
290
0
  9
$INSUNITS
 70
4
  9
$HYPERLINKBASE
  1

  9
$STYLESHEET
  1

  9
$XEDIT
290
1
  9
$CEPSNTYPE
380
0
  9
$PSTYLEMODE
290
1
  9
$FINGERPRINTGUID
  2
{60F3773C-23DB-447C-955E-6506CC82AFD2}
  9
$VERSIONGUID
  2
{8032FC11-3E13-4C27-A4FB-E235A5354AD6}
  9
$EXTNAMES
290
1
  9
$PSVPSCALE
 40
0.0
  9
$OLESTARTUP
290
0
  9
$SORTENTS
280
127
  9
$INDEXCTL
280
0
  9
$HIDETEXT
280
1
  9
$XCLIPFRAME
280
0
  9
$HALOGAP
280
0
  9
$OBSCOLOR
 70
257
  9
$OBSLTYPE
280
0
  9
$INTERSECTIONDISPLAY
280
0
  9
$INTERSECTIONCOLOR
 70
257
  9
$DIMASSOC
280
2
  9
$PROJECTNAME
  1

  9
$CAMERADISPLAY
290
0
  9
$LENSLENGTH
 40
50.0
  9
$CAMERAHEIGHT
 40
0.0
  9
$STEPSPERSEC
 40
24.0
  9
$STEPSIZE
 40
100.0
  9
$3DDWFPREC
 40
2.0
  9
$PSOLWIDTH
 40
0.005
  9
$PSOLHEIGHT
 40
0.08
  9
$LOFTANG1
 40
1.570796326795
  9
$LOFTANG2
 40
1.570796326795
  9
$LOFTMAG1
 40
0.0
  9
$LOFTMAG2
 40
0.0
  9
$LOFTPARAM
 70
7
  9
$LOFTNORMALS
280
1
  9
$LATITUDE
 40
37.795
  9
$LONGITUDE
 40
-122.394
  9
$NORTHDIRECTION
 40
0.0
  9
$TIMEZONE
 70
-8000
  9
$LIGHTGLYPHDISPLAY
280
1
  9
$TILEMODELIGHTSYNCH
280
1
  9
$CMATERIAL
347
20
  9
$SOLIDHIST
280
0
  9
$SHOWHIST
280
1
  9
$DWFFRAME
280
2
  9
$DGNFRAME
280
2
  9
$REALWORLDSCALE
290
1
  9
$INTERFERECOLOR
 62
256
  9
$CSHADOW
280
0
  9
$SHADOWPLANELOCATION
 40
0.0
  0
ENDSEC
  0
SECTION
  2
CLASSES
  0
CLASS
  1
ACDBDICTIONARYWDFLT
  2
AcDbDictionaryWithDefault
  3
ObjectDBX Classes
 90
0
 91
0
280
0
281
0
  0
CLASS
  1
SUN
  2
AcDbSun
  3
SCENEOE
 90
1153
 91
0
280
0
281
0
  0
CLASS
  1
VISUALSTYLE
  2
AcDbVisualStyle
  3
ObjectDBX Classes
 90
4095
 91
0
280
0
281
0
  0
CLASS
  1
MATERIAL
  2
AcDbMaterial
  3
ObjectDBX Classes
 90
1153
 91
0
280
0
281
0
  0
CLASS
  1
SCALE
  2
AcDbScale
  3
ObjectDBX Classes
 90
1153
 91
0
280
0
281
0
  0
CLASS
  1
TABLESTYLE
  2
AcDbTableStyle
  3
ObjectDBX Classes
 90
4095
 91
0
280
0
281
0
  0
CLASS
  1
MLEADERSTYLE
  2
AcDbMLeaderStyle
  3
ACDB_MLEADERSTYLE_CLASS
 90
4095
 91
0
280
0
281
0
  0
CLASS
  1
DICTIONARYVAR
  2
AcDbDictionaryVar
  3
ObjectDBX Classes
 90
0
 91
0
280
0
281
0
  0
CLASS
  1
CELLSTYLEMAP
  2
AcDbCellStyleMap
  3
ObjectDBX Classes
 90
1152
 91
0
280
0
281
0
  0
CLASS
  1
MENTALRAYRENDERSETTINGS
  2
AcDbMentalRayRenderSettings
  3
SCENEOE
 90
1024
 91
0
280
0
281
0
  0
CLASS
  1
ACDBDETAILVIEWSTYLE
  2
AcDbDetailViewStyle
  3
ObjectDBX Classes
 90
1025
 91
0
280
0
281
0
  0
CLASS
  1
ACDBSECTIONVIEWSTYLE
  2
AcDbSectionViewStyle
  3
ObjectDBX Classes
 90
1025
 91
0
280
0
281
0
  0
CLASS
  1
RASTERVARIABLES
  2
AcDbRasterVariables
  3
ISM
 90
0
 91
0
280
0
281
0
  0
CLASS
  1
ACDBPLACEHOLDER
  2
AcDbPlaceHolder
  3
ObjectDBX Classes
 90
0
 91
0
280
0
281
0
  0
CLASS
  1
LAYOUT
  2
AcDbLayout
  3
ObjectDBX Classes
 90
0
 91
0
280
0
281
0
  0
ENDSEC
  0
SECTION
  2
TABLES
  0
TABLE
  2
VPORT
  5
8
330
0
100
AcDbSymbolTable
 70
1
  0
VPORT
  5
23
330
8
100
AcDbSymbolTableRecord
100
AcDbViewportTableRecord
  2
*Active
 70
0
 10
0.0
 20
0.0
 11
1.0
 21
1.0
 12
0.0
 22
0.0
 13
0.0
 23
0.0
 14
0.5
 24
0.5
 15
0.5
 25
0.5
 16
0.0
 26
0.0
 36
1.0
 17
0.0
 27
0.0
 37
0.0
 40
1000.0
 41
1.34
 42
50.0
 43
0.0
 44
0.0
 50
0.0
 51
0.0
 71
0
 72
1000
 73
1
 74
3
 75
0
 76
0
 77
0
 78
0
281
0
 65
0
146
0.0
  0
ENDTAB
  0
TABLE
  2
LTYPE
  5
2
330
0
100
AcDbSymbolTable
 70
3
  0
LTYPE
  5
24
330
2
100
AcDbSymbolTableRecord
100
AcDbLinetypeTableRecord
  2
ByBlock
 70
0
  3

 72
65
 73
0
 40
0.0
  0
LTYPE
  5
25
330
2
100
AcDbSymbolTableRecord
100
AcDbLinetypeTableRecord
  2
ByLayer
 70
0
  3

 72
65
 73
0
 40
0.0
  0
LTYPE
  5
26
330
2
100
AcDbSymbolTableRecord
100
AcDbLinetypeTableRecord
  2
Continuous
 70
0
  3

 72
65
 73
0
 40
0.0
  0
ENDTAB
  0
TABLE
  2
LAYER
  5
1
330
0
100
AcDbSymbolTable
 70
2
  0
LAYER
  5
27
330
1
100
AcDbSymbolTableRecord
100
AcDbLayerTableRecord
  2
0
 70
0
 62
7
  6
Continuous
370
-3
390
13
347
21
  0
LAYER
  5
28
330
1
100
AcDbSymbolTableRecord
100
AcDbLayerTableRecord
  2
Defpoints
 70
0
 62
7
  6
Continuous
290
0
370
-3
390
13
347
21
  0
ENDTAB
  0
TABLE
  2
STYLE
  5
5
330
0
100
AcDbSymbolTable
 70
1
  0
STYLE
  5
29
330
5
100
AcDbSymbolTableRecord
100
AcDbTextStyleTableRecord
  2
Standard
 70
0
 40
0.0
 41
1.0
 50
0.0
 71
0
 42
2.5
  3
txt
  4

  0
ENDTAB
  0
TABLE
  2
VIEW
  5
7
330
0
100
AcDbSymbolTable
 70
0
  0
ENDTAB
  0
TABLE
  2
UCS
  5
6
330
0
100
AcDbSymbolTable
 70
0
  0
ENDTAB
  0
TABLE
  2
APPID
  5
3
330
0
100
AcDbSymbolTable
 70
3
  0
APPID
  5
2A
330
3
100
AcDbSymbolTableRecord
100
AcDbRegAppTableRecord
  2
ACAD
 70
0
  0
APPID
  5
55
330
3
100
AcDbSymbolTableRecord
100
AcDbRegAppTableRecord
  2
HATCHBACKGROUNDCOLOR
 70
0
  0
APPID
  5
56
330
3
100
AcDbSymbolTableRecord
100
AcDbRegAppTableRecord
  2
EZDXF
 70
0
  0
ENDTAB
  0
TABLE
  2
DIMSTYLE
  5
4
330
0
100
AcDbSymbolTable
 70
1
100
AcDbDimStyleTable
  0
DIMSTYLE
105
2B
330
4
100
AcDbSymbolTableRecord
100
AcDbDimStyleTableRecord
  2
Standard
 70
0
 40
1.0
 41
2.5
 42
0.625
 43
3.75
 44
1.25
 45
0.0
 46
0.0
 47
0.0
 48
0.0
 49
2.5
140
2.5
141
2.5
142
0.0
143
0.03937007874
144
1.0
145
0.0
146
1.0
147
0.625
148
0.0
 69
0
 70
0
 71
0
 72
0
 73
0
 74
0
 75
0
 76
0
 77
1
 78
8
 79
3
170
0
171
3
172
1
173
0
174
0
175
0
176
0
177
0
178
0
179
2
271
2
272
2
273
2
274
3
275
0
276
0
277
2
278
44
279
0
280
0
281
0
282
0
283
0
284
8
285
0
286
0
288
0
289
3
290
0
371
-2
372
-2
  0
ENDTAB
  0
TABLE
  2
BLOCK_RECORD
  5
9
330
0
100
AcDbSymbolTable
 70
2
  0
BLOCK_RECORD
  5
17
330
9
100
AcDbSymbolTableRecord
100
AcDbBlockTableRecord
  2
*Model_Space
340
1A
 70
0
280
1
281
0
  0
BLOCK_RECORD
  5
1B
330
9
100
AcDbSymbolTableRecord
100
AcDbBlockTableRecord
  2
*Paper_Space
340
1E
 70
0
280
1
281
0
  0
ENDTAB
  0
ENDSEC
  0
SECTION
  2
BLOCKS
  0
BLOCK
  5
18
330
17
100
AcDbEntity
  8
0
100
AcDbBlockBegin
  2
*Model_Space
 70
0
 10
0.0
 20
0.0
 30
0.0
  3
*Model_Space
  1

  0
ENDBLK
  5
19
330
17
100
AcDbEntity
  8
0
100
AcDbBlockEnd
  0
BLOCK
  5
1C
330
1B
100
AcDbEntity
  8
0
100
AcDbBlockBegin
  2
*Paper_Space
 70
0
 10
0.0
 20
0.0
 30
0.0
  3
*Paper_Space
  1

  0
ENDBLK
  5
1D
330
1B
100
AcDbEntity
  8
0
100
AcDbBlockEnd
  0
ENDSEC
  0
SECTION
  2
ENTITIES
  0
LWPOLYLINE
  5
2F
330
17
100
AcDbEntity
  8
default
100
AcDbPolyline
 90
276
 70
0
 10
100.0
 20
60.0
 10
100.0
 20
57.03960138708248
 10
100.0
 20
41.484479649122235
 10
100.0
 20
38.061392811489085
 10
97.0
 20
33.40985138719658
 10
97.0
 20
33.78163143933432
 10
96.42546737316903
 20
32.56355489896744
 10
96.29095965813607
 20
32.310474546638396
 10
96.13291539365659
 20
32.07138460414076
 10
95.95277703199886
 20
31.84846721855218
 10
95.75218867577695
 20
31.64375693183807
 10
95.53298107241072
 20
31.459122111815372
 10
95.29715490509949
 20
31.296247899769142
 10
95.04686253281102
 20
31.156620830357124
 10
94.78438834594265
 20
31.04151526417473
 10
94.51212791694654
 20
30.951981756808873
 10
94.23256613620863
 20
30.88883747053501
 10
93.948254532733
 20
30.85265871616874
 10
77.9620485995831
 20
29.590580177166053
 10
77.67203464947048
 20
29.58175880669551
 10
77.38252492336778
 20
29.600994875130926
 10
77.0962274922883
 20
29.64810844848514
 10
76.81582037947058
 20
29.72265882687546
 10
76.54392651017645
 20
29.823948666825835
 10
76.283089176875
 20
29.95103050421062
 10
76.03574824931086
 20
30.102715616824277
 10
75.8042173519876
 20
30.277585143676728
 10
75.59066222254785
 20
30.474003357004513
 10
75.3970804534855
 20
30.690132962851557
 10
75.22528280668601
 20
30.923952287098015
 10
75.07687627557829
 20
31.173274186179263
 10
74.95324905333457
 20
31.435766505604445
 10
74.85555754772575
 20
31.708973894905668
 10
74.7847155640949
 20
31.990340774961144
 10
74.74138575763143
 20
32.27723524285613
 10
74.72597343490132
 20
32.56697369067584
 10
74.73862276261353
 20
32.85684590794637
 10
74.7792154190862
 20
33.14414043291578
 10
74.84737170102636
 20
33.426169915539504
 10
79.85568227047662
 20
50.489536808752746
 10
79.95849589533412
 20
50.78270534551013
 10
80.09107745653247
 20
51.06366897666373
 10
80.25200511357698
 20
51.329414572297914
 10
80.43955303478012
 20
51.57709220482291
 10
80.65170990554694
 20
51.80404571236849
 10
80.88620049825636
 20
52.00784118418174
 10
81.14051007241717
 20
52.18629306254381
 10
81.41191134342466
 20
52.337487581281515
 10
82.77965817713653
 20
53.00912801698089
 10
83.04765602502809
 20
53.124905250904334
 10
83.32563815327443
 20
53.21408569015591
 10
83.35859007749441
 20
53.2212156614115
 10
83.36453698502342
 20
53.24620435361177
 10
83.45623312480268
 20
53.51528623475231
 10
83.57298685111896
 20
53.77448077211722
 10
83.8276389619787
 20
54.27502454156622
 10
83.96837171695086
 20
54.52195677165963
 10
83.97108339484673
 20
54.52581365054211
 10
83.92146558286362
 20
54.60252509672851
 10
83.78548230325202
 20
54.86696215896753
 10
83.67634511092083
 20
55.14356202424153
 10
83.59512619889898
 20
55.42960730133856
 10
81.65678629075734
 20
63.81843189414868
 10
81.64086413207596
 20
63.90768893924235
 10
81.38905618275761
 20
64.00339923999785
 10
74.22343899431884
 20
67.14538713372825
 10
73.96551829405327
 20
67.27357718897457
 10
73.72107919215087
 20
67.42591005919857
 10
73.49237475926107
 20
67.6009816453172
 10
73.28151303473247
 20
67.7971782584846
 10
73.09043759616341
 20
68.01269149396026
 10
72.9209096448475
 20
68.24553489973367
 10
72.77449177223752
 20
68.4935622862657
 10
72.65253355705786
 20
68.75448750857993
 10
72.55615912582078
 20
69.02590553836657
 10
70.96940459468686
 20
74.28236713913961
 10
70.89962463371086
 20
74.56116383667008
 10
70.85684262951425
 20
74.84535838557035
 10
70.84145121081036
 20
75.13234261116122
 10
70.85359163121822
 20
75.41948273670975
 10
70.89315247291782
 20
75.70414355472258
 10
70.95977066917892
 20
75.9837126113698
 10
71.05283483637955
 20
76.25562418208897
 10
71.65448178451966
 20
77.77215887004017
 10
71.65453276959335
 20
77.77227050901438
 10
71.48638782808428
 20
77.99143531125682
 10
71.33366740953613
 20
78.23595746610415
 10
67.18310763726447
 20
85.65234052533386
 10
67.05569442841576
 20
85.90782294722861
 10
66.95314330460131
 20
86.17425992043376
 10
66.87638298467884
 20
86.44923855046113
 10
66.82610862199219
 20
86.73026858825564
 10
66.80277550895507
 20
87.01480498227639
 10
66.80659495385234
 20
87.3002709268775
 10
66.83753236719957
 20
87.58408119825913
 10
66.8953075749907
 20
87.86366556665448
 10
66.97939735599725
 20
88.13649207272857
 10
67.08904018014078
 20
88.40008995739413
 10
67.22324310502724
 20
88.65207203738844
 10
73.0280555102544
 20
98.40267217554768
 10
71.67705963966841
 20
99.58772543157856
 10
71.45681450185299
 20
99.80183549132141
 10
71.25961753525615
 20
100.03734429111331
 10
71.08753604416354
 20
100.29178288653029
 10
70.9423740360614
 20
100.56248388360672
 10
70.82565330941672
 20
100.84660940232327
 10
70.73859749998098
 20
101.14118082737653
 10
70.68211925286757
 20
101.44311003433971
 10
69.19106770982923
 20
112.52845372260047
 10
69.17734163641909
 20
112.68897485663864
 10
61.79183386172158
 20
116.14770497262307
 10
61.53117543956639
 20
116.28578780144969
 10
61.28533753908097
 20
116.4488013203434
 10
61.056696857733606
 20
116.63516955661291
 10
60.84746383470977
 20
116.84309075017792
 10
60.65966128095572
 20
117.07055477252133
 10
60.49510482316353
 20
117.3153625600937
 10
60.35538535076015
 20
117.57514737429291
 10
60.241853635598424
 20
117.84739768248305
 10
59.03236492008761
 20
121.20342554779977
 10
58.942180520872114
 20
121.50127132201438
 10
58.883336271947634
 20
121.8068571290275
 10
58.85646537228852
 20
122.11689468454435
 10
58.861856968691875
 20
122.42804780081924
 10
58.899453044386725
 20
122.73696828601196
 10
58.96884904332885
 20
123.0403319727152
 10
59.06929822346347
 20
123.33487448796492
 10
60.37630369094951
 20
126.60192272179752
 10
60.37231804171274
 20
126.60616023829566
 10
60.19316444319057
 20
126.83845388940428
 10
60.03755492470836
 20
127.08713446758954
 10
55.38431443540057
 20
135.40172715686526
 10
55.300537835429346
 20
135.5704341579371
 10
47.6213372794517
 20
136.07984483137218
 10
47.33535141652615
 20
136.11265722476455
 10
47.05382696983
 20
136.17272845636364
 10
46.77935598395906
 20
136.25950543988137
 10
46.514465561067254
 20
136.37218920452213
 10
46.26159459339716
 20
136.5097422512459
 10
46.023071307974455
 20
136.67089810520275
 10
45.80109183021633
 20
136.8541729763871
 10
45.59769996382246
 20
137.0578794211507
 10
45.41476837311845
 20
137.2801418787901
 10
45.25398134110941
 20
137.51891394016062
 10
45.116819261993
 20
137.77199718932158
 10
45.004545010912395
 20
138.03706144473466
 10
44.918192316444895
 20
138.31166621365102
 10
44.85855624288298
 20
138.59328316215294
 10
44.82618586993894
 20
138.87931939396435
 10
44.82137923727233
 20
139.16714132369836
 10
45.11484395891065
 20
148.54085856210867
 10
45.114843958767764
 20
148.54085856218808
 10
37.62071653107431
 20
153.18618028107085
 10
37.36993174887954
 20
153.3598811297997
 10
37.13808412948103
 20
153.55815284540444
 10
36.92757110585712
 20
153.77894518837473
 10
36.74056949943265
 20
154.01997504342233
 10
36.57901301053808
 20
154.27875002815938
 10
36.44457222287549
 20
154.55259426571473
 10
36.338637328756626
 20
154.83867605478494
 10
36.262303753743204
 20
155.13403715099648
 10
36.21636082933911
 20
155.4356233567931
 10
36.20128363086482
 20
155.74031610353276
 10
36.20471002435883
 20
158.14778561829016
 10
36.221001746640084
 20
158.45577069480007
 10
36.23234010869741
 20
158.52800357397766
 10
36.17511364528493
 20
158.56824942681442
 10
35.947589926938235
 20
158.76510148690457
 10
35.740927287149326
 20
158.98375264580278
 10
31.678077283087266
 20
163.73885942089288
 10
31.506198104980356
 20
163.960170707519
 10
31.355717828380754
 20
164.1965534983675
 10
31.227949329119912
 20
164.44594545503702
 10
31.124007332519263
 20
164.7061707397376
 10
31.044798687890182
 20
164.9749589985415
 10
30.99101445666295
 20
165.24996516924702
 10
30.963123883172358
 20
165.5287899410396
 10
30.961370300702264
 20
165.80900068744904
 10
30.985769008507138
 20
166.08815268997145
 10
31.03610713833261
 20
166.36381046718896
 10
32.36192843743849
 20
172.0948663601929
 10
32.39037092549171
 20
172.1959812388889
 10
32.22417458655989
 20
172.37242926372045
 10
28.089953245679077
 20
177.21694686384325
 10
28.0899532452038
 20
177.21694686373175
 10
21.844978309310832
 20
176.06212160519735
 10
21.5620942228186
 20
176.02362501730013
 10
21.276831724046723
 20
176.0121925869069
 10
20.991774194357617
 20
176.0279278478776
 10
20.70950315888195
 20
176.07068829925228
 10
20.432574907827295
 20
176.1400866957617
 10
20.16349734631816
 20
176.23549455478062
 10
19.904707282418844
 20
176.3560478479636
 10
19.658548359022245
 20
176.50065482601963
 10
19.4272498294569
 20
176.66800590576273
 10
19.212906369023656
 20
176.85658552990003
 10
19.017459105291767
 20
177.06468589215342
 10
14.894863625606689
 20
181.89558020354633
 10
14.894863625131407
 20
181.89558020343483
 10
8.649888689238438
 20
180.74075494490043
 10
8.367004602743984
 20
180.70225835700302
 10
8.081742103969868
 20
180.69082592661002
 10
7.796684574278567
 20
180.70656118758137
 10
7.514413538800806
 20
180.74932163895713
 10
7.237485287744219
 20
180.81872003546803
 10
6.968407726233377
 20
180.91412789448876
 10
6.709617662332624
 20
181.03468118767393
 10
6.463458738934907
 20
181.17928816573246
 10
6.232160209368818
 20
181.34663924547834
 10
6.017816748935234
 20
181.53521886961863
 10
5.8223694852034455
 20
181.74331923187518
 10
1.699774005957217
 20
186.57421354283386
 10
1.5249929395931097
 20
186.79995005412962
 10
1.372460915024298
 20
187.0412784096378
 10
1.243559285885556
 20
187.29601310240017
 10
1.1394554052913728
 20
187.56184721559217
 10
1.0610920541053748
 20
187.83637331431913
 10
1.0091789029708265
 20
188.11710524771937
 10
0.9841860854233921
 20
188.40150066393136
 10
0.9863399402890338
 20
188.68698403402595
 10
1.0156209619245549
 20
188.97096997639517
 10
1.0717639768637226
 20
189.25088667036837
 10
1.1542605452692403
 20
189.52419914701858
 10
3.095836174533309
 20
195.0
 10
6.278838428423176
 20
195.0
 10
10.0
 20
195.0
 10
10.0
 20
200.0
 10
20.0
 20
200.0
 10
20.0
 20
195.0
 10
20.270046471831144
 20
195.0
 10
27.5
 20
195.0
 10
27.5
 20
200.0
 10
37.5
 20
200.0
 10
37.5
 20
195.0
 10
42.05008762264853
 20
195.0
 10
45.0
 20
195.0
 10
45.0
 20
200.0
 10
55.0
 20
200.0
 10
55.0
 20
195.0
 10
56.648877234532264
 20
195.0
 10
62.5
 20
195.0
 10
62.5
 20
200.0
 10
72.5
 20
200.0
 10
72.5
 20
195.0
 10
80.0
 20
195.0
 10
80.0
 20
200.0
 10
90.0
 20
200.0
 10
90.0
 20
195.0
 10
95.54012575818892
 20
195.0
 10
97.31417112550007
 20
192.0
 10
100.0
 20
187.4581282012465
 10
100.0
 20
184.18689111107184
 10
100.0
 20
180.0
 10
105.0
 20
180.0
 10
105.0
 20
170.0
 10
100.0
 20
170.0
 10
100.0
 20
167.60715169988268
 10
100.0
 20
160.8452207675981
 10
100.0
 20
154.24771391476858
 10
100.0
 20
141.40085662229166
 10
100.0
 20
137.89716826966264
 10
100.0
 20
137.18424424756503
 10
100.0
 20
128.1726378364862
 10
100.0
 20
125.0
 10
105.0
 20
125.0
 10
105.0
 20
115.0
 10
100.0
 20
115.0
 10
100.0
 20
104.18605284739537
 10
100.0
 20
92.78429900481089
 10
100.0
 20
89.77107493583686
 10
100.0
 20
76.4487867835045
 10
100.0
 20
73.36255041187344
 10
100.0
 20
70.0
 10
105.0
 20
70.0
 10
105.0
 20
60.0
 10
100.0
 20
60.0
  0
LWPOLYLINE
  5
30
330
17
100
AcDbEntity
  8
default
100
AcDbPolyline
 90
6
 70
0
 10
16.88612523048849
 20
192.0
 10
5.21511696663539
 20
192.0
 10
3.981779749505222
 20
188.52163485996425
 10
8.10437522875145
 20
183.69074054900557
 10
14.34935016464442
 20
184.84556580753997
 10
16.88612523048849
 20
192.0
  0
LWPOLYLINE
  5
31
330
17
100
AcDbEntity
  8
default
100
AcDbPolyline
 90
8
 70
0
 10
40.057542318570015
 20
188.13277517817244
 10
40.19944723744452
 20
188.13005227968944
 10
42.73283101205882
 20
192.0
 10
30.110464722749377
 20
192.0
 10
32.345171147934714
 20
188.28076161815866
 10
36.893609943419314
 20
188.19348531234473
 10
40.057542316428474
 20
188.1327751783163
 10
40.057542318570015
 20
188.13277517817244
  0
LWPOLYLINE
  5
32
330
17
100
AcDbEntity
  8
default
100
AcDbPolyline
 90
11
 70
0
 10
60.42214993108064
 20
181.25814245501533
 10
60.912376885302365
 20
181.4291697028093
 10
61.70734753696919
 20
182.6435513896158
 10
61.707347541157894
 20
182.64355139674333
 10
67.41321413125617
 20
191.35972208716422
 10
67.08992617992845
 20
192.0
 10
54.76726310597535
 20
192.0
 10
59.67034699002252
 20
182.28934947142073
 10
59.67034699143687
 20
182.28934946823344
 10
60.149116093758494
 20
181.34113819012418
 10
60.42214993108064
 20
181.25814245501533
  0
LWPOLYLINE
  5
33
330
17
100
AcDbEntity
  8
default
100
AcDbPolyline
 90
11
 70
0
 10
91.47357787997593
 20
169.33083780253253
 10
91.48620928172022
 20
169.25684679765254
 10
95.75487405247986
 20
167.9827569979243
 10
95.99029379414624
 20
168.1781221031457
 10
95.99029379619431
 20
168.17812210502197
 10
97.0
 20
169.01603551601468
 10
97.0
 20
183.31038781412914
 10
90.06897021347594
 20
177.55861290389848
 10
90.06897021350281
 20
177.5586129037764
 10
91.47357787922786
 20
169.33083780874574
 10
91.47357787997593
 20
169.33083780253253
  0
LWPOLYLINE
  5
34
330
17
100
AcDbEntity
  8
default
100
AcDbPolyline
 90
7
 70
0
 10
95.2234146490641
 20
142.23131766893022
 10
97.0
 20
141.25070898665544
 10
97.0
 20
152.43778792964113
 10
92.75434943766066
 20
149.8763501707501
 10
92.75434943754696
 20
149.87635017068868
 10
92.87659589154646
 20
143.52667386922985
 10
95.2234146490641
 20
142.23131766893022
  0
LWPOLYLINE
  5
35
330
17
100
AcDbEntity
  8
default
100
AcDbPolyline
 90
7
 70
0
 10
96.55676440949208
 20
117.50877346921712
 10
97.0
 20
117.26412399706184
 10
97.0
 20
127.91196946222655
 10
93.2211086248844
 20
125.6321315638154
 10
93.22110862471627
 20
125.63213156372458
 10
93.34335507824493
 20
119.28245526206872
 10
96.55676440949208
 20
117.50877346921712
  0
LWPOLYLINE
  5
36
330
17
100
AcDbEntity
  8
default
100
AcDbPolyline
 90
5
 70
0
 10
97.0
 20
103.38615099479911
 10
93.34776117658174
 20
101.18272367804785
 10
96.90142207406461
 20
92.49304131185636
 10
97.0
 20
92.50230736227383
 10
97.0
 20
103.38615099479911
  0
LWPOLYLINE
  5
37
330
17
100
AcDbEntity
  8
default
100
AcDbPolyline
 90
16
 70
0
 10
90.8914412245889
 20
82.09913827003531
 10
90.89144121582777
 20
82.0991382600364
 10
90.88365804594292
 20
82.08929435261936
 10
91.94733472656934
 20
80.28018755055534
 10
94.22803223039955
 20
76.40116543555632
 10
94.75484097680295
 20
76.15716001453599
 10
94.75484097705437
 20
76.15716001443472
 10
95.94361249407036
 20
75.6065490074074
 10
95.94361249846932
 20
75.60654900509184
 10
96.13850981369615
 20
75.51627715257928
 10
97.0
 20
75.7243180530808
 10
97.0
 20
89.48908329329022
 10
96.71303772972897
 20
89.46210963930935
 10
96.56744073294136
 20
89.27796315686328
 10
96.56744072817162
 20
89.2779631501957
 10
90.8914412245889
 20
82.09913827003531
  0
LWPOLYLINE
  5
38
330
17
100
AcDbEntity
  8
default
100
AcDbPolyline
 90
6
 70
0
 10
97.0
 20
41.13893845562558
 10
97.0
 20
56.65166459403808
 10
91.75022828859026
 20
54.78299605265093
 10
86.5014957417734
 20
52.914697404019535
 10
86.24684363091365
 20
52.41415363457054
 10
97.0
 20
41.13893845562558
  0
LWPOLYLINE
  5
39
330
17
100
AcDbEntity
  8
default
100
AcDbPolyline
 90
13
 70
0
 10
78.91239154757932
 20
181.69769845204428
 10
78.13821747637351
 20
187.01945968963955
 10
77.81020282720048
 20
189.27426995784
 10
69.92322146769247
 20
189.7165960503305
 10
69.92322146734575
 20
189.71659605036655
 10
64.2173548779329
 20
181.00042536027166
 10
74.20542313072902
 20
177.75074309005308
 10
74.20542313179095
 20
177.75074308964855
 10
74.26812023064122
 20
177.73034418513998
 10
74.27670387038316
 20
177.73767673257998
 10
74.27670387050001
 20
177.73767673268972
 10
74.44971301588222
 20
177.885469254758
 10
78.91239154757932
 20
181.69769845204428
  0
LWPOLYLINE
  5
3A
330
17
100
AcDbEntity
  8
default
100
AcDbPolyline
 90
16
 70
0
 10
87.11175292142158
 20
177.05377046074497
 10
87.11175292138796
 20
177.05377046102032
 10
80.83063221729977
 20
179.37873853252717
 10
80.8306322142533
 20
179.3787385338268
 10
80.82081008609384
 20
179.3823742121458
 10
76.39814542613202
 20
175.6043267400658
 10
76.22526720119788
 20
175.45664605637148
 10
76.23446255903522
 20
175.40278237753893
 10
76.2344625595158
 20
175.4027823753746
 10
77.33734956133571
 20
168.94239744069966
 10
77.33734956137016
 20
168.94239744041752
 10
84.09660128112058
 20
166.44044831796936
 10
84.0966012903903
 20
166.44044831400313
 10
84.46972398506477
 20
166.30233628069982
 10
88.51636058762358
 20
168.82599536591286
 10
87.11175292142158
 20
177.05377046074497
  0
LWPOLYLINE
  5
3B
330
17
100
AcDbEntity
  8
default
100
AcDbPolyline
 90
13
 70
0
 10
82.24307365229079
 20
155.62631479406787
 10
82.4367562555708
 20
155.72732574958354
 10
83.05519901584489
 20
163.62700179726042
 10
76.29594729569297
 20
166.12895092017166
 10
76.29594729569214
 20
166.128950920172
 10
70.30961274663447
 20
161.1611395095615
 10
70.30961274426045
 20
161.16113950778362
 10
70.19103178120903
 20
161.06273407178352
 10
70.72318237125134
 20
158.00569719474262
 10
70.72318237239925
 20
158.00569718529712
 10
70.740229383111
 20
157.90776749886572
 10
77.76043114358434
 20
153.28848994405732
 10
82.24307365229079
 20
155.62631479406787
  0
LWPOLYLINE
  5
3C
330
17
100
AcDbEntity
  8
default
100
AcDbPolyline
 90
13
 70
0
 10
75.12197912868439
 20
144.1043155201254
 10
75.1219791287811
 20
144.1043155212212
 10
76.05608944770596
 20
150.81875242982375
 10
69.60436815954745
 20
155.06397106451914
 10
62.99445518266932
 20
148.01173403788422
 10
63.499946015549504
 20
145.6024441544247
 10
63.8255272040086
 20
145.46463380079106
 10
63.825527214440164
 20
145.46463379697747
 10
71.40254027908168
 20
142.25747414832807
 10
71.4025402858913
 20
142.2574741450295
 10
71.81139119947329
 20
142.08441780460998
 10
75.08495194930583
 20
143.83816209621727
 10
75.12197912868439
 20
144.1043155201254
  0
LWPOLYLINE
  5
3D
330
17
100
AcDbEntity
  8
default
100
AcDbPolyline
 90
12
 70
0
 10
82.98958178889006
 20
137.5617526229471
 10
76.45486110309139
 20
141.1686740904115
 10
73.26044241990894
 20
139.4573285682127
 10
73.20067086496249
 20
139.05447612155396
 10
73.2006708645205
 20
139.0544761169935
 10
72.36518547814913
 20
133.4234141134309
 10
72.01386171998456
 20
131.05553802801296
 10
77.6739704862946
 20
127.93136963585724
 10
77.67397048649161
 20
127.93136963598927
 10
83.11182824241712
 20
131.2120763210257
 10
83.11182824242377
 20
131.2120763210293
 10
82.98958178889006
 20
137.5617526229471
  0
LWPOLYLINE
  5
3E
330
17
100
AcDbEntity
  8
default
100
AcDbPolyline
 90
12
 70
0
 10
97.0
 20
113.83746899850436
 10
95.10697212740328
 20
114.88234959878639
 10
91.89364290488595
 20
116.65598717434551
 10
91.8936429046998
 20
116.65598717446014
 10
86.45578514878855
 20
113.37528048943231
 10
86.4557851487819
 20
113.37528048942872
 10
86.62828513048589
 20
104.41535556921735
 10
91.21228718105704
 20
103.39806207222864
 10
91.79802917489043
 20
103.75144529062752
 10
91.79802917725294
 20
103.75144529222109
 10
97.0
 20
106.88983934755237
 10
97.0
 20
113.83746899850436
  0
LWPOLYLINE
  5
3F
330
17
100
AcDbEntity
  8
default
100
AcDbPolyline
 90
13
 70
0
 10
94.8468352015299
 20
72.16102315221478
 10
94.84683520104916
 20
72.16102315494336
 10
94.68276316679611
 20
72.88436992155982
 10
93.49399164969928
 20
73.43498092888747
 10
90.78088357157544
 20
70.71367403370996
 10
84.71829316378751
 20
64.63276291436698
 10
84.71829316034723
 20
64.6327629112452
 10
84.57977216597646
 20
64.49382331641391
 10
86.51811207411811
 20
56.104998723603785
 10
90.74420821449338
 20
57.60928754691269
 10
97.0
 20
59.83605129125121
 10
97.0
 20
62.66833415038953
 10
94.8468352015299
 20
72.16102315221478
  0
LWPOLYLINE
  5
40
330
17
100
AcDbEntity
  8
default
100
AcDbPolyline
 90
14
 70
0
 10
76.3465047662469
 20
118.95522524659772
 10
76.34650476648949
 20
118.95522524672876
 10
76.2242583129555
 20
125.30490154819563
 10
70.29580527171493
 20
128.57718594605103
 10
70.20312662724328
 20
128.5372595807044
 10
70.20312661953555
 20
128.5372595769085
 10
63.842419709975886
 20
125.79703922343552
 10
63.84241970550085
 20
125.797039221762
 10
63.169489830732346
 20
125.50713808881119
 10
61.85467355977744
 20
122.22056562779471
 10
63.064162275288254
 20
118.864537762478
 10
70.4573162747547
 20
115.40222681919113
 10
74.08820045310661
 20
117.59277069352868
 10
76.3465047662469
 20
118.95522524659772
  0
LWPOLYLINE
  5
41
330
17
100
AcDbEntity
  8
default
100
AcDbPolyline
 90
16
 70
0
 10
59.077734931510655
 20
178.27060510136107
 10
59.07773493139467
 20
178.270605104091
 10
59.05784764373675
 20
178.48641784815118
 10
57.99460661368756
 20
178.10955252345948
 10
57.99460661361844
 20
178.10955252343103
 10
48.29747842670835
 20
174.6724096184303
 10
49.23218598352065
 20
166.2037959977049
 10
49.232185984153105
 20
166.2037959875881
 10
49.25754873082042
 20
165.97400507563725
 10
49.414940461644875
 20
165.8764439876101
 10
49.41494046513668
 20
165.87644398567937
 10
54.0713736395233
 20
162.99009992910288
 10
54.07137363970094
 20
162.9900999289807
 10
56.17798924452484
 20
164.11997998347417
 10
60.183740696552285
 20
166.26845864236088
 10
59.077734931510655
 20
178.27060510136107
  0
LWPOLYLINE
  5
42
330
17
100
AcDbEntity
  8
default
100
AcDbPolyline
 90
12
 70
0
 10
46.69540802006087
 20
151.09072468576176
 10
46.69540802021613
 20
151.0907246858548
 10
52.292079602838115
 20
154.09249092093356
 10
52.490809577975796
 20
160.44023380545656
 10
47.834376403404754
 20
163.32657786214398
 10
47.794933852149384
 20
163.3028882888301
 10
47.7949338505906
 20
163.3028882877901
 10
39.566404715825335
 20
158.36075503295285
 10
39.566404709952565
 20
158.36075502981507
 10
39.204706985969096
 20
158.1435159193352
 10
39.20128059247509
 20
155.7360464045778
 10
46.69540802006087
 20
151.09072468576176
  0
LWPOLYLINE
  5
43
330
17
100
AcDbEntity
  8
default
100
AcDbPolyline
 90
11
 70
0
 10
67.23547684918884
 20
160.54824884842475
 10
67.2354768486493
 20
160.54824885273257
 10
67.20966194523498
 20
160.6965473103337
 10
61.7579850750044
 20
163.70853618625551
 10
57.59582334133276
 20
161.47616711252283
 10
55.48934044835305
 20
160.34635823768957
 10
55.48934044828224
 20
160.34635823765583
 10
55.290610473144426
 20
153.9986153531285
 10
61.11197525155859
 20
150.39017494476857
 10
67.76762743904308
 20
157.4912119708215
 10
67.23547684918884
 20
160.54824884842475
  0
LWPOLYLINE
  5
44
330
17
100
AcDbEntity
  8
default
100
AcDbPolyline
 90
18
 70
0
 10
53.7100464117707
 20
151.44874922937447
 10
53.71004641142892
 20
151.44874922960955
 10
48.11337482882236
 20
148.44698299453907
 10
47.819910107180476
 20
139.07326575601473
 10
55.51742418995127
 20
138.5626402287744
 10
55.65684611292594
 20
138.7374477995607
 10
55.65684611753671
 20
138.73744780596556
 10
60.31076353632955
 20
144.57254160827236
 10
60.310763543620965
 20
144.57254161653262
 10
60.57990903966129
 20
144.90999694168568
 10
60.563872817461714
 20
144.98642940178433
 10
60.56387281468802
 20
144.98642941242528
 10
60.058381982191584
 20
147.3957192954093
 10
60.058381981361904
 20
147.39571930058943
 10
60.02993773436174
 20
147.5312913665548
 10
59.53141119823964
 20
147.840308816252
 10
59.53141118986469
 20
147.84030882089132
 10
53.7100464117707
 20
151.44874922937447
  0
LWPOLYLINE
  5
45
330
17
100
AcDbEntity
  8
default
100
AcDbPolyline
 90
7
 70
0
 10
69.39767683949185
 20
133.863746352881
 10
70.2331563464371
 20
139.49476873146355
 10
62.656143282241395
 20
142.70192837973866
 10
58.002225863486814
 20
136.8668345777377
 10
62.65546635247474
 20
128.55224188903352
 10
69.01617326222444
 20
131.2924622428094
 10
69.39767683949185
 20
133.863746352881
  0
LWPOLYLINE
  5
46
330
17
100
AcDbEntity
  8
default
100
AcDbPolyline
 90
8
 70
0
 10
46.25029405066829
 20
165.87467519362616
 10
45.31558649386004
 20
174.3432888143722
 10
45.31558649324426
 20
174.34328882428053
 10
45.28191773360595
 20
174.64833366358653
 10
35.284736211411655
 20
171.41870460705832
 10
33.95891491230577
 20
165.68764871405438
 10
38.02176491614791
 20
160.93254193922166
 10
46.25029405066829
 20
165.87467519362616
  0
LWPOLYLINE
  5
47
330
17
100
AcDbEntity
  8
default
100
AcDbPolyline
 90
13
 70
0
 10
27.544439784716815
 20
180.1669324678369
 10
28.999985918955726
 20
184.2719905679625
 10
29.711637164180573
 20
186.27905145064304
 10
29.71163716471171
 20
186.27905145193964
 10
29.836472617462277
 20
186.6311232787557
 10
29.77365781794733
 20
186.73566641277577
 10
29.773657813803577
 20
186.73566641894357
 10
26.61058008963105
 20
192.0
 10
20.500137538429158
 20
192.0
 10
20.04418151639402
 20
191.9296452049166
 10
17.176869369111955
 20
183.84300152072683
 10
21.299464848823845
 20
179.01210720930248
 10
27.544439784716815
 20
180.1669324678369
  0
LWPOLYLINE
  5
48
330
17
100
AcDbEntity
  8
default
100
AcDbPolyline
 90
16
 70
0
 10
45.7125552974407
 20
191.0744044279191
 10
42.70945457418708
 20
186.4869262432135
 10
42.709454569817595
 20
186.4869262372224
 10
42.69423587108031
 20
186.46367844939232
 10
42.76066165124411
 20
186.307500579009
 10
42.760661658823025
 20
186.30750056332093
 10
46.140596318516415
 20
178.36072152782347
 10
46.14059632290365
 20
178.36072151592683
 10
46.55345763731748
 20
177.39001705916598
 10
46.74327905336395
 20
177.30440202355385
 10
47.29522624510099
 20
177.50003946769684
 10
47.2952262452166
 20
177.50003946774416
 10
56.99235443241951
 20
180.93718237284634
 10
52.05344405610397
 20
190.71878794781773
 10
52.05344405587034
 20
190.7187879478197
 10
45.7125552974407
 20
191.0744044279191
  0
LWPOLYLINE
  5
49
330
17
100
AcDbEntity
  8
default
100
AcDbPolyline
 90
10
 70
0
 10
63.289177014941
 20
178.14762220262617
 10
63.289177009713065
 20
178.1476222046111
 10
62.065077867964355
 20
178.54589073634816
 10
63.17108363317922
 20
166.54374427761252
 10
63.171083633472655
 20
166.54374427081248
 10
63.18938691820949
 20
166.34512079972774
 10
68.39379772064339
 20
163.4697435871535
 10
74.38013226968512
 20
168.43755499787335
 10
73.2772452681187
 20
174.8979399325084
 10
63.289177014941
 20
178.14762220262617
  0
LWPOLYLINE
  5
4A
330
17
100
AcDbEntity
  8
default
100
AcDbPolyline
 90
8
 70
0
 10
39.99998834129984
 20
185.1333273056965
 10
36.8363107038173
 20
185.19403255191412
 10
32.539156368538876
 20
185.27648716373233
 10
31.827496221833748
 20
183.26940117652242
 10
30.37195898918435
 20
179.16436818102375
 10
34.50618033017963
 20
174.3198505807668
 10
43.37992300127167
 20
177.18654827009408
 10
39.99998834129984
 20
185.1333273056965
  0
LWPOLYLINE
  5
4B
330
17
100
AcDbEntity
  8
default
100
AcDbPolyline
 90
15
 70
0
 10
72.1642924551852
 20
112.92837198125198
 10
73.65534399822354
 20
101.84302829299122
 10
75.5712596126832
 20
100.1624442981556
 10
76.00852039043761
 20
100.12695341947409
 10
76.00852039527136
 20
100.1269534193275
 10
77.09106537817034
 20
100.0390871512068
 10
77.0910653793694
 20
100.03908715105008
 10
77.38401236152276
 20
100.01530970213935
 10
82.36801706828017
 20
103.2059197538683
 10
83.63539356645155
 20
104.01725610534018
 10
83.45634097605944
 20
113.31753401597962
 10
77.89623676587387
 20
116.38650363253025
 10
77.89623676569936
 20
116.3865036324133
 10
75.63794849012821
 20
115.02405875520267
 10
72.1642924551852
 20
112.92837198125198
  0
LWPOLYLINE
  5
4C
330
17
100
AcDbEntity
  8
default
100
AcDbPolyline
 90
6
 70
0
 10
76.8483643513521
 20
97.04892056522257
 10
75.76581936827876
 20
97.13678683317107
 10
69.80101906508207
 20
87.1174479466863
 10
73.9515788372508
 20
79.70106488764051
 10
84.24614671834763
 20
83.83027276005913
 10
76.8483643513521
 20
97.04892056522257
  0
LWPOLYLINE
  5
4D
330
17
100
AcDbEntity
  8
default
100
AcDbPolyline
 90
16
 70
0
 10
88.29754072890556
 20
80.56876904112966
 10
88.29754072834766
 20
80.56876904219737
 10
88.06727006426081
 20
80.96041457913816
 10
86.4454881302081
 20
81.4801086364314
 10
85.36297181544023
 20
81.04590538083201
 10
85.36297180960226
 20
81.04590537814437
 10
75.06840392845022
 20
76.9166975058244
 10
75.06840392433999
 20
76.91669750440096
 10
74.44305006368086
 20
76.66586462687701
 10
73.84140311554074
 20
75.1493299389258
 10
75.42815764667466
 20
69.89286833815277
 10
82.59377483488527
 20
66.75088044452241
 10
88.65652962998176
 20
72.83195644761167
 10
91.29214283451438
 20
75.47553428541869
 10
89.36122141914089
 20
78.7596554196209
 10
88.29754072890556
 20
80.56876904112966
  0
LWPOLYLINE
  5
4E
330
17
100
AcDbEntity
  8
default
100
AcDbPolyline
 90
10
 70
0
 10
85.2528592714481
 20
101.49063688328275
 10
83.98516460863782
 20
100.67909685239118
 10
79.7661460810341
 20
97.9782079658471
 10
87.40902483044192
 20
84.32161232689396
 10
88.538149692367
 20
83.95978841673102
 10
94.21414919646107
 20
91.1386132970912
 10
90.38197370292619
 20
100.50934077240527
 10
85.43493964103982
 20
101.60719926469028
 10
85.25285927174069
 20
101.49063688349183
 10
85.2528592714481
 20
101.49063688328275
  0
LWPOLYLINE
  5
4F
330
17
100
AcDbEntity
  8
default
100
AcDbPolyline
 90
11
 70
0
 10
84.90605314959555
 20
115.94400210377326
 10
90.34391090552106
 20
119.22470878880968
 10
90.34391090552771
 20
119.22470878881327
 10
90.221664451994
 20
125.57438509026542
 10
84.66156024180714
 20
128.64335470681678
 10
84.66156024161012
 20
128.64335470668473
 10
79.22370248568461
 20
125.36264802164833
 10
79.22370248567796
 20
125.36264802164473
 10
79.34594893921167
 20
119.01297172019258
 10
84.90605314939855
 20
115.94400210364122
 10
84.90605314959555
 20
115.94400210377326
  0
LWPOLYLINE
  5
50
330
17
100
AcDbEntity
  8
default
100
AcDbPolyline
 90
6
 70
0
 10
84.10199675243348
 20
50.31628181040287
 10
82.73424991872162
 20
49.6446413747035
 10
77.72593934927136
 20
32.581274481490254
 10
93.71214528242126
 20
33.84335302049294
 10
95.73072739085183
 20
38.1229837955907
 10
84.10199675243348
 20
50.31628181040287
  0
LWPOLYLINE
  5
51
330
17
100
AcDbEntity
  8
default
100
AcDbPolyline
 90
9
 70
0
 10
91.20461743831278
 20
152.44507178508135
 10
91.20461743838148
 20
152.44507178503906
 10
97.0
 20
155.9414762822116
 10
97.0
 20
160.24510595426204
 10
94.98420937731862
 20
165.0820007319562
 10
90.38389102788642
 20
166.45508084027097
 10
86.0754271778278
 20
163.7681348635815
 10
85.43815515751008
 20
155.6279433404598
 10
91.20461743831278
 20
152.44507178508135
  0
LWPOLYLINE
  5
52
330
17
100
AcDbEntity
  8
default
100
AcDbPolyline
 90
11
 70
0
 10
93.77357859668666
 20
139.60491795806215
 10
91.42688371820203
 20
140.90020578157117
 10
91.42688371791306
 20
140.9002057813775
 10
85.98902596161253
 20
137.61949909639577
 10
86.11127241514623
 20
131.2698227944784
 10
91.67137662532429
 20
128.2008531779319
 10
91.67137662536884
 20
128.20085317796176
 10
97.0
 20
131.4156578150683
 10
97.0
 20
137.15536833224513
 10
96.98698792793381
 20
137.83123616521053
 10
93.77357859668666
 20
139.60491795806215
  0
LWPOLYLINE
  5
53
330
17
100
AcDbEntity
  8
default
100
AcDbPolyline
 90
10
 70
0
 10
96.56828338973867
 20
186.8505837755253
 10
93.75929270756721
 20
192.0
 10
82.25815924950275
 20
192.0
 10
80.70234547229484
 20
190.2327612824738
 10
80.77895422142527
 20
189.70614396642165
 10
80.77895422157357
 20
189.7061439656644
 10
81.1069554419058
 20
187.45142600859154
 10
81.87203448263146
 20
182.19218505285232
 10
88.15315518720998
 20
179.86721698138496
 10
96.56828338973867
 20
186.8505837755253
  0
LWPOLYLINE
  5
54
330
17
100
AcDbEntity
  8
default
100
AcDbPolyline
 90
15
 70
0
 10
89.877151718824
 20
143.46892739578118
 10
89.75490526482987
 20
149.81860369742654
 10
83.9884429839956
 20
153.00147525284478
 10
83.98844298013722
 20
153.0014752552212
 10
83.84720223164186
 20
153.07943486701697
 10
83.63033708049316
 20
152.96633355713738
 10
79.14768829757992
 20
150.62850543455357
 10
79.14768829096188
 20
150.628505431499
 10
79.05153851443902
 20
150.57836060365662
 10
79.02747274922258
 20
150.4053745452337
 10
79.02747274817513
 20
150.40537453322477
 10
78.09336242876535
 20
143.6909376252157
 10
84.43929396223449
 20
140.18822071060578
 10
84.43929396252346
 20
140.18822071079944
 10
89.877151718824
 20
143.46892739578118
  0
ENDSEC
  0
SECTION
  2
OBJECTS
  0
DICTIONARY
  5
A
330
0
100
AcDbDictionary
280
0
281
1
  3
ACAD_COLOR
350
B
  3
ACAD_GROUP
350
C
  3
ACAD_LAYOUT
350
D
  3
ACAD_MATERIAL
350
E
  3
ACAD_MLEADERSTYLE
350
F
  3
ACAD_MLINESTYLE
350
10
  3
ACAD_PLOTSETTINGS
350
11
  3
ACAD_PLOTSTYLENAME
350
12
  3
ACAD_SCALELIST
350
14
  3
ACAD_TABLESTYLE
350
15
  3
ACAD_VISUALSTYLE
350
16
  3
EZDXF_META
350
2D
  0
DICTIONARY
  5
B
330
A
100
AcDbDictionary
280
0
281
1
  0
DICTIONARY
  5
C
330
A
100
AcDbDictionary
280
0
281
1
  0
DICTIONARY
  5
D
330
A
100
AcDbDictionary
280
0
281
1
  3
Model
350
1A
  3
Layout1
350
1E
  0
DICTIONARY
  5
E
330
A
100
AcDbDictionary
280
0
281
1
  3
ByBlock
350
1F
  3
ByLayer
350
20
  3
Global
350
21
  0
DICTIONARY
  5
F
330
A
100
AcDbDictionary
280
0
281
1
  3
Standard
350
2C
  0
DICTIONARY
  5
10
330
A
100
AcDbDictionary
280
0
281
1
  3
Standard
350
22
  0
DICTIONARY
  5
11
330
A
100
AcDbDictionary
280
0
281
1
  0
ACDBDICTIONARYWDFLT
  5
12
330
A
100
AcDbDictionary
280
0
281
1
  3
Normal
350
13
100
AcDbDictionaryWithDefault
340
13
  0
ACDBPLACEHOLDER
  5
13
330
12
  0
DICTIONARY
  5
14
330
A
100
AcDbDictionary
280
0
281
1
  0
DICTIONARY
  5
15
330
A
100
AcDbDictionary
280
0
281
1
  0
DICTIONARY
  5
16
330
A
100
AcDbDictionary
280
0
281
1
  0
LAYOUT
  5
1A
330
D
100
AcDbPlotSettings
  1

  2
Adobe PDF
  4
A3
  6

 40
7.5
 41
20.0
 42
7.5
 43
20.0
 44
420.0
 45
297.0
 46
0.0
 47
0.0
 48
0.0
 49
0.0
140
0.0
141
0.0
142
1.0
143
1.0
 70
1024
 72
1
 73
0
 74
5
  7

 75
16
 76
0
 77
2
 78
300
147
1.0
148
0.0
149
0.0
100
AcDbLayout
  1
Model
 70
1
 71
0
 10
0.0
 20
0.0
 11
420.0
 21
297.0
 12
0.0
 22
0.0
 32
0.0
 14
1e+20
 24
1e+20
 34
1e+20
 15
-1e+20
 25
-1e+20
 35
-1e+20
146
0.0
 13
0.0
 23
0.0
 33
0.0
 16
1.0
 26
0.0
 36
0.0
 17
0.0
 27
1.0
 37
0.0
 76
1
330
17
  0
LAYOUT
  5
1E
330
D
100
AcDbPlotSettings
  1

  2
Adobe PDF
  4
A3
  6

 40
7.5
 41
20.0
 42
7.5
 43
20.0
 44
420.0
 45
297.0
 46
0.0
 47
0.0
 48
0.0
 49
0.0
140
0.0
141
0.0
142
1.0
143
1.0
 70
0
 72
1
 73
0
 74
5
  7

 75
16
 76
0
 77
2
 78
300
147
1.0
148
0.0
149
0.0
100
AcDbLayout
  1
Layout1
 70
1
 71
1
 10
0.0
 20
0.0
 11
420.0
 21
297.0
 12
0.0
 22
0.0
 32
0.0
 14
1e+20
 24
1e+20
 34
1e+20
 15
-1e+20
 25
-1e+20
 35
-1e+20
146
0.0
 13
0.0
 23
0.0
 33
0.0
 16
1.0
 26
0.0
 36
0.0
 17
0.0
 27
1.0
 37
0.0
 76
1
330
1B
  0
MATERIAL
  5
1F
102
{ACAD_REACTORS
330
E
102
}
330
E
100
AcDbMaterial
  1
ByBlock
  2

 70
0
 40
1.0
 71
1
 41
1.0
 91
-1023410177
 42
1.0
 72
1
  3

 73
1
 74
1
 75
1
 44
0.5
 73
0
 45
1.0
 46
1.0
 77
1
  4

 78
1
 79
1
170
1
 48
1.0
171
1
  6

172
1
173
1
174
1
140
1.0
141
1.0
175
1
  7

176
1
177
1
178
1
143
1.0
179
1
  8

270
1
271
1
272
1
145
1.0
146
1.0
273
1
  9

274
1
275
1
276
1
 42
1.0
 72
1
  3

 73
1
 74
1
 75
1
 94
63
  0
MATERIAL
  5
20
102
{ACAD_REACTORS
330
E
102
}
330
E
100
AcDbMaterial
  1
ByLayer
  2

 70
0
 40
1.0
 71
1
 41
1.0
 91
-1023410177
 42
1.0
 72
1
  3

 73
1
 74
1
 75
1
 44
0.5
 73
0
 45
1.0
 46
1.0
 77
1
  4

 78
1
 79
1
170
1
 48
1.0
171
1
  6

172
1
173
1
174
1
140
1.0
141
1.0
175
1
  7

176
1
177
1
178
1
143
1.0
179
1
  8

270
1
271
1
272
1
145
1.0
146
1.0
273
1
  9

274
1
275
1
276
1
 42
1.0
 72
1
  3

 73
1
 74
1
 75
1
 94
63
  0
MATERIAL
  5
21
102
{ACAD_REACTORS
330
E
102
}
330
E
100
AcDbMaterial
  1
Global
  2

 70
0
 40
1.0
 71
1
 41
1.0
 91
-1023410177
 42
1.0
 72
1
  3

 73
1
 74
1
 75
1
 44
0.5
 73
0
 45
1.0
 46
1.0
 77
1
  4

 78
1
 79
1
170
1
 48
1.0
171
1
  6

172
1
173
1
174
1
140
1.0
141
1.0
175
1
  7

176
1
177
1
178
1
143
1.0
179
1
  8

270
1
271
1
272
1
145
1.0
146
1.0
273
1
  9

274
1
275
1
276
1
 42
1.0
 72
1
  3

 73
1
 74
1
 75
1
 94
63
  0
MLINESTYLE
  5
22
102
{ACAD_REACTORS
330
10
102
}
330
10
100
AcDbMlineStyle
  2
Standard
 70
0
  3

 62
256
 51
90.0
 52
90.0
 71
2
 49
0.5
 62
256
  6
BYLAYER
 49
-0.5
 62
256
  6
BYLAYER
  0
MLEADERSTYLE
  5
2C
102
{ACAD_REACTORS
330
F
102
}
330
F
100
AcDbMLeaderStyle
179
2
170
2
171
1
172
0
 90
2
 40
0.0
 41
0.0
173
1
 91
-1056964608
 92
-2
290
1
 42
2.0
291
1
 43
8.0
  3
Standard
 44
4.0
300

342
29
174
1
175
1
176
0
178
1
 93
-1056964608
 45
4.0
292
0
297
0
 46
4.0
 94
-1056964608
 47
1.0
 49
1.0
140
1.0
294
1
141
0.0
177
0
142
1.0
295
0
296
0
143
3.75
271
0
272
9
273
9
  0
DICTIONARY
  5
2D
330
A
100
AcDbDictionary
281
1
  3
CREATED_BY_EZDXF
350
2E
  3
WRITTEN_BY_EZDXF
350
57
  0
DICTIONARYVAR
  5
2E
330
2D
100
DictionaryVariables
280
0
  1
1.1.1 @ 2023-10-17T18:01:51.435233+00:00
  0
DICTIONARYVAR
  5
57
330
2D
100
DictionaryVariables
280
0
  1
1.1.1 @ 2023-10-17T18:01:51.447735+00:00
  0
ENDSEC
  0
EOF
