  0
SECTION
  2
HEADER
  9
$ACADVER
  1
AC1024
  9
$ACADMAINTVER
 70
6
  9
$DWGCODEPAGE
  3
ANSI_1252
  9
$LASTSAVEDBY
  1
ezdxf
  9
$INSBASE
 10
0.0
 20
0.0
 30
0.0
  9
$EXTMIN
 10
1e+20
 20
1e+20
 30
1e+20
  9
$EXTMAX
 10
-1e+20
 20
-1e+20
 30
-1e+20
  9
$LIMMIN
 10
0.0
 20
0.0
  9
$LIMMAX
 10
420.0
 20
297.0
  9
$ORTHOMODE
 70
0
  9
$REGENMODE
 70
1
  9
$FILLMODE
 70
1
  9
$QTEXTMODE
 70
0
  9
$MIRRTEXT
 70
1
  9
$LTSCALE
 40
1.0
  9
$ATTMODE
 70
1
  9
$TEXTSIZE
 40
2.5
  9
$TRACEWID
 40
1.0
  9
$TEXTSTYLE
  7
Standard
  9
$CLAYER
  8
0
  9
$CELTYPE
  6
ByLayer
  9
$CECOLOR
 62
256
  9
$CELTSCALE
 40
1.0
  9
$DISPSILH
 70
0
  9
$DIMSCALE
 40
1.0
  9
$DIMASZ
 40
2.5
  9
$DIMEXO
 40
0.625
  9
$DIMDLI
 40
3.75
  9
$DIMRND
 40
0.0
  9
$DIMDLE
 40
0.0
  9
$DIMEXE
 40
1.25
  9
$DIMTP
 40
0.0
  9
$DIMTM
 40
0.0
  9
$DIMTXT
 40
2.5
  9
$DIMCEN
 40
2.5
  9
$DIMTSZ
 40
0.0
  9
$DIMTOL
 70
0
  9
$DIMLIM
 70
0
  9
$DIMTIH
 70
0
  9
$DIMTOH
 70
0
  9
$DIMSE1
 70
0
  9
$DIMSE2
 70
0
  9
$DIMTAD
 70
1
  9
$DIMZIN
 70
8
  9
$DIMBLK
  1

  9
$DIMASO
 70
1
  9
$DIMSHO
 70
1
  9
$DIMPOST
  1

  9
$DIMAPOST
  1

  9
$DIMALT
 70
0
  9
$DIMALTD
 70
3
  9
$DIMALTF
 40
0.03937007874
  9
$DIMLFAC
 40
1.0
  9
$DIMTOFL
 70
1
  9
$DIMTVP
 40
0.0
  9
$DIMTIX
 70
0
  9
$DIMSOXD
 70
0
  9
$DIMSAH
 70
0
  9
$DIMBLK1
  1

  9
$DIMBLK2
  1

  9
$DIMSTYLE
  2
ISO-25
  9
$DIMCLRD
 70
0
  9
$DIMCLRE
 70
0
  9
$DIMCLRT
 70
0
  9
$DIMTFAC
 40
1.0
  9
$DIMGAP
 40
0.625
  9
$DIMJUST
 70
0
  9
$DIMSD1
 70
0
  9
$DIMSD2
 70
0
  9
$DIMTOLJ
 70
0
  9
$DIMTZIN
 70
8
  9
$DIMALTZ
 70
0
  9
$DIMALTTZ
 70
0
  9
$DIMUPT
 70
0
  9
$DIMDEC
 70
2
  9
$DIMTDEC
 70
2
  9
$DIMALTU
 70
2
  9
$DIMALTTD
 70
3
  9
$DIMTXSTY
  7
Standard
  9
$DIMAUNIT
 70
0
  9
$DIMADEC
 70
0
  9
$DIMALTRND
 40
0.0
  9
$DIMAZIN
 70
0
  9
$DIMDSEP
 70
44
  9
$DIMATFIT
 70
3
  9
$DIMFRAC
 70
0
  9
$DIMLDRBLK
  1

  9
$DIMLUNIT
 70
2
  9
$DIMLWD
 70
-2
  9
$DIMLWE
 70
-2
  9
$DIMTMOVE
 70
0
  9
$DIMFXL
 40
1.0
  9
$DIMFXLON
 70
0
  9
$DIMJOGANG
 40
0.785398163397
  9
$DIMTFILL
 70
0
  9
$DIMTFILLCLR
 70
0
  9
$DIMARCSYM
 70
0
  9
$DIMLTYPE
  6

  9
$DIMLTEX1
  6

  9
$DIMLTEX2
  6

  9
$DIMTXTDIRECTION
 70
0
  9
$LUNITS
 70
2
  9
$LUPREC
 70
4
  9
$SKETCHINC
 40
1.0
  9
$FILLETRAD
 40
10.0
  9
$AUNITS
 70
0
  9
$AUPREC
 70
2
  9
$MENU
  1
.
  9
$ELEVATION
 40
0.0
  9
$PELEVATION
 40
0.0
  9
$THICKNESS
 40
0.0
  9
$LIMCHECK
 70
0
  9
$CHAMFERA
 40
0.0
  9
$CHAMFERB
 40
0.0
  9
$CHAMFERC
 40
0.0
  9
$CHAMFERD
 40
0.0
  9
$SKPOLY
 70
0
  9
$TDCREATE
 40
2460235.497951389
  9
$TDUCREATE
 40
2458532.153996898
  9
$TDUPDATE
 40
2460235.497951389
  9
$TDUUPDATE
 40
2458532.1544311
  9
$TDINDWG
 40
0.0
  9
$TDUSRTIMER
 40
0.0
  9
$USRTIMER
 70
1
  9
$ANGBASE
 50
0.0
  9
$ANGDIR
 70
0
  9
$PDMODE
 70
0
  9
$PDSIZE
 40
0.0
  9
$PLINEWID
 40
0.0
  9
$SPLFRAME
 70
0
  9
$SPLINETYPE
 70
6
  9
$SPLINESEGS
 70
8
  9
$HANDSEED
  5
84
  9
$SURFTAB1
 70
6
  9
$SURFTAB2
 70
6
  9
$SURFTYPE
 70
6
  9
$SURFU
 70
6
  9
$SURFV
 70
6
  9
$UCSBASE
  2

  9
$UCSNAME
  2

  9
$UCSORG
 10
0.0
 20
0.0
 30
0.0
  9
$UCSXDIR
 10
1.0
 20
0.0
 30
0.0
  9
$UCSYDIR
 10
0.0
 20
1.0
 30
0.0
  9
$UCSORTHOREF
  2

  9
$UCSORTHOVIEW
 70
0
  9
$UCSORGTOP
 10
0.0
 20
0.0
 30
0.0
  9
$UCSORGBOTTOM
 10
0.0
 20
0.0
 30
0.0
  9
$UCSORGLEFT
 10
0.0
 20
0.0
 30
0.0
  9
$UCSORGRIGHT
 10
0.0
 20
0.0
 30
0.0
  9
$UCSORGFRONT
 10
0.0
 20
0.0
 30
0.0
  9
$UCSORGBACK
 10
0.0
 20
0.0
 30
0.0
  9
$PUCSBASE
  2

  9
$PUCSNAME
  2

  9
$PUCSORG
 10
0.0
 20
0.0
 30
0.0
  9
$PUCSXDIR
 10
1.0
 20
0.0
 30
0.0
  9
$PUCSYDIR
 10
0.0
 20
1.0
 30
0.0
  9
$PUCSORTHOREF
  2

  9
$PUCSORTHOVIEW
 70
0
  9
$PUCSORGTOP
 10
0.0
 20
0.0
 30
0.0
  9
$PUCSORGBOTTOM
 10
0.0
 20
0.0
 30
0.0
  9
$PUCSORGLEFT
 10
0.0
 20
0.0
 30
0.0
  9
$PUCSORGRIGHT
 10
0.0
 20
0.0
 30
0.0
  9
$PUCSORGFRONT
 10
0.0
 20
0.0
 30
0.0
  9
$PUCSORGBACK
 10
0.0
 20
0.0
 30
0.0
  9
$USERI1
 70
0
  9
$USERI2
 70
0
  9
$USERI3
 70
0
  9
$USERI4
 70
0
  9
$USERI5
 70
0
  9
$USERR1
 40
0.0
  9
$USERR2
 40
0.0
  9
$USERR3
 40
0.0
  9
$USERR4
 40
0.0
  9
$USERR5
 40
0.0
  9
$WORLDVIEW
 70
1
  9
$SHADEDGE
 70
3
  9
$SHADEDIF
 70
70
  9
$TILEMODE
 70
1
  9
$MAXACTVP
 70
64
  9
$PINSBASE
 10
0.0
 20
0.0
 30
0.0
  9
$PLIMCHECK
 70
0
  9
$PEXTMIN
 10
1e+20
 20
1e+20
 30
1e+20
  9
$PEXTMAX
 10
-1e+20
 20
-1e+20
 30
-1e+20
  9
$PLIMMIN
 10
0.0
 20
0.0
  9
$PLIMMAX
 10
420.0
 20
297.0
  9
$UNITMODE
 70
0
  9
$VISRETAIN
 70
1
  9
$PLINEGEN
 70
0
  9
$PSLTSCALE
 70
1
  9
$TREEDEPTH
 70
3020
  9
$CMLSTYLE
  2
Standard
  9
$CMLJUST
 70
0
  9
$CMLSCALE
 40
20.0
  9
$PROXYGRAPHICS
 70
1
  9
$MEASUREMENT
 70
1
  9
$CELWEIGHT
370
-1
  9
$ENDCAPS
280
0
  9
$JOINSTYLE
280
0
  9
$LWDISPLAY
290
0
  9
$INSUNITS
 70
4
  9
$HYPERLINKBASE
  1

  9
$STYLESHEET
  1

  9
$XEDIT
290
1
  9
$CEPSNTYPE
380
0
  9
$PSTYLEMODE
290
1
  9
$FINGERPRINTGUID
  2
{7BA8B4AC-FA0E-4C61-A71A-BDFC8D11BA04}
  9
$VERSIONGUID
  2
{C7421F2F-1BF3-4924-A94B-9E13BBCEB81F}
  9
$EXTNAMES
290
1
  9
$PSVPSCALE
 40
0.0
  9
$OLESTARTUP
290
0
  9
$SORTENTS
280
127
  9
$INDEXCTL
280
0
  9
$HIDETEXT
280
1
  9
$XCLIPFRAME
280
0
  9
$HALOGAP
280
0
  9
$OBSCOLOR
 70
257
  9
$OBSLTYPE
280
0
  9
$INTERSECTIONDISPLAY
280
0
  9
$INTERSECTIONCOLOR
 70
257
  9
$DIMASSOC
280
2
  9
$PROJECTNAME
  1

  9
$CAMERADISPLAY
290
0
  9
$LENSLENGTH
 40
50.0
  9
$CAMERAHEIGHT
 40
0.0
  9
$STEPSPERSEC
 40
24.0
  9
$STEPSIZE
 40
100.0
  9
$3DDWFPREC
 40
2.0
  9
$PSOLWIDTH
 40
0.005
  9
$PSOLHEIGHT
 40
0.08
  9
$LOFTANG1
 40
1.570796326795
  9
$LOFTANG2
 40
1.570796326795
  9
$LOFTMAG1
 40
0.0
  9
$LOFTMAG2
 40
0.0
  9
$LOFTPARAM
 70
7
  9
$LOFTNORMALS
280
1
  9
$LATITUDE
 40
37.795
  9
$LONGITUDE
 40
-122.394
  9
$NORTHDIRECTION
 40
0.0
  9
$TIMEZONE
 70
-8000
  9
$LIGHTGLYPHDISPLAY
280
1
  9
$TILEMODELIGHTSYNCH
280
1
  9
$CMATERIAL
347
20
  9
$SOLIDHIST
280
0
  9
$SHOWHIST
280
1
  9
$DWFFRAME
280
2
  9
$DGNFRAME
280
2
  9
$REALWORLDSCALE
290
1
  9
$INTERFERECOLOR
 62
256
  9
$CSHADOW
280
0
  9
$SHADOWPLANELOCATION
 40
0.0
  0
ENDSEC
  0
SECTION
  2
CLASSES
  0
CLASS
  1
ACDBDICTIONARYWDFLT
  2
AcDbDictionaryWithDefault
  3
ObjectDBX Classes
 90
0
 91
0
280
0
281
0
  0
CLASS
  1
SUN
  2
AcDbSun
  3
SCENEOE
 90
1153
 91
0
280
0
281
0
  0
CLASS
  1
VISUALSTYLE
  2
AcDbVisualStyle
  3
ObjectDBX Classes
 90
4095
 91
0
280
0
281
0
  0
CLASS
  1
MATERIAL
  2
AcDbMaterial
  3
ObjectDBX Classes
 90
1153
 91
0
280
0
281
0
  0
CLASS
  1
SCALE
  2
AcDbScale
  3
ObjectDBX Classes
 90
1153
 91
0
280
0
281
0
  0
CLASS
  1
TABLESTYLE
  2
AcDbTableStyle
  3
ObjectDBX Classes
 90
4095
 91
0
280
0
281
0
  0
CLASS
  1
MLEADERSTYLE
  2
AcDbMLeaderStyle
  3
ACDB_MLEADERSTYLE_CLASS
 90
4095
 91
0
280
0
281
0
  0
CLASS
  1
DICTIONARYVAR
  2
AcDbDictionaryVar
  3
ObjectDBX Classes
 90
0
 91
0
280
0
281
0
  0
CLASS
  1
CELLSTYLEMAP
  2
AcDbCellStyleMap
  3
ObjectDBX Classes
 90
1152
 91
0
280
0
281
0
  0
CLASS
  1
MENTALRAYRENDERSETTINGS
  2
AcDbMentalRayRenderSettings
  3
SCENEOE
 90
1024
 91
0
280
0
281
0
  0
CLASS
  1
ACDBDETAILVIEWSTYLE
  2
AcDbDetailViewStyle
  3
ObjectDBX Classes
 90
1025
 91
0
280
0
281
0
  0
CLASS
  1
ACDBSECTIONVIEWSTYLE
  2
AcDbSectionViewStyle
  3
ObjectDBX Classes
 90
1025
 91
0
280
0
281
0
  0
CLASS
  1
RASTERVARIABLES
  2
AcDbRasterVariables
  3
ISM
 90
0
 91
0
280
0
281
0
  0
CLASS
  1
LAYOUT
  2
AcDbLayout
  3
ObjectDBX Classes
 90
0
 91
0
280
0
281
0
  0
CLASS
  1
ACDBPLACEHOLDER
  2
AcDbPlaceHolder
  3
ObjectDBX Classes
 90
0
 91
0
280
0
281
0
  0
ENDSEC
  0
SECTION
  2
TABLES
  0
TABLE
  2
VPORT
  5
8
330
0
100
AcDbSymbolTable
 70
1
  0
VPORT
  5
23
330
8
100
AcDbSymbolTableRecord
100
AcDbViewportTableRecord
  2
*Active
 70
0
 10
0.0
 20
0.0
 11
1.0
 21
1.0
 12
0.0
 22
0.0
 13
0.0
 23
0.0
 14
0.5
 24
0.5
 15
0.5
 25
0.5
 16
0.0
 26
0.0
 36
1.0
 17
0.0
 27
0.0
 37
0.0
 40
1000.0
 41
1.34
 42
50.0
 43
0.0
 44
0.0
 50
0.0
 51
0.0
 71
0
 72
1000
 73
1
 74
3
 75
0
 76
0
 77
0
 78
0
281
0
 65
0
146
0.0
  0
ENDTAB
  0
TABLE
  2
LTYPE
  5
2
330
0
100
AcDbSymbolTable
 70
3
  0
LTYPE
  5
24
330
2
100
AcDbSymbolTableRecord
100
AcDbLinetypeTableRecord
  2
ByBlock
 70
0
  3

 72
65
 73
0
 40
0.0
  0
LTYPE
  5
25
330
2
100
AcDbSymbolTableRecord
100
AcDbLinetypeTableRecord
  2
ByLayer
 70
0
  3

 72
65
 73
0
 40
0.0
  0
LTYPE
  5
26
330
2
100
AcDbSymbolTableRecord
100
AcDbLinetypeTableRecord
  2
Continuous
 70
0
  3

 72
65
 73
0
 40
0.0
  0
ENDTAB
  0
TABLE
  2
LAYER
  5
1
330
0
100
AcDbSymbolTable
 70
2
  0
LAYER
  5
27
330
1
100
AcDbSymbolTableRecord
100
AcDbLayerTableRecord
  2
0
 70
0
 62
7
  6
Continuous
370
-3
390
13
347
21
  0
LAYER
  5
28
330
1
100
AcDbSymbolTableRecord
100
AcDbLayerTableRecord
  2
Defpoints
 70
0
 62
7
  6
Continuous
290
0
370
-3
390
13
347
21
  0
ENDTAB
  0
TABLE
  2
STYLE
  5
5
330
0
100
AcDbSymbolTable
 70
1
  0
STYLE
  5
29
330
5
100
AcDbSymbolTableRecord
100
AcDbTextStyleTableRecord
  2
Standard
 70
0
 40
0.0
 41
1.0
 50
0.0
 71
0
 42
2.5
  3
txt
  4

  0
ENDTAB
  0
TABLE
  2
VIEW
  5
7
330
0
100
AcDbSymbolTable
 70
0
  0
ENDTAB
  0
TABLE
  2
UCS
  5
6
330
0
100
AcDbSymbolTable
 70
0
  0
ENDTAB
  0
TABLE
  2
APPID
  5
3
330
0
100
AcDbSymbolTable
 70
3
  0
APPID
  5
2A
330
3
100
AcDbSymbolTableRecord
100
AcDbRegAppTableRecord
  2
ACAD
 70
0
  0
APPID
  5
81
330
3
100
AcDbSymbolTableRecord
100
AcDbRegAppTableRecord
  2
HATCHBACKGROUNDCOLOR
 70
0
  0
APPID
  5
82
330
3
100
AcDbSymbolTableRecord
100
AcDbRegAppTableRecord
  2
EZDXF
 70
0
  0
ENDTAB
  0
TABLE
  2
DIMSTYLE
  5
4
330
0
100
AcDbSymbolTable
 70
1
100
AcDbDimStyleTable
  0
DIMSTYLE
105
2B
330
4
100
AcDbSymbolTableRecord
100
AcDbDimStyleTableRecord
  2
Standard
 70
0
 40
1.0
 41
2.5
 42
0.625
 43
3.75
 44
1.25
 45
0.0
 46
0.0
 47
0.0
 48
0.0
 49
2.5
140
2.5
141
2.5
142
0.0
143
0.03937007874
144
1.0
145
0.0
146
1.0
147
0.625
148
0.0
 69
0
 70
0
 71
0
 72
0
 73
0
 74
0
 75
0
 76
0
 77
1
 78
8
 79
3
170
0
171
3
172
1
173
0
174
0
175
0
176
0
177
0
178
0
179
2
271
2
272
2
273
2
274
3
275
0
276
0
277
2
278
44
279
0
280
0
281
0
282
0
283
0
284
8
285
0
286
0
288
0
289
3
290
0
371
-2
372
-2
  0
ENDTAB
  0
TABLE
  2
BLOCK_RECORD
  5
9
330
0
100
AcDbSymbolTable
 70
2
  0
BLOCK_RECORD
  5
17
330
9
100
AcDbSymbolTableRecord
100
AcDbBlockTableRecord
  2
*Model_Space
340
1A
 70
0
280
1
281
0
  0
BLOCK_RECORD
  5
1B
330
9
100
AcDbSymbolTableRecord
100
AcDbBlockTableRecord
  2
*Paper_Space
340
1E
 70
0
280
1
281
0
  0
ENDTAB
  0
ENDSEC
  0
SECTION
  2
BLOCKS
  0
BLOCK
  5
18
330
17
100
AcDbEntity
  8
0
100
AcDbBlockBegin
  2
*Model_Space
 70
0
 10
0.0
 20
0.0
 30
0.0
  3
*Model_Space
  1

  0
ENDBLK
  5
19
330
17
100
AcDbEntity
  8
0
100
AcDbBlockEnd
  0
BLOCK
  5
1C
330
1B
100
AcDbEntity
  8
0
100
AcDbBlockBegin
  2
*Paper_Space
 70
0
 10
0.0
 20
0.0
 30
0.0
  3
*Paper_Space
  1

  0
ENDBLK
  5
1D
330
1B
100
AcDbEntity
  8
0
100
AcDbBlockEnd
  0
ENDSEC
  0
SECTION
  2
ENTITIES
  0
LWPOLYLINE
  5
2F
330
17
100
AcDbEntity
  8
default
100
AcDbPolyline
 90
739
 70
0
 10
-17.225458753942824
 20
15.524189591932952
 10
-17.48510170623167
 20
15.66297164130248
 10
-17.65344869861888
 20
15.7638749453941
 10
-17.898238379516496
 20
15.92743818095297
 10
-18.055884481804583
 20
16.044356498832585
 10
-18.283463432868338
 20
16.23112571720964
 10
-18.42889042691414
 20
16.362933061562018
 10
-18.637066938437986
 20
16.571109573085863
 10
-18.768874282790364
 20
16.71653656713167
 10
-18.95564350116741
 20
16.944115518195414
 10
-19.072561819047028
 20
17.1017616204835
 10
-19.2361250546059
 20
17.34655130138112
 10
-19.33702835869752
 20
17.514898293768326
 10
-19.47581040806704
 20
17.77454124605716
 10
-19.559726944392906
 20
17.951967854978978
 10
-19.672391260571636
 20
18.223963575093162
 10
-19.73851286701348
 20
18.408761085314417
 10
-19.82397443104805
 20
18.690490105781283
 10
-19.871664320390092
 20
18.88087881625795
 10
-19.929100090700803
 20
19.16962793260166
 10
-19.957898983238735
 20
19.363774295974796
 10
-19.98675582195991
 20
19.656762696358623
 10
-19.996386368615518
 20
19.852796977017743
 10
-19.996386368615518
 20
20.147203022982254
 10
-19.98675582195991
 20
20.343237303641374
 10
-19.957898983238735
 20
20.636225704025204
 10
-19.929100090700803
 20
20.83037206739834
 10
-19.871664320390096
 20
21.119121183742045
 10
-19.82397443104805
 20
21.309509894218714
 10
-19.766167383377702
 20
21.50007419175089
 10
-19.770520433712484
 20
21.590525386718127
 10
-19.757075640304283
 20
21.87570012473299
 10
-19.511377441162512
 20
24.462132492296238
 10
-19.47088594457724
 20
24.74473792814646
 10
-19.403714442078165
 20
25.022214743249677
 10
-19.310471249193558
 20
25.292050064600485
 10
-19.192000790717074
 20
25.55180022174419
 10
-19.049375953466065
 20
25.799112877034883
 10
-18.88388837005241
 20
26.03174832876939
 10
-18.69703672165759
 20
26.247599794272745
 10
-18.490513165743806
 20
26.44471248924832
 10
-18.266188011614
 20
26.62130133060713
 10
-18.02609278260116
 20
26.7757671024567
 10
-17.772401818278457
 20
26.906710938847823
 10
-15.409636582917745
 20
27.98714624095635
 10
-15.409636582669865
 20
27.987146241055726
 10
-15.163938384029056
 20
30.57357860917871
 10
-15.163938383962153
 20
30.57357860964564
 10
-18.60259544538765
 20
33.01970211821352
 10
-18.842108692385597
 20
33.20915711140539
 10
-19.061120444224727
 20
33.42198014232354
 10
-19.257361257575106
 20
33.655965896395045
 10
-19.42879764610015
 20
33.9086897667008
 10
-19.573653151846447
 20
34.177532978234616
 10
-19.690426753254386
 20
34.45970972417066
 10
-19.777908419042078
 20
34.75229603294781
 10
-19.835191646790154
 20
35.05226006704456
 10
-20.14050087399224
 20
37.25420949022359
 10
-20.16642802858191
 20
37.54375603531827
 10
-20.16420886122072
 20
37.83445260292374
 10
-20.133864209746953
 20
38.123569571032355
 10
-20.122857566940986
 20
38.177448226106
 10
-20.204223345885463
 20
38.243203072206434
 10
-20.41401229796982
 20
38.44986273900171
 10
-20.602529138085274
 20
38.676094972093
 10
-20.767957409657235
 20
38.919719907724186
 10
-20.90870312632704
 20
39.1783900945175
 10
-21.0234101308292
 20
39.44961311237316
 10
-22.927584840987457
 20
44.649782690102114
 10
-23.01469516345849
 20
44.92919496070725
 10
-23.074164272350224
 20
45.21576580767768
 10
-23.105426157697373
 20
45.506767731675204
 10
-23.108183277818725
 20
45.799431059638174
 10
-23.082409391233732
 20
46.090970305737265
 10
-23.028349806421417
 20
46.37861068283277
 10
-22.946519047044454
 20
46.659614512104746
 10
-22.837695954860138
 20
46.93130727949683
 10
-22.70291627692735
 20
47.19110309097588
 10
-22.543462807662376
 20
47.43652928433162
 10
-22.360853179568622
 20
47.66524996326814
 10
-22.15682541884463
 20
47.87508822979662
 10
-21.933321403347925
 20
48.064046903327565
 10
-21.69246838035713
 20
48.230327529264315
 10
-18.251131337868973
 20
50.36608829804666
 10
-17.998390475072377
 20
50.50654446177948
 10
-17.760258584267305
 20
50.610274449691005
 10
-17.713526742781116
 20
50.86869289247182
 10
-17.53856964733264
 20
51.61867918960274
 10
-17.558364916196133
 20
51.63357451214613
 10
-17.781661389218588
 20
51.84015046460162
 10
-22.105702172787804
 20
56.267852893374666
 10
-22.301723484897327
 20
56.48945355746133
 10
-22.47496414360004
 20
56.72928450479098
 10
-22.623739263970847
 20
56.98501321394082
 10
-22.746601905323786
 20
57.2541525467864
 10
-22.84235714370842
 20
57.53408493763585
 10
-22.910073693369657
 20
57.82208785086203
 10
-22.949092964144207
 20
58.11536025943981
 10
-22.95903546670428
 20
58.41104988686633
 10
-22.93980450335313
 20
58.70628094751777
 10
-22.891587108476834
 20
58.99818211564858
 10
-22.814852229505878
 20
59.28391445101527
 10
-22.71034616607786
 20
59.56069900952887
 10
-22.57908531175864
 20
59.8258438704034
 10
-22.422346268913692
 20
60.0767703169427
 10
-22.241653432869388
 20
60.31103791633932
 10
-22.038764166116742
 20
60.52636825456727
 10
-21.81565170674878
 20
60.72066709553028
 10
-21.57448597735877
 20
60.892044748952685
 10
-19.126117050450205
 20
62.45616062857907
 10
-19.147221364041478
 20
62.677795478934
 10
-19.14692653745606
 20
62.96556306120572
 10
-18.897008626090432
 20
68.06140583662881
 10
-18.868324378287124
 20
68.35339564120352
 10
-18.811255317074167
 20
68.64118715306564
 10
-18.726347281593046
 20
68.92202777968215
 10
-18.614412377881738
 20
69.1932314105184
 10
-18.47652121145653
 20
69.45220410844138
 10
-18.31399264746608
 20
69.69646891952726
 10
-18.128381196357033
 20
69.92368956397844
 10
-17.921462145701504
 20
70.13169278155796
 10
-17.695214580393593
 20
70.31848911781717
 10
-16.298341481595497
 20
71.36124956401918
 10
-16.05785066668603
 20
71.52328540949324
 10
-15.802838999160418
 20
71.66134516720751
 10
-15.55405384809656
 20
71.76638510331436
 10
-15.545143989246835
 20
71.84822351700872
 10
-15.480222246690328
 20
72.15051552460955
 10
-15.127601327455277
 20
73.45967436948285
 10
-15.040405017221719
 20
73.73126364644659
 10
-14.983469918629984
 20
73.86378670207411
 10
-14.998232630115666
 20
73.8818361775198
 10
-15.164910494450584
 20
74.13354801329419
 10
-15.528434212885902
 20
74.74755969679549
 10
-15.673460637653172
 20
75.02448654425467
 10
-15.68322900566659
 20
75.04907329792779
 10
-15.830372067398377
 20
75.0708999092992
 10
-16.119121183742184
 20
75.12833567960993
 10
-16.309509894218852
 20
75.17602556895199
 10
-16.591238914685523
 20
75.2614871329865
 10
-16.776036424906778
 20
75.32760873942834
 10
-17.048032145020965
 20
75.44027305560707
 10
-17.22545875394278
 20
75.52418959193292
 10
-17.48510170623163
 20
75.66297164130245
 10
-17.65344869861884
 20
75.76387494539406
 10
-17.898238379516567
 20
75.92743818095302
 10
-18.055884481804654
 20
76.04435649883264
 10
-18.283463432868366
 20
76.23112571720966
 10
-18.428890426914172
 20
76.36293306156205
 10
-18.637066938437986
 20
76.57110957308586
 10
-18.768874282790364
 20
76.71653656713167
 10
-18.95564350116739
 20
76.94411551819539
 10
-19.07256181904701
 20
77.10176162048347
 10
-19.236125054605928
 20
77.34655130138117
 10
-19.337028358697548
 20
77.51489829376838
 10
-19.475810408067012
 20
77.77454124605711
 10
-19.559726944392875
 20
77.95196785497892
 10
-19.672391260571644
 20
78.22396357509318
 10
-19.738512867013487
 20
78.40876108531444
 10
-19.82397443104805
 20
78.69049010578128
 10
-19.871664320390092
 20
78.88087881625795
 10
-19.929100090700803
 20
79.16962793260166
 10
-19.957898983238735
 20
79.36377429597479
 10
-19.98675582195991
 20
79.65676269635863
 10
-19.996386368615518
 20
79.85279697701775
 10
-19.996386368615518
 20
80.14720302298225
 10
-19.98675582195991
 20
80.34323730364137
 10
-19.957898983238735
 20
80.63622570402521
 10
-19.929100090700803
 20
80.83037206739834
 10
-19.871664320390096
 20
81.11912118374204
 10
-19.82397443104805
 20
81.3095098942187
 10
-19.738512867013487
 20
81.59123891468556
 10
-19.672391260571644
 20
81.77603642490682
 10
-19.559726944392875
 20
82.04803214502108
 10
-19.475810408067012
 20
82.22545875394289
 10
-19.337028358697548
 20
82.48510170623162
 10
-19.236125054605928
 20
82.65344869861883
 10
-19.07256181904701
 20
82.89823837951653
 10
-18.95564350116739
 20
83.05588448180461
 10
-18.768874282790367
 20
83.28346343286833
 10
-18.63706693843799
 20
83.42889042691414
 10
-18.60059630252081
 20
83.46536106283132
 10
-18.659496781732297
 20
83.490053203702
 10
-18.939455122470584
 20
83.62486543119998
 10
-19.2039672715851
 20
83.78791245571351
 10
-19.45019557185906
 20
83.97744512671272
 10
-19.675498513193244
 20
84.19143015856791
 10
-19.877459070435577
 20
84.42757194341394
 10
-20.053910632960857
 20
84.68333717817872
 10
-20.202960247831047
 20
84.95598204157972
 10
-22.058113700901718
 20
88.81139211779185
 10
-22.16837414064217
 20
89.07114510265083
 10
-22.253740952158303
 20
89.3401088273545
 10
-22.313458838568792
 20
89.61590359118726
 10
-22.346999436068515
 20
89.8960892546932
 10
-22.354065988714034
 20
90.17818682921062
 10
-22.33459597402057
 20
90.45970041013122
 10
-22.288761656139904
 20
90.73813925982594
 10
-22.216968561725054
 20
91.01103984485508
 10
-21.432305378576103
 20
93.50959176817105
 10
-21.323560141237067
 20
93.80179045543716
 10
-21.18507613461652
 20
94.08112498497884
 10
-21.018349072145853
 20
94.34457837008495
 10
-20.82517970983147
 20
94.58930515028484
 10
-20.607654396969565
 20
94.812662124092
 10
-19.310838067497798
 20
96.01265379825445
 10
-19.09083198954881
 20
96.19748508556977
 10
-18.854152135061526
 20
96.36042042730081
 10
-18.602969786063092
 20
96.49996506767357
 10
-18.339589269303648
 20
96.6148388353347
 10
-18.066426816547324
 20
96.703987887541
 10
-17.936286907187522
 20
96.7330409789362
 10
-17.913790544433176
 20
96.81260102934804
 10
-17.839698105358455
 20
97.0
 10
-25.0
 20
97.0
 10
-25.29405142098868
 20
97.01444581998341
 10
-25.585270966048384
 20
97.05764415879031
 10
-25.870854031763386
 20
97.12917899280338
 10
-26.148050297095267
 20
97.22836140246613
 10
-26.414190210477994
 20
97.35423620695494
 10
-26.666710699058804
 20
97.50559116309236
 10
-26.903179852490936
 20
97.68096863991178
 10
-27.121320343559642
 20
97.87867965644035
 10
-27.31903136008821
 20
98.09682014750906
 10
-27.49440883690764
 20
98.33328930094119
 10
-27.645763793045063
 20
98.585809789522
 10
-27.771638597533858
 20
98.85194970290473
 10
-27.870821007196625
 20
99.12914596823661
 10
-27.94235584120969
 20
99.41472903395162
 10
-27.985554180016592
 20
99.70594857901132
 10
-28.0
 20
100.0
 10
-28.0
 20
105.0
 10
-27.985554180016592
 20
105.29405142098868
 10
-27.94235584120969
 20
105.58527096604838
 10
-27.870821007196625
 20
105.87085403176339
 10
-27.771638597533858
 20
106.14805029709527
 10
-27.645763793045063
 20
106.414190210478
 10
-27.49440883690764
 20
106.66671069905881
 10
-27.31903136008821
 20
106.90317985249094
 10
-27.121320343559642
 20
107.12132034355965
 10
-26.903179852490936
 20
107.31903136008822
 10
-26.666710699058804
 20
107.49440883690764
 10
-26.414190210477994
 20
107.64576379304506
 10
-26.148050297095267
 20
107.77163859753387
 10
-25.870854031763386
 20
107.87082100719662
 10
-25.585270966048384
 20
107.94235584120969
 10
-25.29405142098868
 20
107.98555418001659
 10
-25.0
 20
108.0
 10
-15.961159140515944
 20
108.0
 10
-15.954585557635028
 20
108.06067586150563
 10
-15.892810285681698
 20
108.35369563689349
 10
-15.427488609341744
 20
110.11913917241512
 10
-15.335472442789046
 20
110.40810861830096
 10
-15.214752223277715
 20
110.68631168112334
 10
-15.089788492044878
 20
110.90943387765888
 10
-15.152623700780607
 20
111.0205250425302
 10
-15.27378501328852
 20
111.29596420816985
 10
-15.36674414286086
 20
111.58215539923985
 10
-15.447806051836103
 20
111.88217029648949
 10
-15.491270002660272
 20
112.08034150883194
 10
-15.735952087992045
 20
112.17006782097032
 10
-16.00094571646629
 20
112.29794248241859
 10
-17.220345607328696
 20
112.96197588650438
 10
-17.462946464383823
 20
113.10937872027755
 10
-17.690529061201016
 20
113.2790517377971
 10
-17.901055704853665
 20
113.46947574773439
 10
-18.09264141530098
 20
113.6789457618191
 10
-18.263570802823036
 20
113.90558626069249
 10
-18.412313427004904
 20
114.14736798663499
 10
-18.537537499751103
 20
114.40212611281177
 10
-18.638121809638424
 20
114.66757962635555
 10
-18.713165760840784
 20
114.94135175173756
 10
-20.501003878991614
 20
122.92847872705784
 10
-20.552322325439423
 20
123.22837527627627
 10
-20.573000901600814
 20
123.531927445873
 10
-20.562826913332184
 20
123.83601298176981
 10
-20.521905007476956
 20
124.13750414382952
 10
-20.450656095496953
 20
124.43329987693026
 10
-20.34981302409293
 20
124.72035770756504
 10
-20.22041303734511
 20
124.99572503788693
 10
-20.06378710790599
 20
125.25656951531798
 10
-19.88154624698197
 20
125.50020816534833
 10
-19.675564933915396
 20
125.7241349878737
 10
-19.447961835805934
 20
125.92604673322279
 10
-18.40376809533746
 20
126.7617143764532
 10
-18.16077439847806
 20
126.9370174902528
 10
-17.90150591509806
 20
127.08720727668005
 10
-17.628548909345813
 20
127.21078555726363
 10
-17.34462619160236
 20
127.30651960956688
 10
-17.05256995780696
 20
127.37345446388417
 10
-16.755293537635957
 20
127.41092242928853
 10
-16.45576233335352
 20
127.41854975400585
 10
-16.156964239226067
 20
127.39626035367677
 10
-15.86187983657365
 20
127.34427657031603
 10
-13.68214212804233
 20
126.8469125088971
 10
-13.399855184513758
 20
126.7678093518134
 10
-13.238892332168167
 20
126.70519732194295
 10
-13.2374241469874
 20
126.70654346580167
 10
-13.008047245510934
 20
126.87956435492288
 10
-12.763170794197556
 20
127.02984913324524
 10
-12.505040854030913
 20
127.1560193555356
 10
-10.688993241453236
 20
127.93828392484421
 10
-10.412510739809356
 20
128.04157096469694
 10
-10.127217009905097
 20
128.11719023468888
 10
-9.8358734029786
 20
128.1644098177012
 10
-9.541299826884053
 20
128.182772676511
 10
-9.246347452270543
 20
128.17210107744387
 10
-8.953871116169022
 20
128.1324983106538
 10
-8.666701690092477
 20
128.0643476903803
 10
-8.387618680097756
 20
127.96830884485887
 10
-2.490062930700031
 20
125.60837060843976
 10
-2.2229162189890648
 20
125.48596940839273
 10
-1.969025981826018
 20
125.33801952895978
 10
-1.7308281386062134
 20
125.16594045749446
 10
-1.5106080499355024
 20
124.97138318598604
 10
-1.3104785910123482
 20
124.75621437081513
 10
-1.1323598799004149
 20
124.52249842334308
 10
-0.9779608551863799
 20
124.27247770316515
 10
-0.848762879773842
 20
124.00855100406058
 10
-0.7827628049059072
 20
123.83172811976036
 10
-0.673149020654316
 20
123.9211255227174
 10
-0.42407472895336085
 20
124.08594089721183
 10
-0.15984679234713717
 20
124.22517346514363
 10
0.11691593476583328
 20
124.3374432444124
 10
0.4034703613462085
 20
124.42163749043468
 10
4.113160439042204
 20
125.3136513634083
 10
4.393601523077141
 20
125.3671134252023
 10
4.677854640230613
 20
125.39367578681588
 10
4.96334555025658
 20
125.39309789538903
 10
5.247488803265075
 20
125.365384984396
 10
5.527711153956762
 20
125.31078802625015
 10
5.801474865330853
 20
125.22980145945886
 10
6.066300690824349
 20
125.12315871091192
 10
6.31979032675283
 20
124.99182555385399
 10
6.559648131720007
 20
124.83699136169255
 10
6.783701916301691
 20
124.66005833684818
 10
6.98992261472959
 20
124.46262881219225
 10
8.778990672397054
 20
122.57868733642461
 10
8.778990672753284
 20
122.57868733601181
 10
11.305065878802786
 20
123.18609498490379
 10
11.585506962911396
 20
123.23955704671522
 10
11.869760080140537
 20
123.26611940833197
 10
12.155250990242116
 20
123.26554151689388
 10
12.439394243324113
 20
123.2378286058753
 10
12.71961659408516
 20
123.18323164768994
 10
12.9933803055225
 20
123.10224508084583
 10
13.258206131071244
 20
122.99560233223362
 10
13.511695767045204
 20
122.86426917509905
 10
13.751553572046465
 20
122.70943498285095
 10
13.975607356649373
 20
122.53250195791142
 10
14.181828055084367
 20
122.33507243315353
 10
15.97089611228617
 20
120.45113095692022
 10
16.15741615790642
 20
120.23499288477923
 10
16.322546396378414
 20
120.00210364503384
 10
16.464791382692184
 20
119.754572318702
 10
16.582862924225086
 20
119.49464058780512
 10
16.675691746813662
 20
119.22466243434855
 10
16.742437178266034
 20
118.947082822296
 10
16.78249476161946
 20
118.66441555559734
 10
16.795501729196193
 20
118.37922051279074
 10
16.78134028788373
 20
118.09408046434619
 10
16.740138685887494
 20
117.81157768269627
 10
16.672270051295214
 20
117.53427055677703
 10
15.935262902731353
 20
115.04292143149605
 10
15.935262902690887
 20
115.0429214313799
 10
15.935262902869741
 20
115.04292143120867
 10
17.72433096007154
 20
113.15897995544103
 10
17.910851005739218
 20
112.94284188329655
 10
18.07598124425548
 20
112.70995264354133
 10
18.218226230609616
 20
112.4624213171939
 10
18.3362977721783
 20
112.20248958627634
 10
18.429126594797495
 20
111.93251143279474
 10
18.49587202627486
 20
111.65493182071363
 10
18.535929609647276
 20
111.37226455398371
 10
18.548936577236738
 20
111.08706951114402
 10
18.53477513593061
 20
110.8019294626655
 10
18.493573533934274
 20
110.51942668098161
 10
18.425704899335557
 20
110.24211955502933
 10
17.762426467893285
 20
108.0
 10
25.0
 20
108.0
 10
25.29405142098868
 20
107.98555418001659
 10
25.585270966048384
 20
107.94235584120969
 10
25.870854031763386
 20
107.87082100719662
 10
26.148050297095267
 20
107.77163859753387
 10
26.41419021047799
 20
107.64576379304506
 10
26.666710699058804
 20
107.49440883690764
 10
26.903179852490936
 20
107.31903136008822
 10
27.121320343559645
 20
107.12132034355965
 10
27.31903136008821
 20
106.90317985249094
 10
27.49440883690764
 20
106.66671069905881
 10
27.645763793045063
 20
106.414190210478
 10
27.771638597533858
 20
106.14805029709527
 10
27.870821007196625
 20
105.87085403176339
 10
27.94235584120969
 20
105.58527096604838
 10
27.985554180016592
 20
105.29405142098868
 10
28.0
 20
105.0
 10
28.0
 20
100.0
 10
27.985554180016592
 20
99.70594857901132
 10
27.94235584120969
 20
99.41472903395162
 10
27.870821007196625
 20
99.12914596823661
 10
27.771638597533858
 20
98.85194970290473
 10
27.645763793045063
 20
98.585809789522
 10
27.49440883690764
 20
98.33328930094119
 10
27.31903136008821
 20
98.09682014750906
 10
27.121320343559645
 20
97.87867965644035
 10
26.903179852490936
 20
97.68096863991178
 10
26.666710699058804
 20
97.50559116309236
 10
26.41419021047799
 20
97.35423620695494
 10
26.148050297095267
 20
97.22836140246613
 10
25.870854031763386
 20
97.12917899280338
 10
25.585270966048384
 20
97.05764415879031
 10
25.29405142098868
 20
97.01444581998341
 10
25.0
 20
97.0
 10
19.030772170924934
 20
97.0
 10
19.050307388492307
 20
96.97072108362404
 10
19.19993364324815
 20
96.72101814295549
 10
19.324654467072925
 20
96.45798907460895
 10
19.42329555001485
 20
96.1841104309603
 10
19.494928136138867
 20
95.90196091865172
 10
19.53887776823585
 20
95.61419711875791
 10
19.55473063818004
 20
95.32352847372492
 10
19.54233748314293
 20
95.03269177659232
 10
19.501814990978616
 20
94.74442540269557
 10
19.43354470154837
 20
94.46144352647045
 10
19.33816941432889
 20
94.186410566121
 10
18.6063082220615
 20
92.36642707211863
 10
18.60630822190607
 20
92.36642707177967
 10
20.209189584559518
 20
90.32173361389619
 10
20.37443303965729
 20
90.08892469177484
 10
20.51679836461514
 20
89.84146255745608
 10
20.634996277004625
 20
89.58158826634839
 10
20.727956358227907
 20
89.31165528027424
 10
20.794836747394342
 20
89.03410815415526
 10
20.835031765343032
 20
88.75146039774448
 10
20.84817739976716
 20
88.4662717128926
 10
20.834154601765725
 20
88.18112481249184
 10
20.793090363968908
 20
87.8986020310279
 10
20.72535657047309
 20
87.62126193855907
 10
20.631566629000908
 20
87.35161616990955
 10
19.6622508328417
 20
84.94113346107916
 10
19.66225083274866
 20
84.94113346087626
 10
21.265132195192372
 20
82.896440003726
 10
21.43037565033216
 20
82.66363108159754
 10
21.572740975328664
 20
82.41616894726626
 10
21.69093888775282
 20
82.15629465614126
 10
21.783898969006266
 20
81.88636167004563
 10
21.85077935819789
 20
81.60881454390174
 10
21.890974376166454
 20
81.32616678746335
 10
21.904120010604863
 20
81.04097810258197
 10
21.890097212611984
 20
80.75583120215063
 10
21.84903297481793
 20
80.47330842065585
 10
21.78129918131915
 20
80.19596832815675
 10
21.687509239838427
 20
79.9263225594783
 10
20.71819344367922
 20
77.51583985064791
 10
20.71819344358618
 20
77.515839850445
 10
22.32107480602989
 20
75.47114639329475
 10
22.48631826116968
 20
75.23833747116629
 10
22.628683586166183
 20
74.990875336835
 10
22.74688149859034
 20
74.73100104571
 10
22.839841579843785
 20
74.46106805961438
 10
22.90672196903541
 20
74.18352093347049
 10
22.946916987003974
 20
73.9008731770321
 10
22.960062621442383
 20
73.61568449215072
 10
22.946039823449503
 20
73.33053759171938
 10
22.90497558565545
 20
73.0480148102246
 10
22.837241792156668
 20
72.7706747177255
 10
22.743451850675946
 20
72.50102894904704
 10
21.774136054516738
 20
70.09054624021665
 10
21.655139341264103
 20
69.83103674914983
 10
21.512013508916993
 20
69.58401369388244
 10
21.34605472717727
 20
69.35171415345638
 10
21.15876594447235
 20
69.13624186848313
 10
20.951843277021503
 20
68.93954818934289
 10
20.727160648544725
 20
68.76341440445351
 10
20.48675281971932
 20
68.6094356086466
 10
20.232796961072125
 20
68.47900625774179
 10
19.967592936186037
 20
68.37330754013882
 10
19.693542473779303
 20
68.29329667979259
 10
19.413127417278275
 20
68.23969826744467
 10
16.8409302589677
 20
67.8739090175122
 10
16.84093025885626
 20
67.87390901719182
 10
15.871614462332047
 20
65.46342630861174
 10
17.474495824972777
 20
63.418732851804165
 10
17.63973928019061
 20
63.18592392962842
 10
17.782104605253394
 20
62.93846179523868
 10
17.90030251773073
 20
62.678587504045886
 10
17.99326259902311
 20
62.40865451787511
 10
18.060142988238603
 20
62.13110739165085
 10
18.100338006215395
 20
61.84845963512906
 10
18.113483640646095
 20
61.56327095016352
 10
18.09946084262957
 20
61.27812404964951
 10
18.05839660479623
 20
60.99560126807584
 10
17.990662811243084
 20
60.71826117550381
 10
17.89687286969378
 20
60.44861540676057
 10
16.927557073169567
 20
58.03813269818048
 10
19.228989773402816
 20
55.102341881091505
 10
19.399860232109
 20
54.86071367177206
 10
19.546092439368564
 20
54.6034258042824
 10
19.666263378616975
 20
54.33298200132597
 10
19.7592036410056
 20
54.05201400879922
 10
19.824008805166727
 20
53.76325598571513
 10
19.860048238329405
 20
53.469517897523126
 10
19.866971233140376
 20
53.1736581717404
 10
19.84471042047162
 20
52.87855588198868
 10
19.79348242500358
 20
52.58708273111933
 10
19.48510671997004
 20
51.229258610914435
 10
19.402105385801192
 20
50.934402353610544
 10
19.289469589223664
 20
50.649546931906116
 10
19.148373613907992
 20
50.37766210390944
 10
18.98028845490925
 20
50.121582402899314
 10
18.786966482818947
 20
49.88397758591914
 10
18.570423174438226
 20
49.667324800244465
 10
18.332916100439306
 20
49.473882757902224
 10
18.07692138907899
 20
49.30566818748511
 10
16.006200744230437
 20
48.09162818199474
 10
15.997799760241733
 20
47.80868106609132
 10
15.778904916763977
 20
44.991573850101936
 10
15.769421170165518
 20
44.91604450273308
 10
15.895792520104923
 20
44.82478061153481
 10
17.87709466224817
 20
43.233250880827406
 10
18.090910851540876
 20
43.04407363357102
 10
18.285776423966134
 20
42.83542847458923
 10
18.459926646724398
 20
42.60920492675124
 10
18.61178438843057
 20
42.367451705537825
 10
18.73997440186003
 20
42.11235816555668
 10
18.843335778400466
 20
41.84623447340803
 10
18.920932461420037
 20
41.571490686458226
 10
18.972061723341177
 20
41.29061492698696
 10
18.996260529650385
 20
41.00615084936666
 10
18.99330973221044
 20
40.72067460433456
 10
18.963236053899912
 20
40.43677150897272
 10
18.16690105102682
 20
35.27729258706383
 10
18.105496513601906
 20
34.980084743582715
 10
18.01437863810729
 20
34.69060149327553
 10
17.894479894704986
 20
34.41180531185689
 10
17.747027287427763
 20
34.14654930711767
 10
17.57352979742616
 20
33.89754802116474
 10
17.37576294055519
 20
33.667349650696046
 10
17.15575059733301
 20
33.45830996959948
 10
16.915744301218023
 20
33.272568220743096
 10
16.658200197161058
 20
33.11202522367203
 10
16.561720592371696
 20
33.06467846524516
 10
16.559052209264173
 20
32.86951363023775
 10
16.52731735728037
 20
32.582276991514426
 10
15.76275861126658
 20
27.79040811252029
 10
15.711899702004665
 20
27.549590496149076
 10
15.751294490478607
 20
27.514465712676124
 10
17.79018838477102
 20
25.50639947803162
 10
17.979606195756134
 20
25.30164530187419
 10
18.149188312105792
 20
25.080183599571807
 10
18.29746872695324
 20
24.843928867672172
 10
18.423165582806348
 20
24.59492348580073
 10
18.52519225297487
 20
24.335320060656485
 10
18.60266673526258
 20
24.067362817114628
 10
18.65491927671747
 20
23.793368197306492
 10
18.681498163525454
 20
23.51570483539436
 10
18.68182798758766
 20
23.379504219642023
 10
18.76887428279035
 20
23.283463432868352
 10
18.955643501167437
 20
23.055884481804558
 10
19.072561819047053
 20
22.898238379516467
 10
19.236125054605893
 20
22.653448698618888
 10
19.337028358697516
 20
22.48510170623168
 10
19.475810408067048
 20
22.22545875394282
 10
19.559726944392914
 20
22.048032145021004
 10
19.672391260571622
 20
21.776036424906874
 10
19.73851286701347
 20
21.59123891468562
 10
19.823974431048057
 20
21.309509894218696
 10
19.871664320390096
 20
21.119121183742028
 10
19.929100090700807
 20
20.830372067398322
 10
19.957898983238735
 20
20.636225704025186
 10
19.98675582195991
 20
20.343237303641395
 10
19.996386368615518
 20
20.147203022982275
 10
19.996386368615518
 20
19.852796977017725
 10
19.98675582195991
 20
19.656762696358605
 10
19.957898983238735
 20
19.363774295974814
 10
19.929100090700807
 20
19.169627932601678
 10
19.871664320390096
 20
18.880878816257972
 10
19.823974431048057
 20
18.690490105781304
 10
19.73851286701347
 20
18.40876108531438
 10
19.672391260571622
 20
18.223963575093126
 10
19.559726944392914
 20
17.951967854978996
 10
19.475810408067048
 20
17.77454124605718
 10
19.337028358697516
 20
17.51489829376832
 10
19.236125054605893
 20
17.346551301381112
 10
19.07256181904703
 20
17.101761620483508
 10
18.955643501167415
 20
16.94411551819542
 10
18.76887428279037
 20
16.71653656713168
 10
18.637066938437997
 20
16.571109573085874
 10
18.42889042691413
 20
16.362933061562003
 10
18.283463432868324
 20
16.23112571720963
 10
18.055884481804604
 20
16.044356498832606
 10
17.89823837951652
 20
15.927438180952988
 10
17.653448698618867
 20
15.763874945394093
 10
17.48510170623166
 20
15.662971641302473
 10
17.225458753942824
 20
15.52418959193295
 10
17.048032145021004
 20
15.440273055607088
 10
16.776036424906874
 20
15.327608739428378
 10
16.59123891468562
 20
15.261487132986531
 10
16.309509894218696
 20
15.176025568951944
 10
16.119121183742028
 20
15.128335679609902
 10
16.08962960869127
 20
15.1224694405988
 10
17.653505228420798
 20
14.251149100497162
 10
17.89600616073679
 20
14.100488251176422
 10
18.123087805837102
 20
13.927458426722056
 10
18.33269367717905
 20
13.733626612018801
 10
18.522925551533305
 20
13.520748177996376
 10
18.69206065958742
 20
13.29075098471851
 10
18.83856728761149
 20
13.04571792238367
 10
18.961118648894896
 20
12.78786804834888
 10
19.058604899332202
 20
12.51953649100266
 10
19.13014318834324
 20
12.243153302480733
 10
19.1750856541047
 20
11.961221451737591
 10
19.193025290687075
 20
11.676294157272029
 10
19.23272044137164
 20
9.078521208362478
 10
19.223494784654797
 20
8.793178815960177
 10
19.18718738362392
 20
8.510005430427375
 10
19.12412704372491
 20
8.23156551379266
 10
19.034884849160747
 20
7.960380661057301
 10
18.920268991064496
 20
7.698906764240457
 10
18.781317448395264
 20
7.44951177144075
 10
18.619288587840003
 20
7.214454242331616
 10
18.435649767849974
 20
6.995862894295161
 10
18.23206405001534
 20
6.7957173244279225
 10
18.010375138121915
 20
6.6158300820030185
 10
17.772590681284186
 20
6.457830253743265
 10
15.54270088935968
 20
5.124566769447807
 10
15.542700889238862
 20
5.124566769383167
 10
15.5823960403834
 20
2.5267938208459193
 10
15.573170383709098
 20
2.2414514283346083
 10
15.536862982700036
 20
1.9582780426905504
 10
15.473802642802173
 20
1.6798381259452722
 10
15.38456044821891
 20
1.4086532731029464
 10
15.269944590084087
 20
1.1471793761855498
 10
15.130993047357943
 20
0.8977843832944004
 10
14.968964186728908
 20
0.6627268541054647
 10
14.785325366649996
 20
0.44413550600317553
 10
14.581739648713437
 20
0.2439899360861575
 10
14.360050736707368
 20
0.06410269362934695
 10
14.122266279748793
 20
-0.09389713464292448
 10
11.892376488289948
 20
-1.4271606180070595
 10
11.640649899337046
 20
-1.5618421611382436
 10
11.377260853275658
 20
-1.6719857222797456
 10
11.104594642092593
 20
-1.7565938242861856
 10
10.82512057321857
 20
-1.8149002430842667
 10
10.54136960709775
 20
-1.8463769467166298
 10
10.255911436418032
 20
-1.8507388772810258
 10
9.971331214576164
 20
-1.8279465324588218
 10
9.690206144128275
 20
-1.778206323254111
 10
9.415082137244429
 20
-1.7019687047037015
 10
9.148450759533802
 20
-1.5999240964865473
 10
8.89272666604069
 20
-1.4729966303762265
 10
6.623141723053955
 20
-0.20848716534549944
 10
6.6231417221071744
 20
-0.20848716597460282
 10
4.393251930648329
 20
-1.5417506488730766
 10
4.141525341674036
 20
-1.6764321919658562
 10
3.878136295594974
 20
-1.7865757530670296
 10
3.605470084398128
 20
-1.8711838550315765
 10
3.325996015514356
 20
-1.9294902737865742
 10
3.042245049387912
 20
-1.9609669773750515
 10
2.756786878706773
 20
-1.965328907895156
 10
2.472206656867705
 20
-1.9425365630286535
 10
2.191081586426826
 20
-1.8927963537800419
 10
1.9159575795541492
 20
-1.8165587351865282
 10
1.6493262018587664
 20
-1.7145141269274604
 10
1.3936021083848438
 20
-1.5875866607767994
 10
-0.87598283455117
 20
-0.3230771953086723
 10
-0.8759828347422509
 20
-0.32307719543563884
 10
-3.105872626201096
 20
-1.6563406787997739
 10
-3.357599215153998
 20
-1.791022221930957
 10
-3.620988261215386
 20
-1.901165783072459
 10
-3.893654472398449
 20
-1.9857738850788995
 10
-4.173128541272474
 20
-2.0440803038769806
 10
-4.456879507393296
 20
-2.075557007509344
 10
-4.7423376780730155
 20
-2.07991893807374
 10
-5.026917899914881
 20
-2.057126593251536
 10
-5.308042970362772
 20
-2.0073863840468253
 10
-5.583166977246616
 20
-1.931148765496416
 10
-5.849798354957244
 20
-1.8291041572792617
 10
-6.105522448450355
 20
-1.7021766911689409
 10
-8.375107391525088
 20
-0.4376672260891863
 10
-8.37510739179784
 20
-0.4376672259197301
 10
-8.37510739227161
 20
-0.437667226234534
 10
-11.711551087045672
 20
-2.4325454298426297
 10
-11.965638841591458
 20
-2.568347931386749
 10
-12.231581553642
 20
-2.6791512722342303
 10
-12.506926554525563
 20
-2.763933563570279
 10
-12.789134462537051
 20
-2.8219128968843212
 10
-13.075602602500448
 20
-2.8525545551565483
 10
-13.363689009058177
 20
-2.8555759443097815
 10
-13.650736792315913
 20
-2.8309491994461116
 10
-13.93409864112962
 20
-2.7789014418321747
 10
-14.211161238052123
 20
-2.699912684263019
 10
-14.47936936077129
 20
-2.5947114041224193
 10
-14.736249447763191
 20
-2.4642678249673144
 10
-14.979432410824957
 20
-2.309784968597232
 10
-16.38112511791653
 20
-1.3218004542676494
 10
-16.61410037571501
 20
-1.1397630325271026
 10
-16.828025587340104
 20
-0.9356770273935426
 10
-17.02082294252397
 20
-0.7115246830062434
 10
-17.190619841393183
 20
-0.46948314360729304
 10
-17.33576708263465
 20
-0.21190330740071395
 10
-17.454854881838628
 20
0.05871300722382822
 10
-17.546726564436096
 20
0.33973736132312227
 10
-17.610489800233836
 20
0.6284402248711274
 10
-17.645525270428585
 20
0.9220174881059499
 10
-17.651492682919404
 20
1.2176176972540165
 10
-17.5530107553867
 20
4.59952545090039
 10
-17.547933575643768
 20
4.6657463445953775
 10
-17.66181325378582
 20
4.73834449138523
 10
-19.73798741145745
 20
6.215251994710722
 10
-19.962485149808074
 20
6.391621377307525
 10
-20.1692013693525
 20
6.588532012417424
 10
-20.356264015996707
 20
6.804200646837423
 10
-20.5219790214462
 20
7.036674152018116
 10
-20.664845644950802
 20
7.283847211898268
 10
-20.783570064245282
 20
7.543481388973072
 10
-20.877077092604146
 20
7.8132253959308136
 10
-20.944519915899086
 20
8.09063638927486
 10
-20.98528776147888
 20
8.373202092092637
 10
-20.9990114294211
 20
8.658363545624377
 10
-20.98556663606376
 20
8.943538283589893
 10
-20.73986843738765
 20
11.52997065115314
 10
-20.699376940839777
 20
11.81257608707834
 10
-20.632205438364426
 20
12.090052902258202
 10
-20.538962245489948
 20
12.359888223685418
 10
-20.420491787010306
 20
12.61963838090343
 10
-20.277866949743405
 20
12.866951036264506
 10
-20.11237936630189
 20
13.099586488063762
 10
-19.925527717868214
 20
13.315437953624627
 10
-19.71900416190575
 20
13.512550648649015
 10
-19.494679007718787
 20
13.689139490046628
 10
-19.25458377864181
 20
13.843605261923868
 10
-19.000892814249617
 20
13.974549098330607
 10
-16.638127578423244
 20
15.054984400439134
 10
-16.638127578377585
 20
15.054984400457437
 10
-16.617614352000615
 20
15.27092441536001
 10
-16.776036424906874
 20
15.327608739428378
 10
-17.04803214502101
 20
15.44027305560709
 10
-17.225458753942824
 20
15.524189591932952
  0
LWPOLYLINE
  5
30
330
17
100
AcDbEntity
  8
default
100
AcDbPolyline
 90
14
 70
0
 10
-9.475902458652854
 20
9.186502741184086
 10
-9.263537474335653
 20
9.05179958844476
 10
-9.263537472872578
 20
9.051799587613075
 10
-8.96986783815509
 20
8.865524878494243
 10
-8.25193029269576
 20
8.410136947408319
 10
-7.798256382270467
 20
8.540782582286337
 10
-7.798256372387452
 20
8.540782585678198
 10
-6.009045570899618
 20
9.056026190806175
 10
-5.93888806098111
 20
9.335103196688198
 10
-5.938888058459545
 20
9.335103209391452
 10
-5.5
 20
11.080940047351262
 10
-5.5
 20
15.236283121003034
 10
-9.838067785371095
 20
10.8964211223647
 10
-9.475902458652854
 20
9.186502741184086
  0
LWPOLYLINE
  5
31
330
17
100
AcDbEntity
  8
default
100
AcDbPolyline
 90
15
 70
0
 10
-5.370821007196627
 20
20.870854031763386
 10
-5.27163859753386
 20
21.14805029709527
 10
-5.145763793045065
 20
21.414190210477994
 10
-5.060151131558467
 20
21.557026306890126
 10
-4.611421771752807
 20
23.066939100102896
 10
-6.695670237672504
 20
24.54959034422385
 10
-6.69567023820861
 20
24.549590343947138
 10
-9.058435474034983
 20
23.469155042304273
 10
-9.058435474116237
 20
23.469155042271698
 10
-9.30413367273286
 20
20.88272267440334
 10
-5.966211353296865
 20
18.50825784472284
 10
-5.495468369054876
 20
20.09224346699184
 10
-5.485554180016591
 20
20.294051420988684
 10
-5.442355841209691
 20
20.585270966048387
 10
-5.370821007196627
 20
20.870854031763386
  0
LWPOLYLINE
  5
32
330
17
100
AcDbEntity
  8
default
100
AcDbPolyline
 90
14
 70
0
 10
5.4423558412096895
 20
9.414729033951616
 10
5.370821007196625
 20
9.129145968236614
 10
5.271638597533858
 20
8.851949702904731
 10
5.145763793045063
 20
8.585809789522006
 10
5.03603858608432
 20
8.402744341396218
 10
6.504056269318291
 20
7.584831682043001
 10
8.733946061048119
 20
8.918095165756398
 10
8.733946061040768
 20
8.918095165873122
 10
8.694250910361962
 20
11.515868114405842
 10
8.694250910111872
 20
11.515868114529972
 10
5.5
 20
13.29555938554103
 10
5.5
 20
10.0
 10
5.485554180016592
 20
9.705948579011318
 10
5.4423558412096895
 20
9.414729033951616
  0
LWPOLYLINE
  5
33
330
17
100
AcDbEntity
  8
default
100
AcDbPolyline
 90
24
 70
0
 10
-10.662971641302484
 20
17.514898293768322
 10
-10.763874945394104
 20
17.346551301381115
 10
-10.927438180952972
 20
17.1017616204835
 10
-11.044356498832588
 20
16.944115518195414
 10
-11.231125717209633
 20
16.716536567131673
 10
-11.362933061562012
 20
16.571109573085867
 10
-11.57110957308586
 20
16.362933061562018
 10
-11.716536567131662
 20
16.23112571720964
 10
-11.944115518195414
 20
16.044356498832588
 10
-12.101761620483499
 20
15.927438180952972
 10
-12.346551301381123
 20
15.763874945394099
 10
-12.514898293768333
 20
15.662971641302478
 10
-12.774541246057174
 20
15.524189591932952
 10
-12.95196785497899
 20
15.44027305560709
 10
-13.223963575093126
 20
15.327608739428378
 10
-13.408761085314381
 20
15.261487132986531
 10
-13.610828012629277
 20
15.20019080071883
 10
-13.651572730392218
 20
14.771276557818055
 10
-11.63821112504229
 20
13.339051399379969
 10
-8.412069448269904
 20
16.566527399234474
 10
-10.421926756120405
 20
17.996259740019106
 10
-10.440273055607094
 20
17.95196785497898
 10
-10.524189591932958
 20
17.774541246057165
 10
-10.662971641302484
 20
17.514898293768322
  0
LWPOLYLINE
  5
34
330
17
100
AcDbEntity
  8
default
100
AcDbPolyline
 90
9
 70
0
 10
-14.169627932601678
 20
24.929100090700807
 10
-13.880878816257967
 20
24.871664320390096
 10
-13.6904901057813
 20
24.823974431048054
 10
-13.446793764464555
 20
24.750049954102376
 10
-14.16205735784024
 20
25.25885995151475
 10
-14.7473770825143
 20
24.991207421295535
 10
-14.656762696358607
 20
24.98675582195991
 10
-14.363774295974816
 20
24.95789898323874
 10
-14.169627932601678
 20
24.929100090700807
  0
LWPOLYLINE
  5
35
330
17
100
AcDbEntity
  8
default
100
AcDbPolyline
 90
7
 70
0
 10
-8.075642676961188
 20
33.81488451520919
 10
-8.07564267680264
 20
33.8148845151074
 10
-5.9585756407722155
 20
32.30888744885546
 10
-5.5
 20
32.518582979998634
 10
-5.5
 20
37.4667440476572
 10
-7.829944477882236
 20
36.401316883042455
 10
-8.075642676961188
 20
33.81488451520919
  0
LWPOLYLINE
  5
36
330
17
100
AcDbEntity
  8
default
100
AcDbPolyline
 90
14
 70
0
 10
-3.085270966048384
 20
40.44235584120969
 10
-2.7940514209886818
 20
40.48555418001659
 10
-2.5
 20
40.5
 10
0.8465506361374882
 20
40.5
 10
0.9890431685422811
 20
42.0
 10
-2.5
 20
42.0
 10
-2.7940514209886818
 20
42.01444581998341
 10
-3.085270966048384
 20
42.05764415879031
 10
-3.370854031763386
 20
42.129178992803375
 10
-3.5140759131439676
 20
42.180424601378775
 10
-3.6976285995772677
 20
40.24818980681139
 10
-3.648050297095269
 20
40.27163859753386
 10
-3.370854031763386
 20
40.370821007196625
 10
-3.085270966048384
 20
40.44235584120969
  0
LWPOLYLINE
  5
37
330
17
100
AcDbEntity
  8
default
100
AcDbPolyline
 90
28
 70
0
 10
4.403179852490936
 20
39.81903136008821
 10
4.621320343559642
 20
39.621320343559645
 10
4.819031360088211
 20
39.403179852490936
 10
4.994408836907635
 20
39.166710699058804
 10
5.145763793045067
 20
38.91419021047799
 10
5.271638597533858
 20
38.64805029709527
 10
5.370821007196625
 20
38.370854031763386
 10
5.4423558412096895
 20
38.085270966048384
 10
5.455703926381176
 20
37.995285485161396
 10
7.279937912320083
 20
36.69759817348049
 10
7.279937920717554
 20
36.69759816686053
 10
7.586095045786351
 20
36.47981019690633
 10
7.824353327908327
 20
36.58755929911166
 10
8.18189967098466
 20
36.74925482196311
 10
8.351150973921968
 20
40.43012010291143
 10
8.393486225730072
 20
41.3508241445196
 10
8.39348622579385
 20
41.3508241451907
 10
8.396917532198131
 20
41.42544795246795
 10
8.339389832107155
 20
41.46637086424048
 10
8.3393898162848
 20
41.46637087437527
 10
6.346646935571606
 20
42.88392869412171
 10
6.346646935410039
 20
42.88392869424864
 10
3.9838817000777667
 20
41.803493392618776
 10
3.9838816997942885
 20
41.803493392505125
 10
3.8301801537051077
 20
40.185497590719265
 10
3.9141902104779938
 20
40.14576379304506
 10
4.166710699058807
 20
39.99440883690764
 10
4.403179852490936
 20
39.81903136008821
  0
LWPOLYLINE
  5
38
330
17
100
AcDbEntity
  8
default
100
AcDbPolyline
 90
4
 70
0
 10
5.5
 20
34.28215866516679
 10
5.5
 20
34.16303251152097
 10
5.540962288865227
 20
34.253019726346956
 10
5.5
 20
34.28215866516679
  0
LWPOLYLINE
  5
39
330
17
100
AcDbEntity
  8
default
100
AcDbPolyline
 90
25
 70
0
 10
5.4423558412096895
 20
26.914729033951616
 10
5.370821007196625
 20
26.629145968236614
 10
5.271638597533858
 20
26.35194970290473
 10
5.145763793045063
 20
26.085809789522006
 10
4.994408836907635
 20
25.833289300941193
 10
4.819031360088211
 20
25.596820147509064
 10
4.621320343559642
 20
25.378679656440358
 10
4.403179852490936
 20
25.18096863991179
 10
4.166710699058807
 20
25.005591163092365
 10
3.9141902104779938
 20
24.854236206954937
 10
3.6480502970952706
 20
24.728361402466142
 10
3.370854031763386
 20
24.629178992803375
 10
3.085270966048384
 20
24.55764415879031
 10
2.7940514209886835
 20
24.514445819983408
 10
2.6250053990472217
 20
24.506141121459365
 10
5.484715107828379
 20
21.36307158600539
 10
6.542544323951006
 20
21.992315435316414
 10
6.808347606733605
 20
22.825055317170186
 10
6.808347606950523
 20
22.82505531798205
 10
7.699159501970829
 20
25.615895914408327
 10
7.699159501986724
 20
25.615895914451
 10
5.5
 20
28.032963356958195
 10
5.5
 20
27.5
 10
5.485554180016592
 20
27.205948579011316
 10
5.4423558412096895
 20
26.914729033951616
  0
LWPOLYLINE
  5
3A
330
17
100
AcDbEntity
  8
default
100
AcDbPolyline
 90
5
 70
0
 10
-5.5
 20
45.788736371128174
 10
-5.5
 20
50.30376688057317
 10
-6.02102519525215
 20
50.022646728437394
 10
-6.896569143049419
 20
46.78219996765256
 10
-5.5
 20
45.788736371128174
  0
LWPOLYLINE
  5
3B
330
17
100
AcDbEntity
  8
default
100
AcDbPolyline
 90
33
 70
0
 10
4.819031360088211
 20
56.903179852490936
 10
4.994408836907635
 20
56.666710699058804
 10
5.145763793045067
 20
56.41419021047799
 10
5.271638597533858
 20
56.14805029709527
 10
5.370821007196625
 20
55.870854031763386
 10
5.4423558412096895
 20
55.585270966048384
 10
5.485554180016592
 20
55.29405142098868
 10
5.5
 20
55.0
 10
5.5
 20
53.61299290051792
 10
5.694541005842655
 20
53.1129433527704
 10
6.594703761573054
 20
52.76486590581764
 10
6.594703766035398
 20
52.76486590383109
 10
7.121827738825232
 20
52.561036134604365
 10
7.465311696776528
 20
52.689753314639034
 10
7.465311701507623
 20
52.68975331669161
 10
7.507952403439258
 20
52.70573249359879
 10
7.809117451438272
 20
53.45466606459125
 10
7.809117452567744
 20
53.454666067847015
 10
9.210965596465694
 20
56.94076494732961
 10
9.210965596506739
 20
56.94076494741912
 10
7.608084233946769
 20
58.98545840518335
 10
7.608084233932431
 20
58.98545840518061
 10
4.649562394701178
 20
58.56473035873357
 10
4.64956238711105
 20
58.564730358019915
 10
4.376249609089889
 20
58.52586285684005
 10
3.9809223943726018
 20
57.72894844768107
 10
3.9809223898206056
 20
57.72894843949929
 10
3.934848078060895
 20
57.63607023237273
 10
3.93621197849561
 20
57.632564453256414
 10
4.166710699058807
 20
57.49440883690764
 10
4.403179852490936
 20
57.31903136008821
 10
4.621320343559642
 20
57.121320343559645
 10
4.819031360088211
 20
56.903179852490936
  0
LWPOLYLINE
  5
3C
330
17
100
AcDbEntity
  8
default
100
AcDbPolyline
 90
4
 70
0
 10
5.5
 20
49.83277603493208
 10
5.512728933221023
 20
49.966771827293215
 10
5.5
 20
49.97169388672302
 10
5.5
 20
49.83277603493208
  0
LWPOLYLINE
  5
3D
330
17
100
AcDbEntity
  8
default
100
AcDbPolyline
 90
10
 70
0
 10
1.0298432470299304
 20
115.9548839116469
 10
-1.7226668056100607
 20
120.36949409916997
 10
-4.142378277145326
 20
117.32565201353282
 10
-4.136436949965329
 20
117.31262332874795
 10
-4.136436948621483
 20
117.31262332615688
 10
-2.8213756602013724
 20
114.42883684528306
 10
-2.8213756601359705
 20
114.42883684511943
 10
-2.821375659458198
 20
114.42883684508678
 10
-0.23520020795259633
 20
114.18044898732703
 10
1.0298432470299304
 20
115.9548839116469
  0
LWPOLYLINE
  5
3E
330
17
100
AcDbEntity
  8
default
100
AcDbPolyline
 90
23
 70
0
 10
-5.014405102003366
 20
93.17489315150306
 10
-6.114089864771813
 20
90.82102539390326
 10
-5.5
 20
89.94267262785465
 10
-5.5
 20
90.0
 10
-5.485554180016591
 20
90.29405142098868
 10
-5.442355841209691
 20
90.58527096604838
 10
-5.370821007196627
 20
90.87085403176339
 10
-5.27163859753386
 20
91.14805029709527
 10
-5.145763793045065
 20
91.414190210478
 10
-4.9944088369076365
 20
91.66671069905881
 10
-4.819031360088211
 20
91.90317985249094
 10
-4.621320343559642
 20
92.12132034355965
 10
-4.403179852490936
 20
92.31903136008822
 10
-4.166710699058806
 20
92.49440883690764
 10
-3.9141902104779938
 20
92.64576379304506
 10
-3.648050297095269
 20
92.77163859753387
 10
-3.370854031763386
 20
92.87082100719662
 10
-3.085270966048384
 20
92.94235584120969
 10
-2.7940514209886818
 20
92.98555418001659
 10
-2.5
 20
93.0
 10
-2.3989243149884203
 20
93.0
 10
-2.4909797787053076
 20
93.39383874083401
 10
-5.014405102003366
 20
93.17489315150306
  0
LWPOLYLINE
  5
3F
330
17
100
AcDbEntity
  8
default
100
AcDbPolyline
 90
22
 70
0
 10
-2.5
 20
77.0
 10
-2.7940514209886818
 20
77.01444581998341
 10
-3.085270966048384
 20
77.05764415879031
 10
-3.370854031763386
 20
77.12917899280338
 10
-3.648050297095269
 20
77.22836140246613
 10
-3.9141902104779938
 20
77.35423620695494
 10
-4.080776753680386
 20
77.45408433841226
 10
-4.898615146811061
 20
75.70350681931299
 10
-5.274277473273621
 20
74.89940416388114
 10
-4.785246471776555
 20
74.440455732492
 10
-4.621320343559642
 20
74.62132034355965
 10
-4.403179852490936
 20
74.81903136008822
 10
-4.166710699058806
 20
74.99440883690764
 10
-3.9141902104779938
 20
75.14576379304506
 10
-3.648050297095269
 20
75.27163859753387
 10
-3.370854031763386
 20
75.37082100719662
 10
-3.085270966048384
 20
75.44235584120969
 10
-2.7940514209886818
 20
75.48555418001659
 10
-2.5
 20
75.5
 10
-0.09127982074374508
 20
75.5
 10
-0.814720049655417
 20
77.0
 10
-2.5
 20
77.0
  0
LWPOLYLINE
  5
40
330
17
100
AcDbEntity
  8
default
100
AcDbPolyline
 90
12
 70
0
 10
8.155022985666822
 20
64.36605855785344
 10
6.552141623096343
 20
66.41075201563108
 10
6.552141622707978
 20
66.41075201555684
 10
5.5
 20
66.26112814487118
 10
5.5
 20
62.5
 10
5.485554180016592
 20
62.20594857901132
 10
5.4423558412096895
 20
61.914729033951616
 10
5.388570800500002
 20
61.70000711521936
 10
7.18570718948008
 20
61.95557584941758
 10
7.18570718949605
 20
61.955575849463486
 10
8.155022985655258
 20
64.36605855782821
 10
8.155022985666822
 20
64.36605855785344
  0
LWPOLYLINE
  5
41
330
17
100
AcDbEntity
  8
default
100
AcDbPolyline
 90
30
 70
0
 10
13.439187287261536
 20
25.33192336215182
 10
13.43918728365944
 20
25.331923361176035
 10
10.557102107474666
 20
24.70366564510145
 10
10.557102107460146
 20
24.703665645099
 10
9.666290212656051
 20
21.912825049500224
 10
10.295051426956299
 20
21.685044832171947
 10
10.327608739428378
 20
21.776036424906874
 10
10.440273055607086
 20
22.048032145021004
 10
10.524189591932952
 20
22.22545875394282
 10
10.662971641302487
 20
22.48510170623168
 10
10.763874945394107
 20
22.653448698618888
 10
10.927438180952969
 20
22.898238379516492
 10
11.044356498832585
 20
23.05588448180458
 10
11.231125717209629
 20
23.28346343286832
 10
11.362933061562003
 20
23.428890426914126
 10
11.571109573085845
 20
23.63706693843797
 10
11.716536567131648
 20
23.76887428279035
 10
11.944115518195442
 20
23.955643501167433
 10
12.101761620483533
 20
24.07256181904705
 10
12.346551301381112
 20
24.236125054605893
 10
12.514898293768319
 20
24.337028358697513
 10
12.77454124605718
 20
24.475810408067048
 10
12.951967854978996
 20
24.559726944392914
 10
13.223963575093126
 20
24.672391260571622
 10
13.408761085314381
 20
24.73851286701347
 10
13.690490105781304
 20
24.823974431048054
 10
13.880878816257972
 20
24.871664320390096
 10
14.112547652363926
 20
24.91774611702802
 10
13.646194348111749
 20
25.377048254478723
 10
13.439187287261536
 20
25.33192336215182
  0
LWPOLYLINE
  5
42
330
17
100
AcDbEntity
  8
default
100
AcDbPolyline
 90
29
 70
0
 10
12.384270462673157
 20
15.469822553917766
 10
12.380084329201761
 20
15.743776022001896
 10
12.346551301381112
 20
15.763874945394107
 10
12.101761620483508
 20
15.927438180952969
 10
11.94411551819542
 20
16.044356498832585
 10
11.71653656713168
 20
16.23112571720963
 10
11.571109573085874
 20
16.362933061562003
 10
11.362933061562003
 20
16.571109573085874
 10
11.231125717209629
 20
16.71653656713168
 10
11.044356498832585
 20
16.94411551819542
 10
10.927438180952969
 20
17.101761620483508
 10
10.763874945394107
 20
17.346551301381112
 10
10.662971641302487
 20
17.51489829376832
 10
10.524189591932952
 20
17.77454124605718
 10
10.440273055607086
 20
17.951967854978996
 10
10.327608739428378
 20
18.223963575093126
 10
10.261487132986531
 20
18.40876108531438
 10
10.228207378526669
 20
18.518469733070496
 10
8.644470049699645
 20
19.092207464921913
 10
8.644470037306544
 20
19.092207470095197
 10
7.955117560457438
 20
19.341937977354974
 10
6.459714605007321
 20
18.452405813150108
 10
6.374569548813625
 20
18.179872460142537
 10
6.374569548306546
 20
18.179872458201192
 10
6.113816290786566
 20
17.34525019439287
 10
5.859031585105935
 20
16.529732145097924
 10
10.15438067106097
 20
14.136559069931662
 10
10.154380671161544
 20
14.136559069869179
 10
12.384270462673157
 20
15.469822553917766
  0
LWPOLYLINE
  5
43
330
17
100
AcDbEntity
  8
default
100
AcDbPolyline
 90
8
 70
0
 10
10.273466123315192
 20
6.343240222643447
 10
8.043576331994032
 20
5.009976738708731
 10
8.083271483133196
 20
2.4122037900574718
 10
10.352856426034123
 20
1.1476943250745535
 10
12.582746217492968
 20
2.4809578084386885
 10
12.543051066349783
 20
5.078730756887322
 10
12.543051065916114
 20
5.078730757102572
 10
10.273466123315192
 20
6.343240222643447
  0
LWPOLYLINE
  5
44
330
17
100
AcDbEntity
  8
default
100
AcDbPolyline
 90
9
 70
0
 10
-15.198200488463044
 20
85.29196702176705
 10
-15.189492304090267
 20
85.31501150470335
 10
-15.189492300816525
 20
85.31501151481066
 10
-13.433218930147197
 20
89.96264068572604
 10
-17.273312682751566
 20
93.81072502862662
 10
-18.570129012223333
 20
92.61073335446417
 10
-19.354792195372283
 20
90.1121814311482
 10
-17.499638742301613
 20
86.25677135493606
 10
-15.198200488463044
 20
85.29196702176705
  0
LWPOLYLINE
  5
45
330
17
100
AcDbEntity
  8
default
100
AcDbPolyline
 90
13
 70
0
 10
1.510643051260999
 20
59.5
 10
-2.5
 20
59.5
 10
-2.7940514209886818
 20
59.51444581998341
 10
-3.085270966048384
 20
59.55764415879031
 10
-3.1858180113339785
 20
59.582829882520116
 10
-3.4849844676843276
 20
58.51352097951211
 10
-3.3189108641393723
 20
58.28898834026554
 10
-3.1478610349115375
 20
58.317660786841174
 10
-3.1478610305211614
 20
58.31766078779774
 10
0.8453426774495174
 20
58.98702667113694
 10
0.8453426881866442
 20
58.98702667240223
 10
1.2934319143391662
 20
59.06213820251
 10
1.510643051260999
 20
59.5
  0
LWPOLYLINE
  5
46
330
17
100
AcDbEntity
  8
default
100
AcDbPolyline
 90
12
 70
0
 10
-2.4551980478633535
 20
4.849550696172844
 10
-4.489545217870337
 20
5.982996377697026
 10
-4.48954522621545
 20
5.982996382913386
 10
-4.949463208205998
 20
6.239241756498814
 10
-5.178865066323079
 20
6.173180317398953
 10
-5.178865079708611
 20
6.173180312846261
 10
-6.968075880544362
 20
5.657936708058268
 10
-6.914977631350672
 20
2.183023729260758
 10
-4.645392688456923
 20
0.9185142642818391
 10
-2.4155028971495547
 20
2.2517777475554057
 10
-2.4155028971846555
 20
2.2517777481129104
 10
-2.4551980478633535
 20
4.849550696172844
  0
LWPOLYLINE
  5
47
330
17
100
AcDbEntity
  8
default
100
AcDbPolyline
 90
11
 70
0
 10
-20.11050894577056
 20
45.68132687266916
 10
-18.206334235612303
 20
40.4811572949402
 10
-18.201615024795935
 20
40.482887524034034
 10
-18.201615022968504
 20
40.482887524806415
 10
-16.01892238629988
 20
41.28313961129317
 10
-14.81983687961474
 20
41.72276664013043
 10
-14.650145310396837
 20
42.16800249153582
 10
-14.650145309738406
 20
42.168002493566874
 10
-13.663538668009245
 20
44.75665583804819
 10
-16.669171903282404
 20
47.81708764145151
 10
-20.11050894577056
 20
45.68132687266916
  0
LWPOLYLINE
  5
48
330
17
100
AcDbEntity
  8
default
100
AcDbPolyline
 90
13
 70
0
 10
-9.77182981820714
 20
44.227050703383384
 10
-10.77585174376145
 20
43.90965551137924
 10
-10.860238686436109
 20
43.68824149271578
 10
-10.860238687883239
 20
43.68824148829886
 10
-11.84684532945122
 20
41.099588144556954
 10
-9.077523702903871
 20
39.129603173474905
 10
-9.077523702358885
 20
39.12960317304675
 10
-6.714758466929197
 20
40.21003847522661
 10
-6.469060267787427
 20
42.79647084278986
 10
-8.877529964316636
 20
44.50976014090702
 10
-8.946928058448126
 20
44.48782175405414
 10
-8.946928060697445
 20
44.48782175321718
 10
-9.77182981820714
 20
44.227050703383384
  0
LWPOLYLINE
  5
49
330
17
100
AcDbEntity
  8
default
100
AcDbPolyline
 90
11
 70
0
 10
-9.972875570878386
 20
5.9491238836199045
 10
-10.576773652918085
 20
6.332176560065608
 10
-10.870441533241188
 20
6.51845015627538
 10
-14.554281928576529
 20
4.512201781384647
 10
-14.652763856109232
 20
1.1302940277382731
 10
-13.251071149017662
 20
0.1423095134086907
 10
-9.914627454413168
 20
2.1371877169154008
 10
-9.914627454424162
 20
2.1371877170900038
 10
-9.967725703673322
 20
5.612100696264409
 10
-9.967725703513873
 20
5.612100700826125
 10
-9.972875570878386
 20
5.9491238836199045
  0
LWPOLYLINE
  5
4A
330
17
100
AcDbEntity
  8
default
100
AcDbPolyline
 90
7
 70
0
 10
-15.922837630379945
 20
7.1829229379072785
 10
-12.511578009463847
 20
9.04072168469429
 10
-12.820302967913449
 20
10.498328038491309
 10
-15.390548353549093
 20
12.326698110904545
 10
-17.753313589375466
 20
11.246262808796018
 10
-17.999011788051575
 20
8.65983044123277
 10
-15.922837630379945
 20
7.1829229379072785
  0
LWPOLYLINE
  5
4B
330
17
100
AcDbEntity
  8
default
100
AcDbPolyline
 90
11
 70
0
 10
-10.306014698282835
 20
26.197441332728843
 10
-7.943249462599255
 20
27.277876634093477
 10
-7.697551264010474
 20
29.86430900166875
 10
-7.697551264545916
 20
29.86430900201249
 10
-9.814618300299195
 20
31.370306067932873
 10
-9.814618300450508
 20
31.370306068051747
 10
-12.177383535782134
 20
30.289870766422183
 10
-12.17738353606561
 20
30.289870766308535
 10
-12.423081734683365
 20
27.70343839842826
 10
-10.306014698947433
 20
26.19744133238581
 10
-10.306014698282835
 20
26.197441332728843
  0
LWPOLYLINE
  5
4C
330
17
100
AcDbEntity
  8
default
100
AcDbPolyline
 90
12
 70
0
 10
-10.816499326002903
 20
36.68502472571801
 10
-10.816499326459214
 20
36.685024726010944
 10
-13.585820952977135
 20
38.65500969746345
 10
-13.58582096127232
 20
38.65500970402116
 10
-13.88722675666213
 20
38.86941776750609
 10
-14.986190786899643
 20
38.466498802464024
 10
-17.168929049266033
 20
37.66622998788523
 10
-16.863619822077453
 20
35.46428056480363
 10
-13.42496276090769
 20
33.01815705641767
 10
-13.424962760436696
 20
33.018157056660776
 10
-11.06219752501542
 20
34.098592358118395
 10
-10.816499326002903
 20
36.68502472571801
  0
LWPOLYLINE
  5
4D
330
17
100
AcDbEntity
  8
default
100
AcDbPolyline
 90
7
 70
0
 10
-12.488388281137283
 20
66.38636079178865
 10
-14.503736927639693
 20
68.95721243973821
 10
-15.90061002643779
 20
67.9144519935362
 10
-16.150527937769535
 20
62.81860921880395
 10
-12.913840152055268
 20
62.22826061473405
 10
-11.664427011375496
 20
65.33528598547134
 10
-12.488388281137283
 20
66.38636079178865
  0
LWPOLYLINE
  5
4E
330
17
100
AcDbEntity
  8
default
100
AcDbPolyline
 90
11
 70
0
 10
-10.676076503665097
 20
47.08752932280224
 10
-9.85119164451963
 20
47.3482950307874
 10
-9.060596676087265
 20
50.27433993244726
 10
-9.678730529981586
 20
50.603607583483296
 10
-12.65469788146443
 20
52.18884640042988
 10
-14.140811335026577
 20
51.33498448552051
 10
-14.14081134223772
 20
51.33498448185039
 10
-14.583542694337666
 20
51.08060858678073
 10
-14.791968889068812
 20
50.1871507386677
 10
-11.493933178018779
 20
46.82898539118469
 10
-10.676076503665097
 20
47.08752932280224
  0
LWPOLYLINE
  5
4F
330
17
100
AcDbEntity
  8
default
100
AcDbPolyline
 90
17
 70
0
 10
-13.452138041365151
 20
59.276949823938494
 10
-16.688825827310986
 20
59.86729842760805
 10
-16.68882584123661
 20
59.86729843084499
 10
-17.40236126864329
 20
59.99744216771796
 10
-19.95940601080656
 20
58.36389983585104
 10
-15.635365227533311
 20
53.93619740738106
 10
-14.149251773252713
 20
54.79005932232029
 10
-14.149251771873748
 20
54.79005932302242
 10
-13.960767314769328
 20
54.89835502486676
 10
-13.800238575365874
 20
55.470273391116585
 10
-13.80023857526728
 20
55.47027339154687
 10
-12.999181749245757
 20
58.32421165166255
 10
-12.999181748885933
 20
58.324211652739926
 10
-12.810157852247357
 20
58.99765018187463
 10
-12.918575572781265
 20
59.17963186232373
 10
-13.45213803628769
 20
59.27694982326682
 10
-13.452138041365151
 20
59.276949823938494
  0
LWPOLYLINE
  5
50
330
17
100
AcDbEntity
  8
default
100
AcDbPolyline
 90
17
 70
0
 10
-5.896923837929128
 20
56.72955111564233
 10
-5.896923839631338
 20
56.72955111820507
 10
-5.971461109351367
 20
56.83032601280138
 10
-10.110803768449532
 20
57.51348812271866
 10
-10.911860594506638
 20
54.659549862601764
 10
-8.268238639496854
 20
53.25134485025799
 10
-7.6501785799048765
 20
52.92211650802456
 10
-7.650178579265193
 20
52.92211650764329
 10
-7.30541769368574
 20
52.73846921790391
 10
-5.960868927184492
 20
53.463923106435686
 10
-5.937151762009133
 20
53.62613606223387
 10
-5.937151761601877
 20
53.626136066494915
 10
-5.755269791087706
 20
54.87011323620984
 10
-5.551653313450515
 20
56.262743023224175
 10
-5.7308502290140435
 20
56.505018469396646
 10
-5.730850234839229
 20
56.505018476500204
 10
-5.896923837929128
 20
56.72955111564233
  0
LWPOLYLINE
  5
51
330
17
100
AcDbEntity
  8
default
100
AcDbPolyline
 90
13
 70
0
 10
-10.127329063417761
 20
68.23714424134275
 10
-9.303418374610864
 20
67.18613395795656
 10
-9.303418374222503
 20
67.1861339580308
 10
-6.7312212159285085
 20
67.5519232079609
 10
-6.731221215917225
 20
67.55192320799334
 10
-5.5
 20
70.61370912228645
 10
-5.5
 20
70.99702307864968
 10
-7.641319091897458
 20
73.0066196792759
 10
-7.8659511075184705
 20
72.99060572604456
 10
-7.865951117531123
 20
72.99060572484265
 10
-12.230840208475351
 20
72.67943400935903
 10
-12.583461127709597
 20
71.3702751644887
 10
-10.127329063417761
 20
68.23714424134275
  0
LWPOLYLINE
  5
52
330
17
100
AcDbEntity
  8
default
100
AcDbPolyline
 90
14
 70
0
 10
-6.308844171862319
 20
64.58180576366901
 10
-8.881041330154673
 20
64.21601651373913
 10
-8.88104133015607
 20
64.21601651373513
 10
-10.130454470739853
 20
61.108991142802005
 10
-10.130454473235542
 20
61.10899113737783
 10
-10.309985865838826
 20
60.662534658331424
 10
-10.260041516274214
 20
60.57870189892128
 10
-6.209431916475296
 20
59.9101844006218
 10
-5.497739330635701
 20
62.45398301794421
 10
-5.5
 20
62.5
 10
-5.5
 20
63.55001487477974
 10
-6.028240456190174
 20
64.22385751236004
 10
-6.3088441714739485
 20
64.58180576374325
 10
-6.308844171862319
 20
64.58180576366901
  0
LWPOLYLINE
  5
53
330
17
100
AcDbEntity
  8
default
100
AcDbPolyline
 90
40
 70
0
 10
-7.992289840582807
 20
76.16921075215677
 10
-7.6166304381746235
 20
76.97330714848351
 10
-6.435810367576778
 20
79.50084448046982
 10
-7.58365933647806
 20
81.14265030511915
 10
-7.924477260952118
 20
81.63013330029662
 10
-7.9244772611097885
 20
81.63013330054669
 10
-10.213050491943651
 20
81.43156470804232
 10
-10.17602556895195
 20
81.3095098942187
 10
-10.128335679609908
 20
81.11912118374204
 10
-10.070899909299197
 20
80.83037206739834
 10
-10.042101016761263
 20
80.63622570402521
 10
-10.01324417804009
 20
80.34323730364137
 10
-10.003613631384482
 20
80.14720302298225
 10
-10.003613631384482
 20
79.85279697701775
 10
-10.01324417804009
 20
79.65676269635863
 10
-10.042101016761263
 20
79.36377429597479
 10
-10.070899909299197
 20
79.16962793260166
 10
-10.128335679609908
 20
78.88087881625795
 10
-10.17602556895195
 20
78.69049010578128
 10
-10.261487132986513
 20
78.40876108531444
 10
-10.327608739428356
 20
78.22396357509318
 10
-10.440273055607124
 20
77.95196785497892
 10
-10.524189591932988
 20
77.77454124605711
 10
-10.662971641302455
 20
77.51489829376838
 10
-10.763874945394075
 20
77.34655130138117
 10
-10.92743818095299
 20
77.10176162048347
 10
-11.044356498832608
 20
76.94411551819539
 10
-11.231125717209633
 20
76.71653656713167
 10
-11.362933061562012
 20
76.57110957308586
 10
-11.571109573085828
 20
76.36293306156205
 10
-11.716536567131634
 20
76.23112571720966
 10
-11.944115518195343
 20
76.04435649883264
 10
-12.10176162048343
 20
75.92743818095302
 10
-12.346551301381163
 20
75.76387494539406
 10
-12.507653994719329
 20
75.66731370705314
 10
-12.444167962286906
 20
75.67183960844712
 10
-12.444167962225752
 20
75.6718396084544
 10
-8.079278870715486
 20
75.98301132446358
 10
-7.99228984120373
 20
76.1692107506411
 10
-7.992289840582807
 20
76.16921075215677
  0
LWPOLYLINE
  5
54
330
17
100
AcDbEntity
  8
default
100
AcDbPolyline
 90
11
 70
0
 10
-10.626902938517311
 20
88.90217354567767
 10
-10.626902940439503
 20
88.90217353974974
 10
-12.382087826135002
 20
84.2574248278466
 10
-12.378027419481501
 20
84.25499111375713
 10
-8.183798681478947
 20
84.61890435265377
 10
-7.084113918282144
 20
86.97277211017372
 10
-7.084113918424002
 20
86.97277211035735
 10
-7.4249198853006675
 20
87.46023800234569
 10
-8.57278081215918
 20
89.10206093033776
 10
-10.6184400790371
 20
88.9245688249357
 10
-10.626902938517311
 20
88.90217354567767
  0
LWPOLYLINE
  5
55
330
17
100
AcDbEntity
  8
default
100
AcDbPolyline
 90
9
 70
0
 10
-12.0
 20
100.0
 10
-12.01444581998341
 20
99.70594857901132
 10
-12.057644158790309
 20
99.41472903395162
 10
-12.076997612967542
 20
99.33746571388716
 10
-11.914704230817753
 20
99.35154713719514
 10
-9.480405782815069
 20
99.56275961222127
 10
-8.191395690198988
 20
102.32187695009634
 10
-12.0
 20
103.78684649504834
 10
-12.0
 20
100.0
  0
LWPOLYLINE
  5
56
330
17
100
AcDbEntity
  8
default
100
AcDbPolyline
 90
10
 70
0
 10
-9.221084362827241
 20
96.5739885601215
 10
-11.65548159861613
 20
96.36276751387277
 10
-13.382156443854644
 20
96.21295216648699
 10
-13.38215644565881
 20
96.21295216641755
 10
-14.812119957525283
 20
96.08888104744256
 10
-15.071834589820355
 20
95.85172312241048
 10
-11.12060299469158
 20
91.8922696779482
 10
-8.832102232147008
 20
92.09083198243752
 10
-7.732417469378561
 20
94.44469974003732
 10
-9.221084362827241
 20
96.5739885601215
  0
LWPOLYLINE
  5
57
330
17
100
AcDbEntity
  8
default
100
AcDbPolyline
 90
15
 70
0
 10
-7.962690760223347
 20
105.44818407734985
 10
-7.942355841209691
 20
105.58527096604838
 10
-7.870821007196627
 20
105.87085403176339
 10
-7.77163859753386
 20
106.14805029709527
 10
-7.645763793045065
 20
106.414190210478
 10
-7.4944088369076365
 20
106.66671069905881
 10
-7.319031360088211
 20
106.90317985249094
 10
-7.121320343559642
 20
107.12132034355965
 10
-6.903179852490936
 20
107.31903136008822
 10
-6.736411528334601
 20
107.44271517879963
 10
-7.062868296634406
 20
108.79110336024314
 10
-12.526560947299004
 20
109.35453554987907
 10
-12.991882623638958
 20
107.58909201435745
 10
-12.872704730834812
 20
107.33680792665109
 10
-7.962690760223347
 20
105.44818407734985
  0
LWPOLYLINE
  5
58
330
17
100
AcDbEntity
  8
default
100
AcDbPolyline
 90
7
 70
0
 10
-3.6046078600920737
 20
122.82308972487226
 10
-9.502163609489799
 20
125.18302796129137
 10
-11.318211221960892
 20
124.40076339202868
 10
-10.554952202995352
 20
122.42628698686595
 10
-9.284934194292873
 20
119.14087465684861
 10
-6.595155137125403
 20
119.06117275031283
 10
-3.6046078600920737
 20
122.82308972487226
  0
LWPOLYLINE
  5
59
330
17
100
AcDbEntity
  8
default
100
AcDbPolyline
 90
10
 70
0
 10
-13.353172842501623
 20
121.3446395146923
 10
-14.116418281689073
 20
123.31908078997613
 10
-14.116418282453086
 20
123.31908079227418
 10
-14.34951764298603
 20
123.92208603164181
 10
-16.52925535151735
 20
124.41945009306073
 10
-17.57344909198582
 20
123.58378244983032
 10
-15.785610973834991
 20
115.59665547451004
 10
-14.566211083535835
 20
114.93262207073099
 10
-12.042614063350673
 20
117.95435217747938
 10
-13.353172842501623
 20
121.3446395146923
  0
LWPOLYLINE
  5
5A
330
17
100
AcDbEntity
  8
default
100
AcDbPolyline
 90
11
 70
0
 10
-5.5509579093948584
 20
113.18409560889619
 10
-6.866019197904155
 20
116.06788208988051
 10
-9.640816540457308
 20
116.15010320674628
 10
-9.740008459715895
 20
116.03133178390324
 10
-9.740008462819873
 20
116.03133177979818
 10
-12.26360548254442
 20
113.00960167300856
 10
-12.263605491238145
 20
113.00960166357993
 10
-12.55165947554633
 20
112.66468867240474
 10
-12.470597566571087
 20
112.3646737751551
 10
-6.569025141187012
 20
111.7560861245729
 10
-5.5509579093948584
 20
113.18409560889619
  0
LWPOLYLINE
  5
5B
330
17
100
AcDbEntity
  8
default
100
AcDbPolyline
 90
11
 70
0
 10
5.083621660069081
 20
2.366367777738863
 10
5.0439265089188545
 20
4.964140726182753
 10
5.043926508938998
 20
4.964140726805822
 10
5.043926508670591
 20
4.964140726939045
 10
2.7743415664728204
 20
6.228650192255303
 10
0.5444517752086551
 20
4.895386708541907
 10
0.5444517752160039
 20
4.895386708425182
 10
0.5841469258948493
 20
2.297613759889946
 10
2.8537318687886
 20
1.0331042944453657
 10
5.083621660099521
 20
2.366367777255395
 10
5.083621660069081
 20
2.366367777738863
  0
LWPOLYLINE
  5
5C
330
17
100
AcDbEntity
  8
default
100
AcDbPolyline
 90
12
 70
0
 10
12.963778450099358
 20
115.87116752883128
 10
13.05850072670728
 20
115.8939439826645
 10
13.795507875271142
 20
118.38529310794547
 10
12.006439818069339
 20
120.26923458417878
 10
9.480364611781432
 20
119.66182693522947
 10
8.641696310209515
 20
116.82682656457287
 10
8.641696307750944
 20
116.8268265575609
 10
8.5858372785818
 20
116.6380029569772
 10
9.886016859054873
 20
115.13110407915048
 10
9.92207958645363
 20
115.13977554562184
 10
9.92207959073783
 20
115.1397755468681
 10
12.963778450099358
 20
115.87116752883128
  0
LWPOLYLINE
  5
5D
330
17
100
AcDbEntity
  8
default
100
AcDbPolyline
 90
6
 70
0
 10
11.971271893017711
 20
102.68228857616147
 10
11.868747825734317
 20
102.20855515496805
 10
12.0
 20
102.00581722330676
 10
12.0
 20
102.81503266928112
 10
11.971271893713102
 20
102.6822885787539
 10
11.971271893017711
 20
102.68228857616147
  0
LWPOLYLINE
  5
5E
330
17
100
AcDbEntity
  8
default
100
AcDbPolyline
 90
28
 70
0
 10
8.864458337568447
 20
96.28387022297288
 10
8.864458337902281
 20
96.28387022300424
 10
10.115869153290987
 20
99.39586338680238
 10
9.501145874150097
 20
100.3453922374174
 10
9.294533771983875
 20
100.32773978301404
 10
9.2945337659336
 20
100.32773978219737
 10
8.0
 20
100.21713784724851
 10
8.0
 20
100.0
 10
7.985554180016592
 20
99.70594857901132
 10
7.9423558412096895
 20
99.41472903395162
 10
7.870821007196625
 20
99.12914596823661
 10
7.771638597533858
 20
98.85194970290473
 10
7.645763793045063
 20
98.585809789522
 10
7.494408836907635
 20
98.33328930094119
 10
7.319031360088211
 20
98.09682014750906
 10
7.121320343559642
 20
97.87867965644035
 10
6.903179852490936
 20
97.68096863991178
 10
6.666710699058807
 20
97.50559116309236
 10
6.414190210477994
 20
97.35423620695494
 10
6.148050297095271
 20
97.22836140246613
 10
5.870854031763386
 20
97.12917899280338
 10
5.585270966048384
 20
97.05764415879031
 10
5.2940514209886835
 20
97.01444581998341
 10
5.210059681431389
 20
97.0103195704123
 10
6.499153374694288
 20
95.94750287756324
 10
6.835333067080491
 20
95.99531061164821
 10
6.835333068997368
 20
95.99531061201746
 10
8.864458337568447
 20
96.28387022297288
  0
LWPOLYLINE
  5
5F
330
17
100
AcDbEntity
  8
default
100
AcDbPolyline
 90
25
 70
0
 10
10.342777993077547
 20
85.88845916787929
 10
10.342777992891172
 20
85.88845916784366
 10
7.3014132424787626
 20
85.4559501248126
 10
5.5
 20
85.19977318399174
 10
5.5
 20
84.7721279714298
 10
8.114619627342542
 20
81.4368245787751
 10
8.404146400741435
 20
81.06749375168592
 10
8.4041464007543
 20
81.0674937516678
 10
8.404146401143834
 20
81.06749375174225
 10
10.179183364661831
 20
81.31991975158827
 10
10.261487132986524
 20
81.5912389146856
 10
10.32760873942837
 20
81.77603642490686
 10
10.440273055607118
 20
82.04803214502107
 10
10.52418959193298
 20
82.22545875394287
 10
10.662971641302459
 20
82.48510170623163
 10
10.763874945394079
 20
82.65344869861885
 10
10.92743818095299
 20
82.89823837951651
 10
11.044356498832606
 20
83.0558844818046
 10
11.231125717209629
 20
83.28346343286832
 10
11.362933061562003
 20
83.42889042691412
 10
11.571109573085817
 20
83.63706693843794
 10
11.71653656713162
 20
83.76887428279032
 10
11.891686175681581
 20
83.91261585174922
 10
10.34277799324467
 20
85.88845916764383
 10
10.342777993077547
 20
85.88845916787929
  0
LWPOLYLINE
  5
60
330
17
100
AcDbEntity
  8
default
100
AcDbPolyline
 90
26
 70
0
 10
12.032286170478212
 20
74.00798939174997
 10
12.665438942574863
 20
75.58250598810213
 10
12.514898293768358
 20
75.66297164130246
 10
12.346551301381151
 20
75.76387494539408
 10
12.101761620483437
 20
75.92743818095302
 10
11.94411551819535
 20
76.04435649883264
 10
11.716536567131648
 20
76.23112571720965
 10
11.571109573085842
 20
76.36293306156203
 10
11.362933061562003
 20
76.57110957308588
 10
11.231125717209629
 20
76.71653656713168
 10
11.044356498832606
 20
76.9441155181954
 10
10.92743818095299
 20
77.10176162048349
 10
10.763874945394079
 20
77.34655130138115
 10
10.662971641302459
 20
77.51489829376837
 10
10.52418959193298
 20
77.77454124605713
 10
10.440273055607118
 20
77.95196785497893
 10
10.32760873942837
 20
78.22396357509314
 10
10.298027624402845
 20
78.30663725319098
 10
8.826523445211894
 20
78.09737630745062
 10
7.857207649108922
 20
75.68689359876008
 10
7.8572076490158835
 20
75.68689359855718
 10
9.460089011459594
 20
73.64220014140692
 10
9.460089011581875
 20
73.64220014123464
 10
9.460089011981353
 20
73.642200141311
 10
12.032286170302555
 20
74.00798939124496
 10
12.032286170478212
 20
74.00798939174997
  0
LWPOLYLINE
  5
61
330
17
100
AcDbEntity
  8
default
100
AcDbPolyline
 90
11
 70
0
 10
12.454663214919709
 20
71.03787194678132
 10
12.454663214745711
 20
71.03787194702646
 10
12.454663214341537
 20
71.03787194694921
 10
9.882466056049413
 20
70.67208269701936
 10
8.913150259946441
 20
68.26159998832883
 10
8.913150259853406
 20
68.26159998812594
 10
10.516031622430507
 20
66.21690653033984
 10
10.516031622818872
 20
66.21690653041408
 10
13.088228781259232
 20
66.582695780365
 10
14.057544577857477
 20
68.99317848912918
 10
12.454663214919709
 20
71.03787194678132
  0
LWPOLYLINE
  5
62
330
17
100
AcDbEntity
  8
default
100
AcDbPolyline
 90
11
 70
0
 10
15.113487188704312
 20
61.56788487872109
 10
13.510605825591323
 20
63.612578336131094
 10
13.510605825179056
 20
63.612578336052295
 10
10.938408666884289
 20
63.246789086122085
 10
10.93840866686832
 20
63.24678908607618
 10
9.969092870709112
 20
60.83630637771145
 10
9.969092870697548
 20
60.83630637768623
 10
11.571974233268026
 20
58.791612919908594
 10
11.571974233656391
 20
58.791612919982825
 10
14.144171392096752
 20
59.15740216993374
 10
15.113487188704312
 20
61.56788487872109
  0
LWPOLYLINE
  5
63
330
17
100
AcDbEntity
  8
default
100
AcDbPolyline
 90
7
 70
0
 10
0.9345977399675469
 20
108.0
 10
-0.5220138005641743
 20
111.19419079946076
 10
-0.5220138013587814
 20
111.19419079949904
 10
-3.108189252864383
 20
111.44257865725879
 10
-4.235356905031949
 20
109.86153759481385
 10
-3.7846621011215262
 20
108.0
 10
0.9345977399675469
 20
108.0
  0
LWPOLYLINE
  5
64
330
17
100
AcDbEntity
  8
default
100
AcDbPolyline
 90
20
 70
0
 10
7.966348117683083
 20
107.59863715618849
 10
7.964513161657621
 20
107.59815545827719
 10
7.964513155883932
 20
107.59815545644575
 10
6.902670566696948
 20
107.31940907217555
 10
6.903179852490936
 20
107.31903136008822
 10
7.121320343559642
 20
107.12132034355965
 10
7.319031360088211
 20
106.90317985249094
 10
7.494408836907635
 20
106.66671069905881
 10
7.645763793045067
 20
106.414190210478
 10
7.771638597533858
 20
106.14805029709527
 10
7.870821007196625
 20
105.87085403176339
 10
7.9423558412096895
 20
105.58527096604838
 10
7.985554180016592
 20
105.29405142098868
 10
8.0
 20
105.0
 10
8.0
 20
103.22806732910682
 10
9.03915118744969
 20
103.31684997427777
 10
9.53020610350367
 20
105.58586964487934
 10
9.53020610544332
 20
105.5858696520517
 10
9.569790144916624
 20
105.76877580210567
 10
7.966348117683083
 20
107.59863715618849
  0
LWPOLYLINE
  5
65
330
17
100
AcDbEntity
  8
default
100
AcDbPolyline
 90
23
 70
0
 10
5.073821967802399
 20
76.80616307027972
 10
6.043137763905371
 20
79.21664577897026
 10
6.043137763998406
 20
79.21664577917315
 10
5.753551194741739
 20
79.58605288405695
 10
5.495815838184392
 20
79.91482942962466
 10
5.485554180016592
 20
79.70594857901132
 10
5.4423558412096895
 20
79.41472903395162
 10
5.370821007196625
 20
79.12914596823661
 10
5.271638597533858
 20
78.85194970290473
 10
5.145763793045063
 20
78.585809789522
 10
4.994408836907635
 20
78.33328930094119
 10
4.819031360088211
 20
78.09682014750906
 10
4.621320343559642
 20
77.87867965644035
 10
4.403179852490936
 20
77.68096863991178
 10
4.166710699058807
 20
77.50559116309236
 10
3.9141902104779938
 20
77.35423620695494
 10
3.6480502970952706
 20
77.22836140246613
 10
3.370854031763386
 20
77.12917899280338
 10
3.085270966048384
 20
77.05764415879031
 10
2.7940514209886835
 20
77.01444581998341
 10
2.5155955111140322
 20
77.00076615833157
 10
2.7676250812695784
 20
76.47820141825844
 10
5.073821967802399
 20
76.80616307027972
  0
LWPOLYLINE
  5
66
330
17
100
AcDbEntity
  8
default
100
AcDbPolyline
 90
14
 70
0
 10
5.20247897573261
 20
73.79427603170926
 10
5.271638597533858
 20
73.64805029709527
 10
5.370821007196625
 20
73.37085403176339
 10
5.4423558412096895
 20
73.08527096604838
 10
5.485554180016592
 20
72.79405142098868
 10
5.5
 20
72.5
 10
5.5
 20
69.29131135108902
 10
6.129764578639918
 20
69.38086945984847
 10
7.09908037474289
 20
71.791352168539
 10
7.099080374835928
 20
71.79135216874191
 10
5.496199012392218
 20
73.83604562589217
 10
5.496199012269795
 20
73.83604562606465
 10
5.4961990118657695
 20
73.83604562598742
 10
5.20247897573261
 20
73.79427603170926
  0
LWPOLYLINE
  5
67
330
17
100
AcDbEntity
  8
default
100
AcDbPolyline
 90
15
 70
0
 10
2.5
 20
93.0
 10
2.7940514209886835
 20
92.98555418001659
 10
3.085270966048384
 20
92.94235584120969
 10
3.370854031763386
 20
92.87082100719662
 10
3.6480502970952706
 20
92.77163859753387
 10
3.9141902104779938
 20
92.64576379304506
 10
4.0418300914890715
 20
92.56925939254911
 10
4.364379284903407
 20
93.81940365908667
 10
1.6766863358207047
 20
96.03532089339569
 10
1.1331586507698006
 20
95.44843345855381
 10
0.31590530331398625
 20
94.56598398239163
 10
0.43028141129690667
 20
94.07665135040331
 10
0.430281414672363
 20
94.07665133854019
 10
0.6819367952499213
 20
93.0
 10
2.5
 20
93.0
  0
LWPOLYLINE
  5
68
330
17
100
AcDbEntity
  8
default
100
AcDbPolyline
 90
11
 70
0
 10
-2.032961349003017
 20
96.44484995305538
 10
-1.8851647029212177
 20
96.60443703008532
 10
-1.8851646988294561
 20
96.60443703496077
 10
-1.5188262667627175
 20
97.0
 10
-5.0
 20
97.0
 10
-5.294051420988682
 20
97.01444581998341
 10
-5.585270966048384
 20
97.05764415879031
 10
-5.870854031763386
 20
97.12917899280338
 10
-5.974743111458459
 20
97.16635109990037
 10
-5.273726521991193
 20
96.16366420406848
 10
-2.032961349003017
 20
96.44484995305538
  0
LWPOLYLINE
  5
69
330
17
100
AcDbEntity
  8
default
100
AcDbPolyline
 90
14
 70
0
 10
7.20278629108731
 20
110.49983982682095
 10
7.728812583256513
 20
113.03897092724219
 10
7.6146286551282785
 20
113.17130928707067
 10
7.614628651155748
 20
113.17130929123645
 10
6.314449070929207
 20
114.67820816891303
 10
6.314449068495691
 20
114.67820817203622
 10
6.2842887551523745
 20
114.71316376049072
 10
6.042248305849508
 20
114.69069380523023
 10
6.04224830346595
 20
114.69069380488904
 10
4.731590865544131
 20
114.56901821699567
 10
3.654905003029853
 20
114.46906350599602
 10
2.2075684489682317
 20
112.43893203604966
 10
3.5313414855078236
 20
109.53604163779264
 10
7.20278629108731
 20
110.49983982682095
  0
LWPOLYLINE
  5
6A
330
17
100
AcDbEntity
  8
default
100
AcDbPolyline
 90
8
 70
0
 10
1.1048443005420268
 20
121.50477708969265
 10
3.6153582497499883
 20
117.47829208290204
 10
4.45425823617683
 20
117.55617181415667
 10
5.764934133845319
 20
117.67784911589047
 10
6.603602435367954
 20
120.51284948636605
 10
6.603602435647961
 20
120.51284948716982
 10
4.814534378238022
 20
122.39679096266627
 10
1.1048443005420268
 20
121.50477708969265
  0
LWPOLYLINE
  5
6B
330
17
100
AcDbEntity
  8
default
100
AcDbPolyline
 90
11
 70
0
 10
9.060523533803433
 20
33.854084729612865
 10
8.55058131320402
 20
33.62347022164613
 10
7.18963506584987
 20
30.633701688144356
 10
9.91814539192012
 20
27.634831678774745
 10
9.918145392099419
 20
27.63483167882287
 10
12.800230568306358
 20
28.263089394859968
 10
13.564789314288646
 20
33.054958273656666
 10
9.7508615385741
 20
34.1662808037363
 10
9.418075597848759
 20
34.01578283969557
 10
9.418075595254301
 20
34.015782838362234
 10
9.060523533803433
 20
33.854084729612865
  0
LWPOLYLINE
  5
6C
330
17
100
AcDbEntity
  8
default
100
AcDbPolyline
 90
9
 70
0
 10
16.233070618472993
 20
9.032685196492821
 10
16.193375467788428
 20
11.630458145402372
 10
13.923790525179356
 20
12.894967610947788
 10
11.693900733434202
 20
11.561704126759565
 10
11.693900733441552
 20
11.56170412664284
 10
11.733595884120355
 20
8.963931178110393
 10
11.733595884366043
 20
8.963931177988446
 10
14.003180826966965
 20
7.699421712447572
 10
16.233070618472993
 20
9.032685196492821
  0
LWPOLYLINE
  5
6D
330
17
100
AcDbEntity
  8
default
100
AcDbPolyline
 90
12
 70
0
 10
10.078365440486081
 20
43.9109493214521
 10
10.793061820746495
 20
44.25728580336147
 10
12.708780167879162
 20
45.18562848310277
 10
12.708780171889089
 20
45.185628484798016
 10
12.787920512259007
 20
45.22397929755971
 10
13.006815355736762
 20
48.04108651354909
 10
8.616473846137524
 20
49.917412207927555
 10
8.560682368085082
 20
49.896504909095036
 10
8.560682362415115
 20
49.89650490662791
 10
8.518041664241277
 20
49.880525731191646
 10
8.085622558899694
 20
45.32850714141608
 10
10.078365440486081
 20
43.9109493214521
  0
LWPOLYLINE
  5
6E
330
17
100
AcDbEntity
  8
default
100
AcDbPolyline
 90
9
 70
0
 10
12.101380684428083
 20
41.55760031147767
 10
11.39031981354221
 20
41.213025569932086
 10
11.347985473535868
 20
40.29234135883967
 10
11.190690413117409
 20
36.87149958591908
 10
15.157272806856781
 20
35.71569574298337
 10
15.202008177991956
 20
35.734906235709786
 10
15.99834318086505
 20
40.89438515761867
 10
14.01704103891431
 20
42.485914888171436
 10
12.101380684428083
 20
41.55760031147767
  0
LWPOLYLINE
  5
6F
330
17
100
AcDbEntity
  8
default
100
AcDbPolyline
 90
8
 70
0
 10
11.994351277724451
 20
55.82149547569121
 10
10.592503133848968
 20
52.33539659616501
 10
14.47955981316045
 20
50.67416265653446
 10
16.559605431742966
 20
51.89366978826001
 10
16.867981136776507
 20
53.25149390846491
 10
14.566548436428842
 20
56.18728472569984
 10
14.566548436016575
 20
56.18728472562104
 10
11.994351277724451
 20
55.82149547569121
  0
LWPOLYLINE
  5
70
330
17
100
AcDbEntity
  8
default
100
AcDbPolyline
 90
16
 70
0
 10
18.990750373341143
 20
71.20981571171433
 10
19.96006616950035
 20
73.62029842054471
 10
18.35718480685302
 20
75.66499187795472
 10
18.357184806440756
 20
75.66499187787592
 10
17.164570358182452
 20
75.49539152547776
 10
17.04803214502096
 20
75.44027305560707
 10
16.776036424906778
 20
75.32760873942834
 10
16.591238914685523
 20
75.2614871329865
 10
16.309509894218852
 20
75.17602556895199
 10
16.119121183742184
 20
75.12833567960993
 10
15.830372067398375
 20
75.0708999092992
 10
15.684478901761352
 20
75.04925870249933
 10
14.815671851494525
 20
72.88871991950865
 10
16.41855321433992
 20
70.84402646197434
 10
16.41855321452733
 20
70.8440264617103
 10
18.990750373341143
 20
71.20981571171433
  0
LWPOLYLINE
  5
71
330
17
100
AcDbEntity
  8
default
100
AcDbPolyline
 90
19
 70
0
 10
11.647844019013363
 20
95.16460075122802
 10
13.250725381827362
 20
93.11990729373376
 10
13.25072538200136
 20
93.11990729348862
 10
13.250725382405534
 20
93.11990729356587
 10
15.822922540845894
 20
93.4856965435168
 10
16.554783733095974
 20
95.30568003747612
 10
15.424314672299989
 20
97.0
 10
15.0
 20
97.0
 10
14.705948579011316
 20
97.01444581998341
 10
14.414729033951616
 20
97.05764415879031
 10
14.129145968236614
 20
97.12917899280338
 10
13.85194970290473
 20
97.22836140246613
 10
13.585809789522006
 20
97.35423620695494
 10
13.333289300941193
 20
97.50559116309236
 10
13.096820147509064
 20
97.68096863991178
 10
12.878679656440358
 20
97.87867965644035
 10
12.784652919862147
 20
97.9824221734275
 10
12.781065680026217
 20
97.98268256647394
 10
11.647844019013363
 20
95.16460075122802
  0
LWPOLYLINE
  5
72
330
17
100
AcDbEntity
  8
default
100
AcDbPolyline
 90
11
 70
0
 10
14.306667992838879
 20
85.69461368259171
 10
14.306667993243053
 20
85.69461368266896
 10
16.878865151683414
 20
86.06040293261988
 10
17.848180947825313
 20
88.47088564140722
 10
16.245299585177985
 20
90.51557909928289
 10
16.245299584765718
 20
90.51557909920409
 10
13.673102426455145
 20
90.14978984927163
 10
13.673102426343704
 20
90.14978984895124
 10
12.703786629819486
 20
87.73930714037115
 10
14.306667992664881
 20
85.69461368283685
 10
14.306667992838879
 20
85.69461368259171
  0
LWPOLYLINE
  5
73
330
17
100
AcDbEntity
  8
default
100
AcDbPolyline
 90
9
 70
0
 10
10.889716745252542
 20
91.26905932100642
 10
9.286835382611812
 20
93.313752777814
 10
9.286835381963268
 20
93.31375277872773
 10
7.257710113629884
 20
93.02519316775003
 10
6.0403180457651615
 20
88.30679440870881
 10
6.879321749783372
 20
88.42610817700155
 10
9.920400948616887
 20
88.85857661210596
 10
9.920400948728329
 20
88.85857661242635
 10
10.889716745252542
 20
91.26905932100642
  0
LWPOLYLINE
  5
74
330
17
100
AcDbEntity
  8
default
100
AcDbPolyline
 90
8
 70
0
 10
10.103275426197797
 20
109.71201327582821
 10
11.72627681447193
 20
107.85983061650768
 10
14.811935574747622
 20
108.6017929809168
 10
15.548942723311484
 20
111.09314210619777
 10
13.759874666109681
 20
112.97708358196542
 10
13.665275183491698
 20
112.9543366545792
 10
10.62345352950451
 20
112.22291514580678
 10
10.103275426197797
 20
109.71201327582821
  0
LWPOLYLINE
  5
75
330
17
100
AcDbEntity
  8
default
100
AcDbPolyline
 90
5
 70
0
 10
-2.5
 20
20.0
 10
-2.5
 20
10.0
 10
2.5
 20
10.0
 10
2.5
 20
20.0
 10
-2.5
 20
20.0
  0
LWPOLYLINE
  5
76
330
17
100
AcDbEntity
  8
default
100
AcDbPolyline
 90
65
 70
0
 10
-13.086119328535583
 20
19.419430645491076
 10
-13.03842943919354
 20
19.609819355967744
 10
-13.009630546655606
 20
19.80396571934088
 10
-13.0
 20
20.0
 10
-13.009630546655606
 20
20.19603428065912
 10
-13.03842943919354
 20
20.390180644032256
 10
-13.086119328535583
 20
20.580569354508924
 10
-13.152240934977428
 20
20.76536686473018
 10
-13.23615747130329
 20
20.942793473651996
 10
-13.33706077539491
 20
21.111140466039203
 10
-13.453979093274526
 20
21.268786568327293
 10
-13.585786437626906
 20
21.414213562373096
 10
-13.731213431672709
 20
21.546020906725474
 10
-13.888859533960796
 20
21.66293922460509
 10
-14.057206526348004
 20
21.76384252869671
 10
-14.23463313526982
 20
21.847759065022572
 10
-14.419430645491076
 20
21.91388067146442
 10
-14.609819355967744
 20
21.96157056080646
 10
-14.80396571934088
 20
21.990369453344393
 10
-15.0
 20
22.0
 10
-15.196034280659122
 20
21.990369453344393
 10
-15.390180644032258
 20
21.96157056080646
 10
-15.580569354508924
 20
21.91388067146442
 10
-15.765366864730181
 20
21.847759065022572
 10
-15.942793473651996
 20
21.76384252869671
 10
-16.111140466039203
 20
21.66293922460509
 10
-16.268786568327293
 20
21.546020906725474
 10
-16.414213562373096
 20
21.414213562373096
 10
-16.546020906725474
 20
21.26878656832729
 10
-16.66293922460509
 20
21.111140466039203
 10
-16.76384252869671
 20
20.942793473651996
 10
-16.847759065022572
 20
20.76536686473018
 10
-16.91388067146442
 20
20.580569354508924
 10
-16.96157056080646
 20
20.390180644032256
 10
-16.990369453344393
 20
20.19603428065912
 10
-17.0
 20
20.0
 10
-16.990369453344393
 20
19.80396571934088
 10
-16.96157056080646
 20
19.609819355967744
 10
-16.91388067146442
 20
19.419430645491076
 10
-16.847759065022572
 20
19.23463313526982
 10
-16.76384252869671
 20
19.057206526348004
 10
-16.66293922460509
 20
18.888859533960797
 10
-16.546020906725474
 20
18.73121343167271
 10
-16.414213562373096
 20
18.585786437626904
 10
-16.26878656832729
 20
18.453979093274526
 10
-16.111140466039203
 20
18.33706077539491
 10
-15.942793473651996
 20
18.23615747130329
 10
-15.76536686473018
 20
18.152240934977428
 10
-15.580569354508924
 20
18.08611932853558
 10
-15.390180644032256
 20
18.03842943919354
 10
-15.196034280659122
 20
18.009630546655607
 10
-15.0
 20
18.0
 10
-14.803965719340878
 20
18.009630546655607
 10
-14.609819355967744
 20
18.03842943919354
 10
-14.419430645491076
 20
18.08611932853558
 10
-14.23463313526982
 20
18.152240934977428
 10
-14.057206526348004
 20
18.23615747130329
 10
-13.888859533960796
 20
18.33706077539491
 10
-13.731213431672709
 20
18.453979093274526
 10
-13.585786437626904
 20
18.585786437626904
 10
-13.453979093274526
 20
18.73121343167271
 10
-13.33706077539491
 20
18.888859533960797
 10
-13.23615747130329
 20
19.057206526348004
 10
-13.152240934977426
 20
19.23463313526982
 10
-13.086119328535583
 20
19.419430645491076
  0
LWPOLYLINE
  5
77
330
17
100
AcDbEntity
  8
default
100
AcDbPolyline
 90
5
 70
0
 10
2.5
 20
37.5
 10
-2.5
 20
37.5
 10
-2.5
 20
27.5
 10
2.5
 20
27.5
 10
2.5
 20
37.5
  0
LWPOLYLINE
  5
78
330
17
100
AcDbEntity
  8
default
100
AcDbPolyline
 90
5
 70
0
 10
-2.5
 20
55.0
 10
-2.5
 20
45.0
 10
2.5
 20
45.0
 10
2.5
 20
55.0
 10
-2.5
 20
55.0
  0
LWPOLYLINE
  5
79
330
17
100
AcDbEntity
  8
default
100
AcDbPolyline
 90
65
 70
0
 10
-13.086119328535583
 20
79.41943064549108
 10
-13.03842943919354
 20
79.60981935596774
 10
-13.009630546655606
 20
79.80396571934088
 10
-13.0
 20
80.0
 10
-13.009630546655606
 20
80.19603428065912
 10
-13.03842943919354
 20
80.39018064403226
 10
-13.086119328535583
 20
80.58056935450892
 10
-13.152240934977428
 20
80.76536686473018
 10
-13.23615747130329
 20
80.94279347365199
 10
-13.33706077539491
 20
81.1111404660392
 10
-13.453979093274526
 20
81.26878656832729
 10
-13.585786437626906
 20
81.41421356237309
 10
-13.731213431672709
 20
81.54602090672547
 10
-13.888859533960796
 20
81.6629392246051
 10
-14.057206526348004
 20
81.76384252869671
 10
-14.23463313526982
 20
81.84775906502257
 10
-14.419430645491076
 20
81.91388067146441
 10
-14.609819355967744
 20
81.96157056080646
 10
-14.80396571934088
 20
81.9903694533444
 10
-15.0
 20
82.0
 10
-15.196034280659122
 20
81.9903694533444
 10
-15.390180644032258
 20
81.96157056080646
 10
-15.580569354508924
 20
81.91388067146441
 10
-15.765366864730181
 20
81.84775906502257
 10
-15.942793473651996
 20
81.76384252869671
 10
-16.111140466039203
 20
81.6629392246051
 10
-16.268786568327293
 20
81.54602090672547
 10
-16.414213562373096
 20
81.41421356237309
 10
-16.546020906725474
 20
81.26878656832729
 10
-16.66293922460509
 20
81.1111404660392
 10
-16.76384252869671
 20
80.94279347365199
 10
-16.847759065022572
 20
80.76536686473018
 10
-16.91388067146442
 20
80.58056935450892
 10
-16.96157056080646
 20
80.39018064403226
 10
-16.990369453344393
 20
80.19603428065912
 10
-17.0
 20
80.0
 10
-16.990369453344393
 20
79.80396571934088
 10
-16.96157056080646
 20
79.60981935596774
 10
-16.91388067146442
 20
79.41943064549108
 10
-16.847759065022572
 20
79.23463313526982
 10
-16.76384252869671
 20
79.05720652634801
 10
-16.66293922460509
 20
78.8888595339608
 10
-16.546020906725474
 20
78.73121343167271
 10
-16.414213562373096
 20
78.58578643762691
 10
-16.26878656832729
 20
78.45397909327453
 10
-16.111140466039203
 20
78.3370607753949
 10
-15.942793473651996
 20
78.23615747130329
 10
-15.76536686473018
 20
78.15224093497743
 10
-15.580569354508924
 20
78.08611932853559
 10
-15.390180644032256
 20
78.03842943919354
 10
-15.196034280659122
 20
78.0096305466556
 10
-15.0
 20
78.0
 10
-14.803965719340878
 20
78.0096305466556
 10
-14.609819355967744
 20
78.03842943919354
 10
-14.419430645491076
 20
78.08611932853559
 10
-14.23463313526982
 20
78.15224093497743
 10
-14.057206526348004
 20
78.23615747130329
 10
-13.888859533960796
 20
78.3370607753949
 10
-13.731213431672709
 20
78.45397909327453
 10
-13.585786437626904
 20
78.58578643762691
 10
-13.453979093274526
 20
78.73121343167271
 10
-13.33706077539491
 20
78.8888595339608
 10
-13.23615747130329
 20
79.05720652634801
 10
-13.152240934977426
 20
79.23463313526982
 10
-13.086119328535583
 20
79.41943064549108
  0
LWPOLYLINE
  5
7A
330
17
100
AcDbEntity
  8
default
100
AcDbPolyline
 90
5
 70
0
 10
-15.0
 20
105.0
 10
-25.0
 20
105.0
 10
-25.0
 20
100.0
 10
-15.0
 20
100.0
 10
-15.0
 20
105.0
  0
LWPOLYLINE
  5
7B
330
17
100
AcDbEntity
  8
default
100
AcDbPolyline
 90
65
 70
0
 10
16.96157056080646
 20
19.609819355967744
 10
16.990369453344393
 20
19.80396571934088
 10
17.0
 20
20.0
 10
16.990369453344393
 20
20.19603428065912
 10
16.96157056080646
 20
20.390180644032256
 10
16.91388067146442
 20
20.580569354508924
 10
16.847759065022572
 20
20.76536686473018
 10
16.76384252869671
 20
20.942793473651996
 10
16.66293922460509
 20
21.111140466039203
 10
16.546020906725474
 20
21.268786568327293
 10
16.414213562373096
 20
21.414213562373096
 10
16.26878656832729
 20
21.546020906725474
 10
16.111140466039203
 20
21.66293922460509
 10
15.942793473651996
 20
21.76384252869671
 10
15.76536686473018
 20
21.847759065022572
 10
15.580569354508924
 20
21.91388067146442
 10
15.390180644032256
 20
21.96157056080646
 10
15.19603428065912
 20
21.990369453344393
 10
15.0
 20
22.0
 10
14.80396571934088
 20
21.990369453344393
 10
14.609819355967744
 20
21.96157056080646
 10
14.419430645491076
 20
21.91388067146442
 10
14.23463313526982
 20
21.847759065022572
 10
14.057206526348004
 20
21.76384252869671
 10
13.888859533960797
 20
21.66293922460509
 10
13.731213431672707
 20
21.546020906725474
 10
13.585786437626904
 20
21.414213562373096
 10
13.453979093274526
 20
21.26878656832729
 10
13.33706077539491
 20
21.111140466039203
 10
13.23615747130329
 20
20.942793473651996
 10
13.152240934977428
 20
20.76536686473018
 10
13.086119328535581
 20
20.580569354508924
 10
13.03842943919354
 20
20.390180644032256
 10
13.009630546655607
 20
20.19603428065912
 10
13.0
 20
20.0
 10
13.009630546655607
 20
19.80396571934088
 10
13.03842943919354
 20
19.609819355967744
 10
13.086119328535581
 20
19.419430645491076
 10
13.152240934977428
 20
19.23463313526982
 10
13.23615747130329
 20
19.057206526348004
 10
13.33706077539491
 20
18.888859533960797
 10
13.453979093274526
 20
18.73121343167271
 10
13.585786437626904
 20
18.585786437626904
 10
13.73121343167271
 20
18.453979093274526
 10
13.888859533960797
 20
18.33706077539491
 10
14.057206526348004
 20
18.23615747130329
 10
14.23463313526982
 20
18.152240934977428
 10
14.419430645491076
 20
18.08611932853558
 10
14.609819355967744
 20
18.03842943919354
 10
14.80396571934088
 20
18.009630546655607
 10
15.0
 20
18.0
 10
15.19603428065912
 20
18.009630546655607
 10
15.390180644032256
 20
18.03842943919354
 10
15.580569354508924
 20
18.08611932853558
 10
15.76536686473018
 20
18.152240934977428
 10
15.942793473651996
 20
18.23615747130329
 10
16.111140466039206
 20
18.33706077539491
 10
16.26878656832729
 20
18.453979093274526
 10
16.414213562373096
 20
18.585786437626904
 10
16.546020906725474
 20
18.73121343167271
 10
16.66293922460509
 20
18.888859533960797
 10
16.76384252869671
 20
19.057206526348004
 10
16.847759065022572
 20
19.23463313526982
 10
16.91388067146442
 20
19.419430645491076
 10
16.96157056080646
 20
19.609819355967744
  0
LWPOLYLINE
  5
7C
330
17
100
AcDbEntity
  8
default
100
AcDbPolyline
 90
5
 70
0
 10
2.5
 20
72.5
 10
-2.5
 20
72.5
 10
-2.5
 20
62.5
 10
2.5
 20
62.5
 10
2.5
 20
72.5
  0
LWPOLYLINE
  5
7D
330
17
100
AcDbEntity
  8
default
100
AcDbPolyline
 90
65
 70
0
 10
16.91388067146442
 20
79.41943064549108
 10
16.96157056080646
 20
79.60981935596774
 10
16.990369453344393
 20
79.80396571934088
 10
17.0
 20
80.0
 10
16.990369453344393
 20
80.19603428065912
 10
16.96157056080646
 20
80.39018064403226
 10
16.91388067146442
 20
80.58056935450892
 10
16.847759065022572
 20
80.76536686473018
 10
16.76384252869671
 20
80.94279347365199
 10
16.66293922460509
 20
81.1111404660392
 10
16.546020906725474
 20
81.26878656832729
 10
16.414213562373096
 20
81.41421356237309
 10
16.26878656832729
 20
81.54602090672547
 10
16.111140466039203
 20
81.6629392246051
 10
15.942793473651996
 20
81.76384252869671
 10
15.76536686473018
 20
81.84775906502257
 10
15.580569354508924
 20
81.91388067146441
 10
15.390180644032256
 20
81.96157056080646
 10
15.19603428065912
 20
81.9903694533444
 10
15.0
 20
82.0
 10
14.80396571934088
 20
81.9903694533444
 10
14.609819355967744
 20
81.96157056080646
 10
14.419430645491076
 20
81.91388067146441
 10
14.23463313526982
 20
81.84775906502257
 10
14.057206526348004
 20
81.76384252869671
 10
13.888859533960797
 20
81.6629392246051
 10
13.731213431672707
 20
81.54602090672547
 10
13.585786437626904
 20
81.41421356237309
 10
13.453979093274526
 20
81.26878656832729
 10
13.33706077539491
 20
81.1111404660392
 10
13.23615747130329
 20
80.94279347365199
 10
13.152240934977428
 20
80.76536686473018
 10
13.086119328535581
 20
80.58056935450892
 10
13.03842943919354
 20
80.39018064403226
 10
13.009630546655607
 20
80.19603428065912
 10
13.0
 20
80.0
 10
13.009630546655607
 20
79.80396571934088
 10
13.03842943919354
 20
79.60981935596774
 10
13.086119328535581
 20
79.41943064549108
 10
13.152240934977428
 20
79.23463313526982
 10
13.23615747130329
 20
79.05720652634801
 10
13.33706077539491
 20
78.8888595339608
 10
13.453979093274526
 20
78.73121343167271
 10
13.585786437626904
 20
78.58578643762691
 10
13.73121343167271
 20
78.45397909327453
 10
13.888859533960797
 20
78.3370607753949
 10
14.057206526348004
 20
78.23615747130329
 10
14.23463313526982
 20
78.15224093497743
 10
14.419430645491076
 20
78.08611932853559
 10
14.609819355967744
 20
78.03842943919354
 10
14.80396571934088
 20
78.0096305466556
 10
15.0
 20
78.0
 10
15.19603428065912
 20
78.0096305466556
 10
15.390180644032256
 20
78.03842943919354
 10
15.580569354508924
 20
78.08611932853559
 10
15.76536686473018
 20
78.15224093497743
 10
15.942793473651996
 20
78.23615747130329
 10
16.111140466039206
 20
78.3370607753949
 10
16.26878656832729
 20
78.45397909327453
 10
16.414213562373096
 20
78.58578643762691
 10
16.546020906725474
 20
78.73121343167271
 10
16.66293922460509
 20
78.8888595339608
 10
16.76384252869671
 20
79.05720652634801
 10
16.847759065022572
 20
79.23463313526982
 10
16.91388067146442
 20
79.41943064549108
  0
LWPOLYLINE
  5
7E
330
17
100
AcDbEntity
  8
default
100
AcDbPolyline
 90
5
 70
0
 10
-2.5
 20
90.0
 10
-2.5
 20
80.0
 10
2.5
 20
80.0
 10
2.5
 20
90.0
 10
-2.5
 20
90.0
  0
LWPOLYLINE
  5
7F
330
17
100
AcDbEntity
  8
default
100
AcDbPolyline
 90
5
 70
0
 10
5.0
 20
105.0
 10
-5.0
 20
105.0
 10
-5.0
 20
100.0
 10
5.0
 20
100.0
 10
5.0
 20
105.0
  0
LWPOLYLINE
  5
80
330
17
100
AcDbEntity
  8
default
100
AcDbPolyline
 90
5
 70
0
 10
25.0
 20
105.0
 10
15.0
 20
105.0
 10
15.0
 20
100.0
 10
25.0
 20
100.0
 10
25.0
 20
105.0
  0
ENDSEC
  0
SECTION
  2
OBJECTS
  0
DICTIONARY
  5
A
330
0
100
AcDbDictionary
280
0
281
1
  3
ACAD_COLOR
350
B
  3
ACAD_GROUP
350
C
  3
ACAD_LAYOUT
350
D
  3
ACAD_MATERIAL
350
E
  3
ACAD_MLEADERSTYLE
350
F
  3
ACAD_MLINESTYLE
350
10
  3
ACAD_PLOTSETTINGS
350
11
  3
ACAD_PLOTSTYLENAME
350
12
  3
ACAD_SCALELIST
350
14
  3
ACAD_TABLESTYLE
350
15
  3
ACAD_VISUALSTYLE
350
16
  3
EZDXF_META
350
2D
  0
DICTIONARY
  5
B
330
A
100
AcDbDictionary
280
0
281
1
  0
DICTIONARY
  5
C
330
A
100
AcDbDictionary
280
0
281
1
  0
DICTIONARY
  5
D
330
A
100
AcDbDictionary
280
0
281
1
  3
Model
350
1A
  3
Layout1
350
1E
  0
DICTIONARY
  5
E
330
A
100
AcDbDictionary
280
0
281
1
  3
ByBlock
350
1F
  3
ByLayer
350
20
  3
Global
350
21
  0
DICTIONARY
  5
F
330
A
100
AcDbDictionary
280
0
281
1
  3
Standard
350
2C
  0
DICTIONARY
  5
10
330
A
100
AcDbDictionary
280
0
281
1
  3
Standard
350
22
  0
DICTIONARY
  5
11
330
A
100
AcDbDictionary
280
0
281
1
  0
ACDBDICTIONARYWDFLT
  5
12
330
A
100
AcDbDictionary
280
0
281
1
  3
Normal
350
13
100
AcDbDictionaryWithDefault
340
13
  0
ACDBPLACEHOLDER
  5
13
330
12
  0
DICTIONARY
  5
14
330
A
100
AcDbDictionary
280
0
281
1
  0
DICTIONARY
  5
15
330
A
100
AcDbDictionary
280
0
281
1
  0
DICTIONARY
  5
16
330
A
100
AcDbDictionary
280
0
281
1
  0
LAYOUT
  5
1A
330
D
100
AcDbPlotSettings
  1

  2
Adobe PDF
  4
A3
  6

 40
7.5
 41
20.0
 42
7.5
 43
20.0
 44
420.0
 45
297.0
 46
0.0
 47
0.0
 48
0.0
 49
0.0
140
0.0
141
0.0
142
1.0
143
1.0
 70
1024
 72
1
 73
0
 74
5
  7

 75
16
 76
0
 77
2
 78
300
147
1.0
148
0.0
149
0.0
100
AcDbLayout
  1
Model
 70
1
 71
0
 10
0.0
 20
0.0
 11
420.0
 21
297.0
 12
0.0
 22
0.0
 32
0.0
 14
1e+20
 24
1e+20
 34
1e+20
 15
-1e+20
 25
-1e+20
 35
-1e+20
146
0.0
 13
0.0
 23
0.0
 33
0.0
 16
1.0
 26
0.0
 36
0.0
 17
0.0
 27
1.0
 37
0.0
 76
1
330
17
  0
LAYOUT
  5
1E
330
D
100
AcDbPlotSettings
  1

  2
Adobe PDF
  4
A3
  6

 40
7.5
 41
20.0
 42
7.5
 43
20.0
 44
420.0
 45
297.0
 46
0.0
 47
0.0
 48
0.0
 49
0.0
140
0.0
141
0.0
142
1.0
143
1.0
 70
0
 72
1
 73
0
 74
5
  7

 75
16
 76
0
 77
2
 78
300
147
1.0
148
0.0
149
0.0
100
AcDbLayout
  1
Layout1
 70
1
 71
1
 10
0.0
 20
0.0
 11
420.0
 21
297.0
 12
0.0
 22
0.0
 32
0.0
 14
1e+20
 24
1e+20
 34
1e+20
 15
-1e+20
 25
-1e+20
 35
-1e+20
146
0.0
 13
0.0
 23
0.0
 33
0.0
 16
1.0
 26
0.0
 36
0.0
 17
0.0
 27
1.0
 37
0.0
 76
1
330
1B
  0
MATERIAL
  5
1F
102
{ACAD_REACTORS
330
E
102
}
330
E
100
AcDbMaterial
  1
ByBlock
  2

 70
0
 40
1.0
 71
1
 41
1.0
 91
-1023410177
 42
1.0
 72
1
  3

 73
1
 74
1
 75
1
 44
0.5
 73
0
 45
1.0
 46
1.0
 77
1
  4

 78
1
 79
1
170
1
 48
1.0
171
1
  6

172
1
173
1
174
1
140
1.0
141
1.0
175
1
  7

176
1
177
1
178
1
143
1.0
179
1
  8

270
1
271
1
272
1
145
1.0
146
1.0
273
1
  9

274
1
275
1
276
1
 42
1.0
 72
1
  3

 73
1
 74
1
 75
1
 94
63
  0
MATERIAL
  5
20
102
{ACAD_REACTORS
330
E
102
}
330
E
100
AcDbMaterial
  1
ByLayer
  2

 70
0
 40
1.0
 71
1
 41
1.0
 91
-1023410177
 42
1.0
 72
1
  3

 73
1
 74
1
 75
1
 44
0.5
 73
0
 45
1.0
 46
1.0
 77
1
  4

 78
1
 79
1
170
1
 48
1.0
171
1
  6

172
1
173
1
174
1
140
1.0
141
1.0
175
1
  7

176
1
177
1
178
1
143
1.0
179
1
  8

270
1
271
1
272
1
145
1.0
146
1.0
273
1
  9

274
1
275
1
276
1
 42
1.0
 72
1
  3

 73
1
 74
1
 75
1
 94
63
  0
MATERIAL
  5
21
102
{ACAD_REACTORS
330
E
102
}
330
E
100
AcDbMaterial
  1
Global
  2

 70
0
 40
1.0
 71
1
 41
1.0
 91
-1023410177
 42
1.0
 72
1
  3

 73
1
 74
1
 75
1
 44
0.5
 73
0
 45
1.0
 46
1.0
 77
1
  4

 78
1
 79
1
170
1
 48
1.0
171
1
  6

172
1
173
1
174
1
140
1.0
141
1.0
175
1
  7

176
1
177
1
178
1
143
1.0
179
1
  8

270
1
271
1
272
1
145
1.0
146
1.0
273
1
  9

274
1
275
1
276
1
 42
1.0
 72
1
  3

 73
1
 74
1
 75
1
 94
63
  0
MLINESTYLE
  5
22
102
{ACAD_REACTORS
330
10
102
}
330
10
100
AcDbMlineStyle
  2
Standard
 70
0
  3

 62
256
 51
90.0
 52
90.0
 71
2
 49
0.5
 62
256
  6
BYLAYER
 49
-0.5
 62
256
  6
BYLAYER
  0
MLEADERSTYLE
  5
2C
102
{ACAD_REACTORS
330
F
102
}
330
F
100
AcDbMLeaderStyle
179
2
170
2
171
1
172
0
 90
2
 40
0.0
 41
0.0
173
1
 91
-1056964608
 92
-2
290
1
 42
2.0
291
1
 43
8.0
  3
Standard
 44
4.0
300

342
29
174
1
175
1
176
0
178
1
 93
-1056964608
 45
4.0
292
0
297
0
 46
4.0
 94
-1056964608
 47
1.0
 49
1.0
140
1.0
294
1
141
0.0
177
0
142
1.0
295
0
296
0
143
3.75
271
0
272
9
273
9
  0
DICTIONARY
  5
2D
330
A
100
AcDbDictionary
281
1
  3
CREATED_BY_EZDXF
350
2E
  3
WRITTEN_BY_EZDXF
350
83
  0
DICTIONARYVAR
  5
2E
330
2D
100
DictionaryVariables
280
0
  1
1.1.1 @ 2023-10-17T16:57:03.923796+00:00
  0
DICTIONARYVAR
  5
83
330
2D
100
DictionaryVariables
280
0
  1
1.1.1 @ 2023-10-17T16:57:03.949294+00:00
  0
ENDSEC
  0
EOF
