  0
SECTION
  2
HEADER
  9
$ACADVER
  1
AC1024
  9
$ACADMAINTVER
 70
6
  9
$DWGCODEPAGE
  3
ANSI_1252
  9
$LASTSAVEDBY
  1
ezdxf
  9
$INSBASE
 10
0.0
 20
0.0
 30
0.0
  9
$EXTMIN
 10
1e+20
 20
1e+20
 30
1e+20
  9
$EXTMAX
 10
-1e+20
 20
-1e+20
 30
-1e+20
  9
$LIMMIN
 10
0.0
 20
0.0
  9
$LIMMAX
 10
420.0
 20
297.0
  9
$ORTHOMODE
 70
0
  9
$REGENMODE
 70
1
  9
$FILLMODE
 70
1
  9
$QTEXTMODE
 70
0
  9
$MIRRTEXT
 70
1
  9
$LTSCALE
 40
1.0
  9
$ATTMODE
 70
1
  9
$TEXTSIZE
 40
2.5
  9
$TRACEWID
 40
1.0
  9
$TEXTSTYLE
  7
Standard
  9
$CLAYER
  8
0
  9
$CELTYPE
  6
ByLayer
  9
$CECOLOR
 62
256
  9
$CELTSCALE
 40
1.0
  9
$DISPSILH
 70
0
  9
$DIMSCALE
 40
1.0
  9
$DIMASZ
 40
2.5
  9
$DIMEXO
 40
0.625
  9
$DIMDLI
 40
3.75
  9
$DIMRND
 40
0.0
  9
$DIMDLE
 40
0.0
  9
$DIMEXE
 40
1.25
  9
$DIMTP
 40
0.0
  9
$DIMTM
 40
0.0
  9
$DIMTXT
 40
2.5
  9
$DIMCEN
 40
2.5
  9
$DIMTSZ
 40
0.0
  9
$DIMTOL
 70
0
  9
$DIMLIM
 70
0
  9
$DIMTIH
 70
0
  9
$DIMTOH
 70
0
  9
$DIMSE1
 70
0
  9
$DIMSE2
 70
0
  9
$DIMTAD
 70
1
  9
$DIMZIN
 70
8
  9
$DIMBLK
  1

  9
$DIMASO
 70
1
  9
$DIMSHO
 70
1
  9
$DIMPOST
  1

  9
$DIMAPOST
  1

  9
$DIMALT
 70
0
  9
$DIMALTD
 70
3
  9
$DIMALTF
 40
0.03937007874
  9
$DIMLFAC
 40
1.0
  9
$DIMTOFL
 70
1
  9
$DIMTVP
 40
0.0
  9
$DIMTIX
 70
0
  9
$DIMSOXD
 70
0
  9
$DIMSAH
 70
0
  9
$DIMBLK1
  1

  9
$DIMBLK2
  1

  9
$DIMSTYLE
  2
ISO-25
  9
$DIMCLRD
 70
0
  9
$DIMCLRE
 70
0
  9
$DIMCLRT
 70
0
  9
$DIMTFAC
 40
1.0
  9
$DIMGAP
 40
0.625
  9
$DIMJUST
 70
0
  9
$DIMSD1
 70
0
  9
$DIMSD2
 70
0
  9
$DIMTOLJ
 70
0
  9
$DIMTZIN
 70
8
  9
$DIMALTZ
 70
0
  9
$DIMALTTZ
 70
0
  9
$DIMUPT
 70
0
  9
$DIMDEC
 70
2
  9
$DIMTDEC
 70
2
  9
$DIMALTU
 70
2
  9
$DIMALTTD
 70
3
  9
$DIMTXSTY
  7
Standard
  9
$DIMAUNIT
 70
0
  9
$DIMADEC
 70
0
  9
$DIMALTRND
 40
0.0
  9
$DIMAZIN
 70
0
  9
$DIMDSEP
 70
44
  9
$DIMATFIT
 70
3
  9
$DIMFRAC
 70
0
  9
$DIMLDRBLK
  1

  9
$DIMLUNIT
 70
2
  9
$DIMLWD
 70
-2
  9
$DIMLWE
 70
-2
  9
$DIMTMOVE
 70
0
  9
$DIMFXL
 40
1.0
  9
$DIMFXLON
 70
0
  9
$DIMJOGANG
 40
0.785398163397
  9
$DIMTFILL
 70
0
  9
$DIMTFILLCLR
 70
0
  9
$DIMARCSYM
 70
0
  9
$DIMLTYPE
  6

  9
$DIMLTEX1
  6

  9
$DIMLTEX2
  6

  9
$DIMTXTDIRECTION
 70
0
  9
$LUNITS
 70
2
  9
$LUPREC
 70
4
  9
$SKETCHINC
 40
1.0
  9
$FILLETRAD
 40
10.0
  9
$AUNITS
 70
0
  9
$AUPREC
 70
2
  9
$MENU
  1
.
  9
$ELEVATION
 40
0.0
  9
$PELEVATION
 40
0.0
  9
$THICKNESS
 40
0.0
  9
$LIMCHECK
 70
0
  9
$CHAMFERA
 40
0.0
  9
$CHAMFERB
 40
0.0
  9
$CHAMFERC
 40
0.0
  9
$CHAMFERD
 40
0.0
  9
$SKPOLY
 70
0
  9
$TDCREATE
 40
2460236.8628819445
  9
$TDUCREATE
 40
2458532.153996898
  9
$TDUPDATE
 40
2460236.8628819445
  9
$TDUUPDATE
 40
2458532.1544311
  9
$TDINDWG
 40
0.0
  9
$TDUSRTIMER
 40
0.0
  9
$USRTIMER
 70
1
  9
$ANGBASE
 50
0.0
  9
$ANGDIR
 70
0
  9
$PDMODE
 70
0
  9
$PDSIZE
 40
0.0
  9
$PLINEWID
 40
0.0
  9
$SPLFRAME
 70
0
  9
$SPLINETYPE
 70
6
  9
$SPLINESEGS
 70
8
  9
$HANDSEED
  5
5B
  9
$SURFTAB1
 70
6
  9
$SURFTAB2
 70
6
  9
$SURFTYPE
 70
6
  9
$SURFU
 70
6
  9
$SURFV
 70
6
  9
$UCSBASE
  2

  9
$UCSNAME
  2

  9
$UCSORG
 10
0.0
 20
0.0
 30
0.0
  9
$UCSXDIR
 10
1.0
 20
0.0
 30
0.0
  9
$UCSYDIR
 10
0.0
 20
1.0
 30
0.0
  9
$UCSORTHOREF
  2

  9
$UCSORTHOVIEW
 70
0
  9
$UCSORGTOP
 10
0.0
 20
0.0
 30
0.0
  9
$UCSORGBOTTOM
 10
0.0
 20
0.0
 30
0.0
  9
$UCSORGLEFT
 10
0.0
 20
0.0
 30
0.0
  9
$UCSORGRIGHT
 10
0.0
 20
0.0
 30
0.0
  9
$UCSORGFRONT
 10
0.0
 20
0.0
 30
0.0
  9
$UCSORGBACK
 10
0.0
 20
0.0
 30
0.0
  9
$PUCSBASE
  2

  9
$PUCSNAME
  2

  9
$PUCSORG
 10
0.0
 20
0.0
 30
0.0
  9
$PUCSXDIR
 10
1.0
 20
0.0
 30
0.0
  9
$PUCSYDIR
 10
0.0
 20
1.0
 30
0.0
  9
$PUCSORTHOREF
  2

  9
$PUCSORTHOVIEW
 70
0
  9
$PUCSORGTOP
 10
0.0
 20
0.0
 30
0.0
  9
$PUCSORGBOTTOM
 10
0.0
 20
0.0
 30
0.0
  9
$PUCSORGLEFT
 10
0.0
 20
0.0
 30
0.0
  9
$PUCSORGRIGHT
 10
0.0
 20
0.0
 30
0.0
  9
$PUCSORGFRONT
 10
0.0
 20
0.0
 30
0.0
  9
$PUCSORGBACK
 10
0.0
 20
0.0
 30
0.0
  9
$USERI1
 70
0
  9
$USERI2
 70
0
  9
$USERI3
 70
0
  9
$USERI4
 70
0
  9
$USERI5
 70
0
  9
$USERR1
 40
0.0
  9
$USERR2
 40
0.0
  9
$USERR3
 40
0.0
  9
$USERR4
 40
0.0
  9
$USERR5
 40
0.0
  9
$WORLDVIEW
 70
1
  9
$SHADEDGE
 70
3
  9
$SHADEDIF
 70
70
  9
$TILEMODE
 70
1
  9
$MAXACTVP
 70
64
  9
$PINSBASE
 10
0.0
 20
0.0
 30
0.0
  9
$PLIMCHECK
 70
0
  9
$PEXTMIN
 10
1e+20
 20
1e+20
 30
1e+20
  9
$PEXTMAX
 10
-1e+20
 20
-1e+20
 30
-1e+20
  9
$PLIMMIN
 10
0.0
 20
0.0
  9
$PLIMMAX
 10
420.0
 20
297.0
  9
$UNITMODE
 70
0
  9
$VISRETAIN
 70
1
  9
$PLINEGEN
 70
0
  9
$PSLTSCALE
 70
1
  9
$TREEDEPTH
 70
3020
  9
$CMLSTYLE
  2
Standard
  9
$CMLJUST
 70
0
  9
$CMLSCALE
 40
20.0
  9
$PROXYGRAPHICS
 70
1
  9
$MEASUREMENT
 70
1
  9
$CELWEIGHT
370
-1
  9
$ENDCAPS
280
0
  9
$JOINSTYLE
280
0
  9
$LWDISPLAY
290
0
  9
$INSUNITS
 70
4
  9
$HYPERLINKBASE
  1

  9
$STYLESHEET
  1

  9
$XEDIT
290
1
  9
$CEPSNTYPE
380
0
  9
$PSTYLEMODE
290
1
  9
$FINGERPRINTGUID
  2
{C7AFB6BD-521A-48D8-A24C-9303A51792C4}
  9
$VERSIONGUID
  2
{C8980AA5-0629-40F1-8EA1-B3173B873E3C}
  9
$EXTNAMES
290
1
  9
$PSVPSCALE
 40
0.0
  9
$OLESTARTUP
290
0
  9
$SORTENTS
280
127
  9
$INDEXCTL
280
0
  9
$HIDETEXT
280
1
  9
$XCLIPFRAME
280
0
  9
$HALOGAP
280
0
  9
$OBSCOLOR
 70
257
  9
$OBSLTYPE
280
0
  9
$INTERSECTIONDISPLAY
280
0
  9
$INTERSECTIONCOLOR
 70
257
  9
$DIMASSOC
280
2
  9
$PROJECTNAME
  1

  9
$CAMERADISPLAY
290
0
  9
$LENSLENGTH
 40
50.0
  9
$CAMERAHEIGHT
 40
0.0
  9
$STEPSPERSEC
 40
24.0
  9
$STEPSIZE
 40
100.0
  9
$3DDWFPREC
 40
2.0
  9
$PSOLWIDTH
 40
0.005
  9
$PSOLHEIGHT
 40
0.08
  9
$LOFTANG1
 40
1.570796326795
  9
$LOFTANG2
 40
1.570796326795
  9
$LOFTMAG1
 40
0.0
  9
$LOFTMAG2
 40
0.0
  9
$LOFTPARAM
 70
7
  9
$LOFTNORMALS
280
1
  9
$LATITUDE
 40
37.795
  9
$LONGITUDE
 40
-122.394
  9
$NORTHDIRECTION
 40
0.0
  9
$TIMEZONE
 70
-8000
  9
$LIGHTGLYPHDISPLAY
280
1
  9
$TILEMODELIGHTSYNCH
280
1
  9
$CMATERIAL
347
20
  9
$SOLIDHIST
280
0
  9
$SHOWHIST
280
1
  9
$DWFFRAME
280
2
  9
$DGNFRAME
280
2
  9
$REALWORLDSCALE
290
1
  9
$INTERFERECOLOR
 62
256
  9
$CSHADOW
280
0
  9
$SHADOWPLANELOCATION
 40
0.0
  0
ENDSEC
  0
SECTION
  2
CLASSES
  0
CLASS
  1
ACDBDICTIONARYWDFLT
  2
AcDbDictionaryWithDefault
  3
ObjectDBX Classes
 90
0
 91
0
280
0
281
0
  0
CLASS
  1
SUN
  2
AcDbSun
  3
SCENEOE
 90
1153
 91
0
280
0
281
0
  0
CLASS
  1
VISUALSTYLE
  2
AcDbVisualStyle
  3
ObjectDBX Classes
 90
4095
 91
0
280
0
281
0
  0
CLASS
  1
MATERIAL
  2
AcDbMaterial
  3
ObjectDBX Classes
 90
1153
 91
0
280
0
281
0
  0
CLASS
  1
SCALE
  2
AcDbScale
  3
ObjectDBX Classes
 90
1153
 91
0
280
0
281
0
  0
CLASS
  1
TABLESTYLE
  2
AcDbTableStyle
  3
ObjectDBX Classes
 90
4095
 91
0
280
0
281
0
  0
CLASS
  1
MLEADERSTYLE
  2
AcDbMLeaderStyle
  3
ACDB_MLEADERSTYLE_CLASS
 90
4095
 91
0
280
0
281
0
  0
CLASS
  1
DICTIONARYVAR
  2
AcDbDictionaryVar
  3
ObjectDBX Classes
 90
0
 91
0
280
0
281
0
  0
CLASS
  1
CELLSTYLEMAP
  2
AcDbCellStyleMap
  3
ObjectDBX Classes
 90
1152
 91
0
280
0
281
0
  0
CLASS
  1
MENTALRAYRENDERSETTINGS
  2
AcDbMentalRayRenderSettings
  3
SCENEOE
 90
1024
 91
0
280
0
281
0
  0
CLASS
  1
ACDBDETAILVIEWSTYLE
  2
AcDbDetailViewStyle
  3
ObjectDBX Classes
 90
1025
 91
0
280
0
281
0
  0
CLASS
  1
ACDBSECTIONVIEWSTYLE
  2
AcDbSectionViewStyle
  3
ObjectDBX Classes
 90
1025
 91
0
280
0
281
0
  0
CLASS
  1
RASTERVARIABLES
  2
AcDbRasterVariables
  3
ISM
 90
0
 91
0
280
0
281
0
  0
CLASS
  1
LAYOUT
  2
AcDbLayout
  3
ObjectDBX Classes
 90
0
 91
0
280
0
281
0
  0
CLASS
  1
ACDBPLACEHOLDER
  2
AcDbPlaceHolder
  3
ObjectDBX Classes
 90
0
 91
0
280
0
281
0
  0
ENDSEC
  0
SECTION
  2
TABLES
  0
TABLE
  2
VPORT
  5
8
330
0
100
AcDbSymbolTable
 70
1
  0
VPORT
  5
23
330
8
100
AcDbSymbolTableRecord
100
AcDbViewportTableRecord
  2
*Active
 70
0
 10
0.0
 20
0.0
 11
1.0
 21
1.0
 12
0.0
 22
0.0
 13
0.0
 23
0.0
 14
0.5
 24
0.5
 15
0.5
 25
0.5
 16
0.0
 26
0.0
 36
1.0
 17
0.0
 27
0.0
 37
0.0
 40
1000.0
 41
1.34
 42
50.0
 43
0.0
 44
0.0
 50
0.0
 51
0.0
 71
0
 72
1000
 73
1
 74
3
 75
0
 76
0
 77
0
 78
0
281
0
 65
0
146
0.0
  0
ENDTAB
  0
TABLE
  2
LTYPE
  5
2
330
0
100
AcDbSymbolTable
 70
3
  0
LTYPE
  5
24
330
2
100
AcDbSymbolTableRecord
100
AcDbLinetypeTableRecord
  2
ByBlock
 70
0
  3

 72
65
 73
0
 40
0.0
  0
LTYPE
  5
25
330
2
100
AcDbSymbolTableRecord
100
AcDbLinetypeTableRecord
  2
ByLayer
 70
0
  3

 72
65
 73
0
 40
0.0
  0
LTYPE
  5
26
330
2
100
AcDbSymbolTableRecord
100
AcDbLinetypeTableRecord
  2
Continuous
 70
0
  3

 72
65
 73
0
 40
0.0
  0
ENDTAB
  0
TABLE
  2
LAYER
  5
1
330
0
100
AcDbSymbolTable
 70
2
  0
LAYER
  5
27
330
1
100
AcDbSymbolTableRecord
100
AcDbLayerTableRecord
  2
0
 70
0
 62
7
  6
Continuous
370
-3
390
13
347
21
  0
LAYER
  5
28
330
1
100
AcDbSymbolTableRecord
100
AcDbLayerTableRecord
  2
Defpoints
 70
0
 62
7
  6
Continuous
290
0
370
-3
390
13
347
21
  0
ENDTAB
  0
TABLE
  2
STYLE
  5
5
330
0
100
AcDbSymbolTable
 70
1
  0
STYLE
  5
29
330
5
100
AcDbSymbolTableRecord
100
AcDbTextStyleTableRecord
  2
Standard
 70
0
 40
0.0
 41
1.0
 50
0.0
 71
0
 42
2.5
  3
txt
  4

  0
ENDTAB
  0
TABLE
  2
VIEW
  5
7
330
0
100
AcDbSymbolTable
 70
0
  0
ENDTAB
  0
TABLE
  2
UCS
  5
6
330
0
100
AcDbSymbolTable
 70
0
  0
ENDTAB
  0
TABLE
  2
APPID
  5
3
330
0
100
AcDbSymbolTable
 70
3
  0
APPID
  5
2A
330
3
100
AcDbSymbolTableRecord
100
AcDbRegAppTableRecord
  2
ACAD
 70
0
  0
APPID
  5
58
330
3
100
AcDbSymbolTableRecord
100
AcDbRegAppTableRecord
  2
HATCHBACKGROUNDCOLOR
 70
0
  0
APPID
  5
59
330
3
100
AcDbSymbolTableRecord
100
AcDbRegAppTableRecord
  2
EZDXF
 70
0
  0
ENDTAB
  0
TABLE
  2
DIMSTYLE
  5
4
330
0
100
AcDbSymbolTable
 70
1
100
AcDbDimStyleTable
  0
DIMSTYLE
105
2B
330
4
100
AcDbSymbolTableRecord
100
AcDbDimStyleTableRecord
  2
Standard
 70
0
 40
1.0
 41
2.5
 42
0.625
 43
3.75
 44
1.25
 45
0.0
 46
0.0
 47
0.0
 48
0.0
 49
2.5
140
2.5
141
2.5
142
0.0
143
0.03937007874
144
1.0
145
0.0
146
1.0
147
0.625
148
0.0
 69
0
 70
0
 71
0
 72
0
 73
0
 74
0
 75
0
 76
0
 77
1
 78
8
 79
3
170
0
171
3
172
1
173
0
174
0
175
0
176
0
177
0
178
0
179
2
271
2
272
2
273
2
274
3
275
0
276
0
277
2
278
44
279
0
280
0
281
0
282
0
283
0
284
8
285
0
286
0
288
0
289
3
290
0
371
-2
372
-2
  0
ENDTAB
  0
TABLE
  2
BLOCK_RECORD
  5
9
330
0
100
AcDbSymbolTable
 70
2
  0
BLOCK_RECORD
  5
17
330
9
100
AcDbSymbolTableRecord
100
AcDbBlockTableRecord
  2
*Model_Space
340
1A
 70
0
280
1
281
0
  0
BLOCK_RECORD
  5
1B
330
9
100
AcDbSymbolTableRecord
100
AcDbBlockTableRecord
  2
*Paper_Space
340
1E
 70
0
280
1
281
0
  0
ENDTAB
  0
ENDSEC
  0
SECTION
  2
BLOCKS
  0
BLOCK
  5
18
330
17
100
AcDbEntity
  8
0
100
AcDbBlockBegin
  2
*Model_Space
 70
0
 10
0.0
 20
0.0
 30
0.0
  3
*Model_Space
  1

  0
ENDBLK
  5
19
330
17
100
AcDbEntity
  8
0
100
AcDbBlockEnd
  0
BLOCK
  5
1C
330
1B
100
AcDbEntity
  8
0
100
AcDbBlockBegin
  2
*Paper_Space
 70
0
 10
0.0
 20
0.0
 30
0.0
  3
*Paper_Space
  1

  0
ENDBLK
  5
1D
330
1B
100
AcDbEntity
  8
0
100
AcDbBlockEnd
  0
ENDSEC
  0
SECTION
  2
ENTITIES
  0
LWPOLYLINE
  5
2F
330
17
100
AcDbEntity
  8
default
100
AcDbPolyline
 90
278
 70
0
 10
100.0
 20
60.0
 10
100.0
 20
59.30126955627268
 10
100.0
 20
53.71229592473776
 10
100.0
 20
37.19540535596113
 10
97.1002571404703
 20
33.38350973508155
 10
97.0
 20
33.2644634040796
 10
96.90859161187075
 20
33.155924170080475
 10
96.69532449905674
 20
32.94844404370162
 10
96.46255366000757
 20
32.763110288711985
 10
96.21256880622917
 20
32.60174598927868
 10
95.94782897940537
 20
32.4659384477226
 10
95.67093836238838
 20
32.35702357060214
 10
95.38462066247016
 20
32.276072727717434
 10
95.09169231892001
 20
32.22388221329985
 10
94.79503479833991
 20
32.20096541305463
 10
94.49756625036136
 20
32.207547754107495
 10
94.20221280249986
 20
32.24356448753153
 10
93.91187977653306
 20
32.30866132526701
 10
93.62942310953972
 20
32.40219792516899
 10
93.35762126072453
 20
32.52325418990097
 10
93.09914788037422
 20
32.6706393177141
 10
92.85654550979413
 20
32.8429035160814
 10
82.77318213742726
 20
40.78337810217706
 10
82.54690494957867
 20
40.98068826914502
 10
82.3414816355606
 20
41.19962645628335
 10
82.15896945662928
 20
41.438000054383735
 10
82.0011962249603
 20
41.69342181363362
 10
81.86974199858327
 20
41.96333375130442
 10
81.76592325751017
 20
42.24503276928563
 10
81.69077971952913
 20
42.535697724912
 10
81.64506392770026
 20
42.832417683976175
 10
81.6292337138319
 20
43.13222107298048
 10
81.64344761341363
 20
43.43210543867543
 10
81.68756327792457
 20
43.72906751685098
 10
81.76113890041684
 20
44.020133309249296
 10
81.86343764009764
 20
44.302387867386635
 10
81.99343500159888
 20
44.573004485007026
 10
85.11441221054851
 20
50.314783729977556
 10
85.27055991447648
 20
50.570690496534915
 10
85.44388482975339
 20
50.799715038458324
 10
85.43962915514089
 20
50.809756126413006
 10
85.35114996576613
 20
51.094249309225994
 10
85.31340950687738
 20
51.27837475405979
 10
85.20979535694556
 20
51.30293415508311
 10
84.92436120783573
 20
51.40180931863731
 10
84.6503172947856
 20
51.52888758257767
 10
84.3904420866525
 20
51.68288052931126
 10
84.14737039901962
 20
51.862226859402604
 10
77.78675588271295
 20
57.06961832448537
 10
77.56919755220129
 20
57.26625555079678
 10
77.3718772103861
 20
57.48319450223797
 10
77.19668031509084
 20
57.71836225901039
 10
77.04528092766087
 20
57.9695117193568
 10
76.91912571678155
 20
58.23424307132415
 10
76.81942013510483
 20
58.51002672372033
 10
76.7471169007706
 20
58.79422747715226
 10
76.70290689388573
 20
59.08412970418356
 10
76.68721255494764
 20
59.37696329800736
 10
76.70018384829282
 20
59.66993014168668
 10
77.3765222321257
 20
66.91029877917977
 10
70.24639398990159
 20
68.30809252247482
 10
69.95477111919325
 20
68.38059906903926
 10
69.67186489963403
 20
68.48191623910229
 10
69.40051385814185
 20
68.61102747136341
 10
69.14344058327164
 20
68.76663733404048
 10
68.90322440824461
 20
68.94718452252664
 10
68.68227553132365
 20
69.15085752467039
 10
68.48281083319667
 20
69.37561279650173
 10
68.3068316340032
 20
69.61919526603945
 10
68.15610361317827
 20
69.87916095945509
 10
63.26619819304629
 20
79.37986714038523
 10
63.143565744224624
 20
79.65023079437282
 10
63.04825578844457
 20
79.93139130943622
 10
62.981201677283636
 20
80.2205953361681
 10
62.94306005841221
 20
80.51501075663957
 10
62.93420444517263
 20
80.81175441877183
 10
62.95472155883677
 20
81.10792037047528
 10
63.004410479361745
 20
81.40060831706445
 10
63.082784612960175
 20
81.68695202327119
 10
63.18907645721713
 20
81.96414738172074
 10
63.322245117089714
 20
82.22947987300151
 10
63.480986498186645
 20
82.48035114841771
 10
63.6637460775072
 20
82.7143044751051
 10
63.86873412657794
 20
82.92904879433075
 10
68.76131394100999
 20
87.57119239784357
 10
59.6366898138365
 20
100.69741699318955
 10
59.47997159313138
 20
100.9484340959485
 10
59.348746219542136
 20
101.2136700058567
 10
59.24429051867421
 20
101.49054397201216
 10
59.16762084666251
 20
101.77636200498435
 10
59.11948320100514
 20
102.06834308938716
 10
59.10034596199229
 20
102.3636462432163
 10
59.11039533535629
 20
102.65939816066309
 10
59.149533540485976
 20
102.95272116943958
 10
59.21737976183405
 20
103.24076123058953
 10
59.3132738542603
 20
103.52071570834656
 10
59.436282766257435
 20
103.78986063983841
 10
59.58520961856163
 20
104.04557723930202
 10
59.75860534981257
 20
104.28537737892339
 10
59.95478281595054
 20
104.50692779837267
 10
65.17434499034682
 20
109.84607673583149
 10
59.98804256020921
 20
118.34068061471129
 10
59.851036829720954
 20
118.59114982141722
 10
59.73846008354882
 20
118.853508106813
 10
59.65133183413922
 20
119.12537951363859
 10
59.59044112841104
 20
119.40430193233318
 10
59.55633940202457
 20
119.68774939828054
 10
59.5493354854948
 20
119.9731549673358
 10
59.56949280737441
 20
120.25793396246915
 10
59.616628819835
 20
120.53950738100121
 10
59.690316651848484
 20
120.81532525045073
 10
59.78988897499721
 20
121.08288972148019
 10
59.9144440469035
 20
121.3397776888063
 10
62.953984194778
 20
126.91602454691508
 10
62.95398419483617
 20
126.91602454701066
 10
62.95398419468237
 20
126.91602454723754
 10
59.644582831547986
 20
132.3364669598449
 10
59.64458283140091
 20
132.33646696011377
 10
53.295641320510775
 20
132.18066251509237
 10
53.01022575941501
 20
132.18724667540224
 10
52.72672844630623
 20
132.22093149605934
 10
52.44771677675255
 20
132.28141192211157
 10
52.17571752363939
 20
132.368140233455
 10
51.913193954323035
 20
132.4803310050719
 10
51.662523522899924
 20
132.61696821996136
 10
51.42597633961426
 20
132.77681447034658
 10
51.20569461238805
 20
132.9584221638313
 10
51.0036732466545
 20
133.1601466330207
 10
50.821741779185416
 20
133.38016102988405
 10
50.66154780952295
 20
133.6164728699733
 10
47.35214644685423
 20
139.03691528258068
 10
47.215140716397734
 20
139.28738448927115
 10
47.10256397025323
 20
139.54974277464746
 10
47.01543572086666
 20
139.8216141814502
 10
46.954545015156555
 20
140.10053660011926
 10
46.92044328878293
 20
140.38398406603915
 10
46.91343937226059
 20
140.66938963506578
 10
46.933596694142146
 20
140.95416863017013
 10
46.980732706599206
 20
141.2357420486736
 10
47.05442053860381
 20
141.51155991809566
 10
47.153992861738516
 20
141.77912438909962
 10
47.27854793362594
 20
142.03601235640286
 10
50.31808808103478
 20
147.612259214046
 10
50.318088081145795
 20
147.61225921422843
 10
50.31808808082364
 20
147.61225921470364
 10
47.00868671815492
 20
153.03270162777667
 10
47.00868671814922
 20
153.0327016277871
 10
40.65974520749511
 20
152.8768971823058
 10
40.374329646377966
 20
152.88348134259624
 10
40.0908323332463
 20
152.917166163238
 10
39.81182066366878
 20
152.9776465892791
 10
39.53982141053145
 20
153.06437490061558
 10
39.27729784119116
 20
153.1765656722297
 10
39.026627409744904
 20
153.31320288712044
 10
38.79008022643744
 20
153.47304913751077
 10
38.569798499191286
 20
153.65465683100416
 10
38.367777133440114
 20
153.85638130020553
 10
38.185845665956165
 20
154.07639569708374
 10
38.02565169628196
 20
154.31270753719033
 10
35.72258284469553
 20
158.08488586019845
 10
35.58334913559955
 20
158.33994289419405
 10
35.469444916070216
 20
158.60727404672338
 10
35.38193886227959
 20
158.88437115405083
 10
35.32165197660128
 20
159.1686344259564
 10
35.28914988477312
 20
159.4573968375789
 10
35.28473752906345
 20
159.74794915207036
 10
35.30845630723112
 20
160.03756533929317
 10
35.3600836841219
 20
160.32352815207594
 10
35.4391352795457
 20
160.60315462006528
 10
35.54486941284536
 20
160.87382122198474
 10
38.76942432195236
 20
168.0777646085729
 10
35.07674013761372
 20
171.99194760562312
 10
27.814154956572768
 20
167.60137927894954
 10
27.565371190398377
 20
167.4665714300067
 10
27.304993107951727
 20
167.35580242427892
 10
27.035337105515243
 20
167.2700576938374
 10
26.75880211834379
 20
167.2101000477979
 10
26.47784827906537
 20
167.17646288615742
 10
26.194975031652852
 20
167.16944545451847
 10
25.912698895670953
 20
167.1891101819166
 10
25.633531078614038
 20
167.23528212543414
 10
25.359955135501497
 20
167.30755052654138
 10
25.09440487447737
 20
167.40527246531937
 10
24.83924270497202
 20
167.52757858005546
 10
20.634131396948685
 20
169.79300322509565
 10
20.389520146940896
 20
169.94021304157957
 10
20.160009698304634
 20
170.11000805819188
 10
19.947678533203707
 20
170.3008505849685
 10
19.754449555549918
 20
170.51101232243388
 10
19.582072676887474
 20
170.73859001334887
 10
19.43210896892305
 20
170.98152267890285
 10
19.305916526218677
 20
171.2376102832571
 10
19.204638167077086
 20
171.50453365741004
 10
19.129191084002173
 20
171.77987550195076
 10
19.080258537461656
 20
172.0611422784969
 10
19.05828366817449
 20
172.34578679156436
 10
18.871288344430162
 20
178.69388619873445
 10
18.871288344102847
 20
178.69388619889116
 10
10.971054265114415
 20
182.9499887543226
 10
10.720909428889952
 20
183.1009073057558
 10
10.48662996100623
 20
183.2754409104988
 10
10.270437581769254
 20
183.47193443053524
 10
10.074382487908995
 20
183.6885244774624
 10
9.900323910142758
 20
183.92315708338592
 10
9.749912481708488
 20
184.17360717911922
 10
9.684307236196625
 20
184.31173566025439
 10
9.568152349695428
 20
184.31976680209394
 10
9.269695839481404
 20
184.3710036776875
 10
8.977925127088092
 20
184.4520675864214
 10
8.695813080705138
 20
184.56213256357285
 10
4.068923708926322
 20
186.64212458407553
 10
3.8012444560646435
 20
186.77897367539532
 10
3.5486057811242016
 20
186.94192629468074
 10
3.313544733784289
 20
187.12934603812073
 10
3.0984218455625276
 20
187.33935079799718
 10
2.9053974248705248
 20
187.56983166319895
 10
2.7364098627512456
 20
187.8184740973421
 10
2.5931561671563816
 20
188.0827811818216
 10
2.4770749212424983
 20
188.360098690383
 10
2.3893318368222722
 20
188.64764174341
 10
2.3308080480460487
 20
188.94252277425957
 10
1.4413562824951065
 20
195.0
 10
4.473524742532866
 20
195.0
 10
10.0
 20
195.0
 10
10.0
 20
200.0
 10
20.0
 20
200.0
 10
20.0
 20
195.0
 10
27.5
 20
195.0
 10
27.5
 20
200.0
 10
37.5
 20
200.0
 10
37.5
 20
195.0
 10
41.54983652727886
 20
195.0
 10
45.0
 20
195.0
 10
45.0
 20
200.0
 10
55.0
 20
200.0
 10
55.0
 20
195.0
 10
56.41525200897411
 20
195.0
 10
62.5
 20
195.0
 10
62.5
 20
200.0
 10
72.5
 20
200.0
 10
72.5
 20
195.0
 10
76.41049245380955
 20
195.0
 10
80.0
 20
195.0
 10
80.0
 20
200.0
 10
90.0
 20
200.0
 10
90.0
 20
195.0
 10
90.96521495055323
 20
195.0
 10
97.0
 20
195.0
 10
99.21442549981596
 20
195.0
 10
100.0
 20
195.0
 10
100.0
 20
192.0
 10
100.0
 20
189.92540387750574
 10
100.0
 20
187.40973308663706
 10
100.0
 20
183.98801119649372
 10
100.0
 20
180.0
 10
105.0
 20
180.0
 10
105.0
 20
170.0
 10
100.0
 20
170.0
 10
100.0
 20
159.12719538234558
 10
100.0
 20
146.25996938729304
 10
100.0
 20
137.32860089405509
 10
100.0
 20
131.21358143770146
 10
100.0
 20
128.18576942577675
 10
100.0
 20
125.0
 10
105.0
 20
125.0
 10
105.0
 20
115.0
 10
100.0
 20
115.0
 10
100.0
 20
114.91151544475261
 10
100.0
 20
107.15024058876435
 10
100.0
 20
103.8861063172073
 10
100.0
 20
92.86099499160359
 10
100.0
 20
89.81659043961699
 10
100.0
 20
78.57199612951764
 10
100.0
 20
75.54774663875116
 10
100.0
 20
70.0
 10
105.0
 20
70.0
 10
105.0
 20
60.0
 10
100.0
 20
60.0
  0
LWPOLYLINE
  5
30
330
17
100
AcDbEntity
  8
default
100
AcDbPolyline
 90
5
 70
0
 10
4.91403078113818
 20
192.0
 10
5.298980865161866
 20
189.37835545744747
 10
9.925870236940682
 20
187.29836343694478
 10
13.002866407509941
 20
192.0
 10
4.91403078113818
 20
192.0
  0
LWPOLYLINE
  5
31
330
17
100
AcDbEntity
  8
default
100
AcDbPolyline
 90
13
 70
0
 10
42.68410069811975
 20
186.5235146495996
 10
42.6841007015719
 20
186.52351465185828
 10
43.5593798677437
 20
187.15891325147822
 10
44.00354335550219
 20
188.91252177208662
 10
43.921724434120215
 20
188.98326564394966
 10
43.92172443128222
 20
188.98326564616428
 10
40.52335824729211
 20
191.92162730900188
 10
40.432716204746264
 20
192.0
 10
28.483669095279517
 20
192.0
 10
28.696956871536226
 20
184.7593269345814
 10
28.69695687156103
 20
184.75932693456951
 10
35.33079688412986
 20
181.1854703698327
 10
42.68410069811975
 20
186.5235146495996
  0
LWPOLYLINE
  5
32
330
17
100
AcDbEntity
  8
default
100
AcDbPolyline
 90
4
 70
0
 10
45.88388764176802
 20
191.2526081801379
 10
47.271412564496636
 20
192.0
 10
45.01949061428838
 20
192.0
 10
45.88388764176802
 20
191.2526081801379
  0
LWPOLYLINE
  5
33
330
17
100
AcDbEntity
  8
default
100
AcDbPolyline
 90
6
 70
0
 10
70.41497849552073
 20
192.0
 10
57.66256031657791
 20
192.0
 10
60.673024883824446
 20
188.19939700267054
 10
63.7691444773227
 20
184.29065762273967
 10
70.27259800350294
 20
185.49018687941134
 10
70.41497849552073
 20
192.0
  0
LWPOLYLINE
  5
34
330
17
100
AcDbEntity
  8
default
100
AcDbPolyline
 90
6
 70
0
 10
84.41832668486516
 20
192.0
 10
73.41569596516469
 20
192.0
 10
73.26127922488376
 20
184.93987465044484
 10
77.94894214952365
 20
181.14876993419603
 10
84.18718431796879
 20
181.4318835893646
 10
84.41832668486516
 20
192.0
  0
LWPOLYLINE
  5
35
330
17
100
AcDbEntity
  8
default
100
AcDbPolyline
 90
9
 70
0
 10
87.93592730407953
 20
180.7919655214633
 10
87.93592730816786
 20
180.79196552397212
 10
97.0
 20
185.76407799194948
 10
97.0
 20
192.0
 10
87.41904415455045
 20
192.0
 10
87.1742350445129
 20
180.80702309310436
 10
87.4812172634103
 20
180.6108509159735
 10
87.53874350388222
 20
180.57408967336139
 10
87.93592730407953
 20
180.7919655214633
  0
LWPOLYLINE
  5
36
330
17
100
AcDbEntity
  8
default
100
AcDbPolyline
 90
7
 70
0
 10
97.0
 20
171.1732894730074
 10
97.0
 20
182.34235610184714
 10
89.37875797758983
 20
178.16171084794254
 10
90.95421815862234
 20
174.3390213758385
 10
90.95421816044298
 20
174.33902137071578
 10
91.01408133516088
 20
174.19376963377
 10
97.0
 20
171.1732894730074
  0
LWPOLYLINE
  5
37
330
17
100
AcDbEntity
  8
default
100
AcDbPolyline
 90
9
 70
0
 10
90.94624325795685
 20
151.7545626792876
 10
90.9462432599696
 20
151.7545626781936
 10
97.0
 20
148.08062575635805
 10
97.0
 20
157.125893307627
 10
91.73483743158737
 20
153.21854095822007
 10
91.73483743026091
 20
153.21854095733275
 10
90.94143126579002
 20
152.6297429096885
 10
90.85104793915525
 20
151.8123353337869
 10
90.94624325795685
 20
151.7545626792876
  0
LWPOLYLINE
  5
38
330
17
100
AcDbEntity
  8
default
100
AcDbPolyline
 90
9
 70
0
 10
94.92223399859752
 20
104.97306059370102
 10
94.92223399867969
 20
104.97306059363324
 10
97.0
 20
105.86393870252245
 10
97.0
 20
117.1551431667882
 10
96.4243897700723
 20
117.58562818977256
 10
96.4243897698911
 20
117.58562818992203
 10
90.58744885473713
 20
115.08293882024033
 10
89.83637096902373
 20
108.77665502192517
 10
94.92223399859752
 20
104.97306059370102
  0
LWPOLYLINE
  5
39
330
17
100
AcDbEntity
  8
default
100
AcDbPolyline
 90
15
 70
0
 10
95.12582880910486
 20
93.99902855511755
 10
95.21043103428902
 20
93.87638357247177
 10
95.21043103445554
 20
93.87638357225423
 10
95.2989488106803
 20
93.7480623478963
 10
95.29894881151101
 20
93.74806234655127
 10
95.35786848515272
 20
93.66264848969877
 10
96.02649997679725
 20
93.54718196904662
 10
96.02649998278102
 20
93.54718196830586
 10
97.0
 20
93.37906745194992
 10
97.0
 20
102.59980443096539
 10
96.10444812875932
 20
102.2158210772306
 10
96.10444812875312
 20
102.21582107714335
 10
95.22892362324592
 20
94.86464471465865
 10
95.22892362283089
 20
94.8646447121863
 10
95.12582880910486
 20
93.99902855511755
  0
LWPOLYLINE
  5
3A
330
17
100
AcDbEntity
  8
default
100
AcDbPolyline
 90
6
 70
0
 10
97.0
 20
90.33466289998594
 10
95.51598393442637
 20
90.59093885142555
 10
92.03131064215135
 20
79.58723544612978
 10
95.28476711925657
 20
79.17273353969077
 10
97.0
 20
78.95420678084717
 10
97.0
 20
90.33466289998594
  0
LWPOLYLINE
  5
3B
330
17
100
AcDbEntity
  8
default
100
AcDbPolyline
 90
10
 70
0
 10
87.90273822192103
 20
75.29689114075154
 10
87.39952767267823
 20
73.22139284294099
 10
93.16694328514859
 20
65.3293875255622
 10
97.0
 20
64.8410424909213
 10
97.0
 20
75.92995729012077
 10
94.90497168950051
 20
76.19687133518535
 10
91.65216468955873
 20
76.61129049588436
 10
91.65216468868583
 20
76.61129049603902
 10
90.3818749957718
 20
76.7731299130246
 10
87.90273822192103
 20
75.29689114075154
  0
LWPOLYLINE
  5
3C
330
17
100
AcDbEntity
  8
default
100
AcDbPolyline
 90
8
 70
0
 10
95.37997891664405
 20
50.934274638696785
 10
97.0
 20
50.7278782008982
 10
97.0
 20
61.81679300014805
 10
93.22524207087376
 20
62.29771056252863
 10
88.75740742947967
 20
52.89588397766903
 10
88.75740742882884
 20
52.895883976460475
 10
88.25651113467157
 20
51.841829725773536
 10
95.37997891664405
 20
50.934274638696785
  0
LWPOLYLINE
  5
3D
330
17
100
AcDbEntity
  8
default
100
AcDbPolyline
 90
12
 70
0
 10
71.33891360322013
 20
182.6362602841109
 10
64.12866361159831
 20
181.3063659784384
 10
63.99577891158017
 20
181.06257979533905
 10
63.99577891060349
 20
181.062579793319
 10
61.174698645036784
 20
175.88711271427934
 10
61.174698644834905
 20
175.8871127139476
 10
61.174698645099646
 20
175.88711271355706
 10
64.48410000755983
 20
170.46667030129126
 10
70.83304151795022
 20
170.62247474676607
 10
74.28644393538372
 20
176.9579805935258
 10
75.53279460826889
 20
179.24449720000848
 10
71.33891360322013
 20
182.6362602841109
  0
LWPOLYLINE
  5
3E
330
17
100
AcDbEntity
  8
default
100
AcDbPolyline
 90
18
 70
0
 10
86.27392155490816
 20
177.82211782829836
 10
85.92331458670984
 20
178.04616771776955
 10
85.92331458626678
 20
178.0461677180232
 10
85.86580159157646
 20
178.0829204961556
 10
85.24913622299209
 20
178.4769908376038
 10
78.36076757265255
 20
178.16437212610617
 10
76.92069745753548
 20
175.52246379013857
 10
73.46713502953756
 20
169.18666439199487
 10
73.46713502943867
 20
169.18666439183235
 10
73.46713502965747
 20
169.18666439150957
 10
76.7765363926214
 20
163.76622197871572
 10
83.12547790301181
 20
163.92202642419053
 10
87.82743995952681
 20
172.54810137895745
 10
87.82743996351039
 20
172.54810138549647
 10
88.18054459693126
 20
173.19589628435114
 10
86.60508441582644
 20
177.01858575701496
 10
86.60508441498314
 20
177.01858575938192
 10
86.27392155490816
 20
177.82211782829836
  0
LWPOLYLINE
  5
3F
330
17
100
AcDbEntity
  8
default
100
AcDbPolyline
 90
12
 70
0
 10
87.3865238570019
 20
154.06434218606594
 10
83.19907641632884
 20
160.922929349807
 10
76.85013490593845
 20
160.76712490433218
 10
73.81059475809131
 20
155.19087804673927
 10
73.81059475808152
 20
155.19087804672318
 10
73.81059475833516
 20
155.190878046349
 10
77.11999612079534
 20
149.7704356340832
 10
85.6410562004894
 20
149.97954435506836
 10
87.8307567089796
 20
151.7941815899685
 10
87.97516799950972
 20
153.100206584204
 10
87.38652385938558
 20
154.06434218255913
 10
87.3865238570019
 20
154.06434218606594
  0
LWPOLYLINE
  5
40
330
17
100
AcDbEntity
  8
default
100
AcDbPolyline
 90
12
 70
0
 10
84.62127548451197
 20
135.00606464943837
 10
84.68901501749843
 20
146.9552778527061
 10
77.19359463411234
 20
146.77133855969967
 10
74.1540544863156
 20
141.19509170173353
 10
74.15405448625356
 20
141.19509170163158
 10
74.15405448648548
 20
141.19509170128947
 10
77.27623032435244
 20
136.08130450052192
 10
77.2762303258395
 20
136.08130449779756
 10
77.41067253239453
 20
135.8611026671715
 10
77.57281058636036
 20
135.84187623060032
 10
77.57281059275398
 20
135.84187623015686
 10
84.62127548451197
 20
135.00606464943837
  0
LWPOLYLINE
  5
41
330
17
100
AcDbEntity
  8
default
100
AcDbPolyline
 90
8
 70
0
 10
62.20507782955252
 20
133.89975367865043
 10
65.51447919243947
 20
128.47931126644835
 10
70.53078135149553
 20
128.60241244360805
 10
74.71573532642648
 20
134.51801778129897
 10
71.59355948808071
 20
139.6318049821862
 10
65.24461797769033
 20
139.47600053717704
 10
62.20507782989358
 20
133.8997536792109
 10
62.20507782955252
 20
133.89975367865043
  0
LWPOLYLINE
  5
42
330
17
100
AcDbEntity
  8
default
100
AcDbPolyline
 90
11
 70
0
 10
49.22572198811414
 20
168.59177469119467
 10
52.53512335113781
 20
163.17133227876863
 10
58.8840648615282
 20
163.32713672424345
 10
61.92360500937533
 20
168.90338358183635
 10
61.92360500938513
 20
168.90338358185244
 10
61.923605009131485
 20
168.9033835822266
 10
58.61420364667131
 20
174.3238259944924
 10
52.265262135815256
 20
174.16802154948326
 10
49.225721988018506
 20
168.59177469151712
 10
49.22572198796035
 20
168.59177469142153
 10
49.22572198811414
 20
168.59177469119467
  0
LWPOLYLINE
  5
43
330
17
100
AcDbEntity
  8
default
100
AcDbPolyline
 90
10
 70
0
 10
62.26706473780916
 20
154.90759723706606
 10
58.95766337484523
 20
160.3280396498599
 10
52.60872186445482
 20
160.1722352043851
 10
49.569181716607694
 20
154.59598834679218
 10
49.56918171631995
 20
154.59598834631933
 10
52.8785830787383
 20
149.1755459336564
 10
59.227524590167775
 20
149.33135037914528
 10
62.2670647380149
 20
154.90759723673818
 10
62.26706473802272
 20
154.90759723675103
 10
62.26706473780916
 20
154.90759723706606
  0
LWPOLYLINE
  5
44
330
17
100
AcDbEntity
  8
default
100
AcDbPolyline
 90
11
 70
0
 10
74.55950112236698
 20
148.20714891501856
 10
71.2500997599068
 20
153.62759132728436
 10
64.90115824951643
 20
153.47178688180955
 10
61.861618101669286
 20
147.89554002421664
 10
61.86161810165949
 20
147.89554002420056
 10
61.86161810191313
 20
147.89554002382638
 10
65.17101946437332
 20
142.47509761156059
 10
71.5199609747637
 20
142.63090205656974
 10
74.55950112256045
 20
148.20714891453588
 10
74.55950112262371
 20
148.20714891463984
 10
74.55950112236698
 20
148.20714891501856
  0
LWPOLYLINE
  5
45
330
17
100
AcDbEntity
  8
default
100
AcDbPolyline
 90
9
 70
0
 10
62.61052446594497
 20
140.91181089249594
 10
59.30112310348479
 20
146.33225330476174
 10
52.952181592117995
 20
146.1764488592744
 10
49.91264144470915
 20
140.60020200163126
 10
53.222042807377875
 20
135.1797595890239
 10
59.57098431834168
 20
135.3355640340471
 10
62.61052446613843
 20
140.91181089201325
 10
62.610524466201696
 20
140.91181089211722
 10
62.61052446594497
 20
140.91181089249594
  0
LWPOLYLINE
  5
46
330
17
100
AcDbEntity
  8
default
100
AcDbPolyline
 90
9
 70
0
 10
40.58614669414237
 20
155.87599425623193
 10
46.93508820510618
 20
156.03179870172082
 10
49.97462835295331
 20
161.60804555931372
 10
49.974628352958
 20
161.60804555932143
 10
49.974628352807294
 20
161.60804555954374
 10
46.66522698978362
 20
167.02848797196978
 10
41.530172867234796
 20
166.90247259521857
 10
38.28307784255594
 20
159.64817257924005
 10
40.58614669414237
 20
155.87599425623193
  0
LWPOLYLINE
  5
47
330
17
100
AcDbEntity
  8
default
100
AcDbPolyline
 90
11
 70
0
 10
74.21604139423118
 20
162.20293525958868
 10
70.90664003126726
 20
167.62337767238253
 10
64.55769852087685
 20
167.46757322690772
 10
61.51815837302971
 20
161.8913263693148
 10
61.5181583730219
 20
161.89132636930196
 10
61.51815837323546
 20
161.89132636898694
 10
64.82755973619938
 20
156.4708839561931
 10
71.17650124658978
 20
156.6266884016679
 10
74.21604139443691
 20
162.2029352592608
 10
74.21604139444473
 20
162.20293525927366
 10
74.21604139423118
 20
162.20293525958868
  0
LWPOLYLINE
  5
48
330
17
100
AcDbEntity
  8
default
100
AcDbPolyline
 90
11
 70
0
 10
49.63116862432848
 20
175.6038319044265
 10
49.63116862403438
 20
175.60383190486033
 10
44.4464960820545
 20
184.09576620466413
 10
37.09319226774384
 20
178.75772192488517
 10
37.09319226739046
 20
178.75772192465521
 10
36.93371766852215
 20
178.64195321826264
 10
36.849091473501176
 20
174.48502137791365
 10
41.17958402214572
 20
169.89477226464078
 10
46.5916284764666
 20
170.02758504635332
 10
49.63116862426335
 20
175.60383190431946
 10
49.63116862432848
 20
175.6038319044265
  0
LWPOLYLINE
  5
49
330
17
100
AcDbEntity
  8
default
100
AcDbPolyline
 90
10
 70
0
 10
26.262094259262085
 20
170.16869452875108
 10
33.85403473302722
 20
174.75837334850803
 10
33.930857876781374
 20
178.53201071731746
 10
33.90794533455541
 20
178.54435441859664
 10
33.90794532974711
 20
178.54435442087882
 10
27.274105317383018
 20
182.11821098558315
 10
27.274105317233822
 20
182.11821098567293
 10
21.869987627491355
 20
178.78221858106554
 10
22.05698295123875
 20
172.43411917379126
 10
26.262094259262085
 20
170.16869452875108
  0
LWPOLYLINE
  5
4A
330
17
100
AcDbEntity
  8
default
100
AcDbPolyline
 90
11
 70
0
 10
61.36168539935804
 20
182.4983901480212
 10
58.3212408222232
 20
186.3368418271392
 10
53.83544290228509
 20
192.0
 10
53.597467652755896
 20
192.0
 10
46.97705131722614
 20
188.43390548741445
 10
46.48907942371443
 20
186.50733634410426
 10
47.00699107905252
 20
185.65905292511823
 10
47.00699107982706
 20
185.65905292397798
 10
52.191663622498226
 20
177.1671186238668
 10
58.54060513335429
 20
177.32292306887595
 10
61.36168539935804
 20
182.4983901480212
  0
LWPOLYLINE
  5
4B
330
17
100
AcDbEntity
  8
default
100
AcDbPolyline
 90
6
 70
0
 10
12.393905819393694
 20
185.59110470302403
 10
20.294139898382127
 20
181.3350021475926
 10
25.698257588315755
 20
184.670994552318
 10
25.482367813952933
 20
192.0
 10
16.58822114381488
 20
192.0
 10
12.393905819393694
 20
185.59110470302403
  0
LWPOLYLINE
  5
4C
330
17
100
AcDbEntity
  8
default
100
AcDbPolyline
 90
10
 70
0
 10
73.14769107760398
 20
127.10701656814457
 10
77.4589166550397
 20
120.80569882043922
 10
82.0604436583817
 20
121.79700745502487
 10
82.06818612285814
 20
121.82993765176072
 10
82.06818612395566
 20
121.82993765770404
 10
84.46031711695282
 20
132.00413276961626
 10
84.26800856389511
 20
132.02693684372107
 10
84.26800855935473
 20
132.0269368440327
 10
77.21954366730476
 20
132.8627484246979
 10
73.14769107760398
 20
127.10701656814457
  0
LWPOLYLINE
  5
4D
330
17
100
AcDbEntity
  8
default
100
AcDbPolyline
 90
16
 70
0
 10
96.01096146391797
 20
130.03473375975534
 10
95.47141196671873
 20
130.77637619478628
 10
87.43586301011965
 20
131.5521922968328
 10
87.3806836004443
 20
131.31750361053565
 10
87.38068359798315
 20
131.31750359711754
 10
84.9885526045913
 20
121.14330848520177
 10
87.1889292656208
 20
119.49769979283526
 10
89.4052347245071
 20
117.8401783367566
 10
89.40523472464916
 20
117.8401783366394
 10
95.24217563980058
 20
120.34286770632
 10
96.23135682540139
 20
128.6483409477585
 10
96.23135682620223
 20
128.6483409524758
 10
96.34224218735471
 20
129.57936897175387
 10
96.31199545045652
 20
129.6209448859589
 10
96.3119954485629
 20
129.62094488830374
 10
96.01096146391797
 20
130.03473375975534
  0
LWPOLYLINE
  5
4E
330
17
100
AcDbEntity
  8
default
100
AcDbPolyline
 90
14
 70
0
 10
70.82352977292612
 20
71.25205486733466
 10
78.65608826652169
 20
69.71655636234209
 10
79.23245886153715
 20
70.12255872129646
 10
83.7087961605793
 20
73.2757443953009
 10
83.70879616634697
 20
73.27574439895835
 10
84.45286669256166
 20
73.79987660050392
 10
84.93061712058261
 20
75.77036430500448
 10
84.73985811852242
 20
75.9505119346474
 10
84.73985811506957
 20
75.95051193759744
 10
76.92429303267238
 20
83.3313197042933
 10
73.69992348272353
 20
86.37632688740268
 10
71.4344450221397
 20
85.97201151587069
 10
65.93362435279414
 20
80.7527610482648
 10
70.82352977292612
 20
71.25205486733466
  0
LWPOLYLINE
  5
4F
330
17
100
AcDbEntity
  8
default
100
AcDbPolyline
 90
9
 70
0
 10
85.43643800375051
 20
70.82314298787401
 10
80.95987736537366
 20
67.66979999136927
 10
80.42535743489861
 20
67.29327774234116
 10
79.687180143781
 20
59.39090840285644
 10
86.0477946600326
 20
54.183516937818766
 10
90.51562930094705
 20
63.585343522592034
 10
90.51562930550472
 20
63.585343531098914
 10
90.59843059349805
 20
63.75958528649062
 10
85.43643800375051
 20
70.82314298787401
  0
LWPOLYLINE
  5
50
330
17
100
AcDbEntity
  8
default
100
AcDbPolyline
 90
9
 70
0
 10
88.03963856855684
 20
106.37420779419311
 10
80.26585083410913
 20
103.04106185259307
 10
80.46133006037243
 20
96.12439627744462
 10
91.63549382187873
 20
95.26660800913334
 10
92.24997709260481
 20
95.21943700361051
 10
93.12550159794698
 20
102.57061336586509
 10
93.1255015978383
 20
102.57061336593857
 10
88.03963856863724
 20
106.37420779423222
 10
88.03963856855684
 20
106.37420779419311
  0
LWPOLYLINE
  5
51
330
17
100
AcDbEntity
  8
default
100
AcDbPolyline
 90
11
 70
0
 10
92.82949376848265
 20
92.04459770340138
 10
92.74097599227107
 20
92.17291892785713
 10
91.40581691889327
 20
92.27541284274122
 10
80.23170967025176
 20
93.1331967725063
 10
80.23170966381144
 20
93.13319677331869
 10
79.72880706191063
 20
93.17180225299671
 10
76.16130263963714
 20
88.17819255171344
 10
78.98393791657074
 20
85.51257232401376
 10
86.79964622037176
 20
78.13162930321789
 10
88.80088924616575
 20
79.32329915324226
 10
92.82949376848265
 20
92.04459770340138
  0
LWPOLYLINE
  5
52
330
17
100
AcDbEntity
  8
default
100
AcDbPolyline
 90
8
 70
0
 10
77.4864321150817
 20
95.19382254313678
 10
77.25711150933057
 20
103.30790182715282
 10
71.22484689857811
 20
108.4379927511327
 10
67.73914650734514
 20
108.17812305735424
 10
62.09999140817672
 20
102.40976779116318
 10
71.41111800726503
 20
89.01525013521314
 10
73.31513615185395
 20
89.35505641298369
 10
77.4864321150817
 20
95.19382254313678
  0
LWPOLYLINE
  5
53
330
17
100
AcDbEntity
  8
default
100
AcDbPolyline
 90
13
 70
0
 10
87.6085023239143
 20
115.43773110882185
 10
87.60850232392409
 20
115.43773110888027
 10
87.60850232367407
 20
115.43773110904932
 10
85.3921478950524
 20
117.09528918885479
 10
82.9519658582285
 20
118.92024254379794
 10
77.77219349751249
 20
117.80436230171472
 10
73.63418981526047
 20
110.32716669887304
 10
79.00110685219988
 20
105.76291526760906
 10
79.08363668843538
 20
105.79830136227824
 10
79.08363670408376
 20
105.79830136993026
 10
86.85742443818249
 20
109.13144731107225
 10
86.85742443821421
 20
109.1314473110841
 10
87.6085023239143
 20
115.43773110882185
  0
LWPOLYLINE
  5
54
330
17
100
AcDbEntity
  8
default
100
AcDbPolyline
 90
11
 70
0
 10
62.548537557944655
 20
119.90396733395755
 10
67.86520081525669
 20
111.19584648357704
 10
70.80756541481242
 20
111.4152088216506
 10
75.02938094874844
 20
119.04384885402396
 10
74.98295781923058
 20
119.11170122794427
 10
74.98295781656485
 20
119.11170123145583
 10
70.67173223930727
 20
125.41301897913816
 10
70.67173223844941
 20
125.41301898053935
 10
70.5425732829608
 20
125.60179862193763
 10
65.58807770581916
 20
125.48021419206634
 10
62.548537557944655
 20
119.90396733395755
  0
LWPOLYLINE
  5
55
330
17
100
AcDbEntity
  8
default
100
AcDbPolyline
 90
9
 70
0
 10
85.7595714147424
 20
162.48621606889583
 10
89.9470188549119
 20
155.6276289054237
 10
97.0
 20
160.8617469577695
 10
97.0
 20
167.78460187837752
 10
96.99432947486639
 20
167.81585787329823
 10
90.46153347087379
 20
171.11229102390058
 10
85.75957141455157
 20
162.48621606933204
 10
85.75957141450196
 20
162.4862160692505
 10
85.7595714147424
 20
162.48621606889583
  0
LWPOLYLINE
  5
56
330
17
100
AcDbEntity
  8
default
100
AcDbPolyline
 90
11
 70
0
 10
87.6889668131474
 20
146.93827127214175
 10
87.68896681343463
 20
146.93827126567123
 10
87.62122728017417
 20
134.98905806216283
 10
87.62122728011703
 20
134.98905806112816
 10
87.61872970173135
 20
134.54848672403023
 10
95.32058918336406
 20
133.80488767009228
 10
97.0
 20
137.91752622702103
 10
97.0
 20
144.5713823025334
 10
89.38979122685701
 20
149.18990732722077
 10
87.69376338645816
 20
147.7843839423731
 10
87.6889668131474
 20
146.93827127214175
  0
LWPOLYLINE
  5
57
330
17
100
AcDbEntity
  8
default
100
AcDbPolyline
 90
9
 70
0
 10
87.87736517716019
 20
48.86588477619823
 10
87.75020002620295
 20
48.88208606792614
 10
84.62922281725332
 20
43.14030682295561
 10
94.7125861896202
 20
35.19983223685995
 10
97.0
 20
38.20678254566782
 10
97.0
 20
47.70362871013383
 10
95.00072698709913
 20
47.958343190334794
 10
87.87736518200666
 20
48.865884775334344
 10
87.87736517716019
 20
48.86588477619823
  0
ENDSEC
  0
SECTION
  2
OBJECTS
  0
DICTIONARY
  5
A
330
0
100
AcDbDictionary
280
0
281
1
  3
ACAD_COLOR
350
B
  3
ACAD_GROUP
350
C
  3
ACAD_LAYOUT
350
D
  3
ACAD_MATERIAL
350
E
  3
ACAD_MLEADERSTYLE
350
F
  3
ACAD_MLINESTYLE
350
10
  3
ACAD_PLOTSETTINGS
350
11
  3
ACAD_PLOTSTYLENAME
350
12
  3
ACAD_SCALELIST
350
14
  3
ACAD_TABLESTYLE
350
15
  3
ACAD_VISUALSTYLE
350
16
  3
EZDXF_META
350
2D
  0
DICTIONARY
  5
B
330
A
100
AcDbDictionary
280
0
281
1
  0
DICTIONARY
  5
C
330
A
100
AcDbDictionary
280
0
281
1
  0
DICTIONARY
  5
D
330
A
100
AcDbDictionary
280
0
281
1
  3
Model
350
1A
  3
Layout1
350
1E
  0
DICTIONARY
  5
E
330
A
100
AcDbDictionary
280
0
281
1
  3
ByBlock
350
1F
  3
ByLayer
350
20
  3
Global
350
21
  0
DICTIONARY
  5
F
330
A
100
AcDbDictionary
280
0
281
1
  3
Standard
350
2C
  0
DICTIONARY
  5
10
330
A
100
AcDbDictionary
280
0
281
1
  3
Standard
350
22
  0
DICTIONARY
  5
11
330
A
100
AcDbDictionary
280
0
281
1
  0
ACDBDICTIONARYWDFLT
  5
12
330
A
100
AcDbDictionary
280
0
281
1
  3
Normal
350
13
100
AcDbDictionaryWithDefault
340
13
  0
ACDBPLACEHOLDER
  5
13
330
12
  0
DICTIONARY
  5
14
330
A
100
AcDbDictionary
280
0
281
1
  0
DICTIONARY
  5
15
330
A
100
AcDbDictionary
280
0
281
1
  0
DICTIONARY
  5
16
330
A
100
AcDbDictionary
280
0
281
1
  0
LAYOUT
  5
1A
330
D
100
AcDbPlotSettings
  1

  2
Adobe PDF
  4
A3
  6

 40
7.5
 41
20.0
 42
7.5
 43
20.0
 44
420.0
 45
297.0
 46
0.0
 47
0.0
 48
0.0
 49
0.0
140
0.0
141
0.0
142
1.0
143
1.0
 70
1024
 72
1
 73
0
 74
5
  7

 75
16
 76
0
 77
2
 78
300
147
1.0
148
0.0
149
0.0
100
AcDbLayout
  1
Model
 70
1
 71
0
 10
0.0
 20
0.0
 11
420.0
 21
297.0
 12
0.0
 22
0.0
 32
0.0
 14
1e+20
 24
1e+20
 34
1e+20
 15
-1e+20
 25
-1e+20
 35
-1e+20
146
0.0
 13
0.0
 23
0.0
 33
0.0
 16
1.0
 26
0.0
 36
0.0
 17
0.0
 27
1.0
 37
0.0
 76
1
330
17
  0
LAYOUT
  5
1E
330
D
100
AcDbPlotSettings
  1

  2
Adobe PDF
  4
A3
  6

 40
7.5
 41
20.0
 42
7.5
 43
20.0
 44
420.0
 45
297.0
 46
0.0
 47
0.0
 48
0.0
 49
0.0
140
0.0
141
0.0
142
1.0
143
1.0
 70
0
 72
1
 73
0
 74
5
  7

 75
16
 76
0
 77
2
 78
300
147
1.0
148
0.0
149
0.0
100
AcDbLayout
  1
Layout1
 70
1
 71
1
 10
0.0
 20
0.0
 11
420.0
 21
297.0
 12
0.0
 22
0.0
 32
0.0
 14
1e+20
 24
1e+20
 34
1e+20
 15
-1e+20
 25
-1e+20
 35
-1e+20
146
0.0
 13
0.0
 23
0.0
 33
0.0
 16
1.0
 26
0.0
 36
0.0
 17
0.0
 27
1.0
 37
0.0
 76
1
330
1B
  0
MATERIAL
  5
1F
102
{ACAD_REACTORS
330
E
102
}
330
E
100
AcDbMaterial
  1
ByBlock
  2

 70
0
 40
1.0
 71
1
 41
1.0
 91
-1023410177
 42
1.0
 72
1
  3

 73
1
 74
1
 75
1
 44
0.5
 73
0
 45
1.0
 46
1.0
 77
1
  4

 78
1
 79
1
170
1
 48
1.0
171
1
  6

172
1
173
1
174
1
140
1.0
141
1.0
175
1
  7

176
1
177
1
178
1
143
1.0
179
1
  8

270
1
271
1
272
1
145
1.0
146
1.0
273
1
  9

274
1
275
1
276
1
 42
1.0
 72
1
  3

 73
1
 74
1
 75
1
 94
63
  0
MATERIAL
  5
20
102
{ACAD_REACTORS
330
E
102
}
330
E
100
AcDbMaterial
  1
ByLayer
  2

 70
0
 40
1.0
 71
1
 41
1.0
 91
-1023410177
 42
1.0
 72
1
  3

 73
1
 74
1
 75
1
 44
0.5
 73
0
 45
1.0
 46
1.0
 77
1
  4

 78
1
 79
1
170
1
 48
1.0
171
1
  6

172
1
173
1
174
1
140
1.0
141
1.0
175
1
  7

176
1
177
1
178
1
143
1.0
179
1
  8

270
1
271
1
272
1
145
1.0
146
1.0
273
1
  9

274
1
275
1
276
1
 42
1.0
 72
1
  3

 73
1
 74
1
 75
1
 94
63
  0
MATERIAL
  5
21
102
{ACAD_REACTORS
330
E
102
}
330
E
100
AcDbMaterial
  1
Global
  2

 70
0
 40
1.0
 71
1
 41
1.0
 91
-1023410177
 42
1.0
 72
1
  3

 73
1
 74
1
 75
1
 44
0.5
 73
0
 45
1.0
 46
1.0
 77
1
  4

 78
1
 79
1
170
1
 48
1.0
171
1
  6

172
1
173
1
174
1
140
1.0
141
1.0
175
1
  7

176
1
177
1
178
1
143
1.0
179
1
  8

270
1
271
1
272
1
145
1.0
146
1.0
273
1
  9

274
1
275
1
276
1
 42
1.0
 72
1
  3

 73
1
 74
1
 75
1
 94
63
  0
MLINESTYLE
  5
22
102
{ACAD_REACTORS
330
10
102
}
330
10
100
AcDbMlineStyle
  2
Standard
 70
0
  3

 62
256
 51
90.0
 52
90.0
 71
2
 49
0.5
 62
256
  6
BYLAYER
 49
-0.5
 62
256
  6
BYLAYER
  0
MLEADERSTYLE
  5
2C
102
{ACAD_REACTORS
330
F
102
}
330
F
100
AcDbMLeaderStyle
179
2
170
2
171
1
172
0
 90
2
 40
0.0
 41
0.0
173
1
 91
-1056964608
 92
-2
290
1
 42
2.0
291
1
 43
8.0
  3
Standard
 44
4.0
300

342
29
174
1
175
1
176
0
178
1
 93
-1056964608
 45
4.0
292
0
297
0
 46
4.0
 94
-1056964608
 47
1.0
 49
1.0
140
1.0
294
1
141
0.0
177
0
142
1.0
295
0
296
0
143
3.75
271
0
272
9
273
9
  0
DICTIONARY
  5
2D
330
A
100
AcDbDictionary
281
1
  3
CREATED_BY_EZDXF
350
2E
  3
WRITTEN_BY_EZDXF
350
5A
  0
DICTIONARYVAR
  5
2E
330
2D
100
DictionaryVariables
280
0
  1
1.1.1 @ 2023-10-19T01:42:33.814199+00:00
  0
DICTIONARYVAR
  5
5A
330
2D
100
DictionaryVariables
280
0
  1
1.1.1 @ 2023-10-19T01:42:33.825696+00:00
  0
ENDSEC
  0
EOF
