  0
SECTION
  2
HEADER
  9
$ACADVER
  1
AC1024
  9
$ACADMAINTVER
 70
6
  9
$DWGCODEPAGE
  3
ANSI_1252
  9
$LASTSAVEDBY
  1
ezdxf
  9
$INSBASE
 10
0.0
 20
0.0
 30
0.0
  9
$EXTMIN
 10
1e+20
 20
1e+20
 30
1e+20
  9
$EXTMAX
 10
-1e+20
 20
-1e+20
 30
-1e+20
  9
$LIMMIN
 10
0.0
 20
0.0
  9
$LIMMAX
 10
420.0
 20
297.0
  9
$ORTHOMODE
 70
0
  9
$REGENMODE
 70
1
  9
$FILLMODE
 70
1
  9
$QTEXTMODE
 70
0
  9
$MIRRTEXT
 70
1
  9
$LTSCALE
 40
1.0
  9
$ATTMODE
 70
1
  9
$TEXTSIZE
 40
2.5
  9
$TRACEWID
 40
1.0
  9
$TEXTSTYLE
  7
Standard
  9
$CLAYER
  8
0
  9
$CELTYPE
  6
ByLayer
  9
$CECOLOR
 62
256
  9
$CELTSCALE
 40
1.0
  9
$DISPSILH
 70
0
  9
$DIMSCALE
 40
1.0
  9
$DIMASZ
 40
2.5
  9
$DIMEXO
 40
0.625
  9
$DIMDLI
 40
3.75
  9
$DIMRND
 40
0.0
  9
$DIMDLE
 40
0.0
  9
$DIMEXE
 40
1.25
  9
$DIMTP
 40
0.0
  9
$DIMTM
 40
0.0
  9
$DIMTXT
 40
2.5
  9
$DIMCEN
 40
2.5
  9
$DIMTSZ
 40
0.0
  9
$DIMTOL
 70
0
  9
$DIMLIM
 70
0
  9
$DIMTIH
 70
0
  9
$DIMTOH
 70
0
  9
$DIMSE1
 70
0
  9
$DIMSE2
 70
0
  9
$DIMTAD
 70
1
  9
$DIMZIN
 70
8
  9
$DIMBLK
  1

  9
$DIMASO
 70
1
  9
$DIMSHO
 70
1
  9
$DIMPOST
  1

  9
$DIMAPOST
  1

  9
$DIMALT
 70
0
  9
$DIMALTD
 70
3
  9
$DIMALTF
 40
0.03937007874
  9
$DIMLFAC
 40
1.0
  9
$DIMTOFL
 70
1
  9
$DIMTVP
 40
0.0
  9
$DIMTIX
 70
0
  9
$DIMSOXD
 70
0
  9
$DIMSAH
 70
0
  9
$DIMBLK1
  1

  9
$DIMBLK2
  1

  9
$DIMSTYLE
  2
ISO-25
  9
$DIMCLRD
 70
0
  9
$DIMCLRE
 70
0
  9
$DIMCLRT
 70
0
  9
$DIMTFAC
 40
1.0
  9
$DIMGAP
 40
0.625
  9
$DIMJUST
 70
0
  9
$DIMSD1
 70
0
  9
$DIMSD2
 70
0
  9
$DIMTOLJ
 70
0
  9
$DIMTZIN
 70
8
  9
$DIMALTZ
 70
0
  9
$DIMALTTZ
 70
0
  9
$DIMUPT
 70
0
  9
$DIMDEC
 70
2
  9
$DIMTDEC
 70
2
  9
$DIMALTU
 70
2
  9
$DIMALTTD
 70
3
  9
$DIMTXSTY
  7
Standard
  9
$DIMAUNIT
 70
0
  9
$DIMADEC
 70
0
  9
$DIMALTRND
 40
0.0
  9
$DIMAZIN
 70
0
  9
$DIMDSEP
 70
44
  9
$DIMATFIT
 70
3
  9
$DIMFRAC
 70
0
  9
$DIMLDRBLK
  1

  9
$DIMLUNIT
 70
2
  9
$DIMLWD
 70
-2
  9
$DIMLWE
 70
-2
  9
$DIMTMOVE
 70
0
  9
$DIMFXL
 40
1.0
  9
$DIMFXLON
 70
0
  9
$DIMJOGANG
 40
0.785398163397
  9
$DIMTFILL
 70
0
  9
$DIMTFILLCLR
 70
0
  9
$DIMARCSYM
 70
0
  9
$DIMLTYPE
  6

  9
$DIMLTEX1
  6

  9
$DIMLTEX2
  6

  9
$DIMTXTDIRECTION
 70
0
  9
$LUNITS
 70
2
  9
$LUPREC
 70
4
  9
$SKETCHINC
 40
1.0
  9
$FILLETRAD
 40
10.0
  9
$AUNITS
 70
0
  9
$AUPREC
 70
2
  9
$MENU
  1
.
  9
$ELEVATION
 40
0.0
  9
$PELEVATION
 40
0.0
  9
$THICKNESS
 40
0.0
  9
$LIMCHECK
 70
0
  9
$CHAMFERA
 40
0.0
  9
$CHAMFERB
 40
0.0
  9
$CHAMFERC
 40
0.0
  9
$CHAMFERD
 40
0.0
  9
$SKPOLY
 70
0
  9
$TDCREATE
 40
2460426.5959606483
  9
$TDUCREATE
 40
2458532.153996898
  9
$TDUPDATE
 40
2460426.5959606483
  9
$TDUUPDATE
 40
2458532.1544311
  9
$TDINDWG
 40
0.0
  9
$TDUSRTIMER
 40
0.0
  9
$USRTIMER
 70
1
  9
$ANGBASE
 50
0.0
  9
$ANGDIR
 70
0
  9
$PDMODE
 70
0
  9
$PDSIZE
 40
0.0
  9
$PLINEWID
 40
0.0
  9
$SPLFRAME
 70
0
  9
$SPLINETYPE
 70
6
  9
$SPLINESEGS
 70
8
  9
$HANDSEED
  5
154
  9
$SURFTAB1
 70
6
  9
$SURFTAB2
 70
6
  9
$SURFTYPE
 70
6
  9
$SURFU
 70
6
  9
$SURFV
 70
6
  9
$UCSBASE
  2

  9
$UCSNAME
  2

  9
$UCSORG
 10
0.0
 20
0.0
 30
0.0
  9
$UCSXDIR
 10
1.0
 20
0.0
 30
0.0
  9
$UCSYDIR
 10
0.0
 20
1.0
 30
0.0
  9
$UCSORTHOREF
  2

  9
$UCSORTHOVIEW
 70
0
  9
$UCSORGTOP
 10
0.0
 20
0.0
 30
0.0
  9
$UCSORGBOTTOM
 10
0.0
 20
0.0
 30
0.0
  9
$UCSORGLEFT
 10
0.0
 20
0.0
 30
0.0
  9
$UCSORGRIGHT
 10
0.0
 20
0.0
 30
0.0
  9
$UCSORGFRONT
 10
0.0
 20
0.0
 30
0.0
  9
$UCSORGBACK
 10
0.0
 20
0.0
 30
0.0
  9
$PUCSBASE
  2

  9
$PUCSNAME
  2

  9
$PUCSORG
 10
0.0
 20
0.0
 30
0.0
  9
$PUCSXDIR
 10
1.0
 20
0.0
 30
0.0
  9
$PUCSYDIR
 10
0.0
 20
1.0
 30
0.0
  9
$PUCSORTHOREF
  2

  9
$PUCSORTHOVIEW
 70
0
  9
$PUCSORGTOP
 10
0.0
 20
0.0
 30
0.0
  9
$PUCSORGBOTTOM
 10
0.0
 20
0.0
 30
0.0
  9
$PUCSORGLEFT
 10
0.0
 20
0.0
 30
0.0
  9
$PUCSORGRIGHT
 10
0.0
 20
0.0
 30
0.0
  9
$PUCSORGFRONT
 10
0.0
 20
0.0
 30
0.0
  9
$PUCSORGBACK
 10
0.0
 20
0.0
 30
0.0
  9
$USERI1
 70
0
  9
$USERI2
 70
0
  9
$USERI3
 70
0
  9
$USERI4
 70
0
  9
$USERI5
 70
0
  9
$USERR1
 40
0.0
  9
$USERR2
 40
0.0
  9
$USERR3
 40
0.0
  9
$USERR4
 40
0.0
  9
$USERR5
 40
0.0
  9
$WORLDVIEW
 70
1
  9
$SHADEDGE
 70
3
  9
$SHADEDIF
 70
70
  9
$TILEMODE
 70
1
  9
$MAXACTVP
 70
64
  9
$PINSBASE
 10
0.0
 20
0.0
 30
0.0
  9
$PLIMCHECK
 70
0
  9
$PEXTMIN
 10
1e+20
 20
1e+20
 30
1e+20
  9
$PEXTMAX
 10
-1e+20
 20
-1e+20
 30
-1e+20
  9
$PLIMMIN
 10
0.0
 20
0.0
  9
$PLIMMAX
 10
420.0
 20
297.0
  9
$UNITMODE
 70
0
  9
$VISRETAIN
 70
1
  9
$PLINEGEN
 70
0
  9
$PSLTSCALE
 70
1
  9
$TREEDEPTH
 70
3020
  9
$CMLSTYLE
  2
Standard
  9
$CMLJUST
 70
0
  9
$CMLSCALE
 40
20.0
  9
$PROXYGRAPHICS
 70
1
  9
$MEASUREMENT
 70
1
  9
$CELWEIGHT
370
-1
  9
$ENDCAPS
280
0
  9
$JOINSTYLE
280
0
  9
$LWDISPLAY
290
0
  9
$INSUNITS
 70
4
  9
$HYPERLINKBASE
  1

  9
$STYLESHEET
  1

  9
$XEDIT
290
1
  9
$CEPSNTYPE
380
0
  9
$PSTYLEMODE
290
1
  9
$FINGERPRINTGUID
  2
{CFB0A730-A2FC-43D7-8674-4A19C8FB9CF6}
  9
$VERSIONGUID
  2
{C207307A-9658-4E8D-BD58-DC234D7E0046}
  9
$EXTNAMES
290
1
  9
$PSVPSCALE
 40
0.0
  9
$OLESTARTUP
290
0
  9
$SORTENTS
280
127
  9
$INDEXCTL
280
0
  9
$HIDETEXT
280
1
  9
$XCLIPFRAME
280
0
  9
$HALOGAP
280
0
  9
$OBSCOLOR
 70
257
  9
$OBSLTYPE
280
0
  9
$INTERSECTIONDISPLAY
280
0
  9
$INTERSECTIONCOLOR
 70
257
  9
$DIMASSOC
280
2
  9
$PROJECTNAME
  1

  9
$CAMERADISPLAY
290
0
  9
$LENSLENGTH
 40
50.0
  9
$CAMERAHEIGHT
 40
0.0
  9
$STEPSPERSEC
 40
24.0
  9
$STEPSIZE
 40
100.0
  9
$3DDWFPREC
 40
2.0
  9
$PSOLWIDTH
 40
0.005
  9
$PSOLHEIGHT
 40
0.08
  9
$LOFTANG1
 40
1.570796326795
  9
$LOFTANG2
 40
1.570796326795
  9
$LOFTMAG1
 40
0.0
  9
$LOFTMAG2
 40
0.0
  9
$LOFTPARAM
 70
7
  9
$LOFTNORMALS
280
1
  9
$LATITUDE
 40
37.795
  9
$LONGITUDE
 40
-122.394
  9
$NORTHDIRECTION
 40
0.0
  9
$TIMEZONE
 70
-8000
  9
$LIGHTGLYPHDISPLAY
280
1
  9
$TILEMODELIGHTSYNCH
280
1
  9
$CMATERIAL
347
20
  9
$SOLIDHIST
280
0
  9
$SHOWHIST
280
1
  9
$DWFFRAME
280
2
  9
$DGNFRAME
280
2
  9
$REALWORLDSCALE
290
1
  9
$INTERFERECOLOR
 62
256
  9
$CSHADOW
280
0
  9
$SHADOWPLANELOCATION
 40
0.0
  0
ENDSEC
  0
SECTION
  2
CLASSES
  0
CLASS
  1
ACDBDICTIONARYWDFLT
  2
AcDbDictionaryWithDefault
  3
ObjectDBX Classes
 90
0
 91
0
280
0
281
0
  0
CLASS
  1
SUN
  2
AcDbSun
  3
SCENEOE
 90
1153
 91
0
280
0
281
0
  0
CLASS
  1
VISUALSTYLE
  2
AcDbVisualStyle
  3
ObjectDBX Classes
 90
4095
 91
0
280
0
281
0
  0
CLASS
  1
MATERIAL
  2
AcDbMaterial
  3
ObjectDBX Classes
 90
1153
 91
0
280
0
281
0
  0
CLASS
  1
SCALE
  2
AcDbScale
  3
ObjectDBX Classes
 90
1153
 91
0
280
0
281
0
  0
CLASS
  1
TABLESTYLE
  2
AcDbTableStyle
  3
ObjectDBX Classes
 90
4095
 91
0
280
0
281
0
  0
CLASS
  1
MLEADERSTYLE
  2
AcDbMLeaderStyle
  3
ACDB_MLEADERSTYLE_CLASS
 90
4095
 91
0
280
0
281
0
  0
CLASS
  1
DICTIONARYVAR
  2
AcDbDictionaryVar
  3
ObjectDBX Classes
 90
0
 91
0
280
0
281
0
  0
CLASS
  1
CELLSTYLEMAP
  2
AcDbCellStyleMap
  3
ObjectDBX Classes
 90
1152
 91
0
280
0
281
0
  0
CLASS
  1
MENTALRAYRENDERSETTINGS
  2
AcDbMentalRayRenderSettings
  3
SCENEOE
 90
1024
 91
0
280
0
281
0
  0
CLASS
  1
ACDBDETAILVIEWSTYLE
  2
AcDbDetailViewStyle
  3
ObjectDBX Classes
 90
1025
 91
0
280
0
281
0
  0
CLASS
  1
ACDBSECTIONVIEWSTYLE
  2
AcDbSectionViewStyle
  3
ObjectDBX Classes
 90
1025
 91
0
280
0
281
0
  0
CLASS
  1
RASTERVARIABLES
  2
AcDbRasterVariables
  3
ISM
 90
0
 91
0
280
0
281
0
  0
CLASS
  1
ACDBPLACEHOLDER
  2
AcDbPlaceHolder
  3
ObjectDBX Classes
 90
0
 91
0
280
0
281
0
  0
CLASS
  1
LAYOUT
  2
AcDbLayout
  3
ObjectDBX Classes
 90
0
 91
0
280
0
281
0
  0
ENDSEC
  0
SECTION
  2
TABLES
  0
TABLE
  2
VPORT
  5
8
330
0
100
AcDbSymbolTable
 70
1
  0
VPORT
  5
23
330
8
100
AcDbSymbolTableRecord
100
AcDbViewportTableRecord
  2
*Active
 70
0
 10
0.0
 20
0.0
 11
1.0
 21
1.0
 12
0.0
 22
0.0
 13
0.0
 23
0.0
 14
0.5
 24
0.5
 15
0.5
 25
0.5
 16
0.0
 26
0.0
 36
1.0
 17
0.0
 27
0.0
 37
0.0
 40
1000.0
 41
1.34
 42
50.0
 43
0.0
 44
0.0
 50
0.0
 51
0.0
 71
0
 72
1000
 73
1
 74
3
 75
0
 76
0
 77
0
 78
0
281
0
 65
0
146
0.0
  0
ENDTAB
  0
TABLE
  2
LTYPE
  5
2
330
0
100
AcDbSymbolTable
 70
3
  0
LTYPE
  5
24
330
2
100
AcDbSymbolTableRecord
100
AcDbLinetypeTableRecord
  2
ByBlock
 70
0
  3

 72
65
 73
0
 40
0.0
  0
LTYPE
  5
25
330
2
100
AcDbSymbolTableRecord
100
AcDbLinetypeTableRecord
  2
ByLayer
 70
0
  3

 72
65
 73
0
 40
0.0
  0
LTYPE
  5
26
330
2
100
AcDbSymbolTableRecord
100
AcDbLinetypeTableRecord
  2
Continuous
 70
0
  3

 72
65
 73
0
 40
0.0
  0
ENDTAB
  0
TABLE
  2
LAYER
  5
1
330
0
100
AcDbSymbolTable
 70
3
  0
LAYER
  5
27
330
1
100
AcDbSymbolTableRecord
100
AcDbLayerTableRecord
  2
0
 70
0
 62
7
  6
Continuous
370
-3
390
13
347
21
  0
LAYER
  5
28
330
1
100
AcDbSymbolTableRecord
100
AcDbLayerTableRecord
  2
Defpoints
 70
0
 62
7
  6
Continuous
290
0
370
-3
390
13
347
21
  0
LAYER
  5
2F
330
1
100
AcDbSymbolTableRecord
100
AcDbLayerTableRecord
  2
default
 70
0
 62
7
  6
Continuous
370
-3
390
13
347
21
  0
ENDTAB
  0
TABLE
  2
STYLE
  5
5
330
0
100
AcDbSymbolTable
 70
1
  0
STYLE
  5
29
330
5
100
AcDbSymbolTableRecord
100
AcDbTextStyleTableRecord
  2
Standard
 70
0
 40
0.0
 41
1.0
 50
0.0
 71
0
 42
2.5
  3
txt
  4

  0
ENDTAB
  0
TABLE
  2
VIEW
  5
7
330
0
100
AcDbSymbolTable
 70
0
  0
ENDTAB
  0
TABLE
  2
UCS
  5
6
330
0
100
AcDbSymbolTable
 70
0
  0
ENDTAB
  0
TABLE
  2
APPID
  5
3
330
0
100
AcDbSymbolTable
 70
3
  0
APPID
  5
2A
330
3
100
AcDbSymbolTableRecord
100
AcDbRegAppTableRecord
  2
ACAD
 70
0
  0
APPID
  5
151
330
3
100
AcDbSymbolTableRecord
100
AcDbRegAppTableRecord
  2
HATCHBACKGROUNDCOLOR
 70
0
  0
APPID
  5
152
330
3
100
AcDbSymbolTableRecord
100
AcDbRegAppTableRecord
  2
EZDXF
 70
0
  0
ENDTAB
  0
TABLE
  2
DIMSTYLE
  5
4
330
0
100
AcDbSymbolTable
 70
1
100
AcDbDimStyleTable
  0
DIMSTYLE
105
2B
330
4
100
AcDbSymbolTableRecord
100
AcDbDimStyleTableRecord
  2
Standard
 70
0
 40
1.0
 41
2.5
 42
0.625
 43
3.75
 44
1.25
 45
0.0
 46
0.0
 47
0.0
 48
0.0
 49
2.5
140
2.5
141
2.5
142
0.0
143
0.03937007874
144
1.0
145
0.0
146
1.0
147
0.625
148
0.0
 69
0
 70
0
 71
0
 72
0
 73
0
 74
0
 75
0
 76
0
 77
1
 78
8
 79
3
170
0
171
3
172
1
173
0
174
0
175
0
176
0
177
0
178
0
179
2
271
2
272
2
273
2
274
3
275
0
276
0
277
2
278
44
279
0
280
0
281
0
282
0
283
0
284
8
285
0
286
0
288
0
289
3
290
0
371
-2
372
-2
  0
ENDTAB
  0
TABLE
  2
BLOCK_RECORD
  5
9
330
0
100
AcDbSymbolTable
 70
2
  0
BLOCK_RECORD
  5
17
330
9
100
AcDbSymbolTableRecord
100
AcDbBlockTableRecord
  2
*Model_Space
340
1A
 70
0
280
1
281
0
  0
BLOCK_RECORD
  5
1B
330
9
100
AcDbSymbolTableRecord
100
AcDbBlockTableRecord
  2
*Paper_Space
340
1E
 70
0
280
1
281
0
  0
ENDTAB
  0
ENDSEC
  0
SECTION
  2
BLOCKS
  0
BLOCK
  5
18
330
17
100
AcDbEntity
  8
0
100
AcDbBlockBegin
  2
*Model_Space
 70
0
 10
0.0
 20
0.0
 30
0.0
  3
*Model_Space
  1

  0
ENDBLK
  5
19
330
17
100
AcDbEntity
  8
0
100
AcDbBlockEnd
  0
BLOCK
  5
1C
330
1B
100
AcDbEntity
  8
0
100
AcDbBlockBegin
  2
*Paper_Space
 70
0
 10
0.0
 20
0.0
 30
0.0
  3
*Paper_Space
  1

  0
ENDBLK
  5
1D
330
1B
100
AcDbEntity
  8
0
100
AcDbBlockEnd
  0
ENDSEC
  0
SECTION
  2
ENTITIES
  0
LWPOLYLINE
  5
30
330
17
100
AcDbEntity
  8
0
 62
0
100
AcDbPolyline
 90
339
 70
0
 10
24.921572875253855
 20
250.0
 10
30.578427124746227
 20
250.0
 10
32.591017868007256
 20
250.0
 10
38.91884171740475
 20
250.0
 10
49.9577234663274
 20
250.0
 10
55.340254384752924
 20
250.0
 10
58.26969619186274
 20
250.0
 10
65.47417726786144
 20
250.0
 10
72.73047256946195
 20
250.0
 10
77.87751083303462
 20
250.0
 10
86.21152213010441
 20
250.0
 10
93.61481458260911
 20
250.0
 10
93.64223204366021
 20
250.0
 10
98.58650395365939
 20
250.0
 10
113.01337511495063
 20
250.0
 10
125.99146782101954
 20
250.0
 10
131.10303162583511
 20
250.0
 10
135.72183377935215
 20
250.0
 10
148.1239851511241
 20
250.0
 10
152.61329010166153
 20
250.0
 10
154.04230318619543
 20
250.0
 10
168.6321012298781
 20
250.0
 10
179.641701253872
 20
250.0
 10
183.9262812284201
 20
250.0
 10
194.4171514932969
 20
250.0
 10
198.62300039024998
 20
250.0
 10
203.84853201500405
 20
250.0
 10
222.03530692992584
 20
250.0
 10
222.5661783927644
 20
250.0
 10
226.65554077222453
 20
250.0
 10
236.12895966728993
 20
250.0
 10
240.17882017044195
 20
250.0
 10
249.46292462445388
 20
250.0
 10
253.48495774270796
 20
250.0
 10
262.64531048724393
 20
250.0
 10
266.6507998712356
 20
250.0
 10
275.75000000000006
 20
250.0
 10
279.75000000000006
 20
250.0
 10
288.84920012876444
 20
250.0
 10
292.8546895127561
 20
250.0
 10
302.01504225729207
 20
250.0
 10
306.0370753755462
 20
250.0
 10
315.32117982955805
 20
250.0
 10
319.37104033271004
 20
250.0
 10
328.8444592277755
 20
250.0
 10
332.9338216072356
 20
250.0
 10
333.46469307007425
 20
250.0
 10
351.651467984996
 20
250.0
 10
356.87699960975004
 20
250.0
 10
361.08284850670316
 20
250.0
 10
371.57371877157993
 20
250.0
 10
375.85829874612807
 20
250.0
 10
386.867898770122
 20
250.0
 10
401.45769681380455
 20
250.0
 10
402.8867098983385
 20
250.0
 10
407.3760148488759
 20
250.0
 10
419.77816622064796
 20
250.0
 10
424.39696837416494
 20
250.0
 10
429.5085321789805
 20
250.0
 10
442.4866248850496
 20
250.0
 10
456.9134960463407
 20
250.0
 10
461.8577679563398
 20
250.0
 10
461.88518541739097
 20
250.0
 10
469.28847786989564
 20
250.0
 10
477.62248916696547
 20
250.0
 10
482.7695274305382
 20
250.0
 10
490.0258227321386
 20
250.0
 10
497.23030380813725
 20
250.0
 10
500.1597456152473
 20
250.0
 10
505.54227653367275
 20
250.0
 10
516.5811582825952
 20
250.0
 10
522.9089821319927
 20
250.0
 10
524.9215728752539
 20
250.0
 10
530.5784271247463
 20
250.0
 10
541.3666609663484
 20
250.0
 10
547.6944848157458
 20
250.0
 10
552.414175607569
 20
250.0
 10
555.5
 20
250.0
 10
555.5
 20
247.3959578445123
 10
555.5
 20
242.91608416282295
 10
555.5
 20
237.2787227419877
 10
555.5
 20
227.49103435169962
 10
555.5
 20
224.8
 10
555.5
 20
222.34399608812703
 10
555.5
 20
220.60690082911168
 10
555.5
 20
220.0
 10
555.5
 20
214.9695394082765
 10
555.5
 20
204.26932310848858
 10
555.5
 20
199.32505119848938
 10
555.5
 20
197.3575299262213
 10
555.5
 20
194.8
 10
555.5
 20
191.06734719364403
 10
555.5
 20
190.0
 10
555.5
 20
182.75768559628045
 10
555.5
 20
177.9882324249366
 10
555.5
 20
172.20737156596778
 10
555.5
 20
165.73824069972179
 10
555.5
 20
162.668438344177
 10
555.5
 20
158.04963619066
 10
555.5
 20
143.81313155597599
 10
555.5
 20
136.59633859494193
 10
555.5
 20
125.85153990145798
 10
555.5
 20
121.47299478743382
 10
555.5
 20
110.75557804470093
 10
555.5
 20
101.7803193963254
 10
555.5
 20
92.34937007716628
 10
555.5
 20
88.1435211802132
 10
555.5
 20
76.49344055856449
 10
555.5
 20
72.35233583692414
 10
555.5
 20
65.0678854558392
 10
555.5
 20
50.14823858692537
 10
555.5
 20
46.01620855171595
 10
555.5
 20
41.966348048563944
 10
555.5
 20
31.20371790416866
 10
555.5
 20
27.1816847859146
 10
555.5
 20
16.559005387860537
 10
555.5
 20
12.553516003868852
 10
555.5
 20
2.0
 10
555.5
 20
0.0
 10
511.06000000000006
 20
0.0
 10
510.95084013981227
 20
2.0
 10
510.50353843452655
 20
10.195351377627679
 10
510.4261132351425
 20
11.613916759644155
 10
510.2855426618832
 20
14.18941608728203
 10
509.9365485798902
 20
20.583599469207705
 10
509.64347094055773
 20
22.361969367183654
 10
509.4248785950721
 20
23.688368911089665
 10
508.9919204358517
 20
26.315521767903615
 10
507.6613272646577
 20
34.389446641508115
 10
507.0108829323771
 20
38.33628688312959
 10
506.57701377087767
 20
40.96896762338703
 10
505.0990430208031
 20
46.279849693741795
 10
504.55438566790605
 20
48.23700004319365
 10
504.0245681823485
 20
50.14082539593903
 10
501.8442951145239
 20
57.975333043538186
 10
501.01374972968165
 20
60.959782223437124
 10
500.6781647627946
 20
61.803974079163225
 10
497.67628312423324
 20
69.35545665788148
 10
496.78084224697267
 20
71.60801255417127
 10
496.1956125291144
 20
73.08020651484755
 10
493.3003337302083
 20
80.36352079666898
 10
493.19704741145705
 20
80.56008296855438
 10
491.32355199416116
 20
84.125495432599
 10
487.58711724422375
 20
91.23623128256682
 10
485.7225649645494
 20
94.78462423642253
 10
483.51105018511464
 20
98.99331473345956
 10
481.71984997995776
 20
101.68317701908043
 10
480.18527182346907
 20
103.9876675476057
 10
479.48773629779237
 20
105.0351632423899
 10
475.09691869519395
 20
111.62889555565485
 10
473.01448165540495
 20
114.75611094976976
 10
472.87533645894496
 20
114.96506660704661
 10
471.7401752463069
 20
116.66974893411646
 10
468.02354922324366
 20
121.18036106454277
 10
465.46350914539283
 20
124.28730477044036
 10
460.5039489925804
 20
130.30638014903255
 10
458.1010688740601
 20
133.22258967436565
 10
457.93692522583
 20
133.38560012208708
 10
452.41610630698216
 20
138.86830489594962
 10
451.9040317818108
 20
139.3768442059686
 10
449.5612089498666
 20
141.70349286331944
 10
444.11903981104604
 20
147.10809083260148
 10
442.72508311863334
 20
148.492424049175
 10
441.1267399570377
 20
149.79634286072613
 10
435.20538005336925
 20
154.62695292862298
 10
434.1501770706557
 20
155.48778122396325
 10
432.09001886631006
 20
157.16844599105616
 10
426.2477643212147
 20
161.93452237956777
 10
425.76029712822015
 20
162.33219520617473
 10
422.9265629792376
 20
164.22386080435894
 10
416.683961975054
 20
168.3911231310116
 10
416.5033671261325
 20
168.51167962818218
 10
413.3429727719307
 20
170.62140798032334
 10
407.3700910658033
 20
174.60861858353454
 10
407.1636433418519
 20
174.71999572462147
 10
403.61163390714125
 20
176.63628062415896
 10
397.118532765345
 20
180.13926446975435
 10
393.58652274440135
 20
182.04475982176788
 10
387.7315726688735
 20
185.20346551315455
 10
387.1336353436162
 20
185.45801393173005
 10
383.4260896561433
 20
187.03635642964406
 10
376.7438780623443
 20
189.88104653668233
 10
373.05477778004627
 20
191.45153662512314
 10
367.0338716050992
 20
194.0147018273702
 10
366.4096848102751
 20
194.21572577548633
 10
364.5473176548851
 20
194.81551481543846
 10
362.58024054188877
 20
195.4490264673709
 10
355.7611592787654
 20
197.64516174194716
 10
351.947987391047
 20
198.8732217939556
 10
345.4763180502386
 20
200.9574705037639
 10
345.17037694332396
 20
201.02644823361862
 10
344.9875008837485
 20
201.06767961818642
 10
341.25160423813577
 20
201.90997790292846
 10
334.33972841636205
 20
203.46833502607507
 10
332.3871361420872
 20
203.90856806232722
 10
330.4345438678123
 20
204.34880109857937
 10
323.55981840160825
 20
205.89878227245805
 10
323.2665230295829
 20
205.96490888467838
 10
319.5888818255347
 20
206.45593187280997
 10
312.62167178047247
 20
207.38616408020997
 10
310.11933900963754
 20
207.72026489273148
 10
308.65567938795374
 20
207.9156864907535
 10
301.71128693144163
 20
208.84287219092502
 10
300.6183790102897
 20
208.98879260116135
 10
297.718070028457
 20
209.11704016518974
 10
290.7283024502089
 20
209.42611780852013
 10
286.7320739179434
 20
209.60282538615206
 10
279.75000000000006
 20
209.91156282669763
 10
277.74999999999994
 20
210.0
 10
275.75000000000006
 20
209.91156282669763
 10
268.7679260820566
 20
209.60282538615206
 10
264.7716975497911
 20
209.42611780852013
 10
257.78192997154304
 20
209.11704016518974
 10
254.88162098971026
 20
208.98879260116135
 10
253.7887130685584
 20
208.84287219092505
 10
246.84432061204626
 20
207.9156864907535
 10
242.87832821952748
 20
207.38616408021
 10
235.91111817446523
 20
206.45593187280997
 10
232.23347697041703
 20
205.96490888467838
 10
231.94018159839175
 20
205.89878227245805
 10
225.06545613218773
 20
204.34880109857937
 10
223.52547920783434
 20
204.0015966534434
 10
221.16027158363795
 20
203.46833502607507
 10
214.24839576186423
 20
201.90997790292846
 10
211.94250121538988
 20
201.3900890501219
 10
210.32962305667607
 20
201.0264482336186
 10
210.0236819497614
 20
200.95747050376386
 10
203.55201260895308
 20
198.87322179395557
 10
199.73884072123474
 20
197.64516174194716
 10
192.91975945811132
 20
195.4490264673709
 10
189.09031518972498
 20
194.21572577548636
 10
188.46612839490078
 20
194.01470182737017
 10
182.44522221995376
 20
191.4515366251231
 10
178.75612193765568
 20
189.8810465366823
 10
172.07391034385677
 20
187.0363564296441
 10
168.36636465638384
 20
185.45801393173008
 10
167.76842733112645
 20
185.20346551315453
 10
161.91347725559885
 20
182.04475982176794
 10
158.3814672346552
 20
180.1392644697544
 10
151.8883660928588
 20
176.63628062415899
 10
150.5226997042915
 20
175.89951290821668
 10
148.33635665814808
 20
174.7199957246215
 10
148.12990893419664
 20
174.6086185835345
 10
142.15702722806932
 20
170.62140798032337
 10
138.95652438467215
 20
168.48490511610132
 10
138.81603802494607
 20
168.39112313101165
 10
132.5734370207625
 20
164.22386080435902
 10
129.73970287177977
 20
162.3321952061747
 10
129.25223567878533
 20
161.93452237956785
 10
123.40998113369001
 20
157.16844599105622
 10
120.29461994663079
 20
154.62695292862304
 10
114.37326004296226
 20
149.79634286072613
 10
112.77491688136658
 20
148.49242404917496
 10
111.38096018895398
 20
147.1080908326015
 10
105.93879105013339
 20
141.7034928633194
 10
103.08389369301781
 20
138.86830489594956
 10
97.56307477417005
 20
133.38560012208706
 10
97.39893112593984
 20
133.2225896743655
 10
94.9960510074197
 20
130.30638014903258
 10
90.03649085460724
 20
124.28730477044037
 10
87.47645077675645
 20
121.18036106454282
 10
83.75982475369315
 20
116.66974893411641
 10
82.6246635410551
 20
114.96506660704662
 10
81.26702995223627
 20
112.92629540897387
 10
80.40308130480611
 20
111.62889555565485
 10
76.01226370220768
 20
105.03516324238994
 10
75.32136014556599
 20
103.9976268382173
 10
73.78015002004227
 20
101.68317701908046
 10
71.98894981488532
 20
98.9933147334595
 10
69.77743503545058
 20
94.78462423642252
 10
67.91288275577625
 20
91.23623128256678
 10
64.17644800583885
 20
84.12549543259892
 10
62.98749899101649
 20
81.86282983041679
 10
62.30295258854301
 20
80.56008296855434
 10
62.19966626979169
 20
80.36352079666884
 10
59.304387470885665
 20
73.08020651484756
 10
57.82371687576679
 20
69.35545665788149
 10
54.82183523720539
 20
61.80397407916318
 10
54.48625027031834
 20
60.959782223437045
 10
53.655704885476105
 20
57.97533304353816
 10
51.47543181765154
 20
50.140825395939025
 10
50.400956979196906
 20
46.27984969374179
 10
48.922986229122344
 20
40.96896762338695
 10
48.489117067622885
 20
38.33628688312962
 10
47.8386727353423
 20
34.38944664150814
 10
46.508079564148275
 20
26.315521767903586
 10
45.85652905944223
 20
22.361969367183615
 10
45.56345142010976
 20
20.583599469207723
 10
45.21445733811682
 20
14.189416087282025
 10
45.066283785023955
 20
11.474616840782328
 10
44.99646156547346
 20
10.195351377627667
 10
44.549159860187785
 20
2.0000000000001323
 10
44.440000000000026
 20
0.0
 10
0.0
 20
0.0
 10
0.0
 20
2.000000000000157
 10
0.0
 20
12.553516003868847
 10
0.0
 20
16.55900538786053
 10
0.0
 20
27.181684785914552
 10
0.0
 20
31.20371790416862
 10
0.0
 20
41.96634804856399
 10
0.0
 20
46.01620855171599
 10
0.0
 20
50.14823858692541
 10
0.0
 20
65.06788545583912
 10
0.0
 20
72.35233583692411
 10
0.0
 20
76.49344055856443
 10
0.0
 20
88.14352118021321
 10
0.0
 20
92.3493700771663
 10
0.0
 20
101.78031939632525
 10
0.0
 20
110.75557804470081
 10
0.0
 20
121.47299478743378
 10
0.0
 20
125.85153990145794
 10
0.0
 20
136.59633859494187
 10
0.0
 20
143.813131555976
 10
0.0
 20
158.04963619066004
 10
0.0
 20
162.66843834417702
 10
0.0
 20
165.7382406997218
 10
0.0
 20
172.2073715659678
 10
0.0
 20
177.98823242493677
 10
0.0
 20
182.75768559628054
 10
0.0
 20
190.0
 10
0.0
 20
191.06734719364405
 10
0.0
 20
194.8
 10
0.0
 20
197.35752992622133
 10
0.0
 20
199.3250511984895
 10
0.0
 20
204.26932310848863
 10
0.0
 20
214.9695394082765
 10
0.0
 20
220.0
 10
0.0
 20
220.60690082911177
 10
0.0
 20
222.34399608812691
 10
0.0
 20
224.8
 10
0.0
 20
227.49103435169954
 10
0.0
 20
237.27872274198768
 10
0.0
 20
242.91608416282295
 10
0.0
 20
247.3959578445124
 10
0.0
 20
250.0
 10
3.08582439243113
 20
250.0
 10
7.80551518425414
 20
250.0
 10
14.133339033651675
 20
250.0
 10
24.921572875253855
 20
250.0
  0
LWPOLYLINE
  5
31
330
17
100
AcDbEntity
  8
0
 62
0
100
AcDbPolyline
 90
4
 70
0
 10
26.462019852807774
 20
245.0
 10
8.638886966577093
 20
245.0
 10
17.11110566700274
 20
237.37158001796095
 10
26.462019852807774
 20
245.0
  0
LWPOLYLINE
  5
32
330
17
100
AcDbEntity
  8
0
 62
0
100
AcDbPolyline
 90
4
 70
0
 10
51.247522536560886
 20
245.0
 10
35.578427124746256
 20
245.0
 10
42.618187303701504
 20
237.96023982104475
 10
51.247522536560886
 20
245.0
  0
LWPOLYLINE
  5
33
330
17
100
AcDbEntity
  8
0
 62
0
100
AcDbPolyline
 90
5
 70
0
 10
66.92983516546333
 20
237.12846654331915
 10
77.46085063274253
 20
244.158469580319
 10
76.77939273543697
 20
245.0
 10
59.842274606242135
 20
245.0
 10
66.92983516546333
 20
237.12846654331915
  0
LWPOLYLINE
  5
34
330
17
100
AcDbEntity
  8
0
 62
0
100
AcDbPolyline
 90
8
 70
0
 10
100.37921190666037
 20
240.72734271798825
 10
97.27494468368702
 20
245.0
 10
85.92595276668438
 20
245.0
 10
83.32982692514406
 20
243.26695036132375
 10
90.6063732196867
 20
234.28116403279736
 10
99.61617923352922
 20
240.29568028119644
 10
99.93780511066619
 20
240.4892067576918
 10
100.37921190666037
 20
240.72734271798825
  0
LWPOLYLINE
  5
35
330
17
100
AcDbEntity
  8
0
 62
0
100
AcDbPolyline
 90
4
 70
0
 10
108.2989732013687
 20
245.0
 10
102.2192165936862
 20
245.0
 10
103.93122134137107
 20
242.64362761752574
 10
108.2989732013687
 20
245.0
  0
LWPOLYLINE
  5
36
330
17
100
AcDbEntity
  8
0
 62
0
100
AcDbPolyline
 90
7
 70
0
 10
133.98978297178326
 20
245.0
 10
121.02986625228198
 20
245.0
 10
126.12699384847825
 20
237.1511117985249
 10
134.44590669713335
 20
241.63910862552225
 10
134.77834257186683
 20
241.79912257899628
 10
135.62878502269848
 20
242.16116517410524
 10
133.98978297178326
 20
245.0
  0
LWPOLYLINE
  5
37
330
17
100
AcDbEntity
  8
0
 62
0
100
AcDbPolyline
 90
4
 70
0
 10
142.29724249001274
 20
245.0
 10
138.60858512530027
 20
245.0
 10
139.3363307101714
 20
243.73950767201924
 10
142.29724249001274
 20
245.0
  0
LWPOLYLINE
  5
38
330
17
100
AcDbEntity
  8
0
 62
0
100
AcDbPolyline
 90
5
 70
0
 10
172.69519377488032
 20
240.87414472814893
 10
181.99507906958004
 20
243.86924118720597
 10
181.56102142904908
 20
245.0
 10
170.85824465642077
 20
245.0
 10
172.69519377488032
 20
240.87414472814893
  0
LWPOLYLINE
  5
39
330
17
100
AcDbEntity
  8
0
 62
0
100
AcDbPolyline
 90
5
 70
0
 10
216.22404409072402
 20
237.3454000479732
 10
224.84295125482862
 20
239.28862584068932
 10
223.62896120111452
 20
245.0
 10
214.17300021519515
 20
245.0
 10
216.22404409072402
 20
237.3454000479732
  0
LWPOLYLINE
  5
3A
330
17
100
AcDbEntity
  8
0
 62
0
100
AcDbPolyline
 90
5
 70
0
 10
228.8159990193037
 20
239.8358430805202
 10
237.55402259719685
 20
241.00250676779305
 10
236.92088186891263
 20
245.0
 10
227.71832358057463
 20
245.0
 10
228.8159990193037
 20
239.8358430805202
  0
LWPOLYLINE
  5
3B
330
17
100
AcDbEntity
  8
0
 62
0
100
AcDbPolyline
 90
5
 70
0
 10
241.52001498971563
 20
241.53202917833656
 10
250.23070648034184
 20
242.69504360174244
 10
249.98844580078224
 20
245.0
 10
240.97074237206465
 20
245.0
 10
241.52001498971563
 20
241.53202917833656
  0
LWPOLYLINE
  5
3C
330
17
100
AcDbEntity
  8
0
 62
0
100
AcDbPolyline
 90
5
 70
0
 10
254.2245084884942
 20
242.96364467219757
 10
262.99374842574724
 20
243.35140806822804
 10
262.90734938365915
 20
245.0
 10
254.01047891903633
 20
245.0
 10
254.2245084884942
 20
242.96364467219757
  0
LWPOLYLINE
  5
3D
330
17
100
AcDbEntity
  8
0
 62
0
100
AcDbPolyline
 90
5
 70
0
 10
266.98997695801273
 20
243.52811564585994
 10
275.75000000000006
 20
243.91547148380843
 10
275.75000000000006
 20
245.0
 10
266.9128387676508
 20
245.0
 10
266.98997695801273
 20
243.52811564585994
  0
LWPOLYLINE
  5
3E
330
17
100
AcDbEntity
  8
0
 62
0
100
AcDbPolyline
 90
5
 70
0
 10
279.75000000000006
 20
243.91547148380843
 10
288.5100230419873
 20
243.52811564585994
 10
288.5871612323493
 20
245.0
 10
279.75000000000006
 20
245.0
 10
279.75000000000006
 20
243.91547148380843
  0
LWPOLYLINE
  5
3F
330
17
100
AcDbEntity
  8
0
 62
0
100
AcDbPolyline
 90
5
 70
0
 10
292.5062515742528
 20
243.35140806822804
 10
301.27549151150583
 20
242.96364467219757
 10
301.4895210809637
 20
245.0
 10
292.5926506163409
 20
245.0
 10
292.5062515742528
 20
243.35140806822804
  0
LWPOLYLINE
  5
40
330
17
100
AcDbEntity
  8
0
 62
0
100
AcDbPolyline
 90
5
 70
0
 10
305.2692935196582
 20
242.69504360174244
 10
313.9799850102844
 20
241.53202917833656
 10
314.52925762793535
 20
245.0
 10
305.5115541992178
 20
245.0
 10
305.2692935196582
 20
242.69504360174244
  0
LWPOLYLINE
  5
41
330
17
100
AcDbEntity
  8
0
 62
0
100
AcDbPolyline
 90
5
 70
0
 10
317.9459774028031
 20
241.00250676779305
 10
326.6840009806962
 20
239.8358430805202
 10
327.7816764194253
 20
245.0
 10
318.57911813108734
 20
245.0
 10
317.9459774028031
 20
241.00250676779305
  0
LWPOLYLINE
  5
42
330
17
100
AcDbEntity
  8
0
 62
0
100
AcDbPolyline
 90
5
 70
0
 10
330.6570487451714
 20
239.28862584068932
 10
339.275955909276
 20
237.3454000479732
 10
341.32699978480485
 20
245.0
 10
331.8710387988855
 20
245.0
 10
330.6570487451714
 20
239.28862584068932
  0
LWPOLYLINE
  5
43
330
17
100
AcDbEntity
  8
0
 62
0
100
AcDbPolyline
 90
5
 70
0
 10
373.50492093042
 20
243.86924118720594
 10
382.80480622511976
 20
240.8741447281489
 10
384.6417553435793
 20
245.0
 10
373.93897857095095
 20
245.0
 10
373.50492093042
 20
243.86924118720594
  0
LWPOLYLINE
  5
44
330
17
100
AcDbEntity
  8
0
 62
0
100
AcDbPolyline
 90
4
 70
0
 10
416.8914148746998
 20
245.0
 10
413.20275750998724
 20
245.0
 10
416.16366928982865
 20
243.73950767201922
 10
416.8914148746998
 20
245.0
  0
LWPOLYLINE
  5
45
330
17
100
AcDbEntity
  8
0
 62
0
100
AcDbPolyline
 90
7
 70
0
 10
434.47013374771825
 20
245.0
 10
421.5102170282168
 20
245.0
 10
419.8712149773016
 20
242.1611651741052
 10
420.7216574281331
 20
241.7991225789963
 10
421.0540933028666
 20
241.63910862552228
 10
429.3730061515219
 20
237.1511117985248
 10
434.47013374771825
 20
245.0
  0
LWPOLYLINE
  5
46
330
17
100
AcDbEntity
  8
0
 62
0
100
AcDbPolyline
 90
4
 70
0
 10
453.2807834063139
 20
245.0
 10
447.20102679863135
 20
245.0
 10
451.568778658629
 20
242.64362761752574
 10
453.2807834063139
 20
245.0
  0
LWPOLYLINE
  5
47
330
17
100
AcDbEntity
  8
0
 62
0
100
AcDbPolyline
 90
8
 70
0
 10
472.170173074856
 20
243.26695036132372
 10
469.57404723331564
 20
245.0
 10
458.225055316313
 20
245.0
 10
455.1207880933397
 20
240.72734271798828
 10
455.56219488933374
 20
240.48920675769187
 10
455.8838207664707
 20
240.29568028119652
 10
464.89362678031335
 20
234.28116403279736
 10
472.170173074856
 20
243.26695036132372
  0
LWPOLYLINE
  5
48
330
17
100
AcDbEntity
  8
0
 62
0
100
AcDbPolyline
 90
5
 70
0
 10
478.03914936725755
 20
244.158469580319
 10
488.5701648345368
 20
237.1284665433191
 10
495.6577253937581
 20
245.0
 10
478.7206072645631
 20
245.0
 10
478.03914936725755
 20
244.158469580319
  0
LWPOLYLINE
  5
49
330
17
100
AcDbEntity
  8
0
 62
0
100
AcDbPolyline
 90
4
 70
0
 10
519.9215728752539
 20
245.0
 10
504.25247746343916
 20
245.0
 10
512.8818126962985
 20
237.96023982104467
 10
519.9215728752539
 20
245.0
  0
LWPOLYLINE
  5
4A
330
17
100
AcDbEntity
  8
0
 62
0
100
AcDbPolyline
 90
4
 70
0
 10
546.861113033423
 20
245.0
 10
529.0379801471921
 20
245.0
 10
538.3888943329972
 20
237.37158001796092
 10
546.861113033423
 20
245.0
  0
LWPOLYLINE
  5
4B
330
17
100
AcDbEntity
  8
0
 62
0
100
AcDbPolyline
 90
11
 70
0
 10
547.4509032201613
 20
234.60785280403232
 10
548.4028467725446
 20
234.3694033573221
 10
549.3268343236509
 20
234.0387953251129
 10
550.21396736826
 20
233.61921264348356
 10
550.5
 20
233.44777128173826
 10
550.5
 20
242.24420418093226
 10
550.1568611945397
 20
242.58497405483118
 10
541.5107715816237
 20
234.8
 10
545.5
 20
234.8
 10
546.4801714032956
 20
234.75184726672197
 10
547.4509032201613
 20
234.60785280403232
  0
LWPOLYLINE
  5
4C
330
17
100
AcDbEntity
  8
0
 62
0
100
AcDbPolyline
 90
12
 70
0
 10
549.3268343236509
 20
210.76120467488713
 10
548.4028467725446
 20
210.4305966426779
 10
547.4509032201613
 20
210.1921471959677
 10
546.4801714032956
 20
210.04815273327804
 10
545.5
 20
210.0
 10
543.7163666821732
 20
210.0
 10
550.0756258859136
 20
203.68464329167801
 10
550.21396736826
 20
203.61921264348356
 10
550.5
 20
203.44777128173826
 10
550.5
 20
211.35222871826176
 10
550.21396736826
 20
211.18078735651645
 10
549.3268343236509
 20
210.76120467488713
  0
LWPOLYLINE
  5
4D
330
17
100
AcDbEntity
  8
0
 62
0
100
AcDbPolyline
 90
7
 70
0
 10
550.21396736826
 20
181.18078735651645
 10
549.3268343236509
 20
180.76120467488713
 10
548.6510904978666
 20
180.51941966787854
 10
549.8370391151357
 20
179.08011579766907
 10
550.5
 20
179.5106476302929
 10
550.5
 20
181.35222871826176
 10
550.21396736826
 20
181.18078735651645
  0
LWPOLYLINE
  5
4E
330
17
100
AcDbEntity
  8
0
 62
0
100
AcDbPolyline
 90
8
 70
0
 10
546.4308489025026
 20
157.43236151671545
 10
550.5
 20
159.78168699822885
 10
550.5
 20
171.9853432595234
 10
549.0207760165229
 20
173.78057517203914
 10
538.8975413941066
 20
167.2064697405221
 10
544.1094283956202
 20
160.88116270517438
 10
544.3517475480331
 20
160.55456768064377
 10
546.4308489025026
 20
157.43236151671545
  0
LWPOLYLINE
  5
4F
330
17
100
AcDbEntity
  8
0
 62
0
100
AcDbPolyline
 90
4
 70
0
 10
550.5
 20
151.3216788358298
 10
550.5
 20
155.16288484471187
 10
548.6524311387516
 20
154.0961904653237
 10
550.5
 20
151.3216788358298
  0
LWPOLYLINE
  5
50
330
17
100
AcDbEntity
  8
0
 62
0
100
AcDbPolyline
 90
7
 70
0
 10
550.5
 20
123.6253964749153
 10
550.5
 20
136.72841387433675
 10
543.266316304598
 20
133.04266793793653
 10
545.6292885231928
 20
129.4941702130766
 10
545.840837047457
 20
129.13774202828998
 10
549.071561018353
 20
122.98941446507315
 10
550.5
 20
123.6253964749153
  0
LWPOLYLINE
  5
51
330
17
100
AcDbEntity
  8
0
 62
0
100
AcDbPolyline
 90
7
 70
0
 10
550.5
 20
90.72477159600174
 10
550.5
 20
102.5566255686356
 10
542.9236970353154
 20
99.64835534196098
 10
543.0306063389909
 20
99.44489833836859
 10
543.2067652096882
 20
99.06189462501162
 10
546.976111556022
 20
89.57979083322577
 10
550.5
 20
90.72477159600174
  0
LWPOLYLINE
  5
52
330
17
100
AcDbEntity
  8
0
 62
0
100
AcDbPolyline
 90
4
 70
0
 10
550.5
 20
80.71515678096544
 10
550.5
 20
86.51892269904866
 10
548.4567821511409
 20
85.85504097625972
 10
550.5
 20
80.71515678096544
  0
LWPOLYLINE
  5
53
330
17
100
AcDbEntity
  8
0
 62
0
100
AcDbPolyline
 90
7
 70
0
 10
550.5
 20
45.224286350093266
 10
550.5
 20
55.930121005768484
 10
541.4208480456703
 20
54.0002876834765
 10
543.1201483380122
 20
47.894088725011464
 10
543.213350234794
 20
47.47210889785233
 10
543.7597285604013
 20
44.15673223049697
 10
550.5
 20
45.224286350093266
  0
LWPOLYLINE
  5
54
330
17
100
AcDbEntity
  8
0
 62
0
100
AcDbPolyline
 90
5
 70
0
 10
544.4101728926819
 20
40.2098919888755
 10
546.057950619305
 20
30.211318524669952
 10
550.5
 20
30.678196727840277
 10
550.5
 20
41.17442584694126
 10
544.4101728926819
 20
40.2098919888755
  0
LWPOLYLINE
  5
55
330
17
100
AcDbEntity
  8
0
 62
0
100
AcDbPolyline
 90
7
 70
0
 10
550.5
 20
16.29696649144533
 10
550.5
 20
26.65616360958622
 10
546.709501124011
 20
26.25776612394999
 10
547.0528185879513
 20
24.174545293075965
 10
547.1001108607596
 20
23.742108940391095
 10
547.5150045347857
 20
16.140529507943498
 10
550.5
 20
16.29696649144533
  0
LWPOLYLINE
  5
56
330
17
100
AcDbEntity
  8
0
 62
0
100
AcDbPolyline
 90
5
 70
0
 10
547.733000307429
 20
12.146464798289145
 10
548.1230538565379
 20
5.0
 10
550.5
 20
5.0
 10
550.5
 20
12.291477107453646
 10
547.733000307429
 20
12.146464798289145
  0
LWPOLYLINE
  5
57
330
17
100
AcDbEntity
  8
0
 62
0
100
AcDbPolyline
 90
5
 70
0
 10
527.1210056165412
 20
11.066235929945883
 10
515.496697820618
 20
10.457031772659004
 10
515.7945422332898
 20
5.0
 10
527.4521003495306
 20
5.0
 10
527.1210056165412
 20
11.066235929945883
  0
LWPOLYLINE
  5
58
330
17
100
AcDbEntity
  8
0
 62
0
100
AcDbPolyline
 90
8
 70
0
 10
514.870002414986
 20
21.39663898668449
 10
514.9291177559965
 20
20.856093545828465
 10
515.2787020479747
 20
14.451096482313355
 10
526.9030098438978
 20
15.060300639600236
 10
526.5213020498825
 20
22.053856574151116
 10
526.1840206325725
 20
24.100451193436783
 10
514.6246344398376
 20
22.885510747508764
 10
514.870002414986
 20
21.39663898668449
  0
LWPOLYLINE
  5
59
330
17
100
AcDbEntity
  8
0
 62
0
100
AcDbPolyline
 90
5
 70
0
 10
525.5324701278664
 20
28.054003594156743
 10
524.0603347716947
 20
36.986794267388035
 10
512.5998655320954
 20
35.17163426101754
 10
513.9730839351315
 20
26.839063148228725
 10
525.5324701278664
 20
28.054003594156743
  0
LWPOLYLINE
  5
5A
330
17
100
AcDbEntity
  8
0
 62
0
100
AcDbPolyline
 90
8
 70
0
 10
511.39396523499613
 20
42.30948192481273
 10
511.5104676059734
 20
41.78200714086382
 10
511.9494211998148
 20
39.11847450263902
 10
523.4098904394141
 20
40.93363450900951
 10
522.9218004687975
 20
43.895322453628964
 10
521.2998862780586
 20
49.723445232658975
 10
509.9991911587485
 20
47.32140833361723
 10
511.39396523499613
 20
42.30948192481273
  0
LWPOLYLINE
  5
5B
330
17
100
AcDbEntity
  8
0
 62
0
100
AcDbPolyline
 90
5
 70
0
 10
520.2254114396039
 20
53.58442093485621
 10
517.8127282974962
 20
62.254061819305946
 10
506.674147911995
 20
59.269488200181776
 10
508.92471632029384
 20
51.18238403581446
 10
520.2254114396039
 20
53.58442093485621
  0
LWPOLYLINE
  5
5C
330
17
100
AcDbEntity
  8
0
 62
0
100
AcDbPolyline
 90
5
 70
0
 10
516.6547378078211
 20
66.08488392439492
 10
513.33242225471
 20
74.44244462833609
 10
502.44138516858027
 20
70.9037321666495
 10
505.5407940639304
 20
63.10691167349447
 10
516.6547378078211
 20
66.08488392439492
  0
LWPOLYLINE
  5
5D
330
17
100
AcDbEntity
  8
0
 62
0
100
AcDbPolyline
 90
7
 70
0
 10
497.94667654468105
 20
82.21054501156094
 10
500.96071457346136
 20
74.62848202361558
 10
511.85175165959106
 20
78.16719448530215
 10
508.69678613950884
 20
86.10377228214534
 10
508.5192116759434
 20
86.44171076859556
 10
497.8791449641892
 20
82.3573718275756
 10
497.94667654468105
 20
82.21054501156094
  0
LWPOLYLINE
  5
5E
330
17
100
AcDbEntity
  8
0
 62
0
100
AcDbPolyline
 90
5
 70
0
 10
506.6457162586475
 20
90.00712323264017
 10
502.5088916088228
 20
97.87983326538787
 10
492.1644904884829
 20
93.2742091542748
 10
496.0237480321602
 20
85.92973164920278
 10
506.6457162586475
 20
90.00712323264017
  0
LWPOLYLINE
  5
5F
330
17
100
AcDbEntity
  8
0
 62
0
100
AcDbPolyline
 90
8
 70
0
 10
487.6727587558856
 20
101.76462882103095
 10
487.93719441121567
 20
101.31909359004773
 10
490.2999382088086
 20
96.82260210813051
 10
500.6443393291485
 20
101.42822621924361
 10
498.20826805548006
 20
106.06426578584953
 10
496.2094066327346
 20
109.06597488556156
 10
486.2051496218741
 20
103.96855133524505
 10
487.6727587558856
 20
101.76462882103095
  0
LWPOLYLINE
  5
60
330
17
100
AcDbEntity
  8
0
 62
0
100
AcDbPolyline
 90
5
 70
0
 10
493.9772929505692
 20
112.41796110887101
 10
489.1137849506989
 20
119.72153706146564
 10
479.435895152735
 20
114.13400478142361
 10
483.9730359397087
 20
107.32053755855453
 10
493.9772929505692
 20
112.41796110887101
  0
LWPOLYLINE
  5
61
330
17
100
AcDbEntity
  8
0
 62
0
100
AcDbPolyline
 90
8
 70
0
 10
475.59898487656164
 20
119.84930680235114
 10
475.9018838170778
 20
119.44106302168785
 10
477.214312916486
 20
117.47017583281539
 10
486.8922027144499
 20
123.05770811285738
 10
485.5966163353288
 20
125.0033024294105
 10
481.52308702212355
 20
129.94706341579217
 10
472.24392819382325
 20
123.92110721420825
 10
475.59898487656164
 20
119.84930680235114
  0
LWPOLYLINE
  5
62
330
17
100
AcDbEntity
  8
0
 62
0
100
AcDbPolyline
 90
5
 70
0
 10
478.9630469442727
 20
133.05400712168975
 10
473.4667894215493
 20
139.72443500442571
 10
464.55653953015707
 20
133.25075952317414
 10
469.6838881159724
 20
127.02805092010584
 10
478.9630469442727
 20
133.05400712168975
  0
LWPOLYLINE
  5
63
330
17
100
AcDbEntity
  8
0
 62
0
100
AcDbPolyline
 90
7
 70
0
 10
461.9598785043149
 20
136.40214754260035
 10
462.0081735561264
 20
136.34353517611822
 10
470.91010490100905
 20
142.8111668795594
 10
464.7902961375839
 20
148.88872624449493
 10
456.3246862021792
 20
142.0334104875472
 10
461.6243352167803
 20
136.77034872456272
 10
461.9598785043149
 20
136.40214754260035
  0
LWPOLYLINE
  5
64
330
17
100
AcDbEntity
  8
0
 62
0
100
AcDbPolyline
 90
5
 70
0
 10
461.93539878046835
 20
151.72391421186475
 10
455.90101996476756
 20
157.7166334128492
 10
447.8405610891956
 20
150.4589636423878
 10
453.46978884506365
 20
144.868598454917
 10
461.93539878046835
 20
151.72391421186475
  0
LWPOLYLINE
  5
65
330
17
100
AcDbEntity
  8
0
 62
0
100
AcDbPolyline
 90
5
 70
0
 10
452.90851820428236
 20
160.40470364356548
 10
446.3409300147864
 20
165.7625028900401
 10
438.7590601784551
 20
158.18063305370885
 10
444.8866504545408
 20
153.18178147887582
 10
452.90851820428236
 20
160.40470364356548
  0
LWPOLYLINE
  5
66
330
17
100
AcDbEntity
  8
0
 62
0
100
AcDbPolyline
 90
5
 70
0
 10
443.22556882772716
 20
168.3039959524733
 10
436.7439211142622
 20
173.59168547153578
 10
429.59739536004764
 20
165.65466453135596
 10
435.6436989913959
 20
160.72212611614202
 10
443.22556882772716
 20
168.3039959524733
  0
LWPOLYLINE
  5
67
330
17
100
AcDbEntity
  8
0
 62
0
100
AcDbPolyline
 90
5
 70
0
 10
433.41638320764605
 20
175.8739864283378
 10
426.48849535887484
 20
180.49871352784498
 10
419.8439458366518
 20
172.29337821639538
 10
426.30741358529826
 20
167.97867579821775
 10
433.41638320764605
 20
175.8739864283378
  0
LWPOLYLINE
  5
68
330
17
100
AcDbEntity
  8
0
 62
0
100
AcDbPolyline
 90
7
 70
0
 10
410.1461411086896
 20
178.76716955224836
 10
416.5029566335285
 20
174.52366306570713
 10
423.14750615575156
 20
182.72899837715673
 10
416.62866899907493
 20
187.08066276807273
 10
416.280617529316
 20
187.26843416564935
 10
410.11687953209264
 20
178.78477662374996
 10
410.1461411086896
 20
178.76716955224836
  0
LWPOLYLINE
  5
69
330
17
100
AcDbEntity
  8
0
 62
0
100
AcDbPolyline
 90
5
 70
0
 10
412.7286080946053
 20
189.18471906518684
 10
405.51871331926446
 20
193.07440819445156
 10
399.85073425464816
 20
184.3464858172144
 10
406.5769761748507
 20
180.7177241094432
 10
412.7286080946053
 20
189.18471906518684
  0
LWPOLYLINE
  5
6A
330
17
100
AcDbEntity
  8
0
 62
0
100
AcDbPolyline
 90
8
 70
0
 10
389.6900455219218
 20
189.8039420193301
 10
390.1055903653386
 20
189.60392457748756
 10
396.31872423370453
 20
186.25198116922792
 10
401.98670329832083
 20
194.9799035464651
 10
395.58739928807876
 20
198.4322844783799
 10
394.81433980789336
 20
198.76138430177912
 10
389.6520875643373
 20
189.8201011344536
 10
389.6900455219218
 20
189.8039420193301
  0
LWPOLYLINE
  5
6B
330
17
100
AcDbEntity
  8
0
 62
0
100
AcDbPolyline
 90
5
 70
0
 10
391.10679412042043
 20
200.33972679969312
 10
383.68311577100116
 20
203.50006736388966
 10
379.01920823534596
 20
194.3466334377082
 10
385.9445418768644
 20
191.39844363236762
 10
391.10679412042043
 20
200.33972679969312
  0
LWPOLYLINE
  5
6C
330
17
100
AcDbEntity
  8
0
 62
0
100
AcDbPolyline
 90
8
 70
0
 10
368.56662958204464
 20
198.7739720428665
 10
368.99234445814744
 20
198.61517833354574
 10
375.3301079530479
 20
195.917123526149
 10
379.99401548870304
 20
205.07055745233046
 10
373.4112910054634
 20
207.8728948150395
 10
372.6057535728524
 20
208.1323240698741
 10
368.455134054649
 20
198.80987999750477
 10
368.56662958204464
 20
198.7739720428665
  0
LWPOLYLINE
  5
6D
330
17
100
AcDbEntity
  8
0
 62
0
100
AcDbPolyline
 90
5
 70
0
 10
368.77630930446605
 20
209.36562476175865
 10
361.19720023125865
 20
211.8065325825151
 10
357.55570777148387
 20
202.32012039639082
 10
364.6256897862627
 20
200.04318068938932
 10
368.77630930446605
 20
209.36562476175865
  0
LWPOLYLINE
  5
6E
330
17
100
AcDbEntity
  8
0
 62
0
100
AcDbPolyline
 90
7
 70
0
 10
347.00907602718405
 20
205.71674071926017
 10
353.74253588376547
 20
203.54818044839922
 10
357.38402834354025
 20
213.0345926345235
 10
350.31391219668416
 20
215.311575539747
 10
349.84616198551896
 20
215.4170348813524
 10
346.72000266042164
 20
205.79570579191352
 10
347.00907602718405
 20
205.71674071926017
  0
LWPOLYLINE
  5
6F
330
17
100
AcDbEntity
  8
0
 62
0
100
AcDbPolyline
 90
5
 70
0
 10
345.9273892803308
 20
216.30056455066227
 10
338.24238099793973
 20
218.03323274481272
 10
335.6348620142476
 20
208.3018394159732
 10
342.8033094381383
 20
206.68563545152534
 10
345.9273892803308
 20
216.30056455066227
  0
LWPOLYLINE
  5
70
330
17
100
AcDbEntity
  8
0
 62
0
100
AcDbPolyline
 90
5
 70
0
 10
334.3371964493899
 20
218.91369881731703
 10
326.69257866574503
 20
220.63726053689365
 10
324.5994556707202
 20
210.78989107165816
 10
331.72967746569776
 20
209.1823054884775
 10
334.3371964493899
 20
218.91369881731703
  0
LWPOLYLINE
  5
71
330
17
100
AcDbEntity
  8
0
 62
0
100
AcDbPolyline
 90
5
 70
0
 10
322.71939161374013
 20
221.1838224804181
 10
314.97086289363057
 20
222.21837302917297
 10
313.4040760254906
 20
212.32607006728136
 10
320.63150629897314
 20
211.36109436342753
 10
322.71939161374013
 20
221.1838224804181
  0
LWPOLYLINE
  5
72
330
17
100
AcDbEntity
  8
0
 62
0
100
AcDbPolyline
 90
5
 70
0
 10
311.00487050111184
 20
222.74789543971647
 10
303.28115125751265
 20
223.77913353284717
 10
302.2341343515348
 20
213.81743309964136
 10
309.4380836329719
 20
212.85559247782487
 10
311.00487050111184
 20
222.74789543971647
  0
LWPOLYLINE
  5
73
330
17
100
AcDbEntity
  8
0
 62
0
100
AcDbPolyline
 90
5
 70
0
 10
299.28734027864556
 20
224.04764925265263
 10
291.51260160621433
 20
224.39143720832985
 10
290.9899909652501
 20
214.41943213363066
 10
298.24167125679674
 20
214.09877308029223
 10
299.28734027864556
 20
224.04764925265263
  0
LWPOLYLINE
  5
74
330
17
100
AcDbEntity
  8
0
 62
0
100
AcDbPolyline
 90
5
 70
0
 10
287.51637307394884
 20
224.56814478596178
 10
279.75000000000006
 20
224.91156282669763
 10
279.75000000000006
 20
214.91644864808612
 10
286.9937624329846
 20
214.5961397112626
 10
287.51637307394884
 20
224.56814478596178
  0
LWPOLYLINE
  5
75
330
17
100
AcDbEntity
  8
0
 62
0
100
AcDbPolyline
 90
5
 70
0
 10
275.75000000000006
 20
224.91156282669763
 10
267.98362692605116
 20
224.56814478596178
 10
268.5062375670154
 20
214.5961397112626
 10
275.75000000000006
 20
214.91644864808612
 10
275.75000000000006
 20
224.91156282669763
  0
LWPOLYLINE
  5
76
330
17
100
AcDbEntity
  8
0
 62
0
100
AcDbPolyline
 90
5
 70
0
 10
263.98739839378567
 20
224.39143720832985
 10
256.2126597213545
 20
224.04764925265263
 10
257.2583287432033
 20
214.09877308029223
 10
264.5100090347499
 20
214.41943213363066
 10
263.98739839378567
 20
224.39143720832985
  0
LWPOLYLINE
  5
77
330
17
100
AcDbEntity
  8
0
 62
0
100
AcDbPolyline
 90
5
 70
0
 10
252.21884874248738
 20
223.7791335328472
 10
244.4951294988882
 20
222.74789543971647
 10
246.06191636702815
 20
212.85559247782487
 10
253.26586564846522
 20
213.8174330996414
 10
252.21884874248738
 20
223.7791335328472
  0
LWPOLYLINE
  5
78
330
17
100
AcDbEntity
  8
0
 62
0
100
AcDbPolyline
 90
5
 70
0
 10
240.5291371063694
 20
222.21837302917297
 10
232.78060838625984
 20
221.18382248041806
 10
234.8684937010268
 20
211.36109436342755
 10
242.09592397450936
 20
212.32607006728136
 10
240.5291371063694
 20
222.21837302917297
  0
LWPOLYLINE
  5
79
330
17
100
AcDbEntity
  8
0
 62
0
100
AcDbPolyline
 90
5
 70
0
 10
228.80742133425497
 20
220.63726053689362
 10
221.16280355061008
 20
218.91369881731703
 10
223.77032253430224
 20
209.1823054884775
 10
230.90054432927977
 20
210.7898910716582
 10
228.80742133425497
 20
220.63726053689362
  0
LWPOLYLINE
  5
7A
330
17
100
AcDbEntity
  8
0
 62
0
100
AcDbPolyline
 90
5
 70
0
 10
217.2576190020603
 20
218.03323274481272
 10
209.57261071966923
 20
216.30056455066227
 10
212.69669056186174
 20
206.68563545152534
 10
219.86513798575245
 20
208.3018394159732
 10
217.2576190020603
 20
218.03323274481272
  0
LWPOLYLINE
  5
7B
330
17
100
AcDbEntity
  8
0
 62
0
100
AcDbPolyline
 90
7
 70
0
 10
208.49092397281595
 20
205.71674071926014
 10
208.7799973395784
 20
205.79570579191352
 10
205.65383801448107
 20
215.41703488135244
 10
205.1860878033158
 20
215.311575539747
 10
198.11597165645978
 20
213.03459263452353
 10
201.7574641162346
 20
203.54818044839922
 10
208.49092397281595
 20
205.71674071926014
  0
LWPOLYLINE
  5
7C
330
17
100
AcDbEntity
  8
0
 62
0
100
AcDbPolyline
 90
5
 70
0
 10
194.30279976874144
 20
211.80653258251513
 10
186.72369069553403
 20
209.36562476175865
 10
190.8743102137374
 20
200.04318068938935
 10
197.94429222851625
 20
202.32012039639082
 10
194.30279976874144
 20
211.80653258251513
  0
LWPOLYLINE
  5
7D
330
17
100
AcDbEntity
  8
0
 62
0
100
AcDbPolyline
 90
8
 70
0
 10
186.50765554185253
 20
198.6151783335457
 10
186.93337041795533
 20
198.77397204286646
 10
187.04486594535106
 20
198.80987999750477
 10
182.8942464271477
 20
208.1323240698741
 10
182.08870899453657
 20
207.87289481503947
 10
175.50598451129696
 20
205.07055745233043
 10
180.16989204695213
 20
195.91712352614897
 10
186.50765554185253
 20
198.6151783335457
  0
LWPOLYLINE
  5
7E
330
17
100
AcDbEntity
  8
0
 62
0
100
AcDbPolyline
 90
5
 70
0
 10
171.81688422899887
 20
203.50006736388966
 10
164.39320587957965
 20
200.33972679969315
 10
169.5554581231357
 20
191.39844363236764
 10
176.48079176465404
 20
194.3466334377082
 10
171.81688422899887
 20
203.50006736388966
  0
LWPOLYLINE
  5
7F
330
17
100
AcDbEntity
  8
0
 62
0
100
AcDbPolyline
 90
8
 70
0
 10
165.39440963466134
 20
189.60392457748753
 10
165.8099544780782
 20
189.80394201933007
 10
165.84791243566278
 20
189.82010113445364
 10
160.68566019210672
 20
198.76138430177915
 10
159.91260071192121
 20
198.43228447837987
 10
153.51329670167934
 20
194.97990354646518
 10
159.18127576629564
 20
186.251981169228
 10
165.39440963466134
 20
189.60392457748753
  0
LWPOLYLINE
  5
80
330
17
100
AcDbEntity
  8
0
 62
0
100
AcDbPolyline
 90
5
 70
0
 10
149.98128668073568
 20
193.07440819445165
 10
142.77139190539475
 20
189.18471906518687
 10
148.9230238251494
 20
180.71772410944322
 10
155.64926574535198
 20
184.34648581721444
 10
149.98128668073568
 20
193.07440819445165
  0
LWPOLYLINE
  5
81
330
17
100
AcDbEntity
  8
0
 62
0
100
AcDbPolyline
 90
7
 70
0
 10
145.3538588913103
 20
178.76716955224833
 10
145.38312046790736
 20
178.78477662375
 10
139.21938247068405
 20
187.26843416564935
 10
138.87133100092495
 20
187.08066276807267
 10
132.35249384424844
 20
182.72899837715676
 10
138.9970433664715
 20
174.52366306570715
 10
145.3538588913103
 20
178.76716955224833
  0
LWPOLYLINE
  5
82
330
17
100
AcDbEntity
  8
0
 62
0
100
AcDbPolyline
 90
5
 70
0
 10
129.01150464112519
 20
180.49871352784504
 10
122.08361679235408
 20
175.87398642833784
 10
129.19258641470185
 20
167.97867579821786
 10
135.65605416334824
 20
172.29337821639544
 10
129.01150464112519
 20
180.49871352784504
  0
LWPOLYLINE
  5
83
330
17
100
AcDbEntity
  8
0
 62
0
100
AcDbPolyline
 90
5
 70
0
 10
118.75607888573788
 20
173.5916854715358
 10
112.2744311722729
 20
168.30399595247334
 10
119.85630100860413
 20
160.7221261161421
 10
125.90260463995237
 20
165.65466453135605
 10
118.75607888573788
 20
173.5916854715358
  0
LWPOLYLINE
  5
84
330
17
100
AcDbEntity
  8
0
 62
0
100
AcDbPolyline
 90
5
 70
0
 10
109.15906998521368
 20
165.76250289004017
 10
102.59148179571763
 20
160.4047036435655
 10
110.61334954545916
 20
153.18178147887582
 10
116.74093982154491
 20
158.18063305370893
 10
109.15906998521368
 20
165.76250289004017
  0
LWPOLYLINE
  5
85
330
17
100
AcDbEntity
  8
0
 62
0
100
AcDbPolyline
 90
5
 70
0
 10
99.59898003523247
 20
157.71663341284923
 10
93.56460121953165
 20
151.72391421186472
 10
102.03021115493638
 20
144.86859845491696
 10
107.65943891080444
 20
150.45896364238783
 10
99.59898003523247
 20
157.71663341284923
  0
LWPOLYLINE
  5
86
330
17
100
AcDbEntity
  8
0
 62
0
100
AcDbPolyline
 90
7
 70
0
 10
93.87566478321965
 20
136.77034872456255
 10
99.1753137978208
 20
142.03341048754712
 10
90.70970386241608
 20
148.88872624449488
 10
84.589895098991
 20
142.8111668795594
 10
93.49182644387363
 20
136.34353517611822
 10
93.54012149568507
 20
136.4021475426002
 10
93.87566478321965
 20
136.77034872456255
  0
LWPOLYLINE
  5
87
330
17
100
AcDbEntity
  8
0
 62
0
100
AcDbPolyline
 90
5
 70
0
 10
82.03321057845075
 20
139.72443500442577
 10
76.53695305572735
 20
133.05400712168978
 10
85.81611188402763
 20
127.02805092010585
 10
90.943460469843
 20
133.25075952317417
 10
82.03321057845075
 20
139.72443500442577
  0
LWPOLYLINE
  5
88
330
17
100
AcDbEntity
  8
0
 62
0
100
AcDbPolyline
 90
8
 70
0
 10
79.59811618292221
 20
119.44106302168781
 10
79.90101512343838
 20
119.8493068023511
 10
83.25607180617685
 20
123.9211072142083
 10
73.97691297787657
 20
129.94706341579223
 10
69.90338366467122
 20
125.00330242941044
 10
68.60779728555013
 20
123.05770811285738
 10
78.28568708351405
 20
117.4701758328154
 10
79.59811618292221
 20
119.44106302168781
  0
LWPOLYLINE
  5
89
330
17
100
AcDbEntity
  8
0
 62
0
100
AcDbPolyline
 90
5
 70
0
 10
66.38621504930114
 20
119.72153706146563
 10
61.52270704943086
 20
112.41796110887104
 10
71.52696406029132
 20
107.32053755855458
 10
76.06410484726506
 20
114.13400478142363
 10
66.38621504930114
 20
119.72153706146563
  0
LWPOLYLINE
  5
8A
330
17
100
AcDbEntity
  8
0
 62
0
100
AcDbPolyline
 90
8
 70
0
 10
67.56280558878429
 20
101.31909359004766
 10
67.82724124411438
 20
101.7646288210309
 10
69.29485037812593
 20
103.9685513352451
 10
59.29059336726547
 20
109.06597488556156
 10
57.29173194451995
 20
106.06426578584947
 10
54.85566067085152
 20
101.42822621924357
 10
65.20006179119142
 20
96.8226021081305
 10
67.56280558878429
 20
101.31909359004766
  0
LWPOLYLINE
  5
8B
330
17
100
AcDbEntity
  8
0
 62
0
100
AcDbPolyline
 90
5
 70
0
 10
52.9911083911772
 20
97.87983326538783
 10
48.85428374135249
 20
90.00712323264011
 10
59.47625196783983
 20
85.92973164920271
 10
63.33550951151708
 20
93.27420915427476
 10
52.9911083911772
 20
97.87983326538783
  0
LWPOLYLINE
  5
8C
330
17
100
AcDbEntity
  8
0
 62
0
100
AcDbPolyline
 90
7
 70
0
 10
57.553323455318925
 20
82.2105450115608
 10
57.620855035810806
 20
82.35737182757556
 10
46.98078832405665
 20
86.44171076859553
 10
46.8032138604911
 20
86.10377228214517
 10
43.64824834040898
 20
78.16719448530216
 10
54.539285426538655
 20
74.62848202361559
 10
57.553323455318925
 20
82.2105450115608
  0
LWPOLYLINE
  5
8D
330
17
100
AcDbEntity
  8
0
 62
0
100
AcDbPolyline
 90
5
 70
0
 10
42.16757774529012
 20
74.44244462833609
 10
38.845262192179014
 20
66.08488392439484
 10
49.95920593606959
 20
63.10691167349444
 10
53.058614831419774
 20
70.90373216664952
 10
42.16757774529012
 20
74.44244462833609
  0
LWPOLYLINE
  5
8E
330
17
100
AcDbEntity
  8
0
 62
0
100
AcDbPolyline
 90
5
 70
0
 10
37.68727170250388
 20
62.2540618193059
 10
35.27458856039613
 20
53.5844209348562
 10
46.57528367970615
 20
51.18238403581446
 10
48.82585208800494
 20
59.269488200181755
 10
37.68727170250388
 20
62.2540618193059
  0
LWPOLYLINE
  5
8F
330
17
100
AcDbEntity
  8
0
 62
0
100
AcDbPolyline
 90
8
 70
0
 10
43.98953239402658
 20
41.782007140863755
 10
44.10603476500386
 20
42.309481924812644
 10
45.50080884125152
 20
47.32140833361722
 10
34.200113721941484
 20
49.72344523265896
 10
32.578199531202486
 20
43.89532245362888
 10
32.09010956058591
 20
40.933634509009536
 10
43.55057880018518
 20
39.118474502639046
 10
43.98953239402658
 20
41.782007140863755
  0
LWPOLYLINE
  5
90
330
17
100
AcDbEntity
  8
0
 62
0
100
AcDbPolyline
 90
5
 70
0
 10
31.439665228305326
 20
36.986794267388056
 10
29.96752987213365
 20
28.0540035941567
 10
41.5269160648684
 20
26.839063148228696
 10
42.90013446790459
 20
35.171634261017566
 10
31.439665228305326
 20
36.986794267388056
  0
LWPOLYLINE
  5
91
330
17
100
AcDbEntity
  8
0
 62
0
100
AcDbPolyline
 90
8
 70
0
 10
40.57088224400347
 20
20.85609354582845
 10
40.629997585013996
 20
21.396638986684525
 10
40.87536556016235
 20
22.885510747508725
 10
29.31597936742761
 20
24.10045119343673
 10
28.978697950117606
 20
22.053856574151133
 10
28.59699015610219
 20
15.060300639600227
 10
40.221297952025324
 20
14.451096482313353
 10
40.57088224400347
 20
20.85609354582845
  0
LWPOLYLINE
  5
92
330
17
100
AcDbEntity
  8
0
 62
0
100
AcDbPolyline
 90
5
 70
0
 10
28.37899438345883
 20
11.06623592994587
 10
28.047899650469414
 20
5.0
 10
39.705457766710175
 20
5.0
 10
40.00330217938197
 20
10.457031772658995
 10
28.37899438345883
 20
11.06623592994587
  0
LWPOLYLINE
  5
93
330
17
100
AcDbEntity
  8
0
 62
0
100
AcDbPolyline
 90
5
 70
0
 10
7.766999692570988
 20
12.146464798289136
 10
5.0
 20
12.29147710745364
 10
5.0
 20
5.0
 10
7.376946143462014
 20
5.0
 10
7.766999692570988
 20
12.146464798289136
  0
LWPOLYLINE
  5
94
330
17
100
AcDbEntity
  8
0
 62
0
100
AcDbPolyline
 90
7
 70
0
 10
5.0
 20
26.65616360958617
 10
5.0
 20
16.296966491445325
 10
7.984995465214345
 20
16.14052950794349
 10
8.39988913924039
 20
23.742108940391123
 10
8.44718141204881
 20
24.174545293075983
 10
8.79049887598906
 20
26.257766123949935
 10
5.0
 20
26.65616360958617
  0
LWPOLYLINE
  5
95
330
17
100
AcDbEntity
  8
0
 62
0
100
AcDbPolyline
 90
5
 70
0
 10
9.442049380695105
 20
30.21131852466991
 10
11.089827107318198
 20
40.20989198887552
 10
5.0
 20
41.174425846941304
 10
5.0
 20
30.678196727840238
 10
9.442049380695105
 20
30.21131852466991
  0
LWPOLYLINE
  5
96
330
17
100
AcDbEntity
  8
0
 62
0
100
AcDbPolyline
 90
7
 70
0
 10
5.0
 20
55.93012100576847
 10
5.0
 20
45.22428635009331
 10
11.740271439598784
 20
44.156732230497
 10
12.286649765206047
 20
47.472108897852245
 10
12.379851661987875
 20
47.89408872501137
 10
14.079151954329763
 20
54.00028768347647
 10
5.0
 20
55.93012100576847
  0
LWPOLYLINE
  5
97
330
17
100
AcDbEntity
  8
0
 62
0
100
AcDbPolyline
 90
4
 70
0
 10
5.0
 20
86.51892269904867
 10
5.0
 20
80.71515678096549
 10
7.043217848859085
 20
85.85504097625973
 10
5.0
 20
86.51892269904867
  0
LWPOLYLINE
  5
98
330
17
100
AcDbEntity
  8
0
 62
0
100
AcDbPolyline
 90
7
 70
0
 10
5.0
 20
102.5566255686356
 10
5.0
 20
90.72477159600176
 10
8.523888443977949
 20
89.5797908332258
 10
12.293234790311672
 20
99.06189462501143
 10
12.469393661009066
 20
99.4448983383684
 10
12.576302964684684
 20
99.64835534196095
 10
5.0
 20
102.5566255686356
  0
LWPOLYLINE
  5
99
330
17
100
AcDbEntity
  8
0
 62
0
100
AcDbPolyline
 90
7
 70
0
 10
5.0
 20
136.72841387433678
 10
5.0
 20
123.62539647491526
 10
6.428438981647057
 20
122.98941446507308
 10
9.65916295254312
 20
129.1377420282899
 10
9.870711476807195
 20
129.49417021307647
 10
12.233683695402032
 20
133.04266793793653
 10
5.0
 20
136.72841387433678
  0
LWPOLYLINE
  5
9A
330
17
100
AcDbEntity
  8
0
 62
0
100
AcDbPolyline
 90
4
 70
0
 10
5.0
 20
155.1628848447119
 10
5.0
 20
151.32167883582977
 10
6.847568861248475
 20
154.09619046532373
 10
5.0
 20
155.1628848447119
  0
LWPOLYLINE
  5
9B
330
17
100
AcDbEntity
  8
0
 62
0
100
AcDbPolyline
 90
8
 70
0
 10
6.479223983477223
 20
173.78057517203922
 10
5.0
 20
171.98534325952338
 10
5.0
 20
159.7816869982289
 10
9.069151097497468
 20
157.4323615167155
 10
11.148252451966776
 20
160.55456768064366
 10
11.390571604379717
 20
160.8811627051743
 10
16.602458605893414
 20
167.2064697405222
 10
6.479223983477223
 20
173.78057517203922
  0
LWPOLYLINE
  5
9C
330
17
100
AcDbEntity
  8
0
 62
0
100
AcDbPolyline
 90
7
 70
0
 10
5.662960884864339
 20
179.08011579766915
 10
6.8489095021333535
 20
180.51941966787857
 10
6.173165676349097
 20
180.76120467488713
 10
5.286032631740022
 20
181.18078735651645
 10
5.0
 20
181.35222871826176
 10
5.0
 20
179.510647630293
 10
5.662960884864339
 20
179.08011579766915
  0
LWPOLYLINE
  5
9D
330
17
100
AcDbEntity
  8
0
 62
0
100
AcDbPolyline
 90
12
 70
0
 10
9.019828596704395
 20
210.04815273327802
 10
8.049096779838713
 20
210.1921471959677
 10
7.097153227455376
 20
210.43059664267793
 10
6.173165676349097
 20
210.76120467488713
 10
5.286032631740022
 20
211.18078735651645
 10
5.0
 20
211.35222871826176
 10
5.0
 20
203.44777128173826
 10
5.286032631740023
 20
203.61921264348356
 10
5.424374114086367
 20
203.684643291678
 10
11.783633317826745
 20
210.0
 10
10.0
 20
210.0
 10
9.019828596704395
 20
210.04815273327802
  0
LWPOLYLINE
  5
9E
330
17
100
AcDbEntity
  8
0
 62
0
100
AcDbPolyline
 90
11
 70
0
 10
5.286032631740023
 20
233.61921264348356
 10
6.173165676349103
 20
234.0387953251129
 10
7.097153227455379
 20
234.3694033573221
 10
8.049096779838719
 20
234.60785280403232
 10
9.019828596704393
 20
234.751847266722
 10
10.0
 20
234.8
 10
13.989228418376365
 20
234.8
 10
5.343138805460315
 20
242.5849740548312
 10
5.0
 20
242.24420418093226
 10
5.0
 20
233.44777128173826
 10
5.286032631740023
 20
233.61921264348356
  0
LWPOLYLINE
  5
9F
330
17
100
AcDbEntity
  8
0
 62
0
100
AcDbPolyline
 90
5
 70
0
 10
11.761527201444183
 20
11.937120482264074
 10
11.382899650469408
 20
5.0
 10
24.041946143462017
 20
5.0
 10
24.384466874585634
 20
11.275580245970932
 10
11.761527201444183
 20
11.937120482264074
  0
LWPOLYLINE
  5
A0
330
17
100
AcDbEntity
  8
0
 62
0
100
AcDbPolyline
 90
8
 70
0
 10
11.97952297408754
 20
15.93118519191843
 10
24.602462647228997
 20
15.269644955625289
 10
24.984642609232576
 20
22.27185183544772
 10
25.031934882040996
 20
22.70428818813257
 10
25.33104856800371
 20
24.519284297696817
 10
12.77542967541296
 20
25.838933019689847
 10
12.39394448012542
 20
23.52411367909454
 10
11.97952297408754
 20
15.93118519191843
  0
LWPOLYLINE
  5
A1
330
17
100
AcDbEntity
  8
0
 62
0
100
AcDbPolyline
 90
5
 70
0
 10
15.040657721268362
 20
39.584141893267976
 10
13.426980180119005
 20
29.792485420409818
 10
25.98259907270975
 20
28.472836698416792
 10
27.488834614355163
 20
37.6125443629956
 10
15.040657721268362
 20
39.584141893267976
  0
LWPOLYLINE
  5
A2
330
17
100
AcDbEntity
  8
0
 62
0
100
AcDbPolyline
 90
8
 70
0
 10
15.691102053548946
 20
43.530982134889456
 10
28.13927894663574
 20
41.55938460461708
 10
28.631436463125876
 20
44.54575406761032
 10
28.724638359907704
 20
44.967733894769445
 10
30.279995211585174
 20
50.5566921445593
 10
17.999270464686074
 20
53.167040771576126
 10
16.233412833282657
 20
46.821677283870805
 10
15.691102053548946
 20
43.530982134889456
  0
LWPOLYLINE
  5
A3
330
17
100
AcDbEntity
  8
0
 62
0
100
AcDbPolyline
 90
6
 70
0
 10
17.854956281554685
 20
67.56811472038854
 10
5.750405336559351
 20
70.81151937084141
 10
5.0
 20
68.11504229426154
 10
5.0
 20
60.01948338522858
 10
15.153626792784406
 20
57.861263385673716
 10
17.854956281554685
 20
67.56811472038854
  0
LWPOLYLINE
  5
A4
330
17
100
AcDbEntity
  8
0
 62
0
100
AcDbPolyline
 90
5
 70
0
 10
21.718838519531612
 20
66.53279059507366
 10
19.073745303140715
 20
57.02801647377337
 10
31.35447005003982
 20
54.417667846756544
 10
33.82338946452694
 20
63.28938594462078
 10
21.718838519531612
 20
66.53279059507366
  0
LWPOLYLINE
  5
A5
330
17
100
AcDbEntity
  8
0
 62
0
100
AcDbPolyline
 90
5
 70
0
 10
10.855299484336701
 20
84.6164205692453
 10
6.892116102126152
 20
74.6467036148582
 10
18.978585706243937
 20
71.40814384509152
 10
22.699356979335793
 20
80.76805300580513
 10
10.855299484336701
 20
84.6164205692453
  0
LWPOLYLINE
  5
A6
330
17
100
AcDbEntity
  8
0
 62
0
100
AcDbPolyline
 90
5
 70
0
 10
26.511438614813404
 20
79.5294325987907
 10
22.86868914715258
 20
70.36579376962652
 10
34.95515875127037
 20
67.12723399985984
 10
38.355496109812506
 20
75.68106503535051
 10
26.511438614813404
 20
79.5294325987907
  0
LWPOLYLINE
  5
A7
330
17
100
AcDbEntity
  8
0
 62
0
100
AcDbPolyline
 90
8
 70
0
 10
12.335970079455567
 20
88.34117042621138
 10
24.180027574454655
 20
84.4928028627712
 10
27.689687199612266
 20
93.32164313953508
 10
27.865846070309658
 20
93.70464685289205
 10
27.89846722917105
 20
93.76672754191976
 10
16.336459795083904
 20
98.20496636867792
 10
16.01030904188989
 20
97.58427525309787
 10
12.335970079455567
 20
88.34117042621138
  0
LWPOLYLINE
  5
A8
330
17
100
AcDbEntity
  8
0
 62
0
100
AcDbPolyline
 90
7
 70
0
 10
39.83616670493137
 20
79.40581489231658
 10
43.08613960891288
 20
87.58139165405873
 10
43.225047545855595
 20
87.88340457826286
 10
31.658624059570272
 20
92.32333856863674
 10
31.406761451190484
 20
91.84402376762152
 10
27.992109209932266
 20
83.25418245575676
 10
39.83616670493137
 20
79.40581489231658
  0
LWPOLYLINE
  5
A9
330
17
100
AcDbEntity
  8
0
 62
0
100
AcDbPolyline
 90
6
 70
0
 10
19.485661066571772
 20
112.7974195283963
 10
8.225785297380067
 20
117.81063921385098
 10
5.0
 20
111.67171034355181
 10
5.0
 20
106.8412055431837
 10
14.449798381980527
 20
103.2137678060055
 10
19.485661066571772
 20
112.7974195283963
  0
LWPOLYLINE
  5
AA
330
17
100
AcDbEntity
  8
0
 62
0
100
AcDbPolyline
 90
5
 70
0
 10
23.147559661979113
 20
111.16703723102992
 10
18.209955212379754
 20
101.7703788327225
 10
29.77196264646689
 20
97.33214000596433
 10
34.40743543117082
 20
106.15381754557527
 10
23.147559661979113
 20
111.16703723102992
  0
LWPOLYLINE
  5
AB
330
17
100
AcDbEntity
  8
0
 62
0
100
AcDbPolyline
 90
5
 70
0
 10
38.069334026578154
 20
104.52343524820887
 10
33.532119476866114
 20
95.88875103268131
 10
45.09412691095327
 20
91.45051220592313
 10
49.32920979576986
 20
99.51021556275421
 10
38.069334026578154
 20
104.52343524820887
  0
LWPOLYLINE
  5
AC
330
17
100
AcDbEntity
  8
0
 62
0
100
AcDbPolyline
 90
8
 70
0
 10
10.090337577054395
 20
121.3590321677067
 10
21.350213346246107
 20
116.34581248225203
 10
24.356380822908477
 20
122.06679097589993
 10
24.56792934717255
 20
122.42321916068653
 10
26.723240348178823
 20
125.65987007145543
 10
15.821923408935106
 20
131.21436848500483
 10
13.200078333423946
 20
127.27711894301936
 10
10.090337577054395
 20
121.3590321677067
  0
LWPOLYLINE
  5
AD
330
17
100
AcDbEntity
  8
0
 62
0
100
AcDbPolyline
 90
8
 70
0
 10
25.012111941653448
 20
114.71543018488566
 10
36.271987710845146
 20
109.70221049943099
 10
39.053598693273806
 20
114.99583992350996
 10
39.26514721753788
 20
115.35226810829656
 10
41.21279700095561
 20
118.27707220497435
 10
30.31148006171191
 20
123.83157061852374
 10
27.897296203789303
 20
120.2061678906294
 10
25.012111941653448
 20
114.71543018488566
  0
LWPOLYLINE
  5
AE
330
17
100
AcDbEntity
  8
0
 62
0
100
AcDbPolyline
 90
8
 70
0
 10
39.93388630625248
 20
108.0718282020646
 10
51.19376207544419
 20
103.05860851660994
 10
53.75081656363913
 20
107.92488887111999
 10
53.9623650879032
 20
108.2813170559066
 10
55.70235365373239
 20
110.89427433849328
 10
44.801036714488696
 20
116.44877275204266
 10
42.59451407415463
 20
113.13521683823943
 10
39.93388630625248
 20
108.0718282020646
  0
LWPOLYLINE
  5
AF
330
17
100
AcDbEntity
  8
0
 62
0
100
AcDbPolyline
 90
6
 70
0
 10
20.864435116753427
 20
146.00354895951295
 10
10.31875002728131
 20
152.0921030847087
 10
5.0
 20
144.10488587479566
 10
5.0
 20
141.21771882487423
 10
14.465797377567426
 20
136.394654161246
 10
20.864435116753427
 20
146.00354895951295
  0
LWPOLYLINE
  5
B0
330
17
100
AcDbEntity
  8
0
 62
0
100
AcDbPolyline
 90
5
 70
0
 10
24.335616282786262
 20
143.99946157889792
 10
18.054037091100493
 20
134.5663547083143
 10
28.955354030344218
 20
129.0118562947649
 10
34.8813013722584
 20
137.91090745370218
 10
24.335616282786262
 20
143.99946157889792
  0
LWPOLYLINE
  5
B1
330
17
100
AcDbEntity
  8
0
 62
0
100
AcDbPolyline
 90
5
 70
0
 10
38.35248253829124
 20
135.90682007308715
 10
32.5435937438773
 20
127.18355684183321
 10
43.444910683121
 20
121.62905842828383
 10
48.898167627763335
 20
129.8182659478914
 10
38.35248253829124
 20
135.90682007308715
  0
LWPOLYLINE
  5
B2
330
17
100
AcDbEntity
  8
0
 62
0
100
AcDbPolyline
 90
5
 70
0
 10
52.36934879379618
 20
127.8141785672764
 10
47.03315039665409
 20
119.80075897535212
 10
57.934467335897786
 20
114.24626056180274
 10
62.9150338832683
 20
121.72562444208064
 10
52.36934879379618
 20
127.8141785672764
  0
LWPOLYLINE
  5
B3
330
17
100
AcDbEntity
  8
0
 62
0
100
AcDbPolyline
 90
8
 70
0
 10
12.5403322635303
 20
155.42827413610047
 10
23.08601735300242
 20
149.3397200109047
 10
25.00469354098871
 20
152.22101418534965
 10
25.24701269340165
 20
152.54760920988028
 10
30.101996404773278
 20
158.43976738927282
 10
19.978761782357093
 20
165.01387282078983
 10
14.477619308583527
 20
158.33751641058655
 10
12.5403322635303
 20
155.42827413610047
  0
LWPOLYLINE
  5
B4
330
17
100
AcDbEntity
  8
0
 62
0
100
AcDbPolyline
 90
8
 70
0
 10
26.557198519035254
 20
147.3356326302897
 10
37.1028836085074
 20
141.24707850509392
 10
38.861134630010646
 20
143.8874606900556
 10
39.103453782423585
 20
144.21405571458624
 10
43.60153420365317
 20
149.6730650380234
 10
33.478299581236946
 20
156.24717046954044
 10
28.334060397605462
 20
150.00396291529253
 10
26.557198519035254
 20
147.3356326302897
  0
LWPOLYLINE
  5
B5
330
17
100
AcDbEntity
  8
0
 62
0
100
AcDbPolyline
 90
8
 70
0
 10
40.57406477454023
 20
139.24299112447892
 10
51.119749864012334
 20
133.15443699928318
 10
52.717575719032546
 20
135.5539071947616
 10
52.959894871445485
 20
135.88050221929223
 10
57.10107200253302
 20
140.906362686774
 10
46.977837380116846
 20
147.48046811829101
 10
42.1905014866274
 20
141.6704094199985
 10
40.57406477454023
 20
139.24299112447892
  0
LWPOLYLINE
  5
B6
330
17
100
AcDbEntity
  8
0
 62
0
100
AcDbPolyline
 90
8
 70
0
 10
54.59093103004517
 20
131.15034961866817
 10
65.1366161195173
 20
125.06179549347242
 10
66.57401680805448
 20
127.22035369946757
 10
66.81633596046741
 20
127.54694872399818
 10
70.6006098014129
 20
132.1396603355246
 10
60.47737517899669
 20
138.71376576704162
 10
56.0469425756493
 20
133.33685592470448
 10
54.59093103004517
 20
131.15034961866817
  0
LWPOLYLINE
  5
B7
330
17
100
AcDbEntity
  8
0
 62
0
100
AcDbPolyline
 90
12
 70
0
 10
24.856144565776578
 20
181.26600508920345
 10
24.71396736825998
 20
181.18078735651645
 10
23.8268343236509
 20
180.76120467488713
 10
22.902846772544624
 20
180.4305966426779
 10
21.950903220161283
 20
180.1921471959677
 10
20.980171403295607
 20
180.04815273327804
 10
20.0
 20
180.0
 10
11.603866824780415
 20
180.0
 10
9.039264061328002
 20
176.88751887793674
 10
19.1624986837442
 20
170.31341344641976
 10
26.93977643251368
 20
179.75215792531174
 10
24.856144565776578
 20
181.26600508920345
  0
LWPOLYLINE
  5
B8
330
17
100
AcDbEntity
  8
0
 62
0
100
AcDbPolyline
 90
5
 70
0
 10
30.181848862575027
 20
177.3966544259985
 10
22.53880186020787
 20
168.12081652668735
 10
32.66203648262406
 20
161.54671109517037
 10
39.90261686148259
 20
170.33410306991857
 10
30.181848862575027
 20
177.3966544259985
  0
LWPOLYLINE
  5
B9
330
17
100
AcDbEntity
  8
0
 62
0
100
AcDbPolyline
 90
5
 70
0
 10
43.14468929154394
 20
167.97859957060533
 10
36.03833965908773
 20
159.35411417543799
 10
46.161574281503945
 20
152.78000874392094
 10
52.86545729045153
 20
160.91604821452538
 10
43.14468929154394
 20
167.97859957060533
  0
LWPOLYLINE
  5
BA
330
17
100
AcDbEntity
  8
0
 62
0
100
AcDbPolyline
 90
5
 70
0
 10
56.10752972051288
 20
158.5605447152121
 10
49.53787745796761
 20
150.58741182418856
 10
59.6611120803838
 20
144.01330639267155
 10
65.82829771942046
 20
151.4979933591322
 10
56.10752972051288
 20
158.5605447152121
  0
LWPOLYLINE
  5
BB
330
17
100
AcDbEntity
  8
0
 62
0
100
AcDbPolyline
 90
5
 70
0
 10
69.0703701494818
 20
149.14248985981894
 10
63.03741525684747
 20
141.82070947293917
 10
73.16064987926367
 20
135.24660404142213
 10
78.79113814838941
 20
142.07993850373902
 10
69.0703701494818
 20
149.14248985981894
  0
LWPOLYLINE
  5
BC
330
17
100
AcDbEntity
  8
0
 62
0
100
AcDbPolyline
 90
6
 70
0
 10
20.0
 20
204.8
 10
20.980171403295607
 20
204.75184726672197
 10
21.891416072139204
 20
204.61667688888002
 10
16.464564878805618
 20
209.0112543357668
 10
12.224035146141935
 20
204.8
 10
20.0
 20
204.8
  0
LWPOLYLINE
  5
BD
330
17
100
AcDbEntity
  8
0
 62
0
100
AcDbPolyline
 90
19
 70
0
 10
29.90078739528596
 20
183.34573228122665
 10
30.169222025313616
 20
183.64029322679653
 10
38.0860806238515
 20
191.5024961119542
 10
29.208093152861537
 20
198.6917486128672
 10
29.238795325112868
 20
198.6268343236509
 10
29.569403357322088
 20
197.70284677254463
 10
29.807852804032304
 20
196.7509032201613
 10
29.95184726672197
 20
195.7801714032956
 10
30.0
 20
194.8
 10
30.0
 20
190.0
 10
29.95184726672197
 20
189.0198285967044
 10
29.807852804032304
 20
188.04909677983872
 10
29.569403357322088
 20
187.09715322745538
 10
29.238795325112868
 20
186.1731656763491
 10
28.819212643483553
 20
185.28603263174003
 10
28.314696123025453
 20
184.44429766980397
 10
27.954770178497697
 20
183.95899371319402
 10
29.48814240654432
 20
182.84493357825582
 10
29.90078739528596
 20
183.34573228122665
  0
LWPOLYLINE
  5
BE
330
17
100
AcDbEntity
  8
0
 62
0
100
AcDbPolyline
 90
8
 70
0
 10
32.73021483660568
 20
180.48943007894258
 10
42.45098283551323
 20
173.42687872286265
 10
42.783006600575945
 20
173.82983301877198
 10
43.0514412306036
 20
174.12439396434186
 10
50.46027045445323
 20
181.48207476340892
 10
41.212944540009104
 20
188.97041163867615
 10
32.98783509948977
 20
180.8020859866389
 10
32.73021483660568
 20
180.48943007894258
  0
LWPOLYLINE
  5
BF
330
17
100
AcDbEntity
  8
0
 62
0
100
AcDbPolyline
 90
8
 70
0
 10
45.69305526557457
 20
171.0713752235494
 10
55.413823264482176
 20
164.00882386746946
 10
55.66522580586597
 20
164.31393375631728
 10
55.93366043589363
 20
164.60849470188717
 10
62.83446028505498
 20
171.46165341486358
 10
53.58713437061084
 20
178.94999029013087
 10
45.87005430477976
 20
171.28618672418423
 10
45.69305526557457
 20
171.0713752235494
  0
LWPOLYLINE
  5
C0
330
17
100
AcDbEntity
  8
0
 62
0
100
AcDbPolyline
 90
8
 70
0
 10
58.65589569454352
 20
161.6533203681562
 10
68.37666369345109
 20
154.59076901207627
 10
68.54744501115599
 20
154.79803449386262
 10
68.81587964118364
 20
155.0925954394325
 10
75.20865011565672
 20
161.44123206631826
 10
65.96132420121259
 20
168.92956894158553
 10
58.752273510069784
 20
161.77028746172954
 10
58.65589569454352
 20
161.6533203681562
  0
LWPOLYLINE
  5
C1
330
17
100
AcDbEntity
  8
0
 62
0
100
AcDbPolyline
 90
8
 70
0
 10
71.61873612351245
 20
152.23526551276302
 10
81.33950412242004
 20
145.17271415668307
 10
81.429664216446
 20
145.28213523140792
 10
81.69809884647366
 20
145.5766961769778
 10
87.58283994625847
 20
151.42081071777292
 10
78.33551403181434
 20
158.90914759304022
 10
71.6344927153598
 20
152.25438819927487
 10
71.61873612351245
 20
152.23526551276302
  0
LWPOLYLINE
  5
C2
330
17
100
AcDbEntity
  8
0
 62
0
100
AcDbPolyline
 90
20
 70
0
 10
30.0
 20
220.0
 10
29.95184726672197
 20
219.0198285967044
 10
29.807852804032304
 20
218.04909677983872
 10
29.569403357322088
 20
217.09715322745538
 10
29.238795325112868
 20
216.1731656763491
 10
28.819212643483553
 20
215.28603263174003
 10
28.314696123025453
 20
214.44429766980397
 10
27.73010453362737
 20
213.65606715836356
 10
27.071067811865476
 20
212.92893218813452
 10
26.343932841636455
 20
212.26989546637265
 10
25.555702330196024
 20
211.68530387697456
 10
24.71396736825998
 20
211.18078735651645
 10
23.8268343236509
 20
210.76120467488713
 10
22.902846772544624
 20
210.4305966426779
 10
21.950903220161283
 20
210.1921471959677
 10
21.453466807342334
 20
210.11835947443467
 10
28.566788150365337
 20
204.3581054278694
 10
37.71186224410525
 20
213.440044561917
 10
30.0
 20
220.38383651557717
 10
30.0
 20
220.0
  0
LWPOLYLINE
  5
C3
330
17
100
AcDbEntity
  8
0
 62
0
100
AcDbPolyline
 90
5
 70
0
 10
40.68907926662488
 20
210.75934631408796
 10
31.69365206652295
 20
201.82602095459134
 10
40.94097798096708
 20
194.33768407932405
 10
49.49384239782677
 20
202.83150198166928
 10
40.68907926662488
 20
210.75934631408796
  0
LWPOLYLINE
  5
C4
330
17
100
AcDbEntity
  8
0
 62
0
100
AcDbPolyline
 90
5
 70
0
 10
52.47105942034639
 20
200.1508037338402
 10
44.067841897124694
 20
191.80559960604603
 10
53.31516781156881
 20
184.31726273077876
 10
61.27582255154827
 20
192.22295940142152
 10
52.47105942034639
 20
200.1508037338402
  0
LWPOLYLINE
  5
C5
330
17
100
AcDbEntity
  8
0
 62
0
100
AcDbPolyline
 90
5
 70
0
 10
64.25303957406791
 20
189.54226115359248
 10
56.44203172772642
 20
181.78517825750072
 10
65.68935764217056
 20
174.29684138223342
 10
73.0578027052698
 20
181.6144168211738
 10
64.25303957406791
 20
189.54226115359248
  0
LWPOLYLINE
  5
C6
330
17
100
AcDbEntity
  8
0
 62
0
100
AcDbPolyline
 90
5
 70
0
 10
76.03501972778943
 20
178.93371857334472
 10
68.81622155832817
 20
171.76475690895538
 10
78.0635474727723
 20
164.2764200336881
 10
84.83978285899131
 20
171.00587424092603
 10
76.03501972778943
 20
178.93371857334472
  0
LWPOLYLINE
  5
C7
330
17
100
AcDbEntity
  8
0
 62
0
100
AcDbPolyline
 90
5
 70
0
 10
87.81699988151095
 20
168.325175993097
 10
81.19041138892992
 20
161.74433556041006
 10
90.43773730337405
 20
154.25599868514277
 10
96.62176301271282
 20
160.39733166067828
 10
87.81699988151095
 20
168.325175993097
  0
LWPOLYLINE
  5
C8
330
17
100
AcDbEntity
  8
0
 62
0
100
AcDbPolyline
 90
18
 70
0
 10
22.902846772544624
 20
234.3694033573221
 10
23.8268343236509
 20
234.0387953251129
 10
24.71396736825998
 20
233.61921264348356
 10
25.555702330196024
 20
233.11469612302545
 10
26.343932841636455
 20
232.53010453362737
 10
27.071067811865476
 20
231.8710678118655
 10
27.73010453362737
 20
231.14393284163646
 10
28.314696123025453
 20
230.35570233019604
 10
28.81921264348355
 20
229.51396736825998
 10
29.238795325112868
 20
228.6268343236509
 10
29.569403357322088
 20
227.70284677254463
 10
29.65004511624448
 20
227.3809068246096
 10
39.50282611664228
 20
235.41874675861158
 10
31.210220255293862
 20
243.71135261996
 10
20.270404104464298
 20
234.78671589818293
 10
20.980171403295607
 20
234.75184726672197
 10
21.950903220161283
 20
234.60785280403232
 10
22.902846772544624
 20
234.3694033573221
  0
LWPOLYLINE
  5
C9
330
17
100
AcDbEntity
  8
0
 62
0
100
AcDbPolyline
 90
5
 70
0
 10
42.34577021671099
 20
232.57580265854287
 10
31.90081231224986
 20
224.05486834060181
 10
40.674662161491995
 20
216.15485845228218
 10
50.63837607805939
 20
224.28319679719445
 10
42.34577021671099
 20
232.57580265854287
  0
LWPOLYLINE
  5
CA
330
17
100
AcDbEntity
  8
0
 62
0
100
AcDbPolyline
 90
5
 70
0
 10
53.4813201781281
 20
221.44025269712574
 10
43.682590559494486
 20
213.44650755776243
 10
52.45644040873664
 20
205.5464976694428
 10
61.77392603947651
 20
213.14764683577735
 10
53.4813201781281
 20
221.44025269712574
  0
LWPOLYLINE
  5
CB
330
17
100
AcDbEntity
  8
0
 62
0
100
AcDbPolyline
 90
5
 70
0
 10
64.61687013954521
 20
210.30470273570864
 10
55.46436880673911
 20
202.83814677492305
 10
64.23821865598126
 20
194.93813688660342
 10
72.90947600089362
 20
202.01209687436022
 10
64.61687013954521
 20
210.30470273570864
  0
LWPOLYLINE
  5
CC
330
17
100
AcDbEntity
  8
0
 62
0
100
AcDbPolyline
 90
5
 70
0
 10
75.75242010096234
 20
199.16915277429152
 10
67.24614705398375
 20
192.22978599208366
 10
76.0199969032259
 20
184.32977610376403
 10
84.04502596231075
 20
190.87654691294313
 10
75.75242010096234
 20
199.16915277429152
  0
LWPOLYLINE
  5
CD
330
17
100
AcDbEntity
  8
0
 62
0
100
AcDbPolyline
 90
5
 70
0
 10
86.88797006237945
 20
188.0336028128744
 10
79.02792530122838
 20
181.62142520924428
 10
87.80177515047052
 20
173.72141532092465
 10
95.18057592372787
 20
179.740996951526
 10
86.88797006237945
 20
188.0336028128744
  0
LWPOLYLINE
  5
CE
330
17
100
AcDbEntity
  8
0
 62
0
100
AcDbPolyline
 90
5
 70
0
 10
98.02352002379656
 20
176.89805285145727
 10
90.809703548473
 20
171.0130644264049
 10
99.58355339771515
 20
163.11305453808527
 10
106.31612588514497
 20
168.60544699010887
 10
98.02352002379656
 20
176.89805285145727
  0
LWPOLYLINE
  5
CF
330
17
100
AcDbEntity
  8
0
 62
0
100
AcDbPolyline
 90
6
 70
0
 10
63.59559008943415
 20
234.8536146528063
 10
55.78285498494208
 20
243.53053603490054
 10
55.73455430766968
 20
243.49829280926204
 10
45.4611314037702
 20
235.11729572097602
 10
53.7537372651186
 20
226.82468985962763
 10
63.59559008943415
 20
234.8536146528063
  0
LWPOLYLINE
  5
D0
330
17
100
AcDbEntity
  8
0
 62
0
100
AcDbPolyline
 90
5
 70
0
 10
66.27529492050051
 20
231.87750093137572
 10
56.59668136518731
 20
223.98174575955892
 10
64.88928722653571
 20
215.68913989821053
 10
74.09174688248162
 20
223.1964515608383
 10
66.27529492050051
 20
231.87750093137572
  0
LWPOLYLINE
  5
D1
330
17
100
AcDbEntity
  8
0
 62
0
100
AcDbPolyline
 90
5
 70
0
 10
76.77145171354799
 20
220.22033783940776
 10
67.73223132660442
 20
212.8461957981418
 10
76.02483718795284
 20
204.55358993679337
 10
84.58790367552909
 20
211.53928846887032
 10
76.77145171354799
 20
220.22033783940776
  0
LWPOLYLINE
  5
D2
330
17
100
AcDbEntity
  8
0
 62
0
100
AcDbPolyline
 90
5
 70
0
 10
87.26760850659547
 20
208.56317474743975
 10
78.86778128802155
 20
201.71064583672467
 10
87.16038714936997
 20
193.41803997537627
 10
95.08406046857658
 20
199.88212537690237
 10
87.26760850659547
 20
208.56317474743975
  0
LWPOLYLINE
  5
D3
330
17
100
AcDbEntity
  8
0
 62
0
100
AcDbPolyline
 90
5
 70
0
 10
97.76376529964294
 20
196.9060116554718
 10
90.00333124943867
 20
190.57509587530757
 10
98.29593711078707
 20
182.28249001395915
 10
105.58021726162406
 20
188.22496228493438
 10
97.76376529964294
 20
196.9060116554718
  0
LWPOLYLINE
  5
D4
330
17
100
AcDbEntity
  8
0
 62
0
100
AcDbPolyline
 90
5
 70
0
 10
108.25992209269042
 20
185.2488485635038
 10
101.13888121085577
 20
179.43954591389044
 10
109.43148707220418
 20
171.14694005254205
 10
116.0763740546715
 20
176.5677991929664
 10
108.25992209269042
 20
185.2488485635038
  0
LWPOLYLINE
  5
D5
330
17
100
AcDbEntity
  8
0
 62
0
100
AcDbPolyline
 90
5
 70
0
 10
79.98883772202079
 20
241.036665512012
 10
69.63451565031188
 20
234.12461454823207
 10
77.41965539387178
 20
225.4783409193403
 10
87.26538401656342
 20
232.05087918348562
 10
79.98883772202079
 20
241.036665512012
  0
LWPOLYLINE
  5
D6
330
17
100
AcDbEntity
  8
0
 62
0
100
AcDbPolyline
 90
5
 70
0
 10
89.79337110584167
 20
228.9290751151786
 10
80.1243358787203
 20
222.47448892425322
 10
87.90947562228023
 20
213.82821529536145
 10
97.0699174003843
 20
219.94328878665223
 10
89.79337110584167
 20
228.9290751151786
  0
LWPOLYLINE
  5
D7
330
17
100
AcDbEntity
  8
0
 62
0
100
AcDbPolyline
 90
5
 70
0
 10
99.59790448966254
 20
216.8214847183452
 10
90.61415610712876
 20
210.82436330027437
 10
98.39929585068866
 20
202.17808967138262
 10
106.87445078420518
 20
207.83569838981884
 10
99.59790448966254
 20
216.8214847183452
  0
LWPOLYLINE
  5
D8
330
17
100
AcDbEntity
  8
0
 62
0
100
AcDbPolyline
 90
5
 70
0
 10
109.40243787348344
 20
204.71389432151182
 10
101.1039763355372
 20
199.17423767629552
 10
108.8891160790971
 20
190.52796404740377
 10
116.67898416802605
 20
195.72810799298546
 10
109.40243787348344
 20
204.71389432151182
  0
LWPOLYLINE
  5
D9
330
17
100
AcDbEntity
  8
0
 62
0
100
AcDbPolyline
 90
5
 70
0
 10
119.2069712573043
 20
192.60630392467843
 10
111.59379656394563
 20
187.5241120523167
 10
119.37893630750554
 20
178.87783842342492
 10
126.48351755184694
 20
183.62051759615207
 10
119.2069712573043
 20
192.60630392467843
  0
LWPOLYLINE
  5
DA
330
17
100
AcDbEntity
  8
0
 62
0
100
AcDbPolyline
 90
8
 70
0
 10
93.13436030896493
 20
231.15935996449033
 10
100.41090660350757
 20
222.17357363596398
 10
108.87475716680088
 20
227.82363609665828
 10
109.19638304393784
 20
228.01716257315363
 10
109.4961860941244
 20
228.17890427696037
 10
102.7514857208279
 20
237.46218792976083
 10
101.83701926783829
 20
236.96883950622538
 10
93.13436030896493
 20
231.15935996449033
  0
LWPOLYLINE
  5
DB
330
17
100
AcDbEntity
  8
0
 62
0
100
AcDbPolyline
 90
8
 70
0
 10
102.93889369278581
 20
219.05176956765695
 10
110.21543998732845
 20
210.0659832391306
 10
118.13333510007256
 20
215.35159191212009
 10
118.45496097720952
 20
215.54511838861544
 10
118.61316028158843
 20
215.63046583593248
 10
111.86845990829192
 20
224.91374948873298
 10
111.09559720110994
 20
224.49679532168722
 10
102.93889369278581
 20
219.05176956765695
  0
LWPOLYLINE
  5
DC
330
17
100
AcDbEntity
  8
0
 62
0
100
AcDbPolyline
 90
8
 70
0
 10
112.7434270766067
 20
206.94417917082356
 10
120.01997337114932
 20
197.9583928422972
 10
127.3919130333442
 20
202.87954772758192
 10
127.71353891048118
 20
203.07307420407727
 10
127.73013446905246
 20
203.08202739490463
 10
120.98543409575598
 20
212.3653110477051
 10
120.35417513438162
 20
212.02475113714902
 10
112.7434270766067
 20
206.94417917082356
  0
LWPOLYLINE
  5
DD
330
17
100
AcDbEntity
  8
0
 62
0
100
AcDbPolyline
 90
7
 70
0
 10
129.8245067549702
 20
185.85080244546378
 10
136.65049096661588
 20
190.40750354304373
 10
136.85104071636775
 20
190.52817693778732
 10
130.10240828322
 20
199.81687260667724
 10
129.61275306765327
 20
199.55270695261086
 10
122.54796046042756
 20
194.83658877399017
 10
129.8245067549702
 20
185.85080244546378
  0
LWPOLYLINE
  5
DE
330
17
100
AcDbEntity
  8
0
 62
0
100
AcDbPolyline
 90
5
 70
0
 10
116.38056446505769
 20
244.81498309324056
 10
106.3034951555386
 20
239.37847282929835
 10
113.0481955288351
 20
230.09518917649788
 10
122.5949838275346
 20
235.24561644651138
 10
116.38056446505769
 20
244.81498309324056
  0
LWPOLYLINE
  5
DF
330
17
100
AcDbEntity
  8
0
 62
0
100
AcDbPolyline
 90
5
 70
0
 10
124.78074501897717
 20
231.87983936854334
 10
115.42046934300264
 20
226.8300343882705
 10
122.16516971629915
 20
217.54675073547
 10
130.99516438145412
 20
222.31047272181414
 10
124.78074501897717
 20
231.87983936854334
  0
LWPOLYLINE
  5
E0
330
17
100
AcDbEntity
  8
0
 62
0
100
AcDbPolyline
 90
5
 70
0
 10
133.18092557289668
 20
218.9446956438461
 10
124.53744353046667
 20
214.2815959472426
 10
131.28214390376317
 20
204.99831229444214
 10
139.3953449353736
 20
209.37532899711692
 10
133.18092557289668
 20
218.9446956438461
  0
LWPOLYLINE
  5
E1
330
17
100
AcDbEntity
  8
0
 62
0
100
AcDbPolyline
 90
5
 70
0
 10
141.58110612681617
 20
206.0095519191489
 10
133.6544177179307
 20
201.73315750621475
 10
140.39911809122722
 20
192.44987385341423
 10
147.7955254892931
 20
196.44018527241968
 10
141.58110612681617
 20
206.0095519191489
  0
LWPOLYLINE
  5
E2
330
17
100
AcDbEntity
  8
0
 62
0
100
AcDbPolyline
 90
8
 70
0
 10
128.31275503992083
 20
233.78533472055688
 10
134.52717440239775
 20
224.21596807382767
 10
142.3017333163386
 20
228.4102896602969
 10
142.6341691910721
 20
228.57030361377093
 10
143.30948948697562
 20
228.85779480405614
 10
137.64354679927536
 20
238.67149541192637
 10
136.34512085430543
 20
238.11874137405584
 10
128.31275503992083
 20
233.78533472055688
  0
LWPOLYLINE
  5
E3
330
17
100
AcDbEntity
  8
0
 62
0
100
AcDbPolyline
 90
8
 70
0
 10
136.71293559384034
 20
220.85019099585963
 10
142.92735495631726
 20
211.28082434913046
 10
150.15755993554384
 20
215.1814706950716
 10
150.48999581027732
 20
215.34148464854562
 10
150.99019395125273
 20
215.55442443400707
 10
145.32425126355247
 20
225.3681250418773
 10
144.2009474735107
 20
224.8899224088305
 10
136.71293559384034
 20
220.85019099585963
  0
LWPOLYLINE
  5
E4
330
17
100
AcDbEntity
  8
0
 62
0
100
AcDbPolyline
 90
8
 70
0
 10
145.11311614775983
 20
207.91504727116242
 10
151.32753551023677
 20
198.34568062443321
 10
158.01338655474913
 20
201.95265172984628
 10
158.3458224294826
 20
202.1126656833203
 10
158.67089841552985
 20
202.251054063958
 10
153.00495572782958
 20
212.06475467182824
 10
152.05677409271593
 20
211.66110344360519
 10
145.11311614775983
 20
207.91504727116242
  0
LWPOLYLINE
  5
E5
330
17
100
AcDbEntity
  8
0
 62
0
100
AcDbPolyline
 90
5
 70
0
 10
150.99917110302846
 20
244.35712984551168
 10
141.35109248674829
 20
240.2498379098404
 10
147.01703517444855
 20
230.43613730197015
 10
156.11814467328395
 20
234.31057853912503
 10
150.99917110302846
 20
244.35712984551168
  0
LWPOLYLINE
  5
E6
330
17
100
AcDbEntity
  8
0
 62
0
100
AcDbPolyline
 90
5
 70
0
 10
157.93840881168526
 20
230.73810901830433
 10
149.0317969510254
 20
226.9464675397913
 10
154.69773963872566
 20
217.13276693192108
 10
163.05738238194076
 20
220.6915577119177
 10
157.93840881168526
 20
230.73810901830433
  0
LWPOLYLINE
  5
E7
330
17
100
AcDbEntity
  8
0
 62
0
100
AcDbPolyline
 90
5
 70
0
 10
164.87764652034207
 20
217.119088191097
 10
156.7125014153025
 20
213.64309716974225
 10
162.37844410300278
 20
203.82939656187202
 10
169.99662009059756
 20
207.07253688471036
 10
164.87764652034207
 20
217.119088191097
  0
LWPOLYLINE
  5
E8
330
17
100
AcDbEntity
  8
0
 62
0
100
AcDbPolyline
 90
7
 70
0
 10
159.80724495558204
 20
235.88106862756584
 10
167.76709191136948
 20
239.2696619953185
 10
168.10766381225173
 20
239.3966969627751
 10
168.86574950649398
 20
239.64084403626438
 10
166.4796995423966
 20
245.0
 10
155.16091734913365
 20
245.0
 10
159.80724495558204
 20
235.88106862756584
  0
LWPOLYLINE
  5
E9
330
17
100
AcDbEntity
  8
0
 62
0
100
AcDbPolyline
 90
8
 70
0
 10
161.62750909398335
 20
232.30859910674513
 10
166.74648266423884
 20
222.2620478003585
 10
174.14451131173374
 20
225.4114690076492
 10
174.485083212616
 20
225.5385039751058
 10
175.06181826907127
 20
225.72424574187662
 10
170.50210890199313
 20
235.96552065864964
 10
169.33387019380808
 20
235.58928079037807
 10
161.62750909398335
 20
232.30859910674513
  0
LWPOLYLINE
  5
EA
330
17
100
AcDbEntity
  8
0
 62
0
100
AcDbPolyline
 90
8
 70
0
 10
168.56674680264015
 20
218.68957827953778
 10
173.68572037289564
 20
208.64302697315114
 10
180.52193071209797
 20
211.5532760199799
 10
180.86250261298022
 20
211.6803109874365
 10
181.25788703164855
 20
211.80764744748885
 10
176.6981776645704
 20
222.04892236426187
 10
175.71128959417234
 20
221.73108780270877
 10
168.56674680264015
 20
218.68957827953778
  0
LWPOLYLINE
  5
EB
330
17
100
AcDbEntity
  8
0
 62
0
100
AcDbPolyline
 90
5
 70
0
 10
183.43071786375484
 20
240.12927426365104
 10
174.33155317037946
 20
237.1988213505342
 10
178.8912625374576
 20
226.95754643376117
 10
187.43112002207334
 20
229.707870346638
 10
183.43071786375484
 20
240.12927426365104
  0
LWPOLYLINE
  5
EC
330
17
100
AcDbEntity
  8
0
 62
0
100
AcDbPolyline
 90
5
 70
0
 10
188.86675881624814
 20
225.96790342308307
 10
180.52762193295675
 20
223.28222305614642
 10
185.0873313000349
 20
213.0409481393734
 10
192.86716097456664
 20
215.54649950607006
 10
188.86675881624814
 20
225.96790342308307
  0
LWPOLYLINE
  5
ED
330
17
100
AcDbEntity
  8
0
 62
0
100
AcDbPolyline
 90
8
 70
0
 10
187.2438897514732
 20
241.35733431565944
 10
191.2442919097917
 20
230.9359303986464
 10
199.12228727531377
 20
233.47309674812715
 10
199.46873349736694
 20
233.56773414555087
 10
199.7366888122841
 20
233.62814756796374
 10
196.3022679300911
 20
244.19820817682006
 10
195.51089951042454
 20
244.01978561171325
 10
187.2438897514732
 20
241.35733431565944
  0
LWPOLYLINE
  5
EE
330
17
100
AcDbEntity
  8
0
 62
0
100
AcDbPolyline
 90
8
 70
0
 10
192.6799307039665
 20
227.19596347509147
 10
196.68033286228498
 20
216.77455955807847
 10
203.95988142175943
 20
219.11899171214404
 10
204.3063276438126
 20
219.21362910956776
 10
204.4124738544791
 20
219.23756092022992
 10
200.9780529722861
 20
229.80762152908625
 10
200.34849365687012
 20
229.6656805757301
 10
192.6799307039665
 20
227.19596347509147
  0
LWPOLYLINE
  5
EF
330
17
100
AcDbEntity
  8
0
 62
0
100
AcDbPolyline
 90
5
 70
0
 10
210.03189549355483
 20
245.0
 10
200.2475988714145
 20
245.0
 10
203.65546151747228
 20
234.5116772372736
 10
212.31885954217424
 20
236.46493397546888
 10
210.03189549355483
 20
245.0
  0
LWPOLYLINE
  5
F0
330
17
100
AcDbEntity
  8
0
 62
0
100
AcDbPolyline
 90
5
 70
0
 10
213.35496642048264
 20
232.59813046355038
 10
204.89682567747425
 20
230.69115119839608
 10
208.33124655966725
 20
220.1210905895398
 10
216.2215121237519
 20
221.90003625673123
 10
213.35496642048264
 20
232.59813046355038
  0
LWPOLYLINE
  5
F1
330
17
100
AcDbEntity
  8
0
 62
0
100
AcDbPolyline
 90
5
 70
0
 10
225.6746610701182
 20
235.37573880132922
 10
217.26015096903242
 20
233.47859653605468
 10
220.12669667230168
 20
222.78050232923556
 10
227.9757115189654
 20
224.55014757625375
 10
225.6746610701182
 20
235.37573880132922
  0
LWPOLYLINE
  5
F2
330
17
100
AcDbEntity
  8
0
 62
0
100
AcDbPolyline
 90
5
 70
0
 10
239.90321371035492
 20
226.17029781883005
 10
238.17994599321133
 20
237.05058197813594
 10
229.65009859805443
 20
235.91171308802612
 10
231.94650880750908
 20
225.1079524729121
 10
239.90321371035492
 20
226.17029781883005
  0
LWPOLYLINE
  5
F3
330
17
100
AcDbEntity
  8
0
 62
0
100
AcDbPolyline
 90
5
 70
0
 10
251.80057080641285
 20
227.75878225982026
 10
250.64898441641637
 20
238.71539487476937
 10
242.14593838573012
 20
237.58010438867947
 10
243.8692061028737
 20
226.6998202293736
 10
251.80057080641285
 20
227.75878225982026
  0
LWPOLYLINE
  5
F4
330
17
100
AcDbEntity
  8
0
 62
0
100
AcDbPolyline
 90
5
 70
0
 10
279.75000000000006
 20
228.91547148380843
 10
287.72572388598184
 20
228.56279624605023
 10
288.30067222995433
 20
239.53346418577152
 10
279.75000000000006
 20
239.91156282669763
 10
279.75000000000006
 20
228.91547148380843
  0
LWPOLYLINE
  5
F5
330
17
100
AcDbEntity
  8
0
 62
0
100
AcDbPolyline
 90
5
 70
0
 10
291.7219524182473
 20
228.3860886684183
 10
299.7062212613173
 20
228.03303558473465
 10
300.8566105288341
 20
238.97825834011556
 10
292.2969007622198
 20
239.3567566081396
 10
291.7219524182473
 20
228.3860886684183
  0
LWPOLYLINE
  5
F6
330
17
100
AcDbEntity
  8
0
 62
0
100
AcDbPolyline
 90
5
 70
0
 10
275.75000000000006
 20
239.91156282669763
 10
267.1993277700457
 20
239.53346418577152
 10
267.77427611401816
 20
228.56279624605023
 10
275.75000000000006
 20
228.91547148380843
 10
275.75000000000006
 20
239.91156282669763
  0
LWPOLYLINE
  5
F7
330
17
100
AcDbEntity
  8
0
 62
0
100
AcDbPolyline
 90
5
 70
0
 10
263.20309923778024
 20
239.3567566081396
 10
254.64338947116596
 20
238.97825834011556
 10
255.79377873868276
 20
228.03303558473465
 10
263.7780475817527
 20
228.3860886684183
 10
263.20309923778024
 20
239.3567566081396
  0
LWPOLYLINE
  5
F8
330
17
100
AcDbEntity
  8
0
 62
0
100
AcDbPolyline
 90
5
 70
0
 10
311.63079389712635
 20
226.6998202293736
 10
313.35406161426994
 20
237.58010438867947
 10
304.85101558358366
 20
238.71539487476934
 10
303.69942919358715
 20
227.75878225982026
 10
311.63079389712635
 20
226.6998202293736
  0
LWPOLYLINE
  5
F9
330
17
100
AcDbEntity
  8
0
 62
0
100
AcDbPolyline
 90
5
 70
0
 10
323.55349119249087
 20
225.10795247291213
 10
325.8499014019455
 20
235.91171308802615
 10
317.32005400678867
 20
237.05058197813594
 10
315.5967862896451
 20
226.17029781883008
 10
323.55349119249087
 20
225.10795247291213
  0
LWPOLYLINE
  5
FA
330
17
100
AcDbEntity
  8
0
 62
0
100
AcDbPolyline
 90
5
 70
0
 10
335.37330332769835
 20
222.78050232923553
 10
338.2398490309676
 20
233.47859653605468
 10
329.8253389298818
 20
235.37573880132922
 10
327.5242884810346
 20
224.55014757625375
 10
335.37330332769835
 20
222.78050232923553
  0
LWPOLYLINE
  5
FB
330
17
100
AcDbEntity
  8
0
 62
0
100
AcDbPolyline
 90
5
 70
0
 10
347.16875344033275
 20
220.12109058953976
 10
350.6031743225258
 20
230.69115119839608
 10
342.14503357951736
 20
232.59813046355038
 10
339.2784878762481
 20
221.90003625673123
 10
347.16875344033275
 20
220.12109058953976
  0
LWPOLYLINE
  5
FC
330
17
100
AcDbEntity
  8
0
 62
0
100
AcDbPolyline
 90
8
 70
0
 10
351.5401185782405
 20
219.11899171214404
 10
358.819667137715
 20
216.77455955807844
 10
362.8200692960335
 20
227.19596347509147
 10
355.15150634312977
 20
229.66568057573014
 10
354.52194702771396
 20
229.80762152908625
 10
351.08752614552094
 20
219.23756092022992
 10
351.19367235618734
 20
219.21362910956776
 10
351.5401185782405
 20
219.11899171214404
  0
LWPOLYLINE
  5
FD
330
17
100
AcDbEntity
  8
0
 62
0
100
AcDbPolyline
 90
8
 70
0
 10
374.978069287902
 20
211.55327601997993
 10
381.8142796271044
 20
208.64302697315114
 10
386.9332531973599
 20
218.68957827953778
 10
379.7887104058276
 20
221.7310878027088
 10
378.8018223354297
 20
222.04892236426184
 10
374.24211296835153
 20
211.80764744748885
 10
374.6374973870197
 20
211.68031098743654
 10
374.978069287902
 20
211.55327601997993
  0
LWPOLYLINE
  5
FE
330
17
100
AcDbEntity
  8
0
 62
0
100
AcDbPolyline
 90
5
 70
0
 10
385.50337990940244
 20
207.07253688471036
 10
393.1215558969973
 20
203.829396561872
 10
398.7874985846976
 20
213.64309716974222
 10
390.62235347965793
 20
217.119088191097
 10
385.50337990940244
 20
207.07253688471036
  0
LWPOLYLINE
  5
FF
330
17
100
AcDbEntity
  8
0
 62
0
100
AcDbPolyline
 90
8
 70
0
 10
397.15417757051733
 20
202.11266568332033
 10
397.48661344525084
 20
201.9526517298463
 10
404.1724644897634
 20
198.34568062443313
 10
410.3868838522403
 20
207.91504727116234
 10
403.44322590728405
 20
211.6611034436052
 10
402.4950442721705
 20
212.0647546718282
 10
396.8291015844702
 20
202.25105406395798
 10
397.15417757051733
 20
202.11266568332033
  0
LWPOLYLINE
  5
100
330
17
100
AcDbEntity
  8
0
 62
0
100
AcDbPolyline
 90
5
 70
0
 10
407.70447451070703
 20
196.4401852724196
 10
415.1008819087728
 20
192.44987385341423
 10
421.8455822820693
 20
201.73315750621472
 10
413.91889387318395
 20
206.0095519191488
 10
407.70447451070703
 20
196.4401852724196
  0
LWPOLYLINE
  5
101
330
17
100
AcDbEntity
  8
0
 62
0
100
AcDbPolyline
 90
7
 70
0
 10
425.6754932450298
 20
185.85080244546376
 10
432.95203953957247
 20
194.83658877399014
 10
425.8872469323466
 20
199.55270695261092
 10
425.39759171677997
 20
199.81687260667724
 10
418.6489592836322
 20
190.5281769377873
 10
418.849509033384
 20
190.4075035430438
 10
425.6754932450298
 20
185.85080244546376
  0
LWPOLYLINE
  5
102
330
17
100
AcDbEntity
  8
0
 62
0
100
AcDbPolyline
 90
5
 70
0
 10
429.0164824481531
 20
183.620517596152
 10
436.12106369249454
 20
178.87783842342486
 10
443.9062034360545
 20
187.52411205231664
 10
436.29302874269575
 20
192.6063039246784
 10
429.0164824481531
 20
183.620517596152
  0
LWPOLYLINE
  5
103
330
17
100
AcDbEntity
  8
0
 62
0
100
AcDbPolyline
 90
5
 70
0
 10
439.4236259453286
 20
176.56779919296633
 10
446.0685129277959
 20
171.146940052542
 10
454.3611187891443
 20
179.4395459138904
 10
447.2400779073097
 20
185.24884856350377
 10
439.4236259453286
 20
176.56779919296633
  0
LWPOLYLINE
  5
104
330
17
100
AcDbEntity
  8
0
 62
0
100
AcDbPolyline
 90
5
 70
0
 10
449.1838741148551
 20
168.60544699010882
 10
455.91644660228485
 20
163.11305453808527
 10
464.69029645152705
 20
171.0130644264049
 10
457.4764799762035
 20
176.89805285145724
 10
449.1838741148551
 20
168.60544699010882
  0
LWPOLYLINE
  5
105
330
17
100
AcDbEntity
  8
0
 62
0
100
AcDbPolyline
 90
5
 70
0
 10
458.8782369872872
 20
160.39733166067825
 10
465.06226269662596
 20
154.2559986851428
 10
474.30958861107007
 20
161.7443355604101
 10
467.6830001184891
 20
168.32517599309696
 10
458.8782369872872
 20
160.39733166067825
  0
LWPOLYLINE
  5
106
330
17
100
AcDbEntity
  8
0
 62
0
100
AcDbPolyline
 90
8
 70
0
 10
473.8019011535262
 20
145.576696176978
 10
474.0703357835539
 20
145.2821352314081
 10
474.16049587758
 20
145.17271415668307
 10
483.8812638764876
 20
152.235265512763
 10
483.8655072846401
 20
152.254388199275
 10
477.16448596818566
 20
158.90914759304025
 10
467.9171600537415
 20
151.42081071777298
 10
473.8019011535262
 20
145.576696176978
  0
LWPOLYLINE
  5
107
330
17
100
AcDbEntity
  8
0
 62
0
100
AcDbPolyline
 90
5
 70
0
 10
476.70886185161066
 20
142.079938503739
 10
482.3393501207364
 20
135.24660404142213
 10
492.46258474315255
 20
141.82070947293911
 10
486.4296298505182
 20
149.1424898598189
 10
476.70886185161066
 20
142.079938503739
  0
LWPOLYLINE
  5
108
330
17
100
AcDbEntity
  8
0
 62
0
100
AcDbPolyline
 90
8
 70
0
 10
488.68366403953263
 20
127.54694872399824
 10
488.92598319194553
 20
127.22035369946762
 10
490.36338388048273
 20
125.0617954934724
 10
500.90906896995483
 20
131.15034961866812
 10
499.4530574243506
 20
133.33685592470454
 10
495.0226248210034
 20
138.71376576704154
 10
484.8993901985872
 20
132.13966033552455
 10
488.68366403953263
 20
127.54694872399824
  0
LWPOLYLINE
  5
109
330
17
100
AcDbEntity
  8
0
 62
0
100
AcDbPolyline
 90
5
 70
0
 10
492.5849661167317
 20
121.72562444208066
 10
497.56553266410225
 20
114.24626056180271
 10
508.46684960334596
 20
119.80075897535208
 10
503.1306512062038
 20
127.81417856727639
 10
492.5849661167317
 20
121.72562444208066
  0
LWPOLYLINE
  5
10A
330
17
100
AcDbEntity
  8
0
 62
0
100
AcDbPolyline
 90
8
 70
0
 10
501.5376349120968
 20
108.28131705590665
 10
501.7491834363609
 20
107.92488887112005
 10
504.30623792455583
 20
103.05860851661
 10
515.5661136937475
 20
108.07182820206465
 10
512.9054859258454
 20
113.1352168382395
 10
510.69896328551135
 20
116.44877275204264
 10
499.79764634626764
 20
110.89427433849326
 10
501.5376349120968
 20
108.28131705590665
  0
LWPOLYLINE
  5
10B
330
17
100
AcDbEntity
  8
0
 62
0
100
AcDbPolyline
 90
5
 70
0
 10
506.1707902042302
 20
99.51021556275425
 10
510.40587308904674
 20
91.45051220592319
 10
521.9678805231339
 20
95.88875103268136
 10
517.4306659734219
 20
104.52343524820893
 10
506.1707902042302
 20
99.51021556275425
  0
LWPOLYLINE
  5
10C
330
17
100
AcDbEntity
  8
0
 62
0
100
AcDbPolyline
 90
7
 70
0
 10
515.6638332950687
 20
79.40581489231657
 10
527.5078907900678
 20
83.25418245575675
 10
524.0932385488095
 20
91.84402376762169
 10
523.8413759404298
 20
92.32333856863676
 10
512.2749524541445
 20
87.88340457826287
 10
512.413860391087
 20
87.58139165405892
 10
515.6638332950687
 20
79.40581489231657
  0
LWPOLYLINE
  5
10D
330
17
100
AcDbEntity
  8
0
 62
0
100
AcDbPolyline
 90
5
 70
0
 10
517.1445038901876
 20
75.68106503535051
 10
520.5448412487297
 20
67.12723399985991
 10
532.6313108528474
 20
70.36579376962656
 10
528.9885613851866
 20
79.52943259879069
 10
517.1445038901876
 20
75.68106503535051
  0
LWPOLYLINE
  5
10E
330
17
100
AcDbEntity
  8
0
 62
0
100
AcDbPolyline
 90
5
 70
0
 10
521.6766105354732
 20
63.28938594462083
 10
524.1455299499603
 20
54.41766784675656
 10
536.4262546968594
 20
57.02801647377338
 10
533.7811614804684
 20
66.53279059507369
 10
521.6766105354732
 20
63.28938594462083
  0
LWPOLYLINE
  5
10F
330
17
100
AcDbEntity
  8
0
 62
0
100
AcDbPolyline
 90
8
 70
0
 10
526.7753616400923
 20
44.96773389476952
 10
526.8685635368741
 20
44.54575406761041
 10
527.3607210533643
 20
41.55938460461705
 10
539.8088979464511
 20
43.53098213488943
 10
539.2665871667174
 20
46.82167728387089
 10
537.500729535314
 20
53.16704077157615
 10
525.2200047884149
 20
50.55669214455933
 10
526.7753616400923
 20
44.96773389476952
  0
LWPOLYLINE
  5
110
330
17
100
AcDbEntity
  8
0
 62
0
100
AcDbPolyline
 90
5
 70
0
 10
528.0111653856449
 20
37.61254436299558
 10
529.5174009272903
 20
28.472836698416835
 10
542.0730198198811
 20
29.79248542040986
 10
540.4593422787317
 20
39.584141893267955
 10
528.0111653856449
 20
37.61254436299558
  0
LWPOLYLINE
  5
111
330
17
100
AcDbEntity
  8
0
 62
0
100
AcDbPolyline
 90
8
 70
0
 10
530.4680651179591
 20
22.704288188132562
 10
530.5153573907675
 20
22.271851835447695
 10
530.897537352771
 20
15.269644955625296
 10
543.5204770259126
 20
15.931185191918438
 10
543.1060555198746
 20
23.524113679094523
 10
542.7245703245871
 20
25.838933019689897
 10
530.1689514319963
 20
24.51928429769687
 10
530.4680651179591
 20
22.704288188132562
  0
LWPOLYLINE
  5
112
330
17
100
AcDbEntity
  8
0
 62
0
100
AcDbPolyline
 90
5
 70
0
 10
531.1155331254143
 20
11.275580245970941
 10
531.458053856538
 20
5.0
 10
544.1171003495306
 20
5.0
 10
543.7384727985559
 20
11.937120482264085
 10
531.1155331254143
 20
11.275580245970941
  0
LWPOLYLINE
  5
113
330
17
100
AcDbEntity
  8
0
 62
0
100
AcDbPolyline
 90
5
 70
0
 10
374.97237806704334
 20
223.28222305614642
 10
366.6332411837519
 20
225.96790342308307
 10
362.6328390254334
 20
215.54649950607003
 10
370.4126686999652
 20
213.0409481393734
 10
374.97237806704334
 20
223.28222305614642
  0
LWPOLYLINE
  5
114
330
17
100
AcDbEntity
  8
0
 62
0
100
AcDbPolyline
 90
6
 70
0
 10
540.3463732072156
 20
57.86126338567373
 10
550.5
 20
60.01948338522859
 10
550.5
 20
68.11504229426164
 10
549.7495946634407
 20
70.81151937084144
 10
537.6450437184453
 20
67.56811472038856
 10
540.3463732072156
 20
57.86126338567373
  0
LWPOLYLINE
  5
115
330
17
100
AcDbEntity
  8
0
 62
0
100
AcDbPolyline
 90
5
 70
0
 10
548.6078838978739
 20
74.64670361485824
 10
544.6447005156633
 20
84.61642056924529
 10
532.8006430206642
 20
80.76805300580511
 10
536.521414293756
 20
71.40814384509156
 10
548.6078838978739
 20
74.64670361485824
  0
LWPOLYLINE
  5
116
330
17
100
AcDbEntity
  8
0
 62
0
100
AcDbPolyline
 90
8
 70
0
 10
539.48969095811
 20
97.58427525309806
 10
539.1635402049161
 20
98.20496636867794
 10
527.6015327708291
 20
93.7667275419198
 10
527.6341539296903
 20
93.70464685289222
 10
527.8103128003877
 20
93.32164313953525
 10
531.3199724255454
 20
84.49280286277117
 10
543.1640299205444
 20
88.34117042621135
 10
539.48969095811
 20
97.58427525309806
  0
LWPOLYLINE
  5
117
330
17
100
AcDbEntity
  8
0
 62
0
100
AcDbPolyline
 90
5
 70
0
 10
537.2900447876202
 20
101.77037883272254
 10
532.3524403380209
 20
111.16703723102995
 10
521.0925645688292
 20
106.15381754557531
 10
525.7280373535332
 20
97.3321400059644
 10
537.2900447876202
 20
101.77037883272254
  0
LWPOLYLINE
  5
118
330
17
100
AcDbEntity
  8
0
 62
0
100
AcDbPolyline
 90
8
 70
0
 10
527.6027037962107
 20
120.20616789062947
 10
525.1885199382881
 20
123.83157061852371
 10
514.2872029990444
 20
118.27707220497433
 10
516.2348527824621
 20
115.35226810829663
 10
516.4464013067262
 20
114.99583992351003
 10
519.2280122891549
 20
109.70221049943105
 10
530.4878880583466
 20
114.71543018488569
 10
527.6027037962107
 20
120.20616789062947
  0
LWPOLYLINE
  5
119
330
17
100
AcDbEntity
  8
0
 62
0
100
AcDbPolyline
 90
5
 70
0
 10
522.9564062561227
 20
127.18355684183317
 10
517.1475174617087
 20
135.90682007308715
 10
506.60183237223663
 20
129.8182659478914
 10
512.055089316879
 20
121.62905842828378
 10
522.9564062561227
 20
127.18355684183317
  0
LWPOLYLINE
  5
11A
330
17
100
AcDbEntity
  8
0
 62
0
100
AcDbPolyline
 90
8
 70
0
 10
513.3094985133725
 20
141.67040941999855
 10
508.5221626198832
 20
147.48046811829093
 10
498.39892799746707
 20
140.90636268677392
 10
502.54010512855444
 20
135.88050221929228
 10
502.78242428096735
 20
135.55390719476168
 10
504.38025013598764
 20
133.15443699928315
 10
514.9259352254597
 20
139.2429911244789
 10
513.3094985133725
 20
141.67040941999855
  0
LWPOLYLINE
  5
11B
330
17
100
AcDbEntity
  8
0
 62
0
100
AcDbPolyline
 90
5
 70
0
 10
505.96212254203243
 20
150.5874118241885
 10
499.39247027948716
 20
158.56054471521207
 10
489.6717022805796
 20
151.49799335913218
 10
495.83888791961624
 20
144.0133063926715
 10
505.96212254203243
 20
150.5874118241885
  0
LWPOLYLINE
  5
11C
330
17
100
AcDbEntity
  8
0
 62
0
100
AcDbPolyline
 90
8
 70
0
 10
496.7477264899301
 20
161.7702874617297
 10
489.5386757987874
 20
168.9295689415856
 10
480.2913498843433
 20
161.4412320663183
 10
486.68412035881624
 20
155.09259543943264
 10
486.95255498884393
 20
154.79803449386276
 10
487.12333630654894
 20
154.59076901207627
 10
496.8441043054565
 20
161.65332036815616
 10
496.7477264899301
 20
161.7702874617297
  0
LWPOLYLINE
  5
11D
330
17
100
AcDbEntity
  8
0
 62
0
100
AcDbPolyline
 90
5
 70
0
 10
486.68377844167185
 20
171.76475690895543
 10
479.46498027221065
 20
178.93371857334472
 10
470.66021714100873
 20
171.005874240926
 10
477.4364525272277
 20
164.27642003368814
 10
486.68377844167185
 20
171.76475690895543
  0
LWPOLYLINE
  5
11E
330
17
100
AcDbEntity
  8
0
 62
0
100
AcDbPolyline
 90
5
 70
0
 10
476.4720746987717
 20
181.62142520924428
 10
468.61202993762066
 20
188.03360281287436
 10
460.31942407627224
 20
179.74099695152594
 10
467.69822484952954
 20
173.72141532092465
 10
476.4720746987717
 20
181.62142520924428
  0
LWPOLYLINE
  5
11F
330
17
100
AcDbEntity
  8
0
 62
0
100
AcDbPolyline
 90
5
 70
0
 10
465.4966687505614
 20
190.5750958753075
 10
457.7362347003571
 20
196.90601165547173
 10
449.91978273837606
 20
188.22496228493435
 10
457.204062889213
 20
182.28249001395912
 10
465.4966687505614
 20
190.5750958753075
  0
LWPOLYLINE
  5
120
330
17
100
AcDbEntity
  8
0
 62
0
100
AcDbPolyline
 90
5
 70
0
 10
454.3960236644629
 20
199.17423767629546
 10
446.0975621265166
 20
204.7138943215118
 10
438.821015831974
 20
195.72810799298543
 10
446.610883920903
 20
190.5279640474037
 10
454.3960236644629
 20
199.17423767629546
  0
LWPOLYLINE
  5
121
330
17
100
AcDbEntity
  8
0
 62
0
100
AcDbPolyline
 90
8
 70
0
 10
435.1458248656183
 20
212.02475113714908
 10
434.514565904244
 20
212.36531104770512
 10
427.7698655309475
 20
203.08202739490463
 10
427.7864610895187
 20
203.07307420407733
 10
428.10808696665566
 20
202.87954772758198
 10
435.48002662885074
 20
197.95839284229717
 10
442.7565729233933
 20
206.94417917082353
 10
435.1458248656183
 20
212.02475113714908
  0
LWPOLYLINE
  5
122
330
17
100
AcDbEntity
  8
0
 62
0
100
AcDbPolyline
 90
5
 70
0
 10
430.96255646953335
 20
214.28159594724258
 10
422.3190744271035
 20
218.94469564384602
 10
416.10465506462657
 20
209.37532899711684
 10
424.21785609623686
 20
204.99831229444212
 10
430.96255646953335
 20
214.28159594724258
  0
LWPOLYLINE
  5
123
330
17
100
AcDbEntity
  8
0
 62
0
100
AcDbPolyline
 90
8
 70
0
 10
411.2990525264893
 20
224.88992240883053
 10
410.1757487364476
 20
225.36812504187728
 10
404.50980604874735
 20
215.55442443400705
 10
405.0100041897226
 20
215.34148464854565
 10
405.3424400644561
 20
215.18147069507162
 10
412.57264504368294
 20
211.28082434913037
 10
418.78706440615986
 20
220.85019099585955
 10
411.2990525264893
 20
224.88992240883053
  0
LWPOLYLINE
  5
124
330
17
100
AcDbEntity
  8
0
 62
0
100
AcDbPolyline
 90
5
 70
0
 10
406.46820304897466
 20
226.94646753979129
 10
397.56159118831476
 20
230.73810901830433
 10
392.4426176180592
 20
220.69155771191768
 10
400.8022603612744
 20
217.13276693192105
 10
406.46820304897466
 20
226.94646753979129
  0
LWPOLYLINE
  5
125
330
17
100
AcDbEntity
  8
0
 62
0
100
AcDbPolyline
 90
8
 70
0
 10
386.16612980619186
 20
235.5892807903781
 10
384.99789109800696
 20
235.9655206586496
 10
380.4381817309288
 20
225.7242457418766
 10
381.0149167873839
 20
225.53850397510584
 10
381.3554886882662
 20
225.41146900764923
 10
388.75351733576116
 20
222.26204780035846
 10
393.87249090601665
 20
232.30859910674513
 10
386.16612980619186
 20
235.5892807903781
  0
LWPOLYLINE
  5
126
330
17
100
AcDbEntity
  8
0
 62
0
100
AcDbPolyline
 90
5
 70
0
 10
381.1684468296206
 20
237.19882135053416
 10
372.0692821362452
 20
240.129274263651
 10
368.0688799779267
 20
229.70787034663797
 10
376.6087374625424
 20
226.95754643376114
 10
381.1684468296206
 20
237.19882135053416
  0
LWPOLYLINE
  5
127
330
17
100
AcDbEntity
  8
0
 62
0
100
AcDbPolyline
 90
6
 70
0
 10
541.0502016180195
 20
103.21376780600556
 10
550.5
 20
106.84120554318375
 10
550.5
 20
111.67171034355202
 10
547.27421470262
 20
117.81063921385102
 10
536.0143389334282
 20
112.79741952839635
 10
541.0502016180195
 20
103.21376780600556
  0
LWPOLYLINE
  5
128
330
17
100
AcDbEntity
  8
0
 62
0
100
AcDbPolyline
 90
8
 70
0
 10
542.2999216665761
 20
127.27711894301945
 10
539.678076591065
 20
131.21436848500483
 10
528.7767596518212
 20
125.65987007145542
 10
530.9320706528274
 20
122.4232191606866
 10
531.1436191770915
 20
122.0667909759
 10
534.149786653754
 20
116.34581248225207
 10
545.4096624229456
 20
121.35903216770677
 10
542.2999216665761
 20
127.27711894301945
  0
LWPOLYLINE
  5
129
330
17
100
AcDbEntity
  8
0
 62
0
100
AcDbPolyline
 90
5
 70
0
 10
537.4459629088996
 20
134.56635470831426
 10
531.1643837172137
 20
143.99946157889792
 10
520.6186986277415
 20
137.91090745370215
 10
526.5446459696558
 20
129.01185629476487
 10
537.4459629088996
 20
134.56635470831426
  0
LWPOLYLINE
  5
12A
330
17
100
AcDbEntity
  8
0
 62
0
100
AcDbPolyline
 90
8
 70
0
 10
527.1659396023945
 20
150.0039629152926
 10
522.0217004187631
 20
156.24717046954032
 10
511.8984657963469
 20
149.6730650380233
 10
516.3965462175763
 20
144.2140557145863
 10
516.6388653699893
 20
143.8874606900557
 10
518.3971163914927
 20
141.2470785050939
 10
528.9428014809647
 20
147.33563263028967
 10
527.1659396023945
 20
150.0039629152926
  0
LWPOLYLINE
  5
12B
330
17
100
AcDbEntity
  8
0
 62
0
100
AcDbPolyline
 90
5
 70
0
 10
519.4616603409123
 20
159.3541141754379
 10
512.355310708456
 20
167.97859957060524
 10
502.6345427095485
 20
160.91604821452535
 10
509.33842571849607
 20
152.7800087439209
 10
519.4616603409123
 20
159.3541141754379
  0
LWPOLYLINE
  5
12C
330
17
100
AcDbEntity
  8
0
 62
0
100
AcDbPolyline
 90
8
 70
0
 10
509.62994569522004
 20
171.2861867241844
 10
501.9128656293891
 20
178.9499902901309
 10
492.665539714945
 20
171.46165341486363
 10
499.5663395641062
 20
164.60849470188734
 10
499.8347741941339
 20
164.31393375631745
 10
500.0861767355179
 20
164.00882386746943
 10
509.80694473442543
 20
171.07137522354935
 10
509.62994569522004
 20
171.2861867241844
  0
LWPOLYLINE
  5
12D
330
17
100
AcDbEntity
  8
0
 62
0
100
AcDbPolyline
 90
5
 70
0
 10
499.05796827227357
 20
181.78517825750072
 10
491.2469604259321
 20
189.54226115359245
 10
482.44219729473025
 20
181.61441682117376
 10
489.8106423578294
 20
174.29684138223345
 10
499.05796827227357
 20
181.78517825750072
  0
LWPOLYLINE
  5
12E
330
17
100
AcDbEntity
  8
0
 62
0
100
AcDbPolyline
 90
5
 70
0
 10
488.25385294601625
 20
192.22978599208366
 10
479.74757989903776
 20
199.16915277429146
 10
471.45497403768934
 20
190.87654691294307
 10
479.48000309677417
 20
184.32977610376406
 10
488.25385294601625
 20
192.22978599208366
  0
LWPOLYLINE
  5
12F
330
17
100
AcDbEntity
  8
0
 62
0
100
AcDbPolyline
 90
5
 70
0
 10
476.6322187119785
 20
201.71064583672464
 10
468.23239149340463
 20
208.56317474743972
 10
460.4159395314235
 20
199.88212537690228
 10
468.33961285063015
 20
193.41803997537625
 10
476.6322187119785
 20
201.71064583672464
  0
LWPOLYLINE
  5
130
330
17
100
AcDbEntity
  8
0
 62
0
100
AcDbPolyline
 90
5
 70
0
 10
464.8858438928714
 20
210.8243633002743
 10
455.9020955103375
 20
216.82148471834518
 10
448.6255492157949
 20
207.8356983898188
 10
457.10070414931147
 20
202.17808967138254
 10
464.8858438928714
 20
210.8243633002743
  0
LWPOLYLINE
  5
131
330
17
100
AcDbEntity
  8
0
 62
0
100
AcDbPolyline
 90
8
 70
0
 10
444.40440279889
 20
224.49679532168727
 10
443.6315400917081
 20
224.913749488733
 10
436.8868397184116
 20
215.63046583593248
 10
437.0450390227904
 20
215.5451183886155
 10
437.36666489992734
 20
215.35159191212014
 10
445.2845600126716
 20
210.06598323913056
 10
452.56110630721423
 20
219.05176956765695
 10
444.40440279889
 20
224.49679532168727
  0
LWPOLYLINE
  5
132
330
17
100
AcDbEntity
  8
0
 62
0
100
AcDbPolyline
 90
5
 70
0
 10
440.0795306569974
 20
226.83003438827046
 10
430.71925498102297
 20
231.87983936854326
 10
424.50483561854605
 20
222.31047272181405
 10
433.3348302837009
 20
217.54675073546997
 10
440.0795306569974
 20
226.83003438827046
  0
LWPOLYLINE
  5
133
330
17
100
AcDbEntity
  8
0
 62
0
100
AcDbPolyline
 90
8
 70
0
 10
419.1548791456945
 20
238.11874137405587
 10
417.85645320072473
 20
238.67149541192637
 10
412.19051051302444
 20
228.8577948040561
 10
412.86583080892785
 20
228.57030361377096
 10
413.19826668366136
 20
228.41028966029694
 10
420.9728255976024
 20
224.21596807382758
 10
427.18724496007934
 20
233.78533472055676
 10
419.1548791456945
 20
238.11874137405587
  0
LWPOLYLINE
  5
134
330
17
100
AcDbEntity
  8
0
 62
0
100
AcDbPolyline
 90
5
 70
0
 10
414.1489075132518
 20
240.24983790984035
 10
404.50082889697154
 20
244.35712984551168
 10
399.38185532671605
 20
234.31057853912503
 10
408.48296482555156
 20
230.43613730197012
 10
414.1489075132518
 20
240.24983790984035
  0
LWPOLYLINE
  5
135
330
17
100
AcDbEntity
  8
0
 62
0
100
AcDbPolyline
 90
7
 70
0
 10
389.0203004576035
 20
245.0
 10
386.6342504935061
 20
239.64084403626435
 10
387.3923361877482
 20
239.39669696277514
 10
387.73290808863044
 20
239.26966199531853
 10
395.692755044418
 20
235.8810686275658
 10
400.3390826508664
 20
245.0
 10
389.0203004576035
 20
245.0
  0
LWPOLYLINE
  5
136
330
17
100
AcDbEntity
  8
0
 62
0
100
AcDbPolyline
 90
6
 70
0
 10
541.0342026224326
 20
136.39465416124597
 10
550.5
 20
141.2177188248741
 10
550.5
 20
144.10488587479577
 10
545.1812499727187
 20
152.0921030847087
 10
534.6355648832466
 20
146.00354895951293
 10
541.0342026224326
 20
136.39465416124597
  0
LWPOLYLINE
  5
137
330
17
100
AcDbEntity
  8
0
 62
0
100
AcDbPolyline
 90
8
 70
0
 10
541.0223806914164
 20
158.33751641058663
 10
535.521238217643
 20
165.01387282078974
 10
525.3980035952268
 20
158.4397673892727
 10
530.2529873065982
 20
152.54760920988033
 10
530.4953064590112
 20
152.22101418534973
 10
532.4139826469976
 20
149.33972001090467
 10
542.9596677364697
 20
155.42827413610044
 10
541.0223806914164
 20
158.33751641058663
  0
LWPOLYLINE
  5
138
330
17
100
AcDbEntity
  8
0
 62
0
100
AcDbPolyline
 90
5
 70
0
 10
532.9611981397921
 20
168.12081652668732
 10
525.318151137425
 20
177.39665442599846
 10
515.5973831385174
 20
170.33410306991848
 10
522.8379635173759
 20
161.54671109517028
 10
532.9611981397921
 20
168.12081652668732
  0
LWPOLYLINE
  5
139
330
17
100
AcDbEntity
  8
0
 62
0
100
AcDbPolyline
 90
8
 70
0
 10
522.5121649005101
 20
180.8020859866391
 10
514.2870554599908
 20
188.9704116386762
 10
505.0397295455467
 20
181.48207476340892
 10
512.4485587693962
 20
174.12439396434203
 10
512.7169933994238
 20
173.82983301877215
 10
513.0490171644867
 20
173.42687872286257
 10
522.7697851633944
 20
180.48943007894258
 10
522.5121649005101
 20
180.8020859866391
  0
LWPOLYLINE
  5
13A
330
17
100
AcDbEntity
  8
0
 62
0
100
AcDbPolyline
 90
5
 70
0
 10
511.4321581028753
 20
191.80559960604606
 10
503.0289405796536
 20
200.15080373384015
 10
494.22417744845177
 20
192.2229594014215
 10
502.18483218843113
 20
184.31726273077876
 10
511.4321581028753
 20
191.80559960604606
  0
LWPOLYLINE
  5
13B
330
17
100
AcDbEntity
  8
0
 62
0
100
AcDbPolyline
 90
5
 70
0
 10
500.0356311932609
 20
202.83814677492302
 10
490.88312986045486
 20
210.30470273570853
 10
482.59052399910644
 20
202.01209687436017
 10
491.26178134401874
 20
194.93813688660342
 10
500.0356311932609
 20
202.83814677492302
  0
LWPOLYLINE
  5
13C
330
17
100
AcDbEntity
  8
0
 62
0
100
AcDbPolyline
 90
5
 70
0
 10
487.7677686733956
 20
212.84619579814174
 10
478.72854828645205
 20
220.22033783940768
 10
470.912096324471
 20
211.53928846887027
 10
479.47516281204724
 20
204.55358993679334
 10
487.7677686733956
 20
212.84619579814174
  0
LWPOLYLINE
  5
13D
330
17
100
AcDbEntity
  8
0
 62
0
100
AcDbPolyline
 90
5
 70
0
 10
475.3756641212798
 20
222.47448892425314
 10
465.7066288941584
 20
228.92907511517856
 10
458.4300825996158
 20
219.9432887866522
 10
467.5905243777199
 20
213.8282152953614
 10
475.3756641212798
 20
222.47448892425314
  0
LWPOLYLINE
  5
13E
330
17
100
AcDbEntity
  8
0
 62
0
100
AcDbPolyline
 90
8
 70
0
 10
453.66298073216166
 20
236.96883950622546
 10
452.7485142791721
 20
237.4621879297609
 10
446.00381390587563
 20
228.17890427696037
 10
446.30361695606206
 20
228.01716257315368
 10
446.625242833199
 20
227.82363609665833
 10
455.0890933964925
 20
222.17357363596395
 10
462.3656396910351
 20
231.15935996449033
 10
453.66298073216166
 20
236.96883950622546
  0
LWPOLYLINE
  5
13F
330
17
100
AcDbEntity
  8
0
 62
0
100
AcDbPolyline
 90
5
 70
0
 10
449.19650484446146
 20
239.37847282929835
 10
439.1194355349425
 20
244.81498309324047
 10
432.9050161724656
 20
235.2456164465113
 10
442.45180447116496
 20
230.09518917649785
 10
449.19650484446146
 20
239.37847282929835
  0
LWPOLYLINE
  5
140
330
17
100
AcDbEntity
  8
0
 62
0
100
AcDbPolyline
 90
12
 70
0
 10
546.4607359386721
 20
176.8875188779367
 10
543.8961331752197
 20
180.0
 10
535.5
 20
180.0
 10
534.5198285967044
 20
180.04815273327802
 10
533.5490967798387
 20
180.1921471959677
 10
532.5971532274554
 20
180.43059664267793
 10
531.6731656763491
 20
180.76120467488713
 10
530.78603263174
 20
181.18078735651645
 10
530.6438554342235
 20
181.26600508920342
 10
528.5602235674863
 20
179.7521579253117
 10
536.3375013162558
 20
170.31341344641967
 10
546.4607359386721
 20
176.8875188779367
  0
LWPOLYLINE
  5
141
330
17
100
AcDbEntity
  8
0
 62
0
100
AcDbPolyline
 90
19
 70
0
 10
527.1853038769746
 20
184.44429766980397
 10
526.6807873565165
 20
185.28603263174003
 10
526.2612046748872
 20
186.1731656763491
 10
525.9305966426779
 20
187.09715322745538
 10
525.6921471959677
 20
188.04909677983872
 10
525.548152733278
 20
189.0198285967044
 10
525.5
 20
190.0
 10
525.5
 20
194.8
 10
525.548152733278
 20
195.7801714032956
 10
525.6921471959677
 20
196.7509032201613
 10
525.9305966426779
 20
197.70284677254463
 10
526.2612046748872
 20
198.6268343236509
 10
526.2919068471386
 20
198.69174861286746
 10
517.4139193761484
 20
191.5024961119543
 10
525.3307779746863
 20
183.64029322679676
 10
525.5992126047139
 20
183.34573228122684
 10
526.0118575934557
 20
182.8449335782558
 10
527.5452298215023
 20
183.958993713194
 10
527.1853038769746
 20
184.44429766980397
  0
LWPOLYLINE
  5
142
330
17
100
AcDbEntity
  8
0
 62
0
100
AcDbPolyline
 90
5
 70
0
 10
523.806347933477
 20
201.82602095459137
 10
514.8109207333752
 20
210.7593463140879
 10
506.00615760217323
 20
202.83150198166922
 10
514.5590220190329
 20
194.3376840793241
 10
523.806347933477
 20
201.82602095459137
  0
LWPOLYLINE
  5
143
330
17
100
AcDbEntity
  8
0
 62
0
100
AcDbPolyline
 90
5
 70
0
 10
511.8174094405055
 20
213.4465075577624
 10
502.018679821872
 20
221.4402526971257
 10
493.72607396052354
 20
213.14764683577724
 10
503.0435595912634
 20
205.54649766944277
 10
511.8174094405055
 20
213.4465075577624
  0
LWPOLYLINE
  5
144
330
17
100
AcDbEntity
  8
0
 62
0
100
AcDbPolyline
 90
5
 70
0
 10
498.90331863481276
 20
223.98174575955886
 10
489.2247050794996
 20
231.8775009313757
 10
481.4082531175184
 20
223.19645156083823
 10
490.61071277346434
 20
215.68913989821044
 10
498.90331863481276
 20
223.98174575955886
  0
LWPOLYLINE
  5
145
330
17
100
AcDbEntity
  8
0
 62
0
100
AcDbPolyline
 90
5
 70
0
 10
485.8654843496883
 20
234.12461454823202
 10
475.5111622779793
 20
241.03666551201198
 10
468.23461598343664
 20
232.0508791834856
 10
478.08034460612834
 20
225.4783409193402
 10
485.8654843496883
 20
234.12461454823202
  0
LWPOLYLINE
  5
146
330
17
100
AcDbEntity
  8
0
 62
0
100
AcDbPolyline
 90
6
 70
0
 10
533.6085839278606
 20
204.61667688888
 10
534.5198285967044
 20
204.751847266722
 10
535.5
 20
204.8
 10
543.2759648538581
 20
204.8
 10
539.0354351211944
 20
209.01125433576686
 10
533.6085839278606
 20
204.61667688888
  0
LWPOLYLINE
  5
147
330
17
100
AcDbEntity
  8
0
 62
0
100
AcDbPolyline
 90
20
 70
0
 10
533.5490967798387
 20
210.1921471959677
 10
532.5971532274554
 20
210.43059664267793
 10
531.6731656763491
 20
210.76120467488713
 10
530.78603263174
 20
211.18078735651645
 10
529.944297669804
 20
211.68530387697456
 10
529.1560671583635
 20
212.26989546637265
 10
528.4289321881345
 20
212.92893218813452
 10
527.7698954663726
 20
213.65606715836356
 10
527.1853038769746
 20
214.44429766980397
 10
526.6807873565165
 20
215.28603263174003
 10
526.2612046748872
 20
216.1731656763491
 10
525.9305966426779
 20
217.09715322745538
 10
525.6921471959677
 20
218.04909677983872
 10
525.548152733278
 20
219.0198285967044
 10
525.5
 20
220.0
 10
525.5
 20
220.38383651557714
 10
517.7881377558948
 20
213.44004456191698
 10
526.9332118496346
 20
204.35810542786942
 10
534.0465331926575
 20
210.11835947443467
 10
533.5490967798387
 20
210.1921471959677
  0
LWPOLYLINE
  5
148
330
17
100
AcDbEntity
  8
0
 62
0
100
AcDbPolyline
 90
5
 70
0
 10
523.5991876877501
 20
224.05486834060181
 10
513.1542297832891
 20
232.57580265854278
 10
504.8616239219407
 20
224.28319679719442
 10
514.8253378385081
 20
216.15485845228218
 10
523.5991876877501
 20
224.05486834060181
  0
LWPOLYLINE
  5
149
330
17
100
AcDbEntity
  8
0
 62
0
100
AcDbPolyline
 90
6
 70
0
 10
491.90440991056596
 20
234.85361465280624
 10
501.7462627348815
 20
226.8246898596276
 10
510.03886859622986
 20
235.117295720976
 10
499.7654456923302
 20
243.49829280926213
 10
499.717145015058
 20
243.5305360349005
 10
491.90440991056596
 20
234.85361465280624
  0
LWPOLYLINE
  5
14A
330
17
100
AcDbEntity
  8
0
 62
0
100
AcDbPolyline
 90
18
 70
0
 10
525.9305966426779
 20
227.70284677254463
 10
526.2612046748872
 20
228.6268343236509
 10
526.6807873565165
 20
229.51396736825998
 10
527.1853038769746
 20
230.35570233019604
 10
527.7698954663726
 20
231.14393284163646
 10
528.4289321881346
 20
231.8710678118655
 10
529.1560671583635
 20
232.5301045336274
 10
529.944297669804
 20
233.11469612302545
 10
530.78603263174
 20
233.61921264348356
 10
531.6731656763491
 20
234.0387953251129
 10
532.5971532274554
 20
234.3694033573221
 10
533.5490967798387
 20
234.60785280403232
 10
534.5198285967044
 20
234.751847266722
 10
535.2295958955357
 20
234.78671589818296
 10
524.2897797447063
 20
243.7113526199599
 10
515.9971738833578
 20
235.4187467586115
 10
525.8499548837555
 20
227.3809068246096
 10
525.9305966426779
 20
227.70284677254463
  0
LWPOLYLINE
  5
14B
330
17
100
AcDbEntity
  8
0
 62
0
100
AcDbPolyline
 90
5
 70
0
 10
355.2524011285855
 20
245.0
 10
345.46810450644523
 20
245.0
 10
343.1811404578258
 20
236.46493397546888
 10
351.84453848252775
 20
234.5116772372736
 10
355.2524011285855
 20
245.0
  0
LWPOLYLINE
  5
14C
330
17
100
AcDbEntity
  8
0
 62
0
100
AcDbPolyline
 90
8
 70
0
 10
364.2557080902083
 20
230.9359303986464
 10
368.25611024852685
 20
241.35733431565941
 10
359.9891004895754
 20
244.01978561171327
 10
359.1977320699089
 20
244.19820817682006
 10
355.76331118771594
 20
233.62814756796374
 10
356.03126650263295
 20
233.5677341455509
 10
356.3777127246861
 20
233.47309674812718
 10
364.2557080902083
 20
230.9359303986464
  0
LWPOLYLINE
  5
14D
330
17
100
AcDbEntity
  8
0
 62
0
100
AcDbPolyline
 90
5
 70
0
 10
10.0
 20
224.8
 10
10.0
 20
220.0
 10
20.0
 20
220.0
 10
20.0
 20
224.8
 10
10.0
 20
224.8
  0
LWPOLYLINE
  5
14E
330
17
100
AcDbEntity
  8
0
 62
0
100
AcDbPolyline
 90
5
 70
0
 10
535.5
 20
224.8
 10
535.5
 20
220.0
 10
545.5
 20
220.0
 10
545.5
 20
224.8
 10
535.5
 20
224.8
  0
LWPOLYLINE
  5
14F
330
17
100
AcDbEntity
  8
0
 62
0
100
AcDbPolyline
 90
5
 70
0
 10
20.0
 20
190.0
 10
20.0
 20
194.8
 10
10.0
 20
194.8
 10
10.0
 20
190.0
 10
20.0
 20
190.0
  0
LWPOLYLINE
  5
150
330
17
100
AcDbEntity
  8
0
 62
0
100
AcDbPolyline
 90
5
 70
0
 10
545.5
 20
190.0
 10
545.5
 20
194.8
 10
535.5
 20
194.8
 10
535.5
 20
190.0
 10
545.5
 20
190.0
  0
ENDSEC
  0
SECTION
  2
OBJECTS
  0
DICTIONARY
  5
A
330
0
100
AcDbDictionary
280
0
281
1
  3
ACAD_COLOR
350
B
  3
ACAD_GROUP
350
C
  3
ACAD_LAYOUT
350
D
  3
ACAD_MATERIAL
350
E
  3
ACAD_MLEADERSTYLE
350
F
  3
ACAD_MLINESTYLE
350
10
  3
ACAD_PLOTSETTINGS
350
11
  3
ACAD_PLOTSTYLENAME
350
12
  3
ACAD_SCALELIST
350
14
  3
ACAD_TABLESTYLE
350
15
  3
ACAD_VISUALSTYLE
350
16
  3
EZDXF_META
350
2D
  0
DICTIONARY
  5
B
330
A
100
AcDbDictionary
280
0
281
1
  0
DICTIONARY
  5
C
330
A
100
AcDbDictionary
280
0
281
1
  0
DICTIONARY
  5
D
330
A
100
AcDbDictionary
280
0
281
1
  3
Model
350
1A
  3
Layout1
350
1E
  0
DICTIONARY
  5
E
330
A
100
AcDbDictionary
280
0
281
1
  3
ByBlock
350
1F
  3
ByLayer
350
20
  3
Global
350
21
  0
DICTIONARY
  5
F
330
A
100
AcDbDictionary
280
0
281
1
  3
Standard
350
2C
  0
DICTIONARY
  5
10
330
A
100
AcDbDictionary
280
0
281
1
  3
Standard
350
22
  0
DICTIONARY
  5
11
330
A
100
AcDbDictionary
280
0
281
1
  0
ACDBDICTIONARYWDFLT
  5
12
330
A
100
AcDbDictionary
280
0
281
1
  3
Normal
350
13
100
AcDbDictionaryWithDefault
340
13
  0
ACDBPLACEHOLDER
  5
13
330
12
  0
DICTIONARY
  5
14
330
A
100
AcDbDictionary
280
0
281
1
  0
DICTIONARY
  5
15
330
A
100
AcDbDictionary
280
0
281
1
  0
DICTIONARY
  5
16
330
A
100
AcDbDictionary
280
0
281
1
  0
LAYOUT
  5
1A
330
D
100
AcDbPlotSettings
  1

  2
Adobe PDF
  4
A3
  6

 40
7.5
 41
20.0
 42
7.5
 43
20.0
 44
420.0
 45
297.0
 46
0.0
 47
0.0
 48
0.0
 49
0.0
140
0.0
141
0.0
142
1.0
143
1.0
 70
1024
 72
1
 73
0
 74
5
  7

 75
16
 76
0
 77
2
 78
300
147
1.0
148
0.0
149
0.0
100
AcDbLayout
  1
Model
 70
1
 71
0
 10
0.0
 20
0.0
 11
420.0
 21
297.0
 12
0.0
 22
0.0
 32
0.0
 14
1e+20
 24
1e+20
 34
1e+20
 15
-1e+20
 25
-1e+20
 35
-1e+20
146
0.0
 13
0.0
 23
0.0
 33
0.0
 16
1.0
 26
0.0
 36
0.0
 17
0.0
 27
1.0
 37
0.0
 76
1
330
17
  0
LAYOUT
  5
1E
330
D
100
AcDbPlotSettings
  1

  2
Adobe PDF
  4
A3
  6

 40
7.5
 41
20.0
 42
7.5
 43
20.0
 44
420.0
 45
297.0
 46
0.0
 47
0.0
 48
0.0
 49
0.0
140
0.0
141
0.0
142
1.0
143
1.0
 70
0
 72
1
 73
0
 74
5
  7

 75
16
 76
0
 77
2
 78
300
147
1.0
148
0.0
149
0.0
100
AcDbLayout
  1
Layout1
 70
1
 71
1
 10
0.0
 20
0.0
 11
420.0
 21
297.0
 12
0.0
 22
0.0
 32
0.0
 14
1e+20
 24
1e+20
 34
1e+20
 15
-1e+20
 25
-1e+20
 35
-1e+20
146
0.0
 13
0.0
 23
0.0
 33
0.0
 16
1.0
 26
0.0
 36
0.0
 17
0.0
 27
1.0
 37
0.0
 76
1
330
1B
  0
MATERIAL
  5
1F
102
{ACAD_REACTORS
330
E
102
}
330
E
100
AcDbMaterial
  1
ByBlock
  2

 70
0
 40
1.0
 71
1
 41
1.0
 91
-1023410177
 42
1.0
 72
1
  3

 73
1
 74
1
 75
1
 44
0.5
 73
0
 45
1.0
 46
1.0
 77
1
  4

 78
1
 79
1
170
1
 48
1.0
171
1
  6

172
1
173
1
174
1
140
1.0
141
1.0
175
1
  7

176
1
177
1
178
1
143
1.0
179
1
  8

270
1
271
1
272
1
145
1.0
146
1.0
273
1
  9

274
1
275
1
276
1
 42
1.0
 72
1
  3

 73
1
 74
1
 75
1
 94
63
  0
MATERIAL
  5
20
102
{ACAD_REACTORS
330
E
102
}
330
E
100
AcDbMaterial
  1
ByLayer
  2

 70
0
 40
1.0
 71
1
 41
1.0
 91
-1023410177
 42
1.0
 72
1
  3

 73
1
 74
1
 75
1
 44
0.5
 73
0
 45
1.0
 46
1.0
 77
1
  4

 78
1
 79
1
170
1
 48
1.0
171
1
  6

172
1
173
1
174
1
140
1.0
141
1.0
175
1
  7

176
1
177
1
178
1
143
1.0
179
1
  8

270
1
271
1
272
1
145
1.0
146
1.0
273
1
  9

274
1
275
1
276
1
 42
1.0
 72
1
  3

 73
1
 74
1
 75
1
 94
63
  0
MATERIAL
  5
21
102
{ACAD_REACTORS
330
E
102
}
330
E
100
AcDbMaterial
  1
Global
  2

 70
0
 40
1.0
 71
1
 41
1.0
 91
-1023410177
 42
1.0
 72
1
  3

 73
1
 74
1
 75
1
 44
0.5
 73
0
 45
1.0
 46
1.0
 77
1
  4

 78
1
 79
1
170
1
 48
1.0
171
1
  6

172
1
173
1
174
1
140
1.0
141
1.0
175
1
  7

176
1
177
1
178
1
143
1.0
179
1
  8

270
1
271
1
272
1
145
1.0
146
1.0
273
1
  9

274
1
275
1
276
1
 42
1.0
 72
1
  3

 73
1
 74
1
 75
1
 94
63
  0
MLINESTYLE
  5
22
102
{ACAD_REACTORS
330
10
102
}
330
10
100
AcDbMlineStyle
  2
Standard
 70
0
  3

 62
256
 51
90.0
 52
90.0
 71
2
 49
0.5
 62
256
  6
BYLAYER
 49
-0.5
 62
256
  6
BYLAYER
  0
MLEADERSTYLE
  5
2C
102
{ACAD_REACTORS
330
F
102
}
330
F
100
AcDbMLeaderStyle
179
2
170
2
171
1
172
0
 90
2
 40
0.0
 41
0.0
173
1
 91
-1056964608
 92
-2
290
1
 42
2.0
291
1
 43
8.0
  3
Standard
 44
4.0
300

342
29
174
1
175
1
176
0
178
1
 93
-1056964608
 45
4.0
292
0
297
0
 46
4.0
 94
-1056964608
 47
1.0
 49
1.0
140
1.0
294
1
141
0.0
177
0
142
1.0
295
0
296
0
143
3.75
271
0
272
9
273
9
  0
DICTIONARY
  5
2D
330
A
100
AcDbDictionary
281
1
  3
CREATED_BY_EZDXF
350
2E
  3
WRITTEN_BY_EZDXF
350
153
  0
DICTIONARYVAR
  5
2E
330
2D
100
DictionaryVariables
280
0
  1
1.1.1 @ 2024-04-25T19:18:11.301965+00:00
  0
DICTIONARYVAR
  5
153
330
2D
100
DictionaryVariables
280
0
  1
1.1.1 @ 2024-04-25T19:18:11.360466+00:00
  0
ENDSEC
  0
EOF
