  0
SECTION
  2
HEADER
  9
$ACADVER
  1
AC1024
  9
$ACADMAINTVER
 70
6
  9
$DWGCODEPAGE
  3
ANSI_1252
  9
$LASTSAVEDBY
  1
ezdxf
  9
$INSBASE
 10
0.0
 20
0.0
 30
0.0
  9
$EXTMIN
 10
1e+20
 20
1e+20
 30
1e+20
  9
$EXTMAX
 10
-1e+20
 20
-1e+20
 30
-1e+20
  9
$LIMMIN
 10
0.0
 20
0.0
  9
$LIMMAX
 10
420.0
 20
297.0
  9
$ORTHOMODE
 70
0
  9
$REGENMODE
 70
1
  9
$FILLMODE
 70
1
  9
$QTEXTMODE
 70
0
  9
$MIRRTEXT
 70
1
  9
$LTSCALE
 40
1.0
  9
$ATTMODE
 70
1
  9
$TEXTSIZE
 40
2.5
  9
$TRACEWID
 40
1.0
  9
$TEXTSTYLE
  7
Standard
  9
$CLAYER
  8
0
  9
$CELTYPE
  6
ByLayer
  9
$CECOLOR
 62
256
  9
$CELTSCALE
 40
1.0
  9
$DISPSILH
 70
0
  9
$DIMSCALE
 40
1.0
  9
$DIMASZ
 40
2.5
  9
$DIMEXO
 40
0.625
  9
$DIMDLI
 40
3.75
  9
$DIMRND
 40
0.0
  9
$DIMDLE
 40
0.0
  9
$DIMEXE
 40
1.25
  9
$DIMTP
 40
0.0
  9
$DIMTM
 40
0.0
  9
$DIMTXT
 40
2.5
  9
$DIMCEN
 40
2.5
  9
$DIMTSZ
 40
0.0
  9
$DIMTOL
 70
0
  9
$DIMLIM
 70
0
  9
$DIMTIH
 70
0
  9
$DIMTOH
 70
0
  9
$DIMSE1
 70
0
  9
$DIMSE2
 70
0
  9
$DIMTAD
 70
1
  9
$DIMZIN
 70
8
  9
$DIMBLK
  1

  9
$DIMASO
 70
1
  9
$DIMSHO
 70
1
  9
$DIMPOST
  1

  9
$DIMAPOST
  1

  9
$DIMALT
 70
0
  9
$DIMALTD
 70
3
  9
$DIMALTF
 40
0.03937007874
  9
$DIMLFAC
 40
1.0
  9
$DIMTOFL
 70
1
  9
$DIMTVP
 40
0.0
  9
$DIMTIX
 70
0
  9
$DIMSOXD
 70
0
  9
$DIMSAH
 70
0
  9
$DIMBLK1
  1

  9
$DIMBLK2
  1

  9
$DIMSTYLE
  2
ISO-25
  9
$DIMCLRD
 70
0
  9
$DIMCLRE
 70
0
  9
$DIMCLRT
 70
0
  9
$DIMTFAC
 40
1.0
  9
$DIMGAP
 40
0.625
  9
$DIMJUST
 70
0
  9
$DIMSD1
 70
0
  9
$DIMSD2
 70
0
  9
$DIMTOLJ
 70
0
  9
$DIMTZIN
 70
8
  9
$DIMALTZ
 70
0
  9
$DIMALTTZ
 70
0
  9
$DIMUPT
 70
0
  9
$DIMDEC
 70
2
  9
$DIMTDEC
 70
2
  9
$DIMALTU
 70
2
  9
$DIMALTTD
 70
3
  9
$DIMTXSTY
  7
Standard
  9
$DIMAUNIT
 70
0
  9
$DIMADEC
 70
0
  9
$DIMALTRND
 40
0.0
  9
$DIMAZIN
 70
0
  9
$DIMDSEP
 70
44
  9
$DIMATFIT
 70
3
  9
$DIMFRAC
 70
0
  9
$DIMLDRBLK
  1

  9
$DIMLUNIT
 70
2
  9
$DIMLWD
 70
-2
  9
$DIMLWE
 70
-2
  9
$DIMTMOVE
 70
0
  9
$DIMFXL
 40
1.0
  9
$DIMFXLON
 70
0
  9
$DIMJOGANG
 40
0.785398163397
  9
$DIMTFILL
 70
0
  9
$DIMTFILLCLR
 70
0
  9
$DIMARCSYM
 70
0
  9
$DIMLTYPE
  6

  9
$DIMLTEX1
  6

  9
$DIMLTEX2
  6

  9
$DIMTXTDIRECTION
 70
0
  9
$LUNITS
 70
2
  9
$LUPREC
 70
4
  9
$SKETCHINC
 40
1.0
  9
$FILLETRAD
 40
10.0
  9
$AUNITS
 70
0
  9
$AUPREC
 70
2
  9
$MENU
  1
.
  9
$ELEVATION
 40
0.0
  9
$PELEVATION
 40
0.0
  9
$THICKNESS
 40
0.0
  9
$LIMCHECK
 70
0
  9
$CHAMFERA
 40
0.0
  9
$CHAMFERB
 40
0.0
  9
$CHAMFERC
 40
0.0
  9
$CHAMFERD
 40
0.0
  9
$SKPOLY
 70
0
  9
$TDCREATE
 40
2460430.546099537
  9
$TDUCREATE
 40
2458532.153996898
  9
$TDUPDATE
 40
2460430.546099537
  9
$TDUUPDATE
 40
2458532.1544311
  9
$TDINDWG
 40
0.0
  9
$TDUSRTIMER
 40
0.0
  9
$USRTIMER
 70
1
  9
$ANGBASE
 50
0.0
  9
$ANGDIR
 70
0
  9
$PDMODE
 70
0
  9
$PDSIZE
 40
0.0
  9
$PLINEWID
 40
0.0
  9
$SPLFRAME
 70
0
  9
$SPLINETYPE
 70
6
  9
$SPLINESEGS
 70
8
  9
$HANDSEED
  5
12E
  9
$SURFTAB1
 70
6
  9
$SURFTAB2
 70
6
  9
$SURFTYPE
 70
6
  9
$SURFU
 70
6
  9
$SURFV
 70
6
  9
$UCSBASE
  2

  9
$UCSNAME
  2

  9
$UCSORG
 10
0.0
 20
0.0
 30
0.0
  9
$UCSXDIR
 10
1.0
 20
0.0
 30
0.0
  9
$UCSYDIR
 10
0.0
 20
1.0
 30
0.0
  9
$UCSORTHOREF
  2

  9
$UCSORTHOVIEW
 70
0
  9
$UCSORGTOP
 10
0.0
 20
0.0
 30
0.0
  9
$UCSORGBOTTOM
 10
0.0
 20
0.0
 30
0.0
  9
$UCSORGLEFT
 10
0.0
 20
0.0
 30
0.0
  9
$UCSORGRIGHT
 10
0.0
 20
0.0
 30
0.0
  9
$UCSORGFRONT
 10
0.0
 20
0.0
 30
0.0
  9
$UCSORGBACK
 10
0.0
 20
0.0
 30
0.0
  9
$PUCSBASE
  2

  9
$PUCSNAME
  2

  9
$PUCSORG
 10
0.0
 20
0.0
 30
0.0
  9
$PUCSXDIR
 10
1.0
 20
0.0
 30
0.0
  9
$PUCSYDIR
 10
0.0
 20
1.0
 30
0.0
  9
$PUCSORTHOREF
  2

  9
$PUCSORTHOVIEW
 70
0
  9
$PUCSORGTOP
 10
0.0
 20
0.0
 30
0.0
  9
$PUCSORGBOTTOM
 10
0.0
 20
0.0
 30
0.0
  9
$PUCSORGLEFT
 10
0.0
 20
0.0
 30
0.0
  9
$PUCSORGRIGHT
 10
0.0
 20
0.0
 30
0.0
  9
$PUCSORGFRONT
 10
0.0
 20
0.0
 30
0.0
  9
$PUCSORGBACK
 10
0.0
 20
0.0
 30
0.0
  9
$USERI1
 70
0
  9
$USERI2
 70
0
  9
$USERI3
 70
0
  9
$USERI4
 70
0
  9
$USERI5
 70
0
  9
$USERR1
 40
0.0
  9
$USERR2
 40
0.0
  9
$USERR3
 40
0.0
  9
$USERR4
 40
0.0
  9
$USERR5
 40
0.0
  9
$WORLDVIEW
 70
1
  9
$SHADEDGE
 70
3
  9
$SHADEDIF
 70
70
  9
$TILEMODE
 70
1
  9
$MAXACTVP
 70
64
  9
$PINSBASE
 10
0.0
 20
0.0
 30
0.0
  9
$PLIMCHECK
 70
0
  9
$PEXTMIN
 10
1e+20
 20
1e+20
 30
1e+20
  9
$PEXTMAX
 10
-1e+20
 20
-1e+20
 30
-1e+20
  9
$PLIMMIN
 10
0.0
 20
0.0
  9
$PLIMMAX
 10
420.0
 20
297.0
  9
$UNITMODE
 70
0
  9
$VISRETAIN
 70
1
  9
$PLINEGEN
 70
0
  9
$PSLTSCALE
 70
1
  9
$TREEDEPTH
 70
3020
  9
$CMLSTYLE
  2
Standard
  9
$CMLJUST
 70
0
  9
$CMLSCALE
 40
20.0
  9
$PROXYGRAPHICS
 70
1
  9
$MEASUREMENT
 70
1
  9
$CELWEIGHT
370
-1
  9
$ENDCAPS
280
0
  9
$JOINSTYLE
280
0
  9
$LWDISPLAY
290
0
  9
$INSUNITS
 70
4
  9
$HYPERLINKBASE
  1

  9
$STYLESHEET
  1

  9
$XEDIT
290
1
  9
$CEPSNTYPE
380
0
  9
$PSTYLEMODE
290
1
  9
$FINGERPRINTGUID
  2
{9C2DE131-7AEA-41B0-A049-37560F95D4CA}
  9
$VERSIONGUID
  2
{354289E2-ACF8-41DE-BE3B-E668B0D59BE3}
  9
$EXTNAMES
290
1
  9
$PSVPSCALE
 40
0.0
  9
$OLESTARTUP
290
0
  9
$SORTENTS
280
127
  9
$INDEXCTL
280
0
  9
$HIDETEXT
280
1
  9
$XCLIPFRAME
280
0
  9
$HALOGAP
280
0
  9
$OBSCOLOR
 70
257
  9
$OBSLTYPE
280
0
  9
$INTERSECTIONDISPLAY
280
0
  9
$INTERSECTIONCOLOR
 70
257
  9
$DIMASSOC
280
2
  9
$PROJECTNAME
  1

  9
$CAMERADISPLAY
290
0
  9
$LENSLENGTH
 40
50.0
  9
$CAMERAHEIGHT
 40
0.0
  9
$STEPSPERSEC
 40
24.0
  9
$STEPSIZE
 40
100.0
  9
$3DDWFPREC
 40
2.0
  9
$PSOLWIDTH
 40
0.005
  9
$PSOLHEIGHT
 40
0.08
  9
$LOFTANG1
 40
1.570796326795
  9
$LOFTANG2
 40
1.570796326795
  9
$LOFTMAG1
 40
0.0
  9
$LOFTMAG2
 40
0.0
  9
$LOFTPARAM
 70
7
  9
$LOFTNORMALS
280
1
  9
$LATITUDE
 40
37.795
  9
$LONGITUDE
 40
-122.394
  9
$NORTHDIRECTION
 40
0.0
  9
$TIMEZONE
 70
-8000
  9
$LIGHTGLYPHDISPLAY
280
1
  9
$TILEMODELIGHTSYNCH
280
1
  9
$CMATERIAL
347
20
  9
$SOLIDHIST
280
0
  9
$SHOWHIST
280
1
  9
$DWFFRAME
280
2
  9
$DGNFRAME
280
2
  9
$REALWORLDSCALE
290
1
  9
$INTERFERECOLOR
 62
256
  9
$CSHADOW
280
0
  9
$SHADOWPLANELOCATION
 40
0.0
  0
ENDSEC
  0
SECTION
  2
CLASSES
  0
CLASS
  1
ACDBDICTIONARYWDFLT
  2
AcDbDictionaryWithDefault
  3
ObjectDBX Classes
 90
0
 91
0
280
0
281
0
  0
CLASS
  1
SUN
  2
AcDbSun
  3
SCENEOE
 90
1153
 91
0
280
0
281
0
  0
CLASS
  1
VISUALSTYLE
  2
AcDbVisualStyle
  3
ObjectDBX Classes
 90
4095
 91
0
280
0
281
0
  0
CLASS
  1
MATERIAL
  2
AcDbMaterial
  3
ObjectDBX Classes
 90
1153
 91
0
280
0
281
0
  0
CLASS
  1
SCALE
  2
AcDbScale
  3
ObjectDBX Classes
 90
1153
 91
0
280
0
281
0
  0
CLASS
  1
TABLESTYLE
  2
AcDbTableStyle
  3
ObjectDBX Classes
 90
4095
 91
0
280
0
281
0
  0
CLASS
  1
MLEADERSTYLE
  2
AcDbMLeaderStyle
  3
ACDB_MLEADERSTYLE_CLASS
 90
4095
 91
0
280
0
281
0
  0
CLASS
  1
DICTIONARYVAR
  2
AcDbDictionaryVar
  3
ObjectDBX Classes
 90
0
 91
0
280
0
281
0
  0
CLASS
  1
CELLSTYLEMAP
  2
AcDbCellStyleMap
  3
ObjectDBX Classes
 90
1152
 91
0
280
0
281
0
  0
CLASS
  1
MENTALRAYRENDERSETTINGS
  2
AcDbMentalRayRenderSettings
  3
SCENEOE
 90
1024
 91
0
280
0
281
0
  0
CLASS
  1
ACDBDETAILVIEWSTYLE
  2
AcDbDetailViewStyle
  3
ObjectDBX Classes
 90
1025
 91
0
280
0
281
0
  0
CLASS
  1
ACDBSECTIONVIEWSTYLE
  2
AcDbSectionViewStyle
  3
ObjectDBX Classes
 90
1025
 91
0
280
0
281
0
  0
CLASS
  1
RASTERVARIABLES
  2
AcDbRasterVariables
  3
ISM
 90
0
 91
0
280
0
281
0
  0
CLASS
  1
ACDBPLACEHOLDER
  2
AcDbPlaceHolder
  3
ObjectDBX Classes
 90
0
 91
0
280
0
281
0
  0
CLASS
  1
LAYOUT
  2
AcDbLayout
  3
ObjectDBX Classes
 90
0
 91
0
280
0
281
0
  0
ENDSEC
  0
SECTION
  2
TABLES
  0
TABLE
  2
VPORT
  5
8
330
0
100
AcDbSymbolTable
 70
1
  0
VPORT
  5
23
330
8
100
AcDbSymbolTableRecord
100
AcDbViewportTableRecord
  2
*Active
 70
0
 10
0.0
 20
0.0
 11
1.0
 21
1.0
 12
0.0
 22
0.0
 13
0.0
 23
0.0
 14
0.5
 24
0.5
 15
0.5
 25
0.5
 16
0.0
 26
0.0
 36
1.0
 17
0.0
 27
0.0
 37
0.0
 40
1000.0
 41
1.34
 42
50.0
 43
0.0
 44
0.0
 50
0.0
 51
0.0
 71
0
 72
1000
 73
1
 74
3
 75
0
 76
0
 77
0
 78
0
281
0
 65
0
146
0.0
  0
ENDTAB
  0
TABLE
  2
LTYPE
  5
2
330
0
100
AcDbSymbolTable
 70
3
  0
LTYPE
  5
24
330
2
100
AcDbSymbolTableRecord
100
AcDbLinetypeTableRecord
  2
ByBlock
 70
0
  3

 72
65
 73
0
 40
0.0
  0
LTYPE
  5
25
330
2
100
AcDbSymbolTableRecord
100
AcDbLinetypeTableRecord
  2
ByLayer
 70
0
  3

 72
65
 73
0
 40
0.0
  0
LTYPE
  5
26
330
2
100
AcDbSymbolTableRecord
100
AcDbLinetypeTableRecord
  2
Continuous
 70
0
  3

 72
65
 73
0
 40
0.0
  0
ENDTAB
  0
TABLE
  2
LAYER
  5
1
330
0
100
AcDbSymbolTable
 70
3
  0
LAYER
  5
27
330
1
100
AcDbSymbolTableRecord
100
AcDbLayerTableRecord
  2
0
 70
0
 62
7
  6
Continuous
370
-3
390
13
347
21
  0
LAYER
  5
28
330
1
100
AcDbSymbolTableRecord
100
AcDbLayerTableRecord
  2
Defpoints
 70
0
 62
7
  6
Continuous
290
0
370
-3
390
13
347
21
  0
LAYER
  5
2F
330
1
100
AcDbSymbolTableRecord
100
AcDbLayerTableRecord
  2
default
 70
0
 62
7
  6
Continuous
370
-3
390
13
347
21
  0
ENDTAB
  0
TABLE
  2
STYLE
  5
5
330
0
100
AcDbSymbolTable
 70
1
  0
STYLE
  5
29
330
5
100
AcDbSymbolTableRecord
100
AcDbTextStyleTableRecord
  2
Standard
 70
0
 40
0.0
 41
1.0
 50
0.0
 71
0
 42
2.5
  3
txt
  4

  0
ENDTAB
  0
TABLE
  2
VIEW
  5
7
330
0
100
AcDbSymbolTable
 70
0
  0
ENDTAB
  0
TABLE
  2
UCS
  5
6
330
0
100
AcDbSymbolTable
 70
0
  0
ENDTAB
  0
TABLE
  2
APPID
  5
3
330
0
100
AcDbSymbolTable
 70
3
  0
APPID
  5
2A
330
3
100
AcDbSymbolTableRecord
100
AcDbRegAppTableRecord
  2
ACAD
 70
0
  0
APPID
  5
12B
330
3
100
AcDbSymbolTableRecord
100
AcDbRegAppTableRecord
  2
HATCHBACKGROUNDCOLOR
 70
0
  0
APPID
  5
12C
330
3
100
AcDbSymbolTableRecord
100
AcDbRegAppTableRecord
  2
EZDXF
 70
0
  0
ENDTAB
  0
TABLE
  2
DIMSTYLE
  5
4
330
0
100
AcDbSymbolTable
 70
1
100
AcDbDimStyleTable
  0
DIMSTYLE
105
2B
330
4
100
AcDbSymbolTableRecord
100
AcDbDimStyleTableRecord
  2
Standard
 70
0
 40
1.0
 41
2.5
 42
0.625
 43
3.75
 44
1.25
 45
0.0
 46
0.0
 47
0.0
 48
0.0
 49
2.5
140
2.5
141
2.5
142
0.0
143
0.03937007874
144
1.0
145
0.0
146
1.0
147
0.625
148
0.0
 69
0
 70
0
 71
0
 72
0
 73
0
 74
0
 75
0
 76
0
 77
1
 78
8
 79
3
170
0
171
3
172
1
173
0
174
0
175
0
176
0
177
0
178
0
179
2
271
2
272
2
273
2
274
3
275
0
276
0
277
2
278
44
279
0
280
0
281
0
282
0
283
0
284
8
285
0
286
0
288
0
289
3
290
0
371
-2
372
-2
  0
ENDTAB
  0
TABLE
  2
BLOCK_RECORD
  5
9
330
0
100
AcDbSymbolTable
 70
2
  0
BLOCK_RECORD
  5
17
330
9
100
AcDbSymbolTableRecord
100
AcDbBlockTableRecord
  2
*Model_Space
340
1A
 70
0
280
1
281
0
  0
BLOCK_RECORD
  5
1B
330
9
100
AcDbSymbolTableRecord
100
AcDbBlockTableRecord
  2
*Paper_Space
340
1E
 70
0
280
1
281
0
  0
ENDTAB
  0
ENDSEC
  0
SECTION
  2
BLOCKS
  0
BLOCK
  5
18
330
17
100
AcDbEntity
  8
0
100
AcDbBlockBegin
  2
*Model_Space
 70
0
 10
0.0
 20
0.0
 30
0.0
  3
*Model_Space
  1

  0
ENDBLK
  5
19
330
17
100
AcDbEntity
  8
0
100
AcDbBlockEnd
  0
BLOCK
  5
1C
330
1B
100
AcDbEntity
  8
0
100
AcDbBlockBegin
  2
*Paper_Space
 70
0
 10
0.0
 20
0.0
 30
0.0
  3
*Paper_Space
  1

  0
ENDBLK
  5
1D
330
1B
100
AcDbEntity
  8
0
100
AcDbBlockEnd
  0
ENDSEC
  0
SECTION
  2
ENTITIES
  0
LWPOLYLINE
  5
30
330
17
100
AcDbEntity
  8
0
 62
0
100
AcDbPolyline
 90
323
 70
0
 10
0.0
 20
46.016208551716
 10
0.0
 20
56.99290381411858
 10
0.0
 20
61.08226619357869
 10
0.0
 20
72.3523358369241
 10
0.0
 20
85.92576401365254
 10
0.0
 20
88.14352118021323
 10
0.0
 20
92.3493700771663
 10
0.0
 20
104.47594574381267
 10
0.0
 20
108.76052571836078
 10
0.0
 20
120.84480886345034
 10
0.0
 20
129.4440787137831
 10
0.0
 20
139.27604112180893
 10
0.0
 20
143.76534607234638
 10
0.0
 20
156.0242733314618
 10
0.0
 20
163.24106629249593
 10
0.0
 20
177.98823242493677
 10
0.0
 20
182.75768559628054
 10
0.0
 20
186.03731552159337
 10
0.0
 20
190.0
 10
0.0
 20
192.32749825417062
 10
0.0
 20
194.7
 10
0.0
 20
199.3250511984895
 10
0.0
 20
204.26932310848866
 10
0.0
 20
213.4822605193624
 10
0.0
 20
219.11962194019767
 10
0.0
 20
220.0
 10
0.0
 20
222.3439960881269
 10
0.0
 20
224.7
 10
0.0
 20
227.49103435169957
 10
0.0
 20
238.76600163090174
 10
0.0
 20
244.40336305173702
 10
0.0
 20
247.39595784451242
 10
0.0
 20
250.0
 10
3.085824392431169
 20
250.0
 10
6.153148338670619
 20
250.0
 10
12.480972188068144
 20
250.0
 10
24.92157287525383
 20
250.0
 10
30.57842712474623
 20
250.0
 10
34.24338471359079
 20
250.0
 10
40.571208562988325
 20
250.0
 10
49.9577234663274
 20
250.0
 10
55.340254384752946
 20
250.0
 10
63.85806137951108
 20
250.0
 10
71.0625424555098
 20
250.0
 10
72.73047256946194
 20
250.0
 10
77.8775108330346
 20
250.0
 10
93.64223204366021
 20
250.0
 10
104.4070323287459
 20
250.0
 10
113.01337511495063
 20
250.0
 10
117.78282828629442
 20
250.0
 10
131.10303162583511
 20
250.0
 10
143.4914173527067
 20
250.0
 10
148.1239851511241
 20
250.0
 10
152.61329010166153
 20
250.0
 10
164.2535561158539
 20
250.0
 10
168.6321012298781
 20
250.0
 10
179.641701253872
 20
250.0
 10
198.62300039024998
 20
250.0
 10
208.6921495313992
 20
250.0
 10
212.8332542530395
 20
250.0
 10
222.5661783927644
 20
250.0
 10
226.6555407722245
 20
250.0
 10
236.12895966728993
 20
250.0
 10
240.17882017044195
 20
250.0
 10
249.46292462445385
 20
250.0
 10
253.48495774270796
 20
250.0
 10
262.64531048724393
 20
250.0
 10
266.65079987123556
 20
250.0
 10
275.75000000000006
 20
250.0
 10
279.75000000000006
 20
250.0
 10
288.84920012876444
 20
250.0
 10
292.8546895127561
 20
250.0
 10
302.01504225729207
 20
250.0
 10
306.0370753755461
 20
250.0
 10
315.3211798295581
 20
250.0
 10
319.37104033271004
 20
250.0
 10
328.8444592277754
 20
250.0
 10
332.93382160723553
 20
250.0
 10
342.6667457469605
 20
250.0
 10
346.8078504686008
 20
250.0
 10
356.87699960975004
 20
250.0
 10
375.85829874612807
 20
250.0
 10
386.867898770122
 20
250.0
 10
391.24644388414623
 20
250.0
 10
402.88670989833855
 20
250.0
 10
407.3760148488759
 20
250.0
 10
412.0085826472933
 20
250.0
 10
424.39696837416494
 20
250.0
 10
437.71717171370574
 20
250.0
 10
442.4866248850496
 20
250.0
 10
451.09296767125414
 20
250.0
 10
461.8577679563398
 20
250.0
 10
477.6224891669654
 20
250.0
 10
482.76952743053806
 20
250.0
 10
484.43745754449026
 20
250.0
 10
491.64193862048893
 20
250.0
 10
500.15974561524723
 20
250.0
 10
505.5422765336727
 20
250.0
 10
514.9287914370117
 20
250.0
 10
521.2566152864092
 20
250.0
 10
524.9215728752539
 20
250.0
 10
530.5784271247463
 20
250.0
 10
543.0190278119319
 20
250.0
 10
549.3468516613292
 20
250.0
 10
552.4141756075688
 20
250.0
 10
555.5
 20
250.0
 10
555.5
 20
247.3959578445124
 10
555.5
 20
244.40336305173696
 10
555.5
 20
238.76600163090177
 10
555.5
 20
227.4910343516996
 10
555.5
 20
224.7
 10
555.5
 20
222.343996088127
 10
555.5
 20
220.0
 10
555.5
 20
219.11962194019782
 10
555.5
 20
213.48226051936254
 10
555.5
 20
204.26932310848858
 10
555.5
 20
199.32505119848943
 10
555.5
 20
194.7
 10
555.5
 20
192.32749825417065
 10
555.5
 20
190.0
 10
555.5
 20
186.03731552159343
 10
555.5
 20
182.75768559628048
 10
555.5
 20
177.9882324249366
 10
555.5
 20
163.241066292496
 10
555.5
 20
156.0242733314619
 10
555.5
 20
143.76534607234638
 10
555.5
 20
139.27604112180887
 10
555.5
 20
129.4440787137831
 10
555.5
 20
120.84480886345035
 10
555.5
 20
108.76052571836085
 10
555.5
 20
104.47594574381269
 10
555.5
 20
92.34937007716626
 10
555.5
 20
88.14352118021321
 10
555.5
 20
85.92576401365253
 10
555.5
 20
72.35233583692413
 10
555.5
 20
61.08226619357868
 10
555.5
 20
56.99290381411858
 10
555.5
 20
46.01620855171595
 10
555.5
 20
41.96634804856395
 10
555.5
 20
31.203717904168652
 10
555.5
 20
27.181684785914605
 10
555.5
 20
16.559005387860537
 10
555.5
 20
12.553516003868854
 10
555.5
 20
2.0
 10
555.5
 20
0.0
 10
511.06000000000006
 20
0.0
 10
510.95084013981227
 20
2.0
 10
510.50353843452655
 20
10.195351377627677
 10
510.42572222201335
 20
11.621080805630877
 10
510.2855426618832
 20
14.18941608728203
 10
509.9365485798902
 20
20.583599469207705
 10
509.64347094055773
 20
22.361969367183654
 10
509.41875250117954
 20
23.725541521717684
 10
508.9919204358517
 20
26.31552176790362
 10
507.6613272646577
 20
34.389446641508115
 10
507.0108829323771
 20
38.33628688312959
 10
506.57701377087767
 20
40.96896762338703
 10
505.0990430208031
 20
46.27984969374181
 10
504.6027507495752
 20
48.06320685746586
 10
504.0245681823485
 20
50.14082539593903
 10
501.8442951145239
 20
57.97533304353818
 10
501.01374972968165
 20
60.959782223437124
 10
500.6781647627946
 20
61.803974079163225
 10
497.67628312423324
 20
69.35545665788149
 10
497.3160243897867
 20
70.2617174251474
 10
496.1956125291144
 20
73.08020651484756
 10
493.3003337302083
 20
80.36352079666898
 10
493.19704741145705
 20
80.5600829685544
 10
492.1992074609408
 20
82.45905265049119
 10
491.32355199416116
 20
84.12549543259898
 10
487.58711724422375
 20
91.2362312825668
 10
485.7225649645494
 20
94.78462423642252
 10
483.51105018511464
 20
98.99331473345957
 10
481.71984997995776
 20
101.68317701908045
 10
479.48773629779237
 20
105.03516324238994
 10
475.09691869519395
 20
111.62889555565485
 10
472.87533645894496
 20
114.96506660704662
 10
471.7401752463069
 20
116.66974893411646
 10
468.02354922324366
 20
121.18036106454277
 10
465.46350914539283
 20
124.28730477044034
 10
460.5039489925804
 20
130.30638014903255
 10
458.1010688740601
 20
133.22258967436565
 10
457.93692522583
 20
133.38560012208706
 10
452.41610630698216
 20
138.86830489594962
 10
449.8466986855782
 20
141.41997406658243
 10
449.5612089498666
 20
141.7034928633194
 10
444.11903981104604
 20
147.10809083260148
 10
442.72508311863334
 20
148.492424049175
 10
441.1267399570377
 20
149.79634286072613
 10
435.20538005336925
 20
154.62695292862298
 10
432.09001886631
 20
157.1684459910562
 10
426.2477643212147
 20
161.9345223795678
 10
425.76029712822015
 20
162.33219520617473
 10
422.92656297923753
 20
164.22386080435894
 10
416.68396197505393
 20
168.39112313101162
 10
413.34297277193065
 20
170.62140798032337
 10
407.3700910658033
 20
174.60861858353454
 10
407.1636433418519
 20
174.7199957246215
 10
403.61163390714125
 20
176.63628062415899
 10
397.1185327653449
 20
180.13926446975435
 10
395.8280129993015
 20
180.83549109462118
 10
393.5865227444013
 20
182.0447598217679
 10
387.7315726688735
 20
185.20346551315455
 10
387.1336353436162
 20
185.45801393173005
 10
383.4260896561433
 20
187.03635642964406
 10
376.7438780623443
 20
189.88104653668233
 10
376.6755613904499
 20
189.91012968646828
 10
373.0547777800463
 20
191.45153662512308
 10
367.0338716050992
 20
194.0147018273702
 10
366.40968481027517
 20
194.21572577548633
 10
362.58024054188877
 20
195.4490264673709
 10
355.7611592787653
 20
197.6451617419472
 10
353.8026158203444
 20
198.27592506765927
 10
351.947987391047
 20
198.87322179395557
 10
345.4763180502386
 20
200.9574705037639
 10
345.17037694332396
 20
201.02644823361862
 10
341.2516042381358
 20
201.90997790292846
 10
334.33972841636205
 20
203.46833502607507
 10
332.3871361420872
 20
203.90856806232722
 10
330.4345438678123
 20
204.34880109857937
 10
323.5598184016082
 20
205.89878227245805
 10
323.2665230295829
 20
205.96490888467838
 10
319.5888818255347
 20
206.45593187280997
 10
312.62167178047247
 20
207.38616408021
 10
308.65567938795374
 20
207.9156864907535
 10
301.71128693144163
 20
208.84287219092502
 10
300.6183790102897
 20
208.98879260116135
 10
297.71807002845696
 20
209.11704016518974
 10
290.72830245020896
 20
209.42611780852013
 10
287.59099181514983
 20
209.5648452506882
 10
286.73207391794347
 20
209.60282538615206
 10
279.75000000000006
 20
209.91156282669763
 10
277.74999999999994
 20
210.0
 10
275.75000000000006
 20
209.91156282669763
 10
268.7679260820566
 20
209.60282538615206
 10
264.7716975497911
 20
209.42611780852013
 10
257.78192997154304
 20
209.11704016518974
 10
254.88162098971026
 20
208.98879260116135
 10
253.7887130685584
 20
208.84287219092505
 10
246.84432061204626
 20
207.9156864907535
 10
242.8783282195275
 20
207.38616408021
 10
235.9111181744652
 20
206.45593187280997
 10
232.23347697041703
 20
205.96490888467838
 10
231.94018159839177
 20
205.89878227245805
 10
225.06545613218773
 20
204.34880109857937
 10
223.52547920783434
 20
204.0015966534434
 10
221.16027158363795
 20
203.46833502607507
 10
214.24839576186423
 20
201.90997790292846
 10
211.94250121538988
 20
201.3900890501219
 10
210.32962305667607
 20
201.0264482336186
 10
210.0236819497614
 20
200.95747050376386
 10
203.55201260895308
 20
198.87322179395557
 10
199.7388407212347
 20
197.64516174194716
 10
192.91975945811132
 20
195.4490264673709
 10
189.09031518972498
 20
194.21572577548636
 10
188.46612839490078
 20
194.01470182737017
 10
182.44522221995376
 20
191.4515366251231
 10
178.75612193765565
 20
189.8810465366823
 10
172.07391034385677
 20
187.03635642964406
 10
168.36636465638384
 20
185.45801393173005
 10
167.76842733112645
 20
185.20346551315453
 10
161.91347725559882
 20
182.04475982176794
 10
158.3814672346552
 20
180.1392644697544
 10
151.8883660928588
 20
176.63628062415899
 10
150.5226997042915
 20
175.89951290821668
 10
148.33635665814808
 20
174.7199957246215
 10
148.12990893419664
 20
174.6086185835345
 10
142.15702722806932
 20
170.62140798032337
 10
138.81603802494607
 20
168.39112313101162
 10
132.57343702076253
 20
164.223860804359
 10
129.73970287177983
 20
162.3321952061747
 10
129.25223567878538
 20
161.93452237956782
 10
123.40998113369002
 20
157.16844599105622
 10
120.29461994663079
 20
154.62695292862304
 10
114.37326004296227
 20
149.79634286072613
 10
112.77491688136658
 20
148.49242404917496
 10
111.38096018895399
 20
147.1080908326015
 10
105.9387910501334
 20
141.7034928633194
 10
103.08389369301783
 20
138.86830489594956
 10
97.56307477417003
 20
133.38560012208706
 10
97.39893112593984
 20
133.2225896743655
 10
94.99605100741968
 20
130.30638014903258
 10
90.03649085460724
 20
124.28730477044037
 10
87.47645077675645
 20
121.18036106454282
 10
83.75982475369315
 20
116.66974893411641
 10
82.6246635410551
 20
114.96506660704662
 10
81.26702995223627
 20
112.92629540897387
 10
80.40308130480611
 20
111.62889555565485
 10
76.01226370220768
 20
105.03516324238994
 10
75.32136014556599
 20
103.9976268382173
 10
73.78015002004227
 20
101.68317701908046
 10
71.98894981488532
 20
98.9933147334595
 10
69.7774350354506
 20
94.78462423642252
 10
67.91288275577625
 20
91.23623128256678
 10
64.17644800583886
 20
84.12549543259892
 10
62.30295258854301
 20
80.56008296855434
 10
62.19966626979169
 20
80.36352079666884
 10
59.304387470885665
 20
73.08020651484755
 10
57.82371687576679
 20
69.35545665788148
 10
54.82183523720539
 20
61.80397407916318
 10
54.48625027031834
 20
60.959782223437045
 10
53.655704885476105
 20
57.97533304353816
 10
51.47543181765154
 20
50.140825395939025
 10
50.400956979196906
 20
46.27984969374178
 10
48.922986229122344
 20
40.96896762338695
 10
48.489117067622885
 20
38.33628688312961
 10
47.8386727353423
 20
34.38944664150813
 10
46.508079564148275
 20
26.31552176790359
 10
45.85652905944223
 20
22.361969367183615
 10
45.56345142010976
 20
20.583599469207723
 10
45.21445733811682
 20
14.189416087282023
 10
45.06721457940157
 20
11.49167062549794
 10
44.99646156547346
 20
10.195351377627667
 10
44.549159860187785
 20
2.000000000000132
 10
44.440000000000026
 20
0.0
 10
0.0
 20
0.0
 10
0.0
 20
2.0000000000001577
 10
0.0
 20
12.553516003868845
 10
0.0
 20
16.55900538786053
 10
0.0
 20
27.181684785914555
 10
0.0
 20
31.20371790416862
 10
0.0
 20
41.96634804856398
 10
0.0
 20
46.016208551716
  0
LWPOLYLINE
  5
31
330
17
100
AcDbEntity
  8
0
 62
0
100
AcDbPolyline
 90
5
 70
0
 10
5.031236129491217
 20
30.674913678337404
 10
6.7167584387750106
 20
40.902518022443495
 10
5.0
 20
41.1744258469413
 10
5.0
 20
30.678196727840238
 10
5.031236129491217
 20
30.674913678337404
  0
LWPOLYLINE
  5
32
330
17
100
AcDbEntity
  8
0
 62
0
100
AcDbPolyline
 90
7
 70
0
 10
5.0
 20
55.93012100576846
 10
5.0
 20
45.224286350093315
 10
7.367202771055591
 20
44.84935826406498
 10
7.928039979094083
 20
48.252470185916756
 10
8.02124187587591
 20
48.67445001307588
 10
9.75892708572831
 20
54.91857982718771
 10
5.0
 20
55.93012100576846
  0
LWPOLYLINE
  5
33
330
17
100
AcDbEntity
  8
0
 62
0
100
AcDbPolyline
 90
5
 70
0
 10
10.833401924182951
 20
58.77955552938496
 10
13.596707432762067
 20
68.70910906059328
 10
5.0
 20
71.0125898747685
 10
5.0
 20
60.019483385228575
 10
10.833401924182951
 20
58.77955552938496
  0
LWPOLYLINE
  5
34
330
17
100
AcDbEntity
  8
0
 62
0
100
AcDbPolyline
 90
5
 70
0
 10
8.32093267618601
 20
105.56641892602198
 10
13.516951320732176
 20
115.45486032152472
 10
5.0
 20
119.2468513608911
 10
5.0
 20
106.8412055431837
 10
8.32093267618601
 20
105.56641892602198
  0
LWPOLYLINE
  5
35
330
17
100
AcDbEntity
  8
0
 62
0
100
AcDbPolyline
 90
5
 70
0
 10
6.738033829419813
 20
140.33214635670257
 10
13.38877311381746
 20
150.3196244292787
 10
5.0
 20
155.1628848447119
 10
5.0
 20
141.21771882487423
 10
6.738033829419813
 20
140.33214635670257
  0
LWPOLYLINE
  5
36
330
17
100
AcDbEntity
  8
0
 62
0
100
AcDbPolyline
 90
4
 70
0
 10
5.0
 20
174.74119445894922
 10
5.0
 20
169.89213987201614
 10
7.602766739973511
 20
173.05093797468848
 10
5.0
 20
174.74119445894922
  0
LWPOLYLINE
  5
37
330
17
100
AcDbEntity
  8
0
 62
0
100
AcDbPolyline
 90
11
 70
0
 10
10.162806817824288
 20
176.157881680586
 10
13.32861148395778
 20
180.0
 10
10.0
 20
180.0
 10
9.019828596704395
 20
180.04815273327802
 10
8.049096779838713
 20
180.1921471959677
 10
7.097153227455376
 20
180.43059664267793
 10
6.173165676349097
 20
180.76120467488713
 10
5.286032631740021
 20
181.18078735651645
 10
5.0
 20
181.35222871826176
 10
5.0
 20
179.51064763029297
 10
10.162806817824288
 20
176.157881680586
  0
LWPOLYLINE
  5
38
330
17
100
AcDbEntity
  8
0
 62
0
100
AcDbPolyline
 90
18
 70
0
 10
15.243565669507692
 20
210.0
 10
10.0
 20
210.0
 10
9.019828596704395
 20
210.04815273327802
 10
8.049096779838713
 20
210.1921471959677
 10
7.097153227455376
 20
210.43059664267793
 10
6.173165676349097
 20
210.76120467488713
 10
5.286032631740021
 20
211.18078735651645
 10
5.0
 20
211.35222871826176
 10
5.0
 20
203.34777128173823
 10
5.286032631740023
 20
203.51921264348354
 10
6.173165676349103
 20
203.93879532511286
 10
7.097153227455379
 20
204.2694033573221
 10
8.049096779838719
 20
204.5078528040323
 10
9.019828596704393
 20
204.65184726672197
 10
10.0
 20
204.7
 10
10.939643320518524
 20
204.7
 10
15.812538928768362
 20
209.5392545393358
 10
15.243565669507692
 20
210.0
  0
LWPOLYLINE
  5
39
330
17
100
AcDbEntity
  8
0
 62
0
100
AcDbPolyline
 90
10
 70
0
 10
6.173165676349103
 20
233.93879532511286
 10
7.097153227455379
 20
234.2694033573221
 10
8.049096779838719
 20
234.5078528040323
 10
9.019828596704393
 20
234.65184726672197
 10
10.0
 20
234.7
 10
14.100289669859386
 20
234.7
 10
5.0
 20
242.89393762302322
 10
5.0
 20
233.34777128173823
 10
5.286032631740023
 20
233.51921264348354
 10
6.173165676349103
 20
233.93879532511286
  0
LWPOLYLINE
  5
3A
330
17
100
AcDbEntity
  8
0
 62
0
100
AcDbPolyline
 90
4
 70
0
 10
28.114386698391325
 20
245.0
 10
8.63888696657713
 20
245.0
 10
17.8965575501524
 20
236.66435596577168
 10
28.114386698391325
 20
245.0
  0
LWPOLYLINE
  5
3B
330
17
100
AcDbEntity
  8
0
 62
0
100
AcDbPolyline
 90
5
 70
0
 10
44.84529729598492
 20
235.73312982876132
 10
55.198664654996186
 20
244.17934512638067
 10
54.459743687816605
 20
245.0
 10
35.57842712474624
 20
245.0
 10
44.84529729598492
 20
235.73312982876132
  0
LWPOLYLINE
  5
3C
330
17
100
AcDbEntity
  8
0
 62
0
100
AcDbPolyline
 90
6
 70
0
 10
63.572492016091076
 20
245.0
 10
61.24265946758513
 20
243.44471504741512
 10
70.42644190826617
 20
233.24509133532618
 10
80.72902842734952
 20
240.12260611470788
 10
76.77939273543699
 20
245.0
 10
63.572492016091076
 20
245.0
  0
LWPOLYLINE
  5
3D
330
17
100
AcDbEntity
  8
0
 62
0
100
AcDbPolyline
 90
4
 70
0
 10
88.0354136700996
 20
245.0
 10
81.92643099900964
 20
245.0
 10
84.07001763047278
 20
242.35289096401962
 10
88.0354136700996
 20
245.0
  0
LWPOLYLINE
  5
3E
330
17
100
AcDbEntity
  8
0
 62
0
100
AcDbPolyline
 90
5
 70
0
 10
108.18580929552093
 20
236.7876896783794
 10
118.11488753211088
 20
242.1443597663499
 10
116.26041308093819
 20
245.0
 10
102.21921659368618
 20
245.0
 10
108.18580929552093
 20
236.7876896783794
  0
LWPOLYLINE
  5
3F
330
17
100
AcDbEntity
  8
0
 62
0
100
AcDbPolyline
 90
5
 70
0
 10
143.9447533887377
 20
235.7574854499898
 10
153.34244958982123
 20
239.75818687000796
 10
150.67161239859624
 20
245.0
 10
138.60858512530027
 20
245.0
 10
143.9447533887377
 20
235.7574854499898
  0
LWPOLYLINE
  5
40
330
17
100
AcDbEntity
  8
0
 62
0
100
AcDbPolyline
 90
6
 70
0
 10
155.16091734913365
 20
245.0
 10
157.0315498721193
 20
241.32867695844874
 10
165.2161241512238
 20
244.8129391903862
 10
165.55669605210605
 20
244.9399741578428
 10
165.74307851237424
 20
245.0
 10
155.16091734913365
 20
245.0
  0
LWPOLYLINE
  5
41
330
17
100
AcDbEntity
  8
0
 62
0
100
AcDbPolyline
 90
5
 70
0
 10
202.40858550622025
 20
238.34916701000262
 10
211.27815218708687
 20
240.3489067004656
 10
210.03189549355483
 20
245.0
 10
200.2475988714145
 20
245.0
 10
202.40858550622025
 20
238.34916701000262
  0
LWPOLYLINE
  5
42
330
17
100
AcDbEntity
  8
0
 62
0
100
AcDbPolyline
 90
6
 70
0
 10
214.17300021519515
 20
245.0
 10
215.18333673563666
 20
241.2293727729699
 10
223.98437498707662
 20
243.21366198820897
 10
224.0077683989857
 20
243.21785225120814
 10
223.62896120111452
 20
245.0
 10
214.17300021519515
 20
245.0
  0
LWPOLYLINE
  5
43
330
17
100
AcDbEntity
  8
0
 62
0
100
AcDbPolyline
 90
5
 70
0
 10
227.9811964091156
 20
243.76328057588233
 10
236.92757163368802
 20
244.9577624875165
 10
236.92088186891263
 20
245.0
 10
227.7183235805746
 20
245.0
 10
227.9811964091156
 20
243.76328057588233
  0
LWPOLYLINE
  5
44
330
17
100
AcDbEntity
  8
0
 62
0
100
AcDbPolyline
 90
5
 70
0
 10
318.57242836631195
 20
244.9577624875165
 10
327.5188035908844
 20
243.76328057588236
 10
327.78167641942537
 20
245.0
 10
318.57911813108734
 20
245.0
 10
318.57242836631195
 20
244.9577624875165
  0
LWPOLYLINE
  5
45
330
17
100
AcDbEntity
  8
0
 62
0
100
AcDbPolyline
 90
6
 70
0
 10
331.8710387988854
 20
245.0
 10
331.4922316010143
 20
243.21785225120817
 10
331.5156250129233
 20
243.213661988209
 10
340.31666326436334
 20
241.22937277296992
 10
341.32699978480485
 20
245.0
 10
331.8710387988854
 20
245.0
  0
LWPOLYLINE
  5
46
330
17
100
AcDbEntity
  8
0
 62
0
100
AcDbPolyline
 90
5
 70
0
 10
344.22184781291315
 20
240.3489067004656
 10
353.0914144937798
 20
238.34916701000262
 10
355.2524011285855
 20
245.0
 10
345.4681045064452
 20
245.0
 10
344.22184781291315
 20
240.3489067004656
  0
LWPOLYLINE
  5
47
330
17
100
AcDbEntity
  8
0
 62
0
100
AcDbPolyline
 90
6
 70
0
 10
389.75692148762573
 20
245.0
 10
389.94330394789387
 20
244.93997415784284
 10
390.2838758487761
 20
244.81293919038623
 10
398.4684501278807
 20
241.3286769584487
 10
400.3390826508664
 20
245.0
 10
389.75692148762573
 20
245.0
  0
LWPOLYLINE
  5
48
330
17
100
AcDbEntity
  8
0
 62
0
100
AcDbPolyline
 90
5
 70
0
 10
402.15755041017877
 20
239.75818687000793
 10
411.55524661126236
 20
235.75748544998973
 10
416.8914148746998
 20
245.0
 10
404.8283876014038
 20
245.0
 10
402.15755041017877
 20
239.75818687000793
  0
LWPOLYLINE
  5
49
330
17
100
AcDbEntity
  8
0
 62
0
100
AcDbPolyline
 90
5
 70
0
 10
437.38511246788926
 20
242.1443597663498
 10
447.31419070447913
 20
236.78768967837937
 10
453.2807834063139
 20
245.0
 10
439.23958691906205
 20
245.0
 10
437.38511246788926
 20
242.1443597663498
  0
LWPOLYLINE
  5
4A
330
17
100
AcDbEntity
  8
0
 62
0
100
AcDbPolyline
 90
4
 70
0
 10
473.57356900099035
 20
245.0
 10
467.4645863299005
 20
245.0
 10
471.42998236952724
 20
242.35289096401968
 10
473.57356900099035
 20
245.0
  0
LWPOLYLINE
  5
4B
330
17
100
AcDbEntity
  8
0
 62
0
100
AcDbPolyline
 90
6
 70
0
 10
478.72060726456306
 20
245.0
 10
474.7709715726506
 20
240.1226061147079
 10
485.073558091734
 20
233.24509133532618
 10
494.257340532415
 20
243.4447150474151
 10
491.92750798390904
 20
245.0
 10
478.72060726456306
 20
245.0
  0
LWPOLYLINE
  5
4C
330
17
100
AcDbEntity
  8
0
 62
0
100
AcDbPolyline
 90
5
 70
0
 10
500.3013353450039
 20
244.1793451263806
 10
510.65470270401516
 20
235.73312982876124
 10
519.9215728752539
 20
245.0
 10
501.04025631218354
 20
245.0
 10
500.3013353450039
 20
244.1793451263806
  0
LWPOLYLINE
  5
4D
330
17
100
AcDbEntity
  8
0
 62
0
100
AcDbPolyline
 90
4
 70
0
 10
546.861113033423
 20
245.0
 10
527.3856133016086
 20
245.0
 10
537.6034424498476
 20
236.66435596577165
 10
546.861113033423
 20
245.0
  0
LWPOLYLINE
  5
4E
330
17
100
AcDbEntity
  8
0
 62
0
100
AcDbPolyline
 90
10
 70
0
 10
546.4801714032956
 20
234.65184726672194
 10
547.4509032201613
 20
234.5078528040323
 10
548.4028467725446
 20
234.26940335732206
 10
549.3268343236509
 20
233.93879532511286
 10
550.21396736826
 20
233.51921264348354
 10
550.5
 20
233.34777128173823
 10
550.5
 20
242.8939376230231
 10
541.3997103301407
 20
234.7
 10
545.5
 20
234.7
 10
546.4801714032956
 20
234.65184726672194
  0
LWPOLYLINE
  5
4F
330
17
100
AcDbEntity
  8
0
 62
0
100
AcDbPolyline
 90
18
 70
0
 10
550.21396736826
 20
211.18078735651645
 10
549.3268343236509
 20
210.76120467488713
 10
548.4028467725446
 20
210.43059664267793
 10
547.4509032201613
 20
210.1921471959677
 10
546.4801714032956
 20
210.04815273327804
 10
545.5
 20
210.0
 10
540.2564343304922
 20
210.0
 10
539.6874610712316
 20
209.53925453933587
 10
544.5603566794816
 20
204.7
 10
545.5
 20
204.7
 10
546.4801714032956
 20
204.65184726672194
 10
547.4509032201613
 20
204.5078528040323
 10
548.4028467725446
 20
204.26940335732206
 10
549.3268343236509
 20
203.93879532511286
 10
550.21396736826
 20
203.51921264348354
 10
550.5
 20
203.34777128173823
 10
550.5
 20
211.35222871826176
 10
550.21396736826
 20
211.18078735651645
  0
LWPOLYLINE
  5
50
330
17
100
AcDbEntity
  8
0
 62
0
100
AcDbPolyline
 90
11
 70
0
 10
550.5
 20
181.35222871826176
 10
550.21396736826
 20
181.18078735651645
 10
549.3268343236509
 20
180.76120467488713
 10
548.4028467725446
 20
180.43059664267793
 10
547.4509032201613
 20
180.1921471959677
 10
546.4801714032956
 20
180.04815273327804
 10
545.5
 20
180.0
 10
542.1713885160423
 20
180.0
 10
545.3371931821758
 20
176.15788168058597
 10
550.5
 20
179.5106476302929
 10
550.5
 20
181.35222871826176
  0
LWPOLYLINE
  5
51
330
17
100
AcDbEntity
  8
0
 62
0
100
AcDbPolyline
 90
4
 70
0
 10
550.5
 20
169.8921398720162
 10
550.5
 20
174.74119445894905
 10
547.8972332600266
 20
173.0509379746884
 10
550.5
 20
169.8921398720162
  0
LWPOLYLINE
  5
52
330
17
100
AcDbEntity
  8
0
 62
0
100
AcDbPolyline
 90
5
 70
0
 10
542.1112268861826
 20
150.3196244292787
 10
548.7619661705802
 20
140.33214635670257
 10
550.5
 20
141.21771882487423
 10
550.5
 20
155.16288484471187
 10
542.1112268861826
 20
150.3196244292787
  0
LWPOLYLINE
  5
53
330
17
100
AcDbEntity
  8
0
 62
0
100
AcDbPolyline
 90
5
 70
0
 10
541.9830486792679
 20
115.45486032152479
 10
547.179067323814
 20
105.56641892602205
 10
550.5
 20
106.84120554318376
 10
550.5
 20
119.24685136089114
 10
541.9830486792679
 20
115.45486032152479
  0
LWPOLYLINE
  5
54
330
17
100
AcDbEntity
  8
0
 62
0
100
AcDbPolyline
 90
5
 70
0
 10
541.9032925672379
 20
68.70910906059332
 10
544.6665980758171
 20
58.77955552938498
 10
550.5
 20
60.01948338522858
 10
550.5
 20
71.01258987476852
 10
541.9032925672379
 20
68.70910906059332
  0
LWPOLYLINE
  5
55
330
17
100
AcDbEntity
  8
0
 62
0
100
AcDbPolyline
 90
7
 70
0
 10
550.5
 20
45.224286350093266
 10
550.5
 20
55.93012100576848
 10
545.7410729142717
 20
54.91857982718775
 10
547.4787581241242
 20
48.67445001307598
 10
547.571960020906
 20
48.252470185916835
 10
548.1327972289445
 20
44.849358264064946
 10
550.5
 20
45.224286350093266
  0
LWPOLYLINE
  5
56
330
17
100
AcDbEntity
  8
0
 62
0
100
AcDbPolyline
 90
5
 70
0
 10
548.783241561225
 20
40.90251802244347
 10
550.4687638705088
 20
30.674913678337443
 10
550.5
 20
30.678196727840273
 10
550.5
 20
41.17442584694127
 10
548.783241561225
 20
40.90251802244347
  0
LWPOLYLINE
  5
57
330
17
100
AcDbEntity
  8
0
 62
0
100
AcDbPolyline
 90
5
 70
0
 10
529.3366679074765
 20
11.182353870254973
 10
515.496697820618
 20
10.457031772659002
 10
515.7945422332898
 20
5.0
 10
529.6741003495306
 20
5.0
 10
529.3366679074765
 20
11.182353870254973
  0
LWPOLYLINE
  5
58
330
17
100
AcDbEntity
  8
0
 62
0
100
AcDbPolyline
 90
8
 70
0
 10
514.870002414986
 20
21.39663898668449
 10
514.9291177559965
 20
20.856093545828465
 10
515.2787020479747
 20
14.451096482313355
 10
529.1186721348331
 20
15.176418579909328
 10
528.732602512548
 20
22.249890854810236
 10
528.3894272581744
 20
24.332248770270525
 10
514.6246344398376
 20
22.885510747508764
 10
514.870002414986
 20
21.39663898668449
  0
LWPOLYLINE
  5
59
330
17
100
AcDbEntity
  8
0
 62
0
100
AcDbPolyline
 90
5
 70
0
 10
527.7378767534683
 20
28.28580117099049
 10
526.2468691059663
 20
37.33310728417203
 10
512.5998655320954
 20
35.17163426101754
 10
513.9730839351315
 20
26.83906314822873
 10
527.7378767534683
 20
28.28580117099049
  0
LWPOLYLINE
  5
5A
330
17
100
AcDbEntity
  8
0
 62
0
100
AcDbPolyline
 90
8
 70
0
 10
511.39396523499613
 20
42.30948192481273
 10
511.5104676059734
 20
41.78200714086382
 10
511.9494211998148
 20
39.11847450263902
 10
525.5964247736857
 20
41.2799475257935
 10
525.1011053618536
 20
44.28550309766122
 10
523.4599987123593
 20
50.18259130451461
 10
509.9991911587485
 20
47.32140833361724
 10
511.39396523499613
 20
42.30948192481273
  0
LWPOLYLINE
  5
5B
330
17
100
AcDbEntity
  8
0
 62
0
100
AcDbPolyline
 90
5
 70
0
 10
522.3855238739046
 20
54.04356700671183
 10
519.9418527218925
 20
62.82455898940831
 10
506.674147911995
 20
59.26948820018177
 10
508.92471632029384
 20
51.18238403581446
 10
522.3855238739046
 20
54.04356700671183
  0
LWPOLYLINE
  5
5C
330
17
100
AcDbEntity
  8
0
 62
0
100
AcDbPolyline
 90
5
 70
0
 10
518.7849475471579
 20
66.65567190375913
 10
515.4199074721068
 20
75.12070969106338
 10
502.4413851685802
 20
70.90373216664952
 10
505.5407940639304
 20
63.10691167349447
 10
518.7849475471579
 20
66.65567190375913
  0
LWPOLYLINE
  5
5D
330
17
100
AcDbEntity
  8
0
 62
0
100
AcDbPolyline
 90
7
 70
0
 10
497.94667654468105
 20
82.21054501156094
 10
500.96071457346136
 20
74.62848202361559
 10
513.9392368769879
 20
78.84545954802944
 10
510.749646460749
 20
86.86913914687553
 10
510.56216691120824
 20
87.22592780860107
 10
497.8791449641892
 20
82.35737182757562
 10
497.94667654468105
 20
82.21054501156094
  0
LWPOLYLINE
  5
5E
330
17
100
AcDbEntity
  8
0
 62
0
100
AcDbPolyline
 90
5
 70
0
 10
508.6886714939124
 20
90.79134027264567
 10
504.4984615241027
 20
98.76564686309734
 10
492.16449048848295
 20
93.27420915427479
 10
496.0237480321602
 20
85.92973164920276
 10
508.6886714939124
 20
90.79134027264567
  0
LWPOLYLINE
  5
5F
330
17
100
AcDbEntity
  8
0
 62
0
100
AcDbPolyline
 90
8
 70
0
 10
487.6727587558856
 20
101.76462882103097
 10
487.93719441121567
 20
101.31909359004774
 10
490.2999382088086
 20
96.82260210813051
 10
502.63390924442837
 20
102.31403981695306
 10
500.16789710486205
 20
107.00705925950155
 10
498.14134751977144
 20
110.05034793442567
 10
486.2051496218741
 20
103.96855133524507
 10
487.6727587558856
 20
101.76462882103097
  0
LWPOLYLINE
  5
60
330
17
100
AcDbEntity
  8
0
 62
0
100
AcDbPolyline
 90
5
 70
0
 10
495.90923383760605
 20
113.40233415773518
 10
490.9827004514329
 20
120.80055592890706
 10
479.435895152735
 20
114.13400478142361
 10
483.9730359397087
 20
107.32053755855456
 10
495.90923383760605
 20
113.40233415773518
  0
LWPOLYLINE
  5
61
330
17
100
AcDbEntity
  8
0
 62
0
100
AcDbPolyline
 90
8
 70
0
 10
475.59898487656164
 20
119.84930680235114
 10
475.9018838170778
 20
119.44106302168785
 10
477.214312916486
 20
117.47017583281539
 10
488.7611182151839
 20
124.13672698029882
 10
487.44414181386503
 20
126.1144428954497
 10
483.3230253953075
 20
131.11595706262543
 10
472.24392819382325
 20
123.92110721420825
 10
475.59898487656164
 20
119.84930680235114
  0
LWPOLYLINE
  5
62
330
17
100
AcDbEntity
  8
0
 62
0
100
AcDbPolyline
 90
5
 70
0
 10
480.7629853174567
 20
134.22290076852298
 10
475.19516814541186
 20
140.9801756518115
 10
464.55653953015707
 20
133.25075952317414
 10
469.6838881159724
 20
127.02805092010583
 10
480.7629853174567
 20
134.22290076852298
  0
LWPOLYLINE
  5
63
330
17
100
AcDbEntity
  8
0
 62
0
100
AcDbPolyline
 90
7
 70
0
 10
461.9598785043149
 20
136.40214754260035
 10
462.00817355612645
 20
136.34353517611822
 10
472.63986219103293
 20
144.06790911388904
 10
466.44018811499745
 20
150.22478242430097
 10
456.3246862021792
 20
142.0334104875472
 10
461.6243352167803
 20
136.77034872456272
 10
461.9598785043149
 20
136.40214754260035
  0
LWPOLYLINE
  5
64
330
17
100
AcDbEntity
  8
0
 62
0
100
AcDbPolyline
 90
5
 70
0
 10
463.5852907578819
 20
153.0599703916708
 10
457.4719506519304
 20
159.13110575688225
 10
447.8405610891956
 20
150.4589636423878
 10
453.46978884506365
 20
144.868598454917
 10
463.5852907578819
 20
153.0599703916708
  0
LWPOLYLINE
  5
65
330
17
100
AcDbEntity
  8
0
 62
0
100
AcDbPolyline
 90
5
 70
0
 10
454.47942197058165
 20
161.8191517479441
 10
447.825670009642
 20
167.2472428848957
 10
438.7590601784551
 20
158.18063305370885
 10
444.8866504545408
 20
153.18178147887582
 10
454.47942197058165
 20
161.8191517479441
  0
LWPOLYLINE
  5
66
330
17
100
AcDbEntity
  8
0
 62
0
100
AcDbPolyline
 90
5
 70
0
 10
444.71030882258276
 20
169.78873594732892
 10
438.1434086866685
 20
175.1459738837982
 10
429.59739536004764
 20
165.654664531356
 10
435.64369899139587
 20
160.72212611614205
 10
444.71030882258276
 20
169.78873594732892
  0
LWPOLYLINE
  5
67
330
17
100
AcDbEntity
  8
0
 62
0
100
AcDbPolyline
 90
5
 70
0
 10
434.81502590476714
 20
177.42733651153497
 10
427.79576647671763
 20
182.11305891408946
 10
419.84394583665176
 20
172.2933782163954
 10
426.3074135852982
 20
167.97867579821778
 10
434.81502590476714
 20
177.42733651153497
  0
LWPOLYLINE
  5
68
330
17
100
AcDbEntity
  8
0
 62
0
100
AcDbPolyline
 90
7
 70
0
 10
410.1461411086896
 20
178.76716955224836
 10
416.50295663352847
 20
174.52366306570715
 10
424.45477727359435
 20
184.34334376340124
 10
417.8631460568445
 20
188.7436019926778
 10
417.4962140876445
 20
188.94155929111975
 10
410.11687953209264
 20
178.78477662374996
 10
410.1461411086896
 20
178.76716955224836
  0
LWPOLYLINE
  5
69
330
17
100
AcDbEntity
  8
0
 62
0
100
AcDbPolyline
 90
5
 70
0
 10
413.9442046529338
 20
190.85784419065723
 10
406.6387373931204
 20
194.7990940244112
 10
399.85073425464816
 20
184.3464858172144
 10
406.57697617485064
 20
180.7177241094432
 10
413.9442046529338
 20
190.85784419065723
  0
LWPOLYLINE
  5
6A
330
17
100
AcDbEntity
  8
0
 62
0
100
AcDbPolyline
 90
8
 70
0
 10
389.6900455219218
 20
189.8039420193301
 10
390.1055903653386
 20
189.60392457748756
 10
396.3187242337045
 20
186.25198116922795
 10
403.1067273721767
 20
196.70458937642474
 10
396.6348428373061
 20
200.1961270070766
 10
395.8384337364636
 20
200.53516701778568
 10
389.6520875643373
 20
189.8201011344536
 10
389.6900455219218
 20
189.8039420193301
  0
LWPOLYLINE
  5
6B
330
17
100
AcDbEntity
  8
0
 62
0
100
AcDbPolyline
 90
5
 70
0
 10
392.1308880489907
 20
202.11350951569966
 10
384.6083474654887
 20
205.3159368075173
 10
379.01920823534596
 20
194.3466334377082
 10
385.9445418768644
 20
191.39844363236762
 10
392.1308880489907
 20
202.11350951569966
  0
LWPOLYLINE
  5
6C
330
17
100
AcDbEntity
  8
0
 62
0
100
AcDbPolyline
 90
8
 70
0
 10
368.56662958204464
 20
198.7739720428665
 10
368.99234445814744
 20
198.61517833354574
 10
375.33010795304796
 20
195.91712352614897
 10
380.9192471831907
 20
206.88642689595807
 10
374.26161359217866
 20
209.72065388006206
 10
373.4318960745294
 20
209.98787050912577
 10
368.4551340546491
 20
198.80987999750477
 10
368.56662958204464
 20
198.7739720428665
  0
LWPOLYLINE
  5
6D
330
17
100
AcDbEntity
  8
0
 62
0
100
AcDbPolyline
 90
5
 70
0
 10
369.602451806143
 20
211.22117120101035
 10
361.92200569159104
 20
213.6947153612575
 10
357.5557077714838
 20
202.32012039639085
 10
364.6256897862627
 20
200.04318068938932
 10
369.602451806143
 20
211.22117120101035
  0
LWPOLYLINE
  5
6E
330
17
100
AcDbEntity
  8
0
 62
0
100
AcDbPolyline
 90
7
 70
0
 10
347.00907602718405
 20
205.71674071926017
 10
353.74253588376547
 20
203.54818044839922
 10
358.1088338038727
 20
214.9227754132659
 10
350.95892474954354
 20
217.22545621121142
 10
350.46959999114495
 20
217.33577976771693
 10
346.72000266042164
 20
205.79570579191352
 10
347.00907602718405
 20
205.71674071926017
  0
LWPOLYLINE
  5
6F
330
17
100
AcDbEntity
  8
0
 62
0
100
AcDbPolyline
 90
5
 70
0
 10
346.5508272859568
 20
218.21930943702677
 10
338.7627346754834
 20
219.97521910731106
 10
335.6348620142475
 20
208.3018394159732
 10
342.8033094381383
 20
206.68563545152534
 10
346.5508272859568
 20
218.21930943702677
  0
LWPOLYLINE
  5
70
330
17
100
AcDbEntity
  8
0
 62
0
100
AcDbPolyline
 90
5
 70
0
 10
334.85755012693363
 20
220.8556851798154
 10
327.1102800342966
 20
222.60239097215174
 10
324.59945567072015
 20
210.78989107165816
 10
331.72967746569776
 20
209.1823054884775
 10
334.85755012693363
 20
220.8556851798154
  0
LWPOLYLINE
  5
71
330
17
100
AcDbEntity
  8
0
 62
0
100
AcDbPolyline
 90
5
 70
0
 10
323.13679291883415
 20
223.14754122809916
 10
315.28408837538495
 20
224.1960008890347
 10
313.4040760254906
 20
212.32607006728136
 10
320.63150629897314
 20
211.36109436342755
 10
323.13679291883415
 20
223.14754122809916
  0
LWPOLYLINE
  5
72
330
17
100
AcDbEntity
  8
0
 62
0
100
AcDbPolyline
 90
5
 70
0
 10
311.3180959828662
 20
224.7255232995782
 10
303.49046650098876
 20
225.7706350451035
 10
302.2341343515348
 20
213.81743309964136
 10
309.4380836329719
 20
212.85559247782487
 10
311.3180959828662
 20
224.7255232995782
  0
LWPOLYLINE
  5
73
330
17
100
AcDbEntity
  8
0
 62
0
100
AcDbPolyline
 90
5
 70
0
 10
299.496576312004
 20
226.03839713098105
 10
291.6171748270151
 20
226.3868131283045
 10
290.9899909652502
 20
214.41943213363066
 10
298.2416712567967
 20
214.09877308029223
 10
299.496576312004
 20
226.03839713098105
  0
LWPOLYLINE
  5
74
330
17
100
AcDbEntity
  8
0
 62
0
100
AcDbPolyline
 90
5
 70
0
 10
287.6209462947496
 20
226.5635207059364
 10
279.75000000000006
 20
226.91156282669763
 10
279.75000000000006
 20
214.91644864808612
 10
286.9937624329847
 20
214.5961397112626
 10
287.6209462947496
 20
226.5635207059364
  0
LWPOLYLINE
  5
75
330
17
100
AcDbEntity
  8
0
 62
0
100
AcDbPolyline
 90
5
 70
0
 10
275.75000000000006
 20
226.91156282669763
 10
267.87905370525044
 20
226.56352070593644
 10
268.5062375670154
 20
214.5961397112626
 10
275.75000000000006
 20
214.91644864808612
 10
275.75000000000006
 20
226.91156282669763
  0
LWPOLYLINE
  5
76
330
17
100
AcDbEntity
  8
0
 62
0
100
AcDbPolyline
 90
5
 70
0
 10
263.88282517298495
 20
226.3868131283045
 10
256.003423687996
 20
226.03839713098105
 10
257.2583287432033
 20
214.09877308029223
 10
264.5100090347499
 20
214.41943213363066
 10
263.88282517298495
 20
226.3868131283045
  0
LWPOLYLINE
  5
77
330
17
100
AcDbEntity
  8
0
 62
0
100
AcDbPolyline
 90
5
 70
0
 10
252.00953349901124
 20
225.7706350451035
 10
244.18190401713377
 20
224.7255232995782
 10
246.06191636702815
 20
212.85559247782487
 10
253.26586564846522
 20
213.8174330996414
 10
252.00953349901124
 20
225.7706350451035
  0
LWPOLYLINE
  5
78
330
17
100
AcDbEntity
  8
0
 62
0
100
AcDbPolyline
 90
5
 70
0
 10
240.21591162461502
 20
224.19600088903468
 10
232.36320708116577
 20
223.14754122809913
 10
234.86849370102678
 20
211.36109436342755
 10
242.0959239745094
 20
212.32607006728136
 10
240.21591162461502
 20
224.19600088903468
  0
LWPOLYLINE
  5
79
330
17
100
AcDbEntity
  8
0
 62
0
100
AcDbPolyline
 90
5
 70
0
 10
228.38971996570342
 20
222.6023909721517
 10
220.6424498730664
 20
220.85568517981537
 10
223.77032253430224
 20
209.1823054884775
 10
230.9005443292798
 20
210.7898910716582
 10
228.38971996570342
 20
222.6023909721517
  0
LWPOLYLINE
  5
7A
330
17
100
AcDbEntity
  8
0
 62
0
100
AcDbPolyline
 90
5
 70
0
 10
216.7372653245166
 20
219.97521910731106
 10
208.94917271404324
 20
218.21930943702677
 10
212.69669056186174
 20
206.68563545152534
 10
219.86513798575245
 20
208.3018394159732
 10
216.7372653245166
 20
219.97521910731106
  0
LWPOLYLINE
  5
7B
330
17
100
AcDbEntity
  8
0
 62
0
100
AcDbPolyline
 90
7
 70
0
 10
208.49092397281595
 20
205.71674071926014
 10
208.7799973395784
 20
205.79570579191352
 10
205.03040000885508
 20
217.33577976771693
 10
204.54107525045634
 20
217.2254562112114
 10
197.39116619612736
 20
214.9227754132659
 10
201.7574641162346
 20
203.54818044839922
 10
208.49092397281595
 20
205.71674071926014
  0
LWPOLYLINE
  5
7C
330
17
100
AcDbEntity
  8
0
 62
0
100
AcDbPolyline
 90
5
 70
0
 10
193.577994308409
 20
213.6947153612575
 10
185.89754819385706
 20
211.22117120101035
 10
190.8743102137374
 20
200.04318068938935
 10
197.94429222851622
 20
202.32012039639082
 10
193.577994308409
 20
213.6947153612575
  0
LWPOLYLINE
  5
7D
330
17
100
AcDbEntity
  8
0
 62
0
100
AcDbPolyline
 90
8
 70
0
 10
186.50765554185253
 20
198.6151783335457
 10
186.93337041795533
 20
198.77397204286646
 10
187.04486594535106
 20
198.80987999750477
 10
182.06810392547075
 20
209.9878705091258
 10
181.23838640782134
 20
209.72065388006203
 10
174.5807528168094
 20
206.8864268959581
 10
180.16989204695213
 20
195.917123526149
 10
186.50765554185253
 20
198.6151783335457
  0
LWPOLYLINE
  5
7E
330
17
100
AcDbEntity
  8
0
 62
0
100
AcDbPolyline
 90
5
 70
0
 10
170.89165253451128
 20
205.3159368075173
 10
163.36911195100936
 20
202.1135095156997
 10
169.55545812313568
 20
191.39844363236764
 10
176.48079176465401
 20
194.3466334377082
 10
170.89165253451128
 20
205.3159368075173
  0
LWPOLYLINE
  5
7F
330
17
100
AcDbEntity
  8
0
 62
0
100
AcDbPolyline
 90
8
 70
0
 10
165.39440963466134
 20
189.60392457748753
 10
165.8099544780782
 20
189.80394201933007
 10
165.84791243566275
 20
189.82010113445364
 10
159.66156626353643
 20
200.53516701778568
 10
158.8651571626938
 20
200.19612700707657
 10
152.3932726278234
 20
196.70458937642482
 10
159.1812757662956
 20
186.25198116922797
 10
165.39440963466134
 20
189.60392457748753
  0
LWPOLYLINE
  5
80
330
17
100
AcDbEntity
  8
0
 62
0
100
AcDbPolyline
 90
5
 70
0
 10
148.86126260687973
 20
194.7990940244113
 10
141.5557953470662
 20
190.85784419065726
 10
148.9230238251494
 20
180.71772410944322
 10
155.64926574535198
 20
184.34648581721444
 10
148.86126260687973
 20
194.7990940244113
  0
LWPOLYLINE
  5
81
330
17
100
AcDbEntity
  8
0
 62
0
100
AcDbPolyline
 90
7
 70
0
 10
145.3538588913103
 20
178.76716955224833
 10
145.38312046790736
 20
178.78477662375
 10
138.0037859123555
 20
188.94155929111975
 10
137.6368539431554
 20
188.74360199267778
 10
131.04522272640565
 20
184.34334376340124
 10
138.99704336647153
 20
174.52366306570715
 10
145.3538588913103
 20
178.76716955224833
  0
LWPOLYLINE
  5
82
330
17
100
AcDbEntity
  8
0
 62
0
100
AcDbPolyline
 90
5
 70
0
 10
127.7042335232824
 20
182.1130589140895
 10
120.68497409523296
 20
177.427336511535
 10
129.19258641470185
 20
167.97867579821784
 10
135.65605416334824
 20
172.2933782163954
 10
127.7042335232824
 20
182.1130589140895
  0
LWPOLYLINE
  5
83
330
17
100
AcDbEntity
  8
0
 62
0
100
AcDbPolyline
 90
5
 70
0
 10
117.35659131333158
 20
175.1459738837982
 10
110.7896911774173
 20
169.78873594732895
 10
119.85630100860416
 20
160.72212611614208
 10
125.90260463995243
 20
165.65466453135602
 10
117.35659131333158
 20
175.1459738837982
  0
LWPOLYLINE
  5
84
330
17
100
AcDbEntity
  8
0
 62
0
100
AcDbPolyline
 90
5
 70
0
 10
107.67432999035805
 20
167.24724288489577
 10
101.02057802941835
 20
161.81915174794412
 10
110.61334954545919
 20
153.18178147887582
 10
116.74093982154493
 20
158.1806330537089
 10
107.67432999035805
 20
167.24724288489577
  0
LWPOLYLINE
  5
85
330
17
100
AcDbEntity
  8
0
 62
0
100
AcDbPolyline
 90
5
 70
0
 10
98.02804934806959
 20
159.1311057568823
 10
91.91470924211808
 20
153.0599703916708
 10
102.03021115493638
 20
144.86859845491696
 10
107.65943891080444
 20
150.45896364238783
 10
98.02804934806959
 20
159.1311057568823
  0
LWPOLYLINE
  5
86
330
17
100
AcDbEntity
  8
0
 62
0
100
AcDbPolyline
 90
7
 70
0
 10
93.87566478321965
 20
136.77034872456255
 10
99.1753137978208
 20
142.03341048754712
 10
89.0598118850025
 20
150.22478242430094
 10
82.86013780896711
 20
144.06790911388904
 10
93.49182644387362
 20
136.34353517611822
 10
93.54012149568507
 20
136.4021475426002
 10
93.87566478321965
 20
136.77034872456255
  0
LWPOLYLINE
  5
87
330
17
100
AcDbEntity
  8
0
 62
0
100
AcDbPolyline
 90
5
 70
0
 10
80.30483185458822
 20
140.98017565181152
 10
74.73701468254336
 20
134.22290076852303
 10
85.81611188402763
 20
127.02805092010585
 10
90.94346046984299
 20
133.25075952317414
 10
80.30483185458822
 20
140.98017565181152
  0
LWPOLYLINE
  5
88
330
17
100
AcDbEntity
  8
0
 62
0
100
AcDbPolyline
 90
8
 70
0
 10
79.59811618292221
 20
119.44106302168781
 10
79.90101512343838
 20
119.8493068023511
 10
83.25607180617685
 20
123.9211072142083
 10
72.17697460469259
 20
131.11595706262548
 10
68.05585818613497
 20
126.11444289544964
 10
66.73888178481614
 20
124.13672698029882
 10
78.28568708351405
 20
117.47017583281539
 10
79.59811618292221
 20
119.44106302168781
  0
LWPOLYLINE
  5
89
330
17
100
AcDbEntity
  8
0
 62
0
100
AcDbPolyline
 90
5
 70
0
 10
64.51729954856715
 20
120.80055592890706
 10
59.590766162393976
 20
113.40233415773518
 10
71.52696406029132
 20
107.32053755855458
 10
76.06410484726506
 20
114.13400478142363
 10
64.51729954856715
 20
120.80055592890706
  0
LWPOLYLINE
  5
8A
330
17
100
AcDbEntity
  8
0
 62
0
100
AcDbPolyline
 90
8
 70
0
 10
67.56280558878429
 20
101.31909359004766
 10
67.82724124411438
 20
101.7646288210309
 10
69.29485037812593
 20
103.9685513352451
 10
57.35865248022857
 20
110.0503479344257
 10
55.33210289513792
 20
107.00705925950146
 10
52.86609075557166
 20
102.31403981695304
 10
65.20006179119142
 20
96.8226021081305
 10
67.56280558878429
 20
101.31909359004766
  0
LWPOLYLINE
  5
8B
330
17
100
AcDbEntity
  8
0
 62
0
100
AcDbPolyline
 90
5
 70
0
 10
51.00153847589733
 20
98.7656468630973
 10
46.81132850608764
 20
90.79134027264561
 10
59.47625196783983
 20
85.92973164920271
 10
63.33550951151708
 20
93.27420915427476
 10
51.00153847589733
 20
98.7656468630973
  0
LWPOLYLINE
  5
8C
330
17
100
AcDbEntity
  8
0
 62
0
100
AcDbPolyline
 90
7
 70
0
 10
57.553323455318925
 20
82.2105450115608
 10
57.620855035810806
 20
82.35737182757556
 10
44.93783308879179
 20
87.22592780860103
 10
44.75035353925101
 20
86.86913914687536
 10
41.56076312301207
 20
78.84545954802944
 10
54.53928542653865
 20
74.62848202361558
 10
57.553323455318925
 20
82.2105450115608
  0
LWPOLYLINE
  5
8D
330
17
100
AcDbEntity
  8
0
 62
0
100
AcDbPolyline
 90
5
 70
0
 10
40.08009252789321
 20
75.12070969106337
 10
36.71505245284213
 20
66.65567190375907
 10
49.95920593606959
 20
63.10691167349444
 10
53.058614831419774
 20
70.90373216664952
 10
40.08009252789321
 20
75.12070969106337
  0
LWPOLYLINE
  5
8E
330
17
100
AcDbEntity
  8
0
 62
0
100
AcDbPolyline
 90
5
 70
0
 10
35.558147278107555
 20
62.824558989408274
 10
33.114476126095404
 20
54.04356700671182
 10
46.57528367970615
 20
51.18238403581446
 10
48.82585208800494
 20
59.269488200181755
 10
35.558147278107555
 20
62.824558989408274
  0
LWPOLYLINE
  5
8F
330
17
100
AcDbEntity
  8
0
 62
0
100
AcDbPolyline
 90
8
 70
0
 10
43.98953239402658
 20
41.782007140863755
 10
44.10603476500386
 20
42.309481924812644
 10
45.50080884125152
 20
47.321408333617214
 10
32.04000128764076
 20
50.182591304514574
 10
30.398894638146515
 20
44.285503097661135
 10
29.903575226314313
 20
41.279947525793524
 10
43.55057880018518
 20
39.11847450263904
 10
43.98953239402658
 20
41.782007140863755
  0
LWPOLYLINE
  5
90
330
17
100
AcDbEntity
  8
0
 62
0
100
AcDbPolyline
 90
5
 70
0
 10
29.25313089403373
 20
37.333107284172044
 10
27.762123246531687
 20
28.285801170990453
 10
41.5269160648684
 20
26.8390631482287
 10
42.90013446790459
 20
35.17163426101756
 10
29.25313089403373
 20
37.333107284172044
  0
LWPOLYLINE
  5
91
330
17
100
AcDbEntity
  8
0
 62
0
100
AcDbPolyline
 90
8
 70
0
 10
40.57088224400347
 20
20.85609354582845
 10
40.629997585013996
 20
21.396638986684525
 10
40.87536556016235
 20
22.885510747508725
 10
27.110572741825642
 20
24.33224877027048
 10
26.767397487451966
 20
22.249890854810253
 10
26.38132786516689
 20
15.17641857990932
 10
40.221297952025324
 20
14.451096482313352
 10
40.57088224400347
 20
20.85609354582845
  0
LWPOLYLINE
  5
92
330
17
100
AcDbEntity
  8
0
 62
0
100
AcDbPolyline
 90
5
 70
0
 10
26.163332092523536
 20
11.182353870254964
 10
25.825899650469406
 20
5.0
 10
39.705457766710175
 20
5.0
 10
40.00330217938197
 20
10.457031772658995
 10
26.163332092523536
 20
11.182353870254964
  0
LWPOLYLINE
  5
93
330
17
100
AcDbEntity
  8
0
 62
0
100
AcDbPolyline
 90
5
 70
0
 10
7.3302026195736225
 20
12.16935636288226
 10
6.93889965046941
 20
5.0
 10
21.819946143462012
 20
5.0
 10
22.16880458365034
 20
11.391698186280028
 10
7.3302026195736225
 20
12.16935636288226
  0
LWPOLYLINE
  5
94
330
17
100
AcDbEntity
  8
0
 62
0
100
AcDbPolyline
 90
8
 70
0
 10
7.548198392216983
 20
16.163421072536618
 10
22.386800356293698
 20
15.385762895934384
 10
22.773342146566936
 20
22.467886116106836
 10
22.820634419375356
 20
22.900322468791693
 10
23.125641942401742
 20
24.75108187453057
 10
8.364616424209077
 20
26.30252817335734
 10
7.9713435547941955
 20
23.916182240412784
 10
7.548198392216983
 20
16.163421072536618
  0
LWPOLYLINE
  5
95
330
17
100
AcDbEntity
  8
0
 62
0
100
AcDbPolyline
 90
5
 70
0
 10
10.667589052725173
 20
40.27676792683595
 10
9.016166928915117
 20
30.256080574077316
 10
23.777192447107787
 20
28.70463427525054
 10
25.302300280083568
 20
37.95885737977959
 10
10.667589052725173
 20
40.27676792683595
  0
LWPOLYLINE
  5
96
330
17
100
AcDbEntity
  8
0
 62
0
100
AcDbPolyline
 90
8
 70
0
 10
11.318033385005755
 20
44.22360816845743
 10
25.95274461236415
 20
41.90569762140107
 10
26.452131570069906
 20
44.935934711642574
 10
26.545333466851734
 20
45.357914538801694
 10
28.119882777284456
 20
51.01583821641492
 10
13.67904559608462
 20
54.085332915287374
 10
11.874803047170694
 20
47.60203857193532
 10
11.318033385005755
 20
44.22360816845743
  0
LWPOLYLINE
  5
97
330
17
100
AcDbEntity
  8
0
 62
0
100
AcDbPolyline
 90
5
 70
0
 10
17.460589670738994
 20
67.67378493527839
 10
14.75352043453926
 20
57.94630861748461
 10
29.194357615739094
 20
54.87681391861217
 10
31.694265040130627
 20
63.859883114723154
 10
17.460589670738994
 20
67.67378493527839
  0
LWPOLYLINE
  5
98
330
17
100
AcDbEntity
  8
0
 62
0
100
AcDbPolyline
 90
5
 70
0
 10
5.0
 20
86.51892269904869
 10
5.0
 20
75.15369459640883
 10
14.718166227570212
 20
72.54971980381997
 10
18.524386544541997
 20
82.1245831312597
 10
5.0
 20
86.51892269904869
  0
LWPOLYLINE
  5
99
330
17
100
AcDbEntity
  8
0
 62
0
100
AcDbPolyline
 90
5
 70
0
 10
22.33646818001961
 20
80.88596272424527
 10
18.608269668478854
 20
71.50736972835497
 10
32.82494901193349
 20
67.69802197922408
 10
36.268010892415596
 20
76.3593300980778
 10
22.33646818001961
 20
80.88596272424527
  0
LWPOLYLINE
  5
9A
330
17
100
AcDbEntity
  8
0
 62
0
100
AcDbPolyline
 90
8
 70
0
 10
6.073514427264899
 20
90.37596561439321
 10
20.005057139660863
 20
85.84933298822575
 10
23.583966557132108
 20
94.85237686899544
 10
23.7601254278295
 20
95.23538058235239
 10
23.812556758641364
 20
95.33516162193074
 10
10.207594089289383
 20
100.5576174886944
 10
9.851728078169671
 20
99.8803758472884
 10
6.073514427264899
 20
90.37596561439321
  0
LWPOLYLINE
  5
9B
330
17
100
AcDbEntity
  8
0
 62
0
100
AcDbPolyline
 90
7
 70
0
 10
37.74868148753446
 20
80.08407995504386
 10
41.03327928767279
 20
88.34675851878892
 10
41.18104252559445
 20
88.66802459297294
 10
27.57271358904058
 20
93.89177264864772
 10
27.301040808710326
 20
93.37475749708187
 10
23.817138775138478
 20
84.61071258121133
 10
37.74868148753446
 20
80.08407995504386
  0
LWPOLYLINE
  5
9C
330
17
100
AcDbEntity
  8
0
 62
0
100
AcDbPolyline
 90
5
 70
0
 10
17.17884991613951
 20
113.82447802415834
 10
12.081089506585222
 20
104.12302995273896
 10
25.686052175937206
 20
98.90057408597531
 10
30.428295600611072
 20
107.92544474099421
 10
17.17884991613951
 20
113.82447802415834
  0
LWPOLYLINE
  5
9D
330
17
100
AcDbEntity
  8
0
 62
0
100
AcDbPolyline
 90
5
 70
0
 10
34.0901941960184
 20
106.29506244362783
 10
29.446209006336417
 20
97.45718511269229
 10
43.051171675688416
 20
92.23472924592862
 10
47.33963988049
 20
100.39602916046368
 10
34.0901941960184
 20
106.29506244362783
  0
LWPOLYLINE
  5
9E
330
17
100
AcDbEntity
  8
0
 62
0
100
AcDbPolyline
 90
9
 70
0
 10
5.0
 20
130.3602110126341
 10
5.0
 20
123.62539647491526
 10
15.38150360040651
 20
119.00325327538046
 10
18.47749367476235
 20
124.8951713968559
 10
18.689042199026424
 20
125.25159958164251
 10
20.927417687068118
 20
128.6129892180479
 10
8.094159860787496
 20
135.1518606804614
 10
5.361562135895781
 20
131.04829283762734
 10
5.0
 20
130.3602110126341
  0
LWPOLYLINE
  5
9F
330
17
100
AcDbEntity
  8
0
 62
0
100
AcDbPolyline
 90
8
 70
0
 10
19.04340219581384
 20
117.37287097801406
 10
32.29284788028541
 20
111.47383769484995
 10
35.1343405945097
 20
116.88142687081394
 10
35.345889118773776
 20
117.23785505560055
 10
37.348915226881786
 20
120.24581830270265
 10
24.5156574006012
 20
126.78468976511617
 10
22.018409055643176
 20
123.03454831158538
 10
19.04340219581384
 20
117.37287097801406
  0
LWPOLYLINE
  5
A0
330
17
100
AcDbEntity
  8
0
 62
0
100
AcDbPolyline
 90
8
 70
0
 10
35.95474647569274
 20
109.84345539748357
 10
49.204192160164325
 20
103.94442211431941
 10
51.791187514257096
 20
108.86768234477198
 10
52.00273603852117
 20
109.22411052955859
 10
53.77041276669549
 20
111.8786473873574
 10
40.93715494041487
 20
118.41751884977094
 10
38.67525597539053
 20
115.02080378554342
 10
35.95474647569274
 20
109.84345539748357
  0
LWPOLYLINE
  5
A1
330
17
100
AcDbEntity
  8
0
 62
0
100
AcDbPolyline
 90
5
 70
0
 10
16.859954279850292
 20
148.31553704866366
 10
10.326273542952887
 20
138.50384690377086
 10
23.15953136923351
 20
131.96497544135735
 10
29.274554870056413
 20
141.1479640560265
 10
16.859954279850292
 20
148.31553704866366
  0
LWPOLYLINE
  5
A2
330
17
100
AcDbEntity
  8
0
 62
0
100
AcDbPolyline
 90
5
 70
0
 10
32.74573603608924
 20
139.14387667541146
 10
26.747771082766587
 20
130.13667598842562
 10
39.581028909047184
 20
123.59780452601211
 10
45.160336626295354
 20
131.97630368277427
 10
32.74573603608924
 20
139.14387667541146
  0
LWPOLYLINE
  5
A3
330
17
100
AcDbEntity
  8
0
 62
0
100
AcDbPolyline
 90
5
 70
0
 10
48.6315177923282
 20
129.97221630215927
 10
43.16926862258027
 20
121.76950507308041
 10
56.002526448860884
 20
115.23063361066689
 10
61.04611838253431
 20
122.80464330952208
 10
48.6315177923282
 20
129.97221630215927
  0
LWPOLYLINE
  5
A4
330
17
100
AcDbEntity
  8
0
 62
0
100
AcDbPolyline
 90
9
 70
0
 10
5.0
 20
163.5328206113156
 10
5.0
 20
159.7816869982289
 10
15.610355350066452
 20
153.65579548067046
 10
17.61459162684369
 20
156.66557604950646
 10
17.85691077925663
 20
156.9921710740371
 10
22.90224291203736
 20
163.11534197660583
 10
10.97906991643718
 20
170.8583410549561
 10
5.239991915902266
 20
163.89321874078257
 10
5.0
 20
163.5328206113156
  0
LWPOLYLINE
  5
A5
330
17
100
AcDbEntity
  8
0
 62
0
100
AcDbPolyline
 90
8
 70
0
 10
19.081536516099284
 20
151.65170810005543
 10
31.496137106305405
 20
144.48413510741824
 10
33.31855819440187
 20
147.22088208817323
 10
33.560877346814806
 20
147.54747711270386
 10
38.201719084101214
 20
153.17974597852316
 10
26.278546088501034
 20
160.92274505687345
 10
20.94395848346044
 20
154.44852477944934
 10
19.081536516099284
 20
151.65170810005543
  0
LWPOLYLINE
  5
A6
330
17
100
AcDbEntity
  8
0
 62
0
100
AcDbPolyline
 90
8
 70
0
 10
34.96731827233824
 20
142.48004772680324
 10
47.38191886254435
 20
135.31247473416605
 10
49.02252476196005
 20
137.77618812684
 10
49.26484391437299
 20
138.10278315137063
 10
53.50119525616506
 20
143.2441499804405
 10
41.578022260564886
 20
150.98714905879078
 10
36.64792505101862
 20
145.0038308181161
 10
34.96731827233824
 20
142.48004772680324
  0
LWPOLYLINE
  5
A7
330
17
100
AcDbEntity
  8
0
 62
0
100
AcDbPolyline
 90
8
 70
0
 10
50.85310002857719
 20
133.308387353551
 10
63.26770061878331
 20
126.14081436091385
 10
64.72649132951823
 20
128.33149416550677
 10
64.96881048193116
 20
128.65808919003737
 10
68.80067142822892
 20
133.30855398235786
 10
56.87749843262874
 20
141.05155306070813
 10
52.3518916185768
 20
135.55913685678289
 10
50.85310002857719
 20
133.308387353551
  0
LWPOLYLINE
  5
A8
330
17
100
AcDbEntity
  8
0
 62
0
100
AcDbPolyline
 90
12
 70
0
 10
24.856144565776578
 20
181.26600508920345
 10
24.71396736825998
 20
181.18078735651645
 10
23.8268343236509
 20
180.76120467488713
 10
22.902846772544624
 20
180.43059664267793
 10
21.950903220161283
 20
180.1921471959677
 10
20.980171403295607
 20
180.04815273327804
 10
20.0
 20
180.0
 10
18.51155698175876
 20
180.0
 10
13.539109994287951
 20
173.96528476085362
 10
25.46228298988813
 20
166.22228568250335
 10
32.9891019660325
 20
175.3570656594616
 10
24.856144565776578
 20
181.26600508920345
  0
LWPOLYLINE
  5
A9
330
17
100
AcDbEntity
  8
0
 62
0
100
AcDbPolyline
 90
5
 70
0
 10
36.23117439609385
 20
173.00156216014835
 10
28.83858616635181
 20
164.02968876277097
 10
40.761759161952
 20
156.2866896844207
 10
47.68032111886397
 20
164.68327015668265
 10
36.23117439609385
 20
173.00156216014835
  0
LWPOLYLINE
  5
AA
330
17
100
AcDbEntity
  8
0
 62
0
100
AcDbPolyline
 90
5
 70
0
 10
50.92239354892532
 20
162.32776665736938
 10
44.138062338415665
 20
154.09409276468833
 10
56.06123533401585
 20
146.35109368633806
 10
62.371540271695416
 20
154.0094746539037
 10
50.92239354892532
 20
162.32776665736938
  0
LWPOLYLINE
  5
AB
330
17
100
AcDbEntity
  8
0
 62
0
100
AcDbPolyline
 90
5
 70
0
 10
65.61361270175676
 20
151.65397115459047
 10
59.43753851047951
 20
144.15849676660568
 10
71.3607115060797
 20
136.41549768825539
 10
77.06275942452686
 20
143.33567915112476
 10
65.61361270175676
 20
151.65397115459047
  0
LWPOLYLINE
  5
AC
330
17
100
AcDbEntity
  8
0
 62
0
100
AcDbPolyline
 90
7
 70
0
 10
20.0
 20
204.7
 10
20.980171403295607
 20
204.65184726672194
 10
21.950903220161283
 20
204.5078528040323
 10
22.059347095744943
 20
204.480689027286
 10
18.939402844925965
 20
207.00717006605774
 10
16.616194013691107
 20
204.7
 10
20.0
 20
204.7
  0
LWPOLYLINE
  5
AD
330
17
100
AcDbEntity
  8
0
 62
0
100
AcDbPolyline
 90
15
 70
0
 10
30.0
 20
190.0
 10
29.95184726672197
 20
189.0198285967044
 10
29.807852804032304
 20
188.04909677983872
 10
29.569403357322088
 20
187.09715322745538
 10
29.238795325112868
 20
186.1731656763491
 10
28.819212643483553
 20
185.28603263174003
 10
28.314696123025453
 20
184.44429766980397
 10
27.9547701784977
 20
183.95899371319402
 10
35.537467940063145
 20
178.44984131240568
 10
35.91248969108794
 20
178.90497929208112
 10
36.1809243211156
 20
179.199540237651
 10
43.860702544798976
 20
186.8262994826331
 10
32.96348465294128
 20
195.6506925377064
 10
30.0
 20
192.707666929951
 10
30.0
 20
190.0
  0
LWPOLYLINE
  5
AE
330
17
100
AcDbEntity
  8
0
 62
0
100
AcDbPolyline
 90
8
 70
0
 10
38.779540370124494
 20
176.09433781309244
 10
50.22868709289462
 20
167.77604580962674
 10
50.512338123749984
 20
168.12029346129916
 10
50.78077275377764
 20
168.41485440686904
 10
57.88478435281429
 20
175.4698219542817
 10
46.98756646095657
 20
184.294215009355
 10
38.99953739529175
 20
176.36133299749338
 10
38.779540370124494
 20
176.09433781309244
  0
LWPOLYLINE
  5
AF
330
17
100
AcDbEntity
  8
0
 62
0
100
AcDbPolyline
 90
8
 70
0
 10
53.47075952295596
 20
165.42054231031346
 10
64.91990624572605
 20
157.1022503068478
 10
65.11218655641198
 20
157.3356076305172
 10
65.38062118643964
 20
157.63016857608707
 10
71.9088661608296
 20
164.11334442593034
 10
61.0116482689719
 20
172.93773748100367
 10
53.599385827953796
 20
165.5766471667114
 10
53.47075952295596
 20
165.42054231031346
  0
LWPOLYLINE
  5
B0
330
17
100
AcDbEntity
  8
0
 62
0
100
AcDbPolyline
 90
8
 70
0
 10
68.1619786757874
 20
154.74674680753452
 10
79.61112539855749
 20
146.42845480406885
 10
79.71203498907398
 20
146.55092179973522
 10
79.98046961910164
 20
146.8454827453051
 10
85.9329479688449
 20
152.756866897579
 10
75.0357300769872
 20
161.5812599526523
 10
68.1992342606158
 20
154.79196133592944
 10
68.1619786757874
 20
154.74674680753452
  0
LWPOLYLINE
  5
B1
330
17
100
AcDbEntity
  8
0
 62
0
100
AcDbPolyline
 90
18
 70
0
 10
28.819212643483553
 20
215.28603263174003
 10
28.314696123025453
 20
214.44429766980397
 10
27.73010453362737
 20
213.65606715836356
 10
27.071067811865476
 20
212.92893218813452
 10
26.343932841636455
 20
212.26989546637262
 10
25.555702330196024
 20
211.68530387697456
 10
24.71396736825998
 20
211.18078735651645
 10
23.8268343236509
 20
210.76120467488713
 10
22.902846772544624
 20
210.43059664267793
 10
22.212504144589882
 20
210.25767481631107
 10
21.794300202041548
 20
209.84235803342762
 10
32.69151809389925
 20
201.01796497835429
 10
41.639188962012426
 20
209.90386370183444
 10
31.263495143647678
 20
219.24618037828617
 10
29.724992236848703
 20
217.71829885279166
 10
29.569403357322088
 20
217.09715322745538
 10
29.238795325112868
 20
216.1731656763491
 10
28.819212643483553
 20
215.28603263174003
  0
LWPOLYLINE
  5
B2
330
17
100
AcDbEntity
  8
0
 62
0
100
AcDbPolyline
 90
5
 70
0
 10
44.61640598453207
 20
207.2231654540054
 10
35.81838201005686
 20
198.48588050507624
 10
46.715599901914544
 20
189.66148745000294
 10
54.992099802896796
 20
197.8808487775537
 10
44.61640598453207
 20
207.2231654540054
  0
LWPOLYLINE
  5
B3
330
17
100
AcDbEntity
  8
0
 62
0
100
AcDbPolyline
 90
5
 70
0
 10
57.969316825416435
 20
195.20015052972462
 10
49.84246381807216
 20
187.1294029767249
 10
60.73968170992986
 20
178.30500992165156
 10
68.3450106437812
 20
185.8578338532729
 10
57.969316825416435
 20
195.20015052972462
  0
LWPOLYLINE
  5
B4
330
17
100
AcDbEntity
  8
0
 62
0
100
AcDbPolyline
 90
5
 70
0
 10
71.32222766630083
 20
183.17713560544385
 10
63.86654562608748
 20
175.7729254483735
 10
74.76376351794518
 20
166.94853239330018
 10
81.69792148466559
 20
173.83481892899212
 10
71.32222766630083
 20
183.17713560544385
  0
LWPOLYLINE
  5
B5
330
17
100
AcDbEntity
  8
0
 62
0
100
AcDbPolyline
 90
5
 70
0
 10
84.67513850718522
 20
171.15412068116305
 10
77.8906274341028
 20
164.41644792002214
 10
88.78784532596048
 20
155.59205486494884
 10
95.05083232554995
 20
161.81180400471135
 10
84.67513850718522
 20
171.15412068116305
  0
LWPOLYLINE
  5
B6
330
17
100
AcDbEntity
  8
0
 62
0
100
AcDbPolyline
 90
19
 70
0
 10
23.8268343236509
 20
233.93879532511286
 10
24.71396736825998
 20
233.51921264348354
 10
25.555702330196024
 20
233.01469612302543
 10
26.343932841636455
 20
232.43010453362737
 10
27.071067811865476
 20
231.77106781186546
 10
27.73010453362737
 20
231.04393284163643
 10
28.314696123025453
 20
230.25570233019602
 10
28.81921264348355
 20
229.41396736825996
 10
29.238795325112868
 20
228.5268343236509
 10
29.569403357322088
 20
227.6028467725446
 10
29.807852804032304
 20
226.65090322016127
 10
29.929667524578914
 20
225.82969507931736
 10
31.249239563696314
 20
224.6415470785537
 10
41.72993610892569
 20
233.19163676632814
 10
31.952590252721667
 20
242.96898262253217
 10
21.637861175793702
 20
234.5542882048246
 10
21.950903220161283
 20
234.5078528040323
 10
22.902846772544624
 20
234.26940335732206
 10
23.8268343236509
 20
233.93879532511286
  0
LWPOLYLINE
  5
B7
330
17
100
AcDbEntity
  8
0
 62
0
100
AcDbPolyline
 90
5
 70
0
 10
44.5728802089944
 20
230.34869266625944
 10
34.257167961698784
 20
221.93319618403396
 10
44.60192157724023
 20
212.61873819133572
 10
54.350226065198434
 20
220.57134681005542
 10
44.5728802089944
 20
230.34869266625944
  0
LWPOLYLINE
  5
B8
330
17
100
AcDbEntity
  8
0
 62
0
100
AcDbPolyline
 90
5
 70
0
 10
57.193170165267134
 20
217.72840270998668
 10
47.60984997524271
 20
209.91038729681597
 10
57.954603590784124
 20
200.5959293041178
 10
66.97051602147116
 20
207.9510568537827
 10
57.193170165267134
 20
217.72840270998668
  0
LWPOLYLINE
  5
B9
330
17
100
AcDbEntity
  8
0
 62
0
100
AcDbPolyline
 90
5
 70
0
 10
69.81346012153986
 20
205.10811275371398
 10
60.9625319887866
 20
197.887578409598
 10
71.30728560432804
 20
188.5731204168998
 10
79.59080597774388
 20
195.33076689750993
 10
69.81346012153986
 20
205.10811275371398
  0
LWPOLYLINE
  5
BA
330
17
100
AcDbEntity
  8
0
 62
0
100
AcDbPolyline
 90
5
 70
0
 10
82.43375007781259
 20
192.48782279744123
 10
74.31521400233052
 20
185.86476952238004
 10
84.65996761787196
 20
176.55031152968184
 10
92.21109593401663
 20
182.7104769412372
 10
82.43375007781259
 20
192.48782279744123
  0
LWPOLYLINE
  5
BB
330
17
100
AcDbEntity
  8
0
 62
0
100
AcDbPolyline
 90
5
 70
0
 10
95.05404003408533
 20
179.8675328411685
 10
87.66789601587443
 20
173.84196063516205
 10
98.01264963141585
 20
164.52750264246387
 10
104.83138589028934
 20
170.09018698496448
 10
95.05404003408533
 20
179.8675328411685
  0
LWPOLYLINE
  5
BC
330
17
100
AcDbEntity
  8
0
 62
0
100
AcDbPolyline
 90
6
 70
0
 10
67.09430902045
 20
230.96789362215029
 10
57.88081903062377
 20
241.20051091010478
 10
57.848987123787154
 20
241.17926144917385
 10
47.688241396053634
 20
232.89018572869261
 10
57.46558725225766
 20
223.1128398724886
 10
67.09430902045
 20
230.96789362215029
  0
LWPOLYLINE
  5
BD
330
17
100
AcDbEntity
  8
0
 62
0
100
AcDbPolyline
 90
5
 70
0
 10
69.77401385151637
 20
227.9917799007197
 10
60.30853135232637
 20
220.26989577241986
 10
70.08587720853038
 20
210.49254991621584
 10
78.98995338590379
 20
217.7564421179199
 10
69.77401385151637
 20
227.9917799007197
  0
LWPOLYLINE
  5
BE
330
17
100
AcDbEntity
  8
0
 62
0
100
AcDbPolyline
 90
5
 70
0
 10
81.66965821697016
 20
214.78032839648935
 10
72.92882130859908
 20
207.64960581614713
 10
82.70616716480313
 20
197.8722599599431
 10
90.88559775135761
 20
204.54499061368952
 10
81.66965821697016
 20
214.78032839648935
  0
LWPOLYLINE
  5
BF
330
17
100
AcDbEntity
  8
0
 62
0
100
AcDbPolyline
 90
5
 70
0
 10
93.56530258242397
 20
201.56887689225897
 10
85.54911126487183
 20
195.0293158598744
 10
95.32645712107585
 20
185.25197000367038
 10
102.7812421168114
 20
191.33353910945914
 10
93.56530258242397
 20
201.56887689225897
  0
LWPOLYLINE
  5
C0
330
17
100
AcDbEntity
  8
0
 62
0
100
AcDbPolyline
 90
5
 70
0
 10
105.46094694787777
 20
188.3574253880286
 10
98.16940122114457
 20
182.40902590360167
 10
107.94674707734859
 20
172.63168004739765
 10
114.6768864822652
 20
178.12208760522876
 10
105.46094694787777
 20
188.3574253880286
  0
LWPOLYLINE
  5
C1
330
17
100
AcDbEntity
  8
0
 62
0
100
AcDbPolyline
 90
5
 70
0
 10
83.25701551662776
 20
237.00080204640085
 10
73.13112239311471
 20
230.2412393402391
 10
82.31490483379574
 20
220.04161562815017
 10
91.84083292901317
 20
226.40067033163004
 10
83.25701551662776
 20
237.00080204640085
  0
LWPOLYLINE
  5
C2
330
17
100
AcDbEntity
  8
0
 62
0
100
AcDbPolyline
 90
5
 70
0
 10
94.36882001829142
 20
223.278866263323
 10
85.01958531864426
 20
217.03776363306307
 10
94.20336775932529
 20
206.83813992097413
 10
102.95263743067683
 20
212.6787345485522
 10
94.36882001829142
 20
223.278866263323
  0
LWPOLYLINE
  5
C3
330
17
100
AcDbEntity
  8
0
 62
0
100
AcDbPolyline
 90
5
 70
0
 10
105.48062451995509
 20
209.55693048024517
 10
96.90804824417384
 20
203.83428792588705
 10
106.09183068485487
 20
193.63466421379812
 10
114.0644419323405
 20
198.95679876547436
 10
105.48062451995509
 20
209.55693048024517
  0
LWPOLYLINE
  5
C4
330
17
100
AcDbEntity
  8
0
 62
0
100
AcDbPolyline
 90
5
 70
0
 10
116.59242902161874
 20
195.83499469716733
 10
108.7965111697034
 20
190.63081221871104
 10
117.98029361038442
 20
180.43118850662208
 10
125.17624643400414
 20
185.23486298239652
 10
116.59242902161874
 20
195.83499469716733
  0
LWPOLYLINE
  5
C5
330
17
100
AcDbEntity
  8
0
 62
0
100
AcDbPolyline
 90
8
 70
0
 10
86.59800471975103
 20
239.2310868957126
 10
95.18182213213643
 20
228.63095518094178
 10
103.93684893572267
 20
234.47539299507864
 10
104.25847481285963
 20
234.668919471574
 10
104.63379986081024
 20
234.8714047788419
 10
97.27494468368702
 20
245.0
 10
95.23989474609829
 20
245.0
 10
86.59800471975103
 20
239.2310868957126
  0
LWPOLYLINE
  5
C6
330
17
100
AcDbEntity
  8
0
 62
0
100
AcDbPolyline
 90
8
 70
0
 10
97.70980922141469
 20
225.50915111263475
 10
106.2936266338001
 20
214.90901939786394
 10
114.42990392676388
 20
220.34040958593536
 10
114.75152980390085
 20
220.5339360624307
 10
114.96637060660282
 20
220.64984121234366
 10
107.00607367497778
 20
231.60624999061451
 10
106.15768897003173
 20
231.14855222010758
 10
97.70980922141469
 20
225.50915111263475
  0
LWPOLYLINE
  5
C7
330
17
100
AcDbEntity
  8
0
 62
0
100
AcDbPolyline
 90
8
 70
0
 10
108.82161372307834
 20
211.78721532955691
 10
117.40543113546376
 20
201.1870836147861
 10
124.9229589178051
 20
206.2054261767921
 10
125.24458479494207
 20
206.39895265328744
 10
125.29894135239539
 20
206.42827764584538
 10
117.33864442077036
 20
217.38468642411627
 10
116.65074396107295
 20
217.0135688109643
 10
108.82161372307834
 20
211.78721532955691
  0
LWPOLYLINE
  5
C8
330
17
100
AcDbEntity
  8
0
 62
0
100
AcDbPolyline
 90
7
 70
0
 10
128.5172356371274
 20
187.46514783170826
 10
135.4160139088463
 20
192.07044276764884
 10
135.63485028290617
 20
192.20211946225382
 10
127.67121516656294
 20
203.163122857618
 10
127.14379895211417
 20
202.87858540182103
 10
119.93341822474201
 20
198.06527954647908
 10
128.5172356371274
 20
187.46514783170826
  0
LWPOLYLINE
  5
C9
330
17
100
AcDbEntity
  8
0
 62
0
100
AcDbPolyline
 90
5
 70
0
 10
120.30064872355345
 20
238.77858268838185
 10
110.55808310968848
 20
233.52253489015203
 10
118.5183800413135
 20
222.56612611188115
 10
127.63509215988631
 20
227.48453021169303
 10
120.30064872355345
 20
238.77858268838185
  0
LWPOLYLINE
  5
CA
330
17
100
AcDbEntity
  8
0
 62
0
100
AcDbPolyline
 90
5
 70
0
 10
129.82085335132888
 20
224.118753133725
 10
120.89065385548106
 20
219.30097132365376
 10
128.85095078710611
 20
208.3445625453829
 10
137.15529678766174
 20
212.82470065703617
 10
129.82085335132888
 20
224.118753133725
  0
LWPOLYLINE
  5
CB
330
17
100
AcDbEntity
  8
0
 62
0
100
AcDbPolyline
 90
5
 70
0
 10
139.3410579791043
 20
209.45892357906814
 10
131.22322460127364
 20
205.0794077571555
 10
139.18352153289865
 20
194.12299897888465
 10
146.67550141543717
 20
198.16487110237932
 10
139.3410579791043
 20
209.45892357906814
  0
LWPOLYLINE
  5
CC
330
17
100
AcDbEntity
  8
0
 62
0
100
AcDbPolyline
 90
8
 70
0
 10
123.83265874449708
 20
240.68407804039538
 10
131.16710218082997
 20
229.39002556370656
 10
139.1594026686565
 20
233.70181724638704
 10
139.49183854338997
 20
233.86183119986106
 10
140.23720770126474
 20
234.17914295207578
 10
133.98978297178326
 20
245.0
 10
131.8326150785947
 20
245.0
 10
123.83265874449708
 20
240.68407804039538
  0
LWPOLYLINE
  5
CD
330
17
100
AcDbEntity
  8
0
 62
0
100
AcDbPolyline
 90
8
 70
0
 10
133.35286337227254
 20
226.02424848573853
 10
140.68730680860537
 20
214.7301960090497
 10
148.06267283708914
 20
218.70915575246502
 10
148.39510871182262
 20
218.86916970593904
 10
148.94200609411214
 20
219.10198986602015
 10
142.2519694778416
 20
230.68947318989692
 10
141.05861682582858
 20
230.18144999492063
 10
133.35286337227254
 20
226.02424848573853
  0
LWPOLYLINE
  5
CE
330
17
100
AcDbEntity
  8
0
 62
0
100
AcDbPolyline
 90
8
 70
0
 10
142.87306800004797
 20
211.36441893108167
 10
150.20751143638083
 20
200.07036645439285
 10
156.96594300552172
 20
203.71649425854298
 10
157.29837888025523
 20
203.876508212017
 10
157.64680448695955
 20
204.02483677996455
 10
150.95676787068902
 20
215.6123201038413
 10
149.96188699426122
 20
215.1887885009986
 10
142.87306800004797
 20
211.36441893108167
  0
LWPOLYLINE
  5
CF
330
17
100
AcDbEntity
  8
0
 62
0
100
AcDbPolyline
 90
5
 70
0
 10
155.16271372822254
 20
236.18571734918726
 10
145.95951516531454
 20
232.26781568781092
 10
152.64955178158507
 20
220.68033236393418
 10
161.2069189929656
 20
224.32329659917298
 10
155.16271372822254
 20
236.18571734918726
  0
LWPOLYLINE
  5
D0
330
17
100
AcDbEntity
  8
0
 62
0
100
AcDbPolyline
 90
5
 70
0
 10
163.0271831313669
 20
220.75082707835227
 10
154.66431355816195
 20
217.19066260175532
 10
161.35435017443248
 20
205.60317927787855
 10
169.07138839611
 20
208.888406328338
 10
163.0271831313669
 20
220.75082707835227
  0
LWPOLYLINE
  5
D1
330
17
100
AcDbEntity
  8
0
 62
0
100
AcDbPolyline
 90
8
 70
0
 10
158.85181401052063
 20
237.75620743762803
 10
164.89601927526368
 20
225.89378668761378
 10
172.44386613830326
 20
229.10698713769435
 10
172.78443803918552
 20
229.23402210515096
 10
173.40953326571736
 20
229.43533862038
 10
168.02368139696225
 20
241.53215997640473
 10
166.7829024336624
 20
241.13255798544577
 10
158.85181401052063
 20
237.75620743762803
  0
LWPOLYLINE
  5
D2
330
17
100
AcDbEntity
  8
0
 62
0
100
AcDbPolyline
 90
8
 70
0
 10
166.71628341366502
 20
222.32131716679308
 10
172.76048867840808
 20
210.45889641677877
 10
179.67160812538276
 20
213.40103508500246
 10
180.01218002626499
 20
213.52807005245907
 10
180.43174452997158
 20
213.66319388674054
 10
175.0458926612165
 20
225.76001524276526
 10
174.01064442074187
 20
225.42660593275392
 10
166.71628341366502
 20
222.32131716679308
  0
LWPOLYLINE
  5
D3
330
17
100
AcDbEntity
  8
0
 62
0
100
AcDbPolyline
 90
6
 70
0
 10
185.98150910140845
 20
233.4842359041228
 10
181.56102142904908
 20
245.0
 10
178.79145294644965
 20
245.0
 10
171.85312566534859
 20
242.76546066828928
 10
177.23897753410367
 20
230.6686393122646
 10
185.98150910140845
 20
233.4842359041228
  0
LWPOLYLINE
  5
D4
330
17
100
AcDbEntity
  8
0
 62
0
100
AcDbPolyline
 90
5
 70
0
 10
187.41714789558324
 20
229.74426898056788
 10
178.8753369296028
 20
226.99331593464981
 10
184.26118879835792
 20
214.8964945786251
 10
192.1423555142342
 20
217.43468228481245
 10
187.41714789558324
 20
229.74426898056788
  0
LWPOLYLINE
  5
D5
330
17
100
AcDbEntity
  8
0
 62
0
100
AcDbPolyline
 90
7
 70
0
 10
189.79468098912682
 20
234.71229595613121
 10
197.83226216959494
 20
237.300858091056
 10
198.17870839164812
 20
237.39549548847972
 10
198.4898128010321
 20
237.46563734069278
 10
196.04174997446145
 20
245.0
 10
185.8456014035972
 20
245.0
 10
189.79468098912682
 20
234.71229595613121
  0
LWPOLYLINE
  5
D6
330
17
100
AcDbEntity
  8
0
 62
0
100
AcDbPolyline
 90
8
 70
0
 10
191.2303197833016
 20
230.97232903257628
 10
195.95552740195257
 20
218.66274233682083
 10
203.3148688689
 20
221.03287238360844
 10
203.66131509095317
 20
221.12750978103216
 10
203.78903584885308
 20
221.15630580659442
 10
199.73117696103407
 20
233.64511130181526
 10
199.0584685511513
 20
233.49344191865896
 10
191.2303197833016
 20
230.97232903257628
  0
LWPOLYLINE
  5
D7
330
17
100
AcDbEntity
  8
0
 62
0
100
AcDbPolyline
 90
5
 70
0
 10
212.31425906539525
 20
236.4821031885471
 10
203.64994966622226
 20
234.52864097112513
 10
207.70780855404126
 20
222.03983547590428
 10
215.7011584462082
 20
223.84202261922957
 10
212.31425906539525
 20
236.4821031885471
  0
LWPOLYLINE
  5
D8
330
17
100
AcDbEntity
  8
0
 62
0
100
AcDbPolyline
 90
5
 70
0
 10
224.83925833301507
 20
239.30599967184537
 10
216.21944361394503
 20
237.3625692610514
 10
219.606342994758
 20
224.72248869173387
 10
227.55801015041385
 20
226.5152780115118
 10
224.83925833301507
 20
239.30599967184537
  0
LWPOLYLINE
  5
D9
330
17
100
AcDbEntity
  8
0
 62
0
100
AcDbPolyline
 90
19
 70
0
 10
525.9305966426779
 20
227.6028467725446
 10
526.2612046748872
 20
228.5268343236509
 10
526.6807873565165
 20
229.41396736825996
 10
527.1853038769746
 20
230.25570233019602
 10
527.7698954663726
 20
231.04393284163643
 10
528.4289321881346
 20
231.77106781186546
 10
529.1560671583635
 20
232.43010453362737
 10
529.944297669804
 20
233.01469612302543
 10
530.78603263174
 20
233.51921264348354
 10
531.6731656763491
 20
233.93879532511286
 10
532.5971532274554
 20
234.2694033573221
 10
533.5490967798387
 20
234.5078528040323
 10
533.8621388242063
 20
234.5542882048246
 10
523.5474097472784
 20
242.9689826225321
 10
513.7700638910744
 20
233.19163676632806
 10
524.2507604363037
 20
224.64154707855366
 10
525.5703324754211
 20
225.82969507931725
 10
525.6921471959677
 20
226.65090322016127
 10
525.9305966426779
 20
227.6028467725446
  0
LWPOLYLINE
  5
DA
330
17
100
AcDbEntity
  8
0
 62
0
100
AcDbPolyline
 90
5
 70
0
 10
237.5534950297025
 20
241.0058376978594
 10
228.81529598786634
 20
239.8391505833883
 10
231.52910750241503
 20
227.07167122059317
 10
239.5899882286005
 20
228.1479256786918
 10
237.5534950297025
 20
241.0058376978594
  0
LWPOLYLINE
  5
DB
330
17
100
AcDbEntity
  8
0
 62
0
100
AcDbPolyline
 90
6
 70
0
 10
497.6510128762128
 20
241.1792614491739
 10
497.6191809693763
 20
241.20051091010475
 10
488.4056909795501
 20
230.96789362215029
 10
498.03441274774246
 20
223.11283987248854
 10
507.81175860394643
 20
232.89018572869256
 10
497.6510128762128
 20
241.1792614491739
  0
LWPOLYLINE
  5
DC
330
17
100
AcDbEntity
  8
0
 62
0
100
AcDbPolyline
 90
5
 70
0
 10
501.14977393480166
 20
220.57134681005536
 10
510.8980784227598
 20
212.61873819133572
 10
521.2428320383012
 20
221.9331961840339
 10
510.9271197910057
 20
230.34869266625935
 10
501.14977393480166
 20
220.57134681005536
  0
LWPOLYLINE
  5
DD
330
17
100
AcDbEntity
  8
0
 62
0
100
AcDbPolyline
 90
18
 70
0
 10
532.5971532274554
 20
210.43059664267793
 10
531.6731656763491
 20
210.76120467488713
 10
530.78603263174
 20
211.18078735651645
 10
529.944297669804
 20
211.68530387697456
 10
529.1560671583635
 20
212.26989546637265
 10
528.4289321881345
 20
212.92893218813452
 10
527.7698954663726
 20
213.65606715836356
 10
527.1853038769746
 20
214.44429766980397
 10
526.6807873565165
 20
215.28603263174003
 10
526.2612046748872
 20
216.1731656763491
 10
525.9305966426779
 20
217.09715322745538
 10
525.7750077631513
 20
217.71829885279166
 10
524.2365048563523
 20
219.2461803782861
 10
513.8608110379877
 20
209.9038637018344
 10
522.8084819061007
 20
201.0179649783543
 10
533.7056997979585
 20
209.84235803342764
 10
533.2874958554102
 20
210.25767481631104
 10
532.5971532274554
 20
210.43059664267793
  0
LWPOLYLINE
  5
DE
330
17
100
AcDbEntity
  8
0
 62
0
100
AcDbPolyline
 90
7
 70
0
 10
533.5490967798387
 20
204.5078528040323
 10
534.5198285967044
 20
204.65184726672197
 10
535.5
 20
204.7
 10
538.883805986309
 20
204.7
 10
536.560597155074
 20
207.00717006605782
 10
533.4406529042549
 20
204.48068902728593
 10
533.5490967798387
 20
204.5078528040323
  0
LWPOLYLINE
  5
DF
330
17
100
AcDbEntity
  8
0
 62
0
100
AcDbPolyline
 90
5
 70
0
 10
548.1697973804264
 20
12.16935636288227
 10
533.3311954163496
 20
11.391698186280035
 10
533.6800538565379
 20
5.0
 10
548.5611003495306
 20
5.0
 10
548.1697973804264
 20
12.16935636288227
  0
LWPOLYLINE
  5
E0
330
17
100
AcDbEntity
  8
0
 62
0
100
AcDbPolyline
 90
8
 70
0
 10
547.5286564452058
 20
23.916182240412763
 10
547.1353835757909
 20
26.302528173357388
 10
532.3743580575983
 20
24.75108187453062
 10
532.6793655806247
 20
22.90032246879166
 10
532.726657853433
 20
22.46788611610682
 10
533.1131996437063
 20
15.385762895934388
 10
547.9518016077831
 20
16.163421072536625
 10
547.5286564452058
 20
23.916182240412763
  0
LWPOLYLINE
  5
E1
330
17
100
AcDbEntity
  8
0
 62
0
100
AcDbPolyline
 90
5
 70
0
 10
546.4838330710849
 20
30.25608057407735
 10
544.8324109472749
 20
40.27676792683593
 10
530.1976997199165
 20
37.95885737977957
 10
531.7228075528923
 20
28.704634275250584
 10
546.4838330710849
 20
30.25608057407735
  0
LWPOLYLINE
  5
E2
330
17
100
AcDbEntity
  8
0
 62
0
100
AcDbPolyline
 90
8
 70
0
 10
543.6251969528294
 20
47.60203857193541
 10
541.8209544039154
 20
54.085332915287395
 10
527.3801172227156
 20
51.015838216414956
 10
528.9546665331484
 20
45.35791453880179
 10
529.0478684299302
 20
44.935934711642645
 10
529.5472553876359
 20
41.905697621401046
 10
544.1819666149943
 20
44.2236081684574
 10
543.6251969528294
 20
47.60203857193541
  0
LWPOLYLINE
  5
E3
330
17
100
AcDbEntity
  8
0
 62
0
100
AcDbPolyline
 90
5
 70
0
 10
540.7464795654607
 20
57.946308617484625
 10
538.039410329261
 20
67.67378493527843
 10
523.8057349598695
 20
63.85988311472319
 10
526.305642384261
 20
54.876813918612186
 10
540.7464795654607
 20
57.946308617484625
  0
LWPOLYLINE
  5
E4
330
17
100
AcDbEntity
  8
0
 62
0
100
AcDbPolyline
 90
5
 70
0
 10
536.8917303315211
 20
71.50736972835502
 10
533.1635318199803
 20
80.88596272424525
 10
519.2319891075845
 20
76.35933009807779
 10
522.6750509880665
 20
67.69802197922412
 10
536.8917303315211
 20
71.50736972835502
  0
LWPOLYLINE
  5
E5
330
17
100
AcDbEntity
  8
0
 62
0
100
AcDbPolyline
 90
7
 70
0
 10
527.9272864109594
 20
93.89177264864772
 10
514.3189574744056
 20
88.66802459297298
 10
514.4667207123272
 20
88.34675851878909
 10
517.7513185124656
 20
80.08407995504385
 10
531.6828612248615
 20
84.6107125812113
 10
528.1989591912895
 20
93.37475749708206
 10
527.9272864109594
 20
93.89177264864772
  0
LWPOLYLINE
  5
E6
330
17
100
AcDbEntity
  8
0
 62
0
100
AcDbPolyline
 90
5
 70
0
 10
526.0537909936635
 20
97.45718511269231
 10
521.4098058039816
 20
106.29506244362786
 10
508.16036011951
 20
100.39602916046374
 10
512.4488283243116
 20
92.23472924592869
 10
526.0537909936635
 20
97.45718511269231
  0
LWPOLYLINE
  5
E7
330
17
100
AcDbEntity
  8
0
 62
0
100
AcDbPolyline
 90
8
 70
0
 10
516.8247440246095
 20
115.0208037855435
 10
514.5628450595851
 20
118.41751884977091
 10
501.7295872333045
 20
111.87864738735738
 10
503.4972639614788
 20
109.22411052955867
 10
503.7088124857429
 20
108.86768234477208
 10
506.29580783983573
 20
103.94442211431947
 10
519.5452535243072
 20
109.8434553974836
 10
516.8247440246095
 20
115.0208037855435
  0
LWPOLYLINE
  5
E8
330
17
100
AcDbEntity
  8
0
 62
0
100
AcDbPolyline
 90
5
 70
0
 10
512.3307313774197
 20
121.76950507308041
 10
506.86848220767183
 20
129.97221630215927
 10
494.4538816174657
 20
122.80464330952208
 10
499.49747355113914
 20
115.23063361066687
 10
512.3307313774197
 20
121.76950507308041
  0
LWPOLYLINE
  5
E9
330
17
100
AcDbEntity
  8
0
 62
0
100
AcDbPolyline
 90
8
 70
0
 10
503.1481083814232
 20
135.55913685678294
 10
498.6225015673714
 20
141.05155306070807
 10
486.69932857177116
 20
133.3085539823578
 10
490.53118951806886
 20
128.65808919003746
 10
490.77350867048176
 20
128.33149416550683
 10
492.2322993812167
 20
126.14081436091382
 10
504.64689997142284
 20
133.308387353551
 10
503.1481083814232
 20
135.55913685678294
  0
LWPOLYLINE
  5
EA
330
17
100
AcDbEntity
  8
0
 62
0
100
AcDbPolyline
 90
5
 70
0
 10
496.06246148952056
 20
144.15849676660565
 10
489.88638729824333
 20
151.65397115459044
 10
478.4372405754732
 20
143.33567915112474
 10
484.1392884939204
 20
136.41549768825539
 10
496.06246148952056
 20
144.15849676660565
  0
LWPOLYLINE
  5
EB
330
17
100
AcDbEntity
  8
0
 62
0
100
AcDbPolyline
 90
8
 70
0
 10
487.30076573938413
 20
154.7919613359296
 10
480.4642699230128
 20
161.58125995265235
 10
469.5670520311551
 20
152.75686689757902
 10
475.51953038089823
 20
146.84548274530528
 10
475.7879650109259
 20
146.55092179973536
 10
475.8888746014425
 20
146.42845480406882
 10
487.33802132421266
 20
154.74674680753452
 10
487.30076573938413
 20
154.7919613359296
  0
LWPOLYLINE
  5
EC
330
17
100
AcDbEntity
  8
0
 62
0
100
AcDbPolyline
 90
5
 70
0
 10
477.6093725658972
 20
164.41644792002216
 10
470.8248614928148
 20
171.154120681163
 10
460.44916767445005
 20
161.8118040047113
 10
466.7121546740395
 20
155.59205486494886
 10
477.6093725658972
 20
164.41644792002216
  0
LWPOLYLINE
  5
ED
330
17
100
AcDbEntity
  8
0
 62
0
100
AcDbPolyline
 90
5
 70
0
 10
467.8321039841256
 20
173.84196063516205
 10
460.4459599659147
 20
179.86753284116844
 10
450.6686141097107
 20
170.09018698496445
 10
457.48735036858415
 20
164.52750264246384
 10
467.8321039841256
 20
173.84196063516205
  0
LWPOLYLINE
  5
EE
330
17
100
AcDbEntity
  8
0
 62
0
100
AcDbPolyline
 90
5
 70
0
 10
457.3305987788555
 20
182.40902590360162
 10
450.03905305212226
 20
188.35742538802856
 10
440.82311351773484
 20
178.12208760522876
 10
447.5532529226515
 20
172.63168004739762
 10
457.3305987788555
 20
182.40902590360162
  0
LWPOLYLINE
  5
EF
330
17
100
AcDbEntity
  8
0
 62
0
100
AcDbPolyline
 90
5
 70
0
 10
446.7034888302967
 20
190.630812218711
 10
438.9075709783813
 20
195.8349946971673
 10
430.32375356599584
 20
185.2348629823965
 10
437.5197063896157
 20
180.43118850662205
 10
446.7034888302967
 20
190.630812218711
  0
LWPOLYLINE
  5
F0
330
17
100
AcDbEntity
  8
0
 62
0
100
AcDbPolyline
 90
7
 70
0
 10
427.82878483343706
 20
203.163122857618
 10
419.8651497170938
 20
192.2021194622538
 10
420.0839860911536
 20
192.07044276764887
 10
426.98276436287256
 20
187.46514783170824
 10
435.566581775258
 20
198.06527954647908
 10
428.35620104788575
 20
202.87858540182108
 10
427.82878483343706
 20
203.163122857618
  0
LWPOLYLINE
  5
F1
330
17
100
AcDbEntity
  8
0
 62
0
100
AcDbPolyline
 90
5
 70
0
 10
424.2767753987264
 20
205.07940775715548
 10
416.15894202089584
 20
209.45892357906808
 10
408.82449858456295
 20
198.16487110237924
 10
416.3164784671014
 20
194.1229989788846
 10
424.2767753987264
 20
205.07940775715548
  0
LWPOLYLINE
  5
F2
330
17
100
AcDbEntity
  8
0
 62
0
100
AcDbPolyline
 90
8
 70
0
 10
405.53811300573875
 20
215.18878850099864
 10
404.54323212931104
 20
215.6123201038413
 10
397.8531955130405
 20
204.02483677996452
 10
398.2016211197447
 20
203.87650821201703
 10
398.5340569944782
 20
203.716494258543
 10
405.29248856361926
 20
200.0703664543928
 10
412.62693199995215
 20
211.36441893108162
 10
405.53811300573875
 20
215.18878850099864
  0
LWPOLYLINE
  5
F3
330
17
100
AcDbEntity
  8
0
 62
0
100
AcDbPolyline
 90
5
 70
0
 10
400.8356864418381
 20
217.1906626017553
 10
392.4728168686331
 20
220.7508270783523
 10
386.42861160389003
 20
208.888406328338
 10
394.14564982556755
 20
205.60317927787852
 10
400.8356864418381
 20
217.1906626017553
  0
LWPOLYLINE
  5
F4
330
17
100
AcDbEntity
  8
0
 62
0
100
AcDbPolyline
 90
8
 70
0
 10
381.48935557925813
 20
225.42660593275394
 10
380.4541073387836
 20
225.76001524276526
 10
375.06825547002853
 20
213.66319388674052
 10
375.487819973735
 20
213.5280700524591
 10
375.82839187461724
 20
213.4010350850025
 10
382.739511321592
 20
210.45889641677877
 10
388.78371658633506
 20
222.32131716679308
 10
381.48935557925813
 20
225.42660593275394
  0
LWPOLYLINE
  5
F5
330
17
100
AcDbEntity
  8
0
 62
0
100
AcDbPolyline
 90
5
 70
0
 10
376.6246630703973
 20
226.99331593464981
 10
368.0828521044168
 20
229.74426898056785
 10
363.35764448576583
 20
217.43468228481242
 10
371.2388112016422
 20
214.8964945786251
 10
376.6246630703973
 20
226.99331593464981
  0
LWPOLYLINE
  5
F6
330
17
100
AcDbEntity
  8
0
 62
0
100
AcDbPolyline
 90
5
 70
0
 10
550.5
 20
75.15369459640888
 10
550.5
 20
86.51892269904866
 10
536.975613455458
 20
82.12458313125967
 10
540.7818337724298
 20
72.54971980382003
 10
550.5
 20
75.15369459640888
  0
LWPOLYLINE
  5
F7
330
17
100
AcDbEntity
  8
0
 62
0
100
AcDbPolyline
 90
8
 70
0
 10
545.6482719218303
 20
99.88037584728859
 10
545.2924059107107
 20
100.55761748869443
 10
531.6874432413587
 20
95.33516162193074
 10
531.7398745721704
 20
95.23538058235258
 10
531.9160334428677
 20
94.85237686899563
 10
535.494942860339
 20
85.84933298822573
 10
549.4264855727351
 20
90.37596561439321
 10
545.6482719218303
 20
99.88037584728859
  0
LWPOLYLINE
  5
F8
330
17
100
AcDbEntity
  8
0
 62
0
100
AcDbPolyline
 90
5
 70
0
 10
543.4189104934148
 20
104.12302995273903
 10
538.3211500838605
 20
113.8244780241584
 10
525.071704399389
 20
107.92544474099424
 10
529.8139478240628
 20
98.90057408597535
 10
543.4189104934148
 20
104.12302995273903
  0
LWPOLYLINE
  5
F9
330
17
100
AcDbEntity
  8
0
 62
0
100
AcDbPolyline
 90
8
 70
0
 10
533.4815909443569
 20
123.03454831158547
 10
530.9843425993989
 20
126.78468976511616
 10
518.1510847731182
 20
120.24581830270262
 10
520.1541108812262
 20
117.23785505560063
 10
520.3656594054903
 20
116.88142687081402
 10
523.2071521197146
 20
111.47383769484998
 10
536.4565978041862
 20
117.37287097801412
 10
533.4815909443569
 20
123.03454831158547
  0
LWPOLYLINE
  5
FA
330
17
100
AcDbEntity
  8
0
 62
0
100
AcDbPolyline
 90
5
 70
0
 10
528.7522289172334
 20
130.13667598842565
 10
522.7542639639108
 20
139.14387667541146
 10
510.33966337370464
 20
131.97630368277427
 10
515.9189710909528
 20
123.59780452601211
 10
528.7522289172334
 20
130.13667598842565
  0
LWPOLYLINE
  5
FB
330
17
100
AcDbEntity
  8
0
 62
0
100
AcDbPolyline
 90
8
 70
0
 10
518.8520749489813
 20
145.00383081811617
 10
513.9219777394352
 20
150.98714905879072
 10
501.998804743835
 20
143.24414998044045
 10
506.235156085627
 20
138.1027831513707
 10
506.4774752380399
 20
137.77618812684005
 10
508.11808113745565
 20
135.31247473416602
 10
520.5326817276618
 20
142.4800477268032
 10
518.8520749489813
 20
145.00383081811617
  0
LWPOLYLINE
  5
FC
330
17
100
AcDbEntity
  8
0
 62
0
100
AcDbPolyline
 90
5
 70
0
 10
511.3619376615844
 20
154.0940927646883
 10
504.57760645107476
 20
162.32776665736938
 10
493.1284597283047
 20
154.0094746539037
 10
499.43876466598425
 20
146.35109368633803
 10
511.3619376615844
 20
154.0940927646883
  0
LWPOLYLINE
  5
FD
330
17
100
AcDbEntity
  8
0
 62
0
100
AcDbPolyline
 90
8
 70
0
 10
501.9006141720462
 20
165.57664716671158
 10
494.4883517310281
 20
172.93773748100375
 10
483.5911338391704
 20
164.1133444259304
 10
490.1193788135603
 20
157.63016857608727
 10
490.38781344358796
 20
157.33560763051736
 10
490.580093754274
 20
157.1022503068478
 10
502.02924047704414
 20
165.42054231031346
 10
501.9006141720462
 20
165.57664716671158
  0
LWPOLYLINE
  5
FE
330
17
100
AcDbEntity
  8
0
 62
0
100
AcDbPolyline
 90
5
 70
0
 10
491.63345437391257
 20
175.77292544837357
 10
484.17777233369924
 20
183.17713560544382
 10
473.8020785153345
 20
173.83481892899206
 10
480.73623648205484
 20
166.9485323933002
 10
491.63345437391257
 20
175.77292544837357
  0
LWPOLYLINE
  5
FF
330
17
100
AcDbEntity
  8
0
 62
0
100
AcDbPolyline
 90
5
 70
0
 10
481.1847859976695
 20
185.86476952238004
 10
473.06624992218747
 20
192.4878227974412
 10
463.28890406598344
 20
182.71047694123715
 10
470.840032382128
 20
176.5503115296818
 10
481.1847859976695
 20
185.86476952238004
  0
LWPOLYLINE
  5
100
330
17
100
AcDbEntity
  8
0
 62
0
100
AcDbPolyline
 90
5
 70
0
 10
469.9508887351283
 20
195.02931585987437
 10
461.9346974175761
 20
201.5688768922589
 10
452.7187578831887
 20
191.3335391094591
 10
460.1735428789242
 20
185.25197000367032
 10
469.9508887351283
 20
195.02931585987437
  0
LWPOLYLINE
  5
101
330
17
100
AcDbEntity
  8
0
 62
0
100
AcDbPolyline
 90
5
 70
0
 10
458.59195175582624
 20
203.83428792588703
 10
450.01937548004497
 20
209.55693048024514
 10
441.43555806765954
 20
198.95679876547433
 10
449.40816931514524
 20
193.63466421379806
 10
458.59195175582624
 20
203.83428792588703
  0
LWPOLYLINE
  5
102
330
17
100
AcDbEntity
  8
0
 62
0
100
AcDbPolyline
 90
8
 70
0
 10
438.84925603892697
 20
217.01356881096436
 10
438.1613555792296
 20
217.38468642411627
 10
430.2010586476046
 20
206.42827764584538
 10
430.25541520505783
 20
206.3989526532875
 10
430.5770410821948
 20
206.20542617679214
 10
438.09456886453626
 20
201.1870836147861
 10
446.6783862769217
 20
211.78721532955691
 10
438.84925603892697
 20
217.01356881096436
  0
LWPOLYLINE
  5
103
330
17
100
AcDbEntity
  8
0
 62
0
100
AcDbPolyline
 90
5
 70
0
 10
434.609346144519
 20
219.30097132365373
 10
425.67914664867124
 20
224.1187531337249
 10
418.3447032123384
 20
212.82470065703612
 10
426.64904921289394
 20
208.34456254538287
 10
434.609346144519
 20
219.30097132365373
  0
LWPOLYLINE
  5
104
330
17
100
AcDbEntity
  8
0
 62
0
100
AcDbPolyline
 90
8
 70
0
 10
414.44138317417134
 20
230.18144999492065
 10
413.2480305221584
 20
230.6894731898969
 10
406.5579939058879
 20
219.10198986602015
 10
407.1048912881773
 20
218.86916970593907
 10
407.43732716291083
 20
218.70915575246505
 10
414.8126931913947
 20
214.73019600904965
 10
422.1471366277276
 20
226.02424848573844
 10
414.44138317417134
 20
230.18144999492065
  0
LWPOLYLINE
  5
105
330
17
100
AcDbEntity
  8
0
 62
0
100
AcDbPolyline
 90
5
 70
0
 10
409.5404848346855
 20
232.2678156878109
 10
400.3372862717775
 20
236.18571734918726
 10
394.2930810070344
 20
224.32329659917298
 10
402.85044821841495
 20
220.68033236393416
 10
409.5404848346855
 20
232.2678156878109
  0
LWPOLYLINE
  5
106
330
17
100
AcDbEntity
  8
0
 62
0
100
AcDbPolyline
 90
8
 70
0
 10
388.71709756633754
 20
241.1325579854458
 10
387.4763186030379
 20
241.53215997640467
 10
382.0904667342828
 20
229.43533862037998
 10
382.71556196081445
 20
229.23402210515098
 10
383.0561338616967
 20
229.10698713769438
 10
390.60398072473635
 20
225.89378668761375
 10
396.64818598947943
 20
237.75620743762803
 10
388.71709756633754
 20
241.1325579854458
  0
LWPOLYLINE
  5
107
330
17
100
AcDbEntity
  8
0
 62
0
100
AcDbPolyline
 90
6
 70
0
 10
378.2610224658964
 20
230.66863931226456
 10
383.6468743346515
 20
242.76546066828925
 10
376.7085470535503
 20
245.0
 10
373.938978570951
 20
245.0
 10
369.5184908985916
 20
233.48423590412278
 10
378.2610224658964
 20
230.66863931226456
  0
LWPOLYLINE
  5
108
330
17
100
AcDbEntity
  8
0
 62
0
100
AcDbPolyline
 90
9
 70
0
 10
550.5
 20
130.36021101263407
 10
550.1384378641042
 20
131.04829283762743
 10
547.4058401392125
 20
135.15186068046137
 10
534.572582312932
 20
128.61298921804786
 10
536.8109578009736
 20
125.2515995816426
 10
537.0225063252377
 20
124.89517139685599
 10
540.1184963995936
 20
119.00325327538052
 10
550.5
 20
123.62539647491533
 10
550.5
 20
130.36021101263407
  0
LWPOLYLINE
  5
109
330
17
100
AcDbEntity
  8
0
 62
0
100
AcDbPolyline
 90
5
 70
0
 10
545.1737264570471
 20
138.50384690377086
 10
538.6400457201497
 20
148.31553704866369
 10
526.2254451299436
 20
141.14796405602647
 10
532.3404686307665
 20
131.96497544135735
 10
545.1737264570471
 20
138.50384690377086
  0
LWPOLYLINE
  5
10A
330
17
100
AcDbEntity
  8
0
 62
0
100
AcDbPolyline
 90
8
 70
0
 10
534.5560415165396
 20
154.4485247794494
 10
529.2214539114991
 20
160.92274505687337
 10
517.2982809158989
 20
153.1797459785231
 10
521.9391226531851
 20
147.54747711270392
 10
522.1814418055981
 20
147.2208820881733
 10
524.0038628936946
 20
144.48413510741824
 10
536.4184634839008
 20
151.65170810005543
 10
534.5560415165396
 20
154.4485247794494
  0
LWPOLYLINE
  5
10B
330
17
100
AcDbEntity
  8
0
 62
0
100
AcDbPolyline
 90
5
 70
0
 10
526.6614138336482
 20
164.02968876277095
 10
519.2688256039062
 20
173.00156216014832
 10
507.8196788811361
 20
164.68327015668265
 10
514.7382408380481
 20
156.28668968442068
 10
526.6614138336482
 20
164.02968876277095
  0
LWPOLYLINE
  5
10C
330
17
100
AcDbEntity
  8
0
 62
0
100
AcDbPolyline
 90
8
 70
0
 10
516.5004626047081
 20
176.36133299749358
 10
508.5124335390434
 20
184.2942150093551
 10
497.6152156471857
 20
175.46982195428177
 10
504.7192272462223
 20
168.4148544068692
 10
504.98766187625
 20
168.12029346129933
 10
505.2713129071055
 20
167.77604580962674
 10
516.7204596298756
 20
176.0943378130924
 10
516.5004626047081
 20
176.36133299749358
  0
LWPOLYLINE
  5
10D
330
17
100
AcDbEntity
  8
0
 62
0
100
AcDbPolyline
 90
5
 70
0
 10
505.6575361819278
 20
187.12940297672492
 10
497.5306831745836
 20
195.20015052972457
 10
487.1549893562189
 20
185.85783385327287
 10
494.76031829007013
 20
178.30500992165162
 10
505.6575361819278
 20
187.12940297672492
  0
LWPOLYLINE
  5
10E
330
17
100
AcDbEntity
  8
0
 62
0
100
AcDbPolyline
 90
5
 70
0
 10
494.53746801121343
 20
197.887578409598
 10
485.6865398784602
 20
205.10811275371393
 10
475.9091940222562
 20
195.3307668975099
 10
484.192714395672
 20
188.5731204168998
 10
494.53746801121343
 20
197.887578409598
  0
LWPOLYLINE
  5
10F
330
17
100
AcDbEntity
  8
0
 62
0
100
AcDbPolyline
 90
5
 70
0
 10
482.571178691401
 20
207.6496058161471
 10
473.8303417830299
 20
214.78032839648932
 10
464.6144022486425
 20
204.5449906136895
 10
472.79383283519695
 20
197.87225995994308
 10
482.571178691401
 20
207.6496058161471
  0
LWPOLYLINE
  5
110
330
17
100
AcDbEntity
  8
0
 62
0
100
AcDbPolyline
 90
5
 70
0
 10
470.48041468135585
 20
217.03776363306307
 10
461.1311799817086
 20
223.278866263323
 10
452.5473625693232
 20
212.67873454855217
 10
461.2966322406748
 20
206.83813992097407
 10
470.48041468135585
 20
217.03776363306307
  0
LWPOLYLINE
  5
111
330
17
100
AcDbEntity
  8
0
 62
0
100
AcDbPolyline
 90
8
 70
0
 10
449.3423110299682
 20
231.14855222010763
 10
448.49392632502224
 20
231.60624999061451
 10
440.5336293933972
 20
220.64984121234363
 10
440.74847019609905
 20
220.53393606243077
 10
441.070096073236
 20
220.34040958593542
 10
449.2063733661999
 20
214.90901939786394
 10
457.7901907785853
 20
225.50915111263478
 10
449.3423110299682
 20
231.14855222010763
  0
LWPOLYLINE
  5
112
330
17
100
AcDbEntity
  8
0
 62
0
100
AcDbPolyline
 90
5
 70
0
 10
444.9419168903116
 20
233.522534890152
 10
435.1993512764467
 20
238.77858268838176
 10
427.8649078401138
 20
227.48453021169294
 10
436.9816199586865
 20
222.56612611188112
 10
444.9419168903116
 20
233.522534890152
  0
LWPOLYLINE
  5
113
330
17
100
AcDbEntity
  8
0
 62
0
100
AcDbPolyline
 90
8
 70
0
 10
423.6673849214052
 20
245.0
 10
421.51021702821686
 20
245.0
 10
415.2627922987353
 20
234.17914295207575
 10
416.0081614566099
 20
233.8618311998611
 10
416.3405973313434
 20
233.70181724638707
 10
424.33289781917017
 20
229.39002556370647
 10
431.667341255503
 20
240.6840780403953
 10
423.6673849214052
 20
245.0
  0
LWPOLYLINE
  5
114
330
17
100
AcDbEntity
  8
0
 62
0
100
AcDbPolyline
 90
9
 70
0
 10
550.5
 20
163.5328206113157
 10
550.2600080840978
 20
163.89321874078263
 10
544.5209300835629
 20
170.858341054956
 10
532.5977570879627
 20
163.11534197660575
 10
537.6430892207434
 20
156.99217107403715
 10
537.8854083731563
 20
156.6655760495065
 10
539.8896446499336
 20
153.65579548067046
 10
550.5
 20
159.78168699822888
 10
550.5
 20
163.5328206113157
  0
LWPOLYLINE
  5
115
330
17
100
AcDbEntity
  8
0
 62
0
100
AcDbPolyline
 90
12
 70
0
 10
541.9608900057121
 20
173.9652847608536
 10
536.9884430182414
 20
180.0
 10
535.5
 20
180.0
 10
534.5198285967044
 20
180.04815273327802
 10
533.5490967798387
 20
180.1921471959677
 10
532.5971532274554
 20
180.43059664267793
 10
531.6731656763491
 20
180.76120467488713
 10
530.78603263174
 20
181.18078735651645
 10
530.6438554342235
 20
181.2660050892034
 10
522.5108980339676
 20
175.35706565946154
 10
530.0377170101119
 20
166.22228568250333
 10
541.9608900057121
 20
173.9652847608536
  0
LWPOLYLINE
  5
116
330
17
100
AcDbEntity
  8
0
 62
0
100
AcDbPolyline
 90
15
 70
0
 10
527.1853038769746
 20
184.44429766980397
 10
526.6807873565165
 20
185.28603263174003
 10
526.2612046748872
 20
186.1731656763491
 10
525.9305966426779
 20
187.09715322745538
 10
525.6921471959677
 20
188.04909677983872
 10
525.548152733278
 20
189.0198285967044
 10
525.5
 20
190.0
 10
525.5
 20
192.7076669299511
 10
522.5365153470588
 20
195.65069253770648
 10
511.639297455201
 20
186.82629948263312
 10
519.3190756788842
 20
179.1995402376512
 10
519.5875103089119
 20
178.90497929208132
 10
519.9625320599368
 20
178.44984131240562
 10
527.5452298215023
 20
183.95899371319402
 10
527.1853038769746
 20
184.44429766980397
  0
LWPOLYLINE
  5
117
330
17
100
AcDbEntity
  8
0
 62
0
100
AcDbPolyline
 90
5
 70
0
 10
519.6816179899431
 20
198.4858805050763
 10
510.883594015468
 20
207.22316545400537
 10
500.50790019710325
 20
197.88084877755364
 10
508.7844000980854
 20
189.66148745000294
 10
519.6816179899431
 20
198.4858805050763
  0
LWPOLYLINE
  5
118
330
17
100
AcDbEntity
  8
0
 62
0
100
AcDbPolyline
 90
5
 70
0
 10
507.89015002475736
 20
209.91038729681597
 10
498.306829834733
 20
217.72840270998668
 10
488.52948397852896
 20
207.95105685378263
 10
497.54539640921587
 20
200.59592930411776
 10
507.89015002475736
 20
209.91038729681597
  0
LWPOLYLINE
  5
119
330
17
100
AcDbEntity
  8
0
 62
0
100
AcDbPolyline
 90
5
 70
0
 10
495.19146864767373
 20
220.26989577241986
 10
485.72598614848374
 20
227.99177990071973
 10
476.5100466140963
 20
217.75644211791987
 10
485.4141227914697
 20
210.4925499162158
 10
495.19146864767373
 20
220.26989577241986
  0
LWPOLYLINE
  5
11A
330
17
100
AcDbEntity
  8
0
 62
0
100
AcDbPolyline
 90
5
 70
0
 10
482.36887760688546
 20
230.2412393402391
 10
472.2429844833723
 20
237.00080204640088
 10
463.6591670709869
 20
226.40067033163004
 10
473.1850951662044
 20
220.0416156281501
 10
482.36887760688546
 20
230.2412393402391
  0
LWPOLYLINE
  5
11B
330
17
100
AcDbEntity
  8
0
 62
0
100
AcDbPolyline
 90
8
 70
0
 10
460.26010525390177
 20
245.0
 10
458.225055316313
 20
245.0
 10
450.86620013918974
 20
234.8714047788419
 10
451.24152518714027
 20
234.66891947157404
 10
451.56315106427724
 20
234.4753929950787
 10
460.31817786786354
 20
228.63095518094178
 10
468.901995280249
 20
239.23108689571265
 10
460.26010525390177
 20
245.0
  0
LWPOLYLINE
  5
11C
330
17
100
AcDbEntity
  8
0
 62
0
100
AcDbPolyline
 90
5
 70
0
 10
243.5559806211193
 20
228.67744808923533
 10
251.5912555629367
 20
229.75028377207659
 10
250.2303539294641
 20
242.69839789928193
 10
241.5194874222213
 20
241.53536010840293
 10
243.5559806211193
 20
228.67744808923533
  0
LWPOLYLINE
  5
11D
330
17
100
AcDbEntity
  8
0
 62
0
100
AcDbPolyline
 90
7
 70
0
 10
357.32129160835177
 20
237.39549548847975
 10
357.6677378304049
 20
237.30085809105603
 10
365.7053190108732
 20
234.7122959561312
 10
369.6543985964028
 20
245.0
 10
359.4582500255386
 20
245.0
 10
357.0101871989679
 20
237.46563734069278
 10
357.32129160835177
 20
237.39549548847975
  0
LWPOLYLINE
  5
11E
330
17
100
AcDbEntity
  8
0
 62
0
100
AcDbPolyline
 90
5
 70
0
 10
279.75000000000006
 20
230.91547148380843
 10
287.8302971067826
 20
230.55817216602486
 10
288.50981867155576
 20
243.52421602572076
 10
279.75000000000006
 20
243.91156282669763
 10
279.75000000000006
 20
230.91547148380843
  0
LWPOLYLINE
  5
11F
330
17
100
AcDbEntity
  8
0
 62
0
100
AcDbPolyline
 90
5
 70
0
 10
291.8265256390481
 20
230.38146458839293
 10
299.9154572946758
 20
230.02378346306304
 10
301.275082595551
 20
242.95975409677231
 10
292.50604720382125
 20
243.34750844808883
 10
291.8265256390481
 20
230.38146458839293
  0
LWPOLYLINE
  5
120
330
17
100
AcDbEntity
  8
0
 62
0
100
AcDbPolyline
 90
5
 70
0
 10
275.75000000000006
 20
243.91156282669763
 10
266.99018132844424
 20
243.52421602572076
 10
267.66970289321745
 20
230.55817216602486
 10
275.75000000000006
 20
230.91547148380843
 10
275.75000000000006
 20
243.91156282669763
  0
LWPOLYLINE
  5
121
330
17
100
AcDbEntity
  8
0
 62
0
100
AcDbPolyline
 90
5
 70
0
 10
262.99395279617875
 20
243.34750844808886
 10
254.224917404449
 20
242.95975409677234
 10
255.58454270532428
 20
230.02378346306304
 10
263.67347436095196
 20
230.38146458839293
 10
262.99395279617875
 20
243.34750844808886
  0
LWPOLYLINE
  5
122
330
17
100
AcDbEntity
  8
0
 62
0
100
AcDbPolyline
 90
5
 70
0
 10
313.9805125777787
 20
241.53536010840293
 10
305.26964607053594
 20
242.6983978992819
 10
303.9087444370633
 20
229.75028377207656
 10
311.94401937888074
 20
228.67744808923533
 10
313.9805125777787
 20
241.53536010840293
  0
LWPOLYLINE
  5
123
330
17
100
AcDbEntity
  8
0
 62
0
100
AcDbPolyline
 90
5
 70
0
 10
326.6847040121336
 20
239.8391505833883
 10
317.94650497029744
 20
241.00583769785942
 10
315.91001177139947
 20
228.14792567869182
 10
323.97089249758494
 20
227.0716712205932
 10
326.6847040121336
 20
239.8391505833883
  0
LWPOLYLINE
  5
124
330
17
100
AcDbEntity
  8
0
 62
0
100
AcDbPolyline
 90
5
 70
0
 10
339.28055638605497
 20
237.3625692610514
 10
330.6607416669849
 20
239.3059996718454
 10
327.94198984958615
 20
226.51527801151184
 10
335.893657005242
 20
224.7224886917339
 10
339.28055638605497
 20
237.3625692610514
  0
LWPOLYLINE
  5
125
330
17
100
AcDbEntity
  8
0
 62
0
100
AcDbPolyline
 90
5
 70
0
 10
351.8500503337778
 20
234.52864097112513
 10
343.1857409346048
 20
236.4821031885471
 10
339.7988415537918
 20
223.84202261922957
 10
347.7921914459588
 20
222.03983547590428
 10
351.8500503337778
 20
234.52864097112513
  0
LWPOLYLINE
  5
126
330
17
100
AcDbEntity
  8
0
 62
0
100
AcDbPolyline
 90
8
 70
0
 10
359.54447259804743
 20
218.66274233682083
 10
364.2696802166984
 20
230.97232903257625
 10
356.4415314488486
 20
233.493441918659
 10
355.76882303896593
 20
233.64511130181526
 10
351.7109641511469
 20
221.15630580659442
 10
351.8386849090467
 20
221.1275097810322
 10
352.18513113109987
 20
221.03287238360846
 10
359.54447259804743
 20
218.66274233682083
  0
LWPOLYLINE
  5
127
330
17
100
AcDbEntity
  8
0
 62
0
100
AcDbPolyline
 90
5
 70
0
 10
10.0
 20
224.7
 10
10.0
 20
220.0
 10
20.0
 20
220.0
 10
20.0
 20
224.7
 10
10.0
 20
224.7
  0
LWPOLYLINE
  5
128
330
17
100
AcDbEntity
  8
0
 62
0
100
AcDbPolyline
 90
5
 70
0
 10
535.5
 20
224.7
 10
535.5
 20
220.0
 10
545.5
 20
220.0
 10
545.5
 20
224.7
 10
535.5
 20
224.7
  0
LWPOLYLINE
  5
129
330
17
100
AcDbEntity
  8
0
 62
0
100
AcDbPolyline
 90
5
 70
0
 10
20.0
 20
190.0
 10
20.0
 20
194.7
 10
10.0
 20
194.7
 10
10.0
 20
190.0
 10
20.0
 20
190.0
  0
LWPOLYLINE
  5
12A
330
17
100
AcDbEntity
  8
0
 62
0
100
AcDbPolyline
 90
5
 70
0
 10
545.5
 20
190.0
 10
545.5
 20
194.7
 10
535.5
 20
194.7
 10
535.5
 20
190.0
 10
545.5
 20
190.0
  0
ENDSEC
  0
SECTION
  2
OBJECTS
  0
DICTIONARY
  5
A
330
0
100
AcDbDictionary
280
0
281
1
  3
ACAD_COLOR
350
B
  3
ACAD_GROUP
350
C
  3
ACAD_LAYOUT
350
D
  3
ACAD_MATERIAL
350
E
  3
ACAD_MLEADERSTYLE
350
F
  3
ACAD_MLINESTYLE
350
10
  3
ACAD_PLOTSETTINGS
350
11
  3
ACAD_PLOTSTYLENAME
350
12
  3
ACAD_SCALELIST
350
14
  3
ACAD_TABLESTYLE
350
15
  3
ACAD_VISUALSTYLE
350
16
  3
EZDXF_META
350
2D
  0
DICTIONARY
  5
B
330
A
100
AcDbDictionary
280
0
281
1
  0
DICTIONARY
  5
C
330
A
100
AcDbDictionary
280
0
281
1
  0
DICTIONARY
  5
D
330
A
100
AcDbDictionary
280
0
281
1
  3
Model
350
1A
  3
Layout1
350
1E
  0
DICTIONARY
  5
E
330
A
100
AcDbDictionary
280
0
281
1
  3
ByBlock
350
1F
  3
ByLayer
350
20
  3
Global
350
21
  0
DICTIONARY
  5
F
330
A
100
AcDbDictionary
280
0
281
1
  3
Standard
350
2C
  0
DICTIONARY
  5
10
330
A
100
AcDbDictionary
280
0
281
1
  3
Standard
350
22
  0
DICTIONARY
  5
11
330
A
100
AcDbDictionary
280
0
281
1
  0
ACDBDICTIONARYWDFLT
  5
12
330
A
100
AcDbDictionary
280
0
281
1
  3
Normal
350
13
100
AcDbDictionaryWithDefault
340
13
  0
ACDBPLACEHOLDER
  5
13
330
12
  0
DICTIONARY
  5
14
330
A
100
AcDbDictionary
280
0
281
1
  0
DICTIONARY
  5
15
330
A
100
AcDbDictionary
280
0
281
1
  0
DICTIONARY
  5
16
330
A
100
AcDbDictionary
280
0
281
1
  0
LAYOUT
  5
1A
330
D
100
AcDbPlotSettings
  1

  2
Adobe PDF
  4
A3
  6

 40
7.5
 41
20.0
 42
7.5
 43
20.0
 44
420.0
 45
297.0
 46
0.0
 47
0.0
 48
0.0
 49
0.0
140
0.0
141
0.0
142
1.0
143
1.0
 70
1024
 72
1
 73
0
 74
5
  7

 75
16
 76
0
 77
2
 78
300
147
1.0
148
0.0
149
0.0
100
AcDbLayout
  1
Model
 70
1
 71
0
 10
0.0
 20
0.0
 11
420.0
 21
297.0
 12
0.0
 22
0.0
 32
0.0
 14
1e+20
 24
1e+20
 34
1e+20
 15
-1e+20
 25
-1e+20
 35
-1e+20
146
0.0
 13
0.0
 23
0.0
 33
0.0
 16
1.0
 26
0.0
 36
0.0
 17
0.0
 27
1.0
 37
0.0
 76
1
330
17
  0
LAYOUT
  5
1E
330
D
100
AcDbPlotSettings
  1

  2
Adobe PDF
  4
A3
  6

 40
7.5
 41
20.0
 42
7.5
 43
20.0
 44
420.0
 45
297.0
 46
0.0
 47
0.0
 48
0.0
 49
0.0
140
0.0
141
0.0
142
1.0
143
1.0
 70
0
 72
1
 73
0
 74
5
  7

 75
16
 76
0
 77
2
 78
300
147
1.0
148
0.0
149
0.0
100
AcDbLayout
  1
Layout1
 70
1
 71
1
 10
0.0
 20
0.0
 11
420.0
 21
297.0
 12
0.0
 22
0.0
 32
0.0
 14
1e+20
 24
1e+20
 34
1e+20
 15
-1e+20
 25
-1e+20
 35
-1e+20
146
0.0
 13
0.0
 23
0.0
 33
0.0
 16
1.0
 26
0.0
 36
0.0
 17
0.0
 27
1.0
 37
0.0
 76
1
330
1B
  0
MATERIAL
  5
1F
102
{ACAD_REACTORS
330
E
102
}
330
E
100
AcDbMaterial
  1
ByBlock
  2

 70
0
 40
1.0
 71
1
 41
1.0
 91
-1023410177
 42
1.0
 72
1
  3

 73
1
 74
1
 75
1
 44
0.5
 73
0
 45
1.0
 46
1.0
 77
1
  4

 78
1
 79
1
170
1
 48
1.0
171
1
  6

172
1
173
1
174
1
140
1.0
141
1.0
175
1
  7

176
1
177
1
178
1
143
1.0
179
1
  8

270
1
271
1
272
1
145
1.0
146
1.0
273
1
  9

274
1
275
1
276
1
 42
1.0
 72
1
  3

 73
1
 74
1
 75
1
 94
63
  0
MATERIAL
  5
20
102
{ACAD_REACTORS
330
E
102
}
330
E
100
AcDbMaterial
  1
ByLayer
  2

 70
0
 40
1.0
 71
1
 41
1.0
 91
-1023410177
 42
1.0
 72
1
  3

 73
1
 74
1
 75
1
 44
0.5
 73
0
 45
1.0
 46
1.0
 77
1
  4

 78
1
 79
1
170
1
 48
1.0
171
1
  6

172
1
173
1
174
1
140
1.0
141
1.0
175
1
  7

176
1
177
1
178
1
143
1.0
179
1
  8

270
1
271
1
272
1
145
1.0
146
1.0
273
1
  9

274
1
275
1
276
1
 42
1.0
 72
1
  3

 73
1
 74
1
 75
1
 94
63
  0
MATERIAL
  5
21
102
{ACAD_REACTORS
330
E
102
}
330
E
100
AcDbMaterial
  1
Global
  2

 70
0
 40
1.0
 71
1
 41
1.0
 91
-1023410177
 42
1.0
 72
1
  3

 73
1
 74
1
 75
1
 44
0.5
 73
0
 45
1.0
 46
1.0
 77
1
  4

 78
1
 79
1
170
1
 48
1.0
171
1
  6

172
1
173
1
174
1
140
1.0
141
1.0
175
1
  7

176
1
177
1
178
1
143
1.0
179
1
  8

270
1
271
1
272
1
145
1.0
146
1.0
273
1
  9

274
1
275
1
276
1
 42
1.0
 72
1
  3

 73
1
 74
1
 75
1
 94
63
  0
MLINESTYLE
  5
22
102
{ACAD_REACTORS
330
10
102
}
330
10
100
AcDbMlineStyle
  2
Standard
 70
0
  3

 62
256
 51
90.0
 52
90.0
 71
2
 49
0.5
 62
256
  6
BYLAYER
 49
-0.5
 62
256
  6
BYLAYER
  0
MLEADERSTYLE
  5
2C
102
{ACAD_REACTORS
330
F
102
}
330
F
100
AcDbMLeaderStyle
179
2
170
2
171
1
172
0
 90
2
 40
0.0
 41
0.0
173
1
 91
-1056964608
 92
-2
290
1
 42
2.0
291
1
 43
8.0
  3
Standard
 44
4.0
300

342
29
174
1
175
1
176
0
178
1
 93
-1056964608
 45
4.0
292
0
297
0
 46
4.0
 94
-1056964608
 47
1.0
 49
1.0
140
1.0
294
1
141
0.0
177
0
142
1.0
295
0
296
0
143
3.75
271
0
272
9
273
9
  0
DICTIONARY
  5
2D
330
A
100
AcDbDictionary
281
1
  3
CREATED_BY_EZDXF
350
2E
  3
WRITTEN_BY_EZDXF
350
12D
  0
DICTIONARYVAR
  5
2E
330
2D
100
DictionaryVariables
280
0
  1
1.1.1 @ 2024-04-29T18:06:23.183948+00:00
  0
DICTIONARYVAR
  5
12D
330
2D
100
DictionaryVariables
280
0
  1
1.1.1 @ 2024-04-29T18:06:23.224580+00:00
  0
ENDSEC
  0
EOF
