  0
SECTION
  2
HEADER
  9
$ACADVER
  1
AC1032
  9
$ACADMAINTVER
 90
4
  9
$DWGCODEPAGE
  3
ANSI_1252
  9
$LASTSAVEDBY
  1
ezdxf
  9
$REQUIREDVERSIONS
160
0
  9
$INSBASE
 10
0.0
 20
0.0
 30
0.0
  9
$EXTMIN
 10
1e+20
 20
1e+20
 30
1e+20
  9
$EXTMAX
 10
-1e+20
 20
-1e+20
 30
-1e+20
  9
$LIMMIN
 10
0.0
 20
0.0
  9
$LIMMAX
 10
420.0
 20
297.0
  9
$ORTHOMODE
 70
0
  9
$REGENMODE
 70
1
  9
$FILLMODE
 70
1
  9
$QTEXTMODE
 70
0
  9
$MIRRTEXT
 70
1
  9
$LTSCALE
 40
1.0
  9
$ATTMODE
 70
1
  9
$TEXTSIZE
 40
2.5
  9
$TRACEWID
 40
1.0
  9
$TEXTSTYLE
  7
Standard
  9
$CLAYER
  8
0
  9
$CELTYPE
  6
ByLayer
  9
$CECOLOR
 62
256
  9
$CELTSCALE
 40
1.0
  9
$DISPSILH
 70
0
  9
$DIMSCALE
 40
1.0
  9
$DIMASZ
 40
2.5
  9
$DIMEXO
 40
0.625
  9
$DIMDLI
 40
3.75
  9
$DIMRND
 40
0.0
  9
$DIMDLE
 40
0.0
  9
$DIMEXE
 40
1.25
  9
$DIMTP
 40
0.0
  9
$DIMTM
 40
0.0
  9
$DIMTXT
 40
2.5
  9
$DIMCEN
 40
2.5
  9
$DIMTSZ
 40
0.0
  9
$DIMTOL
 70
0
  9
$DIMLIM
 70
0
  9
$DIMTIH
 70
0
  9
$DIMTOH
 70
0
  9
$DIMSE1
 70
0
  9
$DIMSE2
 70
0
  9
$DIMTAD
 70
1
  9
$DIMZIN
 70
8
  9
$DIMBLK
  1

  9
$DIMASO
 70
1
  9
$DIMSHO
 70
1
  9
$DIMPOST
  1

  9
$DIMAPOST
  1

  9
$DIMALT
 70
0
  9
$DIMALTD
 70
3
  9
$DIMALTF
 40
0.03937007874
  9
$DIMLFAC
 40
1.0
  9
$DIMTOFL
 70
1
  9
$DIMTVP
 40
0.0
  9
$DIMTIX
 70
0
  9
$DIMSOXD
 70
0
  9
$DIMSAH
 70
0
  9
$DIMBLK1
  1

  9
$DIMBLK2
  1

  9
$DIMSTYLE
  2
ISO-25
  9
$DIMCLRD
 70
0
  9
$DIMCLRE
 70
0
  9
$DIMCLRT
 70
0
  9
$DIMTFAC
 40
1.0
  9
$DIMGAP
 40
0.625
  9
$DIMJUST
 70
0
  9
$DIMSD1
 70
0
  9
$DIMSD2
 70
0
  9
$DIMTOLJ
 70
0
  9
$DIMTZIN
 70
8
  9
$DIMALTZ
 70
0
  9
$DIMALTTZ
 70
0
  9
$DIMUPT
 70
0
  9
$DIMDEC
 70
2
  9
$DIMTDEC
 70
2
  9
$DIMALTU
 70
2
  9
$DIMALTTD
 70
3
  9
$DIMTXSTY
  7
Standard
  9
$DIMAUNIT
 70
0
  9
$DIMADEC
 70
0
  9
$DIMALTRND
 40
0.0
  9
$DIMAZIN
 70
0
  9
$DIMDSEP
 70
44
  9
$DIMATFIT
 70
3
  9
$DIMFRAC
 70
0
  9
$DIMLDRBLK
  1

  9
$DIMLUNIT
 70
2
  9
$DIMLWD
 70
-2
  9
$DIMLWE
 70
-2
  9
$DIMTMOVE
 70
0
  9
$DIMFXL
 40
1.0
  9
$DIMFXLON
 70
0
  9
$DIMJOGANG
 40
0.785398163397
  9
$DIMTFILL
 70
0
  9
$DIMTFILLCLR
 70
0
  9
$DIMARCSYM
 70
0
  9
$DIMLTYPE
  6

  9
$DIMLTEX1
  6

  9
$DIMLTEX2
  6

  9
$DIMTXTDIRECTION
 70
0
  9
$LUNITS
 70
2
  9
$LUPREC
 70
4
  9
$SKETCHINC
 40
1.0
  9
$FILLETRAD
 40
10.0
  9
$AUNITS
 70
0
  9
$AUPREC
 70
2
  9
$MENU
  1
.
  9
$ELEVATION
 40
0.0
  9
$PELEVATION
 40
0.0
  9
$THICKNESS
 40
0.0
  9
$LIMCHECK
 70
0
  9
$CHAMFERA
 40
0.0
  9
$CHAMFERB
 40
0.0
  9
$CHAMFERC
 40
0.0
  9
$CHAMFERD
 40
0.0
  9
$SKPOLY
 70
0
  9
$TDCREATE
 40
2460468.6584490743
  9
$TDUCREATE
 40
2458532.153996898
  9
$TDUPDATE
 40
2460468.6584490743
  9
$TDUUPDATE
 40
2458532.1544311
  9
$TDINDWG
 40
0.0
  9
$TDUSRTIMER
 40
0.0
  9
$USRTIMER
 70
1
  9
$ANGBASE
 50
0.0
  9
$ANGDIR
 70
0
  9
$PDMODE
 70
0
  9
$PDSIZE
 40
0.0
  9
$PLINEWID
 40
0.0
  9
$SPLFRAME
 70
0
  9
$SPLINETYPE
 70
6
  9
$SPLINESEGS
 70
8
  9
$HANDSEED
  5
13F
  9
$SURFTAB1
 70
6
  9
$SURFTAB2
 70
6
  9
$SURFTYPE
 70
6
  9
$SURFU
 70
6
  9
$SURFV
 70
6
  9
$UCSBASE
  2

  9
$UCSNAME
  2

  9
$UCSORG
 10
0.0
 20
0.0
 30
0.0
  9
$UCSXDIR
 10
1.0
 20
0.0
 30
0.0
  9
$UCSYDIR
 10
0.0
 20
1.0
 30
0.0
  9
$UCSORTHOREF
  2

  9
$UCSORTHOVIEW
 70
0
  9
$UCSORGTOP
 10
0.0
 20
0.0
 30
0.0
  9
$UCSORGBOTTOM
 10
0.0
 20
0.0
 30
0.0
  9
$UCSORGLEFT
 10
0.0
 20
0.0
 30
0.0
  9
$UCSORGRIGHT
 10
0.0
 20
0.0
 30
0.0
  9
$UCSORGFRONT
 10
0.0
 20
0.0
 30
0.0
  9
$UCSORGBACK
 10
0.0
 20
0.0
 30
0.0
  9
$PUCSBASE
  2

  9
$PUCSNAME
  2

  9
$PUCSORG
 10
0.0
 20
0.0
 30
0.0
  9
$PUCSXDIR
 10
1.0
 20
0.0
 30
0.0
  9
$PUCSYDIR
 10
0.0
 20
1.0
 30
0.0
  9
$PUCSORTHOREF
  2

  9
$PUCSORTHOVIEW
 70
0
  9
$PUCSORGTOP
 10
0.0
 20
0.0
 30
0.0
  9
$PUCSORGBOTTOM
 10
0.0
 20
0.0
 30
0.0
  9
$PUCSORGLEFT
 10
0.0
 20
0.0
 30
0.0
  9
$PUCSORGRIGHT
 10
0.0
 20
0.0
 30
0.0
  9
$PUCSORGFRONT
 10
0.0
 20
0.0
 30
0.0
  9
$PUCSORGBACK
 10
0.0
 20
0.0
 30
0.0
  9
$USERI1
 70
0
  9
$USERI2
 70
0
  9
$USERI3
 70
0
  9
$USERI4
 70
0
  9
$USERI5
 70
0
  9
$USERR1
 40
0.0
  9
$USERR2
 40
0.0
  9
$USERR3
 40
0.0
  9
$USERR4
 40
0.0
  9
$USERR5
 40
0.0
  9
$WORLDVIEW
 70
1
  9
$SHADEDGE
 70
3
  9
$SHADEDIF
 70
70
  9
$TILEMODE
 70
1
  9
$MAXACTVP
 70
64
  9
$PINSBASE
 10
0.0
 20
0.0
 30
0.0
  9
$PLIMCHECK
 70
0
  9
$PEXTMIN
 10
1e+20
 20
1e+20
 30
1e+20
  9
$PEXTMAX
 10
-1e+20
 20
-1e+20
 30
-1e+20
  9
$PLIMMIN
 10
0.0
 20
0.0
  9
$PLIMMAX
 10
420.0
 20
297.0
  9
$UNITMODE
 70
0
  9
$VISRETAIN
 70
1
  9
$PLINEGEN
 70
0
  9
$PSLTSCALE
 70
1
  9
$TREEDEPTH
 70
3020
  9
$CMLSTYLE
  2
Standard
  9
$CMLJUST
 70
0
  9
$CMLSCALE
 40
20.0
  9
$PROXYGRAPHICS
 70
1
  9
$MEASUREMENT
 70
1
  9
$CELWEIGHT
370
-1
  9
$ENDCAPS
280
0
  9
$JOINSTYLE
280
0
  9
$LWDISPLAY
290
0
  9
$INSUNITS
 70
4
  9
$HYPERLINKBASE
  1

  9
$STYLESHEET
  1

  9
$XEDIT
290
1
  9
$CEPSNTYPE
380
0
  9
$PSTYLEMODE
290
1
  9
$FINGERPRINTGUID
  2
{F28BA31B-87EA-4AE2-8FFB-51FBE9453097}
  9
$VERSIONGUID
  2
{3ABB4023-6FF4-43F9-98DC-910F77DAC46A}
  9
$EXTNAMES
290
1
  9
$PSVPSCALE
 40
0.0
  9
$OLESTARTUP
290
0
  9
$SORTENTS
280
127
  9
$INDEXCTL
280
0
  9
$HIDETEXT
280
1
  9
$XCLIPFRAME
280
0
  9
$HALOGAP
280
0
  9
$OBSCOLOR
 70
257
  9
$OBSLTYPE
280
0
  9
$INTERSECTIONDISPLAY
280
0
  9
$INTERSECTIONCOLOR
 70
257
  9
$DIMASSOC
280
2
  9
$PROJECTNAME
  1

  9
$CAMERADISPLAY
290
0
  9
$LENSLENGTH
 40
50.0
  9
$CAMERAHEIGHT
 40
0.0
  9
$STEPSPERSEC
 40
24.0
  9
$STEPSIZE
 40
100.0
  9
$3DDWFPREC
 40
2.0
  9
$PSOLWIDTH
 40
0.005
  9
$PSOLHEIGHT
 40
0.08
  9
$LOFTANG1
 40
1.570796326795
  9
$LOFTANG2
 40
1.570796326795
  9
$LOFTMAG1
 40
0.0
  9
$LOFTMAG2
 40
0.0
  9
$LOFTPARAM
 70
7
  9
$LOFTNORMALS
280
1
  9
$LATITUDE
 40
37.795
  9
$LONGITUDE
 40
-122.394
  9
$NORTHDIRECTION
 40
0.0
  9
$TIMEZONE
 70
-8000
  9
$LIGHTGLYPHDISPLAY
280
1
  9
$TILEMODELIGHTSYNCH
280
1
  9
$CMATERIAL
347
20
  9
$SOLIDHIST
280
0
  9
$SHOWHIST
280
1
  9
$DWFFRAME
280
2
  9
$DGNFRAME
280
2
  9
$REALWORLDSCALE
290
1
  9
$INTERFERECOLOR
 62
256
  9
$CSHADOW
280
0
  9
$SHADOWPLANELOCATION
 40
0.0
  0
ENDSEC
  0
SECTION
  2
CLASSES
  0
CLASS
  1
ACDBDICTIONARYWDFLT
  2
AcDbDictionaryWithDefault
  3
ObjectDBX Classes
 90
0
 91
0
280
0
281
0
  0
CLASS
  1
SUN
  2
AcDbSun
  3
SCENEOE
 90
1153
 91
0
280
0
281
0
  0
CLASS
  1
VISUALSTYLE
  2
AcDbVisualStyle
  3
ObjectDBX Classes
 90
4095
 91
0
280
0
281
0
  0
CLASS
  1
MATERIAL
  2
AcDbMaterial
  3
ObjectDBX Classes
 90
1153
 91
0
280
0
281
0
  0
CLASS
  1
SCALE
  2
AcDbScale
  3
ObjectDBX Classes
 90
1153
 91
0
280
0
281
0
  0
CLASS
  1
TABLESTYLE
  2
AcDbTableStyle
  3
ObjectDBX Classes
 90
4095
 91
0
280
0
281
0
  0
CLASS
  1
MLEADERSTYLE
  2
AcDbMLeaderStyle
  3
ACDB_MLEADERSTYLE_CLASS
 90
4095
 91
0
280
0
281
0
  0
CLASS
  1
DICTIONARYVAR
  2
AcDbDictionaryVar
  3
ObjectDBX Classes
 90
0
 91
0
280
0
281
0
  0
CLASS
  1
CELLSTYLEMAP
  2
AcDbCellStyleMap
  3
ObjectDBX Classes
 90
1152
 91
0
280
0
281
0
  0
CLASS
  1
MENTALRAYRENDERSETTINGS
  2
AcDbMentalRayRenderSettings
  3
SCENEOE
 90
1024
 91
0
280
0
281
0
  0
CLASS
  1
ACDBDETAILVIEWSTYLE
  2
AcDbDetailViewStyle
  3
ObjectDBX Classes
 90
1025
 91
0
280
0
281
0
  0
CLASS
  1
ACDBSECTIONVIEWSTYLE
  2
AcDbSectionViewStyle
  3
ObjectDBX Classes
 90
1025
 91
0
280
0
281
0
  0
CLASS
  1
RASTERVARIABLES
  2
AcDbRasterVariables
  3
ISM
 90
0
 91
0
280
0
281
0
  0
CLASS
  1
ACDBPLACEHOLDER
  2
AcDbPlaceHolder
  3
ObjectDBX Classes
 90
0
 91
0
280
0
281
0
  0
CLASS
  1
LAYOUT
  2
AcDbLayout
  3
ObjectDBX Classes
 90
0
 91
0
280
0
281
0
  0
ENDSEC
  0
SECTION
  2
TABLES
  0
TABLE
  2
VPORT
  5
8
330
0
100
AcDbSymbolTable
 70
1
  0
VPORT
  5
23
330
8
100
AcDbSymbolTableRecord
100
AcDbViewportTableRecord
  2
*Active
 70
0
 10
0.0
 20
0.0
 11
1.0
 21
1.0
 12
0.0
 22
0.0
 13
0.0
 23
0.0
 14
0.5
 24
0.5
 15
0.5
 25
0.5
 16
0.0
 26
0.0
 36
1.0
 17
0.0
 27
0.0
 37
0.0
 40
1000.0
 41
1.34
 42
50.0
 43
0.0
 44
0.0
 50
0.0
 51
0.0
 71
0
 72
1000
 73
1
 74
3
 75
0
 76
0
 77
0
 78
0
281
0
 65
0
146
0.0
  0
ENDTAB
  0
TABLE
  2
LTYPE
  5
2
330
0
100
AcDbSymbolTable
 70
3
  0
LTYPE
  5
24
330
2
100
AcDbSymbolTableRecord
100
AcDbLinetypeTableRecord
  2
ByBlock
 70
0
  3

 72
65
 73
0
 40
0.0
  0
LTYPE
  5
25
330
2
100
AcDbSymbolTableRecord
100
AcDbLinetypeTableRecord
  2
ByLayer
 70
0
  3

 72
65
 73
0
 40
0.0
  0
LTYPE
  5
26
330
2
100
AcDbSymbolTableRecord
100
AcDbLinetypeTableRecord
  2
Continuous
 70
0
  3

 72
65
 73
0
 40
0.0
  0
ENDTAB
  0
TABLE
  2
LAYER
  5
1
330
0
100
AcDbSymbolTable
 70
2
  0
LAYER
  5
27
330
1
100
AcDbSymbolTableRecord
100
AcDbLayerTableRecord
  2
0
 70
0
 62
7
  6
Continuous
370
-3
390
13
347
21
  0
LAYER
  5
28
330
1
100
AcDbSymbolTableRecord
100
AcDbLayerTableRecord
  2
Defpoints
 70
0
 62
7
  6
Continuous
290
0
370
-3
390
13
347
21
  0
ENDTAB
  0
TABLE
  2
STYLE
  5
5
330
0
100
AcDbSymbolTable
 70
1
  0
STYLE
  5
29
330
5
100
AcDbSymbolTableRecord
100
AcDbTextStyleTableRecord
  2
Standard
 70
0
 40
0.0
 41
1.0
 50
0.0
 71
0
 42
2.5
  3
txt
  4

  0
ENDTAB
  0
TABLE
  2
VIEW
  5
7
330
0
100
AcDbSymbolTable
 70
0
  0
ENDTAB
  0
TABLE
  2
UCS
  5
6
330
0
100
AcDbSymbolTable
 70
0
  0
ENDTAB
  0
TABLE
  2
APPID
  5
3
330
0
100
AcDbSymbolTable
 70
3
  0
APPID
  5
2A
330
3
100
AcDbSymbolTableRecord
100
AcDbRegAppTableRecord
  2
ACAD
 70
0
  0
APPID
  5
13C
330
3
100
AcDbSymbolTableRecord
100
AcDbRegAppTableRecord
  2
HATCHBACKGROUNDCOLOR
 70
0
  0
APPID
  5
13D
330
3
100
AcDbSymbolTableRecord
100
AcDbRegAppTableRecord
  2
EZDXF
 70
0
  0
ENDTAB
  0
TABLE
  2
DIMSTYLE
  5
4
330
0
100
AcDbSymbolTable
 70
1
100
AcDbDimStyleTable
  0
DIMSTYLE
105
2B
330
4
100
AcDbSymbolTableRecord
100
AcDbDimStyleTableRecord
  2
Standard
 70
0
 40
1.0
 41
2.5
 42
0.625
 43
3.75
 44
1.25
 45
0.0
 46
0.0
 47
0.0
 48
0.0
 49
2.5
140
2.5
141
2.5
142
0.0
143
0.03937007874
144
1.0
145
0.0
146
1.0
147
0.625
148
0.0
 69
0
 70
0
 71
0
 72
0
 73
0
 74
0
 75
0
 76
0
 77
1
 78
8
 79
3
170
0
171
3
172
1
173
0
174
0
175
0
176
0
177
0
178
0
179
2
271
2
272
2
273
2
274
3
275
0
276
0
277
2
278
44
279
0
280
0
281
0
282
0
283
0
284
8
285
0
286
0
288
0
289
3
290
0
371
-2
372
-2
  0
ENDTAB
  0
TABLE
  2
BLOCK_RECORD
  5
9
330
0
100
AcDbSymbolTable
 70
2
  0
BLOCK_RECORD
  5
17
330
9
100
AcDbSymbolTableRecord
100
AcDbBlockTableRecord
  2
*Model_Space
340
1A
 70
0
280
1
281
0
  0
BLOCK_RECORD
  5
1B
330
9
100
AcDbSymbolTableRecord
100
AcDbBlockTableRecord
  2
*Paper_Space
340
1E
 70
0
280
1
281
0
  0
ENDTAB
  0
ENDSEC
  0
SECTION
  2
BLOCKS
  0
BLOCK
  5
18
330
17
100
AcDbEntity
  8
0
100
AcDbBlockBegin
  2
*Model_Space
 70
0
 10
0.0
 20
0.0
 30
0.0
  3
*Model_Space
  1

  0
ENDBLK
  5
19
330
17
100
AcDbEntity
  8
0
100
AcDbBlockEnd
  0
BLOCK
  5
1C
330
1B
100
AcDbEntity
  8
0
100
AcDbBlockBegin
  2
*Paper_Space
 70
0
 10
0.0
 20
0.0
 30
0.0
  3
*Paper_Space
  1

  0
ENDBLK
  5
1D
330
1B
100
AcDbEntity
  8
0
100
AcDbBlockEnd
  0
ENDSEC
  0
SECTION
  2
ENTITIES
  0
LWPOLYLINE
  5
2F
330
17
100
AcDbEntity
  8
0
 62
0
100
AcDbPolyline
 90
203
 70
0
 10
32.95959595959596
 20
497.7259286875026
 10
35.494949494949495
 20
494.6792152389072
 10
38.03030303030303
 20
491.31700520782925
 10
40.56565656565657
 20
487.7608176249447
 10
43.101010101010104
 20
484.1391823750554
 10
45.63636363636364
 20
480.5829947921708
 10
48.17171717171718
 20
477.2207847610929
 10
50.70707070707071
 20
474.1740713124975
 10
53.24242424242424
 20
471.55297060855145
 10
55.77777777777778
 20
469.4522160579065
 10
58.313131313131315
 20
467.94773440348564
 10
60.84848484848485
 20
467.0939015321683
 10
63.38383838383839
 20
466.92157718856373
 10
65.91919191919192
 20
467.4369896234366
 10
68.45454545454545
 20
468.6215104884965
 10
70.98989898989899
 20
470.43232811344114
 10
73.52525252525253
 20
472.8039948312658
 10
76.06060606060606
 20
475.6507924274709
 10
78.5959595959596
 20
478.8698302196708
 10
81.13131313131314
 20
482.34476379493424
 10
83.66666666666667
 20
485.95000000000005
 10
86.20202020202021
 20
489.55523620506585
 10
88.73737373737374
 20
493.0301697803293
 10
91.27272727272728
 20
496.2492075725292
 10
93.80808080808082
 20
499.0960051687343
 10
96.34343434343435
 20
501.46767188655895
 10
98.87878787878789
 20
503.2784895115036
 10
101.41414141414143
 20
504.4630103765635
 10
103.94949494949495
 20
504.97842281143636
 10
106.48484848484848
 20
504.8060984678318
 10
109.02020202020202
 20
503.9522655965145
 10
111.55555555555556
 20
502.4477839420936
 10
114.0909090909091
 20
500.34702939144864
 10
116.62626262626263
 20
497.7259286875026
 10
119.16161616161617
 20
494.6792152389072
 10
121.6969696969697
 20
491.3170052078293
 10
124.23232323232324
 20
487.7608176249447
 10
126.76767676767678
 20
484.1391823750554
 10
129.3030303030303
 20
480.58299479217084
 10
131.83838383838383
 20
477.2207847610929
 10
134.37373737373738
 20
474.1740713124975
 10
136.9090909090909
 20
471.55297060855145
 10
139.44444444444446
 20
469.45221605790647
 10
141.97979797979798
 20
467.94773440348564
 10
144.51515151515153
 20
467.0939015321683
 10
147.05050505050505
 20
466.92157718856373
 10
149.5858585858586
 20
467.4369896234366
 10
152.12121212121212
 20
468.6215104884965
 10
154.65656565656568
 20
470.43232811344114
 10
157.1919191919192
 20
472.8039948312658
 10
159.72727272727275
 20
475.65079242747095
 10
162.26262626262627
 20
478.8698302196708
 10
164.7979797979798
 20
482.3447637949342
 10
167.33333333333334
 20
485.95000000000005
 10
169.86868686868686
 20
489.55523620506585
 10
172.40404040404042
 20
493.0301697803293
 10
174.93939393939394
 20
496.24920757252914
 10
177.4747474747475
 20
499.0960051687343
 10
180.010101010101
 20
501.46767188655895
 10
182.54545454545456
 20
503.2784895115036
 10
185.08080808080808
 20
504.4630103765635
 10
187.61616161616163
 20
504.97842281143636
 10
190.15151515151516
 20
504.8060984678318
 10
192.6868686868687
 20
503.95226559651445
 10
195.22222222222223
 20
502.44778394209357
 10
197.75757575757578
 20
500.34702939144864
 10
200.2929292929293
 20
497.7259286875026
 10
202.82828282828285
 20
494.6792152389072
 10
205.36363636363637
 20
491.3170052078293
 10
207.8989898989899
 20
487.76081762494476
 10
210.43434343434345
 20
484.1391823750554
 10
212.96969696969697
 20
480.58299479217084
 10
215.50505050505052
 20
477.22078476109283
 10
218.04040404040404
 20
474.1740713124975
 10
220.5757575757576
 20
471.5529706085514
 10
223.11111111111111
 20
469.4522160579065
 10
225.64646464646466
 20
467.94773440348564
 10
228.1818181818182
 20
467.0939015321683
 10
230.71717171717174
 20
466.92157718856373
 10
233.25252525252526
 20
467.4369896234366
 10
235.7878787878788
 20
468.6215104884965
 10
238.32323232323233
 20
470.43232811344114
 10
240.85858585858588
 20
472.80399483126587
 10
243.3939393939394
 20
475.6507924274709
 10
245.92929292929293
 20
478.8698302196708
 10
248.46464646464648
 20
482.34476379493424
 10
251.0
 20
485.95000000000005
 10
251.0
 20
466.90000000000003
 10
251.0
 20
19.049999999999983
 10
248.46464646464648
 20
15.444763794934216
 10
245.92929292929293
 20
11.96983021967077
 10
243.3939393939394
 20
8.75079242747086
 10
240.85858585858588
 20
5.903994831265795
 10
238.32323232323233
 20
3.5323281134411157
 10
235.7878787878788
 20
1.721510488496424
 10
233.25252525252526
 20
0.5369896234365257
 10
230.71717171717174
 20
0.021577188563696836
 10
228.1818181818182
 20
0.1939015321682298
 10
225.64646464646466
 20
1.0477344034855705
 10
223.11111111111111
 20
2.5522160579064597
 10
220.5757575757576
 20
4.652970608551371
 10
218.04040404040404
 20
7.274071312497474
 10
215.50505050505052
 20
10.320784761092796
 10
212.96969696969697
 20
13.682994792170778
 10
210.43434343434345
 20
17.239182375055318
 10
207.8989898989899
 20
20.860817624944698
 10
205.36363636363637
 20
24.41700520782924
 10
202.82828282828285
 20
27.779215238907128
 10
200.2929292929293
 20
30.825928687502536
 10
197.75757575757578
 20
33.447029391448595
 10
195.22222222222223
 20
35.547783942093545
 10
192.6868686868687
 20
37.05226559651442
 10
190.15151515151516
 20
37.90609846783176
 10
187.61616161616163
 20
38.0784228114363
 10
185.08080808080808
 20
37.56301037656346
 10
182.54545454545456
 20
36.378489511503574
 10
180.010101010101
 20
34.567671886558884
 10
177.4747474747475
 20
32.19600516873423
 10
174.93939393939394
 20
29.349207572529117
 10
172.40404040404042
 20
26.130169780329233
 10
169.86868686868686
 20
22.655236205065787
 10
167.33333333333334
 20
19.049999999999986
 10
164.7979797979798
 20
15.444763794934154
 10
162.26262626262627
 20
11.969830219670776
 10
159.72727272727275
 20
8.750792427470891
 10
157.1919191919192
 20
5.9039948312657735
 10
154.65656565656568
 20
3.5323281134411193
 10
152.12121212121212
 20
1.721510488496424
 10
149.5858585858586
 20
0.5369896234365363
 10
147.05050505050505
 20
0.021577188563696836
 10
144.51515151515153
 20
0.1939015321682298
 10
141.97979797979798
 20
1.047734403485567
 10
139.44444444444446
 20
2.552216057906442
 10
136.9090909090909
 20
4.65297060855139
 10
134.37373737373738
 20
7.2740713124974725
 10
131.83838383838383
 20
10.32078476109285
 10
129.3030303030303
 20
13.682994792170772
 10
126.76767676767678
 20
17.239182375055314
 10
124.23232323232324
 20
20.86081762494466
 10
121.6969696969697
 20
24.417005207829234
 10
119.16161616161617
 20
27.779215238907156
 10
116.62626262626263
 20
30.825928687502532
 10
114.0909090909091
 20
33.44702939144861
 10
111.55555555555556
 20
35.54778394209356
 10
109.02020202020202
 20
37.05226559651443
 10
106.48484848484848
 20
37.90609846783177
 10
103.94949494949495
 20
38.0784228114363
 10
101.41414141414143
 20
37.56301037656347
 10
98.87878787878789
 20
36.378489511503574
 10
96.34343434343435
 20
34.5676718865589
 10
93.80808080808082
 20
32.19600516873423
 10
91.27272727272728
 20
29.34920757252913
 10
88.73737373737374
 20
26.130169780329236
 10
86.20202020202021
 20
22.65523620506581
 10
83.66666666666667
 20
19.049999999999994
 10
81.13131313131314
 20
15.444763794934193
 10
78.5959595959596
 20
11.969830219670765
 10
76.06060606060606
 20
8.750792427470865
 10
73.52525252525253
 20
5.903994831265765
 10
70.98989898989899
 20
3.5323281134411015
 10
68.45454545454545
 20
1.7215104884964205
 10
65.91919191919192
 20
0.5369896234365257
 10
63.38383838383839
 20
0.021577188563696836
 10
60.84848484848485
 20
0.19390153216823336
 10
58.313131313131315
 20
1.047734403485567
 10
55.77777777777778
 20
2.552216057906449
 10
53.24242424242424
 20
4.652970608551382
 10
50.70707070707071
 20
7.274071312497462
 10
48.17171717171718
 20
10.320784761092824
 10
45.63636363636364
 20
13.68299479217076
 10
43.101010101010104
 20
17.239182375055318
 10
40.56565656565657
 20
20.860817624944673
 10
38.03030303030303
 20
24.41700520782923
 10
35.494949494949495
 20
27.779215238907167
 10
32.95959595959596
 20
30.825928687502532
 10
30.424242424242426
 20
33.447029391448616
 10
27.88888888888889
 20
35.54778394209355
 10
25.353535353535356
 20
37.05226559651443
 10
22.81818181818182
 20
37.90609846783176
 10
20.282828282828284
 20
38.0784228114363
 10
17.747474747474747
 20
37.56301037656346
 10
15.212121212121213
 20
36.378489511503574
 10
12.676767676767678
 20
34.56767188655889
 10
10.141414141414142
 20
32.19600516873423
 10
7.606060606060606
 20
29.34920757252913
 10
5.070707070707071
 20
26.130169780329236
 10
2.5353535353535355
 20
22.655236205065812
 10
0.0
 20
19.049999999999997
 10
0.0
 20
466.90000000000003
 10
0.0
 20
485.95000000000005
 10
2.5353535353535355
 20
489.55523620506585
 10
5.070707070707071
 20
493.0301697803293
 10
7.606060606060606
 20
496.2492075725292
 10
10.141414141414142
 20
499.0960051687343
 10
12.676767676767678
 20
501.46767188655895
 10
15.212121212121213
 20
503.2784895115036
 10
17.747474747474747
 20
504.4630103765635
 10
20.282828282828284
 20
504.97842281143636
 10
22.81818181818182
 20
504.8060984678318
 10
25.353535353535356
 20
503.95226559651445
 10
27.88888888888889
 20
502.4477839420936
 10
30.424242424242426
 20
500.34702939144864
 10
32.95959595959596
 20
497.7259286875026
  0
LWPOLYLINE
  5
30
330
17
100
AcDbEntity
  8
0
 62
0
100
AcDbPolyline
 90
15
 70
0
 10
238.9648393116244
 20
29.872146347078314
 10
239.982828269945
 20
28.949494936611664
 10
240.218691383025
 20
28.689260093780696
 10
242.20231660734862
 20
29.652575247082893
 10
243.0
 20
40.78838049031402
 10
243.0
 20
43.95607800898445
 10
231.15665394626558
 20
43.404541974049096
 10
230.4137714072044
 20
33.03376661838682
 10
231.45557329794718
 20
32.98258617341075
 10
232.81459784155913
 20
32.78099392564522
 10
234.1473188148958
 20
32.44716470025092
 10
235.4409013864446
 20
31.98431345515801
 10
236.68288764889732
 20
31.39689770087697
 10
237.86131659560778
 20
30.690574572235633
 10
238.9648393116244
 20
29.872146347078314
  0
LWPOLYLINE
  5
31
330
17
100
AcDbEntity
  8
0
 62
0
100
AcDbPolyline
 90
13
 70
0
 10
44.544309824600255
 20
29.06111066354938
 10
47.07966335995379
 20
25.50492308066482
 10
47.11933436359889
 20
25.448770035416896
 10
49.19498266671709
 20
22.483802445641427
 10
49.352835299749074
 20
23.113985481562466
 10
49.81568654484198
 20
24.40756805311125
 10
50.40310229912303
 20
25.649554315563964
 10
51.109425427764364
 20
26.827983262274422
 10
51.927853652921684
 20
27.93150597829103
 10
52.626536986499865
 20
28.70238424377323
 10
50.43206442799419
 20
29.316656727902625
 10
46.85570447320677
 20
25.819056711742565
 10
44.544309824600255
 20
29.06111066354938
  0
LWPOLYLINE
  5
32
330
17
100
AcDbEntity
  8
0
 62
0
100
AcDbPolyline
 90
13
 70
0
 10
79.73933061095559
 20
27.37049264024991
 10
80.77060912054064
 20
28.783954024799975
 10
75.37796487566084
 20
31.542869064118747
 10
72.9545945656416
 20
28.612869370317767
 10
73.57214634707832
 20
27.931505978291042
 10
74.39057457223564
 20
26.82798326227443
 10
75.09689770087697
 20
25.649554315563968
 10
75.68431345515802
 20
24.407568053111262
 10
76.14716470025093
 20
23.113985481562473
 10
76.30404623274266
 20
22.487679296314624
 10
77.12279367241068
 20
23.651926361323824
 10
79.65814720776422
 20
27.25716256638964
 10
79.73933061095559
 20
27.37049264024991
  0
LWPOLYLINE
  5
33
330
17
100
AcDbEntity
  8
0
 62
0
100
AcDbPolyline
 90
8
 70
0
 10
8.0
 20
41.05551697957021
 10
8.027115782503973
 20
41.07772083124202
 10
10.562469317857508
 20
42.8885384561867
 10
8.332283158948737
 20
41.2956795719536
 10
11.479777201544493
 20
44.37385832155127
 10
9.76124150166288
 20
51.085537325218354
 10
8.0
 20
51.578540615764496
 10
8.0
 20
41.05551697957021
  0
LWPOLYLINE
  5
34
330
17
100
AcDbEntity
  8
0
 62
0
100
AcDbPolyline
 90
15
 70
0
 10
20.247476845691992
 20
46.07337414040485
 10
20.109964967969354
 20
46.07655498553645
 10
20.82532515971891
 20
46.06000768779788
 10
23.360678695072448
 20
45.88768334419334
 10
24.041547972797147
 20
45.81200608503434
 10
24.713446344340678
 20
45.67835504979583
 10
25.371446799721884
 20
45.48771029738629
 10
27.90680033507542
 20
44.63387742606896
 10
26.524055736153347
 20
45.09954533972801
 10
30.85472559882328
 20
49.3348435676657
 10
29.136189898476005
 20
56.04652257179845
 10
22.464437529444695
 20
57.9140664991923
 10
17.51122086076066
 20
53.06993142385039
 10
19.229756560642272
 20
46.358252420183305
 10
20.247476845691992
 20
46.07337414040485
  0
LWPOLYLINE
  5
35
330
17
100
AcDbEntity
  8
0
 62
0
100
AcDbPolyline
 90
14
 70
0
 10
32.9930794199854
 20
41.70791697817846
 10
35.528432955338936
 20
39.607162427533524
 10
36.17437006448267
 20
39.0090463026909
 10
38.7097235998362
 20
36.387945598744814
 10
39.108912711316336
 20
35.943145068212964
 10
41.64426624666987
 20
32.8964316196176
 10
41.8824384558628
 20
32.5958514898826
 10
44.41779199121633
 20
29.233641458804666
 10
42.078051244589524
 20
32.33644337527723
 10
44.83853904809803
 20
35.03613868225369
 10
43.120003348216414
 20
41.74781768592078
 10
36.44825097871944
 20
43.61536161331463
 10
33.80768515606354
 20
41.03294732081705
 10
32.9930794199854
 20
41.70791697817846
  0
LWPOLYLINE
  5
36
330
17
100
AcDbEntity
  8
0
 62
0
100
AcDbPolyline
 90
13
 70
0
 10
87.83388040187613
 20
37.516618808767085
 10
88.34296586624481
 20
38.038309395023795
 10
90.87831940159835
 20
40.40997611284846
 10
91.69378244917067
 20
41.07772083124204
 10
94.22913598452419
 20
42.888538456186716
 10
94.84392347349797
 20
43.286446462073286
 10
95.49252151462208
 20
43.62646854782255
 10
98.02787504997562
 20
44.81098941288244
 10
95.58560099053501
 20
43.669955414561365
 10
91.45589235285297
 20
45.782743640802835
 10
79.82248668279499
 20
38.2552027055994
 10
85.77807757871778
 20
35.20828016737806
 10
87.83388040187613
 20
37.516618808767085
  0
LWPOLYLINE
  5
37
330
17
100
AcDbEntity
  8
0
 62
0
100
AcDbPolyline
 90
15
 70
0
 10
118.00038290323761
 20
40.59708613982302
 10
116.65974608665209
 20
41.70791697817845
 10
119.19509962200563
 20
39.6071624275335
 10
119.84103673114933
 20
39.009046302690905
 10
122.37639026650287
 20
36.38794559874483
 10
122.77557937798301
 20
35.94314506821296
 10
125.31093291333656
 20
32.89643161961758
 10
125.54910512252945
 20
32.595851489882605
 10
128.084458657883
 20
29.233641458804684
 10
128.21097649126693
 20
29.061110663549364
 10
129.37320077933285
 20
27.430928708995822
 10
129.95226236712188
 20
27.610275270044838
 10
133.90389755135402
 20
33.85885783340785
 10
128.55658543808386
 20
41.510744343139265
 10
118.00038290323761
 20
40.59708613982302
  0
LWPOLYLINE
  5
38
330
17
100
AcDbEntity
  8
0
 62
0
100
AcDbPolyline
 90
13
 70
0
 10
171.5005470685428
 20
37.51661880876709
 10
172.0096325329115
 20
38.038309395023795
 10
174.54498606826502
 20
40.40997611284845
 10
175.36044911583733
 20
41.07772083124202
 10
177.89580265119088
 20
42.88853845618671
 10
178.51059014016465
 20
43.28644646207329
 10
179.15918818128876
 20
43.62646854782255
 10
181.69454171664228
 20
44.810989412882435
 10
179.9792156129775
 20
44.009586558471646
 10
174.84426961513236
 20
49.181735864933614
 10
171.18169514276087
 20
45.90034112576399
 10
170.50073310351348
 20
36.39398721021141
 10
171.5005470685428
 20
37.51661880876709
  0
LWPOLYLINE
  5
39
330
17
100
AcDbEntity
  8
0
 62
0
100
AcDbPolyline
 90
5
 70
0
 10
243.0
 20
86.42944616359638
 10
237.58851684862748
 20
82.73996299747381
 10
238.10625900840387
 20
75.8311321950518
 10
243.0
 20
73.4744280232405
 10
243.0
 20
86.42944616359638
  0
LWPOLYLINE
  5
3A
330
17
100
AcDbEntity
  8
0
 62
0
100
AcDbPolyline
 90
7
 70
0
 10
243.0
 20
120.09092124350013
 10
240.7241579554975
 20
121.18691027313474
 10
234.99980604974553
 20
117.28411700911823
 10
235.51754820952192
 20
110.37528620716188
 10
241.75964227505028
 20
107.36924866829071
 10
243.0
 20
108.21490942674865
 10
243.0
 20
120.09092124350013
  0
LWPOLYLINE
  5
3B
330
17
100
AcDbEntity
  8
0
 62
0
100
AcDbPolyline
 90
7
 70
0
 10
243.0
 20
153.3884164009784
 10
234.8536208178848
 20
157.31151037672538
 10
228.57536865165457
 20
152.25362430009994
 10
230.19429895235226
 20
146.23632605383176
 10
239.17093147616833
 20
141.9134026804008
 10
243.0
 20
144.524014866641
 10
243.0
 20
153.3884164009784
  0
LWPOLYLINE
  5
3C
330
17
100
AcDbEntity
  8
0
 62
0
100
AcDbPolyline
 90
5
 70
0
 10
243.0
 20
170.86802803123825
 10
238.89297511428595
 20
168.37280256263915
 10
238.54140584822744
 20
164.4148966996931
 10
243.0
 20
162.2677484432469
 10
243.0
 20
170.86802803123825
  0
LWPOLYLINE
  5
3D
330
17
100
AcDbEntity
  8
0
 62
0
100
AcDbPolyline
 90
6
 70
0
 10
231.51437443960458
 20
180.22959553087134
 10
235.74986825929955
 20
175.82395046725873
 10
243.0
 20
180.2287724182506
 10
243.0
 20
187.16571395009356
 10
234.24138585710898
 20
187.81908815456558
 10
231.51437443960458
 20
180.22959553087134
  0
LWPOLYLINE
  5
3E
330
17
100
AcDbEntity
  8
0
 62
0
100
AcDbPolyline
 90
6
 70
0
 10
229.72559443069622
 20
202.35556820044297
 10
233.8135912627913
 20
195.87322923643518
 10
243.0
 20
195.1879424541606
 10
243.0
 20
205.89486291738766
 10
231.1962530245073
 20
205.43377268277112
 10
229.72559443069622
 20
202.35556820044297
  0
LWPOLYLINE
  5
3F
330
17
100
AcDbEntity
  8
0
 62
0
100
AcDbPolyline
 90
6
 70
0
 10
230.10604665102437
 20
216.64406063510108
 10
231.334587123245
 20
213.44527779063213
 10
243.0
 20
213.90096427533481
 10
243.0
 20
228.14641080623227
 10
238.9283748921007
 20
230.15982849951837
 10
230.10604665102437
 20
216.64406063510108
  0
LWPOLYLINE
  5
40
330
17
100
AcDbEntity
  8
0
 62
0
100
AcDbPolyline
 90
5
 70
0
 10
243.0
 20
245.7782456534244
 10
238.22235223045573
 20
242.12545416839424
 10
240.38212823402137
 20
238.36562828077007
 10
243.0
 20
237.07109128577017
 10
243.0
 20
245.7782456534244
  0
LWPOLYLINE
  5
41
330
17
100
AcDbEntity
  8
0
 62
0
100
AcDbPolyline
 90
6
 70
0
 10
232.9861555248499
 20
262.8307910758071
 10
232.6356008281
 20
247.9243677068502
 10
243.0
 20
255.8485577830148
 10
243.0
 20
263.7564869429067
 10
239.06593989999965
 20
266.15287204235796
 10
232.9861555248499
 20
262.8307910758071
  0
LWPOLYLINE
  5
42
330
17
100
AcDbEntity
  8
0
 62
0
100
AcDbPolyline
 90
6
 70
0
 10
234.5946330265142
 20
317.98886396000165
 10
241.91691010259092
 20
312.3423465984874
 10
243.0
 20
313.23831113454213
 10
243.0
 20
325.40362517379197
 10
234.7197933155112
 20
324.0247737980448
 10
234.5946330265142
 20
317.98886396000165
  0
LWPOLYLINE
  5
43
330
17
100
AcDbEntity
  8
0
 62
0
100
AcDbPolyline
 90
7
 70
0
 10
243.0
 20
342.7717701516831
 10
234.25119287101552
 20
348.3177822424099
 10
227.87503732414916
 20
339.25323775000874
 10
227.90066736284643
 20
336.9662838686258
 10
232.36258859280497
 20
331.7424053448253
 10
243.0
 20
333.51378737872545
 10
243.0
 20
342.7717701516831
  0
LWPOLYLINE
  5
44
330
17
100
AcDbEntity
  8
0
 62
0
100
AcDbPolyline
 90
5
 70
0
 10
243.0
 20
360.20557207142696
 10
237.12726516183466
 20
355.98355727745223
 10
237.12762145791203
 20
355.96634668773044
 10
243.0
 20
352.2437497764981
 10
243.0
 20
360.20557207142696
  0
LWPOLYLINE
  5
45
330
17
100
AcDbEntity
  8
0
 62
0
100
AcDbPolyline
 90
6
 70
0
 10
229.58686873642728
 20
366.6754489271902
 10
233.39947856776416
 20
363.1563991118223
 10
243.0
 20
370.05838679462477
 10
243.0
 20
379.64944159785597
 10
228.8989082640037
 20
382.5225483785384
 10
229.58686873642728
 20
366.6754489271902
  0
LWPOLYLINE
  5
46
330
17
100
AcDbEntity
  8
0
 62
0
100
AcDbPolyline
 90
5
 70
0
 10
243.0
 20
400.06036350121246
 10
234.76553920609877
 20
401.7381403423846
 10
230.72071724710986
 20
390.31572235338393
 10
243.0
 20
387.81381035945486
 10
243.0
 20
400.06036350121246
  0
LWPOLYLINE
  5
47
330
17
100
AcDbEntity
  8
0
 62
0
100
AcDbPolyline
 90
5
 70
0
 10
243.0
 20
422.21157272817044
 10
241.990411572624
 20
421.9590625125915
 10
237.53857074910775
 20
409.33750209035355
 10
243.0
 20
408.22473226292703
 10
243.0
 20
422.21157272817044
  0
LWPOLYLINE
  5
48
330
17
100
AcDbEntity
  8
0
 62
0
100
AcDbPolyline
 90
7
 70
0
 10
243.0
 20
441.48498217746476
 10
238.84612993663177
 20
445.01077350331474
 10
231.64234651764855
 20
440.4888589411043
 10
231.89828320546076
 20
433.56538463905457
 10
239.44965525250882
 20
429.5700174561702
 10
243.0
 20
430.4580014041118
 10
243.0
 20
441.48498217746476
  0
LWPOLYLINE
  5
49
330
17
100
AcDbEntity
  8
0
 62
0
100
AcDbPolyline
 90
15
 70
0
 10
228.99149251260727
 20
459.02041151809897
 10
230.17467484028109
 20
458.93999231220215
 10
227.63932130492753
 20
459.1123166558067
 10
226.9584520272028
 20
459.1879939149657
 10
226.28655365565925
 20
459.32164495020425
 10
225.62855320027802
 20
459.51228970261377
 10
223.0931996649245
 20
460.36612257393114
 10
222.31006474335553
 20
460.676666002863
 10
221.56392932514737
 20
461.0678430271486
 10
221.90679907916711
 20
460.8880864215487
 10
216.08353087631986
 20
453.24627048624683
 10
227.38914007740095
 20
447.26456812731925
 10
235.26854500360787
 20
452.2105796603486
 10
235.27731817262247
 20
452.4951619721018
 10
228.99149251260727
 20
459.02041151809897
  0
LWPOLYLINE
  5
4A
330
17
100
AcDbEntity
  8
0
 62
0
100
AcDbPolyline
 90
22
 70
0
 10
198.14949493661166
 20
476.05050506338836
 10
197.13150597829105
 20
475.1278536529217
 10
197.00552951031486
 20
475.03442313662975
 10
196.54002216877416
 20
468.41227736473087
 10
206.93077099276707
 20
455.311338810809
 10
207.21217175619677
 20
455.2274649828673
 10
207.63529445463791
 20
455.358777058404
 10
215.36014070840184
 20
465.4960146271756
 10
215.47156704466116
 20
465.3928375724664
 10
214.82562993551733
 20
465.9909536973091
 10
212.29027640016378
 20
468.61205440125525
 10
211.8910872886837
 20
469.05685493178703
 10
209.35573375333018
 20
472.10356838038234
 10
209.11756154413717
 20
472.40414851011747
 10
206.58220800878362
 20
475.7663585411955
 10
206.45569017539975
 20
475.9388893364507
 10
203.92033664004623
 20
479.49507691933525
 10
205.71323484498748
 20
476.98028667612795
 10
200.41048154357674
 20
479.03942911568845
 10
199.89057457223564
 20
478.17201673772564
 10
199.07214634707833
 20
477.068494021709
 10
198.14949493661166
 20
476.05050506338836
  0
LWPOLYLINE
  5
4B
330
17
100
AcDbEntity
  8
0
 62
0
100
AcDbPolyline
 90
18
 70
0
 10
179.36849402170895
 20
475.1278536529217
 10
178.35050506338834
 20
476.05050506338836
 10
177.42785365292167
 20
477.068494021709
 10
177.35627143835688
 20
477.16501146503134
 10
171.3402710465329
 20
477.7406293547385
 10
171.26066938904438
 20
477.62950735975005
 10
169.2702843188743
 20
474.9015028382534
 10
174.9124733088538
 20
462.5405851701275
 10
188.60793577414006
 20
469.6592283957638
 10
188.7707652209359
 20
471.9755835547741
 10
188.25
 20
471.95000000000005
 10
186.87776003538616
 20
472.0174138265893
 10
185.5187354917742
 20
472.2190060743548
 10
184.18601451843753
 20
472.5528352997491
 10
182.89243194688873
 20
473.015686544842
 10
181.65044568443602
 20
473.60310229912307
 10
180.47201673772557
 20
474.3094254277644
 10
179.36849402170895
 20
475.1278536529217
  0
LWPOLYLINE
  5
4C
330
17
100
AcDbEntity
  8
0
 62
0
100
AcDbPolyline
 90
17
 70
0
 10
166.21483637206256
 20
452.13675820417706
 10
167.22026616102085
 20
452.8030160834082
 10
168.70296846795827
 20
456.87847181884575
 10
163.62640735787394
 20
468.0002109231608
 10
163.1661195981239
 20
467.483381191233
 10
162.65703413375522
 20
466.96169060497624
 10
160.1216805984017
 20
464.5900238871516
 10
159.30621755082933
 20
463.922279168758
 10
156.77086401547578
 20
462.11146154381333
 10
156.156076526502
 20
461.71355353792677
 10
155.5074784853779
 20
461.3735314521775
 10
152.97212495002438
 20
460.1890105871176
 10
152.09336544631077
 20
459.8401212327913
 10
151.17958147672965
 20
459.59734375470543
 10
149.274373214456
 20
459.2100336554607
 10
153.38879384985194
 20
452.84702927023176
 10
166.21483637206256
 20
452.13675820417706
  0
LWPOLYLINE
  5
4D
330
17
100
AcDbEntity
  8
0
 62
0
100
AcDbPolyline
 90
12
 70
0
 10
134.83700524365813
 20
462.9122233965148
 10
134.3402539133479
 20
463.2920830218216
 10
131.80490037799436
 20
465.3928375724666
 10
131.15896326885067
 20
465.9909536973092
 10
128.62360973349715
 20
468.61205440125525
 10
128.22442062201702
 20
469.0568549317871
 10
127.3783274546818
 20
470.0735981179895
 10
125.70240753516555
 20
466.06543444292623
 10
129.9016740778461
 20
460.55488451486457
 10
137.1870104208156
 20
461.48930750801026
 10
135.36190912312725
 20
462.5723246815694
 10
134.83700524365813
 20
462.9122233965148
  0
LWPOLYLINE
  5
4E
330
17
100
AcDbEntity
  8
0
 62
0
100
AcDbPolyline
 90
10
 70
0
 10
87.59400272237775
 20
477.62950735975016
 10
86.07701477257619
 20
475.5503368273059
 10
86.29708404559642
 20
475.310987793468
 10
92.55157663841152
 20
478.82466468045374
 10
92.23643563245638
 20
479.35044568443607
 10
91.64901987817532
 20
480.5924319468888
 10
91.18616863308242
 20
481.88601451843755
 10
91.02928710059066
 20
482.5123207036854
 10
87.67518612556911
 20
477.7428374336104
 10
87.59400272237775
 20
477.62950735975016
  0
LWPOLYLINE
  5
4F
330
17
100
AcDbEntity
  8
0
 62
0
100
AcDbPolyline
 90
12
 70
0
 10
72.48940985983533
 20
461.71355353792677
 10
71.84081181871122
 20
461.3735314521775
 10
69.30545828335768
 20
460.1890105871176
 10
68.42669877964408
 20
459.8401212327913
 10
67.51291481006297
 20
459.59734375470543
 10
67.76224570008218
 20
459.66358690046286
 10
68.25746971415356
 20
458.34965959712866
 10
69.83078075386584
 20
457.4045391991735
 10
74.51778812550076
 20
463.1210860625239
 10
75.63955088416266
 20
463.922279168758
 10
73.10419734880912
 20
462.11146154381333
 10
72.48940985983533
 20
461.71355353792677
  0
LWPOLYLINE
  5
50
330
17
100
AcDbEntity
  8
0
 62
0
100
AcDbPolyline
 90
17
 70
0
 10
45.39971490809694
 20
454.5535611478612
 10
59.70268753590062
 20
458.3640377387405
 10
59.37325252409637
 20
459.23809401307193
 10
59.625118693869474
 20
459.1879939149657
 10
58.953220322325926
 20
459.32164495020425
 10
58.29521986694469
 20
459.51228970261377
 10
55.759866331591155
 20
460.36612257393114
 10
54.97673141002217
 20
460.676666002863
 10
54.23059599181401
 20
461.0678430271486
 10
51.69524245646048
 20
462.5723246815695
 10
51.17033857699144
 20
462.91222339651483
 10
50.673587246681286
 20
463.2920830218216
 10
48.13823371132775
 20
465.39283757246653
 10
48.02048120142435
 20
465.5018724520499
 10
41.65059504471719
 20
457.73278871886436
 10
41.880141344852746
 20
456.91109659718353
 10
45.39971490809694
 20
454.5535611478612
  0
LWPOLYLINE
  5
51
330
17
100
AcDbEntity
  8
0
 62
0
100
AcDbPolyline
 90
18
 70
0
 10
31.573841605870285
 20
476.8864761222619
 10
27.467421022243798
 20
469.8523979625665
 10
36.42516431491822
 20
463.97716519664976
 10
42.55916232487003
 20
471.45854602296083
 10
44.557753955350336
 20
469.0568549317871
 10
42.0224004199968
 20
472.10356838038246
 10
41.7842282108039
 20
472.4041485101174
 10
39.24887467545037
 20
475.7663585411953
 10
39.12235684206639
 20
475.9388893364507
 10
36.58700330671285
 20
479.4950769193353
 10
36.547332303067805
 20
479.5512299645831
 10
34.683650910638534
 20
482.21341262718505
 10
34.03091018186155
 20
481.0953027768348
 10
33.85098012182468
 20
480.5924319468888
 10
33.26356436754364
 20
479.35044568443607
 10
32.5572412389023
 20
478.17201673772564
 10
31.738813013744988
 20
477.068494021709
 10
31.573841605870285
 20
476.8864761222619
  0
LWPOLYLINE
  5
52
330
17
100
AcDbEntity
  8
0
 62
0
100
AcDbPolyline
 90
7
 70
0
 10
8.0
 20
398.76731496723835
 10
17.485469387378544
 20
401.9366330351681
 10
19.25177210988477
 20
410.59946843339134
 10
15.81002430524677
 20
415.8778511296027
 10
15.106515032239258
 20
416.0301011112519
 10
8.0
 20
412.6471566814898
 10
8.0
 20
398.76731496723835
  0
LWPOLYLINE
  5
53
330
17
100
AcDbEntity
  8
0
 62
0
100
AcDbPolyline
 90
7
 70
0
 10
8.0
 20
382.19769411102004
 10
12.84337126975879
 20
379.29874530304227
 10
23.82351273810491
 20
382.9674684126862
 10
25.20765542285517
 20
389.7559991093353
 10
20.020686727482826
 20
394.3489671858028
 10
8.0
 20
390.3325734705445
 10
8.0
 20
382.19769411102004
  0
LWPOLYLINE
  5
54
330
17
100
AcDbEntity
  8
0
 62
0
100
AcDbPolyline
 90
5
 70
0
 10
8.0
 20
357.50317916989235
 10
12.551352184265852
 20
357.59800020847473
 10
8.886066573206335
 20
372.3438314381987
 10
8.0
 20
372.87417724336797
 10
8.0
 20
357.50317916989235
  0
LWPOLYLINE
  5
55
330
17
100
AcDbEntity
  8
0
 62
0
100
AcDbPolyline
 90
5
 70
0
 10
8.0
 20
333.77776576569056
 10
15.844146009068936
 20
337.9424124095589
 10
13.138928540516645
 20
349.6085055713542
 10
8.0
 20
349.50144320350125
 10
8.0
 20
333.77776576569056
  0
LWPOLYLINE
  5
56
330
17
100
AcDbEntity
  8
0
 62
0
100
AcDbPolyline
 90
8
 70
0
 10
10.867280083708465
 20
285.0385348821059
 10
8.0
 20
281.08694513254017
 10
8.0
 20
276.73670968031763
 10
9.62029123865068
 20
273.1035016259179
 10
16.51098590157926
 20
272.3835522808135
 10
20.579827656038105
 20
277.9910942363553
 10
17.757974746637046
 20
284.31858553653586
 10
10.867280083708465
 20
285.0385348821059
  0
LWPOLYLINE
  5
57
330
17
100
AcDbEntity
  8
0
 62
0
100
AcDbPolyline
 90
7
 70
0
 10
8.0
 20
250.71150239206037
 10
11.321579335257411
 20
248.2042272315361
 10
18.501512913499027
 20
258.09937214255336
 10
15.67966000456363
 20
264.42686344366524
 10
8.788965341635048
 20
265.14681278876964
 10
8.0
 20
264.05948707738816
 10
8.0
 20
250.71150239206037
  0
LWPOLYLINE
  5
58
330
17
100
AcDbEntity
  8
0
 62
0
100
AcDbPolyline
 90
7
 70
0
 10
8.0
 20
219.7059984555858
 10
8.132257334887981
 20
219.4603172173724
 10
14.73998549953103
 20
219.0469357949682
 10
22.304420173633844
 20
229.48573554502804
 10
12.949293341487646
 20
236.4986634679139
 10
8.0
 20
230.61754391453033
 10
8.0
 20
219.7059984555858
  0
LWPOLYLINE
  5
59
330
17
100
AcDbEntity
  8
0
 62
0
100
AcDbPolyline
 90
6
 70
0
 10
17.369069237727672
 20
204.35639641629535
 10
14.108477286063135
 20
211.07080326098952
 10
8.0
 20
211.45295140143404
 10
8.0
 20
199.0123129466065
 10
13.485022000037134
 20
198.61930856117982
 10
17.369069237727672
 20
204.35639641629535
  0
LWPOLYLINE
  5
5A
330
17
100
AcDbEntity
  8
0
 62
0
100
AcDbPolyline
 90
6
 70
0
 10
15.939724187832326
 20
184.40753748323772
 10
12.913283980451524
 20
190.63976498795677
 10
8.0
 20
190.9918040775267
 10
8.0
 20
178.96104077384024
 10
12.055676950141788
 20
178.67044962812219
 10
15.939724187832326
 20
184.40753748323772
  0
LWPOLYLINE
  5
5B
330
17
100
AcDbEntity
  8
0
 62
0
100
AcDbPolyline
 90
5
 70
0
 10
8.0
 20
155.47579690476746
 10
17.434543451294303
 20
158.4370637122542
 10
11.483938930556178
 20
170.69090605489913
 10
8.0
 20
170.94053190476043
 10
8.0
 20
155.47579690476746
  0
LWPOLYLINE
  5
5C
330
17
100
AcDbEntity
  8
0
 62
0
100
AcDbPolyline
 90
6
 70
0
 10
11.273707784246653
 20
117.82950739990923
 10
11.289806403685361
 20
125.74476029593501
 10
8.0
 20
127.9935862248169
 10
8.0
 20
115.12464318844187
 10
8.176714291330427
 20
115.13686698917303
 10
11.273707784246653
 20
117.82950739990923
  0
LWPOLYLINE
  5
5D
330
17
100
AcDbEntity
  8
0
 62
0
100
AcDbPolyline
 90
4
 70
0
 10
8.0
 20
94.5831400112888
 10
10.888920071069151
 20
96.61800235286358
 10
8.0
 20
104.49923020895994
 10
8.0
 20
94.5831400112888
  0
LWPOLYLINE
  5
5E
330
17
100
AcDbEntity
  8
0
 62
0
100
AcDbPolyline
 90
7
 70
0
 10
8.0
 20
80.65481319161619
 10
17.30883042793721
 20
78.04910351019356
 10
22.262047096621245
 20
82.89323858553547
 10
20.54351139627397
 20
89.60491758920256
 10
16.451058462727815
 20
90.75046904254708
 10
8.0
 20
84.79781539018899
 10
8.0
 20
80.65481319161619
  0
LWPOLYLINE
  5
5F
330
17
100
AcDbEntity
  8
0
 62
0
100
AcDbPolyline
 90
6
 70
0
 10
16.87091214908287
 20
63.63354845354337
 10
15.152376448735595
 20
70.34522745721046
 10
8.0
 20
72.34730674117247
 10
8.0
 20
59.88604706627906
 10
11.917695480864495
 20
58.78941337820146
 10
16.87091214908287
 20
63.63354845354337
  0
LWPOLYLINE
  5
60
330
17
100
AcDbEntity
  8
0
 62
0
100
AcDbPolyline
 90
7
 70
0
 10
36.88616925757378
 20
58.030916670430486
 10
38.60470495792106
 20
51.31923766629774
 10
45.27645732695237
 20
49.451693738903884
 10
50.229673995636404
 20
54.295828814245795
 10
48.51113829528913
 20
61.00750781791288
 10
41.83938592579216
 20
62.875051745306735
 10
36.88616925757378
 20
58.030916670430486
  0
LWPOLYLINE
  5
61
330
17
100
AcDbEntity
  8
0
 62
0
100
AcDbPolyline
 90
7
 70
0
 10
24.620891508180648
 20
65.6179425521754
 10
31.29264387767762
 20
63.75039862478155
 10
36.245860545895994
 20
68.5945336996578
 10
34.52732484601438
 20
75.30621270379055
 10
27.85557247651741
 20
77.1737566311844
 10
22.902355807833374
 20
72.3296215558425
 10
24.620891508180648
 20
65.6179425521754
  0
LWPOLYLINE
  5
62
330
17
100
AcDbEntity
  8
0
 62
0
100
AcDbPolyline
 90
7
 70
0
 10
28.29349075537175
 20
91.5893116878346
 10
30.012026455719024
 20
84.87763268416751
 10
36.683778825215995
 20
83.01008875677365
 10
41.63699549343437
 20
87.8542238316499
 10
39.918459793552756
 20
94.56590283531699
 10
33.246707424055785
 20
96.4334467631765
 10
28.29349075537175
 20
91.5893116878346
  0
LWPOLYLINE
  5
63
330
17
100
AcDbEntity
  8
0
 62
0
100
AcDbPolyline
 90
7
 70
0
 10
14.493806931655854
 20
110.02828831980008
 10
18.751045394223183
 20
98.41416763151068
 10
22.699965375475585
 20
97.30879364218566
 10
27.65318204415962
 20
102.15292871752757
 10
25.934646343812346
 20
108.86460772119466
 10
16.267686173785478
 20
111.57056438233707
 10
14.493806931655854
 20
110.02828831980008
  0
LWPOLYLINE
  5
64
330
17
100
AcDbEntity
  8
0
 62
0
100
AcDbPolyline
 90
7
 70
0
 10
33.684625702910125
 20
110.8490018198267
 10
35.4031614032574
 20
104.13732281615961
 10
42.07491377275437
 20
102.2697788883001
 10
47.028130440972745
 20
107.113913963642
 10
45.30959474109113
 20
113.82559296730909
 10
38.63784237159416
 20
115.6931368951686
 10
33.684625702910125
 20
110.8490018198267
  0
LWPOLYLINE
  5
65
330
17
100
AcDbEntity
  8
0
 62
0
100
AcDbPolyline
 90
7
 70
0
 10
19.28971784049645
 20
125.69308087890971
 10
19.276178060565144
 20
119.035939644184
 10
28.09110032301396
 20
116.56848377417776
 10
33.044316991698
 20
121.41261884951967
 10
31.325781291350722
 20
128.12429785318676
 10
25.475979944691062
 20
129.76176285194236
 10
19.28971784049645
 20
125.69308087890971
  0
LWPOLYLINE
  5
66
330
17
100
AcDbEntity
  8
0
 62
0
100
AcDbPolyline
 90
6
 70
0
 10
9.23789739375934
 20
136.83787650344897
 10
15.337084421422333
 20
132.66863118913028
 10
20.427679845597595
 20
136.01669719172645
 10
18.064053997863084
 20
150.24983652643863
 10
10.068263995461166
 20
147.74015837917108
 10
9.23789739375934
 20
136.83787650344897
  0
LWPOLYLINE
  5
67
330
17
100
AcDbEntity
  8
0
 62
0
100
AcDbPolyline
 90
7
 70
0
 10
28.32900110259652
 20
137.2706571767107
 10
33.48223527055234
 20
135.82817390616987
 10
40.990439258515835
 20
143.17102941274646
 10
40.162711263634264
 20
146.328810806945
 10
26.279941405635327
 20
153.56228551510725
 10
25.64444530941546
 20
153.43635306656364
 10
28.32900110259652
 20
137.2706571767107
  0
LWPOLYLINE
  5
68
330
17
100
AcDbEntity
  8
0
 62
0
100
AcDbPolyline
 90
6
 70
0
 10
32.70963477995247
 20
159.23296207711104
 10
42.66872275574133
 20
154.0438815314323
 10
49.303079302888364
 20
161.48821642166007
 10
46.036376155912876
 20
168.21520780688155
 10
39.12588871084154
 20
168.71034745648507
 10
32.70963477995247
 20
159.23296207711104
  0
LWPOLYLINE
  5
69
330
17
100
AcDbEntity
  8
0
 62
0
100
AcDbPolyline
 90
6
 70
0
 10
24.733175800647587
 20
161.7210831829347
 10
32.501270275563
 20
173.1952588927001
 10
29.4748300681822
 20
179.42748639741916
 10
22.56434262311086
 20
179.92262604702267
 10
18.680295385420322
 20
174.18553819190714
 10
24.733175800647587
 20
161.7210831829347
  0
LWPOLYLINE
  5
6A
330
17
100
AcDbEntity
  8
0
 62
0
100
AcDbPolyline
 90
7
 70
0
 10
36.671186523046345
 20
182.92211853442717
 10
39.697626730427146
 20
176.68989102970812
 10
46.608114175498486
 20
176.1947513801046
 10
50.49216141272336
 20
181.93183923522014
 10
47.46572120580822
 20
188.1640667399392
 10
40.55523376073688
 20
188.6592063895427
 10
36.671186523046345
 20
182.92211853442717
  0
LWPOLYLINE
  5
6B
330
17
100
AcDbEntity
  8
0
 62
0
100
AcDbPolyline
 90
7
 70
0
 10
20.10964043531567
 20
194.13439712496478
 10
23.13608064269647
 20
187.90216962024573
 10
30.04656808776781
 20
187.4070299706422
 10
33.93061532545835
 20
193.14411782575775
 10
30.904175118077546
 20
199.3763453304768
 10
23.993687673006207
 20
199.8714849800803
 10
20.10964043531567
 20
194.13439712496478
  0
LWPOLYLINE
  5
6C
330
17
100
AcDbEntity
  8
0
 62
0
100
AcDbPolyline
 90
6
 70
0
 10
24.565425692591816
 20
207.85102855330337
 10
31.475913137663156
 20
207.35588890369985
 10
38.581831481307745
 20
217.8519707830623
 10
28.81281940685585
 20
224.83348575290296
 10
21.33183114370331
 20
214.50984072461728
 10
24.565425692591816
 20
207.85102855330337
  0
LWPOLYLINE
  5
6D
330
17
100
AcDbEntity
  8
0
 62
0
100
AcDbPolyline
 90
7
 70
0
 10
33.60694190021604
 20
231.24028784837577
 10
45.30673543876037
 20
222.87892201971266
 10
46.63550087902695
 20
222.9202560820617
 10
53.636988535989076
 20
228.41839498430494
 10
48.0548185785301
 20
240.93539462387565
 10
41.16412391560152
 20
241.65534396898005
 10
33.60694190021604
 20
231.24028784837577
  0
LWPOLYLINE
  5
6E
330
17
100
AcDbEntity
  8
0
 62
0
100
AcDbPolyline
 90
6
 70
0
 10
17.494543039705604
 20
243.08963341368366
 10
27.097389453090727
 20
235.8910062910058
 10
34.689092201180756
 20
246.35363773312423
 10
31.867239291779697
 20
252.68112903330479
 10
24.976544628851116
 20
253.40107837887484
 10
17.494543039705604
 20
243.08963341368366
  0
LWPOLYLINE
  5
6F
330
17
100
AcDbEntity
  8
0
 62
0
100
AcDbPolyline
 90
7
 70
0
 10
22.986017616465688
 20
267.6852585166693
 10
25.807870525401086
 20
261.35776721555743
 10
32.698565187864006
 20
260.63781787045303
 10
36.76740694232285
 20
266.24535982599485
 10
33.94555403338745
 20
272.57285112710673
 10
27.054859370924532
 20
273.2928004722111
 10
22.986017616465688
 20
267.6852585166693
  0
LWPOLYLINE
  5
70
330
17
100
AcDbEntity
  8
0
 62
0
100
AcDbPolyline
 90
7
 70
0
 10
27.88618526700884
 20
281.2494893093594
 10
34.77687992993742
 20
280.5295399637893
 10
38.845721683930606
 20
286.13708191933114
 10
36.02386877499521
 20
292.46457321997735
 10
29.133174112066627
 20
293.18452256508175
 10
25.064332357607782
 20
287.57698060953993
 10
27.88618526700884
 20
281.2494893093594
  0
LWPOLYLINE
  5
71
330
17
100
AcDbEntity
  8
0
 62
0
100
AcDbPolyline
 90
7
 70
0
 10
8.876753071323037
 20
299.3227150199004
 10
11.698605980258435
 20
292.9952237187885
 10
18.589300642721355
 20
292.2752743736841
 10
22.65814239764586
 20
297.8828163296916
 10
19.8362894882448
 20
304.21030762987215
 10
12.94559482531622
 20
304.9302569754422
 10
8.876753071323037
 20
299.3227150199004
  0
LWPOLYLINE
  5
72
330
17
100
AcDbEntity
  8
0
 62
0
100
AcDbPolyline
 90
7
 70
0
 10
29.964500008616596
 20
301.14121140269566
 10
36.85519467201084
 20
300.4212620571256
 10
44.866020855493844
 20
311.4615154355765
 10
43.064309479203075
 20
313.5623838171363
 10
32.702036808710545
 20
315.1304681199603
 10
27.142647099215537
 20
307.4687027028762
 10
29.964500008616596
 20
301.14121140269566
  0
LWPOLYLINE
  5
73
330
17
100
AcDbEntity
  8
0
 62
0
100
AcDbPolyline
 90
6
 70
0
 10
13.77692072186619
 20
312.8869458121248
 10
20.66761538479477
 20
312.1669964670204
 10
26.086468742694706
 20
319.6350793736987
 10
19.286093703936785
 20
330.71221279548485
 10
8.404034554027021
 20
324.9346646639519
 10
13.77692072186619
 20
312.8869458121248
  0
LWPOLYLINE
  5
74
330
17
100
AcDbEntity
  8
0
 62
0
100
AcDbPolyline
 90
6
 70
0
 10
41.97285671439022
 20
321.81862943023447
 10
44.221785474102944
 20
332.8485052409582
 10
39.03481677919626
 20
337.44147331742573
 10
27.008960707113147
 20
333.4233524027281
 10
33.33033044915646
 20
323.12647088579837
 10
41.97285671439022
 20
321.81862943023447
  0
LWPOLYLINE
  5
75
330
17
100
AcDbEntity
  8
0
 62
0
100
AcDbPolyline
 90
6
 70
0
 10
20.703126896172762
 20
352.4032789888792
 10
23.426022454630584
 20
340.66095009176064
 10
36.49959943909198
 20
345.029139166791
 10
37.8837421243079
 20
351.8176698639058
 10
32.696773428469896
 20
356.4106379403733
 10
20.703126896172762
 20
352.4032789888792
  0
LWPOLYLINE
  5
76
330
17
100
AcDbEntity
  8
0
 62
0
100
AcDbPolyline
 90
7
 70
0
 10
38.00027613900602
 20
362.4000334857032
 10
43.18724483437836
 20
357.8070654092357
 10
49.758356215432286
 20
360.00262802988294
 10
51.14249890064821
 20
366.7911587269977
 10
45.95553020527586
 20
371.3841268034652
 10
39.38441882422194
 20
369.18856418281797
 10
38.00027613900602
 20
362.4000334857032
  0
LWPOLYLINE
  5
77
330
17
100
AcDbEntity
  8
0
 62
0
100
AcDbPolyline
 90
6
 70
0
 10
17.140454042702913
 20
372.2997600683943
 10
20.044160016346723
 20
360.6178441770375
 10
30.161556088365614
 20
363.9983037897386
 10
31.545698773581535
 20
370.78683448685337
 10
26.35873007820919
 20
375.3798025633209
 10
17.140454042702913
 20
372.2997600683943
  0
LWPOLYLINE
  5
78
330
17
100
AcDbEntity
  8
0
 62
0
100
AcDbPolyline
 90
7
 70
0
 10
31.662232788279653
 20
381.3691981086508
 10
36.84920148411766
 20
376.77623003218326
 10
43.42031286517158
 20
378.9717926528305
 10
44.8044555503875
 20
385.7603233499453
 10
39.61748685501516
 20
390.3532914264128
 10
33.04637547349557
 20
388.15772880576554
 10
31.662232788279653
 20
381.3691981086508
  0
LWPOLYLINE
  5
79
330
17
100
AcDbEntity
  8
0
 62
0
100
AcDbPolyline
 90
6
 70
0
 10
25.324189438018948
 20
400.33836273159835
 10
30.51115813339129
 20
395.74539465513084
 10
37.08226951491088
 20
397.9409572757781
 10
38.9048979813233
 20
406.88004240635786
 10
26.742768059950322
 20
407.2957845512778
 10
25.324189438018948
 20
400.33836273159835
  0
LWPOLYLINE
  5
7A
330
17
100
AcDbEntity
  8
0
 62
0
100
AcDbPolyline
 90
6
 70
0
 10
25.71399948420003
 20
415.3356239270419
 10
40.07516096159816
 20
414.8447115529329
 10
37.32127464795485
 20
424.6477322225459
 10
30.607998666353524
 20
426.3600188764744
 10
23.36422442831099
 20
418.9393196945079
 10
25.71399948420003
 20
415.3356239270419
  0
LWPOLYLINE
  5
7B
330
17
100
AcDbEntity
  8
0
 62
0
100
AcDbPolyline
 90
6
 70
0
 10
11.788912402000278
 20
437.23807159075517
 10
17.295920034404844
 20
424.1755078147166
 10
24.883311843965203
 20
431.94821722581986
 10
23.009557593613863
 20
438.6182280966081
 10
14.387079732026905
 20
440.81747535020116
 10
11.788912402000278
 20
437.23807159075517
  0
LWPOLYLINE
  5
7C
330
17
100
AcDbEntity
  8
0
 62
0
100
AcDbPolyline
 90
7
 70
0
 10
32.585176987573504
 20
434.1118422673084
 10
39.29845296917483
 20
432.39955561337996
 10
44.13797470135614
 20
437.35727983023975
 10
41.226925084833056
 20
447.71975537119437
 10
38.96373336063698
 20
449.23572161570195
 10
30.711422737222165
 20
440.78185313809666
 10
32.585176987573504
 20
434.1118422673084
  0
LWPOLYLINE
  5
7D
330
17
100
AcDbEntity
  8
0
 62
0
100
AcDbPolyline
 90
8
 70
0
 10
16.921816734597087
 20
463.95276153050366
 10
13.608606537804008
 20
457.716356247291
 10
16.009432934690267
 20
448.6598003554158
 10
24.986735914833844
 20
446.37005148744214
 10
33.952681951224804
 20
455.55498550515625
 10
33.78966558398679
 20
456.1385247079656
 10
21.121566739864647
 20
464.4473171109334
 10
16.921816734597087
 20
463.95276153050366
  0
LWPOLYLINE
  5
7E
330
17
100
AcDbEntity
  8
0
 62
0
100
AcDbPolyline
 90
8
 70
0
 10
50.86998270731419
 20
43.73221178455282
 10
52.58851840719581
 20
37.02053278088573
 10
66.34245213540271
 20
33.1705584415235
 10
70.46566573577002
 20
38.155770375020836
 10
70.51514277700335
 20
38.72065596058968
 10
66.46200354164466
 20
45.59835352012891
 10
55.82319937553257
 20
48.57634685989473
 10
50.86998270731419
 20
43.73221178455282
  0
LWPOLYLINE
  5
7F
330
17
100
AcDbEntity
  8
0
 62
0
100
AcDbPolyline
 90
6
 70
0
 10
73.42837959295139
 20
49.53420674577359
 10
75.94025235529989
 20
45.27185596954081
 10
87.10986456787214
 20
52.499293535575305
 10
86.75869514653459
 20
59.418591190688346
 10
77.81935215508565
 20
63.99202246135104
 10
73.42837959295139
 20
49.53420674577359
  0
LWPOLYLINE
  5
80
330
17
100
AcDbEntity
  8
0
 62
0
100
AcDbPolyline
 90
6
 70
0
 10
57.97965335473418
 20
56.28022291287783
 10
66.40049954550341
 20
53.92307604905221
 10
69.8885660818778
 20
65.40796293374154
 10
61.21433432307094
 20
67.83603699188683
 10
56.26111765438691
 20
62.99190191654492
 10
57.97965335473418
 20
56.28022291287783
  0
LWPOLYLINE
  5
81
330
17
100
AcDbEntity
  8
0
 62
0
100
AcDbPolyline
 90
6
 70
0
 10
90.40238408884034
 20
66.54063660474498
 10
96.21908692410216
 20
70.30440707234669
 10
95.86791750276461
 20
77.22370472745973
 10
85.21829434484243
 20
82.67212746022273
 10
81.52484864555299
 20
71.08244669586423
 10
90.40238408884034
 20
66.54063660474498
  0
LWPOLYLINE
  5
82
330
17
100
AcDbEntity
  8
0
 62
0
100
AcDbPolyline
 90
7
 70
0
 10
42.27730420511216
 20
77.29060680242259
 10
43.99583990499377
 20
70.57892779828984
 10
50.667592274490744
 20
68.71138387089599
 10
55.62080894317478
 20
73.5555189462379
 10
53.902273242827505
 20
80.26719794990498
 10
47.23052087333053
 20
82.13474187729884
 10
42.27730420511216
 20
77.29060680242259
  0
LWPOLYLINE
  5
83
330
17
100
AcDbEntity
  8
0
 62
0
100
AcDbPolyline
 90
6
 70
0
 10
63.37078830227256
 20
75.53991304486993
 10
73.63346893526614
 20
72.6672034716234
 10
77.27943317499012
 20
84.10789193827662
 10
66.60546927060932
 20
87.09572712341327
 10
61.652252601925284
 20
82.25159204853702
 10
63.37078830227256
 20
75.53991304486993
  0
LWPOLYLINE
  5
84
330
17
100
AcDbEntity
  8
0
 62
0
100
AcDbPolyline
 90
7
 70
0
 10
49.38697485253215
 20
89.83861793028194
 10
56.05872722202912
 20
87.97107400288809
 10
61.011943890713155
 20
92.81520907776434
 10
59.29340819036588
 20
99.52688808189708
 10
52.62165582133457
 20
101.39443200929094
 10
47.668439152650535
 20
96.55029693394903
 10
49.38697485253215
 20
89.83861793028194
  0
LWPOLYLINE
  5
85
330
17
100
AcDbEntity
  8
0
 62
0
100
AcDbPolyline
 90
7
 70
0
 10
67.04338754946366
 20
101.51128218052912
 10
68.76192324981093
 20
94.79960317639637
 10
80.89277697447687
 20
91.40395823083821
 10
84.23178082611412
 20
101.5441997746006
 10
83.14822954079136
 20
103.23387601701546
 10
71.9966042181477
 20
106.35541725540537
 10
67.04338754946366
 20
101.51128218052912
  0
LWPOLYLINE
  5
86
330
17
100
AcDbEntity
  8
0
 62
0
100
AcDbPolyline
 90
7
 70
0
 10
53.05957410018891
 20
115.80998706594113
 10
54.778109800070524
 20
109.09830806227404
 10
61.449862169567496
 20
107.23076413488019
 10
66.40307883825153
 20
112.07489920975644
 10
64.68454313790426
 20
118.78657821342352
 10
58.012790768407285
 20
120.65412214128304
 10
53.05957410018891
 20
115.80998706594113
  0
LWPOLYLINE
  5
87
330
17
100
AcDbEntity
  8
0
 62
0
100
AcDbPolyline
 90
6
 70
0
 10
82.764673108235
 20
111.64874683655802
 10
86.44965225365013
 20
127.13926946194846
 10
82.52827800111845
 20
130.64243935104463
 10
72.43452249700204
 20
120.77097231205556
 10
74.15305819734931
 20
114.05929330838848
 10
82.764673108235
 20
111.64874683655802
  0
LWPOLYLINE
  5
88
330
17
100
AcDbEntity
  8
0
 62
0
100
AcDbPolyline
 90
7
 70
0
 10
39.0757606504485
 20
130.1086919518188
 10
40.794296350795776
 20
123.39701294815171
 10
47.46604872029275
 20
121.5294690202922
 10
52.41926538851112
 20
126.37360409563411
 10
50.26663826266304
 20
134.78061145693067
 10
46.137979986611754
 20
137.01538444785405
 10
39.0757606504485
 20
130.1086919518188
  0
LWPOLYLINE
  5
89
330
17
100
AcDbEntity
  8
0
 62
0
100
AcDbPolyline
 90
7
 70
0
 10
58.38125095050782
 20
135.3409432820976
 10
60.1692447476089
 20
128.35799819426614
 10
66.84099711710587
 20
126.49045426640663
 10
77.98763372190297
 20
137.39161546397958
 10
77.50928933452815
 20
139.3942564144731
 10
71.5473937583156
 20
141.97081418065358
 10
58.38125095050782
 20
135.3409432820976
  0
LWPOLYLINE
  5
8A
330
17
100
AcDbEntity
  8
0
 62
0
100
AcDbPolyline
 90
7
 70
0
 10
48.878621672745794
 20
144.62868971619758
 10
53.77489758050069
 20
141.97841826649386
 10
65.90947227086872
 20
148.08883836269382
 10
61.69531108578667
 20
155.72783803762871
 10
55.6361499466002
 20
156.57028626706455
 10
47.99570189230144
 20
147.99702771063897
 10
48.878621672745794
 20
144.62868971619758
  0
LWPOLYLINE
  5
8B
330
17
100
AcDbEntity
  8
0
 62
0
100
AcDbPolyline
 90
7
 70
0
 10
68.91616029012948
 20
159.20050131632019
 10
74.26007775962353
 20
149.51359518626708
 10
79.77473385911435
 20
147.13032130626965
 10
83.29827700462192
 20
151.36298194630075
 10
80.23739884840325
 20
165.7646885743365
 10
73.67832593573257
 20
166.2346492084675
 10
68.91616029012948
 20
159.20050131632019
  0
LWPOLYLINE
  5
8C
330
17
100
AcDbEntity
  8
0
 62
0
100
AcDbPolyline
 90
7
 70
0
 10
53.23273261077702
 20
171.70983994388956
 10
56.73671857453883
 20
164.49422152629126
 10
62.31411570915952
 20
163.71875636987392
 10
67.05370750045404
 20
170.71956064468253
 10
64.02726729307324
 20
176.95178814940158
 10
57.1167798480019
 20
177.4469277990051
 10
53.23273261077702
 20
171.70983994388956
  0
LWPOLYLINE
  5
8D
330
17
100
AcDbEntity
  8
0
 62
0
100
AcDbPolyline
 90
8
 70
0
 10
71.22362374793738
 20
180.4464202864096
 10
74.25006395531818
 20
174.21419278169054
 10
82.05203534010798
 20
173.6551778922789
 10
87.31896799104288
 20
178.6477873824537
 10
87.29940730053931
 20
184.365832578484
 10
86.32399436179549
 20
185.379853338562
 10
75.10767098562792
 20
186.18350814152512
 10
71.22362374793738
 20
180.4464202864096
  0
LWPOLYLINE
  5
8E
330
17
100
AcDbEntity
  8
0
 62
0
100
AcDbPolyline
 90
7
 70
0
 10
54.66207766067237
 20
191.6586988769472
 10
57.68851786758751
 20
185.42647137222815
 10
64.59900531265885
 20
184.93133172262463
 10
68.48305255034938
 20
190.66841957774017
 10
65.45661234296858
 20
196.90064708245922
 10
58.54612489789724
 20
197.39578673206273
 10
54.66207766067237
 20
191.6586988769472
  0
LWPOLYLINE
  5
8F
330
17
100
AcDbEntity
  8
0
 62
0
100
AcDbPolyline
 90
6
 70
0
 10
75.67940900521353
 20
194.16305171474818
 10
84.37051327945665
 20
193.54033003849912
 10
84.961318152491
 20
204.32086035106335
 10
78.25948544265702
 20
208.67660964243117
 10
72.65296879783273
 20
200.39527921946723
 10
75.67940900521353
 20
194.16305171474818
  0
LWPOLYLINE
  5
90
330
17
100
AcDbEntity
  8
0
 62
0
100
AcDbPolyline
 90
6
 70
0
 10
41.12697178032249
 20
196.63874996276576
 10
48.03745922539383
 20
196.14361031316224
 10
51.92150646261871
 20
201.88069816827777
 10
45.868626047857106
 20
214.34515317771587
 10
38.10053157294169
 20
202.8709774674848
 10
41.12697178032249
 20
196.63874996276576
  0
LWPOLYLINE
  5
91
330
17
100
AcDbEntity
  8
0
 62
0
100
AcDbPolyline
 90
7
 70
0
 10
53.07990018837154
 20
217.80906592039395
 10
59.11786291748285
 20
205.3753303052858
 10
66.02835036255419
 20
204.88019065568227
 10
72.79259043838829
 20
214.87158293705437
 10
61.580075565259904
 20
223.26779307201508
 10
59.98409572150558
 20
223.2308031149209
 10
53.07990018837154
 20
217.80906592039395
  0
LWPOLYLINE
  5
92
330
17
100
AcDbEntity
  8
0
 62
0
100
AcDbPolyline
 90
6
 70
0
 10
68.42194681195542
 20
228.1387919048779
 10
76.20004883594811
 20
222.31435556905348
 10
83.55179095780477
 20
229.01249756207693
 10
82.82302211970091
 20
237.30276444563646
 10
75.61759723117575
 20
238.05559724159542
 10
68.42194681195542
 20
228.1387919048779
  0
LWPOLYLINE
  5
93
330
17
100
AcDbEntity
  8
0
 62
0
100
AcDbPolyline
 90
6
 70
0
 10
55.36117619043216
 20
244.19378969687972
 10
61.00488200830296
 20
231.5388070955873
 10
69.14256551582366
 20
242.7538910057396
 10
66.32071260688826
 20
249.08138230685148
 10
59.43001794395968
 20
249.80133165195588
 10
55.36117619043216
 20
244.19378969687972
  0
LWPOLYLINE
  5
94
330
17
100
AcDbEntity
  8
0
 62
0
100
AcDbPolyline
 90
7
 70
0
 10
76.44892312772572
 20
246.01228607874367
 10
85.23426247481257
 20
245.09438162678856
 10
88.68982414295897
 20
248.0266519087367
 10
84.58660663571209
 20
257.22736999029297
 10
77.69591197324917
 20
257.94731933539737
 10
73.62707021879032
 20
252.33977737985555
 10
76.44892312772572
 20
246.01228607874367
  0
LWPOLYLINE
  5
95
330
17
100
AcDbEntity
  8
0
 62
0
100
AcDbPolyline
 90
7
 70
0
 10
39.17359690275043
 20
255.93952410630885
 10
41.99544981215149
 20
249.6120328061283
 10
48.88614447508007
 20
248.89208346055824
 10
52.954986229073256
 20
254.49962541610006
 10
50.13313332013786
 20
260.8271167167463
 10
43.24243865720928
 20
261.54706606185067
 10
39.17359690275043
 20
255.93952410630885
  0
LWPOLYLINE
  5
96
330
17
100
AcDbEntity
  8
0
 62
0
100
AcDbPolyline
 90
7
 70
0
 10
57.43949093203992
 20
264.08551178975034
 10
60.261343840975314
 20
257.7580204891041
 10
67.1520385039039
 20
257.03807114399973
 10
71.22088025836274
 20
262.64561309954155
 10
68.39902734896168
 20
268.9731043997221
 10
61.5083326860331
 20
269.69305374529216
 10
57.43949093203992
 20
264.08551178975034
  0
LWPOLYLINE
  5
97
330
17
100
AcDbEntity
  8
0
 62
0
100
AcDbPolyline
 90
6
 70
0
 10
85.41793253272772
 20
265.18405882697556
 10
89.64265676680952
 20
271.00643281554807
 10
82.41569132637233
 20
281.47941982848573
 10
75.70538495993242
 20
272.23149947272617
 10
78.52723786933348
 20
265.9040081725456
 10
85.41793253272772
 20
265.18405882697556
  0
LWPOLYLINE
  5
98
330
17
100
AcDbEntity
  8
0
 62
0
100
AcDbPolyline
 90
7
 70
0
 10
41.25191164528951
 20
275.8312462001108
 10
44.07376455422491
 20
269.5037548989989
 10
50.96445921715349
 20
268.7838055538945
 10
55.03330097068101
 20
274.3913475089707
 10
52.211448061745614
 20
280.71883881008256
 10
45.32075339881703
 20
281.43878815518696
 10
41.25191164528951
 20
275.8312462001108
  0
LWPOLYLINE
  5
99
330
17
100
AcDbEntity
  8
0
 62
0
100
AcDbPolyline
 90
6
 70
0
 10
62.33965858258307
 20
277.64974258197475
 10
69.23035324504599
 20
276.92979323687035
 10
75.61626110551879
 20
285.7306383946911
 10
63.30629718629643
 20
289.1984064891935
 10
59.51780567364767
 20
283.9772338830866
 10
62.33965858258307
 20
277.64974258197475
  0
LWPOLYLINE
  5
9A
330
17
100
AcDbEntity
  8
0
 62
0
100
AcDbPolyline
 90
7
 70
0
 10
46.152079295832664
 20
289.3954769923352
 10
53.042773958761245
 20
288.6755276472308
 10
57.367643306963146
 20
294.63591829091314
 10
54.322857551276684
 20
306.60210954500366
 10
51.65401398576796
 20
307.1945346524939
 10
43.330226386897266
 20
295.7229682929814
 10
46.152079295832664
 20
289.3954769923352
  0
LWPOLYLINE
  5
9B
330
17
100
AcDbEntity
  8
0
 62
0
100
AcDbPolyline
 90
7
 70
0
 10
62.24369657272473
 20
307.9150516056456
 10
65.013693948742
 20
297.0287952191197
 10
80.77004418941215
 20
292.59016574742276
 10
82.15571516053751
 20
294.66777172368023
 10
78.603552501183
 20
306.2279745858163
 10
65.35231231432408
 20
309.566251373943
 10
62.24369657272473
 20
307.9150516056456
  0
LWPOLYLINE
  5
9C
330
17
100
AcDbEntity
  8
0
 62
0
100
AcDbPolyline
 90
7
 70
0
 10
71.65730565227568
 20
327.2545591775328
 10
69.51886245748028
 20
316.76656005168337
 10
80.22639353107661
 20
314.06909913951534
 10
88.76508101029322
 20
324.9207400093787
 10
87.69948285026476
 20
327.1369795595296
 10
80.9212816040963
 20
330.34987108744684
 10
71.65730565227568
 20
327.2545591775328
  0
LWPOLYLINE
  5
9D
330
17
100
AcDbEntity
  8
0
 62
0
100
AcDbPolyline
 90
8
 70
0
 10
49.44313536444679
 20
318.41333750737834
 10
52.12654800154269
 20
315.2843697733246
 10
57.018954288214445
 20
314.1983622015454
 10
61.293574487790465
 20
316.468907186389
 10
63.81858560163528
 20
328.8528294815682
 10
58.631616906262934
 20
333.44579755803574
 10
52.06050552474335
 20
331.2502349369228
 10
49.44313536444679
 20
318.41333750737834
  0
LWPOLYLINE
  5
9E
330
17
100
AcDbEntity
  8
0
 62
0
100
AcDbPolyline
 90
7
 70
0
 10
65.31926230154932
 20
346.2237238004804
 10
63.935119616333395
 20
339.43519310336563
 10
69.1220883121714
 20
334.8422250268981
 10
76.46548761706799
 20
337.2958271783777
 10
73.87456967309117
 20
348.524856769573
 10
73.25242191227153
 20
348.87437871946025
 10
65.31926230154932
 20
346.2237238004804
  0
LWPOLYLINE
  5
9F
330
17
100
AcDbEntity
  8
0
 62
0
100
AcDbPolyline
 90
6
 70
0
 10
84.64260504487902
 20
337.4391691522673
 10
88.95719001162797
 20
335.3940405134112
 10
93.92800145875663
 20
344.714516145736
 10
89.04618555493653
 20
351.03362007681284
 10
82.07510083867237
 20
348.5667236834765
 10
84.64260504487902
 20
337.4391691522673
  0
LWPOLYLINE
  5
A0
330
17
100
AcDbEntity
  8
0
 62
0
100
AcDbPolyline
 90
7
 70
0
 10
44.33831948926672
 20
343.43086886275563
 10
49.52528818463907
 20
338.8379007862881
 10
56.09639956615865
 20
341.03346340740103
 10
57.48054225090891
 20
347.82199410405013
 10
52.29357355553657
 20
352.41496218051765
 10
45.722462174482644
 20
350.2193995598704
 10
44.33831948926672
 20
343.43086886275563
  0
LWPOLYLINE
  5
A1
330
17
100
AcDbEntity
  8
0
 62
0
100
AcDbPolyline
 90
7
 70
0
 10
58.98121895128861
 20
365.1928884229623
 10
57.59707626607269
 20
358.4043577263132
 10
62.78404496144503
 20
353.8113896498457
 10
69.43915579561144
 20
356.0350184604526
 10
68.53263626713306
 20
367.8504300486297
 10
67.98892132984474
 20
368.2025733144023
 10
58.98121895128861
 20
365.1928884229623
  0
LWPOLYLINE
  5
A2
330
17
100
AcDbEntity
  8
0
 62
0
100
AcDbPolyline
 90
7
 70
0
 10
76.62471106974408
 20
366.95678734788675
 10
77.49072358105332
 20
355.66933689229194
 10
77.75148372258991
 20
355.5228421228007
 10
87.24001364363357
 20
358.88060080641884
 10
88.70116217620671
 20
363.4229221535847
 10
84.05018167290837
 20
368.55793728083376
 10
76.62471106974408
 20
366.95678734788675
  0
LWPOLYLINE
  5
A3
330
17
100
AcDbEntity
  8
0
 62
0
100
AcDbPolyline
 90
6
 70
0
 10
56.44600161118433
 20
372.7805542723276
 10
64.25612430786714
 20
375.39009966943416
 10
63.05814602365717
 20
387.6419392373413
 10
52.643175600562245
 20
384.1620530459099
 10
51.259032915346324
 20
377.3735223487951
 10
56.44600161118433
 20
372.7805542723276
  0
LWPOLYLINE
  5
A4
330
17
100
AcDbEntity
  8
0
 62
0
100
AcDbPolyline
 90
7
 70
0
 10
70.71300295041874
 20
391.5619382016361
 10
72.34069205634296
 20
374.9154045755044
 10
73.14981277100742
 20
374.3913681899198
 10
82.3639035364613
 20
376.37819725424055
 10
86.32717168191448
 20
388.698941587098
 10
80.04252558154985
 20
395.23661632658917
 10
70.71300295041874
 20
391.5619382016361
  0
LWPOLYLINE
  5
A5
330
17
100
AcDbEntity
  8
0
 62
0
100
AcDbPolyline
 90
6
 70
0
 10
44.92098956508562
 20
396.3426869717427
 10
50.10795826045796
 20
391.7497188952752
 10
61.50458309054375
 20
395.55759887639437
 10
50.893719935789704
 20
407.8251186270267
 10
47.26899000396952
 20
407.8584600385279
 10
44.92098956508562
 20
396.3426869717427
  0
LWPOLYLINE
  5
A6
330
17
100
AcDbEntity
  8
0
 62
0
100
AcDbPolyline
 90
6
 70
0
 10
68.76474711252376
 20
399.3927561534569
 10
74.89854537136853
 20
401.8087140941993
 10
70.88765455968678
 20
416.08629895290363
 10
64.17437857808545
 20
417.7985856068321
 10
58.16728972038254
 20
411.64477712158117
 10
68.76474711252376
 20
399.3927561534569
  0
LWPOLYLINE
  5
A7
330
17
100
AcDbEntity
  8
0
 62
0
100
AcDbPolyline
 90
6
 70
0
 10
78.58951970329508
 20
418.2499239943922
 10
82.3370282035321
 20
404.9099022542127
 10
92.0160716669634
 20
414.8253506865353
 10
90.14231741661206
 20
421.49536155685786
 10
83.42904143501073
 20
423.2076482107863
 10
78.58951970329508
 20
418.2499239943922
  0
LWPOLYLINE
  5
A8
330
17
100
AcDbEntity
  8
0
 62
0
100
AcDbPolyline
 90
7
 70
0
 10
45.02313979156315
 20
426.8113572640345
 10
48.10210969625041
 20
415.85113516924906
 10
51.067086001858115
 20
415.82386237997565
 10
58.44969175569713
 20
423.38678395617757
 10
56.57593750534579
 20
430.0567948269658
 10
49.862661523744464
 20
431.7690814808943
 10
45.02313979156315
 20
426.8113572640345
  0
LWPOLYLINE
  5
A9
330
17
100
AcDbEntity
  8
0
 62
0
100
AcDbPolyline
 90
7
 70
0
 10
64.2778026489541
 20
432.22041986845437
 10
66.15155689930543
 20
425.5504089976661
 10
72.86483288090676
 20
423.83812234373767
 10
77.70435461308807
 20
428.7958465601318
 10
74.25697707431391
 20
441.06749085625637
 10
73.41820628196001
 20
441.5840725075454
 10
64.2778026489541
 20
432.22041986845437
  0
LWPOLYLINE
  5
AA
330
17
100
AcDbEntity
  8
0
 62
0
100
AcDbPolyline
 90
7
 70
0
 10
82.70938571309671
 20
440.5594030656852
 10
85.40621975576505
 20
430.95947160162035
 10
92.11949573783204
 20
429.2471849476919
 10
100.81309011019766
 20
438.1531152721495
 10
100.93718218896538
 20
442.01762743210423
 10
99.61782393604517
 20
443.86128412708644
 10
82.70938571309671
 20
440.5594030656852
  0
LWPOLYLINE
  5
AB
330
17
100
AcDbEntity
  8
0
 62
0
100
AcDbPolyline
 90
7
 70
0
 10
49.62627752125263
 20
447.4005319663324
 10
51.839839844964445
 20
439.5209048717283
 10
58.55311582656577
 20
437.80861821779985
 10
68.15806118911132
 20
447.648158746399
 10
67.47296838695183
 20
449.4884353006259
 10
64.39770400337875
 20
451.3358100574464
 10
49.62627752125263
 20
447.4005319663324
  0
LWPOLYLINE
  5
AC
330
17
100
AcDbEntity
  8
0
 62
0
100
AcDbPolyline
 90
6
 70
0
 10
76.05991076584905
 20
449.352614735812
 10
78.45230289921165
 20
447.87918970789764
 10
95.15223581623286
 20
451.140353838075
 10
85.39517236268148
 20
463.77016089214015
 10
75.28370737098157
 20
451.4376299405471
 10
76.05991076584905
 20
449.352614735812
  0
LWPOLYLINE
  5
AD
330
17
100
AcDbEntity
  8
0
 62
0
100
AcDbPolyline
 90
6
 70
0
 10
95.09958129515871
 20
52.904789054859464
 10
107.77534776180983
 20
46.41977703627202
 10
108.63145532552153
 20
59.461060112901066
 10
100.56511470908299
 20
63.58785717757422
 10
94.74841187382117
 20
59.824086709972505
 10
95.09958129515871
 20
52.904789054859464
  0
LWPOLYLINE
  5
AE
330
17
100
AcDbEntity
  8
0
 62
0
100
AcDbPolyline
 90
6
 70
0
 10
116.66285750456154
 20
59.6771151592024
 10
115.92567371856421
 20
48.447425289638375
 10
127.8667501648888
 20
49.48094680588696
 10
130.8005726132542
 20
55.757306087855284
 10
124.25197177799419
 20
65.1282104454935
 10
116.66285750456154
 20
59.6771151592024
  0
LWPOLYLINE
  5
AF
330
17
100
AcDbEntity
  8
0
 62
0
100
AcDbPolyline
 90
7
 70
0
 10
129.5446082269773
 20
71.52069020699713
 10
137.3580527822487
 20
60.339822190441225
 10
144.26045058853924
 20
60.93723706165332
 10
147.19427303643897
 20
67.21359634362165
 10
143.22569767851382
 20
72.8925407553092
 10
129.59446475282311
 20
71.71273317430172
 10
129.5446082269773
 20
71.52069020699713
  0
LWPOLYLINE
  5
B0
330
17
100
AcDbEntity
  8
0
 62
0
100
AcDbPolyline
 90
8
 70
0
 10
111.13546111807227
 20
82.33840934475887
 10
103.85763423005119
 20
77.62920024720955
 10
104.20880365138873
 20
70.70990259163085
 10
112.44407163793221
 20
66.4966810868122
 10
121.70135721936822
 20
73.14598744558174
 10
122.22057438874617
 20
75.1459664633498
 10
121.37736548110843
 20
77.14022023752335
 10
111.13546111807227
 20
82.33840934475887
  0
LWPOLYLINE
  5
B1
330
17
100
AcDbEntity
  8
0
 62
0
100
AcDbPolyline
 90
6
 70
0
 10
128.8692931290716
 20
79.96362262740735
 10
128.98503065295517
 20
79.68989450214434
 10
142.53586240531877
 20
80.86274321805689
 10
145.46968485368416
 20
87.13910250049088
 10
137.5325341373682
 20
98.49699132340032
 10
128.8692931290716
 20
79.96362262740735
  0
LWPOLYLINE
  5
B2
330
17
100
AcDbEntity
  8
0
 62
0
100
AcDbPolyline
 90
6
 70
0
 10
99.51160644507036
 20
84.34575014198202
 10
106.49520061491057
 20
88.86457227179784
 10
104.62220183527097
 20
99.50925599699843
 10
91.6026213481091
 20
98.35026100426916
 10
88.79631427209824
 20
89.82776960879568
 10
99.51160644507036
 20
84.34575014198202
  0
LWPOLYLINE
  5
B3
330
17
100
AcDbEntity
  8
0
 62
0
100
AcDbPolyline
 90
6
 70
0
 10
114.48716589715332
 20
89.60869550341744
 10
122.61794369574636
 20
85.48199024572972
 10
130.32328752148896
 20
101.96611875118691
 10
130.17430777894333
 20
102.06147027770061
 10
112.88505143485963
 20
98.71388122309003
 10
114.48716589715332
 20
89.60869550341744
  0
LWPOLYLINE
  5
B4
330
17
100
AcDbEntity
  8
0
 62
0
100
AcDbPolyline
 90
5
 70
0
 10
110.39211459551007
 20
106.3797715172172
 10
125.50843381136656
 20
109.30663105063144
 10
121.8119758204557
 20
118.74994656080383
 10
111.241079359781
 20
115.76956297326836
 10
110.39211459551007
 20
106.3797715172172
  0
LWPOLYLINE
  5
B5
330
17
100
AcDbEntity
  8
0
 62
0
100
AcDbPolyline
 90
7
 70
0
 10
89.97801889339462
 20
107.403443479538
 10
90.68547067558393
 20
106.30025207027796
 10
102.44695608271286
 20
107.34725221814591
 10
103.36029274575412
 20
117.44901516390968
 10
97.20415299292654
 20
124.03525304989893
 10
93.99336239416152
 20
124.2827165756375
 10
89.97801889339462
 20
107.403443479538
  0
LWPOLYLINE
  5
B6
330
17
100
AcDbEntity
  8
0
 62
0
100
AcDbPolyline
 90
8
 70
0
 10
130.89865268068388
 20
130.69585690144453
 10
128.47671305201948
 20
123.67109925867993
 10
134.2348342682235
 20
108.96086705299098
 10
136.50639554020017
 20
107.50699935304004
 10
137.33447978645563
 20
107.5495916489512
 10
146.80427010171115
 20
115.1573229200207
 10
137.80426215566695
 20
132.1319996771403
 10
130.89865268068388
 20
130.69585690144453
  0
LWPOLYLINE
  5
B7
330
17
100
AcDbEntity
  8
0
 62
0
100
AcDbPolyline
 90
6
 70
0
 10
104.52892167167738
 20
127.91433221297342
 10
108.76423283852637
 20
123.38312142351646
 10
121.11596304690465
 20
126.86559749590236
 10
123.19209574675187
 20
132.8873533160426
 10
115.37827734509483
 20
139.61161940228197
 10
104.52892167167738
 20
127.91433221297342
  0
LWPOLYLINE
  5
B8
330
17
100
AcDbEntity
  8
0
 62
0
100
AcDbPolyline
 90
9
 70
0
 10
85.29056788375601
 20
141.25213279863823
 10
86.00414584483951
 20
138.26466083116833
 10
92.54904377972707
 20
132.4177592360415
 10
97.44458344206214
 20
132.04044795837257
 10
110.61022450402379
 20
146.23504984714094
 10
110.14753445191309
 20
147.88624687409032
 10
106.43205119809136
 20
150.82637970531363
 10
89.84870390873402
 20
146.7275994374417
 10
85.29056788375601
 20
141.25213279863823
  0
LWPOLYLINE
  5
B9
330
17
100
AcDbEntity
  8
0
 62
0
100
AcDbPolyline
 90
7
 70
0
 10
118.2538340287283
 20
148.60657746400688
 10
118.5917470054701
 20
147.40067104818303
 10
128.97339014848694
 20
138.4666355583817
 10
135.77011946681887
 20
139.8801347930916
 10
136.32723707798868
 20
155.3093663929962
 10
131.96017786627635
 20
158.49363090386618
 10
118.2538340287283
 20
148.60657746400688
  0
LWPOLYLINE
  5
BA
330
17
100
AcDbEntity
  8
0
 62
0
100
AcDbPolyline
 90
6
 70
0
 10
87.90307659562677
 20
168.17845832379538
 10
90.66767929168418
 20
155.17075434336442
 10
103.01806078478694
 20
158.22330453582111
 10
102.28509380621836
 20
164.89900558544326
 10
91.77090857410803
 20
171.84483796460557
 10
87.90307659562677
 20
168.17845832379538
  0
LWPOLYLINE
  5
BB
330
17
100
AcDbEntity
  8
0
 62
0
100
AcDbPolyline
 90
7
 70
0
 10
111.16981184249744
 20
157.2790588048287
 10
113.76017127465457
 20
155.22925793342296
 10
127.77750998781994
 20
165.34064712524417
 10
127.01740950578824
 20
173.4827830685303
 10
121.91301913978532
 20
178.17188548166308
 10
110.23420346528292
 20
165.80037286654118
 10
111.16981184249744
 20
157.2790588048287
  0
LWPOLYLINE
  5
BC
330
17
100
AcDbEntity
  8
0
 62
0
100
AcDbPolyline
 90
6
 70
0
 10
95.31750225881115
 20
179.08993843300271
 10
105.45569038949907
 20
172.39249551864344
 10
115.48613405041397
 20
183.0178674520925
 10
107.2284045969136
 20
187.3708738815971
 10
95.30358759174123
 20
183.15751958740879
 10
95.31750225881115
 20
179.08993843300271
  0
LWPOLYLINE
  5
BD
330
17
100
AcDbEntity
  8
0
 62
0
100
AcDbPolyline
 90
7
 70
0
 10
130.28853525500745
 20
191.84225604878742
 10
126.45220954483375
 20
184.86522524161268
 10
131.9235656838864
 20
179.83901301361624
 10
143.77571060182527
 20
183.15410577096048
 10
145.49557838588953
 20
189.86544355107475
 10
140.54332326585427
 20
194.71056163413454
 10
130.28853525500745
 20
191.84225604878742
  0
LWPOLYLINE
  5
BE
330
17
100
AcDbEntity
  8
0
 62
0
100
AcDbPolyline
 90
6
 70
0
 10
92.39056398905814
 20
190.61294764941562
 10
103.22178053669631
 20
194.439903881494
 10
101.86962225846946
 20
206.6891653850675
 10
92.93001201981679
 20
203.53056385889653
 10
92.23116956930608
 20
190.778651060164
 10
92.39056398905814
 20
190.61294764941562
  0
LWPOLYLINE
  5
BF
330
17
100
AcDbEntity
  8
0
 62
0
100
AcDbPolyline
 90
7
 70
0
 10
109.43270193599164
 20
211.08745659198615
 10
111.28868866479024
 20
194.27399092176933
 10
119.97756126429886
 20
189.69371028812606
 10
123.2208528467454
 20
195.5922045759857
 10
116.88604369619861
 20
213.34266718486327
 10
111.44664369244128
 20
213.9803473191336
 10
109.43270193599164
 20
211.08745659198615
  0
LWPOLYLINE
  5
C0
330
17
100
AcDbEntity
  8
0
 62
0
100
AcDbPolyline
 90
6
 70
0
 10
124.74663089541718
 20
215.11806347928945
 10
130.1068401024677
 20
200.09848027639094
 10
138.38839837582782
 20
202.41486554229635
 10
140.10826615989208
 20
209.12620332287628
 10
130.72911849431694
 20
218.3024426019751
 10
124.74663089541718
 20
215.11806347928945
  0
LWPOLYLINE
  5
C1
330
17
100
AcDbEntity
  8
0
 62
0
100
AcDbPolyline
 90
6
 70
0
 10
81.36614790232852
 20
216.19868475859988
 10
89.6085372143425
 20
210.8416752723046
 10
102.74518087645993
 20
215.48320008311424
 10
104.42970974184573
 20
217.90291153648872
 10
88.7002282445319
 20
222.88073517670858
 10
81.36614790232852
 20
216.19868475859988
  0
LWPOLYLINE
  5
C2
330
17
100
AcDbEntity
  8
0
 62
0
100
AcDbPolyline
 90
8
 70
0
 10
111.58086055889726
 20
239.20457667354498
 10
111.94763922179118
 20
222.07609061067927
 10
112.0084212757647
 20
221.96927535496656
 10
119.04262190219015
 20
221.14463109299544
 10
128.32235152134672
 20
226.08407756509263
 10
132.42913642292842
 20
235.52747857673097
 10
129.25405945302919
 20
240.55018381364647
 10
111.58086055889726
 20
239.20457667354498
  0
LWPOLYLINE
  5
C3
330
17
100
AcDbEntity
  8
0
 62
0
100
AcDbPolyline
 90
7
 70
0
 10
90.68469077488407
 20
239.2273320021108
 10
91.46083437418565
 20
230.39814331671226
 10
103.8515688101761
 20
226.47691483851526
 10
103.53450976405293
 20
241.28350531039763
 10
102.91463996376842
 20
241.94226161539558
 10
94.8533908938989
 20
242.76474694265056
 10
90.68469077488407
 20
239.2273320021108
  0
LWPOLYLINE
  5
C4
330
17
100
AcDbEntity
  8
0
 62
0
100
AcDbPolyline
 90
6
 70
0
 10
113.33450244460255
 20
259.39598258826885
 10
109.41338922968134
 20
247.06270376089964
 10
127.69924228591844
 20
248.4549573414028
 10
127.82184623274952
 20
249.69466197686273
 10
120.80201339861378
 20
259.9645461017266
 10
113.33450244460255
 20
259.39598258826885
  0
LWPOLYLINE
  5
C5
330
17
100
AcDbEntity
  8
0
 62
0
100
AcDbPolyline
 90
7
 70
0
 10
96.27435275260359
 20
250.66129917288202
 10
101.97789084725082
 20
250.07936995159838
 10
105.8825892265886
 20
262.36101835276935
 10
102.10068904235959
 20
267.1243796968833
 10
96.61673375824466
 20
266.9959066017531
 10
91.89296424761415
 20
260.48576506329704
 10
96.27435275260359
 20
250.66129917288202
  0
LWPOLYLINE
  5
C6
330
17
100
AcDbEntity
  8
0
 62
0
100
AcDbPolyline
 90
6
 70
0
 10
127.40654776105657
 20
264.4789813771844
 10
132.7319120517932
 20
256.6880730349571
 10
146.14470498170704
 20
268.1689063898288
 10
141.03915997734293
 20
274.51366436211396
 10
131.9558826633729
 20
273.95464609339837
 10
127.40654776105657
 20
264.4789813771844
  0
LWPOLYLINE
  5
C7
330
17
100
AcDbEntity
  8
0
 62
0
100
AcDbPolyline
 90
7
 70
0
 10
112.34717759117484
 20
279.32199363978583
 10
108.68588458839804
 20
271.69600310092795
 10
112.15295384265482
 20
267.3291761456989
 10
120.19466494722292
 20
267.9414582770318
 10
124.49370481818914
 20
276.8957914478146
 10
119.51945344218984
 20
281.5773612154648
 10
112.34717759117484
 20
279.32199363978583
  0
LWPOLYLINE
  5
C8
330
17
100
AcDbEntity
  8
0
 62
0
100
AcDbPolyline
 90
7
 70
0
 10
87.47767970757559
 20
288.22938034087423
 10
96.60816414887086
 20
274.99790085349235
 10
101.45138071058318
 20
275.11136330673475
 10
104.66774576622993
 20
281.8106276012026
 10
95.66077315248549
 20
290.9342791634612
 10
88.81800377275795
 20
290.2389954264276
 10
87.47767970757559
 20
288.22938034087423
  0
LWPOLYLINE
  5
C9
330
17
100
AcDbEntity
  8
0
 62
0
100
AcDbPolyline
 90
7
 70
0
 10
125.83960172347724
 20
296.5411251439713
 10
124.76727979630232
 20
287.62421978507194
 10
130.8476868183352
 20
281.9015798257664
 10
139.76983443647623
 20
282.45068158032376
 10
142.8539323238656
 20
293.51831138329584
 10
142.6511008972302
 20
293.91131915673617
 10
125.83960172347724
 20
296.5411251439713
  0
LWPOLYLINE
  5
CA
330
17
100
AcDbEntity
  8
0
 62
0
100
AcDbPolyline
 90
6
 70
0
 10
102.77403599070385
 20
295.1160938777961
 10
110.62256924295798
 20
287.1658884376288
 10
116.89158961828798
 20
289.1372216074728
 10
117.95484784245491
 20
297.9787576371804
 10
108.07985958922654
 20
300.5240827618167
 10
102.77403599070385
 20
295.1160938777961
  0
LWPOLYLINE
  5
CB
330
17
100
AcDbEntity
  8
0
 62
0
100
AcDbPolyline
 90
7
 70
0
 10
86.2041880544275
 20
308.7290532305837
 10
89.39679390564561
 20
298.33899657018486
 10
95.31908942060545
 20
298.94075231077153
 10
102.36932206898928
 20
306.126739384234
 10
98.97191795008257
 20
318.3390133558773
 10
94.85175161808729
 20
319.7190624583513
 10
86.2041880544275
 20
308.7290532305837
  0
LWPOLYLINE
  5
CC
330
17
100
AcDbEntity
  8
0
 62
0
100
AcDbPolyline
 90
6
 70
0
 10
127.57511956943199
 20
304.3669283856638
 10
141.92925974493846
 20
302.1215246064589
 10
142.9329641549848
 20
308.664612027444
 10
132.45370650244877
 20
316.688766104728
 10
130.85635839868337
 20
316.0831289152615
 10
127.57511956943199
 20
304.3669283856638
  0
LWPOLYLINE
  5
CD
330
17
100
AcDbEntity
  8
0
 62
0
100
AcDbPolyline
 90
6
 70
0
 10
110.07663379330188
 20
308.2708816347644
 10
119.6682593957521
 20
305.7985945791938
 10
122.83832202432677
 20
317.11782227978114
 10
113.84988466929644
 20
322.01220033280555
 10
107.0525970752351
 20
319.1410529800691
 10
110.07663379330188
 20
308.2708816347644
  0
LWPOLYLINE
  5
CE
330
17
100
AcDbEntity
  8
0
 62
0
100
AcDbPolyline
 90
7
 70
0
 10
118.4796762582846
 20
328.60031018601734
 10
127.84891979210079
 20
323.4985758006573
 10
130.2031734441407
 20
324.39119498720396
 10
136.5935842427425
 20
337.7139578616247
 10
134.1625303751789
 20
340.89449681211266
 10
119.70989609137177
 20
336.0431372519583
 10
118.4796762582846
 20
328.60031018601734
  0
LWPOLYLINE
  5
CF
330
17
100
AcDbEntity
  8
0
 62
0
100
AcDbPolyline
 90
8
 70
0
 10
101.33071120874956
 20
341.5946110511199
 10
95.1746841869317
 20
330.05180753543976
 10
96.32324315374717
 20
327.66302543841306
 10
102.09287964366376
 20
325.7304865509272
 10
110.48252363270149
 20
329.2742389371619
 10
111.8943777945824
 20
337.8159532603808
 10
107.30508418753743
 20
342.8828616427258
 10
101.33071120874956
 20
341.5946110511199
  0
LWPOLYLINE
  5
D0
330
17
100
AcDbEntity
  8
0
 62
0
100
AcDbPolyline
 90
6
 70
0
 10
113.23448892030865
 20
348.2533513336443
 10
117.36380164278671
 20
343.6942947465927
 10
129.77952139871195
 20
347.8619170324877
 10
122.12859601899981
 20
356.3090858693235
 10
115.35605221800506
 20
354.8487261651084
 10
113.23448892030865
 20
348.2533513336443
  0
LWPOLYLINE
  5
D1
330
17
100
AcDbEntity
  8
0
 62
0
100
AcDbPolyline
 90
7
 70
0
 10
94.89395589195192
 20
356.5497687371448
 10
100.29726136336103
 20
349.55564001165334
 10
105.6188060506247
 20
350.7031216161326
 10
107.74036934878677
 20
357.29849644759673
 10
103.08938884595409
 20
362.43351157531146
 10
96.31684504495934
 20
360.9731518710964
 10
94.89395589195192
 20
356.5497687371448
  0
LWPOLYLINE
  5
D2
330
17
100
AcDbEntity
  8
0
 62
0
100
AcDbPolyline
 90
7
 70
0
 10
130.17956404900178
 20
368.2749503921718
 10
128.05800075130537
 20
361.679575560242
 10
135.11094920895994
 20
353.89261601455513
 10
144.44592162407935
 20
366.84131194427613
 10
143.3462536353618
 20
370.5517669754103
 10
142.70418428862467
 20
370.97562701310966
 10
130.17956404900178
 20
368.2749503921718
  0
LWPOLYLINE
  5
D3
330
17
100
AcDbEntity
  8
0
 62
0
100
AcDbPolyline
 90
7
 70
0
 10
111.14035687595606
 20
374.3993760976941
 10
109.01879357825965
 20
367.80400126622993
 10
113.66977408155799
 20
362.6689861385152
 10
120.44231788255274
 20
364.1293458427303
 10
122.56388118024915
 20
370.7247206746601
 10
117.91290067741647
 20
375.85973580190915
 10
111.14035687595606
 20
374.3993760976941
  0
LWPOLYLINE
  5
D4
330
17
100
AcDbEntity
  8
0
 62
0
100
AcDbPolyline
 90
7
 70
0
 10
89.97958640521392
 20
373.92842697175223
 10
94.63056690851226
 20
368.79341184450317
 10
101.40311070950702
 20
370.25377154871825
 10
103.52467400720343
 20
376.8491463801824
 10
95.97110328776762
 20
385.1888287091628
 10
93.67940810555592
 20
385.43018652182076
 10
89.97958640521392
 20
373.92842697175223
  0
LWPOLYLINE
  5
D5
330
17
100
AcDbEntity
  8
0
 62
0
100
AcDbPolyline
 90
6
 70
0
 10
123.84230540972203
 20
381.2302254928276
 10
128.4932859125547
 20
376.09521036557857
 10
138.59799486258999
 20
378.27408291408796
 10
135.78653023112565
 20
389.2456723559648
 10
125.29027308244258
 20
385.7315710597672
 10
123.84230540972203
 20
381.2302254928276
  0
LWPOLYLINE
  5
D6
330
17
100
AcDbEntity
  8
0
 62
0
100
AcDbPolyline
 90
6
 70
0
 10
103.61440835753456
 20
388.6670498443768
 10
109.45407873950899
 20
382.21963607110087
 10
116.2266225409694
 20
383.67999577531594
 10
117.66270191036165
 20
388.1443837770261
 10
111.89984875917435
 20
395.87344040917236
 10
103.61440835753456
 20
388.6670498443768
  0
LWPOLYLINE
  5
D7
330
17
100
AcDbEntity
  8
0
 62
0
100
AcDbPolyline
 90
5
 70
0
 10
134.2491634390317
 20
397.1674157749862
 10
128.76033515948802
 20
404.0795618864708
 10
117.52632224420086
 20
401.71093623721976
 10
123.57785414159298
 20
393.5947077796795
 10
134.2491634390317
 20
397.1674157749862
  0
LWPOLYLINE
  5
D8
330
17
100
AcDbEntity
  8
0
 62
0
100
AcDbPolyline
 90
8
 70
0
 10
97.74075848935172
 20
409.2371523371898
 10
87.63383758347481
 20
398.88337580682713
 10
92.73814219003543
 20
393.57356476001445
 10
96.5980138592422
 20
393.16704901130873
 10
108.77732098009437
 20
403.7601906746626
 10
108.81800850434229
 20
404.0477896445431
 10
107.2468345426023
 20
406.8125347286463
 10
97.74075848935172
 20
409.2371523371898
  0
LWPOLYLINE
  5
D9
330
17
100
AcDbEntity
  8
0
 62
0
100
AcDbPolyline
 90
7
 70
0
 10
118.33156387554482
 20
420.75960229439664
 10
114.30794513877481
 20
410.5790386959911
 10
115.00359712401405
 20
409.35492191938687
 10
126.94193454040214
 20
411.87205025376755
 10
128.34231546195224
 20
418.9761504815892
 10
125.64089009119198
 20
421.69710224736485
 10
118.33156387554482
 20
420.75960229439664
  0
LWPOLYLINE
  5
DA
330
17
100
AcDbEntity
  8
0
 62
0
100
AcDbPolyline
 90
6
 70
0
 10
99.7179368105717
 20
416.98897572802383
 10
107.45883467793465
 20
415.0145840683021
 10
110.85472720954567
 20
423.6068742816337
 10
104.6258694846183
 20
430.60631225453693
 10
97.84418256022036
 20
423.6589865983464
 10
99.7179368105717
 20
416.98897572802383
  0
LWPOLYLINE
  5
DB
330
17
100
AcDbEntity
  8
0
 62
0
100
AcDbPolyline
 90
6
 70
0
 10
131.43691683607176
 20
427.2138516591862
 10
134.0908406325616
 20
424.5407448174432
 10
144.84135590400547
 20
426.13831835435707
 10
143.25642286753282
 20
436.25557934595275
 10
132.91580273164436
 20
434.45530449701477
 10
131.43691683607176
 20
427.2138516591862
  0
LWPOLYLINE
  5
DC
330
17
100
AcDbEntity
  8
0
 62
0
100
AcDbPolyline
 90
7
 70
0
 10
108.86719100130722
 20
439.70953159090135
 10
108.81030918145552
 20
437.93810116555545
 10
117.06462051486596
 20
428.66263803290207
 10
123.74259119993076
 20
429.5191598270089
 10
125.2598811746575
 20
436.94866052465517
 10
121.88374521350488
 20
441.37904511401433
 10
108.86719100130722
 20
439.70953159090135
  0
LWPOLYLINE
  5
DD
330
17
100
AcDbEntity
  8
0
 62
0
100
AcDbPolyline
 90
7
 70
0
 10
130.9194231359288
 20
452.6198869180866
 10
128.24678018130362
 20
446.2279404519126
 10
131.25087020592764
 20
442.28577867252756
 10
144.02641689917073
 20
444.50996784968305
 10
146.46253238758072
 20
448.8253223901615
 10
143.0064617539756
 20
454.1701800372452
 10
130.9194231359288
 20
452.6198869180866
  0
LWPOLYLINE
  5
DE
330
17
100
AcDbEntity
  8
0
 62
0
100
AcDbPolyline
 90
7
 70
0
 10
105.76567939249799
 20
449.0170670585707
 10
106.84050201857463
 20
447.5151217562147
 10
120.86599615542218
 20
449.31404271125797
 10
123.53863911004737
 20
455.70598917743195
 10
119.33937256736681
 20
461.21653910502795
 10
112.87209918815643
 20
460.3870415134356
 10
105.76567939249799
 20
449.0170670585707
  0
LWPOLYLINE
  5
DF
330
17
100
AcDbEntity
  8
0
 62
0
100
AcDbPolyline
 90
8
 70
0
 10
98.8561502857307
 20
473.1905014178777
 10
91.44377920497209
 20
469.0263463632204
 10
101.05882079899311
 20
456.58037624796856
 10
105.77615965902805
 20
464.12792112594474
 10
100.59318686144084
 20
472.53433959067337
 10
100.51934785177087
 20
472.5528352997491
 10
99.22576528022209
 20
473.015686544842
 10
98.8561502857307
 20
473.1905014178777
  0
LWPOLYLINE
  5
E0
330
17
100
AcDbEntity
  8
0
 62
0
100
AcDbPolyline
 90
15
 70
0
 10
112.36131659560778
 20
474.30942542776444
 10
111.1828876488973
 20
473.60310229912307
 10
109.94090138644461
 20
473.015686544842
 10
109.73922847185129
 20
472.94352682216635
 10
112.5347952414304
 20
468.40931353773925
 10
118.32162350928411
 20
469.15153670134026
 10
120.9942664639093
 20
475.54348316844556
 10
117.91976590966806
 20
479.57804221203554
 10
116.9794795958921
 20
479.454573019477
 10
116.93023103421031
 20
479.35044568443607
 10
116.22390790556898
 20
478.17201673772564
 10
115.40547968041166
 20
477.068494021709
 10
114.482828269945
 20
476.05050506338836
 10
113.46483931162437
 20
475.1278536529217
 10
112.36131659560778
 20
474.30942542776444
  0
LWPOLYLINE
  5
E1
330
17
100
AcDbEntity
  8
0
 62
0
100
AcDbPolyline
 90
6
 70
0
 10
156.17460476141423
 20
32.34196078227836
 10
162.40677757933736
 20
35.3685136014596
 10
163.03770121885464
 20
44.17632235642526
 10
154.8245063838549
 20
44.93291411837566
 10
150.41304855514318
 20
36.2424214376137
 10
156.17460476141423
 20
32.34196078227836
  0
LWPOLYLINE
  5
E2
330
17
100
AcDbEntity
  8
0
 62
0
100
AcDbPolyline
 90
7
 70
0
 10
138.04788805544376
 20
52.36961972769353
 10
135.11406560707837
 20
46.093260445259546
 10
140.5753596383147
 20
38.27826830847192
 10
142.6238865996711
 20
38.57199135804552
 10
147.83537657093257
 20
48.83853298714388
 10
144.9502858617343
 20
52.96703459890563
 10
138.04788805544376
 20
52.36961972769353
  0
LWPOLYLINE
  5
E3
330
17
100
AcDbEntity
  8
0
 62
0
100
AcDbPolyline
 90
7
 70
0
 10
154.70244858320802
 20
52.97802994316447
 10
165.9375137859024
 20
51.94306633304808
 10
168.47608937881887
 20
54.21744154542688
 10
161.34398628491908
 20
64.42332485467199
 10
154.44158847862855
 20
63.825909983459894
 10
151.50776603072882
 20
57.54955070102591
 10
154.70244858320802
 20
52.97802994316447
  0
LWPOLYLINE
  5
E4
330
17
100
AcDbEntity
  8
0
 62
0
100
AcDbPolyline
 90
6
 70
0
 10
167.9014664539136
 20
69.00584095725793
 10
175.15585682727396
 20
58.62496722964573
 10
186.07630497403443
 20
69.82201259266589
 10
184.44929537922144
 20
76.46051684077833
 10
170.835288902279
 20
75.28220023922626
 10
167.9014664539136
 20
69.00584095725793
  0
LWPOLYLINE
  5
E5
330
17
100
AcDbEntity
  8
0
 62
0
100
AcDbPolyline
 90
7
 70
0
 10
152.71700029587373
 20
83.75141614032913
 10
149.78317784750834
 20
77.47505685789514
 10
153.7517532054335
 20
71.79611244620759
 10
160.65415101172403
 20
72.39352731741968
 10
163.58797346008942
 20
78.66988659985367
 10
159.61939810216427
 20
84.34883101154122
 10
152.71700029587373
 20
83.75141614032913
  0
LWPOLYLINE
  5
E6
330
17
100
AcDbEntity
  8
0
 62
0
100
AcDbPolyline
 90
7
 70
0
 10
166.17687827115878
 20
88.9313471136615
 10
170.14545362908393
 20
83.25240270197395
 10
184.7528924685903
 20
84.51670265067372
 10
186.33585715387017
 20
88.33829537648711
 10
177.91161072207615
 20
100.68884447971362
 10
170.90827980823815
 20
99.0532875108533
 10
166.17687827115878
 20
88.9313471136615
  0
LWPOLYLINE
  5
E7
330
17
100
AcDbEntity
  8
0
 62
0
100
AcDbPolyline
 90
6
 70
0
 10
144.2531880843453
 20
102.84600932439793
 10
152.02716502267867
 20
91.72161860307682
 10
158.9295628289692
 20
92.31903347428891
 10
163.00630343705416
 20
101.04045040030036
 10
151.36759214522317
 20
108.56149746580053
 10
144.2531880843453
 20
102.84600932439793
  0
LWPOLYLINE
  5
E8
330
17
100
AcDbEntity
  8
0
 62
0
100
AcDbPolyline
 90
8
 70
0
 10
173.83886206895113
 20
125.96217361195016
 10
170.50803100736812
 20
126.21703500775624
 10
156.83344322396442
 20
114.55440851170573
 10
168.85151147143915
 20
106.78821733603257
 10
176.64230502862483
 20
108.60767822582278
 10
180.08868958847597
 20
118.20522892391313
 10
179.7042030119337
 20
120.52003531586382
 10
173.83886206895113
 20
125.96217361195016
  0
LWPOLYLINE
  5
E9
330
17
100
AcDbEntity
  8
0
 62
0
100
AcDbPolyline
 90
5
 70
0
 10
163.24117630301043
 20
130.53376390840862
 10
156.70525994431227
 20
136.9282823191956
 10
145.91618461953476
 20
133.91053441641856
 10
152.54382077092305
 20
121.4103253051639
 10
163.24117630301043
 20
130.53376390840862
  0
LWPOLYLINE
  5
EA
330
17
100
AcDbEntity
  8
0
 62
0
100
AcDbPolyline
 90
7
 70
0
 10
162.29992040246725
 20
142.64665397172797
 10
170.92461685743183
 20
134.2085441128351
 10
172.49452134920284
 20
134.08842152412984
 10
175.64416620973498
 20
146.37909336816523
 10
170.69191108969972
 20
151.2242114502937
 10
164.01978818606585
 20
149.35799175184223
 10
162.29992040246725
 20
142.64665397172797
  0
LWPOLYLINE
  5
EB
330
17
100
AcDbEntity
  8
0
 62
0
100
AcDbPolyline
 90
6
 70
0
 10
144.29326778650284
 20
154.22421076903123
 10
143.83875208813697
 20
141.6365132500418
 10
154.55033505428582
 20
144.63258622735742
 10
156.27020283788443
 20
151.34392400793735
 10
151.31794771784917
 20
156.18904209053147
 10
144.29326778650284
 20
154.22421076903123
  0
LWPOLYLINE
  5
EC
330
17
100
AcDbEntity
  8
0
 62
0
100
AcDbPolyline
 90
7
 70
0
 10
178.0064393314533
 20
163.65392088387165
 10
176.28657154738903
 20
156.94258310329172
 10
181.2388266674243
 20
152.09746502116326
 10
190.120013570413
 20
154.5815688335337
 10
190.24829436512664
 20
161.5022770800628
 10
185.87636809702963
 20
165.85517171500254
 10
178.0064393314533
 20
163.65392088387165
  0
LWPOLYLINE
  5
ED
330
17
100
AcDbEntity
  8
0
 62
0
100
AcDbPolyline
 90
7
 70
0
 10
158.6324759600684
 20
168.61875152364377
 10
156.91260817600414
 20
161.9074137435295
 10
161.86486329557374
 20
157.06229566093538
 10
168.5369861992076
 20
158.92851535938684
 10
170.25685398327187
 20
165.6398531395011
 10
165.3045988632366
 20
170.48497122209523
 10
158.6324759600684
 20
168.61875152364377
  0
LWPOLYLINE
  5
EE
330
17
100
AcDbEntity
  8
0
 62
0
100
AcDbPolyline
 90
7
 70
0
 10
135.1500614406541
 20
172.4344317997806
 10
135.78774819336832
 20
165.60358199439946
 10
141.19123103423044
 20
161.66360366772864
 10
149.16302282782272
 20
163.89334599915895
 10
150.88289061188698
 20
170.60468377927322
 10
145.93063549231738
 20
175.44980186186734
 10
135.1500614406541
 20
172.4344317997806
  0
LWPOLYLINE
  5
EF
330
17
100
AcDbEntity
  8
0
 62
0
100
AcDbPolyline
 90
6
 70
0
 10
170.89925932139158
 20
176.20334287509326
 10
175.85151444142684
 20
171.35822479249913
 10
183.53059765789658
 20
173.50609535360712
 10
185.7740996335633
 20
186.5941795521416
 10
172.61912710545585
 20
182.91468065520752
 10
170.89925932139158
 20
176.20334287509326
  0
LWPOLYLINE
  5
F0
330
17
100
AcDbEntity
  8
0
 62
0
100
AcDbPolyline
 90
7
 70
0
 10
151.5252959500067
 20
181.16817351486537
 10
156.47755107004195
 20
176.32305543227125
 10
163.14967397321016
 20
178.1892751307227
 10
164.86954175727442
 20
184.90061291130263
 10
159.91728663770482
 20
189.7457309934311
 10
153.24516373407096
 20
187.87951129497964
 10
151.5252959500067
 20
181.16817351486537
  0
LWPOLYLINE
  5
F1
330
17
100
AcDbEntity
  8
0
 62
0
100
AcDbPolyline
 90
6
 70
0
 10
165.51194709539413
 20
195.46410264642913
 10
170.46420221496373
 20
190.61898456430066
 10
183.61617964925244
 20
194.29764572121206
 10
178.0781399034895
 20
205.20920130200687
 10
167.2318148794584
 20
202.17544042700905
 10
165.51194709539413
 20
195.46410264642913
  0
LWPOLYLINE
  5
F2
330
17
100
AcDbEntity
  8
0
 62
0
100
AcDbPolyline
 90
7
 70
0
 10
147.8578515080735
 20
207.14027106678117
 10
146.13798372400925
 20
200.4289332866669
 10
151.09023884357885
 20
195.58381520407278
 10
157.7623617472127
 20
197.45003490252424
 10
159.48222953127697
 20
204.1613726826385
 10
154.52997441170737
 20
209.00649076523263
 10
147.8578515080735
 20
207.14027106678117
  0
LWPOLYLINE
  5
F3
330
17
100
AcDbEntity
  8
0
 62
0
100
AcDbPolyline
 90
6
 70
0
 10
165.07688998943195
 20
209.87974433563653
 10
174.84478290146217
 20
212.611863397155
 10
168.34697633609176
 20
225.16970655191693
 10
162.80791001068428
 20
225.19564743908126
 10
160.1246348693967
 20
214.72486241823066
 10
165.07688998943195
 20
209.87974433563653
  0
LWPOLYLINE
  5
F4
330
17
100
AcDbEntity
  8
0
 62
0
100
AcDbPolyline
 90
7
 70
0
 10
139.60375429922715
 20
231.96528861215342
 10
136.20104786753654
 20
224.14089017696682
 10
145.7029266175814
 20
214.8445749758743
 10
152.37504952121526
 20
216.71079467432577
 10
155.25467306841165
 20
227.94777840431783
 10
150.68754049157724
 20
232.35338869886476
 10
139.60375429922715
 20
231.96528861215342
  0
LWPOLYLINE
  5
F5
330
17
100
AcDbEntity
  8
0
 62
0
100
AcDbPolyline
 90
5
 70
0
 10
181.77672567451373
 20
216.6231345479377
 10
191.80534014711156
 20
223.8572626561858
 10
185.18494095094502
 20
237.78086310354996
 10
175.69112018682063
 20
228.38434634367007
 10
181.77672567451373
 20
216.6231345479377
  0
LWPOLYLINE
  5
F6
330
17
100
AcDbEntity
  8
0
 62
0
100
AcDbPolyline
 90
7
 70
0
 10
161.330108047463
 20
233.20265610059727
 10
169.14988588821143
 20
233.16603404851634
 10
182.48055183375254
 20
246.3600714221597
 10
181.72345643071458
 20
247.8406488090754
 10
160.60673738457263
 20
245.36836490370337
 10
157.0368033531122
 20
237.34412277406085
 10
161.330108047463
 20
233.20265610059727
  0
LWPOLYLINE
  5
F7
330
17
100
AcDbEntity
  8
0
 62
0
100
AcDbPolyline
 90
7
 70
0
 10
135.7680868259631
 20
248.75644776513803
 10
135.4654347812757
 20
245.69619437363002
 10
139.09632944874465
 20
239.95242380267013
 10
149.6049224305898
 20
240.32038343101743
 10
153.539173476398
 20
249.16351126190278
 10
149.14804465696216
 20
260.2091755411588
 10
135.7680868259631
 20
248.75644776513803
  0
LWPOLYLINE
  5
F8
330
17
100
AcDbEntity
  8
0
 62
0
100
AcDbPolyline
 90
5
 70
0
 10
160.46157977962866
 20
253.4060118432157
 10
179.18590478925034
 20
255.59820122979585
 10
161.6478572259657
 20
267.0702025965788
 10
155.67268999805674
 20
265.45222386959944
 10
160.46157977962866
 20
253.4060118432157
  0
LWPOLYLINE
  5
F9
330
17
100
AcDbEntity
  8
0
 62
0
100
AcDbPolyline
 90
6
 70
0
 10
182.3060633824207
 20
263.11673518838364
 10
186.9550634296611
 20
271.9012189988047
 10
183.14836854161695
 20
280.3096906082705
 10
171.8939673542045
 20
280.1993820519187
 10
167.6599816698581
 20
272.6970415945165
 10
182.3060633824207
 20
263.11673518838364
  0
LWPOLYLINE
  5
FA
330
17
100
AcDbEntity
  8
0
 62
0
100
AcDbPolyline
 90
7
 70
0
 10
150.17469270946458
 20
289.98698371518407
 10
147.26340304967016
 20
279.5394955418073
 10
152.59954289486632
 20
272.9081729711965
 10
159.67420727340505
 20
274.8238777589053
 10
164.92689328594133
 20
284.13128730664033
 10
161.4041526527144
 20
290.0970478133299
 10
150.17469270946458
 20
289.98698371518407
  0
LWPOLYLINE
  5
FB
330
17
100
AcDbEntity
  8
0
 62
0
100
AcDbPolyline
 90
7
 70
0
 10
173.46382421953604
 20
303.3274340202101
 10
168.29281952185556
 20
294.16475831912834
 10
171.8155601550825
 20
288.1989978124388
 10
182.8813281254843
 20
288.30745750488717
 10
183.11693300306797
 20
288.97192937843505
 10
175.07384495437145
 20
303.0840161401779
 10
173.46382421953604
 20
303.3274340202101
  0
LWPOLYLINE
  5
FC
330
17
100
AcDbEntity
  8
0
 62
0
100
AcDbPolyline
 90
7
 70
0
 10
149.4256423478946
 20
298.2284447253682
 10
149.5532059147954
 20
297.9812765513547
 10
161.3257454535924
 20
298.09666357385
 10
166.59213313739747
 20
307.4283515695483
 10
161.6903996434994
 20
314.2083740444854
 10
150.91058182623237
 20
307.9086740134284
 10
149.4256423478946
 20
298.2284447253682
  0
LWPOLYLINE
  5
FD
330
17
100
AcDbEntity
  8
0
 62
0
100
AcDbPolyline
 90
7
 70
0
 10
167.7532487004064
 20
319.4768145970069
 10
173.5934190438129
 20
311.3987568589859
 10
176.73193084308878
 20
310.9242475103587
 10
185.1324083697982
 20
316.13226969549436
 10
184.91508272709325
 20
323.0570635233075
 10
178.80937253450975
 20
326.3312509102747
 10
167.7532487004064
 20
319.4768145970069
  0
LWPOLYLINE
  5
FE
330
17
100
AcDbEntity
  8
0
 62
0
100
AcDbPolyline
 90
6
 70
0
 10
138.12966297287494
 20
322.4185328018852
 10
147.54595052357763
 20
315.2083138484508
 10
158.13739428156987
 20
321.39792852485556
 10
150.77114878734574
 20
333.00550411650914
 10
143.62577378284186
 20
333.8768542409875
 10
138.12966297287494
 20
322.4185328018852
  0
LWPOLYLINE
  5
FF
330
17
100
AcDbEntity
  8
0
 62
0
100
AcDbPolyline
 90
6
 70
0
 10
164.24025454511866
 20
326.7115776102059
 10
174.5940153109841
 20
333.1305717207492
 10
174.36517358245328
 20
340.42231038548056
 10
163.8808553419076
 20
343.12951885592196
 10
158.09835710190237
 20
336.3898511497304
 10
164.24025454511866
 20
326.7115776102059
  0
LWPOLYLINE
  5
100
330
17
100
AcDbEntity
  8
0
 62
0
100
AcDbPolyline
 90
7
 70
0
 10
139.7910095457919
 20
346.7044228884392
 10
143.41613645851612
 20
341.96168250646446
 10
151.4928507776931
 20
340.9767592485063
 10
158.29130122298375
 20
348.900548416283
 10
157.43501645885408
 20
356.21473273551095
 10
149.9250853266567
 20
360.76156842485074
 10
139.7910095457919
 20
346.7044228884392
  0
LWPOLYLINE
  5
101
330
17
100
AcDbEntity
  8
0
 62
0
100
AcDbPolyline
 90
7
 70
0
 10
165.440527995117
 20
356.63434804473076
 10
166.12201872142032
 20
350.81321354219693
 10
177.22437213221565
 20
347.9464191064239
 10
181.56400645291433
 20
351.74375679586086
 10
181.53646024037153
 20
357.03284028228376
 10
172.77263607643545
 20
361.44572864342484
 10
165.440527995117
 20
356.63434804473076
  0
LWPOLYLINE
  5
102
330
17
100
AcDbEntity
  8
0
 62
0
100
AcDbPolyline
 90
7
 70
0
 10
152.2344511207193
 20
368.7153799558059
 10
161.09452371764928
 20
363.35111048640687
 10
168.383585607633
 20
368.13424387304116
 10
167.98800980718806
 20
375.05114489803094
 10
161.80000990442932
 20
378.1670167186298
 10
151.44676833460107
 20
371.3731471971609
 10
152.2344511207193
 20
368.7153799558059
  0
LWPOLYLINE
  5
103
330
17
100
AcDbEntity
  8
0
 62
0
100
AcDbPolyline
 90
7
 70
0
 10
175.97495914483443
 20
375.50791648784656
 10
176.37053494527936
 20
368.5910154628568
 10
184.89614862250164
 20
364.2980743149296
 10
194.56768891541287
 20
372.8969012672082
 10
194.38929140241817
 20
376.2171529336833
 10
184.75398824596778
 20
381.26877677869055
 10
175.97495914483443
 20
375.50791648784656
  0
LWPOLYLINE
  5
104
330
17
100
AcDbEntity
  8
0
 62
0
100
AcDbPolyline
 90
6
 70
0
 10
142.8534533381462
 20
393.89565727962184
 10
146.93204012373462
 20
377.9791918137111
 10
157.4109594351612
 20
384.8555319482461
 10
157.01538363518193
 20
391.7724329732359
 10
148.14035107707605
 20
396.2413186040707
 10
142.8534533381462
 20
393.89565727962184
  0
LWPOLYLINE
  5
105
330
17
100
AcDbEntity
  8
0
 62
0
100
AcDbPolyline
 90
6
 70
0
 10
165.39790877280757
 20
385.3123035380617
 10
171.58590867603198
 20
382.1964317174629
 10
179.89130134508014
 20
387.64648846965287
 10
176.5179352555424
 20
399.78582331314686
 10
165.0023329728283
 20
392.2292045630515
 10
165.39790877280757
 20
385.3123035380617
  0
LWPOLYLINE
  5
106
330
17
100
AcDbEntity
  8
0
 62
0
100
AcDbPolyline
 90
7
 70
0
 10
156.76324135577306
 20
415.8598735487089
 10
153.0062717879191
 20
402.74811260085556
 10
160.61328250356019
 20
398.9177197926678
 10
172.30272400472313
 20
406.588413053751
 10
168.0711524747312
 20
416.33075008085
 10
167.36991169350222
 20
416.7531964756549
 10
156.76324135577306
 20
415.8598735487089
  0
LWPOLYLINE
  5
107
330
17
100
AcDbEntity
  8
0
 62
0
100
AcDbPolyline
 90
7
 70
0
 10
136.05645161913708
 20
416.744992522616
 10
134.6368996282108
 20
409.54363789930943
 10
140.8268588455394
 20
401.748549337592
 10
144.91803524736315
 20
403.56369968326766
 10
149.0694692414254
 20
418.05213488088924
 10
148.365587615408
 20
418.57418390885
 10
136.05645161913708
 20
416.744992522616
  0
LWPOLYLINE
  5
108
330
17
100
AcDbEntity
  8
0
 62
0
100
AcDbPolyline
 90
6
 70
0
 10
176.2691693045199
 20
417.53723134435717
 10
180.37179945083335
 20
408.0917557572015
 10
194.67673496203497
 20
411.8049639818259
 10
194.30812559416518
 20
421.7764045843855
 10
188.184252621606
 20
425.016494061891
 10
176.2691693045199
 20
417.53723134435717
  0
LWPOLYLINE
  5
109
330
17
100
AcDbEntity
  8
0
 62
0
100
AcDbPolyline
 90
7
 70
0
 10
153.11544668441638
 20
425.0115146358498
 10
154.84756241738796
 20
423.72685354910794
 10
164.18645754130557
 20
424.51340096360076
 10
163.45585567643866
 20
444.27728581670675
 10
153.3962664688006
 20
444.83435828341175
 10
150.74563025450334
 20
440.13900000611324
 10
153.11544668441638
 20
425.0115146358498
  0
LWPOLYLINE
  5
10A
330
17
100
AcDbEntity
  8
0
 62
0
100
AcDbPolyline
 90
5
 70
0
 10
172.19517361326143
 20
424.4254335980863
 10
183.9310461813584
 20
431.792203248106
 10
183.67510949308053
 20
438.7156775501557
 10
171.42736354842782
 20
445.1958565047011
 10
172.19517361326143
 20
424.4254335980863
  0
LWPOLYLINE
  5
10B
330
17
100
AcDbEntity
  8
0
 62
0
100
AcDbPolyline
 90
6
 70
0
 10
210.28410099586472
 20
31.93895058901984
 10
216.02125903218985
 20
28.05500701684508
 10
222.25343185011297
 20
31.081559835560654
 10
223.1763747399673
 20
43.966010438371484
 10
211.100846091751
 20
43.34086067704487
 10
210.28410099586472
 20
31.93895058901984
  0
LWPOLYLINE
  5
10C
330
17
100
AcDbEntity
  8
0
 62
0
100
AcDbPolyline
 90
6
 70
0
 10
181.57903134822845
 20
53.75294702602554
 10
188.16523659834638
 20
47.11902391733605
 10
201.14860985334963
 20
50.802825983241235
 10
198.22528841160238
 20
60.20440421914685
 10
191.30039890902117
 20
63.720541039109264
 10
181.57903134822845
 20
53.75294702602554
  0
LWPOLYLINE
  5
10D
330
17
100
AcDbEntity
  8
0
 62
0
100
AcDbPolyline
 90
6
 70
0
 10
206.24134180136025
 20
61.36784163825217
 10
209.38344005681574
 20
51.26266396334398
 10
221.8485681535676
 20
51.90798327662054
 10
220.93320329207927
 20
64.12275240207094
 10
214.69110922701657
 20
67.12878994047645
 10
206.24134180136025
 20
61.36784163825217
  0
LWPOLYLINE
  5
10E
330
17
100
AcDbEntity
  8
0
 62
0
100
AcDbPolyline
 90
6
 70
0
 10
229.9124201880768
 20
51.35526900189001
 10
241.90421856334433
 20
51.91371835358444
 10
240.8772799097933
 20
65.61734527871016
 10
234.6351858447306
 20
68.62338281711567
 10
228.9108339389786
 20
64.72058955309916
 10
229.9124201880768
 20
51.35526900189001
  0
LWPOLYLINE
  5
10F
330
17
100
AcDbEntity
  8
0
 62
0
100
AcDbPolyline
 90
8
 70
0
 10
193.78508339636028
 20
85.41731014903638
 10
191.71544894529507
 20
80.42079946454618
 10
193.9376924596727
 20
71.35362920500341
 10
201.24457411887124
 20
67.64353453423831
 10
210.1845517437905
 20
73.73870216738436
 10
209.66680958401412
 20
80.64753296980638
 10
197.71070082252845
 20
86.4052981320769
 10
193.78508339636028
 20
85.41731014903638
  0
LWPOLYLINE
  5
110
330
17
100
AcDbEntity
  8
0
 62
0
100
AcDbPolyline
 90
7
 70
0
 10
217.64444023091346
 20
81.2453701208346
 10
218.16218239068985
 20
74.33653931841258
 10
224.40427645575255
 20
71.33050178000707
 10
230.12862836150452
 20
75.23329504402358
 10
229.61088620172814
 20
82.1421258464456
 10
223.36879213619977
 20
85.1481633848511
 10
217.64444023091346
 20
81.2453701208346
  0
LWPOLYLINE
  5
111
330
17
100
AcDbEntity
  8
0
 62
0
100
AcDbPolyline
 90
6
 70
0
 10
213.1378827476874
 20
87.8552823477425
 10
218.8622346529737
 20
91.75807561175901
 10
218.34449249319732
 20
98.66690641418103
 10
210.8913532285951
 20
102.25615325532857
 10
204.06119670532644
 20
92.22638901192698
 10
213.1378827476874
 20
87.8552823477425
  0
LWPOLYLINE
  5
112
330
17
100
AcDbEntity
  8
0
 62
0
100
AcDbPolyline
 90
7
 70
0
 10
226.32212314009666
 20
99.26474356520924
 10
226.83986529987305
 20
92.35591276278723
 10
233.08195936540142
 20
89.34987522438172
 10
238.80631127068773
 20
93.25266848839823
 10
238.28856911091134
 20
100.16149929035458
 10
232.04647504538298
 20
103.16753682922575
 10
226.32212314009666
 20
99.26474356520924
  0
LWPOLYLINE
  5
113
330
17
100
AcDbEntity
  8
0
 62
0
100
AcDbPolyline
 90
6
 70
0
 10
184.12558257579803
 20
105.77587924301628
 10
192.59024799475446
 20
93.36607300732288
 10
195.68969143927097
 20
94.14613192398105
 10
205.12306141247973
 20
107.99859292255718
 10
186.7210609135218
 20
113.00381173202771
 10
184.12558257579803
 20
105.77587924301628
  0
LWPOLYLINE
  5
114
330
17
100
AcDbEntity
  8
0
 62
0
100
AcDbPolyline
 90
7
 70
0
 10
212.86655391938984
 20
110.18427768079567
 10
221.8155656568706
 20
105.87465579211715
 10
227.53991756262258
 20
109.77744905613366
 10
227.0221754028462
 20
116.68627985809002
 10
217.41339142993093
 20
121.31363167623061
 10
212.64666129276156
 20
110.94043277446184
 10
212.86655391938984
 20
110.18427768079567
  0
LWPOLYLINE
  5
115
330
17
100
AcDbEntity
  8
0
 62
0
100
AcDbPolyline
 90
5
 70
0
 10
206.16954113729298
 20
116.00459920996803
 10
210.513760343194
 20
125.45834393529225
 10
201.77643665857613
 20
130.98343928446997
 10
188.0346294203773
 20
120.9371716897935
 10
206.16954113729298
 20
116.00459920996803
  0
LWPOLYLINE
  5
116
330
17
100
AcDbEntity
  8
0
 62
0
100
AcDbPolyline
 90
6
 70
0
 10
221.1253564627841
 20
128.40537351053212
 10
230.49324856698513
 20
123.89402923602614
 10
236.21760047227144
 20
127.79682250004265
 10
235.69985831249505
 20
134.70565330246467
 10
228.1270599802956
 20
138.35252498006452
 10
221.1253564627841
 20
128.40537351053212
  0
LWPOLYLINE
  5
117
330
17
100
AcDbEntity
  8
0
 62
0
100
AcDbPolyline
 90
7
 70
0
 10
180.0018299841322
 20
131.1570672561415
 10
183.72869320679456
 20
127.6991088414565
 10
197.40129948128015
 20
137.6947854632512
 10
196.79300413280725
 20
143.65768382102254
 10
193.01404466480017
 20
147.08399591231722
 10
183.3937515579164
 20
144.39316111207012
 10
180.0018299841322
 20
131.1570672561415
  0
LWPOLYLINE
  5
118
330
17
100
AcDbEntity
  8
0
 62
0
100
AcDbPolyline
 90
7
 70
0
 10
204.8719184976071
 20
143.2911123061553
 10
205.39532861672342
 20
138.16031302241612
 10
214.2620025430806
 20
132.55342232631523
 10
222.45829791389406
 20
144.1977016558871
 10
220.74181756796315
 20
150.57757741082463
 10
219.61093632876873
 20
150.93453382477168
 10
204.8719184976071
 20
143.2911123061553
  0
LWPOLYLINE
  5
119
330
17
100
AcDbEntity
  8
0
 62
0
100
AcDbPolyline
 90
6
 70
0
 10
198.09715033695102
 20
153.27396782310683
 10
201.24351228866726
 20
150.42122010523457
 10
213.53288848046213
 20
156.79429621631283
 10
208.45532665541396
 20
164.8457889669575
 10
198.2305883290246
 20
160.47290522381667
 10
198.09715033695102
 20
153.27396782310683
  0
LWPOLYLINE
  5
11A
330
17
100
AcDbEntity
  8
0
 62
0
100
AcDbPolyline
 90
8
 70
0
 10
214.2873200615868
 20
170.595478937123
 10
221.83935651788488
 20
158.62021031845364
 10
223.19506440125406
 20
158.19228861676532
 10
230.47837053937837
 20
164.0598663646728
 10
230.94219844881445
 20
169.281560578011
 10
225.27206761669368
 20
175.17947590313855
 10
215.24083042517304
 20
174.78762528775263
 10
214.2873200615868
 20
170.595478937123
  0
LWPOLYLINE
  5
11B
330
17
100
AcDbEntity
  8
0
 62
0
100
AcDbPolyline
 90
7
 70
0
 10
194.02923250058666
 20
187.40186876207594
 10
191.33867349941283
 20
171.70575477005917
 10
195.18842174112797
 20
167.87276504384357
 10
206.57095131697133
 20
172.74080928657207
 10
207.75128129823133
 20
177.93017713269222
 10
201.2864160016179
 20
188.13963409569118
 10
194.02923250058666
 20
187.40186876207594
  0
LWPOLYLINE
  5
11C
330
17
100
AcDbEntity
  8
0
 62
0
100
AcDbPolyline
 90
7
 70
0
 10
208.78816902264953
 20
192.96293574022133
 10
208.19876382127404
 20
192.1771740164608
 10
214.1671390826814
 20
182.75178499808538
 10
224.05871554743499
 20
183.13818004084754
 10
227.0814981907606
 20
191.55082783205438
 10
223.40618108026683
 20
197.37878032084558
 10
208.78816902264953
 20
192.96293574022133
  0
LWPOLYLINE
  5
11D
330
17
100
AcDbEntity
  8
0
 62
0
100
AcDbPolyline
 90
7
 70
0
 10
197.54743450973183
 20
218.13513671662662
 10
185.06068600993603
 20
209.12783680027354
 10
192.10548120783642
 20
195.24753295965496
 10
201.19443425303325
 20
196.17151600038636
 10
202.23803311027586
 20
197.56278305230666
 10
200.23485371330753
 20
217.26747748730708
 10
197.54743450973183
 20
218.13513671662662
  0
LWPOLYLINE
  5
11E
330
17
100
AcDbEntity
  8
0
 62
0
100
AcDbPolyline
 90
7
 70
0
 10
211.0491275493987
 20
219.2887252658606
 10
208.21159243024886
 20
217.90188677199188
 10
209.86426237318665
 20
201.64505212530497
 10
222.3172565647401
 20
205.40688285147775
 10
224.27684572106227
 20
209.50845758114014
 10
222.4959327960387
 20
214.14546697596091
 10
211.0491275493987
 20
219.2887252658606
  0
LWPOLYLINE
  5
11F
330
17
100
AcDbEntity
  8
0
 62
0
100
AcDbPolyline
 90
7
 70
0
 10
219.6933545516804
 20
240.22569166133184
 10
215.74737491132692
 20
225.94816517047587
 10
224.15879202727228
 20
222.1687621074729
 10
232.8296117815189
 20
235.45241963965822
 10
230.11837758962065
 20
240.1722463649698
 10
227.85579126235098
 20
241.35971599919725
 10
219.6933545516804
 20
240.22569166133184
  0
LWPOLYLINE
  5
120
330
17
100
AcDbEntity
  8
0
 62
0
100
AcDbPolyline
 90
7
 70
0
 10
191.61467551859096
 20
242.88843637621034
 10
199.72085003880784
 20
225.8400482317433
 10
203.6434533605352
 20
224.57359788808975
 10
207.60231901519
 20
226.50848399577666
 10
211.88582752784714
 20
242.00727310320366
 10
209.42813523858786
 20
243.53425819715488
 10
191.61467551859096
 20
242.88843637621034
  0
LWPOLYLINE
  5
121
330
17
100
AcDbEntity
  8
0
 62
0
100
AcDbPolyline
 90
6
 70
0
 10
217.42068130895495
 20
247.98678390877325
 10
224.65850469097495
 20
248.99234979096803
 10
224.98836680874228
 20
263.0188752544113
 10
214.80984348151833
 20
269.2189995577559
 10
214.5342865427956
 20
249.78012549281124
 10
217.42068130895495
 20
247.98678390877325
  0
LWPOLYLINE
  5
122
330
17
100
AcDbEntity
  8
0
 62
0
100
AcDbPolyline
 90
7
 70
0
 10
187.83279504347593
 20
256.45698876641694
 10
187.97705991845578
 20
253.18266500029716
 10
189.19243512907997
 20
250.80587464254353
 10
206.556947525125
 20
251.43542000800375
 10
206.80822485871613
 20
269.16151491375643
 10
193.93044872116297
 20
267.97876537833366
 10
187.83279504347593
 20
256.45698876641694
  0
LWPOLYLINE
  5
123
330
17
100
AcDbEntity
  8
0
 62
0
100
AcDbPolyline
 90
7
 70
0
 10
220.16744039393961
 20
285.45235837493095
 10
217.63051171135157
 20
276.8681676961482
 10
229.1501468438655
 20
269.8511213670485
 10
235.22993121901527
 20
273.17320233359936
 10
235.53551184060052
 20
286.1672205548734
 10
221.28122779913247
 20
286.2904221118428
 10
220.16744039393961
 20
285.45235837493095
  0
LWPOLYLINE
  5
124
330
17
100
AcDbEntity
  8
0
 62
0
100
AcDbPolyline
 90
8
 70
0
 10
190.79988886555657
 20
286.7014558325522
 10
190.02530757943168
 20
284.5169192316011
 10
193.87766378186643
 20
276.0075879847631
 10
209.40291245980188
 20
277.43349261824045
 10
209.47004323080182
 20
277.48258832292635
 10
211.9478081013076
 20
285.86658675745133
 10
199.8861586516723
 20
292.3346468597651
 10
190.79988886555657
 20
286.7014558325522
  0
LWPOLYLINE
  5
125
330
17
100
AcDbEntity
  8
0
 62
0
100
AcDbPolyline
 90
6
 70
0
 10
203.66686458978802
 20
299.38491370631385
 10
215.87828497542068
 20
292.83653893284503
 10
215.44363369047642
 20
306.6861265894026
 10
209.33792349742725
 20
309.96031397590417
 10
203.44953894754872
 20
306.30970753412697
 10
203.66686458978802
 20
299.38491370631385
  0
LWPOLYLINE
  5
126
330
17
100
AcDbEntity
  8
0
 62
0
100
AcDbPolyline
 90
6
 70
0
 10
182.9729456831701
 20
305.38076837975535
 10
188.9189931876026
 20
294.9480666905642
 10
195.67080142814666
 20
299.13396767023954
 10
195.45347578590736
 20
306.05876149805266
 10
189.3477655928582
 20
309.3329488850199
 10
182.9729456831701
 20
305.38076837975535
  0
LWPOLYLINE
  5
127
330
17
100
AcDbEntity
  8
0
 62
0
100
AcDbPolyline
 90
7
 70
0
 10
223.837279479485
 20
294.2686286462471
 10
238.35166356805712
 20
294.14317901209
 10
238.71181348944083
 20
294.4033559184522
 10
238.112414422445
 20
305.1737649288029
 10
230.30575871560723
 20
311.1938071265817
 10
223.43969685211778
 20
306.9370726254769
 10
223.837279479485
 20
294.2686286462471
  0
LWPOLYLINE
  5
128
330
17
100
AcDbEntity
  8
0
 62
0
100
AcDbPolyline
 90
7
 70
0
 10
192.9111458887346
 20
323.3080095593818
 10
193.12847153143957
 20
316.38321573156867
 10
199.23418172402307
 20
313.1090283450671
 10
205.1225662739016
 20
316.7596347868443
 10
204.9052406316623
 20
323.68442861512307
 10
198.79953043954447
 20
326.95861600162465
 10
192.9111458887346
 20
323.3080095593818
  0
LWPOLYLINE
  5
129
330
17
100
AcDbEntity
  8
0
 62
0
100
AcDbPolyline
 90
7
 70
0
 10
212.90130379330367
 20
323.9353746507317
 10
213.11862943554297
 20
317.0105808229186
 10
219.22433962859213
 20
313.736393436417
 10
226.5995470881462
 20
318.30878160670403
 10
226.75873242365196
 20
325.985564235691
 10
223.1060648295097
 20
330.26199378641326
 10
212.90130379330367
 20
323.9353746507317
  0
LWPOLYLINE
  5
12A
330
17
100
AcDbEntity
  8
0
 62
0
100
AcDbPolyline
 90
7
 70
0
 10
202.58023637719452
 20
334.00888284770775
 10
208.68594656931236
 20
330.7346954612062
 10
219.89214198989794
 20
337.6821712656878
 10
219.8891108063981
 20
337.9526420474053
 10
207.2199633414857
 20
343.9448909373954
 10
202.36291073495522
 20
340.93367667598653
 10
202.58023637719452
 20
334.00888284770775
  0
LWPOLYLINE
  5
12B
330
17
100
AcDbEntity
  8
0
 62
0
100
AcDbPolyline
 90
7
 70
0
 10
182.32648373907432
 20
341.780614919588
 10
182.59007847309113
 20
333.3815177568235
 10
188.69578866567463
 20
330.1073303703219
 10
194.58417321555316
 20
333.7579368120991
 10
194.36684757331386
 20
340.6827306403779
 10
186.12355957878754
 20
345.10319422706965
 10
182.32648373907432
 20
341.780614919588
  0
LWPOLYLINE
  5
12C
330
17
100
AcDbEntity
  8
0
 62
0
100
AcDbPolyline
 90
7
 70
0
 10
211.24812889378518
 20
359.8718461995945
 10
211.02621753886342
 20
350.9943233733997
 10
222.52672834182158
 20
345.5548158391379
 10
229.14661949221045
 20
354.9658625783399
 10
229.12067935289815
 20
356.21887964997444
 10
224.21414545644075
 20
360.7476245165803
 10
211.24812889378518
 20
359.8718461995945
  0
LWPOLYLINE
  5
12D
330
17
100
AcDbEntity
  8
0
 62
0
100
AcDbPolyline
 90
7
 70
0
 10
189.56102253030986
 20
352.3375251415186
 10
198.14755351096392
 20
347.732997486461
 10
203.01766893127933
 20
350.7523102663458
 10
203.2947942535393
 20
361.83865767633546
 10
198.68991885101423
 20
365.8572313819081
 10
189.53301098151132
 20
357.7159566931427
 10
189.56102253030986
 20
352.3375251415186
  0
LWPOLYLINE
  5
12E
330
17
100
AcDbEntity
  8
0
 62
0
100
AcDbPolyline
 90
7
 70
0
 10
202.35368410870433
 20
377.09462494365874
 10
202.5688478052616
 20
373.0900981292129
 10
208.72298716427758
 20
367.7195157689043
 10
221.4965529879555
 20
368.5822951678187
 10
220.85294695198536
 20
383.40769469840455
 10
210.48407025635242
 20
384.9462411567569
 10
202.35368410870433
 20
377.09462494365874
  0
LWPOLYLINE
  5
12F
330
17
100
AcDbEntity
  8
0
 62
0
100
AcDbPolyline
 90
7
 70
0
 10
184.51115427771583
 20
400.90110590411354
 10
187.9175224970095
 20
388.64301018705595
 10
197.56059063086286
 20
383.5873152982444
 10
204.66918351268396
 20
390.4521728964523
 10
201.61381737422198
 20
402.3515306511894
 10
198.16269896551967
 20
404.4447099958547
 10
184.51115427771583
 20
400.90110590411354
  0
LWPOLYLINE
  5
130
330
17
100
AcDbEntity
  8
0
 62
0
100
AcDbPolyline
 90
6
 70
0
 10
222.56184900458902
 20
391.2417141954415
 10
227.21011662203819
 20
404.3682389693335
 10
218.80361748253927
 20
408.81604667576033
 10
209.6834116410464
 20
403.09116723444316
 10
212.33637915784493
 20
392.7589817718603
 10
222.56184900458902
 20
391.2417141954415
  0
LWPOLYLINE
  5
131
330
17
100
AcDbEntity
  8
0
 62
0
100
AcDbPolyline
 90
7
 70
0
 10
202.30266509810463
 20
422.0719348165207
 10
202.71036921069026
 20
411.0429222640582
 10
205.04649037402123
 20
409.62601331258196
 10
214.55041104229167
 20
415.5917558619753
 10
214.29447435447946
 20
422.515230164025
 10
208.17060138145462
 20
425.75531964153055
 10
202.30266509810463
 20
422.0719348165207
  0
LWPOLYLINE
  5
132
330
17
100
AcDbEntity
  8
0
 62
0
100
AcDbPolyline
 90
6
 70
0
 10
222.54495054623112
 20
415.8872860941105
 10
229.97849295381457
 20
411.95426157871265
 10
234.0139313931577
 20
423.39526589969176
 10
228.1569501417689
 20
426.4941452207044
 10
222.2890138584189
 20
422.8107603961602
 10
222.54495054623112
 20
415.8872860941105
  0
LWPOLYLINE
  5
133
330
17
100
AcDbEntity
  8
0
 62
0
100
AcDbPolyline
 90
6
 70
0
 10
198.04945865785703
 20
428.84764400273565
 10
203.91739494120702
 20
432.5310288277455
 10
203.40552156465128
 20
446.3779774313793
 10
191.66964899701998
 20
439.01120778182525
 10
191.92558568529785
 20
432.0877334802412
 10
198.04945865785703
 20
428.84764400273565
  0
LWPOLYLINE
  5
134
330
17
100
AcDbEntity
  8
0
 62
0
100
AcDbPolyline
 90
6
 70
0
 10
211.91193444514647
 20
432.8265590598807
 10
218.03580741817132
 20
429.5864695823752
 10
223.9037437015213
 20
433.26985440691936
 10
223.6478070137091
 20
440.1933287089691
 10
211.40006106859073
 20
446.6735076635145
 10
211.91193444514647
 20
432.8265590598807
  0
LWPOLYLINE
  5
135
330
17
100
AcDbEntity
  8
0
 62
0
100
AcDbPolyline
 90
6
 70
0
 10
175.4786245925352
 20
452.1031156457961
 10
187.41644255677238
 20
445.78691696850586
 10
198.670960332267
 20
452.8515335527249
 10
191.35766694881022
 20
462.07233263701204
 10
176.248331873212
 20
454.2187850802206
 10
175.4786245925352
 20
452.1031156457961
  0
LWPOLYLINE
  5
136
330
17
100
AcDbEntity
  8
0
 62
0
100
AcDbPolyline
 90
65
 70
0
 10
22.24701804635074
 20
486.83891237283143
 10
22.153483392047047
 20
486.9650292546619
 10
22.048037516565145
 20
487.0813708498985
 10
21.9316959213285
 20
487.1868167253804
 10
21.80557903949803
 20
487.28035137968413
 10
21.670901445588264
 20
487.36107402295744
 10
21.52896015845081
 20
487.4282072520181
 10
21.381122150273807
 20
487.4811045371716
 10
21.228811181892475
 20
487.5192564486452
 10
21.073494091193965
 20
487.5422955626756
 10
20.916666666666668
 20
487.55000000000007
 10
20.75983924213937
 20
487.5422955626756
 10
20.60452215144086
 20
487.5192564486452
 10
20.45221118305953
 20
487.4811045371716
 10
20.304373174882524
 20
487.4282072520181
 10
20.162431887745072
 20
487.36107402295744
 10
20.027754293835304
 20
487.28035137968413
 10
19.901637412004835
 20
487.1868167253804
 10
19.78529581676819
 20
487.0813708498985
 10
19.67984994128629
 20
486.9650292546619
 10
19.586315286982597
 20
486.83891237283143
 10
19.5055926437093
 20
486.70423477892166
 10
19.43845941464861
 20
486.5622934917842
 10
19.385562129495135
 20
486.4144554836072
 10
19.347410218021498
 20
486.2621445152258
 10
19.324371103991155
 20
486.10682742452735
 10
19.316666666666666
 20
485.95000000000005
 10
19.324371103991155
 20
485.79317257547274
 10
19.347410218021498
 20
485.63785548477426
 10
19.385562129495135
 20
485.4855445163929
 10
19.43845941464861
 20
485.3377065082159
 10
19.5055926437093
 20
485.19576522107843
 10
19.586315286982597
 20
485.06108762716866
 10
19.67984994128629
 20
484.9349707453382
 10
19.78529581676819
 20
484.8186291501016
 10
19.901637412004835
 20
484.71318327461967
 10
20.027754293835304
 20
484.61964862031596
 10
20.162431887745072
 20
484.53892597704265
 10
20.304373174882524
 20
484.47179274798197
 10
20.45221118305953
 20
484.4188954628285
 10
20.60452215144086
 20
484.3807435513549
 10
20.75983924213937
 20
484.3577044373245
 10
20.916666666666668
 20
484.35
 10
21.073494091193965
 20
484.3577044373245
 10
21.228811181892475
 20
484.3807435513549
 10
21.381122150273807
 20
484.4188954628285
 10
21.52896015845081
 20
484.47179274798197
 10
21.670901445588264
 20
484.53892597704265
 10
21.80557903949803
 20
484.61964862031596
 10
21.9316959213285
 20
484.71318327461967
 10
22.048037516565145
 20
484.8186291501016
 10
22.153483392047047
 20
484.9349707453382
 10
22.24701804635074
 20
485.06108762716866
 10
22.327740689624036
 20
485.19576522107843
 10
22.394873918684727
 20
485.3377065082159
 10
22.4477712038382
 20
485.4855445163929
 10
22.485923115311838
 20
485.63785548477426
 10
22.50896222934218
 20
485.79317257547274
 10
22.51666666666667
 20
485.95000000000005
 10
22.50896222934218
 20
486.10682742452735
 10
22.485923115311838
 20
486.2621445152258
 10
22.4477712038382
 20
486.4144554836072
 10
22.394873918684727
 20
486.5622934917842
 10
22.327740689624036
 20
486.70423477892166
 10
22.24701804635074
 20
486.83891237283143
  0
LWPOLYLINE
  5
137
330
17
100
AcDbEntity
  8
0
 62
0
100
AcDbPolyline
 90
65
 70
0
 10
105.99440735629071
 20
486.70423477892166
 10
105.91368471301742
 20
486.83891237283143
 10
105.82015005871372
 20
486.9650292546619
 10
105.71470418323182
 20
487.0813708498985
 10
105.59836258799517
 20
487.1868167253804
 10
105.4722457061647
 20
487.28035137968413
 10
105.33756811225494
 20
487.36107402295744
 10
105.19562682511749
 20
487.4282072520181
 10
105.04778881694048
 20
487.4811045371716
 10
104.89547784855915
 20
487.5192564486452
 10
104.74016075786064
 20
487.5422955626756
 10
104.58333333333334
 20
487.55000000000007
 10
104.42650590880605
 20
487.5422955626756
 10
104.27118881810753
 20
487.5192564486452
 10
104.1188778497262
 20
487.4811045371716
 10
103.9710398415492
 20
487.4282072520181
 10
103.82909855441174
 20
487.36107402295744
 10
103.69442096050199
 20
487.28035137968413
 10
103.5683040786715
 20
487.1868167253804
 10
103.45196248343487
 20
487.0813708498985
 10
103.34651660795296
 20
486.9650292546619
 10
103.25298195364927
 20
486.83891237283143
 10
103.17225931037598
 20
486.70423477892166
 10
103.10512608131529
 20
486.5622934917842
 10
103.05222879616181
 20
486.4144554836072
 10
103.01407688468818
 20
486.2621445152258
 10
102.99103777065783
 20
486.10682742452735
 10
102.98333333333335
 20
485.95000000000005
 10
102.99103777065783
 20
485.79317257547274
 10
103.01407688468818
 20
485.63785548477426
 10
103.05222879616181
 20
485.4855445163929
 10
103.10512608131529
 20
485.3377065082159
 10
103.17225931037598
 20
485.19576522107843
 10
103.25298195364927
 20
485.06108762716866
 10
103.34651660795296
 20
484.9349707453382
 10
103.45196248343487
 20
484.8186291501016
 10
103.56830407867152
 20
484.71318327461967
 10
103.69442096050199
 20
484.61964862031596
 10
103.82909855441174
 20
484.53892597704265
 10
103.9710398415492
 20
484.47179274798197
 10
104.1188778497262
 20
484.4188954628285
 10
104.27118881810753
 20
484.3807435513549
 10
104.42650590880605
 20
484.3577044373245
 10
104.58333333333334
 20
484.35
 10
104.74016075786064
 20
484.3577044373245
 10
104.89547784855915
 20
484.3807435513549
 10
105.04778881694048
 20
484.4188954628285
 10
105.19562682511749
 20
484.47179274798197
 10
105.33756811225494
 20
484.53892597704265
 10
105.47224570616471
 20
484.61964862031596
 10
105.59836258799517
 20
484.71318327461967
 10
105.71470418323182
 20
484.8186291501016
 10
105.82015005871372
 20
484.9349707453382
 10
105.91368471301742
 20
485.06108762716866
 10
105.99440735629071
 20
485.19576522107843
 10
106.0615405853514
 20
485.3377065082159
 10
106.11443787050487
 20
485.4855445163929
 10
106.1525897819785
 20
485.63785548477426
 10
106.17562889600886
 20
485.79317257547274
 10
106.18333333333334
 20
485.95000000000005
 10
106.17562889600886
 20
486.10682742452735
 10
106.1525897819785
 20
486.2621445152258
 10
106.11443787050487
 20
486.4144554836072
 10
106.0615405853514
 20
486.5622934917842
 10
105.99440735629071
 20
486.70423477892166
  0
LWPOLYLINE
  5
138
330
17
100
AcDbEntity
  8
0
 62
0
100
AcDbPolyline
 90
65
 70
0
 10
189.72820725201805
 20
486.5622934917842
 10
189.66107402295737
 20
486.70423477892166
 10
189.58035137968406
 20
486.83891237283143
 10
189.48681672538038
 20
486.9650292546619
 10
189.38137084989847
 20
487.0813708498985
 10
189.26502925466184
 20
487.1868167253804
 10
189.13891237283136
 20
487.28035137968413
 10
189.00423477892159
 20
487.36107402295744
 10
188.86229349178416
 20
487.4282072520181
 10
188.71445548360714
 20
487.4811045371716
 10
188.5621445152258
 20
487.5192564486452
 10
188.4068274245273
 20
487.5422955626756
 10
188.25
 20
487.55000000000007
 10
188.0931725754727
 20
487.5422955626756
 10
187.9378554847742
 20
487.5192564486452
 10
187.78554451639286
 20
487.4811045371716
 10
187.63770650821584
 20
487.4282072520181
 10
187.49576522107841
 20
487.36107402295744
 10
187.36108762716864
 20
487.28035137968413
 10
187.23497074533816
 20
487.1868167253804
 10
187.11862915010153
 20
487.0813708498985
 10
187.01318327461962
 20
486.9650292546619
 10
186.91964862031594
 20
486.83891237283143
 10
186.83892597704263
 20
486.70423477892166
 10
186.77179274798195
 20
486.5622934917842
 10
186.71889546282847
 20
486.4144554836072
 10
186.68074355135482
 20
486.2621445152258
 10
186.6577044373245
 20
486.10682742452735
 10
186.65
 20
485.95000000000005
 10
186.6577044373245
 20
485.79317257547274
 10
186.68074355135482
 20
485.63785548477426
 10
186.71889546282847
 20
485.4855445163929
 10
186.77179274798195
 20
485.3377065082159
 10
186.83892597704263
 20
485.19576522107843
 10
186.91964862031594
 20
485.06108762716866
 10
187.01318327461962
 20
484.9349707453382
 10
187.11862915010153
 20
484.8186291501016
 10
187.23497074533816
 20
484.71318327461967
 10
187.36108762716864
 20
484.61964862031596
 10
187.49576522107841
 20
484.53892597704265
 10
187.63770650821584
 20
484.47179274798197
 10
187.78554451639286
 20
484.4188954628285
 10
187.9378554847742
 20
484.3807435513549
 10
188.0931725754727
 20
484.3577044373245
 10
188.25
 20
484.35
 10
188.4068274245273
 20
484.3577044373245
 10
188.5621445152258
 20
484.3807435513549
 10
188.71445548360714
 20
484.4188954628285
 10
188.86229349178416
 20
484.47179274798197
 10
189.00423477892159
 20
484.53892597704265
 10
189.13891237283136
 20
484.61964862031596
 10
189.26502925466184
 20
484.71318327461967
 10
189.38137084989847
 20
484.8186291501016
 10
189.48681672538038
 20
484.9349707453382
 10
189.58035137968406
 20
485.06108762716866
 10
189.66107402295737
 20
485.19576522107843
 10
189.72820725201805
 20
485.3377065082159
 10
189.78110453717153
 20
485.4855445163929
 10
189.81925644864518
 20
485.63785548477426
 10
189.8422955626755
 20
485.79317257547274
 10
189.85
 20
485.95000000000005
 10
189.8422955626755
 20
486.10682742452735
 10
189.81925644864518
 20
486.2621445152258
 10
189.78110453717153
 20
486.4144554836072
 10
189.72820725201805
 20
486.5622934917842
  0
LWPOLYLINE
  5
139
330
17
100
AcDbEntity
  8
0
 62
0
100
AcDbPolyline
 90
65
 70
0
 10
64.28110453717153
 20
19.514455483607136
 10
64.22820725201805
 20
19.66229349178414
 10
64.16107402295737
 20
19.804234778921593
 10
64.08035137968407
 20
19.93891237283136
 10
63.98681672538038
 20
20.06502925466183
 10
63.881370849898474
 20
20.181370849898475
 10
63.76502925466183
 20
20.286816725380376
 10
63.63891237283136
 20
20.380351379684072
 10
63.5042347789216
 20
20.461074022957366
 10
63.36229349178414
 20
20.528207252018056
 10
63.21445548360714
 20
20.58110453717153
 10
63.0621445152258
 20
20.619256448645167
 10
62.90682742452729
 20
20.642295562675514
 10
62.75
 20
20.65
 10
62.5931725754727
 20
20.642295562675514
 10
62.4378554847742
 20
20.619256448645167
 10
62.28554451639286
 20
20.58110453717153
 10
62.13770650821586
 20
20.528207252018056
 10
61.9957652210784
 20
20.461074022957366
 10
61.86108762716864
 20
20.38035137968407
 10
61.73497074533817
 20
20.286816725380376
 10
61.618629150101526
 20
20.181370849898475
 10
61.51318327461962
 20
20.06502925466183
 10
61.419648620315925
 20
19.93891237283136
 10
61.338925977042635
 20
19.804234778921593
 10
61.27179274798194
 20
19.66229349178414
 10
61.21889546282846
 20
19.514455483607136
 10
61.18074355135483
 20
19.362144515225804
 10
61.15770443732448
 20
19.206827424527294
 10
61.15
 20
19.049999999999997
 10
61.15770443732448
 20
18.8931725754727
 10
61.18074355135483
 20
18.73785548477419
 10
61.21889546282846
 20
18.585544516392858
 10
61.27179274798194
 20
18.437706508215854
 10
61.338925977042635
 20
18.2957652210784
 10
61.419648620315925
 20
18.161087627168634
 10
61.51318327461962
 20
18.034970745338164
 10
61.618629150101526
 20
17.91862915010152
 10
61.73497074533817
 20
17.813183274619618
 10
61.86108762716864
 20
17.719648620315926
 10
61.9957652210784
 20
17.63892597704263
 10
62.13770650821586
 20
17.571792747981938
 10
62.28554451639286
 20
17.518895462828464
 10
62.4378554847742
 20
17.480743551354827
 10
62.5931725754727
 20
17.45770443732448
 10
62.75
 20
17.449999999999996
 10
62.9068274245273
 20
17.45770443732448
 10
63.0621445152258
 20
17.480743551354827
 10
63.21445548360714
 20
17.518895462828464
 10
63.36229349178414
 20
17.571792747981938
 10
63.5042347789216
 20
17.63892597704263
 10
63.63891237283136
 20
17.719648620315926
 10
63.76502925466183
 20
17.813183274619618
 10
63.881370849898474
 20
17.91862915010152
 10
63.98681672538038
 20
18.034970745338164
 10
64.08035137968407
 20
18.161087627168634
 10
64.16107402295737
 20
18.2957652210784
 10
64.22820725201805
 20
18.437706508215854
 10
64.28110453717153
 20
18.585544516392858
 10
64.31925644864516
 20
18.73785548477419
 10
64.34229556267552
 20
18.8931725754727
 10
64.35
 20
19.049999999999997
 10
64.34229556267552
 20
19.206827424527294
 10
64.31925644864516
 20
19.362144515225804
 10
64.28110453717153
 20
19.514455483607136
  0
LWPOLYLINE
  5
13A
330
17
100
AcDbEntity
  8
0
 62
0
100
AcDbPolyline
 90
65
 70
0
 10
147.98592311531186
 20
19.362144515225804
 10
147.94777120383822
 20
19.514455483607136
 10
147.89487391868474
 20
19.66229349178414
 10
147.82774068962405
 20
19.804234778921593
 10
147.74701804635075
 20
19.93891237283136
 10
147.65348339204706
 20
20.06502925466183
 10
147.54803751656516
 20
20.181370849898475
 10
147.43169592132853
 20
20.286816725380376
 10
147.30557903949804
 20
20.380351379684072
 10
147.17090144558827
 20
20.461074022957366
 10
147.02896015845084
 20
20.528207252018056
 10
146.88112215027382
 20
20.58110453717153
 10
146.7288111818925
 20
20.619256448645167
 10
146.573494091194
 20
20.642295562675514
 10
146.41666666666669
 20
20.65
 10
146.25983924213938
 20
20.642295562675514
 10
146.10452215144088
 20
20.619256448645167
 10
145.95221118305955
 20
20.58110453717153
 10
145.80437317488253
 20
20.528207252018056
 10
145.6624318877451
 20
20.461074022957366
 10
145.52775429383533
 20
20.38035137968407
 10
145.40163741200485
 20
20.286816725380376
 10
145.2852958167682
 20
20.181370849898475
 10
145.1798499412863
 20
20.06502925466183
 10
145.08631528698263
 20
19.93891237283136
 10
145.00559264370932
 20
19.804234778921593
 10
144.93845941464863
 20
19.66229349178414
 10
144.88556212949516
 20
19.514455483607136
 10
144.8474102180215
 20
19.362144515225804
 10
144.82437110399118
 20
19.206827424527294
 10
144.8166666666667
 20
19.049999999999997
 10
144.82437110399118
 20
18.8931725754727
 10
144.8474102180215
 20
18.73785548477419
 10
144.88556212949516
 20
18.585544516392858
 10
144.93845941464863
 20
18.437706508215854
 10
145.00559264370932
 20
18.2957652210784
 10
145.08631528698263
 20
18.161087627168634
 10
145.1798499412863
 20
18.034970745338164
 10
145.2852958167682
 20
17.91862915010152
 10
145.40163741200485
 20
17.813183274619618
 10
145.52775429383533
 20
17.719648620315926
 10
145.6624318877451
 20
17.63892597704263
 10
145.80437317488253
 20
17.571792747981938
 10
145.95221118305955
 20
17.518895462828464
 10
146.10452215144088
 20
17.480743551354827
 10
146.25983924213938
 20
17.45770443732448
 10
146.41666666666669
 20
17.449999999999996
 10
146.573494091194
 20
17.45770443732448
 10
146.7288111818925
 20
17.480743551354827
 10
146.88112215027382
 20
17.518895462828464
 10
147.02896015845084
 20
17.571792747981938
 10
147.17090144558827
 20
17.63892597704263
 10
147.30557903949804
 20
17.719648620315926
 10
147.43169592132853
 20
17.813183274619618
 10
147.54803751656516
 20
17.91862915010152
 10
147.65348339204706
 20
18.034970745338164
 10
147.74701804635075
 20
18.161087627168634
 10
147.82774068962405
 20
18.2957652210784
 10
147.89487391868474
 20
18.437706508215854
 10
147.94777120383822
 20
18.585544516392858
 10
147.98592311531186
 20
18.73785548477419
 10
148.0089622293422
 20
18.8931725754727
 10
148.01666666666668
 20
19.049999999999997
 10
148.0089622293422
 20
19.206827424527294
 10
147.98592311531186
 20
19.362144515225804
  0
LWPOLYLINE
  5
13B
330
17
100
AcDbEntity
  8
0
 62
0
100
AcDbPolyline
 90
65
 70
0
 10
231.67562889600885
 20
19.206827424527294
 10
231.65258978197852
 20
19.362144515225804
 10
231.61443787050487
 20
19.514455483607136
 10
231.5615405853514
 20
19.66229349178414
 10
231.4944073562907
 20
19.804234778921593
 10
231.4136847130174
 20
19.93891237283136
 10
231.32015005871372
 20
20.06502925466183
 10
231.21470418323182
 20
20.181370849898475
 10
231.09836258799518
 20
20.286816725380376
 10
230.9722457061647
 20
20.380351379684072
 10
230.83756811225493
 20
20.461074022957366
 10
230.6956268251175
 20
20.528207252018056
 10
230.54778881694048
 20
20.58110453717153
 10
230.39547784855915
 20
20.619256448645167
 10
230.24016075786065
 20
20.642295562675514
 10
230.08333333333334
 20
20.65
 10
229.92650590880604
 20
20.642295562675514
 10
229.77118881810753
 20
20.619256448645167
 10
229.6188778497262
 20
20.58110453717153
 10
229.47103984154919
 20
20.528207252018056
 10
229.32909855441176
 20
20.461074022957366
 10
229.194420960502
 20
20.38035137968407
 10
229.0683040786715
 20
20.286816725380376
 10
228.95196248343487
 20
20.181370849898475
 10
228.84651660795296
 20
20.06502925466183
 10
228.75298195364928
 20
19.93891237283136
 10
228.67225931037598
 20
19.804234778921593
 10
228.6051260813153
 20
19.66229349178414
 10
228.5522287961618
 20
19.514455483607136
 10
228.51407688468817
 20
19.362144515225804
 10
228.49103777065784
 20
19.206827424527294
 10
228.48333333333335
 20
19.049999999999997
 10
228.49103777065784
 20
18.8931725754727
 10
228.51407688468817
 20
18.73785548477419
 10
228.5522287961618
 20
18.585544516392858
 10
228.6051260813153
 20
18.437706508215854
 10
228.67225931037598
 20
18.2957652210784
 10
228.75298195364928
 20
18.161087627168634
 10
228.84651660795296
 20
18.034970745338164
 10
228.95196248343487
 20
17.91862915010152
 10
229.0683040786715
 20
17.813183274619618
 10
229.194420960502
 20
17.719648620315926
 10
229.32909855441176
 20
17.63892597704263
 10
229.47103984154919
 20
17.571792747981938
 10
229.6188778497262
 20
17.518895462828464
 10
229.77118881810753
 20
17.480743551354827
 10
229.92650590880604
 20
17.45770443732448
 10
230.08333333333334
 20
17.449999999999996
 10
230.24016075786065
 20
17.45770443732448
 10
230.39547784855915
 20
17.480743551354827
 10
230.54778881694048
 20
17.518895462828464
 10
230.6956268251175
 20
17.571792747981938
 10
230.83756811225493
 20
17.63892597704263
 10
230.9722457061647
 20
17.719648620315926
 10
231.09836258799518
 20
17.813183274619618
 10
231.21470418323182
 20
17.91862915010152
 10
231.32015005871372
 20
18.034970745338164
 10
231.4136847130174
 20
18.161087627168634
 10
231.4944073562907
 20
18.2957652210784
 10
231.5615405853514
 20
18.437706508215854
 10
231.61443787050487
 20
18.585544516392858
 10
231.65258978197852
 20
18.73785548477419
 10
231.67562889600885
 20
18.8931725754727
 10
231.68333333333334
 20
19.049999999999997
 10
231.67562889600885
 20
19.206827424527294
  0
ENDSEC
  0
SECTION
  2
OBJECTS
  0
DICTIONARY
  5
A
330
0
100
AcDbDictionary
280
0
281
1
  3
ACAD_COLOR
350
B
  3
ACAD_GROUP
350
C
  3
ACAD_LAYOUT
350
D
  3
ACAD_MATERIAL
350
E
  3
ACAD_MLEADERSTYLE
350
F
  3
ACAD_MLINESTYLE
350
10
  3
ACAD_PLOTSETTINGS
350
11
  3
ACAD_PLOTSTYLENAME
350
12
  3
ACAD_SCALELIST
350
14
  3
ACAD_TABLESTYLE
350
15
  3
ACAD_VISUALSTYLE
350
16
  3
EZDXF_META
350
2D
  0
DICTIONARY
  5
B
330
A
100
AcDbDictionary
280
0
281
1
  0
DICTIONARY
  5
C
330
A
100
AcDbDictionary
280
0
281
1
  0
DICTIONARY
  5
D
330
A
100
AcDbDictionary
280
0
281
1
  3
Model
350
1A
  3
Layout1
350
1E
  0
DICTIONARY
  5
E
330
A
100
AcDbDictionary
280
0
281
1
  3
ByBlock
350
1F
  3
ByLayer
350
20
  3
Global
350
21
  0
DICTIONARY
  5
F
330
A
100
AcDbDictionary
280
0
281
1
  3
Standard
350
2C
  0
DICTIONARY
  5
10
330
A
100
AcDbDictionary
280
0
281
1
  3
Standard
350
22
  0
DICTIONARY
  5
11
330
A
100
AcDbDictionary
280
0
281
1
  0
ACDBDICTIONARYWDFLT
  5
12
330
A
100
AcDbDictionary
280
0
281
1
  3
Normal
350
13
100
AcDbDictionaryWithDefault
340
13
  0
ACDBPLACEHOLDER
  5
13
330
12
  0
DICTIONARY
  5
14
330
A
100
AcDbDictionary
280
0
281
1
  0
DICTIONARY
  5
15
330
A
100
AcDbDictionary
280
0
281
1
  0
DICTIONARY
  5
16
330
A
100
AcDbDictionary
280
0
281
1
  0
LAYOUT
  5
1A
330
D
100
AcDbPlotSettings
  1

  2
Adobe PDF
  4
A3
  6

 40
7.5
 41
20.0
 42
7.5
 43
20.0
 44
420.0
 45
297.0
 46
0.0
 47
0.0
 48
0.0
 49
0.0
140
0.0
141
0.0
142
1.0
143
1.0
 70
1024
 72
1
 73
0
 74
5
  7

 75
16
 76
0
 77
2
 78
300
147
1.0
148
0.0
149
0.0
100
AcDbLayout
  1
Model
 70
1
 71
0
 10
0.0
 20
0.0
 11
420.0
 21
297.0
 12
0.0
 22
0.0
 32
0.0
 14
1e+20
 24
1e+20
 34
1e+20
 15
-1e+20
 25
-1e+20
 35
-1e+20
146
0.0
 13
0.0
 23
0.0
 33
0.0
 16
1.0
 26
0.0
 36
0.0
 17
0.0
 27
1.0
 37
0.0
 76
1
330
17
  0
LAYOUT
  5
1E
330
D
100
AcDbPlotSettings
  1

  2
Adobe PDF
  4
A3
  6

 40
7.5
 41
20.0
 42
7.5
 43
20.0
 44
420.0
 45
297.0
 46
0.0
 47
0.0
 48
0.0
 49
0.0
140
0.0
141
0.0
142
1.0
143
1.0
 70
0
 72
1
 73
0
 74
5
  7

 75
16
 76
0
 77
2
 78
300
147
1.0
148
0.0
149
0.0
100
AcDbLayout
  1
Layout1
 70
1
 71
1
 10
0.0
 20
0.0
 11
420.0
 21
297.0
 12
0.0
 22
0.0
 32
0.0
 14
1e+20
 24
1e+20
 34
1e+20
 15
-1e+20
 25
-1e+20
 35
-1e+20
146
0.0
 13
0.0
 23
0.0
 33
0.0
 16
1.0
 26
0.0
 36
0.0
 17
0.0
 27
1.0
 37
0.0
 76
1
330
1B
  0
MATERIAL
  5
1F
102
{ACAD_REACTORS
330
E
102
}
330
E
100
AcDbMaterial
  1
ByBlock
  2

 70
0
 40
1.0
 71
1
 41
1.0
 91
-1023410177
 42
1.0
 72
1
  3

 73
1
 74
1
 75
1
 44
0.5
 73
0
 45
1.0
 46
1.0
 77
1
  4

 78
1
 79
1
170
1
 48
1.0
171
1
  6

172
1
173
1
174
1
140
1.0
141
1.0
175
1
  7

176
1
177
1
178
1
143
1.0
179
1
  8

270
1
271
1
272
1
145
1.0
146
1.0
273
1
  9

274
1
275
1
276
1
 42
1.0
 72
1
  3

 73
1
 74
1
 75
1
 94
63
  0
MATERIAL
  5
20
102
{ACAD_REACTORS
330
E
102
}
330
E
100
AcDbMaterial
  1
ByLayer
  2

 70
0
 40
1.0
 71
1
 41
1.0
 91
-1023410177
 42
1.0
 72
1
  3

 73
1
 74
1
 75
1
 44
0.5
 73
0
 45
1.0
 46
1.0
 77
1
  4

 78
1
 79
1
170
1
 48
1.0
171
1
  6

172
1
173
1
174
1
140
1.0
141
1.0
175
1
  7

176
1
177
1
178
1
143
1.0
179
1
  8

270
1
271
1
272
1
145
1.0
146
1.0
273
1
  9

274
1
275
1
276
1
 42
1.0
 72
1
  3

 73
1
 74
1
 75
1
 94
63
  0
MATERIAL
  5
21
102
{ACAD_REACTORS
330
E
102
}
330
E
100
AcDbMaterial
  1
Global
  2

 70
0
 40
1.0
 71
1
 41
1.0
 91
-1023410177
 42
1.0
 72
1
  3

 73
1
 74
1
 75
1
 44
0.5
 73
0
 45
1.0
 46
1.0
 77
1
  4

 78
1
 79
1
170
1
 48
1.0
171
1
  6

172
1
173
1
174
1
140
1.0
141
1.0
175
1
  7

176
1
177
1
178
1
143
1.0
179
1
  8

270
1
271
1
272
1
145
1.0
146
1.0
273
1
  9

274
1
275
1
276
1
 42
1.0
 72
1
  3

 73
1
 74
1
 75
1
 94
63
  0
MLINESTYLE
  5
22
102
{ACAD_REACTORS
330
10
102
}
330
10
100
AcDbMlineStyle
  2
Standard
 70
0
  3

 62
256
 51
90.0
 52
90.0
 71
2
 49
0.5
 62
256
  6
BYLAYER
 49
-0.5
 62
256
  6
BYLAYER
  0
MLEADERSTYLE
  5
2C
102
{ACAD_REACTORS
330
F
102
}
330
F
100
AcDbMLeaderStyle
179
2
170
2
171
1
172
0
 90
2
 40
0.0
 41
0.0
173
1
 91
-1056964608
 92
-2
290
1
 42
2.0
291
1
 43
8.0
  3
Standard
 44
4.0
300

342
29
174
1
175
1
176
0
178
1
 93
-1056964608
 45
4.0
292
0
297
0
 46
4.0
 94
-1056964608
 47
1.0
 49
1.0
140
1.0
294
1
141
0.0
177
0
142
1.0
295
0
296
0
143
3.75
271
0
272
9
273
9
  0
DICTIONARY
  5
2D
330
A
100
AcDbDictionary
281
1
  3
CREATED_BY_EZDXF
350
2E
  3
WRITTEN_BY_EZDXF
350
13E
  0
DICTIONARYVAR
  5
2E
330
2D
100
DictionaryVariables
280
0
  1
1.1.1 @ 2024-06-06T20:48:10.340963+00:00
  0
DICTIONARYVAR
  5
13E
330
2D
100
DictionaryVariables
280
0
  1
1.1.1 @ 2024-06-06T20:48:10.384482+00:00
  0
ENDSEC
  0
EOF
