  0
SECTION
  2
HEADER
  9
$ACADVER
  1
AC1032
  9
$ACADMAINTVER
 90
4
  9
$DWGCODEPAGE
  3
ANSI_1252
  9
$LASTSAVEDBY
  1
ezdxf
  9
$REQUIREDVERSIONS
160
0
  9
$INSBASE
 10
0.0
 20
0.0
 30
0.0
  9
$EXTMIN
 10
1e+20
 20
1e+20
 30
1e+20
  9
$EXTMAX
 10
-1e+20
 20
-1e+20
 30
-1e+20
  9
$LIMMIN
 10
0.0
 20
0.0
  9
$LIMMAX
 10
420.0
 20
297.0
  9
$ORTHOMODE
 70
0
  9
$REGENMODE
 70
1
  9
$FILLMODE
 70
1
  9
$QTEXTMODE
 70
0
  9
$MIRRTEXT
 70
1
  9
$LTSCALE
 40
1.0
  9
$ATTMODE
 70
1
  9
$TEXTSIZE
 40
2.5
  9
$TRACEWID
 40
1.0
  9
$TEXTSTYLE
  7
Standard
  9
$CLAYER
  8
0
  9
$CELTYPE
  6
ByLayer
  9
$CECOLOR
 62
256
  9
$CELTSCALE
 40
1.0
  9
$DISPSILH
 70
0
  9
$DIMSCALE
 40
1.0
  9
$DIMASZ
 40
2.5
  9
$DIMEXO
 40
0.625
  9
$DIMDLI
 40
3.75
  9
$DIMRND
 40
0.0
  9
$DIMDLE
 40
0.0
  9
$DIMEXE
 40
1.25
  9
$DIMTP
 40
0.0
  9
$DIMTM
 40
0.0
  9
$DIMTXT
 40
2.5
  9
$DIMCEN
 40
2.5
  9
$DIMTSZ
 40
0.0
  9
$DIMTOL
 70
0
  9
$DIMLIM
 70
0
  9
$DIMTIH
 70
0
  9
$DIMTOH
 70
0
  9
$DIMSE1
 70
0
  9
$DIMSE2
 70
0
  9
$DIMTAD
 70
1
  9
$DIMZIN
 70
8
  9
$DIMBLK
  1

  9
$DIMASO
 70
1
  9
$DIMSHO
 70
1
  9
$DIMPOST
  1

  9
$DIMAPOST
  1

  9
$DIMALT
 70
0
  9
$DIMALTD
 70
3
  9
$DIMALTF
 40
0.03937007874
  9
$DIMLFAC
 40
1.0
  9
$DIMTOFL
 70
1
  9
$DIMTVP
 40
0.0
  9
$DIMTIX
 70
0
  9
$DIMSOXD
 70
0
  9
$DIMSAH
 70
0
  9
$DIMBLK1
  1

  9
$DIMBLK2
  1

  9
$DIMSTYLE
  2
ISO-25
  9
$DIMCLRD
 70
0
  9
$DIMCLRE
 70
0
  9
$DIMCLRT
 70
0
  9
$DIMTFAC
 40
1.0
  9
$DIMGAP
 40
0.625
  9
$DIMJUST
 70
0
  9
$DIMSD1
 70
0
  9
$DIMSD2
 70
0
  9
$DIMTOLJ
 70
0
  9
$DIMTZIN
 70
8
  9
$DIMALTZ
 70
0
  9
$DIMALTTZ
 70
0
  9
$DIMUPT
 70
0
  9
$DIMDEC
 70
2
  9
$DIMTDEC
 70
2
  9
$DIMALTU
 70
2
  9
$DIMALTTD
 70
3
  9
$DIMTXSTY
  7
Standard
  9
$DIMAUNIT
 70
0
  9
$DIMADEC
 70
0
  9
$DIMALTRND
 40
0.0
  9
$DIMAZIN
 70
0
  9
$DIMDSEP
 70
44
  9
$DIMATFIT
 70
3
  9
$DIMFRAC
 70
0
  9
$DIMLDRBLK
  1

  9
$DIMLUNIT
 70
2
  9
$DIMLWD
 70
-2
  9
$DIMLWE
 70
-2
  9
$DIMTMOVE
 70
0
  9
$DIMFXL
 40
1.0
  9
$DIMFXLON
 70
0
  9
$DIMJOGANG
 40
0.785398163397
  9
$DIMTFILL
 70
0
  9
$DIMTFILLCLR
 70
0
  9
$DIMARCSYM
 70
0
  9
$DIMLTYPE
  6

  9
$DIMLTEX1
  6

  9
$DIMLTEX2
  6

  9
$DIMTXTDIRECTION
 70
0
  9
$LUNITS
 70
2
  9
$LUPREC
 70
4
  9
$SKETCHINC
 40
1.0
  9
$FILLETRAD
 40
10.0
  9
$AUNITS
 70
0
  9
$AUPREC
 70
2
  9
$MENU
  1
.
  9
$ELEVATION
 40
0.0
  9
$PELEVATION
 40
0.0
  9
$THICKNESS
 40
0.0
  9
$LIMCHECK
 70
0
  9
$CHAMFERA
 40
0.0
  9
$CHAMFERB
 40
0.0
  9
$CHAMFERC
 40
0.0
  9
$CHAMFERD
 40
0.0
  9
$SKPOLY
 70
0
  9
$TDCREATE
 40
2460468.6584490743
  9
$TDUCREATE
 40
2458532.153996898
  9
$TDUPDATE
 40
2460468.6584490743
  9
$TDUUPDATE
 40
2458532.1544311
  9
$TDINDWG
 40
0.0
  9
$TDUSRTIMER
 40
0.0
  9
$USRTIMER
 70
1
  9
$ANGBASE
 50
0.0
  9
$ANGDIR
 70
0
  9
$PDMODE
 70
0
  9
$PDSIZE
 40
0.0
  9
$PLINEWID
 40
0.0
  9
$SPLFRAME
 70
0
  9
$SPLINETYPE
 70
6
  9
$SPLINESEGS
 70
8
  9
$HANDSEED
  5
137
  9
$SURFTAB1
 70
6
  9
$SURFTAB2
 70
6
  9
$SURFTYPE
 70
6
  9
$SURFU
 70
6
  9
$SURFV
 70
6
  9
$UCSBASE
  2

  9
$UCSNAME
  2

  9
$UCSORG
 10
0.0
 20
0.0
 30
0.0
  9
$UCSXDIR
 10
1.0
 20
0.0
 30
0.0
  9
$UCSYDIR
 10
0.0
 20
1.0
 30
0.0
  9
$UCSORTHOREF
  2

  9
$UCSORTHOVIEW
 70
0
  9
$UCSORGTOP
 10
0.0
 20
0.0
 30
0.0
  9
$UCSORGBOTTOM
 10
0.0
 20
0.0
 30
0.0
  9
$UCSORGLEFT
 10
0.0
 20
0.0
 30
0.0
  9
$UCSORGRIGHT
 10
0.0
 20
0.0
 30
0.0
  9
$UCSORGFRONT
 10
0.0
 20
0.0
 30
0.0
  9
$UCSORGBACK
 10
0.0
 20
0.0
 30
0.0
  9
$PUCSBASE
  2

  9
$PUCSNAME
  2

  9
$PUCSORG
 10
0.0
 20
0.0
 30
0.0
  9
$PUCSXDIR
 10
1.0
 20
0.0
 30
0.0
  9
$PUCSYDIR
 10
0.0
 20
1.0
 30
0.0
  9
$PUCSORTHOREF
  2

  9
$PUCSORTHOVIEW
 70
0
  9
$PUCSORGTOP
 10
0.0
 20
0.0
 30
0.0
  9
$PUCSORGBOTTOM
 10
0.0
 20
0.0
 30
0.0
  9
$PUCSORGLEFT
 10
0.0
 20
0.0
 30
0.0
  9
$PUCSORGRIGHT
 10
0.0
 20
0.0
 30
0.0
  9
$PUCSORGFRONT
 10
0.0
 20
0.0
 30
0.0
  9
$PUCSORGBACK
 10
0.0
 20
0.0
 30
0.0
  9
$USERI1
 70
0
  9
$USERI2
 70
0
  9
$USERI3
 70
0
  9
$USERI4
 70
0
  9
$USERI5
 70
0
  9
$USERR1
 40
0.0
  9
$USERR2
 40
0.0
  9
$USERR3
 40
0.0
  9
$USERR4
 40
0.0
  9
$USERR5
 40
0.0
  9
$WORLDVIEW
 70
1
  9
$SHADEDGE
 70
3
  9
$SHADEDIF
 70
70
  9
$TILEMODE
 70
1
  9
$MAXACTVP
 70
64
  9
$PINSBASE
 10
0.0
 20
0.0
 30
0.0
  9
$PLIMCHECK
 70
0
  9
$PEXTMIN
 10
1e+20
 20
1e+20
 30
1e+20
  9
$PEXTMAX
 10
-1e+20
 20
-1e+20
 30
-1e+20
  9
$PLIMMIN
 10
0.0
 20
0.0
  9
$PLIMMAX
 10
420.0
 20
297.0
  9
$UNITMODE
 70
0
  9
$VISRETAIN
 70
1
  9
$PLINEGEN
 70
0
  9
$PSLTSCALE
 70
1
  9
$TREEDEPTH
 70
3020
  9
$CMLSTYLE
  2
Standard
  9
$CMLJUST
 70
0
  9
$CMLSCALE
 40
20.0
  9
$PROXYGRAPHICS
 70
1
  9
$MEASUREMENT
 70
1
  9
$CELWEIGHT
370
-1
  9
$ENDCAPS
280
0
  9
$JOINSTYLE
280
0
  9
$LWDISPLAY
290
0
  9
$INSUNITS
 70
4
  9
$HYPERLINKBASE
  1

  9
$STYLESHEET
  1

  9
$XEDIT
290
1
  9
$CEPSNTYPE
380
0
  9
$PSTYLEMODE
290
1
  9
$FINGERPRINTGUID
  2
{129E8BB6-DF9D-4482-A4F9-E1F2476B985D}
  9
$VERSIONGUID
  2
{BC3F971C-AB43-4C77-A49C-4F63DB3D1571}
  9
$EXTNAMES
290
1
  9
$PSVPSCALE
 40
0.0
  9
$OLESTARTUP
290
0
  9
$SORTENTS
280
127
  9
$INDEXCTL
280
0
  9
$HIDETEXT
280
1
  9
$XCLIPFRAME
280
0
  9
$HALOGAP
280
0
  9
$OBSCOLOR
 70
257
  9
$OBSLTYPE
280
0
  9
$INTERSECTIONDISPLAY
280
0
  9
$INTERSECTIONCOLOR
 70
257
  9
$DIMASSOC
280
2
  9
$PROJECTNAME
  1

  9
$CAMERADISPLAY
290
0
  9
$LENSLENGTH
 40
50.0
  9
$CAMERAHEIGHT
 40
0.0
  9
$STEPSPERSEC
 40
24.0
  9
$STEPSIZE
 40
100.0
  9
$3DDWFPREC
 40
2.0
  9
$PSOLWIDTH
 40
0.005
  9
$PSOLHEIGHT
 40
0.08
  9
$LOFTANG1
 40
1.570796326795
  9
$LOFTANG2
 40
1.570796326795
  9
$LOFTMAG1
 40
0.0
  9
$LOFTMAG2
 40
0.0
  9
$LOFTPARAM
 70
7
  9
$LOFTNORMALS
280
1
  9
$LATITUDE
 40
37.795
  9
$LONGITUDE
 40
-122.394
  9
$NORTHDIRECTION
 40
0.0
  9
$TIMEZONE
 70
-8000
  9
$LIGHTGLYPHDISPLAY
280
1
  9
$TILEMODELIGHTSYNCH
280
1
  9
$CMATERIAL
347
20
  9
$SOLIDHIST
280
0
  9
$SHOWHIST
280
1
  9
$DWFFRAME
280
2
  9
$DGNFRAME
280
2
  9
$REALWORLDSCALE
290
1
  9
$INTERFERECOLOR
 62
256
  9
$CSHADOW
280
0
  9
$SHADOWPLANELOCATION
 40
0.0
  0
ENDSEC
  0
SECTION
  2
CLASSES
  0
CLASS
  1
ACDBDICTIONARYWDFLT
  2
AcDbDictionaryWithDefault
  3
ObjectDBX Classes
 90
0
 91
0
280
0
281
0
  0
CLASS
  1
SUN
  2
AcDbSun
  3
SCENEOE
 90
1153
 91
0
280
0
281
0
  0
CLASS
  1
VISUALSTYLE
  2
AcDbVisualStyle
  3
ObjectDBX Classes
 90
4095
 91
0
280
0
281
0
  0
CLASS
  1
MATERIAL
  2
AcDbMaterial
  3
ObjectDBX Classes
 90
1153
 91
0
280
0
281
0
  0
CLASS
  1
SCALE
  2
AcDbScale
  3
ObjectDBX Classes
 90
1153
 91
0
280
0
281
0
  0
CLASS
  1
TABLESTYLE
  2
AcDbTableStyle
  3
ObjectDBX Classes
 90
4095
 91
0
280
0
281
0
  0
CLASS
  1
MLEADERSTYLE
  2
AcDbMLeaderStyle
  3
ACDB_MLEADERSTYLE_CLASS
 90
4095
 91
0
280
0
281
0
  0
CLASS
  1
DICTIONARYVAR
  2
AcDbDictionaryVar
  3
ObjectDBX Classes
 90
0
 91
0
280
0
281
0
  0
CLASS
  1
CELLSTYLEMAP
  2
AcDbCellStyleMap
  3
ObjectDBX Classes
 90
1152
 91
0
280
0
281
0
  0
CLASS
  1
MENTALRAYRENDERSETTINGS
  2
AcDbMentalRayRenderSettings
  3
SCENEOE
 90
1024
 91
0
280
0
281
0
  0
CLASS
  1
ACDBDETAILVIEWSTYLE
  2
AcDbDetailViewStyle
  3
ObjectDBX Classes
 90
1025
 91
0
280
0
281
0
  0
CLASS
  1
ACDBSECTIONVIEWSTYLE
  2
AcDbSectionViewStyle
  3
ObjectDBX Classes
 90
1025
 91
0
280
0
281
0
  0
CLASS
  1
RASTERVARIABLES
  2
AcDbRasterVariables
  3
ISM
 90
0
 91
0
280
0
281
0
  0
CLASS
  1
ACDBPLACEHOLDER
  2
AcDbPlaceHolder
  3
ObjectDBX Classes
 90
0
 91
0
280
0
281
0
  0
CLASS
  1
LAYOUT
  2
AcDbLayout
  3
ObjectDBX Classes
 90
0
 91
0
280
0
281
0
  0
ENDSEC
  0
SECTION
  2
TABLES
  0
TABLE
  2
VPORT
  5
8
330
0
100
AcDbSymbolTable
 70
1
  0
VPORT
  5
23
330
8
100
AcDbSymbolTableRecord
100
AcDbViewportTableRecord
  2
*Active
 70
0
 10
0.0
 20
0.0
 11
1.0
 21
1.0
 12
0.0
 22
0.0
 13
0.0
 23
0.0
 14
0.5
 24
0.5
 15
0.5
 25
0.5
 16
0.0
 26
0.0
 36
1.0
 17
0.0
 27
0.0
 37
0.0
 40
1000.0
 41
1.34
 42
50.0
 43
0.0
 44
0.0
 50
0.0
 51
0.0
 71
0
 72
1000
 73
1
 74
3
 75
0
 76
0
 77
0
 78
0
281
0
 65
0
146
0.0
  0
ENDTAB
  0
TABLE
  2
LTYPE
  5
2
330
0
100
AcDbSymbolTable
 70
3
  0
LTYPE
  5
24
330
2
100
AcDbSymbolTableRecord
100
AcDbLinetypeTableRecord
  2
ByBlock
 70
0
  3

 72
65
 73
0
 40
0.0
  0
LTYPE
  5
25
330
2
100
AcDbSymbolTableRecord
100
AcDbLinetypeTableRecord
  2
ByLayer
 70
0
  3

 72
65
 73
0
 40
0.0
  0
LTYPE
  5
26
330
2
100
AcDbSymbolTableRecord
100
AcDbLinetypeTableRecord
  2
Continuous
 70
0
  3

 72
65
 73
0
 40
0.0
  0
ENDTAB
  0
TABLE
  2
LAYER
  5
1
330
0
100
AcDbSymbolTable
 70
2
  0
LAYER
  5
27
330
1
100
AcDbSymbolTableRecord
100
AcDbLayerTableRecord
  2
0
 70
0
 62
7
  6
Continuous
370
-3
390
13
347
21
  0
LAYER
  5
28
330
1
100
AcDbSymbolTableRecord
100
AcDbLayerTableRecord
  2
Defpoints
 70
0
 62
7
  6
Continuous
290
0
370
-3
390
13
347
21
  0
ENDTAB
  0
TABLE
  2
STYLE
  5
5
330
0
100
AcDbSymbolTable
 70
1
  0
STYLE
  5
29
330
5
100
AcDbSymbolTableRecord
100
AcDbTextStyleTableRecord
  2
Standard
 70
0
 40
0.0
 41
1.0
 50
0.0
 71
0
 42
2.5
  3
txt
  4

  0
ENDTAB
  0
TABLE
  2
VIEW
  5
7
330
0
100
AcDbSymbolTable
 70
0
  0
ENDTAB
  0
TABLE
  2
UCS
  5
6
330
0
100
AcDbSymbolTable
 70
0
  0
ENDTAB
  0
TABLE
  2
APPID
  5
3
330
0
100
AcDbSymbolTable
 70
3
  0
APPID
  5
2A
330
3
100
AcDbSymbolTableRecord
100
AcDbRegAppTableRecord
  2
ACAD
 70
0
  0
APPID
  5
134
330
3
100
AcDbSymbolTableRecord
100
AcDbRegAppTableRecord
  2
HATCHBACKGROUNDCOLOR
 70
0
  0
APPID
  5
135
330
3
100
AcDbSymbolTableRecord
100
AcDbRegAppTableRecord
  2
EZDXF
 70
0
  0
ENDTAB
  0
TABLE
  2
DIMSTYLE
  5
4
330
0
100
AcDbSymbolTable
 70
1
100
AcDbDimStyleTable
  0
DIMSTYLE
105
2B
330
4
100
AcDbSymbolTableRecord
100
AcDbDimStyleTableRecord
  2
Standard
 70
0
 40
1.0
 41
2.5
 42
0.625
 43
3.75
 44
1.25
 45
0.0
 46
0.0
 47
0.0
 48
0.0
 49
2.5
140
2.5
141
2.5
142
0.0
143
0.03937007874
144
1.0
145
0.0
146
1.0
147
0.625
148
0.0
 69
0
 70
0
 71
0
 72
0
 73
0
 74
0
 75
0
 76
0
 77
1
 78
8
 79
3
170
0
171
3
172
1
173
0
174
0
175
0
176
0
177
0
178
0
179
2
271
2
272
2
273
2
274
3
275
0
276
0
277
2
278
44
279
0
280
0
281
0
282
0
283
0
284
8
285
0
286
0
288
0
289
3
290
0
371
-2
372
-2
  0
ENDTAB
  0
TABLE
  2
BLOCK_RECORD
  5
9
330
0
100
AcDbSymbolTable
 70
2
  0
BLOCK_RECORD
  5
17
330
9
100
AcDbSymbolTableRecord
100
AcDbBlockTableRecord
  2
*Model_Space
340
1A
 70
0
280
1
281
0
  0
BLOCK_RECORD
  5
1B
330
9
100
AcDbSymbolTableRecord
100
AcDbBlockTableRecord
  2
*Paper_Space
340
1E
 70
0
280
1
281
0
  0
ENDTAB
  0
ENDSEC
  0
SECTION
  2
BLOCKS
  0
BLOCK
  5
18
330
17
100
AcDbEntity
  8
0
100
AcDbBlockBegin
  2
*Model_Space
 70
0
 10
0.0
 20
0.0
 30
0.0
  3
*Model_Space
  1

  0
ENDBLK
  5
19
330
17
100
AcDbEntity
  8
0
100
AcDbBlockEnd
  0
BLOCK
  5
1C
330
1B
100
AcDbEntity
  8
0
100
AcDbBlockBegin
  2
*Paper_Space
 70
0
 10
0.0
 20
0.0
 30
0.0
  3
*Paper_Space
  1

  0
ENDBLK
  5
1D
330
1B
100
AcDbEntity
  8
0
100
AcDbBlockEnd
  0
ENDSEC
  0
SECTION
  2
ENTITIES
  0
LWPOLYLINE
  5
2F
330
17
100
AcDbEntity
  8
0
 62
0
100
AcDbPolyline
 90
105
 70
0
 10
30.424242424242426
 20
452.5470293914486
 10
32.95959595959596
 20
449.9259286875025
 10
35.494949494949495
 20
446.87921523890714
 10
38.03030303030303
 20
443.5170052078292
 10
40.56565656565657
 20
439.96081762494464
 10
43.101010101010104
 20
436.3391823750553
 10
45.63636363636364
 20
432.7829947921707
 10
48.17171717171718
 20
429.4207847610928
 10
50.70707070707071
 20
426.37407131249745
 10
53.24242424242424
 20
423.7529706085514
 10
55.77777777777778
 20
421.65221605790646
 10
58.313131313131315
 20
420.1477344034856
 10
60.84848484848485
 20
419.2939015321682
 10
63.38383838383839
 20
419.12157718856366
 10
65.91919191919192
 20
419.63698962343653
 10
68.45454545454545
 20
420.8215104884964
 10
70.98989898989899
 20
422.6323281134411
 10
73.52525252525253
 20
425.00399483126574
 10
76.06060606060606
 20
427.8507924274708
 10
78.5959595959596
 20
431.06983021967073
 10
81.13131313131314
 20
434.54476379493417
 10
83.66666666666667
 20
438.15
 10
86.20202020202021
 20
441.7552362050658
 10
88.73737373737374
 20
445.2301697803292
 10
91.27272727272728
 20
448.44920757252913
 10
93.80808080808082
 20
451.2960051687342
 10
96.34343434343435
 20
453.6676718865589
 10
98.87878787878789
 20
455.47848951150354
 10
101.41414141414143
 20
456.6630103765634
 10
103.94949494949495
 20
457.1784228114363
 10
106.48484848484848
 20
457.00609846783175
 10
109.02020202020202
 20
456.15226559651444
 10
111.55555555555556
 20
454.64778394209355
 10
114.0909090909091
 20
452.5470293914486
 10
116.62626262626263
 20
449.9259286875025
 10
119.16161616161617
 20
446.87921523890714
 10
121.6969696969697
 20
443.51700520782924
 10
124.23232323232324
 20
439.96081762494464
 10
126.76767676767678
 20
436.3391823750553
 10
129.3030303030303
 20
432.78299479217077
 10
131.83838383838383
 20
429.4207847610928
 10
134.37373737373738
 20
426.37407131249745
 10
136.9090909090909
 20
423.7529706085514
 10
139.44444444444446
 20
421.6522160579064
 10
141.97979797979798
 20
420.1477344034856
 10
144.51515151515153
 20
419.2939015321682
 10
147.05050505050505
 20
419.12157718856366
 10
149.5858585858586
 20
419.63698962343653
 10
152.12121212121212
 20
420.8215104884964
 10
154.65656565656568
 20
422.6323281134411
 10
157.1919191919192
 20
425.00399483126574
 10
159.72727272727275
 20
427.8507924274709
 10
162.26262626262627
 20
431.06983021967073
 10
164.7979797979798
 20
434.5447637949341
 10
167.33333333333334
 20
438.15
 10
169.86868686868686
 20
441.7552362050658
 10
172.40404040404042
 20
445.2301697803292
 10
174.93939393939394
 20
448.4492075725291
 10
177.4747474747475
 20
451.2960051687342
 10
180.010101010101
 20
453.6676718865589
 10
182.54545454545456
 20
455.47848951150354
 10
185.08080808080808
 20
456.6630103765634
 10
187.61616161616163
 20
457.1784228114363
 10
190.15151515151516
 20
457.00609846783175
 10
192.6868686868687
 20
456.1522655965144
 10
195.22222222222223
 20
454.6477839420935
 10
197.75757575757578
 20
452.5470293914486
 10
200.2929292929293
 20
449.9259286875025
 10
202.82828282828285
 20
446.87921523890714
 10
205.36363636363637
 20
443.51700520782924
 10
207.8989898989899
 20
439.9608176249447
 10
210.43434343434345
 20
436.3391823750553
 10
212.96969696969697
 20
432.78299479217077
 10
215.50505050505052
 20
429.42078476109276
 10
218.04040404040404
 20
426.37407131249745
 10
220.5757575757576
 20
423.7529706085513
 10
223.11111111111111
 20
421.65221605790646
 10
225.64646464646466
 20
420.1477344034856
 10
228.1818181818182
 20
419.2939015321682
 10
230.71717171717174
 20
419.12157718856366
 10
233.25252525252526
 20
419.63698962343653
 10
235.7878787878788
 20
420.8215104884964
 10
238.32323232323233
 20
422.6323281134411
 10
240.85858585858588
 20
425.0039948312658
 10
243.3939393939394
 20
427.8507924274708
 10
245.92929292929293
 20
431.06983021967073
 10
248.46464646464648
 20
434.54476379493417
 10
251.0
 20
438.15
 10
251.0
 20
419.09999999999997
 10
251.0
 20
0.0
 10
0.0
 20
0.0
 10
0.0
 20
419.09999999999997
 10
0.0
 20
438.15
 10
2.5353535353535355
 20
441.7552362050658
 10
5.070707070707071
 20
445.2301697803292
 10
7.606060606060606
 20
448.44920757252913
 10
10.141414141414142
 20
451.2960051687342
 10
12.676767676767678
 20
453.6676718865589
 10
15.212121212121213
 20
455.47848951150354
 10
17.747474747474747
 20
456.6630103765634
 10
20.282828282828284
 20
457.1784228114363
 10
22.81818181818182
 20
457.00609846783175
 10
25.353535353535356
 20
456.1522655965144
 10
27.88888888888889
 20
454.64778394209355
 10
30.424242424242426
 20
452.5470293914486
  0
LWPOLYLINE
  5
30
330
17
100
AcDbEntity
  8
0
 62
0
100
AcDbPolyline
 90
13
 70
0
 10
174.85283529974907
 20
14.986014518437525
 10
174.80059915664322
 20
15.19455289131716
 10
168.67714692698792
 20
10.704766049515456
 10
168.73538020010727
 20
8.0
 10
179.4729050148719
 20
8.0
 10
179.48246664437363
 20
8.143325795062363
 10
179.36849402170895
 20
8.227853652921677
 10
178.35050506338834
 20
9.150505063388332
 10
177.42785365292167
 20
10.16849402170896
 10
176.60942542776436
 20
11.272016737725567
 10
175.90310229912302
 20
12.450445684436026
 10
175.31568654484198
 20
13.692431946888739
 10
174.85283529974907
 20
14.986014518437525
  0
LWPOLYLINE
  5
31
330
17
100
AcDbEntity
  8
0
 62
0
100
AcDbPolyline
 90
11
 70
0
 10
201.27747152943283
 20
24.14720867726737
 10
202.7888612220995
 20
26.982442518230528
 10
198.34384276112542
 20
30.636829206254333
 10
196.8232610986111
 20
30.100756330478497
 10
197.13150597829105
 20
29.872146347078314
 10
198.14949493661166
 20
28.949494936611664
 10
199.0721463470783
 20
27.931505978291042
 10
199.89057457223564
 20
26.82798326227443
 10
200.59689770087698
 20
25.649554315563968
 10
201.18431345515802
 20
24.407568053111262
 10
201.27747152943283
 20
24.14720867726737
  0
LWPOLYLINE
  5
32
330
17
100
AcDbEntity
  8
0
 62
0
100
AcDbPolyline
 90
14
 70
0
 10
134.38150597829105
 20
8.227853652921679
 10
134.07428089220838
 20
8.0
 10
142.6813456869689
 20
8.0
 10
143.8358531408012
 20
15.09249207843095
 10
141.67339971056208
 20
18.406405865680426
 10
139.2547586561778
 20
16.478944291587055
 10
139.23099392564524
 20
16.318735491774202
 10
138.89716470025093
 20
14.986014518437525
 10
138.43431345515802
 20
13.692431946888739
 10
137.84689770087698
 20
12.45044568443603
 10
137.14057457223564
 20
11.272016737725567
 10
136.32214634707833
 20
10.16849402170896
 10
135.39949493661166
 20
9.150505063388334
 10
134.38150597829105
 20
8.227853652921679
  0
LWPOLYLINE
  5
33
330
17
100
AcDbEntity
  8
0
 62
0
100
AcDbPolyline
 90
11
 70
0
 10
48.77529366267845
 20
12.002445302437991
 10
49.14953317983376
 20
15.79764207685432
 10
49.01900607435478
 20
16.3187354917742
 10
48.817413826589245
 20
17.677760035386147
 10
48.75
 20
19.049999999999997
 10
48.76673555094577
 20
19.390659965462905
 10
43.82407937850803
 20
22.93338657496497
 10
37.51309749158099
 20
20.07480167457834
 10
36.833213691134006
 20
13.180038588587195
 10
42.46431177621707
 20
9.14386040205136
 10
48.77529366267845
 20
12.002445302437991
  0
LWPOLYLINE
  5
34
330
17
100
AcDbEntity
  8
0
 62
0
100
AcDbPolyline
 90
15
 70
0
 10
60.8854178037266
 20
32.9095541022707
 10
61.10662027541548
 20
35.15278836572543
 10
55.47552219033241
 20
39.18896655226126
 10
49.164540303871036
 20
36.33038165187463
 10
48.48465650342405
 20
29.435618565883487
 10
51.46112145596239
 20
27.302190461292682
 10
51.927853652921684
 20
27.93150597829103
 10
52.85050506338833
 20
28.94949493661166
 10
53.868494021708955
 20
29.87214634707831
 10
54.97201673772557
 20
30.690574572235633
 10
56.15044568443603
 20
31.396897700876966
 10
57.392431946888735
 20
31.98431345515801
 10
58.686014518437524
 20
32.44716470025092
 10
60.0187354917742
 20
32.78099392564522
 10
60.8854178037266
 20
32.9095541022707
  0
LWPOLYLINE
  5
35
330
17
100
AcDbEntity
  8
0
 62
0
100
AcDbPolyline
 90
18
 70
0
 10
76.14716470025093
 20
23.113985481562473
 10
76.48099392564522
 20
21.7812645082258
 10
76.49908514861382
 20
21.659303389627254
 10
80.49376689782366
 20
18.7960523692891
 10
81.34722691541538
 20
19.264493430498987
 10
83.502658798825
 20
25.809501701500267
 10
76.96575011406094
 20
37.945041057653725
 10
69.06800692342222
 20
34.36772617464885
 10
68.80065703444167
 20
31.656506780430327
 10
69.34955431556396
 20
31.39689770087697
 10
70.52798326227443
 20
30.690574572235633
 10
71.63150597829105
 20
29.872146347078314
 10
72.64949493661166
 20
28.949494936611664
 10
73.57214634707832
 20
27.931505978291042
 10
74.39057457223564
 20
26.82798326227443
 10
75.09689770087697
 20
25.649554315563968
 10
75.68431345515802
 20
24.407568053111262
 10
76.14716470025093
 20
23.113985481562473
  0
LWPOLYLINE
  5
36
330
17
100
AcDbEntity
  8
0
 62
0
100
AcDbPolyline
 90
8
 70
0
 10
208.1921060258847
 20
8.0
 10
209.2885607187191
 20
8.0
 10
224.268549204804
 20
17.521247231401503
 10
224.5937999621965
 20
21.745174520649016
 10
217.92065321747214
 20
25.249168566428125
 10
210.4176979297772
 20
24.287030768115073
 10
204.80339663056657
 20
13.755096407141536
 10
208.1921060258847
 20
8.0
  0
LWPOLYLINE
  5
37
330
17
100
AcDbEntity
  8
0
 62
0
100
AcDbPolyline
 90
5
 70
0
 10
160.70340687967837
 20
9.398958165198565
 10
151.31630570441484
 20
11.253895085770637
 10
150.78664051924358
 20
8.0
 10
160.73352627311297
 20
8.0
 10
160.70340687967837
 20
9.398958165198565
  0
LWPOLYLINE
  5
38
330
17
100
AcDbEntity
  8
0
 62
0
100
AcDbPolyline
 90
5
 70
0
 10
84.79139862023294
 20
12.029078125953674
 10
83.26225730450824
 20
11.189773921854794
 10
81.73387493125884
 20
8.0
 10
93.33775637274212
 20
8.0
 10
84.79139862023294
 20
12.029078125953674
  0
LWPOLYLINE
  5
39
330
17
100
AcDbEntity
  8
0
 62
0
100
AcDbPolyline
 90
5
 70
0
 10
8.968360423576087
 20
15.927756256889552
 10
9.648244224023074
 20
22.822519343346357
 10
8.0
 20
24.0039243343219
 10
8.0
 20
15.489133466575108
 10
8.968360423576087
 20
15.927756256889552
  0
LWPOLYLINE
  5
3A
330
17
100
AcDbEntity
  8
0
 62
0
100
AcDbPolyline
 90
8
 70
0
 10
8.0
 20
44.78839120703965
 10
8.0
 20
33.84669833729263
 10
14.308821348939091
 20
29.324751334264874
 10
20.61980323586613
 20
32.183336234185845
 10
21.299687036313117
 20
39.07809932017699
 10
11.7330128592439
 20
45.93516361666843
 10
8.546962597873062
 20
45.478103370405734
 10
8.0
 20
44.78839120703965
  0
LWPOLYLINE
  5
3B
330
17
100
AcDbEntity
  8
0
 62
0
100
AcDbPolyline
 90
6
 70
0
 10
20.23021724401042
 20
66.9010047968477
 10
8.0
 20
69.1939359281734
 10
8.0
 20
55.00906957149006
 10
8.704619196709245
 20
53.58262033434585
 10
10.538414183072746
 20
53.845690506044775
 10
20.23021724401042
 20
66.9010047968477
  0
LWPOLYLINE
  5
3C
330
17
100
AcDbEntity
  8
0
 62
0
100
AcDbPolyline
 90
6
 70
0
 10
22.182702395133674
 20
85.60507399449125
 10
8.0
 20
86.21151368717163
 10
8.0
 20
77.33331794700382
 10
21.74806119594723
 20
74.75582019006833
 10
24.244177910499275
 20
79.78710759151727
 10
22.182702395133674
 20
85.60507399449125
  0
LWPOLYLINE
  5
3D
330
17
100
AcDbEntity
  8
0
 62
0
100
AcDbPolyline
 90
5
 70
0
 10
11.723149094730616
 20
113.21482717385516
 10
12.133059456478804
 20
120.13089350471273
 10
8.0
 20
122.85530710271935
 10
8.0
 20
111.34975560537274
 10
11.723149094730616
 20
113.21482717385516
  0
LWPOLYLINE
  5
3E
330
17
100
AcDbEntity
  8
0
 62
0
100
AcDbPolyline
 90
4
 70
0
 10
10.189172697253525
 20
167.02765438938513
 10
8.0
 20
168.78666409675304
 10
8.0
 20
152.85705921032593
 10
10.189172697253525
 20
167.02765438938513
  0
LWPOLYLINE
  5
3F
330
17
100
AcDbEntity
  8
0
 62
0
100
AcDbPolyline
 90
7
 70
0
 10
15.200047239661217
 20
173.26393022714183
 10
29.099342097062618
 20
178.66012788191438
 10
29.02999849943444
 20
180.80667375260964
 10
23.56042876234278
 20
186.37537936260924
 10
8.0
 20
185.93568669711567
 10
8.0
 20
179.0491992489475
 10
15.200047239661217
 20
173.26393022714183
  0
LWPOLYLINE
  5
40
330
17
100
AcDbEntity
  8
0
 62
0
100
AcDbPolyline
 90
6
 70
0
 10
16.051463203970343
 20
207.13304397743195
 10
8.0
 20
203.02932250472278
 10
8.0
 20
193.9388799159901
 10
21.389651058707386
 20
194.31723268842325
 10
21.86242548050359
 20
203.36041658790782
 10
16.051463203970343
 20
207.13304397743195
  0
LWPOLYLINE
  5
41
330
17
100
AcDbEntity
  8
0
 62
0
100
AcDbPolyline
 90
5
 70
0
 10
12.41862836619839
 20
214.26063200179487
 10
12.780338385608047
 20
221.1793866478838
 10
8.0
 20
224.282906283486
 10
8.0
 20
212.0085171195664
 10
12.41862836619839
 20
214.26063200179487
  0
LWPOLYLINE
  5
42
330
17
100
AcDbEntity
  8
0
 62
0
100
AcDbPolyline
 90
6
 70
0
 10
14.588888484984636
 20
255.77315988158807
 10
8.0
 20
260.05083713727436
 10
8.0
 20
245.74366479608113
 10
8.054506168700755
 20
245.70827797800303
 10
14.22717846557498
 20
248.85440523549914
 10
14.588888484984636
 20
255.77315988158807
  0
LWPOLYLINE
  5
43
330
17
100
AcDbEntity
  8
0
 62
0
100
AcDbPolyline
 90
7
 70
0
 10
18.945143362507224
 20
262.48308115126565
 10
25.11781565938145
 20
265.62920840876177
 10
25.45617420040071
 20
272.1012981990352
 10
22.348901117686182
 20
275.0888583138585
 10
8.0
 20
269.93240527781666
 10
8.0
 20
269.58895203195243
 10
18.945143362507224
 20
262.48308115126565
  0
LWPOLYLINE
  5
44
330
17
100
AcDbEntity
  8
0
 62
0
100
AcDbPolyline
 90
6
 70
0
 10
8.916031698230654
 20
292.2299394644797
 10
8.0
 20
291.14346797764176
 10
8.0
 20
278.43328978334387
 10
19.46459306869656
 20
282.55323146050796
 10
19.669749519322067
 20
286.8310824944638
 10
8.916031698230654
 20
292.2299394644797
  0
LWPOLYLINE
  5
45
330
17
100
AcDbEntity
  8
0
 62
0
100
AcDbPolyline
 90
5
 70
0
 10
13.357275670859963
 20
313.86583761824295
 10
13.136944929603487
 20
320.0271039134823
 10
8.0
 20
323.39283242359386
 10
8.0
 20
309.2810274662701
 10
13.357275670859963
 20
313.86583761824295
  0
LWPOLYLINE
  5
46
330
17
100
AcDbEntity
  8
0
 62
0
100
AcDbPolyline
 90
5
 70
0
 10
10.304941265378147
 20
348.7222688039765
 10
11.231240218970925
 20
357.2919154991396
 10
8.0
 20
359.65415843537863
 10
8.0
 20
347.35483571651434
 10
10.304941265378147
 20
348.7222688039765
  0
LWPOLYLINE
  5
47
330
17
100
AcDbEntity
  8
0
 62
0
100
AcDbPolyline
 90
5
 70
0
 10
17.477520228829235
 20
386.28775784000754
 10
12.988973750732839
 20
394.288890353404
 10
8.0
 20
394.3216882034473
 10
8.0
 20
382.10158375857037
 10
17.477520228829235
 20
386.28775784000754
  0
LWPOLYLINE
  5
48
330
17
100
AcDbEntity
  8
0
 62
0
100
AcDbPolyline
 90
6
 70
0
 10
11.70462737744674
 20
413.96333218272775
 10
8.0
 20
413.66114717203897
 10
8.0
 20
402.32186107550655
 10
12.81617985945195
 20
402.2901991843246
 10
15.645059355068952
 20
408.2648239717819
 10
11.70462737744674
 20
413.96333218272775
  0
LWPOLYLINE
  5
49
330
17
100
AcDbEntity
  8
0
 62
0
100
AcDbPolyline
 90
11
 70
0
 10
13.138683404392241
 20
426.5094254277643
 10
12.035160688375633
 20
427.32785365292165
 10
11.017171730055004
 20
428.2505050633883
 10
10.09452031958835
 20
429.26849402170893
 10
9.276092094431032
 20
430.3720167377256
 10
8.569768965789699
 20
431.550445684436
 10
8.0
 20
432.75512094744255
 10
8.0
 20
421.6877174535604
 10
11.05423064948991
 20
421.9368498567492
 10
13.201451364823805
 20
426.4718037601074
 10
13.138683404392241
 20
426.5094254277643
  0
LWPOLYLINE
  5
4A
330
17
100
AcDbEntity
  8
0
 62
0
100
AcDbPolyline
 90
10
 70
0
 10
41.7842282108039
 20
424.60414851011734
 10
39.24887467545037
 20
427.96635854119523
 10
39.12235684206639
 20
428.13888933645063
 10
36.58700330671285
 20
431.69507691933524
 10
36.547332303067805
 20
431.75122996458305
 10
35.992292134852214
 20
432.54407917093005
 10
34.734874124638736
 20
429.88839842379093
 10
38.67530610226095
 20
424.18989021284506
 10
41.90380617459106
 20
424.45323770490467
 10
41.7842282108039
 20
424.60414851011734
  0
LWPOLYLINE
  5
4B
330
17
100
AcDbEntity
  8
0
 62
0
100
AcDbPolyline
 90
11
 70
0
 10
92.18768809502944
 20
423.2895998782478
 10
85.91298269433901
 20
426.226957898587
 10
83.80765068692895
 20
424.7574687421614
 10
82.34535372244177
 20
422.9008483038417
 10
82.03480646681074
 20
422.53017878743793
 10
79.4994529314572
 20
419.68338119123285
 10
78.99036746708853
 20
419.1616906049762
 10
76.89296113516191
 20
417.1996964602458
 10
87.1000347645022
 20
412.4214913221076
 10
92.78121413011104
 20
416.3868665904738
 10
92.18768809502944
 20
423.2895998782478
  0
LWPOLYLINE
  5
4C
330
17
100
AcDbEntity
  8
0
 62
0
100
AcDbPolyline
 90
12
 70
0
 10
116.13453478785232
 20
407.6460960698314
 10
116.40224316110834
 20
407.04457061970606
 10
123.81177183007821
 20
402.8932695821859
 10
132.6654732930474
 20
406.57400443963706
 10
129.39501456841813
 20
420.01456019476893
 10
128.62360973349715
 20
420.8120544012552
 10
128.22442062201702
 20
421.256854931787
 10
125.68906708666347
 20
424.3035683803824
 10
125.4508948774705
 20
424.6041485101174
 10
125.27628292502497
 20
424.83570677206075
 10
121.62520145857707
 20
423.4012163565494
 10
116.13453478785232
 20
407.6460960698314
  0
LWPOLYLINE
  5
4D
330
17
100
AcDbEntity
  8
0
 62
0
100
AcDbPolyline
 90
9
 70
0
 10
143.29178536053615
 20
411.38799391496565
 10
142.61988698899262
 20
411.5216449502042
 10
141.9618865336114
 20
411.7122897026137
 10
139.44213137084876
 20
412.5608694985428
 10
140.68035599775612
 20
407.4721560990438
 10
142.28763713408262
 20
407.05971125885844
 10
146.1118412123118
 20
411.16691921238083
 10
143.97265463826088
 20
411.3123166558066
 10
143.29178536053615
 20
411.38799391496565
  0
LWPOLYLINE
  5
4E
330
17
100
AcDbEntity
  8
0
 62
0
100
AcDbPolyline
 90
12
 70
0
 10
172.97521962644532
 20
421.1643088478595
 10
171.25736316060647
 20
428.8089815787971
 10
170.58047810174114
 20
428.8972430783025
 10
168.72531585369086
 20
426.3545737844866
 10
168.54737392446197
 20
426.11988609604157
 10
166.01202038910844
 20
422.9008483038417
 10
165.70147313347746
 20
422.53017878743805
 10
163.1661195981239
 20
419.6833811912329
 10
162.65703413375522
 20
419.1616906049762
 10
161.8056591018119
 20
418.3652818203664
 10
167.88069024076685
 20
416.46901648817584
 10
172.97521962644532
 20
421.1643088478595
  0
LWPOLYLINE
  5
4F
330
17
100
AcDbEntity
  8
0
 62
0
100
AcDbPolyline
 90
14
 70
0
 10
208.33081354503722
 20
425.64747914532035
 10
207.43670690385625
 20
425.0513746785
 10
214.15166864544153
 20
414.57238767808303
 10
220.2344579347812
 20
414.0567528533296
 10
219.02857578979382
 20
414.77232468156944
 10
218.5036719103248
 20
415.1122233965147
 10
218.00692058001468
 20
415.4920830218215
 10
215.47156704466116
 20
417.59283757246635
 10
214.82562993551733
 20
418.19095369730906
 10
212.29027640016378
 20
420.8120544012552
 10
211.8910872886837
 20
421.25685493178696
 10
209.35573375333018
 20
424.3035683803823
 10
209.11756154413717
 20
424.6041485101174
 10
208.33081354503722
 20
425.64747914532035
  0
LWPOLYLINE
  5
50
330
17
100
AcDbEntity
  8
0
 62
0
100
AcDbPolyline
 90
14
 70
0
 10
233.19069796942816
 20
411.4607866890652
 10
231.98197125736624
 20
409.01602203398943
 10
233.7396302781999
 20
402.8061566245742
 10
235.00462697492912
 20
401.77714125206694
 10
243.0
 20
401.7437697015639
 10
243.0
 20
415.7222078042775
 10
242.4816009738307
 20
415.7713914743737
 10
240.4375306821425
 20
414.31146154381327
 10
239.8227431931687
 20
413.9135535379267
 10
239.17414515204456
 20
413.5735314521774
 10
236.638791616691
 20
412.3890105871175
 10
235.76003211297743
 20
412.04012123279125
 10
234.8462481433963
 20
411.79734375470537
 10
233.19069796942816
 20
411.4607866890652
  0
LWPOLYLINE
  5
51
330
17
100
AcDbEntity
  8
0
 62
0
100
AcDbPolyline
 90
5
 70
0
 10
238.5791841391474
 20
393.76215187460184
 10
240.95639616670087
 20
383.18326573166996
 10
243.0
 20
382.54537351145746
 10
243.0
 20
393.7437000174393
 10
238.5791841391474
 20
393.76215187460184
  0
LWPOLYLINE
  5
52
330
17
100
AcDbEntity
  8
0
 62
0
100
AcDbPolyline
 90
7
 70
0
 10
238.57269508903846
 20
375.546645459719
 10
233.47816570336
 20
370.85135310003534
 10
236.48786217253655
 20
357.4578333357349
 10
237.77847093576565
 20
357.42296024551615
 10
243.0
 20
361.62788659913565
 10
243.0
 20
374.164702779153
 10
238.57269508903846
 20
375.546645459719
  0
LWPOLYLINE
  5
53
330
17
100
AcDbEntity
  8
0
 62
0
100
AcDbPolyline
 90
8
 70
0
 10
243.0
 20
331.2671292600484
 10
243.0
 20
342.80050472947704
 10
237.2686760602519
 20
349.43381530605257
 10
236.9012952791527
 20
349.44374217418954
 10
230.2584788138047
 20
330.3384086810984
 10
235.2461525159888
 20
322.00658988859504
 10
236.0561689962633
 20
322.1710115871392
 10
243.0
 20
331.2671292600484
  0
LWPOLYLINE
  5
54
330
17
100
AcDbEntity
  8
0
 62
0
100
AcDbPolyline
 90
7
 70
0
 10
237.89882981451228
 20
314.3818961889483
 10
235.77825816115364
 20
313.9514506352134
 10
235.22050002589822
 20
313.03327829390764
 10
242.55557606136426
 20
295.5320541760884
 10
243.0
 20
295.4754329883996
 10
243.0
 20
312.2033148148623
 10
237.89882981451228
 20
314.3818961889483
  0
LWPOLYLINE
  5
55
330
17
100
AcDbEntity
  8
0
 62
0
100
AcDbPolyline
 90
6
 70
0
 10
240.02793637709692
 20
275.69242117460817
 10
243.0
 20
275.31376971690145
 10
243.0
 20
287.4107676794175
 10
241.54452018765733
 20
287.5962009751238
 10
237.34990304615349
 20
282.0821111104451
 10
240.02793637709692
 20
275.69242117460817
  0
LWPOLYLINE
  5
56
330
17
100
AcDbEntity
  8
0
 62
0
100
AcDbPolyline
 90
6
 70
0
 10
237.50029669329524
 20
255.85278817359358
 10
243.0
 20
255.15210644592452
 10
243.0
 20
267.24910440792814
 10
239.01688050338998
 20
267.75656797364354
 10
234.8222633623518
 20
262.24247810896486
 10
237.50029669329524
 20
255.85278817359358
  0
LWPOLYLINE
  5
57
330
17
100
AcDbEntity
  8
0
 62
0
100
AcDbPolyline
 90
7
 70
0
 10
236.4892408195883
 20
247.91693497262895
 10
232.29462367855012
 20
242.40284510795027
 10
235.57763268146664
 20
234.56970526464283
 10
241.22958583151922
 20
234.32814999949187
 10
243.0
 20
236.65547153914108
 10
243.0
 20
247.0874411369512
 10
236.4892408195883
 20
247.91693497262895
  0
LWPOLYLINE
  5
58
330
17
100
AcDbEntity
  8
0
 62
0
100
AcDbPolyline
 90
7
 70
0
 10
240.82084315270185
 20
226.3383160554804
 10
234.6865234929137
 20
226.60048687877133
 10
228.4187518088147
 20
219.0151315513067
 10
237.51441358355805
 20
212.44627487333491
 10
243.0
 20
214.90737401805487
 10
243.0
 20
222.69204700093377
 10
240.82084315270185
 20
226.3383160554804
  0
LWPOLYLINE
  5
59
330
17
100
AcDbEntity
  8
0
 62
0
100
AcDbPolyline
 90
5
 70
0
 10
240.7891243742779
 20
205.14721539756283
 10
240.08457200275734
 20
198.25492942333221
 10
243.0
 20
196.1494170213198
 10
243.0
 20
206.13912103863686
 10
240.7891243742779
 20
205.14721539756283
  0
LWPOLYLINE
  5
5A
330
17
100
AcDbEntity
  8
0
 62
0
100
AcDbPolyline
 90
6
 70
0
 10
242.17842870159075
 20
159.73719631042331
 10
243.0
 20
160.10579289541963
 10
243.0
 20
173.25817236494345
 10
237.26636251527816
 20
170.6857855245471
 10
236.5618101437576
 20
163.79349954985082
 10
242.17842870159075
 20
159.73719631042331
  0
LWPOLYLINE
  5
5B
330
17
100
AcDbEntity
  8
0
 62
0
100
AcDbPolyline
 90
7
 70
0
 10
240.06477158656344
 20
139.0603383872658
 10
233.74360065627843
 20
136.22435565199703
 10
233.03904828429222
 20
129.3320696768351
 10
238.65566684259102
 20
125.27576643740758
 10
243.0
 20
127.22484422165792
 10
243.0
 20
136.94052619078371
 10
240.06477158656344
 20
139.0603383872658
  0
LWPOLYLINE
  5
5C
330
17
100
AcDbEntity
  8
0
 62
0
100
AcDbPolyline
 90
5
 70
0
 10
241.93037763377652
 20
117.9767069616355
 10
240.95006761606783
 20
108.38682087697089
 10
243.0
 20
107.04597373410604
 10
243.0
 20
118.45659124218189
 10
241.93037763377652
 20
117.9767069616355
  0
LWPOLYLINE
  5
5D
330
17
100
AcDbEntity
  8
0
 62
0
100
AcDbPolyline
 90
6
 70
0
 10
228.77925818180665
 20
82.11701617669314
 10
243.0
 20
89.28100831831576
 10
243.0
 20
97.48659932048758
 10
236.06879206746817
 20
102.0202563451603
 10
229.434790504165
 20
100.10761122405529
 10
228.77925818180665
 20
82.11701617669314
  0
LWPOLYLINE
  5
5E
330
17
100
AcDbEntity
  8
0
 62
0
100
AcDbPolyline
 90
5
 70
0
 10
231.5808738092892
 20
74.57058508414775
 10
235.43611564254388
 20
66.69391971966252
 10
243.0
 20
66.57585961426176
 10
243.0
 20
80.32320554123238
 10
231.5808738092892
 20
74.57058508414775
  0
LWPOLYLINE
  5
5F
330
17
100
AcDbEntity
  8
0
 62
0
100
AcDbPolyline
 90
6
 70
0
 10
240.79366796230897
 20
46.60786084737629
 10
243.0
 20
46.57342354220184
 10
243.0
 20
58.57488518601137
 10
235.99388558091596
 20
58.684239397291094
 10
235.37733774725348
 20
56.33677692711353
 10
240.79366796230897
 20
46.60786084737629
  0
LWPOLYLINE
  5
60
330
17
100
AcDbEntity
  8
0
 62
0
100
AcDbPolyline
 90
5
 70
0
 10
240.66881599882618
 20
38.6088351579383
 10
233.55417859973386
 20
26.718421594705433
 10
243.0
 20
26.570987470001427
 10
243.0
 20
38.57244911381612
 10
240.66881599882618
 20
38.6088351579383
  0
LWPOLYLINE
  5
61
330
17
100
AcDbEntity
  8
0
 62
0
100
AcDbPolyline
 90
6
 70
0
 10
236.30595404658013
 20
8.0
 10
243.0
 20
8.0
 10
243.0
 20
18.570013041592926
 10
232.38574544526637
 20
18.73568453406915
 10
232.17814231663942
 20
16.039609275292605
 10
236.30595404658013
 20
8.0
  0
LWPOLYLINE
  5
62
330
17
100
AcDbEntity
  8
0
 62
0
100
AcDbPolyline
 90
7
 70
0
 10
17.60963087202981
 20
22.03745715226978
 10
16.929747071582824
 20
15.142694065812975
 10
22.56084515666589
 20
11.10651587927714
 10
28.87182704312727
 20
13.965100779663771
 10
29.551710843574256
 20
20.859863865654916
 10
23.92061275849119
 20
24.89604205219075
 10
17.60963087202981
 20
22.03745715226978
  0
LWPOLYLINE
  5
63
330
17
100
AcDbEntity
  8
0
 62
0
100
AcDbPolyline
 90
6
 70
0
 10
18.392691085115075
 20
51.004508427809924
 10
25.960264161229134
 20
45.580331311095506
 10
32.27124604769051
 20
48.43891621148214
 10
32.95112984860316
 20
55.33367929747328
 10
25.546518890652806
 20
60.64105075085536
 10
18.392691085115075
 20
51.004508427809924
  0
LWPOLYLINE
  5
64
330
17
100
AcDbEntity
  8
0
 62
0
100
AcDbPolyline
 90
6
 70
0
 10
8.592258668038994
 20
94.19349926104769
 10
22.380032155197114
 20
93.60394637519494
 10
24.82860195543617
 20
99.78518091700971
 10
15.306231491267681
 20
106.06209898507223
 10
9.111787173431367
 20
102.95905860560015
 10
8.592258668038994
 20
94.19349926104769
  0
LWPOLYLINE
  5
65
330
17
100
AcDbEntity
  8
0
 62
0
100
AcDbPolyline
 90
7
 70
0
 10
11.62258995929733
 20
145.3216828298755
 10
10.751428619492799
 20
130.62332392996177
 10
16.535962575580925
 20
126.81029797811061
 10
22.73040689341724
 20
129.9133383575827
 10
23.489142541307956
 20
142.71483487449586
 10
11.915974379517138
 20
145.44758932245895
 10
11.62258995929733
 20
145.3216828298755
  0
LWPOLYLINE
  5
66
330
17
100
AcDbEntity
  8
0
 62
0
100
AcDbPolyline
 90
6
 70
0
 10
16.068634663708508
 20
152.68702958524227
 10
27.253510396927595
 20
150.045962032862
 10
27.845385236199945
 20
150.3204713780433
 10
31.012468382250518
 20
170.82111676689237
 10
18.095383268781006
 20
165.80624765949324
 10
16.068634663708508
 20
152.68702958524227
  0
LWPOLYLINE
  5
67
330
17
100
AcDbEntity
  8
0
 62
0
100
AcDbPolyline
 90
7
 70
0
 10
11.687341006472707
 20
238.5806899536401
 10
11.325630986597389
 20
231.66193530755118
 10
17.136593263130635
 20
227.88930791756138
 10
23.30926556000486
 20
231.03543517552316
 10
23.670975579880178
 20
237.9541898216121
 10
17.860013303346932
 20
241.72681721113622
 10
11.687341006472707
 20
238.5806899536401
  0
LWPOLYLINE
  5
68
330
17
100
AcDbEntity
  8
0
 62
0
100
AcDbPolyline
 90
7
 70
0
 10
12.092497592326254
 20
302.2537417644635
 10
11.98962585022673
 20
299.63845749385655
 10
23.314142422750592
 20
293.9530335091986
 10
27.525713405106217
 20
297.26493772352114
 10
26.539839779026806
 20
304.1226380080916
 10
18.184843975584954
 20
307.4676327910274
 10
12.092497592326254
 20
302.2537417644635
  0
LWPOLYLINE
  5
69
330
17
100
AcDbEntity
  8
0
 62
0
100
AcDbPolyline
 90
7
 70
0
 10
9.468169372528791
 20
338.92394142830744
 10
8.413094290997833
 20
332.68639820767567
 10
16.932539145462215
 20
327.10445430362597
 10
22.944501800928265
 20
331.51159119280055
 10
21.9824336017482
 20
338.4535565432161
 10
14.339242747984827
 20
341.8137620948255
 10
9.468169372528791
 20
338.92394142830744
  0
LWPOLYLINE
  5
6A
330
17
100
AcDbEntity
  8
0
 62
0
100
AcDbPolyline
 90
6
 70
0
 10
25.143195046577603
 20
345.8029597126879
 10
32.561290183104575
 20
351.2006718656048
 10
26.816945034544915
 20
359.8032294814475
 10
19.18491140892729
 20
356.4321977579966
 10
18.358405235223472
 20
348.78578309481964
 10
25.143195046577603
 20
345.8029597126879
  0
LWPOLYLINE
  5
6B
330
17
100
AcDbEntity
  8
0
 62
0
100
AcDbPolyline
 90
8
 70
0
 10
11.104165931697935
 20
374.7270481954329
 10
10.35962852742523
 20
367.83896689116955
 10
15.952613218687475
 20
363.7501379325986
 10
24.977441551629454
 20
367.7363602295518
 10
27.972755699418485
 20
377.67396955471486
 10
27.249801569152623
 20
378.6959201572463
 10
23.280125924386084
 20
380.1051098513417
 10
11.104165931697935
 20
374.7270481954329
  0
LWPOLYLINE
  5
6C
330
17
100
AcDbEntity
  8
0
 62
0
100
AcDbPolyline
 90
11
 70
0
 10
22.22512985439971
 20
412.814842897933
 10
29.130398717243224
 20
413.3781029866077
 10
32.09523560293019
 20
419.63987128669396
 10
28.154803625307977
 20
425.33837949763983
 10
26.163082272829648
 20
425.17591556338573
 10
24.98065214822914
 20
424.75283529974905
 10
23.647931174892463
 20
424.41900607435474
 10
22.28890663128052
 20
424.2174138265892
 10
20.954430149247454
 20
424.1518552009355
 10
18.2846978767775
 20
418.51335110887885
 10
22.22512985439971
 20
412.814842897933
  0
LWPOLYLINE
  5
6D
330
17
100
AcDbEntity
  8
0
 62
0
100
AcDbPolyline
 90
7
 70
0
 10
28.581189883872867
 20
31.398274043109268
 10
34.21228796849027
 20
27.362095856573433
 10
40.52326985541731
 20
30.220680756960064
 10
41.2031536558643
 20
37.11544384295121
 10
35.57205557078123
 20
41.151622029487044
 10
29.261073684319854
 20
38.29303712910041
 10
28.581189883872867
 20
31.398274043109268
  0
LWPOLYLINE
  5
6E
330
17
100
AcDbEntity
  8
0
 62
0
100
AcDbPolyline
 90
7
 70
0
 10
61.24501640396193
 20
56.936826987192035
 10
60.13609931524843
 20
45.69119854317978
 10
65.7671974003315
 20
41.655020356643945
 10
75.52939308108762
 20
46.07684657396749
 10
77.31361615099013
 20
51.00733690848574
 10
77.01571662491187
 20
51.76970105106011
 10
61.24501640396193
 20
56.936826987192035
  0
LWPOLYLINE
  5
6F
330
17
100
AcDbEntity
  8
0
 62
0
100
AcDbPolyline
 90
7
 70
0
 10
40.912516496609896
 20
54.548617106396705
 10
40.23263269569725
 20
47.65385402040556
 10
45.863730780780315
 20
43.617675833869725
 10
52.17471266724169
 20
46.47626073425636
 10
53.483676618896425
 20
59.750582496169955
 10
52.85698968311772
 20
59.9589147916995
 10
40.912516496609896
 20
54.548617106396705
  0
LWPOLYLINE
  5
70
330
17
100
AcDbEntity
  8
0
 62
0
100
AcDbPolyline
 90
7
 70
0
 10
28.347470593638718
 20
68.4761985335499
 10
37.611706973519176
 20
61.8359112883918
 10
46.9698257567361
 20
66.07470923289657
 10
41.822033622302115
 20
75.03144347947091
 10
31.01461159531027
 20
75.43332068948075
 10
28.147400421090424
 20
69.65403826488182
 10
28.347470593638718
 20
68.4761985335499
  0
LWPOLYLINE
  5
71
330
17
100
AcDbEntity
  8
0
 62
0
100
AcDbPolyline
 90
7
 70
0
 10
48.85471273120493
 20
78.8496948950924
 10
55.34133820608258
 20
67.56350092729554
 10
55.820944239385426
 20
67.40406338311732
 10
62.902311666402966
 20
78.62356016319245
 10
59.677374637220055
 20
84.75542620522901
 10
52.754554357379675
 20
85.02848183410242
 10
48.85471273120493
 20
78.8496948950924
  0
LWPOLYLINE
  5
72
330
17
100
AcDbEntity
  8
0
 62
0
100
AcDbPolyline
 90
8
 70
0
 10
32.901651793159544
 20
98.44278592383489
 10
29.322632506489754
 20
89.40781471831724
 10
31.443259010091424
 20
83.42291038203984
 10
42.032424703706056
 20
83.02914909925312
 10
45.989382818341255
 20
89.29842961439863
 10
41.25478093326092
 20
98.30075873294845
 10
35.65067454474047
 20
99.82006528740749
 10
32.901651793159544
 20
98.44278592383489
  0
LWPOLYLINE
  5
73
330
17
100
AcDbEntity
  8
0
 62
0
100
AcDbPolyline
 90
6
 70
0
 10
59.992672118358314
 20
92.74921050900593
 10
63.69055536855012
 20
98.60802092263475
 10
59.119990149047226
 20
107.29845221200958
 10
49.17436423152685
 20
100.42911097081378
 10
53.06985183805227
 20
93.02226613787934
 10
59.992672118358314
 20
92.74921050900593
  0
LWPOLYLINE
  5
74
330
17
100
AcDbEntity
  8
0
 62
0
100
AcDbPolyline
 90
7
 70
0
 10
20.11904497211799
 20
119.65756978932768
 10
19.7091346103698
 20
112.7415034584701
 10
30.018183702602983
 20
105.94602571986616
 10
31.367497013881803
 20
106.62204099725932
 10
32.09802324650809
 20
118.94758421648294
 10
26.313489289954305
 20
122.76061016879976
 10
20.11904497211799
 20
119.65756978932768
  0
LWPOLYLINE
  5
75
330
17
100
AcDbEntity
  8
0
 62
0
100
AcDbPolyline
 90
6
 70
0
 10
39.40926403878257
 20
107.08987089060247
 10
43.238238448277116
 20
106.05181316751987
 10
54.748748811893165
 20
114.00200395518914
 10
49.16718535963446
 20
123.02438030345365
 10
40.08400876214728
 20
118.47426050109789
 10
39.40926403878257
 20
107.08987089060247
  0
LWPOLYLINE
  5
76
330
17
100
AcDbEntity
  8
0
 62
0
100
AcDbPolyline
 90
7
 70
0
 10
54.89720802102238
 20
128.96822269726545
 10
61.84815807500854
 20
117.73228711914271
 10
75.2436610092409
 20
124.73222656920552
 10
77.60749924788252
 20
131.92683568643406
 10
69.85611963132396
 20
137.2831421950832
 10
56.51459819683805
 20
136.40652292221785
 10
54.89720802102238
 20
128.96822269726545
  0
LWPOLYLINE
  5
77
330
17
100
AcDbEntity
  8
0
 62
0
100
AcDbPolyline
 90
8
 70
0
 10
31.88105044607073
 20
143.37364656897262
 10
31.532651835586876
 20
143.21206059120595
 10
30.716392409056425
 20
129.44001464219764
 10
36.50092636561021
 20
125.62698868988082
 10
47.14292539237067
 20
130.95798385282978
 10
48.909858332481235
 20
139.08402411360294
 10
48.7883761273697
 20
139.22307517984882
 10
31.88105044607073
 20
143.37364656897262
  0
LWPOLYLINE
  5
78
330
17
100
AcDbEntity
  8
0
 62
0
100
AcDbPolyline
 90
5
 70
0
 10
55.253780965227634
 20
144.34093011030927
 10
67.5206517917104
 20
145.14693828858435
 10
69.99916085461155
 20
161.19041837751865
 10
58.37907869555056
 20
164.57109697535634
 10
55.253780965227634
 20
144.34093011030927
  0
LWPOLYLINE
  5
79
330
17
100
AcDbEntity
  8
0
 62
0
100
AcDbPolyline
 90
5
 70
0
 10
50.28317053383216
 20
164.5645842431113
 10
38.657550232019275
 20
167.90941424202174
 10
35.98407798493281
 20
150.6039303089492
 10
47.682759245391935
 20
147.7320265765302
 10
50.28317053383216
 20
164.5645842431113
  0
LWPOLYLINE
  5
7A
330
17
100
AcDbEntity
  8
0
 62
0
100
AcDbPolyline
 90
6
 70
0
 10
62.30009070690721
 20
171.76203509280458
 10
70.73281536856666
 20
169.30866760388017
 10
75.73426733305678
 20
180.07648056419566
 10
70.74675444932655
 20
184.34388931188732
 10
64.21389022795483
 20
182.0370115377009
 10
62.30009070690721
 20
171.76203509280458
  0
LWPOLYLINE
  5
7B
330
17
100
AcDbEntity
  8
0
 62
0
100
AcDbPolyline
 90
7
 70
0
 10
37.14594478951767
 20
177.34671684494242
 10
37.793740602210164
 20
176.48247279971838
 10
54.16444071941078
 20
171.7724265884608
 10
56.349149502348155
 20
183.50188468024135
 10
48.85934656392783
 20
189.91029931930825
 10
37.04071346670389
 20
180.60417491337284
 10
37.14594478951767
 20
177.34671684494242
  0
LWPOLYLINE
  5
7C
330
17
100
AcDbEntity
  8
0
 62
0
100
AcDbPolyline
 90
7
 70
0
 10
53.157217752188444
 20
196.76165130268782
 10
61.55013721995056
 20
189.580513370689
 10
68.08300144132227
 20
191.88739114487544
 10
69.35161879612133
 20
198.69845640752465
 10
64.08737192954868
 20
203.20264389552176
 10
53.43123331107199
 20
199.4397600358352
 10
53.157217752188444
 20
196.76165130268782
  0
LWPOLYLINE
  5
7D
330
17
100
AcDbEntity
  8
0
 62
0
100
AcDbPolyline
 90
7
 70
0
 10
29.85151519579813
 20
202.94274983322248
 10
29.27791415154934
 20
191.97096394188702
 10
33.31932577956468
 20
187.85630178637803
 10
45.15807883720845
 20
197.17826887546107
 10
45.56639088969678
 20
201.16893304744735
 10
40.083462418057024
 20
208.1578344036825
 10
29.85151519579813
 20
202.94274983322248
  0
LWPOLYLINE
  5
7E
330
17
100
AcDbEntity
  8
0
 62
0
100
AcDbPolyline
 90
7
 70
0
 10
45.45501279924065
 20
217.4504667739384
 10
45.28118546679616
 20
214.49339529778808
 10
51.08505368186161
 20
207.09540302865207
 10
61.423618922010064
 20
210.74614572897553
 10
62.692236276809126
 20
217.55721099162474
 10
53.42003177339211
 20
225.4906815472059
 10
45.45501279924065
 20
217.4504667739384
  0
LWPOLYLINE
  5
7F
330
17
100
AcDbEntity
  8
0
 62
0
100
AcDbPolyline
 90
7
 70
0
 10
20.769428100902587
 20
220.76171989319846
 10
20.40771808149293
 20
213.84296524710953
 10
26.218680358026177
 20
210.0703378575854
 10
37.340598141308874
 20
215.73902833927423
 10
37.42088027950376
 20
217.10475153522566
 10
26.942100397776812
 20
223.90784715116024
 10
20.769428100902587
 20
220.76171989319846
  0
LWPOLYLINE
  5
80
330
17
100
AcDbEntity
  8
0
 62
0
100
AcDbPolyline
 90
7
 70
0
 10
57.3958309548907
 20
232.65519690141082
 10
57.392219653818756
 20
232.6206942233257
 10
67.89322399441153
 20
223.6358396820724
 10
74.42608821578324
 20
225.94271745625883
 10
75.6947055705823
 20
232.75378271890804
 10
70.43045870400965
 20
237.25797020690516
 10
57.3958309548907
 20
232.65519690141082
  0
LWPOLYLINE
  5
81
330
17
100
AcDbEntity
  8
0
 62
0
100
AcDbPolyline
 90
7
 70
0
 10
31.660065295174718
 20
237.53652306692675
 10
31.2983552752994
 20
230.61776842083782
 10
40.99914080509916
 20
224.31976691167802
 10
49.36341329663992
 20
232.76300445757806
 10
49.55979683669284
 20
234.6392696290277
 10
43.89049094822258
 20
243.77020495804027
 10
31.660065295174718
 20
237.53652306692675
  0
LWPOLYLINE
  5
82
330
17
100
AcDbEntity
  8
0
 62
0
100
AcDbPolyline
 90
7
 70
0
 10
49.478581722360104
 20
250.80349086411297
 10
49.426316774915904
 20
250.02053970564157
 10
55.382086066529155
 20
240.42822888167575
 10
67.76670569600537
 20
244.80147204035893
 10
69.67401808593422
 20
255.04161979816854
 10
56.46143110329285
 20
259.3150277878158
 10
49.478581722360104
 20
250.80349086411297
  0
LWPOLYLINE
  5
83
330
17
100
AcDbEntity
  8
0
 62
0
100
AcDbPolyline
 90
6
 70
0
 10
28.027230457402766
 20
244.66411109128967
 10
40.37257505021989
 20
250.95636560581625
 10
28.7506504971534
 20
258.50162038439885
 10
22.577978200279176
 20
255.35549312690273
 10
22.21626818086952
 20
248.4367384808138
 10
28.027230457402766
 20
244.66411109128967
  0
LWPOLYLINE
  5
84
330
17
100
AcDbEntity
  8
0
 62
0
100
AcDbPolyline
 90
7
 70
0
 10
33.403174792416394
 20
270.8785547213629
 10
33.10690537467599
 20
265.2115416540764
 10
44.74987397668883
 20
257.65262453304604
 10
50.9478537873365
 20
265.2074679979123
 10
50.64528742618859
 20
268.1323415939696
 10
41.69616303872317
 20
273.9423451991752
 10
33.403174792416394
 20
270.8785547213629
  0
LWPOLYLINE
  5
85
330
17
100
AcDbEntity
  8
0
 62
0
100
AcDbPolyline
 90
7
 70
0
 10
58.55930076679215
 20
269.37624731240794
 10
58.80885628890246
 20
266.96382328961045
 10
73.95539767621085
 20
262.064907500986
 10
79.51102679502219
 20
264.7466858262196
 10
71.18187724100426
 20
282.37033102521673
 10
67.25996025232598
 20
281.83151411032304
 10
58.55930076679215
 20
269.37624731240794
  0
LWPOLYLINE
  5
86
330
17
100
AcDbEntity
  8
0
 62
0
100
AcDbPolyline
 90
6
 70
0
 10
53.36238117981702
 20
275.90644876891747
 10
59.80387624632567
 20
285.12765088211745
 10
52.18866381468251
 20
292.90470448182896
 10
45.53212107345462
 20
289.38562849350274
 10
46.06222171289846
 20
280.6459015896544
 10
53.36238117981702
 20
275.90644876891747
  0
LWPOLYLINE
  5
87
330
17
100
AcDbEntity
  8
0
 62
0
100
AcDbPolyline
 90
7
 70
0
 10
27.697735462803394
 20
287.22291453229263
 10
27.414469830226153
 20
281.3163579716347
 10
30.511428400408477
 20
278.3387149856426
 10
38.019223196431994
 20
281.11242085834965
 10
37.544125725049525
 20
288.94531492330134
 10
32.47088213637471
 20
290.9764318424277
 10
27.697735462803394
 20
287.22291453229263
  0
LWPOLYLINE
  5
88
330
17
100
AcDbEntity
  8
0
 62
0
100
AcDbPolyline
 90
7
 70
0
 10
57.76222401484847
 20
306.21760385343805
 10
57.11399463377893
 20
299.3092607683502
 10
66.43227202259004
 20
289.79294807696715
 10
70.9381937882863
 20
290.4119991357438
 10
71.55445989780128
 20
304.8972215363756
 10
60.18276457116008
 20
308.2323726997711
 10
57.76222401484847
 20
306.21760385343805
  0
LWPOLYLINE
  5
89
330
17
100
AcDbEntity
  8
0
 62
0
100
AcDbPolyline
 90
7
 70
0
 10
35.44430361548439
 20
298.40332653047517
 10
41.1509633208625
 20
296.1186159946956
 10
49.17763788672164
 20
300.3620316577144
 10
49.67223216127604
 20
305.6330468794331
 10
39.90443583438173
 20
309.5436685620807
 10
34.458429989404976
 20
305.2610268150456
 10
35.44430361548439
 20
298.40332653047517
  0
LWPOLYLINE
  5
8A
330
17
100
AcDbEntity
  8
0
 62
0
100
AcDbPolyline
 90
7
 70
0
 10
21.13355938810855
 20
320.2647730372846
 10
21.32803331175819
 20
314.8265594500117
 10
29.51326125813648
 20
311.54953269660473
 10
34.959267103578895
 20
315.8321744436398
 10
33.973393477033824
 20
322.68987472821027
 10
27.808614464476705
 20
325.1579972882755
 10
21.13355938810855
 20
320.2647730372846
  0
LWPOLYLINE
  5
8B
330
17
100
AcDbEntity
  8
0
 62
0
100
AcDbPolyline
 90
6
 70
0
 10
63.49039244558662
 20
315.599262398202
 10
74.99495220230892
 20
312.2251440496184
 10
76.48047934379429
 20
313.2370492615737
 10
76.52129230555147
 20
329.87768894201145
 10
64.58356928965077
 20
330.35832820646465
 10
63.49039244558662
 20
315.599262398202
  0
LWPOLYLINE
  5
8C
330
17
100
AcDbEntity
  8
0
 62
0
100
AcDbPolyline
 90
7
 70
0
 10
42.877857313957065
 20
316.97056325059384
 10
53.20740500977263
 20
312.83503955136985
 10
55.39884286234155
 20
314.6591117414646
 10
56.53304593311623
 20
329.97207583347335
 10
51.49981626495719
 20
331.38369150739163
 10
41.891983687411994
 20
323.8282635351643
 10
42.877857313957065
 20
316.97056325059384
  0
LWPOLYLINE
  5
8D
330
17
100
AcDbEntity
  8
0
 62
0
100
AcDbPolyline
 90
7
 70
0
 10
29.928903370629996
 20
339.3915256247856
 10
30.87751387199387
 20
332.5466665630229
 10
36.94681495660916
 20
330.11676941625774
 10
45.353539363481104
 20
336.72766737127677
 10
39.79117141710594
 20
345.80122995376587
 10
38.96223181905225
 20
345.96454819338396
 10
29.928903370629996
 20
339.3915256247856
  0
LWPOLYLINE
  5
8E
330
17
100
AcDbEntity
  8
0
 62
0
100
AcDbPolyline
 90
6
 70
0
 10
53.2144707092084
 20
339.2114753597416
 10
59.7848315234296
 20
337.3687570816837
 10
60.53002179693431
 20
352.41045583738014
 10
52.738987267483026
 20
354.83524259133264
 10
47.274675865191966
 20
348.9007121673785
 10
53.2144707092084
 20
339.2114753597416
  0
LWPOLYLINE
  5
8F
330
17
100
AcDbEntity
  8
0
 62
0
100
AcDbPolyline
 90
7
 70
0
 10
40.425082528498024
 20
353.83012672746554
 10
40.859899254050106
 20
353.7444588425569
 10
47.374613957013935
 20
360.81978265894577
 10
46.37645779829472
 20
372.42838166840374
 10
35.20933192735538
 20
373.9617021465674
 10
32.65068451175466
 20
365.4728301395662
 10
40.425082528498024
 20
353.83012672746554
  0
LWPOLYLINE
  5
90
330
17
100
AcDbEntity
  8
0
 62
0
100
AcDbPolyline
 90
7
 70
0
 10
54.281624152325094
 20
373.8746044947766
 10
55.26591234980151
 20
362.4272904684767
 10
63.99603763362393
 20
359.71023253910244
 10
67.34294747747481
 20
362.04632380930707
 10
66.74942144285887
 20
368.94905709754676
 10
55.10977492108941
 20
374.3978880587965
 10
54.281624152325094
 20
373.8746044947766
  0
LWPOLYLINE
  5
91
330
17
100
AcDbEntity
  8
0
 62
0
100
AcDbPolyline
 90
7
 70
0
 10
61.24835572997108
 20
386.3404292217456
 10
59.65768248215318
 20
381.1020742165856
 10
70.1411903295666
 20
376.1944628013298
 10
75.82236969517544
 20
380.159838069696
 10
75.22884366009384
 20
387.06257135793567
 10
69.29440407874063
 20
389.8406418147497
 10
61.24835572997108
 20
386.3404292217456
  0
LWPOLYLINE
  5
92
330
17
100
AcDbEntity
  8
0
 62
0
100
AcDbPolyline
 90
8
 70
0
 10
34.39871984999627
 20
382.44262308673933
 10
34.62951611727476
 20
382.11637502443045
 10
49.18550081551075
 20
380.117741744034
 10
51.42843652470037
 20
381.53498536301777
 10
53.56922771735117
 20
388.5849714470096
 10
47.85696351295337
 20
396.8458384424448
 10
40.95169465010986
 20
396.2825783537701
 10
34.39871984999627
 20
382.44262308673933
  0
LWPOLYLINE
  5
93
330
17
100
AcDbEntity
  8
0
 62
0
100
AcDbPolyline
 90
7
 70
0
 10
19.839345887303352
 20
398.42887800978497
 10
25.872792513575405
 20
387.6738582723774
 10
27.714609739836305
 20
387.0200341097079
 10
33.72122742282227
 20
399.7060771016404
 10
29.780795445200056
 20
405.4045853125863
 10
22.875526582356542
 20
404.84132522391155
 10
19.839345887303352
 20
398.42887800978497
  0
LWPOLYLINE
  5
94
330
17
100
AcDbEntity
  8
0
 62
0
100
AcDbPolyline
 90
6
 70
0
 10
54.43703401228413
 20
401.3958573685959
 10
59.377697966527194
 20
394.2508503566496
 10
65.47059033298865
 20
396.9013960240409
 10
65.98447071900591
 20
408.3577049896121
 10
57.401870897971094
 20
407.65762566868216
 10
54.43703401228413
 20
401.3958573685959
  0
LWPOLYLINE
  5
95
330
17
100
AcDbEntity
  8
0
 62
0
100
AcDbPolyline
 90
7
 70
0
 10
36.360865944530815
 20
409.9546042387374
 10
40.301297922153026
 20
404.2560960277915
 10
47.20656678499654
 20
404.8193561164662
 10
50.1714036706835
 20
411.0811244165525
 10
46.23097169306129
 20
416.77963262749836
 10
39.32570283021778
 20
416.21637253882363
 10
36.360865944530815
 20
409.9546042387374
  0
LWPOLYLINE
  5
96
330
17
100
AcDbEntity
  8
0
 62
0
100
AcDbPolyline
 90
7
 70
0
 10
89.55949786677957
 20
18.625661885365844
 10
105.46915512997657
 20
11.12524428917095
 10
109.23223891295493
 20
13.350158360786736
 10
109.13283158931881
 20
20.684681402519345
 10
100.38906020158902
 20
28.230939427856356
 10
91.13112449785694
 20
23.39793484751135
 10
89.55949786677957
 20
18.625661885365844
  0
LWPOLYLINE
  5
97
330
17
100
AcDbEntity
  8
0
 62
0
100
AcDbPolyline
 90
6
 70
0
 10
105.38058432377875
 20
34.49044077517465
 10
112.8517742715776
 20
28.042476321104914
 10
117.13552223425359
 20
32.498185897246
 10
115.84529315121472
 20
39.76880912296474
 10
106.72770261159167
 20
40.40083200391382
 10
105.38058432377875
 20
34.49044077517465
  0
LWPOLYLINE
  5
98
330
17
100
AcDbEntity
  8
0
 62
0
100
AcDbPolyline
 90
7
 70
0
 10
83.08680536597967
 20
43.45082484418526
 10
89.48908253433183
 20
31.565224128309637
 10
97.45672240806744
 20
35.7246438129805
 10
99.31926381168887
 20
43.89641942502931
 10
98.87324086809531
 20
44.60229288646951
 10
84.24462339049205
 20
46.650318603497
 10
83.08680536597967
 20
43.45082484418526
  0
LWPOLYLINE
  5
99
330
17
100
AcDbEntity
  8
0
 62
0
100
AcDbPolyline
 90
8
 70
0
 10
108.79944582143798
 20
58.385839748196304
 10
105.65429167728871
 20
48.847112137358636
 10
105.88734560739249
 20
48.47828226676211
 10
117.69406189862639
 20
47.659851694945246
 10
121.95056891161948
 20
51.92857740446925
 10
121.4716565022245
 20
57.01393720833585
 10
117.16139629529789
 20
60.125331284012645
 10
108.79944582143798
 20
58.385839748196304
  0
LWPOLYLINE
  5
9A
330
17
100
AcDbEntity
  8
0
 62
0
100
AcDbPolyline
 90
7
 70
0
 10
84.36019676038995
 20
54.954789728391916
 10
84.46049334760755
 20
54.69811754580587
 10
98.51124753570184
 20
52.73099345061928
 10
101.20179441990331
 20
60.89097311254591
 10
97.17217434337363
 20
65.4055691473186
 10
87.79749402869493
 20
63.419013048987836
 10
84.36019676038995
 20
54.954789728391916
  0
LWPOLYLINE
  5
9B
330
17
100
AcDbEntity
  8
0
 62
0
100
AcDbPolyline
 90
6
 70
0
 10
77.75287089496851
 20
59.946629548911005
 10
80.48518675239757
 20
66.67486100411043
 10
76.59030348435044
 20
74.0805567544885
 10
69.66748320497572
 20
74.35361238289624
 10
63.51799542363733
 20
64.61055652843788
 10
77.75287089496851
 20
59.946629548911005
  0
LWPOLYLINE
  5
9C
330
17
100
AcDbEntity
  8
0
 62
0
100
AcDbPolyline
 90
6
 70
0
 10
103.01001878315583
 20
70.87895686319098
 10
107.17012925399467
 20
66.21816555317491
 10
114.1545562967658
 20
67.67109830630943
 10
114.41243405267596
 20
77.84729361813515
 10
105.92020156839862
 20
82.4043444651179
 10
103.01001878315583
 20
70.87895686319098
  0
LWPOLYLINE
  5
9D
330
17
100
AcDbEntity
  8
0
 62
0
100
AcDbPolyline
 90
6
 70
0
 10
83.67077250499278
 20
77.80439327843487
 10
87.02203488815576
 20
71.43233335250989
 10
95.34393732482567
 20
73.19579893024638
 10
97.88226820295677
 20
83.24851705599576
 10
87.36865575518459
 20
83.66320369206369
 10
83.67077250499278
 20
77.80439327843487
  0
LWPOLYLINE
  5
9E
330
17
100
AcDbEntity
  8
0
 62
0
100
AcDbPolyline
 90
7
 70
0
 10
69.98278068611398
 20
82.34739668667316
 10
76.9056009654887
 20
82.07434105826542
 10
80.60348421661183
 20
87.9331514723599
 10
77.37854718742892
 20
94.06501751439646
 10
70.4557269080542
 20
94.3380731428042
 10
66.75784365693107
 20
88.47926272870973
 10
69.98278068611398
 20
82.34739668667316
  0
LWPOLYLINE
  5
9F
330
17
100
AcDbEntity
  8
0
 62
0
100
AcDbPolyline
 90
7
 70
0
 10
84.45901620713994
 20
97.78885403787717
 10
87.68395323632285
 20
91.65698799584061
 10
100.70296792080626
 20
91.1434812033549
 10
100.9247645935975
 20
92.26089350320399
 10
95.07971973763779
 20
103.3746088235639
 10
88.15689945826307
 20
103.64766445197165
 10
84.45901620713994
 20
97.78885403787717
  0
LWPOLYLINE
  5
A0
330
17
100
AcDbEntity
  8
0
 62
0
100
AcDbPolyline
 90
6
 70
0
 10
102.1601887573488
 20
107.09844534704462
 10
106.54269621195272
 20
98.7655853885226
 10
113.32157435594127
 20
103.54624785250053
 10
113.24172849021852
 20
114.635930032935
 10
107.13848270848393
 20
114.98589837504551
 10
102.1601887573488
 20
107.09844534704462
  0
LWPOLYLINE
  5
A1
330
17
100
AcDbEntity
  8
0
 62
0
100
AcDbPolyline
 90
6
 70
0
 10
77.69384466810152
 20
102.05880181817338
 10
81.39172791875899
 20
107.9176122318022
 10
76.85330195445567
 20
116.5469342325814
 10
66.21782439993694
 20
110.9892706447281
 10
70.77102438919246
 20
102.33185744658113
 10
77.69384466810152
 20
102.05880181817338
  0
LWPOLYLINE
  5
A2
330
17
100
AcDbEntity
  8
0
 62
0
100
AcDbPolyline
 90
7
 70
0
 10
82.86575780948624
 20
122.3014813112095
 10
88.47219693940133
 20
111.64144875574857
 10
95.39501721877605
 20
111.36839312734082
 10
100.18061083136126
 20
118.95053777424619
 10
90.88624998601153
 20
131.6779030249454
 10
85.46671225316823
 20
130.21778042661026
 10
82.86575780948624
 20
122.3014813112095
  0
LWPOLYLINE
  5
A3
330
17
100
AcDbEntity
  8
0
 62
0
100
AcDbPolyline
 90
7
 70
0
 10
98.92378250136971
 20
134.23662713170052
 10
107.12984782271087
 20
122.99953483883291
 10
116.16653762571514
 20
122.48135886155069
 10
117.25551270786673
 20
123.16675326181576
 10
118.72882183548063
 20
128.98772376216948
 10
110.50933309504762
 20
137.56982705788687
 10
98.92378250136971
 20
134.23662713170052
  0
LWPOLYLINE
  5
A4
330
17
100
AcDbEntity
  8
0
 62
0
100
AcDbPolyline
 90
6
 70
0
 10
83.08983297739178
 20
137.8626647396013
 10
88.96191320661455
 20
139.44471056433395
 10
90.0419821771793
 20
156.4860985968262
 10
77.61180631397292
 20
158.068753907457
 10
75.31970899226144
 20
143.23192385630682
 10
83.08983297739178
 20
137.8626647396013
  0
LWPOLYLINE
  5
A5
330
17
100
AcDbEntity
  8
0
 62
0
100
AcDbPolyline
 90
6
 70
0
 10
98.04159041820094
 20
156.2266548248008
 10
97.14301005052403
 20
142.04880401771516
 10
108.81983016477898
 20
145.4082624767907
 10
111.57656445959583
 20
151.67205444909632
 10
107.48029932007194
 20
157.25959522323683
 10
98.04159041820094
 20
156.2266548248008
  0
LWPOLYLINE
  5
A6
330
17
100
AcDbEntity
  8
0
 62
0
100
AcDbPolyline
 90
6
 70
0
 10
97.62959487736225
 20
176.30097471084446
 10
97.98473462695256
 20
164.2681956337765
 10
106.61000235099345
 20
165.21211577905342
 10
109.40082203643396
 20
171.55335583724082
 10
105.30455689691007
 20
177.14089661184698
 10
97.62959487736225
 20
176.30097471084446
  0
LWPOLYLINE
  5
A7
330
17
100
AcDbEntity
  8
0
 62
0
100
AcDbPolyline
 90
6
 70
0
 10
89.97265302808955
 20
164.55951038235798
 10
89.58103370293975
 20
177.82828368525952
 10
89.20550980512053
 20
178.10917654586956
 10
83.32477043569088
 20
177.42759964847937
 10
78.05271762935445
 20
166.07720001693815
 10
89.97265302808955
 20
164.55951038235798
  0
LWPOLYLINE
  5
A8
330
17
100
AcDbEntity
  8
0
 62
0
100
AcDbPolyline
 90
6
 70
0
 10
75.94774216692895
 20
190.42251800233498
 10
81.91403443785384
 20
185.31764741428196
 10
86.71416756790131
 20
185.8739821948111
 10
88.47321505052969
 20
201.2085916143842
 10
77.21635952172801
 20
197.2335832649842
 10
75.94774216692895
 20
190.42251800233498
  0
LWPOLYLINE
  5
A9
330
17
100
AcDbEntity
  8
0
 62
0
100
AcDbPolyline
 90
7
 70
0
 10
96.99551549600437
 20
205.30443511344492
 10
94.56229804176837
 20
184.0927056632936
 10
94.65518233273178
 20
184.02322797011584
 10
104.43425992783159
 20
185.09341716766357
 10
109.88301124703139
 20
197.4739519301802
 10
97.48294571461156
 20
205.4598875627853
 10
96.99551549600437
 20
205.30443511344492
  0
LWPOLYLINE
  5
AA
330
17
100
AcDbEntity
  8
0
 62
0
100
AcDbPolyline
 90
6
 70
0
 10
69.28835964761674
 20
209.28127258643508
 10
74.55260651418939
 20
204.77708509843796
 10
87.61833495646715
 20
209.39084064634517
 10
77.08984122332186
 20
218.39921562280506
 10
70.5569770024158
 20
216.0923378490843
 10
69.28835964761674
 20
209.28127258643508
  0
LWPOLYLINE
  5
AB
330
17
100
AcDbEntity
  8
0
 62
0
100
AcDbPolyline
 90
7
 70
0
 10
105.75057463161647
 20
218.25992460688576
 10
103.0056458003819
 20
211.41865454195067
 10
115.97403415851295
 20
203.066705561243
 10
117.25637403130531
 20
203.15172115992755
 10
124.44203939894214
 20
209.3473789608106
 10
119.50349662220106
 20
223.97966353502125
 10
105.75057463161647
 20
218.25992460688576
  0
LWPOLYLINE
  5
AC
330
17
100
AcDbEntity
  8
0
 62
0
100
AcDbPolyline
 90
6
 70
0
 10
82.29082894138992
 20
224.47784431371838
 10
95.19534295424819
 20
213.43650221265852
 10
98.33868989581242
 20
221.27076191734523
 10
92.74831513734534
 20
234.5336727583781
 10
83.55944629618898
 20
231.2889095763676
 10
82.29082894138992
 20
224.47784431371838
  0
LWPOLYLINE
  5
AD
330
17
100
AcDbEntity
  8
0
 62
0
100
AcDbPolyline
 90
6
 70
0
 10
99.29757552454248
 20
239.59261210402474
 10
104.80340158334002
 20
226.53028922248632
 10
117.74523255461827
 20
231.91270137159154
 10
106.98058969154954
 20
247.90369597775862
 10
102.4258266305551
 20
247.3345214528963
 10
99.29757552454248
 20
239.59261210402474
  0
LWPOLYLINE
  5
AE
330
17
100
AcDbEntity
  8
0
 62
0
100
AcDbPolyline
 90
8
 70
0
 10
77.81189897703007
 20
255.04320577764884
 10
75.63144642161205
 20
243.33659889781848
 10
80.8956932881847
 20
238.83241140982136
 10
91.93748731957749
 20
242.73147748131305
 10
94.8735493212007
 20
249.99775026226416
 10
85.83650493063033
 20
258.6513925245963
 10
85.4253314291127
 20
258.71831397758797
 10
77.81189897703007
 20
255.04320577764884
  0
LWPOLYLINE
  5
AF
330
17
100
AcDbEntity
  8
0
 62
0
100
AcDbPolyline
 90
7
 70
0
 10
101.24568302696571
 20
274.92567397654057
 10
92.93710294552147
 20
262.92835507076234
 10
100.98980561923236
 20
255.21729322662577
 10
107.15196693036705
 20
255.9873322355561
 10
113.88557551242411
 20
262.22276431228966
 10
108.15054963203147
 20
274.3575039594434
 10
101.24568302696571
 20
274.92567397654057
  0
LWPOLYLINE
  5
B0
330
17
100
AcDbEntity
  8
0
 62
0
100
AcDbPolyline
 90
5
 70
0
 10
86.77988359285519
 20
268.08896082499996
 10
94.66884953482077
 20
279.48037058720365
 10
91.36710913060233
 20
286.4665221804753
 10
78.93461308907717
 20
284.68876647856086
 10
86.77988359285519
 20
268.08896082499996
  0
LWPOLYLINE
  5
B1
330
17
100
AcDbEntity
  8
0
 62
0
100
AcDbPolyline
 90
6
 70
0
 10
108.80661585740745
 20
282.330557145644
 10
112.7912969160825
 20
288.08430675556883
 10
102.54843723634258
 20
299.06270209280774
 10
98.19046538323164
 20
290.75143165746704
 10
101.90174925234169
 20
282.8987271627411
 10
108.80661585740745
 20
282.330557145644
  0
LWPOLYLINE
  5
B2
330
17
100
AcDbEntity
  8
0
 62
0
100
AcDbPolyline
 90
6
 70
0
 10
79.59495206875727
 20
305.678881672211
 10
79.04643679084256
 20
292.78613019688055
 10
91.13031732011586
 20
294.5140364388935
 10
95.80357269197702
 20
303.42659726180136
 10
81.2752590267919
 20
306.8234661910683
 10
79.59495206875727
 20
305.678881672211
  0
LWPOLYLINE
  5
B3
330
17
100
AcDbEntity
  8
0
 62
0
100
AcDbPolyline
 90
6
 70
0
 10
103.8198232180439
 20
322.1659080311656
 10
103.03229274088517
 20
308.33189936587587
 10
115.4066609190777
 20
314.56688229879364
 10
115.80042615765706
 20
321.48388663167134
 10
110.00700730737299
 20
325.2833994976245
 10
103.8198232180439
 20
322.1659080311656
  0
LWPOLYLINE
  5
B4
330
17
100
AcDbEntity
  8
0
 62
0
100
AcDbPolyline
 90
5
 70
0
 10
95.83275459101424
 20
322.62058896385133
 10
84.52171136112884
 20
330.0387396942824
 10
84.48308392614126
 20
314.2892032470554
 10
95.21562100760639
 20
311.7798258624971
 10
95.83275459101424
 20
322.62058896385133
  0
LWPOLYLINE
  5
B5
330
17
100
AcDbEntity
  8
0
 62
0
100
AcDbPolyline
 90
6
 70
0
 10
88.63321644160897
 20
336.90927856229246
 10
100.22005414310843
 20
329.31025283038616
 10
106.40723823243752
 20
332.42774429684505
 10
106.80100347101688
 20
339.3447486292571
 10
101.00758462026715
 20
343.14426149521023
 10
88.63321644160897
 20
336.90927856229246
  0
LWPOLYLINE
  5
B6
330
17
100
AcDbEntity
  8
0
 62
0
100
AcDbPolyline
 90
8
 70
0
 10
71.92176843434572
 20
355.48626293754205
 10
68.57653807615861
 20
353.1513439225964
 10
67.837498602923
 20
338.23379933973774
 10
79.51508886413649
 20
337.7636335985735
 10
80.37692896602675
 20
338.27131377207115
 10
81.15646522026509
 20
340.04400200676173
 10
77.4519520662725
 20
352.8974355417304
 10
71.92176843434572
 20
355.48626293754205
  0
LWPOLYLINE
  5
B7
330
17
100
AcDbEntity
  8
0
 62
0
100
AcDbPolyline
 90
6
 70
0
 10
87.9089090549387
 20
345.5024613374844
 10
97.40781554533169
 20
350.2886062944308
 10
97.80158078391105
 20
357.2056106268428
 10
92.70136483339593
 20
360.5504984422587
 10
85.35512714786455
 20
354.3632386219688
 10
87.9089090549387
 20
345.5024613374844
  0
LWPOLYLINE
  5
B8
330
17
100
AcDbEntity
  8
0
 62
0
100
AcDbPolyline
 90
6
 70
0
 10
105.39488417236134
 20
349.8339253612794
 10
111.18830302264541
 20
346.03441249532625
 10
117.37548711197451
 20
349.15190396178514
 10
118.16301758913323
 20
362.98591262707487
 10
105.7886494109407
 20
356.7509296941571
 10
105.39488417236134
 20
349.8339253612794
  0
LWPOLYLINE
  5
B9
330
17
100
AcDbEntity
  8
0
 62
0
100
AcDbPolyline
 90
7
 70
0
 10
74.72001128643751
 20
369.6344019295648
 10
75.31353732105345
 20
362.7316686413251
 10
80.17204987676814
 20
360.45726850489154
 10
88.03581060888246
 20
367.0804044418037
 10
87.41932477103546
 20
370.31440024031326
 10
80.40119065204635
 20
373.59977719793096
 10
74.72001128643751
 20
369.6344019295648
  0
LWPOLYLINE
  5
BA
330
17
100
AcDbEntity
  8
0
 62
0
100
AcDbPolyline
 90
6
 70
0
 10
102.18888033600524
 20
363.89527449337766
 10
116.88454900495708
 20
371.299874228891
 10
101.65217397687957
 20
377.59771497780457
 10
95.30756340269
 20
371.65638690581545
 10
96.01521135913208
 20
367.94416778255254
 10
102.18888033600524
 20
363.89527449337766
  0
LWPOLYLINE
  5
BB
330
17
100
AcDbEntity
  8
0
 62
0
100
AcDbPolyline
 90
7
 70
0
 10
83.19943350367248
 20
387.7479161899537
 10
83.79295953875408
 20
380.845182901714
 10
90.20879854215309
 20
377.8417564542033
 10
96.42326671257615
 20
383.66121436515823
 10
95.37475410336629
 20
388.6732096346095
 10
88.88061286974698
 20
391.7132914583199
 10
83.19943350367248
 20
387.7479161899537
  0
LWPOLYLINE
  5
BC
330
17
100
AcDbEntity
  8
0
 62
0
100
AcDbPolyline
 90
6
 70
0
 10
104.28133809147403
 20
385.1674893242307
 10
118.42732174089178
 20
379.3188181812875
 10
119.41317158890888
 20
396.1876241960563
 10
113.81199927255511
 20
399.3257661056705
 10
103.2716934508644
 20
389.9936918108724
 10
104.28133809147403
 20
385.1674893242307
  0
LWPOLYLINE
  5
BD
330
17
100
AcDbEntity
  8
0
 62
0
100
AcDbPolyline
 90
6
 70
0
 10
78.62061254680157
 20
394.3079770617187
 10
84.30179191287607
 20
398.2733523300849
 10
83.70826587779447
 20
405.1760856183246
 10
74.05255316430703
 20
409.69618391245604
 10
73.47044874448329
 20
396.7189069753513
 10
78.62061254680157
 20
394.3079770617187
  0
LWPOLYLINE
  5
BE
330
17
100
AcDbEntity
  8
0
 62
0
100
AcDbPolyline
 90
6
 70
0
 10
92.2723817564547
 20
398.9586971621029
 10
98.19667197857052
 20
396.18537789257243
 10
107.98596130125225
 20
404.8525244430639
 10
97.36003508698195
 20
409.8268057187088
 10
91.67885572137311
 20
405.8614304503426
 10
92.2723817564547
 20
398.9586971621029
  0
LWPOLYLINE
  5
BF
330
17
100
AcDbEntity
  8
0
 62
0
100
AcDbPolyline
 90
14
 70
0
 10
101.07378663874792
 20
424.613955613387
 10
100.15827793860808
 20
423.97494471026585
 10
100.75180397368968
 20
417.0722114224918
 10
109.51757810590789
 20
412.9687172654085
 10
113.4874727902934
 20
424.36007864633575
 10
110.79590567700109
 20
425.6200734575111
 10
109.94090138644461
 20
425.21568654484196
 10
108.64731881489581
 20
424.75283529974905
 10
107.31459784155913
 20
424.41900607435474
 10
105.9555732979472
 20
424.2174138265892
 10
104.58333333333334
 20
424.15
 10
103.21109336871949
 20
424.2174138265892
 10
101.85206882510755
 20
424.41900607435474
 10
101.07378663874792
 20
424.613955613387
  0
LWPOLYLINE
  5
C0
330
17
100
AcDbEntity
  8
0
 62
0
100
AcDbPolyline
 90
6
 70
0
 10
150.46182314958423
 20
19.577440081629902
 10
163.6850132709369
 20
16.964473298285156
 10
171.8303753263317
 20
22.93674808833748
 10
159.4305128683336
 20
29.620031020138413
 10
148.8433033498004
 20
22.057787174358964
 10
150.46182314958423
 20
19.577440081629902
  0
LWPOLYLINE
  5
C1
330
17
100
AcDbEntity
  8
0
 62
0
100
AcDbPolyline
 90
7
 70
0
 10
142.74068263033405
 20
41.89614426903427
 10
143.4039497342892
 20
28.461355291306973
 10
143.6192938084714
 20
28.15758330281824
 10
155.03113901009783
 20
36.308848845772445
 10
154.72608529916033
 20
42.48785608075559
 10
148.56257147807628
 20
45.651887903455645
 10
142.74068263033405
 20
41.89614426903427
  0
LWPOLYLINE
  5
C2
330
17
100
AcDbEntity
  8
0
 62
0
100
AcDbPolyline
 90
6
 70
0
 10
135.21126649947837
 20
32.16688806889579
 10
134.7504141847603
 20
41.50166972866282
 10
126.87982615735382
 20
45.54202587995678
 10
123.54013498174027
 20
42.19274781225249
 10
124.90416230913252
 20
34.506261051632464
 10
135.21126649947837
 20
32.16688806889579
  0
LWPOLYLINE
  5
C3
330
17
100
AcDbEntity
  8
0
 62
0
100
AcDbPolyline
 90
7
 70
0
 10
129.49412460485473
 20
57.151225729845464
 10
129.8858739482239
 20
52.99141210783273
 10
138.4039234337397
 20
48.618682456202805
 10
144.22581228194758
 20
52.37442609062418
 10
143.8841873081401
 20
59.294201547279954
 10
137.72067348705605
 20
62.45823337044567
 10
129.49412460485473
 20
57.151225729845464
  0
LWPOLYLINE
  5
C4
330
17
100
AcDbEntity
  8
0
 62
0
100
AcDbPolyline
 90
7
 70
0
 10
151.87445575371385
 20
59.68867608811706
 10
152.21608072752133
 20
52.76890063146129
 10
158.37959454860538
 20
49.60486880829558
 10
164.2014833963476
 20
53.360612442716956
 10
163.8598584230058
 20
60.28038789937273
 10
157.69634460192174
 20
63.44441972253844
 10
151.87445575371385
 20
59.68867608811706
  0
LWPOLYLINE
  5
C5
330
17
100
AcDbEntity
  8
0
 62
0
100
AcDbPolyline
 90
7
 70
0
 10
122.12513581896201
 20
66.40877874428406
 10
125.41061026835814
 20
64.03713405271992
 10
133.38391429092735
 20
69.18077155761421
 10
133.04228931711987
 20
76.10054701426998
 10
126.96297399746254
 20
79.22135564591736
 10
122.40483448747545
 20
77.44605594687164
 10
122.12513581896201
 20
66.40877874428406
  0
LWPOLYLINE
  5
C6
330
17
100
AcDbEntity
  8
0
 62
0
100
AcDbPolyline
 90
7
 70
0
 10
141.0325577626936
 20
76.49502155464143
 10
141.3741827365011
 20
69.57524609845132
 10
147.53769655758515
 20
66.4112142752856
 10
153.35958540579304
 20
70.16695790970698
 10
153.01796043198556
 20
77.08673336636275
 10
146.85444661136717
 20
80.25076518952847
 10
141.0325577626936
 20
76.49502155464143
  0
LWPOLYLINE
  5
C7
330
17
100
AcDbEntity
  8
0
 62
0
100
AcDbPolyline
 90
7
 70
0
 10
132.39058650890365
 20
94.72055606078357
 10
131.45556016312912
 20
85.90762932738289
 10
136.69579856609926
 20
83.21755974180996
 10
142.5176874147728
 20
86.973303376697
 10
142.17606244096532
 20
93.89307883335277
 10
136.01254861988127
 20
97.05711065651849
 10
132.39058650890365
 20
94.72055606078357
  0
LWPOLYLINE
  5
C8
330
17
100
AcDbEntity
  8
0
 62
0
100
AcDbPolyline
 90
7
 70
0
 10
108.63712200708687
 20
90.02545386692509
 10
118.74007350159809
 20
84.60406864760444
 10
123.46771414251998
 20
86.44538548123091
 10
124.31571003235877
 20
94.43802192853764
 10
117.87902999250218
 20
96.97100417036563
 10
108.7358780046925
 20
90.52298687584698
 10
108.63712200708687
 20
90.02545386692509
  0
LWPOLYLINE
  5
C9
330
17
100
AcDbEntity
  8
0
 62
0
100
AcDbPolyline
 90
7
 70
0
 10
150.16633088653907
 20
94.28755337372422
 10
150.50795586034656
 20
87.36777791706845
 10
156.6714696814306
 20
84.20374609390274
 10
162.49335852917284
 20
87.95948972832412
 10
162.15173355536535
 20
94.87926518497989
 10
155.9882197342813
 20
98.0432970081456
 10
150.16633088653907
 20
94.28755337372422
  0
LWPOLYLINE
  5
CA
330
17
100
AcDbEntity
  8
0
 62
0
100
AcDbPolyline
 90
7
 70
0
 10
139.32443289551884
 20
111.09389884071425
 10
139.66605786932632
 20
104.17412338405848
 10
145.82957168994471
 20
101.01009156089276
 10
151.6514605381526
 20
104.76583519531414
 10
151.30983556434512
 20
111.68561065196991
 10
145.14632174326107
 20
114.84964247513562
 10
139.32443289551884
 20
111.09389884071425
  0
LWPOLYLINE
  5
CB
330
17
100
AcDbEntity
  8
0
 62
0
100
AcDbPolyline
 90
6
 70
0
 10
128.1703719389625
 20
101.5182780502364
 10
131.67578942375258
 20
103.77964884368703
 10
131.3341644499451
 20
110.6994243003428
 10
121.23294344171882
 20
115.88487299857661
 10
121.31696487497538
 20
104.21525199944153
 10
128.1703719389625
 20
101.5182780502364
  0
LWPOLYLINE
  5
CC
330
17
100
AcDbEntity
  8
0
 62
0
100
AcDbPolyline
 90
7
 70
0
 10
126.64068795368075
 20
127.64281119313091
 10
125.39940451830626
 20
122.73856257135049
 10
134.98767369939014
 20
117.81643702788278
 10
140.80956254713237
 20
121.57218066230416
 10
140.58493300667033
 20
126.12215827638283
 10
132.65800378890708
 20
131.51066214405
 10
126.64068795368075
 20
127.64281119313091
  0
LWPOLYLINE
  5
CD
330
17
100
AcDbEntity
  8
0
 62
0
100
AcDbPolyline
 90
7
 70
0
 10
148.57780970679596
 20
126.46380138397217
 10
148.79983099270612
 20
121.96665520267561
 10
154.96334481379017
 20
118.80262337997556
 10
160.78523366199806
 20
122.55836701439694
 10
160.16536468826234
 20
135.11410633148625
 10
159.47086946945637
 20
135.17578397179022
 10
148.57780970679596
 20
126.46380138397217
  0
LWPOLYLINE
  5
CE
330
17
100
AcDbEntity
  8
0
 62
0
100
AcDbPolyline
 90
6
 70
0
 10
144.28899870300665
 20
133.27759106038138
 10
152.01866986090317
 20
139.45957867521793
 10
146.73275171592832
 20
144.14583113742992
 10
137.7562264194712
 20
141.2913643536158
 10
137.14641557633877
 20
138.13291848264635
 10
144.28899870300665
 20
133.27759106038138
  0
LWPOLYLINE
  5
CF
330
17
100
AcDbEntity
  8
0
 62
0
100
AcDbPolyline
 90
7
 70
0
 10
118.89879776909947
 20
148.44949345523492
 10
116.46436916012317
 20
142.91803748346865
 10
123.75955179100856
 20
135.3010173891671
 10
129.11676285183057
 20
138.74456173041835
 10
130.02073933649808
 20
143.42660506395623
 10
125.78588259452954
 20
149.2031927392818
 10
118.89879776909947
 20
148.44949345523492
  0
LWPOLYLINE
  5
D0
330
17
100
AcDbEntity
  8
0
 62
0
100
AcDbPolyline
 90
7
 70
0
 10
151.826858505141
 20
150.32086942531168
 10
159.89302163664252
 20
143.16977934073657
 10
162.95279531367123
 20
142.89804295497015
 10
163.90147049026564
 20
143.52320138644427
 10
161.75663681374863
 20
159.6752862231806
 10
152.49356523808092
 20
158.97583248605952
 10
151.826858505141
 20
150.32086942531168
  0
LWPOLYLINE
  5
D1
330
17
100
AcDbEntity
  8
0
 62
0
100
AcDbPolyline
 90
7
 70
0
 10
132.23781893542036
 20
153.93315230170265
 10
135.8060019686818
 20
149.06594583159313
 10
143.9048751052469
 20
151.6413259031251
 10
144.62812711531296
 20
161.0303407749161
 10
144.33211879013106
 20
161.29253378277645
 10
135.02863862086087
 20
160.27439235989004
 10
132.23781893542036
 20
153.93315230170265
  0
LWPOLYLINE
  5
D2
330
17
100
AcDbEntity
  8
0
 62
0
100
AcDbPolyline
 90
7
 70
0
 10
116.72305534640327
 20
168.33079484384507
 10
113.9322356604971
 20
161.989554785192
 10
118.02850080002099
 20
156.4020140110515
 10
124.91558562545106
 20
157.1557132950984
 10
127.70640531089157
 20
163.4969533532858
 10
123.61014017136768
 20
169.08449412789196
 10
116.72305534640327
 20
168.33079484384507
  0
LWPOLYLINE
  5
D3
330
17
100
AcDbEntity
  8
0
 62
0
100
AcDbPolyline
 90
6
 70
0
 10
149.78774321172386
 20
167.14718578662723
 10
150.15485579706728
 20
166.82201130781323
 10
160.74127193214372
 20
167.62139067891985
 10
159.15614833543077
 20
179.535859989468
 10
150.62080064229667
 20
178.89135662000626
 10
149.78774321172386
 20
167.14718578662723
  0
LWPOLYLINE
  5
D4
330
17
100
AcDbEntity
  8
0
 62
0
100
AcDbPolyline
 90
7
 70
0
 10
132.852896197699
 20
180.15569374896586
 10
130.0620765122585
 20
173.8144536903128
 10
134.1583416517824
 20
168.22691291570663
 10
141.90436151158065
 20
169.07461114693433
 10
142.74879921926185
 20
180.97921739891171
 10
142.49646995170042
 20
181.21105386409909
 10
132.852896197699
 20
180.15569374896586
  0
LWPOLYLINE
  5
D5
330
17
100
AcDbEntity
  8
0
 62
0
100
AcDbPolyline
 90
6
 70
0
 10
111.7564932378009
 20
181.87085617426783
 10
115.85275837732479
 20
176.28331539966166
 10
122.7398432022892
 20
177.03701468370855
 10
125.5306628877297
 20
183.3782547423616
 10
117.33813260914758
 20
194.55333629110828
 10
111.7564932378009
 20
181.87085617426783
  0
LWPOLYLINE
  5
D6
330
17
100
AcDbEntity
  8
0
 62
0
100
AcDbPolyline
 90
8
 70
0
 10
164.2098305975087
 20
199.97439952846617
 10
148.7503777332604
 20
198.8070575739257
 10
147.98213628446683
 20
187.03491141507402
 10
148.30399792362005
 20
186.73918961640447
 10
160.81727600004524
 20
187.6840661666356
 10
168.17269988590851
 20
195.20800305670127
 10
166.8510528523475
 20
198.29060379089788
 10
164.2098305975087
 20
199.97439952846617
  0
LWPOLYLINE
  5
D7
330
17
100
AcDbEntity
  8
0
 62
0
100
AcDbPolyline
 90
7
 70
0
 10
130.5945757268928
 20
204.08912260923535
 10
124.26673214416951
 20
198.63309989636764
 10
131.98259922862053
 20
188.10821430478245
 10
140.0930853257887
 20
188.99579848861322
 10
140.87169184349477
 20
200.92677375441417
 10
137.48383143823594
 20
204.15062709804624
 10
130.5945757268928
 20
204.08912260923535
  0
LWPOLYLINE
  5
D8
330
17
100
AcDbEntity
  8
0
 62
0
100
AcDbPolyline
 90
7
 70
0
 10
143.93453087750822
 20
209.05546234594658
 10
146.45548808714375
 20
206.6565452250652
 10
159.8965457365848
 20
207.67147833062336
 10
155.73557854024693
 20
220.7941958475858
 10
151.27609780430794
 20
222.36654999339953
 10
150.1151749077253
 20
221.90834130253643
 10
143.93453087750822
 20
209.05546234594658
  0
LWPOLYLINE
  5
D9
330
17
100
AcDbEntity
  8
0
 62
0
100
AcDbPolyline
 90
6
 70
0
 10
126.44944431912154
 20
228.4163273498416
 10
131.95583038171753
 20
212.10159414168447
 10
136.5421251435764
 20
212.1425387263298
 10
141.9304962460883
 20
223.3478566869162
 10
129.98747707437724
 20
229.79790864279494
 10
126.44944431912154
 20
228.4163273498416
  0
LWPOLYLINE
  5
DA
330
17
100
AcDbEntity
  8
0
 62
0
100
AcDbPolyline
 90
5
 70
0
 10
147.37054283870384
 20
229.50200528930873
 10
148.0748256603256
 20
240.6356780193746
 10
139.84601934812963
 20
244.7023696769029
 10
135.53883515717462
 20
235.89194138348103
 10
147.37054283870384
 20
229.50200528930873
  0
LWPOLYLINE
  5
DB
330
17
100
AcDbEntity
  8
0
 62
0
100
AcDbPolyline
 90
8
 70
0
 10
120.46798166912049
 20
257.4149511405267
 10
114.15620623482391
 20
251.5701434831135
 10
124.47917550429702
 20
236.23525982676074
 10
127.34987774398178
 20
237.35625241929665
 10
133.74319078261033
 20
250.4338974864222
 10
132.58661475032568
 20
254.39668408827856
 10
127.08185680303723
 20
257.9932087408379
 10
120.46798166912049
 20
257.4149511405267
  0
LWPOLYLINE
  5
DC
330
17
100
AcDbEntity
  8
0
 62
0
100
AcDbPolyline
 90
7
 70
0
 10
140.7499464387074
 20
254.98064093664289
 10
141.36430648714304
 20
252.87565371394157
 10
152.13404460577294
 20
247.5532287475653
 10
156.99767861654982
 20
250.23395333997905
 10
157.13520929822698
 20
257.1607913854532
 10
151.20515692327172
 20
260.74331547226757
 10
140.7499464387074
 20
254.98064093664289
  0
LWPOLYLINE
  5
DD
330
17
100
AcDbEntity
  8
0
 62
0
100
AcDbPolyline
 90
6
 70
0
 10
132.81910377321765
 20
263.8009011070244
 10
136.1871085371822
 20
261.60042067151517
 10
147.34347579395398
 20
267.74955689301714
 10
147.48100647563115
 20
274.6763949394226
 10
137.93248242978007
 20
280.4449472599663
 10
132.81910377321765
 20
263.8009011070244
  0
LWPOLYLINE
  5
DE
330
17
100
AcDbEntity
  8
0
 62
0
100
AcDbPolyline
 90
7
 70
0
 10
115.38344934908673
 20
277.7758605349809
 10
121.18146076379344
 20
265.5078498139046
 10
125.07918229419738
 20
265.8486314364709
 10
131.38633749261498
 20
286.37841991335154
 10
131.33090060856193
 20
286.52371565112844
 10
120.22862258180976
 20
284.77213280508295
 10
115.38344934908673
 20
277.7758605349809
  0
LWPOLYLINE
  5
DF
330
17
100
AcDbEntity
  8
0
 62
0
100
AcDbPolyline
 90
8
 70
0
 10
140.6362509126775
 20
297.76600605994463
 10
138.1802758583799
 20
291.01375856949016
 10
138.86053696274757
 20
289.2308474224992
 10
151.61774896737188
 20
281.52382960915565
 10
157.685332023073
 20
284.8681435678154
 10
157.88499680068344
 20
294.92441293317825
 10
144.42234091553837
 20
300.68320513051003
 10
140.6362509126775
 20
297.76600605994463
  0
LWPOLYLINE
  5
E0
330
17
100
AcDbEntity
  8
0
 62
0
100
AcDbPolyline
 90
6
 70
0
 10
109.94826025608927
 20
302.85846336651593
 10
119.38995129056275
 20
292.7387682744302
 10
130.9588249567896
 20
294.56396492477506
 10
132.4330058232881
 20
298.61695155408233
 10
119.00642999401316
 20
307.4225374995731
 10
109.94826025608927
 20
302.85846336651593
  0
LWPOLYLINE
  5
E1
330
17
100
AcDbEntity
  8
0
 62
0
100
AcDbPolyline
 90
7
 70
0
 10
148.36760276788846
 20
307.6967651732266
 10
161.90781653439626
 20
301.90479677915573
 10
166.73142370395362
 20
304.04688841849566
 10
167.82210112037137
 20
313.97172139631584
 10
162.23641131306067
 20
318.0705101657659
 10
149.25201830407605
 20
312.3629971430637
 10
148.36760276788846
 20
307.6967651732266
  0
LWPOLYLINE
  5
E2
330
17
100
AcDbEntity
  8
0
 62
0
100
AcDbPolyline
 90
7
 70
0
 10
123.78749478468671
 20
321.02920569851995
 10
123.39372954610735
 20
314.1122013661079
 10
137.08780066808686
 20
305.13118329038844
 10
140.1922789332457
 20
307.52319750608876
 10
141.5281077120453
 20
314.57111412566155
 10
135.2404047860764
 20
326.799900198821
 10
123.78749478468671
 20
321.02920569851995
  0
LWPOLYLINE
  5
E3
330
17
100
AcDbEntity
  8
0
 62
0
100
AcDbPolyline
 90
7
 70
0
 10
141.34282960323617
 20
333.9273221641779
 10
141.1507689487189
 20
332.8001918415539
 10
147.55037144105881
 20
320.35377528052777
 10
159.0171583048068
 20
325.39419844932854
 10
160.0878924173303
 20
335.13755342178047
 10
147.61232107225806
 20
340.07323146238923
 10
141.34282960323617
 20
333.9273221641779
  0
LWPOLYLINE
  5
E4
330
17
100
AcDbEntity
  8
0
 62
0
100
AcDbPolyline
 90
6
 70
0
 10
120.18772570975125
 20
328.1735504977405
 10
132.5620938888751
 20
334.4085334306583
 10
120.97525618690997
 20
342.0075591625646
 10
114.78807209804654
 20
338.8900676961057
 10
114.39430685946718
 20
331.97306336369365
 10
120.18772570975125
 20
328.1735504977405
  0
LWPOLYLINE
  5
E5
330
17
100
AcDbEntity
  8
0
 62
0
100
AcDbPolyline
 90
6
 70
0
 10
125.36255573900416
 20
348.6972230290994
 10
137.11744454922155
 20
340.9879839043133
 10
142.69884768873453
 20
346.4593682452105
 10
142.80150910792872
 20
351.97619087342173
 10
125.98981181159616
 20
359.7158009689301
 10
125.36255573900416
 20
348.6972230290994
  0
LWPOLYLINE
  5
E6
330
17
100
AcDbEntity
  8
0
 62
0
100
AcDbPolyline
 90
8
 70
0
 10
124.97035860968754
 20
371.71892845258117
 10
124.8023137934506
 20
369.6229045195505
 10
125.20590141275898
 20
368.8837456833571
 10
145.53124562185258
 20
359.52655607508495
 10
149.77313423063606
 20
365.4082032283768
 10
149.50963515788317
 20
368.5414047962986
 10
142.80720142181963
 20
374.5953511688858
 10
124.97035860968754
 20
371.71892845258117
  0
LWPOLYLINE
  5
E7
330
17
100
AcDbEntity
  8
0
 62
0
100
AcDbPolyline
 90
6
 70
0
 10
153.336005915422
 20
375.8655388872139
 10
161.05671423720196
 20
382.98120748996735
 10
159.53773646848276
 20
389.7408455372788
 10
150.02940599853173
 20
392.7087838118896
 10
148.31819390505552
 20
380.3978574471548
 10
153.336005915422
 20
375.8655388872139
  0
LWPOLYLINE
  5
E8
330
17
100
AcDbEntity
  8
0
 62
0
100
AcDbPolyline
 90
7
 70
0
 10
137.6621202896349
 20
399.9874699758366
 10
127.39955309545621
 20
395.7210296681151
 10
126.48466737708077
 20
380.0664857919328
 10
140.50959509331733
 20
382.3281876584515
 10
142.5453429077752
 20
396.97391248773783
 10
141.12181153800339
 20
399.09967768378556
 10
137.6621202896349
 20
399.9874699758366
  0
LWPOLYLINE
  5
E9
330
17
100
AcDbEntity
  8
0
 62
0
100
AcDbPolyline
 90
7
 70
0
 10
148.68207983486354
 20
402.1875632624142
 10
149.25571197690442
 20
401.33095604693517
 10
161.92143754614517
 20
397.37746580922976
 10
167.01596693182364
 20
402.0727581689134
 10
165.49698916310444
 20
408.8323962162249
 10
157.26232210593298
 20
411.4027721211314
 10
148.68207983486354
 20
402.1875632624142
  0
LWPOLYLINE
  5
EA
330
17
100
AcDbEntity
  8
0
 62
0
100
AcDbPolyline
 90
6
 70
0
 10
163.01789265871048
 20
36.774517259560525
 10
175.3609456033446
 20
30.121853542979807
 10
174.70175641356036
 20
43.4740424323827
 10
168.53824259294197
 20
46.63807425554842
 10
162.71635374473408
 20
42.88233062112704
 10
163.01789265871048
 20
36.774517259560525
  0
LWPOLYLINE
  5
EB
330
17
100
AcDbEntity
  8
0
 62
0
100
AcDbPolyline
 90
6
 70
0
 10
183.19023178564385
 20
33.77709998562932
 10
194.99931097729132
 20
37.94032725505531
 10
194.67742752842605
 20
44.460228784475476
 10
188.51391370780766
 20
47.62426060764119
 10
182.69202485959977
 20
43.86851697275415
 10
183.19023178564385
 20
33.77709998562932
  0
LWPOLYLINE
  5
EC
330
17
100
AcDbEntity
  8
0
 62
0
100
AcDbPolyline
 90
7
 70
0
 10
171.85012686857954
 20
60.674862439744174
 10
172.19175184192136
 20
53.755086983088404
 10
178.35526566253975
 20
50.59105515992269
 10
184.1771545112133
 20
54.34679879480973
 10
183.83552953740582
 20
61.2665742514655
 10
177.67201571678743
 20
64.43060607463121
 10
171.85012686857954
 20
60.674862439744174
  0
LWPOLYLINE
  5
ED
330
17
100
AcDbEntity
  8
0
 62
0
100
AcDbPolyline
 90
7
 70
0
 10
191.82579798297957
 20
61.66104879183695
 10
192.16742295678705
 20
54.74127333518118
 10
198.3309367778711
 20
51.57724151201546
 10
204.15282562561333
 20
55.33298514643684
 10
203.81120065180585
 20
62.25276060355827
 10
197.64768683118746
 20
65.41679242625833
 10
191.82579798297957
 20
61.66104879183695
  0
LWPOLYLINE
  5
EE
330
17
100
AcDbEntity
  8
0
 62
0
100
AcDbPolyline
 90
7
 70
0
 10
161.3498538513668
 20
70.56143245007843
 10
167.51336767151952
 20
67.39740062691271
 10
173.33525652019307
 20
71.15314426179975
 10
172.9936315463856
 20
78.07291971845552
 10
166.83011772530153
 20
81.23695154162124
 10
161.0082288775593
 20
77.48120790719986
 10
161.3498538513668
 20
70.56143245007843
  0
LWPOLYLINE
  5
EF
330
17
100
AcDbEntity
  8
0
 62
0
100
AcDbPolyline
 90
7
 70
0
 10
180.98389999195933
 20
78.46739425882697
 10
181.32552496576682
 20
71.5476188021712
 10
187.48903878685087
 20
68.38358697900549
 10
193.3109276345931
 20
72.13933061342686
 10
192.96930266125128
 20
79.05910607008263
 10
186.80578884016722
 20
82.22313789324835
 10
180.98389999195933
 20
78.46739425882697
  0
LWPOLYLINE
  5
F0
330
17
100
AcDbEntity
  8
0
 62
0
100
AcDbPolyline
 90
7
 70
0
 10
170.1420020009391
 20
95.273739725817
 10
170.48362697474658
 20
88.35396426916122
 10
176.64714079583064
 20
85.18993244599551
 10
182.46902964403853
 20
88.94567608041689
 10
182.12740467023104
 20
95.86545153707266
 10
175.963890849147
 20
99.02948336023837
 10
170.1420020009391
 20
95.273739725817
  0
LWPOLYLINE
  5
F1
330
17
100
AcDbEntity
  8
0
 62
0
100
AcDbPolyline
 90
7
 70
0
 10
190.45929808961228
 20
89.34015062078834
 10
196.62281191023067
 20
86.17611879808828
 10
202.44470075843856
 20
89.93186243250966
 10
202.10307578463107
 20
96.85163788916543
 10
195.93956196354702
 20
100.01566971233115
 10
190.1176731158048
 20
96.25992607790977
 10
190.45929808961228
 20
89.34015062078834
  0
LWPOLYLINE
  5
F2
330
17
100
AcDbEntity
  8
0
 62
0
100
AcDbPolyline
 90
7
 70
0
 10
159.30010400991887
 20
112.08008519280702
 10
159.64172898372635
 20
105.16030973615125
 10
165.8052428048104
 20
101.99627791298553
 10
171.6271316530183
 20
105.75202154740691
 10
171.2855066792108
 20
112.67179700406268
 10
165.12199285812676
 20
115.8358288272284
 10
159.30010400991887
 20
112.08008519280702
  0
LWPOLYLINE
  5
F3
330
17
100
AcDbEntity
  8
0
 62
0
100
AcDbPolyline
 90
7
 70
0
 10
179.27577512478456
 20
113.06627154489979
 10
179.61740009859204
 20
106.14649608777836
 10
185.7809139196761
 20
102.98246426461264
 10
191.60280276741832
 20
106.73820789903402
 10
191.26117779361084
 20
113.65798335615546
 10
185.0976639725268
 20
116.82201517932117
 10
179.27577512478456
 20
113.06627154489979
  0
LWPOLYLINE
  5
F4
330
17
100
AcDbEntity
  8
0
 62
0
100
AcDbPolyline
 90
6
 70
0
 10
194.91468704259023
 20
120.77499608369544
 10
204.0097709321417
 20
126.64230209309608
 10
201.98975951597095
 20
134.36915581021458
 10
188.23107895813882
 20
134.47378326579928
 10
188.75117322197184
 20
123.93902790686116
 10
194.91468704259023
 20
120.77499608369544
  0
LWPOLYLINE
  5
F5
330
17
100
AcDbEntity
  8
0
 62
0
100
AcDbPolyline
 90
8
 70
0
 10
169.31600692030042
 20
137.5104434369132
 10
168.09647792438045
 20
136.70679762307554
 10
168.7755021075718
 20
122.95284155476838
 10
174.93901592865586
 20
119.78880973160267
 10
180.7609047763981
 20
123.54455336602405
 10
180.11426638858393
 20
136.64251982374117
 10
179.65188522357494
 20
137.05736094200984
 10
169.31600692030042
 20
137.5104434369132
  0
LWPOLYLINE
  5
F6
330
17
100
AcDbEntity
  8
0
 62
0
100
AcDbPolyline
 90
5
 70
0
 10
200.60554762976244
 20
142.37991331517696
 10
197.88616429874673
 20
156.03434847248718
 10
191.6502840979956
 20
158.45266551477835
 10
186.0268386634998
 20
142.49077665107325
 10
200.60554762976244
 20
142.37991331517696
  0
LWPOLYLINE
  5
F7
330
17
100
AcDbEntity
  8
0
 62
0
100
AcDbPolyline
 90
6
 70
0
 10
178.4700598809868
 20
145.11684997053817
 10
184.88300823327154
 20
163.31970622297376
 10
184.74877864308655
 20
163.56496504554525
 10
169.68444006238133
 20
160.747816325631
 10
171.72078719502315
 20
145.41271039145067
 10
178.4700598809868
 20
145.11684997053817
  0
LWPOLYLINE
  5
F8
330
17
100
AcDbEntity
  8
0
 62
0
100
AcDbPolyline
 90
8
 70
0
 10
191.53821650985628
 20
172.09056197060272
 10
191.02486282866448
 20
168.76083365362138
 10
192.05665413849056
 20
166.87558673135936
 10
201.26791653735563
 20
163.30339609831572
 10
208.70696800434962
 20
166.64091406110674
 10
209.41152037587017
 20
173.53320003533736
 10
203.79490181757137
 20
177.58950327523053
 10
191.53821650985628
 20
172.09056197060272
  0
LWPOLYLINE
  5
F9
330
17
100
AcDbEntity
  8
0
 62
0
100
AcDbPolyline
 90
7
 70
0
 10
173.79709586827084
 20
189.51721307169646
 10
166.84483292745426
 20
182.40567355742678
 10
168.66872015129775
 20
168.69655434042215
 10
183.34353115782142
 20
171.44085836829618
 10
183.7444170867093
 20
174.0410953545943
 10
174.83643424278125
 20
189.04161685099825
 10
173.79709586827084
 20
189.51721307169646
  0
LWPOLYLINE
  5
FA
330
17
100
AcDbEntity
  8
0
 62
0
100
AcDbPolyline
 90
6
 70
0
 10
189.53400963777676
 20
179.95963089866564
 10
200.52019102685153
 20
184.88856275146827
 10
201.22474339883775
 20
191.78084872616455
 10
195.60812484053895
 20
195.83715196559206
 10
183.36668215924874
 20
190.34504923969507
 10
189.53400963777676
 20
179.95963089866564
  0
LWPOLYLINE
  5
FB
330
17
100
AcDbEntity
  8
0
 62
0
100
AcDbPolyline
 90
7
 70
0
 10
174.60152440099046
 20
200.51527214655653
 10
175.97146813524887
 20
197.32002451084554
 10
177.65376728586853
 20
196.5502125439234
 10
192.3334140498191
 20
203.13621144136414
 10
194.01782593503594
 20
219.61397644272074
 10
187.129873608239
 20
218.17481739632785
 10
174.60152440099046
 20
200.51527214655653
  0
LWPOLYLINE
  5
FC
330
17
100
AcDbEntity
  8
0
 62
0
100
AcDbPolyline
 90
6
 70
0
 10
168.61107831913978
 20
206.65596348652616
 10
168.98163404641673
 20
206.4197318884544
 10
179.02180400537327
 20
220.57202224759385
 10
170.51356256846339
 20
225.71210836432874
 10
163.75066977040842
 20
221.98455546889454
 10
168.61107831913978
 20
206.65596348652616
  0
LWPOLYLINE
  5
FD
330
17
100
AcDbEntity
  8
0
 62
0
100
AcDbPolyline
 90
7
 70
0
 10
156.08843764662743
 20
240.5980880255811
 10
155.38021913776174
 20
229.40219788439572
 10
158.58518413081765
 20
228.27216945914552
 10
166.65188143914565
 20
232.71834978507832
 10
166.78941212082282
 20
239.64518783148378
 10
160.8593597463332
 20
243.2277119178325
 10
156.08843764662743
 20
240.5980880255811
  0
LWPOLYLINE
  5
FE
330
17
100
AcDbEntity
  8
0
 62
0
100
AcDbPolyline
 90
6
 70
0
 10
174.65030506020412
 20
232.55954303359613
 10
185.4973975783214
 20
226.00648620398715
 10
193.88804930076003
 20
227.75961714237928
 10
186.3683005226776
 20
245.8692702241242
 10
174.78783574188128
 20
239.4863810800016
 10
174.65030506020412
 20
232.55954303359613
  0
LWPOLYLINE
  5
FF
330
17
100
AcDbEntity
  8
0
 62
0
100
AcDbPolyline
 90
7
 70
0
 10
192.60331967147067
 20
252.22836621385068
 10
192.52886720048264
 20
251.8940596524626
 10
201.13396347500384
 20
231.17058698413894
 10
211.6766722612083
 20
245.02964532142505
 10
208.99863893026486
 20
251.419335257262
 10
193.79128702683374
 20
253.35680588241667
 10
192.60331967147067
 20
252.22836621385068
  0
LWPOLYLINE
  5
100
330
17
100
AcDbEntity
  8
0
 62
0
100
AcDbPolyline
 90
6
 70
0
 10
164.99610223760828
 20
250.07514658756554
 10
170.92615461256355
 20
246.49262250075117
 10
183.0613207248971
 20
253.1812504194677
 10
171.20121597498655
 20
260.34629859309644
 10
165.13363291928545
 20
257.001984633971
 10
164.99610223760828
 20
250.07514658756554
  0
LWPOLYLINE
  5
101
330
17
100
AcDbEntity
  8
0
 62
0
100
AcDbPolyline
 90
7
 70
0
 10
175.3379584667273
 20
267.1937332623638
 10
188.42123331455514
 20
259.2897310187109
 10
188.7161102881655
 20
259.56983204418793
 10
190.97145227296278
 20
271.7689155591652
 10
181.54307220410556
 20
277.46488526742905
 10
175.47548914840445
 20
274.1205713087693
 10
175.3379584667273
 20
267.1937332623638
  0
LWPOLYLINE
  5
102
330
17
100
AcDbEntity
  8
0
 62
0
100
AcDbPolyline
 90
7
 70
0
 10
155.4794300966896
 20
274.5175881879404
 10
155.34189941501245
 20
267.59075014153495
 10
161.27195178996772
 20
264.0082260547206
 10
167.33953484566882
 20
267.352540013846
 10
167.47706552734599
 20
274.2793780602515
 10
161.54701315239072
 20
277.86190214706585
 10
155.4794300966896
 20
274.5175881879404
  0
LWPOLYLINE
  5
103
330
17
100
AcDbEntity
  8
0
 62
0
100
AcDbPolyline
 90
7
 70
0
 10
185.8630900993012
 20
293.5431259130128
 10
185.6798146958463
 20
284.31231993669644
 10
195.22889868402854
 20
278.54342933837324
 10
195.9084743191488
 20
279.02676285849884
 10
197.78041731845587
 20
295.3889474114403
 10
195.38140559894964
 20
298.1757478332147
 10
185.8630900993012
 20
293.5431259130128
  0
LWPOLYLINE
  5
104
330
17
100
AcDbEntity
  8
0
 62
0
100
AcDbPolyline
 90
7
 70
0
 10
165.68375564413145
 20
284.70933681633323
 10
171.61380801908672
 20
281.12681272951886
 10
177.68139107478783
 20
284.47112668817863
 10
177.86118566105142
 20
293.52661864226684
 10
170.42959526507184
 20
296.9358181525022
 10
165.88645164715126
 20
294.9182761721313
 10
165.68375564413145
 20
284.70933681633323
  0
LWPOLYLINE
  5
105
330
17
100
AcDbEntity
  8
0
 62
0
100
AcDbPolyline
 90
7
 70
0
 10
175.7742277267389
 20
313.09783214051276
 10
174.74767837347463
 20
303.75654504820704
 10
181.8618953684345
 20
300.4929387671873
 10
192.67947532935068
 20
305.75792058510706
 10
192.9319900115952
 20
307.9495290713385
 10
182.1167278289795
 20
315.8857870269567
 10
175.7742277267389
 20
313.09783214051276
  0
LWPOLYLINE
  5
106
330
17
100
AcDbEntity
  8
0
 62
0
100
AcDbPolyline
 90
6
 70
0
 10
186.8496014275588
 20
322.3355860551819
 10
196.80664817709476
 20
315.02908805804327
 10
197.4348952108994
 20
315.64124390948564
 10
200.67949872044846
 20
334.9688296993263
 10
187.60641172342002
 20
329.22232971014455
 10
186.8496014275588
 20
322.3355860551819
  0
LWPOLYLINE
  5
107
330
17
100
AcDbEntity
  8
0
 62
0
100
AcDbPolyline
 90
7
 70
0
 10
166.96928491117433
 20
324.52030919352546
 10
172.55497471848503
 20
320.4215204240754
 10
178.89747482119128
 20
323.20947531051934
 10
179.6542851170525
 20
330.0962189659476
 10
171.02026878250763
 20
336.43187497369945
 10
168.12864303216338
 20
335.07011570828035
 10
166.96928491117433
 20
324.52030919352546
  0
LWPOLYLINE
  5
108
330
17
100
AcDbEntity
  8
0
 62
0
100
AcDbPolyline
 90
7
 70
0
 10
180.22564920270815
 20
354.4718755008653
 10
176.1958700073883
 20
342.55679970933124
 10
184.38715871516615
 20
336.5460179937072
 10
197.250218200963
 20
342.20019678166136
 10
183.6352129485458
 20
355.27049411227927
 10
181.70761103415862
 20
355.41629285924137
 10
180.22564920270815
 20
354.4718755008653
  0
LWPOLYLINE
  5
109
330
17
100
AcDbEntity
  8
0
 62
0
100
AcDbPolyline
 90
7
 70
0
 10
150.82549995090812
 20
353.19098280137405
 10
150.71862301742658
 20
347.4476267527789
 10
164.25921221170574
 20
342.09059845330194
 10
168.22462636511773
 20
343.9580391012132
 10
171.78660977631807
 20
354.48995667137206
 10
155.44183780858293
 20
359.59182754764333
 10
150.82549995090812
 20
353.19098280137405
  0
LWPOLYLINE
  5
10A
330
17
100
AcDbEntity
  8
0
 62
0
100
AcDbPolyline
 90
6
 70
0
 10
202.42119756899774
 20
348.325796676334
 10
208.2188018769957
 20
355.54794699465856
 10
206.15941377775744
 20
364.7124775345437
 10
199.54590662335977
 20
366.77682322310284
 10
191.2069658176042
 20
359.0913704391569
 10
202.42119756899774
 20
348.325796676334
  0
LWPOLYLINE
  5
10B
330
17
100
AcDbEntity
  8
0
 62
0
100
AcDbPolyline
 90
6
 70
0
 10
157.64351598499343
 20
367.2852646014653
 10
176.12983354413882
 20
361.51492988178506
 10
173.09187800670043
 20
375.03420597687364
 10
166.47837085230276
 20
377.09855166543275
 10
157.5131122339517
 20
368.8358629839495
 10
157.64351598499343
 20
367.2852646014653
  0
LWPOLYLINE
  5
10C
330
17
100
AcDbEntity
  8
0
 62
0
100
AcDbPolyline
 90
7
 70
0
 10
180.89723569946364
 20
376.78817042429
 10
183.93478853208944
 20
363.27068641455844
 10
183.93695768294856
 20
363.2705223457888
 10
194.12425000825897
 20
372.65947904763743
 10
192.60527223953977
 20
379.41911709541455
 10
185.99176508560777
 20
381.48346278397366
 10
180.89723569946364
 20
376.78817042429
  0
LWPOLYLINE
  5
10D
330
17
100
AcDbEntity
  8
0
 62
0
100
AcDbPolyline
 90
7
 70
0
 10
168.86207192996517
 20
384.7351719373837
 10
175.47557908436283
 20
382.6708262488246
 10
180.5701084700413
 20
387.36611860850826
 10
179.0511307013221
 20
394.1257566558197
 10
172.43762354692444
 20
396.19010234437883
 10
167.34309416124597
 20
391.49480998469517
 10
168.86207192996517
 20
384.7351719373837
  0
LWPOLYLINE
  5
10E
330
17
100
AcDbEntity
  8
0
 62
0
100
AcDbPolyline
 90
7
 70
0
 10
186.85648839408532
 20
395.8797211032361
 10
188.3754661628045
 20
389.12008305545896
 10
194.98897331673652
 20
387.05573736689985
 10
200.08350270288065
 20
391.7510297265835
 10
198.56452493416145
 20
398.51066777389497
 10
191.9510177797638
 20
400.5750134624541
 10
186.85648839408532
 20
395.8797211032361
  0
LWPOLYLINE
  5
10F
330
17
100
AcDbEntity
  8
0
 62
0
100
AcDbPolyline
 90
7
 70
0
 10
173.30234685586765
 20
410.58636066364124
 10
174.82132462458685
 20
403.8267226163298
 10
181.43483177898452
 20
401.7623769277707
 10
186.529361164663
 20
406.4576692869887
 10
185.0103833959438
 20
413.2173073347658
 10
178.39687624201179
 20
415.2816530233249
 10
173.30234685586765
 20
410.58636066364124
  0
LWPOLYLINE
  5
110
330
17
100
AcDbEntity
  8
0
 62
0
100
AcDbPolyline
 90
6
 70
0
 10
200.94822601182386
 20
406.1472880458459
 10
206.66981670074165
 20
411.42050152877346
 10
200.0952822654508
 20
421.6803456689231
 10
192.815741088707
 20
414.9712717817165
 10
194.3347188574262
 20
408.21163373440504
 10
200.94822601182386
 20
406.1472880458459
  0
LWPOLYLINE
  5
111
330
17
100
AcDbEntity
  8
0
 62
0
100
AcDbPolyline
 90
14
 70
0
 10
181.65044568443602
 20
425.803102299123
 10
180.47201673772557
 20
426.5094254277643
 10
179.87392155567713
 20
426.95300304625323
 10
180.78057731920853
 20
422.9182732948102
 10
187.39408447314054
 20
420.8539276062511
 10
191.36718695885313
 20
424.51567461588195
 10
190.9812645082258
 20
424.41900607435474
 10
189.62223996461384
 20
424.2174138265892
 10
188.25
 20
424.15
 10
186.87776003538616
 20
424.2174138265892
 10
185.5187354917742
 20
424.41900607435474
 10
184.18601451843753
 20
424.75283529974905
 10
182.89243194688873
 20
425.21568654484196
 10
181.65044568443602
 20
425.803102299123
  0
LWPOLYLINE
  5
112
330
17
100
AcDbEntity
  8
0
 62
0
100
AcDbPolyline
 90
6
 70
0
 10
222.51430844981223
 20
31.872907565906644
 10
226.16775979707018
 20
29.95452149445191
 10
233.80388252763078
 20
42.71647297497839
 10
229.51828243210912
 20
50.41434995550662
 10
221.61488014739007
 20
46.18641578918323
 10
222.51430844981223
 20
31.872907565906644
  0
LWPOLYLINE
  5
113
330
17
100
AcDbEntity
  8
0
 62
0
100
AcDbPolyline
 90
7
 70
0
 10
203.04931460227817
 20
37.124837471172214
 10
209.06508493423462
 20
32.17908725421876
 10
214.43601131998003
 20
32.86782536981627
 10
213.61201853398234
 20
45.98085225978866
 10
208.48958482174203
 20
48.61044695973396
 10
202.6676959739998
 20
44.854703325312585
 10
203.04931460227817
 20
37.124837471172214
  0
LWPOLYLINE
  5
114
330
17
100
AcDbEntity
  8
0
 62
0
100
AcDbPolyline
 90
7
 70
0
 10
211.8014690973796
 20
62.64723514392972
 10
212.14309407118708
 20
55.72745968727395
 10
217.42328397277743
 20
53.01688105193898
 10
227.67435351386666
 20
58.50070252409205
 10
228.67489122180268
 20
62.310179407242686
 10
224.50028667319566
 20
70.83933645673096
 10
211.8014690973796
 20
62.64723514392972
  0
LWPOLYLINE
  5
115
330
17
100
AcDbEntity
  8
0
 62
0
100
AcDbPolyline
 90
6
 70
0
 10
201.30119608016685
 20
72.53380515426397
 10
207.4647099012509
 20
69.36977333109826
 10
219.1084875962697
 20
76.88126059900969
 10
206.78145995456725
 20
83.20932424487546
 10
200.95957110682502
 20
79.45358061091974
 10
201.30119608016685
 20
72.53380515426397
  0
LWPOLYLINE
  5
116
330
17
100
AcDbEntity
  8
0
 62
0
100
AcDbPolyline
 90
6
 70
0
 10
220.87774273008108
 20
84.9655527328141
 10
221.45356455771253
 20
100.76855276385322
 10
218.18940631579608
 20
102.46894207037985
 10
210.09334423020482
 20
97.24611242953688
 10
210.4349692040123
 20
90.32633697334677
 10
220.87774273008108
 20
84.9655527328141
  0
LWPOLYLINE
  5
117
330
17
100
AcDbEntity
  8
0
 62
0
100
AcDbPolyline
 90
7
 70
0
 10
199.2514462391846
 20
114.0524578965269
 10
199.59307121299207
 20
107.13268243987113
 10
205.75658503361046
 20
103.96865061670542
 10
213.45276476675645
 20
108.93351318920031
 10
211.252747268416
 20
118.59013953339309
 10
208.68450009217486
 20
120.13779083359987
 10
199.2514462391846
 20
114.0524578965269
  0
LWPOLYLINE
  5
118
330
17
100
AcDbEntity
  8
0
 62
0
100
AcDbPolyline
 90
7
 70
0
 10
219.40305104339495
 20
118.83017589757219
 10
221.46412026230246
 20
109.78344089258462
 10
225.97206661803648
 20
107.43512833770365
 10
233.01877278648317
 20
109.46676008263603
 10
233.97185130836442
 20
118.79025396518409
 10
228.35523275006562
 20
122.8465572046116
 10
219.40305104339495
 20
118.83017589757219
  0
LWPOLYLINE
  5
119
330
17
100
AcDbEntity
  8
0
 62
0
100
AcDbPolyline
 90
7
 70
0
 10
209.72536568855867
 20
136.40893104532734
 10
212.07074703928083
 20
127.43748738709837
 10
215.04688000958413
 20
125.64404004951939
 10
225.08052195888013
 20
130.14561668038368
 10
225.78507433086634
 20
137.03790265554562
 10
220.16845577256754
 20
141.09420589497313
 10
209.72536568855867
 20
136.40893104532734
  0
LWPOLYLINE
  5
11A
330
17
100
AcDbEntity
  8
0
 62
0
100
AcDbPolyline
 90
7
 70
0
 10
225.55682367878035
 20
154.47200434235856
 10
224.8522713072598
 20
147.57971836719662
 10
230.46888986509293
 20
143.5234151277691
 10
236.79006079537794
 20
146.35939786303788
 10
237.49461316736415
 20
153.25168383819982
 10
231.87799460906535
 20
157.30798707762733
 10
225.55682367878035
 20
154.47200434235856
  0
LWPOLYLINE
  5
11B
330
17
100
AcDbEntity
  8
0
 62
0
100
AcDbPolyline
 90
6
 70
0
 10
208.33022079477087
 20
144.55125460820273
 10
216.8937449818477
 20
148.3932653707452
 10
217.59829735336825
 20
155.28555134590715
 10
211.98167879506946
 20
159.34185458533466
 10
205.92567577166483
 20
156.6248389868997
 10
208.33022079477087
 20
144.55125460820273
  0
LWPOLYLINE
  5
11C
330
17
100
AcDbEntity
  8
0
 62
0
100
AcDbPolyline
 90
7
 70
0
 10
217.37004670128226
 20
172.71965303225443
 10
216.6654943297617
 20
165.82736705755815
 10
222.2821128880605
 20
161.77106381813064
 10
228.60328381834552
 20
164.6070465533994
 10
229.30783618986607
 20
171.4993325280957
 10
223.69121763156727
 20
175.5556357675232
 10
217.37004670128226
 20
172.71965303225443
  0
LWPOLYLINE
  5
11D
330
17
100
AcDbEntity
  8
0
 62
0
100
AcDbPolyline
 90
7
 70
0
 10
228.37503316625953
 20
182.04114824021235
 10
233.99165172455832
 20
177.98484500078484
 10
240.31282265437767
 20
180.82082773558795
 10
241.01737502636388
 20
187.71311371028423
 10
235.40075646806508
 20
191.7694169501774
 10
229.07958553778008
 20
188.93343421490863
 10
228.37503316625953
 20
182.04114824021235
  0
LWPOLYLINE
  5
11E
330
17
100
AcDbEntity
  8
0
 62
0
100
AcDbPolyline
 90
7
 70
0
 10
209.18326972424984
 20
190.96730172261596
 10
208.47871735226363
 20
184.07501574838534
 10
214.09533591056243
 20
180.01871250849217
 10
220.41650684084743
 20
182.85469524376094
 10
221.12105921236798
 20
189.74698121845722
 10
215.50444065453485
 20
193.80328445788473
 10
209.18326972424984
 20
190.96730172261596
  0
LWPOLYLINE
  5
11F
330
17
100
AcDbEntity
  8
0
 62
0
100
AcDbPolyline
 90
7
 70
0
 10
220.18825618876144
 20
200.28879693010822
 10
225.80487474706024
 20
196.23249369114637
 10
232.12604567734525
 20
199.06847642641515
 10
232.8305980488658
 20
205.96076240111142
 10
221.66783182648942
 20
214.0224750349298
 10
221.59067001519725
 20
214.00791495665908
 10
220.18825618876144
 20
200.28879693010822
  0
LWPOLYLINE
  5
120
330
17
100
AcDbEntity
  8
0
 62
0
100
AcDbPolyline
 90
6
 70
0
 10
200.2919403752312
 20
202.32266443781555
 10
205.90855893306434
 20
198.26636119838804
 10
212.229729863815
 20
201.1023439336568
 10
213.65300904540345
 20
215.02557737194002
 10
202.168833933305
 20
220.68338205758482
 10
200.2919403752312
 20
202.32266443781555
  0
LWPOLYLINE
  5
121
330
17
100
AcDbEntity
  8
0
 62
0
100
AcDbPolyline
 90
7
 70
0
 10
218.0437947968021
 20
240.18611864978448
 10
207.85936965420842
 20
226.798046851065
 10
218.4852146054618
 20
221.56310792267323
 10
220.45326862856746
 20
221.9344706577249
 10
228.2462686947547
 20
231.36568122915924
 10
224.91644526924938
 20
239.31051857862622
 10
218.0437947968021
 20
240.18611864978448
  0
LWPOLYLINE
  5
122
330
17
100
AcDbEntity
  8
0
 62
0
100
AcDbPolyline
 90
7
 70
0
 10
216.3768173395656
 20
254.51166178658605
 10
219.05485067050904
 20
248.1219718507491
 10
225.92750114295632
 20
247.24637177959085
 10
230.1221182839945
 20
252.76046164426953
 10
227.44408495305106
 20
259.1501515796408
 10
220.57143448060378
 20
260.02575165079907
 10
216.3768173395656
 20
254.51166178658605
  0
LWPOLYLINE
  5
123
330
17
100
AcDbEntity
  8
0
 62
0
100
AcDbPolyline
 90
7
 70
0
 10
197.11570466216654
 20
260.99792858120054
 10
210.0096948039718
 20
259.3551884582266
 10
214.20431194500998
 20
264.86927832243964
 10
211.52627861406654
 20
271.2589682582766
 10
200.72465373715386
 20
272.6351336184889
 10
199.04650741862133
 20
271.44158822717145
 10
197.11570466216654
 20
260.99792858120054
  0
LWPOLYLINE
  5
124
330
17
100
AcDbEntity
  8
0
 62
0
100
AcDbPolyline
 90
7
 70
0
 10
218.90445702336729
 20
274.35129478760064
 10
221.58249035431072
 20
267.9616048517637
 10
228.455140826758
 20
267.08600478060544
 10
232.64975796779618
 20
272.6000946452841
 10
229.97172463685274
 20
278.98978458112106
 10
223.09907416487113
 20
279.8653846522793
 10
218.90445702336729
 20
274.35129478760064
  0
LWPOLYLINE
  5
125
330
17
100
AcDbEntity
  8
0
 62
0
100
AcDbPolyline
 90
6
 70
0
 10
212.53733448777348
 20
279.1948214592412
 10
216.73195162927732
 20
284.7089113239199
 10
214.05391829786822
 20
291.09860125975683
 10
205.46692094020545
 20
292.19261521101
 10
204.10282651148736
 20
280.269407721702
 10
212.53733448777348
 20
279.1948214592412
  0
LWPOLYLINE
  5
126
330
17
100
AcDbEntity
  8
0
 62
0
100
AcDbPolyline
 90
6
 70
0
 10
224.11013003857806
 20
287.80123785324395
 10
230.98278051055968
 20
286.9256377820857
 10
235.17739765206352
 20
292.43972764676437
 10
229.821330989711
 20
305.2191075189039
 10
221.43209670716897
 20
294.1909277890809
 10
224.11013003857806
 20
287.80123785324395
  0
LWPOLYLINE
  5
127
330
17
100
AcDbEntity
  8
0
 62
0
100
AcDbPolyline
 90
7
 70
0
 10
200.57632892765105
 20
304.4033432332799
 10
203.98267401847988
 20
300.4463788475841
 10
215.06497417157516
 20
299.03445446072146
 10
223.12526861950755
 20
309.6302219466306
 10
202.7852196074091
 20
309.68477115919814
 10
200.98245695466176
 20
307.9281823541969
 10
200.57632892765105
 20
304.4033432332799
  0
LWPOLYLINE
  5
128
330
17
100
AcDbEntity
  8
0
 62
0
100
AcDbPolyline
 90
5
 70
0
 10
228.5507817924954
 20
317.61570023652166
 10
223.17767235962674
 20
326.5913824522868
 10
208.26327127916738
 20
331.8225977681577
 10
205.88850225973874
 20
317.6764773516916
 10
228.5507817924954
 20
317.61570023652166
  0
LWPOLYLINE
  5
129
330
17
100
AcDbEntity
  8
0
 62
0
100
AcDbPolyline
 90
6
 70
0
 10
223.4057635110803
 20
334.98920975252986
 10
228.7549666138366
 20
350.37399566872045
 10
214.44576793536544
 20
350.52547380840406
 10
207.05633652536198
 20
341.3203639774583
 10
207.6244259760715
 20
340.5245023984462
 10
223.4057635110803
 20
334.98920975252986
  0
LWPOLYLINE
  5
12A
330
17
100
AcDbEntity
  8
0
 62
0
100
AcDbPolyline
 90
6
 70
0
 10
215.75221642665565
 20
358.5120919039473
 10
228.08078810712323
 20
358.3815808147192
 10
225.67280801059678
 20
369.09738865308464
 10
219.05930085666478
 20
371.16173434164375
 10
213.96477147052065
 20
366.4664419819601
 10
215.75221642665565
 20
358.5120919039473
  0
LWPOLYLINE
  5
12B
330
17
100
AcDbEntity
  8
0
 62
0
100
AcDbPolyline
 90
7
 70
0
 10
201.92960770102218
 20
374.4134434950538
 10
208.54311485541984
 20
372.3490978064947
 10
213.63764424109831
 20
377.04439016617835
 10
212.11866647237912
 20
383.8040282134898
 10
205.50515931798145
 20
385.8683739020489
 10
200.41062993230298
 20
381.17308154236525
 10
201.92960770102218
 20
374.4134434950538
  0
LWPOLYLINE
  5
12C
330
17
100
AcDbEntity
  8
0
 62
0
100
AcDbPolyline
 90
6
 70
0
 10
221.44300193386152
 20
378.79835461312905
 10
228.05650908779353
 20
376.73400892456993
 10
233.15103847393766
 20
381.4293012842536
 10
230.11308293649927
 20
394.94857737980783
 10
219.92402416514233
 20
385.55799266090617
 10
221.44300193386152
 20
378.79835461312905
  0
LWPOLYLINE
  5
12D
330
17
100
AcDbEntity
  8
0
 62
0
100
AcDbPolyline
 90
7
 70
0
 10
206.36988262692466
 20
400.26463222131133
 10
207.88886039564386
 20
393.5049941739999
 10
214.50236755004153
 20
391.44064848544076
 10
225.71684542158619
 20
401.7762944852002
 10
224.61860323417932
 20
405.65641917893663
 10
213.26445361226797
 20
406.6189044257626
 10
206.36988262692466
 20
400.26463222131133
  0
LWPOLYLINE
  5
12E
330
17
100
AcDbEntity
  8
0
 62
0
100
AcDbPolyline
 90
65
 70
0
 10
22.24701804635074
 20
439.03891237283136
 10
22.153483392047047
 20
439.1650292546618
 10
22.048037516565145
 20
439.28137084989845
 10
21.9316959213285
 20
439.38681672538036
 10
21.80557903949803
 20
439.48035137968407
 10
21.670901445588264
 20
439.56107402295737
 10
21.52896015845081
 20
439.62820725201806
 10
21.381122150273807
 20
439.6811045371715
 10
21.228811181892475
 20
439.7192564486451
 10
21.073494091193965
 20
439.7422955626755
 10
20.916666666666668
 20
439.75
 10
20.75983924213937
 20
439.7422955626755
 10
20.60452215144086
 20
439.7192564486451
 10
20.45221118305953
 20
439.6811045371715
 10
20.304373174882524
 20
439.62820725201806
 10
20.162431887745072
 20
439.56107402295737
 10
20.027754293835304
 20
439.48035137968407
 10
19.901637412004835
 20
439.38681672538036
 10
19.78529581676819
 20
439.28137084989845
 10
19.67984994128629
 20
439.1650292546618
 10
19.586315286982597
 20
439.03891237283136
 10
19.5055926437093
 20
438.9042347789216
 10
19.43845941464861
 20
438.76229349178413
 10
19.385562129495135
 20
438.6144554836071
 10
19.347410218021498
 20
438.46214451522576
 10
19.324371103991155
 20
438.3068274245273
 10
19.316666666666666
 20
438.15
 10
19.324371103991155
 20
437.99317257547267
 10
19.347410218021498
 20
437.8378554847742
 10
19.385562129495135
 20
437.68554451639284
 10
19.43845941464861
 20
437.5377065082158
 10
19.5055926437093
 20
437.39576522107836
 10
19.586315286982597
 20
437.2610876271686
 10
19.67984994128629
 20
437.13497074533814
 10
19.78529581676819
 20
437.0186291501015
 10
19.901637412004835
 20
436.9131832746196
 10
20.027754293835304
 20
436.8196486203159
 10
20.162431887745072
 20
436.7389259770426
 10
20.304373174882524
 20
436.6717927479819
 10
20.45221118305953
 20
436.61889546282845
 10
20.60452215144086
 20
436.58074355135483
 10
20.75983924213937
 20
436.55770443732445
 10
20.916666666666668
 20
436.54999999999995
 10
21.073494091193965
 20
436.55770443732445
 10
21.228811181892475
 20
436.58074355135483
 10
21.381122150273807
 20
436.61889546282845
 10
21.52896015845081
 20
436.6717927479819
 10
21.670901445588264
 20
436.7389259770426
 10
21.80557903949803
 20
436.8196486203159
 10
21.9316959213285
 20
436.9131832746196
 10
22.048037516565145
 20
437.0186291501015
 10
22.153483392047047
 20
437.13497074533814
 10
22.24701804635074
 20
437.2610876271686
 10
22.327740689624036
 20
437.39576522107836
 10
22.394873918684727
 20
437.5377065082158
 10
22.4477712038382
 20
437.68554451639284
 10
22.485923115311838
 20
437.8378554847742
 10
22.50896222934218
 20
437.99317257547267
 10
22.51666666666667
 20
438.15
 10
22.50896222934218
 20
438.3068274245273
 10
22.485923115311838
 20
438.46214451522576
 10
22.4477712038382
 20
438.6144554836071
 10
22.394873918684727
 20
438.76229349178413
 10
22.327740689624036
 20
438.9042347789216
 10
22.24701804635074
 20
439.03891237283136
  0
LWPOLYLINE
  5
12F
330
17
100
AcDbEntity
  8
0
 62
0
100
AcDbPolyline
 90
65
 70
0
 10
105.99440735629071
 20
438.9042347789216
 10
105.91368471301742
 20
439.03891237283136
 10
105.82015005871372
 20
439.1650292546618
 10
105.71470418323182
 20
439.28137084989845
 10
105.59836258799517
 20
439.38681672538036
 10
105.4722457061647
 20
439.48035137968407
 10
105.33756811225494
 20
439.56107402295737
 10
105.19562682511749
 20
439.62820725201806
 10
105.04778881694048
 20
439.6811045371715
 10
104.89547784855915
 20
439.7192564486451
 10
104.74016075786064
 20
439.7422955626755
 10
104.58333333333334
 20
439.75
 10
104.42650590880605
 20
439.7422955626755
 10
104.27118881810753
 20
439.7192564486451
 10
104.1188778497262
 20
439.6811045371715
 10
103.9710398415492
 20
439.62820725201806
 10
103.82909855441174
 20
439.56107402295737
 10
103.69442096050199
 20
439.48035137968407
 10
103.5683040786715
 20
439.38681672538036
 10
103.45196248343487
 20
439.28137084989845
 10
103.34651660795296
 20
439.1650292546618
 10
103.25298195364927
 20
439.03891237283136
 10
103.17225931037598
 20
438.9042347789216
 10
103.10512608131529
 20
438.76229349178413
 10
103.05222879616181
 20
438.6144554836071
 10
103.01407688468818
 20
438.46214451522576
 10
102.99103777065783
 20
438.3068274245273
 10
102.98333333333335
 20
438.15
 10
102.99103777065783
 20
437.99317257547267
 10
103.01407688468818
 20
437.8378554847742
 10
103.05222879616181
 20
437.68554451639284
 10
103.10512608131529
 20
437.5377065082158
 10
103.17225931037598
 20
437.39576522107836
 10
103.25298195364927
 20
437.2610876271686
 10
103.34651660795296
 20
437.13497074533814
 10
103.45196248343487
 20
437.0186291501015
 10
103.56830407867152
 20
436.9131832746196
 10
103.69442096050199
 20
436.8196486203159
 10
103.82909855441174
 20
436.7389259770426
 10
103.9710398415492
 20
436.6717927479819
 10
104.1188778497262
 20
436.61889546282845
 10
104.27118881810753
 20
436.58074355135483
 10
104.42650590880605
 20
436.55770443732445
 10
104.58333333333334
 20
436.54999999999995
 10
104.74016075786064
 20
436.55770443732445
 10
104.89547784855915
 20
436.58074355135483
 10
105.04778881694048
 20
436.61889546282845
 10
105.19562682511749
 20
436.6717927479819
 10
105.33756811225494
 20
436.7389259770426
 10
105.47224570616471
 20
436.8196486203159
 10
105.59836258799517
 20
436.9131832746196
 10
105.71470418323182
 20
437.0186291501015
 10
105.82015005871372
 20
437.13497074533814
 10
105.91368471301742
 20
437.2610876271686
 10
105.99440735629071
 20
437.39576522107836
 10
106.0615405853514
 20
437.5377065082158
 10
106.11443787050487
 20
437.68554451639284
 10
106.1525897819785
 20
437.8378554847742
 10
106.17562889600886
 20
437.99317257547267
 10
106.18333333333334
 20
438.15
 10
106.17562889600886
 20
438.3068274245273
 10
106.1525897819785
 20
438.46214451522576
 10
106.11443787050487
 20
438.6144554836071
 10
106.0615405853514
 20
438.76229349178413
 10
105.99440735629071
 20
438.9042347789216
  0
LWPOLYLINE
  5
130
330
17
100
AcDbEntity
  8
0
 62
0
100
AcDbPolyline
 90
65
 70
0
 10
189.72820725201805
 20
438.76229349178413
 10
189.66107402295737
 20
438.9042347789216
 10
189.58035137968406
 20
439.03891237283136
 10
189.48681672538038
 20
439.1650292546618
 10
189.38137084989847
 20
439.28137084989845
 10
189.26502925466184
 20
439.38681672538036
 10
189.13891237283136
 20
439.48035137968407
 10
189.00423477892159
 20
439.56107402295737
 10
188.86229349178416
 20
439.62820725201806
 10
188.71445548360714
 20
439.6811045371715
 10
188.5621445152258
 20
439.7192564486451
 10
188.4068274245273
 20
439.7422955626755
 10
188.25
 20
439.75
 10
188.0931725754727
 20
439.7422955626755
 10
187.9378554847742
 20
439.7192564486451
 10
187.78554451639286
 20
439.6811045371715
 10
187.63770650821584
 20
439.62820725201806
 10
187.49576522107841
 20
439.56107402295737
 10
187.36108762716864
 20
439.48035137968407
 10
187.23497074533816
 20
439.38681672538036
 10
187.11862915010153
 20
439.28137084989845
 10
187.01318327461962
 20
439.1650292546618
 10
186.91964862031594
 20
439.03891237283136
 10
186.83892597704263
 20
438.9042347789216
 10
186.77179274798195
 20
438.76229349178413
 10
186.71889546282847
 20
438.6144554836071
 10
186.68074355135482
 20
438.46214451522576
 10
186.6577044373245
 20
438.3068274245273
 10
186.65
 20
438.15
 10
186.6577044373245
 20
437.99317257547267
 10
186.68074355135482
 20
437.8378554847742
 10
186.71889546282847
 20
437.68554451639284
 10
186.77179274798195
 20
437.5377065082158
 10
186.83892597704263
 20
437.39576522107836
 10
186.91964862031594
 20
437.2610876271686
 10
187.01318327461962
 20
437.13497074533814
 10
187.11862915010153
 20
437.0186291501015
 10
187.23497074533816
 20
436.9131832746196
 10
187.36108762716864
 20
436.8196486203159
 10
187.49576522107841
 20
436.7389259770426
 10
187.63770650821584
 20
436.6717927479819
 10
187.78554451639286
 20
436.61889546282845
 10
187.9378554847742
 20
436.58074355135483
 10
188.0931725754727
 20
436.55770443732445
 10
188.25
 20
436.54999999999995
 10
188.4068274245273
 20
436.55770443732445
 10
188.5621445152258
 20
436.58074355135483
 10
188.71445548360714
 20
436.61889546282845
 10
188.86229349178416
 20
436.6717927479819
 10
189.00423477892159
 20
436.7389259770426
 10
189.13891237283136
 20
436.8196486203159
 10
189.26502925466184
 20
436.9131832746196
 10
189.38137084989847
 20
437.0186291501015
 10
189.48681672538038
 20
437.13497074533814
 10
189.58035137968406
 20
437.2610876271686
 10
189.66107402295737
 20
437.39576522107836
 10
189.72820725201805
 20
437.5377065082158
 10
189.78110453717153
 20
437.68554451639284
 10
189.81925644864518
 20
437.8378554847742
 10
189.8422955626755
 20
437.99317257547267
 10
189.85
 20
438.15
 10
189.8422955626755
 20
438.3068274245273
 10
189.81925644864518
 20
438.46214451522576
 10
189.78110453717153
 20
438.6144554836071
 10
189.72820725201805
 20
438.76229349178413
  0
LWPOLYLINE
  5
131
330
17
100
AcDbEntity
  8
0
 62
0
100
AcDbPolyline
 90
65
 70
0
 10
64.28110453717153
 20
19.514455483607136
 10
64.22820725201805
 20
19.66229349178414
 10
64.16107402295737
 20
19.804234778921593
 10
64.08035137968407
 20
19.93891237283136
 10
63.98681672538038
 20
20.06502925466183
 10
63.881370849898474
 20
20.181370849898475
 10
63.76502925466183
 20
20.286816725380376
 10
63.63891237283136
 20
20.380351379684072
 10
63.5042347789216
 20
20.461074022957366
 10
63.36229349178414
 20
20.528207252018056
 10
63.21445548360714
 20
20.58110453717153
 10
63.0621445152258
 20
20.619256448645167
 10
62.90682742452729
 20
20.642295562675514
 10
62.75
 20
20.65
 10
62.5931725754727
 20
20.642295562675514
 10
62.4378554847742
 20
20.619256448645167
 10
62.28554451639286
 20
20.58110453717153
 10
62.13770650821586
 20
20.528207252018056
 10
61.9957652210784
 20
20.461074022957366
 10
61.86108762716864
 20
20.38035137968407
 10
61.73497074533817
 20
20.286816725380376
 10
61.618629150101526
 20
20.181370849898475
 10
61.51318327461962
 20
20.06502925466183
 10
61.419648620315925
 20
19.93891237283136
 10
61.338925977042635
 20
19.804234778921593
 10
61.27179274798194
 20
19.66229349178414
 10
61.21889546282846
 20
19.514455483607136
 10
61.18074355135483
 20
19.362144515225804
 10
61.15770443732448
 20
19.206827424527294
 10
61.15
 20
19.049999999999997
 10
61.15770443732448
 20
18.8931725754727
 10
61.18074355135483
 20
18.73785548477419
 10
61.21889546282846
 20
18.585544516392858
 10
61.27179274798194
 20
18.437706508215854
 10
61.338925977042635
 20
18.2957652210784
 10
61.419648620315925
 20
18.161087627168634
 10
61.51318327461962
 20
18.034970745338164
 10
61.618629150101526
 20
17.91862915010152
 10
61.73497074533817
 20
17.813183274619618
 10
61.86108762716864
 20
17.719648620315926
 10
61.9957652210784
 20
17.63892597704263
 10
62.13770650821586
 20
17.571792747981938
 10
62.28554451639286
 20
17.518895462828464
 10
62.4378554847742
 20
17.480743551354827
 10
62.5931725754727
 20
17.45770443732448
 10
62.75
 20
17.449999999999996
 10
62.9068274245273
 20
17.45770443732448
 10
63.0621445152258
 20
17.480743551354827
 10
63.21445548360714
 20
17.518895462828464
 10
63.36229349178414
 20
17.571792747981938
 10
63.5042347789216
 20
17.63892597704263
 10
63.63891237283136
 20
17.719648620315926
 10
63.76502925466183
 20
17.813183274619618
 10
63.881370849898474
 20
17.91862915010152
 10
63.98681672538038
 20
18.034970745338164
 10
64.08035137968407
 20
18.161087627168634
 10
64.16107402295737
 20
18.2957652210784
 10
64.22820725201805
 20
18.437706508215854
 10
64.28110453717153
 20
18.585544516392858
 10
64.31925644864516
 20
18.73785548477419
 10
64.34229556267552
 20
18.8931725754727
 10
64.35
 20
19.049999999999997
 10
64.34229556267552
 20
19.206827424527294
 10
64.31925644864516
 20
19.362144515225804
 10
64.28110453717153
 20
19.514455483607136
  0
LWPOLYLINE
  5
132
330
17
100
AcDbEntity
  8
0
 62
0
100
AcDbPolyline
 90
65
 70
0
 10
127.06925644864516
 20
19.362144515225804
 10
127.03110453717153
 20
19.514455483607136
 10
126.97820725201805
 20
19.66229349178414
 10
126.91107402295737
 20
19.804234778921593
 10
126.83035137968407
 20
19.93891237283136
 10
126.73681672538038
 20
20.06502925466183
 10
126.63137084989847
 20
20.181370849898475
 10
126.51502925466183
 20
20.286816725380376
 10
126.38891237283136
 20
20.380351379684072
 10
126.2542347789216
 20
20.461074022957366
 10
126.11229349178414
 20
20.528207252018056
 10
125.96445548360714
 20
20.58110453717153
 10
125.81214451522581
 20
20.619256448645167
 10
125.6568274245273
 20
20.642295562675514
 10
125.5
 20
20.65
 10
125.3431725754727
 20
20.642295562675514
 10
125.18785548477419
 20
20.619256448645167
 10
125.03554451639286
 20
20.58110453717153
 10
124.88770650821586
 20
20.528207252018056
 10
124.7457652210784
 20
20.461074022957366
 10
124.61108762716864
 20
20.38035137968407
 10
124.48497074533816
 20
20.286816725380376
 10
124.36862915010153
 20
20.181370849898475
 10
124.26318327461962
 20
20.06502925466183
 10
124.16964862031593
 20
19.93891237283136
 10
124.08892597704263
 20
19.804234778921593
 10
124.02179274798195
 20
19.66229349178414
 10
123.96889546282847
 20
19.514455483607136
 10
123.93074355135484
 20
19.362144515225804
 10
123.90770443732448
 20
19.206827424527294
 10
123.9
 20
19.049999999999997
 10
123.90770443732448
 20
18.8931725754727
 10
123.93074355135484
 20
18.73785548477419
 10
123.96889546282847
 20
18.585544516392858
 10
124.02179274798195
 20
18.437706508215854
 10
124.08892597704263
 20
18.2957652210784
 10
124.16964862031593
 20
18.161087627168634
 10
124.26318327461962
 20
18.034970745338164
 10
124.36862915010153
 20
17.91862915010152
 10
124.48497074533817
 20
17.813183274619618
 10
124.61108762716864
 20
17.719648620315926
 10
124.7457652210784
 20
17.63892597704263
 10
124.88770650821586
 20
17.571792747981938
 10
125.03554451639286
 20
17.518895462828464
 10
125.18785548477419
 20
17.480743551354827
 10
125.3431725754727
 20
17.45770443732448
 10
125.5
 20
17.449999999999996
 10
125.6568274245273
 20
17.45770443732448
 10
125.81214451522581
 20
17.480743551354827
 10
125.96445548360714
 20
17.518895462828464
 10
126.11229349178414
 20
17.571792747981938
 10
126.2542347789216
 20
17.63892597704263
 10
126.38891237283137
 20
17.719648620315926
 10
126.51502925466183
 20
17.813183274619618
 10
126.63137084989847
 20
17.91862915010152
 10
126.73681672538038
 20
18.034970745338164
 10
126.83035137968407
 20
18.161087627168634
 10
126.91107402295737
 20
18.2957652210784
 10
126.97820725201805
 20
18.437706508215854
 10
127.03110453717153
 20
18.585544516392858
 10
127.06925644864516
 20
18.73785548477419
 10
127.09229556267552
 20
18.8931725754727
 10
127.1
 20
19.049999999999997
 10
127.09229556267552
 20
19.206827424527294
 10
127.06925644864516
 20
19.362144515225804
  0
LWPOLYLINE
  5
133
330
17
100
AcDbEntity
  8
0
 62
0
100
AcDbPolyline
 90
65
 70
0
 10
189.8422955626755
 20
19.206827424527294
 10
189.81925644864518
 20
19.362144515225804
 10
189.78110453717153
 20
19.514455483607136
 10
189.72820725201805
 20
19.66229349178414
 10
189.66107402295737
 20
19.804234778921593
 10
189.58035137968406
 20
19.93891237283136
 10
189.48681672538038
 20
20.06502925466183
 10
189.38137084989847
 20
20.181370849898475
 10
189.26502925466184
 20
20.286816725380376
 10
189.13891237283136
 20
20.380351379684072
 10
189.00423477892159
 20
20.461074022957366
 10
188.86229349178416
 20
20.528207252018056
 10
188.71445548360714
 20
20.58110453717153
 10
188.5621445152258
 20
20.619256448645167
 10
188.4068274245273
 20
20.642295562675514
 10
188.25
 20
20.65
 10
188.0931725754727
 20
20.642295562675514
 10
187.9378554847742
 20
20.619256448645167
 10
187.78554451639286
 20
20.58110453717153
 10
187.63770650821584
 20
20.528207252018056
 10
187.49576522107841
 20
20.461074022957366
 10
187.36108762716864
 20
20.38035137968407
 10
187.23497074533816
 20
20.286816725380376
 10
187.11862915010153
 20
20.181370849898475
 10
187.01318327461962
 20
20.06502925466183
 10
186.91964862031594
 20
19.93891237283136
 10
186.83892597704263
 20
19.804234778921593
 10
186.77179274798195
 20
19.66229349178414
 10
186.71889546282847
 20
19.514455483607136
 10
186.68074355135482
 20
19.362144515225804
 10
186.6577044373245
 20
19.206827424527294
 10
186.65
 20
19.049999999999997
 10
186.6577044373245
 20
18.8931725754727
 10
186.68074355135482
 20
18.73785548477419
 10
186.71889546282847
 20
18.585544516392858
 10
186.77179274798195
 20
18.437706508215854
 10
186.83892597704263
 20
18.2957652210784
 10
186.91964862031594
 20
18.161087627168634
 10
187.01318327461962
 20
18.034970745338164
 10
187.11862915010153
 20
17.91862915010152
 10
187.23497074533816
 20
17.813183274619618
 10
187.36108762716864
 20
17.719648620315926
 10
187.49576522107841
 20
17.63892597704263
 10
187.63770650821584
 20
17.571792747981938
 10
187.78554451639286
 20
17.518895462828464
 10
187.9378554847742
 20
17.480743551354827
 10
188.0931725754727
 20
17.45770443732448
 10
188.25
 20
17.449999999999996
 10
188.4068274245273
 20
17.45770443732448
 10
188.5621445152258
 20
17.480743551354827
 10
188.71445548360714
 20
17.518895462828464
 10
188.86229349178416
 20
17.571792747981938
 10
189.00423477892159
 20
17.63892597704263
 10
189.13891237283136
 20
17.719648620315926
 10
189.26502925466184
 20
17.813183274619618
 10
189.38137084989847
 20
17.91862915010152
 10
189.48681672538038
 20
18.034970745338164
 10
189.58035137968406
 20
18.161087627168634
 10
189.66107402295737
 20
18.2957652210784
 10
189.72820725201805
 20
18.437706508215854
 10
189.78110453717153
 20
18.585544516392858
 10
189.81925644864518
 20
18.73785548477419
 10
189.8422955626755
 20
18.8931725754727
 10
189.85
 20
19.049999999999997
 10
189.8422955626755
 20
19.206827424527294
  0
ENDSEC
  0
SECTION
  2
OBJECTS
  0
DICTIONARY
  5
A
330
0
100
AcDbDictionary
280
0
281
1
  3
ACAD_COLOR
350
B
  3
ACAD_GROUP
350
C
  3
ACAD_LAYOUT
350
D
  3
ACAD_MATERIAL
350
E
  3
ACAD_MLEADERSTYLE
350
F
  3
ACAD_MLINESTYLE
350
10
  3
ACAD_PLOTSETTINGS
350
11
  3
ACAD_PLOTSTYLENAME
350
12
  3
ACAD_SCALELIST
350
14
  3
ACAD_TABLESTYLE
350
15
  3
ACAD_VISUALSTYLE
350
16
  3
EZDXF_META
350
2D
  0
DICTIONARY
  5
B
330
A
100
AcDbDictionary
280
0
281
1
  0
DICTIONARY
  5
C
330
A
100
AcDbDictionary
280
0
281
1
  0
DICTIONARY
  5
D
330
A
100
AcDbDictionary
280
0
281
1
  3
Model
350
1A
  3
Layout1
350
1E
  0
DICTIONARY
  5
E
330
A
100
AcDbDictionary
280
0
281
1
  3
ByBlock
350
1F
  3
ByLayer
350
20
  3
Global
350
21
  0
DICTIONARY
  5
F
330
A
100
AcDbDictionary
280
0
281
1
  3
Standard
350
2C
  0
DICTIONARY
  5
10
330
A
100
AcDbDictionary
280
0
281
1
  3
Standard
350
22
  0
DICTIONARY
  5
11
330
A
100
AcDbDictionary
280
0
281
1
  0
ACDBDICTIONARYWDFLT
  5
12
330
A
100
AcDbDictionary
280
0
281
1
  3
Normal
350
13
100
AcDbDictionaryWithDefault
340
13
  0
ACDBPLACEHOLDER
  5
13
330
12
  0
DICTIONARY
  5
14
330
A
100
AcDbDictionary
280
0
281
1
  0
DICTIONARY
  5
15
330
A
100
AcDbDictionary
280
0
281
1
  0
DICTIONARY
  5
16
330
A
100
AcDbDictionary
280
0
281
1
  0
LAYOUT
  5
1A
330
D
100
AcDbPlotSettings
  1

  2
Adobe PDF
  4
A3
  6

 40
7.5
 41
20.0
 42
7.5
 43
20.0
 44
420.0
 45
297.0
 46
0.0
 47
0.0
 48
0.0
 49
0.0
140
0.0
141
0.0
142
1.0
143
1.0
 70
1024
 72
1
 73
0
 74
5
  7

 75
16
 76
0
 77
2
 78
300
147
1.0
148
0.0
149
0.0
100
AcDbLayout
  1
Model
 70
1
 71
0
 10
0.0
 20
0.0
 11
420.0
 21
297.0
 12
0.0
 22
0.0
 32
0.0
 14
1e+20
 24
1e+20
 34
1e+20
 15
-1e+20
 25
-1e+20
 35
-1e+20
146
0.0
 13
0.0
 23
0.0
 33
0.0
 16
1.0
 26
0.0
 36
0.0
 17
0.0
 27
1.0
 37
0.0
 76
1
330
17
  0
LAYOUT
  5
1E
330
D
100
AcDbPlotSettings
  1

  2
Adobe PDF
  4
A3
  6

 40
7.5
 41
20.0
 42
7.5
 43
20.0
 44
420.0
 45
297.0
 46
0.0
 47
0.0
 48
0.0
 49
0.0
140
0.0
141
0.0
142
1.0
143
1.0
 70
0
 72
1
 73
0
 74
5
  7

 75
16
 76
0
 77
2
 78
300
147
1.0
148
0.0
149
0.0
100
AcDbLayout
  1
Layout1
 70
1
 71
1
 10
0.0
 20
0.0
 11
420.0
 21
297.0
 12
0.0
 22
0.0
 32
0.0
 14
1e+20
 24
1e+20
 34
1e+20
 15
-1e+20
 25
-1e+20
 35
-1e+20
146
0.0
 13
0.0
 23
0.0
 33
0.0
 16
1.0
 26
0.0
 36
0.0
 17
0.0
 27
1.0
 37
0.0
 76
1
330
1B
  0
MATERIAL
  5
1F
102
{ACAD_REACTORS
330
E
102
}
330
E
100
AcDbMaterial
  1
ByBlock
  2

 70
0
 40
1.0
 71
1
 41
1.0
 91
-1023410177
 42
1.0
 72
1
  3

 73
1
 74
1
 75
1
 44
0.5
 73
0
 45
1.0
 46
1.0
 77
1
  4

 78
1
 79
1
170
1
 48
1.0
171
1
  6

172
1
173
1
174
1
140
1.0
141
1.0
175
1
  7

176
1
177
1
178
1
143
1.0
179
1
  8

270
1
271
1
272
1
145
1.0
146
1.0
273
1
  9

274
1
275
1
276
1
 42
1.0
 72
1
  3

 73
1
 74
1
 75
1
 94
63
  0
MATERIAL
  5
20
102
{ACAD_REACTORS
330
E
102
}
330
E
100
AcDbMaterial
  1
ByLayer
  2

 70
0
 40
1.0
 71
1
 41
1.0
 91
-1023410177
 42
1.0
 72
1
  3

 73
1
 74
1
 75
1
 44
0.5
 73
0
 45
1.0
 46
1.0
 77
1
  4

 78
1
 79
1
170
1
 48
1.0
171
1
  6

172
1
173
1
174
1
140
1.0
141
1.0
175
1
  7

176
1
177
1
178
1
143
1.0
179
1
  8

270
1
271
1
272
1
145
1.0
146
1.0
273
1
  9

274
1
275
1
276
1
 42
1.0
 72
1
  3

 73
1
 74
1
 75
1
 94
63
  0
MATERIAL
  5
21
102
{ACAD_REACTORS
330
E
102
}
330
E
100
AcDbMaterial
  1
Global
  2

 70
0
 40
1.0
 71
1
 41
1.0
 91
-1023410177
 42
1.0
 72
1
  3

 73
1
 74
1
 75
1
 44
0.5
 73
0
 45
1.0
 46
1.0
 77
1
  4

 78
1
 79
1
170
1
 48
1.0
171
1
  6

172
1
173
1
174
1
140
1.0
141
1.0
175
1
  7

176
1
177
1
178
1
143
1.0
179
1
  8

270
1
271
1
272
1
145
1.0
146
1.0
273
1
  9

274
1
275
1
276
1
 42
1.0
 72
1
  3

 73
1
 74
1
 75
1
 94
63
  0
MLINESTYLE
  5
22
102
{ACAD_REACTORS
330
10
102
}
330
10
100
AcDbMlineStyle
  2
Standard
 70
0
  3

 62
256
 51
90.0
 52
90.0
 71
2
 49
0.5
 62
256
  6
BYLAYER
 49
-0.5
 62
256
  6
BYLAYER
  0
MLEADERSTYLE
  5
2C
102
{ACAD_REACTORS
330
F
102
}
330
F
100
AcDbMLeaderStyle
179
2
170
2
171
1
172
0
 90
2
 40
0.0
 41
0.0
173
1
 91
-1056964608
 92
-2
290
1
 42
2.0
291
1
 43
8.0
  3
Standard
 44
4.0
300

342
29
174
1
175
1
176
0
178
1
 93
-1056964608
 45
4.0
292
0
297
0
 46
4.0
 94
-1056964608
 47
1.0
 49
1.0
140
1.0
294
1
141
0.0
177
0
142
1.0
295
0
296
0
143
3.75
271
0
272
9
273
9
  0
DICTIONARY
  5
2D
330
A
100
AcDbDictionary
281
1
  3
CREATED_BY_EZDXF
350
2E
  3
WRITTEN_BY_EZDXF
350
136
  0
DICTIONARYVAR
  5
2E
330
2D
100
DictionaryVariables
280
0
  1
1.1.1 @ 2024-06-06T20:48:10.215308+00:00
  0
DICTIONARYVAR
  5
136
330
2D
100
DictionaryVariables
280
0
  1
1.1.1 @ 2024-06-06T20:48:10.256273+00:00
  0
ENDSEC
  0
EOF
