  0
SECTION
  2
HEADER
  9
$ACADVER
  1
AC1032
  9
$ACADMAINTVER
 90
4
  9
$DWGCODEPAGE
  3
ANSI_1252
  9
$LASTSAVEDBY
  1
ezdxf
  9
$REQUIREDVERSIONS
160
0
  9
$INSBASE
 10
0.0
 20
0.0
 30
0.0
  9
$EXTMIN
 10
1e+20
 20
1e+20
 30
1e+20
  9
$EXTMAX
 10
-1e+20
 20
-1e+20
 30
-1e+20
  9
$LIMMIN
 10
0.0
 20
0.0
  9
$LIMMAX
 10
420.0
 20
297.0
  9
$ORTHOMODE
 70
0
  9
$REGENMODE
 70
1
  9
$FILLMODE
 70
1
  9
$QTEXTMODE
 70
0
  9
$MIRRTEXT
 70
1
  9
$LTSCALE
 40
1.0
  9
$ATTMODE
 70
1
  9
$TEXTSIZE
 40
2.5
  9
$TRACEWID
 40
1.0
  9
$TEXTSTYLE
  7
Standard
  9
$CLAYER
  8
0
  9
$CELTYPE
  6
ByLayer
  9
$CECOLOR
 62
256
  9
$CELTSCALE
 40
1.0
  9
$DISPSILH
 70
0
  9
$DIMSCALE
 40
1.0
  9
$DIMASZ
 40
2.5
  9
$DIMEXO
 40
0.625
  9
$DIMDLI
 40
3.75
  9
$DIMRND
 40
0.0
  9
$DIMDLE
 40
0.0
  9
$DIMEXE
 40
1.25
  9
$DIMTP
 40
0.0
  9
$DIMTM
 40
0.0
  9
$DIMTXT
 40
2.5
  9
$DIMCEN
 40
2.5
  9
$DIMTSZ
 40
0.0
  9
$DIMTOL
 70
0
  9
$DIMLIM
 70
0
  9
$DIMTIH
 70
0
  9
$DIMTOH
 70
0
  9
$DIMSE1
 70
0
  9
$DIMSE2
 70
0
  9
$DIMTAD
 70
1
  9
$DIMZIN
 70
8
  9
$DIMBLK
  1

  9
$DIMASO
 70
1
  9
$DIMSHO
 70
1
  9
$DIMPOST
  1

  9
$DIMAPOST
  1

  9
$DIMALT
 70
0
  9
$DIMALTD
 70
3
  9
$DIMALTF
 40
0.03937007874
  9
$DIMLFAC
 40
1.0
  9
$DIMTOFL
 70
1
  9
$DIMTVP
 40
0.0
  9
$DIMTIX
 70
0
  9
$DIMSOXD
 70
0
  9
$DIMSAH
 70
0
  9
$DIMBLK1
  1

  9
$DIMBLK2
  1

  9
$DIMSTYLE
  2
ISO-25
  9
$DIMCLRD
 70
0
  9
$DIMCLRE
 70
0
  9
$DIMCLRT
 70
0
  9
$DIMTFAC
 40
1.0
  9
$DIMGAP
 40
0.625
  9
$DIMJUST
 70
0
  9
$DIMSD1
 70
0
  9
$DIMSD2
 70
0
  9
$DIMTOLJ
 70
0
  9
$DIMTZIN
 70
8
  9
$DIMALTZ
 70
0
  9
$DIMALTTZ
 70
0
  9
$DIMUPT
 70
0
  9
$DIMDEC
 70
2
  9
$DIMTDEC
 70
2
  9
$DIMALTU
 70
2
  9
$DIMALTTD
 70
3
  9
$DIMTXSTY
  7
Standard
  9
$DIMAUNIT
 70
0
  9
$DIMADEC
 70
0
  9
$DIMALTRND
 40
0.0
  9
$DIMAZIN
 70
0
  9
$DIMDSEP
 70
44
  9
$DIMATFIT
 70
3
  9
$DIMFRAC
 70
0
  9
$DIMLDRBLK
  1

  9
$DIMLUNIT
 70
2
  9
$DIMLWD
 70
-2
  9
$DIMLWE
 70
-2
  9
$DIMTMOVE
 70
0
  9
$DIMFXL
 40
1.0
  9
$DIMFXLON
 70
0
  9
$DIMJOGANG
 40
0.785398163397
  9
$DIMTFILL
 70
0
  9
$DIMTFILLCLR
 70
0
  9
$DIMARCSYM
 70
0
  9
$DIMLTYPE
  6

  9
$DIMLTEX1
  6

  9
$DIMLTEX2
  6

  9
$DIMTXTDIRECTION
 70
0
  9
$LUNITS
 70
2
  9
$LUPREC
 70
4
  9
$SKETCHINC
 40
1.0
  9
$FILLETRAD
 40
10.0
  9
$AUNITS
 70
0
  9
$AUPREC
 70
2
  9
$MENU
  1
.
  9
$ELEVATION
 40
0.0
  9
$PELEVATION
 40
0.0
  9
$THICKNESS
 40
0.0
  9
$LIMCHECK
 70
0
  9
$CHAMFERA
 40
0.0
  9
$CHAMFERB
 40
0.0
  9
$CHAMFERC
 40
0.0
  9
$CHAMFERD
 40
0.0
  9
$SKPOLY
 70
0
  9
$TDCREATE
 40
2460468.6584490743
  9
$TDUCREATE
 40
2458532.153996898
  9
$TDUPDATE
 40
2460468.6584490743
  9
$TDUUPDATE
 40
2458532.1544311
  9
$TDINDWG
 40
0.0
  9
$TDUSRTIMER
 40
0.0
  9
$USRTIMER
 70
1
  9
$ANGBASE
 50
0.0
  9
$ANGDIR
 70
0
  9
$PDMODE
 70
0
  9
$PDSIZE
 40
0.0
  9
$PLINEWID
 40
0.0
  9
$SPLFRAME
 70
0
  9
$SPLINETYPE
 70
6
  9
$SPLINESEGS
 70
8
  9
$HANDSEED
  5
78
  9
$SURFTAB1
 70
6
  9
$SURFTAB2
 70
6
  9
$SURFTYPE
 70
6
  9
$SURFU
 70
6
  9
$SURFV
 70
6
  9
$UCSBASE
  2

  9
$UCSNAME
  2

  9
$UCSORG
 10
0.0
 20
0.0
 30
0.0
  9
$UCSXDIR
 10
1.0
 20
0.0
 30
0.0
  9
$UCSYDIR
 10
0.0
 20
1.0
 30
0.0
  9
$UCSORTHOREF
  2

  9
$UCSORTHOVIEW
 70
0
  9
$UCSORGTOP
 10
0.0
 20
0.0
 30
0.0
  9
$UCSORGBOTTOM
 10
0.0
 20
0.0
 30
0.0
  9
$UCSORGLEFT
 10
0.0
 20
0.0
 30
0.0
  9
$UCSORGRIGHT
 10
0.0
 20
0.0
 30
0.0
  9
$UCSORGFRONT
 10
0.0
 20
0.0
 30
0.0
  9
$UCSORGBACK
 10
0.0
 20
0.0
 30
0.0
  9
$PUCSBASE
  2

  9
$PUCSNAME
  2

  9
$PUCSORG
 10
0.0
 20
0.0
 30
0.0
  9
$PUCSXDIR
 10
1.0
 20
0.0
 30
0.0
  9
$PUCSYDIR
 10
0.0
 20
1.0
 30
0.0
  9
$PUCSORTHOREF
  2

  9
$PUCSORTHOVIEW
 70
0
  9
$PUCSORGTOP
 10
0.0
 20
0.0
 30
0.0
  9
$PUCSORGBOTTOM
 10
0.0
 20
0.0
 30
0.0
  9
$PUCSORGLEFT
 10
0.0
 20
0.0
 30
0.0
  9
$PUCSORGRIGHT
 10
0.0
 20
0.0
 30
0.0
  9
$PUCSORGFRONT
 10
0.0
 20
0.0
 30
0.0
  9
$PUCSORGBACK
 10
0.0
 20
0.0
 30
0.0
  9
$USERI1
 70
0
  9
$USERI2
 70
0
  9
$USERI3
 70
0
  9
$USERI4
 70
0
  9
$USERI5
 70
0
  9
$USERR1
 40
0.0
  9
$USERR2
 40
0.0
  9
$USERR3
 40
0.0
  9
$USERR4
 40
0.0
  9
$USERR5
 40
0.0
  9
$WORLDVIEW
 70
1
  9
$SHADEDGE
 70
3
  9
$SHADEDIF
 70
70
  9
$TILEMODE
 70
1
  9
$MAXACTVP
 70
64
  9
$PINSBASE
 10
0.0
 20
0.0
 30
0.0
  9
$PLIMCHECK
 70
0
  9
$PEXTMIN
 10
1e+20
 20
1e+20
 30
1e+20
  9
$PEXTMAX
 10
-1e+20
 20
-1e+20
 30
-1e+20
  9
$PLIMMIN
 10
0.0
 20
0.0
  9
$PLIMMAX
 10
420.0
 20
297.0
  9
$UNITMODE
 70
0
  9
$VISRETAIN
 70
1
  9
$PLINEGEN
 70
0
  9
$PSLTSCALE
 70
1
  9
$TREEDEPTH
 70
3020
  9
$CMLSTYLE
  2
Standard
  9
$CMLJUST
 70
0
  9
$CMLSCALE
 40
20.0
  9
$PROXYGRAPHICS
 70
1
  9
$MEASUREMENT
 70
1
  9
$CELWEIGHT
370
-1
  9
$ENDCAPS
280
0
  9
$JOINSTYLE
280
0
  9
$LWDISPLAY
290
0
  9
$INSUNITS
 70
4
  9
$HYPERLINKBASE
  1

  9
$STYLESHEET
  1

  9
$XEDIT
290
1
  9
$CEPSNTYPE
380
0
  9
$PSTYLEMODE
290
1
  9
$FINGERPRINTGUID
  2
{FA33812D-474C-46E0-B435-457B0D8DF7A4}
  9
$VERSIONGUID
  2
{6A125667-462F-4189-A3AF-6F7447BE08F3}
  9
$EXTNAMES
290
1
  9
$PSVPSCALE
 40
0.0
  9
$OLESTARTUP
290
0
  9
$SORTENTS
280
127
  9
$INDEXCTL
280
0
  9
$HIDETEXT
280
1
  9
$XCLIPFRAME
280
0
  9
$HALOGAP
280
0
  9
$OBSCOLOR
 70
257
  9
$OBSLTYPE
280
0
  9
$INTERSECTIONDISPLAY
280
0
  9
$INTERSECTIONCOLOR
 70
257
  9
$DIMASSOC
280
2
  9
$PROJECTNAME
  1

  9
$CAMERADISPLAY
290
0
  9
$LENSLENGTH
 40
50.0
  9
$CAMERAHEIGHT
 40
0.0
  9
$STEPSPERSEC
 40
24.0
  9
$STEPSIZE
 40
100.0
  9
$3DDWFPREC
 40
2.0
  9
$PSOLWIDTH
 40
0.005
  9
$PSOLHEIGHT
 40
0.08
  9
$LOFTANG1
 40
1.570796326795
  9
$LOFTANG2
 40
1.570796326795
  9
$LOFTMAG1
 40
0.0
  9
$LOFTMAG2
 40
0.0
  9
$LOFTPARAM
 70
7
  9
$LOFTNORMALS
280
1
  9
$LATITUDE
 40
37.795
  9
$LONGITUDE
 40
-122.394
  9
$NORTHDIRECTION
 40
0.0
  9
$TIMEZONE
 70
-8000
  9
$LIGHTGLYPHDISPLAY
280
1
  9
$TILEMODELIGHTSYNCH
280
1
  9
$CMATERIAL
347
20
  9
$SOLIDHIST
280
0
  9
$SHOWHIST
280
1
  9
$DWFFRAME
280
2
  9
$DGNFRAME
280
2
  9
$REALWORLDSCALE
290
1
  9
$INTERFERECOLOR
 62
256
  9
$CSHADOW
280
0
  9
$SHADOWPLANELOCATION
 40
0.0
  0
ENDSEC
  0
SECTION
  2
CLASSES
  0
CLASS
  1
ACDBDICTIONARYWDFLT
  2
AcDbDictionaryWithDefault
  3
ObjectDBX Classes
 90
0
 91
0
280
0
281
0
  0
CLASS
  1
SUN
  2
AcDbSun
  3
SCENEOE
 90
1153
 91
0
280
0
281
0
  0
CLASS
  1
VISUALSTYLE
  2
AcDbVisualStyle
  3
ObjectDBX Classes
 90
4095
 91
0
280
0
281
0
  0
CLASS
  1
MATERIAL
  2
AcDbMaterial
  3
ObjectDBX Classes
 90
1153
 91
0
280
0
281
0
  0
CLASS
  1
SCALE
  2
AcDbScale
  3
ObjectDBX Classes
 90
1153
 91
0
280
0
281
0
  0
CLASS
  1
TABLESTYLE
  2
AcDbTableStyle
  3
ObjectDBX Classes
 90
4095
 91
0
280
0
281
0
  0
CLASS
  1
MLEADERSTYLE
  2
AcDbMLeaderStyle
  3
ACDB_MLEADERSTYLE_CLASS
 90
4095
 91
0
280
0
281
0
  0
CLASS
  1
DICTIONARYVAR
  2
AcDbDictionaryVar
  3
ObjectDBX Classes
 90
0
 91
0
280
0
281
0
  0
CLASS
  1
CELLSTYLEMAP
  2
AcDbCellStyleMap
  3
ObjectDBX Classes
 90
1152
 91
0
280
0
281
0
  0
CLASS
  1
MENTALRAYRENDERSETTINGS
  2
AcDbMentalRayRenderSettings
  3
SCENEOE
 90
1024
 91
0
280
0
281
0
  0
CLASS
  1
ACDBDETAILVIEWSTYLE
  2
AcDbDetailViewStyle
  3
ObjectDBX Classes
 90
1025
 91
0
280
0
281
0
  0
CLASS
  1
ACDBSECTIONVIEWSTYLE
  2
AcDbSectionViewStyle
  3
ObjectDBX Classes
 90
1025
 91
0
280
0
281
0
  0
CLASS
  1
RASTERVARIABLES
  2
AcDbRasterVariables
  3
ISM
 90
0
 91
0
280
0
281
0
  0
CLASS
  1
ACDBPLACEHOLDER
  2
AcDbPlaceHolder
  3
ObjectDBX Classes
 90
0
 91
0
280
0
281
0
  0
CLASS
  1
LAYOUT
  2
AcDbLayout
  3
ObjectDBX Classes
 90
0
 91
0
280
0
281
0
  0
ENDSEC
  0
SECTION
  2
TABLES
  0
TABLE
  2
VPORT
  5
8
330
0
100
AcDbSymbolTable
 70
1
  0
VPORT
  5
23
330
8
100
AcDbSymbolTableRecord
100
AcDbViewportTableRecord
  2
*Active
 70
0
 10
0.0
 20
0.0
 11
1.0
 21
1.0
 12
0.0
 22
0.0
 13
0.0
 23
0.0
 14
0.5
 24
0.5
 15
0.5
 25
0.5
 16
0.0
 26
0.0
 36
1.0
 17
0.0
 27
0.0
 37
0.0
 40
1000.0
 41
1.34
 42
50.0
 43
0.0
 44
0.0
 50
0.0
 51
0.0
 71
0
 72
1000
 73
1
 74
3
 75
0
 76
0
 77
0
 78
0
281
0
 65
0
146
0.0
  0
ENDTAB
  0
TABLE
  2
LTYPE
  5
2
330
0
100
AcDbSymbolTable
 70
3
  0
LTYPE
  5
24
330
2
100
AcDbSymbolTableRecord
100
AcDbLinetypeTableRecord
  2
ByBlock
 70
0
  3

 72
65
 73
0
 40
0.0
  0
LTYPE
  5
25
330
2
100
AcDbSymbolTableRecord
100
AcDbLinetypeTableRecord
  2
ByLayer
 70
0
  3

 72
65
 73
0
 40
0.0
  0
LTYPE
  5
26
330
2
100
AcDbSymbolTableRecord
100
AcDbLinetypeTableRecord
  2
Continuous
 70
0
  3

 72
65
 73
0
 40
0.0
  0
ENDTAB
  0
TABLE
  2
LAYER
  5
1
330
0
100
AcDbSymbolTable
 70
2
  0
LAYER
  5
27
330
1
100
AcDbSymbolTableRecord
100
AcDbLayerTableRecord
  2
0
 70
0
 62
7
  6
Continuous
370
-3
390
13
347
21
  0
LAYER
  5
28
330
1
100
AcDbSymbolTableRecord
100
AcDbLayerTableRecord
  2
Defpoints
 70
0
 62
7
  6
Continuous
290
0
370
-3
390
13
347
21
  0
ENDTAB
  0
TABLE
  2
STYLE
  5
5
330
0
100
AcDbSymbolTable
 70
1
  0
STYLE
  5
29
330
5
100
AcDbSymbolTableRecord
100
AcDbTextStyleTableRecord
  2
Standard
 70
0
 40
0.0
 41
1.0
 50
0.0
 71
0
 42
2.5
  3
txt
  4

  0
ENDTAB
  0
TABLE
  2
VIEW
  5
7
330
0
100
AcDbSymbolTable
 70
0
  0
ENDTAB
  0
TABLE
  2
UCS
  5
6
330
0
100
AcDbSymbolTable
 70
0
  0
ENDTAB
  0
TABLE
  2
APPID
  5
3
330
0
100
AcDbSymbolTable
 70
3
  0
APPID
  5
2A
330
3
100
AcDbSymbolTableRecord
100
AcDbRegAppTableRecord
  2
ACAD
 70
0
  0
APPID
  5
75
330
3
100
AcDbSymbolTableRecord
100
AcDbRegAppTableRecord
  2
HATCHBACKGROUNDCOLOR
 70
0
  0
APPID
  5
76
330
3
100
AcDbSymbolTableRecord
100
AcDbRegAppTableRecord
  2
EZDXF
 70
0
  0
ENDTAB
  0
TABLE
  2
DIMSTYLE
  5
4
330
0
100
AcDbSymbolTable
 70
1
100
AcDbDimStyleTable
  0
DIMSTYLE
105
2B
330
4
100
AcDbSymbolTableRecord
100
AcDbDimStyleTableRecord
  2
Standard
 70
0
 40
1.0
 41
2.5
 42
0.625
 43
3.75
 44
1.25
 45
0.0
 46
0.0
 47
0.0
 48
0.0
 49
2.5
140
2.5
141
2.5
142
0.0
143
0.03937007874
144
1.0
145
0.0
146
1.0
147
0.625
148
0.0
 69
0
 70
0
 71
0
 72
0
 73
0
 74
0
 75
0
 76
0
 77
1
 78
8
 79
3
170
0
171
3
172
1
173
0
174
0
175
0
176
0
177
0
178
0
179
2
271
2
272
2
273
2
274
3
275
0
276
0
277
2
278
44
279
0
280
0
281
0
282
0
283
0
284
8
285
0
286
0
288
0
289
3
290
0
371
-2
372
-2
  0
ENDTAB
  0
TABLE
  2
BLOCK_RECORD
  5
9
330
0
100
AcDbSymbolTable
 70
2
  0
BLOCK_RECORD
  5
17
330
9
100
AcDbSymbolTableRecord
100
AcDbBlockTableRecord
  2
*Model_Space
340
1A
 70
0
280
1
281
0
  0
BLOCK_RECORD
  5
1B
330
9
100
AcDbSymbolTableRecord
100
AcDbBlockTableRecord
  2
*Paper_Space
340
1E
 70
0
280
1
281
0
  0
ENDTAB
  0
ENDSEC
  0
SECTION
  2
BLOCKS
  0
BLOCK
  5
18
330
17
100
AcDbEntity
  8
0
100
AcDbBlockBegin
  2
*Model_Space
 70
0
 10
0.0
 20
0.0
 30
0.0
  3
*Model_Space
  1

  0
ENDBLK
  5
19
330
17
100
AcDbEntity
  8
0
100
AcDbBlockEnd
  0
BLOCK
  5
1C
330
1B
100
AcDbEntity
  8
0
100
AcDbBlockBegin
  2
*Paper_Space
 70
0
 10
0.0
 20
0.0
 30
0.0
  3
*Paper_Space
  1

  0
ENDBLK
  5
1D
330
1B
100
AcDbEntity
  8
0
100
AcDbBlockEnd
  0
ENDSEC
  0
SECTION
  2
ENTITIES
  0
LWPOLYLINE
  5
2F
330
17
100
AcDbEntity
  8
0
 62
0
100
AcDbPolyline
 90
103
 70
0
 10
220.5757575757576
 20
4.652970608551371
 10
218.04040404040404
 20
7.274071312497474
 10
215.50505050505052
 20
10.320784761092796
 10
212.96969696969697
 20
13.682994792170778
 10
210.43434343434345
 20
17.239182375055318
 10
207.8989898989899
 20
20.860817624944698
 10
205.36363636363637
 20
24.41700520782924
 10
202.82828282828285
 20
27.779215238907128
 10
200.2929292929293
 20
30.825928687502536
 10
197.75757575757578
 20
33.447029391448595
 10
195.22222222222223
 20
35.547783942093545
 10
192.6868686868687
 20
37.05226559651442
 10
190.15151515151516
 20
37.90609846783176
 10
187.61616161616163
 20
38.0784228114363
 10
185.08080808080808
 20
37.56301037656346
 10
182.54545454545456
 20
36.378489511503574
 10
180.010101010101
 20
34.567671886558884
 10
177.4747474747475
 20
32.19600516873423
 10
174.93939393939394
 20
29.349207572529117
 10
172.40404040404042
 20
26.130169780329233
 10
169.86868686868686
 20
22.655236205065787
 10
167.33333333333334
 20
19.049999999999986
 10
164.7979797979798
 20
15.444763794934154
 10
162.26262626262627
 20
11.969830219670776
 10
159.72727272727275
 20
8.750792427470891
 10
157.1919191919192
 20
5.9039948312657735
 10
154.65656565656568
 20
3.5323281134411193
 10
152.12121212121212
 20
1.721510488496424
 10
149.5858585858586
 20
0.5369896234365363
 10
147.05050505050505
 20
0.021577188563696836
 10
144.51515151515153
 20
0.1939015321682298
 10
141.97979797979798
 20
1.047734403485567
 10
139.44444444444446
 20
2.552216057906442
 10
136.9090909090909
 20
4.65297060855139
 10
134.37373737373738
 20
7.2740713124974725
 10
131.83838383838383
 20
10.32078476109285
 10
129.3030303030303
 20
13.682994792170772
 10
126.76767676767678
 20
17.239182375055314
 10
124.23232323232324
 20
20.86081762494466
 10
121.6969696969697
 20
24.417005207829234
 10
119.16161616161617
 20
27.779215238907156
 10
116.62626262626263
 20
30.825928687502532
 10
114.0909090909091
 20
33.44702939144861
 10
111.55555555555556
 20
35.54778394209356
 10
109.02020202020202
 20
37.05226559651443
 10
106.48484848484848
 20
37.90609846783177
 10
103.94949494949495
 20
38.0784228114363
 10
101.41414141414143
 20
37.56301037656347
 10
98.87878787878789
 20
36.378489511503574
 10
96.34343434343435
 20
34.5676718865589
 10
93.80808080808082
 20
32.19600516873423
 10
91.27272727272728
 20
29.34920757252913
 10
88.73737373737374
 20
26.130169780329236
 10
86.20202020202021
 20
22.65523620506581
 10
83.66666666666667
 20
19.049999999999994
 10
81.13131313131314
 20
15.444763794934193
 10
78.5959595959596
 20
11.969830219670765
 10
76.06060606060606
 20
8.750792427470865
 10
73.52525252525253
 20
5.903994831265765
 10
70.98989898989899
 20
3.5323281134411015
 10
68.45454545454545
 20
1.7215104884964205
 10
65.91919191919192
 20
0.5369896234365257
 10
63.38383838383839
 20
0.021577188563696836
 10
60.84848484848485
 20
0.19390153216823336
 10
58.313131313131315
 20
1.047734403485567
 10
55.77777777777778
 20
2.552216057906449
 10
53.24242424242424
 20
4.652970608551382
 10
50.70707070707071
 20
7.274071312497462
 10
48.17171717171718
 20
10.320784761092824
 10
45.63636363636364
 20
13.68299479217076
 10
43.101010101010104
 20
17.239182375055318
 10
40.56565656565657
 20
20.860817624944673
 10
38.03030303030303
 20
24.41700520782923
 10
35.494949494949495
 20
27.779215238907167
 10
32.95959595959596
 20
30.825928687502532
 10
30.424242424242426
 20
33.447029391448616
 10
27.88888888888889
 20
35.54778394209355
 10
25.353535353535356
 20
37.05226559651443
 10
22.81818181818182
 20
37.90609846783176
 10
20.282828282828284
 20
38.0784228114363
 10
17.747474747474747
 20
37.56301037656346
 10
15.212121212121213
 20
36.378489511503574
 10
12.676767676767678
 20
34.56767188655889
 10
10.141414141414142
 20
32.19600516873423
 10
7.606060606060606
 20
29.34920757252913
 10
5.070707070707071
 20
26.130169780329236
 10
2.5353535353535355
 20
22.655236205065812
 10
0.0
 20
19.049999999999997
 10
0.0
 20
143.04999999999995
 10
251.0
 20
143.04999999999995
 10
251.0
 20
19.049999999999983
 10
248.46464646464648
 20
15.444763794934216
 10
245.92929292929293
 20
11.96983021967077
 10
243.3939393939394
 20
8.75079242747086
 10
240.85858585858588
 20
5.903994831265795
 10
238.32323232323233
 20
3.5323281134411157
 10
235.7878787878788
 20
1.721510488496424
 10
233.25252525252526
 20
0.5369896234365257
 10
230.71717171717174
 20
0.021577188563696836
 10
228.1818181818182
 20
0.1939015321682298
 10
225.64646464646466
 20
1.0477344034855705
 10
223.11111111111111
 20
2.5522160579064597
 10
220.5757575757576
 20
4.652970608551371
  0
LWPOLYLINE
  5
30
330
17
100
AcDbEntity
  8
0
 62
0
100
AcDbPolyline
 90
10
 70
0
 10
212.3706340477802
 20
41.404734001960605
 10
213.75170293077826
 20
34.20894489949569
 10
222.57468652573996
 20
30.85200863057112
 10
223.48377901776936
 20
31.396897700876966
 10
224.72576528022208
 20
31.98431345515801
 10
226.01934785177087
 20
32.44716470025092
 10
226.75190698574852
 20
32.63066121088136
 10
233.7338042189367
 20
36.9406258482486
 10
228.1870791055262
 20
48.13581713475287
 10
212.3706340477802
 20
41.404734001960605
  0
LWPOLYLINE
  5
31
330
17
100
AcDbEntity
  8
0
 62
0
100
AcDbPolyline
 90
15
 70
0
 10
145.04442670205285
 20
32.98258617341075
 10
146.41666666666669
 20
33.05
 10
147.78890663128053
 20
32.98258617341075
 10
148.79932842234263
 20
32.83270425920329
 10
138.52682444173843
 20
39.18486142763868
 10
131.71167578268796
 20
31.06583759142086
 10
135.88587842952668
 20
28.252970114659018
 10
136.51717173005503
 20
28.94949493661166
 10
137.53516068837564
 20
29.87214634707831
 10
138.63868340439225
 20
30.690574572235633
 10
139.8171123511027
 20
31.396897700876966
 10
141.05909861355542
 20
31.98431345515801
 10
142.35268118510422
 20
32.44716470025092
 10
143.6854021584409
 20
32.78099392564522
 10
145.04442670205285
 20
32.98258617341075
  0
LWPOLYLINE
  5
32
330
17
100
AcDbEntity
  8
0
 62
0
100
AcDbPolyline
 90
15
 70
0
 10
64.12223996461384
 20
32.98258617341075
 10
64.32470481035861
 20
32.9525533505754
 10
62.50349196512252
 20
39.945815744809806
 10
55.205044558271766
 20
41.95655903266743
 10
50.746663766913116
 20
37.47514963848516
 10
52.944712118459506
 20
29.03487923427705
 10
53.868494021708955
 20
29.87214634707831
 10
54.97201673772557
 20
30.690574572235633
 10
56.15044568443603
 20
31.396897700876966
 10
57.392431946888735
 20
31.98431345515801
 10
58.686014518437524
 20
32.44716470025092
 10
60.0187354917742
 20
32.78099392564522
 10
61.37776003538615
 20
32.98258617341075
 10
62.75
 20
33.05
 10
64.12223996461384
 20
32.98258617341075
  0
LWPOLYLINE
  5
33
330
17
100
AcDbEntity
  8
0
 62
0
100
AcDbPolyline
 90
9
 70
0
 10
11.136982172261924
 20
46.03537434292957
 10
8.0
 20
45.01992878571183
 10
8.0
 20
41.05551697957021
 10
8.027115782503973
 20
41.07772083124202
 10
10.562469317857508
 20
42.8885384561867
 10
11.177256806831299
 20
43.28644646207329
 10
11.825854847955425
 20
43.626468547822554
 10
13.130805973977445
 20
44.23614361487033
 10
11.136982172261924
 20
46.03537434292957
  0
LWPOLYLINE
  5
34
330
17
100
AcDbEntity
  8
0
 62
0
100
AcDbPolyline
 90
11
 70
0
 10
24.713446344340678
 20
45.67835504979583
 10
25.371446799721884
 20
45.48771029738629
 10
27.246299623560166
 20
44.85631473556299
 10
29.679515107069165
 20
56.24196399655193
 10
24.535970176104456
 20
60.8835095949471
 10
17.944501309655607
 20
58.74984181905165
 10
16.496577374171466
 20
51.97462844429538
 10
23.23216737865938
 20
45.89641807405955
 10
23.360678695072448
 20
45.88768334419334
 10
24.041547972797147
 20
45.81200608503434
 10
24.713446344340678
 20
45.67835504979583
  0
LWPOLYLINE
  5
35
330
17
100
AcDbEntity
  8
0
 62
0
100
AcDbPolyline
 90
9
 70
0
 10
44.544309824600255
 20
29.06111066354938
 10
44.74398634375412
 20
28.781036445848777
 10
43.04516704939306
 20
35.304320705123246
 10
38.84179834116055
 20
36.24077997392829
 10
39.108912711316336
 20
35.943145068212964
 10
41.64426624666987
 20
32.8964316196176
 10
41.8824384558628
 20
32.5958514898826
 10
44.41779199121633
 20
29.233641458804666
 10
44.544309824600255
 20
29.06111066354938
  0
LWPOLYLINE
  5
36
330
17
100
AcDbEntity
  8
0
 62
0
100
AcDbPolyline
 90
9
 70
0
 10
75.17859096406028
 20
46.82635826431215
 10
70.24527213629335
 20
41.96196052804589
 10
73.961371159181
 20
27.692538027651608
 10
83.1524117343455
 20
31.96860399053978
 10
84.98797961089159
 20
34.299151696158276
 10
85.2985268665226
 20
34.669821212561985
 10
87.06194351837973
 20
36.64985682322286
 10
87.71419960865751
 20
43.37276196712628
 10
75.17859096406028
 20
46.82635826431215
  0
LWPOLYLINE
  5
37
330
17
100
AcDbEntity
  8
0
 62
0
100
AcDbPolyline
 90
17
 70
0
 10
108.31049748510122
 20
47.546646035742015
 10
97.07835959875956
 20
45.86894873576239
 10
95.86956657888368
 20
44.58698260365054
 10
95.78985502481046
 20
43.76538319691921
 10
98.02787504997562
 20
44.81098941288244
 10
98.90663455368929
 20
45.15987876720875
 10
99.82041852327049
 20
45.40265624529466
 10
102.35577205862401
 20
45.91806868016749
 10
103.0626543872651
 20
46.029115474166
 10
103.776631634636
 20
46.07655498553645
 10
104.49199182638556
 20
46.06000768779788
 10
107.0273453617391
 20
45.88768334419335
 10
107.7082146394638
 20
45.81200608503435
 10
108.38011301100735
 20
45.67835504979584
 10
109.03811346638857
 20
45.48771029738629
 10
109.06245288585478
 20
45.47951349322496
 10
108.31049748510122
 20
47.546646035742015
  0
LWPOLYLINE
  5
38
330
17
100
AcDbEntity
  8
0
 62
0
100
AcDbPolyline
 90
8
 70
0
 10
115.52592378016561
 20
51.113323661498725
 10
119.98212372663023
 20
38.86318766088177
 10
122.37639026650287
 20
36.38794559874483
 10
122.77557937798301
 20
35.94314506821296
 10
124.06262882050899
 20
34.39650836020677
 10
132.8641734677367
 20
44.88196573732421
 10
116.93053547013551
 20
52.69623328000307
 10
115.52592378016561
 20
51.113323661498725
  0
LWPOLYLINE
  5
39
330
17
100
AcDbEntity
  8
0
 62
0
100
AcDbPolyline
 90
16
 70
0
 10
160.89481609128416
 20
28.10391132440418
 10
160.95954890875146
 20
28.06214903946966
 10
165.9362310385554
 20
30.83840909707871
 10
165.9413508129758
 20
30.845426215513335
 10
166.11929274220472
 20
31.08011390395837
 10
168.65464627755824
 20
34.299151696158255
 10
168.96519353318925
 20
34.66982121256198
 10
171.5005470685428
 20
37.51661880876709
 10
172.0096325329115
 20
38.038309395023795
 10
174.54498606826502
 20
40.40997611284845
 10
175.36044911583733
 20
41.07772083124202
 10
175.60939548312547
 20
41.25552501644353
 10
171.43310971511528
 20
46.85899360338226
 10
164.55218350701034
 20
46.050999474246055
 10
159.16723027499393
 20
33.54890067502856
 10
160.89481609128416
 20
28.10391132440418
  0
LWPOLYLINE
  5
3A
330
17
100
AcDbEntity
  8
0
 62
0
100
AcDbPolyline
 90
12
 70
0
 10
186.0224387252907
 20
45.91806868016749
 10
186.72932105393178
 20
46.029115474166
 10
187.44329830130272
 20
46.07655498553645
 10
188.15865849305226
 20
46.06000768779788
 10
189.3159755834523
 20
45.98134650498272
 10
196.00184535002336
 20
50.011716566514224
 10
194.7399877998978
 20
55.42104539182037
 10
180.97127678478137
 20
58.89198599290103
 10
177.84754029661417
 20
51.63969233073294
 10
182.6598343441065
 20
45.182869205052256
 10
183.48708518993715
 20
45.40265624529465
 10
186.0224387252907
 20
45.91806868016749
  0
LWPOLYLINE
  5
3B
330
17
100
AcDbEntity
  8
0
 62
0
100
AcDbPolyline
 90
10
 70
0
 10
202.8617662886723
 20
39.6071624275335
 10
203.50770339781602
 20
39.00904630269089
 10
204.97569717245318
 20
37.49140410311757
 10
204.24714134959504
 20
41.287401620298624
 10
200.58627433283255
 20
43.434151554945856
 10
199.109180325967
 20
42.543731060463216
 10
199.30475754353952
 20
42.42767531843058
 10
199.82966142300856
 20
42.087776603485246
 10
200.32641275331875
 20
41.70791697817845
 10
202.8617662886723
 20
39.6071624275335
  0
LWPOLYLINE
  5
3C
330
17
100
AcDbEntity
  8
0
 62
0
100
AcDbPolyline
 90
5
 70
0
 10
243.0
 20
53.76435130514836
 10
236.18001869739965
 20
50.023238979745656
 10
241.51209951471537
 20
39.261273408308625
 10
243.0
 20
40.07746374629567
 10
243.0
 20
53.76435130514836
  0
LWPOLYLINE
  5
3D
330
17
100
AcDbEntity
  8
0
 62
0
100
AcDbPolyline
 90
7
 70
0
 10
243.0
 20
78.00484393706364
 10
242.18378331139684
 20
78.21307066222653
 10
228.9621189837344
 20
72.3562809326686
 10
227.70147298229858
 20
69.49766549654305
 10
231.78390446864069
 20
56.73633475974202
 10
243.0
 20
62.88894301106082
 10
243.0
 20
78.00484393706364
  0
LWPOLYLINE
  5
3E
330
17
100
AcDbEntity
  8
0
 62
0
100
AcDbPolyline
 90
5
 70
0
 10
243.0
 20
105.07939828518901
 10
242.20307300332934
 20
105.3364049657248
 10
238.80006076488644
 20
100.09740644879639
 10
243.0
 20
90.02162364978902
 10
243.0
 20
105.07939828518901
  0
LWPOLYLINE
  5
3F
330
17
100
AcDbEntity
  8
0
 62
0
100
AcDbPolyline
 90
5
 70
0
 10
243.0
 20
135.04999999999995
 10
236.07070255230627
 20
135.04999999999995
 10
238.53410978009924
 20
128.86032833717763
 10
243.0
 20
131.15207929796193
 10
243.0
 20
135.04999999999995
  0
LWPOLYLINE
  5
40
330
17
100
AcDbEntity
  8
0
 62
0
100
AcDbPolyline
 90
6
 70
0
 10
222.06003971304744
 20
124.82810688763857
 10
230.78841019514948
 20
126.68790560308844
 10
227.46040753228405
 20
135.04999999999995
 10
216.44486176089148
 20
135.04999999999995
 10
214.30796194821596
 20
132.3440310866572
 10
222.06003971304744
 20
124.82810688763857
  0
LWPOLYLINE
  5
41
330
17
100
AcDbEntity
  8
0
 62
0
100
AcDbPolyline
 90
6
 70
0
 10
151.77318729879335
 20
124.10881384601817
 10
164.87547140801325
 20
129.88532924931496
 10
159.3288805058874
 20
135.04999999999995
 10
144.68800949294277
 20
135.04999999999995
 10
143.91389194969088
 20
128.585636427626
 10
151.77318729879335
 20
124.10881384601817
  0
LWPOLYLINE
  5
42
330
17
100
AcDbEntity
  8
0
 62
0
100
AcDbPolyline
 90
5
 70
0
 10
100.54412074903331
 20
135.04999999999995
 10
99.81580734159797
 20
131.0312682534568
 10
111.66418522596359
 20
129.11604541819543
 10
112.73959382572782
 20
135.04999999999995
 10
100.54412074903331
 20
135.04999999999995
  0
LWPOLYLINE
  5
43
330
17
100
AcDbEntity
  8
0
 62
0
100
AcDbPolyline
 90
13
 70
0
 10
76.05763955263558
 20
135.04999999999995
 10
72.69850768069804
 20
133.84541770686818
 10
73.57214634707832
 20
132.881505978291
 10
74.39057457223564
 20
131.77798326227438
 10
75.09689770087697
 20
130.59955431556392
 10
75.68431345515802
 20
129.3575680531112
 10
76.14716470025093
 20
128.06398548156244
 10
76.48099392564522
 20
126.73126450822576
 10
76.68258617341075
 20
125.37223996461381
 10
76.7342151478889
 20
124.32130804611245
 10
86.16683728108183
 20
126.60841108253226
 10
76.20306175641343
 20
135.04999999999995
 10
76.05763955263558
 20
135.04999999999995
  0
LWPOLYLINE
  5
44
330
17
100
AcDbEntity
  8
0
 62
0
100
AcDbPolyline
 90
10
 70
0
 10
50.40310229912303
 20
130.59955431556392
 10
51.109425427764364
 20
131.77798326227438
 10
51.927853652921684
 20
132.881505978291
 10
52.85050506338833
 20
133.89949493661163
 10
53.868494021708955
 20
134.82214634707827
 10
54.17571910779162
 20
135.04999999999995
 10
49.72964959644561
 20
135.04999999999995
 10
48.96877019153908
 20
130.8515736241825
 10
50.03729959847449
 20
129.82612948713106
 10
50.40310229912303
 20
130.59955431556392
  0
LWPOLYLINE
  5
45
330
17
100
AcDbEntity
  8
0
 62
0
100
AcDbPolyline
 90
6
 70
0
 10
31.093254330568016
 20
127.98711353261024
 10
41.09739980753511
 20
132.28039600001648
 10
41.59933421209075
 20
135.04999999999995
 10
25.737391488736826
 20
135.04999999999995
 10
23.547450537327677
 20
132.07822771556675
 10
31.093254330568016
 20
127.98711353261024
  0
LWPOLYLINE
  5
46
330
17
100
AcDbEntity
  8
0
 62
0
100
AcDbPolyline
 90
4
 70
0
 10
8.0
 20
101.72325285487234
 10
10.63260245649144
 20
106.64288602676243
 10
8.0
 20
113.75983461086973
 10
8.0
 20
101.72325285487234
  0
LWPOLYLINE
  5
47
330
17
100
AcDbEntity
  8
0
 62
0
100
AcDbPolyline
 90
8
 70
0
 10
14.502444996032864
 20
81.75415897928178
 10
8.0
 20
74.22090505576763
 10
8.0
 20
73.11166235303742
 10
15.48075397964567
 20
66.36101446812972
 10
22.07222284609452
 20
68.49468224402517
 10
23.629281635396183
 20
75.78056603530422
 10
19.60126609588042
 20
80.93949273182079
 10
14.502444996032864
 20
81.75415897928178
  0
LWPOLYLINE
  5
48
330
17
100
AcDbEntity
  8
0
 62
0
100
AcDbPolyline
 90
5
 70
0
 10
8.0
 20
53.42861992325544
 10
8.673234842251986
 20
53.64654699200764
 10
10.121158777736127
 20
60.42176036676392
 10
8.0
 20
62.33589844099031
 10
8.0
 20
53.42861992325544
  0
LWPOLYLINE
  5
49
330
17
100
AcDbEntity
  8
0
 62
0
100
AcDbPolyline
 90
6
 70
0
 10
35.49658766016364
 20
45.18218545103446
 10
45.018871245440096
 20
43.06073683593422
 10
49.64199896808714
 20
47.707744118757546
 10
47.4337163628079
 20
57.784678435884416
 10
37.502857638988644
 20
54.570045448839664
 10
35.49658766016364
 20
45.18218545103446
  0
LWPOLYLINE
  5
4A
330
17
100
AcDbEntity
  8
0
 62
0
100
AcDbPolyline
 90
8
 70
0
 10
43.33604389196262
 20
74.80105003714561
 10
31.254261035937816
 20
73.18045470956713
 10
29.895565378014
 20
66.8227636963129
 10
35.03911030897871
 20
62.181218097917736
 10
47.66131025692448
 20
66.26704203803092
 10
48.750281078740954
 20
68.23668027948588
 10
48.49097076244652
 20
69.99044347694144
 10
43.33604389196262
 20
74.80105003714561
  0
LWPOLYLINE
  5
4B
330
17
100
AcDbEntity
  8
0
 62
0
100
AcDbPolyline
 90
6
 70
0
 10
26.86850521666929
 20
84.63121588900685
 10
29.672524578869343
 20
81.0399362128228
 10
40.44311123061925
 20
82.48465365264565
 10
40.01639355439693
 20
88.9450601185672
 10
32.52982267923653
 20
91.82370239729062
 10
26.86850521666929
 20
84.63121588900685
  0
LWPOLYLINE
  5
4C
330
17
100
AcDbEntity
  8
0
 62
0
100
AcDbPolyline
 90
7
 70
0
 10
13.484140576794744
 20
95.01586731662974
 10
15.751681439112872
 20
89.65603094082326
 10
20.0963022406213
 20
88.9618673576042
 10
26.8401861297898
 20
97.52971295220777
 10
26.09615182504058
 20
100.38672504527494
 10
17.175244259648025
 20
101.91355749918148
 10
13.484140576794744
 20
95.01586731662974
  0
LWPOLYLINE
  5
4D
330
17
100
AcDbEntity
  8
0
 62
0
100
AcDbPolyline
 90
7
 70
0
 10
34.56466401088983
 20
99.61229667719454
 10
42.867269651032984
 20
96.41988295130432
 10
46.78919856669381
 20
100.2870204304345
 10
45.357785938773304
 20
105.78349171113223
 10
36.311695106793195
 20
107.19371746107936
 10
33.63808690663427
 20
103.17025358229876
 10
34.56466401088983
 20
99.61229667719454
  0
LWPOLYLINE
  5
4E
330
17
100
AcDbEntity
  8
0
 62
0
100
AcDbPolyline
 90
8
 70
0
 10
16.445915049873292
 20
126.4651331314817
 10
14.136525499168783
 20
120.22973335720599
 10
17.959140286780894
 20
109.89571849815547
 10
27.42536255577579
 20
108.2755542639643
 10
30.036291608586907
 20
112.20469344500452
 10
27.518058906309307
 20
120.82532915612683
 10
16.943484656512737
 20
126.55855412129313
 10
16.445915049873292
 20
126.4651331314817
  0
LWPOLYLINE
  5
4F
330
17
100
AcDbEntity
  8
0
 62
0
100
AcDbPolyline
 90
8
 70
0
 10
49.647624969619606
 20
119.11213258388509
 10
43.79230845812708
 20
124.73135087452829
 10
35.72297474415973
 20
121.26839353935793
 10
37.524493012111634
 20
115.10127772623673
 10
46.70547372661531
 20
113.67002353584394
 10
49.95023886327753
 20
118.35794497176045
 10
49.81568654484199
 20
118.6424319468887
 10
49.647624969619606
 20
119.11213258388509
  0
LWPOLYLINE
  5
50
330
17
100
AcDbEntity
  8
0
 62
0
100
AcDbPolyline
 90
7
 70
0
 10
57.40663234097883
 20
49.64807030465454
 10
64.62834945088252
 20
47.65846643457189
 10
69.56166827864945
 20
52.52286417083815
 10
67.81563567882404
 20
59.22744246991351
 10
54.88078781263903
 20
62.79103032266721
 10
54.62703342363238
 20
62.332060863729566
 10
57.40663234097883
 20
49.64807030465454
  0
LWPOLYLINE
  5
51
330
17
100
AcDbEntity
  8
0
 62
0
100
AcDbPolyline
 90
6
 70
0
 10
77.30344844982028
 20
54.539008954074234
 10
90.66215130593628
 20
50.85864783031866
 10
87.17008610628545
 20
64.26780442753807
 10
80.49073467822745
 20
66.10798498941585
 10
75.55741584999487
 20
61.2435872531496
 10
77.30344844982028
 20
54.539008954074234
  0
LWPOLYLINE
  5
52
330
17
100
AcDbEntity
  8
0
 62
0
100
AcDbPolyline
 90
6
 70
0
 10
56.581790308468044
 20
70.62045428343117
 10
69.94049316458404
 20
66.9400931596756
 10
74.87381199281663
 20
71.80449089594185
 10
73.12777939299121
 20
78.50906919455156
 10
66.44842796493322
 20
80.34924975642934
 10
56.581790308468044
 20
70.62045428343117
  0
LWPOLYLINE
  5
53
330
17
100
AcDbEntity
  8
0
 62
0
100
AcDbPolyline
 90
7
 70
0
 10
82.61559216398746
 20
73.82063567917794
 10
89.29494359204546
 20
71.98045511730015
 10
98.80680107697845
 20
81.35942688724026
 10
98.46102950163186
 20
81.90225461497903
 10
85.80287839239463
 20
85.3896117140539
 10
80.86955956416205
 20
80.5252139782533
 10
82.61559216398746
 20
73.82063567917794
  0
LWPOLYLINE
  5
54
330
17
100
AcDbEntity
  8
0
 62
0
100
AcDbPolyline
 90
7
 70
0
 10
47.951086008455604
 20
90.19771849643439
 10
48.56777734588832
 20
80.86115494696423
 10
52.16702194465324
 20
77.50231977552176
 10
60.83150527952239
 20
86.04575566295534
 10
59.08547267969698
 20
92.75033396203071
 10
52.40612125163898
 20
94.5905145239085
 10
47.951086008455604
 20
90.19771849643439
  0
LWPOLYLINE
  5
55
330
17
100
AcDbEntity
  8
0
 62
0
100
AcDbPolyline
 90
7
 70
0
 10
66.82725285086781
 20
94.7664787452668
 10
68.57328545069322
 20
88.06190044665709
 10
75.25263687875122
 20
86.2217198847793
 10
80.1859557069838
 20
91.0861176205799
 10
78.43992310715839
 20
97.79069591965526
 10
71.7605716791004
 20
99.63087648153305
 10
66.82725285086781
 20
94.7664787452668
  0
LWPOLYLINE
  5
56
330
17
100
AcDbEntity
  8
0
 62
0
100
AcDbPolyline
 90
6
 70
0
 10
97.7757358988747
 20
90.38911002594978
 10
99.22294240770862
 20
99.27447313582525
 10
91.3478500857018
 20
104.9008136880584
 10
86.18170327832922
 20
99.80684070289135
 10
87.92773587815464
 20
93.10226240428165
 10
97.7757358988747
 20
90.38911002594978
  0
LWPOLYLINE
  5
57
330
17
100
AcDbEntity
  8
0
 62
0
100
AcDbPolyline
 90
14
 70
0
 10
52.90056132944301
 20
108.56379355210811
 10
54.53097873786464
 20
102.30316521367058
 10
61.21033016545698
 20
100.4629846517928
 10
66.14364899368957
 20
105.32738238805905
 10
64.87996047407326
 20
110.17981104663792
 10
64.12223996461385
 20
110.0674138265892
 10
62.75
 20
109.99999999999996
 10
61.37776003538615
 20
110.0674138265892
 10
60.01873549177421
 20
110.26900607435473
 10
58.68601451843753
 20
110.60283529974903
 10
57.39243194688874
 20
111.06568654484194
 10
56.150445684436036
 20
111.65310229912299
 10
55.36478147467366
 20
112.12401130407399
 10
52.90056132944301
 20
108.56379355210811
  0
LWPOLYLINE
  5
58
330
17
100
AcDbEntity
  8
0
 62
0
100
AcDbPolyline
 90
9
 70
0
 10
72.22576527164509
 20
113.71645888111641
 10
73.8854291648604
 20
107.34352717129514
 10
80.5647805929184
 20
105.50334660941735
 10
86.93406523251906
 20
111.78364895004779
 10
86.92895967094228
 20
118.56139749800786
 10
73.75689765673727
 20
115.36760232559628
 10
73.57214634707832
 20
115.11849402170893
 10
72.64949493661166
 20
114.1005050633883
 10
72.22576527164509
 20
113.71645888111641
  0
LWPOLYLINE
  5
59
330
17
100
AcDbEntity
  8
0
 62
0
100
AcDbPolyline
 90
6
 70
0
 10
120.41641842201352
 20
59.8969479217194
 10
135.6437840135768
 20
52.42905460624024
 10
138.6923162578605
 20
57.68303423188627
 10
135.03414236474782
 20
64.19149277871475
 10
120.85204605013132
 20
62.388074341230094
 10
120.41641842201352
 20
59.8969479217194
  0
LWPOLYLINE
  5
5A
330
17
100
AcDbEntity
  8
0
 62
0
100
AcDbPolyline
 90
8
 70
0
 10
104.91844469169155
 20
76.15073039475828
 10
94.91186627745628
 20
66.28394921077415
 10
98.08284437516704
 20
54.10773271787912
 10
108.9244896308519
 20
55.72710377257317
 10
112.2141162827611
 20
59.43430748162791
 10
113.27817996777594
 20
65.51913082320243
 10
109.5377477821894
 20
74.45072999503464
 10
104.91844469169155
 20
76.15073039475828
  0
LWPOLYLINE
  5
5B
330
17
100
AcDbEntity
  8
0
 62
0
100
AcDbPolyline
 90
6
 70
0
 10
117.33389794500545
 20
76.54500258155167
 10
119.93423385731876
 20
70.33578478870913
 10
134.43118509603664
 20
72.17924069054425
 10
136.64815582800657
 20
77.32632107008249
 10
125.13388872332871
 20
83.64664051728323
 10
117.33389794500545
 20
76.54500258155167
  0
LWPOLYLINE
  5
5C
330
17
100
AcDbEntity
  8
0
 62
0
100
AcDbPolyline
 90
7
 70
0
 10
129.76555079547688
 20
96.07625570194796
 10
128.93411758868024
 20
90.68662762455642
 10
141.92677926039323
 20
83.55479965126142
 10
145.09412873303518
 20
84.99794174917042
 10
143.88489335775375
 20
95.87910513347015
 10
132.3910774346441
 20
97.90823991363868
 10
129.76555079547688
 20
96.07625570194796
  0
LWPOLYLINE
  5
5D
330
17
100
AcDbEntity
  8
0
 62
0
100
AcDbPolyline
 90
8
 70
0
 10
105.2008322137408
 20
86.21215709950775
 10
106.56601746287197
 20
84.06894909963012
 10
111.65691542578861
 20
82.19539189804345
 10
120.81601024791598
 20
90.53444986557588
 10
121.71061793202534
 20
96.33359602792189
 10
112.86102294875309
 20
101.656458764337
 10
107.20635453425348
 20
98.52539224224165
 10
105.2008322137408
 20
86.21215709950775
  0
LWPOLYLINE
  5
5E
330
17
100
AcDbEntity
  8
0
 62
0
100
AcDbPolyline
 90
14
 70
0
 10
118.90044568443604
 20
111.65310229912299
 10
117.72201673772557
 20
112.35942542776432
 10
117.06212947544233
 20
112.84883117631465
 10
116.98445166274905
 20
108.51191904349253
 10
125.91183725465089
 20
103.14226673776284
 10
127.60410920903087
 20
104.32306431839243
 10
128.0260660319825
 20
110.23856775573982
 10
126.87223996461385
 20
110.0674138265892
 10
125.5
 20
109.99999999999996
 10
124.12776003538615
 20
110.0674138265892
 10
122.76873549177421
 20
110.26900607435473
 10
121.43601451843753
 20
110.60283529974903
 10
120.14243194688875
 20
111.06568654484194
 10
118.90044568443604
 20
111.65310229912299
  0
LWPOLYLINE
  5
5F
330
17
100
AcDbEntity
  8
0
 62
0
100
AcDbPolyline
 90
8
 70
0
 10
95.39098538458347
 20
123.40223403088748
 10
94.9259295403026
 20
122.5869775111787
 10
94.9337758384645
 20
112.17083929199725
 10
103.84148966055363
 20
105.80674482136965
 10
108.98573454935104
 20
108.65518292132765
 10
109.21415268769488
 20
121.40823764400557
 10
95.76255437545478
 20
123.58261193474755
 10
95.39098538458347
 20
123.40223403088748
  0
LWPOLYLINE
  5
60
330
17
100
AcDbEntity
  8
0
 62
0
100
AcDbPolyline
 90
6
 70
0
 10
141.57293695909902
 20
46.70720857847482
 10
153.06376884877682
 20
39.601680043153465
 10
157.20476167090237
 20
49.21570994378999
 10
153.06455512484536
 20
54.770769777707756
 10
145.753553500399
 20
53.912273957859725
 10
141.57293695909902
 20
46.70720857847482
  0
LWPOLYLINE
  5
61
330
17
100
AcDbEntity
  8
0
 62
0
100
AcDbPolyline
 90
6
 70
0
 10
163.6191922519356
 20
53.99640867160633
 10
170.50011846004054
 20
54.80440280074254
 10
173.9668886307627
 20
62.853108391631395
 10
162.11056993342936
 20
65.661145710852
 10
159.47898570587859
 20
59.5514685055241
 10
163.6191922519356
 20
53.99640867160633
  0
LWPOLYLINE
  5
62
330
17
100
AcDbEntity
  8
0
 62
0
100
AcDbPolyline
 90
8
 70
0
 10
149.4184843385592
 20
78.17698508640751
 10
144.82328202435747
 20
76.08326920075342
 10
141.65788723528385
 20
68.73425859911367
 10
145.4794778060168
 20
61.93505644565448
 10
152.13156386930496
 20
62.71617897506803
 10
155.46512460662052
 20
70.45561586460099
 10
153.28810459561646
 20
76.47480859002098
 10
149.4184843385592
 20
78.17698508640751
  0
LWPOLYLINE
  5
63
330
17
100
AcDbEntity
  8
0
 62
0
100
AcDbPolyline
 90
6
 70
0
 10
162.79117959178984
 20
73.72126039117575
 10
174.7777972710319
 20
70.88236320670694
 10
178.7111831526272
 20
84.02092781849205
 10
174.89985661907122
 20
86.77606206201017
 10
161.30224180035293
 20
77.83799036033452
 10
162.79117959178984
 20
73.72126039117575
  0
LWPOLYLINE
  5
64
330
17
100
AcDbEntity
  8
0
 62
0
100
AcDbPolyline
 90
7
 70
0
 10
153.11062539182603
 20
85.2926587103866
 10
156.08697614632547
 20
83.98341543460265
 10
170.39278309978545
 20
93.38700054911897
 10
169.46380675584078
 20
96.83522851625457
 10
154.05479062255472
 20
100.26771459635347
 10
151.7137967031449
 20
97.86185863194987
 10
153.11062539182603
 20
85.2926587103866
  0
LWPOLYLINE
  5
65
330
17
100
AcDbEntity
  8
0
 62
0
100
AcDbPolyline
 90
13
 70
0
 10
136.40217820282768
 20
115.22640448729362
 10
135.70460501639172
 20
105.4469759836793
 10
146.1396295358427
 20
103.60476175928488
 10
148.6128274044022
 20
106.14648465486243
 10
147.72562085371464
 20
117.20754976104945
 10
139.5755453426391
 20
121.85000693751499
 10
139.29470142034097
 20
121.69821653513374
 10
139.23099392564524
 20
121.26873549177417
 10
138.89716470025093
 20
119.93601451843749
 10
138.43431345515802
 20
118.6424319468887
 10
137.84689770087698
 20
117.400445684436
 10
137.14057457223564
 20
116.22201673772553
 10
136.40217820282768
 20
115.22640448729362
  0
LWPOLYLINE
  5
66
330
17
100
AcDbEntity
  8
0
 62
0
100
AcDbPolyline
 90
6
 70
0
 10
156.4962723152712
 20
107.91993632353842
 10
170.3957954812795
 20
104.82370231533423
 10
170.87677210988477
 20
105.88377353176475
 10
167.13359227171168
 20
122.13789319060743
 10
155.758120497223
 20
117.12269222410396
 10
156.4962723152712
 20
107.91993632353842
  0
LWPOLYLINE
  5
67
330
17
100
AcDbEntity
  8
0
 62
0
100
AcDbPolyline
 90
7
 70
0
 10
204.06323746265844
 20
50.66927827568725
 10
208.12027378100902
 20
48.29021276719868
 10
223.9335913117975
 20
55.01996490266174
 10
220.57252178620547
 20
65.52638000994921
 10
205.39068443188444
 20
64.52406291570514
 10
202.3010559324175
 20
58.22339509893209
 10
204.06323746265844
 20
50.66927827568725
  0
LWPOLYLINE
  5
68
330
17
100
AcDbEntity
  8
0
 62
0
100
AcDbPolyline
 90
6
 70
0
 10
181.93609780957922
 20
66.89904566342011
 10
195.91697006998584
 20
63.374621545895934
 10
198.46329482551664
 20
68.56733207544312
 10
193.37580606760457
 20
81.9976686523296
 10
186.37176593579352
 20
81.71536779077724
 10
181.93609780957922
 20
66.89904566342011
  0
LWPOLYLINE
  5
69
330
17
100
AcDbEntity
  8
0
 62
0
100
AcDbPolyline
 90
6
 70
0
 10
201.06521757412702
 20
84.28203219128773
 10
205.50963192107156
 20
72.54933195281774
 10
220.74752567522228
 20
73.55534993531182
 10
221.38003750611097
 20
74.98962100129575
 10
214.56836953945458
 20
85.1735211275518
 10
201.06521757412702
 20
84.28203219128773
  0
LWPOLYLINE
  5
6A
330
17
100
AcDbEntity
  8
0
 62
0
100
AcDbPolyline
 90
6
 70
0
 10
227.38178335828707
 20
80.40599456848577
 10
236.6327929389663
 20
84.50390664348379
 10
231.7046622755006
 20
96.32664297102019
 10
224.27932556904852
 20
95.83641627896577
 10
221.21801325958222
 20
89.62124396022409
 10
227.38178335828707
 20
80.40599456848577
  0
LWPOLYLINE
  5
6B
330
17
100
AcDbEntity
  8
0
 62
0
100
AcDbPolyline
 90
6
 70
0
 10
203.5831770361401
 20
104.49180996790528
 10
202.39870560681447
 20
92.38748617051169
 10
214.04135043732822
 20
93.15614293143153
 10
217.10266274679452
 20
99.37131525017321
 10
213.25082178413868
 20
105.1300756377168
 10
203.5831770361401
 20
104.49180996790528
  0
LWPOLYLINE
  5
6C
330
17
100
AcDbEntity
  8
0
 62
0
100
AcDbPolyline
 90
8
 70
0
 10
178.0044266982004
 20
102.23111484758556
 10
176.9320816746913
 20
99.86766925500706
 10
178.50094962865114
 20
94.04425470624119
 10
184.58023767499253
 20
89.64965494535863
 10
194.1302493396215
 20
90.03457228885964
 10
195.78596404660493
 20
106.95461478596553
 10
194.92341789836064
 20
107.96366924792528
 10
178.0044266982004
 20
102.23111484758556
  0
LWPOLYLINE
  5
6D
330
17
100
AcDbEntity
  8
0
 62
0
100
AcDbPolyline
 90
7
 70
0
 10
219.90046550426632
 20
109.5777984703891
 10
223.75230646692216
 20
103.81903808284551
 10
232.03302828827873
 20
104.36573798721656
 10
236.184202471748
 20
110.75654526846483
 10
233.87776349205524
 20
119.16658166795969
 10
223.53833019500598
 20
116.96350552607328
 10
219.90046550426632
 20
109.5777984703891
  0
LWPOLYLINE
  5
6E
330
17
100
AcDbEntity
  8
0
 62
0
100
AcDbPolyline
 90
16
 70
0
 10
201.64716470025093
 20
119.93601451843749
 10
201.18431345515802
 20
118.6424319468887
 10
200.59689770087698
 20
117.400445684436
 10
199.93074342682044
 20
116.28903442280402
 10
200.0911888652481
 20
114.23023035051301
 10
201.67026924574748
 20
112.3829342876561
 10
212.72380268201232
 20
113.11269744159654
 10
215.93222378985956
 20
119.62653465894982
 10
207.47445073258132
 20
127.82665637042373
 10
201.84402128558676
 20
127.27808993959295
 10
201.98099392564524
 20
126.73126450822576
 10
202.18258617341075
 20
125.37223996461381
 10
202.25
 20
123.99999999999996
 10
202.18258617341075
 20
122.6277600353861
 10
201.98099392564524
 20
121.26873549177417
 10
201.64716470025093
 20
119.93601451843749
  0
LWPOLYLINE
  5
6F
330
17
100
AcDbEntity
  8
0
 62
0
100
AcDbPolyline
 90
65
 70
0
 10
64.08035137968407
 20
124.88891237283133
 10
63.98681672538038
 20
125.0150292546618
 10
63.881370849898474
 20
125.13137084989843
 10
63.76502925466183
 20
125.23681672538034
 10
63.63891237283136
 20
125.33035137968403
 10
63.5042347789216
 20
125.41107402295732
 10
63.36229349178414
 20
125.47820725201801
 10
63.21445548360714
 20
125.53110453717149
 10
63.0621445152258
 20
125.56925644864512
 10
62.90682742452729
 20
125.59229556267547
 10
62.75
 20
125.59999999999995
 10
62.5931725754727
 20
125.59229556267547
 10
62.4378554847742
 20
125.56925644864512
 10
62.28554451639286
 20
125.53110453717149
 10
62.13770650821586
 20
125.47820725201801
 10
61.9957652210784
 20
125.41107402295732
 10
61.86108762716864
 20
125.33035137968403
 10
61.73497074533817
 20
125.23681672538034
 10
61.618629150101526
 20
125.13137084989843
 10
61.51318327461962
 20
125.01502925466178
 10
61.419648620315925
 20
124.88891237283131
 10
61.338925977042635
 20
124.75423477892156
 10
61.27179274798194
 20
124.6122934917841
 10
61.21889546282846
 20
124.4644554836071
 10
61.18074355135483
 20
124.31214451522577
 10
61.15770443732448
 20
124.15682742452725
 10
61.15
 20
123.99999999999996
 10
61.15770443732448
 20
123.84317257547266
 10
61.18074355135483
 20
123.68785548477415
 10
61.21889546282846
 20
123.53554451639282
 10
61.27179274798194
 20
123.38770650821581
 10
61.338925977042635
 20
123.24576522107836
 10
61.419648620315925
 20
123.11108762716859
 10
61.51318327461962
 20
122.98497074533813
 10
61.618629150101526
 20
122.86862915010148
 10
61.73497074533817
 20
122.76318327461958
 10
61.86108762716864
 20
122.66964862031588
 10
61.9957652210784
 20
122.58892597704259
 10
62.13770650821586
 20
122.5217927479819
 10
62.28554451639286
 20
122.46889546282843
 10
62.4378554847742
 20
122.4307435513548
 10
62.5931725754727
 20
122.40770443732444
 10
62.75
 20
122.39999999999996
 10
62.9068274245273
 20
122.40770443732444
 10
63.0621445152258
 20
122.4307435513548
 10
63.21445548360714
 20
122.46889546282843
 10
63.36229349178414
 20
122.5217927479819
 10
63.5042347789216
 20
122.58892597704259
 10
63.63891237283136
 20
122.66964862031588
 10
63.76502925466183
 20
122.76318327461958
 10
63.881370849898474
 20
122.86862915010148
 10
63.98681672538038
 20
122.98497074533813
 10
64.08035137968407
 20
123.11108762716859
 10
64.16107402295737
 20
123.24576522107836
 10
64.22820725201805
 20
123.38770650821581
 10
64.28110453717153
 20
123.53554451639282
 10
64.31925644864516
 20
123.68785548477415
 10
64.34229556267552
 20
123.84317257547266
 10
64.35
 20
123.99999999999996
 10
64.34229556267552
 20
124.15682742452725
 10
64.31925644864516
 20
124.31214451522577
 10
64.28110453717153
 20
124.4644554836071
 10
64.22820725201805
 20
124.6122934917841
 10
64.16107402295737
 20
124.75423477892156
 10
64.08035137968407
 20
124.88891237283133
  0
LWPOLYLINE
  5
70
330
17
100
AcDbEntity
  8
0
 62
0
100
AcDbPolyline
 90
65
 70
0
 10
126.91107402295737
 20
124.75423477892156
 10
126.83035137968407
 20
124.88891237283133
 10
126.73681672538038
 20
125.0150292546618
 10
126.63137084989847
 20
125.13137084989843
 10
126.51502925466183
 20
125.23681672538034
 10
126.38891237283136
 20
125.33035137968403
 10
126.2542347789216
 20
125.41107402295732
 10
126.11229349178414
 20
125.47820725201801
 10
125.96445548360714
 20
125.53110453717149
 10
125.81214451522581
 20
125.56925644864512
 10
125.6568274245273
 20
125.59229556267547
 10
125.5
 20
125.59999999999995
 10
125.3431725754727
 20
125.59229556267547
 10
125.18785548477419
 20
125.56925644864512
 10
125.03554451639286
 20
125.53110453717149
 10
124.88770650821586
 20
125.47820725201801
 10
124.7457652210784
 20
125.41107402295732
 10
124.61108762716864
 20
125.33035137968403
 10
124.48497074533816
 20
125.23681672538034
 10
124.36862915010153
 20
125.13137084989843
 10
124.26318327461962
 20
125.01502925466178
 10
124.16964862031593
 20
124.88891237283131
 10
124.08892597704263
 20
124.75423477892156
 10
124.02179274798195
 20
124.6122934917841
 10
123.96889546282847
 20
124.4644554836071
 10
123.93074355135484
 20
124.31214451522577
 10
123.90770443732448
 20
124.15682742452725
 10
123.9
 20
123.99999999999996
 10
123.90770443732448
 20
123.84317257547266
 10
123.93074355135484
 20
123.68785548477415
 10
123.96889546282847
 20
123.53554451639282
 10
124.02179274798195
 20
123.38770650821581
 10
124.08892597704263
 20
123.24576522107836
 10
124.16964862031593
 20
123.11108762716859
 10
124.26318327461962
 20
122.98497074533813
 10
124.36862915010153
 20
122.86862915010148
 10
124.48497074533817
 20
122.76318327461958
 10
124.61108762716864
 20
122.66964862031588
 10
124.7457652210784
 20
122.58892597704259
 10
124.88770650821586
 20
122.5217927479819
 10
125.03554451639286
 20
122.46889546282843
 10
125.18785548477419
 20
122.4307435513548
 10
125.3431725754727
 20
122.40770443732444
 10
125.5
 20
122.39999999999996
 10
125.6568274245273
 20
122.40770443732444
 10
125.81214451522581
 20
122.4307435513548
 10
125.96445548360714
 20
122.46889546282843
 10
126.11229349178414
 20
122.5217927479819
 10
126.2542347789216
 20
122.58892597704259
 10
126.38891237283137
 20
122.66964862031588
 10
126.51502925466183
 20
122.76318327461958
 10
126.63137084989847
 20
122.86862915010148
 10
126.73681672538038
 20
122.98497074533813
 10
126.83035137968407
 20
123.11108762716859
 10
126.91107402295737
 20
123.24576522107836
 10
126.97820725201805
 20
123.38770650821581
 10
127.03110453717153
 20
123.53554451639282
 10
127.06925644864516
 20
123.68785548477415
 10
127.09229556267552
 20
123.84317257547266
 10
127.1
 20
123.99999999999996
 10
127.09229556267552
 20
124.15682742452725
 10
127.06925644864516
 20
124.31214451522577
 10
127.03110453717153
 20
124.4644554836071
 10
126.97820725201805
 20
124.6122934917841
 10
126.91107402295737
 20
124.75423477892156
  0
LWPOLYLINE
  5
71
330
17
100
AcDbEntity
  8
0
 62
0
100
AcDbPolyline
 90
65
 70
0
 10
189.72820725201805
 20
124.6122934917841
 10
189.66107402295737
 20
124.75423477892156
 10
189.58035137968406
 20
124.88891237283133
 10
189.48681672538038
 20
125.0150292546618
 10
189.38137084989847
 20
125.13137084989843
 10
189.26502925466184
 20
125.23681672538034
 10
189.13891237283136
 20
125.33035137968403
 10
189.00423477892159
 20
125.41107402295732
 10
188.86229349178416
 20
125.47820725201801
 10
188.71445548360714
 20
125.53110453717149
 10
188.5621445152258
 20
125.56925644864512
 10
188.4068274245273
 20
125.59229556267547
 10
188.25
 20
125.59999999999995
 10
188.0931725754727
 20
125.59229556267547
 10
187.9378554847742
 20
125.56925644864512
 10
187.78554451639286
 20
125.53110453717149
 10
187.63770650821584
 20
125.47820725201801
 10
187.49576522107841
 20
125.41107402295732
 10
187.36108762716864
 20
125.33035137968403
 10
187.23497074533816
 20
125.23681672538034
 10
187.11862915010153
 20
125.13137084989843
 10
187.01318327461962
 20
125.01502925466178
 10
186.91964862031594
 20
124.88891237283131
 10
186.83892597704263
 20
124.75423477892156
 10
186.77179274798195
 20
124.6122934917841
 10
186.71889546282847
 20
124.4644554836071
 10
186.68074355135482
 20
124.31214451522577
 10
186.6577044373245
 20
124.15682742452725
 10
186.65
 20
123.99999999999996
 10
186.6577044373245
 20
123.84317257547266
 10
186.68074355135482
 20
123.68785548477415
 10
186.71889546282847
 20
123.53554451639282
 10
186.77179274798195
 20
123.38770650821581
 10
186.83892597704263
 20
123.24576522107836
 10
186.91964862031594
 20
123.11108762716859
 10
187.01318327461962
 20
122.98497074533813
 10
187.11862915010153
 20
122.86862915010148
 10
187.23497074533816
 20
122.76318327461958
 10
187.36108762716864
 20
122.66964862031588
 10
187.49576522107841
 20
122.58892597704259
 10
187.63770650821584
 20
122.5217927479819
 10
187.78554451639286
 20
122.46889546282843
 10
187.9378554847742
 20
122.4307435513548
 10
188.0931725754727
 20
122.40770443732444
 10
188.25
 20
122.39999999999996
 10
188.4068274245273
 20
122.40770443732444
 10
188.5621445152258
 20
122.4307435513548
 10
188.71445548360714
 20
122.46889546282843
 10
188.86229349178416
 20
122.5217927479819
 10
189.00423477892159
 20
122.58892597704259
 10
189.13891237283136
 20
122.66964862031588
 10
189.26502925466184
 20
122.76318327461958
 10
189.38137084989847
 20
122.86862915010148
 10
189.48681672538038
 20
122.98497074533813
 10
189.58035137968406
 20
123.11108762716859
 10
189.66107402295737
 20
123.24576522107836
 10
189.72820725201805
 20
123.38770650821581
 10
189.78110453717153
 20
123.53554451639282
 10
189.81925644864518
 20
123.68785548477415
 10
189.8422955626755
 20
123.84317257547266
 10
189.85
 20
123.99999999999996
 10
189.8422955626755
 20
124.15682742452725
 10
189.81925644864518
 20
124.31214451522577
 10
189.78110453717153
 20
124.4644554836071
 10
189.72820725201805
 20
124.6122934917841
  0
LWPOLYLINE
  5
72
330
17
100
AcDbEntity
  8
0
 62
0
100
AcDbPolyline
 90
65
 70
0
 10
64.28110453717153
 20
19.514455483607136
 10
64.22820725201805
 20
19.66229349178414
 10
64.16107402295737
 20
19.804234778921593
 10
64.08035137968407
 20
19.93891237283136
 10
63.98681672538038
 20
20.06502925466183
 10
63.881370849898474
 20
20.181370849898475
 10
63.76502925466183
 20
20.286816725380376
 10
63.63891237283136
 20
20.380351379684072
 10
63.5042347789216
 20
20.461074022957366
 10
63.36229349178414
 20
20.528207252018056
 10
63.21445548360714
 20
20.58110453717153
 10
63.0621445152258
 20
20.619256448645167
 10
62.90682742452729
 20
20.642295562675514
 10
62.75
 20
20.65
 10
62.5931725754727
 20
20.642295562675514
 10
62.4378554847742
 20
20.619256448645167
 10
62.28554451639286
 20
20.58110453717153
 10
62.13770650821586
 20
20.528207252018056
 10
61.9957652210784
 20
20.461074022957366
 10
61.86108762716864
 20
20.38035137968407
 10
61.73497074533817
 20
20.286816725380376
 10
61.618629150101526
 20
20.181370849898475
 10
61.51318327461962
 20
20.06502925466183
 10
61.419648620315925
 20
19.93891237283136
 10
61.338925977042635
 20
19.804234778921593
 10
61.27179274798194
 20
19.66229349178414
 10
61.21889546282846
 20
19.514455483607136
 10
61.18074355135483
 20
19.362144515225804
 10
61.15770443732448
 20
19.206827424527294
 10
61.15
 20
19.049999999999997
 10
61.15770443732448
 20
18.8931725754727
 10
61.18074355135483
 20
18.73785548477419
 10
61.21889546282846
 20
18.585544516392858
 10
61.27179274798194
 20
18.437706508215854
 10
61.338925977042635
 20
18.2957652210784
 10
61.419648620315925
 20
18.161087627168634
 10
61.51318327461962
 20
18.034970745338164
 10
61.618629150101526
 20
17.91862915010152
 10
61.73497074533817
 20
17.813183274619618
 10
61.86108762716864
 20
17.719648620315926
 10
61.9957652210784
 20
17.63892597704263
 10
62.13770650821586
 20
17.571792747981938
 10
62.28554451639286
 20
17.518895462828464
 10
62.4378554847742
 20
17.480743551354827
 10
62.5931725754727
 20
17.45770443732448
 10
62.75
 20
17.449999999999996
 10
62.9068274245273
 20
17.45770443732448
 10
63.0621445152258
 20
17.480743551354827
 10
63.21445548360714
 20
17.518895462828464
 10
63.36229349178414
 20
17.571792747981938
 10
63.5042347789216
 20
17.63892597704263
 10
63.63891237283136
 20
17.719648620315926
 10
63.76502925466183
 20
17.813183274619618
 10
63.881370849898474
 20
17.91862915010152
 10
63.98681672538038
 20
18.034970745338164
 10
64.08035137968407
 20
18.161087627168634
 10
64.16107402295737
 20
18.2957652210784
 10
64.22820725201805
 20
18.437706508215854
 10
64.28110453717153
 20
18.585544516392858
 10
64.31925644864516
 20
18.73785548477419
 10
64.34229556267552
 20
18.8931725754727
 10
64.35
 20
19.049999999999997
 10
64.34229556267552
 20
19.206827424527294
 10
64.31925644864516
 20
19.362144515225804
 10
64.28110453717153
 20
19.514455483607136
  0
LWPOLYLINE
  5
73
330
17
100
AcDbEntity
  8
0
 62
0
100
AcDbPolyline
 90
65
 70
0
 10
147.98592311531186
 20
19.362144515225804
 10
147.94777120383822
 20
19.514455483607136
 10
147.89487391868474
 20
19.66229349178414
 10
147.82774068962405
 20
19.804234778921593
 10
147.74701804635075
 20
19.93891237283136
 10
147.65348339204706
 20
20.06502925466183
 10
147.54803751656516
 20
20.181370849898475
 10
147.43169592132853
 20
20.286816725380376
 10
147.30557903949804
 20
20.380351379684072
 10
147.17090144558827
 20
20.461074022957366
 10
147.02896015845084
 20
20.528207252018056
 10
146.88112215027382
 20
20.58110453717153
 10
146.7288111818925
 20
20.619256448645167
 10
146.573494091194
 20
20.642295562675514
 10
146.41666666666669
 20
20.65
 10
146.25983924213938
 20
20.642295562675514
 10
146.10452215144088
 20
20.619256448645167
 10
145.95221118305955
 20
20.58110453717153
 10
145.80437317488253
 20
20.528207252018056
 10
145.6624318877451
 20
20.461074022957366
 10
145.52775429383533
 20
20.38035137968407
 10
145.40163741200485
 20
20.286816725380376
 10
145.2852958167682
 20
20.181370849898475
 10
145.1798499412863
 20
20.06502925466183
 10
145.08631528698263
 20
19.93891237283136
 10
145.00559264370932
 20
19.804234778921593
 10
144.93845941464863
 20
19.66229349178414
 10
144.88556212949516
 20
19.514455483607136
 10
144.8474102180215
 20
19.362144515225804
 10
144.82437110399118
 20
19.206827424527294
 10
144.8166666666667
 20
19.049999999999997
 10
144.82437110399118
 20
18.8931725754727
 10
144.8474102180215
 20
18.73785548477419
 10
144.88556212949516
 20
18.585544516392858
 10
144.93845941464863
 20
18.437706508215854
 10
145.00559264370932
 20
18.2957652210784
 10
145.08631528698263
 20
18.161087627168634
 10
145.1798499412863
 20
18.034970745338164
 10
145.2852958167682
 20
17.91862915010152
 10
145.40163741200485
 20
17.813183274619618
 10
145.52775429383533
 20
17.719648620315926
 10
145.6624318877451
 20
17.63892597704263
 10
145.80437317488253
 20
17.571792747981938
 10
145.95221118305955
 20
17.518895462828464
 10
146.10452215144088
 20
17.480743551354827
 10
146.25983924213938
 20
17.45770443732448
 10
146.41666666666669
 20
17.449999999999996
 10
146.573494091194
 20
17.45770443732448
 10
146.7288111818925
 20
17.480743551354827
 10
146.88112215027382
 20
17.518895462828464
 10
147.02896015845084
 20
17.571792747981938
 10
147.17090144558827
 20
17.63892597704263
 10
147.30557903949804
 20
17.719648620315926
 10
147.43169592132853
 20
17.813183274619618
 10
147.54803751656516
 20
17.91862915010152
 10
147.65348339204706
 20
18.034970745338164
 10
147.74701804635075
 20
18.161087627168634
 10
147.82774068962405
 20
18.2957652210784
 10
147.89487391868474
 20
18.437706508215854
 10
147.94777120383822
 20
18.585544516392858
 10
147.98592311531186
 20
18.73785548477419
 10
148.0089622293422
 20
18.8931725754727
 10
148.01666666666668
 20
19.049999999999997
 10
148.0089622293422
 20
19.206827424527294
 10
147.98592311531186
 20
19.362144515225804
  0
LWPOLYLINE
  5
74
330
17
100
AcDbEntity
  8
0
 62
0
100
AcDbPolyline
 90
65
 70
0
 10
231.67562889600885
 20
19.206827424527294
 10
231.65258978197852
 20
19.362144515225804
 10
231.61443787050487
 20
19.514455483607136
 10
231.5615405853514
 20
19.66229349178414
 10
231.4944073562907
 20
19.804234778921593
 10
231.4136847130174
 20
19.93891237283136
 10
231.32015005871372
 20
20.06502925466183
 10
231.21470418323182
 20
20.181370849898475
 10
231.09836258799518
 20
20.286816725380376
 10
230.9722457061647
 20
20.380351379684072
 10
230.83756811225493
 20
20.461074022957366
 10
230.6956268251175
 20
20.528207252018056
 10
230.54778881694048
 20
20.58110453717153
 10
230.39547784855915
 20
20.619256448645167
 10
230.24016075786065
 20
20.642295562675514
 10
230.08333333333334
 20
20.65
 10
229.92650590880604
 20
20.642295562675514
 10
229.77118881810753
 20
20.619256448645167
 10
229.6188778497262
 20
20.58110453717153
 10
229.47103984154919
 20
20.528207252018056
 10
229.32909855441176
 20
20.461074022957366
 10
229.194420960502
 20
20.38035137968407
 10
229.0683040786715
 20
20.286816725380376
 10
228.95196248343487
 20
20.181370849898475
 10
228.84651660795296
 20
20.06502925466183
 10
228.75298195364928
 20
19.93891237283136
 10
228.67225931037598
 20
19.804234778921593
 10
228.6051260813153
 20
19.66229349178414
 10
228.5522287961618
 20
19.514455483607136
 10
228.51407688468817
 20
19.362144515225804
 10
228.49103777065784
 20
19.206827424527294
 10
228.48333333333335
 20
19.049999999999997
 10
228.49103777065784
 20
18.8931725754727
 10
228.51407688468817
 20
18.73785548477419
 10
228.5522287961618
 20
18.585544516392858
 10
228.6051260813153
 20
18.437706508215854
 10
228.67225931037598
 20
18.2957652210784
 10
228.75298195364928
 20
18.161087627168634
 10
228.84651660795296
 20
18.034970745338164
 10
228.95196248343487
 20
17.91862915010152
 10
229.0683040786715
 20
17.813183274619618
 10
229.194420960502
 20
17.719648620315926
 10
229.32909855441176
 20
17.63892597704263
 10
229.47103984154919
 20
17.571792747981938
 10
229.6188778497262
 20
17.518895462828464
 10
229.77118881810753
 20
17.480743551354827
 10
229.92650590880604
 20
17.45770443732448
 10
230.08333333333334
 20
17.449999999999996
 10
230.24016075786065
 20
17.45770443732448
 10
230.39547784855915
 20
17.480743551354827
 10
230.54778881694048
 20
17.518895462828464
 10
230.6956268251175
 20
17.571792747981938
 10
230.83756811225493
 20
17.63892597704263
 10
230.9722457061647
 20
17.719648620315926
 10
231.09836258799518
 20
17.813183274619618
 10
231.21470418323182
 20
17.91862915010152
 10
231.32015005871372
 20
18.034970745338164
 10
231.4136847130174
 20
18.161087627168634
 10
231.4944073562907
 20
18.2957652210784
 10
231.5615405853514
 20
18.437706508215854
 10
231.61443787050487
 20
18.585544516392858
 10
231.65258978197852
 20
18.73785548477419
 10
231.67562889600885
 20
18.8931725754727
 10
231.68333333333334
 20
19.049999999999997
 10
231.67562889600885
 20
19.206827424527294
  0
ENDSEC
  0
SECTION
  2
OBJECTS
  0
DICTIONARY
  5
A
330
0
100
AcDbDictionary
280
0
281
1
  3
ACAD_COLOR
350
B
  3
ACAD_GROUP
350
C
  3
ACAD_LAYOUT
350
D
  3
ACAD_MATERIAL
350
E
  3
ACAD_MLEADERSTYLE
350
F
  3
ACAD_MLINESTYLE
350
10
  3
ACAD_PLOTSETTINGS
350
11
  3
ACAD_PLOTSTYLENAME
350
12
  3
ACAD_SCALELIST
350
14
  3
ACAD_TABLESTYLE
350
15
  3
ACAD_VISUALSTYLE
350
16
  3
EZDXF_META
350
2D
  0
DICTIONARY
  5
B
330
A
100
AcDbDictionary
280
0
281
1
  0
DICTIONARY
  5
C
330
A
100
AcDbDictionary
280
0
281
1
  0
DICTIONARY
  5
D
330
A
100
AcDbDictionary
280
0
281
1
  3
Model
350
1A
  3
Layout1
350
1E
  0
DICTIONARY
  5
E
330
A
100
AcDbDictionary
280
0
281
1
  3
ByBlock
350
1F
  3
ByLayer
350
20
  3
Global
350
21
  0
DICTIONARY
  5
F
330
A
100
AcDbDictionary
280
0
281
1
  3
Standard
350
2C
  0
DICTIONARY
  5
10
330
A
100
AcDbDictionary
280
0
281
1
  3
Standard
350
22
  0
DICTIONARY
  5
11
330
A
100
AcDbDictionary
280
0
281
1
  0
ACDBDICTIONARYWDFLT
  5
12
330
A
100
AcDbDictionary
280
0
281
1
  3
Normal
350
13
100
AcDbDictionaryWithDefault
340
13
  0
ACDBPLACEHOLDER
  5
13
330
12
  0
DICTIONARY
  5
14
330
A
100
AcDbDictionary
280
0
281
1
  0
DICTIONARY
  5
15
330
A
100
AcDbDictionary
280
0
281
1
  0
DICTIONARY
  5
16
330
A
100
AcDbDictionary
280
0
281
1
  0
LAYOUT
  5
1A
330
D
100
AcDbPlotSettings
  1

  2
Adobe PDF
  4
A3
  6

 40
7.5
 41
20.0
 42
7.5
 43
20.0
 44
420.0
 45
297.0
 46
0.0
 47
0.0
 48
0.0
 49
0.0
140
0.0
141
0.0
142
1.0
143
1.0
 70
1024
 72
1
 73
0
 74
5
  7

 75
16
 76
0
 77
2
 78
300
147
1.0
148
0.0
149
0.0
100
AcDbLayout
  1
Model
 70
1
 71
0
 10
0.0
 20
0.0
 11
420.0
 21
297.0
 12
0.0
 22
0.0
 32
0.0
 14
1e+20
 24
1e+20
 34
1e+20
 15
-1e+20
 25
-1e+20
 35
-1e+20
146
0.0
 13
0.0
 23
0.0
 33
0.0
 16
1.0
 26
0.0
 36
0.0
 17
0.0
 27
1.0
 37
0.0
 76
1
330
17
  0
LAYOUT
  5
1E
330
D
100
AcDbPlotSettings
  1

  2
Adobe PDF
  4
A3
  6

 40
7.5
 41
20.0
 42
7.5
 43
20.0
 44
420.0
 45
297.0
 46
0.0
 47
0.0
 48
0.0
 49
0.0
140
0.0
141
0.0
142
1.0
143
1.0
 70
0
 72
1
 73
0
 74
5
  7

 75
16
 76
0
 77
2
 78
300
147
1.0
148
0.0
149
0.0
100
AcDbLayout
  1
Layout1
 70
1
 71
1
 10
0.0
 20
0.0
 11
420.0
 21
297.0
 12
0.0
 22
0.0
 32
0.0
 14
1e+20
 24
1e+20
 34
1e+20
 15
-1e+20
 25
-1e+20
 35
-1e+20
146
0.0
 13
0.0
 23
0.0
 33
0.0
 16
1.0
 26
0.0
 36
0.0
 17
0.0
 27
1.0
 37
0.0
 76
1
330
1B
  0
MATERIAL
  5
1F
102
{ACAD_REACTORS
330
E
102
}
330
E
100
AcDbMaterial
  1
ByBlock
  2

 70
0
 40
1.0
 71
1
 41
1.0
 91
-1023410177
 42
1.0
 72
1
  3

 73
1
 74
1
 75
1
 44
0.5
 73
0
 45
1.0
 46
1.0
 77
1
  4

 78
1
 79
1
170
1
 48
1.0
171
1
  6

172
1
173
1
174
1
140
1.0
141
1.0
175
1
  7

176
1
177
1
178
1
143
1.0
179
1
  8

270
1
271
1
272
1
145
1.0
146
1.0
273
1
  9

274
1
275
1
276
1
 42
1.0
 72
1
  3

 73
1
 74
1
 75
1
 94
63
  0
MATERIAL
  5
20
102
{ACAD_REACTORS
330
E
102
}
330
E
100
AcDbMaterial
  1
ByLayer
  2

 70
0
 40
1.0
 71
1
 41
1.0
 91
-1023410177
 42
1.0
 72
1
  3

 73
1
 74
1
 75
1
 44
0.5
 73
0
 45
1.0
 46
1.0
 77
1
  4

 78
1
 79
1
170
1
 48
1.0
171
1
  6

172
1
173
1
174
1
140
1.0
141
1.0
175
1
  7

176
1
177
1
178
1
143
1.0
179
1
  8

270
1
271
1
272
1
145
1.0
146
1.0
273
1
  9

274
1
275
1
276
1
 42
1.0
 72
1
  3

 73
1
 74
1
 75
1
 94
63
  0
MATERIAL
  5
21
102
{ACAD_REACTORS
330
E
102
}
330
E
100
AcDbMaterial
  1
Global
  2

 70
0
 40
1.0
 71
1
 41
1.0
 91
-1023410177
 42
1.0
 72
1
  3

 73
1
 74
1
 75
1
 44
0.5
 73
0
 45
1.0
 46
1.0
 77
1
  4

 78
1
 79
1
170
1
 48
1.0
171
1
  6

172
1
173
1
174
1
140
1.0
141
1.0
175
1
  7

176
1
177
1
178
1
143
1.0
179
1
  8

270
1
271
1
272
1
145
1.0
146
1.0
273
1
  9

274
1
275
1
276
1
 42
1.0
 72
1
  3

 73
1
 74
1
 75
1
 94
63
  0
MLINESTYLE
  5
22
102
{ACAD_REACTORS
330
10
102
}
330
10
100
AcDbMlineStyle
  2
Standard
 70
0
  3

 62
256
 51
90.0
 52
90.0
 71
2
 49
0.5
 62
256
  6
BYLAYER
 49
-0.5
 62
256
  6
BYLAYER
  0
MLEADERSTYLE
  5
2C
102
{ACAD_REACTORS
330
F
102
}
330
F
100
AcDbMLeaderStyle
179
2
170
2
171
1
172
0
 90
2
 40
0.0
 41
0.0
173
1
 91
-1056964608
 92
-2
290
1
 42
2.0
291
1
 43
8.0
  3
Standard
 44
4.0
300

342
29
174
1
175
1
176
0
178
1
 93
-1056964608
 45
4.0
292
0
297
0
 46
4.0
 94
-1056964608
 47
1.0
 49
1.0
140
1.0
294
1
141
0.0
177
0
142
1.0
295
0
296
0
143
3.75
271
0
272
9
273
9
  0
DICTIONARY
  5
2D
330
A
100
AcDbDictionary
281
1
  3
CREATED_BY_EZDXF
350
2E
  3
WRITTEN_BY_EZDXF
350
77
  0
DICTIONARYVAR
  5
2E
330
2D
100
DictionaryVariables
280
0
  1
1.1.1 @ 2024-06-06T20:48:10.608554+00:00
  0
DICTIONARYVAR
  5
77
330
2D
100
DictionaryVariables
280
0
  1
1.1.1 @ 2024-06-06T20:48:10.622523+00:00
  0
ENDSEC
  0
EOF
