  0
SECTION
  2
HEADER
  9
$ACADVER
  1
AC1032
  9
$ACADMAINTVER
 90
4
  9
$DWGCODEPAGE
  3
ANSI_1252
  9
$LASTSAVEDBY
  1
ezdxf
  9
$REQUIREDVERSIONS
160
0
  9
$INSBASE
 10
0.0
 20
0.0
 30
0.0
  9
$EXTMIN
 10
1e+20
 20
1e+20
 30
1e+20
  9
$EXTMAX
 10
-1e+20
 20
-1e+20
 30
-1e+20
  9
$LIMMIN
 10
0.0
 20
0.0
  9
$LIMMAX
 10
420.0
 20
297.0
  9
$ORTHOMODE
 70
0
  9
$REGENMODE
 70
1
  9
$FILLMODE
 70
1
  9
$QTEXTMODE
 70
0
  9
$MIRRTEXT
 70
1
  9
$LTSCALE
 40
1.0
  9
$ATTMODE
 70
1
  9
$TEXTSIZE
 40
2.5
  9
$TRACEWID
 40
1.0
  9
$TEXTSTYLE
  7
Standard
  9
$CLAYER
  8
0
  9
$CELTYPE
  6
ByLayer
  9
$CECOLOR
 62
256
  9
$CELTSCALE
 40
1.0
  9
$DISPSILH
 70
0
  9
$DIMSCALE
 40
1.0
  9
$DIMASZ
 40
2.5
  9
$DIMEXO
 40
0.625
  9
$DIMDLI
 40
3.75
  9
$DIMRND
 40
0.0
  9
$DIMDLE
 40
0.0
  9
$DIMEXE
 40
1.25
  9
$DIMTP
 40
0.0
  9
$DIMTM
 40
0.0
  9
$DIMTXT
 40
2.5
  9
$DIMCEN
 40
2.5
  9
$DIMTSZ
 40
0.0
  9
$DIMTOL
 70
0
  9
$DIMLIM
 70
0
  9
$DIMTIH
 70
0
  9
$DIMTOH
 70
0
  9
$DIMSE1
 70
0
  9
$DIMSE2
 70
0
  9
$DIMTAD
 70
1
  9
$DIMZIN
 70
8
  9
$DIMBLK
  1

  9
$DIMASO
 70
1
  9
$DIMSHO
 70
1
  9
$DIMPOST
  1

  9
$DIMAPOST
  1

  9
$DIMALT
 70
0
  9
$DIMALTD
 70
3
  9
$DIMALTF
 40
0.03937007874
  9
$DIMLFAC
 40
1.0
  9
$DIMTOFL
 70
1
  9
$DIMTVP
 40
0.0
  9
$DIMTIX
 70
0
  9
$DIMSOXD
 70
0
  9
$DIMSAH
 70
0
  9
$DIMBLK1
  1

  9
$DIMBLK2
  1

  9
$DIMSTYLE
  2
ISO-25
  9
$DIMCLRD
 70
0
  9
$DIMCLRE
 70
0
  9
$DIMCLRT
 70
0
  9
$DIMTFAC
 40
1.0
  9
$DIMGAP
 40
0.625
  9
$DIMJUST
 70
0
  9
$DIMSD1
 70
0
  9
$DIMSD2
 70
0
  9
$DIMTOLJ
 70
0
  9
$DIMTZIN
 70
8
  9
$DIMALTZ
 70
0
  9
$DIMALTTZ
 70
0
  9
$DIMUPT
 70
0
  9
$DIMDEC
 70
2
  9
$DIMTDEC
 70
2
  9
$DIMALTU
 70
2
  9
$DIMALTTD
 70
3
  9
$DIMTXSTY
  7
Standard
  9
$DIMAUNIT
 70
0
  9
$DIMADEC
 70
0
  9
$DIMALTRND
 40
0.0
  9
$DIMAZIN
 70
0
  9
$DIMDSEP
 70
44
  9
$DIMATFIT
 70
3
  9
$DIMFRAC
 70
0
  9
$DIMLDRBLK
  1

  9
$DIMLUNIT
 70
2
  9
$DIMLWD
 70
-2
  9
$DIMLWE
 70
-2
  9
$DIMTMOVE
 70
0
  9
$DIMFXL
 40
1.0
  9
$DIMFXLON
 70
0
  9
$DIMJOGANG
 40
0.785398163397
  9
$DIMTFILL
 70
0
  9
$DIMTFILLCLR
 70
0
  9
$DIMARCSYM
 70
0
  9
$DIMLTYPE
  6

  9
$DIMLTEX1
  6

  9
$DIMLTEX2
  6

  9
$DIMTXTDIRECTION
 70
0
  9
$LUNITS
 70
2
  9
$LUPREC
 70
4
  9
$SKETCHINC
 40
1.0
  9
$FILLETRAD
 40
10.0
  9
$AUNITS
 70
0
  9
$AUPREC
 70
2
  9
$MENU
  1
.
  9
$ELEVATION
 40
0.0
  9
$PELEVATION
 40
0.0
  9
$THICKNESS
 40
0.0
  9
$LIMCHECK
 70
0
  9
$CHAMFERA
 40
0.0
  9
$CHAMFERB
 40
0.0
  9
$CHAMFERC
 40
0.0
  9
$CHAMFERD
 40
0.0
  9
$SKPOLY
 70
0
  9
$TDCREATE
 40
2460468.6584490743
  9
$TDUCREATE
 40
2458532.153996898
  9
$TDUPDATE
 40
2460468.6584490743
  9
$TDUUPDATE
 40
2458532.1544311
  9
$TDINDWG
 40
0.0
  9
$TDUSRTIMER
 40
0.0
  9
$USRTIMER
 70
1
  9
$ANGBASE
 50
0.0
  9
$ANGDIR
 70
0
  9
$PDMODE
 70
0
  9
$PDSIZE
 40
0.0
  9
$PLINEWID
 40
0.0
  9
$SPLFRAME
 70
0
  9
$SPLINETYPE
 70
6
  9
$SPLINESEGS
 70
8
  9
$HANDSEED
  5
79
  9
$SURFTAB1
 70
6
  9
$SURFTAB2
 70
6
  9
$SURFTYPE
 70
6
  9
$SURFU
 70
6
  9
$SURFV
 70
6
  9
$UCSBASE
  2

  9
$UCSNAME
  2

  9
$UCSORG
 10
0.0
 20
0.0
 30
0.0
  9
$UCSXDIR
 10
1.0
 20
0.0
 30
0.0
  9
$UCSYDIR
 10
0.0
 20
1.0
 30
0.0
  9
$UCSORTHOREF
  2

  9
$UCSORTHOVIEW
 70
0
  9
$UCSORGTOP
 10
0.0
 20
0.0
 30
0.0
  9
$UCSORGBOTTOM
 10
0.0
 20
0.0
 30
0.0
  9
$UCSORGLEFT
 10
0.0
 20
0.0
 30
0.0
  9
$UCSORGRIGHT
 10
0.0
 20
0.0
 30
0.0
  9
$UCSORGFRONT
 10
0.0
 20
0.0
 30
0.0
  9
$UCSORGBACK
 10
0.0
 20
0.0
 30
0.0
  9
$PUCSBASE
  2

  9
$PUCSNAME
  2

  9
$PUCSORG
 10
0.0
 20
0.0
 30
0.0
  9
$PUCSXDIR
 10
1.0
 20
0.0
 30
0.0
  9
$PUCSYDIR
 10
0.0
 20
1.0
 30
0.0
  9
$PUCSORTHOREF
  2

  9
$PUCSORTHOVIEW
 70
0
  9
$PUCSORGTOP
 10
0.0
 20
0.0
 30
0.0
  9
$PUCSORGBOTTOM
 10
0.0
 20
0.0
 30
0.0
  9
$PUCSORGLEFT
 10
0.0
 20
0.0
 30
0.0
  9
$PUCSORGRIGHT
 10
0.0
 20
0.0
 30
0.0
  9
$PUCSORGFRONT
 10
0.0
 20
0.0
 30
0.0
  9
$PUCSORGBACK
 10
0.0
 20
0.0
 30
0.0
  9
$USERI1
 70
0
  9
$USERI2
 70
0
  9
$USERI3
 70
0
  9
$USERI4
 70
0
  9
$USERI5
 70
0
  9
$USERR1
 40
0.0
  9
$USERR2
 40
0.0
  9
$USERR3
 40
0.0
  9
$USERR4
 40
0.0
  9
$USERR5
 40
0.0
  9
$WORLDVIEW
 70
1
  9
$SHADEDGE
 70
3
  9
$SHADEDIF
 70
70
  9
$TILEMODE
 70
1
  9
$MAXACTVP
 70
64
  9
$PINSBASE
 10
0.0
 20
0.0
 30
0.0
  9
$PLIMCHECK
 70
0
  9
$PEXTMIN
 10
1e+20
 20
1e+20
 30
1e+20
  9
$PEXTMAX
 10
-1e+20
 20
-1e+20
 30
-1e+20
  9
$PLIMMIN
 10
0.0
 20
0.0
  9
$PLIMMAX
 10
420.0
 20
297.0
  9
$UNITMODE
 70
0
  9
$VISRETAIN
 70
1
  9
$PLINEGEN
 70
0
  9
$PSLTSCALE
 70
1
  9
$TREEDEPTH
 70
3020
  9
$CMLSTYLE
  2
Standard
  9
$CMLJUST
 70
0
  9
$CMLSCALE
 40
20.0
  9
$PROXYGRAPHICS
 70
1
  9
$MEASUREMENT
 70
1
  9
$CELWEIGHT
370
-1
  9
$ENDCAPS
280
0
  9
$JOINSTYLE
280
0
  9
$LWDISPLAY
290
0
  9
$INSUNITS
 70
4
  9
$HYPERLINKBASE
  1

  9
$STYLESHEET
  1

  9
$XEDIT
290
1
  9
$CEPSNTYPE
380
0
  9
$PSTYLEMODE
290
1
  9
$FINGERPRINTGUID
  2
{7072E11B-2D84-4A76-8FDE-DF6C438199DE}
  9
$VERSIONGUID
  2
{DC558748-0E5F-49E8-8082-4007768CDBDB}
  9
$EXTNAMES
290
1
  9
$PSVPSCALE
 40
0.0
  9
$OLESTARTUP
290
0
  9
$SORTENTS
280
127
  9
$INDEXCTL
280
0
  9
$HIDETEXT
280
1
  9
$XCLIPFRAME
280
0
  9
$HALOGAP
280
0
  9
$OBSCOLOR
 70
257
  9
$OBSLTYPE
280
0
  9
$INTERSECTIONDISPLAY
280
0
  9
$INTERSECTIONCOLOR
 70
257
  9
$DIMASSOC
280
2
  9
$PROJECTNAME
  1

  9
$CAMERADISPLAY
290
0
  9
$LENSLENGTH
 40
50.0
  9
$CAMERAHEIGHT
 40
0.0
  9
$STEPSPERSEC
 40
24.0
  9
$STEPSIZE
 40
100.0
  9
$3DDWFPREC
 40
2.0
  9
$PSOLWIDTH
 40
0.005
  9
$PSOLHEIGHT
 40
0.08
  9
$LOFTANG1
 40
1.570796326795
  9
$LOFTANG2
 40
1.570796326795
  9
$LOFTMAG1
 40
0.0
  9
$LOFTMAG2
 40
0.0
  9
$LOFTPARAM
 70
7
  9
$LOFTNORMALS
280
1
  9
$LATITUDE
 40
37.795
  9
$LONGITUDE
 40
-122.394
  9
$NORTHDIRECTION
 40
0.0
  9
$TIMEZONE
 70
-8000
  9
$LIGHTGLYPHDISPLAY
280
1
  9
$TILEMODELIGHTSYNCH
280
1
  9
$CMATERIAL
347
20
  9
$SOLIDHIST
280
0
  9
$SHOWHIST
280
1
  9
$DWFFRAME
280
2
  9
$DGNFRAME
280
2
  9
$REALWORLDSCALE
290
1
  9
$INTERFERECOLOR
 62
256
  9
$CSHADOW
280
0
  9
$SHADOWPLANELOCATION
 40
0.0
  0
ENDSEC
  0
SECTION
  2
CLASSES
  0
CLASS
  1
ACDBDICTIONARYWDFLT
  2
AcDbDictionaryWithDefault
  3
ObjectDBX Classes
 90
0
 91
0
280
0
281
0
  0
CLASS
  1
SUN
  2
AcDbSun
  3
SCENEOE
 90
1153
 91
0
280
0
281
0
  0
CLASS
  1
VISUALSTYLE
  2
AcDbVisualStyle
  3
ObjectDBX Classes
 90
4095
 91
0
280
0
281
0
  0
CLASS
  1
MATERIAL
  2
AcDbMaterial
  3
ObjectDBX Classes
 90
1153
 91
0
280
0
281
0
  0
CLASS
  1
SCALE
  2
AcDbScale
  3
ObjectDBX Classes
 90
1153
 91
0
280
0
281
0
  0
CLASS
  1
TABLESTYLE
  2
AcDbTableStyle
  3
ObjectDBX Classes
 90
4095
 91
0
280
0
281
0
  0
CLASS
  1
MLEADERSTYLE
  2
AcDbMLeaderStyle
  3
ACDB_MLEADERSTYLE_CLASS
 90
4095
 91
0
280
0
281
0
  0
CLASS
  1
DICTIONARYVAR
  2
AcDbDictionaryVar
  3
ObjectDBX Classes
 90
0
 91
0
280
0
281
0
  0
CLASS
  1
CELLSTYLEMAP
  2
AcDbCellStyleMap
  3
ObjectDBX Classes
 90
1152
 91
0
280
0
281
0
  0
CLASS
  1
MENTALRAYRENDERSETTINGS
  2
AcDbMentalRayRenderSettings
  3
SCENEOE
 90
1024
 91
0
280
0
281
0
  0
CLASS
  1
ACDBDETAILVIEWSTYLE
  2
AcDbDetailViewStyle
  3
ObjectDBX Classes
 90
1025
 91
0
280
0
281
0
  0
CLASS
  1
ACDBSECTIONVIEWSTYLE
  2
AcDbSectionViewStyle
  3
ObjectDBX Classes
 90
1025
 91
0
280
0
281
0
  0
CLASS
  1
RASTERVARIABLES
  2
AcDbRasterVariables
  3
ISM
 90
0
 91
0
280
0
281
0
  0
CLASS
  1
ACDBPLACEHOLDER
  2
AcDbPlaceHolder
  3
ObjectDBX Classes
 90
0
 91
0
280
0
281
0
  0
CLASS
  1
LAYOUT
  2
AcDbLayout
  3
ObjectDBX Classes
 90
0
 91
0
280
0
281
0
  0
ENDSEC
  0
SECTION
  2
TABLES
  0
TABLE
  2
VPORT
  5
8
330
0
100
AcDbSymbolTable
 70
1
  0
VPORT
  5
23
330
8
100
AcDbSymbolTableRecord
100
AcDbViewportTableRecord
  2
*Active
 70
0
 10
0.0
 20
0.0
 11
1.0
 21
1.0
 12
0.0
 22
0.0
 13
0.0
 23
0.0
 14
0.5
 24
0.5
 15
0.5
 25
0.5
 16
0.0
 26
0.0
 36
1.0
 17
0.0
 27
0.0
 37
0.0
 40
1000.0
 41
1.34
 42
50.0
 43
0.0
 44
0.0
 50
0.0
 51
0.0
 71
0
 72
1000
 73
1
 74
3
 75
0
 76
0
 77
0
 78
0
281
0
 65
0
146
0.0
  0
ENDTAB
  0
TABLE
  2
LTYPE
  5
2
330
0
100
AcDbSymbolTable
 70
3
  0
LTYPE
  5
24
330
2
100
AcDbSymbolTableRecord
100
AcDbLinetypeTableRecord
  2
ByBlock
 70
0
  3

 72
65
 73
0
 40
0.0
  0
LTYPE
  5
25
330
2
100
AcDbSymbolTableRecord
100
AcDbLinetypeTableRecord
  2
ByLayer
 70
0
  3

 72
65
 73
0
 40
0.0
  0
LTYPE
  5
26
330
2
100
AcDbSymbolTableRecord
100
AcDbLinetypeTableRecord
  2
Continuous
 70
0
  3

 72
65
 73
0
 40
0.0
  0
ENDTAB
  0
TABLE
  2
LAYER
  5
1
330
0
100
AcDbSymbolTable
 70
2
  0
LAYER
  5
27
330
1
100
AcDbSymbolTableRecord
100
AcDbLayerTableRecord
  2
0
 70
0
 62
7
  6
Continuous
370
-3
390
13
347
21
  0
LAYER
  5
28
330
1
100
AcDbSymbolTableRecord
100
AcDbLayerTableRecord
  2
Defpoints
 70
0
 62
7
  6
Continuous
290
0
370
-3
390
13
347
21
  0
ENDTAB
  0
TABLE
  2
STYLE
  5
5
330
0
100
AcDbSymbolTable
 70
1
  0
STYLE
  5
29
330
5
100
AcDbSymbolTableRecord
100
AcDbTextStyleTableRecord
  2
Standard
 70
0
 40
0.0
 41
1.0
 50
0.0
 71
0
 42
2.5
  3
txt
  4

  0
ENDTAB
  0
TABLE
  2
VIEW
  5
7
330
0
100
AcDbSymbolTable
 70
0
  0
ENDTAB
  0
TABLE
  2
UCS
  5
6
330
0
100
AcDbSymbolTable
 70
0
  0
ENDTAB
  0
TABLE
  2
APPID
  5
3
330
0
100
AcDbSymbolTable
 70
3
  0
APPID
  5
2A
330
3
100
AcDbSymbolTableRecord
100
AcDbRegAppTableRecord
  2
ACAD
 70
0
  0
APPID
  5
76
330
3
100
AcDbSymbolTableRecord
100
AcDbRegAppTableRecord
  2
HATCHBACKGROUNDCOLOR
 70
0
  0
APPID
  5
77
330
3
100
AcDbSymbolTableRecord
100
AcDbRegAppTableRecord
  2
EZDXF
 70
0
  0
ENDTAB
  0
TABLE
  2
DIMSTYLE
  5
4
330
0
100
AcDbSymbolTable
 70
1
100
AcDbDimStyleTable
  0
DIMSTYLE
105
2B
330
4
100
AcDbSymbolTableRecord
100
AcDbDimStyleTableRecord
  2
Standard
 70
0
 40
1.0
 41
2.5
 42
0.625
 43
3.75
 44
1.25
 45
0.0
 46
0.0
 47
0.0
 48
0.0
 49
2.5
140
2.5
141
2.5
142
0.0
143
0.03937007874
144
1.0
145
0.0
146
1.0
147
0.625
148
0.0
 69
0
 70
0
 71
0
 72
0
 73
0
 74
0
 75
0
 76
0
 77
1
 78
8
 79
3
170
0
171
3
172
1
173
0
174
0
175
0
176
0
177
0
178
0
179
2
271
2
272
2
273
2
274
3
275
0
276
0
277
2
278
44
279
0
280
0
281
0
282
0
283
0
284
8
285
0
286
0
288
0
289
3
290
0
371
-2
372
-2
  0
ENDTAB
  0
TABLE
  2
BLOCK_RECORD
  5
9
330
0
100
AcDbSymbolTable
 70
2
  0
BLOCK_RECORD
  5
17
330
9
100
AcDbSymbolTableRecord
100
AcDbBlockTableRecord
  2
*Model_Space
340
1A
 70
0
280
1
281
0
  0
BLOCK_RECORD
  5
1B
330
9
100
AcDbSymbolTableRecord
100
AcDbBlockTableRecord
  2
*Paper_Space
340
1E
 70
0
280
1
281
0
  0
ENDTAB
  0
ENDSEC
  0
SECTION
  2
BLOCKS
  0
BLOCK
  5
18
330
17
100
AcDbEntity
  8
0
100
AcDbBlockBegin
  2
*Model_Space
 70
0
 10
0.0
 20
0.0
 30
0.0
  3
*Model_Space
  1

  0
ENDBLK
  5
19
330
17
100
AcDbEntity
  8
0
100
AcDbBlockEnd
  0
BLOCK
  5
1C
330
1B
100
AcDbEntity
  8
0
100
AcDbBlockBegin
  2
*Paper_Space
 70
0
 10
0.0
 20
0.0
 30
0.0
  3
*Paper_Space
  1

  0
ENDBLK
  5
1D
330
1B
100
AcDbEntity
  8
0
100
AcDbBlockEnd
  0
ENDSEC
  0
SECTION
  2
ENTITIES
  0
LWPOLYLINE
  5
2F
330
17
100
AcDbEntity
  8
0
 62
0
100
AcDbPolyline
 90
103
 70
0
 10
218.04040404040404
 20
7.274071312497474
 10
215.50505050505052
 20
10.320784761092796
 10
212.96969696969697
 20
13.682994792170778
 10
210.43434343434345
 20
17.239182375055318
 10
207.8989898989899
 20
20.860817624944698
 10
205.36363636363637
 20
24.41700520782924
 10
202.82828282828285
 20
27.779215238907128
 10
200.2929292929293
 20
30.825928687502536
 10
197.75757575757578
 20
33.447029391448595
 10
195.22222222222223
 20
35.547783942093545
 10
192.6868686868687
 20
37.05226559651442
 10
190.15151515151516
 20
37.90609846783176
 10
187.61616161616163
 20
38.0784228114363
 10
185.08080808080808
 20
37.56301037656346
 10
182.54545454545456
 20
36.378489511503574
 10
180.010101010101
 20
34.567671886558884
 10
177.4747474747475
 20
32.19600516873423
 10
174.93939393939394
 20
29.349207572529117
 10
172.40404040404042
 20
26.130169780329233
 10
169.86868686868686
 20
22.655236205065787
 10
167.33333333333334
 20
19.049999999999986
 10
164.7979797979798
 20
15.444763794934154
 10
162.26262626262627
 20
11.969830219670776
 10
159.72727272727275
 20
8.750792427470891
 10
157.1919191919192
 20
5.9039948312657735
 10
154.65656565656568
 20
3.5323281134411193
 10
152.12121212121212
 20
1.721510488496424
 10
149.5858585858586
 20
0.5369896234365363
 10
147.05050505050505
 20
0.021577188563696836
 10
144.51515151515153
 20
0.1939015321682298
 10
141.97979797979798
 20
1.047734403485567
 10
139.44444444444446
 20
2.552216057906442
 10
136.9090909090909
 20
4.65297060855139
 10
134.37373737373738
 20
7.2740713124974725
 10
131.83838383838383
 20
10.32078476109285
 10
129.3030303030303
 20
13.682994792170772
 10
126.76767676767678
 20
17.239182375055314
 10
124.23232323232324
 20
20.86081762494466
 10
121.6969696969697
 20
24.417005207829234
 10
119.16161616161617
 20
27.779215238907156
 10
116.62626262626263
 20
30.825928687502532
 10
114.0909090909091
 20
33.44702939144861
 10
111.55555555555556
 20
35.54778394209356
 10
109.02020202020202
 20
37.05226559651443
 10
106.48484848484848
 20
37.90609846783177
 10
103.94949494949495
 20
38.0784228114363
 10
101.41414141414143
 20
37.56301037656347
 10
98.87878787878789
 20
36.378489511503574
 10
96.34343434343435
 20
34.5676718865589
 10
93.80808080808082
 20
32.19600516873423
 10
91.27272727272728
 20
29.34920757252913
 10
88.73737373737374
 20
26.130169780329236
 10
86.20202020202021
 20
22.65523620506581
 10
83.66666666666667
 20
19.049999999999994
 10
81.13131313131314
 20
15.444763794934193
 10
78.5959595959596
 20
11.969830219670765
 10
76.06060606060606
 20
8.750792427470865
 10
73.52525252525253
 20
5.903994831265765
 10
70.98989898989899
 20
3.5323281134411015
 10
68.45454545454545
 20
1.7215104884964205
 10
65.91919191919192
 20
0.5369896234365257
 10
63.38383838383839
 20
0.021577188563696836
 10
60.84848484848485
 20
0.19390153216823336
 10
58.313131313131315
 20
1.047734403485567
 10
55.77777777777778
 20
2.552216057906449
 10
53.24242424242424
 20
4.652970608551382
 10
50.70707070707071
 20
7.274071312497462
 10
48.17171717171718
 20
10.320784761092824
 10
45.63636363636364
 20
13.68299479217076
 10
43.101010101010104
 20
17.239182375055318
 10
40.56565656565657
 20
20.860817624944673
 10
38.03030303030303
 20
24.41700520782923
 10
35.494949494949495
 20
27.779215238907167
 10
32.95959595959596
 20
30.825928687502532
 10
30.424242424242426
 20
33.447029391448616
 10
27.88888888888889
 20
35.54778394209355
 10
25.353535353535356
 20
37.05226559651443
 10
22.81818181818182
 20
37.90609846783176
 10
20.282828282828284
 20
38.0784228114363
 10
17.747474747474747
 20
37.56301037656346
 10
15.212121212121213
 20
36.378489511503574
 10
12.676767676767678
 20
34.56767188655889
 10
10.141414141414142
 20
32.19600516873423
 10
7.606060606060606
 20
29.34920757252913
 10
5.070707070707071
 20
26.130169780329236
 10
2.5353535353535355
 20
22.655236205065812
 10
0.0
 20
19.049999999999997
 10
0.0
 20
143.04999999999995
 10
251.0
 20
143.04999999999995
 10
251.0
 20
19.049999999999983
 10
248.46464646464648
 20
15.444763794934216
 10
245.92929292929293
 20
11.96983021967077
 10
243.3939393939394
 20
8.75079242747086
 10
240.85858585858588
 20
5.903994831265795
 10
238.32323232323233
 20
3.5323281134411157
 10
235.7878787878788
 20
1.721510488496424
 10
233.25252525252526
 20
0.5369896234365257
 10
230.71717171717174
 20
0.021577188563696836
 10
228.1818181818182
 20
0.1939015321682298
 10
225.64646464646466
 20
1.0477344034855705
 10
223.11111111111111
 20
2.5522160579064597
 10
220.5757575757576
 20
4.652970608551371
 10
218.04040404040404
 20
7.274071312497474
  0
LWPOLYLINE
  5
30
330
17
100
AcDbEntity
  8
0
 62
0
100
AcDbPolyline
 90
14
 70
0
 10
146.26186643232668
 20
33.0423951521433
 10
147.924422506243
 20
37.31428238330409
 10
143.58933674078435
 20
42.71863538818434
 10
136.74148686416447
 20
41.66651748958975
 10
131.71595864370465
 20
28.753575682640076
 10
137.23690794405212
 20
29.60182581660849
 10
137.53516068837564
 20
29.87214634707831
 10
138.63868340439225
 20
30.690574572235633
 10
139.8171123511027
 20
31.396897700876966
 10
141.05909861355542
 20
31.98431345515801
 10
142.35268118510422
 20
32.44716470025092
 10
143.6854021584409
 20
32.78099392564522
 10
145.04442670205285
 20
32.98258617341075
 10
146.26186643232668
 20
33.0423951521433
  0
LWPOLYLINE
  5
31
330
17
100
AcDbEntity
  8
0
 62
0
100
AcDbPolyline
 90
20
 70
0
 10
159.8138313669176
 20
23.113985481562473
 10
159.85260135945583
 20
22.959206995254775
 10
160.35678701568253
 20
23.036671128190566
 10
159.97071289940936
 20
22.48767929631465
 10
159.97071289940936
 20
22.487679296314642
 10
160.78946033907735
 20
23.65192636132381
 10
163.32481387443087
 20
27.25716256638961
 10
163.40599727762225
 20
27.37049264024989
 10
165.93740562528114
 20
30.840018975461913
 10
162.22756281076
 20
35.46491021057591
 10
155.37971293460578
 20
34.41279231244698
 10
153.9809335448989
 20
30.818671243180447
 10
154.19464992894112
 20
30.690574572235633
 10
155.29817264495773
 20
29.872146347078314
 10
156.31616160327835
 20
28.949494936611664
 10
157.238813013745
 20
27.931505978291042
 10
158.05724123890232
 20
26.82798326227443
 10
158.76356436754367
 20
25.649554315563968
 10
159.3509801218247
 20
24.407568053111262
 10
159.8138313669176
 20
23.113985481562473
  0
LWPOLYLINE
  5
32
330
17
100
AcDbEntity
  8
0
 62
0
100
AcDbPolyline
 90
19
 70
0
 10
69.34955431556396
 20
31.39689770087697
 10
70.52798326227443
 20
30.690574572235633
 10
71.63150597829105
 20
29.872146347078314
 10
72.64949493661166
 20
28.949494936611664
 10
72.65836775680447
 20
28.93970528812365
 10
76.34749048994854
 20
30.96337982825935
 10
74.13645883463323
 20
34.91754884831607
 10
64.79458581702784
 20
38.31290190946311
 10
57.588956190273166
 20
34.36024154117331
 10
57.538130884567266
 20
32.036445368648835
 10
58.686014518437524
 20
32.44716470025092
 10
60.0187354917742
 20
32.78099392564522
 10
61.37776003538615
 20
32.98258617341075
 10
62.75
 20
33.05
 10
64.12223996461384
 20
32.98258617341075
 10
65.48126450822579
 20
32.78099392564522
 10
66.81398548156247
 20
32.44716470025092
 10
68.10756805311127
 20
31.98431345515801
 10
69.34955431556396
 20
31.39689770087697
  0
LWPOLYLINE
  5
33
330
17
100
AcDbEntity
  8
0
 62
0
100
AcDbPolyline
 90
15
 70
0
 10
8.0
 20
52.781093938964695
 10
8.0
 20
45.73909276688664
 10
11.640878772722893
 20
43.52949639106848
 10
11.177256806831299
 20
43.28644646207329
 10
11.825854847955425
 20
43.626468547822554
 10
14.36120838330896
 20
44.81098941288244
 10
15.239967887022617
 20
45.159878767208745
 10
16.1537518566038
 20
45.40265624529465
 10
18.689105391957337
 20
45.91806868016749
 10
19.395987720598438
 20
46.029115474166
 10
20.109964967969354
 20
46.07655498553645
 10
19.83572506552797
 20
46.05833338671379
 10
19.97677984042093
 20
52.50753308041021
 10
14.053962011821568
 20
56.102005081716925
 10
8.0
 20
52.781093938964695
  0
LWPOLYLINE
  5
34
330
17
100
AcDbEntity
  8
0
 62
0
100
AcDbPolyline
 90
10
 70
0
 10
46.664901335459234
 20
26.086684772197092
 10
49.43937383266166
 20
27.60862637218088
 10
49.59086898434907
 20
34.53517307480797
 10
43.66805115574971
 20
38.12964507564902
 10
39.28855807860367
 20
35.727266710871426
 10
41.64426624666987
 20
32.8964316196176
 10
41.8824384558628
 20
32.5958514898826
 10
44.41779199121633
 20
29.233641458804666
 10
44.544309824600255
 20
29.06111066354938
 10
46.664901335459234
 20
26.086684772197092
  0
LWPOLYLINE
  5
35
330
17
100
AcDbEntity
  8
0
 62
0
100
AcDbPolyline
 90
22
 70
0
 10
103.0626543872651
 20
46.029115474166
 10
102.40906783978828
 20
45.92644111415281
 10
102.70152591215447
 20
50.24118859646842
 10
100.62391184503213
 20
53.68907972658053
 10
85.73818155005574
 20
50.98354717856273
 10
81.28055040584877
 20
38.533006789628416
 10
84.20432652408364
 20
33.30417846373406
 10
82.45262607553805
 20
31.080113903958384
 10
84.98797961089159
 20
34.299151696158276
 10
85.2985268665226
 20
34.669821212561985
 10
87.83388040187613
 20
37.516618808767085
 10
88.34296586624481
 20
38.038309395023795
 10
90.87831940159835
 20
40.40997611284846
 10
91.69378244917067
 20
41.07772083124204
 10
94.22913598452419
 20
42.888538456186716
 10
94.84392347349797
 20
43.286446462073286
 10
95.49252151462208
 20
43.62646854782255
 10
98.02787504997562
 20
44.81098941288244
 10
98.90663455368929
 20
45.15987876720875
 10
99.82041852327049
 20
45.40265624529466
 10
102.35577205862401
 20
45.91806868016749
 10
103.0626543872651
 20
46.029115474166
  0
LWPOLYLINE
  5
36
330
17
100
AcDbEntity
  8
0
 62
0
100
AcDbPolyline
 90
18
 70
0
 10
124.95111067034304
 20
49.97236056532711
 10
110.55170478625223
 20
47.76000589458272
 10
110.36734431254118
 20
45.04006424953214
 10
109.03811346638857
 20
45.48771029738629
 10
111.5734670017421
 20
44.633877426068956
 10
112.35660192331112
 20
44.323333997137105
 10
113.1027373415193
 20
43.93215697285147
 10
115.63809087687284
 20
42.4276753184306
 10
116.1629947563419
 20
42.08777660348526
 10
116.65974608665209
 20
41.70791697817845
 10
119.19509962200563
 20
39.6071624275335
 10
119.84103673114933
 20
39.009046302690905
 10
122.37639026650287
 20
36.38794559874483
 10
122.77557937798301
 20
35.94314506821296
 10
125.31093291333656
 20
32.89643161961758
 10
124.92451154742415
 20
33.36079099038509
 10
129.28619643626735
 20
44.56800756044686
 10
124.95111067034304
 20
49.97236056532711
  0
LWPOLYLINE
  5
37
330
17
100
AcDbEntity
  8
0
 62
0
100
AcDbPolyline
 90
15
 70
0
 10
168.96519353318925
 20
34.66982121256198
 10
171.5005470685428
 20
37.51661880876709
 10
172.0096325329115
 20
38.038309395023795
 10
174.54498606826502
 20
40.40997611284845
 10
175.36044911583733
 20
41.07772083124202
 10
177.89580265119088
 20
42.88853845618671
 10
178.51059014016465
 20
43.28644646207329
 10
179.15918818128876
 20
43.62646854782255
 10
181.69454171664228
 20
44.810989412882435
 10
180.73105661151524
 20
44.36084776822291
 10
177.82858612155542
 20
47.979224880225956
 10
170.9807362454012
 20
46.92710698209703
 10
168.46797213563696
 20
40.47063607908785
 10
171.15171527305122
 20
37.12493634593186
 10
168.96519353318925
 20
34.66982121256198
  0
LWPOLYLINE
  5
38
330
17
100
AcDbEntity
  8
0
 62
0
100
AcDbPolyline
 90
7
 70
0
 10
239.99275650642812
 20
47.30608393345028
 10
234.20116277458146
 20
43.50378962000832
 10
234.59824937675148
 20
36.58697516284883
 10
240.78692971123382
 20
33.472455020062625
 10
243.0
 20
34.92537885481855
 10
243.0
 20
45.792656202580005
 10
239.99275650642812
 20
47.30608393345028
  0
LWPOLYLINE
  5
39
330
17
100
AcDbEntity
  8
0
 62
0
100
AcDbPolyline
 90
7
 70
0
 10
238.00732349418104
 20
81.89015621785074
 10
232.21572976233438
 20
78.08786190440878
 10
232.6128163645044
 20
71.1710474472493
 10
238.80149669898674
 20
68.05652730446309
 10
243.0
 20
70.81292665938122
 10
243.0
 20
79.37753790432797
 10
238.00732349418104
 20
81.89015621785074
  0
LWPOLYLINE
  5
3A
330
17
100
AcDbEntity
  8
0
 62
0
100
AcDbPolyline
 90
5
 70
0
 10
240.80948837520555
 20
102.86985764512792
 10
241.60366158001125
 20
89.0362287312746
 10
243.0
 20
88.33350635744364
 10
243.0
 20
101.76745903824188
 10
240.80948837520555
 20
102.86985764512792
  0
LWPOLYLINE
  5
3B
330
17
100
AcDbEntity
  8
0
 62
0
100
AcDbPolyline
 90
6
 70
0
 10
241.9051205497235
 20
125.65076378453523
 10
242.1283945344982
 20
135.04999999999995
 10
228.32978381723976
 20
135.04999999999995
 10
228.17660808889195
 20
133.22507570218295
 10
241.89562162943184
 20
125.64284133538604
 10
241.9051205497235
 20
125.65076378453523
  0
LWPOLYLINE
  5
3C
330
17
100
AcDbEntity
  8
0
 62
0
100
AcDbPolyline
 90
6
 70
0
 10
220.1636511888355
 20
133.4058604389429
 10
220.30165268015304
 20
135.04999999999995
 10
198.06577878051587
 20
135.04999999999995
 10
198.13745649531484
 20
134.32114392984658
 10
212.91976645262912
 20
129.2608154648915
 10
220.1636511888355
 20
133.4058604389429
  0
LWPOLYLINE
  5
3D
330
17
100
AcDbEntity
  8
0
 62
0
100
AcDbPolyline
 90
13
 70
0
 10
178.35050506338834
 20
133.89949493661163
 10
179.36849402170895
 20
134.82214634707827
 10
179.67571910779162
 20
135.04999999999995
 10
167.7924081349177
 20
135.04999999999995
 10
165.33436021301895
 20
132.10077432869002
 10
170.3378864750266
 20
125.20119526889175
 10
174.54035392818406
 20
126.81648991801555
 10
174.85283529974907
 20
128.06398548156244
 10
175.31568654484198
 20
129.3575680531112
 10
175.90310229912302
 20
130.59955431556392
 10
176.60942542776436
 20
131.77798326227438
 10
177.42785365292167
 20
132.881505978291
 10
178.35050506338834
 20
133.89949493661163
  0
LWPOLYLINE
  5
3E
330
17
100
AcDbEntity
  8
0
 62
0
100
AcDbPolyline
 90
14
 70
0
 10
105.21465381953504
 20
135.04999999999995
 10
103.17960025835782
 20
129.3659234722145
 10
107.66080705123022
 20
124.08210045518354
 10
111.53865857010504
 20
124.78691327220139
 10
111.56741382658925
 20
125.37223996461381
 10
111.76900607435478
 20
126.73126450822575
 10
112.10283529974907
 20
128.06398548156244
 10
112.56568654484198
 20
129.3575680531112
 10
113.15310229912303
 20
130.59955431556392
 10
113.85942542776436
 20
131.77798326227438
 10
114.67785365292168
 20
132.881505978291
 10
115.46852643142425
 20
133.75387895580934
 10
115.8681238908441
 20
135.04999999999995
 10
105.21465381953504
 20
135.04999999999995
  0
LWPOLYLINE
  5
3F
330
17
100
AcDbEntity
  8
0
 62
0
100
AcDbPolyline
 90
6
 70
0
 10
95.64777682349086
 20
132.06252054078504
 10
96.7173754966602
 20
135.04999999999995
 10
84.53980192465977
 20
135.04999999999995
 10
84.17279089754447
 20
133.7655092147179
 10
86.09817753639072
 20
130.32684810925275
 10
95.64777682349086
 20
132.06252054078504
  0
LWPOLYLINE
  5
40
330
17
100
AcDbEntity
  8
0
 62
0
100
AcDbPolyline
 90
17
 70
0
 10
52.85050506338833
 20
133.89949493661163
 10
53.868494021708955
 20
134.82214634707827
 10
54.17571910779162
 20
135.04999999999995
 10
46.81553008194593
 20
135.04999999999995
 10
45.38166309520602
 20
134.14235946396366
 10
44.25477518327534
 20
125.82321218959987
 10
48.87316936358049
 20
122.2518867364213
 10
48.817413826589245
 20
122.6277600353861
 10
48.75
 20
123.99999999999996
 10
48.817413826589245
 20
125.37223996461381
 10
49.01900607435478
 20
126.73126450822575
 10
49.352835299749074
 20
128.06398548156244
 10
49.81568654484198
 20
129.3575680531112
 10
50.40310229912303
 20
130.59955431556392
 10
51.109425427764364
 20
131.77798326227438
 10
51.927853652921684
 20
132.881505978291
 10
52.85050506338833
 20
133.89949493661163
  0
LWPOLYLINE
  5
41
330
17
100
AcDbEntity
  8
0
 62
0
100
AcDbPolyline
 90
7
 70
0
 10
23.40448842383921
 20
129.30531331710517
 10
29.916483990848064
 20
124.26969820680097
 10
36.327174915000796
 20
126.89706226345152
 10
37.29778519785032
 20
134.06250418769196
 10
35.0237813694202
 20
135.04999999999995
 10
24.17241328819858
 20
135.04999999999995
 10
23.40448842383921
 20
129.30531331710517
  0
LWPOLYLINE
  5
42
330
17
100
AcDbEntity
  8
0
 62
0
100
AcDbPolyline
 90
6
 70
0
 10
15.443960491102189
 20
130.1329307956621
 10
16.101253031002386
 20
135.04999999999995
 10
8.0
 20
135.04999999999995
 10
8.0
 20
127.5240233400787
 10
9.136650400236249
 20
126.82770563289523
 10
15.443960491102189
 20
130.1329307956621
  0
LWPOLYLINE
  5
43
330
17
100
AcDbEntity
  8
0
 62
0
100
AcDbPolyline
 90
7
 70
0
 10
14.508447466883808
 20
76.88164518866688
 10
20.582760448101908
 20
80.2137198895216
 10
20.906029641162604
 20
94.99398932559416
 10
11.379335935693234
 20
96.18902108399197
 10
8.0
 20
90.62459276620332
 10
8.0
 20
80.83152729998925
 10
14.508447466883808
 20
76.88164518866688
  0
LWPOLYLINE
  5
44
330
17
100
AcDbEntity
  8
0
 62
0
100
AcDbPolyline
 90
5
 70
0
 10
10.206413561012596
 20
63.11601755069569
 10
10.357908712234348
 20
70.04256425332278
 10
8.0
 20
71.4735447582928
 10
8.0
 20
61.905685644843516
 10
10.206413561012596
 20
63.11601755069569
  0
LWPOLYLINE
  5
45
330
17
100
AcDbEntity
  8
0
 62
0
100
AcDbPolyline
 90
7
 70
0
 10
24.127318595536053
 20
59.34661401575431
 10
30.20163157628849
 20
62.67868871707469
 10
30.353126727975905
 20
69.60523541970178
 10
24.43030889937654
 20
73.19970742054284
 10
18.355995918158442
 20
69.86763271968812
 10
18.20450076693669
 20
62.941086017526686
 10
24.127318595536053
 20
59.34661401575431
  0
LWPOLYLINE
  5
46
330
17
100
AcDbEntity
  8
0
 62
0
100
AcDbPolyline
 90
7
 70
0
 10
11.615438350476325
 20
104.2220997675322
 10
22.97140493290499
 20
102.79760338598862
 10
25.022702413145453
 20
117.94112002011389
 10
18.71776461508125
 20
122.8166208891198
 10
12.78329191217199
 20
119.70677402568981
 10
11.488245842978358
 20
104.41227559139952
 10
11.615438350476325
 20
104.2220997675322
  0
LWPOLYLINE
  5
47
330
17
100
AcDbEntity
  8
0
 62
0
100
AcDbPolyline
 90
7
 70
0
 10
27.823371894657612
 20
45.40605484461412
 10
33.746189723256975
 20
41.811582843307406
 10
39.820502704475075
 20
45.143657544627786
 10
39.97199785616249
 20
52.07020424725488
 10
34.049180027563125
 20
55.66467624809593
 10
27.974867046345025
 20
52.33260154677555
 10
27.823371894657612
 20
45.40605484461412
  0
LWPOLYLINE
  5
48
330
17
100
AcDbEntity
  8
0
 62
0
100
AcDbPolyline
 90
6
 70
0
 10
59.86497570294887
 20
44.733347615692765
 10
56.99827428534627
 20
56.84770124359056
 10
47.97008506208658
 20
51.895272713620216
 10
47.81858991039917
 20
44.96872601099312
 10
53.74140773899853
 20
41.37425401015207
 10
59.86497570294887
 20
44.733347615692765
  0
LWPOLYLINE
  5
49
330
17
100
AcDbEntity
  8
0
 62
0
100
AcDbPolyline
 90
6
 70
0
 10
44.12253661081195
 20
58.90928518259898
 10
53.25397713994607
 20
63.91835239157081
 10
50.06731711840257
 20
75.8571921843104
 10
38.3512139339
 20
69.43030388606712
 10
38.199718782212585
 20
62.50375718344003
 10
44.12253661081195
 20
58.90928518259898
  0
LWPOLYLINE
  5
4A
330
17
100
AcDbEntity
  8
0
 62
0
100
AcDbPolyline
 90
6
 70
0
 10
61.289436692371964
 20
64.83479710202664
 10
72.29456117004156
 20
66.8350162296556
 10
74.62988273520023
 20
73.35776666086167
 10
70.14867594186217
 20
78.64158967789263
 10
58.184601908549666
 20
76.46707817865536
 10
61.289436692371964
 20
64.83479710202664
  0
LWPOLYLINE
  5
4B
330
17
100
AcDbEntity
  8
0
 62
0
100
AcDbPolyline
 90
6
 70
0
 10
46.573836889117956
 20
83.06542937783524
 10
43.733139011543244
 20
93.03893138328567
 10
28.907030578237027
 20
94.95227720029652
 10
28.580847654026
 20
80.03878835588694
 10
34.503665482625365
 20
76.44431635504588
 10
46.573836889117956
 20
83.06542937783524
  0
LWPOLYLINE
  5
4C
330
17
100
AcDbEntity
  8
0
 62
0
100
AcDbPolyline
 90
6
 70
0
 10
54.63900364516303
 20
83.9537171642296
 10
68.71808579005301
 20
86.51263864338398
 10
71.05340735567734
 20
93.03538907459006
 10
66.50782589334995
 20
98.39511672547087
 10
51.898448983207345
 20
93.57562297582626
 10
54.63900364516303
 20
83.9537171642296
  0
LWPOLYLINE
  5
4D
330
17
100
AcDbEntity
  8
0
 62
0
100
AcDbPolyline
 90
16
 70
0
 10
54.972016737725575
 20
112.35942542776432
 10
53.86849402170897
 20
113.17785365292164
 10
52.85050506338834
 20
114.1005050633883
 10
52.774228495619376
 20
114.18466328705387
 10
52.769303353037685
 20
114.18264476163313
 10
51.08257762528956
 20
101.73054585512727
 10
64.45794366300106
 20
106.14295121748
 10
65.46999559089762
 20
110.26733448837437
 10
64.12223996461385
 20
110.0674138265892
 10
62.75
 20
109.99999999999996
 10
61.37776003538615
 20
110.0674138265892
 10
60.01873549177421
 20
110.26900607435473
 10
58.68601451843753
 20
110.60283529974903
 10
57.39243194688874
 20
111.06568654484194
 10
56.150445684436036
 20
111.65310229912299
 10
54.972016737725575
 20
112.35942542776432
  0
LWPOLYLINE
  5
4E
330
17
100
AcDbEntity
  8
0
 62
0
100
AcDbPolyline
 90
6
 70
0
 10
44.84170308476314
 20
115.25649483548477
 10
39.36099360557273
 20
119.49463400291279
 10
32.95030268142
 20
116.86726994626224
 10
31.037167095579207
 20
102.74372090073302
 10
42.93870675005019
 20
101.20779788913205
 10
44.84170308476314
 20
115.25649483548477
  0
LWPOLYLINE
  5
4F
330
17
100
AcDbEntity
  8
0
 62
0
100
AcDbPolyline
 90
6
 70
0
 10
74.49032454797998
 20
43.30094854533672
 10
78.20635811518878
 20
53.680144247133285
 10
73.72515132138506
 20
58.96396726416424
 10
65.08982633659616
 20
57.39446732401848
 10
67.85411095945165
 20
45.712915405165404
 10
74.49032454797998
 20
43.30094854533672
  0
LWPOLYLINE
  5
50
330
17
100
AcDbEntity
  8
0
 62
0
100
AcDbPolyline
 90
6
 70
0
 10
97.94064811477438
 20
61.33245097193867
 10
88.97823452856392
 20
71.90009700600058
 10
82.16170617006719
 20
70.66116959229112
 10
79.82638460490853
 20
64.13841916108504
 10
84.30759139824659
 20
58.854596144054085
 10
97.94064811477438
 20
61.33245097193867
  0
LWPOLYLINE
  5
51
330
17
100
AcDbEntity
  8
0
 62
0
100
AcDbPolyline
 90
6
 70
0
 10
102.87399171851575
 20
67.88396995235234
 10
110.78956022206694
 20
77.1033560722135
 10
104.23131773481146
 20
84.83622674783692
 10
97.41478937678039
 20
83.59729933412746
 10
95.07946781115606
 20
77.07454890292138
 10
102.87399171851575
 20
67.88396995235234
  0
LWPOLYLINE
  5
52
330
17
100
AcDbEntity
  8
0
 62
0
100
AcDbPolyline
 90
7
 70
0
 10
76.24990922491997
 20
83.81604157481343
 10
80.73111601825804
 20
78.53221855778247
 10
87.5476443762891
 20
79.77114597149193
 10
89.88296594191343
 20
86.29389640269801
 10
85.40175914857537
 20
91.57771941972896
 10
78.5852307905443
 20
90.3387920060195
 10
76.24990922491997
 20
83.81604157481343
  0
LWPOLYLINE
  5
53
330
17
100
AcDbEntity
  8
0
 62
0
100
AcDbPolyline
 90
7
 70
0
 10
95.98419922450557
 20
91.46834829961881
 10
102.8007275830023
 20
92.70727571332827
 10
105.13604914816096
 20
99.23002614453435
 10
100.65484235528857
 20
104.5138491615653
 10
93.83831399679184
 20
103.27492174785584
 10
91.50299243163317
 20
96.75217131664976
 10
95.98419922450557
 20
91.46834829961881
  0
LWPOLYLINE
  5
54
330
17
100
AcDbEntity
  8
0
 62
0
100
AcDbPolyline
 90
7
 70
0
 10
72.18616690859199
 20
104.06820392189547
 10
77.15464063826948
 20
98.20984097151086
 10
83.97116899676621
 20
99.44876838522032
 10
86.30649056239054
 20
105.97151881689206
 10
80.22600449854508
 20
113.14106347318739
 10
73.7300114245154
 20
110.35978473955765
 10
72.18616690859199
 20
104.06820392189547
  0
LWPOLYLINE
  5
55
330
17
100
AcDbEntity
  8
0
 62
0
100
AcDbPolyline
 90
14
 70
0
 10
109.09139720350504
 20
116.21105148969218
 10
106.75607563788071
 20
109.6883010584861
 10
111.23728243168443
 20
104.40447804145515
 10
120.99101839447394
 20
106.17725301394239
 10
120.9828396505972
 20
110.76498386021825
 10
120.14243194688875
 20
111.06568654484194
 10
118.90044568443604
 20
111.65310229912299
 10
117.72201673772557
 20
112.35942542776432
 10
116.61849402170897
 20
113.17785365292164
 10
115.60050506338834
 20
114.1005050633883
 10
114.67785365292168
 20
115.11849402170893
 10
113.85942542776436
 20
116.22201673772553
 10
113.39695534707886
 20
116.99360145294737
 10
109.09139720350504
 20
116.21105148969218
  0
LWPOLYLINE
  5
56
330
17
100
AcDbEntity
  8
0
 62
0
100
AcDbPolyline
 90
7
 70
0
 10
92.40772384498268
 20
111.1459707133472
 10
99.22425220301375
 20
112.38489812705666
 10
101.55957376863807
 20
118.90764855826274
 10
97.07836697530001
 20
124.19147157529369
 10
87.04802733613178
 20
122.36842293571681
 10
85.87371006887406
 20
118.8502731421031
 10
92.40772384498268
 20
111.1459707133472
  0
LWPOLYLINE
  5
57
330
17
100
AcDbEntity
  8
0
 62
0
100
AcDbPolyline
 90
13
 70
0
 10
76.19236697437519
 20
120.11647211227685
 10
78.14093498047441
 20
120.95075729303062
 10
79.64923475543037
 20
125.46948889177293
 10
77.37893175985664
 20
129.52415638091043
 10
75.50336899585575
 20
129.74014296888853
 10
75.68431345515802
 20
129.3575680531112
 10
76.14716470025093
 20
128.06398548156244
 10
76.48099392564522
 20
126.73126450822576
 10
76.68258617341075
 20
125.37223996461381
 10
76.75
 20
123.99999999999996
 10
76.68258617341075
 20
122.6277600353861
 10
76.48099392564522
 20
121.26873549177417
 10
76.19236697437519
 20
120.11647211227685
  0
LWPOLYLINE
  5
58
330
17
100
AcDbEntity
  8
0
 62
0
100
AcDbPolyline
 90
7
 70
0
 10
154.1648318306543
 20
42.32000825088471
 10
161.01268170727417
 20
43.3721261494793
 10
163.52544581750408
 20
49.82859705295414
 10
159.19036005157977
 20
55.23295005783439
 10
152.3425101749599
 20
54.1808321592398
 10
149.82974606473
 20
47.72436125576496
 10
154.1648318306543
 20
42.32000825088471
  0
LWPOLYLINE
  5
59
330
17
100
AcDbEntity
  8
0
 62
0
100
AcDbPolyline
 90
7
 70
0
 10
131.19151999428868
 20
54.97808643290773
 10
135.526605760213
 20
49.57373342802748
 10
142.37445563683286
 20
50.62585132662207
 10
144.8872197465971
 20
57.082322229631245
 10
140.5521339806728
 20
62.486675234977156
 10
133.7042841045186
 20
61.43455733684823
 10
131.19151999428868
 20
54.97808643290773
  0
LWPOLYLINE
  5
5A
330
17
100
AcDbEntity
  8
0
 62
0
100
AcDbPolyline
 90
8
 70
0
 10
106.76182982744649
 20
60.131316386163235
 10
106.69665613630787
 20
59.11146475048736
 10
108.819926682394
 20
55.58780470304191
 10
123.73622956639156
 20
57.87957650376484
 10
126.24899367662147
 20
64.33604740770534
 10
119.04584319982678
 20
73.31588541390374
 10
118.01021557906643
 20
73.23248674767092
 10
106.76182982744649
 20
60.131316386163235
  0
LWPOLYLINE
  5
5B
330
17
100
AcDbEntity
  8
0
 62
0
100
AcDbPolyline
 90
7
 70
0
 10
151.12762907147408
 20
62.08804809814319
 10
157.9754789476283
 20
63.14016599627212
 10
160.4882430578582
 20
69.59663690021262
 10
156.1531572919339
 20
75.00098990509287
 10
149.30530741531402
 20
73.94887200649828
 10
146.79254330554977
 20
67.4924011034891
 10
151.12762907147408
 20
62.08804809814319
  0
LWPOLYLINE
  5
5C
330
17
100
AcDbEntity
  8
0
 62
0
100
AcDbPolyline
 90
6
 70
0
 10
132.4894030005671
 20
69.34177327528596
 10
139.33725287718698
 20
70.39389117388055
 10
141.8500169874169
 20
76.85036207735538
 10
134.0286832647398
 20
86.60086084203795
 10
126.04479359602556
 20
77.37597284605727
 10
132.4894030005671
 20
69.34177327528596
  0
LWPOLYLINE
  5
5D
330
17
100
AcDbEntity
  8
0
 62
0
100
AcDbPolyline
 90
7
 70
0
 10
110.3325510174036
 20
90.01067864429206
 10
117.77165831113234
 20
81.23917396785691
 10
118.8858309914358
 20
81.32889783522114
 10
129.15430483268574
 20
93.1934807645157
 10
123.68087007803842
 20
98.53507915185764
 10
112.66787258302793
 20
96.5334290759638
 10
110.3325510174036
 20
90.01067864429206
  0
LWPOLYLINE
  5
5E
330
17
100
AcDbEntity
  8
0
 62
0
100
AcDbPolyline
 90
6
 70
0
 10
154.9382761879824
 20
82.9082058435306
 10
157.45104029774666
 20
89.36467674653977
 10
149.8167191981338
 20
98.88203543424606
 10
139.58249574154615
 20
92.46253557410091
 10
148.09042631136253
 20
81.85608794540167
 10
154.9382761879824
 20
82.9082058435306
  0
LWPOLYLINE
  5
5F
330
17
100
AcDbEntity
  8
0
 62
0
100
AcDbPolyline
 90
17
 70
0
 10
133.27798326227443
 20
112.35942542776432
 10
132.09955431556398
 20
111.65310229912299
 10
130.85756805311127
 20
111.06568654484194
 10
129.56398548156247
 20
110.60283529974903
 10
128.98340069496012
 20
110.4574063814197
 10
128.9939708779566
 20
104.52823744900525
 10
134.77243682928383
 20
98.88895502546802
 10
145.76193416118622
 20
105.7822065637447
 10
139.0105392257683
 20
119.0546626355499
 10
138.43466933059122
 20
118.64342655209484
 10
138.43431345515802
 20
118.6424319468887
 10
137.84689770087698
 20
117.400445684436
 10
137.14057457223564
 20
116.22201673772553
 10
136.32214634707833
 20
115.11849402170893
 10
135.39949493661166
 20
114.1005050633883
 10
134.38150597829105
 20
113.17785365292164
 10
133.27798326227443
 20
112.35942542776432
  0
LWPOLYLINE
  5
60
330
17
100
AcDbEntity
  8
0
 62
0
100
AcDbPolyline
 90
8
 70
0
 10
145.08723295712844
 20
127.70497087622061
 10
144.663185889367
 20
125.58706605993211
 10
152.4406730234623
 20
110.29743224056438
 10
164.1122184167616
 20
117.58000108180568
 10
164.58116002148017
 20
119.51239878311753
 10
157.93224354088306
 20
128.68087767530233
 10
148.89381149969995
 20
130.61397434491664
 10
145.08723295712844
 20
127.70497087622061
  0
LWPOLYLINE
  5
61
330
17
100
AcDbEntity
  8
0
 62
0
100
AcDbPolyline
 90
6
 70
0
 10
188.4040812123567
 20
47.58059774339199
 10
196.79682422848418
 20
48.870076237246394
 10
195.7860591528006
 20
58.600465666502714
 10
187.5526699628681
 20
61.936146390624344
 10
184.06899544643238
 20
52.98495074827224
 10
188.4040812123567
 20
47.58059774339199
  0
LWPOLYLINE
  5
62
330
17
100
AcDbEntity
  8
0
 62
0
100
AcDbPolyline
 90
7
 70
0
 10
165.43076937552541
 20
60.23867592541501
 10
169.76585514144972
 20
54.83432292053476
 10
176.6137050180696
 20
55.88644081912935
 10
180.97077477909625
 20
67.0817989599891
 10
180.31249159900472
 20
68.59553928114474
 10
167.94353348575532
 20
66.69514682935551
 10
165.43076937552541
 20
60.23867592541501
  0
LWPOLYLINE
  5
63
330
17
100
AcDbEntity
  8
0
 62
0
100
AcDbPolyline
 90
8
 70
0
 10
188.3123951293528
 20
70.2599725285545
 10
199.0743076018989
 20
65.89988421509042
 10
204.65884354477748
 20
69.56624104967341
 10
204.04220892535523
 20
80.30734191881493
 10
198.62455848930404
 20
82.89649733668193
 10
187.70221325661987
 20
75.77205058326945
 10
186.99233549786732
 20
73.29548604227602
 10
188.3123951293528
 20
70.2599725285545
  0
LWPOLYLINE
  5
64
330
17
100
AcDbEntity
  8
0
 62
0
100
AcDbPolyline
 90
7
 70
0
 10
162.39356661587954
 20
80.00671577267349
 10
166.72865238180384
 20
74.60236276779324
 10
179.61216280655935
 20
76.58181210700423
 10
179.85233512008563
 20
77.41970599535853
 10
171.75418060272932
 20
87.51530457474291
 10
164.90633072610945
 20
86.46318667614833
 10
162.39356661587954
 20
80.00671577267349
  0
LWPOLYLINE
  5
65
330
17
100
AcDbEntity
  8
0
 62
0
100
AcDbPolyline
 90
7
 70
0
 10
177.99458992667496
 20
92.52103044232354
 10
185.11944124335423
 20
83.63880441524088
 10
194.04762765206397
 20
89.46249770792201
 10
192.66430599009618
 20
100.73415163485333
 10
192.57029484491795
 20
100.8308766623959
 10
180.50735403690487
 20
98.97750134626403
 10
177.99458992667496
 20
92.52103044232354
  0
LWPOLYLINE
  5
66
330
17
100
AcDbEntity
  8
0
 62
0
100
AcDbPolyline
 90
6
 70
0
 10
170.53929949877784
 20
95.42252051318064
 10
173.05206360854208
 20
101.87899141665548
 10
166.71749055339023
 20
109.7760137077421
 10
156.4652188187465
 20
103.37901380984113
 10
163.69144962262362
 20
94.37040261505172
 10
170.53929949877784
 20
95.42252051318064
  0
LWPOLYLINE
  5
67
330
17
100
AcDbEntity
  8
0
 62
0
100
AcDbPolyline
 90
20
 70
0
 10
180.47201673772557
 20
112.35942542776432
 10
179.36849402170895
 20
113.17785365292164
 10
178.35050506338834
 20
114.1005050633883
 10
177.42785365292167
 20
115.11849402170893
 10
176.60942542776436
 20
116.22201673772553
 10
175.90310229912302
 20
117.400445684436
 10
175.35512116673374
 20
118.55905444416152
 10
172.2967260046862
 20
117.3835047474131
 10
171.9655593475327
 20
116.01884509529918
 10
179.29247293341905
 20
106.88471728516743
 10
189.91684258030728
 20
108.51706753578037
 10
189.8781739286417
 20
110.10537804388788
 10
189.62223996461384
 20
110.0674138265892
 10
188.25
 20
109.99999999999996
 10
186.87776003538616
 20
110.0674138265892
 10
185.5187354917742
 20
110.26900607435473
 10
184.18601451843753
 20
110.60283529974903
 10
182.89243194688873
 20
111.06568654484194
 10
181.65044568443602
 20
111.65310229912299
 10
180.47201673772557
 20
112.35942542776432
  0
LWPOLYLINE
  5
68
330
17
100
AcDbEntity
  8
0
 62
0
100
AcDbPolyline
 90
15
 70
0
 10
200.59689770087698
 20
117.400445684436
 10
199.89057457223564
 20
116.22201673772553
 10
199.07214634707833
 20
115.11849402170893
 10
198.14949493661166
 20
114.1005050633883
 10
197.79118631718856
 20
113.775753060539
 10
197.95549351722002
 20
107.02685334021226
 10
212.8068548948504
 20
110.59010745817795
 10
209.9861891954206
 20
121.80928858090192
 10
202.22713672368772
 20
124.46539268077547
 10
202.25
 20
123.99999999999996
 10
202.18258617341075
 20
122.6277600353861
 10
201.98099392564524
 20
121.26873549177417
 10
201.64716470025093
 20
119.93601451843749
 10
201.18431345515802
 20
118.6424319468887
 10
200.59689770087698
 20
117.400445684436
  0
LWPOLYLINE
  5
69
330
17
100
AcDbEntity
  8
0
 62
0
100
AcDbPolyline
 90
7
 70
0
 10
212.23450710158795
 20
31.561678557191044
 10
216.5054127909243
 20
29.493681218475103
 10
226.6113999998197
 20
36.128459049388766
 10
226.21431339764968
 20
43.045273506548256
 10
220.025633063633
 20
46.15979364933446
 10
210.64816996455193
 20
40.00330611411482
 10
212.23450710158795
 20
31.561678557191044
  0
LWPOLYLINE
  5
6A
330
17
100
AcDbEntity
  8
0
 62
0
100
AcDbPolyline
 90
7
 70
0
 10
204.96121644834056
 20
47.701906042639166
 10
206.31978968856856
 20
46.7316527380608
 10
215.63512177253142
 20
52.84735004929826
 10
215.23803516989574
 20
59.76416450692341
 10
209.04935483587906
 20
62.87868464970961
 10
203.74634720338508
 20
59.39715664554387
 10
204.96121644834056
 20
47.701906042639166
  0
LWPOLYLINE
  5
6B
330
17
100
AcDbEntity
  8
0
 62
0
100
AcDbPolyline
 90
7
 70
0
 10
223.6219711494632
 20
53.30586616275832
 10
229.8106514834799
 20
50.191346019972116
 10
235.60224521532655
 20
53.99364033341408
 10
235.20515861315653
 20
60.91045479103923
 10
229.01647827867419
 20
64.02497493382543
 10
223.22488454682752
 20
60.22268062038347
 10
223.6219711494632
 20
53.30586616275832
  0
LWPOLYLINE
  5
6C
330
17
100
AcDbEntity
  8
0
 62
0
100
AcDbPolyline
 90
7
 70
0
 10
218.83437325572595
 20
66.91023702034727
 10
224.6259669875726
 20
70.71253133378923
 10
224.2288803854026
 20
77.62934579094872
 10
216.13961418438703
 20
81.70035627530888
 10
212.06268728757277
 20
80.18007787689567
 10
212.64569292170927
 20
70.02475716313347
 10
218.83437325572595
 20
66.91023702034727
  0
LWPOLYLINE
  5
6D
330
17
100
AcDbEntity
  8
0
 62
0
100
AcDbPolyline
 90
6
 70
0
 10
227.8252184712328
 20
84.77541830437258
 10
233.61681220307946
 20
88.57771261781454
 10
232.85904308827594
 20
101.77722208155319
 10
224.80006905458868
 20
101.10833412501961
 10
221.12718576798216
 20
88.14627552218735
 10
227.8252184712328
 20
84.77541830437258
  0
LWPOLYLINE
  5
6E
330
17
100
AcDbEntity
  8
0
 62
0
100
AcDbPolyline
 90
7
 70
0
 10
202.02472621714696
 20
90.13817254221067
 10
208.0932044372894
 20
87.23797928541899
 10
213.08198020327836
 20
89.09828441776335
 10
217.0769656007178
 20
103.19708114117384
 10
216.8717929571867
 20
103.33835934661329
 10
200.87573287263513
 20
99.50046021305025
 10
202.02472621714696
 20
90.13817254221067
  0
LWPOLYLINE
  5
6F
330
17
100
AcDbEntity
  8
0
 62
0
100
AcDbPolyline
 90
8
 70
0
 10
217.95470891473815
 20
122.92475104006007
 10
221.18341112323105
 20
110.08260711655021
 10
222.79950069310144
 20
108.96979680005461
 10
234.9985211500898
 20
109.982305070851
 10
235.52983329026029
 20
110.43696302594617
 10
237.70466453954577
 20
118.81857832148671
 10
224.007944857236
 20
126.38849130272865
 10
217.95470891473815
 20
122.92475104006007
  0
LWPOLYLINE
  5
70
330
17
100
AcDbEntity
  8
0
 62
0
100
AcDbPolyline
 90
65
 70
0
 10
64.08035137968407
 20
124.88891237283133
 10
63.98681672538038
 20
125.0150292546618
 10
63.881370849898474
 20
125.13137084989843
 10
63.76502925466183
 20
125.23681672538034
 10
63.63891237283136
 20
125.33035137968403
 10
63.5042347789216
 20
125.41107402295732
 10
63.36229349178414
 20
125.47820725201801
 10
63.21445548360714
 20
125.53110453717149
 10
63.0621445152258
 20
125.56925644864512
 10
62.90682742452729
 20
125.59229556267547
 10
62.75
 20
125.59999999999995
 10
62.5931725754727
 20
125.59229556267547
 10
62.4378554847742
 20
125.56925644864512
 10
62.28554451639286
 20
125.53110453717149
 10
62.13770650821586
 20
125.47820725201801
 10
61.9957652210784
 20
125.41107402295732
 10
61.86108762716864
 20
125.33035137968403
 10
61.73497074533817
 20
125.23681672538034
 10
61.618629150101526
 20
125.13137084989843
 10
61.51318327461962
 20
125.01502925466178
 10
61.419648620315925
 20
124.88891237283131
 10
61.338925977042635
 20
124.75423477892156
 10
61.27179274798194
 20
124.6122934917841
 10
61.21889546282846
 20
124.4644554836071
 10
61.18074355135483
 20
124.31214451522577
 10
61.15770443732448
 20
124.15682742452725
 10
61.15
 20
123.99999999999996
 10
61.15770443732448
 20
123.84317257547266
 10
61.18074355135483
 20
123.68785548477415
 10
61.21889546282846
 20
123.53554451639282
 10
61.27179274798194
 20
123.38770650821581
 10
61.338925977042635
 20
123.24576522107836
 10
61.419648620315925
 20
123.11108762716859
 10
61.51318327461962
 20
122.98497074533813
 10
61.618629150101526
 20
122.86862915010148
 10
61.73497074533817
 20
122.76318327461958
 10
61.86108762716864
 20
122.66964862031588
 10
61.9957652210784
 20
122.58892597704259
 10
62.13770650821586
 20
122.5217927479819
 10
62.28554451639286
 20
122.46889546282843
 10
62.4378554847742
 20
122.4307435513548
 10
62.5931725754727
 20
122.40770443732444
 10
62.75
 20
122.39999999999996
 10
62.9068274245273
 20
122.40770443732444
 10
63.0621445152258
 20
122.4307435513548
 10
63.21445548360714
 20
122.46889546282843
 10
63.36229349178414
 20
122.5217927479819
 10
63.5042347789216
 20
122.58892597704259
 10
63.63891237283136
 20
122.66964862031588
 10
63.76502925466183
 20
122.76318327461958
 10
63.881370849898474
 20
122.86862915010148
 10
63.98681672538038
 20
122.98497074533813
 10
64.08035137968407
 20
123.11108762716859
 10
64.16107402295737
 20
123.24576522107836
 10
64.22820725201805
 20
123.38770650821581
 10
64.28110453717153
 20
123.53554451639282
 10
64.31925644864516
 20
123.68785548477415
 10
64.34229556267552
 20
123.84317257547266
 10
64.35
 20
123.99999999999996
 10
64.34229556267552
 20
124.15682742452725
 10
64.31925644864516
 20
124.31214451522577
 10
64.28110453717153
 20
124.4644554836071
 10
64.22820725201805
 20
124.6122934917841
 10
64.16107402295737
 20
124.75423477892156
 10
64.08035137968407
 20
124.88891237283133
  0
LWPOLYLINE
  5
71
330
17
100
AcDbEntity
  8
0
 62
0
100
AcDbPolyline
 90
65
 70
0
 10
126.91107402295737
 20
124.75423477892156
 10
126.83035137968407
 20
124.88891237283133
 10
126.73681672538038
 20
125.0150292546618
 10
126.63137084989847
 20
125.13137084989843
 10
126.51502925466183
 20
125.23681672538034
 10
126.38891237283136
 20
125.33035137968403
 10
126.2542347789216
 20
125.41107402295732
 10
126.11229349178414
 20
125.47820725201801
 10
125.96445548360714
 20
125.53110453717149
 10
125.81214451522581
 20
125.56925644864512
 10
125.6568274245273
 20
125.59229556267547
 10
125.5
 20
125.59999999999995
 10
125.3431725754727
 20
125.59229556267547
 10
125.18785548477419
 20
125.56925644864512
 10
125.03554451639286
 20
125.53110453717149
 10
124.88770650821586
 20
125.47820725201801
 10
124.7457652210784
 20
125.41107402295732
 10
124.61108762716864
 20
125.33035137968403
 10
124.48497074533816
 20
125.23681672538034
 10
124.36862915010153
 20
125.13137084989843
 10
124.26318327461962
 20
125.01502925466178
 10
124.16964862031593
 20
124.88891237283131
 10
124.08892597704263
 20
124.75423477892156
 10
124.02179274798195
 20
124.6122934917841
 10
123.96889546282847
 20
124.4644554836071
 10
123.93074355135484
 20
124.31214451522577
 10
123.90770443732448
 20
124.15682742452725
 10
123.9
 20
123.99999999999996
 10
123.90770443732448
 20
123.84317257547266
 10
123.93074355135484
 20
123.68785548477415
 10
123.96889546282847
 20
123.53554451639282
 10
124.02179274798195
 20
123.38770650821581
 10
124.08892597704263
 20
123.24576522107836
 10
124.16964862031593
 20
123.11108762716859
 10
124.26318327461962
 20
122.98497074533813
 10
124.36862915010153
 20
122.86862915010148
 10
124.48497074533817
 20
122.76318327461958
 10
124.61108762716864
 20
122.66964862031588
 10
124.7457652210784
 20
122.58892597704259
 10
124.88770650821586
 20
122.5217927479819
 10
125.03554451639286
 20
122.46889546282843
 10
125.18785548477419
 20
122.4307435513548
 10
125.3431725754727
 20
122.40770443732444
 10
125.5
 20
122.39999999999996
 10
125.6568274245273
 20
122.40770443732444
 10
125.81214451522581
 20
122.4307435513548
 10
125.96445548360714
 20
122.46889546282843
 10
126.11229349178414
 20
122.5217927479819
 10
126.2542347789216
 20
122.58892597704259
 10
126.38891237283137
 20
122.66964862031588
 10
126.51502925466183
 20
122.76318327461958
 10
126.63137084989847
 20
122.86862915010148
 10
126.73681672538038
 20
122.98497074533813
 10
126.83035137968407
 20
123.11108762716859
 10
126.91107402295737
 20
123.24576522107836
 10
126.97820725201805
 20
123.38770650821581
 10
127.03110453717153
 20
123.53554451639282
 10
127.06925644864516
 20
123.68785548477415
 10
127.09229556267552
 20
123.84317257547266
 10
127.1
 20
123.99999999999996
 10
127.09229556267552
 20
124.15682742452725
 10
127.06925644864516
 20
124.31214451522577
 10
127.03110453717153
 20
124.4644554836071
 10
126.97820725201805
 20
124.6122934917841
 10
126.91107402295737
 20
124.75423477892156
  0
LWPOLYLINE
  5
72
330
17
100
AcDbEntity
  8
0
 62
0
100
AcDbPolyline
 90
65
 70
0
 10
189.72820725201805
 20
124.6122934917841
 10
189.66107402295737
 20
124.75423477892156
 10
189.58035137968406
 20
124.88891237283133
 10
189.48681672538038
 20
125.0150292546618
 10
189.38137084989847
 20
125.13137084989843
 10
189.26502925466184
 20
125.23681672538034
 10
189.13891237283136
 20
125.33035137968403
 10
189.00423477892159
 20
125.41107402295732
 10
188.86229349178416
 20
125.47820725201801
 10
188.71445548360714
 20
125.53110453717149
 10
188.5621445152258
 20
125.56925644864512
 10
188.4068274245273
 20
125.59229556267547
 10
188.25
 20
125.59999999999995
 10
188.0931725754727
 20
125.59229556267547
 10
187.9378554847742
 20
125.56925644864512
 10
187.78554451639286
 20
125.53110453717149
 10
187.63770650821584
 20
125.47820725201801
 10
187.49576522107841
 20
125.41107402295732
 10
187.36108762716864
 20
125.33035137968403
 10
187.23497074533816
 20
125.23681672538034
 10
187.11862915010153
 20
125.13137084989843
 10
187.01318327461962
 20
125.01502925466178
 10
186.91964862031594
 20
124.88891237283131
 10
186.83892597704263
 20
124.75423477892156
 10
186.77179274798195
 20
124.6122934917841
 10
186.71889546282847
 20
124.4644554836071
 10
186.68074355135482
 20
124.31214451522577
 10
186.6577044373245
 20
124.15682742452725
 10
186.65
 20
123.99999999999996
 10
186.6577044373245
 20
123.84317257547266
 10
186.68074355135482
 20
123.68785548477415
 10
186.71889546282847
 20
123.53554451639282
 10
186.77179274798195
 20
123.38770650821581
 10
186.83892597704263
 20
123.24576522107836
 10
186.91964862031594
 20
123.11108762716859
 10
187.01318327461962
 20
122.98497074533813
 10
187.11862915010153
 20
122.86862915010148
 10
187.23497074533816
 20
122.76318327461958
 10
187.36108762716864
 20
122.66964862031588
 10
187.49576522107841
 20
122.58892597704259
 10
187.63770650821584
 20
122.5217927479819
 10
187.78554451639286
 20
122.46889546282843
 10
187.9378554847742
 20
122.4307435513548
 10
188.0931725754727
 20
122.40770443732444
 10
188.25
 20
122.39999999999996
 10
188.4068274245273
 20
122.40770443732444
 10
188.5621445152258
 20
122.4307435513548
 10
188.71445548360714
 20
122.46889546282843
 10
188.86229349178416
 20
122.5217927479819
 10
189.00423477892159
 20
122.58892597704259
 10
189.13891237283136
 20
122.66964862031588
 10
189.26502925466184
 20
122.76318327461958
 10
189.38137084989847
 20
122.86862915010148
 10
189.48681672538038
 20
122.98497074533813
 10
189.58035137968406
 20
123.11108762716859
 10
189.66107402295737
 20
123.24576522107836
 10
189.72820725201805
 20
123.38770650821581
 10
189.78110453717153
 20
123.53554451639282
 10
189.81925644864518
 20
123.68785548477415
 10
189.8422955626755
 20
123.84317257547266
 10
189.85
 20
123.99999999999996
 10
189.8422955626755
 20
124.15682742452725
 10
189.81925644864518
 20
124.31214451522577
 10
189.78110453717153
 20
124.4644554836071
 10
189.72820725201805
 20
124.6122934917841
  0
LWPOLYLINE
  5
73
330
17
100
AcDbEntity
  8
0
 62
0
100
AcDbPolyline
 90
65
 70
0
 10
64.28110453717153
 20
19.514455483607136
 10
64.22820725201805
 20
19.66229349178414
 10
64.16107402295737
 20
19.804234778921593
 10
64.08035137968407
 20
19.93891237283136
 10
63.98681672538038
 20
20.06502925466183
 10
63.881370849898474
 20
20.181370849898475
 10
63.76502925466183
 20
20.286816725380376
 10
63.63891237283136
 20
20.380351379684072
 10
63.5042347789216
 20
20.461074022957366
 10
63.36229349178414
 20
20.528207252018056
 10
63.21445548360714
 20
20.58110453717153
 10
63.0621445152258
 20
20.619256448645167
 10
62.90682742452729
 20
20.642295562675514
 10
62.75
 20
20.65
 10
62.5931725754727
 20
20.642295562675514
 10
62.4378554847742
 20
20.619256448645167
 10
62.28554451639286
 20
20.58110453717153
 10
62.13770650821586
 20
20.528207252018056
 10
61.9957652210784
 20
20.461074022957366
 10
61.86108762716864
 20
20.38035137968407
 10
61.73497074533817
 20
20.286816725380376
 10
61.618629150101526
 20
20.181370849898475
 10
61.51318327461962
 20
20.06502925466183
 10
61.419648620315925
 20
19.93891237283136
 10
61.338925977042635
 20
19.804234778921593
 10
61.27179274798194
 20
19.66229349178414
 10
61.21889546282846
 20
19.514455483607136
 10
61.18074355135483
 20
19.362144515225804
 10
61.15770443732448
 20
19.206827424527294
 10
61.15
 20
19.049999999999997
 10
61.15770443732448
 20
18.8931725754727
 10
61.18074355135483
 20
18.73785548477419
 10
61.21889546282846
 20
18.585544516392858
 10
61.27179274798194
 20
18.437706508215854
 10
61.338925977042635
 20
18.2957652210784
 10
61.419648620315925
 20
18.161087627168634
 10
61.51318327461962
 20
18.034970745338164
 10
61.618629150101526
 20
17.91862915010152
 10
61.73497074533817
 20
17.813183274619618
 10
61.86108762716864
 20
17.719648620315926
 10
61.9957652210784
 20
17.63892597704263
 10
62.13770650821586
 20
17.571792747981938
 10
62.28554451639286
 20
17.518895462828464
 10
62.4378554847742
 20
17.480743551354827
 10
62.5931725754727
 20
17.45770443732448
 10
62.75
 20
17.449999999999996
 10
62.9068274245273
 20
17.45770443732448
 10
63.0621445152258
 20
17.480743551354827
 10
63.21445548360714
 20
17.518895462828464
 10
63.36229349178414
 20
17.571792747981938
 10
63.5042347789216
 20
17.63892597704263
 10
63.63891237283136
 20
17.719648620315926
 10
63.76502925466183
 20
17.813183274619618
 10
63.881370849898474
 20
17.91862915010152
 10
63.98681672538038
 20
18.034970745338164
 10
64.08035137968407
 20
18.161087627168634
 10
64.16107402295737
 20
18.2957652210784
 10
64.22820725201805
 20
18.437706508215854
 10
64.28110453717153
 20
18.585544516392858
 10
64.31925644864516
 20
18.73785548477419
 10
64.34229556267552
 20
18.8931725754727
 10
64.35
 20
19.049999999999997
 10
64.34229556267552
 20
19.206827424527294
 10
64.31925644864516
 20
19.362144515225804
 10
64.28110453717153
 20
19.514455483607136
  0
LWPOLYLINE
  5
74
330
17
100
AcDbEntity
  8
0
 62
0
100
AcDbPolyline
 90
65
 70
0
 10
147.98592311531186
 20
19.362144515225804
 10
147.94777120383822
 20
19.514455483607136
 10
147.89487391868474
 20
19.66229349178414
 10
147.82774068962405
 20
19.804234778921593
 10
147.74701804635075
 20
19.93891237283136
 10
147.65348339204706
 20
20.06502925466183
 10
147.54803751656516
 20
20.181370849898475
 10
147.43169592132853
 20
20.286816725380376
 10
147.30557903949804
 20
20.380351379684072
 10
147.17090144558827
 20
20.461074022957366
 10
147.02896015845084
 20
20.528207252018056
 10
146.88112215027382
 20
20.58110453717153
 10
146.7288111818925
 20
20.619256448645167
 10
146.573494091194
 20
20.642295562675514
 10
146.41666666666669
 20
20.65
 10
146.25983924213938
 20
20.642295562675514
 10
146.10452215144088
 20
20.619256448645167
 10
145.95221118305955
 20
20.58110453717153
 10
145.80437317488253
 20
20.528207252018056
 10
145.6624318877451
 20
20.461074022957366
 10
145.52775429383533
 20
20.38035137968407
 10
145.40163741200485
 20
20.286816725380376
 10
145.2852958167682
 20
20.181370849898475
 10
145.1798499412863
 20
20.06502925466183
 10
145.08631528698263
 20
19.93891237283136
 10
145.00559264370932
 20
19.804234778921593
 10
144.93845941464863
 20
19.66229349178414
 10
144.88556212949516
 20
19.514455483607136
 10
144.8474102180215
 20
19.362144515225804
 10
144.82437110399118
 20
19.206827424527294
 10
144.8166666666667
 20
19.049999999999997
 10
144.82437110399118
 20
18.8931725754727
 10
144.8474102180215
 20
18.73785548477419
 10
144.88556212949516
 20
18.585544516392858
 10
144.93845941464863
 20
18.437706508215854
 10
145.00559264370932
 20
18.2957652210784
 10
145.08631528698263
 20
18.161087627168634
 10
145.1798499412863
 20
18.034970745338164
 10
145.2852958167682
 20
17.91862915010152
 10
145.40163741200485
 20
17.813183274619618
 10
145.52775429383533
 20
17.719648620315926
 10
145.6624318877451
 20
17.63892597704263
 10
145.80437317488253
 20
17.571792747981938
 10
145.95221118305955
 20
17.518895462828464
 10
146.10452215144088
 20
17.480743551354827
 10
146.25983924213938
 20
17.45770443732448
 10
146.41666666666669
 20
17.449999999999996
 10
146.573494091194
 20
17.45770443732448
 10
146.7288111818925
 20
17.480743551354827
 10
146.88112215027382
 20
17.518895462828464
 10
147.02896015845084
 20
17.571792747981938
 10
147.17090144558827
 20
17.63892597704263
 10
147.30557903949804
 20
17.719648620315926
 10
147.43169592132853
 20
17.813183274619618
 10
147.54803751656516
 20
17.91862915010152
 10
147.65348339204706
 20
18.034970745338164
 10
147.74701804635075
 20
18.161087627168634
 10
147.82774068962405
 20
18.2957652210784
 10
147.89487391868474
 20
18.437706508215854
 10
147.94777120383822
 20
18.585544516392858
 10
147.98592311531186
 20
18.73785548477419
 10
148.0089622293422
 20
18.8931725754727
 10
148.01666666666668
 20
19.049999999999997
 10
148.0089622293422
 20
19.206827424527294
 10
147.98592311531186
 20
19.362144515225804
  0
LWPOLYLINE
  5
75
330
17
100
AcDbEntity
  8
0
 62
0
100
AcDbPolyline
 90
65
 70
0
 10
231.67562889600885
 20
19.206827424527294
 10
231.65258978197852
 20
19.362144515225804
 10
231.61443787050487
 20
19.514455483607136
 10
231.5615405853514
 20
19.66229349178414
 10
231.4944073562907
 20
19.804234778921593
 10
231.4136847130174
 20
19.93891237283136
 10
231.32015005871372
 20
20.06502925466183
 10
231.21470418323182
 20
20.181370849898475
 10
231.09836258799518
 20
20.286816725380376
 10
230.9722457061647
 20
20.380351379684072
 10
230.83756811225493
 20
20.461074022957366
 10
230.6956268251175
 20
20.528207252018056
 10
230.54778881694048
 20
20.58110453717153
 10
230.39547784855915
 20
20.619256448645167
 10
230.24016075786065
 20
20.642295562675514
 10
230.08333333333334
 20
20.65
 10
229.92650590880604
 20
20.642295562675514
 10
229.77118881810753
 20
20.619256448645167
 10
229.6188778497262
 20
20.58110453717153
 10
229.47103984154919
 20
20.528207252018056
 10
229.32909855441176
 20
20.461074022957366
 10
229.194420960502
 20
20.38035137968407
 10
229.0683040786715
 20
20.286816725380376
 10
228.95196248343487
 20
20.181370849898475
 10
228.84651660795296
 20
20.06502925466183
 10
228.75298195364928
 20
19.93891237283136
 10
228.67225931037598
 20
19.804234778921593
 10
228.6051260813153
 20
19.66229349178414
 10
228.5522287961618
 20
19.514455483607136
 10
228.51407688468817
 20
19.362144515225804
 10
228.49103777065784
 20
19.206827424527294
 10
228.48333333333335
 20
19.049999999999997
 10
228.49103777065784
 20
18.8931725754727
 10
228.51407688468817
 20
18.73785548477419
 10
228.5522287961618
 20
18.585544516392858
 10
228.6051260813153
 20
18.437706508215854
 10
228.67225931037598
 20
18.2957652210784
 10
228.75298195364928
 20
18.161087627168634
 10
228.84651660795296
 20
18.034970745338164
 10
228.95196248343487
 20
17.91862915010152
 10
229.0683040786715
 20
17.813183274619618
 10
229.194420960502
 20
17.719648620315926
 10
229.32909855441176
 20
17.63892597704263
 10
229.47103984154919
 20
17.571792747981938
 10
229.6188778497262
 20
17.518895462828464
 10
229.77118881810753
 20
17.480743551354827
 10
229.92650590880604
 20
17.45770443732448
 10
230.08333333333334
 20
17.449999999999996
 10
230.24016075786065
 20
17.45770443732448
 10
230.39547784855915
 20
17.480743551354827
 10
230.54778881694048
 20
17.518895462828464
 10
230.6956268251175
 20
17.571792747981938
 10
230.83756811225493
 20
17.63892597704263
 10
230.9722457061647
 20
17.719648620315926
 10
231.09836258799518
 20
17.813183274619618
 10
231.21470418323182
 20
17.91862915010152
 10
231.32015005871372
 20
18.034970745338164
 10
231.4136847130174
 20
18.161087627168634
 10
231.4944073562907
 20
18.2957652210784
 10
231.5615405853514
 20
18.437706508215854
 10
231.61443787050487
 20
18.585544516392858
 10
231.65258978197852
 20
18.73785548477419
 10
231.67562889600885
 20
18.8931725754727
 10
231.68333333333334
 20
19.049999999999997
 10
231.67562889600885
 20
19.206827424527294
  0
ENDSEC
  0
SECTION
  2
OBJECTS
  0
DICTIONARY
  5
A
330
0
100
AcDbDictionary
280
0
281
1
  3
ACAD_COLOR
350
B
  3
ACAD_GROUP
350
C
  3
ACAD_LAYOUT
350
D
  3
ACAD_MATERIAL
350
E
  3
ACAD_MLEADERSTYLE
350
F
  3
ACAD_MLINESTYLE
350
10
  3
ACAD_PLOTSETTINGS
350
11
  3
ACAD_PLOTSTYLENAME
350
12
  3
ACAD_SCALELIST
350
14
  3
ACAD_TABLESTYLE
350
15
  3
ACAD_VISUALSTYLE
350
16
  3
EZDXF_META
350
2D
  0
DICTIONARY
  5
B
330
A
100
AcDbDictionary
280
0
281
1
  0
DICTIONARY
  5
C
330
A
100
AcDbDictionary
280
0
281
1
  0
DICTIONARY
  5
D
330
A
100
AcDbDictionary
280
0
281
1
  3
Model
350
1A
  3
Layout1
350
1E
  0
DICTIONARY
  5
E
330
A
100
AcDbDictionary
280
0
281
1
  3
ByBlock
350
1F
  3
ByLayer
350
20
  3
Global
350
21
  0
DICTIONARY
  5
F
330
A
100
AcDbDictionary
280
0
281
1
  3
Standard
350
2C
  0
DICTIONARY
  5
10
330
A
100
AcDbDictionary
280
0
281
1
  3
Standard
350
22
  0
DICTIONARY
  5
11
330
A
100
AcDbDictionary
280
0
281
1
  0
ACDBDICTIONARYWDFLT
  5
12
330
A
100
AcDbDictionary
280
0
281
1
  3
Normal
350
13
100
AcDbDictionaryWithDefault
340
13
  0
ACDBPLACEHOLDER
  5
13
330
12
  0
DICTIONARY
  5
14
330
A
100
AcDbDictionary
280
0
281
1
  0
DICTIONARY
  5
15
330
A
100
AcDbDictionary
280
0
281
1
  0
DICTIONARY
  5
16
330
A
100
AcDbDictionary
280
0
281
1
  0
LAYOUT
  5
1A
330
D
100
AcDbPlotSettings
  1

  2
Adobe PDF
  4
A3
  6

 40
7.5
 41
20.0
 42
7.5
 43
20.0
 44
420.0
 45
297.0
 46
0.0
 47
0.0
 48
0.0
 49
0.0
140
0.0
141
0.0
142
1.0
143
1.0
 70
1024
 72
1
 73
0
 74
5
  7

 75
16
 76
0
 77
2
 78
300
147
1.0
148
0.0
149
0.0
100
AcDbLayout
  1
Model
 70
1
 71
0
 10
0.0
 20
0.0
 11
420.0
 21
297.0
 12
0.0
 22
0.0
 32
0.0
 14
1e+20
 24
1e+20
 34
1e+20
 15
-1e+20
 25
-1e+20
 35
-1e+20
146
0.0
 13
0.0
 23
0.0
 33
0.0
 16
1.0
 26
0.0
 36
0.0
 17
0.0
 27
1.0
 37
0.0
 76
1
330
17
  0
LAYOUT
  5
1E
330
D
100
AcDbPlotSettings
  1

  2
Adobe PDF
  4
A3
  6

 40
7.5
 41
20.0
 42
7.5
 43
20.0
 44
420.0
 45
297.0
 46
0.0
 47
0.0
 48
0.0
 49
0.0
140
0.0
141
0.0
142
1.0
143
1.0
 70
0
 72
1
 73
0
 74
5
  7

 75
16
 76
0
 77
2
 78
300
147
1.0
148
0.0
149
0.0
100
AcDbLayout
  1
Layout1
 70
1
 71
1
 10
0.0
 20
0.0
 11
420.0
 21
297.0
 12
0.0
 22
0.0
 32
0.0
 14
1e+20
 24
1e+20
 34
1e+20
 15
-1e+20
 25
-1e+20
 35
-1e+20
146
0.0
 13
0.0
 23
0.0
 33
0.0
 16
1.0
 26
0.0
 36
0.0
 17
0.0
 27
1.0
 37
0.0
 76
1
330
1B
  0
MATERIAL
  5
1F
102
{ACAD_REACTORS
330
E
102
}
330
E
100
AcDbMaterial
  1
ByBlock
  2

 70
0
 40
1.0
 71
1
 41
1.0
 91
-1023410177
 42
1.0
 72
1
  3

 73
1
 74
1
 75
1
 44
0.5
 73
0
 45
1.0
 46
1.0
 77
1
  4

 78
1
 79
1
170
1
 48
1.0
171
1
  6

172
1
173
1
174
1
140
1.0
141
1.0
175
1
  7

176
1
177
1
178
1
143
1.0
179
1
  8

270
1
271
1
272
1
145
1.0
146
1.0
273
1
  9

274
1
275
1
276
1
 42
1.0
 72
1
  3

 73
1
 74
1
 75
1
 94
63
  0
MATERIAL
  5
20
102
{ACAD_REACTORS
330
E
102
}
330
E
100
AcDbMaterial
  1
ByLayer
  2

 70
0
 40
1.0
 71
1
 41
1.0
 91
-1023410177
 42
1.0
 72
1
  3

 73
1
 74
1
 75
1
 44
0.5
 73
0
 45
1.0
 46
1.0
 77
1
  4

 78
1
 79
1
170
1
 48
1.0
171
1
  6

172
1
173
1
174
1
140
1.0
141
1.0
175
1
  7

176
1
177
1
178
1
143
1.0
179
1
  8

270
1
271
1
272
1
145
1.0
146
1.0
273
1
  9

274
1
275
1
276
1
 42
1.0
 72
1
  3

 73
1
 74
1
 75
1
 94
63
  0
MATERIAL
  5
21
102
{ACAD_REACTORS
330
E
102
}
330
E
100
AcDbMaterial
  1
Global
  2

 70
0
 40
1.0
 71
1
 41
1.0
 91
-1023410177
 42
1.0
 72
1
  3

 73
1
 74
1
 75
1
 44
0.5
 73
0
 45
1.0
 46
1.0
 77
1
  4

 78
1
 79
1
170
1
 48
1.0
171
1
  6

172
1
173
1
174
1
140
1.0
141
1.0
175
1
  7

176
1
177
1
178
1
143
1.0
179
1
  8

270
1
271
1
272
1
145
1.0
146
1.0
273
1
  9

274
1
275
1
276
1
 42
1.0
 72
1
  3

 73
1
 74
1
 75
1
 94
63
  0
MLINESTYLE
  5
22
102
{ACAD_REACTORS
330
10
102
}
330
10
100
AcDbMlineStyle
  2
Standard
 70
0
  3

 62
256
 51
90.0
 52
90.0
 71
2
 49
0.5
 62
256
  6
BYLAYER
 49
-0.5
 62
256
  6
BYLAYER
  0
MLEADERSTYLE
  5
2C
102
{ACAD_REACTORS
330
F
102
}
330
F
100
AcDbMLeaderStyle
179
2
170
2
171
1
172
0
 90
2
 40
0.0
 41
0.0
173
1
 91
-1056964608
 92
-2
290
1
 42
2.0
291
1
 43
8.0
  3
Standard
 44
4.0
300

342
29
174
1
175
1
176
0
178
1
 93
-1056964608
 45
4.0
292
0
297
0
 46
4.0
 94
-1056964608
 47
1.0
 49
1.0
140
1.0
294
1
141
0.0
177
0
142
1.0
295
0
296
0
143
3.75
271
0
272
9
273
9
  0
DICTIONARY
  5
2D
330
A
100
AcDbDictionary
281
1
  3
CREATED_BY_EZDXF
350
2E
  3
WRITTEN_BY_EZDXF
350
78
  0
DICTIONARYVAR
  5
2E
330
2D
100
DictionaryVariables
280
0
  1
1.1.1 @ 2024-06-06T20:48:10.661451+00:00
  0
DICTIONARYVAR
  5
78
330
2D
100
DictionaryVariables
280
0
  1
1.1.1 @ 2024-06-06T20:48:10.675759+00:00
  0
ENDSEC
  0
EOF
