  0
SECTION
  2
HEADER
  9
$ACADVER
  1
AC1032
  9
$ACADMAINTVER
 90
4
  9
$DWGCODEPAGE
  3
ANSI_1252
  9
$LASTSAVEDBY
  1
ezdxf
  9
$REQUIREDVERSIONS
160
0
  9
$INSBASE
 10
0.0
 20
0.0
 30
0.0
  9
$EXTMIN
 10
1e+20
 20
1e+20
 30
1e+20
  9
$EXTMAX
 10
-1e+20
 20
-1e+20
 30
-1e+20
  9
$LIMMIN
 10
0.0
 20
0.0
  9
$LIMMAX
 10
420.0
 20
297.0
  9
$ORTHOMODE
 70
0
  9
$REGENMODE
 70
1
  9
$FILLMODE
 70
1
  9
$QTEXTMODE
 70
0
  9
$MIRRTEXT
 70
1
  9
$LTSCALE
 40
1.0
  9
$ATTMODE
 70
1
  9
$TEXTSIZE
 40
2.5
  9
$TRACEWID
 40
1.0
  9
$TEXTSTYLE
  7
Standard
  9
$CLAYER
  8
0
  9
$CELTYPE
  6
ByLayer
  9
$CECOLOR
 62
256
  9
$CELTSCALE
 40
1.0
  9
$DISPSILH
 70
0
  9
$DIMSCALE
 40
1.0
  9
$DIMASZ
 40
2.5
  9
$DIMEXO
 40
0.625
  9
$DIMDLI
 40
3.75
  9
$DIMRND
 40
0.0
  9
$DIMDLE
 40
0.0
  9
$DIMEXE
 40
1.25
  9
$DIMTP
 40
0.0
  9
$DIMTM
 40
0.0
  9
$DIMTXT
 40
2.5
  9
$DIMCEN
 40
2.5
  9
$DIMTSZ
 40
0.0
  9
$DIMTOL
 70
0
  9
$DIMLIM
 70
0
  9
$DIMTIH
 70
0
  9
$DIMTOH
 70
0
  9
$DIMSE1
 70
0
  9
$DIMSE2
 70
0
  9
$DIMTAD
 70
1
  9
$DIMZIN
 70
8
  9
$DIMBLK
  1

  9
$DIMASO
 70
1
  9
$DIMSHO
 70
1
  9
$DIMPOST
  1

  9
$DIMAPOST
  1

  9
$DIMALT
 70
0
  9
$DIMALTD
 70
3
  9
$DIMALTF
 40
0.03937007874
  9
$DIMLFAC
 40
1.0
  9
$DIMTOFL
 70
1
  9
$DIMTVP
 40
0.0
  9
$DIMTIX
 70
0
  9
$DIMSOXD
 70
0
  9
$DIMSAH
 70
0
  9
$DIMBLK1
  1

  9
$DIMBLK2
  1

  9
$DIMSTYLE
  2
ISO-25
  9
$DIMCLRD
 70
0
  9
$DIMCLRE
 70
0
  9
$DIMCLRT
 70
0
  9
$DIMTFAC
 40
1.0
  9
$DIMGAP
 40
0.625
  9
$DIMJUST
 70
0
  9
$DIMSD1
 70
0
  9
$DIMSD2
 70
0
  9
$DIMTOLJ
 70
0
  9
$DIMTZIN
 70
8
  9
$DIMALTZ
 70
0
  9
$DIMALTTZ
 70
0
  9
$DIMUPT
 70
0
  9
$DIMDEC
 70
2
  9
$DIMTDEC
 70
2
  9
$DIMALTU
 70
2
  9
$DIMALTTD
 70
3
  9
$DIMTXSTY
  7
Standard
  9
$DIMAUNIT
 70
0
  9
$DIMADEC
 70
0
  9
$DIMALTRND
 40
0.0
  9
$DIMAZIN
 70
0
  9
$DIMDSEP
 70
44
  9
$DIMATFIT
 70
3
  9
$DIMFRAC
 70
0
  9
$DIMLDRBLK
  1

  9
$DIMLUNIT
 70
2
  9
$DIMLWD
 70
-2
  9
$DIMLWE
 70
-2
  9
$DIMTMOVE
 70
0
  9
$DIMFXL
 40
1.0
  9
$DIMFXLON
 70
0
  9
$DIMJOGANG
 40
0.785398163397
  9
$DIMTFILL
 70
0
  9
$DIMTFILLCLR
 70
0
  9
$DIMARCSYM
 70
0
  9
$DIMLTYPE
  6

  9
$DIMLTEX1
  6

  9
$DIMLTEX2
  6

  9
$DIMTXTDIRECTION
 70
0
  9
$LUNITS
 70
2
  9
$LUPREC
 70
4
  9
$SKETCHINC
 40
1.0
  9
$FILLETRAD
 40
10.0
  9
$AUNITS
 70
0
  9
$AUPREC
 70
2
  9
$MENU
  1
.
  9
$ELEVATION
 40
0.0
  9
$PELEVATION
 40
0.0
  9
$THICKNESS
 40
0.0
  9
$LIMCHECK
 70
0
  9
$CHAMFERA
 40
0.0
  9
$CHAMFERB
 40
0.0
  9
$CHAMFERC
 40
0.0
  9
$CHAMFERD
 40
0.0
  9
$SKPOLY
 70
0
  9
$TDCREATE
 40
2460468.6584490743
  9
$TDUCREATE
 40
2458532.153996898
  9
$TDUPDATE
 40
2460468.6584490743
  9
$TDUUPDATE
 40
2458532.1544311
  9
$TDINDWG
 40
0.0
  9
$TDUSRTIMER
 40
0.0
  9
$USRTIMER
 70
1
  9
$ANGBASE
 50
0.0
  9
$ANGDIR
 70
0
  9
$PDMODE
 70
0
  9
$PDSIZE
 40
0.0
  9
$PLINEWID
 40
0.0
  9
$SPLFRAME
 70
0
  9
$SPLINETYPE
 70
6
  9
$SPLINESEGS
 70
8
  9
$HANDSEED
  5
131
  9
$SURFTAB1
 70
6
  9
$SURFTAB2
 70
6
  9
$SURFTYPE
 70
6
  9
$SURFU
 70
6
  9
$SURFV
 70
6
  9
$UCSBASE
  2

  9
$UCSNAME
  2

  9
$UCSORG
 10
0.0
 20
0.0
 30
0.0
  9
$UCSXDIR
 10
1.0
 20
0.0
 30
0.0
  9
$UCSYDIR
 10
0.0
 20
1.0
 30
0.0
  9
$UCSORTHOREF
  2

  9
$UCSORTHOVIEW
 70
0
  9
$UCSORGTOP
 10
0.0
 20
0.0
 30
0.0
  9
$UCSORGBOTTOM
 10
0.0
 20
0.0
 30
0.0
  9
$UCSORGLEFT
 10
0.0
 20
0.0
 30
0.0
  9
$UCSORGRIGHT
 10
0.0
 20
0.0
 30
0.0
  9
$UCSORGFRONT
 10
0.0
 20
0.0
 30
0.0
  9
$UCSORGBACK
 10
0.0
 20
0.0
 30
0.0
  9
$PUCSBASE
  2

  9
$PUCSNAME
  2

  9
$PUCSORG
 10
0.0
 20
0.0
 30
0.0
  9
$PUCSXDIR
 10
1.0
 20
0.0
 30
0.0
  9
$PUCSYDIR
 10
0.0
 20
1.0
 30
0.0
  9
$PUCSORTHOREF
  2

  9
$PUCSORTHOVIEW
 70
0
  9
$PUCSORGTOP
 10
0.0
 20
0.0
 30
0.0
  9
$PUCSORGBOTTOM
 10
0.0
 20
0.0
 30
0.0
  9
$PUCSORGLEFT
 10
0.0
 20
0.0
 30
0.0
  9
$PUCSORGRIGHT
 10
0.0
 20
0.0
 30
0.0
  9
$PUCSORGFRONT
 10
0.0
 20
0.0
 30
0.0
  9
$PUCSORGBACK
 10
0.0
 20
0.0
 30
0.0
  9
$USERI1
 70
0
  9
$USERI2
 70
0
  9
$USERI3
 70
0
  9
$USERI4
 70
0
  9
$USERI5
 70
0
  9
$USERR1
 40
0.0
  9
$USERR2
 40
0.0
  9
$USERR3
 40
0.0
  9
$USERR4
 40
0.0
  9
$USERR5
 40
0.0
  9
$WORLDVIEW
 70
1
  9
$SHADEDGE
 70
3
  9
$SHADEDIF
 70
70
  9
$TILEMODE
 70
1
  9
$MAXACTVP
 70
64
  9
$PINSBASE
 10
0.0
 20
0.0
 30
0.0
  9
$PLIMCHECK
 70
0
  9
$PEXTMIN
 10
1e+20
 20
1e+20
 30
1e+20
  9
$PEXTMAX
 10
-1e+20
 20
-1e+20
 30
-1e+20
  9
$PLIMMIN
 10
0.0
 20
0.0
  9
$PLIMMAX
 10
420.0
 20
297.0
  9
$UNITMODE
 70
0
  9
$VISRETAIN
 70
1
  9
$PLINEGEN
 70
0
  9
$PSLTSCALE
 70
1
  9
$TREEDEPTH
 70
3020
  9
$CMLSTYLE
  2
Standard
  9
$CMLJUST
 70
0
  9
$CMLSCALE
 40
20.0
  9
$PROXYGRAPHICS
 70
1
  9
$MEASUREMENT
 70
1
  9
$CELWEIGHT
370
-1
  9
$ENDCAPS
280
0
  9
$JOINSTYLE
280
0
  9
$LWDISPLAY
290
0
  9
$INSUNITS
 70
4
  9
$HYPERLINKBASE
  1

  9
$STYLESHEET
  1

  9
$XEDIT
290
1
  9
$CEPSNTYPE
380
0
  9
$PSTYLEMODE
290
1
  9
$FINGERPRINTGUID
  2
{EA750A22-30BD-48B9-9EBD-1276B6DA1009}
  9
$VERSIONGUID
  2
{4D64A879-F206-4E36-B5C9-32FE49F3BB83}
  9
$EXTNAMES
290
1
  9
$PSVPSCALE
 40
0.0
  9
$OLESTARTUP
290
0
  9
$SORTENTS
280
127
  9
$INDEXCTL
280
0
  9
$HIDETEXT
280
1
  9
$XCLIPFRAME
280
0
  9
$HALOGAP
280
0
  9
$OBSCOLOR
 70
257
  9
$OBSLTYPE
280
0
  9
$INTERSECTIONDISPLAY
280
0
  9
$INTERSECTIONCOLOR
 70
257
  9
$DIMASSOC
280
2
  9
$PROJECTNAME
  1

  9
$CAMERADISPLAY
290
0
  9
$LENSLENGTH
 40
50.0
  9
$CAMERAHEIGHT
 40
0.0
  9
$STEPSPERSEC
 40
24.0
  9
$STEPSIZE
 40
100.0
  9
$3DDWFPREC
 40
2.0
  9
$PSOLWIDTH
 40
0.005
  9
$PSOLHEIGHT
 40
0.08
  9
$LOFTANG1
 40
1.570796326795
  9
$LOFTANG2
 40
1.570796326795
  9
$LOFTMAG1
 40
0.0
  9
$LOFTMAG2
 40
0.0
  9
$LOFTPARAM
 70
7
  9
$LOFTNORMALS
280
1
  9
$LATITUDE
 40
37.795
  9
$LONGITUDE
 40
-122.394
  9
$NORTHDIRECTION
 40
0.0
  9
$TIMEZONE
 70
-8000
  9
$LIGHTGLYPHDISPLAY
280
1
  9
$TILEMODELIGHTSYNCH
280
1
  9
$CMATERIAL
347
20
  9
$SOLIDHIST
280
0
  9
$SHOWHIST
280
1
  9
$DWFFRAME
280
2
  9
$DGNFRAME
280
2
  9
$REALWORLDSCALE
290
1
  9
$INTERFERECOLOR
 62
256
  9
$CSHADOW
280
0
  9
$SHADOWPLANELOCATION
 40
0.0
  0
ENDSEC
  0
SECTION
  2
CLASSES
  0
CLASS
  1
ACDBDICTIONARYWDFLT
  2
AcDbDictionaryWithDefault
  3
ObjectDBX Classes
 90
0
 91
0
280
0
281
0
  0
CLASS
  1
SUN
  2
AcDbSun
  3
SCENEOE
 90
1153
 91
0
280
0
281
0
  0
CLASS
  1
VISUALSTYLE
  2
AcDbVisualStyle
  3
ObjectDBX Classes
 90
4095
 91
0
280
0
281
0
  0
CLASS
  1
MATERIAL
  2
AcDbMaterial
  3
ObjectDBX Classes
 90
1153
 91
0
280
0
281
0
  0
CLASS
  1
SCALE
  2
AcDbScale
  3
ObjectDBX Classes
 90
1153
 91
0
280
0
281
0
  0
CLASS
  1
TABLESTYLE
  2
AcDbTableStyle
  3
ObjectDBX Classes
 90
4095
 91
0
280
0
281
0
  0
CLASS
  1
MLEADERSTYLE
  2
AcDbMLeaderStyle
  3
ACDB_MLEADERSTYLE_CLASS
 90
4095
 91
0
280
0
281
0
  0
CLASS
  1
DICTIONARYVAR
  2
AcDbDictionaryVar
  3
ObjectDBX Classes
 90
0
 91
0
280
0
281
0
  0
CLASS
  1
CELLSTYLEMAP
  2
AcDbCellStyleMap
  3
ObjectDBX Classes
 90
1152
 91
0
280
0
281
0
  0
CLASS
  1
MENTALRAYRENDERSETTINGS
  2
AcDbMentalRayRenderSettings
  3
SCENEOE
 90
1024
 91
0
280
0
281
0
  0
CLASS
  1
ACDBDETAILVIEWSTYLE
  2
AcDbDetailViewStyle
  3
ObjectDBX Classes
 90
1025
 91
0
280
0
281
0
  0
CLASS
  1
ACDBSECTIONVIEWSTYLE
  2
AcDbSectionViewStyle
  3
ObjectDBX Classes
 90
1025
 91
0
280
0
281
0
  0
CLASS
  1
RASTERVARIABLES
  2
AcDbRasterVariables
  3
ISM
 90
0
 91
0
280
0
281
0
  0
CLASS
  1
ACDBPLACEHOLDER
  2
AcDbPlaceHolder
  3
ObjectDBX Classes
 90
0
 91
0
280
0
281
0
  0
CLASS
  1
LAYOUT
  2
AcDbLayout
  3
ObjectDBX Classes
 90
0
 91
0
280
0
281
0
  0
ENDSEC
  0
SECTION
  2
TABLES
  0
TABLE
  2
VPORT
  5
8
330
0
100
AcDbSymbolTable
 70
1
  0
VPORT
  5
23
330
8
100
AcDbSymbolTableRecord
100
AcDbViewportTableRecord
  2
*Active
 70
0
 10
0.0
 20
0.0
 11
1.0
 21
1.0
 12
0.0
 22
0.0
 13
0.0
 23
0.0
 14
0.5
 24
0.5
 15
0.5
 25
0.5
 16
0.0
 26
0.0
 36
1.0
 17
0.0
 27
0.0
 37
0.0
 40
1000.0
 41
1.34
 42
50.0
 43
0.0
 44
0.0
 50
0.0
 51
0.0
 71
0
 72
1000
 73
1
 74
3
 75
0
 76
0
 77
0
 78
0
281
0
 65
0
146
0.0
  0
ENDTAB
  0
TABLE
  2
LTYPE
  5
2
330
0
100
AcDbSymbolTable
 70
3
  0
LTYPE
  5
24
330
2
100
AcDbSymbolTableRecord
100
AcDbLinetypeTableRecord
  2
ByBlock
 70
0
  3

 72
65
 73
0
 40
0.0
  0
LTYPE
  5
25
330
2
100
AcDbSymbolTableRecord
100
AcDbLinetypeTableRecord
  2
ByLayer
 70
0
  3

 72
65
 73
0
 40
0.0
  0
LTYPE
  5
26
330
2
100
AcDbSymbolTableRecord
100
AcDbLinetypeTableRecord
  2
Continuous
 70
0
  3

 72
65
 73
0
 40
0.0
  0
ENDTAB
  0
TABLE
  2
LAYER
  5
1
330
0
100
AcDbSymbolTable
 70
2
  0
LAYER
  5
27
330
1
100
AcDbSymbolTableRecord
100
AcDbLayerTableRecord
  2
0
 70
0
 62
7
  6
Continuous
370
-3
390
13
347
21
  0
LAYER
  5
28
330
1
100
AcDbSymbolTableRecord
100
AcDbLayerTableRecord
  2
Defpoints
 70
0
 62
7
  6
Continuous
290
0
370
-3
390
13
347
21
  0
ENDTAB
  0
TABLE
  2
STYLE
  5
5
330
0
100
AcDbSymbolTable
 70
1
  0
STYLE
  5
29
330
5
100
AcDbSymbolTableRecord
100
AcDbTextStyleTableRecord
  2
Standard
 70
0
 40
0.0
 41
1.0
 50
0.0
 71
0
 42
2.5
  3
txt
  4

  0
ENDTAB
  0
TABLE
  2
VIEW
  5
7
330
0
100
AcDbSymbolTable
 70
0
  0
ENDTAB
  0
TABLE
  2
UCS
  5
6
330
0
100
AcDbSymbolTable
 70
0
  0
ENDTAB
  0
TABLE
  2
APPID
  5
3
330
0
100
AcDbSymbolTable
 70
3
  0
APPID
  5
2A
330
3
100
AcDbSymbolTableRecord
100
AcDbRegAppTableRecord
  2
ACAD
 70
0
  0
APPID
  5
12E
330
3
100
AcDbSymbolTableRecord
100
AcDbRegAppTableRecord
  2
HATCHBACKGROUNDCOLOR
 70
0
  0
APPID
  5
12F
330
3
100
AcDbSymbolTableRecord
100
AcDbRegAppTableRecord
  2
EZDXF
 70
0
  0
ENDTAB
  0
TABLE
  2
DIMSTYLE
  5
4
330
0
100
AcDbSymbolTable
 70
1
100
AcDbDimStyleTable
  0
DIMSTYLE
105
2B
330
4
100
AcDbSymbolTableRecord
100
AcDbDimStyleTableRecord
  2
Standard
 70
0
 40
1.0
 41
2.5
 42
0.625
 43
3.75
 44
1.25
 45
0.0
 46
0.0
 47
0.0
 48
0.0
 49
2.5
140
2.5
141
2.5
142
0.0
143
0.03937007874
144
1.0
145
0.0
146
1.0
147
0.625
148
0.0
 69
0
 70
0
 71
0
 72
0
 73
0
 74
0
 75
0
 76
0
 77
1
 78
8
 79
3
170
0
171
3
172
1
173
0
174
0
175
0
176
0
177
0
178
0
179
2
271
2
272
2
273
2
274
3
275
0
276
0
277
2
278
44
279
0
280
0
281
0
282
0
283
0
284
8
285
0
286
0
288
0
289
3
290
0
371
-2
372
-2
  0
ENDTAB
  0
TABLE
  2
BLOCK_RECORD
  5
9
330
0
100
AcDbSymbolTable
 70
2
  0
BLOCK_RECORD
  5
17
330
9
100
AcDbSymbolTableRecord
100
AcDbBlockTableRecord
  2
*Model_Space
340
1A
 70
0
280
1
281
0
  0
BLOCK_RECORD
  5
1B
330
9
100
AcDbSymbolTableRecord
100
AcDbBlockTableRecord
  2
*Paper_Space
340
1E
 70
0
280
1
281
0
  0
ENDTAB
  0
ENDSEC
  0
SECTION
  2
BLOCKS
  0
BLOCK
  5
18
330
17
100
AcDbEntity
  8
0
100
AcDbBlockBegin
  2
*Model_Space
 70
0
 10
0.0
 20
0.0
 30
0.0
  3
*Model_Space
  1

  0
ENDBLK
  5
19
330
17
100
AcDbEntity
  8
0
100
AcDbBlockEnd
  0
BLOCK
  5
1C
330
1B
100
AcDbEntity
  8
0
100
AcDbBlockBegin
  2
*Paper_Space
 70
0
 10
0.0
 20
0.0
 30
0.0
  3
*Paper_Space
  1

  0
ENDBLK
  5
1D
330
1B
100
AcDbEntity
  8
0
100
AcDbBlockEnd
  0
ENDSEC
  0
SECTION
  2
ENTITIES
  0
LWPOLYLINE
  5
2F
330
17
100
AcDbEntity
  8
0
 62
0
100
AcDbPolyline
 90
105
 70
0
 10
27.88888888888889
 20
454.64778394209355
 10
30.424242424242426
 20
452.5470293914486
 10
32.95959595959596
 20
449.9259286875025
 10
35.494949494949495
 20
446.87921523890714
 10
38.03030303030303
 20
443.5170052078292
 10
40.56565656565657
 20
439.96081762494464
 10
43.101010101010104
 20
436.3391823750553
 10
45.63636363636364
 20
432.7829947921707
 10
48.17171717171718
 20
429.4207847610928
 10
50.70707070707071
 20
426.37407131249745
 10
53.24242424242424
 20
423.7529706085514
 10
55.77777777777778
 20
421.65221605790646
 10
58.313131313131315
 20
420.1477344034856
 10
60.84848484848485
 20
419.2939015321682
 10
63.38383838383839
 20
419.12157718856366
 10
65.91919191919192
 20
419.63698962343653
 10
68.45454545454545
 20
420.8215104884964
 10
70.98989898989899
 20
422.6323281134411
 10
73.52525252525253
 20
425.00399483126574
 10
76.06060606060606
 20
427.8507924274708
 10
78.5959595959596
 20
431.06983021967073
 10
81.13131313131314
 20
434.54476379493417
 10
83.66666666666667
 20
438.15
 10
86.20202020202021
 20
441.7552362050658
 10
88.73737373737374
 20
445.2301697803292
 10
91.27272727272728
 20
448.44920757252913
 10
93.80808080808082
 20
451.2960051687342
 10
96.34343434343435
 20
453.6676718865589
 10
98.87878787878789
 20
455.47848951150354
 10
101.41414141414143
 20
456.6630103765634
 10
103.94949494949495
 20
457.1784228114363
 10
106.48484848484848
 20
457.00609846783175
 10
109.02020202020202
 20
456.15226559651444
 10
111.55555555555556
 20
454.64778394209355
 10
114.0909090909091
 20
452.5470293914486
 10
116.62626262626263
 20
449.9259286875025
 10
119.16161616161617
 20
446.87921523890714
 10
121.6969696969697
 20
443.51700520782924
 10
124.23232323232324
 20
439.96081762494464
 10
126.76767676767678
 20
436.3391823750553
 10
129.3030303030303
 20
432.78299479217077
 10
131.83838383838383
 20
429.4207847610928
 10
134.37373737373738
 20
426.37407131249745
 10
136.9090909090909
 20
423.7529706085514
 10
139.44444444444446
 20
421.6522160579064
 10
141.97979797979798
 20
420.1477344034856
 10
144.51515151515153
 20
419.2939015321682
 10
147.05050505050505
 20
419.12157718856366
 10
149.5858585858586
 20
419.63698962343653
 10
152.12121212121212
 20
420.8215104884964
 10
154.65656565656568
 20
422.6323281134411
 10
157.1919191919192
 20
425.00399483126574
 10
159.72727272727275
 20
427.8507924274709
 10
162.26262626262627
 20
431.06983021967073
 10
164.7979797979798
 20
434.5447637949341
 10
167.33333333333334
 20
438.15
 10
169.86868686868686
 20
441.7552362050658
 10
172.40404040404042
 20
445.2301697803292
 10
174.93939393939394
 20
448.4492075725291
 10
177.4747474747475
 20
451.2960051687342
 10
180.010101010101
 20
453.6676718865589
 10
182.54545454545456
 20
455.47848951150354
 10
185.08080808080808
 20
456.6630103765634
 10
187.61616161616163
 20
457.1784228114363
 10
190.15151515151516
 20
457.00609846783175
 10
192.6868686868687
 20
456.1522655965144
 10
195.22222222222223
 20
454.6477839420935
 10
197.75757575757578
 20
452.5470293914486
 10
200.2929292929293
 20
449.9259286875025
 10
202.82828282828285
 20
446.87921523890714
 10
205.36363636363637
 20
443.51700520782924
 10
207.8989898989899
 20
439.9608176249447
 10
210.43434343434345
 20
436.3391823750553
 10
212.96969696969697
 20
432.78299479217077
 10
215.50505050505052
 20
429.42078476109276
 10
218.04040404040404
 20
426.37407131249745
 10
220.5757575757576
 20
423.7529706085513
 10
223.11111111111111
 20
421.65221605790646
 10
225.64646464646466
 20
420.1477344034856
 10
228.1818181818182
 20
419.2939015321682
 10
230.71717171717174
 20
419.12157718856366
 10
233.25252525252526
 20
419.63698962343653
 10
235.7878787878788
 20
420.8215104884964
 10
238.32323232323233
 20
422.6323281134411
 10
240.85858585858588
 20
425.0039948312658
 10
243.3939393939394
 20
427.8507924274708
 10
245.92929292929293
 20
431.06983021967073
 10
248.46464646464648
 20
434.54476379493417
 10
251.0
 20
438.15
 10
251.0
 20
419.09999999999997
 10
251.0
 20
0.0
 10
0.0
 20
0.0
 10
0.0
 20
419.09999999999997
 10
0.0
 20
438.15
 10
2.5353535353535355
 20
441.7552362050658
 10
5.070707070707071
 20
445.2301697803292
 10
7.606060606060606
 20
448.44920757252913
 10
10.141414141414142
 20
451.2960051687342
 10
12.676767676767678
 20
453.6676718865589
 10
15.212121212121213
 20
455.47848951150354
 10
17.747474747474747
 20
456.6630103765634
 10
20.282828282828284
 20
457.1784228114363
 10
22.81818181818182
 20
457.00609846783175
 10
25.353535353535356
 20
456.1522655965144
 10
27.88888888888889
 20
454.64778394209355
  0
LWPOLYLINE
  5
30
330
17
100
AcDbEntity
  8
0
 62
0
100
AcDbPolyline
 90
16
 70
0
 10
199.07214634707833
 20
10.16849402170896
 10
198.21984921965395
 20
9.228129052790145
 10
200.34735245683115
 20
8.0
 10
212.62275985549013
 20
8.0
 10
214.1717835054733
 20
22.121362695936114
 10
212.40775293903425
 20
23.232365541160107
 10
204.26929321372882
 20
22.352547055110335
 10
202.24560916505203
 20
19.139377498629795
 10
202.25
 20
19.049999999999997
 10
202.18258617341075
 20
17.67776003538615
 10
201.98099392564524
 20
16.318735491774202
 10
201.64716470025093
 20
14.986014518437525
 10
201.18431345515802
 20
13.692431946888739
 10
200.59689770087698
 20
12.45044568443603
 10
199.89057457223564
 20
11.272016737725567
 10
199.07214634707833
 20
10.16849402170896
  0
LWPOLYLINE
  5
31
330
17
100
AcDbEntity
  8
0
 62
0
100
AcDbPolyline
 90
22
 70
0
 10
129.8348588831422
 20
32.35024464741377
 10
130.85756805311127
 20
31.98431345515801
 10
132.09955431556398
 20
31.39689770087697
 10
133.27798326227443
 20
30.690574572235633
 10
134.38150597829105
 20
29.872146347078314
 10
135.39949493661166
 20
28.949494936611664
 10
136.3221463470783
 20
27.931505978291042
 10
137.14057457223564
 20
26.82798326227443
 10
137.84689770087698
 20
25.649554315563968
 10
138.43431345515802
 20
24.407568053111262
 10
138.89716470025093
 20
23.113985481562473
 10
139.23099392564524
 20
21.7812645082258
 10
139.43258617341075
 20
20.422239964613844
 10
139.5
 20
19.049999999999997
 10
139.43258617341075
 20
17.67776003538615
 10
139.23099392564524
 20
16.318735491774202
 10
138.89716470025093
 20
14.986014518437525
 10
138.64833047335367
 20
14.290569442872258
 10
140.29511572234333
 20
15.006713880691677
 10
140.9944382677786
 20
33.33164156740531
 10
131.9123973841779
 20
39.308211697265506
 10
129.8348588831422
 20
32.35024464741377
  0
LWPOLYLINE
  5
32
330
17
100
AcDbEntity
  8
0
 62
0
100
AcDbPolyline
 90
9
 70
0
 10
111.75267705795873
 20
16.42881677863539
 10
111.56741382658925
 20
17.677760035386147
 10
111.5
 20
19.049999999999997
 10
111.56741382658925
 20
20.422239964613844
 10
111.76900607435478
 20
21.781264508225796
 10
112.01560695210581
 20
22.765750397482044
 10
108.05831901496276
 20
22.473762253299356
 10
107.92632116144523
 20
21.985230430494994
 10
111.75267705795873
 20
16.42881677863539
  0
LWPOLYLINE
  5
33
330
17
100
AcDbEntity
  8
0
 62
0
100
AcDbPolyline
 90
10
 70
0
 10
107.74900590023026
 20
30.47268690634519
 10
118.70751508097078
 20
31.281259547358566
 10
118.90044568443602
 20
31.396897700876966
 10
120.14243194688873
 20
31.98431345515801
 10
121.43601451843753
 20
32.44716470025092
 10
121.521169033707
 20
32.468494795927334
 10
124.18535028444603
 20
41.391210473608226
 10
112.90472407545894
 20
41.12597991619259
 10
107.49725139001384
 20
31.22980961157009
 10
107.74900590023026
 20
30.47268690634519
  0
LWPOLYLINE
  5
34
330
17
100
AcDbEntity
  8
0
 62
0
100
AcDbPolyline
 90
12
 70
0
 10
57.329399331938475
 20
42.625932884868234
 10
48.77395689440891
 20
38.5532365324907
 10
52.58760465302458
 20
28.6594290332247
 10
52.85050506338833
 20
28.94949493661166
 10
53.868494021708955
 20
29.87214634707831
 10
54.97201673772557
 20
30.690574572235633
 10
56.15044568443603
 20
31.396897700876966
 10
57.392431946888735
 20
31.98431345515801
 10
58.686014518437524
 20
32.44716470025092
 10
59.886109046599984
 20
32.747772730552555
 10
63.9024437549524
 20
38.2116918428801
 10
57.329399331938475
 20
42.625932884868234
  0
LWPOLYLINE
  5
35
330
17
100
AcDbEntity
  8
0
 62
0
100
AcDbPolyline
 90
15
 70
0
 10
76.14716470025093
 20
23.113985481562473
 10
76.43173761729753
 20
21.97790671391216
 10
76.57759232167155
 20
22.07609824091196
 10
75.63235525367782
 20
35.76869325293228
 10
71.76115398621187
 20
35.395530657377094
 10
68.95802022884337
 20
31.58207953245659
 10
69.34955431556396
 20
31.39689770087697
 10
70.52798326227443
 20
30.690574572235633
 10
71.63150597829105
 20
29.872146347078314
 10
72.64949493661166
 20
28.949494936611664
 10
73.57214634707832
 20
27.931505978291042
 10
74.39057457223564
 20
26.82798326227443
 10
75.09689770087697
 20
25.649554315563968
 10
75.68431345515802
 20
24.407568053111262
 10
76.14716470025093
 20
23.113985481562473
  0
LWPOLYLINE
  5
36
330
17
100
AcDbEntity
  8
0
 62
0
100
AcDbPolyline
 90
6
 70
0
 10
222.06894902326167
 20
20.7464302922599
 10
220.6707467111671
 20
8.0
 10
241.37134787043937
 20
8.0
 10
239.5132340877317
 20
13.061872247140855
 10
224.37861708272249
 20
21.14770966442302
 10
222.06894902326167
 20
20.7464302922599
  0
LWPOLYLINE
  5
37
330
17
100
AcDbEntity
  8
0
 62
0
100
AcDbPolyline
 90
6
 70
0
 10
154.1513520986773
 20
11.519109861925244
 10
158.27897702335758
 20
8.0
 10
167.9481391574209
 20
8.0
 10
174.8583695688285
 20
12.713440562598407
 10
170.20322666456923
 20
21.998297068756074
 10
154.1513520986773
 20
11.519109861925244
  0
LWPOLYLINE
  5
38
330
17
100
AcDbEntity
  8
0
 62
0
100
AcDbPolyline
 90
5
 70
0
 10
102.31324723735452
 20
16.030968537088484
 10
95.33260717755184
 20
12.307011375203729
 10
95.05198314367871
 20
8.0
 10
107.84367490917585
 20
8.0
 10
102.31324723735452
 20
16.030968537088484
  0
LWPOLYLINE
  5
39
330
17
100
AcDbEntity
  8
0
 62
0
100
AcDbPolyline
 90
6
 70
0
 10
75.29804660845548
 20
11.570729956962168
 10
75.54454380738163
 20
8.0
 10
87.03502034547682
 20
8.0
 10
87.3199138273485
 20
12.372538770083338
 10
81.0452323765494
 20
15.439819740131497
 10
75.29804660845548
 20
11.570729956962168
  0
LWPOLYLINE
  5
3A
330
17
100
AcDbEntity
  8
0
 62
0
100
AcDbPolyline
 90
5
 70
0
 10
47.03631160221994
 20
14.396883657667786
 10
40.01418372383341
 20
13.264109914191067
 10
37.68454806052651
 20
8.0
 10
47.47790587586045
 20
8.0
 10
47.03631160221994
 20
14.396883657667786
  0
LWPOLYLINE
  5
3B
330
17
100
AcDbEntity
  8
0
 62
0
100
AcDbPolyline
 90
6
 70
0
 10
16.938619459979236
 20
15.187546011991799
 10
23.72049222887857
 20
8.0
 10
28.936149734572144
 20
8.0
 10
32.2751340046525
 20
15.54486226150766
 10
26.832241703756154
 20
19.537866668310016
 10
16.938619459979236
 20
15.187546011991799
  0
LWPOLYLINE
  5
3C
330
17
100
AcDbEntity
  8
0
 62
0
100
AcDbPolyline
 90
5
 70
0
 10
8.161267252638936
 20
12.832937223371118
 10
8.0
 20
12.858840298981768
 10
8.0
 20
8.0
 10
12.72142802180084
 20
8.0
 10
8.161267252638936
 20
12.832937223371118
  0
LWPOLYLINE
  5
3D
330
17
100
AcDbEntity
  8
0
 62
0
100
AcDbPolyline
 90
6
 70
0
 10
17.13189141219482
 20
59.472533931490034
 10
8.0
 20
60.561977800875205
 10
8.0
 20
43.27546130679075
 10
9.219629670027643
 20
42.380718883592635
 10
15.561796986497939
 20
45.1694307224825
 10
17.13189141219482
 20
59.472533931490034
  0
LWPOLYLINE
  5
3E
330
17
100
AcDbEntity
  8
0
 62
0
100
AcDbPolyline
 90
6
 70
0
 10
14.03658523177728
 20
85.9275946104899
 10
8.0
 20
83.01398824927772
 10
8.0
 20
68.61870758255392
 10
18.673717034514993
 20
67.3453223593533
 10
23.11482933582738
 20
79.7498357645236
 10
14.03658523177728
 20
85.9275946104899
  0
LWPOLYLINE
  5
3F
330
17
100
AcDbEntity
  8
0
 62
0
100
AcDbPolyline
 90
5
 70
0
 10
10.559180439915508
 20
93.13229140546173
 10
11.07085207104683
 20
100.04157444648445
 10
8.0
 20
102.1312939262498
 10
8.0
 20
91.8970824051852
 10
10.559180439915508
 20
93.13229140546173
  0
LWPOLYLINE
  5
40
330
17
100
AcDbEntity
  8
0
 62
0
100
AcDbPolyline
 90
5
 70
0
 10
13.117538596503437
 20
127.67870661150664
 10
13.616990480571985
 20
134.42298208270222
 10
8.0
 20
135.66071260593253
 10
8.0
 20
125.20868549202852
 10
13.117538596503437
 20
127.67870661150664
  0
LWPOLYLINE
  5
41
330
17
100
AcDbEntity
  8
0
 62
0
100
AcDbPolyline
 90
6
 70
0
 10
14.51181854819879
 20
153.22832819493487
 10
8.0
 20
151.52038243552602
 10
8.0
 20
143.85263532068592
 10
16.649025679565966
 20
141.94678144482896
 10
21.12257865536958
 20
146.19180047418922
 10
14.51181854819879
 20
153.22832819493487
  0
LWPOLYLINE
  5
42
330
17
100
AcDbEntity
  8
0
 62
0
100
AcDbPolyline
 90
5
 70
0
 10
12.134472062811255
 20
160.8753834781237
 10
12.832845820579678
 20
166.994548112154
 10
8.0
 20
170.57209345750636
 10
8.0
 20
159.79097764334287
 10
12.134472062811255
 20
160.8753834781237
  0
LWPOLYLINE
  5
43
330
17
100
AcDbEntity
  8
0
 62
0
100
AcDbPolyline
 90
6
 70
0
 10
16.64263834245503
 20
200.37602530326694
 10
8.0
 20
208.4350731391497
 10
8.0
 20
192.96730275792808
 10
9.621174478903413
 20
191.76721787499264
 10
15.975280170794576
 20
194.52861984772608
 10
16.64263834245503
 20
200.37602530326694
  0
LWPOLYLINE
  5
44
330
17
100
AcDbEntity
  8
0
 62
0
100
AcDbPolyline
 90
6
 70
0
 10
10.442850900348276
 20
236.61436690576375
 10
8.0
 20
234.07662221911923
 10
8.0
 20
216.7733046542648
 10
19.816956616472453
 20
229.04929696395993
 10
19.617134601809084
 20
230.5760929933749
 10
10.442850900348276
 20
236.61436690576375
  0
LWPOLYLINE
  5
45
330
17
100
AcDbEntity
  8
0
 62
0
100
AcDbPolyline
 90
6
 70
0
 10
12.621756347827613
 20
272.93589838501066
 10
8.0
 20
269.4637983236529
 10
8.0
 20
254.45478478597863
 10
23.384732785634696
 20
266.0125839486718
 10
23.32201955607161
 20
268.3164631566033
 10
12.621756347827613
 20
272.93589838501066
  0
LWPOLYLINE
  5
46
330
17
100
AcDbEntity
  8
0
 62
0
100
AcDbPolyline
 90
7
 70
0
 10
8.238216285593808
 20
296.2540641198866
 10
18.50954268500209
 20
300.88986010150984
 10
19.19870149018243
 20
307.78370229154825
 10
13.573038426227868
 20
311.82745241886005
 10
8.0
 20
309.31215223912363
 10
8.0
 20
296.3845559806161
 10
8.238216285593808
 20
296.2540641198866
  0
LWPOLYLINE
  5
47
330
17
100
AcDbEntity
  8
0
 62
0
100
AcDbPolyline
 90
5
 70
0
 10
10.282035587355494
 20
319.11918063042685
 10
10.971194392535836
 20
326.0130228209309
 10
8.0
 20
328.1487297705833
 10
8.0
 20
318.08922101342034
 10
10.282035587355494
 20
319.11918063042685
  0
LWPOLYLINE
  5
48
330
17
100
AcDbEntity
  8
0
 62
0
100
AcDbPolyline
 90
5
 70
0
 10
18.774933772627264
 20
355.8663198905997
 10
13.713586791884154
 20
369.3891156176105
 10
8.0
 20
366.35722315181044
 10
8.0
 20
351.0032289184383
 10
18.774933772627264
 20
355.8663198905997
  0
LWPOLYLINE
  5
49
330
17
100
AcDbEntity
  8
0
 62
0
100
AcDbPolyline
 90
5
 70
0
 10
12.350270053371787
 20
381.9794665710069
 10
15.433812336530536
 20
393.35123586747795
 10
8.0
 20
400.8296527102747
 10
8.0
 20
385.8265679653679
 10
12.350270053371787
 20
381.9794665710069
  0
LWPOLYLINE
  5
4A
330
17
100
AcDbEntity
  8
0
 62
0
100
AcDbPolyline
 90
4
 70
0
 10
15.452117684762925
 20
419.53685569530353
 10
8.0
 20
424.52250471196555
 10
8.0
 20
409.8460707205715
 10
15.452117684762925
 20
419.53685569530353
  0
LWPOLYLINE
  5
4B
330
17
100
AcDbEntity
  8
0
 62
0
100
AcDbPolyline
 90
10
 70
0
 10
76.5500249802135
 20
406.8294117739424
 10
66.3297085960611
 20
411.5568095699411
 10
64.97756127470944
 20
411.2819313198325
 10
64.2706789460683
 20
411.17088452583397
 10
63.55670169869734
 20
411.1234450144635
 10
63.3633065774212
 20
411.1279185184268
 10
59.49600237607956
 20
409.1593916285783
 10
59.793075083289295
 20
394.6634653415531
 10
60.63730951817706
 20
394.0629628938623
 10
76.5500249802135
 20
406.8294117739424
  0
LWPOLYLINE
  5
4C
330
17
100
AcDbEntity
  8
0
 62
0
100
AcDbPolyline
 90
14
 70
0
 10
75.63955088416266
 20
416.1222791687579
 10
75.59079855169945
 20
416.0874589428405
 10
83.99797419458628
 20
412.19872770272195
 10
88.01871480233967
 20
414.3703047144227
 10
88.43799903430045
 20
415.2183615490794
 10
88.28794881468639
 20
424.57257343037054
 10
84.98770287247994
 20
426.2610026591412
 10
84.88070725779531
 20
426.1198860960416
 10
82.34535372244177
 20
422.9008483038417
 10
82.03480646681074
 20
422.53017878743793
 10
79.4994529314572
 20
419.68338119123285
 10
78.99036746708853
 20
419.1616906049762
 10
76.455013931735
 20
416.7900238871515
 10
75.63955088416266
 20
416.1222791687579
  0
LWPOLYLINE
  5
4D
330
17
100
AcDbEntity
  8
0
 62
0
100
AcDbPolyline
 90
17
 70
0
 10
131.80490037799436
 20
417.5928375724665
 10
131.15896326885067
 20
418.1909536973091
 10
128.62360973349715
 20
420.8120544012552
 10
128.22442062201702
 20
421.256854931787
 10
127.44534412237658
 20
422.19306474073113
 10
124.94425240112469
 20
422.821927934885
 10
122.16954154940322
 20
416.88595787622035
 10
129.68361472012475
 20
406.1334837540053
 10
138.8287786124274
 20
410.26994342636317
 10
139.83465086132028
 20
412.4286804215861
 10
139.42653299825784
 20
412.56612257393107
 10
138.6433980766889
 20
412.8766660028629
 10
137.89726265848077
 20
413.2678430271485
 10
135.36190912312725
 20
414.77232468156933
 10
134.83700524365813
 20
415.1122233965147
 10
134.3402539133479
 20
415.49208302182154
 10
131.80490037799436
 20
417.5928375724665
  0
LWPOLYLINE
  5
4E
330
17
100
AcDbEntity
  8
0
 62
0
100
AcDbPolyline
 90
17
 70
0
 10
171.34185279223578
 20
429.9428374336103
 10
171.26066938904438
 20
429.82950735975
 10
168.72531585369086
 20
426.3545737844866
 10
168.54737392446197
 20
426.11988609604157
 10
168.14511687947495
 20
425.60915628580574
 10
167.63639837643132
 20
418.5073534590192
 10
169.11525379447266
 20
417.3786907810718
 10
179.7166692595929
 20
419.19870568299666
 10
180.25203950393708
 20
426.67257166337095
 10
179.36849402170895
 20
427.32785365292165
 10
178.35050506338834
 20
428.2505050633883
 10
177.42785365292167
 20
429.26849402170893
 10
176.60942542776436
 20
430.3720167377256
 10
176.02929191450372
 20
431.339911030382
 10
174.63844517152756
 20
432.2814870220609
 10
172.1297118962521
 20
431.0631617302746
 10
171.34185279223578
 20
429.9428374336103
  0
LWPOLYLINE
  5
4F
330
17
100
AcDbEntity
  8
0
 62
0
100
AcDbPolyline
 90
11
 70
0
 10
215.8786430056207
 20
414.6117867156863
 10
217.49803690688228
 20
415.9137361274633
 10
215.47156704466116
 20
417.59283757246635
 10
214.82562993551733
 20
418.19095369730906
 10
212.29027640016378
 20
420.8120544012552
 10
211.8910872886837
 20
421.25685493178696
 10
209.35573375333018
 20
424.3035683803823
 10
209.11756154413717
 20
424.6041485101174
 10
208.25733451830664
 20
425.74492193477846
 10
207.6861051726155
 20
417.7704563769512
 10
215.8786430056207
 20
414.6117867156863
  0
LWPOLYLINE
  5
50
330
17
100
AcDbEntity
  8
0
 62
0
100
AcDbPolyline
 90
14
 70
0
 10
225.21366716814177
 20
411.85201117622626
 10
220.8010111390613
 20
408.3043536748737
 10
222.3431717697531
 20
394.01079791458324
 10
223.3861274062656
 20
393.366665978916
 10
225.7696450878866
 20
393.5827733222395
 10
235.93207451421767
 20
404.2722728843801
 10
231.18121466756378
 20
411.14279215708126
 10
230.89003503203068
 20
411.1234450144635
 10
230.17467484028109
 20
411.1399923122021
 10
227.63932130492753
 20
411.3123166558066
 10
226.9584520272028
 20
411.38799391496565
 10
226.28655365565925
 20
411.5216449502042
 10
225.62855320027802
 20
411.7122897026137
 10
225.21366716814177
 20
411.85201117622626
  0
LWPOLYLINE
  5
51
330
17
100
AcDbEntity
  8
0
 62
0
100
AcDbPolyline
 90
7
 70
0
 10
243.0
 20
408.1167738215635
 10
243.0
 20
416.14448302042973
 10
242.97288421749602
 20
416.1222791687579
 10
240.4375306821425
 20
414.31146154381327
 10
239.8227431931687
 20
413.9135535379267
 10
239.21274297310472
 20
413.59376603629596
 10
243.0
 20
408.1167738215635
  0
LWPOLYLINE
  5
52
330
17
100
AcDbEntity
  8
0
 62
0
100
AcDbPolyline
 90
6
 70
0
 10
241.98768976563588
 20
384.1942827240564
 10
243.0
 20
384.64141517674244
 10
243.0
 20
399.7131235376374
 10
242.66077241906896
 20
399.7391456174664
 10
233.66605958435684
 20
390.27792577818036
 10
241.98768976563588
 20
384.1942827240564
  0
LWPOLYLINE
  5
53
330
17
100
AcDbEntity
  8
0
 62
0
100
AcDbPolyline
 90
7
 70
0
 10
239.75407755188644
 20
363.5300388117321
 10
233.41655545681715
 20
360.7307864660397
 10
232.6720180530101
 20
353.84270516084507
 10
238.26500274334103
 20
349.7538762027398
 10
243.0
 20
351.8453012076471
 10
243.0
 20
361.1570622284318
 10
239.75407755188644
 20
363.5300388117321
  0
LWPOLYLINE
  5
54
330
17
100
AcDbEntity
  8
0
 62
0
100
AcDbPolyline
 90
5
 70
0
 10
241.4973009340465
 20
342.4359360281378
 10
240.57108672289178
 20
333.86707332683727
 10
243.0
 20
332.98048634010485
 10
243.0
 20
343.099670816361
 10
241.4973009340465
 20
342.4359360281378
  0
LWPOLYLINE
  5
55
330
17
100
AcDbEntity
  8
0
 62
0
100
AcDbPolyline
 90
7
 70
0
 10
236.65245406422764
 20
326.7811472262256
 10
232.40211223065853
 20
324.2973650577478
 10
229.28252308862284
 20
310.6957325199619
 10
232.3001056490466
 20
308.1579472515732
 10
243.0
 20
313.55515874991784
 10
243.0
 20
324.4642050459779
 10
236.65245406422764
 20
326.7811472262256
  0
LWPOLYLINE
  5
56
330
17
100
AcDbEntity
  8
0
 62
0
100
AcDbPolyline
 90
4
 70
0
 10
236.9546557175927
 20
301.54565132642165
 10
243.0
 20
297.58473917287296
 10
243.0
 20
304.5950273858726
 10
236.9546557175927
 20
301.54565132642165
  0
LWPOLYLINE
  5
57
330
17
100
AcDbEntity
  8
0
 62
0
100
AcDbPolyline
 90
5
 70
0
 10
234.5673410780728
 20
293.54559555696324
 10
229.75456388294697
 20
282.3525912198238
 10
243.0
 20
273.6741758238514
 10
243.0
 20
288.0205138329365
 10
234.5673410780728
 20
293.54559555696324
  0
LWPOLYLINE
  5
58
330
17
100
AcDbEntity
  8
0
 62
0
100
AcDbPolyline
 90
5
 70
0
 10
232.2007340216078
 20
251.68738373881206
 10
237.1093130260706
 20
244.21804500557482
 10
243.0
 20
247.22044817286186
 10
243.0
 20
263.8149138323922
 10
232.2007340216078
 20
251.68738373881206
  0
LWPOLYLINE
  5
59
330
17
100
AcDbEntity
  8
0
 62
0
100
AcDbPolyline
 90
5
 70
0
 10
239.82895024865866
 20
211.8321554362774
 10
241.4473494705744
 20
201.6376254595816
 10
243.0
 20
201.60033323994537
 10
243.0
 20
213.860090264948
 10
239.82895024865866
 20
211.8321554362774
  0
LWPOLYLINE
  5
5A
330
17
100
AcDbEntity
  8
0
 62
0
100
AcDbPolyline
 90
6
 70
0
 10
237.8783106468618
 20
184.26878534490243
 10
243.0
 20
180.89269064660797
 10
243.0
 20
193.5980260341649
 10
239.4624134618789
 20
193.6829932895489
 10
238.38110964000225
 20
192.75208196835592
 10
237.8783106468618
 20
184.26878534490243
  0
LWPOLYLINE
  5
5B
330
17
100
AcDbEntity
  8
0
 62
0
100
AcDbPolyline
 90
6
 70
0
 10
241.61329279467463
 20
145.87542773783207
 10
243.0
 20
146.57008382495312
 10
243.0
 20
159.99153609717035
 10
236.2386692003347
 20
156.6045200205408
 10
235.8287588385865
 20
149.68845368968323
 10
241.61329279467463
 20
145.87542773783207
  0
LWPOLYLINE
  5
5C
330
17
100
AcDbEntity
  8
0
 62
0
100
AcDbPolyline
 90
7
 70
0
 10
240.3835617103614
 20
125.12722874479368
 10
233.14676542626694
 20
121.50203333841637
 10
234.32821327261627
 20
113.04298978438601
 10
238.68513078056276
 20
110.8549657324329
 10
243.0
 20
113.01645314475404
 10
243.0
 20
123.40253542015269
 10
240.3835617103614
 20
125.12722874479368
  0
LWPOLYLINE
  5
5D
330
17
100
AcDbEntity
  8
0
 62
0
100
AcDbPolyline
 90
7
 70
0
 10
241.08375211479142
 20
84.34166359622031
 10
229.8448010631837
 20
78.57049173256382
 10
229.55565791158006
 20
74.34023918583989
 10
234.37168379640207
 20
66.79196731140837
 10
243.0
 20
68.3340956052689
 10
243.0
 20
83.85179626911881
 10
241.08375211479142
 20
84.34166359622031
  0
LWPOLYLINE
  5
5E
330
17
100
AcDbEntity
  8
0
 62
0
100
AcDbPolyline
 90
6
 70
0
 10
239.47791829518974
 20
47.65243255905807
 10
243.0
 20
46.844132663244245
 10
243.0
 20
60.207324157731385
 10
236.00851214304566
 20
58.95774417184293
 10
235.41133680706844
 20
54.59091635234654
 10
239.47791829518974
 20
47.65243255905807
  0
LWPOLYLINE
  5
5F
330
17
100
AcDbEntity
  8
0
 62
0
100
AcDbPolyline
 90
6
 70
0
 10
241.3660680744797
 20
21.14213695935905
 10
243.0
 20
23.696365731931806
 10
243.0
 20
38.636164152131634
 10
238.77203967235982
 20
39.606459613423795
 10
230.72393160453066
 20
26.82781669870019
 10
241.3660680744797
 20
21.14213695935905
  0
LWPOLYLINE
  5
60
330
17
100
AcDbEntity
  8
0
 62
0
100
AcDbPolyline
 90
6
 70
0
 10
31.564345490187407
 20
25.988230514805764
 10
38.25063797738403
 20
21.083045203704387
 10
46.42590550798923
 20
22.401837536133826
 10
40.92971522640437
 20
36.66069206688553
 10
32.32033385196701
 20
32.87506444659084
 10
31.564345490187407
 20
25.988230514805764
  0
LWPOLYLINE
  5
61
330
17
100
AcDbEntity
  8
0
 62
0
100
AcDbPolyline
 90
6
 70
0
 10
12.439756731968373
 20
35.05741486791521
 10
10.92778000747785
 20
21.283747005276382
 10
23.612114641815424
 20
26.861170683521777
 10
24.368103003595024
 20
33.74800461484119
 10
18.78192404890433
 20
37.84612670727074
 10
12.439756731968373
 20
35.05741486791521
  0
LWPOLYLINE
  5
62
330
17
100
AcDbEntity
  8
0
 62
0
100
AcDbPolyline
 90
6
 70
0
 10
23.51402783486992
 20
44.29649055376649
 10
29.100206790026277
 20
40.19836846133694
 10
36.74458184186369
 20
43.55967353982851
 10
32.94023857405409
 20
54.789082950446755
 10
24.956639090087265
 20
57.43825918715447
 10
23.51402783486992
 20
44.29649055376649
  0
LWPOLYLINE
  5
63
330
17
100
AcDbEntity
  8
0
 62
0
100
AcDbPolyline
 90
7
 70
0
 10
26.462842464912683
 20
65.36739796539769
 10
35.63777571357787
 20
62.32290466595441
 10
43.60421239072457
 20
66.95650286134332
 10
43.570885197259486
 20
77.3345066732727
 10
34.363062747288495
 20
80.10722533008084
 10
31.15474162157625
 20
78.47238654317334
 10
26.462842464912683
 20
65.36739796539769
  0
LWPOLYLINE
  5
64
330
17
100
AcDbEntity
  8
0
 62
0
100
AcDbPolyline
 90
7
 70
0
 10
19.04900491796434
 20
99.45074693858624
 10
18.537333286833018
 20
92.54146389756352
 10
28.217225450556725
 20
85.95428263675421
 10
30.155518964398652
 20
86.9419635119848
 10
31.016234189737588
 20
98.56450567627326
 10
25.288455369416624
 20
102.46226782817394
 10
19.04900491796434
 20
99.45074693858624
  0
LWPOLYLINE
  5
65
330
17
100
AcDbEntity
  8
0
 62
0
100
AcDbPolyline
 90
7
 70
0
 10
30.300875055603683
 20
115.98542015627027
 10
29.789203424472362
 20
109.07613711524755
 10
35.516982244793326
 20
105.17837496334687
 10
45.56797857163474
 20
110.02956909220666
 10
45.82833874505013
 20
112.67643398651853
 10
36.54032550705597
 20
118.9969410453923
 10
30.300875055603683
 20
115.98542015627027
  0
LWPOLYLINE
  5
66
330
17
100
AcDbEntity
  8
0
 62
0
100
AcDbPolyline
 90
7
 70
0
 10
10.355492937378585
 20
117.4624889260158
 10
9.843821305781603
 20
110.55320588545874
 10
15.571600126102567
 20
106.65544373355806
 10
21.81105057755485
 20
109.66696462314576
 10
22.322722208686173
 20
116.57624766416848
 10
16.59494338883087
 20
120.47400981606916
 10
10.355492937378585
 20
117.4624889260158
  0
LWPOLYLINE
  5
67
330
17
100
AcDbEntity
  8
0
 62
0
100
AcDbPolyline
 90
8
 70
0
 10
28.410521338228136
 20
142.0789227830246
 10
21.73689060425386
 20
135.74621819378808
 10
21.095691443420947
 20
127.08787910314277
 10
26.82347026420757
 20
123.19011695124209
 10
33.062920715194196
 20
126.20163784036413
 10
34.21714101778343
 20
141.7874828898348
 10
33.513098482973874
 20
142.2367110894993
 10
28.410521338228136
 20
142.0789227830246
  0
LWPOLYLINE
  5
68
330
17
100
AcDbEntity
  8
0
 62
0
100
AcDbPolyline
 90
7
 70
0
 10
19.982526975218207
 20
159.08899884531274
 10
28.442886600270867
 20
150.08374769985676
 10
31.041839191690087
 20
150.16411578003317
 10
32.70385048119351
 20
164.72669146442786
 10
27.135353377088904
 20
168.84880742570385
 10
20.78124768519774
 20
166.08740545297042
 10
19.982526975218207
 20
159.08899884531274
  0
LWPOLYLINE
  5
69
330
17
100
AcDbEntity
  8
0
 62
0
100
AcDbPolyline
 90
7
 70
0
 10
32.680771484505385
 20
182.1622719638981
 10
31.89516289671883
 20
175.27875402988866
 10
37.46366000082344
 20
171.15663806861266
 10
43.81776569318026
 20
173.9180400413461
 10
44.60337428050116
 20
180.80155797535554
 10
39.03487717639655
 20
184.92367393663153
 10
32.680771484505385
 20
182.1622719638981
  0
LWPOLYLINE
  5
6A
330
17
100
AcDbEntity
  8
0
 62
0
100
AcDbPolyline
 90
7
 70
0
 10
12.80976682389155
 20
184.43012861162424
 10
12.024158236104995
 20
177.5466106776148
 10
17.592655340209603
 20
173.4244947163388
 10
23.946761032100767
 20
176.18589668907225
 10
24.732369619887322
 20
183.06941462308168
 10
19.163872515782714
 20
187.19153058435768
 10
12.80976682389155
 20
184.43012861162424
  0
LWPOLYLINE
  5
6B
330
17
100
AcDbEntity
  8
0
 62
0
100
AcDbPolyline
 90
7
 70
0
 10
24.555632136762142
 20
199.15863643493503
 10
23.92368203541264
 20
193.62147718854249
 10
29.492179139517248
 20
189.4993612272665
 10
35.84628483187407
 20
192.26076319999993
 10
36.857759289909154
 20
201.1233223453164
 10
34.711072218604386
 20
203.48396387510002
 10
24.555632136762142
 20
199.15863643493503
  0
LWPOLYLINE
  5
6C
330
17
100
AcDbEntity
  8
0
 62
0
100
AcDbPolyline
 90
6
 70
0
 10
15.170682657975703
 20
212.68699108622968
 10
21.67113690264523
 20
206.62547727068886
 10
31.75421803863719
 20
210.91998614137992
 10
31.746815796010196
 20
215.6250839540735
 10
24.273481355514377
 20
222.14339263131842
 10
15.170682657975703
 20
212.68699108622968
  0
LWPOLYLINE
  5
6D
330
17
100
AcDbEntity
  8
0
 62
0
100
AcDbPolyline
 90
7
 70
0
 10
27.59723920095712
 20
231.24939338769764
 10
27.802534597925842
 20
229.6807764498517
 10
36.31877314951271
 20
222.25283754384145
 10
44.737994293216616
 20
226.6272842674516
 10
45.04558357130736
 20
233.54865615721792
 10
36.7173283318989
 20
238.86345414770767
 10
27.59723920095712
 20
231.24939338769764
  0
LWPOLYLINE
  5
6E
330
17
100
AcDbEntity
  8
0
 62
0
100
AcDbPolyline
 90
7
 70
0
 10
12.325309116858989
 20
247.69816947961226
 10
13.300530133303255
 20
244.31079972116277
 10
23.062976719345897
 20
237.88541236007586
 10
32.50433186069131
 20
245.76768748648465
 10
32.83227074705064
 20
251.6373081849888
 10
26.846289172768593
 20
258.6070733568631
 10
12.325309116858989
 20
247.69816947961226
  0
LWPOLYLINE
  5
6F
330
17
100
AcDbEntity
  8
0
 62
0
100
AcDbPolyline
 90
7
 70
0
 10
31.29504198860377
 20
269.41639354405925
 10
31.39935235492885
 20
265.58437139261514
 10
38.16948755364865
 20
257.70157858217135
 10
51.69293998274952
 20
262.45043742563576
 10
46.871061463374645
 20
271.41389513015747
 10
33.590674257837236
 20
271.8131603663787
 10
31.29504198860377
 20
269.41639354405925
  0
LWPOLYLINE
  5
70
330
17
100
AcDbEntity
  8
0
 62
0
100
AcDbPolyline
 90
7
 70
0
 10
15.410352319013327
 20
280.44569650199264
 10
26.28482146700844
 20
275.7510544266552
 10
28.015979222021997
 20
277.5584786934778
 10
28.601382775232196
 20
288.70966164395213
 10
21.80054552387446
 20
293.59813188994303
 10
12.84804365830496
 20
289.5575658949092
 10
15.410352319013327
 20
280.44569650199264
  0
LWPOLYLINE
  5
71
330
17
100
AcDbEntity
  8
0
 62
0
100
AcDbPolyline
 90
6
 70
0
 10
36.14152317028493
 20
279.74008556455374
 10
47.11146705504507
 20
279.4102821359411
 10
50.75430839229375
 20
285.30347371613607
 10
45.90957654686645
 20
294.3094137907028
 10
36.59662002697587
 20
288.4090939448215
 10
36.14152317028493
 20
279.74008556455374
  0
LWPOLYLINE
  5
72
330
17
100
AcDbEntity
  8
0
 62
0
100
AcDbPolyline
 90
6
 70
0
 10
26.469865973107517
 20
300.09408805845305
 10
32.851613476872444
 20
295.50686127506196
 10
43.779454809613526
 20
302.43030808260664
 10
33.4738466469571
 20
309.8380223107524
 10
27.159024778287858
 20
306.98793024849147
 10
26.469865973107517
 20
300.09408805845305
  0
LWPOLYLINE
  5
73
330
17
100
AcDbEntity
  8
0
 62
0
100
AcDbPolyline
 90
7
 70
0
 10
18.931517680641264
 20
325.21725077787414
 10
18.242358875460923
 20
318.32340858737007
 10
23.868021939415485
 20
314.2796584600583
 10
30.182843808084726
 20
317.1297505223192
 10
30.872002613265067
 20
324.0235927128233
 10
25.246339549310505
 20
328.0673428401351
 10
18.931517680641264
 20
325.21725077787414
  0
LWPOLYLINE
  5
74
330
17
100
AcDbEntity
  8
0
 62
0
100
AcDbPolyline
 90
7
 70
0
 10
29.91565999854356
 20
334.5632990086451
 10
35.54132306249812
 20
330.5195488813333
 10
44.10148275597021
 20
334.383037623018
 10
41.14896638132632
 20
346.9179162797518
 10
38.626398127526045
 20
348.5984535110183
 10
31.242080420721322
 20
347.83184176078066
 10
29.91565999854356
 20
334.5632990086451
  0
LWPOLYLINE
  5
75
330
17
100
AcDbEntity
  8
0
 62
0
100
AcDbPolyline
 90
6
 70
0
 10
10.014851777348667
 20
336.55272911675274
 10
15.64051484176889
 20
332.50897898944095
 10
21.955336710438132
 20
335.3590710517019
 10
23.333654320798814
 20
349.1467554322444
 10
10.70401058299467
 20
343.44657130679116
 10
10.014851777348667
 20
336.55272911675274
  0
LWPOLYLINE
  5
76
330
17
100
AcDbEntity
  8
0
 62
0
100
AcDbPolyline
 90
7
 70
0
 10
27.095716348383576
 20
356.45733765373006
 10
28.515673407819122
 20
355.5917922328226
 10
36.50324145285413
 20
356.42103113699704
 10
39.85533294500783
 20
368.78318077279255
 10
34.97102882293984
 20
373.69679179182276
 10
21.935023590922356
 20
370.2455632467754
 10
27.095716348383576
 20
356.45733765373006
  0
LWPOLYLINE
  5
77
330
17
100
AcDbEntity
  8
0
 62
0
100
AcDbPolyline
 90
6
 70
0
 10
23.154991102870554
 20
391.2575791478157
 10
19.52867129072547
 20
377.8841052306816
 10
32.923599345609546
 20
381.43035711022094
 10
35.647429252043366
 20
391.47554619889706
 10
33.36898724688217
 20
393.9616924417205
 10
23.154991102870554
 20
391.2575791478157
  0
LWPOLYLINE
  5
78
330
17
100
AcDbEntity
  8
0
 62
0
100
AcDbPolyline
 90
6
 70
0
 10
14.700828909873962
 20
405.43631898472086
 10
21.107561625074595
 20
398.9911444662139
 10
30.888044864870608
 20
401.58048700913787
 10
31.150581458117813
 20
405.4288280522451
 10
21.21083254739642
 20
413.901972386986
 10
14.700828909873962
 20
405.43631898472086
  0
LWPOLYLINE
  5
79
330
17
100
AcDbEntity
  8
0
 62
0
100
AcDbPolyline
 90
6
 70
0
 10
25.638935262337327
 20
420.63946495577693
 10
35.35370788676664
 20
412.35810177819803
 10
41.250372763257474
 20
417.0964292231947
 10
40.05577255226672
 20
424.827368424274
 10
29.71534461621195
 20
425.207624763716
 10
25.638935262337327
 20
420.63946495577693
  0
LWPOLYLINE
  5
7A
330
17
100
AcDbEntity
  8
0
 62
0
100
AcDbPolyline
 90
7
 70
0
 10
83.60534185171127
 20
36.43580895056948
 10
84.55859811697155
 20
22.627048773691058
 10
91.4063293482177
 20
19.279641282279044
 10
100.17187999701127
 20
23.955793444998562
 10
100.76068301079795
 20
26.13498804299161
 10
99.89625612460077
 20
28.734652381390333
 10
83.60534185171127
 20
36.43580895056948
  0
LWPOLYLINE
  5
7B
330
17
100
AcDbEntity
  8
0
 62
0
100
AcDbPolyline
 90
8
 70
0
 10
68.02958144666627
 20
60.33994981460273
 10
61.63749252492562
 20
56.622055240906775
 10
61.660833647008985
 20
49.35368889430538
 10
70.63874480128288
 20
43.32441823463887
 10
77.70705419173464
 20
44.00576453981921
 10
77.86535031814128
 20
44.140187280252576
 10
79.96853771153837
 20
51.99997467221692
 10
68.02958144666627
 20
60.33994981460273
  0
LWPOLYLINE
  5
7C
330
17
100
AcDbEntity
  8
0
 62
0
100
AcDbPolyline
 90
6
 70
0
 10
40.92755942931399
 20
56.144843509886414
 10
44.56449518771842
 20
45.40957653755322
 10
53.65955455414951
 20
49.73914983263239
 10
53.637533775065094
 20
56.59636473469436
 10
47.62644039746374
 20
60.04118060786277
 10
40.92755942931399
 20
56.144843509886414
  0
LWPOLYLINE
  5
7D
330
17
100
AcDbEntity
  8
0
 62
0
100
AcDbPolyline
 90
6
 70
0
 10
82.80649591330439
 20
59.77611844521016
 10
86.4095274307765
 20
73.87710733851418
 10
80.05176816461608
 20
77.84864160511643
 10
72.61619442189112
 20
76.32529747206718
 10
72.2988322484307
 20
67.11626207409427
 10
82.80649591330439
 20
59.77611844521016
  0
LWPOLYLINE
  5
7E
330
17
100
AcDbEntity
  8
0
 62
0
100
AcDbPolyline
 90
7
 70
0
 10
51.56898439768702
 20
77.9392561991699
 10
51.604171140585095
 20
66.98219336755574
 10
57.61526451818645
 20
63.53737749438733
 10
64.30483659822494
 20
67.42830017069355
 10
64.65784083493054
 20
77.67157672066242
 10
58.9631882077083
 20
81.97009875904769
 10
51.56898439768702
 20
77.9392561991699
  0
LWPOLYLINE
  5
7F
330
17
100
AcDbEntity
  8
0
 62
0
100
AcDbPolyline
 90
7
 70
0
 10
63.5691757700406
 20
92.70925575029105
 10
63.398433783557266
 20
88.64547585789114
 10
69.69460202241316
 20
83.8929088958539
 10
77.49536438845098
 20
85.49107011361048
 10
80.37488164147362
 20
97.96694778976962
 10
76.89552556630224
 20
101.69862117897719
 10
63.5691757700406
 20
92.70925575029105
  0
LWPOLYLINE
  5
80
330
17
100
AcDbEntity
  8
0
 62
0
100
AcDbPolyline
 90
7
 70
0
 10
38.204337157309055
 20
87.305355171673
 10
47.11430125264451
 20
84.62232953682542
 10
55.412402039859444
 20
89.14591837441549
 10
55.596652368083596
 20
93.53120633261278
 10
48.24225862743333
 20
102.43723769113421
 10
38.9943870366551
 20
97.97367816837505
 10
38.204337157309055
 20
87.305355171673
  0
LWPOLYLINE
  5
81
330
17
100
AcDbEntity
  8
0
 62
0
100
AcDbPolyline
 90
7
 70
0
 10
53.86178250564262
 20
112.62391403596848
 10
53.47259876085445
 20
108.66740725329146
 10
60.430246484000236
 20
100.24182779854164
 10
73.52490789070725
 20
109.07490649959072
 10
73.60664522228763
 20
114.2003351347521
 10
63.12068320252001
 20
120.3364042355679
 10
53.86178250564262
 20
112.62391403596848
  0
LWPOLYLINE
  5
82
330
17
100
AcDbEntity
  8
0
 62
0
100
AcDbPolyline
 90
8
 70
0
 10
81.60858225263655
 20
114.2580131450668
 10
81.51633937330917
 20
108.47382266400382
 10
86.53393110260367
 20
103.09236324112862
 10
101.46195959951729
 20
102.68616946414113
 10
102.1150920772925
 20
105.16967478813604
 10
95.31318861152977
 20
118.43300914531574
 10
89.63917410513386
 20
119.38287608930841
 10
81.60858225263655
 20
114.2580131450668
  0
LWPOLYLINE
  5
83
330
17
100
AcDbEntity
  8
0
 62
0
100
AcDbPolyline
 90
6
 70
0
 10
49.79865149082616
 20
119.6512653036043
 10
57.17653215769678
 20
125.79690118413419
 10
44.892659415025264
 20
140.09419277170673
 10
42.10661389864981
 20
139.9991784351878
 10
41.041073562111706
 20
125.61081033246592
 10
49.79865149082616
 20
119.6512653036043
  0
LWPOLYLINE
  5
84
330
17
100
AcDbEntity
  8
0
 62
0
100
AcDbPolyline
 90
6
 70
0
 10
68.03023297572508
 20
126.73252466274425
 10
77.55298713129014
 20
121.16009578900412
 10
84.31540866056457
 20
125.47565361391753
 10
81.95936481188983
 20
137.04204518068582
 10
75.41934017511085
 20
139.22859547985718
 10
68.03023297572508
 20
126.73252466274425
  0
LWPOLYLINE
  5
85
330
17
100
AcDbEntity
  8
0
 62
0
100
AcDbPolyline
 90
5
 70
0
 10
62.07244319655001
 20
132.37448862800375
 10
68.91250209789723
 20
143.94203773979098
 10
56.3693449893035
 20
147.1530416388996
 10
52.32869243901223
 20
143.7153131919913
 10
62.07244319655001
 20
132.37448862800375
  0
LWPOLYLINE
  5
86
330
17
100
AcDbEntity
  8
0
 62
0
100
AcDbPolyline
 90
7
 70
0
 10
76.49216973269358
 20
147.30518692312762
 10
84.4960165368393
 20
144.629231617786
 10
89.68385342881083
 20
149.22121902834624
 10
88.0501443692483
 20
157.2414936516434
 10
79.3688006522134
 20
155.90806575864553
 10
76.39887021947652
 20
147.49885956244543
 10
76.49216973269358
 20
147.30518692312762
  0
LWPOLYLINE
  5
87
330
17
100
AcDbEntity
  8
0
 62
0
100
AcDbPolyline
 90
8
 70
0
 10
47.00635803770274
 20
166.5809507779777
 10
40.652252345811576
 20
163.8195488047786
 10
38.88117294758558
 20
148.30131620168686
 10
39.48739485954866
 20
147.91450437624007
 10
45.145395228173584
 20
148.10746287181973
 10
51.559780224226415
 20
153.56472837366164
 10
52.57485514180735
 20
162.4588348167017
 10
47.00635803770274
 20
166.5809507779777
  0
LWPOLYLINE
  5
88
330
17
100
AcDbEntity
  8
0
 62
0
100
AcDbPolyline
 90
6
 70
0
 10
59.72440502792597
 20
154.5521353711374
 10
69.52000473812222
 20
152.04449645755813
 10
71.86943181231618
 20
158.69677911465988
 10
67.13956151157618
 20
164.42704192269593
 10
60.52325700642541
 20
161.55169215705246
 10
59.72440502792597
 20
154.5521353711374
  0
LWPOLYLINE
  5
89
330
17
100
AcDbEntity
  8
0
 62
0
100
AcDbPolyline
 90
6
 70
0
 10
72.74421050911769
 20
170.20422649383545
 10
78.03308886336163
 20
163.7967224814929
 10
86.85706849116832
 20
165.15205881465226
 10
80.92771076504141
 20
178.75812099548057
 10
74.37913944665343
 20
175.75990612106398
 10
72.74421050911769
 20
170.20422649383545
  0
LWPOLYLINE
  5
8A
330
17
100
AcDbEntity
  8
0
 62
0
100
AcDbPolyline
 90
7
 70
0
 10
52.55177614511922
 20
179.89441531617194
 10
51.766167557798326
 20
173.0108973821625
 10
57.334664661902934
 20
168.88878142088652
 10
64.99794533941895
 20
172.21913181245327
 10
66.43014964088798
 20
177.08592943055555
 10
58.905881837476045
 20
182.65581728890538
 10
52.55177614511922
 20
179.89441531617194
  0
LWPOLYLINE
  5
8B
330
17
100
AcDbEntity
  8
0
 62
0
100
AcDbPolyline
 90
6
 70
0
 10
63.66569135710597
 20
189.0857638930902
 10
71.5384236657992
 20
183.25792293343693
 10
79.0934790908359
 20
186.71694910153747
 10
77.1415860010311
 20
198.54560204502195
 10
64.60706761712208
 20
197.33412124589086
 10
63.66569135710597
 20
189.0857638930902
  0
LWPOLYLINE
  5
8C
330
17
100
AcDbEntity
  8
0
 62
0
100
AcDbPolyline
 90
7
 70
0
 10
44.64963734522462
 20
198.84471498150378
 10
43.794686696492136
 20
191.35362054081634
 10
49.363183800596744
 20
187.23150457954034
 10
55.71728949248791
 20
189.99290655227378
 10
56.80964098405093
 20
199.56411186233163
 10
56.2647315626964
 20
200.11974246287718
 10
44.64963734522462
 20
198.84471498150378
  0
LWPOLYLINE
  5
8D
330
17
100
AcDbEntity
  8
0
 62
0
100
AcDbPolyline
 90
8
 70
0
 10
62.25886203395203
 20
215.44608604721725
 10
61.83317542076111
 20
205.8672887054272
 10
62.51755323028192
 20
205.16944565391168
 10
78.11703688371927
 20
206.6771601382643
 10
79.60169148817658
 20
209.0852486421354
 10
78.96119935251772
 20
211.9049094868824
 10
68.40674055786803
 20
218.64039186388254
 10
62.25886203395203
 20
215.44608604721725
  0
LWPOLYLINE
  5
8E
330
17
100
AcDbEntity
  8
0
 62
0
100
AcDbPolyline
 90
7
 70
0
 10
39.74777910346165
 20
215.0190686909482
 10
39.75594720710069
 20
209.8271655063145
 10
42.626357508357614
 20
206.67066922225058
 10
53.916057591326535
 20
207.90997710824013
 10
54.266750186216086
 20
215.8012595521286
 10
48.426460939925164
 20
219.52832562522963
 10
39.74777910346165
 20
215.0190686909482
  0
LWPOLYLINE
  5
8F
330
17
100
AcDbEntity
  8
0
 62
0
100
AcDbPolyline
 90
7
 70
0
 10
73.01797503745183
 20
232.30554889095947
 10
72.71038575982675
 20
225.38417700119317
 10
81.14110170165077
 20
220.00399221340194
 10
87.8094837879762
 20
231.43047958472744
 10
86.5399602940306
 20
235.45857217675075
 10
82.95785556873307
 20
237.47009761584923
 10
73.01797503745183
 20
232.30554889095947
  0
LWPOLYLINE
  5
90
330
17
100
AcDbEntity
  8
0
 62
0
100
AcDbPolyline
 90
7
 70
0
 10
52.73010614095256
 20
226.27211076254025
 10
58.57039538724348
 20
222.54504468943924
 10
64.71827391209081
 20
225.73935050610453
 10
65.02586318971589
 20
232.66072239587083
 10
59.18557394389063
 20
236.38778846897185
 10
53.0376954190433
 20
233.19348265230656
 10
52.73010614095256
 20
226.27211076254025
  0
LWPOLYLINE
  5
91
330
17
100
AcDbEntity
  8
0
 62
0
100
AcDbPolyline
 90
6
 70
0
 10
63.489219144918025
 20
243.13157360628247
 10
69.32950839120895
 20
239.40450753318146
 10
78.31636052252725
 20
244.07388314278796
 10
76.78494582837448
 20
249.63643679814413
 10
64.03475510841236
 20
255.40722023695707
 10
63.489219144918025
 20
243.13157360628247
  0
LWPOLYLINE
  5
92
330
17
100
AcDbEntity
  8
0
 62
0
100
AcDbPolyline
 90
6
 70
0
 10
40.52550944965333
 20
245.92342694289982
 10
49.349228772800416
 20
240.29244129452854
 10
55.49710729718208
 20
243.48674711119384
 10
56.030750376172364
 20
255.49478012695909
 10
40.76067726081237
 20
250.13258270500228
 10
40.52550944965333
 20
245.92342694289982
  0
LWPOLYLINE
  5
93
330
17
100
AcDbEntity
  8
0
 62
0
100
AcDbPolyline
 90
7
 70
0
 10
86.44526014383882
 20
244.6868012016639
 10
89.55279870796949
 20
242.94176766555756
 10
98.71710628829896
 20
249.88281140197068
 10
97.8559374269098
 20
256.7572850678116
 10
91.1435408233665
 20
259.587153530214
 10
84.55059430329129
 20
251.56879106163979
 10
86.44526014383882
 20
244.6868012016639
  0
LWPOLYLINE
  5
94
330
17
100
AcDbEntity
  8
0
 62
0
100
AcDbPolyline
 90
6
 70
0
 10
69.18022169778123
 20
261.85961618460715
 10
79.0004516793415
 20
257.4149438040331
 10
85.51459795515984
 20
265.33746916567907
 10
84.06074240198359
 20
270.2958142706193
 10
74.57135860668495
 20
270.581105730962
 10
69.18022169778123
 20
261.85961618460715
  0
LWPOLYLINE
  5
95
330
17
100
AcDbEntity
  8
0
 62
0
100
AcDbPolyline
 90
8
 70
0
 10
57.559179882053286
 20
281.09708286309615
 10
53.916338545270264
 20
275.20389128290117
 10
60.26833872916177
 20
263.3960689245723
 10
60.375913850497454
 20
263.3527606925927
 10
60.77358901547268
 20
263.47476446116343
 10
67.76648711692542
 20
274.78749658400193
 10
64.48425416788086
 20
280.8888855134137
 10
57.559179882053286
 20
281.09708286309615
  0
LWPOLYLINE
  5
96
330
17
100
AcDbEntity
  8
0
 62
0
100
AcDbPolyline
 90
7
 70
0
 10
74.81176419835538
 20
278.5774927367456
 10
84.90185621893033
 20
278.2741414178163
 10
86.88565642153844
 20
281.4630059124902
 10
82.09744687192142
 20
290.3638758966699
 10
75.1723725865595
 20
290.5720732463524
 10
71.52953124931082
 20
284.6788816661574
 10
74.81176419835538
 20
278.5774927367456
  0
LWPOLYLINE
  5
97
330
17
100
AcDbEntity
  8
0
 62
0
100
AcDbPolyline
 90
7
 70
0
 10
51.681633058935404
 20
300.46621754253283
 10
57.79958547372371
 20
289.09346986887977
 10
64.72465975955129
 20
288.8852725191973
 10
68.36750109633431
 20
294.7784640993923
 10
65.08526814728975
 20
300.87985302880406
 10
51.906506351195276
 20
301.27606297051534
 10
51.681633058935404
 20
300.46621754253283
  0
LWPOLYLINE
  5
98
330
17
100
AcDbEntity
  8
0
 62
0
100
AcDbPolyline
 90
6
 70
0
 10
75.41277817822993
 20
298.568460252136
 10
82.33785246359184
 20
298.36026290245354
 10
89.62353513715789
 20
310.1466460619122
 10
75.7733865659684
 20
310.56304076174274
 10
72.13054522918537
 20
304.66984918154776
 10
75.41277817822993
 20
298.568460252136
  0
LWPOLYLINE
  5
99
330
17
100
AcDbEntity
  8
0
 62
0
100
AcDbPolyline
 90
6
 70
0
 10
65.32567373896018
 20
308.8762400345877
 10
68.96851507620886
 20
314.76943161478266
 10
63.34074286092073
 20
325.23097643069923
 10
59.15013892715797
 20
324.5498368209228
 10
55.47187562054023
 20
309.1724873483181
 10
65.32567373896018
 20
308.8762400345877
  0
LWPOLYLINE
  5
9A
330
17
100
AcDbEntity
  8
0
 62
0
100
AcDbPolyline
 90
6
 70
0
 10
38.143167096190155
 20
316.3339784797281
 10
47.37237052433193
 20
309.6999884741381
 10
51.28773884521797
 20
326.0685792900622
 10
48.54940101876855
 20
327.61346435686573
 10
38.832325901370496
 20
323.2278206697665
 10
38.143167096190155
 20
316.3339784797281
  0
LWPOLYLINE
  5
9B
330
17
100
AcDbEntity
  8
0
 62
0
100
AcDbPolyline
 90
6
 70
0
 10
76.01379215763882
 20
318.55942776752636
 10
88.84081796882674
 20
318.17379251355305
 10
89.08897591056302
 20
321.32028828188777
 10
74.83908990677446
 20
334.7497689574957
 10
70.3005343535915
 20
329.1798829450272
 10
76.01379215763882
 20
318.55942776752636
  0
LWPOLYLINE
  5
9C
330
17
100
AcDbEntity
  8
0
 62
0
100
AcDbPolyline
 90
5
 70
0
 10
98.23101576650515
 20
334.65544647956267
 10
95.76951392227784
 20
344.10329303564504
 10
81.21746430592611
 20
339.73146843072027
 10
92.9590148278512
 20
328.6659114295617
 10
98.23101576650515
 20
334.65544647956267
  0
LWPOLYLINE
  5
9D
330
17
100
AcDbEntity
  8
0
 62
0
100
AcDbPolyline
 90
7
 70
0
 10
49.46615253807977
 20
346.50076411664486
 10
52.242104278411716
 20
334.7154888450168
 10
56.6228067711927
 20
332.24403269495815
 10
63.371582824736834
 20
333.3409768966958
 10
70.3127524764277
 20
341.8594412631355
 10
66.02700306521729
 20
350.88518089428544
 10
49.46615253807977
 20
346.50076411664486
  0
LWPOLYLINE
  5
9E
330
17
100
AcDbEntity
  8
0
 62
0
100
AcDbPolyline
 90
7
 70
0
 10
74.3358710994944
 20
366.31175957247615
 10
72.38976267818362
 20
356.13607342820615
 10
76.83764635864645
 20
346.76888086507097
 10
95.82740668114275
 20
352.47391236247495
 10
96.25648833997548
 20
353.29653317295015
 10
80.66534977266565
 20
367.9777483996004
 10
74.3358710994944
 20
366.31175957247615
  0
LWPOLYLINE
  5
9F
330
17
100
AcDbEntity
  8
0
 62
0
100
AcDbPolyline
 90
7
 70
0
 10
44.25988312251866
 20
354.4581577559002
 10
45.39863582793623
 20
353.69951968314126
 10
64.75904943142086
 20
358.82510922290385
 10
66.52439558086917
 20
368.05563725950196
 10
63.35519207594916
 20
370.8668645112775
 10
47.57651171134785
 20
366.6895240531303
 10
44.25988312251866
 20
354.4581577559002
  0
LWPOLYLINE
  5
A0
330
17
100
AcDbEntity
  8
0
 62
0
100
AcDbPolyline
 90
7
 70
0
 10
43.14505199342966
 20
388.5574391214177
 10
40.64477811194956
 20
379.3367003905587
 10
45.52908223401755
 20
374.4230893715285
 10
59.52037956099957
 20
378.1272275527008
 10
57.28278721217066
 20
386.631672069896
 10
54.55943019269034
 20
388.5687910602428
 10
43.14505199342966
 20
388.5574391214177
  0
LWPOLYLINE
  5
A1
330
17
100
AcDbEntity
  8
0
 62
0
100
AcDbPolyline
 90
7
 70
0
 10
65.31167344655842
 20
387.55670857289806
 10
67.96519738063216
 20
377.4714278085157
 10
71.93302580574527
 20
373.9517840305343
 10
79.53530162805691
 20
375.95278715202585
 10
81.06758068921044
 20
377.79628495220095
 10
80.42668826971203
 20
399.68317840853706
 10
65.31167344655842
 20
387.55670857289806
  0
LWPOLYLINE
  5
A2
330
17
100
AcDbEntity
  8
0
 62
0
100
AcDbPolyline
 90
7
 70
0
 10
39.149862619582564
 20
405.14572497969493
 10
38.791039587929845
 20
399.88598811486736
 10
41.84268949506804
 20
396.55614783987403
 10
51.752405599690974
 20
396.56600334728137
 10
51.50114886555821
 20
408.8262985944748
 10
46.26146051986143
 20
410.8603247096762
 10
39.149862619582564
 20
405.14572497969493
  0
LWPOLYLINE
  5
A3
330
17
100
AcDbEntity
  8
0
 62
0
100
AcDbPolyline
 90
6
 70
0
 10
101.45102625200525
 20
36.84851994458586
 10
105.8844128800556
 20
44.96202354412526
 10
102.28023509914055
 20
50.87894018460065
 10
87.85929465387017
 20
50.53987442702055
 10
86.1332848649472
 20
44.08963132323697
 10
101.45102625200525
 20
36.84851994458586
  0
LWPOLYLINE
  5
A4
330
17
100
AcDbEntity
  8
0
 62
0
100
AcDbPolyline
 90
7
 70
0
 10
113.50711478758603
 20
63.08323025936261
 10
109.11250192858279
 20
55.04068620875478
 10
112.71667970949784
 20
49.123769568279386
 10
126.56790908798575
 20
49.44944025576115
 10
126.88130411785096
 20
50.61302934959531
 10
120.15632245829329
 20
65.30269102565944
 10
113.50711478758603
 20
63.08323025936261
  0
LWPOLYLINE
  5
A5
330
17
100
AcDbEntity
  8
0
 62
0
100
AcDbPolyline
 90
6
 70
0
 10
128.07736741472036
 20
67.21932698320597
 10
133.07274154992774
 20
56.30772012565285
 10
143.45604922575876
 20
61.19808579329401
 10
144.03341762628406
 20
68.10218933597207
 10
138.34297276800498
 20
72.05425680987537
 10
128.07736741472036
 20
67.21932698320597
  0
LWPOLYLINE
  5
A6
330
17
100
AcDbEntity
  8
0
 62
0
100
AcDbPolyline
 90
6
 70
0
 10
90.76566637121141
 20
58.610420119948685
 10
102.09219073317945
 20
58.876729836687446
 10
105.53918378986418
 20
65.18504285253584
 10
94.96459538629279
 20
72.73255408229306
 10
94.32496793521568
 20
72.54026546655223
 10
90.76566637121141
 20
58.610420119948685
  0
LWPOLYLINE
  5
A7
330
17
100
AcDbEntity
  8
0
 62
0
100
AcDbPolyline
 90
6
 70
0
 10
101.05370275210589
 20
78.21520597673953
 10
111.41607694560662
 20
70.81916060717776
 10
116.5417031897232
 20
72.53006014833227
 10
113.51519287237898
 20
85.89228356117383
 10
107.71243769442663
 20
89.05635193921626
 10
101.05370275210589
 20
78.21520597673953
  0
LWPOLYLINE
  5
A8
330
17
100
AcDbEntity
  8
0
 62
0
100
AcDbPolyline
 90
6
 70
0
 10
121.62797313230112
 20
86.2890112772584
 10
124.3427149374038
 20
74.30326442560181
 10
134.93425513012335
 20
79.29170415457338
 10
135.5116235311143
 20
86.19580769725144
 10
129.82117867283523
 20
90.14787517068908
 10
121.62797313230112
 20
86.2890112772584
  0
LWPOLYLINE
  5
A9
330
17
100
AcDbEntity
  8
0
 62
0
100
AcDbPolyline
 90
6
 70
0
 10
91.5919996141456
 20
80.07234977185726
 10
93.08075855486095
 20
80.51990935578942
 10
101.77476372849196
 20
94.67469700006768
 10
87.91238985164091
 20
95.0518941632472
 10
85.3543491885066
 20
83.96885502943769
 10
91.5919996141456
 20
80.07234977185726
  0
LWPOLYLINE
  5
AA
330
17
100
AcDbEntity
  8
0
 62
0
100
AcDbPolyline
 90
8
 70
0
 10
109.76646787626669
 20
102.80968108400702
 10
108.7375025912188
 20
98.89708930347115
 10
109.43811278650537
 20
97.22738738916814
 10
117.14947802852839
 20
93.02261118171737
 10
126.4124610349536
 20
97.38532251538709
 10
126.9898294354789
 20
104.28942605853081
 10
121.29938457813114
 20
108.2414935324341
 10
109.76646787626669
 20
102.80968108400702
  0
LWPOLYLINE
  5
AB
330
17
100
AcDbEntity
  8
0
 62
0
100
AcDbPolyline
 90
7
 70
0
 10
126.44020741805434
 20
121.71635681623593
 10
125.86283901752904
 20
114.81225327309221
 10
131.5532838748768
 20
110.86018579918891
 10
137.82109713414684
 20
113.81222186842933
 10
138.3984655351378
 20
120.71632541110739
 10
132.70802067685872
 20
124.66839288501069
 10
126.44020741805434
 20
121.71635681623593
  0
LWPOLYLINE
  5
AC
330
17
100
AcDbEntity
  8
0
 62
0
100
AcDbPolyline
 90
6
 70
0
 10
108.16734106978402
 20
110.89941569138318
 10
117.89066693978384
 20
115.47894087666646
 10
118.46803534030914
 20
122.38304441934451
 10
110.29100212734193
 20
128.06207089265808
 10
102.89539369707927
 20
121.17942055640742
 10
108.16734106978402
 20
110.89941569138318
  0
LWPOLYLINE
  5
AD
330
17
100
AcDbEntity
  8
0
 62
0
100
AcDbPolyline
 90
7
 70
0
 10
89.79838687181473
 20
138.63883356563747
 10
92.15428543044254
 20
127.0731552625075
 10
96.6727143516764
 20
126.31674086395651
 10
105.96258234512061
 20
134.962265254464
 10
106.0604953491129
 20
139.52831934997812
 10
94.9862237633206
 20
143.23082097573206
 10
89.79838687181473
 20
138.63883356563747
  0
LWPOLYLINE
  5
AE
330
17
100
AcDbEntity
  8
0
 62
0
100
AcDbPolyline
 90
8
 70
0
 10
120.98849023599178
 20
148.14680589688942
 10
114.0890107024461
 20
140.7723333737813
 10
113.97052147099748
 20
135.2467318722047
 10
123.0314897801727
 20
128.95380416093394
 10
129.2993030389771
 20
131.9058402297087
 10
130.1885820487514
 20
142.53973420802504
 10
122.34642350440845
 20
148.57288490515202
 10
120.98849023599178
 20
148.14680589688942
  0
LWPOLYLINE
  5
AF
330
17
100
AcDbEntity
  8
0
 62
0
100
AcDbPolyline
 90
6
 70
0
 10
108.95596875809133
 20
146.99553962424397
 10
113.11196914082393
 20
151.43765884218737
 10
101.43961007008329
 20
162.1919586258009
 10
95.6171589163132
 20
160.17363299010321
 10
97.52287548827007
 20
150.81800741283223
 10
108.95596875809133
 20
146.99553962424397
  0
LWPOLYLINE
  5
B0
330
17
100
AcDbEntity
  8
0
 62
0
100
AcDbPolyline
 90
7
 70
0
 10
130.8949291682802
 20
161.6766135324724
 10
127.97038414143026
 20
154.3397508719936
 10
135.42328977864236
 20
148.60606127791107
 10
141.28340244991705
 20
149.55892849899828
 10
146.25044014351442
 20
161.40538810752332
 10
141.14921779651195
 20
166.23189768288285
 10
130.8949291682802
 20
161.6766135324724
  0
LWPOLYLINE
  5
B1
330
17
100
AcDbEntity
  8
0
 62
0
100
AcDbPolyline
 90
7
 70
0
 10
109.76504377834499
 20
173.04891848936677
 10
107.25759410532191
 20
167.70945927174762
 10
119.7960222363472
 20
156.1572088552639
 10
120.12368240160868
 20
156.260018854402
 10
123.26958433911204
 20
164.15220387792215
 10
116.66849237540737
 20
173.63406587857753
 10
109.76504377834499
 20
173.04891848936677
  0
LWPOLYLINE
  5
B2
330
17
100
AcDbEntity
  8
0
 62
0
100
AcDbPolyline
 90
6
 70
0
 10
88.55240442231297
 20
181.2867594701238
 10
94.2673345990479
 20
168.1727429209277
 10
99.48656804766506
 20
169.98196594277397
 10
102.5237601781264
 20
176.44947900576517
 10
98.5652833757922
 20
182.13546716980636
 10
88.55240442231297
 20
181.2867594701238
  0
LWPOLYLINE
  5
B3
330
17
100
AcDbEntity
  8
0
 62
0
100
AcDbPolyline
 90
7
 70
0
 10
126.17907776404172
 20
184.47605672758073
 10
123.2341059697792
 20
178.2049211738631
 10
129.17763557936996
 20
169.6675870679319
 10
138.42675059381872
 20
173.77634083479643
 10
138.96893661981449
 20
176.60591670917347
 10
133.08252636063844
 20
185.0612041167915
 10
126.17907776404172
 20
184.47605672758073
  0
LWPOLYLINE
  5
B4
330
17
100
AcDbEntity
  8
0
 62
0
100
AcDbPolyline
 90
7
 70
0
 10
108.07586876442656
 20
192.97745801880956
 10
105.13089697016403
 20
186.7063224655576
 10
109.08937377296388
 20
181.0203343015164
 10
115.9928223695606
 20
181.60548169072717
 10
118.93779416382313
 20
187.87661724397913
 10
114.97931736102328
 20
193.56260540802032
 10
108.07586876442656
 20
192.97745801880956
  0
LWPOLYLINE
  5
B5
330
17
100
AcDbEntity
  8
0
 62
0
100
AcDbPolyline
 90
7
 70
0
 10
85.92587660020217
 20
204.0991809363477
 10
84.66959810676053
 20
202.061515213456
 10
86.79742432292551
 20
189.16669122548774
 10
97.88961336994544
 20
190.106882981956
 10
100.83458516420797
 20
196.37801853567362
 10
96.33488561585546
 20
202.8414234383963
 10
85.92587660020217
 20
204.0991809363477
  0
LWPOLYLINE
  5
B6
330
17
100
AcDbEntity
  8
0
 62
0
100
AcDbPolyline
 90
7
 70
0
 10
121.54493095586076
 20
198.1334607033059
 10
125.50340775866061
 20
192.44747253973037
 10
132.406856355723
 20
193.03261992894113
 10
135.35182814998552
 20
199.30375548172742
 10
131.39335134718567
 20
204.9897436457686
 10
124.48990275058895
 20
204.4045962570235
 10
121.54493095586076
 20
198.1334607033059
  0
LWPOLYLINE
  5
B7
330
17
100
AcDbEntity
  8
0
 62
0
100
AcDbPolyline
 90
6
 70
0
 10
103.58470650296658
 20
206.42947783181444
 10
107.40019875857979
 20
200.9488738309592
 10
114.30364735564217
 20
201.53402122016996
 10
117.24861915037036
 20
207.80515677388757
 10
111.40840465016663
 20
216.194088218268
 10
103.58470650296658
 20
206.42947783181444
  0
LWPOLYLINE
  5
B8
330
17
100
AcDbEntity
  8
0
 62
0
100
AcDbPolyline
 90
6
 70
0
 10
87.14100077655166
 20
212.01054451614618
 10
96.86394462082535
 20
210.83568670786917
 10
105.11871366621926
 20
221.1383085679263
 10
93.84055835427716
 20
225.89304788270965
 10
86.74815446790308
 20
213.7399855069816
 10
87.14100077655166
 20
212.01054451614618
  0
LWPOLYLINE
  5
B9
330
17
100
AcDbEntity
  8
0
 62
0
100
AcDbPolyline
 90
7
 70
0
 10
116.68109752098098
 20
222.62210531998426
 10
123.81423274474218
 20
212.37601206917316
 10
130.71768134227023
 20
212.96115945791826
 10
133.6626531360671
 20
219.23229501163587
 10
129.41687641711906
 20
225.33096310403198
 10
117.7073071138002
 20
223.89749999111518
 10
116.68109752098098
 20
222.62210531998426
  0
LWPOLYLINE
  5
BA
330
17
100
AcDbEntity
  8
0
 62
0
100
AcDbPolyline
 90
7
 70
0
 10
94.54148397454992
 20
236.68456608615816
 10
95.41565576661378
 20
233.91089160414413
 10
110.40984649723396
 20
227.58951490791515
 10
111.42924774624407
 20
228.85644802683964
 10
109.93130763433874
 20
240.8140910854563
 10
103.54725437099114
 20
243.50553380837664
 10
94.54148397454992
 20
236.68456608615816
  0
LWPOLYLINE
  5
BB
330
17
100
AcDbEntity
  8
0
 62
0
100
AcDbPolyline
 90
6
 70
0
 10
117.86926607787609
 20
241.80848323274404
 10
119.08225335460156
 20
232.1255401209928
 10
128.65966501180083
 20
233.29798856703565
 10
134.1589555395767
 20
244.80401038983837
 10
126.63837876357138
 20
248.45020647766069
 10
117.86926607787609
 20
241.80848323274404
  0
LWPOLYLINE
  5
BC
330
17
100
AcDbEntity
  8
0
 62
0
100
AcDbPolyline
 90
7
 70
0
 10
106.65506473183632
 20
250.8772035492584
 10
113.03911799518391
 20
248.18576082633808
 10
121.44749688822776
 20
254.55426440760493
 10
120.18672098126262
 20
258.1952441567555
 10
111.31678027333692
 20
261.93470815895125
 10
105.79389587044716
 20
257.75167721509933
 10
106.65506473183632
 20
250.8772035492584
  0
LWPOLYLINE
  5
BD
330
17
100
AcDbEntity
  8
0
 62
0
100
AcDbPolyline
 90
6
 70
0
 10
129.41471972083673
 20
255.9948133341968
 10
138.67118171835318
 20
251.5070092030801
 10
142.72600099770352
 20
264.87526922812685
 10
135.42129127914086
 20
272.6740021845326
 10
127.79483731975779
 20
260.672852458898
 10
129.41471972083673
 20
255.9948133341968
  0
LWPOLYLINE
  5
BE
330
17
100
AcDbEntity
  8
0
 62
0
100
AcDbPolyline
 90
7
 70
0
 10
91.4245718321763
 20
273.6141365156509
 10
93.25253243837506
 20
267.37991365557536
 10
100.96374778775498
 20
264.1289548086934
 10
106.48663219064474
 20
268.3119857525453
 10
105.06742712110281
 20
279.6411086670123
 10
93.95857756212354
 20
277.6874302341603
 10
91.4245718321763
 20
273.6141365156509
  0
LWPOLYLINE
  5
BF
330
17
100
AcDbEntity
  8
0
 62
0
100
AcDbPolyline
 90
8
 70
0
 10
112.70290397107601
 20
283.050128006842
 10
114.4245906341821
 20
269.306377899833
 10
121.82100323308259
 20
266.18813623674214
 10
130.67884618416429
 20
280.12702580029145
 10
130.4938585483469
 20
281.75295218266547
 10
126.06009766412899
 20
286.7899461821653
 10
116.24931167950854
 20
287.1900365543552
 10
112.70290397107601
 20
283.050128006842
  0
LWPOLYLINE
  5
C0
330
17
100
AcDbEntity
  8
0
 62
0
100
AcDbPolyline
 90
7
 70
0
 10
96.34112912369892
 20
305.7990623866208
 10
89.14272395381704
 20
294.1538720494136
 10
93.65948363952339
 20
285.75760402996093
 10
106.40900574158877
 20
287.99982238328084
 10
109.59514735406265
 20
291.71917333779857
 10
102.92296232003719
 20
303.2919000675902
 10
96.34112912369892
 20
305.7990623866208
  0
LWPOLYLINE
  5
C1
330
17
100
AcDbEntity
  8
0
 62
0
100
AcDbPolyline
 90
7
 70
0
 10
110.63367734476924
 20
305.93465719232336
 10
116.83844064781442
 20
295.1726609701291
 10
125.48876269115135
 20
294.81989508867264
 10
129.35831278329715
 20
302.7143272035755
 10
126.14643495157361
 20
313.56235305266455
 10
119.40985785471275
 20
315.1805400084704
 10
110.63367734476924
 20
305.93465719232336
  0
LWPOLYLINE
  5
C2
330
17
100
AcDbEntity
  8
0
 62
0
100
AcDbPolyline
 90
8
 70
0
 10
96.62230956740677
 20
315.0882522696629
 10
97.33170318417251
 20
313.98248365940526
 10
104.61071299854666
 20
311.2097517196089
 10
113.60754143306985
 20
320.6880915649235
 10
111.64064389746636
 20
327.33123194333166
 10
104.04730279324576
 20
329.1552213896066
 10
97.11016061576083
 20
321.2739147087559
 10
96.62230956740677
 20
315.0882522696629
  0
LWPOLYLINE
  5
C3
330
17
100
AcDbEntity
  8
0
 62
0
100
AcDbPolyline
 90
7
 70
0
 10
119.31148166861385
 20
329.60240958677605
 10
121.27837920421734
 20
322.9592692088336
 10
128.0149563010782
 20
321.3410822530277
 10
132.78463586093858
 20
326.36603567469865
 10
129.07429499737918
 20
338.8976062098518
 10
128.2326662512496
 20
339.00105711165816
 10
119.31148166861385
 20
329.60240958677605
  0
LWPOLYLINE
  5
C4
330
17
100
AcDbEntity
  8
0
 62
0
100
AcDbPolyline
 90
7
 70
0
 10
102.85323657514527
 20
348.6452238126658
 10
105.90368211176246
 20
336.9368672161363
 10
113.50916524697095
 20
335.1099611436948
 10
121.27208057465032
 20
343.28834869433194
 10
111.35584844881669
 20
354.29778889380395
 10
104.1076431106776
 20
351.05012949649245
 10
102.85323657514527
 20
348.6452238126658
  0
LWPOLYLINE
  5
C5
330
17
100
AcDbEntity
  8
0
 62
0
100
AcDbPolyline
 90
8
 70
0
 10
116.99469903390855
 20
359.99091063952073
 10
128.69123396463692
 20
347.0048993974924
 10
131.23649675119668
 20
346.69204205833375
 10
132.38436867436394
 20
347.41683647269383
 10
136.56062447605655
 20
359.46768836304545
 10
127.04546805750579
 20
370.45767135964707
 10
119.02380882343277
 20
365.24909758381546
 10
116.99469903390855
 20
359.99091063952073
  0
LWPOLYLINE
  5
C6
330
17
100
AcDbEntity
  8
0
 62
0
100
AcDbPolyline
 90
7
 70
0
 10
87.41563027491793
 20
372.9181636129506
 10
87.27192447334528
 20
372.74526995653287
 10
102.00333676440641
 20
358.8736060298979
 10
109.23975858045742
 20
362.11598565615714
 10
111.05869151232764
 20
366.82952527934685
 10
100.43795576086268
 20
376.830418207217
 10
87.41563027491793
 20
372.9181636129506
  0
LWPOLYLINE
  5
C7
330
17
100
AcDbEntity
  8
0
 62
0
100
AcDbPolyline
 90
7
 70
0
 10
107.9775516926311
 20
391.363714939449
 10
105.92229992803186
 20
382.654675160069
 10
116.2142937160097
 20
372.9633382987231
 10
124.56945057306439
 20
378.38845667243004
 10
124.71117657516152
 20
378.7303484515287
 10
121.96547413431108
 20
391.28474058490247
 10
107.9775516926311
 20
391.363714939449
  0
LWPOLYLINE
  5
C8
330
17
100
AcDbEntity
  8
0
 62
0
100
AcDbPolyline
 90
7
 70
0
 10
129.41103134071454
 20
394.6844632262364
 10
131.96144862100482
 20
383.0229888581671
 10
145.63510527880862
 20
385.6526802130975
 10
148.10054784175009
 20
392.76687162788585
 10
140.61855936190113
 20
402.2991928192787
 10
131.19681962346658
 20
398.0376348057762
 10
129.41103134071454
 20
394.6844632262364
  0
LWPOLYLINE
  5
C9
330
17
100
AcDbEntity
  8
0
 62
0
100
AcDbPolyline
 90
6
 70
0
 10
88.26243338640779
 20
405.4096925971098
 10
88.95570341916755
 20
381.7340695383027
 10
98.13617336470634
 20
384.4921280555427
 10
100.45594991836697
 20
394.32208009948954
 10
90.10221095569432
 20
406.40334502700716
 10
88.26243338640779
 20
405.4096925971098
  0
LWPOLYLINE
  5
CA
330
17
100
AcDbEntity
  8
0
 62
0
100
AcDbPolyline
 90
6
 70
0
 10
106.66468699416146
 20
399.3712547402829
 10
122.79477826785296
 20
399.28018592344597
 10
123.624398636166
 20
400.83796265907586
 10
115.6120613804087
 20
412.3034417736344
 10
96.96486721280962
 20
410.689493779093
 10
106.66468699416146
 20
399.3712547402829
  0
LWPOLYLINE
  5
CB
330
17
100
AcDbEntity
  8
0
 62
0
100
AcDbPolyline
 90
25
 70
0
 10
111.1828876488973
 20
425.803102299123
 10
109.94090138644461
 20
425.21568654484196
 10
108.64731881489581
 20
424.75283529974905
 10
107.31459784155913
 20
424.41900607435474
 10
105.9555732979472
 20
424.2174138265892
 10
104.58333333333334
 20
424.15
 10
103.21109336871949
 20
424.2174138265892
 10
101.85206882510755
 20
424.41900607435474
 10
100.51934785177087
 20
424.75283529974905
 10
99.22576528022209
 20
425.21568654484196
 10
97.98377901776938
 20
425.803102299123
 10
96.80535007105891
 20
426.5094254277643
 10
96.67044933759102
 20
426.6094746304333
 10
96.26693398226053
 20
425.9468090762384
 10
96.38367518177256
 20
418.6690995087847
 10
114.92222610721365
 20
420.2736442363821
 10
118.41869778651744
 20
427.75368533236906
 10
117.05972236969053
 20
431.82423211015066
 10
116.93023103421031
 20
431.550445684436
 10
116.22390790556898
 20
430.3720167377256
 10
115.40547968041166
 20
429.26849402170893
 10
114.482828269945
 20
428.2505050633883
 10
113.46483931162437
 20
427.32785365292165
 10
112.36131659560778
 20
426.50942542776437
 10
111.1828876488973
 20
425.803102299123
  0
LWPOLYLINE
  5
CC
330
17
100
AcDbEntity
  8
0
 62
0
100
AcDbPolyline
 90
5
 70
0
 10
165.76823706179857
 20
28.65684839244932
 10
155.38656095881015
 20
35.867020087782294
 10
148.98190132109448
 20
32.85053164465353
 10
148.38887743093073
 20
17.311035642400384
 10
165.76823706179857
 20
28.65684839244932
  0
LWPOLYLINE
  5
CD
330
17
100
AcDbEntity
  8
0
 62
0
100
AcDbPolyline
 90
6
 70
0
 10
159.9500153986737
 20
42.43777982937172
 10
171.33090511523187
 20
34.533644881565124
 10
172.48564191628247
 20
48.3418519673869
 10
166.79519705893472
 20
52.2939194412902
 10
160.52738379919901
 20
49.34188337204978
 10
159.9500153986737
 20
42.43777982937172
  0
LWPOLYLINE
  5
CE
330
17
100
AcDbEntity
  8
0
 62
0
100
AcDbPolyline
 90
6
 70
0
 10
180.45781399402767
 20
47.675164363812655
 10
179.53304892824963
 20
36.6169322906062
 10
188.9677276541479
 20
37.4682041304186
 10
191.10908636823297
 20
47.58284684969112
 10
186.72562725283206
 20
50.627200432587415
 10
180.45781399402767
 20
47.675164363812655
  0
LWPOLYLINE
  5
CF
330
17
100
AcDbEntity
  8
0
 62
0
100
AcDbPolyline
 90
7
 70
0
 10
134.2811395963654
 20
47.3262284505181
 10
145.40255704941228
 20
40.00761667545885
 10
151.9778433209285
 20
43.104467432480305
 10
152.55521172145382
 20
50.008570975158364
 10
146.8647668636404
 20
53.960638448596
 10
134.49944902863353
 20
48.136778875254095
 10
134.2811395963654
 20
47.3262284505181
  0
LWPOLYLINE
  5
D0
330
17
100
AcDbEntity
  8
0
 62
0
100
AcDbPolyline
 90
7
 70
0
 10
171.93601989885792
 20
65.76878272462636
 10
171.35865149833262
 20
58.864679181948304
 10
177.04909635568038
 20
54.912611708045006
 10
183.31690961495042
 20
57.86464777728543
 10
183.89427801594138
 20
64.76875131949782
 10
178.2038331576623
 20
68.72081879340112
 10
171.93601989885792
 20
65.76878272462636
  0
LWPOLYLINE
  5
D1
330
17
100
AcDbEntity
  8
0
 62
0
100
AcDbPolyline
 90
7
 70
0
 10
152.00558970402926
 20
67.43550173286349
 10
151.42822130350396
 20
60.53139819018543
 10
157.11866616131738
 20
56.57933071674779
 10
163.38647942058742
 20
59.53136678552255
 10
163.96384782111272
 20
66.43547032773495
 10
158.27340296283364
 20
70.38753780163825
 10
152.00558970402926
 20
67.43550173286349
  0
LWPOLYLINE
  5
D2
330
17
100
AcDbEntity
  8
0
 62
0
100
AcDbPolyline
 90
7
 70
0
 10
162.8368574026972
 20
76.95829754322767
 10
168.52730226097628
 20
73.00623006932437
 10
174.79511551978067
 20
75.95826613809913
 10
175.37248392030597
 20
82.86236968124285
 10
169.6820390629582
 20
86.81443715514615
 10
163.4142258032225
 20
83.86240108590573
 10
162.8368574026972
 20
76.95829754322767
  0
LWPOLYLINE
  5
D3
330
17
100
AcDbEntity
  8
0
 62
0
100
AcDbPolyline
 90
7
 70
0
 10
143.4837956088595
 20
85.52912009414285
 10
142.90642720786855
 20
78.6250165514648
 10
148.59687206614763
 20
74.6729490775615
 10
154.864685324952
 20
77.62498514633626
 10
155.4420537254773
 20
84.52908868947998
 10
149.75160886812955
 20
88.48115616338328
 10
143.4837956088595
 20
85.52912009414285
  0
LWPOLYLINE
  5
D4
330
17
100
AcDbEntity
  8
0
 62
0
100
AcDbPolyline
 90
7
 70
0
 10
174.8228619028814
 20
100.28930043894798
 10
174.2454935023561
 20
93.38519689580426
 10
179.93593835970387
 20
89.43312942190096
 10
186.2037516189739
 20
92.38516549114138
 10
186.78112001996487
 20
99.28926903381944
 10
181.0906751616858
 20
103.24133650772274
 10
174.8228619028814
 20
100.28930043894798
  0
LWPOLYLINE
  5
D5
330
17
100
AcDbEntity
  8
0
 62
0
100
AcDbPolyline
 90
7
 70
0
 10
154.31506330752745
 20
95.05191590404138
 10
160.0055081648752
 20
91.09984843013808
 10
166.2733214246109
 20
94.0518844993785
 10
166.85068982513621
 20
100.95598804205656
 10
161.16024496685714
 20
104.9080555154942
 10
154.89243170805275
 20
101.95601944671944
 10
154.31506330752745
 20
95.05191590404138
  0
LWPOLYLINE
  5
D6
330
17
100
AcDbEntity
  8
0
 62
0
100
AcDbPolyline
 90
7
 70
0
 10
134.9620015132241
 20
103.62273845495656
 10
134.3846331126988
 20
96.7186349122785
 10
140.07507797097787
 20
92.76656743884087
 10
146.34289122978225
 20
95.71860350761563
 10
146.92025963030756
 20
102.62270704982802
 10
141.22981477202848
 20
106.57477452373132
 10
134.9620015132241
 20
103.62273845495656
  0
LWPOLYLINE
  5
D7
330
17
100
AcDbEntity
  8
0
 62
0
100
AcDbPolyline
 90
7
 70
0
 10
166.30106780771166
 20
118.38291879976168
 10
165.7236994067207
 20
111.47881525708362
 10
171.41414426499978
 20
107.52674778364599
 10
177.68195752380416
 20
110.47878385242075
 10
178.25932592432946
 20
117.3828873950988
 10
172.5688810669817
 20
121.3349548690021
 10
166.30106780771166
 20
118.38291879976168
  0
LWPOLYLINE
  5
D8
330
17
100
AcDbEntity
  8
0
 62
0
100
AcDbPolyline
 90
7
 70
0
 10
145.79326921189204
 20
113.14553426532075
 10
151.48371407017112
 20
109.19346679141745
 10
157.7515273289755
 20
112.14550286019221
 10
158.32889572996646
 20
119.04960640287027
 10
152.63845087168738
 20
123.00167387677357
 10
146.370637612883
 20
120.0496378079988
 10
145.79326921189204
 20
113.14553426532075
  0
LWPOLYLINE
  5
D9
330
17
100
AcDbEntity
  8
0
 62
0
100
AcDbPolyline
 90
7
 70
0
 10
177.7097039069049
 20
134.80981815280393
 10
177.1323355063796
 20
127.90571460966021
 10
182.82278036372736
 20
123.95364713622257
 10
192.46413831645623
 20
128.4945667926222
 10
192.1162633774802
 20
134.1544970953837
 10
186.3639389341697
 20
138.88581928657368
 10
177.7097039069049
 20
134.80981815280393
  0
LWPOLYLINE
  5
DA
330
17
100
AcDbEntity
  8
0
 62
0
100
AcDbPolyline
 90
7
 70
0
 10
157.77927371207625
 20
136.47653716104105
 10
157.20190531155095
 20
129.572433618363
 10
162.89235016983002
 20
125.6203661444597
 10
169.1601634286344
 20
128.57240221323445
 10
169.7375318291597
 20
135.4765057559125
 10
164.04708697088063
 20
139.4285732298158
 10
157.77927371207625
 20
136.47653716104105
  0
LWPOLYLINE
  5
DB
330
17
100
AcDbEntity
  8
0
 62
0
100
AcDbPolyline
 90
7
 70
0
 10
138.0821688347496
 20
140.93333291681483
 10
137.27147511672229
 20
131.23915262660012
 10
142.96191997500136
 20
127.28708515269682
 10
149.22973323380575
 20
130.23912122147158
 10
149.80710163433105
 20
137.14322476414964
 10
143.16081660753116
 20
141.75913222506642
 10
138.0821688347496
 20
140.93333291681483
  0
LWPOLYLINE
  5
DC
330
17
100
AcDbEntity
  8
0
 62
0
100
AcDbPolyline
 90
7
 70
0
 10
169.69858974264935
 20
159.01008717063814
 10
168.6105414107442
 20
145.99933297140524
 10
174.30098626902327
 20
142.04726549750194
 10
182.8887177761644
 20
146.09194457670674
 10
182.7442639018409
 20
152.1408694703132
 10
173.8854650571011
 20
158.8974623437971
 10
169.69858974264935
 20
159.01008717063814
  0
LWPOLYLINE
  5
DD
330
17
100
AcDbEntity
  8
0
 62
0
100
AcDbPolyline
 90
6
 70
0
 10
149.05525194201618
 20
147.40551321720704
 10
154.3705560741946
 20
143.71398450573906
 10
160.638369332999
 20
146.66602057451382
 10
161.58630385715514
 20
158.00131030986086
 10
153.62587371980771
 20
158.306514903903
 10
149.05525194201618
 20
147.40551321720704
  0
LWPOLYLINE
  5
DE
330
17
100
AcDbEntity
  8
0
 62
0
100
AcDbPolyline
 90
6
 70
0
 10
152.66535496897995
 20
166.34921912662685
 10
163.06668507680297
 20
165.95042990567163
 10
160.59381987899542
 20
182.7792029902339
 10
146.79565990529954
 20
174.94206872349605
 10
146.30267318570986
 20
172.36925559258088
 10
152.66535496897995
 20
166.34921912662685
  0
LWPOLYLINE
  5
DF
330
17
100
AcDbEntity
  8
0
 62
0
100
AcDbPolyline
 90
6
 70
0
 10
173.33949956251308
 20
166.91504234680906
 10
183.42034232337028
 20
180.1949511161074
 10
174.48702201619744
 20
187.36262104520574
 10
168.457270947285
 20
184.29310132423416
 10
171.00160874892026
 20
166.9779304265976
 10
173.33949956251308
 20
166.91504234680906
  0
LWPOLYLINE
  5
E0
330
17
100
AcDbEntity
  8
0
 62
0
100
AcDbPolyline
 90
6
 70
0
 10
139.64813995547593
 20
189.63205941254273
 10
144.4123273305595
 20
182.7887420509942
 10
154.89063326222822
 20
188.74025229830295
 10
149.49656034680083
 20
196.48834235453978
 10
142.59311174973845
 20
195.90319496532902
 10
139.64813995547593
 20
189.63205941254273
  0
LWPOLYLINE
  5
E1
330
17
100
AcDbEntity
  8
0
 62
0
100
AcDbPolyline
 90
8
 70
0
 10
159.00714573590085
 20
207.33033320354298
 10
156.06217394163832
 20
201.05919765029103
 10
163.11207091622055
 20
190.93266849406064
 10
163.61321833916008
 20
190.80410499032587
 10
171.542447748594
 20
194.84057776769623
 10
172.4675364131108
 20
198.49703584238887
 10
165.91059433249757
 20
207.91548059275374
 10
159.00714573590085
 20
207.33033320354298
  0
LWPOLYLINE
  5
E2
330
17
100
AcDbEntity
  8
0
 62
0
100
AcDbPolyline
 90
7
 70
0
 10
137.95896494202316
 20
209.56059894151986
 10
141.917441744823
 20
203.87461077747867
 10
148.82089034141973
 20
204.45975816668943
 10
151.76586213568226
 20
210.73089371994138
 10
147.8073853328824
 20
216.41688188398257
 10
140.9039367362857
 20
215.8317344947718
 10
137.95896494202316
 20
209.56059894151986
  0
LWPOLYLINE
  5
E3
330
17
100
AcDbEntity
  8
0
 62
0
100
AcDbPolyline
 90
6
 70
0
 10
172.47620792733505
 20
212.48633588803932
 10
177.96362246805802
 20
204.6041691643186
 10
189.683119231835
 20
211.4608234744519
 10
184.40690933400765
 20
218.80230259010568
 10
175.3126459904015
 20
218.52635556366295
 10
172.47620792733505
 20
212.48633588803932
  0
LWPOLYLINE
  5
E4
330
17
100
AcDbEntity
  8
0
 62
0
100
AcDbPolyline
 90
7
 70
0
 10
157.31797072151676
 20
227.25887273298576
 10
154.3729989277199
 20
220.9877371797338
 10
158.33147573051974
 20
215.30174901569262
 10
165.23492432711646
 20
215.88689640490338
 10
168.20331653999165
 20
222.2079042927362
 10
164.75317043578252
 20
227.88909220090136
 10
157.31797072151676
 20
227.25887273298576
  0
LWPOLYLINE
  5
E5
330
17
100
AcDbEntity
  8
0
 62
0
100
AcDbPolyline
 90
7
 70
0
 10
171.43327348399907
 20
232.30141279986128
 10
174.9449650524184
 20
226.5188809670508
 10
183.4192829891108
 20
226.77601700415835
 10
185.5459874025546
 20
233.78751015337184
 10
180.80978312529624
 20
238.84402763471007
 10
173.80665181111544
 20
237.21092509059235
 10
171.43327348399907
 20
232.30141279986128
  0
LWPOLYLINE
  5
E6
330
17
100
AcDbEntity
  8
0
 62
0
100
AcDbPolyline
 90
6
 70
0
 10
135.9355075629428
 20
229.96930436883122
 10
140.22826672997326
 20
223.80315030692145
 10
147.1317153275013
 20
224.3882976961322
 10
150.07668712176383
 20
230.65943324938416
 10
141.8874845393002
 20
242.42247021524236
 10
135.9355075629428
 20
229.96930436883122
  0
LWPOLYLINE
  5
E7
330
17
100
AcDbEntity
  8
0
 62
0
100
AcDbPolyline
 90
6
 70
0
 10
150.8625522106886
 20
243.53236614586785
 10
156.6423007166013
 20
235.2302885451354
 10
164.27620834298432
 20
235.87735081464052
 10
166.41883333632722
 20
240.3095324090682
 10
162.0153351551853
 20
246.64873669482768
 10
150.8625522106886
 20
243.53236614586785
  0
LWPOLYLINE
  5
E8
330
17
100
AcDbEntity
  8
0
 62
0
100
AcDbPolyline
 90
7
 70
0
 10
168.06776684103534
 20
251.9583678226918
 10
172.77315965481102
 20
245.1845609387383
 10
178.99296057689935
 20
246.6349939312786
 10
181.00393103109673
 20
253.2649258938618
 10
176.26772675383836
 20
258.32144337520003
 10
169.5205520214513
 20
256.7480288944207
 10
168.06776684103534
 20
251.9583678226918
  0
LWPOLYLINE
  5
E9
330
17
100
AcDbEntity
  8
0
 62
0
100
AcDbPolyline
 90
6
 70
0
 10
150.3815870047547
 20
262.55320056155324
 10
146.78624650510028
 20
250.69978777784854
 10
160.48733787145466
 20
254.52822036202997
 10
161.86496601440012
 20
259.07009756146
 10
157.1287617366761
 20
264.1266150427982
 10
150.3815870047547
 20
262.55320056155324
  0
LWPOLYLINE
  5
EA
330
17
100
AcDbEntity
  8
0
 62
0
100
AcDbPolyline
 90
7
 70
0
 10
164.97849564999342
 20
276.225444634445
 10
162.96752519533038
 20
269.5955126718618
 10
167.70372947258875
 20
264.53899519052356
 10
174.45090420544147
 20
266.11240967176855
 10
176.4618746601045
 20
272.74234163435176
 10
171.72567038284615
 20
277.79885911569
 10
164.97849564999342
 20
276.225444634445
  0
LWPOLYLINE
  5
EB
330
17
100
AcDbEntity
  8
0
 62
0
100
AcDbPolyline
 90
6
 70
0
 10
148.5647644563578
 20
270.34416685719043
 10
155.31193918781355
 20
271.9175813384354
 10
157.32290964294225
 20
278.5475133014843
 10
152.58670536568388
 20
283.6040307828225
 10
139.0923559013754
 20
280.45720182033256
 10
148.5647644563578
 20
270.34416685719043
  0
LWPOLYLINE
  5
EC
330
17
100
AcDbEntity
  8
0
 62
0
100
AcDbPolyline
 90
7
 70
0
 10
179.5754042956978
 20
289.89768870780244
 10
177.56443384103477
 20
283.26775674475357
 10
182.3006381187588
 20
278.21123926341534
 10
189.04781285021454
 20
279.7846537446603
 10
191.05878330534324
 20
286.4145857077092
 10
186.32257902808487
 20
291.4711031890474
 10
179.5754042956978
 20
289.89768870780244
  0
LWPOLYLINE
  5
ED
330
17
100
AcDbEntity
  8
0
 62
0
100
AcDbPolyline
 90
7
 70
0
 10
160.43643927853554
 20
295.70286037493497
 10
158.4254688238725
 20
289.0729284118861
 10
163.16167310113087
 20
284.01641093054786
 10
169.9088478339836
 20
285.58982541179284
 10
171.91981828864664
 20
292.2197573748417
 10
167.18361401138827
 20
297.27627485617995
 10
160.43643927853554
 20
295.70286037493497
  0
LWPOLYLINE
  5
EE
330
17
100
AcDbEntity
  8
0
 62
0
100
AcDbPolyline
 90
7
 70
0
 10
132.69968234142289
 20
291.3548511536792
 10
135.74788518389687
 20
287.8919266015291
 10
150.76988281682134
 20
291.39499707892537
 10
152.78085327148438
 20
298.02492904197425
 10
148.38506530132145
 20
302.718007594347
 10
136.46745019825175
 20
299.04163304390386
 10
132.69968234142289
 20
291.3548511536792
  0
LWPOLYLINE
  5
EF
330
17
100
AcDbEntity
  8
0
 62
0
100
AcDbPolyline
 90
6
 70
0
 10
173.0223774695769
 20
302.74517248524353
 10
177.75858174683526
 20
297.6886550039053
 10
184.50575647922233
 20
299.2620694851503
 10
187.49131319159642
 20
309.10509717743844
 10
175.00555560458452
 20
309.2834764542058
 10
173.0223774695769
 20
302.74517248524353
  0
LWPOLYLINE
  5
F0
330
17
100
AcDbEntity
  8
0
 62
0
100
AcDbPolyline
 90
7
 70
0
 10
156.10564045095816
 20
319.1922164876014
 10
153.92730526486412
 20
308.503482834436
 10
158.619616729673
 20
303.4938266710378
 10
165.36679146252573
 20
305.0672411522828
 10
167.69988182932138
 20
312.7591644017957
 10
161.52993138646707
 20
322.7423102571629
 10
156.10564045095816
 20
319.1922164876014
  0
LWPOLYLINE
  5
F1
330
17
100
AcDbEntity
  8
0
 62
0
100
AcDbPolyline
 90
6
 70
0
 10
136.32339034602046
 20
307.36918983981013
 10
146.1494390182197
 20
310.4003529511392
 10
147.82837382145226
 20
318.63861079420894
 10
138.58695228258148
 20
320.8584841177799
 10
133.8172727227211
 20
315.8335306965746
 10
136.32339034602046
 20
307.36918983981013
  0
LWPOLYLINE
  5
F2
330
17
100
AcDbEntity
  8
0
 62
0
100
AcDbPolyline
 90
6
 70
0
 10
174.30154565768316
 20
317.2943507656455
 10
185.64607059257105
 20
317.13227584632114
 10
182.0592025811784
 20
329.7902949489653
 10
177.7644831603393
 20
331.19388249889016
 10
168.7413928047754
 20
326.2908277101815
 10
174.30154565768316
 20
317.2943507656455
  0
LWPOLYLINE
  5
F3
330
17
100
AcDbEntity
  8
0
 62
0
100
AcDbPolyline
 90
6
 70
0
 10
140.45547363208607
 20
328.63721331814304
 10
151.7740984982811
 20
325.9183769035153
 10
157.01106744725257
 20
329.34587204642594
 10
152.88463026098907
 20
337.4280060422607
 10
136.9513273211196
 20
340.4723676289432
 10
140.45547363208607
 20
328.63721331814304
  0
LWPOLYLINE
  5
F4
330
17
100
AcDbEntity
  8
0
 62
0
100
AcDbPolyline
 90
7
 70
0
 10
162.09908583806828
 20
347.650553970132
 10
159.8949809097685
 20
341.2904689316638
 10
164.1722927391529
 20
332.9128284184262
 10
173.4006806309335
 20
337.9274397836998
 10
173.55208453396335
 20
349.23041967721656
 10
171.69948126701638
 20
350.4435126259923
 10
162.09908583806828
 20
347.650553970132
  0
LWPOLYLINE
  5
F5
330
17
100
AcDbEntity
  8
0
 62
0
100
AcDbPolyline
 90
6
 70
0
 10
140.9990732590668
 20
347.8436890989542
 10
152.91051730606705
 20
345.567780403886
 10
154.59803167171776
 20
350.43721049744636
 10
149.98182149464265
 20
357.97552630724385
 10
144.11958052264526
 20
356.8481113961898
 10
140.9990732590668
 20
347.8436890989542
  0
LWPOLYLINE
  5
F6
330
17
100
AcDbEntity
  8
0
 62
0
100
AcDbPolyline
 90
6
 70
0
 10
156.61748355347663
 20
362.45837234705687
 10
160.81247173948213
 20
355.6079161176458
 10
167.8338601300493
 20
357.6505869249813
 10
165.99891006667167
 20
368.93376029189676
 10
160.00418233126402
 20
368.1612821468152
 10
156.61748355347663
 20
362.45837234705687
  0
LWPOLYLINE
  5
F7
330
17
100
AcDbEntity
  8
0
 62
0
100
AcDbPolyline
 90
7
 70
0
 10
173.62191153131425
 20
371.89820109540597
 10
176.01551570510492
 20
357.1798436823301
 10
177.9536339477636
 20
355.9107551430352
 10
184.9499909109436
 20
359.0010116104968
 10
186.0761032938026
 20
369.4192305030301
 10
175.1474621067755
 20
373.2879141741432
 10
173.62191153131425
 20
371.89820109540597
  0
LWPOLYLINE
  5
F8
330
17
100
AcDbEntity
  8
0
 62
0
100
AcDbPolyline
 90
6
 70
0
 10
142.6087226998061
 20
364.70414784224704
 10
149.42534259147942
 20
366.0151070719585
 10
152.64800667809322
 20
371.441796542611
 10
147.14596310118213
 20
377.7966437670402
 10
133.53890883084387
 20
375.17976125516
 10
142.6087226998061
 20
364.70414784224704
  0
LWPOLYLINE
  5
F9
330
17
100
AcDbEntity
  8
0
 62
0
100
AcDbPolyline
 90
8
 70
0
 10
166.30929656419903
 20
390.96982905780897
 10
155.5437662145123
 20
389.81332623772323
 10
153.19406132539734
 20
383.0331032462418
 10
159.1785467742011
 20
376.1210368089378
 10
167.5641859746538
 20
377.2016068198718
 10
170.10942459618673
 20
379.5202132682316
 10
169.5681524053216
 20
387.9504140103236
 10
166.30929656419903
 20
390.96982905780897
  0
LWPOLYLINE
  5
FA
330
17
100
AcDbEntity
  8
0
 62
0
100
AcDbPolyline
 90
7
 70
0
 10
172.00323549611494
 20
409.75745431147516
 10
171.72954510245472
 20
396.8538274699822
 10
174.0600152160041
 20
394.6945860455744
 10
188.07483842456713
 20
402.39449717849493
 10
188.2492807325907
 20
406.8604157939553
 10
182.3894303580746
 20
411.5405208733864
 10
172.00323549611494
 20
409.75745431147516
  0
LWPOLYLINE
  5
FB
330
17
100
AcDbEntity
  8
0
 62
0
100
AcDbPolyline
 90
7
 70
0
 10
146.49151520431042
 20
407.7737925648689
 10
154.37221419392154
 20
397.7334999097511
 10
163.76781230932102
 20
398.7428357587196
 10
164.03191807540134
 20
411.1945780464448
 10
162.43342155124992
 20
412.4145508343354
 10
147.5285282479599
 20
409.9993618899025
 10
146.49151520431042
 20
407.7737925648689
  0
LWPOLYLINE
  5
FC
330
17
100
AcDbEntity
  8
0
 62
0
100
AcDbPolyline
 90
7
 70
0
 10
216.49019071971998
 20
44.3700002329424
 10
217.2495341268368
 20
29.637395542114973
 10
219.2512087598443
 20
28.376722255256027
 10
222.6128577045165
 20
28.960771712940186
 10
232.2199515029788
 20
44.214744456112385
 10
229.47311841975898
 20
48.9014467606321
 10
216.49019071971998
 20
44.3700002329424
  0
LWPOLYLINE
  5
FD
330
17
100
AcDbEntity
  8
0
 62
0
100
AcDbPolyline
 90
7
 70
0
 10
198.95150933414698
 20
46.00098343193531
 10
196.69628323661163
 20
35.34849159279838
 10
203.1130642555654
 20
30.27416352601722
 10
209.17233276600018
 20
30.929208415094763
 10
208.434538802132
 20
45.24371581058949
 10
205.80343308718875
 20
47.50905516371131
 10
198.95150933414698
 20
46.00098343193531
  0
LWPOLYLINE
  5
FE
330
17
100
AcDbEntity
  8
0
 62
0
100
AcDbPolyline
 90
7
 70
0
 10
211.05345220584422
 20
53.54551898967475
 10
213.20203655818477
 20
51.69562270492315
 10
227.6295792493038
 20
56.73128490243107
 10
228.27761253342032
 20
61.4700100379996
 10
223.99588001705706
 20
68.18087121285498
 10
211.79688028851524
 20
62.43534470861778
 10
211.05345220584422
 20
53.54551898967475
  0
LWPOLYLINE
  5
FF
330
17
100
AcDbEntity
  8
0
 62
0
100
AcDbPolyline
 90
7
 70
0
 10
191.86645009368658
 20
64.10206371638924
 10
191.28908169269562
 20
57.19796017417684
 10
196.4191276882775
 20
53.635094981174916
 10
203.15703481668606
 20
55.118072263896465
 10
203.82470821077004
 20
63.10203231172636
 10
198.13426335249096
 20
67.054099785164
 10
191.86645009368658
 20
64.10206371638924
  0
LWPOLYLINE
  5
100
330
17
100
AcDbEntity
  8
0
 62
0
100
AcDbPolyline
 90
7
 70
0
 10
203.27508619287983
 20
80.52896306943148
 10
202.69771779235452
 20
73.62485952675343
 10
208.3881626506336
 20
69.67279205331579
 10
221.64472560957074
 20
75.91641329554841
 10
221.89069100050256
 20
79.51496202452108
 10
215.0910195731558
 20
86.09407167835161
 10
203.27508619287983
 20
80.52896306943148
  0
LWPOLYLINE
  5
101
330
17
100
AcDbEntity
  8
0
 62
0
100
AcDbPolyline
 90
7
 70
0
 10
182.76728759752586
 20
75.29157853499055
 10
188.45773245580494
 20
71.33951106108725
 10
194.72554571460932
 20
74.29154712986201
 10
195.30291411513463
 20
81.19565067254007
 10
189.61246925685555
 20
85.14771814644337
 10
183.34465599805117
 20
82.19568207766861
 10
182.76728759752586
 20
75.29157853499055
  0
LWPOLYLINE
  5
102
330
17
100
AcDbEntity
  8
0
 62
0
100
AcDbPolyline
 90
7
 70
0
 10
194.75329209771007
 20
98.62258143071085
 10
194.1759236967191
 20
91.7184778880328
 10
199.8663685549982
 20
87.7664104141295
 10
211.5650833188556
 20
93.27631099894643
 10
210.8968969574198
 20
98.74217383703217
 10
205.53190626064315
 20
103.69912989623845
 10
194.75329209771007
 20
98.62258143071085
  0
LWPOLYLINE
  5
103
330
17
100
AcDbEntity
  8
0
 62
0
100
AcDbPolyline
 90
7
 70
0
 10
218.97264874121174
 20
98.60968846036121
 10
219.68523773085326
 20
92.7806055797264
 10
226.73015216412023
 20
85.96420789789408
 10
236.33322627283633
 20
90.89536124560982
 10
234.94023062381893
 20
103.78349717380479
 10
230.84382916381583
 20
105.84069125773385
 10
218.97264874121174
 20
98.60968846036121
  0
LWPOLYLINE
  5
104
330
17
100
AcDbEntity
  8
0
 62
0
100
AcDbPolyline
 90
7
 70
0
 10
185.65412960154936
 20
109.81209624931216
 10
191.34457445982844
 20
105.86002877540886
 10
202.0212823478505
 20
110.88858107617125
 10
201.4995245775208
 20
116.44362491229549
 10
195.95790572743863
 20
121.29717648029327
 10
186.23149800207466
 20
116.71619979152456
 10
185.65412960154936
 20
109.81209624931216
  0
LWPOLYLINE
  5
105
330
17
100
AcDbEntity
  8
0
 62
0
100
AcDbPolyline
 90
7
 70
0
 10
209.54935661051422
 20
116.28794910572469
 10
210.105649266392
 20
110.36521970061585
 10
215.18653475912288
 20
105.6707612099126
 10
226.33202490583062
 20
112.45972975017503
 10
225.1031260387972
 20
121.25851767230779
 10
221.22635743720457
 20
123.40067274682224
 10
209.54935661051422
 20
116.28794910572469
  0
LWPOLYLINE
  5
106
330
17
100
AcDbEntity
  8
0
 62
0
100
AcDbPolyline
 90
7
 70
0
 10
200.14232375659049
 20
133.97611364210024
 10
200.51319445483387
 20
127.94204199966043
 10
205.75976562406868
 20
123.34690393367782
 10
216.73748747305945
 20
130.0336810327135
 10
215.28314711293206
 20
138.7386437463574
 10
211.59195121238008
 20
140.95033905282617
 10
200.14232375659049
 20
133.97611364210024
  0
LWPOLYLINE
  5
107
330
17
100
AcDbEntity
  8
0
 62
0
100
AcDbPolyline
 90
7
 70
0
 10
224.75529405288398
 20
130.59078129660338
 10
228.87938074069098
 20
128.3119676420465
 10
236.80047931382433
 20
132.2799569335766
 10
237.21038967557251
 20
139.1960232644342
 10
231.4258557194844
 20
143.00904921628535
 10
223.35595720121637
 20
138.9665201897733
 10
224.75529405288398
 20
130.59078129660338
  0
LWPOLYLINE
  5
108
330
17
100
AcDbEntity
  8
0
 62
0
100
AcDbPolyline
 90
7
 70
0
 10
190.7524939305149
 20
151.89175169356167
 10
190.9049134803936
 20
145.50926860421896
 10
196.34807744482532
 20
141.0322328065522
 10
207.12551001133397
 20
147.59700920246542
 10
205.47735793562606
 20
156.22282178979367
 10
202.0012639304623
 20
158.45606025587767
 10
190.7524939305149
 20
151.89175169356167
  0
LWPOLYLINE
  5
109
330
17
100
AcDbEntity
  8
0
 62
0
100
AcDbPolyline
 90
7
 70
0
 10
213.58080601831898
 20
156.43885026825592
 10
215.16762825101614
 20
148.13401518110186
 10
219.09603031119332
 20
145.78019039612263
 10
227.84277332294732
 20
150.16177740506828
 10
228.2526836846955
 20
157.07784373592585
 10
222.4681497286074
 20
160.89086968824267
 10
213.58080601831898
 20
156.43885026825592
  0
LWPOLYLINE
  5
10A
330
17
100
AcDbEntity
  8
0
 62
0
100
AcDbPolyline
 90
6
 70
0
 10
186.99392247758806
 20
158.96094230609015
 10
197.61692624120042
 20
165.16008003940806
 10
195.33156234258786
 20
176.5321561298333
 10
190.86478947242722
 20
176.77062162477523
 10
180.88325676554814
 20
163.6215380737558
 10
186.99392247758806
 20
158.96094230609015
  0
LWPOLYLINE
  5
10B
330
17
100
AcDbEntity
  8
0
 62
0
100
AcDbPolyline
 90
7
 70
0
 10
227.2809632094577
 20
174.48634049203247
 10
226.8710528477095
 20
167.57027416164055
 10
232.65558680379763
 20
163.75724820932373
 10
241.41189927142113
 20
168.14362893486395
 10
242.31473413296044
 20
171.76270892191678
 10
233.47540752775967
 20
177.58938087150455
 10
227.2809632094577
 20
174.48634049203247
  0
LWPOLYLINE
  5
10C
330
17
100
AcDbEntity
  8
0
 62
0
100
AcDbPolyline
 90
8
 70
0
 10
204.99975381139666
 20
181.07639398053288
 10
202.98486085468903
 20
179.05325356172398
 10
205.68940345430747
 20
165.59532493539155
 10
209.329397670459
 20
163.25678774667904
 10
218.88506733207032
 20
168.0435978770256
 10
219.2949776938185
 20
174.95966420741752
 10
209.17860306240618
 20
181.628135566134
 10
204.99975381139666
 20
181.07639398053288
  0
LWPOLYLINE
  5
10D
330
17
100
AcDbEntity
  8
0
 62
0
100
AcDbPolyline
 90
6
 70
0
 10
215.94844447495416
 20
186.74731112457812
 10
223.69788081292063
 20
181.6390686808154
 10
229.8923251312226
 20
184.74210906028748
 10
230.3034893660806
 20
191.67933091893792
 10
221.6371382898651
 20
194.05750266229734
 10
215.94844447495416
 20
186.74731112457812
  0
LWPOLYLINE
  5
10E
330
17
100
AcDbEntity
  8
0
 62
0
100
AcDbPolyline
 90
7
 70
0
 10
179.4833266506903
 20
193.6105895973742
 10
190.45974149694666
 20
184.80363810434937
 10
197.06968849198893
 20
184.45075598359108
 10
198.6611929149367
 20
186.0487748333253
 10
193.65828239033
 20
204.51793503575027
 10
180.25960058765486
 20
196.6788502028212
 10
179.4833266506903
 20
193.6105895973742
  0
LWPOLYLINE
  5
10F
330
17
100
AcDbEntity
  8
0
 62
0
100
AcDbPolyline
 90
7
 70
0
 10
202.06587255513296
 20
208.16018204484135
 10
201.07622047606856
 20
207.73106127930805
 10
206.0722179231234
 20
189.28742196736857
 10
207.98472502734512
 20
189.53993399627507
 10
215.73758402792737
 20
199.50265762023628
 10
214.2684566527605
 20
204.92621031403542
 10
202.06587255513296
 20
208.16018204484135
  0
LWPOLYLINE
  5
110
330
17
100
AcDbEntity
  8
0
 62
0
100
AcDbPolyline
 90
7
 70
0
 10
221.99017834104598
 20
207.0178637667559
 10
223.3835408082232
 20
201.87401110259816
 10
233.49274306651205
 20
199.09990018233657
 10
233.71909995144233
 20
199.2947743544355
 10
231.92566774087027
 20
210.59186235722154
 10
226.87575709447265
 20
211.93020742759109
 10
221.99017834104598
 20
207.0178637667559
  0
LWPOLYLINE
  5
111
330
17
100
AcDbEntity
  8
0
 62
0
100
AcDbPolyline
 90
6
 70
0
 10
216.31789247086272
 20
212.6592441839166
 10
221.2034712242894
 20
217.57158784475178
 10
219.39204619871452
 20
224.25879498757422
 10
211.99471028288826
 20
226.2192629543133
 10
207.2401812588796
 20
215.0650511183776
 10
216.31789247086272
 20
212.6592441839166
  0
LWPOLYLINE
  5
112
330
17
100
AcDbEntity
  8
0
 62
0
100
AcDbPolyline
 90
7
 70
0
 10
193.20157341007143
 20
231.4654414872639
 10
190.81429417105392
 20
223.5948639297858
 10
197.16690795263276
 20
214.75564367230982
 10
198.69410821748897
 20
215.41784947225824
 10
205.2181567051448
 20
230.7233862541616
 10
203.44698613556102
 20
233.85463124280795
 10
193.20157341007143
 20
231.4654414872639
  0
LWPOLYLINE
  5
113
330
17
100
AcDbEntity
  8
0
 62
0
100
AcDbPolyline
 90
6
 70
0
 10
228.92519291257486
 20
219.66324129747227
 10
234.79356357594952
 20
218.10798507602885
 10
242.49678732268512
 20
223.03431451134384
 10
235.20623706653714
 20
234.48725099349394
 10
227.113767887
 20
226.3504484402947
 10
228.92519291257486
 20
219.66324129747227
  0
LWPOLYLINE
  5
114
330
17
100
AcDbEntity
  8
0
 62
0
100
AcDbPolyline
 90
8
 70
0
 10
209.74892703955993
 20
238.96243037190288
 10
212.3251935429871
 20
234.40785967325792
 10
221.4414820172824
 20
231.9918288574554
 10
229.94938286952674
 20
240.54633896332234
 10
224.6789838867262
 20
248.56625577202067
 10
222.18570897448808
 20
249.20700173079967
 10
210.823604141362
 20
242.87421775283292
 10
209.74892703955993
 20
238.96243037190288
  0
LWPOLYLINE
  5
115
330
17
100
AcDbEntity
  8
0
 62
0
100
AcDbPolyline
 90
7
 70
0
 10
188.6595170381479
 20
250.9428572272882
 10
186.64854658395052
 20
244.31292526470497
 10
191.38475086167455
 20
239.25640778290108
 10
202.22795523423702
 20
241.7850001878105
 10
202.96053309179842
 20
244.45155818434432
 10
195.40669177100062
 20
252.51627170853317
 10
188.6595170381479
 20
250.9428572272882
  0
LWPOLYLINE
  5
116
330
17
100
AcDbEntity
  8
0
 62
0
100
AcDbPolyline
 90
6
 70
0
 10
201.24545522918925
 20
257.98516933759674
 10
208.19364114385098
 20
250.56707216892391
 10
216.57907378813252
 20
255.24077781382948
 10
211.87908720830455
 20
266.6258718892932
 10
203.25642568385229
 20
264.6151013006456
 10
201.24545522918925
 20
257.98516933759674
  0
LWPOLYLINE
  5
117
330
17
100
AcDbEntity
  8
0
 62
0
100
AcDbPolyline
 90
7
 70
0
 10
182.10649021249264
 20
263.79034100472927
 10
186.842694489751
 20
258.7338235238567
 10
193.58986922213808
 20
260.307238004636
 10
195.60083967680112
 20
266.93716996721923
 10
190.86463539861143
 20
271.9936874490231
 10
184.11746066762134
 20
270.42027296777815
 10
182.10649021249264
 20
263.79034100472927
  0
LWPOLYLINE
  5
118
330
17
100
AcDbEntity
  8
0
 62
0
100
AcDbPolyline
 90
7
 70
0
 10
218.66780043719336
 20
271.1464018593542
 10
224.56764077907428
 20
256.8548211962916
 10
225.80660558957607
 20
256.53642000770196
 10
236.40085260616615
 20
268.4337146724574
 10
224.22009326936677
 20
276.4145533875562
 10
220.64102133037522
 20
275.1459893267602
 10
218.66780043719336
 20
271.1464018593542
  0
LWPOLYLINE
  5
119
330
17
100
AcDbEntity
  8
0
 62
0
100
AcDbPolyline
 90
7
 70
0
 10
198.7143693123944
 20
284.0925170406699
 10
196.70339885773137
 20
277.4625850780867
 10
201.43960313592106
 20
272.4060675962828
 10
211.5294604599476
 20
274.758982446976
 10
212.960568157956
 20
277.65974253602326
 10
205.46154404478148
 20
285.6659315219149
 10
198.7143693123944
 20
284.0925170406699
  0
LWPOLYLINE
  5
11A
330
17
100
AcDbEntity
  8
0
 62
0
100
AcDbPolyline
 90
8
 70
0
 10
215.3233841424808
 20
304.39843744412065
 10
211.3003075029701
 20
291.1348291509785
 10
218.903244596906
 20
283.01769946794957
 10
221.76912573259324
 20
284.0334806186147
 10
228.55475861392915
 20
299.8147260812111
 10
228.20148879569024
 20
301.151847534813
 10
223.52587913861498
 20
305.084032677114
 10
215.3233841424808
 20
304.39843744412065
  0
LWPOLYLINE
  5
11B
330
17
100
AcDbEntity
  8
0
 62
0
100
AcDbPolyline
 90
7
 70
0
 10
195.60165247507393
 20
308.28229632694274
 10
192.1613424862735
 20
296.940000818111
 10
196.89754676353186
 20
291.88348333677277
 10
203.64472149591893
 20
293.45689781801775
 10
207.5760801420547
 20
306.41812272556126
 10
203.21192065719515
 20
309.2041248809546
 10
195.60165247507393
 20
308.28229632694274
  0
LWPOLYLINE
  5
11C
330
17
100
AcDbEntity
  8
0
 62
0
100
AcDbPolyline
 90
7
 70
0
 10
209.80969045963138
 20
328.43967429874465
 10
208.39852047991008
 20
315.3842475330457
 10
213.2972547528334
 20
312.25698229670525
 10
221.59189606131986
 20
312.95027946308255
 10
224.40231733489782
 20
325.20391790708527
 10
216.14721255516633
 20
331.238926644437
 10
209.80969045963138
 20
328.43967429874465
  0
LWPOLYLINE
  5
11D
330
17
100
AcDbEntity
  8
0
 62
0
100
AcDbPolyline
 90
6
 70
0
 10
194.2323441132903
 20
316.1749083693139
 10
200.51970516424626
 20
316.93649374414235
 10
201.85601926967502
 20
329.2993920398876
 10
196.26303457841277
 20
333.38822099845856
 10
190.12313654273748
 20
330.6762582277879
 10
194.2323441132903
 20
316.1749083693139
  0
LWPOLYLINE
  5
11E
330
17
100
AcDbEntity
  8
0
 62
0
100
AcDbPolyline
 90
7
 70
0
 10
221.61312295822427
 20
344.58523038215935
 10
220.86858555441722
 20
337.69714907743037
 10
229.13492162991315
 20
331.6539295455441
 10
232.49767696205527
 20
333.61903072101995
 10
233.54362974409014
 20
343.2956537697464
 10
227.95064505375922
 20
347.3844827278517
 10
221.61312295822427
 20
344.58523038215935
  0
LWPOLYLINE
  5
11F
330
17
100
AcDbEntity
  8
0
 62
0
100
AcDbPolyline
 90
7
 70
0
 10
201.72894498240203
 20
346.7345247361809
 10
200.98440757812932
 20
339.8464434319176
 10
206.57739226939157
 20
335.7576144733466
 10
212.91491436446086
 20
338.556866819039
 10
213.6594517682679
 20
345.444948123768
 10
208.06646707793698
 20
349.53377708187327
 10
201.72894498240203
 20
346.7345247361809
  0
LWPOLYLINE
  5
120
330
17
100
AcDbEntity
  8
0
 62
0
100
AcDbPolyline
 90
7
 70
0
 10
181.4079897850752
 20
338.4195230975747
 10
185.11264428542927
 20
337.2087788269855
 10
193.03073638817295
 20
340.70616117306054
 10
193.77527379244566
 20
347.59424247732386
 10
188.18228910118341
 20
351.6830714358948
 10
181.54639415070415
 20
348.75202926667407
 10
181.4079897850752
 20
338.4195230975747
  0
LWPOLYLINE
  5
121
330
17
100
AcDbEntity
  8
0
 62
0
100
AcDbPolyline
 90
7
 70
0
 10
213.5323774809949
 20
362.8800808195956
 10
212.78784007718787
 20
355.9919995148666
 10
218.3808247675188
 20
351.9031705567613
 10
224.71834686305374
 20
354.7024229024537
 10
225.46288426686078
 20
361.59050420764834
 10
219.86989957652986
 20
365.67933316575363
 10
213.5323774809949
 20
362.8800808195956
  0
LWPOLYLINE
  5
122
330
17
100
AcDbEntity
  8
0
 62
0
100
AcDbPolyline
 90
7
 70
0
 10
194.1273542754352
 20
369.46227135369554
 10
192.90366210089996
 20
358.14129386935383
 10
198.4966467921622
 20
354.0524649107829
 10
204.8341688872315
 20
356.85171725647524
 10
205.57870629103854
 20
363.7397985612042
 10
196.3398403855972
 20
370.4939995012246
 10
194.1273542754352
 20
369.46227135369554
  0
LWPOLYLINE
  5
123
330
17
100
AcDbEntity
  8
0
 62
0
100
AcDbPolyline
 90
7
 70
0
 10
224.59127257578075
 20
372.137555598747
 10
230.18425726611167
 20
368.0487266406417
 10
236.52177936164662
 20
370.84797898633406
 10
237.26631676591933
 20
377.7360602905974
 10
226.48874042136595
 20
385.61515681864694
 10
226.04371429001912
 20
385.57480745762587
 10
224.59127257578075
 20
372.137555598747
  0
LWPOLYLINE
  5
124
330
17
100
AcDbEntity
  8
0
 62
0
100
AcDbPolyline
 90
7
 70
0
 10
204.8747994499281
 20
385.0311033264734
 10
201.62153129139915
 20
376.54259376460686
 10
210.30007929028943
 20
370.1980209941976
 10
216.63760138582438
 20
372.9972733403556
 10
218.1711311833933
 20
387.18471089424565
 10
217.78716639336199
 20
387.4218484819867
 10
204.8747994499281
 20
385.0311033264734
  0
LWPOLYLINE
  5
125
330
17
100
AcDbEntity
  8
0
 62
0
100
AcDbPolyline
 90
7
 70
0
 10
177.61236421670765
 20
387.51838548108935
 10
178.04707046132535
 20
380.747926981654
 10
190.18527304008603
 20
376.45106469932944
 10
193.63569511007518
 20
378.06006805226207
 10
197.34593120403588
 20
387.74090990936384
 10
191.08585006278008
 20
394.9208794068545
 10
177.61236421670765
 20
387.51838548108935
  0
LWPOLYLINE
  5
126
330
17
100
AcDbEntity
  8
0
 62
0
100
AcDbPolyline
 90
7
 70
0
 10
196.23552914429456
 20
406.35217611677945
 10
196.04245624132454
 20
401.4092933861539
 10
203.45749106863514
 20
392.9046553983353
 10
214.20146206067875
 20
394.8939186153002
 10
212.87414752785116
 20
407.1961677526124
 10
203.8194905067794
 20
410.68723132880405
 10
196.23552914429456
 20
406.35217611677945
  0
LWPOLYLINE
  5
127
330
17
100
AcDbEntity
  8
0
 62
0
100
AcDbPolyline
 90
16
 70
0
 10
190.9812645082258
 20
424.41900607435474
 10
189.62223996461384
 20
424.2174138265892
 10
188.25
 20
424.15
 10
188.09239499143533
 20
424.1577426375787
 10
187.62259869929403
 20
417.59930095495656
 10
192.69865452451631
 20
413.5451915273443
 10
199.64746455848217
 20
417.5171889727935
 10
200.32448796508834
 20
426.9685588609427
 10
198.256488335817
 20
428.3685540879372
 10
198.14949493661166
 20
428.2505050633883
 10
197.13150597829105
 20
427.32785365292165
 10
196.02798326227443
 20
426.50942542776437
 10
194.84955431556398
 20
425.803102299123
 10
193.60756805311127
 20
425.21568654484196
 10
192.31398548156247
 20
424.75283529974905
 10
190.9812645082258
 20
424.41900607435474
  0
LWPOLYLINE
  5
128
330
17
100
AcDbEntity
  8
0
 62
0
100
AcDbPolyline
 90
65
 70
0
 10
22.24701804635074
 20
439.03891237283136
 10
22.153483392047047
 20
439.1650292546618
 10
22.048037516565145
 20
439.28137084989845
 10
21.9316959213285
 20
439.38681672538036
 10
21.80557903949803
 20
439.48035137968407
 10
21.670901445588264
 20
439.56107402295737
 10
21.52896015845081
 20
439.62820725201806
 10
21.381122150273807
 20
439.6811045371715
 10
21.228811181892475
 20
439.7192564486451
 10
21.073494091193965
 20
439.7422955626755
 10
20.916666666666668
 20
439.75
 10
20.75983924213937
 20
439.7422955626755
 10
20.60452215144086
 20
439.7192564486451
 10
20.45221118305953
 20
439.6811045371715
 10
20.304373174882524
 20
439.62820725201806
 10
20.162431887745072
 20
439.56107402295737
 10
20.027754293835304
 20
439.48035137968407
 10
19.901637412004835
 20
439.38681672538036
 10
19.78529581676819
 20
439.28137084989845
 10
19.67984994128629
 20
439.1650292546618
 10
19.586315286982597
 20
439.03891237283136
 10
19.5055926437093
 20
438.9042347789216
 10
19.43845941464861
 20
438.76229349178413
 10
19.385562129495135
 20
438.6144554836071
 10
19.347410218021498
 20
438.46214451522576
 10
19.324371103991155
 20
438.3068274245273
 10
19.316666666666666
 20
438.15
 10
19.324371103991155
 20
437.99317257547267
 10
19.347410218021498
 20
437.8378554847742
 10
19.385562129495135
 20
437.68554451639284
 10
19.43845941464861
 20
437.5377065082158
 10
19.5055926437093
 20
437.39576522107836
 10
19.586315286982597
 20
437.2610876271686
 10
19.67984994128629
 20
437.13497074533814
 10
19.78529581676819
 20
437.0186291501015
 10
19.901637412004835
 20
436.9131832746196
 10
20.027754293835304
 20
436.8196486203159
 10
20.162431887745072
 20
436.7389259770426
 10
20.304373174882524
 20
436.6717927479819
 10
20.45221118305953
 20
436.61889546282845
 10
20.60452215144086
 20
436.58074355135483
 10
20.75983924213937
 20
436.55770443732445
 10
20.916666666666668
 20
436.54999999999995
 10
21.073494091193965
 20
436.55770443732445
 10
21.228811181892475
 20
436.58074355135483
 10
21.381122150273807
 20
436.61889546282845
 10
21.52896015845081
 20
436.6717927479819
 10
21.670901445588264
 20
436.7389259770426
 10
21.80557903949803
 20
436.8196486203159
 10
21.9316959213285
 20
436.9131832746196
 10
22.048037516565145
 20
437.0186291501015
 10
22.153483392047047
 20
437.13497074533814
 10
22.24701804635074
 20
437.2610876271686
 10
22.327740689624036
 20
437.39576522107836
 10
22.394873918684727
 20
437.5377065082158
 10
22.4477712038382
 20
437.68554451639284
 10
22.485923115311838
 20
437.8378554847742
 10
22.50896222934218
 20
437.99317257547267
 10
22.51666666666667
 20
438.15
 10
22.50896222934218
 20
438.3068274245273
 10
22.485923115311838
 20
438.46214451522576
 10
22.4477712038382
 20
438.6144554836071
 10
22.394873918684727
 20
438.76229349178413
 10
22.327740689624036
 20
438.9042347789216
 10
22.24701804635074
 20
439.03891237283136
  0
LWPOLYLINE
  5
129
330
17
100
AcDbEntity
  8
0
 62
0
100
AcDbPolyline
 90
65
 70
0
 10
105.99440735629071
 20
438.9042347789216
 10
105.91368471301742
 20
439.03891237283136
 10
105.82015005871372
 20
439.1650292546618
 10
105.71470418323182
 20
439.28137084989845
 10
105.59836258799517
 20
439.38681672538036
 10
105.4722457061647
 20
439.48035137968407
 10
105.33756811225494
 20
439.56107402295737
 10
105.19562682511749
 20
439.62820725201806
 10
105.04778881694048
 20
439.6811045371715
 10
104.89547784855915
 20
439.7192564486451
 10
104.74016075786064
 20
439.7422955626755
 10
104.58333333333334
 20
439.75
 10
104.42650590880605
 20
439.7422955626755
 10
104.27118881810753
 20
439.7192564486451
 10
104.1188778497262
 20
439.6811045371715
 10
103.9710398415492
 20
439.62820725201806
 10
103.82909855441174
 20
439.56107402295737
 10
103.69442096050199
 20
439.48035137968407
 10
103.5683040786715
 20
439.38681672538036
 10
103.45196248343487
 20
439.28137084989845
 10
103.34651660795296
 20
439.1650292546618
 10
103.25298195364927
 20
439.03891237283136
 10
103.17225931037598
 20
438.9042347789216
 10
103.10512608131529
 20
438.76229349178413
 10
103.05222879616181
 20
438.6144554836071
 10
103.01407688468818
 20
438.46214451522576
 10
102.99103777065783
 20
438.3068274245273
 10
102.98333333333335
 20
438.15
 10
102.99103777065783
 20
437.99317257547267
 10
103.01407688468818
 20
437.8378554847742
 10
103.05222879616181
 20
437.68554451639284
 10
103.10512608131529
 20
437.5377065082158
 10
103.17225931037598
 20
437.39576522107836
 10
103.25298195364927
 20
437.2610876271686
 10
103.34651660795296
 20
437.13497074533814
 10
103.45196248343487
 20
437.0186291501015
 10
103.56830407867152
 20
436.9131832746196
 10
103.69442096050199
 20
436.8196486203159
 10
103.82909855441174
 20
436.7389259770426
 10
103.9710398415492
 20
436.6717927479819
 10
104.1188778497262
 20
436.61889546282845
 10
104.27118881810753
 20
436.58074355135483
 10
104.42650590880605
 20
436.55770443732445
 10
104.58333333333334
 20
436.54999999999995
 10
104.74016075786064
 20
436.55770443732445
 10
104.89547784855915
 20
436.58074355135483
 10
105.04778881694048
 20
436.61889546282845
 10
105.19562682511749
 20
436.6717927479819
 10
105.33756811225494
 20
436.7389259770426
 10
105.47224570616471
 20
436.8196486203159
 10
105.59836258799517
 20
436.9131832746196
 10
105.71470418323182
 20
437.0186291501015
 10
105.82015005871372
 20
437.13497074533814
 10
105.91368471301742
 20
437.2610876271686
 10
105.99440735629071
 20
437.39576522107836
 10
106.0615405853514
 20
437.5377065082158
 10
106.11443787050487
 20
437.68554451639284
 10
106.1525897819785
 20
437.8378554847742
 10
106.17562889600886
 20
437.99317257547267
 10
106.18333333333334
 20
438.15
 10
106.17562889600886
 20
438.3068274245273
 10
106.1525897819785
 20
438.46214451522576
 10
106.11443787050487
 20
438.6144554836071
 10
106.0615405853514
 20
438.76229349178413
 10
105.99440735629071
 20
438.9042347789216
  0
LWPOLYLINE
  5
12A
330
17
100
AcDbEntity
  8
0
 62
0
100
AcDbPolyline
 90
65
 70
0
 10
189.72820725201805
 20
438.76229349178413
 10
189.66107402295737
 20
438.9042347789216
 10
189.58035137968406
 20
439.03891237283136
 10
189.48681672538038
 20
439.1650292546618
 10
189.38137084989847
 20
439.28137084989845
 10
189.26502925466184
 20
439.38681672538036
 10
189.13891237283136
 20
439.48035137968407
 10
189.00423477892159
 20
439.56107402295737
 10
188.86229349178416
 20
439.62820725201806
 10
188.71445548360714
 20
439.6811045371715
 10
188.5621445152258
 20
439.7192564486451
 10
188.4068274245273
 20
439.7422955626755
 10
188.25
 20
439.75
 10
188.0931725754727
 20
439.7422955626755
 10
187.9378554847742
 20
439.7192564486451
 10
187.78554451639286
 20
439.6811045371715
 10
187.63770650821584
 20
439.62820725201806
 10
187.49576522107841
 20
439.56107402295737
 10
187.36108762716864
 20
439.48035137968407
 10
187.23497074533816
 20
439.38681672538036
 10
187.11862915010153
 20
439.28137084989845
 10
187.01318327461962
 20
439.1650292546618
 10
186.91964862031594
 20
439.03891237283136
 10
186.83892597704263
 20
438.9042347789216
 10
186.77179274798195
 20
438.76229349178413
 10
186.71889546282847
 20
438.6144554836071
 10
186.68074355135482
 20
438.46214451522576
 10
186.6577044373245
 20
438.3068274245273
 10
186.65
 20
438.15
 10
186.6577044373245
 20
437.99317257547267
 10
186.68074355135482
 20
437.8378554847742
 10
186.71889546282847
 20
437.68554451639284
 10
186.77179274798195
 20
437.5377065082158
 10
186.83892597704263
 20
437.39576522107836
 10
186.91964862031594
 20
437.2610876271686
 10
187.01318327461962
 20
437.13497074533814
 10
187.11862915010153
 20
437.0186291501015
 10
187.23497074533816
 20
436.9131832746196
 10
187.36108762716864
 20
436.8196486203159
 10
187.49576522107841
 20
436.7389259770426
 10
187.63770650821584
 20
436.6717927479819
 10
187.78554451639286
 20
436.61889546282845
 10
187.9378554847742
 20
436.58074355135483
 10
188.0931725754727
 20
436.55770443732445
 10
188.25
 20
436.54999999999995
 10
188.4068274245273
 20
436.55770443732445
 10
188.5621445152258
 20
436.58074355135483
 10
188.71445548360714
 20
436.61889546282845
 10
188.86229349178416
 20
436.6717927479819
 10
189.00423477892159
 20
436.7389259770426
 10
189.13891237283136
 20
436.8196486203159
 10
189.26502925466184
 20
436.9131832746196
 10
189.38137084989847
 20
437.0186291501015
 10
189.48681672538038
 20
437.13497074533814
 10
189.58035137968406
 20
437.2610876271686
 10
189.66107402295737
 20
437.39576522107836
 10
189.72820725201805
 20
437.5377065082158
 10
189.78110453717153
 20
437.68554451639284
 10
189.81925644864518
 20
437.8378554847742
 10
189.8422955626755
 20
437.99317257547267
 10
189.85
 20
438.15
 10
189.8422955626755
 20
438.3068274245273
 10
189.81925644864518
 20
438.46214451522576
 10
189.78110453717153
 20
438.6144554836071
 10
189.72820725201805
 20
438.76229349178413
  0
LWPOLYLINE
  5
12B
330
17
100
AcDbEntity
  8
0
 62
0
100
AcDbPolyline
 90
65
 70
0
 10
64.28110453717153
 20
19.514455483607136
 10
64.22820725201805
 20
19.66229349178414
 10
64.16107402295737
 20
19.804234778921593
 10
64.08035137968407
 20
19.93891237283136
 10
63.98681672538038
 20
20.06502925466183
 10
63.881370849898474
 20
20.181370849898475
 10
63.76502925466183
 20
20.286816725380376
 10
63.63891237283136
 20
20.380351379684072
 10
63.5042347789216
 20
20.461074022957366
 10
63.36229349178414
 20
20.528207252018056
 10
63.21445548360714
 20
20.58110453717153
 10
63.0621445152258
 20
20.619256448645167
 10
62.90682742452729
 20
20.642295562675514
 10
62.75
 20
20.65
 10
62.5931725754727
 20
20.642295562675514
 10
62.4378554847742
 20
20.619256448645167
 10
62.28554451639286
 20
20.58110453717153
 10
62.13770650821586
 20
20.528207252018056
 10
61.9957652210784
 20
20.461074022957366
 10
61.86108762716864
 20
20.38035137968407
 10
61.73497074533817
 20
20.286816725380376
 10
61.618629150101526
 20
20.181370849898475
 10
61.51318327461962
 20
20.06502925466183
 10
61.419648620315925
 20
19.93891237283136
 10
61.338925977042635
 20
19.804234778921593
 10
61.27179274798194
 20
19.66229349178414
 10
61.21889546282846
 20
19.514455483607136
 10
61.18074355135483
 20
19.362144515225804
 10
61.15770443732448
 20
19.206827424527294
 10
61.15
 20
19.049999999999997
 10
61.15770443732448
 20
18.8931725754727
 10
61.18074355135483
 20
18.73785548477419
 10
61.21889546282846
 20
18.585544516392858
 10
61.27179274798194
 20
18.437706508215854
 10
61.338925977042635
 20
18.2957652210784
 10
61.419648620315925
 20
18.161087627168634
 10
61.51318327461962
 20
18.034970745338164
 10
61.618629150101526
 20
17.91862915010152
 10
61.73497074533817
 20
17.813183274619618
 10
61.86108762716864
 20
17.719648620315926
 10
61.9957652210784
 20
17.63892597704263
 10
62.13770650821586
 20
17.571792747981938
 10
62.28554451639286
 20
17.518895462828464
 10
62.4378554847742
 20
17.480743551354827
 10
62.5931725754727
 20
17.45770443732448
 10
62.75
 20
17.449999999999996
 10
62.9068274245273
 20
17.45770443732448
 10
63.0621445152258
 20
17.480743551354827
 10
63.21445548360714
 20
17.518895462828464
 10
63.36229349178414
 20
17.571792747981938
 10
63.5042347789216
 20
17.63892597704263
 10
63.63891237283136
 20
17.719648620315926
 10
63.76502925466183
 20
17.813183274619618
 10
63.881370849898474
 20
17.91862915010152
 10
63.98681672538038
 20
18.034970745338164
 10
64.08035137968407
 20
18.161087627168634
 10
64.16107402295737
 20
18.2957652210784
 10
64.22820725201805
 20
18.437706508215854
 10
64.28110453717153
 20
18.585544516392858
 10
64.31925644864516
 20
18.73785548477419
 10
64.34229556267552
 20
18.8931725754727
 10
64.35
 20
19.049999999999997
 10
64.34229556267552
 20
19.206827424527294
 10
64.31925644864516
 20
19.362144515225804
 10
64.28110453717153
 20
19.514455483607136
  0
LWPOLYLINE
  5
12C
330
17
100
AcDbEntity
  8
0
 62
0
100
AcDbPolyline
 90
65
 70
0
 10
127.06925644864516
 20
19.362144515225804
 10
127.03110453717153
 20
19.514455483607136
 10
126.97820725201805
 20
19.66229349178414
 10
126.91107402295737
 20
19.804234778921593
 10
126.83035137968407
 20
19.93891237283136
 10
126.73681672538038
 20
20.06502925466183
 10
126.63137084989847
 20
20.181370849898475
 10
126.51502925466183
 20
20.286816725380376
 10
126.38891237283136
 20
20.380351379684072
 10
126.2542347789216
 20
20.461074022957366
 10
126.11229349178414
 20
20.528207252018056
 10
125.96445548360714
 20
20.58110453717153
 10
125.81214451522581
 20
20.619256448645167
 10
125.6568274245273
 20
20.642295562675514
 10
125.5
 20
20.65
 10
125.3431725754727
 20
20.642295562675514
 10
125.18785548477419
 20
20.619256448645167
 10
125.03554451639286
 20
20.58110453717153
 10
124.88770650821586
 20
20.528207252018056
 10
124.7457652210784
 20
20.461074022957366
 10
124.61108762716864
 20
20.38035137968407
 10
124.48497074533816
 20
20.286816725380376
 10
124.36862915010153
 20
20.181370849898475
 10
124.26318327461962
 20
20.06502925466183
 10
124.16964862031593
 20
19.93891237283136
 10
124.08892597704263
 20
19.804234778921593
 10
124.02179274798195
 20
19.66229349178414
 10
123.96889546282847
 20
19.514455483607136
 10
123.93074355135484
 20
19.362144515225804
 10
123.90770443732448
 20
19.206827424527294
 10
123.9
 20
19.049999999999997
 10
123.90770443732448
 20
18.8931725754727
 10
123.93074355135484
 20
18.73785548477419
 10
123.96889546282847
 20
18.585544516392858
 10
124.02179274798195
 20
18.437706508215854
 10
124.08892597704263
 20
18.2957652210784
 10
124.16964862031593
 20
18.161087627168634
 10
124.26318327461962
 20
18.034970745338164
 10
124.36862915010153
 20
17.91862915010152
 10
124.48497074533817
 20
17.813183274619618
 10
124.61108762716864
 20
17.719648620315926
 10
124.7457652210784
 20
17.63892597704263
 10
124.88770650821586
 20
17.571792747981938
 10
125.03554451639286
 20
17.518895462828464
 10
125.18785548477419
 20
17.480743551354827
 10
125.3431725754727
 20
17.45770443732448
 10
125.5
 20
17.449999999999996
 10
125.6568274245273
 20
17.45770443732448
 10
125.81214451522581
 20
17.480743551354827
 10
125.96445548360714
 20
17.518895462828464
 10
126.11229349178414
 20
17.571792747981938
 10
126.2542347789216
 20
17.63892597704263
 10
126.38891237283137
 20
17.719648620315926
 10
126.51502925466183
 20
17.813183274619618
 10
126.63137084989847
 20
17.91862915010152
 10
126.73681672538038
 20
18.034970745338164
 10
126.83035137968407
 20
18.161087627168634
 10
126.91107402295737
 20
18.2957652210784
 10
126.97820725201805
 20
18.437706508215854
 10
127.03110453717153
 20
18.585544516392858
 10
127.06925644864516
 20
18.73785548477419
 10
127.09229556267552
 20
18.8931725754727
 10
127.1
 20
19.049999999999997
 10
127.09229556267552
 20
19.206827424527294
 10
127.06925644864516
 20
19.362144515225804
  0
LWPOLYLINE
  5
12D
330
17
100
AcDbEntity
  8
0
 62
0
100
AcDbPolyline
 90
65
 70
0
 10
189.8422955626755
 20
19.206827424527294
 10
189.81925644864518
 20
19.362144515225804
 10
189.78110453717153
 20
19.514455483607136
 10
189.72820725201805
 20
19.66229349178414
 10
189.66107402295737
 20
19.804234778921593
 10
189.58035137968406
 20
19.93891237283136
 10
189.48681672538038
 20
20.06502925466183
 10
189.38137084989847
 20
20.181370849898475
 10
189.26502925466184
 20
20.286816725380376
 10
189.13891237283136
 20
20.380351379684072
 10
189.00423477892159
 20
20.461074022957366
 10
188.86229349178416
 20
20.528207252018056
 10
188.71445548360714
 20
20.58110453717153
 10
188.5621445152258
 20
20.619256448645167
 10
188.4068274245273
 20
20.642295562675514
 10
188.25
 20
20.65
 10
188.0931725754727
 20
20.642295562675514
 10
187.9378554847742
 20
20.619256448645167
 10
187.78554451639286
 20
20.58110453717153
 10
187.63770650821584
 20
20.528207252018056
 10
187.49576522107841
 20
20.461074022957366
 10
187.36108762716864
 20
20.38035137968407
 10
187.23497074533816
 20
20.286816725380376
 10
187.11862915010153
 20
20.181370849898475
 10
187.01318327461962
 20
20.06502925466183
 10
186.91964862031594
 20
19.93891237283136
 10
186.83892597704263
 20
19.804234778921593
 10
186.77179274798195
 20
19.66229349178414
 10
186.71889546282847
 20
19.514455483607136
 10
186.68074355135482
 20
19.362144515225804
 10
186.6577044373245
 20
19.206827424527294
 10
186.65
 20
19.049999999999997
 10
186.6577044373245
 20
18.8931725754727
 10
186.68074355135482
 20
18.73785548477419
 10
186.71889546282847
 20
18.585544516392858
 10
186.77179274798195
 20
18.437706508215854
 10
186.83892597704263
 20
18.2957652210784
 10
186.91964862031594
 20
18.161087627168634
 10
187.01318327461962
 20
18.034970745338164
 10
187.11862915010153
 20
17.91862915010152
 10
187.23497074533816
 20
17.813183274619618
 10
187.36108762716864
 20
17.719648620315926
 10
187.49576522107841
 20
17.63892597704263
 10
187.63770650821584
 20
17.571792747981938
 10
187.78554451639286
 20
17.518895462828464
 10
187.9378554847742
 20
17.480743551354827
 10
188.0931725754727
 20
17.45770443732448
 10
188.25
 20
17.449999999999996
 10
188.4068274245273
 20
17.45770443732448
 10
188.5621445152258
 20
17.480743551354827
 10
188.71445548360714
 20
17.518895462828464
 10
188.86229349178416
 20
17.571792747981938
 10
189.00423477892159
 20
17.63892597704263
 10
189.13891237283136
 20
17.719648620315926
 10
189.26502925466184
 20
17.813183274619618
 10
189.38137084989847
 20
17.91862915010152
 10
189.48681672538038
 20
18.034970745338164
 10
189.58035137968406
 20
18.161087627168634
 10
189.66107402295737
 20
18.2957652210784
 10
189.72820725201805
 20
18.437706508215854
 10
189.78110453717153
 20
18.585544516392858
 10
189.81925644864518
 20
18.73785548477419
 10
189.8422955626755
 20
18.8931725754727
 10
189.85
 20
19.049999999999997
 10
189.8422955626755
 20
19.206827424527294
  0
ENDSEC
  0
SECTION
  2
OBJECTS
  0
DICTIONARY
  5
A
330
0
100
AcDbDictionary
280
0
281
1
  3
ACAD_COLOR
350
B
  3
ACAD_GROUP
350
C
  3
ACAD_LAYOUT
350
D
  3
ACAD_MATERIAL
350
E
  3
ACAD_MLEADERSTYLE
350
F
  3
ACAD_MLINESTYLE
350
10
  3
ACAD_PLOTSETTINGS
350
11
  3
ACAD_PLOTSTYLENAME
350
12
  3
ACAD_SCALELIST
350
14
  3
ACAD_TABLESTYLE
350
15
  3
ACAD_VISUALSTYLE
350
16
  3
EZDXF_META
350
2D
  0
DICTIONARY
  5
B
330
A
100
AcDbDictionary
280
0
281
1
  0
DICTIONARY
  5
C
330
A
100
AcDbDictionary
280
0
281
1
  0
DICTIONARY
  5
D
330
A
100
AcDbDictionary
280
0
281
1
  3
Model
350
1A
  3
Layout1
350
1E
  0
DICTIONARY
  5
E
330
A
100
AcDbDictionary
280
0
281
1
  3
ByBlock
350
1F
  3
ByLayer
350
20
  3
Global
350
21
  0
DICTIONARY
  5
F
330
A
100
AcDbDictionary
280
0
281
1
  3
Standard
350
2C
  0
DICTIONARY
  5
10
330
A
100
AcDbDictionary
280
0
281
1
  3
Standard
350
22
  0
DICTIONARY
  5
11
330
A
100
AcDbDictionary
280
0
281
1
  0
ACDBDICTIONARYWDFLT
  5
12
330
A
100
AcDbDictionary
280
0
281
1
  3
Normal
350
13
100
AcDbDictionaryWithDefault
340
13
  0
ACDBPLACEHOLDER
  5
13
330
12
  0
DICTIONARY
  5
14
330
A
100
AcDbDictionary
280
0
281
1
  0
DICTIONARY
  5
15
330
A
100
AcDbDictionary
280
0
281
1
  0
DICTIONARY
  5
16
330
A
100
AcDbDictionary
280
0
281
1
  0
LAYOUT
  5
1A
330
D
100
AcDbPlotSettings
  1

  2
Adobe PDF
  4
A3
  6

 40
7.5
 41
20.0
 42
7.5
 43
20.0
 44
420.0
 45
297.0
 46
0.0
 47
0.0
 48
0.0
 49
0.0
140
0.0
141
0.0
142
1.0
143
1.0
 70
1024
 72
1
 73
0
 74
5
  7

 75
16
 76
0
 77
2
 78
300
147
1.0
148
0.0
149
0.0
100
AcDbLayout
  1
Model
 70
1
 71
0
 10
0.0
 20
0.0
 11
420.0
 21
297.0
 12
0.0
 22
0.0
 32
0.0
 14
1e+20
 24
1e+20
 34
1e+20
 15
-1e+20
 25
-1e+20
 35
-1e+20
146
0.0
 13
0.0
 23
0.0
 33
0.0
 16
1.0
 26
0.0
 36
0.0
 17
0.0
 27
1.0
 37
0.0
 76
1
330
17
  0
LAYOUT
  5
1E
330
D
100
AcDbPlotSettings
  1

  2
Adobe PDF
  4
A3
  6

 40
7.5
 41
20.0
 42
7.5
 43
20.0
 44
420.0
 45
297.0
 46
0.0
 47
0.0
 48
0.0
 49
0.0
140
0.0
141
0.0
142
1.0
143
1.0
 70
0
 72
1
 73
0
 74
5
  7

 75
16
 76
0
 77
2
 78
300
147
1.0
148
0.0
149
0.0
100
AcDbLayout
  1
Layout1
 70
1
 71
1
 10
0.0
 20
0.0
 11
420.0
 21
297.0
 12
0.0
 22
0.0
 32
0.0
 14
1e+20
 24
1e+20
 34
1e+20
 15
-1e+20
 25
-1e+20
 35
-1e+20
146
0.0
 13
0.0
 23
0.0
 33
0.0
 16
1.0
 26
0.0
 36
0.0
 17
0.0
 27
1.0
 37
0.0
 76
1
330
1B
  0
MATERIAL
  5
1F
102
{ACAD_REACTORS
330
E
102
}
330
E
100
AcDbMaterial
  1
ByBlock
  2

 70
0
 40
1.0
 71
1
 41
1.0
 91
-1023410177
 42
1.0
 72
1
  3

 73
1
 74
1
 75
1
 44
0.5
 73
0
 45
1.0
 46
1.0
 77
1
  4

 78
1
 79
1
170
1
 48
1.0
171
1
  6

172
1
173
1
174
1
140
1.0
141
1.0
175
1
  7

176
1
177
1
178
1
143
1.0
179
1
  8

270
1
271
1
272
1
145
1.0
146
1.0
273
1
  9

274
1
275
1
276
1
 42
1.0
 72
1
  3

 73
1
 74
1
 75
1
 94
63
  0
MATERIAL
  5
20
102
{ACAD_REACTORS
330
E
102
}
330
E
100
AcDbMaterial
  1
ByLayer
  2

 70
0
 40
1.0
 71
1
 41
1.0
 91
-1023410177
 42
1.0
 72
1
  3

 73
1
 74
1
 75
1
 44
0.5
 73
0
 45
1.0
 46
1.0
 77
1
  4

 78
1
 79
1
170
1
 48
1.0
171
1
  6

172
1
173
1
174
1
140
1.0
141
1.0
175
1
  7

176
1
177
1
178
1
143
1.0
179
1
  8

270
1
271
1
272
1
145
1.0
146
1.0
273
1
  9

274
1
275
1
276
1
 42
1.0
 72
1
  3

 73
1
 74
1
 75
1
 94
63
  0
MATERIAL
  5
21
102
{ACAD_REACTORS
330
E
102
}
330
E
100
AcDbMaterial
  1
Global
  2

 70
0
 40
1.0
 71
1
 41
1.0
 91
-1023410177
 42
1.0
 72
1
  3

 73
1
 74
1
 75
1
 44
0.5
 73
0
 45
1.0
 46
1.0
 77
1
  4

 78
1
 79
1
170
1
 48
1.0
171
1
  6

172
1
173
1
174
1
140
1.0
141
1.0
175
1
  7

176
1
177
1
178
1
143
1.0
179
1
  8

270
1
271
1
272
1
145
1.0
146
1.0
273
1
  9

274
1
275
1
276
1
 42
1.0
 72
1
  3

 73
1
 74
1
 75
1
 94
63
  0
MLINESTYLE
  5
22
102
{ACAD_REACTORS
330
10
102
}
330
10
100
AcDbMlineStyle
  2
Standard
 70
0
  3

 62
256
 51
90.0
 52
90.0
 71
2
 49
0.5
 62
256
  6
BYLAYER
 49
-0.5
 62
256
  6
BYLAYER
  0
MLEADERSTYLE
  5
2C
102
{ACAD_REACTORS
330
F
102
}
330
F
100
AcDbMLeaderStyle
179
2
170
2
171
1
172
0
 90
2
 40
0.0
 41
0.0
173
1
 91
-1056964608
 92
-2
290
1
 42
2.0
291
1
 43
8.0
  3
Standard
 44
4.0
300

342
29
174
1
175
1
176
0
178
1
 93
-1056964608
 45
4.0
292
0
297
0
 46
4.0
 94
-1056964608
 47
1.0
 49
1.0
140
1.0
294
1
141
0.0
177
0
142
1.0
295
0
296
0
143
3.75
271
0
272
9
273
9
  0
DICTIONARY
  5
2D
330
A
100
AcDbDictionary
281
1
  3
CREATED_BY_EZDXF
350
2E
  3
WRITTEN_BY_EZDXF
350
130
  0
DICTIONARYVAR
  5
2E
330
2D
100
DictionaryVariables
280
0
  1
1.1.1 @ 2024-06-06T20:48:10.091307+00:00
  0
DICTIONARYVAR
  5
130
330
2D
100
DictionaryVariables
280
0
  1
1.1.1 @ 2024-06-06T20:48:10.131549+00:00
  0
ENDSEC
  0
EOF
