solid OpenSCAD_Model
  facet normal -0.992709 0.120537 0
    outer loop
      vertex -33.8726 3.10554 0
      vertex -33.8726 3.10554 4
      vertex -33.6316 5.09096 0
    endloop
  endfacet
  facet normal -0.992709 0.120537 0
    outer loop
      vertex -33.6316 5.09096 0
      vertex -33.8726 3.10554 4
      vertex -33.6316 5.09096 4
    endloop
  endfacet
  facet normal -0.551764 -0.834 0
    outer loop
      vertex -33.8726 3.10554 4
      vertex -33.8726 3.10554 0
      vertex -30.1429 0.637974 0
    endloop
  endfacet
  facet normal -0.551764 -0.834 0
    outer loop
      vertex -30.1429 0.637974 4
      vertex -33.8726 3.10554 4
      vertex -30.1429 0.637974 0
    endloop
  endfacet
  facet normal 0 0 -1
    outer loop
      vertex -33.8726 3.10554 0
      vertex -33.6316 5.09096 0
      vertex -30.1429 0.637974 0
    endloop
  endfacet
  facet normal 0 0 -1
    outer loop
      vertex -30.1429 0.637974 0
      vertex -33.6316 5.09096 0
      vertex -29.4197 6.59423 0
    endloop
  endfacet
  facet normal 0 0 -1
    outer loop
      vertex -30.1429 0.637974 0
      vertex -29.4197 6.59423 0
      vertex -25.2117 6.08329 0
    endloop
  endfacet
  facet normal 0 0 -1
    outer loop
      vertex -23.7522 10.5752 0
      vertex -22.8545 12.13 0
      vertex -25.2117 6.08329 0
    endloop
  endfacet
  facet normal 0 0 -1
    outer loop
      vertex -22.8545 12.13 0
      vertex -26.3937 14.573 0
      vertex -28.5495 18.4912 0
    endloop
  endfacet
  facet normal 0 0 -1
    outer loop
      vertex -22.8545 12.13 0
      vertex -28.5495 18.4912 0
      vertex -27.4134 20.1372 0
    endloop
  endfacet
  facet normal 0 0 -1
    outer loop
      vertex -22.8545 12.13 0
      vertex -27.4134 20.1372 0
      vertex -22.9853 19.5109 0
    endloop
  endfacet
  facet normal 0 0 -1
    outer loop
      vertex -22.8545 12.13 0
      vertex -22.9853 19.5109 0
      vertex -19.4342 17.0597 0
    endloop
  endfacet
  facet normal 0 0 -1
    outer loop
      vertex -22.8545 12.13 0
      vertex -19.4342 17.0597 0
      vertex -25.2117 6.08329 0
    endloop
  endfacet
  facet normal 0 0 -1
    outer loop
      vertex -25.2117 6.08329 0
      vertex -19.4342 17.0597 0
      vertex -17.3974 19.3218 0
    endloop
  endfacet
  facet normal 0 0 -1
    outer loop
      vertex -17.3974 19.3218 0
      vertex -14.5968 21.3565 0
      vertex -25.2117 6.08329 0
    endloop
  endfacet
  facet normal 0 0 -1
    outer loop
      vertex -14.5968 21.3565 0
      vertex -16.5981 25.1695 0
      vertex -16.686 29.6408 0
    endloop
  endfacet
  facet normal 0 0 -1
    outer loop
      vertex -14.5968 21.3565 0
      vertex -16.686 29.6408 0
      vertex -14.9151 30.5702 0
    endloop
  endfacet
  facet normal 0 0 -1
    outer loop
      vertex -14.5968 21.3565 0
      vertex -14.9151 30.5702 0
      vertex -11.2853 27.9579 0
    endloop
  endfacet
  facet normal 0 0 -1
    outer loop
      vertex -14.5968 21.3565 0
      vertex -11.2853 27.9579 0
      vertex -9.29527 24.1661 0
    endloop
  endfacet
  facet normal 0 0 -1
    outer loop
      vertex -14.5968 21.3565 0
      vertex -9.29527 24.1661 0
      vertex -25.2117 6.08329 0
    endloop
  endfacet
  facet normal 0 0 -1
    outer loop
      vertex -25.2117 6.08329 0
      vertex -9.29527 24.1661 0
      vertex -8.03444 24.7275 0
    endloop
  endfacet
  facet normal 0 0 -1
    outer loop
      vertex -25.2117 6.08329 0
      vertex -8.03444 24.7275 0
      vertex -30.1429 0.637974 0
    endloop
  endfacet
  facet normal 0 0 -1
    outer loop
      vertex -30.1429 0.637974 0
      vertex -8.03444 24.7275 0
      vertex -3 25.7976 0
    endloop
  endfacet
  facet normal 0 0 -1
    outer loop
      vertex -3 25.7976 0
      vertex -3 30 0
      vertex -1 34 0
    endloop
  endfacet
  facet normal 0 0 -1
    outer loop
      vertex -3 25.7976 0
      vertex -1 34 0
      vertex 1 34 0
    endloop
  endfacet
  facet normal 0 0 -1
    outer loop
      vertex -3 25.7976 0
      vertex 1 34 0
      vertex 3 30 0
    endloop
  endfacet
  facet normal 0 0 -1
    outer loop
      vertex -3 25.7976 0
      vertex 3 30 0
      vertex -30.1429 0.637974 0
    endloop
  endfacet
  facet normal 0 0 -1
    outer loop
      vertex -30.1429 0.637974 0
      vertex 3 30 0
      vertex 3 25.7976 0
    endloop
  endfacet
  facet normal 0 0 -1
    outer loop
      vertex -30.1429 0.637974 0
      vertex 3 25.7976 0
      vertex 8.03444 24.7275 0
    endloop
  endfacet
  facet normal 0 0 -1
    outer loop
      vertex 8.03444 24.7275 0
      vertex 9.29527 24.1661 0
      vertex -30.1429 0.637974 0
    endloop
  endfacet
  facet normal 0 0 -1
    outer loop
      vertex 9.29527 24.1661 0
      vertex 11.2853 27.9579 0
      vertex 14.9151 30.5702 0
    endloop
  endfacet
  facet normal 0 0 -1
    outer loop
      vertex 9.29527 24.1661 0
      vertex 14.9151 30.5702 0
      vertex 16.686 29.6408 0
    endloop
  endfacet
  facet normal 0 0 -1
    outer loop
      vertex 9.29527 24.1661 0
      vertex 16.686 29.6408 0
      vertex 16.5981 25.1695 0
    endloop
  endfacet
  facet normal 0 0 -1
    outer loop
      vertex 9.29527 24.1661 0
      vertex 16.5981 25.1695 0
      vertex -30.1429 0.637974 0
    endloop
  endfacet
  facet normal 0 0 -1
    outer loop
      vertex -30.1429 0.637974 0
      vertex 16.5981 25.1695 0
      vertex 14.5968 21.3565 0
    endloop
  endfacet
  facet normal 0 0 -1
    outer loop
      vertex -30.1429 0.637974 0
      vertex 14.5968 21.3565 0
      vertex 17.3974 19.3218 0
    endloop
  endfacet
  facet normal 0 0 -1
    outer loop
      vertex 17.3974 19.3218 0
      vertex 19.4342 17.0597 0
      vertex -30.1429 0.637974 0
    endloop
  endfacet
  facet normal 0 0 -1
    outer loop
      vertex 19.4342 17.0597 0
      vertex 22.9853 19.5109 0
      vertex 27.4134 20.1372 0
    endloop
  endfacet
  facet normal 0 0 -1
    outer loop
      vertex 19.4342 17.0597 0
      vertex 27.4134 20.1372 0
      vertex 28.5495 18.4912 0
    endloop
  endfacet
  facet normal 0 0 -1
    outer loop
      vertex 19.4342 17.0597 0
      vertex 28.5495 18.4912 0
      vertex -30.1429 0.637974 0
    endloop
  endfacet
  facet normal 0 0 -1
    outer loop
      vertex -30.1429 0.637974 0
      vertex 28.5495 18.4912 0
      vertex 26.3937 14.573 0
    endloop
  endfacet
  facet normal 0 0 -1
    outer loop
      vertex -30.1429 0.637974 0
      vertex 26.3937 14.573 0
      vertex 22.8545 12.13 0
    endloop
  endfacet
  facet normal 0 0 -1
    outer loop
      vertex -30.1429 0.637974 0
      vertex 22.8545 12.13 0
      vertex 23.7522 10.5752 0
    endloop
  endfacet
  facet normal 0 0 -1
    outer loop
      vertex 0.482147 3.97083 0
      vertex 23.7522 10.5752 0
      vertex 25.2117 6.08329 0
    endloop
  endfacet
  facet normal 0 0 -1
    outer loop
      vertex 25.2117 6.08329 0
      vertex 29.4197 6.59423 0
      vertex 33.6316 5.09096 0
    endloop
  endfacet
  facet normal 0 0 -1
    outer loop
      vertex 2.27226 3.29194 0
      vertex 33.8726 3.10554 0
      vertex 3.54182 1.85889 0
    endloop
  endfacet
  facet normal 0 0 -1
    outer loop
      vertex 3.54182 -1.85889 0
      vertex 26 0 0
      vertex 25.4318 -5.4057 0
    endloop
  endfacet
  facet normal 0 0 -1
    outer loop
      vertex -3.88377 0.957263 0
      vertex -30.1429 0.637974 0
      vertex -2.99404 2.65249 0
    endloop
  endfacet
  facet normal 0 0 -1
    outer loop
      vertex -1.41842 -3.74006 0
      vertex 29.1143 -7.8331 0
      vertex 32.1452 -11.1215 0
    endloop
  endfacet
  facet normal 0 0 -1
    outer loop
      vertex 22.9748 -11.9217 0
      vertex 31.4359 -12.9916 0
      vertex 26.9867 -13.4432 0
    endloop
  endfacet
  facet normal 0 0 -1
    outer loop
      vertex 14.7887 -21.2171 0
      vertex 21.7977 -26.1125 0
      vertex 17.6481 -24.4447 0
    endloop
  endfacet
  facet normal 0 0 -1
    outer loop
      vertex 14.7887 -21.2171 0
      vertex 23.2947 -24.7862 0
      vertex 21.7977 -26.1125 0
    endloop
  endfacet
  facet normal 0 0 -1
    outer loop
      vertex 3.25537 -25.7433 0
      vertex 9.10767 -32.7727 0
      vertex 4.26664 -29.8462 0
    endloop
  endfacet
  facet normal 0 0 -1
    outer loop
      vertex -26 0 0
      vertex 22.1392 -20.466 0
      vertex 23.2947 -24.7862 0
    endloop
  endfacet
  facet normal 0 0 -1
    outer loop
      vertex 9.10767 -32.7727 0
      vertex 7.16579 -33.2513 0
      vertex 4.26664 -29.8462 0
    endloop
  endfacet
  facet normal 0 0 -1
    outer loop
      vertex 10.0923 -28.4103 0
      vertex 9.10767 -32.7727 0
      vertex 3.25537 -25.7433 0
    endloop
  endfacet
  facet normal 0 0 -1
    outer loop
      vertex -10.0923 -28.4103 0
      vertex -7.16579 -33.2513 0
      vertex -9.10767 -32.7727 0
    endloop
  endfacet
  facet normal 0 0 -1
    outer loop
      vertex -25.1336 -6.32344 0
      vertex -22.9748 -11.9217 0
      vertex -29.1143 -7.8331 0
    endloop
  endfacet
  facet normal 0 0 -1
    outer loop
      vertex -9.07083 -24.266 0
      vertex -4.26664 -29.8462 0
      vertex -10.0923 -28.4103 0
    endloop
  endfacet
  facet normal 0 0 -1
    outer loop
      vertex -29.1143 -7.8331 0
      vertex -31.4359 -12.9916 0
      vertex -32.1452 -11.1215 0
    endloop
  endfacet
  facet normal 0 0 -1
    outer loop
      vertex -4.26664 -29.8462 0
      vertex -7.16579 -33.2513 0
      vertex -10.0923 -28.4103 0
    endloop
  endfacet
  facet normal 0 0 -1
    outer loop
      vertex -26 0 0
      vertex 23.2947 -24.7862 0
      vertex 14.7887 -21.2171 0
    endloop
  endfacet
  facet normal 0 0 -1
    outer loop
      vertex -3.25537 -25.7433 0
      vertex -4.26664 -29.8462 0
      vertex -9.07083 -24.266 0
    endloop
  endfacet
  facet normal 0 0 -1
    outer loop
      vertex -26 0 0
      vertex 32.1452 -11.1215 0
      vertex 31.4359 -12.9916 0
    endloop
  endfacet
  facet normal 0 0 -1
    outer loop
      vertex -26 0 0
      vertex 21.0344 -15.2824 0
      vertex 19.2766 -17.2347 0
    endloop
  endfacet
  facet normal 0 0 -1
    outer loop
      vertex -22.9748 -11.9217 0
      vertex -19.2766 -17.2347 0
      vertex -21.0344 -15.2824 0
    endloop
  endfacet
  facet normal 0 0 -1
    outer loop
      vertex -26 0 0
      vertex 22.9748 -11.9217 0
      vertex 21.0344 -15.2824 0
    endloop
  endfacet
  facet normal 0 0 -1
    outer loop
      vertex -22.1392 -20.466 0
      vertex -21.7977 -26.1125 0
      vertex -23.2947 -24.7862 0
    endloop
  endfacet
  facet normal 0 0 -1
    outer loop
      vertex -17.6481 -24.4447 0
      vertex -21.7977 -26.1125 0
      vertex -22.1392 -20.466 0
    endloop
  endfacet
  facet normal 0 0 -1
    outer loop
      vertex -19.2766 -17.2347 0
      vertex -22.9748 -11.9217 0
      vertex -14.7887 -21.2171 0
    endloop
  endfacet
  facet normal 0 0 -1
    outer loop
      vertex -26 0 0
      vertex 19.2766 -17.2347 0
      vertex 22.1392 -20.466 0
    endloop
  endfacet
  facet normal 0 0 -1
    outer loop
      vertex -26.9867 -13.4432 0
      vertex -29.1143 -7.8331 0
      vertex -22.9748 -11.9217 0
    endloop
  endfacet
  facet normal 0 0 -1
    outer loop
      vertex -26 0 0
      vertex 31.4359 -12.9916 0
      vertex 22.9748 -11.9217 0
    endloop
  endfacet
  facet normal 0 0 -1
    outer loop
      vertex -19.2766 -17.2347 0
      vertex -17.6481 -24.4447 0
      vertex -22.1392 -20.466 0
    endloop
  endfacet
  facet normal 0 0 -1
    outer loop
      vertex -25.1336 -6.32344 0
      vertex -9.07083 -24.266 0
      vertex -13 -22.5167 0
    endloop
  endfacet
  facet normal 0 0 -1
    outer loop
      vertex -29.1143 -7.8331 0
      vertex -26.9867 -13.4432 0
      vertex -31.4359 -12.9916 0
    endloop
  endfacet
  facet normal 0 0 -1
    outer loop
      vertex -25.1336 -6.32344 0
      vertex -14.7887 -21.2171 0
      vertex -22.9748 -11.9217 0
    endloop
  endfacet
  facet normal 0 0 -1
    outer loop
      vertex -25.1336 -6.32344 0
      vertex -13 -22.5167 0
      vertex -14.7887 -21.2171 0
    endloop
  endfacet
  facet normal 0 0 -1
    outer loop
      vertex -3.25537 -25.7433 0
      vertex -9.07083 -24.266 0
      vertex -25.1336 -6.32344 0
    endloop
  endfacet
  facet normal 0 0 -1
    outer loop
      vertex -3.25537 -25.7433 0
      vertex -25.1336 -6.32344 0
      vertex -25.4318 -5.4057 0
    endloop
  endfacet
  facet normal 0 0 -1
    outer loop
      vertex 3.54182 1.85889 0
      vertex 26 0 0
      vertex 4 0 0
    endloop
  endfacet
  facet normal 0 0 -1
    outer loop
      vertex -1.41842 -3.74006 0
      vertex -25.986 0.133237 0
      vertex -2.99404 -2.65249 0
    endloop
  endfacet
  facet normal 0 0 -1
    outer loop
      vertex 2.27226 3.29194 0
      vertex 33.6316 5.09096 0
      vertex 33.8726 3.10554 0
    endloop
  endfacet
  facet normal 0 0 -1
    outer loop
      vertex 3.54182 1.85889 0
      vertex 33.8726 3.10554 0
      vertex 30.1429 0.637974 0
    endloop
  endfacet
  facet normal 0 0 -1
    outer loop
      vertex 3.54182 -1.85889 0
      vertex 25.4318 -5.4057 0
      vertex 2.27226 -3.29194 0
    endloop
  endfacet
  facet normal 0 0 -1
    outer loop
      vertex -1.41842 -3.74006 0
      vertex -26 0 0
      vertex -25.986 0.133237 0
    endloop
  endfacet
  facet normal 0 0 -1
    outer loop
      vertex 0.482147 -3.97083 0
      vertex 29.1143 -7.8331 0
      vertex -1.41842 -3.74006 0
    endloop
  endfacet
  facet normal 0 0 -1
    outer loop
      vertex -26 0 0
      vertex -1.41842 -3.74006 0
      vertex 32.1452 -11.1215 0
    endloop
  endfacet
  facet normal 0 0 -1
    outer loop
      vertex 2.27226 -3.29194 0
      vertex 29.1143 -7.8331 0
      vertex 0.482147 -3.97083 0
    endloop
  endfacet
  facet normal 0 0 -1
    outer loop
      vertex 2.27226 -3.29194 0
      vertex 25.1336 -6.32344 0
      vertex 29.1143 -7.8331 0
    endloop
  endfacet
  facet normal 0 0 -1
    outer loop
      vertex 25.4318 -5.4057 0
      vertex 25.1336 -6.32344 0
      vertex 2.27226 -3.29194 0
    endloop
  endfacet
  facet normal 0 0 -1
    outer loop
      vertex 3.54182 1.85889 0
      vertex 25.986 0.133237 0
      vertex 26 0 0
    endloop
  endfacet
  facet normal 0 0 -1
    outer loop
      vertex 3.54182 1.85889 0
      vertex 30.1429 0.637974 0
      vertex 25.986 0.133237 0
    endloop
  endfacet
  facet normal 0 0 -1
    outer loop
      vertex 4 0 0
      vertex 26 0 0
      vertex 3.54182 -1.85889 0
    endloop
  endfacet
  facet normal 0 0 -1
    outer loop
      vertex -2.99404 -2.65249 0
      vertex -30.1429 0.637974 0
      vertex -3.88377 -0.957263 0
    endloop
  endfacet
  facet normal 0 0 -1
    outer loop
      vertex -2.99404 -2.65249 0
      vertex -25.986 0.133237 0
      vertex -30.1429 0.637974 0
    endloop
  endfacet
  facet normal 0 0 -1
    outer loop
      vertex -3.88377 -0.957263 0
      vertex -30.1429 0.637974 0
      vertex -3.88377 0.957263 0
    endloop
  endfacet
  facet normal 0 0 -1
    outer loop
      vertex 25.2117 6.08329 0
      vertex 33.6316 5.09096 0
      vertex 2.27226 3.29194 0
    endloop
  endfacet
  facet normal 0 0 -1
    outer loop
      vertex -30.1429 0.637974 0
      vertex 23.7522 10.5752 0
      vertex 0.482147 3.97083 0
    endloop
  endfacet
  facet normal 0 0 -1
    outer loop
      vertex -2.99404 2.65249 0
      vertex -30.1429 0.637974 0
      vertex -1.41842 3.74006 0
    endloop
  endfacet
  facet normal 0 0 -1
    outer loop
      vertex -30.1429 0.637974 0
      vertex 0.482147 3.97083 0
      vertex -1.41842 3.74006 0
    endloop
  endfacet
  facet normal 0 0 -1
    outer loop
      vertex 0.482147 3.97083 0
      vertex 25.2117 6.08329 0
      vertex 2.27226 3.29194 0
    endloop
  endfacet
  facet normal 0 0 -1
    outer loop
      vertex -17.6481 -24.4447 0
      vertex -19.2766 -17.2347 0
      vertex -14.7887 -21.2171 0
    endloop
  endfacet
  facet normal 0 0 -1
    outer loop
      vertex -26 0 0
      vertex 14.7887 -21.2171 0
      vertex 13 -22.5167 0
    endloop
  endfacet
  facet normal 0 0 -1
    outer loop
      vertex -26 0 0
      vertex 13 -22.5167 0
      vertex 9.07083 -24.266 0
    endloop
  endfacet
  facet normal 0 0 -1
    outer loop
      vertex -26 0 0
      vertex 9.07083 -24.266 0
      vertex 10.0923 -28.4103 0
    endloop
  endfacet
  facet normal 0 0 -1
    outer loop
      vertex -26 0 0
      vertex 10.0923 -28.4103 0
      vertex 3.25537 -25.7433 0
    endloop
  endfacet
  facet normal 0 0 -1
    outer loop
      vertex -26 0 0
      vertex 3.25537 -25.7433 0
      vertex 2.71774 -25.8576 0
    endloop
  endfacet
  facet normal 0 0 -1
    outer loop
      vertex -26 0 0
      vertex 2.71774 -25.8576 0
      vertex -2.71774 -25.8576 0
    endloop
  endfacet
  facet normal 0 0 -1
    outer loop
      vertex -26 0 0
      vertex -2.71774 -25.8576 0
      vertex -3.25537 -25.7433 0
    endloop
  endfacet
  facet normal 0 0 -1
    outer loop
      vertex -26 0 0
      vertex -3.25537 -25.7433 0
      vertex -25.4318 -5.4057 0
    endloop
  endfacet
  facet normal -0.336142 0.941811 0
    outer loop
      vertex -33.6316 5.09096 0
      vertex -33.6316 5.09096 4
      vertex -29.4197 6.59423 0
    endloop
  endfacet
  facet normal -0.336142 0.941811 0
    outer loop
      vertex -29.4197 6.59423 0
      vertex -33.6316 5.09096 4
      vertex -29.4197 6.59423 4
    endloop
  endfacet
  facet normal 0 0 1
    outer loop
      vertex -25.1336 -6.32344 4
      vertex -22.9748 -11.9217 4
      vertex -25.986 0.133237 4
    endloop
  endfacet
  facet normal 0 0 1
    outer loop
      vertex -33.6316 5.09096 4
      vertex -33.8726 3.10554 4
      vertex -30.1429 0.637974 4
    endloop
  endfacet
  facet normal 0 0 1
    outer loop
      vertex 13 -22.5167 4
      vertex -33.6316 5.09096 4
      vertex -25.986 0.133237 4
    endloop
  endfacet
  facet normal 0 0 1
    outer loop
      vertex -25.986 0.133237 4
      vertex -33.6316 5.09096 4
      vertex -30.1429 0.637974 4
    endloop
  endfacet
  facet normal 0 0 1
    outer loop
      vertex -25.4318 -5.4057 4
      vertex -25.986 0.133237 4
      vertex -26 0 4
    endloop
  endfacet
  facet normal 0 0 1
    outer loop
      vertex -25.1336 -6.32344 4
      vertex -25.986 0.133237 4
      vertex -25.4318 -5.4057 4
    endloop
  endfacet
  facet normal 0 0 1
    outer loop
      vertex -29.1143 -7.8331 4
      vertex -32.1452 -11.1215 4
      vertex -25.1336 -6.32344 4
    endloop
  endfacet
  facet normal 0 0 1
    outer loop
      vertex -19.2766 -17.2347 4
      vertex -14.7887 -21.2171 4
      vertex -25.986 0.133237 4
    endloop
  endfacet
  facet normal 0 0 1
    outer loop
      vertex -32.1452 -11.1215 4
      vertex -31.4359 -12.9916 4
      vertex -25.1336 -6.32344 4
    endloop
  endfacet
  facet normal 0 0 1
    outer loop
      vertex -31.4359 -12.9916 4
      vertex -26.9867 -13.4432 4
      vertex -25.1336 -6.32344 4
    endloop
  endfacet
  facet normal 0 0 1
    outer loop
      vertex -22.1392 -20.466 4
      vertex -23.2947 -24.7862 4
      vertex -19.2766 -17.2347 4
    endloop
  endfacet
  facet normal 0 0 1
    outer loop
      vertex -26.9867 -13.4432 4
      vertex -22.9748 -11.9217 4
      vertex -25.1336 -6.32344 4
    endloop
  endfacet
  facet normal 0 0 1
    outer loop
      vertex -22.9748 -11.9217 4
      vertex -21.0344 -15.2824 4
      vertex -25.986 0.133237 4
    endloop
  endfacet
  facet normal 0 0 1
    outer loop
      vertex -21.0344 -15.2824 4
      vertex -19.2766 -17.2347 4
      vertex -25.986 0.133237 4
    endloop
  endfacet
  facet normal 0 0 1
    outer loop
      vertex -9.07083 -24.266 4
      vertex -4.26664 -29.8462 4
      vertex -25.986 0.133237 4
    endloop
  endfacet
  facet normal 0 0 1
    outer loop
      vertex -23.2947 -24.7862 4
      vertex -21.7977 -26.1125 4
      vertex -19.2766 -17.2347 4
    endloop
  endfacet
  facet normal 0 0 1
    outer loop
      vertex -21.7977 -26.1125 4
      vertex -17.6481 -24.4447 4
      vertex -19.2766 -17.2347 4
    endloop
  endfacet
  facet normal 0 0 1
    outer loop
      vertex -10.0923 -28.4103 4
      vertex -9.10767 -32.7727 4
      vertex -9.07083 -24.266 4
    endloop
  endfacet
  facet normal 0 0 1
    outer loop
      vertex -17.6481 -24.4447 4
      vertex -14.7887 -21.2171 4
      vertex -19.2766 -17.2347 4
    endloop
  endfacet
  facet normal 0 0 1
    outer loop
      vertex -14.7887 -21.2171 4
      vertex -13 -22.5167 4
      vertex -25.986 0.133237 4
    endloop
  endfacet
  facet normal 0 0 1
    outer loop
      vertex -13 -22.5167 4
      vertex -9.07083 -24.266 4
      vertex -25.986 0.133237 4
    endloop
  endfacet
  facet normal 0 0 1
    outer loop
      vertex -3.25537 -25.7433 4
      vertex -2.71774 -25.8576 4
      vertex -25.986 0.133237 4
    endloop
  endfacet
  facet normal 0 0 1
    outer loop
      vertex -9.10767 -32.7727 4
      vertex -7.16579 -33.2513 4
      vertex -9.07083 -24.266 4
    endloop
  endfacet
  facet normal 0 0 1
    outer loop
      vertex -7.16579 -33.2513 4
      vertex -4.26664 -29.8462 4
      vertex -9.07083 -24.266 4
    endloop
  endfacet
  facet normal 0 0 1
    outer loop
      vertex 4.26664 -29.8462 4
      vertex 7.16579 -33.2513 4
      vertex 3.25537 -25.7433 4
    endloop
  endfacet
  facet normal 0 0 1
    outer loop
      vertex -4.26664 -29.8462 4
      vertex -3.25537 -25.7433 4
      vertex -25.986 0.133237 4
    endloop
  endfacet
  facet normal 0 0 1
    outer loop
      vertex 3.25537 -25.7433 4
      vertex 10.0923 -28.4103 4
      vertex -25.986 0.133237 4
    endloop
  endfacet
  facet normal 0 0 1
    outer loop
      vertex -2.71774 -25.8576 4
      vertex 2.71774 -25.8576 4
      vertex -25.986 0.133237 4
    endloop
  endfacet
  facet normal 0 0 1
    outer loop
      vertex 2.71774 -25.8576 4
      vertex 3.25537 -25.7433 4
      vertex -25.986 0.133237 4
    endloop
  endfacet
  facet normal 0 0 1
    outer loop
      vertex 9.07083 -24.266 4
      vertex 13 -22.5167 4
      vertex -25.986 0.133237 4
    endloop
  endfacet
  facet normal 0 0 1
    outer loop
      vertex 7.16579 -33.2513 4
      vertex 9.10767 -32.7727 4
      vertex 3.25537 -25.7433 4
    endloop
  endfacet
  facet normal 0 0 1
    outer loop
      vertex 9.10767 -32.7727 4
      vertex 10.0923 -28.4103 4
      vertex 3.25537 -25.7433 4
    endloop
  endfacet
  facet normal 0 0 1
    outer loop
      vertex 17.6481 -24.4447 4
      vertex 21.7977 -26.1125 4
      vertex 14.7887 -21.2171 4
    endloop
  endfacet
  facet normal 0 0 1
    outer loop
      vertex 10.0923 -28.4103 4
      vertex 9.07083 -24.266 4
      vertex -25.986 0.133237 4
    endloop
  endfacet
  facet normal 0 0 1
    outer loop
      vertex 14.7887 -21.2171 4
      vertex 23.2947 -24.7862 4
      vertex -33.6316 5.09096 4
    endloop
  endfacet
  facet normal 0 0 1
    outer loop
      vertex 13 -22.5167 4
      vertex 14.7887 -21.2171 4
      vertex -33.6316 5.09096 4
    endloop
  endfacet
  facet normal 0 0 1
    outer loop
      vertex 19.2766 -17.2347 4
      vertex 21.0344 -15.2824 4
      vertex -33.6316 5.09096 4
    endloop
  endfacet
  facet normal 0 0 1
    outer loop
      vertex 21.7977 -26.1125 4
      vertex 23.2947 -24.7862 4
      vertex 14.7887 -21.2171 4
    endloop
  endfacet
  facet normal 0 0 1
    outer loop
      vertex 23.2947 -24.7862 4
      vertex 22.1392 -20.466 4
      vertex -33.6316 5.09096 4
    endloop
  endfacet
  facet normal 0 0 1
    outer loop
      vertex 26.9867 -13.4432 4
      vertex 31.4359 -12.9916 4
      vertex 22.9748 -11.9217 4
    endloop
  endfacet
  facet normal 0 0 1
    outer loop
      vertex 22.1392 -20.466 4
      vertex 19.2766 -17.2347 4
      vertex -33.6316 5.09096 4
    endloop
  endfacet
  facet normal 0 0 1
    outer loop
      vertex 22.9748 -11.9217 4
      vertex 31.4359 -12.9916 4
      vertex -33.6316 5.09096 4
    endloop
  endfacet
  facet normal 0 0 1
    outer loop
      vertex 21.0344 -15.2824 4
      vertex 22.9748 -11.9217 4
      vertex -33.6316 5.09096 4
    endloop
  endfacet
  facet normal 0 0 1
    outer loop
      vertex -3.88377 -0.957263 4
      vertex -3.88377 0.957263 4
      vertex -33.6316 5.09096 4
    endloop
  endfacet
  facet normal 0 0 1
    outer loop
      vertex -3.88377 0.957263 4
      vertex -2.99404 2.65249 4
      vertex -33.6316 5.09096 4
    endloop
  endfacet
  facet normal 0 0 1
    outer loop
      vertex 0.482147 3.97083 4
      vertex 2.27226 3.29194 4
      vertex 30.1429 0.637974 4
    endloop
  endfacet
  facet normal 0 0 1
    outer loop
      vertex -2.99404 2.65249 4
      vertex -1.41842 3.74006 4
      vertex -33.6316 5.09096 4
    endloop
  endfacet
  facet normal 0 0 1
    outer loop
      vertex 0.482147 3.97083 4
      vertex 33.8726 3.10554 4
      vertex -33.6316 5.09096 4
    endloop
  endfacet
  facet normal 0 0 1
    outer loop
      vertex 33.8726 3.10554 4
      vertex 33.6316 5.09096 4
      vertex -33.6316 5.09096 4
    endloop
  endfacet
  facet normal 0 0 1
    outer loop
      vertex 22.9853 19.5109 4
      vertex 19.4342 17.0597 4
      vertex 27.4134 20.1372 4
    endloop
  endfacet
  facet normal 0 0 1
    outer loop
      vertex -1.41842 -3.74006 4
      vertex -2.99404 -2.65249 4
      vertex -33.6316 5.09096 4
    endloop
  endfacet
  facet normal 0 0 1
    outer loop
      vertex 33.6316 5.09096 4
      vertex 25.2117 6.08329 4
      vertex -33.6316 5.09096 4
    endloop
  endfacet
  facet normal 0 0 1
    outer loop
      vertex 33.6316 5.09096 4
      vertex 29.4197 6.59423 4
      vertex 25.2117 6.08329 4
    endloop
  endfacet
  facet normal 0 0 1
    outer loop
      vertex -1 34 4
      vertex -3 30 4
      vertex 1 34 4
    endloop
  endfacet
  facet normal 0 0 1
    outer loop
      vertex -2.99404 -2.65249 4
      vertex -3.88377 -0.957263 4
      vertex -33.6316 5.09096 4
    endloop
  endfacet
  facet normal 0 0 1
    outer loop
      vertex 28.5495 18.4912 4
      vertex 27.4134 20.1372 4
      vertex 19.4342 17.0597 4
    endloop
  endfacet
  facet normal 0 0 1
    outer loop
      vertex -19.4342 17.0597 4
      vertex -22.9853 19.5109 4
      vertex -26.3937 14.573 4
    endloop
  endfacet
  facet normal 0 0 1
    outer loop
      vertex 16.686 29.6408 4
      vertex 14.9151 30.5702 4
      vertex 11.2853 27.9579 4
    endloop
  endfacet
  facet normal 0 0 1
    outer loop
      vertex 16.5981 25.1695 4
      vertex 16.686 29.6408 4
      vertex 9.29527 24.1661 4
    endloop
  endfacet
  facet normal 0 0 1
    outer loop
      vertex -25.2117 6.08329 4
      vertex -29.4197 6.59423 4
      vertex -33.6316 5.09096 4
    endloop
  endfacet
  facet normal 0 0 1
    outer loop
      vertex -22.8545 12.13 4
      vertex -23.7522 10.5752 4
      vertex 3 25.7976 4
    endloop
  endfacet
  facet normal 0 0 1
    outer loop
      vertex -23.7522 10.5752 4
      vertex 17.3974 19.3218 4
      vertex 14.5968 21.3565 4
    endloop
  endfacet
  facet normal 0 0 1
    outer loop
      vertex 3 30 4
      vertex 1 34 4
      vertex -3 30 4
    endloop
  endfacet
  facet normal 0 0 1
    outer loop
      vertex 3 25.7976 4
      vertex 3 30 4
      vertex -3 25.7976 4
    endloop
  endfacet
  facet normal 0 0 1
    outer loop
      vertex -23.7522 10.5752 4
      vertex 9.29527 24.1661 4
      vertex 8.03444 24.7275 4
    endloop
  endfacet
  facet normal 0 0 1
    outer loop
      vertex -28.5495 18.4912 4
      vertex -22.9853 19.5109 4
      vertex -27.4134 20.1372 4
    endloop
  endfacet
  facet normal 0 0 1
    outer loop
      vertex -16.5981 25.1695 4
      vertex -14.5968 21.3565 4
      vertex -11.2853 27.9579 4
    endloop
  endfacet
  facet normal 0 0 1
    outer loop
      vertex -23.7522 10.5752 4
      vertex 16.5981 25.1695 4
      vertex 9.29527 24.1661 4
    endloop
  endfacet
  facet normal 0 0 1
    outer loop
      vertex -11.2853 27.9579 4
      vertex -14.9151 30.5702 4
      vertex -16.5981 25.1695 4
    endloop
  endfacet
  facet normal 0 0 1
    outer loop
      vertex -9.29527 24.1661 4
      vertex -14.5968 21.3565 4
      vertex -19.4342 17.0597 4
    endloop
  endfacet
  facet normal 0 0 1
    outer loop
      vertex -16.686 29.6408 4
      vertex -16.5981 25.1695 4
      vertex -14.9151 30.5702 4
    endloop
  endfacet
  facet normal 0 0 1
    outer loop
      vertex -3 30 4
      vertex -3 25.7976 4
      vertex 3 30 4
    endloop
  endfacet
  facet normal 0 0 1
    outer loop
      vertex -28.5495 18.4912 4
      vertex -26.3937 14.573 4
      vertex -22.9853 19.5109 4
    endloop
  endfacet
  facet normal 0 0 1
    outer loop
      vertex -19.4342 17.0597 4
      vertex -3 25.7976 4
      vertex -8.03444 24.7275 4
    endloop
  endfacet
  facet normal 0 0 1
    outer loop
      vertex -19.4342 17.0597 4
      vertex -8.03444 24.7275 4
      vertex -9.29527 24.1661 4
    endloop
  endfacet
  facet normal 0 0 1
    outer loop
      vertex 3 25.7976 4
      vertex -3 25.7976 4
      vertex -22.8545 12.13 4
    endloop
  endfacet
  facet normal 0 0 1
    outer loop
      vertex -26.3937 14.573 4
      vertex -22.8545 12.13 4
      vertex -19.4342 17.0597 4
    endloop
  endfacet
  facet normal 0 0 1
    outer loop
      vertex -23.7522 10.5752 4
      vertex 14.5968 21.3565 4
      vertex 16.5981 25.1695 4
    endloop
  endfacet
  facet normal 0 0 1
    outer loop
      vertex 23.7522 10.5752 4
      vertex -25.2117 6.08329 4
      vertex -33.6316 5.09096 4
    endloop
  endfacet
  facet normal 0 0 1
    outer loop
      vertex 23.7522 10.5752 4
      vertex 22.8545 12.13 4
      vertex -25.2117 6.08329 4
    endloop
  endfacet
  facet normal 0 0 1
    outer loop
      vertex 2.27226 -3.29194 4
      vertex 0.482147 -3.97083 4
      vertex 32.1452 -11.1215 4
    endloop
  endfacet
  facet normal 0 0 1
    outer loop
      vertex 3.54182 1.85889 4
      vertex 4 0 4
      vertex 26 0 4
    endloop
  endfacet
  facet normal 0 0 1
    outer loop
      vertex 3.54182 -1.85889 4
      vertex 2.27226 -3.29194 4
      vertex 29.1143 -7.8331 4
    endloop
  endfacet
  facet normal 0 0 1
    outer loop
      vertex 2.27226 3.29194 4
      vertex 25.986 0.133237 4
      vertex 30.1429 0.637974 4
    endloop
  endfacet
  facet normal 0 0 1
    outer loop
      vertex -1.41842 3.74006 4
      vertex 0.482147 3.97083 4
      vertex -33.6316 5.09096 4
    endloop
  endfacet
  facet normal 0 0 1
    outer loop
      vertex 2.27226 3.29194 4
      vertex 26 0 4
      vertex 25.986 0.133237 4
    endloop
  endfacet
  facet normal 0 0 1
    outer loop
      vertex 0.482147 3.97083 4
      vertex 30.1429 0.637974 4
      vertex 33.8726 3.10554 4
    endloop
  endfacet
  facet normal 0 0 1
    outer loop
      vertex 2.27226 3.29194 4
      vertex 3.54182 1.85889 4
      vertex 26 0 4
    endloop
  endfacet
  facet normal 0 0 1
    outer loop
      vertex 4 0 4
      vertex 3.54182 -1.85889 4
      vertex 25.4318 -5.4057 4
    endloop
  endfacet
  facet normal 0 0 1
    outer loop
      vertex 3.54182 -1.85889 4
      vertex 29.1143 -7.8331 4
      vertex 25.1336 -6.32344 4
    endloop
  endfacet
  facet normal 0 0 1
    outer loop
      vertex 25.4318 -5.4057 4
      vertex 26 0 4
      vertex 4 0 4
    endloop
  endfacet
  facet normal 0 0 1
    outer loop
      vertex 25.1336 -6.32344 4
      vertex 25.4318 -5.4057 4
      vertex 3.54182 -1.85889 4
    endloop
  endfacet
  facet normal 0 0 1
    outer loop
      vertex 32.1452 -11.1215 4
      vertex 29.1143 -7.8331 4
      vertex 2.27226 -3.29194 4
    endloop
  endfacet
  facet normal 0 0 1
    outer loop
      vertex 31.4359 -12.9916 4
      vertex 32.1452 -11.1215 4
      vertex 0.482147 -3.97083 4
    endloop
  endfacet
  facet normal 0 0 1
    outer loop
      vertex 31.4359 -12.9916 4
      vertex -1.41842 -3.74006 4
      vertex -33.6316 5.09096 4
    endloop
  endfacet
  facet normal 0 0 1
    outer loop
      vertex 31.4359 -12.9916 4
      vertex 0.482147 -3.97083 4
      vertex -1.41842 -3.74006 4
    endloop
  endfacet
  facet normal 0 0 1
    outer loop
      vertex 25.2117 6.08329 4
      vertex 23.7522 10.5752 4
      vertex -33.6316 5.09096 4
    endloop
  endfacet
  facet normal 0 0 1
    outer loop
      vertex 11.2853 27.9579 4
      vertex 9.29527 24.1661 4
      vertex 16.686 29.6408 4
    endloop
  endfacet
  facet normal 0 0 1
    outer loop
      vertex 8.03444 24.7275 4
      vertex 3 25.7976 4
      vertex -23.7522 10.5752 4
    endloop
  endfacet
  facet normal 0 0 1
    outer loop
      vertex -17.3974 19.3218 4
      vertex -19.4342 17.0597 4
      vertex -14.5968 21.3565 4
    endloop
  endfacet
  facet normal 0 0 1
    outer loop
      vertex -19.4342 17.0597 4
      vertex -22.8545 12.13 4
      vertex -3 25.7976 4
    endloop
  endfacet
  facet normal 0 0 1
    outer loop
      vertex -9.29527 24.1661 4
      vertex -11.2853 27.9579 4
      vertex -14.5968 21.3565 4
    endloop
  endfacet
  facet normal 0 0 1
    outer loop
      vertex -23.7522 10.5752 4
      vertex 19.4342 17.0597 4
      vertex 17.3974 19.3218 4
    endloop
  endfacet
  facet normal 0 0 1
    outer loop
      vertex 19.4342 17.0597 4
      vertex 26.3937 14.573 4
      vertex 28.5495 18.4912 4
    endloop
  endfacet
  facet normal 0 0 1
    outer loop
      vertex -23.7522 10.5752 4
      vertex 26.3937 14.573 4
      vertex 19.4342 17.0597 4
    endloop
  endfacet
  facet normal 0 0 1
    outer loop
      vertex -23.7522 10.5752 4
      vertex 22.8545 12.13 4
      vertex 26.3937 14.573 4
    endloop
  endfacet
  facet normal 0 0 1
    outer loop
      vertex -23.7522 10.5752 4
      vertex -25.2117 6.08329 4
      vertex 22.8545 12.13 4
    endloop
  endfacet
  facet normal -0.120537 -0.992709 0
    outer loop
      vertex -30.1429 0.637974 4
      vertex -30.1429 0.637974 0
      vertex -25.986 0.133237 0
    endloop
  endfacet
  facet normal -0.120537 -0.992709 0
    outer loop
      vertex -25.986 0.133237 4
      vertex -30.1429 0.637974 4
      vertex -25.986 0.133237 0
    endloop
  endfacet
  facet normal -0.994522 0.104528 0
    outer loop
      vertex -26 0 0
      vertex -26 0 4
      vertex -25.986 0.133237 0
    endloop
  endfacet
  facet normal -0.994522 0.104528 0
    outer loop
      vertex -25.986 0.133237 0
      vertex -26 0 4
      vertex -25.986 0.133237 4
    endloop
  endfacet
  facet normal -0.994522 -0.104528 0
    outer loop
      vertex -26 0 0
      vertex -25.4318 -5.4057 0
      vertex -26 0 4
    endloop
  endfacet
  facet normal -0.994522 -0.104528 0
    outer loop
      vertex -26 0 4
      vertex -25.4318 -5.4057 0
      vertex -25.4318 -5.4057 4
    endloop
  endfacet
  facet normal -0.951057 -0.309017 0
    outer loop
      vertex -25.4318 -5.4057 0
      vertex -25.1336 -6.32344 0
      vertex -25.4318 -5.4057 4
    endloop
  endfacet
  facet normal -0.951057 -0.309017 0
    outer loop
      vertex -25.4318 -5.4057 4
      vertex -25.1336 -6.32344 0
      vertex -25.1336 -6.32344 4
    endloop
  endfacet
  facet normal -0.354605 0.935016 0
    outer loop
      vertex -29.1143 -7.8331 0
      vertex -29.1143 -7.8331 4
      vertex -25.1336 -6.32344 0
    endloop
  endfacet
  facet normal -0.354605 0.935016 0
    outer loop
      vertex -25.1336 -6.32344 0
      vertex -29.1143 -7.8331 4
      vertex -25.1336 -6.32344 4
    endloop
  endfacet
  facet normal -0.73532 0.67772 0
    outer loop
      vertex -32.1452 -11.1215 0
      vertex -32.1452 -11.1215 4
      vertex -29.1143 -7.8331 0
    endloop
  endfacet
  facet normal -0.73532 0.67772 0
    outer loop
      vertex -29.1143 -7.8331 0
      vertex -32.1452 -11.1215 4
      vertex -29.1143 -7.8331 4
    endloop
  endfacet
  facet normal -0.935016 -0.354605 0
    outer loop
      vertex -32.1452 -11.1215 0
      vertex -31.4359 -12.9916 0
      vertex -32.1452 -11.1215 4
    endloop
  endfacet
  facet normal -0.935016 -0.354605 0
    outer loop
      vertex -32.1452 -11.1215 4
      vertex -31.4359 -12.9916 0
      vertex -31.4359 -12.9916 4
    endloop
  endfacet
  facet normal -0.100984 -0.994888 0
    outer loop
      vertex -31.4359 -12.9916 4
      vertex -31.4359 -12.9916 0
      vertex -26.9867 -13.4432 0
    endloop
  endfacet
  facet normal -0.100984 -0.994888 0
    outer loop
      vertex -26.9867 -13.4432 4
      vertex -31.4359 -12.9916 4
      vertex -26.9867 -13.4432 0
    endloop
  endfacet
  facet normal 0.354605 -0.935016 0
    outer loop
      vertex -26.9867 -13.4432 4
      vertex -26.9867 -13.4432 0
      vertex -22.9748 -11.9217 0
    endloop
  endfacet
  facet normal 0.354605 -0.935016 0
    outer loop
      vertex -22.9748 -11.9217 4
      vertex -26.9867 -13.4432 4
      vertex -22.9748 -11.9217 0
    endloop
  endfacet
  facet normal -0.866025 -0.5 0
    outer loop
      vertex -22.9748 -11.9217 0
      vertex -21.0344 -15.2824 0
      vertex -22.9748 -11.9217 4
    endloop
  endfacet
  facet normal -0.866025 -0.5 0
    outer loop
      vertex -22.9748 -11.9217 4
      vertex -21.0344 -15.2824 0
      vertex -21.0344 -15.2824 4
    endloop
  endfacet
  facet normal -0.743145 -0.669131 0
    outer loop
      vertex -21.0344 -15.2824 0
      vertex -19.2766 -17.2347 0
      vertex -21.0344 -15.2824 4
    endloop
  endfacet
  facet normal -0.743145 -0.669131 0
    outer loop
      vertex -21.0344 -15.2824 4
      vertex -19.2766 -17.2347 0
      vertex -19.2766 -17.2347 4
    endloop
  endfacet
  facet normal -0.748511 0.663123 0
    outer loop
      vertex -22.1392 -20.466 0
      vertex -22.1392 -20.466 4
      vertex -19.2766 -17.2347 0
    endloop
  endfacet
  facet normal -0.748511 0.663123 0
    outer loop
      vertex -19.2766 -17.2347 0
      vertex -22.1392 -20.466 4
      vertex -19.2766 -17.2347 4
    endloop
  endfacet
  facet normal -0.966046 0.258371 0
    outer loop
      vertex -23.2947 -24.7862 0
      vertex -23.2947 -24.7862 4
      vertex -22.1392 -20.466 0
    endloop
  endfacet
  facet normal -0.966046 0.258371 0
    outer loop
      vertex -22.1392 -20.466 0
      vertex -23.2947 -24.7862 4
      vertex -22.1392 -20.466 4
    endloop
  endfacet
  facet normal -0.663123 -0.748511 0
    outer loop
      vertex -23.2947 -24.7862 4
      vertex -23.2947 -24.7862 0
      vertex -21.7977 -26.1125 0
    endloop
  endfacet
  facet normal -0.663123 -0.748511 0
    outer loop
      vertex -21.7977 -26.1125 4
      vertex -23.2947 -24.7862 4
      vertex -21.7977 -26.1125 0
    endloop
  endfacet
  facet normal 0.372931 -0.927859 0
    outer loop
      vertex -21.7977 -26.1125 4
      vertex -21.7977 -26.1125 0
      vertex -17.6481 -24.4447 0
    endloop
  endfacet
  facet normal 0.372931 -0.927859 0
    outer loop
      vertex -17.6481 -24.4447 4
      vertex -21.7977 -26.1125 4
      vertex -17.6481 -24.4447 0
    endloop
  endfacet
  facet normal 0.748511 -0.663123 0
    outer loop
      vertex -17.6481 -24.4447 4
      vertex -17.6481 -24.4447 0
      vertex -14.7887 -21.2171 0
    endloop
  endfacet
  facet normal 0.748511 -0.663123 0
    outer loop
      vertex -14.7887 -21.2171 4
      vertex -17.6481 -24.4447 4
      vertex -14.7887 -21.2171 0
    endloop
  endfacet
  facet normal -0.587785 -0.809017 0
    outer loop
      vertex -14.7887 -21.2171 4
      vertex -14.7887 -21.2171 0
      vertex -13 -22.5167 0
    endloop
  endfacet
  facet normal -0.587785 -0.809017 0
    outer loop
      vertex -13 -22.5167 4
      vertex -14.7887 -21.2171 4
      vertex -13 -22.5167 0
    endloop
  endfacet
  facet normal -0.406737 -0.913545 0
    outer loop
      vertex -13 -22.5167 4
      vertex -13 -22.5167 0
      vertex -9.07083 -24.266 0
    endloop
  endfacet
  facet normal -0.406737 -0.913545 0
    outer loop
      vertex -9.07083 -24.266 4
      vertex -13 -22.5167 4
      vertex -9.07083 -24.266 0
    endloop
  endfacet
  facet normal -0.970942 0.239316 0
    outer loop
      vertex -10.0923 -28.4103 0
      vertex -10.0923 -28.4103 4
      vertex -9.07083 -24.266 0
    endloop
  endfacet
  facet normal -0.970942 0.239316 0
    outer loop
      vertex -9.07083 -24.266 0
      vertex -10.0923 -28.4103 4
      vertex -9.07083 -24.266 4
    endloop
  endfacet
  facet normal -0.975462 -0.220168 0
    outer loop
      vertex -10.0923 -28.4103 0
      vertex -9.10767 -32.7727 0
      vertex -10.0923 -28.4103 4
    endloop
  endfacet
  facet normal -0.975462 -0.220168 0
    outer loop
      vertex -10.0923 -28.4103 4
      vertex -9.10767 -32.7727 0
      vertex -9.10767 -32.7727 4
    endloop
  endfacet
  facet normal -0.239316 -0.970942 0
    outer loop
      vertex -9.10767 -32.7727 4
      vertex -9.10767 -32.7727 0
      vertex -7.16579 -33.2513 0
    endloop
  endfacet
  facet normal -0.239316 -0.970942 0
    outer loop
      vertex -7.16579 -33.2513 4
      vertex -9.10767 -32.7727 4
      vertex -7.16579 -33.2513 0
    endloop
  endfacet
  facet normal 0.761412 -0.648269 0
    outer loop
      vertex -7.16579 -33.2513 4
      vertex -7.16579 -33.2513 0
      vertex -4.26664 -29.8462 0
    endloop
  endfacet
  facet normal 0.761412 -0.648269 0
    outer loop
      vertex -4.26664 -29.8462 4
      vertex -7.16579 -33.2513 4
      vertex -4.26664 -29.8462 0
    endloop
  endfacet
  facet normal 0.970942 -0.239316 0
    outer loop
      vertex -4.26664 -29.8462 4
      vertex -4.26664 -29.8462 0
      vertex -3.25537 -25.7433 0
    endloop
  endfacet
  facet normal 0.970942 -0.239316 0
    outer loop
      vertex -3.25537 -25.7433 4
      vertex -4.26664 -29.8462 4
      vertex -3.25537 -25.7433 0
    endloop
  endfacet
  facet normal -0.207912 -0.978148 0
    outer loop
      vertex -3.25537 -25.7433 4
      vertex -3.25537 -25.7433 0
      vertex -2.71774 -25.8576 0
    endloop
  endfacet
  facet normal -0.207912 -0.978148 0
    outer loop
      vertex -2.71774 -25.8576 4
      vertex -3.25537 -25.7433 4
      vertex -2.71774 -25.8576 0
    endloop
  endfacet
  facet normal 0 -1 0
    outer loop
      vertex -2.71774 -25.8576 4
      vertex -2.71774 -25.8576 0
      vertex 2.71774 -25.8576 0
    endloop
  endfacet
  facet normal 0 -1 0
    outer loop
      vertex 2.71774 -25.8576 4
      vertex -2.71774 -25.8576 4
      vertex 2.71774 -25.8576 0
    endloop
  endfacet
  facet normal 0.207912 -0.978148 0
    outer loop
      vertex 2.71774 -25.8576 4
      vertex 2.71774 -25.8576 0
      vertex 3.25537 -25.7433 0
    endloop
  endfacet
  facet normal 0.207912 -0.978148 0
    outer loop
      vertex 3.25537 -25.7433 4
      vertex 2.71774 -25.8576 4
      vertex 3.25537 -25.7433 0
    endloop
  endfacet
  facet normal -0.970942 -0.239316 0
    outer loop
      vertex 3.25537 -25.7433 0
      vertex 4.26664 -29.8462 0
      vertex 3.25537 -25.7433 4
    endloop
  endfacet
  facet normal -0.970942 -0.239316 0
    outer loop
      vertex 3.25537 -25.7433 4
      vertex 4.26664 -29.8462 0
      vertex 4.26664 -29.8462 4
    endloop
  endfacet
  facet normal -0.761412 -0.648269 0
    outer loop
      vertex 4.26664 -29.8462 0
      vertex 7.16579 -33.2513 0
      vertex 4.26664 -29.8462 4
    endloop
  endfacet
  facet normal -0.761412 -0.648269 0
    outer loop
      vertex 4.26664 -29.8462 4
      vertex 7.16579 -33.2513 0
      vertex 7.16579 -33.2513 4
    endloop
  endfacet
  facet normal 0.239316 -0.970942 0
    outer loop
      vertex 7.16579 -33.2513 4
      vertex 7.16579 -33.2513 0
      vertex 9.10767 -32.7727 0
    endloop
  endfacet
  facet normal 0.239316 -0.970942 0
    outer loop
      vertex 9.10767 -32.7727 4
      vertex 7.16579 -33.2513 4
      vertex 9.10767 -32.7727 0
    endloop
  endfacet
  facet normal 0.975462 -0.220168 0
    outer loop
      vertex 9.10767 -32.7727 4
      vertex 9.10767 -32.7727 0
      vertex 10.0923 -28.4103 0
    endloop
  endfacet
  facet normal 0.975462 -0.220168 0
    outer loop
      vertex 10.0923 -28.4103 4
      vertex 9.10767 -32.7727 4
      vertex 10.0923 -28.4103 0
    endloop
  endfacet
  facet normal 0.970942 0.239316 0
    outer loop
      vertex 10.0923 -28.4103 0
      vertex 9.07083 -24.266 0
      vertex 9.07083 -24.266 4
    endloop
  endfacet
  facet normal 0.970942 0.239316 0
    outer loop
      vertex 10.0923 -28.4103 4
      vertex 10.0923 -28.4103 0
      vertex 9.07083 -24.266 4
    endloop
  endfacet
  facet normal 0.406737 -0.913545 0
    outer loop
      vertex 9.07083 -24.266 4
      vertex 9.07083 -24.266 0
      vertex 13 -22.5167 0
    endloop
  endfacet
  facet normal 0.406737 -0.913545 0
    outer loop
      vertex 13 -22.5167 4
      vertex 9.07083 -24.266 4
      vertex 13 -22.5167 0
    endloop
  endfacet
  facet normal 0.587785 -0.809017 0
    outer loop
      vertex 13 -22.5167 4
      vertex 13 -22.5167 0
      vertex 14.7887 -21.2171 0
    endloop
  endfacet
  facet normal 0.587785 -0.809017 0
    outer loop
      vertex 14.7887 -21.2171 4
      vertex 13 -22.5167 4
      vertex 14.7887 -21.2171 0
    endloop
  endfacet
  facet normal -0.748511 -0.663123 0
    outer loop
      vertex 14.7887 -21.2171 0
      vertex 17.6481 -24.4447 0
      vertex 14.7887 -21.2171 4
    endloop
  endfacet
  facet normal -0.748511 -0.663123 0
    outer loop
      vertex 14.7887 -21.2171 4
      vertex 17.6481 -24.4447 0
      vertex 17.6481 -24.4447 4
    endloop
  endfacet
  facet normal -0.372931 -0.927859 0
    outer loop
      vertex 17.6481 -24.4447 4
      vertex 17.6481 -24.4447 0
      vertex 21.7977 -26.1125 0
    endloop
  endfacet
  facet normal -0.372931 -0.927859 0
    outer loop
      vertex 21.7977 -26.1125 4
      vertex 17.6481 -24.4447 4
      vertex 21.7977 -26.1125 0
    endloop
  endfacet
  facet normal 0.663123 -0.748511 0
    outer loop
      vertex 21.7977 -26.1125 4
      vertex 21.7977 -26.1125 0
      vertex 23.2947 -24.7862 0
    endloop
  endfacet
  facet normal 0.663123 -0.748511 0
    outer loop
      vertex 23.2947 -24.7862 4
      vertex 21.7977 -26.1125 4
      vertex 23.2947 -24.7862 0
    endloop
  endfacet
  facet normal 0.966046 0.258371 0
    outer loop
      vertex 23.2947 -24.7862 0
      vertex 22.1392 -20.466 0
      vertex 22.1392 -20.466 4
    endloop
  endfacet
  facet normal 0.966046 0.258371 0
    outer loop
      vertex 23.2947 -24.7862 4
      vertex 23.2947 -24.7862 0
      vertex 22.1392 -20.466 4
    endloop
  endfacet
  facet normal 0.748511 0.663123 0
    outer loop
      vertex 22.1392 -20.466 0
      vertex 19.2766 -17.2347 0
      vertex 19.2766 -17.2347 4
    endloop
  endfacet
  facet normal 0.748511 0.663123 0
    outer loop
      vertex 22.1392 -20.466 4
      vertex 22.1392 -20.466 0
      vertex 19.2766 -17.2347 4
    endloop
  endfacet
  facet normal 0.743145 -0.669131 0
    outer loop
      vertex 19.2766 -17.2347 4
      vertex 19.2766 -17.2347 0
      vertex 21.0344 -15.2824 0
    endloop
  endfacet
  facet normal 0.743145 -0.669131 0
    outer loop
      vertex 21.0344 -15.2824 4
      vertex 19.2766 -17.2347 4
      vertex 21.0344 -15.2824 0
    endloop
  endfacet
  facet normal 0.866025 -0.5 0
    outer loop
      vertex 21.0344 -15.2824 4
      vertex 21.0344 -15.2824 0
      vertex 22.9748 -11.9217 0
    endloop
  endfacet
  facet normal 0.866025 -0.5 0
    outer loop
      vertex 22.9748 -11.9217 4
      vertex 21.0344 -15.2824 4
      vertex 22.9748 -11.9217 0
    endloop
  endfacet
  facet normal -0.354605 -0.935016 0
    outer loop
      vertex 22.9748 -11.9217 4
      vertex 22.9748 -11.9217 0
      vertex 26.9867 -13.4432 0
    endloop
  endfacet
  facet normal -0.354605 -0.935016 0
    outer loop
      vertex 26.9867 -13.4432 4
      vertex 22.9748 -11.9217 4
      vertex 26.9867 -13.4432 0
    endloop
  endfacet
  facet normal 0.100984 -0.994888 0
    outer loop
      vertex 26.9867 -13.4432 4
      vertex 26.9867 -13.4432 0
      vertex 31.4359 -12.9916 0
    endloop
  endfacet
  facet normal 0.100984 -0.994888 0
    outer loop
      vertex 31.4359 -12.9916 4
      vertex 26.9867 -13.4432 4
      vertex 31.4359 -12.9916 0
    endloop
  endfacet
  facet normal 0.935016 -0.354605 0
    outer loop
      vertex 31.4359 -12.9916 4
      vertex 31.4359 -12.9916 0
      vertex 32.1452 -11.1215 0
    endloop
  endfacet
  facet normal 0.935016 -0.354605 0
    outer loop
      vertex 32.1452 -11.1215 4
      vertex 31.4359 -12.9916 4
      vertex 32.1452 -11.1215 0
    endloop
  endfacet
  facet normal 0.73532 0.67772 0
    outer loop
      vertex 32.1452 -11.1215 0
      vertex 29.1143 -7.8331 0
      vertex 29.1143 -7.8331 4
    endloop
  endfacet
  facet normal 0.73532 0.67772 0
    outer loop
      vertex 32.1452 -11.1215 4
      vertex 32.1452 -11.1215 0
      vertex 29.1143 -7.8331 4
    endloop
  endfacet
  facet normal 0.354605 0.935016 0
    outer loop
      vertex 25.1336 -6.32344 0
      vertex 25.1336 -6.32344 4
      vertex 29.1143 -7.8331 0
    endloop
  endfacet
  facet normal 0.354605 0.935016 0
    outer loop
      vertex 29.1143 -7.8331 0
      vertex 25.1336 -6.32344 4
      vertex 29.1143 -7.8331 4
    endloop
  endfacet
  facet normal 0.951057 -0.309017 0
    outer loop
      vertex 25.1336 -6.32344 4
      vertex 25.1336 -6.32344 0
      vertex 25.4318 -5.4057 0
    endloop
  endfacet
  facet normal 0.951057 -0.309017 0
    outer loop
      vertex 25.4318 -5.4057 4
      vertex 25.1336 -6.32344 4
      vertex 25.4318 -5.4057 0
    endloop
  endfacet
  facet normal 0.994522 -0.104528 0
    outer loop
      vertex 25.4318 -5.4057 4
      vertex 25.4318 -5.4057 0
      vertex 26 0 0
    endloop
  endfacet
  facet normal 0.994522 -0.104528 0
    outer loop
      vertex 26 0 4
      vertex 25.4318 -5.4057 4
      vertex 26 0 0
    endloop
  endfacet
  facet normal 0.994522 0.104528 0
    outer loop
      vertex 26 0 0
      vertex 25.986 0.133237 0
      vertex 25.986 0.133237 4
    endloop
  endfacet
  facet normal 0.994522 0.104528 0
    outer loop
      vertex 26 0 4
      vertex 26 0 0
      vertex 25.986 0.133237 4
    endloop
  endfacet
  facet normal 0.120537 -0.992709 0
    outer loop
      vertex 25.986 0.133237 4
      vertex 25.986 0.133237 0
      vertex 30.1429 0.637974 0
    endloop
  endfacet
  facet normal 0.120537 -0.992709 0
    outer loop
      vertex 30.1429 0.637974 4
      vertex 25.986 0.133237 4
      vertex 30.1429 0.637974 0
    endloop
  endfacet
  facet normal 0.551764 -0.834 0
    outer loop
      vertex 30.1429 0.637974 4
      vertex 30.1429 0.637974 0
      vertex 33.8726 3.10554 0
    endloop
  endfacet
  facet normal 0.551764 -0.834 0
    outer loop
      vertex 33.8726 3.10554 4
      vertex 30.1429 0.637974 4
      vertex 33.8726 3.10554 0
    endloop
  endfacet
  facet normal 0.992709 0.120537 0
    outer loop
      vertex 33.8726 3.10554 0
      vertex 33.6316 5.09096 0
      vertex 33.6316 5.09096 4
    endloop
  endfacet
  facet normal 0.992709 0.120537 0
    outer loop
      vertex 33.8726 3.10554 4
      vertex 33.8726 3.10554 0
      vertex 33.6316 5.09096 4
    endloop
  endfacet
  facet normal 0.336142 0.941811 0
    outer loop
      vertex 29.4197 6.59423 0
      vertex 29.4197 6.59423 4
      vertex 33.6316 5.09096 0
    endloop
  endfacet
  facet normal 0.336142 0.941811 0
    outer loop
      vertex 33.6316 5.09096 0
      vertex 29.4197 6.59423 4
      vertex 33.6316 5.09096 4
    endloop
  endfacet
  facet normal -0.120537 0.992709 0
    outer loop
      vertex 25.2117 6.08329 0
      vertex 25.2117 6.08329 4
      vertex 29.4197 6.59423 0
    endloop
  endfacet
  facet normal -0.120537 0.992709 0
    outer loop
      vertex 29.4197 6.59423 0
      vertex 25.2117 6.08329 4
      vertex 29.4197 6.59423 4
    endloop
  endfacet
  facet normal 0.951057 0.309017 0
    outer loop
      vertex 25.2117 6.08329 0
      vertex 23.7522 10.5752 0
      vertex 23.7522 10.5752 4
    endloop
  endfacet
  facet normal 0.951057 0.309017 0
    outer loop
      vertex 25.2117 6.08329 4
      vertex 25.2117 6.08329 0
      vertex 23.7522 10.5752 4
    endloop
  endfacet
  facet normal 0.866025 0.5 0
    outer loop
      vertex 23.7522 10.5752 0
      vertex 22.8545 12.13 0
      vertex 22.8545 12.13 4
    endloop
  endfacet
  facet normal 0.866025 0.5 0
    outer loop
      vertex 23.7522 10.5752 4
      vertex 23.7522 10.5752 0
      vertex 22.8545 12.13 4
    endloop
  endfacet
  facet normal 0.568065 -0.822984 0
    outer loop
      vertex 22.8545 12.13 4
      vertex 22.8545 12.13 0
      vertex 26.3937 14.573 0
    endloop
  endfacet
  facet normal 0.568065 -0.822984 0
    outer loop
      vertex 26.3937 14.573 4
      vertex 22.8545 12.13 4
      vertex 26.3937 14.573 0
    endloop
  endfacet
  facet normal 0.876142 -0.482053 0
    outer loop
      vertex 26.3937 14.573 4
      vertex 26.3937 14.573 0
      vertex 28.5495 18.4912 0
    endloop
  endfacet
  facet normal 0.876142 -0.482053 0
    outer loop
      vertex 28.5495 18.4912 4
      vertex 26.3937 14.573 4
      vertex 28.5495 18.4912 0
    endloop
  endfacet
  facet normal 0.822984 0.568065 0
    outer loop
      vertex 28.5495 18.4912 0
      vertex 27.4134 20.1372 0
      vertex 27.4134 20.1372 4
    endloop
  endfacet
  facet normal 0.822984 0.568065 0
    outer loop
      vertex 28.5495 18.4912 4
      vertex 28.5495 18.4912 0
      vertex 27.4134 20.1372 4
    endloop
  endfacet
  facet normal -0.140043 0.990145 0
    outer loop
      vertex 22.9853 19.5109 0
      vertex 22.9853 19.5109 4
      vertex 27.4134 20.1372 0
    endloop
  endfacet
  facet normal -0.140043 0.990145 0
    outer loop
      vertex 27.4134 20.1372 0
      vertex 22.9853 19.5109 4
      vertex 27.4134 20.1372 4
    endloop
  endfacet
  facet normal -0.568065 0.822984 0
    outer loop
      vertex 19.4342 17.0597 0
      vertex 19.4342 17.0597 4
      vertex 22.9853 19.5109 0
    endloop
  endfacet
  facet normal -0.568065 0.822984 0
    outer loop
      vertex 22.9853 19.5109 0
      vertex 19.4342 17.0597 4
      vertex 22.9853 19.5109 4
    endloop
  endfacet
  facet normal 0.743145 0.669131 0
    outer loop
      vertex 19.4342 17.0597 0
      vertex 17.3974 19.3218 0
      vertex 17.3974 19.3218 4
    endloop
  endfacet
  facet normal 0.743145 0.669131 0
    outer loop
      vertex 19.4342 17.0597 4
      vertex 19.4342 17.0597 0
      vertex 17.3974 19.3218 4
    endloop
  endfacet
  facet normal 0.587785 0.809017 0
    outer loop
      vertex 14.5968 21.3565 0
      vertex 14.5968 21.3565 4
      vertex 17.3974 19.3218 0
    endloop
  endfacet
  facet normal 0.587785 0.809017 0
    outer loop
      vertex 17.3974 19.3218 0
      vertex 14.5968 21.3565 4
      vertex 17.3974 19.3218 4
    endloop
  endfacet
  facet normal 0.885456 -0.464723 0
    outer loop
      vertex 14.5968 21.3565 4
      vertex 14.5968 21.3565 0
      vertex 16.5981 25.1695 0
    endloop
  endfacet
  facet normal 0.885456 -0.464723 0
    outer loop
      vertex 16.5981 25.1695 4
      vertex 14.5968 21.3565 4
      vertex 16.5981 25.1695 0
    endloop
  endfacet
  facet normal 0.999806 -0.0196731 0
    outer loop
      vertex 16.5981 25.1695 4
      vertex 16.5981 25.1695 0
      vertex 16.686 29.6408 0
    endloop
  endfacet
  facet normal 0.999806 -0.0196731 0
    outer loop
      vertex 16.686 29.6408 4
      vertex 16.5981 25.1695 4
      vertex 16.686 29.6408 0
    endloop
  endfacet
  facet normal 0.464723 0.885456 0
    outer loop
      vertex 14.9151 30.5702 0
      vertex 14.9151 30.5702 4
      vertex 16.686 29.6408 0
    endloop
  endfacet
  facet normal 0.464723 0.885456 0
    outer loop
      vertex 16.686 29.6408 0
      vertex 14.9151 30.5702 4
      vertex 16.686 29.6408 4
    endloop
  endfacet
  facet normal -0.584145 0.811649 0
    outer loop
      vertex 11.2853 27.9579 0
      vertex 11.2853 27.9579 4
      vertex 14.9151 30.5702 0
    endloop
  endfacet
  facet normal -0.584145 0.811649 0
    outer loop
      vertex 14.9151 30.5702 0
      vertex 11.2853 27.9579 4
      vertex 14.9151 30.5702 4
    endloop
  endfacet
  facet normal -0.885456 0.464723 0
    outer loop
      vertex 9.29527 24.1661 0
      vertex 9.29527 24.1661 4
      vertex 11.2853 27.9579 0
    endloop
  endfacet
  facet normal -0.885456 0.464723 0
    outer loop
      vertex 11.2853 27.9579 0
      vertex 9.29527 24.1661 4
      vertex 11.2853 27.9579 4
    endloop
  endfacet
  facet normal 0.406737 0.913545 0
    outer loop
      vertex 8.03444 24.7275 0
      vertex 8.03444 24.7275 4
      vertex 9.29527 24.1661 0
    endloop
  endfacet
  facet normal 0.406737 0.913545 0
    outer loop
      vertex 9.29527 24.1661 0
      vertex 8.03444 24.7275 4
      vertex 9.29527 24.1661 4
    endloop
  endfacet
  facet normal 0.207912 0.978148 0
    outer loop
      vertex 3 25.7976 0
      vertex 3 25.7976 4
      vertex 8.03444 24.7275 0
    endloop
  endfacet
  facet normal 0.207912 0.978148 0
    outer loop
      vertex 8.03444 24.7275 0
      vertex 3 25.7976 4
      vertex 8.03444 24.7275 4
    endloop
  endfacet
  facet normal 1 0 0
    outer loop
      vertex 3 25.7976 4
      vertex 3 25.7976 0
      vertex 3 30 0
    endloop
  endfacet
  facet normal 1 0 0
    outer loop
      vertex 3 30 4
      vertex 3 25.7976 4
      vertex 3 30 0
    endloop
  endfacet
  facet normal 0.894427 0.447214 0
    outer loop
      vertex 3 30 0
      vertex 1 34 0
      vertex 1 34 4
    endloop
  endfacet
  facet normal 0.894427 0.447214 0
    outer loop
      vertex 3 30 4
      vertex 3 30 0
      vertex 1 34 4
    endloop
  endfacet
  facet normal 0 1 0
    outer loop
      vertex -1 34 0
      vertex -1 34 4
      vertex 1 34 0
    endloop
  endfacet
  facet normal 0 1 0
    outer loop
      vertex 1 34 0
      vertex -1 34 4
      vertex 1 34 4
    endloop
  endfacet
  facet normal -0.894427 0.447214 0
    outer loop
      vertex -3 30 0
      vertex -3 30 4
      vertex -1 34 0
    endloop
  endfacet
  facet normal -0.894427 0.447214 0
    outer loop
      vertex -1 34 0
      vertex -3 30 4
      vertex -1 34 4
    endloop
  endfacet
  facet normal -1 0 0
    outer loop
      vertex -3 25.7976 0
      vertex -3 25.7976 4
      vertex -3 30 0
    endloop
  endfacet
  facet normal -1 0 0
    outer loop
      vertex -3 30 0
      vertex -3 25.7976 4
      vertex -3 30 4
    endloop
  endfacet
  facet normal -0.207912 0.978148 0
    outer loop
      vertex -8.03444 24.7275 0
      vertex -8.03444 24.7275 4
      vertex -3 25.7976 0
    endloop
  endfacet
  facet normal -0.207912 0.978148 0
    outer loop
      vertex -3 25.7976 0
      vertex -8.03444 24.7275 4
      vertex -3 25.7976 4
    endloop
  endfacet
  facet normal -0.406737 0.913545 0
    outer loop
      vertex -9.29527 24.1661 0
      vertex -9.29527 24.1661 4
      vertex -8.03444 24.7275 0
    endloop
  endfacet
  facet normal -0.406737 0.913545 0
    outer loop
      vertex -8.03444 24.7275 0
      vertex -9.29527 24.1661 4
      vertex -8.03444 24.7275 4
    endloop
  endfacet
  facet normal 0.885456 0.464723 0
    outer loop
      vertex -9.29527 24.1661 0
      vertex -11.2853 27.9579 0
      vertex -11.2853 27.9579 4
    endloop
  endfacet
  facet normal 0.885456 0.464723 0
    outer loop
      vertex -9.29527 24.1661 4
      vertex -9.29527 24.1661 0
      vertex -11.2853 27.9579 4
    endloop
  endfacet
  facet normal 0.584145 0.811649 0
    outer loop
      vertex -14.9151 30.5702 0
      vertex -14.9151 30.5702 4
      vertex -11.2853 27.9579 0
    endloop
  endfacet
  facet normal 0.584145 0.811649 0
    outer loop
      vertex -11.2853 27.9579 0
      vertex -14.9151 30.5702 4
      vertex -11.2853 27.9579 4
    endloop
  endfacet
  facet normal -0.464723 0.885456 0
    outer loop
      vertex -16.686 29.6408 0
      vertex -16.686 29.6408 4
      vertex -14.9151 30.5702 0
    endloop
  endfacet
  facet normal -0.464723 0.885456 0
    outer loop
      vertex -14.9151 30.5702 0
      vertex -16.686 29.6408 4
      vertex -14.9151 30.5702 4
    endloop
  endfacet
  facet normal -0.999806 -0.0196731 0
    outer loop
      vertex -16.686 29.6408 0
      vertex -16.5981 25.1695 0
      vertex -16.686 29.6408 4
    endloop
  endfacet
  facet normal -0.999806 -0.0196731 0
    outer loop
      vertex -16.686 29.6408 4
      vertex -16.5981 25.1695 0
      vertex -16.5981 25.1695 4
    endloop
  endfacet
  facet normal -0.885456 -0.464723 0
    outer loop
      vertex -16.5981 25.1695 0
      vertex -14.5968 21.3565 0
      vertex -16.5981 25.1695 4
    endloop
  endfacet
  facet normal -0.885456 -0.464723 0
    outer loop
      vertex -16.5981 25.1695 4
      vertex -14.5968 21.3565 0
      vertex -14.5968 21.3565 4
    endloop
  endfacet
  facet normal -0.587785 0.809017 0
    outer loop
      vertex -17.3974 19.3218 0
      vertex -17.3974 19.3218 4
      vertex -14.5968 21.3565 0
    endloop
  endfacet
  facet normal -0.587785 0.809017 0
    outer loop
      vertex -14.5968 21.3565 0
      vertex -17.3974 19.3218 4
      vertex -14.5968 21.3565 4
    endloop
  endfacet
  facet normal -0.743145 0.669131 0
    outer loop
      vertex -19.4342 17.0597 0
      vertex -19.4342 17.0597 4
      vertex -17.3974 19.3218 0
    endloop
  endfacet
  facet normal -0.743145 0.669131 0
    outer loop
      vertex -17.3974 19.3218 0
      vertex -19.4342 17.0597 4
      vertex -17.3974 19.3218 4
    endloop
  endfacet
  facet normal 0.568065 0.822984 0
    outer loop
      vertex -22.9853 19.5109 0
      vertex -22.9853 19.5109 4
      vertex -19.4342 17.0597 0
    endloop
  endfacet
  facet normal 0.568065 0.822984 0
    outer loop
      vertex -19.4342 17.0597 0
      vertex -22.9853 19.5109 4
      vertex -19.4342 17.0597 4
    endloop
  endfacet
  facet normal 0.140043 0.990145 0
    outer loop
      vertex -27.4134 20.1372 0
      vertex -27.4134 20.1372 4
      vertex -22.9853 19.5109 0
    endloop
  endfacet
  facet normal 0.140043 0.990145 0
    outer loop
      vertex -22.9853 19.5109 0
      vertex -27.4134 20.1372 4
      vertex -22.9853 19.5109 4
    endloop
  endfacet
  facet normal -0.822984 0.568065 0
    outer loop
      vertex -28.5495 18.4912 0
      vertex -28.5495 18.4912 4
      vertex -27.4134 20.1372 0
    endloop
  endfacet
  facet normal -0.822984 0.568065 0
    outer loop
      vertex -27.4134 20.1372 0
      vertex -28.5495 18.4912 4
      vertex -27.4134 20.1372 4
    endloop
  endfacet
  facet normal -0.876142 -0.482053 0
    outer loop
      vertex -28.5495 18.4912 0
      vertex -26.3937 14.573 0
      vertex -28.5495 18.4912 4
    endloop
  endfacet
  facet normal -0.876142 -0.482053 0
    outer loop
      vertex -28.5495 18.4912 4
      vertex -26.3937 14.573 0
      vertex -26.3937 14.573 4
    endloop
  endfacet
  facet normal -0.568065 -0.822984 0
    outer loop
      vertex -26.3937 14.573 4
      vertex -26.3937 14.573 0
      vertex -22.8545 12.13 0
    endloop
  endfacet
  facet normal -0.568065 -0.822984 0
    outer loop
      vertex -22.8545 12.13 4
      vertex -26.3937 14.573 4
      vertex -22.8545 12.13 0
    endloop
  endfacet
  facet normal -0.866025 0.5 0
    outer loop
      vertex -23.7522 10.5752 0
      vertex -23.7522 10.5752 4
      vertex -22.8545 12.13 0
    endloop
  endfacet
  facet normal -0.866025 0.5 0
    outer loop
      vertex -22.8545 12.13 0
      vertex -23.7522 10.5752 4
      vertex -22.8545 12.13 4
    endloop
  endfacet
  facet normal -0.951057 0.309017 0
    outer loop
      vertex -25.2117 6.08329 0
      vertex -25.2117 6.08329 4
      vertex -23.7522 10.5752 0
    endloop
  endfacet
  facet normal -0.951057 0.309017 0
    outer loop
      vertex -23.7522 10.5752 0
      vertex -25.2117 6.08329 4
      vertex -23.7522 10.5752 4
    endloop
  endfacet
  facet normal 0.120537 0.992709 0
    outer loop
      vertex -29.4197 6.59423 0
      vertex -29.4197 6.59423 4
      vertex -25.2117 6.08329 0
    endloop
  endfacet
  facet normal 0.120537 0.992709 0
    outer loop
      vertex -25.2117 6.08329 0
      vertex -29.4197 6.59423 4
      vertex -25.2117 6.08329 4
    endloop
  endfacet
  facet normal 0.885456 -0.464723 0
    outer loop
      vertex -2.99404 2.65249 0
      vertex -2.99404 2.65249 4
      vertex -3.88377 0.957263 4
    endloop
  endfacet
  facet normal 0.885456 -0.464723 0
    outer loop
      vertex -3.88377 0.957263 0
      vertex -2.99404 2.65249 0
      vertex -3.88377 0.957263 4
    endloop
  endfacet
  facet normal 1 0 0
    outer loop
      vertex -3.88377 0.957263 0
      vertex -3.88377 0.957263 4
      vertex -3.88377 -0.957263 4
    endloop
  endfacet
  facet normal 1 0 0
    outer loop
      vertex -3.88377 -0.957263 0
      vertex -3.88377 0.957263 0
      vertex -3.88377 -0.957263 4
    endloop
  endfacet
  facet normal 0.568065 -0.822984 0
    outer loop
      vertex -1.41842 3.74006 0
      vertex -1.41842 3.74006 4
      vertex -2.99404 2.65249 4
    endloop
  endfacet
  facet normal 0.568065 -0.822984 0
    outer loop
      vertex -2.99404 2.65249 0
      vertex -1.41842 3.74006 0
      vertex -2.99404 2.65249 4
    endloop
  endfacet
  facet normal 0.120536 -0.992709 0
    outer loop
      vertex 0.482147 3.97083 0
      vertex 0.482147 3.97083 4
      vertex -1.41842 3.74006 4
    endloop
  endfacet
  facet normal 0.120536 -0.992709 0
    outer loop
      vertex -1.41842 3.74006 0
      vertex 0.482147 3.97083 0
      vertex -1.41842 3.74006 4
    endloop
  endfacet
  facet normal -0.354605 -0.935016 0
    outer loop
      vertex 2.27226 3.29194 0
      vertex 2.27226 3.29194 4
      vertex 0.482147 3.97083 4
    endloop
  endfacet
  facet normal -0.354605 -0.935016 0
    outer loop
      vertex 0.482147 3.97083 0
      vertex 2.27226 3.29194 0
      vertex 0.482147 3.97083 4
    endloop
  endfacet
  facet normal -0.748511 -0.663123 0
    outer loop
      vertex 3.54182 1.85889 4
      vertex 2.27226 3.29194 4
      vertex 3.54182 1.85889 0
    endloop
  endfacet
  facet normal -0.748511 -0.663123 0
    outer loop
      vertex 3.54182 1.85889 0
      vertex 2.27226 3.29194 4
      vertex 2.27226 3.29194 0
    endloop
  endfacet
  facet normal -0.970942 -0.239316 0
    outer loop
      vertex 4 0 4
      vertex 3.54182 1.85889 4
      vertex 4 0 0
    endloop
  endfacet
  facet normal -0.970942 -0.239316 0
    outer loop
      vertex 4 0 0
      vertex 3.54182 1.85889 4
      vertex 3.54182 1.85889 0
    endloop
  endfacet
  facet normal -0.970942 0.239316 0
    outer loop
      vertex 4 0 4
      vertex 4 0 0
      vertex 3.54182 -1.85889 4
    endloop
  endfacet
  facet normal -0.970942 0.239316 0
    outer loop
      vertex 3.54182 -1.85889 4
      vertex 4 0 0
      vertex 3.54182 -1.85889 0
    endloop
  endfacet
  facet normal -0.748511 0.663123 0
    outer loop
      vertex 3.54182 -1.85889 4
      vertex 3.54182 -1.85889 0
      vertex 2.27226 -3.29194 4
    endloop
  endfacet
  facet normal -0.748511 0.663123 0
    outer loop
      vertex 2.27226 -3.29194 4
      vertex 3.54182 -1.85889 0
      vertex 2.27226 -3.29194 0
    endloop
  endfacet
  facet normal -0.354605 0.935016 0
    outer loop
      vertex 2.27226 -3.29194 4
      vertex 2.27226 -3.29194 0
      vertex 0.482147 -3.97083 4
    endloop
  endfacet
  facet normal -0.354605 0.935016 0
    outer loop
      vertex 0.482147 -3.97083 4
      vertex 2.27226 -3.29194 0
      vertex 0.482147 -3.97083 0
    endloop
  endfacet
  facet normal 0.120536 0.992709 0
    outer loop
      vertex 0.482147 -3.97083 4
      vertex 0.482147 -3.97083 0
      vertex -1.41842 -3.74006 4
    endloop
  endfacet
  facet normal 0.120536 0.992709 0
    outer loop
      vertex -1.41842 -3.74006 4
      vertex 0.482147 -3.97083 0
      vertex -1.41842 -3.74006 0
    endloop
  endfacet
  facet normal 0.568065 0.822984 0
    outer loop
      vertex -1.41842 -3.74006 4
      vertex -1.41842 -3.74006 0
      vertex -2.99404 -2.65249 4
    endloop
  endfacet
  facet normal 0.568065 0.822984 0
    outer loop
      vertex -2.99404 -2.65249 4
      vertex -1.41842 -3.74006 0
      vertex -2.99404 -2.65249 0
    endloop
  endfacet
  facet normal 0.885456 0.464723 0
    outer loop
      vertex -3.88377 -0.957263 4
      vertex -2.99404 -2.65249 4
      vertex -2.99404 -2.65249 0
    endloop
  endfacet
  facet normal 0.885456 0.464723 0
    outer loop
      vertex -3.88377 -0.957263 0
      vertex -3.88377 -0.957263 4
      vertex -2.99404 -2.65249 0
    endloop
  endfacet
endsolid OpenSCAD_Model
