solid OpenSCAD_Model
  facet normal 0.569495 0.821995 -0
    outer loop
      vertex 26.3101 4.68561 0
      vertex 23.2997 6.77129 5
      vertex 26.3101 4.68561 5
    endloop
  endfacet
  facet normal 0.569495 0.821995 0
    outer loop
      vertex 23.2997 6.77129 5
      vertex 26.3101 4.68561 0
      vertex 23.2997 6.77129 0
    endloop
  endfacet
  facet normal 0.405986 0.913879 -0
    outer loop
      vertex 23.2997 6.77129 0
      vertex 19.271 8.56103 5
      vertex 23.2997 6.77129 5
    endloop
  endfacet
  facet normal 0.405986 0.913879 0
    outer loop
      vertex 19.271 8.56103 5
      vertex 23.2997 6.77129 0
      vertex 19.271 8.56103 0
    endloop
  endfacet
  facet normal -0.175333 0.984509 0
    outer loop
      vertex -8.89969 10.9562 0
      vertex -14.4 9.97661 5
      vertex -8.89969 10.9562 5
    endloop
  endfacet
  facet normal -0.175333 0.984509 0
    outer loop
      vertex -14.4 9.97661 5
      vertex -8.89969 10.9562 0
      vertex -14.4 9.97661 0
    endloop
  endfacet
  facet normal 0.967169 -0.254134 0
    outer loop
      vertex 28.1707 -2.39514 5
      vertex 28.8 0 0
      vertex 28.8 0 5
    endloop
  endfacet
  facet normal 0.967169 -0.254134 0
    outer loop
      vertex 28.8 0 0
      vertex 28.1707 -2.39514 5
      vertex 28.1707 -2.39514 0
    endloop
  endfacet
  facet normal 0.279071 0.96027 -0
    outer loop
      vertex 19.271 8.56103 0
      vertex 14.4 9.97661 5
      vertex 19.271 8.56103 5
    endloop
  endfacet
  facet normal 0.279071 0.96027 0
    outer loop
      vertex 14.4 9.97661 5
      vertex 19.271 8.56103 0
      vertex 14.4 9.97661 0
    endloop
  endfacet
  facet normal 0 1 -0
    outer loop
      vertex 3.01042 11.4569 0
      vertex 1.20417 11.4569 5
      vertex 3.01042 11.4569 5
    endloop
  endfacet
  facet normal 0 1 0
    outer loop
      vertex 1.20417 11.4569 5
      vertex 3.01042 11.4569 0
      vertex -1.20417 11.4569 5
    endloop
  endfacet
  facet normal 0 1 0
    outer loop
      vertex -3.01042 11.4569 0
      vertex -1.20417 11.4569 5
      vertex 3.01042 11.4569 0
    endloop
  endfacet
  facet normal 0 1 0
    outer loop
      vertex -1.20417 11.4569 5
      vertex -3.01042 11.4569 0
      vertex -3.01042 11.4569 5
    endloop
  endfacet
  facet normal 0.175333 0.984509 -0
    outer loop
      vertex 14.4 9.97661 0
      vertex 8.89969 10.9562 5
      vertex 14.4 9.97661 5
    endloop
  endfacet
  facet normal 0.175333 0.984509 0
    outer loop
      vertex 8.89969 10.9562 5
      vertex 14.4 9.97661 0
      vertex 8.89969 10.9562 0
    endloop
  endfacet
  facet normal -0.967169 0.254134 0
    outer loop
      vertex -28.8 0 0
      vertex -28.1707 2.39514 5
      vertex -28.1707 2.39514 0
    endloop
  endfacet
  facet normal -0.967169 0.254134 0
    outer loop
      vertex -28.1707 2.39514 5
      vertex -28.8 0 0
      vertex -28.8 0 5
    endloop
  endfacet
  facet normal -0.569495 0.821995 0
    outer loop
      vertex -23.2997 6.77129 0
      vertex -26.3101 4.68561 5
      vertex -23.2997 6.77129 5
    endloop
  endfacet
  facet normal -0.569495 0.821995 0
    outer loop
      vertex -26.3101 4.68561 5
      vertex -23.2997 6.77129 0
      vertex -26.3101 4.68561 0
    endloop
  endfacet
  facet normal -0.279071 0.96027 0
    outer loop
      vertex -14.4 9.97661 0
      vertex -19.271 8.56103 5
      vertex -14.4 9.97661 5
    endloop
  endfacet
  facet normal -0.279071 0.96027 0
    outer loop
      vertex -19.271 8.56103 5
      vertex -14.4 9.97661 0
      vertex -19.271 8.56103 0
    endloop
  endfacet
  facet normal -0.0847169 0.996405 0
    outer loop
      vertex -3.01042 11.4569 0
      vertex -8.89969 10.9562 5
      vertex -3.01042 11.4569 5
    endloop
  endfacet
  facet normal -0.0847169 0.996405 0
    outer loop
      vertex -8.89969 10.9562 5
      vertex -3.01042 11.4569 0
      vertex -8.89969 10.9562 0
    endloop
  endfacet
  facet normal -0.405986 0.913879 0
    outer loop
      vertex -19.271 8.56103 0
      vertex -23.2997 6.77129 5
      vertex -19.271 8.56103 5
    endloop
  endfacet
  facet normal -0.405986 0.913879 0
    outer loop
      vertex -23.2997 6.77129 5
      vertex -19.271 8.56103 0
      vertex -23.2997 6.77129 0
    endloop
  endfacet
  facet normal 0.967169 0.254134 0
    outer loop
      vertex 28.8 0 5
      vertex 28.1707 2.39514 0
      vertex 28.1707 2.39514 5
    endloop
  endfacet
  facet normal 0.967169 0.254134 0
    outer loop
      vertex 28.1707 2.39514 0
      vertex 28.8 0 5
      vertex 28.8 0 0
    endloop
  endfacet
  facet normal 0.77619 -0.630499 0
    outer loop
      vertex 26.3101 -4.68561 5
      vertex 28.1707 -2.39514 0
      vertex 28.1707 -2.39514 5
    endloop
  endfacet
  facet normal 0.77619 -0.630499 0
    outer loop
      vertex 28.1707 -2.39514 0
      vertex 26.3101 -4.68561 5
      vertex 26.3101 -4.68561 0
    endloop
  endfacet
  facet normal -0.569495 -0.821995 0
    outer loop
      vertex -26.3101 -4.68561 0
      vertex -23.2997 -6.77129 5
      vertex -26.3101 -4.68561 5
    endloop
  endfacet
  facet normal -0.569495 -0.821995 -0
    outer loop
      vertex -23.2997 -6.77129 5
      vertex -26.3101 -4.68561 0
      vertex -23.2997 -6.77129 0
    endloop
  endfacet
  facet normal 0.279071 -0.96027 0
    outer loop
      vertex 14.4 -9.97661 0
      vertex 19.271 -8.56103 5
      vertex 14.4 -9.97661 5
    endloop
  endfacet
  facet normal 0.279071 -0.96027 0
    outer loop
      vertex 19.271 -8.56103 5
      vertex 14.4 -9.97661 0
      vertex 19.271 -8.56103 0
    endloop
  endfacet
  facet normal 0.77619 0.630499 0
    outer loop
      vertex 28.1707 2.39514 5
      vertex 26.3101 4.68561 0
      vertex 26.3101 4.68561 5
    endloop
  endfacet
  facet normal 0.77619 0.630499 0
    outer loop
      vertex 26.3101 4.68561 0
      vertex 28.1707 2.39514 5
      vertex 28.1707 2.39514 0
    endloop
  endfacet
  facet normal 0.0847169 0.996405 -0
    outer loop
      vertex 8.89969 10.9562 0
      vertex 3.01042 11.4569 5
      vertex 8.89969 10.9562 5
    endloop
  endfacet
  facet normal 0.0847169 0.996405 0
    outer loop
      vertex 3.01042 11.4569 5
      vertex 8.89969 10.9562 0
      vertex 3.01042 11.4569 0
    endloop
  endfacet
  facet normal 0 0 1
    outer loop
      vertex 17.4019 -1.5 5
      vertex 10.524 -4.68561 5
      vertex 18.5 -2.59808 5
    endloop
  endfacet
  facet normal 0 0 1
    outer loop
      vertex 18.5 -2.59808 5
      vertex 10.524 -4.68561 5
      vertex 14.4 -9.97661 5
    endloop
  endfacet
  facet normal -0 0 1
    outer loop
      vertex 9.31988 -6.77129 5
      vertex 14.4 -9.97661 5
      vertex 10.524 -4.68561 5
    endloop
  endfacet
  facet normal 0 0 1
    outer loop
      vertex 9.31988 -6.77129 5
      vertex 8.89969 -10.9562 5
      vertex 14.4 -9.97661 5
    endloop
  endfacet
  facet normal -0 0 1
    outer loop
      vertex 7.70838 -8.56103 5
      vertex 8.89969 -10.9562 5
      vertex 9.31988 -6.77129 5
    endloop
  endfacet
  facet normal -0 0 1
    outer loop
      vertex 5.76 -9.97661 5
      vertex 8.89969 -10.9562 5
      vertex 7.70838 -8.56103 5
    endloop
  endfacet
  facet normal 0 0 1
    outer loop
      vertex 3.55988 -10.9562 5
      vertex 8.89969 -10.9562 5
      vertex 5.76 -9.97661 5
    endloop
  endfacet
  facet normal -0 0 1
    outer loop
      vertex 3.55988 -10.9562 5
      vertex 3.01042 -11.4569 5
      vertex 8.89969 -10.9562 5
    endloop
  endfacet
  facet normal 0 -0 1
    outer loop
      vertex 3.01042 -11.4569 5
      vertex 3.55988 -10.9562 5
      vertex 1.20417 -11.4569 5
    endloop
  endfacet
  facet normal 0 0 1
    outer loop
      vertex 23 0 5
      vertex 28.8 0 5
      vertex 28.1707 2.39514 5
    endloop
  endfacet
  facet normal 0 0 1
    outer loop
      vertex 22.5981 1.5 5
      vertex 28.1707 2.39514 5
      vertex 26.3101 4.68561 5
    endloop
  endfacet
  facet normal 0 0 1
    outer loop
      vertex 28.8 0 5
      vertex 23 0 5
      vertex 28.1707 -2.39514 5
    endloop
  endfacet
  facet normal 0 0 1
    outer loop
      vertex 21.5 2.59808 5
      vertex 26.3101 4.68561 5
      vertex 23.2997 6.77129 5
    endloop
  endfacet
  facet normal -0 0 1
    outer loop
      vertex 22.5981 -1.5 5
      vertex 28.1707 -2.39514 5
      vertex 23 0 5
    endloop
  endfacet
  facet normal 0 0 1
    outer loop
      vertex 28.1707 -2.39514 5
      vertex 22.5981 -1.5 5
      vertex 26.3101 -4.68561 5
    endloop
  endfacet
  facet normal 0 0 1
    outer loop
      vertex 28.1707 2.39514 5
      vertex 22.5981 1.5 5
      vertex 23 0 5
    endloop
  endfacet
  facet normal 0 0 1
    outer loop
      vertex 26.3101 4.68561 5
      vertex 21.5 2.59808 5
      vertex 22.5981 1.5 5
    endloop
  endfacet
  facet normal 0 0 1
    outer loop
      vertex 23.2997 6.77129 5
      vertex 20 3 5
      vertex 21.5 2.59808 5
    endloop
  endfacet
  facet normal 0 0 1
    outer loop
      vertex 19.271 8.56103 5
      vertex 20 3 5
      vertex 23.2997 6.77129 5
    endloop
  endfacet
  facet normal 0 0 1
    outer loop
      vertex 19.271 8.56103 5
      vertex 18.5 2.59808 5
      vertex 20 3 5
    endloop
  endfacet
  facet normal 0 0 1
    outer loop
      vertex 14.4 9.97661 5
      vertex 18.5 2.59808 5
      vertex 19.271 8.56103 5
    endloop
  endfacet
  facet normal -0 0 1
    outer loop
      vertex 10.524 4.68561 5
      vertex 18.5 2.59808 5
      vertex 14.4 9.97661 5
    endloop
  endfacet
  facet normal 0 0 1
    outer loop
      vertex 18.5 2.59808 5
      vertex 10.524 4.68561 5
      vertex 17.4019 1.5 5
    endloop
  endfacet
  facet normal -0 0 1
    outer loop
      vertex 21.5 -2.59808 5
      vertex 26.3101 -4.68561 5
      vertex 22.5981 -1.5 5
    endloop
  endfacet
  facet normal 0 0 1
    outer loop
      vertex 26.3101 -4.68561 5
      vertex 21.5 -2.59808 5
      vertex 23.2997 -6.77129 5
    endloop
  endfacet
  facet normal -0 0 1
    outer loop
      vertex 20 -3 5
      vertex 23.2997 -6.77129 5
      vertex 21.5 -2.59808 5
    endloop
  endfacet
  facet normal 0 0 1
    outer loop
      vertex 20 -3 5
      vertex 19.271 -8.56103 5
      vertex 23.2997 -6.77129 5
    endloop
  endfacet
  facet normal 0 0 1
    outer loop
      vertex 18.5 -2.59808 5
      vertex 19.271 -8.56103 5
      vertex 20 -3 5
    endloop
  endfacet
  facet normal 0 0 1
    outer loop
      vertex 10.524 -4.68561 5
      vertex 17.4019 -1.5 5
      vertex 11.2683 -2.39514 5
    endloop
  endfacet
  facet normal 0 0 1
    outer loop
      vertex 11.2683 -2.39514 5
      vertex 17 0 5
      vertex 11.52 0 5
    endloop
  endfacet
  facet normal 0 0 1
    outer loop
      vertex 18.5 -2.59808 5
      vertex 14.4 -9.97661 5
      vertex 19.271 -8.56103 5
    endloop
  endfacet
  facet normal 0 0 1
    outer loop
      vertex 17.4019 1.5 5
      vertex 11.2683 2.39514 5
      vertex 17 0 5
    endloop
  endfacet
  facet normal 0 0 1
    outer loop
      vertex 17 0 5
      vertex 11.2683 -2.39514 5
      vertex 17.4019 -1.5 5
    endloop
  endfacet
  facet normal 0 0 1
    outer loop
      vertex 17 0 5
      vertex 11.2683 2.39514 5
      vertex 11.52 0 5
    endloop
  endfacet
  facet normal 0 0 1
    outer loop
      vertex 17.4019 1.5 5
      vertex 10.524 4.68561 5
      vertex 11.2683 2.39514 5
    endloop
  endfacet
  facet normal 0 0 1
    outer loop
      vertex 14.4 9.97661 5
      vertex 9.31988 6.77129 5
      vertex 10.524 4.68561 5
    endloop
  endfacet
  facet normal 0 0 1
    outer loop
      vertex 8.89969 10.9562 5
      vertex 9.31988 6.77129 5
      vertex 14.4 9.97661 5
    endloop
  endfacet
  facet normal 0 0 1
    outer loop
      vertex 8.89969 10.9562 5
      vertex 7.70838 8.56103 5
      vertex 9.31988 6.77129 5
    endloop
  endfacet
  facet normal 0 0 1
    outer loop
      vertex 8.89969 10.9562 5
      vertex 5.76 9.97661 5
      vertex 7.70838 8.56103 5
    endloop
  endfacet
  facet normal 0 0 1
    outer loop
      vertex 8.89969 10.9562 5
      vertex 3.55988 10.9562 5
      vertex 5.76 9.97661 5
    endloop
  endfacet
  facet normal 0 0 1
    outer loop
      vertex 3.01042 11.4569 5
      vertex 3.55988 10.9562 5
      vertex 8.89969 10.9562 5
    endloop
  endfacet
  facet normal 0 0 1
    outer loop
      vertex 3.55988 10.9562 5
      vertex 3.01042 11.4569 5
      vertex 1.20417 11.4569 5
    endloop
  endfacet
  facet normal -0 0 1
    outer loop
      vertex -3.01042 11.4569 5
      vertex -3.55988 10.9562 5
      vertex -1.20417 11.4569 5
    endloop
  endfacet
  facet normal 0 0 1
    outer loop
      vertex -8.89969 10.9562 5
      vertex -3.55988 10.9562 5
      vertex -3.01042 11.4569 5
    endloop
  endfacet
  facet normal 0 0 1
    outer loop
      vertex -3.55988 10.9562 5
      vertex -8.89969 10.9562 5
      vertex -5.76 9.97661 5
    endloop
  endfacet
  facet normal 0 0 1
    outer loop
      vertex -8.89969 10.9562 5
      vertex -7.70838 8.56103 5
      vertex -5.76 9.97661 5
    endloop
  endfacet
  facet normal 0 0 1
    outer loop
      vertex -8.89969 10.9562 5
      vertex -9.31988 6.77129 5
      vertex -7.70838 8.56103 5
    endloop
  endfacet
  facet normal -0 0 1
    outer loop
      vertex -14.4 9.97661 5
      vertex -9.31988 6.77129 5
      vertex -8.89969 10.9562 5
    endloop
  endfacet
  facet normal 0 0 1
    outer loop
      vertex -9.31988 6.77129 5
      vertex -14.4 9.97661 5
      vertex -10.524 4.68561 5
    endloop
  endfacet
  facet normal 0 -0 1
    outer loop
      vertex -17.4019 1.5 5
      vertex -10.524 4.68561 5
      vertex -18.5 2.59808 5
    endloop
  endfacet
  facet normal 0 0 1
    outer loop
      vertex -18.5 2.59808 5
      vertex -10.524 4.68561 5
      vertex -14.4 9.97661 5
    endloop
  endfacet
  facet normal 0 0 1
    outer loop
      vertex -3.55988 -10.9562 5
      vertex -3.01042 -11.4569 5
      vertex -1.20417 -11.4569 5
    endloop
  endfacet
  facet normal 0 0 1
    outer loop
      vertex -8.89969 -10.9562 5
      vertex -3.55988 -10.9562 5
      vertex -5.76 -9.97661 5
    endloop
  endfacet
  facet normal 0 0 1
    outer loop
      vertex -3.55988 -10.9562 5
      vertex -8.89969 -10.9562 5
      vertex -3.01042 -11.4569 5
    endloop
  endfacet
  facet normal 0 0 1
    outer loop
      vertex -7.70838 -8.56103 5
      vertex -8.89969 -10.9562 5
      vertex -5.76 -9.97661 5
    endloop
  endfacet
  facet normal 0 0 1
    outer loop
      vertex -9.31988 -6.77129 5
      vertex -8.89969 -10.9562 5
      vertex -7.70838 -8.56103 5
    endloop
  endfacet
  facet normal 0 0 1
    outer loop
      vertex -14.4 -9.97661 5
      vertex -9.31988 -6.77129 5
      vertex -10.524 -4.68561 5
    endloop
  endfacet
  facet normal 0 0 1
    outer loop
      vertex -17.4019 -1.5 5
      vertex -10.524 -4.68561 5
      vertex -11.2683 -2.39514 5
    endloop
  endfacet
  facet normal 0 -0 1
    outer loop
      vertex -17 0 5
      vertex -11.2683 2.39514 5
      vertex -17.4019 1.5 5
    endloop
  endfacet
  facet normal 0 0 1
    outer loop
      vertex -9.31988 -6.77129 5
      vertex -14.4 -9.97661 5
      vertex -8.89969 -10.9562 5
    endloop
  endfacet
  facet normal 0 0 1
    outer loop
      vertex -11.2683 2.39514 5
      vertex -17 0 5
      vertex -11.52 0 5
    endloop
  endfacet
  facet normal -0 0 1
    outer loop
      vertex -17.4019 -1.5 5
      vertex -11.2683 -2.39514 5
      vertex -17 0 5
    endloop
  endfacet
  facet normal 0 0 1
    outer loop
      vertex -11.52 0 5
      vertex -17 0 5
      vertex -11.2683 -2.39514 5
    endloop
  endfacet
  facet normal 0 0 1
    outer loop
      vertex -10.524 4.68561 5
      vertex -17.4019 1.5 5
      vertex -11.2683 2.39514 5
    endloop
  endfacet
  facet normal -0 0 1
    outer loop
      vertex -19.271 8.56103 5
      vertex -18.5 2.59808 5
      vertex -14.4 9.97661 5
    endloop
  endfacet
  facet normal 0 0 1
    outer loop
      vertex -19.271 8.56103 5
      vertex -20 3 5
      vertex -18.5 2.59808 5
    endloop
  endfacet
  facet normal -0 0 1
    outer loop
      vertex -23.2997 6.77129 5
      vertex -20 3 5
      vertex -19.271 8.56103 5
    endloop
  endfacet
  facet normal 0 0 1
    outer loop
      vertex -20 3 5
      vertex -23.2997 6.77129 5
      vertex -21.5 2.59808 5
    endloop
  endfacet
  facet normal 0 0 1
    outer loop
      vertex -21.5 2.59808 5
      vertex -26.3101 4.68561 5
      vertex -22.5981 1.5 5
    endloop
  endfacet
  facet normal -0 0 1
    outer loop
      vertex -26.3101 4.68561 5
      vertex -21.5 2.59808 5
      vertex -23.2997 6.77129 5
    endloop
  endfacet
  facet normal 0 0 1
    outer loop
      vertex -10.524 -4.68561 5
      vertex -17.4019 -1.5 5
      vertex -18.5 -2.59808 5
    endloop
  endfacet
  facet normal 0 0 1
    outer loop
      vertex -10.524 -4.68561 5
      vertex -18.5 -2.59808 5
      vertex -14.4 -9.97661 5
    endloop
  endfacet
  facet normal 0 0 1
    outer loop
      vertex -18.5 -2.59808 5
      vertex -19.271 -8.56103 5
      vertex -14.4 -9.97661 5
    endloop
  endfacet
  facet normal -0 0 1
    outer loop
      vertex -20 -3 5
      vertex -19.271 -8.56103 5
      vertex -18.5 -2.59808 5
    endloop
  endfacet
  facet normal 0 0 1
    outer loop
      vertex -23.2997 -6.77129 5
      vertex -20 -3 5
      vertex -21.5 -2.59808 5
    endloop
  endfacet
  facet normal 0 0 1
    outer loop
      vertex -26.3101 -4.68561 5
      vertex -21.5 -2.59808 5
      vertex -22.5981 -1.5 5
    endloop
  endfacet
  facet normal 0 0 1
    outer loop
      vertex -20 -3 5
      vertex -23.2997 -6.77129 5
      vertex -19.271 -8.56103 5
    endloop
  endfacet
  facet normal 0 0 1
    outer loop
      vertex -28.1707 -2.39514 5
      vertex -22.5981 -1.5 5
      vertex -23 0 5
    endloop
  endfacet
  facet normal -0 0 1
    outer loop
      vertex -28.1707 2.39514 5
      vertex -22.5981 1.5 5
      vertex -26.3101 4.68561 5
    endloop
  endfacet
  facet normal 0 0 1
    outer loop
      vertex -22.5981 1.5 5
      vertex -28.1707 2.39514 5
      vertex -23 0 5
    endloop
  endfacet
  facet normal 0 0 1
    outer loop
      vertex -21.5 -2.59808 5
      vertex -26.3101 -4.68561 5
      vertex -23.2997 -6.77129 5
    endloop
  endfacet
  facet normal 0 0 1
    outer loop
      vertex -28.8 0 5
      vertex -23 0 5
      vertex -28.1707 2.39514 5
    endloop
  endfacet
  facet normal 0 0 1
    outer loop
      vertex -22.5981 -1.5 5
      vertex -28.1707 -2.39514 5
      vertex -26.3101 -4.68561 5
    endloop
  endfacet
  facet normal 0 0 1
    outer loop
      vertex -23 0 5
      vertex -28.8 0 5
      vertex -28.1707 -2.39514 5
    endloop
  endfacet
  facet normal -0.77619 0.630499 0
    outer loop
      vertex -28.1707 2.39514 0
      vertex -26.3101 4.68561 5
      vertex -26.3101 4.68561 0
    endloop
  endfacet
  facet normal -0.77619 0.630499 0
    outer loop
      vertex -26.3101 4.68561 5
      vertex -28.1707 2.39514 0
      vertex -28.1707 2.39514 5
    endloop
  endfacet
  facet normal 0.569495 -0.821995 0
    outer loop
      vertex 23.2997 -6.77129 0
      vertex 26.3101 -4.68561 5
      vertex 23.2997 -6.77129 5
    endloop
  endfacet
  facet normal 0.569495 -0.821995 0
    outer loop
      vertex 26.3101 -4.68561 5
      vertex 23.2997 -6.77129 0
      vertex 26.3101 -4.68561 0
    endloop
  endfacet
  facet normal -0.967169 -0.254134 0
    outer loop
      vertex -28.1707 -2.39514 0
      vertex -28.8 0 5
      vertex -28.8 0 0
    endloop
  endfacet
  facet normal -0.967169 -0.254134 0
    outer loop
      vertex -28.8 0 5
      vertex -28.1707 -2.39514 0
      vertex -28.1707 -2.39514 5
    endloop
  endfacet
  facet normal 0.0847169 -0.996405 0
    outer loop
      vertex 3.01042 -11.4569 0
      vertex 8.89969 -10.9562 5
      vertex 3.01042 -11.4569 5
    endloop
  endfacet
  facet normal 0.0847169 -0.996405 0
    outer loop
      vertex 8.89969 -10.9562 5
      vertex 3.01042 -11.4569 0
      vertex 8.89969 -10.9562 0
    endloop
  endfacet
  facet normal 0.175333 -0.984509 0
    outer loop
      vertex 8.89969 -10.9562 0
      vertex 14.4 -9.97661 5
      vertex 8.89969 -10.9562 5
    endloop
  endfacet
  facet normal 0.175333 -0.984509 0
    outer loop
      vertex 14.4 -9.97661 5
      vertex 8.89969 -10.9562 0
      vertex 14.4 -9.97661 0
    endloop
  endfacet
  facet normal -0.0847169 -0.996405 0
    outer loop
      vertex -8.89969 -10.9562 0
      vertex -3.01042 -11.4569 5
      vertex -8.89969 -10.9562 5
    endloop
  endfacet
  facet normal -0.0847169 -0.996405 -0
    outer loop
      vertex -3.01042 -11.4569 5
      vertex -8.89969 -10.9562 0
      vertex -3.01042 -11.4569 0
    endloop
  endfacet
  facet normal 0 -1 0
    outer loop
      vertex -3.01042 -11.4569 0
      vertex -1.20417 -11.4569 5
      vertex -3.01042 -11.4569 5
    endloop
  endfacet
  facet normal 0 -1 -0
    outer loop
      vertex -1.20417 -11.4569 5
      vertex -3.01042 -11.4569 0
      vertex 1.20417 -11.4569 5
    endloop
  endfacet
  facet normal 0 -1 0
    outer loop
      vertex 3.01042 -11.4569 0
      vertex 1.20417 -11.4569 5
      vertex -3.01042 -11.4569 0
    endloop
  endfacet
  facet normal 0 -1 0
    outer loop
      vertex 1.20417 -11.4569 5
      vertex 3.01042 -11.4569 0
      vertex 3.01042 -11.4569 5
    endloop
  endfacet
  facet normal -0 0 -1
    outer loop
      vertex -6.52628 0.983679 0
      vertex -18.701 0.749999 0
      vertex -14.4 9.97661 0
    endloop
  endfacet
  facet normal 0 0 -1
    outer loop
      vertex -19.25 1.29904 0
      vertex -14.4 9.97661 0
      vertex -18.701 0.749999 0
    endloop
  endfacet
  facet normal 0 0 -1
    outer loop
      vertex -19.25 1.29904 0
      vertex -19.271 8.56103 0
      vertex -14.4 9.97661 0
    endloop
  endfacet
  facet normal 0 0 -1
    outer loop
      vertex -20 1.5 0
      vertex -19.271 8.56103 0
      vertex -19.25 1.29904 0
    endloop
  endfacet
  facet normal 0 0 -1
    outer loop
      vertex -23.2997 6.77129 0
      vertex -20 1.5 0
      vertex -20.75 1.29904 0
    endloop
  endfacet
  facet normal 0 0 -1
    outer loop
      vertex -26.3101 4.68561 0
      vertex -20.75 1.29904 0
      vertex -21.299 0.749999 0
    endloop
  endfacet
  facet normal 0 0 -1
    outer loop
      vertex -28.1707 2.39514 0
      vertex -21.299 0.749999 0
      vertex -21.5 0 0
    endloop
  endfacet
  facet normal 0 0 -1
    outer loop
      vertex -28.1707 -2.39514 0
      vertex -21.299 -0.749999 0
      vertex -26.3101 -4.68561 0
    endloop
  endfacet
  facet normal 0 0 -1
    outer loop
      vertex -20 1.5 0
      vertex -23.2997 6.77129 0
      vertex -19.271 8.56103 0
    endloop
  endfacet
  facet normal -0 0 -1
    outer loop
      vertex -21.299 -0.749999 0
      vertex -28.1707 -2.39514 0
      vertex -21.5 0 0
    endloop
  endfacet
  facet normal 0 0 -1
    outer loop
      vertex -20.75 1.29904 0
      vertex -26.3101 4.68561 0
      vertex -23.2997 6.77129 0
    endloop
  endfacet
  facet normal 0 0 -1
    outer loop
      vertex -28.8 0 0
      vertex -21.5 0 0
      vertex -28.1707 -2.39514 0
    endloop
  endfacet
  facet normal 0 0 -1
    outer loop
      vertex -21.299 0.749999 0
      vertex -28.1707 2.39514 0
      vertex -26.3101 4.68561 0
    endloop
  endfacet
  facet normal 0 0 -1
    outer loop
      vertex -21.5 0 0
      vertex -28.8 0 0
      vertex -28.1707 2.39514 0
    endloop
  endfacet
  facet normal 0 0 -1
    outer loop
      vertex 5.45318 3.71791 0
      vertex 14.4 9.97661 0
      vertex 6.30678 1.94538 0
    endloop
  endfacet
  facet normal -0 0 -1
    outer loop
      vertex 14.4 9.97661 0
      vertex 5.45318 3.71791 0
      vertex 8.89969 10.9562 0
    endloop
  endfacet
  facet normal 0 0 -1
    outer loop
      vertex 4.11503 5.16009 0
      vertex 8.89969 10.9562 0
      vertex 5.45318 3.71791 0
    endloop
  endfacet
  facet normal 0 0 -1
    outer loop
      vertex 4.11503 5.16009 0
      vertex 3.01042 11.4569 0
      vertex 8.89969 10.9562 0
    endloop
  endfacet
  facet normal 0 0 -1
    outer loop
      vertex 2.41125 6.14377 0
      vertex 3.01042 11.4569 0
      vertex 4.11503 5.16009 0
    endloop
  endfacet
  facet normal 0 0 -1
    outer loop
      vertex 0.493218 6.58154 0
      vertex 3.01042 11.4569 0
      vertex 2.41125 6.14377 0
    endloop
  endfacet
  facet normal 0 0 -1
    outer loop
      vertex -3.01042 11.4569 0
      vertex 0.493218 6.58154 0
      vertex -1.46864 6.43452 0
    endloop
  endfacet
  facet normal 0 0 -1
    outer loop
      vertex 0.493218 6.58154 0
      vertex -3.01042 11.4569 0
      vertex 3.01042 11.4569 0
    endloop
  endfacet
  facet normal 0 0 -1
    outer loop
      vertex -3.3 5.71577 0
      vertex -3.01042 11.4569 0
      vertex -1.46864 6.43452 0
    endloop
  endfacet
  facet normal 0 0 -1
    outer loop
      vertex -8.89969 10.9562 0
      vertex -3.3 5.71577 0
      vertex -4.83814 4.48914 0
    endloop
  endfacet
  facet normal 0 0 -1
    outer loop
      vertex -8.89969 10.9562 0
      vertex -4.83814 4.48914 0
      vertex -5.94639 2.86363 0
    endloop
  endfacet
  facet normal 0 0 -1
    outer loop
      vertex -3.3 5.71577 0
      vertex -8.89969 10.9562 0
      vertex -3.01042 11.4569 0
    endloop
  endfacet
  facet normal 0 0 -1
    outer loop
      vertex -14.4 9.97661 0
      vertex -5.94639 2.86363 0
      vertex -6.52628 0.983679 0
    endloop
  endfacet
  facet normal 0 0 -1
    outer loop
      vertex -18.701 -0.75 0
      vertex -6.52628 -0.983679 0
      vertex -14.4 -9.97661 0
    endloop
  endfacet
  facet normal 0 -0 -1
    outer loop
      vertex -18.5 0 0
      vertex -6.52628 -0.983679 0
      vertex -18.701 -0.75 0
    endloop
  endfacet
  facet normal 0 0 -1
    outer loop
      vertex -18.701 0.749999 0
      vertex -6.52628 0.983679 0
      vertex -18.5 0 0
    endloop
  endfacet
  facet normal 0 0 -1
    outer loop
      vertex -5.94639 2.86363 0
      vertex -14.4 9.97661 0
      vertex -8.89969 10.9562 0
    endloop
  endfacet
  facet normal 0 0 -1
    outer loop
      vertex -6.52628 -0.983679 0
      vertex -18.5 0 0
      vertex -6.52628 0.983679 0
    endloop
  endfacet
  facet normal 0 0 -1
    outer loop
      vertex -14.4 -9.97661 0
      vertex -19.25 -1.29904 0
      vertex -18.701 -0.75 0
    endloop
  endfacet
  facet normal 0 0 -1
    outer loop
      vertex -19.271 -8.56103 0
      vertex -19.25 -1.29904 0
      vertex -14.4 -9.97661 0
    endloop
  endfacet
  facet normal 0 0 -1
    outer loop
      vertex -19.271 -8.56103 0
      vertex -20 -1.5 0
      vertex -19.25 -1.29904 0
    endloop
  endfacet
  facet normal 0 0 -1
    outer loop
      vertex -23.2997 -6.77129 0
      vertex -20 -1.5 0
      vertex -19.271 -8.56103 0
    endloop
  endfacet
  facet normal -0 0 -1
    outer loop
      vertex -20 -1.5 0
      vertex -23.2997 -6.77129 0
      vertex -20.75 -1.29904 0
    endloop
  endfacet
  facet normal 0 0 -1
    outer loop
      vertex -26.3101 -4.68561 0
      vertex -20.75 -1.29904 0
      vertex -23.2997 -6.77129 0
    endloop
  endfacet
  facet normal -0 0 -1
    outer loop
      vertex -20.75 -1.29904 0
      vertex -26.3101 -4.68561 0
      vertex -21.299 -0.749999 0
    endloop
  endfacet
  facet normal 0 0 -1
    outer loop
      vertex 21.5 0 0
      vertex 28.8 0 0
      vertex 28.1707 -2.39514 0
    endloop
  endfacet
  facet normal 0 0 -1
    outer loop
      vertex 21.299 -0.75 0
      vertex 28.1707 -2.39514 0
      vertex 26.3101 -4.68561 0
    endloop
  endfacet
  facet normal 0 0 -1
    outer loop
      vertex 28.8 0 0
      vertex 21.5 0 0
      vertex 28.1707 2.39514 0
    endloop
  endfacet
  facet normal 0 0 -1
    outer loop
      vertex 20.75 -1.29904 0
      vertex 26.3101 -4.68561 0
      vertex 23.2997 -6.77129 0
    endloop
  endfacet
  facet normal 0 0 -1
    outer loop
      vertex 21.299 0.749999 0
      vertex 28.1707 2.39514 0
      vertex 21.5 0 0
    endloop
  endfacet
  facet normal -0 0 -1
    outer loop
      vertex 28.1707 2.39514 0
      vertex 21.299 0.749999 0
      vertex 26.3101 4.68561 0
    endloop
  endfacet
  facet normal 0 0 -1
    outer loop
      vertex 28.1707 -2.39514 0
      vertex 21.299 -0.75 0
      vertex 21.5 0 0
    endloop
  endfacet
  facet normal 0 0 -1
    outer loop
      vertex 26.3101 -4.68561 0
      vertex 20.75 -1.29904 0
      vertex 21.299 -0.75 0
    endloop
  endfacet
  facet normal 0 0 -1
    outer loop
      vertex 23.2997 -6.77129 0
      vertex 20 -1.5 0
      vertex 20.75 -1.29904 0
    endloop
  endfacet
  facet normal 0 0 -1
    outer loop
      vertex 19.271 -8.56103 0
      vertex 20 -1.5 0
      vertex 23.2997 -6.77129 0
    endloop
  endfacet
  facet normal 0 0 -1
    outer loop
      vertex 19.271 -8.56103 0
      vertex 19.25 -1.29904 0
      vertex 20 -1.5 0
    endloop
  endfacet
  facet normal 0 0 -1
    outer loop
      vertex 14.4 -9.97661 0
      vertex 19.25 -1.29904 0
      vertex 19.271 -8.56103 0
    endloop
  endfacet
  facet normal -0 0 -1
    outer loop
      vertex 19.25 -1.29904 0
      vertex 14.4 -9.97661 0
      vertex 18.701 -0.749999 0
    endloop
  endfacet
  facet normal 0 0 -1
    outer loop
      vertex 6.30678 -1.94538 0
      vertex 18.701 -0.749999 0
      vertex 14.4 -9.97661 0
    endloop
  endfacet
  facet normal 0 0 -1
    outer loop
      vertex 20.75 1.29904 0
      vertex 26.3101 4.68561 0
      vertex 21.299 0.749999 0
    endloop
  endfacet
  facet normal -0 0 -1
    outer loop
      vertex 26.3101 4.68561 0
      vertex 20.75 1.29904 0
      vertex 23.2997 6.77129 0
    endloop
  endfacet
  facet normal 0 0 -1
    outer loop
      vertex 20 1.5 0
      vertex 23.2997 6.77129 0
      vertex 20.75 1.29904 0
    endloop
  endfacet
  facet normal 0 0 -1
    outer loop
      vertex 20 1.5 0
      vertex 19.271 8.56103 0
      vertex 23.2997 6.77129 0
    endloop
  endfacet
  facet normal 0 0 -1
    outer loop
      vertex 19.25 1.29904 0
      vertex 19.271 8.56103 0
      vertex 20 1.5 0
    endloop
  endfacet
  facet normal 0 0 -1
    outer loop
      vertex 14.4 9.97661 0
      vertex 19.25 1.29904 0
      vertex 18.701 0.749999 0
    endloop
  endfacet
  facet normal 0 0 -1
    outer loop
      vertex 6.30678 1.94538 0
      vertex 18.5 0 0
      vertex 6.6 0 0
    endloop
  endfacet
  facet normal -0 0 -1
    outer loop
      vertex 18.701 -0.749999 0
      vertex 6.30678 -1.94538 0
      vertex 18.5 0 0
    endloop
  endfacet
  facet normal 0 0 -1
    outer loop
      vertex 18.5 0 0
      vertex 6.30678 1.94538 0
      vertex 18.701 0.749999 0
    endloop
  endfacet
  facet normal 0 0 -1
    outer loop
      vertex 5.45318 -3.71791 0
      vertex 14.4 -9.97661 0
      vertex 8.89969 -10.9562 0
    endloop
  endfacet
  facet normal 0 0 -1
    outer loop
      vertex 19.25 1.29904 0
      vertex 14.4 9.97661 0
      vertex 19.271 8.56103 0
    endloop
  endfacet
  facet normal 0 0 -1
    outer loop
      vertex 18.701 0.749999 0
      vertex 6.30678 1.94538 0
      vertex 14.4 9.97661 0
    endloop
  endfacet
  facet normal -0 0 -1
    outer loop
      vertex 18.5 0 0
      vertex 6.30678 -1.94538 0
      vertex 6.6 0 0
    endloop
  endfacet
  facet normal 0 0 -1
    outer loop
      vertex 14.4 -9.97661 0
      vertex 5.45318 -3.71791 0
      vertex 6.30678 -1.94538 0
    endloop
  endfacet
  facet normal 0 0 -1
    outer loop
      vertex 8.89969 -10.9562 0
      vertex 4.11503 -5.16009 0
      vertex 5.45318 -3.71791 0
    endloop
  endfacet
  facet normal 0 0 -1
    outer loop
      vertex 3.01042 -11.4569 0
      vertex 4.11503 -5.16009 0
      vertex 8.89969 -10.9562 0
    endloop
  endfacet
  facet normal 0 0 -1
    outer loop
      vertex 3.01042 -11.4569 0
      vertex 2.41125 -6.14377 0
      vertex 4.11503 -5.16009 0
    endloop
  endfacet
  facet normal 0 0 -1
    outer loop
      vertex 3.01042 -11.4569 0
      vertex 0.493218 -6.58154 0
      vertex 2.41125 -6.14377 0
    endloop
  endfacet
  facet normal 0 0 -1
    outer loop
      vertex -3.01042 -11.4569 0
      vertex 0.493218 -6.58154 0
      vertex 3.01042 -11.4569 0
    endloop
  endfacet
  facet normal -0 0 -1
    outer loop
      vertex 0.493218 -6.58154 0
      vertex -3.01042 -11.4569 0
      vertex -1.46864 -6.43452 0
    endloop
  endfacet
  facet normal 0 0 -1
    outer loop
      vertex -3.01042 -11.4569 0
      vertex -3.3 -5.71577 0
      vertex -1.46864 -6.43452 0
    endloop
  endfacet
  facet normal 0 0 -1
    outer loop
      vertex -8.89969 -10.9562 0
      vertex -3.3 -5.71577 0
      vertex -3.01042 -11.4569 0
    endloop
  endfacet
  facet normal -0 0 -1
    outer loop
      vertex -3.3 -5.71577 0
      vertex -8.89969 -10.9562 0
      vertex -4.83814 -4.48914 0
    endloop
  endfacet
  facet normal -0 0 -1
    outer loop
      vertex -5.94639 -2.86363 0
      vertex -14.4 -9.97661 0
      vertex -6.52628 -0.983679 0
    endloop
  endfacet
  facet normal 0 0 -1
    outer loop
      vertex -14.4 -9.97661 0
      vertex -5.94639 -2.86363 0
      vertex -8.89969 -10.9562 0
    endloop
  endfacet
  facet normal -0 0 -1
    outer loop
      vertex -4.83814 -4.48914 0
      vertex -8.89969 -10.9562 0
      vertex -5.94639 -2.86363 0
    endloop
  endfacet
  facet normal -0.77619 -0.630499 0
    outer loop
      vertex -26.3101 -4.68561 0
      vertex -28.1707 -2.39514 5
      vertex -28.1707 -2.39514 0
    endloop
  endfacet
  facet normal -0.77619 -0.630499 0
    outer loop
      vertex -28.1707 -2.39514 5
      vertex -26.3101 -4.68561 0
      vertex -26.3101 -4.68561 5
    endloop
  endfacet
  facet normal -0.405986 -0.913879 0
    outer loop
      vertex -23.2997 -6.77129 0
      vertex -19.271 -8.56103 5
      vertex -23.2997 -6.77129 5
    endloop
  endfacet
  facet normal -0.405986 -0.913879 -0
    outer loop
      vertex -19.271 -8.56103 5
      vertex -23.2997 -6.77129 0
      vertex -19.271 -8.56103 0
    endloop
  endfacet
  facet normal 0.405986 -0.913879 0
    outer loop
      vertex 19.271 -8.56103 0
      vertex 23.2997 -6.77129 5
      vertex 19.271 -8.56103 5
    endloop
  endfacet
  facet normal 0.405986 -0.913879 0
    outer loop
      vertex 23.2997 -6.77129 5
      vertex 19.271 -8.56103 0
      vertex 23.2997 -6.77129 0
    endloop
  endfacet
  facet normal -0.175333 -0.984509 0
    outer loop
      vertex -14.4 -9.97661 0
      vertex -8.89969 -10.9562 5
      vertex -14.4 -9.97661 5
    endloop
  endfacet
  facet normal -0.175333 -0.984509 -0
    outer loop
      vertex -8.89969 -10.9562 5
      vertex -14.4 -9.97661 0
      vertex -8.89969 -10.9562 0
    endloop
  endfacet
  facet normal -0.279071 -0.96027 0
    outer loop
      vertex -19.271 -8.56103 0
      vertex -14.4 -9.97661 5
      vertex -19.271 -8.56103 5
    endloop
  endfacet
  facet normal -0.279071 -0.96027 -0
    outer loop
      vertex -14.4 -9.97661 5
      vertex -19.271 -8.56103 0
      vertex -14.4 -9.97661 0
    endloop
  endfacet
  facet normal 0.83899 0.0881813 0.536954
    outer loop
      vertex 11.52 0 5
      vertex 9.39022 1.99595 8
      vertex 9.6 0 8
    endloop
  endfacet
  facet normal 0.83899 0.0881814 0.536954
    outer loop
      vertex 11.2683 2.39514 5
      vertex 9.39022 1.99595 8
      vertex 11.52 0 5
    endloop
  endfacet
  facet normal 0.626926 0.564487 0.536954
    outer loop
      vertex 7.70838 8.56103 5
      vertex 6.42365 7.13419 8
      vertex 9.31988 6.77129 5
    endloop
  endfacet
  facet normal 0.495863 0.682496 0.536954
    outer loop
      vertex 7.70838 8.56103 5
      vertex 4.8 8.31384 8
      vertex 6.42365 7.13419 8
    endloop
  endfacet
  facet normal -0.626926 -0.564487 0.536954
    outer loop
      vertex -6.42365 -7.13419 8
      vertex -9.31988 -6.77129 5
      vertex -7.70838 -8.56103 5
    endloop
  endfacet
  facet normal 0.730589 -0.421806 0.536954
    outer loop
      vertex 8.77004 -3.90467 8
      vertex 7.76656 -5.64274 8
      vertex 9.31988 -6.77129 5
    endloop
  endfacet
  facet normal -0.343128 0.770678 0.536954
    outer loop
      vertex -3.55988 10.9562 5
      vertex -5.76 9.97661 5
      vertex -4.8 8.31384 8
    endloop
  endfacet
  facet normal 0.626926 0.564486 0.536954
    outer loop
      vertex 9.31988 6.77129 5
      vertex 6.42365 7.13419 8
      vertex 7.76656 5.64274 8
    endloop
  endfacet
  facet normal 0.495862 0.682496 0.536954
    outer loop
      vertex 5.76 9.97661 5
      vertex 4.8 8.31384 8
      vertex 7.70838 8.56103 5
    endloop
  endfacet
  facet normal -0.83899 -0.0881814 0.536954
    outer loop
      vertex -9.39022 -1.99595 8
      vertex -11.52 0 5
      vertex -11.2683 -2.39514 5
    endloop
  endfacet
  facet normal 0.495863 -0.682496 0.536954
    outer loop
      vertex 6.42365 -7.13419 8
      vertex 4.8 -8.31384 8
      vertex 7.70838 -8.56103 5
    endloop
  endfacet
  facet normal 0.175397 -0.825177 0.536954
    outer loop
      vertex 3.55988 -10.9562 5
      vertex 1.00347 -9.54741 8
      vertex 1.20417 -11.4569 5
    endloop
  endfacet
  facet normal 0.83899 -0.0881814 0.536954
    outer loop
      vertex 11.52 0 5
      vertex 9.39022 -1.99595 8
      vertex 11.2683 -2.39514 5
    endloop
  endfacet
  facet normal 0.802322 -0.26069 0.536954
    outer loop
      vertex 11.2683 -2.39514 5
      vertex 9.39022 -1.99595 8
      vertex 10.524 -4.68561 5
    endloop
  endfacet
  facet normal 0.802322 0.26069 0.536954
    outer loop
      vertex 10.524 4.68561 5
      vertex 9.39022 1.99595 8
      vertex 11.2683 2.39514 5
    endloop
  endfacet
  facet normal -0.83899 0.0881813 0.536954
    outer loop
      vertex -9.39022 1.99595 8
      vertex -11.52 0 5
      vertex -9.6 0 8
    endloop
  endfacet
  facet normal 0.730589 0.421806 0.536954
    outer loop
      vertex 9.31988 6.77129 5
      vertex 7.76656 5.64274 8
      vertex 8.77004 3.90467 8
    endloop
  endfacet
  facet normal 0.343128 0.770678 0.536954
    outer loop
      vertex 5.76 9.97661 5
      vertex 3.55988 10.9562 5
      vertex 4.8 8.31384 8
    endloop
  endfacet
  facet normal 0 0.843612 0.536954
    outer loop
      vertex 1.20417 11.4569 5
      vertex -1.00347 9.54741 8
      vertex 1.00347 9.54741 8
    endloop
  endfacet
  facet normal 0 0.843612 0.536954
    outer loop
      vertex -1.00347 9.54741 8
      vertex 1.20417 11.4569 5
      vertex -1.20417 11.4569 5
    endloop
  endfacet
  facet normal 0.175397 0.825177 0.536954
    outer loop
      vertex 1.20417 11.4569 5
      vertex 1.00347 9.54741 8
      vertex 3.55988 10.9562 5
    endloop
  endfacet
  facet normal -0.730589 -0.421806 0.536954
    outer loop
      vertex -8.77004 -3.90467 8
      vertex -10.524 -4.68561 5
      vertex -9.31988 -6.77129 5
    endloop
  endfacet
  facet normal -0.802322 -0.26069 0.536954
    outer loop
      vertex -9.39022 -1.99595 8
      vertex -11.2683 -2.39514 5
      vertex -10.524 -4.68561 5
    endloop
  endfacet
  facet normal -0.730589 -0.421806 0.536954
    outer loop
      vertex -8.77004 -3.90467 8
      vertex -9.31988 -6.77129 5
      vertex -7.76656 -5.64274 8
    endloop
  endfacet
  facet normal -0.626926 -0.564486 0.536954
    outer loop
      vertex -7.76656 -5.64274 8
      vertex -9.31988 -6.77129 5
      vertex -6.42365 -7.13419 8
    endloop
  endfacet
  facet normal 0.343128 -0.770678 0.536954
    outer loop
      vertex 4.8 -8.31384 8
      vertex 2.96656 -9.13014 8
      vertex 3.55988 -10.9562 5
    endloop
  endfacet
  facet normal 0.730589 -0.421806 0.536954
    outer loop
      vertex 10.524 -4.68561 5
      vertex 8.77004 -3.90467 8
      vertex 9.31988 -6.77129 5
    endloop
  endfacet
  facet normal 0.83899 -0.0881813 0.536954
    outer loop
      vertex 9.6 0 8
      vertex 9.39022 -1.99595 8
      vertex 11.52 0 5
    endloop
  endfacet
  facet normal -0.802322 0.26069 0.536954
    outer loop
      vertex -10.524 4.68561 5
      vertex -11.2683 2.39514 5
      vertex -9.39022 1.99595 8
    endloop
  endfacet
  facet normal -0.730589 0.421806 0.536954
    outer loop
      vertex -7.76656 5.64274 8
      vertex -9.31988 6.77129 5
      vertex -8.77004 3.90467 8
    endloop
  endfacet
  facet normal -0.83899 -0.0881813 0.536954
    outer loop
      vertex -9.6 0 8
      vertex -11.52 0 5
      vertex -9.39022 -1.99595 8
    endloop
  endfacet
  facet normal -0.495862 0.682496 0.536954
    outer loop
      vertex -5.76 9.97661 5
      vertex -7.70838 8.56103 5
      vertex -4.8 8.31384 8
    endloop
  endfacet
  facet normal 0.802322 0.26069 0.536954
    outer loop
      vertex 10.524 4.68561 5
      vertex 8.77004 3.90467 8
      vertex 9.39022 1.99595 8
    endloop
  endfacet
  facet normal 0.730589 0.421806 0.536954
    outer loop
      vertex 9.31988 6.77129 5
      vertex 8.77004 3.90467 8
      vertex 10.524 4.68561 5
    endloop
  endfacet
  facet normal 0.343128 0.770678 0.536954
    outer loop
      vertex 3.55988 10.9562 5
      vertex 2.96656 9.13014 8
      vertex 4.8 8.31384 8
    endloop
  endfacet
  facet normal 0.175397 0.825177 0.536954
    outer loop
      vertex 3.55988 10.9562 5
      vertex 1.00347 9.54741 8
      vertex 2.96656 9.13014 8
    endloop
  endfacet
  facet normal -0.343128 -0.770678 0.536954
    outer loop
      vertex -4.8 -8.31384 8
      vertex -5.76 -9.97661 5
      vertex -3.55988 -10.9562 5
    endloop
  endfacet
  facet normal -0.495863 -0.682496 0.536954
    outer loop
      vertex -6.42365 -7.13419 8
      vertex -7.70838 -8.56103 5
      vertex -4.8 -8.31384 8
    endloop
  endfacet
  facet normal 0 -0.843612 0.536954
    outer loop
      vertex -1.20417 -11.4569 5
      vertex 1.00347 -9.54741 8
      vertex -1.00347 -9.54741 8
    endloop
  endfacet
  facet normal 0 -0.843612 0.536954
    outer loop
      vertex 1.00347 -9.54741 8
      vertex -1.20417 -11.4569 5
      vertex 1.20417 -11.4569 5
    endloop
  endfacet
  facet normal -0.802322 -0.26069 0.536954
    outer loop
      vertex -9.39022 -1.99595 8
      vertex -10.524 -4.68561 5
      vertex -8.77004 -3.90467 8
    endloop
  endfacet
  facet normal 0.495862 -0.682496 0.536954
    outer loop
      vertex 7.70838 -8.56103 5
      vertex 4.8 -8.31384 8
      vertex 5.76 -9.97661 5
    endloop
  endfacet
  facet normal 0.343128 -0.770678 0.536954
    outer loop
      vertex 4.8 -8.31384 8
      vertex 3.55988 -10.9562 5
      vertex 5.76 -9.97661 5
    endloop
  endfacet
  facet normal 0.626926 -0.564487 0.536954
    outer loop
      vertex 9.31988 -6.77129 5
      vertex 6.42365 -7.13419 8
      vertex 7.70838 -8.56103 5
    endloop
  endfacet
  facet normal 0.626926 -0.564486 0.536954
    outer loop
      vertex 7.76656 -5.64274 8
      vertex 6.42365 -7.13419 8
      vertex 9.31988 -6.77129 5
    endloop
  endfacet
  facet normal 0.175397 -0.825177 0.536954
    outer loop
      vertex 2.96656 -9.13014 8
      vertex 1.00347 -9.54741 8
      vertex 3.55988 -10.9562 5
    endloop
  endfacet
  facet normal 0.802322 -0.26069 0.536954
    outer loop
      vertex 9.39022 -1.99595 8
      vertex 8.77004 -3.90467 8
      vertex 10.524 -4.68561 5
    endloop
  endfacet
  facet normal -0.730589 0.421806 0.536954
    outer loop
      vertex -9.31988 6.77129 5
      vertex -10.524 4.68561 5
      vertex -8.77004 3.90467 8
    endloop
  endfacet
  facet normal -0.83899 0.0881814 0.536954
    outer loop
      vertex -11.2683 2.39514 5
      vertex -11.52 0 5
      vertex -9.39022 1.99595 8
    endloop
  endfacet
  facet normal -0.802322 0.26069 0.536954
    outer loop
      vertex -8.77004 3.90467 8
      vertex -10.524 4.68561 5
      vertex -9.39022 1.99595 8
    endloop
  endfacet
  facet normal -0.175397 0.825177 0.536954
    outer loop
      vertex -1.20417 11.4569 5
      vertex -3.55988 10.9562 5
      vertex -1.00347 9.54741 8
    endloop
  endfacet
  facet normal -0.495862 -0.682496 0.536954
    outer loop
      vertex -4.8 -8.31384 8
      vertex -7.70838 -8.56103 5
      vertex -5.76 -9.97661 5
    endloop
  endfacet
  facet normal -0.175397 -0.825177 0.536954
    outer loop
      vertex -1.00347 -9.54741 8
      vertex -3.55988 -10.9562 5
      vertex -1.20417 -11.4569 5
    endloop
  endfacet
  facet normal -0.175397 -0.825177 0.536954
    outer loop
      vertex -2.96656 -9.13014 8
      vertex -3.55988 -10.9562 5
      vertex -1.00347 -9.54741 8
    endloop
  endfacet
  facet normal -0.343128 -0.770678 0.536954
    outer loop
      vertex -2.96656 -9.13014 8
      vertex -4.8 -8.31384 8
      vertex -3.55988 -10.9562 5
    endloop
  endfacet
  facet normal -0.495863 0.682496 0.536954
    outer loop
      vertex -4.8 8.31384 8
      vertex -7.70838 8.56103 5
      vertex -6.42365 7.13419 8
    endloop
  endfacet
  facet normal -0.175397 0.825177 0.536954
    outer loop
      vertex -1.00347 9.54741 8
      vertex -3.55988 10.9562 5
      vertex -2.96656 9.13014 8
    endloop
  endfacet
  facet normal -0.343128 0.770678 0.536954
    outer loop
      vertex -3.55988 10.9562 5
      vertex -4.8 8.31384 8
      vertex -2.96656 9.13014 8
    endloop
  endfacet
  facet normal -0.626926 0.564487 0.536954
    outer loop
      vertex -7.70838 8.56103 5
      vertex -9.31988 6.77129 5
      vertex -6.42365 7.13419 8
    endloop
  endfacet
  facet normal -0.626926 0.564486 0.536954
    outer loop
      vertex -6.42365 7.13419 8
      vertex -9.31988 6.77129 5
      vertex -7.76656 5.64274 8
    endloop
  endfacet
  facet normal 0.994522 0.104528 0
    outer loop
      vertex 9.6 0 30
      vertex 9.39022 1.99595 8
      vertex 9.39022 1.99595 30
    endloop
  endfacet
  facet normal 0.994522 0.104528 0
    outer loop
      vertex 9.39022 1.99595 8
      vertex 9.6 0 30
      vertex 9.6 0 8
    endloop
  endfacet
  facet normal -0.994522 0.104528 0
    outer loop
      vertex -9.6 0 8
      vertex -9.39022 1.99595 30
      vertex -9.39022 1.99595 8
    endloop
  endfacet
  facet normal -0.994522 0.104528 0
    outer loop
      vertex -9.39022 1.99595 30
      vertex -9.6 0 8
      vertex -9.6 0 30
    endloop
  endfacet
  facet normal 0 1 -0
    outer loop
      vertex 1.00347 9.54741 8
      vertex -1.00347 9.54741 30
      vertex 1.00347 9.54741 30
    endloop
  endfacet
  facet normal 0 1 0
    outer loop
      vertex -1.00347 9.54741 30
      vertex 1.00347 9.54741 8
      vertex -1.00347 9.54741 8
    endloop
  endfacet
  facet normal 0.743145 0.669131 0
    outer loop
      vertex 7.76656 5.64274 30
      vertex 6.42365 7.13419 8
      vertex 6.42365 7.13419 30
    endloop
  endfacet
  facet normal 0.743145 0.669131 0
    outer loop
      vertex 6.42365 7.13419 8
      vertex 7.76656 5.64274 30
      vertex 7.76656 5.64274 8
    endloop
  endfacet
  facet normal -0.743145 0.669131 0
    outer loop
      vertex -7.76656 5.64274 8
      vertex -6.42365 7.13419 30
      vertex -6.42365 7.13419 8
    endloop
  endfacet
  facet normal -0.743145 0.669131 0
    outer loop
      vertex -6.42365 7.13419 30
      vertex -7.76656 5.64274 8
      vertex -7.76656 5.64274 30
    endloop
  endfacet
  facet normal 0 0 1
    outer loop
      vertex 6.6 0 30
      vertex 9.6 0 30
      vertex 9.39022 1.99595 30
    endloop
  endfacet
  facet normal 0 0 1
    outer loop
      vertex 6.30678 1.94538 30
      vertex 9.39022 1.99595 30
      vertex 8.77004 3.90467 30
    endloop
  endfacet
  facet normal 0 0 1
    outer loop
      vertex 9.6 0 30
      vertex 6.6 0 30
      vertex 9.39022 -1.99595 30
    endloop
  endfacet
  facet normal 0 0 1
    outer loop
      vertex 5.45318 3.71791 30
      vertex 8.77004 3.90467 30
      vertex 7.76656 5.64274 30
    endloop
  endfacet
  facet normal -0 0 1
    outer loop
      vertex 6.30678 -1.94538 30
      vertex 9.39022 -1.99595 30
      vertex 6.6 0 30
    endloop
  endfacet
  facet normal 0 0 1
    outer loop
      vertex 9.39022 -1.99595 30
      vertex 6.30678 -1.94538 30
      vertex 8.77004 -3.90467 30
    endloop
  endfacet
  facet normal 0 0 1
    outer loop
      vertex 5.45318 3.71791 30
      vertex 7.76656 5.64274 30
      vertex 6.42365 7.13419 30
    endloop
  endfacet
  facet normal 0 0 1
    outer loop
      vertex 9.39022 1.99595 30
      vertex 6.30678 1.94538 30
      vertex 6.6 0 30
    endloop
  endfacet
  facet normal 0 0 1
    outer loop
      vertex 8.77004 3.90467 30
      vertex 5.45318 3.71791 30
      vertex 6.30678 1.94538 30
    endloop
  endfacet
  facet normal 0 0 1
    outer loop
      vertex 4.11503 5.16009 30
      vertex 6.42365 7.13419 30
      vertex 4.8 8.31384 30
    endloop
  endfacet
  facet normal 0 0 1
    outer loop
      vertex 6.42365 7.13419 30
      vertex 4.11503 5.16009 30
      vertex 5.45318 3.71791 30
    endloop
  endfacet
  facet normal 0 0 1
    outer loop
      vertex 2.41125 6.14377 30
      vertex 4.8 8.31384 30
      vertex 2.96656 9.13014 30
    endloop
  endfacet
  facet normal 0 0 1
    outer loop
      vertex 4.8 8.31384 30
      vertex 2.41125 6.14377 30
      vertex 4.11503 5.16009 30
    endloop
  endfacet
  facet normal 0 0 1
    outer loop
      vertex 0.493218 6.58154 30
      vertex 2.96656 9.13014 30
      vertex 1.00347 9.54741 30
    endloop
  endfacet
  facet normal 0 0 1
    outer loop
      vertex 2.96656 9.13014 30
      vertex 0.493218 6.58154 30
      vertex 2.41125 6.14377 30
    endloop
  endfacet
  facet normal -0 0 1
    outer loop
      vertex -1.00347 9.54741 30
      vertex 0.493218 6.58154 30
      vertex 1.00347 9.54741 30
    endloop
  endfacet
  facet normal 0 0 1
    outer loop
      vertex -1.00347 9.54741 30
      vertex -1.46864 6.43452 30
      vertex 0.493218 6.58154 30
    endloop
  endfacet
  facet normal -0 0 1
    outer loop
      vertex -2.96656 9.13014 30
      vertex -1.46864 6.43452 30
      vertex -1.00347 9.54741 30
    endloop
  endfacet
  facet normal 0 0 1
    outer loop
      vertex -2.96656 9.13014 30
      vertex -3.3 5.71577 30
      vertex -1.46864 6.43452 30
    endloop
  endfacet
  facet normal -0 0 1
    outer loop
      vertex -4.8 8.31384 30
      vertex -3.3 5.71577 30
      vertex -2.96656 9.13014 30
    endloop
  endfacet
  facet normal -0 0 1
    outer loop
      vertex -6.42365 7.13419 30
      vertex -3.3 5.71577 30
      vertex -4.8 8.31384 30
    endloop
  endfacet
  facet normal 0 0 1
    outer loop
      vertex -3.3 5.71577 30
      vertex -6.42365 7.13419 30
      vertex -4.83814 4.48914 30
    endloop
  endfacet
  facet normal -0 0 1
    outer loop
      vertex -7.76656 5.64274 30
      vertex -4.83814 4.48914 30
      vertex -6.42365 7.13419 30
    endloop
  endfacet
  facet normal 0 0 1
    outer loop
      vertex -4.83814 4.48914 30
      vertex -7.76656 5.64274 30
      vertex -5.94639 2.86363 30
    endloop
  endfacet
  facet normal 0 0 1
    outer loop
      vertex -9.39022 1.99595 30
      vertex -5.94639 2.86363 30
      vertex -8.77004 3.90467 30
    endloop
  endfacet
  facet normal -0 0 1
    outer loop
      vertex -8.77004 3.90467 30
      vertex -5.94639 2.86363 30
      vertex -7.76656 5.64274 30
    endloop
  endfacet
  facet normal -0 0 1
    outer loop
      vertex 5.45318 -3.71791 30
      vertex 8.77004 -3.90467 30
      vertex 6.30678 -1.94538 30
    endloop
  endfacet
  facet normal 0 0 1
    outer loop
      vertex 8.77004 -3.90467 30
      vertex 5.45318 -3.71791 30
      vertex 7.76656 -5.64274 30
    endloop
  endfacet
  facet normal 0 0 1
    outer loop
      vertex 7.76656 -5.64274 30
      vertex 5.45318 -3.71791 30
      vertex 6.42365 -7.13419 30
    endloop
  endfacet
  facet normal -0 0 1
    outer loop
      vertex 4.11503 -5.16009 30
      vertex 6.42365 -7.13419 30
      vertex 5.45318 -3.71791 30
    endloop
  endfacet
  facet normal 0 0 1
    outer loop
      vertex 6.42365 -7.13419 30
      vertex 4.11503 -5.16009 30
      vertex 4.8 -8.31384 30
    endloop
  endfacet
  facet normal -0 0 1
    outer loop
      vertex 2.41125 -6.14377 30
      vertex 4.8 -8.31384 30
      vertex 4.11503 -5.16009 30
    endloop
  endfacet
  facet normal 0 0 1
    outer loop
      vertex 4.8 -8.31384 30
      vertex 2.41125 -6.14377 30
      vertex 2.96656 -9.13014 30
    endloop
  endfacet
  facet normal -0 0 1
    outer loop
      vertex 0.493218 -6.58154 30
      vertex 2.96656 -9.13014 30
      vertex 2.41125 -6.14377 30
    endloop
  endfacet
  facet normal 0 0 1
    outer loop
      vertex 2.96656 -9.13014 30
      vertex 0.493218 -6.58154 30
      vertex 1.00347 -9.54741 30
    endloop
  endfacet
  facet normal 0 0 1
    outer loop
      vertex 0.493218 -6.58154 30
      vertex -1.00347 -9.54741 30
      vertex 1.00347 -9.54741 30
    endloop
  endfacet
  facet normal 0 0 1
    outer loop
      vertex -1.46864 -6.43452 30
      vertex -1.00347 -9.54741 30
      vertex 0.493218 -6.58154 30
    endloop
  endfacet
  facet normal 0 0 1
    outer loop
      vertex -1.46864 -6.43452 30
      vertex -2.96656 -9.13014 30
      vertex -1.00347 -9.54741 30
    endloop
  endfacet
  facet normal 0 0 1
    outer loop
      vertex -3.3 -5.71577 30
      vertex -2.96656 -9.13014 30
      vertex -1.46864 -6.43452 30
    endloop
  endfacet
  facet normal 0 0 1
    outer loop
      vertex -3.3 -5.71577 30
      vertex -4.8 -8.31384 30
      vertex -2.96656 -9.13014 30
    endloop
  endfacet
  facet normal 0 0 1
    outer loop
      vertex -6.42365 -7.13419 30
      vertex -3.3 -5.71577 30
      vertex -4.83814 -4.48914 30
    endloop
  endfacet
  facet normal 0 0 1
    outer loop
      vertex -7.76656 -5.64274 30
      vertex -4.83814 -4.48914 30
      vertex -5.94639 -2.86363 30
    endloop
  endfacet
  facet normal 0 0 1
    outer loop
      vertex -3.3 -5.71577 30
      vertex -6.42365 -7.13419 30
      vertex -4.8 -8.31384 30
    endloop
  endfacet
  facet normal -0 0 1
    outer loop
      vertex -9.39022 -1.99595 30
      vertex -5.94639 -2.86363 30
      vertex -6.52628 -0.983679 30
    endloop
  endfacet
  facet normal 0 0 1
    outer loop
      vertex -5.94639 2.86363 30
      vertex -9.39022 1.99595 30
      vertex -6.52628 0.983679 30
    endloop
  endfacet
  facet normal 0 0 1
    outer loop
      vertex -4.83814 -4.48914 30
      vertex -7.76656 -5.64274 30
      vertex -6.42365 -7.13419 30
    endloop
  endfacet
  facet normal 0 0 1
    outer loop
      vertex -9.6 0 30
      vertex -6.52628 0.983679 30
      vertex -9.39022 1.99595 30
    endloop
  endfacet
  facet normal 0 0 1
    outer loop
      vertex -5.94639 -2.86363 30
      vertex -8.77004 -3.90467 30
      vertex -7.76656 -5.64274 30
    endloop
  endfacet
  facet normal 0 0 1
    outer loop
      vertex -6.52628 0.983679 30
      vertex -9.6 0 30
      vertex -6.52628 -0.983679 30
    endloop
  endfacet
  facet normal 0 0 1
    outer loop
      vertex -5.94639 -2.86363 30
      vertex -9.39022 -1.99595 30
      vertex -8.77004 -3.90467 30
    endloop
  endfacet
  facet normal 0 0 1
    outer loop
      vertex -6.52628 -0.983679 30
      vertex -9.6 0 30
      vertex -9.39022 -1.99595 30
    endloop
  endfacet
  facet normal -0.406737 0.913546 0
    outer loop
      vertex -2.96656 9.13014 8
      vertex -4.8 8.31384 30
      vertex -2.96656 9.13014 30
    endloop
  endfacet
  facet normal -0.406737 0.913546 0
    outer loop
      vertex -4.8 8.31384 30
      vertex -2.96656 9.13014 8
      vertex -4.8 8.31384 8
    endloop
  endfacet
  facet normal 0.866025 -0.5 0
    outer loop
      vertex 7.76656 -5.64274 30
      vertex 8.77004 -3.90467 8
      vertex 8.77004 -3.90467 30
    endloop
  endfacet
  facet normal 0.866025 -0.5 0
    outer loop
      vertex 8.77004 -3.90467 8
      vertex 7.76656 -5.64274 30
      vertex 7.76656 -5.64274 8
    endloop
  endfacet
  facet normal 0.866025 0.5 0
    outer loop
      vertex 8.77004 3.90467 30
      vertex 7.76656 5.64274 8
      vertex 7.76656 5.64274 30
    endloop
  endfacet
  facet normal 0.866025 0.5 0
    outer loop
      vertex 7.76656 5.64274 8
      vertex 8.77004 3.90467 30
      vertex 8.77004 3.90467 8
    endloop
  endfacet
  facet normal 0.951056 0.309017 0
    outer loop
      vertex 9.39022 1.99595 30
      vertex 8.77004 3.90467 8
      vertex 8.77004 3.90467 30
    endloop
  endfacet
  facet normal 0.951056 0.309017 0
    outer loop
      vertex 8.77004 3.90467 8
      vertex 9.39022 1.99595 30
      vertex 9.39022 1.99595 8
    endloop
  endfacet
  facet normal 0.406737 0.913546 -0
    outer loop
      vertex 4.8 8.31384 8
      vertex 2.96656 9.13014 30
      vertex 4.8 8.31384 30
    endloop
  endfacet
  facet normal 0.406737 0.913546 0
    outer loop
      vertex 2.96656 9.13014 30
      vertex 4.8 8.31384 8
      vertex 2.96656 9.13014 8
    endloop
  endfacet
  facet normal 0.207912 0.978148 -0
    outer loop
      vertex 2.96656 9.13014 8
      vertex 1.00347 9.54741 30
      vertex 2.96656 9.13014 30
    endloop
  endfacet
  facet normal 0.207912 0.978148 0
    outer loop
      vertex 1.00347 9.54741 30
      vertex 2.96656 9.13014 8
      vertex 1.00347 9.54741 8
    endloop
  endfacet
  facet normal 0.587785 0.809017 -0
    outer loop
      vertex 6.42365 7.13419 8
      vertex 4.8 8.31384 30
      vertex 6.42365 7.13419 30
    endloop
  endfacet
  facet normal 0.587785 0.809017 0
    outer loop
      vertex 4.8 8.31384 30
      vertex 6.42365 7.13419 8
      vertex 4.8 8.31384 8
    endloop
  endfacet
  facet normal -0.866025 0.5 0
    outer loop
      vertex -8.77004 3.90467 8
      vertex -7.76656 5.64274 30
      vertex -7.76656 5.64274 8
    endloop
  endfacet
  facet normal -0.866025 0.5 0
    outer loop
      vertex -7.76656 5.64274 30
      vertex -8.77004 3.90467 8
      vertex -8.77004 3.90467 30
    endloop
  endfacet
  facet normal -0.951056 0.309017 0
    outer loop
      vertex -9.39022 1.99595 8
      vertex -8.77004 3.90467 30
      vertex -8.77004 3.90467 8
    endloop
  endfacet
  facet normal -0.951056 0.309017 0
    outer loop
      vertex -8.77004 3.90467 30
      vertex -9.39022 1.99595 8
      vertex -9.39022 1.99595 30
    endloop
  endfacet
  facet normal -0.587785 0.809017 0
    outer loop
      vertex -4.8 8.31384 8
      vertex -6.42365 7.13419 30
      vertex -4.8 8.31384 30
    endloop
  endfacet
  facet normal -0.587785 0.809017 0
    outer loop
      vertex -6.42365 7.13419 30
      vertex -4.8 8.31384 8
      vertex -6.42365 7.13419 8
    endloop
  endfacet
  facet normal -0.207912 0.978148 0
    outer loop
      vertex -1.00347 9.54741 8
      vertex -2.96656 9.13014 30
      vertex -1.00347 9.54741 30
    endloop
  endfacet
  facet normal -0.207912 0.978148 0
    outer loop
      vertex -2.96656 9.13014 30
      vertex -1.00347 9.54741 8
      vertex -2.96656 9.13014 8
    endloop
  endfacet
  facet normal -0.207912 -0.978148 0
    outer loop
      vertex -2.96656 -9.13014 30
      vertex -1.00347 -9.54741 21.0456
      vertex -1.00347 -9.54741 30
    endloop
  endfacet
  facet normal -0.207911 -0.978148 1.08438e-007
    outer loop
      vertex -2.96656 -9.13014 30
      vertex -1.29904 -9.48459 20.75
      vertex -1.00347 -9.54741 21.0456
    endloop
  endfacet
  facet normal -0.207912 -0.978147 -9.59849e-008
    outer loop
      vertex -2.96656 -9.13014 30
      vertex -1.5 -9.44187 20
      vertex -1.29904 -9.48459 20.75
    endloop
  endfacet
  facet normal -0.207912 -0.978148 0
    outer loop
      vertex -2.96656 -9.13014 8
      vertex -1.5 -9.44187 20
      vertex -2.96656 -9.13014 30
    endloop
  endfacet
  facet normal -0.207912 -0.978147 8.49985e-008
    outer loop
      vertex -2.96656 -9.13014 8
      vertex -1.29904 -9.48459 19.25
      vertex -1.5 -9.44187 20
    endloop
  endfacet
  facet normal -0.207911 -0.978148 -9.16484e-008
    outer loop
      vertex -2.96656 -9.13014 8
      vertex -1.00347 -9.54741 18.9544
      vertex -1.29904 -9.48459 19.25
    endloop
  endfacet
  facet normal -0.207912 -0.978148 -0
    outer loop
      vertex -1.00347 -9.54741 18.9544
      vertex -2.96656 -9.13014 8
      vertex -1.00347 -9.54741 8
    endloop
  endfacet
  facet normal -0.994522 -0.104528 0
    outer loop
      vertex -9.39022 -1.99595 8
      vertex -9.6 0 30
      vertex -9.6 0 8
    endloop
  endfacet
  facet normal -0.994522 -0.104528 0
    outer loop
      vertex -9.6 0 30
      vertex -9.39022 -1.99595 8
      vertex -9.39022 -1.99595 30
    endloop
  endfacet
  facet normal 0.743145 -0.669131 0
    outer loop
      vertex 6.42365 -7.13419 30
      vertex 7.76656 -5.64274 8
      vertex 7.76656 -5.64274 30
    endloop
  endfacet
  facet normal 0.743145 -0.669131 0
    outer loop
      vertex 7.76656 -5.64274 8
      vertex 6.42365 -7.13419 30
      vertex 6.42365 -7.13419 8
    endloop
  endfacet
  facet normal 0.951056 -0.309017 0
    outer loop
      vertex 8.77004 -3.90467 30
      vertex 9.39022 -1.99595 8
      vertex 9.39022 -1.99595 30
    endloop
  endfacet
  facet normal 0.951056 -0.309017 0
    outer loop
      vertex 9.39022 -1.99595 8
      vertex 8.77004 -3.90467 30
      vertex 8.77004 -3.90467 8
    endloop
  endfacet
  facet normal 0.994522 -0.104528 0
    outer loop
      vertex 9.39022 -1.99595 30
      vertex 9.6 0 8
      vertex 9.6 0 30
    endloop
  endfacet
  facet normal 0.994522 -0.104528 0
    outer loop
      vertex 9.6 0 8
      vertex 9.39022 -1.99595 30
      vertex 9.39022 -1.99595 8
    endloop
  endfacet
  facet normal -0.866025 -0.5 0
    outer loop
      vertex -7.76656 -5.64274 8
      vertex -8.77004 -3.90467 30
      vertex -8.77004 -3.90467 8
    endloop
  endfacet
  facet normal -0.866025 -0.5 0
    outer loop
      vertex -8.77004 -3.90467 30
      vertex -7.76656 -5.64274 8
      vertex -7.76656 -5.64274 30
    endloop
  endfacet
  facet normal -0.951056 -0.309017 0
    outer loop
      vertex -8.77004 -3.90467 8
      vertex -9.39022 -1.99595 30
      vertex -9.39022 -1.99595 8
    endloop
  endfacet
  facet normal -0.951056 -0.309017 0
    outer loop
      vertex -9.39022 -1.99595 30
      vertex -8.77004 -3.90467 8
      vertex -8.77004 -3.90467 30
    endloop
  endfacet
  facet normal 0.207912 -0.978148 0
    outer loop
      vertex 1.00347 -9.54741 21.0456
      vertex 2.96656 -9.13014 30
      vertex 1.00347 -9.54741 30
    endloop
  endfacet
  facet normal 0.207911 -0.978148 1.08438e-007
    outer loop
      vertex 1.29904 -9.48459 20.75
      vertex 2.96656 -9.13014 30
      vertex 1.00347 -9.54741 21.0456
    endloop
  endfacet
  facet normal 0.207912 -0.978147 -9.59849e-008
    outer loop
      vertex 1.5 -9.44187 20
      vertex 2.96656 -9.13014 30
      vertex 1.29904 -9.48459 20.75
    endloop
  endfacet
  facet normal 0.207912 -0.978148 0
    outer loop
      vertex 2.96656 -9.13014 8
      vertex 1.00347 -9.54741 18.9544
      vertex 1.00347 -9.54741 8
    endloop
  endfacet
  facet normal 0.207911 -0.978148 -9.16484e-008
    outer loop
      vertex 1.00347 -9.54741 18.9544
      vertex 2.96656 -9.13014 8
      vertex 1.29904 -9.48459 19.25
    endloop
  endfacet
  facet normal 0.207912 -0.978147 8.49985e-008
    outer loop
      vertex 1.29904 -9.48459 19.25
      vertex 2.96656 -9.13014 8
      vertex 1.5 -9.44187 20
    endloop
  endfacet
  facet normal 0.207912 -0.978148 0
    outer loop
      vertex 1.5 -9.44187 20
      vertex 2.96656 -9.13014 8
      vertex 2.96656 -9.13014 30
    endloop
  endfacet
  facet normal 0.587785 -0.809017 0
    outer loop
      vertex 4.8 -8.31384 8
      vertex 6.42365 -7.13419 30
      vertex 4.8 -8.31384 30
    endloop
  endfacet
  facet normal 0.587785 -0.809017 0
    outer loop
      vertex 6.42365 -7.13419 30
      vertex 4.8 -8.31384 8
      vertex 6.42365 -7.13419 8
    endloop
  endfacet
  facet normal 0 -1 -0
    outer loop
      vertex -0.75 -9.54741 18.701
      vertex -1.00347 -9.54741 8
      vertex 0 -9.54741 18.5
    endloop
  endfacet
  facet normal 0 -1 0
    outer loop
      vertex -1.00347 -9.54741 8
      vertex -0.75 -9.54741 18.701
      vertex -1.00347 -9.54741 18.9544
    endloop
  endfacet
  facet normal 0 -1 0
    outer loop
      vertex 1.00347 -9.54741 8
      vertex 0 -9.54741 18.5
      vertex -1.00347 -9.54741 8
    endloop
  endfacet
  facet normal 0 -1 0
    outer loop
      vertex 0 -9.54741 18.5
      vertex 1.00347 -9.54741 8
      vertex 0.75 -9.54741 18.701
    endloop
  endfacet
  facet normal 0 -1 0
    outer loop
      vertex 0.75 -9.54741 18.701
      vertex 1.00347 -9.54741 8
      vertex 1.00347 -9.54741 18.9544
    endloop
  endfacet
  facet normal 0 -1 0
    outer loop
      vertex -1.00347 -9.54741 30
      vertex 0 -9.54741 21.5
      vertex 1.00347 -9.54741 30
    endloop
  endfacet
  facet normal 0 -1 0
    outer loop
      vertex -1.00347 -9.54741 30
      vertex -0.749999 -9.54741 21.299
      vertex 0 -9.54741 21.5
    endloop
  endfacet
  facet normal -0 -1 0
    outer loop
      vertex -0.749999 -9.54741 21.299
      vertex -1.00347 -9.54741 30
      vertex -1.00347 -9.54741 21.0456
    endloop
  endfacet
  facet normal 0 -1 0
    outer loop
      vertex 0.75 -9.54741 21.299
      vertex 1.00347 -9.54741 30
      vertex 0 -9.54741 21.5
    endloop
  endfacet
  facet normal 0 -1 -0
    outer loop
      vertex 1.00347 -9.54741 30
      vertex 0.75 -9.54741 21.299
      vertex 1.00347 -9.54741 21.0456
    endloop
  endfacet
  facet normal -0.406737 -0.913546 0
    outer loop
      vertex -4.8 -8.31384 8
      vertex -2.96656 -9.13014 30
      vertex -4.8 -8.31384 30
    endloop
  endfacet
  facet normal -0.406737 -0.913546 -0
    outer loop
      vertex -2.96656 -9.13014 30
      vertex -4.8 -8.31384 8
      vertex -2.96656 -9.13014 8
    endloop
  endfacet
  facet normal -0.743145 -0.669131 0
    outer loop
      vertex -6.42365 -7.13419 8
      vertex -7.76656 -5.64274 30
      vertex -7.76656 -5.64274 8
    endloop
  endfacet
  facet normal -0.743145 -0.669131 0
    outer loop
      vertex -7.76656 -5.64274 30
      vertex -6.42365 -7.13419 8
      vertex -6.42365 -7.13419 30
    endloop
  endfacet
  facet normal 0.406737 -0.913546 0
    outer loop
      vertex 2.96656 -9.13014 8
      vertex 4.8 -8.31384 30
      vertex 2.96656 -9.13014 30
    endloop
  endfacet
  facet normal 0.406737 -0.913546 0
    outer loop
      vertex 4.8 -8.31384 30
      vertex 2.96656 -9.13014 8
      vertex 4.8 -8.31384 8
    endloop
  endfacet
  facet normal -0.587785 -0.809017 0
    outer loop
      vertex -6.42365 -7.13419 8
      vertex -4.8 -8.31384 30
      vertex -6.42365 -7.13419 30
    endloop
  endfacet
  facet normal -0.587785 -0.809017 -0
    outer loop
      vertex -4.8 -8.31384 30
      vertex -6.42365 -7.13419 8
      vertex -4.8 -8.31384 8
    endloop
  endfacet
  facet normal -0.988831 -0.149042 0
    outer loop
      vertex 6.6 0 0
      vertex 6.30678 1.94538 30
      vertex 6.30678 1.94538 0
    endloop
  endfacet
  facet normal -0.988831 -0.149042 0
    outer loop
      vertex 6.30678 1.94538 30
      vertex 6.6 0 0
      vertex 6.6 0 30
    endloop
  endfacet
  facet normal 1 -0 0
    outer loop
      vertex -6.52628 -0.983679 30
      vertex -6.52628 0.983679 0
      vertex -6.52628 0.983679 30
    endloop
  endfacet
  facet normal 1 0 0
    outer loop
      vertex -6.52628 0.983679 0
      vertex -6.52628 -0.983679 30
      vertex -6.52628 -0.983679 0
    endloop
  endfacet
  facet normal 0.0747304 -0.997204 0
    outer loop
      vertex -1.46864 6.43452 0
      vertex 0.493218 6.58154 30
      vertex -1.46864 6.43452 30
    endloop
  endfacet
  facet normal 0.0747304 -0.997204 0
    outer loop
      vertex 0.493218 6.58154 30
      vertex -1.46864 6.43452 0
      vertex 0.493218 6.58154 0
    endloop
  endfacet
  facet normal -0.733052 -0.680173 0
    outer loop
      vertex 5.45318 3.71791 0
      vertex 4.11503 5.16009 30
      vertex 4.11503 5.16009 0
    endloop
  endfacet
  facet normal -0.733052 -0.680173 0
    outer loop
      vertex 4.11503 5.16009 30
      vertex 5.45318 3.71791 0
      vertex 5.45318 3.71791 30
    endloop
  endfacet
  facet normal -0.900969 -0.433884 0
    outer loop
      vertex 6.30678 1.94538 0
      vertex 5.45318 3.71791 30
      vertex 5.45318 3.71791 0
    endloop
  endfacet
  facet normal -0.900969 -0.433884 0
    outer loop
      vertex 5.45318 3.71791 30
      vertex 6.30678 1.94538 0
      vertex 6.30678 1.94538 30
    endloop
  endfacet
  facet normal 0.826239 -0.56332 0
    outer loop
      vertex -5.94639 2.86363 30
      vertex -4.83814 4.48914 0
      vertex -4.83814 4.48914 30
    endloop
  endfacet
  facet normal 0.826239 -0.56332 0
    outer loop
      vertex -4.83814 4.48914 0
      vertex -5.94639 2.86363 30
      vertex -5.94639 2.86363 0
    endloop
  endfacet
  facet normal 0.955573 -0.294755 0
    outer loop
      vertex -6.52628 0.983679 30
      vertex -5.94639 2.86363 0
      vertex -5.94639 2.86363 30
    endloop
  endfacet
  facet normal 0.955573 -0.294755 0
    outer loop
      vertex -5.94639 2.86363 0
      vertex -6.52628 0.983679 30
      vertex -6.52628 0.983679 0
    endloop
  endfacet
  facet normal 0.62349 -0.781832 0
    outer loop
      vertex -4.83814 4.48914 0
      vertex -3.3 5.71577 30
      vertex -4.83814 4.48914 30
    endloop
  endfacet
  facet normal 0.62349 -0.781832 0
    outer loop
      vertex -3.3 5.71577 30
      vertex -4.83814 4.48914 0
      vertex -3.3 5.71577 0
    endloop
  endfacet
  facet normal 0.62349 0.781832 -0
    outer loop
      vertex -3.3 -5.71577 0
      vertex -4.83814 -4.48914 30
      vertex -3.3 -5.71577 30
    endloop
  endfacet
  facet normal 0.62349 0.781832 0
    outer loop
      vertex -4.83814 -4.48914 30
      vertex -3.3 -5.71577 0
      vertex -4.83814 -4.48914 0
    endloop
  endfacet
  facet normal 0.955573 0.294755 0
    outer loop
      vertex -5.94639 -2.86363 30
      vertex -6.52628 -0.983679 0
      vertex -6.52628 -0.983679 30
    endloop
  endfacet
  facet normal 0.955573 0.294755 0
    outer loop
      vertex -6.52628 -0.983679 0
      vertex -5.94639 -2.86363 30
      vertex -5.94639 -2.86363 0
    endloop
  endfacet
  facet normal -0.222521 -0.974928 0
    outer loop
      vertex 0.493218 6.58154 0
      vertex 2.41125 6.14377 30
      vertex 0.493218 6.58154 30
    endloop
  endfacet
  facet normal -0.222521 -0.974928 -0
    outer loop
      vertex 2.41125 6.14377 30
      vertex 0.493218 6.58154 0
      vertex 2.41125 6.14377 0
    endloop
  endfacet
  facet normal -0.5 -0.866025 0
    outer loop
      vertex 2.41125 6.14377 0
      vertex 4.11503 5.16009 30
      vertex 2.41125 6.14377 30
    endloop
  endfacet
  facet normal -0.5 -0.866025 -0
    outer loop
      vertex 4.11503 5.16009 30
      vertex 2.41125 6.14377 0
      vertex 4.11503 5.16009 0
    endloop
  endfacet
  facet normal 0.365341 -0.930874 0
    outer loop
      vertex -3.3 5.71577 0
      vertex -1.46864 6.43452 30
      vertex -3.3 5.71577 30
    endloop
  endfacet
  facet normal 0.365341 -0.930874 0
    outer loop
      vertex -1.46864 6.43452 30
      vertex -3.3 5.71577 0
      vertex -1.46864 6.43452 0
    endloop
  endfacet
  facet normal -0.988831 0.149042 0
    outer loop
      vertex 6.30678 -1.94538 0
      vertex 6.6 0 30
      vertex 6.6 0 0
    endloop
  endfacet
  facet normal -0.988831 0.149042 0
    outer loop
      vertex 6.6 0 30
      vertex 6.30678 -1.94538 0
      vertex 6.30678 -1.94538 30
    endloop
  endfacet
  facet normal -0.733052 0.680173 0
    outer loop
      vertex 4.11503 -5.16009 0
      vertex 5.45318 -3.71791 30
      vertex 5.45318 -3.71791 0
    endloop
  endfacet
  facet normal -0.733052 0.680173 0
    outer loop
      vertex 5.45318 -3.71791 30
      vertex 4.11503 -5.16009 0
      vertex 4.11503 -5.16009 30
    endloop
  endfacet
  facet normal -0.222521 0.974928 0
    outer loop
      vertex 2.41125 -6.14377 30
      vertex 0.493218 -6.58154 21.3678
      vertex 0.493218 -6.58154 30
    endloop
  endfacet
  facet normal -0.22252 0.974928 -1.76583e-007
    outer loop
      vertex 2.41125 -6.14377 30
      vertex 0.75 -6.52294 21.299
      vertex 0.493218 -6.58154 21.3678
    endloop
  endfacet
  facet normal -0.222522 0.974928 6.85034e-008
    outer loop
      vertex 2.41125 -6.14377 30
      vertex 1.29904 -6.39762 20.75
      vertex 0.75 -6.52294 21.299
    endloop
  endfacet
  facet normal -0.222521 0.974928 4.2815e-008
    outer loop
      vertex 2.41125 -6.14377 30
      vertex 1.5 -6.35175 20
      vertex 1.29904 -6.39762 20.75
    endloop
  endfacet
  facet normal -0.222521 0.974928 0
    outer loop
      vertex 2.41125 -6.14377 0
      vertex 1.5 -6.35175 20
      vertex 2.41125 -6.14377 30
    endloop
  endfacet
  facet normal -0.222521 0.974928 -2.45186e-008
    outer loop
      vertex 2.41125 -6.14377 0
      vertex 1.29904 -6.39762 19.25
      vertex 1.5 -6.35175 20
    endloop
  endfacet
  facet normal -0.222522 0.974928 -3.4861e-008
    outer loop
      vertex 2.41125 -6.14377 0
      vertex 0.75 -6.52294 18.701
      vertex 1.29904 -6.39762 19.25
    endloop
  endfacet
  facet normal -0.22252 0.974928 8.43537e-008
    outer loop
      vertex 2.41125 -6.14377 0
      vertex 0.493218 -6.58154 18.6322
      vertex 0.75 -6.52294 18.701
    endloop
  endfacet
  facet normal -0.222521 0.974928 0
    outer loop
      vertex 0.493218 -6.58154 18.6322
      vertex 2.41125 -6.14377 0
      vertex 0.493218 -6.58154 0
    endloop
  endfacet
  facet normal 0.365341 0.930874 -0
    outer loop
      vertex -1.46864 -6.43452 20.117
      vertex -3.3 -5.71577 30
      vertex -1.46864 -6.43452 30
    endloop
  endfacet
  facet normal 0.365344 0.930873 5.99954e-007
    outer loop
      vertex -1.5 -6.42221 20
      vertex -3.3 -5.71577 30
      vertex -1.46864 -6.43452 20.117
    endloop
  endfacet
  facet normal 0.365341 0.930874 0
    outer loop
      vertex -3.3 -5.71577 0
      vertex -1.46864 -6.43452 19.883
      vertex -1.46864 -6.43452 0
    endloop
  endfacet
  facet normal 0.365345 0.930872 -3.75401e-007
    outer loop
      vertex -1.46864 -6.43452 19.883
      vertex -3.3 -5.71577 0
      vertex -1.5 -6.42221 20
    endloop
  endfacet
  facet normal 0.365341 0.930874 0
    outer loop
      vertex -1.5 -6.42221 20
      vertex -3.3 -5.71577 0
      vertex -3.3 -5.71577 30
    endloop
  endfacet
  facet normal 0.826239 0.56332 0
    outer loop
      vertex -4.83814 -4.48914 30
      vertex -5.94639 -2.86363 0
      vertex -5.94639 -2.86363 30
    endloop
  endfacet
  facet normal 0.826239 0.56332 0
    outer loop
      vertex -5.94639 -2.86363 0
      vertex -4.83814 -4.48914 30
      vertex -4.83814 -4.48914 0
    endloop
  endfacet
  facet normal -0.900969 0.433884 0
    outer loop
      vertex 5.45318 -3.71791 0
      vertex 6.30678 -1.94538 30
      vertex 6.30678 -1.94538 0
    endloop
  endfacet
  facet normal -0.900969 0.433884 0
    outer loop
      vertex 6.30678 -1.94538 30
      vertex 5.45318 -3.71791 0
      vertex 5.45318 -3.71791 30
    endloop
  endfacet
  facet normal -0.5 0.866025 0
    outer loop
      vertex 4.11503 -5.16009 0
      vertex 2.41125 -6.14377 30
      vertex 4.11503 -5.16009 30
    endloop
  endfacet
  facet normal -0.5 0.866025 0
    outer loop
      vertex 2.41125 -6.14377 30
      vertex 4.11503 -5.16009 0
      vertex 2.41125 -6.14377 0
    endloop
  endfacet
  facet normal 0.07473 0.997204 0
    outer loop
      vertex 0.493218 -6.58154 18.6322
      vertex 0.493218 -6.58154 0
      vertex 0 -6.54458 18.5
    endloop
  endfacet
  facet normal 0.0747304 0.997204 1.00334e-008
    outer loop
      vertex -1.46864 -6.43452 0
      vertex 0 -6.54458 18.5
      vertex 0.493218 -6.58154 0
    endloop
  endfacet
  facet normal 0.0747308 0.997204 -2.57315e-008
    outer loop
      vertex 0 -6.54458 18.5
      vertex -1.46864 -6.43452 0
      vertex -0.75 -6.48838 18.701
    endloop
  endfacet
  facet normal 0.0747303 0.997204 -7.93103e-009
    outer loop
      vertex -0.75 -6.48838 18.701
      vertex -1.46864 -6.43452 0
      vertex -1.29904 -6.44723 19.25
    endloop
  endfacet
  facet normal 0.0747294 0.997204 0
    outer loop
      vertex -1.29904 -6.44723 19.25
      vertex -1.46864 -6.43452 0
      vertex -1.46864 -6.43452 19.883
    endloop
  endfacet
  facet normal 0.0747304 0.997204 -2.18374e-008
    outer loop
      vertex 0.493218 -6.58154 30
      vertex 0 -6.54458 21.5
      vertex -1.46864 -6.43452 30
    endloop
  endfacet
  facet normal 0.07473 0.997204 0
    outer loop
      vertex 0 -6.54458 21.5
      vertex 0.493218 -6.58154 30
      vertex 0.493218 -6.58154 21.3678
    endloop
  endfacet
  facet normal 0.0747309 0.997204 7.03564e-008
    outer loop
      vertex -0.749999 -6.48838 21.299
      vertex -1.46864 -6.43452 30
      vertex 0 -6.54458 21.5
    endloop
  endfacet
  facet normal 0.0747302 0.997204 1.40136e-008
    outer loop
      vertex -1.29904 -6.44723 20.75
      vertex -1.46864 -6.43452 30
      vertex -0.749999 -6.48838 21.299
    endloop
  endfacet
  facet normal 0.0747294 0.997204 0
    outer loop
      vertex -1.46864 -6.43452 30
      vertex -1.29904 -6.44723 20.75
      vertex -1.46864 -6.43452 20.117
    endloop
  endfacet
  facet normal -0.965926 0 -0.258819
    outer loop
      vertex 1.5 -9.44187 20
      vertex 1.29904 -6.39762 20.75
      vertex 1.5 -6.35175 20
    endloop
  endfacet
  facet normal -0.965926 -0 -0.258819
    outer loop
      vertex 1.29904 -6.39762 20.75
      vertex 1.5 -9.44187 20
      vertex 1.29904 -9.48459 20.75
    endloop
  endfacet
  facet normal -0.707105 -2.32504e-005 -0.707108
    outer loop
      vertex 0.75 -9.54741 21.299
      vertex 1.29904 -9.48459 20.75
      vertex 1.00347 -9.54741 21.0456
    endloop
  endfacet
  facet normal -0.707107 0 -0.707107
    outer loop
      vertex 1.29904 -9.48459 20.75
      vertex 0.75 -9.54741 21.299
      vertex 0.75 -6.52294 21.299
    endloop
  endfacet
  facet normal -0.707107 0 -0.707107
    outer loop
      vertex 1.29904 -9.48459 20.75
      vertex 0.75 -6.52294 21.299
      vertex 1.29904 -6.39762 20.75
    endloop
  endfacet
  facet normal 0.965926 0 -0.258819
    outer loop
      vertex -1.46864 -6.43452 20.117
      vertex -1.5 -9.44187 20
      vertex -1.5 -6.42221 20
    endloop
  endfacet
  facet normal 0.965926 -1.14293e-008 -0.258819
    outer loop
      vertex -1.29904 -6.44723 20.75
      vertex -1.5 -9.44187 20
      vertex -1.46864 -6.43452 20.117
    endloop
  endfacet
  facet normal 0.965926 0 -0.258819
    outer loop
      vertex -1.5 -9.44187 20
      vertex -1.29904 -6.44723 20.75
      vertex -1.29904 -9.48459 20.75
    endloop
  endfacet
  facet normal -0.258817 0 -0.965926
    outer loop
      vertex 0.75 -9.54741 21.299
      vertex 0.493218 -6.58154 21.3678
      vertex 0.75 -6.52294 21.299
    endloop
  endfacet
  facet normal -0.258819 -2.24147e-007 -0.965926
    outer loop
      vertex 0 -9.54741 21.5
      vertex 0.493218 -6.58154 21.3678
      vertex 0.75 -9.54741 21.299
    endloop
  endfacet
  facet normal -0.258821 0 -0.965925
    outer loop
      vertex 0.493218 -6.58154 21.3678
      vertex 0 -9.54741 21.5
      vertex 0 -6.54458 21.5
    endloop
  endfacet
  facet normal -0.258824 0 0.965925
    outer loop
      vertex 0.493218 -6.58154 18.6322
      vertex 0.75 -9.54741 18.701
      vertex 0.75 -6.52294 18.701
    endloop
  endfacet
  facet normal -0.258817 0 0.965926
    outer loop
      vertex 0 -9.54741 18.5
      vertex 0.493218 -6.58154 18.6322
      vertex 0 -6.54458 18.5
    endloop
  endfacet
  facet normal -0.258819 3.9704e-007 0.965926
    outer loop
      vertex 0.493218 -6.58154 18.6322
      vertex 0 -9.54741 18.5
      vertex 0.75 -9.54741 18.701
    endloop
  endfacet
  facet normal 0.707107 1.07339e-005 -0.707107
    outer loop
      vertex -1.29904 -9.48459 20.75
      vertex -0.749999 -9.54741 21.299
      vertex -1.00347 -9.54741 21.0456
    endloop
  endfacet
  facet normal 0.707106 0 -0.707107
    outer loop
      vertex -0.749999 -9.54741 21.299
      vertex -1.29904 -9.48459 20.75
      vertex -0.749999 -6.48838 21.299
    endloop
  endfacet
  facet normal 0.707106 0 -0.707107
    outer loop
      vertex -0.749999 -6.48838 21.299
      vertex -1.29904 -9.48459 20.75
      vertex -1.29904 -6.44723 20.75
    endloop
  endfacet
  facet normal 0.25882 0 -0.965926
    outer loop
      vertex -0.749999 -9.54741 21.299
      vertex 0 -6.54458 21.5
      vertex 0 -9.54741 21.5
    endloop
  endfacet
  facet normal 0.25882 0 -0.965926
    outer loop
      vertex 0 -6.54458 21.5
      vertex -0.749999 -9.54741 21.299
      vertex -0.749999 -6.48838 21.299
    endloop
  endfacet
  facet normal 0.258819 -0 0.965926
    outer loop
      vertex -0.75 -9.54741 18.701
      vertex 0 -6.54458 18.5
      vertex -0.75 -6.48838 18.701
    endloop
  endfacet
  facet normal 0.258819 0 0.965926
    outer loop
      vertex 0 -6.54458 18.5
      vertex -0.75 -9.54741 18.701
      vertex 0 -9.54741 18.5
    endloop
  endfacet
  facet normal 0.707107 -0 0.707107
    outer loop
      vertex -1.29904 -9.48459 19.25
      vertex -0.75 -6.48838 18.701
      vertex -1.29904 -6.44723 19.25
    endloop
  endfacet
  facet normal 0.707105 -2.32504e-005 0.707108
    outer loop
      vertex -0.75 -9.54741 18.701
      vertex -1.29904 -9.48459 19.25
      vertex -1.00347 -9.54741 18.9544
    endloop
  endfacet
  facet normal 0.707107 0 0.707107
    outer loop
      vertex -1.29904 -9.48459 19.25
      vertex -0.75 -9.54741 18.701
      vertex -0.75 -6.48838 18.701
    endloop
  endfacet
  facet normal 0.965926 -0 0.258819
    outer loop
      vertex -1.5 -9.44187 20
      vertex -1.46864 -6.43452 19.883
      vertex -1.5 -6.42221 20
    endloop
  endfacet
  facet normal 0.965926 -1.14293e-008 0.258819
    outer loop
      vertex -1.5 -9.44187 20
      vertex -1.29904 -6.44723 19.25
      vertex -1.46864 -6.43452 19.883
    endloop
  endfacet
  facet normal 0.965926 0 0.258819
    outer loop
      vertex -1.29904 -6.44723 19.25
      vertex -1.5 -9.44187 20
      vertex -1.29904 -9.48459 19.25
    endloop
  endfacet
  facet normal -0.707107 0 0.707107
    outer loop
      vertex 0.75 -6.52294 18.701
      vertex 1.29904 -9.48459 19.25
      vertex 1.29904 -6.39762 19.25
    endloop
  endfacet
  facet normal -0.707107 0 0.707107
    outer loop
      vertex 0.75 -9.54741 18.701
      vertex 1.29904 -9.48459 19.25
      vertex 0.75 -6.52294 18.701
    endloop
  endfacet
  facet normal -0.707105 -2.32504e-005 0.707108
    outer loop
      vertex 1.29904 -9.48459 19.25
      vertex 0.75 -9.54741 18.701
      vertex 1.00347 -9.54741 18.9544
    endloop
  endfacet
  facet normal -0.965926 0 0.258819
    outer loop
      vertex 1.29904 -6.39762 19.25
      vertex 1.5 -9.44187 20
      vertex 1.5 -6.35175 20
    endloop
  endfacet
  facet normal -0.965926 0 0.258819
    outer loop
      vertex 1.5 -9.44187 20
      vertex 1.29904 -6.39762 19.25
      vertex 1.29904 -9.48459 19.25
    endloop
  endfacet
  facet normal -0.965926 -0.25882 0
    outer loop
      vertex -18.5 0 0
      vertex -18.701 0.749999 3
      vertex -18.701 0.749999 0
    endloop
  endfacet
  facet normal -0.965926 -0.25882 0
    outer loop
      vertex -18.701 0.749999 3
      vertex -18.5 0 0
      vertex -18.5 0 3
    endloop
  endfacet
  facet normal 0.965926 -0.25882 0
    outer loop
      vertex -21.5 0 3
      vertex -21.299 0.749999 0
      vertex -21.299 0.749999 3
    endloop
  endfacet
  facet normal 0.965926 -0.25882 0
    outer loop
      vertex -21.299 0.749999 0
      vertex -21.5 0 3
      vertex -21.5 0 0
    endloop
  endfacet
  facet normal -0.258819 -0.965926 0
    outer loop
      vertex -20 1.5 0
      vertex -19.25 1.29904 3
      vertex -20 1.5 3
    endloop
  endfacet
  facet normal -0.258819 -0.965926 -0
    outer loop
      vertex -19.25 1.29904 3
      vertex -20 1.5 0
      vertex -19.25 1.29904 0
    endloop
  endfacet
  facet normal -0.707107 -0.707106 0
    outer loop
      vertex -18.701 0.749999 0
      vertex -19.25 1.29904 3
      vertex -19.25 1.29904 0
    endloop
  endfacet
  facet normal -0.707107 -0.707106 0
    outer loop
      vertex -19.25 1.29904 3
      vertex -18.701 0.749999 0
      vertex -18.701 0.749999 3
    endloop
  endfacet
  facet normal 0.258819 -0.965926 0
    outer loop
      vertex -20.75 1.29904 0
      vertex -20 1.5 3
      vertex -20.75 1.29904 3
    endloop
  endfacet
  facet normal 0.258819 -0.965926 0
    outer loop
      vertex -20 1.5 3
      vertex -20.75 1.29904 0
      vertex -20 1.5 0
    endloop
  endfacet
  facet normal 0.965926 0.25882 0
    outer loop
      vertex -21.299 -0.749999 3
      vertex -21.5 0 0
      vertex -21.5 0 3
    endloop
  endfacet
  facet normal 0.965926 0.25882 0
    outer loop
      vertex -21.5 0 0
      vertex -21.299 -0.749999 3
      vertex -21.299 -0.749999 0
    endloop
  endfacet
  facet normal -0.965926 0.258819 0
    outer loop
      vertex -18.701 -0.75 0
      vertex -18.5 0 3
      vertex -18.5 0 0
    endloop
  endfacet
  facet normal -0.965926 0.258819 0
    outer loop
      vertex -18.5 0 3
      vertex -18.701 -0.75 0
      vertex -18.701 -0.75 3
    endloop
  endfacet
  facet normal -0.258819 0.965926 0
    outer loop
      vertex -19.25 -1.29904 0
      vertex -20 -1.5 3
      vertex -19.25 -1.29904 3
    endloop
  endfacet
  facet normal -0.258819 0.965926 0
    outer loop
      vertex -20 -1.5 3
      vertex -19.25 -1.29904 0
      vertex -20 -1.5 0
    endloop
  endfacet
  facet normal -0.707107 0.707107 0
    outer loop
      vertex -19.25 -1.29904 0
      vertex -18.701 -0.75 3
      vertex -18.701 -0.75 0
    endloop
  endfacet
  facet normal -0.707107 0.707107 0
    outer loop
      vertex -18.701 -0.75 3
      vertex -19.25 -1.29904 0
      vertex -19.25 -1.29904 3
    endloop
  endfacet
  facet normal 0.258819 0.965926 -0
    outer loop
      vertex -20 -1.5 0
      vertex -20.75 -1.29904 3
      vertex -20 -1.5 3
    endloop
  endfacet
  facet normal 0.258819 0.965926 0
    outer loop
      vertex -20.75 -1.29904 3
      vertex -20 -1.5 0
      vertex -20.75 -1.29904 0
    endloop
  endfacet
  facet normal 0.707107 -0.707106 0
    outer loop
      vertex -21.299 0.749999 3
      vertex -20.75 1.29904 0
      vertex -20.75 1.29904 3
    endloop
  endfacet
  facet normal 0.707107 -0.707106 0
    outer loop
      vertex -20.75 1.29904 0
      vertex -21.299 0.749999 3
      vertex -21.299 0.749999 0
    endloop
  endfacet
  facet normal 0.707107 0.707106 0
    outer loop
      vertex -20.75 -1.29904 3
      vertex -21.299 -0.749999 0
      vertex -21.299 -0.749999 3
    endloop
  endfacet
  facet normal 0.707107 0.707106 0
    outer loop
      vertex -21.299 -0.749999 0
      vertex -20.75 -1.29904 3
      vertex -20.75 -1.29904 0
    endloop
  endfacet
  facet normal -0.209598 0.78223 0.586673
    outer loop
      vertex -19.25 -1.29904 3
      vertex -20 -3 5
      vertex -18.5 -2.59808 5
    endloop
  endfacet
  facet normal -0.209598 0.78223 0.586673
    outer loop
      vertex -20 -3 5
      vertex -19.25 -1.29904 3
      vertex -20 -1.5 3
    endloop
  endfacet
  facet normal -0.78223 -0.209598 0.586673
    outer loop
      vertex -17 0 5
      vertex -17.4019 1.5 5
      vertex -18.5 0 3
    endloop
  endfacet
  facet normal -0.78223 -0.209598 0.586673
    outer loop
      vertex -18.5 0 3
      vertex -17.4019 1.5 5
      vertex -18.701 0.749999 3
    endloop
  endfacet
  facet normal -0.78223 0.209598 0.586673
    outer loop
      vertex -18.701 -0.75 3
      vertex -17 0 5
      vertex -18.5 0 3
    endloop
  endfacet
  facet normal -0.78223 0.209598 0.586673
    outer loop
      vertex -17 0 5
      vertex -18.701 -0.75 3
      vertex -17.4019 -1.5 5
    endloop
  endfacet
  facet normal 0.572633 0.572632 0.586673
    outer loop
      vertex -20.75 -1.29904 3
      vertex -21.299 -0.749999 3
      vertex -22.5981 -1.5 5
    endloop
  endfacet
  facet normal 0.78223 0.209598 0.586673
    outer loop
      vertex -22.5981 -1.5 5
      vertex -21.5 0 3
      vertex -23 0 5
    endloop
  endfacet
  facet normal -0.572632 0.572632 0.586673
    outer loop
      vertex -18.701 -0.75 3
      vertex -18.5 -2.59808 5
      vertex -17.4019 -1.5 5
    endloop
  endfacet
  facet normal -0.572632 0.572632 0.586673
    outer loop
      vertex -18.5 -2.59808 5
      vertex -18.701 -0.75 3
      vertex -19.25 -1.29904 3
    endloop
  endfacet
  facet normal 0.209598 0.78223 0.586673
    outer loop
      vertex -20.75 -1.29904 3
      vertex -20 -3 5
      vertex -20 -1.5 3
    endloop
  endfacet
  facet normal 0.209598 0.78223 0.586673
    outer loop
      vertex -20 -3 5
      vertex -20.75 -1.29904 3
      vertex -21.5 -2.59808 5
    endloop
  endfacet
  facet normal 0.572632 0.572632 0.586673
    outer loop
      vertex -21.5 -2.59808 5
      vertex -20.75 -1.29904 3
      vertex -22.5981 -1.5 5
    endloop
  endfacet
  facet normal 0.572633 -0.572632 0.586672
    outer loop
      vertex -21.5 2.59808 5
      vertex -21.299 0.749999 3
      vertex -20.75 1.29904 3
    endloop
  endfacet
  facet normal 0.572632 -0.572632 0.586673
    outer loop
      vertex -21.299 0.749999 3
      vertex -21.5 2.59808 5
      vertex -22.5981 1.5 5
    endloop
  endfacet
  facet normal 0.78223 -0.209598 0.586673
    outer loop
      vertex -21.5 0 3
      vertex -22.5981 1.5 5
      vertex -23 0 5
    endloop
  endfacet
  facet normal -0.572632 -0.572632 0.586673
    outer loop
      vertex -17.4019 1.5 5
      vertex -18.5 2.59808 5
      vertex -19.25 1.29904 3
    endloop
  endfacet
  facet normal -0.572633 -0.572632 0.586673
    outer loop
      vertex -18.701 0.749999 3
      vertex -17.4019 1.5 5
      vertex -19.25 1.29904 3
    endloop
  endfacet
  facet normal 0.209598 -0.78223 0.586673
    outer loop
      vertex -20 1.5 3
      vertex -20 3 5
      vertex -21.5 2.59808 5
    endloop
  endfacet
  facet normal -0.209598 -0.78223 0.586673
    outer loop
      vertex -19.25 1.29904 3
      vertex -20 3 5
      vertex -20 1.5 3
    endloop
  endfacet
  facet normal -0.209598 -0.78223 0.586673
    outer loop
      vertex -20 3 5
      vertex -19.25 1.29904 3
      vertex -18.5 2.59808 5
    endloop
  endfacet
  facet normal 0.78223 0.209598 0.586673
    outer loop
      vertex -21.299 -0.749999 3
      vertex -21.5 0 3
      vertex -22.5981 -1.5 5
    endloop
  endfacet
  facet normal 0.209598 -0.78223 0.586673
    outer loop
      vertex -20.75 1.29904 3
      vertex -20 1.5 3
      vertex -21.5 2.59808 5
    endloop
  endfacet
  facet normal 0.78223 -0.209598 0.586673
    outer loop
      vertex -21.5 0 3
      vertex -21.299 0.749999 3
      vertex -22.5981 1.5 5
    endloop
  endfacet
  facet normal -0.965926 -0.25882 0
    outer loop
      vertex 21.5 0 0
      vertex 21.299 0.749999 3
      vertex 21.299 0.749999 0
    endloop
  endfacet
  facet normal -0.965926 -0.25882 0
    outer loop
      vertex 21.299 0.749999 3
      vertex 21.5 0 0
      vertex 21.5 0 3
    endloop
  endfacet
  facet normal 0.965926 -0.25882 0
    outer loop
      vertex 18.5 0 3
      vertex 18.701 0.749999 0
      vertex 18.701 0.749999 3
    endloop
  endfacet
  facet normal 0.965926 -0.25882 0
    outer loop
      vertex 18.701 0.749999 0
      vertex 18.5 0 3
      vertex 18.5 0 0
    endloop
  endfacet
  facet normal -0.258819 -0.965926 0
    outer loop
      vertex 20 1.5 0
      vertex 20.75 1.29904 3
      vertex 20 1.5 3
    endloop
  endfacet
  facet normal -0.258819 -0.965926 -0
    outer loop
      vertex 20.75 1.29904 3
      vertex 20 1.5 0
      vertex 20.75 1.29904 0
    endloop
  endfacet
  facet normal -0.707107 -0.707106 0
    outer loop
      vertex 21.299 0.749999 0
      vertex 20.75 1.29904 3
      vertex 20.75 1.29904 0
    endloop
  endfacet
  facet normal -0.707107 -0.707106 0
    outer loop
      vertex 20.75 1.29904 3
      vertex 21.299 0.749999 0
      vertex 21.299 0.749999 3
    endloop
  endfacet
  facet normal 0.258819 -0.965926 0
    outer loop
      vertex 19.25 1.29904 0
      vertex 20 1.5 3
      vertex 19.25 1.29904 3
    endloop
  endfacet
  facet normal 0.258819 -0.965926 0
    outer loop
      vertex 20 1.5 3
      vertex 19.25 1.29904 0
      vertex 20 1.5 0
    endloop
  endfacet
  facet normal 0.965926 0.25882 0
    outer loop
      vertex 18.701 -0.749999 3
      vertex 18.5 0 0
      vertex 18.5 0 3
    endloop
  endfacet
  facet normal 0.965926 0.25882 0
    outer loop
      vertex 18.5 0 0
      vertex 18.701 -0.749999 3
      vertex 18.701 -0.749999 0
    endloop
  endfacet
  facet normal -0.965926 0.258819 0
    outer loop
      vertex 21.299 -0.75 0
      vertex 21.5 0 3
      vertex 21.5 0 0
    endloop
  endfacet
  facet normal -0.965926 0.258819 0
    outer loop
      vertex 21.5 0 3
      vertex 21.299 -0.75 0
      vertex 21.299 -0.75 3
    endloop
  endfacet
  facet normal -0.258819 0.965926 0
    outer loop
      vertex 20.75 -1.29904 0
      vertex 20 -1.5 3
      vertex 20.75 -1.29904 3
    endloop
  endfacet
  facet normal -0.258819 0.965926 0
    outer loop
      vertex 20 -1.5 3
      vertex 20.75 -1.29904 0
      vertex 20 -1.5 0
    endloop
  endfacet
  facet normal -0.707107 0.707107 0
    outer loop
      vertex 20.75 -1.29904 0
      vertex 21.299 -0.75 3
      vertex 21.299 -0.75 0
    endloop
  endfacet
  facet normal -0.707107 0.707107 0
    outer loop
      vertex 21.299 -0.75 3
      vertex 20.75 -1.29904 0
      vertex 20.75 -1.29904 3
    endloop
  endfacet
  facet normal 0.258819 0.965926 -0
    outer loop
      vertex 20 -1.5 0
      vertex 19.25 -1.29904 3
      vertex 20 -1.5 3
    endloop
  endfacet
  facet normal 0.258819 0.965926 0
    outer loop
      vertex 19.25 -1.29904 3
      vertex 20 -1.5 0
      vertex 19.25 -1.29904 0
    endloop
  endfacet
  facet normal 0.707107 -0.707106 0
    outer loop
      vertex 18.701 0.749999 3
      vertex 19.25 1.29904 0
      vertex 19.25 1.29904 3
    endloop
  endfacet
  facet normal 0.707107 -0.707106 0
    outer loop
      vertex 19.25 1.29904 0
      vertex 18.701 0.749999 3
      vertex 18.701 0.749999 0
    endloop
  endfacet
  facet normal 0.707107 0.707106 0
    outer loop
      vertex 19.25 -1.29904 3
      vertex 18.701 -0.749999 0
      vertex 18.701 -0.749999 3
    endloop
  endfacet
  facet normal 0.707107 0.707106 0
    outer loop
      vertex 18.701 -0.749999 0
      vertex 19.25 -1.29904 3
      vertex 19.25 -1.29904 0
    endloop
  endfacet
  facet normal -0.209598 0.78223 0.586673
    outer loop
      vertex 20.75 -1.29904 3
      vertex 20 -3 5
      vertex 21.5 -2.59808 5
    endloop
  endfacet
  facet normal -0.209598 0.78223 0.586673
    outer loop
      vertex 20 -3 5
      vertex 20.75 -1.29904 3
      vertex 20 -1.5 3
    endloop
  endfacet
  facet normal -0.78223 -0.209598 0.586673
    outer loop
      vertex 23 0 5
      vertex 22.5981 1.5 5
      vertex 21.5 0 3
    endloop
  endfacet
  facet normal -0.78223 -0.209598 0.586673
    outer loop
      vertex 21.5 0 3
      vertex 22.5981 1.5 5
      vertex 21.299 0.749999 3
    endloop
  endfacet
  facet normal -0.78223 0.209598 0.586673
    outer loop
      vertex 21.299 -0.75 3
      vertex 23 0 5
      vertex 21.5 0 3
    endloop
  endfacet
  facet normal -0.78223 0.209598 0.586673
    outer loop
      vertex 23 0 5
      vertex 21.299 -0.75 3
      vertex 22.5981 -1.5 5
    endloop
  endfacet
  facet normal 0.572633 0.572632 0.586673
    outer loop
      vertex 19.25 -1.29904 3
      vertex 18.701 -0.749999 3
      vertex 17.4019 -1.5 5
    endloop
  endfacet
  facet normal 0.78223 0.209598 0.586673
    outer loop
      vertex 17.4019 -1.5 5
      vertex 18.5 0 3
      vertex 17 0 5
    endloop
  endfacet
  facet normal -0.572632 0.572632 0.586673
    outer loop
      vertex 21.299 -0.75 3
      vertex 21.5 -2.59808 5
      vertex 22.5981 -1.5 5
    endloop
  endfacet
  facet normal -0.572632 0.572632 0.586673
    outer loop
      vertex 21.5 -2.59808 5
      vertex 21.299 -0.75 3
      vertex 20.75 -1.29904 3
    endloop
  endfacet
  facet normal 0.209598 0.78223 0.586673
    outer loop
      vertex 19.25 -1.29904 3
      vertex 20 -3 5
      vertex 20 -1.5 3
    endloop
  endfacet
  facet normal 0.209598 0.78223 0.586673
    outer loop
      vertex 20 -3 5
      vertex 19.25 -1.29904 3
      vertex 18.5 -2.59808 5
    endloop
  endfacet
  facet normal 0.572632 0.572632 0.586673
    outer loop
      vertex 18.5 -2.59808 5
      vertex 19.25 -1.29904 3
      vertex 17.4019 -1.5 5
    endloop
  endfacet
  facet normal 0.572633 -0.572632 0.586672
    outer loop
      vertex 18.5 2.59808 5
      vertex 18.701 0.749999 3
      vertex 19.25 1.29904 3
    endloop
  endfacet
  facet normal 0.572632 -0.572632 0.586673
    outer loop
      vertex 18.701 0.749999 3
      vertex 18.5 2.59808 5
      vertex 17.4019 1.5 5
    endloop
  endfacet
  facet normal 0.78223 -0.209598 0.586673
    outer loop
      vertex 18.5 0 3
      vertex 17.4019 1.5 5
      vertex 17 0 5
    endloop
  endfacet
  facet normal -0.572632 -0.572632 0.586673
    outer loop
      vertex 22.5981 1.5 5
      vertex 21.5 2.59808 5
      vertex 20.75 1.29904 3
    endloop
  endfacet
  facet normal -0.572633 -0.572632 0.586673
    outer loop
      vertex 21.299 0.749999 3
      vertex 22.5981 1.5 5
      vertex 20.75 1.29904 3
    endloop
  endfacet
  facet normal 0.209598 -0.78223 0.586673
    outer loop
      vertex 20 1.5 3
      vertex 20 3 5
      vertex 18.5 2.59808 5
    endloop
  endfacet
  facet normal -0.209598 -0.78223 0.586673
    outer loop
      vertex 20.75 1.29904 3
      vertex 20 3 5
      vertex 20 1.5 3
    endloop
  endfacet
  facet normal -0.209598 -0.78223 0.586673
    outer loop
      vertex 20 3 5
      vertex 20.75 1.29904 3
      vertex 21.5 2.59808 5
    endloop
  endfacet
  facet normal 0.78223 0.209598 0.586673
    outer loop
      vertex 18.701 -0.749999 3
      vertex 18.5 0 3
      vertex 17.4019 -1.5 5
    endloop
  endfacet
  facet normal 0.209598 -0.78223 0.586673
    outer loop
      vertex 19.25 1.29904 3
      vertex 20 1.5 3
      vertex 18.5 2.59808 5
    endloop
  endfacet
  facet normal 0.78223 -0.209598 0.586673
    outer loop
      vertex 18.5 0 3
      vertex 18.701 0.749999 3
      vertex 17.4019 1.5 5
    endloop
  endfacet
endsolid OpenSCAD_Model
