<?xml version="1.0" encoding="UTF-8" standalone="no"?>
<!-- Created with Inkscape (http://www.inkscape.org/) -->

<svg
   xmlns:dc="http://purl.org/dc/elements/1.1/"
   xmlns:cc="http://creativecommons.org/ns#"
   xmlns:rdf="http://www.w3.org/1999/02/22-rdf-syntax-ns#"
   xmlns:svg="http://www.w3.org/2000/svg"
   xmlns="http://www.w3.org/2000/svg"
   xmlns:sodipodi="http://sodipodi.sourceforge.net/DTD/sodipodi-0.dtd"
   xmlns:inkscape="http://www.inkscape.org/namespaces/inkscape"
   width="765"
   height="990"
   id="svg5963"
   version="1.1"
   inkscape:version="0.48.4 r9939"
   sodipodi:docname="pickguard2.svg">
  <defs
     id="defs5965" />
  <sodipodi:namedview
     id="base"
     pagecolor="#ffffff"
     bordercolor="#666666"
     borderopacity="1.0"
     inkscape:pageopacity="0.0"
     inkscape:pageshadow="2"
     inkscape:zoom="0.98994949"
     inkscape:cx="66.232265"
     inkscape:cy="669.63921"
     inkscape:document-units="px"
     inkscape:current-layer="layer1"
     showgrid="false"
     inkscape:window-width="1920"
     inkscape:window-height="1017"
     inkscape:window-x="1912"
     inkscape:window-y="-8"
     inkscape:window-maximized="1" />
  <metadata
     id="metadata5968">
    <rdf:RDF>
      <cc:Work
         rdf:about="">
        <dc:format>image/svg+xml</dc:format>
        <dc:type
           rdf:resource="http://purl.org/dc/dcmitype/StillImage" />
        <dc:title></dc:title>
      </cc:Work>
    </rdf:RDF>
  </metadata>
  <g
     inkscape:label="Layer 1"
     inkscape:groupmode="layer"
     id="layer1"
     transform="translate(0,-62.362183)">
    <path
       style="fill:#000000"
       d="m 130.275,864.29975 -3.36094,-0.32408 -4.28906,-0.40372 -4.22297,-0.44788 -3.20203,-0.43008 -8.61961,-1.53311 -5.32835,-1.27361 -3.94369,-1.17215 -3.481311,-1.19348 -2.370754,-0.85409 -1.273633,-0.3561 -5.519227,-2.44628 -6.652261,-3.52463 -1.471089,-0.86797 -0.871152,-0.36102 -0.357582,-0.0933 -0.236342,-0.22429 -0.965155,-0.7738 -2.109843,-1.41444 -2.858908,-1.94864 -2.766092,-2.05807 -8.815955,-8.05885 -7.827506,-8.44769 -1.248163,-1.51298 -1.114337,-1.23361 -0.719696,-0.83694 -0.299343,-0.55931 -0.198281,-0.25539 -0.476719,-0.10622 -0.476719,-0.14454 -0.198281,-0.34754 -2.124993,-3.88162 -3.04284,-4.08873 -0.796694,-0.84065 -0.325605,-0.61568 -0.491643,-1.22213 -1.195857,-2.29872 -1.467304,-2.29144 -1.017564,-0.77849 -0.630395,-0.37894 -0.157105,-1.50613 -0.132187,-1.40496 -0.317813,-0.73722 -0.317812,-0.3856 -0.132188,-0.5596 -0.577497,-1.61174 -1.388452,-2.91524 -1.484021,-3.02541 -0.807292,-1.87666 -0.615591,-1.68052 -1.023144,-2.55387 -1.310423,-3.67333 -1.306289,-4.372 -1.182699,-4.37201 -1.013285,-3.67333 -0.790235,-3.17579 -0.646427,-3.17579 -0.496327,-2.49168 -0.429351,-1.53099 -0.420221,-1.77977 -0.474371,-3.08978 -0.633823,-4.70679 -0.803579,-5.66746 -1.109125,-20.32419 0.524341,-17.36187 0.586494,-2.72721 0.564142,-2.98921 2.090562,-10.32107 3.077998,-12.96807 0.931176,-3.78118 0.517197,-2.25282 0.274249,-0.8224 0.347068,-0.34206 0.281741,-0.21795 0.117184,-0.52404 2.575817,-10.06815 5.086093,-15.86651 1.296489,-3.87446 0.715544,-2.47712 1.316458,-4.73986 1.611467,-4.36407 1.589554,-3.76011 0.861129,-3.01491 1.308514,-4.8041 2.471492,-7.47563 1.03075,-3.12683 0.610199,-2.16616 0.714429,-2.47712 1.281348,-3.87446 1.691183,-4.93174 1.699783,-5.01907 1.584301,-4.68409 1.413527,-4.12636 0.91242,-2.85055 0.379503,-1.61673 0.114618,-0.63945 0.275572,-0.50091 1.158143,-2.61581 0.701667,-3.07017 0.117083,-0.90226 0.2815,-0.61022 0.95931,-2.27427 1.746711,-4.90302 1.746429,-5.03363 0.958634,-2.58827 0.575686,-1.59319 0.825722,-2.6412 0.811009,-2.51681 0.540313,-1.29414 0.420927,-1.01427 0.52397,-1.84394 0.524011,-1.71956 0.42102,-0.71521 0.247468,-0.21767 0.106754,-0.52335 0.603355,-2.37991 1.168183,-3.01894 0.641771,-1.71757 0.97606,-2.94025 0.960114,-2.94026 0.603424,-1.71757 0.527985,-1.4688 0.778734,-2.34215 2.413983,-7.36711 2.163813,-6.39465 2.890091,-9.05168 3.129496,-10.42651 3.797961,-13.72883 2.831763,-10.83062 0.723672,-2.79073 0.526023,-1.65538 0.360264,-1.09565 0.325149,-1.44498 0.689069,-3.42425 0.832971,-3.38052 1.665957,-7.71393 3.064654,-15.54546 2.20062,-12.91183 1.68373,-13.97654 0.48458,-4.55858 0.46432,-4.12191 0.24065,-3.15793 -0.0532,-2.24092 -0.0768,-1.12145 0.18394,-0.46644 1.97871,-21.53852 1.00842,-31.17962 -0.77361,-22.40047 -1.06893,-7.79143 -0.58501,-1.14737 0.4847,-0.63036 0.31624,-0.8731 -0.10328,-2.83199 -0.85223,-9.3617 -0.76383,-5.77624 -1.67201,-9.08797 -1.0049,-7.00271 -0.59189,-3.79904 -0.77281,-3.1877 -0.63779,-2.25197 -0.26729,-1.5493 -0.719154,-4.38236 -1.097259,-4.30781 -0.329908,-1.26014 -0.279252,-1.84046 -0.30339,-1.98694 -0.38794,-1.61229 -2.458867,-8.99942 -1.627669,-7.3296 -0.603263,-3.04782 -1.225937,-3.56405 -0.409758,-1.40661 -0.449914,-2.19262 -1.20566,-12.42819 1.960495,-9.12391 1.943224,-4.02736 3.090408,-3.89522 3.838814,-3.96265 4.6208,-3.19115 7.53472,-3.16424 8.35607,-1.273 4.95987,0.49154 5.16513,1.10734 6.48819,2.45942 7.26639,3.35923 3.29791,1.63406 1.6064,0.67966 0.46727,0.17265 0.55919,0.41511 2.58912,1.47197 2.62913,0.90434 3.54765,1.36175 5.97375,3.30155 2.31374,1.37211 2.71921,1.57154 2.3007,1.36497 1.30754,0.87546 0.88419,0.61113 1.28286,0.72944 5.68234,3.87164 3.567,3.80389 0.56124,5.07241 0.52216,13.5589 0.5552,17.15997 0.62606,16.9064 0.54738,14.86006 0.36605,12.24003 0.51528,10.58056 1.23594,3.55534 0.46832,0.58624 0.19479,0.53327 0.21334,0.77304 0.51293,1.16268 0.80549,1.11181 0.99451,0.32836 0.84581,0.20905 0.22792,0.77574 0.94816,1.78713 1.63084,1.03903 0.39436,0.10996 0.25164,0.26436 1.09542,0.65887 2.42304,1.05845 6.8085,1.72261 10.74804,1.05094 4.67661,0.37276 4.60866,0.49577 33.14517,1.30885 38.57338,-1.4968 15.2366,-1.39665 6.80958,-0.73174 11.20061,-1.66293 8.14939,-1.31556 2.61984,-0.48143 3.45516,-0.59492 3.38906,-0.58592 2.46094,-0.45981 2.32875,-0.46465 3.07125,-0.59755 5.84607,-1.23999 2.92893,-0.96409 0.92807,-0.38921 0.65153,-0.16341 0.67745,-0.31264 0.99041,-0.74857 0.92426,-0.74763 0.51843,-0.31096 2.58659,-2.15921 2.90456,-4.06003 1.42235,-3.45902 0.56338,-5.37048 0.46166,-4.66929 0.64421,-2.14549 3.8373,-1.64588 4.42063,2.84723 1.30534,1.43429 0.87574,0.59657 0.67217,0.49754 0.81592,1.19621 0.84741,1.19622 0.74787,0.49754 0.60226,0.30722 0.49731,0.73863 2.10815,2.45793 5.54123,4.54156 1.78221,1.38875 1.59894,1.25774 1.18486,0.8224 0.78667,0.34205 0.35531,0.10368 0.14778,0.24927 2.94067,2.17943 6.22097,3.84714 11.16082,5.76559 10.20568,4.42699 2.33755,0.83861 2.04361,0.80247 2.01243,0.74046 2.26257,0.68953 3.11171,0.90179 4.05399,1.25079 12.85784,3.25782 16.84216,2.53301 14.04912,0.45134 13.85088,-0.47674 4.03594,-0.49299 4.96406,-0.57252 20.03213,-3.61738 21.81787,-6.91867 8.15874,-3.5943 11.69796,-5.96439 9.1948,-5.53922 9.6971,-6.68399 4.13805,-3.06531 1.79669,-1.27494 0.95642,-0.77741 2.11779,-1.86908 2.86153,-2.57038 2.74458,-2.46352 2.08961,-1.94937 1.28669,-1.33428 1.12108,-1.24534 1.69142,-1.73554 1.4814,-1.60564 0.61614,-0.933 0.12742,-0.32063 0.30633,-0.13336 0.61188,-0.42306 0.86196,-1.01715 1.21666,-1.55807 1.46476,-1.72358 1.86342,-2.10902 2.17524,-2.48478 1.79226,-1.98531 0.94257,-0.90819 0.23836,-0.2542 0.0991,-0.413 0.33047,-0.66367 0.79453,-0.85689 0.79453,-0.79857 0.33047,-0.52342 0.79145,-1.4134 1.90288,-2.93833 7.37652,-12.35905 6.56511,-13.30171 0.44305,-0.93421 0.41663,-0.75954 0.57899,-1.05587 0.83342,-1.64666 5.05409,-7.68879 4.42422,-4.00559 1.00688,-0.18658 1.36237,-0.44858 2.13631,-0.46013 2.98469,-0.17503 3.22799,0.20193 2.35359,0.838 4.08317,2.95553 4.29317,4.15574 0.91211,0.8224 0.77539,0.34206 0.4913,0.26642 0.18667,0.70121 0.79312,1.82583 1.90688,3.03097 1.90687,2.86598 0.79313,1.42914 0.16523,0.45353 0.39727,0.52038 3.65657,6.46089 2.98093,6.40619 0.25063,0.71911 0.60257,1.31546 2.55399,6.24968 1.54281,4.86955 0.11271,0.70137 0.27096,0.52667 2.83463,10.19815 3.02347,18.15108 2.24286,23.27717 0.74897,26.90034 -0.15314,25.65534 -0.96214,18.38229 -0.40436,4.91984 -0.29067,4.39582 -0.2782,3.64951 -0.37439,3.12551 -0.45917,3.49866 -0.48201,4.54668 -0.54396,5.10641 -0.60812,4.8444 -0.71846,5.21756 -0.80925,6.00357 -0.75533,5.38165 -0.58891,3.72229 -1.27285,7.38359 -1.43192,8.70708 -1.17103,6.87375 -1.05858,5.6177 -0.44686,2.21643 -0.49635,2.65311 -0.48097,2.40434 -0.40993,1.61833 -0.47521,1.99149 -0.63792,3.3015 -0.66371,3.55027 -0.5372,2.58959 -0.48804,2.15424 -0.54538,2.50359 -0.70031,3.12551 -0.86052,3.64951 -0.95754,3.96048 -0.93349,3.87314 -5.14102,21.12465 -4.71245,18.6786 -5.03351,20.96363 -3.07905,15.02867 -0.52899,3.03818 -0.74149,3.73684 -0.97217,4.9807 -1.08366,6.02871 -0.946,5.46898 -0.64124,3.63496 -0.45048,2.51549 -0.48737,2.77749 -0.48122,2.3791 -0.4357,1.55765 -0.28486,1.11723 -0.11847,1.3203 -0.19282,2.24654 -0.46364,3.34412 -1.10036,8.97518 -1.61418,17.16938 -1.01375,21.14073 -0.53659,24.80238 1.09559,29.46596 2.5027,28.04516 0.61974,5.1635 0.26406,3.30528 0.13245,1.89736 0.30324,1.77843 0.3883,2.448 0.33683,3.5072 -0.34853,5.54784 -3.08191,2.89875 -1.58281,0.96227 -0.65832,0.584 -0.4957,0.43669 -1.1918,0.60815 -1.52227,0.7273 -1.29023,0.72327 -8.51735,4.26715 -9.25765,4.14463 -2.56781,0.9362 -2.38219,0.87252 -3.04312,1.0176 -4.15688,1.28493 -4.02469,1.2124 -2.72531,0.84315 -8.06118,1.94555 -11.02971,2.09985 -9.14484,1.09728 -8.43927,0.57874 -6.33915,0.85594 -5.43312,2.24274 -3.90569,3.22016 -3.7597,4.98833 -4.47937,6.47692 -4.3729,5.85789 -15.42009,15.56944 -17.69194,14.14306 -2.81408,1.92451 -1.86678,1.35663 -0.93266,0.67265 -0.56822,0.28009 -1.25604,0.65338 -2.58633,1.57018 -6.83038,3.75899 -4.9,1.53569 -3.80832,-0.37119 -4.37812,-1.63667 -7.51743,-2.63031 -10.03968,-2.49716 -11.00614,-1.8098 -10.81886,-0.34961 -7.01654,-0.0374 -3.59935,-0.13537 -1.10033,-0.55313 -0.97454,-1.221 -0.84074,-2.88874 -0.60954,-7.36081 -0.99074,-12.88216 -0.99976,-4.77769 -2.45456,-2.91762 -2.91676,-2.18236 -1.20872,-0.52684 -1.18986,-0.52338 -11.90774,-0.46795 -23.59082,0.75822 -12.09937,0.61455 -9.50063,0.46132 -8.17875,0.38556 -8.92125,0.43227 -20.83452,0.99768 -24.84048,1.15301 -9.27844,0.43086 -8.72156,0.4156 -8.85375,0.41521 -9.59625,0.43005 -22.46937,1.00847 -13.98063,0.71103 -9.73828,0.47938 -12.98672,0.56474 -22.98877,1.1457 -6.60686,1.40196 -4.44581,3.20406 -2.62174,4.35424 -0.34947,3.15845 0.35047,7.85096 0.23842,11.58623 -1.95855,4.2121 -1.52787,1.03104 -1.3611,0.36445 -2.11731,0.24387 -3.30726,0.58632 -14.55124,2.03274 -17.5034,0.70039 -5.87812,-0.0531 -4.02188,-0.1783 2.5e-4,-10e-6 z m 23.33864,-23.92645 1.10698,-3.85433 -2.80399,-2.22778 -3.19857,0.58113 -1.37298,1.74893 1.83717,4.23402 z m 332.88748,-11.18912 1.29624,-1.52966 0.15087,-2.29907 -1.56745,-2.03364 -2.80345,-0.88534 -2.34877,1.15184 -1.07802,2.51404 2.21009,2.98127 z m 158.69876,-73.04146 0.77669,-0.87445 0.22343,-1.40755 -0.90829,-2.68743 -2.66642,-0.91544 -2.0421,0.43781 -0.97533,1.81992 0.41846,2.09919 1.4148,1.86306 1.79204,0.28975 z m -243.03434,-2.08446 6.43793,-2.46723 5.7572,-3.5152 4.22212,-4.46365 3.05717,-5.01816 0.83615,-1.95576 0.61439,-1.43176 0.68584,-5.63825 -0.25823,-6.85802 -4.86569,-11.08868 -9.59283,-8.25235 -7.53275,-2.49879 -12.05184,-1.65511 -4.96266,-0.47155 -5.61234,-0.57231 -6.60375,-0.6997 -7.34625,-0.77776 -7.41235,-0.72477 -6.76265,-0.57231 -5.2425,-0.43953 -3.7575,-0.40565 -4.02188,-0.46599 -5.87812,-0.58456 -5.92505,-0.59831 -4.1347,-0.49904 -2.45813,-0.23104 -0.95081,0.50946 -1.07686,0.50878 -3.2634,-0.31159 -3.66884,-0.47052 -3.49721,-0.41569 -3.57328,-0.39924 -3.85172,-0.431 -3.85172,-0.4265 -3.57328,-0.38845 -19.59088,-2.11588 -11.23412,-1.26956 -6.93562,-0.73735 -6.56438,-0.5839 -5.37469,-0.45674 -4.07531,-0.4316 -3.74484,-0.39857 -4.58016,-0.37729 -4.24969,-0.38505 -2.95031,-0.4172 -2.63482,-0.44031 -3.49118,-0.44057 -16.50332,0.88755 -12.11391,8.04451 -3.24162,3.88359 -2.11481,4.52798 -0.88582,3.32796 -0.18133,5.56426 0.18147,5.56807 0.89358,3.32414 1.64098,3.53242 2.81622,3.79579 4.21375,4.46782 4.87081,3.11385 7.54943,2.69047 12.70057,1.6994 11.23787,1.09655 7.21213,0.78881 3.41578,0.3808 2.20922,0.21541 1.74656,0.15671 2.30344,0.23962 28.70125,3.07453 34.52375,3.34654 5.71922,0.58095 3.95578,0.46872 2.76609,0.34665 2.85891,0.28749 3.58594,0.3533 4.51406,0.50488 10.28354,1.13231 11.99146,1.19999 4.83047,0.48843 5.29453,0.5736 5.49281,0.57144 5.30719,0.48318 5.43938,0.46509 5.81062,0.528 10.20567,0.59988 6.30987,-0.54648 0,2e-5 z m 37.34786,-19.9596 1.12027,-0.96473 -0.41174,-1.86617 -0.75983,-0.93365 -1.25404,-0.0459 -1.97194,1.0951 0.27971,2.15725 1.03383,0.758 z m -271.66751,-28.73994 0.50995,-0.37712 0.44515,-0.0213 0.35997,-0.10066 -0.64835,-1.74012 -0.84127,-1.35067 -1.41162,-0.3651 -2.58682,0.42539 -0.68668,1.7438 2.01825,2.21608 z M 56.496489,678.6156 l 1.170139,-2.96498 -1.252309,-2.65888 -1.858855,-0.80867 -2.355458,0.69497 -2.193824,3.15932 1.880926,3.13277 2.535293,0.485 z m 607.153381,-151.55329 1.0611,-2.47679 -1.1256,-2.73879 -1.23612,-0.72223 -2.02638,0.28608 -2.77007,1.03564 -0.55282,2.12728 0.89644,2.4102 2.92856,0.73777 1.58251,-0.19362 1.24236,-0.46554 10e-6,0 z m -96.34279,-30.83376 1.88515,-0.89057 1.48805,-0.61145 2.99991,-2.72232 2.4725,-4.29771 1.03214,-4.9173 -0.67462,-4.91421 -2.57243,-5.99999 -5.3045,-3.39543 -6.0677,-1.87072 -5.91558,0.53389 -1.85714,0.39986 -1.6214,0.31961 -0.95627,0.29246 -0.25788,0.33456 -0.0273,0.18655 -0.40187,-0.0634 -2.92061,1.74429 -3.24956,4.08984 -1.63041,4.84446 -0.2834,4.56124 4.41914,8.57969 8.65102,4.78858 5.62284,0.23488 z m -444.03247,-24.67852 0.69659,-2.4323 -1.02294,-2.47731 -3.61056,-0.41121 -2.3377,2.85458 2.37294,3.36231 z m 264.25847,-36.78827 2.36898,-0.57911 1.07294,-0.47949 0.43066,-0.28854 0.82477,-0.12001 8.25209,-4.25987 7.22316,-8.23157 2.61328,-6.69714 0.65381,-6.6877 -0.16637,-3.95584 -0.38436,-2.60746 -1.69295,-4.45588 -1.458,-2.69607 -0.69439,-0.90907 -0.63443,-0.9964 -4.00571,-3.89287 -5.04244,-3.40456 -1.84889,-0.77297 -1.60983,-0.66921 -13.32191,-2.3881 -28.66349,-3.49115 -4.76578,-0.55937 -3.55922,-0.47806 -3.82359,-0.49572 -5.40141,-0.60182 -13.84914,-1.54725 -8.43942,-1.13956 -2.70308,-0.43356 -3.35836,-0.46111 -3.42844,-0.44671 -2.87156,-0.39895 -3.13594,-0.39549 -4.06406,-0.43835 -6.46298,-0.70476 -7.93702,-1.02053 -5.37047,-0.65483 -8.80453,-1.02339 -8.54016,-1.0248 -4.73484,-0.65821 -3.34687,-0.47614 -5.20313,-0.58706 -5.33531,-0.58538 -3.66469,-0.47211 -3.30006,-0.34184 -4.45866,-0.27219 -5.55031,-0.37128 -5.92469,-0.58008 -5.26169,-0.51852 -3.95632,-0.22328 -1.91198,-0.0836 -0.34659,-0.18295 -2.96096,-0.75879 -6.41725,-0.20074 -3.22584,0.58608 0.65029,0.45351 0.75763,0.0808 -0.84353,0.30043 -1.28243,0.25184 -1.50351,0.12939 -1.25474,0.15419 -0.68432,0.31146 -0.52374,0.29905 -0.86865,0.12439 -2.15557,0.66096 -0.94084,1.04986 0.006,0.33568 -0.30484,0.31858 -0.30148,0.095 0.0957,-0.27748 0.0868,-0.34526 -0.24225,-0.1436 -0.33657,0.22157 -0.13999,0.5327 -0.80802,1.27512 -1.94269,2.00653 -2.16134,2.22031 -1.3337,1.7891 -0.74654,1.35766 -0.74964,1.18298 -1.79789,4.67384 -1.11706,6.3712 0.38141,6.34884 1.30421,4.00649 0.29751,0.42377 0.12375,0.67482 2.24398,4.06971 4.44577,5.13324 4.59692,3.46839 6.03833,2.44686 5.8744,1.46995 10.3256,1.33805 4.87125,0.56711 4.12875,0.5058 3.68049,0.4421 3.79351,0.41396 2.91991,0.33979 1.58009,0.26379 1.69789,0.26764 3.20311,0.34905 16.13138,1.84468 22.56862,2.84964 4.63078,0.56129 6.39422,0.72512 6.98906,0.78486 6.06094,0.70495 5.33391,0.63698 5.24109,0.62145 7.42539,0.86859 16.19961,1.87154 6.79078,0.80235 5.58422,0.68939 9.37597,1.15295 10.42403,1.20414 3.56062,0.4143 3.18938,0.39792 13.99421,1.53148 7.23887,-0.48745 -2e-5,0 z m -193.24558,-75.0025 0.5625,-0.0881 0.5625,0.0881 0.0668,0.15084 -0.62931,0.0627 -0.6293,-0.0627 z m 234.0225,55.2428 0.0908,-2.35853 -2.71198,-1.36774 -1.16604,0.22976 -0.63396,0.85641 -0.35088,1.46788 1.14952,0.93584 2.07688,0.70303 z m -274.22181,-32.35369 0.50272,-0.4108 0.20909,-0.62676 0.2187,-0.66642 0.52582,-0.50617 0.44293,-1.13553 -1.88047,-0.63169 -2.60578,0.95061 0.39932,2.34269 0.9462,0.87034 z m 250.73539,-57.2248 0.58858,-2.28568 -0.66268,-2.38379 -3.27888,-0.71867 -2.59131,2.61028 -0.083,1.2773 0.51734,0.62557 0.52006,0.45426 0.21632,0.54763 2.09499,0.65221 z m 273.46849,-84.86279 1.60718,-1.34536 0.48644,-2.08507 -0.25478,-1.45653 -1.19341,-0.97666 -2.18738,-0.79292 -2.27581,0.6917 -1.85834,1.28677 -0.14056,1.97096 2.0508,2.86128 3.76585,-0.15417 z m -557.07776,-42.72889 0.96399,-1.0975 0.2217,-1.83374 -0.22058,-1.83478 -1.35598,-0.70844 -2.89252,-0.1814 -2.02283,1.25239 -0.66023,2.22261 1.05669,2.01912 2.36546,1.00847 z"
       id="path6008"
       inkscape:connector-curvature="0"
       sodipodi:nodetypes="ccccccccccccccccccccccccccccccccccccccccccccccccccccccccccccccccccccccccccccccccccccccccccccccccccccccccccccccccccccccccccccccccccccccccccccccccccccccccccccccccccccccccccccccccccccccccccccccccccccccccccccccccccccccccccccccccccccccccccccccccccccccccccccccccccccccccccccccccccccccccccccccccccccccccccccccccccccccccccccccccccccccccccccccccccccccccccccccccccccccccccccccccccccccccccccccccccccccccccccccccccccccccccccccccccccccccccccccccccccccccccccccccccccccccccccccccccccccccccccccccccccccccccccccccccccccccccccccccccccccccccccccccccccccccccccccccccccccccccccccccccccccccccccccccccccccccccccccccccccccccccccccccccccccccccccccccccccccccccccccccccccccccccccccccccccccccccccccccccccccccccccccccccccccccccccccccccccccccccccccccccccccccccccccccccccccccccccccccccccccccccccccccccccccccccccccccccccccccccccccccccccccccccccccccccccccccccccccccccccccccccccccccccccccccccccccccccccccccccccccc" />
  </g>
</svg>
