  0
SECTION
  2
HEADER
  9
$ACADVER
  1
AC1014
  9
$HANDSEED
  5
FFFF
  9
$MEASUREMENT
 70
     1
  0
ENDSEC
  0
SECTION
  2
TABLES
  0
TABLE
  2
VPORT
  5
8
330
0
100
AcDbSymbolTable
 70
     4
  0
VPORT
  5
2E
330
8
100
AcDbSymbolTableRecord
100
AcDbViewportTableRecord
  2
*ACTIVE
 70
     0
 10
0.0
 20
0.0
 11
1.0
 21
1.0
 12
210.0
 22
148.5
 13
0.0
 23
0.0
 14
10.0
 24
10.0
 15
10.0
 25
10.0
 16
0.0
 26
0.0
 36
1.0
 17
0.0
 27
0.0
 37
0.0
 40
341.0
 41
1.24
 42
50.0
 43
0.0
 44
0.0
 50
0.0
 51
0.0
 71
     0
 72
   100
 73
     1
 74
     3
 75
     0
 76
     0
 77
     0
 78
     0
  0
ENDTAB
  0
TABLE
  2
LTYPE
  5
5
330
0
100
AcDbSymbolTable
 70
     1
  0
LTYPE
  5
14
330
5
100
AcDbSymbolTableRecord
100
AcDbLinetypeTableRecord
  2
BYBLOCK
 70
     0
  3

 72
    65
 73
     0
 40
0.0
  0
LTYPE
  5
15
330
5
100
AcDbSymbolTableRecord
100
AcDbLinetypeTableRecord
  2
BYLAYER
 70
     0
  3

 72
    65
 73
     0
 40
0.0
  0
LTYPE
  5
16
330
5
100
AcDbSymbolTableRecord
100
AcDbLinetypeTableRecord
  2
CONTINUOUS
 70
     0
  3
Solid line
 72
    65
 73
     0
 40
0.0
  0
ENDTAB
  0
TABLE
  2
LAYER
  5
2
100
AcDbSymbolTable
 70
2
  0
LAYER
  5
50
100
AcDbSymbolTableRecord
100
AcDbLayerTableRecord
  2
0
 70
0
  6
CONTINUOUS
  0
LAYER
  5
51
100
AcDbSymbolTableRecord
100
AcDbLayerTableRecord
  2
Layer_1
 70
0
  6
CONTINUOUS
  0
ENDTAB
  0
TABLE
  2
STYLE
  5
3
330
0
100
AcDbSymbolTable
 70
     1
  0
STYLE
  5
11
330
3
100
AcDbSymbolTableRecord
100
AcDbTextStyleTableRecord
  2
STANDARD
 70
     0
 40
0.0
 41
1.0
 50
0.0
 71
     0
 42
2.5
  3
txt
  4

  0
ENDTAB
  0
TABLE
  2
VIEW
  5
6
330
0
100
AcDbSymbolTable
 70
     0
  0
ENDTAB
  0
TABLE
  2
UCS
  5
7
330
0
100
AcDbSymbolTable
 70
     0
  0
ENDTAB
  0
TABLE
  2
APPID
  5
9
330
0
100
AcDbSymbolTable
 70
     2
  0
APPID
  5
12
330
9
100
AcDbSymbolTableRecord
100
AcDbRegAppTableRecord
  2
ACAD
 70
     0
  0
ENDTAB
  0
TABLE
  2
DIMSTYLE
  5
A
330
0
100
AcDbSymbolTable
 70
     1
  0
DIMSTYLE
105
27
330
A
100
AcDbSymbolTableRecord
100
AcDbDimStyleTableRecord
  2
ISO-25
 70
     0
  3

  4

  5

  6

  7

 40
1.0
 41
2.5
 42
0.625
 43
3.75
 44
1.25
 45
0.0
 46
0.0
 47
0.0
 48
0.0
140
2.5
141
2.5
142
0.0
143
0.03937007874016
144
1.0
145
0.0
146
1.0
147
0.625
 71
     0
 72
     0
 73
     0
 74
     0
 75
     0
 76
     0
 77
     1
 78
     8
170
     0
171
     3
172
     1
173
     0
174
     0
175
     0
176
     0
177
     0
178
     0
270
     2
271
     2
272
     2
273
     2
274
     3
340
11
275
     0
280
     0
281
     0
282
     0
283
     0
284
     8
285
     0
286
     0
287
     3
288
     0
  0
ENDTAB
  0
TABLE
  2
BLOCK_RECORD
  5
1
330
0
100
AcDbSymbolTable
 70
     1
  0
BLOCK_RECORD
  5
1F
330
1
100
AcDbSymbolTableRecord
100
AcDbBlockTableRecord
  2
*MODEL_SPACE
  0
BLOCK_RECORD
  5
1B
330
1
100
AcDbSymbolTableRecord
100
AcDbBlockTableRecord
  2
*PAPER_SPACE
  0
ENDTAB
  0
ENDSEC
  0
SECTION
  2
BLOCKS
  0
BLOCK
  5
20
330
1F
100
AcDbEntity
  8
0
100
AcDbBlockBegin
  2
*MODEL_SPACE
 70
     0
 10
0.0
 20
0.0
 30
0.0
  3
*MODEL_SPACE
  1

  0
ENDBLK
  5
21
330
1F
100
AcDbEntity
  8
0
100
AcDbBlockEnd
  0
BLOCK
  5
1C
330
1B
100
AcDbEntity
 67
     1
  8
0
100
AcDbBlockBegin
  2
*PAPER_SPACE
  1

  0
ENDBLK
  5
1D
330
1B
100
AcDbEntity
 67
     1
  8
0
100
AcDbBlockEnd
  0
ENDSEC
  0
SECTION
  2
ENTITIES
  0
LINE
  5
100
100
AcDbEntity
  8
Layer_1
 62
7
100
AcDbLine
 10
36.766500
 20
53.075398
 30
0.0
 11
35.817968
 21
53.166860
 31
0.0
  0
LINE
  5
101
100
AcDbEntity
  8
Layer_1
 62
7
100
AcDbLine
 10
35.817968
 20
53.166860
 30
0.0
 11
34.607500
 21
53.280799
 31
0.0
  0
LINE
  5
102
100
AcDbEntity
  8
Layer_1
 62
7
100
AcDbLine
 10
34.607500
 20
53.280799
 30
0.0
 11
33.415684
 21
53.407201
 31
0.0
  0
LINE
  5
103
100
AcDbEntity
  8
Layer_1
 62
7
100
AcDbLine
 10
33.415684
 20
53.407201
 30
0.0
 11
32.512000
 21
53.528579
 31
0.0
  0
LINE
  5
104
100
AcDbEntity
  8
Layer_1
 62
7
100
AcDbLine
 10
32.512000
 20
53.528579
 30
0.0
 11
30.079355
 21
53.961257
 31
0.0
  0
LINE
  5
105
100
AcDbEntity
  8
Layer_1
 62
7
100
AcDbLine
 10
30.079355
 20
53.961257
 30
0.0
 11
28.575576
 21
54.320698
 31
0.0
  0
LINE
  5
106
100
AcDbEntity
  8
Layer_1
 62
7
100
AcDbLine
 10
28.575576
 20
54.320698
 30
0.0
 11
27.462579
 21
54.651504
 31
0.0
  0
LINE
  5
107
100
AcDbEntity
  8
Layer_1
 62
7
100
AcDbLine
 10
27.462579
 20
54.651504
 30
0.0
 11
26.480075
 21
54.988331
 31
0.0
  0
LINE
  5
108
100
AcDbEntity
  8
Layer_1
 62
7
100
AcDbLine
 10
26.480075
 20
54.988331
 30
0.0
 11
25.810996
 21
55.229374
 31
0.0
  0
LINE
  5
109
100
AcDbEntity
  8
Layer_1
 62
7
100
AcDbLine
 10
25.810996
 20
55.229374
 30
0.0
 11
25.451548
 21
55.329874
 31
0.0
  0
LINE
  5
10a
100
AcDbEntity
  8
Layer_1
 62
7
100
AcDbLine
 10
25.451548
 20
55.329874
 30
0.0
 11
23.893900
 21
56.020268
 31
0.0
  0
LINE
  5
10b
100
AcDbEntity
  8
Layer_1
 62
7
100
AcDbLine
 10
23.893900
 20
56.020268
 30
0.0
 11
22.016484
 21
57.014997
 31
0.0
  0
LINE
  5
10c
100
AcDbEntity
  8
Layer_1
 62
7
100
AcDbLine
 10
22.016484
 20
57.014997
 30
0.0
 11
21.601310
 21
57.259957
 31
0.0
  0
LINE
  5
10d
100
AcDbEntity
  8
Layer_1
 62
7
100
AcDbLine
 10
21.601310
 20
57.259957
 30
0.0
 11
21.355452
 21
57.361845
 31
0.0
  0
LINE
  5
10e
100
AcDbEntity
  8
Layer_1
 62
7
100
AcDbLine
 10
21.355452
 20
57.361845
 30
0.0
 11
21.254534
 21
57.388177
 31
0.0
  0
LINE
  5
10f
100
AcDbEntity
  8
Layer_1
 62
7
100
AcDbLine
 10
21.254534
 20
57.388177
 30
0.0
 11
21.187833
 21
57.451476
 31
0.0
  0
LINE
  5
110
100
AcDbEntity
  8
Layer_1
 62
7
100
AcDbLine
 10
21.187833
 20
57.451476
 30
0.0
 11
20.915445
 21
57.669860
 31
0.0
  0
LINE
  5
111
100
AcDbEntity
  8
Layer_1
 62
7
100
AcDbLine
 10
20.915445
 20
57.669860
 30
0.0
 11
20.320000
 21
58.069046
 31
0.0
  0
LINE
  5
112
100
AcDbEntity
  8
Layer_1
 62
7
100
AcDbLine
 10
20.320000
 20
58.069046
 30
0.0
 11
19.513153
 21
58.618996
 31
0.0
  0
LINE
  5
113
100
AcDbEntity
  8
Layer_1
 62
7
100
AcDbLine
 10
19.513153
 20
58.618996
 30
0.0
 11
18.732500
 21
59.199829
 31
0.0
  0
LINE
  5
114
100
AcDbEntity
  8
Layer_1
 62
7
100
AcDbLine
 10
18.732500
 20
59.199829
 30
0.0
 11
16.244442
 21
61.474215
 31
0.0
  0
LINE
  5
115
100
AcDbEntity
  8
Layer_1
 62
7
100
AcDbLine
 10
16.244442
 20
61.474215
 30
0.0
 11
14.035346
 21
63.858341
 31
0.0
  0
LINE
  5
116
100
AcDbEntity
  8
Layer_1
 62
7
100
AcDbLine
 10
14.035346
 20
63.858341
 30
0.0
 11
13.683086
 21
64.285338
 31
0.0
  0
LINE
  5
117
100
AcDbEntity
  8
Layer_1
 62
7
100
AcDbLine
 10
13.683086
 20
64.285338
 30
0.0
 11
13.368596
 21
64.633490
 31
0.0
  0
LINE
  5
118
100
AcDbEntity
  8
Layer_1
 62
7
100
AcDbLine
 10
13.368596
 20
64.633490
 30
0.0
 11
13.165482
 21
64.869693
 31
0.0
  0
LINE
  5
119
100
AcDbEntity
  8
Layer_1
 62
7
100
AcDbLine
 10
13.165482
 20
64.869693
 30
0.0
 11
13.081000
 21
65.027543
 31
0.0
  0
LINE
  5
11a
100
AcDbEntity
  8
Layer_1
 62
7
100
AcDbLine
 10
13.081000
 20
65.027543
 30
0.0
 11
13.025041
 21
65.099619
 31
0.0
  0
LINE
  5
11b
100
AcDbEntity
  8
Layer_1
 62
7
100
AcDbLine
 10
13.025041
 20
65.099619
 30
0.0
 11
12.890500
 21
65.129597
 31
0.0
  0
LINE
  5
11c
100
AcDbEntity
  8
Layer_1
 62
7
100
AcDbLine
 10
12.890500
 20
65.129597
 30
0.0
 11
12.755960
 21
65.170390
 31
0.0
  0
LINE
  5
11d
100
AcDbEntity
  8
Layer_1
 62
7
100
AcDbLine
 10
12.755960
 20
65.170390
 30
0.0
 11
12.700000
 21
65.268473
 31
0.0
  0
LINE
  5
11e
100
AcDbEntity
  8
Layer_1
 62
7
100
AcDbLine
 10
12.700000
 20
65.268473
 30
0.0
 11
12.100280
 21
66.363952
 31
0.0
  0
LINE
  5
11f
100
AcDbEntity
  8
Layer_1
 62
7
100
AcDbLine
 10
12.100280
 20
66.363952
 30
0.0
 11
11.241523
 21
67.517883
 31
0.0
  0
LINE
  5
120
100
AcDbEntity
  8
Layer_1
 62
7
100
AcDbLine
 10
11.241523
 20
67.517883
 30
0.0
 11
11.016678
 21
67.755133
 31
0.0
  0
LINE
  5
121
100
AcDbEntity
  8
Layer_1
 62
7
100
AcDbLine
 10
11.016678
 20
67.755133
 30
0.0
 11
10.924785
 21
67.928892
 31
0.0
  0
LINE
  5
122
100
AcDbEntity
  8
Layer_1
 62
7
100
AcDbLine
 10
10.924785
 20
67.928892
 30
0.0
 11
10.786033
 21
68.273804
 31
0.0
  0
LINE
  5
123
100
AcDbEntity
  8
Layer_1
 62
7
100
AcDbLine
 10
10.786033
 20
68.273804
 30
0.0
 11
10.448535
 21
68.922554
 31
0.0
  0
LINE
  5
124
100
AcDbEntity
  8
Layer_1
 62
7
100
AcDbLine
 10
10.448535
 20
68.922554
 30
0.0
 11
10.034429
 21
69.569249
 31
0.0
  0
LINE
  5
125
100
AcDbEntity
  8
Layer_1
 62
7
100
AcDbLine
 10
10.034429
 20
69.569249
 30
0.0
 11
9.747250
 21
69.788956
 31
0.0
  0
LINE
  5
126
100
AcDbEntity
  8
Layer_1
 62
7
100
AcDbLine
 10
9.747250
 20
69.788956
 30
0.0
 11
9.569339
 21
69.895901
 31
0.0
  0
LINE
  5
127
100
AcDbEntity
  8
Layer_1
 62
7
100
AcDbLine
 10
9.569339
 20
69.895901
 30
0.0
 11
9.525000
 21
70.320965
 31
0.0
  0
LINE
  5
128
100
AcDbEntity
  8
Layer_1
 62
7
100
AcDbLine
 10
9.525000
 20
70.320965
 30
0.0
 11
9.487694
 21
70.717476
 31
0.0
  0
LINE
  5
129
100
AcDbEntity
  8
Layer_1
 62
7
100
AcDbLine
 10
9.487694
 20
70.717476
 30
0.0
 11
9.398000
 21
70.925536
 31
0.0
  0
LINE
  5
12a
100
AcDbEntity
  8
Layer_1
 62
7
100
AcDbLine
 10
9.398000
 20
70.925536
 30
0.0
 11
9.308307
 21
71.034361
 31
0.0
  0
LINE
  5
12b
100
AcDbEntity
  8
Layer_1
 62
7
100
AcDbLine
 10
9.308307
 20
71.034361
 30
0.0
 11
9.271000
 21
71.192292
 31
0.0
  0
LINE
  5
12c
100
AcDbEntity
  8
Layer_1
 62
7
100
AcDbLine
 10
9.271000
 20
71.192292
 30
0.0
 11
9.108018
 21
71.647161
 31
0.0
  0
LINE
  5
12d
100
AcDbEntity
  8
Layer_1
 62
7
100
AcDbLine
 10
9.108018
 20
71.647161
 30
0.0
 11
8.716166
 21
72.469906
 31
0.0
  0
LINE
  5
12e
100
AcDbEntity
  8
Layer_1
 62
7
100
AcDbLine
 10
8.716166
 20
72.469906
 30
0.0
 11
8.297342
 21
73.323744
 31
0.0
  0
LINE
  5
12f
100
AcDbEntity
  8
Layer_1
 62
7
100
AcDbLine
 10
8.297342
 20
73.323744
 30
0.0
 11
8.069506
 21
73.853380
 31
0.0
  0
LINE
  5
130
100
AcDbEntity
  8
Layer_1
 62
7
100
AcDbLine
 10
8.069506
 20
73.853380
 30
0.0
 11
7.895773
 21
74.327660
 31
0.0
  0
LINE
  5
131
100
AcDbEntity
  8
Layer_1
 62
7
100
AcDbLine
 10
7.895773
 20
74.327660
 30
0.0
 11
7.607019
 21
75.048418
 31
0.0
  0
LINE
  5
132
100
AcDbEntity
  8
Layer_1
 62
7
100
AcDbLine
 10
7.607019
 20
75.048418
 30
0.0
 11
7.237188
 21
76.085114
 31
0.0
  0
LINE
  5
133
100
AcDbEntity
  8
Layer_1
 62
7
100
AcDbLine
 10
7.237188
 20
76.085114
 30
0.0
 11
6.868525
 21
77.318989
 31
0.0
  0
LINE
  5
134
100
AcDbEntity
  8
Layer_1
 62
7
100
AcDbLine
 10
6.868525
 20
77.318989
 30
0.0
 11
6.534741
 21
78.552868
 31
0.0
  0
LINE
  5
135
100
AcDbEntity
  8
Layer_1
 62
7
100
AcDbLine
 10
6.534741
 20
78.552868
 30
0.0
 11
6.248769
 21
79.589563
 31
0.0
  0
LINE
  5
136
100
AcDbEntity
  8
Layer_1
 62
7
100
AcDbLine
 10
6.248769
 20
79.589563
 30
0.0
 11
6.025747
 21
80.485842
 31
0.0
  0
LINE
  5
137
100
AcDbEntity
  8
Layer_1
 62
7
100
AcDbLine
 10
6.025747
 20
80.485842
 30
0.0
 11
5.843311
 21
81.382120
 31
0.0
  0
LINE
  5
138
100
AcDbEntity
  8
Layer_1
 62
7
100
AcDbLine
 10
5.843311
 20
81.382120
 30
0.0
 11
5.703237
 21
82.085328
 31
0.0
  0
LINE
  5
139
100
AcDbEntity
  8
Layer_1
 62
7
100
AcDbLine
 10
5.703237
 20
82.085328
 30
0.0
 11
5.582064
 21
82.517407
 31
0.0
  0
LINE
  5
13a
100
AcDbEntity
  8
Layer_1
 62
7
100
AcDbLine
 10
5.582064
 20
82.517407
 30
0.0
 11
5.463469
 21
83.019698
 31
0.0
  0
LINE
  5
13b
100
AcDbEntity
  8
Layer_1
 62
7
100
AcDbLine
 10
5.463469
 20
83.019698
 30
0.0
 11
5.329591
 21
83.891702
 31
0.0
  0
LINE
  5
13c
100
AcDbEntity
  8
Layer_1
 62
7
100
AcDbLine
 10
5.329591
 20
83.891702
 30
0.0
 11
5.150712
 21
85.220063
 31
0.0
  0
LINE
  5
13d
100
AcDbEntity
  8
Layer_1
 62
7
100
AcDbLine
 10
5.150712
 20
85.220063
 30
0.0
 11
4.923924
 21
86.819546
 31
0.0
  0
LINE
  5
13e
100
AcDbEntity
  8
Layer_1
 62
7
100
AcDbLine
 10
4.923924
 20
86.819546
 30
0.0
 11
4.610904
 21
92.555484
 31
0.0
  0
LINE
  5
13f
100
AcDbEntity
  8
Layer_1
 62
7
100
AcDbLine
 10
4.610904
 20
92.555484
 30
0.0
 11
4.758885
 21
97.455390
 31
0.0
  0
LINE
  5
140
100
AcDbEntity
  8
Layer_1
 62
7
100
AcDbLine
 10
4.758885
 20
97.455390
 30
0.0
 11
4.924406
 21
98.225069
 31
0.0
  0
LINE
  5
141
100
AcDbEntity
  8
Layer_1
 62
7
100
AcDbLine
 10
4.924406
 20
98.225069
 30
0.0
 11
5.083620
 21
99.068690
 31
0.0
  0
LINE
  5
142
100
AcDbEntity
  8
Layer_1
 62
7
100
AcDbLine
 10
5.083620
 20
99.068690
 30
0.0
 11
5.673623
 21
101.981526
 31
0.0
  0
LINE
  5
143
100
AcDbEntity
  8
Layer_1
 62
7
100
AcDbLine
 10
5.673623
 20
101.981526
 30
0.0
 11
6.542302
 21
105.641403
 31
0.0
  0
LINE
  5
144
100
AcDbEntity
  8
Layer_1
 62
7
100
AcDbLine
 10
6.542302
 20
105.641403
 30
0.0
 11
6.805101
 21
106.708536
 31
0.0
  0
LINE
  5
145
100
AcDbEntity
  8
Layer_1
 62
7
100
AcDbLine
 10
6.805101
 20
106.708536
 30
0.0
 11
6.951065
 21
107.344332
 31
0.0
  0
LINE
  5
146
100
AcDbEntity
  8
Layer_1
 62
7
100
AcDbLine
 10
6.951065
 20
107.344332
 30
0.0
 11
7.028464
 21
107.576432
 31
0.0
  0
LINE
  5
147
100
AcDbEntity
  8
Layer_1
 62
7
100
AcDbLine
 10
7.028464
 20
107.576432
 30
0.0
 11
7.126415
 21
107.672969
 31
0.0
  0
LINE
  5
148
100
AcDbEntity
  8
Layer_1
 62
7
100
AcDbLine
 10
7.126415
 20
107.672969
 30
0.0
 11
7.205928
 21
107.734479
 31
0.0
  0
LINE
  5
149
100
AcDbEntity
  8
Layer_1
 62
7
100
AcDbLine
 10
7.205928
 20
107.734479
 30
0.0
 11
7.239000
 21
107.882375
 31
0.0
  0
LINE
  5
14a
100
AcDbEntity
  8
Layer_1
 62
7
100
AcDbLine
 10
7.239000
 20
107.882375
 30
0.0
 11
7.965953
 21
110.723830
 31
0.0
  0
LINE
  5
14b
100
AcDbEntity
  8
Layer_1
 62
7
100
AcDbLine
 10
7.965953
 20
110.723830
 30
0.0
 11
9.401362
 21
115.201712
 31
0.0
  0
LINE
  5
14c
100
AcDbEntity
  8
Layer_1
 62
7
100
AcDbLine
 10
9.401362
 20
115.201712
 30
0.0
 11
9.767260
 21
116.295171
 31
0.0
  0
LINE
  5
14d
100
AcDbEntity
  8
Layer_1
 62
7
100
AcDbLine
 10
9.767260
 20
116.295171
 30
0.0
 11
9.969202
 21
116.994269
 31
0.0
  0
LINE
  5
14e
100
AcDbEntity
  8
Layer_1
 62
7
100
AcDbLine
 10
9.969202
 20
116.994269
 30
0.0
 11
10.340736
 21
118.331963
 31
0.0
  0
LINE
  5
14f
100
AcDbEntity
  8
Layer_1
 62
7
100
AcDbLine
 10
10.340736
 20
118.331963
 30
0.0
 11
10.795527
 21
119.563601
 31
0.0
  0
LINE
  5
150
100
AcDbEntity
  8
Layer_1
 62
7
100
AcDbLine
 10
10.795527
 20
119.563601
 30
0.0
 11
11.244135
 21
120.624787
 31
0.0
  0
LINE
  5
151
100
AcDbEntity
  8
Layer_1
 62
7
100
AcDbLine
 10
11.244135
 20
120.624787
 30
0.0
 11
11.487165
 21
121.475662
 31
0.0
  0
LINE
  5
152
100
AcDbEntity
  8
Layer_1
 62
7
100
AcDbLine
 10
11.487165
 20
121.475662
 30
0.0
 11
11.856456
 21
122.831485
 31
0.0
  0
LINE
  5
153
100
AcDbEntity
  8
Layer_1
 62
7
100
AcDbLine
 10
11.856456
 20
122.831485
 30
0.0
 11
12.553966
 21
124.941274
 31
0.0
  0
LINE
  5
154
100
AcDbEntity
  8
Layer_1
 62
7
100
AcDbLine
 10
12.553966
 20
124.941274
 30
0.0
 11
12.844867
 21
125.823735
 31
0.0
  0
LINE
  5
155
100
AcDbEntity
  8
Layer_1
 62
7
100
AcDbLine
 10
12.844867
 20
125.823735
 30
0.0
 11
13.017079
 21
126.435074
 31
0.0
  0
LINE
  5
156
100
AcDbEntity
  8
Layer_1
 62
7
100
AcDbLine
 10
13.017079
 20
126.435074
 30
0.0
 11
13.218706
 21
127.134172
 31
0.0
  0
LINE
  5
157
100
AcDbEntity
  8
Layer_1
 62
7
100
AcDbLine
 10
13.218706
 20
127.134172
 30
0.0
 11
13.580331
 21
128.227631
 31
0.0
  0
LINE
  5
158
100
AcDbEntity
  8
Layer_1
 62
7
100
AcDbLine
 10
13.580331
 20
128.227631
 30
0.0
 11
14.057621
 21
129.619477
 31
0.0
  0
LINE
  5
159
100
AcDbEntity
  8
Layer_1
 62
7
100
AcDbLine
 10
14.057621
 20
129.619477
 30
0.0
 11
14.537337
 21
131.035971
 31
0.0
  0
LINE
  5
15a
100
AcDbEntity
  8
Layer_1
 62
7
100
AcDbLine
 10
14.537337
 20
131.035971
 30
0.0
 11
14.984462
 21
132.357925
 31
0.0
  0
LINE
  5
15b
100
AcDbEntity
  8
Layer_1
 62
7
100
AcDbLine
 10
14.984462
 20
132.357925
 30
0.0
 11
15.383391
 21
133.522475
 31
0.0
  0
LINE
  5
15c
100
AcDbEntity
  8
Layer_1
 62
7
100
AcDbLine
 10
15.383391
 20
133.522475
 30
0.0
 11
15.640896
 21
134.326964
 31
0.0
  0
LINE
  5
15d
100
AcDbEntity
  8
Layer_1
 62
7
100
AcDbLine
 10
15.640896
 20
134.326964
 30
0.0
 11
15.748000
 21
134.783241
 31
0.0
  0
LINE
  5
15e
100
AcDbEntity
  8
Layer_1
 62
7
100
AcDbLine
 10
15.748000
 20
134.783241
 30
0.0
 11
15.780348
 21
134.963708
 31
0.0
  0
LINE
  5
15f
100
AcDbEntity
  8
Layer_1
 62
7
100
AcDbLine
 10
15.780348
 20
134.963708
 30
0.0
 11
15.858121
 21
135.105076
 31
0.0
  0
LINE
  5
160
100
AcDbEntity
  8
Layer_1
 62
7
100
AcDbLine
 10
15.858121
 20
135.105076
 30
0.0
 11
16.184974
 21
135.843316
 31
0.0
  0
LINE
  5
161
100
AcDbEntity
  8
Layer_1
 62
7
100
AcDbLine
 10
16.184974
 20
135.843316
 30
0.0
 11
16.383000
 21
136.709786
 31
0.0
  0
LINE
  5
162
100
AcDbEntity
  8
Layer_1
 62
7
100
AcDbLine
 10
16.383000
 20
136.709786
 30
0.0
 11
16.416044
 21
136.964424
 31
0.0
  0
LINE
  5
163
100
AcDbEntity
  8
Layer_1
 62
7
100
AcDbLine
 10
16.416044
 20
136.964424
 30
0.0
 11
16.495489
 21
137.136641
 31
0.0
  0
LINE
  5
164
100
AcDbEntity
  8
Layer_1
 62
7
100
AcDbLine
 10
16.495489
 20
137.136641
 30
0.0
 11
16.766228
 21
137.778491
 31
0.0
  0
LINE
  5
165
100
AcDbEntity
  8
Layer_1
 62
7
100
AcDbLine
 10
16.766228
 20
137.778491
 30
0.0
 11
17.259189
 21
139.162232
 31
0.0
  0
LINE
  5
166
100
AcDbEntity
  8
Layer_1
 62
7
100
AcDbLine
 10
17.259189
 20
139.162232
 30
0.0
 11
17.752070
 21
140.582834
 31
0.0
  0
LINE
  5
167
100
AcDbEntity
  8
Layer_1
 62
7
100
AcDbLine
 10
17.752070
 20
140.582834
 30
0.0
 11
18.022617
 21
141.313302
 31
0.0
  0
LINE
  5
168
100
AcDbEntity
  8
Layer_1
 62
7
100
AcDbLine
 10
18.022617
 20
141.313302
 30
0.0
 11
18.185089
 21
141.762935
 31
0.0
  0
LINE
  5
169
100
AcDbEntity
  8
Layer_1
 62
7
100
AcDbLine
 10
18.185089
 20
141.762935
 30
0.0
 11
18.418126
 21
142.508341
 31
0.0
  0
LINE
  5
16a
100
AcDbEntity
  8
Layer_1
 62
7
100
AcDbLine
 10
18.418126
 20
142.508341
 30
0.0
 11
18.647011
 21
143.218640
 31
0.0
  0
LINE
  5
16b
100
AcDbEntity
  8
Layer_1
 62
7
100
AcDbLine
 10
18.647011
 20
143.218640
 30
0.0
 11
18.799499
 21
143.583875
 31
0.0
  0
LINE
  5
16c
100
AcDbEntity
  8
Layer_1
 62
7
100
AcDbLine
 10
18.799499
 20
143.583875
 30
0.0
 11
18.918294
 21
143.870125
 31
0.0
  0
LINE
  5
16d
100
AcDbEntity
  8
Layer_1
 62
7
100
AcDbLine
 10
18.918294
 20
143.870125
 30
0.0
 11
19.066170
 21
144.390526
 31
0.0
  0
LINE
  5
16e
100
AcDbEntity
  8
Layer_1
 62
7
100
AcDbLine
 10
19.066170
 20
144.390526
 30
0.0
 11
19.214057
 21
144.875824
 31
0.0
  0
LINE
  5
16f
100
AcDbEntity
  8
Layer_1
 62
7
100
AcDbLine
 10
19.214057
 20
144.875824
 30
0.0
 11
19.332879
 21
145.077672
 31
0.0
  0
LINE
  5
170
100
AcDbEntity
  8
Layer_1
 62
7
100
AcDbLine
 10
19.332879
 20
145.077672
 30
0.0
 11
19.402720
 21
145.139103
 31
0.0
  0
LINE
  5
171
100
AcDbEntity
  8
Layer_1
 62
7
100
AcDbLine
 10
19.402720
 20
145.139103
 30
0.0
 11
19.432848
 21
145.286804
 31
0.0
  0
LINE
  5
172
100
AcDbEntity
  8
Layer_1
 62
7
100
AcDbLine
 10
19.432848
 20
145.286804
 30
0.0
 11
19.603128
 21
145.958468
 31
0.0
  0
LINE
  5
173
100
AcDbEntity
  8
Layer_1
 62
7
100
AcDbLine
 10
19.603128
 20
145.958468
 30
0.0
 11
19.932815
 21
146.810480
 31
0.0
  0
LINE
  5
174
100
AcDbEntity
  8
Layer_1
 62
7
100
AcDbLine
 10
19.932815
 20
146.810480
 30
0.0
 11
20.113937
 21
147.295216
 31
0.0
  0
LINE
  5
175
100
AcDbEntity
  8
Layer_1
 62
7
100
AcDbLine
 10
20.113937
 20
147.295216
 30
0.0
 11
20.389403
 21
148.125020
 31
0.0
  0
LINE
  5
176
100
AcDbEntity
  8
Layer_1
 62
7
100
AcDbLine
 10
20.389403
 20
148.125020
 30
0.0
 11
20.660369
 21
148.954827
 31
0.0
  0
LINE
  5
177
100
AcDbEntity
  8
Layer_1
 62
7
100
AcDbLine
 10
20.660369
 20
148.954827
 30
0.0
 11
20.830668
 21
149.439563
 31
0.0
  0
LINE
  5
178
100
AcDbEntity
  8
Layer_1
 62
7
100
AcDbLine
 10
20.830668
 20
149.439563
 30
0.0
 11
20.979678
 21
149.854091
 31
0.0
  0
LINE
  5
179
100
AcDbEntity
  8
Layer_1
 62
7
100
AcDbLine
 10
20.979678
 20
149.854091
 30
0.0
 11
21.199454
 21
150.515098
 31
0.0
  0
LINE
  5
17a
100
AcDbEntity
  8
Layer_1
 62
7
100
AcDbLine
 10
21.199454
 20
150.515098
 30
0.0
 11
21.880733
 21
152.594260
 31
0.0
  0
LINE
  5
17b
100
AcDbEntity
  8
Layer_1
 62
7
100
AcDbLine
 10
21.880733
 20
152.594260
 30
0.0
 11
22.491409
 21
154.398972
 31
0.0
  0
LINE
  5
17c
100
AcDbEntity
  8
Layer_1
 62
7
100
AcDbLine
 10
22.491409
 20
154.398972
 30
0.0
 11
23.307057
 21
156.953558
 31
0.0
  0
LINE
  5
17d
100
AcDbEntity
  8
Layer_1
 62
7
100
AcDbLine
 10
23.307057
 20
156.953558
 30
0.0
 11
24.190271
 21
159.896150
 31
0.0
  0
LINE
  5
17e
100
AcDbEntity
  8
Layer_1
 62
7
100
AcDbLine
 10
24.190271
 20
159.896150
 30
0.0
 11
25.262140
 21
163.770731
 31
0.0
  0
LINE
  5
17f
100
AcDbEntity
  8
Layer_1
 62
7
100
AcDbLine
 10
25.262140
 20
163.770731
 30
0.0
 11
26.061326
 21
166.827373
 31
0.0
  0
LINE
  5
180
100
AcDbEntity
  8
Layer_1
 62
7
100
AcDbLine
 10
26.061326
 20
166.827373
 30
0.0
 11
26.265562
 21
167.614979
 31
0.0
  0
LINE
  5
181
100
AcDbEntity
  8
Layer_1
 62
7
100
AcDbLine
 10
26.265562
 20
167.614979
 30
0.0
 11
26.414018
 21
168.082164
 31
0.0
  0
LINE
  5
182
100
AcDbEntity
  8
Layer_1
 62
7
100
AcDbLine
 10
26.414018
 20
168.082164
 30
0.0
 11
26.515692
 21
168.391381
 31
0.0
  0
LINE
  5
183
100
AcDbEntity
  8
Layer_1
 62
7
100
AcDbLine
 10
26.515692
 20
168.391381
 30
0.0
 11
26.607456
 21
168.799186
 31
0.0
  0
LINE
  5
184
100
AcDbEntity
  8
Layer_1
 62
7
100
AcDbLine
 10
26.607456
 20
168.799186
 30
0.0
 11
26.801927
 21
169.765586
 31
0.0
  0
LINE
  5
185
100
AcDbEntity
  8
Layer_1
 62
7
100
AcDbLine
 10
26.801927
 20
169.765586
 30
0.0
 11
27.037010
 21
170.719644
 31
0.0
  0
LINE
  5
186
100
AcDbEntity
  8
Layer_1
 62
7
100
AcDbLine
 10
27.037010
 20
170.719644
 30
0.0
 11
27.507180
 21
172.896686
 31
0.0
  0
LINE
  5
187
100
AcDbEntity
  8
Layer_1
 62
7
100
AcDbLine
 10
27.507180
 20
172.896686
 30
0.0
 11
28.372094
 21
177.283960
 31
0.0
  0
LINE
  5
188
100
AcDbEntity
  8
Layer_1
 62
7
100
AcDbLine
 10
28.372094
 20
177.283960
 30
0.0
 11
28.993157
 21
180.927966
 31
0.0
  0
LINE
  5
189
100
AcDbEntity
  8
Layer_1
 62
7
100
AcDbLine
 10
28.993157
 20
180.927966
 30
0.0
 11
29.468343
 21
184.872456
 31
0.0
  0
LINE
  5
18a
100
AcDbEntity
  8
Layer_1
 62
7
100
AcDbLine
 10
29.468343
 20
184.872456
 30
0.0
 11
29.605103
 21
186.158988
 31
0.0
  0
LINE
  5
18b
100
AcDbEntity
  8
Layer_1
 62
7
100
AcDbLine
 10
29.605103
 20
186.158988
 30
0.0
 11
29.736144
 21
187.322283
 31
0.0
  0
LINE
  5
18c
100
AcDbEntity
  8
Layer_1
 62
7
100
AcDbLine
 10
29.736144
 20
187.322283
 30
0.0
 11
29.804061
 21
188.213521
 31
0.0
  0
LINE
  5
18d
100
AcDbEntity
  8
Layer_1
 62
7
100
AcDbLine
 10
29.804061
 20
188.213521
 30
0.0
 11
29.789047
 21
188.845958
 31
0.0
  0
LINE
  5
18e
100
AcDbEntity
  8
Layer_1
 62
7
100
AcDbLine
 10
29.789047
 20
188.845958
 30
0.0
 11
29.767372
 21
189.162457
 31
0.0
  0
LINE
  5
18f
100
AcDbEntity
  8
Layer_1
 62
7
100
AcDbLine
 10
29.767372
 20
189.162457
 30
0.0
 11
29.819284
 21
189.294096
 31
0.0
  0
LINE
  5
190
100
AcDbEntity
  8
Layer_1
 62
7
100
AcDbLine
 10
29.819284
 20
189.294096
 30
0.0
 11
30.377720
 21
195.372745
 31
0.0
  0
LINE
  5
191
100
AcDbEntity
  8
Layer_1
 62
7
100
AcDbLine
 10
30.377720
 20
195.372745
 30
0.0
 11
30.662318
 21
204.172327
 31
0.0
  0
LINE
  5
192
100
AcDbEntity
  8
Layer_1
 62
7
100
AcDbLine
 10
30.662318
 20
204.172327
 30
0.0
 11
30.443988
 21
210.494237
 31
0.0
  0
LINE
  5
193
100
AcDbEntity
  8
Layer_1
 62
7
100
AcDbLine
 10
30.443988
 20
210.494237
 30
0.0
 11
30.142313
 21
212.693152
 31
0.0
  0
LINE
  5
194
100
AcDbEntity
  8
Layer_1
 62
7
100
AcDbLine
 10
30.142313
 20
212.693152
 30
0.0
 11
29.977210
 21
213.016965
 31
0.0
  0
LINE
  5
195
100
AcDbEntity
  8
Layer_1
 62
7
100
AcDbLine
 10
29.977210
 20
213.016965
 30
0.0
 11
30.114003
 21
213.194867
 31
0.0
  0
LINE
  5
196
100
AcDbEntity
  8
Layer_1
 62
7
100
AcDbLine
 10
30.114003
 20
213.194867
 30
0.0
 11
30.203253
 21
213.441275
 31
0.0
  0
LINE
  5
197
100
AcDbEntity
  8
Layer_1
 62
7
100
AcDbLine
 10
30.203253
 20
213.441275
 30
0.0
 11
30.174105
 21
214.240526
 31
0.0
  0
LINE
  5
198
100
AcDbEntity
  8
Layer_1
 62
7
100
AcDbLine
 10
30.174105
 20
214.240526
 30
0.0
 11
29.933587
 21
216.882605
 31
0.0
  0
LINE
  5
199
100
AcDbEntity
  8
Layer_1
 62
7
100
AcDbLine
 10
29.933587
 20
216.882605
 30
0.0
 11
29.718017
 21
218.512789
 31
0.0
  0
LINE
  5
19a
100
AcDbEntity
  8
Layer_1
 62
7
100
AcDbLine
 10
29.718017
 20
218.512789
 30
0.0
 11
29.246139
 21
221.077616
 31
0.0
  0
LINE
  5
19b
100
AcDbEntity
  8
Layer_1
 62
7
100
AcDbLine
 10
29.246139
 20
221.077616
 30
0.0
 11
28.962533
 21
223.053936
 31
0.0
  0
LINE
  5
19c
100
AcDbEntity
  8
Layer_1
 62
7
100
AcDbLine
 10
28.962533
 20
223.053936
 30
0.0
 11
28.795489
 21
224.126110
 31
0.0
  0
LINE
  5
19d
100
AcDbEntity
  8
Layer_1
 62
7
100
AcDbLine
 10
28.795489
 20
224.126110
 30
0.0
 11
28.577385
 21
225.025750
 31
0.0
  0
LINE
  5
19e
100
AcDbEntity
  8
Layer_1
 62
7
100
AcDbLine
 10
28.577385
 20
225.025750
 30
0.0
 11
28.397386
 21
225.661306
 31
0.0
  0
LINE
  5
19f
100
AcDbEntity
  8
Layer_1
 62
7
100
AcDbLine
 10
28.397386
 20
225.661306
 30
0.0
 11
28.321951
 21
226.098552
 31
0.0
  0
LINE
  5
1a0
100
AcDbEntity
  8
Layer_1
 62
7
100
AcDbLine
 10
28.321951
 20
226.098552
 30
0.0
 11
28.118990
 21
227.335352
 31
0.0
  0
LINE
  5
1a1
100
AcDbEntity
  8
Layer_1
 62
7
100
AcDbLine
 10
28.118990
 20
227.335352
 30
0.0
 11
27.809319
 21
228.551111
 31
0.0
  0
LINE
  5
1a2
100
AcDbEntity
  8
Layer_1
 62
7
100
AcDbLine
 10
27.809319
 20
228.551111
 30
0.0
 11
27.716212
 21
228.906751
 31
0.0
  0
LINE
  5
1a3
100
AcDbEntity
  8
Layer_1
 62
7
100
AcDbLine
 10
27.716212
 20
228.906751
 30
0.0
 11
27.637400
 21
229.426170
 31
0.0
  0
LINE
  5
1a4
100
AcDbEntity
  8
Layer_1
 62
7
100
AcDbLine
 10
27.637400
 20
229.426170
 30
0.0
 11
27.551777
 21
229.986928
 31
0.0
  0
LINE
  5
1a5
100
AcDbEntity
  8
Layer_1
 62
7
100
AcDbLine
 10
27.551777
 20
229.986928
 30
0.0
 11
27.442292
 21
230.441952
 31
0.0
  0
LINE
  5
1a6
100
AcDbEntity
  8
Layer_1
 62
7
100
AcDbLine
 10
27.442292
 20
230.441952
 30
0.0
 11
26.748345
 21
232.981789
 31
0.0
  0
LINE
  5
1a7
100
AcDbEntity
  8
Layer_1
 62
7
100
AcDbLine
 10
26.748345
 20
232.981789
 30
0.0
 11
26.288981
 21
235.050365
 31
0.0
  0
LINE
  5
1a8
100
AcDbEntity
  8
Layer_1
 62
7
100
AcDbLine
 10
26.288981
 20
235.050365
 30
0.0
 11
26.118726
 21
235.910527
 31
0.0
  0
LINE
  5
1a9
100
AcDbEntity
  8
Layer_1
 62
7
100
AcDbLine
 10
26.118726
 20
235.910527
 30
0.0
 11
25.772740
 21
236.916381
 31
0.0
  0
LINE
  5
1aa
100
AcDbEntity
  8
Layer_1
 62
7
100
AcDbLine
 10
25.772740
 20
236.916381
 30
0.0
 11
25.657097
 21
237.313358
 31
0.0
  0
LINE
  5
1ab
100
AcDbEntity
  8
Layer_1
 62
7
100
AcDbLine
 10
25.657097
 20
237.313358
 30
0.0
 11
25.530121
 21
237.932164
 31
0.0
  0
LINE
  5
1ac
100
AcDbEntity
  8
Layer_1
 62
7
100
AcDbLine
 10
25.530121
 20
237.932164
 30
0.0
 11
25.189857
 21
241.439675
 31
0.0
  0
LINE
  5
1ad
100
AcDbEntity
  8
Layer_1
 62
7
100
AcDbLine
 10
25.189857
 20
241.439675
 30
0.0
 11
25.743152
 21
244.014646
 31
0.0
  0
LINE
  5
1ae
100
AcDbEntity
  8
Layer_1
 62
7
100
AcDbLine
 10
25.743152
 20
244.014646
 30
0.0
 11
26.291573
 21
245.151256
 31
0.0
  0
LINE
  5
1af
100
AcDbEntity
  8
Layer_1
 62
7
100
AcDbLine
 10
26.291573
 20
245.151256
 30
0.0
 11
27.163755
 21
246.250574
 31
0.0
  0
LINE
  5
1b0
100
AcDbEntity
  8
Layer_1
 62
7
100
AcDbLine
 10
27.163755
 20
246.250574
 30
0.0
 11
28.247154
 21
247.368922
 31
0.0
  0
LINE
  5
1b1
100
AcDbEntity
  8
Layer_1
 62
7
100
AcDbLine
 10
28.247154
 20
247.368922
 30
0.0
 11
29.551246
 21
248.269535
 31
0.0
  0
LINE
  5
1b2
100
AcDbEntity
  8
Layer_1
 62
7
100
AcDbLine
 10
29.551246
 20
248.269535
 30
0.0
 11
31.677712
 21
249.162554
 31
0.0
  0
LINE
  5
1b3
100
AcDbEntity
  8
Layer_1
 62
7
100
AcDbLine
 10
31.677712
 20
249.162554
 30
0.0
 11
34.035980
 21
249.521823
 31
0.0
  0
LINE
  5
1b4
100
AcDbEntity
  8
Layer_1
 62
7
100
AcDbLine
 10
34.035980
 20
249.521823
 30
0.0
 11
35.435766
 21
249.383099
 31
0.0
  0
LINE
  5
1b5
100
AcDbEntity
  8
Layer_1
 62
7
100
AcDbLine
 10
35.435766
 20
249.383099
 30
0.0
 11
36.893480
 21
249.070583
 31
0.0
  0
LINE
  5
1b6
100
AcDbEntity
  8
Layer_1
 62
7
100
AcDbLine
 10
36.893480
 20
249.070583
 30
0.0
 11
38.724592
 21
248.376480
 31
0.0
  0
LINE
  5
1b7
100
AcDbEntity
  8
Layer_1
 62
7
100
AcDbLine
 10
38.724592
 20
248.376480
 30
0.0
 11
40.775328
 21
247.428431
 31
0.0
  0
LINE
  5
1b8
100
AcDbEntity
  8
Layer_1
 62
7
100
AcDbLine
 10
40.775328
 20
247.428431
 30
0.0
 11
41.706072
 21
246.967263
 31
0.0
  0
LINE
  5
1b9
100
AcDbEntity
  8
Layer_1
 62
7
100
AcDbLine
 10
41.706072
 20
246.967263
 30
0.0
 11
42.159434
 21
246.775448
 31
0.0
  0
LINE
  5
1ba
100
AcDbEntity
  8
Layer_1
 62
7
100
AcDbLine
 10
42.159434
 20
246.775448
 30
0.0
 11
42.291308
 21
246.726722
 31
0.0
  0
LINE
  5
1bb
100
AcDbEntity
  8
Layer_1
 62
7
100
AcDbLine
 10
42.291308
 20
246.726722
 30
0.0
 11
42.449123
 21
246.609569
 31
0.0
  0
LINE
  5
1bc
100
AcDbEntity
  8
Layer_1
 62
7
100
AcDbLine
 10
42.449123
 20
246.609569
 30
0.0
 11
43.179831
 21
246.194146
 31
0.0
  0
LINE
  5
1bd
100
AcDbEntity
  8
Layer_1
 62
7
100
AcDbLine
 10
43.179831
 20
246.194146
 30
0.0
 11
43.921830
 21
245.938921
 31
0.0
  0
LINE
  5
1be
100
AcDbEntity
  8
Layer_1
 62
7
100
AcDbLine
 10
43.921830
 20
245.938921
 30
0.0
 11
44.923055
 21
245.554605
 31
0.0
  0
LINE
  5
1bf
100
AcDbEntity
  8
Layer_1
 62
7
100
AcDbLine
 10
44.923055
 20
245.554605
 30
0.0
 11
46.608980
 21
244.622834
 31
0.0
  0
LINE
  5
1c0
100
AcDbEntity
  8
Layer_1
 62
7
100
AcDbLine
 10
46.608980
 20
244.622834
 30
0.0
 11
47.261969
 21
244.235595
 31
0.0
  0
LINE
  5
1c1
100
AcDbEntity
  8
Layer_1
 62
7
100
AcDbLine
 10
47.261969
 20
244.235595
 30
0.0
 11
48.029391
 21
243.792071
 31
0.0
  0
LINE
  5
1c2
100
AcDbEntity
  8
Layer_1
 62
7
100
AcDbLine
 10
48.029391
 20
243.792071
 30
0.0
 11
48.678699
 21
243.406846
 31
0.0
  0
LINE
  5
1c3
100
AcDbEntity
  8
Layer_1
 62
7
100
AcDbLine
 10
48.678699
 20
243.406846
 30
0.0
 11
49.047716
 21
243.159772
 31
0.0
  0
LINE
  5
1c4
100
AcDbEntity
  8
Layer_1
 62
7
100
AcDbLine
 10
49.047716
 20
243.159772
 30
0.0
 11
49.297254
 21
242.987297
 31
0.0
  0
LINE
  5
1c5
100
AcDbEntity
  8
Layer_1
 62
7
100
AcDbLine
 10
49.297254
 20
242.987297
 30
0.0
 11
49.659306
 21
242.781433
 31
0.0
  0
LINE
  5
1c6
100
AcDbEntity
  8
Layer_1
 62
7
100
AcDbLine
 10
49.659306
 20
242.781433
 30
0.0
 11
51.262988
 21
241.688770
 31
0.0
  0
LINE
  5
1c7
100
AcDbEntity
  8
Layer_1
 62
7
100
AcDbLine
 10
51.262988
 20
241.688770
 30
0.0
 11
52.269675
 21
240.615228
 31
0.0
  0
LINE
  5
1c8
100
AcDbEntity
  8
Layer_1
 62
7
100
AcDbLine
 10
52.269675
 20
240.615228
 30
0.0
 11
52.428069
 21
239.183681
 31
0.0
  0
LINE
  5
1c9
100
AcDbEntity
  8
Layer_1
 62
7
100
AcDbLine
 10
52.428069
 20
239.183681
 30
0.0
 11
52.575435
 21
235.357058
 31
0.0
  0
LINE
  5
1ca
100
AcDbEntity
  8
Layer_1
 62
7
100
AcDbLine
 10
52.575435
 20
235.357058
 30
0.0
 11
52.732124
 21
230.514134
 31
0.0
  0
LINE
  5
1cb
100
AcDbEntity
  8
Layer_1
 62
7
100
AcDbLine
 10
52.732124
 20
230.514134
 30
0.0
 11
52.908812
 21
225.742772
 31
0.0
  0
LINE
  5
1cc
100
AcDbEntity
  8
Layer_1
 62
7
100
AcDbLine
 10
52.908812
 20
225.742772
 30
0.0
 11
53.063295
 21
221.548933
 31
0.0
  0
LINE
  5
1cd
100
AcDbEntity
  8
Layer_1
 62
7
100
AcDbLine
 10
53.063295
 20
221.548933
 30
0.0
 11
53.166603
 21
218.094524
 31
0.0
  0
LINE
  5
1ce
100
AcDbEntity
  8
Layer_1
 62
7
100
AcDbLine
 10
53.166603
 20
218.094524
 30
0.0
 11
53.312026
 21
215.108455
 31
0.0
  0
LINE
  5
1cf
100
AcDbEntity
  8
Layer_1
 62
7
100
AcDbLine
 10
53.312026
 20
215.108455
 30
0.0
 11
53.660836
 21
214.105059
 31
0.0
  0
LINE
  5
1d0
100
AcDbEntity
  8
Layer_1
 62
7
100
AcDbLine
 10
53.660836
 20
214.105059
 30
0.0
 11
53.793006
 21
213.939609
 31
0.0
  0
LINE
  5
1d1
100
AcDbEntity
  8
Layer_1
 62
7
100
AcDbLine
 10
53.793006
 20
213.939609
 30
0.0
 11
53.847980
 21
213.789108
 31
0.0
  0
LINE
  5
1d2
100
AcDbEntity
  8
Layer_1
 62
7
100
AcDbLine
 10
53.847980
 20
213.789108
 30
0.0
 11
53.908190
 21
213.570939
 31
0.0
  0
LINE
  5
1d3
100
AcDbEntity
  8
Layer_1
 62
7
100
AcDbLine
 10
53.908190
 20
213.570939
 30
0.0
 11
54.052950
 21
213.242805
 31
0.0
  0
LINE
  5
1d4
100
AcDbEntity
  8
Layer_1
 62
7
100
AcDbLine
 10
54.052950
 20
213.242805
 30
0.0
 11
54.280277
 21
212.929028
 31
0.0
  0
LINE
  5
1d5
100
AcDbEntity
  8
Layer_1
 62
7
100
AcDbLine
 10
54.280277
 20
212.929028
 30
0.0
 11
54.560950
 21
212.836357
 31
0.0
  0
LINE
  5
1d6
100
AcDbEntity
  8
Layer_1
 62
7
100
AcDbLine
 10
54.560950
 20
212.836357
 30
0.0
 11
54.799656
 21
212.777359
 31
0.0
  0
LINE
  5
1d7
100
AcDbEntity
  8
Layer_1
 62
7
100
AcDbLine
 10
54.799656
 20
212.777359
 30
0.0
 11
54.863980
 21
212.558428
 31
0.0
  0
LINE
  5
1d8
100
AcDbEntity
  8
Layer_1
 62
7
100
AcDbLine
 10
54.863980
 20
212.558428
 30
0.0
 11
55.131572
 21
212.054060
 31
0.0
  0
LINE
  5
1d9
100
AcDbEntity
  8
Layer_1
 62
7
100
AcDbLine
 10
55.131572
 20
212.054060
 30
0.0
 11
55.591831
 21
211.760822
 31
0.0
  0
LINE
  5
1da
100
AcDbEntity
  8
Layer_1
 62
7
100
AcDbLine
 10
55.591831
 20
211.760822
 30
0.0
 11
55.703129
 21
211.729789
 31
0.0
  0
LINE
  5
1db
100
AcDbEntity
  8
Layer_1
 62
7
100
AcDbLine
 10
55.703129
 20
211.729789
 30
0.0
 11
55.774147
 21
211.655181
 31
0.0
  0
LINE
  5
1dc
100
AcDbEntity
  8
Layer_1
 62
7
100
AcDbLine
 10
55.774147
 20
211.655181
 30
0.0
 11
56.083299
 21
211.469233
 31
0.0
  0
LINE
  5
1dd
100
AcDbEntity
  8
Layer_1
 62
7
100
AcDbLine
 10
56.083299
 20
211.469233
 30
0.0
 11
56.767135
 21
211.170515
 31
0.0
  0
LINE
  5
1de
100
AcDbEntity
  8
Layer_1
 62
7
100
AcDbLine
 10
56.767135
 20
211.170515
 30
0.0
 11
58.688645
 21
210.684356
 31
0.0
  0
LINE
  5
1df
100
AcDbEntity
  8
Layer_1
 62
7
100
AcDbLine
 10
58.688645
 20
210.684356
 30
0.0
 11
61.721980
 21
210.387758
 31
0.0
  0
LINE
  5
1e0
100
AcDbEntity
  8
Layer_1
 62
7
100
AcDbLine
 10
61.721980
 20
210.387758
 30
0.0
 11
63.041824
 21
210.282557
 31
0.0
  0
LINE
  5
1e1
100
AcDbEntity
  8
Layer_1
 62
7
100
AcDbLine
 10
63.041824
 20
210.282557
 30
0.0
 11
64.342490
 21
210.142639
 31
0.0
  0
LINE
  5
1e2
100
AcDbEntity
  8
Layer_1
 62
7
100
AcDbLine
 10
64.342490
 20
210.142639
 30
0.0
 11
73.696793
 21
209.773253
 31
0.0
  0
LINE
  5
1e3
100
AcDbEntity
  8
Layer_1
 62
7
100
AcDbLine
 10
73.696793
 20
209.773253
 30
0.0
 11
84.583058
 21
210.195683
 31
0.0
  0
LINE
  5
1e4
100
AcDbEntity
  8
Layer_1
 62
7
100
AcDbLine
 10
84.583058
 20
210.195683
 30
0.0
 11
88.883165
 21
210.589849
 31
0.0
  0
LINE
  5
1e5
100
AcDbEntity
  8
Layer_1
 62
7
100
AcDbLine
 10
88.883165
 20
210.589849
 30
0.0
 11
90.804980
 21
210.796362
 31
0.0
  0
LINE
  5
1e6
100
AcDbEntity
  8
Layer_1
 62
7
100
AcDbLine
 10
90.804980
 20
210.796362
 30
0.0
 11
93.966041
 21
211.265678
 31
0.0
  0
LINE
  5
1e7
100
AcDbEntity
  8
Layer_1
 62
7
100
AcDbLine
 10
93.966041
 20
211.265678
 30
0.0
 11
96.265980
 21
211.636958
 31
0.0
  0
LINE
  5
1e8
100
AcDbEntity
  8
Layer_1
 62
7
100
AcDbLine
 10
96.265980
 20
211.636958
 30
0.0
 11
97.005357
 21
211.772828
 31
0.0
  0
LINE
  5
1e9
100
AcDbEntity
  8
Layer_1
 62
7
100
AcDbLine
 10
97.005357
 20
211.772828
 30
0.0
 11
97.980480
 21
211.940728
 31
0.0
  0
LINE
  5
1ea
100
AcDbEntity
  8
Layer_1
 62
7
100
AcDbLine
 10
97.980480
 20
211.940728
 30
0.0
 11
98.936948
 21
212.106088
 31
0.0
  0
LINE
  5
1eb
100
AcDbEntity
  8
Layer_1
 62
7
100
AcDbLine
 10
98.936948
 20
212.106088
 30
0.0
 11
99.631480
 21
212.235856
 31
0.0
  0
LINE
  5
1ec
100
AcDbEntity
  8
Layer_1
 62
7
100
AcDbLine
 10
99.631480
 20
212.235856
 30
0.0
 11
100.288705
 21
212.366991
 31
0.0
  0
LINE
  5
1ed
100
AcDbEntity
  8
Layer_1
 62
7
100
AcDbLine
 10
100.288705
 20
212.366991
 30
0.0
 11
101.155480
 21
212.535633
 31
0.0
  0
LINE
  5
1ee
100
AcDbEntity
  8
Layer_1
 62
7
100
AcDbLine
 10
101.155480
 20
212.535633
 30
0.0
 11
102.805371
 21
212.885585
 31
0.0
  0
LINE
  5
1ef
100
AcDbEntity
  8
Layer_1
 62
7
100
AcDbLine
 10
102.805371
 20
212.885585
 30
0.0
 11
103.631980
 21
213.157673
 31
0.0
  0
LINE
  5
1f0
100
AcDbEntity
  8
Layer_1
 62
7
100
AcDbLine
 10
103.631980
 20
213.157673
 30
0.0
 11
103.893902
 21
213.267517
 31
0.0
  0
LINE
  5
1f1
100
AcDbEntity
  8
Layer_1
 62
7
100
AcDbLine
 10
103.893902
 20
213.267517
 30
0.0
 11
104.077778
 21
213.313635
 31
0.0
  0
LINE
  5
1f2
100
AcDbEntity
  8
Layer_1
 62
7
100
AcDbLine
 10
104.077778
 20
213.313635
 30
0.0
 11
104.268970
 21
213.401869
 31
0.0
  0
LINE
  5
1f3
100
AcDbEntity
  8
Layer_1
 62
7
100
AcDbLine
 10
104.268970
 20
213.401869
 30
0.0
 11
104.548486
 21
213.613132
 31
0.0
  0
LINE
  5
1f4
100
AcDbEntity
  8
Layer_1
 62
7
100
AcDbLine
 10
104.548486
 20
213.613132
 30
0.0
 11
104.809332
 21
213.824129
 31
0.0
  0
LINE
  5
1f5
100
AcDbEntity
  8
Layer_1
 62
7
100
AcDbLine
 10
104.809332
 20
213.824129
 30
0.0
 11
104.955645
 21
213.911889
 31
0.0
  0
LINE
  5
1f6
100
AcDbEntity
  8
Layer_1
 62
7
100
AcDbLine
 10
104.955645
 20
213.911889
 30
0.0
 11
105.685638
 21
214.521266
 31
0.0
  0
LINE
  5
1f7
100
AcDbEntity
  8
Layer_1
 62
7
100
AcDbLine
 10
105.685638
 20
214.521266
 30
0.0
 11
106.505369
 21
215.667097
 31
0.0
  0
LINE
  5
1f8
100
AcDbEntity
  8
Layer_1
 62
7
100
AcDbLine
 10
106.505369
 20
215.667097
 30
0.0
 11
106.906788
 21
216.643309
 31
0.0
  0
LINE
  5
1f9
100
AcDbEntity
  8
Layer_1
 62
7
100
AcDbLine
 10
106.906788
 20
216.643309
 30
0.0
 11
107.065786
 21
218.158978
 31
0.0
  0
LINE
  5
1fa
100
AcDbEntity
  8
Layer_1
 62
7
100
AcDbLine
 10
107.065786
 20
218.158978
 30
0.0
 11
107.196077
 21
219.476755
 31
0.0
  0
LINE
  5
1fb
100
AcDbEntity
  8
Layer_1
 62
7
100
AcDbLine
 10
107.196077
 20
219.476755
 30
0.0
 11
107.377888
 21
220.082260
 31
0.0
  0
LINE
  5
1fc
100
AcDbEntity
  8
Layer_1
 62
7
100
AcDbLine
 10
107.377888
 20
220.082260
 30
0.0
 11
108.460859
 21
220.546764
 31
0.0
  0
LINE
  5
1fd
100
AcDbEntity
  8
Layer_1
 62
7
100
AcDbLine
 10
108.460859
 20
220.546764
 30
0.0
 11
109.708459
 21
219.743213
 31
0.0
  0
LINE
  5
1fe
100
AcDbEntity
  8
Layer_1
 62
7
100
AcDbLine
 10
109.708459
 20
219.743213
 30
0.0
 11
110.076855
 21
219.338424
 31
0.0
  0
LINE
  5
1ff
100
AcDbEntity
  8
Layer_1
 62
7
100
AcDbLine
 10
110.076855
 20
219.338424
 30
0.0
 11
110.324008
 21
219.170059
 31
0.0
  0
LINE
  5
200
100
AcDbEntity
  8
Layer_1
 62
7
100
AcDbLine
 10
110.324008
 20
219.170059
 30
0.0
 11
110.513709
 21
219.029642
 31
0.0
  0
LINE
  5
201
100
AcDbEntity
  8
Layer_1
 62
7
100
AcDbLine
 10
110.513709
 20
219.029642
 30
0.0
 11
110.743980
 21
218.692045
 31
0.0
  0
LINE
  5
202
100
AcDbEntity
  8
Layer_1
 62
7
100
AcDbLine
 10
110.743980
 20
218.692045
 30
0.0
 11
110.983138
 21
218.354445
 31
0.0
  0
LINE
  5
203
100
AcDbEntity
  8
Layer_1
 62
7
100
AcDbLine
 10
110.983138
 20
218.354445
 30
0.0
 11
111.194204
 21
218.214028
 31
0.0
  0
LINE
  5
204
100
AcDbEntity
  8
Layer_1
 62
7
100
AcDbLine
 10
111.194204
 20
218.214028
 30
0.0
 11
111.364175
 21
218.127324
 31
0.0
  0
LINE
  5
205
100
AcDbEntity
  8
Layer_1
 62
7
100
AcDbLine
 10
111.364175
 20
218.127324
 30
0.0
 11
111.504527
 21
217.918866
 31
0.0
  0
LINE
  5
206
100
AcDbEntity
  8
Layer_1
 62
7
100
AcDbLine
 10
111.504527
 20
217.918866
 30
0.0
 11
112.099494
 21
217.225184
 31
0.0
  0
LINE
  5
207
100
AcDbEntity
  8
Layer_1
 62
7
100
AcDbLine
 10
112.099494
 20
217.225184
 30
0.0
 11
113.663352
 21
215.943455
 31
0.0
  0
LINE
  5
208
100
AcDbEntity
  8
Layer_1
 62
7
100
AcDbLine
 10
113.663352
 20
215.943455
 30
0.0
 11
114.166331
 21
215.551518
 31
0.0
  0
LINE
  5
209
100
AcDbEntity
  8
Layer_1
 62
7
100
AcDbLine
 10
114.166331
 20
215.551518
 30
0.0
 11
114.617587
 21
215.196556
 31
0.0
  0
LINE
  5
20a
100
AcDbEntity
  8
Layer_1
 62
7
100
AcDbLine
 10
114.617587
 20
215.196556
 30
0.0
 11
114.951981
 21
214.964457
 31
0.0
  0
LINE
  5
20b
100
AcDbEntity
  8
Layer_1
 62
7
100
AcDbLine
 10
114.951981
 20
214.964457
 30
0.0
 11
115.173997
 21
214.867923
 31
0.0
  0
LINE
  5
20c
100
AcDbEntity
  8
Layer_1
 62
7
100
AcDbLine
 10
115.173997
 20
214.867923
 30
0.0
 11
115.274273
 21
214.838662
 31
0.0
  0
LINE
  5
20d
100
AcDbEntity
  8
Layer_1
 62
7
100
AcDbLine
 10
115.274273
 20
214.838662
 30
0.0
 11
115.315980
 21
214.768312
 31
0.0
  0
LINE
  5
20e
100
AcDbEntity
  8
Layer_1
 62
7
100
AcDbLine
 10
115.315980
 20
214.768312
 30
0.0
 11
116.145903
 21
214.153229
 31
0.0
  0
LINE
  5
20f
100
AcDbEntity
  8
Layer_1
 62
7
100
AcDbLine
 10
116.145903
 20
214.153229
 30
0.0
 11
117.901599
 21
213.067480
 31
0.0
  0
LINE
  5
210
100
AcDbEntity
  8
Layer_1
 62
7
100
AcDbLine
 10
117.901599
 20
213.067480
 30
0.0
 11
121.051430
 21
211.440303
 31
0.0
  0
LINE
  5
211
100
AcDbEntity
  8
Layer_1
 62
7
100
AcDbLine
 10
121.051430
 20
211.440303
 30
0.0
 11
123.931700
 21
210.190908
 31
0.0
  0
LINE
  5
212
100
AcDbEntity
  8
Layer_1
 62
7
100
AcDbLine
 10
123.931700
 20
210.190908
 30
0.0
 11
124.591408
 21
209.954233
 31
0.0
  0
LINE
  5
213
100
AcDbEntity
  8
Layer_1
 62
7
100
AcDbLine
 10
124.591408
 20
209.954233
 30
0.0
 11
125.168160
 21
209.727759
 31
0.0
  0
LINE
  5
214
100
AcDbEntity
  8
Layer_1
 62
7
100
AcDbLine
 10
125.168160
 20
209.727759
 30
0.0
 11
125.736113
 21
209.518784
 31
0.0
  0
LINE
  5
215
100
AcDbEntity
  8
Layer_1
 62
7
100
AcDbLine
 10
125.736113
 20
209.518784
 30
0.0
 11
126.374660
 21
209.324184
 31
0.0
  0
LINE
  5
216
100
AcDbEntity
  8
Layer_1
 62
7
100
AcDbLine
 10
126.374660
 20
209.324184
 30
0.0
 11
127.252854
 21
209.069678
 31
0.0
  0
LINE
  5
217
100
AcDbEntity
  8
Layer_1
 62
7
100
AcDbLine
 10
127.252854
 20
209.069678
 30
0.0
 11
128.396980
 21
208.716678
 31
0.0
  0
LINE
  5
218
100
AcDbEntity
  8
Layer_1
 62
7
100
AcDbLine
 10
128.396980
 20
208.716678
 30
0.0
 11
132.025748
 21
207.797248
 31
0.0
  0
LINE
  5
219
100
AcDbEntity
  8
Layer_1
 62
7
100
AcDbLine
 10
132.025748
 20
207.797248
 30
0.0
 11
136.778980
 21
207.082377
 31
0.0
  0
LINE
  5
21a
100
AcDbEntity
  8
Layer_1
 62
7
100
AcDbLine
 10
136.778980
 20
207.082377
 30
0.0
 11
140.743954
 21
206.954999
 31
0.0
  0
LINE
  5
21b
100
AcDbEntity
  8
Layer_1
 62
7
100
AcDbLine
 10
140.743954
 20
206.954999
 30
0.0
 11
144.652980
 21
207.089545
 31
0.0
  0
LINE
  5
21c
100
AcDbEntity
  8
Layer_1
 62
7
100
AcDbLine
 10
144.652980
 20
207.089545
 30
0.0
 11
145.792012
 21
207.228678
 31
0.0
  0
LINE
  5
21d
100
AcDbEntity
  8
Layer_1
 62
7
100
AcDbLine
 10
145.792012
 20
207.228678
 30
0.0
 11
147.192980
 21
207.390256
 31
0.0
  0
LINE
  5
21e
100
AcDbEntity
  8
Layer_1
 62
7
100
AcDbLine
 10
147.192980
 20
207.390256
 30
0.0
 11
152.846492
 21
208.411161
 31
0.0
  0
LINE
  5
21f
100
AcDbEntity
  8
Layer_1
 62
7
100
AcDbLine
 10
152.846492
 20
208.411161
 30
0.0
 11
159.003980
 21
210.363763
 31
0.0
  0
LINE
  5
220
100
AcDbEntity
  8
Layer_1
 62
7
100
AcDbLine
 10
159.003980
 20
210.363763
 30
0.0
 11
161.306558
 21
211.378155
 31
0.0
  0
LINE
  5
221
100
AcDbEntity
  8
Layer_1
 62
7
100
AcDbLine
 10
161.306558
 20
211.378155
 30
0.0
 11
164.607982
 21
213.061438
 31
0.0
  0
LINE
  5
222
100
AcDbEntity
  8
Layer_1
 62
7
100
AcDbLine
 10
164.607982
 20
213.061438
 30
0.0
 11
167.202959
 21
214.624729
 31
0.0
  0
LINE
  5
223
100
AcDbEntity
  8
Layer_1
 62
7
100
AcDbLine
 10
167.202959
 20
214.624729
 30
0.0
 11
169.939696
 21
216.511099
 31
0.0
  0
LINE
  5
224
100
AcDbEntity
  8
Layer_1
 62
7
100
AcDbLine
 10
169.939696
 20
216.511099
 30
0.0
 11
171.107546
 21
217.376198
 31
0.0
  0
LINE
  5
225
100
AcDbEntity
  8
Layer_1
 62
7
100
AcDbLine
 10
171.107546
 20
217.376198
 30
0.0
 11
171.614612
 21
217.736014
 31
0.0
  0
LINE
  5
226
100
AcDbEntity
  8
Layer_1
 62
7
100
AcDbLine
 10
171.614612
 20
217.736014
 30
0.0
 11
171.884535
 21
217.955417
 31
0.0
  0
LINE
  5
227
100
AcDbEntity
  8
Layer_1
 62
7
100
AcDbLine
 10
171.884535
 20
217.955417
 30
0.0
 11
172.482222
 21
218.482913
 31
0.0
  0
LINE
  5
228
100
AcDbEntity
  8
Layer_1
 62
7
100
AcDbLine
 10
172.482222
 20
218.482913
 30
0.0
 11
173.289809
 21
219.208331
 31
0.0
  0
LINE
  5
229
100
AcDbEntity
  8
Layer_1
 62
7
100
AcDbLine
 10
173.289809
 20
219.208331
 30
0.0
 11
174.064391
 21
219.903591
 31
0.0
  0
LINE
  5
22a
100
AcDbEntity
  8
Layer_1
 62
7
100
AcDbLine
 10
174.064391
 20
219.903591
 30
0.0
 11
174.654125
 21
220.453747
 31
0.0
  0
LINE
  5
22b
100
AcDbEntity
  8
Layer_1
 62
7
100
AcDbLine
 10
174.654125
 20
220.453747
 30
0.0
 11
175.017258
 21
220.830310
 31
0.0
  0
LINE
  5
22c
100
AcDbEntity
  8
Layer_1
 62
7
100
AcDbLine
 10
175.017258
 20
220.830310
 30
0.0
 11
175.333652
 21
221.181773
 31
0.0
  0
LINE
  5
22d
100
AcDbEntity
  8
Layer_1
 62
7
100
AcDbLine
 10
175.333652
 20
221.181773
 30
0.0
 11
175.811008
 21
221.671581
 31
0.0
  0
LINE
  5
22e
100
AcDbEntity
  8
Layer_1
 62
7
100
AcDbLine
 10
175.811008
 20
221.671581
 30
0.0
 11
176.229092
 21
222.124728
 31
0.0
  0
LINE
  5
22f
100
AcDbEntity
  8
Layer_1
 62
7
100
AcDbLine
 10
176.229092
 20
222.124728
 30
0.0
 11
176.402980
 21
222.388041
 31
0.0
  0
LINE
  5
230
100
AcDbEntity
  8
Layer_1
 62
7
100
AcDbLine
 10
176.402980
 20
222.388041
 30
0.0
 11
176.438941
 21
222.478530
 31
0.0
  0
LINE
  5
231
100
AcDbEntity
  8
Layer_1
 62
7
100
AcDbLine
 10
176.438941
 20
222.478530
 30
0.0
 11
176.525394
 21
222.516167
 31
0.0
  0
LINE
  5
232
100
AcDbEntity
  8
Layer_1
 62
7
100
AcDbLine
 10
176.525394
 20
222.516167
 30
0.0
 11
176.698080
 21
222.635564
 31
0.0
  0
LINE
  5
233
100
AcDbEntity
  8
Layer_1
 62
7
100
AcDbLine
 10
176.698080
 20
222.635564
 30
0.0
 11
176.941345
 21
222.922627
 31
0.0
  0
LINE
  5
234
100
AcDbEntity
  8
Layer_1
 62
7
100
AcDbLine
 10
176.941345
 20
222.922627
 30
0.0
 11
177.284713
 21
223.362349
 31
0.0
  0
LINE
  5
235
100
AcDbEntity
  8
Layer_1
 62
7
100
AcDbLine
 10
177.284713
 20
223.362349
 30
0.0
 11
177.698101
 21
223.848781
 31
0.0
  0
LINE
  5
236
100
AcDbEntity
  8
Layer_1
 62
7
100
AcDbLine
 10
177.698101
 20
223.848781
 30
0.0
 11
178.223999
 21
224.443994
 31
0.0
  0
LINE
  5
237
100
AcDbEntity
  8
Layer_1
 62
7
100
AcDbLine
 10
178.223999
 20
224.443994
 30
0.0
 11
178.837900
 21
225.145254
 31
0.0
  0
LINE
  5
238
100
AcDbEntity
  8
Layer_1
 62
7
100
AcDbLine
 10
178.837900
 20
225.145254
 30
0.0
 11
179.343716
 21
225.705552
 31
0.0
  0
LINE
  5
239
100
AcDbEntity
  8
Layer_1
 62
7
100
AcDbLine
 10
179.343716
 20
225.705552
 30
0.0
 11
179.609730
 21
225.961864
 31
0.0
  0
LINE
  5
23a
100
AcDbEntity
  8
Layer_1
 62
7
100
AcDbLine
 10
179.609730
 20
225.961864
 30
0.0
 11
179.677001
 21
226.033605
 31
0.0
  0
LINE
  5
23b
100
AcDbEntity
  8
Layer_1
 62
7
100
AcDbLine
 10
179.677001
 20
226.033605
 30
0.0
 11
179.704969
 21
226.150162
 31
0.0
  0
LINE
  5
23c
100
AcDbEntity
  8
Layer_1
 62
7
100
AcDbLine
 10
179.704969
 20
226.150162
 30
0.0
 11
179.798235
 21
226.337465
 31
0.0
  0
LINE
  5
23d
100
AcDbEntity
  8
Layer_1
 62
7
100
AcDbLine
 10
179.798235
 20
226.337465
 30
0.0
 11
180.022469
 21
226.579298
 31
0.0
  0
LINE
  5
23e
100
AcDbEntity
  8
Layer_1
 62
7
100
AcDbLine
 10
180.022469
 20
226.579298
 30
0.0
 11
180.246703
 21
226.804672
 31
0.0
  0
LINE
  5
23f
100
AcDbEntity
  8
Layer_1
 62
7
100
AcDbLine
 10
180.246703
 20
226.804672
 30
0.0
 11
180.339969
 21
226.952393
 31
0.0
  0
LINE
  5
240
100
AcDbEntity
  8
Layer_1
 62
7
100
AcDbLine
 10
180.339969
 20
226.952393
 30
0.0
 11
180.563334
 21
227.351286
 31
0.0
  0
LINE
  5
241
100
AcDbEntity
  8
Layer_1
 62
7
100
AcDbLine
 10
180.563334
 20
227.351286
 30
0.0
 11
181.100369
 21
228.180548
 31
0.0
  0
LINE
  5
242
100
AcDbEntity
  8
Layer_1
 62
7
100
AcDbLine
 10
181.100369
 20
228.180548
 30
0.0
 11
183.182187
 21
231.668547
 31
0.0
  0
LINE
  5
243
100
AcDbEntity
  8
Layer_1
 62
7
100
AcDbLine
 10
183.182187
 20
231.668547
 30
0.0
 11
185.035007
 21
235.422585
 31
0.0
  0
LINE
  5
244
100
AcDbEntity
  8
Layer_1
 62
7
100
AcDbLine
 10
185.035007
 20
235.422585
 30
0.0
 11
185.160045
 21
235.686240
 31
0.0
  0
LINE
  5
245
100
AcDbEntity
  8
Layer_1
 62
7
100
AcDbLine
 10
185.160045
 20
235.686240
 30
0.0
 11
185.277627
 21
235.900599
 31
0.0
  0
LINE
  5
246
100
AcDbEntity
  8
Layer_1
 62
7
100
AcDbLine
 10
185.277627
 20
235.900599
 30
0.0
 11
185.441031
 21
236.198589
 31
0.0
  0
LINE
  5
247
100
AcDbEntity
  8
Layer_1
 62
7
100
AcDbLine
 10
185.441031
 20
236.198589
 30
0.0
 11
185.676241
 21
236.663313
 31
0.0
  0
LINE
  5
248
100
AcDbEntity
  8
Layer_1
 62
7
100
AcDbLine
 10
185.676241
 20
236.663313
 30
0.0
 11
187.102617
 21
238.833260
 31
0.0
  0
LINE
  5
249
100
AcDbEntity
  8
Layer_1
 62
7
100
AcDbLine
 10
187.102617
 20
238.833260
 30
0.0
 11
188.351231
 21
239.963727
 31
0.0
  0
LINE
  5
24a
100
AcDbEntity
  8
Layer_1
 62
7
100
AcDbLine
 10
188.351231
 20
239.963727
 30
0.0
 11
188.635394
 21
240.016384
 31
0.0
  0
LINE
  5
24b
100
AcDbEntity
  8
Layer_1
 62
7
100
AcDbLine
 10
188.635394
 20
240.016384
 30
0.0
 11
189.019886
 21
240.142983
 31
0.0
  0
LINE
  5
24c
100
AcDbEntity
  8
Layer_1
 62
7
100
AcDbLine
 10
189.019886
 20
240.142983
 30
0.0
 11
189.622800
 21
240.272842
 31
0.0
  0
LINE
  5
24d
100
AcDbEntity
  8
Layer_1
 62
7
100
AcDbLine
 10
189.622800
 20
240.272842
 30
0.0
 11
190.465146
 21
240.322239
 31
0.0
  0
LINE
  5
24e
100
AcDbEntity
  8
Layer_1
 62
7
100
AcDbLine
 10
190.465146
 20
240.322239
 30
0.0
 11
191.376156
 21
240.265250
 31
0.0
  0
LINE
  5
24f
100
AcDbEntity
  8
Layer_1
 62
7
100
AcDbLine
 10
191.376156
 20
240.265250
 30
0.0
 11
192.040391
 21
240.028748
 31
0.0
  0
LINE
  5
250
100
AcDbEntity
  8
Layer_1
 62
7
100
AcDbLine
 10
192.040391
 20
240.028748
 30
0.0
 11
193.192753
 21
239.194632
 31
0.0
  0
LINE
  5
251
100
AcDbEntity
  8
Layer_1
 62
7
100
AcDbLine
 10
193.192753
 20
239.194632
 30
0.0
 11
194.404381
 21
238.021789
 31
0.0
  0
LINE
  5
252
100
AcDbEntity
  8
Layer_1
 62
7
100
AcDbLine
 10
194.404381
 20
238.021789
 30
0.0
 11
194.661798
 21
237.789690
 31
0.0
  0
LINE
  5
253
100
AcDbEntity
  8
Layer_1
 62
7
100
AcDbLine
 10
194.661798
 20
237.789690
 30
0.0
 11
194.880631
 21
237.693153
 31
0.0
  0
LINE
  5
254
100
AcDbEntity
  8
Layer_1
 62
7
100
AcDbLine
 10
194.880631
 20
237.693153
 30
0.0
 11
195.019287
 21
237.617963
 31
0.0
  0
LINE
  5
255
100
AcDbEntity
  8
Layer_1
 62
7
100
AcDbLine
 10
195.019287
 20
237.617963
 30
0.0
 11
195.071969
 21
237.420066
 31
0.0
  0
LINE
  5
256
100
AcDbEntity
  8
Layer_1
 62
7
100
AcDbLine
 10
195.071969
 20
237.420066
 30
0.0
 11
195.295805
 21
236.904776
 31
0.0
  0
LINE
  5
257
100
AcDbEntity
  8
Layer_1
 62
7
100
AcDbLine
 10
195.295805
 20
236.904776
 30
0.0
 11
195.833969
 21
236.049369
 31
0.0
  0
LINE
  5
258
100
AcDbEntity
  8
Layer_1
 62
7
100
AcDbLine
 10
195.833969
 20
236.049369
 30
0.0
 11
196.372130
 21
235.240526
 31
0.0
  0
LINE
  5
259
100
AcDbEntity
  8
Layer_1
 62
7
100
AcDbLine
 10
196.372130
 20
235.240526
 30
0.0
 11
196.595969
 21
234.837191
 31
0.0
  0
LINE
  5
25a
100
AcDbEntity
  8
Layer_1
 62
7
100
AcDbLine
 10
196.595969
 20
234.837191
 30
0.0
 11
196.642601
 21
234.709195
 31
0.0
  0
LINE
  5
25b
100
AcDbEntity
  8
Layer_1
 62
7
100
AcDbLine
 10
196.642601
 20
234.709195
 30
0.0
 11
196.754719
 21
234.562332
 31
0.0
  0
LINE
  5
25c
100
AcDbEntity
  8
Layer_1
 62
7
100
AcDbLine
 10
196.754719
 20
234.562332
 30
0.0
 11
197.786684
 21
232.738925
 31
0.0
  0
LINE
  5
25d
100
AcDbEntity
  8
Layer_1
 62
7
100
AcDbLine
 10
197.786684
 20
232.738925
 30
0.0
 11
198.627969
 21
230.930956
 31
0.0
  0
LINE
  5
25e
100
AcDbEntity
  8
Layer_1
 62
7
100
AcDbLine
 10
198.627969
 20
230.930956
 30
0.0
 11
198.698702
 21
230.728007
 31
0.0
  0
LINE
  5
25f
100
AcDbEntity
  8
Layer_1
 62
7
100
AcDbLine
 10
198.698702
 20
230.728007
 30
0.0
 11
198.868761
 21
230.356755
 31
0.0
  0
LINE
  5
260
100
AcDbEntity
  8
Layer_1
 62
7
100
AcDbLine
 10
198.868761
 20
230.356755
 30
0.0
 11
199.589554
 21
228.592957
 31
0.0
  0
LINE
  5
261
100
AcDbEntity
  8
Layer_1
 62
7
100
AcDbLine
 10
199.589554
 20
228.592957
 30
0.0
 11
200.024969
 21
227.218661
 31
0.0
  0
LINE
  5
262
100
AcDbEntity
  8
Layer_1
 62
7
100
AcDbLine
 10
200.024969
 20
227.218661
 30
0.0
 11
200.056778
 21
227.020719
 31
0.0
  0
LINE
  5
263
100
AcDbEntity
  8
Layer_1
 62
7
100
AcDbLine
 10
200.056778
 20
227.020719
 30
0.0
 11
200.133249
 21
226.872081
 31
0.0
  0
LINE
  5
264
100
AcDbEntity
  8
Layer_1
 62
7
100
AcDbLine
 10
200.133249
 20
226.872081
 30
0.0
 11
200.933245
 21
223.993937
 31
0.0
  0
LINE
  5
265
100
AcDbEntity
  8
Layer_1
 62
7
100
AcDbLine
 10
200.933245
 20
223.993937
 30
0.0
 11
201.786535
 21
218.871298
 31
0.0
  0
LINE
  5
266
100
AcDbEntity
  8
Layer_1
 62
7
100
AcDbLine
 10
201.786535
 20
218.871298
 30
0.0
 11
202.419520
 21
212.301964
 31
0.0
  0
LINE
  5
267
100
AcDbEntity
  8
Layer_1
 62
7
100
AcDbLine
 10
202.419520
 20
212.301964
 30
0.0
 11
202.630896
 21
204.710090
 31
0.0
  0
LINE
  5
268
100
AcDbEntity
  8
Layer_1
 62
7
100
AcDbLine
 10
202.630896
 20
204.710090
 30
0.0
 11
202.587677
 21
197.469583
 31
0.0
  0
LINE
  5
269
100
AcDbEntity
  8
Layer_1
 62
7
100
AcDbLine
 10
202.587677
 20
197.469583
 30
0.0
 11
202.316139
 21
192.281692
 31
0.0
  0
LINE
  5
26a
100
AcDbEntity
  8
Layer_1
 62
7
100
AcDbLine
 10
202.316139
 20
192.281692
 30
0.0
 11
202.202020
 21
190.893204
 31
0.0
  0
LINE
  5
26b
100
AcDbEntity
  8
Layer_1
 62
7
100
AcDbLine
 10
202.202020
 20
190.893204
 30
0.0
 11
202.119986
 21
189.652606
 31
0.0
  0
LINE
  5
26c
100
AcDbEntity
  8
Layer_1
 62
7
100
AcDbLine
 10
202.119986
 20
189.652606
 30
0.0
 11
202.041472
 21
188.622633
 31
0.0
  0
LINE
  5
26d
100
AcDbEntity
  8
Layer_1
 62
7
100
AcDbLine
 10
202.041472
 20
188.622633
 30
0.0
 11
201.935811
 21
187.740545
 31
0.0
  0
LINE
  5
26e
100
AcDbEntity
  8
Layer_1
 62
7
100
AcDbLine
 10
201.935811
 20
187.740545
 30
0.0
 11
201.806223
 21
186.753145
 31
0.0
  0
LINE
  5
26f
100
AcDbEntity
  8
Layer_1
 62
7
100
AcDbLine
 10
201.806223
 20
186.753145
 30
0.0
 11
201.670189
 21
185.469971
 31
0.0
  0
LINE
  5
270
100
AcDbEntity
  8
Layer_1
 62
7
100
AcDbLine
 10
201.670189
 20
185.469971
 30
0.0
 11
201.516671
 21
184.028829
 31
0.0
  0
LINE
  5
271
100
AcDbEntity
  8
Layer_1
 62
7
100
AcDbLine
 10
201.516671
 20
184.028829
 30
0.0
 11
201.345046
 21
182.661631
 31
0.0
  0
LINE
  5
272
100
AcDbEntity
  8
Layer_1
 62
7
100
AcDbLine
 10
201.345046
 20
182.661631
 30
0.0
 11
201.142281
 21
181.189120
 31
0.0
  0
LINE
  5
273
100
AcDbEntity
  8
Layer_1
 62
7
100
AcDbLine
 10
201.142281
 20
181.189120
 30
0.0
 11
200.913893
 21
179.494779
 31
0.0
  0
LINE
  5
274
100
AcDbEntity
  8
Layer_1
 62
7
100
AcDbLine
 10
200.913893
 20
179.494779
 30
0.0
 11
200.700722
 21
177.975958
 31
0.0
  0
LINE
  5
275
100
AcDbEntity
  8
Layer_1
 62
7
100
AcDbLine
 10
200.700722
 20
177.975958
 30
0.0
 11
200.534518
 21
176.925445
 31
0.0
  0
LINE
  5
276
100
AcDbEntity
  8
Layer_1
 62
7
100
AcDbLine
 10
200.534518
 20
176.925445
 30
0.0
 11
200.175292
 21
174.841632
 31
0.0
  0
LINE
  5
277
100
AcDbEntity
  8
Layer_1
 62
7
100
AcDbLine
 10
200.175292
 20
174.841632
 30
0.0
 11
199.771172
 21
172.384300
 31
0.0
  0
LINE
  5
278
100
AcDbEntity
  8
Layer_1
 62
7
100
AcDbLine
 10
199.771172
 20
172.384300
 30
0.0
 11
199.440681
 21
170.444375
 31
0.0
  0
LINE
  5
279
100
AcDbEntity
  8
Layer_1
 62
7
100
AcDbLine
 10
199.440681
 20
170.444375
 30
0.0
 11
199.141927
 21
168.858936
 31
0.0
  0
LINE
  5
27a
100
AcDbEntity
  8
Layer_1
 62
7
100
AcDbLine
 10
199.141927
 20
168.858936
 30
0.0
 11
199.015813
 21
168.233410
 31
0.0
  0
LINE
  5
27b
100
AcDbEntity
  8
Layer_1
 62
7
100
AcDbLine
 10
199.015813
 20
168.233410
 30
0.0
 11
198.875732
 21
167.484643
 31
0.0
  0
LINE
  5
27c
100
AcDbEntity
  8
Layer_1
 62
7
100
AcDbLine
 10
198.875732
 20
167.484643
 30
0.0
 11
198.739991
 21
166.806085
 31
0.0
  0
LINE
  5
27d
100
AcDbEntity
  8
Layer_1
 62
7
100
AcDbLine
 10
198.739991
 20
166.806085
 30
0.0
 11
198.624300
 21
166.349356
 31
0.0
  0
LINE
  5
27e
100
AcDbEntity
  8
Layer_1
 62
7
100
AcDbLine
 10
198.624300
 20
166.349356
 30
0.0
 11
198.490185
 21
165.787314
 31
0.0
  0
LINE
  5
27f
100
AcDbEntity
  8
Layer_1
 62
7
100
AcDbLine
 10
198.490185
 20
165.787314
 30
0.0
 11
198.310150
 21
164.855557
 31
0.0
  0
LINE
  5
280
100
AcDbEntity
  8
Layer_1
 62
7
100
AcDbLine
 10
198.310150
 20
164.855557
 30
0.0
 11
198.122836
 21
163.853592
 31
0.0
  0
LINE
  5
281
100
AcDbEntity
  8
Layer_1
 62
7
100
AcDbLine
 10
198.122836
 20
163.853592
 30
0.0
 11
197.971227
 21
163.122752
 31
0.0
  0
LINE
  5
282
100
AcDbEntity
  8
Layer_1
 62
7
100
AcDbLine
 10
197.971227
 20
163.122752
 30
0.0
 11
197.833491
 21
162.514778
 31
0.0
  0
LINE
  5
283
100
AcDbEntity
  8
Layer_1
 62
7
100
AcDbLine
 10
197.833491
 20
162.514778
 30
0.0
 11
197.679572
 21
161.808209
 31
0.0
  0
LINE
  5
284
100
AcDbEntity
  8
Layer_1
 62
7
100
AcDbLine
 10
197.679572
 20
161.808209
 30
0.0
 11
197.481929
 21
160.926120
 31
0.0
  0
LINE
  5
285
100
AcDbEntity
  8
Layer_1
 62
7
100
AcDbLine
 10
197.481929
 20
160.926120
 30
0.0
 11
197.239072
 21
159.896148
 31
0.0
  0
LINE
  5
286
100
AcDbEntity
  8
Layer_1
 62
7
100
AcDbLine
 10
197.239072
 20
159.896148
 30
0.0
 11
196.968832
 21
158.778412
 31
0.0
  0
LINE
  5
287
100
AcDbEntity
  8
Layer_1
 62
7
100
AcDbLine
 10
196.968832
 20
158.778412
 30
0.0
 11
196.705381
 21
157.685326
 31
0.0
  0
LINE
  5
288
100
AcDbEntity
  8
Layer_1
 62
7
100
AcDbLine
 10
196.705381
 20
157.685326
 30
0.0
 11
195.254471
 21
151.723480
 31
0.0
  0
LINE
  5
289
100
AcDbEntity
  8
Layer_1
 62
7
100
AcDbLine
 10
195.254471
 20
151.723480
 30
0.0
 11
193.924513
 21
146.451964
 31
0.0
  0
LINE
  5
28a
100
AcDbEntity
  8
Layer_1
 62
7
100
AcDbLine
 10
193.924513
 20
146.451964
 30
0.0
 11
192.503944
 21
140.535562
 31
0.0
  0
LINE
  5
28b
100
AcDbEntity
  8
Layer_1
 62
7
100
AcDbLine
 10
192.503944
 20
140.535562
 30
0.0
 11
191.634968
 21
136.294137
 31
0.0
  0
LINE
  5
28c
100
AcDbEntity
  8
Layer_1
 62
7
100
AcDbLine
 10
191.634968
 20
136.294137
 30
0.0
 11
191.485675
 21
135.436696
 31
0.0
  0
LINE
  5
28d
100
AcDbEntity
  8
Layer_1
 62
7
100
AcDbLine
 10
191.485675
 20
135.436696
 30
0.0
 11
191.276410
 21
134.382076
 31
0.0
  0
LINE
  5
28e
100
AcDbEntity
  8
Layer_1
 62
7
100
AcDbLine
 10
191.276410
 20
134.382076
 30
0.0
 11
191.002042
 21
132.976412
 31
0.0
  0
LINE
  5
28f
100
AcDbEntity
  8
Layer_1
 62
7
100
AcDbLine
 10
191.002042
 20
132.976412
 30
0.0
 11
190.696209
 21
131.274976
 31
0.0
  0
LINE
  5
290
100
AcDbEntity
  8
Layer_1
 62
7
100
AcDbLine
 10
190.696209
 20
131.274976
 30
0.0
 11
190.429227
 21
129.731508
 31
0.0
  0
LINE
  5
291
100
AcDbEntity
  8
Layer_1
 62
7
100
AcDbLine
 10
190.429227
 20
129.731508
 30
0.0
 11
190.248255
 21
128.705642
 31
0.0
  0
LINE
  5
292
100
AcDbEntity
  8
Layer_1
 62
7
100
AcDbLine
 10
190.248255
 20
128.705642
 30
0.0
 11
190.121119
 21
127.995715
 31
0.0
  0
LINE
  5
293
100
AcDbEntity
  8
Layer_1
 62
7
100
AcDbLine
 10
190.121119
 20
127.995715
 30
0.0
 11
189.983573
 21
127.211845
 31
0.0
  0
LINE
  5
294
100
AcDbEntity
  8
Layer_1
 62
7
100
AcDbLine
 10
189.983573
 20
127.211845
 30
0.0
 11
189.847762
 21
126.540410
 31
0.0
  0
LINE
  5
295
100
AcDbEntity
  8
Layer_1
 62
7
100
AcDbLine
 10
189.847762
 20
126.540410
 30
0.0
 11
189.724798
 21
126.100807
 31
0.0
  0
LINE
  5
296
100
AcDbEntity
  8
Layer_1
 62
7
100
AcDbLine
 10
189.724798
 20
126.100807
 30
0.0
 11
189.644404
 21
125.785500
 31
0.0
  0
LINE
  5
297
100
AcDbEntity
  8
Layer_1
 62
7
100
AcDbLine
 10
189.644404
 20
125.785500
 30
0.0
 11
189.610969
 21
125.412882
 31
0.0
  0
LINE
  5
298
100
AcDbEntity
  8
Layer_1
 62
7
100
AcDbLine
 10
189.610969
 20
125.412882
 30
0.0
 11
189.556551
 21
124.778858
 31
0.0
  0
LINE
  5
299
100
AcDbEntity
  8
Layer_1
 62
7
100
AcDbLine
 10
189.556551
 20
124.778858
 30
0.0
 11
189.425701
 21
123.835073
 31
0.0
  0
LINE
  5
29a
100
AcDbEntity
  8
Layer_1
 62
7
100
AcDbLine
 10
189.425701
 20
123.835073
 30
0.0
 11
189.115155
 21
121.302078
 31
0.0
  0
LINE
  5
29b
100
AcDbEntity
  8
Layer_1
 62
7
100
AcDbLine
 10
189.115155
 20
121.302078
 30
0.0
 11
188.659598
 21
116.456498
 31
0.0
  0
LINE
  5
29c
100
AcDbEntity
  8
Layer_1
 62
7
100
AcDbLine
 10
188.659598
 20
116.456498
 30
0.0
 11
188.373495
 21
110.490114
 31
0.0
  0
LINE
  5
29d
100
AcDbEntity
  8
Layer_1
 62
7
100
AcDbLine
 10
188.373495
 20
110.490114
 30
0.0
 11
188.222057
 21
103.490331
 31
0.0
  0
LINE
  5
29e
100
AcDbEntity
  8
Layer_1
 62
7
100
AcDbLine
 10
188.222057
 20
103.490331
 30
0.0
 11
188.531257
 21
95.174382
 31
0.0
  0
LINE
  5
29f
100
AcDbEntity
  8
Layer_1
 62
7
100
AcDbLine
 10
188.531257
 20
95.174382
 30
0.0
 11
189.237575
 21
87.259415
 31
0.0
  0
LINE
  5
2a0
100
AcDbEntity
  8
Layer_1
 62
7
100
AcDbLine
 10
189.237575
 20
87.259415
 30
0.0
 11
189.412479
 21
85.802160
 31
0.0
  0
LINE
  5
2a1
100
AcDbEntity
  8
Layer_1
 62
7
100
AcDbLine
 10
189.412479
 20
85.802160
 30
0.0
 11
189.487003
 21
84.869337
 31
0.0
  0
LINE
  5
2a2
100
AcDbEntity
  8
Layer_1
 62
7
100
AcDbLine
 10
189.487003
 20
84.869337
 30
0.0
 11
189.524383
 21
84.333860
 31
0.0
  0
LINE
  5
2a3
100
AcDbEntity
  8
Layer_1
 62
7
100
AcDbLine
 10
189.524383
 20
84.333860
 30
0.0
 11
189.609964
 21
83.831947
 31
0.0
  0
LINE
  5
2a4
100
AcDbEntity
  8
Layer_1
 62
7
100
AcDbLine
 10
189.609964
 20
83.831947
 30
0.0
 11
189.719551
 21
83.141067
 31
0.0
  0
LINE
  5
2a5
100
AcDbEntity
  8
Layer_1
 62
7
100
AcDbLine
 10
189.719551
 20
83.141067
 30
0.0
 11
189.814612
 21
82.151258
 31
0.0
  0
LINE
  5
2a6
100
AcDbEntity
  8
Layer_1
 62
7
100
AcDbLine
 10
189.814612
 20
82.151258
 30
0.0
 11
189.716249
 21
80.585534
 31
0.0
  0
LINE
  5
2a7
100
AcDbEntity
  8
Layer_1
 62
7
100
AcDbLine
 10
189.716249
 20
80.585534
 30
0.0
 11
188.846466
 21
79.767442
 31
0.0
  0
LINE
  5
2a8
100
AcDbEntity
  8
Layer_1
 62
7
100
AcDbLine
 10
188.846466
 20
79.767442
 30
0.0
 11
188.399761
 21
79.495868
 31
0.0
  0
LINE
  5
2a9
100
AcDbEntity
  8
Layer_1
 62
7
100
AcDbLine
 10
188.399761
 20
79.495868
 30
0.0
 11
188.213969
 21
79.331050
 31
0.0
  0
LINE
  5
2aa
100
AcDbEntity
  8
Layer_1
 62
7
100
AcDbLine
 10
188.213969
 20
79.331050
 30
0.0
 11
188.074071
 21
79.207807
 31
0.0
  0
LINE
  5
2ab
100
AcDbEntity
  8
Layer_1
 62
7
100
AcDbLine
 10
188.074071
 20
79.207807
 30
0.0
 11
187.737719
 21
79.036173
 31
0.0
  0
LINE
  5
2ac
100
AcDbEntity
  8
Layer_1
 62
7
100
AcDbLine
 10
187.737719
 20
79.036173
 30
0.0
 11
187.308101
 21
78.830913
 31
0.0
  0
LINE
  5
2ad
100
AcDbEntity
  8
Layer_1
 62
7
100
AcDbLine
 10
187.308101
 20
78.830913
 30
0.0
 11
186.943969
 21
78.626790
 31
0.0
  0
LINE
  5
2ae
100
AcDbEntity
  8
Layer_1
 62
7
100
AcDbLine
 10
186.943969
 20
78.626790
 30
0.0
 11
184.540184
 21
77.422506
 31
0.0
  0
LINE
  5
2af
100
AcDbEntity
  8
Layer_1
 62
7
100
AcDbLine
 10
184.540184
 20
77.422506
 30
0.0
 11
181.927469
 21
76.252799
 31
0.0
  0
LINE
  5
2b0
100
AcDbEntity
  8
Layer_1
 62
7
100
AcDbLine
 10
181.927469
 20
76.252799
 30
0.0
 11
181.202776
 21
75.988583
 31
0.0
  0
LINE
  5
2b1
100
AcDbEntity
  8
Layer_1
 62
7
100
AcDbLine
 10
181.202776
 20
75.988583
 30
0.0
 11
180.530469
 21
75.742338
 31
0.0
  0
LINE
  5
2b2
100
AcDbEntity
  8
Layer_1
 62
7
100
AcDbLine
 10
180.530469
 20
75.742338
 30
0.0
 11
179.671633
 21
75.455149
 31
0.0
  0
LINE
  5
2b3
100
AcDbEntity
  8
Layer_1
 62
7
100
AcDbLine
 10
179.671633
 20
75.455149
 30
0.0
 11
178.498469
 21
75.092513
 31
0.0
  0
LINE
  5
2b4
100
AcDbEntity
  8
Layer_1
 62
7
100
AcDbLine
 10
178.498469
 20
75.092513
 30
0.0
 11
177.362612
 21
74.750347
 31
0.0
  0
LINE
  5
2b5
100
AcDbEntity
  8
Layer_1
 62
7
100
AcDbLine
 10
177.362612
 20
74.750347
 30
0.0
 11
176.593469
 21
74.512391
 31
0.0
  0
LINE
  5
2b6
100
AcDbEntity
  8
Layer_1
 62
7
100
AcDbLine
 10
176.593469
 20
74.512391
 30
0.0
 11
174.318425
 21
73.963314
 31
0.0
  0
LINE
  5
2b7
100
AcDbEntity
  8
Layer_1
 62
7
100
AcDbLine
 10
174.318425
 20
73.963314
 30
0.0
 11
171.205596
 21
73.370689
 31
0.0
  0
LINE
  5
2b8
100
AcDbEntity
  8
Layer_1
 62
7
100
AcDbLine
 10
171.205596
 20
73.370689
 30
0.0
 11
168.624718
 21
73.061012
 31
0.0
  0
LINE
  5
2b9
100
AcDbEntity
  8
Layer_1
 62
7
100
AcDbLine
 10
168.624718
 20
73.061012
 30
0.0
 11
166.242969
 21
72.897679
 31
0.0
  0
LINE
  5
2ba
100
AcDbEntity
  8
Layer_1
 62
7
100
AcDbLine
 10
166.242969
 20
72.897679
 30
0.0
 11
164.453920
 21
72.656114
 31
0.0
  0
LINE
  5
2bb
100
AcDbEntity
  8
Layer_1
 62
7
100
AcDbLine
 10
164.453920
 20
72.656114
 30
0.0
 11
162.920573
 21
72.023163
 31
0.0
  0
LINE
  5
2bc
100
AcDbEntity
  8
Layer_1
 62
7
100
AcDbLine
 10
162.920573
 20
72.023163
 30
0.0
 11
161.818300
 21
71.114362
 31
0.0
  0
LINE
  5
2bd
100
AcDbEntity
  8
Layer_1
 62
7
100
AcDbLine
 10
161.818300
 20
71.114362
 30
0.0
 11
160.757229
 21
69.706544
 31
0.0
  0
LINE
  5
2be
100
AcDbEntity
  8
Layer_1
 62
7
100
AcDbLine
 10
160.757229
 20
69.706544
 30
0.0
 11
159.493052
 21
67.878614
 31
0.0
  0
LINE
  5
2bf
100
AcDbEntity
  8
Layer_1
 62
7
100
AcDbLine
 10
159.493052
 20
67.878614
 30
0.0
 11
158.258922
 21
66.225387
 31
0.0
  0
LINE
  5
2c0
100
AcDbEntity
  8
Layer_1
 62
7
100
AcDbLine
 10
158.258922
 20
66.225387
 30
0.0
 11
153.907030
 21
61.831345
 31
0.0
  0
LINE
  5
2c1
100
AcDbEntity
  8
Layer_1
 62
7
100
AcDbLine
 10
153.907030
 20
61.831345
 30
0.0
 11
148.913971
 21
57.839859
 31
0.0
  0
LINE
  5
2c2
100
AcDbEntity
  8
Layer_1
 62
7
100
AcDbLine
 10
148.913971
 20
57.839859
 30
0.0
 11
148.119775
 21
57.296720
 31
0.0
  0
LINE
  5
2c3
100
AcDbEntity
  8
Layer_1
 62
7
100
AcDbLine
 10
148.119775
 20
57.296720
 30
0.0
 11
147.592929
 21
56.913849
 31
0.0
  0
LINE
  5
2c4
100
AcDbEntity
  8
Layer_1
 62
7
100
AcDbLine
 10
147.592929
 20
56.913849
 30
0.0
 11
147.329711
 21
56.724012
 31
0.0
  0
LINE
  5
2c5
100
AcDbEntity
  8
Layer_1
 62
7
100
AcDbLine
 10
147.329711
 20
56.724012
 30
0.0
 11
147.169347
 21
56.644964
 31
0.0
  0
LINE
  5
2c6
100
AcDbEntity
  8
Layer_1
 62
7
100
AcDbLine
 10
147.169347
 20
56.644964
 30
0.0
 11
146.814865
 21
56.460566
 31
0.0
  0
LINE
  5
2c7
100
AcDbEntity
  8
Layer_1
 62
7
100
AcDbLine
 10
146.814865
 20
56.460566
 30
0.0
 11
146.084945
 21
56.017426
 31
0.0
  0
LINE
  5
2c8
100
AcDbEntity
  8
Layer_1
 62
7
100
AcDbLine
 10
146.084945
 20
56.017426
 30
0.0
 11
144.157260
 21
54.956556
 31
0.0
  0
LINE
  5
2c9
100
AcDbEntity
  8
Layer_1
 62
7
100
AcDbLine
 10
144.157260
 20
54.956556
 30
0.0
 11
142.774371
 21
54.523150
 31
0.0
  0
LINE
  5
2ca
100
AcDbEntity
  8
Layer_1
 62
7
100
AcDbLine
 10
142.774371
 20
54.523150
 30
0.0
 11
141.699578
 21
54.627908
 31
0.0
  0
LINE
  5
2cb
100
AcDbEntity
  8
Layer_1
 62
7
100
AcDbLine
 10
141.699578
 20
54.627908
 30
0.0
 11
140.463976
 21
55.089812
 31
0.0
  0
LINE
  5
2cc
100
AcDbEntity
  8
Layer_1
 62
7
100
AcDbLine
 10
140.463976
 20
55.089812
 30
0.0
 11
138.342390
 21
55.832144
 31
0.0
  0
LINE
  5
2cd
100
AcDbEntity
  8
Layer_1
 62
7
100
AcDbLine
 10
138.342390
 20
55.832144
 30
0.0
 11
135.508969
 21
56.536898
 31
0.0
  0
LINE
  5
2ce
100
AcDbEntity
  8
Layer_1
 62
7
100
AcDbLine
 10
135.508969
 20
56.536898
 30
0.0
 11
132.402792
 21
57.047664
 31
0.0
  0
LINE
  5
2cf
100
AcDbEntity
  8
Layer_1
 62
7
100
AcDbLine
 10
132.402792
 20
57.047664
 30
0.0
 11
129.349469
 21
57.146332
 31
0.0
  0
LINE
  5
2d0
100
AcDbEntity
  8
Layer_1
 62
7
100
AcDbLine
 10
129.349469
 20
57.146332
 30
0.0
 11
127.369245
 21
57.156887
 31
0.0
  0
LINE
  5
2d1
100
AcDbEntity
  8
Layer_1
 62
7
100
AcDbLine
 10
127.369245
 20
57.156887
 30
0.0
 11
126.353429
 21
57.195091
 31
0.0
  0
LINE
  5
2d2
100
AcDbEntity
  8
Layer_1
 62
7
100
AcDbLine
 10
126.353429
 20
57.195091
 30
0.0
 11
126.042891
 21
57.351197
 31
0.0
  0
LINE
  5
2d3
100
AcDbEntity
  8
Layer_1
 62
7
100
AcDbLine
 10
126.042891
 20
57.351197
 30
0.0
 11
125.767854
 21
57.695790
 31
0.0
  0
LINE
  5
2d4
100
AcDbEntity
  8
Layer_1
 62
7
100
AcDbLine
 10
125.767854
 20
57.695790
 30
0.0
 11
125.530579
 21
58.511057
 31
0.0
  0
LINE
  5
2d5
100
AcDbEntity
  8
Layer_1
 62
7
100
AcDbLine
 10
125.530579
 20
58.511057
 30
0.0
 11
125.358553
 21
60.588441
 31
0.0
  0
LINE
  5
2d6
100
AcDbEntity
  8
Layer_1
 62
7
100
AcDbLine
 10
125.358553
 20
60.588441
 30
0.0
 11
125.078944
 21
64.224073
 31
0.0
  0
LINE
  5
2d7
100
AcDbEntity
  8
Layer_1
 62
7
100
AcDbLine
 10
125.078944
 20
64.224073
 30
0.0
 11
124.796790
 21
65.572443
 31
0.0
  0
LINE
  5
2d8
100
AcDbEntity
  8
Layer_1
 62
7
100
AcDbLine
 10
124.796790
 20
65.572443
 30
0.0
 11
124.104059
 21
66.395860
 31
0.0
  0
LINE
  5
2d9
100
AcDbEntity
  8
Layer_1
 62
7
100
AcDbLine
 10
124.104059
 20
66.395860
 30
0.0
 11
123.280884
 21
67.011771
 31
0.0
  0
LINE
  5
2da
100
AcDbEntity
  8
Layer_1
 62
7
100
AcDbLine
 10
123.280884
 20
67.011771
 30
0.0
 11
122.939756
 21
67.160457
 31
0.0
  0
LINE
  5
2db
100
AcDbEntity
  8
Layer_1
 62
7
100
AcDbLine
 10
122.939756
 20
67.160457
 30
0.0
 11
122.603951
 21
67.308166
 31
0.0
  0
LINE
  5
2dc
100
AcDbEntity
  8
Layer_1
 62
7
100
AcDbLine
 10
122.603951
 20
67.308166
 30
0.0
 11
119.243323
 21
67.440232
 31
0.0
  0
LINE
  5
2dd
100
AcDbEntity
  8
Layer_1
 62
7
100
AcDbLine
 10
119.243323
 20
67.440232
 30
0.0
 11
112.585469
 21
67.226246
 31
0.0
  0
LINE
  5
2de
100
AcDbEntity
  8
Layer_1
 62
7
100
AcDbLine
 10
112.585469
 20
67.226246
 30
0.0
 11
109.170758
 21
67.052806
 31
0.0
  0
LINE
  5
2df
100
AcDbEntity
  8
Layer_1
 62
7
100
AcDbLine
 10
109.170758
 20
67.052806
 30
0.0
 11
106.489469
 21
66.922611
 31
0.0
  0
LINE
  5
2e0
100
AcDbEntity
  8
Layer_1
 62
7
100
AcDbLine
 10
106.489469
 20
66.922611
 30
0.0
 11
104.181244
 21
66.813798
 31
0.0
  0
LINE
  5
2e1
100
AcDbEntity
  8
Layer_1
 62
7
100
AcDbLine
 10
104.181244
 20
66.813798
 30
0.0
 11
101.663469
 21
66.691802
 31
0.0
  0
LINE
  5
2e2
100
AcDbEntity
  8
Layer_1
 62
7
100
AcDbLine
 10
101.663469
 20
66.691802
 30
0.0
 11
95.783504
 21
66.410234
 31
0.0
  0
LINE
  5
2e3
100
AcDbEntity
  8
Layer_1
 62
7
100
AcDbLine
 10
95.783504
 20
66.410234
 30
0.0
 11
88.772969
 21
66.084829
 31
0.0
  0
LINE
  5
2e4
100
AcDbEntity
  8
Layer_1
 62
7
100
AcDbLine
 10
88.772969
 20
66.084829
 30
0.0
 11
86.154387
 21
65.963231
 31
0.0
  0
LINE
  5
2e5
100
AcDbEntity
  8
Layer_1
 62
7
100
AcDbLine
 10
86.154387
 20
65.963231
 30
0.0
 11
83.692969
 21
65.845939
 31
0.0
  0
LINE
  5
2e6
100
AcDbEntity
  8
Layer_1
 62
7
100
AcDbLine
 10
83.692969
 20
65.845939
 30
0.0
 11
81.194244
 21
65.728758
 31
0.0
  0
LINE
  5
2e7
100
AcDbEntity
  8
Layer_1
 62
7
100
AcDbLine
 10
81.194244
 20
65.728758
 30
0.0
 11
78.485969
 21
65.607388
 31
0.0
  0
LINE
  5
2e8
100
AcDbEntity
  8
Layer_1
 62
7
100
AcDbLine
 10
78.485969
 20
65.607388
 30
0.0
 11
72.144613
 21
65.322775
 31
0.0
  0
LINE
  5
2e9
100
AcDbEntity
  8
Layer_1
 62
7
100
AcDbLine
 10
72.144613
 20
65.322775
 30
0.0
 11
68.198969
 21
65.122107
 31
0.0
  0
LINE
  5
2ea
100
AcDbEntity
  8
Layer_1
 62
7
100
AcDbLine
 10
68.198969
 20
65.122107
 30
0.0
 11
65.450610
 21
64.986815
 31
0.0
  0
LINE
  5
2eb
100
AcDbEntity
  8
Layer_1
 62
7
100
AcDbLine
 10
65.450610
 20
64.986815
 30
0.0
 11
61.785469
 21
64.827433
 31
0.0
  0
LINE
  5
2ec
100
AcDbEntity
  8
Layer_1
 62
7
100
AcDbLine
 10
61.785469
 20
64.827433
 30
0.0
 11
55.297527
 21
64.504091
 31
0.0
  0
LINE
  5
2ed
100
AcDbEntity
  8
Layer_1
 62
7
100
AcDbLine
 10
55.297527
 20
64.504091
 30
0.0
 11
53.432924
 21
64.108427
 31
0.0
  0
LINE
  5
2ee
100
AcDbEntity
  8
Layer_1
 62
7
100
AcDbLine
 10
53.432924
 20
64.108427
 30
0.0
 11
52.178218
 21
63.204170
 31
0.0
  0
LINE
  5
2ef
100
AcDbEntity
  8
Layer_1
 62
7
100
AcDbLine
 10
52.178218
 20
63.204170
 30
0.0
 11
51.438305
 21
61.975307
 31
0.0
  0
LINE
  5
2f0
100
AcDbEntity
  8
Layer_1
 62
7
100
AcDbLine
 10
51.438305
 20
61.975307
 30
0.0
 11
51.339677
 21
61.083922
 31
0.0
  0
LINE
  5
2f1
100
AcDbEntity
  8
Layer_1
 62
7
100
AcDbLine
 10
51.339677
 20
61.083922
 30
0.0
 11
51.438587
 21
58.868206
 31
0.0
  0
LINE
  5
2f2
100
AcDbEntity
  8
Layer_1
 62
7
100
AcDbLine
 10
51.438587
 20
58.868206
 30
0.0
 11
51.505874
 21
55.598315
 31
0.0
  0
LINE
  5
2f3
100
AcDbEntity
  8
Layer_1
 62
7
100
AcDbLine
 10
51.505874
 20
55.598315
 30
0.0
 11
50.953128
 21
54.409567
 31
0.0
  0
LINE
  5
2f4
100
AcDbEntity
  8
Layer_1
 62
7
100
AcDbLine
 10
50.953128
 20
54.409567
 30
0.0
 11
50.521929
 21
54.118584
 31
0.0
  0
LINE
  5
2f5
100
AcDbEntity
  8
Layer_1
 62
7
100
AcDbLine
 10
50.521929
 20
54.118584
 30
0.0
 11
50.137797
 21
54.015728
 31
0.0
  0
LINE
  5
2f6
100
AcDbEntity
  8
Layer_1
 62
7
100
AcDbLine
 10
50.137797
 20
54.015728
 30
0.0
 11
49.540245
 21
53.946903
 31
0.0
  0
LINE
  5
2f7
100
AcDbEntity
  8
Layer_1
 62
7
100
AcDbLine
 10
49.540245
 20
53.946903
 30
0.0
 11
48.606862
 21
53.781430
 31
0.0
  0
LINE
  5
2f8
100
AcDbEntity
  8
Layer_1
 62
7
100
AcDbLine
 10
48.606862
 20
53.781430
 30
0.0
 11
44.500179
 21
53.207746
 31
0.0
  0
LINE
  5
2f9
100
AcDbEntity
  8
Layer_1
 62
7
100
AcDbLine
 10
44.500179
 20
53.207746
 30
0.0
 11
39.560331
 21
53.010080
 31
0.0
  0
LINE
  5
2fa
100
AcDbEntity
  8
Layer_1
 62
7
100
AcDbLine
 10
39.560331
 20
53.010080
 30
0.0
 11
37.901395
 21
53.025066
 31
0.0
  0
LINE
  5
2fb
100
AcDbEntity
  8
Layer_1
 62
7
100
AcDbLine
 10
37.901395
 20
53.025066
 30
0.0
 11
36.766331
 21
53.075386
 31
0.0
  0
LINE
  5
2fc
100
AcDbEntity
  8
Layer_1
 62
7
100
AcDbLine
 10
36.766331
 20
53.075386
 30
0.0
 11
36.766401
 21
53.075389
 31
0.0
  0
LINE
  5
2fd
100
AcDbEntity
  8
Layer_1
 62
7
100
AcDbLine
 10
36.766401
 20
53.075389
 30
0.0
 11
36.766500
 21
53.075398
 31
0.0
  0
LINE
  5
2fe
100
AcDbEntity
  8
Layer_1
 62
7
100
AcDbLine
 10
43.353183
 20
59.827974
 30
0.0
 11
43.665597
 21
60.915751
 31
0.0
  0
LINE
  5
2ff
100
AcDbEntity
  8
Layer_1
 62
7
100
AcDbLine
 10
43.665597
 20
60.915751
 30
0.0
 11
42.874249
 21
61.544480
 31
0.0
  0
LINE
  5
300
100
AcDbEntity
  8
Layer_1
 62
7
100
AcDbLine
 10
42.874249
 20
61.544480
 30
0.0
 11
41.971541
 21
61.380472
 31
0.0
  0
LINE
  5
301
100
AcDbEntity
  8
Layer_1
 62
7
100
AcDbLine
 10
41.971541
 20
61.380472
 30
0.0
 11
41.584056
 21
60.886886
 31
0.0
  0
LINE
  5
302
100
AcDbEntity
  8
Layer_1
 62
7
100
AcDbLine
 10
41.584056
 20
60.886886
 30
0.0
 11
42.102546
 21
59.691951
 31
0.0
  0
LINE
  5
303
100
AcDbEntity
  8
Layer_1
 62
7
100
AcDbLine
 10
42.102546
 20
59.691951
 30
0.0
 11
43.353183
 21
59.827974
 31
0.0
  0
LINE
  5
304
100
AcDbEntity
  8
Layer_1
 62
7
100
AcDbLine
 10
137.301427
 20
62.985792
 30
0.0
 11
137.667255
 21
63.417496
 31
0.0
  0
LINE
  5
305
100
AcDbEntity
  8
Layer_1
 62
7
100
AcDbLine
 10
137.667255
 20
63.417496
 30
0.0
 11
137.709834
 21
64.066345
 31
0.0
  0
LINE
  5
306
100
AcDbEntity
  8
Layer_1
 62
7
100
AcDbLine
 10
137.709834
 20
64.066345
 30
0.0
 11
137.267465
 21
64.640283
 31
0.0
  0
LINE
  5
307
100
AcDbEntity
  8
Layer_1
 62
7
100
AcDbLine
 10
137.267465
 20
64.640283
 30
0.0
 11
136.476269
 21
64.890146
 31
0.0
  0
LINE
  5
308
100
AcDbEntity
  8
Layer_1
 62
7
100
AcDbLine
 10
136.476269
 20
64.890146
 30
0.0
 11
135.813394
 21
64.565071
 31
0.0
  0
LINE
  5
309
100
AcDbEntity
  8
Layer_1
 62
7
100
AcDbLine
 10
135.813394
 20
64.565071
 30
0.0
 11
135.509152
 21
63.855553
 31
0.0
  0
LINE
  5
30a
100
AcDbEntity
  8
Layer_1
 62
7
100
AcDbLine
 10
135.509152
 20
63.855553
 30
0.0
 11
136.132889
 21
63.014172
 31
0.0
  0
LINE
  5
30b
100
AcDbEntity
  8
Layer_1
 62
7
100
AcDbLine
 10
136.132889
 20
63.014172
 30
0.0
 11
137.301427
 21
62.985792
 31
0.0
  0
LINE
  5
30c
100
AcDbEntity
  8
Layer_1
 62
7
100
AcDbLine
 10
182.089744
 20
83.599715
 30
0.0
 11
182.308943
 21
83.846504
 31
0.0
  0
LINE
  5
30d
100
AcDbEntity
  8
Layer_1
 62
7
100
AcDbLine
 10
182.308943
 20
83.846504
 30
0.0
 11
182.372000
 21
84.243746
 31
0.0
  0
LINE
  5
30e
100
AcDbEntity
  8
Layer_1
 62
7
100
AcDbLine
 10
182.372000
 20
84.243746
 30
0.0
 11
182.115660
 21
85.002199
 31
0.0
  0
LINE
  5
30f
100
AcDbEntity
  8
Layer_1
 62
7
100
AcDbLine
 10
182.115660
 20
85.002199
 30
0.0
 11
181.363137
 21
85.260556
 31
0.0
  0
LINE
  5
310
100
AcDbEntity
  8
Layer_1
 62
7
100
AcDbLine
 10
181.363137
 20
85.260556
 30
0.0
 11
180.786811
 21
85.136996
 31
0.0
  0
LINE
  5
311
100
AcDbEntity
  8
Layer_1
 62
7
100
AcDbLine
 10
180.786811
 20
85.136996
 30
0.0
 11
180.511552
 21
84.623375
 31
0.0
  0
LINE
  5
312
100
AcDbEntity
  8
Layer_1
 62
7
100
AcDbLine
 10
180.511552
 20
84.623375
 30
0.0
 11
180.629650
 21
84.030937
 31
0.0
  0
LINE
  5
313
100
AcDbEntity
  8
Layer_1
 62
7
100
AcDbLine
 10
180.629650
 20
84.030937
 30
0.0
 11
181.028938
 21
83.505140
 31
0.0
  0
LINE
  5
314
100
AcDbEntity
  8
Layer_1
 62
7
100
AcDbLine
 10
181.028938
 20
83.505140
 30
0.0
 11
181.534692
 21
83.423366
 31
0.0
  0
LINE
  5
315
100
AcDbEntity
  8
Layer_1
 62
7
100
AcDbLine
 10
181.534692
 20
83.423366
 30
0.0
 11
182.089744
 21
83.599715
 31
0.0
  0
LINE
  5
316
100
AcDbEntity
  8
Layer_1
 62
7
100
AcDbLine
 10
113.500052
 20
84.187996
 30
0.0
 11
115.316979
 21
84.884303
 31
0.0
  0
LINE
  5
317
100
AcDbEntity
  8
Layer_1
 62
7
100
AcDbLine
 10
115.316979
 20
84.884303
 30
0.0
 11
116.941789
 21
85.876371
 31
0.0
  0
LINE
  5
318
100
AcDbEntity
  8
Layer_1
 62
7
100
AcDbLine
 10
116.941789
 20
85.876371
 30
0.0
 11
118.133365
 21
87.136112
 31
0.0
  0
LINE
  5
319
100
AcDbEntity
  8
Layer_1
 62
7
100
AcDbLine
 10
118.133365
 20
87.136112
 30
0.0
 11
118.996166
 21
88.552348
 31
0.0
  0
LINE
  5
31a
100
AcDbEntity
  8
Layer_1
 62
7
100
AcDbLine
 10
118.996166
 20
88.552348
 30
0.0
 11
119.232147
 21
89.104307
 31
0.0
  0
LINE
  5
31b
100
AcDbEntity
  8
Layer_1
 62
7
100
AcDbLine
 10
119.232147
 20
89.104307
 30
0.0
 11
119.405541
 21
89.508382
 31
0.0
  0
LINE
  5
31c
100
AcDbEntity
  8
Layer_1
 62
7
100
AcDbLine
 10
119.405541
 20
89.508382
 30
0.0
 11
119.599100
 21
91.099621
 31
0.0
  0
LINE
  5
31d
100
AcDbEntity
  8
Layer_1
 62
7
100
AcDbLine
 10
119.599100
 20
91.099621
 30
0.0
 11
119.526222
 21
93.035107
 31
0.0
  0
LINE
  5
31e
100
AcDbEntity
  8
Layer_1
 62
7
100
AcDbLine
 10
119.526222
 20
93.035107
 30
0.0
 11
118.153016
 21
96.164579
 31
0.0
  0
LINE
  5
31f
100
AcDbEntity
  8
Layer_1
 62
7
100
AcDbLine
 10
118.153016
 20
96.164579
 30
0.0
 11
115.445707
 21
98.493575
 31
0.0
  0
LINE
  5
320
100
AcDbEntity
  8
Layer_1
 62
7
100
AcDbLine
 10
115.445707
 20
98.493575
 30
0.0
 11
113.319797
 21
99.198789
 31
0.0
  0
LINE
  5
321
100
AcDbEntity
  8
Layer_1
 62
7
100
AcDbLine
 10
113.319797
 20
99.198789
 30
0.0
 11
109.918500
 21
99.665898
 31
0.0
  0
LINE
  5
322
100
AcDbEntity
  8
Layer_1
 62
7
100
AcDbLine
 10
109.918500
 20
99.665898
 30
0.0
 11
108.517927
 21
99.798980
 31
0.0
  0
LINE
  5
323
100
AcDbEntity
  8
Layer_1
 62
7
100
AcDbLine
 10
108.517927
 20
99.798980
 30
0.0
 11
106.934000
 21
99.960499
 31
0.0
  0
LINE
  5
324
100
AcDbEntity
  8
Layer_1
 62
7
100
AcDbLine
 10
106.934000
 20
99.960499
 30
0.0
 11
105.070275
 21
100.157969
 31
0.0
  0
LINE
  5
325
100
AcDbEntity
  8
Layer_1
 62
7
100
AcDbLine
 10
105.070275
 20
100.157969
 30
0.0
 11
102.997000
 21
100.377471
 31
0.0
  0
LINE
  5
326
100
AcDbEntity
  8
Layer_1
 62
7
100
AcDbLine
 10
102.997000
 20
100.377471
 30
0.0
 11
100.905070
 21
100.582017
 31
0.0
  0
LINE
  5
327
100
AcDbEntity
  8
Layer_1
 62
7
100
AcDbLine
 10
100.905070
 20
100.582017
 30
0.0
 11
98.996500
 21
100.743535
 31
0.0
  0
LINE
  5
328
100
AcDbEntity
  8
Layer_1
 62
7
100
AcDbLine
 10
98.996500
 20
100.743535
 30
0.0
 11
97.516950
 21
100.867581
 31
0.0
  0
LINE
  5
329
100
AcDbEntity
  8
Layer_1
 62
7
100
AcDbLine
 10
97.516950
 20
100.867581
 30
0.0
 11
96.456500
 21
100.982064
 31
0.0
  0
LINE
  5
32a
100
AcDbEntity
  8
Layer_1
 62
7
100
AcDbLine
 10
96.456500
 20
100.982064
 30
0.0
 11
95.321436
 21
101.113577
 31
0.0
  0
LINE
  5
32b
100
AcDbEntity
  8
Layer_1
 62
7
100
AcDbLine
 10
95.321436
 20
101.113577
 30
0.0
 11
93.662500
 21
101.278553
 31
0.0
  0
LINE
  5
32c
100
AcDbEntity
  8
Layer_1
 62
7
100
AcDbLine
 10
93.662500
 20
101.278553
 30
0.0
 11
91.990319
 21
101.447409
 31
0.0
  0
LINE
  5
32d
100
AcDbEntity
  8
Layer_1
 62
7
100
AcDbLine
 10
91.990319
 20
101.447409
 30
0.0
 11
90.823415
 21
101.588249
 31
0.0
  0
LINE
  5
32e
100
AcDbEntity
  8
Layer_1
 62
7
100
AcDbLine
 10
90.823415
 20
101.588249
 30
0.0
 11
90.129676
 21
101.653454
 31
0.0
  0
LINE
  5
32f
100
AcDbEntity
  8
Layer_1
 62
7
100
AcDbLine
 10
90.129676
 20
101.653454
 30
0.0
 11
89.861336
 21
101.509673
 31
0.0
  0
LINE
  5
330
100
AcDbEntity
  8
Layer_1
 62
7
100
AcDbLine
 10
89.861336
 20
101.509673
 30
0.0
 11
89.557423
 21
101.366084
 31
0.0
  0
LINE
  5
331
100
AcDbEntity
  8
Layer_1
 62
7
100
AcDbLine
 10
89.557423
 20
101.366084
 30
0.0
 11
88.636419
 21
101.454021
 31
0.0
  0
LINE
  5
332
100
AcDbEntity
  8
Layer_1
 62
7
100
AcDbLine
 10
88.636419
 20
101.454021
 30
0.0
 11
87.600990
 21
101.586813
 31
0.0
  0
LINE
  5
333
100
AcDbEntity
  8
Layer_1
 62
7
100
AcDbLine
 10
87.600990
 20
101.586813
 30
0.0
 11
86.614000
 21
101.704130
 31
0.0
  0
LINE
  5
334
100
AcDbEntity
  8
Layer_1
 62
7
100
AcDbLine
 10
86.614000
 20
101.704130
 30
0.0
 11
85.605541
 21
101.816804
 31
0.0
  0
LINE
  5
335
100
AcDbEntity
  8
Layer_1
 62
7
100
AcDbLine
 10
85.605541
 20
101.816804
 30
0.0
 11
84.518500
 21
101.938442
 31
0.0
  0
LINE
  5
336
100
AcDbEntity
  8
Layer_1
 62
7
100
AcDbLine
 10
84.518500
 20
101.938442
 30
0.0
 11
83.431459
 21
102.058810
 31
0.0
  0
LINE
  5
337
100
AcDbEntity
  8
Layer_1
 62
7
100
AcDbLine
 10
83.431459
 20
102.058810
 30
0.0
 11
82.423000
 21
102.168439
 31
0.0
  0
LINE
  5
338
100
AcDbEntity
  8
Layer_1
 62
7
100
AcDbLine
 10
82.423000
 20
102.168439
 30
0.0
 11
76.894018
 21
102.765587
 31
0.0
  0
LINE
  5
339
100
AcDbEntity
  8
Layer_1
 62
7
100
AcDbLine
 10
76.894018
 20
102.765587
 30
0.0
 11
73.723500
 21
103.123885
 31
0.0
  0
LINE
  5
33a
100
AcDbEntity
  8
Layer_1
 62
7
100
AcDbLine
 10
73.723500
 20
103.123885
 30
0.0
 11
71.766114
 21
103.331982
 31
0.0
  0
LINE
  5
33b
100
AcDbEntity
  8
Layer_1
 62
7
100
AcDbLine
 10
71.766114
 20
103.331982
 30
0.0
 11
69.913500
 21
103.496771
 31
0.0
  0
LINE
  5
33c
100
AcDbEntity
  8
Layer_1
 62
7
100
AcDbLine
 10
69.913500
 20
103.496771
 30
0.0
 11
68.396643
 21
103.625673
 31
0.0
  0
LINE
  5
33d
100
AcDbEntity
  8
Layer_1
 62
7
100
AcDbLine
 10
68.396643
 20
103.625673
 30
0.0
 11
67.246500
 21
103.747481
 31
0.0
  0
LINE
  5
33e
100
AcDbEntity
  8
Layer_1
 62
7
100
AcDbLine
 10
67.246500
 20
103.747481
 30
0.0
 11
66.189623
 21
103.859966
 31
0.0
  0
LINE
  5
33f
100
AcDbEntity
  8
Layer_1
 62
7
100
AcDbLine
 10
66.189623
 20
103.859966
 30
0.0
 11
64.897000
 21
103.966445
 31
0.0
  0
LINE
  5
340
100
AcDbEntity
  8
Layer_1
 62
7
100
AcDbLine
 10
64.897000
 20
103.966445
 30
0.0
 11
63.697643
 21
104.075115
 31
0.0
  0
LINE
  5
341
100
AcDbEntity
  8
Layer_1
 62
7
100
AcDbLine
 10
63.697643
 20
104.075115
 30
0.0
 11
62.865000
 21
104.192858
 31
0.0
  0
LINE
  5
342
100
AcDbEntity
  8
Layer_1
 62
7
100
AcDbLine
 10
62.865000
 20
104.192858
 30
0.0
 11
62.121395
 21
104.317124
 31
0.0
  0
LINE
  5
343
100
AcDbEntity
  8
Layer_1
 62
7
100
AcDbLine
 10
62.121395
 20
104.317124
 30
0.0
 11
61.136107
 21
104.441462
 31
0.0
  0
LINE
  5
344
100
AcDbEntity
  8
Layer_1
 62
7
100
AcDbLine
 10
61.136107
 20
104.441462
 30
0.0
 11
56.478503
 21
104.190976
 31
0.0
  0
LINE
  5
345
100
AcDbEntity
  8
Layer_1
 62
7
100
AcDbLine
 10
56.478503
 20
104.190976
 30
0.0
 11
53.059688
 21
101.920636
 31
0.0
  0
LINE
  5
346
100
AcDbEntity
  8
Layer_1
 62
7
100
AcDbLine
 10
53.059688
 20
101.920636
 30
0.0
 11
52.144831
 21
100.824601
 31
0.0
  0
LINE
  5
347
100
AcDbEntity
  8
Layer_1
 62
7
100
AcDbLine
 10
52.144831
 20
100.824601
 30
0.0
 11
51.547985
 21
99.546704
 31
0.0
  0
LINE
  5
348
100
AcDbEntity
  8
Layer_1
 62
7
100
AcDbLine
 10
51.547985
 20
99.546704
 30
0.0
 11
51.297987
 21
98.607480
 31
0.0
  0
LINE
  5
349
100
AcDbEntity
  8
Layer_1
 62
7
100
AcDbLine
 10
51.297987
 20
98.607480
 30
0.0
 11
51.246811
 21
97.037122
 31
0.0
  0
LINE
  5
34a
100
AcDbEntity
  8
Layer_1
 62
7
100
AcDbLine
 10
51.246811
 20
97.037122
 30
0.0
 11
51.298026
 21
95.465689
 31
0.0
  0
LINE
  5
34b
100
AcDbEntity
  8
Layer_1
 62
7
100
AcDbLine
 10
51.298026
 20
95.465689
 30
0.0
 11
51.550214
 21
94.527543
 31
0.0
  0
LINE
  5
34c
100
AcDbEntity
  8
Layer_1
 62
7
100
AcDbLine
 10
51.550214
 20
94.527543
 30
0.0
 11
52.013335
 21
93.530616
 31
0.0
  0
LINE
  5
34d
100
AcDbEntity
  8
Layer_1
 62
7
100
AcDbLine
 10
52.013335
 20
93.530616
 30
0.0
 11
52.808135
 21
92.459359
 31
0.0
  0
LINE
  5
34e
100
AcDbEntity
  8
Layer_1
 62
7
100
AcDbLine
 10
52.808135
 20
92.459359
 30
0.0
 11
53.997349
 21
91.198441
 31
0.0
  0
LINE
  5
34f
100
AcDbEntity
  8
Layer_1
 62
7
100
AcDbLine
 10
53.997349
 20
91.198441
 30
0.0
 11
55.372000
 21
90.319644
 31
0.0
  0
LINE
  5
350
100
AcDbEntity
  8
Layer_1
 62
7
100
AcDbLine
 10
55.372000
 20
90.319644
 30
0.0
 11
57.502617
 21
89.560333
 31
0.0
  0
LINE
  5
351
100
AcDbEntity
  8
Layer_1
 62
7
100
AcDbLine
 10
57.502617
 20
89.560333
 30
0.0
 11
61.087000
 21
89.080725
 31
0.0
  0
LINE
  5
352
100
AcDbEntity
  8
Layer_1
 62
7
100
AcDbLine
 10
61.087000
 20
89.080725
 30
0.0
 11
64.258577
 21
88.771254
 31
0.0
  0
LINE
  5
353
100
AcDbEntity
  8
Layer_1
 62
7
100
AcDbLine
 10
64.258577
 20
88.771254
 30
0.0
 11
66.294000
 21
88.548634
 31
0.0
  0
LINE
  5
354
100
AcDbEntity
  8
Layer_1
 62
7
100
AcDbLine
 10
66.294000
 20
88.548634
 30
0.0
 11
67.258009
 21
88.441164
 31
0.0
  0
LINE
  5
355
100
AcDbEntity
  8
Layer_1
 62
7
100
AcDbLine
 10
67.258009
 20
88.441164
 30
0.0
 11
67.881500
 21
88.380370
 31
0.0
  0
LINE
  5
356
100
AcDbEntity
  8
Layer_1
 62
7
100
AcDbLine
 10
67.881500
 20
88.380370
 30
0.0
 11
68.374418
 21
88.336143
 31
0.0
  0
LINE
  5
357
100
AcDbEntity
  8
Layer_1
 62
7
100
AcDbLine
 10
68.374418
 20
88.336143
 30
0.0
 11
69.024500
 21
88.268517
 31
0.0
  0
LINE
  5
358
100
AcDbEntity
  8
Layer_1
 62
7
100
AcDbLine
 10
69.024500
 20
88.268517
 30
0.0
 11
77.124631
 21
87.400817
 31
0.0
  0
LINE
  5
359
100
AcDbEntity
  8
Layer_1
 62
7
100
AcDbLine
 10
77.124631
 20
87.400817
 30
0.0
 11
86.868000
 21
86.456349
 31
0.0
  0
LINE
  5
35a
100
AcDbEntity
  8
Layer_1
 62
7
100
AcDbLine
 10
86.868000
 20
86.456349
 30
0.0
 11
88.482091
 21
86.292392
 31
0.0
  0
LINE
  5
35b
100
AcDbEntity
  8
Layer_1
 62
7
100
AcDbLine
 10
88.482091
 20
86.292392
 30
0.0
 11
89.598500
 21
86.160108
 31
0.0
  0
LINE
  5
35c
100
AcDbEntity
  8
Layer_1
 62
7
100
AcDbLine
 10
89.598500
 20
86.160108
 30
0.0
 11
90.379152
 21
86.062276
 31
0.0
  0
LINE
  5
35d
100
AcDbEntity
  8
Layer_1
 62
7
100
AcDbLine
 10
90.379152
 20
86.062276
 30
0.0
 11
91.186000
 21
85.981140
 31
0.0
  0
LINE
  5
35e
100
AcDbEntity
  8
Layer_1
 62
7
100
AcDbLine
 10
91.186000
 20
85.981140
 30
0.0
 11
92.198032
 21
85.881431
 31
0.0
  0
LINE
  5
35f
100
AcDbEntity
  8
Layer_1
 62
7
100
AcDbLine
 10
92.198032
 20
85.881431
 30
0.0
 11
93.472000
 21
85.738943
 31
0.0
  0
LINE
  5
360
100
AcDbEntity
  8
Layer_1
 62
7
100
AcDbLine
 10
93.472000
 20
85.738943
 30
0.0
 11
96.374244
 21
85.419380
 31
0.0
  0
LINE
  5
361
100
AcDbEntity
  8
Layer_1
 62
7
100
AcDbLine
 10
96.374244
 20
85.419380
 30
0.0
 11
99.758500
 21
85.080716
 31
0.0
  0
LINE
  5
362
100
AcDbEntity
  8
Layer_1
 62
7
100
AcDbLine
 10
99.758500
 20
85.080716
 30
0.0
 11
101.121766
 21
84.942870
 31
0.0
  0
LINE
  5
363
100
AcDbEntity
  8
Layer_1
 62
7
100
AcDbLine
 10
101.121766
 20
84.942870
 30
0.0
 11
102.616000
 21
84.780987
 31
0.0
  0
LINE
  5
364
100
AcDbEntity
  8
Layer_1
 62
7
100
AcDbLine
 10
102.616000
 20
84.780987
 30
0.0
 11
104.166193
 21
84.619714
 31
0.0
  0
LINE
  5
365
100
AcDbEntity
  8
Layer_1
 62
7
100
AcDbLine
 10
104.166193
 20
84.619714
 30
0.0
 11
105.664000
 21
84.483350
 31
0.0
  0
LINE
  5
366
100
AcDbEntity
  8
Layer_1
 62
7
100
AcDbLine
 10
105.664000
 20
84.483350
 30
0.0
 11
107.199114
 21
84.352091
 31
0.0
  0
LINE
  5
367
100
AcDbEntity
  8
Layer_1
 62
7
100
AcDbLine
 10
107.199114
 20
84.352091
 30
0.0
 11
108.839000
 21
84.203078
 31
0.0
  0
LINE
  5
368
100
AcDbEntity
  8
Layer_1
 62
7
100
AcDbLine
 10
108.839000
 20
84.203078
 30
0.0
 11
111.719267
 21
84.033779
 31
0.0
  0
LINE
  5
369
100
AcDbEntity
  8
Layer_1
 62
7
100
AcDbLine
 10
111.719267
 20
84.033779
 30
0.0
 11
113.500052
 21
84.188007
 31
0.0
  0
LINE
  5
36a
100
AcDbEntity
  8
Layer_1
 62
7
100
AcDbLine
 10
113.500052
 20
84.188007
 30
0.0
 11
113.500052
 21
84.188002
 31
0.0
  0
LINE
  5
36b
100
AcDbEntity
  8
Layer_1
 62
7
100
AcDbLine
 10
113.500052
 20
84.188002
 30
0.0
 11
113.500052
 21
84.187996
 31
0.0
  0
LINE
  5
36c
100
AcDbEntity
  8
Layer_1
 62
7
100
AcDbLine
 10
124.040448
 20
89.821039
 30
0.0
 11
124.356614
 21
90.093307
 31
0.0
  0
LINE
  5
36d
100
AcDbEntity
  8
Layer_1
 62
7
100
AcDbLine
 10
124.356614
 20
90.093307
 30
0.0
 11
124.240411
 21
90.619982
 31
0.0
  0
LINE
  5
36e
100
AcDbEntity
  8
Layer_1
 62
7
100
AcDbLine
 10
124.240411
 20
90.619982
 30
0.0
 11
124.025970
 21
90.883478
 31
0.0
  0
LINE
  5
36f
100
AcDbEntity
  8
Layer_1
 62
7
100
AcDbLine
 10
124.025970
 20
90.883478
 30
0.0
 11
123.672052
 21
90.896432
 31
0.0
  0
LINE
  5
370
100
AcDbEntity
  8
Layer_1
 62
7
100
AcDbLine
 10
123.672052
 20
90.896432
 30
0.0
 11
123.115527
 21
90.587371
 31
0.0
  0
LINE
  5
371
100
AcDbEntity
  8
Layer_1
 62
7
100
AcDbLine
 10
123.115527
 20
90.587371
 30
0.0
 11
123.194468
 21
89.978547
 31
0.0
  0
LINE
  5
372
100
AcDbEntity
  8
Layer_1
 62
7
100
AcDbLine
 10
123.194468
 20
89.978547
 30
0.0
 11
123.486237
 21
89.764622
 31
0.0
  0
LINE
  5
373
100
AcDbEntity
  8
Layer_1
 62
7
100
AcDbLine
 10
123.486237
 20
89.764622
 30
0.0
 11
124.040448
 21
89.821039
 31
0.0
  0
LINE
  5
374
100
AcDbEntity
  8
Layer_1
 62
7
100
AcDbLine
 10
47.369840
 20
97.932088
 30
0.0
 11
47.513759
 21
98.038520
 31
0.0
  0
LINE
  5
375
100
AcDbEntity
  8
Layer_1
 62
7
100
AcDbLine
 10
47.513759
 20
98.038520
 30
0.0
 11
47.639391
 21
98.044531
 31
0.0
  0
LINE
  5
376
100
AcDbEntity
  8
Layer_1
 62
7
100
AcDbLine
 10
47.639391
 20
98.044531
 30
0.0
 11
47.740982
 21
98.072940
 31
0.0
  0
LINE
  5
377
100
AcDbEntity
  8
Layer_1
 62
7
100
AcDbLine
 10
47.740982
 20
98.072940
 30
0.0
 11
47.558003
 21
98.564040
 31
0.0
  0
LINE
  5
378
100
AcDbEntity
  8
Layer_1
 62
7
100
AcDbLine
 10
47.558003
 20
98.564040
 30
0.0
 11
47.320578
 21
98.945230
 31
0.0
  0
LINE
  5
379
100
AcDbEntity
  8
Layer_1
 62
7
100
AcDbLine
 10
47.320578
 20
98.945230
 30
0.0
 11
46.922188
 21
99.048269
 31
0.0
  0
LINE
  5
37a
100
AcDbEntity
  8
Layer_1
 62
7
100
AcDbLine
 10
46.922188
 20
99.048269
 30
0.0
 11
46.192130
 21
98.928214
 31
0.0
  0
LINE
  5
37b
100
AcDbEntity
  8
Layer_1
 62
7
100
AcDbLine
 10
46.192130
 20
98.928214
 30
0.0
 11
45.998333
 21
98.436075
 31
0.0
  0
LINE
  5
37c
100
AcDbEntity
  8
Layer_1
 62
7
100
AcDbLine
 10
45.998333
 20
98.436075
 30
0.0
 11
46.567928
 21
97.810648
 31
0.0
  0
LINE
  5
37d
100
AcDbEntity
  8
Layer_1
 62
7
100
AcDbLine
 10
46.567928
 20
97.810648
 30
0.0
 11
47.369840
 21
97.932088
 31
0.0
  0
LINE
  5
37e
100
AcDbEntity
  8
Layer_1
 62
7
100
AcDbLine
 10
15.944565
 20
105.479591
 30
0.0
 11
16.274804
 21
106.316374
 31
0.0
  0
LINE
  5
37f
100
AcDbEntity
  8
Layer_1
 62
7
100
AcDbLine
 10
16.274804
 20
106.316374
 30
0.0
 11
15.921374
 21
107.066769
 31
0.0
  0
LINE
  5
380
100
AcDbEntity
  8
Layer_1
 62
7
100
AcDbLine
 10
15.921374
 20
107.066769
 30
0.0
 11
15.396764
 21
107.294994
 31
0.0
  0
LINE
  5
381
100
AcDbEntity
  8
Layer_1
 62
7
100
AcDbLine
 10
15.396764
 20
107.294994
 30
0.0
 11
14.732002
 21
107.098858
 31
0.0
  0
LINE
  5
382
100
AcDbEntity
  8
Layer_1
 62
7
100
AcDbLine
 10
14.732002
 20
107.098858
 30
0.0
 11
14.112856
 21
106.207228
 31
0.0
  0
LINE
  5
383
100
AcDbEntity
  8
Layer_1
 62
7
100
AcDbLine
 10
14.112856
 20
106.207228
 30
0.0
 11
14.643695
 21
105.323091
 31
0.0
  0
LINE
  5
384
100
AcDbEntity
  8
Layer_1
 62
7
100
AcDbLine
 10
14.643695
 20
105.323091
 30
0.0
 11
15.359211
 21
105.186213
 31
0.0
  0
LINE
  5
385
100
AcDbEntity
  8
Layer_1
 62
7
100
AcDbLine
 10
15.359211
 20
105.186213
 30
0.0
 11
15.944565
 21
105.479591
 31
0.0
  0
LINE
  5
386
100
AcDbEntity
  8
Layer_1
 62
7
100
AcDbLine
 10
187.296741
 20
148.251297
 30
0.0
 11
187.596207
 21
148.950303
 31
0.0
  0
LINE
  5
387
100
AcDbEntity
  8
Layer_1
 62
7
100
AcDbLine
 10
187.596207
 20
148.950303
 30
0.0
 11
187.278538
 21
149.723250
 31
0.0
  0
LINE
  5
388
100
AcDbEntity
  8
Layer_1
 62
7
100
AcDbLine
 10
187.278538
 20
149.723250
 30
0.0
 11
186.929677
 21
149.927079
 31
0.0
  0
LINE
  5
389
100
AcDbEntity
  8
Layer_1
 62
7
100
AcDbLine
 10
186.929677
 20
149.927079
 30
0.0
 11
186.357788
 21
149.846341
 31
0.0
  0
LINE
  5
38a
100
AcDbEntity
  8
Layer_1
 62
7
100
AcDbLine
 10
186.357788
 20
149.846341
 30
0.0
 11
185.576012
 21
149.554061
 31
0.0
  0
LINE
  5
38b
100
AcDbEntity
  8
Layer_1
 62
7
100
AcDbLine
 10
185.576012
 20
149.554061
 30
0.0
 11
185.419994
 21
148.953695
 31
0.0
  0
LINE
  5
38c
100
AcDbEntity
  8
Layer_1
 62
7
100
AcDbLine
 10
185.419994
 20
148.953695
 30
0.0
 11
185.672990
 21
148.273483
 31
0.0
  0
LINE
  5
38d
100
AcDbEntity
  8
Layer_1
 62
7
100
AcDbLine
 10
185.672990
 20
148.273483
 30
0.0
 11
186.499494
 21
148.065268
 31
0.0
  0
LINE
  5
38e
100
AcDbEntity
  8
Layer_1
 62
7
100
AcDbLine
 10
186.499494
 20
148.065268
 30
0.0
 11
186.946114
 21
148.119912
 31
0.0
  0
LINE
  5
38f
100
AcDbEntity
  8
Layer_1
 62
7
100
AcDbLine
 10
186.946114
 20
148.119912
 30
0.0
 11
187.296735
 21
148.251297
 31
0.0
  0
LINE
  5
390
100
AcDbEntity
  8
Layer_1
 62
7
100
AcDbLine
 10
187.296735
 20
148.251297
 30
0.0
 11
187.296738
 21
148.251297
 31
0.0
  0
LINE
  5
391
100
AcDbEntity
  8
Layer_1
 62
7
100
AcDbLine
 10
187.296738
 20
148.251297
 30
0.0
 11
187.296741
 21
148.251297
 31
0.0
  0
LINE
  5
392
100
AcDbEntity
  8
Layer_1
 62
7
100
AcDbLine
 10
160.106665
 20
156.953270
 30
0.0
 11
160.638696
 21
157.204608
 31
0.0
  0
LINE
  5
393
100
AcDbEntity
  8
Layer_1
 62
7
100
AcDbLine
 10
160.638696
 20
157.204608
 30
0.0
 11
161.058657
 21
157.377173
 31
0.0
  0
LINE
  5
394
100
AcDbEntity
  8
Layer_1
 62
7
100
AcDbLine
 10
161.058657
 20
157.377173
 30
0.0
 11
161.905298
 21
158.145472
 31
0.0
  0
LINE
  5
395
100
AcDbEntity
  8
Layer_1
 62
7
100
AcDbLine
 10
161.905298
 20
158.145472
 30
0.0
 11
162.603093
 21
159.358382
 31
0.0
  0
LINE
  5
396
100
AcDbEntity
  8
Layer_1
 62
7
100
AcDbLine
 10
162.603093
 20
159.358382
 30
0.0
 11
162.894385
 21
160.746153
 31
0.0
  0
LINE
  5
397
100
AcDbEntity
  8
Layer_1
 62
7
100
AcDbLine
 10
162.894385
 20
160.746153
 30
0.0
 11
162.703993
 21
162.133052
 31
0.0
  0
LINE
  5
398
100
AcDbEntity
  8
Layer_1
 62
7
100
AcDbLine
 10
162.703993
 20
162.133052
 30
0.0
 11
161.977996
 21
163.826383
 31
0.0
  0
LINE
  5
399
100
AcDbEntity
  8
Layer_1
 62
7
100
AcDbLine
 10
161.977996
 20
163.826383
 30
0.0
 11
160.480948
 21
164.784649
 31
0.0
  0
LINE
  5
39a
100
AcDbEntity
  8
Layer_1
 62
7
100
AcDbLine
 10
160.480948
 20
164.784649
 30
0.0
 11
158.768508
 21
165.312607
 31
0.0
  0
LINE
  5
39b
100
AcDbEntity
  8
Layer_1
 62
7
100
AcDbLine
 10
158.768508
 20
165.312607
 30
0.0
 11
157.099000
 21
165.161932
 31
0.0
  0
LINE
  5
39c
100
AcDbEntity
  8
Layer_1
 62
7
100
AcDbLine
 10
157.099000
 20
165.161932
 30
0.0
 11
156.574874
 21
165.049082
 31
0.0
  0
LINE
  5
39d
100
AcDbEntity
  8
Layer_1
 62
7
100
AcDbLine
 10
156.574874
 20
165.049082
 30
0.0
 11
156.117279
 21
164.958881
 31
0.0
  0
LINE
  5
39e
100
AcDbEntity
  8
Layer_1
 62
7
100
AcDbLine
 10
156.117279
 20
164.958881
 30
0.0
 11
155.847398
 21
164.876343
 31
0.0
  0
LINE
  5
39f
100
AcDbEntity
  8
Layer_1
 62
7
100
AcDbLine
 10
155.847398
 20
164.876343
 30
0.0
 11
155.774619
 21
164.781922
 31
0.0
  0
LINE
  5
3a0
100
AcDbEntity
  8
Layer_1
 62
7
100
AcDbLine
 10
155.774619
 20
164.781922
 30
0.0
 11
155.766914
 21
164.729274
 31
0.0
  0
LINE
  5
3a1
100
AcDbEntity
  8
Layer_1
 62
7
100
AcDbLine
 10
155.766914
 20
164.729274
 30
0.0
 11
155.653497
 21
164.747167
 31
0.0
  0
LINE
  5
3a2
100
AcDbEntity
  8
Layer_1
 62
7
100
AcDbLine
 10
155.653497
 20
164.747167
 30
0.0
 11
154.829236
 21
164.254889
 31
0.0
  0
LINE
  5
3a3
100
AcDbEntity
  8
Layer_1
 62
7
100
AcDbLine
 10
154.829236
 20
164.254889
 30
0.0
 11
153.912138
 21
163.100645
 31
0.0
  0
LINE
  5
3a4
100
AcDbEntity
  8
Layer_1
 62
7
100
AcDbLine
 10
153.912138
 20
163.100645
 30
0.0
 11
153.452000
 21
161.733431
 31
0.0
  0
LINE
  5
3a5
100
AcDbEntity
  8
Layer_1
 62
7
100
AcDbLine
 10
153.452000
 20
161.733431
 30
0.0
 11
153.372018
 21
160.446148
 31
0.0
  0
LINE
  5
3a6
100
AcDbEntity
  8
Layer_1
 62
7
100
AcDbLine
 10
153.372018
 20
160.446148
 30
0.0
 11
154.619198
 21
158.024769
 31
0.0
  0
LINE
  5
3a7
100
AcDbEntity
  8
Layer_1
 62
7
100
AcDbLine
 10
154.619198
 20
158.024769
 30
0.0
 11
157.060708
 21
156.673325
 31
0.0
  0
LINE
  5
3a8
100
AcDbEntity
  8
Layer_1
 62
7
100
AcDbLine
 10
157.060708
 20
156.673325
 30
0.0
 11
158.647598
 21
156.607037
 31
0.0
  0
LINE
  5
3a9
100
AcDbEntity
  8
Layer_1
 62
7
100
AcDbLine
 10
158.647598
 20
156.607037
 30
0.0
 11
160.106665
 21
156.953270
 31
0.0
  0
LINE
  5
3aa
100
AcDbEntity
  8
Layer_1
 62
7
100
AcDbLine
 10
34.790834
 20
163.918097
 30
0.0
 11
34.987428
 21
164.604546
 31
0.0
  0
LINE
  5
3ab
100
AcDbEntity
  8
Layer_1
 62
7
100
AcDbLine
 10
34.987428
 20
164.604546
 30
0.0
 11
34.698731
 21
165.303698
 31
0.0
  0
LINE
  5
3ac
100
AcDbEntity
  8
Layer_1
 62
7
100
AcDbLine
 10
34.698731
 20
165.303698
 30
0.0
 11
33.679751
 21
165.419750
 31
0.0
  0
LINE
  5
3ad
100
AcDbEntity
  8
Layer_1
 62
7
100
AcDbLine
 10
33.679751
 20
165.419750
 30
0.0
 11
33.020000
 21
164.614124
 31
0.0
  0
LINE
  5
3ae
100
AcDbEntity
  8
Layer_1
 62
7
100
AcDbLine
 10
33.020000
 20
164.614124
 30
0.0
 11
33.689696
 21
163.665206
 31
0.0
  0
LINE
  5
3af
100
AcDbEntity
  8
Layer_1
 62
7
100
AcDbLine
 10
33.689696
 20
163.665206
 30
0.0
 11
34.790834
 21
163.918097
 31
0.0
  0
LINE
  5
3b0
100
AcDbEntity
  8
Layer_1
 62
7
100
AcDbLine
 10
109.370447
 20
174.300564
 30
0.0
 11
110.039026
 21
174.464002
 31
0.0
  0
LINE
  5
3b1
100
AcDbEntity
  8
Layer_1
 62
7
100
AcDbLine
 10
110.039026
 20
174.464002
 30
0.0
 11
110.341833
 21
174.599324
 31
0.0
  0
LINE
  5
3b2
100
AcDbEntity
  8
Layer_1
 62
7
100
AcDbLine
 10
110.341833
 20
174.599324
 30
0.0
 11
110.463375
 21
174.680757
 31
0.0
  0
LINE
  5
3b3
100
AcDbEntity
  8
Layer_1
 62
7
100
AcDbLine
 10
110.463375
 20
174.680757
 30
0.0
 11
110.696144
 21
174.714626
 31
0.0
  0
LINE
  5
3b4
100
AcDbEntity
  8
Layer_1
 62
7
100
AcDbLine
 10
110.696144
 20
174.714626
 30
0.0
 11
113.025067
 21
175.916856
 31
0.0
  0
LINE
  5
3b5
100
AcDbEntity
  8
Layer_1
 62
7
100
AcDbLine
 10
113.025067
 20
175.916856
 30
0.0
 11
115.063603
 21
178.239988
 31
0.0
  0
LINE
  5
3b6
100
AcDbEntity
  8
Layer_1
 62
7
100
AcDbLine
 10
115.063603
 20
178.239988
 30
0.0
 11
115.801129
 21
180.130070
 31
0.0
  0
LINE
  5
3b7
100
AcDbEntity
  8
Layer_1
 62
7
100
AcDbLine
 10
115.801129
 20
180.130070
 30
0.0
 11
115.985648
 21
182.017487
 31
0.0
  0
LINE
  5
3b8
100
AcDbEntity
  8
Layer_1
 62
7
100
AcDbLine
 10
115.985648
 20
182.017487
 30
0.0
 11
115.938695
 21
183.133913
 31
0.0
  0
LINE
  5
3b9
100
AcDbEntity
  8
Layer_1
 62
7
100
AcDbLine
 10
115.938695
 20
183.133913
 30
0.0
 11
115.830220
 21
183.869797
 31
0.0
  0
LINE
  5
3ba
100
AcDbEntity
  8
Layer_1
 62
7
100
AcDbLine
 10
115.830220
 20
183.869797
 30
0.0
 11
115.352432
 21
185.127345
 31
0.0
  0
LINE
  5
3bb
100
AcDbEntity
  8
Layer_1
 62
7
100
AcDbLine
 10
115.352432
 20
185.127345
 30
0.0
 11
114.940952
 21
185.888236
 31
0.0
  0
LINE
  5
3bc
100
AcDbEntity
  8
Layer_1
 62
7
100
AcDbLine
 10
114.940952
 20
185.888236
 30
0.0
 11
114.744980
 21
186.144795
 31
0.0
  0
LINE
  5
3bd
100
AcDbEntity
  8
Layer_1
 62
7
100
AcDbLine
 10
114.744980
 20
186.144795
 30
0.0
 11
114.565930
 21
186.426002
 31
0.0
  0
LINE
  5
3be
100
AcDbEntity
  8
Layer_1
 62
7
100
AcDbLine
 10
114.565930
 20
186.426002
 30
0.0
 11
113.435429
 21
187.524656
 31
0.0
  0
LINE
  5
3bf
100
AcDbEntity
  8
Layer_1
 62
7
100
AcDbLine
 10
113.435429
 20
187.524656
 30
0.0
 11
112.012341
 21
188.485499
 31
0.0
  0
LINE
  5
3c0
100
AcDbEntity
  8
Layer_1
 62
7
100
AcDbLine
 10
112.012341
 20
188.485499
 30
0.0
 11
111.490543
 21
188.703648
 31
0.0
  0
LINE
  5
3c1
100
AcDbEntity
  8
Layer_1
 62
7
100
AcDbLine
 10
111.490543
 20
188.703648
 30
0.0
 11
111.036213
 21
188.892514
 31
0.0
  0
LINE
  5
3c2
100
AcDbEntity
  8
Layer_1
 62
7
100
AcDbLine
 10
111.036213
 20
188.892514
 30
0.0
 11
107.276474
 21
189.566489
 31
0.0
  0
LINE
  5
3c3
100
AcDbEntity
  8
Layer_1
 62
7
100
AcDbLine
 10
107.276474
 20
189.566489
 30
0.0
 11
99.187000
 21
190.551769
 31
0.0
  0
LINE
  5
3c4
100
AcDbEntity
  8
Layer_1
 62
7
100
AcDbLine
 10
99.187000
 20
190.551769
 30
0.0
 11
97.841991
 21
190.709636
 31
0.0
  0
LINE
  5
3c5
100
AcDbEntity
  8
Layer_1
 62
7
100
AcDbLine
 10
97.841991
 20
190.709636
 30
0.0
 11
96.837500
 21
190.844555
 31
0.0
  0
LINE
  5
3c6
100
AcDbEntity
  8
Layer_1
 62
7
100
AcDbLine
 10
96.837500
 20
190.844555
 30
0.0
 11
95.758398
 21
190.984458
 31
0.0
  0
LINE
  5
3c7
100
AcDbEntity
  8
Layer_1
 62
7
100
AcDbLine
 10
95.758398
 20
190.984458
 30
0.0
 11
94.234000
 21
191.154305
 31
0.0
  0
LINE
  5
3c8
100
AcDbEntity
  8
Layer_1
 62
7
100
AcDbLine
 10
94.234000
 20
191.154305
 30
0.0
 11
90.325465
 21
191.590973
 31
0.0
  0
LINE
  5
3c9
100
AcDbEntity
  8
Layer_1
 62
7
100
AcDbLine
 10
90.325465
 20
191.590973
 30
0.0
 11
87.943673
 21
191.912582
 31
0.0
  0
LINE
  5
3ca
100
AcDbEntity
  8
Layer_1
 62
7
100
AcDbLine
 10
87.943673
 20
191.912582
 30
0.0
 11
87.180804
 21
192.034943
 31
0.0
  0
LINE
  5
3cb
100
AcDbEntity
  8
Layer_1
 62
7
100
AcDbLine
 10
87.180804
 20
192.034943
 30
0.0
 11
86.233000
 21
192.165078
 31
0.0
  0
LINE
  5
3cc
100
AcDbEntity
  8
Layer_1
 62
7
100
AcDbLine
 10
86.233000
 20
192.165078
 30
0.0
 11
85.265418
 21
192.291150
 31
0.0
  0
LINE
  5
3cd
100
AcDbEntity
  8
Layer_1
 62
7
100
AcDbLine
 10
85.265418
 20
192.291150
 30
0.0
 11
84.455000
 21
192.403742
 31
0.0
  0
LINE
  5
3ce
100
AcDbEntity
  8
Layer_1
 62
7
100
AcDbLine
 10
84.455000
 20
192.403742
 30
0.0
 11
83.569968
 21
192.515358
 31
0.0
  0
LINE
  5
3cf
100
AcDbEntity
  8
Layer_1
 62
7
100
AcDbLine
 10
83.569968
 20
192.515358
 30
0.0
 11
82.423000
 21
192.639070
 31
0.0
  0
LINE
  5
3d0
100
AcDbEntity
  8
Layer_1
 62
7
100
AcDbLine
 10
82.423000
 20
192.639070
 30
0.0
 11
80.599003
 21
192.837969
 31
0.0
  0
LINE
  5
3d1
100
AcDbEntity
  8
Layer_1
 62
7
100
AcDbLine
 10
80.599003
 20
192.837969
 30
0.0
 11
78.359000
 21
193.125985
 31
0.0
  0
LINE
  5
3d2
100
AcDbEntity
  8
Layer_1
 62
7
100
AcDbLine
 10
78.359000
 20
193.125985
 30
0.0
 11
76.843334
 21
193.310793
 31
0.0
  0
LINE
  5
3d3
100
AcDbEntity
  8
Layer_1
 62
7
100
AcDbLine
 10
76.843334
 20
193.310793
 30
0.0
 11
74.358500
 21
193.599616
 31
0.0
  0
LINE
  5
3d4
100
AcDbEntity
  8
Layer_1
 62
7
100
AcDbLine
 10
74.358500
 20
193.599616
 30
0.0
 11
71.948277
 21
193.888838
 31
0.0
  0
LINE
  5
3d5
100
AcDbEntity
  8
Layer_1
 62
7
100
AcDbLine
 10
71.948277
 20
193.888838
 30
0.0
 11
70.612000
 21
194.074599
 31
0.0
  0
LINE
  5
3d6
100
AcDbEntity
  8
Layer_1
 62
7
100
AcDbLine
 10
70.612000
 20
194.074599
 30
0.0
 11
69.667439
 21
194.208977
 31
0.0
  0
LINE
  5
3d7
100
AcDbEntity
  8
Layer_1
 62
7
100
AcDbLine
 10
69.667439
 20
194.208977
 30
0.0
 11
68.199000
 21
194.374658
 31
0.0
  0
LINE
  5
3d8
100
AcDbEntity
  8
Layer_1
 62
7
100
AcDbLine
 10
68.199000
 20
194.374658
 30
0.0
 11
66.693257
 21
194.539865
 31
0.0
  0
LINE
  5
3d9
100
AcDbEntity
  8
Layer_1
 62
7
100
AcDbLine
 10
66.693257
 20
194.539865
 30
0.0
 11
65.659000
 21
194.673105
 31
0.0
  0
LINE
  5
3da
100
AcDbEntity
  8
Layer_1
 62
7
100
AcDbLine
 10
65.659000
 20
194.673105
 30
0.0
 11
64.727650
 21
194.769580
 31
0.0
  0
LINE
  5
3db
100
AcDbEntity
  8
Layer_1
 62
7
100
AcDbLine
 10
64.727650
 20
194.769580
 30
0.0
 11
63.469317
 21
194.846398
 31
0.0
  0
LINE
  5
3dc
100
AcDbEntity
  8
Layer_1
 62
7
100
AcDbLine
 10
63.469317
 20
194.846398
 30
0.0
 11
61.902896
 21
194.951182
 31
0.0
  0
LINE
  5
3dd
100
AcDbEntity
  8
Layer_1
 62
7
100
AcDbLine
 10
61.902896
 20
194.951182
 30
0.0
 11
60.230817
 21
195.114893
 31
0.0
  0
LINE
  5
3de
100
AcDbEntity
  8
Layer_1
 62
7
100
AcDbLine
 10
60.230817
 20
195.114893
 30
0.0
 11
58.745851
 21
195.261231
 31
0.0
  0
LINE
  5
3df
100
AcDbEntity
  8
Layer_1
 62
7
100
AcDbLine
 10
58.745851
 20
195.261231
 30
0.0
 11
57.629290
 21
195.324245
 31
0.0
  0
LINE
  5
3e0
100
AcDbEntity
  8
Layer_1
 62
7
100
AcDbLine
 10
57.629290
 20
195.324245
 30
0.0
 11
57.089686
 21
195.347839
 31
0.0
  0
LINE
  5
3e1
100
AcDbEntity
  8
Layer_1
 62
7
100
AcDbLine
 10
57.089686
 20
195.347839
 30
0.0
 11
56.991871
 21
195.399472
 31
0.0
  0
LINE
  5
3e2
100
AcDbEntity
  8
Layer_1
 62
7
100
AcDbLine
 10
56.991871
 20
195.399472
 30
0.0
 11
56.156222
 21
195.613619
 31
0.0
  0
LINE
  5
3e3
100
AcDbEntity
  8
Layer_1
 62
7
100
AcDbLine
 10
56.156222
 20
195.613619
 30
0.0
 11
54.345132
 21
195.670272
 31
0.0
  0
LINE
  5
3e4
100
AcDbEntity
  8
Layer_1
 62
7
100
AcDbLine
 10
54.345132
 20
195.670272
 30
0.0
 11
53.434728
 21
195.504868
 31
0.0
  0
LINE
  5
3e5
100
AcDbEntity
  8
Layer_1
 62
7
100
AcDbLine
 10
53.434728
 20
195.504868
 30
0.0
 11
53.618254
 21
195.376877
 31
0.0
  0
LINE
  5
3e6
100
AcDbEntity
  8
Layer_1
 62
7
100
AcDbLine
 10
53.618254
 20
195.376877
 30
0.0
 11
53.832074
 21
195.354073
 31
0.0
  0
LINE
  5
3e7
100
AcDbEntity
  8
Layer_1
 62
7
100
AcDbLine
 10
53.832074
 20
195.354073
 30
0.0
 11
53.594011
 21
195.269285
 31
0.0
  0
LINE
  5
3e8
100
AcDbEntity
  8
Layer_1
 62
7
100
AcDbLine
 10
53.594011
 20
195.269285
 30
0.0
 11
53.232081
 21
195.198211
 31
0.0
  0
LINE
  5
3e9
100
AcDbEntity
  8
Layer_1
 62
7
100
AcDbLine
 10
53.232081
 20
195.198211
 30
0.0
 11
52.807757
 21
195.161694
 31
0.0
  0
LINE
  5
3ea
100
AcDbEntity
  8
Layer_1
 62
7
100
AcDbLine
 10
52.807757
 20
195.161694
 30
0.0
 11
52.453642
 21
195.118178
 31
0.0
  0
LINE
  5
3eb
100
AcDbEntity
  8
Layer_1
 62
7
100
AcDbLine
 10
52.453642
 20
195.118178
 30
0.0
 11
52.260511
 21
195.030277
 31
0.0
  0
LINE
  5
3ec
100
AcDbEntity
  8
Layer_1
 62
7
100
AcDbLine
 10
52.260511
 20
195.030277
 30
0.0
 11
52.112700
 21
194.945879
 31
0.0
  0
LINE
  5
3ed
100
AcDbEntity
  8
Layer_1
 62
7
100
AcDbLine
 10
52.112700
 20
194.945879
 30
0.0
 11
51.867548
 21
194.910773
 31
0.0
  0
LINE
  5
3ee
100
AcDbEntity
  8
Layer_1
 62
7
100
AcDbLine
 10
51.867548
 20
194.910773
 30
0.0
 11
51.259198
 21
194.724235
 31
0.0
  0
LINE
  5
3ef
100
AcDbEntity
  8
Layer_1
 62
7
100
AcDbLine
 10
51.259198
 20
194.724235
 30
0.0
 11
50.993672
 21
194.427942
 31
0.0
  0
LINE
  5
3f0
100
AcDbEntity
  8
Layer_1
 62
7
100
AcDbLine
 10
50.993672
 20
194.427942
 30
0.0
 11
50.995366
 21
194.333205
 31
0.0
  0
LINE
  5
3f1
100
AcDbEntity
  8
Layer_1
 62
7
100
AcDbLine
 10
50.995366
 20
194.333205
 30
0.0
 11
50.909333
 21
194.243295
 31
0.0
  0
LINE
  5
3f2
100
AcDbEntity
  8
Layer_1
 62
7
100
AcDbLine
 10
50.909333
 20
194.243295
 30
0.0
 11
50.824249
 21
194.216484
 31
0.0
  0
LINE
  5
3f3
100
AcDbEntity
  8
Layer_1
 62
7
100
AcDbLine
 10
50.824249
 20
194.216484
 30
0.0
 11
50.851257
 21
194.294795
 31
0.0
  0
LINE
  5
3f4
100
AcDbEntity
  8
Layer_1
 62
7
100
AcDbLine
 10
50.851257
 20
194.294795
 30
0.0
 11
50.875754
 21
194.392235
 31
0.0
  0
LINE
  5
3f5
100
AcDbEntity
  8
Layer_1
 62
7
100
AcDbLine
 10
50.875754
 20
194.392235
 30
0.0
 11
50.807386
 21
194.432762
 31
0.0
  0
LINE
  5
3f6
100
AcDbEntity
  8
Layer_1
 62
7
100
AcDbLine
 10
50.807386
 20
194.432762
 30
0.0
 11
50.712398
 21
194.370230
 31
0.0
  0
LINE
  5
3f7
100
AcDbEntity
  8
Layer_1
 62
7
100
AcDbLine
 10
50.712398
 20
194.370230
 30
0.0
 11
50.672890
 21
194.219890
 31
0.0
  0
LINE
  5
3f8
100
AcDbEntity
  8
Layer_1
 62
7
100
AcDbLine
 10
50.672890
 20
194.219890
 30
0.0
 11
50.444849
 21
193.860023
 31
0.0
  0
LINE
  5
3f9
100
AcDbEntity
  8
Layer_1
 62
7
100
AcDbLine
 10
50.444849
 20
193.860023
 30
0.0
 11
49.896578
 21
193.293736
 31
0.0
  0
LINE
  5
3fa
100
AcDbEntity
  8
Layer_1
 62
7
100
AcDbLine
 10
49.896578
 20
193.293736
 30
0.0
 11
49.286600
 21
192.667115
 31
0.0
  0
LINE
  5
3fb
100
AcDbEntity
  8
Layer_1
 62
7
100
AcDbLine
 10
49.286600
 20
192.667115
 30
0.0
 11
48.910200
 21
192.162191
 31
0.0
  0
LINE
  5
3fc
100
AcDbEntity
  8
Layer_1
 62
7
100
AcDbLine
 10
48.910200
 20
192.162191
 30
0.0
 11
48.699510
 21
191.779029
 31
0.0
  0
LINE
  5
3fd
100
AcDbEntity
  8
Layer_1
 62
7
100
AcDbLine
 10
48.699510
 20
191.779029
 30
0.0
 11
48.487945
 21
191.445166
 31
0.0
  0
LINE
  5
3fe
100
AcDbEntity
  8
Layer_1
 62
7
100
AcDbLine
 10
48.487945
 20
191.445166
 30
0.0
 11
47.980541
 21
190.126104
 31
0.0
  0
LINE
  5
3ff
100
AcDbEntity
  8
Layer_1
 62
7
100
AcDbLine
 10
47.980541
 20
190.126104
 30
0.0
 11
47.665282
 21
188.328010
 31
0.0
  0
LINE
  5
400
100
AcDbEntity
  8
Layer_1
 62
7
100
AcDbLine
 10
47.665282
 20
188.328010
 30
0.0
 11
47.772924
 21
186.536226
 31
0.0
  0
LINE
  5
401
100
AcDbEntity
  8
Layer_1
 62
7
100
AcDbLine
 10
47.772924
 20
186.536226
 30
0.0
 11
48.141001
 21
185.405506
 31
0.0
  0
LINE
  5
402
100
AcDbEntity
  8
Layer_1
 62
7
100
AcDbLine
 10
48.141001
 20
185.405506
 30
0.0
 11
48.224965
 21
185.285909
 31
0.0
  0
LINE
  5
403
100
AcDbEntity
  8
Layer_1
 62
7
100
AcDbLine
 10
48.224965
 20
185.285909
 30
0.0
 11
48.259890
 21
185.095459
 31
0.0
  0
LINE
  5
404
100
AcDbEntity
  8
Layer_1
 62
7
100
AcDbLine
 10
48.259890
 20
185.095459
 30
0.0
 11
48.893191
 21
183.946897
 31
0.0
  0
LINE
  5
405
100
AcDbEntity
  8
Layer_1
 62
7
100
AcDbLine
 10
48.893191
 20
183.946897
 30
0.0
 11
50.147886
 21
182.498182
 31
0.0
  0
LINE
  5
406
100
AcDbEntity
  8
Layer_1
 62
7
100
AcDbLine
 10
50.147886
 20
182.498182
 30
0.0
 11
51.445239
 21
181.519326
 31
0.0
  0
LINE
  5
407
100
AcDbEntity
  8
Layer_1
 62
7
100
AcDbLine
 10
51.445239
 20
181.519326
 30
0.0
 11
53.149390
 21
180.828767
 31
0.0
  0
LINE
  5
408
100
AcDbEntity
  8
Layer_1
 62
7
100
AcDbLine
 10
53.149390
 20
180.828767
 30
0.0
 11
54.807276
 21
180.413915
 31
0.0
  0
LINE
  5
409
100
AcDbEntity
  8
Layer_1
 62
7
100
AcDbLine
 10
54.807276
 20
180.413915
 30
0.0
 11
57.721390
 21
180.036287
 31
0.0
  0
LINE
  5
40a
100
AcDbEntity
  8
Layer_1
 62
7
100
AcDbLine
 10
57.721390
 20
180.036287
 30
0.0
 11
59.096165
 21
179.876236
 31
0.0
  0
LINE
  5
40b
100
AcDbEntity
  8
Layer_1
 62
7
100
AcDbLine
 10
59.096165
 20
179.876236
 30
0.0
 11
60.261390
 21
179.733488
 31
0.0
  0
LINE
  5
40c
100
AcDbEntity
  8
Layer_1
 62
7
100
AcDbLine
 10
60.261390
 20
179.733488
 30
0.0
 11
61.300106
 21
179.608718
 31
0.0
  0
LINE
  5
40d
100
AcDbEntity
  8
Layer_1
 62
7
100
AcDbLine
 10
61.300106
 20
179.608718
 30
0.0
 11
62.370719
 21
179.491889
 31
0.0
  0
LINE
  5
40e
100
AcDbEntity
  8
Layer_1
 62
7
100
AcDbLine
 10
62.370719
 20
179.491889
 30
0.0
 11
63.194782
 21
179.395993
 31
0.0
  0
LINE
  5
40f
100
AcDbEntity
  8
Layer_1
 62
7
100
AcDbLine
 10
63.194782
 20
179.395993
 30
0.0
 11
63.640719
 21
179.321546
 31
0.0
  0
LINE
  5
410
100
AcDbEntity
  8
Layer_1
 62
7
100
AcDbLine
 10
63.640719
 20
179.321546
 30
0.0
 11
64.119901
 21
179.246012
 31
0.0
  0
LINE
  5
411
100
AcDbEntity
  8
Layer_1
 62
7
100
AcDbLine
 10
64.119901
 20
179.246012
 30
0.0
 11
65.023890
 21
179.147502
 31
0.0
  0
LINE
  5
412
100
AcDbEntity
  8
Layer_1
 62
7
100
AcDbLine
 10
65.023890
 20
179.147502
 30
0.0
 11
69.576524
 21
178.626892
 31
0.0
  0
LINE
  5
413
100
AcDbEntity
  8
Layer_1
 62
7
100
AcDbLine
 10
69.576524
 20
178.626892
 30
0.0
 11
75.945890
 21
177.822660
 31
0.0
  0
LINE
  5
414
100
AcDbEntity
  8
Layer_1
 62
7
100
AcDbLine
 10
75.945890
 20
177.822660
 30
0.0
 11
77.252799
 21
177.664252
 31
0.0
  0
LINE
  5
415
100
AcDbEntity
  8
Layer_1
 62
7
100
AcDbLine
 10
77.252799
 20
177.664252
 30
0.0
 11
79.057390
 21
177.459607
 31
0.0
  0
LINE
  5
416
100
AcDbEntity
  8
Layer_1
 62
7
100
AcDbLine
 10
79.057390
 20
177.459607
 30
0.0
 11
81.029858
 21
177.238102
 31
0.0
  0
LINE
  5
417
100
AcDbEntity
  8
Layer_1
 62
7
100
AcDbLine
 10
81.029858
 20
177.238102
 30
0.0
 11
82.740390
 21
177.039149
 31
0.0
  0
LINE
  5
418
100
AcDbEntity
  8
Layer_1
 62
7
100
AcDbLine
 10
82.740390
 20
177.039149
 30
0.0
 11
84.245738
 21
176.859380
 31
0.0
  0
LINE
  5
419
100
AcDbEntity
  8
Layer_1
 62
7
100
AcDbLine
 10
84.245738
 20
176.859380
 30
0.0
 11
85.724890
 21
176.683993
 31
0.0
  0
LINE
  5
41a
100
AcDbEntity
  8
Layer_1
 62
7
100
AcDbLine
 10
85.724890
 20
176.683993
 30
0.0
 11
87.820500
 21
176.438857
 31
0.0
  0
LINE
  5
41b
100
AcDbEntity
  8
Layer_1
 62
7
100
AcDbLine
 10
87.820500
 20
176.438857
 30
0.0
 11
92.392390
 21
175.910667
 31
0.0
  0
LINE
  5
41c
100
AcDbEntity
  8
Layer_1
 62
7
100
AcDbLine
 10
92.392390
 20
175.910667
 30
0.0
 11
94.308899
 21
175.684226
 31
0.0
  0
LINE
  5
41d
100
AcDbEntity
  8
Layer_1
 62
7
100
AcDbLine
 10
94.308899
 20
175.684226
 30
0.0
 11
95.884890
 21
175.489665
 31
0.0
  0
LINE
  5
41e
100
AcDbEntity
  8
Layer_1
 62
7
100
AcDbLine
 10
95.884890
 20
175.489665
 30
0.0
 11
98.530997
 21
175.164277
 31
0.0
  0
LINE
  5
41f
100
AcDbEntity
  8
Layer_1
 62
7
100
AcDbLine
 10
98.530997
 20
175.164277
 30
0.0
 11
101.472890
 21
174.824442
 31
0.0
  0
LINE
  5
420
100
AcDbEntity
  8
Layer_1
 62
7
100
AcDbLine
 10
101.472890
 20
174.824442
 30
0.0
 11
102.477776
 21
174.707517
 31
0.0
  0
LINE
  5
421
100
AcDbEntity
  8
Layer_1
 62
7
100
AcDbLine
 10
102.477776
 20
174.707517
 30
0.0
 11
103.377890
 21
174.595215
 31
0.0
  0
LINE
  5
422
100
AcDbEntity
  8
Layer_1
 62
7
100
AcDbLine
 10
103.377890
 20
174.595215
 30
0.0
 11
107.327367
 21
174.162997
 31
0.0
  0
LINE
  5
423
100
AcDbEntity
  8
Layer_1
 62
7
100
AcDbLine
 10
107.327367
 20
174.162997
 30
0.0
 11
109.370337
 21
174.300567
 31
0.0
  0
LINE
  5
424
100
AcDbEntity
  8
Layer_1
 62
7
100
AcDbLine
 10
109.370337
 20
174.300567
 30
0.0
 11
109.370331
 21
174.300567
 31
0.0
  0
LINE
  5
425
100
AcDbEntity
  8
Layer_1
 62
7
100
AcDbLine
 10
109.370331
 20
174.300567
 30
0.0
 11
109.370447
 21
174.300564
 31
0.0
  0
LINE
  5
426
100
AcDbEntity
  8
Layer_1
 62
7
100
AcDbLine
 10
54.832250
 20
195.467936
 30
0.0
 11
54.991000
 21
195.492800
 31
0.0
  0
LINE
  5
427
100
AcDbEntity
  8
Layer_1
 62
7
100
AcDbLine
 10
54.991000
 20
195.492800
 30
0.0
 11
55.149750
 21
195.467936
 31
0.0
  0
LINE
  5
428
100
AcDbEntity
  8
Layer_1
 62
7
100
AcDbLine
 10
55.149750
 20
195.467936
 30
0.0
 11
55.168602
 21
195.425366
 31
0.0
  0
LINE
  5
429
100
AcDbEntity
  8
Layer_1
 62
7
100
AcDbLine
 10
55.168602
 20
195.425366
 30
0.0
 11
54.990997
 21
195.407670
 31
0.0
  0
LINE
  5
42a
100
AcDbEntity
  8
Layer_1
 62
7
100
AcDbLine
 10
54.990997
 20
195.407670
 30
0.0
 11
54.813395
 21
195.425366
 31
0.0
  0
LINE
  5
42b
100
AcDbEntity
  8
Layer_1
 62
7
100
AcDbLine
 10
54.813395
 20
195.425366
 30
0.0
 11
54.832250
 21
195.467936
 31
0.0
  0
LINE
  5
42c
100
AcDbEntity
  8
Layer_1
 62
7
100
AcDbLine
 10
120.878600
 20
179.877190
 30
0.0
 11
120.904226
 21
180.542820
 31
0.0
  0
LINE
  5
42d
100
AcDbEntity
  8
Layer_1
 62
7
100
AcDbLine
 10
120.904226
 20
180.542820
 30
0.0
 11
120.138845
 21
180.928826
 31
0.0
  0
LINE
  5
42e
100
AcDbEntity
  8
Layer_1
 62
7
100
AcDbLine
 10
120.138845
 20
180.928826
 30
0.0
 11
119.809762
 21
180.863983
 31
0.0
  0
LINE
  5
42f
100
AcDbEntity
  8
Layer_1
 62
7
100
AcDbLine
 10
119.809762
 20
180.863983
 30
0.0
 11
119.630845
 21
180.622285
 31
0.0
  0
LINE
  5
430
100
AcDbEntity
  8
Layer_1
 62
7
100
AcDbLine
 10
119.630845
 20
180.622285
 30
0.0
 11
119.531819
 21
180.208017
 31
0.0
  0
LINE
  5
431
100
AcDbEntity
  8
Layer_1
 62
7
100
AcDbLine
 10
119.531819
 20
180.208017
 30
0.0
 11
119.856239
 21
179.943902
 31
0.0
  0
LINE
  5
432
100
AcDbEntity
  8
Layer_1
 62
7
100
AcDbLine
 10
119.856239
 20
179.943902
 30
0.0
 11
120.442380
 21
179.745491
 31
0.0
  0
LINE
  5
433
100
AcDbEntity
  8
Layer_1
 62
7
100
AcDbLine
 10
120.442380
 20
179.745491
 30
0.0
 11
120.878600
 21
179.877190
 31
0.0
  0
LINE
  5
434
100
AcDbEntity
  8
Layer_1
 62
7
100
AcDbLine
 10
43.487111
 20
189.008121
 30
0.0
 11
43.628990
 21
189.124057
 31
0.0
  0
LINE
  5
435
100
AcDbEntity
  8
Layer_1
 62
7
100
AcDbLine
 10
43.628990
 20
189.124057
 30
0.0
 11
43.688000
 21
189.300943
 31
0.0
  0
LINE
  5
436
100
AcDbEntity
  8
Layer_1
 62
7
100
AcDbLine
 10
43.688000
 20
189.300943
 30
0.0
 11
43.749722
 21
189.489022
 31
0.0
  0
LINE
  5
437
100
AcDbEntity
  8
Layer_1
 62
7
100
AcDbLine
 10
43.749722
 20
189.489022
 30
0.0
 11
43.898120
 21
189.631874
 31
0.0
  0
LINE
  5
438
100
AcDbEntity
  8
Layer_1
 62
7
100
AcDbLine
 10
43.898120
 20
189.631874
 30
0.0
 11
44.023125
 21
189.952346
 31
0.0
  0
LINE
  5
439
100
AcDbEntity
  8
Layer_1
 62
7
100
AcDbLine
 10
44.023125
 20
189.952346
 30
0.0
 11
43.492414
 21
190.130623
 31
0.0
  0
LINE
  5
43a
100
AcDbEntity
  8
Layer_1
 62
7
100
AcDbLine
 10
43.492414
 20
190.130623
 30
0.0
 11
42.757005
 21
189.862339
 31
0.0
  0
LINE
  5
43b
100
AcDbEntity
  8
Layer_1
 62
7
100
AcDbLine
 10
42.757005
 20
189.862339
 30
0.0
 11
42.869702
 21
189.201180
 31
0.0
  0
LINE
  5
43c
100
AcDbEntity
  8
Layer_1
 62
7
100
AcDbLine
 10
42.869702
 20
189.201180
 30
0.0
 11
43.136741
 21
188.955551
 31
0.0
  0
LINE
  5
43d
100
AcDbEntity
  8
Layer_1
 62
7
100
AcDbLine
 10
43.136741
 20
188.955551
 30
0.0
 11
43.487111
 21
189.008121
 31
0.0
  0
LINE
  5
43e
100
AcDbEntity
  8
Layer_1
 62
7
100
AcDbLine
 10
114.250210
 20
205.158231
 30
0.0
 11
114.416321
 21
205.803300
 31
0.0
  0
LINE
  5
43f
100
AcDbEntity
  8
Layer_1
 62
7
100
AcDbLine
 10
114.416321
 20
205.803300
 30
0.0
 11
114.229298
 21
206.476059
 31
0.0
  0
LINE
  5
440
100
AcDbEntity
  8
Layer_1
 62
7
100
AcDbLine
 10
114.229298
 20
206.476059
 30
0.0
 11
113.303925
 21
206.678884
 31
0.0
  0
LINE
  5
441
100
AcDbEntity
  8
Layer_1
 62
7
100
AcDbLine
 10
113.303925
 20
206.678884
 30
0.0
 11
112.572600
 21
205.942205
 31
0.0
  0
LINE
  5
442
100
AcDbEntity
  8
Layer_1
 62
7
100
AcDbLine
 10
112.572600
 20
205.942205
 30
0.0
 11
112.549175
 21
205.581722
 31
0.0
  0
LINE
  5
443
100
AcDbEntity
  8
Layer_1
 62
7
100
AcDbLine
 10
112.549175
 20
205.581722
 30
0.0
 11
112.695180
 21
205.405172
 31
0.0
  0
LINE
  5
444
100
AcDbEntity
  8
Layer_1
 62
7
100
AcDbLine
 10
112.695180
 20
205.405172
 30
0.0
 11
112.841953
 21
205.276970
 31
0.0
  0
LINE
  5
445
100
AcDbEntity
  8
Layer_1
 62
7
100
AcDbLine
 10
112.841953
 20
205.276970
 30
0.0
 11
112.903003
 21
205.122417
 31
0.0
  0
LINE
  5
446
100
AcDbEntity
  8
Layer_1
 62
7
100
AcDbLine
 10
112.903003
 20
205.122417
 30
0.0
 11
113.494256
 21
204.938349
 31
0.0
  0
LINE
  5
447
100
AcDbEntity
  8
Layer_1
 62
7
100
AcDbLine
 10
113.494256
 20
204.938349
 30
0.0
 11
114.250210
 21
205.158231
 31
0.0
  0
LINE
  5
448
100
AcDbEntity
  8
Layer_1
 62
7
100
AcDbLine
 10
191.429095
 20
229.108396
 30
0.0
 11
191.882677
 21
229.488086
 31
0.0
  0
LINE
  5
449
100
AcDbEntity
  8
Layer_1
 62
7
100
AcDbLine
 10
191.882677
 20
229.488086
 30
0.0
 11
192.019961
 21
230.076540
 31
0.0
  0
LINE
  5
44a
100
AcDbEntity
  8
Layer_1
 62
7
100
AcDbLine
 10
192.019961
 20
230.076540
 30
0.0
 11
191.948057
 21
230.487605
 31
0.0
  0
LINE
  5
44b
100
AcDbEntity
  8
Layer_1
 62
7
100
AcDbLine
 10
191.948057
 20
230.487605
 30
0.0
 11
191.611250
 21
230.763240
 31
0.0
  0
LINE
  5
44c
100
AcDbEntity
  8
Layer_1
 62
7
100
AcDbLine
 10
191.611250
 20
230.763240
 30
0.0
 11
190.993923
 21
230.987019
 31
0.0
  0
LINE
  5
44d
100
AcDbEntity
  8
Layer_1
 62
7
100
AcDbLine
 10
190.993923
 20
230.987019
 30
0.0
 11
190.351639
 21
230.791806
 31
0.0
  0
LINE
  5
44e
100
AcDbEntity
  8
Layer_1
 62
7
100
AcDbLine
 10
190.351639
 20
230.791806
 30
0.0
 11
189.827174
 21
230.428651
 31
0.0
  0
LINE
  5
44f
100
AcDbEntity
  8
Layer_1
 62
7
100
AcDbLine
 10
189.827174
 20
230.428651
 30
0.0
 11
189.787505
 21
229.872403
 31
0.0
  0
LINE
  5
450
100
AcDbEntity
  8
Layer_1
 62
7
100
AcDbLine
 10
189.787505
 20
229.872403
 30
0.0
 11
190.366286
 21
229.064886
 31
0.0
  0
LINE
  5
451
100
AcDbEntity
  8
Layer_1
 62
7
100
AcDbLine
 10
190.366286
 20
229.064886
 30
0.0
 11
191.429092
 21
229.108396
 31
0.0
  0
LINE
  5
452
100
AcDbEntity
  8
Layer_1
 62
7
100
AcDbLine
 10
191.429092
 20
229.108396
 30
0.0
 11
191.429095
 21
229.108396
 31
0.0
  0
LINE
  5
453
100
AcDbEntity
  8
Layer_1
 62
7
100
AcDbLine
 10
34.209372
 20
241.167438
 30
0.0
 11
34.481431
 21
241.477177
 31
0.0
  0
LINE
  5
454
100
AcDbEntity
  8
Layer_1
 62
7
100
AcDbLine
 10
34.481431
 20
241.477177
 30
0.0
 11
34.544000
 21
241.994699
 31
0.0
  0
LINE
  5
455
100
AcDbEntity
  8
Layer_1
 62
7
100
AcDbLine
 10
34.544000
 20
241.994699
 30
0.0
 11
34.481747
 21
242.512515
 31
0.0
  0
LINE
  5
456
100
AcDbEntity
  8
Layer_1
 62
7
100
AcDbLine
 10
34.481747
 20
242.512515
 30
0.0
 11
34.099060
 21
242.712453
 31
0.0
  0
LINE
  5
457
100
AcDbEntity
  8
Layer_1
 62
7
100
AcDbLine
 10
34.099060
 20
242.712453
 30
0.0
 11
33.282726
 21
242.763648
 31
0.0
  0
LINE
  5
458
100
AcDbEntity
  8
Layer_1
 62
7
100
AcDbLine
 10
33.282726
 20
242.763648
 30
0.0
 11
32.711839
 21
242.410195
 31
0.0
  0
LINE
  5
459
100
AcDbEntity
  8
Layer_1
 62
7
100
AcDbLine
 10
32.711839
 20
242.410195
 30
0.0
 11
32.525507
 21
241.782925
 31
0.0
  0
LINE
  5
45a
100
AcDbEntity
  8
Layer_1
 62
7
100
AcDbLine
 10
32.525507
 20
241.782925
 30
0.0
 11
32.823729
 21
241.213085
 31
0.0
  0
LINE
  5
45b
100
AcDbEntity
  8
Layer_1
 62
7
100
AcDbLine
 10
32.823729
 20
241.213085
 30
0.0
 11
33.491314
 21
240.928472
 31
0.0
  0
LINE
  5
45c
100
AcDbEntity
  8
Layer_1
 62
7
100
AcDbLine
 10
33.491314
 20
240.928472
 30
0.0
 11
34.209372
 21
241.167438
 31
0.0
  0
ENDSEC
  0
SECTION
  2
OBJECTS
  0
DICTIONARY
  5
C
330
0
100
AcDbDictionary
  3
ACAD_GROUP
350
D
  3
ACAD_MLINESTYLE
350
17
  0
DICTIONARY
  5
D
330
C
100
AcDbDictionary
  0
DICTIONARY
  5
1A
330
C
100
AcDbDictionary
  0
DICTIONARY
  5
17
330
C
100
AcDbDictionary
  3
STANDARD
350
18
  0
DICTIONARY
  5
19
330
C
100
AcDbDictionary
  0
ENDSEC
  0
EOF
