solid OpenSCAD_Model
  facet normal -1 0 0
    outer loop
      vertex 0 0 0
      vertex 0 57 55
      vertex 0 57 0
    endloop
  endfacet
  facet normal -1 -0 0
    outer loop
      vertex 0 57 55
      vertex 0 0 0
      vertex 0 0 55
    endloop
  endfacet
  facet normal 0 0 1
    outer loop
      vertex 80 54 75
      vertex 78 52 75
      vertex 80 52 75
    endloop
  endfacet
  facet normal 0 0 1
    outer loop
      vertex 80 54 75
      vertex 5 52 75
      vertex 78 52 75
    endloop
  endfacet
  facet normal -0 0 1
    outer loop
      vertex 3 54 75
      vertex 5 52 75
      vertex 80 54 75
    endloop
  endfacet
  facet normal 0 0 1
    outer loop
      vertex 5 52 75
      vertex 3 54 75
      vertex 3 52 75
    endloop
  endfacet
  facet normal 1 -0 0
    outer loop
      vertex 83 0 55
      vertex 83 57 0
      vertex 83 57 55
    endloop
  endfacet
  facet normal 1 0 0
    outer loop
      vertex 83 57 0
      vertex 83 0 55
      vertex 83 0 0
    endloop
  endfacet
  facet normal 0 0 -1
    outer loop
      vertex 0 0 0
      vertex 83 57 0
      vertex 83 0 0
    endloop
  endfacet
  facet normal -0 0 -1
    outer loop
      vertex 83 57 0
      vertex 0 0 0
      vertex 0 57 0
    endloop
  endfacet
  facet normal 0 -1 0
    outer loop
      vertex 0 0 0
      vertex 83 0 55
      vertex 0 0 55
    endloop
  endfacet
  facet normal 0 -1 -0
    outer loop
      vertex 83 0 55
      vertex 0 0 0
      vertex 83 0 0
    endloop
  endfacet
  facet normal 0 1 -0
    outer loop
      vertex 83 57 0
      vertex 0 57 55
      vertex 83 57 55
    endloop
  endfacet
  facet normal 0 1 0
    outer loop
      vertex 0 57 55
      vertex 83 57 0
      vertex 0 57 0
    endloop
  endfacet
  facet normal 0 -0.391555 0.920155
    outer loop
      vertex 5 52 75
      vertex 3 52 75
      vertex 5 5 55
    endloop
  endfacet
  facet normal 0 -0.391555 0.920155
    outer loop
      vertex 78 52 75
      vertex 80 5 55
      vertex 80 52 75
    endloop
  endfacet
  facet normal -1.86708e-07 -0.391555 0.920155
    outer loop
      vertex 78 5 55
      vertex 80 5 55
      vertex 78 52 75
    endloop
  endfacet
  facet normal -0 0 1
    outer loop
      vertex 5 5 55
      vertex 80 5 55
      vertex 78 5 55
    endloop
  endfacet
  facet normal 0 0 1
    outer loop
      vertex 5 5 55
      vertex 3 5 55
      vertex 80 5 55
    endloop
  endfacet
  facet normal 0 -0.391555 0.920155
    outer loop
      vertex 3 5 55
      vertex 5 5 55
      vertex 3 52 75
    endloop
  endfacet
  facet normal 0 0 1
    outer loop
      vertex 80 5 55
      vertex 83 57 55
      vertex 80 54 55
    endloop
  endfacet
  facet normal 0 0 1
    outer loop
      vertex 83 57 55
      vertex 3 54 55
      vertex 80 54 55
    endloop
  endfacet
  facet normal 0 0 1
    outer loop
      vertex 3 54 55
      vertex 0 57 55
      vertex 3 5 55
    endloop
  endfacet
  facet normal -0 0 1
    outer loop
      vertex 0 57 55
      vertex 3 54 55
      vertex 83 57 55
    endloop
  endfacet
  facet normal 0 0 1
    outer loop
      vertex 83 57 55
      vertex 80 5 55
      vertex 83 0 55
    endloop
  endfacet
  facet normal 0 0 1
    outer loop
      vertex 3 5 55
      vertex 83 0 55
      vertex 80 5 55
    endloop
  endfacet
  facet normal 0 0 1
    outer loop
      vertex 3 5 55
      vertex 0 0 55
      vertex 83 0 55
    endloop
  endfacet
  facet normal 0 0 1
    outer loop
      vertex 0 0 55
      vertex 3 5 55
      vertex 0 57 55
    endloop
  endfacet
  facet normal -1 0 0
    outer loop
      vertex 3 54 55
      vertex 3 52 75
      vertex 3 54 75
    endloop
  endfacet
  facet normal -1 0 -0
    outer loop
      vertex 3 52 75
      vertex 3 54 55
      vertex 3 5 55
    endloop
  endfacet
  facet normal 1 -0 0
    outer loop
      vertex 80 52 75
      vertex 80 54 55
      vertex 80 54 75
    endloop
  endfacet
  facet normal 1 0 0
    outer loop
      vertex 80 54 55
      vertex 80 52 75
      vertex 80 5 55
    endloop
  endfacet
  facet normal 0 1 0
    outer loop
      vertex 80 54 75
      vertex 41 54 67.5727
      vertex 3 54 75
    endloop
  endfacet
  facet normal 0 1 0
    outer loop
      vertex 80 54 75
      vertex 41.138 54 67.5569
      vertex 41 54 67.5727
    endloop
  endfacet
  facet normal 0 1 0
    outer loop
      vertex 80 54 75
      vertex 41.4874 54 67.5166
      vertex 41.138 54 67.5569
    endloop
  endfacet
  facet normal 0 1 0
    outer loop
      vertex 80 54 75
      vertex 41.7375 54 67.4331
      vertex 41.4874 54 67.5166
    endloop
  endfacet
  facet normal 0 1 0
    outer loop
      vertex 80 54 75
      vertex 42.0898 54 67.3155
      vertex 41.7375 54 67.4331
    endloop
  endfacet
  facet normal 0 1 0
    outer loop
      vertex 80 54 75
      vertex 42.4631 54 67.1213
      vertex 42.0898 54 67.3155
    endloop
  endfacet
  facet normal 0 1 0
    outer loop
      vertex 80 54 75
      vertex 43.0646 54 66.5286
      vertex 42.4631 54 67.1213
    endloop
  endfacet
  facet normal 0 1 0
    outer loop
      vertex 80 54 75
      vertex 43.1988 54 66.362
      vertex 43.0646 54 66.5286
    endloop
  endfacet
  facet normal 0 1 0
    outer loop
      vertex 80 54 75
      vertex 43.4354 54 65.7049
      vertex 43.1988 54 66.362
    endloop
  endfacet
  facet normal 0 1 0
    outer loop
      vertex 80 54 75
      vertex 43.5203 54 65.4693
      vertex 43.4354 54 65.7049
    endloop
  endfacet
  facet normal 0 1 0
    outer loop
      vertex 80 54 75
      vertex 43.5203 54 64.5307
      vertex 43.5203 54 65.4693
    endloop
  endfacet
  facet normal 0 1 -0
    outer loop
      vertex 80 54 55
      vertex 43.5203 54 64.5307
      vertex 80 54 75
    endloop
  endfacet
  facet normal 0 1 0
    outer loop
      vertex 43.5203 54 64.5307
      vertex 80 54 55
      vertex 43.4354 54 64.2951
    endloop
  endfacet
  facet normal 0 1 0
    outer loop
      vertex 43.4354 54 64.2951
      vertex 80 54 55
      vertex 43.1988 54 63.638
    endloop
  endfacet
  facet normal 0 1 0
    outer loop
      vertex 43.1988 54 63.638
      vertex 80 54 55
      vertex 43.0646 54 63.4714
    endloop
  endfacet
  facet normal 0 1 0
    outer loop
      vertex 43.0646 54 63.4714
      vertex 80 54 55
      vertex 42.4631 54 62.8787
    endloop
  endfacet
  facet normal 0 1 0
    outer loop
      vertex 42.4631 54 62.8787
      vertex 80 54 55
      vertex 42.0898 54 62.6845
    endloop
  endfacet
  facet normal 0 1 0
    outer loop
      vertex 42.0898 54 62.6845
      vertex 80 54 55
      vertex 41.7375 54 62.5669
    endloop
  endfacet
  facet normal 0 1 0
    outer loop
      vertex 41.138 54 62.4431
      vertex 80 54 55
      vertex 41 54 62.4273
    endloop
  endfacet
  facet normal 0 1 0
    outer loop
      vertex 41.4874 54 62.4833
      vertex 80 54 55
      vertex 41.138 54 62.4431
    endloop
  endfacet
  facet normal 0 1 0
    outer loop
      vertex 41.7375 54 62.5669
      vertex 80 54 55
      vertex 41.4874 54 62.4833
    endloop
  endfacet
  facet normal 0 1 -0
    outer loop
      vertex 40.862 54 67.5569
      vertex 3 54 75
      vertex 41 54 67.5727
    endloop
  endfacet
  facet normal 0 1 -0
    outer loop
      vertex 40.5126 54 67.5166
      vertex 3 54 75
      vertex 40.862 54 67.5569
    endloop
  endfacet
  facet normal 0 1 -0
    outer loop
      vertex 40.2625 54 67.4331
      vertex 3 54 75
      vertex 40.5126 54 67.5166
    endloop
  endfacet
  facet normal 0 1 -0
    outer loop
      vertex 39.9102 54 67.3155
      vertex 3 54 75
      vertex 40.2625 54 67.4331
    endloop
  endfacet
  facet normal 0 1 -0
    outer loop
      vertex 39.5369 54 67.1213
      vertex 3 54 75
      vertex 39.9102 54 67.3155
    endloop
  endfacet
  facet normal 0 1 -0
    outer loop
      vertex 38.9354 54 66.5286
      vertex 3 54 75
      vertex 39.5369 54 67.1213
    endloop
  endfacet
  facet normal 0 1 -0
    outer loop
      vertex 38.8012 54 66.362
      vertex 3 54 75
      vertex 38.9354 54 66.5286
    endloop
  endfacet
  facet normal 0 1 -0
    outer loop
      vertex 38.5646 54 65.7049
      vertex 3 54 75
      vertex 38.8012 54 66.362
    endloop
  endfacet
  facet normal 0 1 -0
    outer loop
      vertex 38.4797 54 65.4693
      vertex 3 54 75
      vertex 38.5646 54 65.7049
    endloop
  endfacet
  facet normal 0 1 -0
    outer loop
      vertex 38.4797 54 64.5307
      vertex 3 54 75
      vertex 38.4797 54 65.4693
    endloop
  endfacet
  facet normal 0 1 0
    outer loop
      vertex 3 54 55
      vertex 38.4797 54 64.5307
      vertex 38.5646 54 64.2951
    endloop
  endfacet
  facet normal 0 1 0
    outer loop
      vertex 3 54 55
      vertex 38.5646 54 64.2951
      vertex 38.8012 54 63.638
    endloop
  endfacet
  facet normal 0 1 0
    outer loop
      vertex 3 54 55
      vertex 38.8012 54 63.638
      vertex 38.9354 54 63.4714
    endloop
  endfacet
  facet normal 0 1 0
    outer loop
      vertex 3 54 55
      vertex 38.9354 54 63.4714
      vertex 39.5369 54 62.8787
    endloop
  endfacet
  facet normal 0 1 0
    outer loop
      vertex 3 54 55
      vertex 39.5369 54 62.8787
      vertex 39.9102 54 62.6845
    endloop
  endfacet
  facet normal 0 1 0
    outer loop
      vertex 3 54 55
      vertex 39.9102 54 62.6845
      vertex 40.2625 54 62.5669
    endloop
  endfacet
  facet normal 0 1 0
    outer loop
      vertex 3 54 55
      vertex 40.2625 54 62.5669
      vertex 40.5126 54 62.4833
    endloop
  endfacet
  facet normal 0 1 0
    outer loop
      vertex 3 54 55
      vertex 41 54 62.4273
      vertex 80 54 55
    endloop
  endfacet
  facet normal 0 1 0
    outer loop
      vertex 41 54 62.4273
      vertex 3 54 55
      vertex 40.862 54 62.4431
    endloop
  endfacet
  facet normal 0 1 0
    outer loop
      vertex 38.4797 54 64.5307
      vertex 3 54 55
      vertex 3 54 75
    endloop
  endfacet
  facet normal 0 1 0
    outer loop
      vertex 40.862 54 62.4431
      vertex 3 54 55
      vertex 40.5126 54 62.4833
    endloop
  endfacet
  facet normal 0.368849 0.723908 0.583016
    outer loop
      vertex 42.5712 54.6625 66.362
      vertex 41.826 55.0422 66.362
      vertex 42.2469 54.2162 67.1213
    endloop
  endfacet
  facet normal 0.368851 0.723908 0.583015
    outer loop
      vertex 41.826 55.0422 66.362
      vertex 41.6555 54.5175 67.1213
      vertex 42.2469 54.2162 67.1213
    endloop
  endfacet
  facet normal 0.574496 0.574496 0.583018
    outer loop
      vertex 42.5712 54.6625 66.362
      vertex 43.0646 54 66.5286
      vertex 43.1625 54.0712 66.362
    endloop
  endfacet
  facet normal 0.574499 0.574497 0.583014
    outer loop
      vertex 42.5712 54.6625 66.362
      vertex 42.4631 54 67.1213
      vertex 43.0646 54 66.5286
    endloop
  endfacet
  facet normal 0.574491 0.574501 0.583017
    outer loop
      vertex 42.4631 54 67.1213
      vertex 42.5712 54.6625 66.362
      vertex 42.2469 54.2162 67.1213
    endloop
  endfacet
  facet normal -0.127099 0.802457 -0.583017
    outer loop
      vertex 40.3445 54.5175 62.8787
      vertex 40.174 55.0422 63.638
      vertex 41 55.173 63.638
    endloop
  endfacet
  facet normal -0.723907 0.368861 -0.58301
    outer loop
      vertex 38.9354 54 63.4714
      vertex 38.8012 54 63.638
      vertex 38.8375 54.0712 63.638
    endloop
  endfacet
  facet normal -0.673286 0.673286 0.305569
    outer loop
      vertex 38.6028 54.2416 65.4693
      vertex 39.4288 54.6625 66.362
      vertex 39.2584 54.8972 65.4693
    endloop
  endfacet
  facet normal -0.673287 0.673283 0.305572
    outer loop
      vertex 39.4288 54.6625 66.362
      vertex 38.6028 54.2416 65.4693
      vertex 38.8375 54.0712 66.362
    endloop
  endfacet
  facet normal -0.418988 0.418995 -0.805539
    outer loop
      vertex 39.9102 54 62.6845
      vertex 39.5369 54 62.8787
      vertex 39.7531 54.2162 62.8787
    endloop
  endfacet
  facet normal -0.574489 0.574499 -0.58302
    outer loop
      vertex 39.5369 54 62.8787
      vertex 39.4288 54.6625 63.638
      vertex 39.7531 54.2162 62.8787
    endloop
  endfacet
  facet normal -0.574495 0.574495 -0.583018
    outer loop
      vertex 38.9354 54 63.4714
      vertex 39.4288 54.6625 63.638
      vertex 39.5369 54 62.8787
    endloop
  endfacet
  facet normal -0.574502 0.574498 -0.583009
    outer loop
      vertex 39.4288 54.6625 63.638
      vertex 38.9354 54 63.4714
      vertex 38.8375 54.0712 63.638
    endloop
  endfacet
  facet normal 0.7239 0.368857 -0.583021
    outer loop
      vertex 43.1988 54 63.638
      vertex 43.0646 54 63.4714
      vertex 43.1625 54.0712 63.638
    endloop
  endfacet
  facet normal 0.0926802 0.585253 -0.805536
    outer loop
      vertex 41 54.6213 62.8787
      vertex 41.138 54 62.4431
      vertex 41 54 62.4273
    endloop
  endfacet
  facet normal 0.0926949 0.585255 -0.805534
    outer loop
      vertex 41.138 54 62.4431
      vertex 41 54.6213 62.8787
      vertex 41.6555 54.5175 62.8787
    endloop
  endfacet
  facet normal 0.673285 0.673285 0.305572
    outer loop
      vertex 42.7416 54.8972 65.4693
      vertex 43.1625 54.0712 66.362
      vertex 43.3972 54.2416 65.4693
    endloop
  endfacet
  facet normal 0.673285 0.673285 0.305572
    outer loop
      vertex 43.1625 54.0712 66.362
      vertex 42.7416 54.8972 65.4693
      vertex 42.5712 54.6625 66.362
    endloop
  endfacet
  facet normal 0.848383 0.432287 0.305571
    outer loop
      vertex 43.4354 54 65.7049
      vertex 43.1625 54.0712 66.362
      vertex 43.1988 54 66.362
    endloop
  endfacet
  facet normal 0.848385 0.432282 0.305572
    outer loop
      vertex 43.1625 54.0712 66.362
      vertex 43.4354 54 65.7049
      vertex 43.3972 54.2416 65.4693
    endloop
  endfacet
  facet normal 0.848389 0.432274 -0.305573
    outer loop
      vertex 43.4354 54 64.2951
      vertex 43.1625 54.0712 63.638
      vertex 43.3972 54.2416 64.5307
    endloop
  endfacet
  facet normal 0.848384 0.432287 -0.305569
    outer loop
      vertex 43.1625 54.0712 63.638
      vertex 43.4354 54 64.2951
      vertex 43.1988 54 63.638
    endloop
  endfacet
  facet normal 0.148953 0.940446 -0.305572
    outer loop
      vertex 41.9156 55.318 64.5307
      vertex 41 55.173 63.638
      vertex 41 55.4631 64.5307
    endloop
  endfacet
  facet normal 0.156435 0.987688 -0
    outer loop
      vertex 41.9156 55.318 64.5307
      vertex 41 55.4631 65.4693
      vertex 41.9156 55.318 65.4693
    endloop
  endfacet
  facet normal 0.156435 0.987688 0
    outer loop
      vertex 41 55.4631 65.4693
      vertex 41.9156 55.318 64.5307
      vertex 41 55.4631 64.5307
    endloop
  endfacet
  facet normal -0.148953 0.940447 0.30557
    outer loop
      vertex 41 55.4631 65.4693
      vertex 40.0844 55.318 65.4693
      vertex 41 55.173 66.362
    endloop
  endfacet
  facet normal 0.092709 0.585245 0.805539
    outer loop
      vertex 41.6555 54.5175 67.1213
      vertex 41.138 54 67.5569
      vertex 41.4874 54 67.5166
    endloop
  endfacet
  facet normal -0.848394 0.432273 0.305561
    outer loop
      vertex 38.6028 54.2416 65.4693
      vertex 38.4797 54 65.4693
      vertex 38.5646 54 65.7049
    endloop
  endfacet
  facet normal -0.269019 0.527965 -0.805532
    outer loop
      vertex 39.9102 54 62.6845
      vertex 40.3445 54.5175 62.8787
      vertex 40.2625 54 62.5669
    endloop
  endfacet
  facet normal -0.26901 0.52796 -0.805538
    outer loop
      vertex 40.3445 54.5175 62.8787
      vertex 39.9102 54 62.6845
      vertex 39.7531 54.2162 62.8787
    endloop
  endfacet
  facet normal -0.156435 0.987688 0
    outer loop
      vertex 41 55.4631 64.5307
      vertex 40.0844 55.318 65.4693
      vertex 41 55.4631 65.4693
    endloop
  endfacet
  facet normal -0.156435 0.987688 0
    outer loop
      vertex 40.0844 55.318 65.4693
      vertex 41 55.4631 64.5307
      vertex 40.0844 55.318 64.5307
    endloop
  endfacet
  facet normal 0.848392 0.432272 -0.30557
    outer loop
      vertex 43.4354 54 64.2951
      vertex 43.3972 54.2416 64.5307
      vertex 43.5203 54 64.5307
    endloop
  endfacet
  facet normal 0.368851 0.723907 -0.583017
    outer loop
      vertex 42.2469 54.2162 62.8787
      vertex 41.6555 54.5175 62.8787
      vertex 41.826 55.0422 63.638
    endloop
  endfacet
  facet normal 0.148953 0.940447 0.30557
    outer loop
      vertex 41 55.4631 65.4693
      vertex 41 55.173 66.362
      vertex 41.9156 55.318 65.4693
    endloop
  endfacet
  facet normal -0.673285 0.673285 -0.30557
    outer loop
      vertex 39.4288 54.6625 63.638
      vertex 38.6028 54.2416 64.5307
      vertex 39.2584 54.8972 64.5307
    endloop
  endfacet
  facet normal -0.673287 0.673283 -0.305573
    outer loop
      vertex 38.6028 54.2416 64.5307
      vertex 39.4288 54.6625 63.638
      vertex 38.8375 54.0712 63.638
    endloop
  endfacet
  facet normal -0.57449 0.5745 0.583018
    outer loop
      vertex 39.4288 54.6625 66.362
      vertex 39.5369 54 67.1213
      vertex 39.7531 54.2162 67.1213
    endloop
  endfacet
  facet normal -0.574497 0.574496 0.583016
    outer loop
      vertex 39.4288 54.6625 66.362
      vertex 38.9354 54 66.5286
      vertex 39.5369 54 67.1213
    endloop
  endfacet
  facet normal -0.574502 0.574498 0.583009
    outer loop
      vertex 38.9354 54 66.5286
      vertex 39.4288 54.6625 66.362
      vertex 38.8375 54.0712 66.362
    endloop
  endfacet
  facet normal 0.432275 0.848389 0.305572
    outer loop
      vertex 42.7416 54.8972 65.4693
      vertex 41.826 55.0422 66.362
      vertex 42.5712 54.6625 66.362
    endloop
  endfacet
  facet normal 0.418993 0.419 0.805533
    outer loop
      vertex 42.2469 54.2162 67.1213
      vertex 42.0898 54 67.3155
      vertex 42.4631 54 67.1213
    endloop
  endfacet
  facet normal 0.269011 0.527969 0.805532
    outer loop
      vertex 42.2469 54.2162 67.1213
      vertex 41.7375 54 67.4331
      vertex 42.0898 54 67.3155
    endloop
  endfacet
  facet normal 0.269013 0.527965 0.805534
    outer loop
      vertex 41.7375 54 67.4331
      vertex 42.2469 54.2162 67.1213
      vertex 41.6555 54.5175 67.1213
    endloop
  endfacet
  facet normal -0.368851 0.723907 -0.583017
    outer loop
      vertex 40.3445 54.5175 62.8787
      vertex 39.7531 54.2162 62.8787
      vertex 40.174 55.0422 63.638
    endloop
  endfacet
  facet normal 0.574496 0.574496 -0.583018
    outer loop
      vertex 43.0646 54 63.4714
      vertex 42.5712 54.6625 63.638
      vertex 43.1625 54.0712 63.638
    endloop
  endfacet
  facet normal 0.574497 0.574496 -0.583016
    outer loop
      vertex 42.4631 54 62.8787
      vertex 42.5712 54.6625 63.638
      vertex 43.0646 54 63.4714
    endloop
  endfacet
  facet normal 0.57449 0.5745 -0.583019
    outer loop
      vertex 42.5712 54.6625 63.638
      vertex 42.4631 54 62.8787
      vertex 42.2469 54.2162 62.8787
    endloop
  endfacet
  facet normal 0.891009 0.453986 0
    outer loop
      vertex 43.5203 54 65.4693
      vertex 43.3972 54.2416 64.5307
      vertex 43.3972 54.2416 65.4693
    endloop
  endfacet
  facet normal 0.891009 0.453986 0
    outer loop
      vertex 43.3972 54.2416 64.5307
      vertex 43.5203 54 65.4693
      vertex 43.5203 54 64.5307
    endloop
  endfacet
  facet normal -0.432273 0.84839 -0.305571
    outer loop
      vertex 39.4288 54.6625 63.638
      vertex 39.2584 54.8972 64.5307
      vertex 40.174 55.0422 63.638
    endloop
  endfacet
  facet normal -0.891009 0.453986 0
    outer loop
      vertex 38.4797 54 64.5307
      vertex 38.6028 54.2416 65.4693
      vertex 38.6028 54.2416 64.5307
    endloop
  endfacet
  facet normal -0.891009 0.453986 0
    outer loop
      vertex 38.6028 54.2416 65.4693
      vertex 38.4797 54 64.5307
      vertex 38.4797 54 65.4693
    endloop
  endfacet
  facet normal 0.127099 0.802457 -0.583017
    outer loop
      vertex 41.6555 54.5175 62.8787
      vertex 41 55.173 63.638
      vertex 41.826 55.0422 63.638
    endloop
  endfacet
  facet normal 0.148954 0.940445 -0.305573
    outer loop
      vertex 41.826 55.0422 63.638
      vertex 41 55.173 63.638
      vertex 41.9156 55.318 64.5307
    endloop
  endfacet
  facet normal 0.45399 0.891007 -0
    outer loop
      vertex 42.7416 54.8972 64.5307
      vertex 41.9156 55.318 65.4693
      vertex 42.7416 54.8972 65.4693
    endloop
  endfacet
  facet normal 0.45399 0.891007 0
    outer loop
      vertex 41.9156 55.318 65.4693
      vertex 42.7416 54.8972 64.5307
      vertex 41.9156 55.318 64.5307
    endloop
  endfacet
  facet normal 0.432275 0.848389 0.305572
    outer loop
      vertex 41.9156 55.318 65.4693
      vertex 41.826 55.0422 66.362
      vertex 42.7416 54.8972 65.4693
    endloop
  endfacet
  facet normal 0.848394 0.432273 0.305561
    outer loop
      vertex 43.5203 54 65.4693
      vertex 43.3972 54.2416 65.4693
      vertex 43.4354 54 65.7049
    endloop
  endfacet
  facet normal 0.707107 0.707107 0
    outer loop
      vertex 43.3972 54.2416 65.4693
      vertex 42.7416 54.8972 64.5307
      vertex 42.7416 54.8972 65.4693
    endloop
  endfacet
  facet normal 0.707107 0.707107 0
    outer loop
      vertex 42.7416 54.8972 64.5307
      vertex 43.3972 54.2416 65.4693
      vertex 43.3972 54.2416 64.5307
    endloop
  endfacet
  facet normal 0.673285 0.673285 -0.305573
    outer loop
      vertex 43.3972 54.2416 64.5307
      vertex 42.5712 54.6625 63.638
      vertex 42.7416 54.8972 64.5307
    endloop
  endfacet
  facet normal 0.673285 0.673285 -0.305573
    outer loop
      vertex 42.5712 54.6625 63.638
      vertex 43.3972 54.2416 64.5307
      vertex 43.1625 54.0712 63.638
    endloop
  endfacet
  facet normal 0.127096 0.802457 0.583017
    outer loop
      vertex 41 55.173 66.362
      vertex 41 54.6213 67.1213
      vertex 41.6555 54.5175 67.1213
    endloop
  endfacet
  facet normal -0.432275 0.848389 0.305572
    outer loop
      vertex 40.0844 55.318 65.4693
      vertex 39.2584 54.8972 65.4693
      vertex 40.174 55.0422 66.362
    endloop
  endfacet
  facet normal 0.268996 0.527966 0.805539
    outer loop
      vertex 41.6555 54.5175 67.1213
      vertex 41.4874 54 67.5166
      vertex 41.7375 54 67.4331
    endloop
  endfacet
  facet normal 0.7239 0.368857 0.583021
    outer loop
      vertex 43.1625 54.0712 66.362
      vertex 43.0646 54 66.5286
      vertex 43.1988 54 66.362
    endloop
  endfacet
  facet normal -0.127096 0.802456 -0.583019
    outer loop
      vertex 41 54.6213 62.8787
      vertex 40.3445 54.5175 62.8787
      vertex 41 55.173 63.638
    endloop
  endfacet
  facet normal 0.127096 0.802456 -0.583019
    outer loop
      vertex 41.6555 54.5175 62.8787
      vertex 41 54.6213 62.8787
      vertex 41 55.173 63.638
    endloop
  endfacet
  facet normal -0.0926777 0.585254 -0.805537
    outer loop
      vertex 40.862 54 62.4431
      vertex 41 54.6213 62.8787
      vertex 41 54 62.4273
    endloop
  endfacet
  facet normal -0.092695 0.585255 -0.805533
    outer loop
      vertex 41 54.6213 62.8787
      vertex 40.862 54 62.4431
      vertex 40.3445 54.5175 62.8787
    endloop
  endfacet
  facet normal -0.848384 0.432287 -0.305569
    outer loop
      vertex 38.5646 54 64.2951
      vertex 38.8375 54.0712 63.638
      vertex 38.8012 54 63.638
    endloop
  endfacet
  facet normal -0.848389 0.432274 -0.305573
    outer loop
      vertex 38.8375 54.0712 63.638
      vertex 38.5646 54 64.2951
      vertex 38.6028 54.2416 64.5307
    endloop
  endfacet
  facet normal -0.848392 0.432272 -0.30557
    outer loop
      vertex 38.5646 54 64.2951
      vertex 38.4797 54 64.5307
      vertex 38.6028 54.2416 64.5307
    endloop
  endfacet
  facet normal -0.368851 0.723908 0.583015
    outer loop
      vertex 40.174 55.0422 66.362
      vertex 39.7531 54.2162 67.1213
      vertex 40.3445 54.5175 67.1213
    endloop
  endfacet
  facet normal -0.707107 0.707107 0
    outer loop
      vertex 38.6028 54.2416 64.5307
      vertex 39.2584 54.8972 65.4693
      vertex 39.2584 54.8972 64.5307
    endloop
  endfacet
  facet normal -0.707107 0.707107 0
    outer loop
      vertex 39.2584 54.8972 65.4693
      vertex 38.6028 54.2416 64.5307
      vertex 38.6028 54.2416 65.4693
    endloop
  endfacet
  facet normal 0.148954 0.940446 0.305572
    outer loop
      vertex 41.9156 55.318 65.4693
      vertex 41 55.173 66.362
      vertex 41.826 55.0422 66.362
    endloop
  endfacet
  facet normal 0.127099 0.802458 0.583015
    outer loop
      vertex 41.826 55.0422 66.362
      vertex 41 55.173 66.362
      vertex 41.6555 54.5175 67.1213
    endloop
  endfacet
  facet normal 0.368848 0.723907 -0.583018
    outer loop
      vertex 42.2469 54.2162 62.8787
      vertex 41.826 55.0422 63.638
      vertex 42.5712 54.6625 63.638
    endloop
  endfacet
  facet normal -0.848385 0.432282 0.305572
    outer loop
      vertex 38.5646 54 65.7049
      vertex 38.8375 54.0712 66.362
      vertex 38.6028 54.2416 65.4693
    endloop
  endfacet
  facet normal -0.848383 0.432287 0.305571
    outer loop
      vertex 38.8375 54.0712 66.362
      vertex 38.5646 54 65.7049
      vertex 38.8012 54 66.362
    endloop
  endfacet
  facet normal -0.418993 0.419 0.805533
    outer loop
      vertex 39.7531 54.2162 67.1213
      vertex 39.5369 54 67.1213
      vertex 39.9102 54 67.3155
    endloop
  endfacet
  facet normal 0.0926949 0.585255 0.805534
    outer loop
      vertex 41 54.6213 67.1213
      vertex 41.138 54 67.5569
      vertex 41.6555 54.5175 67.1213
    endloop
  endfacet
  facet normal 0.092702 0.585255 0.805532
    outer loop
      vertex 41.138 54 67.5569
      vertex 41 54.6213 67.1213
      vertex 41 54 67.5727
    endloop
  endfacet
  facet normal -0.268996 0.527966 0.805539
    outer loop
      vertex 40.3445 54.5175 67.1213
      vertex 40.2625 54 67.4331
      vertex 40.5126 54 67.5166
    endloop
  endfacet
  facet normal -0.432274 0.848391 0.30557
    outer loop
      vertex 40.174 55.0422 66.362
      vertex 39.2584 54.8972 65.4693
      vertex 39.4288 54.6625 66.362
    endloop
  endfacet
  facet normal -0.368846 0.723907 -0.583019
    outer loop
      vertex 39.7531 54.2162 62.8787
      vertex 39.4288 54.6625 63.638
      vertex 40.174 55.0422 63.638
    endloop
  endfacet
  facet normal -0.148953 0.940446 -0.305572
    outer loop
      vertex 41 55.173 63.638
      vertex 40.0844 55.318 64.5307
      vertex 41 55.4631 64.5307
    endloop
  endfacet
  facet normal -0.148954 0.940445 -0.305573
    outer loop
      vertex 40.174 55.0422 63.638
      vertex 40.0844 55.318 64.5307
      vertex 41 55.173 63.638
    endloop
  endfacet
  facet normal 0.432275 0.848389 -0.305573
    outer loop
      vertex 42.5712 54.6625 63.638
      vertex 41.826 55.0422 63.638
      vertex 42.7416 54.8972 64.5307
    endloop
  endfacet
  facet normal 0.432275 0.848389 -0.305573
    outer loop
      vertex 42.7416 54.8972 64.5307
      vertex 41.826 55.0422 63.638
      vertex 41.9156 55.318 64.5307
    endloop
  endfacet
  facet normal -0.723907 0.368861 0.58301
    outer loop
      vertex 38.8375 54.0712 66.362
      vertex 38.8012 54 66.362
      vertex 38.9354 54 66.5286
    endloop
  endfacet
  facet normal -0.09271 0.585245 0.805539
    outer loop
      vertex 40.862 54 67.5569
      vertex 40.3445 54.5175 67.1213
      vertex 40.5126 54 67.5166
    endloop
  endfacet
  facet normal -0.148954 0.940446 0.305572
    outer loop
      vertex 41 55.173 66.362
      vertex 40.0844 55.318 65.4693
      vertex 40.174 55.0422 66.362
    endloop
  endfacet
  facet normal -0.127099 0.802458 0.583015
    outer loop
      vertex 41 55.173 66.362
      vertex 40.174 55.0422 66.362
      vertex 40.3445 54.5175 67.1213
    endloop
  endfacet
  facet normal -0.45399 0.891007 0
    outer loop
      vertex 40.0844 55.318 64.5307
      vertex 39.2584 54.8972 65.4693
      vertex 40.0844 55.318 65.4693
    endloop
  endfacet
  facet normal -0.45399 0.891007 0
    outer loop
      vertex 39.2584 54.8972 65.4693
      vertex 40.0844 55.318 64.5307
      vertex 39.2584 54.8972 64.5307
    endloop
  endfacet
  facet normal -0.432275 0.848389 -0.305573
    outer loop
      vertex 40.174 55.0422 63.638
      vertex 39.2584 54.8972 64.5307
      vertex 40.0844 55.318 64.5307
    endloop
  endfacet
  facet normal -0.269011 0.527965 0.805534
    outer loop
      vertex 40.3445 54.5175 67.1213
      vertex 39.9102 54 67.3155
      vertex 40.2625 54 67.4331
    endloop
  endfacet
  facet normal -0.269014 0.527967 0.805533
    outer loop
      vertex 39.9102 54 67.3155
      vertex 40.3445 54.5175 67.1213
      vertex 39.7531 54.2162 67.1213
    endloop
  endfacet
  facet normal -0.368847 0.723908 0.583017
    outer loop
      vertex 40.174 55.0422 66.362
      vertex 39.4288 54.6625 66.362
      vertex 39.7531 54.2162 67.1213
    endloop
  endfacet
  facet normal 0.269007 0.527966 -0.805535
    outer loop
      vertex 41.7375 54 62.5669
      vertex 41.4874 54 62.4833
      vertex 41.6555 54.5175 62.8787
    endloop
  endfacet
  facet normal -0.0926995 0.585256 0.805533
    outer loop
      vertex 41 54.6213 67.1213
      vertex 40.862 54 67.5569
      vertex 41 54 67.5727
    endloop
  endfacet
  facet normal -0.092695 0.585255 0.805533
    outer loop
      vertex 40.862 54 67.5569
      vertex 41 54.6213 67.1213
      vertex 40.3445 54.5175 67.1213
    endloop
  endfacet
  facet normal -0.127096 0.802457 0.583017
    outer loop
      vertex 41 55.173 66.362
      vertex 40.3445 54.5175 67.1213
      vertex 41 54.6213 67.1213
    endloop
  endfacet
  facet normal -0.0927008 0.585251 -0.805536
    outer loop
      vertex 40.5126 54 62.4833
      vertex 40.3445 54.5175 62.8787
      vertex 40.862 54 62.4431
    endloop
  endfacet
  facet normal 0.269022 0.527953 -0.805539
    outer loop
      vertex 41.7375 54 62.5669
      vertex 42.2469 54.2162 62.8787
      vertex 42.0898 54 62.6845
    endloop
  endfacet
  facet normal 0.269013 0.527965 -0.805534
    outer loop
      vertex 42.2469 54.2162 62.8787
      vertex 41.7375 54 62.5669
      vertex 41.6555 54.5175 62.8787
    endloop
  endfacet
  facet normal 0.418988 0.418995 -0.805539
    outer loop
      vertex 42.4631 54 62.8787
      vertex 42.0898 54 62.6845
      vertex 42.2469 54.2162 62.8787
    endloop
  endfacet
  facet normal -0.269007 0.527966 -0.805535
    outer loop
      vertex 40.5126 54 62.4833
      vertex 40.2625 54 62.5669
      vertex 40.3445 54.5175 62.8787
    endloop
  endfacet
  facet normal 0.0926998 0.585251 -0.805536
    outer loop
      vertex 41.4874 54 62.4833
      vertex 41.138 54 62.4431
      vertex 41.6555 54.5175 62.8787
    endloop
  endfacet
  facet normal 1 -0 0
    outer loop
      vertex 5 5 55
      vertex 5 52 5
      vertex 5 52 75
    endloop
  endfacet
  facet normal 1 0 0
    outer loop
      vertex 5 52 5
      vertex 5 5 55
      vertex 5 5 5
    endloop
  endfacet
  facet normal -1 0 0
    outer loop
      vertex 78 5 55
      vertex 78 52 5
      vertex 78 5 5
    endloop
  endfacet
  facet normal -1 0 0
    outer loop
      vertex 78 52 5
      vertex 78 5 55
      vertex 78 52 75
    endloop
  endfacet
  facet normal -0 0 1
    outer loop
      vertex 5 52 5
      vertex 78 5 5
      vertex 78 52 5
    endloop
  endfacet
  facet normal 0 0 1
    outer loop
      vertex 78 5 5
      vertex 5 52 5
      vertex 5 5 5
    endloop
  endfacet
  facet normal 0 1 -0
    outer loop
      vertex 78 5 5
      vertex 5 5 55
      vertex 78 5 55
    endloop
  endfacet
  facet normal 0 1 0
    outer loop
      vertex 5 5 55
      vertex 78 5 5
      vertex 5 5 5
    endloop
  endfacet
  facet normal 0 -1 0
    outer loop
      vertex 5 52 5
      vertex 78 52 75
      vertex 5 52 75
    endloop
  endfacet
  facet normal 0 -1 -0
    outer loop
      vertex 78 52 75
      vertex 5 52 5
      vertex 78 52 5
    endloop
  endfacet
endsolid OpenSCAD_Model
