solid OpenSCAD_Model
  facet normal -1 0 0
    outer loop
      vertex 0 0 0
      vertex 0 57 55
      vertex 0 57 0
    endloop
  endfacet
  facet normal -1 -0 0
    outer loop
      vertex 0 57 55
      vertex 0 0 0
      vertex 0 0 55
    endloop
  endfacet
  facet normal 0 0 1
    outer loop
      vertex 80 54 75
      vertex 78 52 75
      vertex 80 52 75
    endloop
  endfacet
  facet normal 0 0 1
    outer loop
      vertex 80 54 75
      vertex 5 52 75
      vertex 78 52 75
    endloop
  endfacet
  facet normal -0 0 1
    outer loop
      vertex 3 54 75
      vertex 5 52 75
      vertex 80 54 75
    endloop
  endfacet
  facet normal 0 0 1
    outer loop
      vertex 5 52 75
      vertex 3 54 75
      vertex 3 52 75
    endloop
  endfacet
  facet normal 1 -0 0
    outer loop
      vertex 83 0 55
      vertex 83 57 0
      vertex 83 57 55
    endloop
  endfacet
  facet normal 1 0 0
    outer loop
      vertex 83 57 0
      vertex 83 0 55
      vertex 83 0 0
    endloop
  endfacet
  facet normal 0 0 -1
    outer loop
      vertex 0 0 0
      vertex 83 57 0
      vertex 83 0 0
    endloop
  endfacet
  facet normal -0 0 -1
    outer loop
      vertex 83 57 0
      vertex 0 0 0
      vertex 0 57 0
    endloop
  endfacet
  facet normal 0 -1 0
    outer loop
      vertex 0 0 0
      vertex 83 0 55
      vertex 0 0 55
    endloop
  endfacet
  facet normal 0 -1 -0
    outer loop
      vertex 83 0 55
      vertex 0 0 0
      vertex 83 0 0
    endloop
  endfacet
  facet normal 0 1 -0
    outer loop
      vertex 83 57 0
      vertex 0 57 55
      vertex 83 57 55
    endloop
  endfacet
  facet normal 0 1 0
    outer loop
      vertex 0 57 55
      vertex 83 57 0
      vertex 0 57 0
    endloop
  endfacet
  facet normal 0 -0.391555 0.920155
    outer loop
      vertex 5 52 75
      vertex 3 52 75
      vertex 5 5 55
    endloop
  endfacet
  facet normal 0 -0.391555 0.920155
    outer loop
      vertex 78 52 75
      vertex 80 5 55
      vertex 80 52 75
    endloop
  endfacet
  facet normal -1.86708e-07 -0.391555 0.920155
    outer loop
      vertex 78 5 55
      vertex 80 5 55
      vertex 78 52 75
    endloop
  endfacet
  facet normal -0 0 1
    outer loop
      vertex 5 5 55
      vertex 80 5 55
      vertex 78 5 55
    endloop
  endfacet
  facet normal 0 0 1
    outer loop
      vertex 5 5 55
      vertex 3 5 55
      vertex 80 5 55
    endloop
  endfacet
  facet normal 0 -0.391555 0.920155
    outer loop
      vertex 3 5 55
      vertex 5 5 55
      vertex 3 52 75
    endloop
  endfacet
  facet normal 0 0 1
    outer loop
      vertex 80 5 55
      vertex 83 57 55
      vertex 80 54 55
    endloop
  endfacet
  facet normal 0 0 1
    outer loop
      vertex 83 57 55
      vertex 3 54 55
      vertex 80 54 55
    endloop
  endfacet
  facet normal 0 0 1
    outer loop
      vertex 3 54 55
      vertex 0 57 55
      vertex 3 5 55
    endloop
  endfacet
  facet normal -0 0 1
    outer loop
      vertex 0 57 55
      vertex 3 54 55
      vertex 83 57 55
    endloop
  endfacet
  facet normal 0 0 1
    outer loop
      vertex 83 57 55
      vertex 80 5 55
      vertex 83 0 55
    endloop
  endfacet
  facet normal 0 0 1
    outer loop
      vertex 3 5 55
      vertex 83 0 55
      vertex 80 5 55
    endloop
  endfacet
  facet normal 0 0 1
    outer loop
      vertex 3 5 55
      vertex 0 0 55
      vertex 83 0 55
    endloop
  endfacet
  facet normal 0 0 1
    outer loop
      vertex 0 0 55
      vertex 3 5 55
      vertex 0 57 55
    endloop
  endfacet
  facet normal -1 0 0
    outer loop
      vertex 3 54 55
      vertex 3 52 75
      vertex 3 54 75
    endloop
  endfacet
  facet normal -1 0 -0
    outer loop
      vertex 3 52 75
      vertex 3 54 55
      vertex 3 5 55
    endloop
  endfacet
  facet normal 1 -0 0
    outer loop
      vertex 80 52 75
      vertex 80 54 55
      vertex 80 54 75
    endloop
  endfacet
  facet normal 1 0 0
    outer loop
      vertex 80 54 55
      vertex 80 52 75
      vertex 80 5 55
    endloop
  endfacet
  facet normal 0 1 0
    outer loop
      vertex 80 54 75
      vertex 41 54 67.5727
      vertex 3 54 75
    endloop
  endfacet
  facet normal 0 1 0
    outer loop
      vertex 80 54 75
      vertex 41.138 54 67.5569
      vertex 41 54 67.5727
    endloop
  endfacet
  facet normal 0 1 0
    outer loop
      vertex 80 54 75
      vertex 41.4874 54 67.5166
      vertex 41.138 54 67.5569
    endloop
  endfacet
  facet normal 0 1 0
    outer loop
      vertex 80 54 75
      vertex 41.7375 54 67.4331
      vertex 41.4874 54 67.5166
    endloop
  endfacet
  facet normal 0 1 0
    outer loop
      vertex 80 54 75
      vertex 42.0898 54 67.3155
      vertex 41.7375 54 67.4331
    endloop
  endfacet
  facet normal 0 1 0
    outer loop
      vertex 80 54 75
      vertex 42.4631 54 67.1213
      vertex 42.0898 54 67.3155
    endloop
  endfacet
  facet normal 0 1 0
    outer loop
      vertex 80 54 75
      vertex 43.0646 54 66.5286
      vertex 42.4631 54 67.1213
    endloop
  endfacet
  facet normal 0 1 0
    outer loop
      vertex 80 54 75
      vertex 43.1988 54 66.362
      vertex 43.0646 54 66.5286
    endloop
  endfacet
  facet normal 0 1 0
    outer loop
      vertex 80 54 75
      vertex 43.4354 54 65.7049
      vertex 43.1988 54 66.362
    endloop
  endfacet
  facet normal 0 1 0
    outer loop
      vertex 80 54 75
      vertex 43.5203 54 65.4693
      vertex 43.4354 54 65.7049
    endloop
  endfacet
  facet normal 0 1 0
    outer loop
      vertex 80 54 75
      vertex 43.5203 54 64.5307
      vertex 43.5203 54 65.4693
    endloop
  endfacet
  facet normal 0 1 -0
    outer loop
      vertex 80 54 55
      vertex 43.5203 54 64.5307
      vertex 80 54 75
    endloop
  endfacet
  facet normal 0 1 0
    outer loop
      vertex 43.5203 54 64.5307
      vertex 80 54 55
      vertex 43.4354 54 64.2951
    endloop
  endfacet
  facet normal 0 1 0
    outer loop
      vertex 43.4354 54 64.2951
      vertex 80 54 55
      vertex 43.1988 54 63.638
    endloop
  endfacet
  facet normal 0 1 0
    outer loop
      vertex 43.1988 54 63.638
      vertex 80 54 55
      vertex 43.0646 54 63.4714
    endloop
  endfacet
  facet normal 0 1 0
    outer loop
      vertex 43.0646 54 63.4714
      vertex 80 54 55
      vertex 42.4631 54 62.8787
    endloop
  endfacet
  facet normal 0 1 0
    outer loop
      vertex 42.4631 54 62.8787
      vertex 80 54 55
      vertex 42.0898 54 62.6845
    endloop
  endfacet
  facet normal 0 1 0
    outer loop
      vertex 42.0898 54 62.6845
      vertex 80 54 55
      vertex 41.7375 54 62.5669
    endloop
  endfacet
  facet normal 0 1 0
    outer loop
      vertex 41.138 54 62.4431
      vertex 80 54 55
      vertex 41 54 62.4273
    endloop
  endfacet
  facet normal 0 1 0
    outer loop
      vertex 41.4874 54 62.4833
      vertex 80 54 55
      vertex 41.138 54 62.4431
    endloop
  endfacet
  facet normal 0 1 0
    outer loop
      vertex 41.7375 54 62.5669
      vertex 80 54 55
      vertex 41.4874 54 62.4833
    endloop
  endfacet
  facet normal 0 1 -0
    outer loop
      vertex 40.862 54 67.5569
      vertex 3 54 75
      vertex 41 54 67.5727
    endloop
  endfacet
  facet normal 0 1 -0
    outer loop
      vertex 40.5126 54 67.5166
      vertex 3 54 75
      vertex 40.862 54 67.5569
    endloop
  endfacet
  facet normal 0 1 -0
    outer loop
      vertex 40.2625 54 67.4331
      vertex 3 54 75
      vertex 40.5126 54 67.5166
    endloop
  endfacet
  facet normal 0 1 -0
    outer loop
      vertex 39.9102 54 67.3155
      vertex 3 54 75
      vertex 40.2625 54 67.4331
    endloop
  endfacet
  facet normal 0 1 -0
    outer loop
      vertex 39.5369 54 67.1213
      vertex 3 54 75
      vertex 39.9102 54 67.3155
    endloop
  endfacet
  facet normal 0 1 -0
    outer loop
      vertex 38.9354 54 66.5286
      vertex 3 54 75
      vertex 39.5369 54 67.1213
    endloop
  endfacet
  facet normal 0 1 -0
    outer loop
      vertex 38.8012 54 66.362
      vertex 3 54 75
      vertex 38.9354 54 66.5286
    endloop
  endfacet
  facet normal 0 1 -0
    outer loop
      vertex 38.5646 54 65.7049
      vertex 3 54 75
      vertex 38.8012 54 66.362
    endloop
  endfacet
  facet normal 0 1 -0
    outer loop
      vertex 38.4797 54 65.4693
      vertex 3 54 75
      vertex 38.5646 54 65.7049
    endloop
  endfacet
  facet normal 0 1 -0
    outer loop
      vertex 38.4797 54 64.5307
      vertex 3 54 75
      vertex 38.4797 54 65.4693
    endloop
  endfacet
  facet normal 0 1 0
    outer loop
      vertex 3 54 55
      vertex 38.4797 54 64.5307
      vertex 38.5646 54 64.2951
    endloop
  endfacet
  facet normal 0 1 0
    outer loop
      vertex 3 54 55
      vertex 38.5646 54 64.2951
      vertex 38.8012 54 63.638
    endloop
  endfacet
  facet normal 0 1 0
    outer loop
      vertex 3 54 55
      vertex 38.8012 54 63.638
      vertex 38.9354 54 63.4714
    endloop
  endfacet
  facet normal 0 1 0
    outer loop
      vertex 3 54 55
      vertex 38.9354 54 63.4714
      vertex 39.5369 54 62.8787
    endloop
  endfacet
  facet normal 0 1 0
    outer loop
      vertex 3 54 55
      vertex 39.5369 54 62.8787
      vertex 39.9102 54 62.6845
    endloop
  endfacet
  facet normal 0 1 0
    outer loop
      vertex 3 54 55
      vertex 39.9102 54 62.6845
      vertex 40.2625 54 62.5669
    endloop
  endfacet
  facet normal 0 1 0
    outer loop
      vertex 3 54 55
      vertex 40.2625 54 62.5669
      vertex 40.5126 54 62.4833
    endloop
  endfacet
  facet normal 0 1 0
    outer loop
      vertex 3 54 55
      vertex 41 54 62.4273
      vertex 80 54 55
    endloop
  endfacet
  facet normal 0 1 0
    outer loop
      vertex 41 54 62.4273
      vertex 3 54 55
      vertex 40.862 54 62.4431
    endloop
  endfacet
  facet normal 0 1 0
    outer loop
      vertex 38.4797 54 64.5307
      vertex 3 54 55
      vertex 3 54 75
    endloop
  endfacet
  facet normal 0 1 0
    outer loop
      vertex 40.862 54 62.4431
      vertex 3 54 55
      vertex 40.5126 54 62.4833
    endloop
  endfacet
  facet normal 0.368849 0.723908 0.583016
    outer loop
      vertex 42.5712 54.6625 66.362
      vertex 41.826 55.0422 66.362
      vertex 42.2469 54.2162 67.1213
    endloop
  endfacet
  facet normal 0.368851 0.723908 0.583015
    outer loop
      vertex 41.826 55.0422 66.362
      vertex 41.6555 54.5175 67.1213
      vertex 42.2469 54.2162 67.1213
    endloop
  endfacet
  facet normal 0.574496 0.574496 0.583018
    outer loop
      vertex 42.5712 54.6625 66.362
      vertex 43.0646 54 66.5286
      vertex 43.1625 54.0712 66.362
    endloop
  endfacet
  facet normal 0.574499 0.574497 0.583014
    outer loop
      vertex 42.5712 54.6625 66.362
      vertex 42.4631 54 67.1213
      vertex 43.0646 54 66.5286
    endloop
  endfacet
  facet normal 0.574491 0.574501 0.583017
    outer loop
      vertex 42.4631 54 67.1213
      vertex 42.5712 54.6625 66.362
      vertex 42.2469 54.2162 67.1213
    endloop
  endfacet
  facet normal -0.127099 0.802457 -0.583017
    outer loop
      vertex 40.3445 54.5175 62.8787
      vertex 40.174 55.0422 63.638
      vertex 41 55.173 63.638
    endloop
  endfacet
  facet normal -0.723907 0.368861 -0.58301
    outer loop
      vertex 38.9354 54 63.4714
      vertex 38.8012 54 63.638
      vertex 38.8375 54.0712 63.638
    endloop
  endfacet
  facet normal -0.673286 0.673286 0.305569
    outer loop
      vertex 38.6028 54.2416 65.4693
      vertex 39.4288 54.6625 66.362
      vertex 39.2584 54.8972 65.4693
    endloop
  endfacet
  facet normal -0.673287 0.673283 0.305572
    outer loop
      vertex 39.4288 54.6625 66.362
      vertex 38.6028 54.2416 65.4693
      vertex 38.8375 54.0712 66.362
    endloop
  endfacet
  facet normal -0.418988 0.418995 -0.805539
    outer loop
      vertex 39.9102 54 62.6845
      vertex 39.5369 54 62.8787
      vertex 39.7531 54.2162 62.8787
    endloop
  endfacet
  facet normal -0.574489 0.574499 -0.58302
    outer loop
      vertex 39.5369 54 62.8787
      vertex 39.4288 54.6625 63.638
      vertex 39.7531 54.2162 62.8787
    endloop
  endfacet
  facet normal -0.574495 0.574495 -0.583018
    outer loop
      vertex 38.9354 54 63.4714
      vertex 39.4288 54.6625 63.638
      vertex 39.5369 54 62.8787
    endloop
  endfacet
  facet normal -0.574502 0.574498 -0.583009
    outer loop
      vertex 39.4288 54.6625 63.638
      vertex 38.9354 54 63.4714
      vertex 38.8375 54.0712 63.638
    endloop
  endfacet
  facet normal 0.7239 0.368857 -0.583021
    outer loop
      vertex 43.1988 54 63.638
      vertex 43.0646 54 63.4714
      vertex 43.1625 54.0712 63.638
    endloop
  endfacet
  facet normal 0.0926802 0.585253 -0.805536
    outer loop
      vertex 41 54.6213 62.8787
      vertex 41.138 54 62.4431
      vertex 41 54 62.4273
    endloop
  endfacet
  facet normal 0.0926949 0.585255 -0.805534
    outer loop
      vertex 41.138 54 62.4431
      vertex 41 54.6213 62.8787
      vertex 41.6555 54.5175 62.8787
    endloop
  endfacet
  facet normal 0.673285 0.673285 0.305572
    outer loop
      vertex 42.7416 54.8972 65.4693
      vertex 43.1625 54.0712 66.362
      vertex 43.3972 54.2416 65.4693
    endloop
  endfacet
  facet normal 0.673285 0.673285 0.305572
    outer loop
      vertex 43.1625 54.0712 66.362
      vertex 42.7416 54.8972 65.4693
      vertex 42.5712 54.6625 66.362
    endloop
  endfacet
  facet normal 0.848383 0.432287 0.305571
    outer loop
      vertex 43.4354 54 65.7049
      vertex 43.1625 54.0712 66.362
      vertex 43.1988 54 66.362
    endloop
  endfacet
  facet normal 0.848385 0.432282 0.305572
    outer loop
      vertex 43.1625 54.0712 66.362
      vertex 43.4354 54 65.7049
      vertex 43.3972 54.2416 65.4693
    endloop
  endfacet
  facet normal 0.848389 0.432274 -0.305573
    outer loop
      vertex 43.4354 54 64.2951
      vertex 43.1625 54.0712 63.638
      vertex 43.3972 54.2416 64.5307
    endloop
  endfacet
  facet normal 0.848384 0.432287 -0.305569
    outer loop
      vertex 43.1625 54.0712 63.638
      vertex 43.4354 54 64.2951
      vertex 43.1988 54 63.638
    endloop
  endfacet
  facet normal 0.148953 0.940446 -0.305572
    outer loop
      vertex 41.9156 55.318 64.5307
      vertex 41 55.173 63.638
      vertex 41 55.4631 64.5307
    endloop
  endfacet
  facet normal 0.156435 0.987688 -0
    outer loop
      vertex 41.9156 55.318 64.5307
      vertex 41 55.4631 65.4693
      vertex 41.9156 55.318 65.4693
    endloop
  endfacet
  facet normal 0.156435 0.987688 0
    outer loop
      vertex 41 55.4631 65.4693
      vertex 41.9156 55.318 64.5307
      vertex 41 55.4631 64.5307
    endloop
  endfacet
  facet normal -0.148953 0.940447 0.30557
    outer loop
      vertex 41 55.4631 65.4693
      vertex 40.0844 55.318 65.4693
      vertex 41 55.173 66.362
    endloop
  endfacet
  facet normal 0.092709 0.585245 0.805539
    outer loop
      vertex 41.6555 54.5175 67.1213
      vertex 41.138 54 67.5569
      vertex 41.4874 54 67.5166
    endloop
  endfacet
  facet normal -0.848394 0.432273 0.305561
    outer loop
      vertex 38.6028 54.2416 65.4693
      vertex 38.4797 54 65.4693
      vertex 38.5646 54 65.7049
    endloop
  endfacet
  facet normal -0.269019 0.527965 -0.805532
    outer loop
      vertex 39.9102 54 62.6845
      vertex 40.3445 54.5175 62.8787
      vertex 40.2625 54 62.5669
    endloop
  endfacet
  facet normal -0.26901 0.52796 -0.805538
    outer loop
      vertex 40.3445 54.5175 62.8787
      vertex 39.9102 54 62.6845
      vertex 39.7531 54.2162 62.8787
    endloop
  endfacet
  facet normal -0.156435 0.987688 0
    outer loop
      vertex 41 55.4631 64.5307
      vertex 40.0844 55.318 65.4693
      vertex 41 55.4631 65.4693
    endloop
  endfacet
  facet normal -0.156435 0.987688 0
    outer loop
      vertex 40.0844 55.318 65.4693
      vertex 41 55.4631 64.5307
      vertex 40.0844 55.318 64.5307
    endloop
  endfacet
  facet normal 0.848392 0.432272 -0.30557
    outer loop
      vertex 43.4354 54 64.2951
      vertex 43.3972 54.2416 64.5307
      vertex 43.5203 54 64.5307
    endloop
  endfacet
  facet normal 0.368851 0.723907 -0.583017
    outer loop
      vertex 42.2469 54.2162 62.8787
      vertex 41.6555 54.5175 62.8787
      vertex 41.826 55.0422 63.638
    endloop
  endfacet
  facet normal 0.148953 0.940447 0.30557
    outer loop
      vertex 41 55.4631 65.4693
      vertex 41 55.173 66.362
      vertex 41.9156 55.318 65.4693
    endloop
  endfacet
  facet normal -0.673285 0.673285 -0.30557
    outer loop
      vertex 39.4288 54.6625 63.638
      vertex 38.6028 54.2416 64.5307
      vertex 39.2584 54.8972 64.5307
    endloop
  endfacet
  facet normal -0.673287 0.673283 -0.305573
    outer loop
      vertex 38.6028 54.2416 64.5307
      vertex 39.4288 54.6625 63.638
      vertex 38.8375 54.0712 63.638
    endloop
  endfacet
  facet normal -0.57449 0.5745 0.583018
    outer loop
      vertex 39.4288 54.6625 66.362
      vertex 39.5369 54 67.1213
      vertex 39.7531 54.2162 67.1213
    endloop
  endfacet
  facet normal -0.574497 0.574496 0.583016
    outer loop
      vertex 39.4288 54.6625 66.362
      vertex 38.9354 54 66.5286
      vertex 39.5369 54 67.1213
    endloop
  endfacet
  facet normal -0.574502 0.574498 0.583009
    outer loop
      vertex 38.9354 54 66.5286
      vertex 39.4288 54.6625 66.362
      vertex 38.8375 54.0712 66.362
    endloop
  endfacet
  facet normal 0.432275 0.848389 0.305572
    outer loop
      vertex 42.7416 54.8972 65.4693
      vertex 41.826 55.0422 66.362
      vertex 42.5712 54.6625 66.362
    endloop
  endfacet
  facet normal 0.418993 0.419 0.805533
    outer loop
      vertex 42.2469 54.2162 67.1213
      vertex 42.0898 54 67.3155
      vertex 42.4631 54 67.1213
    endloop
  endfacet
  facet normal 0.269011 0.527969 0.805532
    outer loop
      vertex 42.2469 54.2162 67.1213
      vertex 41.7375 54 67.4331
      vertex 42.0898 54 67.3155
    endloop
  endfacet
  facet normal 0.269013 0.527965 0.805534
    outer loop
      vertex 41.7375 54 67.4331
      vertex 42.2469 54.2162 67.1213
      vertex 41.6555 54.5175 67.1213
    endloop
  endfacet
  facet normal -0.368851 0.723907 -0.583017
    outer loop
      vertex 40.3445 54.5175 62.8787
      vertex 39.7531 54.2162 62.8787
      vertex 40.174 55.0422 63.638
    endloop
  endfacet
  facet normal 0.574496 0.574496 -0.583018
    outer loop
      vertex 43.0646 54 63.4714
      vertex 42.5712 54.6625 63.638
      vertex 43.1625 54.0712 63.638
    endloop
  endfacet
  facet normal 0.574497 0.574496 -0.583016
    outer loop
      vertex 42.4631 54 62.8787
      vertex 42.5712 54.6625 63.638
      vertex 43.0646 54 63.4714
    endloop
  endfacet
  facet normal 0.57449 0.5745 -0.583019
    outer loop
      vertex 42.5712 54.6625 63.638
      vertex 42.4631 54 62.8787
      vertex 42.2469 54.2162 62.8787
    endloop
  endfacet
  facet normal 0.891009 0.453986 0
    outer loop
      vertex 43.5203 54 65.4693
      vertex 43.3972 54.2416 64.5307
      vertex 43.3972 54.2416 65.4693
    endloop
  endfacet
  facet normal 0.891009 0.453986 0
    outer loop
      vertex 43.3972 54.2416 64.5307
      vertex 43.5203 54 65.4693
      vertex 43.5203 54 64.5307
    endloop
  endfacet
  facet normal -0.432273 0.84839 -0.305571
    outer loop
      vertex 39.4288 54.6625 63.638
      vertex 39.2584 54.8972 64.5307
      vertex 40.174 55.0422 63.638
    endloop
  endfacet
  facet normal -0.891009 0.453986 0
    outer loop
      vertex 38.4797 54 64.5307
      vertex 38.6028 54.2416 65.4693
      vertex 38.6028 54.2416 64.5307
    endloop
  endfacet
  facet normal -0.891009 0.453986 0
    outer loop
      vertex 38.6028 54.2416 65.4693
      vertex 38.4797 54 64.5307
      vertex 38.4797 54 65.4693
    endloop
  endfacet
  facet normal 0.127099 0.802457 -0.583017
    outer loop
      vertex 41.6555 54.5175 62.8787
      vertex 41 55.173 63.638
      vertex 41.826 55.0422 63.638
    endloop
  endfacet
  facet normal 0.148954 0.940445 -0.305573
    outer loop
      vertex 41.826 55.0422 63.638
      vertex 41 55.173 63.638
      vertex 41.9156 55.318 64.5307
    endloop
  endfacet
  facet normal 0.45399 0.891007 -0
    outer loop
      vertex 42.7416 54.8972 64.5307
      vertex 41.9156 55.318 65.4693
      vertex 42.7416 54.8972 65.4693
    endloop
  endfacet
  facet normal 0.45399 0.891007 0
    outer loop
      vertex 41.9156 55.318 65.4693
      vertex 42.7416 54.8972 64.5307
      vertex 41.9156 55.318 64.5307
    endloop
  endfacet
  facet normal 0.432275 0.848389 0.305572
    outer loop
      vertex 41.9156 55.318 65.4693
      vertex 41.826 55.0422 66.362
      vertex 42.7416 54.8972 65.4693
    endloop
  endfacet
  facet normal 0.848394 0.432273 0.305561
    outer loop
      vertex 43.5203 54 65.4693
      vertex 43.3972 54.2416 65.4693
      vertex 43.4354 54 65.7049
    endloop
  endfacet
  facet normal 0.707107 0.707107 0
    outer loop
      vertex 43.3972 54.2416 65.4693
      vertex 42.7416 54.8972 64.5307
      vertex 42.7416 54.8972 65.4693
    endloop
  endfacet
  facet normal 0.707107 0.707107 0
    outer loop
      vertex 42.7416 54.8972 64.5307
      vertex 43.3972 54.2416 65.4693
      vertex 43.3972 54.2416 64.5307
    endloop
  endfacet
  facet normal 0.673285 0.673285 -0.305573
    outer loop
      vertex 43.3972 54.2416 64.5307
      vertex 42.5712 54.6625 63.638
      vertex 42.7416 54.8972 64.5307
    endloop
  endfacet
  facet normal 0.673285 0.673285 -0.305573
    outer loop
      vertex 42.5712 54.6625 63.638
      vertex 43.3972 54.2416 64.5307
      vertex 43.1625 54.0712 63.638
    endloop
  endfacet
  facet normal 0.127096 0.802457 0.583017
    outer loop
      vertex 41 55.173 66.362
      vertex 41 54.6213 67.1213
      vertex 41.6555 54.5175 67.1213
    endloop
  endfacet
  facet normal -0.432275 0.848389 0.305572
    outer loop
      vertex 40.0844 55.318 65.4693
      vertex 39.2584 54.8972 65.4693
      vertex 40.174 55.0422 66.362
    endloop
  endfacet
  facet normal 0.268996 0.527966 0.805539
    outer loop
      vertex 41.6555 54.5175 67.1213
      vertex 41.4874 54 67.5166
      vertex 41.7375 54 67.4331
    endloop
  endfacet
  facet normal 0.7239 0.368857 0.583021
    outer loop
      vertex 43.1625 54.0712 66.362
      vertex 43.0646 54 66.5286
      vertex 43.1988 54 66.362
    endloop
  endfacet
  facet normal -0.127096 0.802456 -0.583019
    outer loop
      vertex 41 54.6213 62.8787
      vertex 40.3445 54.5175 62.8787
      vertex 41 55.173 63.638
    endloop
  endfacet
  facet normal 0.127096 0.802456 -0.583019
    outer loop
      vertex 41.6555 54.5175 62.8787
      vertex 41 54.6213 62.8787
      vertex 41 55.173 63.638
    endloop
  endfacet
  facet normal -0.0926777 0.585254 -0.805537
    outer loop
      vertex 40.862 54 62.4431
      vertex 41 54.6213 62.8787
      vertex 41 54 62.4273
    endloop
  endfacet
  facet normal -0.092695 0.585255 -0.805533
    outer loop
      vertex 41 54.6213 62.8787
      vertex 40.862 54 62.4431
      vertex 40.3445 54.5175 62.8787
    endloop
  endfacet
  facet normal -0.848384 0.432287 -0.305569
    outer loop
      vertex 38.5646 54 64.2951
      vertex 38.8375 54.0712 63.638
      vertex 38.8012 54 63.638
    endloop
  endfacet
  facet normal -0.848389 0.432274 -0.305573
    outer loop
      vertex 38.8375 54.0712 63.638
      vertex 38.5646 54 64.2951
      vertex 38.6028 54.2416 64.5307
    endloop
  endfacet
  facet normal -0.848392 0.432272 -0.30557
    outer loop
      vertex 38.5646 54 64.2951
      vertex 38.4797 54 64.5307
      vertex 38.6028 54.2416 64.5307
    endloop
  endfacet
  facet normal -0.368851 0.723908 0.583015
    outer loop
      vertex 40.174 55.0422 66.362
      vertex 39.7531 54.2162 67.1213
      vertex 40.3445 54.5175 67.1213
    endloop
  endfacet
  facet normal -0.707107 0.707107 0
    outer loop
      vertex 38.6028 54.2416 64.5307
      vertex 39.2584 54.8972 65.4693
      vertex 39.2584 54.8972 64.5307
    endloop
  endfacet
  facet normal -0.707107 0.707107 0
    outer loop
      vertex 39.2584 54.8972 65.4693
      vertex 38.6028 54.2416 64.5307
      vertex 38.6028 54.2416 65.4693
    endloop
  endfacet
  facet normal 0.148954 0.940446 0.305572
    outer loop
      vertex 41.9156 55.318 65.4693
      vertex 41 55.173 66.362
      vertex 41.826 55.0422 66.362
    endloop
  endfacet
  facet normal 0.127099 0.802458 0.583015
    outer loop
      vertex 41.826 55.0422 66.362
      vertex 41 55.173 66.362
      vertex 41.6555 54.5175 67.1213
    endloop
  endfacet
  facet normal 0.368848 0.723907 -0.583018
    outer loop
      vertex 42.2469 54.2162 62.8787
      vertex 41.826 55.0422 63.638
      vertex 42.5712 54.6625 63.638
    endloop
  endfacet
  facet normal -0.848385 0.432282 0.305572
    outer loop
      vertex 38.5646 54 65.7049
      vertex 38.8375 54.0712 66.362
      vertex 38.6028 54.2416 65.4693
    endloop
  endfacet
  facet normal -0.848383 0.432287 0.305571
    outer loop
      vertex 38.8375 54.0712 66.362
      vertex 38.5646 54 65.7049
      vertex 38.8012 54 66.362
    endloop
  endfacet
  facet normal -0.418993 0.419 0.805533
    outer loop
      vertex 39.7531 54.2162 67.1213
      vertex 39.5369 54 67.1213
      vertex 39.9102 54 67.3155
    endloop
  endfacet
  facet normal 0.0926949 0.585255 0.805534
    outer loop
      vertex 41 54.6213 67.1213
      vertex 41.138 54 67.5569
      vertex 41.6555 54.5175 67.1213
    endloop
  endfacet
  facet normal 0.092702 0.585255 0.805532
    outer loop
      vertex 41.138 54 67.5569
      vertex 41 54.6213 67.1213
      vertex 41 54 67.5727
    endloop
  endfacet
  facet normal -0.268996 0.527966 0.805539
    outer loop
      vertex 40.3445 54.5175 67.1213
      vertex 40.2625 54 67.4331
      vertex 40.5126 54 67.5166
    endloop
  endfacet
  facet normal -0.432274 0.848391 0.30557
    outer loop
      vertex 40.174 55.0422 66.362
      vertex 39.2584 54.8972 65.4693
      vertex 39.4288 54.6625 66.362
    endloop
  endfacet
  facet normal -0.368846 0.723907 -0.583019
    outer loop
      vertex 39.7531 54.2162 62.8787
      vertex 39.4288 54.6625 63.638
      vertex 40.174 55.0422 63.638
    endloop
  endfacet
  facet normal -0.148953 0.940446 -0.305572
    outer loop
      vertex 41 55.173 63.638
      vertex 40.0844 55.318 64.5307
      vertex 41 55.4631 64.5307
    endloop
  endfacet
  facet normal -0.148954 0.940445 -0.305573
    outer loop
      vertex 40.174 55.0422 63.638
      vertex 40.0844 55.318 64.5307
      vertex 41 55.173 63.638
    endloop
  endfacet
  facet normal 0.432275 0.848389 -0.305573
    outer loop
      vertex 42.5712 54.6625 63.638
      vertex 41.826 55.0422 63.638
      vertex 42.7416 54.8972 64.5307
    endloop
  endfacet
  facet normal 0.432275 0.848389 -0.305573
    outer loop
      vertex 42.7416 54.8972 64.5307
      vertex 41.826 55.0422 63.638
      vertex 41.9156 55.318 64.5307
    endloop
  endfacet
  facet normal -0.723907 0.368861 0.58301
    outer loop
      vertex 38.8375 54.0712 66.362
      vertex 38.8012 54 66.362
      vertex 38.9354 54 66.5286
    endloop
  endfacet
  facet normal -0.09271 0.585245 0.805539
    outer loop
      vertex 40.862 54 67.5569
      vertex 40.3445 54.5175 67.1213
      vertex 40.5126 54 67.5166
    endloop
  endfacet
  facet normal -0.148954 0.940446 0.305572
    outer loop
      vertex 41 55.173 66.362
      vertex 40.0844 55.318 65.4693
      vertex 40.174 55.0422 66.362
    endloop
  endfacet
  facet normal -0.127099 0.802458 0.583015
    outer loop
      vertex 41 55.173 66.362
      vertex 40.174 55.0422 66.362
      vertex 40.3445 54.5175 67.1213
    endloop
  endfacet
  facet normal -0.45399 0.891007 0
    outer loop
      vertex 40.0844 55.318 64.5307
      vertex 39.2584 54.8972 65.4693
      vertex 40.0844 55.318 65.4693
    endloop
  endfacet
  facet normal -0.45399 0.891007 0
    outer loop
      vertex 39.2584 54.8972 65.4693
      vertex 40.0844 55.318 64.5307
      vertex 39.2584 54.8972 64.5307
    endloop
  endfacet
  facet normal -0.432275 0.848389 -0.305573
    outer loop
      vertex 40.174 55.0422 63.638
      vertex 39.2584 54.8972 64.5307
      vertex 40.0844 55.318 64.5307
    endloop
  endfacet
  facet normal -0.269011 0.527965 0.805534
    outer loop
      vertex 40.3445 54.5175 67.1213
      vertex 39.9102 54 67.3155
      vertex 40.2625 54 67.4331
    endloop
  endfacet
  facet normal -0.269014 0.527967 0.805533
    outer loop
      vertex 39.9102 54 67.3155
      vertex 40.3445 54.5175 67.1213
      vertex 39.7531 54.2162 67.1213
    endloop
  endfacet
  facet normal -0.368847 0.723908 0.583017
    outer loop
      vertex 40.174 55.0422 66.362
      vertex 39.4288 54.6625 66.362
      vertex 39.7531 54.2162 67.1213
    endloop
  endfacet
  facet normal 0.269007 0.527966 -0.805535
    outer loop
      vertex 41.7375 54 62.5669
      vertex 41.4874 54 62.4833
      vertex 41.6555 54.5175 62.8787
    endloop
  endfacet
  facet normal -0.0926995 0.585256 0.805533
    outer loop
      vertex 41 54.6213 67.1213
      vertex 40.862 54 67.5569
      vertex 41 54 67.5727
    endloop
  endfacet
  facet normal -0.092695 0.585255 0.805533
    outer loop
      vertex 40.862 54 67.5569
      vertex 41 54.6213 67.1213
      vertex 40.3445 54.5175 67.1213
    endloop
  endfacet
  facet normal -0.127096 0.802457 0.583017
    outer loop
      vertex 41 55.173 66.362
      vertex 40.3445 54.5175 67.1213
      vertex 41 54.6213 67.1213
    endloop
  endfacet
  facet normal -0.0927008 0.585251 -0.805536
    outer loop
      vertex 40.5126 54 62.4833
      vertex 40.3445 54.5175 62.8787
      vertex 40.862 54 62.4431
    endloop
  endfacet
  facet normal 0.269022 0.527953 -0.805539
    outer loop
      vertex 41.7375 54 62.5669
      vertex 42.2469 54.2162 62.8787
      vertex 42.0898 54 62.6845
    endloop
  endfacet
  facet normal 0.269013 0.527965 -0.805534
    outer loop
      vertex 42.2469 54.2162 62.8787
      vertex 41.7375 54 62.5669
      vertex 41.6555 54.5175 62.8787
    endloop
  endfacet
  facet normal 0.418988 0.418995 -0.805539
    outer loop
      vertex 42.4631 54 62.8787
      vertex 42.0898 54 62.6845
      vertex 42.2469 54.2162 62.8787
    endloop
  endfacet
  facet normal -0.269007 0.527966 -0.805535
    outer loop
      vertex 40.5126 54 62.4833
      vertex 40.2625 54 62.5669
      vertex 40.3445 54.5175 62.8787
    endloop
  endfacet
  facet normal 0.0926998 0.585251 -0.805536
    outer loop
      vertex 41.4874 54 62.4833
      vertex 41.138 54 62.4431
      vertex 41.6555 54.5175 62.8787
    endloop
  endfacet
  facet normal 1 -0 0
    outer loop
      vertex 5 5 55
      vertex 5 52 5
      vertex 5 52 75
    endloop
  endfacet
  facet normal 1 0 0
    outer loop
      vertex 5 52 5
      vertex 5 5 55
      vertex 5 5 5
    endloop
  endfacet
  facet normal -1 0 0
    outer loop
      vertex 78 5 55
      vertex 78 52 5
      vertex 78 5 5
    endloop
  endfacet
  facet normal -1 0 0
    outer loop
      vertex 78 52 5
      vertex 78 5 55
      vertex 78 52 75
    endloop
  endfacet
  facet normal -0 0 1
    outer loop
      vertex 5 52 5
      vertex 78 5 5
      vertex 78 52 5
    endloop
  endfacet
  facet normal 0 0 1
    outer loop
      vertex 78 5 5
      vertex 5 52 5
      vertex 5 5 5
    endloop
  endfacet
  facet normal 0 1 -0
    outer loop
      vertex 78 5 5
      vertex 5 5 55
      vertex 78 5 55
    endloop
  endfacet
  facet normal 0 1 0
    outer loop
      vertex 5 5 55
      vertex 78 5 5
      vertex 5 5 5
    endloop
  endfacet
  facet normal 0 -1 0
    outer loop
      vertex 5 52 5
      vertex 78 52 75
      vertex 5 52 75
    endloop
  endfacet
  facet normal 0 -1 -0
    outer loop
      vertex 78 52 75
      vertex 5 52 5
      vertex 78 52 5
    endloop
  endfacet
  facet normal -1 0 0
    outer loop
      vertex -88 0 56
      vertex -88 57 111
      vertex -88 57 56
    endloop
  endfacet
  facet normal -1 -0 0
    outer loop
      vertex -88 57 111
      vertex -88 0 56
      vertex -88 0 111
    endloop
  endfacet
  facet normal -0 0 1
    outer loop
      vertex -88 57 111
      vertex -5 0 111
      vertex -5 57 111
    endloop
  endfacet
  facet normal 0 0 1
    outer loop
      vertex -5 0 111
      vertex -88 57 111
      vertex -88 0 111
    endloop
  endfacet
  facet normal 1 -0 0
    outer loop
      vertex -5 0 111
      vertex -5 57 56
      vertex -5 57 111
    endloop
  endfacet
  facet normal 1 0 0
    outer loop
      vertex -5 57 56
      vertex -5 0 111
      vertex -5 0 56
    endloop
  endfacet
  facet normal 0 1 -0
    outer loop
      vertex -5 57 56
      vertex -88 57 111
      vertex -5 57 111
    endloop
  endfacet
  facet normal 0 1 0
    outer loop
      vertex -88 57 111
      vertex -5 57 56
      vertex -88 57 56
    endloop
  endfacet
  facet normal 0 0 -1
    outer loop
      vertex -5 0 56
      vertex -7 5 56
      vertex -5 57 56
    endloop
  endfacet
  facet normal 0 0 -1
    outer loop
      vertex -5 0 56
      vertex -86 5 56
      vertex -7 5 56
    endloop
  endfacet
  facet normal 0 0 -1
    outer loop
      vertex -88 57 56
      vertex -86 5 56
      vertex -88 0 56
    endloop
  endfacet
  facet normal 0 0 -1
    outer loop
      vertex -88 0 56
      vertex -86 5 56
      vertex -5 0 56
    endloop
  endfacet
  facet normal 0 0 -1
    outer loop
      vertex -7 55 56
      vertex -5 57 56
      vertex -7 5 56
    endloop
  endfacet
  facet normal 0 0 -1
    outer loop
      vertex -86 55 56
      vertex -5 57 56
      vertex -7 55 56
    endloop
  endfacet
  facet normal 0 0 -1
    outer loop
      vertex -86 55 56
      vertex -88 57 56
      vertex -5 57 56
    endloop
  endfacet
  facet normal 0 0 -1
    outer loop
      vertex -86 5 56
      vertex -88 57 56
      vertex -86 55 56
    endloop
  endfacet
  facet normal 0 -1 0
    outer loop
      vertex -88 0 56
      vertex -5 0 111
      vertex -88 0 111
    endloop
  endfacet
  facet normal 0 -1 -0
    outer loop
      vertex -5 0 111
      vertex -88 0 56
      vertex -5 0 56
    endloop
  endfacet
  facet normal 1 -0 0
    outer loop
      vertex -83 5 106
      vertex -83 52 74.8
      vertex -83 52 106
    endloop
  endfacet
  facet normal 1 0 0
    outer loop
      vertex -83 52 74.8
      vertex -83 5 106
      vertex -83 5 56
    endloop
  endfacet
  facet normal 0 0 -1
    outer loop
      vertex -83 5 106
      vertex -10 52 106
      vertex -10 5 106
    endloop
  endfacet
  facet normal -0 0 -1
    outer loop
      vertex -10 52 106
      vertex -83 5 106
      vertex -83 52 106
    endloop
  endfacet
  facet normal -1 0 0
    outer loop
      vertex -10 5 106
      vertex -10 52 74.8
      vertex -10 5 56
    endloop
  endfacet
  facet normal -1 0 0
    outer loop
      vertex -10 52 74.8
      vertex -10 5 106
      vertex -10 52 106
    endloop
  endfacet
  facet normal 0 -1 0
    outer loop
      vertex -83 52 74.8
      vertex -10 52 106
      vertex -83 52 106
    endloop
  endfacet
  facet normal 0 -1 -0
    outer loop
      vertex -10 52 106
      vertex -83 52 74.8
      vertex -10 52 74.8
    endloop
  endfacet
  facet normal 0 1 -0
    outer loop
      vertex -10 5 56
      vertex -83 5 106
      vertex -10 5 106
    endloop
  endfacet
  facet normal 0 1 0
    outer loop
      vertex -83 5 106
      vertex -10 5 56
      vertex -83 5 56
    endloop
  endfacet
  facet normal 0 -1 0
    outer loop
      vertex -86 55 76
      vertex -47 55 68.2095
      vertex -7 55 76
    endloop
  endfacet
  facet normal 0 -1 0
    outer loop
      vertex -86 55 76
      vertex -47.638 55 68.136
      vertex -47 55 68.2095
    endloop
  endfacet
  facet normal 0 -1 0
    outer loop
      vertex -86 55 76
      vertex -47.6498 55 68.1347
      vertex -47.638 55 68.136
    endloop
  endfacet
  facet normal 0 -1 0
    outer loop
      vertex -86 55 76
      vertex -47.6583 55 68.1319
      vertex -47.6498 55 68.1347
    endloop
  endfacet
  facet normal 0 -1 0
    outer loop
      vertex -86 55 76
      vertex -47.6899 55 68.1213
      vertex -47.6583 55 68.1319
    endloop
  endfacet
  facet normal 0 -1 0
    outer loop
      vertex -86 55 76
      vertex -48.1023 55 67.8604
      vertex -47.6899 55 68.1213
    endloop
  endfacet
  facet normal 0 -1 0
    outer loop
      vertex -86 55 76
      vertex -48.4531 55 67.6385
      vertex -48.1023 55 67.8604
    endloop
  endfacet
  facet normal 0 -1 0
    outer loop
      vertex -86 55 76
      vertex -48.7337 55 67.362
      vertex -48.4531 55 67.6385
    endloop
  endfacet
  facet normal 0 -1 0
    outer loop
      vertex -86 55 76
      vertex -49.1388 55 66.4693
      vertex -48.7337 55 67.362
    endloop
  endfacet
  facet normal 0 -1 0
    outer loop
      vertex -86 55 76
      vertex -49.1388 55 65.5307
      vertex -49.1388 55 66.4693
    endloop
  endfacet
  facet normal 0 -1 0
    outer loop
      vertex -86 55 56
      vertex -49.1388 55 65.5307
      vertex -86 55 76
    endloop
  endfacet
  facet normal 0 -1 -0
    outer loop
      vertex -49.1388 55 65.5307
      vertex -86 55 56
      vertex -48.7337 55 64.638
    endloop
  endfacet
  facet normal 0 -1 -0
    outer loop
      vertex -48.7337 55 64.638
      vertex -86 55 56
      vertex -48.4531 55 64.3615
    endloop
  endfacet
  facet normal 0 -1 -0
    outer loop
      vertex -48.4531 55 64.3615
      vertex -86 55 56
      vertex -48.1023 55 64.1396
    endloop
  endfacet
  facet normal 0 -1 -0
    outer loop
      vertex -48.1023 55 64.1396
      vertex -86 55 56
      vertex -47.6899 55 63.8787
    endloop
  endfacet
  facet normal 0 -1 -0
    outer loop
      vertex -47.6899 55 63.8787
      vertex -86 55 56
      vertex -47.6583 55 63.8681
    endloop
  endfacet
  facet normal 0 -1 0
    outer loop
      vertex -47.6498 55 63.8653
      vertex -47 55 63.7905
      vertex -47.638 55 63.864
    endloop
  endfacet
  facet normal 0 -1 -0
    outer loop
      vertex -47.6498 55 63.8653
      vertex -86 55 56
      vertex -47 55 63.7905
    endloop
  endfacet
  facet normal 0 -1 -0
    outer loop
      vertex -47.6583 55 63.8681
      vertex -86 55 56
      vertex -47.6498 55 63.8653
    endloop
  endfacet
  facet normal 0 -1 0
    outer loop
      vertex -46.362 55 68.136
      vertex -7 55 76
      vertex -47 55 68.2095
    endloop
  endfacet
  facet normal 0 -1 0
    outer loop
      vertex -46.3502 55 68.1347
      vertex -7 55 76
      vertex -46.362 55 68.136
    endloop
  endfacet
  facet normal 0 -1 0
    outer loop
      vertex -46.3417 55 68.1319
      vertex -7 55 76
      vertex -46.3502 55 68.1347
    endloop
  endfacet
  facet normal 0 -1 0
    outer loop
      vertex -46.3101 55 68.1213
      vertex -7 55 76
      vertex -46.3417 55 68.1319
    endloop
  endfacet
  facet normal 0 -1 0
    outer loop
      vertex -45.8977 55 67.8604
      vertex -7 55 76
      vertex -46.3101 55 68.1213
    endloop
  endfacet
  facet normal 0 -1 0
    outer loop
      vertex -45.5469 55 67.6385
      vertex -7 55 76
      vertex -45.8977 55 67.8604
    endloop
  endfacet
  facet normal 0 -1 0
    outer loop
      vertex -45.2663 55 67.362
      vertex -7 55 76
      vertex -45.5469 55 67.6385
    endloop
  endfacet
  facet normal 0 -1 0
    outer loop
      vertex -44.8612 55 66.4693
      vertex -7 55 76
      vertex -45.2663 55 67.362
    endloop
  endfacet
  facet normal 0 -1 0
    outer loop
      vertex -44.8612 55 65.5307
      vertex -7 55 76
      vertex -44.8612 55 66.4693
    endloop
  endfacet
  facet normal 0 -1 0
    outer loop
      vertex -7 55 56
      vertex -44.8612 55 65.5307
      vertex -45.2663 55 64.638
    endloop
  endfacet
  facet normal 0 -1 0
    outer loop
      vertex -7 55 56
      vertex -45.2663 55 64.638
      vertex -45.5469 55 64.3615
    endloop
  endfacet
  facet normal 0 -1 0
    outer loop
      vertex -7 55 56
      vertex -45.5469 55 64.3615
      vertex -45.8977 55 64.1396
    endloop
  endfacet
  facet normal 0 -1 0
    outer loop
      vertex -7 55 56
      vertex -45.8977 55 64.1396
      vertex -46.3101 55 63.8787
    endloop
  endfacet
  facet normal 0 -1 0
    outer loop
      vertex -7 55 56
      vertex -46.3101 55 63.8787
      vertex -46.3417 55 63.8681
    endloop
  endfacet
  facet normal 0 -1 0
    outer loop
      vertex -7 55 56
      vertex -46.3417 55 63.8681
      vertex -46.3502 55 63.8653
    endloop
  endfacet
  facet normal 0 -1 0
    outer loop
      vertex -47 55 63.7905
      vertex -46.3502 55 63.8653
      vertex -46.362 55 63.864
    endloop
  endfacet
  facet normal 0 -1 0
    outer loop
      vertex -7 55 56
      vertex -47 55 63.7905
      vertex -86 55 56
    endloop
  endfacet
  facet normal 0 -1 0
    outer loop
      vertex -44.8612 55 65.5307
      vertex -7 55 56
      vertex -7 55 76
    endloop
  endfacet
  facet normal 0 -1 0
    outer loop
      vertex -47 55 63.7905
      vertex -7 55 56
      vertex -46.3502 55 63.8653
    endloop
  endfacet
  facet normal 1 0 -0
    outer loop
      vertex -86 55 56
      vertex -86 55 76
      vertex -86 5 56
    endloop
  endfacet
  facet normal -1 0 -0
    outer loop
      vertex -7 55 76
      vertex -7 55 56
      vertex -7 5 56
    endloop
  endfacet
  facet normal 1.18062e-07 0.371391 -0.928477
    outer loop
      vertex -10 52 74.8
      vertex -7 5 56
      vertex -10 5 56
    endloop
  endfacet
  facet normal 0 0 -1
    outer loop
      vertex -7 5 56
      vertex -83 5 56
      vertex -10 5 56
    endloop
  endfacet
  facet normal 0 0.371391 -0.928477
    outer loop
      vertex -83 5 56
      vertex -86 5 56
      vertex -83 52 74.8
    endloop
  endfacet
  facet normal 0 0 -1
    outer loop
      vertex -86 5 56
      vertex -83 5 56
      vertex -7 5 56
    endloop
  endfacet
  facet normal -9.37412e-07 0.371391 -0.928477
    outer loop
      vertex -7 5 56
      vertex -10 52 74.8
      vertex -7 55 76
    endloop
  endfacet
  facet normal 0 0.37139 -0.928477
    outer loop
      vertex -83 52 74.8
      vertex -7 55 76
      vertex -10 52 74.8
    endloop
  endfacet
  facet normal 0 0.37139 -0.928477
    outer loop
      vertex -83 52 74.8
      vertex -86 55 76
      vertex -7 55 76
    endloop
  endfacet
  facet normal 9.44495e-07 0.371391 -0.928477
    outer loop
      vertex -86 55 76
      vertex -83 52 74.8
      vertex -86 5 56
    endloop
  endfacet
  facet normal -0.092693 -0.585251 -0.805537
    outer loop
      vertex -47 55.1213 68.1213
      vertex -46.362 55 68.136
      vertex -47 55 68.2095
    endloop
  endfacet
  facet normal -0.0926986 -0.585278 -0.805516
    outer loop
      vertex -46.362 55 68.136
      vertex -47 55.1213 68.1213
      vertex -46.3445 55.0175 68.1213
    endloop
  endfacet
  facet normal 0.269005 -0.527926 0.805562
    outer loop
      vertex -47.6498 55 63.8653
      vertex -47.6555 55.0175 63.8787
      vertex -47.6583 55 63.8681
    endloop
  endfacet
  facet normal 0.432275 -0.848389 -0.305572
    outer loop
      vertex -47.9156 55.818 66.4693
      vertex -47.826 55.5422 67.362
      vertex -48.7416 55.3972 66.4693
    endloop
  endfacet
  facet normal -0.673277 -0.673293 -0.305572
    outer loop
      vertex -45.2584 55.3972 66.4693
      vertex -45.2663 55 67.362
      vertex -45.4288 55.1625 67.362
    endloop
  endfacet
  facet normal -0.673286 -0.673286 -0.305569
    outer loop
      vertex -45.2663 55 67.362
      vertex -45.2584 55.3972 66.4693
      vertex -44.8612 55 66.4693
    endloop
  endfacet
  facet normal -0.148954 -0.940446 -0.305572
    outer loop
      vertex -46.0844 55.818 66.4693
      vertex -46.174 55.5422 67.362
      vertex -47 55.673 67.362
    endloop
  endfacet
  facet normal 0.368846 -0.723911 0.583015
    outer loop
      vertex -47.6899 55 63.8787
      vertex -47.826 55.5422 64.638
      vertex -48.1023 55 64.1396
    endloop
  endfacet
  facet normal 0.368834 -0.723915 0.583016
    outer loop
      vertex -47.826 55.5422 64.638
      vertex -47.6899 55 63.8787
      vertex -47.6555 55.0175 63.8787
    endloop
  endfacet
  facet normal -0.673278 -0.673294 0.305568
    outer loop
      vertex -44.8612 55 65.5307
      vertex -45.4288 55.1625 64.638
      vertex -45.2663 55 64.638
    endloop
  endfacet
  facet normal -0.673285 -0.673285 0.305574
    outer loop
      vertex -45.4288 55.1625 64.638
      vertex -44.8612 55 65.5307
      vertex -45.2584 55.3972 65.5307
    endloop
  endfacet
  facet normal 0.148953 -0.940446 0.305573
    outer loop
      vertex -47 55.673 64.638
      vertex -47 55.9631 65.5307
      vertex -47.9156 55.818 65.5307
    endloop
  endfacet
  facet normal -0.0926301 -0.585216 0.80557
    outer loop
      vertex -46.3502 55 63.8653
      vertex -46.3445 55.0175 63.8787
      vertex -46.362 55 63.864
    endloop
  endfacet
  facet normal -0.574492 -0.574505 -0.583012
    outer loop
      vertex -45.4288 55.1625 67.362
      vertex -45.2663 55 67.362
      vertex -45.5469 55 67.6385
    endloop
  endfacet
  facet normal 0.0925988 -0.585237 0.805558
    outer loop
      vertex -47.6498 55 63.8653
      vertex -47.638 55 63.864
      vertex -47.6555 55.0175 63.8787
    endloop
  endfacet
  facet normal 0.268915 -0.527802 -0.805673
    outer loop
      vertex -47.6555 55.0175 68.1213
      vertex -47.6583 55 68.1319
      vertex -47.6899 55 68.1213
    endloop
  endfacet
  facet normal 0.0931333 -0.584982 -0.805681
    outer loop
      vertex -47.638 55 68.136
      vertex -47.6498 55 68.1347
      vertex -47.6555 55.0175 68.1213
    endloop
  endfacet
  facet normal 0.368849 -0.723912 0.583011
    outer loop
      vertex -48.4531 55 64.3615
      vertex -47.826 55.5422 64.638
      vertex -48.5712 55.1625 64.638
    endloop
  endfacet
  facet normal 0.368846 -0.723911 0.583015
    outer loop
      vertex -47.826 55.5422 64.638
      vertex -48.4531 55 64.3615
      vertex -48.1023 55 64.1396
    endloop
  endfacet
  facet normal 0.127099 -0.802458 0.583015
    outer loop
      vertex -47.6555 55.0175 63.8787
      vertex -47 55.673 64.638
      vertex -47.826 55.5422 64.638
    endloop
  endfacet
  facet normal -0.707107 -0.707107 0
    outer loop
      vertex -44.8612 55 65.5307
      vertex -45.2584 55.3972 66.4693
      vertex -45.2584 55.3972 65.5307
    endloop
  endfacet
  facet normal -0.707107 -0.707107 0
    outer loop
      vertex -45.2584 55.3972 66.4693
      vertex -44.8612 55 65.5307
      vertex -44.8612 55 66.4693
    endloop
  endfacet
  facet normal -0.148953 -0.940446 0.305573
    outer loop
      vertex -46.0844 55.818 65.5307
      vertex -47 55.9631 65.5307
      vertex -47 55.673 64.638
    endloop
  endfacet
  facet normal 0.45399 -0.891007 0
    outer loop
      vertex -48.7416 55.3972 65.5307
      vertex -47.9156 55.818 66.4693
      vertex -48.7416 55.3972 66.4693
    endloop
  endfacet
  facet normal 0.45399 -0.891007 0
    outer loop
      vertex -47.9156 55.818 66.4693
      vertex -48.7416 55.3972 65.5307
      vertex -47.9156 55.818 65.5307
    endloop
  endfacet
  facet normal -0.45399 -0.891007 0
    outer loop
      vertex -46.0844 55.818 65.5307
      vertex -45.2584 55.3972 66.4693
      vertex -46.0844 55.818 66.4693
    endloop
  endfacet
  facet normal -0.45399 -0.891007 -0
    outer loop
      vertex -45.2584 55.3972 66.4693
      vertex -46.0844 55.818 65.5307
      vertex -45.2584 55.3972 65.5307
    endloop
  endfacet
  facet normal -0.127096 -0.802457 -0.583017
    outer loop
      vertex -47 55.673 67.362
      vertex -46.3445 55.0175 68.1213
      vertex -47 55.1213 68.1213
    endloop
  endfacet
  facet normal 0.156435 -0.987688 0
    outer loop
      vertex -47.9156 55.818 65.5307
      vertex -47 55.9631 66.4693
      vertex -47.9156 55.818 66.4693
    endloop
  endfacet
  facet normal 0.156435 -0.987688 0
    outer loop
      vertex -47 55.9631 66.4693
      vertex -47.9156 55.818 65.5307
      vertex -47 55.9631 65.5307
    endloop
  endfacet
  facet normal 0.368849 -0.723912 -0.583011
    outer loop
      vertex -47.826 55.5422 67.362
      vertex -48.4531 55 67.6385
      vertex -48.5712 55.1625 67.362
    endloop
  endfacet
  facet normal 0.368839 -0.723907 -0.583023
    outer loop
      vertex -48.4531 55 67.6385
      vertex -47.826 55.5422 67.362
      vertex -48.1023 55 67.8604
    endloop
  endfacet
  facet normal 0.148954 -0.940446 -0.305572
    outer loop
      vertex -47 55.673 67.362
      vertex -47.826 55.5422 67.362
      vertex -47.9156 55.818 66.4693
    endloop
  endfacet
  facet normal -0.268978 -0.527926 0.805571
    outer loop
      vertex -46.3417 55 63.8681
      vertex -46.3101 55 63.8787
      vertex -46.3445 55.0175 63.8787
    endloop
  endfacet
  facet normal -0.148954 -0.940445 0.305574
    outer loop
      vertex -46.174 55.5422 64.638
      vertex -46.0844 55.818 65.5307
      vertex -47 55.673 64.638
    endloop
  endfacet
  facet normal -0.127099 -0.802458 0.583015
    outer loop
      vertex -46.3445 55.0175 63.8787
      vertex -46.174 55.5422 64.638
      vertex -47 55.673 64.638
    endloop
  endfacet
  facet normal -0.156435 -0.987688 0
    outer loop
      vertex -47 55.9631 65.5307
      vertex -46.0844 55.818 66.4693
      vertex -47 55.9631 66.4693
    endloop
  endfacet
  facet normal -0.156435 -0.987688 -0
    outer loop
      vertex -46.0844 55.818 66.4693
      vertex -47 55.9631 65.5307
      vertex -46.0844 55.818 65.5307
    endloop
  endfacet
  facet normal 0.432274 -0.848391 -0.30557
    outer loop
      vertex -47.826 55.5422 67.362
      vertex -48.5712 55.1625 67.362
      vertex -48.7416 55.3972 66.4693
    endloop
  endfacet
  facet normal 0.673286 -0.673286 -0.305569
    outer loop
      vertex -48.7416 55.3972 66.4693
      vertex -48.7337 55 67.362
      vertex -49.1388 55 66.4693
    endloop
  endfacet
  facet normal 0.673286 -0.673286 -0.305569
    outer loop
      vertex -48.7337 55 67.362
      vertex -48.7416 55.3972 66.4693
      vertex -48.5712 55.1625 67.362
    endloop
  endfacet
  facet normal 0.707107 -0.707107 0
    outer loop
      vertex -49.1388 55 66.4693
      vertex -48.7416 55.3972 65.5307
      vertex -48.7416 55.3972 66.4693
    endloop
  endfacet
  facet normal 0.707107 -0.707107 0
    outer loop
      vertex -48.7416 55.3972 65.5307
      vertex -49.1388 55 66.4693
      vertex -49.1388 55 65.5307
    endloop
  endfacet
  facet normal -0.127099 -0.802458 -0.583015
    outer loop
      vertex -46.174 55.5422 67.362
      vertex -46.3445 55.0175 68.1213
      vertex -47 55.673 67.362
    endloop
  endfacet
  facet normal -0.368842 -0.723907 -0.583022
    outer loop
      vertex -46.174 55.5422 67.362
      vertex -45.5469 55 67.6385
      vertex -45.8977 55 67.8604
    endloop
  endfacet
  facet normal -0.36885 -0.723911 -0.583011
    outer loop
      vertex -45.5469 55 67.6385
      vertex -46.174 55.5422 67.362
      vertex -45.4288 55.1625 67.362
    endloop
  endfacet
  facet normal 0.127096 -0.802457 -0.583017
    outer loop
      vertex -47 55.673 67.362
      vertex -47 55.1213 68.1213
      vertex -47.6555 55.0175 68.1213
    endloop
  endfacet
  facet normal 0.092693 -0.585251 -0.805537
    outer loop
      vertex -47.638 55 68.136
      vertex -47 55.1213 68.1213
      vertex -47 55 68.2095
    endloop
  endfacet
  facet normal 0.0926986 -0.585278 -0.805516
    outer loop
      vertex -47 55.1213 68.1213
      vertex -47.638 55 68.136
      vertex -47.6555 55.0175 68.1213
    endloop
  endfacet
  facet normal 0.574499 -0.574499 -0.583011
    outer loop
      vertex -48.5712 55.1625 67.362
      vertex -48.4531 55 67.6385
      vertex -48.7337 55 67.362
    endloop
  endfacet
  facet normal 0.368856 -0.723906 -0.583014
    outer loop
      vertex -47.826 55.5422 67.362
      vertex -47.6899 55 68.1213
      vertex -48.1023 55 67.8604
    endloop
  endfacet
  facet normal 0.368834 -0.723915 -0.583016
    outer loop
      vertex -47.6899 55 68.1213
      vertex -47.826 55.5422 67.362
      vertex -47.6555 55.0175 68.1213
    endloop
  endfacet
  facet normal 0.127099 -0.802458 -0.583015
    outer loop
      vertex -47 55.673 67.362
      vertex -47.6555 55.0175 68.1213
      vertex -47.826 55.5422 67.362
    endloop
  endfacet
  facet normal -0.368834 -0.723915 -0.583016
    outer loop
      vertex -46.174 55.5422 67.362
      vertex -46.3101 55 68.1213
      vertex -46.3445 55.0175 68.1213
    endloop
  endfacet
  facet normal -0.368856 -0.723906 -0.583014
    outer loop
      vertex -46.3101 55 68.1213
      vertex -46.174 55.5422 67.362
      vertex -45.8977 55 67.8604
    endloop
  endfacet
  facet normal 0.26903 -0.527799 -0.805637
    outer loop
      vertex -47.6555 55.0175 68.1213
      vertex -47.6498 55 68.1347
      vertex -47.6583 55 68.1319
    endloop
  endfacet
  facet normal 0.432273 -0.84839 0.305572
    outer loop
      vertex -48.5712 55.1625 64.638
      vertex -47.826 55.5422 64.638
      vertex -48.7416 55.3972 65.5307
    endloop
  endfacet
  facet normal 0.127096 -0.802457 0.583017
    outer loop
      vertex -47 55.1213 63.8787
      vertex -47 55.673 64.638
      vertex -47.6555 55.0175 63.8787
    endloop
  endfacet
  facet normal -0.127096 -0.802457 0.583017
    outer loop
      vertex -46.3445 55.0175 63.8787
      vertex -47 55.673 64.638
      vertex -47 55.1213 63.8787
    endloop
  endfacet
  facet normal -0.574492 -0.574505 0.583012
    outer loop
      vertex -45.2663 55 64.638
      vertex -45.4288 55.1625 64.638
      vertex -45.5469 55 64.3615
    endloop
  endfacet
  facet normal -0.432275 -0.848389 -0.305572
    outer loop
      vertex -46.0844 55.818 66.4693
      vertex -45.2584 55.3972 66.4693
      vertex -46.174 55.5422 67.362
    endloop
  endfacet
  facet normal -0.432275 -0.848389 -0.305572
    outer loop
      vertex -45.2584 55.3972 66.4693
      vertex -45.4288 55.1625 67.362
      vertex -46.174 55.5422 67.362
    endloop
  endfacet
  facet normal -0.36885 -0.723911 0.583011
    outer loop
      vertex -46.174 55.5422 64.638
      vertex -45.5469 55 64.3615
      vertex -45.4288 55.1625 64.638
    endloop
  endfacet
  facet normal -0.368849 -0.72391 0.583013
    outer loop
      vertex -45.5469 55 64.3615
      vertex -46.174 55.5422 64.638
      vertex -45.8977 55 64.1396
    endloop
  endfacet
  facet normal -0.368834 -0.723915 0.583016
    outer loop
      vertex -46.3101 55 63.8787
      vertex -46.174 55.5422 64.638
      vertex -46.3445 55.0175 63.8787
    endloop
  endfacet
  facet normal -0.368846 -0.723911 0.583015
    outer loop
      vertex -46.174 55.5422 64.638
      vertex -46.3101 55 63.8787
      vertex -45.8977 55 64.1396
    endloop
  endfacet
  facet normal 0.148953 -0.940447 -0.30557
    outer loop
      vertex -47 55.9631 66.4693
      vertex -47 55.673 67.362
      vertex -47.9156 55.818 66.4693
    endloop
  endfacet
  facet normal -0.268915 -0.527802 -0.805673
    outer loop
      vertex -46.3101 55 68.1213
      vertex -46.3417 55 68.1319
      vertex -46.3445 55.0175 68.1213
    endloop
  endfacet
  facet normal -0.268896 -0.527929 0.805597
    outer loop
      vertex -46.3417 55 63.8681
      vertex -46.3445 55.0175 63.8787
      vertex -46.3502 55 63.8653
    endloop
  endfacet
  facet normal 0.673285 -0.673285 0.305572
    outer loop
      vertex -49.1388 55 65.5307
      vertex -48.5712 55.1625 64.638
      vertex -48.7416 55.3972 65.5307
    endloop
  endfacet
  facet normal 0.673285 -0.673285 0.305572
    outer loop
      vertex -48.5712 55.1625 64.638
      vertex -49.1388 55 65.5307
      vertex -48.7337 55 64.638
    endloop
  endfacet
  facet normal 0.574499 -0.574499 0.583011
    outer loop
      vertex -48.4531 55 64.3615
      vertex -48.5712 55.1625 64.638
      vertex -48.7337 55 64.638
    endloop
  endfacet
  facet normal 0.432275 -0.848388 0.305574
    outer loop
      vertex -47.826 55.5422 64.638
      vertex -47.9156 55.818 65.5307
      vertex -48.7416 55.3972 65.5307
    endloop
  endfacet
  facet normal 0.148954 -0.940445 0.305574
    outer loop
      vertex -47.826 55.5422 64.638
      vertex -47 55.673 64.638
      vertex -47.9156 55.818 65.5307
    endloop
  endfacet
  facet normal 0.268978 -0.527926 0.805571
    outer loop
      vertex -47.6583 55 63.8681
      vertex -47.6555 55.0175 63.8787
      vertex -47.6899 55 63.8787
    endloop
  endfacet
  facet normal 0.0926977 -0.585251 0.805536
    outer loop
      vertex -47 55.1213 63.8787
      vertex -47.638 55 63.864
      vertex -47 55 63.7905
    endloop
  endfacet
  facet normal 0.092683 -0.58518 0.80559
    outer loop
      vertex -47.638 55 63.864
      vertex -47 55.1213 63.8787
      vertex -47.6555 55.0175 63.8787
    endloop
  endfacet
  facet normal -0.092683 -0.58518 0.80559
    outer loop
      vertex -47 55.1213 63.8787
      vertex -46.362 55 63.864
      vertex -46.3445 55.0175 63.8787
    endloop
  endfacet
  facet normal -0.0926977 -0.585251 0.805536
    outer loop
      vertex -46.362 55 63.864
      vertex -47 55.1213 63.8787
      vertex -47 55 63.7905
    endloop
  endfacet
  facet normal -0.432275 -0.848389 0.305574
    outer loop
      vertex -45.4288 55.1625 64.638
      vertex -45.2584 55.3972 65.5307
      vertex -46.174 55.5422 64.638
    endloop
  endfacet
  facet normal -0.432275 -0.848388 0.305574
    outer loop
      vertex -45.2584 55.3972 65.5307
      vertex -46.0844 55.818 65.5307
      vertex -46.174 55.5422 64.638
    endloop
  endfacet
  facet normal -0.148953 -0.940447 -0.30557
    outer loop
      vertex -47 55.9631 66.4693
      vertex -46.0844 55.818 66.4693
      vertex -47 55.673 67.362
    endloop
  endfacet
  facet normal -0.268921 -0.527802 -0.805671
    outer loop
      vertex -46.3445 55.0175 68.1213
      vertex -46.3417 55 68.1319
      vertex -46.3502 55 68.1347
    endloop
  endfacet
  facet normal -0.0931648 -0.584961 -0.805693
    outer loop
      vertex -46.3445 55.0175 68.1213
      vertex -46.3502 55 68.1347
      vertex -46.362 55 68.136
    endloop
  endfacet
endsolid OpenSCAD_Model
