  0
SECTION
  2
HEADER
  9
$ACADVER
  1
AC1024
  9
$ACADMAINTVER
 70
6
  9
$DWGCODEPAGE
  3
ANSI_1252
  9
$LASTSAVEDBY
  1
ezdxf
  9
$INSBASE
 10
0.0
 20
0.0
 30
0.0
  9
$EXTMIN
 10
1e+20
 20
1e+20
 30
1e+20
  9
$EXTMAX
 10
-1e+20
 20
-1e+20
 30
-1e+20
  9
$LIMMIN
 10
0.0
 20
0.0
  9
$LIMMAX
 10
420.0
 20
297.0
  9
$ORTHOMODE
 70
0
  9
$REGENMODE
 70
1
  9
$FILLMODE
 70
1
  9
$QTEXTMODE
 70
0
  9
$MIRRTEXT
 70
1
  9
$LTSCALE
 40
1.0
  9
$ATTMODE
 70
1
  9
$TEXTSIZE
 40
2.5
  9
$TRACEWID
 40
1.0
  9
$TEXTSTYLE
  7
Standard
  9
$CLAYER
  8
0
  9
$CELTYPE
  6
ByLayer
  9
$CECOLOR
 62
256
  9
$CELTSCALE
 40
1.0
  9
$DISPSILH
 70
0
  9
$DIMSCALE
 40
1.0
  9
$DIMASZ
 40
2.5
  9
$DIMEXO
 40
0.625
  9
$DIMDLI
 40
3.75
  9
$DIMRND
 40
0.0
  9
$DIMDLE
 40
0.0
  9
$DIMEXE
 40
1.25
  9
$DIMTP
 40
0.0
  9
$DIMTM
 40
0.0
  9
$DIMTXT
 40
2.5
  9
$DIMCEN
 40
2.5
  9
$DIMTSZ
 40
0.0
  9
$DIMTOL
 70
0
  9
$DIMLIM
 70
0
  9
$DIMTIH
 70
0
  9
$DIMTOH
 70
0
  9
$DIMSE1
 70
0
  9
$DIMSE2
 70
0
  9
$DIMTAD
 70
1
  9
$DIMZIN
 70
8
  9
$DIMBLK
  1

  9
$DIMASO
 70
1
  9
$DIMSHO
 70
1
  9
$DIMPOST
  1

  9
$DIMAPOST
  1

  9
$DIMALT
 70
0
  9
$DIMALTD
 70
3
  9
$DIMALTF
 40
0.03937007874
  9
$DIMLFAC
 40
1.0
  9
$DIMTOFL
 70
1
  9
$DIMTVP
 40
0.0
  9
$DIMTIX
 70
0
  9
$DIMSOXD
 70
0
  9
$DIMSAH
 70
0
  9
$DIMBLK1
  1

  9
$DIMBLK2
  1

  9
$DIMSTYLE
  2
ISO-25
  9
$DIMCLRD
 70
0
  9
$DIMCLRE
 70
0
  9
$DIMCLRT
 70
0
  9
$DIMTFAC
 40
1.0
  9
$DIMGAP
 40
0.625
  9
$DIMJUST
 70
0
  9
$DIMSD1
 70
0
  9
$DIMSD2
 70
0
  9
$DIMTOLJ
 70
0
  9
$DIMTZIN
 70
8
  9
$DIMALTZ
 70
0
  9
$DIMALTTZ
 70
0
  9
$DIMUPT
 70
0
  9
$DIMDEC
 70
2
  9
$DIMTDEC
 70
2
  9
$DIMALTU
 70
2
  9
$DIMALTTD
 70
3
  9
$DIMTXSTY
  7
Standard
  9
$DIMAUNIT
 70
0
  9
$DIMADEC
 70
0
  9
$DIMALTRND
 40
0.0
  9
$DIMAZIN
 70
0
  9
$DIMDSEP
 70
44
  9
$DIMATFIT
 70
3
  9
$DIMFRAC
 70
0
  9
$DIMLDRBLK
  1

  9
$DIMLUNIT
 70
2
  9
$DIMLWD
 70
-2
  9
$DIMLWE
 70
-2
  9
$DIMTMOVE
 70
0
  9
$DIMFXL
 40
1.0
  9
$DIMFXLON
 70
0
  9
$DIMJOGANG
 40
0.785398163397
  9
$DIMTFILL
 70
0
  9
$DIMTFILLCLR
 70
0
  9
$DIMARCSYM
 70
0
  9
$DIMLTYPE
  6

  9
$DIMLTEX1
  6

  9
$DIMLTEX2
  6

  9
$DIMTXTDIRECTION
 70
0
  9
$LUNITS
 70
2
  9
$LUPREC
 70
4
  9
$SKETCHINC
 40
1.0
  9
$FILLETRAD
 40
10.0
  9
$AUNITS
 70
0
  9
$AUPREC
 70
2
  9
$MENU
  1
.
  9
$ELEVATION
 40
0.0
  9
$PELEVATION
 40
0.0
  9
$THICKNESS
 40
0.0
  9
$LIMCHECK
 70
0
  9
$CHAMFERA
 40
0.0
  9
$CHAMFERB
 40
0.0
  9
$CHAMFERC
 40
0.0
  9
$CHAMFERD
 40
0.0
  9
$SKPOLY
 70
0
  9
$TDCREATE
 40
2460482.5177314817
  9
$TDUCREATE
 40
2458532.153996898
  9
$TDUPDATE
 40
2460482.5177314817
  9
$TDUUPDATE
 40
2458532.1544311
  9
$TDINDWG
 40
0.0
  9
$TDUSRTIMER
 40
0.0
  9
$USRTIMER
 70
1
  9
$ANGBASE
 50
0.0
  9
$ANGDIR
 70
0
  9
$PDMODE
 70
0
  9
$PDSIZE
 40
0.0
  9
$PLINEWID
 40
0.0
  9
$SPLFRAME
 70
0
  9
$SPLINETYPE
 70
6
  9
$SPLINESEGS
 70
8
  9
$HANDSEED
  5
37
  9
$SURFTAB1
 70
6
  9
$SURFTAB2
 70
6
  9
$SURFTYPE
 70
6
  9
$SURFU
 70
6
  9
$SURFV
 70
6
  9
$UCSBASE
  2

  9
$UCSNAME
  2

  9
$UCSORG
 10
0.0
 20
0.0
 30
0.0
  9
$UCSXDIR
 10
1.0
 20
0.0
 30
0.0
  9
$UCSYDIR
 10
0.0
 20
1.0
 30
0.0
  9
$UCSORTHOREF
  2

  9
$UCSORTHOVIEW
 70
0
  9
$UCSORGTOP
 10
0.0
 20
0.0
 30
0.0
  9
$UCSORGBOTTOM
 10
0.0
 20
0.0
 30
0.0
  9
$UCSORGLEFT
 10
0.0
 20
0.0
 30
0.0
  9
$UCSORGRIGHT
 10
0.0
 20
0.0
 30
0.0
  9
$UCSORGFRONT
 10
0.0
 20
0.0
 30
0.0
  9
$UCSORGBACK
 10
0.0
 20
0.0
 30
0.0
  9
$PUCSBASE
  2

  9
$PUCSNAME
  2

  9
$PUCSORG
 10
0.0
 20
0.0
 30
0.0
  9
$PUCSXDIR
 10
1.0
 20
0.0
 30
0.0
  9
$PUCSYDIR
 10
0.0
 20
1.0
 30
0.0
  9
$PUCSORTHOREF
  2

  9
$PUCSORTHOVIEW
 70
0
  9
$PUCSORGTOP
 10
0.0
 20
0.0
 30
0.0
  9
$PUCSORGBOTTOM
 10
0.0
 20
0.0
 30
0.0
  9
$PUCSORGLEFT
 10
0.0
 20
0.0
 30
0.0
  9
$PUCSORGRIGHT
 10
0.0
 20
0.0
 30
0.0
  9
$PUCSORGFRONT
 10
0.0
 20
0.0
 30
0.0
  9
$PUCSORGBACK
 10
0.0
 20
0.0
 30
0.0
  9
$USERI1
 70
0
  9
$USERI2
 70
0
  9
$USERI3
 70
0
  9
$USERI4
 70
0
  9
$USERI5
 70
0
  9
$USERR1
 40
0.0
  9
$USERR2
 40
0.0
  9
$USERR3
 40
0.0
  9
$USERR4
 40
0.0
  9
$USERR5
 40
0.0
  9
$WORLDVIEW
 70
1
  9
$SHADEDGE
 70
3
  9
$SHADEDIF
 70
70
  9
$TILEMODE
 70
1
  9
$MAXACTVP
 70
64
  9
$PINSBASE
 10
0.0
 20
0.0
 30
0.0
  9
$PLIMCHECK
 70
0
  9
$PEXTMIN
 10
1e+20
 20
1e+20
 30
1e+20
  9
$PEXTMAX
 10
-1e+20
 20
-1e+20
 30
-1e+20
  9
$PLIMMIN
 10
0.0
 20
0.0
  9
$PLIMMAX
 10
420.0
 20
297.0
  9
$UNITMODE
 70
0
  9
$VISRETAIN
 70
1
  9
$PLINEGEN
 70
0
  9
$PSLTSCALE
 70
1
  9
$TREEDEPTH
 70
3020
  9
$CMLSTYLE
  2
Standard
  9
$CMLJUST
 70
0
  9
$CMLSCALE
 40
20.0
  9
$PROXYGRAPHICS
 70
1
  9
$MEASUREMENT
 70
1
  9
$CELWEIGHT
370
-1
  9
$ENDCAPS
280
0
  9
$JOINSTYLE
280
0
  9
$LWDISPLAY
290
0
  9
$INSUNITS
 70
4
  9
$HYPERLINKBASE
  1

  9
$STYLESHEET
  1

  9
$XEDIT
290
1
  9
$CEPSNTYPE
380
0
  9
$PSTYLEMODE
290
1
  9
$FINGERPRINTGUID
  2
{2E9A916B-CB68-49FD-9703-FBDCB480CB1E}
  9
$VERSIONGUID
  2
{52406699-3159-49C0-B91B-8A62B5163150}
  9
$EXTNAMES
290
1
  9
$PSVPSCALE
 40
0.0
  9
$OLESTARTUP
290
0
  9
$SORTENTS
280
127
  9
$INDEXCTL
280
0
  9
$HIDETEXT
280
1
  9
$XCLIPFRAME
280
0
  9
$HALOGAP
280
0
  9
$OBSCOLOR
 70
257
  9
$OBSLTYPE
280
0
  9
$INTERSECTIONDISPLAY
280
0
  9
$INTERSECTIONCOLOR
 70
257
  9
$DIMASSOC
280
2
  9
$PROJECTNAME
  1

  9
$CAMERADISPLAY
290
0
  9
$LENSLENGTH
 40
50.0
  9
$CAMERAHEIGHT
 40
0.0
  9
$STEPSPERSEC
 40
24.0
  9
$STEPSIZE
 40
100.0
  9
$3DDWFPREC
 40
2.0
  9
$PSOLWIDTH
 40
0.005
  9
$PSOLHEIGHT
 40
0.08
  9
$LOFTANG1
 40
1.570796326795
  9
$LOFTANG2
 40
1.570796326795
  9
$LOFTMAG1
 40
0.0
  9
$LOFTMAG2
 40
0.0
  9
$LOFTPARAM
 70
7
  9
$LOFTNORMALS
280
1
  9
$LATITUDE
 40
37.795
  9
$LONGITUDE
 40
-122.394
  9
$NORTHDIRECTION
 40
0.0
  9
$TIMEZONE
 70
-8000
  9
$LIGHTGLYPHDISPLAY
280
1
  9
$TILEMODELIGHTSYNCH
280
1
  9
$CMATERIAL
347
20
  9
$SOLIDHIST
280
0
  9
$SHOWHIST
280
1
  9
$DWFFRAME
280
2
  9
$DGNFRAME
280
2
  9
$REALWORLDSCALE
290
1
  9
$INTERFERECOLOR
 62
256
  9
$CSHADOW
280
0
  9
$SHADOWPLANELOCATION
 40
0.0
  0
ENDSEC
  0
SECTION
  2
CLASSES
  0
CLASS
  1
ACDBDICTIONARYWDFLT
  2
AcDbDictionaryWithDefault
  3
ObjectDBX Classes
 90
0
 91
0
280
0
281
0
  0
CLASS
  1
SUN
  2
AcDbSun
  3
SCENEOE
 90
1153
 91
0
280
0
281
0
  0
CLASS
  1
VISUALSTYLE
  2
AcDbVisualStyle
  3
ObjectDBX Classes
 90
4095
 91
0
280
0
281
0
  0
CLASS
  1
MATERIAL
  2
AcDbMaterial
  3
ObjectDBX Classes
 90
1153
 91
0
280
0
281
0
  0
CLASS
  1
SCALE
  2
AcDbScale
  3
ObjectDBX Classes
 90
1153
 91
0
280
0
281
0
  0
CLASS
  1
TABLESTYLE
  2
AcDbTableStyle
  3
ObjectDBX Classes
 90
4095
 91
0
280
0
281
0
  0
CLASS
  1
MLEADERSTYLE
  2
AcDbMLeaderStyle
  3
ACDB_MLEADERSTYLE_CLASS
 90
4095
 91
0
280
0
281
0
  0
CLASS
  1
DICTIONARYVAR
  2
AcDbDictionaryVar
  3
ObjectDBX Classes
 90
0
 91
0
280
0
281
0
  0
CLASS
  1
CELLSTYLEMAP
  2
AcDbCellStyleMap
  3
ObjectDBX Classes
 90
1152
 91
0
280
0
281
0
  0
CLASS
  1
MENTALRAYRENDERSETTINGS
  2
AcDbMentalRayRenderSettings
  3
SCENEOE
 90
1024
 91
0
280
0
281
0
  0
CLASS
  1
ACDBDETAILVIEWSTYLE
  2
AcDbDetailViewStyle
  3
ObjectDBX Classes
 90
1025
 91
0
280
0
281
0
  0
CLASS
  1
ACDBSECTIONVIEWSTYLE
  2
AcDbSectionViewStyle
  3
ObjectDBX Classes
 90
1025
 91
0
280
0
281
0
  0
CLASS
  1
RASTERVARIABLES
  2
AcDbRasterVariables
  3
ISM
 90
0
 91
0
280
0
281
0
  0
CLASS
  1
ACDBPLACEHOLDER
  2
AcDbPlaceHolder
  3
ObjectDBX Classes
 90
0
 91
0
280
0
281
0
  0
CLASS
  1
LAYOUT
  2
AcDbLayout
  3
ObjectDBX Classes
 90
0
 91
0
280
0
281
0
  0
ENDSEC
  0
SECTION
  2
TABLES
  0
TABLE
  2
VPORT
  5
8
330
0
100
AcDbSymbolTable
 70
1
  0
VPORT
  5
23
330
8
100
AcDbSymbolTableRecord
100
AcDbViewportTableRecord
  2
*Active
 70
0
 10
0.0
 20
0.0
 11
1.0
 21
1.0
 12
0.0
 22
0.0
 13
0.0
 23
0.0
 14
0.5
 24
0.5
 15
0.5
 25
0.5
 16
0.0
 26
0.0
 36
1.0
 17
0.0
 27
0.0
 37
0.0
 40
1000.0
 41
1.34
 42
50.0
 43
0.0
 44
0.0
 50
0.0
 51
0.0
 71
0
 72
1000
 73
1
 74
3
 75
0
 76
0
 77
0
 78
0
281
0
 65
0
146
0.0
  0
ENDTAB
  0
TABLE
  2
LTYPE
  5
2
330
0
100
AcDbSymbolTable
 70
3
  0
LTYPE
  5
24
330
2
100
AcDbSymbolTableRecord
100
AcDbLinetypeTableRecord
  2
ByBlock
 70
0
  3

 72
65
 73
0
 40
0.0
  0
LTYPE
  5
25
330
2
100
AcDbSymbolTableRecord
100
AcDbLinetypeTableRecord
  2
ByLayer
 70
0
  3

 72
65
 73
0
 40
0.0
  0
LTYPE
  5
26
330
2
100
AcDbSymbolTableRecord
100
AcDbLinetypeTableRecord
  2
Continuous
 70
0
  3

 72
65
 73
0
 40
0.0
  0
ENDTAB
  0
TABLE
  2
LAYER
  5
1
330
0
100
AcDbSymbolTable
 70
3
  0
LAYER
  5
27
330
1
100
AcDbSymbolTableRecord
100
AcDbLayerTableRecord
  2
0
 70
0
 62
7
  6
Continuous
370
-3
390
13
347
21
  0
LAYER
  5
28
330
1
100
AcDbSymbolTableRecord
100
AcDbLayerTableRecord
  2
Defpoints
 70
0
 62
7
  6
Continuous
290
0
370
-3
390
13
347
21
  0
LAYER
  5
2F
330
1
100
AcDbSymbolTableRecord
100
AcDbLayerTableRecord
  2
default
 70
0
 62
7
  6
Continuous
370
-3
390
13
347
21
  0
ENDTAB
  0
TABLE
  2
STYLE
  5
5
330
0
100
AcDbSymbolTable
 70
1
  0
STYLE
  5
29
330
5
100
AcDbSymbolTableRecord
100
AcDbTextStyleTableRecord
  2
Standard
 70
0
 40
0.0
 41
1.0
 50
0.0
 71
0
 42
2.5
  3
txt
  4

  0
ENDTAB
  0
TABLE
  2
VIEW
  5
7
330
0
100
AcDbSymbolTable
 70
0
  0
ENDTAB
  0
TABLE
  2
UCS
  5
6
330
0
100
AcDbSymbolTable
 70
0
  0
ENDTAB
  0
TABLE
  2
APPID
  5
3
330
0
100
AcDbSymbolTable
 70
3
  0
APPID
  5
2A
330
3
100
AcDbSymbolTableRecord
100
AcDbRegAppTableRecord
  2
ACAD
 70
0
  0
APPID
  5
34
330
3
100
AcDbSymbolTableRecord
100
AcDbRegAppTableRecord
  2
HATCHBACKGROUNDCOLOR
 70
0
  0
APPID
  5
35
330
3
100
AcDbSymbolTableRecord
100
AcDbRegAppTableRecord
  2
EZDXF
 70
0
  0
ENDTAB
  0
TABLE
  2
DIMSTYLE
  5
4
330
0
100
AcDbSymbolTable
 70
1
100
AcDbDimStyleTable
  0
DIMSTYLE
105
2B
330
4
100
AcDbSymbolTableRecord
100
AcDbDimStyleTableRecord
  2
Standard
 70
0
 40
1.0
 41
2.5
 42
0.625
 43
3.75
 44
1.25
 45
0.0
 46
0.0
 47
0.0
 48
0.0
 49
2.5
140
2.5
141
2.5
142
0.0
143
0.03937007874
144
1.0
145
0.0
146
1.0
147
0.625
148
0.0
 69
0
 70
0
 71
0
 72
0
 73
0
 74
0
 75
0
 76
0
 77
1
 78
8
 79
3
170
0
171
3
172
1
173
0
174
0
175
0
176
0
177
0
178
0
179
2
271
2
272
2
273
2
274
3
275
0
276
0
277
2
278
44
279
0
280
0
281
0
282
0
283
0
284
8
285
0
286
0
288
0
289
3
290
0
371
-2
372
-2
  0
ENDTAB
  0
TABLE
  2
BLOCK_RECORD
  5
9
330
0
100
AcDbSymbolTable
 70
2
  0
BLOCK_RECORD
  5
17
330
9
100
AcDbSymbolTableRecord
100
AcDbBlockTableRecord
  2
*Model_Space
340
1A
 70
0
280
1
281
0
  0
BLOCK_RECORD
  5
1B
330
9
100
AcDbSymbolTableRecord
100
AcDbBlockTableRecord
  2
*Paper_Space
340
1E
 70
0
280
1
281
0
  0
ENDTAB
  0
ENDSEC
  0
SECTION
  2
BLOCKS
  0
BLOCK
  5
18
330
17
100
AcDbEntity
  8
0
100
AcDbBlockBegin
  2
*Model_Space
 70
0
 10
0.0
 20
0.0
 30
0.0
  3
*Model_Space
  1

  0
ENDBLK
  5
19
330
17
100
AcDbEntity
  8
0
100
AcDbBlockEnd
  0
BLOCK
  5
1C
330
1B
100
AcDbEntity
  8
0
100
AcDbBlockBegin
  2
*Paper_Space
 70
0
 10
0.0
 20
0.0
 30
0.0
  3
*Paper_Space
  1

  0
ENDBLK
  5
1D
330
1B
100
AcDbEntity
  8
0
100
AcDbBlockEnd
  0
ENDSEC
  0
SECTION
  2
ENTITIES
  0
LWPOLYLINE
  5
30
330
17
100
AcDbEntity
  8
0
 62
0
100
AcDbPolyline
 90
234
 70
0
 10
25.051758154714253
 20
61.017951736003454
 10
26.65003442646596
 20
60.141917244293865
 10
28.32142474704749
 20
59.41502119410801
 10
30.05204853961884
 20
58.84330031807201
 10
31.827533304687794
 20
58.43150264867903
 10
33.63313398096836
 20
58.18304808678773
 10
35.45385540029376
 20
58.099999999999994
 10
56.19999999999999
 20
58.099999999999994
 10
56.19999999999999
 20
53.099999999999994
 10
60.999999999999986
 20
53.099999999999994
 10
60.999999999999986
 20
58.099999999999994
 10
76.19999999999999
 20
58.099999999999994
 10
76.19999999999999
 20
48.099999999999994
 10
35.45385540029376
 20
48.099999999999994
 10
34.998201785176605
 20
48.11038640471861
 10
33.1774803658512
 20
48.193434491506345
 10
32.269957251714196
 20
48.276396321190035
 10
30.464356575433627
 20
48.524850883081335
 10
29.56815438322848
 20
48.69008556032554
 10
27.79266961815953
 20
49.101883229718524
 10
26.9152311356299
 20
49.34801851214166
 10
25.18460734305855
 20
49.91973938817765
 10
24.333219528929394
 20
50.24473116935003
 10
22.661829208347864
 20
50.97162721953589
 10
21.843562675526734
 20
51.37277650489281
 10
20.245286403775026
 20
52.2488109966024
 10
19.466936699265453
 20
52.722786318077254
 10
17.955047854996273
 20
53.74068395246091
 10
17.582876265520696
 20
54.00377405558069
 10
17.36911010867563
 20
54.16231384257931
 10
16.55388209964361
 20
54.707031783247984
 10
14.824035906133727
 20
55.74386169045528
 10
13.959341747958964
 20
56.206050347191294
 10
12.136198134173211
 20
57.06833305790315
 10
11.23036530428915
 20
57.44354130128394
 10
9.3314821398601
 20
58.12297256162448
 10
8.393234303596676
 20
58.40758693115675
 10
6.436898871432939
 20
58.897623446674
 10
5.4752718683521815
 20
59.088902950393
 10
3.4803247481066717
 20
59.38482540156139
 10
2.5045795719273474
 20
59.48092791328227
 10
0.4902331949176513
 20
59.57988640512929
 10
-0.4902331949177132
 20
59.5798864051293
 10
-2.5045795719271697
 20
59.480927913282294
 10
-3.4803247481070514
 20
59.38482540156134
 10
-5.475271868352425
 20
59.088902950392956
 10
-6.436898871432583
 20
58.897623446674075
 10
-8.393234303596929
 20
58.407586931156686
 10
-9.331482139859983
 20
58.12297256162453
 10
-11.230365304289093
 20
57.44354130128396
 10
-12.136198134173153
 20
57.06833305790319
 10
-13.959341747959146
 20
56.206050347191194
 10
-14.824035906133815
 20
55.74386169045525
 10
-16.553882099643513
 20
54.707031783248034
 10
-17.36911010867582
 20
54.16231384257917
 10
-18.98899951743629
 20
52.96092197767168
 10
-19.74691028594976
 20
52.33892068461203
 10
-21.241242489432874
 20
50.98453692241097
 10
-21.93453692241098
 20
50.291242489432854
 10
-23.28892068461196
 20
48.796910285949835
 10
-23.910921977671705
 20
48.038999517436245
 10
-25.112313842579315
 20
46.41911010867562
 10
-25.65703178324798
 20
45.60388209964362
 10
-26.693861690455268
 20
43.874035906133756
 10
-27.15605034719129
 20
43.009341747958956
 10
-28.01833305790317
 20
41.186198134173175
 10
-28.393541301283975
 20
40.280365304289056
 10
-29.072972561624525
 20
38.38148213985997
 10
-29.357586931156742
 20
37.443234303596725
 10
-29.84762344667401
 20
35.486898871432906
 10
-30.038902950393048
 20
34.52527186835195
 10
-30.334825401561368
 20
32.53032474810701
 10
-30.430927913282275
 20
31.554579571927412
 10
-30.529886405129304
 20
29.54023319491761
 10
-30.529886405129304
 20
28.559766805082358
 10
-30.430927913282282
 20
26.54542042807268
 10
-30.33482540156137
 20
25.569675251893088
 10
-30.038902950393016
 20
23.574728131647888
 10
-29.847623446673992
 20
22.61310112856702
 10
-29.357586931156764
 20
20.65676569640334
 10
-29.07297256162447
 20
19.718517860139873
 10
-28.393541301284024
 20
17.819634695711084
 10
-28.018333057903106
 20
16.913801865826677
 10
-27.156050347191243
 20
15.090658252040944
 10
-26.69386169045531
 20
14.22596409386631
 10
-25.657031783247945
 20
12.496117900356325
 10
-25.11231384257922
 20
11.680889891324233
 10
-23.910921977671677
 20
10.061000482563694
 10
-23.288920684612048
 20
9.303089714050255
 10
-21.93453692241092
 20
7.808757510567066
 10
-21.241242489432967
 20
7.115463077589117
 10
-19.746910285949788
 20
5.761079315387994
 10
-18.988999517436287
 20
5.139078022328315
 10
-17.36911010867563
 20
3.9376861574206967
 10
-16.553882099643562
 20
3.392968216751984
 10
-14.824035906133734
 20
2.356138309544713
 10
-13.959341747958971
 20
1.8939496528087083
 10
-12.136198134173293
 20
1.0316669420968767
 10
-11.2303653042891
 20
0.6564586987160428
 10
-9.331482139859936
 20
-0.02297256162454163
 10
-8.393234303596733
 20
-0.3075869311567522
 10
-6.4368988714328
 20
-0.7976234466740406
 10
-5.475271868352139
 20
-0.9889029503930195
 10
-3.4803247481069435
 20
-1.2848254015613711
 10
-2.504579571927331
 20
-1.380927913282286
 10
-0.49023319491765655
 20
-1.4798864051293101
 10
0.4902331949176604
 20
-1.4798864051293101
 10
2.5045795719273514
 20
-1.380927913282285
 10
3.4803247481069493
 20
-1.2848254015613738
 10
5.475271868352139
 20
-0.9889029503930212
 10
6.4368988714328115
 20
-0.7976234466740393
 10
8.393234303596788
 20
-0.3075869311567395
 10
9.331482139859846
 20
-0.02297256162457398
 10
11.230365304289089
 20
0.656458698716038
 10
12.136198134173315
 20
1.0316669420968856
 10
13.959341747958936
 20
1.8939496528086937
 10
14.82403590613372
 20
2.35613830954471
 10
16.55388209964362
 20
3.392968216752022
 10
17.36911010867582
 20
3.937686157420817
 10
17.582876265520813
 20
4.096225944419379
 10
18.018225591779615
 20
4.401503365591026
 10
19.79084484787594
 20
5.575469766073606
 10
20.707101456959066
 20
6.114513234124047
 10
22.594327694623512
 20
7.093672702452075
 10
23.562629508680928
 20
7.532404546554483
 10
25.54313529679099
 20
8.305691659991696
 10
26.55253959478958
 20
8.639153797750012
 10
28.6039433555881
 20
9.197829684760713
 10
29.643042919775876
 20
9.42225368045003
 10
31.742161861746023
 20
9.760004778164951
 10
32.799213889939345
 20
9.872854429598807
 10
34.92232599514849
 20
9.985863833012445
 10
35.453855400293776
 20
10.000000000000004
 10
76.19999999999999
 20
10.000000000000004
 10
76.19999999999999
 20
3.552713678800501e-15
 10
35.453855400293776
 20
3.552713678800501e-15
 10
33.33074329508463
 20
-0.11300940341363486
 10
31.231624353114483
 20
-0.45076050112855626
 10
29.180220592315965
 20
-1.0094363881392567
 10
27.199714804205904
 20
-1.78272350157647
 10
25.312488566541457
 20
-2.761882969904498
 10
23.539869310445134
 20
-3.9358493703870785
 10
23.128926771946514
 20
-4.240625128550996
 10
21.9054700967649
 20
-5.058112743327117
 10
19.754502792876842
 20
-6.347352930381615
 10
18.456809597735806
 20
-7.040984394232062
 10
16.18983215300209
 20
-8.113184873331221
 10
14.830399932762065
 20
-8.676280136081608
 10
12.4692445792313
 20
-9.521115030487335
 10
11.061165409314647
 20
-9.948251176938134
 10
8.628571363780248
 20
-10.557584264783518
 10
7.185405816327254
 20
-10.844647740348153
 10
4.704800289239049
 20
-11.212610810901865
 10
3.2404468373864406
 20
-11.356837037385734
 10
0.7357194160069221
 20
-11.47988640512931
 10
-0.7357194160069173
 20
-11.47988640512931
 10
-3.2404468373864392
 20
-11.356837037385734
 10
-4.704800289239015
 20
-11.212610810901865
 10
-7.1854058163273065
 20
-10.844647740348142
 10
-8.628571363780217
 20
-10.557584264783525
 10
-11.061165409314599
 20
-9.948251176938147
 10
-12.469244579231328
 20
-9.521115030487323
 10
-14.830399932762125
 20
-8.676280136081584
 10
-16.189832153002055
 20
-8.113184873331237
 10
-18.45680959773583
 20
-7.040984394232053
 10
-19.754502792876846
 20
-6.347352930381618
 10
-21.9054700967649
 20
-5.058112743327116
 10
-23.12892677194637
 20
-4.240625128551085
 10
-25.143168944014203
 20
-2.7467613213128153
 10
-26.28060654264475
 20
-1.8132904082256445
 10
-28.138725329678326
 20
-0.1291897058964721
 10
-29.179189705896487
 20
0.9112746703216861
 10
-30.86329040822569
 20
2.7693934573553007
 10
-31.796761321312783
 20
3.9068310559857493
 10
-33.29062512855101
 20
5.921073228053502
 10
-34.10811274332704
 20
7.1445299032349805
 10
-35.39735293038166
 20
9.295497207123228
 10
-36.09098439423201
 20
10.593190402264094
 10
-37.16318487333121
 20
12.860167846997896
 10
-37.72628013608166
 20
14.219600067238083
 10
-38.57111503048725
 20
16.580755420768465
 10
-38.99825117693814
 20
17.988834590685425
 10
-39.60758426478348
 20
20.42142863621963
 10
-39.89464774034814
 20
21.86459418367272
 10
-40.26261081090186
 20
24.34519971076098
 10
-40.406837037385735
 20
25.80955316261363
 10
-40.529886405129304
 20
28.314280583993085
 10
-40.529886405129304
 20
29.785719416006902
 10
-40.40683703738573
 20
32.290446837386455
 10
-40.26261081090186
 20
33.75480028923908
 10
-39.89464774034817
 20
36.23540581632712
 10
-39.60758426478349
 20
37.678571363780335
 10
-38.99825117693814
 20
40.111165409314566
 10
-38.5711150304873
 20
41.51924457923138
 10
-37.72628013608162
 20
43.88039993276204
 10
-37.16318487333127
 20
45.23983215300198
 10
-36.090984394232066
 20
47.50680959773579
 10
-35.3973529303816
 20
48.80450279287686
 10
-34.10811274332712
 20
50.9554700967649
 10
-33.29062512855104
 20
52.178926771946436
 10
-31.796761321312857
 20
54.193168944014126
 10
-30.86329040822557
 20
55.33060654264483
 10
-29.179189705896558
 20
57.18872532967823
 10
-28.13872532967826
 20
58.22918970589654
 10
-26.280606542644758
 20
59.913290408225635
 10
-25.14316894401417
 20
60.84676132131284
 10
-23.128926771946535
 20
62.34062512855097
 10
-21.905470096764837
 20
63.158112743327145
 10
-19.754502792876917
 20
64.44735293038158
 10
-18.456809597735987
 20
65.14098439423196
 10
-16.189832153001955
 20
66.21318487333129
 10
-14.830399932762054
 20
66.77628013608161
 10
-12.469244579231471
 20
67.62111503048727
 10
-11.06116540931464
 20
68.04825117693812
 10
-8.628571363780113
 20
68.65758426478354
 10
-7.185405816327549
 20
68.94464774034809
 10
-4.704800289239177
 20
69.31261081090183
 10
-3.2404468373862922
 20
69.45683703738574
 10
-0.7357194160069211
 20
69.5798864051293
 10
0.7357194160069139
 20
69.57988640512929
 10
3.240446837386428
 20
69.45683703738572
 10
4.704800289238799
 20
69.31261081090189
 10
7.185405816327201
 20
68.94464774034815
 10
8.628571363780361
 20
68.65758426478348
 10
11.061165409314622
 20
68.04825117693812
 10
12.469244579231502
 20
67.62111503048726
 10
14.83039993276207
 20
66.77628013608161
 10
16.18983215300213
 20
66.2131848733312
 10
18.456809597735724
 20
65.1409843942321
 10
19.754502792876835
 20
64.44735293038161
 10
21.905470096764905
 20
63.15811274332711
 10
23.128926771946446
 20
62.34062512855104
 10
23.539869310445074
 20
62.03584937038711
 10
25.051758154714253
 20
61.017951736003454
  0
LWPOLYLINE
  5
31
330
17
100
AcDbEntity
  8
0
 62
0
100
AcDbPolyline
 90
234
 70
0
 10
25.051758154714253
 20
144.07795173600346
 10
26.65003442646596
 20
143.20191724429387
 10
28.32142474704749
 20
142.47502119410802
 10
30.05204853961884
 20
141.903300318072
 10
31.827533304687794
 20
141.49150264867905
 10
33.63313398096836
 20
141.24304808678772
 10
35.45385540029376
 20
141.16
 10
56.19999999999999
 20
141.16
 10
56.19999999999999
 20
136.16
 10
60.999999999999986
 20
136.16
 10
60.999999999999986
 20
141.16
 10
76.19999999999999
 20
141.16
 10
76.19999999999999
 20
131.16
 10
35.45385540029376
 20
131.16
 10
34.998201785176605
 20
131.1703864047186
 10
33.1774803658512
 20
131.25343449150634
 10
32.269957251714196
 20
131.33639632119002
 10
30.464356575433627
 20
131.58485088308134
 10
29.56815438322848
 20
131.75008556032554
 10
27.79266961815953
 20
132.1618832297185
 10
26.9152311356299
 20
132.40801851214167
 10
25.18460734305855
 20
132.97973938817765
 10
24.333219528929394
 20
133.30473116935002
 10
22.661829208347864
 20
134.0316272195359
 10
21.843562675526734
 20
134.43277650489281
 10
20.245286403775026
 20
135.3088109966024
 10
19.466936699265453
 20
135.78278631807726
 10
17.955047854996273
 20
136.80068395246093
 10
17.582876265520696
 20
137.0637740555807
 10
17.36911010867563
 20
137.2223138425793
 10
16.55388209964361
 20
137.767031783248
 10
14.824035906133727
 20
138.80386169045528
 10
13.959341747958964
 20
139.2660503471913
 10
12.136198134173211
 20
140.12833305790315
 10
11.23036530428915
 20
140.50354130128395
 10
9.3314821398601
 20
141.18297256162447
 10
8.393234303596676
 20
141.46758693115675
 10
6.436898871432939
 20
141.957623446674
 10
5.4752718683521815
 20
142.148902950393
 10
3.4803247481066717
 20
142.4448254015614
 10
2.5045795719273474
 20
142.54092791328227
 10
0.4902331949176513
 20
142.6398864051293
 10
-0.4902331949177132
 20
142.6398864051293
 10
-2.5045795719271697
 20
142.5409279132823
 10
-3.4803247481070514
 20
142.44482540156133
 10
-5.475271868352425
 20
142.14890295039297
 10
-6.436898871432583
 20
141.95762344667406
 10
-8.393234303596929
 20
141.4675869311567
 10
-9.331482139859983
 20
141.18297256162452
 10
-11.230365304289093
 20
140.50354130128397
 10
-12.136198134173153
 20
140.1283330579032
 10
-13.959341747959146
 20
139.2660503471912
 10
-14.824035906133815
 20
138.80386169045525
 10
-16.553882099643513
 20
137.76703178324803
 10
-17.36911010867582
 20
137.22231384257918
 10
-18.98899951743629
 20
136.0209219776717
 10
-19.74691028594976
 20
135.39892068461202
 10
-21.241242489432874
 20
134.04453692241097
 10
-21.93453692241098
 20
133.35124248943285
 10
-23.28892068461196
 20
131.85691028594982
 10
-23.910921977671705
 20
131.09899951743625
 10
-25.112313842579315
 20
129.47911010867563
 10
-25.65703178324798
 20
128.66388209964362
 10
-26.693861690455268
 20
126.93403590613376
 10
-27.15605034719129
 20
126.06934174795896
 10
-28.01833305790317
 20
124.24619813417317
 10
-28.393541301283975
 20
123.34036530428907
 10
-29.072972561624525
 20
121.44148213985997
 10
-29.357586931156742
 20
120.50323430359673
 10
-29.84762344667401
 20
118.54689887143292
 10
-30.038902950393048
 20
117.58527186835195
 10
-30.334825401561368
 20
115.59032474810701
 10
-30.430927913282275
 20
114.61457957192741
 10
-30.529886405129304
 20
112.60023319491762
 10
-30.529886405129304
 20
111.61976680508236
 10
-30.430927913282282
 20
109.60542042807268
 10
-30.33482540156137
 20
108.62967525189309
 10
-30.038902950393016
 20
106.63472813164789
 10
-29.847623446673992
 20
105.67310112856703
 10
-29.357586931156764
 20
103.71676569640334
 10
-29.07297256162447
 20
102.77851786013987
 10
-28.393541301284024
 20
100.87963469571109
 10
-28.018333057903106
 20
99.97380186582669
 10
-27.156050347191243
 20
98.15065825204094
 10
-26.69386169045531
 20
97.28596409386631
 10
-25.657031783247945
 20
95.55611790035633
 10
-25.11231384257922
 20
94.74088989132423
 10
-23.910921977671677
 20
93.1210004825637
 10
-23.288920684612048
 20
92.36308971405026
 10
-21.93453692241092
 20
90.86875751056706
 10
-21.241242489432967
 20
90.17546307758911
 10
-19.746910285949788
 20
88.82107931538799
 10
-18.988999517436287
 20
88.19907802232832
 10
-17.36911010867563
 20
86.9976861574207
 10
-16.553882099643562
 20
86.45296821675198
 10
-14.824035906133734
 20
85.41613830954472
 10
-13.959341747958971
 20
84.95394965280872
 10
-12.136198134173293
 20
84.09166694209688
 10
-11.2303653042891
 20
83.71645869871604
 10
-9.331482139859936
 20
83.03702743837546
 10
-8.393234303596733
 20
82.75241306884325
 10
-6.4368988714328
 20
82.26237655332596
 10
-5.475271868352139
 20
82.07109704960698
 10
-3.4803247481069435
 20
81.77517459843862
 10
-2.504579571927331
 20
81.67907208671771
 10
-0.49023319491765655
 20
81.5801135948707
 10
0.4902331949176604
 20
81.5801135948707
 10
2.5045795719273514
 20
81.67907208671772
 10
3.4803247481069493
 20
81.77517459843862
 10
5.475271868352139
 20
82.07109704960698
 10
6.4368988714328115
 20
82.26237655332596
 10
8.393234303596788
 20
82.75241306884327
 10
9.331482139859846
 20
83.03702743837543
 10
11.230365304289089
 20
83.71645869871604
 10
12.136198134173315
 20
84.0916669420969
 10
13.959341747958936
 20
84.9539496528087
 10
14.82403590613372
 20
85.4161383095447
 10
16.55388209964362
 20
86.45296821675203
 10
17.36911010867582
 20
86.99768615742082
 10
17.582876265520813
 20
87.15622594441938
 10
18.018225591779615
 20
87.46150336559103
 10
19.79084484787594
 20
88.63546976607361
 10
20.707101456959066
 20
89.17451323412405
 10
22.594327694623512
 20
90.15367270245207
 10
23.562629508680928
 20
90.59240454655449
 10
25.54313529679099
 20
91.3656916599917
 10
26.55253959478958
 20
91.69915379775001
 10
28.6039433555881
 20
92.25782968476071
 10
29.643042919775876
 20
92.48225368045003
 10
31.742161861746023
 20
92.82000477816496
 10
32.799213889939345
 20
92.9328544295988
 10
34.92232599514849
 20
93.04586383301245
 10
35.453855400293776
 20
93.06
 10
76.19999999999999
 20
93.06
 10
76.19999999999999
 20
83.06
 10
35.453855400293776
 20
83.06
 10
33.33074329508463
 20
82.94699059658637
 10
31.231624353114483
 20
82.60923949887145
 10
29.180220592315965
 20
82.05056361186075
 10
27.199714804205904
 20
81.27727649842353
 10
25.312488566541457
 20
80.29811703009551
 10
23.539869310445134
 20
79.12415062961293
 10
23.128926771946514
 20
78.819374871449
 10
21.9054700967649
 20
78.00188725667289
 10
19.754502792876842
 20
76.71264706961838
 10
18.456809597735806
 20
76.01901560576795
 10
16.18983215300209
 20
74.94681512666878
 10
14.830399932762065
 20
74.3837198639184
 10
12.4692445792313
 20
73.53888496951267
 10
11.061165409314647
 20
73.11174882306187
 10
8.628571363780248
 20
72.50241573521649
 10
7.185405816327254
 20
72.21535225965185
 10
4.704800289239049
 20
71.84738918909814
 10
3.2404468373864406
 20
71.70316296261427
 10
0.7357194160069221
 20
71.5801135948707
 10
-0.7357194160069173
 20
71.5801135948707
 10
-3.2404468373864392
 20
71.70316296261427
 10
-4.704800289239015
 20
71.84738918909814
 10
-7.1854058163273065
 20
72.21535225965187
 10
-8.628571363780217
 20
72.50241573521647
 10
-11.061165409314599
 20
73.11174882306186
 10
-12.469244579231328
 20
73.53888496951268
 10
-14.830399932762125
 20
74.38371986391842
 10
-16.189832153002055
 20
74.94681512666877
 10
-18.45680959773583
 20
76.01901560576795
 10
-19.754502792876846
 20
76.71264706961838
 10
-21.9054700967649
 20
78.00188725667289
 10
-23.12892677194637
 20
78.81937487144891
 10
-25.143168944014203
 20
80.31323867868718
 10
-26.28060654264475
 20
81.24670959177436
 10
-28.138725329678326
 20
82.93081029410354
 10
-29.179189705896487
 20
83.97127467032169
 10
-30.86329040822569
 20
85.82939345735531
 10
-31.796761321312783
 20
86.96683105598575
 10
-33.29062512855101
 20
88.9810732280535
 10
-34.10811274332704
 20
90.20452990323498
 10
-35.39735293038166
 20
92.35549720712324
 10
-36.09098439423201
 20
93.6531904022641
 10
-37.16318487333121
 20
95.9201678469979
 10
-37.72628013608166
 20
97.27960006723808
 10
-38.57111503048725
 20
99.64075542076847
 10
-38.99825117693814
 20
101.04883459068543
 10
-39.60758426478348
 20
103.48142863621963
 10
-39.89464774034814
 20
104.92459418367272
 10
-40.26261081090186
 20
107.40519971076098
 10
-40.406837037385735
 20
108.86955316261363
 10
-40.529886405129304
 20
111.37428058399308
 10
-40.529886405129304
 20
112.8457194160069
 10
-40.40683703738573
 20
115.35044683738646
 10
-40.26261081090186
 20
116.81480028923909
 10
-39.89464774034817
 20
119.29540581632713
 10
-39.60758426478349
 20
120.73857136378034
 10
-38.99825117693814
 20
123.17116540931457
 10
-38.5711150304873
 20
124.57924457923139
 10
-37.72628013608162
 20
126.94039993276203
 10
-37.16318487333127
 20
128.29983215300197
 10
-36.090984394232066
 20
130.56680959773578
 10
-35.3973529303816
 20
131.86450279287686
 10
-34.10811274332712
 20
134.0154700967649
 10
-33.29062512855104
 20
135.23892677194644
 10
-31.796761321312857
 20
137.25316894401413
 10
-30.86329040822557
 20
138.39060654264483
 10
-29.179189705896558
 20
140.24872532967822
 10
-28.13872532967826
 20
141.28918970589655
 10
-26.280606542644758
 20
142.97329040822564
 10
-25.14316894401417
 20
143.90676132131284
 10
-23.128926771946535
 20
145.40062512855098
 10
-21.905470096764837
 20
146.21811274332714
 10
-19.754502792876917
 20
147.5073529303816
 10
-18.456809597735987
 20
148.20098439423197
 10
-16.189832153001955
 20
149.27318487333127
 10
-14.830399932762054
 20
149.8362801360816
 10
-12.469244579231471
 20
150.68111503048726
 10
-11.06116540931464
 20
151.10825117693813
 10
-8.628571363780113
 20
151.71758426478354
 10
-7.185405816327549
 20
152.0046477403481
 10
-4.704800289239177
 20
152.37261081090185
 10
-3.2404468373862922
 20
152.51683703738576
 10
-0.7357194160069211
 20
152.6398864051293
 10
0.7357194160069139
 20
152.6398864051293
 10
3.240446837386428
 20
152.51683703738573
 10
4.704800289238799
 20
152.3726108109019
 10
7.185405816327201
 20
152.00464774034816
 10
8.628571363780361
 20
151.71758426478348
 10
11.061165409314622
 20
151.10825117693813
 10
12.469244579231502
 20
150.68111503048726
 10
14.83039993276207
 20
149.8362801360816
 10
16.18983215300213
 20
149.27318487333122
 10
18.456809597735724
 20
148.2009843942321
 10
19.754502792876835
 20
147.50735293038161
 10
21.905470096764905
 20
146.2181127433271
 10
23.128926771946446
 20
145.40062512855104
 10
23.539869310445074
 20
145.0958493703871
 10
25.051758154714253
 20
144.07795173600346
  0
LWPOLYLINE
  5
32
330
17
100
AcDbEntity
  8
0
 62
0
100
AcDbPolyline
 90
234
 70
0
 10
25.051758154714253
 20
227.13795173600346
 10
26.65003442646596
 20
226.26191724429387
 10
28.32142474704749
 20
225.53502119410803
 10
30.05204853961884
 20
224.96330031807202
 10
31.827533304687794
 20
224.55150264867905
 10
33.63313398096836
 20
224.30304808678773
 10
35.45385540029376
 20
224.22
 10
56.19999999999999
 20
224.22
 10
56.19999999999999
 20
219.22
 10
60.999999999999986
 20
219.22
 10
60.999999999999986
 20
224.22
 10
76.19999999999999
 20
224.22
 10
76.19999999999999
 20
214.22
 10
35.45385540029376
 20
214.22
 10
34.998201785176605
 20
214.23038640471862
 10
33.1774803658512
 20
214.31343449150634
 10
32.269957251714196
 20
214.39639632119002
 10
30.464356575433627
 20
214.64485088308135
 10
29.56815438322848
 20
214.81008556032555
 10
27.79266961815953
 20
215.22188322971851
 10
26.9152311356299
 20
215.46801851214167
 10
25.18460734305855
 20
216.03973938817765
 10
24.333219528929394
 20
216.36473116935002
 10
22.661829208347864
 20
217.0916272195359
 10
21.843562675526734
 20
217.49277650489282
 10
20.245286403775026
 20
218.3688109966024
 10
19.466936699265453
 20
218.84278631807726
 10
17.955047854996273
 20
219.86068395246093
 10
17.582876265520696
 20
220.1237740555807
 10
17.36911010867563
 20
220.2823138425793
 10
16.55388209964361
 20
220.827031783248
 10
14.824035906133727
 20
221.86386169045528
 10
13.959341747958964
 20
222.3260503471913
 10
12.136198134173211
 20
223.18833305790315
 10
11.23036530428915
 20
223.56354130128395
 10
9.3314821398601
 20
224.24297256162447
 10
8.393234303596676
 20
224.52758693115675
 10
6.436898871432939
 20
225.017623446674
 10
5.4752718683521815
 20
225.208902950393
 10
3.4803247481066717
 20
225.5048254015614
 10
2.5045795719273474
 20
225.60092791328228
 10
0.4902331949176513
 20
225.6998864051293
 10
-0.4902331949177132
 20
225.6998864051293
 10
-2.5045795719271697
 20
225.6009279132823
 10
-3.4803247481070514
 20
225.50482540156133
 10
-5.475271868352425
 20
225.20890295039297
 10
-6.436898871432583
 20
225.01762344667407
 10
-8.393234303596929
 20
224.5275869311567
 10
-9.331482139859983
 20
224.24297256162453
 10
-11.230365304289093
 20
223.56354130128398
 10
-12.136198134173153
 20
223.1883330579032
 10
-13.959341747959146
 20
222.3260503471912
 10
-14.824035906133815
 20
221.86386169045525
 10
-16.553882099643513
 20
220.82703178324803
 10
-17.36911010867582
 20
220.28231384257919
 10
-18.98899951743629
 20
219.0809219776717
 10
-19.74691028594976
 20
218.45892068461202
 10
-21.241242489432874
 20
217.10453692241097
 10
-21.93453692241098
 20
216.41124248943285
 10
-23.28892068461196
 20
214.91691028594983
 10
-23.910921977671705
 20
214.15899951743626
 10
-25.112313842579315
 20
212.53911010867563
 10
-25.65703178324798
 20
211.72388209964362
 10
-26.693861690455268
 20
209.99403590613377
 10
-27.15605034719129
 20
209.12934174795896
 10
-28.01833305790317
 20
207.30619813417317
 10
-28.393541301283975
 20
206.40036530428907
 10
-29.072972561624525
 20
204.50148213985997
 10
-29.357586931156742
 20
203.56323430359674
 10
-29.84762344667401
 20
201.60689887143292
 10
-30.038902950393048
 20
200.64527186835195
 10
-30.334825401561368
 20
198.650324748107
 10
-30.430927913282275
 20
197.6745795719274
 10
-30.529886405129304
 20
195.66023319491762
 10
-30.529886405129304
 20
194.67976680508235
 10
-30.430927913282282
 20
192.66542042807268
 10
-30.33482540156137
 20
191.6896752518931
 10
-30.038902950393016
 20
189.69472813164788
 10
-29.847623446673992
 20
188.73310112856703
 10
-29.357586931156764
 20
186.77676569640334
 10
-29.07297256162447
 20
185.8385178601399
 10
-28.393541301284024
 20
183.93963469571108
 10
-28.018333057903106
 20
183.0338018658267
 10
-27.156050347191243
 20
181.21065825204096
 10
-26.69386169045531
 20
180.34596409386631
 10
-25.657031783247945
 20
178.61611790035633
 10
-25.11231384257922
 20
177.80088989132423
 10
-23.910921977671677
 20
176.1810004825637
 10
-23.288920684612048
 20
175.42308971405026
 10
-21.93453692241092
 20
173.92875751056707
 10
-21.241242489432967
 20
173.23546307758912
 10
-19.746910285949788
 20
171.881079315388
 10
-18.988999517436287
 20
171.2590780223283
 10
-17.36911010867563
 20
170.0576861574207
 10
-16.553882099643562
 20
169.512968216752
 10
-14.824035906133734
 20
168.47613830954472
 10
-13.959341747958971
 20
168.01394965280872
 10
-12.136198134173293
 20
167.15166694209688
 10
-11.2303653042891
 20
166.77645869871606
 10
-9.331482139859936
 20
166.09702743837548
 10
-8.393234303596733
 20
165.81241306884326
 10
-6.4368988714328
 20
165.32237655332597
 10
-5.475271868352139
 20
165.13109704960698
 10
-3.4803247481069435
 20
164.83517459843864
 10
-2.504579571927331
 20
164.73907208671773
 10
-0.49023319491765655
 20
164.64011359487068
 10
0.4902331949176604
 20
164.64011359487068
 10
2.5045795719273514
 20
164.73907208671773
 10
3.4803247481069493
 20
164.83517459843864
 10
5.475271868352139
 20
165.13109704960698
 10
6.4368988714328115
 20
165.32237655332597
 10
8.393234303596788
 20
165.81241306884326
 10
9.331482139859846
 20
166.09702743837542
 10
11.230365304289089
 20
166.77645869871606
 10
12.136198134173315
 20
167.15166694209688
 10
13.959341747958936
 20
168.0139496528087
 10
14.82403590613372
 20
168.47613830954472
 10
16.55388209964362
 20
169.51296821675203
 10
17.36911010867582
 20
170.05768615742082
 10
17.582876265520813
 20
170.2162259444194
 10
18.018225591779615
 20
170.52150336559103
 10
19.79084484787594
 20
171.69546976607361
 10
20.707101456959066
 20
172.23451323412405
 10
22.594327694623512
 20
173.21367270245207
 10
23.562629508680928
 20
173.6524045465545
 10
25.54313529679099
 20
174.4256916599917
 10
26.55253959478958
 20
174.75915379775
 10
28.6039433555881
 20
175.3178296847607
 10
29.643042919775876
 20
175.54225368045005
 10
31.742161861746023
 20
175.88000477816496
 10
32.799213889939345
 20
175.99285442959882
 10
34.92232599514849
 20
176.10586383301245
 10
35.453855400293776
 20
176.12
 10
76.19999999999999
 20
176.12
 10
76.19999999999999
 20
166.12
 10
35.453855400293776
 20
166.12
 10
33.33074329508463
 20
166.00699059658638
 10
31.231624353114483
 20
165.66923949887143
 10
29.180220592315965
 20
165.11056361186075
 10
27.199714804205904
 20
164.33727649842353
 10
25.312488566541457
 20
163.3581170300955
 10
23.539869310445134
 20
162.18415062961293
 10
23.128926771946514
 20
161.87937487144902
 10
21.9054700967649
 20
161.0618872566729
 10
19.754502792876842
 20
159.7726470696184
 10
18.456809597735806
 20
159.07901560576795
 10
16.18983215300209
 20
158.00681512666878
 10
14.830399932762065
 20
157.4437198639184
 10
12.4692445792313
 20
156.59888496951268
 10
11.061165409314647
 20
156.17174882306188
 10
8.628571363780248
 20
155.5624157352165
 10
7.185405816327254
 20
155.27535225965184
 10
4.704800289239049
 20
154.90738918909813
 10
3.2404468373864406
 20
154.76316296261427
 10
0.7357194160069221
 20
154.64011359487068
 10
-0.7357194160069173
 20
154.64011359487068
 10
-3.2404468373864392
 20
154.76316296261427
 10
-4.704800289239015
 20
154.90738918909813
 10
-7.1854058163273065
 20
155.27535225965187
 10
-8.628571363780217
 20
155.5624157352165
 10
-11.061165409314599
 20
156.17174882306185
 10
-12.469244579231328
 20
156.59888496951268
 10
-14.830399932762125
 20
157.44371986391843
 10
-16.189832153002055
 20
158.00681512666876
 10
-18.45680959773583
 20
159.07901560576795
 10
-19.754502792876846
 20
159.7726470696184
 10
-21.9054700967649
 20
161.0618872566729
 10
-23.12892677194637
 20
161.87937487144893
 10
-25.143168944014203
 20
163.3732386786872
 10
-26.28060654264475
 20
164.30670959177436
 10
-28.138725329678326
 20
165.99081029410354
 10
-29.179189705896487
 20
167.0312746703217
 10
-30.86329040822569
 20
168.8893934573553
 10
-31.796761321312783
 20
170.02683105598575
 10
-33.29062512855101
 20
172.0410732280535
 10
-34.10811274332704
 20
173.26452990323497
 10
-35.39735293038166
 20
175.41549720712322
 10
-36.09098439423201
 20
176.7131904022641
 10
-37.16318487333121
 20
178.98016784699792
 10
-37.72628013608166
 20
180.33960006723808
 10
-38.57111503048725
 20
182.70075542076847
 10
-38.99825117693814
 20
184.10883459068543
 10
-39.60758426478348
 20
186.54142863621962
 10
-39.89464774034814
 20
187.98459418367273
 10
-40.26261081090186
 20
190.465199710761
 10
-40.406837037385735
 20
191.92955316261364
 10
-40.529886405129304
 20
194.4342805839931
 10
-40.529886405129304
 20
195.90571941600692
 10
-40.40683703738573
 20
198.41044683738647
 10
-40.26261081090186
 20
199.8748002892391
 10
-39.89464774034817
 20
202.35540581632713
 10
-39.60758426478349
 20
203.79857136378035
 10
-38.99825117693814
 20
206.23116540931457
 10
-38.5711150304873
 20
207.6392445792314
 10
-37.72628013608162
 20
210.00039993276204
 10
-37.16318487333127
 20
211.35983215300197
 10
-36.090984394232066
 20
213.6268095977358
 10
-35.3973529303816
 20
214.92450279287686
 10
-34.10811274332712
 20
217.0754700967649
 10
-33.29062512855104
 20
218.29892677194644
 10
-31.796761321312857
 20
220.31316894401414
 10
-30.86329040822557
 20
221.45060654264483
 10
-29.179189705896558
 20
223.30872532967823
 10
-28.13872532967826
 20
224.34918970589655
 10
-26.280606542644758
 20
226.03329040822564
 10
-25.14316894401417
 20
226.96676132131284
 10
-23.128926771946535
 20
228.460625128551
 10
-21.905470096764837
 20
229.27811274332714
 10
-19.754502792876917
 20
230.5673529303816
 10
-18.456809597735987
 20
231.26098439423197
 10
-16.189832153001955
 20
232.33318487333128
 10
-14.830399932762054
 20
232.8962801360816
 10
-12.469244579231471
 20
233.74111503048726
 10
-11.06116540931464
 20
234.16825117693813
 10
-8.628571363780113
 20
234.77758426478354
 10
-7.185405816327549
 20
235.0646477403481
 10
-4.704800289239177
 20
235.43261081090185
 10
-3.2404468373862922
 20
235.57683703738576
 10
-0.7357194160069211
 20
235.6998864051293
 10
0.7357194160069139
 20
235.6998864051293
 10
3.240446837386428
 20
235.57683703738573
 10
4.704800289238799
 20
235.4326108109019
 10
7.185405816327201
 20
235.06464774034816
 10
8.628571363780361
 20
234.77758426478348
 10
11.061165409314622
 20
234.16825117693813
 10
12.469244579231502
 20
233.74111503048726
 10
14.83039993276207
 20
232.8962801360816
 10
16.18983215300213
 20
232.33318487333122
 10
18.456809597735724
 20
231.2609843942321
 10
19.754502792876835
 20
230.56735293038162
 10
21.905470096764905
 20
229.2781127433271
 10
23.128926771946446
 20
228.46062512855104
 10
23.539869310445074
 20
228.1558493703871
 10
25.051758154714253
 20
227.13795173600346
  0
LWPOLYLINE
  5
33
330
17
100
AcDbEntity
  8
0
 62
0
100
AcDbPolyline
 90
17
 70
0
 10
203.2
 20
259.18
 10
203.2
 20
249.18
 10
193.2
 20
249.18
 10
193.2
 20
254.18
 10
188.39999999999998
 20
254.18
 10
188.39999999999998
 20
249.18
 10
103.99999999999999
 20
249.18
 10
103.99999999999999
 20
254.18
 10
99.19999999999999
 20
254.18
 10
99.19999999999999
 20
249.18
 10
14.8
 20
249.18
 10
14.8
 20
254.18
 10
10.0
 20
254.18
 10
10.0
 20
249.18
 10
0.0
 20
249.18
 10
0.0
 20
259.18
 10
203.2
 20
259.18
  0
ENDSEC
  0
SECTION
  2
OBJECTS
  0
DICTIONARY
  5
A
330
0
100
AcDbDictionary
280
0
281
1
  3
ACAD_COLOR
350
B
  3
ACAD_GROUP
350
C
  3
ACAD_LAYOUT
350
D
  3
ACAD_MATERIAL
350
E
  3
ACAD_MLEADERSTYLE
350
F
  3
ACAD_MLINESTYLE
350
10
  3
ACAD_PLOTSETTINGS
350
11
  3
ACAD_PLOTSTYLENAME
350
12
  3
ACAD_SCALELIST
350
14
  3
ACAD_TABLESTYLE
350
15
  3
ACAD_VISUALSTYLE
350
16
  3
EZDXF_META
350
2D
  0
DICTIONARY
  5
B
330
A
100
AcDbDictionary
280
0
281
1
  0
DICTIONARY
  5
C
330
A
100
AcDbDictionary
280
0
281
1
  0
DICTIONARY
  5
D
330
A
100
AcDbDictionary
280
0
281
1
  3
Model
350
1A
  3
Layout1
350
1E
  0
DICTIONARY
  5
E
330
A
100
AcDbDictionary
280
0
281
1
  3
ByBlock
350
1F
  3
ByLayer
350
20
  3
Global
350
21
  0
DICTIONARY
  5
F
330
A
100
AcDbDictionary
280
0
281
1
  3
Standard
350
2C
  0
DICTIONARY
  5
10
330
A
100
AcDbDictionary
280
0
281
1
  3
Standard
350
22
  0
DICTIONARY
  5
11
330
A
100
AcDbDictionary
280
0
281
1
  0
ACDBDICTIONARYWDFLT
  5
12
330
A
100
AcDbDictionary
280
0
281
1
  3
Normal
350
13
100
AcDbDictionaryWithDefault
340
13
  0
ACDBPLACEHOLDER
  5
13
330
12
  0
DICTIONARY
  5
14
330
A
100
AcDbDictionary
280
0
281
1
  0
DICTIONARY
  5
15
330
A
100
AcDbDictionary
280
0
281
1
  0
DICTIONARY
  5
16
330
A
100
AcDbDictionary
280
0
281
1
  0
LAYOUT
  5
1A
330
D
100
AcDbPlotSettings
  1

  2
Adobe PDF
  4
A3
  6

 40
7.5
 41
20.0
 42
7.5
 43
20.0
 44
420.0
 45
297.0
 46
0.0
 47
0.0
 48
0.0
 49
0.0
140
0.0
141
0.0
142
1.0
143
1.0
 70
1024
 72
1
 73
0
 74
5
  7

 75
16
 76
0
 77
2
 78
300
147
1.0
148
0.0
149
0.0
100
AcDbLayout
  1
Model
 70
1
 71
0
 10
0.0
 20
0.0
 11
420.0
 21
297.0
 12
0.0
 22
0.0
 32
0.0
 14
1e+20
 24
1e+20
 34
1e+20
 15
-1e+20
 25
-1e+20
 35
-1e+20
146
0.0
 13
0.0
 23
0.0
 33
0.0
 16
1.0
 26
0.0
 36
0.0
 17
0.0
 27
1.0
 37
0.0
 76
1
330
17
  0
LAYOUT
  5
1E
330
D
100
AcDbPlotSettings
  1

  2
Adobe PDF
  4
A3
  6

 40
7.5
 41
20.0
 42
7.5
 43
20.0
 44
420.0
 45
297.0
 46
0.0
 47
0.0
 48
0.0
 49
0.0
140
0.0
141
0.0
142
1.0
143
1.0
 70
0
 72
1
 73
0
 74
5
  7

 75
16
 76
0
 77
2
 78
300
147
1.0
148
0.0
149
0.0
100
AcDbLayout
  1
Layout1
 70
1
 71
1
 10
0.0
 20
0.0
 11
420.0
 21
297.0
 12
0.0
 22
0.0
 32
0.0
 14
1e+20
 24
1e+20
 34
1e+20
 15
-1e+20
 25
-1e+20
 35
-1e+20
146
0.0
 13
0.0
 23
0.0
 33
0.0
 16
1.0
 26
0.0
 36
0.0
 17
0.0
 27
1.0
 37
0.0
 76
1
330
1B
  0
MATERIAL
  5
1F
102
{ACAD_REACTORS
330
E
102
}
330
E
100
AcDbMaterial
  1
ByBlock
  2

 70
0
 40
1.0
 71
1
 41
1.0
 91
-1023410177
 42
1.0
 72
1
  3

 73
1
 74
1
 75
1
 44
0.5
 73
0
 45
1.0
 46
1.0
 77
1
  4

 78
1
 79
1
170
1
 48
1.0
171
1
  6

172
1
173
1
174
1
140
1.0
141
1.0
175
1
  7

176
1
177
1
178
1
143
1.0
179
1
  8

270
1
271
1
272
1
145
1.0
146
1.0
273
1
  9

274
1
275
1
276
1
 42
1.0
 72
1
  3

 73
1
 74
1
 75
1
 94
63
  0
MATERIAL
  5
20
102
{ACAD_REACTORS
330
E
102
}
330
E
100
AcDbMaterial
  1
ByLayer
  2

 70
0
 40
1.0
 71
1
 41
1.0
 91
-1023410177
 42
1.0
 72
1
  3

 73
1
 74
1
 75
1
 44
0.5
 73
0
 45
1.0
 46
1.0
 77
1
  4

 78
1
 79
1
170
1
 48
1.0
171
1
  6

172
1
173
1
174
1
140
1.0
141
1.0
175
1
  7

176
1
177
1
178
1
143
1.0
179
1
  8

270
1
271
1
272
1
145
1.0
146
1.0
273
1
  9

274
1
275
1
276
1
 42
1.0
 72
1
  3

 73
1
 74
1
 75
1
 94
63
  0
MATERIAL
  5
21
102
{ACAD_REACTORS
330
E
102
}
330
E
100
AcDbMaterial
  1
Global
  2

 70
0
 40
1.0
 71
1
 41
1.0
 91
-1023410177
 42
1.0
 72
1
  3

 73
1
 74
1
 75
1
 44
0.5
 73
0
 45
1.0
 46
1.0
 77
1
  4

 78
1
 79
1
170
1
 48
1.0
171
1
  6

172
1
173
1
174
1
140
1.0
141
1.0
175
1
  7

176
1
177
1
178
1
143
1.0
179
1
  8

270
1
271
1
272
1
145
1.0
146
1.0
273
1
  9

274
1
275
1
276
1
 42
1.0
 72
1
  3

 73
1
 74
1
 75
1
 94
63
  0
MLINESTYLE
  5
22
102
{ACAD_REACTORS
330
10
102
}
330
10
100
AcDbMlineStyle
  2
Standard
 70
0
  3

 62
256
 51
90.0
 52
90.0
 71
2
 49
0.5
 62
256
  6
BYLAYER
 49
-0.5
 62
256
  6
BYLAYER
  0
MLEADERSTYLE
  5
2C
102
{ACAD_REACTORS
330
F
102
}
330
F
100
AcDbMLeaderStyle
179
2
170
2
171
1
172
0
 90
2
 40
0.0
 41
0.0
173
1
 91
-1056964608
 92
-2
290
1
 42
2.0
291
1
 43
8.0
  3
Standard
 44
4.0
300

342
29
174
1
175
1
176
0
178
1
 93
-1056964608
 45
4.0
292
0
297
0
 46
4.0
 94
-1056964608
 47
1.0
 49
1.0
140
1.0
294
1
141
0.0
177
0
142
1.0
295
0
296
0
143
3.75
271
0
272
9
273
9
  0
DICTIONARY
  5
2D
330
A
100
AcDbDictionary
281
1
  3
CREATED_BY_EZDXF
350
2E
  3
WRITTEN_BY_EZDXF
350
36
  0
DICTIONARYVAR
  5
2E
330
2D
100
DictionaryVariables
280
0
  1
1.1.1 @ 2024-06-20T17:25:32.271690+00:00
  0
DICTIONARYVAR
  5
36
330
2D
100
DictionaryVariables
280
0
  1
1.1.1 @ 2024-06-20T17:25:32.280525+00:00
  0
ENDSEC
  0
EOF
