  0
SECTION
  2
HEADER
  9
$ACADVER
  1
AC1024
  9
$ACADMAINTVER
 70
6
  9
$DWGCODEPAGE
  3
ANSI_1252
  9
$LASTSAVEDBY
  1
ezdxf
  9
$INSBASE
 10
0.0
 20
0.0
 30
0.0
  9
$EXTMIN
 10
1e+20
 20
1e+20
 30
1e+20
  9
$EXTMAX
 10
-1e+20
 20
-1e+20
 30
-1e+20
  9
$LIMMIN
 10
0.0
 20
0.0
  9
$LIMMAX
 10
420.0
 20
297.0
  9
$ORTHOMODE
 70
0
  9
$REGENMODE
 70
1
  9
$FILLMODE
 70
1
  9
$QTEXTMODE
 70
0
  9
$MIRRTEXT
 70
1
  9
$LTSCALE
 40
1.0
  9
$ATTMODE
 70
1
  9
$TEXTSIZE
 40
2.5
  9
$TRACEWID
 40
1.0
  9
$TEXTSTYLE
  7
Standard
  9
$CLAYER
  8
0
  9
$CELTYPE
  6
ByLayer
  9
$CECOLOR
 62
256
  9
$CELTSCALE
 40
1.0
  9
$DISPSILH
 70
0
  9
$DIMSCALE
 40
1.0
  9
$DIMASZ
 40
2.5
  9
$DIMEXO
 40
0.625
  9
$DIMDLI
 40
3.75
  9
$DIMRND
 40
0.0
  9
$DIMDLE
 40
0.0
  9
$DIMEXE
 40
1.25
  9
$DIMTP
 40
0.0
  9
$DIMTM
 40
0.0
  9
$DIMTXT
 40
2.5
  9
$DIMCEN
 40
2.5
  9
$DIMTSZ
 40
0.0
  9
$DIMTOL
 70
0
  9
$DIMLIM
 70
0
  9
$DIMTIH
 70
0
  9
$DIMTOH
 70
0
  9
$DIMSE1
 70
0
  9
$DIMSE2
 70
0
  9
$DIMTAD
 70
1
  9
$DIMZIN
 70
8
  9
$DIMBLK
  1

  9
$DIMASO
 70
1
  9
$DIMSHO
 70
1
  9
$DIMPOST
  1

  9
$DIMAPOST
  1

  9
$DIMALT
 70
0
  9
$DIMALTD
 70
3
  9
$DIMALTF
 40
0.03937007874
  9
$DIMLFAC
 40
1.0
  9
$DIMTOFL
 70
1
  9
$DIMTVP
 40
0.0
  9
$DIMTIX
 70
0
  9
$DIMSOXD
 70
0
  9
$DIMSAH
 70
0
  9
$DIMBLK1
  1

  9
$DIMBLK2
  1

  9
$DIMSTYLE
  2
ISO-25
  9
$DIMCLRD
 70
0
  9
$DIMCLRE
 70
0
  9
$DIMCLRT
 70
0
  9
$DIMTFAC
 40
1.0
  9
$DIMGAP
 40
0.625
  9
$DIMJUST
 70
0
  9
$DIMSD1
 70
0
  9
$DIMSD2
 70
0
  9
$DIMTOLJ
 70
0
  9
$DIMTZIN
 70
8
  9
$DIMALTZ
 70
0
  9
$DIMALTTZ
 70
0
  9
$DIMUPT
 70
0
  9
$DIMDEC
 70
2
  9
$DIMTDEC
 70
2
  9
$DIMALTU
 70
2
  9
$DIMALTTD
 70
3
  9
$DIMTXSTY
  7
Standard
  9
$DIMAUNIT
 70
0
  9
$DIMADEC
 70
0
  9
$DIMALTRND
 40
0.0
  9
$DIMAZIN
 70
0
  9
$DIMDSEP
 70
44
  9
$DIMATFIT
 70
3
  9
$DIMFRAC
 70
0
  9
$DIMLDRBLK
  1

  9
$DIMLUNIT
 70
2
  9
$DIMLWD
 70
-2
  9
$DIMLWE
 70
-2
  9
$DIMTMOVE
 70
0
  9
$DIMFXL
 40
1.0
  9
$DIMFXLON
 70
0
  9
$DIMJOGANG
 40
0.785398163397
  9
$DIMTFILL
 70
0
  9
$DIMTFILLCLR
 70
0
  9
$DIMARCSYM
 70
0
  9
$DIMLTYPE
  6

  9
$DIMLTEX1
  6

  9
$DIMLTEX2
  6

  9
$DIMTXTDIRECTION
 70
0
  9
$LUNITS
 70
2
  9
$LUPREC
 70
4
  9
$SKETCHINC
 40
1.0
  9
$FILLETRAD
 40
10.0
  9
$AUNITS
 70
0
  9
$AUPREC
 70
2
  9
$MENU
  1
.
  9
$ELEVATION
 40
0.0
  9
$PELEVATION
 40
0.0
  9
$THICKNESS
 40
0.0
  9
$LIMCHECK
 70
0
  9
$CHAMFERA
 40
0.0
  9
$CHAMFERB
 40
0.0
  9
$CHAMFERC
 40
0.0
  9
$CHAMFERD
 40
0.0
  9
$SKPOLY
 70
0
  9
$TDCREATE
 40
2460481.9907175926
  9
$TDUCREATE
 40
2458532.153996898
  9
$TDUPDATE
 40
2460481.9907175926
  9
$TDUUPDATE
 40
2458532.1544311
  9
$TDINDWG
 40
0.0
  9
$TDUSRTIMER
 40
0.0
  9
$USRTIMER
 70
1
  9
$ANGBASE
 50
0.0
  9
$ANGDIR
 70
0
  9
$PDMODE
 70
0
  9
$PDSIZE
 40
0.0
  9
$PLINEWID
 40
0.0
  9
$SPLFRAME
 70
0
  9
$SPLINETYPE
 70
6
  9
$SPLINESEGS
 70
8
  9
$HANDSEED
  5
34
  9
$SURFTAB1
 70
6
  9
$SURFTAB2
 70
6
  9
$SURFTYPE
 70
6
  9
$SURFU
 70
6
  9
$SURFV
 70
6
  9
$UCSBASE
  2

  9
$UCSNAME
  2

  9
$UCSORG
 10
0.0
 20
0.0
 30
0.0
  9
$UCSXDIR
 10
1.0
 20
0.0
 30
0.0
  9
$UCSYDIR
 10
0.0
 20
1.0
 30
0.0
  9
$UCSORTHOREF
  2

  9
$UCSORTHOVIEW
 70
0
  9
$UCSORGTOP
 10
0.0
 20
0.0
 30
0.0
  9
$UCSORGBOTTOM
 10
0.0
 20
0.0
 30
0.0
  9
$UCSORGLEFT
 10
0.0
 20
0.0
 30
0.0
  9
$UCSORGRIGHT
 10
0.0
 20
0.0
 30
0.0
  9
$UCSORGFRONT
 10
0.0
 20
0.0
 30
0.0
  9
$UCSORGBACK
 10
0.0
 20
0.0
 30
0.0
  9
$PUCSBASE
  2

  9
$PUCSNAME
  2

  9
$PUCSORG
 10
0.0
 20
0.0
 30
0.0
  9
$PUCSXDIR
 10
1.0
 20
0.0
 30
0.0
  9
$PUCSYDIR
 10
0.0
 20
1.0
 30
0.0
  9
$PUCSORTHOREF
  2

  9
$PUCSORTHOVIEW
 70
0
  9
$PUCSORGTOP
 10
0.0
 20
0.0
 30
0.0
  9
$PUCSORGBOTTOM
 10
0.0
 20
0.0
 30
0.0
  9
$PUCSORGLEFT
 10
0.0
 20
0.0
 30
0.0
  9
$PUCSORGRIGHT
 10
0.0
 20
0.0
 30
0.0
  9
$PUCSORGFRONT
 10
0.0
 20
0.0
 30
0.0
  9
$PUCSORGBACK
 10
0.0
 20
0.0
 30
0.0
  9
$USERI1
 70
0
  9
$USERI2
 70
0
  9
$USERI3
 70
0
  9
$USERI4
 70
0
  9
$USERI5
 70
0
  9
$USERR1
 40
0.0
  9
$USERR2
 40
0.0
  9
$USERR3
 40
0.0
  9
$USERR4
 40
0.0
  9
$USERR5
 40
0.0
  9
$WORLDVIEW
 70
1
  9
$SHADEDGE
 70
3
  9
$SHADEDIF
 70
70
  9
$TILEMODE
 70
1
  9
$MAXACTVP
 70
64
  9
$PINSBASE
 10
0.0
 20
0.0
 30
0.0
  9
$PLIMCHECK
 70
0
  9
$PEXTMIN
 10
1e+20
 20
1e+20
 30
1e+20
  9
$PEXTMAX
 10
-1e+20
 20
-1e+20
 30
-1e+20
  9
$PLIMMIN
 10
0.0
 20
0.0
  9
$PLIMMAX
 10
420.0
 20
297.0
  9
$UNITMODE
 70
0
  9
$VISRETAIN
 70
1
  9
$PLINEGEN
 70
0
  9
$PSLTSCALE
 70
1
  9
$TREEDEPTH
 70
3020
  9
$CMLSTYLE
  2
Standard
  9
$CMLJUST
 70
0
  9
$CMLSCALE
 40
20.0
  9
$PROXYGRAPHICS
 70
1
  9
$MEASUREMENT
 70
1
  9
$CELWEIGHT
370
-1
  9
$ENDCAPS
280
0
  9
$JOINSTYLE
280
0
  9
$LWDISPLAY
290
0
  9
$INSUNITS
 70
4
  9
$HYPERLINKBASE
  1

  9
$STYLESHEET
  1

  9
$XEDIT
290
1
  9
$CEPSNTYPE
380
0
  9
$PSTYLEMODE
290
1
  9
$FINGERPRINTGUID
  2
{45146899-C0D8-44B5-9455-0E1013218EB5}
  9
$VERSIONGUID
  2
{D9366F1D-F558-4746-A978-1C6185AA97AA}
  9
$EXTNAMES
290
1
  9
$PSVPSCALE
 40
0.0
  9
$OLESTARTUP
290
0
  9
$SORTENTS
280
127
  9
$INDEXCTL
280
0
  9
$HIDETEXT
280
1
  9
$XCLIPFRAME
280
0
  9
$HALOGAP
280
0
  9
$OBSCOLOR
 70
257
  9
$OBSLTYPE
280
0
  9
$INTERSECTIONDISPLAY
280
0
  9
$INTERSECTIONCOLOR
 70
257
  9
$DIMASSOC
280
2
  9
$PROJECTNAME
  1

  9
$CAMERADISPLAY
290
0
  9
$LENSLENGTH
 40
50.0
  9
$CAMERAHEIGHT
 40
0.0
  9
$STEPSPERSEC
 40
24.0
  9
$STEPSIZE
 40
100.0
  9
$3DDWFPREC
 40
2.0
  9
$PSOLWIDTH
 40
0.005
  9
$PSOLHEIGHT
 40
0.08
  9
$LOFTANG1
 40
1.570796326795
  9
$LOFTANG2
 40
1.570796326795
  9
$LOFTMAG1
 40
0.0
  9
$LOFTMAG2
 40
0.0
  9
$LOFTPARAM
 70
7
  9
$LOFTNORMALS
280
1
  9
$LATITUDE
 40
37.795
  9
$LONGITUDE
 40
-122.394
  9
$NORTHDIRECTION
 40
0.0
  9
$TIMEZONE
 70
-8000
  9
$LIGHTGLYPHDISPLAY
280
1
  9
$TILEMODELIGHTSYNCH
280
1
  9
$CMATERIAL
347
20
  9
$SOLIDHIST
280
0
  9
$SHOWHIST
280
1
  9
$DWFFRAME
280
2
  9
$DGNFRAME
280
2
  9
$REALWORLDSCALE
290
1
  9
$INTERFERECOLOR
 62
256
  9
$CSHADOW
280
0
  9
$SHADOWPLANELOCATION
 40
0.0
  0
ENDSEC
  0
SECTION
  2
CLASSES
  0
CLASS
  1
ACDBDICTIONARYWDFLT
  2
AcDbDictionaryWithDefault
  3
ObjectDBX Classes
 90
0
 91
0
280
0
281
0
  0
CLASS
  1
SUN
  2
AcDbSun
  3
SCENEOE
 90
1153
 91
0
280
0
281
0
  0
CLASS
  1
VISUALSTYLE
  2
AcDbVisualStyle
  3
ObjectDBX Classes
 90
4095
 91
0
280
0
281
0
  0
CLASS
  1
MATERIAL
  2
AcDbMaterial
  3
ObjectDBX Classes
 90
1153
 91
0
280
0
281
0
  0
CLASS
  1
SCALE
  2
AcDbScale
  3
ObjectDBX Classes
 90
1153
 91
0
280
0
281
0
  0
CLASS
  1
TABLESTYLE
  2
AcDbTableStyle
  3
ObjectDBX Classes
 90
4095
 91
0
280
0
281
0
  0
CLASS
  1
MLEADERSTYLE
  2
AcDbMLeaderStyle
  3
ACDB_MLEADERSTYLE_CLASS
 90
4095
 91
0
280
0
281
0
  0
CLASS
  1
DICTIONARYVAR
  2
AcDbDictionaryVar
  3
ObjectDBX Classes
 90
0
 91
0
280
0
281
0
  0
CLASS
  1
CELLSTYLEMAP
  2
AcDbCellStyleMap
  3
ObjectDBX Classes
 90
1152
 91
0
280
0
281
0
  0
CLASS
  1
MENTALRAYRENDERSETTINGS
  2
AcDbMentalRayRenderSettings
  3
SCENEOE
 90
1024
 91
0
280
0
281
0
  0
CLASS
  1
ACDBDETAILVIEWSTYLE
  2
AcDbDetailViewStyle
  3
ObjectDBX Classes
 90
1025
 91
0
280
0
281
0
  0
CLASS
  1
ACDBSECTIONVIEWSTYLE
  2
AcDbSectionViewStyle
  3
ObjectDBX Classes
 90
1025
 91
0
280
0
281
0
  0
CLASS
  1
RASTERVARIABLES
  2
AcDbRasterVariables
  3
ISM
 90
0
 91
0
280
0
281
0
  0
CLASS
  1
ACDBPLACEHOLDER
  2
AcDbPlaceHolder
  3
ObjectDBX Classes
 90
0
 91
0
280
0
281
0
  0
CLASS
  1
LAYOUT
  2
AcDbLayout
  3
ObjectDBX Classes
 90
0
 91
0
280
0
281
0
  0
ENDSEC
  0
SECTION
  2
TABLES
  0
TABLE
  2
VPORT
  5
8
330
0
100
AcDbSymbolTable
 70
1
  0
VPORT
  5
23
330
8
100
AcDbSymbolTableRecord
100
AcDbViewportTableRecord
  2
*Active
 70
0
 10
0.0
 20
0.0
 11
1.0
 21
1.0
 12
0.0
 22
0.0
 13
0.0
 23
0.0
 14
0.5
 24
0.5
 15
0.5
 25
0.5
 16
0.0
 26
0.0
 36
1.0
 17
0.0
 27
0.0
 37
0.0
 40
1000.0
 41
1.34
 42
50.0
 43
0.0
 44
0.0
 50
0.0
 51
0.0
 71
0
 72
1000
 73
1
 74
3
 75
0
 76
0
 77
0
 78
0
281
0
 65
0
146
0.0
  0
ENDTAB
  0
TABLE
  2
LTYPE
  5
2
330
0
100
AcDbSymbolTable
 70
3
  0
LTYPE
  5
24
330
2
100
AcDbSymbolTableRecord
100
AcDbLinetypeTableRecord
  2
ByBlock
 70
0
  3

 72
65
 73
0
 40
0.0
  0
LTYPE
  5
25
330
2
100
AcDbSymbolTableRecord
100
AcDbLinetypeTableRecord
  2
ByLayer
 70
0
  3

 72
65
 73
0
 40
0.0
  0
LTYPE
  5
26
330
2
100
AcDbSymbolTableRecord
100
AcDbLinetypeTableRecord
  2
Continuous
 70
0
  3

 72
65
 73
0
 40
0.0
  0
ENDTAB
  0
TABLE
  2
LAYER
  5
1
330
0
100
AcDbSymbolTable
 70
3
  0
LAYER
  5
27
330
1
100
AcDbSymbolTableRecord
100
AcDbLayerTableRecord
  2
0
 70
0
 62
7
  6
Continuous
370
-3
390
13
347
21
  0
LAYER
  5
28
330
1
100
AcDbSymbolTableRecord
100
AcDbLayerTableRecord
  2
Defpoints
 70
0
 62
7
  6
Continuous
290
0
370
-3
390
13
347
21
  0
LAYER
  5
2F
330
1
100
AcDbSymbolTableRecord
100
AcDbLayerTableRecord
  2
default
 70
0
 62
7
  6
Continuous
370
-3
390
13
347
21
  0
ENDTAB
  0
TABLE
  2
STYLE
  5
5
330
0
100
AcDbSymbolTable
 70
1
  0
STYLE
  5
29
330
5
100
AcDbSymbolTableRecord
100
AcDbTextStyleTableRecord
  2
Standard
 70
0
 40
0.0
 41
1.0
 50
0.0
 71
0
 42
2.5
  3
txt
  4

  0
ENDTAB
  0
TABLE
  2
VIEW
  5
7
330
0
100
AcDbSymbolTable
 70
0
  0
ENDTAB
  0
TABLE
  2
UCS
  5
6
330
0
100
AcDbSymbolTable
 70
0
  0
ENDTAB
  0
TABLE
  2
APPID
  5
3
330
0
100
AcDbSymbolTable
 70
3
  0
APPID
  5
2A
330
3
100
AcDbSymbolTableRecord
100
AcDbRegAppTableRecord
  2
ACAD
 70
0
  0
APPID
  5
31
330
3
100
AcDbSymbolTableRecord
100
AcDbRegAppTableRecord
  2
HATCHBACKGROUNDCOLOR
 70
0
  0
APPID
  5
32
330
3
100
AcDbSymbolTableRecord
100
AcDbRegAppTableRecord
  2
EZDXF
 70
0
  0
ENDTAB
  0
TABLE
  2
DIMSTYLE
  5
4
330
0
100
AcDbSymbolTable
 70
1
100
AcDbDimStyleTable
  0
DIMSTYLE
105
2B
330
4
100
AcDbSymbolTableRecord
100
AcDbDimStyleTableRecord
  2
Standard
 70
0
 40
1.0
 41
2.5
 42
0.625
 43
3.75
 44
1.25
 45
0.0
 46
0.0
 47
0.0
 48
0.0
 49
2.5
140
2.5
141
2.5
142
0.0
143
0.03937007874
144
1.0
145
0.0
146
1.0
147
0.625
148
0.0
 69
0
 70
0
 71
0
 72
0
 73
0
 74
0
 75
0
 76
0
 77
1
 78
8
 79
3
170
0
171
3
172
1
173
0
174
0
175
0
176
0
177
0
178
0
179
2
271
2
272
2
273
2
274
3
275
0
276
0
277
2
278
44
279
0
280
0
281
0
282
0
283
0
284
8
285
0
286
0
288
0
289
3
290
0
371
-2
372
-2
  0
ENDTAB
  0
TABLE
  2
BLOCK_RECORD
  5
9
330
0
100
AcDbSymbolTable
 70
2
  0
BLOCK_RECORD
  5
17
330
9
100
AcDbSymbolTableRecord
100
AcDbBlockTableRecord
  2
*Model_Space
340
1A
 70
0
280
1
281
0
  0
BLOCK_RECORD
  5
1B
330
9
100
AcDbSymbolTableRecord
100
AcDbBlockTableRecord
  2
*Paper_Space
340
1E
 70
0
280
1
281
0
  0
ENDTAB
  0
ENDSEC
  0
SECTION
  2
BLOCKS
  0
BLOCK
  5
18
330
17
100
AcDbEntity
  8
0
100
AcDbBlockBegin
  2
*Model_Space
 70
0
 10
0.0
 20
0.0
 30
0.0
  3
*Model_Space
  1

  0
ENDBLK
  5
19
330
17
100
AcDbEntity
  8
0
100
AcDbBlockEnd
  0
BLOCK
  5
1C
330
1B
100
AcDbEntity
  8
0
100
AcDbBlockBegin
  2
*Paper_Space
 70
0
 10
0.0
 20
0.0
 30
0.0
  3
*Paper_Space
  1

  0
ENDBLK
  5
1D
330
1B
100
AcDbEntity
  8
0
100
AcDbBlockEnd
  0
ENDSEC
  0
SECTION
  2
ENTITIES
  0
LWPOLYLINE
  5
30
330
17
100
AcDbEntity
  8
0
 62
0
100
AcDbPolyline
 90
239
 70
0
 10
33.633133980968346
 20
-0.08304808678773767
 10
31.827533304687776
 20
-0.331502648679038
 10
30.052048539618823
 20
-0.7433003180720199
 10
28.321424747047466
 20
-1.3150211941080165
 10
26.650034426465936
 20
-2.041917244293888
 10
25.05175815471422
 20
-2.9179517360034772
 10
23.539869310445045
 20
-3.9358493703871353
 10
23.12892677194646
 20
-4.240625128551029
 10
21.905470096764905
 20
-5.058112743327115
 10
19.754502792876842
 20
-6.347352930381615
 10
18.456809597735806
 20
-7.040984394232062
 10
16.18983215300209
 20
-8.113184873331221
 10
14.830399932762065
 20
-8.676280136081608
 10
12.4692445792313
 20
-9.521115030487335
 10
11.061165409314647
 20
-9.948251176938134
 10
8.628571363780248
 20
-10.557584264783518
 10
7.185405816327254
 20
-10.844647740348153
 10
4.704800289239049
 20
-11.212610810901865
 10
3.2404468373864406
 20
-11.356837037385734
 10
0.7357194160069221
 20
-11.47988640512931
 10
-0.7357194160069173
 20
-11.47988640512931
 10
-3.2404468373864392
 20
-11.356837037385734
 10
-4.704800289239015
 20
-11.212610810901865
 10
-7.1854058163273065
 20
-10.844647740348142
 10
-8.628571363780217
 20
-10.557584264783525
 10
-11.061165409314599
 20
-9.948251176938147
 10
-12.469244579231328
 20
-9.521115030487323
 10
-14.830399932762125
 20
-8.676280136081584
 10
-16.189832153002055
 20
-8.113184873331237
 10
-18.45680959773583
 20
-7.040984394232053
 10
-19.754502792876846
 20
-6.347352930381618
 10
-21.9054700967649
 20
-5.058112743327116
 10
-23.12892677194637
 20
-4.240625128551085
 10
-25.143168944014203
 20
-2.7467613213128153
 10
-26.28060654264475
 20
-1.8132904082256445
 10
-28.138725329678326
 20
-0.1291897058964721
 10
-29.179189705896487
 20
0.9112746703216861
 10
-30.86329040822569
 20
2.7693934573553007
 10
-31.796761321312783
 20
3.9068310559857493
 10
-33.290625128550985
 20
5.9210732280534755
 10
-34.1081127433271
 20
7.144529903235062
 10
-35.397352930381665
 20
9.29549720712325
 10
-36.09098439423203
 20
10.593190402264126
 10
-37.16318487333123
 20
12.86016784699793
 10
-37.72628013608162
 20
14.219600067237959
 10
-38.57111503048725
 20
16.580755420768465
 10
-38.99825117693814
 20
17.988834590685425
 10
-39.60758426478348
 20
20.42142863621963
 10
-39.89464774034814
 20
21.86459418367272
 10
-40.26261081090186
 20
24.34519971076098
 10
-40.406837037385735
 20
25.80955316261363
 10
-40.529886405129304
 20
28.314280583993085
 10
-40.529886405129304
 20
29.785719416006902
 10
-40.40683703738573
 20
32.290446837386455
 10
-40.26261081090186
 20
33.75480028923908
 10
-39.89464774034817
 20
36.23540581632712
 10
-39.60758426478349
 20
37.678571363780335
 10
-38.99825117693814
 20
40.111165409314566
 10
-38.5711150304873
 20
41.51924457923138
 10
-37.72628013608162
 20
43.88039993276204
 10
-37.16318487333127
 20
45.23983215300198
 10
-36.090984394232066
 20
47.50680959773579
 10
-35.3973529303816
 20
48.80450279287686
 10
-34.10811274332712
 20
50.9554700967649
 10
-33.29062512855104
 20
52.178926771946436
 10
-31.796761321312857
 20
54.193168944014126
 10
-30.86329040822557
 20
55.33060654264483
 10
-29.179189705896572
 20
57.18872532967821
 10
-28.13872532967834
 20
58.22918970589645
 10
-26.28060654264474
 20
59.91329040822564
 10
-25.143168944014104
 20
60.84676132131289
 10
-23.12892677194644
 20
62.340625128551046
 10
-21.905470096764947
 20
63.15811274332708
 10
-19.754502792876917
 20
64.44735293038158
 10
-18.456809597735987
 20
65.14098439423196
 10
-16.189832153001955
 20
66.21318487333129
 10
-14.830399932762054
 20
66.77628013608161
 10
-12.469244579231471
 20
67.62111503048727
 10
-11.06116540931464
 20
68.04825117693812
 10
-8.628571363780113
 20
68.65758426478354
 10
-7.185405816327549
 20
68.94464774034809
 10
-4.704800289239177
 20
69.31261081090183
 10
-3.2404468373862922
 20
69.45683703738574
 10
-0.7357194160069211
 20
69.5798864051293
 10
0.7357194160069139
 20
69.57988640512929
 10
3.240446837386428
 20
69.45683703738572
 10
4.704800289238799
 20
69.31261081090189
 10
7.185405816327201
 20
68.94464774034815
 10
8.628571363780361
 20
68.65758426478348
 10
11.061165409314622
 20
68.04825117693812
 10
12.469244579231502
 20
67.62111503048726
 10
14.83039993276207
 20
66.77628013608161
 10
16.18983215300213
 20
66.2131848733312
 10
18.456809597735724
 20
65.1409843942321
 10
19.754502792876835
 20
64.44735293038161
 10
21.905470096764905
 20
63.15811274332711
 10
23.128926771946446
 20
62.34062512855104
 10
23.539869310445074
 20
62.03584937038711
 10
25.051758154714253
 20
61.017951736003454
 10
26.65003442646596
 20
60.141917244293865
 10
28.32142474704749
 20
59.41502119410801
 10
30.05204853961884
 20
58.84330031807201
 10
31.827533304687794
 20
58.43150264867903
 10
33.63313398096836
 20
58.18304808678773
 10
35.45385540029376
 20
58.099999999999994
 10
81.6
 20
58.099999999999994
 10
81.6
 20
53.099999999999994
 10
86.39
 20
53.099999999999994
 10
86.39
 20
58.099999999999994
 10
101.6
 20
58.099999999999994
 10
101.6
 20
48.099999999999994
 10
35.45385540029376
 20
48.099999999999994
 10
34.998201785176605
 20
48.11038640471861
 10
33.1774803658512
 20
48.193434491506345
 10
32.269957251714196
 20
48.276396321190035
 10
30.464356575433627
 20
48.524850883081335
 10
29.56815438322848
 20
48.69008556032554
 10
27.79266961815953
 20
49.101883229718524
 10
26.9152311356299
 20
49.34801851214166
 10
25.18460734305855
 20
49.91973938817765
 10
24.333219528929394
 20
50.24473116935003
 10
22.661829208347864
 20
50.97162721953589
 10
21.843562675526734
 20
51.37277650489281
 10
20.245286403775026
 20
52.2488109966024
 10
19.466936699265453
 20
52.722786318077254
 10
17.955047854996273
 20
53.74068395246091
 10
17.582876265520696
 20
54.00377405558069
 10
17.36911010867563
 20
54.16231384257931
 10
16.55388209964361
 20
54.707031783247984
 10
14.824035906133727
 20
55.74386169045528
 10
13.959341747958964
 20
56.206050347191294
 10
12.136198134173211
 20
57.06833305790315
 10
11.23036530428915
 20
57.44354130128394
 10
9.3314821398601
 20
58.12297256162448
 10
8.393234303596676
 20
58.40758693115675
 10
6.436898871432939
 20
58.897623446674
 10
5.4752718683521815
 20
59.088902950393
 10
3.4803247481066717
 20
59.38482540156139
 10
2.5045795719273474
 20
59.48092791328227
 10
0.4902331949176513
 20
59.57988640512929
 10
-0.4902331949177132
 20
59.5798864051293
 10
-2.5045795719271697
 20
59.480927913282294
 10
-3.4803247481070514
 20
59.38482540156134
 10
-5.475271868352425
 20
59.088902950392956
 10
-6.436898871432583
 20
58.897623446674075
 10
-8.393234303596929
 20
58.407586931156686
 10
-9.331482139859983
 20
58.12297256162453
 10
-11.230365304289093
 20
57.44354130128396
 10
-12.136198134173153
 20
57.06833305790319
 10
-13.959341747959146
 20
56.206050347191194
 10
-14.824035906133885
 20
55.743861690455205
 10
-16.55388209964359
 20
54.707031783248
 10
-17.36911010867566
 20
54.162313842579294
 10
-18.988999517436213
 20
52.960921977671745
 10
-19.74691028594976
 20
52.33892068461202
 10
-21.24124248943291
 20
50.984536922410925
 10
-21.93453692241104
 20
50.29124248943279
 10
-23.288920684611902
 20
48.796910285949906
 10
-23.910921977671705
 20
48.038999517436245
 10
-25.112313842579315
 20
46.41911010867562
 10
-25.65703178324798
 20
45.60388209964362
 10
-26.693861690455268
 20
43.874035906133756
 10
-27.15605034719129
 20
43.009341747958956
 10
-28.01833305790317
 20
41.186198134173175
 10
-28.393541301283975
 20
40.280365304289056
 10
-29.072972561624525
 20
38.38148213985997
 10
-29.357586931156742
 20
37.443234303596725
 10
-29.84762344667401
 20
35.486898871432906
 10
-30.038902950393048
 20
34.52527186835195
 10
-30.334825401561368
 20
32.53032474810701
 10
-30.430927913282275
 20
31.554579571927412
 10
-30.529886405129304
 20
29.54023319491761
 10
-30.529886405129304
 20
28.559766805082358
 10
-30.430927913282282
 20
26.54542042807268
 10
-30.33482540156137
 20
25.569675251893088
 10
-30.038902950393016
 20
23.574728131647888
 10
-29.847623446673992
 20
22.61310112856702
 10
-29.357586931156764
 20
20.65676569640334
 10
-29.07297256162448
 20
19.718517860139887
 10
-28.39354130128398
 20
17.81963469571096
 10
-28.018333057903124
 20
16.91380186582671
 10
-27.156050347191236
 20
15.090658252040923
 10
-26.69386169045535
 20
14.225964093866388
 10
-25.65703178324799
 20
12.496117900356394
 10
-25.112313842579198
 20
11.680889891324208
 10
-23.91092197767168
 20
10.061000482563697
 10
-23.288920684612048
 20
9.303089714050255
 10
-21.93453692241092
 20
7.808757510567066
 10
-21.241242489432967
 20
7.115463077589117
 10
-19.746910285949788
 20
5.761079315387994
 10
-18.988999517436287
 20
5.139078022328315
 10
-17.36911010867563
 20
3.9376861574206967
 10
-16.553882099643562
 20
3.392968216751984
 10
-14.824035906133734
 20
2.356138309544713
 10
-13.959341747958971
 20
1.8939496528087083
 10
-12.136198134173293
 20
1.0316669420968767
 10
-11.2303653042891
 20
0.6564586987160428
 10
-9.331482139859936
 20
-0.02297256162454163
 10
-8.393234303596733
 20
-0.3075869311567522
 10
-6.4368988714328
 20
-0.7976234466740406
 10
-5.475271868352139
 20
-0.9889029503930195
 10
-3.4803247481069435
 20
-1.2848254015613711
 10
-2.504579571927331
 20
-1.380927913282286
 10
-0.49023319491765655
 20
-1.4798864051293101
 10
0.4902331949176604
 20
-1.4798864051293101
 10
2.5045795719273514
 20
-1.380927913282285
 10
3.4803247481069493
 20
-1.2848254015613738
 10
5.475271868352139
 20
-0.9889029503930212
 10
6.4368988714328115
 20
-0.7976234466740393
 10
8.393234303596788
 20
-0.3075869311567395
 10
9.331482139859846
 20
-0.02297256162457398
 10
11.230365304289089
 20
0.656458698716038
 10
12.136198134173315
 20
1.0316669420968856
 10
13.959341747958936
 20
1.8939496528086937
 10
14.824035906133739
 20
2.35613830954472
 10
16.553882099643577
 20
3.392968216751992
 10
17.36911010867572
 20
3.93768615742075
 10
17.582876265520696
 20
4.0962259444193005
 10
17.955047854996234
 20
4.359316047539057
 10
19.46693669926541
 20
5.377213681922715
 10
20.24528640377501
 20
5.851189003397582
 10
21.843562675526726
 20
6.727223495107172
 10
22.661829208347772
 20
7.128372780464057
 10
24.333219528929302
 20
7.855268830649928
 10
25.184607343058534
 20
8.180260611822344
 10
26.91523113562989
 20
8.751981487858341
 10
27.792669618159508
 20
8.998116770281468
 10
29.56815438322846
 20
9.40991443967445
 10
30.464356575433612
 20
9.575149116918656
 10
32.26995725171418
 20
9.823603678809956
 10
33.177480365851196
 20
9.906565508493648
 10
34.998201785176605
 20
9.989613595281382
 10
35.453855400293754
 20
9.999999999999996
 10
101.6
 20
9.999999999999996
 10
101.6
 20
0.0
 10
111.10902755782155
 20
0.0
 10
111.10902755782148
 20
-3.552713678800501e-15
 10
35.453855400293754
 20
-3.552713678800501e-15
 10
33.633133980968346
 20
-0.08304808678773767
  0
ENDSEC
  0
SECTION
  2
OBJECTS
  0
DICTIONARY
  5
A
330
0
100
AcDbDictionary
280
0
281
1
  3
ACAD_COLOR
350
B
  3
ACAD_GROUP
350
C
  3
ACAD_LAYOUT
350
D
  3
ACAD_MATERIAL
350
E
  3
ACAD_MLEADERSTYLE
350
F
  3
ACAD_MLINESTYLE
350
10
  3
ACAD_PLOTSETTINGS
350
11
  3
ACAD_PLOTSTYLENAME
350
12
  3
ACAD_SCALELIST
350
14
  3
ACAD_TABLESTYLE
350
15
  3
ACAD_VISUALSTYLE
350
16
  3
EZDXF_META
350
2D
  0
DICTIONARY
  5
B
330
A
100
AcDbDictionary
280
0
281
1
  0
DICTIONARY
  5
C
330
A
100
AcDbDictionary
280
0
281
1
  0
DICTIONARY
  5
D
330
A
100
AcDbDictionary
280
0
281
1
  3
Model
350
1A
  3
Layout1
350
1E
  0
DICTIONARY
  5
E
330
A
100
AcDbDictionary
280
0
281
1
  3
ByBlock
350
1F
  3
ByLayer
350
20
  3
Global
350
21
  0
DICTIONARY
  5
F
330
A
100
AcDbDictionary
280
0
281
1
  3
Standard
350
2C
  0
DICTIONARY
  5
10
330
A
100
AcDbDictionary
280
0
281
1
  3
Standard
350
22
  0
DICTIONARY
  5
11
330
A
100
AcDbDictionary
280
0
281
1
  0
ACDBDICTIONARYWDFLT
  5
12
330
A
100
AcDbDictionary
280
0
281
1
  3
Normal
350
13
100
AcDbDictionaryWithDefault
340
13
  0
ACDBPLACEHOLDER
  5
13
330
12
  0
DICTIONARY
  5
14
330
A
100
AcDbDictionary
280
0
281
1
  0
DICTIONARY
  5
15
330
A
100
AcDbDictionary
280
0
281
1
  0
DICTIONARY
  5
16
330
A
100
AcDbDictionary
280
0
281
1
  0
LAYOUT
  5
1A
330
D
100
AcDbPlotSettings
  1

  2
Adobe PDF
  4
A3
  6

 40
7.5
 41
20.0
 42
7.5
 43
20.0
 44
420.0
 45
297.0
 46
0.0
 47
0.0
 48
0.0
 49
0.0
140
0.0
141
0.0
142
1.0
143
1.0
 70
1024
 72
1
 73
0
 74
5
  7

 75
16
 76
0
 77
2
 78
300
147
1.0
148
0.0
149
0.0
100
AcDbLayout
  1
Model
 70
1
 71
0
 10
0.0
 20
0.0
 11
420.0
 21
297.0
 12
0.0
 22
0.0
 32
0.0
 14
1e+20
 24
1e+20
 34
1e+20
 15
-1e+20
 25
-1e+20
 35
-1e+20
146
0.0
 13
0.0
 23
0.0
 33
0.0
 16
1.0
 26
0.0
 36
0.0
 17
0.0
 27
1.0
 37
0.0
 76
1
330
17
  0
LAYOUT
  5
1E
330
D
100
AcDbPlotSettings
  1

  2
Adobe PDF
  4
A3
  6

 40
7.5
 41
20.0
 42
7.5
 43
20.0
 44
420.0
 45
297.0
 46
0.0
 47
0.0
 48
0.0
 49
0.0
140
0.0
141
0.0
142
1.0
143
1.0
 70
0
 72
1
 73
0
 74
5
  7

 75
16
 76
0
 77
2
 78
300
147
1.0
148
0.0
149
0.0
100
AcDbLayout
  1
Layout1
 70
1
 71
1
 10
0.0
 20
0.0
 11
420.0
 21
297.0
 12
0.0
 22
0.0
 32
0.0
 14
1e+20
 24
1e+20
 34
1e+20
 15
-1e+20
 25
-1e+20
 35
-1e+20
146
0.0
 13
0.0
 23
0.0
 33
0.0
 16
1.0
 26
0.0
 36
0.0
 17
0.0
 27
1.0
 37
0.0
 76
1
330
1B
  0
MATERIAL
  5
1F
102
{ACAD_REACTORS
330
E
102
}
330
E
100
AcDbMaterial
  1
ByBlock
  2

 70
0
 40
1.0
 71
1
 41
1.0
 91
-1023410177
 42
1.0
 72
1
  3

 73
1
 74
1
 75
1
 44
0.5
 73
0
 45
1.0
 46
1.0
 77
1
  4

 78
1
 79
1
170
1
 48
1.0
171
1
  6

172
1
173
1
174
1
140
1.0
141
1.0
175
1
  7

176
1
177
1
178
1
143
1.0
179
1
  8

270
1
271
1
272
1
145
1.0
146
1.0
273
1
  9

274
1
275
1
276
1
 42
1.0
 72
1
  3

 73
1
 74
1
 75
1
 94
63
  0
MATERIAL
  5
20
102
{ACAD_REACTORS
330
E
102
}
330
E
100
AcDbMaterial
  1
ByLayer
  2

 70
0
 40
1.0
 71
1
 41
1.0
 91
-1023410177
 42
1.0
 72
1
  3

 73
1
 74
1
 75
1
 44
0.5
 73
0
 45
1.0
 46
1.0
 77
1
  4

 78
1
 79
1
170
1
 48
1.0
171
1
  6

172
1
173
1
174
1
140
1.0
141
1.0
175
1
  7

176
1
177
1
178
1
143
1.0
179
1
  8

270
1
271
1
272
1
145
1.0
146
1.0
273
1
  9

274
1
275
1
276
1
 42
1.0
 72
1
  3

 73
1
 74
1
 75
1
 94
63
  0
MATERIAL
  5
21
102
{ACAD_REACTORS
330
E
102
}
330
E
100
AcDbMaterial
  1
Global
  2

 70
0
 40
1.0
 71
1
 41
1.0
 91
-1023410177
 42
1.0
 72
1
  3

 73
1
 74
1
 75
1
 44
0.5
 73
0
 45
1.0
 46
1.0
 77
1
  4

 78
1
 79
1
170
1
 48
1.0
171
1
  6

172
1
173
1
174
1
140
1.0
141
1.0
175
1
  7

176
1
177
1
178
1
143
1.0
179
1
  8

270
1
271
1
272
1
145
1.0
146
1.0
273
1
  9

274
1
275
1
276
1
 42
1.0
 72
1
  3

 73
1
 74
1
 75
1
 94
63
  0
MLINESTYLE
  5
22
102
{ACAD_REACTORS
330
10
102
}
330
10
100
AcDbMlineStyle
  2
Standard
 70
0
  3

 62
256
 51
90.0
 52
90.0
 71
2
 49
0.5
 62
256
  6
BYLAYER
 49
-0.5
 62
256
  6
BYLAYER
  0
MLEADERSTYLE
  5
2C
102
{ACAD_REACTORS
330
F
102
}
330
F
100
AcDbMLeaderStyle
179
2
170
2
171
1
172
0
 90
2
 40
0.0
 41
0.0
173
1
 91
-1056964608
 92
-2
290
1
 42
2.0
291
1
 43
8.0
  3
Standard
 44
4.0
300

342
29
174
1
175
1
176
0
178
1
 93
-1056964608
 45
4.0
292
0
297
0
 46
4.0
 94
-1056964608
 47
1.0
 49
1.0
140
1.0
294
1
141
0.0
177
0
142
1.0
295
0
296
0
143
3.75
271
0
272
9
273
9
  0
DICTIONARY
  5
2D
330
A
100
AcDbDictionary
281
1
  3
CREATED_BY_EZDXF
350
2E
  3
WRITTEN_BY_EZDXF
350
33
  0
DICTIONARYVAR
  5
2E
330
2D
100
DictionaryVariables
280
0
  1
1.1.1 @ 2024-06-20T04:46:38.527668+00:00
  0
DICTIONARYVAR
  5
33
330
2D
100
DictionaryVariables
280
0
  1
1.1.1 @ 2024-06-20T04:46:38.536169+00:00
  0
ENDSEC
  0
EOF
