solid OpenSCAD_Model
  facet normal 0.984067 0.123511 0.127892
    outer loop
      vertex 295.641 122.459 300
      vertex 350 0 0
      vertex 287.5 497.965 0
    endloop
  endfacet
  facet normal 0.765821 0.411436 0.494206
    outer loop
      vertex 295.641 122.459 300
      vertex 287.5 497.965 0
      vertex 71.1368 540.337 300
    endloop
  endfacet
  facet normal 0 0.990172 -0.139855
    outer loop
      vertex 71.1368 540.337 300
      vertex 287.5 497.965 0
      vertex -287.5 497.965 0
    endloop
  endfacet
  facet normal -0.363732 0.878126 0.310796
    outer loop
      vertex 71.1368 540.337 300
      vertex -287.5 497.965 0
      vertex -432.378 331.775 300
    endloop
  endfacet
  facet normal -0.917992 0.115218 -0.379495
    outer loop
      vertex -287.5 497.965 0
      vertex -350 0 0
      vertex -432.378 331.775 300
    endloop
  endfacet
  facet normal -0.956066 -0.287801 0.0557556
    outer loop
      vertex -350 0 0
      vertex -295.641 -122.459 300
      vertex -432.378 331.775 300
    endloop
  endfacet
  facet normal -0.984067 -0.123511 0.127892
    outer loop
      vertex -287.5 -497.965 0
      vertex -295.641 -122.459 300
      vertex -350 0 0
    endloop
  endfacet
  facet normal -0.765821 -0.411436 0.494206
    outer loop
      vertex -287.5 -497.965 0
      vertex -71.1368 -540.337 300
      vertex -295.641 -122.459 300
    endloop
  endfacet
  facet normal -0 -0.990172 -0.139855
    outer loop
      vertex 287.5 -497.965 0
      vertex -71.1368 -540.337 300
      vertex -287.5 -497.965 0
    endloop
  endfacet
  facet normal 0.363732 -0.878126 0.310796
    outer loop
      vertex 287.5 -497.965 0
      vertex 432.378 -331.775 300
      vertex -71.1368 -540.337 300
    endloop
  endfacet
  facet normal 0.917992 -0.115218 -0.379495
    outer loop
      vertex 350 0 0
      vertex 432.378 -331.775 300
      vertex 287.5 -497.965 0
    endloop
  endfacet
  facet normal 0.956066 0.287801 0.0557556
    outer loop
      vertex 432.378 -331.775 300
      vertex 350 0 0
      vertex 295.641 122.459 300
    endloop
  endfacet
  facet normal 0.87292 0.468975 0.134437
    outer loop
      vertex 205.061 205.061 600
      vertex 295.641 122.459 300
      vertex 71.1368 540.337 300
    endloop
  endfacet
  facet normal 0.572012 0.661929 0.48441
    outer loop
      vertex 205.061 205.061 600
      vertex 71.1368 540.337 300
      vertex -133.292 497.452 600
    endloop
  endfacet
  facet normal -0.379553 0.916322 -0.127648
    outer loop
      vertex -133.292 497.452 600
      vertex 71.1368 540.337 300
      vertex -432.378 331.775 300
    endloop
  endfacet
  facet normal -0.674544 0.674544 0.299967
    outer loop
      vertex -133.292 497.452 600
      vertex -432.378 331.775 300
      vertex -497.452 133.292 600
    endloop
  endfacet
  facet normal -0.889553 -0.267779 -0.370122
    outer loop
      vertex -432.378 331.775 300
      vertex -295.641 -122.459 300
      vertex -497.452 133.292 600
    endloop
  endfacet
  facet normal -0.755742 -0.653081 0.0483647
    outer loop
      vertex -295.641 -122.459 300
      vertex -205.061 -205.061 600
      vertex -497.452 133.292 600
    endloop
  endfacet
  facet normal -0.87292 -0.468975 0.134437
    outer loop
      vertex -71.1368 -540.337 300
      vertex -205.061 -205.061 600
      vertex -295.641 -122.459 300
    endloop
  endfacet
  facet normal -0.572012 -0.661929 0.48441
    outer loop
      vertex -71.1368 -540.337 300
      vertex 133.292 -497.452 600
      vertex -205.061 -205.061 600
    endloop
  endfacet
  facet normal 0.379553 -0.916322 -0.127648
    outer loop
      vertex 432.378 -331.775 300
      vertex 133.292 -497.452 600
      vertex -71.1368 -540.337 300
    endloop
  endfacet
  facet normal 0.674544 -0.674544 0.299967
    outer loop
      vertex 432.378 -331.775 300
      vertex 497.452 -133.292 600
      vertex 133.292 -497.452 600
    endloop
  endfacet
  facet normal 0.889553 0.267779 -0.370122
    outer loop
      vertex 497.452 -133.292 600
      vertex 432.378 -331.775 300
      vertex 295.641 122.459 300
    endloop
  endfacet
  facet normal 0.755742 0.653081 0.0483647
    outer loop
      vertex 497.452 -133.292 600
      vertex 295.641 122.459 300
      vertex 205.061 205.061 600
    endloop
  endfacet
  facet normal 0.647404 0.749172 0.140035
    outer loop
      vertex 99.4977 240.209 900
      vertex 205.061 205.061 600
      vertex -133.292 497.452 600
    endloop
  endfacet
  facet normal 0.302804 0.826816 0.47401
    outer loop
      vertex 99.4977 240.209 900
      vertex -133.292 497.452 600
      vertex -295.249 384.776 900
    endloop
  endfacet
  facet normal -0.702384 0.702384 -0.115383
    outer loop
      vertex -295.249 384.776 900
      vertex -133.292 497.452 600
      vertex -497.452 133.292 600
    endloop
  endfacet
  facet normal -0.884451 0.366352 0.289021
    outer loop
      vertex -480.851 -63.3052 900
      vertex -295.249 384.776 900
      vertex -497.452 133.292 600
    endloop
  endfacet
  facet normal -0.705721 -0.609856 -0.360601
    outer loop
      vertex -205.061 -205.061 600
      vertex -480.851 -63.3052 900
      vertex -497.452 133.292 600
    endloop
  endfacet
  facet normal -0.420444 -0.906357 0.041757
    outer loop
      vertex -205.061 -205.061 600
      vertex -99.4977 -240.209 900
      vertex -480.851 -63.3052 900
    endloop
  endfacet
  facet normal -0.647404 -0.749172 0.140035
    outer loop
      vertex 133.292 -497.452 600
      vertex -99.4977 -240.209 900
      vertex -205.061 -205.061 600
    endloop
  endfacet
  facet normal -0.302804 -0.826816 0.47401
    outer loop
      vertex 133.292 -497.452 600
      vertex 295.249 -384.776 900
      vertex -99.4977 -240.209 900
    endloop
  endfacet
  facet normal 0.702384 -0.702384 -0.115383
    outer loop
      vertex 497.452 -133.292 600
      vertex 295.249 -384.776 900
      vertex 133.292 -497.452 600
    endloop
  endfacet
  facet normal 0.884451 -0.366352 0.289021
    outer loop
      vertex 497.452 -133.292 600
      vertex 480.851 63.3052 900
      vertex 295.249 -384.776 900
    endloop
  endfacet
  facet normal 0.705721 0.609856 -0.360601
    outer loop
      vertex 480.851 63.3052 900
      vertex 497.452 -133.292 600
      vertex 205.061 205.061 600
    endloop
  endfacet
  facet normal 0.420444 0.906357 0.041757
    outer loop
      vertex 480.851 63.3052 900
      vertex 205.061 205.061 600
      vertex 99.4977 240.209 900
    endloop
  endfacet
  facet normal 0.340284 0.929157 0.144477
    outer loop
      vertex 0 230 1200
      vertex 99.4977 240.209 900
      vertex -295.249 384.776 900
    endloop
  endfacet
  facet normal -0.00562387 0.886416 0.462856
    outer loop
      vertex 0 230 1200
      vertex -295.249 384.776 900
      vertex -394.042 227.5 1200
    endloop
  endfacet
  facet normal -0.91896 0.380646 -0.103065
    outer loop
      vertex -394.042 227.5 1200
      vertex -295.249 384.776 900
      vertex -480.851 -63.3052 900
    endloop
  endfacet
  facet normal -0.960592 0 0.277961
    outer loop
      vertex -394.042 -227.5 1200
      vertex -394.042 227.5 1200
      vertex -480.851 -63.3052 900
    endloop
  endfacet
  facet normal -0.394053 -0.849465 -0.350901
    outer loop
      vertex -99.4977 -240.209 900
      vertex -394.042 -227.5 1200
      vertex -480.851 -63.3052 900
    endloop
  endfacet
  facet normal -0.00634024 -0.999328 0.0361089
    outer loop
      vertex -99.4977 -240.209 900
      vertex 0 -230 1200
      vertex -394.042 -227.5 1200
    endloop
  endfacet
  facet normal -0.340284 -0.929157 0.144477
    outer loop
      vertex 295.249 -384.776 900
      vertex 0 -230 1200
      vertex -99.4977 -240.209 900
    endloop
  endfacet
  facet normal 0.00562387 -0.886416 0.462856
    outer loop
      vertex 295.249 -384.776 900
      vertex 394.042 -227.5 1200
      vertex 0 -230 1200
    endloop
  endfacet
  facet normal 0.91896 -0.380646 -0.103065
    outer loop
      vertex 480.851 63.3052 900
      vertex 394.042 -227.5 1200
      vertex 295.249 -384.776 900
    endloop
  endfacet
  facet normal 0.960592 0 0.277961
    outer loop
      vertex 480.851 63.3052 900
      vertex 394.042 227.5 1200
      vertex 394.042 -227.5 1200
    endloop
  endfacet
  facet normal 0.394053 0.849465 -0.350901
    outer loop
      vertex 394.042 227.5 1200
      vertex 480.851 63.3052 900
      vertex 99.4977 240.209 900
    endloop
  endfacet
  facet normal 0.00634024 0.999328 0.0361089
    outer loop
      vertex 394.042 227.5 1200
      vertex 99.4977 240.209 900
      vertex 0 230 1200
    endloop
  endfacet
  facet normal -0.00627499 0.989043 0.147494
    outer loop
      vertex -76.5367 184.776 1500
      vertex 0 230 1200
      vertex -394.042 227.5 1200
    endloop
  endfacet
  facet normal -0.313416 0.835827 0.450737
    outer loop
      vertex -76.5367 184.776 1500
      vertex -394.042 227.5 1200
      vertex -421.364 55.4736 1500
    endloop
  endfacet
  facet normal -0.995878 -0 -0.0906996
    outer loop
      vertex -394.042 227.5 1200
      vertex -394.042 -227.5 1200
      vertex -421.364 55.4736 1500
    endloop
  endfacet
  facet normal -0.890394 -0.368813 0.266789
    outer loop
      vertex -394.042 -227.5 1200
      vertex -258.724 -337.175 1500
      vertex -421.364 55.4736 1500
    endloop
  endfacet
  facet normal -0.00596417 -0.940052 -0.340978
    outer loop
      vertex 0 -230 1200
      vertex -258.724 -337.175 1500
      vertex -394.042 -227.5 1200
    endloop
  endfacet
  facet normal 0.413614 -0.909902 0.0316428
    outer loop
      vertex 0 -230 1200
      vertex 76.5367 -184.776 1500
      vertex -258.724 -337.175 1500
    endloop
  endfacet
  facet normal 0.00627499 -0.989043 0.147494
    outer loop
      vertex 394.042 -227.5 1200
      vertex 76.5367 -184.776 1500
      vertex 0 -230 1200
    endloop
  endfacet
  facet normal 0.313416 -0.835827 0.450737
    outer loop
      vertex 394.042 -227.5 1200
      vertex 421.364 -55.4736 1500
      vertex 76.5367 -184.776 1500
    endloop
  endfacet
  facet normal 0.995878 0 -0.0906996
    outer loop
      vertex 394.042 227.5 1200
      vertex 421.364 -55.4736 1500
      vertex 394.042 -227.5 1200
    endloop
  endfacet
  facet normal 0.890394 0.368813 0.266789
    outer loop
      vertex 421.364 -55.4736 1500
      vertex 394.042 227.5 1200
      vertex 258.724 337.175 1500
    endloop
  endfacet
  facet normal 0.00596417 0.940052 -0.340978
    outer loop
      vertex 258.724 337.175 1500
      vertex 394.042 227.5 1200
      vertex 0 230 1200
    endloop
  endfacet
  facet normal -0.413614 0.909902 0.0316428
    outer loop
      vertex 258.724 337.175 1500
      vertex 0 230 1200
      vertex -76.5367 184.776 1500
    endloop
  endfacet
  facet normal -0.347199 0.925921 0.14874
    outer loop
      vertex -120.208 120.208 1800
      vertex -76.5367 184.776 1500
      vertex -421.364 55.4736 1500
    endloop
  endfacet
  facet normal -0.582889 0.684799 0.437368
    outer loop
      vertex -381.541 -102.234 1800
      vertex -120.208 120.208 1800
      vertex -421.364 55.4736 1500
    endloop
  endfacet
  facet normal -0.921044 -0.381509 -0.078292
    outer loop
      vertex -258.724 -337.175 1500
      vertex -381.541 -102.234 1800
      vertex -421.364 55.4736 1500
    endloop
  endfacet
  facet normal -0.683636 -0.683636 0.255508
    outer loop
      vertex -258.724 -337.175 1500
      vertex -102.234 -381.541 1800
      vertex -381.541 -102.234 1800
    endloop
  endfacet
  facet normal 0.390529 -0.859117 -0.330764
    outer loop
      vertex 76.5367 -184.776 1500
      vertex -102.234 -381.541 1800
      vertex -258.724 -337.175 1500
    endloop
  endfacet
  facet normal 0.761182 -0.647905 0.0286394
    outer loop
      vertex 76.5367 -184.776 1500
      vertex 120.208 -120.208 1800
      vertex -102.234 -381.541 1800
    endloop
  endfacet
  facet normal 0.347199 -0.925921 0.14874
    outer loop
      vertex 421.364 -55.4736 1500
      vertex 120.208 -120.208 1800
      vertex 76.5367 -184.776 1500
    endloop
  endfacet
  facet normal 0.582889 -0.684799 0.437368
    outer loop
      vertex 421.364 -55.4736 1500
      vertex 381.541 102.234 1800
      vertex 120.208 -120.208 1800
    endloop
  endfacet
  facet normal 0.921044 0.381509 -0.078292
    outer loop
      vertex 381.541 102.234 1800
      vertex 421.364 -55.4736 1500
      vertex 258.724 337.175 1500
    endloop
  endfacet
  facet normal 0.683636 0.683636 0.255508
    outer loop
      vertex 381.541 102.234 1800
      vertex 258.724 337.175 1500
      vertex 102.234 381.541 1800
    endloop
  endfacet
  facet normal -0.390529 0.859117 -0.330764
    outer loop
      vertex 102.234 381.541 1800
      vertex 258.724 337.175 1500
      vertex -76.5367 184.776 1500
    endloop
  endfacet
  facet normal -0.761182 0.647905 0.0286394
    outer loop
      vertex 102.234 381.541 1800
      vertex -76.5367 184.776 1500
      vertex -120.208 120.208 1800
    endloop
  endfacet
  facet normal -0.641056 0.753136 0.147758
    outer loop
      vertex -129.343 53.5757 2100
      vertex -120.208 120.208 1800
      vertex -381.541 -102.234 1800
    endloop
  endfacet
  facet normal -0.783742 0.455372 0.422356
    outer loop
      vertex -289.574 -222.198 2100
      vertex -129.343 53.5757 2100
      vertex -381.541 -102.234 1800
    endloop
  endfacet
  facet normal -0.705572 -0.705572 -0.0658479
    outer loop
      vertex -102.234 -381.541 1800
      vertex -289.574 -222.198 2100
      vertex -381.541 -102.234 1800
    endloop
  endfacet
  facet normal -0.371105 -0.895927 0.244122
    outer loop
      vertex -102.234 -381.541 1800
      vertex 47.6421 -361.877 2100
      vertex -289.574 -222.198 2100
    endloop
  endfacet
  facet normal 0.721413 -0.614054 -0.320159
    outer loop
      vertex 120.208 -120.208 1800
      vertex 47.6421 -361.877 2100
      vertex -102.234 -381.541 1800
    endloop
  endfacet
  facet normal 0.96627 -0.256065 0.0274513
    outer loop
      vertex 120.208 -120.208 1800
      vertex 129.343 -53.5757 2100
      vertex 47.6421 -361.877 2100
    endloop
  endfacet
  facet normal 0.641056 -0.753136 0.147758
    outer loop
      vertex 381.541 102.234 1800
      vertex 129.343 -53.5757 2100
      vertex 120.208 -120.208 1800
    endloop
  endfacet
  facet normal 0.783742 -0.455372 0.422356
    outer loop
      vertex 381.541 102.234 1800
      vertex 289.574 222.198 2100
      vertex 129.343 -53.5757 2100
    endloop
  endfacet
  facet normal 0.705572 0.705572 -0.0658479
    outer loop
      vertex 289.574 222.198 2100
      vertex 381.541 102.234 1800
      vertex 102.234 381.541 1800
    endloop
  endfacet
  facet normal 0.371105 0.895927 0.244122
    outer loop
      vertex 289.574 222.198 2100
      vertex 102.234 381.541 1800
      vertex -47.6421 361.877 2100
    endloop
  endfacet
  facet normal -0.721413 0.614054 -0.320159
    outer loop
      vertex -47.6421 361.877 2100
      vertex 102.234 381.541 1800
      vertex -120.208 120.208 1800
    endloop
  endfacet
  facet normal -0.96627 0.256065 0.0274513
    outer loop
      vertex -47.6421 361.877 2100
      vertex -120.208 120.208 1800
      vertex -129.343 53.5757 2100
    endloop
  endfacet
  facet normal -0.855641 0.497147 0.143953
    outer loop
      vertex -110 0 2400
      vertex -129.343 53.5757 2100
      vertex -289.574 -222.198 2100
    endloop
  endfacet
  facet normal -0.896801 0.177741 0.405161
    outer loop
      vertex -167.5 -290.118 2400
      vertex -110 0 2400
      vertex -289.574 -222.198 2100
    endloop
  endfacet
  facet normal -0.382138 -0.922563 -0.053373
    outer loop
      vertex 47.6421 -361.877 2100
      vertex -167.5 -290.118 2400
      vertex -289.574 -222.198 2100
    endloop
  endfacet
  facet normal 0 -0.972564 0.232634
    outer loop
      vertex 47.6421 -361.877 2100
      vertex 167.5 -290.118 2400
      vertex -167.5 -290.118 2400
    endloop
  endfacet
  facet normal 0.919323 -0.243624 -0.30902
    outer loop
      vertex 129.343 -53.5757 2100
      vertex 167.5 -290.118 2400
      vertex 47.6421 -361.877 2100
    endloop
  endfacet
  facet normal 0.980521 0.194334 0.0285159
    outer loop
      vertex 167.5 -290.118 2400
      vertex 129.343 -53.5757 2100
      vertex 110 0 2400
    endloop
  endfacet
  facet normal 0.855641 -0.497147 0.143953
    outer loop
      vertex 129.343 -53.5757 2100
      vertex 289.574 222.198 2100
      vertex 110 0 2400
    endloop
  endfacet
  facet normal 0.896801 -0.177741 0.405161
    outer loop
      vertex 289.574 222.198 2100
      vertex 167.5 290.118 2400
      vertex 110 0 2400
    endloop
  endfacet
  facet normal 0.382138 0.922563 -0.053373
    outer loop
      vertex 167.5 290.118 2400
      vertex 289.574 222.198 2100
      vertex -47.6421 361.877 2100
    endloop
  endfacet
  facet normal 0 0.972564 0.232634
    outer loop
      vertex 167.5 290.118 2400
      vertex -47.6421 361.877 2100
      vertex -167.5 290.118 2400
    endloop
  endfacet
  facet normal -0.919323 0.243624 -0.30902
    outer loop
      vertex -47.6421 361.877 2100
      vertex -129.343 53.5757 2100
      vertex -167.5 290.118 2400
    endloop
  endfacet
  facet normal -0.980521 -0.194334 0.0285159
    outer loop
      vertex -129.343 53.5757 2100
      vertex -110 0 2400
      vertex -167.5 290.118 2400
    endloop
  endfacet
  facet normal -0.971731 0.192592 0.136552
    outer loop
      vertex -73.9104 -30.6147 2700
      vertex -110 0 2400
      vertex -167.5 -290.118 2400
    endloop
  endfacet
  facet normal -0.915713 -0.114895 0.385057
    outer loop
      vertex -39.8105 -302.391 2700
      vertex -73.9104 -30.6147 2700
      vertex -167.5 -290.118 2400
    endloop
  endfacet
  facet normal -0 -0.999164 -0.0408731
    outer loop
      vertex 167.5 -290.118 2400
      vertex -39.8105 -302.391 2700
      vertex -167.5 -290.118 2400
    endloop
  endfacet
  facet normal 0.373217 -0.901026 0.221047
    outer loop
      vertex 167.5 -290.118 2400
      vertex 241.973 -185.672 2700
      vertex -39.8105 -302.391 2700
    endloop
  endfacet
  facet normal 0.936616 0.185633 -0.297137
    outer loop
      vertex 241.973 -185.672 2700
      vertex 167.5 -290.118 2400
      vertex 110 0 2400
    endloop
  endfacet
  facet normal 0.789223 0.613254 0.0323607
    outer loop
      vertex 241.973 -185.672 2700
      vertex 110 0 2400
      vertex 73.9104 30.6147 2700
    endloop
  endfacet
  facet normal 0.971731 -0.192592 0.136552
    outer loop
      vertex 110 0 2400
      vertex 167.5 290.118 2400
      vertex 73.9104 30.6147 2700
    endloop
  endfacet
  facet normal 0.915713 0.114895 0.385057
    outer loop
      vertex 73.9104 30.6147 2700
      vertex 167.5 290.118 2400
      vertex 39.8105 302.391 2700
    endloop
  endfacet
  facet normal 0 0.999164 -0.0408731
    outer loop
      vertex 39.8105 302.391 2700
      vertex 167.5 290.118 2400
      vertex -167.5 290.118 2400
    endloop
  endfacet
  facet normal -0.373217 0.901026 0.221047
    outer loop
      vertex 39.8105 302.391 2700
      vertex -167.5 290.118 2400
      vertex -241.973 185.672 2700
    endloop
  endfacet
  facet normal -0.936616 -0.185633 -0.297137
    outer loop
      vertex -167.5 290.118 2400
      vertex -110 0 2400
      vertex -241.973 185.672 2700
    endloop
  endfacet
  facet normal -0.789223 -0.613254 0.0323607
    outer loop
      vertex -110 0 2400
      vertex -73.9104 -30.6147 2700
      vertex -241.973 185.672 2700
    endloop
  endfacet
  facet normal 0 0 -1
    outer loop
      vertex 275 -476.314 0
      vertex 350 0 0
      vertex 287.5 -497.965 0
    endloop
  endfacet
  facet normal -0 0 -1
    outer loop
      vertex 350 0 0
      vertex 275 -476.314 0
      vertex 325 0 0
    endloop
  endfacet
  facet normal 0 0 -1
    outer loop
      vertex 287.5 -497.965 0
      vertex -275 -476.314 0
      vertex 275 -476.314 0
    endloop
  endfacet
  facet normal 0 0 -1
    outer loop
      vertex -287.5 -497.965 0
      vertex -275 -476.314 0
      vertex 287.5 -497.965 0
    endloop
  endfacet
  facet normal 0 0 -1
    outer loop
      vertex -350 0 0
      vertex -275 -476.314 0
      vertex -287.5 -497.965 0
    endloop
  endfacet
  facet normal 0 0 -1
    outer loop
      vertex -275 -476.314 0
      vertex -350 0 0
      vertex -325 0 0
    endloop
  endfacet
  facet normal 0 0 -1
    outer loop
      vertex 275 476.314 0
      vertex 350 0 0
      vertex 325 0 0
    endloop
  endfacet
  facet normal 0 0 -1
    outer loop
      vertex 350 0 0
      vertex 275 476.314 0
      vertex 287.5 497.965 0
    endloop
  endfacet
  facet normal 0 0 -1
    outer loop
      vertex -275 476.314 0
      vertex 287.5 497.965 0
      vertex 275 476.314 0
    endloop
  endfacet
  facet normal 0 0 -1
    outer loop
      vertex -275 476.314 0
      vertex -287.5 497.965 0
      vertex 287.5 497.965 0
    endloop
  endfacet
  facet normal 0 0 -1
    outer loop
      vertex -350 0 0
      vertex -275 476.314 0
      vertex -325 0 0
    endloop
  endfacet
  facet normal -0 0 -1
    outer loop
      vertex -275 476.314 0
      vertex -350 0 0
      vertex -287.5 497.965 0
    endloop
  endfacet
  facet normal 0 0 1
    outer loop
      vertex 73.9104 30.6147 2700
      vertex 222.139 -170.453 2700
      vertex 241.973 -185.672 2700
    endloop
  endfacet
  facet normal 0 0 1
    outer loop
      vertex 73.9104 30.6147 2700
      vertex 50.8134 21.0476 2700
      vertex 222.139 -170.453 2700
    endloop
  endfacet
  facet normal -0 0 1
    outer loop
      vertex 36.5473 277.605 2700
      vertex 73.9104 30.6147 2700
      vertex 39.8105 302.391 2700
    endloop
  endfacet
  facet normal 0 0 1
    outer loop
      vertex 73.9104 30.6147 2700
      vertex 36.5473 277.605 2700
      vertex 50.8134 21.0476 2700
    endloop
  endfacet
  facet normal 0 0 1
    outer loop
      vertex 39.8105 302.391 2700
      vertex -222.139 170.453 2700
      vertex 36.5473 277.605 2700
    endloop
  endfacet
  facet normal 0 -0 1
    outer loop
      vertex -222.139 170.453 2700
      vertex 39.8105 302.391 2700
      vertex -241.973 185.672 2700
    endloop
  endfacet
  facet normal 0 0 1
    outer loop
      vertex -36.5473 -277.605 2700
      vertex 241.973 -185.672 2700
      vertex 222.139 -170.453 2700
    endloop
  endfacet
  facet normal -0 0 1
    outer loop
      vertex -36.5473 -277.605 2700
      vertex -39.8105 -302.391 2700
      vertex 241.973 -185.672 2700
    endloop
  endfacet
  facet normal -0 0 1
    outer loop
      vertex -73.9104 -30.6147 2700
      vertex -36.5473 -277.605 2700
      vertex -50.8134 -21.0476 2700
    endloop
  endfacet
  facet normal 0 0 1
    outer loop
      vertex -36.5473 -277.605 2700
      vertex -73.9104 -30.6147 2700
      vertex -39.8105 -302.391 2700
    endloop
  endfacet
  facet normal 0 0 1
    outer loop
      vertex -222.139 170.453 2700
      vertex -73.9104 -30.6147 2700
      vertex -50.8134 -21.0476 2700
    endloop
  endfacet
  facet normal 0 0 1
    outer loop
      vertex -73.9104 -30.6147 2700
      vertex -222.139 170.453 2700
      vertex -241.973 185.672 2700
    endloop
  endfacet
  facet normal -0.985646 -0.103466 -0.133407
    outer loop
      vertex 325 0 0
      vertex 272.544 112.892 300
      vertex 275 476.314 0
    endloop
  endfacet
  facet normal -0.77905 -0.395989 -0.486081
    outer loop
      vertex 272.544 112.892 300
      vertex 67.8736 515.551 300
      vertex 275 476.314 0
    endloop
  endfacet
  facet normal 0 -0.991555 0.129687
    outer loop
      vertex 67.8736 515.551 300
      vertex -275 476.314 0
      vertex 275 476.314 0
    endloop
  endfacet
  facet normal 0.364842 -0.880806 -0.30178
    outer loop
      vertex 67.8736 515.551 300
      vertex -412.544 316.556 300
      vertex -275 476.314 0
    endloop
  endfacet
  facet normal 0.923282 -0.0969195 0.371693
    outer loop
      vertex -275 476.314 0
      vertex -412.544 316.556 300
      vertex -325 0 0
    endloop
  endfacet
  facet normal 0.949587 0.309564 -0.0495464
    outer loop
      vertex -325 0 0
      vertex -412.544 316.556 300
      vertex -272.544 -112.892 300
    endloop
  endfacet
  facet normal 0.985646 0.103466 -0.133407
    outer loop
      vertex -275 -476.314 0
      vertex -325 0 0
      vertex -272.544 -112.892 300
    endloop
  endfacet
  facet normal 0.77905 0.395989 -0.486081
    outer loop
      vertex -67.8736 -515.551 300
      vertex -275 -476.314 0
      vertex -272.544 -112.892 300
    endloop
  endfacet
  facet normal 0 0.991555 0.129687
    outer loop
      vertex 275 -476.314 0
      vertex -275 -476.314 0
      vertex -67.8736 -515.551 300
    endloop
  endfacet
  facet normal -0.364842 0.880806 -0.30178
    outer loop
      vertex 275 -476.314 0
      vertex -67.8736 -515.551 300
      vertex 412.544 -316.556 300
    endloop
  endfacet
  facet normal -0.923282 0.0969195 0.371693
    outer loop
      vertex 325 0 0
      vertex 275 -476.314 0
      vertex 412.544 -316.556 300
    endloop
  endfacet
  facet normal -0.949587 -0.309564 -0.0495464
    outer loop
      vertex 412.544 -316.556 300
      vertex 272.544 112.892 300
      vertex 325 0 0
    endloop
  endfacet
  facet normal -0.882773 -0.448711 -0.139176
    outer loop
      vertex 187.383 187.383 600
      vertex 67.8736 515.551 300
      vertex 272.544 112.892 300
    endloop
  endfacet
  facet normal -0.591972 -0.650532 -0.475791
    outer loop
      vertex 187.383 187.383 600
      vertex -126.821 473.304 600
      vertex 67.8736 515.551 300
    endloop
  endfacet
  facet normal 0.380036 -0.917487 0.117431
    outer loop
      vertex -126.821 473.304 600
      vertex -412.544 316.556 300
      vertex 67.8736 515.551 300
    endloop
  endfacet
  facet normal 0.676537 -0.676537 -0.290854
    outer loop
      vertex -126.821 473.304 600
      vertex -473.304 126.821 600
      vertex -412.544 316.556 300
    endloop
  endfacet
  facet normal 0.886199 0.2889 0.362199
    outer loop
      vertex -412.544 316.556 300
      vertex -473.304 126.821 600
      vertex -272.544 -112.892 300
    endloop
  endfacet
  facet normal 0.738935 0.672417 -0.0427969
    outer loop
      vertex -272.544 -112.892 300
      vertex -473.304 126.821 600
      vertex -187.383 -187.383 600
    endloop
  endfacet
  facet normal 0.882773 0.448711 -0.139176
    outer loop
      vertex -67.8736 -515.551 300
      vertex -272.544 -112.892 300
      vertex -187.383 -187.383 600
    endloop
  endfacet
  facet normal 0.591972 0.650532 -0.475791
    outer loop
      vertex -67.8736 -515.551 300
      vertex -187.383 -187.383 600
      vertex 126.821 -473.304 600
    endloop
  endfacet
  facet normal -0.380036 0.917487 0.117431
    outer loop
      vertex 412.544 -316.556 300
      vertex -67.8736 -515.551 300
      vertex 126.821 -473.304 600
    endloop
  endfacet
  facet normal -0.676537 0.676537 -0.290854
    outer loop
      vertex 412.544 -316.556 300
      vertex 126.821 -473.304 600
      vertex 473.304 -126.821 600
    endloop
  endfacet
  facet normal -0.886199 -0.2889 0.362199
    outer loop
      vertex 473.304 -126.821 600
      vertex 272.544 112.892 300
      vertex 412.544 -316.556 300
    endloop
  endfacet
  facet normal -0.738935 -0.672417 -0.0427969
    outer loop
      vertex 473.304 -126.821 600
      vertex 187.383 187.383 600
      vertex 272.544 112.892 300
    endloop
  endfacet
  facet normal -0.666036 -0.731922 -0.143827
    outer loop
      vertex 89.9306 217.112 900
      vertex -126.821 473.304 600
      vertex 187.383 187.383 600
    endloop
  endfacet
  facet normal -0.328546 -0.822218 -0.464775
    outer loop
      vertex 89.9306 217.112 900
      vertex -280.03 364.943 900
      vertex -126.821 473.304 600
    endloop
  endfacet
  facet normal 0.703189 -0.703189 0.105122
    outer loop
      vertex -280.03 364.943 900
      vertex -473.304 126.821 600
      vertex -126.821 473.304 600
    endloop
  endfacet
  facet normal 0.886975 -0.367397 -0.279812
    outer loop
      vertex -456.065 -60.042 900
      vertex -473.304 126.821 600
      vertex -280.03 364.943 900
    endloop
  endfacet
  facet normal 0.692129 0.629824 0.352532
    outer loop
      vertex -187.383 -187.383 600
      vertex -473.304 126.821 600
      vertex -456.065 -60.042 900
    endloop
  endfacet
  facet normal 0.393979 0.918376 -0.0369748
    outer loop
      vertex -187.383 -187.383 600
      vertex -456.065 -60.042 900
      vertex -89.9306 -217.112 900
    endloop
  endfacet
  facet normal 0.666036 0.731922 -0.143827
    outer loop
      vertex 126.821 -473.304 600
      vertex -187.383 -187.383 600
      vertex -89.9306 -217.112 900
    endloop
  endfacet
  facet normal 0.328546 0.822218 -0.464775
    outer loop
      vertex 126.821 -473.304 600
      vertex -89.9306 -217.112 900
      vertex 280.03 -364.943 900
    endloop
  endfacet
  facet normal -0.703189 0.703189 0.105122
    outer loop
      vertex 473.304 -126.821 600
      vertex 126.821 -473.304 600
      vertex 280.03 -364.943 900
    endloop
  endfacet
  facet normal -0.886975 0.367397 -0.279812
    outer loop
      vertex 473.304 -126.821 600
      vertex 280.03 -364.943 900
      vertex 456.065 60.042 900
    endloop
  endfacet
  facet normal -0.692129 -0.629824 0.352532
    outer loop
      vertex 456.065 60.042 900
      vertex 187.383 187.383 600
      vertex 473.304 -126.821 600
    endloop
  endfacet
  facet normal -0.393979 -0.918376 -0.0369748
    outer loop
      vertex 456.065 60.042 900
      vertex 89.9306 217.112 900
      vertex 187.383 187.383 600
    endloop
  endfacet
  facet normal -0.367022 -0.918507 -0.147104
    outer loop
      vertex 0 205 1200
      vertex -280.03 364.943 900
      vertex 89.9306 217.112 900
    endloop
  endfacet
  facet normal -0.0239338 -0.891273 -0.452834
    outer loop
      vertex 0 205 1200
      vertex -372.391 215 1200
      vertex -280.03 364.943 900
    endloop
  endfacet
  facet normal 0.919896 -0.381033 0.0927637
    outer loop
      vertex -372.391 215 1200
      vertex -456.065 -60.042 900
      vertex -280.03 364.943 900
    endloop
  endfacet
  facet normal 0.963236 0 -0.268658
    outer loop
      vertex -372.391 -215 1200
      vertex -456.065 -60.042 900
      vertex -372.391 215 1200
    endloop
  endfacet
  facet normal 0.370382 0.863371 0.34265
    outer loop
      vertex -89.9306 -217.112 900
      vertex -456.065 -60.042 900
      vertex -372.391 -215 1200
    endloop
  endfacet
  facet normal -0.0268298 0.999118 -0.032294
    outer loop
      vertex -89.9306 -217.112 900
      vertex -372.391 -215 1200
      vertex 0 -205 1200
    endloop
  endfacet
  facet normal 0.367022 0.918507 -0.147104
    outer loop
      vertex 280.03 -364.943 900
      vertex -89.9306 -217.112 900
      vertex 0 -205 1200
    endloop
  endfacet
  facet normal 0.0239338 0.891273 -0.452834
    outer loop
      vertex 280.03 -364.943 900
      vertex 0 -205 1200
      vertex 372.391 -215 1200
    endloop
  endfacet
  facet normal -0.919896 0.381033 0.0927637
    outer loop
      vertex 456.065 60.042 900
      vertex 280.03 -364.943 900
      vertex 372.391 -215 1200
    endloop
  endfacet
  facet normal -0.963236 0 -0.268658
    outer loop
      vertex 456.065 60.042 900
      vertex 372.391 -215 1200
      vertex 372.391 215 1200
    endloop
  endfacet
  facet normal -0.370382 -0.863371 0.34265
    outer loop
      vertex 372.391 215 1200
      vertex 89.9306 217.112 900
      vertex 456.065 60.042 900
    endloop
  endfacet
  facet normal 0.0268298 -0.999118 -0.032294
    outer loop
      vertex 372.391 215 1200
      vertex 0 205 1200
      vertex 89.9306 217.112 900
    endloop
  endfacet
  facet normal -0.0265455 -0.98853 -0.148673
    outer loop
      vertex -66.9696 161.679 1500
      vertex -372.391 215 1200
      vertex 0 205 1200
    endloop
  endfacet
  facet normal 0.283085 -0.852366 -0.439698
    outer loop
      vertex -66.9696 161.679 1500
      vertex -396.578 52.2105 1500
      vertex -372.391 215 1200
    endloop
  endfacet
  facet normal 0.996766 0 0.0803626
    outer loop
      vertex -372.391 215 1200
      vertex -396.578 52.2105 1500
      vertex -372.391 -215 1200
    endloop
  endfacet
  facet normal 0.89275 0.369789 -0.257395
    outer loop
      vertex -372.391 -215 1200
      vertex -396.578 52.2105 1500
      vertex -243.505 -317.341 1500
    endloop
  endfacet
  facet normal -0.0253166 0.942767 0.33249
    outer loop
      vertex 0 -205 1200
      vertex -372.391 -215 1200
      vertex -243.505 -317.341 1500
    endloop
  endfacet
  facet normal -0.448004 0.89356 -0.0290244
    outer loop
      vertex 0 -205 1200
      vertex -243.505 -317.341 1500
      vertex 66.9696 -161.679 1500
    endloop
  endfacet
  facet normal 0.0265455 0.98853 -0.148673
    outer loop
      vertex 372.391 -215 1200
      vertex 0 -205 1200
      vertex 66.9696 -161.679 1500
    endloop
  endfacet
  facet normal -0.283085 0.852366 -0.439698
    outer loop
      vertex 372.391 -215 1200
      vertex 66.9696 -161.679 1500
      vertex 396.578 -52.2105 1500
    endloop
  endfacet
  facet normal -0.996766 0 0.0803626
    outer loop
      vertex 372.391 215 1200
      vertex 372.391 -215 1200
      vertex 396.578 -52.2105 1500
    endloop
  endfacet
  facet normal -0.89275 -0.369789 -0.257395
    outer loop
      vertex 396.578 -52.2105 1500
      vertex 243.505 317.341 1500
      vertex 372.391 215 1200
    endloop
  endfacet
  facet normal 0.0253166 -0.942767 0.33249
    outer loop
      vertex 243.505 317.341 1500
      vertex 0 205 1200
      vertex 372.391 215 1200
    endloop
  endfacet
  facet normal 0.448004 -0.89356 -0.0290244
    outer loop
      vertex 243.505 317.341 1500
      vertex -66.9696 161.679 1500
      vertex 0 205 1200
    endloop
  endfacet
  facet normal 0.311713 -0.938564 -0.148099
    outer loop
      vertex -102.53 102.53 1800
      vertex -396.578 52.2105 1500
      vertex -66.9696 161.679 1500
    endloop
  endfacet
  facet normal 0.555855 -0.714427 -0.424992
    outer loop
      vertex -357.393 -95.763 1800
      vertex -396.578 52.2105 1500
      vertex -102.53 102.53 1800
    endloop
  endfacet
  facet normal 0.921746 0.3818 0.0679242
    outer loop
      vertex -243.505 -317.341 1500
      vertex -396.578 52.2105 1500
      vertex -357.393 -95.763 1800
    endloop
  endfacet
  facet normal 0.685372 0.685372 -0.246027
    outer loop
      vertex -243.505 -317.341 1500
      vertex -357.393 -95.763 1800
      vertex -95.763 -357.393 1800
    endloop
  endfacet
  facet normal -0.424328 0.846338 0.321959
    outer loop
      vertex 66.9696 -161.679 1500
      vertex -243.505 -317.341 1500
      vertex -95.763 -357.393 1800
    endloop
  endfacet
  facet normal -0.788952 0.613838 -0.0275058
    outer loop
      vertex 66.9696 -161.679 1500
      vertex -95.763 -357.393 1800
      vertex 102.53 -102.53 1800
    endloop
  endfacet
  facet normal -0.311713 0.938564 -0.148099
    outer loop
      vertex 396.578 -52.2105 1500
      vertex 66.9696 -161.679 1500
      vertex 102.53 -102.53 1800
    endloop
  endfacet
  facet normal -0.555855 0.714427 -0.424992
    outer loop
      vertex 396.578 -52.2105 1500
      vertex 102.53 -102.53 1800
      vertex 357.393 95.763 1800
    endloop
  endfacet
  facet normal -0.921746 -0.3818 0.0679242
    outer loop
      vertex 357.393 95.763 1800
      vertex 243.505 317.341 1500
      vertex 396.578 -52.2105 1500
    endloop
  endfacet
  facet normal -0.685372 -0.685372 -0.246027
    outer loop
      vertex 357.393 95.763 1800
      vertex 95.763 357.393 1800
      vertex 243.505 317.341 1500
    endloop
  endfacet
  facet normal 0.424328 -0.846338 0.321959
    outer loop
      vertex 95.763 357.393 1800
      vertex -66.9696 161.679 1500
      vertex 243.505 317.341 1500
    endloop
  endfacet
  facet normal 0.788952 -0.613838 -0.0275058
    outer loop
      vertex 95.763 357.393 1800
      vertex -102.53 102.53 1800
      vertex -66.9696 161.679 1500
    endloop
  endfacet
  facet normal 0.607598 -0.780931 -0.144813
    outer loop
      vertex -106.246 44.0086 2100
      vertex -357.393 -95.763 1800
      vertex -102.53 102.53 1800
    endloop
  endfacet
  facet normal 0.764916 -0.498268 -0.408207
    outer loop
      vertex -269.74 -206.979 2100
      vertex -357.393 -95.763 1800
      vertex -106.246 44.0086 2100
    endloop
  endfacet
  facet normal 0.706019 0.706019 0.0554541
    outer loop
      vertex -95.763 -357.393 1800
      vertex -357.393 -95.763 1800
      vertex -269.74 -206.979 2100
    endloop
  endfacet
  facet normal 0.372008 0.898106 -0.234555
    outer loop
      vertex -95.763 -357.393 1800
      vertex -269.74 -206.979 2100
      vertex 44.3789 -337.091 2100
    endloop
  endfacet
  facet normal -0.750132 0.583635 0.310921
    outer loop
      vertex 102.53 -102.53 1800
      vertex -95.763 -357.393 1800
      vertex 44.3789 -337.091 2100
    endloop
  endfacet
  facet normal -0.97805 0.206458 -0.0281607
    outer loop
      vertex 102.53 -102.53 1800
      vertex 44.3789 -337.091 2100
      vertex 106.246 -44.0086 2100
    endloop
  endfacet
  facet normal -0.607598 0.780931 -0.144813
    outer loop
      vertex 357.393 95.763 1800
      vertex 102.53 -102.53 1800
      vertex 106.246 -44.0086 2100
    endloop
  endfacet
  facet normal -0.764916 0.498268 -0.408207
    outer loop
      vertex 357.393 95.763 1800
      vertex 106.246 -44.0086 2100
      vertex 269.74 206.979 2100
    endloop
  endfacet
  facet normal -0.706019 -0.706019 0.0554541
    outer loop
      vertex 269.74 206.979 2100
      vertex 95.763 357.393 1800
      vertex 357.393 95.763 1800
    endloop
  endfacet
  facet normal -0.372008 -0.898106 -0.234555
    outer loop
      vertex 269.74 206.979 2100
      vertex -44.3789 337.091 2100
      vertex 95.763 357.393 1800
    endloop
  endfacet
  facet normal 0.750132 -0.583635 0.310921
    outer loop
      vertex -44.3789 337.091 2100
      vertex -102.53 102.53 1800
      vertex 95.763 357.393 1800
    endloop
  endfacet
  facet normal 0.97805 -0.206458 -0.0281607
    outer loop
      vertex -44.3789 337.091 2100
      vertex -106.246 44.0086 2100
      vertex -102.53 102.53 1800
    endloop
  endfacet
  facet normal 0.82988 -0.540587 -0.138074
    outer loop
      vertex -85 0 2400
      vertex -269.74 -206.979 2100
      vertex -106.246 44.0086 2100
    endloop
  endfacet
  facet normal 0.891578 -0.232469 -0.388647
    outer loop
      vertex -155 -268.468 2400
      vertex -269.74 -206.979 2100
      vertex -85 0 2400
    endloop
  endfacet
  facet normal 0.38233 0.923027 0.0429579
    outer loop
      vertex 44.3789 -337.091 2100
      vertex -269.74 -206.979 2100
      vertex -155 -268.468 2400
    endloop
  endfacet
  facet normal 0 0.974822 -0.222985
    outer loop
      vertex 44.3789 -337.091 2100
      vertex -155 -268.468 2400
      vertex 155 -268.468 2400
    endloop
  endfacet
  facet normal -0.933622 0.19708 0.29918
    outer loop
      vertex 106.246 -44.0086 2100
      vertex 44.3789 -337.091 2100
      vertex 155 -268.468 2400
    endloop
  endfacet
  facet normal -0.967168 -0.252178 -0.0315019
    outer loop
      vertex 155 -268.468 2400
      vertex 85 0 2400
      vertex 106.246 -44.0086 2100
    endloop
  endfacet
  facet normal -0.82988 0.540587 -0.138074
    outer loop
      vertex 106.246 -44.0086 2100
      vertex 85 0 2400
      vertex 269.74 206.979 2100
    endloop
  endfacet
  facet normal -0.891578 0.232469 -0.388647
    outer loop
      vertex 269.74 206.979 2100
      vertex 85 0 2400
      vertex 155 268.468 2400
    endloop
  endfacet
  facet normal -0.38233 -0.923027 0.0429579
    outer loop
      vertex 155 268.468 2400
      vertex -44.3789 337.091 2100
      vertex 269.74 206.979 2100
    endloop
  endfacet
  facet normal -0 -0.974822 -0.222985
    outer loop
      vertex 155 268.468 2400
      vertex -155 268.468 2400
      vertex -44.3789 337.091 2100
    endloop
  endfacet
  facet normal 0.933622 -0.19708 0.29918
    outer loop
      vertex -44.3789 337.091 2100
      vertex -155 268.468 2400
      vertex -106.246 44.0086 2100
    endloop
  endfacet
  facet normal 0.967168 0.252178 -0.0315019
    outer loop
      vertex -106.246 44.0086 2100
      vertex -155 268.468 2400
      vertex -85 0 2400
    endloop
  endfacet
  facet normal 0.959821 -0.250263 -0.126935
    outer loop
      vertex -50.8134 -21.0476 2700
      vertex -155 -268.468 2400
      vertex -85 0 2400
    endloop
  endfacet
  facet normal 0.929415 0.0516808 -0.365398
    outer loop
      vertex -36.5473 -277.605 2700
      vertex -155 -268.468 2400
      vertex -50.8134 -21.0476 2700
    endloop
  endfacet
  facet normal 0 0.999537 0.0304415
    outer loop
      vertex 155 -268.468 2400
      vertex -155 -268.468 2400
      vertex -36.5473 -277.605 2700
    endloop
  endfacet
  facet normal -0.374041 0.903015 -0.21132
    outer loop
      vertex 155 -268.468 2400
      vertex -36.5473 -277.605 2700
      vertex 222.139 -170.453 2700
    endloop
  endfacet
  facet normal -0.927097 -0.24173 0.286458
    outer loop
      vertex 222.139 -170.453 2700
      vertex 85 0 2400
      vertex 155 -268.468 2400
    endloop
  endfacet
  facet normal -0.744733 -0.666273 -0.0381216
    outer loop
      vertex 222.139 -170.453 2700
      vertex 50.8134 21.0476 2700
      vertex 85 0 2400
    endloop
  endfacet
  facet normal -0.959821 0.250263 -0.126935
    outer loop
      vertex 85 0 2400
      vertex 50.8134 21.0476 2700
      vertex 155 268.468 2400
    endloop
  endfacet
  facet normal -0.929415 -0.0516808 -0.365398
    outer loop
      vertex 50.8134 21.0476 2700
      vertex 36.5473 277.605 2700
      vertex 155 268.468 2400
    endloop
  endfacet
  facet normal 0 -0.999537 0.0304415
    outer loop
      vertex 36.5473 277.605 2700
      vertex -155 268.468 2400
      vertex 155 268.468 2400
    endloop
  endfacet
  facet normal 0.374041 -0.903015 -0.21132
    outer loop
      vertex 36.5473 277.605 2700
      vertex -222.139 170.453 2700
      vertex -155 268.468 2400
    endloop
  endfacet
  facet normal 0.927097 0.24173 0.286458
    outer loop
      vertex -155 268.468 2400
      vertex -222.139 170.453 2700
      vertex -85 0 2400
    endloop
  endfacet
  facet normal 0.744733 0.666273 -0.0381216
    outer loop
      vertex -85 0 2400
      vertex -222.139 170.453 2700
      vertex -50.8134 -21.0476 2700
    endloop
  endfacet
endsolid OpenSCAD_Model
