solid OpenSCAD_Model
  facet normal 0.751426 0.607371 -0.257798
    outer loop
      vertex 526.611 218.13 300
      vertex 600 0 0
      vertex 250 433.013 0
    endloop
  endfacet
  facet normal 0.461145 0.865664 0.194862
    outer loop
      vertex 526.611 218.13 300
      vertex 250 433.013 0
      vertex 61.3473 465.979 300
    endloop
  endfacet
  facet normal 0 0.994016 -0.10923
    outer loop
      vertex 61.3473 465.979 300
      vertex 250 433.013 0
      vertex -250 433.013 0
    endloop
  endfacet
  facet normal -0.366982 0.885973 0.283505
    outer loop
      vertex 61.3473 465.979 300
      vertex -250 433.013 0
      vertex -372.876 286.118 300
    endloop
  endfacet
  facet normal -0.777669 0.628582 -0.010738
    outer loop
      vertex -372.876 286.118 300
      vertex -250 433.013 0
      vertex -600 0 0
    endloop
  endfacet
  facet normal -0.873573 0.266335 0.407353
    outer loop
      vertex -526.611 -218.13 300
      vertex -372.876 286.118 300
      vertex -600 0 0
    endloop
  endfacet
  facet normal -0.751426 -0.607371 -0.257798
    outer loop
      vertex -250 -433.013 0
      vertex -526.611 -218.13 300
      vertex -600 0 0
    endloop
  endfacet
  facet normal -0.461145 -0.865664 0.194862
    outer loop
      vertex -250 -433.013 0
      vertex -61.3473 -465.979 300
      vertex -526.611 -218.13 300
    endloop
  endfacet
  facet normal -0 -0.994016 -0.10923
    outer loop
      vertex 250 -433.013 0
      vertex -61.3473 -465.979 300
      vertex -250 -433.013 0
    endloop
  endfacet
  facet normal 0.366982 -0.885973 0.283505
    outer loop
      vertex 250 -433.013 0
      vertex 372.876 -286.118 300
      vertex -61.3473 -465.979 300
    endloop
  endfacet
  facet normal 0.777669 -0.628582 -0.010738
    outer loop
      vertex 600 0 0
      vertex 372.876 -286.118 300
      vertex 250 -433.013 0
    endloop
  endfacet
  facet normal 0.873573 -0.266335 0.407353
    outer loop
      vertex 600 0 0
      vertex 526.611 218.13 300
      vertex 372.876 -286.118 300
    endloop
  endfacet
  facet normal 0.455609 0.85527 -0.246848
    outer loop
      vertex 381.838 381.838 600
      vertex 526.611 218.13 300
      vertex 61.3473 465.979 300
    endloop
  endfacet
  facet normal 0.0852827 0.979302 0.183559
    outer loop
      vertex 381.838 381.838 600
      vertex 61.3473 465.979 300
      vertex -113.88 425.007 600
    endloop
  endfacet
  facet normal -0.380883 0.919533 -0.096888
    outer loop
      vertex -113.88 425.007 600
      vertex 61.3473 465.979 300
      vertex -372.876 286.118 300
    endloop
  endfacet
  facet normal -0.680369 0.680369 0.272389
    outer loop
      vertex -113.88 425.007 600
      vertex -372.876 286.118 300
      vertex -425.007 113.88 600
    endloop
  endfacet
  facet normal -0.956531 0.291628 0.00121346
    outer loop
      vertex -425.007 113.88 600
      vertex -372.876 286.118 300
      vertex -526.611 -218.13 300
    endloop
  endfacet
  facet normal -0.914068 -0.0796018 0.397672
    outer loop
      vertex -381.838 -381.838 600
      vertex -425.007 113.88 600
      vertex -526.611 -218.13 300
    endloop
  endfacet
  facet normal -0.455609 -0.85527 -0.246848
    outer loop
      vertex -61.3473 -465.979 300
      vertex -381.838 -381.838 600
      vertex -526.611 -218.13 300
    endloop
  endfacet
  facet normal -0.0852827 -0.979302 0.183559
    outer loop
      vertex -61.3473 -465.979 300
      vertex 113.88 -425.007 600
      vertex -381.838 -381.838 600
    endloop
  endfacet
  facet normal 0.380883 -0.919533 -0.096888
    outer loop
      vertex 372.876 -286.118 300
      vertex 113.88 -425.007 600
      vertex -61.3473 -465.979 300
    endloop
  endfacet
  facet normal 0.680369 -0.680369 0.272389
    outer loop
      vertex 372.876 -286.118 300
      vertex 425.007 -113.88 600
      vertex 113.88 -425.007 600
    endloop
  endfacet
  facet normal 0.956531 -0.291628 0.00121346
    outer loop
      vertex 526.611 218.13 300
      vertex 425.007 -113.88 600
      vertex 372.876 -286.118 300
    endloop
  endfacet
  facet normal 0.914068 0.0796018 0.397672
    outer loop
      vertex 425.007 -113.88 600
      vertex 526.611 218.13 300
      vertex 381.838 381.838 600
    endloop
  endfacet
  facet normal 0.0843094 0.968125 -0.235851
    outer loop
      vertex 195.169 471.179 900
      vertex 381.838 381.838 600
      vertex -113.88 425.007 600
    endloop
  endfacet
  facet normal -0.307047 0.935975 0.172258
    outer loop
      vertex 195.169 471.179 900
      vertex -113.88 425.007 600
      vertex -249.592 325.275 900
    endloop
  endfacet
  facet normal -0.704578 0.704578 -0.0845008
    outer loop
      vertex -249.592 325.275 900
      vertex -113.88 425.007 600
      vertex -425.007 113.88 600
    endloop
  endfacet
  facet normal -0.891816 0.369402 0.261162
    outer loop
      vertex -406.492 -53.5157 900
      vertex -249.592 325.275 900
      vertex -425.007 113.88 600
    endloop
  endfacet
  facet normal -0.996144 -0.0867494 0.0130735
    outer loop
      vertex -381.838 -381.838 600
      vertex -406.492 -53.5157 900
      vertex -425.007 113.88 600
    endloop
  endfacet
  facet normal -0.82245 -0.416133 0.387827
    outer loop
      vertex -381.838 -381.838 600
      vertex -195.169 -471.179 900
      vertex -406.492 -53.5157 900
    endloop
  endfacet
  facet normal -0.0843094 -0.968125 -0.235851
    outer loop
      vertex 113.88 -425.007 600
      vertex -195.169 -471.179 900
      vertex -381.838 -381.838 600
    endloop
  endfacet
  facet normal 0.307047 -0.935975 0.172258
    outer loop
      vertex 113.88 -425.007 600
      vertex 249.592 -325.275 900
      vertex -195.169 -471.179 900
    endloop
  endfacet
  facet normal 0.704578 -0.704578 -0.0845008
    outer loop
      vertex 425.007 -113.88 600
      vertex 249.592 -325.275 900
      vertex 113.88 -425.007 600
    endloop
  endfacet
  facet normal 0.891816 -0.369402 0.261162
    outer loop
      vertex 425.007 -113.88 600
      vertex 406.492 53.5157 900
      vertex 249.592 -325.275 900
    endloop
  endfacet
  facet normal 0.996144 0.0867494 0.0130735
    outer loop
      vertex 406.492 53.5157 900
      vertex 425.007 -113.88 600
      vertex 381.838 381.838 600
    endloop
  endfacet
  facet normal 0.82245 0.416133 0.387827
    outer loop
      vertex 406.492 53.5157 900
      vertex 381.838 381.838 600
      vertex 195.169 471.179 900
    endloop
  endfacet
  facet normal -0.303727 0.925855 -0.224817
    outer loop
      vertex 0 480 1200
      vertex 195.169 471.179 900
      vertex -249.592 325.275 900
    endloop
  endfacet
  facet normal -0.65252 0.740475 0.16098
    outer loop
      vertex 0 480 1200
      vertex -249.592 325.275 900
      vertex -329.09 190 1200
    endloop
  endfacet
  facet normal -0.921477 0.381688 -0.0720742
    outer loop
      vertex -329.09 190 1200
      vertex -249.592 325.275 900
      vertex -406.492 -53.5157 900
    endloop
  endfacet
  facet normal -0.96829 0 0.249828
    outer loop
      vertex -329.09 -190 1200
      vertex -329.09 190 1200
      vertex -406.492 -53.5157 900
    endloop
  endfacet
  facet normal -0.892012 -0.451329 0.0248162
    outer loop
      vertex -195.169 -471.179 900
      vertex -329.09 -190 1200
      vertex -406.492 -53.5157 900
    endloop
  endfacet
  facet normal -0.612141 -0.694653 0.37781
    outer loop
      vertex -195.169 -471.179 900
      vertex 0 -480 1200
      vertex -329.09 -190 1200
    endloop
  endfacet
  facet normal 0.303727 -0.925855 -0.224817
    outer loop
      vertex 249.592 -325.275 900
      vertex 0 -480 1200
      vertex -195.169 -471.179 900
    endloop
  endfacet
  facet normal 0.65252 -0.740475 0.16098
    outer loop
      vertex 249.592 -325.275 900
      vertex 329.09 -190 1200
      vertex 0 -480 1200
    endloop
  endfacet
  facet normal 0.921477 -0.381688 -0.0720742
    outer loop
      vertex 406.492 53.5157 900
      vertex 329.09 -190 1200
      vertex 249.592 -325.275 900
    endloop
  endfacet
  facet normal 0.96829 0 0.249828
    outer loop
      vertex 406.492 53.5157 900
      vertex 329.09 190 1200
      vertex 329.09 -190 1200
    endloop
  endfacet
  facet normal 0.892012 0.451329 0.0248162
    outer loop
      vertex 329.09 190 1200
      vertex 406.492 53.5157 900
      vertex 195.169 471.179 900
    endloop
  endfacet
  facet normal 0.612141 0.694653 0.37781
    outer loop
      vertex 329.09 190 1200
      vertex 195.169 471.179 900
      vertex 0 480 1200
    endloop
  endfacet
  facet normal -0.645861 0.732918 -0.213764
    outer loop
      vertex -172.208 415.746 1500
      vertex 0 480 1200
      vertex -329.09 190 1200
    endloop
  endfacet
  facet normal -0.894008 0.422284 0.14975
    outer loop
      vertex -172.208 415.746 1500
      vertex -329.09 190 1200
      vertex -347.006 45.6842 1500
    endloop
  endfacet
  facet normal -0.998222 -0 -0.0596139
    outer loop
      vertex -329.09 190 1200
      vertex -329.09 -190 1200
      vertex -347.006 45.6842 1500
    endloop
  endfacet
  facet normal -0.897244 -0.37165 0.23839
    outer loop
      vertex -329.09 -190 1200
      vertex -213.066 -277.674 1500
      vertex -347.006 45.6842 1500
    endloop
  endfacet
  facet normal -0.660705 -0.749762 0.0364088
    outer loop
      vertex 0 -480 1200
      vertex -213.066 -277.674 1500
      vertex -329.09 -190 1200
    endloop
  endfacet
  facet normal -0.313743 -0.875462 0.367603
    outer loop
      vertex 0 -480 1200
      vertex 172.208 -415.746 1500
      vertex -213.066 -277.674 1500
    endloop
  endfacet
  facet normal 0.645861 -0.732918 -0.213764
    outer loop
      vertex 329.09 -190 1200
      vertex 172.208 -415.746 1500
      vertex 0 -480 1200
    endloop
  endfacet
  facet normal 0.894008 -0.422284 0.14975
    outer loop
      vertex 329.09 -190 1200
      vertex 347.006 -45.6842 1500
      vertex 172.208 -415.746 1500
    endloop
  endfacet
  facet normal 0.998222 0 -0.0596139
    outer loop
      vertex 329.09 190 1200
      vertex 347.006 -45.6842 1500
      vertex 329.09 -190 1200
    endloop
  endfacet
  facet normal 0.897244 0.37165 0.23839
    outer loop
      vertex 347.006 -45.6842 1500
      vertex 329.09 190 1200
      vertex 213.066 277.674 1500
    endloop
  endfacet
  facet normal 0.660705 0.749762 0.0364088
    outer loop
      vertex 213.066 277.674 1500
      vertex 329.09 190 1200
      vertex 0 480 1200
    endloop
  endfacet
  facet normal 0.313743 0.875462 0.367603
    outer loop
      vertex 213.066 277.674 1500
      vertex 0 480 1200
      vertex -172.208 415.746 1500
    endloop
  endfacet
  facet normal -0.885433 0.418233 -0.202707
    outer loop
      vertex -296.985 296.985 1800
      vertex -172.208 415.746 1500
      vertex -347.006 45.6842 1500
    endloop
  endfacet
  facet normal -0.989845 0.0315644 0.138602
    outer loop
      vertex -309.096 -82.8221 1800
      vertex -296.985 296.985 1800
      vertex -347.006 45.6842 1500
    endloop
  endfacet
  facet normal -0.922853 -0.382258 -0.0471258
    outer loop
      vertex -213.066 -277.674 1500
      vertex -309.096 -82.8221 1800
      vertex -347.006 45.6842 1500
    endloop
  endfacet
  facet normal -0.688672 -0.688672 0.226853
    outer loop
      vertex -213.066 -277.674 1500
      vertex -82.8221 -309.096 1800
      vertex -309.096 -82.8221 1800
    endloop
  endfacet
  facet normal -0.336978 -0.940298 0.0478098
    outer loop
      vertex 172.208 -415.746 1500
      vertex -82.8221 -309.096 1800
      vertex -213.066 -277.674 1500
    endloop
  endfacet
  facet normal 0.0297696 -0.933559 0.357186
    outer loop
      vertex 172.208 -415.746 1500
      vertex 296.985 -296.985 1800
      vertex -82.8221 -309.096 1800
    endloop
  endfacet
  facet normal 0.885433 -0.418233 -0.202707
    outer loop
      vertex 347.006 -45.6842 1500
      vertex 296.985 -296.985 1800
      vertex 172.208 -415.746 1500
    endloop
  endfacet
  facet normal 0.989845 -0.0315644 0.138602
    outer loop
      vertex 347.006 -45.6842 1500
      vertex 309.096 82.8221 1800
      vertex 296.985 -296.985 1800
    endloop
  endfacet
  facet normal 0.922853 0.382258 -0.0471258
    outer loop
      vertex 309.096 82.8221 1800
      vertex 347.006 -45.6842 1500
      vertex 213.066 277.674 1500
    endloop
  endfacet
  facet normal 0.688672 0.688672 0.226853
    outer loop
      vertex 309.096 82.8221 1800
      vertex 213.066 277.674 1500
      vertex 82.8221 309.096 1800
    endloop
  endfacet
  facet normal 0.336978 0.940298 0.0478098
    outer loop
      vertex 82.8221 309.096 1800
      vertex 213.066 277.674 1500
      vertex -172.208 415.746 1500
    endloop
  endfacet
  facet normal -0.0297696 0.933559 0.357186
    outer loop
      vertex 82.8221 309.096 1800
      vertex -172.208 415.746 1500
      vertex -296.985 296.985 1800
    endloop
  endfacet
  facet normal -0.980961 0.0312811 -0.19167
    outer loop
      vertex -296.985 296.985 1800
      vertex -309.096 -82.8221 1800
      vertex -360.313 149.247 2100
    endloop
  endfacet
  facet normal -0.920962 -0.368175 0.127577
    outer loop
      vertex -309.096 -82.8221 1800
      vertex -230.072 -176.541 2100
      vertex -360.313 149.247 2100
    endloop
  endfacet
  facet normal -0.706683 -0.706683 -0.0346155
    outer loop
      vertex -82.8221 -309.096 1800
      vertex -230.072 -176.541 2100
      vertex -309.096 -82.8221 1800
    endloop
  endfacet
  facet normal -0.373716 -0.902229 0.215219
    outer loop
      vertex -82.8221 -309.096 1800
      vertex 37.8526 -287.519 2100
      vertex -230.072 -176.541 2100
    endloop
  endfacet
  facet normal 0.0318166 -0.997753 0.0589643
    outer loop
      vertex 296.985 -296.985 1800
      vertex 37.8526 -287.519 2100
      vertex -82.8221 -309.096 1800
    endloop
  endfacet
  facet normal 0.369682 -0.862123 0.346524
    outer loop
      vertex 296.985 -296.985 1800
      vertex 360.313 -149.247 2100
      vertex 37.8526 -287.519 2100
    endloop
  endfacet
  facet normal 0.980961 -0.0312811 -0.19167
    outer loop
      vertex 309.096 82.8221 1800
      vertex 360.313 -149.247 2100
      vertex 296.985 -296.985 1800
    endloop
  endfacet
  facet normal 0.920962 0.368175 0.127577
    outer loop
      vertex 360.313 -149.247 2100
      vertex 309.096 82.8221 1800
      vertex 230.072 176.541 2100
    endloop
  endfacet
  facet normal 0.706683 0.706683 -0.0346155
    outer loop
      vertex 230.072 176.541 2100
      vertex 309.096 82.8221 1800
      vertex 82.8221 309.096 1800
    endloop
  endfacet
  facet normal 0.373716 0.902229 0.215219
    outer loop
      vertex 230.072 176.541 2100
      vertex 82.8221 309.096 1800
      vertex -37.8526 287.519 2100
    endloop
  endfacet
  facet normal -0.0318166 0.997753 0.0589643
    outer loop
      vertex -37.8526 287.519 2100
      vertex 82.8221 309.096 1800
      vertex -296.985 296.985 1800
    endloop
  endfacet
  facet normal -0.369682 0.862123 0.346524
    outer loop
      vertex -37.8526 287.519 2100
      vertex -296.985 296.985 1800
      vertex -360.313 149.247 2100
    endloop
  endfacet
  facet normal -0.913268 -0.365099 -0.180679
    outer loop
      vertex -230.072 -176.541 2100
      vertex -360 0 2400
      vertex -360.313 149.247 2100
    endloop
  endfacet
  facet normal -0.694776 -0.70969 0.116729
    outer loop
      vertex -230.072 -176.541 2100
      vertex -130 -225.167 2400
      vertex -360 0 2400
    endloop
  endfacet
  facet normal -0.38259 -0.923654 -0.0220889
    outer loop
      vertex 37.8526 -287.519 2100
      vertex -130 -225.167 2400
      vertex -230.072 -176.541 2100
    endloop
  endfacet
  facet normal 0 -0.979076 0.203493
    outer loop
      vertex 37.8526 -287.519 2100
      vertex 130 -225.167 2400
      vertex -130 -225.167 2400
    endloop
  endfacet
  facet normal 0.393139 -0.916826 0.0697985
    outer loop
      vertex 360.313 -149.247 2100
      vertex 130 -225.167 2400
      vertex 37.8526 -287.519 2100
    endloop
  endfacet
  facet normal 0.658995 -0.673141 0.335568
    outer loop
      vertex 360.313 -149.247 2100
      vertex 360 0 2400
      vertex 130 -225.167 2400
    endloop
  endfacet
  facet normal 0.913268 0.365099 -0.180679
    outer loop
      vertex 360 0 2400
      vertex 360.313 -149.247 2100
      vertex 230.072 176.541 2100
    endloop
  endfacet
  facet normal 0.694776 0.70969 0.116729
    outer loop
      vertex 360 0 2400
      vertex 230.072 176.541 2100
      vertex 130 225.167 2400
    endloop
  endfacet
  facet normal 0.38259 0.923654 -0.0220889
    outer loop
      vertex 130 225.167 2400
      vertex 230.072 176.541 2100
      vertex -37.8526 287.519 2100
    endloop
  endfacet
  facet normal 0 0.979076 0.203493
    outer loop
      vertex 130 225.167 2400
      vertex -37.8526 287.519 2100
      vertex -130 225.167 2400
    endloop
  endfacet
  facet normal -0.393139 0.916826 0.0697985
    outer loop
      vertex -130 225.167 2400
      vertex -37.8526 287.519 2100
      vertex -360.313 149.247 2100
    endloop
  endfacet
  facet normal -0.658995 0.673141 0.335568
    outer loop
      vertex -360 0 2400
      vertex -130 225.167 2400
      vertex -360.313 149.247 2100
    endloop
  endfacet
  facet normal -0.689404 -0.704202 -0.169769
    outer loop
      vertex -130 -225.167 2400
      vertex -304.88 -126.286 2700
      vertex -360 0 2400
    endloop
  endfacet
  facet normal -0.345195 -0.932511 0.106133
    outer loop
      vertex -130 -225.167 2400
      vertex -30.021 -228.032 2700
      vertex -304.88 -126.286 2700
    endloop
  endfacet
  facet normal -0 -0.999954 -0.00955192
    outer loop
      vertex 130 -225.167 2400
      vertex -30.021 -228.032 2700
      vertex -130 -225.167 2400
    endloop
  endfacet
  facet normal 0.375588 -0.906749 0.191678
    outer loop
      vertex 130 -225.167 2400
      vertex 182.471 -140.015 2700
      vertex -30.021 -228.032 2700
    endloop
  endfacet
  facet normal 0.697305 -0.712273 0.0802088
    outer loop
      vertex 360 0 2400
      vertex 182.471 -140.015 2700
      vertex 130 -225.167 2400
    endloop
  endfacet
  facet normal 0.85952 -0.395091 0.324236
    outer loop
      vertex 360 0 2400
      vertex 304.88 126.286 2700
      vertex 182.471 -140.015 2700
    endloop
  endfacet
  facet normal 0.689404 0.704202 -0.169769
    outer loop
      vertex 304.88 126.286 2700
      vertex 360 0 2400
      vertex 130 225.167 2400
    endloop
  endfacet
  facet normal 0.345195 0.932511 0.106133
    outer loop
      vertex 304.88 126.286 2700
      vertex 130 225.167 2400
      vertex 30.021 228.032 2700
    endloop
  endfacet
  facet normal 0 0.999954 -0.00955192
    outer loop
      vertex 30.021 228.032 2700
      vertex 130 225.167 2400
      vertex -130 225.167 2400
    endloop
  endfacet
  facet normal -0.375588 0.906749 0.191678
    outer loop
      vertex 30.021 228.032 2700
      vertex -130 225.167 2400
      vertex -182.471 140.015 2700
    endloop
  endfacet
  facet normal -0.697305 0.712273 0.0802088
    outer loop
      vertex -182.471 140.015 2700
      vertex -130 225.167 2400
      vertex -360 0 2400
    endloop
  endfacet
  facet normal -0.85952 0.395091 0.324236
    outer loop
      vertex -304.88 -126.286 2700
      vertex -182.471 140.015 2700
      vertex -360 0 2400
    endloop
  endfacet
  facet normal 0 0 -1
    outer loop
      vertex 250 -433.013 0
      vertex 575 0 0
      vertex 600 0 0
    endloop
  endfacet
  facet normal 0 0 -1
    outer loop
      vertex 250 -433.013 0
      vertex 237.5 -411.362 0
      vertex 575 0 0
    endloop
  endfacet
  facet normal 0 0 -1
    outer loop
      vertex 250 -433.013 0
      vertex -237.5 -411.362 0
      vertex 237.5 -411.362 0
    endloop
  endfacet
  facet normal 0 0 -1
    outer loop
      vertex -250 -433.013 0
      vertex -237.5 -411.362 0
      vertex 250 -433.013 0
    endloop
  endfacet
  facet normal 0 0 -1
    outer loop
      vertex -250 -433.013 0
      vertex -575 0 0
      vertex -237.5 -411.362 0
    endloop
  endfacet
  facet normal -0 -0 -1
    outer loop
      vertex -575 0 0
      vertex -250 -433.013 0
      vertex -600 0 0
    endloop
  endfacet
  facet normal 0 0 -1
    outer loop
      vertex 575 0 0
      vertex 250 433.013 0
      vertex 600 0 0
    endloop
  endfacet
  facet normal 0 0 -1
    outer loop
      vertex 237.5 411.362 0
      vertex 250 433.013 0
      vertex 575 0 0
    endloop
  endfacet
  facet normal 0 0 -1
    outer loop
      vertex -237.5 411.362 0
      vertex 250 433.013 0
      vertex 237.5 411.362 0
    endloop
  endfacet
  facet normal 0 0 -1
    outer loop
      vertex -237.5 411.362 0
      vertex -250 433.013 0
      vertex 250 433.013 0
    endloop
  endfacet
  facet normal 0 0 -1
    outer loop
      vertex -575 0 0
      vertex -250 433.013 0
      vertex -237.5 411.362 0
    endloop
  endfacet
  facet normal 0 0 -1
    outer loop
      vertex -250 433.013 0
      vertex -575 0 0
      vertex -600 0 0
    endloop
  endfacet
  facet normal 0 0 1
    outer loop
      vertex 30.021 228.032 2700
      vertex 281.783 116.718 2700
      vertex 304.88 126.286 2700
    endloop
  endfacet
  facet normal 0 0 1
    outer loop
      vertex 30.021 228.032 2700
      vertex 26.7579 203.246 2700
      vertex 281.783 116.718 2700
    endloop
  endfacet
  facet normal 0 0 1
    outer loop
      vertex 30.021 228.032 2700
      vertex -162.637 124.796 2700
      vertex 26.7579 203.246 2700
    endloop
  endfacet
  facet normal -0 0 1
    outer loop
      vertex -182.471 140.015 2700
      vertex -162.637 124.796 2700
      vertex 30.021 228.032 2700
    endloop
  endfacet
  facet normal 0 0 1
    outer loop
      vertex -182.471 140.015 2700
      vertex -281.783 -116.718 2700
      vertex -162.637 124.796 2700
    endloop
  endfacet
  facet normal 0 -0 1
    outer loop
      vertex -281.783 -116.718 2700
      vertex -182.471 140.015 2700
      vertex -304.88 -126.286 2700
    endloop
  endfacet
  facet normal -0 0 1
    outer loop
      vertex 281.783 116.718 2700
      vertex 182.471 -140.015 2700
      vertex 304.88 126.286 2700
    endloop
  endfacet
  facet normal -0 0 1
    outer loop
      vertex 162.637 -124.796 2700
      vertex 182.471 -140.015 2700
      vertex 281.783 116.718 2700
    endloop
  endfacet
  facet normal 0 0 1
    outer loop
      vertex -26.7579 -203.246 2700
      vertex 182.471 -140.015 2700
      vertex 162.637 -124.796 2700
    endloop
  endfacet
  facet normal -0 0 1
    outer loop
      vertex -26.7579 -203.246 2700
      vertex -30.021 -228.032 2700
      vertex 182.471 -140.015 2700
    endloop
  endfacet
  facet normal 0 0 1
    outer loop
      vertex -281.783 -116.718 2700
      vertex -30.021 -228.032 2700
      vertex -26.7579 -203.246 2700
    endloop
  endfacet
  facet normal 0 0 1
    outer loop
      vertex -30.021 -228.032 2700
      vertex -281.783 -116.718 2700
      vertex -304.88 -126.286 2700
    endloop
  endfacet
  facet normal -0.748813 -0.61436 0.248677
    outer loop
      vertex 503.514 208.562 300
      vertex 237.5 411.362 0
      vertex 575 0 0
    endloop
  endfacet
  facet normal -0.4549 -0.871021 -0.185443
    outer loop
      vertex 503.514 208.562 300
      vertex 58.0842 441.193 300
      vertex 237.5 411.362 0
    endloop
  endfacet
  facet normal 0 -0.995093 0.0989484
    outer loop
      vertex 58.0842 441.193 300
      vertex -237.5 411.362 0
      vertex 237.5 411.362 0
    endloop
  endfacet
  facet normal 0.368011 -0.888457 -0.274249
    outer loop
      vertex 58.0842 441.193 300
      vertex -353.042 270.899 300
      vertex -237.5 411.362 0
    endloop
  endfacet
  facet normal 0.773099 -0.634285 0.000772754
    outer loop
      vertex -353.042 270.899 300
      vertex -575 0 0
      vertex -237.5 411.362 0
    endloop
  endfacet
  facet normal 0.874755 -0.274529 -0.399296
    outer loop
      vertex -503.514 -208.562 300
      vertex -575 0 0
      vertex -353.042 270.899 300
    endloop
  endfacet
  facet normal 0.748813 0.61436 0.248677
    outer loop
      vertex -237.5 -411.362 0
      vertex -575 0 0
      vertex -503.514 -208.562 300
    endloop
  endfacet
  facet normal 0.4549 0.871021 -0.185443
    outer loop
      vertex -237.5 -411.362 0
      vertex -503.514 -208.562 300
      vertex -58.0842 -441.193 300
    endloop
  endfacet
  facet normal 0 0.995093 0.0989484
    outer loop
      vertex 237.5 -411.362 0
      vertex -237.5 -411.362 0
      vertex -58.0842 -441.193 300
    endloop
  endfacet
  facet normal -0.368011 0.888457 -0.274249
    outer loop
      vertex 237.5 -411.362 0
      vertex -58.0842 -441.193 300
      vertex 353.042 -270.899 300
    endloop
  endfacet
  facet normal -0.773099 0.634285 0.000772754
    outer loop
      vertex 575 0 0
      vertex 237.5 -411.362 0
      vertex 353.042 -270.899 300
    endloop
  endfacet
  facet normal -0.874755 0.274529 -0.399296
    outer loop
      vertex 575 0 0
      vertex 353.042 -270.899 300
      vertex 503.514 208.562 300
    endloop
  endfacet
  facet normal -0.449662 -0.860993 0.237687
    outer loop
      vertex 364.16 364.16 600
      vertex 58.0842 441.193 300
      vertex 503.514 208.562 300
    endloop
  endfacet
  facet normal -0.0764034 -0.981752 -0.17414
    outer loop
      vertex 364.16 364.16 600
      vertex -107.41 400.859 600
      vertex 58.0842 441.193 300
    endloop
  endfacet
  facet normal 0.381247 -0.920411 0.0865682
    outer loop
      vertex -107.41 400.859 600
      vertex -353.042 270.899 300
      vertex 58.0842 441.193 300
    endloop
  endfacet
  facet normal 0.682206 -0.682206 -0.26304
    outer loop
      vertex -107.41 400.859 600
      vertex -400.859 107.41 600
      vertex -353.042 270.899 300
    endloop
  endfacet
  facet normal 0.954058 -0.299417 -0.0111042
    outer loop
      vertex -400.859 107.41 600
      vertex -503.514 -208.562 300
      vertex -353.042 270.899 300
    endloop
  endfacet
  facet normal 0.918258 0.0714621 -0.38948
    outer loop
      vertex -364.16 -364.16 600
      vertex -503.514 -208.562 300
      vertex -400.859 107.41 600
    endloop
  endfacet
  facet normal 0.449662 0.860993 0.237687
    outer loop
      vertex -58.0842 -441.193 300
      vertex -503.514 -208.562 300
      vertex -364.16 -364.16 600
    endloop
  endfacet
  facet normal 0.0764034 0.981752 -0.17414
    outer loop
      vertex -58.0842 -441.193 300
      vertex -364.16 -364.16 600
      vertex 107.41 -400.859 600
    endloop
  endfacet
  facet normal -0.381247 0.920411 0.0865682
    outer loop
      vertex 353.042 -270.899 300
      vertex -58.0842 -441.193 300
      vertex 107.41 -400.859 600
    endloop
  endfacet
  facet normal -0.682206 0.682206 -0.26304
    outer loop
      vertex 353.042 -270.899 300
      vertex 107.41 -400.859 600
      vertex 400.859 -107.41 600
    endloop
  endfacet
  facet normal -0.954058 0.299417 -0.0111042
    outer loop
      vertex 503.514 208.562 300
      vertex 353.042 -270.899 300
      vertex 400.859 -107.41 600
    endloop
  endfacet
  facet normal -0.918258 -0.0714621 -0.38948
    outer loop
      vertex 400.859 -107.41 600
      vertex 364.16 364.16 600
      vertex 503.514 208.562 300
    endloop
  endfacet
  facet normal -0.0755696 -0.971038 0.226658
    outer loop
      vertex 185.601 448.082 900
      vertex -107.41 400.859 600
      vertex 364.16 364.16 600
    endloop
  endfacet
  facet normal 0.317304 -0.934235 -0.162857
    outer loop
      vertex 185.601 448.082 900
      vertex -234.373 305.441 900
      vertex -107.41 400.859 600
    endloop
  endfacet
  facet normal 0.70516 -0.70516 0.0741478
    outer loop
      vertex -234.373 305.441 900
      vertex -400.859 107.41 600
      vertex -107.41 400.859 600
    endloop
  endfacet
  facet normal 0.89413 -0.370361 -0.251724
    outer loop
      vertex -381.706 -50.2526 900
      vertex -400.859 107.41 600
      vertex -234.373 305.441 900
    endloop
  endfacet
  facet normal 0.996725 0.0775686 -0.0228685
    outer loop
      vertex -364.16 -364.16 600
      vertex -400.859 107.41 600
      vertex -381.706 -50.2526 900
    endloop
  endfacet
  facet normal 0.829851 0.409064 -0.379492
    outer loop
      vertex -364.16 -364.16 600
      vertex -381.706 -50.2526 900
      vertex -185.601 -448.082 900
    endloop
  endfacet
  facet normal 0.0755696 0.971038 0.226658
    outer loop
      vertex 107.41 -400.859 600
      vertex -364.16 -364.16 600
      vertex -185.601 -448.082 900
    endloop
  endfacet
  facet normal -0.317304 0.934235 -0.162857
    outer loop
      vertex 107.41 -400.859 600
      vertex -185.601 -448.082 900
      vertex 234.373 -305.441 900
    endloop
  endfacet
  facet normal -0.70516 0.70516 0.0741478
    outer loop
      vertex 400.859 -107.41 600
      vertex 107.41 -400.859 600
      vertex 234.373 -305.441 900
    endloop
  endfacet
  facet normal -0.89413 0.370361 -0.251724
    outer loop
      vertex 400.859 -107.41 600
      vertex 234.373 -305.441 900
      vertex 381.706 50.2526 900
    endloop
  endfacet
  facet normal -0.996725 -0.0775686 -0.0228685
    outer loop
      vertex 381.706 50.2526 900
      vertex 364.16 364.16 600
      vertex 400.859 -107.41 600
    endloop
  endfacet
  facet normal -0.829851 -0.409064 -0.379492
    outer loop
      vertex 381.706 50.2526 900
      vertex 185.601 448.082 900
      vertex 364.16 364.16 600
    endloop
  endfacet
  facet normal 0.314034 -0.924606 0.215607
    outer loop
      vertex 0 455 1200
      vertex -234.373 305.441 900
      vertex 185.601 448.082 900
    endloop
  endfacet
  facet normal 0.662292 -0.733745 -0.151617
    outer loop
      vertex 0 455 1200
      vertex -307.439 177.5 1200
      vertex -234.373 305.441 900
    endloop
  endfacet
  facet normal 0.92212 -0.381954 0.0616928
    outer loop
      vertex -307.439 177.5 1200
      vertex -381.706 -50.2526 900
      vertex -234.373 305.441 900
    endloop
  endfacet
  facet normal 0.970698 0 -0.240303
    outer loop
      vertex -307.439 -177.5 1200
      vertex -381.706 -50.2526 900
      vertex -307.439 177.5 1200
    endloop
  endfacet
  facet normal 0.896413 0.441876 -0.0344887
    outer loop
      vertex -185.601 -448.082 900
      vertex -381.706 -50.2526 900
      vertex -307.439 -177.5 1200
    endloop
  endfacet
  facet normal 0.622668 0.689847 -0.369318
    outer loop
      vertex -185.601 -448.082 900
      vertex -307.439 -177.5 1200
      vertex 0 -455 1200
    endloop
  endfacet
  facet normal -0.314034 0.924606 0.215607
    outer loop
      vertex 234.373 -305.441 900
      vertex -185.601 -448.082 900
      vertex 0 -455 1200
    endloop
  endfacet
  facet normal -0.662292 0.733745 -0.151617
    outer loop
      vertex 234.373 -305.441 900
      vertex 0 -455 1200
      vertex 307.439 -177.5 1200
    endloop
  endfacet
  facet normal -0.92212 0.381954 0.0616928
    outer loop
      vertex 381.706 50.2526 900
      vertex 234.373 -305.441 900
      vertex 307.439 -177.5 1200
    endloop
  endfacet
  facet normal -0.970698 0 -0.240303
    outer loop
      vertex 381.706 50.2526 900
      vertex 307.439 -177.5 1200
      vertex 307.439 177.5 1200
    endloop
  endfacet
  facet normal -0.896413 -0.441876 -0.0344887
    outer loop
      vertex 307.439 177.5 1200
      vertex 185.601 448.082 900
      vertex 381.706 50.2526 900
    endloop
  endfacet
  facet normal -0.622668 -0.689847 -0.369318
    outer loop
      vertex 307.439 177.5 1200
      vertex 0 455 1200
      vertex 185.601 448.082 900
    endloop
  endfacet
  facet normal 0.655871 -0.726631 0.204549
    outer loop
      vertex -162.64 392.649 1500
      vertex -307.439 177.5 1200
      vertex 0 455 1200
    endloop
  endfacet
  facet normal 0.900969 -0.410521 -0.140453
    outer loop
      vertex -162.64 392.649 1500
      vertex -322.22 42.421 1500
      vertex -307.439 177.5 1200
    endloop
  endfacet
  facet normal 0.998789 0 0.0492088
    outer loop
      vertex -307.439 177.5 1200
      vertex -322.22 42.421 1500
      vertex -307.439 -177.5 1200
    endloop
  endfacet
  facet normal 0.899376 0.372534 -0.228782
    outer loop
      vertex -307.439 -177.5 1200
      vertex -322.22 42.421 1500
      vertex -197.847 -257.84 1500
    endloop
  endfacet
  facet normal 0.669331 0.741544 -0.045925
    outer loop
      vertex 0 -455 1200
      vertex -307.439 -177.5 1200
      vertex -197.847 -257.84 1500
    endloop
  endfacet
  facet normal 0.32693 0.874231 -0.358938
    outer loop
      vertex 0 -455 1200
      vertex -197.847 -257.84 1500
      vertex 162.64 -392.649 1500
    endloop
  endfacet
  facet normal -0.655871 0.726631 0.204549
    outer loop
      vertex 307.439 -177.5 1200
      vertex 0 -455 1200
      vertex 162.64 -392.649 1500
    endloop
  endfacet
  facet normal -0.900969 0.410521 -0.140453
    outer loop
      vertex 307.439 -177.5 1200
      vertex 162.64 -392.649 1500
      vertex 322.22 -42.421 1500
    endloop
  endfacet
  facet normal -0.998789 0 0.0492088
    outer loop
      vertex 307.439 177.5 1200
      vertex 307.439 -177.5 1200
      vertex 322.22 -42.421 1500
    endloop
  endfacet
  facet normal -0.899376 -0.372534 -0.228782
    outer loop
      vertex 322.22 -42.421 1500
      vertex 197.847 257.84 1500
      vertex 307.439 177.5 1200
    endloop
  endfacet
  facet normal -0.669331 -0.741544 -0.045925
    outer loop
      vertex 197.847 257.84 1500
      vertex 0 455 1200
      vertex 307.439 177.5 1200
    endloop
  endfacet
  facet normal -0.32693 -0.874231 -0.358938
    outer loop
      vertex 197.847 257.84 1500
      vertex -162.64 392.649 1500
      vertex 0 455 1200
    endloop
  endfacet
  facet normal 0.89279 -0.406794 0.193507
    outer loop
      vertex -279.307 279.307 1800
      vertex -322.22 42.421 1500
      vertex -162.64 392.649 1500
    endloop
  endfacet
  facet normal 0.991467 -0.0157252 -0.129404
    outer loop
      vertex -284.948 -76.3516 1800
      vertex -322.22 42.421 1500
      vertex -279.307 279.307 1800
    endloop
  endfacet
  facet normal 0.923257 0.382426 0.0367019
    outer loop
      vertex -197.847 -257.84 1500
      vertex -322.22 42.421 1500
      vertex -284.948 -76.3516 1800
    endloop
  endfacet
  facet normal 0.690232 0.690232 -0.217164
    outer loop
      vertex -197.847 -257.84 1500
      vertex -284.948 -76.3516 1800
      vertex -76.3516 -284.948 1800
    endloop
  endfacet
  facet normal 0.349699 0.935119 -0.0571252
    outer loop
      vertex 162.64 -392.649 1500
      vertex -197.847 -257.84 1500
      vertex -76.3516 -284.948 1800
    endloop
  endfacet
  facet normal -0.0148654 0.937258 -0.34832
    outer loop
      vertex 162.64 -392.649 1500
      vertex -76.3516 -284.948 1800
      vertex 279.307 -279.307 1800
    endloop
  endfacet
  facet normal -0.89279 0.406794 0.193507
    outer loop
      vertex 322.22 -42.421 1500
      vertex 162.64 -392.649 1500
      vertex 279.307 -279.307 1800
    endloop
  endfacet
  facet normal -0.991467 0.0157252 -0.129404
    outer loop
      vertex 322.22 -42.421 1500
      vertex 279.307 -279.307 1800
      vertex 284.948 76.3516 1800
    endloop
  endfacet
  facet normal -0.923257 -0.382426 0.0367019
    outer loop
      vertex 284.948 76.3516 1800
      vertex 197.847 257.84 1500
      vertex 322.22 -42.421 1500
    endloop
  endfacet
  facet normal -0.690232 -0.690232 -0.217164
    outer loop
      vertex 284.948 76.3516 1800
      vertex 76.3516 284.948 1800
      vertex 197.847 257.84 1500
    endloop
  endfacet
  facet normal -0.349699 -0.935119 -0.0571252
    outer loop
      vertex 76.3516 284.948 1800
      vertex -162.64 392.649 1500
      vertex 197.847 257.84 1500
    endloop
  endfacet
  facet normal 0.0148654 -0.937258 -0.34832
    outer loop
      vertex 76.3516 284.948 1800
      vertex -279.307 279.307 1800
      vertex -162.64 392.649 1500
    endloop
  endfacet
  facet normal 0.983081 -0.0155922 0.182507
    outer loop
      vertex -279.307 279.307 1800
      vertex -337.216 139.679 2100
      vertex -284.948 -76.3516 1800
    endloop
  endfacet
  facet normal 0.914878 0.385941 -0.118522
    outer loop
      vertex -284.948 -76.3516 1800
      vertex -337.216 139.679 2100
      vertex -210.239 -161.322 2100
    endloop
  endfacet
  facet normal 0.7069 0.7069 0.0241776
    outer loop
      vertex -76.3516 -284.948 1800
      vertex -284.948 -76.3516 1800
      vertex -210.239 -161.322 2100
    endloop
  endfacet
  facet normal 0.37452 0.90417 -0.205453
    outer loop
      vertex -76.3516 -284.948 1800
      vertex -210.239 -161.322 2100
      vertex 34.5894 -262.733 2100
    endloop
  endfacet
  facet normal -0.0158218 0.997559 -0.0680191
    outer loop
      vertex 279.307 -279.307 1800
      vertex -76.3516 -284.948 1800
      vertex 34.5894 -262.733 2100
    endloop
  endfacet
  facet normal -0.35458 0.872022 -0.337417
    outer loop
      vertex 279.307 -279.307 1800
      vertex 34.5894 -262.733 2100
      vertex 337.216 -139.679 2100
    endloop
  endfacet
  facet normal -0.983081 0.0155922 0.182507
    outer loop
      vertex 284.948 76.3516 1800
      vertex 279.307 -279.307 1800
      vertex 337.216 -139.679 2100
    endloop
  endfacet
  facet normal -0.914878 -0.385941 -0.118522
    outer loop
      vertex 337.216 -139.679 2100
      vertex 210.239 161.322 2100
      vertex 284.948 76.3516 1800
    endloop
  endfacet
  facet normal -0.7069 -0.7069 0.0241776
    outer loop
      vertex 210.239 161.322 2100
      vertex 76.3516 284.948 1800
      vertex 284.948 76.3516 1800
    endloop
  endfacet
  facet normal -0.37452 -0.90417 -0.205453
    outer loop
      vertex 210.239 161.322 2100
      vertex -34.5894 262.733 2100
      vertex 76.3516 284.948 1800
    endloop
  endfacet
  facet normal 0.0158218 -0.997559 -0.0680191
    outer loop
      vertex -34.5894 262.733 2100
      vertex -279.307 279.307 1800
      vertex 76.3516 284.948 1800
    endloop
  endfacet
  facet normal 0.35458 -0.872022 -0.337417
    outer loop
      vertex -34.5894 262.733 2100
      vertex -337.216 139.679 2100
      vertex -279.307 279.307 1800
    endloop
  endfacet
  facet normal 0.907709 0.382917 0.17158
    outer loop
      vertex -210.239 -161.322 2100
      vertex -337.216 139.679 2100
      vertex -335 0 2400
    endloop
  endfacet
  facet normal 0.679256 0.725929 -0.107878
    outer loop
      vertex -210.239 -161.322 2100
      vertex -335 0 2400
      vertex -117.5 -203.516 2400
    endloop
  endfacet
  facet normal 0.382657 0.923817 0.0116419
    outer loop
      vertex 34.5894 -262.733 2100
      vertex -210.239 -161.322 2100
      vertex -117.5 -203.516 2400
    endloop
  endfacet
  facet normal 0 0.98107 -0.193653
    outer loop
      vertex 34.5894 -262.733 2100
      vertex -117.5 -203.516 2400
      vertex 117.5 -203.516 2400
    endloop
  endfacet
  facet normal -0.375507 0.923488 -0.0785088
    outer loop
      vertex 337.216 -139.679 2100
      vertex 34.5894 -262.733 2100
      vertex 117.5 -203.516 2400
    endloop
  endfacet
  facet normal -0.645881 0.690261 -0.326155
    outer loop
      vertex 337.216 -139.679 2100
      vertex 117.5 -203.516 2400
      vertex 335 0 2400
    endloop
  endfacet
  facet normal -0.907709 -0.382917 0.17158
    outer loop
      vertex 335 0 2400
      vertex 210.239 161.322 2100
      vertex 337.216 -139.679 2100
    endloop
  endfacet
  facet normal -0.679256 -0.725929 -0.107878
    outer loop
      vertex 335 0 2400
      vertex 117.5 203.516 2400
      vertex 210.239 161.322 2100
    endloop
  endfacet
  facet normal -0.382657 -0.923817 0.0116419
    outer loop
      vertex 117.5 203.516 2400
      vertex -34.5894 262.733 2100
      vertex 210.239 161.322 2100
    endloop
  endfacet
  facet normal -0 -0.98107 -0.193653
    outer loop
      vertex 117.5 203.516 2400
      vertex -117.5 203.516 2400
      vertex -34.5894 262.733 2100
    endloop
  endfacet
  facet normal 0.375507 -0.923488 -0.0785088
    outer loop
      vertex -117.5 203.516 2400
      vertex -337.216 139.679 2100
      vertex -34.5894 262.733 2100
    endloop
  endfacet
  facet normal 0.645881 -0.690261 -0.326155
    outer loop
      vertex -335 0 2400
      vertex -337.216 139.679 2100
      vertex -117.5 203.516 2400
    endloop
  endfacet
  facet normal 0.674356 0.720692 0.16077
    outer loop
      vertex -117.5 -203.516 2400
      vertex -335 0 2400
      vertex -281.783 -116.718 2700
    endloop
  endfacet
  facet normal 0.319768 0.942459 -0.0975688
    outer loop
      vertex -117.5 -203.516 2400
      vertex -281.783 -116.718 2700
      vertex -26.7579 -203.246 2700
    endloop
  endfacet
  facet normal 0 1 -0.000899251
    outer loop
      vertex 117.5 -203.516 2400
      vertex -117.5 -203.516 2400
      vertex -26.7579 -203.246 2700
    endloop
  endfacet
  facet normal -0.376308 0.908489 -0.181768
    outer loop
      vertex 117.5 -203.516 2400
      vertex -26.7579 -203.246 2700
      vertex 162.637 -124.796 2700
    endloop
  endfacet
  facet normal -0.680565 0.727328 -0.0884541
    outer loop
      vertex 335 0 2400
      vertex 117.5 -203.516 2400
      vertex 162.637 -124.796 2700
    endloop
  endfacet
  facet normal -0.851327 0.419983 -0.314415
    outer loop
      vertex 335 0 2400
      vertex 162.637 -124.796 2700
      vertex 281.783 116.718 2700
    endloop
  endfacet
  facet normal -0.674356 -0.720692 0.16077
    outer loop
      vertex 281.783 116.718 2700
      vertex 117.5 203.516 2400
      vertex 335 0 2400
    endloop
  endfacet
  facet normal -0.319768 -0.942459 -0.0975688
    outer loop
      vertex 281.783 116.718 2700
      vertex 26.7579 203.246 2700
      vertex 117.5 203.516 2400
    endloop
  endfacet
  facet normal 0 -1 -0.000899251
    outer loop
      vertex 26.7579 203.246 2700
      vertex -117.5 203.516 2400
      vertex 117.5 203.516 2400
    endloop
  endfacet
  facet normal 0.376308 -0.908489 -0.181768
    outer loop
      vertex 26.7579 203.246 2700
      vertex -162.637 124.796 2700
      vertex -117.5 203.516 2400
    endloop
  endfacet
  facet normal 0.680565 -0.727328 -0.0884541
    outer loop
      vertex -162.637 124.796 2700
      vertex -335 0 2400
      vertex -117.5 203.516 2400
    endloop
  endfacet
  facet normal 0.851327 -0.419983 -0.314415
    outer loop
      vertex -281.783 -116.718 2700
      vertex -335 0 2400
      vertex -162.637 124.796 2700
    endloop
  endfacet
endsolid OpenSCAD_Model
