  0
SECTION
  2
HEADER
  9
$ACADVER
  1
AC1024
  9
$ACADMAINTVER
 70
6
  9
$DWGCODEPAGE
  3
ANSI_1252
  9
$LASTSAVEDBY
  1
ezdxf
  9
$INSBASE
 10
0.0
 20
0.0
 30
0.0
  9
$EXTMIN
 10
1e+20
 20
1e+20
 30
1e+20
  9
$EXTMAX
 10
-1e+20
 20
-1e+20
 30
-1e+20
  9
$LIMMIN
 10
0.0
 20
0.0
  9
$LIMMAX
 10
420.0
 20
297.0
  9
$ORTHOMODE
 70
0
  9
$REGENMODE
 70
1
  9
$FILLMODE
 70
1
  9
$QTEXTMODE
 70
0
  9
$MIRRTEXT
 70
1
  9
$LTSCALE
 40
1.0
  9
$ATTMODE
 70
1
  9
$TEXTSIZE
 40
2.5
  9
$TRACEWID
 40
1.0
  9
$TEXTSTYLE
  7
Standard
  9
$CLAYER
  8
0
  9
$CELTYPE
  6
ByLayer
  9
$CECOLOR
 62
256
  9
$CELTSCALE
 40
1.0
  9
$DISPSILH
 70
0
  9
$DIMSCALE
 40
1.0
  9
$DIMASZ
 40
2.5
  9
$DIMEXO
 40
0.625
  9
$DIMDLI
 40
3.75
  9
$DIMRND
 40
0.0
  9
$DIMDLE
 40
0.0
  9
$DIMEXE
 40
1.25
  9
$DIMTP
 40
0.0
  9
$DIMTM
 40
0.0
  9
$DIMTXT
 40
2.5
  9
$DIMCEN
 40
2.5
  9
$DIMTSZ
 40
0.0
  9
$DIMTOL
 70
0
  9
$DIMLIM
 70
0
  9
$DIMTIH
 70
0
  9
$DIMTOH
 70
0
  9
$DIMSE1
 70
0
  9
$DIMSE2
 70
0
  9
$DIMTAD
 70
1
  9
$DIMZIN
 70
8
  9
$DIMBLK
  1

  9
$DIMASO
 70
1
  9
$DIMSHO
 70
1
  9
$DIMPOST
  1

  9
$DIMAPOST
  1

  9
$DIMALT
 70
0
  9
$DIMALTD
 70
3
  9
$DIMALTF
 40
0.03937007874
  9
$DIMLFAC
 40
1.0
  9
$DIMTOFL
 70
1
  9
$DIMTVP
 40
0.0
  9
$DIMTIX
 70
0
  9
$DIMSOXD
 70
0
  9
$DIMSAH
 70
0
  9
$DIMBLK1
  1

  9
$DIMBLK2
  1

  9
$DIMSTYLE
  2
ISO-25
  9
$DIMCLRD
 70
0
  9
$DIMCLRE
 70
0
  9
$DIMCLRT
 70
0
  9
$DIMTFAC
 40
1.0
  9
$DIMGAP
 40
0.625
  9
$DIMJUST
 70
0
  9
$DIMSD1
 70
0
  9
$DIMSD2
 70
0
  9
$DIMTOLJ
 70
0
  9
$DIMTZIN
 70
8
  9
$DIMALTZ
 70
0
  9
$DIMALTTZ
 70
0
  9
$DIMUPT
 70
0
  9
$DIMDEC
 70
2
  9
$DIMTDEC
 70
2
  9
$DIMALTU
 70
2
  9
$DIMALTTD
 70
3
  9
$DIMTXSTY
  7
Standard
  9
$DIMAUNIT
 70
0
  9
$DIMADEC
 70
0
  9
$DIMALTRND
 40
0.0
  9
$DIMAZIN
 70
0
  9
$DIMDSEP
 70
44
  9
$DIMATFIT
 70
3
  9
$DIMFRAC
 70
0
  9
$DIMLDRBLK
  1

  9
$DIMLUNIT
 70
2
  9
$DIMLWD
 70
-2
  9
$DIMLWE
 70
-2
  9
$DIMTMOVE
 70
0
  9
$DIMFXL
 40
1.0
  9
$DIMFXLON
 70
0
  9
$DIMJOGANG
 40
0.785398163397
  9
$DIMTFILL
 70
0
  9
$DIMTFILLCLR
 70
0
  9
$DIMARCSYM
 70
0
  9
$DIMLTYPE
  6

  9
$DIMLTEX1
  6

  9
$DIMLTEX2
  6

  9
$DIMTXTDIRECTION
 70
0
  9
$LUNITS
 70
2
  9
$LUPREC
 70
4
  9
$SKETCHINC
 40
1.0
  9
$FILLETRAD
 40
10.0
  9
$AUNITS
 70
0
  9
$AUPREC
 70
2
  9
$MENU
  1
.
  9
$ELEVATION
 40
0.0
  9
$PELEVATION
 40
0.0
  9
$THICKNESS
 40
0.0
  9
$LIMCHECK
 70
0
  9
$CHAMFERA
 40
0.0
  9
$CHAMFERB
 40
0.0
  9
$CHAMFERC
 40
0.0
  9
$CHAMFERD
 40
0.0
  9
$SKPOLY
 70
0
  9
$TDCREATE
 40
2460465.7232291666
  9
$TDUCREATE
 40
2458532.153996898
  9
$TDUPDATE
 40
2460465.7232291666
  9
$TDUUPDATE
 40
2458532.1544311
  9
$TDINDWG
 40
0.0
  9
$TDUSRTIMER
 40
0.0
  9
$USRTIMER
 70
1
  9
$ANGBASE
 50
0.0
  9
$ANGDIR
 70
0
  9
$PDMODE
 70
0
  9
$PDSIZE
 40
0.0
  9
$PLINEWID
 40
0.0
  9
$SPLFRAME
 70
0
  9
$SPLINETYPE
 70
6
  9
$SPLINESEGS
 70
8
  9
$HANDSEED
  5
3D
  9
$SURFTAB1
 70
6
  9
$SURFTAB2
 70
6
  9
$SURFTYPE
 70
6
  9
$SURFU
 70
6
  9
$SURFV
 70
6
  9
$UCSBASE
  2

  9
$UCSNAME
  2

  9
$UCSORG
 10
0.0
 20
0.0
 30
0.0
  9
$UCSXDIR
 10
1.0
 20
0.0
 30
0.0
  9
$UCSYDIR
 10
0.0
 20
1.0
 30
0.0
  9
$UCSORTHOREF
  2

  9
$UCSORTHOVIEW
 70
0
  9
$UCSORGTOP
 10
0.0
 20
0.0
 30
0.0
  9
$UCSORGBOTTOM
 10
0.0
 20
0.0
 30
0.0
  9
$UCSORGLEFT
 10
0.0
 20
0.0
 30
0.0
  9
$UCSORGRIGHT
 10
0.0
 20
0.0
 30
0.0
  9
$UCSORGFRONT
 10
0.0
 20
0.0
 30
0.0
  9
$UCSORGBACK
 10
0.0
 20
0.0
 30
0.0
  9
$PUCSBASE
  2

  9
$PUCSNAME
  2

  9
$PUCSORG
 10
0.0
 20
0.0
 30
0.0
  9
$PUCSXDIR
 10
1.0
 20
0.0
 30
0.0
  9
$PUCSYDIR
 10
0.0
 20
1.0
 30
0.0
  9
$PUCSORTHOREF
  2

  9
$PUCSORTHOVIEW
 70
0
  9
$PUCSORGTOP
 10
0.0
 20
0.0
 30
0.0
  9
$PUCSORGBOTTOM
 10
0.0
 20
0.0
 30
0.0
  9
$PUCSORGLEFT
 10
0.0
 20
0.0
 30
0.0
  9
$PUCSORGRIGHT
 10
0.0
 20
0.0
 30
0.0
  9
$PUCSORGFRONT
 10
0.0
 20
0.0
 30
0.0
  9
$PUCSORGBACK
 10
0.0
 20
0.0
 30
0.0
  9
$USERI1
 70
0
  9
$USERI2
 70
0
  9
$USERI3
 70
0
  9
$USERI4
 70
0
  9
$USERI5
 70
0
  9
$USERR1
 40
0.0
  9
$USERR2
 40
0.0
  9
$USERR3
 40
0.0
  9
$USERR4
 40
0.0
  9
$USERR5
 40
0.0
  9
$WORLDVIEW
 70
1
  9
$SHADEDGE
 70
3
  9
$SHADEDIF
 70
70
  9
$TILEMODE
 70
1
  9
$MAXACTVP
 70
64
  9
$PINSBASE
 10
0.0
 20
0.0
 30
0.0
  9
$PLIMCHECK
 70
0
  9
$PEXTMIN
 10
1e+20
 20
1e+20
 30
1e+20
  9
$PEXTMAX
 10
-1e+20
 20
-1e+20
 30
-1e+20
  9
$PLIMMIN
 10
0.0
 20
0.0
  9
$PLIMMAX
 10
420.0
 20
297.0
  9
$UNITMODE
 70
0
  9
$VISRETAIN
 70
1
  9
$PLINEGEN
 70
0
  9
$PSLTSCALE
 70
1
  9
$TREEDEPTH
 70
3020
  9
$CMLSTYLE
  2
Standard
  9
$CMLJUST
 70
0
  9
$CMLSCALE
 40
20.0
  9
$PROXYGRAPHICS
 70
1
  9
$MEASUREMENT
 70
1
  9
$CELWEIGHT
370
-1
  9
$ENDCAPS
280
0
  9
$JOINSTYLE
280
0
  9
$LWDISPLAY
290
0
  9
$INSUNITS
 70
4
  9
$HYPERLINKBASE
  1

  9
$STYLESHEET
  1

  9
$XEDIT
290
1
  9
$CEPSNTYPE
380
0
  9
$PSTYLEMODE
290
1
  9
$FINGERPRINTGUID
  2
{5634B5B5-BBD8-4AE6-8359-03DE86038F91}
  9
$VERSIONGUID
  2
{B78C7EDC-F4D6-4695-A41A-FA1F2E575EA7}
  9
$EXTNAMES
290
1
  9
$PSVPSCALE
 40
0.0
  9
$OLESTARTUP
290
0
  9
$SORTENTS
280
127
  9
$INDEXCTL
280
0
  9
$HIDETEXT
280
1
  9
$XCLIPFRAME
280
0
  9
$HALOGAP
280
0
  9
$OBSCOLOR
 70
257
  9
$OBSLTYPE
280
0
  9
$INTERSECTIONDISPLAY
280
0
  9
$INTERSECTIONCOLOR
 70
257
  9
$DIMASSOC
280
2
  9
$PROJECTNAME
  1

  9
$CAMERADISPLAY
290
0
  9
$LENSLENGTH
 40
50.0
  9
$CAMERAHEIGHT
 40
0.0
  9
$STEPSPERSEC
 40
24.0
  9
$STEPSIZE
 40
100.0
  9
$3DDWFPREC
 40
2.0
  9
$PSOLWIDTH
 40
0.005
  9
$PSOLHEIGHT
 40
0.08
  9
$LOFTANG1
 40
1.570796326795
  9
$LOFTANG2
 40
1.570796326795
  9
$LOFTMAG1
 40
0.0
  9
$LOFTMAG2
 40
0.0
  9
$LOFTPARAM
 70
7
  9
$LOFTNORMALS
280
1
  9
$LATITUDE
 40
37.795
  9
$LONGITUDE
 40
-122.394
  9
$NORTHDIRECTION
 40
0.0
  9
$TIMEZONE
 70
-8000
  9
$LIGHTGLYPHDISPLAY
280
1
  9
$TILEMODELIGHTSYNCH
280
1
  9
$CMATERIAL
347
20
  9
$SOLIDHIST
280
0
  9
$SHOWHIST
280
1
  9
$DWFFRAME
280
2
  9
$DGNFRAME
280
2
  9
$REALWORLDSCALE
290
1
  9
$INTERFERECOLOR
 62
256
  9
$CSHADOW
280
0
  9
$SHADOWPLANELOCATION
 40
0.0
  0
ENDSEC
  0
SECTION
  2
CLASSES
  0
CLASS
  1
ACDBDICTIONARYWDFLT
  2
AcDbDictionaryWithDefault
  3
ObjectDBX Classes
 90
0
 91
0
280
0
281
0
  0
CLASS
  1
SUN
  2
AcDbSun
  3
SCENEOE
 90
1153
 91
0
280
0
281
0
  0
CLASS
  1
VISUALSTYLE
  2
AcDbVisualStyle
  3
ObjectDBX Classes
 90
4095
 91
0
280
0
281
0
  0
CLASS
  1
MATERIAL
  2
AcDbMaterial
  3
ObjectDBX Classes
 90
1153
 91
0
280
0
281
0
  0
CLASS
  1
SCALE
  2
AcDbScale
  3
ObjectDBX Classes
 90
1153
 91
0
280
0
281
0
  0
CLASS
  1
TABLESTYLE
  2
AcDbTableStyle
  3
ObjectDBX Classes
 90
4095
 91
0
280
0
281
0
  0
CLASS
  1
MLEADERSTYLE
  2
AcDbMLeaderStyle
  3
ACDB_MLEADERSTYLE_CLASS
 90
4095
 91
0
280
0
281
0
  0
CLASS
  1
DICTIONARYVAR
  2
AcDbDictionaryVar
  3
ObjectDBX Classes
 90
0
 91
0
280
0
281
0
  0
CLASS
  1
CELLSTYLEMAP
  2
AcDbCellStyleMap
  3
ObjectDBX Classes
 90
1152
 91
0
280
0
281
0
  0
CLASS
  1
MENTALRAYRENDERSETTINGS
  2
AcDbMentalRayRenderSettings
  3
SCENEOE
 90
1024
 91
0
280
0
281
0
  0
CLASS
  1
ACDBDETAILVIEWSTYLE
  2
AcDbDetailViewStyle
  3
ObjectDBX Classes
 90
1025
 91
0
280
0
281
0
  0
CLASS
  1
ACDBSECTIONVIEWSTYLE
  2
AcDbSectionViewStyle
  3
ObjectDBX Classes
 90
1025
 91
0
280
0
281
0
  0
CLASS
  1
RASTERVARIABLES
  2
AcDbRasterVariables
  3
ISM
 90
0
 91
0
280
0
281
0
  0
CLASS
  1
ACDBPLACEHOLDER
  2
AcDbPlaceHolder
  3
ObjectDBX Classes
 90
0
 91
0
280
0
281
0
  0
CLASS
  1
LAYOUT
  2
AcDbLayout
  3
ObjectDBX Classes
 90
0
 91
0
280
0
281
0
  0
ENDSEC
  0
SECTION
  2
TABLES
  0
TABLE
  2
VPORT
  5
8
330
0
100
AcDbSymbolTable
 70
1
  0
VPORT
  5
23
330
8
100
AcDbSymbolTableRecord
100
AcDbViewportTableRecord
  2
*Active
 70
0
 10
0.0
 20
0.0
 11
1.0
 21
1.0
 12
0.0
 22
0.0
 13
0.0
 23
0.0
 14
0.5
 24
0.5
 15
0.5
 25
0.5
 16
0.0
 26
0.0
 36
1.0
 17
0.0
 27
0.0
 37
0.0
 40
1000.0
 41
1.34
 42
50.0
 43
0.0
 44
0.0
 50
0.0
 51
0.0
 71
0
 72
1000
 73
1
 74
3
 75
0
 76
0
 77
0
 78
0
281
0
 65
0
146
0.0
  0
ENDTAB
  0
TABLE
  2
LTYPE
  5
2
330
0
100
AcDbSymbolTable
 70
3
  0
LTYPE
  5
24
330
2
100
AcDbSymbolTableRecord
100
AcDbLinetypeTableRecord
  2
ByBlock
 70
0
  3

 72
65
 73
0
 40
0.0
  0
LTYPE
  5
25
330
2
100
AcDbSymbolTableRecord
100
AcDbLinetypeTableRecord
  2
ByLayer
 70
0
  3

 72
65
 73
0
 40
0.0
  0
LTYPE
  5
26
330
2
100
AcDbSymbolTableRecord
100
AcDbLinetypeTableRecord
  2
Continuous
 70
0
  3

 72
65
 73
0
 40
0.0
  0
ENDTAB
  0
TABLE
  2
LAYER
  5
1
330
0
100
AcDbSymbolTable
 70
3
  0
LAYER
  5
27
330
1
100
AcDbSymbolTableRecord
100
AcDbLayerTableRecord
  2
0
 70
0
 62
7
  6
Continuous
370
-3
390
13
347
21
  0
LAYER
  5
28
330
1
100
AcDbSymbolTableRecord
100
AcDbLayerTableRecord
  2
Defpoints
 70
0
 62
7
  6
Continuous
290
0
370
-3
390
13
347
21
  0
LAYER
  5
2F
330
1
100
AcDbSymbolTableRecord
100
AcDbLayerTableRecord
  2
default
 70
0
 62
7
  6
Continuous
370
-3
390
13
347
21
  0
ENDTAB
  0
TABLE
  2
STYLE
  5
5
330
0
100
AcDbSymbolTable
 70
1
  0
STYLE
  5
29
330
5
100
AcDbSymbolTableRecord
100
AcDbTextStyleTableRecord
  2
Standard
 70
0
 40
0.0
 41
1.0
 50
0.0
 71
0
 42
2.5
  3
txt
  4

  0
ENDTAB
  0
TABLE
  2
VIEW
  5
7
330
0
100
AcDbSymbolTable
 70
0
  0
ENDTAB
  0
TABLE
  2
UCS
  5
6
330
0
100
AcDbSymbolTable
 70
0
  0
ENDTAB
  0
TABLE
  2
APPID
  5
3
330
0
100
AcDbSymbolTable
 70
3
  0
APPID
  5
2A
330
3
100
AcDbSymbolTableRecord
100
AcDbRegAppTableRecord
  2
ACAD
 70
0
  0
APPID
  5
3A
330
3
100
AcDbSymbolTableRecord
100
AcDbRegAppTableRecord
  2
HATCHBACKGROUNDCOLOR
 70
0
  0
APPID
  5
3B
330
3
100
AcDbSymbolTableRecord
100
AcDbRegAppTableRecord
  2
EZDXF
 70
0
  0
ENDTAB
  0
TABLE
  2
DIMSTYLE
  5
4
330
0
100
AcDbSymbolTable
 70
1
100
AcDbDimStyleTable
  0
DIMSTYLE
105
2B
330
4
100
AcDbSymbolTableRecord
100
AcDbDimStyleTableRecord
  2
Standard
 70
0
 40
1.0
 41
2.5
 42
0.625
 43
3.75
 44
1.25
 45
0.0
 46
0.0
 47
0.0
 48
0.0
 49
2.5
140
2.5
141
2.5
142
0.0
143
0.03937007874
144
1.0
145
0.0
146
1.0
147
0.625
148
0.0
 69
0
 70
0
 71
0
 72
0
 73
0
 74
0
 75
0
 76
0
 77
1
 78
8
 79
3
170
0
171
3
172
1
173
0
174
0
175
0
176
0
177
0
178
0
179
2
271
2
272
2
273
2
274
3
275
0
276
0
277
2
278
44
279
0
280
0
281
0
282
0
283
0
284
8
285
0
286
0
288
0
289
3
290
0
371
-2
372
-2
  0
ENDTAB
  0
TABLE
  2
BLOCK_RECORD
  5
9
330
0
100
AcDbSymbolTable
 70
2
  0
BLOCK_RECORD
  5
17
330
9
100
AcDbSymbolTableRecord
100
AcDbBlockTableRecord
  2
*Model_Space
340
1A
 70
0
280
1
281
0
  0
BLOCK_RECORD
  5
1B
330
9
100
AcDbSymbolTableRecord
100
AcDbBlockTableRecord
  2
*Paper_Space
340
1E
 70
0
280
1
281
0
  0
ENDTAB
  0
ENDSEC
  0
SECTION
  2
BLOCKS
  0
BLOCK
  5
18
330
17
100
AcDbEntity
  8
0
100
AcDbBlockBegin
  2
*Model_Space
 70
0
 10
0.0
 20
0.0
 30
0.0
  3
*Model_Space
  1

  0
ENDBLK
  5
19
330
17
100
AcDbEntity
  8
0
100
AcDbBlockEnd
  0
BLOCK
  5
1C
330
1B
100
AcDbEntity
  8
0
100
AcDbBlockBegin
  2
*Paper_Space
 70
0
 10
0.0
 20
0.0
 30
0.0
  3
*Paper_Space
  1

  0
ENDBLK
  5
1D
330
1B
100
AcDbEntity
  8
0
100
AcDbBlockEnd
  0
ENDSEC
  0
SECTION
  2
ENTITIES
  0
LWPOLYLINE
  5
30
330
17
100
AcDbEntity
  8
0
 62
0
100
AcDbPolyline
 90
135
 70
0
 10
197.39962037736004
 20
29.160477546219838
 10
199.91885358279433
 20
22.119692406790023
 10
201.73583836672614
 20
14.86588253762897
 10
202.83307617242139
 20
7.468906093112525
 10
203.2
 20
0.0
 10
0.0
 20
0.0
 10
0.0
 20
203.2
 10
2.3329521523757076e-15
 20
203.2
 10
3.734453046556265
 20
203.0165380862107
 10
7.4329412688144885
 20
202.46791918336305
 10
11.059846203395013
 20
201.55942679139716
 10
14.58023877310992
 20
200.29981018868
 10
17.960215673070515
 20
198.70120017167233
 10
21.167225878046835
 20
196.77899222872696
 10
24.17038412663489
 20
194.55169827312028
 10
26.940768363207457
 20
192.04076836320746
 10
29.451698273120275
 20
189.2703841266349
 10
31.678992228726973
 20
186.26722587804682
 10
33.60120017167232
 20
183.0602156730705
 10
35.19981018868002
 20
179.68023877310992
 10
36.459426791397156
 20
176.159846203395
 10
37.36791918336307
 20
172.53294126881448
 10
37.9165380862107
 20
168.83445304655626
 10
38.099999999999994
 20
165.1
 10
38.109070503009896
 20
163.31311090705032
 10
38.13628201203957
 20
161.5443628201204
 10
38.18163452708907
 20
159.7937557392103
 10
38.24512804815834
 20
158.06128966431996
 10
38.32676257524743
 20
156.34696459544944
 10
38.42653810835629
 20
154.6507805325987
 10
38.54445464748495
 20
152.9727374757678
 10
38.6805121926334
 20
151.31283542495663
 10
38.83471074380165
 20
149.6710743801653
 10
39.00705030098969
 20
148.04745434139375
 10
39.197530864197525
 20
146.44197530864196
 10
39.406152433425156
 20
144.85463728191002
 10
39.63291500867258
 20
143.28544026119783
 10
39.87781858993979
 20
141.73438424650544
 10
40.140863177226805
 20
140.2014692378329
 10
40.422048770533614
 20
138.68669523518005
 10
40.72137536986021
 20
137.19006223854709
 10
41.0388429752066
 20
135.71157024793385
 10
41.374451586572796
 20
134.25121926334046
 10
41.728201203958776
 20
132.8090092847669
 10
42.100091827364544
 20
131.38494031221302
 10
42.49012345679012
 20
129.97901234567902
 10
42.898296092235476
 20
128.59122538516476
 10
43.32460973370063
 20
127.22157943067032
 10
43.769064381185586
 20
125.87007448219569
 10
44.231660034690336
 20
124.53671053974084
 10
44.712396694214874
 20
123.22148760330579
 10
45.21127435975921
 20
121.9244056728905
 10
45.72829303132333
 20
120.64546474849503
 10
46.26345270890725
 20
119.38466483011938
 10
46.81675339251097
 20
118.1420059177635
 10
47.38819508213447
 20
116.91748801142738
 10
47.977777777777774
 20
115.71111111111111
 10
48.58550147944087
 20
114.52287521681461
 10
49.211366187123765
 20
113.35278032853789
 10
49.85537190082644
 20
112.20082644628097
 10
50.51751862054893
 20
111.06701357004387
 10
51.19780634629119
 20
109.95134169982653
 10
51.89623507805325
 20
108.85381083562898
 10
52.61280481583512
 20
107.77442097745127
 10
53.347515559636776
 20
106.71317212529334
 10
54.10036730945821
 20
105.67006427915517
 10
54.871360065299456
 20
104.64509743903683
 10
55.660493827160494
 20
103.63827160493828
 10
56.46776859504132
 20
102.64958677685948
 10
57.293184368941944
 20
101.67904295480051
 10
58.136741148862356
 20
100.72664013876133
 10
58.998438934802564
 20
99.79237832874196
 10
59.87827772676257
 20
98.87625752474234
 10
60.77625752474238
 20
97.97827772676257
 10
61.69237832874197
 20
97.09843893480256
 10
62.62664013876135
 20
96.23674114886234
 10
63.57904295480053
 20
95.39318436894193
 10
64.54958677685951
 20
94.56776859504131
 10
65.53827160493827
 20
93.76049382716049
 10
66.54509743903684
 20
92.97136006529945
 10
67.57006427915519
 20
92.20036730945819
 10
68.61317212529333
 20
91.44751555963677
 10
69.67442097745128
 20
90.7128048158351
 10
70.75381083562901
 20
89.99623507805325
 10
71.85134169982655
 20
89.29780634629118
 10
72.96701357004387
 20
88.6175186205489
 10
74.100826446281
 20
87.95537190082644
 10
75.25278032853791
 20
87.31136618712375
 10
76.42287521681462
 20
86.68550147944086
 10
77.61111111111111
 20
86.07777777777775
 10
78.81748801142741
 20
85.48819508213447
 10
80.0420059177635
 20
84.91675339251096
 10
81.28466483011938
 20
84.36345270890723
 10
82.54546474849506
 20
83.82829303132333
 10
83.82440567289053
 20
83.3112743597592
 10
85.12148760330578
 20
82.81239669421487
 10
86.43671053974086
 20
82.33166003469032
 10
87.7700744821957
 20
81.86906438118558
 10
89.12157943067035
 20
81.42460973370063
 10
90.4912253851648
 20
80.99829609223548
 10
91.87901234567902
 20
80.59012345679011
 10
93.28494031221305
 20
80.20009182736453
 10
94.70900928476685
 20
79.82820120395877
 10
96.15121926334048
 20
79.47445158657278
 10
97.6115702479339
 20
79.1388429752066
 10
99.0900622385471
 20
78.82137536986019
 10
100.58669523518009
 20
78.5220487705336
 10
102.10146923783289
 20
78.2408631772268
 10
103.63438424650548
 20
77.97781858993979
 10
105.18544026119784
 20
77.73291500867258
 10
106.75463728191002
 20
77.50615243342516
 10
108.34197530864198
 20
77.29753086419751
 10
109.94745434139377
 20
77.10705030098968
 10
111.5710743801653
 20
76.93471074380165
 10
113.21283542495665
 20
76.7805121926334
 10
114.8727374757678
 20
76.64445464748495
 10
116.55078053259872
 20
76.52653810835628
 10
118.24696459544946
 20
76.42676257524741
 10
119.96128966431999
 20
76.34512804815834
 10
121.69375573921029
 20
76.28163452708907
 10
123.44436282012042
 20
76.23628201203958
 10
125.21311090705032
 20
76.20907050300988
 10
127.0
 20
76.19999999999999
 10
134.46890609311254
 20
75.83307617242139
 10
141.86588253762898
 20
74.73583836672614
 10
149.11969240679002
 20
72.91885358279431
 10
156.16047754621985
 20
70.39962037736004
 10
162.92043134614102
 20
67.20240034334464
 10
169.3344517560937
 20
63.35798445745394
 10
175.34076825326977
 20
58.90339654624054
 10
180.8815367264149
 20
53.881536726414915
 10
185.90339654624054
 20
48.34076825326978
 10
190.35798445745394
 20
42.33445175609368
 10
194.20240034334464
 20
35.92043134614102
 10
197.39962037736004
 20
29.160477546219838
  0
LWPOLYLINE
  5
31
330
17
100
AcDbEntity
  8
0
 62
0
100
AcDbPolyline
 90
65
 70
0
 10
20.057099338609785
 20
56.26048742804667
 10
19.931967744918616
 20
56.35329134286362
 10
19.798342319711267
 20
56.433383340486344
 10
19.65750994887958
 20
56.499992091195
 10
19.510826925141455
 20
56.55247611630821
 10
19.3597058862006
 20
56.59032996597346
 10
19.205602210273174
 20
56.613189086925445
 10
19.049999999999997
 20
56.62083333333333
 10
18.89439778972682
 20
56.613189086925445
 10
18.740294113799393
 20
56.59032996597346
 10
18.58917307485854
 20
56.55247611630821
 10
18.442490051120416
 20
56.499992091195
 10
18.301657680288727
 20
56.433383340486344
 10
18.16803225508138
 20
56.35329134286362
 10
18.04290066139021
 20
56.26048742804667
 10
17.927467984866354
 20
56.155865348466975
 10
17.822845905286652
 20
56.040432671943115
 10
17.730041990469708
 20
55.91530107825195
 10
17.649949992846985
 20
55.7816756530446
 10
17.583341242138328
 20
55.64084328221291
 10
17.530857217025115
 20
55.49416025847479
 10
17.49300336735987
 20
55.343039219533935
 10
17.470144246407884
 20
55.18893554360651
 10
17.4625
 20
55.03333333333333
 10
17.470144246407884
 20
54.87773112306015
 10
17.49300336735987
 20
54.72362744713273
 10
17.530857217025115
 20
54.57250640819187
 10
17.583341242138328
 20
54.42582338445375
 10
17.649949992846985
 20
54.28499101362206
 10
17.730041990469708
 20
54.15136558841471
 10
17.822845905286652
 20
54.02623399472355
 10
17.927467984866354
 20
53.91080131819969
 10
18.04290066139021
 20
53.80617923861999
 10
18.16803225508138
 20
53.71337532380304
 10
18.301657680288727
 20
53.63328332618032
 10
18.442490051120416
 20
53.566674575471666
 10
18.58917307485854
 20
53.51419055035845
 10
18.740294113799393
 20
53.4763367006932
 10
18.89439778972682
 20
53.45347757974122
 10
19.049999999999997
 20
53.44583333333333
 10
19.205602210273174
 20
53.45347757974122
 10
19.3597058862006
 20
53.4763367006932
 10
19.510826925141455
 20
53.51419055035845
 10
19.65750994887958
 20
53.566674575471666
 10
19.798342319711267
 20
53.63328332618032
 10
19.931967744918616
 20
53.71337532380304
 10
20.057099338609785
 20
53.80617923861999
 10
20.17253201513364
 20
53.91080131819969
 10
20.277154094713342
 20
54.02623399472355
 10
20.369958009530286
 20
54.15136558841471
 10
20.45005000715301
 20
54.28499101362206
 10
20.516658757861666
 20
54.42582338445375
 10
20.56914278297488
 20
54.57250640819187
 10
20.606996632640126
 20
54.72362744713273
 10
20.62985575359211
 20
54.87773112306015
 10
20.637499999999996
 20
55.03333333333333
 10
20.62985575359211
 20
55.18893554360651
 10
20.606996632640126
 20
55.343039219533935
 10
20.56914278297488
 20
55.49416025847479
 10
20.516658757861663
 20
55.64084328221291
 10
20.45005000715301
 20
55.7816756530446
 10
20.369958009530286
 20
55.91530107825195
 10
20.277154094713342
 20
56.04043267194312
 10
20.17253201513364
 20
56.155865348466975
 10
20.057099338609785
 20
56.26048742804667
  0
LWPOLYLINE
  5
32
330
17
100
AcDbEntity
  8
0
 62
0
100
AcDbPolyline
 90
65
 70
0
 10
56.155865348466975
 20
39.22253201513364
 10
56.040432671943115
 20
39.327154094713336
 10
55.91530107825195
 20
39.41995800953028
 10
55.7816756530446
 20
39.50005000715301
 10
55.64084328221291
 20
39.56665875786166
 10
55.49416025847479
 20
39.619142782974876
 10
55.343039219533935
 20
39.65699663264012
 10
55.188935543606505
 20
39.67985575359211
 10
55.03333333333333
 20
39.68749999999999
 10
54.87773112306015
 20
39.67985575359211
 10
54.72362744713273
 20
39.65699663264012
 10
54.57250640819187
 20
39.619142782974876
 10
54.42582338445375
 20
39.56665875786166
 10
54.28499101362206
 20
39.50005000715301
 10
54.15136558841471
 20
39.41995800953028
 10
54.02623399472354
 20
39.327154094713336
 10
53.91080131819969
 20
39.22253201513364
 10
53.80617923861999
 20
39.10709933860978
 10
53.71337532380304
 20
38.98196774491861
 10
53.63328332618032
 20
38.848342319711264
 10
53.566674575471666
 20
38.707509948879576
 10
53.51419055035845
 20
38.560826925141455
 10
53.4763367006932
 20
38.4097058862006
 10
53.45347757974122
 20
38.255602210273175
 10
53.44583333333333
 20
38.099999999999994
 10
53.45347757974122
 20
37.944397789726814
 10
53.4763367006932
 20
37.79029411379939
 10
53.51419055035845
 20
37.63917307485853
 10
53.566674575471666
 20
37.49249005112041
 10
53.63328332618032
 20
37.351657680288724
 10
53.71337532380304
 20
37.218032255081376
 10
53.80617923861999
 20
37.09290066139021
 10
53.91080131819969
 20
36.97746798486635
 10
54.02623399472355
 20
36.87284590528665
 10
54.15136558841471
 20
36.780041990469705
 10
54.28499101362206
 20
36.69994999284698
 10
54.42582338445375
 20
36.63334124213833
 10
54.57250640819187
 20
36.58085721702511
 10
54.72362744713273
 20
36.543003367359866
 10
54.87773112306015
 20
36.52014424640788
 10
55.03333333333333
 20
36.512499999999996
 10
55.18893554360651
 20
36.52014424640788
 10
55.343039219533935
 20
36.543003367359866
 10
55.49416025847479
 20
36.58085721702511
 10
55.64084328221291
 20
36.63334124213833
 10
55.7816756530446
 20
36.69994999284698
 10
55.91530107825195
 20
36.780041990469705
 10
56.040432671943115
 20
36.87284590528665
 10
56.155865348466975
 20
36.97746798486635
 10
56.26048742804667
 20
37.09290066139021
 10
56.35329134286362
 20
37.218032255081376
 10
56.433383340486344
 20
37.351657680288724
 10
56.499992091195
 20
37.49249005112041
 10
56.55247611630821
 20
37.63917307485853
 10
56.59032996597346
 20
37.79029411379939
 10
56.613189086925445
 20
37.944397789726814
 10
56.62083333333333
 20
38.099999999999994
 10
56.613189086925445
 20
38.255602210273175
 10
56.59032996597346
 20
38.4097058862006
 10
56.55247611630821
 20
38.560826925141455
 10
56.499992091195
 20
38.707509948879576
 10
56.433383340486344
 20
38.848342319711264
 10
56.35329134286362
 20
38.98196774491861
 10
56.26048742804667
 20
39.107099338609785
 10
56.155865348466975
 20
39.22253201513364
  0
LWPOLYLINE
  5
33
330
17
100
AcDbEntity
  8
0
 62
0
100
AcDbPolyline
 90
65
 70
0
 10
56.26048742804667
 20
20.057099338609785
 10
56.155865348466975
 20
20.17253201513364
 10
56.040432671943115
 20
20.277154094713342
 10
55.91530107825195
 20
20.369958009530286
 10
55.7816756530446
 20
20.45005000715301
 10
55.64084328221291
 20
20.516658757861663
 10
55.49416025847479
 20
20.56914278297488
 10
55.343039219533935
 20
20.606996632640126
 10
55.188935543606505
 20
20.62985575359211
 10
55.03333333333333
 20
20.637499999999996
 10
54.87773112306015
 20
20.62985575359211
 10
54.72362744713273
 20
20.606996632640126
 10
54.57250640819187
 20
20.56914278297488
 10
54.42582338445375
 20
20.516658757861663
 10
54.28499101362206
 20
20.45005000715301
 10
54.15136558841471
 20
20.369958009530286
 10
54.02623399472354
 20
20.277154094713342
 10
53.91080131819969
 20
20.17253201513364
 10
53.80617923861999
 20
20.057099338609785
 10
53.71337532380304
 20
19.931967744918616
 10
53.63328332618032
 20
19.798342319711267
 10
53.566674575471666
 20
19.65750994887958
 10
53.51419055035845
 20
19.510826925141455
 10
53.4763367006932
 20
19.3597058862006
 10
53.45347757974122
 20
19.205602210273174
 10
53.44583333333333
 20
19.049999999999997
 10
53.45347757974122
 20
18.89439778972682
 10
53.4763367006932
 20
18.740294113799393
 10
53.51419055035845
 20
18.58917307485854
 10
53.566674575471666
 20
18.442490051120416
 10
53.63328332618032
 20
18.301657680288727
 10
53.71337532380304
 20
18.16803225508138
 10
53.80617923861999
 20
18.04290066139021
 10
53.91080131819969
 20
17.927467984866354
 10
54.02623399472355
 20
17.822845905286652
 10
54.15136558841471
 20
17.730041990469708
 10
54.28499101362206
 20
17.649949992846985
 10
54.42582338445375
 20
17.583341242138328
 10
54.57250640819187
 20
17.530857217025115
 10
54.72362744713273
 20
17.49300336735987
 10
54.87773112306015
 20
17.470144246407884
 10
55.03333333333333
 20
17.4625
 10
55.18893554360651
 20
17.470144246407884
 10
55.343039219533935
 20
17.49300336735987
 10
55.49416025847479
 20
17.530857217025115
 10
55.64084328221291
 20
17.583341242138328
 10
55.7816756530446
 20
17.649949992846985
 10
55.91530107825195
 20
17.730041990469708
 10
56.040432671943115
 20
17.822845905286652
 10
56.155865348466975
 20
17.927467984866354
 10
56.26048742804667
 20
18.04290066139021
 10
56.35329134286362
 20
18.16803225508138
 10
56.433383340486344
 20
18.301657680288727
 10
56.499992091195
 20
18.442490051120416
 10
56.55247611630821
 20
18.58917307485854
 10
56.59032996597346
 20
18.740294113799393
 10
56.613189086925445
 20
18.89439778972682
 10
56.62083333333333
 20
19.049999999999997
 10
56.613189086925445
 20
19.205602210273174
 10
56.59032996597346
 20
19.3597058862006
 10
56.55247611630821
 20
19.510826925141455
 10
56.499992091195
 20
19.65750994887958
 10
56.433383340486344
 20
19.798342319711267
 10
56.35329134286362
 20
19.931967744918616
 10
56.26048742804667
 20
20.057099338609785
  0
LWPOLYLINE
  5
34
330
17
100
AcDbEntity
  8
0
 62
0
100
AcDbPolyline
 90
65
 70
0
 10
20.369958009530286
 20
110.94863441158527
 10
20.277154094713342
 20
111.07376600527645
 10
20.17253201513364
 20
111.1891986818003
 10
20.057099338609785
 20
111.29382076138
 10
19.931967744918616
 20
111.38662467619696
 10
19.798342319711267
 20
111.46671667381968
 10
19.65750994887958
 20
111.53332542452833
 10
19.510826925141455
 20
111.58580944964154
 10
19.3597058862006
 20
111.62366329930678
 10
19.205602210273174
 20
111.64652242025878
 10
19.049999999999997
 20
111.65416666666667
 10
18.89439778972682
 20
111.64652242025878
 10
18.740294113799393
 20
111.62366329930678
 10
18.58917307485854
 20
111.58580944964154
 10
18.442490051120416
 20
111.53332542452833
 10
18.301657680288727
 20
111.46671667381968
 10
18.16803225508138
 20
111.38662467619696
 10
18.04290066139021
 20
111.29382076138
 10
17.927467984866354
 20
111.1891986818003
 10
17.822845905286652
 20
111.07376600527645
 10
17.730041990469708
 20
110.94863441158527
 10
17.649949992846985
 20
110.81500898637793
 10
17.583341242138328
 20
110.67417661554624
 10
17.530857217025115
 20
110.52749359180812
 10
17.49300336735987
 20
110.37637255286727
 10
17.470144246407884
 20
110.22226887693984
 10
17.4625
 20
110.06666666666666
 10
17.470144246407884
 20
109.91106445639349
 10
17.49300336735987
 20
109.75696078046606
 10
17.530857217025115
 20
109.6058397415252
 10
17.583341242138328
 20
109.45915671778708
 10
17.649949992846985
 20
109.3183243469554
 10
17.730041990469708
 20
109.18469892174805
 10
17.822845905286652
 20
109.05956732805687
 10
17.927467984866354
 20
108.94413465153302
 10
18.04290066139021
 20
108.83951257195332
 10
18.16803225508138
 20
108.74670865713637
 10
18.301657680288727
 20
108.66661665951365
 10
18.442490051120416
 20
108.600007908805
 10
18.58917307485854
 20
108.54752388369178
 10
18.740294113799393
 20
108.50967003402654
 10
18.89439778972682
 20
108.48681091307455
 10
19.049999999999997
 20
108.47916666666666
 10
19.205602210273174
 20
108.48681091307455
 10
19.3597058862006
 20
108.50967003402654
 10
19.510826925141455
 20
108.54752388369178
 10
19.65750994887958
 20
108.600007908805
 10
19.798342319711267
 20
108.66661665951365
 10
19.931967744918616
 20
108.74670865713637
 10
20.057099338609785
 20
108.83951257195332
 10
20.17253201513364
 20
108.94413465153302
 10
20.277154094713342
 20
109.05956732805687
 10
20.369958009530286
 20
109.18469892174805
 10
20.45005000715301
 20
109.3183243469554
 10
20.516658757861666
 20
109.45915671778708
 10
20.56914278297488
 20
109.6058397415252
 10
20.606996632640126
 20
109.75696078046606
 10
20.62985575359211
 20
109.91106445639349
 10
20.637499999999996
 20
110.06666666666666
 10
20.62985575359211
 20
110.22226887693984
 10
20.606996632640126
 20
110.37637255286727
 10
20.56914278297488
 20
110.52749359180812
 10
20.516658757861663
 20
110.67417661554624
 10
20.45005000715301
 20
110.81500898637793
 10
20.369958009530286
 20
110.94863441158527
  0
LWPOLYLINE
  5
35
330
17
100
AcDbEntity
  8
0
 62
0
100
AcDbPolyline
 90
65
 70
0
 10
111.46671667381968
 20
38.848342319711264
 10
111.38662467619696
 20
38.98196774491861
 10
111.29382076138
 20
39.107099338609785
 10
111.1891986818003
 20
39.22253201513364
 10
111.07376600527645
 20
39.327154094713336
 10
110.94863441158527
 20
39.41995800953028
 10
110.81500898637793
 20
39.50005000715301
 10
110.67417661554624
 20
39.56665875786166
 10
110.52749359180812
 20
39.619142782974876
 10
110.37637255286727
 20
39.65699663264012
 10
110.22226887693984
 20
39.67985575359211
 10
110.06666666666666
 20
39.68749999999999
 10
109.91106445639349
 20
39.67985575359211
 10
109.75696078046606
 20
39.65699663264012
 10
109.6058397415252
 20
39.619142782974876
 10
109.45915671778708
 20
39.56665875786166
 10
109.3183243469554
 20
39.50005000715301
 10
109.18469892174805
 20
39.41995800953028
 10
109.05956732805687
 20
39.327154094713336
 10
108.94413465153302
 20
39.22253201513364
 10
108.83951257195332
 20
39.10709933860978
 10
108.74670865713637
 20
38.98196774491861
 10
108.66661665951365
 20
38.848342319711264
 10
108.600007908805
 20
38.707509948879576
 10
108.54752388369178
 20
38.560826925141455
 10
108.50967003402654
 20
38.4097058862006
 10
108.48681091307455
 20
38.255602210273175
 10
108.47916666666666
 20
38.099999999999994
 10
108.48681091307455
 20
37.944397789726814
 10
108.50967003402654
 20
37.79029411379939
 10
108.54752388369178
 20
37.63917307485853
 10
108.600007908805
 20
37.49249005112041
 10
108.66661665951365
 20
37.351657680288724
 10
108.74670865713637
 20
37.218032255081376
 10
108.83951257195332
 20
37.09290066139021
 10
108.94413465153302
 20
36.97746798486635
 10
109.05956732805687
 20
36.87284590528665
 10
109.18469892174805
 20
36.780041990469705
 10
109.3183243469554
 20
36.69994999284698
 10
109.45915671778708
 20
36.63334124213833
 10
109.6058397415252
 20
36.58085721702511
 10
109.75696078046606
 20
36.543003367359866
 10
109.91106445639349
 20
36.52014424640788
 10
110.06666666666666
 20
36.512499999999996
 10
110.22226887693984
 20
36.52014424640788
 10
110.37637255286727
 20
36.543003367359866
 10
110.52749359180812
 20
36.58085721702511
 10
110.67417661554624
 20
36.63334124213833
 10
110.81500898637793
 20
36.69994999284698
 10
110.94863441158527
 20
36.780041990469705
 10
111.07376600527645
 20
36.87284590528665
 10
111.1891986818003
 20
36.97746798486635
 10
111.29382076138
 20
37.09290066139021
 10
111.38662467619696
 20
37.218032255081376
 10
111.46671667381968
 20
37.351657680288724
 10
111.53332542452833
 20
37.49249005112041
 10
111.58580944964154
 20
37.63917307485853
 10
111.62366329930678
 20
37.79029411379939
 10
111.64652242025878
 20
37.944397789726814
 10
111.65416666666667
 20
38.099999999999994
 10
111.64652242025878
 20
38.255602210273175
 10
111.62366329930678
 20
38.4097058862006
 10
111.58580944964154
 20
38.560826925141455
 10
111.53332542452833
 20
38.707509948879576
 10
111.46671667381968
 20
38.848342319711264
  0
LWPOLYLINE
  5
36
330
17
100
AcDbEntity
  8
0
 62
0
100
AcDbPolyline
 90
65
 70
0
 10
111.53332542452833
 20
19.65750994887958
 10
111.46671667381968
 20
19.798342319711267
 10
111.38662467619696
 20
19.931967744918616
 10
111.29382076138
 20
20.057099338609785
 10
111.1891986818003
 20
20.17253201513364
 10
111.07376600527645
 20
20.277154094713342
 10
110.94863441158527
 20
20.369958009530286
 10
110.81500898637793
 20
20.45005000715301
 10
110.67417661554624
 20
20.516658757861663
 10
110.52749359180812
 20
20.56914278297488
 10
110.37637255286727
 20
20.606996632640126
 10
110.22226887693984
 20
20.62985575359211
 10
110.06666666666666
 20
20.637499999999996
 10
109.91106445639349
 20
20.62985575359211
 10
109.75696078046606
 20
20.606996632640126
 10
109.6058397415252
 20
20.56914278297488
 10
109.45915671778708
 20
20.516658757861663
 10
109.3183243469554
 20
20.45005000715301
 10
109.18469892174805
 20
20.369958009530286
 10
109.05956732805687
 20
20.277154094713342
 10
108.94413465153302
 20
20.17253201513364
 10
108.83951257195332
 20
20.057099338609785
 10
108.74670865713637
 20
19.931967744918616
 10
108.66661665951365
 20
19.798342319711267
 10
108.600007908805
 20
19.65750994887958
 10
108.54752388369178
 20
19.510826925141455
 10
108.50967003402654
 20
19.3597058862006
 10
108.48681091307455
 20
19.205602210273174
 10
108.47916666666666
 20
19.049999999999997
 10
108.48681091307455
 20
18.89439778972682
 10
108.50967003402654
 20
18.740294113799393
 10
108.54752388369178
 20
18.58917307485854
 10
108.600007908805
 20
18.442490051120416
 10
108.66661665951365
 20
18.301657680288727
 10
108.74670865713637
 20
18.16803225508138
 10
108.83951257195332
 20
18.04290066139021
 10
108.94413465153302
 20
17.927467984866354
 10
109.05956732805687
 20
17.822845905286652
 10
109.18469892174805
 20
17.730041990469708
 10
109.3183243469554
 20
17.649949992846985
 10
109.45915671778708
 20
17.583341242138328
 10
109.6058397415252
 20
17.530857217025115
 10
109.75696078046606
 20
17.49300336735987
 10
109.91106445639349
 20
17.470144246407884
 10
110.06666666666666
 20
17.4625
 10
110.22226887693984
 20
17.470144246407884
 10
110.37637255286727
 20
17.49300336735987
 10
110.52749359180812
 20
17.530857217025115
 10
110.67417661554624
 20
17.583341242138328
 10
110.81500898637793
 20
17.649949992846985
 10
110.94863441158527
 20
17.730041990469708
 10
111.07376600527645
 20
17.822845905286652
 10
111.1891986818003
 20
17.927467984866354
 10
111.29382076138
 20
18.04290066139021
 10
111.38662467619696
 20
18.16803225508138
 10
111.46671667381968
 20
18.301657680288727
 10
111.53332542452833
 20
18.442490051120416
 10
111.58580944964154
 20
18.58917307485854
 10
111.62366329930678
 20
18.740294113799393
 10
111.64652242025878
 20
18.89439778972682
 10
111.65416666666667
 20
19.049999999999997
 10
111.64652242025878
 20
19.205602210273174
 10
111.62366329930678
 20
19.3597058862006
 10
111.58580944964154
 20
19.510826925141455
 10
111.53332542452833
 20
19.65750994887958
  0
LWPOLYLINE
  5
37
330
17
100
AcDbEntity
  8
0
 62
0
100
AcDbPolyline
 90
65
 70
0
 10
20.56914278297488
 20
165.56082692514144
 10
20.516658757861663
 20
165.70750994887956
 10
20.45005000715301
 20
165.84834231971126
 10
20.369958009530286
 20
165.98196774491862
 10
20.277154094713342
 20
166.10709933860977
 10
20.17253201513364
 20
166.22253201513365
 10
20.057099338609785
 20
166.32715409471334
 10
19.931967744918616
 20
166.4199580095303
 10
19.798342319711267
 20
166.50005000715302
 10
19.65750994887958
 20
166.56665875786166
 10
19.510826925141455
 20
166.61914278297488
 10
19.3597058862006
 20
166.65699663264013
 10
19.205602210273174
 20
166.6798557535921
 10
19.049999999999997
 20
166.6875
 10
18.89439778972682
 20
166.6798557535921
 10
18.740294113799393
 20
166.65699663264013
 10
18.58917307485854
 20
166.61914278297488
 10
18.442490051120416
 20
166.56665875786166
 10
18.301657680288727
 20
166.50005000715302
 10
18.16803225508138
 20
166.4199580095303
 10
18.04290066139021
 20
166.32715409471334
 10
17.927467984866354
 20
166.22253201513365
 10
17.822845905286652
 20
166.10709933860977
 10
17.730041990469708
 20
165.98196774491862
 10
17.649949992846985
 20
165.84834231971126
 10
17.583341242138328
 20
165.70750994887956
 10
17.530857217025115
 20
165.56082692514144
 10
17.49300336735987
 20
165.4097058862006
 10
17.470144246407884
 20
165.25560221027317
 10
17.4625
 20
165.1
 10
17.470144246407884
 20
164.94439778972682
 10
17.49300336735987
 20
164.79029411379938
 10
17.530857217025115
 20
164.63917307485855
 10
17.583341242138328
 20
164.49249005112043
 10
17.649949992846985
 20
164.35165768028872
 10
17.730041990469708
 20
164.21803225508137
 10
17.822845905286652
 20
164.09290066139022
 10
17.927467984866354
 20
163.97746798486634
 10
18.04290066139021
 20
163.87284590528665
 10
18.16803225508138
 20
163.7800419904697
 10
18.301657680288727
 20
163.69994999284697
 10
18.442490051120416
 20
163.63334124213833
 10
18.58917307485854
 20
163.5808572170251
 10
18.740294113799393
 20
163.54300336735986
 10
18.89439778972682
 20
163.52014424640788
 10
19.049999999999997
 20
163.5125
 10
19.205602210273174
 20
163.52014424640788
 10
19.3597058862006
 20
163.54300336735986
 10
19.510826925141455
 20
163.5808572170251
 10
19.65750994887958
 20
163.63334124213833
 10
19.798342319711267
 20
163.69994999284697
 10
19.931967744918616
 20
163.7800419904697
 10
20.057099338609785
 20
163.87284590528665
 10
20.17253201513364
 20
163.97746798486634
 10
20.277154094713342
 20
164.09290066139022
 10
20.369958009530286
 20
164.21803225508137
 10
20.45005000715301
 20
164.35165768028872
 10
20.516658757861666
 20
164.49249005112043
 10
20.56914278297488
 20
164.63917307485855
 10
20.606996632640126
 20
164.7902941137994
 10
20.62985575359211
 20
164.94439778972682
 10
20.637499999999996
 20
165.1
 10
20.62985575359211
 20
165.25560221027317
 10
20.606996632640126
 20
165.4097058862006
 10
20.56914278297488
 20
165.56082692514144
  0
LWPOLYLINE
  5
38
330
17
100
AcDbEntity
  8
0
 62
0
100
AcDbPolyline
 90
65
 70
0
 10
166.65699663264013
 20
38.4097058862006
 10
166.61914278297488
 20
38.560826925141455
 10
166.56665875786166
 20
38.707509948879576
 10
166.50005000715302
 20
38.848342319711264
 10
166.4199580095303
 20
38.98196774491861
 10
166.32715409471334
 20
39.107099338609785
 10
166.22253201513365
 20
39.22253201513364
 10
166.10709933860977
 20
39.327154094713336
 10
165.98196774491862
 20
39.41995800953028
 10
165.84834231971126
 20
39.50005000715301
 10
165.70750994887956
 20
39.56665875786166
 10
165.56082692514144
 20
39.619142782974876
 10
165.40970588620058
 20
39.65699663264012
 10
165.25560221027317
 20
39.67985575359211
 10
165.1
 20
39.68749999999999
 10
164.94439778972682
 20
39.67985575359211
 10
164.79029411379938
 20
39.65699663264012
 10
164.63917307485855
 20
39.619142782974876
 10
164.49249005112043
 20
39.56665875786166
 10
164.35165768028872
 20
39.50005000715301
 10
164.21803225508137
 20
39.41995800953028
 10
164.09290066139022
 20
39.327154094713336
 10
163.97746798486634
 20
39.22253201513364
 10
163.87284590528665
 20
39.10709933860978
 10
163.7800419904697
 20
38.98196774491861
 10
163.69994999284697
 20
38.848342319711264
 10
163.63334124213833
 20
38.707509948879576
 10
163.5808572170251
 20
38.560826925141455
 10
163.54300336735986
 20
38.4097058862006
 10
163.52014424640788
 20
38.255602210273175
 10
163.5125
 20
38.099999999999994
 10
163.52014424640788
 20
37.944397789726814
 10
163.54300336735986
 20
37.79029411379939
 10
163.5808572170251
 20
37.63917307485853
 10
163.63334124213833
 20
37.49249005112041
 10
163.69994999284697
 20
37.351657680288724
 10
163.7800419904697
 20
37.218032255081376
 10
163.87284590528665
 20
37.09290066139021
 10
163.97746798486634
 20
36.97746798486635
 10
164.09290066139022
 20
36.87284590528665
 10
164.21803225508137
 20
36.780041990469705
 10
164.35165768028872
 20
36.69994999284698
 10
164.49249005112043
 20
36.63334124213833
 10
164.63917307485855
 20
36.58085721702511
 10
164.7902941137994
 20
36.543003367359866
 10
164.94439778972682
 20
36.52014424640788
 10
165.1
 20
36.512499999999996
 10
165.25560221027317
 20
36.52014424640788
 10
165.40970588620058
 20
36.543003367359866
 10
165.56082692514144
 20
36.58085721702511
 10
165.70750994887956
 20
36.63334124213833
 10
165.84834231971126
 20
36.69994999284698
 10
165.98196774491862
 20
36.780041990469705
 10
166.10709933860977
 20
36.87284590528665
 10
166.22253201513365
 20
36.97746798486635
 10
166.32715409471334
 20
37.09290066139021
 10
166.4199580095303
 20
37.218032255081376
 10
166.50005000715302
 20
37.351657680288724
 10
166.56665875786166
 20
37.49249005112041
 10
166.61914278297488
 20
37.63917307485853
 10
166.65699663264013
 20
37.79029411379939
 10
166.6798557535921
 20
37.944397789726814
 10
166.6875
 20
38.099999999999994
 10
166.6798557535921
 20
38.255602210273175
 10
166.65699663264013
 20
38.4097058862006
  0
LWPOLYLINE
  5
39
330
17
100
AcDbEntity
  8
0
 62
0
100
AcDbPolyline
 90
65
 70
0
 10
166.6798557535921
 20
19.205602210273174
 10
166.65699663264013
 20
19.3597058862006
 10
166.61914278297488
 20
19.510826925141455
 10
166.56665875786166
 20
19.65750994887958
 10
166.50005000715302
 20
19.798342319711267
 10
166.4199580095303
 20
19.931967744918616
 10
166.32715409471334
 20
20.057099338609785
 10
166.22253201513365
 20
20.17253201513364
 10
166.10709933860977
 20
20.277154094713342
 10
165.98196774491862
 20
20.369958009530286
 10
165.84834231971126
 20
20.45005000715301
 10
165.70750994887956
 20
20.516658757861663
 10
165.56082692514144
 20
20.56914278297488
 10
165.40970588620058
 20
20.606996632640126
 10
165.25560221027317
 20
20.62985575359211
 10
165.1
 20
20.637499999999996
 10
164.94439778972682
 20
20.62985575359211
 10
164.79029411379938
 20
20.606996632640126
 10
164.63917307485855
 20
20.56914278297488
 10
164.49249005112043
 20
20.516658757861663
 10
164.35165768028872
 20
20.45005000715301
 10
164.21803225508137
 20
20.369958009530286
 10
164.09290066139022
 20
20.277154094713342
 10
163.97746798486634
 20
20.17253201513364
 10
163.87284590528665
 20
20.057099338609785
 10
163.7800419904697
 20
19.931967744918616
 10
163.69994999284697
 20
19.798342319711267
 10
163.63334124213833
 20
19.65750994887958
 10
163.5808572170251
 20
19.510826925141455
 10
163.54300336735986
 20
19.3597058862006
 10
163.52014424640788
 20
19.205602210273174
 10
163.5125
 20
19.049999999999997
 10
163.52014424640788
 20
18.89439778972682
 10
163.54300336735986
 20
18.740294113799393
 10
163.5808572170251
 20
18.58917307485854
 10
163.63334124213833
 20
18.442490051120416
 10
163.69994999284697
 20
18.301657680288727
 10
163.7800419904697
 20
18.16803225508138
 10
163.87284590528665
 20
18.04290066139021
 10
163.97746798486634
 20
17.927467984866354
 10
164.09290066139022
 20
17.822845905286652
 10
164.21803225508137
 20
17.730041990469708
 10
164.35165768028872
 20
17.649949992846985
 10
164.49249005112043
 20
17.583341242138328
 10
164.63917307485855
 20
17.530857217025115
 10
164.7902941137994
 20
17.49300336735987
 10
164.94439778972682
 20
17.470144246407884
 10
165.1
 20
17.4625
 10
165.25560221027317
 20
17.470144246407884
 10
165.40970588620058
 20
17.49300336735987
 10
165.56082692514144
 20
17.530857217025115
 10
165.70750994887956
 20
17.583341242138328
 10
165.84834231971126
 20
17.649949992846985
 10
165.98196774491862
 20
17.730041990469708
 10
166.10709933860977
 20
17.822845905286652
 10
166.22253201513365
 20
17.927467984866354
 10
166.32715409471334
 20
18.04290066139021
 10
166.4199580095303
 20
18.16803225508138
 10
166.50005000715302
 20
18.301657680288727
 10
166.56665875786166
 20
18.442490051120416
 10
166.61914278297488
 20
18.58917307485854
 10
166.65699663264013
 20
18.740294113799393
 10
166.6798557535921
 20
18.89439778972682
 10
166.6875
 20
19.049999999999997
 10
166.6798557535921
 20
19.205602210273174
  0
ENDSEC
  0
SECTION
  2
OBJECTS
  0
DICTIONARY
  5
A
330
0
100
AcDbDictionary
280
0
281
1
  3
ACAD_COLOR
350
B
  3
ACAD_GROUP
350
C
  3
ACAD_LAYOUT
350
D
  3
ACAD_MATERIAL
350
E
  3
ACAD_MLEADERSTYLE
350
F
  3
ACAD_MLINESTYLE
350
10
  3
ACAD_PLOTSETTINGS
350
11
  3
ACAD_PLOTSTYLENAME
350
12
  3
ACAD_SCALELIST
350
14
  3
ACAD_TABLESTYLE
350
15
  3
ACAD_VISUALSTYLE
350
16
  3
EZDXF_META
350
2D
  0
DICTIONARY
  5
B
330
A
100
AcDbDictionary
280
0
281
1
  0
DICTIONARY
  5
C
330
A
100
AcDbDictionary
280
0
281
1
  0
DICTIONARY
  5
D
330
A
100
AcDbDictionary
280
0
281
1
  3
Model
350
1A
  3
Layout1
350
1E
  0
DICTIONARY
  5
E
330
A
100
AcDbDictionary
280
0
281
1
  3
ByBlock
350
1F
  3
ByLayer
350
20
  3
Global
350
21
  0
DICTIONARY
  5
F
330
A
100
AcDbDictionary
280
0
281
1
  3
Standard
350
2C
  0
DICTIONARY
  5
10
330
A
100
AcDbDictionary
280
0
281
1
  3
Standard
350
22
  0
DICTIONARY
  5
11
330
A
100
AcDbDictionary
280
0
281
1
  0
ACDBDICTIONARYWDFLT
  5
12
330
A
100
AcDbDictionary
280
0
281
1
  3
Normal
350
13
100
AcDbDictionaryWithDefault
340
13
  0
ACDBPLACEHOLDER
  5
13
330
12
  0
DICTIONARY
  5
14
330
A
100
AcDbDictionary
280
0
281
1
  0
DICTIONARY
  5
15
330
A
100
AcDbDictionary
280
0
281
1
  0
DICTIONARY
  5
16
330
A
100
AcDbDictionary
280
0
281
1
  0
LAYOUT
  5
1A
330
D
100
AcDbPlotSettings
  1

  2
Adobe PDF
  4
A3
  6

 40
7.5
 41
20.0
 42
7.5
 43
20.0
 44
420.0
 45
297.0
 46
0.0
 47
0.0
 48
0.0
 49
0.0
140
0.0
141
0.0
142
1.0
143
1.0
 70
1024
 72
1
 73
0
 74
5
  7

 75
16
 76
0
 77
2
 78
300
147
1.0
148
0.0
149
0.0
100
AcDbLayout
  1
Model
 70
1
 71
0
 10
0.0
 20
0.0
 11
420.0
 21
297.0
 12
0.0
 22
0.0
 32
0.0
 14
1e+20
 24
1e+20
 34
1e+20
 15
-1e+20
 25
-1e+20
 35
-1e+20
146
0.0
 13
0.0
 23
0.0
 33
0.0
 16
1.0
 26
0.0
 36
0.0
 17
0.0
 27
1.0
 37
0.0
 76
1
330
17
  0
LAYOUT
  5
1E
330
D
100
AcDbPlotSettings
  1

  2
Adobe PDF
  4
A3
  6

 40
7.5
 41
20.0
 42
7.5
 43
20.0
 44
420.0
 45
297.0
 46
0.0
 47
0.0
 48
0.0
 49
0.0
140
0.0
141
0.0
142
1.0
143
1.0
 70
0
 72
1
 73
0
 74
5
  7

 75
16
 76
0
 77
2
 78
300
147
1.0
148
0.0
149
0.0
100
AcDbLayout
  1
Layout1
 70
1
 71
1
 10
0.0
 20
0.0
 11
420.0
 21
297.0
 12
0.0
 22
0.0
 32
0.0
 14
1e+20
 24
1e+20
 34
1e+20
 15
-1e+20
 25
-1e+20
 35
-1e+20
146
0.0
 13
0.0
 23
0.0
 33
0.0
 16
1.0
 26
0.0
 36
0.0
 17
0.0
 27
1.0
 37
0.0
 76
1
330
1B
  0
MATERIAL
  5
1F
102
{ACAD_REACTORS
330
E
102
}
330
E
100
AcDbMaterial
  1
ByBlock
  2

 70
0
 40
1.0
 71
1
 41
1.0
 91
-1023410177
 42
1.0
 72
1
  3

 73
1
 74
1
 75
1
 44
0.5
 73
0
 45
1.0
 46
1.0
 77
1
  4

 78
1
 79
1
170
1
 48
1.0
171
1
  6

172
1
173
1
174
1
140
1.0
141
1.0
175
1
  7

176
1
177
1
178
1
143
1.0
179
1
  8

270
1
271
1
272
1
145
1.0
146
1.0
273
1
  9

274
1
275
1
276
1
 42
1.0
 72
1
  3

 73
1
 74
1
 75
1
 94
63
  0
MATERIAL
  5
20
102
{ACAD_REACTORS
330
E
102
}
330
E
100
AcDbMaterial
  1
ByLayer
  2

 70
0
 40
1.0
 71
1
 41
1.0
 91
-1023410177
 42
1.0
 72
1
  3

 73
1
 74
1
 75
1
 44
0.5
 73
0
 45
1.0
 46
1.0
 77
1
  4

 78
1
 79
1
170
1
 48
1.0
171
1
  6

172
1
173
1
174
1
140
1.0
141
1.0
175
1
  7

176
1
177
1
178
1
143
1.0
179
1
  8

270
1
271
1
272
1
145
1.0
146
1.0
273
1
  9

274
1
275
1
276
1
 42
1.0
 72
1
  3

 73
1
 74
1
 75
1
 94
63
  0
MATERIAL
  5
21
102
{ACAD_REACTORS
330
E
102
}
330
E
100
AcDbMaterial
  1
Global
  2

 70
0
 40
1.0
 71
1
 41
1.0
 91
-1023410177
 42
1.0
 72
1
  3

 73
1
 74
1
 75
1
 44
0.5
 73
0
 45
1.0
 46
1.0
 77
1
  4

 78
1
 79
1
170
1
 48
1.0
171
1
  6

172
1
173
1
174
1
140
1.0
141
1.0
175
1
  7

176
1
177
1
178
1
143
1.0
179
1
  8

270
1
271
1
272
1
145
1.0
146
1.0
273
1
  9

274
1
275
1
276
1
 42
1.0
 72
1
  3

 73
1
 74
1
 75
1
 94
63
  0
MLINESTYLE
  5
22
102
{ACAD_REACTORS
330
10
102
}
330
10
100
AcDbMlineStyle
  2
Standard
 70
0
  3

 62
256
 51
90.0
 52
90.0
 71
2
 49
0.5
 62
256
  6
BYLAYER
 49
-0.5
 62
256
  6
BYLAYER
  0
MLEADERSTYLE
  5
2C
102
{ACAD_REACTORS
330
F
102
}
330
F
100
AcDbMLeaderStyle
179
2
170
2
171
1
172
0
 90
2
 40
0.0
 41
0.0
173
1
 91
-1056964608
 92
-2
290
1
 42
2.0
291
1
 43
8.0
  3
Standard
 44
4.0
300

342
29
174
1
175
1
176
0
178
1
 93
-1056964608
 45
4.0
292
0
297
0
 46
4.0
 94
-1056964608
 47
1.0
 49
1.0
140
1.0
294
1
141
0.0
177
0
142
1.0
295
0
296
0
143
3.75
271
0
272
9
273
9
  0
DICTIONARY
  5
2D
330
A
100
AcDbDictionary
281
1
  3
CREATED_BY_EZDXF
350
2E
  3
WRITTEN_BY_EZDXF
350
3C
  0
DICTIONARYVAR
  5
2E
330
2D
100
DictionaryVariables
280
0
  1
1.1.1 @ 2024-06-03T22:21:27.687462+00:00
  0
DICTIONARYVAR
  5
3C
330
2D
100
DictionaryVariables
280
0
  1
1.1.1 @ 2024-06-03T22:21:27.700962+00:00
  0
ENDSEC
  0
EOF
