  0
SECTION
  2
BLOCKS
  0
ENDSEC
  0
SECTION
  2
ENTITIES
  0
LINE
  8
0
 10
8.25
 20
241.188
 11
14.75
 21
241.188
  0
LINE
  8
0
 10
14.75
 20
241.188
 11
14.75
 21
229.938
  0
LINE
  8
0
 10
14.75
 20
229.938
 11
27.5
 21
229.938
  0
LINE
  8
0
 10
27.5
 20
229.938
 11
27.5
 21
241.188
  0
LINE
  8
0
 10
27.5
 20
241.188
 11
34
 21
241.188
  0
LINE
  8
0
 10
34
 20
241.188
 11
34
 21
229.938
  0
LINE
  8
0
 10
34
 20
229.938
 11
46.75
 21
229.938
  0
LINE
  8
0
 10
46.75
 20
229.938
 11
46.75
 21
241.188
  0
LINE
  8
0
 10
46.75
 20
241.188
 11
53.25
 21
241.188
  0
LINE
  8
0
 10
53.25
 20
241.188
 11
53.25
 21
229.938
  0
LINE
  8
0
 10
53.25
 20
229.938
 11
66
 21
229.938
  0
LINE
  8
0
 10
66
 20
229.938
 11
66
 21
241.188
  0
LINE
  8
0
 10
66
 20
241.188
 11
72.5
 21
241.188
  0
LINE
  8
0
 10
72.5
 20
241.188
 11
72.5
 21
229.938
  0
LINE
  8
0
 10
72.5
 20
229.938
 11
85.25
 21
229.938
  0
LINE
  8
0
 10
85.25
 20
229.938
 11
85.25
 21
241.188
  0
LINE
  8
0
 10
85.25
 20
241.188
 11
91.75
 21
241.188
  0
LINE
  8
0
 10
91.75
 20
241.188
 11
91.75
 21
229.938
  0
LINE
  8
0
 10
91.75
 20
229.938
 11
100
 21
229.938
  0
LINE
  8
0
 10
100
 20
229.938
 11
100
 21
244.938
  0
LINE
  8
0
 10
100
 20
244.938
 11
88.5
 21
251.185
  0
LINE
  8
0
 10
88.5
 20
251.185
 11
69.25
 21
259.477
  0
LINE
  8
0
 10
69.25
 20
259.477
 11
50
 21
262.612
  0
LINE
  8
0
 10
50
 20
262.612
 11
30.75
 21
259.477
  0
LINE
  8
0
 10
30.75
 20
259.477
 11
11.5
 21
251.185
  0
LINE
  8
0
 10
11.5
 20
251.185
 11
0
 21
244.938
  0
LINE
  8
0
 10
0
 20
244.938
 11
0
 21
229.938
  0
LINE
  8
0
 10
0
 20
229.938
 11
8.25
 21
229.938
  0
LINE
  8
0
 10
8.25
 20
229.938
 11
8.25
 21
241.188
  0
LINE
  8
0
 10
205
 20
244.157
 11
196.75
 21
248.687
  0
LINE
  8
0
 10
196.75
 20
248.687
 11
196.75
 21
240.407
  0
LINE
  8
0
 10
196.75
 20
240.407
 11
190.25
 21
240.407
  0
LINE
  8
0
 10
190.25
 20
240.407
 11
190.25
 21
252.057
  0
LINE
  8
0
 10
190.25
 20
252.057
 11
177.5
 21
257.596
  0
LINE
  8
0
 10
177.5
 20
257.596
 11
177.5
 21
240.407
  0
LINE
  8
0
 10
177.5
 20
240.407
 11
171
 21
240.407
  0
LINE
  8
0
 10
171
 20
240.407
 11
171
 21
259.645
  0
LINE
  8
0
 10
171
 20
259.645
 11
158.25
 21
261.739
  0
LINE
  8
0
 10
158.25
 20
261.739
 11
158.25
 21
240.407
  0
LINE
  8
0
 10
158.25
 20
240.407
 11
151.75
 21
240.407
  0
LINE
  8
0
 10
151.75
 20
240.407
 11
151.75
 21
261.739
  0
LINE
  8
0
 10
151.75
 20
261.739
 11
139
 21
259.645
  0
LINE
  8
0
 10
139
 20
259.645
 11
139
 21
240.407
  0
LINE
  8
0
 10
139
 20
240.407
 11
132.5
 21
240.407
  0
LINE
  8
0
 10
132.5
 20
240.407
 11
132.5
 21
257.596
  0
LINE
  8
0
 10
132.5
 20
257.596
 11
119.75
 21
252.057
  0
LINE
  8
0
 10
119.75
 20
252.057
 11
119.75
 21
240.407
  0
LINE
  8
0
 10
119.75
 20
240.407
 11
113.25
 21
240.407
  0
LINE
  8
0
 10
113.25
 20
240.407
 11
113.25
 21
248.687
  0
LINE
  8
0
 10
113.25
 20
248.687
 11
105
 21
244.157
  0
LINE
  8
0
 10
105
 20
244.157
 11
105
 21
229.157
  0
LINE
  8
0
 10
105
 20
229.157
 11
205
 21
229.157
  0
LINE
  8
0
 10
205
 20
229.157
 11
205
 21
244.157
  0
LINE
  8
0
 10
8.25
 20
180.056
 11
14.75
 21
180.056
  0
LINE
  8
0
 10
14.75
 20
180.056
 11
14.75
 21
168.806
  0
LINE
  8
0
 10
14.75
 20
168.806
 11
27.5
 21
168.806
  0
LINE
  8
0
 10
27.5
 20
168.806
 11
27.5
 21
180.056
  0
LINE
  8
0
 10
27.5
 20
180.056
 11
34
 21
180.056
  0
LINE
  8
0
 10
34
 20
180.056
 11
34
 21
168.806
  0
LINE
  8
0
 10
34
 20
168.806
 11
46.75
 21
168.806
  0
LINE
  8
0
 10
46.75
 20
168.806
 11
46.75
 21
180.056
  0
LINE
  8
0
 10
46.75
 20
180.056
 11
53.25
 21
180.056
  0
LINE
  8
0
 10
53.25
 20
180.056
 11
53.25
 21
168.806
  0
LINE
  8
0
 10
53.25
 20
168.806
 11
66
 21
168.806
  0
LINE
  8
0
 10
66
 20
168.806
 11
66
 21
180.056
  0
LINE
  8
0
 10
66
 20
180.056
 11
72.5
 21
180.056
  0
LINE
  8
0
 10
72.5
 20
180.056
 11
72.5
 21
168.806
  0
LINE
  8
0
 10
72.5
 20
168.806
 11
85.25
 21
168.806
  0
LINE
  8
0
 10
85.25
 20
168.806
 11
85.25
 21
180.056
  0
LINE
  8
0
 10
85.25
 20
180.056
 11
91.75
 21
180.056
  0
LINE
  8
0
 10
91.75
 20
180.056
 11
91.75
 21
168.806
  0
LINE
  8
0
 10
91.75
 20
168.806
 11
100
 21
168.806
  0
LINE
  8
0
 10
100
 20
168.806
 11
100
 21
183.806
  0
LINE
  8
0
 10
100
 20
183.806
 11
88.5
 21
198.345
  0
LINE
  8
0
 10
88.5
 20
198.345
 11
69.25
 21
217.643
  0
LINE
  8
0
 10
69.25
 20
217.643
 11
50
 21
224.938
  0
LINE
  8
0
 10
50
 20
224.938
 11
30.75
 21
217.643
  0
LINE
  8
0
 10
30.75
 20
217.643
 11
11.5
 21
198.345
  0
LINE
  8
0
 10
11.5
 20
198.345
 11
0
 21
183.806
  0
LINE
  8
0
 10
0
 20
183.806
 11
0
 21
168.806
  0
LINE
  8
0
 10
0
 20
168.806
 11
8.25
 21
168.806
  0
LINE
  8
0
 10
8.25
 20
168.806
 11
8.25
 21
180.056
  0
LINE
  8
0
 10
205
 20
183.239
 11
196.75
 21
193.781
  0
LINE
  8
0
 10
196.75
 20
193.781
 11
196.75
 21
179.489
  0
LINE
  8
0
 10
196.75
 20
179.489
 11
190.25
 21
179.489
  0
LINE
  8
0
 10
190.25
 20
179.489
 11
190.25
 21
201.624
  0
LINE
  8
0
 10
190.25
 20
201.624
 11
177.5
 21
214.516
  0
LINE
  8
0
 10
177.5
 20
214.516
 11
177.5
 21
179.489
  0
LINE
  8
0
 10
177.5
 20
179.489
 11
171
 21
179.489
  0
LINE
  8
0
 10
171
 20
179.489
 11
171
 21
219.283
  0
LINE
  8
0
 10
171
 20
219.283
 11
158.25
 21
224.157
  0
LINE
  8
0
 10
158.25
 20
224.157
 11
158.25
 21
179.489
  0
LINE
  8
0
 10
158.25
 20
179.489
 11
151.75
 21
179.489
  0
LINE
  8
0
 10
151.75
 20
179.489
 11
151.75
 21
224.157
  0
LINE
  8
0
 10
151.75
 20
224.157
 11
139
 21
219.283
  0
LINE
  8
0
 10
139
 20
219.283
 11
139
 21
179.489
  0
LINE
  8
0
 10
139
 20
179.489
 11
132.5
 21
179.489
  0
LINE
  8
0
 10
132.5
 20
179.489
 11
132.5
 21
214.516
  0
LINE
  8
0
 10
132.5
 20
214.516
 11
119.75
 21
201.624
  0
LINE
  8
0
 10
119.75
 20
201.624
 11
119.75
 21
179.489
  0
LINE
  8
0
 10
119.75
 20
179.489
 11
113.25
 21
179.489
  0
LINE
  8
0
 10
113.25
 20
179.489
 11
113.25
 21
193.781
  0
LINE
  8
0
 10
113.25
 20
193.781
 11
105
 21
183.239
  0
LINE
  8
0
 10
105
 20
183.239
 11
105
 21
168.239
  0
LINE
  8
0
 10
105
 20
168.239
 11
205
 21
168.239
  0
LINE
  8
0
 10
205
 20
168.239
 11
205
 21
183.239
  0
LINE
  8
0
 10
8.25
 20
110.056
 11
14.75
 21
110.056
  0
LINE
  8
0
 10
14.75
 20
110.056
 11
14.75
 21
98.8058
  0
LINE
  8
0
 10
14.75
 20
98.8058
 11
27.5
 21
98.8058
  0
LINE
  8
0
 10
27.5
 20
98.8058
 11
27.5
 21
110.056
  0
LINE
  8
0
 10
27.5
 20
110.056
 11
34
 21
110.056
  0
LINE
  8
0
 10
34
 20
110.056
 11
34
 21
98.8058
  0
LINE
  8
0
 10
34
 20
98.8058
 11
46.75
 21
98.8058
  0
LINE
  8
0
 10
46.75
 20
98.8058
 11
46.75
 21
110.056
  0
LINE
  8
0
 10
46.75
 20
110.056
 11
53.25
 21
110.056
  0
LINE
  8
0
 10
53.25
 20
110.056
 11
53.25
 21
98.8058
  0
LINE
  8
0
 10
53.25
 20
98.8058
 11
66
 21
98.8058
  0
LINE
  8
0
 10
66
 20
98.8058
 11
66
 21
110.056
  0
LINE
  8
0
 10
66
 20
110.056
 11
72.5
 21
110.056
  0
LINE
  8
0
 10
72.5
 20
110.056
 11
72.5
 21
98.8058
  0
LINE
  8
0
 10
72.5
 20
98.8058
 11
85.25
 21
98.8058
  0
LINE
  8
0
 10
85.25
 20
98.8058
 11
85.25
 21
110.056
  0
LINE
  8
0
 10
85.25
 20
110.056
 11
91.75
 21
110.056
  0
LINE
  8
0
 10
91.75
 20
110.056
 11
91.75
 21
98.8058
  0
LINE
  8
0
 10
91.75
 20
98.8058
 11
100
 21
98.8058
  0
LINE
  8
0
 10
100
 20
98.8058
 11
100
 21
113.806
  0
LINE
  8
0
 10
100
 20
113.806
 11
88.5
 21
131.479
  0
LINE
  8
0
 10
88.5
 20
131.479
 11
69.25
 21
154.938
  0
LINE
  8
0
 10
69.25
 20
154.938
 11
50
 21
163.806
  0
LINE
  8
0
 10
50
 20
163.806
 11
30.75
 21
154.938
  0
LINE
  8
0
 10
30.75
 20
154.938
 11
11.5
 21
131.479
  0
LINE
  8
0
 10
11.5
 20
131.479
 11
0
 21
113.806
  0
LINE
  8
0
 10
0
 20
113.806
 11
0
 21
98.8058
  0
LINE
  8
0
 10
0
 20
98.8058
 11
8.25
 21
98.8058
  0
LINE
  8
0
 10
8.25
 20
98.8058
 11
8.25
 21
110.056
  0
LINE
  8
0
 10
205
 20
113.5
 11
196.75
 21
126.314
  0
LINE
  8
0
 10
196.75
 20
126.314
 11
196.75
 21
109.75
  0
LINE
  8
0
 10
196.75
 20
109.75
 11
190.25
 21
109.75
  0
LINE
  8
0
 10
190.25
 20
109.75
 11
190.25
 21
135.848
  0
LINE
  8
0
 10
190.25
 20
135.848
 11
177.5
 21
151.52
  0
LINE
  8
0
 10
177.5
 20
151.52
 11
177.5
 21
109.75
  0
LINE
  8
0
 10
177.5
 20
109.75
 11
171
 21
109.75
  0
LINE
  8
0
 10
171
 20
109.75
 11
171
 21
157.315
  0
LINE
  8
0
 10
171
 20
157.315
 11
158.25
 21
163.239
  0
LINE
  8
0
 10
158.25
 20
163.239
 11
158.25
 21
109.75
  0
LINE
  8
0
 10
158.25
 20
109.75
 11
151.75
 21
109.75
  0
LINE
  8
0
 10
151.75
 20
109.75
 11
151.75
 21
163.239
  0
LINE
  8
0
 10
151.75
 20
163.239
 11
139
 21
157.315
  0
LINE
  8
0
 10
139
 20
157.315
 11
139
 21
109.75
  0
LINE
  8
0
 10
139
 20
109.75
 11
132.5
 21
109.75
  0
LINE
  8
0
 10
132.5
 20
109.75
 11
132.5
 21
151.52
  0
LINE
  8
0
 10
132.5
 20
151.52
 11
119.75
 21
135.848
  0
LINE
  8
0
 10
119.75
 20
135.848
 11
119.75
 21
109.75
  0
LINE
  8
0
 10
119.75
 20
109.75
 11
113.25
 21
109.75
  0
LINE
  8
0
 10
113.25
 20
109.75
 11
113.25
 21
126.314
  0
LINE
  8
0
 10
113.25
 20
126.314
 11
105
 21
113.5
  0
LINE
  8
0
 10
105
 20
113.5
 11
105
 21
98.4995
  0
LINE
  8
0
 10
105
 20
98.4995
 11
205
 21
98.4995
  0
LINE
  8
0
 10
205
 20
98.4995
 11
205
 21
113.5
  0
LINE
  8
0
 10
8.25
 20
48.9237
 11
14.75
 21
48.9237
  0
LINE
  8
0
 10
14.75
 20
48.9237
 11
14.75
 21
37.6737
  0
LINE
  8
0
 10
14.75
 20
37.6737
 11
27.5
 21
37.6737
  0
LINE
  8
0
 10
27.5
 20
37.6737
 11
27.5
 21
48.9237
  0
LINE
  8
0
 10
27.5
 20
48.9237
 11
34
 21
48.9237
  0
LINE
  8
0
 10
34
 20
48.9237
 11
34
 21
37.6737
  0
LINE
  8
0
 10
34
 20
37.6737
 11
46.75
 21
37.6737
  0
LINE
  8
0
 10
46.75
 20
37.6737
 11
46.75
 21
48.9237
  0
LINE
  8
0
 10
46.75
 20
48.9237
 11
53.25
 21
48.9237
  0
LINE
  8
0
 10
53.25
 20
48.9237
 11
53.25
 21
37.6737
  0
LINE
  8
0
 10
53.25
 20
37.6737
 11
66
 21
37.6737
  0
LINE
  8
0
 10
66
 20
37.6737
 11
66
 21
48.9237
  0
LINE
  8
0
 10
66
 20
48.9237
 11
72.5
 21
48.9237
  0
LINE
  8
0
 10
72.5
 20
48.9237
 11
72.5
 21
37.6737
  0
LINE
  8
0
 10
72.5
 20
37.6737
 11
85.25
 21
37.6737
  0
LINE
  8
0
 10
85.25
 20
37.6737
 11
85.25
 21
48.9237
  0
LINE
  8
0
 10
85.25
 20
48.9237
 11
91.75
 21
48.9237
  0
LINE
  8
0
 10
91.75
 20
48.9237
 11
91.75
 21
37.6737
  0
LINE
  8
0
 10
91.75
 20
37.6737
 11
100
 21
37.6737
  0
LINE
  8
0
 10
100
 20
37.6737
 11
100
 21
52.6737
  0
LINE
  8
0
 10
100
 20
52.6737
 11
88.5
 21
67.2129
  0
LINE
  8
0
 10
88.5
 20
67.2129
 11
69.25
 21
86.5106
  0
LINE
  8
0
 10
69.25
 20
86.5106
 11
50
 21
93.8058
  0
LINE
  8
0
 10
50
 20
93.8058
 11
30.75
 21
86.5106
  0
LINE
  8
0
 10
30.75
 20
86.5106
 11
11.5
 21
67.2129
  0
LINE
  8
0
 10
11.5
 20
67.2129
 11
0
 21
52.6737
  0
LINE
  8
0
 10
0
 20
52.6737
 11
0
 21
37.6737
  0
LINE
  8
0
 10
0
 20
37.6737
 11
8.25
 21
37.6737
  0
LINE
  8
0
 10
8.25
 20
37.6737
 11
8.25
 21
48.9237
  0
LINE
  8
0
 10
205
 20
52.5817
 11
196.75
 21
63.1234
  0
LINE
  8
0
 10
196.75
 20
63.1234
 11
196.75
 21
48.8317
  0
LINE
  8
0
 10
196.75
 20
48.8317
 11
190.25
 21
48.8317
  0
LINE
  8
0
 10
190.25
 20
48.8317
 11
190.25
 21
70.9668
  0
LINE
  8
0
 10
190.25
 20
70.9668
 11
177.5
 21
83.8587
  0
LINE
  8
0
 10
177.5
 20
83.8587
 11
177.5
 21
48.8317
  0
LINE
  8
0
 10
177.5
 20
48.8317
 11
171
 21
48.8317
  0
LINE
  8
0
 10
171
 20
48.8317
 11
171
 21
88.626
  0
LINE
  8
0
 10
171
 20
88.626
 11
158.25
 21
93.4995
  0
LINE
  8
0
 10
158.25
 20
93.4995
 11
158.25
 21
48.8317
  0
LINE
  8
0
 10
158.25
 20
48.8317
 11
151.75
 21
48.8317
  0
LINE
  8
0
 10
151.75
 20
48.8317
 11
151.75
 21
93.4995
  0
LINE
  8
0
 10
151.75
 20
93.4995
 11
139
 21
88.626
  0
LINE
  8
0
 10
139
 20
88.626
 11
139
 21
48.8317
  0
LINE
  8
0
 10
139
 20
48.8317
 11
132.5
 21
48.8317
  0
LINE
  8
0
 10
132.5
 20
48.8317
 11
132.5
 21
83.8587
  0
LINE
  8
0
 10
132.5
 20
83.8587
 11
119.75
 21
70.9668
  0
LINE
  8
0
 10
119.75
 20
70.9668
 11
119.75
 21
48.8317
  0
LINE
  8
0
 10
119.75
 20
48.8317
 11
113.25
 21
48.8317
  0
LINE
  8
0
 10
113.25
 20
48.8317
 11
113.25
 21
63.1234
  0
LINE
  8
0
 10
113.25
 20
63.1234
 11
105
 21
52.5817
  0
LINE
  8
0
 10
105
 20
52.5817
 11
105
 21
37.5817
  0
LINE
  8
0
 10
105
 20
37.5817
 11
205
 21
37.5817
  0
LINE
  8
0
 10
205
 20
37.5817
 11
205
 21
52.5817
  0
LINE
  8
0
 10
8.25
 20
11.25
 11
14.75
 21
11.25
  0
LINE
  8
0
 10
14.75
 20
11.25
 11
14.75
 21
0
  0
LINE
  8
0
 10
14.75
 20
0
 11
27.5
 21
0
  0
LINE
  8
0
 10
27.5
 20
0
 11
27.5
 21
11.25
  0
LINE
  8
0
 10
27.5
 20
11.25
 11
34
 21
11.25
  0
LINE
  8
0
 10
34
 20
11.25
 11
34
 21
0
  0
LINE
  8
0
 10
34
 20
0
 11
46.75
 21
0
  0
LINE
  8
0
 10
46.75
 20
0
 11
46.75
 21
11.25
  0
LINE
  8
0
 10
46.75
 20
11.25
 11
53.25
 21
11.25
  0
LINE
  8
0
 10
53.25
 20
11.25
 11
53.25
 21
0
  0
LINE
  8
0
 10
53.25
 20
0
 11
66
 21
0
  0
LINE
  8
0
 10
66
 20
0
 11
66
 21
11.25
  0
LINE
  8
0
 10
66
 20
11.25
 11
72.5
 21
11.25
  0
LINE
  8
0
 10
72.5
 20
11.25
 11
72.5
 21
0
  0
LINE
  8
0
 10
72.5
 20
0
 11
85.25
 21
0
  0
LINE
  8
0
 10
85.25
 20
0
 11
85.25
 21
11.25
  0
LINE
  8
0
 10
85.25
 20
11.25
 11
91.75
 21
11.25
  0
LINE
  8
0
 10
91.75
 20
11.25
 11
91.75
 21
0
  0
LINE
  8
0
 10
91.75
 20
0
 11
100
 21
0
  0
LINE
  8
0
 10
100
 20
0
 11
100
 21
15
  0
LINE
  8
0
 10
100
 20
15
 11
88.5
 21
21.2472
  0
LINE
  8
0
 10
88.5
 20
21.2472
 11
69.25
 21
29.5391
  0
LINE
  8
0
 10
69.25
 20
29.5391
 11
50
 21
32.6737
  0
LINE
  8
0
 10
50
 20
32.6737
 11
30.75
 21
29.5391
  0
LINE
  8
0
 10
30.75
 20
29.5391
 11
11.5
 21
21.2472
  0
LINE
  8
0
 10
11.5
 20
21.2472
 11
0
 21
15
  0
LINE
  8
0
 10
0
 20
15
 11
0
 21
0
  0
LINE
  8
0
 10
0
 20
0
 11
8.25
 21
0
  0
LINE
  8
0
 10
8.25
 20
0
 11
8.25
 21
11.25
  0
LINE
  8
0
 10
205
 20
15
 11
196.75
 21
19.5296
  0
LINE
  8
0
 10
196.75
 20
19.5296
 11
196.75
 21
11.25
  0
LINE
  8
0
 10
196.75
 20
11.25
 11
190.25
 21
11.25
  0
LINE
  8
0
 10
190.25
 20
11.25
 11
190.25
 21
22.8998
  0
LINE
  8
0
 10
190.25
 20
22.8998
 11
177.5
 21
28.4392
  0
LINE
  8
0
 10
177.5
 20
28.4392
 11
177.5
 21
11.25
  0
LINE
  8
0
 10
177.5
 20
11.25
 11
171
 21
11.25
  0
LINE
  8
0
 10
171
 20
11.25
 11
171
 21
30.4876
  0
LINE
  8
0
 10
171
 20
30.4876
 11
158.25
 21
32.5817
  0
LINE
  8
0
 10
158.25
 20
32.5817
 11
158.25
 21
11.25
  0
LINE
  8
0
 10
158.25
 20
11.25
 11
151.75
 21
11.25
  0
LINE
  8
0
 10
151.75
 20
11.25
 11
151.75
 21
32.5817
  0
LINE
  8
0
 10
151.75
 20
32.5817
 11
139
 21
30.4876
  0
LINE
  8
0
 10
139
 20
30.4876
 11
139
 21
11.25
  0
LINE
  8
0
 10
139
 20
11.25
 11
132.5
 21
11.25
  0
LINE
  8
0
 10
132.5
 20
11.25
 11
132.5
 21
28.4392
  0
LINE
  8
0
 10
132.5
 20
28.4392
 11
119.75
 21
22.8998
  0
LINE
  8
0
 10
119.75
 20
22.8998
 11
119.75
 21
11.25
  0
LINE
  8
0
 10
119.75
 20
11.25
 11
113.25
 21
11.25
  0
LINE
  8
0
 10
113.25
 20
11.25
 11
113.25
 21
19.5296
  0
LINE
  8
0
 10
113.25
 20
19.5296
 11
105
 21
15
  0
LINE
  8
0
 10
105
 20
15
 11
105
 21
0
  0
LINE
  8
0
 10
105
 20
0
 11
205
 21
0
  0
LINE
  8
0
 10
205
 20
0
 11
205
 21
15
  0
ENDSEC
  0
SECTION
  2
OBJECTS
  0
DICTIONARY
  0
ENDSEC
  0
EOF
