solid OpenSCAD_Model
  facet normal -0.991445 0.130527 0
    outer loop
      vertex -2.5 0 3
      vertex -2.41481 0.647047 6
      vertex -2.41481 0.647047 3
    endloop
  endfacet
  facet normal -0.991445 0.130527 0
    outer loop
      vertex -2.41481 0.647047 6
      vertex -2.5 0 3
      vertex -2.5 0 6
    endloop
  endfacet
  facet normal 0.608761 0.793354 -0
    outer loop
      vertex 1.76777 1.76777 3
      vertex 1.25 2.16506 6
      vertex 1.76777 1.76777 6
    endloop
  endfacet
  facet normal 0.608761 0.793354 0
    outer loop
      vertex 1.25 2.16506 6
      vertex 1.76777 1.76777 3
      vertex 1.25 2.16506 3
    endloop
  endfacet
  facet normal 0.991445 -0.130527 0
    outer loop
      vertex 2.41481 -0.647047 6
      vertex 2.5 0 3
      vertex 2.5 0 6
    endloop
  endfacet
  facet normal 0.991445 -0.130527 0
    outer loop
      vertex 2.5 0 3
      vertex 2.41481 -0.647047 6
      vertex 2.41481 -0.647047 3
    endloop
  endfacet
  facet normal -0.382683 -0.92388 0
    outer loop
      vertex -1.25 -2.16506 3
      vertex -0.647047 -2.41481 6
      vertex -1.25 -2.16506 6
    endloop
  endfacet
  facet normal -0.382683 -0.92388 -0
    outer loop
      vertex -0.647047 -2.41481 6
      vertex -1.25 -2.16506 3
      vertex -0.647047 -2.41481 3
    endloop
  endfacet
  facet normal 0.793354 0.60876 0
    outer loop
      vertex 2.16506 1.25 6
      vertex 1.76777 1.76777 3
      vertex 1.76777 1.76777 6
    endloop
  endfacet
  facet normal 0.793354 0.60876 0
    outer loop
      vertex 1.76777 1.76777 3
      vertex 2.16506 1.25 6
      vertex 2.16506 1.25 3
    endloop
  endfacet
  facet normal 0.923879 0.382684 0
    outer loop
      vertex 2.41481 0.647047 6
      vertex 2.16506 1.25 3
      vertex 2.16506 1.25 6
    endloop
  endfacet
  facet normal 0.923879 0.382684 0
    outer loop
      vertex 2.16506 1.25 3
      vertex 2.41481 0.647047 6
      vertex 2.41481 0.647047 3
    endloop
  endfacet
  facet normal -0.130527 0.991445 0
    outer loop
      vertex 0 2.5 3
      vertex -0.647047 2.41481 6
      vertex 0 2.5 6
    endloop
  endfacet
  facet normal -0.130527 0.991445 0
    outer loop
      vertex -0.647047 2.41481 6
      vertex 0 2.5 3
      vertex -0.647047 2.41481 3
    endloop
  endfacet
  facet normal -0.923879 0.382684 0
    outer loop
      vertex -2.41481 0.647047 3
      vertex -2.16506 1.25 6
      vertex -2.16506 1.25 3
    endloop
  endfacet
  facet normal -0.923879 0.382684 0
    outer loop
      vertex -2.16506 1.25 6
      vertex -2.41481 0.647047 3
      vertex -2.41481 0.647047 6
    endloop
  endfacet
  facet normal 0.608761 -0.793354 0
    outer loop
      vertex 1.25 -2.16506 3
      vertex 1.76777 -1.76777 6
      vertex 1.25 -2.16506 6
    endloop
  endfacet
  facet normal 0.608761 -0.793354 0
    outer loop
      vertex 1.76777 -1.76777 6
      vertex 1.25 -2.16506 3
      vertex 1.76777 -1.76777 3
    endloop
  endfacet
  facet normal -0.991445 -0.130527 0
    outer loop
      vertex -2.41481 -0.647047 3
      vertex -2.5 0 6
      vertex -2.5 0 3
    endloop
  endfacet
  facet normal -0.991445 -0.130527 0
    outer loop
      vertex -2.5 0 6
      vertex -2.41481 -0.647047 3
      vertex -2.41481 -0.647047 6
    endloop
  endfacet
  facet normal -0.608761 -0.793354 0
    outer loop
      vertex -1.76777 -1.76777 3
      vertex -1.25 -2.16506 6
      vertex -1.76777 -1.76777 6
    endloop
  endfacet
  facet normal -0.608761 -0.793354 -0
    outer loop
      vertex -1.25 -2.16506 6
      vertex -1.76777 -1.76777 3
      vertex -1.25 -2.16506 3
    endloop
  endfacet
  facet normal 0 0 -1
    outer loop
      vertex 3.38074 -0.905867 0
      vertex 3.38074 0.905867 0
      vertex 3.5 0 0
    endloop
  endfacet
  facet normal 0 0 -1
    outer loop
      vertex 3.03109 -1.75 0
      vertex 3.38074 0.905867 0
      vertex 3.38074 -0.905867 0
    endloop
  endfacet
  facet normal 0 0 -1
    outer loop
      vertex 3.03109 -1.75 0
      vertex 3.03109 1.75 0
      vertex 3.38074 0.905867 0
    endloop
  endfacet
  facet normal 0 0 -1
    outer loop
      vertex 2.47487 -2.47487 0
      vertex 3.03109 1.75 0
      vertex 3.03109 -1.75 0
    endloop
  endfacet
  facet normal 0 0 -1
    outer loop
      vertex 2.47487 -2.47487 0
      vertex 2.47487 2.47487 0
      vertex 3.03109 1.75 0
    endloop
  endfacet
  facet normal 0 0 -1
    outer loop
      vertex 1.75 -3.03109 0
      vertex 2.47487 2.47487 0
      vertex 2.47487 -2.47487 0
    endloop
  endfacet
  facet normal 0 0 -1
    outer loop
      vertex 1.75 -3.03109 0
      vertex 1.75 3.03109 0
      vertex 2.47487 2.47487 0
    endloop
  endfacet
  facet normal 0 0 -1
    outer loop
      vertex 0.905867 -3.38074 0
      vertex 1.75 3.03109 0
      vertex 1.75 -3.03109 0
    endloop
  endfacet
  facet normal 0 0 -1
    outer loop
      vertex 0.905867 -3.38074 0
      vertex 0.905867 3.38074 0
      vertex 1.75 3.03109 0
    endloop
  endfacet
  facet normal 0 0 -1
    outer loop
      vertex 0 -3.5 0
      vertex 0.905867 3.38074 0
      vertex 0.905867 -3.38074 0
    endloop
  endfacet
  facet normal 0 0 -1
    outer loop
      vertex 0 -3.5 0
      vertex 0 3.5 0
      vertex 0.905867 3.38074 0
    endloop
  endfacet
  facet normal 0 0 -1
    outer loop
      vertex -0.905867 -3.38074 0
      vertex 0 3.5 0
      vertex 0 -3.5 0
    endloop
  endfacet
  facet normal 0 0 -1
    outer loop
      vertex -0.905867 -3.38074 0
      vertex -0.905867 3.38074 0
      vertex 0 3.5 0
    endloop
  endfacet
  facet normal 0 0 -1
    outer loop
      vertex -0.905867 -3.38074 0
      vertex -1.75 3.03109 0
      vertex -0.905867 3.38074 0
    endloop
  endfacet
  facet normal 0 0 -1
    outer loop
      vertex -1.75 -3.03109 0
      vertex -1.75 3.03109 0
      vertex -0.905867 -3.38074 0
    endloop
  endfacet
  facet normal 0 0 -1
    outer loop
      vertex -2.47487 -2.47487 0
      vertex -1.75 3.03109 0
      vertex -1.75 -3.03109 0
    endloop
  endfacet
  facet normal 0 0 -1
    outer loop
      vertex -2.47487 -2.47487 0
      vertex -2.47487 2.47487 0
      vertex -1.75 3.03109 0
    endloop
  endfacet
  facet normal 0 0 -1
    outer loop
      vertex -3.03109 -1.75 0
      vertex -2.47487 2.47487 0
      vertex -2.47487 -2.47487 0
    endloop
  endfacet
  facet normal 0 0 -1
    outer loop
      vertex -3.03109 -1.75 0
      vertex -3.03109 1.75 0
      vertex -2.47487 2.47487 0
    endloop
  endfacet
  facet normal 0 0 -1
    outer loop
      vertex -3.38074 -0.905867 0
      vertex -3.03109 1.75 0
      vertex -3.03109 -1.75 0
    endloop
  endfacet
  facet normal 0 0 -1
    outer loop
      vertex -3.38074 -0.905867 0
      vertex -3.38074 0.905867 0
      vertex -3.03109 1.75 0
    endloop
  endfacet
  facet normal 0 -0 -1
    outer loop
      vertex -3.38074 0.905867 0
      vertex -3.38074 -0.905867 0
      vertex -3.5 0 0
    endloop
  endfacet
  facet normal 0.130527 0.991445 -0
    outer loop
      vertex 0.647047 2.41481 3
      vertex 0 2.5 6
      vertex 0.647047 2.41481 6
    endloop
  endfacet
  facet normal 0.130527 0.991445 0
    outer loop
      vertex 0 2.5 6
      vertex 0.647047 2.41481 3
      vertex 0 2.5 3
    endloop
  endfacet
  facet normal 0 0 1
    outer loop
      vertex 2.41481 0.647047 6
      vertex 2.41481 -0.647047 6
      vertex 2.5 0 6
    endloop
  endfacet
  facet normal 0 0 1
    outer loop
      vertex 2.16506 1.25 6
      vertex 2.41481 -0.647047 6
      vertex 2.41481 0.647047 6
    endloop
  endfacet
  facet normal 0 0 1
    outer loop
      vertex 2.16506 1.25 6
      vertex 2.16506 -1.25 6
      vertex 2.41481 -0.647047 6
    endloop
  endfacet
  facet normal 0 0 1
    outer loop
      vertex 1.76777 1.76777 6
      vertex 2.16506 -1.25 6
      vertex 2.16506 1.25 6
    endloop
  endfacet
  facet normal 0 0 1
    outer loop
      vertex 1.76777 1.76777 6
      vertex 1.76777 -1.76777 6
      vertex 2.16506 -1.25 6
    endloop
  endfacet
  facet normal 0 0 1
    outer loop
      vertex 1.25 2.16506 6
      vertex 1.76777 -1.76777 6
      vertex 1.76777 1.76777 6
    endloop
  endfacet
  facet normal 0 0 1
    outer loop
      vertex 1.25 2.16506 6
      vertex 1.25 -2.16506 6
      vertex 1.76777 -1.76777 6
    endloop
  endfacet
  facet normal 0 0 1
    outer loop
      vertex 0.647047 2.41481 6
      vertex 1.25 -2.16506 6
      vertex 1.25 2.16506 6
    endloop
  endfacet
  facet normal 0 0 1
    outer loop
      vertex 0.647047 2.41481 6
      vertex 0.647047 -2.41481 6
      vertex 1.25 -2.16506 6
    endloop
  endfacet
  facet normal 0 0 1
    outer loop
      vertex 0 2.5 6
      vertex 0.647047 -2.41481 6
      vertex 0.647047 2.41481 6
    endloop
  endfacet
  facet normal 0 0 1
    outer loop
      vertex 0 2.5 6
      vertex 0 -2.5 6
      vertex 0.647047 -2.41481 6
    endloop
  endfacet
  facet normal -0 0 1
    outer loop
      vertex -0.647047 2.41481 6
      vertex 0 -2.5 6
      vertex 0 2.5 6
    endloop
  endfacet
  facet normal 0 0 1
    outer loop
      vertex -0.647047 2.41481 6
      vertex -0.647047 -2.41481 6
      vertex 0 -2.5 6
    endloop
  endfacet
  facet normal -0 0 1
    outer loop
      vertex -1.25 2.16506 6
      vertex -0.647047 -2.41481 6
      vertex -0.647047 2.41481 6
    endloop
  endfacet
  facet normal 0 0 1
    outer loop
      vertex -1.25 2.16506 6
      vertex -1.25 -2.16506 6
      vertex -0.647047 -2.41481 6
    endloop
  endfacet
  facet normal -0 0 1
    outer loop
      vertex -1.76777 1.76777 6
      vertex -1.25 -2.16506 6
      vertex -1.25 2.16506 6
    endloop
  endfacet
  facet normal 0 0 1
    outer loop
      vertex -1.76777 1.76777 6
      vertex -1.76777 -1.76777 6
      vertex -1.25 -2.16506 6
    endloop
  endfacet
  facet normal -0 0 1
    outer loop
      vertex -2.16506 1.25 6
      vertex -1.76777 -1.76777 6
      vertex -1.76777 1.76777 6
    endloop
  endfacet
  facet normal 0 0 1
    outer loop
      vertex -2.16506 1.25 6
      vertex -2.16506 -1.25 6
      vertex -1.76777 -1.76777 6
    endloop
  endfacet
  facet normal -0 0 1
    outer loop
      vertex -2.41481 0.647047 6
      vertex -2.16506 -1.25 6
      vertex -2.16506 1.25 6
    endloop
  endfacet
  facet normal 0 0 1
    outer loop
      vertex -2.41481 0.647047 6
      vertex -2.41481 -0.647047 6
      vertex -2.16506 -1.25 6
    endloop
  endfacet
  facet normal 0 -0 1
    outer loop
      vertex -2.41481 -0.647047 6
      vertex -2.41481 0.647047 6
      vertex -2.5 0 6
    endloop
  endfacet
  facet normal -0.793354 0.60876 0
    outer loop
      vertex -2.16506 1.25 3
      vertex -1.76777 1.76777 6
      vertex -1.76777 1.76777 3
    endloop
  endfacet
  facet normal -0.793354 0.60876 0
    outer loop
      vertex -1.76777 1.76777 6
      vertex -2.16506 1.25 3
      vertex -2.16506 1.25 6
    endloop
  endfacet
  facet normal -0.382684 0.923879 0
    outer loop
      vertex -0.647047 2.41481 3
      vertex -1.25 2.16506 6
      vertex -0.647047 2.41481 6
    endloop
  endfacet
  facet normal -0.382684 0.923879 0
    outer loop
      vertex -1.25 2.16506 6
      vertex -0.647047 2.41481 3
      vertex -1.25 2.16506 3
    endloop
  endfacet
  facet normal -0.60876 0.793354 0
    outer loop
      vertex -1.25 2.16506 3
      vertex -1.76777 1.76777 6
      vertex -1.25 2.16506 6
    endloop
  endfacet
  facet normal -0.60876 0.793354 0
    outer loop
      vertex -1.76777 1.76777 6
      vertex -1.25 2.16506 3
      vertex -1.76777 1.76777 3
    endloop
  endfacet
  facet normal 0.991445 0.130527 0
    outer loop
      vertex 2.5 0 6
      vertex 2.41481 0.647047 3
      vertex 2.41481 0.647047 6
    endloop
  endfacet
  facet normal 0.991445 0.130527 0
    outer loop
      vertex 2.41481 0.647047 3
      vertex 2.5 0 6
      vertex 2.5 0 3
    endloop
  endfacet
  facet normal 0.130527 -0.991445 0
    outer loop
      vertex 0 -2.5 3
      vertex 0.647047 -2.41481 6
      vertex 0 -2.5 6
    endloop
  endfacet
  facet normal 0.130527 -0.991445 0
    outer loop
      vertex 0.647047 -2.41481 6
      vertex 0 -2.5 3
      vertex 0.647047 -2.41481 3
    endloop
  endfacet
  facet normal 0.793354 -0.608761 0
    outer loop
      vertex 1.76777 -1.76777 6
      vertex 2.16506 -1.25 3
      vertex 2.16506 -1.25 6
    endloop
  endfacet
  facet normal 0.793354 -0.608761 0
    outer loop
      vertex 2.16506 -1.25 3
      vertex 1.76777 -1.76777 6
      vertex 1.76777 -1.76777 3
    endloop
  endfacet
  facet normal 0.92388 -0.382683 0
    outer loop
      vertex 2.16506 -1.25 6
      vertex 2.41481 -0.647047 3
      vertex 2.41481 -0.647047 6
    endloop
  endfacet
  facet normal 0.92388 -0.382683 0
    outer loop
      vertex 2.41481 -0.647047 3
      vertex 2.16506 -1.25 6
      vertex 2.16506 -1.25 3
    endloop
  endfacet
  facet normal 0.382683 -0.92388 0
    outer loop
      vertex 0.647047 -2.41481 3
      vertex 1.25 -2.16506 6
      vertex 0.647047 -2.41481 6
    endloop
  endfacet
  facet normal 0.382683 -0.92388 0
    outer loop
      vertex 1.25 -2.16506 6
      vertex 0.647047 -2.41481 3
      vertex 1.25 -2.16506 3
    endloop
  endfacet
  facet normal -0.130527 -0.991445 0
    outer loop
      vertex -0.647047 -2.41481 3
      vertex 0 -2.5 6
      vertex -0.647047 -2.41481 6
    endloop
  endfacet
  facet normal -0.130527 -0.991445 -0
    outer loop
      vertex 0 -2.5 6
      vertex -0.647047 -2.41481 3
      vertex 0 -2.5 3
    endloop
  endfacet
  facet normal -0.923879 -0.382684 0
    outer loop
      vertex -2.16506 -1.25 3
      vertex -2.41481 -0.647047 6
      vertex -2.41481 -0.647047 3
    endloop
  endfacet
  facet normal -0.923879 -0.382684 0
    outer loop
      vertex -2.41481 -0.647047 6
      vertex -2.16506 -1.25 3
      vertex -2.16506 -1.25 6
    endloop
  endfacet
  facet normal -0.793354 -0.60876 0
    outer loop
      vertex -1.76777 -1.76777 3
      vertex -2.16506 -1.25 6
      vertex -2.16506 -1.25 3
    endloop
  endfacet
  facet normal -0.793354 -0.60876 0
    outer loop
      vertex -2.16506 -1.25 6
      vertex -1.76777 -1.76777 3
      vertex -1.76777 -1.76777 6
    endloop
  endfacet
  facet normal 0.382683 0.92388 -0
    outer loop
      vertex 1.25 2.16506 3
      vertex 0.647047 2.41481 6
      vertex 1.25 2.16506 6
    endloop
  endfacet
  facet normal 0.382683 0.92388 0
    outer loop
      vertex 0.647047 2.41481 6
      vertex 1.25 2.16506 3
      vertex 0.647047 2.41481 3
    endloop
  endfacet
  facet normal 0.991445 0.130526 0
    outer loop
      vertex 3.5 0 3
      vertex 3.38074 0.905867 0
      vertex 3.38074 0.905867 3
    endloop
  endfacet
  facet normal 0.991445 0.130526 0
    outer loop
      vertex 3.38074 0.905867 0
      vertex 3.5 0 3
      vertex 3.5 0 0
    endloop
  endfacet
  facet normal -0.991445 0.130526 0
    outer loop
      vertex -3.5 0 0
      vertex -3.38074 0.905867 3
      vertex -3.38074 0.905867 0
    endloop
  endfacet
  facet normal -0.991445 0.130526 0
    outer loop
      vertex -3.38074 0.905867 3
      vertex -3.5 0 0
      vertex -3.5 0 3
    endloop
  endfacet
  facet normal 0.382683 0.92388 -0
    outer loop
      vertex 1.75 3.03109 0
      vertex 0.905867 3.38074 3
      vertex 1.75 3.03109 3
    endloop
  endfacet
  facet normal 0.382683 0.92388 0
    outer loop
      vertex 0.905867 3.38074 3
      vertex 1.75 3.03109 0
      vertex 0.905867 3.38074 0
    endloop
  endfacet
  facet normal -0.382683 -0.92388 0
    outer loop
      vertex -1.75 -3.03109 0
      vertex -0.905867 -3.38074 3
      vertex -1.75 -3.03109 3
    endloop
  endfacet
  facet normal -0.382683 -0.92388 -0
    outer loop
      vertex -0.905867 -3.38074 3
      vertex -1.75 -3.03109 0
      vertex -0.905867 -3.38074 0
    endloop
  endfacet
  facet normal 0.608762 0.793353 -0
    outer loop
      vertex 2.47487 2.47487 0
      vertex 1.75 3.03109 3
      vertex 2.47487 2.47487 3
    endloop
  endfacet
  facet normal 0.608762 0.793353 0
    outer loop
      vertex 1.75 3.03109 3
      vertex 2.47487 2.47487 0
      vertex 1.75 3.03109 0
    endloop
  endfacet
  facet normal 0.130526 0.991445 -0
    outer loop
      vertex 0.905867 3.38074 0
      vertex 0 3.5 3
      vertex 0.905867 3.38074 3
    endloop
  endfacet
  facet normal 0.130526 0.991445 0
    outer loop
      vertex 0 3.5 3
      vertex 0.905867 3.38074 0
      vertex 0 3.5 0
    endloop
  endfacet
  facet normal -0.130526 0.991445 0
    outer loop
      vertex 0 3.5 0
      vertex -0.905867 3.38074 3
      vertex 0 3.5 3
    endloop
  endfacet
  facet normal -0.130526 0.991445 0
    outer loop
      vertex -0.905867 3.38074 3
      vertex 0 3.5 0
      vertex -0.905867 3.38074 0
    endloop
  endfacet
  facet normal -0.923879 0.382684 0
    outer loop
      vertex -3.38074 0.905867 0
      vertex -3.03109 1.75 3
      vertex -3.03109 1.75 0
    endloop
  endfacet
  facet normal -0.923879 0.382684 0
    outer loop
      vertex -3.03109 1.75 3
      vertex -3.38074 0.905867 0
      vertex -3.38074 0.905867 3
    endloop
  endfacet
  facet normal 0.608762 -0.793353 0
    outer loop
      vertex 1.75 -3.03109 0
      vertex 2.47487 -2.47487 3
      vertex 1.75 -3.03109 3
    endloop
  endfacet
  facet normal 0.608762 -0.793353 0
    outer loop
      vertex 2.47487 -2.47487 3
      vertex 1.75 -3.03109 0
      vertex 2.47487 -2.47487 0
    endloop
  endfacet
  facet normal -0.991445 -0.130526 0
    outer loop
      vertex -3.38074 -0.905867 0
      vertex -3.5 0 3
      vertex -3.5 0 0
    endloop
  endfacet
  facet normal -0.991445 -0.130526 0
    outer loop
      vertex -3.5 0 3
      vertex -3.38074 -0.905867 0
      vertex -3.38074 -0.905867 3
    endloop
  endfacet
  facet normal -0.608762 -0.793353 0
    outer loop
      vertex -2.47487 -2.47487 0
      vertex -1.75 -3.03109 3
      vertex -2.47487 -2.47487 3
    endloop
  endfacet
  facet normal -0.608762 -0.793353 -0
    outer loop
      vertex -1.75 -3.03109 3
      vertex -2.47487 -2.47487 0
      vertex -1.75 -3.03109 0
    endloop
  endfacet
  facet normal 0.793354 0.608761 0
    outer loop
      vertex 3.03109 1.75 3
      vertex 2.47487 2.47487 0
      vertex 2.47487 2.47487 3
    endloop
  endfacet
  facet normal 0.793354 0.608761 0
    outer loop
      vertex 2.47487 2.47487 0
      vertex 3.03109 1.75 3
      vertex 3.03109 1.75 0
    endloop
  endfacet
  facet normal 0 0 1
    outer loop
      vertex 2.5 0 3
      vertex 3.5 0 3
      vertex 3.38074 0.905867 3
    endloop
  endfacet
  facet normal 0 0 1
    outer loop
      vertex 2.41481 0.647047 3
      vertex 3.38074 0.905867 3
      vertex 3.03109 1.75 3
    endloop
  endfacet
  facet normal 0 0 1
    outer loop
      vertex 3.5 0 3
      vertex 2.5 0 3
      vertex 3.38074 -0.905867 3
    endloop
  endfacet
  facet normal -0 0 1
    outer loop
      vertex 2.41481 -0.647047 3
      vertex 3.38074 -0.905867 3
      vertex 2.5 0 3
    endloop
  endfacet
  facet normal 0 0 1
    outer loop
      vertex 2.16506 1.25 3
      vertex 3.03109 1.75 3
      vertex 2.47487 2.47487 3
    endloop
  endfacet
  facet normal 0 0 1
    outer loop
      vertex 3.38074 0.905867 3
      vertex 2.41481 0.647047 3
      vertex 2.5 0 3
    endloop
  endfacet
  facet normal 0 0 1
    outer loop
      vertex 3.03109 1.75 3
      vertex 2.16506 1.25 3
      vertex 2.41481 0.647047 3
    endloop
  endfacet
  facet normal 0 0 1
    outer loop
      vertex 2.47487 2.47487 3
      vertex 1.76777 1.76777 3
      vertex 2.16506 1.25 3
    endloop
  endfacet
  facet normal 0 0 1
    outer loop
      vertex 1.75 3.03109 3
      vertex 1.76777 1.76777 3
      vertex 2.47487 2.47487 3
    endloop
  endfacet
  facet normal 0 0 1
    outer loop
      vertex 1.75 3.03109 3
      vertex 1.25 2.16506 3
      vertex 1.76777 1.76777 3
    endloop
  endfacet
  facet normal 0 0 1
    outer loop
      vertex 0.905867 3.38074 3
      vertex 1.25 2.16506 3
      vertex 1.75 3.03109 3
    endloop
  endfacet
  facet normal 0 0 1
    outer loop
      vertex 0.905867 3.38074 3
      vertex 0.647047 2.41481 3
      vertex 1.25 2.16506 3
    endloop
  endfacet
  facet normal 0 0 1
    outer loop
      vertex 0 3.5 3
      vertex 0.647047 2.41481 3
      vertex 0.905867 3.38074 3
    endloop
  endfacet
  facet normal 0 0 1
    outer loop
      vertex 0 3.5 3
      vertex 0 2.5 3
      vertex 0.647047 2.41481 3
    endloop
  endfacet
  facet normal 0 0 1
    outer loop
      vertex 0 3.5 3
      vertex -0.647047 2.41481 3
      vertex 0 2.5 3
    endloop
  endfacet
  facet normal -0 0 1
    outer loop
      vertex -0.905867 3.38074 3
      vertex -0.647047 2.41481 3
      vertex 0 3.5 3
    endloop
  endfacet
  facet normal 0 0 1
    outer loop
      vertex -0.905867 3.38074 3
      vertex -1.25 2.16506 3
      vertex -0.647047 2.41481 3
    endloop
  endfacet
  facet normal -0 0 1
    outer loop
      vertex -1.75 3.03109 3
      vertex -1.25 2.16506 3
      vertex -0.905867 3.38074 3
    endloop
  endfacet
  facet normal 0 0 1
    outer loop
      vertex -1.75 3.03109 3
      vertex -1.76777 1.76777 3
      vertex -1.25 2.16506 3
    endloop
  endfacet
  facet normal -0 0 1
    outer loop
      vertex -2.47487 2.47487 3
      vertex -1.76777 1.76777 3
      vertex -1.75 3.03109 3
    endloop
  endfacet
  facet normal 0 0 1
    outer loop
      vertex -1.76777 1.76777 3
      vertex -2.47487 2.47487 3
      vertex -2.16506 1.25 3
    endloop
  endfacet
  facet normal -0 0 1
    outer loop
      vertex -3.03109 1.75 3
      vertex -2.16506 1.25 3
      vertex -2.47487 2.47487 3
    endloop
  endfacet
  facet normal 0 0 1
    outer loop
      vertex -2.16506 1.25 3
      vertex -3.03109 1.75 3
      vertex -2.41481 0.647047 3
    endloop
  endfacet
  facet normal -0 0 1
    outer loop
      vertex -3.38074 0.905867 3
      vertex -2.41481 0.647047 3
      vertex -3.03109 1.75 3
    endloop
  endfacet
  facet normal 0 0 1
    outer loop
      vertex 3.38074 -0.905867 3
      vertex 2.41481 -0.647047 3
      vertex 3.03109 -1.75 3
    endloop
  endfacet
  facet normal -0 0 1
    outer loop
      vertex 2.16506 -1.25 3
      vertex 3.03109 -1.75 3
      vertex 2.41481 -0.647047 3
    endloop
  endfacet
  facet normal 0 0 1
    outer loop
      vertex 3.03109 -1.75 3
      vertex 2.16506 -1.25 3
      vertex 2.47487 -2.47487 3
    endloop
  endfacet
  facet normal -0 0 1
    outer loop
      vertex 1.76777 -1.76777 3
      vertex 2.47487 -2.47487 3
      vertex 2.16506 -1.25 3
    endloop
  endfacet
  facet normal 0 0 1
    outer loop
      vertex 1.76777 -1.76777 3
      vertex 1.75 -3.03109 3
      vertex 2.47487 -2.47487 3
    endloop
  endfacet
  facet normal -0 0 1
    outer loop
      vertex 1.25 -2.16506 3
      vertex 1.75 -3.03109 3
      vertex 1.76777 -1.76777 3
    endloop
  endfacet
  facet normal 0 0 1
    outer loop
      vertex 1.25 -2.16506 3
      vertex 0.905867 -3.38074 3
      vertex 1.75 -3.03109 3
    endloop
  endfacet
  facet normal -0 0 1
    outer loop
      vertex 0.647047 -2.41481 3
      vertex 0.905867 -3.38074 3
      vertex 1.25 -2.16506 3
    endloop
  endfacet
  facet normal -0 0 1
    outer loop
      vertex 0 -2.5 3
      vertex 0.905867 -3.38074 3
      vertex 0.647047 -2.41481 3
    endloop
  endfacet
  facet normal 0 0 1
    outer loop
      vertex 0 -2.5 3
      vertex 0 -3.5 3
      vertex 0.905867 -3.38074 3
    endloop
  endfacet
  facet normal 0 0 1
    outer loop
      vertex -0.647047 -2.41481 3
      vertex 0 -3.5 3
      vertex 0 -2.5 3
    endloop
  endfacet
  facet normal 0 0 1
    outer loop
      vertex -0.647047 -2.41481 3
      vertex -0.905867 -3.38074 3
      vertex 0 -3.5 3
    endloop
  endfacet
  facet normal 0 0 1
    outer loop
      vertex -1.25 -2.16506 3
      vertex -0.905867 -3.38074 3
      vertex -0.647047 -2.41481 3
    endloop
  endfacet
  facet normal 0 0 1
    outer loop
      vertex -1.25 -2.16506 3
      vertex -1.75 -3.03109 3
      vertex -0.905867 -3.38074 3
    endloop
  endfacet
  facet normal 0 0 1
    outer loop
      vertex -1.76777 -1.76777 3
      vertex -1.75 -3.03109 3
      vertex -1.25 -2.16506 3
    endloop
  endfacet
  facet normal 0 0 1
    outer loop
      vertex -2.47487 -2.47487 3
      vertex -1.76777 -1.76777 3
      vertex -2.16506 -1.25 3
    endloop
  endfacet
  facet normal 0 0 1
    outer loop
      vertex -3.03109 -1.75 3
      vertex -2.16506 -1.25 3
      vertex -2.41481 -0.647047 3
    endloop
  endfacet
  facet normal 0 0 1
    outer loop
      vertex -1.76777 -1.76777 3
      vertex -2.47487 -2.47487 3
      vertex -1.75 -3.03109 3
    endloop
  endfacet
  facet normal 0 0 1
    outer loop
      vertex -3.38074 -0.905867 3
      vertex -2.41481 -0.647047 3
      vertex -2.5 0 3
    endloop
  endfacet
  facet normal 0 0 1
    outer loop
      vertex -2.41481 0.647047 3
      vertex -3.38074 0.905867 3
      vertex -2.5 0 3
    endloop
  endfacet
  facet normal 0 0 1
    outer loop
      vertex -2.16506 -1.25 3
      vertex -3.03109 -1.75 3
      vertex -2.47487 -2.47487 3
    endloop
  endfacet
  facet normal 0 0 1
    outer loop
      vertex -3.5 0 3
      vertex -2.5 0 3
      vertex -3.38074 0.905867 3
    endloop
  endfacet
  facet normal 0 0 1
    outer loop
      vertex -2.41481 -0.647047 3
      vertex -3.38074 -0.905867 3
      vertex -3.03109 -1.75 3
    endloop
  endfacet
  facet normal 0 0 1
    outer loop
      vertex -2.5 0 3
      vertex -3.5 0 3
      vertex -3.38074 -0.905867 3
    endloop
  endfacet
  facet normal -0.793354 0.608761 0
    outer loop
      vertex -3.03109 1.75 0
      vertex -2.47487 2.47487 3
      vertex -2.47487 2.47487 0
    endloop
  endfacet
  facet normal -0.793354 0.608761 0
    outer loop
      vertex -2.47487 2.47487 3
      vertex -3.03109 1.75 0
      vertex -3.03109 1.75 3
    endloop
  endfacet
  facet normal -0.382684 0.923879 0
    outer loop
      vertex -0.905867 3.38074 0
      vertex -1.75 3.03109 3
      vertex -0.905867 3.38074 3
    endloop
  endfacet
  facet normal -0.382684 0.923879 0
    outer loop
      vertex -1.75 3.03109 3
      vertex -0.905867 3.38074 0
      vertex -1.75 3.03109 0
    endloop
  endfacet
  facet normal -0.608761 0.793354 0
    outer loop
      vertex -1.75 3.03109 0
      vertex -2.47487 2.47487 3
      vertex -1.75 3.03109 3
    endloop
  endfacet
  facet normal -0.608761 0.793354 0
    outer loop
      vertex -2.47487 2.47487 3
      vertex -1.75 3.03109 0
      vertex -2.47487 2.47487 0
    endloop
  endfacet
  facet normal 0.92388 -0.382683 0
    outer loop
      vertex 3.03109 -1.75 3
      vertex 3.38074 -0.905867 0
      vertex 3.38074 -0.905867 3
    endloop
  endfacet
  facet normal 0.92388 -0.382683 0
    outer loop
      vertex 3.38074 -0.905867 0
      vertex 3.03109 -1.75 3
      vertex 3.03109 -1.75 0
    endloop
  endfacet
  facet normal 0.130526 -0.991445 0
    outer loop
      vertex 0 -3.5 0
      vertex 0.905867 -3.38074 3
      vertex 0 -3.5 3
    endloop
  endfacet
  facet normal 0.130526 -0.991445 0
    outer loop
      vertex 0.905867 -3.38074 3
      vertex 0 -3.5 0
      vertex 0.905867 -3.38074 0
    endloop
  endfacet
  facet normal 0.793353 -0.608762 0
    outer loop
      vertex 2.47487 -2.47487 3
      vertex 3.03109 -1.75 0
      vertex 3.03109 -1.75 3
    endloop
  endfacet
  facet normal 0.793353 -0.608762 0
    outer loop
      vertex 3.03109 -1.75 0
      vertex 2.47487 -2.47487 3
      vertex 2.47487 -2.47487 0
    endloop
  endfacet
  facet normal 0.382683 -0.92388 0
    outer loop
      vertex 0.905867 -3.38074 0
      vertex 1.75 -3.03109 3
      vertex 0.905867 -3.38074 3
    endloop
  endfacet
  facet normal 0.382683 -0.92388 0
    outer loop
      vertex 1.75 -3.03109 3
      vertex 0.905867 -3.38074 0
      vertex 1.75 -3.03109 0
    endloop
  endfacet
  facet normal -0.130526 -0.991445 0
    outer loop
      vertex -0.905867 -3.38074 0
      vertex 0 -3.5 3
      vertex -0.905867 -3.38074 3
    endloop
  endfacet
  facet normal -0.130526 -0.991445 -0
    outer loop
      vertex 0 -3.5 3
      vertex -0.905867 -3.38074 0
      vertex 0 -3.5 0
    endloop
  endfacet
  facet normal -0.923879 -0.382684 0
    outer loop
      vertex -3.03109 -1.75 0
      vertex -3.38074 -0.905867 3
      vertex -3.38074 -0.905867 0
    endloop
  endfacet
  facet normal -0.923879 -0.382684 0
    outer loop
      vertex -3.38074 -0.905867 3
      vertex -3.03109 -1.75 0
      vertex -3.03109 -1.75 3
    endloop
  endfacet
  facet normal 0.923879 0.382684 0
    outer loop
      vertex 3.38074 0.905867 3
      vertex 3.03109 1.75 0
      vertex 3.03109 1.75 3
    endloop
  endfacet
  facet normal 0.923879 0.382684 0
    outer loop
      vertex 3.03109 1.75 0
      vertex 3.38074 0.905867 3
      vertex 3.38074 0.905867 0
    endloop
  endfacet
  facet normal 0.991445 -0.130526 0
    outer loop
      vertex 3.38074 -0.905867 3
      vertex 3.5 0 0
      vertex 3.5 0 3
    endloop
  endfacet
  facet normal 0.991445 -0.130526 0
    outer loop
      vertex 3.5 0 0
      vertex 3.38074 -0.905867 3
      vertex 3.38074 -0.905867 0
    endloop
  endfacet
  facet normal -0.793354 -0.608761 0
    outer loop
      vertex -2.47487 -2.47487 0
      vertex -3.03109 -1.75 3
      vertex -3.03109 -1.75 0
    endloop
  endfacet
  facet normal -0.793354 -0.608761 0
    outer loop
      vertex -3.03109 -1.75 3
      vertex -2.47487 -2.47487 0
      vertex -2.47487 -2.47487 3
    endloop
  endfacet
endsolid OpenSCAD_Model
