solid OpenSCAD_Model
  facet normal -1 0 0
    outer loop
      vertex 1.5 1.5 0
      vertex 1.5 40.9 3
      vertex 1.5 40.9 0
    endloop
  endfacet
  facet normal -1 -0 0
    outer loop
      vertex 1.5 40.9 3
      vertex 1.5 1.5 0
      vertex 1.5 1.5 3
    endloop
  endfacet
  facet normal 0 0 1
    outer loop
      vertex 24.6 18 3
      vertex 32.1 40.9 3
      vertex 24.6 31 3
    endloop
  endfacet
  facet normal 0 0 1
    outer loop
      vertex 32.1 40.9 3
      vertex 9 31 3
      vertex 24.6 31 3
    endloop
  endfacet
  facet normal 0 0 1
    outer loop
      vertex 9 31 3
      vertex 1.5 40.9 3
      vertex 9 18 3
    endloop
  endfacet
  facet normal -0 0 1
    outer loop
      vertex 1.5 40.9 3
      vertex 9 31 3
      vertex 32.1 40.9 3
    endloop
  endfacet
  facet normal 0 0 1
    outer loop
      vertex 32.1 40.9 3
      vertex 24.6 18 3
      vertex 32.1 1.5 3
    endloop
  endfacet
  facet normal -0 0 1
    outer loop
      vertex 9 18 3
      vertex 32.1 1.5 3
      vertex 24.6 18 3
    endloop
  endfacet
  facet normal 0 0 1
    outer loop
      vertex 9 18 3
      vertex 1.5 1.5 3
      vertex 32.1 1.5 3
    endloop
  endfacet
  facet normal 0 0 1
    outer loop
      vertex 1.5 1.5 3
      vertex 9 18 3
      vertex 1.5 40.9 3
    endloop
  endfacet
  facet normal 1 -0 0
    outer loop
      vertex 32.1 1.5 3
      vertex 32.1 40.9 0
      vertex 32.1 40.9 3
    endloop
  endfacet
  facet normal 1 0 0
    outer loop
      vertex 32.1 40.9 0
      vertex 32.1 1.5 3
      vertex 32.1 1.5 0
    endloop
  endfacet
  facet normal 0 0 -1
    outer loop
      vertex 32.1 1.5 0
      vertex 24.6 18 0
      vertex 32.1 40.9 0
    endloop
  endfacet
  facet normal 0 0 -1
    outer loop
      vertex 32.1 1.5 0
      vertex 9 18 0
      vertex 24.6 18 0
    endloop
  endfacet
  facet normal 0 0 -1
    outer loop
      vertex 1.5 40.9 0
      vertex 9 18 0
      vertex 1.5 1.5 0
    endloop
  endfacet
  facet normal 0 0 -1
    outer loop
      vertex 1.5 1.5 0
      vertex 9 18 0
      vertex 32.1 1.5 0
    endloop
  endfacet
  facet normal 0 0 -1
    outer loop
      vertex 24.6 31 0
      vertex 32.1 40.9 0
      vertex 24.6 18 0
    endloop
  endfacet
  facet normal 0 0 -1
    outer loop
      vertex 9 31 0
      vertex 32.1 40.9 0
      vertex 24.6 31 0
    endloop
  endfacet
  facet normal 0 0 -1
    outer loop
      vertex 9 31 0
      vertex 1.5 40.9 0
      vertex 32.1 40.9 0
    endloop
  endfacet
  facet normal 0 0 -1
    outer loop
      vertex 9 18 0
      vertex 1.5 40.9 0
      vertex 9 31 0
    endloop
  endfacet
  facet normal 0 -1 0
    outer loop
      vertex 1.5 1.5 0
      vertex 32.1 1.5 3
      vertex 1.5 1.5 3
    endloop
  endfacet
  facet normal 0 -1 -0
    outer loop
      vertex 32.1 1.5 3
      vertex 1.5 1.5 0
      vertex 32.1 1.5 0
    endloop
  endfacet
  facet normal 0 1 -0
    outer loop
      vertex 32.1 40.9 0
      vertex 1.5 40.9 3
      vertex 32.1 40.9 3
    endloop
  endfacet
  facet normal 0 1 0
    outer loop
      vertex 1.5 40.9 3
      vertex 32.1 40.9 0
      vertex 1.5 40.9 0
    endloop
  endfacet
  facet normal 1 -0 0
    outer loop
      vertex 9 18 3
      vertex 9 31 0
      vertex 9 31 3
    endloop
  endfacet
  facet normal 1 0 0
    outer loop
      vertex 9 31 0
      vertex 9 18 3
      vertex 9 18 0
    endloop
  endfacet
  facet normal -1 0 0
    outer loop
      vertex 24.6 18 0
      vertex 24.6 31 3
      vertex 24.6 31 0
    endloop
  endfacet
  facet normal -1 -0 0
    outer loop
      vertex 24.6 31 3
      vertex 24.6 18 0
      vertex 24.6 18 3
    endloop
  endfacet
  facet normal 0 -1 0
    outer loop
      vertex 9 31 0
      vertex 24.6 31 3
      vertex 9 31 3
    endloop
  endfacet
  facet normal 0 -1 -0
    outer loop
      vertex 24.6 31 3
      vertex 9 31 0
      vertex 24.6 31 0
    endloop
  endfacet
  facet normal 0 1 -0
    outer loop
      vertex 24.6 18 0
      vertex 9 18 3
      vertex 24.6 18 3
    endloop
  endfacet
  facet normal 0 1 0
    outer loop
      vertex 9 18 3
      vertex 24.6 18 0
      vertex 9 18 0
    endloop
  endfacet
endsolid OpenSCAD_Model
