  0
SECTION
  2
HEADER
  9
$ACADVER
  1
AC1024
  9
$ACADMAINTVER
 70
6
  9
$DWGCODEPAGE
  3
ANSI_1252
  9
$LASTSAVEDBY
  1
ezdxf
  9
$INSBASE
 10
0.0
 20
0.0
 30
0.0
  9
$EXTMIN
 10
1e+20
 20
1e+20
 30
1e+20
  9
$EXTMAX
 10
-1e+20
 20
-1e+20
 30
-1e+20
  9
$LIMMIN
 10
0.0
 20
0.0
  9
$LIMMAX
 10
420.0
 20
297.0
  9
$ORTHOMODE
 70
0
  9
$REGENMODE
 70
1
  9
$FILLMODE
 70
1
  9
$QTEXTMODE
 70
0
  9
$MIRRTEXT
 70
1
  9
$LTSCALE
 40
1.0
  9
$ATTMODE
 70
1
  9
$TEXTSIZE
 40
2.5
  9
$TRACEWID
 40
1.0
  9
$TEXTSTYLE
  7
Standard
  9
$CLAYER
  8
0
  9
$CELTYPE
  6
ByLayer
  9
$CECOLOR
 62
256
  9
$CELTSCALE
 40
1.0
  9
$DISPSILH
 70
0
  9
$DIMSCALE
 40
1.0
  9
$DIMASZ
 40
2.5
  9
$DIMEXO
 40
0.625
  9
$DIMDLI
 40
3.75
  9
$DIMRND
 40
0.0
  9
$DIMDLE
 40
0.0
  9
$DIMEXE
 40
1.25
  9
$DIMTP
 40
0.0
  9
$DIMTM
 40
0.0
  9
$DIMTXT
 40
2.5
  9
$DIMCEN
 40
2.5
  9
$DIMTSZ
 40
0.0
  9
$DIMTOL
 70
0
  9
$DIMLIM
 70
0
  9
$DIMTIH
 70
0
  9
$DIMTOH
 70
0
  9
$DIMSE1
 70
0
  9
$DIMSE2
 70
0
  9
$DIMTAD
 70
1
  9
$DIMZIN
 70
8
  9
$DIMBLK
  1

  9
$DIMASO
 70
1
  9
$DIMSHO
 70
1
  9
$DIMPOST
  1

  9
$DIMAPOST
  1

  9
$DIMALT
 70
0
  9
$DIMALTD
 70
3
  9
$DIMALTF
 40
0.03937007874
  9
$DIMLFAC
 40
1.0
  9
$DIMTOFL
 70
1
  9
$DIMTVP
 40
0.0
  9
$DIMTIX
 70
0
  9
$DIMSOXD
 70
0
  9
$DIMSAH
 70
0
  9
$DIMBLK1
  1

  9
$DIMBLK2
  1

  9
$DIMSTYLE
  2
ISO-25
  9
$DIMCLRD
 70
0
  9
$DIMCLRE
 70
0
  9
$DIMCLRT
 70
0
  9
$DIMTFAC
 40
1.0
  9
$DIMGAP
 40
0.625
  9
$DIMJUST
 70
0
  9
$DIMSD1
 70
0
  9
$DIMSD2
 70
0
  9
$DIMTOLJ
 70
0
  9
$DIMTZIN
 70
8
  9
$DIMALTZ
 70
0
  9
$DIMALTTZ
 70
0
  9
$DIMUPT
 70
0
  9
$DIMDEC
 70
2
  9
$DIMTDEC
 70
2
  9
$DIMALTU
 70
2
  9
$DIMALTTD
 70
3
  9
$DIMTXSTY
  7
Standard
  9
$DIMAUNIT
 70
0
  9
$DIMADEC
 70
0
  9
$DIMALTRND
 40
0.0
  9
$DIMAZIN
 70
0
  9
$DIMDSEP
 70
44
  9
$DIMATFIT
 70
3
  9
$DIMFRAC
 70
0
  9
$DIMLDRBLK
  1

  9
$DIMLUNIT
 70
2
  9
$DIMLWD
 70
-2
  9
$DIMLWE
 70
-2
  9
$DIMTMOVE
 70
0
  9
$DIMFXL
 40
1.0
  9
$DIMFXLON
 70
0
  9
$DIMJOGANG
 40
0.785398163397
  9
$DIMTFILL
 70
0
  9
$DIMTFILLCLR
 70
0
  9
$DIMARCSYM
 70
0
  9
$DIMLTYPE
  6

  9
$DIMLTEX1
  6

  9
$DIMLTEX2
  6

  9
$DIMTXTDIRECTION
 70
0
  9
$LUNITS
 70
2
  9
$LUPREC
 70
4
  9
$SKETCHINC
 40
1.0
  9
$FILLETRAD
 40
10.0
  9
$AUNITS
 70
0
  9
$AUPREC
 70
2
  9
$MENU
  1
.
  9
$ELEVATION
 40
0.0
  9
$PELEVATION
 40
0.0
  9
$THICKNESS
 40
0.0
  9
$LIMCHECK
 70
0
  9
$CHAMFERA
 40
0.0
  9
$CHAMFERB
 40
0.0
  9
$CHAMFERC
 40
0.0
  9
$CHAMFERD
 40
0.0
  9
$SKPOLY
 70
0
  9
$TDCREATE
 40
2460647.7480439814
  9
$TDUCREATE
 40
2458532.153996898
  9
$TDUPDATE
 40
2460647.7480439814
  9
$TDUUPDATE
 40
2458532.1544311
  9
$TDINDWG
 40
0.0
  9
$TDUSRTIMER
 40
0.0
  9
$USRTIMER
 70
1
  9
$ANGBASE
 50
0.0
  9
$ANGDIR
 70
0
  9
$PDMODE
 70
0
  9
$PDSIZE
 40
0.0
  9
$PLINEWID
 40
0.0
  9
$SPLFRAME
 70
0
  9
$SPLINETYPE
 70
6
  9
$SPLINESEGS
 70
8
  9
$HANDSEED
  5
65
  9
$SURFTAB1
 70
6
  9
$SURFTAB2
 70
6
  9
$SURFTYPE
 70
6
  9
$SURFU
 70
6
  9
$SURFV
 70
6
  9
$UCSBASE
  2

  9
$UCSNAME
  2

  9
$UCSORG
 10
0.0
 20
0.0
 30
0.0
  9
$UCSXDIR
 10
1.0
 20
0.0
 30
0.0
  9
$UCSYDIR
 10
0.0
 20
1.0
 30
0.0
  9
$UCSORTHOREF
  2

  9
$UCSORTHOVIEW
 70
0
  9
$UCSORGTOP
 10
0.0
 20
0.0
 30
0.0
  9
$UCSORGBOTTOM
 10
0.0
 20
0.0
 30
0.0
  9
$UCSORGLEFT
 10
0.0
 20
0.0
 30
0.0
  9
$UCSORGRIGHT
 10
0.0
 20
0.0
 30
0.0
  9
$UCSORGFRONT
 10
0.0
 20
0.0
 30
0.0
  9
$UCSORGBACK
 10
0.0
 20
0.0
 30
0.0
  9
$PUCSBASE
  2

  9
$PUCSNAME
  2

  9
$PUCSORG
 10
0.0
 20
0.0
 30
0.0
  9
$PUCSXDIR
 10
1.0
 20
0.0
 30
0.0
  9
$PUCSYDIR
 10
0.0
 20
1.0
 30
0.0
  9
$PUCSORTHOREF
  2

  9
$PUCSORTHOVIEW
 70
0
  9
$PUCSORGTOP
 10
0.0
 20
0.0
 30
0.0
  9
$PUCSORGBOTTOM
 10
0.0
 20
0.0
 30
0.0
  9
$PUCSORGLEFT
 10
0.0
 20
0.0
 30
0.0
  9
$PUCSORGRIGHT
 10
0.0
 20
0.0
 30
0.0
  9
$PUCSORGFRONT
 10
0.0
 20
0.0
 30
0.0
  9
$PUCSORGBACK
 10
0.0
 20
0.0
 30
0.0
  9
$USERI1
 70
0
  9
$USERI2
 70
0
  9
$USERI3
 70
0
  9
$USERI4
 70
0
  9
$USERI5
 70
0
  9
$USERR1
 40
0.0
  9
$USERR2
 40
0.0
  9
$USERR3
 40
0.0
  9
$USERR4
 40
0.0
  9
$USERR5
 40
0.0
  9
$WORLDVIEW
 70
1
  9
$SHADEDGE
 70
3
  9
$SHADEDIF
 70
70
  9
$TILEMODE
 70
1
  9
$MAXACTVP
 70
64
  9
$PINSBASE
 10
0.0
 20
0.0
 30
0.0
  9
$PLIMCHECK
 70
0
  9
$PEXTMIN
 10
1e+20
 20
1e+20
 30
1e+20
  9
$PEXTMAX
 10
-1e+20
 20
-1e+20
 30
-1e+20
  9
$PLIMMIN
 10
0.0
 20
0.0
  9
$PLIMMAX
 10
420.0
 20
297.0
  9
$UNITMODE
 70
0
  9
$VISRETAIN
 70
1
  9
$PLINEGEN
 70
0
  9
$PSLTSCALE
 70
1
  9
$TREEDEPTH
 70
3020
  9
$CMLSTYLE
  2
Standard
  9
$CMLJUST
 70
0
  9
$CMLSCALE
 40
20.0
  9
$PROXYGRAPHICS
 70
1
  9
$MEASUREMENT
 70
1
  9
$CELWEIGHT
370
-1
  9
$ENDCAPS
280
0
  9
$JOINSTYLE
280
0
  9
$LWDISPLAY
290
0
  9
$INSUNITS
 70
4
  9
$HYPERLINKBASE
  1

  9
$STYLESHEET
  1

  9
$XEDIT
290
1
  9
$CEPSNTYPE
380
0
  9
$PSTYLEMODE
290
1
  9
$FINGERPRINTGUID
  2
{27AF5E4D-CCE5-4438-A5E7-EA7FBCFAA24E}
  9
$VERSIONGUID
  2
{628E2A69-CED9-4595-9911-EA60770469B3}
  9
$EXTNAMES
290
1
  9
$PSVPSCALE
 40
0.0
  9
$OLESTARTUP
290
0
  9
$SORTENTS
280
127
  9
$INDEXCTL
280
0
  9
$HIDETEXT
280
1
  9
$XCLIPFRAME
280
1
  9
$HALOGAP
280
0
  9
$OBSCOLOR
 70
257
  9
$OBSLTYPE
280
0
  9
$INTERSECTIONDISPLAY
280
0
  9
$INTERSECTIONCOLOR
 70
257
  9
$DIMASSOC
280
2
  9
$PROJECTNAME
  1

  9
$CAMERADISPLAY
290
0
  9
$LENSLENGTH
 40
50.0
  9
$CAMERAHEIGHT
 40
0.0
  9
$STEPSPERSEC
 40
24.0
  9
$STEPSIZE
 40
100.0
  9
$3DDWFPREC
 40
2.0
  9
$PSOLWIDTH
 40
0.005
  9
$PSOLHEIGHT
 40
0.08
  9
$LOFTANG1
 40
1.570796326795
  9
$LOFTANG2
 40
1.570796326795
  9
$LOFTMAG1
 40
0.0
  9
$LOFTMAG2
 40
0.0
  9
$LOFTPARAM
 70
7
  9
$LOFTNORMALS
280
1
  9
$LATITUDE
 40
37.795
  9
$LONGITUDE
 40
-122.394
  9
$NORTHDIRECTION
 40
0.0
  9
$TIMEZONE
 70
-8000
  9
$LIGHTGLYPHDISPLAY
280
1
  9
$TILEMODELIGHTSYNCH
280
1
  9
$CMATERIAL
347
20
  9
$SOLIDHIST
280
0
  9
$SHOWHIST
280
1
  9
$DWFFRAME
280
2
  9
$DGNFRAME
280
2
  9
$REALWORLDSCALE
290
1
  9
$INTERFERECOLOR
 62
256
  9
$CSHADOW
280
0
  9
$SHADOWPLANELOCATION
 40
0.0
  0
ENDSEC
  0
SECTION
  2
CLASSES
  0
CLASS
  1
ACDBDICTIONARYWDFLT
  2
AcDbDictionaryWithDefault
  3
ObjectDBX Classes
 90
0
 91
0
280
0
281
0
  0
CLASS
  1
SUN
  2
AcDbSun
  3
SCENEOE
 90
1153
 91
0
280
0
281
0
  0
CLASS
  1
VISUALSTYLE
  2
AcDbVisualStyle
  3
ObjectDBX Classes
 90
4095
 91
0
280
0
281
0
  0
CLASS
  1
MATERIAL
  2
AcDbMaterial
  3
ObjectDBX Classes
 90
1153
 91
0
280
0
281
0
  0
CLASS
  1
SCALE
  2
AcDbScale
  3
ObjectDBX Classes
 90
1153
 91
0
280
0
281
0
  0
CLASS
  1
TABLESTYLE
  2
AcDbTableStyle
  3
ObjectDBX Classes
 90
4095
 91
0
280
0
281
0
  0
CLASS
  1
MLEADERSTYLE
  2
AcDbMLeaderStyle
  3
ACDB_MLEADERSTYLE_CLASS
 90
4095
 91
0
280
0
281
0
  0
CLASS
  1
DICTIONARYVAR
  2
AcDbDictionaryVar
  3
ObjectDBX Classes
 90
0
 91
0
280
0
281
0
  0
CLASS
  1
CELLSTYLEMAP
  2
AcDbCellStyleMap
  3
ObjectDBX Classes
 90
1152
 91
0
280
0
281
0
  0
CLASS
  1
MENTALRAYRENDERSETTINGS
  2
AcDbMentalRayRenderSettings
  3
SCENEOE
 90
1024
 91
0
280
0
281
0
  0
CLASS
  1
ACDBDETAILVIEWSTYLE
  2
AcDbDetailViewStyle
  3
ObjectDBX Classes
 90
1025
 91
0
280
0
281
0
  0
CLASS
  1
ACDBSECTIONVIEWSTYLE
  2
AcDbSectionViewStyle
  3
ObjectDBX Classes
 90
1025
 91
0
280
0
281
0
  0
CLASS
  1
RASTERVARIABLES
  2
AcDbRasterVariables
  3
ISM
 90
0
 91
0
280
0
281
0
  0
CLASS
  1
LAYOUT
  2
AcDbLayout
  3
ObjectDBX Classes
 90
0
 91
0
280
0
281
0
  0
CLASS
  1
ACDBPLACEHOLDER
  2
AcDbPlaceHolder
  3
ObjectDBX Classes
 90
0
 91
0
280
0
281
0
  0
ENDSEC
  0
SECTION
  2
TABLES
  0
TABLE
  2
VPORT
  5
8
330
0
100
AcDbSymbolTable
 70
1
  0
VPORT
  5
23
330
8
100
AcDbSymbolTableRecord
100
AcDbViewportTableRecord
  2
*Active
 70
0
 10
0.0
 20
0.0
 11
1.0
 21
1.0
 12
0.0
 22
0.0
 13
0.0
 23
0.0
 14
0.5
 24
0.5
 15
0.5
 25
0.5
 16
0.0
 26
0.0
 36
1.0
 17
0.0
 27
0.0
 37
0.0
 40
1000.0
 41
1.34
 42
50.0
 43
0.0
 44
0.0
 50
0.0
 51
0.0
 71
0
 72
1000
 73
1
 74
3
 75
0
 76
0
 77
0
 78
0
281
0
 65
0
146
0.0
  0
ENDTAB
  0
TABLE
  2
LTYPE
  5
2
330
0
100
AcDbSymbolTable
 70
3
  0
LTYPE
  5
24
330
2
100
AcDbSymbolTableRecord
100
AcDbLinetypeTableRecord
  2
ByBlock
 70
0
  3

 72
65
 73
0
 40
0.0
  0
LTYPE
  5
25
330
2
100
AcDbSymbolTableRecord
100
AcDbLinetypeTableRecord
  2
ByLayer
 70
0
  3

 72
65
 73
0
 40
0.0
  0
LTYPE
  5
26
330
2
100
AcDbSymbolTableRecord
100
AcDbLinetypeTableRecord
  2
Continuous
 70
0
  3

 72
65
 73
0
 40
0.0
  0
ENDTAB
  0
TABLE
  2
LAYER
  5
1
330
0
100
AcDbSymbolTable
 70
4
  0
LAYER
  5
27
330
1
100
AcDbSymbolTableRecord
100
AcDbLayerTableRecord
  2
0
 70
0
 62
7
  6
Continuous
370
-3
390
13
347
21
  0
LAYER
  5
28
330
1
100
AcDbSymbolTableRecord
100
AcDbLayerTableRecord
  2
Defpoints
 70
0
 62
7
  6
Continuous
290
0
370
-3
390
13
347
21
  0
LAYER
  5
2F
330
1
100
AcDbSymbolTableRecord
100
AcDbLayerTableRecord
  2
text
 70
0
 62
7
  6
Continuous
370
-3
390
13
347
21
  0
LAYER
  5
30
330
1
100
AcDbSymbolTableRecord
100
AcDbLayerTableRecord
  2
default
 70
0
 62
7
  6
Continuous
370
-3
390
13
347
21
  0
ENDTAB
  0
TABLE
  2
STYLE
  5
5
330
0
100
AcDbSymbolTable
 70
1
  0
STYLE
  5
29
330
5
100
AcDbSymbolTableRecord
100
AcDbTextStyleTableRecord
  2
Standard
 70
0
 40
0.0
 41
1.0
 50
0.0
 71
0
 42
2.5
  3
txt
  4

  0
ENDTAB
  0
TABLE
  2
VIEW
  5
7
330
0
100
AcDbSymbolTable
 70
0
  0
ENDTAB
  0
TABLE
  2
UCS
  5
6
330
0
100
AcDbSymbolTable
 70
0
  0
ENDTAB
  0
TABLE
  2
APPID
  5
3
330
0
100
AcDbSymbolTable
 70
3
  0
APPID
  5
2A
330
3
100
AcDbSymbolTableRecord
100
AcDbRegAppTableRecord
  2
ACAD
 70
0
  0
APPID
  5
62
330
3
100
AcDbSymbolTableRecord
100
AcDbRegAppTableRecord
  2
HATCHBACKGROUNDCOLOR
 70
0
  0
APPID
  5
63
330
3
100
AcDbSymbolTableRecord
100
AcDbRegAppTableRecord
  2
EZDXF
 70
0
  0
ENDTAB
  0
TABLE
  2
DIMSTYLE
  5
4
330
0
100
AcDbSymbolTable
 70
1
100
AcDbDimStyleTable
  0
DIMSTYLE
105
2B
330
4
100
AcDbSymbolTableRecord
100
AcDbDimStyleTableRecord
  2
Standard
 70
0
 40
1.0
 41
2.5
 42
0.625
 43
3.75
 44
1.25
 45
0.0
 46
0.0
 47
0.0
 48
0.0
 49
2.5
140
2.5
141
2.5
142
0.0
143
0.03937007874
144
1.0
145
0.0
146
1.0
147
0.625
148
0.0
 69
0
 70
0
 71
0
 72
0
 73
0
 74
0
 75
0
 76
0
 77
1
 78
8
 79
3
170
0
171
3
172
1
173
0
174
0
175
0
176
0
177
0
178
0
179
2
271
2
272
2
273
2
274
3
275
0
276
0
277
2
278
44
279
0
280
0
281
0
282
0
283
0
284
8
285
0
286
0
288
0
289
3
290
0
371
-2
372
-2
  0
ENDTAB
  0
TABLE
  2
BLOCK_RECORD
  5
9
330
0
100
AcDbSymbolTable
 70
2
  0
BLOCK_RECORD
  5
17
330
9
100
AcDbSymbolTableRecord
100
AcDbBlockTableRecord
  2
*Model_Space
340
1A
 70
0
280
1
281
0
  0
BLOCK_RECORD
  5
1B
330
9
100
AcDbSymbolTableRecord
100
AcDbBlockTableRecord
  2
*Paper_Space
340
1E
 70
0
280
1
281
0
  0
ENDTAB
  0
ENDSEC
  0
SECTION
  2
BLOCKS
  0
BLOCK
  5
18
330
17
100
AcDbEntity
  8
0
100
AcDbBlockBegin
  2
*Model_Space
 70
0
 10
0.0
 20
0.0
 30
0.0
  3
*Model_Space
  1

  0
ENDBLK
  5
19
330
17
100
AcDbEntity
  8
0
100
AcDbBlockEnd
  0
BLOCK
  5
1C
330
1B
100
AcDbEntity
  8
0
100
AcDbBlockBegin
  2
*Paper_Space
 70
0
 10
0.0
 20
0.0
 30
0.0
  3
*Paper_Space
  1

  0
ENDBLK
  5
1D
330
1B
100
AcDbEntity
  8
0
100
AcDbBlockEnd
  0
ENDSEC
  0
SECTION
  2
ENTITIES
  0
LWPOLYLINE
  5
31
330
17
100
AcDbEntity
  8
default
100
AcDbPolyline
 90
5
 70
0
 10
0.0
 20
0.0
 10
0.0
 20
22.6
 10
105.60000000000001
 20
22.6
 10
105.60000000000001
 20
0.0
 10
0.0
 20
0.0
  0
LWPOLYLINE
  5
32
330
17
100
AcDbEntity
  8
default
100
AcDbPolyline
 90
65
 70
0
 10
22.803335459655294
 20
14.08124074727339
 10
22.50567071258502
 20
14.577864374815654
 10
22.16076167484015
 20
15.042920376565512
 10
21.77193000900063
 20
15.471930009000634
 10
21.34292037656551
 20
15.860761674840148
 10
20.87786437481565
 20
16.205670712585018
 10
20.381240747273388
 20
16.503335459655297
 10
19.857832250954033
 20
16.750889241816594
 10
19.312679595801328
 20
16.945947980820034
 10
18.751032899895158
 20
17.08663315437906
 10
18.178301127944405
 20
17.17158988736596
 10
17.6
 20
17.200000000000003
 10
17.021698872055595
 20
17.17158988736596
 10
16.44896710010484
 20
17.086633154379058
 10
15.887320404198674
 20
16.945947980820034
 10
15.342167749045968
 20
16.75088924181659
 10
14.818759252726613
 20
16.503335459655297
 10
14.322135625184348
 20
16.205670712585018
 10
13.85707962343449
 20
15.860761674840148
 10
13.428069990999369
 20
15.47193000900063
 10
13.039238325159852
 20
15.042920376565508
 10
12.694329287414984
 20
14.577864374815652
 10
12.396664540344705
 20
14.081240747273387
 10
12.149110758183408
 20
13.55783225095403
 10
11.954052019179969
 20
13.012679595801327
 10
11.81336684562094
 20
12.451032899895157
 10
11.72841011263404
 20
11.878301127944408
 10
11.700000000000001
 20
11.3
 10
11.728410112634041
 20
10.721698872055592
 10
11.81336684562094
 20
10.148967100104842
 10
11.954052019179969
 20
9.587320404198673
 10
12.14911075818341
 20
9.04216774904597
 10
12.396664540344707
 20
8.518759252726614
 10
12.694329287414984
 20
8.022135625184347
 10
13.039238325159854
 20
7.5570796234344915
 10
13.428069990999372
 20
7.12806999099937
 10
13.857079623434494
 20
6.739238325159851
 10
14.32213562518435
 20
6.394329287414983
 10
14.818759252726615
 20
6.0966645403447055
 10
15.342167749045972
 20
5.849110758183409
 10
15.887320404198675
 20
5.654052019179968
 10
16.448967100104845
 20
5.513366845620941
 10
17.021698872055595
 20
5.4284101126340385
 10
17.6
 20
5.4
 10
18.178301127944408
 20
5.428410112634039
 10
18.751032899895158
 20
5.513366845620941
 10
19.312679595801328
 20
5.654052019179968
 10
19.857832250954033
 20
5.849110758183409
 10
20.381240747273388
 20
6.096664540344706
 10
20.877864374815655
 20
6.394329287414983
 10
21.34292037656551
 20
6.739238325159852
 10
21.771930009000634
 20
7.1280699909993706
 10
22.16076167484015
 20
7.5570796234344915
 10
22.50567071258502
 20
8.022135625184347
 10
22.803335459655298
 20
8.518759252726614
 10
23.05088924181659
 20
9.042167749045971
 10
23.245947980820034
 20
9.587320404198673
 10
23.386633154379062
 20
10.148967100104844
 10
23.471589887365965
 20
10.721698872055594
 10
23.5
 20
11.3
 10
23.471589887365965
 20
11.878301127944408
 10
23.386633154379062
 20
12.45103289989516
 10
23.245947980820034
 20
13.01267959580133
 10
23.05088924181659
 20
13.557832250954034
 10
22.803335459655294
 20
14.08124074727339
  0
LWPOLYLINE
  5
33
330
17
100
AcDbEntity
  8
default
100
AcDbPolyline
 90
65
 70
0
 10
40.74327719506772
 20
13.596100594190542
 10
40.49152758609013
 20
14.128380420955988
 10
40.18881767381527
 20
14.633421398117614
 10
39.838062720176424
 20
15.106359704981877
 10
39.44264068711929
 20
15.542640687119286
 10
39.006359704981875
 20
15.938062720176422
 10
38.53342139811761
 20
16.288817673815274
 10
38.02838042095599
 20
16.59152758609013
 10
37.496100594190544
 20
16.84327719506772
 10
36.941708063526775
 20
17.041642014393254
 10
36.37054193209677
 20
17.184711682419383
 10
35.78810284197736
 20
17.271108360033182
 10
35.2
 20
17.3
 10
34.61189715802264
 20
17.271108360033182
 10
34.02945806790323
 20
17.184711682419383
 10
33.45829193647323
 20
17.041642014393254
 10
32.90389940580946
 20
16.84327719506772
 10
32.371619579044015
 20
16.59152758609013
 10
31.866578601882388
 20
16.288817673815274
 10
31.393640295018127
 20
15.93806272017642
 10
30.95735931288072
 20
15.542640687119285
 10
30.56193727982358
 20
15.106359704981873
 10
30.21118232618473
 20
14.633421398117612
 10
29.908472413909873
 20
14.128380420955986
 10
29.656722804932283
 20
13.596100594190538
 10
29.45835798560675
 20
13.041708063526773
 10
29.31528831758062
 20
12.47054193209677
 10
29.22889163996682
 20
11.888102841977364
 10
29.200000000000003
 20
11.3
 10
29.22889163996682
 20
10.711897158022635
 10
29.31528831758062
 20
10.12945806790323
 10
29.45835798560675
 20
9.558291936473227
 10
29.656722804932283
 20
9.003899405809461
 10
29.908472413909873
 20
8.471619579044013
 10
30.21118232618473
 20
7.966578601882388
 10
30.56193727982358
 20
7.493640295018128
 10
30.95735931288072
 20
7.057359312880715
 10
31.39364029501813
 20
6.661937279823578
 10
31.86657860188239
 20
6.311182326184729
 10
32.371619579044015
 20
6.00847241390987
 10
32.90389940580946
 20
5.756722804932281
 10
33.45829193647323
 20
5.558357985606747
 10
34.029458067903235
 20
5.415288317580618
 10
34.611897158022636
 20
5.32889163996682
 10
35.2
 20
5.300000000000001
 10
35.78810284197737
 20
5.32889163996682
 10
36.37054193209677
 20
5.415288317580618
 10
36.941708063526775
 20
5.558357985606747
 10
37.496100594190544
 20
5.756722804932281
 10
38.02838042095599
 20
6.008472413909871
 10
38.53342139811762
 20
6.3111823261847295
 10
39.006359704981875
 20
6.6619372798235785
 10
39.44264068711929
 20
7.057359312880716
 10
39.838062720176424
 20
7.493640295018128
 10
40.18881767381527
 20
7.966578601882388
 10
40.491527586090136
 20
8.471619579044015
 10
40.74327719506772
 20
9.003899405809463
 10
40.94164201439325
 20
9.558291936473227
 10
41.08471168241938
 20
10.129458067903231
 10
41.17110836003319
 20
10.711897158022637
 10
41.2
 20
11.3
 10
41.17110836003319
 20
11.888102841977364
 10
41.08471168241938
 20
12.470541932096772
 10
40.94164201439325
 20
13.041708063526777
 10
40.74327719506772
 20
13.596100594190542
  0
LWPOLYLINE
  5
34
330
17
100
AcDbEntity
  8
default
100
AcDbPolyline
 90
65
 70
0
 10
58.63733604796648
 20
13.070736531252223
 10
58.435665148318854
 20
13.634368937427052
 10
58.17971971252497
 20
14.175520094638589
 10
57.87196463504553
 20
14.688978421419574
 10
57.515363765512696
 20
15.169799033398242
 10
57.113351365237946
 20
15.613351365237941
 10
56.66979903339824
 20
16.015363765512696
 10
56.18897842141958
 20
16.37196463504553
 10
55.67552009463859
 20
16.679719712524967
 10
55.134368937427055
 20
16.935665148318847
 10
54.57073653125222
 20
17.137336047966475
 10
53.99005096429838
 20
17.282790210459705
 10
53.39790455601032
 20
17.370626832700403
 10
52.800000000000004
 20
17.4
 10
52.202095443989684
 20
17.370626832700403
 10
51.60994903570162
 20
17.282790210459705
 10
51.029263468747786
 20
17.137336047966475
 10
50.46563106257295
 20
16.935665148318847
 10
49.924479905361416
 20
16.679719712524964
 10
49.41102157858043
 20
16.371964635045526
 10
48.93020096660177
 20
16.015363765512696
 10
48.48664863476206
 20
15.61335136523794
 10
48.084636234487306
 20
15.169799033398236
 10
47.72803536495448
 20
14.688978421419574
 10
47.42028028747504
 20
14.175520094638586
 10
47.164334851681154
 20
13.634368937427048
 10
46.96266395203353
 20
13.07073653125222
 10
46.8172097895403
 20
12.490050964298383
 10
46.729373167299606
 20
11.897904556010321
 10
46.7
 20
11.3
 10
46.729373167299606
 20
10.70209544398968
 10
46.8172097895403
 20
10.109949035701616
 10
46.96266395203353
 20
9.52926346874778
 10
47.164334851681154
 20
8.965631062572953
 10
47.42028028747504
 20
8.424479905361414
 10
47.72803536495448
 20
7.911021578580428
 10
48.084636234487306
 20
7.430200966601763
 10
48.48664863476206
 20
6.98664863476206
 10
48.93020096660177
 20
6.584636234487305
 10
49.41102157858043
 20
6.228035364954474
 10
49.924479905361416
 20
5.920280287475035
 10
50.46563106257296
 20
5.664334851681152
 10
51.029263468747786
 20
5.462663952033527
 10
51.609949035701625
 20
5.317209789540295
 10
52.202095443989684
 20
5.2293731672996
 10
52.800000000000004
 20
5.200000000000001
 10
53.397904556010324
 20
5.229373167299601
 10
53.99005096429839
 20
5.317209789540295
 10
54.57073653125222
 20
5.462663952033528
 10
55.134368937427055
 20
5.664334851681152
 10
55.67552009463859
 20
5.920280287475036
 10
56.18897842141958
 20
6.228035364954475
 10
56.66979903339824
 20
6.584636234487306
 10
57.113351365237946
 20
6.986648634762061
 10
57.5153637655127
 20
7.430200966601763
 10
57.87196463504553
 20
7.911021578580428
 10
58.17971971252497
 20
8.424479905361416
 10
58.435665148318854
 20
8.965631062572953
 10
58.63733604796648
 20
9.52926346874778
 10
58.78279021045971
 20
10.109949035701618
 10
58.8706268327004
 20
10.70209544398968
 10
58.900000000000006
 20
11.3
 10
58.8706268327004
 20
11.89790455601032
 10
58.78279021045971
 20
12.490050964298385
 10
58.63733604796648
 20
13.070736531252223
  0
LWPOLYLINE
  5
35
330
17
100
AcDbEntity
  8
default
100
AcDbPolyline
 90
65
 70
0
 10
76.48086873850004
 20
12.509559996499998
 10
76.3330300815397
 20
13.099764998977669
 10
76.12805310156998
 20
13.672637280663562
 10
75.8679118389598
 20
14.222659768321188
 10
75.5551115962758
 20
14.744535444721535
 10
75.19266481084897
 20
15.233238361814605
 10
74.7840620433566
 20
15.684062043356597
 10
74.33323836181461
 20
16.09266481084897
 10
73.84453544472154
 20
16.455111596275785
 10
73.32265976832119
 20
16.7679118389598
 10
72.77263728066356
 20
17.028053101569977
 10
72.19976499897767
 20
17.233030081539695
 10
71.6095599965
 20
17.38086873850003
 10
71.00770627004327
 20
17.470145305367623
 10
70.4
 20
17.5
 10
69.79229372995673
 20
17.470145305367623
 10
69.19044000350002
 20
17.380868738500027
 10
68.60023500102234
 20
17.233030081539695
 10
68.02736271933645
 20
17.028053101569977
 10
67.47734023167882
 20
16.7679118389598
 10
66.95546455527847
 20
16.45511159627578
 10
66.4667616381854
 20
16.09266481084897
 10
66.01593795664341
 20
15.684062043356594
 10
65.60733518915103
 20
15.233238361814601
 10
65.24488840372422
 20
14.744535444721533
 10
64.9320881610402
 20
14.222659768321186
 10
64.67194689843002
 20
13.672637280663556
 10
64.46696991846031
 20
13.099764998977665
 10
64.31913126149998
 20
12.509559996499997
 10
64.22985469463238
 20
11.907706270043276
 10
64.2
 20
11.3
 10
64.22985469463238
 20
10.692293729956724
 10
64.31913126149998
 20
10.090440003500003
 10
64.46696991846031
 20
9.500235001022334
 10
64.67194689843002
 20
8.927362719336443
 10
64.9320881610402
 20
8.377340231678813
 10
65.24488840372422
 20
7.855464555278467
 10
65.60733518915103
 20
7.366761638185398
 10
66.01593795664341
 20
6.915937956643406
 10
66.4667616381854
 20
6.50733518915103
 10
66.95546455527847
 20
6.144888403724219
 10
67.47734023167882
 20
5.8320881610402
 10
68.02736271933645
 20
5.571946898430022
 10
68.60023500102234
 20
5.366969918460305
 10
69.19044000350002
 20
5.219131261499972
 10
69.79229372995673
 20
5.12985469463238
 10
70.4
 20
5.1000000000000005
 10
71.00770627004329
 20
5.12985469463238
 10
71.6095599965
 20
5.219131261499972
 10
72.19976499897767
 20
5.366969918460306
 10
72.77263728066356
 20
5.571946898430022
 10
73.32265976832119
 20
5.8320881610402
 10
73.84453544472154
 20
6.14488840372422
 10
74.33323836181461
 20
6.507335189151031
 10
74.7840620433566
 20
6.915937956643407
 10
75.19266481084898
 20
7.366761638185398
 10
75.5551115962758
 20
7.855464555278467
 10
75.86791183895981
 20
8.377340231678815
 10
76.12805310156999
 20
8.927362719336443
 10
76.3330300815397
 20
9.500235001022334
 10
76.48086873850004
 20
10.090440003500005
 10
76.57014530536763
 20
10.692293729956726
 10
76.60000000000001
 20
11.3
 10
76.57014530536763
 20
11.907706270043276
 10
76.48086873850004
 20
12.509559996499998
  0
LWPOLYLINE
  5
36
330
17
100
AcDbEntity
  8
default
100
AcDbPolyline
 90
65
 70
0
 10
94.26966377803484
 20
11.917507984076233
 10
94.17894726654035
 20
12.529069028701612
 10
94.02872411511291
 20
13.128793466703115
 10
93.8204410548211
 20
13.71090562390007
 10
93.55610396539464
 20
14.269799442003787
 10
93.23825855750603
 20
14.800092468023495
 10
92.86996585618525
 20
15.29667769023097
 10
92.45477272147525
 20
15.754772721475252
 10
91.99667769023097
 20
16.169965856185243
 10
91.5000924680235
 20
16.538258557506037
 10
90.96979944200379
 20
16.856103965394638
 10
90.41090562390006
 20
17.120441054821107
 10
89.8287934667031
 20
17.328724115112916
 10
89.2290690287016
 20
17.478947266540352
 10
88.61750798407623
 20
17.56966377803484
 10
88.0
 20
17.6
 10
87.38249201592377
 20
17.56966377803484
 10
86.77093097129838
 20
17.478947266540352
 10
86.17120653329688
 20
17.328724115112916
 10
85.58909437609994
 20
17.120441054821107
 10
85.03020055799621
 20
16.856103965394638
 10
84.4999075319765
 20
16.538258557506037
 10
84.00332230976903
 20
16.169965856185243
 10
83.54522727852475
 20
15.754772721475248
 10
83.13003414381475
 20
15.296677690230965
 10
82.76174144249396
 20
14.800092468023493
 10
82.44389603460536
 20
14.269799442003785
 10
82.1795589451789
 20
13.710905623900066
 10
81.97127588488708
 20
13.128793466703112
 10
81.82105273345965
 20
12.52906902870161
 10
81.73033622196516
 20
11.917507984076233
 10
81.7
 20
11.3
 10
81.73033622196516
 20
10.682492015923767
 10
81.82105273345965
 20
10.07093097129839
 10
81.97127588488709
 20
9.471206533296888
 10
82.1795589451789
 20
8.889094376099933
 10
82.44389603460536
 20
8.330200557996214
 10
82.76174144249397
 20
7.7999075319765065
 10
83.13003414381475
 20
7.303322309769034
 10
83.54522727852475
 20
6.845227278524751
 10
84.00332230976903
 20
6.4300341438147575
 10
84.4999075319765
 20
6.0617414424939655
 10
85.03020055799621
 20
5.743896034605364
 10
85.58909437609994
 20
5.479558945178894
 10
86.17120653329688
 20
5.271275884887085
 10
86.7709309712984
 20
5.121052733459649
 10
87.38249201592377
 20
5.03033622196516
 10
88.0
 20
5.000000000000001
 10
88.61750798407623
 20
5.030336221965161
 10
89.2290690287016
 20
5.121052733459649
 10
89.82879346670312
 20
5.2712758848870855
 10
90.41090562390006
 20
5.479558945178894
 10
90.96979944200379
 20
5.743896034605365
 10
91.5000924680235
 20
6.0617414424939655
 10
91.99667769023097
 20
6.4300341438147575
 10
92.45477272147525
 20
6.845227278524752
 10
92.86996585618525
 20
7.303322309769034
 10
93.23825855750603
 20
7.7999075319765065
 10
93.55610396539464
 20
8.330200557996216
 10
93.8204410548211
 20
8.889094376099935
 10
94.02872411511291
 20
9.471206533296888
 10
94.17894726654035
 20
10.070930971298393
 10
94.26966377803484
 20
10.682492015923769
 10
94.3
 20
11.3
 10
94.26966377803484
 20
11.917507984076233
  0
LWPOLYLINE
  5
37
330
17
100
AcDbEntity
  8
text
100
AcDbPolyline
 90
5
 70
0
 10
35.333000000000006
 20
1.404
 10
35.333000000000006
 20
1.0
 10
34.939
 20
1.0
 10
34.939
 20
1.404
 10
35.333000000000006
 20
1.404
  0
LWPOLYLINE
  5
38
330
17
100
AcDbEntity
  8
text
100
AcDbPolyline
 90
5
 70
0
 10
17.672000000000004
 20
1.0
 10
17.278000000000002
 20
1.0
 10
17.278000000000002
 20
1.404
 10
17.672000000000004
 20
1.404
 10
17.672000000000004
 20
1.0
  0
LWPOLYLINE
  5
39
330
17
100
AcDbEntity
  8
text
100
AcDbPolyline
 90
5
 70
0
 10
53.292
 20
1.0
 10
52.897999999999996
 20
1.0
 10
52.897999999999996
 20
1.404
 10
53.292
 20
1.404
 10
53.292
 20
1.0
  0
LWPOLYLINE
  5
3A
330
17
100
AcDbEntity
  8
text
100
AcDbPolyline
 90
33
 70
0
 10
15.722000000000003
 20
3.562
 10
15.626000000000003
 20
2.7439999999999998
 10
15.718000000000004
 20
2.8120000000000003
 10
15.944000000000003
 20
2.902
 10
16.092000000000002
 20
2.906
 10
16.494000000000003
 20
2.91
 10
16.956000000000003
 20
2.378
 10
16.956000000000003
 20
1.928
 10
16.956000000000003
 20
1.49
 10
16.486000000000004
 20
0.958
 10
16.036
 20
0.958
 10
15.666000000000002
 20
0.958
 10
15.174000000000003
 20
1.362
 10
15.184000000000003
 20
1.754
 10
15.188000000000002
 20
1.766
 10
15.544000000000002
 20
1.766
 10
15.544000000000002
 20
1.528
 10
15.818000000000003
 20
1.266
 10
16.036
 20
1.266
 10
16.286
 20
1.266
 10
16.562
 20
1.6179999999999999
 10
16.562
 20
1.924
 10
16.562
 20
2.2039999999999997
 10
16.282000000000004
 20
2.564
 10
16.036
 20
2.564
 10
15.804000000000002
 20
2.564
 10
15.596000000000004
 20
2.424
 10
15.548000000000004
 20
2.2800000000000002
 10
15.220000000000002
 20
2.314
 10
15.388000000000003
 20
3.912
 10
16.846000000000004
 20
3.912
 10
16.846000000000004
 20
3.562
 10
15.722000000000003
 20
3.562
  0
LWPOLYLINE
  5
3B
330
17
100
AcDbEntity
  8
text
100
AcDbPolyline
 90
28
 70
0
 10
34.167
 20
3.582
 10
33.953
 20
3.644
 10
33.809000000000005
 20
3.644
 10
33.497
 20
3.644
 10
33.115
 20
3.144
 10
33.115
 20
2.742
 10
33.115
 20
2.6959999999999997
 10
33.243
 20
2.808
 10
33.573
 20
2.934
 10
33.763000000000005
 20
2.934
 10
34.153000000000006
 20
2.934
 10
34.617000000000004
 20
2.394
 10
34.617000000000004
 20
1.98
 10
34.617000000000004
 20
1.528
 10
34.123000000000005
 20
0.958
 10
33.711000000000006
 20
0.958
 10
33.283
 20
0.958
 10
32.723000000000006
 20
1.5779999999999998
 10
32.723000000000006
 20
2.1420000000000003
 10
32.723000000000006
 20
2.698
 10
32.723000000000006
 20
3.258
 10
33.347
 20
3.954
 10
33.809000000000005
 20
3.954
 10
33.959
 20
3.954
 10
34.253
 20
3.886
 10
34.349000000000004
 20
3.834
 10
34.265
 20
3.532
 10
34.167
 20
3.582
  0
LWPOLYLINE
  5
3C
330
17
100
AcDbEntity
  8
text
100
AcDbPolyline
 90
14
 70
0
 10
33.115
 20
1.702
 10
33.455000000000005
 20
1.266
 10
33.711000000000006
 20
1.266
 10
33.953
 20
1.266
 10
34.223000000000006
 20
1.6760000000000002
 10
34.223000000000006
 20
1.98
 10
34.223000000000006
 20
2.268
 10
33.933
 20
2.64
 10
33.675000000000004
 20
2.64
 10
33.473000000000006
 20
2.64
 10
33.189
 20
2.476
 10
33.115
 20
2.34
 10
33.115
 20
2.104
 10
33.115
 20
1.702
  0
LWPOLYLINE
  5
3D
330
17
100
AcDbEntity
  8
text
100
AcDbPolyline
 90
28
 70
0
 10
19.230000000000004
 20
2.122
 10
18.936000000000003
 20
1.976
 10
18.756000000000004
 20
1.976
 10
18.334000000000003
 20
1.976
 10
17.838
 20
2.498
 10
17.838
 20
2.956
 10
17.838
 20
3.394
 10
18.364000000000004
 20
3.954
 10
18.740000000000002
 20
3.954
 10
19.196000000000005
 20
3.954
 10
19.722
 20
3.384
 10
19.722
 20
2.83
 10
19.722
 20
2.136
 10
19.722
 20
1.566
 10
19.152
 20
0.958
 10
18.694000000000003
 20
0.958
 10
18.540000000000003
 20
0.958
 10
18.222
 20
1.016
 10
18.096000000000004
 20
1.076
 10
18.156000000000002
 20
1.3780000000000001
 10
18.274
 20
1.316
 10
18.528000000000002
 20
1.266
 10
18.694000000000003
 20
1.266
 10
18.982000000000003
 20
1.266
 10
19.328000000000003
 20
1.702
 10
19.328000000000003
 20
2.132
 10
19.328000000000003
 20
2.2640000000000002
 10
19.230000000000004
 20
2.122
  0
LWPOLYLINE
  5
3E
330
17
100
AcDbEntity
  8
text
100
AcDbPolyline
 90
14
 70
0
 10
19.328000000000003
 20
3.2520000000000002
 10
19.034000000000002
 20
3.644
 10
18.752000000000002
 20
3.644
 10
18.536
 20
3.644
 10
18.232000000000003
 20
3.258
 10
18.232000000000003
 20
2.956
 10
18.232000000000003
 20
2.656
 10
18.514000000000003
 20
2.284
 10
18.756000000000004
 20
2.284
 10
18.974000000000004
 20
2.284
 10
19.264000000000003
 20
2.472
 10
19.328000000000003
 20
2.6180000000000003
 10
19.328000000000003
 20
2.87
 10
19.328000000000003
 20
3.2520000000000002
  0
LWPOLYLINE
  5
3F
330
17
100
AcDbEntity
  8
text
100
AcDbPolyline
 90
15
 70
0
 10
35.559000000000005
 20
1.554
 10
35.559000000000005
 20
2.1100000000000003
 10
35.559000000000005
 20
2.8
 10
35.559000000000005
 20
3.356
 10
36.057
 20
3.954
 10
36.485
 20
3.954
 10
36.915000000000006
 20
3.954
 10
37.413000000000004
 20
3.356
 10
37.413000000000004
 20
2.8
 10
37.413000000000004
 20
2.1100000000000003
 10
37.413000000000004
 20
1.552
 10
36.919000000000004
 20
0.958
 10
36.489000000000004
 20
0.958
 10
36.059000000000005
 20
0.958
 10
35.559000000000005
 20
1.554
  0
LWPOLYLINE
  5
40
330
17
100
AcDbEntity
  8
text
100
AcDbPolyline
 90
15
 70
0
 10
35.953
 20
3.262
 10
35.953
 20
2.8840000000000003
 10
35.953
 20
2.0300000000000002
 10
35.953
 20
1.6520000000000001
 10
36.229000000000006
 20
1.266
 10
36.489000000000004
 20
1.266
 10
36.749
 20
1.266
 10
37.019000000000005
 20
1.65
 10
37.019000000000005
 20
2.0300000000000002
 10
37.019000000000005
 20
2.8840000000000003
 10
37.019000000000005
 20
3.262
 10
36.745000000000005
 20
3.644
 10
36.485
 20
3.644
 10
36.225
 20
3.644
 10
35.953
 20
3.262
  0
LWPOLYLINE
  5
41
330
17
100
AcDbEntity
  8
text
100
AcDbPolyline
 90
28
 70
0
 10
52.126
 20
3.582
 10
51.912
 20
3.644
 10
51.768
 20
3.644
 10
51.455999999999996
 20
3.644
 10
51.074
 20
3.144
 10
51.074
 20
2.742
 10
51.074
 20
2.6959999999999997
 10
51.202
 20
2.808
 10
51.532
 20
2.934
 10
51.722
 20
2.934
 10
52.112
 20
2.934
 10
52.576
 20
2.394
 10
52.576
 20
1.98
 10
52.576
 20
1.528
 10
52.082
 20
0.958
 10
51.67
 20
0.958
 10
51.242
 20
0.958
 10
50.682
 20
1.5779999999999998
 10
50.682
 20
2.1420000000000003
 10
50.682
 20
2.698
 10
50.682
 20
3.258
 10
51.306
 20
3.954
 10
51.768
 20
3.954
 10
51.918
 20
3.954
 10
52.211999999999996
 20
3.886
 10
52.308
 20
3.834
 10
52.224
 20
3.532
 10
52.126
 20
3.582
  0
LWPOLYLINE
  5
42
330
17
100
AcDbEntity
  8
text
100
AcDbPolyline
 90
14
 70
0
 10
51.074
 20
1.702
 10
51.414
 20
1.266
 10
51.67
 20
1.266
 10
51.912
 20
1.266
 10
52.182
 20
1.6760000000000002
 10
52.182
 20
1.98
 10
52.182
 20
2.268
 10
51.891999999999996
 20
2.64
 10
51.634
 20
2.64
 10
51.432
 20
2.64
 10
51.147999999999996
 20
2.476
 10
51.074
 20
2.34
 10
51.074
 20
2.104
 10
51.074
 20
1.702
  0
LWPOLYLINE
  5
43
330
17
100
AcDbEntity
  8
text
100
AcDbPolyline
 90
5
 70
0
 10
88.154
 20
1.0
 10
87.76
 20
1.0
 10
87.76
 20
1.404
 10
88.154
 20
1.404
 10
88.154
 20
1.0
  0
LWPOLYLINE
  5
44
330
17
100
AcDbEntity
  8
text
100
AcDbPolyline
 90
5
 70
0
 10
70.51100000000001
 20
1.0
 10
70.11700000000002
 20
1.0
 10
70.11700000000002
 20
1.404
 10
70.51100000000001
 20
1.404
 10
70.51100000000001
 20
1.0
  0
LWPOLYLINE
  5
45
330
17
100
AcDbEntity
  8
text
100
AcDbPolyline
 90
28
 70
0
 10
69.34500000000001
 20
3.582
 10
69.13100000000001
 20
3.644
 10
68.98700000000001
 20
3.644
 10
68.67500000000001
 20
3.644
 10
68.29300000000002
 20
3.144
 10
68.29300000000002
 20
2.742
 10
68.29300000000002
 20
2.6959999999999997
 10
68.42100000000002
 20
2.808
 10
68.75100000000002
 20
2.934
 10
68.94100000000002
 20
2.934
 10
69.33100000000002
 20
2.934
 10
69.79500000000002
 20
2.394
 10
69.79500000000002
 20
1.98
 10
69.79500000000002
 20
1.528
 10
69.30100000000002
 20
0.958
 10
68.88900000000001
 20
0.958
 10
68.46100000000001
 20
0.958
 10
67.90100000000001
 20
1.5779999999999998
 10
67.90100000000001
 20
2.1420000000000003
 10
67.90100000000001
 20
2.698
 10
67.90100000000001
 20
3.258
 10
68.52500000000002
 20
3.954
 10
68.98700000000001
 20
3.954
 10
69.13700000000001
 20
3.954
 10
69.43100000000001
 20
3.886
 10
69.52700000000002
 20
3.834
 10
69.44300000000001
 20
3.532
 10
69.34500000000001
 20
3.582
  0
LWPOLYLINE
  5
46
330
17
100
AcDbEntity
  8
text
100
AcDbPolyline
 90
14
 70
0
 10
68.29300000000002
 20
1.702
 10
68.63300000000001
 20
1.266
 10
68.88900000000001
 20
1.266
 10
69.13100000000001
 20
1.266
 10
69.40100000000001
 20
1.6760000000000002
 10
69.40100000000001
 20
1.98
 10
69.40100000000001
 20
2.268
 10
69.11100000000002
 20
2.64
 10
68.85300000000001
 20
2.64
 10
68.65100000000001
 20
2.64
 10
68.36700000000002
 20
2.476
 10
68.29300000000002
 20
2.34
 10
68.29300000000002
 20
2.104
 10
68.29300000000002
 20
1.702
  0
LWPOLYLINE
  5
47
330
17
100
AcDbEntity
  8
text
100
AcDbPolyline
 90
44
 70
0
 10
89.754
 20
3.134
 10
89.754
 20
3.384
 10
89.506
 20
3.644
 10
89.264
 20
3.644
 10
89.034
 20
3.644
 10
88.756
 20
3.374
 10
88.756
 20
3.15
 10
88.378
 20
3.15
 10
88.374
 20
3.162
 10
88.364
 20
3.492
 10
88.862
 20
3.954
 10
89.264
 20
3.954
 10
89.668
 20
3.954
 10
90.148
 20
3.524
 10
90.148
 20
3.126
 10
90.148
 20
2.9459999999999997
 10
89.93
 20
2.588
 10
89.712
 20
2.4939999999999998
 10
89.974
 20
2.408
 10
90.19200000000001
 20
2.04
 10
90.19200000000001
 20
1.812
 10
90.19200000000001
 20
1.4140000000000001
 10
89.67
 20
0.958
 10
89.264
 20
0.958
 10
88.866
 20
0.958
 10
88.344
 20
1.388
 10
88.354
 20
1.756
 10
88.36
 20
1.768
 10
88.736
 20
1.768
 10
88.736
 20
1.538
 10
89.018
 20
1.266
 10
89.264
 20
1.266
 10
89.514
 20
1.266
 10
89.798
 20
1.538
 10
89.798
 20
1.804
 10
89.798
 20
2.074
 10
89.546
 20
2.33
 10
89.274
 20
2.33
 10
88.93
 20
2.33
 10
88.93
 20
2.638
 10
89.274
 20
2.638
 10
89.536
 20
2.638
 10
89.754
 20
2.9000000000000004
 10
89.754
 20
3.134
  0
LWPOLYLINE
  5
48
330
17
100
AcDbEntity
  8
text
100
AcDbPolyline
 90
28
 70
0
 10
86.988
 20
3.582
 10
86.774
 20
3.644
 10
86.63
 20
3.644
 10
86.318
 20
3.644
 10
85.936
 20
3.144
 10
85.936
 20
2.742
 10
85.936
 20
2.6959999999999997
 10
86.06400000000001
 20
2.808
 10
86.394
 20
2.934
 10
86.584
 20
2.934
 10
86.974
 20
2.934
 10
87.438
 20
2.394
 10
87.438
 20
1.98
 10
87.438
 20
1.528
 10
86.944
 20
0.958
 10
86.532
 20
0.958
 10
86.104
 20
0.958
 10
85.544
 20
1.5779999999999998
 10
85.544
 20
2.1420000000000003
 10
85.544
 20
2.698
 10
85.544
 20
3.258
 10
86.168
 20
3.954
 10
86.63
 20
3.954
 10
86.78
 20
3.954
 10
87.074
 20
3.886
 10
87.17
 20
3.834
 10
87.086
 20
3.532
 10
86.988
 20
3.582
  0
LWPOLYLINE
  5
49
330
17
100
AcDbEntity
  8
text
100
AcDbPolyline
 90
14
 70
0
 10
85.936
 20
1.702
 10
86.276
 20
1.266
 10
86.532
 20
1.266
 10
86.774
 20
1.266
 10
87.044
 20
1.6760000000000002
 10
87.044
 20
1.98
 10
87.044
 20
2.268
 10
86.754
 20
2.64
 10
86.496
 20
2.64
 10
86.294
 20
2.64
 10
86.01
 20
2.476
 10
85.936
 20
2.34
 10
85.936
 20
2.104
 10
85.936
 20
1.702
  0
LWPOLYLINE
  5
4A
330
17
100
AcDbEntity
  8
text
100
AcDbPolyline
 90
7
 70
0
 10
53.664
 20
3.8040000000000003
 10
54.653999999999996
 20
3.912
 10
54.653999999999996
 20
1.0
 10
54.26
 20
1.0
 10
54.26
 20
3.528
 10
53.664
 20
3.52
 10
53.664
 20
3.8040000000000003
  0
LWPOLYLINE
  5
4B
330
17
100
AcDbEntity
  8
text
100
AcDbPolyline
 90
28
 70
0
 10
71.95700000000002
 20
2.616
 10
72.13900000000001
 20
2.952
 10
72.13900000000001
 20
3.128
 10
72.13900000000001
 20
3.346
 10
71.88500000000002
 20
3.644
 10
71.67500000000001
 20
3.644
 10
71.37300000000002
 20
3.644
 10
71.08700000000002
 20
3.334
 10
71.08700000000002
 20
3.054
 10
70.70900000000002
 20
3.054
 10
70.70500000000001
 20
3.066
 10
70.69500000000002
 20
3.442
 10
71.21500000000002
 20
3.954
 10
71.67500000000001
 20
3.954
 10
72.06700000000001
 20
3.954
 10
72.53300000000002
 20
3.496
 10
72.53300000000002
 20
3.142
 10
72.53300000000002
 20
2.904
 10
72.25100000000002
 20
2.426
 10
71.99700000000001
 20
2.152
 10
71.23100000000001
 20
1.318
 10
71.23500000000001
 20
1.308
 10
72.63500000000002
 20
1.308
 10
72.63500000000002
 20
1.0
 10
70.74700000000001
 20
1.0
 10
70.74700000000001
 20
1.27
 10
71.70100000000002
 20
2.33
 10
71.95700000000002
 20
2.616
  0
LWPOLYLINE
  5
4C
330
17
100
AcDbEntity
  8
default
100
AcDbPolyline
 90
25
 70
0
 10
119.60000000000001
 20
20.0
 10
119.60000000000001
 20
14.0
 10
124.4
 20
14.0
 10
124.4
 20
20.0
 10
134.95000000000002
 20
20.0
 10
134.95000000000002
 20
14.0
 10
139.85000000000002
 20
14.0
 10
139.85000000000002
 20
20.0
 10
150.3
 20
20.0
 10
150.3
 20
14.0
 10
155.3
 20
14.0
 10
155.3
 20
20.0
 10
165.65
 20
20.0
 10
165.65
 20
14.0
 10
170.75
 20
14.0
 10
170.75
 20
20.0
 10
181.0
 20
20.0
 10
181.0
 20
14.0
 10
186.20000000000002
 20
14.0
 10
186.20000000000002
 20
20.0
 10
199.0
 20
20.0
 10
199.0
 20
0.0
 10
106.60000000000001
 20
0.0
 10
106.60000000000001
 20
20.0
 10
119.60000000000001
 20
20.0
  0
LWPOLYLINE
  5
4D
330
17
100
AcDbEntity
  8
text
100
AcDbPolyline
 90
5
 70
0
 10
137.729
 20
1.404
 10
137.729
 20
1.0
 10
137.335
 20
1.0
 10
137.335
 20
1.404
 10
137.729
 20
1.404
  0
LWPOLYLINE
  5
4E
330
17
100
AcDbEntity
  8
text
100
AcDbPolyline
 90
5
 70
0
 10
122.304
 20
1.0
 10
121.91000000000001
 20
1.0
 10
121.91000000000001
 20
1.404
 10
122.304
 20
1.404
 10
122.304
 20
1.0
  0
LWPOLYLINE
  5
4F
330
17
100
AcDbEntity
  8
text
100
AcDbPolyline
 90
5
 70
0
 10
152.857
 20
1.0
 10
152.46300000000002
 20
1.0
 10
152.46300000000002
 20
1.404
 10
152.857
 20
1.404
 10
152.857
 20
1.0
  0
LWPOLYLINE
  5
50
330
17
100
AcDbEntity
  8
text
100
AcDbPolyline
 90
33
 70
0
 10
150.907
 20
3.562
 10
150.811
 20
2.7439999999999998
 10
150.90300000000002
 20
2.8120000000000003
 10
151.12900000000002
 20
2.902
 10
151.27700000000002
 20
2.906
 10
151.679
 20
2.91
 10
152.14100000000002
 20
2.378
 10
152.14100000000002
 20
1.928
 10
152.14100000000002
 20
1.49
 10
151.671
 20
0.958
 10
151.221
 20
0.958
 10
150.851
 20
0.958
 10
150.359
 20
1.362
 10
150.369
 20
1.754
 10
150.373
 20
1.766
 10
150.729
 20
1.766
 10
150.729
 20
1.528
 10
151.00300000000001
 20
1.266
 10
151.221
 20
1.266
 10
151.471
 20
1.266
 10
151.747
 20
1.6179999999999999
 10
151.747
 20
1.924
 10
151.747
 20
2.2039999999999997
 10
151.467
 20
2.564
 10
151.221
 20
2.564
 10
150.989
 20
2.564
 10
150.781
 20
2.424
 10
150.733
 20
2.2800000000000002
 10
150.405
 20
2.314
 10
150.573
 20
3.912
 10
152.031
 20
3.912
 10
152.031
 20
3.562
 10
150.907
 20
3.562
  0
LWPOLYLINE
  5
51
330
17
100
AcDbEntity
  8
text
100
AcDbPolyline
 90
12
 70
0
 10
136.219
 20
1.0
 10
136.219
 20
1.6720000000000002
 10
134.911
 20
1.6720000000000002
 10
134.911
 20
1.8940000000000001
 10
136.195
 20
3.912
 10
136.61100000000002
 20
3.912
 10
136.61100000000002
 20
1.98
 10
137.013
 20
1.98
 10
137.013
 20
1.6720000000000002
 10
136.61100000000002
 20
1.6720000000000002
 10
136.61100000000002
 20
1.0
 10
136.219
 20
1.0
  0
LWPOLYLINE
  5
52
330
17
100
AcDbEntity
  8
text
100
AcDbPolyline
 90
6
 70
0
 10
135.33100000000002
 20
1.98
 10
136.219
 20
1.98
 10
136.219
 20
3.346
 10
136.207
 20
3.348
 10
136.169
 20
3.248
 10
135.33100000000002
 20
1.98
  0
LWPOLYLINE
  5
53
330
17
100
AcDbEntity
  8
text
100
AcDbPolyline
 90
25
 70
0
 10
124.40400000000001
 20
1.788
 10
124.40400000000001
 20
1.384
 10
123.87800000000001
 20
0.958
 10
123.45800000000001
 20
0.958
 10
123.03
 20
0.958
 10
122.50800000000001
 20
1.384
 10
122.50800000000001
 20
1.788
 10
122.50800000000001
 20
2.034
 10
122.804
 20
2.41
 10
123.05600000000001
 20
2.498
 10
122.83800000000001
 20
2.582
 10
122.59
 20
2.924
 10
122.59
 20
3.152
 10
122.59
 20
3.536
 10
123.06400000000001
 20
3.954
 10
123.45400000000001
 20
3.954
 10
123.83800000000001
 20
3.954
 10
124.32400000000001
 20
3.536
 10
124.32400000000001
 20
3.152
 10
124.32400000000001
 20
2.924
 10
124.06800000000001
 20
2.582
 10
123.85000000000001
 20
2.498
 10
124.102
 20
2.41
 10
124.40400000000001
 20
2.034
 10
124.40400000000001
 20
1.788
  0
LWPOLYLINE
  5
54
330
17
100
AcDbEntity
  8
text
100
AcDbPolyline
 90
13
 70
0
 10
122.90200000000002
 20
1.796
 10
122.90200000000002
 20
1.548
 10
123.20600000000002
 20
1.266
 10
123.45800000000001
 20
1.266
 10
123.70400000000001
 20
1.266
 10
124.012
 20
1.55
 10
124.012
 20
1.796
 10
124.012
 20
2.036
 10
123.69600000000001
 20
2.3440000000000003
 10
123.45400000000001
 20
2.3440000000000003
 10
123.20800000000001
 20
2.3440000000000003
 10
122.90200000000002
 20
2.036
 10
122.90200000000002
 20
1.796
  0
LWPOLYLINE
  5
55
330
17
100
AcDbEntity
  8
text
100
AcDbPolyline
 90
13
 70
0
 10
122.98400000000001
 20
3.37
 10
122.98400000000001
 20
3.144
 10
122.98400000000001
 20
2.9219999999999997
 10
123.24600000000001
 20
2.654
 10
123.45800000000001
 20
2.654
 10
123.66600000000001
 20
2.654
 10
123.93
 20
2.9219999999999997
 10
123.93
 20
3.144
 10
123.93
 20
3.36
 10
123.66000000000001
 20
3.644
 10
123.45400000000001
 20
3.644
 10
123.244
 20
3.644
 10
122.98400000000001
 20
3.37
  0
LWPOLYLINE
  5
56
330
17
100
AcDbEntity
  8
text
100
AcDbPolyline
 90
28
 70
0
 10
139.287
 20
2.122
 10
138.993
 20
1.976
 10
138.81300000000002
 20
1.976
 10
138.39100000000002
 20
1.976
 10
137.895
 20
2.498
 10
137.895
 20
2.956
 10
137.895
 20
3.394
 10
138.42100000000002
 20
3.954
 10
138.79700000000003
 20
3.954
 10
139.25300000000001
 20
3.954
 10
139.779
 20
3.384
 10
139.779
 20
2.83
 10
139.779
 20
2.136
 10
139.779
 20
1.566
 10
139.209
 20
0.958
 10
138.751
 20
0.958
 10
138.597
 20
0.958
 10
138.279
 20
1.016
 10
138.15300000000002
 20
1.076
 10
138.21300000000002
 20
1.3780000000000001
 10
138.33100000000002
 20
1.316
 10
138.585
 20
1.266
 10
138.751
 20
1.266
 10
139.03900000000002
 20
1.266
 10
139.38500000000002
 20
1.702
 10
139.38500000000002
 20
2.132
 10
139.38500000000002
 20
2.2640000000000002
 10
139.287
 20
2.122
  0
LWPOLYLINE
  5
57
330
17
100
AcDbEntity
  8
text
100
AcDbPolyline
 90
14
 70
0
 10
139.38500000000002
 20
3.2520000000000002
 10
139.091
 20
3.644
 10
138.80900000000003
 20
3.644
 10
138.59300000000002
 20
3.644
 10
138.28900000000002
 20
3.258
 10
138.28900000000002
 20
2.956
 10
138.28900000000002
 20
2.656
 10
138.571
 20
2.284
 10
138.81300000000002
 20
2.284
 10
139.031
 20
2.284
 10
139.32100000000003
 20
2.472
 10
139.38500000000002
 20
2.6180000000000003
 10
139.38500000000002
 20
2.87
 10
139.38500000000002
 20
3.2520000000000002
  0
LWPOLYLINE
  5
58
330
17
100
AcDbEntity
  8
text
100
AcDbPolyline
 90
12
 70
0
 10
120.79400000000001
 20
1.0
 10
120.79400000000001
 20
1.6720000000000002
 10
119.486
 20
1.6720000000000002
 10
119.486
 20
1.8940000000000001
 10
120.77000000000001
 20
3.912
 10
121.186
 20
3.912
 10
121.186
 20
1.98
 10
121.58800000000001
 20
1.98
 10
121.58800000000001
 20
1.6720000000000002
 10
121.186
 20
1.6720000000000002
 10
121.186
 20
1.0
 10
120.79400000000001
 20
1.0
  0
LWPOLYLINE
  5
59
330
17
100
AcDbEntity
  8
text
100
AcDbPolyline
 90
6
 70
0
 10
119.906
 20
1.98
 10
120.79400000000001
 20
1.98
 10
120.79400000000001
 20
3.346
 10
120.78200000000001
 20
3.348
 10
120.74400000000001
 20
3.248
 10
119.906
 20
1.98
  0
LWPOLYLINE
  5
5A
330
17
100
AcDbEntity
  8
text
100
AcDbPolyline
 90
5
 70
0
 10
183.63500000000002
 20
1.0
 10
183.241
 20
1.0
 10
183.241
 20
1.404
 10
183.63500000000002
 20
1.404
 10
183.63500000000002
 20
1.0
  0
LWPOLYLINE
  5
5B
330
17
100
AcDbEntity
  8
text
100
AcDbPolyline
 90
5
 70
0
 10
168.616
 20
1.0
 10
168.222
 20
1.0
 10
168.222
 20
1.404
 10
168.616
 20
1.404
 10
168.616
 20
1.0
  0
LWPOLYLINE
  5
5C
330
17
100
AcDbEntity
  8
text
100
AcDbPolyline
 90
33
 70
0
 10
166.666
 20
3.562
 10
166.57
 20
2.7439999999999998
 10
166.662
 20
2.8120000000000003
 10
166.888
 20
2.902
 10
167.036
 20
2.906
 10
167.43800000000002
 20
2.91
 10
167.9
 20
2.378
 10
167.9
 20
1.928
 10
167.9
 20
1.49
 10
167.43
 20
0.958
 10
166.98000000000002
 20
0.958
 10
166.61
 20
0.958
 10
166.118
 20
1.362
 10
166.12800000000001
 20
1.754
 10
166.132
 20
1.766
 10
166.488
 20
1.766
 10
166.488
 20
1.528
 10
166.762
 20
1.266
 10
166.98000000000002
 20
1.266
 10
167.23000000000002
 20
1.266
 10
167.506
 20
1.6179999999999999
 10
167.506
 20
1.924
 10
167.506
 20
2.2039999999999997
 10
167.226
 20
2.564
 10
166.98000000000002
 20
2.564
 10
166.748
 20
2.564
 10
166.54000000000002
 20
2.424
 10
166.49200000000002
 20
2.2800000000000002
 10
166.16400000000002
 20
2.314
 10
166.332
 20
3.912
 10
167.79000000000002
 20
3.912
 10
167.79000000000002
 20
3.562
 10
166.666
 20
3.562
  0
LWPOLYLINE
  5
5D
330
17
100
AcDbEntity
  8
text
100
AcDbPolyline
 90
33
 70
0
 10
181.685
 20
3.562
 10
181.589
 20
2.7439999999999998
 10
181.681
 20
2.8120000000000003
 10
181.907
 20
2.902
 10
182.055
 20
2.906
 10
182.457
 20
2.91
 10
182.919
 20
2.378
 10
182.919
 20
1.928
 10
182.919
 20
1.49
 10
182.449
 20
0.958
 10
181.99900000000002
 20
0.958
 10
181.62900000000002
 20
0.958
 10
181.137
 20
1.362
 10
181.147
 20
1.754
 10
181.151
 20
1.766
 10
181.507
 20
1.766
 10
181.507
 20
1.528
 10
181.781
 20
1.266
 10
181.99900000000002
 20
1.266
 10
182.24900000000002
 20
1.266
 10
182.525
 20
1.6179999999999999
 10
182.525
 20
1.924
 10
182.525
 20
2.2039999999999997
 10
182.245
 20
2.564
 10
181.99900000000002
 20
2.564
 10
181.767
 20
2.564
 10
181.55900000000003
 20
2.424
 10
181.51100000000002
 20
2.2800000000000002
 10
181.183
 20
2.314
 10
181.351
 20
3.912
 10
182.80900000000003
 20
3.912
 10
182.80900000000003
 20
3.562
 10
181.685
 20
3.562
  0
LWPOLYLINE
  5
5E
330
17
100
AcDbEntity
  8
text
100
AcDbPolyline
 90
7
 70
0
 10
168.988
 20
3.8040000000000003
 10
169.978
 20
3.912
 10
169.978
 20
1.0
 10
169.584
 20
1.0
 10
169.584
 20
3.528
 10
168.988
 20
3.52
 10
168.988
 20
3.8040000000000003
  0
LWPOLYLINE
  5
5F
330
17
100
AcDbEntity
  8
text
100
AcDbPolyline
 90
15
 70
0
 10
153.083
 20
1.554
 10
153.083
 20
2.1100000000000003
 10
153.083
 20
2.8
 10
153.083
 20
3.356
 10
153.58100000000002
 20
3.954
 10
154.00900000000001
 20
3.954
 10
154.43900000000002
 20
3.954
 10
154.937
 20
3.356
 10
154.937
 20
2.8
 10
154.937
 20
2.1100000000000003
 10
154.937
 20
1.552
 10
154.443
 20
0.958
 10
154.013
 20
0.958
 10
153.583
 20
0.958
 10
153.083
 20
1.554
  0
LWPOLYLINE
  5
60
330
17
100
AcDbEntity
  8
text
100
AcDbPolyline
 90
15
 70
0
 10
153.477
 20
3.262
 10
153.477
 20
2.8840000000000003
 10
153.477
 20
2.0300000000000002
 10
153.477
 20
1.6520000000000001
 10
153.75300000000001
 20
1.266
 10
154.013
 20
1.266
 10
154.27300000000002
 20
1.266
 10
154.543
 20
1.65
 10
154.543
 20
2.0300000000000002
 10
154.543
 20
2.8840000000000003
 10
154.543
 20
3.262
 10
154.269
 20
3.644
 10
154.00900000000001
 20
3.644
 10
153.74900000000002
 20
3.644
 10
153.477
 20
3.262
  0
LWPOLYLINE
  5
61
330
17
100
AcDbEntity
  8
text
100
AcDbPolyline
 90
28
 70
0
 10
185.08100000000002
 20
2.616
 10
185.26300000000003
 20
2.952
 10
185.26300000000003
 20
3.128
 10
185.26300000000003
 20
3.346
 10
185.00900000000001
 20
3.644
 10
184.799
 20
3.644
 10
184.497
 20
3.644
 10
184.211
 20
3.334
 10
184.211
 20
3.054
 10
183.83300000000003
 20
3.054
 10
183.829
 20
3.066
 10
183.81900000000002
 20
3.442
 10
184.339
 20
3.954
 10
184.799
 20
3.954
 10
185.19100000000003
 20
3.954
 10
185.657
 20
3.496
 10
185.657
 20
3.142
 10
185.657
 20
2.904
 10
185.375
 20
2.426
 10
185.121
 20
2.152
 10
184.35500000000002
 20
1.318
 10
184.359
 20
1.308
 10
185.75900000000001
 20
1.308
 10
185.75900000000001
 20
1.0
 10
183.871
 20
1.0
 10
183.871
 20
1.27
 10
184.82500000000002
 20
2.33
 10
185.08100000000002
 20
2.616
  0
ENDSEC
  0
SECTION
  2
OBJECTS
  0
DICTIONARY
  5
A
330
0
100
AcDbDictionary
280
0
281
1
  3
ACAD_COLOR
350
B
  3
ACAD_GROUP
350
C
  3
ACAD_LAYOUT
350
D
  3
ACAD_MATERIAL
350
E
  3
ACAD_MLEADERSTYLE
350
F
  3
ACAD_MLINESTYLE
350
10
  3
ACAD_PLOTSETTINGS
350
11
  3
ACAD_PLOTSTYLENAME
350
12
  3
ACAD_SCALELIST
350
14
  3
ACAD_TABLESTYLE
350
15
  3
ACAD_VISUALSTYLE
350
16
  3
EZDXF_META
350
2D
  0
DICTIONARY
  5
B
330
A
100
AcDbDictionary
280
0
281
1
  0
DICTIONARY
  5
C
330
A
100
AcDbDictionary
280
0
281
1
  0
DICTIONARY
  5
D
330
A
100
AcDbDictionary
280
0
281
1
  3
Model
350
1A
  3
Layout1
350
1E
  0
DICTIONARY
  5
E
330
A
100
AcDbDictionary
280
0
281
1
  3
ByBlock
350
1F
  3
ByLayer
350
20
  3
Global
350
21
  0
DICTIONARY
  5
F
330
A
100
AcDbDictionary
280
0
281
1
  3
Standard
350
2C
  0
DICTIONARY
  5
10
330
A
100
AcDbDictionary
280
0
281
1
  3
Standard
350
22
  0
DICTIONARY
  5
11
330
A
100
AcDbDictionary
280
0
281
1
  0
ACDBDICTIONARYWDFLT
  5
12
330
A
100
AcDbDictionary
280
0
281
1
  3
Normal
350
13
100
AcDbDictionaryWithDefault
340
13
  0
ACDBPLACEHOLDER
  5
13
330
12
  0
DICTIONARY
  5
14
330
A
100
AcDbDictionary
280
0
281
1
  0
DICTIONARY
  5
15
330
A
100
AcDbDictionary
280
0
281
1
  0
DICTIONARY
  5
16
330
A
100
AcDbDictionary
280
0
281
1
  0
LAYOUT
  5
1A
330
D
100
AcDbPlotSettings
  1

  4
A3
  6

 40
7.5
 41
20.0
 42
7.5
 43
20.0
 44
420.0
 45
297.0
 46
0.0
 47
0.0
 48
0.0
 49
0.0
140
0.0
141
0.0
142
1.0
143
1.0
 70
1024
 72
1
 73
0
 74
5
  7

 75
16
 76
0
 77
2
 78
300
147
1.0
148
0.0
149
0.0
100
AcDbLayout
  1
Model
 70
1
 71
0
 10
0.0
 20
0.0
 11
420.0
 21
297.0
 12
0.0
 22
0.0
 32
0.0
 14
1e+20
 24
1e+20
 34
1e+20
 15
-1e+20
 25
-1e+20
 35
-1e+20
146
0.0
 13
0.0
 23
0.0
 33
0.0
 16
1.0
 26
0.0
 36
0.0
 17
0.0
 27
1.0
 37
0.0
 76
1
330
17
  0
LAYOUT
  5
1E
330
D
100
AcDbPlotSettings
  1

  4
A3
  6

 40
7.5
 41
20.0
 42
7.5
 43
20.0
 44
420.0
 45
297.0
 46
0.0
 47
0.0
 48
0.0
 49
0.0
140
0.0
141
0.0
142
1.0
143
1.0
 70
0
 72
1
 73
0
 74
5
  7

 75
16
 76
0
 77
2
 78
300
147
1.0
148
0.0
149
0.0
100
AcDbLayout
  1
Layout1
 70
1
 71
1
 10
0.0
 20
0.0
 11
420.0
 21
297.0
 12
0.0
 22
0.0
 32
0.0
 14
1e+20
 24
1e+20
 34
1e+20
 15
-1e+20
 25
-1e+20
 35
-1e+20
146
0.0
 13
0.0
 23
0.0
 33
0.0
 16
1.0
 26
0.0
 36
0.0
 17
0.0
 27
1.0
 37
0.0
 76
1
330
1B
  0
MATERIAL
  5
1F
102
{ACAD_REACTORS
330
E
102
}
330
E
100
AcDbMaterial
  1
ByBlock
  2

 70
0
 40
1.0
 71
1
 41
1.0
 91
-1023410177
 42
1.0
 72
1
  3

 73
1
 74
1
 75
1
 44
0.5
 73
0
 45
1.0
 46
1.0
 77
1
  4

 78
1
 79
1
170
1
 48
1.0
171
1
  6

172
1
173
1
174
1
140
1.0
141
1.0
175
1
  7

176
1
177
1
178
1
143
1.0
179
1
  8

270
1
271
1
272
1
145
1.0
146
1.0
273
1
  9

274
1
275
1
276
1
 42
1.0
 72
1
  3

 73
1
 74
1
 75
1
 94
63
  0
MATERIAL
  5
20
102
{ACAD_REACTORS
330
E
102
}
330
E
100
AcDbMaterial
  1
ByLayer
  2

 70
0
 40
1.0
 71
1
 41
1.0
 91
-1023410177
 42
1.0
 72
1
  3

 73
1
 74
1
 75
1
 44
0.5
 73
0
 45
1.0
 46
1.0
 77
1
  4

 78
1
 79
1
170
1
 48
1.0
171
1
  6

172
1
173
1
174
1
140
1.0
141
1.0
175
1
  7

176
1
177
1
178
1
143
1.0
179
1
  8

270
1
271
1
272
1
145
1.0
146
1.0
273
1
  9

274
1
275
1
276
1
 42
1.0
 72
1
  3

 73
1
 74
1
 75
1
 94
63
  0
MATERIAL
  5
21
102
{ACAD_REACTORS
330
E
102
}
330
E
100
AcDbMaterial
  1
Global
  2

 70
0
 40
1.0
 71
1
 41
1.0
 91
-1023410177
 42
1.0
 72
1
  3

 73
1
 74
1
 75
1
 44
0.5
 73
0
 45
1.0
 46
1.0
 77
1
  4

 78
1
 79
1
170
1
 48
1.0
171
1
  6

172
1
173
1
174
1
140
1.0
141
1.0
175
1
  7

176
1
177
1
178
1
143
1.0
179
1
  8

270
1
271
1
272
1
145
1.0
146
1.0
273
1
  9

274
1
275
1
276
1
 42
1.0
 72
1
  3

 73
1
 74
1
 75
1
 94
63
  0
MLINESTYLE
  5
22
102
{ACAD_REACTORS
330
10
102
}
330
10
100
AcDbMlineStyle
  2
Standard
 70
0
  3

 62
256
 51
90.0
 52
90.0
 71
2
 49
0.5
 62
256
  6
BYLAYER
 49
-0.5
 62
256
  6
BYLAYER
  0
MLEADERSTYLE
  5
2C
102
{ACAD_REACTORS
330
F
102
}
330
F
100
AcDbMLeaderStyle
179
2
170
2
171
1
172
0
 90
2
 40
0.0
 41
0.0
173
1
 91
-1056964608
 92
-2
290
1
 42
2.0
291
1
 43
8.0
  3
Standard
 44
4.0
300

342
29
174
1
175
1
176
0
178
1
 93
-1056964608
 45
4.0
292
0
297
0
 46
4.0
 94
-1056964608
 47
1.0
 49
1.0
140
1.0
294
1
141
0.0
177
0
142
1.0
295
0
296
0
143
3.75
271
0
272
9
273
9
  0
DICTIONARY
  5
2D
330
A
100
AcDbDictionary
281
1
  3
CREATED_BY_EZDXF
350
2E
  3
WRITTEN_BY_EZDXF
350
64
  0
DICTIONARYVAR
  5
2E
330
2D
100
DictionaryVariables
280
0
  1
1.3.2 @ 2024-12-03T01:57:11.501894+00:00
  0
DICTIONARYVAR
  5
64
330
2D
100
DictionaryVariables
280
0
  1
1.3.2 @ 2024-12-03T01:57:11.508009+00:00
  0
ENDSEC
  0
EOF
