  0
SECTION
  2
HEADER
  9
$ACADVER
  1
AC1024
  9
$ACADMAINTVER
 70
6
  9
$DWGCODEPAGE
  3
ANSI_1252
  9
$LASTSAVEDBY
  1
ezdxf
  9
$INSBASE
 10
0.0
 20
0.0
 30
0.0
  9
$EXTMIN
 10
1e+20
 20
1e+20
 30
1e+20
  9
$EXTMAX
 10
-1e+20
 20
-1e+20
 30
-1e+20
  9
$LIMMIN
 10
0.0
 20
0.0
  9
$LIMMAX
 10
420.0
 20
297.0
  9
$ORTHOMODE
 70
0
  9
$REGENMODE
 70
1
  9
$FILLMODE
 70
1
  9
$QTEXTMODE
 70
0
  9
$MIRRTEXT
 70
1
  9
$LTSCALE
 40
1.0
  9
$ATTMODE
 70
1
  9
$TEXTSIZE
 40
2.5
  9
$TRACEWID
 40
1.0
  9
$TEXTSTYLE
  7
Standard
  9
$CLAYER
  8
0
  9
$CELTYPE
  6
ByLayer
  9
$CECOLOR
 62
256
  9
$CELTSCALE
 40
1.0
  9
$DISPSILH
 70
0
  9
$DIMSCALE
 40
1.0
  9
$DIMASZ
 40
2.5
  9
$DIMEXO
 40
0.625
  9
$DIMDLI
 40
3.75
  9
$DIMRND
 40
0.0
  9
$DIMDLE
 40
0.0
  9
$DIMEXE
 40
1.25
  9
$DIMTP
 40
0.0
  9
$DIMTM
 40
0.0
  9
$DIMTXT
 40
2.5
  9
$DIMCEN
 40
2.5
  9
$DIMTSZ
 40
0.0
  9
$DIMTOL
 70
0
  9
$DIMLIM
 70
0
  9
$DIMTIH
 70
0
  9
$DIMTOH
 70
0
  9
$DIMSE1
 70
0
  9
$DIMSE2
 70
0
  9
$DIMTAD
 70
1
  9
$DIMZIN
 70
8
  9
$DIMBLK
  1

  9
$DIMASO
 70
1
  9
$DIMSHO
 70
1
  9
$DIMPOST
  1

  9
$DIMAPOST
  1

  9
$DIMALT
 70
0
  9
$DIMALTD
 70
3
  9
$DIMALTF
 40
0.03937007874
  9
$DIMLFAC
 40
1.0
  9
$DIMTOFL
 70
1
  9
$DIMTVP
 40
0.0
  9
$DIMTIX
 70
0
  9
$DIMSOXD
 70
0
  9
$DIMSAH
 70
0
  9
$DIMBLK1
  1

  9
$DIMBLK2
  1

  9
$DIMSTYLE
  2
ISO-25
  9
$DIMCLRD
 70
0
  9
$DIMCLRE
 70
0
  9
$DIMCLRT
 70
0
  9
$DIMTFAC
 40
1.0
  9
$DIMGAP
 40
0.625
  9
$DIMJUST
 70
0
  9
$DIMSD1
 70
0
  9
$DIMSD2
 70
0
  9
$DIMTOLJ
 70
0
  9
$DIMTZIN
 70
8
  9
$DIMALTZ
 70
0
  9
$DIMALTTZ
 70
0
  9
$DIMUPT
 70
0
  9
$DIMDEC
 70
2
  9
$DIMTDEC
 70
2
  9
$DIMALTU
 70
2
  9
$DIMALTTD
 70
3
  9
$DIMTXSTY
  7
Standard
  9
$DIMAUNIT
 70
0
  9
$DIMADEC
 70
0
  9
$DIMALTRND
 40
0.0
  9
$DIMAZIN
 70
0
  9
$DIMDSEP
 70
44
  9
$DIMATFIT
 70
3
  9
$DIMFRAC
 70
0
  9
$DIMLDRBLK
  1

  9
$DIMLUNIT
 70
2
  9
$DIMLWD
 70
-2
  9
$DIMLWE
 70
-2
  9
$DIMTMOVE
 70
0
  9
$DIMFXL
 40
1.0
  9
$DIMFXLON
 70
0
  9
$DIMJOGANG
 40
0.785398163397
  9
$DIMTFILL
 70
0
  9
$DIMTFILLCLR
 70
0
  9
$DIMARCSYM
 70
0
  9
$DIMLTYPE
  6

  9
$DIMLTEX1
  6

  9
$DIMLTEX2
  6

  9
$DIMTXTDIRECTION
 70
0
  9
$LUNITS
 70
2
  9
$LUPREC
 70
4
  9
$SKETCHINC
 40
1.0
  9
$FILLETRAD
 40
10.0
  9
$AUNITS
 70
0
  9
$AUPREC
 70
2
  9
$MENU
  1
.
  9
$ELEVATION
 40
0.0
  9
$PELEVATION
 40
0.0
  9
$THICKNESS
 40
0.0
  9
$LIMCHECK
 70
0
  9
$CHAMFERA
 40
0.0
  9
$CHAMFERB
 40
0.0
  9
$CHAMFERC
 40
0.0
  9
$CHAMFERD
 40
0.0
  9
$SKPOLY
 70
0
  9
$TDCREATE
 40
2460246.8671296295
  9
$TDUCREATE
 40
2458532.153996898
  9
$TDUPDATE
 40
2460246.8671296295
  9
$TDUUPDATE
 40
2458532.1544311
  9
$TDINDWG
 40
0.0
  9
$TDUSRTIMER
 40
0.0
  9
$USRTIMER
 70
1
  9
$ANGBASE
 50
0.0
  9
$ANGDIR
 70
0
  9
$PDMODE
 70
0
  9
$PDSIZE
 40
0.0
  9
$PLINEWID
 40
0.0
  9
$SPLFRAME
 70
0
  9
$SPLINETYPE
 70
6
  9
$SPLINESEGS
 70
8
  9
$HANDSEED
  5
37
  9
$SURFTAB1
 70
6
  9
$SURFTAB2
 70
6
  9
$SURFTYPE
 70
6
  9
$SURFU
 70
6
  9
$SURFV
 70
6
  9
$UCSBASE
  2

  9
$UCSNAME
  2

  9
$UCSORG
 10
0.0
 20
0.0
 30
0.0
  9
$UCSXDIR
 10
1.0
 20
0.0
 30
0.0
  9
$UCSYDIR
 10
0.0
 20
1.0
 30
0.0
  9
$UCSORTHOREF
  2

  9
$UCSORTHOVIEW
 70
0
  9
$UCSORGTOP
 10
0.0
 20
0.0
 30
0.0
  9
$UCSORGBOTTOM
 10
0.0
 20
0.0
 30
0.0
  9
$UCSORGLEFT
 10
0.0
 20
0.0
 30
0.0
  9
$UCSORGRIGHT
 10
0.0
 20
0.0
 30
0.0
  9
$UCSORGFRONT
 10
0.0
 20
0.0
 30
0.0
  9
$UCSORGBACK
 10
0.0
 20
0.0
 30
0.0
  9
$PUCSBASE
  2

  9
$PUCSNAME
  2

  9
$PUCSORG
 10
0.0
 20
0.0
 30
0.0
  9
$PUCSXDIR
 10
1.0
 20
0.0
 30
0.0
  9
$PUCSYDIR
 10
0.0
 20
1.0
 30
0.0
  9
$PUCSORTHOREF
  2

  9
$PUCSORTHOVIEW
 70
0
  9
$PUCSORGTOP
 10
0.0
 20
0.0
 30
0.0
  9
$PUCSORGBOTTOM
 10
0.0
 20
0.0
 30
0.0
  9
$PUCSORGLEFT
 10
0.0
 20
0.0
 30
0.0
  9
$PUCSORGRIGHT
 10
0.0
 20
0.0
 30
0.0
  9
$PUCSORGFRONT
 10
0.0
 20
0.0
 30
0.0
  9
$PUCSORGBACK
 10
0.0
 20
0.0
 30
0.0
  9
$USERI1
 70
0
  9
$USERI2
 70
0
  9
$USERI3
 70
0
  9
$USERI4
 70
0
  9
$USERI5
 70
0
  9
$USERR1
 40
0.0
  9
$USERR2
 40
0.0
  9
$USERR3
 40
0.0
  9
$USERR4
 40
0.0
  9
$USERR5
 40
0.0
  9
$WORLDVIEW
 70
1
  9
$SHADEDGE
 70
3
  9
$SHADEDIF
 70
70
  9
$TILEMODE
 70
1
  9
$MAXACTVP
 70
64
  9
$PINSBASE
 10
0.0
 20
0.0
 30
0.0
  9
$PLIMCHECK
 70
0
  9
$PEXTMIN
 10
1e+20
 20
1e+20
 30
1e+20
  9
$PEXTMAX
 10
-1e+20
 20
-1e+20
 30
-1e+20
  9
$PLIMMIN
 10
0.0
 20
0.0
  9
$PLIMMAX
 10
420.0
 20
297.0
  9
$UNITMODE
 70
0
  9
$VISRETAIN
 70
1
  9
$PLINEGEN
 70
0
  9
$PSLTSCALE
 70
1
  9
$TREEDEPTH
 70
3020
  9
$CMLSTYLE
  2
Standard
  9
$CMLJUST
 70
0
  9
$CMLSCALE
 40
20.0
  9
$PROXYGRAPHICS
 70
1
  9
$MEASUREMENT
 70
1
  9
$CELWEIGHT
370
-1
  9
$ENDCAPS
280
0
  9
$JOINSTYLE
280
0
  9
$LWDISPLAY
290
0
  9
$INSUNITS
 70
4
  9
$HYPERLINKBASE
  1

  9
$STYLESHEET
  1

  9
$XEDIT
290
1
  9
$CEPSNTYPE
380
0
  9
$PSTYLEMODE
290
1
  9
$FINGERPRINTGUID
  2
{527057FC-C4D9-462A-97B1-F4F03FABE30C}
  9
$VERSIONGUID
  2
{08BD1E6D-2272-4F34-A0CD-79B9FDDD21AA}
  9
$EXTNAMES
290
1
  9
$PSVPSCALE
 40
0.0
  9
$OLESTARTUP
290
0
  9
$SORTENTS
280
127
  9
$INDEXCTL
280
0
  9
$HIDETEXT
280
1
  9
$XCLIPFRAME
280
0
  9
$HALOGAP
280
0
  9
$OBSCOLOR
 70
257
  9
$OBSLTYPE
280
0
  9
$INTERSECTIONDISPLAY
280
0
  9
$INTERSECTIONCOLOR
 70
257
  9
$DIMASSOC
280
2
  9
$PROJECTNAME
  1

  9
$CAMERADISPLAY
290
0
  9
$LENSLENGTH
 40
50.0
  9
$CAMERAHEIGHT
 40
0.0
  9
$STEPSPERSEC
 40
24.0
  9
$STEPSIZE
 40
100.0
  9
$3DDWFPREC
 40
2.0
  9
$PSOLWIDTH
 40
0.005
  9
$PSOLHEIGHT
 40
0.08
  9
$LOFTANG1
 40
1.570796326795
  9
$LOFTANG2
 40
1.570796326795
  9
$LOFTMAG1
 40
0.0
  9
$LOFTMAG2
 40
0.0
  9
$LOFTPARAM
 70
7
  9
$LOFTNORMALS
280
1
  9
$LATITUDE
 40
37.795
  9
$LONGITUDE
 40
-122.394
  9
$NORTHDIRECTION
 40
0.0
  9
$TIMEZONE
 70
-8000
  9
$LIGHTGLYPHDISPLAY
280
1
  9
$TILEMODELIGHTSYNCH
280
1
  9
$CMATERIAL
347
20
  9
$SOLIDHIST
280
0
  9
$SHOWHIST
280
1
  9
$DWFFRAME
280
2
  9
$DGNFRAME
280
2
  9
$REALWORLDSCALE
290
1
  9
$INTERFERECOLOR
 62
256
  9
$CSHADOW
280
0
  9
$SHADOWPLANELOCATION
 40
0.0
  0
ENDSEC
  0
SECTION
  2
CLASSES
  0
CLASS
  1
ACDBDICTIONARYWDFLT
  2
AcDbDictionaryWithDefault
  3
ObjectDBX Classes
 90
0
 91
0
280
0
281
0
  0
CLASS
  1
SUN
  2
AcDbSun
  3
SCENEOE
 90
1153
 91
0
280
0
281
0
  0
CLASS
  1
VISUALSTYLE
  2
AcDbVisualStyle
  3
ObjectDBX Classes
 90
4095
 91
0
280
0
281
0
  0
CLASS
  1
MATERIAL
  2
AcDbMaterial
  3
ObjectDBX Classes
 90
1153
 91
0
280
0
281
0
  0
CLASS
  1
SCALE
  2
AcDbScale
  3
ObjectDBX Classes
 90
1153
 91
0
280
0
281
0
  0
CLASS
  1
TABLESTYLE
  2
AcDbTableStyle
  3
ObjectDBX Classes
 90
4095
 91
0
280
0
281
0
  0
CLASS
  1
MLEADERSTYLE
  2
AcDbMLeaderStyle
  3
ACDB_MLEADERSTYLE_CLASS
 90
4095
 91
0
280
0
281
0
  0
CLASS
  1
DICTIONARYVAR
  2
AcDbDictionaryVar
  3
ObjectDBX Classes
 90
0
 91
0
280
0
281
0
  0
CLASS
  1
CELLSTYLEMAP
  2
AcDbCellStyleMap
  3
ObjectDBX Classes
 90
1152
 91
0
280
0
281
0
  0
CLASS
  1
MENTALRAYRENDERSETTINGS
  2
AcDbMentalRayRenderSettings
  3
SCENEOE
 90
1024
 91
0
280
0
281
0
  0
CLASS
  1
ACDBDETAILVIEWSTYLE
  2
AcDbDetailViewStyle
  3
ObjectDBX Classes
 90
1025
 91
0
280
0
281
0
  0
CLASS
  1
ACDBSECTIONVIEWSTYLE
  2
AcDbSectionViewStyle
  3
ObjectDBX Classes
 90
1025
 91
0
280
0
281
0
  0
CLASS
  1
RASTERVARIABLES
  2
AcDbRasterVariables
  3
ISM
 90
0
 91
0
280
0
281
0
  0
CLASS
  1
LAYOUT
  2
AcDbLayout
  3
ObjectDBX Classes
 90
0
 91
0
280
0
281
0
  0
CLASS
  1
ACDBPLACEHOLDER
  2
AcDbPlaceHolder
  3
ObjectDBX Classes
 90
0
 91
0
280
0
281
0
  0
ENDSEC
  0
SECTION
  2
TABLES
  0
TABLE
  2
VPORT
  5
8
330
0
100
AcDbSymbolTable
 70
1
  0
VPORT
  5
23
330
8
100
AcDbSymbolTableRecord
100
AcDbViewportTableRecord
  2
*Active
 70
0
 10
0.0
 20
0.0
 11
1.0
 21
1.0
 12
0.0
 22
0.0
 13
0.0
 23
0.0
 14
0.5
 24
0.5
 15
0.5
 25
0.5
 16
0.0
 26
0.0
 36
1.0
 17
0.0
 27
0.0
 37
0.0
 40
1000.0
 41
1.34
 42
50.0
 43
0.0
 44
0.0
 50
0.0
 51
0.0
 71
0
 72
1000
 73
1
 74
3
 75
0
 76
0
 77
0
 78
0
281
0
 65
0
146
0.0
  0
ENDTAB
  0
TABLE
  2
LTYPE
  5
2
330
0
100
AcDbSymbolTable
 70
3
  0
LTYPE
  5
24
330
2
100
AcDbSymbolTableRecord
100
AcDbLinetypeTableRecord
  2
ByBlock
 70
0
  3

 72
65
 73
0
 40
0.0
  0
LTYPE
  5
25
330
2
100
AcDbSymbolTableRecord
100
AcDbLinetypeTableRecord
  2
ByLayer
 70
0
  3

 72
65
 73
0
 40
0.0
  0
LTYPE
  5
26
330
2
100
AcDbSymbolTableRecord
100
AcDbLinetypeTableRecord
  2
Continuous
 70
0
  3

 72
65
 73
0
 40
0.0
  0
ENDTAB
  0
TABLE
  2
LAYER
  5
1
330
0
100
AcDbSymbolTable
 70
3
  0
LAYER
  5
27
330
1
100
AcDbSymbolTableRecord
100
AcDbLayerTableRecord
  2
0
 70
0
 62
7
  6
Continuous
370
-3
390
13
347
21
  0
LAYER
  5
28
330
1
100
AcDbSymbolTableRecord
100
AcDbLayerTableRecord
  2
Defpoints
 70
0
 62
7
  6
Continuous
290
0
370
-3
390
13
347
21
  0
LAYER
  5
2F
330
1
100
AcDbSymbolTableRecord
100
AcDbLayerTableRecord
  2
default
 70
0
 62
7
  6
Continuous
370
-3
390
13
347
21
  0
ENDTAB
  0
TABLE
  2
STYLE
  5
5
330
0
100
AcDbSymbolTable
 70
1
  0
STYLE
  5
29
330
5
100
AcDbSymbolTableRecord
100
AcDbTextStyleTableRecord
  2
Standard
 70
0
 40
0.0
 41
1.0
 50
0.0
 71
0
 42
2.5
  3
txt
  4

  0
ENDTAB
  0
TABLE
  2
VIEW
  5
7
330
0
100
AcDbSymbolTable
 70
0
  0
ENDTAB
  0
TABLE
  2
UCS
  5
6
330
0
100
AcDbSymbolTable
 70
0
  0
ENDTAB
  0
TABLE
  2
APPID
  5
3
330
0
100
AcDbSymbolTable
 70
3
  0
APPID
  5
2A
330
3
100
AcDbSymbolTableRecord
100
AcDbRegAppTableRecord
  2
ACAD
 70
0
  0
APPID
  5
34
330
3
100
AcDbSymbolTableRecord
100
AcDbRegAppTableRecord
  2
HATCHBACKGROUNDCOLOR
 70
0
  0
APPID
  5
35
330
3
100
AcDbSymbolTableRecord
100
AcDbRegAppTableRecord
  2
EZDXF
 70
0
  0
ENDTAB
  0
TABLE
  2
DIMSTYLE
  5
4
330
0
100
AcDbSymbolTable
 70
1
100
AcDbDimStyleTable
  0
DIMSTYLE
105
2B
330
4
100
AcDbSymbolTableRecord
100
AcDbDimStyleTableRecord
  2
Standard
 70
0
 40
1.0
 41
2.5
 42
0.625
 43
3.75
 44
1.25
 45
0.0
 46
0.0
 47
0.0
 48
0.0
 49
2.5
140
2.5
141
2.5
142
0.0
143
0.03937007874
144
1.0
145
0.0
146
1.0
147
0.625
148
0.0
 69
0
 70
0
 71
0
 72
0
 73
0
 74
0
 75
0
 76
0
 77
1
 78
8
 79
3
170
0
171
3
172
1
173
0
174
0
175
0
176
0
177
0
178
0
179
2
271
2
272
2
273
2
274
3
275
0
276
0
277
2
278
44
279
0
280
0
281
0
282
0
283
0
284
8
285
0
286
0
288
0
289
3
290
0
371
-2
372
-2
  0
ENDTAB
  0
TABLE
  2
BLOCK_RECORD
  5
9
330
0
100
AcDbSymbolTable
 70
2
  0
BLOCK_RECORD
  5
17
330
9
100
AcDbSymbolTableRecord
100
AcDbBlockTableRecord
  2
*Model_Space
340
1A
 70
0
280
1
281
0
  0
BLOCK_RECORD
  5
1B
330
9
100
AcDbSymbolTableRecord
100
AcDbBlockTableRecord
  2
*Paper_Space
340
1E
 70
0
280
1
281
0
  0
ENDTAB
  0
ENDSEC
  0
SECTION
  2
BLOCKS
  0
BLOCK
  5
18
330
17
100
AcDbEntity
  8
0
100
AcDbBlockBegin
  2
*Model_Space
 70
0
 10
0.0
 20
0.0
 30
0.0
  3
*Model_Space
  1

  0
ENDBLK
  5
19
330
17
100
AcDbEntity
  8
0
100
AcDbBlockEnd
  0
BLOCK
  5
1C
330
1B
100
AcDbEntity
  8
0
100
AcDbBlockBegin
  2
*Paper_Space
 70
0
 10
0.0
 20
0.0
 30
0.0
  3
*Paper_Space
  1

  0
ENDBLK
  5
1D
330
1B
100
AcDbEntity
  8
0
100
AcDbBlockEnd
  0
ENDSEC
  0
SECTION
  2
ENTITIES
  0
LWPOLYLINE
  5
30
330
17
100
AcDbEntity
  8
default
100
AcDbPolyline
 90
413
 70
0
 10
97.50541083728983
 20
4.611222163333337
 10
96.83283563885647
 20
4.76767978596667
 10
96.3173980117898
 20
4.972577225100002
 10
95.82684077145646
 20
5.251945610166669
 10
95.26025370555645
 20
5.661178532600003
 10
94.58593938605645
 20
6.235559621733335
 10
93.87638590992313
 20
6.944808717933337
 10
93.29245214282314
 20
7.626425622433336
 10
92.85024617648982
 20
8.214088690033337
 10
92.49756665645647
 20
8.730364106400003
 10
92.19087751262315
 20
9.20213070356667
 10
91.9414905821898
 20
9.61916253233334
 10
91.73874515792312
 20
9.987854459533338
 10
91.56298009462313
 20
10.333332939933339
 10
91.39326609682313
 20
10.678803614000007
 10
91.22731543385648
 20
11.047379956866674
 10
91.05961145962313
 20
11.463284665500007
 10
90.89395048788981
 20
11.92733363043334
 10
90.72627595525648
 20
12.406707693200008
 10
90.56061705552315
 20
12.874744704966677
 10
90.39294261922312
 20
13.310525753533343
 10
90.22728372215646
 20
13.746761583600009
 10
90.0596092858898
 20
14.246043497200008
 10
89.89395038882314
 20
14.81386237983334
 10
89.72627595255648
 20
15.385875960100009
 10
89.5606170554898
 20
15.95279590553334
 10
89.39294261922313
 20
16.544135997266675
 10
89.22728372215647
 20
17.179817904766676
 10
89.05960928588979
 20
17.834656789566676
 10
88.89395038882313
 20
18.50132907073334
 10
88.72627595255648
 20
19.165690509666675
 10
88.56061705548979
 20
19.834343273966677
 10
88.39294261922313
 20
20.498992329433342
 10
88.22728372215647
 20
21.167674438966674
 10
88.05960928588979
 20
21.83232556376668
 10
87.89395038882313
 20
22.501007769566684
 10
87.72627595255646
 20
23.165658894366683
 10
87.5606170554898
 20
23.834341003900015
 10
87.39294261922315
 20
24.498990059366683
 10
87.22728372215649
 20
25.167642823700014
 10
87.05960928588982
 20
25.83200426530002
 10
86.89395038882314
 20
26.498676642833356
 10
86.72627595255645
 20
27.15351760230002
 10
86.56061705548979
 20
27.78922904763335
 10
86.39294261922313
 20
28.380860894566684
 10
86.22728372215644
 20
28.949820013533348
 10
86.05960928588979
 20
29.531931375666684
 10
85.89395038882313
 20
30.134701405666686
 10
85.72627595255648
 20
30.71652308460002
 10
85.56061705548981
 20
31.283443030066678
 10
85.39294261922312
 20
31.86497502580001
 10
85.22728372215646
 20
32.465705882266676
 10
85.0596092858898
 20
33.037717390533345
 10
84.89395038882314
 20
33.57169582433335
 10
84.72627595255648
 20
34.08049615073335
 10
84.5606170554898
 20
34.583484307166685
 10
84.39294261922313
 20
35.08247654023335
 10
84.22728372215647
 20
35.581504019333345
 10
84.05960928588979
 20
36.07069022306668
 10
83.89395038882313
 20
36.53875667366668
 10
83.72627595255648
 20
36.965017240066686
 10
83.56061705548979
 20
37.36828230963335
 10
83.39294261922313
 20
37.79425525950002
 10
83.22728372215647
 20
38.26031188176668
 10
83.05960928588979
 20
38.73968584816669
 10
82.89395038882313
 20
39.20571312523335
 10
82.72627595255646
 20
39.63139639190002
 10
82.5606170554898
 20
40.032651633133355
 10
82.39294261922315
 20
40.449102028866704
 10
82.22728372215649
 20
40.88419762260003
 10
82.05960928588982
 20
41.300362473800035
 10
81.89395038882314
 20
41.699637424466694
 10
81.72627595255645
 20
42.11580020633336
 10
81.56061705548979
 20
42.55086635856669
 10
81.39294261922313
 20
42.96702706843335
 10
81.22728372215644
 20
43.36627248130002
 10
81.05960928588979
 20
43.78214557730003
 10
80.89395038882313
 20
44.21520199753336
 10
80.72627595255648
 20
44.62155461406668
 10
80.56061705548981
 20
44.98785880426668
 10
80.39294261922312
 20
45.33100437760002
 10
80.22728372215646
 20
45.66637698076668
 10
80.0596092858898
 20
46.00028968316668
 10
79.89395038882311
 20
46.33566219003335
 10
79.72627595255643
 20
46.67880569136669
 10
79.56061705548979
 20
47.04508044003336
 10
79.3929426192231
 20
47.451143370700024
 10
79.22728372215644
 20
47.88218996260002
 10
79.05960928588978
 20
48.288252890600035
 10
78.89395038882313
 20
48.654527542933366
 10
78.72627595255646
 20
48.99766897226669
 10
78.56061705548979
 20
49.33301203760003
 10
78.3929426192231
 20
49.666635054133366
 10
78.22728372215646
 20
49.99999782896669
 10
78.05960928588979
 20
50.33333323430003
 10
77.89395038882313
 20
50.666666663966694
 10
77.72627595252312
 20
51.000000000000014
 10
77.5606170527898
 20
51.33333333603335
 10
77.39294252018979
 20
51.66666676570002
 10
77.22728155112313
 20
52.000002171033366
 10
77.05957767335647
 20
52.3333649458667
 10
76.89362909308979
 20
52.66698796240003
 10
76.72394492482312
 20
53.00233102773337
 10
76.54847793175645
 20
53.3454724570667
 10
76.34786217645646
 20
53.71174710943336
 10
76.10947368205646
 20
54.117810040100046
 10
75.84408589092313
 20
54.54885672830004
 10
75.60569532718978
 20
54.954921728300036
 10
75.40505013038978
 20
55.321225822166696
 10
75.22929345145646
 20
55.6646569373667
 10
75.05759945485647
 20
56.00200983103337
 10
74.8818407065898
 20
56.3454430155667
 10
74.68116606828981
 20
56.711776550933365
 10
74.44248581868982
 20
57.11813123680003
 10
74.17508819918982
 20
57.551187753366705
 10
73.92688953412313
 20
57.96706085470004
 10
73.69330292192313
 20
58.3663063639667
 10
73.44481457365646
 20
58.78246914850003
 10
73.17537778062312
 20
59.21756483860004
 10
72.92659767715647
 20
59.63401937833336
 10
72.69094235315646
 20
60.03533359940003
 10
72.43235204165646
 20
60.46159834710003
 10
72.12793321212312
 20
60.931676068366706
 10
71.79629455575646
 20
61.4309889682667
 10
71.42753122552313
 20
61.965407046233366
 10
71.00929888285646
 20
62.55125474943337
 10
70.51084786662314
 20
63.21478114700004
 10
69.87481239408979
 20
64.0144125160667
 10
68.86960890898979
 20
65.16507519050005
 10
67.24700154412312
 20
66.88539581390003
 10
65.1955089845898
 20
68.93688837343338
 10
63.4751883611898
 20
70.55949573830003
 10
62.324525686756466
 20
71.56469922340003
 10
61.5248943176898
 20
72.20073469593336
 10
60.861367920123136
 20
72.6991857121667
 10
60.27552021692313
 20
73.11741805483337
 10
59.74110213895645
 20
73.48618138506671
 10
59.24178923905646
 20
73.81782004143336
 10
58.7717115177898
 20
74.12223887096673
 10
58.3454467700898
 20
74.38082918246671
 10
57.94413254902313
 20
74.6164845064667
 10
57.5276780092898
 20
74.86526460993338
 10
57.09258231915646
 20
75.13470140300004
 10
56.67641953195646
 20
75.38318975393337
 10
56.27717392638979
 20
75.61677646243336
 10
55.86129875572312
 20
75.86497719683337
 10
55.428212893989794
 20
76.13240416150003
 10
55.02157059692313
 20
76.37137202230004
 10
54.65325677105646
 20
76.57402695110002
 10
54.30030517372313
 20
76.7593041121667
 10
53.932020693056465
 20
76.9619296957667
 10
53.52566807918979
 20
77.2006078733667
 10
53.094592045789796
 20
77.46602500970005
 10
52.68852704578978
 20
77.70441557343337
 10
52.32225229712312
 20
77.90503142503336
 10
51.97911086512312
 20
78.08049842076669
 10
51.64376779975645
 20
78.25018258906668
 10
51.310144783223116
 20
78.41613116933335
 10
50.976782008389776
 20
78.58383504710004
 10
50.64344660305645
 20
78.74949601616669
 10
50.31011317338978
 20
78.91717054876669
 10
49.97677983738977
 20
79.08282944850004
 10
49.6434465040231
 20
79.25050388480003
 10
49.31011317068979
 20
79.41616278186669
 10
48.97677983735644
 20
79.58383721813337
 10
48.64344650402309
 20
79.74949611520002
 10
48.310113170689775
 20
79.9171705514667
 10
47.97677983735643
 20
80.08282944853339
 10
47.6434465040231
 20
80.25050388480004
 10
47.31011317065643
 20
80.4161627818667
 10
46.97677983465643
 20
80.5838372181334
 10
46.64344640498976
 20
80.74949611520006
 10
46.310110999656445
 20
80.91717055146671
 10
45.97674822482311
 20
81.08282944853337
 10
45.643125208289774
 20
81.25050388480003
 10
45.30778214295644
 20
81.41616278186672
 10
44.96464071362311
 20
81.58383721813337
 10
44.59836606125644
 20
81.74949611520003
 10
44.19230313058979
 20
81.91717055146671
 10
43.76125644238979
 20
82.08282944853337
 10
43.35519144238978
 20
82.25050388480004
 10
42.98888734855644
 20
82.41616278186672
 10
42.645456236023115
 20
82.58383721813338
 10
42.30810343865645
 20
82.74949611520005
 10
41.96467232345644
 20
82.9171705514667
 10
41.59836813328978
 20
83.08282944853337
 10
41.19230106128978
 20
83.25050388480005
 10
40.76122493158978
 20
83.41616278186672
 10
40.35487231772312
 20
83.58383721813337
 10
39.98658793332311
 20
83.74949611520005
 10
39.63363840532311
 20
83.91717055146671
 10
39.265353924656445
 20
84.08282944853337
 10
38.85899924145644
 20
84.25050388480003
 10
38.427893766556444
 20
84.41616278186669
 10
38.021539080689784
 20
84.58383721813338
 10
37.65325450368978
 20
84.74949611520006
 10
37.30030290368978
 20
84.91717055146673
 10
36.93198907782311
 20
85.08282944853339
 10
36.52534678342311
 20
85.25050388480004
 10
36.09226101805645
 20
85.4161627818667
 10
35.67638792205645
 20
85.5838372181334
 10
35.27717185435644
 20
85.74949611520006
 10
34.86130082502311
 20
85.91717055146671
 10
34.42824440478977
 20
86.08282944853337
 10
34.02188972158977
 20
86.25050388480003
 10
33.65555618625643
 20
86.41616278186672
 10
33.31212300172311
 20
86.58383721813337
 10
32.97477010805644
 20
86.74949611520003
 10
32.6313389928231
 20
86.91717055150005
 10
32.26503489628977
 20
87.0828294512334
 10
31.85896979995644
 20
87.25050398383337
 10
31.427921039756445
 20
87.41616495290006
 10
31.021828667556445
 20
87.58386883070006
 10
30.65526432932311
 20
87.74981741363337
 10
30.310113071423103
 20
87.91950167846672
 10
29.964959819456443
 20
88.09497076223337
 10
29.59836537072311
 20
88.29561663603337
 10
29.191968907723112
 20
88.53430941403339
 10
28.75870639968978
 20
88.80191510500005
 10
28.34083496282311
 20
89.05217118150004
 10
27.92781318125644
 20
89.3001196644667
 10
27.44503507722311
 20
89.61933180043337
 10
26.78947983495644
 20
90.12972808930004
 10
25.89919670328977
 20
90.92445905126671
 10
24.898847005023107
 20
91.93612433733338
 10
24.107144112189772
 20
92.86911398876671
 10
23.603136140956437
 20
93.64442995646671
 10
23.31396390025644
 20
94.37982180430006
 10
23.168951611823104
 20
95.19630729546674
 10
23.15740541668977
 20
96.0632188703334
 10
23.255231618423103
 20
96.77396953280008
 10
23.41252376375644
 20
97.28238179596674
 10
23.621144630623107
 20
97.68992660276675
 10
23.903796528889767
 20
98.08089722470007
 10
24.285506273323108
 20
98.46350607886674
 10
24.733775430656443
 20
98.80974791130006
 10
25.211630953556444
 20
99.1181280659334
 10
25.721579741256445
 20
99.36778088950004
 10
26.383024123923107
 20
99.56661960823341
 10
27.42203083085644
 20
99.7222061148001
 10
29.02352249022311
 20
99.82196062150008
 10
30.98962166672311
 20
99.82225247306675
 10
32.662122965623105
 20
99.72456875503343
 10
33.82372762272311
 20
99.57911164040009
 10
34.61558611535645
 20
99.41551584023338
 10
35.243553996223106
 20
99.25044046156671
 10
35.83865996158978
 20
99.08282510106673
 10
36.43980290268978
 20
98.91717035333339
 10
37.002322936823106
 20
98.74949610980005
 10
37.503361496589775
 20
98.58383721806673
 10
37.939146723789776
 20
98.41616278186675
 10
38.34244133162311
 20
98.25050388480008
 10
38.759183485223105
 20
98.08282944853342
 10
39.19430852052311
 20
97.91717055146674
 10
39.61047337438978
 20
97.74949611520006
 10
40.00971897992311
 20
97.5838372181334
 10
40.42559208125645
 20
97.41616278186673
 10
40.85864850152312
 20
97.25050388480008
 10
41.265001115389786
 20
97.08282944853342
 10
41.63130520925644
 20
96.91717055146675
 10
41.974448710589776
 20
96.74949611520009
 10
42.30979187225644
 20
96.5838372181334
 10
42.64341489145643
 20
96.41616278186672
 10
42.976777666323095
 20
96.25050388480005
 10
43.31011307165643
 20
96.08282944853339
 10
43.6434465013231
 20
95.91717055146671
 10
43.97677983732309
 20
95.74949611520006
 10
44.31011317068976
 20
95.5838372181334
 10
44.64344650405643
 20
95.41616278183338
 10
44.97677984005644
 20
95.25050388210003
 10
45.3101132697231
 20
95.08282934950003
 10
45.643448675056426
 20
94.91716838043337
 10
45.9768114499231
 20
94.74946450263339
 10
46.3104344691231
 20
94.58351591970006
 10
46.645777630823105
 20
94.41383165506672
 10
46.988921134823116
 20
94.23836258733338
 10
47.35522532498978
 20
94.03771729423337
 10
47.761580008189775
 20
93.79903704730006
 10
48.19466577358978
 20
93.53161017896673
 10
48.61082648345646
 20
93.28312390536674
 10
49.012052283189796
 20
93.04755700270005
 10
49.437733480523136
 20
92.78955024163338
 10
49.903760757589794
 20
92.48918186163337
 10
50.38313679332313
 20
92.1774802621667
 10
50.84922285712313
 20
91.87705309543338
 10
51.27548549552313
 20
91.61846489330006
 10
51.680760489789805
 20
91.37884879610004
 10
52.11683329885647
 20
91.11045042330005
 10
52.61790004792313
 20
90.77504257130005
 10
53.1803972953898
 20
90.38021976010005
 10
53.78118732472314
 20
89.94508862783339
 10
54.3728233849898
 20
89.52112700383337
 10
54.97676550152314
 20
89.0828437843667
 10
55.65185384872313
 20
88.57542987343338
 10
56.425015510256465
 20
87.96792710896673
 10
57.262296595589795
 20
87.29832045990004
 10
58.211054801156465
 20
86.51522115140003
 10
59.43465015045646
 20
85.45930023830003
 10
61.31227990625646
 20
83.74732937423337
 10
64.21679339388979
 20
81.01049013013338
 10
67.94248109768981
 20
77.4504571740667
 10
71.50066450488981
 20
74.05988912740004
 10
74.54780523875647
 20
71.17782377486671
 10
77.1367487144898
 20
68.7524761956667
 10
79.46280744068979
 20
66.57187665880004
 10
81.5135441648898
 20
64.61885319313338
 10
83.33935285195646
 20
62.7930445060667
 10
84.93802209042315
 20
61.0966620090667
 10
86.35434970168981
 20
59.534875208466694
 10
87.50677878275648
 20
58.21885023086669
 10
88.41750243848983
 20
57.14305119380003
 10
89.12057320942314
 20
56.27236506233336
 10
89.69970740725648
 20
55.5275761167667
 10
90.20795316282312
 20
54.85165611766671
 10
90.68019267308978
 20
54.2137577156667
 10
91.09493173285647
 20
53.63134421970004
 10
91.46532065545648
 20
53.09529640003338
 10
91.8067424607898
 20
52.58620015843337
 10
92.14413069972314
 20
52.08315302243337
 10
92.47573818505647
 20
51.58387110083338
 10
92.81108715398977
 20
51.082863234833376
 10
93.14211733692315
 20
50.58415861563336
 10
93.47545647745648
 20
50.08516057803337
 10
93.7969641035898
 20
49.59597851563337
 10
94.09934211932314
 20
49.12794160283337
 10
94.35763856358979
 20
48.70197072230004
 10
94.59323500405648
 20
48.300715384766704
 10
94.84172542165646
 20
47.884550530900036
 10
95.10918182782314
 20
47.45143522766669
 10
95.34815176062314
 20
47.044790858600024
 10
95.55080678575648
 20
46.67647693640002
 10
95.73608394948981
 20
46.32352533640003
 10
95.93870953312313
 20
45.95524085570003
 10
96.17738771072314
 20
45.54888824183336
 10
96.4428048470565
 20
45.11781220843335
 10
96.68119541078983
 20
44.71174720843335
 10
96.88181126238982
 20
44.34547245976669
 10
97.05727825812315
 20
44.00233102776668
 10
97.22696242642317
 20
43.666987962400015
 10
97.39291100668983
 20
43.33336494586668
 10
97.5606148844565
 20
43.000002171033344
 10
97.72627585352316
 20
42.66666676570001
 10
97.89395038612317
 20
42.33333333603334
 10
98.0596092858565
 20
42.00000000003334
 10
98.2272837221565
 20
41.66666666666667
 10
98.39294261922316
 20
41.33333333330001
 10
98.56061705548983
 20
40.99999999730001
 10
98.72627595255648
 20
40.66666656763334
 10
98.89395038882314
 20
40.33333116230001
 10
99.0596092858898
 20
39.99996838746667
 10
99.2272837221565
 20
39.66634537093335
 10
99.39294261922318
 20
39.33100230556668
 10
99.56061705548984
 20
38.98786087356668
 10
99.72627595255649
 20
38.62158612490002
 10
99.89395038882316
 20
38.215521124900015
 10
100.0596092858898
 20
37.78444509150002
 10
100.22728372215647
 20
37.37809247763335
 10
100.39294261922316
 20
37.009807996966686
 10
100.56061705548984
 20
36.65685639963335
 10
100.7262759525565
 20
36.28854257376669
 10
100.89395038882317
 20
35.881900276700016
 10
101.05960928588982
 20
35.44881441496668
 10
101.22728372215649
 20
35.03293924430002
 10
101.39294261922315
 20
34.63369363876669
 10
101.56061705548981
 20
34.21753085423335
 10
101.7262759525565
 20
33.782435260466684
 10
101.89395038882317
 20
33.365982795400015
 10
102.05960928588983
 20
32.96469811270002
 10
102.2272837221565
 20
32.538725162833344
 10
102.39294261922315
 20
32.07068815373335
 10
102.56061705548981
 20
31.581506088666682
 10
102.72627595255648
 20
31.082508051066682
 10
102.89395038882316
 20
30.583803434533348
 10
103.05960928588983
 20
30.08279566490002
 10
103.2272837221565
 20
29.58351581796669
 10
103.39294261922316
 20
29.080498220000024
 10
103.56061705548983
 20
28.57169374960002
 10
103.72627595255648
 20
28.037685681600014
 10
103.89395038882314
 20
27.465382410133348
 10
104.0596092858898
 20
26.862612187333347
 10
104.2272837221565
 20
26.270978257733347
 10
104.39294261922318
 20
25.669047992600014
 10
104.56061705542317
 20
25.00410094193335
 10
104.72627594715648
 20
24.266538141000016
 10
104.89395019068982
 20
23.518171939400013
 10
105.05960493842315
 20
22.744342069233344
 10
105.22722029895647
 20
21.882579982300015
 10
105.3922956802898
 20
20.864569489933345
 10
105.55589157682316
 20
19.664592859533343
 10
105.70135076615648
 20
18.205713078766678
 10
105.79906402468984
 20
16.483615249966675
 10
105.79906402468984
 20
14.63616261870001
 10
105.70135076612316
 20
13.059238434666677
 10
105.55589157412315
 20
11.859687515766673
 10
105.39229558115647
 20
10.960724877466673
 10
105.22721811978981
 20
10.242962533700005
 10
105.05957302608982
 20
9.648689663466673
 10
104.89362228278982
 20
9.143071826633337
 10
104.72384790808982
 20
8.714113112000003
 10
104.54748233288981
 20
8.333052465733337
 10
104.34054562382315
 20
7.95064459286667
 10
104.07069357398981
 20
7.515127646000004
 10
103.69638204965648
 20
6.995063113200005
 10
103.20482351068982
 20
6.405762361100003
 10
102.62822402462315
 20
5.829175497100003
 10
102.10166821332315
 20
5.400543184100004
 10
101.67557119042317
 20
5.121994278066669
 10
101.30046558758983
 20
4.925165658300002
 10
100.89241892295647
 20
4.755219462866669
 10
100.32564295825648
 20
4.60886169676667
 10
99.47327819588985
 20
4.51108777226667
 10
98.42270673402317
 20
4.511379527466671
 10
97.50541083728983
 20
4.611222163333337
  0
LWPOLYLINE
  5
31
330
17
100
AcDbEntity
  8
default
100
AcDbPolyline
 90
122
 70
0
 10
66.90806534713467
 20
68.31878441207185
 10
67.0163098744398
 20
68.21053988476672
 10
67.79691544608409
 20
67.40469219078345
 10
68.51887077605352
 20
68.8814849704504
 10
78.24479786772281
 20
63.580007718876004
 10
75.02970087871273
 20
57.68168968009089
 10
75.0465494391523
 20
57.653004793004214
 10
75.1217913879523
 20
57.515640757804206
 10
75.1875922873523
 20
57.386961944804206
 10
75.2512238865898
 20
57.26120825916669
 10
75.3134546061898
 20
57.13609962596669
 10
75.37634359648979
 20
57.011088549266695
 10
75.4384672368898
 20
56.886086995266695
 10
75.5013562271898
 20
56.76107591856669
 10
75.56358694678981
 20
56.635967285366696
 10
75.62721854602731
 20
56.5102135997292
 10
75.69044333992025
 20
56.386572562836115
 10
79.4666509181261
 20
63.314286827575415
 10
80.96016774582318
 20
63.75401614734027
 10
80.00597862793983
 20
64.68422865931672
 10
79.97434650509929
 20
64.71469629191422
 10
79.12772525986657
 20
64.46542947599664
 10
69.33638536883518
 20
69.80256239976734
 10
71.11717839159596
 20
73.0695505019183
 10
70.21850581236353
 20
73.92816834368014
 10
68.14396089036018
 20
70.12227204302326
 10
58.68264849111438
 20
75.33049357496202
 10
62.12692652110136
 20
81.64926010200536
 10
61.8708193341023
 20
81.89161281165421
 10
61.22355743262552
 20
82.49926187283516
 10
57.82133083650842
 20
76.25764161348343
 10
49.05913351289928
 20
82.74843815760687
 10
52.741184240765406
 20
89.50341516205451
 10
52.587591990552305
 20
89.61196224160423
 10
52.374670877877314
 20
89.76276126787921
 10
52.187440159277315
 20
89.88711407287923
 10
52.02384071853981
 20
89.98859142721675
 10
51.860314194139804
 20
90.08924003801671
 10
51.73725380505463
 20
90.16893017821401
 10
47.86960426857695
 20
83.07345930906013
 10
45.360177944216495
 20
82.25349767478394
 10
45.407405415677275
 20
82.23002672906674
 10
45.53240541667727
 20
82.16714881546673
 10
45.65740541668977
 20
82.10502672906674
 10
45.78240541668977
 20
82.04214881546672
 10
45.90740541668978
 20
81.98002672906671
 10
46.03240541668977
 20
81.91714881546673
 10
46.15740541668977
 20
81.85502672906674
 10
46.28240541668977
 20
81.7921488154667
 10
46.40740541668977
 20
81.73002672906671
 10
46.53240541668978
 20
81.66714881546672
 10
46.65740541668977
 20
81.60502672906674
 10
46.78240541668977
 20
81.54214881546673
 10
46.88725863740255
 20
81.49003920877523
 10
48.17423695931211
 20
81.91056275134906
 10
52.59407429692011
 20
78.63646792587438
 10
52.6575259036023
 20
78.60490624215423
 10
52.7832795892273
 20
78.54127464292922
 10
52.9119584022273
 20
78.47547374352922
 10
53.04932243742731
 20
78.40023179472921
 10
53.201704667627304
 20
78.31072747812922
 10
53.3641008252023
 20
78.21045340695423
 10
53.5200532362023
 20
78.11737890955422
 10
53.6697702660148
 20
78.02978396614171
 10
53.825830531214805
 20
77.9366016145417
 10
53.988980302164805
 20
77.83557392999171
 10
54.1450405673648
 20
77.7423915783917
 10
54.294757597177295
 20
77.6547966349792
 10
54.45071000817731
 20
77.56172213757921
 10
54.613106165764805
 20
77.46144806639171
 10
54.7654883969648
 20
77.37194374879172
 10
54.9028524682898
 20
77.29670176386672
 10
55.03153205828979
 20
77.23090008746671
 10
55.1572967844898
 20
77.16725744766671
 10
55.2825140488898
 20
77.1049180968667
 10
55.4082787750898
 20
77.04127545706672
 10
55.5369583650898
 20
76.97547378066672
 10
55.6743224364023
 20
76.90023179575422
 10
55.82670466660231
 20
76.81072747915422
 10
55.989100788077316
 20
76.71045344407922
 10
56.1450524230773
 20
76.6173797226792
 10
56.2947584484648
 20
76.52979578369172
 10
56.45071086046481
 20
76.43672128529172
 10
56.61311805860231
 20
76.33643617355422
 10
56.7656096960023
 20
76.24682244975422
 10
56.9037384212523
 20
76.1708158109042
 10
57.036203901452296
 20
76.10122824430422
 10
57.175064231214805
 20
76.02449000094171
 10
57.3311244984148
 20
75.93130764734171
 10
57.5051310417023
 20
75.8194231904542
 10
57.6846797927023
 20
75.70275235305422
 10
57.8586863721023
 20
75.59086786005422
 10
58.0147474163023
 20
75.49768472945422
 10
58.1536187866398
 20
75.42093544551672
 10
58.28619289903979
 20
75.35123924671673
 10
58.4250753099273
 20
75.27447892222924
 10
58.58124576132731
 20
75.18118638442922
 10
58.756017030789806
 20
75.06853720136672
 10
58.93935244998981
 20
74.94807969576672
 10
59.126465673527306
 20
74.82308855862922
 10
59.31347835172731
 20
74.69895379402921
 10
59.50134518865231
 20
74.57320904350422
 10
59.68846649805231
 20
74.44896564770421
 10
59.8763444116648
 20
74.32320982049171
 10
60.063467276064806
 20
74.19896486969172
 10
60.2513563024648
 20
74.07319792969172
 10
60.438588574064795
 20
73.94884357169171
 10
60.627242218339795
 20
73.8223120138167
 10
60.8182596071398
 20
73.69417253861671
 10
61.019997959002296
 20
73.55455627315422
 10
61.241752834402305
 20
73.39567931135423
 10
61.49102376902731
 20
73.20853046312922
 10
61.7604097372148
 20
73.00202240851671
 10
62.0370622107648
 20
72.78749201936671
 10
62.298329031227304
 20
72.5891030402292
 10
62.56954526395231
 20
72.3800073379042
 10
62.915426627052305
 20
72.0969817350042
 10
63.39943446241481
 20
71.67487716764171
 10
64.05602640381481
 20
71.07963368744171
 10
64.25552186333621
 20
70.89296222296602
 10
67.33719020802528
 20
69.19657902047038
 10
66.90806534713467
 20
68.31878441207185
  0
LWPOLYLINE
  5
32
330
17
100
AcDbEntity
  8
default
100
AcDbPolyline
 90
91
 70
0
 10
31.764626115264782
 20
88.16714881546673
 10
31.90273275938978
 20
88.10502672906674
 10
32.03151942658978
 20
88.0421488154667
 10
32.15728411666478
 20
87.98002672906671
 10
32.28239352586478
 20
87.91714881546672
 10
32.40740463867728
 20
87.85502672906674
 10
32.53240619367728
 20
87.79214881546673
 10
32.65741727037727
 20
87.73002672906674
 10
32.78252590257728
 20
87.66714881546672
 10
32.90827955210228
 20
87.60502672906671
 10
33.036957589102286
 20
87.54214881546673
 10
33.174310619864784
 20
87.48002672906674
 10
33.326584995864785
 20
87.4171488154667
 10
33.48823854450228
 20
87.35502672906671
 10
33.640621550702285
 20
87.29214881546672
 10
33.77873923540229
 20
87.23002672906674
 10
33.91120393960229
 20
87.16714881546673
 10
34.05006426935229
 20
87.10502672906674
 10
34.2061253115523
 20
87.04214881546672
 10
34.38014285926479
 20
86.98002672906671
 10
34.55979946446479
 20
86.91714881546673
 10
34.73454865278979
 20
86.85502672906674
 10
34.89417910078979
 20
86.7921488154667
 10
35.04464978012729
 20
86.73002672906671
 10
35.20081867752729
 20
86.66714881546672
 10
35.363979525164794
 20
86.60502672906674
 10
35.520041344364785
 20
86.54214881546673
 10
35.66976945086479
 20
86.48002672906674
 10
35.82583049406479
 20
86.41714881546672
 10
35.98898030115229
 20
86.35502672906671
 10
36.14504056735228
 20
86.29214881546673
 10
36.29475759717728
 20
86.23002672906674
 10
36.45071000817729
 20
86.1671488154667
 10
36.613106165752285
 20
86.10502672906671
 10
36.76548839595229
 20
86.04214881546672
 10
36.90285243116479
 20
85.98002672906674
 10
37.031531245164786
 20
85.91714881546673
 10
37.15728496692728
 20
85.85502672906674
 10
37.28239437712728
 20
85.79214881546672
 10
37.40741649438978
 20
85.73002672906671
 10
37.53252667958978
 20
85.66714881546673
 10
37.65829140577729
 20
85.60502672906674
 10
37.787078073977284
 20
85.5421488154667
 10
37.92518471811478
 20
85.48002672906671
 10
38.08113635211478
 20
85.41714881546672
 10
38.25513181868979
 20
85.35502672906674
 10
38.43467901468979
 20
85.29214881546673
 10
38.608674481264785
 20
85.23002672906674
 10
38.76462611526479
 20
85.16714881546672
 10
38.902732759402284
 20
85.10502672906671
 10
39.03151942760228
 20
85.04214881546673
 10
39.15728415380228
 20
84.98002672906674
 10
39.28239434000227
 20
84.9171488154667
 10
39.407416493377276
 20
84.85502672906671
 10
39.53252667957728
 20
84.79214881546672
 10
39.65829140578978
 20
84.73002672906674
 10
39.787078074989786
 20
84.66714881546673
 10
39.925184755252296
 20
84.60502672906674
 10
40.0811371662523
 20
84.54214881546672
 10
40.255143673389796
 20
84.48002672906671
 10
40.29102680932549
 20
84.46746795623855
 10
37.566593123134226
 20
86.73752621095628
 10
42.348086485966604
 20
95.50950685498007
 10
42.28240541667727
 20
95.5421488154667
 10
42.15740541567728
 20
95.60502672906674
 10
42.03240537953978
 20
95.66714881546673
 10
41.907404601539774
 20
95.73002672906671
 10
41.782393524852274
 20
95.79214881546672
 10
41.657284116652285
 20
95.85502672906674
 10
41.53151942658978
 20
95.91714881546673
 10
41.402732759389785
 20
95.98002672906674
 10
41.270330116887514
 20
96.03958308458085
 10
36.43392946012318
 20
87.1668712082319
 10
34.30940247094259
 20
87.01354843238369
 10
28.04374346556142
 20
94.34014829341322
 10
30.483707025111546
 20
98.81643038616521
 10
30.402129572327286
 20
98.81944434251676
 10
29.35207868732729
 20
98.81944434251676
 10
29.11348020773287
 20
98.80994932827853
 10
26.941004239954054
 20
94.8243917436339
 10
24.226296612223223
 20
94.50838857714591
 10
24.251599016102286
 20
94.39962925840422
 10
24.31361481031479
 20
94.19476399926671
 10
24.377279785102292
 20
94.02977647707921
 10
24.44362931563979
 20
93.88584520934172
 10
24.522739654989792
 20
93.74060411971672
 10
24.631624462089793
 20
93.56807649020423
 10
24.7803373691892
 20
93.36477861020113
 10
27.07088205125183
 20
93.6314074601978
 10
31.73296113809006
 20
88.17991577178434
 10
31.764626115264782
 20
88.16714881546673
  0
LWPOLYLINE
  5
33
330
17
100
AcDbEntity
  8
default
100
AcDbPolyline
 90
140
 70
0
 10
94.2264337176457
 20
13.324951318558306
 10
92.18446618219295
 20
10.816028431355683
 10
92.18858776093981
 20
10.805265722154179
 10
92.25223040073982
 20
10.652118765754178
 10
92.31813993233982
 20
10.510967285354177
 10
92.39413556677731
 20
10.369170751516677
 10
92.48731869737732
 20
10.212356021691672
 10
92.5999568398898
 20
10.037487160579175
 10
92.72041434548981
 20
9.854140700804173
 10
92.82337308692533
 20
9.700014116184807
 10
95.0732747791335
 20
12.464421361219138
 10
103.84280470060185
 20
9.354756840970367
 10
103.89283474280872
 20
9.231334040958458
 10
103.93846645988984
 20
9.359712130529173
 10
104.00134437348986
 20
9.543156959929174
 10
104.06346645988985
 20
9.731045986429173
 10
104.12634437348986
 20
9.921956301029175
 10
104.18846645988985
 20
10.123716842329175
 10
104.25134437348984
 20
10.345799937329174
 10
104.31346645988985
 20
10.597375801954176
 10
104.37634437346485
 20
10.878227284954175
 10
104.43846645786482
 20
11.194908853904174
 10
104.47676431920594
 20
11.412569911877908
 10
104.0156743247062
 20
10.566668391227722
 10
95.38889895100147
 20
13.625712324399501
 10
94.80922288773581
 20
16.242450004443526
 10
98.57530213426799
 20
23.15158314537257
 10
104.12498064669333
 20
22.294947390053792
 10
104.06346645988985
 20
22.60337216755418
 10
104.00134437348986
 20
22.91777063461668
 10
103.93846645988984
 20
23.229137671816687
 10
103.87634437348984
 20
23.54201779924168
 10
103.87517913042413
 20
23.54771781322456
 10
98.65673535130918
 20
24.353224928490818
 10
96.37987885111943
 20
29.175789216998965
 10
100.71239744767354
 20
33.68710698659697
 10
100.68846645988984
 20
33.74786145636669
 10
100.62634437348984
 20
33.89833213570419
 10
100.56346645988985
 20
34.05450103310419
 10
100.50134437348984
 20
34.21766188074169
 10
100.43846645988985
 20
34.373723699941685
 10
100.37634437348986
 20
34.52345180645418
 10
100.31346645988985
 20
34.67951285065419
 10
100.25134437348986
 20
34.84266269386669
 10
100.22387186537284
 20
34.910848612110314
 10
95.47824709070846
 20
29.96937614167109
 10
89.0640019653365
 20
31.79941271012649
 10
87.28611572086811
 20
34.97557298652828
 10
92.0502699543722
 20
42.505352600477636
 10
95.3552817213349
 20
43.27087450725958
 10
97.47999916121582
 20
41.053521615590846
 10
97.43846645988985
 20
41.13608777226668
 10
97.37634437348984
 20
41.261087772266684
 10
97.31346645988985
 20
41.38608777226668
 10
97.25134437348986
 20
41.51108777226667
 10
97.18846645988985
 20
41.63608777226667
 10
97.12634437348986
 20
41.76108777226668
 10
97.06346645988984
 20
41.886087772266684
 10
97.00134437348984
 20
42.01108777226668
 10
96.93846645988984
 20
42.13608777226667
 10
96.87634437348984
 20
42.26108777226667
 10
96.81346645988985
 20
42.38608777226668
 10
96.75134437348984
 20
42.511087772266684
 10
96.68846645987736
 20
42.636087772279176
 10
96.62634437247735
 20
42.76108777327917
 10
96.56346642275236
 20
42.886087809404174
 10
96.50134355935235
 20
43.011088586404185
 10
96.43845460517734
 20
43.13609962697919
 10
96.37622388657735
 20
43.261208259179185
 10
96.31259228735235
 20
43.386961944804185
 10
96.24679138795233
 20
43.515640757804185
 10
96.17154943916483
 20
43.65300479299169
 10
96.08204512356484
 20
43.805387022191695
 10
95.98177108851482
 20
43.96778314364171
 10
95.8886973681148
 20
44.12373477764171
 10
95.80111346526482
 20
44.2734407668917
 10
95.7080397448648
 20
44.4293924008917
 10
95.60776570980231
 20
44.59178852235419
 10
95.5182613932023
 20
44.74417075255419
 10
95.44301940828981
 20
44.881534823866694
 10
95.41560539858123
 20
44.935144757876756
 10
95.15450569288805
 20
44.456139269284904
 10
91.88406892865896
 20
43.69862578203902
 10
86.00143506191671
 20
50.22985166683793
 10
88.7231280737974
 20
55.222985947075344
 10
88.71203524175232
 20
55.23751899040421
 10
88.47425588155232
 20
55.53817626420421
 10
88.20857962860231
 20
55.86597460355422
 10
87.9457003656023
 20
56.191731780154214
 10
87.90888672173901
 20
56.236498721052286
 10
84.86701733665541
 20
50.6559787155129
 10
79.47308397658423
 20
49.19226886052081
 10
79.50134437348981
 20
49.13608777226667
 10
79.56346645988981
 20
49.01108777225418
 10
79.6263443734898
 20
48.88608777125419
 10
79.68846645988981
 20
48.761087735116696
 10
79.7513443734898
 20
48.636086957116696
 10
79.81346645988981
 20
48.51107588042919
 10
79.8763443734898
 20
48.38596647222919
 10
79.9384664598898
 20
48.2602017821667
 10
80.0013443734898
 20
48.13141511496671
 10
80.01705649941874
 20
48.0964847204828
 10
85.07236407976598
 20
49.46830432442948
 10
90.92469324590638
 20
42.970724396407604
 10
86.32276626164094
 20
35.69734610244632
 10
84.88937431007454
 20
36.117484246034294
 10
84.93846645988981
 20
35.997970050429196
 10
85.00134437348981
 20
35.83812156302919
 10
85.06346645988981
 20
35.66259664406669
 10
85.12634437348981
 20
35.47915259366669
 10
85.18846645988981
 20
35.2920283295667
 10
85.25134437348981
 20
35.10501487436669
 10
85.31346645988981
 20
34.91714800131668
 10
85.3763443734898
 20
34.73002669091669
 10
85.37845418252276
 20
34.723645924555214
 10
86.18411043426022
 20
34.48750191554427
 10
87.97590373829007
 20
31.286496939137578
 10
86.95304416380658
 20
29.409990227294415
 10
87.00134437348981
 20
29.242391577391693
 10
87.06346645988981
 20
29.029796597816684
 10
87.12634437348981
 20
28.811721321416684
 10
87.18846645988981
 20
28.58643613742918
 10
87.2513443734898
 20
28.371821635629182
 10
87.31346645988981
 20
28.170803956191683
 10
87.37634437348981
 20
27.976107757391684
 10
87.43461492410412
 20
27.78617021857365
 10
88.95839873701334
 20
30.581657129805535
 10
95.23451439384371
 20
28.791030027437955
 10
97.57751468522474
 20
23.82836789591238
 10
93.91363681433722
 20
17.106730254832655
 10
89.62791815626362
 20
19.027360729042602
 10
89.68846645988981
 20
18.759304793154183
 10
89.7513443734898
 20
18.51016925055418
 10
89.81346645988981
 20
18.28444554572918
 10
89.87634437348981
 20
18.062366340729177
 10
89.93846645988981
 20
17.834809203804177
 10
90.00134437348981
 20
17.612729998804177
 10
90.02260090210181
 20
17.53549334003209
 10
93.65422185603529
 20
15.907994562759995
 10
94.2264337176457
 20
13.324951318558306
  0
ENDSEC
  0
SECTION
  2
OBJECTS
  0
DICTIONARY
  5
A
330
0
100
AcDbDictionary
280
0
281
1
  3
ACAD_COLOR
350
B
  3
ACAD_GROUP
350
C
  3
ACAD_LAYOUT
350
D
  3
ACAD_MATERIAL
350
E
  3
ACAD_MLEADERSTYLE
350
F
  3
ACAD_MLINESTYLE
350
10
  3
ACAD_PLOTSETTINGS
350
11
  3
ACAD_PLOTSTYLENAME
350
12
  3
ACAD_SCALELIST
350
14
  3
ACAD_TABLESTYLE
350
15
  3
ACAD_VISUALSTYLE
350
16
  3
EZDXF_META
350
2D
  0
DICTIONARY
  5
B
330
A
100
AcDbDictionary
280
0
281
1
  0
DICTIONARY
  5
C
330
A
100
AcDbDictionary
280
0
281
1
  0
DICTIONARY
  5
D
330
A
100
AcDbDictionary
280
0
281
1
  3
Model
350
1A
  3
Layout1
350
1E
  0
DICTIONARY
  5
E
330
A
100
AcDbDictionary
280
0
281
1
  3
ByBlock
350
1F
  3
ByLayer
350
20
  3
Global
350
21
  0
DICTIONARY
  5
F
330
A
100
AcDbDictionary
280
0
281
1
  3
Standard
350
2C
  0
DICTIONARY
  5
10
330
A
100
AcDbDictionary
280
0
281
1
  3
Standard
350
22
  0
DICTIONARY
  5
11
330
A
100
AcDbDictionary
280
0
281
1
  0
ACDBDICTIONARYWDFLT
  5
12
330
A
100
AcDbDictionary
280
0
281
1
  3
Normal
350
13
100
AcDbDictionaryWithDefault
340
13
  0
ACDBPLACEHOLDER
  5
13
330
12
  0
DICTIONARY
  5
14
330
A
100
AcDbDictionary
280
0
281
1
  0
DICTIONARY
  5
15
330
A
100
AcDbDictionary
280
0
281
1
  0
DICTIONARY
  5
16
330
A
100
AcDbDictionary
280
0
281
1
  0
LAYOUT
  5
1A
330
D
100
AcDbPlotSettings
  1

  2
Adobe PDF
  4
A3
  6

 40
7.5
 41
20.0
 42
7.5
 43
20.0
 44
420.0
 45
297.0
 46
0.0
 47
0.0
 48
0.0
 49
0.0
140
0.0
141
0.0
142
1.0
143
1.0
 70
1024
 72
1
 73
0
 74
5
  7

 75
16
 76
0
 77
2
 78
300
147
1.0
148
0.0
149
0.0
100
AcDbLayout
  1
Model
 70
1
 71
0
 10
0.0
 20
0.0
 11
420.0
 21
297.0
 12
0.0
 22
0.0
 32
0.0
 14
1e+20
 24
1e+20
 34
1e+20
 15
-1e+20
 25
-1e+20
 35
-1e+20
146
0.0
 13
0.0
 23
0.0
 33
0.0
 16
1.0
 26
0.0
 36
0.0
 17
0.0
 27
1.0
 37
0.0
 76
1
330
17
  0
LAYOUT
  5
1E
330
D
100
AcDbPlotSettings
  1

  2
Adobe PDF
  4
A3
  6

 40
7.5
 41
20.0
 42
7.5
 43
20.0
 44
420.0
 45
297.0
 46
0.0
 47
0.0
 48
0.0
 49
0.0
140
0.0
141
0.0
142
1.0
143
1.0
 70
0
 72
1
 73
0
 74
5
  7

 75
16
 76
0
 77
2
 78
300
147
1.0
148
0.0
149
0.0
100
AcDbLayout
  1
Layout1
 70
1
 71
1
 10
0.0
 20
0.0
 11
420.0
 21
297.0
 12
0.0
 22
0.0
 32
0.0
 14
1e+20
 24
1e+20
 34
1e+20
 15
-1e+20
 25
-1e+20
 35
-1e+20
146
0.0
 13
0.0
 23
0.0
 33
0.0
 16
1.0
 26
0.0
 36
0.0
 17
0.0
 27
1.0
 37
0.0
 76
1
330
1B
  0
MATERIAL
  5
1F
102
{ACAD_REACTORS
330
E
102
}
330
E
100
AcDbMaterial
  1
ByBlock
  2

 70
0
 40
1.0
 71
1
 41
1.0
 91
-1023410177
 42
1.0
 72
1
  3

 73
1
 74
1
 75
1
 44
0.5
 73
0
 45
1.0
 46
1.0
 77
1
  4

 78
1
 79
1
170
1
 48
1.0
171
1
  6

172
1
173
1
174
1
140
1.0
141
1.0
175
1
  7

176
1
177
1
178
1
143
1.0
179
1
  8

270
1
271
1
272
1
145
1.0
146
1.0
273
1
  9

274
1
275
1
276
1
 42
1.0
 72
1
  3

 73
1
 74
1
 75
1
 94
63
  0
MATERIAL
  5
20
102
{ACAD_REACTORS
330
E
102
}
330
E
100
AcDbMaterial
  1
ByLayer
  2

 70
0
 40
1.0
 71
1
 41
1.0
 91
-1023410177
 42
1.0
 72
1
  3

 73
1
 74
1
 75
1
 44
0.5
 73
0
 45
1.0
 46
1.0
 77
1
  4

 78
1
 79
1
170
1
 48
1.0
171
1
  6

172
1
173
1
174
1
140
1.0
141
1.0
175
1
  7

176
1
177
1
178
1
143
1.0
179
1
  8

270
1
271
1
272
1
145
1.0
146
1.0
273
1
  9

274
1
275
1
276
1
 42
1.0
 72
1
  3

 73
1
 74
1
 75
1
 94
63
  0
MATERIAL
  5
21
102
{ACAD_REACTORS
330
E
102
}
330
E
100
AcDbMaterial
  1
Global
  2

 70
0
 40
1.0
 71
1
 41
1.0
 91
-1023410177
 42
1.0
 72
1
  3

 73
1
 74
1
 75
1
 44
0.5
 73
0
 45
1.0
 46
1.0
 77
1
  4

 78
1
 79
1
170
1
 48
1.0
171
1
  6

172
1
173
1
174
1
140
1.0
141
1.0
175
1
  7

176
1
177
1
178
1
143
1.0
179
1
  8

270
1
271
1
272
1
145
1.0
146
1.0
273
1
  9

274
1
275
1
276
1
 42
1.0
 72
1
  3

 73
1
 74
1
 75
1
 94
63
  0
MLINESTYLE
  5
22
102
{ACAD_REACTORS
330
10
102
}
330
10
100
AcDbMlineStyle
  2
Standard
 70
0
  3

 62
256
 51
90.0
 52
90.0
 71
2
 49
0.5
 62
256
  6
BYLAYER
 49
-0.5
 62
256
  6
BYLAYER
  0
MLEADERSTYLE
  5
2C
102
{ACAD_REACTORS
330
F
102
}
330
F
100
AcDbMLeaderStyle
179
2
170
2
171
1
172
0
 90
2
 40
0.0
 41
0.0
173
1
 91
-1056964608
 92
-2
290
1
 42
2.0
291
1
 43
8.0
  3
Standard
 44
4.0
300

342
29
174
1
175
1
176
0
178
1
 93
-1056964608
 45
4.0
292
0
297
0
 46
4.0
 94
-1056964608
 47
1.0
 49
1.0
140
1.0
294
1
141
0.0
177
0
142
1.0
295
0
296
0
143
3.75
271
0
272
9
273
9
  0
DICTIONARY
  5
2D
330
A
100
AcDbDictionary
281
1
  3
CREATED_BY_EZDXF
350
2E
  3
WRITTEN_BY_EZDXF
350
36
  0
DICTIONARYVAR
  5
2E
330
2D
100
DictionaryVariables
280
0
  1
1.1.1 @ 2023-10-29T01:48:40.164041+00:00
  0
DICTIONARYVAR
  5
36
330
2D
100
DictionaryVariables
280
0
  1
1.1.1 @ 2023-10-29T01:48:40.173043+00:00
  0
ENDSEC
  0
EOF
