<svg xmlns="http://www.w3.org/2000/svg" xmlns:xlink="http://www.w3.org/1999/xlink" width="111.64500000000001" height="111.52000000000001" viewBox="-5.76 -5.76 111.64500000000001 111.52000000000001" preserveAspectRatio="xMinYMin meet"><g transform="matrix(1,0,0,-1,0,100.0)"><path fill-rule="evenodd" fill="#66cc99" stroke="#555555" stroke-width="2.0" opacity="0.6" d="M 0.375,-1.625 L 0.25,-1.5 L -0.125,-1.5 L -0.25,-1.375 L -0.375,-1.375 L -0.5,-1.25 L -0.625,-1.25 L -1.25,-0.625 L -1.25,-0.5 L -1.375,-0.375 L -1.375,-0.25 L -1.5,-0.125 L -1.5,0.25 L -1.625,0.375 L -1.625,99.625 L -1.5,99.75 L -1.5,100.125 L -1.375,100.25 L -1.375,100.375 L -1.25,100.5 L -1.25,100.625 L -0.625,101.25 L -0.5,101.25 L -0.375,101.375 L -0.25,101.375 L -0.125,101.5 L 0.25,101.5 L 0.375,101.625 L 99.625,101.625 L 99.75,101.5 L 100.125,101.5 L 100.25,101.375 L 100.375,101.375 L 100.5,101.25 L 100.625,101.25 L 101.25,100.625 L 101.25,100.5 L 101.375,100.375 L 101.375,100.25 L 101.5,100.125 L 101.5,99.75 L 101.625,99.625 L 101.625,62.25 L 101.75,62.125 L 101.75,59.25 L 101.625,59.125 L 101.625,0.375 L 101.5,0.25 L 101.5,-0.125 L 101.375,-0.25 L 101.375,-0.375 L 101.25,-0.5 L 101.25,-0.625 L 100.625,-1.25 L 100.5,-1.25 L 100.375,-1.375 L 100.25,-1.375 L 100.125,-1.5 L 99.75,-1.5 L 99.625,-1.625 L 70.375,-1.625 L 70.25,-1.5 L 69.875,-1.5 L 69.75,-1.375 L 69.625,-1.375 L 69.5,-1.25 L 69.375,-1.25 L 68.75,-0.625 L 68.75,-0.5 L 68.625,-0.375 L 68.625,-0.25 L 68.5,-0.125 L 68.5,0.25 L 68.375,0.375 L 68.375,67.125 L 68.25,67.25 L 68.25,67.625 L 67.875,68.0 L 66.625,68.0 L 66.5,68.125 L 65.875,68.125 L 65.75,68.25 L 63.875,68.25 L 63.75,68.125 L 63.375,68.125 L 63.25,68.0 L 62.625,68.0 L 62.5,67.875 L 61.5,67.875 L 61.375,68.0 L 60.875,68.0 L 60.75,68.125 L 60.375,68.125 L 60.25,68.25 L 59.625,68.25 L 59.5,68.375 L 32.875,68.375 L 32.75,68.25 L 32.25,68.25 L 31.75,67.75 L 31.75,67.25 L 31.625,67.125 L 31.625,0.375 L 31.5,0.25 L 31.5,-0.125 L 31.375,-0.25 L 31.375,-0.375 L 31.25,-0.5 L 31.25,-0.625 L 30.625,-1.25 L 30.5,-1.25 L 30.375,-1.375 L 30.25,-1.375 L 30.125,-1.5 L 29.75,-1.5 L 29.625,-1.625 L 0.375,-1.625 z M 80.75,96.375 L 80.875,96.375 L 81.0,96.5 L 81.5,96.5 L 81.625,96.625 L 82.375,96.625 L 82.5,96.75 L 83.25,96.75 L 83.375,96.875 L 83.875,96.875 L 84.0,97.0 L 84.5,97.0 L 84.625,97.125 L 85.125,97.125 L 85.25,97.25 L 86.0,97.25 L 86.125,97.375 L 87.125,97.375 L 87.25,97.5 L 89.125,97.5 L 89.25,97.375 L 90.125,97.375 L 90.25,97.25 L 91.125,97.25 L 91.25,97.125 L 91.875,97.125 L 92.0,97.0 L 92.625,97.0 L 92.75,96.875 L 93.625,96.875 L 93.75,96.75 L 94.875,96.75 L 95.0,96.875 L 95.125,96.875 L 95.625,97.375 L 95.625,97.5 L 95.75,97.625 L 95.75,97.75 L 95.875,97.875 L 95.875,98.0 L 95.625,98.25 L 95.375,98.25 L 95.25,98.375 L 80.75,98.375 L 80.375,98.0 L 80.375,97.875 L 80.25,97.75 L 80.25,97.125 L 80.375,97.0 L 80.375,96.75 L 80.75,96.375 z M 70.375,93.375 L 70.5,93.25 L 71.0,93.25 L 71.125,93.375 L 71.375,93.375 L 71.5,93.5 L 71.875,93.5 L 72.0,93.625 L 72.25,93.625 L 72.375,93.75 L 72.625,93.75 L 72.75,93.875 L 73.125,93.875 L 73.25,94.0 L 73.5,94.0 L 73.625,94.125 L 74.0,94.125 L 74.125,94.25 L 74.375,94.25 L 74.5,94.375 L 74.875,94.375 L 75.0,94.5 L 75.125,94.5 L 75.375,94.75 L 75.375,94.875 L 75.5,95.0 L 75.5,95.375 L 75.375,95.5 L 75.375,97.0 L 75.5,97.125 L 75.5,97.75 L 75.375,97.875 L 75.375,98.0 L 75.0,98.375 L 68.75,98.375 L 68.625,98.25 L 68.25,98.25 L 68.125,98.125 L 68.125,97.75 L 68.25,97.625 L 68.25,97.5 L 68.375,97.375 L 68.375,97.25 L 68.5,97.125 L 68.5,97.0 L 68.625,96.875 L 68.625,96.75 L 68.75,96.625 L 68.75,96.5 L 68.875,96.375 L 68.875,96.125 L 69.0,96.0 L 69.0,95.875 L 69.125,95.75 L 69.125,95.625 L 69.25,95.5 L 69.25,95.375 L 69.375,95.25 L 69.375,95.125 L 69.5,95.0 L 69.5,94.75 L 69.625,94.625 L 69.625,94.5 L 69.75,94.375 L 69.75,94.25 L 69.875,94.125 L 69.875,94.0 L 70.0,93.875 L 70.0,93.75 L 70.125,93.625 L 70.125,93.5 L 70.25,93.375 L 70.375,93.375 z M 37.125,87.125 L 37.75,87.125 L 37.875,87.25 L 38.375,87.25 L 38.5,87.375 L 38.875,87.375 L 39.0,87.5 L 39.625,87.5 L 39.75,87.625 L 40.375,87.625 L 40.5,87.75 L 41.125,87.75 L 41.25,87.875 L 42.125,87.875 L 42.25,88.0 L 44.5,88.0 L 44.875,88.375 L 44.875,89.75 L 44.75,89.875 L 44.75,90.625 L 44.625,90.75 L 44.625,91.25 L 44.5,91.375 L 44.5,91.75 L 44.375,91.875 L 44.375,92.125 L 44.25,92.25 L 44.25,92.5 L 44.125,92.625 L 44.125,92.75 L 44.0,92.875 L 44.0,93.125 L 43.875,93.25 L 43.875,93.375 L 43.75,93.5 L 43.75,93.625 L 43.625,93.75 L 43.625,93.875 L 43.25,94.25 L 42.75,94.25 L 42.625,94.125 L 42.375,94.125 L 42.25,94.0 L 41.875,94.0 L 41.75,93.875 L 41.5,93.875 L 41.375,93.75 L 41.125,93.75 L 41.0,93.625 L 40.625,93.625 L 40.5,93.5 L 40.25,93.5 L 40.125,93.375 L 39.75,93.375 L 39.625,93.25 L 39.125,93.25 L 39.0,93.125 L 37.625,93.125 L 37.5,93.25 L 37.25,93.25 L 37.125,93.375 L 36.875,93.375 L 36.625,93.625 L 36.5,93.625 L 35.875,94.25 L 35.875,94.375 L 35.75,94.5 L 35.75,94.625 L 35.625,94.75 L 35.625,95.0 L 35.5,95.125 L 35.5,96.5 L 35.625,96.625 L 35.625,97.0 L 35.75,97.125 L 35.75,97.5 L 35.875,97.625 L 35.875,98.0 L 35.625,98.25 L 35.5,98.25 L 35.375,98.375 L 21.625,98.375 L 21.5,98.25 L 21.375,98.25 L 21.125,98.0 L 21.125,97.875 L 21.25,97.75 L 21.25,97.625 L 22.0,96.875 L 22.125,96.875 L 22.25,96.75 L 22.375,96.75 L 22.625,96.5 L 22.75,96.5 L 22.875,96.375 L 23.0,96.375 L 23.125,96.25 L 23.375,96.25 L 23.5,96.125 L 23.625,96.125 L 23.75,96.0 L 24.0,96.0 L 24.125,95.875 L 24.375,95.875 L 24.5,95.75 L 24.875,95.75 L 25.0,95.625 L 25.375,95.625 L 25.5,95.5 L 26.125,95.5 L 26.25,95.375 L 26.875,95.375 L 27.0,95.25 L 27.75,95.25 L 27.875,95.125 L 28.5,95.125 L 28.625,95.0 L 29.0,95.0 L 29.125,94.875 L 29.625,94.875 L 29.75,94.75 L 30.0,94.75 L 30.125,94.625 L 30.375,94.625 L 30.5,94.5 L 30.75,94.5 L 30.875,94.375 L 31.125,94.375 L 31.25,94.25 L 31.375,94.25 L 31.5,94.125 L 31.625,94.125 L 31.75,94.0 L 32.0,94.0 L 32.125,93.875 L 32.25,93.875 L 32.375,93.75 L 32.5,93.75 L 32.625,93.625 L 32.75,93.625 L 33.0,93.375 L 33.125,93.375 L 33.25,93.25 L 33.375,93.25 L 33.625,93.0 L 33.75,93.0 L 34.625,92.125 L 34.625,92.0 L 35.0,91.625 L 35.0,91.5 L 35.25,91.25 L 35.25,91.125 L 35.375,91.0 L 35.375,90.875 L 35.5,90.75 L 35.5,90.625 L 35.75,90.375 L 35.75,90.25 L 35.875,90.125 L 35.875,90.0 L 36.0,89.875 L 36.0,89.75 L 36.125,89.625 L 36.125,89.375 L 36.25,89.25 L 36.25,89.0 L 36.375,88.875 L 36.375,88.75 L 36.5,88.625 L 36.5,88.375 L 36.625,88.25 L 36.625,87.875 L 36.75,87.75 L 36.75,87.5 L 37.125,87.125 z M 29.25,85.0 L 30.0,85.0 L 30.125,85.125 L 30.375,85.125 L 30.5,85.25 L 30.75,85.25 L 30.875,85.375 L 31.125,85.375 L 31.25,85.5 L 31.5,85.5 L 32.0,86.0 L 32.0,86.375 L 31.875,86.5 L 31.875,86.75 L 31.75,86.875 L 31.75,87.125 L 31.625,87.25 L 31.625,87.5 L 31.5,87.625 L 31.5,87.875 L 31.375,88.0 L 31.375,88.125 L 31.25,88.25 L 31.25,88.375 L 30.25,89.375 L 30.125,89.375 L 30.0,89.5 L 29.75,89.5 L 29.625,89.625 L 29.5,89.625 L 29.375,89.75 L 29.125,89.75 L 29.0,89.875 L 28.75,89.875 L 28.625,90.0 L 28.25,90.0 L 28.125,90.125 L 27.625,90.125 L 27.5,90.25 L 26.875,90.25 L 26.75,90.375 L 25.875,90.375 L 25.75,90.5 L 25.0,90.5 L 24.875,90.625 L 24.375,90.625 L 24.25,90.75 L 23.875,90.75 L 23.75,90.875 L 23.375,90.875 L 23.25,91.0 L 23.0,91.0 L 22.875,91.125 L 22.625,91.125 L 22.5,91.25 L 22.25,91.25 L 22.125,91.375 L 22.0,91.375 L 21.875,91.5 L 21.75,91.5 L 21.625,91.625 L 21.5,91.625 L 21.375,91.75 L 21.25,91.75 L 21.125,91.875 L 21.0,91.875 L 20.875,92.0 L 20.75,92.0 L 20.625,92.125 L 20.5,92.125 L 20.375,92.25 L 20.25,92.25 L 20.0,92.5 L 19.875,92.5 L 19.625,92.75 L 19.5,92.75 L 19.25,93.0 L 19.125,93.0 L 18.5,93.625 L 18.375,93.625 L 17.125,94.875 L 17.125,95.0 L 16.75,95.375 L 16.75,95.5 L 16.5,95.75 L 16.5,95.875 L 16.375,96.0 L 16.375,96.125 L 16.125,96.375 L 16.125,96.625 L 16.0,96.75 L 16.0,96.875 L 15.875,97.0 L 15.875,97.25 L 15.75,97.375 L 15.75,97.5 L 15.625,97.625 L 15.625,97.875 L 15.25,98.25 L 15.0,98.25 L 14.875,98.375 L 2.875,98.375 L 2.75,98.25 L 2.25,98.25 L 1.75,97.75 L 1.75,97.25 L 1.625,97.125 L 1.625,92.125 L 1.75,92.0 L 1.75,91.75 L 2.125,91.375 L 3.625,91.375 L 3.75,91.25 L 4.0,91.25 L 4.125,91.125 L 4.375,91.125 L 4.5,91.0 L 4.75,91.0 L 4.875,90.875 L 5.125,90.875 L 5.25,90.75 L 5.375,90.75 L 5.5,90.625 L 5.75,90.625 L 5.875,90.5 L 6.125,90.5 L 6.25,90.375 L 6.5,90.375 L 6.625,90.25 L 6.875,90.25 L 7.0,90.125 L 7.25,90.125 L 7.375,90.0 L 7.625,90.0 L 7.75,89.875 L 7.875,89.875 L 8.0,89.75 L 8.25,89.75 L 8.375,89.625 L 8.5,89.625 L 8.625,89.5 L 8.875,89.5 L 9.0,89.375 L 9.125,89.375 L 9.25,89.25 L 9.375,89.25 L 9.5,89.125 L 9.75,89.125 L 9.875,89.0 L 10.125,89.0 L 10.25,88.875 L 12.0,88.875 L 12.125,89.0 L 12.375,89.0 L 12.5,89.125 L 12.75,89.125 L 12.875,89.25 L 13.0,89.25 L 13.125,89.375 L 13.375,89.375 L 13.5,89.5 L 13.625,89.5 L 13.75,89.625 L 14.0,89.625 L 14.125,89.75 L 14.375,89.75 L 14.5,89.875 L 14.625,89.875 L 14.75,90.0 L 14.875,90.0 L 15.0,90.125 L 15.25,90.125 L 15.375,90.25 L 15.5,90.25 L 15.625,90.375 L 15.875,90.375 L 16.0,90.5 L 16.25,90.5 L 16.375,90.625 L 16.5,90.625 L 16.625,90.75 L 16.875,90.75 L 17.0,90.875 L 17.25,90.875 L 17.375,91.0 L 17.75,91.0 L 17.875,91.125 L 18.375,91.125 L 18.5,91.25 L 20.5,91.25 L 20.625,91.125 L 21.25,91.125 L 21.375,91.0 L 21.875,91.0 L 22.0,90.875 L 22.25,90.875 L 22.375,90.75 L 22.625,90.75 L 22.75,90.625 L 22.875,90.625 L 23.0,90.5 L 23.25,90.5 L 23.375,90.375 L 23.625,90.375 L 23.75,90.25 L 23.875,90.25 L 24.0,90.125 L 24.125,90.125 L 24.375,89.875 L 24.5,89.875 L 24.625,89.75 L 24.75,89.75 L 25.0,89.5 L 25.125,89.5 L 25.5,89.125 L 25.625,89.125 L 28.0,86.75 L 28.0,86.625 L 28.375,86.25 L 28.375,86.125 L 28.625,85.875 L 28.625,85.75 L 28.875,85.5 L 28.875,85.375 L 29.25,85.0 z M 58.625,84.5 L 58.75,84.375 L 59.25,84.375 L 59.375,84.5 L 59.5,84.5 L 59.625,84.625 L 59.625,84.75 L 59.75,84.875 L 59.75,85.125 L 59.875,85.25 L 59.875,85.625 L 60.0,85.75 L 60.0,86.0 L 60.125,86.125 L 60.125,86.375 L 60.25,86.5 L 60.25,86.625 L 60.375,86.75 L 60.375,87.0 L 60.625,87.25 L 60.625,87.375 L 60.75,87.5 L 60.75,87.625 L 61.125,88.0 L 61.125,88.125 L 61.75,88.75 L 61.875,88.75 L 62.5,89.375 L 62.625,89.375 L 63.125,89.875 L 63.25,89.875 L 63.5,90.125 L 63.625,90.125 L 63.875,90.375 L 64.0,90.375 L 64.25,90.625 L 64.375,90.625 L 64.625,90.875 L 64.75,90.875 L 64.875,91.0 L 65.0,91.0 L 65.5,91.5 L 65.5,91.75 L 65.375,91.875 L 65.375,92.125 L 65.25,92.25 L 65.25,92.375 L 65.125,92.5 L 65.125,92.75 L 65.0,92.875 L 65.0,93.0 L 64.875,93.125 L 64.875,93.25 L 64.75,93.375 L 64.75,93.5 L 64.625,93.625 L 64.625,93.75 L 64.5,93.875 L 64.5,94.125 L 64.375,94.25 L 64.375,94.375 L 64.25,94.5 L 64.25,94.625 L 64.125,94.75 L 64.125,95.0 L 64.0,95.125 L 64.0,95.375 L 63.875,95.5 L 63.875,96.0 L 63.75,96.125 L 63.75,96.75 L 63.875,96.875 L 63.875,97.375 L 64.0,97.5 L 64.0,98.0 L 63.75,98.25 L 63.375,98.25 L 63.25,98.375 L 48.0,98.375 L 47.875,98.25 L 47.75,98.25 L 47.5,98.0 L 47.5,97.5 L 47.625,97.375 L 47.625,97.125 L 47.75,97.0 L 47.75,96.75 L 47.875,96.625 L 47.875,96.5 L 48.0,96.375 L 48.0,96.125 L 48.125,96.0 L 48.125,95.75 L 48.25,95.625 L 48.25,95.5 L 48.375,95.375 L 48.375,95.25 L 48.5,95.125 L 48.5,94.875 L 48.625,94.75 L 48.625,94.625 L 48.75,94.5 L 48.75,94.25 L 48.875,94.125 L 48.875,94.0 L 49.0,93.875 L 49.0,93.625 L 49.125,93.5 L 49.125,93.125 L 49.25,93.0 L 49.25,92.75 L 49.375,92.625 L 49.375,92.25 L 49.5,92.125 L 49.5,91.75 L 49.625,91.625 L 49.625,91.125 L 49.75,91.0 L 49.75,90.25 L 49.875,90.125 L 49.875,88.25 L 50.0,88.125 L 50.0,87.75 L 50.125,87.625 L 50.125,87.5 L 50.5,87.125 L 50.75,87.125 L 50.875,87.0 L 51.0,87.0 L 51.125,86.875 L 51.25,86.875 L 51.375,86.75 L 51.5,86.75 L 51.75,86.5 L 51.875,86.5 L 52.25,86.125 L 52.375,86.125 L 52.625,85.875 L 52.75,85.875 L 52.875,85.75 L 53.0,85.75 L 53.125,85.625 L 53.375,85.625 L 53.5,85.5 L 53.75,85.5 L 53.875,85.375 L 54.125,85.375 L 54.25,85.25 L 54.625,85.25 L 54.75,85.125 L 55.25,85.125 L 55.375,85.0 L 56.0,85.0 L 56.125,84.875 L 56.75,84.875 L 56.875,84.75 L 57.375,84.75 L 57.5,84.625 L 58.0,84.625 L 58.125,84.5 L 58.625,84.5 z M 66.625,82.5 L 66.75,82.375 L 67.125,82.375 L 67.25,82.5 L 67.375,82.5 L 67.5,82.625 L 67.5,82.75 L 67.875,83.125 L 67.875,83.25 L 68.25,83.625 L 68.25,83.75 L 70.0,85.5 L 70.125,85.5 L 70.5,85.875 L 70.625,85.875 L 70.875,86.125 L 71.0,86.125 L 71.25,86.375 L 71.375,86.375 L 71.625,86.625 L 71.75,86.625 L 71.875,86.75 L 72.0,86.75 L 72.125,86.875 L 72.25,86.875 L 72.375,87.0 L 72.5,87.0 L 72.625,87.125 L 72.75,87.125 L 72.875,87.25 L 73.0,87.25 L 73.125,87.375 L 73.25,87.375 L 73.375,87.5 L 73.5,87.5 L 73.625,87.625 L 73.875,87.625 L 74.0,87.75 L 74.125,87.75 L 74.25,87.875 L 74.5,87.875 L 74.625,88.0 L 74.75,88.0 L 74.875,88.125 L 75.0,88.125 L 75.125,88.25 L 75.25,88.25 L 75.375,88.375 L 75.625,88.375 L 75.75,88.5 L 75.875,88.5 L 76.0,88.625 L 76.125,88.625 L 76.25,88.75 L 76.5,88.75 L 76.625,88.875 L 76.875,88.875 L 77.0,89.0 L 77.25,89.0 L 77.375,89.125 L 77.875,89.125 L 78.0,89.25 L 78.625,89.25 L 78.75,89.375 L 79.75,89.375 L 79.875,89.5 L 80.625,89.5 L 80.75,89.625 L 81.625,89.625 L 81.75,89.75 L 82.875,89.75 L 83.0,89.875 L 85.25,89.875 L 85.375,89.75 L 85.875,89.75 L 86.0,89.625 L 86.375,89.625 L 86.5,89.5 L 86.75,89.5 L 86.875,89.375 L 87.125,89.375 L 87.25,89.25 L 87.375,89.25 L 87.5,89.125 L 87.625,89.125 L 87.75,89.0 L 87.875,89.0 L 88.0,88.875 L 88.125,88.875 L 88.25,88.75 L 88.375,88.75 L 88.5,88.625 L 88.625,88.625 L 88.875,88.375 L 89.0,88.375 L 89.25,88.125 L 89.375,88.125 L 89.625,87.875 L 89.75,87.875 L 89.875,87.75 L 90.125,87.75 L 90.25,87.625 L 90.625,87.625 L 90.75,87.75 L 91.0,87.75 L 91.125,87.875 L 91.25,87.875 L 91.375,88.0 L 91.375,88.125 L 91.5,88.25 L 91.5,88.375 L 91.625,88.5 L 91.625,88.625 L 91.75,88.75 L 91.75,89.125 L 91.875,89.25 L 91.875,89.625 L 92.0,89.75 L 92.0,90.25 L 92.125,90.375 L 92.125,90.75 L 92.25,90.875 L 92.25,91.625 L 91.875,92.0 L 91.5,92.0 L 91.375,92.125 L 90.75,92.125 L 90.625,92.25 L 89.875,92.25 L 89.75,92.375 L 86.5,92.375 L 86.375,92.25 L 85.75,92.25 L 85.625,92.125 L 85.0,92.125 L 84.875,92.0 L 84.25,92.0 L 84.125,91.875 L 83.5,91.875 L 83.375,91.75 L 82.75,91.75 L 82.625,91.625 L 82.125,91.625 L 82.0,91.5 L 81.5,91.5 L 81.375,91.375 L 81.0,91.375 L 80.875,91.25 L 80.625,91.25 L 80.5,91.125 L 80.375,91.125 L 80.25,91.0 L 80.125,91.0 L 80.0,90.875 L 79.75,90.875 L 79.625,90.75 L 79.5,90.75 L 79.375,90.625 L 79.125,90.625 L 79.0,90.5 L 78.75,90.5 L 78.625,90.375 L 78.375,90.375 L 78.25,90.25 L 78.0,90.25 L 77.875,90.125 L 77.625,90.125 L 77.5,90.0 L 77.125,90.0 L 77.0,89.875 L 76.75,89.875 L 76.625,89.75 L 76.375,89.75 L 76.25,89.625 L 76.0,89.625 L 75.875,89.5 L 75.5,89.5 L 75.375,89.375 L 75.125,89.375 L 75.0,89.25 L 74.625,89.25 L 74.5,89.125 L 74.125,89.125 L 74.0,89.0 L 73.75,89.0 L 73.625,88.875 L 73.375,88.875 L 73.25,88.75 L 73.0,88.75 L 72.875,88.625 L 72.5,88.625 L 72.375,88.5 L 72.125,88.5 L 72.0,88.375 L 71.75,88.375 L 71.625,88.25 L 71.375,88.25 L 71.25,88.125 L 71.0,88.125 L 70.875,88.0 L 70.625,88.0 L 70.5,87.875 L 70.25,87.875 L 70.125,87.75 L 69.75,87.75 L 69.625,87.625 L 69.375,87.625 L 69.25,87.5 L 69.0,87.5 L 68.875,87.375 L 68.75,87.375 L 68.625,87.25 L 68.375,87.25 L 68.25,87.125 L 68.125,87.125 L 68.0,87.0 L 67.875,87.0 L 67.75,86.875 L 67.625,86.875 L 67.5,86.75 L 67.375,86.75 L 67.25,86.625 L 67.125,86.625 L 67.0,86.5 L 66.875,86.5 L 66.75,86.375 L 66.625,86.375 L 66.375,86.125 L 66.25,86.125 L 66.0,85.875 L 65.875,85.875 L 65.625,85.625 L 65.5,85.625 L 65.125,85.25 L 65.125,85.125 L 64.875,84.875 L 64.875,84.75 L 64.75,84.625 L 64.75,84.375 L 64.625,84.25 L 64.625,83.25 L 64.875,83.0 L 65.125,83.0 L 65.25,82.875 L 65.5,82.875 L 65.625,82.75 L 65.875,82.75 L 66.0,82.625 L 66.125,82.625 L 66.25,82.5 L 66.625,82.5 z M 19.75,79.25 L 19.875,79.125 L 20.375,79.125 L 20.625,79.375 L 20.75,79.375 L 21.375,80.0 L 21.5,80.0 L 22.25,80.75 L 22.375,80.75 L 22.875,81.25 L 23.0,81.25 L 23.375,81.625 L 23.5,81.625 L 24.0,82.125 L 24.125,82.125 L 24.625,82.625 L 24.625,83.0 L 24.5,83.125 L 24.5,83.25 L 24.375,83.375 L 24.375,83.5 L 24.0,83.875 L 24.0,84.0 L 22.75,85.25 L 22.625,85.25 L 22.5,85.375 L 22.375,85.375 L 22.125,85.625 L 21.875,85.625 L 21.75,85.75 L 21.625,85.75 L 21.5,85.875 L 21.25,85.875 L 21.125,86.0 L 20.75,86.0 L 20.625,86.125 L 20.125,86.125 L 20.0,86.25 L 18.875,86.25 L 18.75,86.125 L 18.375,86.125 L 18.25,86.0 L 18.0,86.0 L 17.875,85.875 L 17.75,85.875 L 17.625,85.75 L 17.375,85.75 L 17.25,85.625 L 17.0,85.625 L 16.875,85.5 L 16.75,85.5 L 16.625,85.375 L 16.375,85.375 L 16.25,85.25 L 16.0,85.25 L 15.875,85.125 L 15.75,85.125 L 15.625,85.0 L 15.375,85.0 L 15.25,84.875 L 15.125,84.875 L 15.0,84.75 L 14.875,84.75 L 14.75,84.625 L 14.5,84.625 L 14.375,84.5 L 14.25,84.5 L 14.125,84.375 L 14.0,84.375 L 13.875,84.25 L 13.625,84.25 L 13.5,84.125 L 13.25,84.125 L 13.125,84.0 L 12.75,84.0 L 12.625,83.875 L 12.0,83.875 L 11.875,83.75 L 10.875,83.75 L 10.75,83.875 L 9.875,83.875 L 9.75,84.0 L 9.25,84.0 L 9.125,84.125 L 8.75,84.125 L 8.625,84.25 L 8.375,84.25 L 8.25,84.375 L 8.125,84.375 L 8.0,84.5 L 7.75,84.5 L 7.625,84.625 L 7.5,84.625 L 7.375,84.75 L 7.25,84.75 L 7.125,84.875 L 7.0,84.875 L 6.875,85.0 L 6.625,85.0 L 6.5,85.125 L 6.125,85.125 L 6.0,85.0 L 5.875,85.0 L 5.75,84.875 L 5.75,84.75 L 5.625,84.625 L 5.625,84.5 L 5.75,84.375 L 5.75,84.125 L 5.875,84.0 L 5.875,83.875 L 6.125,83.625 L 6.125,83.5 L 6.375,83.25 L 6.375,83.125 L 6.5,83.0 L 6.5,82.875 L 6.75,82.625 L 6.75,82.5 L 6.875,82.375 L 6.875,82.25 L 7.125,82.0 L 7.125,81.875 L 7.625,81.375 L 8.125,81.375 L 8.25,81.5 L 8.5,81.5 L 8.625,81.625 L 8.875,81.625 L 9.0,81.75 L 9.375,81.75 L 9.5,81.875 L 10.0,81.875 L 10.125,82.0 L 12.625,82.0 L 12.75,82.125 L 13.0,82.125 L 13.125,82.25 L 13.25,82.25 L 13.375,82.375 L 13.5,82.375 L 13.625,82.5 L 13.75,82.5 L 13.875,82.625 L 14.125,82.625 L 14.25,82.75 L 15.375,82.75 L 15.5,82.625 L 15.75,82.625 L 15.875,82.5 L 16.125,82.5 L 16.25,82.375 L 16.375,82.375 L 16.5,82.25 L 16.625,82.25 L 16.875,82.0 L 17.0,82.0 L 17.625,81.375 L 17.625,81.25 L 17.875,81.0 L 17.875,80.875 L 18.125,80.625 L 18.125,80.5 L 19.0,79.625 L 19.125,79.625 L 19.25,79.5 L 19.375,79.5 L 19.625,79.25 L 19.75,79.25 z M 2.0,77.625 L 2.125,77.75 L 2.25,77.75 L 2.375,77.875 L 2.5,77.875 L 3.125,78.5 L 3.125,79.125 L 3.0,79.25 L 3.0,79.375 L 2.75,79.625 L 2.75,79.75 L 2.5,80.0 L 2.5,80.125 L 2.125,80.5 L 1.875,80.5 L 1.75,80.375 L 1.75,80.0 L 1.625,79.875 L 1.625,78.25 L 1.75,78.125 L 1.75,77.875 L 2.0,77.625 z M 78.75,75.375 L 79.25,75.375 L 79.375,75.5 L 79.5,75.5 L 79.625,75.625 L 79.75,75.625 L 80.0,75.875 L 80.125,75.875 L 80.25,76.0 L 80.375,76.0 L 80.5,76.125 L 80.625,76.125 L 80.75,76.25 L 80.875,76.25 L 81.0,76.375 L 81.125,76.375 L 81.25,76.5 L 81.5,76.5 L 81.625,76.625 L 81.75,76.625 L 81.875,76.75 L 82.0,76.75 L 82.125,76.875 L 82.375,76.875 L 82.5,77.0 L 82.75,77.0 L 82.875,77.125 L 83.125,77.125 L 83.25,77.25 L 83.5,77.25 L 83.625,77.375 L 84.0,77.375 L 84.125,77.5 L 84.5,77.5 L 84.625,77.625 L 84.875,77.625 L 85.0,77.75 L 85.125,77.75 L 85.375,78.0 L 85.375,78.25 L 85.25,78.375 L 85.25,78.5 L 85.125,78.625 L 85.125,78.875 L 85.0,79.0 L 85.0,80.0 L 85.125,80.125 L 85.125,80.375 L 85.25,80.5 L 85.25,80.625 L 85.375,80.75 L 85.375,80.875 L 85.875,81.375 L 86.0,81.375 L 86.625,82.0 L 86.625,82.25 L 86.75,82.375 L 86.75,82.5 L 86.625,82.625 L 86.625,83.75 L 86.5,83.875 L 86.5,84.0 L 86.0,84.5 L 85.875,84.5 L 85.75,84.625 L 85.5,84.625 L 85.375,84.75 L 84.875,84.75 L 84.75,84.875 L 83.0,84.875 L 82.875,84.75 L 82.0,84.75 L 81.875,84.625 L 81.125,84.625 L 81.0,84.5 L 80.0,84.5 L 79.875,84.375 L 79.125,84.375 L 79.0,84.25 L 78.5,84.25 L 78.375,84.125 L 78.0,84.125 L 77.875,84.0 L 77.625,84.0 L 77.5,83.875 L 77.375,83.875 L 77.25,83.75 L 77.125,83.75 L 77.0,83.625 L 76.75,83.625 L 76.625,83.5 L 76.5,83.5 L 76.375,83.375 L 76.125,83.375 L 76.0,83.25 L 75.875,83.25 L 75.75,83.125 L 75.625,83.125 L 75.5,83.0 L 75.375,83.0 L 75.25,82.875 L 75.0,82.875 L 74.875,82.75 L 74.75,82.75 L 74.625,82.625 L 74.5,82.625 L 74.375,82.5 L 74.25,82.5 L 74.0,82.25 L 73.875,82.25 L 73.75,82.125 L 73.625,82.125 L 73.375,81.875 L 73.25,81.875 L 72.75,81.375 L 72.625,81.375 L 72.5,81.25 L 72.5,81.125 L 72.25,80.875 L 72.25,80.375 L 72.375,80.25 L 72.5,80.25 L 72.75,80.0 L 72.875,80.0 L 73.0,79.875 L 73.125,79.875 L 73.375,79.625 L 73.5,79.625 L 73.625,79.5 L 73.75,79.5 L 73.875,79.375 L 74.0,79.375 L 74.25,79.125 L 74.375,79.125 L 74.5,79.0 L 74.625,79.0 L 74.875,78.75 L 75.0,78.75 L 75.5,78.25 L 75.625,78.25 L 76.5,77.375 L 76.625,77.375 L 78.375,75.625 L 78.5,75.625 L 78.75,75.375 z M 62.875,74.375 L 63.0,74.25 L 63.125,74.25 L 63.375,74.5 L 63.375,78.0 L 62.875,78.5 L 62.5,78.5 L 62.375,78.625 L 62.0,78.625 L 61.875,78.75 L 61.375,78.75 L 61.25,78.875 L 60.875,78.875 L 60.75,79.0 L 60.25,79.0 L 60.125,79.125 L 59.625,79.125 L 59.5,79.25 L 59.125,79.25 L 59.0,79.375 L 58.5,79.375 L 58.375,79.5 L 57.875,79.5 L 57.75,79.625 L 57.25,79.625 L 57.125,79.75 L 56.5,79.75 L 56.375,79.875 L 55.75,79.875 L 55.625,80.0 L 55.125,80.0 L 55.0,80.125 L 54.5,80.125 L 54.375,80.25 L 53.625,80.25 L 53.375,80.0 L 53.375,79.0 L 53.5,78.875 L 53.5,78.25 L 53.625,78.125 L 53.625,77.75 L 53.75,77.625 L 53.75,77.0 L 53.875,76.875 L 53.875,76.0 L 54.0,75.875 L 54.0,75.5 L 54.125,75.375 L 54.125,75.25 L 54.25,75.125 L 54.375,75.125 L 54.5,75.25 L 54.75,75.25 L 54.875,75.375 L 56.0,75.375 L 56.125,75.25 L 56.375,75.25 L 56.5,75.125 L 56.625,75.125 L 56.75,75.0 L 56.875,75.0 L 57.375,74.5 L 57.5,74.5 L 57.625,74.375 L 58.875,74.375 L 59.0,74.5 L 59.375,74.5 L 59.5,74.625 L 59.875,74.625 L 60.0,74.75 L 60.625,74.75 L 60.75,74.875 L 61.5,74.875 L 61.625,74.75 L 62.0,74.75 L 62.125,74.625 L 62.375,74.625 L 62.5,74.5 L 62.625,74.5 L 62.75,74.375 L 62.875,74.375 z M 69.0,73.0 L 69.125,73.125 L 69.125,73.375 L 69.25,73.5 L 69.25,73.875 L 69.375,74.0 L 69.375,74.375 L 69.5,74.5 L 69.5,74.75 L 69.625,74.875 L 69.625,75.125 L 69.75,75.25 L 69.75,75.875 L 69.375,76.25 L 69.25,76.25 L 69.125,76.375 L 68.875,76.375 L 68.75,76.5 L 68.5,76.25 L 68.5,76.125 L 68.375,76.0 L 68.375,75.25 L 68.5,75.125 L 68.5,74.125 L 68.625,74.0 L 68.625,73.5 L 68.75,73.375 L 68.75,73.25 L 69.0,73.0 z M 30.375,71.75 L 30.5,71.625 L 48.5,71.625 L 48.75,71.875 L 48.75,72.0 L 48.875,72.125 L 48.875,76.5 L 48.75,76.625 L 48.75,77.25 L 48.625,77.375 L 48.625,77.875 L 48.5,78.0 L 48.5,78.625 L 48.375,78.75 L 48.375,79.875 L 48.25,80.0 L 48.25,80.5 L 48.375,80.625 L 48.375,81.5 L 48.5,81.625 L 48.5,82.0 L 48.625,82.125 L 48.625,82.25 L 48.375,82.5 L 48.25,82.5 L 48.125,82.625 L 47.875,82.625 L 47.75,82.75 L 46.75,82.75 L 46.625,82.875 L 45.625,82.875 L 45.5,83.0 L 42.375,83.0 L 42.25,82.875 L 41.5,82.875 L 41.375,82.75 L 40.75,82.75 L 40.625,82.625 L 40.125,82.625 L 40.0,82.5 L 39.375,82.5 L 39.25,82.375 L 38.75,82.375 L 38.625,82.25 L 38.125,82.25 L 38.0,82.125 L 37.625,82.125 L 37.5,82.0 L 37.125,82.0 L 37.0,81.875 L 36.625,81.875 L 36.5,81.75 L 36.125,81.75 L 36.0,81.625 L 35.625,81.625 L 35.5,81.5 L 35.125,81.5 L 35.0,81.375 L 34.625,81.375 L 34.5,81.25 L 34.125,81.25 L 34.0,81.125 L 33.75,81.125 L 33.625,81.0 L 33.25,81.0 L 33.125,80.875 L 32.875,80.875 L 32.75,80.75 L 32.5,80.75 L 32.375,80.625 L 32.125,80.625 L 32.0,80.5 L 31.875,80.5 L 31.75,80.375 L 31.5,80.375 L 31.375,80.25 L 31.125,80.25 L 31.0,80.125 L 30.875,80.125 L 30.75,80.0 L 30.5,80.0 L 30.375,79.875 L 30.25,79.875 L 30.125,79.75 L 30.0,79.75 L 29.875,79.625 L 29.75,79.625 L 29.5,79.375 L 29.5,79.25 L 29.375,79.125 L 29.375,79.0 L 29.5,78.875 L 29.5,78.625 L 29.625,78.5 L 29.625,78.25 L 29.75,78.125 L 29.75,77.875 L 29.875,77.75 L 29.875,77.375 L 30.0,77.25 L 30.0,76.75 L 30.125,76.625 L 30.125,75.875 L 30.25,75.75 L 30.25,72.0 L 30.375,71.875 L 30.375,71.75 z M 12.125,69.25 L 12.25,69.125 L 12.75,69.125 L 12.875,69.25 L 13.0,69.25 L 13.375,69.625 L 13.375,69.75 L 13.5,69.875 L 13.5,70.0 L 13.625,70.125 L 13.625,70.375 L 13.75,70.5 L 13.75,70.625 L 13.875,70.75 L 13.875,70.875 L 14.0,71.0 L 14.0,71.125 L 14.125,71.25 L 14.125,71.375 L 14.25,71.5 L 14.25,71.625 L 14.375,71.75 L 14.375,71.875 L 14.5,72.0 L 14.5,72.125 L 14.625,72.25 L 14.625,72.375 L 14.75,72.5 L 14.75,72.625 L 14.875,72.75 L 14.875,72.875 L 15.125,73.125 L 15.125,73.25 L 15.5,73.625 L 15.5,73.75 L 15.875,74.125 L 15.875,74.25 L 16.125,74.5 L 16.125,74.625 L 16.25,74.75 L 16.25,74.875 L 16.375,75.0 L 16.375,75.375 L 15.875,75.875 L 15.625,75.875 L 15.5,76.0 L 15.25,76.0 L 15.125,76.125 L 14.875,76.125 L 14.75,76.25 L 14.5,76.25 L 14.375,76.375 L 14.125,76.375 L 14.0,76.5 L 13.625,76.5 L 13.5,76.625 L 13.25,76.625 L 13.125,76.75 L 12.75,76.75 L 12.625,76.875 L 12.125,76.875 L 12.0,77.0 L 10.5,77.0 L 10.375,76.875 L 10.0,76.875 L 9.875,76.75 L 9.75,76.75 L 9.625,76.625 L 9.5,76.625 L 9.375,76.5 L 9.25,76.5 L 9.125,76.375 L 9.0,76.375 L 8.875,76.25 L 8.75,76.25 L 8.5,76.0 L 8.375,76.0 L 8.125,75.75 L 8.0,75.75 L 7.875,75.625 L 7.75,75.625 L 7.5,75.375 L 7.375,75.375 L 7.25,75.25 L 7.125,75.25 L 7.0,75.125 L 6.875,75.125 L 6.25,74.5 L 6.25,74.25 L 6.375,74.125 L 6.375,74.0 L 6.625,73.75 L 6.625,73.625 L 7.0,73.25 L 7.0,73.125 L 7.375,72.75 L 7.375,72.625 L 7.625,72.375 L 7.625,72.25 L 7.75,72.125 L 7.75,72.0 L 8.0,71.75 L 8.0,71.625 L 8.125,71.5 L 8.125,71.375 L 8.25,71.25 L 8.25,71.125 L 8.75,70.625 L 8.875,70.625 L 9.125,70.375 L 9.25,70.375 L 9.375,70.25 L 9.625,70.25 L 9.75,70.125 L 9.875,70.125 L 10.0,70.0 L 10.125,70.0 L 10.25,69.875 L 10.5,69.875 L 10.625,69.75 L 10.75,69.75 L 10.875,69.625 L 11.0,69.625 L 11.125,69.5 L 11.375,69.5 L 11.5,69.375 L 11.625,69.375 L 11.75,69.25 L 12.125,69.25 z M 76.25,66.75 L 76.375,66.625 L 76.75,66.625 L 76.875,66.75 L 77.0,66.75 L 77.125,66.875 L 77.125,67.0 L 77.625,67.5 L 77.625,67.625 L 77.75,67.625 L 77.875,67.75 L 77.875,67.875 L 78.125,68.125 L 78.125,68.375 L 78.25,68.5 L 78.125,68.625 L 78.125,68.875 L 77.875,69.125 L 77.875,69.25 L 77.375,69.75 L 77.375,69.875 L 76.625,70.625 L 76.625,70.75 L 75.375,72.0 L 75.25,72.0 L 74.75,72.5 L 74.625,72.5 L 74.5,72.375 L 74.5,71.875 L 74.625,71.75 L 74.625,71.625 L 74.75,71.5 L 74.75,71.375 L 74.875,71.25 L 74.875,71.0 L 75.0,70.875 L 75.0,70.625 L 75.125,70.5 L 75.125,70.125 L 75.25,70.0 L 75.25,69.25 L 75.375,69.125 L 75.375,68.375 L 75.5,68.25 L 75.5,67.625 L 75.625,67.5 L 75.625,67.375 L 75.75,67.25 L 75.75,67.125 L 76.125,66.75 L 76.25,66.75 z M 22.125,66.375 L 22.25,66.25 L 22.875,66.875 L 22.875,67.0 L 23.25,67.375 L 23.25,67.5 L 23.5,67.75 L 23.5,67.875 L 23.75,68.125 L 23.75,68.25 L 24.25,68.75 L 24.25,68.875 L 24.375,69.0 L 24.375,69.125 L 24.5,69.25 L 24.5,69.375 L 24.625,69.5 L 24.625,69.625 L 24.75,69.75 L 24.75,70.0 L 24.875,70.125 L 24.875,70.75 L 25.0,70.875 L 25.0,71.5 L 25.125,71.625 L 25.125,72.625 L 25.25,72.75 L 25.25,75.5 L 25.125,75.625 L 25.125,76.0 L 25.0,76.125 L 25.0,76.25 L 24.875,76.375 L 24.625,76.375 L 24.5,76.25 L 24.375,76.25 L 23.75,75.625 L 23.625,75.625 L 22.75,74.75 L 22.625,74.75 L 22.125,74.25 L 22.125,74.125 L 22.0,74.125 L 21.875,74.0 L 21.875,73.875 L 20.625,72.625 L 20.625,72.5 L 20.25,72.125 L 20.25,72.0 L 20.125,71.875 L 20.125,71.0 L 20.25,70.875 L 20.25,70.75 L 20.375,70.625 L 20.375,70.5 L 20.625,70.25 L 20.625,70.0 L 20.875,69.75 L 20.875,69.625 L 21.0,69.5 L 21.0,69.375 L 21.125,69.25 L 21.125,69.0 L 21.5,68.625 L 21.5,68.5 L 21.625,68.375 L 21.625,68.25 L 21.875,68.0 L 21.875,67.75 L 22.0,67.625 L 22.0,66.625 L 22.125,66.5 L 22.125,66.375 z M 86.125,66.25 L 86.25,66.125 L 86.625,66.5 L 86.625,67.0 L 86.5,67.125 L 86.5,68.375 L 86.625,68.5 L 86.625,68.75 L 86.75,68.875 L 86.75,69.0 L 86.875,69.125 L 86.875,69.25 L 87.0,69.375 L 87.0,69.75 L 86.875,69.875 L 86.875,70.125 L 86.75,70.25 L 86.75,70.375 L 86.625,70.5 L 86.625,70.625 L 86.5,70.75 L 86.5,71.0 L 86.375,71.125 L 86.375,71.375 L 86.25,71.5 L 86.25,71.75 L 86.125,71.875 L 86.125,72.25 L 85.75,72.625 L 85.125,72.625 L 85.0,72.5 L 84.625,72.5 L 84.5,72.375 L 84.25,72.375 L 84.125,72.25 L 83.875,72.25 L 83.75,72.125 L 83.5,72.125 L 83.375,72.0 L 83.25,72.0 L 83.125,71.875 L 83.0,71.875 L 82.5,71.375 L 82.5,71.125 L 82.75,70.875 L 82.75,70.75 L 83.25,70.25 L 83.25,70.125 L 83.625,69.75 L 83.625,69.625 L 84.0,69.25 L 84.0,69.125 L 84.25,68.875 L 84.25,68.75 L 84.5,68.5 L 84.5,68.375 L 84.625,68.25 L 84.625,68.125 L 84.875,67.875 L 84.875,67.75 L 85.125,67.5 L 85.125,67.375 L 85.375,67.125 L 85.375,67.0 L 85.625,66.75 L 85.625,66.625 L 86.0,66.25 L 86.125,66.25 z M 97.75,64.25 L 97.875,64.125 L 98.0,64.125 L 98.25,64.375 L 98.25,64.625 L 98.375,64.75 L 98.375,89.875 L 98.25,90.0 L 98.25,90.25 L 98.0,90.5 L 97.5,90.5 L 97.125,90.125 L 97.125,89.875 L 97.0,89.75 L 97.0,89.375 L 96.875,89.25 L 96.875,88.75 L 96.75,88.625 L 96.75,88.125 L 96.625,88.0 L 96.625,87.625 L 96.5,87.5 L 96.5,87.25 L 96.375,87.125 L 96.375,86.875 L 96.25,86.75 L 96.25,86.5 L 96.125,86.375 L 96.125,86.25 L 96.0,86.125 L 96.0,86.0 L 95.875,85.875 L 95.875,85.75 L 95.625,85.5 L 95.625,85.375 L 94.375,84.125 L 94.25,84.125 L 93.75,83.625 L 93.625,83.625 L 93.375,83.375 L 93.25,83.375 L 93.125,83.25 L 93.0,83.25 L 92.875,83.125 L 92.75,83.125 L 92.625,83.0 L 92.375,83.0 L 92.25,82.875 L 92.125,82.875 L 92.0,82.75 L 91.875,82.75 L 91.625,82.5 L 91.5,82.5 L 91.25,82.25 L 91.25,82.125 L 91.125,82.0 L 91.125,81.75 L 91.0,81.625 L 91.0,81.5 L 91.125,81.375 L 91.125,81.125 L 91.375,80.875 L 91.375,80.75 L 91.5,80.625 L 91.5,80.5 L 91.625,80.375 L 91.625,80.25 L 91.75,80.125 L 91.75,79.875 L 91.875,79.75 L 91.875,79.375 L 92.0,79.25 L 92.0,79.125 L 92.5,78.625 L 92.625,78.625 L 92.75,78.5 L 93.0,78.5 L 93.125,78.375 L 93.375,78.375 L 93.5,78.25 L 93.625,78.25 L 93.75,78.125 L 93.875,78.125 L 94.25,77.75 L 94.375,77.75 L 94.625,77.5 L 94.625,77.375 L 94.875,77.125 L 94.875,77.0 L 95.125,76.75 L 95.125,76.625 L 95.25,76.5 L 95.25,76.375 L 95.375,76.25 L 95.375,76.125 L 95.5,76.0 L 95.5,75.75 L 95.625,75.625 L 95.625,75.375 L 95.75,75.25 L 95.75,75.0 L 95.875,74.875 L 95.875,74.625 L 96.0,74.5 L 96.0,74.25 L 96.125,74.125 L 96.125,73.75 L 96.25,73.625 L 96.25,73.375 L 96.375,73.25 L 96.375,72.875 L 96.5,72.75 L 96.5,72.5 L 96.625,72.375 L 96.625,72.125 L 96.75,72.0 L 96.75,71.75 L 96.875,71.625 L 96.875,71.375 L 97.0,71.25 L 97.0,71.0 L 97.125,70.875 L 97.125,70.625 L 97.25,70.5 L 97.25,70.125 L 97.375,70.0 L 97.375,69.125 L 97.25,69.0 L 97.25,68.75 L 97.125,68.625 L 97.125,68.5 L 97.0,68.375 L 97.0,68.25 L 96.75,68.0 L 96.75,67.875 L 96.625,67.75 L 96.5,67.75 L 96.25,67.5 L 96.125,67.5 L 96.0,67.375 L 95.875,67.375 L 95.75,67.25 L 94.375,67.25 L 94.25,67.375 L 93.75,67.375 L 93.625,67.25 L 93.625,67.125 L 94.125,66.625 L 94.25,66.625 L 94.625,66.25 L 94.75,66.25 L 95.0,66.0 L 95.125,66.0 L 95.375,65.75 L 95.5,65.75 L 95.75,65.5 L 95.875,65.5 L 96.25,65.125 L 96.375,65.125 L 96.75,64.75 L 96.875,64.75 L 97.125,64.5 L 97.25,64.5 L 97.5,64.25 L 97.75,64.25 z M 2.0,63.75 L 2.25,63.75 L 2.375,63.875 L 2.5,63.875 L 2.875,64.25 L 2.875,64.75 L 2.75,64.875 L 2.75,66.625 L 2.875,66.75 L 2.875,67.125 L 3.0,67.25 L 3.0,67.75 L 3.125,67.875 L 3.125,68.25 L 3.25,68.375 L 3.25,68.75 L 3.375,68.875 L 3.375,69.25 L 3.5,69.375 L 3.5,69.75 L 3.375,69.875 L 3.375,70.0 L 3.25,70.125 L 3.25,70.25 L 3.0,70.5 L 3.0,70.625 L 2.25,71.375 L 2.125,71.375 L 2.0,71.5 L 1.75,71.25 L 1.75,71.0 L 1.625,70.875 L 1.625,64.5 L 1.75,64.375 L 1.75,64.0 L 2.0,63.75 z M 6.375,62.125 L 6.5,62.0 L 6.875,62.0 L 7.0,62.125 L 7.625,62.125 L 7.75,62.25 L 8.125,62.25 L 8.25,62.375 L 8.375,62.375 L 8.75,62.75 L 8.75,62.875 L 9.0,63.125 L 9.0,63.25 L 9.125,63.375 L 9.125,63.5 L 9.25,63.625 L 9.25,63.75 L 9.5,64.0 L 9.5,64.125 L 9.625,64.25 L 9.625,64.625 L 9.25,65.0 L 9.125,65.0 L 9.0,65.125 L 8.875,65.125 L 8.75,65.25 L 8.5,65.25 L 8.375,65.375 L 7.875,65.375 L 7.75,65.25 L 7.625,65.25 L 7.375,65.0 L 7.375,64.875 L 7.25,64.75 L 7.25,64.625 L 7.0,64.375 L 7.0,64.25 L 6.375,63.625 L 6.25,63.625 L 6.0,63.375 L 5.875,63.375 L 5.75,63.25 L 5.75,63.125 L 5.625,63.0 L 5.625,62.625 L 5.75,62.5 L 5.75,62.375 L 5.875,62.25 L 6.125,62.25 L 6.25,62.125 L 6.375,62.125 z M 17.25,60.625 L 17.625,60.625 L 17.75,60.75 L 18.0,60.75 L 18.125,60.875 L 18.25,60.875 L 18.375,61.0 L 18.5,61.0 L 18.625,61.125 L 18.75,61.125 L 19.0,61.375 L 19.125,61.375 L 19.75,62.0 L 19.75,62.125 L 20.125,62.5 L 20.125,62.625 L 20.375,62.875 L 20.375,63.0 L 20.625,63.25 L 20.625,63.375 L 20.75,63.5 L 20.75,63.625 L 21.0,63.875 L 21.0,64.0 L 21.125,64.125 L 21.125,64.25 L 21.25,64.375 L 21.25,64.5 L 21.375,64.625 L 21.375,64.75 L 21.5,64.875 L 21.5,65.0 L 21.375,65.125 L 21.125,65.125 L 21.0,65.0 L 20.875,65.0 L 20.75,64.875 L 20.625,64.875 L 20.5,64.75 L 20.375,64.75 L 20.25,64.625 L 20.0,64.625 L 19.875,64.5 L 19.5,64.5 L 19.375,64.375 L 17.5,64.375 L 17.375,64.5 L 17.0,64.5 L 16.875,64.625 L 16.375,64.625 L 16.25,64.5 L 16.125,64.5 L 15.875,64.25 L 15.875,64.125 L 15.75,64.0 L 15.75,63.875 L 15.625,63.75 L 15.625,63.625 L 15.75,63.5 L 15.75,63.375 L 15.875,63.25 L 15.875,63.125 L 16.0,63.0 L 16.0,62.875 L 16.25,62.625 L 16.25,62.375 L 16.375,62.25 L 16.375,62.125 L 16.5,62.0 L 16.5,61.75 L 16.625,61.625 L 16.625,61.5 L 16.75,61.375 L 16.75,61.125 L 17.25,60.625 z M 93.625,57.375 L 93.75,57.25 L 93.875,57.25 L 94.0,57.375 L 94.125,57.375 L 94.5,57.75 L 94.5,57.875 L 94.75,58.125 L 94.75,58.25 L 95.125,58.625 L 95.125,58.75 L 95.375,59.0 L 95.375,59.125 L 95.5,59.25 L 95.5,59.5 L 95.375,59.625 L 95.375,59.75 L 95.0,60.125 L 94.875,60.125 L 94.625,60.375 L 94.5,60.375 L 94.125,60.75 L 94.0,60.75 L 93.625,61.125 L 93.5,61.125 L 93.125,61.5 L 93.0,61.5 L 92.75,61.75 L 92.625,61.75 L 92.25,62.125 L 92.125,62.125 L 92.0,62.25 L 91.875,62.25 L 91.625,62.5 L 91.5,62.5 L 91.25,62.75 L 91.125,62.75 L 91.0,62.875 L 90.5,62.875 L 90.375,62.75 L 90.25,62.75 L 90.125,62.625 L 90.0,62.625 L 89.375,62.0 L 89.375,61.875 L 89.25,61.75 L 89.25,61.5 L 89.375,61.375 L 89.375,61.25 L 89.875,60.75 L 89.875,60.625 L 90.125,60.375 L 90.25,60.375 L 90.875,59.75 L 91.0,59.75 L 91.5,59.25 L 91.625,59.25 L 93.5,57.375 L 93.625,57.375 z M 72.0,54.625 L 72.375,54.625 L 72.5,54.75 L 72.75,54.75 L 73.0,55.0 L 73.0,55.875 L 72.875,56.0 L 72.875,56.375 L 72.75,56.5 L 72.75,56.75 L 72.625,56.875 L 72.625,57.25 L 72.5,57.375 L 72.5,58.0 L 72.375,58.125 L 72.375,60.625 L 72.25,60.75 L 72.25,61.0 L 71.875,61.375 L 71.75,61.25 L 71.75,60.75 L 71.625,60.625 L 71.625,55.125 L 71.75,55.0 L 71.75,54.875 L 72.0,54.625 z M 87.0,53.375 L 87.75,53.375 L 87.875,53.5 L 88.25,53.5 L 88.375,53.625 L 88.75,53.625 L 88.875,53.75 L 89.125,53.75 L 89.25,53.875 L 89.375,53.875 L 89.625,54.125 L 89.625,54.375 L 88.0,56.0 L 87.875,56.0 L 87.75,56.125 L 87.0,56.125 L 86.875,56.0 L 86.625,56.0 L 86.5,55.875 L 86.125,55.875 L 85.75,55.5 L 85.875,55.375 L 85.875,55.25 L 86.25,54.875 L 86.25,54.75 L 86.5,54.5 L 86.5,54.25 L 86.625,54.125 L 86.625,54.0 L 86.75,53.875 L 86.75,53.625 L 87.0,53.375 z M 78.625,52.625 L 78.875,52.625 L 79.125,52.875 L 79.125,53.125 L 79.25,53.25 L 79.25,53.875 L 79.375,54.0 L 79.375,54.125 L 79.5,54.25 L 79.5,54.5 L 79.75,54.75 L 79.75,54.875 L 80.625,55.75 L 80.75,55.75 L 81.0,56.0 L 81.125,56.0 L 81.375,56.25 L 81.5,56.25 L 81.625,56.375 L 81.75,56.375 L 81.875,56.5 L 82.0,56.5 L 82.125,56.625 L 82.5,56.625 L 82.625,56.75 L 83.125,56.75 L 83.375,57.0 L 83.375,57.5 L 83.25,57.625 L 83.25,58.875 L 83.375,59.0 L 83.375,59.25 L 83.5,59.375 L 83.5,59.625 L 83.625,59.75 L 83.625,59.875 L 83.75,60.0 L 83.75,60.125 L 83.875,60.25 L 83.875,60.625 L 83.75,60.75 L 83.75,60.875 L 83.5,61.125 L 83.5,61.25 L 83.0,61.75 L 83.0,61.875 L 82.375,62.5 L 82.25,62.5 L 82.125,62.625 L 82.0,62.625 L 81.875,62.5 L 81.625,62.5 L 81.5,62.375 L 81.375,62.375 L 81.25,62.25 L 81.0,62.25 L 80.875,62.125 L 80.5,62.125 L 80.375,62.0 L 79.0,62.0 L 78.875,61.875 L 78.75,61.875 L 78.375,61.5 L 78.375,60.875 L 78.5,60.75 L 78.5,60.625 L 78.75,60.375 L 78.75,60.25 L 78.875,60.125 L 78.875,60.0 L 79.0,59.875 L 79.0,59.75 L 79.125,59.625 L 79.125,58.375 L 79.0,58.25 L 79.0,58.0 L 78.875,57.875 L 78.875,57.625 L 78.75,57.5 L 78.75,56.25 L 78.625,56.125 L 78.625,55.625 L 78.5,55.5 L 78.5,55.25 L 78.375,55.125 L 78.375,54.625 L 78.25,54.5 L 78.25,53.0 L 78.625,52.625 z M 7.625,51.75 L 7.75,51.625 L 7.875,51.625 L 8.0,51.75 L 9.0,51.75 L 9.5,52.25 L 9.5,53.75 L 9.375,53.875 L 9.375,54.875 L 9.25,55.0 L 9.25,56.125 L 9.125,56.25 L 9.125,56.875 L 8.75,57.25 L 8.375,57.25 L 8.25,57.125 L 8.0,57.125 L 7.875,57.0 L 7.75,57.0 L 7.5,56.75 L 7.5,56.625 L 7.375,56.5 L 7.375,52.125 L 7.625,51.875 L 7.625,51.75 z M 1.75,48.75 L 1.875,48.625 L 2.0,48.625 L 2.125,48.75 L 2.125,49.0 L 2.25,49.125 L 2.25,49.75 L 2.375,49.875 L 2.375,51.25 L 2.25,51.375 L 2.25,55.875 L 2.375,56.0 L 2.375,57.5 L 2.0,57.875 L 1.875,57.875 L 1.75,57.75 L 1.75,57.375 L 1.625,57.25 L 1.625,49.375 L 1.75,49.25 L 1.75,48.75 z M 14.875,44.625 L 15.125,44.625 L 15.25,44.75 L 15.5,44.75 L 15.625,44.875 L 15.75,44.875 L 15.875,45.0 L 16.0,45.0 L 16.375,45.375 L 16.375,45.5 L 16.625,45.75 L 16.625,45.875 L 16.75,46.0 L 16.75,46.125 L 16.875,46.25 L 16.875,46.375 L 17.625,47.125 L 17.75,47.125 L 18.0,47.375 L 18.25,47.375 L 18.375,47.5 L 20.0,47.5 L 20.25,47.75 L 20.25,47.875 L 20.375,48.0 L 20.375,49.375 L 20.25,49.5 L 20.25,50.25 L 20.125,50.375 L 20.125,50.75 L 20.0,50.875 L 20.0,51.0 L 19.75,51.25 L 19.75,51.375 L 19.625,51.5 L 19.5,51.5 L 19.125,51.875 L 18.25,51.875 L 18.125,51.75 L 17.0,51.75 L 16.875,51.875 L 16.5,51.875 L 16.375,52.0 L 16.0,52.0 L 15.875,52.125 L 15.75,52.125 L 15.625,52.0 L 15.125,52.0 L 15.0,51.875 L 14.875,51.875 L 14.75,51.75 L 14.75,51.625 L 14.625,51.5 L 14.625,48.625 L 14.75,48.5 L 14.75,45.375 L 14.625,45.25 L 14.625,44.875 L 14.875,44.625 z M 25.125,43.625 L 25.5,43.625 L 25.625,43.75 L 26.25,43.75 L 26.375,43.875 L 27.25,43.875 L 27.375,44.0 L 27.875,44.0 L 28.0,44.125 L 28.125,44.125 L 28.25,44.25 L 28.25,44.375 L 28.375,44.5 L 28.375,64.875 L 28.25,65.0 L 28.25,65.25 L 28.125,65.375 L 27.875,65.375 L 27.125,64.625 L 27.125,64.5 L 26.875,64.25 L 26.875,64.125 L 26.75,64.0 L 26.75,63.875 L 26.5,63.625 L 26.5,63.5 L 26.25,63.25 L 26.25,63.125 L 26.125,63.0 L 26.125,62.875 L 25.875,62.625 L 25.875,62.5 L 25.625,62.25 L 25.625,62.125 L 25.5,62.0 L 25.5,61.875 L 25.25,61.625 L 25.25,61.5 L 25.0,61.25 L 25.0,61.125 L 24.75,60.875 L 24.75,60.75 L 24.625,60.625 L 24.625,60.5 L 24.5,60.375 L 24.5,59.25 L 24.625,59.125 L 24.625,57.5 L 24.5,57.375 L 24.5,57.25 L 24.375,57.125 L 24.375,57.0 L 24.125,56.75 L 24.125,56.625 L 24.0,56.5 L 23.875,56.5 L 23.625,56.25 L 23.5,56.25 L 23.375,56.125 L 23.25,56.125 L 23.125,56.0 L 21.875,56.0 L 21.75,56.125 L 21.625,56.125 L 21.5,56.25 L 21.25,56.25 L 21.125,56.375 L 20.375,56.375 L 20.25,56.25 L 20.25,56.125 L 20.125,56.0 L 20.125,55.75 L 20.25,55.625 L 20.25,55.5 L 20.375,55.375 L 20.625,55.375 L 20.75,55.5 L 21.25,55.5 L 21.375,55.625 L 22.125,55.625 L 22.25,55.5 L 22.625,55.5 L 22.75,55.375 L 22.875,55.375 L 23.0,55.25 L 23.25,55.25 L 23.375,55.125 L 23.5,55.125 L 23.625,55.0 L 23.75,55.0 L 23.875,54.875 L 24.0,54.875 L 24.125,54.75 L 24.25,54.75 L 25.125,53.875 L 25.125,53.75 L 25.25,53.625 L 25.25,53.5 L 25.375,53.375 L 25.375,53.125 L 25.5,53.0 L 25.5,52.375 L 25.625,52.25 L 25.625,51.5 L 25.5,51.375 L 25.5,47.75 L 25.375,47.625 L 25.375,47.125 L 25.25,47.0 L 25.25,46.75 L 25.125,46.625 L 25.125,46.375 L 25.0,46.25 L 25.0,46.125 L 24.875,46.0 L 24.875,45.75 L 24.75,45.625 L 24.75,45.125 L 24.625,45.0 L 24.625,44.5 L 24.75,44.375 L 24.75,44.0 L 25.125,43.625 z M 86.875,42.125 L 88.5,42.125 L 88.625,42.25 L 90.625,42.25 L 90.75,42.125 L 91.75,42.125 L 92.125,42.5 L 92.125,42.625 L 92.25,42.75 L 92.25,43.75 L 92.125,43.875 L 92.125,44.25 L 92.0,44.375 L 92.0,44.625 L 91.875,44.75 L 91.875,45.0 L 91.75,45.125 L 91.75,45.375 L 91.625,45.5 L 91.625,45.75 L 91.5,45.875 L 91.5,46.125 L 91.375,46.25 L 91.375,46.5 L 91.25,46.625 L 91.25,46.75 L 91.125,46.875 L 91.125,47.0 L 90.875,47.25 L 90.875,47.375 L 90.625,47.625 L 90.5,47.625 L 90.375,47.75 L 90.25,47.75 L 90.125,47.875 L 90.0,47.875 L 89.875,48.0 L 89.5,48.0 L 89.375,48.125 L 89.0,48.125 L 88.875,48.25 L 87.75,48.25 L 87.625,48.125 L 87.25,48.125 L 87.125,48.0 L 86.875,48.0 L 86.75,47.875 L 86.625,47.875 L 86.5,47.75 L 86.5,47.625 L 86.375,47.5 L 86.375,45.625 L 86.5,45.5 L 86.5,42.5 L 86.875,42.125 z M 8.125,40.0 L 8.25,40.0 L 8.5,40.25 L 8.5,40.375 L 8.625,40.5 L 8.625,41.0 L 8.75,41.125 L 8.75,41.875 L 8.875,42.0 L 8.875,42.625 L 9.0,42.75 L 9.0,43.25 L 9.125,43.375 L 9.125,43.875 L 9.25,44.0 L 9.25,44.75 L 9.375,44.875 L 9.375,45.75 L 9.5,45.875 L 9.5,46.5 L 9.125,46.875 L 9.0,46.875 L 8.875,46.75 L 7.625,46.75 L 7.0,46.125 L 7.0,46.0 L 6.75,45.75 L 6.75,45.625 L 6.625,45.5 L 6.625,45.375 L 6.375,45.125 L 6.375,45.0 L 6.125,44.75 L 6.125,44.5 L 6.0,44.375 L 6.0,44.0 L 5.875,43.875 L 5.875,43.0 L 6.0,42.875 L 6.0,42.5 L 6.125,42.375 L 6.125,42.25 L 6.375,42.0 L 6.375,41.875 L 6.5,41.75 L 6.5,41.625 L 6.875,41.25 L 6.875,41.125 L 7.75,40.25 L 7.875,40.25 L 8.125,40.0 z M 98.125,37.625 L 98.25,37.75 L 98.25,38.125 L 98.375,38.25 L 98.375,53.375 L 98.25,53.5 L 98.25,53.875 L 98.125,54.0 L 97.875,54.0 L 97.375,53.5 L 97.25,53.5 L 96.625,52.875 L 96.5,52.875 L 96.25,52.625 L 96.125,52.625 L 96.0,52.5 L 95.875,52.5 L 95.75,52.375 L 95.5,52.375 L 95.375,52.25 L 95.125,52.25 L 95.0,52.125 L 94.625,52.125 L 94.5,52.0 L 94.25,52.0 L 93.875,51.625 L 94.25,51.25 L 94.25,51.125 L 94.625,50.75 L 94.625,50.625 L 94.875,50.375 L 94.875,50.25 L 95.125,50.0 L 95.125,49.875 L 95.25,49.75 L 95.25,49.625 L 95.375,49.5 L 95.375,49.375 L 95.5,49.25 L 95.5,49.125 L 95.625,49.0 L 95.625,48.75 L 95.75,48.625 L 95.75,48.5 L 95.875,48.375 L 95.875,48.25 L 96.0,48.125 L 96.0,47.875 L 96.125,47.75 L 96.125,47.5 L 96.25,47.375 L 96.25,47.25 L 96.375,47.125 L 96.375,46.875 L 96.5,46.75 L 96.5,46.5 L 96.625,46.375 L 96.625,46.125 L 96.75,46.0 L 96.75,45.75 L 96.875,45.625 L 96.875,45.25 L 97.0,45.125 L 97.0,44.75 L 97.125,44.625 L 97.125,44.375 L 97.25,44.25 L 97.25,43.625 L 97.375,43.5 L 97.375,42.625 L 97.25,42.5 L 97.25,42.0 L 97.125,41.875 L 97.125,41.625 L 97.0,41.5 L 97.0,41.125 L 96.875,41.0 L 96.875,40.125 L 97.0,40.0 L 97.0,39.75 L 97.125,39.625 L 97.125,39.5 L 97.25,39.375 L 97.25,39.125 L 97.375,39.0 L 97.375,38.875 L 97.5,38.75 L 97.5,38.5 L 97.625,38.375 L 97.625,38.25 L 97.75,38.125 L 97.75,38.0 L 98.125,37.625 z M 2.0,36.875 L 2.125,36.875 L 2.25,37.0 L 2.375,37.0 L 2.5,37.125 L 2.625,37.125 L 2.75,37.25 L 3.0,37.25 L 3.375,37.625 L 3.375,37.875 L 3.125,38.125 L 3.125,38.25 L 2.0,39.375 L 1.75,39.125 L 1.75,38.75 L 1.625,38.625 L 1.625,37.625 L 1.75,37.5 L 1.75,37.125 L 2.0,36.875 z M 71.75,33.25 L 71.875,33.125 L 72.125,33.125 L 73.125,34.125 L 73.25,34.125 L 73.375,34.25 L 73.5,34.25 L 73.625,34.375 L 73.875,34.375 L 74.0,34.5 L 74.25,34.5 L 74.375,34.625 L 74.5,34.625 L 75.125,35.25 L 75.125,35.375 L 75.375,35.625 L 75.375,35.75 L 75.625,36.0 L 75.625,36.125 L 76.375,36.875 L 76.5,36.875 L 76.75,37.125 L 76.875,37.125 L 77.0,37.25 L 77.25,37.25 L 77.375,37.375 L 78.5,37.375 L 78.625,37.25 L 78.875,37.25 L 79.0,37.125 L 79.125,37.125 L 79.25,37.0 L 79.375,37.0 L 79.5,36.875 L 81.0,36.875 L 81.375,37.25 L 81.375,38.25 L 81.5,38.375 L 81.5,45.0 L 81.375,45.125 L 81.375,45.5 L 81.25,45.625 L 81.25,45.75 L 80.875,46.125 L 80.75,46.125 L 80.625,46.25 L 80.5,46.25 L 80.375,46.375 L 80.125,46.375 L 80.0,46.5 L 79.875,46.5 L 79.75,46.625 L 79.625,46.625 L 79.5,46.75 L 79.375,46.75 L 79.25,46.875 L 79.125,46.875 L 79.0,47.0 L 78.875,47.0 L 78.75,47.125 L 78.625,47.125 L 78.5,47.25 L 78.375,47.25 L 78.25,47.375 L 78.125,47.375 L 77.875,47.625 L 77.75,47.625 L 77.5,47.875 L 77.375,47.875 L 77.125,48.125 L 77.0,48.125 L 76.75,48.375 L 76.625,48.375 L 75.875,49.125 L 75.875,49.25 L 75.625,49.5 L 75.625,49.625 L 75.5,49.75 L 75.5,49.875 L 75.125,50.25 L 74.625,50.25 L 74.5,50.125 L 74.25,50.125 L 74.125,50.0 L 74.0,50.0 L 73.875,49.875 L 73.75,49.875 L 73.625,49.75 L 73.375,49.75 L 73.25,49.625 L 73.125,49.625 L 73.0,49.5 L 72.875,49.5 L 72.75,49.375 L 72.5,49.375 L 72.375,49.25 L 72.25,49.25 L 71.75,48.75 L 71.75,48.625 L 71.625,48.5 L 71.625,34.0 L 71.75,33.875 L 71.75,33.25 z M 87.875,27.875 L 88.125,27.875 L 88.25,28.0 L 88.375,28.0 L 88.5,28.125 L 88.75,28.125 L 88.875,28.25 L 89.0,28.25 L 89.125,28.375 L 89.25,28.375 L 89.375,28.5 L 89.5,28.5 L 89.75,28.75 L 89.875,28.75 L 90.0,28.875 L 90.125,28.875 L 90.625,29.375 L 90.75,29.375 L 91.0,29.625 L 91.0,29.75 L 91.625,30.375 L 91.625,30.5 L 92.0,30.875 L 92.0,31.0 L 92.375,31.375 L 92.375,31.5 L 92.5,31.625 L 92.5,31.875 L 92.625,32.0 L 92.625,32.25 L 92.75,32.375 L 92.75,32.875 L 92.875,33.0 L 92.875,33.75 L 93.0,33.875 L 93.0,34.75 L 93.125,34.875 L 93.125,36.0 L 93.0,36.125 L 93.0,36.625 L 92.875,36.75 L 92.875,37.0 L 92.75,37.125 L 92.75,37.25 L 92.375,37.625 L 91.875,37.625 L 91.75,37.5 L 91.375,37.5 L 91.25,37.375 L 90.75,37.375 L 90.625,37.25 L 88.5,37.25 L 88.375,37.125 L 87.0,37.125 L 86.875,37.0 L 86.75,37.0 L 86.5,36.75 L 86.5,35.875 L 86.625,35.75 L 86.625,34.875 L 86.75,34.75 L 86.75,33.875 L 86.875,33.75 L 86.875,33.0 L 87.0,32.875 L 87.0,32.125 L 87.125,32.0 L 87.125,31.25 L 87.25,31.125 L 87.25,30.125 L 87.375,30.0 L 87.375,29.0 L 87.5,28.875 L 87.5,28.25 L 87.875,27.875 z M 8.0,27.125 L 8.25,27.125 L 8.375,27.25 L 8.375,27.875 L 8.25,28.0 L 8.25,28.75 L 8.125,28.875 L 8.125,34.375 L 8.0,34.5 L 8.0,34.625 L 7.875,34.75 L 7.75,34.75 L 7.625,34.875 L 7.375,34.875 L 7.25,35.0 L 7.125,35.0 L 7.0,35.125 L 6.875,35.125 L 6.75,35.25 L 6.5,35.25 L 6.125,34.875 L 6.125,34.0 L 6.0,33.875 L 6.0,33.25 L 5.875,33.125 L 5.875,32.75 L 5.75,32.625 L 5.75,32.25 L 5.625,32.125 L 5.625,31.75 L 5.5,31.625 L 5.5,30.625 L 5.625,30.5 L 5.625,30.375 L 5.75,30.25 L 5.75,30.125 L 6.0,29.875 L 6.0,29.75 L 6.125,29.625 L 6.125,29.5 L 6.375,29.25 L 6.375,29.125 L 6.625,28.875 L 6.625,28.75 L 7.0,28.375 L 7.0,28.25 L 7.375,27.875 L 7.375,27.75 L 8.0,27.125 z M 97.75,25.25 L 97.875,25.125 L 98.0,25.125 L 98.25,25.375 L 98.25,25.75 L 98.375,25.875 L 98.375,32.625 L 98.125,32.875 L 98.0,32.75 L 98.0,32.25 L 97.875,32.125 L 97.875,31.75 L 97.75,31.625 L 97.75,31.375 L 97.625,31.25 L 97.625,31.0 L 97.5,30.875 L 97.5,30.625 L 97.375,30.5 L 97.375,30.375 L 97.25,30.25 L 97.25,30.125 L 97.125,30.0 L 97.125,29.875 L 97.0,29.75 L 97.0,29.625 L 96.875,29.5 L 96.875,29.375 L 96.625,29.125 L 96.625,29.0 L 96.25,28.625 L 96.25,28.5 L 95.75,28.0 L 95.75,27.875 L 95.25,27.375 L 95.25,27.25 L 95.0,27.0 L 95.0,26.875 L 94.75,26.625 L 94.75,26.25 L 94.875,26.125 L 96.125,26.125 L 96.25,26.0 L 96.5,26.0 L 96.625,25.875 L 96.75,25.875 L 96.875,25.75 L 97.0,25.75 L 97.25,25.5 L 97.375,25.5 L 97.625,25.25 L 97.75,25.25 z M 16.25,18.0 L 16.375,17.875 L 16.625,17.875 L 16.75,18.0 L 16.875,18.0 L 17.0,18.125 L 17.125,18.125 L 17.25,18.25 L 17.375,18.25 L 17.5,18.375 L 17.625,18.375 L 17.75,18.5 L 17.875,18.5 L 18.0,18.625 L 18.25,18.625 L 18.375,18.75 L 18.5,18.75 L 18.625,18.875 L 18.875,18.875 L 19.0,19.0 L 19.25,19.0 L 19.375,19.125 L 19.5,19.125 L 19.625,19.25 L 19.75,19.25 L 20.375,19.875 L 20.375,20.0 L 20.5,20.125 L 20.5,20.25 L 20.625,20.375 L 20.625,20.5 L 20.75,20.625 L 20.75,20.875 L 20.875,21.0 L 20.875,21.25 L 21.0,21.375 L 21.0,21.75 L 21.125,21.875 L 21.125,22.5 L 21.25,22.625 L 21.25,23.5 L 21.375,23.625 L 21.375,24.875 L 21.5,25.0 L 21.5,26.5 L 21.625,26.625 L 21.625,28.25 L 21.75,28.375 L 21.75,30.0 L 21.875,30.125 L 21.875,31.0 L 22.0,31.125 L 22.0,31.625 L 22.125,31.75 L 22.125,32.125 L 22.25,32.25 L 22.25,32.625 L 22.375,32.75 L 22.375,33.125 L 22.5,33.25 L 22.5,34.0 L 22.375,34.125 L 22.375,34.625 L 22.25,34.75 L 22.25,35.0 L 22.125,35.125 L 22.125,35.5 L 22.0,35.625 L 22.0,35.875 L 21.875,36.0 L 21.875,36.375 L 21.75,36.5 L 21.75,36.75 L 21.625,36.875 L 21.625,37.25 L 21.5,37.375 L 21.5,37.75 L 21.375,37.875 L 21.375,38.125 L 21.25,38.25 L 21.25,38.625 L 21.125,38.75 L 21.125,39.125 L 21.0,39.25 L 21.0,39.5 L 20.875,39.625 L 20.875,40.0 L 20.75,40.125 L 20.75,40.375 L 20.625,40.5 L 20.625,40.75 L 20.5,40.875 L 20.5,41.0 L 20.375,41.125 L 20.375,41.25 L 20.25,41.375 L 20.125,41.375 L 20.0,41.5 L 19.875,41.375 L 19.75,41.375 L 19.5,41.125 L 19.375,41.125 L 19.25,41.0 L 19.125,41.0 L 19.0,40.875 L 18.875,40.875 L 18.75,40.75 L 18.625,40.75 L 18.5,40.625 L 18.25,40.625 L 18.125,40.5 L 18.0,40.5 L 17.875,40.375 L 17.625,40.375 L 17.5,40.25 L 17.25,40.25 L 17.125,40.125 L 16.875,40.125 L 16.75,40.0 L 16.625,40.0 L 16.5,39.875 L 16.25,39.875 L 16.125,39.75 L 15.875,39.75 L 15.75,39.625 L 15.5,39.625 L 15.375,39.5 L 15.125,39.5 L 15.0,39.375 L 14.625,39.375 L 14.5,39.25 L 14.0,39.25 L 13.875,39.125 L 13.75,39.125 L 13.625,39.0 L 13.625,38.875 L 13.5,38.75 L 13.5,38.625 L 13.375,38.5 L 13.375,36.875 L 13.25,36.75 L 13.25,34.5 L 13.375,34.375 L 13.375,34.25 L 13.625,34.0 L 14.25,34.0 L 14.375,33.875 L 15.0,33.875 L 15.125,33.75 L 15.625,33.75 L 15.75,33.625 L 16.375,33.625 L 16.5,33.5 L 17.0,33.5 L 17.125,33.375 L 17.625,33.375 L 17.75,33.25 L 18.0,33.25 L 18.125,33.125 L 18.25,33.125 L 18.375,33.0 L 18.5,33.0 L 18.625,32.875 L 18.75,32.875 L 19.0,32.625 L 19.125,32.625 L 19.375,32.375 L 19.375,32.25 L 19.625,32.0 L 19.625,31.875 L 19.75,31.75 L 19.75,31.5 L 19.875,31.375 L 19.875,30.25 L 19.75,30.125 L 19.75,29.875 L 19.625,29.75 L 19.625,29.625 L 18.875,28.875 L 18.75,28.875 L 18.625,28.75 L 18.5,28.75 L 18.375,28.625 L 18.0,28.625 L 17.875,28.5 L 16.375,28.5 L 16.25,28.625 L 15.5,28.625 L 15.375,28.75 L 14.75,28.75 L 14.625,28.875 L 14.125,28.875 L 14.0,29.0 L 13.625,29.0 L 13.25,28.625 L 13.25,28.5 L 13.375,28.375 L 13.375,28.0 L 13.5,27.875 L 13.5,27.5 L 13.625,27.375 L 13.625,27.0 L 13.75,26.875 L 13.75,26.625 L 13.875,26.5 L 13.875,26.25 L 14.0,26.125 L 14.0,25.875 L 14.125,25.75 L 14.125,25.375 L 14.25,25.25 L 14.25,25.0 L 14.375,24.875 L 14.375,24.5 L 14.5,24.375 L 14.5,24.125 L 14.625,24.0 L 14.625,23.75 L 14.75,23.625 L 14.75,23.25 L 14.875,23.125 L 14.875,22.875 L 15.0,22.75 L 15.0,22.5 L 15.125,22.375 L 15.125,22.125 L 15.25,22.0 L 15.25,21.75 L 15.375,21.625 L 15.375,21.375 L 15.5,21.25 L 15.5,20.875 L 15.625,20.75 L 15.625,20.375 L 15.75,20.25 L 15.75,19.875 L 15.875,19.75 L 15.875,19.25 L 16.0,19.125 L 16.0,18.625 L 16.125,18.5 L 16.125,18.25 L 16.25,18.125 L 16.25,18.0 z M 82.0,17.875 L 82.125,17.75 L 82.5,17.75 L 82.75,18.0 L 82.75,18.375 L 82.625,18.5 L 82.625,19.125 L 82.5,19.25 L 82.5,28.625 L 82.375,28.75 L 82.375,29.875 L 82.25,30.0 L 82.25,30.875 L 82.125,31.0 L 82.125,31.5 L 81.75,31.875 L 81.0,31.875 L 80.875,31.75 L 80.5,31.75 L 80.375,31.625 L 80.25,31.625 L 80.125,31.5 L 80.0,31.5 L 79.875,31.375 L 79.75,31.375 L 79.625,31.25 L 79.5,31.25 L 79.375,31.125 L 79.25,31.125 L 79.125,31.0 L 79.0,31.0 L 78.875,30.875 L 78.75,30.875 L 78.625,30.75 L 78.375,30.75 L 78.25,30.625 L 77.75,30.625 L 77.625,30.5 L 77.375,30.5 L 77.25,30.625 L 77.125,30.625 L 77.0,30.5 L 76.875,30.5 L 76.75,30.375 L 76.75,30.25 L 76.625,30.125 L 76.625,29.875 L 76.5,29.75 L 76.5,29.125 L 76.375,29.0 L 76.375,28.125 L 76.25,28.0 L 76.25,27.0 L 76.125,26.875 L 76.125,26.0 L 76.0,25.875 L 76.0,25.125 L 75.875,25.0 L 75.875,24.0 L 75.75,23.875 L 75.75,22.5 L 75.875,22.375 L 75.875,21.875 L 76.0,21.75 L 76.0,21.375 L 76.125,21.25 L 76.125,20.75 L 76.25,20.625 L 76.25,20.375 L 76.5,20.125 L 76.5,20.0 L 76.625,19.875 L 76.75,19.875 L 76.875,19.75 L 77.125,19.75 L 77.25,19.625 L 77.5,19.625 L 77.625,19.5 L 77.75,19.5 L 77.875,19.375 L 78.125,19.375 L 78.25,19.25 L 78.375,19.25 L 78.5,19.125 L 78.75,19.125 L 78.875,19.0 L 79.0,19.0 L 79.125,18.875 L 79.375,18.875 L 79.5,18.75 L 79.75,18.75 L 79.875,18.625 L 80.0,18.625 L 80.125,18.5 L 80.375,18.5 L 80.5,18.375 L 80.625,18.375 L 80.75,18.25 L 81.0,18.25 L 81.125,18.125 L 81.25,18.125 L 81.375,18.0 L 81.625,18.0 L 81.75,17.875 L 82.0,17.875 z M 27.875,16.25 L 28.0,16.25 L 28.25,16.5 L 28.25,17.0 L 28.375,17.125 L 28.375,38.5 L 28.25,38.625 L 28.25,38.75 L 28.125,38.875 L 28.0,38.875 L 27.875,39.0 L 27.375,39.0 L 27.25,38.875 L 26.875,38.875 L 26.75,38.75 L 26.625,38.75 L 26.5,38.625 L 26.5,38.5 L 26.375,38.375 L 26.375,38.25 L 26.5,38.125 L 26.5,37.875 L 26.625,37.75 L 26.625,37.375 L 26.75,37.25 L 26.75,37.0 L 26.875,36.875 L 26.875,36.625 L 27.0,36.5 L 27.0,36.125 L 27.125,36.0 L 27.125,35.75 L 27.25,35.625 L 27.25,35.375 L 27.375,35.25 L 27.375,34.875 L 27.5,34.75 L 27.5,34.25 L 27.625,34.125 L 27.625,33.125 L 27.5,33.0 L 27.5,32.625 L 27.375,32.5 L 27.375,32.125 L 27.25,32.0 L 27.25,31.75 L 27.125,31.625 L 27.125,31.375 L 27.0,31.25 L 27.0,30.75 L 26.875,30.625 L 26.875,30.0 L 26.75,29.875 L 26.75,28.25 L 26.625,28.125 L 26.625,26.625 L 26.5,26.5 L 26.5,25.0 L 26.375,24.875 L 26.375,23.5 L 26.25,23.375 L 26.25,22.375 L 26.125,22.25 L 26.125,21.625 L 26.0,21.5 L 26.0,21.0 L 25.875,20.875 L 25.875,20.5 L 25.75,20.375 L 25.75,20.0 L 25.625,19.875 L 25.625,19.625 L 25.5,19.5 L 25.5,19.25 L 25.375,19.125 L 25.375,18.875 L 25.25,18.75 L 25.25,18.625 L 25.125,18.5 L 25.125,18.375 L 25.0,18.25 L 25.0,18.125 L 24.875,18.0 L 24.875,17.875 L 24.75,17.75 L 24.75,17.625 L 24.625,17.5 L 24.625,17.375 L 24.5,17.25 L 24.5,17.125 L 24.625,17.0 L 25.125,17.0 L 25.25,17.125 L 26.5,17.125 L 26.625,17.0 L 26.75,17.0 L 26.875,16.875 L 27.0,16.875 L 27.125,16.75 L 27.25,16.75 L 27.5,16.5 L 27.625,16.5 L 27.875,16.25 z M 88.25,15.125 L 88.375,15.0 L 88.875,15.0 L 89.0,15.125 L 89.25,15.125 L 89.375,15.25 L 89.625,15.25 L 89.75,15.375 L 90.0,15.375 L 90.125,15.5 L 90.25,15.5 L 90.375,15.625 L 90.625,15.625 L 90.75,15.75 L 90.875,15.75 L 91.0,15.875 L 91.125,15.875 L 91.25,16.0 L 91.375,16.0 L 91.5,16.125 L 91.625,16.125 L 91.875,16.375 L 92.0,16.375 L 92.25,16.625 L 92.375,16.625 L 92.75,17.0 L 92.875,17.0 L 93.75,17.875 L 93.75,18.0 L 93.875,18.125 L 93.875,18.375 L 94.0,18.5 L 94.0,19.0 L 94.125,19.125 L 94.125,20.125 L 94.25,20.25 L 94.25,21.625 L 94.125,21.75 L 94.125,22.125 L 94.0,22.25 L 94.0,22.375 L 93.875,22.5 L 93.875,22.625 L 93.75,22.75 L 93.75,22.875 L 93.625,23.0 L 93.625,23.375 L 93.5,23.5 L 93.5,24.875 L 93.375,25.0 L 93.125,25.0 L 93.0,24.875 L 92.875,24.875 L 92.75,24.75 L 92.625,24.75 L 92.375,24.5 L 92.25,24.5 L 92.125,24.375 L 92.0,24.375 L 91.875,24.25 L 91.75,24.25 L 91.625,24.125 L 91.5,24.125 L 91.375,24.0 L 91.25,24.0 L 91.125,23.875 L 91.0,23.875 L 90.875,23.75 L 90.75,23.75 L 90.625,23.625 L 90.5,23.625 L 90.375,23.5 L 90.125,23.5 L 90.0,23.375 L 89.875,23.375 L 89.75,23.25 L 89.625,23.25 L 89.5,23.125 L 89.25,23.125 L 89.125,23.0 L 89.0,23.0 L 88.875,22.875 L 88.625,22.875 L 88.5,22.75 L 88.125,22.75 L 88.0,22.625 L 87.875,22.625 L 87.75,22.5 L 87.75,22.375 L 87.5,22.125 L 87.5,19.5 L 87.625,19.375 L 87.625,18.875 L 87.75,18.75 L 87.75,18.25 L 87.875,18.125 L 87.875,17.5 L 88.0,17.375 L 88.0,16.25 L 88.125,16.125 L 88.125,15.375 L 88.25,15.25 L 88.25,15.125 z M 11.0,10.375 L 11.125,10.25 L 11.5,10.25 L 11.625,10.375 L 11.625,10.5 L 11.75,10.625 L 11.75,11.25 L 11.625,11.375 L 11.625,12.875 L 11.5,13.0 L 11.5,14.625 L 11.375,14.75 L 11.375,16.125 L 11.25,16.25 L 11.25,17.25 L 11.125,17.375 L 11.125,18.125 L 11.0,18.25 L 11.0,18.875 L 10.875,19.0 L 10.875,19.375 L 10.75,19.5 L 10.75,19.875 L 10.625,20.0 L 10.625,20.25 L 10.5,20.375 L 10.5,20.625 L 10.375,20.75 L 10.375,21.0 L 10.25,21.125 L 10.25,21.25 L 9.875,21.625 L 9.75,21.625 L 9.625,21.75 L 8.25,21.75 L 8.125,21.875 L 7.625,21.875 L 7.5,22.0 L 7.125,22.0 L 6.875,21.75 L 6.875,21.625 L 6.75,21.5 L 6.75,20.75 L 6.625,20.625 L 6.625,19.25 L 6.5,19.125 L 6.5,16.625 L 6.625,16.5 L 6.625,16.0 L 6.75,15.875 L 6.75,15.5 L 6.875,15.375 L 6.875,15.25 L 7.0,15.125 L 7.0,15.0 L 7.125,14.875 L 7.125,14.75 L 7.25,14.625 L 7.25,14.5 L 7.375,14.375 L 7.375,14.25 L 7.5,14.125 L 7.5,14.0 L 7.625,13.875 L 7.625,13.75 L 7.75,13.625 L 7.75,13.5 L 7.875,13.375 L 7.875,13.25 L 8.0,13.125 L 8.0,13.0 L 8.25,12.75 L 8.25,12.625 L 8.375,12.5 L 8.375,12.375 L 8.5,12.25 L 8.5,12.125 L 8.625,12.0 L 8.625,11.875 L 8.875,11.625 L 8.875,11.5 L 9.375,11.0 L 9.5,11.0 L 9.625,10.875 L 9.75,10.875 L 9.875,10.75 L 10.0,10.75 L 10.125,10.625 L 10.375,10.625 L 10.5,10.5 L 10.625,10.5 L 10.75,10.375 L 11.0,10.375 z M 87.875,6.75 L 88.625,6.75 L 88.75,6.875 L 89.0,6.875 L 89.125,7.0 L 89.25,7.0 L 90.25,8.0 L 90.375,8.0 L 90.75,8.375 L 90.75,8.5 L 91.0,8.75 L 91.0,8.875 L 91.125,9.0 L 91.125,9.125 L 91.25,9.25 L 91.25,9.375 L 91.375,9.5 L 91.375,9.75 L 91.5,9.875 L 91.5,10.375 L 91.375,10.5 L 90.75,10.5 L 90.625,10.375 L 90.375,10.375 L 90.25,10.25 L 90.0,10.25 L 89.875,10.125 L 89.5,10.125 L 89.375,10.0 L 88.875,10.0 L 88.75,9.875 L 88.25,9.875 L 87.75,9.375 L 87.75,9.125 L 87.625,9.0 L 87.625,8.0 L 87.5,7.875 L 87.5,7.125 L 87.875,6.75 z M 75.5,6.5 L 75.75,6.5 L 75.875,6.625 L 76.25,6.625 L 76.375,6.75 L 77.0,6.75 L 77.125,6.875 L 79.375,6.875 L 79.5,6.75 L 81.875,6.75 L 82.0,6.875 L 82.125,6.875 L 82.5,7.25 L 82.5,8.0 L 82.625,8.125 L 82.625,9.25 L 82.75,9.375 L 82.75,10.25 L 82.875,10.375 L 82.875,11.375 L 83.0,11.5 L 83.0,12.0 L 82.875,12.125 L 82.875,12.25 L 82.5,12.625 L 82.0,12.625 L 81.875,12.75 L 81.5,12.75 L 81.375,12.875 L 81.125,12.875 L 81.0,13.0 L 80.75,13.0 L 80.625,13.125 L 80.375,13.125 L 80.25,13.25 L 80.0,13.25 L 79.875,13.375 L 79.75,13.375 L 79.625,13.5 L 79.375,13.5 L 79.25,13.625 L 79.125,13.625 L 79.0,13.75 L 78.75,13.75 L 78.625,13.875 L 78.5,13.875 L 78.375,14.0 L 78.125,14.0 L 78.0,14.125 L 77.875,14.125 L 77.75,14.25 L 77.5,14.25 L 77.375,14.375 L 77.25,14.375 L 77.125,14.5 L 76.875,14.5 L 76.75,14.375 L 76.625,14.375 L 76.5,14.25 L 76.5,14.125 L 76.375,14.0 L 76.375,13.625 L 76.25,13.5 L 76.25,13.125 L 76.125,13.0 L 76.125,12.625 L 76.0,12.5 L 76.0,12.125 L 75.875,12.0 L 75.875,11.625 L 75.75,11.5 L 75.75,11.0 L 75.625,10.875 L 75.625,10.5 L 75.5,10.375 L 75.5,9.625 L 75.375,9.5 L 75.375,8.625 L 75.25,8.5 L 75.25,7.5 L 75.125,7.375 L 75.125,6.875 L 75.5,6.5 z M 17.625,6.375 L 18.0,6.375 L 18.125,6.5 L 18.5,6.5 L 18.625,6.625 L 19.0,6.625 L 19.125,6.75 L 19.25,6.75 L 19.375,6.875 L 19.625,6.875 L 19.75,7.0 L 19.875,7.0 L 20.0,7.125 L 20.125,7.125 L 20.25,7.25 L 20.5,7.25 L 20.625,7.375 L 20.75,7.375 L 20.875,7.5 L 21.125,7.5 L 21.25,7.625 L 21.375,7.625 L 21.625,7.875 L 21.625,8.0 L 21.75,8.125 L 21.75,8.375 L 21.875,8.5 L 21.875,13.25 L 22.0,13.375 L 22.0,13.875 L 22.125,14.0 L 22.125,14.625 L 22.0,14.75 L 21.75,14.75 L 21.625,14.625 L 21.375,14.625 L 21.25,14.5 L 21.125,14.5 L 21.0,14.375 L 20.75,14.375 L 20.625,14.25 L 20.5,14.25 L 20.375,14.125 L 20.125,14.125 L 20.0,14.0 L 19.75,14.0 L 19.625,13.875 L 19.5,13.875 L 19.375,13.75 L 19.25,13.75 L 19.125,13.625 L 19.0,13.625 L 18.875,13.5 L 18.75,13.5 L 18.625,13.375 L 18.5,13.375 L 18.375,13.25 L 18.25,13.25 L 18.125,13.125 L 17.875,13.125 L 17.75,13.0 L 17.625,13.0 L 17.5,12.875 L 17.25,12.875 L 17.125,12.75 L 17.0,12.75 L 16.75,12.5 L 16.75,12.25 L 16.625,12.125 L 16.625,11.375 L 16.75,11.25 L 16.75,10.125 L 16.875,10.0 L 16.875,9.125 L 17.0,9.0 L 17.0,8.125 L 17.125,8.0 L 17.125,7.25 L 17.25,7.125 L 17.25,6.875 L 17.375,6.75 L 17.375,6.625 L 17.625,6.375 z M 91.5,1.75 L 91.625,1.625 L 97.125,1.625 L 97.25,1.75 L 97.75,1.75 L 98.25,2.25 L 98.25,2.75 L 98.375,2.875 L 98.375,14.375 L 98.25,14.5 L 98.25,14.875 L 98.0,15.125 L 97.875,15.0 L 97.75,15.0 L 96.25,13.5 L 96.125,13.5 L 95.625,13.0 L 95.5,13.0 L 94.75,12.25 L 94.75,12.125 L 95.875,11.0 L 95.875,10.875 L 96.0,10.75 L 96.0,10.5 L 96.125,10.375 L 96.125,10.0 L 96.25,9.875 L 96.25,8.875 L 96.125,8.75 L 96.125,8.25 L 96.0,8.125 L 96.0,7.75 L 95.875,7.625 L 95.875,7.375 L 95.75,7.25 L 95.75,7.125 L 95.625,7.0 L 95.625,6.875 L 95.5,6.75 L 95.5,6.625 L 95.375,6.5 L 95.375,6.375 L 95.0,6.0 L 95.0,5.875 L 93.25,4.125 L 93.125,4.125 L 92.375,3.375 L 92.25,3.375 L 91.5,2.625 L 91.375,2.625 L 90.875,2.125 L 90.875,1.875 L 91.0,1.75 L 91.5,1.75 z M 21.625,1.75 L 21.75,1.625 L 27.125,1.625 L 27.25,1.75 L 27.75,1.75 L 28.25,2.25 L 28.25,2.75 L 28.375,2.875 L 28.375,13.0 L 28.25,13.125 L 28.25,13.625 L 28.125,13.75 L 27.875,13.75 L 27.25,13.125 L 27.25,13.0 L 27.125,12.875 L 27.125,12.75 L 27.0,12.625 L 27.0,12.375 L 26.875,12.25 L 26.875,8.0 L 26.75,7.875 L 26.75,7.0 L 26.625,6.875 L 26.625,6.375 L 26.5,6.25 L 26.5,5.875 L 26.375,5.75 L 26.375,5.625 L 26.25,5.5 L 26.25,5.25 L 26.0,5.0 L 26.0,4.875 L 25.75,4.625 L 25.75,4.5 L 25.5,4.25 L 25.375,4.25 L 25.0,3.875 L 24.875,3.875 L 24.75,3.75 L 24.625,3.75 L 24.5,3.625 L 24.375,3.625 L 24.25,3.5 L 24.125,3.5 L 24.0,3.375 L 23.875,3.375 L 23.75,3.25 L 23.5,3.25 L 23.375,3.125 L 23.25,3.125 L 23.125,3.0 L 22.875,3.0 L 22.75,2.875 L 22.625,2.875 L 22.5,2.75 L 22.375,2.75 L 22.25,2.625 L 22.125,2.625 L 22.0,2.5 L 21.875,2.5 L 21.75,2.375 L 21.625,2.375 L 21.5,2.25 L 21.375,2.25 L 21.125,2.0 L 21.125,1.875 L 21.25,1.75 L 21.625,1.75 z M 2.75,1.75 L 2.875,1.625 L 8.0,1.625 L 8.125,1.75 L 8.375,1.75 L 8.75,2.125 L 8.75,2.5 L 8.875,2.625 L 8.875,3.0 L 9.0,3.125 L 9.0,3.375 L 9.125,3.5 L 9.125,3.625 L 9.375,3.875 L 9.375,4.0 L 10.25,4.875 L 10.25,5.125 L 9.875,5.5 L 9.75,5.5 L 9.625,5.625 L 9.375,5.625 L 9.25,5.75 L 9.125,5.75 L 9.0,5.875 L 8.875,5.875 L 8.75,6.0 L 8.5,6.0 L 8.375,6.125 L 8.125,6.125 L 8.0,6.25 L 7.875,6.25 L 7.75,6.375 L 7.5,6.375 L 7.375,6.5 L 7.25,6.5 L 7.125,6.625 L 7.0,6.625 L 6.875,6.75 L 6.75,6.75 L 6.625,6.875 L 6.5,6.875 L 6.25,7.125 L 6.125,7.125 L 5.375,7.875 L 5.375,8.0 L 5.125,8.25 L 5.125,8.375 L 4.875,8.625 L 4.875,8.75 L 4.75,8.875 L 4.75,9.0 L 4.5,9.25 L 4.5,9.375 L 4.375,9.5 L 4.375,9.625 L 4.25,9.75 L 4.25,9.875 L 4.125,10.0 L 4.125,10.125 L 4.0,10.25 L 4.0,10.375 L 3.75,10.625 L 3.75,10.75 L 3.625,10.875 L 3.625,11.0 L 3.5,11.125 L 3.5,11.25 L 3.25,11.5 L 3.25,11.625 L 3.125,11.75 L 3.125,11.875 L 3.0,12.0 L 3.0,12.125 L 2.875,12.25 L 2.875,12.375 L 2.625,12.625 L 2.625,12.75 L 2.5,12.875 L 2.5,13.0 L 2.375,13.125 L 2.375,13.25 L 2.0,13.625 L 1.875,13.625 L 1.75,13.5 L 1.75,13.125 L 1.625,13.0 L 1.625,2.875 L 1.75,2.75 L 1.75,2.25 L 2.25,1.75 L 2.75,1.75 z" /></g></svg>