<svg xmlns="http://www.w3.org/2000/svg" xmlns:xlink="http://www.w3.org/1999/xlink" width="109.08000000000001" height="109.08000000000001" viewBox="-4.54 -4.54 109.08000000000001 109.08000000000001" preserveAspectRatio="xMinYMin meet"><g transform="matrix(1,0,0,-1,0,100.0)"><path fill-rule="evenodd" fill="#66cc99" stroke="#555555" stroke-width="2.0" opacity="0.6" d="M 0.0,-0.5 L -0.125,-0.375 L -0.25,-0.375 L -0.375,-0.25 L -0.375,-0.125 L -0.5,0.0 L -0.5,100.0 L -0.375,100.125 L -0.375,100.25 L -0.25,100.375 L -0.125,100.375 L 0.0,100.5 L 100.0,100.5 L 100.125,100.375 L 100.25,100.375 L 100.375,100.25 L 100.375,100.125 L 100.5,100.0 L 100.5,0.0 L 100.375,-0.125 L 100.375,-0.25 L 100.25,-0.375 L 100.125,-0.375 L 100.0,-0.5 L 70.0,-0.5 L 69.875,-0.375 L 69.75,-0.375 L 69.625,-0.25 L 69.625,-0.125 L 69.5,0.0 L 69.5,69.25 L 69.25,69.5 L 30.75,69.5 L 30.5,69.25 L 30.5,0.0 L 30.375,-0.125 L 30.375,-0.25 L 30.25,-0.375 L 30.125,-0.375 L 30.0,-0.5 L 0.0,-0.5 z M 23.125,83.5 L 23.25,83.375 L 23.75,83.375 L 23.875,83.5 L 24.875,83.5 L 25.0,83.625 L 25.75,83.625 L 25.875,83.75 L 26.75,83.75 L 26.875,83.875 L 27.625,83.875 L 27.75,84.0 L 28.875,84.0 L 29.0,84.125 L 29.25,84.125 L 29.375,84.25 L 29.375,84.5 L 29.25,84.625 L 29.25,85.0 L 29.125,85.125 L 29.125,85.5 L 29.0,85.625 L 29.0,86.0 L 28.875,86.125 L 28.875,86.25 L 28.75,86.375 L 28.75,86.5 L 28.5,86.75 L 28.5,86.875 L 28.375,87.0 L 28.375,87.125 L 28.25,87.25 L 28.25,87.375 L 28.125,87.5 L 28.125,87.625 L 28.0,87.75 L 28.0,87.875 L 27.5,88.375 L 27.375,88.375 L 26.625,89.125 L 26.5,89.125 L 26.125,89.5 L 25.875,89.5 L 25.75,89.625 L 25.375,89.625 L 25.25,89.75 L 25.0,89.75 L 24.875,89.875 L 24.625,89.875 L 24.5,90.0 L 24.25,90.0 L 24.125,90.125 L 23.25,90.125 L 23.0,89.875 L 23.0,87.375 L 23.125,87.25 L 23.125,83.5 z M 99.125,74.75 L 99.25,74.625 L 99.375,74.625 L 99.5,74.75 L 99.5,76.125 L 99.375,76.25 L 99.25,76.25 L 98.375,75.375 L 98.375,75.125 L 98.5,75.0 L 98.625,75.0 L 98.75,74.875 L 98.875,74.875 L 99.0,74.75 L 99.125,74.75 z M 90.25,74.0 L 90.625,74.0 L 90.75,74.125 L 91.125,74.125 L 91.25,74.25 L 91.375,74.25 L 91.5,74.375 L 91.625,74.375 L 91.75,74.5 L 92.0,74.5 L 92.125,74.625 L 92.25,74.625 L 92.375,74.75 L 92.5,74.75 L 92.625,74.875 L 92.75,74.875 L 92.875,75.0 L 93.125,75.0 L 93.25,75.125 L 93.375,75.125 L 93.5,75.25 L 93.625,75.25 L 93.75,75.375 L 93.875,75.375 L 94.0,75.5 L 94.125,75.5 L 94.375,75.75 L 94.375,77.75 L 94.5,77.875 L 94.5,78.0 L 94.625,78.125 L 95.125,78.125 L 95.25,78.0 L 95.25,77.875 L 95.375,77.75 L 95.375,76.0 L 95.625,75.75 L 95.75,75.75 L 95.875,75.625 L 96.5,75.625 L 96.625,75.5 L 97.125,75.5 L 97.25,75.625 L 97.375,75.625 L 98.75,77.0 L 98.875,77.0 L 99.0,77.125 L 99.125,77.125 L 99.25,77.0 L 99.5,77.25 L 99.5,99.25 L 99.25,99.5 L 15.875,99.5 L 15.75,99.375 L 15.75,98.5 L 15.625,98.375 L 15.625,96.625 L 15.5,96.5 L 15.5,95.75 L 15.375,95.625 L 15.375,94.875 L 15.75,94.5 L 16.125,94.5 L 16.25,94.375 L 16.5,94.375 L 16.625,94.25 L 16.75,94.25 L 16.875,94.125 L 17.125,94.125 L 17.25,94.0 L 17.375,94.0 L 17.625,93.75 L 17.75,93.75 L 17.875,93.625 L 18.0,93.625 L 18.125,93.5 L 18.25,93.5 L 18.5,93.25 L 18.625,93.25 L 18.75,93.125 L 18.875,93.125 L 19.0,93.0 L 19.125,93.0 L 19.375,92.75 L 19.5,92.75 L 19.625,92.625 L 19.75,92.625 L 19.875,92.5 L 20.125,92.5 L 20.25,92.375 L 20.375,92.375 L 20.625,92.125 L 20.75,92.125 L 20.875,92.0 L 21.0,92.0 L 21.125,91.875 L 21.25,91.875 L 21.375,91.75 L 21.5,91.75 L 21.625,91.625 L 21.875,91.625 L 22.0,91.5 L 22.5,91.5 L 22.625,91.375 L 23.125,91.375 L 23.25,91.25 L 23.875,91.25 L 24.0,91.125 L 24.375,91.125 L 24.5,91.0 L 24.75,91.0 L 24.875,90.875 L 25.125,90.875 L 25.25,90.75 L 25.5,90.75 L 25.625,90.625 L 26.0,90.625 L 26.125,90.5 L 26.25,90.5 L 26.375,90.375 L 26.5,90.375 L 26.625,90.25 L 26.75,90.25 L 27.375,89.625 L 27.5,89.625 L 28.0,89.125 L 28.125,89.125 L 28.5,89.5 L 28.5,89.625 L 28.75,89.875 L 28.75,90.0 L 29.0,90.25 L 29.0,90.375 L 29.25,90.625 L 29.375,90.625 L 29.5,90.75 L 29.75,90.75 L 30.0,90.5 L 30.0,90.125 L 29.875,90.0 L 29.875,89.875 L 29.75,89.75 L 29.75,89.625 L 29.5,89.375 L 29.5,89.25 L 29.25,89.0 L 29.25,88.875 L 29.0,88.625 L 29.0,88.5 L 28.875,88.375 L 28.875,88.125 L 29.125,87.875 L 29.125,87.75 L 29.25,87.625 L 29.25,87.5 L 29.375,87.375 L 29.375,87.25 L 29.5,87.125 L 29.5,87.0 L 29.75,86.75 L 29.75,86.625 L 29.875,86.5 L 29.875,86.25 L 30.0,86.125 L 30.0,85.875 L 30.125,85.75 L 30.125,85.375 L 30.25,85.25 L 30.25,84.625 L 30.375,84.5 L 30.375,84.375 L 30.5,84.25 L 31.125,84.25 L 31.25,84.375 L 32.0,84.375 L 32.125,84.5 L 34.25,84.5 L 34.5,84.75 L 34.5,87.875 L 34.375,88.0 L 34.375,88.5 L 34.25,88.625 L 34.0,88.625 L 33.875,88.5 L 32.75,88.5 L 32.625,88.625 L 31.875,88.625 L 31.75,88.75 L 31.375,88.75 L 31.0,89.125 L 31.0,89.375 L 31.375,89.75 L 32.0,89.75 L 32.125,89.625 L 32.875,89.625 L 33.0,89.5 L 33.125,89.5 L 33.375,89.75 L 33.375,90.0 L 33.5,90.125 L 33.5,90.75 L 33.625,90.875 L 33.625,91.5 L 33.5,91.625 L 33.5,91.875 L 33.375,92.0 L 33.375,92.375 L 33.25,92.5 L 33.25,92.75 L 33.125,92.875 L 33.125,93.125 L 33.0,93.25 L 33.0,94.25 L 33.125,94.375 L 33.125,94.625 L 33.25,94.75 L 33.25,95.0 L 33.375,95.125 L 33.375,95.375 L 33.5,95.5 L 33.5,95.75 L 33.625,95.875 L 33.625,96.0 L 33.5,96.125 L 33.5,96.25 L 32.75,97.0 L 32.75,97.125 L 32.25,97.625 L 32.25,97.75 L 32.125,97.875 L 32.125,98.0 L 32.25,98.125 L 32.25,98.25 L 32.375,98.25 L 32.5,98.375 L 32.625,98.375 L 32.75,98.25 L 32.875,98.25 L 33.625,97.5 L 33.625,97.375 L 34.625,96.375 L 34.625,95.625 L 34.5,95.5 L 34.5,95.25 L 34.375,95.125 L 34.375,94.875 L 34.25,94.75 L 34.25,94.5 L 34.125,94.375 L 34.125,94.125 L 34.0,94.0 L 34.0,93.5 L 34.125,93.375 L 34.125,93.125 L 34.25,93.0 L 34.25,92.75 L 34.375,92.625 L 34.375,92.25 L 34.5,92.125 L 34.5,91.875 L 34.625,91.75 L 34.625,91.5 L 34.75,91.375 L 34.75,91.125 L 34.875,91.0 L 34.875,90.75 L 35.0,90.625 L 35.125,90.625 L 35.25,90.75 L 35.25,90.875 L 35.375,91.0 L 35.375,91.125 L 35.5,91.25 L 35.5,91.375 L 35.75,91.625 L 36.25,91.625 L 36.5,91.375 L 36.5,90.875 L 36.375,90.75 L 36.375,90.625 L 36.25,90.5 L 36.25,90.375 L 36.125,90.25 L 36.125,90.125 L 36.0,90.0 L 36.0,89.875 L 35.75,89.625 L 35.75,89.5 L 35.625,89.375 L 35.625,89.25 L 35.5,89.125 L 35.5,89.0 L 35.375,88.875 L 35.375,88.0 L 35.5,87.875 L 35.5,84.75 L 35.75,84.5 L 36.375,84.5 L 36.5,84.625 L 38.625,84.625 L 38.75,84.75 L 40.5,84.75 L 40.625,84.875 L 43.25,84.875 L 43.375,85.0 L 44.625,85.0 L 44.75,85.125 L 44.875,85.125 L 45.0,85.25 L 45.625,85.25 L 45.75,85.125 L 46.75,85.125 L 46.875,85.0 L 47.75,85.0 L 47.875,85.125 L 48.375,85.125 L 48.5,85.25 L 49.0,85.25 L 49.25,85.5 L 49.25,86.125 L 49.125,86.25 L 49.125,86.75 L 49.0,86.875 L 49.0,87.5 L 48.875,87.625 L 48.875,88.625 L 48.75,88.75 L 48.75,89.25 L 48.625,89.375 L 48.625,90.875 L 48.75,91.0 L 48.75,93.5 L 48.625,93.625 L 48.625,94.75 L 48.5,94.875 L 48.5,95.0 L 48.375,95.125 L 48.375,95.25 L 48.25,95.375 L 48.25,95.5 L 48.0,95.75 L 48.0,95.875 L 47.875,96.0 L 47.875,96.125 L 47.75,96.25 L 47.75,96.375 L 47.5,96.625 L 46.75,96.625 L 46.625,96.75 L 44.875,96.75 L 44.75,96.625 L 44.375,96.625 L 44.25,96.5 L 43.875,96.5 L 43.75,96.375 L 43.25,96.375 L 43.125,96.25 L 42.875,96.25 L 42.75,96.125 L 42.375,96.125 L 42.25,96.0 L 42.0,96.0 L 41.875,95.875 L 41.625,95.875 L 41.5,95.75 L 41.25,95.75 L 41.125,95.625 L 40.75,95.625 L 40.625,95.5 L 40.375,95.5 L 40.25,95.375 L 40.0,95.375 L 39.875,95.25 L 39.5,95.25 L 39.375,95.125 L 39.125,95.125 L 39.0,95.0 L 38.625,95.0 L 38.5,94.875 L 38.25,94.875 L 38.125,94.75 L 38.0,94.75 L 37.875,94.625 L 37.75,94.625 L 37.625,94.5 L 37.5,94.5 L 37.375,94.375 L 37.0,94.375 L 36.875,94.25 L 36.75,94.25 L 36.625,94.125 L 36.5,94.125 L 36.375,94.0 L 35.75,94.0 L 35.5,94.25 L 35.5,94.5 L 35.625,94.625 L 35.625,94.75 L 35.75,94.75 L 36.0,95.0 L 36.25,95.0 L 36.375,95.125 L 36.5,95.125 L 36.625,95.25 L 36.75,95.25 L 36.875,95.375 L 37.125,95.375 L 37.25,95.5 L 37.375,95.5 L 37.5,95.625 L 37.625,95.625 L 37.75,95.75 L 37.875,95.75 L 38.0,95.875 L 38.25,95.875 L 38.375,96.0 L 38.75,96.0 L 38.875,96.125 L 39.125,96.125 L 39.25,96.25 L 39.625,96.25 L 39.75,96.375 L 40.0,96.375 L 40.125,96.5 L 40.375,96.5 L 40.5,96.625 L 40.875,96.625 L 41.0,96.75 L 41.25,96.75 L 41.375,96.875 L 41.625,96.875 L 41.75,97.0 L 42.0,97.0 L 42.125,97.125 L 42.5,97.125 L 42.625,97.25 L 43.0,97.25 L 43.125,97.375 L 43.5,97.375 L 43.625,97.5 L 44.0,97.5 L 44.125,97.625 L 44.875,97.625 L 45.0,97.75 L 46.875,97.75 L 47.0,97.625 L 47.875,97.625 L 48.0,97.5 L 48.125,97.5 L 48.25,97.375 L 48.375,97.375 L 48.375,97.25 L 48.5,97.125 L 48.5,97.0 L 48.625,96.875 L 48.625,96.75 L 48.75,96.625 L 48.75,96.5 L 48.875,96.375 L 48.875,96.25 L 49.0,96.125 L 49.0,96.0 L 49.25,95.75 L 49.25,95.625 L 49.375,95.5 L 49.375,95.375 L 49.5,95.25 L 49.5,95.0 L 49.625,94.875 L 49.625,93.625 L 49.75,93.5 L 49.75,93.125 L 50.0,92.875 L 51.625,92.875 L 51.75,93.0 L 52.0,93.0 L 52.125,93.125 L 52.25,93.125 L 52.375,93.25 L 52.625,93.25 L 52.75,93.375 L 53.0,93.375 L 53.125,93.5 L 53.375,93.5 L 53.5,93.625 L 53.625,93.625 L 54.125,94.125 L 54.125,94.25 L 54.625,94.75 L 54.625,94.875 L 55.375,95.625 L 56.0,95.625 L 56.125,95.5 L 56.25,95.5 L 56.5,95.25 L 56.625,95.25 L 57.0,94.875 L 57.125,94.875 L 57.375,94.625 L 57.5,94.625 L 57.75,94.375 L 57.875,94.375 L 58.0,94.25 L 58.25,94.25 L 58.375,94.125 L 58.625,94.125 L 58.75,94.0 L 59.0,94.0 L 59.125,93.875 L 59.25,93.875 L 59.375,93.75 L 59.5,93.75 L 59.625,93.625 L 59.875,93.625 L 60.0,93.5 L 60.125,93.5 L 60.25,93.375 L 60.375,93.375 L 60.5,93.25 L 60.625,93.25 L 60.75,93.125 L 60.875,93.125 L 61.0,93.0 L 61.125,93.0 L 61.25,92.875 L 61.5,92.875 L 61.625,92.75 L 61.75,92.75 L 61.875,92.625 L 62.0,92.625 L 62.125,92.5 L 62.25,92.5 L 62.5,92.25 L 62.5,92.125 L 62.625,92.0 L 62.625,91.75 L 62.375,91.5 L 61.875,91.5 L 61.75,91.625 L 61.625,91.625 L 61.5,91.75 L 61.375,91.75 L 61.25,91.875 L 61.0,91.875 L 60.875,92.0 L 60.75,92.0 L 60.625,92.125 L 60.5,92.125 L 60.375,92.25 L 60.25,92.25 L 60.125,92.375 L 60.0,92.375 L 59.875,92.5 L 59.75,92.5 L 59.625,92.625 L 59.375,92.625 L 59.25,92.75 L 59.125,92.75 L 59.0,92.875 L 58.875,92.875 L 58.75,93.0 L 58.5,93.0 L 58.375,93.125 L 58.25,93.125 L 58.125,93.25 L 58.0,93.25 L 57.875,93.375 L 57.625,93.375 L 57.5,93.5 L 57.375,93.5 L 57.25,93.625 L 57.125,93.625 L 56.875,93.875 L 56.75,93.875 L 56.375,94.25 L 56.25,94.25 L 56.0,94.5 L 55.625,94.5 L 55.375,94.25 L 55.375,94.125 L 54.75,93.5 L 54.75,93.375 L 54.375,93.0 L 54.375,92.875 L 54.25,92.875 L 54.125,92.75 L 54.0,92.75 L 53.875,92.625 L 53.5,92.625 L 53.375,92.5 L 53.25,92.5 L 53.125,92.375 L 53.0,92.375 L 52.875,92.25 L 52.625,92.25 L 52.5,92.125 L 52.375,92.125 L 52.25,92.0 L 51.875,92.0 L 51.75,91.875 L 50.0,91.875 L 49.75,91.625 L 49.75,91.0 L 49.625,90.875 L 49.625,89.625 L 49.75,89.5 L 49.75,88.75 L 49.875,88.625 L 49.875,87.875 L 50.0,87.75 L 50.0,87.125 L 50.125,87.0 L 50.125,86.5 L 50.25,86.375 L 50.25,85.875 L 50.375,85.75 L 50.375,85.625 L 50.5,85.5 L 52.375,85.5 L 52.5,85.375 L 53.75,85.375 L 53.875,85.25 L 54.875,85.25 L 55.0,85.125 L 55.25,85.125 L 55.375,85.0 L 55.875,85.0 L 56.0,84.875 L 56.5,84.875 L 56.625,84.75 L 57.125,84.75 L 57.25,84.625 L 57.625,84.625 L 57.75,84.5 L 58.125,84.5 L 58.25,84.375 L 58.75,84.375 L 58.875,84.25 L 59.375,84.25 L 59.5,84.125 L 59.875,84.125 L 60.0,84.0 L 60.25,84.0 L 60.375,83.875 L 61.0,83.875 L 61.125,83.75 L 61.5,83.75 L 61.625,83.625 L 61.875,83.875 L 61.875,84.125 L 62.0,84.25 L 62.0,84.75 L 62.125,84.875 L 62.125,85.25 L 62.25,85.375 L 62.25,85.625 L 62.5,85.875 L 62.5,86.0 L 62.75,86.25 L 62.75,86.375 L 62.875,86.5 L 62.875,86.625 L 63.0,86.75 L 63.0,86.875 L 63.375,87.25 L 63.375,87.375 L 63.625,87.625 L 63.625,87.75 L 64.0,88.125 L 64.0,88.25 L 64.5,88.75 L 64.5,88.875 L 64.75,89.125 L 64.75,89.5 L 64.5,89.75 L 64.375,89.75 L 64.25,89.875 L 64.125,89.875 L 64.0,90.0 L 63.875,90.0 L 63.625,90.25 L 63.5,90.25 L 63.25,90.5 L 63.25,90.625 L 63.125,90.75 L 63.125,91.0 L 63.375,91.25 L 63.75,91.25 L 63.875,91.125 L 64.0,91.125 L 64.125,91.0 L 64.25,91.0 L 64.5,90.75 L 64.625,90.75 L 64.875,90.5 L 65.0,90.5 L 65.125,90.375 L 65.25,90.375 L 65.375,90.25 L 65.5,90.25 L 65.75,90.5 L 65.75,90.625 L 66.125,91.0 L 66.125,91.125 L 66.5,91.5 L 66.5,91.625 L 67.0,92.125 L 67.125,92.125 L 67.25,92.25 L 67.5,92.25 L 67.625,92.375 L 67.75,92.375 L 68.0,92.625 L 68.125,92.625 L 68.25,92.75 L 68.375,92.75 L 68.5,92.875 L 68.625,92.875 L 68.75,93.0 L 69.0,93.0 L 69.125,93.125 L 69.375,93.125 L 69.5,93.25 L 70.625,93.25 L 70.75,93.375 L 71.625,93.375 L 71.75,93.5 L 72.5,93.5 L 72.625,93.625 L 73.625,93.625 L 73.75,93.75 L 74.125,93.75 L 74.25,93.875 L 74.375,93.875 L 74.5,94.0 L 74.625,94.0 L 74.75,94.125 L 74.875,94.125 L 75.0,94.25 L 75.125,94.25 L 75.375,94.5 L 75.5,94.5 L 75.625,94.625 L 75.625,94.75 L 75.5,94.875 L 75.5,95.0 L 75.375,95.125 L 75.375,95.25 L 75.125,95.5 L 75.125,95.625 L 74.875,95.875 L 74.875,96.0 L 74.75,96.125 L 74.75,96.25 L 74.5,96.5 L 74.5,96.625 L 73.125,98.0 L 73.125,98.125 L 73.0,98.25 L 73.0,98.375 L 73.125,98.5 L 73.125,98.625 L 73.25,98.625 L 73.375,98.75 L 73.5,98.75 L 73.625,98.625 L 73.75,98.625 L 75.375,97.0 L 75.375,96.875 L 75.75,96.5 L 75.75,96.375 L 75.875,96.25 L 75.875,96.125 L 76.125,95.875 L 76.125,95.75 L 76.375,95.5 L 76.375,95.375 L 76.625,95.125 L 76.875,95.125 L 77.0,95.25 L 77.25,95.25 L 77.375,95.375 L 77.5,95.375 L 77.625,95.5 L 77.75,95.5 L 77.875,95.625 L 78.0,95.625 L 78.125,95.75 L 78.375,95.75 L 78.5,95.875 L 78.625,95.875 L 78.75,96.0 L 79.0,96.0 L 79.125,96.125 L 79.375,96.125 L 79.5,96.25 L 79.75,96.25 L 79.875,96.375 L 80.125,96.375 L 80.25,96.5 L 80.5,96.5 L 80.625,96.625 L 81.0,96.625 L 81.125,96.75 L 81.625,96.75 L 81.75,96.875 L 82.5,96.875 L 82.625,97.0 L 83.5,97.0 L 83.625,97.125 L 84.375,97.125 L 84.5,97.25 L 85.375,97.25 L 85.5,97.375 L 86.375,97.375 L 86.5,97.5 L 87.0,97.5 L 87.125,97.625 L 87.75,97.625 L 87.875,97.75 L 88.5,97.75 L 88.625,97.875 L 89.25,97.875 L 89.375,98.0 L 89.875,98.0 L 90.0,98.125 L 91.375,98.125 L 91.5,98.0 L 91.625,98.0 L 91.75,97.875 L 91.875,97.875 L 92.0,97.75 L 92.125,97.75 L 92.25,97.625 L 92.375,97.625 L 92.5,97.5 L 92.625,97.5 L 92.75,97.375 L 93.0,97.375 L 93.125,97.25 L 93.25,97.25 L 93.375,97.125 L 93.5,97.125 L 93.625,97.0 L 93.75,97.0 L 93.875,96.875 L 94.125,96.875 L 94.25,96.75 L 94.375,96.75 L 94.5,96.625 L 94.75,96.625 L 94.875,96.5 L 95.0,96.5 L 95.125,96.375 L 95.25,96.375 L 95.375,96.25 L 95.625,96.25 L 95.75,96.125 L 96.0,96.125 L 96.125,96.0 L 96.5,96.0 L 96.625,95.875 L 97.125,95.875 L 97.25,95.75 L 97.625,95.75 L 97.75,95.625 L 98.0,95.625 L 98.125,95.5 L 98.25,95.5 L 98.25,95.375 L 98.375,95.25 L 98.375,94.625 L 98.25,94.5 L 98.25,94.25 L 98.125,94.125 L 98.125,93.875 L 98.0,93.75 L 98.0,93.5 L 97.875,93.375 L 97.875,93.0 L 97.75,92.875 L 97.75,92.75 L 97.375,92.375 L 97.125,92.375 L 96.875,92.625 L 96.875,92.75 L 96.75,92.875 L 96.75,93.0 L 96.875,93.125 L 96.875,93.625 L 97.0,93.75 L 97.0,94.0 L 97.125,94.125 L 97.125,94.375 L 97.25,94.5 L 97.25,94.625 L 97.125,94.75 L 97.0,94.75 L 96.875,94.875 L 96.625,94.875 L 96.5,95.0 L 96.125,95.0 L 96.0,95.125 L 95.5,95.125 L 95.375,95.25 L 95.125,95.25 L 95.0,95.375 L 94.875,95.375 L 94.75,95.5 L 94.625,95.5 L 94.5,95.625 L 94.25,95.625 L 94.125,95.75 L 94.0,95.75 L 93.875,95.875 L 93.625,95.875 L 93.5,96.0 L 93.375,96.0 L 93.25,96.125 L 93.125,96.125 L 93.0,96.25 L 92.875,96.25 L 92.75,96.375 L 92.625,96.375 L 92.5,96.5 L 92.375,96.5 L 92.25,96.625 L 92.125,96.625 L 92.0,96.75 L 91.75,96.75 L 91.625,96.875 L 91.5,96.875 L 91.375,97.0 L 91.25,97.0 L 91.125,97.125 L 90.125,97.125 L 90.0,97.0 L 89.375,97.0 L 89.25,96.875 L 88.875,96.875 L 88.75,96.75 L 88.125,96.75 L 88.0,96.625 L 87.375,96.625 L 87.25,96.5 L 86.625,96.5 L 86.5,96.375 L 85.75,96.375 L 85.625,96.25 L 84.75,96.25 L 84.625,96.125 L 83.75,96.125 L 83.625,96.0 L 82.875,96.0 L 82.75,95.875 L 82.0,95.875 L 81.875,95.75 L 81.25,95.75 L 81.125,95.625 L 80.75,95.625 L 80.625,95.5 L 80.375,95.5 L 80.25,95.375 L 80.0,95.375 L 79.875,95.25 L 79.75,95.25 L 79.625,95.125 L 79.375,95.125 L 79.25,95.0 L 79.0,95.0 L 78.875,94.875 L 78.75,94.875 L 78.625,94.75 L 78.375,94.75 L 78.25,94.625 L 78.125,94.625 L 78.0,94.5 L 77.875,94.5 L 77.75,94.375 L 77.625,94.375 L 77.5,94.25 L 77.25,94.25 L 77.125,94.125 L 76.875,94.125 L 76.75,94.0 L 76.625,94.0 L 76.5,93.875 L 76.375,93.875 L 76.25,93.75 L 76.125,93.75 L 76.0,93.625 L 75.875,93.625 L 75.75,93.5 L 75.625,93.5 L 75.375,93.25 L 75.25,93.25 L 75.125,93.125 L 75.0,93.125 L 74.875,93.0 L 74.75,93.0 L 74.625,92.875 L 74.375,92.875 L 74.25,92.75 L 73.75,92.75 L 73.625,92.625 L 72.875,92.625 L 72.75,92.5 L 72.0,92.5 L 71.875,92.375 L 70.875,92.375 L 70.75,92.25 L 69.75,92.25 L 69.625,92.125 L 69.25,92.125 L 69.125,92.0 L 69.0,92.0 L 68.875,91.875 L 68.75,91.875 L 68.625,91.75 L 68.5,91.75 L 68.375,91.625 L 68.25,91.625 L 68.125,91.5 L 68.0,91.5 L 67.875,91.375 L 67.75,91.375 L 67.625,91.25 L 67.5,91.25 L 67.125,90.875 L 67.125,90.75 L 66.75,90.375 L 66.75,90.25 L 66.5,90.0 L 66.5,89.875 L 66.125,89.5 L 66.125,89.375 L 65.875,89.125 L 65.875,89.0 L 65.375,88.5 L 65.375,88.375 L 65.125,88.125 L 65.125,88.0 L 64.75,87.625 L 64.75,87.5 L 64.375,87.125 L 64.375,87.0 L 64.0,86.625 L 64.0,86.5 L 63.75,86.25 L 63.75,86.125 L 63.5,85.875 L 63.5,85.75 L 63.375,85.625 L 63.375,85.5 L 63.25,85.375 L 63.25,85.25 L 63.125,85.125 L 63.125,84.625 L 63.0,84.5 L 63.0,84.0 L 62.875,83.875 L 62.875,83.5 L 63.125,83.25 L 63.5,83.25 L 63.625,83.125 L 64.125,83.125 L 64.25,83.0 L 64.625,83.0 L 64.75,82.875 L 65.125,82.875 L 65.25,82.75 L 65.625,82.75 L 65.75,82.625 L 66.0,82.625 L 66.125,82.5 L 66.625,82.5 L 66.75,82.375 L 67.0,82.375 L 67.125,82.25 L 67.375,82.25 L 67.5,82.125 L 67.75,82.125 L 67.875,82.0 L 68.0,82.0 L 68.125,81.875 L 68.25,81.875 L 68.375,81.75 L 68.625,81.75 L 68.75,81.625 L 68.875,81.625 L 69.0,81.5 L 69.25,81.5 L 69.375,81.375 L 69.5,81.375 L 69.625,81.25 L 69.875,81.25 L 70.0,81.125 L 70.25,81.125 L 70.375,81.0 L 70.75,81.0 L 70.875,80.875 L 71.125,80.875 L 71.25,80.75 L 71.375,80.75 L 71.625,81.0 L 71.625,81.25 L 71.75,81.375 L 71.75,81.5 L 71.875,81.625 L 71.875,81.875 L 72.0,82.0 L 72.0,82.125 L 72.125,82.25 L 72.125,82.5 L 72.25,82.625 L 72.25,82.875 L 72.375,83.0 L 72.375,83.375 L 72.5,83.5 L 72.5,83.75 L 72.625,83.875 L 72.625,84.25 L 72.75,84.375 L 72.75,84.875 L 72.875,85.0 L 72.875,86.875 L 73.0,87.0 L 73.0,87.25 L 73.125,87.375 L 73.125,87.5 L 73.375,87.75 L 73.75,87.75 L 73.875,87.625 L 74.0,87.625 L 74.5,87.125 L 74.5,87.0 L 74.75,86.75 L 74.75,86.625 L 75.125,86.25 L 75.125,86.125 L 75.625,85.625 L 76.25,85.625 L 76.375,85.5 L 76.875,85.5 L 77.0,85.375 L 77.625,85.375 L 77.75,85.25 L 80.125,85.25 L 80.5,84.875 L 80.5,84.625 L 80.125,84.25 L 77.5,84.25 L 77.375,84.375 L 76.75,84.375 L 76.625,84.5 L 76.125,84.5 L 76.0,84.625 L 75.5,84.625 L 75.375,84.75 L 75.125,84.75 L 74.375,85.5 L 74.375,85.625 L 74.25,85.75 L 74.125,85.75 L 74.0,85.625 L 74.0,85.375 L 73.875,85.25 L 73.875,84.75 L 73.75,84.625 L 73.75,84.375 L 73.625,84.25 L 73.625,83.875 L 73.5,83.75 L 73.5,83.25 L 73.375,83.125 L 73.375,82.75 L 73.25,82.625 L 73.25,82.375 L 73.125,82.25 L 73.125,82.0 L 73.0,81.875 L 73.0,81.75 L 72.875,81.625 L 72.875,81.375 L 72.75,81.25 L 72.75,81.125 L 72.625,81.0 L 72.625,80.75 L 72.5,80.625 L 72.5,80.5 L 72.625,80.375 L 72.75,80.375 L 72.875,80.25 L 73.25,80.25 L 73.375,80.125 L 73.625,80.125 L 73.75,80.0 L 74.125,80.0 L 74.25,79.875 L 74.75,79.875 L 74.875,79.75 L 75.25,79.75 L 75.375,79.625 L 75.75,79.625 L 75.875,79.5 L 76.25,79.5 L 76.375,79.375 L 76.75,79.375 L 76.875,79.25 L 77.25,79.25 L 77.375,79.125 L 77.75,79.125 L 77.875,79.0 L 78.125,79.0 L 78.25,78.875 L 78.625,78.875 L 78.75,79.0 L 78.75,79.125 L 78.875,79.25 L 78.875,79.5 L 79.0,79.625 L 79.0,79.75 L 79.125,79.875 L 79.125,80.125 L 79.25,80.25 L 79.25,80.375 L 79.375,80.5 L 79.375,80.75 L 79.5,80.875 L 79.5,81.0 L 79.625,81.125 L 79.625,81.25 L 80.0,81.625 L 80.0,81.75 L 80.25,82.0 L 80.25,82.125 L 80.5,82.375 L 80.5,82.5 L 82.75,84.75 L 82.875,84.75 L 83.0,84.875 L 85.875,84.875 L 86.0,85.0 L 86.75,85.0 L 86.875,85.125 L 87.625,85.125 L 87.75,85.25 L 88.5,85.25 L 88.625,85.375 L 89.25,85.375 L 89.375,85.5 L 90.0,85.5 L 90.125,85.625 L 92.0,85.625 L 92.125,85.75 L 93.5,85.75 L 93.625,85.875 L 94.75,85.875 L 94.875,86.0 L 95.0,86.0 L 95.375,86.375 L 95.375,86.625 L 95.5,86.75 L 95.5,86.875 L 95.625,87.0 L 95.625,87.125 L 96.0,87.5 L 96.0,87.625 L 96.25,87.875 L 96.25,88.0 L 96.375,88.0 L 96.5,88.125 L 96.75,88.125 L 97.0,87.875 L 97.0,87.25 L 96.875,87.125 L 96.875,86.875 L 97.0,86.75 L 97.0,86.625 L 97.125,86.5 L 97.25,86.5 L 97.625,86.125 L 97.75,86.125 L 98.0,85.875 L 98.125,85.875 L 98.125,85.75 L 98.375,85.5 L 98.375,85.125 L 98.125,84.875 L 97.625,84.875 L 97.5,84.75 L 97.75,84.5 L 97.75,84.375 L 97.875,84.25 L 97.875,83.875 L 97.625,83.625 L 96.875,83.625 L 96.75,83.75 L 96.375,83.75 L 96.25,83.875 L 96.0,83.875 L 95.875,84.0 L 95.25,84.0 L 94.875,84.375 L 94.875,84.5 L 94.75,84.625 L 94.75,84.75 L 94.625,84.875 L 93.875,84.875 L 93.75,84.75 L 92.0,84.75 L 91.875,84.625 L 90.375,84.625 L 90.25,84.5 L 89.5,84.5 L 89.375,84.375 L 88.75,84.375 L 88.625,84.25 L 88.0,84.25 L 87.875,84.125 L 87.125,84.125 L 87.0,84.0 L 85.875,84.0 L 85.75,83.875 L 83.25,83.875 L 83.125,83.75 L 83.0,83.75 L 81.625,82.375 L 81.625,82.25 L 81.25,81.875 L 81.25,81.75 L 81.0,81.5 L 81.0,81.375 L 80.625,81.0 L 80.625,80.875 L 80.375,80.625 L 80.375,80.5 L 80.25,80.375 L 80.25,80.0 L 80.125,79.875 L 80.125,79.625 L 80.0,79.5 L 80.0,79.375 L 79.875,79.25 L 79.875,79.0 L 79.75,78.875 L 79.75,78.625 L 80.0,78.375 L 80.375,78.375 L 80.5,78.25 L 80.75,78.25 L 80.875,78.125 L 81.125,78.125 L 81.25,78.0 L 81.5,78.0 L 81.625,77.875 L 82.25,77.875 L 82.375,77.75 L 82.75,77.75 L 82.875,77.625 L 83.125,77.625 L 83.25,77.5 L 83.625,77.5 L 83.75,77.375 L 84.125,77.375 L 84.25,77.25 L 84.625,77.25 L 84.75,77.125 L 85.0,77.125 L 85.125,77.0 L 85.5,77.0 L 85.625,76.875 L 86.0,76.875 L 86.125,76.75 L 86.375,76.75 L 86.5,76.625 L 86.625,76.625 L 86.75,76.5 L 86.875,76.5 L 87.125,76.25 L 87.25,76.25 L 87.375,76.125 L 87.5,76.125 L 87.625,76.0 L 87.875,76.0 L 88.0,75.875 L 88.125,75.875 L 88.25,75.75 L 88.375,75.75 L 88.5,75.625 L 88.625,75.625 L 90.25,74.0 z M 65.125,70.625 L 65.25,70.5 L 69.625,70.5 L 69.75,70.625 L 69.75,70.875 L 69.625,71.0 L 69.625,71.125 L 69.5,71.25 L 69.5,71.375 L 67.625,73.25 L 67.625,73.375 L 67.5,73.5 L 67.5,76.125 L 67.625,76.25 L 67.625,76.625 L 67.75,76.75 L 67.75,77.5 L 67.875,77.625 L 67.875,78.25 L 68.0,78.375 L 68.0,78.625 L 68.125,78.75 L 68.125,79.0 L 68.25,79.125 L 68.25,79.375 L 68.375,79.5 L 68.375,79.625 L 68.5,79.75 L 68.5,79.875 L 68.625,80.0 L 68.625,80.25 L 68.75,80.375 L 68.375,80.75 L 68.125,80.75 L 68.0,80.875 L 67.875,80.875 L 67.75,81.0 L 67.625,81.0 L 67.5,81.125 L 67.25,81.125 L 67.125,81.25 L 67.0,81.25 L 66.875,81.375 L 66.5,81.375 L 66.375,81.5 L 66.125,81.5 L 66.0,81.625 L 65.625,81.625 L 65.5,81.75 L 65.0,81.75 L 64.875,81.875 L 64.5,81.875 L 64.375,82.0 L 64.0,82.0 L 63.875,82.125 L 63.375,82.125 L 63.25,82.25 L 62.875,82.25 L 62.75,82.375 L 62.25,82.375 L 62.125,82.5 L 61.75,82.5 L 61.625,82.625 L 61.375,82.625 L 61.25,82.75 L 60.875,82.75 L 60.75,82.875 L 60.5,82.875 L 60.375,83.0 L 59.75,83.0 L 59.625,83.125 L 59.25,83.125 L 59.125,83.25 L 58.625,83.25 L 58.5,83.375 L 57.875,83.375 L 57.75,83.25 L 57.75,82.625 L 57.625,82.5 L 57.625,81.625 L 57.5,81.5 L 57.5,81.25 L 57.625,81.125 L 57.625,78.875 L 57.75,78.75 L 57.75,78.375 L 57.875,78.25 L 57.875,77.625 L 58.0,77.5 L 58.0,77.125 L 58.125,77.0 L 58.125,76.875 L 58.25,76.75 L 58.25,76.625 L 58.625,76.25 L 58.625,76.125 L 59.125,75.625 L 59.125,75.5 L 59.75,74.875 L 59.875,74.875 L 60.375,74.375 L 60.5,74.375 L 61.0,73.875 L 61.125,73.875 L 61.625,73.375 L 61.75,73.375 L 61.875,73.25 L 62.0,73.25 L 62.5,72.75 L 62.625,72.75 L 63.25,72.125 L 63.375,72.125 L 63.875,71.625 L 64.0,71.625 L 65.0,70.625 L 65.125,70.625 z M 56.625,70.625 L 56.75,70.5 L 63.5,70.5 L 63.625,70.625 L 63.25,71.0 L 63.125,71.0 L 62.625,71.5 L 62.5,71.5 L 61.875,72.125 L 61.75,72.125 L 61.25,72.625 L 61.125,72.625 L 60.875,72.875 L 60.75,72.875 L 60.5,73.125 L 60.375,73.125 L 59.75,73.75 L 59.625,73.75 L 59.0,74.375 L 58.875,74.375 L 58.5,74.75 L 58.5,74.875 L 57.875,75.5 L 57.875,75.625 L 57.5,76.0 L 57.5,76.125 L 57.25,76.375 L 57.25,76.5 L 57.125,76.625 L 57.125,77.0 L 57.0,77.125 L 57.0,77.5 L 56.875,77.625 L 56.875,78.0 L 56.75,78.125 L 56.75,78.5 L 56.625,78.625 L 56.625,80.875 L 56.5,81.0 L 56.5,81.75 L 56.625,81.875 L 56.625,82.75 L 56.75,82.875 L 56.75,83.625 L 56.625,83.75 L 56.375,83.75 L 56.25,83.875 L 55.875,83.875 L 55.75,84.0 L 55.5,84.0 L 55.375,84.125 L 54.75,84.125 L 54.625,84.25 L 53.625,84.25 L 53.5,84.375 L 52.625,84.375 L 52.5,84.5 L 49.875,84.5 L 49.75,84.375 L 49.375,84.375 L 49.25,84.25 L 48.75,84.25 L 48.625,84.125 L 48.25,84.125 L 48.0,83.875 L 48.0,83.75 L 48.125,83.625 L 48.125,82.5 L 48.25,82.375 L 48.25,81.875 L 48.375,81.75 L 48.375,81.5 L 48.5,81.375 L 48.5,81.0 L 48.625,80.875 L 48.625,80.625 L 48.75,80.5 L 48.75,80.25 L 48.875,80.125 L 48.875,79.875 L 49.0,79.75 L 49.0,79.625 L 49.125,79.5 L 49.125,79.375 L 49.25,79.25 L 49.25,79.0 L 49.375,78.875 L 49.375,78.75 L 49.5,78.625 L 49.5,78.5 L 49.625,78.375 L 49.625,78.25 L 49.875,78.0 L 49.875,77.875 L 50.125,77.625 L 50.125,77.5 L 51.0,76.625 L 51.125,76.625 L 51.75,76.0 L 51.875,76.0 L 53.875,74.0 L 53.875,73.875 L 54.125,73.625 L 54.125,73.5 L 54.25,73.375 L 54.25,73.25 L 54.375,73.125 L 54.375,73.0 L 54.625,72.75 L 54.625,72.625 L 55.0,72.25 L 55.0,72.125 L 56.5,70.625 L 56.625,70.625 z M 45.125,70.625 L 45.25,70.5 L 55.0,70.5 L 55.125,70.625 L 55.125,70.75 L 53.875,72.0 L 53.875,72.125 L 53.75,72.25 L 53.75,72.375 L 53.625,72.5 L 53.625,72.625 L 53.375,72.875 L 53.375,73.0 L 53.125,73.25 L 53.125,73.375 L 52.75,73.75 L 52.75,73.875 L 51.625,75.0 L 51.25,75.0 L 51.0,74.75 L 51.0,74.625 L 49.75,73.375 L 49.625,73.375 L 49.375,73.125 L 49.25,73.125 L 48.875,72.75 L 48.75,72.75 L 48.5,72.5 L 48.375,72.5 L 48.125,72.25 L 48.0,72.25 L 47.875,72.125 L 47.5,72.125 L 47.25,72.375 L 47.25,72.625 L 47.375,72.75 L 47.375,72.875 L 47.625,73.125 L 47.75,73.125 L 48.125,73.5 L 48.25,73.5 L 48.5,73.75 L 48.625,73.75 L 49.0,74.125 L 49.125,74.125 L 49.5,74.5 L 49.625,74.5 L 50.125,75.0 L 50.125,75.125 L 50.5,75.5 L 50.5,75.875 L 49.0,77.375 L 49.0,77.5 L 48.875,77.625 L 48.875,77.75 L 48.625,78.0 L 48.625,78.25 L 48.5,78.375 L 48.5,78.5 L 48.375,78.625 L 48.375,78.75 L 48.25,78.875 L 48.25,79.0 L 48.125,79.125 L 48.125,79.25 L 48.0,79.375 L 48.0,79.5 L 47.875,79.625 L 47.875,79.875 L 47.75,80.0 L 47.75,80.25 L 47.625,80.375 L 47.625,80.625 L 47.5,80.75 L 47.5,81.125 L 47.375,81.25 L 47.375,81.625 L 47.25,81.75 L 47.25,82.125 L 47.125,82.25 L 47.125,83.625 L 47.0,83.75 L 47.0,83.875 L 46.875,84.0 L 45.75,84.0 L 45.5,83.75 L 45.5,82.75 L 45.625,82.625 L 45.625,82.0 L 45.5,81.875 L 45.5,81.625 L 45.375,81.5 L 45.375,81.375 L 45.25,81.25 L 45.25,81.0 L 45.0,80.75 L 45.0,80.625 L 44.875,80.5 L 44.875,80.375 L 44.75,80.25 L 44.75,80.125 L 44.625,80.0 L 44.625,79.875 L 44.5,79.75 L 44.5,79.625 L 44.375,79.5 L 44.375,79.375 L 44.25,79.25 L 44.25,79.125 L 44.0,78.875 L 44.0,78.75 L 43.875,78.625 L 43.875,78.375 L 43.75,78.25 L 43.75,78.125 L 43.625,78.0 L 43.625,77.875 L 43.5,77.75 L 43.5,77.625 L 43.25,77.375 L 43.25,77.25 L 42.875,76.875 L 42.875,76.75 L 42.25,76.125 L 42.25,76.0 L 42.125,75.875 L 42.125,75.75 L 42.5,75.375 L 42.625,75.375 L 42.75,75.25 L 43.0,75.25 L 43.125,75.125 L 43.25,75.125 L 43.375,75.0 L 43.5,75.0 L 44.375,74.125 L 44.375,74.0 L 45.0,73.375 L 45.0,73.25 L 45.25,73.0 L 45.25,72.875 L 45.375,72.75 L 45.375,72.625 L 45.5,72.5 L 45.5,72.0 L 45.375,71.875 L 45.375,71.5 L 45.25,71.375 L 45.25,71.125 L 45.125,71.0 L 45.125,70.625 z M 37.25,70.625 L 37.375,70.5 L 43.75,70.5 L 44.0,70.75 L 44.0,70.875 L 44.125,71.0 L 44.125,71.25 L 44.25,71.375 L 44.25,71.625 L 44.375,71.75 L 44.375,72.125 L 44.5,72.25 L 44.5,72.375 L 44.375,72.5 L 44.375,72.625 L 43.75,73.25 L 43.75,73.375 L 43.0,74.125 L 42.875,74.125 L 42.75,74.25 L 42.625,74.25 L 42.5,74.375 L 42.375,74.375 L 42.25,74.5 L 42.125,74.5 L 42.0,74.625 L 41.875,74.625 L 41.75,74.75 L 41.375,74.75 L 41.125,74.5 L 41.125,74.375 L 40.75,74.0 L 40.75,73.875 L 40.5,73.625 L 40.5,73.5 L 39.75,72.75 L 39.75,72.625 L 38.25,71.125 L 38.125,71.125 L 38.0,71.0 L 37.875,71.0 L 37.75,70.875 L 37.5,70.875 L 37.25,70.625 z M 5.5,63.25 L 5.625,63.125 L 5.75,63.125 L 5.875,63.25 L 6.25,63.25 L 6.375,63.375 L 6.75,63.375 L 6.875,63.5 L 7.5,63.5 L 7.625,63.625 L 7.75,63.625 L 7.875,63.75 L 7.875,63.875 L 8.0,64.0 L 8.0,64.25 L 8.125,64.375 L 8.125,64.5 L 8.375,64.75 L 8.375,64.875 L 8.5,65.0 L 8.5,65.125 L 8.625,65.25 L 8.625,65.375 L 8.75,65.5 L 8.75,65.625 L 9.0,65.875 L 9.0,66.0 L 9.125,66.125 L 9.125,66.25 L 9.375,66.5 L 9.375,66.625 L 9.5,66.75 L 9.5,66.875 L 9.75,67.125 L 9.75,67.25 L 10.0,67.5 L 10.0,67.625 L 10.125,67.75 L 10.125,67.875 L 10.5,68.25 L 10.5,68.375 L 10.75,68.625 L 10.75,68.75 L 10.875,68.875 L 10.875,69.0 L 11.0,69.125 L 11.0,69.25 L 11.25,69.5 L 11.25,69.625 L 11.5,69.875 L 11.5,70.0 L 11.875,70.375 L 11.875,70.5 L 12.125,70.75 L 12.125,70.875 L 12.375,71.125 L 12.375,71.25 L 12.75,71.625 L 12.75,71.75 L 12.875,71.875 L 12.875,72.0 L 14.625,73.75 L 14.625,73.875 L 15.125,74.375 L 15.125,74.5 L 15.375,74.75 L 15.375,74.875 L 15.75,75.25 L 15.75,75.375 L 16.0,75.625 L 16.0,75.875 L 16.125,76.0 L 16.125,76.125 L 16.25,76.25 L 16.25,76.375 L 16.375,76.5 L 16.375,76.75 L 16.5,76.875 L 16.5,77.25 L 16.625,77.375 L 16.625,77.625 L 16.75,77.75 L 16.75,77.875 L 16.875,78.0 L 16.875,78.375 L 17.0,78.5 L 17.0,78.875 L 17.125,79.0 L 17.125,79.25 L 17.25,79.375 L 17.25,79.75 L 17.375,79.875 L 17.375,81.25 L 17.25,81.375 L 17.25,81.875 L 17.125,82.0 L 17.125,82.125 L 17.0,82.25 L 16.5,82.25 L 16.375,82.125 L 14.75,82.125 L 14.625,82.0 L 14.375,82.0 L 14.25,81.875 L 13.75,81.875 L 13.625,81.75 L 13.25,81.75 L 13.125,81.625 L 12.0,81.625 L 11.875,81.75 L 11.25,81.75 L 11.125,81.875 L 10.75,81.875 L 10.625,81.75 L 10.625,80.0 L 10.5,79.875 L 10.5,79.75 L 10.375,79.625 L 10.375,79.5 L 10.125,79.25 L 10.125,79.125 L 9.875,78.875 L 9.875,78.75 L 9.625,78.5 L 9.625,78.375 L 9.5,78.25 L 9.5,78.125 L 9.25,77.875 L 9.25,77.75 L 9.0,77.5 L 9.0,77.375 L 8.75,77.125 L 8.75,77.0 L 8.375,76.625 L 8.375,76.5 L 8.125,76.25 L 8.125,76.125 L 7.625,75.625 L 7.5,75.625 L 7.375,75.5 L 7.25,75.5 L 7.125,75.625 L 7.0,75.625 L 7.0,75.75 L 6.875,75.875 L 6.875,76.0 L 7.0,76.125 L 7.0,76.25 L 7.125,76.375 L 7.125,76.5 L 7.375,76.75 L 7.375,76.875 L 7.75,77.25 L 7.75,77.375 L 8.0,77.625 L 8.0,77.75 L 8.25,78.0 L 8.25,78.125 L 8.625,78.5 L 8.625,78.625 L 8.75,78.75 L 8.75,78.875 L 8.875,79.0 L 8.875,79.125 L 9.125,79.375 L 9.125,79.5 L 9.375,79.75 L 9.375,79.875 L 9.5,80.0 L 9.5,80.125 L 9.625,80.25 L 9.625,82.0 L 9.25,82.375 L 9.125,82.375 L 9.0,82.5 L 8.875,82.5 L 8.75,82.625 L 8.625,82.625 L 8.5,82.75 L 8.375,82.75 L 8.25,82.875 L 7.75,82.875 L 7.625,82.75 L 7.5,82.75 L 7.25,82.5 L 7.125,82.5 L 6.75,82.125 L 6.625,82.125 L 6.25,81.75 L 6.125,81.75 L 6.0,81.625 L 5.875,81.625 L 5.75,81.5 L 5.625,81.5 L 5.5,81.375 L 5.375,81.375 L 5.25,81.25 L 5.125,81.25 L 5.0,81.125 L 4.75,81.125 L 4.625,81.0 L 4.5,81.0 L 4.375,80.875 L 4.25,80.875 L 4.125,80.75 L 4.0,80.75 L 3.875,80.625 L 3.625,80.625 L 3.5,80.5 L 3.375,80.5 L 3.25,80.375 L 3.125,80.375 L 3.0,80.25 L 2.875,80.25 L 2.75,80.125 L 2.625,80.125 L 2.5,80.0 L 2.375,80.0 L 2.25,79.875 L 2.125,79.875 L 2.0,79.75 L 1.875,79.75 L 1.75,79.625 L 1.25,79.625 L 1.0,79.875 L 1.0,80.125 L 1.125,80.25 L 1.125,80.375 L 1.375,80.625 L 1.5,80.625 L 1.625,80.75 L 1.75,80.75 L 1.875,80.875 L 2.0,80.875 L 2.125,81.0 L 2.25,81.0 L 2.375,81.125 L 2.5,81.125 L 2.625,81.25 L 2.875,81.25 L 3.0,81.375 L 3.125,81.375 L 3.25,81.5 L 3.375,81.5 L 3.5,81.625 L 3.625,81.625 L 3.75,81.75 L 3.875,81.75 L 4.0,81.875 L 4.125,81.875 L 4.25,82.0 L 4.375,82.0 L 4.5,82.125 L 4.75,82.125 L 4.875,82.25 L 5.0,82.25 L 5.125,82.375 L 5.25,82.375 L 5.375,82.5 L 5.5,82.5 L 5.625,82.625 L 5.75,82.625 L 5.875,82.75 L 6.0,82.75 L 6.375,83.125 L 6.5,83.125 L 6.875,83.5 L 7.0,83.5 L 7.125,83.625 L 7.125,84.0 L 6.875,84.25 L 6.875,84.375 L 6.625,84.625 L 6.625,84.75 L 6.5,84.875 L 6.5,85.0 L 6.375,85.125 L 6.375,85.25 L 6.25,85.375 L 6.25,85.5 L 6.125,85.625 L 6.125,88.0 L 6.0,88.125 L 6.0,88.25 L 5.875,88.375 L 5.875,88.5 L 5.75,88.625 L 5.75,88.75 L 5.5,89.0 L 5.5,89.125 L 5.375,89.25 L 5.375,89.375 L 5.125,89.625 L 5.125,89.75 L 5.0,89.875 L 5.0,90.0 L 4.875,90.125 L 4.875,90.25 L 4.625,90.5 L 4.5,90.5 L 4.375,90.625 L 4.25,90.625 L 4.125,90.75 L 4.0,90.75 L 3.875,90.875 L 3.5,90.875 L 3.125,91.25 L 3.125,91.5 L 3.375,91.75 L 3.5,91.75 L 3.625,91.875 L 3.75,91.75 L 4.25,91.75 L 4.375,91.625 L 4.625,91.625 L 4.75,91.5 L 5.0,91.5 L 5.125,91.375 L 5.375,91.375 L 5.5,91.25 L 5.75,91.25 L 5.875,91.125 L 6.0,91.125 L 6.375,90.75 L 6.375,90.625 L 6.5,90.5 L 6.5,90.25 L 6.625,90.125 L 6.625,89.875 L 6.75,89.75 L 6.75,89.375 L 6.875,89.25 L 6.875,88.875 L 7.0,88.75 L 7.0,88.375 L 7.125,88.25 L 7.125,85.75 L 7.25,85.625 L 7.25,85.5 L 7.375,85.375 L 7.375,85.25 L 7.625,85.0 L 7.625,84.875 L 7.875,84.625 L 7.875,84.5 L 8.25,84.125 L 8.25,84.0 L 8.375,83.875 L 8.5,83.875 L 8.625,83.75 L 8.75,83.75 L 8.875,83.625 L 9.0,83.625 L 9.125,83.5 L 9.25,83.5 L 9.375,83.375 L 9.5,83.375 L 9.625,83.25 L 9.75,83.25 L 9.875,83.125 L 10.125,83.125 L 10.25,83.0 L 10.625,83.0 L 10.75,82.875 L 11.25,82.875 L 11.375,82.75 L 12.125,82.75 L 12.25,82.625 L 12.875,82.625 L 13.0,82.75 L 13.375,82.75 L 13.5,82.875 L 14.0,82.875 L 14.125,83.0 L 14.75,83.0 L 14.875,83.125 L 16.125,83.125 L 16.25,83.25 L 18.875,83.25 L 19.0,83.375 L 21.5,83.375 L 21.625,83.25 L 21.875,83.25 L 22.125,83.5 L 22.125,87.0 L 22.0,87.125 L 22.0,89.625 L 21.75,89.875 L 21.375,89.875 L 21.125,90.125 L 21.125,90.375 L 21.25,90.5 L 21.25,90.625 L 21.0,90.875 L 20.875,90.875 L 20.75,91.0 L 20.625,91.0 L 20.5,91.125 L 20.375,91.125 L 20.125,91.375 L 20.0,91.375 L 19.875,91.5 L 19.75,91.5 L 19.625,91.625 L 19.5,91.625 L 19.375,91.75 L 19.25,91.75 L 19.125,91.875 L 19.0,91.875 L 18.875,92.0 L 18.75,92.0 L 18.625,92.125 L 18.5,92.125 L 18.375,92.25 L 18.25,92.25 L 18.0,92.5 L 17.875,92.5 L 17.75,92.625 L 17.625,92.625 L 17.5,92.75 L 17.375,92.75 L 17.125,93.0 L 17.0,93.0 L 16.875,93.125 L 16.625,93.125 L 16.5,93.25 L 16.375,93.25 L 16.25,93.375 L 16.0,93.375 L 15.875,93.5 L 15.75,93.5 L 15.625,93.625 L 15.375,93.625 L 15.25,93.75 L 14.875,93.75 L 14.75,93.875 L 14.375,93.875 L 14.25,94.0 L 13.75,94.0 L 13.625,94.125 L 13.125,94.125 L 13.0,94.25 L 12.5,94.25 L 12.375,94.375 L 11.875,94.375 L 11.75,94.25 L 8.75,94.25 L 8.625,94.375 L 7.125,94.375 L 7.0,94.25 L 6.75,94.25 L 6.625,94.125 L 6.5,94.125 L 6.375,94.0 L 6.125,94.0 L 6.0,93.875 L 5.875,93.875 L 5.75,93.75 L 5.5,93.75 L 5.375,93.625 L 4.75,93.625 L 4.625,93.75 L 4.5,93.75 L 4.25,94.0 L 4.125,94.0 L 4.0,94.125 L 3.875,94.125 L 3.625,94.375 L 3.5,94.375 L 3.375,94.5 L 3.25,94.5 L 3.0,94.75 L 2.875,94.75 L 2.625,95.0 L 2.625,95.125 L 2.5,95.25 L 2.5,95.5 L 2.75,95.75 L 3.125,95.75 L 3.25,95.625 L 3.375,95.625 L 3.5,95.5 L 3.625,95.5 L 3.75,95.375 L 3.875,95.375 L 4.125,95.125 L 4.25,95.125 L 4.375,95.0 L 4.5,95.0 L 4.75,94.75 L 4.875,94.75 L 5.0,94.625 L 5.125,94.625 L 5.25,94.75 L 5.5,94.75 L 5.625,94.875 L 5.75,94.875 L 5.875,95.0 L 6.125,95.0 L 6.25,95.125 L 6.625,95.125 L 6.75,95.25 L 7.0,95.25 L 7.125,95.375 L 8.875,95.375 L 9.0,95.25 L 10.125,95.25 L 10.25,95.375 L 10.75,95.375 L 10.875,95.5 L 11.375,95.5 L 11.5,95.625 L 12.375,95.625 L 12.625,95.375 L 12.75,95.375 L 12.875,95.25 L 13.25,95.25 L 13.375,95.125 L 13.875,95.125 L 14.0,95.0 L 14.125,95.0 L 14.375,95.25 L 14.375,95.5 L 14.5,95.625 L 14.5,96.75 L 14.625,96.875 L 14.625,98.25 L 14.75,98.375 L 14.75,98.625 L 14.5,98.875 L 14.125,98.875 L 14.0,99.0 L 12.5,99.0 L 12.375,99.125 L 11.375,99.125 L 11.25,99.25 L 10.25,99.25 L 10.125,99.375 L 10.0,99.375 L 9.875,99.5 L 0.75,99.5 L 0.5,99.25 L 0.5,64.375 L 0.75,64.125 L 1.625,64.125 L 1.75,64.0 L 2.125,64.0 L 2.25,63.875 L 2.5,63.875 L 2.625,63.75 L 3.25,63.75 L 3.375,63.625 L 3.875,63.625 L 4.0,63.5 L 4.375,63.5 L 4.5,63.375 L 4.875,63.375 L 5.0,63.25 L 5.5,63.25 z M 71.75,55.125 L 71.875,55.0 L 72.125,55.0 L 72.25,55.125 L 72.375,55.125 L 72.75,55.5 L 72.875,55.5 L 73.25,55.875 L 73.375,55.875 L 75.0,57.5 L 75.125,57.5 L 75.5,57.875 L 75.625,57.875 L 76.375,58.625 L 76.375,58.75 L 76.5,58.875 L 76.5,59.0 L 76.125,59.375 L 76.125,59.5 L 75.75,59.875 L 75.75,60.0 L 75.25,60.5 L 75.25,60.625 L 73.375,62.5 L 73.375,62.625 L 73.25,62.75 L 73.25,63.0 L 73.125,63.125 L 73.125,63.25 L 73.0,63.375 L 73.0,63.75 L 72.875,63.875 L 72.875,64.0 L 72.75,64.125 L 72.75,64.25 L 72.625,64.375 L 72.625,64.5 L 72.5,64.625 L 72.5,64.75 L 72.375,64.875 L 72.375,65.125 L 72.25,65.25 L 72.25,65.375 L 72.125,65.5 L 72.125,65.625 L 72.0,65.75 L 72.0,65.875 L 71.875,66.0 L 71.875,66.25 L 71.75,66.375 L 71.75,66.5 L 71.625,66.625 L 71.625,66.75 L 71.5,66.875 L 71.5,67.0 L 71.375,67.125 L 71.375,67.375 L 71.25,67.5 L 71.25,67.625 L 71.125,67.75 L 71.125,68.0 L 71.0,68.125 L 71.0,68.25 L 70.875,68.375 L 70.875,68.5 L 70.625,68.75 L 70.5,68.625 L 70.5,56.25 L 70.625,56.125 L 70.75,56.125 L 70.875,56.25 L 71.125,56.25 L 71.25,56.125 L 71.375,56.125 L 71.5,56.0 L 71.5,55.875 L 71.625,55.75 L 71.625,55.5 L 71.75,55.375 L 71.75,55.125 z M 82.125,35.625 L 82.25,35.5 L 82.625,35.5 L 82.75,35.625 L 82.75,36.25 L 82.875,36.375 L 82.875,39.875 L 83.0,40.0 L 83.0,40.375 L 83.125,40.5 L 83.125,41.25 L 83.25,41.375 L 83.25,41.75 L 83.375,41.875 L 83.375,42.25 L 83.5,42.375 L 83.5,42.75 L 83.625,42.875 L 83.625,43.125 L 83.75,43.25 L 83.75,43.5 L 83.875,43.625 L 83.875,43.875 L 84.0,44.0 L 84.0,44.25 L 83.75,44.5 L 83.625,44.5 L 83.5,44.625 L 83.375,44.625 L 83.25,44.75 L 83.125,44.75 L 83.0,44.875 L 82.75,44.875 L 82.625,45.0 L 82.5,45.0 L 82.375,45.125 L 82.25,45.125 L 82.125,45.25 L 82.0,45.25 L 81.75,45.5 L 81.625,45.5 L 81.5,45.625 L 81.375,45.625 L 81.25,45.75 L 81.125,45.75 L 81.0,45.875 L 80.875,45.875 L 80.625,46.125 L 80.5,46.125 L 80.375,46.25 L 80.25,46.25 L 80.125,46.375 L 80.0,46.375 L 79.875,46.5 L 79.75,46.5 L 79.625,46.625 L 79.375,46.625 L 79.25,46.75 L 79.125,46.75 L 79.0,46.875 L 78.875,46.875 L 78.75,47.0 L 78.5,47.0 L 78.375,47.125 L 78.125,47.125 L 78.0,47.25 L 77.875,47.25 L 77.75,47.375 L 77.5,47.375 L 77.375,47.5 L 77.125,47.5 L 77.0,47.625 L 76.625,47.625 L 76.5,47.75 L 76.25,47.75 L 76.125,47.875 L 75.875,47.875 L 75.75,48.0 L 75.5,48.0 L 75.125,48.375 L 75.125,48.5 L 75.0,48.625 L 74.625,48.25 L 74.625,48.125 L 74.375,47.875 L 74.375,47.25 L 74.5,47.125 L 74.5,46.875 L 74.625,46.75 L 74.625,46.5 L 74.75,46.375 L 74.75,46.25 L 74.875,46.125 L 74.875,45.875 L 75.0,45.75 L 75.0,45.375 L 75.125,45.25 L 75.125,44.75 L 75.25,44.625 L 75.25,43.75 L 75.375,43.625 L 75.375,43.125 L 75.5,43.0 L 75.5,42.5 L 75.625,42.375 L 75.625,41.875 L 75.75,41.75 L 75.75,41.125 L 75.875,41.0 L 75.875,40.625 L 76.0,40.5 L 76.0,40.375 L 76.5,39.875 L 76.5,39.75 L 77.125,39.125 L 77.125,39.0 L 77.75,38.375 L 77.75,38.25 L 78.375,37.625 L 78.375,37.5 L 79.125,36.75 L 79.25,36.75 L 79.375,36.625 L 79.5,36.625 L 79.625,36.5 L 79.75,36.5 L 79.875,36.375 L 80.0,36.375 L 80.125,36.25 L 80.25,36.25 L 80.375,36.125 L 80.5,36.125 L 80.75,35.875 L 81.0,35.875 L 81.125,35.75 L 81.5,35.75 L 81.625,35.625 L 82.125,35.625 z M 14.75,23.125 L 14.875,23.0 L 15.0,23.0 L 15.25,23.25 L 15.25,24.25 L 15.375,24.375 L 15.375,25.25 L 15.5,25.375 L 15.5,25.75 L 15.625,25.875 L 15.625,26.125 L 15.75,26.25 L 15.75,26.75 L 15.875,26.875 L 15.875,27.375 L 16.0,27.5 L 16.0,27.875 L 16.125,28.0 L 16.125,28.25 L 16.25,28.375 L 16.25,28.625 L 16.375,28.75 L 16.375,29.0 L 16.5,29.125 L 16.5,29.375 L 16.625,29.5 L 16.625,29.75 L 16.75,29.875 L 16.75,30.5 L 16.875,30.625 L 16.875,31.25 L 17.0,31.375 L 17.0,31.875 L 17.125,32.0 L 17.125,32.625 L 17.25,32.75 L 17.25,33.5 L 17.375,33.625 L 17.375,34.375 L 17.5,34.5 L 17.5,36.0 L 17.625,36.125 L 17.625,37.625 L 17.5,37.75 L 17.5,39.0 L 17.375,39.125 L 17.375,39.875 L 17.25,40.0 L 17.25,40.875 L 17.125,41.0 L 17.125,41.5 L 17.0,41.625 L 17.0,42.25 L 16.875,42.375 L 16.875,43.25 L 16.75,43.375 L 16.75,44.125 L 16.625,44.25 L 16.625,44.375 L 16.375,44.625 L 16.25,44.625 L 15.75,45.125 L 15.625,45.125 L 15.25,45.5 L 14.625,45.5 L 14.5,45.375 L 14.0,45.375 L 13.875,45.25 L 13.375,45.25 L 13.25,45.125 L 12.125,45.125 L 12.0,45.25 L 11.0,45.25 L 10.875,45.375 L 10.25,45.375 L 10.125,45.5 L 9.75,45.5 L 9.625,45.625 L 9.25,45.625 L 9.125,45.75 L 8.875,45.75 L 8.75,45.875 L 8.375,45.875 L 8.25,46.0 L 8.0,46.0 L 7.875,46.125 L 7.75,46.125 L 7.625,46.25 L 7.625,46.375 L 7.5,46.5 L 7.5,46.75 L 7.75,47.0 L 8.5,47.0 L 8.625,46.875 L 9.0,46.875 L 9.125,46.75 L 9.375,46.75 L 9.5,46.625 L 9.875,46.625 L 10.0,46.5 L 10.375,46.5 L 10.5,46.375 L 11.125,46.375 L 11.25,46.25 L 12.0,46.25 L 12.125,46.125 L 13.0,46.125 L 13.125,46.25 L 13.625,46.25 L 13.75,46.375 L 14.25,46.375 L 14.375,46.5 L 15.375,46.5 L 15.5,46.375 L 15.625,46.375 L 15.75,46.25 L 15.875,46.25 L 16.0,46.375 L 16.0,46.625 L 15.875,46.75 L 15.875,47.0 L 15.75,47.125 L 15.75,47.5 L 15.625,47.625 L 15.625,48.0 L 15.5,48.125 L 15.5,48.375 L 15.375,48.5 L 15.375,48.875 L 15.25,49.0 L 15.25,49.125 L 15.125,49.25 L 15.125,49.375 L 14.625,49.875 L 14.625,50.0 L 13.125,51.5 L 13.0,51.5 L 12.75,51.75 L 12.625,51.75 L 12.25,52.125 L 12.125,52.125 L 11.625,52.625 L 11.625,52.75 L 11.5,52.875 L 11.5,53.0 L 11.375,53.125 L 11.375,53.25 L 11.25,53.375 L 11.25,53.5 L 11.125,53.625 L 11.125,53.75 L 11.0,53.875 L 11.0,54.0 L 10.875,54.125 L 10.875,54.25 L 10.75,54.375 L 10.75,54.5 L 10.625,54.625 L 10.625,54.875 L 10.5,55.0 L 10.5,55.25 L 10.375,55.375 L 10.375,55.875 L 10.25,56.0 L 10.25,56.25 L 10.125,56.375 L 10.125,56.75 L 10.0,56.875 L 10.0,57.625 L 10.25,57.875 L 10.5,57.875 L 10.625,58.0 L 10.75,58.0 L 11.375,58.625 L 11.5,58.625 L 11.875,59.0 L 12.0,59.0 L 12.125,59.125 L 12.25,59.125 L 12.5,59.375 L 13.0,59.375 L 13.25,59.125 L 13.25,58.875 L 12.75,58.375 L 12.625,58.375 L 12.125,57.875 L 12.0,57.875 L 11.375,57.25 L 11.375,56.625 L 11.5,56.5 L 11.5,55.125 L 11.625,55.0 L 11.625,54.875 L 11.75,54.75 L 11.75,54.625 L 11.875,54.5 L 11.875,54.375 L 12.0,54.25 L 12.0,54.125 L 12.125,54.0 L 12.125,53.875 L 12.25,53.75 L 12.25,53.625 L 12.375,53.5 L 12.375,53.375 L 12.5,53.25 L 12.5,53.125 L 12.875,52.75 L 13.0,52.75 L 13.5,52.25 L 13.625,52.25 L 13.75,52.125 L 13.875,52.125 L 15.0,51.0 L 15.0,50.875 L 15.875,50.0 L 15.875,49.875 L 16.125,49.625 L 16.125,49.5 L 16.25,49.375 L 16.25,49.25 L 16.375,49.125 L 16.375,48.75 L 16.5,48.625 L 16.5,48.375 L 16.625,48.25 L 16.625,47.875 L 16.75,47.75 L 16.75,47.625 L 16.875,47.5 L 17.5,47.5 L 17.625,47.375 L 17.75,47.375 L 17.875,47.25 L 18.25,47.25 L 18.5,47.5 L 18.5,48.125 L 18.625,48.25 L 18.625,49.25 L 18.75,49.375 L 18.75,49.625 L 18.875,49.75 L 18.875,50.0 L 19.0,50.125 L 19.0,50.375 L 19.125,50.5 L 19.125,50.875 L 19.25,51.0 L 19.25,51.25 L 19.375,51.375 L 19.375,51.5 L 19.5,51.625 L 19.5,51.75 L 19.625,51.75 L 19.75,51.875 L 20.125,51.875 L 20.375,51.625 L 20.375,51.5 L 20.5,51.375 L 20.5,51.125 L 20.375,51.0 L 20.375,50.75 L 20.25,50.625 L 20.25,50.375 L 20.125,50.25 L 20.125,50.0 L 20.0,49.875 L 20.0,49.75 L 19.875,49.625 L 19.875,49.375 L 19.75,49.25 L 19.75,49.0 L 19.625,48.875 L 19.625,48.25 L 19.5,48.125 L 19.5,47.125 L 19.375,47.0 L 19.375,46.625 L 19.25,46.5 L 19.25,46.375 L 19.125,46.25 L 19.0,46.25 L 18.875,46.125 L 18.25,46.125 L 18.125,46.25 L 18.0,46.25 L 17.75,46.0 L 17.75,43.625 L 17.875,43.5 L 17.875,42.875 L 18.0,42.75 L 18.625,42.75 L 18.75,42.875 L 19.625,42.875 L 19.75,43.0 L 20.0,43.0 L 20.125,43.125 L 20.25,43.125 L 20.375,43.25 L 20.5,43.25 L 20.625,43.375 L 20.75,43.375 L 20.875,43.5 L 21.0,43.5 L 21.125,43.625 L 21.25,43.625 L 21.375,43.75 L 21.5,43.75 L 21.625,43.875 L 21.75,43.875 L 22.0,44.125 L 22.125,44.125 L 22.625,44.625 L 22.75,44.625 L 23.5,45.375 L 23.5,45.5 L 23.875,45.875 L 23.875,46.0 L 24.0,46.125 L 24.0,46.25 L 24.125,46.375 L 24.125,46.5 L 24.25,46.625 L 24.25,46.75 L 24.375,46.875 L 24.375,47.0 L 24.5,47.125 L 24.5,47.25 L 24.625,47.375 L 24.625,47.5 L 24.75,47.625 L 24.75,47.75 L 24.875,47.875 L 24.875,48.0 L 25.0,48.125 L 25.0,48.25 L 25.25,48.5 L 25.25,48.625 L 25.375,48.75 L 25.375,48.875 L 25.5,49.0 L 25.5,49.125 L 25.625,49.25 L 25.625,49.375 L 25.75,49.5 L 25.75,49.625 L 25.875,49.75 L 25.875,50.0 L 26.0,50.125 L 26.0,50.25 L 26.125,50.375 L 26.125,50.625 L 26.25,50.75 L 26.25,50.875 L 26.375,51.0 L 26.375,51.25 L 26.5,51.375 L 26.5,51.5 L 26.625,51.625 L 26.625,51.875 L 26.75,52.0 L 26.75,52.125 L 26.875,52.25 L 26.875,52.375 L 27.0,52.5 L 27.0,52.625 L 27.125,52.75 L 27.125,52.875 L 27.25,53.0 L 27.25,53.125 L 27.125,53.25 L 27.0,53.25 L 26.875,53.375 L 26.625,53.375 L 26.5,53.5 L 26.25,53.5 L 26.125,53.625 L 25.875,53.625 L 25.75,53.75 L 25.625,53.75 L 25.5,53.875 L 25.25,53.875 L 25.125,54.0 L 24.875,54.0 L 24.75,54.125 L 24.625,54.125 L 24.5,54.25 L 24.25,54.25 L 24.125,54.375 L 23.75,54.375 L 23.625,54.5 L 23.375,54.5 L 23.25,54.625 L 23.125,54.625 L 22.25,55.5 L 22.25,55.625 L 21.75,56.125 L 21.75,56.25 L 21.25,56.75 L 21.25,57.0 L 21.125,57.125 L 21.125,59.0 L 21.25,59.125 L 21.25,59.875 L 21.125,60.0 L 21.125,60.625 L 21.0,60.75 L 21.0,61.5 L 20.75,61.75 L 20.25,61.75 L 20.125,61.875 L 19.5,61.875 L 19.375,62.0 L 18.875,62.0 L 18.75,61.875 L 18.5,61.875 L 18.375,61.75 L 18.25,61.75 L 18.125,61.625 L 17.875,61.625 L 17.75,61.5 L 17.5,61.5 L 17.375,61.375 L 17.125,61.375 L 17.0,61.25 L 16.75,61.25 L 16.625,61.125 L 16.5,61.125 L 16.375,61.0 L 16.25,61.0 L 16.125,60.875 L 15.875,60.875 L 15.75,60.75 L 15.625,60.75 L 15.5,60.625 L 15.375,60.625 L 15.25,60.5 L 15.0,60.5 L 14.875,60.375 L 14.75,60.375 L 14.625,60.25 L 13.375,60.25 L 13.25,60.375 L 12.75,60.375 L 12.625,60.5 L 11.875,60.5 L 11.75,60.625 L 11.625,60.625 L 11.5,60.75 L 11.5,60.875 L 11.375,61.0 L 11.375,61.25 L 11.625,61.5 L 12.625,61.5 L 12.75,61.375 L 13.5,61.375 L 13.625,61.25 L 14.375,61.25 L 14.5,61.375 L 14.625,61.375 L 14.75,61.5 L 15.0,61.5 L 15.125,61.625 L 15.25,61.625 L 15.375,61.75 L 15.5,61.75 L 15.625,61.875 L 15.875,61.875 L 16.0,62.0 L 16.125,62.0 L 16.25,62.125 L 16.625,62.125 L 16.75,62.25 L 16.875,62.25 L 17.0,62.375 L 17.125,62.375 L 17.25,62.5 L 17.5,62.5 L 17.625,62.625 L 17.875,62.625 L 18.0,62.75 L 18.125,62.75 L 18.25,62.875 L 18.625,62.875 L 18.75,63.0 L 19.5,63.0 L 19.625,62.875 L 20.25,62.875 L 20.375,62.75 L 20.75,62.75 L 21.125,63.125 L 21.125,63.625 L 21.25,63.75 L 21.25,64.25 L 21.375,64.375 L 21.375,64.75 L 21.5,64.875 L 21.5,65.0 L 21.625,65.125 L 21.625,65.25 L 21.75,65.375 L 21.75,65.5 L 21.875,65.625 L 21.875,65.75 L 22.0,65.875 L 22.0,66.0 L 22.125,66.125 L 22.125,66.25 L 22.25,66.375 L 22.25,66.625 L 22.375,66.75 L 22.375,66.875 L 22.5,67.0 L 22.5,67.125 L 22.75,67.375 L 22.75,67.5 L 22.875,67.625 L 22.875,67.75 L 23.0,67.875 L 23.0,68.0 L 23.25,68.25 L 23.25,68.375 L 23.375,68.5 L 23.375,68.625 L 23.5,68.75 L 23.5,69.125 L 22.75,69.875 L 22.75,70.0 L 22.5,70.25 L 22.375,70.25 L 22.25,70.375 L 22.125,70.375 L 22.0,70.5 L 21.75,70.5 L 21.625,70.625 L 21.375,70.625 L 21.25,70.75 L 21.0,70.75 L 20.875,70.875 L 20.5,70.875 L 20.375,71.0 L 19.875,71.0 L 19.75,70.875 L 19.625,70.875 L 19.5,70.75 L 19.25,70.75 L 19.125,70.625 L 18.875,70.625 L 18.75,70.5 L 18.5,70.5 L 18.375,70.375 L 18.125,70.375 L 18.0,70.25 L 17.75,70.25 L 17.625,70.125 L 17.375,70.125 L 17.25,70.0 L 17.0,70.0 L 16.875,69.875 L 16.625,69.875 L 16.5,69.75 L 16.25,69.75 L 16.125,69.625 L 15.25,69.625 L 15.0,69.875 L 15.0,70.125 L 15.125,70.25 L 15.125,70.375 L 15.25,70.375 L 15.375,70.5 L 15.5,70.5 L 15.625,70.625 L 15.875,70.625 L 16.0,70.75 L 16.25,70.75 L 16.375,70.875 L 16.625,70.875 L 16.75,71.0 L 17.0,71.0 L 17.125,71.125 L 17.375,71.125 L 17.5,71.25 L 17.75,71.25 L 17.875,71.375 L 18.25,71.375 L 18.375,71.5 L 18.625,71.5 L 18.75,71.625 L 18.875,71.625 L 19.0,71.75 L 19.25,71.75 L 19.375,71.875 L 19.625,71.875 L 19.75,72.0 L 20.625,72.0 L 20.75,71.875 L 21.125,71.875 L 21.25,71.75 L 21.5,71.75 L 21.625,71.625 L 21.875,71.625 L 22.0,71.5 L 22.25,71.5 L 22.375,71.375 L 22.5,71.375 L 22.625,71.25 L 22.75,71.25 L 23.625,70.375 L 23.625,70.25 L 23.875,70.0 L 24.0,70.0 L 24.125,69.875 L 24.375,70.125 L 24.375,70.25 L 24.5,70.375 L 24.5,70.5 L 24.75,70.75 L 24.75,70.875 L 25.0,71.125 L 25.0,71.25 L 25.125,71.375 L 25.125,71.5 L 25.375,71.75 L 25.375,71.875 L 25.5,72.0 L 25.5,72.125 L 25.75,72.375 L 25.75,72.5 L 25.875,72.625 L 25.875,72.75 L 26.125,73.0 L 26.125,73.125 L 26.25,73.25 L 26.25,73.375 L 26.75,73.875 L 26.75,74.0 L 27.0,74.25 L 27.0,74.375 L 27.375,74.75 L 27.375,74.875 L 27.875,75.375 L 27.875,75.5 L 28.25,75.875 L 28.25,76.0 L 28.5,76.25 L 28.5,76.375 L 28.75,76.625 L 28.75,76.75 L 28.875,76.875 L 28.875,77.0 L 29.0,77.125 L 29.0,77.25 L 29.25,77.5 L 29.25,77.625 L 29.625,78.0 L 29.625,78.125 L 30.0,78.5 L 30.0,78.625 L 30.375,79.0 L 30.375,79.125 L 30.75,79.5 L 30.75,79.625 L 31.0,79.875 L 31.0,80.0 L 31.25,80.25 L 31.25,80.375 L 31.5,80.625 L 31.5,80.75 L 31.625,80.875 L 31.625,81.0 L 31.75,81.125 L 31.75,81.25 L 31.875,81.375 L 31.875,81.5 L 32.0,81.625 L 32.0,83.125 L 31.75,83.375 L 31.125,83.375 L 31.0,83.25 L 30.25,83.25 L 30.125,83.125 L 29.25,83.125 L 29.125,83.0 L 28.0,83.0 L 27.875,82.875 L 27.125,82.875 L 27.0,82.75 L 26.125,82.75 L 26.0,82.625 L 25.75,82.625 L 25.625,82.5 L 25.625,82.25 L 25.75,82.125 L 25.75,81.375 L 25.875,81.25 L 25.875,80.625 L 26.0,80.5 L 26.0,79.625 L 26.125,79.5 L 26.125,79.125 L 26.25,79.0 L 26.25,78.0 L 26.0,77.75 L 25.75,77.75 L 25.625,77.875 L 25.5,77.875 L 25.5,78.0 L 25.375,78.125 L 25.375,78.25 L 25.25,78.375 L 25.25,78.75 L 25.125,78.875 L 25.125,79.625 L 25.0,79.75 L 25.0,80.25 L 24.875,80.375 L 24.875,81.0 L 24.75,81.125 L 24.75,81.875 L 24.625,82.0 L 24.625,82.25 L 24.375,82.5 L 24.125,82.5 L 24.0,82.375 L 23.125,82.375 L 23.0,82.25 L 21.375,82.25 L 21.25,82.375 L 19.25,82.375 L 19.125,82.25 L 18.375,82.25 L 18.25,82.125 L 18.25,81.25 L 18.375,81.125 L 18.375,80.5 L 18.5,80.375 L 18.5,80.25 L 18.375,80.125 L 18.375,79.625 L 18.25,79.5 L 18.25,79.125 L 18.125,79.0 L 18.125,78.75 L 18.0,78.625 L 18.0,78.25 L 17.875,78.125 L 17.875,77.875 L 17.75,77.75 L 17.75,77.5 L 17.625,77.375 L 17.625,77.125 L 17.5,77.0 L 17.5,76.875 L 17.375,76.75 L 17.375,76.5 L 17.25,76.375 L 17.25,76.125 L 17.125,76.0 L 17.125,75.75 L 17.0,75.625 L 17.0,75.5 L 16.875,75.375 L 16.875,75.25 L 16.75,75.125 L 16.75,75.0 L 16.375,74.625 L 16.375,74.5 L 16.125,74.25 L 16.125,74.125 L 15.75,73.75 L 15.75,73.625 L 13.875,71.75 L 13.875,71.625 L 13.625,71.375 L 13.625,71.25 L 13.375,71.0 L 13.375,70.875 L 13.125,70.625 L 13.125,70.5 L 12.875,70.25 L 12.875,70.125 L 12.5,69.75 L 12.5,69.625 L 12.25,69.375 L 12.25,69.25 L 12.0,69.0 L 12.0,68.875 L 11.75,68.625 L 11.75,68.5 L 11.5,68.25 L 11.5,68.125 L 11.375,68.0 L 11.375,67.875 L 11.125,67.625 L 11.125,67.5 L 11.0,67.375 L 11.0,67.25 L 10.75,67.0 L 10.75,66.875 L 10.5,66.625 L 10.5,66.5 L 10.375,66.375 L 10.375,66.25 L 10.125,66.0 L 10.125,65.875 L 10.0,65.75 L 10.0,65.625 L 9.75,65.375 L 9.75,65.25 L 9.625,65.125 L 9.625,65.0 L 9.5,64.875 L 9.5,64.75 L 9.375,64.625 L 9.375,64.5 L 9.125,64.25 L 9.125,64.125 L 9.0,64.0 L 9.0,63.875 L 8.875,63.75 L 8.875,63.625 L 8.75,63.5 L 8.75,63.25 L 8.625,63.125 L 8.625,63.0 L 8.375,62.75 L 8.25,62.75 L 8.125,62.625 L 7.625,62.625 L 7.5,62.5 L 7.125,62.5 L 7.0,62.375 L 6.625,62.375 L 6.5,62.25 L 6.125,62.25 L 6.0,62.125 L 5.375,62.125 L 5.25,62.25 L 4.75,62.25 L 4.625,62.375 L 4.25,62.375 L 4.125,62.5 L 3.75,62.5 L 3.625,62.625 L 3.25,62.625 L 3.125,62.75 L 2.625,62.75 L 2.5,62.875 L 2.0,62.875 L 1.875,63.0 L 1.5,63.0 L 1.375,63.125 L 1.0,63.125 L 0.875,63.25 L 0.625,63.25 L 0.5,63.125 L 0.5,61.625 L 0.625,61.5 L 0.625,61.25 L 0.75,61.125 L 0.75,60.625 L 0.875,60.5 L 0.875,59.625 L 1.0,59.5 L 1.0,58.875 L 1.125,58.75 L 1.125,56.375 L 1.25,56.25 L 1.25,55.5 L 1.375,55.375 L 1.375,54.5 L 1.5,54.375 L 1.5,54.125 L 1.625,54.0 L 1.625,53.875 L 2.125,53.375 L 2.25,53.375 L 3.375,52.25 L 3.375,52.125 L 3.5,52.0 L 3.5,51.875 L 3.625,51.75 L 3.625,51.5 L 3.75,51.375 L 3.75,51.25 L 3.875,51.125 L 3.875,51.0 L 4.125,50.75 L 4.125,50.625 L 4.25,50.5 L 4.25,50.375 L 4.375,50.25 L 4.375,50.125 L 4.625,49.875 L 4.625,49.75 L 5.5,48.875 L 5.5,48.75 L 6.0,48.25 L 6.0,47.75 L 5.0,46.75 L 5.0,46.625 L 4.875,46.5 L 5.0,46.375 L 5.0,46.25 L 5.375,45.875 L 5.5,45.875 L 5.625,45.75 L 5.75,45.75 L 6.0,45.5 L 6.125,45.5 L 6.375,45.25 L 6.375,44.75 L 6.25,44.625 L 5.625,44.625 L 5.5,44.75 L 5.375,44.75 L 5.25,44.875 L 5.125,44.875 L 4.875,44.625 L 4.875,43.875 L 4.75,43.75 L 4.75,42.375 L 4.625,42.25 L 4.625,41.125 L 4.5,41.0 L 4.5,40.625 L 4.375,40.5 L 4.375,39.875 L 4.25,39.75 L 4.25,39.25 L 4.125,39.125 L 4.125,38.75 L 4.0,38.625 L 4.0,38.125 L 3.875,38.0 L 3.875,37.375 L 3.75,37.25 L 3.75,36.875 L 3.625,36.75 L 3.625,36.0 L 3.75,35.875 L 3.75,35.25 L 3.875,35.125 L 3.875,34.625 L 4.0,34.5 L 4.0,34.0 L 4.125,33.875 L 4.125,33.75 L 4.25,33.625 L 4.25,33.5 L 4.375,33.375 L 4.375,33.25 L 4.5,33.125 L 4.5,33.0 L 4.625,32.875 L 4.625,32.75 L 4.75,32.625 L 4.75,32.5 L 4.875,32.375 L 4.875,32.25 L 5.125,32.0 L 5.125,31.875 L 5.25,31.75 L 5.25,31.625 L 5.5,31.375 L 5.5,31.25 L 5.625,31.125 L 5.625,31.0 L 5.875,30.75 L 5.875,30.625 L 6.0,30.5 L 6.0,30.375 L 6.25,30.125 L 6.25,30.0 L 6.5,29.75 L 6.5,29.625 L 6.625,29.5 L 6.625,29.375 L 6.75,29.25 L 6.75,29.125 L 7.0,28.875 L 7.0,28.75 L 7.125,28.625 L 7.125,28.5 L 7.25,28.375 L 7.25,28.25 L 7.5,28.0 L 7.5,27.875 L 7.625,27.75 L 7.625,27.625 L 9.375,25.875 L 9.5,25.875 L 9.875,25.5 L 10.0,25.5 L 10.375,25.125 L 10.5,25.125 L 10.75,24.875 L 10.875,24.875 L 11.125,24.625 L 11.25,24.625 L 11.5,24.375 L 11.625,24.375 L 11.75,24.25 L 11.875,24.25 L 12.125,24.0 L 12.25,24.0 L 12.5,23.75 L 12.625,23.75 L 12.875,23.5 L 13.0,23.5 L 13.25,23.25 L 14.0,23.25 L 14.125,23.125 L 14.75,23.125 z M 81.0,7.75 L 81.125,7.625 L 83.125,7.625 L 83.25,7.75 L 83.75,7.75 L 83.875,7.875 L 84.0,7.875 L 84.125,8.0 L 84.125,12.875 L 84.0,13.0 L 84.0,14.0 L 83.875,14.125 L 83.875,15.125 L 83.75,15.25 L 83.75,16.0 L 83.625,16.125 L 83.625,16.875 L 83.5,17.0 L 83.5,17.625 L 83.375,17.75 L 83.375,18.5 L 83.25,18.625 L 83.25,19.0 L 83.0,19.25 L 82.5,19.25 L 82.375,19.125 L 81.875,19.125 L 81.75,19.0 L 81.25,19.0 L 81.125,18.875 L 80.75,18.875 L 80.625,18.75 L 80.375,18.75 L 80.25,18.625 L 80.0,18.625 L 79.875,18.5 L 79.625,18.5 L 79.5,18.375 L 79.125,18.375 L 79.0,18.25 L 78.875,18.25 L 78.75,18.375 L 78.625,18.375 L 78.375,18.625 L 78.375,18.875 L 78.75,19.25 L 78.875,19.25 L 79.0,19.375 L 79.25,19.375 L 79.375,19.5 L 79.625,19.5 L 79.75,19.625 L 80.0,19.625 L 80.125,19.75 L 80.375,19.75 L 80.5,19.875 L 80.875,19.875 L 81.0,20.0 L 81.5,20.0 L 81.625,20.125 L 82.5,20.125 L 82.625,20.25 L 82.875,20.25 L 83.0,20.375 L 83.0,20.75 L 82.875,20.875 L 82.875,21.625 L 82.75,21.75 L 82.75,22.625 L 82.625,22.75 L 82.625,24.0 L 82.5,24.125 L 82.5,26.0 L 82.375,26.125 L 82.375,26.625 L 82.125,26.875 L 79.625,26.875 L 79.5,27.0 L 79.0,27.0 L 78.875,27.125 L 78.0,27.125 L 77.875,27.25 L 77.5,27.25 L 77.375,27.375 L 77.125,27.375 L 77.0,27.5 L 76.875,27.5 L 76.75,27.625 L 76.5,27.625 L 76.375,27.75 L 76.125,27.75 L 76.0,27.875 L 75.875,27.875 L 75.75,28.0 L 75.5,28.0 L 75.125,28.375 L 75.125,28.625 L 75.375,28.875 L 76.125,28.875 L 76.25,28.75 L 76.625,28.75 L 76.75,28.625 L 77.0,28.625 L 77.125,28.5 L 77.25,28.5 L 77.375,28.375 L 77.625,28.375 L 77.75,28.25 L 78.125,28.25 L 78.25,28.125 L 78.875,28.125 L 79.0,28.0 L 79.75,28.0 L 79.875,27.875 L 82.125,27.875 L 82.375,28.125 L 82.375,29.0 L 82.125,29.25 L 81.875,29.25 L 81.75,29.125 L 79.75,29.125 L 79.625,29.25 L 79.25,29.25 L 79.125,29.375 L 78.75,29.375 L 78.625,29.5 L 78.25,29.5 L 78.125,29.625 L 77.875,29.625 L 76.75,30.75 L 76.75,30.875 L 76.0,31.625 L 76.0,31.75 L 75.875,31.875 L 75.875,32.25 L 75.75,32.375 L 75.75,33.625 L 75.625,33.75 L 75.625,34.375 L 75.5,34.5 L 75.5,34.625 L 75.25,34.875 L 75.25,35.0 L 74.875,35.375 L 74.875,35.5 L 74.75,35.625 L 74.75,35.75 L 74.625,35.875 L 74.625,36.0 L 74.5,36.125 L 74.5,36.25 L 74.375,36.375 L 74.375,36.75 L 74.625,37.0 L 74.875,37.0 L 75.0,36.875 L 75.125,36.875 L 75.375,36.625 L 75.375,36.5 L 75.5,36.375 L 75.5,36.25 L 75.625,36.125 L 75.625,36.0 L 75.875,35.75 L 75.875,35.625 L 76.25,35.25 L 76.25,35.125 L 76.5,34.875 L 76.5,34.625 L 76.625,34.5 L 76.625,34.0 L 76.75,33.875 L 76.75,32.5 L 76.875,32.375 L 76.875,32.125 L 77.125,31.875 L 77.125,31.75 L 78.375,30.5 L 78.875,30.5 L 79.0,30.375 L 79.375,30.375 L 79.5,30.25 L 79.875,30.25 L 80.0,30.125 L 81.5,30.125 L 81.625,30.25 L 82.125,30.25 L 82.375,30.5 L 82.375,30.75 L 82.5,30.875 L 82.5,32.875 L 82.625,33.0 L 82.625,34.25 L 82.375,34.5 L 82.0,34.5 L 81.875,34.625 L 81.375,34.625 L 81.25,34.75 L 80.875,34.75 L 80.75,34.875 L 80.625,34.875 L 80.5,35.0 L 80.375,35.0 L 80.25,35.125 L 80.125,35.125 L 80.0,35.25 L 79.875,35.25 L 79.75,35.375 L 79.625,35.375 L 79.5,35.5 L 79.375,35.5 L 79.125,35.75 L 79.0,35.75 L 78.875,35.875 L 78.75,35.875 L 78.625,36.0 L 78.5,36.0 L 78.375,36.125 L 78.25,36.125 L 78.125,36.25 L 78.125,36.375 L 77.875,36.625 L 77.875,36.75 L 77.25,37.375 L 77.25,37.5 L 76.5,38.25 L 76.5,38.375 L 75.875,39.0 L 75.875,39.125 L 75.375,39.625 L 75.375,39.75 L 75.125,40.0 L 75.125,40.125 L 75.0,40.25 L 75.0,40.375 L 74.875,40.5 L 74.875,40.75 L 74.75,40.875 L 74.75,41.5 L 74.625,41.625 L 74.625,42.125 L 74.5,42.25 L 74.5,42.75 L 74.375,42.875 L 74.375,43.625 L 74.25,43.75 L 74.25,44.375 L 74.125,44.5 L 74.125,45.125 L 74.0,45.25 L 74.0,45.5 L 73.875,45.625 L 73.875,45.875 L 73.75,46.0 L 73.75,46.25 L 73.625,46.375 L 73.625,46.625 L 73.5,46.75 L 73.5,47.0 L 73.375,47.125 L 73.375,48.125 L 73.625,48.375 L 73.625,48.5 L 73.875,48.75 L 73.875,48.875 L 74.125,49.125 L 74.125,49.25 L 74.25,49.375 L 74.25,49.5 L 74.375,49.625 L 74.375,50.0 L 73.75,50.625 L 73.75,50.75 L 73.125,51.375 L 73.125,51.5 L 72.375,52.25 L 72.25,52.25 L 71.25,53.25 L 71.25,53.375 L 71.125,53.5 L 71.125,53.625 L 71.0,53.75 L 71.0,54.125 L 70.875,54.25 L 70.875,54.625 L 70.75,54.75 L 70.75,54.875 L 70.625,55.0 L 70.5,54.875 L 70.5,33.625 L 70.75,33.375 L 70.875,33.375 L 71.75,32.5 L 71.75,32.375 L 72.5,31.625 L 72.5,31.5 L 72.75,31.25 L 72.75,31.125 L 73.0,30.875 L 73.0,30.75 L 73.125,30.625 L 73.125,30.5 L 73.375,30.25 L 73.375,30.125 L 73.625,29.875 L 73.625,29.75 L 73.75,29.625 L 73.75,29.5 L 73.875,29.375 L 73.875,29.25 L 74.0,29.125 L 74.0,26.5 L 73.875,26.375 L 73.875,25.875 L 73.75,25.75 L 73.75,25.125 L 73.625,25.0 L 73.625,24.375 L 73.5,24.25 L 73.5,23.625 L 73.375,23.5 L 73.375,22.875 L 73.25,22.75 L 73.25,22.25 L 73.125,22.125 L 73.125,21.25 L 73.0,21.125 L 73.0,20.75 L 72.875,20.625 L 72.875,20.25 L 72.75,20.125 L 72.75,19.625 L 72.625,19.5 L 72.625,19.25 L 72.75,19.125 L 72.75,19.0 L 72.875,18.875 L 72.875,18.625 L 73.0,18.5 L 73.0,18.375 L 73.125,18.25 L 73.125,18.125 L 73.375,17.875 L 73.375,17.75 L 73.5,17.625 L 73.5,17.5 L 73.625,17.375 L 73.625,17.125 L 73.75,17.0 L 73.75,16.375 L 73.875,16.25 L 73.875,15.375 L 74.0,15.25 L 74.0,14.5 L 74.125,14.375 L 74.125,13.875 L 74.25,13.75 L 74.25,13.25 L 74.375,13.125 L 74.375,12.625 L 74.5,12.5 L 74.5,12.375 L 74.625,12.25 L 74.625,12.125 L 75.625,11.125 L 75.75,11.125 L 76.5,10.375 L 76.5,10.25 L 77.125,9.625 L 77.125,9.5 L 77.5,9.125 L 77.5,9.0 L 77.625,8.875 L 77.75,8.875 L 78.0,8.625 L 78.25,8.625 L 78.375,8.5 L 78.5,8.5 L 78.625,8.375 L 78.75,8.375 L 78.875,8.25 L 79.0,8.25 L 79.125,8.125 L 79.25,8.125 L 79.375,8.0 L 79.5,8.0 L 79.625,7.875 L 79.875,7.875 L 80.0,7.75 L 81.0,7.75 z M 16.875,5.25 L 17.0,5.125 L 18.0,5.125 L 18.125,5.25 L 18.75,5.25 L 18.875,5.375 L 19.625,5.375 L 19.75,5.5 L 19.875,5.5 L 20.0,5.625 L 20.125,5.625 L 20.25,5.75 L 20.5,5.75 L 20.625,5.875 L 20.75,5.875 L 20.875,6.0 L 21.0,6.0 L 21.125,6.125 L 21.25,6.125 L 21.5,6.375 L 21.625,6.375 L 21.875,6.625 L 21.875,6.75 L 22.0,6.875 L 22.0,7.0 L 22.25,7.25 L 22.25,7.375 L 22.375,7.5 L 22.375,7.625 L 22.5,7.75 L 22.5,7.875 L 22.625,8.0 L 22.625,8.125 L 22.875,8.375 L 22.875,8.5 L 23.0,8.625 L 23.0,8.75 L 23.125,8.875 L 23.125,9.0 L 23.25,9.125 L 23.25,9.25 L 23.5,9.5 L 23.5,9.75 L 23.625,9.875 L 23.625,10.0 L 23.75,10.125 L 23.75,10.625 L 22.625,11.75 L 22.625,11.875 L 22.5,12.0 L 22.5,12.125 L 22.375,12.25 L 22.375,12.375 L 22.5,12.5 L 22.5,12.625 L 22.625,12.75 L 22.5,12.875 L 22.375,12.875 L 22.25,13.0 L 21.875,13.0 L 21.75,13.125 L 21.5,13.125 L 21.375,13.25 L 21.125,13.25 L 21.0,13.375 L 20.75,13.375 L 20.625,13.5 L 20.375,13.5 L 20.25,13.625 L 20.0,13.625 L 19.875,13.75 L 19.25,13.75 L 19.125,13.875 L 18.625,13.875 L 18.5,14.0 L 18.125,14.0 L 18.0,14.125 L 17.625,14.125 L 17.5,14.25 L 16.5,14.25 L 16.375,14.375 L 15.875,14.375 L 15.625,14.125 L 15.625,11.125 L 15.5,11.0 L 15.5,8.625 L 15.375,8.5 L 15.375,5.625 L 15.625,5.375 L 16.0,5.375 L 16.125,5.25 L 16.875,5.25 z M 99.25,1.875 L 99.375,1.875 L 99.5,2.0 L 99.5,73.375 L 99.25,73.625 L 99.0,73.625 L 98.875,73.75 L 98.75,73.75 L 98.625,73.875 L 98.5,73.875 L 98.375,74.0 L 98.125,74.0 L 98.0,74.125 L 97.875,74.125 L 97.75,74.25 L 97.625,74.25 L 97.5,74.375 L 97.375,74.375 L 97.25,74.5 L 96.75,74.5 L 96.625,74.625 L 95.625,74.625 L 95.5,74.75 L 94.75,74.75 L 94.625,74.625 L 94.5,74.625 L 94.375,74.5 L 94.25,74.5 L 94.125,74.375 L 94.0,74.375 L 93.875,74.25 L 93.75,74.25 L 93.625,74.125 L 93.5,74.125 L 93.375,74.0 L 93.125,74.0 L 93.0,73.875 L 92.875,73.875 L 92.75,73.75 L 92.625,73.75 L 92.5,73.625 L 92.375,73.625 L 92.25,73.5 L 92.0,73.5 L 91.875,73.375 L 91.625,73.375 L 91.5,73.25 L 91.25,73.25 L 91.0,73.0 L 91.0,72.75 L 91.125,72.625 L 91.125,72.5 L 91.25,72.375 L 91.25,72.25 L 91.375,72.125 L 91.375,72.0 L 91.5,71.875 L 91.5,71.625 L 91.625,71.5 L 91.625,71.375 L 91.75,71.25 L 91.75,71.0 L 91.875,70.875 L 91.875,70.625 L 92.0,70.5 L 92.0,70.25 L 92.125,70.125 L 92.125,69.875 L 92.25,69.75 L 92.25,69.5 L 92.5,69.25 L 92.625,69.375 L 93.0,69.375 L 93.125,69.5 L 93.5,69.5 L 93.625,69.625 L 94.0,69.625 L 94.125,69.75 L 94.5,69.75 L 94.625,69.875 L 95.0,69.875 L 95.125,70.0 L 95.25,70.0 L 95.375,70.125 L 95.5,70.125 L 95.625,70.25 L 95.875,70.25 L 96.0,70.375 L 96.375,70.375 L 96.5,70.5 L 96.625,70.5 L 96.75,70.375 L 96.875,70.375 L 97.125,70.125 L 97.125,69.875 L 96.75,69.5 L 96.625,69.5 L 96.5,69.375 L 96.25,69.375 L 96.125,69.25 L 95.875,69.25 L 95.75,69.125 L 95.5,69.125 L 95.375,69.0 L 95.0,69.0 L 94.875,68.875 L 94.75,68.875 L 94.625,68.75 L 94.375,68.75 L 94.25,68.625 L 93.875,68.625 L 93.75,68.5 L 93.375,68.5 L 93.25,68.375 L 92.875,68.375 L 92.5,68.0 L 92.625,67.875 L 92.625,66.625 L 92.75,66.5 L 92.75,65.625 L 92.875,65.5 L 92.875,64.625 L 93.0,64.5 L 93.0,63.875 L 93.125,63.75 L 93.125,63.625 L 93.25,63.5 L 93.25,63.375 L 93.625,63.0 L 93.625,62.875 L 93.875,62.625 L 93.875,62.5 L 94.125,62.25 L 94.125,62.125 L 94.5,61.75 L 94.625,61.75 L 94.75,61.625 L 94.875,61.625 L 95.0,61.5 L 95.125,61.5 L 95.25,61.375 L 95.375,61.375 L 95.625,61.125 L 95.75,61.125 L 96.0,60.875 L 96.75,60.875 L 96.875,61.0 L 97.5,61.0 L 97.625,61.125 L 98.625,61.125 L 98.875,60.875 L 98.875,60.625 L 98.75,60.5 L 98.75,60.375 L 98.625,60.375 L 98.5,60.25 L 98.375,60.25 L 98.25,60.125 L 97.875,60.125 L 97.75,60.0 L 97.125,60.0 L 97.0,59.875 L 95.75,59.875 L 95.5,60.125 L 95.375,60.125 L 95.125,60.375 L 95.0,60.375 L 94.875,60.5 L 94.75,60.5 L 94.5,60.75 L 94.375,60.75 L 94.25,60.875 L 94.125,60.875 L 94.0,61.0 L 93.875,61.0 L 93.375,61.5 L 93.375,61.625 L 93.125,61.875 L 93.125,62.0 L 92.875,62.25 L 92.875,62.375 L 92.625,62.625 L 92.625,62.75 L 92.25,63.125 L 92.25,63.25 L 92.125,63.375 L 92.125,63.5 L 92.0,63.625 L 92.0,64.5 L 91.875,64.625 L 91.875,65.25 L 91.75,65.375 L 91.75,66.25 L 91.625,66.375 L 91.625,67.625 L 91.5,67.75 L 91.5,68.625 L 91.375,68.75 L 91.375,69.0 L 91.25,69.125 L 91.25,69.5 L 91.125,69.625 L 91.125,69.875 L 91.0,70.0 L 91.0,70.25 L 90.875,70.375 L 90.875,70.75 L 90.75,70.875 L 90.75,71.0 L 90.625,71.125 L 90.625,71.25 L 90.5,71.375 L 90.5,71.625 L 90.375,71.75 L 90.375,71.875 L 90.25,72.0 L 90.25,72.125 L 90.125,72.25 L 90.125,72.625 L 90.0,72.75 L 90.0,72.875 L 89.75,73.125 L 89.75,73.25 L 88.5,74.5 L 88.375,74.5 L 88.125,74.75 L 88.0,74.75 L 87.875,74.875 L 87.75,74.875 L 87.625,75.0 L 87.5,75.0 L 87.375,75.125 L 87.25,75.125 L 87.125,75.25 L 87.0,75.25 L 86.875,75.375 L 86.75,75.375 L 86.625,75.5 L 86.5,75.5 L 86.375,75.625 L 86.25,75.625 L 86.125,75.75 L 85.875,75.75 L 85.75,75.875 L 85.375,75.875 L 85.25,76.0 L 84.875,76.0 L 84.75,76.125 L 84.5,76.125 L 84.375,76.25 L 84.0,76.25 L 83.875,76.375 L 83.5,76.375 L 83.375,76.5 L 83.0,76.5 L 82.875,76.625 L 82.625,76.625 L 82.5,76.75 L 82.125,76.75 L 82.0,76.875 L 81.75,76.875 L 81.625,77.0 L 81.125,77.0 L 81.0,77.125 L 80.625,77.125 L 80.5,77.25 L 80.25,77.25 L 80.125,77.375 L 79.75,77.375 L 79.625,77.5 L 79.375,77.5 L 79.25,77.625 L 79.0,77.625 L 78.875,77.75 L 78.5,77.75 L 78.375,77.875 L 78.0,77.875 L 77.875,78.0 L 77.625,78.0 L 77.5,78.125 L 77.125,78.125 L 77.0,78.25 L 76.625,78.25 L 76.5,78.375 L 76.125,78.375 L 76.0,78.5 L 75.625,78.5 L 75.5,78.625 L 75.125,78.625 L 75.0,78.75 L 74.625,78.75 L 74.5,78.875 L 74.25,78.875 L 74.125,79.0 L 73.75,79.0 L 73.625,79.125 L 73.125,79.125 L 73.0,79.25 L 72.625,79.25 L 72.5,79.375 L 72.25,79.375 L 72.125,79.5 L 71.75,79.5 L 71.625,79.625 L 71.375,79.625 L 71.25,79.75 L 71.0,79.75 L 70.875,79.875 L 70.625,79.875 L 70.5,80.0 L 70.125,80.0 L 70.0,80.125 L 69.75,80.125 L 69.5,79.875 L 69.5,79.625 L 69.375,79.5 L 69.375,79.25 L 69.25,79.125 L 69.25,78.875 L 69.125,78.75 L 69.125,78.625 L 69.0,78.5 L 69.0,78.125 L 68.875,78.0 L 68.875,77.375 L 68.75,77.25 L 68.75,76.875 L 68.625,76.75 L 68.625,76.0 L 68.5,75.875 L 68.5,73.75 L 68.625,73.625 L 68.625,73.5 L 70.0,72.125 L 70.125,72.125 L 70.25,72.0 L 70.25,71.875 L 70.5,71.625 L 70.5,71.5 L 70.625,71.375 L 70.625,71.25 L 70.75,71.125 L 70.75,71.0 L 70.875,70.875 L 70.875,70.75 L 71.125,70.5 L 71.125,70.375 L 71.25,70.25 L 71.25,70.125 L 71.375,70.0 L 71.375,69.75 L 71.5,69.625 L 71.5,69.5 L 71.625,69.375 L 71.625,69.25 L 71.75,69.125 L 71.75,68.875 L 71.875,68.75 L 71.875,68.625 L 72.0,68.5 L 72.0,68.375 L 72.125,68.25 L 72.125,68.0 L 72.25,67.875 L 72.25,67.75 L 72.375,67.625 L 72.375,67.375 L 72.5,67.25 L 72.5,67.125 L 72.625,67.0 L 72.625,66.875 L 72.75,66.75 L 72.75,66.625 L 72.875,66.5 L 72.875,66.25 L 73.0,66.125 L 73.0,66.0 L 73.125,65.875 L 73.125,65.75 L 73.25,65.625 L 73.25,65.5 L 73.375,65.375 L 73.375,65.125 L 73.5,65.0 L 73.5,64.875 L 73.625,64.75 L 73.625,64.625 L 73.75,64.5 L 73.75,64.25 L 73.875,64.125 L 73.875,63.875 L 74.0,63.75 L 74.0,63.625 L 74.25,63.375 L 74.375,63.375 L 74.625,63.625 L 74.75,63.625 L 74.875,63.75 L 75.0,63.75 L 75.125,63.875 L 75.25,63.875 L 75.375,64.0 L 75.5,64.0 L 75.625,64.125 L 75.75,64.125 L 75.875,64.25 L 76.25,64.25 L 76.5,64.0 L 76.5,63.75 L 76.375,63.625 L 76.375,63.5 L 76.125,63.25 L 76.0,63.25 L 75.75,63.0 L 75.625,63.0 L 75.5,62.875 L 75.375,62.875 L 75.25,62.75 L 75.125,62.75 L 74.875,62.5 L 74.875,62.25 L 76.25,60.875 L 76.25,60.75 L 76.5,60.5 L 76.5,60.375 L 78.125,58.75 L 78.25,58.75 L 78.75,58.25 L 78.875,58.25 L 79.0,58.125 L 79.375,58.5 L 79.375,58.625 L 79.625,58.875 L 79.625,59.0 L 79.875,59.25 L 79.875,59.375 L 80.125,59.625 L 80.125,59.75 L 80.25,59.875 L 80.25,60.0 L 80.375,60.125 L 80.375,60.25 L 80.625,60.5 L 80.625,60.625 L 80.875,60.875 L 80.875,61.0 L 81.125,61.25 L 81.125,61.375 L 81.5,61.75 L 81.625,61.75 L 81.75,61.875 L 81.875,61.875 L 82.0,61.75 L 82.125,61.75 L 82.25,61.625 L 82.25,61.25 L 82.125,61.125 L 82.125,61.0 L 81.875,60.75 L 81.875,60.625 L 81.625,60.375 L 81.625,60.25 L 81.375,60.0 L 81.375,59.875 L 81.125,59.625 L 81.125,59.5 L 80.875,59.25 L 80.875,59.125 L 80.75,59.0 L 80.75,58.875 L 80.625,58.75 L 80.625,58.625 L 80.375,58.375 L 80.375,58.25 L 80.125,58.0 L 80.125,57.875 L 79.875,57.625 L 79.875,57.5 L 79.375,57.0 L 78.75,57.0 L 78.25,57.5 L 78.125,57.5 L 77.5,58.125 L 77.125,58.125 L 76.0,57.0 L 75.875,57.0 L 75.125,56.25 L 75.0,56.25 L 73.5,54.75 L 73.375,54.75 L 73.125,54.5 L 73.0,54.5 L 72.875,54.375 L 72.75,54.375 L 72.5,54.125 L 72.375,54.125 L 72.125,53.875 L 72.125,53.75 L 72.25,53.625 L 72.25,53.5 L 72.625,53.125 L 72.75,53.125 L 74.375,51.5 L 74.375,51.375 L 75.0,50.75 L 75.0,50.625 L 75.5,50.125 L 75.5,49.625 L 75.375,49.5 L 75.375,49.375 L 75.25,49.25 L 75.375,49.125 L 76.0,49.125 L 76.125,49.0 L 76.375,49.0 L 76.5,48.875 L 76.75,48.875 L 76.875,48.75 L 77.125,48.75 L 77.25,48.625 L 77.375,48.625 L 77.5,48.5 L 77.75,48.5 L 77.875,48.375 L 78.0,48.375 L 78.125,48.25 L 78.25,48.25 L 78.375,48.125 L 78.5,48.125 L 78.625,48.0 L 78.75,48.0 L 78.875,47.875 L 79.25,47.875 L 79.375,47.75 L 79.5,47.75 L 79.625,47.625 L 79.875,47.625 L 80.0,47.5 L 80.125,47.5 L 80.25,47.375 L 80.375,47.375 L 80.5,47.25 L 80.625,47.25 L 80.75,47.125 L 80.875,47.125 L 81.125,46.875 L 81.25,46.875 L 81.375,46.75 L 81.5,46.75 L 81.625,46.625 L 81.75,46.625 L 81.875,46.5 L 82.0,46.5 L 82.25,46.25 L 82.375,46.25 L 82.5,46.125 L 82.625,46.125 L 82.75,46.0 L 82.875,46.0 L 83.0,45.875 L 83.25,45.875 L 83.375,45.75 L 83.5,45.75 L 83.625,45.625 L 83.75,45.625 L 83.875,45.5 L 84.0,45.5 L 84.125,45.375 L 84.375,45.375 L 84.5,45.5 L 84.5,45.625 L 84.625,45.75 L 84.625,46.0 L 84.75,46.125 L 84.75,46.25 L 84.875,46.375 L 84.875,46.75 L 85.0,46.875 L 85.0,47.0 L 85.125,47.125 L 85.125,47.25 L 85.25,47.375 L 85.25,47.5 L 85.5,47.75 L 85.5,47.875 L 85.75,48.125 L 85.75,48.25 L 86.0,48.5 L 86.0,48.625 L 86.25,48.875 L 86.25,49.0 L 86.5,49.25 L 86.5,49.5 L 86.625,49.625 L 86.625,49.75 L 86.75,49.875 L 86.75,50.0 L 86.875,50.125 L 86.875,50.25 L 87.0,50.375 L 87.0,50.5 L 87.125,50.625 L 87.125,50.75 L 87.25,50.875 L 87.25,51.0 L 87.375,51.125 L 87.375,51.25 L 87.625,51.5 L 87.625,51.625 L 87.75,51.75 L 87.75,51.875 L 88.125,52.25 L 88.125,52.375 L 88.625,52.875 L 88.625,53.0 L 88.75,53.125 L 88.75,53.375 L 87.5,54.625 L 87.5,54.75 L 87.375,54.875 L 87.375,55.0 L 87.5,55.125 L 87.5,55.25 L 87.625,55.25 L 87.75,55.375 L 87.875,55.375 L 88.0,55.25 L 88.125,55.25 L 89.25,54.125 L 89.375,54.125 L 89.5,54.0 L 89.625,54.125 L 89.75,54.125 L 90.125,54.5 L 90.125,54.625 L 91.0,55.5 L 91.125,55.5 L 91.25,55.625 L 92.25,55.625 L 92.375,55.75 L 93.125,55.75 L 93.25,55.875 L 94.375,55.875 L 94.5,56.0 L 95.625,56.0 L 96.0,56.375 L 96.0,56.5 L 96.125,56.625 L 96.125,56.875 L 96.25,57.0 L 96.25,57.125 L 96.375,57.25 L 96.375,57.5 L 96.5,57.625 L 96.5,57.75 L 96.625,57.875 L 96.625,58.0 L 96.875,58.25 L 97.5,58.25 L 97.75,58.0 L 97.75,57.375 L 97.625,57.25 L 97.625,57.125 L 97.5,57.0 L 97.5,56.875 L 97.375,56.75 L 97.375,56.625 L 97.25,56.5 L 97.25,56.375 L 97.125,56.25 L 97.125,56.125 L 97.0,56.0 L 97.0,55.875 L 96.875,55.75 L 96.875,55.625 L 96.375,55.125 L 96.125,55.125 L 96.0,55.0 L 94.75,55.0 L 94.625,54.875 L 94.25,54.875 L 94.125,54.75 L 94.125,54.625 L 93.75,54.25 L 93.125,54.25 L 93.0,54.375 L 92.375,54.375 L 92.25,54.5 L 91.375,54.5 L 91.25,54.375 L 91.125,54.375 L 91.0,54.25 L 91.0,54.125 L 89.875,53.0 L 89.875,52.875 L 89.375,52.375 L 89.375,52.25 L 88.875,51.75 L 88.875,51.625 L 88.375,51.125 L 88.375,51.0 L 88.25,50.875 L 88.25,50.625 L 88.125,50.5 L 88.125,50.375 L 88.0,50.25 L 88.0,50.125 L 87.875,50.0 L 87.875,49.875 L 87.75,49.75 L 87.75,49.625 L 87.625,49.5 L 87.625,49.375 L 87.5,49.25 L 87.5,49.125 L 87.25,48.875 L 87.25,48.75 L 87.125,48.625 L 87.125,48.5 L 87.0,48.375 L 87.0,48.25 L 86.75,48.0 L 86.75,47.875 L 86.5,47.625 L 86.5,47.5 L 86.25,47.25 L 86.25,47.125 L 86.0,46.875 L 86.0,46.625 L 85.875,46.5 L 85.875,46.375 L 85.75,46.25 L 85.75,46.0 L 85.625,45.875 L 85.625,45.5 L 85.5,45.375 L 85.5,45.0 L 85.625,44.875 L 86.0,44.875 L 86.125,44.75 L 86.5,44.75 L 86.625,44.625 L 87.0,44.625 L 87.125,44.5 L 87.75,44.5 L 87.875,44.375 L 88.375,44.375 L 88.5,44.25 L 89.375,44.25 L 89.5,44.125 L 90.375,44.125 L 90.5,44.0 L 91.375,44.0 L 91.5,43.875 L 92.125,43.875 L 92.5,43.5 L 92.5,43.25 L 92.125,42.875 L 91.625,42.875 L 91.5,43.0 L 90.25,43.0 L 90.125,43.125 L 89.25,43.125 L 89.125,43.25 L 88.5,43.25 L 88.375,43.375 L 87.625,43.375 L 87.5,43.5 L 86.875,43.5 L 86.75,43.625 L 86.375,43.625 L 86.25,43.75 L 85.875,43.75 L 85.75,43.875 L 85.375,43.875 L 85.25,44.0 L 84.875,43.625 L 84.875,43.375 L 84.75,43.25 L 84.75,43.0 L 84.625,42.875 L 84.625,42.625 L 84.5,42.5 L 84.5,42.25 L 84.375,42.125 L 84.375,41.625 L 84.25,41.5 L 84.25,41.125 L 84.125,41.0 L 84.125,40.625 L 84.0,40.5 L 84.0,39.75 L 83.875,39.625 L 83.875,36.125 L 83.75,36.0 L 83.75,34.875 L 83.625,34.75 L 83.625,32.875 L 83.5,32.75 L 83.5,30.625 L 83.375,30.5 L 83.375,29.875 L 83.5,29.75 L 83.625,29.75 L 83.75,29.875 L 83.875,29.875 L 84.0,30.0 L 85.375,30.0 L 85.5,29.875 L 86.625,29.875 L 86.75,30.0 L 87.25,30.0 L 87.375,30.125 L 88.0,30.125 L 88.125,30.25 L 88.5,30.25 L 88.625,30.375 L 88.875,30.375 L 89.25,30.75 L 89.375,30.75 L 90.0,31.375 L 90.125,31.375 L 90.75,32.0 L 90.875,32.0 L 91.125,32.25 L 91.25,32.25 L 91.625,32.625 L 91.75,32.625 L 92.5,33.375 L 92.5,33.5 L 92.625,33.625 L 92.625,33.875 L 92.75,34.0 L 92.75,34.125 L 92.875,34.25 L 92.875,34.5 L 93.0,34.625 L 93.0,34.75 L 93.125,34.875 L 93.125,35.125 L 93.25,35.25 L 93.25,35.5 L 93.375,35.625 L 93.375,36.0 L 93.5,36.125 L 93.5,36.625 L 93.625,36.75 L 93.625,37.125 L 93.75,37.25 L 93.75,37.625 L 93.875,37.75 L 93.875,38.125 L 94.0,38.25 L 94.0,38.625 L 94.125,38.75 L 94.125,39.0 L 94.25,39.125 L 94.25,39.5 L 94.375,39.625 L 94.375,39.875 L 94.5,40.0 L 94.5,40.375 L 94.625,40.5 L 94.625,40.875 L 94.75,41.0 L 94.75,41.375 L 94.875,41.5 L 94.875,41.75 L 95.0,41.875 L 95.0,42.625 L 94.875,42.75 L 94.875,42.875 L 94.625,43.125 L 94.625,43.25 L 94.375,43.5 L 94.375,43.625 L 94.125,43.875 L 94.125,44.0 L 94.0,44.125 L 94.0,44.25 L 93.875,44.375 L 93.875,44.875 L 94.0,45.0 L 94.0,45.125 L 94.125,45.25 L 94.125,45.375 L 94.25,45.5 L 94.25,45.625 L 94.5,45.875 L 94.5,46.125 L 94.625,46.25 L 94.625,46.375 L 94.875,46.625 L 94.875,46.75 L 95.0,46.875 L 95.0,47.625 L 94.875,47.75 L 94.875,48.5 L 94.75,48.625 L 94.75,49.75 L 94.875,49.875 L 94.875,50.625 L 95.0,50.75 L 95.0,51.375 L 95.125,51.5 L 95.125,51.75 L 95.25,51.875 L 95.25,52.0 L 95.375,52.0 L 95.5,52.125 L 96.0,52.125 L 96.25,51.875 L 96.375,51.875 L 96.75,51.5 L 96.875,51.5 L 97.125,51.25 L 97.375,51.25 L 97.75,50.875 L 97.75,50.75 L 97.875,50.625 L 97.875,50.5 L 98.0,50.375 L 98.0,50.25 L 97.875,50.125 L 97.875,50.0 L 97.75,50.0 L 97.625,49.875 L 97.5,49.875 L 97.375,50.0 L 97.0,50.0 L 96.875,49.875 L 96.75,49.875 L 96.5,49.625 L 96.375,49.625 L 95.75,49.0 L 95.75,48.875 L 95.875,48.75 L 95.875,48.0 L 96.0,47.875 L 96.0,46.75 L 95.875,46.625 L 95.875,46.375 L 95.625,46.125 L 95.625,46.0 L 95.5,45.875 L 95.5,45.75 L 95.25,45.5 L 95.25,45.25 L 95.125,45.125 L 95.125,45.0 L 95.25,44.875 L 95.25,44.625 L 95.375,44.5 L 95.375,44.375 L 95.5,44.25 L 95.5,44.125 L 95.625,44.0 L 95.625,43.75 L 95.75,43.625 L 95.75,43.5 L 95.875,43.375 L 95.875,43.25 L 96.0,43.125 L 96.0,41.875 L 95.875,41.75 L 95.875,41.25 L 95.75,41.125 L 95.75,40.75 L 95.625,40.625 L 95.625,40.25 L 95.5,40.125 L 95.5,39.75 L 95.375,39.625 L 95.375,39.375 L 95.25,39.25 L 95.25,38.875 L 95.125,38.75 L 95.125,38.5 L 95.0,38.375 L 95.0,38.0 L 94.875,37.875 L 94.875,37.5 L 94.75,37.375 L 94.75,37.0 L 94.625,36.875 L 94.625,36.5 L 94.5,36.375 L 94.5,36.125 L 94.375,36.0 L 94.375,35.5 L 94.25,35.375 L 94.25,35.0 L 94.125,34.875 L 94.125,34.625 L 94.0,34.5 L 94.0,34.375 L 93.875,34.25 L 93.875,34.0 L 93.75,33.875 L 93.75,33.75 L 93.625,33.625 L 93.625,33.375 L 93.5,33.25 L 93.5,33.125 L 93.375,33.0 L 93.375,32.875 L 92.375,31.875 L 92.25,31.875 L 92.0,31.625 L 91.875,31.625 L 91.625,31.375 L 91.5,31.375 L 90.875,30.75 L 90.75,30.75 L 90.125,30.125 L 90.0,30.125 L 89.5,29.625 L 89.375,29.625 L 89.25,29.5 L 89.125,29.5 L 89.0,29.375 L 88.625,29.375 L 88.5,29.25 L 88.125,29.25 L 88.0,29.125 L 87.625,29.125 L 87.5,29.0 L 87.0,29.0 L 86.875,28.875 L 85.5,28.875 L 85.375,29.0 L 84.375,29.0 L 84.125,28.75 L 84.125,28.625 L 84.0,28.5 L 84.0,28.375 L 83.875,28.25 L 83.875,28.125 L 83.75,28.0 L 83.75,27.875 L 83.625,27.75 L 83.625,27.625 L 83.5,27.5 L 83.5,27.25 L 83.375,27.125 L 83.375,26.375 L 83.5,26.25 L 83.5,24.375 L 83.625,24.25 L 83.625,23.0 L 83.75,22.875 L 83.75,21.875 L 83.875,21.75 L 83.875,21.125 L 84.0,21.0 L 84.0,20.375 L 84.125,20.25 L 84.125,19.625 L 84.25,19.5 L 84.25,18.625 L 84.375,18.5 L 84.375,18.0 L 84.5,17.875 L 84.5,17.25 L 84.625,17.125 L 84.625,16.375 L 84.75,16.25 L 84.75,15.375 L 84.875,15.25 L 84.875,14.375 L 85.0,14.25 L 85.0,12.875 L 85.125,12.75 L 85.125,7.125 L 85.25,7.0 L 85.25,6.125 L 85.375,6.0 L 85.375,5.75 L 85.5,5.625 L 85.875,5.625 L 86.0,5.75 L 86.5,5.75 L 86.625,5.875 L 87.0,5.875 L 87.125,6.0 L 87.5,6.0 L 87.625,6.125 L 87.875,6.125 L 88.0,6.25 L 88.25,6.25 L 88.375,6.375 L 88.75,6.375 L 88.875,6.5 L 89.125,6.5 L 89.25,6.625 L 89.5,6.625 L 89.625,6.75 L 89.75,6.75 L 89.875,6.875 L 90.0,6.875 L 90.125,7.0 L 90.25,7.0 L 90.375,7.125 L 90.5,7.125 L 90.625,7.25 L 90.75,7.25 L 90.875,7.375 L 91.0,7.375 L 91.125,7.5 L 91.25,7.5 L 91.375,7.625 L 91.5,7.625 L 91.75,7.875 L 91.875,7.875 L 92.375,8.375 L 92.5,8.375 L 93.0,8.875 L 93.125,8.875 L 93.375,9.125 L 93.5,9.125 L 93.75,9.375 L 93.875,9.375 L 94.0,9.5 L 94.125,9.5 L 94.25,9.625 L 94.375,9.625 L 94.5,9.75 L 94.625,9.75 L 94.875,10.0 L 95.0,10.0 L 95.125,10.125 L 95.25,10.125 L 95.375,10.25 L 95.5,10.25 L 95.625,10.375 L 95.75,10.375 L 96.25,10.875 L 96.25,11.0 L 96.375,11.125 L 96.375,11.25 L 96.5,11.375 L 96.5,11.5 L 96.75,11.75 L 96.75,11.875 L 97.0,12.125 L 97.0,12.375 L 97.125,12.5 L 97.125,13.25 L 97.25,13.375 L 97.25,14.5 L 97.375,14.625 L 97.375,15.125 L 97.5,15.25 L 97.5,15.75 L 97.625,15.875 L 97.625,16.25 L 97.75,16.375 L 97.75,16.75 L 97.875,16.875 L 97.875,17.5 L 97.75,17.625 L 97.75,18.75 L 97.625,18.875 L 97.625,20.0 L 97.5,20.125 L 97.5,20.75 L 97.375,20.875 L 97.375,21.5 L 97.25,21.625 L 97.25,26.625 L 97.125,26.75 L 97.125,26.875 L 96.875,27.125 L 96.75,27.125 L 96.375,27.5 L 96.25,27.5 L 95.875,27.875 L 95.75,27.875 L 95.5,28.125 L 95.5,28.25 L 95.375,28.375 L 95.375,28.625 L 95.625,28.875 L 96.0,28.875 L 96.125,28.75 L 96.25,28.75 L 96.5,28.5 L 96.625,28.5 L 97.0,28.125 L 97.125,28.125 L 97.5,27.75 L 97.625,27.75 L 98.125,27.25 L 98.125,27.125 L 98.25,27.0 L 98.25,21.875 L 98.375,21.75 L 98.375,21.125 L 98.5,21.0 L 98.5,20.0 L 98.625,19.875 L 98.625,19.125 L 98.75,19.0 L 98.75,17.875 L 98.875,17.75 L 98.875,16.75 L 98.75,16.625 L 98.75,16.125 L 98.625,16.0 L 98.625,15.625 L 98.5,15.5 L 98.5,15.0 L 98.375,14.875 L 98.375,14.375 L 98.25,14.25 L 98.25,13.5 L 98.125,13.375 L 98.125,12.375 L 98.0,12.25 L 98.0,12.0 L 97.875,11.875 L 97.875,11.75 L 97.75,11.625 L 97.75,11.5 L 97.5,11.25 L 97.5,11.125 L 97.25,10.875 L 97.25,10.75 L 97.0,10.5 L 97.0,10.375 L 96.875,10.25 L 96.875,10.125 L 96.25,9.5 L 96.125,9.5 L 96.0,9.375 L 95.875,9.375 L 95.75,9.25 L 95.625,9.25 L 95.5,9.125 L 95.375,9.125 L 95.25,9.0 L 95.125,9.0 L 94.875,8.75 L 94.875,8.5 L 95.125,8.25 L 95.125,8.125 L 95.375,7.875 L 95.375,7.75 L 95.625,7.5 L 95.625,7.375 L 96.0,7.0 L 96.0,6.875 L 96.25,6.625 L 96.25,6.5 L 96.625,6.125 L 96.625,6.0 L 97.0,5.625 L 97.0,5.5 L 97.25,5.25 L 97.25,5.125 L 97.5,4.875 L 97.5,4.75 L 97.625,4.625 L 97.625,4.5 L 97.875,4.25 L 97.875,4.125 L 98.0,4.0 L 98.0,3.875 L 98.125,3.75 L 98.125,3.625 L 98.25,3.5 L 98.25,3.375 L 98.375,3.25 L 98.375,3.125 L 98.5,3.0 L 98.5,2.875 L 98.625,2.75 L 98.625,2.625 L 98.875,2.375 L 98.875,2.25 L 99.25,1.875 z M 70.75,0.5 L 98.625,0.5 L 98.75,0.625 L 98.75,0.875 L 98.5,1.125 L 98.5,1.25 L 98.25,1.5 L 98.25,1.625 L 97.875,2.0 L 97.875,2.125 L 97.75,2.25 L 97.75,2.375 L 97.625,2.5 L 97.625,2.625 L 97.5,2.75 L 97.5,2.875 L 97.25,3.125 L 97.25,3.25 L 97.125,3.375 L 97.125,3.5 L 97.0,3.625 L 97.0,3.75 L 96.875,3.875 L 96.875,4.0 L 96.625,4.25 L 96.625,4.375 L 96.5,4.5 L 96.5,4.625 L 96.25,4.875 L 96.25,5.0 L 96.0,5.25 L 96.0,5.375 L 95.625,5.75 L 95.625,5.875 L 95.25,6.25 L 95.25,6.375 L 95.0,6.625 L 95.0,6.75 L 94.875,6.875 L 94.875,7.0 L 94.375,7.5 L 94.375,7.625 L 93.875,8.125 L 93.625,8.125 L 93.125,7.625 L 93.0,7.625 L 92.625,7.25 L 92.5,7.25 L 92.125,6.875 L 92.0,6.875 L 91.75,6.625 L 91.625,6.625 L 91.5,6.5 L 91.25,6.5 L 91.125,6.375 L 91.0,6.375 L 90.875,6.25 L 90.75,6.25 L 90.5,6.0 L 90.375,6.0 L 90.25,5.875 L 90.125,5.875 L 90.0,5.75 L 89.875,5.75 L 89.75,5.625 L 89.5,5.625 L 89.375,5.5 L 89.125,5.5 L 89.0,5.375 L 88.625,5.375 L 88.5,5.25 L 88.25,5.25 L 88.125,5.125 L 87.875,5.125 L 87.75,5.0 L 87.375,5.0 L 87.25,4.875 L 86.875,4.875 L 86.75,4.75 L 86.25,4.75 L 86.125,4.625 L 85.75,4.625 L 85.625,4.5 L 85.5,4.5 L 85.375,4.375 L 85.375,3.375 L 85.25,3.25 L 85.25,2.5 L 85.125,2.375 L 85.125,2.25 L 84.875,2.0 L 84.75,2.0 L 84.625,1.875 L 84.375,1.875 L 84.25,1.75 L 83.5,1.75 L 83.375,1.625 L 83.0,1.625 L 82.875,1.5 L 80.75,1.5 L 80.625,1.625 L 79.375,1.625 L 79.25,1.75 L 78.25,1.75 L 78.125,1.875 L 77.375,1.875 L 77.25,2.0 L 77.125,2.0 L 76.875,2.25 L 76.875,2.5 L 77.125,2.75 L 77.25,2.75 L 77.375,2.875 L 78.375,2.875 L 78.5,2.75 L 79.5,2.75 L 79.625,2.625 L 80.75,2.625 L 80.875,2.5 L 82.625,2.5 L 82.75,2.625 L 83.5,2.625 L 83.625,2.75 L 84.0,2.75 L 84.25,3.0 L 84.25,3.5 L 84.375,3.625 L 84.375,5.75 L 84.25,5.875 L 84.25,6.625 L 84.125,6.75 L 83.25,6.75 L 83.125,6.625 L 80.875,6.625 L 80.75,6.75 L 80.0,6.75 L 79.875,6.875 L 79.5,6.875 L 79.375,7.0 L 79.125,7.0 L 79.0,7.125 L 78.875,7.125 L 78.75,7.25 L 78.625,7.25 L 78.5,7.375 L 78.375,7.375 L 78.25,7.5 L 78.125,7.5 L 78.0,7.625 L 77.875,7.625 L 77.75,7.75 L 77.625,7.75 L 77.5,7.875 L 77.375,7.875 L 77.25,8.0 L 77.125,8.0 L 76.875,8.25 L 76.875,8.375 L 76.625,8.625 L 76.625,8.75 L 76.0,9.375 L 76.0,9.5 L 74.125,11.375 L 74.0,11.375 L 73.75,11.625 L 73.75,11.75 L 73.625,11.875 L 73.625,12.0 L 73.5,12.125 L 73.5,12.375 L 73.375,12.5 L 73.375,12.875 L 73.25,13.0 L 73.25,13.5 L 73.125,13.625 L 73.125,14.125 L 73.0,14.25 L 73.0,15.125 L 72.875,15.25 L 72.875,16.0 L 72.75,16.125 L 72.75,16.875 L 72.625,17.0 L 72.625,17.125 L 72.5,17.25 L 72.5,17.375 L 72.375,17.5 L 72.375,17.625 L 72.25,17.75 L 72.25,17.875 L 72.125,18.0 L 72.125,18.125 L 72.0,18.25 L 72.0,18.375 L 71.875,18.5 L 71.875,18.625 L 71.75,18.75 L 71.75,19.0 L 71.625,19.125 L 71.625,19.75 L 71.75,19.875 L 71.75,20.375 L 71.875,20.5 L 71.875,20.875 L 72.0,21.0 L 72.0,21.375 L 72.125,21.5 L 72.125,22.0 L 72.25,22.125 L 72.25,23.0 L 72.375,23.125 L 72.375,23.75 L 72.5,23.875 L 72.5,24.5 L 72.625,24.625 L 72.625,25.125 L 72.75,25.25 L 72.75,25.875 L 72.875,26.0 L 72.875,26.625 L 73.0,26.75 L 73.0,28.875 L 72.875,29.0 L 72.875,29.125 L 72.75,29.25 L 72.75,29.375 L 72.625,29.5 L 72.625,29.625 L 72.375,29.875 L 72.375,30.0 L 72.125,30.25 L 72.125,30.375 L 72.0,30.5 L 72.0,30.625 L 71.75,30.875 L 71.75,31.0 L 71.375,31.375 L 71.375,31.5 L 70.75,32.125 L 70.625,32.125 L 70.5,32.0 L 70.5,0.75 L 70.75,0.5 z M 0.75,0.5 L 29.25,0.5 L 29.5,0.75 L 29.5,70.0 L 29.625,70.125 L 29.625,70.25 L 29.75,70.375 L 29.875,70.375 L 30.0,70.5 L 35.375,70.5 L 35.5,70.625 L 35.5,70.875 L 35.625,71.0 L 35.625,71.125 L 35.75,71.125 L 36.0,71.375 L 36.25,71.375 L 36.375,71.5 L 36.5,71.5 L 36.625,71.625 L 36.875,71.625 L 37.0,71.75 L 37.125,71.75 L 37.25,71.875 L 37.5,71.875 L 37.625,72.0 L 37.75,72.0 L 38.0,72.25 L 38.125,72.25 L 38.875,73.0 L 38.875,73.125 L 39.375,73.625 L 39.375,73.75 L 39.75,74.125 L 39.75,74.25 L 40.125,74.625 L 40.125,74.75 L 40.375,75.0 L 40.375,75.125 L 40.625,75.375 L 40.625,75.5 L 41.0,75.875 L 41.0,76.0 L 41.375,76.375 L 41.375,76.5 L 41.625,76.75 L 41.625,76.875 L 42.125,77.375 L 42.125,77.5 L 42.5,77.875 L 42.5,78.0 L 42.625,78.125 L 42.625,78.25 L 42.75,78.375 L 42.75,78.5 L 42.875,78.625 L 42.875,78.75 L 43.0,78.875 L 43.0,79.0 L 43.125,79.125 L 43.125,79.25 L 43.25,79.375 L 43.25,79.5 L 43.375,79.625 L 43.375,79.75 L 43.5,79.875 L 43.5,80.0 L 43.625,80.125 L 43.625,80.25 L 43.75,80.375 L 43.75,80.5 L 43.875,80.625 L 43.875,80.75 L 44.0,80.875 L 44.0,81.0 L 44.25,81.25 L 44.25,81.375 L 44.375,81.5 L 44.375,81.625 L 44.5,81.75 L 44.5,82.0 L 44.625,82.125 L 44.625,82.375 L 44.5,82.5 L 44.5,83.75 L 44.25,84.0 L 43.625,84.0 L 43.5,83.875 L 40.875,83.875 L 40.75,83.75 L 38.75,83.75 L 38.625,83.625 L 36.375,83.625 L 36.25,83.5 L 33.25,83.5 L 33.0,83.25 L 33.0,81.375 L 32.875,81.25 L 32.875,81.125 L 32.75,81.0 L 32.75,80.875 L 32.5,80.625 L 32.5,80.5 L 32.375,80.375 L 32.375,80.25 L 32.25,80.125 L 32.25,80.0 L 32.0,79.75 L 32.0,79.625 L 31.75,79.375 L 31.75,79.25 L 31.375,78.875 L 31.375,78.75 L 31.0,78.375 L 31.0,78.25 L 30.625,77.875 L 30.625,77.75 L 30.5,77.625 L 30.5,77.375 L 30.75,77.125 L 30.875,77.125 L 31.375,76.625 L 31.5,76.625 L 31.625,76.5 L 32.125,76.5 L 32.25,76.375 L 32.375,76.375 L 32.875,75.875 L 33.0,75.875 L 33.875,75.0 L 33.875,74.875 L 34.125,74.625 L 34.125,74.25 L 33.875,74.0 L 33.375,74.0 L 33.25,74.125 L 33.125,74.125 L 33.0,74.25 L 32.875,74.25 L 32.5,74.625 L 32.375,74.625 L 31.625,75.375 L 31.5,75.375 L 31.25,75.625 L 31.125,75.625 L 30.875,75.875 L 30.75,75.875 L 30.25,76.375 L 30.125,76.375 L 30.0,76.5 L 29.75,76.5 L 29.5,76.25 L 29.5,76.125 L 29.375,76.0 L 29.375,75.875 L 29.25,75.75 L 29.25,75.625 L 29.0,75.375 L 29.0,75.25 L 28.625,74.875 L 28.625,74.75 L 28.0,74.125 L 28.0,74.0 L 27.5,73.5 L 27.5,73.375 L 27.25,73.125 L 27.25,73.0 L 27.125,72.875 L 27.125,72.75 L 26.875,72.5 L 26.875,72.375 L 26.75,72.25 L 26.75,72.125 L 26.5,71.875 L 26.5,71.75 L 26.375,71.625 L 26.375,71.5 L 26.125,71.25 L 26.125,71.125 L 26.0,71.0 L 26.0,70.875 L 25.75,70.625 L 25.75,70.5 L 25.5,70.25 L 25.5,70.125 L 25.375,70.0 L 25.375,69.875 L 25.125,69.625 L 25.125,69.5 L 25.0,69.375 L 25.0,69.25 L 24.75,69.0 L 24.75,68.875 L 24.625,68.75 L 24.625,68.625 L 24.375,68.375 L 24.375,68.25 L 24.25,68.125 L 24.25,68.0 L 24.0,67.75 L 24.0,67.625 L 23.875,67.5 L 23.875,67.375 L 23.75,67.25 L 23.75,67.125 L 23.5,66.875 L 23.5,66.75 L 23.375,66.625 L 23.375,66.5 L 23.25,66.375 L 23.25,66.25 L 23.125,66.125 L 23.125,66.0 L 23.0,65.875 L 23.0,65.625 L 22.875,65.5 L 22.875,65.375 L 22.75,65.25 L 22.75,65.125 L 22.625,65.0 L 22.625,64.5 L 22.875,64.25 L 22.875,64.125 L 23.625,63.375 L 23.625,63.25 L 23.75,63.125 L 23.75,63.0 L 23.875,62.875 L 23.875,62.75 L 23.75,62.625 L 23.75,62.5 L 23.625,62.5 L 23.5,62.375 L 23.375,62.375 L 23.25,62.5 L 23.125,62.5 L 22.5,63.125 L 22.5,63.25 L 22.375,63.375 L 22.25,63.375 L 22.125,63.25 L 22.125,63.125 L 22.0,63.0 L 22.0,62.375 L 21.875,62.25 L 21.875,61.875 L 22.0,61.75 L 22.0,61.0 L 22.125,60.875 L 22.125,59.875 L 22.25,59.75 L 22.25,58.875 L 22.125,58.75 L 22.125,57.25 L 22.375,57.0 L 22.375,56.875 L 23.0,56.25 L 23.0,56.125 L 23.625,55.5 L 23.875,55.5 L 24.0,55.375 L 24.25,55.375 L 24.375,55.25 L 24.625,55.25 L 24.75,55.125 L 25.0,55.125 L 25.125,55.0 L 25.375,55.0 L 25.5,54.875 L 25.75,54.875 L 25.875,54.75 L 26.0,54.75 L 26.125,54.625 L 26.375,54.625 L 26.5,54.5 L 26.75,54.5 L 26.875,54.375 L 27.0,54.375 L 27.125,54.25 L 27.375,54.25 L 27.5,54.125 L 27.625,54.125 L 28.0,54.5 L 28.125,54.5 L 28.25,54.625 L 28.5,54.625 L 28.75,54.375 L 28.75,53.875 L 28.625,53.75 L 28.625,53.625 L 28.5,53.5 L 28.5,53.375 L 28.375,53.25 L 28.375,53.125 L 28.25,53.0 L 28.25,52.75 L 28.125,52.625 L 28.125,52.5 L 28.0,52.375 L 28.0,52.25 L 27.875,52.125 L 27.875,52.0 L 27.75,51.875 L 27.75,51.75 L 27.625,51.625 L 27.625,51.375 L 27.5,51.25 L 27.5,51.125 L 27.375,51.0 L 27.375,50.75 L 27.25,50.625 L 27.25,50.5 L 27.125,50.375 L 27.125,50.125 L 27.0,50.0 L 27.0,49.875 L 26.875,49.75 L 26.875,49.625 L 26.75,49.5 L 26.75,49.375 L 26.625,49.25 L 26.625,49.0 L 26.5,48.875 L 26.5,48.75 L 26.375,48.625 L 26.375,48.5 L 26.25,48.375 L 26.25,48.25 L 26.0,48.0 L 26.0,47.875 L 25.875,47.75 L 25.875,47.625 L 25.75,47.5 L 25.75,47.375 L 25.625,47.25 L 25.625,47.125 L 25.5,47.0 L 25.5,46.875 L 25.25,46.625 L 25.25,46.5 L 25.125,46.375 L 25.125,46.25 L 25.0,46.125 L 25.0,45.875 L 24.875,45.75 L 24.875,45.625 L 24.625,45.375 L 24.625,45.25 L 22.75,43.375 L 22.625,43.375 L 22.25,43.0 L 22.125,43.0 L 22.0,42.875 L 21.875,42.875 L 21.75,42.75 L 21.625,42.75 L 21.5,42.625 L 21.375,42.625 L 21.25,42.5 L 21.125,42.5 L 21.0,42.375 L 20.875,42.375 L 20.75,42.25 L 20.625,42.25 L 20.5,42.125 L 20.25,42.125 L 20.125,42.0 L 19.625,42.0 L 19.5,41.875 L 19.0,41.875 L 18.875,41.75 L 18.375,41.75 L 18.125,41.5 L 18.125,40.875 L 18.25,40.75 L 18.25,40.25 L 18.375,40.125 L 18.375,39.375 L 18.5,39.25 L 18.5,37.75 L 18.625,37.625 L 18.625,35.875 L 18.5,35.75 L 18.5,34.25 L 18.375,34.125 L 18.375,33.375 L 18.25,33.25 L 18.25,32.875 L 18.375,32.75 L 20.375,32.75 L 20.5,32.875 L 20.875,32.875 L 21.0,33.0 L 21.25,33.0 L 21.375,33.125 L 21.75,33.125 L 21.875,33.25 L 22.25,33.25 L 22.375,33.375 L 22.625,33.375 L 22.75,33.5 L 23.125,33.5 L 23.25,33.625 L 23.5,33.625 L 23.625,33.75 L 23.875,33.75 L 24.0,33.875 L 24.375,33.875 L 24.5,34.0 L 24.625,34.0 L 25.125,34.5 L 25.125,34.625 L 25.5,35.0 L 25.5,35.125 L 25.75,35.375 L 25.75,35.5 L 26.0,35.75 L 26.0,35.875 L 26.125,36.0 L 26.125,36.25 L 26.25,36.375 L 26.25,36.5 L 26.375,36.625 L 26.375,36.75 L 26.5,36.875 L 26.5,37.0 L 26.75,37.25 L 26.75,37.375 L 26.875,37.5 L 26.875,37.625 L 27.0,37.75 L 27.0,38.875 L 27.125,39.0 L 27.125,42.125 L 27.25,42.25 L 27.25,42.875 L 27.375,43.0 L 27.375,43.25 L 27.5,43.375 L 27.5,43.625 L 27.625,43.75 L 27.625,43.875 L 27.75,44.0 L 27.75,44.125 L 27.875,44.25 L 27.875,44.375 L 28.0,44.5 L 28.0,44.625 L 28.125,44.75 L 28.125,44.875 L 28.375,45.125 L 28.375,45.25 L 28.5,45.25 L 28.625,45.375 L 28.875,45.375 L 29.125,45.125 L 29.125,44.5 L 29.0,44.375 L 29.0,44.25 L 28.875,44.125 L 28.875,44.0 L 28.75,43.875 L 28.75,43.75 L 28.625,43.625 L 28.625,43.5 L 28.5,43.375 L 28.5,43.125 L 28.375,43.0 L 28.375,42.875 L 28.25,42.75 L 28.25,42.0 L 28.125,41.875 L 28.125,38.75 L 28.0,38.625 L 28.0,37.625 L 27.875,37.5 L 27.875,37.25 L 27.75,37.125 L 27.75,37.0 L 27.5,36.75 L 27.5,36.625 L 27.375,36.5 L 27.375,36.375 L 27.25,36.25 L 27.25,36.125 L 27.125,36.0 L 27.125,35.875 L 27.0,35.75 L 27.0,35.625 L 26.875,35.5 L 26.875,35.375 L 26.75,35.25 L 26.75,35.125 L 26.5,34.875 L 26.5,34.75 L 26.125,34.375 L 26.125,34.25 L 25.75,33.875 L 25.75,33.75 L 25.125,33.125 L 25.0,33.125 L 24.875,33.0 L 24.75,33.0 L 24.625,32.875 L 24.25,32.875 L 24.125,32.75 L 23.875,32.75 L 23.75,32.625 L 23.5,32.625 L 23.375,32.5 L 23.0,32.5 L 22.875,32.375 L 22.625,32.375 L 22.5,32.25 L 22.125,32.25 L 22.0,32.125 L 21.625,32.125 L 21.5,32.0 L 21.25,32.0 L 21.125,31.875 L 20.75,31.875 L 20.625,31.75 L 18.25,31.75 L 18.0,31.5 L 18.0,31.125 L 17.875,31.0 L 17.875,30.375 L 17.75,30.25 L 17.75,29.75 L 17.625,29.625 L 17.625,29.25 L 17.5,29.125 L 17.5,28.875 L 17.375,28.75 L 17.375,28.5 L 17.25,28.375 L 17.25,28.125 L 17.125,28.0 L 17.125,27.75 L 17.0,27.625 L 17.0,27.375 L 16.875,27.25 L 16.875,26.875 L 16.75,26.75 L 16.75,26.375 L 16.625,26.25 L 16.625,25.5 L 16.75,25.375 L 18.625,25.375 L 18.75,25.5 L 19.75,25.5 L 19.875,25.625 L 20.5,25.625 L 20.625,25.75 L 22.625,25.75 L 22.75,25.875 L 22.75,26.625 L 22.625,26.75 L 22.625,29.875 L 22.75,30.0 L 22.75,30.25 L 23.125,30.625 L 23.375,30.625 L 23.625,30.375 L 23.625,30.25 L 23.75,30.125 L 23.75,30.0 L 23.625,29.875 L 23.625,27.0 L 23.75,26.875 L 23.75,25.875 L 23.875,25.75 L 23.875,25.375 L 23.75,25.25 L 23.75,25.125 L 23.625,25.0 L 23.5,25.0 L 23.375,24.875 L 23.125,24.875 L 23.0,24.75 L 20.875,24.75 L 20.75,24.625 L 19.75,24.625 L 19.625,24.5 L 19.0,24.5 L 18.875,24.375 L 16.5,24.375 L 16.375,24.25 L 16.375,24.125 L 16.25,24.0 L 16.25,23.0 L 16.125,22.875 L 16.125,21.25 L 16.0,21.125 L 16.0,19.875 L 15.875,19.75 L 15.875,17.875 L 15.75,17.75 L 15.75,15.75 L 15.625,15.625 L 15.875,15.375 L 16.25,15.375 L 16.375,15.25 L 17.75,15.25 L 17.875,15.125 L 18.25,15.125 L 18.375,15.0 L 18.75,15.0 L 18.875,14.875 L 19.375,14.875 L 19.5,14.75 L 19.75,14.75 L 19.875,14.625 L 20.375,14.625 L 20.5,14.5 L 20.875,14.5 L 21.0,14.375 L 21.25,14.375 L 21.375,14.25 L 21.625,14.25 L 21.75,14.125 L 22.125,14.125 L 22.375,14.375 L 22.375,14.5 L 22.5,14.625 L 22.5,14.75 L 22.625,14.875 L 22.625,15.0 L 22.75,15.125 L 22.75,15.25 L 22.875,15.375 L 22.875,15.5 L 23.0,15.625 L 23.0,15.875 L 23.125,16.0 L 23.125,16.375 L 23.25,16.5 L 23.25,16.75 L 23.375,16.875 L 23.375,17.25 L 23.5,17.375 L 23.5,17.875 L 23.625,18.0 L 23.625,18.375 L 23.75,18.5 L 23.75,19.0 L 23.875,19.125 L 23.875,19.5 L 24.0,19.625 L 24.0,20.125 L 24.125,20.25 L 24.125,20.625 L 24.25,20.75 L 24.25,21.25 L 24.375,21.375 L 24.375,21.625 L 24.5,21.75 L 24.5,22.25 L 24.625,22.375 L 24.625,22.875 L 24.75,23.0 L 24.75,23.125 L 25.375,23.75 L 25.5,23.75 L 26.25,24.5 L 26.375,24.5 L 26.75,24.875 L 27.25,24.875 L 27.5,24.625 L 27.5,24.375 L 27.375,24.25 L 27.375,24.125 L 27.125,23.875 L 27.0,23.875 L 26.375,23.25 L 26.25,23.25 L 25.625,22.625 L 25.625,22.375 L 25.5,22.25 L 25.5,21.75 L 25.375,21.625 L 25.375,21.125 L 25.25,21.0 L 25.25,20.5 L 25.125,20.375 L 25.125,20.0 L 25.0,19.875 L 25.0,19.375 L 24.875,19.25 L 24.875,18.875 L 24.75,18.75 L 24.75,18.25 L 24.625,18.125 L 24.625,17.75 L 24.5,17.625 L 24.5,17.375 L 24.375,17.25 L 24.375,16.875 L 24.25,16.75 L 24.25,16.25 L 24.125,16.125 L 24.125,15.75 L 24.0,15.625 L 24.0,15.375 L 23.875,15.25 L 23.875,15.125 L 23.75,15.0 L 23.75,14.875 L 23.625,14.75 L 23.625,14.625 L 23.5,14.5 L 23.5,14.375 L 23.375,14.25 L 23.375,14.125 L 23.25,14.0 L 23.25,13.875 L 23.125,13.75 L 23.125,13.5 L 23.0,13.375 L 23.0,13.25 L 22.625,12.875 L 22.75,12.75 L 22.875,12.75 L 23.0,12.625 L 23.125,12.625 L 23.375,12.375 L 23.375,12.25 L 24.875,10.75 L 24.875,10.125 L 24.75,10.0 L 24.75,9.875 L 24.625,9.75 L 24.625,9.625 L 24.5,9.5 L 24.5,9.375 L 24.25,9.125 L 24.25,9.0 L 24.125,8.875 L 24.125,8.625 L 24.0,8.5 L 24.0,8.375 L 23.875,8.25 L 23.875,8.125 L 23.625,7.875 L 23.625,7.75 L 23.5,7.625 L 23.5,7.5 L 23.375,7.375 L 23.375,7.25 L 23.25,7.125 L 23.25,7.0 L 23.0,6.75 L 23.0,6.625 L 22.875,6.5 L 22.875,6.375 L 22.75,6.25 L 22.75,6.125 L 22.125,5.5 L 22.0,5.5 L 21.875,5.375 L 21.75,5.375 L 21.5,5.125 L 21.25,5.125 L 21.125,5.0 L 21.0,5.0 L 20.875,4.875 L 20.75,4.875 L 20.625,4.75 L 20.5,4.75 L 20.375,4.625 L 20.25,4.625 L 20.125,4.5 L 19.875,4.5 L 19.75,4.375 L 19.125,4.375 L 19.0,4.25 L 18.0,4.25 L 17.875,4.125 L 16.75,4.125 L 16.625,4.25 L 15.875,4.25 L 15.75,4.375 L 14.75,4.375 L 14.625,4.25 L 14.5,4.25 L 14.375,4.125 L 14.25,4.125 L 14.125,4.0 L 14.0,4.0 L 13.875,3.875 L 13.625,3.875 L 13.5,3.75 L 13.375,3.75 L 13.25,3.625 L 13.125,3.625 L 13.0,3.5 L 12.75,3.5 L 12.625,3.375 L 12.375,3.375 L 12.25,3.25 L 11.875,3.25 L 11.75,3.125 L 11.375,3.125 L 11.25,3.0 L 10.875,3.0 L 10.75,2.875 L 10.375,2.875 L 10.25,2.75 L 10.125,2.75 L 10.0,2.625 L 9.875,2.625 L 9.75,2.5 L 9.625,2.5 L 9.5,2.375 L 9.25,2.375 L 9.125,2.25 L 9.0,2.25 L 8.875,2.125 L 8.5,2.125 L 8.375,2.0 L 8.25,2.0 L 8.125,1.875 L 8.0,1.875 L 7.875,1.75 L 7.75,1.75 L 7.625,1.625 L 7.5,1.625 L 7.375,1.5 L 7.25,1.5 L 7.125,1.375 L 6.875,1.375 L 6.75,1.25 L 6.625,1.25 L 6.5,1.125 L 6.375,1.125 L 6.25,1.0 L 6.125,1.0 L 6.0,0.875 L 5.5,0.875 L 5.25,1.125 L 5.25,1.375 L 5.375,1.5 L 5.375,1.625 L 5.625,1.875 L 5.75,1.875 L 5.875,2.0 L 6.0,2.0 L 6.125,2.125 L 6.25,2.125 L 6.375,2.25 L 6.5,2.25 L 6.625,2.375 L 6.875,2.375 L 7.0,2.5 L 7.125,2.5 L 7.25,2.625 L 7.375,2.625 L 7.5,2.75 L 7.625,2.75 L 7.75,2.875 L 8.0,2.875 L 8.125,3.0 L 8.375,3.0 L 8.5,3.125 L 8.625,3.125 L 8.75,3.25 L 8.875,3.25 L 9.0,3.375 L 9.25,3.375 L 9.375,3.5 L 9.5,3.5 L 9.625,3.625 L 9.75,3.625 L 9.875,3.75 L 10.125,3.75 L 10.25,3.875 L 10.5,3.875 L 10.625,4.0 L 11.0,4.0 L 11.125,4.125 L 11.5,4.125 L 11.625,4.25 L 12.0,4.25 L 12.125,4.375 L 12.5,4.375 L 12.625,4.5 L 12.75,4.5 L 12.875,4.625 L 13.0,4.625 L 13.125,4.75 L 13.25,4.75 L 13.375,4.875 L 13.625,4.875 L 13.75,5.0 L 13.875,5.0 L 14.0,5.125 L 14.125,5.125 L 14.375,5.375 L 14.375,8.75 L 14.5,8.875 L 14.5,11.25 L 14.625,11.375 L 14.625,11.625 L 14.375,11.875 L 14.0,11.875 L 13.875,11.75 L 12.375,11.75 L 12.25,11.875 L 11.875,11.875 L 11.75,12.0 L 11.625,12.0 L 11.5,12.125 L 11.25,12.125 L 11.125,12.25 L 11.0,12.25 L 10.875,12.375 L 10.625,12.375 L 10.5,12.5 L 10.25,12.5 L 10.125,12.625 L 10.0,12.625 L 9.875,12.75 L 9.75,12.75 L 9.5,13.0 L 9.375,13.0 L 9.25,13.125 L 9.125,13.125 L 8.875,13.375 L 8.75,13.375 L 8.625,13.5 L 8.5,13.5 L 8.25,13.75 L 8.125,13.75 L 7.875,14.0 L 7.75,14.0 L 7.5,14.25 L 7.375,14.25 L 7.125,14.5 L 7.0,14.5 L 6.75,14.75 L 6.625,14.75 L 6.5,14.875 L 6.375,14.875 L 6.125,15.125 L 6.0,15.125 L 5.875,15.25 L 5.75,15.25 L 5.375,15.625 L 5.25,15.625 L 4.75,16.125 L 4.625,16.125 L 4.125,16.625 L 4.0,16.625 L 3.75,16.875 L 3.75,17.0 L 3.625,17.125 L 3.625,17.5 L 6.125,20.0 L 6.125,20.125 L 6.875,20.875 L 6.875,21.0 L 7.25,21.375 L 7.25,21.5 L 7.625,21.875 L 7.625,22.0 L 8.0,22.375 L 8.0,22.5 L 8.25,22.75 L 8.25,22.875 L 8.5,23.125 L 8.625,23.125 L 8.75,23.25 L 9.0,23.25 L 9.25,23.0 L 9.25,22.625 L 9.125,22.5 L 9.125,22.375 L 9.0,22.25 L 9.0,22.125 L 8.625,21.75 L 8.625,21.625 L 8.25,21.25 L 8.25,21.125 L 8.0,20.875 L 8.0,20.75 L 7.0,19.75 L 7.0,19.625 L 4.875,17.5 L 4.875,17.25 L 5.25,16.875 L 5.375,16.875 L 6.0,16.25 L 6.125,16.25 L 6.5,15.875 L 6.625,15.875 L 6.75,15.75 L 7.0,15.75 L 7.25,15.5 L 7.375,15.5 L 7.625,15.25 L 7.75,15.25 L 8.0,15.0 L 8.125,15.0 L 8.375,14.75 L 8.5,14.75 L 8.75,14.5 L 8.875,14.5 L 9.0,14.375 L 9.125,14.375 L 9.375,14.125 L 9.5,14.125 L 9.625,14.0 L 9.75,14.0 L 10.0,13.75 L 10.125,13.75 L 10.375,13.5 L 10.625,13.5 L 10.75,13.375 L 11.0,13.375 L 11.125,13.25 L 11.375,13.25 L 11.5,13.125 L 11.75,13.125 L 11.875,13.0 L 12.0,13.0 L 12.125,12.875 L 12.375,12.875 L 12.5,12.75 L 13.875,12.75 L 14.0,12.875 L 14.375,12.875 L 14.625,13.125 L 14.625,15.875 L 14.75,16.0 L 14.75,17.625 L 14.875,17.75 L 14.875,19.875 L 15.0,20.0 L 15.0,21.375 L 15.125,21.5 L 15.125,21.75 L 14.875,22.0 L 14.625,22.0 L 14.5,22.125 L 13.875,22.125 L 13.75,22.25 L 13.25,22.25 L 13.125,22.375 L 12.875,22.375 L 12.75,22.5 L 12.625,22.5 L 12.375,22.75 L 12.25,22.75 L 12.0,23.0 L 11.875,23.0 L 11.625,23.25 L 11.5,23.25 L 11.25,23.5 L 11.125,23.5 L 10.875,23.75 L 10.75,23.75 L 10.5,24.0 L 10.375,24.0 L 10.25,24.125 L 10.125,24.125 L 9.75,24.5 L 9.625,24.5 L 9.375,24.75 L 9.25,24.75 L 7.375,26.625 L 7.25,26.625 L 6.875,27.0 L 6.875,27.125 L 6.625,27.375 L 6.625,27.5 L 6.5,27.625 L 6.5,27.75 L 6.25,28.0 L 6.25,28.125 L 6.125,28.25 L 6.125,28.375 L 6.0,28.5 L 6.0,28.625 L 5.75,28.875 L 5.75,29.0 L 5.625,29.125 L 5.625,29.25 L 5.5,29.375 L 5.5,29.5 L 5.25,29.75 L 5.25,29.875 L 5.0,30.125 L 5.0,30.25 L 4.875,30.375 L 4.875,30.5 L 4.625,30.75 L 4.625,30.875 L 4.5,31.0 L 4.5,31.125 L 4.25,31.375 L 4.25,31.5 L 4.125,31.625 L 4.125,31.75 L 3.875,32.0 L 3.875,32.125 L 3.75,32.25 L 3.75,32.375 L 3.625,32.5 L 3.625,32.75 L 3.5,32.875 L 3.5,33.0 L 3.375,33.125 L 3.375,33.25 L 3.125,33.5 L 3.125,33.75 L 3.0,33.875 L 3.0,34.25 L 2.875,34.375 L 2.875,34.875 L 2.75,35.0 L 2.75,35.625 L 2.625,35.75 L 2.625,36.75 L 2.75,36.875 L 2.75,37.5 L 2.875,37.625 L 2.875,38.25 L 3.0,38.375 L 3.0,38.875 L 3.125,39.0 L 3.125,39.375 L 3.25,39.5 L 3.25,40.0 L 3.375,40.125 L 3.375,40.375 L 3.5,40.5 L 3.5,41.25 L 3.625,41.375 L 3.625,42.5 L 3.75,42.625 L 3.75,43.5 L 3.625,43.625 L 3.25,43.625 L 3.0,43.875 L 3.0,44.375 L 3.125,44.5 L 3.125,44.625 L 3.375,44.875 L 3.375,45.0 L 3.5,45.125 L 3.5,45.5 L 3.375,45.625 L 3.375,46.125 L 3.5,46.25 L 3.5,46.375 L 3.625,46.5 L 3.625,46.625 L 3.75,46.75 L 3.875,46.75 L 4.125,47.0 L 4.125,47.125 L 4.75,47.75 L 4.75,47.875 L 4.875,48.0 L 4.75,48.125 L 4.75,48.25 L 4.25,48.75 L 4.25,48.875 L 3.375,49.75 L 3.375,49.875 L 3.25,50.0 L 3.25,50.125 L 3.125,50.25 L 3.125,50.375 L 3.0,50.5 L 3.0,50.625 L 2.875,50.75 L 2.875,50.875 L 2.625,51.125 L 2.625,51.25 L 2.5,51.375 L 2.5,51.5 L 2.375,51.625 L 2.375,51.875 L 2.125,52.125 L 2.125,52.25 L 1.875,52.5 L 1.75,52.5 L 1.25,53.0 L 1.125,53.0 L 0.75,53.375 L 0.625,53.375 L 0.5,53.25 L 0.5,0.75 L 0.75,0.5 z" /></g></svg>