  0
SECTION
  2
HEADER
  9
$ACADVER
  1
AC1024
  9
$ACADMAINTVER
 70
6
  9
$DWGCODEPAGE
  3
ANSI_1252
  9
$LASTSAVEDBY
  1
ezdxf
  9
$INSBASE
 10
0.0
 20
0.0
 30
0.0
  9
$EXTMIN
 10
1e+20
 20
1e+20
 30
1e+20
  9
$EXTMAX
 10
-1e+20
 20
-1e+20
 30
-1e+20
  9
$LIMMIN
 10
0.0
 20
0.0
  9
$LIMMAX
 10
420.0
 20
297.0
  9
$ORTHOMODE
 70
0
  9
$REGENMODE
 70
1
  9
$FILLMODE
 70
1
  9
$QTEXTMODE
 70
0
  9
$MIRRTEXT
 70
1
  9
$LTSCALE
 40
1.0
  9
$ATTMODE
 70
1
  9
$TEXTSIZE
 40
2.5
  9
$TRACEWID
 40
1.0
  9
$TEXTSTYLE
  7
Standard
  9
$CLAYER
  8
0
  9
$CELTYPE
  6
ByLayer
  9
$CECOLOR
 62
256
  9
$CELTSCALE
 40
1.0
  9
$DISPSILH
 70
0
  9
$DIMSCALE
 40
1.0
  9
$DIMASZ
 40
2.5
  9
$DIMEXO
 40
0.625
  9
$DIMDLI
 40
3.75
  9
$DIMRND
 40
0.0
  9
$DIMDLE
 40
0.0
  9
$DIMEXE
 40
1.25
  9
$DIMTP
 40
0.0
  9
$DIMTM
 40
0.0
  9
$DIMTXT
 40
2.5
  9
$DIMCEN
 40
2.5
  9
$DIMTSZ
 40
0.0
  9
$DIMTOL
 70
0
  9
$DIMLIM
 70
0
  9
$DIMTIH
 70
0
  9
$DIMTOH
 70
0
  9
$DIMSE1
 70
0
  9
$DIMSE2
 70
0
  9
$DIMTAD
 70
1
  9
$DIMZIN
 70
8
  9
$DIMBLK
  1

  9
$DIMASO
 70
1
  9
$DIMSHO
 70
1
  9
$DIMPOST
  1

  9
$DIMAPOST
  1

  9
$DIMALT
 70
0
  9
$DIMALTD
 70
3
  9
$DIMALTF
 40
0.03937007874
  9
$DIMLFAC
 40
1.0
  9
$DIMTOFL
 70
1
  9
$DIMTVP
 40
0.0
  9
$DIMTIX
 70
0
  9
$DIMSOXD
 70
0
  9
$DIMSAH
 70
0
  9
$DIMBLK1
  1

  9
$DIMBLK2
  1

  9
$DIMSTYLE
  2
ISO-25
  9
$DIMCLRD
 70
0
  9
$DIMCLRE
 70
0
  9
$DIMCLRT
 70
0
  9
$DIMTFAC
 40
1.0
  9
$DIMGAP
 40
0.625
  9
$DIMJUST
 70
0
  9
$DIMSD1
 70
0
  9
$DIMSD2
 70
0
  9
$DIMTOLJ
 70
0
  9
$DIMTZIN
 70
8
  9
$DIMALTZ
 70
0
  9
$DIMALTTZ
 70
0
  9
$DIMUPT
 70
0
  9
$DIMDEC
 70
2
  9
$DIMTDEC
 70
2
  9
$DIMALTU
 70
2
  9
$DIMALTTD
 70
3
  9
$DIMTXSTY
  7
Standard
  9
$DIMAUNIT
 70
0
  9
$DIMADEC
 70
0
  9
$DIMALTRND
 40
0.0
  9
$DIMAZIN
 70
0
  9
$DIMDSEP
 70
44
  9
$DIMATFIT
 70
3
  9
$DIMFRAC
 70
0
  9
$DIMLDRBLK
  1

  9
$DIMLUNIT
 70
2
  9
$DIMLWD
 70
-2
  9
$DIMLWE
 70
-2
  9
$DIMTMOVE
 70
0
  9
$DIMFXL
 40
1.0
  9
$DIMFXLON
 70
0
  9
$DIMJOGANG
 40
0.785398163397
  9
$DIMTFILL
 70
0
  9
$DIMTFILLCLR
 70
0
  9
$DIMARCSYM
 70
0
  9
$DIMLTYPE
  6

  9
$DIMLTEX1
  6

  9
$DIMLTEX2
  6

  9
$DIMTXTDIRECTION
 70
0
  9
$LUNITS
 70
2
  9
$LUPREC
 70
4
  9
$SKETCHINC
 40
1.0
  9
$FILLETRAD
 40
10.0
  9
$AUNITS
 70
0
  9
$AUPREC
 70
2
  9
$MENU
  1
.
  9
$ELEVATION
 40
0.0
  9
$PELEVATION
 40
0.0
  9
$THICKNESS
 40
0.0
  9
$LIMCHECK
 70
0
  9
$CHAMFERA
 40
0.0
  9
$CHAMFERB
 40
0.0
  9
$CHAMFERC
 40
0.0
  9
$CHAMFERD
 40
0.0
  9
$SKPOLY
 70
0
  9
$TDCREATE
 40
2460231.6218055557
  9
$TDUCREATE
 40
2458532.153996898
  9
$TDUPDATE
 40
2460231.6218055557
  9
$TDUUPDATE
 40
2458532.1544311
  9
$TDINDWG
 40
0.0
  9
$TDUSRTIMER
 40
0.0
  9
$USRTIMER
 70
1
  9
$ANGBASE
 50
0.0
  9
$ANGDIR
 70
0
  9
$PDMODE
 70
0
  9
$PDSIZE
 40
0.0
  9
$PLINEWID
 40
0.0
  9
$SPLFRAME
 70
0
  9
$SPLINETYPE
 70
6
  9
$SPLINESEGS
 70
8
  9
$HANDSEED
  5
63
  9
$SURFTAB1
 70
6
  9
$SURFTAB2
 70
6
  9
$SURFTYPE
 70
6
  9
$SURFU
 70
6
  9
$SURFV
 70
6
  9
$UCSBASE
  2

  9
$UCSNAME
  2

  9
$UCSORG
 10
0.0
 20
0.0
 30
0.0
  9
$UCSXDIR
 10
1.0
 20
0.0
 30
0.0
  9
$UCSYDIR
 10
0.0
 20
1.0
 30
0.0
  9
$UCSORTHOREF
  2

  9
$UCSORTHOVIEW
 70
0
  9
$UCSORGTOP
 10
0.0
 20
0.0
 30
0.0
  9
$UCSORGBOTTOM
 10
0.0
 20
0.0
 30
0.0
  9
$UCSORGLEFT
 10
0.0
 20
0.0
 30
0.0
  9
$UCSORGRIGHT
 10
0.0
 20
0.0
 30
0.0
  9
$UCSORGFRONT
 10
0.0
 20
0.0
 30
0.0
  9
$UCSORGBACK
 10
0.0
 20
0.0
 30
0.0
  9
$PUCSBASE
  2

  9
$PUCSNAME
  2

  9
$PUCSORG
 10
0.0
 20
0.0
 30
0.0
  9
$PUCSXDIR
 10
1.0
 20
0.0
 30
0.0
  9
$PUCSYDIR
 10
0.0
 20
1.0
 30
0.0
  9
$PUCSORTHOREF
  2

  9
$PUCSORTHOVIEW
 70
0
  9
$PUCSORGTOP
 10
0.0
 20
0.0
 30
0.0
  9
$PUCSORGBOTTOM
 10
0.0
 20
0.0
 30
0.0
  9
$PUCSORGLEFT
 10
0.0
 20
0.0
 30
0.0
  9
$PUCSORGRIGHT
 10
0.0
 20
0.0
 30
0.0
  9
$PUCSORGFRONT
 10
0.0
 20
0.0
 30
0.0
  9
$PUCSORGBACK
 10
0.0
 20
0.0
 30
0.0
  9
$USERI1
 70
0
  9
$USERI2
 70
0
  9
$USERI3
 70
0
  9
$USERI4
 70
0
  9
$USERI5
 70
0
  9
$USERR1
 40
0.0
  9
$USERR2
 40
0.0
  9
$USERR3
 40
0.0
  9
$USERR4
 40
0.0
  9
$USERR5
 40
0.0
  9
$WORLDVIEW
 70
1
  9
$SHADEDGE
 70
3
  9
$SHADEDIF
 70
70
  9
$TILEMODE
 70
1
  9
$MAXACTVP
 70
64
  9
$PINSBASE
 10
0.0
 20
0.0
 30
0.0
  9
$PLIMCHECK
 70
0
  9
$PEXTMIN
 10
1e+20
 20
1e+20
 30
1e+20
  9
$PEXTMAX
 10
-1e+20
 20
-1e+20
 30
-1e+20
  9
$PLIMMIN
 10
0.0
 20
0.0
  9
$PLIMMAX
 10
420.0
 20
297.0
  9
$UNITMODE
 70
0
  9
$VISRETAIN
 70
1
  9
$PLINEGEN
 70
0
  9
$PSLTSCALE
 70
1
  9
$TREEDEPTH
 70
3020
  9
$CMLSTYLE
  2
Standard
  9
$CMLJUST
 70
0
  9
$CMLSCALE
 40
20.0
  9
$PROXYGRAPHICS
 70
1
  9
$MEASUREMENT
 70
1
  9
$CELWEIGHT
370
-1
  9
$ENDCAPS
280
0
  9
$JOINSTYLE
280
0
  9
$LWDISPLAY
290
0
  9
$INSUNITS
 70
4
  9
$HYPERLINKBASE
  1

  9
$STYLESHEET
  1

  9
$XEDIT
290
1
  9
$CEPSNTYPE
380
0
  9
$PSTYLEMODE
290
1
  9
$FINGERPRINTGUID
  2
{1E60812B-63A0-434A-81C9-5B14DCE39ACC}
  9
$VERSIONGUID
  2
{084CB22B-0454-4268-8CD9-514DA7EF27AD}
  9
$EXTNAMES
290
1
  9
$PSVPSCALE
 40
0.0
  9
$OLESTARTUP
290
0
  9
$SORTENTS
280
127
  9
$INDEXCTL
280
0
  9
$HIDETEXT
280
1
  9
$XCLIPFRAME
280
0
  9
$HALOGAP
280
0
  9
$OBSCOLOR
 70
257
  9
$OBSLTYPE
280
0
  9
$INTERSECTIONDISPLAY
280
0
  9
$INTERSECTIONCOLOR
 70
257
  9
$DIMASSOC
280
2
  9
$PROJECTNAME
  1

  9
$CAMERADISPLAY
290
0
  9
$LENSLENGTH
 40
50.0
  9
$CAMERAHEIGHT
 40
0.0
  9
$STEPSPERSEC
 40
24.0
  9
$STEPSIZE
 40
100.0
  9
$3DDWFPREC
 40
2.0
  9
$PSOLWIDTH
 40
0.005
  9
$PSOLHEIGHT
 40
0.08
  9
$LOFTANG1
 40
1.570796326795
  9
$LOFTANG2
 40
1.570796326795
  9
$LOFTMAG1
 40
0.0
  9
$LOFTMAG2
 40
0.0
  9
$LOFTPARAM
 70
7
  9
$LOFTNORMALS
280
1
  9
$LATITUDE
 40
37.795
  9
$LONGITUDE
 40
-122.394
  9
$NORTHDIRECTION
 40
0.0
  9
$TIMEZONE
 70
-8000
  9
$LIGHTGLYPHDISPLAY
280
1
  9
$TILEMODELIGHTSYNCH
280
1
  9
$CMATERIAL
347
20
  9
$SOLIDHIST
280
0
  9
$SHOWHIST
280
1
  9
$DWFFRAME
280
2
  9
$DGNFRAME
280
2
  9
$REALWORLDSCALE
290
1
  9
$INTERFERECOLOR
 62
256
  9
$CSHADOW
280
0
  9
$SHADOWPLANELOCATION
 40
0.0
  0
ENDSEC
  0
SECTION
  2
CLASSES
  0
CLASS
  1
ACDBDICTIONARYWDFLT
  2
AcDbDictionaryWithDefault
  3
ObjectDBX Classes
 90
0
 91
0
280
0
281
0
  0
CLASS
  1
SUN
  2
AcDbSun
  3
SCENEOE
 90
1153
 91
0
280
0
281
0
  0
CLASS
  1
VISUALSTYLE
  2
AcDbVisualStyle
  3
ObjectDBX Classes
 90
4095
 91
0
280
0
281
0
  0
CLASS
  1
MATERIAL
  2
AcDbMaterial
  3
ObjectDBX Classes
 90
1153
 91
0
280
0
281
0
  0
CLASS
  1
SCALE
  2
AcDbScale
  3
ObjectDBX Classes
 90
1153
 91
0
280
0
281
0
  0
CLASS
  1
TABLESTYLE
  2
AcDbTableStyle
  3
ObjectDBX Classes
 90
4095
 91
0
280
0
281
0
  0
CLASS
  1
MLEADERSTYLE
  2
AcDbMLeaderStyle
  3
ACDB_MLEADERSTYLE_CLASS
 90
4095
 91
0
280
0
281
0
  0
CLASS
  1
DICTIONARYVAR
  2
AcDbDictionaryVar
  3
ObjectDBX Classes
 90
0
 91
0
280
0
281
0
  0
CLASS
  1
CELLSTYLEMAP
  2
AcDbCellStyleMap
  3
ObjectDBX Classes
 90
1152
 91
0
280
0
281
0
  0
CLASS
  1
MENTALRAYRENDERSETTINGS
  2
AcDbMentalRayRenderSettings
  3
SCENEOE
 90
1024
 91
0
280
0
281
0
  0
CLASS
  1
ACDBDETAILVIEWSTYLE
  2
AcDbDetailViewStyle
  3
ObjectDBX Classes
 90
1025
 91
0
280
0
281
0
  0
CLASS
  1
ACDBSECTIONVIEWSTYLE
  2
AcDbSectionViewStyle
  3
ObjectDBX Classes
 90
1025
 91
0
280
0
281
0
  0
CLASS
  1
RASTERVARIABLES
  2
AcDbRasterVariables
  3
ISM
 90
0
 91
0
280
0
281
0
  0
CLASS
  1
ACDBPLACEHOLDER
  2
AcDbPlaceHolder
  3
ObjectDBX Classes
 90
0
 91
0
280
0
281
0
  0
CLASS
  1
LAYOUT
  2
AcDbLayout
  3
ObjectDBX Classes
 90
0
 91
0
280
0
281
0
  0
ENDSEC
  0
SECTION
  2
TABLES
  0
TABLE
  2
VPORT
  5
8
330
0
100
AcDbSymbolTable
 70
1
  0
VPORT
  5
23
330
8
100
AcDbSymbolTableRecord
100
AcDbViewportTableRecord
  2
*Active
 70
0
 10
0.0
 20
0.0
 11
1.0
 21
1.0
 12
0.0
 22
0.0
 13
0.0
 23
0.0
 14
0.5
 24
0.5
 15
0.5
 25
0.5
 16
0.0
 26
0.0
 36
1.0
 17
0.0
 27
0.0
 37
0.0
 40
1000.0
 41
1.34
 42
50.0
 43
0.0
 44
0.0
 50
0.0
 51
0.0
 71
0
 72
1000
 73
1
 74
3
 75
0
 76
0
 77
0
 78
0
281
0
 65
0
146
0.0
  0
ENDTAB
  0
TABLE
  2
LTYPE
  5
2
330
0
100
AcDbSymbolTable
 70
3
  0
LTYPE
  5
24
330
2
100
AcDbSymbolTableRecord
100
AcDbLinetypeTableRecord
  2
ByBlock
 70
0
  3

 72
65
 73
0
 40
0.0
  0
LTYPE
  5
25
330
2
100
AcDbSymbolTableRecord
100
AcDbLinetypeTableRecord
  2
ByLayer
 70
0
  3

 72
65
 73
0
 40
0.0
  0
LTYPE
  5
26
330
2
100
AcDbSymbolTableRecord
100
AcDbLinetypeTableRecord
  2
Continuous
 70
0
  3

 72
65
 73
0
 40
0.0
  0
ENDTAB
  0
TABLE
  2
LAYER
  5
1
330
0
100
AcDbSymbolTable
 70
3
  0
LAYER
  5
27
330
1
100
AcDbSymbolTableRecord
100
AcDbLayerTableRecord
  2
0
 70
0
 62
7
  6
Continuous
370
-3
390
13
347
21
  0
LAYER
  5
28
330
1
100
AcDbSymbolTableRecord
100
AcDbLayerTableRecord
  2
Defpoints
 70
0
 62
7
  6
Continuous
290
0
370
-3
390
13
347
21
  0
LAYER
  5
2F
330
1
100
AcDbSymbolTableRecord
100
AcDbLayerTableRecord
  2
default
 70
0
 62
7
  6
Continuous
370
-3
390
13
347
21
  0
ENDTAB
  0
TABLE
  2
STYLE
  5
5
330
0
100
AcDbSymbolTable
 70
1
  0
STYLE
  5
29
330
5
100
AcDbSymbolTableRecord
100
AcDbTextStyleTableRecord
  2
Standard
 70
0
 40
0.0
 41
1.0
 50
0.0
 71
0
 42
2.5
  3
txt
  4

  0
ENDTAB
  0
TABLE
  2
VIEW
  5
7
330
0
100
AcDbSymbolTable
 70
0
  0
ENDTAB
  0
TABLE
  2
UCS
  5
6
330
0
100
AcDbSymbolTable
 70
0
  0
ENDTAB
  0
TABLE
  2
APPID
  5
3
330
0
100
AcDbSymbolTable
 70
3
  0
APPID
  5
2A
330
3
100
AcDbSymbolTableRecord
100
AcDbRegAppTableRecord
  2
ACAD
 70
0
  0
APPID
  5
60
330
3
100
AcDbSymbolTableRecord
100
AcDbRegAppTableRecord
  2
HATCHBACKGROUNDCOLOR
 70
0
  0
APPID
  5
61
330
3
100
AcDbSymbolTableRecord
100
AcDbRegAppTableRecord
  2
EZDXF
 70
0
  0
ENDTAB
  0
TABLE
  2
DIMSTYLE
  5
4
330
0
100
AcDbSymbolTable
 70
1
100
AcDbDimStyleTable
  0
DIMSTYLE
105
2B
330
4
100
AcDbSymbolTableRecord
100
AcDbDimStyleTableRecord
  2
Standard
 70
0
 40
1.0
 41
2.5
 42
0.625
 43
3.75
 44
1.25
 45
0.0
 46
0.0
 47
0.0
 48
0.0
 49
2.5
140
2.5
141
2.5
142
0.0
143
0.03937007874
144
1.0
145
0.0
146
1.0
147
0.625
148
0.0
 69
0
 70
0
 71
0
 72
0
 73
0
 74
0
 75
0
 76
0
 77
1
 78
8
 79
3
170
0
171
3
172
1
173
0
174
0
175
0
176
0
177
0
178
0
179
2
271
2
272
2
273
2
274
3
275
0
276
0
277
2
278
44
279
0
280
0
281
0
282
0
283
0
284
8
285
0
286
0
288
0
289
3
290
0
371
-2
372
-2
  0
ENDTAB
  0
TABLE
  2
BLOCK_RECORD
  5
9
330
0
100
AcDbSymbolTable
 70
2
  0
BLOCK_RECORD
  5
17
330
9
100
AcDbSymbolTableRecord
100
AcDbBlockTableRecord
  2
*Model_Space
340
1A
 70
0
280
1
281
0
  0
BLOCK_RECORD
  5
1B
330
9
100
AcDbSymbolTableRecord
100
AcDbBlockTableRecord
  2
*Paper_Space
340
1E
 70
0
280
1
281
0
  0
ENDTAB
  0
ENDSEC
  0
SECTION
  2
BLOCKS
  0
BLOCK
  5
18
330
17
100
AcDbEntity
  8
0
100
AcDbBlockBegin
  2
*Model_Space
 70
0
 10
0.0
 20
0.0
 30
0.0
  3
*Model_Space
  1

  0
ENDBLK
  5
19
330
17
100
AcDbEntity
  8
0
100
AcDbBlockEnd
  0
BLOCK
  5
1C
330
1B
100
AcDbEntity
  8
0
100
AcDbBlockBegin
  2
*Paper_Space
 70
0
 10
0.0
 20
0.0
 30
0.0
  3
*Paper_Space
  1

  0
ENDBLK
  5
1D
330
1B
100
AcDbEntity
  8
0
100
AcDbBlockEnd
  0
ENDSEC
  0
SECTION
  2
ENTITIES
  0
LWPOLYLINE
  5
30
330
17
100
AcDbEntity
  8
default
100
AcDbPolyline
 90
117
 70
0
 10
0.375
 20
-1.625
 10
0.25
 20
-1.5
 10
-0.125
 20
-1.5
 10
-0.25
 20
-1.375
 10
-0.375
 20
-1.375
 10
-0.5
 20
-1.25
 10
-0.625
 20
-1.25
 10
-1.25
 20
-0.625
 10
-1.25
 20
-0.5
 10
-1.375
 20
-0.375
 10
-1.375
 20
-0.25
 10
-1.5
 20
-0.125
 10
-1.5
 20
0.25
 10
-1.625
 20
0.375
 10
-1.625
 20
99.625
 10
-1.5
 20
99.75
 10
-1.5
 20
100.125
 10
-1.375
 20
100.25
 10
-1.375
 20
100.375
 10
-1.25
 20
100.5
 10
-1.25
 20
100.625
 10
-0.625
 20
101.25
 10
-0.5
 20
101.25
 10
-0.375
 20
101.375
 10
-0.25
 20
101.375
 10
-0.125
 20
101.5
 10
0.25
 20
101.5
 10
0.375
 20
101.625
 10
99.625
 20
101.625
 10
99.75
 20
101.5
 10
100.125
 20
101.5
 10
100.25
 20
101.375
 10
100.375
 20
101.375
 10
100.5
 20
101.25
 10
100.625
 20
101.25
 10
101.25
 20
100.625
 10
101.25
 20
100.5
 10
101.375
 20
100.375
 10
101.375
 20
100.25
 10
101.5
 20
100.125
 10
101.5
 20
99.75
 10
101.625
 20
99.625
 10
101.625
 20
62.25
 10
101.75
 20
62.125
 10
101.75
 20
59.25
 10
101.625
 20
59.125
 10
101.625
 20
0.375
 10
101.5
 20
0.25
 10
101.5
 20
-0.125
 10
101.375
 20
-0.25
 10
101.375
 20
-0.375
 10
101.25
 20
-0.5
 10
101.25
 20
-0.625
 10
100.625
 20
-1.25
 10
100.5
 20
-1.25
 10
100.375
 20
-1.375
 10
100.25
 20
-1.375
 10
100.125
 20
-1.5
 10
99.75
 20
-1.5
 10
99.625
 20
-1.625
 10
70.375
 20
-1.625
 10
70.25
 20
-1.5
 10
69.875
 20
-1.5
 10
69.75
 20
-1.375
 10
69.625
 20
-1.375
 10
69.5
 20
-1.25
 10
69.375
 20
-1.25
 10
68.75
 20
-0.625
 10
68.75
 20
-0.5
 10
68.625
 20
-0.375
 10
68.625
 20
-0.25
 10
68.5
 20
-0.125
 10
68.5
 20
0.25
 10
68.375
 20
0.375
 10
68.375
 20
67.125
 10
68.25
 20
67.25
 10
68.25
 20
67.625
 10
67.875
 20
68.0
 10
66.625
 20
68.0
 10
66.5
 20
68.125
 10
65.875
 20
68.125
 10
65.75
 20
68.25
 10
63.875
 20
68.25
 10
63.75
 20
68.125
 10
63.375
 20
68.125
 10
63.25
 20
68.0
 10
62.625
 20
68.0
 10
62.5
 20
67.875
 10
61.5
 20
67.875
 10
61.375
 20
68.0
 10
60.875
 20
68.0
 10
60.75
 20
68.125
 10
60.375
 20
68.125
 10
60.25
 20
68.25
 10
59.625
 20
68.25
 10
59.5
 20
68.375
 10
32.875
 20
68.375
 10
32.75
 20
68.25
 10
32.25
 20
68.25
 10
31.75
 20
67.75
 10
31.75
 20
67.25
 10
31.625
 20
67.125
 10
31.625
 20
0.375
 10
31.5
 20
0.25
 10
31.5
 20
-0.125
 10
31.375
 20
-0.25
 10
31.375
 20
-0.375
 10
31.25
 20
-0.5
 10
31.25
 20
-0.625
 10
30.625
 20
-1.25
 10
30.5
 20
-1.25
 10
30.375
 20
-1.375
 10
30.25
 20
-1.375
 10
30.125
 20
-1.5
 10
29.75
 20
-1.5
 10
29.625
 20
-1.625
 10
0.375
 20
-1.625
  0
LWPOLYLINE
  5
31
330
17
100
AcDbEntity
  8
default
100
AcDbPolyline
 90
51
 70
0
 10
80.75
 20
96.375
 10
80.875
 20
96.375
 10
81.0
 20
96.5
 10
81.5
 20
96.5
 10
81.625
 20
96.625
 10
82.375
 20
96.625
 10
82.5
 20
96.75
 10
83.25
 20
96.75
 10
83.375
 20
96.875
 10
83.875
 20
96.875
 10
84.0
 20
97.0
 10
84.5
 20
97.0
 10
84.625
 20
97.125
 10
85.125
 20
97.125
 10
85.25
 20
97.25
 10
86.0
 20
97.25
 10
86.125
 20
97.375
 10
87.125
 20
97.375
 10
87.25
 20
97.5
 10
89.125
 20
97.5
 10
89.25
 20
97.375
 10
90.125
 20
97.375
 10
90.25
 20
97.25
 10
91.125
 20
97.25
 10
91.25
 20
97.125
 10
91.875
 20
97.125
 10
92.0
 20
97.0
 10
92.625
 20
97.0
 10
92.75
 20
96.875
 10
93.625
 20
96.875
 10
93.75
 20
96.75
 10
94.875
 20
96.75
 10
95.0
 20
96.875
 10
95.125
 20
96.875
 10
95.625
 20
97.375
 10
95.625
 20
97.5
 10
95.75
 20
97.625
 10
95.75
 20
97.75
 10
95.875
 20
97.875
 10
95.875
 20
98.0
 10
95.625
 20
98.25
 10
95.375
 20
98.25
 10
95.25
 20
98.375
 10
80.75
 20
98.375
 10
80.375
 20
98.0
 10
80.375
 20
97.875
 10
80.25
 20
97.75
 10
80.25
 20
97.125
 10
80.375
 20
97.0
 10
80.375
 20
96.75
 10
80.75
 20
96.375
  0
LWPOLYLINE
  5
32
330
17
100
AcDbEntity
  8
default
100
AcDbPolyline
 90
73
 70
0
 10
70.375
 20
93.375
 10
70.5
 20
93.25
 10
71.0
 20
93.25
 10
71.125
 20
93.375
 10
71.375
 20
93.375
 10
71.5
 20
93.5
 10
71.875
 20
93.5
 10
72.0
 20
93.625
 10
72.25
 20
93.625
 10
72.375
 20
93.75
 10
72.625
 20
93.75
 10
72.75
 20
93.875
 10
73.125
 20
93.875
 10
73.25
 20
94.0
 10
73.5
 20
94.0
 10
73.625
 20
94.125
 10
74.0
 20
94.125
 10
74.125
 20
94.25
 10
74.375
 20
94.25
 10
74.5
 20
94.375
 10
74.875
 20
94.375
 10
75.0
 20
94.5
 10
75.125
 20
94.5
 10
75.375
 20
94.75
 10
75.375
 20
94.875
 10
75.5
 20
95.0
 10
75.5
 20
95.375
 10
75.375
 20
95.5
 10
75.375
 20
97.0
 10
75.5
 20
97.125
 10
75.5
 20
97.75
 10
75.375
 20
97.875
 10
75.375
 20
98.0
 10
75.0
 20
98.375
 10
68.75
 20
98.375
 10
68.625
 20
98.25
 10
68.25
 20
98.25
 10
68.125
 20
98.125
 10
68.125
 20
97.75
 10
68.25
 20
97.625
 10
68.25
 20
97.5
 10
68.375
 20
97.375
 10
68.375
 20
97.25
 10
68.5
 20
97.125
 10
68.5
 20
97.0
 10
68.625
 20
96.875
 10
68.625
 20
96.75
 10
68.75
 20
96.625
 10
68.75
 20
96.5
 10
68.875
 20
96.375
 10
68.875
 20
96.125
 10
69.0
 20
96.0
 10
69.0
 20
95.875
 10
69.125
 20
95.75
 10
69.125
 20
95.625
 10
69.25
 20
95.5
 10
69.25
 20
95.375
 10
69.375
 20
95.25
 10
69.375
 20
95.125
 10
69.5
 20
95.0
 10
69.5
 20
94.75
 10
69.625
 20
94.625
 10
69.625
 20
94.5
 10
69.75
 20
94.375
 10
69.75
 20
94.25
 10
69.875
 20
94.125
 10
69.875
 20
94.0
 10
70.0
 20
93.875
 10
70.0
 20
93.75
 10
70.125
 20
93.625
 10
70.125
 20
93.5
 10
70.25
 20
93.375
 10
70.375
 20
93.375
  0
LWPOLYLINE
  5
33
330
17
100
AcDbEntity
  8
default
100
AcDbPolyline
 90
175
 70
0
 10
37.125
 20
87.125
 10
37.75
 20
87.125
 10
37.875
 20
87.25
 10
38.375
 20
87.25
 10
38.5
 20
87.375
 10
38.875
 20
87.375
 10
39.0
 20
87.5
 10
39.625
 20
87.5
 10
39.75
 20
87.625
 10
40.375
 20
87.625
 10
40.5
 20
87.75
 10
41.125
 20
87.75
 10
41.25
 20
87.875
 10
42.125
 20
87.875
 10
42.25
 20
88.0
 10
44.5
 20
88.0
 10
44.875
 20
88.375
 10
44.875
 20
89.75
 10
44.75
 20
89.875
 10
44.75
 20
90.625
 10
44.625
 20
90.75
 10
44.625
 20
91.25
 10
44.5
 20
91.375
 10
44.5
 20
91.75
 10
44.375
 20
91.875
 10
44.375
 20
92.125
 10
44.25
 20
92.25
 10
44.25
 20
92.5
 10
44.125
 20
92.625
 10
44.125
 20
92.75
 10
44.0
 20
92.875
 10
44.0
 20
93.125
 10
43.875
 20
93.25
 10
43.875
 20
93.375
 10
43.75
 20
93.5
 10
43.75
 20
93.625
 10
43.625
 20
93.75
 10
43.625
 20
93.875
 10
43.25
 20
94.25
 10
42.75
 20
94.25
 10
42.625
 20
94.125
 10
42.375
 20
94.125
 10
42.25
 20
94.0
 10
41.875
 20
94.0
 10
41.75
 20
93.875
 10
41.5
 20
93.875
 10
41.375
 20
93.75
 10
41.125
 20
93.75
 10
41.0
 20
93.625
 10
40.625
 20
93.625
 10
40.5
 20
93.5
 10
40.25
 20
93.5
 10
40.125
 20
93.375
 10
39.75
 20
93.375
 10
39.625
 20
93.25
 10
39.125
 20
93.25
 10
39.0
 20
93.125
 10
37.625
 20
93.125
 10
37.5
 20
93.25
 10
37.25
 20
93.25
 10
37.125
 20
93.375
 10
36.875
 20
93.375
 10
36.625
 20
93.625
 10
36.5
 20
93.625
 10
35.875
 20
94.25
 10
35.875
 20
94.375
 10
35.75
 20
94.5
 10
35.75
 20
94.625
 10
35.625
 20
94.75
 10
35.625
 20
95.0
 10
35.5
 20
95.125
 10
35.5
 20
96.5
 10
35.625
 20
96.625
 10
35.625
 20
97.0
 10
35.75
 20
97.125
 10
35.75
 20
97.5
 10
35.875
 20
97.625
 10
35.875
 20
98.0
 10
35.625
 20
98.25
 10
35.5
 20
98.25
 10
35.375
 20
98.375
 10
21.625
 20
98.375
 10
21.5
 20
98.25
 10
21.375
 20
98.25
 10
21.125
 20
98.0
 10
21.125
 20
97.875
 10
21.25
 20
97.75
 10
21.25
 20
97.625
 10
22.0
 20
96.875
 10
22.125
 20
96.875
 10
22.25
 20
96.75
 10
22.375
 20
96.75
 10
22.625
 20
96.5
 10
22.75
 20
96.5
 10
22.875
 20
96.375
 10
23.0
 20
96.375
 10
23.125
 20
96.25
 10
23.375
 20
96.25
 10
23.5
 20
96.125
 10
23.625
 20
96.125
 10
23.75
 20
96.0
 10
24.0
 20
96.0
 10
24.125
 20
95.875
 10
24.375
 20
95.875
 10
24.5
 20
95.75
 10
24.875
 20
95.75
 10
25.0
 20
95.625
 10
25.375
 20
95.625
 10
25.5
 20
95.5
 10
26.125
 20
95.5
 10
26.25
 20
95.375
 10
26.875
 20
95.375
 10
27.0
 20
95.25
 10
27.75
 20
95.25
 10
27.875
 20
95.125
 10
28.5
 20
95.125
 10
28.625
 20
95.0
 10
29.0
 20
95.0
 10
29.125
 20
94.875
 10
29.625
 20
94.875
 10
29.75
 20
94.75
 10
30.0
 20
94.75
 10
30.125
 20
94.625
 10
30.375
 20
94.625
 10
30.5
 20
94.5
 10
30.75
 20
94.5
 10
30.875
 20
94.375
 10
31.125
 20
94.375
 10
31.25
 20
94.25
 10
31.375
 20
94.25
 10
31.5
 20
94.125
 10
31.625
 20
94.125
 10
31.75
 20
94.0
 10
32.0
 20
94.0
 10
32.125
 20
93.875
 10
32.25
 20
93.875
 10
32.375
 20
93.75
 10
32.5
 20
93.75
 10
32.625
 20
93.625
 10
32.75
 20
93.625
 10
33.0
 20
93.375
 10
33.125
 20
93.375
 10
33.25
 20
93.25
 10
33.375
 20
93.25
 10
33.625
 20
93.0
 10
33.75
 20
93.0
 10
34.625
 20
92.125
 10
34.625
 20
92.0
 10
35.0
 20
91.625
 10
35.0
 20
91.5
 10
35.25
 20
91.25
 10
35.25
 20
91.125
 10
35.375
 20
91.0
 10
35.375
 20
90.875
 10
35.5
 20
90.75
 10
35.5
 20
90.625
 10
35.75
 20
90.375
 10
35.75
 20
90.25
 10
35.875
 20
90.125
 10
35.875
 20
90.0
 10
36.0
 20
89.875
 10
36.0
 20
89.75
 10
36.125
 20
89.625
 10
36.125
 20
89.375
 10
36.25
 20
89.25
 10
36.25
 20
89.0
 10
36.375
 20
88.875
 10
36.375
 20
88.75
 10
36.5
 20
88.625
 10
36.5
 20
88.375
 10
36.625
 20
88.25
 10
36.625
 20
87.875
 10
36.75
 20
87.75
 10
36.75
 20
87.5
 10
37.125
 20
87.125
  0
LWPOLYLINE
  5
34
330
17
100
AcDbEntity
  8
default
100
AcDbPolyline
 90
225
 70
0
 10
29.25
 20
85.0
 10
30.0
 20
85.0
 10
30.125
 20
85.125
 10
30.375
 20
85.125
 10
30.5
 20
85.25
 10
30.75
 20
85.25
 10
30.875
 20
85.375
 10
31.125
 20
85.375
 10
31.25
 20
85.5
 10
31.5
 20
85.5
 10
32.0
 20
86.0
 10
32.0
 20
86.375
 10
31.875
 20
86.5
 10
31.875
 20
86.75
 10
31.75
 20
86.875
 10
31.75
 20
87.125
 10
31.625
 20
87.25
 10
31.625
 20
87.5
 10
31.5
 20
87.625
 10
31.5
 20
87.875
 10
31.375
 20
88.0
 10
31.375
 20
88.125
 10
31.25
 20
88.25
 10
31.25
 20
88.375
 10
30.25
 20
89.375
 10
30.125
 20
89.375
 10
30.0
 20
89.5
 10
29.75
 20
89.5
 10
29.625
 20
89.625
 10
29.5
 20
89.625
 10
29.375
 20
89.75
 10
29.125
 20
89.75
 10
29.0
 20
89.875
 10
28.75
 20
89.875
 10
28.625
 20
90.0
 10
28.25
 20
90.0
 10
28.125
 20
90.125
 10
27.625
 20
90.125
 10
27.5
 20
90.25
 10
26.875
 20
90.25
 10
26.75
 20
90.375
 10
25.875
 20
90.375
 10
25.75
 20
90.5
 10
25.0
 20
90.5
 10
24.875
 20
90.625
 10
24.375
 20
90.625
 10
24.25
 20
90.75
 10
23.875
 20
90.75
 10
23.75
 20
90.875
 10
23.375
 20
90.875
 10
23.25
 20
91.0
 10
23.0
 20
91.0
 10
22.875
 20
91.125
 10
22.625
 20
91.125
 10
22.5
 20
91.25
 10
22.25
 20
91.25
 10
22.125
 20
91.375
 10
22.0
 20
91.375
 10
21.875
 20
91.5
 10
21.75
 20
91.5
 10
21.625
 20
91.625
 10
21.5
 20
91.625
 10
21.375
 20
91.75
 10
21.25
 20
91.75
 10
21.125
 20
91.875
 10
21.0
 20
91.875
 10
20.875
 20
92.0
 10
20.75
 20
92.0
 10
20.625
 20
92.125
 10
20.5
 20
92.125
 10
20.375
 20
92.25
 10
20.25
 20
92.25
 10
20.0
 20
92.5
 10
19.875
 20
92.5
 10
19.625
 20
92.75
 10
19.5
 20
92.75
 10
19.25
 20
93.0
 10
19.125
 20
93.0
 10
18.5
 20
93.625
 10
18.375
 20
93.625
 10
17.125
 20
94.875
 10
17.125
 20
95.0
 10
16.75
 20
95.375
 10
16.75
 20
95.5
 10
16.5
 20
95.75
 10
16.5
 20
95.875
 10
16.375
 20
96.0
 10
16.375
 20
96.125
 10
16.125
 20
96.375
 10
16.125
 20
96.625
 10
16.0
 20
96.75
 10
16.0
 20
96.875
 10
15.875
 20
97.0
 10
15.875
 20
97.25
 10
15.75
 20
97.375
 10
15.75
 20
97.5
 10
15.625
 20
97.625
 10
15.625
 20
97.875
 10
15.25
 20
98.25
 10
15.0
 20
98.25
 10
14.875
 20
98.375
 10
2.875
 20
98.375
 10
2.75
 20
98.25
 10
2.25
 20
98.25
 10
1.75
 20
97.75
 10
1.75
 20
97.25
 10
1.625
 20
97.125
 10
1.625
 20
92.125
 10
1.75
 20
92.0
 10
1.75
 20
91.75
 10
2.125
 20
91.375
 10
3.625
 20
91.375
 10
3.75
 20
91.25
 10
4.0
 20
91.25
 10
4.125
 20
91.125
 10
4.375
 20
91.125
 10
4.5
 20
91.0
 10
4.75
 20
91.0
 10
4.875
 20
90.875
 10
5.125
 20
90.875
 10
5.25
 20
90.75
 10
5.375
 20
90.75
 10
5.5
 20
90.625
 10
5.75
 20
90.625
 10
5.875
 20
90.5
 10
6.125
 20
90.5
 10
6.25
 20
90.375
 10
6.5
 20
90.375
 10
6.625
 20
90.25
 10
6.875
 20
90.25
 10
7.0
 20
90.125
 10
7.25
 20
90.125
 10
7.375
 20
90.0
 10
7.625
 20
90.0
 10
7.75
 20
89.875
 10
7.875
 20
89.875
 10
8.0
 20
89.75
 10
8.25
 20
89.75
 10
8.375
 20
89.625
 10
8.5
 20
89.625
 10
8.625
 20
89.5
 10
8.875
 20
89.5
 10
9.0
 20
89.375
 10
9.125
 20
89.375
 10
9.25
 20
89.25
 10
9.375
 20
89.25
 10
9.5
 20
89.125
 10
9.75
 20
89.125
 10
9.875
 20
89.0
 10
10.125
 20
89.0
 10
10.25
 20
88.875
 10
12.0
 20
88.875
 10
12.125
 20
89.0
 10
12.375
 20
89.0
 10
12.5
 20
89.125
 10
12.75
 20
89.125
 10
12.875
 20
89.25
 10
13.0
 20
89.25
 10
13.125
 20
89.375
 10
13.375
 20
89.375
 10
13.5
 20
89.5
 10
13.625
 20
89.5
 10
13.75
 20
89.625
 10
14.0
 20
89.625
 10
14.125
 20
89.75
 10
14.375
 20
89.75
 10
14.5
 20
89.875
 10
14.625
 20
89.875
 10
14.75
 20
90.0
 10
14.875
 20
90.0
 10
15.0
 20
90.125
 10
15.25
 20
90.125
 10
15.375
 20
90.25
 10
15.5
 20
90.25
 10
15.625
 20
90.375
 10
15.875
 20
90.375
 10
16.0
 20
90.5
 10
16.25
 20
90.5
 10
16.375
 20
90.625
 10
16.5
 20
90.625
 10
16.625
 20
90.75
 10
16.875
 20
90.75
 10
17.0
 20
90.875
 10
17.25
 20
90.875
 10
17.375
 20
91.0
 10
17.75
 20
91.0
 10
17.875
 20
91.125
 10
18.375
 20
91.125
 10
18.5
 20
91.25
 10
20.5
 20
91.25
 10
20.625
 20
91.125
 10
21.25
 20
91.125
 10
21.375
 20
91.0
 10
21.875
 20
91.0
 10
22.0
 20
90.875
 10
22.25
 20
90.875
 10
22.375
 20
90.75
 10
22.625
 20
90.75
 10
22.75
 20
90.625
 10
22.875
 20
90.625
 10
23.0
 20
90.5
 10
23.25
 20
90.5
 10
23.375
 20
90.375
 10
23.625
 20
90.375
 10
23.75
 20
90.25
 10
23.875
 20
90.25
 10
24.0
 20
90.125
 10
24.125
 20
90.125
 10
24.375
 20
89.875
 10
24.5
 20
89.875
 10
24.625
 20
89.75
 10
24.75
 20
89.75
 10
25.0
 20
89.5
 10
25.125
 20
89.5
 10
25.5
 20
89.125
 10
25.625
 20
89.125
 10
28.0
 20
86.75
 10
28.0
 20
86.625
 10
28.375
 20
86.25
 10
28.375
 20
86.125
 10
28.625
 20
85.875
 10
28.625
 20
85.75
 10
28.875
 20
85.5
 10
28.875
 20
85.375
 10
29.25
 20
85.0
  0
LWPOLYLINE
  5
35
330
17
100
AcDbEntity
  8
default
100
AcDbPolyline
 90
161
 70
0
 10
58.625
 20
84.5
 10
58.75
 20
84.375
 10
59.25
 20
84.375
 10
59.375
 20
84.5
 10
59.5
 20
84.5
 10
59.625
 20
84.625
 10
59.625
 20
84.75
 10
59.75
 20
84.875
 10
59.75
 20
85.125
 10
59.875
 20
85.25
 10
59.875
 20
85.625
 10
60.0
 20
85.75
 10
60.0
 20
86.0
 10
60.125
 20
86.125
 10
60.125
 20
86.375
 10
60.25
 20
86.5
 10
60.25
 20
86.625
 10
60.375
 20
86.75
 10
60.375
 20
87.0
 10
60.625
 20
87.25
 10
60.625
 20
87.375
 10
60.75
 20
87.5
 10
60.75
 20
87.625
 10
61.125
 20
88.0
 10
61.125
 20
88.125
 10
61.75
 20
88.75
 10
61.875
 20
88.75
 10
62.5
 20
89.375
 10
62.625
 20
89.375
 10
63.125
 20
89.875
 10
63.25
 20
89.875
 10
63.5
 20
90.125
 10
63.625
 20
90.125
 10
63.875
 20
90.375
 10
64.0
 20
90.375
 10
64.25
 20
90.625
 10
64.375
 20
90.625
 10
64.625
 20
90.875
 10
64.75
 20
90.875
 10
64.875
 20
91.0
 10
65.0
 20
91.0
 10
65.5
 20
91.5
 10
65.5
 20
91.75
 10
65.375
 20
91.875
 10
65.375
 20
92.125
 10
65.25
 20
92.25
 10
65.25
 20
92.375
 10
65.125
 20
92.5
 10
65.125
 20
92.75
 10
65.0
 20
92.875
 10
65.0
 20
93.0
 10
64.875
 20
93.125
 10
64.875
 20
93.25
 10
64.75
 20
93.375
 10
64.75
 20
93.5
 10
64.625
 20
93.625
 10
64.625
 20
93.75
 10
64.5
 20
93.875
 10
64.5
 20
94.125
 10
64.375
 20
94.25
 10
64.375
 20
94.375
 10
64.25
 20
94.5
 10
64.25
 20
94.625
 10
64.125
 20
94.75
 10
64.125
 20
95.0
 10
64.0
 20
95.125
 10
64.0
 20
95.375
 10
63.875
 20
95.5
 10
63.875
 20
96.0
 10
63.75
 20
96.125
 10
63.75
 20
96.75
 10
63.875
 20
96.875
 10
63.875
 20
97.375
 10
64.0
 20
97.5
 10
64.0
 20
98.0
 10
63.75
 20
98.25
 10
63.375
 20
98.25
 10
63.25
 20
98.375
 10
48.0
 20
98.375
 10
47.875
 20
98.25
 10
47.75
 20
98.25
 10
47.5
 20
98.0
 10
47.5
 20
97.5
 10
47.625
 20
97.375
 10
47.625
 20
97.125
 10
47.75
 20
97.0
 10
47.75
 20
96.75
 10
47.875
 20
96.625
 10
47.875
 20
96.5
 10
48.0
 20
96.375
 10
48.0
 20
96.125
 10
48.125
 20
96.0
 10
48.125
 20
95.75
 10
48.25
 20
95.625
 10
48.25
 20
95.5
 10
48.375
 20
95.375
 10
48.375
 20
95.25
 10
48.5
 20
95.125
 10
48.5
 20
94.875
 10
48.625
 20
94.75
 10
48.625
 20
94.625
 10
48.75
 20
94.5
 10
48.75
 20
94.25
 10
48.875
 20
94.125
 10
48.875
 20
94.0
 10
49.0
 20
93.875
 10
49.0
 20
93.625
 10
49.125
 20
93.5
 10
49.125
 20
93.125
 10
49.25
 20
93.0
 10
49.25
 20
92.75
 10
49.375
 20
92.625
 10
49.375
 20
92.25
 10
49.5
 20
92.125
 10
49.5
 20
91.75
 10
49.625
 20
91.625
 10
49.625
 20
91.125
 10
49.75
 20
91.0
 10
49.75
 20
90.25
 10
49.875
 20
90.125
 10
49.875
 20
88.25
 10
50.0
 20
88.125
 10
50.0
 20
87.75
 10
50.125
 20
87.625
 10
50.125
 20
87.5
 10
50.5
 20
87.125
 10
50.75
 20
87.125
 10
50.875
 20
87.0
 10
51.0
 20
87.0
 10
51.125
 20
86.875
 10
51.25
 20
86.875
 10
51.375
 20
86.75
 10
51.5
 20
86.75
 10
51.75
 20
86.5
 10
51.875
 20
86.5
 10
52.25
 20
86.125
 10
52.375
 20
86.125
 10
52.625
 20
85.875
 10
52.75
 20
85.875
 10
52.875
 20
85.75
 10
53.0
 20
85.75
 10
53.125
 20
85.625
 10
53.375
 20
85.625
 10
53.5
 20
85.5
 10
53.75
 20
85.5
 10
53.875
 20
85.375
 10
54.125
 20
85.375
 10
54.25
 20
85.25
 10
54.625
 20
85.25
 10
54.75
 20
85.125
 10
55.25
 20
85.125
 10
55.375
 20
85.0
 10
56.0
 20
85.0
 10
56.125
 20
84.875
 10
56.75
 20
84.875
 10
56.875
 20
84.75
 10
57.375
 20
84.75
 10
57.5
 20
84.625
 10
58.0
 20
84.625
 10
58.125
 20
84.5
 10
58.625
 20
84.5
  0
LWPOLYLINE
  5
36
330
17
100
AcDbEntity
  8
default
100
AcDbPolyline
 90
251
 70
0
 10
66.625
 20
82.5
 10
66.75
 20
82.375
 10
67.125
 20
82.375
 10
67.25
 20
82.5
 10
67.375
 20
82.5
 10
67.5
 20
82.625
 10
67.5
 20
82.75
 10
67.875
 20
83.125
 10
67.875
 20
83.25
 10
68.25
 20
83.625
 10
68.25
 20
83.75
 10
70.0
 20
85.5
 10
70.125
 20
85.5
 10
70.5
 20
85.875
 10
70.625
 20
85.875
 10
70.875
 20
86.125
 10
71.0
 20
86.125
 10
71.25
 20
86.375
 10
71.375
 20
86.375
 10
71.625
 20
86.625
 10
71.75
 20
86.625
 10
71.875
 20
86.75
 10
72.0
 20
86.75
 10
72.125
 20
86.875
 10
72.25
 20
86.875
 10
72.375
 20
87.0
 10
72.5
 20
87.0
 10
72.625
 20
87.125
 10
72.75
 20
87.125
 10
72.875
 20
87.25
 10
73.0
 20
87.25
 10
73.125
 20
87.375
 10
73.25
 20
87.375
 10
73.375
 20
87.5
 10
73.5
 20
87.5
 10
73.625
 20
87.625
 10
73.875
 20
87.625
 10
74.0
 20
87.75
 10
74.125
 20
87.75
 10
74.25
 20
87.875
 10
74.5
 20
87.875
 10
74.625
 20
88.0
 10
74.75
 20
88.0
 10
74.875
 20
88.125
 10
75.0
 20
88.125
 10
75.125
 20
88.25
 10
75.25
 20
88.25
 10
75.375
 20
88.375
 10
75.625
 20
88.375
 10
75.75
 20
88.5
 10
75.875
 20
88.5
 10
76.0
 20
88.625
 10
76.125
 20
88.625
 10
76.25
 20
88.75
 10
76.5
 20
88.75
 10
76.625
 20
88.875
 10
76.875
 20
88.875
 10
77.0
 20
89.0
 10
77.25
 20
89.0
 10
77.375
 20
89.125
 10
77.875
 20
89.125
 10
78.0
 20
89.25
 10
78.625
 20
89.25
 10
78.75
 20
89.375
 10
79.75
 20
89.375
 10
79.875
 20
89.5
 10
80.625
 20
89.5
 10
80.75
 20
89.625
 10
81.625
 20
89.625
 10
81.75
 20
89.75
 10
82.875
 20
89.75
 10
83.0
 20
89.875
 10
85.25
 20
89.875
 10
85.375
 20
89.75
 10
85.875
 20
89.75
 10
86.0
 20
89.625
 10
86.375
 20
89.625
 10
86.5
 20
89.5
 10
86.75
 20
89.5
 10
86.875
 20
89.375
 10
87.125
 20
89.375
 10
87.25
 20
89.25
 10
87.375
 20
89.25
 10
87.5
 20
89.125
 10
87.625
 20
89.125
 10
87.75
 20
89.0
 10
87.875
 20
89.0
 10
88.0
 20
88.875
 10
88.125
 20
88.875
 10
88.25
 20
88.75
 10
88.375
 20
88.75
 10
88.5
 20
88.625
 10
88.625
 20
88.625
 10
88.875
 20
88.375
 10
89.0
 20
88.375
 10
89.25
 20
88.125
 10
89.375
 20
88.125
 10
89.625
 20
87.875
 10
89.75
 20
87.875
 10
89.875
 20
87.75
 10
90.125
 20
87.75
 10
90.25
 20
87.625
 10
90.625
 20
87.625
 10
90.75
 20
87.75
 10
91.0
 20
87.75
 10
91.125
 20
87.875
 10
91.25
 20
87.875
 10
91.375
 20
88.0
 10
91.375
 20
88.125
 10
91.5
 20
88.25
 10
91.5
 20
88.375
 10
91.625
 20
88.5
 10
91.625
 20
88.625
 10
91.75
 20
88.75
 10
91.75
 20
89.125
 10
91.875
 20
89.25
 10
91.875
 20
89.625
 10
92.0
 20
89.75
 10
92.0
 20
90.25
 10
92.125
 20
90.375
 10
92.125
 20
90.75
 10
92.25
 20
90.875
 10
92.25
 20
91.625
 10
91.875
 20
92.0
 10
91.5
 20
92.0
 10
91.375
 20
92.125
 10
90.75
 20
92.125
 10
90.625
 20
92.25
 10
89.875
 20
92.25
 10
89.75
 20
92.375
 10
86.5
 20
92.375
 10
86.375
 20
92.25
 10
85.75
 20
92.25
 10
85.625
 20
92.125
 10
85.0
 20
92.125
 10
84.875
 20
92.0
 10
84.25
 20
92.0
 10
84.125
 20
91.875
 10
83.5
 20
91.875
 10
83.375
 20
91.75
 10
82.75
 20
91.75
 10
82.625
 20
91.625
 10
82.125
 20
91.625
 10
82.0
 20
91.5
 10
81.5
 20
91.5
 10
81.375
 20
91.375
 10
81.0
 20
91.375
 10
80.875
 20
91.25
 10
80.625
 20
91.25
 10
80.5
 20
91.125
 10
80.375
 20
91.125
 10
80.25
 20
91.0
 10
80.125
 20
91.0
 10
80.0
 20
90.875
 10
79.75
 20
90.875
 10
79.625
 20
90.75
 10
79.5
 20
90.75
 10
79.375
 20
90.625
 10
79.125
 20
90.625
 10
79.0
 20
90.5
 10
78.75
 20
90.5
 10
78.625
 20
90.375
 10
78.375
 20
90.375
 10
78.25
 20
90.25
 10
78.0
 20
90.25
 10
77.875
 20
90.125
 10
77.625
 20
90.125
 10
77.5
 20
90.0
 10
77.125
 20
90.0
 10
77.0
 20
89.875
 10
76.75
 20
89.875
 10
76.625
 20
89.75
 10
76.375
 20
89.75
 10
76.25
 20
89.625
 10
76.0
 20
89.625
 10
75.875
 20
89.5
 10
75.5
 20
89.5
 10
75.375
 20
89.375
 10
75.125
 20
89.375
 10
75.0
 20
89.25
 10
74.625
 20
89.25
 10
74.5
 20
89.125
 10
74.125
 20
89.125
 10
74.0
 20
89.0
 10
73.75
 20
89.0
 10
73.625
 20
88.875
 10
73.375
 20
88.875
 10
73.25
 20
88.75
 10
73.0
 20
88.75
 10
72.875
 20
88.625
 10
72.5
 20
88.625
 10
72.375
 20
88.5
 10
72.125
 20
88.5
 10
72.0
 20
88.375
 10
71.75
 20
88.375
 10
71.625
 20
88.25
 10
71.375
 20
88.25
 10
71.25
 20
88.125
 10
71.0
 20
88.125
 10
70.875
 20
88.0
 10
70.625
 20
88.0
 10
70.5
 20
87.875
 10
70.25
 20
87.875
 10
70.125
 20
87.75
 10
69.75
 20
87.75
 10
69.625
 20
87.625
 10
69.375
 20
87.625
 10
69.25
 20
87.5
 10
69.0
 20
87.5
 10
68.875
 20
87.375
 10
68.75
 20
87.375
 10
68.625
 20
87.25
 10
68.375
 20
87.25
 10
68.25
 20
87.125
 10
68.125
 20
87.125
 10
68.0
 20
87.0
 10
67.875
 20
87.0
 10
67.75
 20
86.875
 10
67.625
 20
86.875
 10
67.5
 20
86.75
 10
67.375
 20
86.75
 10
67.25
 20
86.625
 10
67.125
 20
86.625
 10
67.0
 20
86.5
 10
66.875
 20
86.5
 10
66.75
 20
86.375
 10
66.625
 20
86.375
 10
66.375
 20
86.125
 10
66.25
 20
86.125
 10
66.0
 20
85.875
 10
65.875
 20
85.875
 10
65.625
 20
85.625
 10
65.5
 20
85.625
 10
65.125
 20
85.25
 10
65.125
 20
85.125
 10
64.875
 20
84.875
 10
64.875
 20
84.75
 10
64.75
 20
84.625
 10
64.75
 20
84.375
 10
64.625
 20
84.25
 10
64.625
 20
83.25
 10
64.875
 20
83.0
 10
65.125
 20
83.0
 10
65.25
 20
82.875
 10
65.5
 20
82.875
 10
65.625
 20
82.75
 10
65.875
 20
82.75
 10
66.0
 20
82.625
 10
66.125
 20
82.625
 10
66.25
 20
82.5
 10
66.625
 20
82.5
  0
LWPOLYLINE
  5
37
330
17
100
AcDbEntity
  8
default
100
AcDbPolyline
 90
169
 70
0
 10
19.75
 20
79.25
 10
19.875
 20
79.125
 10
20.375
 20
79.125
 10
20.625
 20
79.375
 10
20.75
 20
79.375
 10
21.375
 20
80.0
 10
21.5
 20
80.0
 10
22.25
 20
80.75
 10
22.375
 20
80.75
 10
22.875
 20
81.25
 10
23.0
 20
81.25
 10
23.375
 20
81.625
 10
23.5
 20
81.625
 10
24.0
 20
82.125
 10
24.125
 20
82.125
 10
24.625
 20
82.625
 10
24.625
 20
83.0
 10
24.5
 20
83.125
 10
24.5
 20
83.25
 10
24.375
 20
83.375
 10
24.375
 20
83.5
 10
24.0
 20
83.875
 10
24.0
 20
84.0
 10
22.75
 20
85.25
 10
22.625
 20
85.25
 10
22.5
 20
85.375
 10
22.375
 20
85.375
 10
22.125
 20
85.625
 10
21.875
 20
85.625
 10
21.75
 20
85.75
 10
21.625
 20
85.75
 10
21.5
 20
85.875
 10
21.25
 20
85.875
 10
21.125
 20
86.0
 10
20.75
 20
86.0
 10
20.625
 20
86.125
 10
20.125
 20
86.125
 10
20.0
 20
86.25
 10
18.875
 20
86.25
 10
18.75
 20
86.125
 10
18.375
 20
86.125
 10
18.25
 20
86.0
 10
18.0
 20
86.0
 10
17.875
 20
85.875
 10
17.75
 20
85.875
 10
17.625
 20
85.75
 10
17.375
 20
85.75
 10
17.25
 20
85.625
 10
17.0
 20
85.625
 10
16.875
 20
85.5
 10
16.75
 20
85.5
 10
16.625
 20
85.375
 10
16.375
 20
85.375
 10
16.25
 20
85.25
 10
16.0
 20
85.25
 10
15.875
 20
85.125
 10
15.75
 20
85.125
 10
15.625
 20
85.0
 10
15.375
 20
85.0
 10
15.25
 20
84.875
 10
15.125
 20
84.875
 10
15.0
 20
84.75
 10
14.875
 20
84.75
 10
14.75
 20
84.625
 10
14.5
 20
84.625
 10
14.375
 20
84.5
 10
14.25
 20
84.5
 10
14.125
 20
84.375
 10
14.0
 20
84.375
 10
13.875
 20
84.25
 10
13.625
 20
84.25
 10
13.5
 20
84.125
 10
13.25
 20
84.125
 10
13.125
 20
84.0
 10
12.75
 20
84.0
 10
12.625
 20
83.875
 10
12.0
 20
83.875
 10
11.875
 20
83.75
 10
10.875
 20
83.75
 10
10.75
 20
83.875
 10
9.875
 20
83.875
 10
9.75
 20
84.0
 10
9.25
 20
84.0
 10
9.125
 20
84.125
 10
8.75
 20
84.125
 10
8.625
 20
84.25
 10
8.375
 20
84.25
 10
8.25
 20
84.375
 10
8.125
 20
84.375
 10
8.0
 20
84.5
 10
7.75
 20
84.5
 10
7.625
 20
84.625
 10
7.5
 20
84.625
 10
7.375
 20
84.75
 10
7.25
 20
84.75
 10
7.125
 20
84.875
 10
7.0
 20
84.875
 10
6.875
 20
85.0
 10
6.625
 20
85.0
 10
6.5
 20
85.125
 10
6.125
 20
85.125
 10
6.0
 20
85.0
 10
5.875
 20
85.0
 10
5.75
 20
84.875
 10
5.75
 20
84.75
 10
5.625
 20
84.625
 10
5.625
 20
84.5
 10
5.75
 20
84.375
 10
5.75
 20
84.125
 10
5.875
 20
84.0
 10
5.875
 20
83.875
 10
6.125
 20
83.625
 10
6.125
 20
83.5
 10
6.375
 20
83.25
 10
6.375
 20
83.125
 10
6.5
 20
83.0
 10
6.5
 20
82.875
 10
6.75
 20
82.625
 10
6.75
 20
82.5
 10
6.875
 20
82.375
 10
6.875
 20
82.25
 10
7.125
 20
82.0
 10
7.125
 20
81.875
 10
7.625
 20
81.375
 10
8.125
 20
81.375
 10
8.25
 20
81.5
 10
8.5
 20
81.5
 10
8.625
 20
81.625
 10
8.875
 20
81.625
 10
9.0
 20
81.75
 10
9.375
 20
81.75
 10
9.5
 20
81.875
 10
10.0
 20
81.875
 10
10.125
 20
82.0
 10
12.625
 20
82.0
 10
12.75
 20
82.125
 10
13.0
 20
82.125
 10
13.125
 20
82.25
 10
13.25
 20
82.25
 10
13.375
 20
82.375
 10
13.5
 20
82.375
 10
13.625
 20
82.5
 10
13.75
 20
82.5
 10
13.875
 20
82.625
 10
14.125
 20
82.625
 10
14.25
 20
82.75
 10
15.375
 20
82.75
 10
15.5
 20
82.625
 10
15.75
 20
82.625
 10
15.875
 20
82.5
 10
16.125
 20
82.5
 10
16.25
 20
82.375
 10
16.375
 20
82.375
 10
16.5
 20
82.25
 10
16.625
 20
82.25
 10
16.875
 20
82.0
 10
17.0
 20
82.0
 10
17.625
 20
81.375
 10
17.625
 20
81.25
 10
17.875
 20
81.0
 10
17.875
 20
80.875
 10
18.125
 20
80.625
 10
18.125
 20
80.5
 10
19.0
 20
79.625
 10
19.125
 20
79.625
 10
19.25
 20
79.5
 10
19.375
 20
79.5
 10
19.625
 20
79.25
 10
19.75
 20
79.25
  0
LWPOLYLINE
  5
38
330
17
100
AcDbEntity
  8
default
100
AcDbPolyline
 90
22
 70
0
 10
2.0
 20
77.625
 10
2.125
 20
77.75
 10
2.25
 20
77.75
 10
2.375
 20
77.875
 10
2.5
 20
77.875
 10
3.125
 20
78.5
 10
3.125
 20
79.125
 10
3.0
 20
79.25
 10
3.0
 20
79.375
 10
2.75
 20
79.625
 10
2.75
 20
79.75
 10
2.5
 20
80.0
 10
2.5
 20
80.125
 10
2.125
 20
80.5
 10
1.875
 20
80.5
 10
1.75
 20
80.375
 10
1.75
 20
80.0
 10
1.625
 20
79.875
 10
1.625
 20
78.25
 10
1.75
 20
78.125
 10
1.75
 20
77.875
 10
2.0
 20
77.625
  0
LWPOLYLINE
  5
39
330
17
100
AcDbEntity
  8
default
100
AcDbPolyline
 90
145
 70
0
 10
78.75
 20
75.375
 10
79.25
 20
75.375
 10
79.375
 20
75.5
 10
79.5
 20
75.5
 10
79.625
 20
75.625
 10
79.75
 20
75.625
 10
80.0
 20
75.875
 10
80.125
 20
75.875
 10
80.25
 20
76.0
 10
80.375
 20
76.0
 10
80.5
 20
76.125
 10
80.625
 20
76.125
 10
80.75
 20
76.25
 10
80.875
 20
76.25
 10
81.0
 20
76.375
 10
81.125
 20
76.375
 10
81.25
 20
76.5
 10
81.5
 20
76.5
 10
81.625
 20
76.625
 10
81.75
 20
76.625
 10
81.875
 20
76.75
 10
82.0
 20
76.75
 10
82.125
 20
76.875
 10
82.375
 20
76.875
 10
82.5
 20
77.0
 10
82.75
 20
77.0
 10
82.875
 20
77.125
 10
83.125
 20
77.125
 10
83.25
 20
77.25
 10
83.5
 20
77.25
 10
83.625
 20
77.375
 10
84.0
 20
77.375
 10
84.125
 20
77.5
 10
84.5
 20
77.5
 10
84.625
 20
77.625
 10
84.875
 20
77.625
 10
85.0
 20
77.75
 10
85.125
 20
77.75
 10
85.375
 20
78.0
 10
85.375
 20
78.25
 10
85.25
 20
78.375
 10
85.25
 20
78.5
 10
85.125
 20
78.625
 10
85.125
 20
78.875
 10
85.0
 20
79.0
 10
85.0
 20
80.0
 10
85.125
 20
80.125
 10
85.125
 20
80.375
 10
85.25
 20
80.5
 10
85.25
 20
80.625
 10
85.375
 20
80.75
 10
85.375
 20
80.875
 10
85.875
 20
81.375
 10
86.0
 20
81.375
 10
86.625
 20
82.0
 10
86.625
 20
82.25
 10
86.75
 20
82.375
 10
86.75
 20
82.5
 10
86.625
 20
82.625
 10
86.625
 20
83.75
 10
86.5
 20
83.875
 10
86.5
 20
84.0
 10
86.0
 20
84.5
 10
85.875
 20
84.5
 10
85.75
 20
84.625
 10
85.5
 20
84.625
 10
85.375
 20
84.75
 10
84.875
 20
84.75
 10
84.75
 20
84.875
 10
83.0
 20
84.875
 10
82.875
 20
84.75
 10
82.0
 20
84.75
 10
81.875
 20
84.625
 10
81.125
 20
84.625
 10
81.0
 20
84.5
 10
80.0
 20
84.5
 10
79.875
 20
84.375
 10
79.125
 20
84.375
 10
79.0
 20
84.25
 10
78.5
 20
84.25
 10
78.375
 20
84.125
 10
78.0
 20
84.125
 10
77.875
 20
84.0
 10
77.625
 20
84.0
 10
77.5
 20
83.875
 10
77.375
 20
83.875
 10
77.25
 20
83.75
 10
77.125
 20
83.75
 10
77.0
 20
83.625
 10
76.75
 20
83.625
 10
76.625
 20
83.5
 10
76.5
 20
83.5
 10
76.375
 20
83.375
 10
76.125
 20
83.375
 10
76.0
 20
83.25
 10
75.875
 20
83.25
 10
75.75
 20
83.125
 10
75.625
 20
83.125
 10
75.5
 20
83.0
 10
75.375
 20
83.0
 10
75.25
 20
82.875
 10
75.0
 20
82.875
 10
74.875
 20
82.75
 10
74.75
 20
82.75
 10
74.625
 20
82.625
 10
74.5
 20
82.625
 10
74.375
 20
82.5
 10
74.25
 20
82.5
 10
74.0
 20
82.25
 10
73.875
 20
82.25
 10
73.75
 20
82.125
 10
73.625
 20
82.125
 10
73.375
 20
81.875
 10
73.25
 20
81.875
 10
72.75
 20
81.375
 10
72.625
 20
81.375
 10
72.5
 20
81.25
 10
72.5
 20
81.125
 10
72.25
 20
80.875
 10
72.25
 20
80.375
 10
72.375
 20
80.25
 10
72.5
 20
80.25
 10
72.75
 20
80.0
 10
72.875
 20
80.0
 10
73.0
 20
79.875
 10
73.125
 20
79.875
 10
73.375
 20
79.625
 10
73.5
 20
79.625
 10
73.625
 20
79.5
 10
73.75
 20
79.5
 10
73.875
 20
79.375
 10
74.0
 20
79.375
 10
74.25
 20
79.125
 10
74.375
 20
79.125
 10
74.5
 20
79.0
 10
74.625
 20
79.0
 10
74.875
 20
78.75
 10
75.0
 20
78.75
 10
75.5
 20
78.25
 10
75.625
 20
78.25
 10
76.5
 20
77.375
 10
76.625
 20
77.375
 10
78.375
 20
75.625
 10
78.5
 20
75.625
 10
78.75
 20
75.375
  0
LWPOLYLINE
  5
3A
330
17
100
AcDbEntity
  8
default
100
AcDbPolyline
 90
81
 70
0
 10
62.875
 20
74.375
 10
63.0
 20
74.25
 10
63.125
 20
74.25
 10
63.375
 20
74.5
 10
63.375
 20
78.0
 10
62.875
 20
78.5
 10
62.5
 20
78.5
 10
62.375
 20
78.625
 10
62.0
 20
78.625
 10
61.875
 20
78.75
 10
61.375
 20
78.75
 10
61.25
 20
78.875
 10
60.875
 20
78.875
 10
60.75
 20
79.0
 10
60.25
 20
79.0
 10
60.125
 20
79.125
 10
59.625
 20
79.125
 10
59.5
 20
79.25
 10
59.125
 20
79.25
 10
59.0
 20
79.375
 10
58.5
 20
79.375
 10
58.375
 20
79.5
 10
57.875
 20
79.5
 10
57.75
 20
79.625
 10
57.25
 20
79.625
 10
57.125
 20
79.75
 10
56.5
 20
79.75
 10
56.375
 20
79.875
 10
55.75
 20
79.875
 10
55.625
 20
80.0
 10
55.125
 20
80.0
 10
55.0
 20
80.125
 10
54.5
 20
80.125
 10
54.375
 20
80.25
 10
53.625
 20
80.25
 10
53.375
 20
80.0
 10
53.375
 20
79.0
 10
53.5
 20
78.875
 10
53.5
 20
78.25
 10
53.625
 20
78.125
 10
53.625
 20
77.75
 10
53.75
 20
77.625
 10
53.75
 20
77.0
 10
53.875
 20
76.875
 10
53.875
 20
76.0
 10
54.0
 20
75.875
 10
54.0
 20
75.5
 10
54.125
 20
75.375
 10
54.125
 20
75.25
 10
54.25
 20
75.125
 10
54.375
 20
75.125
 10
54.5
 20
75.25
 10
54.75
 20
75.25
 10
54.875
 20
75.375
 10
56.0
 20
75.375
 10
56.125
 20
75.25
 10
56.375
 20
75.25
 10
56.5
 20
75.125
 10
56.625
 20
75.125
 10
56.75
 20
75.0
 10
56.875
 20
75.0
 10
57.375
 20
74.5
 10
57.5
 20
74.5
 10
57.625
 20
74.375
 10
58.875
 20
74.375
 10
59.0
 20
74.5
 10
59.375
 20
74.5
 10
59.5
 20
74.625
 10
59.875
 20
74.625
 10
60.0
 20
74.75
 10
60.625
 20
74.75
 10
60.75
 20
74.875
 10
61.5
 20
74.875
 10
61.625
 20
74.75
 10
62.0
 20
74.75
 10
62.125
 20
74.625
 10
62.375
 20
74.625
 10
62.5
 20
74.5
 10
62.625
 20
74.5
 10
62.75
 20
74.375
 10
62.875
 20
74.375
  0
LWPOLYLINE
  5
3B
330
17
100
AcDbEntity
  8
default
100
AcDbPolyline
 90
29
 70
0
 10
69.0
 20
73.0
 10
69.125
 20
73.125
 10
69.125
 20
73.375
 10
69.25
 20
73.5
 10
69.25
 20
73.875
 10
69.375
 20
74.0
 10
69.375
 20
74.375
 10
69.5
 20
74.5
 10
69.5
 20
74.75
 10
69.625
 20
74.875
 10
69.625
 20
75.125
 10
69.75
 20
75.25
 10
69.75
 20
75.875
 10
69.375
 20
76.25
 10
69.25
 20
76.25
 10
69.125
 20
76.375
 10
68.875
 20
76.375
 10
68.75
 20
76.5
 10
68.5
 20
76.25
 10
68.5
 20
76.125
 10
68.375
 20
76.0
 10
68.375
 20
75.25
 10
68.5
 20
75.125
 10
68.5
 20
74.125
 10
68.625
 20
74.0
 10
68.625
 20
73.5
 10
68.75
 20
73.375
 10
68.75
 20
73.25
 10
69.0
 20
73.0
  0
LWPOLYLINE
  5
3C
330
17
100
AcDbEntity
  8
default
100
AcDbPolyline
 90
107
 70
0
 10
30.375
 20
71.75
 10
30.5
 20
71.625
 10
48.5
 20
71.625
 10
48.75
 20
71.875
 10
48.75
 20
72.0
 10
48.875
 20
72.125
 10
48.875
 20
76.5
 10
48.75
 20
76.625
 10
48.75
 20
77.25
 10
48.625
 20
77.375
 10
48.625
 20
77.875
 10
48.5
 20
78.0
 10
48.5
 20
78.625
 10
48.375
 20
78.75
 10
48.375
 20
79.875
 10
48.25
 20
80.0
 10
48.25
 20
80.5
 10
48.375
 20
80.625
 10
48.375
 20
81.5
 10
48.5
 20
81.625
 10
48.5
 20
82.0
 10
48.625
 20
82.125
 10
48.625
 20
82.25
 10
48.375
 20
82.5
 10
48.25
 20
82.5
 10
48.125
 20
82.625
 10
47.875
 20
82.625
 10
47.75
 20
82.75
 10
46.75
 20
82.75
 10
46.625
 20
82.875
 10
45.625
 20
82.875
 10
45.5
 20
83.0
 10
42.375
 20
83.0
 10
42.25
 20
82.875
 10
41.5
 20
82.875
 10
41.375
 20
82.75
 10
40.75
 20
82.75
 10
40.625
 20
82.625
 10
40.125
 20
82.625
 10
40.0
 20
82.5
 10
39.375
 20
82.5
 10
39.25
 20
82.375
 10
38.75
 20
82.375
 10
38.625
 20
82.25
 10
38.125
 20
82.25
 10
38.0
 20
82.125
 10
37.625
 20
82.125
 10
37.5
 20
82.0
 10
37.125
 20
82.0
 10
37.0
 20
81.875
 10
36.625
 20
81.875
 10
36.5
 20
81.75
 10
36.125
 20
81.75
 10
36.0
 20
81.625
 10
35.625
 20
81.625
 10
35.5
 20
81.5
 10
35.125
 20
81.5
 10
35.0
 20
81.375
 10
34.625
 20
81.375
 10
34.5
 20
81.25
 10
34.125
 20
81.25
 10
34.0
 20
81.125
 10
33.75
 20
81.125
 10
33.625
 20
81.0
 10
33.25
 20
81.0
 10
33.125
 20
80.875
 10
32.875
 20
80.875
 10
32.75
 20
80.75
 10
32.5
 20
80.75
 10
32.375
 20
80.625
 10
32.125
 20
80.625
 10
32.0
 20
80.5
 10
31.875
 20
80.5
 10
31.75
 20
80.375
 10
31.5
 20
80.375
 10
31.375
 20
80.25
 10
31.125
 20
80.25
 10
31.0
 20
80.125
 10
30.875
 20
80.125
 10
30.75
 20
80.0
 10
30.5
 20
80.0
 10
30.375
 20
79.875
 10
30.25
 20
79.875
 10
30.125
 20
79.75
 10
30.0
 20
79.75
 10
29.875
 20
79.625
 10
29.75
 20
79.625
 10
29.5
 20
79.375
 10
29.5
 20
79.25
 10
29.375
 20
79.125
 10
29.375
 20
79.0
 10
29.5
 20
78.875
 10
29.5
 20
78.625
 10
29.625
 20
78.5
 10
29.625
 20
78.25
 10
29.75
 20
78.125
 10
29.75
 20
77.875
 10
29.875
 20
77.75
 10
29.875
 20
77.375
 10
30.0
 20
77.25
 10
30.0
 20
76.75
 10
30.125
 20
76.625
 10
30.125
 20
75.875
 10
30.25
 20
75.75
 10
30.25
 20
72.0
 10
30.375
 20
71.875
 10
30.375
 20
71.75
  0
LWPOLYLINE
  5
3D
330
17
100
AcDbEntity
  8
default
100
AcDbPolyline
 90
129
 70
0
 10
12.125
 20
69.25
 10
12.25
 20
69.125
 10
12.75
 20
69.125
 10
12.875
 20
69.25
 10
13.0
 20
69.25
 10
13.375
 20
69.625
 10
13.375
 20
69.75
 10
13.5
 20
69.875
 10
13.5
 20
70.0
 10
13.625
 20
70.125
 10
13.625
 20
70.375
 10
13.75
 20
70.5
 10
13.75
 20
70.625
 10
13.875
 20
70.75
 10
13.875
 20
70.875
 10
14.0
 20
71.0
 10
14.0
 20
71.125
 10
14.125
 20
71.25
 10
14.125
 20
71.375
 10
14.25
 20
71.5
 10
14.25
 20
71.625
 10
14.375
 20
71.75
 10
14.375
 20
71.875
 10
14.5
 20
72.0
 10
14.5
 20
72.125
 10
14.625
 20
72.25
 10
14.625
 20
72.375
 10
14.75
 20
72.5
 10
14.75
 20
72.625
 10
14.875
 20
72.75
 10
14.875
 20
72.875
 10
15.125
 20
73.125
 10
15.125
 20
73.25
 10
15.5
 20
73.625
 10
15.5
 20
73.75
 10
15.875
 20
74.125
 10
15.875
 20
74.25
 10
16.125
 20
74.5
 10
16.125
 20
74.625
 10
16.25
 20
74.75
 10
16.25
 20
74.875
 10
16.375
 20
75.0
 10
16.375
 20
75.375
 10
15.875
 20
75.875
 10
15.625
 20
75.875
 10
15.5
 20
76.0
 10
15.25
 20
76.0
 10
15.125
 20
76.125
 10
14.875
 20
76.125
 10
14.75
 20
76.25
 10
14.5
 20
76.25
 10
14.375
 20
76.375
 10
14.125
 20
76.375
 10
14.0
 20
76.5
 10
13.625
 20
76.5
 10
13.5
 20
76.625
 10
13.25
 20
76.625
 10
13.125
 20
76.75
 10
12.75
 20
76.75
 10
12.625
 20
76.875
 10
12.125
 20
76.875
 10
12.0
 20
77.0
 10
10.5
 20
77.0
 10
10.375
 20
76.875
 10
10.0
 20
76.875
 10
9.875
 20
76.75
 10
9.75
 20
76.75
 10
9.625
 20
76.625
 10
9.5
 20
76.625
 10
9.375
 20
76.5
 10
9.25
 20
76.5
 10
9.125
 20
76.375
 10
9.0
 20
76.375
 10
8.875
 20
76.25
 10
8.75
 20
76.25
 10
8.5
 20
76.0
 10
8.375
 20
76.0
 10
8.125
 20
75.75
 10
8.0
 20
75.75
 10
7.875
 20
75.625
 10
7.75
 20
75.625
 10
7.5
 20
75.375
 10
7.375
 20
75.375
 10
7.25
 20
75.25
 10
7.125
 20
75.25
 10
7.0
 20
75.125
 10
6.875
 20
75.125
 10
6.25
 20
74.5
 10
6.25
 20
74.25
 10
6.375
 20
74.125
 10
6.375
 20
74.0
 10
6.625
 20
73.75
 10
6.625
 20
73.625
 10
7.0
 20
73.25
 10
7.0
 20
73.125
 10
7.375
 20
72.75
 10
7.375
 20
72.625
 10
7.625
 20
72.375
 10
7.625
 20
72.25
 10
7.75
 20
72.125
 10
7.75
 20
72.0
 10
8.0
 20
71.75
 10
8.0
 20
71.625
 10
8.125
 20
71.5
 10
8.125
 20
71.375
 10
8.25
 20
71.25
 10
8.25
 20
71.125
 10
8.75
 20
70.625
 10
8.875
 20
70.625
 10
9.125
 20
70.375
 10
9.25
 20
70.375
 10
9.375
 20
70.25
 10
9.625
 20
70.25
 10
9.75
 20
70.125
 10
9.875
 20
70.125
 10
10.0
 20
70.0
 10
10.125
 20
70.0
 10
10.25
 20
69.875
 10
10.5
 20
69.875
 10
10.625
 20
69.75
 10
10.75
 20
69.75
 10
10.875
 20
69.625
 10
11.0
 20
69.625
 10
11.125
 20
69.5
 10
11.375
 20
69.5
 10
11.5
 20
69.375
 10
11.625
 20
69.375
 10
11.75
 20
69.25
 10
12.125
 20
69.25
  0
LWPOLYLINE
  5
3E
330
17
100
AcDbEntity
  8
default
100
AcDbPolyline
 90
51
 70
0
 10
76.25
 20
66.75
 10
76.375
 20
66.625
 10
76.75
 20
66.625
 10
76.875
 20
66.75
 10
77.0
 20
66.75
 10
77.125
 20
66.875
 10
77.125
 20
67.0
 10
77.625
 20
67.5
 10
77.625
 20
67.625
 10
77.75
 20
67.625
 10
77.875
 20
67.75
 10
77.875
 20
67.875
 10
78.125
 20
68.125
 10
78.125
 20
68.375
 10
78.25
 20
68.5
 10
78.125
 20
68.625
 10
78.125
 20
68.875
 10
77.875
 20
69.125
 10
77.875
 20
69.25
 10
77.375
 20
69.75
 10
77.375
 20
69.875
 10
76.625
 20
70.625
 10
76.625
 20
70.75
 10
75.375
 20
72.0
 10
75.25
 20
72.0
 10
74.75
 20
72.5
 10
74.625
 20
72.5
 10
74.5
 20
72.375
 10
74.5
 20
71.875
 10
74.625
 20
71.75
 10
74.625
 20
71.625
 10
74.75
 20
71.5
 10
74.75
 20
71.375
 10
74.875
 20
71.25
 10
74.875
 20
71.0
 10
75.0
 20
70.875
 10
75.0
 20
70.625
 10
75.125
 20
70.5
 10
75.125
 20
70.125
 10
75.25
 20
70.0
 10
75.25
 20
69.25
 10
75.375
 20
69.125
 10
75.375
 20
68.375
 10
75.5
 20
68.25
 10
75.5
 20
67.625
 10
75.625
 20
67.5
 10
75.625
 20
67.375
 10
75.75
 20
67.25
 10
75.75
 20
67.125
 10
76.125
 20
66.75
 10
76.25
 20
66.75
  0
LWPOLYLINE
  5
3F
330
17
100
AcDbEntity
  8
default
100
AcDbPolyline
 90
73
 70
0
 10
22.125
 20
66.375
 10
22.25
 20
66.25
 10
22.875
 20
66.875
 10
22.875
 20
67.0
 10
23.25
 20
67.375
 10
23.25
 20
67.5
 10
23.5
 20
67.75
 10
23.5
 20
67.875
 10
23.75
 20
68.125
 10
23.75
 20
68.25
 10
24.25
 20
68.75
 10
24.25
 20
68.875
 10
24.375
 20
69.0
 10
24.375
 20
69.125
 10
24.5
 20
69.25
 10
24.5
 20
69.375
 10
24.625
 20
69.5
 10
24.625
 20
69.625
 10
24.75
 20
69.75
 10
24.75
 20
70.0
 10
24.875
 20
70.125
 10
24.875
 20
70.75
 10
25.0
 20
70.875
 10
25.0
 20
71.5
 10
25.125
 20
71.625
 10
25.125
 20
72.625
 10
25.25
 20
72.75
 10
25.25
 20
75.5
 10
25.125
 20
75.625
 10
25.125
 20
76.0
 10
25.0
 20
76.125
 10
25.0
 20
76.25
 10
24.875
 20
76.375
 10
24.625
 20
76.375
 10
24.5
 20
76.25
 10
24.375
 20
76.25
 10
23.75
 20
75.625
 10
23.625
 20
75.625
 10
22.75
 20
74.75
 10
22.625
 20
74.75
 10
22.125
 20
74.25
 10
22.125
 20
74.125
 10
22.0
 20
74.125
 10
21.875
 20
74.0
 10
21.875
 20
73.875
 10
20.625
 20
72.625
 10
20.625
 20
72.5
 10
20.25
 20
72.125
 10
20.25
 20
72.0
 10
20.125
 20
71.875
 10
20.125
 20
71.0
 10
20.25
 20
70.875
 10
20.25
 20
70.75
 10
20.375
 20
70.625
 10
20.375
 20
70.5
 10
20.625
 20
70.25
 10
20.625
 20
70.0
 10
20.875
 20
69.75
 10
20.875
 20
69.625
 10
21.0
 20
69.5
 10
21.0
 20
69.375
 10
21.125
 20
69.25
 10
21.125
 20
69.0
 10
21.5
 20
68.625
 10
21.5
 20
68.5
 10
21.625
 20
68.375
 10
21.625
 20
68.25
 10
21.875
 20
68.0
 10
21.875
 20
67.75
 10
22.0
 20
67.625
 10
22.0
 20
66.625
 10
22.125
 20
66.5
 10
22.125
 20
66.375
  0
LWPOLYLINE
  5
40
330
17
100
AcDbEntity
  8
default
100
AcDbPolyline
 90
68
 70
0
 10
86.125
 20
66.25
 10
86.25
 20
66.125
 10
86.625
 20
66.5
 10
86.625
 20
67.0
 10
86.5
 20
67.125
 10
86.5
 20
68.375
 10
86.625
 20
68.5
 10
86.625
 20
68.75
 10
86.75
 20
68.875
 10
86.75
 20
69.0
 10
86.875
 20
69.125
 10
86.875
 20
69.25
 10
87.0
 20
69.375
 10
87.0
 20
69.75
 10
86.875
 20
69.875
 10
86.875
 20
70.125
 10
86.75
 20
70.25
 10
86.75
 20
70.375
 10
86.625
 20
70.5
 10
86.625
 20
70.625
 10
86.5
 20
70.75
 10
86.5
 20
71.0
 10
86.375
 20
71.125
 10
86.375
 20
71.375
 10
86.25
 20
71.5
 10
86.25
 20
71.75
 10
86.125
 20
71.875
 10
86.125
 20
72.25
 10
85.75
 20
72.625
 10
85.125
 20
72.625
 10
85.0
 20
72.5
 10
84.625
 20
72.5
 10
84.5
 20
72.375
 10
84.25
 20
72.375
 10
84.125
 20
72.25
 10
83.875
 20
72.25
 10
83.75
 20
72.125
 10
83.5
 20
72.125
 10
83.375
 20
72.0
 10
83.25
 20
72.0
 10
83.125
 20
71.875
 10
83.0
 20
71.875
 10
82.5
 20
71.375
 10
82.5
 20
71.125
 10
82.75
 20
70.875
 10
82.75
 20
70.75
 10
83.25
 20
70.25
 10
83.25
 20
70.125
 10
83.625
 20
69.75
 10
83.625
 20
69.625
 10
84.0
 20
69.25
 10
84.0
 20
69.125
 10
84.25
 20
68.875
 10
84.25
 20
68.75
 10
84.5
 20
68.5
 10
84.5
 20
68.375
 10
84.625
 20
68.25
 10
84.625
 20
68.125
 10
84.875
 20
67.875
 10
84.875
 20
67.75
 10
85.125
 20
67.5
 10
85.125
 20
67.375
 10
85.375
 20
67.125
 10
85.375
 20
67.0
 10
85.625
 20
66.75
 10
85.625
 20
66.625
 10
86.0
 20
66.25
 10
86.125
 20
66.25
  0
LWPOLYLINE
  5
41
330
17
100
AcDbEntity
  8
default
100
AcDbPolyline
 90
165
 70
0
 10
97.75
 20
64.25
 10
97.875
 20
64.125
 10
98.0
 20
64.125
 10
98.25
 20
64.375
 10
98.25
 20
64.625
 10
98.375
 20
64.75
 10
98.375
 20
89.875
 10
98.25
 20
90.0
 10
98.25
 20
90.25
 10
98.0
 20
90.5
 10
97.5
 20
90.5
 10
97.125
 20
90.125
 10
97.125
 20
89.875
 10
97.0
 20
89.75
 10
97.0
 20
89.375
 10
96.875
 20
89.25
 10
96.875
 20
88.75
 10
96.75
 20
88.625
 10
96.75
 20
88.125
 10
96.625
 20
88.0
 10
96.625
 20
87.625
 10
96.5
 20
87.5
 10
96.5
 20
87.25
 10
96.375
 20
87.125
 10
96.375
 20
86.875
 10
96.25
 20
86.75
 10
96.25
 20
86.5
 10
96.125
 20
86.375
 10
96.125
 20
86.25
 10
96.0
 20
86.125
 10
96.0
 20
86.0
 10
95.875
 20
85.875
 10
95.875
 20
85.75
 10
95.625
 20
85.5
 10
95.625
 20
85.375
 10
94.375
 20
84.125
 10
94.25
 20
84.125
 10
93.75
 20
83.625
 10
93.625
 20
83.625
 10
93.375
 20
83.375
 10
93.25
 20
83.375
 10
93.125
 20
83.25
 10
93.0
 20
83.25
 10
92.875
 20
83.125
 10
92.75
 20
83.125
 10
92.625
 20
83.0
 10
92.375
 20
83.0
 10
92.25
 20
82.875
 10
92.125
 20
82.875
 10
92.0
 20
82.75
 10
91.875
 20
82.75
 10
91.625
 20
82.5
 10
91.5
 20
82.5
 10
91.25
 20
82.25
 10
91.25
 20
82.125
 10
91.125
 20
82.0
 10
91.125
 20
81.75
 10
91.0
 20
81.625
 10
91.0
 20
81.5
 10
91.125
 20
81.375
 10
91.125
 20
81.125
 10
91.375
 20
80.875
 10
91.375
 20
80.75
 10
91.5
 20
80.625
 10
91.5
 20
80.5
 10
91.625
 20
80.375
 10
91.625
 20
80.25
 10
91.75
 20
80.125
 10
91.75
 20
79.875
 10
91.875
 20
79.75
 10
91.875
 20
79.375
 10
92.0
 20
79.25
 10
92.0
 20
79.125
 10
92.5
 20
78.625
 10
92.625
 20
78.625
 10
92.75
 20
78.5
 10
93.0
 20
78.5
 10
93.125
 20
78.375
 10
93.375
 20
78.375
 10
93.5
 20
78.25
 10
93.625
 20
78.25
 10
93.75
 20
78.125
 10
93.875
 20
78.125
 10
94.25
 20
77.75
 10
94.375
 20
77.75
 10
94.625
 20
77.5
 10
94.625
 20
77.375
 10
94.875
 20
77.125
 10
94.875
 20
77.0
 10
95.125
 20
76.75
 10
95.125
 20
76.625
 10
95.25
 20
76.5
 10
95.25
 20
76.375
 10
95.375
 20
76.25
 10
95.375
 20
76.125
 10
95.5
 20
76.0
 10
95.5
 20
75.75
 10
95.625
 20
75.625
 10
95.625
 20
75.375
 10
95.75
 20
75.25
 10
95.75
 20
75.0
 10
95.875
 20
74.875
 10
95.875
 20
74.625
 10
96.0
 20
74.5
 10
96.0
 20
74.25
 10
96.125
 20
74.125
 10
96.125
 20
73.75
 10
96.25
 20
73.625
 10
96.25
 20
73.375
 10
96.375
 20
73.25
 10
96.375
 20
72.875
 10
96.5
 20
72.75
 10
96.5
 20
72.5
 10
96.625
 20
72.375
 10
96.625
 20
72.125
 10
96.75
 20
72.0
 10
96.75
 20
71.75
 10
96.875
 20
71.625
 10
96.875
 20
71.375
 10
97.0
 20
71.25
 10
97.0
 20
71.0
 10
97.125
 20
70.875
 10
97.125
 20
70.625
 10
97.25
 20
70.5
 10
97.25
 20
70.125
 10
97.375
 20
70.0
 10
97.375
 20
69.125
 10
97.25
 20
69.0
 10
97.25
 20
68.75
 10
97.125
 20
68.625
 10
97.125
 20
68.5
 10
97.0
 20
68.375
 10
97.0
 20
68.25
 10
96.75
 20
68.0
 10
96.75
 20
67.875
 10
96.625
 20
67.75
 10
96.5
 20
67.75
 10
96.25
 20
67.5
 10
96.125
 20
67.5
 10
96.0
 20
67.375
 10
95.875
 20
67.375
 10
95.75
 20
67.25
 10
94.375
 20
67.25
 10
94.25
 20
67.375
 10
93.75
 20
67.375
 10
93.625
 20
67.25
 10
93.625
 20
67.125
 10
94.125
 20
66.625
 10
94.25
 20
66.625
 10
94.625
 20
66.25
 10
94.75
 20
66.25
 10
95.0
 20
66.0
 10
95.125
 20
66.0
 10
95.375
 20
65.75
 10
95.5
 20
65.75
 10
95.75
 20
65.5
 10
95.875
 20
65.5
 10
96.25
 20
65.125
 10
96.375
 20
65.125
 10
96.75
 20
64.75
 10
96.875
 20
64.75
 10
97.125
 20
64.5
 10
97.25
 20
64.5
 10
97.5
 20
64.25
 10
97.75
 20
64.25
  0
LWPOLYLINE
  5
42
330
17
100
AcDbEntity
  8
default
100
AcDbPolyline
 90
36
 70
0
 10
2.0
 20
63.75
 10
2.25
 20
63.75
 10
2.375
 20
63.875
 10
2.5
 20
63.875
 10
2.875
 20
64.25
 10
2.875
 20
64.75
 10
2.75
 20
64.875
 10
2.75
 20
66.625
 10
2.875
 20
66.75
 10
2.875
 20
67.125
 10
3.0
 20
67.25
 10
3.0
 20
67.75
 10
3.125
 20
67.875
 10
3.125
 20
68.25
 10
3.25
 20
68.375
 10
3.25
 20
68.75
 10
3.375
 20
68.875
 10
3.375
 20
69.25
 10
3.5
 20
69.375
 10
3.5
 20
69.75
 10
3.375
 20
69.875
 10
3.375
 20
70.0
 10
3.25
 20
70.125
 10
3.25
 20
70.25
 10
3.0
 20
70.5
 10
3.0
 20
70.625
 10
2.25
 20
71.375
 10
2.125
 20
71.375
 10
2.0
 20
71.5
 10
1.75
 20
71.25
 10
1.75
 20
71.0
 10
1.625
 20
70.875
 10
1.625
 20
64.5
 10
1.75
 20
64.375
 10
1.75
 20
64.0
 10
2.0
 20
63.75
  0
LWPOLYLINE
  5
43
330
17
100
AcDbEntity
  8
default
100
AcDbPolyline
 90
51
 70
0
 10
6.375
 20
62.125
 10
6.5
 20
62.0
 10
6.875
 20
62.0
 10
7.0
 20
62.125
 10
7.625
 20
62.125
 10
7.75
 20
62.25
 10
8.125
 20
62.25
 10
8.25
 20
62.375
 10
8.375
 20
62.375
 10
8.75
 20
62.75
 10
8.75
 20
62.875
 10
9.0
 20
63.125
 10
9.0
 20
63.25
 10
9.125
 20
63.375
 10
9.125
 20
63.5
 10
9.25
 20
63.625
 10
9.25
 20
63.75
 10
9.5
 20
64.0
 10
9.5
 20
64.125
 10
9.625
 20
64.25
 10
9.625
 20
64.625
 10
9.25
 20
65.0
 10
9.125
 20
65.0
 10
9.0
 20
65.125
 10
8.875
 20
65.125
 10
8.75
 20
65.25
 10
8.5
 20
65.25
 10
8.375
 20
65.375
 10
7.875
 20
65.375
 10
7.75
 20
65.25
 10
7.625
 20
65.25
 10
7.375
 20
65.0
 10
7.375
 20
64.875
 10
7.25
 20
64.75
 10
7.25
 20
64.625
 10
7.0
 20
64.375
 10
7.0
 20
64.25
 10
6.375
 20
63.625
 10
6.25
 20
63.625
 10
6.0
 20
63.375
 10
5.875
 20
63.375
 10
5.75
 20
63.25
 10
5.75
 20
63.125
 10
5.625
 20
63.0
 10
5.625
 20
62.625
 10
5.75
 20
62.5
 10
5.75
 20
62.375
 10
5.875
 20
62.25
 10
6.125
 20
62.25
 10
6.25
 20
62.125
 10
6.375
 20
62.125
  0
LWPOLYLINE
  5
44
330
17
100
AcDbEntity
  8
default
100
AcDbPolyline
 90
75
 70
0
 10
17.25
 20
60.625
 10
17.625
 20
60.625
 10
17.75
 20
60.75
 10
18.0
 20
60.75
 10
18.125
 20
60.875
 10
18.25
 20
60.875
 10
18.375
 20
61.0
 10
18.5
 20
61.0
 10
18.625
 20
61.125
 10
18.75
 20
61.125
 10
19.0
 20
61.375
 10
19.125
 20
61.375
 10
19.75
 20
62.0
 10
19.75
 20
62.125
 10
20.125
 20
62.5
 10
20.125
 20
62.625
 10
20.375
 20
62.875
 10
20.375
 20
63.0
 10
20.625
 20
63.25
 10
20.625
 20
63.375
 10
20.75
 20
63.5
 10
20.75
 20
63.625
 10
21.0
 20
63.875
 10
21.0
 20
64.0
 10
21.125
 20
64.125
 10
21.125
 20
64.25
 10
21.25
 20
64.375
 10
21.25
 20
64.5
 10
21.375
 20
64.625
 10
21.375
 20
64.75
 10
21.5
 20
64.875
 10
21.5
 20
65.0
 10
21.375
 20
65.125
 10
21.125
 20
65.125
 10
21.0
 20
65.0
 10
20.875
 20
65.0
 10
20.75
 20
64.875
 10
20.625
 20
64.875
 10
20.5
 20
64.75
 10
20.375
 20
64.75
 10
20.25
 20
64.625
 10
20.0
 20
64.625
 10
19.875
 20
64.5
 10
19.5
 20
64.5
 10
19.375
 20
64.375
 10
17.5
 20
64.375
 10
17.375
 20
64.5
 10
17.0
 20
64.5
 10
16.875
 20
64.625
 10
16.375
 20
64.625
 10
16.25
 20
64.5
 10
16.125
 20
64.5
 10
15.875
 20
64.25
 10
15.875
 20
64.125
 10
15.75
 20
64.0
 10
15.75
 20
63.875
 10
15.625
 20
63.75
 10
15.625
 20
63.625
 10
15.75
 20
63.5
 10
15.75
 20
63.375
 10
15.875
 20
63.25
 10
15.875
 20
63.125
 10
16.0
 20
63.0
 10
16.0
 20
62.875
 10
16.25
 20
62.625
 10
16.25
 20
62.375
 10
16.375
 20
62.25
 10
16.375
 20
62.125
 10
16.5
 20
62.0
 10
16.5
 20
61.75
 10
16.625
 20
61.625
 10
16.625
 20
61.5
 10
16.75
 20
61.375
 10
16.75
 20
61.125
 10
17.25
 20
60.625
  0
LWPOLYLINE
  5
45
330
17
100
AcDbEntity
  8
default
100
AcDbPolyline
 90
59
 70
0
 10
93.625
 20
57.375
 10
93.75
 20
57.25
 10
93.875
 20
57.25
 10
94.0
 20
57.375
 10
94.125
 20
57.375
 10
94.5
 20
57.75
 10
94.5
 20
57.875
 10
94.75
 20
58.125
 10
94.75
 20
58.25
 10
95.125
 20
58.625
 10
95.125
 20
58.75
 10
95.375
 20
59.0
 10
95.375
 20
59.125
 10
95.5
 20
59.25
 10
95.5
 20
59.5
 10
95.375
 20
59.625
 10
95.375
 20
59.75
 10
95.0
 20
60.125
 10
94.875
 20
60.125
 10
94.625
 20
60.375
 10
94.5
 20
60.375
 10
94.125
 20
60.75
 10
94.0
 20
60.75
 10
93.625
 20
61.125
 10
93.5
 20
61.125
 10
93.125
 20
61.5
 10
93.0
 20
61.5
 10
92.75
 20
61.75
 10
92.625
 20
61.75
 10
92.25
 20
62.125
 10
92.125
 20
62.125
 10
92.0
 20
62.25
 10
91.875
 20
62.25
 10
91.625
 20
62.5
 10
91.5
 20
62.5
 10
91.25
 20
62.75
 10
91.125
 20
62.75
 10
91.0
 20
62.875
 10
90.5
 20
62.875
 10
90.375
 20
62.75
 10
90.25
 20
62.75
 10
90.125
 20
62.625
 10
90.0
 20
62.625
 10
89.375
 20
62.0
 10
89.375
 20
61.875
 10
89.25
 20
61.75
 10
89.25
 20
61.5
 10
89.375
 20
61.375
 10
89.375
 20
61.25
 10
89.875
 20
60.75
 10
89.875
 20
60.625
 10
90.125
 20
60.375
 10
90.25
 20
60.375
 10
90.875
 20
59.75
 10
91.0
 20
59.75
 10
91.5
 20
59.25
 10
91.625
 20
59.25
 10
93.5
 20
57.375
 10
93.625
 20
57.375
  0
LWPOLYLINE
  5
46
330
17
100
AcDbEntity
  8
default
100
AcDbPolyline
 90
26
 70
0
 10
72.0
 20
54.625
 10
72.375
 20
54.625
 10
72.5
 20
54.75
 10
72.75
 20
54.75
 10
73.0
 20
55.0
 10
73.0
 20
55.875
 10
72.875
 20
56.0
 10
72.875
 20
56.375
 10
72.75
 20
56.5
 10
72.75
 20
56.75
 10
72.625
 20
56.875
 10
72.625
 20
57.25
 10
72.5
 20
57.375
 10
72.5
 20
58.0
 10
72.375
 20
58.125
 10
72.375
 20
60.625
 10
72.25
 20
60.75
 10
72.25
 20
61.0
 10
71.875
 20
61.375
 10
71.75
 20
61.25
 10
71.75
 20
60.75
 10
71.625
 20
60.625
 10
71.625
 20
55.125
 10
71.75
 20
55.0
 10
71.75
 20
54.875
 10
72.0
 20
54.625
  0
LWPOLYLINE
  5
47
330
17
100
AcDbEntity
  8
default
100
AcDbPolyline
 90
32
 70
0
 10
87.0
 20
53.375
 10
87.75
 20
53.375
 10
87.875
 20
53.5
 10
88.25
 20
53.5
 10
88.375
 20
53.625
 10
88.75
 20
53.625
 10
88.875
 20
53.75
 10
89.125
 20
53.75
 10
89.25
 20
53.875
 10
89.375
 20
53.875
 10
89.625
 20
54.125
 10
89.625
 20
54.375
 10
88.0
 20
56.0
 10
87.875
 20
56.0
 10
87.75
 20
56.125
 10
87.0
 20
56.125
 10
86.875
 20
56.0
 10
86.625
 20
56.0
 10
86.5
 20
55.875
 10
86.125
 20
55.875
 10
85.75
 20
55.5
 10
85.875
 20
55.375
 10
85.875
 20
55.25
 10
86.25
 20
54.875
 10
86.25
 20
54.75
 10
86.5
 20
54.5
 10
86.5
 20
54.25
 10
86.625
 20
54.125
 10
86.625
 20
54.0
 10
86.75
 20
53.875
 10
86.75
 20
53.625
 10
87.0
 20
53.375
  0
LWPOLYLINE
  5
48
330
17
100
AcDbEntity
  8
default
100
AcDbPolyline
 90
89
 70
0
 10
78.625
 20
52.625
 10
78.875
 20
52.625
 10
79.125
 20
52.875
 10
79.125
 20
53.125
 10
79.25
 20
53.25
 10
79.25
 20
53.875
 10
79.375
 20
54.0
 10
79.375
 20
54.125
 10
79.5
 20
54.25
 10
79.5
 20
54.5
 10
79.75
 20
54.75
 10
79.75
 20
54.875
 10
80.625
 20
55.75
 10
80.75
 20
55.75
 10
81.0
 20
56.0
 10
81.125
 20
56.0
 10
81.375
 20
56.25
 10
81.5
 20
56.25
 10
81.625
 20
56.375
 10
81.75
 20
56.375
 10
81.875
 20
56.5
 10
82.0
 20
56.5
 10
82.125
 20
56.625
 10
82.5
 20
56.625
 10
82.625
 20
56.75
 10
83.125
 20
56.75
 10
83.375
 20
57.0
 10
83.375
 20
57.5
 10
83.25
 20
57.625
 10
83.25
 20
58.875
 10
83.375
 20
59.0
 10
83.375
 20
59.25
 10
83.5
 20
59.375
 10
83.5
 20
59.625
 10
83.625
 20
59.75
 10
83.625
 20
59.875
 10
83.75
 20
60.0
 10
83.75
 20
60.125
 10
83.875
 20
60.25
 10
83.875
 20
60.625
 10
83.75
 20
60.75
 10
83.75
 20
60.875
 10
83.5
 20
61.125
 10
83.5
 20
61.25
 10
83.0
 20
61.75
 10
83.0
 20
61.875
 10
82.375
 20
62.5
 10
82.25
 20
62.5
 10
82.125
 20
62.625
 10
82.0
 20
62.625
 10
81.875
 20
62.5
 10
81.625
 20
62.5
 10
81.5
 20
62.375
 10
81.375
 20
62.375
 10
81.25
 20
62.25
 10
81.0
 20
62.25
 10
80.875
 20
62.125
 10
80.5
 20
62.125
 10
80.375
 20
62.0
 10
79.0
 20
62.0
 10
78.875
 20
61.875
 10
78.75
 20
61.875
 10
78.375
 20
61.5
 10
78.375
 20
60.875
 10
78.5
 20
60.75
 10
78.5
 20
60.625
 10
78.75
 20
60.375
 10
78.75
 20
60.25
 10
78.875
 20
60.125
 10
78.875
 20
60.0
 10
79.0
 20
59.875
 10
79.0
 20
59.75
 10
79.125
 20
59.625
 10
79.125
 20
58.375
 10
79.0
 20
58.25
 10
79.0
 20
58.0
 10
78.875
 20
57.875
 10
78.875
 20
57.625
 10
78.75
 20
57.5
 10
78.75
 20
56.25
 10
78.625
 20
56.125
 10
78.625
 20
55.625
 10
78.5
 20
55.5
 10
78.5
 20
55.25
 10
78.375
 20
55.125
 10
78.375
 20
54.625
 10
78.25
 20
54.5
 10
78.25
 20
53.0
 10
78.625
 20
52.625
  0
LWPOLYLINE
  5
49
330
17
100
AcDbEntity
  8
default
100
AcDbPolyline
 90
25
 70
0
 10
7.625
 20
51.75
 10
7.75
 20
51.625
 10
7.875
 20
51.625
 10
8.0
 20
51.75
 10
9.0
 20
51.75
 10
9.5
 20
52.25
 10
9.5
 20
53.75
 10
9.375
 20
53.875
 10
9.375
 20
54.875
 10
9.25
 20
55.0
 10
9.25
 20
56.125
 10
9.125
 20
56.25
 10
9.125
 20
56.875
 10
8.75
 20
57.25
 10
8.375
 20
57.25
 10
8.25
 20
57.125
 10
8.0
 20
57.125
 10
7.875
 20
57.0
 10
7.75
 20
57.0
 10
7.5
 20
56.75
 10
7.5
 20
56.625
 10
7.375
 20
56.5
 10
7.375
 20
52.125
 10
7.625
 20
51.875
 10
7.625
 20
51.75
  0
LWPOLYLINE
  5
4A
330
17
100
AcDbEntity
  8
default
100
AcDbPolyline
 90
21
 70
0
 10
1.75
 20
48.75
 10
1.875
 20
48.625
 10
2.0
 20
48.625
 10
2.125
 20
48.75
 10
2.125
 20
49.0
 10
2.25
 20
49.125
 10
2.25
 20
49.75
 10
2.375
 20
49.875
 10
2.375
 20
51.25
 10
2.25
 20
51.375
 10
2.25
 20
55.875
 10
2.375
 20
56.0
 10
2.375
 20
57.5
 10
2.0
 20
57.875
 10
1.875
 20
57.875
 10
1.75
 20
57.75
 10
1.75
 20
57.375
 10
1.625
 20
57.25
 10
1.625
 20
49.375
 10
1.75
 20
49.25
 10
1.75
 20
48.75
  0
LWPOLYLINE
  5
4B
330
17
100
AcDbEntity
  8
default
100
AcDbPolyline
 90
59
 70
0
 10
14.875
 20
44.625
 10
15.125
 20
44.625
 10
15.25
 20
44.75
 10
15.5
 20
44.75
 10
15.625
 20
44.875
 10
15.75
 20
44.875
 10
15.875
 20
45.0
 10
16.0
 20
45.0
 10
16.375
 20
45.375
 10
16.375
 20
45.5
 10
16.625
 20
45.75
 10
16.625
 20
45.875
 10
16.75
 20
46.0
 10
16.75
 20
46.125
 10
16.875
 20
46.25
 10
16.875
 20
46.375
 10
17.625
 20
47.125
 10
17.75
 20
47.125
 10
18.0
 20
47.375
 10
18.25
 20
47.375
 10
18.375
 20
47.5
 10
20.0
 20
47.5
 10
20.25
 20
47.75
 10
20.25
 20
47.875
 10
20.375
 20
48.0
 10
20.375
 20
49.375
 10
20.25
 20
49.5
 10
20.25
 20
50.25
 10
20.125
 20
50.375
 10
20.125
 20
50.75
 10
20.0
 20
50.875
 10
20.0
 20
51.0
 10
19.75
 20
51.25
 10
19.75
 20
51.375
 10
19.625
 20
51.5
 10
19.5
 20
51.5
 10
19.125
 20
51.875
 10
18.25
 20
51.875
 10
18.125
 20
51.75
 10
17.0
 20
51.75
 10
16.875
 20
51.875
 10
16.5
 20
51.875
 10
16.375
 20
52.0
 10
16.0
 20
52.0
 10
15.875
 20
52.125
 10
15.75
 20
52.125
 10
15.625
 20
52.0
 10
15.125
 20
52.0
 10
15.0
 20
51.875
 10
14.875
 20
51.875
 10
14.75
 20
51.75
 10
14.75
 20
51.625
 10
14.625
 20
51.5
 10
14.625
 20
48.625
 10
14.75
 20
48.5
 10
14.75
 20
45.375
 10
14.625
 20
45.25
 10
14.625
 20
44.875
 10
14.875
 20
44.625
  0
LWPOLYLINE
  5
4C
330
17
100
AcDbEntity
  8
default
100
AcDbPolyline
 90
123
 70
0
 10
25.125
 20
43.625
 10
25.5
 20
43.625
 10
25.625
 20
43.75
 10
26.25
 20
43.75
 10
26.375
 20
43.875
 10
27.25
 20
43.875
 10
27.375
 20
44.0
 10
27.875
 20
44.0
 10
28.0
 20
44.125
 10
28.125
 20
44.125
 10
28.25
 20
44.25
 10
28.25
 20
44.375
 10
28.375
 20
44.5
 10
28.375
 20
64.875
 10
28.25
 20
65.0
 10
28.25
 20
65.25
 10
28.125
 20
65.375
 10
27.875
 20
65.375
 10
27.125
 20
64.625
 10
27.125
 20
64.5
 10
26.875
 20
64.25
 10
26.875
 20
64.125
 10
26.75
 20
64.0
 10
26.75
 20
63.875
 10
26.5
 20
63.625
 10
26.5
 20
63.5
 10
26.25
 20
63.25
 10
26.25
 20
63.125
 10
26.125
 20
63.0
 10
26.125
 20
62.875
 10
25.875
 20
62.625
 10
25.875
 20
62.5
 10
25.625
 20
62.25
 10
25.625
 20
62.125
 10
25.5
 20
62.0
 10
25.5
 20
61.875
 10
25.25
 20
61.625
 10
25.25
 20
61.5
 10
25.0
 20
61.25
 10
25.0
 20
61.125
 10
24.75
 20
60.875
 10
24.75
 20
60.75
 10
24.625
 20
60.625
 10
24.625
 20
60.5
 10
24.5
 20
60.375
 10
24.5
 20
59.25
 10
24.625
 20
59.125
 10
24.625
 20
57.5
 10
24.5
 20
57.375
 10
24.5
 20
57.25
 10
24.375
 20
57.125
 10
24.375
 20
57.0
 10
24.125
 20
56.75
 10
24.125
 20
56.625
 10
24.0
 20
56.5
 10
23.875
 20
56.5
 10
23.625
 20
56.25
 10
23.5
 20
56.25
 10
23.375
 20
56.125
 10
23.25
 20
56.125
 10
23.125
 20
56.0
 10
21.875
 20
56.0
 10
21.75
 20
56.125
 10
21.625
 20
56.125
 10
21.5
 20
56.25
 10
21.25
 20
56.25
 10
21.125
 20
56.375
 10
20.375
 20
56.375
 10
20.25
 20
56.25
 10
20.25
 20
56.125
 10
20.125
 20
56.0
 10
20.125
 20
55.75
 10
20.25
 20
55.625
 10
20.25
 20
55.5
 10
20.375
 20
55.375
 10
20.625
 20
55.375
 10
20.75
 20
55.5
 10
21.25
 20
55.5
 10
21.375
 20
55.625
 10
22.125
 20
55.625
 10
22.25
 20
55.5
 10
22.625
 20
55.5
 10
22.75
 20
55.375
 10
22.875
 20
55.375
 10
23.0
 20
55.25
 10
23.25
 20
55.25
 10
23.375
 20
55.125
 10
23.5
 20
55.125
 10
23.625
 20
55.0
 10
23.75
 20
55.0
 10
23.875
 20
54.875
 10
24.0
 20
54.875
 10
24.125
 20
54.75
 10
24.25
 20
54.75
 10
25.125
 20
53.875
 10
25.125
 20
53.75
 10
25.25
 20
53.625
 10
25.25
 20
53.5
 10
25.375
 20
53.375
 10
25.375
 20
53.125
 10
25.5
 20
53.0
 10
25.5
 20
52.375
 10
25.625
 20
52.25
 10
25.625
 20
51.5
 10
25.5
 20
51.375
 10
25.5
 20
47.75
 10
25.375
 20
47.625
 10
25.375
 20
47.125
 10
25.25
 20
47.0
 10
25.25
 20
46.75
 10
25.125
 20
46.625
 10
25.125
 20
46.375
 10
25.0
 20
46.25
 10
25.0
 20
46.125
 10
24.875
 20
46.0
 10
24.875
 20
45.75
 10
24.75
 20
45.625
 10
24.75
 20
45.125
 10
24.625
 20
45.0
 10
24.625
 20
44.5
 10
24.75
 20
44.375
 10
24.75
 20
44.0
 10
25.125
 20
43.625
  0
LWPOLYLINE
  5
4D
330
17
100
AcDbEntity
  8
default
100
AcDbPolyline
 90
55
 70
0
 10
86.875
 20
42.125
 10
88.5
 20
42.125
 10
88.625
 20
42.25
 10
90.625
 20
42.25
 10
90.75
 20
42.125
 10
91.75
 20
42.125
 10
92.125
 20
42.5
 10
92.125
 20
42.625
 10
92.25
 20
42.75
 10
92.25
 20
43.75
 10
92.125
 20
43.875
 10
92.125
 20
44.25
 10
92.0
 20
44.375
 10
92.0
 20
44.625
 10
91.875
 20
44.75
 10
91.875
 20
45.0
 10
91.75
 20
45.125
 10
91.75
 20
45.375
 10
91.625
 20
45.5
 10
91.625
 20
45.75
 10
91.5
 20
45.875
 10
91.5
 20
46.125
 10
91.375
 20
46.25
 10
91.375
 20
46.5
 10
91.25
 20
46.625
 10
91.25
 20
46.75
 10
91.125
 20
46.875
 10
91.125
 20
47.0
 10
90.875
 20
47.25
 10
90.875
 20
47.375
 10
90.625
 20
47.625
 10
90.5
 20
47.625
 10
90.375
 20
47.75
 10
90.25
 20
47.75
 10
90.125
 20
47.875
 10
90.0
 20
47.875
 10
89.875
 20
48.0
 10
89.5
 20
48.0
 10
89.375
 20
48.125
 10
89.0
 20
48.125
 10
88.875
 20
48.25
 10
87.75
 20
48.25
 10
87.625
 20
48.125
 10
87.25
 20
48.125
 10
87.125
 20
48.0
 10
86.875
 20
48.0
 10
86.75
 20
47.875
 10
86.625
 20
47.875
 10
86.5
 20
47.75
 10
86.5
 20
47.625
 10
86.375
 20
47.5
 10
86.375
 20
45.625
 10
86.5
 20
45.5
 10
86.5
 20
42.5
 10
86.875
 20
42.125
  0
LWPOLYLINE
  5
4E
330
17
100
AcDbEntity
  8
default
100
AcDbPolyline
 90
51
 70
0
 10
8.125
 20
40.0
 10
8.25
 20
40.0
 10
8.5
 20
40.25
 10
8.5
 20
40.375
 10
8.625
 20
40.5
 10
8.625
 20
41.0
 10
8.75
 20
41.125
 10
8.75
 20
41.875
 10
8.875
 20
42.0
 10
8.875
 20
42.625
 10
9.0
 20
42.75
 10
9.0
 20
43.25
 10
9.125
 20
43.375
 10
9.125
 20
43.875
 10
9.25
 20
44.0
 10
9.25
 20
44.75
 10
9.375
 20
44.875
 10
9.375
 20
45.75
 10
9.5
 20
45.875
 10
9.5
 20
46.5
 10
9.125
 20
46.875
 10
9.0
 20
46.875
 10
8.875
 20
46.75
 10
7.625
 20
46.75
 10
7.0
 20
46.125
 10
7.0
 20
46.0
 10
6.75
 20
45.75
 10
6.75
 20
45.625
 10
6.625
 20
45.5
 10
6.625
 20
45.375
 10
6.375
 20
45.125
 10
6.375
 20
45.0
 10
6.125
 20
44.75
 10
6.125
 20
44.5
 10
6.0
 20
44.375
 10
6.0
 20
44.0
 10
5.875
 20
43.875
 10
5.875
 20
43.0
 10
6.0
 20
42.875
 10
6.0
 20
42.5
 10
6.125
 20
42.375
 10
6.125
 20
42.25
 10
6.375
 20
42.0
 10
6.375
 20
41.875
 10
6.5
 20
41.75
 10
6.5
 20
41.625
 10
6.875
 20
41.25
 10
6.875
 20
41.125
 10
7.75
 20
40.25
 10
7.875
 20
40.25
 10
8.125
 20
40.0
  0
LWPOLYLINE
  5
4F
330
17
100
AcDbEntity
  8
default
100
AcDbPolyline
 90
93
 70
0
 10
98.125
 20
37.625
 10
98.25
 20
37.75
 10
98.25
 20
38.125
 10
98.375
 20
38.25
 10
98.375
 20
53.375
 10
98.25
 20
53.5
 10
98.25
 20
53.875
 10
98.125
 20
54.0
 10
97.875
 20
54.0
 10
97.375
 20
53.5
 10
97.25
 20
53.5
 10
96.625
 20
52.875
 10
96.5
 20
52.875
 10
96.25
 20
52.625
 10
96.125
 20
52.625
 10
96.0
 20
52.5
 10
95.875
 20
52.5
 10
95.75
 20
52.375
 10
95.5
 20
52.375
 10
95.375
 20
52.25
 10
95.125
 20
52.25
 10
95.0
 20
52.125
 10
94.625
 20
52.125
 10
94.5
 20
52.0
 10
94.25
 20
52.0
 10
93.875
 20
51.625
 10
94.25
 20
51.25
 10
94.25
 20
51.125
 10
94.625
 20
50.75
 10
94.625
 20
50.625
 10
94.875
 20
50.375
 10
94.875
 20
50.25
 10
95.125
 20
50.0
 10
95.125
 20
49.875
 10
95.25
 20
49.75
 10
95.25
 20
49.625
 10
95.375
 20
49.5
 10
95.375
 20
49.375
 10
95.5
 20
49.25
 10
95.5
 20
49.125
 10
95.625
 20
49.0
 10
95.625
 20
48.75
 10
95.75
 20
48.625
 10
95.75
 20
48.5
 10
95.875
 20
48.375
 10
95.875
 20
48.25
 10
96.0
 20
48.125
 10
96.0
 20
47.875
 10
96.125
 20
47.75
 10
96.125
 20
47.5
 10
96.25
 20
47.375
 10
96.25
 20
47.25
 10
96.375
 20
47.125
 10
96.375
 20
46.875
 10
96.5
 20
46.75
 10
96.5
 20
46.5
 10
96.625
 20
46.375
 10
96.625
 20
46.125
 10
96.75
 20
46.0
 10
96.75
 20
45.75
 10
96.875
 20
45.625
 10
96.875
 20
45.25
 10
97.0
 20
45.125
 10
97.0
 20
44.75
 10
97.125
 20
44.625
 10
97.125
 20
44.375
 10
97.25
 20
44.25
 10
97.25
 20
43.625
 10
97.375
 20
43.5
 10
97.375
 20
42.625
 10
97.25
 20
42.5
 10
97.25
 20
42.0
 10
97.125
 20
41.875
 10
97.125
 20
41.625
 10
97.0
 20
41.5
 10
97.0
 20
41.125
 10
96.875
 20
41.0
 10
96.875
 20
40.125
 10
97.0
 20
40.0
 10
97.0
 20
39.75
 10
97.125
 20
39.625
 10
97.125
 20
39.5
 10
97.25
 20
39.375
 10
97.25
 20
39.125
 10
97.375
 20
39.0
 10
97.375
 20
38.875
 10
97.5
 20
38.75
 10
97.5
 20
38.5
 10
97.625
 20
38.375
 10
97.625
 20
38.25
 10
97.75
 20
38.125
 10
97.75
 20
38.0
 10
98.125
 20
37.625
  0
LWPOLYLINE
  5
50
330
17
100
AcDbEntity
  8
default
100
AcDbPolyline
 90
20
 70
0
 10
2.0
 20
36.875
 10
2.125
 20
36.875
 10
2.25
 20
37.0
 10
2.375
 20
37.0
 10
2.5
 20
37.125
 10
2.625
 20
37.125
 10
2.75
 20
37.25
 10
3.0
 20
37.25
 10
3.375
 20
37.625
 10
3.375
 20
37.875
 10
3.125
 20
38.125
 10
3.125
 20
38.25
 10
2.0
 20
39.375
 10
1.75
 20
39.125
 10
1.75
 20
38.75
 10
1.625
 20
38.625
 10
1.625
 20
37.625
 10
1.75
 20
37.5
 10
1.75
 20
37.125
 10
2.0
 20
36.875
  0
LWPOLYLINE
  5
51
330
17
100
AcDbEntity
  8
default
100
AcDbPolyline
 90
103
 70
0
 10
71.75
 20
33.25
 10
71.875
 20
33.125
 10
72.125
 20
33.125
 10
73.125
 20
34.125
 10
73.25
 20
34.125
 10
73.375
 20
34.25
 10
73.5
 20
34.25
 10
73.625
 20
34.375
 10
73.875
 20
34.375
 10
74.0
 20
34.5
 10
74.25
 20
34.5
 10
74.375
 20
34.625
 10
74.5
 20
34.625
 10
75.125
 20
35.25
 10
75.125
 20
35.375
 10
75.375
 20
35.625
 10
75.375
 20
35.75
 10
75.625
 20
36.0
 10
75.625
 20
36.125
 10
76.375
 20
36.875
 10
76.5
 20
36.875
 10
76.75
 20
37.125
 10
76.875
 20
37.125
 10
77.0
 20
37.25
 10
77.25
 20
37.25
 10
77.375
 20
37.375
 10
78.5
 20
37.375
 10
78.625
 20
37.25
 10
78.875
 20
37.25
 10
79.0
 20
37.125
 10
79.125
 20
37.125
 10
79.25
 20
37.0
 10
79.375
 20
37.0
 10
79.5
 20
36.875
 10
81.0
 20
36.875
 10
81.375
 20
37.25
 10
81.375
 20
38.25
 10
81.5
 20
38.375
 10
81.5
 20
45.0
 10
81.375
 20
45.125
 10
81.375
 20
45.5
 10
81.25
 20
45.625
 10
81.25
 20
45.75
 10
80.875
 20
46.125
 10
80.75
 20
46.125
 10
80.625
 20
46.25
 10
80.5
 20
46.25
 10
80.375
 20
46.375
 10
80.125
 20
46.375
 10
80.0
 20
46.5
 10
79.875
 20
46.5
 10
79.75
 20
46.625
 10
79.625
 20
46.625
 10
79.5
 20
46.75
 10
79.375
 20
46.75
 10
79.25
 20
46.875
 10
79.125
 20
46.875
 10
79.0
 20
47.0
 10
78.875
 20
47.0
 10
78.75
 20
47.125
 10
78.625
 20
47.125
 10
78.5
 20
47.25
 10
78.375
 20
47.25
 10
78.25
 20
47.375
 10
78.125
 20
47.375
 10
77.875
 20
47.625
 10
77.75
 20
47.625
 10
77.5
 20
47.875
 10
77.375
 20
47.875
 10
77.125
 20
48.125
 10
77.0
 20
48.125
 10
76.75
 20
48.375
 10
76.625
 20
48.375
 10
75.875
 20
49.125
 10
75.875
 20
49.25
 10
75.625
 20
49.5
 10
75.625
 20
49.625
 10
75.5
 20
49.75
 10
75.5
 20
49.875
 10
75.125
 20
50.25
 10
74.625
 20
50.25
 10
74.5
 20
50.125
 10
74.25
 20
50.125
 10
74.125
 20
50.0
 10
74.0
 20
50.0
 10
73.875
 20
49.875
 10
73.75
 20
49.875
 10
73.625
 20
49.75
 10
73.375
 20
49.75
 10
73.25
 20
49.625
 10
73.125
 20
49.625
 10
73.0
 20
49.5
 10
72.875
 20
49.5
 10
72.75
 20
49.375
 10
72.5
 20
49.375
 10
72.375
 20
49.25
 10
72.25
 20
49.25
 10
71.75
 20
48.75
 10
71.75
 20
48.625
 10
71.625
 20
48.5
 10
71.625
 20
34.0
 10
71.75
 20
33.875
 10
71.75
 20
33.25
  0
LWPOLYLINE
  5
52
330
17
100
AcDbEntity
  8
default
100
AcDbPolyline
 90
75
 70
0
 10
87.875
 20
27.875
 10
88.125
 20
27.875
 10
88.25
 20
28.0
 10
88.375
 20
28.0
 10
88.5
 20
28.125
 10
88.75
 20
28.125
 10
88.875
 20
28.25
 10
89.0
 20
28.25
 10
89.125
 20
28.375
 10
89.25
 20
28.375
 10
89.375
 20
28.5
 10
89.5
 20
28.5
 10
89.75
 20
28.75
 10
89.875
 20
28.75
 10
90.0
 20
28.875
 10
90.125
 20
28.875
 10
90.625
 20
29.375
 10
90.75
 20
29.375
 10
91.0
 20
29.625
 10
91.0
 20
29.75
 10
91.625
 20
30.375
 10
91.625
 20
30.5
 10
92.0
 20
30.875
 10
92.0
 20
31.0
 10
92.375
 20
31.375
 10
92.375
 20
31.5
 10
92.5
 20
31.625
 10
92.5
 20
31.875
 10
92.625
 20
32.0
 10
92.625
 20
32.25
 10
92.75
 20
32.375
 10
92.75
 20
32.875
 10
92.875
 20
33.0
 10
92.875
 20
33.75
 10
93.0
 20
33.875
 10
93.0
 20
34.75
 10
93.125
 20
34.875
 10
93.125
 20
36.0
 10
93.0
 20
36.125
 10
93.0
 20
36.625
 10
92.875
 20
36.75
 10
92.875
 20
37.0
 10
92.75
 20
37.125
 10
92.75
 20
37.25
 10
92.375
 20
37.625
 10
91.875
 20
37.625
 10
91.75
 20
37.5
 10
91.375
 20
37.5
 10
91.25
 20
37.375
 10
90.75
 20
37.375
 10
90.625
 20
37.25
 10
88.5
 20
37.25
 10
88.375
 20
37.125
 10
87.0
 20
37.125
 10
86.875
 20
37.0
 10
86.75
 20
37.0
 10
86.5
 20
36.75
 10
86.5
 20
35.875
 10
86.625
 20
35.75
 10
86.625
 20
34.875
 10
86.75
 20
34.75
 10
86.75
 20
33.875
 10
86.875
 20
33.75
 10
86.875
 20
33.0
 10
87.0
 20
32.875
 10
87.0
 20
32.125
 10
87.125
 20
32.0
 10
87.125
 20
31.25
 10
87.25
 20
31.125
 10
87.25
 20
30.125
 10
87.375
 20
30.0
 10
87.375
 20
29.0
 10
87.5
 20
28.875
 10
87.5
 20
28.25
 10
87.875
 20
27.875
  0
LWPOLYLINE
  5
53
330
17
100
AcDbEntity
  8
default
100
AcDbPolyline
 90
49
 70
0
 10
8.0
 20
27.125
 10
8.25
 20
27.125
 10
8.375
 20
27.25
 10
8.375
 20
27.875
 10
8.25
 20
28.0
 10
8.25
 20
28.75
 10
8.125
 20
28.875
 10
8.125
 20
34.375
 10
8.0
 20
34.5
 10
8.0
 20
34.625
 10
7.875
 20
34.75
 10
7.75
 20
34.75
 10
7.625
 20
34.875
 10
7.375
 20
34.875
 10
7.25
 20
35.0
 10
7.125
 20
35.0
 10
7.0
 20
35.125
 10
6.875
 20
35.125
 10
6.75
 20
35.25
 10
6.5
 20
35.25
 10
6.125
 20
34.875
 10
6.125
 20
34.0
 10
6.0
 20
33.875
 10
6.0
 20
33.25
 10
5.875
 20
33.125
 10
5.875
 20
32.75
 10
5.75
 20
32.625
 10
5.75
 20
32.25
 10
5.625
 20
32.125
 10
5.625
 20
31.75
 10
5.5
 20
31.625
 10
5.5
 20
30.625
 10
5.625
 20
30.5
 10
5.625
 20
30.375
 10
5.75
 20
30.25
 10
5.75
 20
30.125
 10
6.0
 20
29.875
 10
6.0
 20
29.75
 10
6.125
 20
29.625
 10
6.125
 20
29.5
 10
6.375
 20
29.25
 10
6.375
 20
29.125
 10
6.625
 20
28.875
 10
6.625
 20
28.75
 10
7.0
 20
28.375
 10
7.0
 20
28.25
 10
7.375
 20
27.875
 10
7.375
 20
27.75
 10
8.0
 20
27.125
  0
LWPOLYLINE
  5
54
330
17
100
AcDbEntity
  8
default
100
AcDbPolyline
 90
52
 70
0
 10
97.75
 20
25.25
 10
97.875
 20
25.125
 10
98.0
 20
25.125
 10
98.25
 20
25.375
 10
98.25
 20
25.75
 10
98.375
 20
25.875
 10
98.375
 20
32.625
 10
98.125
 20
32.875
 10
98.0
 20
32.75
 10
98.0
 20
32.25
 10
97.875
 20
32.125
 10
97.875
 20
31.75
 10
97.75
 20
31.625
 10
97.75
 20
31.375
 10
97.625
 20
31.25
 10
97.625
 20
31.0
 10
97.5
 20
30.875
 10
97.5
 20
30.625
 10
97.375
 20
30.5
 10
97.375
 20
30.375
 10
97.25
 20
30.25
 10
97.25
 20
30.125
 10
97.125
 20
30.0
 10
97.125
 20
29.875
 10
97.0
 20
29.75
 10
97.0
 20
29.625
 10
96.875
 20
29.5
 10
96.875
 20
29.375
 10
96.625
 20
29.125
 10
96.625
 20
29.0
 10
96.25
 20
28.625
 10
96.25
 20
28.5
 10
95.75
 20
28.0
 10
95.75
 20
27.875
 10
95.25
 20
27.375
 10
95.25
 20
27.25
 10
95.0
 20
27.0
 10
95.0
 20
26.875
 10
94.75
 20
26.625
 10
94.75
 20
26.25
 10
94.875
 20
26.125
 10
96.125
 20
26.125
 10
96.25
 20
26.0
 10
96.5
 20
26.0
 10
96.625
 20
25.875
 10
96.75
 20
25.875
 10
96.875
 20
25.75
 10
97.0
 20
25.75
 10
97.25
 20
25.5
 10
97.375
 20
25.5
 10
97.625
 20
25.25
 10
97.75
 20
25.25
  0
LWPOLYLINE
  5
55
330
17
100
AcDbEntity
  8
default
100
AcDbPolyline
 90
244
 70
0
 10
16.25
 20
18.0
 10
16.375
 20
17.875
 10
16.625
 20
17.875
 10
16.75
 20
18.0
 10
16.875
 20
18.0
 10
17.0
 20
18.125
 10
17.125
 20
18.125
 10
17.25
 20
18.25
 10
17.375
 20
18.25
 10
17.5
 20
18.375
 10
17.625
 20
18.375
 10
17.75
 20
18.5
 10
17.875
 20
18.5
 10
18.0
 20
18.625
 10
18.25
 20
18.625
 10
18.375
 20
18.75
 10
18.5
 20
18.75
 10
18.625
 20
18.875
 10
18.875
 20
18.875
 10
19.0
 20
19.0
 10
19.25
 20
19.0
 10
19.375
 20
19.125
 10
19.5
 20
19.125
 10
19.625
 20
19.25
 10
19.75
 20
19.25
 10
20.375
 20
19.875
 10
20.375
 20
20.0
 10
20.5
 20
20.125
 10
20.5
 20
20.25
 10
20.625
 20
20.375
 10
20.625
 20
20.5
 10
20.75
 20
20.625
 10
20.75
 20
20.875
 10
20.875
 20
21.0
 10
20.875
 20
21.25
 10
21.0
 20
21.375
 10
21.0
 20
21.75
 10
21.125
 20
21.875
 10
21.125
 20
22.5
 10
21.25
 20
22.625
 10
21.25
 20
23.5
 10
21.375
 20
23.625
 10
21.375
 20
24.875
 10
21.5
 20
25.0
 10
21.5
 20
26.5
 10
21.625
 20
26.625
 10
21.625
 20
28.25
 10
21.75
 20
28.375
 10
21.75
 20
30.0
 10
21.875
 20
30.125
 10
21.875
 20
31.0
 10
22.0
 20
31.125
 10
22.0
 20
31.625
 10
22.125
 20
31.75
 10
22.125
 20
32.125
 10
22.25
 20
32.25
 10
22.25
 20
32.625
 10
22.375
 20
32.75
 10
22.375
 20
33.125
 10
22.5
 20
33.25
 10
22.5
 20
34.0
 10
22.375
 20
34.125
 10
22.375
 20
34.625
 10
22.25
 20
34.75
 10
22.25
 20
35.0
 10
22.125
 20
35.125
 10
22.125
 20
35.5
 10
22.0
 20
35.625
 10
22.0
 20
35.875
 10
21.875
 20
36.0
 10
21.875
 20
36.375
 10
21.75
 20
36.5
 10
21.75
 20
36.75
 10
21.625
 20
36.875
 10
21.625
 20
37.25
 10
21.5
 20
37.375
 10
21.5
 20
37.75
 10
21.375
 20
37.875
 10
21.375
 20
38.125
 10
21.25
 20
38.25
 10
21.25
 20
38.625
 10
21.125
 20
38.75
 10
21.125
 20
39.125
 10
21.0
 20
39.25
 10
21.0
 20
39.5
 10
20.875
 20
39.625
 10
20.875
 20
40.0
 10
20.75
 20
40.125
 10
20.75
 20
40.375
 10
20.625
 20
40.5
 10
20.625
 20
40.75
 10
20.5
 20
40.875
 10
20.5
 20
41.0
 10
20.375
 20
41.125
 10
20.375
 20
41.25
 10
20.25
 20
41.375
 10
20.125
 20
41.375
 10
20.0
 20
41.5
 10
19.875
 20
41.375
 10
19.75
 20
41.375
 10
19.5
 20
41.125
 10
19.375
 20
41.125
 10
19.25
 20
41.0
 10
19.125
 20
41.0
 10
19.0
 20
40.875
 10
18.875
 20
40.875
 10
18.75
 20
40.75
 10
18.625
 20
40.75
 10
18.5
 20
40.625
 10
18.25
 20
40.625
 10
18.125
 20
40.5
 10
18.0
 20
40.5
 10
17.875
 20
40.375
 10
17.625
 20
40.375
 10
17.5
 20
40.25
 10
17.25
 20
40.25
 10
17.125
 20
40.125
 10
16.875
 20
40.125
 10
16.75
 20
40.0
 10
16.625
 20
40.0
 10
16.5
 20
39.875
 10
16.25
 20
39.875
 10
16.125
 20
39.75
 10
15.875
 20
39.75
 10
15.75
 20
39.625
 10
15.5
 20
39.625
 10
15.375
 20
39.5
 10
15.125
 20
39.5
 10
15.0
 20
39.375
 10
14.625
 20
39.375
 10
14.5
 20
39.25
 10
14.0
 20
39.25
 10
13.875
 20
39.125
 10
13.75
 20
39.125
 10
13.625
 20
39.0
 10
13.625
 20
38.875
 10
13.5
 20
38.75
 10
13.5
 20
38.625
 10
13.375
 20
38.5
 10
13.375
 20
36.875
 10
13.25
 20
36.75
 10
13.25
 20
34.5
 10
13.375
 20
34.375
 10
13.375
 20
34.25
 10
13.625
 20
34.0
 10
14.25
 20
34.0
 10
14.375
 20
33.875
 10
15.0
 20
33.875
 10
15.125
 20
33.75
 10
15.625
 20
33.75
 10
15.75
 20
33.625
 10
16.375
 20
33.625
 10
16.5
 20
33.5
 10
17.0
 20
33.5
 10
17.125
 20
33.375
 10
17.625
 20
33.375
 10
17.75
 20
33.25
 10
18.0
 20
33.25
 10
18.125
 20
33.125
 10
18.25
 20
33.125
 10
18.375
 20
33.0
 10
18.5
 20
33.0
 10
18.625
 20
32.875
 10
18.75
 20
32.875
 10
19.0
 20
32.625
 10
19.125
 20
32.625
 10
19.375
 20
32.375
 10
19.375
 20
32.25
 10
19.625
 20
32.0
 10
19.625
 20
31.875
 10
19.75
 20
31.75
 10
19.75
 20
31.5
 10
19.875
 20
31.375
 10
19.875
 20
30.25
 10
19.75
 20
30.125
 10
19.75
 20
29.875
 10
19.625
 20
29.75
 10
19.625
 20
29.625
 10
18.875
 20
28.875
 10
18.75
 20
28.875
 10
18.625
 20
28.75
 10
18.5
 20
28.75
 10
18.375
 20
28.625
 10
18.0
 20
28.625
 10
17.875
 20
28.5
 10
16.375
 20
28.5
 10
16.25
 20
28.625
 10
15.5
 20
28.625
 10
15.375
 20
28.75
 10
14.75
 20
28.75
 10
14.625
 20
28.875
 10
14.125
 20
28.875
 10
14.0
 20
29.0
 10
13.625
 20
29.0
 10
13.25
 20
28.625
 10
13.25
 20
28.5
 10
13.375
 20
28.375
 10
13.375
 20
28.0
 10
13.5
 20
27.875
 10
13.5
 20
27.5
 10
13.625
 20
27.375
 10
13.625
 20
27.0
 10
13.75
 20
26.875
 10
13.75
 20
26.625
 10
13.875
 20
26.5
 10
13.875
 20
26.25
 10
14.0
 20
26.125
 10
14.0
 20
25.875
 10
14.125
 20
25.75
 10
14.125
 20
25.375
 10
14.25
 20
25.25
 10
14.25
 20
25.0
 10
14.375
 20
24.875
 10
14.375
 20
24.5
 10
14.5
 20
24.375
 10
14.5
 20
24.125
 10
14.625
 20
24.0
 10
14.625
 20
23.75
 10
14.75
 20
23.625
 10
14.75
 20
23.25
 10
14.875
 20
23.125
 10
14.875
 20
22.875
 10
15.0
 20
22.75
 10
15.0
 20
22.5
 10
15.125
 20
22.375
 10
15.125
 20
22.125
 10
15.25
 20
22.0
 10
15.25
 20
21.75
 10
15.375
 20
21.625
 10
15.375
 20
21.375
 10
15.5
 20
21.25
 10
15.5
 20
20.875
 10
15.625
 20
20.75
 10
15.625
 20
20.375
 10
15.75
 20
20.25
 10
15.75
 20
19.875
 10
15.875
 20
19.75
 10
15.875
 20
19.25
 10
16.0
 20
19.125
 10
16.0
 20
18.625
 10
16.125
 20
18.5
 10
16.125
 20
18.25
 10
16.25
 20
18.125
 10
16.25
 20
18.0
  0
LWPOLYLINE
  5
56
330
17
100
AcDbEntity
  8
default
100
AcDbPolyline
 90
105
 70
0
 10
82.0
 20
17.875
 10
82.125
 20
17.75
 10
82.5
 20
17.75
 10
82.75
 20
18.0
 10
82.75
 20
18.375
 10
82.625
 20
18.5
 10
82.625
 20
19.125
 10
82.5
 20
19.25
 10
82.5
 20
28.625
 10
82.375
 20
28.75
 10
82.375
 20
29.875
 10
82.25
 20
30.0
 10
82.25
 20
30.875
 10
82.125
 20
31.0
 10
82.125
 20
31.5
 10
81.75
 20
31.875
 10
81.0
 20
31.875
 10
80.875
 20
31.75
 10
80.5
 20
31.75
 10
80.375
 20
31.625
 10
80.25
 20
31.625
 10
80.125
 20
31.5
 10
80.0
 20
31.5
 10
79.875
 20
31.375
 10
79.75
 20
31.375
 10
79.625
 20
31.25
 10
79.5
 20
31.25
 10
79.375
 20
31.125
 10
79.25
 20
31.125
 10
79.125
 20
31.0
 10
79.0
 20
31.0
 10
78.875
 20
30.875
 10
78.75
 20
30.875
 10
78.625
 20
30.75
 10
78.375
 20
30.75
 10
78.25
 20
30.625
 10
77.75
 20
30.625
 10
77.625
 20
30.5
 10
77.375
 20
30.5
 10
77.25
 20
30.625
 10
77.125
 20
30.625
 10
77.0
 20
30.5
 10
76.875
 20
30.5
 10
76.75
 20
30.375
 10
76.75
 20
30.25
 10
76.625
 20
30.125
 10
76.625
 20
29.875
 10
76.5
 20
29.75
 10
76.5
 20
29.125
 10
76.375
 20
29.0
 10
76.375
 20
28.125
 10
76.25
 20
28.0
 10
76.25
 20
27.0
 10
76.125
 20
26.875
 10
76.125
 20
26.0
 10
76.0
 20
25.875
 10
76.0
 20
25.125
 10
75.875
 20
25.0
 10
75.875
 20
24.0
 10
75.75
 20
23.875
 10
75.75
 20
22.5
 10
75.875
 20
22.375
 10
75.875
 20
21.875
 10
76.0
 20
21.75
 10
76.0
 20
21.375
 10
76.125
 20
21.25
 10
76.125
 20
20.75
 10
76.25
 20
20.625
 10
76.25
 20
20.375
 10
76.5
 20
20.125
 10
76.5
 20
20.0
 10
76.625
 20
19.875
 10
76.75
 20
19.875
 10
76.875
 20
19.75
 10
77.125
 20
19.75
 10
77.25
 20
19.625
 10
77.5
 20
19.625
 10
77.625
 20
19.5
 10
77.75
 20
19.5
 10
77.875
 20
19.375
 10
78.125
 20
19.375
 10
78.25
 20
19.25
 10
78.375
 20
19.25
 10
78.5
 20
19.125
 10
78.75
 20
19.125
 10
78.875
 20
19.0
 10
79.0
 20
19.0
 10
79.125
 20
18.875
 10
79.375
 20
18.875
 10
79.5
 20
18.75
 10
79.75
 20
18.75
 10
79.875
 20
18.625
 10
80.0
 20
18.625
 10
80.125
 20
18.5
 10
80.375
 20
18.5
 10
80.5
 20
18.375
 10
80.625
 20
18.375
 10
80.75
 20
18.25
 10
81.0
 20
18.25
 10
81.125
 20
18.125
 10
81.25
 20
18.125
 10
81.375
 20
18.0
 10
81.625
 20
18.0
 10
81.75
 20
17.875
 10
82.0
 20
17.875
  0
LWPOLYLINE
  5
57
330
17
100
AcDbEntity
  8
default
100
AcDbPolyline
 90
103
 70
0
 10
27.875
 20
16.25
 10
28.0
 20
16.25
 10
28.25
 20
16.5
 10
28.25
 20
17.0
 10
28.375
 20
17.125
 10
28.375
 20
38.5
 10
28.25
 20
38.625
 10
28.25
 20
38.75
 10
28.125
 20
38.875
 10
28.0
 20
38.875
 10
27.875
 20
39.0
 10
27.375
 20
39.0
 10
27.25
 20
38.875
 10
26.875
 20
38.875
 10
26.75
 20
38.75
 10
26.625
 20
38.75
 10
26.5
 20
38.625
 10
26.5
 20
38.5
 10
26.375
 20
38.375
 10
26.375
 20
38.25
 10
26.5
 20
38.125
 10
26.5
 20
37.875
 10
26.625
 20
37.75
 10
26.625
 20
37.375
 10
26.75
 20
37.25
 10
26.75
 20
37.0
 10
26.875
 20
36.875
 10
26.875
 20
36.625
 10
27.0
 20
36.5
 10
27.0
 20
36.125
 10
27.125
 20
36.0
 10
27.125
 20
35.75
 10
27.25
 20
35.625
 10
27.25
 20
35.375
 10
27.375
 20
35.25
 10
27.375
 20
34.875
 10
27.5
 20
34.75
 10
27.5
 20
34.25
 10
27.625
 20
34.125
 10
27.625
 20
33.125
 10
27.5
 20
33.0
 10
27.5
 20
32.625
 10
27.375
 20
32.5
 10
27.375
 20
32.125
 10
27.25
 20
32.0
 10
27.25
 20
31.75
 10
27.125
 20
31.625
 10
27.125
 20
31.375
 10
27.0
 20
31.25
 10
27.0
 20
30.75
 10
26.875
 20
30.625
 10
26.875
 20
30.0
 10
26.75
 20
29.875
 10
26.75
 20
28.25
 10
26.625
 20
28.125
 10
26.625
 20
26.625
 10
26.5
 20
26.5
 10
26.5
 20
25.0
 10
26.375
 20
24.875
 10
26.375
 20
23.5
 10
26.25
 20
23.375
 10
26.25
 20
22.375
 10
26.125
 20
22.25
 10
26.125
 20
21.625
 10
26.0
 20
21.5
 10
26.0
 20
21.0
 10
25.875
 20
20.875
 10
25.875
 20
20.5
 10
25.75
 20
20.375
 10
25.75
 20
20.0
 10
25.625
 20
19.875
 10
25.625
 20
19.625
 10
25.5
 20
19.5
 10
25.5
 20
19.25
 10
25.375
 20
19.125
 10
25.375
 20
18.875
 10
25.25
 20
18.75
 10
25.25
 20
18.625
 10
25.125
 20
18.5
 10
25.125
 20
18.375
 10
25.0
 20
18.25
 10
25.0
 20
18.125
 10
24.875
 20
18.0
 10
24.875
 20
17.875
 10
24.75
 20
17.75
 10
24.75
 20
17.625
 10
24.625
 20
17.5
 10
24.625
 20
17.375
 10
24.5
 20
17.25
 10
24.5
 20
17.125
 10
24.625
 20
17.0
 10
25.125
 20
17.0
 10
25.25
 20
17.125
 10
26.5
 20
17.125
 10
26.625
 20
17.0
 10
26.75
 20
17.0
 10
26.875
 20
16.875
 10
27.0
 20
16.875
 10
27.125
 20
16.75
 10
27.25
 20
16.75
 10
27.5
 20
16.5
 10
27.625
 20
16.5
 10
27.875
 20
16.25
  0
LWPOLYLINE
  5
58
330
17
100
AcDbEntity
  8
default
100
AcDbPolyline
 90
103
 70
0
 10
88.25
 20
15.125
 10
88.375
 20
15.0
 10
88.875
 20
15.0
 10
89.0
 20
15.125
 10
89.25
 20
15.125
 10
89.375
 20
15.25
 10
89.625
 20
15.25
 10
89.75
 20
15.375
 10
90.0
 20
15.375
 10
90.125
 20
15.5
 10
90.25
 20
15.5
 10
90.375
 20
15.625
 10
90.625
 20
15.625
 10
90.75
 20
15.75
 10
90.875
 20
15.75
 10
91.0
 20
15.875
 10
91.125
 20
15.875
 10
91.25
 20
16.0
 10
91.375
 20
16.0
 10
91.5
 20
16.125
 10
91.625
 20
16.125
 10
91.875
 20
16.375
 10
92.0
 20
16.375
 10
92.25
 20
16.625
 10
92.375
 20
16.625
 10
92.75
 20
17.0
 10
92.875
 20
17.0
 10
93.75
 20
17.875
 10
93.75
 20
18.0
 10
93.875
 20
18.125
 10
93.875
 20
18.375
 10
94.0
 20
18.5
 10
94.0
 20
19.0
 10
94.125
 20
19.125
 10
94.125
 20
20.125
 10
94.25
 20
20.25
 10
94.25
 20
21.625
 10
94.125
 20
21.75
 10
94.125
 20
22.125
 10
94.0
 20
22.25
 10
94.0
 20
22.375
 10
93.875
 20
22.5
 10
93.875
 20
22.625
 10
93.75
 20
22.75
 10
93.75
 20
22.875
 10
93.625
 20
23.0
 10
93.625
 20
23.375
 10
93.5
 20
23.5
 10
93.5
 20
24.875
 10
93.375
 20
25.0
 10
93.125
 20
25.0
 10
93.0
 20
24.875
 10
92.875
 20
24.875
 10
92.75
 20
24.75
 10
92.625
 20
24.75
 10
92.375
 20
24.5
 10
92.25
 20
24.5
 10
92.125
 20
24.375
 10
92.0
 20
24.375
 10
91.875
 20
24.25
 10
91.75
 20
24.25
 10
91.625
 20
24.125
 10
91.5
 20
24.125
 10
91.375
 20
24.0
 10
91.25
 20
24.0
 10
91.125
 20
23.875
 10
91.0
 20
23.875
 10
90.875
 20
23.75
 10
90.75
 20
23.75
 10
90.625
 20
23.625
 10
90.5
 20
23.625
 10
90.375
 20
23.5
 10
90.125
 20
23.5
 10
90.0
 20
23.375
 10
89.875
 20
23.375
 10
89.75
 20
23.25
 10
89.625
 20
23.25
 10
89.5
 20
23.125
 10
89.25
 20
23.125
 10
89.125
 20
23.0
 10
89.0
 20
23.0
 10
88.875
 20
22.875
 10
88.625
 20
22.875
 10
88.5
 20
22.75
 10
88.125
 20
22.75
 10
88.0
 20
22.625
 10
87.875
 20
22.625
 10
87.75
 20
22.5
 10
87.75
 20
22.375
 10
87.5
 20
22.125
 10
87.5
 20
19.5
 10
87.625
 20
19.375
 10
87.625
 20
18.875
 10
87.75
 20
18.75
 10
87.75
 20
18.25
 10
87.875
 20
18.125
 10
87.875
 20
17.5
 10
88.0
 20
17.375
 10
88.0
 20
16.25
 10
88.125
 20
16.125
 10
88.125
 20
15.375
 10
88.25
 20
15.25
 10
88.25
 20
15.125
  0
LWPOLYLINE
  5
59
330
17
100
AcDbEntity
  8
default
100
AcDbPolyline
 90
93
 70
0
 10
11.0
 20
10.375
 10
11.125
 20
10.25
 10
11.5
 20
10.25
 10
11.625
 20
10.375
 10
11.625
 20
10.5
 10
11.75
 20
10.625
 10
11.75
 20
11.25
 10
11.625
 20
11.375
 10
11.625
 20
12.875
 10
11.5
 20
13.0
 10
11.5
 20
14.625
 10
11.375
 20
14.75
 10
11.375
 20
16.125
 10
11.25
 20
16.25
 10
11.25
 20
17.25
 10
11.125
 20
17.375
 10
11.125
 20
18.125
 10
11.0
 20
18.25
 10
11.0
 20
18.875
 10
10.875
 20
19.0
 10
10.875
 20
19.375
 10
10.75
 20
19.5
 10
10.75
 20
19.875
 10
10.625
 20
20.0
 10
10.625
 20
20.25
 10
10.5
 20
20.375
 10
10.5
 20
20.625
 10
10.375
 20
20.75
 10
10.375
 20
21.0
 10
10.25
 20
21.125
 10
10.25
 20
21.25
 10
9.875
 20
21.625
 10
9.75
 20
21.625
 10
9.625
 20
21.75
 10
8.25
 20
21.75
 10
8.125
 20
21.875
 10
7.625
 20
21.875
 10
7.5
 20
22.0
 10
7.125
 20
22.0
 10
6.875
 20
21.75
 10
6.875
 20
21.625
 10
6.75
 20
21.5
 10
6.75
 20
20.75
 10
6.625
 20
20.625
 10
6.625
 20
19.25
 10
6.5
 20
19.125
 10
6.5
 20
16.625
 10
6.625
 20
16.5
 10
6.625
 20
16.0
 10
6.75
 20
15.875
 10
6.75
 20
15.5
 10
6.875
 20
15.375
 10
6.875
 20
15.25
 10
7.0
 20
15.125
 10
7.0
 20
15.0
 10
7.125
 20
14.875
 10
7.125
 20
14.75
 10
7.25
 20
14.625
 10
7.25
 20
14.5
 10
7.375
 20
14.375
 10
7.375
 20
14.25
 10
7.5
 20
14.125
 10
7.5
 20
14.0
 10
7.625
 20
13.875
 10
7.625
 20
13.75
 10
7.75
 20
13.625
 10
7.75
 20
13.5
 10
7.875
 20
13.375
 10
7.875
 20
13.25
 10
8.0
 20
13.125
 10
8.0
 20
13.0
 10
8.25
 20
12.75
 10
8.25
 20
12.625
 10
8.375
 20
12.5
 10
8.375
 20
12.375
 10
8.5
 20
12.25
 10
8.5
 20
12.125
 10
8.625
 20
12.0
 10
8.625
 20
11.875
 10
8.875
 20
11.625
 10
8.875
 20
11.5
 10
9.375
 20
11.0
 10
9.5
 20
11.0
 10
9.625
 20
10.875
 10
9.75
 20
10.875
 10
9.875
 20
10.75
 10
10.0
 20
10.75
 10
10.125
 20
10.625
 10
10.375
 20
10.625
 10
10.5
 20
10.5
 10
10.625
 20
10.5
 10
10.75
 20
10.375
 10
11.0
 20
10.375
  0
LWPOLYLINE
  5
5A
330
17
100
AcDbEntity
  8
default
100
AcDbPolyline
 90
39
 70
0
 10
87.875
 20
6.75
 10
88.625
 20
6.75
 10
88.75
 20
6.875
 10
89.0
 20
6.875
 10
89.125
 20
7.0
 10
89.25
 20
7.0
 10
90.25
 20
8.0
 10
90.375
 20
8.0
 10
90.75
 20
8.375
 10
90.75
 20
8.5
 10
91.0
 20
8.75
 10
91.0
 20
8.875
 10
91.125
 20
9.0
 10
91.125
 20
9.125
 10
91.25
 20
9.25
 10
91.25
 20
9.375
 10
91.375
 20
9.5
 10
91.375
 20
9.75
 10
91.5
 20
9.875
 10
91.5
 20
10.375
 10
91.375
 20
10.5
 10
90.75
 20
10.5
 10
90.625
 20
10.375
 10
90.375
 20
10.375
 10
90.25
 20
10.25
 10
90.0
 20
10.25
 10
89.875
 20
10.125
 10
89.5
 20
10.125
 10
89.375
 20
10.0
 10
88.875
 20
10.0
 10
88.75
 20
9.875
 10
88.25
 20
9.875
 10
87.75
 20
9.375
 10
87.75
 20
9.125
 10
87.625
 20
9.0
 10
87.625
 20
8.0
 10
87.5
 20
7.875
 10
87.5
 20
7.125
 10
87.875
 20
6.75
  0
LWPOLYLINE
  5
5B
330
17
100
AcDbEntity
  8
default
100
AcDbPolyline
 90
83
 70
0
 10
75.5
 20
6.5
 10
75.75
 20
6.5
 10
75.875
 20
6.625
 10
76.25
 20
6.625
 10
76.375
 20
6.75
 10
77.0
 20
6.75
 10
77.125
 20
6.875
 10
79.375
 20
6.875
 10
79.5
 20
6.75
 10
81.875
 20
6.75
 10
82.0
 20
6.875
 10
82.125
 20
6.875
 10
82.5
 20
7.25
 10
82.5
 20
8.0
 10
82.625
 20
8.125
 10
82.625
 20
9.25
 10
82.75
 20
9.375
 10
82.75
 20
10.25
 10
82.875
 20
10.375
 10
82.875
 20
11.375
 10
83.0
 20
11.5
 10
83.0
 20
12.0
 10
82.875
 20
12.125
 10
82.875
 20
12.25
 10
82.5
 20
12.625
 10
82.0
 20
12.625
 10
81.875
 20
12.75
 10
81.5
 20
12.75
 10
81.375
 20
12.875
 10
81.125
 20
12.875
 10
81.0
 20
13.0
 10
80.75
 20
13.0
 10
80.625
 20
13.125
 10
80.375
 20
13.125
 10
80.25
 20
13.25
 10
80.0
 20
13.25
 10
79.875
 20
13.375
 10
79.75
 20
13.375
 10
79.625
 20
13.5
 10
79.375
 20
13.5
 10
79.25
 20
13.625
 10
79.125
 20
13.625
 10
79.0
 20
13.75
 10
78.75
 20
13.75
 10
78.625
 20
13.875
 10
78.5
 20
13.875
 10
78.375
 20
14.0
 10
78.125
 20
14.0
 10
78.0
 20
14.125
 10
77.875
 20
14.125
 10
77.75
 20
14.25
 10
77.5
 20
14.25
 10
77.375
 20
14.375
 10
77.25
 20
14.375
 10
77.125
 20
14.5
 10
76.875
 20
14.5
 10
76.75
 20
14.375
 10
76.625
 20
14.375
 10
76.5
 20
14.25
 10
76.5
 20
14.125
 10
76.375
 20
14.0
 10
76.375
 20
13.625
 10
76.25
 20
13.5
 10
76.25
 20
13.125
 10
76.125
 20
13.0
 10
76.125
 20
12.625
 10
76.0
 20
12.5
 10
76.0
 20
12.125
 10
75.875
 20
12.0
 10
75.875
 20
11.625
 10
75.75
 20
11.5
 10
75.75
 20
11.0
 10
75.625
 20
10.875
 10
75.625
 20
10.5
 10
75.5
 20
10.375
 10
75.5
 20
9.625
 10
75.375
 20
9.5
 10
75.375
 20
8.625
 10
75.25
 20
8.5
 10
75.25
 20
7.5
 10
75.125
 20
7.375
 10
75.125
 20
6.875
 10
75.5
 20
6.5
  0
LWPOLYLINE
  5
5C
330
17
100
AcDbEntity
  8
default
100
AcDbPolyline
 90
83
 70
0
 10
17.625
 20
6.375
 10
18.0
 20
6.375
 10
18.125
 20
6.5
 10
18.5
 20
6.5
 10
18.625
 20
6.625
 10
19.0
 20
6.625
 10
19.125
 20
6.75
 10
19.25
 20
6.75
 10
19.375
 20
6.875
 10
19.625
 20
6.875
 10
19.75
 20
7.0
 10
19.875
 20
7.0
 10
20.0
 20
7.125
 10
20.125
 20
7.125
 10
20.25
 20
7.25
 10
20.5
 20
7.25
 10
20.625
 20
7.375
 10
20.75
 20
7.375
 10
20.875
 20
7.5
 10
21.125
 20
7.5
 10
21.25
 20
7.625
 10
21.375
 20
7.625
 10
21.625
 20
7.875
 10
21.625
 20
8.0
 10
21.75
 20
8.125
 10
21.75
 20
8.375
 10
21.875
 20
8.5
 10
21.875
 20
13.25
 10
22.0
 20
13.375
 10
22.0
 20
13.875
 10
22.125
 20
14.0
 10
22.125
 20
14.625
 10
22.0
 20
14.75
 10
21.75
 20
14.75
 10
21.625
 20
14.625
 10
21.375
 20
14.625
 10
21.25
 20
14.5
 10
21.125
 20
14.5
 10
21.0
 20
14.375
 10
20.75
 20
14.375
 10
20.625
 20
14.25
 10
20.5
 20
14.25
 10
20.375
 20
14.125
 10
20.125
 20
14.125
 10
20.0
 20
14.0
 10
19.75
 20
14.0
 10
19.625
 20
13.875
 10
19.5
 20
13.875
 10
19.375
 20
13.75
 10
19.25
 20
13.75
 10
19.125
 20
13.625
 10
19.0
 20
13.625
 10
18.875
 20
13.5
 10
18.75
 20
13.5
 10
18.625
 20
13.375
 10
18.5
 20
13.375
 10
18.375
 20
13.25
 10
18.25
 20
13.25
 10
18.125
 20
13.125
 10
17.875
 20
13.125
 10
17.75
 20
13.0
 10
17.625
 20
13.0
 10
17.5
 20
12.875
 10
17.25
 20
12.875
 10
17.125
 20
12.75
 10
17.0
 20
12.75
 10
16.75
 20
12.5
 10
16.75
 20
12.25
 10
16.625
 20
12.125
 10
16.625
 20
11.375
 10
16.75
 20
11.25
 10
16.75
 20
10.125
 10
16.875
 20
10.0
 10
16.875
 20
9.125
 10
17.0
 20
9.0
 10
17.0
 20
8.125
 10
17.125
 20
8.0
 10
17.125
 20
7.25
 10
17.25
 20
7.125
 10
17.25
 20
6.875
 10
17.375
 20
6.75
 10
17.375
 20
6.625
 10
17.625
 20
6.375
  0
LWPOLYLINE
  5
5D
330
17
100
AcDbEntity
  8
default
100
AcDbPolyline
 90
54
 70
0
 10
91.5
 20
1.75
 10
91.625
 20
1.625
 10
97.125
 20
1.625
 10
97.25
 20
1.75
 10
97.75
 20
1.75
 10
98.25
 20
2.25
 10
98.25
 20
2.75
 10
98.375
 20
2.875
 10
98.375
 20
14.375
 10
98.25
 20
14.5
 10
98.25
 20
14.875
 10
98.0
 20
15.125
 10
97.875
 20
15.0
 10
97.75
 20
15.0
 10
96.25
 20
13.5
 10
96.125
 20
13.5
 10
95.625
 20
13.0
 10
95.5
 20
13.0
 10
94.75
 20
12.25
 10
94.75
 20
12.125
 10
95.875
 20
11.0
 10
95.875
 20
10.875
 10
96.0
 20
10.75
 10
96.0
 20
10.5
 10
96.125
 20
10.375
 10
96.125
 20
10.0
 10
96.25
 20
9.875
 10
96.25
 20
8.875
 10
96.125
 20
8.75
 10
96.125
 20
8.25
 10
96.0
 20
8.125
 10
96.0
 20
7.75
 10
95.875
 20
7.625
 10
95.875
 20
7.375
 10
95.75
 20
7.25
 10
95.75
 20
7.125
 10
95.625
 20
7.0
 10
95.625
 20
6.875
 10
95.5
 20
6.75
 10
95.5
 20
6.625
 10
95.375
 20
6.5
 10
95.375
 20
6.375
 10
95.0
 20
6.0
 10
95.0
 20
5.875
 10
93.25
 20
4.125
 10
93.125
 20
4.125
 10
92.375
 20
3.375
 10
92.25
 20
3.375
 10
91.5
 20
2.625
 10
91.375
 20
2.625
 10
90.875
 20
2.125
 10
90.875
 20
1.875
 10
91.0
 20
1.75
 10
91.5
 20
1.75
  0
LWPOLYLINE
  5
5E
330
17
100
AcDbEntity
  8
default
100
AcDbPolyline
 90
69
 70
0
 10
21.625
 20
1.75
 10
21.75
 20
1.625
 10
27.125
 20
1.625
 10
27.25
 20
1.75
 10
27.75
 20
1.75
 10
28.25
 20
2.25
 10
28.25
 20
2.75
 10
28.375
 20
2.875
 10
28.375
 20
13.0
 10
28.25
 20
13.125
 10
28.25
 20
13.625
 10
28.125
 20
13.75
 10
27.875
 20
13.75
 10
27.25
 20
13.125
 10
27.25
 20
13.0
 10
27.125
 20
12.875
 10
27.125
 20
12.75
 10
27.0
 20
12.625
 10
27.0
 20
12.375
 10
26.875
 20
12.25
 10
26.875
 20
8.0
 10
26.75
 20
7.875
 10
26.75
 20
7.0
 10
26.625
 20
6.875
 10
26.625
 20
6.375
 10
26.5
 20
6.25
 10
26.5
 20
5.875
 10
26.375
 20
5.75
 10
26.375
 20
5.625
 10
26.25
 20
5.5
 10
26.25
 20
5.25
 10
26.0
 20
5.0
 10
26.0
 20
4.875
 10
25.75
 20
4.625
 10
25.75
 20
4.5
 10
25.5
 20
4.25
 10
25.375
 20
4.25
 10
25.0
 20
3.875
 10
24.875
 20
3.875
 10
24.75
 20
3.75
 10
24.625
 20
3.75
 10
24.5
 20
3.625
 10
24.375
 20
3.625
 10
24.25
 20
3.5
 10
24.125
 20
3.5
 10
24.0
 20
3.375
 10
23.875
 20
3.375
 10
23.75
 20
3.25
 10
23.5
 20
3.25
 10
23.375
 20
3.125
 10
23.25
 20
3.125
 10
23.125
 20
3.0
 10
22.875
 20
3.0
 10
22.75
 20
2.875
 10
22.625
 20
2.875
 10
22.5
 20
2.75
 10
22.375
 20
2.75
 10
22.25
 20
2.625
 10
22.125
 20
2.625
 10
22.0
 20
2.5
 10
21.875
 20
2.5
 10
21.75
 20
2.375
 10
21.625
 20
2.375
 10
21.5
 20
2.25
 10
21.375
 20
2.25
 10
21.125
 20
2.0
 10
21.125
 20
1.875
 10
21.25
 20
1.75
 10
21.625
 20
1.75
  0
LWPOLYLINE
  5
5F
330
17
100
AcDbEntity
  8
default
100
AcDbPolyline
 90
91
 70
0
 10
2.75
 20
1.75
 10
2.875
 20
1.625
 10
8.0
 20
1.625
 10
8.125
 20
1.75
 10
8.375
 20
1.75
 10
8.75
 20
2.125
 10
8.75
 20
2.5
 10
8.875
 20
2.625
 10
8.875
 20
3.0
 10
9.0
 20
3.125
 10
9.0
 20
3.375
 10
9.125
 20
3.5
 10
9.125
 20
3.625
 10
9.375
 20
3.875
 10
9.375
 20
4.0
 10
10.25
 20
4.875
 10
10.25
 20
5.125
 10
9.875
 20
5.5
 10
9.75
 20
5.5
 10
9.625
 20
5.625
 10
9.375
 20
5.625
 10
9.25
 20
5.75
 10
9.125
 20
5.75
 10
9.0
 20
5.875
 10
8.875
 20
5.875
 10
8.75
 20
6.0
 10
8.5
 20
6.0
 10
8.375
 20
6.125
 10
8.125
 20
6.125
 10
8.0
 20
6.25
 10
7.875
 20
6.25
 10
7.75
 20
6.375
 10
7.5
 20
6.375
 10
7.375
 20
6.5
 10
7.25
 20
6.5
 10
7.125
 20
6.625
 10
7.0
 20
6.625
 10
6.875
 20
6.75
 10
6.75
 20
6.75
 10
6.625
 20
6.875
 10
6.5
 20
6.875
 10
6.25
 20
7.125
 10
6.125
 20
7.125
 10
5.375
 20
7.875
 10
5.375
 20
8.0
 10
5.125
 20
8.25
 10
5.125
 20
8.375
 10
4.875
 20
8.625
 10
4.875
 20
8.75
 10
4.75
 20
8.875
 10
4.75
 20
9.0
 10
4.5
 20
9.25
 10
4.5
 20
9.375
 10
4.375
 20
9.5
 10
4.375
 20
9.625
 10
4.25
 20
9.75
 10
4.25
 20
9.875
 10
4.125
 20
10.0
 10
4.125
 20
10.125
 10
4.0
 20
10.25
 10
4.0
 20
10.375
 10
3.75
 20
10.625
 10
3.75
 20
10.75
 10
3.625
 20
10.875
 10
3.625
 20
11.0
 10
3.5
 20
11.125
 10
3.5
 20
11.25
 10
3.25
 20
11.5
 10
3.25
 20
11.625
 10
3.125
 20
11.75
 10
3.125
 20
11.875
 10
3.0
 20
12.0
 10
3.0
 20
12.125
 10
2.875
 20
12.25
 10
2.875
 20
12.375
 10
2.625
 20
12.625
 10
2.625
 20
12.75
 10
2.5
 20
12.875
 10
2.5
 20
13.0
 10
2.375
 20
13.125
 10
2.375
 20
13.25
 10
2.0
 20
13.625
 10
1.875
 20
13.625
 10
1.75
 20
13.5
 10
1.75
 20
13.125
 10
1.625
 20
13.0
 10
1.625
 20
2.875
 10
1.75
 20
2.75
 10
1.75
 20
2.25
 10
2.25
 20
1.75
 10
2.75
 20
1.75
  0
ENDSEC
  0
SECTION
  2
OBJECTS
  0
DICTIONARY
  5
A
330
0
100
AcDbDictionary
280
0
281
1
  3
ACAD_COLOR
350
B
  3
ACAD_GROUP
350
C
  3
ACAD_LAYOUT
350
D
  3
ACAD_MATERIAL
350
E
  3
ACAD_MLEADERSTYLE
350
F
  3
ACAD_MLINESTYLE
350
10
  3
ACAD_PLOTSETTINGS
350
11
  3
ACAD_PLOTSTYLENAME
350
12
  3
ACAD_SCALELIST
350
14
  3
ACAD_TABLESTYLE
350
15
  3
ACAD_VISUALSTYLE
350
16
  3
EZDXF_META
350
2D
  0
DICTIONARY
  5
B
330
A
100
AcDbDictionary
280
0
281
1
  0
DICTIONARY
  5
C
330
A
100
AcDbDictionary
280
0
281
1
  0
DICTIONARY
  5
D
330
A
100
AcDbDictionary
280
0
281
1
  3
Model
350
1A
  3
Layout1
350
1E
  0
DICTIONARY
  5
E
330
A
100
AcDbDictionary
280
0
281
1
  3
ByBlock
350
1F
  3
ByLayer
350
20
  3
Global
350
21
  0
DICTIONARY
  5
F
330
A
100
AcDbDictionary
280
0
281
1
  3
Standard
350
2C
  0
DICTIONARY
  5
10
330
A
100
AcDbDictionary
280
0
281
1
  3
Standard
350
22
  0
DICTIONARY
  5
11
330
A
100
AcDbDictionary
280
0
281
1
  0
ACDBDICTIONARYWDFLT
  5
12
330
A
100
AcDbDictionary
280
0
281
1
  3
Normal
350
13
100
AcDbDictionaryWithDefault
340
13
  0
ACDBPLACEHOLDER
  5
13
330
12
  0
DICTIONARY
  5
14
330
A
100
AcDbDictionary
280
0
281
1
  0
DICTIONARY
  5
15
330
A
100
AcDbDictionary
280
0
281
1
  0
DICTIONARY
  5
16
330
A
100
AcDbDictionary
280
0
281
1
  0
LAYOUT
  5
1A
330
D
100
AcDbPlotSettings
  1

  2
Adobe PDF
  4
A3
  6

 40
7.5
 41
20.0
 42
7.5
 43
20.0
 44
420.0
 45
297.0
 46
0.0
 47
0.0
 48
0.0
 49
0.0
140
0.0
141
0.0
142
1.0
143
1.0
 70
1024
 72
1
 73
0
 74
5
  7

 75
16
 76
0
 77
2
 78
300
147
1.0
148
0.0
149
0.0
100
AcDbLayout
  1
Model
 70
1
 71
0
 10
0.0
 20
0.0
 11
420.0
 21
297.0
 12
0.0
 22
0.0
 32
0.0
 14
1e+20
 24
1e+20
 34
1e+20
 15
-1e+20
 25
-1e+20
 35
-1e+20
146
0.0
 13
0.0
 23
0.0
 33
0.0
 16
1.0
 26
0.0
 36
0.0
 17
0.0
 27
1.0
 37
0.0
 76
1
330
17
  0
LAYOUT
  5
1E
330
D
100
AcDbPlotSettings
  1

  2
Adobe PDF
  4
A3
  6

 40
7.5
 41
20.0
 42
7.5
 43
20.0
 44
420.0
 45
297.0
 46
0.0
 47
0.0
 48
0.0
 49
0.0
140
0.0
141
0.0
142
1.0
143
1.0
 70
0
 72
1
 73
0
 74
5
  7

 75
16
 76
0
 77
2
 78
300
147
1.0
148
0.0
149
0.0
100
AcDbLayout
  1
Layout1
 70
1
 71
1
 10
0.0
 20
0.0
 11
420.0
 21
297.0
 12
0.0
 22
0.0
 32
0.0
 14
1e+20
 24
1e+20
 34
1e+20
 15
-1e+20
 25
-1e+20
 35
-1e+20
146
0.0
 13
0.0
 23
0.0
 33
0.0
 16
1.0
 26
0.0
 36
0.0
 17
0.0
 27
1.0
 37
0.0
 76
1
330
1B
  0
MATERIAL
  5
1F
102
{ACAD_REACTORS
330
E
102
}
330
E
100
AcDbMaterial
  1
ByBlock
  2

 70
0
 40
1.0
 71
1
 41
1.0
 91
-1023410177
 42
1.0
 72
1
  3

 73
1
 74
1
 75
1
 44
0.5
 73
0
 45
1.0
 46
1.0
 77
1
  4

 78
1
 79
1
170
1
 48
1.0
171
1
  6

172
1
173
1
174
1
140
1.0
141
1.0
175
1
  7

176
1
177
1
178
1
143
1.0
179
1
  8

270
1
271
1
272
1
145
1.0
146
1.0
273
1
  9

274
1
275
1
276
1
 42
1.0
 72
1
  3

 73
1
 74
1
 75
1
 94
63
  0
MATERIAL
  5
20
102
{ACAD_REACTORS
330
E
102
}
330
E
100
AcDbMaterial
  1
ByLayer
  2

 70
0
 40
1.0
 71
1
 41
1.0
 91
-1023410177
 42
1.0
 72
1
  3

 73
1
 74
1
 75
1
 44
0.5
 73
0
 45
1.0
 46
1.0
 77
1
  4

 78
1
 79
1
170
1
 48
1.0
171
1
  6

172
1
173
1
174
1
140
1.0
141
1.0
175
1
  7

176
1
177
1
178
1
143
1.0
179
1
  8

270
1
271
1
272
1
145
1.0
146
1.0
273
1
  9

274
1
275
1
276
1
 42
1.0
 72
1
  3

 73
1
 74
1
 75
1
 94
63
  0
MATERIAL
  5
21
102
{ACAD_REACTORS
330
E
102
}
330
E
100
AcDbMaterial
  1
Global
  2

 70
0
 40
1.0
 71
1
 41
1.0
 91
-1023410177
 42
1.0
 72
1
  3

 73
1
 74
1
 75
1
 44
0.5
 73
0
 45
1.0
 46
1.0
 77
1
  4

 78
1
 79
1
170
1
 48
1.0
171
1
  6

172
1
173
1
174
1
140
1.0
141
1.0
175
1
  7

176
1
177
1
178
1
143
1.0
179
1
  8

270
1
271
1
272
1
145
1.0
146
1.0
273
1
  9

274
1
275
1
276
1
 42
1.0
 72
1
  3

 73
1
 74
1
 75
1
 94
63
  0
MLINESTYLE
  5
22
102
{ACAD_REACTORS
330
10
102
}
330
10
100
AcDbMlineStyle
  2
Standard
 70
0
  3

 62
256
 51
90.0
 52
90.0
 71
2
 49
0.5
 62
256
  6
BYLAYER
 49
-0.5
 62
256
  6
BYLAYER
  0
MLEADERSTYLE
  5
2C
102
{ACAD_REACTORS
330
F
102
}
330
F
100
AcDbMLeaderStyle
179
2
170
2
171
1
172
0
 90
2
 40
0.0
 41
0.0
173
1
 91
-1056964608
 92
-2
290
1
 42
2.0
291
1
 43
8.0
  3
Standard
 44
4.0
300

342
29
174
1
175
1
176
0
178
1
 93
-1056964608
 45
4.0
292
0
297
0
 46
4.0
 94
-1056964608
 47
1.0
 49
1.0
140
1.0
294
1
141
0.0
177
0
142
1.0
295
0
296
0
143
3.75
271
0
272
9
273
9
  0
DICTIONARY
  5
2D
330
A
100
AcDbDictionary
281
1
  3
CREATED_BY_EZDXF
350
2E
  3
WRITTEN_BY_EZDXF
350
62
  0
DICTIONARYVAR
  5
2E
330
2D
100
DictionaryVariables
280
0
  1
1.1.1 @ 2023-10-13T19:55:24.296015+00:00
  0
DICTIONARYVAR
  5
62
330
2D
100
DictionaryVariables
280
0
  1
1.1.1 @ 2023-10-13T19:55:24.323776+00:00
  0
ENDSEC
  0
EOF
