solid OpenSCAD_Model
  facet normal -1 0 0
    outer loop
      vertex 0 0 0
      vertex 0 30.48 6.35
      vertex 0 30.48 0
    endloop
  endfacet
  facet normal -1 -0 0
    outer loop
      vertex 0 30.48 6.35
      vertex 0 0 0
      vertex 0 0 6.35
    endloop
  endfacet
  facet normal -0 0 1
    outer loop
      vertex 0.507999 3.048 6.35
      vertex 2.032 2.032 6.35
      vertex 2.032 3.048 6.35
    endloop
  endfacet
  facet normal 0 0 1
    outer loop
      vertex 2.032 2.032 6.35
      vertex 0.507999 3.048 6.35
      vertex 0.507999 2.032 6.35
    endloop
  endfacet
  facet normal -0 0 1
    outer loop
      vertex 0.507999 5.588 6.35
      vertex 2.032 4.572 6.35
      vertex 2.032 5.588 6.35
    endloop
  endfacet
  facet normal 0 0 1
    outer loop
      vertex 2.032 4.572 6.35
      vertex 0.507999 5.588 6.35
      vertex 0.507999 4.572 6.35
    endloop
  endfacet
  facet normal -0 0 1
    outer loop
      vertex 0.507999 8.128 6.35
      vertex 2.032 7.112 6.35
      vertex 2.032 8.128 6.35
    endloop
  endfacet
  facet normal 0 0 1
    outer loop
      vertex 2.032 7.112 6.35
      vertex 0.507999 8.128 6.35
      vertex 0.507999 7.112 6.35
    endloop
  endfacet
  facet normal -0 0 1
    outer loop
      vertex 0.507999 10.668 6.35
      vertex 2.032 9.652 6.35
      vertex 2.032 10.668 6.35
    endloop
  endfacet
  facet normal 0 0 1
    outer loop
      vertex 2.032 9.652 6.35
      vertex 0.507999 10.668 6.35
      vertex 0.507999 9.652 6.35
    endloop
  endfacet
  facet normal -0 0 1
    outer loop
      vertex 0.507999 13.208 6.35
      vertex 2.032 12.192 6.35
      vertex 2.032 13.208 6.35
    endloop
  endfacet
  facet normal 0 0 1
    outer loop
      vertex 2.032 12.192 6.35
      vertex 0.507999 13.208 6.35
      vertex 0.507999 12.192 6.35
    endloop
  endfacet
  facet normal -0 0 1
    outer loop
      vertex 0.507999 15.748 6.35
      vertex 2.032 14.732 6.35
      vertex 2.032 15.748 6.35
    endloop
  endfacet
  facet normal 0 0 1
    outer loop
      vertex 2.032 14.732 6.35
      vertex 0.507999 15.748 6.35
      vertex 0.507999 14.732 6.35
    endloop
  endfacet
  facet normal -0 0 1
    outer loop
      vertex 0.507999 18.288 6.35
      vertex 2.032 17.272 6.35
      vertex 2.032 18.288 6.35
    endloop
  endfacet
  facet normal 0 0 1
    outer loop
      vertex 2.032 17.272 6.35
      vertex 0.507999 18.288 6.35
      vertex 0.507999 17.272 6.35
    endloop
  endfacet
  facet normal -0 0 1
    outer loop
      vertex 0.507999 20.828 6.35
      vertex 2.032 19.812 6.35
      vertex 2.032 20.828 6.35
    endloop
  endfacet
  facet normal 0 0 1
    outer loop
      vertex 2.032 19.812 6.35
      vertex 0.507999 20.828 6.35
      vertex 0.507999 19.812 6.35
    endloop
  endfacet
  facet normal -0 0 1
    outer loop
      vertex 0.507999 23.368 6.35
      vertex 2.032 22.352 6.35
      vertex 2.032 23.368 6.35
    endloop
  endfacet
  facet normal 0 0 1
    outer loop
      vertex 2.032 22.352 6.35
      vertex 0.507999 23.368 6.35
      vertex 0.507999 22.352 6.35
    endloop
  endfacet
  facet normal -0 0 1
    outer loop
      vertex 0.507999 25.908 6.35
      vertex 2.032 24.892 6.35
      vertex 2.032 25.908 6.35
    endloop
  endfacet
  facet normal 0 0 1
    outer loop
      vertex 2.032 24.892 6.35
      vertex 0.507999 25.908 6.35
      vertex 0.507999 24.892 6.35
    endloop
  endfacet
  facet normal -0 0 1
    outer loop
      vertex 0.507999 28.448 6.35
      vertex 2.032 27.432 6.35
      vertex 2.032 28.448 6.35
    endloop
  endfacet
  facet normal 0 0 1
    outer loop
      vertex 2.032 27.432 6.35
      vertex 0.507999 28.448 6.35
      vertex 0.507999 27.432 6.35
    endloop
  endfacet
  facet normal 0 0 1
    outer loop
      vertex 2.032 28.448 6.35
      vertex 2.54 30.48 6.35
      vertex 2.032 29.972 6.35
    endloop
  endfacet
  facet normal 0 0 1
    outer loop
      vertex 2.54 30.48 6.35
      vertex 0.507999 29.972 6.35
      vertex 2.032 29.972 6.35
    endloop
  endfacet
  facet normal 0 0 1
    outer loop
      vertex 0 30.48 6.35
      vertex 0.507999 28.448 6.35
      vertex 0.507999 29.972 6.35
    endloop
  endfacet
  facet normal 0 0 1
    outer loop
      vertex 0.507999 28.448 6.35
      vertex 0 30.48 6.35
      vertex 0.507999 27.432 6.35
    endloop
  endfacet
  facet normal 0 0 1
    outer loop
      vertex 0.507999 27.432 6.35
      vertex 0 30.48 6.35
      vertex 0.507999 25.908 6.35
    endloop
  endfacet
  facet normal 0 0 1
    outer loop
      vertex 0.507999 25.908 6.35
      vertex 0 30.48 6.35
      vertex 0.507999 24.892 6.35
    endloop
  endfacet
  facet normal 0 0 1
    outer loop
      vertex 0.507999 24.892 6.35
      vertex 0 30.48 6.35
      vertex 0.507999 23.368 6.35
    endloop
  endfacet
  facet normal 0 0 1
    outer loop
      vertex 0.507999 23.368 6.35
      vertex 0 30.48 6.35
      vertex 0.507999 22.352 6.35
    endloop
  endfacet
  facet normal 0 0 1
    outer loop
      vertex 0.507999 22.352 6.35
      vertex 0 30.48 6.35
      vertex 0.507999 20.828 6.35
    endloop
  endfacet
  facet normal 0 0 1
    outer loop
      vertex 0.507999 20.828 6.35
      vertex 0 30.48 6.35
      vertex 0.507999 19.812 6.35
    endloop
  endfacet
  facet normal 0 0 1
    outer loop
      vertex 0.507999 19.812 6.35
      vertex 0 30.48 6.35
      vertex 0.507999 18.288 6.35
    endloop
  endfacet
  facet normal 0 0 1
    outer loop
      vertex 0.507999 18.288 6.35
      vertex 0 30.48 6.35
      vertex 0.507999 17.272 6.35
    endloop
  endfacet
  facet normal 0 0 1
    outer loop
      vertex 0.507999 17.272 6.35
      vertex 0 30.48 6.35
      vertex 0.507999 15.748 6.35
    endloop
  endfacet
  facet normal 0 0 1
    outer loop
      vertex 0.507999 15.748 6.35
      vertex 0 30.48 6.35
      vertex 0.507999 14.732 6.35
    endloop
  endfacet
  facet normal 0 0 1
    outer loop
      vertex 0.507999 14.732 6.35
      vertex 0 30.48 6.35
      vertex 0.507999 13.208 6.35
    endloop
  endfacet
  facet normal 0 0 1
    outer loop
      vertex 0 0 6.35
      vertex 0.507999 13.208 6.35
      vertex 0 30.48 6.35
    endloop
  endfacet
  facet normal 0 0 1
    outer loop
      vertex 0.507999 13.208 6.35
      vertex 0 0 6.35
      vertex 0.507999 12.192 6.35
    endloop
  endfacet
  facet normal 0 0 1
    outer loop
      vertex 0.507999 12.192 6.35
      vertex 0 0 6.35
      vertex 0.507999 10.668 6.35
    endloop
  endfacet
  facet normal 0 0 1
    outer loop
      vertex 0.507999 10.668 6.35
      vertex 0 0 6.35
      vertex 0.507999 9.652 6.35
    endloop
  endfacet
  facet normal 0 0 1
    outer loop
      vertex 0.507999 9.652 6.35
      vertex 0 0 6.35
      vertex 0.507999 8.128 6.35
    endloop
  endfacet
  facet normal 0 0 1
    outer loop
      vertex 0.507999 8.128 6.35
      vertex 0 0 6.35
      vertex 0.507999 7.112 6.35
    endloop
  endfacet
  facet normal 0 0 1
    outer loop
      vertex 0.507999 7.112 6.35
      vertex 0 0 6.35
      vertex 0.507999 5.588 6.35
    endloop
  endfacet
  facet normal 0 0 1
    outer loop
      vertex 0.507999 5.588 6.35
      vertex 0 0 6.35
      vertex 0.507999 4.572 6.35
    endloop
  endfacet
  facet normal 0 0 1
    outer loop
      vertex 0.507999 4.572 6.35
      vertex 0 0 6.35
      vertex 0.507999 3.048 6.35
    endloop
  endfacet
  facet normal 0 0 1
    outer loop
      vertex 0.507999 3.048 6.35
      vertex 0 0 6.35
      vertex 0.507999 2.032 6.35
    endloop
  endfacet
  facet normal -0 0 1
    outer loop
      vertex 0 30.48 6.35
      vertex 0.507999 29.972 6.35
      vertex 2.54 30.48 6.35
    endloop
  endfacet
  facet normal 0 0 1
    outer loop
      vertex 2.032 27.432 6.35
      vertex 2.54 30.48 6.35
      vertex 2.032 28.448 6.35
    endloop
  endfacet
  facet normal 0 0 1
    outer loop
      vertex 2.032 25.908 6.35
      vertex 2.54 30.48 6.35
      vertex 2.032 27.432 6.35
    endloop
  endfacet
  facet normal 0 0 1
    outer loop
      vertex 2.032 24.892 6.35
      vertex 2.54 30.48 6.35
      vertex 2.032 25.908 6.35
    endloop
  endfacet
  facet normal 0 0 1
    outer loop
      vertex 2.032 23.368 6.35
      vertex 2.54 30.48 6.35
      vertex 2.032 24.892 6.35
    endloop
  endfacet
  facet normal 0 0 1
    outer loop
      vertex 2.032 22.352 6.35
      vertex 2.54 30.48 6.35
      vertex 2.032 23.368 6.35
    endloop
  endfacet
  facet normal 0 0 1
    outer loop
      vertex 2.032 20.828 6.35
      vertex 2.54 30.48 6.35
      vertex 2.032 22.352 6.35
    endloop
  endfacet
  facet normal 0 0 1
    outer loop
      vertex 2.032 19.812 6.35
      vertex 2.54 30.48 6.35
      vertex 2.032 20.828 6.35
    endloop
  endfacet
  facet normal 0 0 1
    outer loop
      vertex 2.032 18.288 6.35
      vertex 2.54 30.48 6.35
      vertex 2.032 19.812 6.35
    endloop
  endfacet
  facet normal 0 0 1
    outer loop
      vertex 2.032 17.272 6.35
      vertex 2.54 30.48 6.35
      vertex 2.032 18.288 6.35
    endloop
  endfacet
  facet normal 0 0 1
    outer loop
      vertex 2.54 30.48 6.35
      vertex 2.032 17.272 6.35
      vertex 2.54 0 6.35
    endloop
  endfacet
  facet normal -0 0 1
    outer loop
      vertex 2.032 15.748 6.35
      vertex 2.54 0 6.35
      vertex 2.032 17.272 6.35
    endloop
  endfacet
  facet normal -0 0 1
    outer loop
      vertex 2.032 14.732 6.35
      vertex 2.54 0 6.35
      vertex 2.032 15.748 6.35
    endloop
  endfacet
  facet normal -0 0 1
    outer loop
      vertex 2.032 13.208 6.35
      vertex 2.54 0 6.35
      vertex 2.032 14.732 6.35
    endloop
  endfacet
  facet normal -0 0 1
    outer loop
      vertex 2.032 12.192 6.35
      vertex 2.54 0 6.35
      vertex 2.032 13.208 6.35
    endloop
  endfacet
  facet normal -0 0 1
    outer loop
      vertex 2.032 10.668 6.35
      vertex 2.54 0 6.35
      vertex 2.032 12.192 6.35
    endloop
  endfacet
  facet normal -0 0 1
    outer loop
      vertex 2.032 9.652 6.35
      vertex 2.54 0 6.35
      vertex 2.032 10.668 6.35
    endloop
  endfacet
  facet normal -0 0 1
    outer loop
      vertex 2.032 8.128 6.35
      vertex 2.54 0 6.35
      vertex 2.032 9.652 6.35
    endloop
  endfacet
  facet normal -0 0 1
    outer loop
      vertex 2.032 7.112 6.35
      vertex 2.54 0 6.35
      vertex 2.032 8.128 6.35
    endloop
  endfacet
  facet normal -0 0 1
    outer loop
      vertex 2.032 5.588 6.35
      vertex 2.54 0 6.35
      vertex 2.032 7.112 6.35
    endloop
  endfacet
  facet normal -0 0 1
    outer loop
      vertex 2.032 4.572 6.35
      vertex 2.54 0 6.35
      vertex 2.032 5.588 6.35
    endloop
  endfacet
  facet normal -0 0 1
    outer loop
      vertex 2.032 3.048 6.35
      vertex 2.54 0 6.35
      vertex 2.032 4.572 6.35
    endloop
  endfacet
  facet normal -0 0 1
    outer loop
      vertex 2.032 2.032 6.35
      vertex 2.54 0 6.35
      vertex 2.032 3.048 6.35
    endloop
  endfacet
  facet normal -0 0 1
    outer loop
      vertex 2.032 0.507999 6.35
      vertex 2.54 0 6.35
      vertex 2.032 2.032 6.35
    endloop
  endfacet
  facet normal -0 0 1
    outer loop
      vertex 0.507999 0.507999 6.35
      vertex 2.54 0 6.35
      vertex 2.032 0.507999 6.35
    endloop
  endfacet
  facet normal 0 0 1
    outer loop
      vertex 0.507999 0.507999 6.35
      vertex 0 0 6.35
      vertex 2.54 0 6.35
    endloop
  endfacet
  facet normal 0 0 1
    outer loop
      vertex 0.507999 2.032 6.35
      vertex 0 0 6.35
      vertex 0.507999 0.507999 6.35
    endloop
  endfacet
  facet normal 1 -0 0
    outer loop
      vertex 2.54 0 6.35
      vertex 2.54 30.48 2
      vertex 2.54 30.48 6.35
    endloop
  endfacet
  facet normal 1 0 0
    outer loop
      vertex 2.54 30.48 2
      vertex 2.54 0 6.35
      vertex 2.54 0 2
    endloop
  endfacet
  facet normal 0 0 -1
    outer loop
      vertex 0 0 0
      vertex 20.32 30.48 0
      vertex 20.32 0 0
    endloop
  endfacet
  facet normal -0 0 -1
    outer loop
      vertex 20.32 30.48 0
      vertex 0 0 0
      vertex 0 30.48 0
    endloop
  endfacet
  facet normal 0 -1 0
    outer loop
      vertex 0 0 6.35
      vertex 2.54 0 2
      vertex 2.54 0 6.35
    endloop
  endfacet
  facet normal 0 -1 -0
    outer loop
      vertex 2.54 0 2
      vertex 0 0 0
      vertex 17.78 0 2
    endloop
  endfacet
  facet normal 0 -1 0
    outer loop
      vertex 0 0 0
      vertex 2.54 0 2
      vertex 0 0 6.35
    endloop
  endfacet
  facet normal 0 -1 0
    outer loop
      vertex 17.78 0 2
      vertex 20.32 0 6.35
      vertex 17.78 0 6.35
    endloop
  endfacet
  facet normal 0 -1 0
    outer loop
      vertex 17.78 0 2
      vertex 20.32 0 0
      vertex 20.32 0 6.35
    endloop
  endfacet
  facet normal 0 -1 0
    outer loop
      vertex 20.32 0 0
      vertex 17.78 0 2
      vertex 0 0 0
    endloop
  endfacet
  facet normal 0 1 0
    outer loop
      vertex 20.32 30.48 6.35
      vertex 17.78 30.48 2
      vertex 17.78 30.48 6.35
    endloop
  endfacet
  facet normal 0 1 0
    outer loop
      vertex 17.78 30.48 2
      vertex 20.32 30.48 0
      vertex 2.54 30.48 2
    endloop
  endfacet
  facet normal 0 1 -0
    outer loop
      vertex 20.32 30.48 0
      vertex 17.78 30.48 2
      vertex 20.32 30.48 6.35
    endloop
  endfacet
  facet normal 0 1 -0
    outer loop
      vertex 2.54 30.48 2
      vertex 0 30.48 6.35
      vertex 2.54 30.48 6.35
    endloop
  endfacet
  facet normal 0 1 0
    outer loop
      vertex 2.54 30.48 2
      vertex 0 30.48 0
      vertex 0 30.48 6.35
    endloop
  endfacet
  facet normal 0 1 0
    outer loop
      vertex 0 30.48 0
      vertex 2.54 30.48 2
      vertex 20.32 30.48 0
    endloop
  endfacet
  facet normal -0 0 1
    outer loop
      vertex 2.54 30.48 2
      vertex 17.78 0 2
      vertex 17.78 30.48 2
    endloop
  endfacet
  facet normal 0 0 1
    outer loop
      vertex 17.78 0 2
      vertex 2.54 30.48 2
      vertex 2.54 0 2
    endloop
  endfacet
  facet normal 1 -0 0
    outer loop
      vertex 20.32 0 6.35
      vertex 20.32 30.48 0
      vertex 20.32 30.48 6.35
    endloop
  endfacet
  facet normal 1 0 0
    outer loop
      vertex 20.32 30.48 0
      vertex 20.32 0 6.35
      vertex 20.32 0 0
    endloop
  endfacet
  facet normal -1 0 0
    outer loop
      vertex 17.78 0 2
      vertex 17.78 30.48 6.35
      vertex 17.78 30.48 2
    endloop
  endfacet
  facet normal -1 -0 0
    outer loop
      vertex 17.78 30.48 6.35
      vertex 17.78 0 2
      vertex 17.78 0 6.35
    endloop
  endfacet
  facet normal -0 0 1
    outer loop
      vertex 18.288 3.048 6.35
      vertex 19.812 2.032 6.35
      vertex 19.812 3.048 6.35
    endloop
  endfacet
  facet normal 0 0 1
    outer loop
      vertex 19.812 2.032 6.35
      vertex 18.288 3.048 6.35
      vertex 18.288 2.032 6.35
    endloop
  endfacet
  facet normal -0 0 1
    outer loop
      vertex 18.288 5.588 6.35
      vertex 19.812 4.572 6.35
      vertex 19.812 5.588 6.35
    endloop
  endfacet
  facet normal 0 0 1
    outer loop
      vertex 19.812 4.572 6.35
      vertex 18.288 5.588 6.35
      vertex 18.288 4.572 6.35
    endloop
  endfacet
  facet normal -0 0 1
    outer loop
      vertex 18.288 8.128 6.35
      vertex 19.812 7.112 6.35
      vertex 19.812 8.128 6.35
    endloop
  endfacet
  facet normal 0 0 1
    outer loop
      vertex 19.812 7.112 6.35
      vertex 18.288 8.128 6.35
      vertex 18.288 7.112 6.35
    endloop
  endfacet
  facet normal -0 0 1
    outer loop
      vertex 18.288 10.668 6.35
      vertex 19.812 9.652 6.35
      vertex 19.812 10.668 6.35
    endloop
  endfacet
  facet normal 0 0 1
    outer loop
      vertex 19.812 9.652 6.35
      vertex 18.288 10.668 6.35
      vertex 18.288 9.652 6.35
    endloop
  endfacet
  facet normal -0 0 1
    outer loop
      vertex 18.288 13.208 6.35
      vertex 19.812 12.192 6.35
      vertex 19.812 13.208 6.35
    endloop
  endfacet
  facet normal 0 0 1
    outer loop
      vertex 19.812 12.192 6.35
      vertex 18.288 13.208 6.35
      vertex 18.288 12.192 6.35
    endloop
  endfacet
  facet normal -0 0 1
    outer loop
      vertex 18.288 15.748 6.35
      vertex 19.812 14.732 6.35
      vertex 19.812 15.748 6.35
    endloop
  endfacet
  facet normal 0 0 1
    outer loop
      vertex 19.812 14.732 6.35
      vertex 18.288 15.748 6.35
      vertex 18.288 14.732 6.35
    endloop
  endfacet
  facet normal -0 0 1
    outer loop
      vertex 18.288 18.288 6.35
      vertex 19.812 17.272 6.35
      vertex 19.812 18.288 6.35
    endloop
  endfacet
  facet normal 0 0 1
    outer loop
      vertex 19.812 17.272 6.35
      vertex 18.288 18.288 6.35
      vertex 18.288 17.272 6.35
    endloop
  endfacet
  facet normal -0 0 1
    outer loop
      vertex 18.288 20.828 6.35
      vertex 19.812 19.812 6.35
      vertex 19.812 20.828 6.35
    endloop
  endfacet
  facet normal 0 0 1
    outer loop
      vertex 19.812 19.812 6.35
      vertex 18.288 20.828 6.35
      vertex 18.288 19.812 6.35
    endloop
  endfacet
  facet normal -0 0 1
    outer loop
      vertex 18.288 23.368 6.35
      vertex 19.812 22.352 6.35
      vertex 19.812 23.368 6.35
    endloop
  endfacet
  facet normal 0 0 1
    outer loop
      vertex 19.812 22.352 6.35
      vertex 18.288 23.368 6.35
      vertex 18.288 22.352 6.35
    endloop
  endfacet
  facet normal -0 0 1
    outer loop
      vertex 18.288 25.908 6.35
      vertex 19.812 24.892 6.35
      vertex 19.812 25.908 6.35
    endloop
  endfacet
  facet normal 0 0 1
    outer loop
      vertex 19.812 24.892 6.35
      vertex 18.288 25.908 6.35
      vertex 18.288 24.892 6.35
    endloop
  endfacet
  facet normal -0 0 1
    outer loop
      vertex 18.288 28.448 6.35
      vertex 19.812 27.432 6.35
      vertex 19.812 28.448 6.35
    endloop
  endfacet
  facet normal 0 0 1
    outer loop
      vertex 19.812 27.432 6.35
      vertex 18.288 28.448 6.35
      vertex 18.288 27.432 6.35
    endloop
  endfacet
  facet normal 0 0 1
    outer loop
      vertex 19.812 28.448 6.35
      vertex 20.32 30.48 6.35
      vertex 19.812 29.972 6.35
    endloop
  endfacet
  facet normal 0 0 1
    outer loop
      vertex 20.32 30.48 6.35
      vertex 18.288 29.972 6.35
      vertex 19.812 29.972 6.35
    endloop
  endfacet
  facet normal 0 0 1
    outer loop
      vertex 17.78 30.48 6.35
      vertex 18.288 28.448 6.35
      vertex 18.288 29.972 6.35
    endloop
  endfacet
  facet normal 0 0 1
    outer loop
      vertex 18.288 28.448 6.35
      vertex 17.78 30.48 6.35
      vertex 18.288 27.432 6.35
    endloop
  endfacet
  facet normal 0 0 1
    outer loop
      vertex 18.288 27.432 6.35
      vertex 17.78 30.48 6.35
      vertex 18.288 25.908 6.35
    endloop
  endfacet
  facet normal 0 0 1
    outer loop
      vertex 18.288 25.908 6.35
      vertex 17.78 30.48 6.35
      vertex 18.288 24.892 6.35
    endloop
  endfacet
  facet normal 0 0 1
    outer loop
      vertex 18.288 24.892 6.35
      vertex 17.78 30.48 6.35
      vertex 18.288 23.368 6.35
    endloop
  endfacet
  facet normal 0 0 1
    outer loop
      vertex 18.288 23.368 6.35
      vertex 17.78 30.48 6.35
      vertex 18.288 22.352 6.35
    endloop
  endfacet
  facet normal 0 0 1
    outer loop
      vertex 18.288 22.352 6.35
      vertex 17.78 30.48 6.35
      vertex 18.288 20.828 6.35
    endloop
  endfacet
  facet normal 0 0 1
    outer loop
      vertex 18.288 20.828 6.35
      vertex 17.78 30.48 6.35
      vertex 18.288 19.812 6.35
    endloop
  endfacet
  facet normal 0 0 1
    outer loop
      vertex 18.288 19.812 6.35
      vertex 17.78 30.48 6.35
      vertex 18.288 18.288 6.35
    endloop
  endfacet
  facet normal 0 0 1
    outer loop
      vertex 18.288 18.288 6.35
      vertex 17.78 30.48 6.35
      vertex 18.288 17.272 6.35
    endloop
  endfacet
  facet normal 0 0 1
    outer loop
      vertex 18.288 17.272 6.35
      vertex 17.78 30.48 6.35
      vertex 18.288 15.748 6.35
    endloop
  endfacet
  facet normal 0 0 1
    outer loop
      vertex 18.288 15.748 6.35
      vertex 17.78 30.48 6.35
      vertex 18.288 14.732 6.35
    endloop
  endfacet
  facet normal 0 0 1
    outer loop
      vertex 18.288 14.732 6.35
      vertex 17.78 30.48 6.35
      vertex 18.288 13.208 6.35
    endloop
  endfacet
  facet normal 0 0 1
    outer loop
      vertex 17.78 0 6.35
      vertex 18.288 13.208 6.35
      vertex 17.78 30.48 6.35
    endloop
  endfacet
  facet normal 0 0 1
    outer loop
      vertex 18.288 13.208 6.35
      vertex 17.78 0 6.35
      vertex 18.288 12.192 6.35
    endloop
  endfacet
  facet normal 0 0 1
    outer loop
      vertex 18.288 12.192 6.35
      vertex 17.78 0 6.35
      vertex 18.288 10.668 6.35
    endloop
  endfacet
  facet normal 0 0 1
    outer loop
      vertex 18.288 10.668 6.35
      vertex 17.78 0 6.35
      vertex 18.288 9.652 6.35
    endloop
  endfacet
  facet normal 0 0 1
    outer loop
      vertex 18.288 9.652 6.35
      vertex 17.78 0 6.35
      vertex 18.288 8.128 6.35
    endloop
  endfacet
  facet normal 0 0 1
    outer loop
      vertex 18.288 8.128 6.35
      vertex 17.78 0 6.35
      vertex 18.288 7.112 6.35
    endloop
  endfacet
  facet normal 0 0 1
    outer loop
      vertex 18.288 7.112 6.35
      vertex 17.78 0 6.35
      vertex 18.288 5.588 6.35
    endloop
  endfacet
  facet normal 0 0 1
    outer loop
      vertex 18.288 5.588 6.35
      vertex 17.78 0 6.35
      vertex 18.288 4.572 6.35
    endloop
  endfacet
  facet normal 0 0 1
    outer loop
      vertex 18.288 4.572 6.35
      vertex 17.78 0 6.35
      vertex 18.288 3.048 6.35
    endloop
  endfacet
  facet normal 0 0 1
    outer loop
      vertex 18.288 3.048 6.35
      vertex 17.78 0 6.35
      vertex 18.288 2.032 6.35
    endloop
  endfacet
  facet normal -0 0 1
    outer loop
      vertex 17.78 30.48 6.35
      vertex 18.288 29.972 6.35
      vertex 20.32 30.48 6.35
    endloop
  endfacet
  facet normal 0 0 1
    outer loop
      vertex 19.812 27.432 6.35
      vertex 20.32 30.48 6.35
      vertex 19.812 28.448 6.35
    endloop
  endfacet
  facet normal 0 0 1
    outer loop
      vertex 19.812 25.908 6.35
      vertex 20.32 30.48 6.35
      vertex 19.812 27.432 6.35
    endloop
  endfacet
  facet normal 0 0 1
    outer loop
      vertex 19.812 24.892 6.35
      vertex 20.32 30.48 6.35
      vertex 19.812 25.908 6.35
    endloop
  endfacet
  facet normal 0 0 1
    outer loop
      vertex 19.812 23.368 6.35
      vertex 20.32 30.48 6.35
      vertex 19.812 24.892 6.35
    endloop
  endfacet
  facet normal 0 0 1
    outer loop
      vertex 19.812 22.352 6.35
      vertex 20.32 30.48 6.35
      vertex 19.812 23.368 6.35
    endloop
  endfacet
  facet normal 0 0 1
    outer loop
      vertex 19.812 20.828 6.35
      vertex 20.32 30.48 6.35
      vertex 19.812 22.352 6.35
    endloop
  endfacet
  facet normal 0 0 1
    outer loop
      vertex 19.812 19.812 6.35
      vertex 20.32 30.48 6.35
      vertex 19.812 20.828 6.35
    endloop
  endfacet
  facet normal 0 0 1
    outer loop
      vertex 19.812 18.288 6.35
      vertex 20.32 30.48 6.35
      vertex 19.812 19.812 6.35
    endloop
  endfacet
  facet normal 0 0 1
    outer loop
      vertex 19.812 17.272 6.35
      vertex 20.32 30.48 6.35
      vertex 19.812 18.288 6.35
    endloop
  endfacet
  facet normal 0 0 1
    outer loop
      vertex 20.32 30.48 6.35
      vertex 19.812 17.272 6.35
      vertex 20.32 0 6.35
    endloop
  endfacet
  facet normal -0 0 1
    outer loop
      vertex 19.812 15.748 6.35
      vertex 20.32 0 6.35
      vertex 19.812 17.272 6.35
    endloop
  endfacet
  facet normal -0 0 1
    outer loop
      vertex 19.812 14.732 6.35
      vertex 20.32 0 6.35
      vertex 19.812 15.748 6.35
    endloop
  endfacet
  facet normal -0 0 1
    outer loop
      vertex 19.812 13.208 6.35
      vertex 20.32 0 6.35
      vertex 19.812 14.732 6.35
    endloop
  endfacet
  facet normal -0 0 1
    outer loop
      vertex 19.812 12.192 6.35
      vertex 20.32 0 6.35
      vertex 19.812 13.208 6.35
    endloop
  endfacet
  facet normal -0 0 1
    outer loop
      vertex 19.812 10.668 6.35
      vertex 20.32 0 6.35
      vertex 19.812 12.192 6.35
    endloop
  endfacet
  facet normal -0 0 1
    outer loop
      vertex 19.812 9.652 6.35
      vertex 20.32 0 6.35
      vertex 19.812 10.668 6.35
    endloop
  endfacet
  facet normal -0 0 1
    outer loop
      vertex 19.812 8.128 6.35
      vertex 20.32 0 6.35
      vertex 19.812 9.652 6.35
    endloop
  endfacet
  facet normal -0 0 1
    outer loop
      vertex 19.812 7.112 6.35
      vertex 20.32 0 6.35
      vertex 19.812 8.128 6.35
    endloop
  endfacet
  facet normal -0 0 1
    outer loop
      vertex 19.812 5.588 6.35
      vertex 20.32 0 6.35
      vertex 19.812 7.112 6.35
    endloop
  endfacet
  facet normal -0 0 1
    outer loop
      vertex 19.812 4.572 6.35
      vertex 20.32 0 6.35
      vertex 19.812 5.588 6.35
    endloop
  endfacet
  facet normal -0 0 1
    outer loop
      vertex 19.812 3.048 6.35
      vertex 20.32 0 6.35
      vertex 19.812 4.572 6.35
    endloop
  endfacet
  facet normal -0 0 1
    outer loop
      vertex 19.812 2.032 6.35
      vertex 20.32 0 6.35
      vertex 19.812 3.048 6.35
    endloop
  endfacet
  facet normal -0 0 1
    outer loop
      vertex 19.812 0.507999 6.35
      vertex 20.32 0 6.35
      vertex 19.812 2.032 6.35
    endloop
  endfacet
  facet normal -0 0 1
    outer loop
      vertex 18.288 0.507999 6.35
      vertex 20.32 0 6.35
      vertex 19.812 0.507999 6.35
    endloop
  endfacet
  facet normal 0 0 1
    outer loop
      vertex 18.288 0.507999 6.35
      vertex 17.78 0 6.35
      vertex 20.32 0 6.35
    endloop
  endfacet
  facet normal 0 0 1
    outer loop
      vertex 18.288 2.032 6.35
      vertex 17.78 0 6.35
      vertex 18.288 0.507999 6.35
    endloop
  endfacet
  facet normal 1 -0 0
    outer loop
      vertex 0.507999 0.507999 6.35
      vertex 0.507999 2.032 1
      vertex 0.507999 2.032 6.35
    endloop
  endfacet
  facet normal 1 0 0
    outer loop
      vertex 0.507999 2.032 1
      vertex 0.507999 0.507999 6.35
      vertex 0.507999 0.507999 1
    endloop
  endfacet
  facet normal -1 0 0
    outer loop
      vertex 2.032 0.507999 1
      vertex 2.032 2.032 6.35
      vertex 2.032 2.032 1
    endloop
  endfacet
  facet normal -1 -0 0
    outer loop
      vertex 2.032 2.032 6.35
      vertex 2.032 0.507999 1
      vertex 2.032 0.507999 6.35
    endloop
  endfacet
  facet normal -0 0 1
    outer loop
      vertex 0.507999 2.032 1
      vertex 2.032 0.507999 1
      vertex 2.032 2.032 1
    endloop
  endfacet
  facet normal 0 0 1
    outer loop
      vertex 2.032 0.507999 1
      vertex 0.507999 2.032 1
      vertex 0.507999 0.507999 1
    endloop
  endfacet
  facet normal 0 1 -0
    outer loop
      vertex 2.032 0.507999 1
      vertex 0.507999 0.507999 6.35
      vertex 2.032 0.507999 6.35
    endloop
  endfacet
  facet normal 0 1 0
    outer loop
      vertex 0.507999 0.507999 6.35
      vertex 2.032 0.507999 1
      vertex 0.507999 0.507999 1
    endloop
  endfacet
  facet normal 0 -1 0
    outer loop
      vertex 0.507999 2.032 1
      vertex 2.032 2.032 6.35
      vertex 0.507999 2.032 6.35
    endloop
  endfacet
  facet normal 0 -1 -0
    outer loop
      vertex 2.032 2.032 6.35
      vertex 0.507999 2.032 1
      vertex 2.032 2.032 1
    endloop
  endfacet
  facet normal 1 -0 0
    outer loop
      vertex 0.507999 3.048 6.35
      vertex 0.507999 4.572 1
      vertex 0.507999 4.572 6.35
    endloop
  endfacet
  facet normal 1 0 0
    outer loop
      vertex 0.507999 4.572 1
      vertex 0.507999 3.048 6.35
      vertex 0.507999 3.048 1
    endloop
  endfacet
  facet normal -1 0 0
    outer loop
      vertex 2.032 3.048 1
      vertex 2.032 4.572 6.35
      vertex 2.032 4.572 1
    endloop
  endfacet
  facet normal -1 -0 0
    outer loop
      vertex 2.032 4.572 6.35
      vertex 2.032 3.048 1
      vertex 2.032 3.048 6.35
    endloop
  endfacet
  facet normal 0 -1 0
    outer loop
      vertex 0.507999 4.572 1
      vertex 2.032 4.572 6.35
      vertex 0.507999 4.572 6.35
    endloop
  endfacet
  facet normal 0 -1 -0
    outer loop
      vertex 2.032 4.572 6.35
      vertex 0.507999 4.572 1
      vertex 2.032 4.572 1
    endloop
  endfacet
  facet normal -0 0 1
    outer loop
      vertex 0.507999 4.572 1
      vertex 2.032 3.048 1
      vertex 2.032 4.572 1
    endloop
  endfacet
  facet normal 0 0 1
    outer loop
      vertex 2.032 3.048 1
      vertex 0.507999 4.572 1
      vertex 0.507999 3.048 1
    endloop
  endfacet
  facet normal 0 1 -0
    outer loop
      vertex 2.032 3.048 1
      vertex 0.507999 3.048 6.35
      vertex 2.032 3.048 6.35
    endloop
  endfacet
  facet normal 0 1 0
    outer loop
      vertex 0.507999 3.048 6.35
      vertex 2.032 3.048 1
      vertex 0.507999 3.048 1
    endloop
  endfacet
  facet normal 1 -0 0
    outer loop
      vertex 0.507999 5.588 6.35
      vertex 0.507999 7.112 1
      vertex 0.507999 7.112 6.35
    endloop
  endfacet
  facet normal 1 0 0
    outer loop
      vertex 0.507999 7.112 1
      vertex 0.507999 5.588 6.35
      vertex 0.507999 5.588 1
    endloop
  endfacet
  facet normal -1 0 0
    outer loop
      vertex 2.032 5.588 1
      vertex 2.032 7.112 6.35
      vertex 2.032 7.112 1
    endloop
  endfacet
  facet normal -1 -0 0
    outer loop
      vertex 2.032 7.112 6.35
      vertex 2.032 5.588 1
      vertex 2.032 5.588 6.35
    endloop
  endfacet
  facet normal -0 0 1
    outer loop
      vertex 0.507999 7.112 1
      vertex 2.032 5.588 1
      vertex 2.032 7.112 1
    endloop
  endfacet
  facet normal 0 0 1
    outer loop
      vertex 2.032 5.588 1
      vertex 0.507999 7.112 1
      vertex 0.507999 5.588 1
    endloop
  endfacet
  facet normal 0 1 -0
    outer loop
      vertex 2.032 5.588 1
      vertex 0.507999 5.588 6.35
      vertex 2.032 5.588 6.35
    endloop
  endfacet
  facet normal 0 1 0
    outer loop
      vertex 0.507999 5.588 6.35
      vertex 2.032 5.588 1
      vertex 0.507999 5.588 1
    endloop
  endfacet
  facet normal 0 -1 0
    outer loop
      vertex 0.507999 7.112 1
      vertex 2.032 7.112 6.35
      vertex 0.507999 7.112 6.35
    endloop
  endfacet
  facet normal 0 -1 -0
    outer loop
      vertex 2.032 7.112 6.35
      vertex 0.507999 7.112 1
      vertex 2.032 7.112 1
    endloop
  endfacet
  facet normal 1 -0 0
    outer loop
      vertex 0.507999 8.128 6.35
      vertex 0.507999 9.652 1
      vertex 0.507999 9.652 6.35
    endloop
  endfacet
  facet normal 1 0 0
    outer loop
      vertex 0.507999 9.652 1
      vertex 0.507999 8.128 6.35
      vertex 0.507999 8.128 1
    endloop
  endfacet
  facet normal -1 0 0
    outer loop
      vertex 2.032 8.128 1
      vertex 2.032 9.652 6.35
      vertex 2.032 9.652 1
    endloop
  endfacet
  facet normal -1 -0 0
    outer loop
      vertex 2.032 9.652 6.35
      vertex 2.032 8.128 1
      vertex 2.032 8.128 6.35
    endloop
  endfacet
  facet normal -0 0 1
    outer loop
      vertex 0.507999 9.652 1
      vertex 2.032 8.128 1
      vertex 2.032 9.652 1
    endloop
  endfacet
  facet normal 0 0 1
    outer loop
      vertex 2.032 8.128 1
      vertex 0.507999 9.652 1
      vertex 0.507999 8.128 1
    endloop
  endfacet
  facet normal 0 1 -0
    outer loop
      vertex 2.032 8.128 1
      vertex 0.507999 8.128 6.35
      vertex 2.032 8.128 6.35
    endloop
  endfacet
  facet normal 0 1 0
    outer loop
      vertex 0.507999 8.128 6.35
      vertex 2.032 8.128 1
      vertex 0.507999 8.128 1
    endloop
  endfacet
  facet normal 0 -1 0
    outer loop
      vertex 0.507999 9.652 1
      vertex 2.032 9.652 6.35
      vertex 0.507999 9.652 6.35
    endloop
  endfacet
  facet normal 0 -1 -0
    outer loop
      vertex 2.032 9.652 6.35
      vertex 0.507999 9.652 1
      vertex 2.032 9.652 1
    endloop
  endfacet
  facet normal 1 -0 0
    outer loop
      vertex 0.507999 10.668 6.35
      vertex 0.507999 12.192 1
      vertex 0.507999 12.192 6.35
    endloop
  endfacet
  facet normal 1 0 0
    outer loop
      vertex 0.507999 12.192 1
      vertex 0.507999 10.668 6.35
      vertex 0.507999 10.668 1
    endloop
  endfacet
  facet normal -1 0 0
    outer loop
      vertex 2.032 10.668 1
      vertex 2.032 12.192 6.35
      vertex 2.032 12.192 1
    endloop
  endfacet
  facet normal -1 -0 0
    outer loop
      vertex 2.032 12.192 6.35
      vertex 2.032 10.668 1
      vertex 2.032 10.668 6.35
    endloop
  endfacet
  facet normal -0 0 1
    outer loop
      vertex 0.507999 12.192 1
      vertex 2.032 10.668 1
      vertex 2.032 12.192 1
    endloop
  endfacet
  facet normal 0 0 1
    outer loop
      vertex 2.032 10.668 1
      vertex 0.507999 12.192 1
      vertex 0.507999 10.668 1
    endloop
  endfacet
  facet normal 0 1 -0
    outer loop
      vertex 2.032 10.668 1
      vertex 0.507999 10.668 6.35
      vertex 2.032 10.668 6.35
    endloop
  endfacet
  facet normal 0 1 0
    outer loop
      vertex 0.507999 10.668 6.35
      vertex 2.032 10.668 1
      vertex 0.507999 10.668 1
    endloop
  endfacet
  facet normal 0 -1 0
    outer loop
      vertex 0.507999 12.192 1
      vertex 2.032 12.192 6.35
      vertex 0.507999 12.192 6.35
    endloop
  endfacet
  facet normal 0 -1 -0
    outer loop
      vertex 2.032 12.192 6.35
      vertex 0.507999 12.192 1
      vertex 2.032 12.192 1
    endloop
  endfacet
  facet normal 1 -0 0
    outer loop
      vertex 0.507999 13.208 6.35
      vertex 0.507999 14.732 1
      vertex 0.507999 14.732 6.35
    endloop
  endfacet
  facet normal 1 0 0
    outer loop
      vertex 0.507999 14.732 1
      vertex 0.507999 13.208 6.35
      vertex 0.507999 13.208 1
    endloop
  endfacet
  facet normal -1 0 0
    outer loop
      vertex 2.032 13.208 1
      vertex 2.032 14.732 6.35
      vertex 2.032 14.732 1
    endloop
  endfacet
  facet normal -1 -0 0
    outer loop
      vertex 2.032 14.732 6.35
      vertex 2.032 13.208 1
      vertex 2.032 13.208 6.35
    endloop
  endfacet
  facet normal 0 -1 0
    outer loop
      vertex 0.507999 14.732 1
      vertex 2.032 14.732 6.35
      vertex 0.507999 14.732 6.35
    endloop
  endfacet
  facet normal 0 -1 -0
    outer loop
      vertex 2.032 14.732 6.35
      vertex 0.507999 14.732 1
      vertex 2.032 14.732 1
    endloop
  endfacet
  facet normal -0 0 1
    outer loop
      vertex 0.507999 14.732 1
      vertex 2.032 13.208 1
      vertex 2.032 14.732 1
    endloop
  endfacet
  facet normal 0 0 1
    outer loop
      vertex 2.032 13.208 1
      vertex 0.507999 14.732 1
      vertex 0.507999 13.208 1
    endloop
  endfacet
  facet normal 0 1 -0
    outer loop
      vertex 2.032 13.208 1
      vertex 0.507999 13.208 6.35
      vertex 2.032 13.208 6.35
    endloop
  endfacet
  facet normal 0 1 0
    outer loop
      vertex 0.507999 13.208 6.35
      vertex 2.032 13.208 1
      vertex 0.507999 13.208 1
    endloop
  endfacet
  facet normal 1 -0 0
    outer loop
      vertex 0.507999 15.748 6.35
      vertex 0.507999 17.272 1
      vertex 0.507999 17.272 6.35
    endloop
  endfacet
  facet normal 1 0 0
    outer loop
      vertex 0.507999 17.272 1
      vertex 0.507999 15.748 6.35
      vertex 0.507999 15.748 1
    endloop
  endfacet
  facet normal -1 0 0
    outer loop
      vertex 2.032 15.748 1
      vertex 2.032 17.272 6.35
      vertex 2.032 17.272 1
    endloop
  endfacet
  facet normal -1 -0 0
    outer loop
      vertex 2.032 17.272 6.35
      vertex 2.032 15.748 1
      vertex 2.032 15.748 6.35
    endloop
  endfacet
  facet normal -0 0 1
    outer loop
      vertex 0.507999 17.272 1
      vertex 2.032 15.748 1
      vertex 2.032 17.272 1
    endloop
  endfacet
  facet normal 0 0 1
    outer loop
      vertex 2.032 15.748 1
      vertex 0.507999 17.272 1
      vertex 0.507999 15.748 1
    endloop
  endfacet
  facet normal 0 1 -0
    outer loop
      vertex 2.032 15.748 1
      vertex 0.507999 15.748 6.35
      vertex 2.032 15.748 6.35
    endloop
  endfacet
  facet normal 0 1 0
    outer loop
      vertex 0.507999 15.748 6.35
      vertex 2.032 15.748 1
      vertex 0.507999 15.748 1
    endloop
  endfacet
  facet normal 0 -1 0
    outer loop
      vertex 0.507999 17.272 1
      vertex 2.032 17.272 6.35
      vertex 0.507999 17.272 6.35
    endloop
  endfacet
  facet normal 0 -1 -0
    outer loop
      vertex 2.032 17.272 6.35
      vertex 0.507999 17.272 1
      vertex 2.032 17.272 1
    endloop
  endfacet
  facet normal 1 -0 0
    outer loop
      vertex 0.507999 18.288 6.35
      vertex 0.507999 19.812 1
      vertex 0.507999 19.812 6.35
    endloop
  endfacet
  facet normal 1 0 0
    outer loop
      vertex 0.507999 19.812 1
      vertex 0.507999 18.288 6.35
      vertex 0.507999 18.288 1
    endloop
  endfacet
  facet normal -1 0 0
    outer loop
      vertex 2.032 18.288 1
      vertex 2.032 19.812 6.35
      vertex 2.032 19.812 1
    endloop
  endfacet
  facet normal -1 -0 0
    outer loop
      vertex 2.032 19.812 6.35
      vertex 2.032 18.288 1
      vertex 2.032 18.288 6.35
    endloop
  endfacet
  facet normal 0 -1 0
    outer loop
      vertex 0.507999 19.812 1
      vertex 2.032 19.812 6.35
      vertex 0.507999 19.812 6.35
    endloop
  endfacet
  facet normal 0 -1 -0
    outer loop
      vertex 2.032 19.812 6.35
      vertex 0.507999 19.812 1
      vertex 2.032 19.812 1
    endloop
  endfacet
  facet normal -0 0 1
    outer loop
      vertex 0.507999 19.812 1
      vertex 2.032 18.288 1
      vertex 2.032 19.812 1
    endloop
  endfacet
  facet normal 0 0 1
    outer loop
      vertex 2.032 18.288 1
      vertex 0.507999 19.812 1
      vertex 0.507999 18.288 1
    endloop
  endfacet
  facet normal 0 1 -0
    outer loop
      vertex 2.032 18.288 1
      vertex 0.507999 18.288 6.35
      vertex 2.032 18.288 6.35
    endloop
  endfacet
  facet normal 0 1 0
    outer loop
      vertex 0.507999 18.288 6.35
      vertex 2.032 18.288 1
      vertex 0.507999 18.288 1
    endloop
  endfacet
  facet normal 1 -0 0
    outer loop
      vertex 0.507999 20.828 6.35
      vertex 0.507999 22.352 1
      vertex 0.507999 22.352 6.35
    endloop
  endfacet
  facet normal 1 0 0
    outer loop
      vertex 0.507999 22.352 1
      vertex 0.507999 20.828 6.35
      vertex 0.507999 20.828 1
    endloop
  endfacet
  facet normal -1 0 0
    outer loop
      vertex 2.032 20.828 1
      vertex 2.032 22.352 6.35
      vertex 2.032 22.352 1
    endloop
  endfacet
  facet normal -1 -0 0
    outer loop
      vertex 2.032 22.352 6.35
      vertex 2.032 20.828 1
      vertex 2.032 20.828 6.35
    endloop
  endfacet
  facet normal 0 -1 0
    outer loop
      vertex 0.507999 22.352 1
      vertex 2.032 22.352 6.35
      vertex 0.507999 22.352 6.35
    endloop
  endfacet
  facet normal 0 -1 -0
    outer loop
      vertex 2.032 22.352 6.35
      vertex 0.507999 22.352 1
      vertex 2.032 22.352 1
    endloop
  endfacet
  facet normal -0 0 1
    outer loop
      vertex 0.507999 22.352 1
      vertex 2.032 20.828 1
      vertex 2.032 22.352 1
    endloop
  endfacet
  facet normal 0 0 1
    outer loop
      vertex 2.032 20.828 1
      vertex 0.507999 22.352 1
      vertex 0.507999 20.828 1
    endloop
  endfacet
  facet normal 0 1 -0
    outer loop
      vertex 2.032 20.828 1
      vertex 0.507999 20.828 6.35
      vertex 2.032 20.828 6.35
    endloop
  endfacet
  facet normal 0 1 0
    outer loop
      vertex 0.507999 20.828 6.35
      vertex 2.032 20.828 1
      vertex 0.507999 20.828 1
    endloop
  endfacet
  facet normal 1 -0 0
    outer loop
      vertex 0.507999 23.368 6.35
      vertex 0.507999 24.892 1
      vertex 0.507999 24.892 6.35
    endloop
  endfacet
  facet normal 1 0 0
    outer loop
      vertex 0.507999 24.892 1
      vertex 0.507999 23.368 6.35
      vertex 0.507999 23.368 1
    endloop
  endfacet
  facet normal -1 0 0
    outer loop
      vertex 2.032 23.368 1
      vertex 2.032 24.892 6.35
      vertex 2.032 24.892 1
    endloop
  endfacet
  facet normal -1 -0 0
    outer loop
      vertex 2.032 24.892 6.35
      vertex 2.032 23.368 1
      vertex 2.032 23.368 6.35
    endloop
  endfacet
  facet normal 0 -1 0
    outer loop
      vertex 0.507999 24.892 1
      vertex 2.032 24.892 6.35
      vertex 0.507999 24.892 6.35
    endloop
  endfacet
  facet normal 0 -1 -0
    outer loop
      vertex 2.032 24.892 6.35
      vertex 0.507999 24.892 1
      vertex 2.032 24.892 1
    endloop
  endfacet
  facet normal -0 0 1
    outer loop
      vertex 0.507999 24.892 1
      vertex 2.032 23.368 1
      vertex 2.032 24.892 1
    endloop
  endfacet
  facet normal 0 0 1
    outer loop
      vertex 2.032 23.368 1
      vertex 0.507999 24.892 1
      vertex 0.507999 23.368 1
    endloop
  endfacet
  facet normal 0 1 -0
    outer loop
      vertex 2.032 23.368 1
      vertex 0.507999 23.368 6.35
      vertex 2.032 23.368 6.35
    endloop
  endfacet
  facet normal 0 1 0
    outer loop
      vertex 0.507999 23.368 6.35
      vertex 2.032 23.368 1
      vertex 0.507999 23.368 1
    endloop
  endfacet
  facet normal 1 -0 0
    outer loop
      vertex 0.507999 25.908 6.35
      vertex 0.507999 27.432 1
      vertex 0.507999 27.432 6.35
    endloop
  endfacet
  facet normal 1 0 0
    outer loop
      vertex 0.507999 27.432 1
      vertex 0.507999 25.908 6.35
      vertex 0.507999 25.908 1
    endloop
  endfacet
  facet normal -1 0 0
    outer loop
      vertex 2.032 25.908 1
      vertex 2.032 27.432 6.35
      vertex 2.032 27.432 1
    endloop
  endfacet
  facet normal -1 -0 0
    outer loop
      vertex 2.032 27.432 6.35
      vertex 2.032 25.908 1
      vertex 2.032 25.908 6.35
    endloop
  endfacet
  facet normal -0 0 1
    outer loop
      vertex 0.507999 27.432 1
      vertex 2.032 25.908 1
      vertex 2.032 27.432 1
    endloop
  endfacet
  facet normal 0 0 1
    outer loop
      vertex 2.032 25.908 1
      vertex 0.507999 27.432 1
      vertex 0.507999 25.908 1
    endloop
  endfacet
  facet normal 0 1 -0
    outer loop
      vertex 2.032 25.908 1
      vertex 0.507999 25.908 6.35
      vertex 2.032 25.908 6.35
    endloop
  endfacet
  facet normal 0 1 0
    outer loop
      vertex 0.507999 25.908 6.35
      vertex 2.032 25.908 1
      vertex 0.507999 25.908 1
    endloop
  endfacet
  facet normal 0 -1 0
    outer loop
      vertex 0.507999 27.432 1
      vertex 2.032 27.432 6.35
      vertex 0.507999 27.432 6.35
    endloop
  endfacet
  facet normal 0 -1 -0
    outer loop
      vertex 2.032 27.432 6.35
      vertex 0.507999 27.432 1
      vertex 2.032 27.432 1
    endloop
  endfacet
  facet normal 1 -0 0
    outer loop
      vertex 0.507999 28.448 6.35
      vertex 0.507999 29.972 1
      vertex 0.507999 29.972 6.35
    endloop
  endfacet
  facet normal 1 0 0
    outer loop
      vertex 0.507999 29.972 1
      vertex 0.507999 28.448 6.35
      vertex 0.507999 28.448 1
    endloop
  endfacet
  facet normal -1 0 0
    outer loop
      vertex 2.032 28.448 1
      vertex 2.032 29.972 6.35
      vertex 2.032 29.972 1
    endloop
  endfacet
  facet normal -1 -0 0
    outer loop
      vertex 2.032 29.972 6.35
      vertex 2.032 28.448 1
      vertex 2.032 28.448 6.35
    endloop
  endfacet
  facet normal 0 -1 0
    outer loop
      vertex 0.507999 29.972 1
      vertex 2.032 29.972 6.35
      vertex 0.507999 29.972 6.35
    endloop
  endfacet
  facet normal 0 -1 -0
    outer loop
      vertex 2.032 29.972 6.35
      vertex 0.507999 29.972 1
      vertex 2.032 29.972 1
    endloop
  endfacet
  facet normal -0 0 1
    outer loop
      vertex 0.507999 29.972 1
      vertex 2.032 28.448 1
      vertex 2.032 29.972 1
    endloop
  endfacet
  facet normal 0 0 1
    outer loop
      vertex 2.032 28.448 1
      vertex 0.507999 29.972 1
      vertex 0.507999 28.448 1
    endloop
  endfacet
  facet normal 0 1 -0
    outer loop
      vertex 2.032 28.448 1
      vertex 0.507999 28.448 6.35
      vertex 2.032 28.448 6.35
    endloop
  endfacet
  facet normal 0 1 0
    outer loop
      vertex 0.507999 28.448 6.35
      vertex 2.032 28.448 1
      vertex 0.507999 28.448 1
    endloop
  endfacet
  facet normal 1 -0 0
    outer loop
      vertex 18.288 0.507999 6.35
      vertex 18.288 2.032 1
      vertex 18.288 2.032 6.35
    endloop
  endfacet
  facet normal 1 0 0
    outer loop
      vertex 18.288 2.032 1
      vertex 18.288 0.507999 6.35
      vertex 18.288 0.507999 1
    endloop
  endfacet
  facet normal -1 0 0
    outer loop
      vertex 19.812 0.507999 1
      vertex 19.812 2.032 6.35
      vertex 19.812 2.032 1
    endloop
  endfacet
  facet normal -1 -0 0
    outer loop
      vertex 19.812 2.032 6.35
      vertex 19.812 0.507999 1
      vertex 19.812 0.507999 6.35
    endloop
  endfacet
  facet normal -0 0 1
    outer loop
      vertex 18.288 2.032 1
      vertex 19.812 0.507999 1
      vertex 19.812 2.032 1
    endloop
  endfacet
  facet normal 0 0 1
    outer loop
      vertex 19.812 0.507999 1
      vertex 18.288 2.032 1
      vertex 18.288 0.507999 1
    endloop
  endfacet
  facet normal 0 1 -0
    outer loop
      vertex 19.812 0.507999 1
      vertex 18.288 0.507999 6.35
      vertex 19.812 0.507999 6.35
    endloop
  endfacet
  facet normal 0 1 0
    outer loop
      vertex 18.288 0.507999 6.35
      vertex 19.812 0.507999 1
      vertex 18.288 0.507999 1
    endloop
  endfacet
  facet normal 0 -1 0
    outer loop
      vertex 18.288 2.032 1
      vertex 19.812 2.032 6.35
      vertex 18.288 2.032 6.35
    endloop
  endfacet
  facet normal 0 -1 -0
    outer loop
      vertex 19.812 2.032 6.35
      vertex 18.288 2.032 1
      vertex 19.812 2.032 1
    endloop
  endfacet
  facet normal 1 -0 0
    outer loop
      vertex 18.288 3.048 6.35
      vertex 18.288 4.572 1
      vertex 18.288 4.572 6.35
    endloop
  endfacet
  facet normal 1 0 0
    outer loop
      vertex 18.288 4.572 1
      vertex 18.288 3.048 6.35
      vertex 18.288 3.048 1
    endloop
  endfacet
  facet normal -1 0 0
    outer loop
      vertex 19.812 3.048 1
      vertex 19.812 4.572 6.35
      vertex 19.812 4.572 1
    endloop
  endfacet
  facet normal -1 -0 0
    outer loop
      vertex 19.812 4.572 6.35
      vertex 19.812 3.048 1
      vertex 19.812 3.048 6.35
    endloop
  endfacet
  facet normal -0 0 1
    outer loop
      vertex 18.288 4.572 1
      vertex 19.812 3.048 1
      vertex 19.812 4.572 1
    endloop
  endfacet
  facet normal 0 0 1
    outer loop
      vertex 19.812 3.048 1
      vertex 18.288 4.572 1
      vertex 18.288 3.048 1
    endloop
  endfacet
  facet normal 0 1 -0
    outer loop
      vertex 19.812 3.048 1
      vertex 18.288 3.048 6.35
      vertex 19.812 3.048 6.35
    endloop
  endfacet
  facet normal 0 1 0
    outer loop
      vertex 18.288 3.048 6.35
      vertex 19.812 3.048 1
      vertex 18.288 3.048 1
    endloop
  endfacet
  facet normal 0 -1 0
    outer loop
      vertex 18.288 4.572 1
      vertex 19.812 4.572 6.35
      vertex 18.288 4.572 6.35
    endloop
  endfacet
  facet normal 0 -1 -0
    outer loop
      vertex 19.812 4.572 6.35
      vertex 18.288 4.572 1
      vertex 19.812 4.572 1
    endloop
  endfacet
  facet normal 1 -0 0
    outer loop
      vertex 18.288 5.588 6.35
      vertex 18.288 7.112 1
      vertex 18.288 7.112 6.35
    endloop
  endfacet
  facet normal 1 0 0
    outer loop
      vertex 18.288 7.112 1
      vertex 18.288 5.588 6.35
      vertex 18.288 5.588 1
    endloop
  endfacet
  facet normal -1 0 0
    outer loop
      vertex 19.812 5.588 1
      vertex 19.812 7.112 6.35
      vertex 19.812 7.112 1
    endloop
  endfacet
  facet normal -1 -0 0
    outer loop
      vertex 19.812 7.112 6.35
      vertex 19.812 5.588 1
      vertex 19.812 5.588 6.35
    endloop
  endfacet
  facet normal 0 -1 0
    outer loop
      vertex 18.288 7.112 1
      vertex 19.812 7.112 6.35
      vertex 18.288 7.112 6.35
    endloop
  endfacet
  facet normal 0 -1 -0
    outer loop
      vertex 19.812 7.112 6.35
      vertex 18.288 7.112 1
      vertex 19.812 7.112 1
    endloop
  endfacet
  facet normal -0 0 1
    outer loop
      vertex 18.288 7.112 1
      vertex 19.812 5.588 1
      vertex 19.812 7.112 1
    endloop
  endfacet
  facet normal 0 0 1
    outer loop
      vertex 19.812 5.588 1
      vertex 18.288 7.112 1
      vertex 18.288 5.588 1
    endloop
  endfacet
  facet normal 0 1 -0
    outer loop
      vertex 19.812 5.588 1
      vertex 18.288 5.588 6.35
      vertex 19.812 5.588 6.35
    endloop
  endfacet
  facet normal 0 1 0
    outer loop
      vertex 18.288 5.588 6.35
      vertex 19.812 5.588 1
      vertex 18.288 5.588 1
    endloop
  endfacet
  facet normal 1 -0 0
    outer loop
      vertex 18.288 8.128 6.35
      vertex 18.288 9.652 1
      vertex 18.288 9.652 6.35
    endloop
  endfacet
  facet normal 1 0 0
    outer loop
      vertex 18.288 9.652 1
      vertex 18.288 8.128 6.35
      vertex 18.288 8.128 1
    endloop
  endfacet
  facet normal -1 0 0
    outer loop
      vertex 19.812 8.128 1
      vertex 19.812 9.652 6.35
      vertex 19.812 9.652 1
    endloop
  endfacet
  facet normal -1 -0 0
    outer loop
      vertex 19.812 9.652 6.35
      vertex 19.812 8.128 1
      vertex 19.812 8.128 6.35
    endloop
  endfacet
  facet normal 0 -1 0
    outer loop
      vertex 18.288 9.652 1
      vertex 19.812 9.652 6.35
      vertex 18.288 9.652 6.35
    endloop
  endfacet
  facet normal 0 -1 -0
    outer loop
      vertex 19.812 9.652 6.35
      vertex 18.288 9.652 1
      vertex 19.812 9.652 1
    endloop
  endfacet
  facet normal -0 0 1
    outer loop
      vertex 18.288 9.652 1
      vertex 19.812 8.128 1
      vertex 19.812 9.652 1
    endloop
  endfacet
  facet normal 0 0 1
    outer loop
      vertex 19.812 8.128 1
      vertex 18.288 9.652 1
      vertex 18.288 8.128 1
    endloop
  endfacet
  facet normal 0 1 -0
    outer loop
      vertex 19.812 8.128 1
      vertex 18.288 8.128 6.35
      vertex 19.812 8.128 6.35
    endloop
  endfacet
  facet normal 0 1 0
    outer loop
      vertex 18.288 8.128 6.35
      vertex 19.812 8.128 1
      vertex 18.288 8.128 1
    endloop
  endfacet
  facet normal 1 -0 0
    outer loop
      vertex 18.288 10.668 6.35
      vertex 18.288 12.192 1
      vertex 18.288 12.192 6.35
    endloop
  endfacet
  facet normal 1 0 0
    outer loop
      vertex 18.288 12.192 1
      vertex 18.288 10.668 6.35
      vertex 18.288 10.668 1
    endloop
  endfacet
  facet normal -1 0 0
    outer loop
      vertex 19.812 10.668 1
      vertex 19.812 12.192 6.35
      vertex 19.812 12.192 1
    endloop
  endfacet
  facet normal -1 -0 0
    outer loop
      vertex 19.812 12.192 6.35
      vertex 19.812 10.668 1
      vertex 19.812 10.668 6.35
    endloop
  endfacet
  facet normal -0 0 1
    outer loop
      vertex 18.288 12.192 1
      vertex 19.812 10.668 1
      vertex 19.812 12.192 1
    endloop
  endfacet
  facet normal 0 0 1
    outer loop
      vertex 19.812 10.668 1
      vertex 18.288 12.192 1
      vertex 18.288 10.668 1
    endloop
  endfacet
  facet normal 0 1 -0
    outer loop
      vertex 19.812 10.668 1
      vertex 18.288 10.668 6.35
      vertex 19.812 10.668 6.35
    endloop
  endfacet
  facet normal 0 1 0
    outer loop
      vertex 18.288 10.668 6.35
      vertex 19.812 10.668 1
      vertex 18.288 10.668 1
    endloop
  endfacet
  facet normal 0 -1 0
    outer loop
      vertex 18.288 12.192 1
      vertex 19.812 12.192 6.35
      vertex 18.288 12.192 6.35
    endloop
  endfacet
  facet normal 0 -1 -0
    outer loop
      vertex 19.812 12.192 6.35
      vertex 18.288 12.192 1
      vertex 19.812 12.192 1
    endloop
  endfacet
  facet normal 1 -0 0
    outer loop
      vertex 18.288 13.208 6.35
      vertex 18.288 14.732 1
      vertex 18.288 14.732 6.35
    endloop
  endfacet
  facet normal 1 0 0
    outer loop
      vertex 18.288 14.732 1
      vertex 18.288 13.208 6.35
      vertex 18.288 13.208 1
    endloop
  endfacet
  facet normal -1 0 0
    outer loop
      vertex 19.812 13.208 1
      vertex 19.812 14.732 6.35
      vertex 19.812 14.732 1
    endloop
  endfacet
  facet normal -1 -0 0
    outer loop
      vertex 19.812 14.732 6.35
      vertex 19.812 13.208 1
      vertex 19.812 13.208 6.35
    endloop
  endfacet
  facet normal 0 -1 0
    outer loop
      vertex 18.288 14.732 1
      vertex 19.812 14.732 6.35
      vertex 18.288 14.732 6.35
    endloop
  endfacet
  facet normal 0 -1 -0
    outer loop
      vertex 19.812 14.732 6.35
      vertex 18.288 14.732 1
      vertex 19.812 14.732 1
    endloop
  endfacet
  facet normal -0 0 1
    outer loop
      vertex 18.288 14.732 1
      vertex 19.812 13.208 1
      vertex 19.812 14.732 1
    endloop
  endfacet
  facet normal 0 0 1
    outer loop
      vertex 19.812 13.208 1
      vertex 18.288 14.732 1
      vertex 18.288 13.208 1
    endloop
  endfacet
  facet normal 0 1 -0
    outer loop
      vertex 19.812 13.208 1
      vertex 18.288 13.208 6.35
      vertex 19.812 13.208 6.35
    endloop
  endfacet
  facet normal 0 1 0
    outer loop
      vertex 18.288 13.208 6.35
      vertex 19.812 13.208 1
      vertex 18.288 13.208 1
    endloop
  endfacet
  facet normal 1 -0 0
    outer loop
      vertex 18.288 15.748 6.35
      vertex 18.288 17.272 1
      vertex 18.288 17.272 6.35
    endloop
  endfacet
  facet normal 1 0 0
    outer loop
      vertex 18.288 17.272 1
      vertex 18.288 15.748 6.35
      vertex 18.288 15.748 1
    endloop
  endfacet
  facet normal -1 0 0
    outer loop
      vertex 19.812 15.748 1
      vertex 19.812 17.272 6.35
      vertex 19.812 17.272 1
    endloop
  endfacet
  facet normal -1 -0 0
    outer loop
      vertex 19.812 17.272 6.35
      vertex 19.812 15.748 1
      vertex 19.812 15.748 6.35
    endloop
  endfacet
  facet normal -0 0 1
    outer loop
      vertex 18.288 17.272 1
      vertex 19.812 15.748 1
      vertex 19.812 17.272 1
    endloop
  endfacet
  facet normal 0 0 1
    outer loop
      vertex 19.812 15.748 1
      vertex 18.288 17.272 1
      vertex 18.288 15.748 1
    endloop
  endfacet
  facet normal 0 1 -0
    outer loop
      vertex 19.812 15.748 1
      vertex 18.288 15.748 6.35
      vertex 19.812 15.748 6.35
    endloop
  endfacet
  facet normal 0 1 0
    outer loop
      vertex 18.288 15.748 6.35
      vertex 19.812 15.748 1
      vertex 18.288 15.748 1
    endloop
  endfacet
  facet normal 0 -1 0
    outer loop
      vertex 18.288 17.272 1
      vertex 19.812 17.272 6.35
      vertex 18.288 17.272 6.35
    endloop
  endfacet
  facet normal 0 -1 -0
    outer loop
      vertex 19.812 17.272 6.35
      vertex 18.288 17.272 1
      vertex 19.812 17.272 1
    endloop
  endfacet
  facet normal 1 -0 0
    outer loop
      vertex 18.288 18.288 6.35
      vertex 18.288 19.812 1
      vertex 18.288 19.812 6.35
    endloop
  endfacet
  facet normal 1 0 0
    outer loop
      vertex 18.288 19.812 1
      vertex 18.288 18.288 6.35
      vertex 18.288 18.288 1
    endloop
  endfacet
  facet normal -1 0 0
    outer loop
      vertex 19.812 18.288 1
      vertex 19.812 19.812 6.35
      vertex 19.812 19.812 1
    endloop
  endfacet
  facet normal -1 -0 0
    outer loop
      vertex 19.812 19.812 6.35
      vertex 19.812 18.288 1
      vertex 19.812 18.288 6.35
    endloop
  endfacet
  facet normal 0 -1 0
    outer loop
      vertex 18.288 19.812 1
      vertex 19.812 19.812 6.35
      vertex 18.288 19.812 6.35
    endloop
  endfacet
  facet normal 0 -1 -0
    outer loop
      vertex 19.812 19.812 6.35
      vertex 18.288 19.812 1
      vertex 19.812 19.812 1
    endloop
  endfacet
  facet normal -0 0 1
    outer loop
      vertex 18.288 19.812 1
      vertex 19.812 18.288 1
      vertex 19.812 19.812 1
    endloop
  endfacet
  facet normal 0 0 1
    outer loop
      vertex 19.812 18.288 1
      vertex 18.288 19.812 1
      vertex 18.288 18.288 1
    endloop
  endfacet
  facet normal 0 1 -0
    outer loop
      vertex 19.812 18.288 1
      vertex 18.288 18.288 6.35
      vertex 19.812 18.288 6.35
    endloop
  endfacet
  facet normal 0 1 0
    outer loop
      vertex 18.288 18.288 6.35
      vertex 19.812 18.288 1
      vertex 18.288 18.288 1
    endloop
  endfacet
  facet normal 1 -0 0
    outer loop
      vertex 18.288 20.828 6.35
      vertex 18.288 22.352 1
      vertex 18.288 22.352 6.35
    endloop
  endfacet
  facet normal 1 0 0
    outer loop
      vertex 18.288 22.352 1
      vertex 18.288 20.828 6.35
      vertex 18.288 20.828 1
    endloop
  endfacet
  facet normal -1 0 0
    outer loop
      vertex 19.812 20.828 1
      vertex 19.812 22.352 6.35
      vertex 19.812 22.352 1
    endloop
  endfacet
  facet normal -1 -0 0
    outer loop
      vertex 19.812 22.352 6.35
      vertex 19.812 20.828 1
      vertex 19.812 20.828 6.35
    endloop
  endfacet
  facet normal -0 0 1
    outer loop
      vertex 18.288 22.352 1
      vertex 19.812 20.828 1
      vertex 19.812 22.352 1
    endloop
  endfacet
  facet normal 0 0 1
    outer loop
      vertex 19.812 20.828 1
      vertex 18.288 22.352 1
      vertex 18.288 20.828 1
    endloop
  endfacet
  facet normal 0 1 -0
    outer loop
      vertex 19.812 20.828 1
      vertex 18.288 20.828 6.35
      vertex 19.812 20.828 6.35
    endloop
  endfacet
  facet normal 0 1 0
    outer loop
      vertex 18.288 20.828 6.35
      vertex 19.812 20.828 1
      vertex 18.288 20.828 1
    endloop
  endfacet
  facet normal 0 -1 0
    outer loop
      vertex 18.288 22.352 1
      vertex 19.812 22.352 6.35
      vertex 18.288 22.352 6.35
    endloop
  endfacet
  facet normal 0 -1 -0
    outer loop
      vertex 19.812 22.352 6.35
      vertex 18.288 22.352 1
      vertex 19.812 22.352 1
    endloop
  endfacet
  facet normal 1 -0 0
    outer loop
      vertex 18.288 23.368 6.35
      vertex 18.288 24.892 1
      vertex 18.288 24.892 6.35
    endloop
  endfacet
  facet normal 1 0 0
    outer loop
      vertex 18.288 24.892 1
      vertex 18.288 23.368 6.35
      vertex 18.288 23.368 1
    endloop
  endfacet
  facet normal -1 0 0
    outer loop
      vertex 19.812 23.368 1
      vertex 19.812 24.892 6.35
      vertex 19.812 24.892 1
    endloop
  endfacet
  facet normal -1 -0 0
    outer loop
      vertex 19.812 24.892 6.35
      vertex 19.812 23.368 1
      vertex 19.812 23.368 6.35
    endloop
  endfacet
  facet normal -0 0 1
    outer loop
      vertex 18.288 24.892 1
      vertex 19.812 23.368 1
      vertex 19.812 24.892 1
    endloop
  endfacet
  facet normal 0 0 1
    outer loop
      vertex 19.812 23.368 1
      vertex 18.288 24.892 1
      vertex 18.288 23.368 1
    endloop
  endfacet
  facet normal 0 1 -0
    outer loop
      vertex 19.812 23.368 1
      vertex 18.288 23.368 6.35
      vertex 19.812 23.368 6.35
    endloop
  endfacet
  facet normal 0 1 0
    outer loop
      vertex 18.288 23.368 6.35
      vertex 19.812 23.368 1
      vertex 18.288 23.368 1
    endloop
  endfacet
  facet normal 0 -1 0
    outer loop
      vertex 18.288 24.892 1
      vertex 19.812 24.892 6.35
      vertex 18.288 24.892 6.35
    endloop
  endfacet
  facet normal 0 -1 -0
    outer loop
      vertex 19.812 24.892 6.35
      vertex 18.288 24.892 1
      vertex 19.812 24.892 1
    endloop
  endfacet
  facet normal 1 -0 0
    outer loop
      vertex 18.288 25.908 6.35
      vertex 18.288 27.432 1
      vertex 18.288 27.432 6.35
    endloop
  endfacet
  facet normal 1 0 0
    outer loop
      vertex 18.288 27.432 1
      vertex 18.288 25.908 6.35
      vertex 18.288 25.908 1
    endloop
  endfacet
  facet normal -1 0 0
    outer loop
      vertex 19.812 25.908 1
      vertex 19.812 27.432 6.35
      vertex 19.812 27.432 1
    endloop
  endfacet
  facet normal -1 -0 0
    outer loop
      vertex 19.812 27.432 6.35
      vertex 19.812 25.908 1
      vertex 19.812 25.908 6.35
    endloop
  endfacet
  facet normal -0 0 1
    outer loop
      vertex 18.288 27.432 1
      vertex 19.812 25.908 1
      vertex 19.812 27.432 1
    endloop
  endfacet
  facet normal 0 0 1
    outer loop
      vertex 19.812 25.908 1
      vertex 18.288 27.432 1
      vertex 18.288 25.908 1
    endloop
  endfacet
  facet normal 0 1 -0
    outer loop
      vertex 19.812 25.908 1
      vertex 18.288 25.908 6.35
      vertex 19.812 25.908 6.35
    endloop
  endfacet
  facet normal 0 1 0
    outer loop
      vertex 18.288 25.908 6.35
      vertex 19.812 25.908 1
      vertex 18.288 25.908 1
    endloop
  endfacet
  facet normal 0 -1 0
    outer loop
      vertex 18.288 27.432 1
      vertex 19.812 27.432 6.35
      vertex 18.288 27.432 6.35
    endloop
  endfacet
  facet normal 0 -1 -0
    outer loop
      vertex 19.812 27.432 6.35
      vertex 18.288 27.432 1
      vertex 19.812 27.432 1
    endloop
  endfacet
  facet normal 1 -0 0
    outer loop
      vertex 18.288 28.448 6.35
      vertex 18.288 29.972 1
      vertex 18.288 29.972 6.35
    endloop
  endfacet
  facet normal 1 0 0
    outer loop
      vertex 18.288 29.972 1
      vertex 18.288 28.448 6.35
      vertex 18.288 28.448 1
    endloop
  endfacet
  facet normal -1 0 0
    outer loop
      vertex 19.812 28.448 1
      vertex 19.812 29.972 6.35
      vertex 19.812 29.972 1
    endloop
  endfacet
  facet normal -1 -0 0
    outer loop
      vertex 19.812 29.972 6.35
      vertex 19.812 28.448 1
      vertex 19.812 28.448 6.35
    endloop
  endfacet
  facet normal 0 -1 0
    outer loop
      vertex 18.288 29.972 1
      vertex 19.812 29.972 6.35
      vertex 18.288 29.972 6.35
    endloop
  endfacet
  facet normal 0 -1 -0
    outer loop
      vertex 19.812 29.972 6.35
      vertex 18.288 29.972 1
      vertex 19.812 29.972 1
    endloop
  endfacet
  facet normal -0 0 1
    outer loop
      vertex 18.288 29.972 1
      vertex 19.812 28.448 1
      vertex 19.812 29.972 1
    endloop
  endfacet
  facet normal 0 0 1
    outer loop
      vertex 19.812 28.448 1
      vertex 18.288 29.972 1
      vertex 18.288 28.448 1
    endloop
  endfacet
  facet normal 0 1 -0
    outer loop
      vertex 19.812 28.448 1
      vertex 18.288 28.448 6.35
      vertex 19.812 28.448 6.35
    endloop
  endfacet
  facet normal 0 1 0
    outer loop
      vertex 18.288 28.448 6.35
      vertex 19.812 28.448 1
      vertex 18.288 28.448 1
    endloop
  endfacet
endsolid OpenSCAD_Model
