solid OpenSCAD_Model
  facet normal -1 0 0
    outer loop
      vertex 0 0 0
      vertex 0 25.4 12.7
      vertex 0 25.4 0
    endloop
  endfacet
  facet normal -1 -0 0
    outer loop
      vertex 0 25.4 12.7
      vertex 0 0 0
      vertex 0 0 12.7
    endloop
  endfacet
  facet normal -0 0 1
    outer loop
      vertex 0 25.4 12.7
      vertex 6.09599 0 12.7
      vertex 6.09599 25.4 12.7
    endloop
  endfacet
  facet normal 0 0 1
    outer loop
      vertex 6.09599 0 12.7
      vertex 0 25.4 12.7
      vertex 0 0 12.7
    endloop
  endfacet
  facet normal 1 -0 0
    outer loop
      vertex 6.09599 0 12.7
      vertex 6.09599 25.4 2.53999
      vertex 6.09599 25.4 12.7
    endloop
  endfacet
  facet normal 1 0 0
    outer loop
      vertex 6.09599 25.4 2.53999
      vertex 6.09599 0 12.7
      vertex 6.09599 0 2.53999
    endloop
  endfacet
  facet normal 0 0 -1
    outer loop
      vertex 0 0 0
      vertex 37.592 25.4 0
      vertex 37.592 0 0
    endloop
  endfacet
  facet normal -0 0 -1
    outer loop
      vertex 37.592 25.4 0
      vertex 0 0 0
      vertex 0 25.4 0
    endloop
  endfacet
  facet normal 0 -1 0
    outer loop
      vertex 0 0 12.7
      vertex 6.09599 0 2.53999
      vertex 6.09599 0 12.7
    endloop
  endfacet
  facet normal 0 -1 -0
    outer loop
      vertex 6.09599 0 2.53999
      vertex 0 0 0
      vertex 31.496 0 2.53999
    endloop
  endfacet
  facet normal 0 -1 0
    outer loop
      vertex 0 0 0
      vertex 6.09599 0 2.53999
      vertex 0 0 12.7
    endloop
  endfacet
  facet normal 0 -1 0
    outer loop
      vertex 31.496 0 2.53999
      vertex 37.592 0 12.7
      vertex 31.496 0 12.7
    endloop
  endfacet
  facet normal 0 -1 0
    outer loop
      vertex 31.496 0 2.53999
      vertex 37.592 0 0
      vertex 37.592 0 12.7
    endloop
  endfacet
  facet normal 0 -1 0
    outer loop
      vertex 37.592 0 0
      vertex 31.496 0 2.53999
      vertex 0 0 0
    endloop
  endfacet
  facet normal 0 1 0
    outer loop
      vertex 37.592 25.4 12.7
      vertex 31.496 25.4 2.53999
      vertex 31.496 25.4 12.7
    endloop
  endfacet
  facet normal 0 1 0
    outer loop
      vertex 31.496 25.4 2.53999
      vertex 37.592 25.4 0
      vertex 6.09599 25.4 2.53999
    endloop
  endfacet
  facet normal 0 1 -0
    outer loop
      vertex 37.592 25.4 0
      vertex 31.496 25.4 2.53999
      vertex 37.592 25.4 12.7
    endloop
  endfacet
  facet normal 0 1 -0
    outer loop
      vertex 6.09599 25.4 2.53999
      vertex 0 25.4 12.7
      vertex 6.09599 25.4 12.7
    endloop
  endfacet
  facet normal 0 1 0
    outer loop
      vertex 6.09599 25.4 2.53999
      vertex 0 25.4 0
      vertex 0 25.4 12.7
    endloop
  endfacet
  facet normal 0 1 0
    outer loop
      vertex 0 25.4 0
      vertex 6.09599 25.4 2.53999
      vertex 37.592 25.4 0
    endloop
  endfacet
  facet normal -1 0 0
    outer loop
      vertex 31.496 0 2.53999
      vertex 31.496 25.4 12.7
      vertex 31.496 25.4 2.53999
    endloop
  endfacet
  facet normal -1 -0 0
    outer loop
      vertex 31.496 25.4 12.7
      vertex 31.496 0 2.53999
      vertex 31.496 0 12.7
    endloop
  endfacet
  facet normal -0 0 1
    outer loop
      vertex 31.496 25.4 12.7
      vertex 37.592 0 12.7
      vertex 37.592 25.4 12.7
    endloop
  endfacet
  facet normal 0 0 1
    outer loop
      vertex 37.592 0 12.7
      vertex 31.496 25.4 12.7
      vertex 31.496 0 12.7
    endloop
  endfacet
  facet normal 1 -0 0
    outer loop
      vertex 37.592 0 12.7
      vertex 37.592 25.4 0
      vertex 37.592 25.4 12.7
    endloop
  endfacet
  facet normal 1 0 0
    outer loop
      vertex 37.592 25.4 0
      vertex 37.592 0 12.7
      vertex 37.592 0 0
    endloop
  endfacet
  facet normal -0 0 1
    outer loop
      vertex 6.09599 25.4 2.53999
      vertex 31.496 0 2.53999
      vertex 31.496 25.4 2.53999
    endloop
  endfacet
  facet normal 0 0 1
    outer loop
      vertex 31.496 0 2.53999
      vertex 6.09599 25.4 2.53999
      vertex 6.09599 0 2.53999
    endloop
  endfacet
endsolid OpenSCAD_Model
