  0
SECTION
  2
HEADER
  9
$ACADVER
  1
AC1032
  9
$ACADMAINTVER
 90
4
  9
$DWGCODEPAGE
  3
ANSI_1252
  9
$LASTSAVEDBY
  1
ezdxf
  9
$REQUIREDVERSIONS
160
0
  9
$INSBASE
 10
0.0
 20
0.0
 30
0.0
  9
$EXTMIN
 10
1e+20
 20
1e+20
 30
1e+20
  9
$EXTMAX
 10
-1e+20
 20
-1e+20
 30
-1e+20
  9
$LIMMIN
 10
0.0
 20
0.0
  9
$LIMMAX
 10
420.0
 20
297.0
  9
$ORTHOMODE
 70
0
  9
$REGENMODE
 70
1
  9
$FILLMODE
 70
1
  9
$QTEXTMODE
 70
0
  9
$MIRRTEXT
 70
1
  9
$LTSCALE
 40
1.0
  9
$ATTMODE
 70
1
  9
$TEXTSIZE
 40
2.5
  9
$TRACEWID
 40
1.0
  9
$TEXTSTYLE
  7
Standard
  9
$CLAYER
  8
0
  9
$CELTYPE
  6
ByLayer
  9
$CECOLOR
 62
256
  9
$CELTSCALE
 40
1.0
  9
$DISPSILH
 70
0
  9
$DIMSCALE
 40
1.0
  9
$DIMASZ
 40
2.5
  9
$DIMEXO
 40
0.625
  9
$DIMDLI
 40
3.75
  9
$DIMRND
 40
0.0
  9
$DIMDLE
 40
0.0
  9
$DIMEXE
 40
1.25
  9
$DIMTP
 40
0.0
  9
$DIMTM
 40
0.0
  9
$DIMTXT
 40
2.5
  9
$DIMCEN
 40
2.5
  9
$DIMTSZ
 40
0.0
  9
$DIMTOL
 70
0
  9
$DIMLIM
 70
0
  9
$DIMTIH
 70
0
  9
$DIMTOH
 70
0
  9
$DIMSE1
 70
0
  9
$DIMSE2
 70
0
  9
$DIMTAD
 70
1
  9
$DIMZIN
 70
8
  9
$DIMBLK
  1

  9
$DIMASO
 70
1
  9
$DIMSHO
 70
1
  9
$DIMPOST
  1

  9
$DIMAPOST
  1

  9
$DIMALT
 70
0
  9
$DIMALTD
 70
3
  9
$DIMALTF
 40
0.03937007874
  9
$DIMLFAC
 40
1.0
  9
$DIMTOFL
 70
1
  9
$DIMTVP
 40
0.0
  9
$DIMTIX
 70
0
  9
$DIMSOXD
 70
0
  9
$DIMSAH
 70
0
  9
$DIMBLK1
  1

  9
$DIMBLK2
  1

  9
$DIMSTYLE
  2
ISO-25
  9
$DIMCLRD
 70
0
  9
$DIMCLRE
 70
0
  9
$DIMCLRT
 70
0
  9
$DIMTFAC
 40
1.0
  9
$DIMGAP
 40
0.625
  9
$DIMJUST
 70
0
  9
$DIMSD1
 70
0
  9
$DIMSD2
 70
0
  9
$DIMTOLJ
 70
0
  9
$DIMTZIN
 70
8
  9
$DIMALTZ
 70
0
  9
$DIMALTTZ
 70
0
  9
$DIMUPT
 70
0
  9
$DIMDEC
 70
2
  9
$DIMTDEC
 70
2
  9
$DIMALTU
 70
2
  9
$DIMALTTD
 70
3
  9
$DIMTXSTY
  7
Standard
  9
$DIMAUNIT
 70
0
  9
$DIMADEC
 70
0
  9
$DIMALTRND
 40
0.0
  9
$DIMAZIN
 70
0
  9
$DIMDSEP
 70
44
  9
$DIMATFIT
 70
3
  9
$DIMFRAC
 70
0
  9
$DIMLDRBLK
  1

  9
$DIMLUNIT
 70
2
  9
$DIMLWD
 70
-2
  9
$DIMLWE
 70
-2
  9
$DIMTMOVE
 70
0
  9
$DIMFXL
 40
1.0
  9
$DIMFXLON
 70
0
  9
$DIMJOGANG
 40
0.785398163397
  9
$DIMTFILL
 70
0
  9
$DIMTFILLCLR
 70
0
  9
$DIMARCSYM
 70
0
  9
$DIMLTYPE
  6

  9
$DIMLTEX1
  6

  9
$DIMLTEX2
  6

  9
$DIMTXTDIRECTION
 70
0
  9
$LUNITS
 70
2
  9
$LUPREC
 70
4
  9
$SKETCHINC
 40
1.0
  9
$FILLETRAD
 40
10.0
  9
$AUNITS
 70
0
  9
$AUPREC
 70
2
  9
$MENU
  1
.
  9
$ELEVATION
 40
0.0
  9
$PELEVATION
 40
0.0
  9
$THICKNESS
 40
0.0
  9
$LIMCHECK
 70
0
  9
$CHAMFERA
 40
0.0
  9
$CHAMFERB
 40
0.0
  9
$CHAMFERC
 40
0.0
  9
$CHAMFERD
 40
0.0
  9
$SKPOLY
 70
0
  9
$TDCREATE
 40
2460245.6097685187
  9
$TDUCREATE
 40
2458532.153996898
  9
$TDUPDATE
 40
2460245.6097685187
  9
$TDUUPDATE
 40
2458532.1544311
  9
$TDINDWG
 40
0.0
  9
$TDUSRTIMER
 40
0.0
  9
$USRTIMER
 70
1
  9
$ANGBASE
 50
0.0
  9
$ANGDIR
 70
0
  9
$PDMODE
 70
0
  9
$PDSIZE
 40
0.0
  9
$PLINEWID
 40
0.0
  9
$SPLFRAME
 70
0
  9
$SPLINETYPE
 70
6
  9
$SPLINESEGS
 70
8
  9
$HANDSEED
  5
11A
  9
$SURFTAB1
 70
6
  9
$SURFTAB2
 70
6
  9
$SURFTYPE
 70
6
  9
$SURFU
 70
6
  9
$SURFV
 70
6
  9
$UCSBASE
  2

  9
$UCSNAME
  2

  9
$UCSORG
 10
0.0
 20
0.0
 30
0.0
  9
$UCSXDIR
 10
1.0
 20
0.0
 30
0.0
  9
$UCSYDIR
 10
0.0
 20
1.0
 30
0.0
  9
$UCSORTHOREF
  2

  9
$UCSORTHOVIEW
 70
0
  9
$UCSORGTOP
 10
0.0
 20
0.0
 30
0.0
  9
$UCSORGBOTTOM
 10
0.0
 20
0.0
 30
0.0
  9
$UCSORGLEFT
 10
0.0
 20
0.0
 30
0.0
  9
$UCSORGRIGHT
 10
0.0
 20
0.0
 30
0.0
  9
$UCSORGFRONT
 10
0.0
 20
0.0
 30
0.0
  9
$UCSORGBACK
 10
0.0
 20
0.0
 30
0.0
  9
$PUCSBASE
  2

  9
$PUCSNAME
  2

  9
$PUCSORG
 10
0.0
 20
0.0
 30
0.0
  9
$PUCSXDIR
 10
1.0
 20
0.0
 30
0.0
  9
$PUCSYDIR
 10
0.0
 20
1.0
 30
0.0
  9
$PUCSORTHOREF
  2

  9
$PUCSORTHOVIEW
 70
0
  9
$PUCSORGTOP
 10
0.0
 20
0.0
 30
0.0
  9
$PUCSORGBOTTOM
 10
0.0
 20
0.0
 30
0.0
  9
$PUCSORGLEFT
 10
0.0
 20
0.0
 30
0.0
  9
$PUCSORGRIGHT
 10
0.0
 20
0.0
 30
0.0
  9
$PUCSORGFRONT
 10
0.0
 20
0.0
 30
0.0
  9
$PUCSORGBACK
 10
0.0
 20
0.0
 30
0.0
  9
$USERI1
 70
0
  9
$USERI2
 70
0
  9
$USERI3
 70
0
  9
$USERI4
 70
0
  9
$USERI5
 70
0
  9
$USERR1
 40
0.0
  9
$USERR2
 40
0.0
  9
$USERR3
 40
0.0
  9
$USERR4
 40
0.0
  9
$USERR5
 40
0.0
  9
$WORLDVIEW
 70
1
  9
$SHADEDGE
 70
3
  9
$SHADEDIF
 70
70
  9
$TILEMODE
 70
1
  9
$MAXACTVP
 70
64
  9
$PINSBASE
 10
0.0
 20
0.0
 30
0.0
  9
$PLIMCHECK
 70
0
  9
$PEXTMIN
 10
1e+20
 20
1e+20
 30
1e+20
  9
$PEXTMAX
 10
-1e+20
 20
-1e+20
 30
-1e+20
  9
$PLIMMIN
 10
0.0
 20
0.0
  9
$PLIMMAX
 10
420.0
 20
297.0
  9
$UNITMODE
 70
0
  9
$VISRETAIN
 70
1
  9
$PLINEGEN
 70
0
  9
$PSLTSCALE
 70
1
  9
$TREEDEPTH
 70
3020
  9
$CMLSTYLE
  2
Standard
  9
$CMLJUST
 70
0
  9
$CMLSCALE
 40
20.0
  9
$PROXYGRAPHICS
 70
1
  9
$MEASUREMENT
 70
1
  9
$CELWEIGHT
370
-1
  9
$ENDCAPS
280
0
  9
$JOINSTYLE
280
0
  9
$LWDISPLAY
290
0
  9
$INSUNITS
 70
4
  9
$HYPERLINKBASE
  1

  9
$STYLESHEET
  1

  9
$XEDIT
290
1
  9
$CEPSNTYPE
380
0
  9
$PSTYLEMODE
290
1
  9
$FINGERPRINTGUID
  2
{45957DFE-E178-46B9-9C1E-D2937C3FAFEE}
  9
$VERSIONGUID
  2
{3E3D4B4A-EA0B-4B98-9B3C-C441ED469E57}
  9
$EXTNAMES
290
1
  9
$PSVPSCALE
 40
0.0
  9
$OLESTARTUP
290
0
  9
$SORTENTS
280
127
  9
$INDEXCTL
280
0
  9
$HIDETEXT
280
1
  9
$XCLIPFRAME
280
0
  9
$HALOGAP
280
0
  9
$OBSCOLOR
 70
257
  9
$OBSLTYPE
280
0
  9
$INTERSECTIONDISPLAY
280
0
  9
$INTERSECTIONCOLOR
 70
257
  9
$DIMASSOC
280
2
  9
$PROJECTNAME
  1

  9
$CAMERADISPLAY
290
0
  9
$LENSLENGTH
 40
50.0
  9
$CAMERAHEIGHT
 40
0.0
  9
$STEPSPERSEC
 40
24.0
  9
$STEPSIZE
 40
100.0
  9
$3DDWFPREC
 40
2.0
  9
$PSOLWIDTH
 40
0.005
  9
$PSOLHEIGHT
 40
0.08
  9
$LOFTANG1
 40
1.570796326795
  9
$LOFTANG2
 40
1.570796326795
  9
$LOFTMAG1
 40
0.0
  9
$LOFTMAG2
 40
0.0
  9
$LOFTPARAM
 70
7
  9
$LOFTNORMALS
280
1
  9
$LATITUDE
 40
37.795
  9
$LONGITUDE
 40
-122.394
  9
$NORTHDIRECTION
 40
0.0
  9
$TIMEZONE
 70
-8000
  9
$LIGHTGLYPHDISPLAY
280
1
  9
$TILEMODELIGHTSYNCH
280
1
  9
$CMATERIAL
347
20
  9
$SOLIDHIST
280
0
  9
$SHOWHIST
280
1
  9
$DWFFRAME
280
2
  9
$DGNFRAME
280
2
  9
$REALWORLDSCALE
290
1
  9
$INTERFERECOLOR
 62
256
  9
$CSHADOW
280
0
  9
$SHADOWPLANELOCATION
 40
0.0
  0
ENDSEC
  0
SECTION
  2
CLASSES
  0
CLASS
  1
ACDBDICTIONARYWDFLT
  2
AcDbDictionaryWithDefault
  3
ObjectDBX Classes
 90
0
 91
0
280
0
281
0
  0
CLASS
  1
SUN
  2
AcDbSun
  3
SCENEOE
 90
1153
 91
0
280
0
281
0
  0
CLASS
  1
VISUALSTYLE
  2
AcDbVisualStyle
  3
ObjectDBX Classes
 90
4095
 91
0
280
0
281
0
  0
CLASS
  1
MATERIAL
  2
AcDbMaterial
  3
ObjectDBX Classes
 90
1153
 91
0
280
0
281
0
  0
CLASS
  1
SCALE
  2
AcDbScale
  3
ObjectDBX Classes
 90
1153
 91
0
280
0
281
0
  0
CLASS
  1
TABLESTYLE
  2
AcDbTableStyle
  3
ObjectDBX Classes
 90
4095
 91
0
280
0
281
0
  0
CLASS
  1
MLEADERSTYLE
  2
AcDbMLeaderStyle
  3
ACDB_MLEADERSTYLE_CLASS
 90
4095
 91
0
280
0
281
0
  0
CLASS
  1
DICTIONARYVAR
  2
AcDbDictionaryVar
  3
ObjectDBX Classes
 90
0
 91
0
280
0
281
0
  0
CLASS
  1
CELLSTYLEMAP
  2
AcDbCellStyleMap
  3
ObjectDBX Classes
 90
1152
 91
0
280
0
281
0
  0
CLASS
  1
MENTALRAYRENDERSETTINGS
  2
AcDbMentalRayRenderSettings
  3
SCENEOE
 90
1024
 91
0
280
0
281
0
  0
CLASS
  1
ACDBDETAILVIEWSTYLE
  2
AcDbDetailViewStyle
  3
ObjectDBX Classes
 90
1025
 91
0
280
0
281
0
  0
CLASS
  1
ACDBSECTIONVIEWSTYLE
  2
AcDbSectionViewStyle
  3
ObjectDBX Classes
 90
1025
 91
0
280
0
281
0
  0
CLASS
  1
RASTERVARIABLES
  2
AcDbRasterVariables
  3
ISM
 90
0
 91
0
280
0
281
0
  0
CLASS
  1
ACDBPLACEHOLDER
  2
AcDbPlaceHolder
  3
ObjectDBX Classes
 90
0
 91
0
280
0
281
0
  0
CLASS
  1
LAYOUT
  2
AcDbLayout
  3
ObjectDBX Classes
 90
0
 91
0
280
0
281
0
  0
ENDSEC
  0
SECTION
  2
TABLES
  0
TABLE
  2
VPORT
  5
8
330
0
100
AcDbSymbolTable
 70
1
  0
VPORT
  5
23
330
8
100
AcDbSymbolTableRecord
100
AcDbViewportTableRecord
  2
*Active
 70
0
 10
0.0
 20
0.0
 11
1.0
 21
1.0
 12
0.0
 22
0.0
 13
0.0
 23
0.0
 14
0.5
 24
0.5
 15
0.5
 25
0.5
 16
0.0
 26
0.0
 36
1.0
 17
0.0
 27
0.0
 37
0.0
 40
1000.0
 41
1.34
 42
50.0
 43
0.0
 44
0.0
 50
0.0
 51
0.0
 71
0
 72
1000
 73
1
 74
3
 75
0
 76
0
 77
0
 78
0
281
0
 65
0
146
0.0
  0
ENDTAB
  0
TABLE
  2
LTYPE
  5
2
330
0
100
AcDbSymbolTable
 70
3
  0
LTYPE
  5
24
330
2
100
AcDbSymbolTableRecord
100
AcDbLinetypeTableRecord
  2
ByBlock
 70
0
  3

 72
65
 73
0
 40
0.0
  0
LTYPE
  5
25
330
2
100
AcDbSymbolTableRecord
100
AcDbLinetypeTableRecord
  2
ByLayer
 70
0
  3

 72
65
 73
0
 40
0.0
  0
LTYPE
  5
26
330
2
100
AcDbSymbolTableRecord
100
AcDbLinetypeTableRecord
  2
Continuous
 70
0
  3

 72
65
 73
0
 40
0.0
  0
ENDTAB
  0
TABLE
  2
LAYER
  5
1
330
0
100
AcDbSymbolTable
 70
2
  0
LAYER
  5
27
330
1
100
AcDbSymbolTableRecord
100
AcDbLayerTableRecord
  2
0
 70
0
 62
7
  6
Continuous
370
-3
390
13
347
21
  0
LAYER
  5
28
330
1
100
AcDbSymbolTableRecord
100
AcDbLayerTableRecord
  2
Defpoints
 70
0
 62
7
  6
Continuous
290
0
370
-3
390
13
347
21
  0
ENDTAB
  0
TABLE
  2
STYLE
  5
5
330
0
100
AcDbSymbolTable
 70
1
  0
STYLE
  5
29
330
5
100
AcDbSymbolTableRecord
100
AcDbTextStyleTableRecord
  2
Standard
 70
0
 40
0.0
 41
1.0
 50
0.0
 71
0
 42
2.5
  3
txt
  4

  0
ENDTAB
  0
TABLE
  2
VIEW
  5
7
330
0
100
AcDbSymbolTable
 70
0
  0
ENDTAB
  0
TABLE
  2
UCS
  5
6
330
0
100
AcDbSymbolTable
 70
0
  0
ENDTAB
  0
TABLE
  2
APPID
  5
3
330
0
100
AcDbSymbolTable
 70
3
  0
APPID
  5
2A
330
3
100
AcDbSymbolTableRecord
100
AcDbRegAppTableRecord
  2
ACAD
 70
0
  0
APPID
  5
117
330
3
100
AcDbSymbolTableRecord
100
AcDbRegAppTableRecord
  2
HATCHBACKGROUNDCOLOR
 70
0
  0
APPID
  5
118
330
3
100
AcDbSymbolTableRecord
100
AcDbRegAppTableRecord
  2
EZDXF
 70
0
  0
ENDTAB
  0
TABLE
  2
DIMSTYLE
  5
4
330
0
100
AcDbSymbolTable
 70
1
100
AcDbDimStyleTable
  0
DIMSTYLE
105
2B
330
4
100
AcDbSymbolTableRecord
100
AcDbDimStyleTableRecord
  2
Standard
 70
0
 40
1.0
 41
2.5
 42
0.625
 43
3.75
 44
1.25
 45
0.0
 46
0.0
 47
0.0
 48
0.0
 49
2.5
140
2.5
141
2.5
142
0.0
143
0.03937007874
144
1.0
145
0.0
146
1.0
147
0.625
148
0.0
 69
0
 70
0
 71
0
 72
0
 73
0
 74
0
 75
0
 76
0
 77
1
 78
8
 79
3
170
0
171
3
172
1
173
0
174
0
175
0
176
0
177
0
178
0
179
2
271
2
272
2
273
2
274
3
275
0
276
0
277
2
278
44
279
0
280
0
281
0
282
0
283
0
284
8
285
0
286
0
288
0
289
3
290
0
371
-2
372
-2
  0
ENDTAB
  0
TABLE
  2
BLOCK_RECORD
  5
9
330
0
100
AcDbSymbolTable
 70
2
  0
BLOCK_RECORD
  5
17
330
9
100
AcDbSymbolTableRecord
100
AcDbBlockTableRecord
  2
*Model_Space
340
1A
 70
0
280
1
281
0
  0
BLOCK_RECORD
  5
1B
330
9
100
AcDbSymbolTableRecord
100
AcDbBlockTableRecord
  2
*Paper_Space
340
1E
 70
0
280
1
281
0
  0
ENDTAB
  0
ENDSEC
  0
SECTION
  2
BLOCKS
  0
BLOCK
  5
18
330
17
100
AcDbEntity
  8
0
100
AcDbBlockBegin
  2
*Model_Space
 70
0
 10
0.0
 20
0.0
 30
0.0
  3
*Model_Space
  1

  0
ENDBLK
  5
19
330
17
100
AcDbEntity
  8
0
100
AcDbBlockEnd
  0
BLOCK
  5
1C
330
1B
100
AcDbEntity
  8
0
100
AcDbBlockBegin
  2
*Paper_Space
 70
0
 10
0.0
 20
0.0
 30
0.0
  3
*Paper_Space
  1

  0
ENDBLK
  5
1D
330
1B
100
AcDbEntity
  8
0
100
AcDbBlockEnd
  0
ENDSEC
  0
SECTION
  2
ENTITIES
  0
LWPOLYLINE
  5
2F
330
17
100
AcDbEntity
  8
0
 62
0
100
AcDbPolyline
 90
133
 70
0
 10
-105.2768505739342
 20
-88.85586947303992
 10
-106.95518130045147
 20
-85.3073372946036
 10
-108.27761342928835
 20
-81.6113870901785
 10
-109.23141121612922
 20
-77.80361288064515
 10
-109.80738906688788
 20
-73.92068561318243
 10
-110.0
 20
-70.0
 10
-110.0
 20
-56.66522360666012
 10
-110.0
 20
-53.535978339756255
 10
-110.0
 20
-44.43635917554663
 10
-110.0
 20
-38.205729338510245
 10
-110.0
 20
-29.8982228879294
 10
-110.0
 20
-23.667593050415213
 10
-110.0
 20
-4.104214470176918
 10
-110.0
 20
7.886503113170395
 10
-110.0
 20
20.320163169465875
 10
-110.0
 20
28.797320269674405
 10
-110.0
 20
36.817829138789975
 10
-110.0
 20
42.833210790515146
 10
-110.0
 20
51.12278852102907
 10
-110.0
 20
59.07828941199837
 10
-110.0
 20
67.94321296510202
 10
-110.0
 20
70.0
 10
-109.9843988813149
 20
70.31756806630814
 10
-109.80738906688788
 20
73.92068561318243
 10
-109.23141121612922
 20
77.80361288064515
 10
-108.27761342928835
 20
81.6113870901785
 10
-106.95518130045147
 20
85.3073372946036
 10
-105.2768505739342
 20
88.85586947303992
 10
-103.25878449210181
 20
92.22280932078408
 10
-102.31667304418954
 20
93.49309955740276
 10
-100.92041813450948
 20
95.37573136654582
 10
-98.2842712474619
 20
98.2842712474619
 10
-95.3757313665458
 20
100.92041813450948
 10
-92.22280932078408
 20
103.25878449210181
 10
-88.85586947303992
 20
105.27685057393421
 10
-85.30733729460358
 20
106.95518130045147
 10
-81.61138709017848
 20
108.27761342928835
 10
-77.80361288064513
 20
109.23141121612922
 10
-73.92068561318243
 20
109.80738906688788
 10
-70.0
 20
110.0
 10
-66.59272597157229
 20
110.0
 10
-59.87652971164739
 20
110.0
 10
-40.448625544528696
 20
110.0
 10
-32.43054941173373
 20
110.0
 10
-24.278341597081678
 20
110.0
 10
-16.841291575885567
 20
110.0
 10
15.459315985205087
 20
110.0
 10
20.404329564667233
 20
110.0
 10
28.95154032140585
 20
110.0
 10
34.95905206070941
 20
110.0
 10
70.0
 20
110.0
 10
73.92068561318243
 20
109.80738906688788
 10
77.80361288064513
 20
109.23141121612922
 10
81.114732815536
 20
108.40201884880958
 10
81.11473281553602
 20
108.40201884880956
 10
81.6113870901785
 20
108.27761342928835
 10
82.59878172534678
 20
107.92431797962988
 10
85.3073372946036
 20
106.95518130045147
 10
88.85586947303992
 20
105.2768505739342
 10
90.69907995156574
 20
104.172072729185
 10
92.2228093207841
 20
103.25878449210181
 10
93.38472800669247
 20
102.39704686397418
 10
95.37573136654582
 20
100.92041813450948
 10
98.2842712474619
 20
98.2842712474619
 10
100.92041813450948
 20
95.37573136654582
 10
103.25878449210181
 20
92.22280932078408
 10
105.27685057393421
 20
88.8558694730399
 10
106.95518130045147
 20
85.3073372946036
 10
108.27761342928835
 20
81.6113870901785
 10
109.23141121612922
 20
77.80361288064513
 10
109.80738906688788
 20
73.92068561318243
 10
110.0
 20
70.0
 10
110.0
 20
67.58022075848679
 10
110.0
 20
60.99041586403999
 10
110.0
 20
29.42358046816894
 10
110.0
 20
24.39474160874497
 10
110.0
 20
16.030016065132145
 10
110.0
 20
11.643077914884394
 10
110.0
 20
-7.2261732247563595
 10
110.0
 20
-12.493349416054249
 10
110.0
 20
-34.19511812268486
 10
110.0
 20
-42.48098998567166
 10
110.0
 20
-51.857293088883324
 10
110.0
 20
-55.92275771573625
 10
110.0
 20
-70.0
 10
109.80738906688788
 20
-73.92068561318243
 10
109.23141121612922
 20
-77.80361288064513
 10
108.27761342928835
 20
-81.6113870901785
 10
106.95518130045147
 20
-85.3073372946036
 10
105.2768505739342
 20
-88.85586947303992
 10
103.25878449210181
 20
-92.22280932078408
 10
100.92041813450948
 20
-95.37573136654582
 10
98.2842712474619
 20
-98.2842712474619
 10
97.29643975876049
 20
-99.1795895207144
 10
95.37573136654582
 20
-100.92041813450948
 10
92.2228093207841
 20
-103.25878449210181
 10
90.88758722367228
 20
-104.05908581845304
 10
88.85586947303992
 20
-105.2768505739342
 10
85.3073372946036
 20
-106.95518130045147
 10
85.05541714918182
 20
-107.04531976979777
 10
81.6113870901785
 20
-108.27761342928835
 10
77.80361288064513
 20
-109.23141121612922
 10
76.88268149620494
 20
-109.36801848249522
 10
73.92068561318243
 20
-109.80738906688788
 10
71.65834209964545
 20
-109.91853087680434
 10
70.0
 20
-110.0
 10
63.055794296230815
 20
-110.0
 10
58.09943845231487
 20
-110.0
 10
45.3703253058425
 20
-110.0
 10
40.69161908609736
 20
-110.0
 10
31.755016914878112
 20
-110.0
 10
28.819419282412717
 20
-110.0
 10
-11.472469230725052
 20
-110.0
 10
-16.276089507585333
 20
-110.0
 10
-30.6415242879497
 20
-110.0
 10
-37.349392787929624
 20
-110.0
 10
-45.37731784672597
 20
-110.0
 10
-51.398261641404694
 20
-110.0
 10
-59.42618670034201
 20
-110.0
 10
-66.44122731586788
 20
-110.0
 10
-70.0
 20
-110.0
 10
-73.92068561318243
 20
-109.80738906688788
 10
-77.80361288064513
 20
-109.23141121612922
 10
-81.61138709017848
 20
-108.27761342928835
 10
-85.30733729460358
 20
-106.95518130045147
 10
-88.85586947303992
 20
-105.27685057393421
 10
-92.22280932078408
 20
-103.25878449210181
 10
-95.3757313665458
 20
-100.92041813450948
 10
-97.16375300545322
 20
-99.29984978394079
 10
-98.2842712474619
 20
-98.2842712474619
 10
-100.92041813450948
 20
-95.37573136654582
 10
-103.25878449210181
 20
-92.22280932078408
 10
-105.2768505739342
 20
-88.85586947303992
  0
LWPOLYLINE
  5
30
330
17
100
AcDbEntity
  8
0
 62
0
100
AcDbPolyline
 90
9
 70
0
 10
81.03778445281486
 20
-4.483057092199558
 10
79.14659369038418
 20
-2.6306683672592044
 10
72.18742308113724
 20
-2.7703339802101254
 10
73.0724092242308
 20
-9.193835949059576
 10
76.28073316067457
 20
-10.500226977746934
 10
81.0
 20
-6.833722597304093
 10
81.0
 20
-5.0
 10
81.01926109331121
 20
-4.6079314386817565
 10
81.03778445281486
 20
-4.483057092199558
  0
LWPOLYLINE
  5
31
330
17
100
AcDbEntity
  8
0
 62
0
100
AcDbPolyline
 90
7
 70
0
 10
95.64735138555989
 20
-15.935635560192168
 10
99.62498189415783
 20
-13.283733421936631
 10
98.57475850125775
 20
-7.9700991907157
 10
94.37102700630203
 20
-6.277305596973747
 10
93.8
 20
-6.517034376673018
 10
93.8
 20
-12.438527759270123
 10
95.64735138555989
 20
-15.935635560192168
  0
LWPOLYLINE
  5
32
330
17
100
AcDbEntity
  8
0
 62
0
100
AcDbPolyline
 90
14
 70
0
 10
84.60793143868176
 20
-16.98073890668879
 10
84.21963871193549
 20
-16.92314112161292
 10
83.83886129098215
 20
-16.827761342928834
 10
83.46926627053963
 20
-16.695518130045144
 10
83.11441305269601
 20
-16.52768505739342
 10
82.7777190679216
 20
-16.32587844921018
 10
82.46242686334541
 20
-16.092041813450948
 10
82.30569717989916
 20
-15.949990308558162
 10
81.18889060942456
 20
-16.817662411369383
 10
82.16403805557638
 20
-23.89558288268745
 10
88.49488758808002
 20
-19.5232114167884
 10
87.16199813407245
 20
-17.0
 10
85.0
 20
-17.0
 10
84.60793143868176
 20
-16.98073890668879
  0
LWPOLYLINE
  5
33
330
17
100
AcDbEntity
  8
0
 62
0
100
AcDbPolyline
 90
21
 70
0
 10
-1.304481869954853
 20
-91.33073372946036
 10
-1.4723149426065798
 20
-91.68558694730399
 10
-1.674121550789819
 20
-92.0222809320784
 10
-1.907958186549052
 20
-92.33757313665458
 10
-2.1715728752538097
 20
-92.62842712474618
 10
-2.462426863345418
 20
-92.89204181345094
 10
-2.777719067921591
 20
-93.12587844921018
 10
-3.1144130526960088
 20
-93.32768505739341
 10
-3.4692662705396407
 20
-93.49551813004514
 10
-3.838861290982151
 20
-93.62776134292884
 10
-4.219638711935486
 20
-93.72314112161291
 10
-4.6079314386817565
 20
-93.78073890668878
 10
-4.718746415398217
 20
-93.78618289740214
 10
-4.279012702405453
 20
-94.14458377845585
 10
0.4872568198479712
 20
-91.98568262252957
 10
-1.0
 20
-89.52208991408577
 10
-1.0
 20
-89.8
 10
-1.0192610933112123
 20
-90.19206856131824
 10
-1.0768588783870783
 20
-90.58036128806451
 10
-1.1722386570711647
 20
-90.96113870901785
 10
-1.304481869954853
 20
-91.33073372946036
  0
LWPOLYLINE
  5
34
330
17
100
AcDbEntity
  8
0
 62
0
100
AcDbPolyline
 90
10
 70
0
 10
-18.720255890395492
 20
-84.83746531791985
 10
-21.29778115125373
 20
-86.05143695743755
 10
-21.58646535128355
 20
-89.50348872924224
 10
-18.741242922842503
 20
-91.47952246572822
 10
-16.913536954034782
 20
-90.61870327429327
 10
-16.92314112161292
 20
-90.58036128806451
 10
-16.98073890668879
 20
-90.19206856131824
 10
-17.0
 20
-89.8
 10
-17.0
 20
-86.42004360446889
 10
-18.720255890395492
 20
-84.83746531791985
  0
LWPOLYLINE
  5
35
330
17
100
AcDbEntity
  8
0
 62
0
100
AcDbPolyline
 90
7
 70
0
 10
-13.533198121003807
 20
-78.73898192076012
 10
-11.07548105153958
 20
-81.0
 10
-8.282742123647202
 20
-81.0
 10
-5.820611614268273
 20
-79.8690849673003
 10
-8.620273454114795
 20
-75.82031669281423
 10
-12.8886928842403
 20
-76.16849000146613
 10
-13.533198121003807
 20
-78.73898192076012
  0
LWPOLYLINE
  5
36
330
17
100
AcDbEntity
  8
0
 62
0
100
AcDbPolyline
 90
5
 70
0
 10
12.555178817361593
 20
-78.30472793942317
 10
12.01211944874376
 20
-77.37136743217707
 10
6.165797338400816
 20
-81.0
 10
12.138794330293312
 20
-81.0
 10
12.555178817361593
 20
-78.30472793942317
  0
LWPOLYLINE
  5
37
330
17
100
AcDbEntity
  8
0
 62
0
100
AcDbPolyline
 90
7
 70
0
 10
101.90650051761142
 20
-84.28747661555967
 10
102.33021266061864
 20
-83.39161255843464
 10
103.48714141729097
 20
-80.15821329242526
 10
103.83846160340858
 20
-78.75566448968802
 10
102.7845803196542
 20
-78.62139627244323
 10
100.6872717491351
 20
-81.37844120431691
 10
101.90650051761142
 20
-84.28747661555967
  0
LWPOLYLINE
  5
38
330
17
100
AcDbEntity
  8
0
 62
0
100
AcDbPolyline
 90
7
 70
0
 10
104.95304728527942
 20
-70.83300135385514
 10
105.0
 20
-69.87725688945535
 10
105.0
 20
-64.79048431546964
 10
104.55392809817567
 20
-64.73365317145362
 10
102.45661952765658
 20
-67.4906981033273
 10
103.79563619336113
 20
-70.6855430714786
 10
104.95304728527942
 20
-70.83300135385514
  0
LWPOLYLINE
  5
39
330
17
100
AcDbEntity
  8
0
 62
0
100
AcDbPolyline
 90
4
 70
0
 10
105.0
 20
-55.44976880262781
 10
105.0
 20
-52.585440009446096
 10
104.22596730617806
 20
-53.602955002337694
 10
105.0
 20
-55.44976880262781
  0
LWPOLYLINE
  5
3A
330
17
100
AcDbEntity
  8
0
 62
0
100
AcDbPolyline
 90
5
 70
0
 10
105.0
 20
-38.232611215265514
 10
105.0
 20
-35.55715709676738
 10
104.755484031979
 20
-35.6237651524134
 10
104.16488964715973
 20
-36.75290787545964
 10
105.0
 20
-38.232611215265514
  0
LWPOLYLINE
  5
3B
330
17
100
AcDbEntity
  8
0
 62
0
100
AcDbPolyline
 90
6
 70
0
 10
104.61816106317565
 20
-19.56972997635603
 10
100.5658542891033
 20
-22.27141907904297
 10
103.85007770126686
 20
-27.578892099671066
 10
105.0
 20
-27.265644302119778
 10
105.0
 20
-19.7052788178583
 10
104.61816106317565
 20
-19.56972997635603
  0
LWPOLYLINE
  5
3C
330
17
100
AcDbEntity
  8
0
 62
0
100
AcDbPolyline
 90
7
 70
0
 10
105.0
 20
1.0736458601920131
 10
105.0
 20
5.366763370666706
 10
103.53273622598499
 20
6.735876935068518
 10
100.21967917773873
 20
5.724119555670768
 10
99.00723635125905
 20
0.4800211866386235
 10
101.82375474460423
 20
-0.6541578867472708
 10
105.0
 20
1.0736458601920131
  0
LWPOLYLINE
  5
3D
330
17
100
AcDbEntity
  8
0
 62
0
100
AcDbPolyline
 90
4
 70
0
 10
105.0
 20
25.882727854939905
 10
105.0
 20
26.40012347102047
 10
104.90160476509482
 20
25.9745411016047
 10
105.0
 20
25.882727854939905
  0
LWPOLYLINE
  5
3E
330
17
100
AcDbEntity
  8
0
 62
0
100
AcDbPolyline
 90
7
 70
0
 10
105.0
 20
37.50608713678145
 10
105.0
 20
43.66323040808689
 10
104.90601397724822
 20
43.75092938961461
 10
101.59295692900196
 20
42.73917201021686
 10
100.8126359982416
 20
39.36410175263882
 10
103.34537211526185
 20
37.0007888735272
 10
105.0
 20
37.50608713678145
  0
LWPOLYLINE
  5
3F
330
17
100
AcDbEntity
  8
0
 62
0
100
AcDbPolyline
 90
6
 70
0
 10
103.48714141729097
 20
80.15821329242526
 10
103.45162923705551
 20
80.2574631873263
 10
100.53019889071584
 20
78.33948715031147
 10
104.64034938241156
 20
74.67795353828284
 10
104.32157069618115
 20
76.82698487936575
 10
103.48714141729097
 20
80.15821329242526
  0
LWPOLYLINE
  5
40
330
17
100
AcDbEntity
  8
0
 62
0
100
AcDbPolyline
 90
7
 70
0
 10
100.1602922362033
 20
87.6666489604122
 10
99.09642268350073
 20
89.44160807698564
 10
97.05070462830409
 20
92.19993956541992
 10
96.70822420198792
 20
92.57780848587653
 10
94.49925041431561
 20
91.12757408386096
 10
97.74296543281525
 20
86.07962673762813
 10
100.1602922362033
 20
87.6666489604122
  0
LWPOLYLINE
  5
41
330
17
100
AcDbEntity
  8
0
 62
0
100
AcDbPolyline
 90
8
 70
0
 10
85.9198489044793
 20
96.8541862545535
 10
88.10087172361091
 20
96.49692635051906
 10
90.67127018843507
 20
98.18444310681426
 10
89.4416080769857
 20
99.09642268350072
 10
86.54540696800096
 20
100.83233882353016
 10
85.28186592599377
 20
99.81639681849629
 10
85.24428897816688
 20
97.65829812223092
 10
85.9198489044793
 20
96.8541862545535
  0
LWPOLYLINE
  5
42
330
17
100
AcDbEntity
  8
0
 62
0
100
AcDbPolyline
 90
8
 70
0
 10
77.27815339062363
 20
99.67282347241417
 10
77.29053833009675
 20
100.38410853315145
 10
73.7681525980195
 20
104.77530560334883
 10
73.43000886990825
 20
104.82546448718811
 10
70.86980856269683
 20
104.95123906306023
 10
69.49134027492255
 20
104.54205604828894
 10
71.33596490044147
 20
98.75985327316448
 10
77.27815339062363
 20
99.67282347241417
  0
LWPOLYLINE
  5
43
330
17
100
AcDbEntity
  8
0
 62
0
100
AcDbPolyline
 90
4
 70
0
 10
52.26969054657975
 20
105.0
 10
46.94948943489486
 20
105.0
 10
49.5972632993944
 20
100.33702304074541
 10
52.26969054657975
 20
105.0
  0
LWPOLYLINE
  5
44
330
17
100
AcDbEntity
  8
0
 62
0
100
AcDbPolyline
 90
7
 70
0
 10
8.278418015429105
 20
105.0
 10
7.726407261642453
 20
105.0
 10
7.582143295556307
 20
98.40407209424302
 10
10.543552209623158
 20
96.60683609358966
 10
13.580708700232208
 20
98.27287344401702
 10
13.656456276308745
 20
101.7361467955634
 10
8.278418015429105
 20
105.0
  0
LWPOLYLINE
  5
45
330
17
100
AcDbEntity
  8
0
 62
0
100
AcDbPolyline
 90
8
 70
0
 10
-6.124941515270621
 20
95.44732329621911
 10
-0.4159439103677869
 20
98.57900362787768
 10
-0.27550598942302185
 20
105.0
 10
-1.0120962550765404
 20
105.0
 10
-7.086240008473396
 20
103.41148836957291
 10
-8.83423926262185
 20
99.74801724590361
 10
-8.29495737561956
 20
97.01280785771087
 10
-6.124941515270621
 20
95.44732329621911
  0
LWPOLYLINE
  5
46
330
17
100
AcDbEntity
  8
0
 62
0
100
AcDbPolyline
 90
4
 70
0
 10
-15.192297835053743
 20
105.0
 10
-15.205291697638367
 20
105.0
 10
-15.193767063785344
 20
104.9969207784161
 10
-15.192297835053743
 20
105.0
  0
LWPOLYLINE
  5
47
330
17
100
AcDbEntity
  8
0
 62
0
100
AcDbPolyline
 90
7
 70
0
 10
-46.69651252184191
 20
105.0
 10
-50.29402169095479
 20
105.0
 10
-51.27061220770702
 20
101.3320501013659
 10
-48.36603220272809
 20
99.1014137561433
 10
-47.19987844629213
 20
99.49818458640948
 10
-45.53612134186551
 20
103.47725942917168
 10
-46.69651252184191
 20
105.0
  0
LWPOLYLINE
  5
48
330
17
100
AcDbEntity
  8
0
 62
0
100
AcDbPolyline
 90
5
 70
0
 10
-58.57272263810441
 20
105.0
 10
-63.2788471045425
 20
105.0
 10
-61.208734289277345
 20
102.71444739121944
 10
-59.05776015901938
 20
103.17826069938019
 10
-58.57272263810441
 20
105.0
  0
LWPOLYLINE
  5
49
330
17
100
AcDbEntity
  8
0
 62
0
100
AcDbPolyline
 90
6
 70
0
 10
-77.54031828744337
 20
99.89097515167668
 10
-69.25970232021064
 20
90.74858286837116
 10
-67.13813902204856
 20
97.34395770030096
 10
-73.85705234929272
 20
104.76211857095181
 10
-75.29876657811151
 20
104.54826046707188
 10
-77.54031828744337
 20
99.89097515167668
  0
LWPOLYLINE
  5
4A
330
17
100
AcDbEntity
  8
0
 62
0
100
AcDbPolyline
 90
4
 70
0
 10
-94.7458293948309
 20
94.74297750083659
 10
-95.37692653277193
 20
94.04666911094665
 10
-94.26252506347373
 20
94.30684267124161
 10
-94.7458293948309
 20
94.74297750083659
  0
LWPOLYLINE
  5
4B
330
17
100
AcDbEntity
  8
0
 62
0
100
AcDbPolyline
 90
7
 70
0
 10
-104.8895638734059
 20
72.12523588897041
 10
-105.0
 20
69.87725688945535
 10
-105.0
 20
65.55616542896301
 10
-101.12754427874461
 20
63.707418251316994
 10
-97.71817662613466
 20
67.2000577119179
 10
-98.6550537510775
 20
70.5350631470792
 10
-104.8895638734059
 20
72.12523588897041
  0
LWPOLYLINE
  5
4C
330
17
100
AcDbEntity
  8
0
 62
0
100
AcDbPolyline
 90
5
 70
0
 10
-105.0
 20
56.69124187575135
 10
-105.0
 20
52.67823628676166
 10
-103.38253595866263
 20
55.06737646413967
 10
-103.64721172256395
 20
56.04540789080784
 10
-105.0
 20
56.69124187575135
  0
LWPOLYLINE
  5
4D
330
17
100
AcDbEntity
  8
0
 62
0
100
AcDbPolyline
 90
7
 70
0
 10
-105.0
 20
-11.429851698054131
 10
-105.0
 20
-16.75967686076678
 10
-100.51443805219606
 20
-18.01526662427932
 10
-98.03782971855253
 20
-15.593199086841196
 10
-98.89709756849334
 20
-12.237359584774822
 10
-104.0147523866035
 20
-10.804835616610944
 10
-105.0
 20
-11.429851698054131
  0
LWPOLYLINE
  5
4E
330
17
100
AcDbEntity
  8
0
 62
0
100
AcDbPolyline
 90
6
 70
0
 10
-104.28823251556605
 20
-31.497049716766924
 10
-101.81162418145686
 20
-29.0749821793288
 10
-102.67089203139767
 20
-25.719142677262425
 10
-105.0
 20
-25.067183311355553
 10
-105.0
 20
-31.297813148907935
 10
-104.28823251556605
 20
-31.497049716766924
  0
LWPOLYLINE
  5
4F
330
17
100
AcDbEntity
  8
0
 62
0
100
AcDbPolyline
 90
8
 70
0
 10
-98.14614991704002
 20
-63.33104039635509
 10
-103.76568772830069
 20
-61.75803031818941
 10
-105.0
 20
-62.965160102689815
 10
-105.0
 20
-69.87725688945535
 10
-104.96029287127153
 20
-70.6855140627688
 10
-96.34234296577051
 20
-70.58005393855274
 10
-95.87656288174912
 20
-68.68702509719878
 10
-98.14614991704002
 20
-63.33104039635509
  0
LWPOLYLINE
  5
50
330
17
100
AcDbEntity
  8
0
 62
0
100
AcDbPolyline
 90
7
 70
0
 10
-103.85925830767214
 20
-78.67263939230303
 10
-103.48714141729097
 20
-80.15821329242526
 10
-102.33021266061864
 20
-83.39161255843464
 10
-100.86192628253261
 20
-86.49604327490604
 10
-99.94728603872183
 20
-88.02202833107467
 10
-99.25073429057375
 20
-78.61624366929755
 10
-103.85925830767214
 20
-78.67263939230303
  0
LWPOLYLINE
  5
51
330
17
100
AcDbEntity
  8
0
 62
0
100
AcDbPolyline
 90
8
 70
0
 10
-83.53786239912733
 20
-100.00925870938227
 10
-83.80458337627351
 20
-96.95397522859275
 10
-94.71798401158033
 20
-94.76848217306224
 10
-92.19993956541983
 20
-97.05070462830417
 10
-89.44160807698579
 20
-99.09642268350063
 10
-86.49604327490599
 20
-100.86192628253265
 10
-85.27836891046404
 20
-101.43784336541954
 10
-83.53786239912733
 20
-100.00925870938227
  0
LWPOLYLINE
  5
52
330
17
100
AcDbEntity
  8
0
 62
0
100
AcDbPolyline
 90
6
 70
0
 10
-9.326140279415995
 20
-100.35156267834827
 10
-12.796915411949158
 20
-97.5227396232076
 10
-15.332525284495205
 20
-98.71696981042624
 10
-15.85795527979516
 20
-105.0
 10
-10.360201575478666
 20
-105.0
 10
-9.326140279415995
 20
-100.35156267834827
  0
LWPOLYLINE
  5
53
330
17
100
AcDbEntity
  8
0
 62
0
100
AcDbPolyline
 90
6
 70
0
 10
4.160416313447058
 20
-104.3000122224912
 10
4.696710671298206
 20
-98.86140266247094
 10
-1.4149112170562148
 20
-101.62968664150685
 10
-2.164649324618396
 20
-105.0
 10
2.557077381503045
 20
-105.0
 10
4.160416313447058
 20
-104.3000122224912
  0
LWPOLYLINE
  5
54
330
17
100
AcDbEntity
  8
0
 62
0
100
AcDbPolyline
 90
6
 70
0
 10
18.722732941620052
 20
-99.2860996844247
 10
14.108320757746696
 20
-97.55911493394524
 10
12.82796842744574
 20
-97.92378658661619
 10
12.13019204097278
 20
-105.0
 10
18.159292513662045
 20
-105.0
 10
18.722732941620052
 20
-99.2860996844247
  0
LWPOLYLINE
  5
55
330
17
100
AcDbEntity
  8
0
 62
0
100
AcDbPolyline
 90
7
 70
0
 10
26.198093143761525
 20
-105.0
 10
34.24427966696205
 20
-105.0
 10
35.46975961886346
 20
-102.5384680647403
 10
35.31478712614626
 20
-102.09402869315818
 10
28.01893384521827
 20
-99.29197848169133
 10
26.722675256431103
 20
-99.6801653727889
 10
26.198093143761525
 20
-105.0
  0
LWPOLYLINE
  5
56
330
17
100
AcDbEntity
  8
0
 62
0
100
AcDbPolyline
 90
6
 70
0
 10
65.77084497408941
 20
-102.94023216841742
 10
64.70265451446176
 20
-101.48315906757489
 10
61.259112101979554
 20
-101.86000870959833
 10
59.87718216005858
 20
-105.0
 10
64.97869795441667
 20
-105.0
 10
65.77084497408941
 20
-102.94023216841742
  0
LWPOLYLINE
  5
57
330
17
100
AcDbEntity
  8
0
 62
0
100
AcDbPolyline
 90
5
 70
0
 10
-91.23135624406859
 20
-78.65039272652939
 10
-91.86312238965183
 20
-87.1813544742763
 10
-84.96408528322354
 20
-88.562940122094
 10
-85.84345531556755
 20
-81.79494012659416
 10
-91.23135624406859
 20
-78.65039272652939
  0
LWPOLYLINE
  5
58
330
17
100
AcDbEntity
  8
0
 62
0
100
AcDbPolyline
 90
6
 70
0
 10
-77.3777967048809
 20
-72.67115835566074
 10
-77.08911250438541
 20
-69.21910658432171
 10
-79.93433493329212
 20
-67.24307284737006
 10
-88.21962093748152
 20
-71.14530511153862
 10
-81.93090450484306
 20
-74.8155965982005
 10
-77.3777967048809
 20
-72.67115835566074
  0
LWPOLYLINE
  5
59
330
17
100
AcDbEntity
  8
0
 62
0
100
AcDbPolyline
 90
6
 70
0
 10
-89.61494248080999
 20
-62.95958160655573
 10
-83.34305257163942
 20
-60.00562550313771
 10
-83.05436837114394
 20
-56.55357373179868
 10
-87.51791127258912
 20
-53.45360120618716
 10
-90.8156453659758
 20
-60.126050140243024
 10
-89.61494248080999
 20
-62.95958160655573
  0
LWPOLYLINE
  5
5A
330
17
100
AcDbEntity
  8
0
 62
0
100
AcDbPolyline
 90
6
 70
0
 10
-94.62527092453092
 20
-49.778461697977036
 10
-99.9918932649307
 20
-48.27624722570181
 10
-102.46850159903988
 20
-50.69831476313993
 10
-101.60923374909908
 20
-54.05415426520631
 10
-97.33040432818234
 20
-55.25187586247921
 10
-94.62527092453092
 20
-49.778461697977036
  0
LWPOLYLINE
  5
5B
330
17
100
AcDbEntity
  8
0
 62
0
100
AcDbPolyline
 90
6
 70
0
 10
-75.35700730187818
 20
-48.50679595582187
 10
-74.91680493671447
 20
-43.24290776019916
 10
-84.13495439011604
 20
-46.03805504599586
 10
-84.14404347306117
 20
-46.05666235415265
 10
-78.49091393128037
 20
-49.98281399020925
 10
-75.35700730187818
 20
-48.50679595582187
  0
LWPOLYLINE
  5
5C
330
17
100
AcDbEntity
  8
0
 62
0
100
AcDbPolyline
 90
7
 70
0
 10
-97.83543928572908
 20
-40.572371172718704
 10
-91.2666904903017
 20
-42.411082540638745
 10
-91.20395501004532
 20
-42.28264951892197
 10
-92.88222261704504
 20
-35.728236097376794
 10
-96.2180988015607
 20
-34.79446413367987
 10
-98.69470713566989
 20
-37.21653167111799
 10
-97.83543928572908
 20
-40.572371172718704
  0
LWPOLYLINE
  5
5D
330
17
100
AcDbEntity
  8
0
 62
0
100
AcDbPolyline
 90
6
 70
0
 10
-78.37819507485256
 20
-35.932789251208305
 10
-79.31975873885676
 20
-32.25554642500356
 10
-82.65563492383808
 20
-31.32177446130663
 10
-85.13224325794727
 20
-33.743841998744756
 10
-84.12553370278329
 20
-37.67550974525511
 10
-78.37819507485256
 20
-35.932789251208305
  0
LWPOLYLINE
  5
5E
330
17
100
AcDbEntity
  8
0
 62
0
100
AcDbPolyline
 90
7
 70
0
 10
-94.06164482235909
 20
-27.09058808069676
 10
-90.72576863784343
 20
-28.02436004439369
 10
-88.24916030373424
 20
-25.602292506955564
 10
-89.10842815367505
 20
-22.24645300488919
 10
-92.4443043381907
 20
-21.312681041192263
 10
-94.92091267229989
 20
-23.734748578630388
 10
-94.06164482235909
 20
-27.09058808069676
  0
LWPOLYLINE
  5
5F
330
17
100
AcDbEntity
  8
0
 62
0
100
AcDbPolyline
 90
6
 70
0
 10
-94.26403525518253
 20
-2.1114159943535924
 10
-95.94493462331593
 20
4.453275674954057
 10
-99.67938251420856
 20
4.310508783441037
 10
-100.37439642939717
 20
-3.516330515034497
 10
-96.74064358929172
 20
-4.533483531791717
 10
-94.26403525518253
 20
-2.1114159943535924
  0
LWPOLYLINE
  5
60
330
17
100
AcDbEntity
  8
0
 62
0
100
AcDbPolyline
 90
23
 70
0
 10
-81.30448186995486
 20
3.4692662705396407
 10
-81.47231494260657
 20
3.114413052696009
 10
-81.67412155078982
 20
2.7777190679215913
 10
-81.90795818654905
 20
2.462426863345418
 10
-82.17157287525382
 20
2.17157287525381
 10
-82.46242686334541
 20
1.907958186549052
 10
-82.7777190679216
 20
1.674121550789819
 10
-83.11441305269601
 20
1.4723149426065802
 10
-83.46926627053963
 20
1.304481869954853
 10
-83.83886129098215
 20
1.1722386570711647
 10
-84.21963871193549
 20
1.0768588783870783
 10
-84.60793143868176
 20
1.0192610933112127
 10
-85.0
 20
1.0
 10
-86.80263158061759
 20
1.0
 10
-86.51405589608476
 20
-0.12702189572155476
 10
-83.17817971110344
 20
-1.0607938594184816
 10
-78.26003444613889
 20
3.7490421677939594
 10
-81.0
 20
5.698200702185948
 10
-81.0
 20
5.0
 10
-81.01926109331121
 20
4.607931438681757
 10
-81.07685887838707
 20
4.219638711935487
 10
-81.17223865707116
 20
3.838861290982151
 10
-81.30448186995486
 20
3.4692662705396407
  0
LWPOLYLINE
  5
61
330
17
100
AcDbEntity
  8
0
 62
0
100
AcDbPolyline
 90
12
 70
0
 10
-93.49551813004514
 20
14.53073372946036
 10
-93.41984958330796
 20
14.690721429589981
 10
-96.3885804777965
 20
20.8041104497388
 10
-99.84382420033216
 20
21.05168027477339
 10
-104.6663493574597
 20
13.928375943563879
 10
-102.18021110631526
 20
12.220746722072363
 10
-94.4877894720994
 20
12.51482583489269
 10
-93.79262586047328
 20
13.15010405839821
 10
-93.78073890668878
 20
13.392068561318244
 10
-93.72314112161291
 20
13.780361288064514
 10
-93.62776134292884
 20
14.16113870901785
 10
-93.49551813004514
 20
14.53073372946036
  0
LWPOLYLINE
  5
62
330
17
100
AcDbEntity
  8
0
 62
0
100
AcDbPolyline
 90
6
 70
0
 10
-86.16578381555155
 20
18.066515082027763
 10
-82.28173657786101
 20
23.803602937143296
 10
-83.79495668178424
 20
26.91971668973565
 10
-87.25020040385425
 20
27.16728651430458
 10
-89.19222402293235
 20
24.298742586746812
 10
-86.16578381555155
 20
18.066515082027763
  0
LWPOLYLINE
  5
63
330
17
100
AcDbEntity
  8
0
 62
0
100
AcDbPolyline
 90
7
 70
0
 10
-99.27208618074656
 20
29.031223847996444
 10
-95.81684245821089
 20
28.783654022961855
 10
-93.87481883913279
 20
31.65219795051962
 10
-95.38803894305602
 20
34.768311703111976
 10
-98.84328266512603
 20
35.015881527680904
 10
-100.78530628420413
 20
32.14733760012314
 10
-99.27208618074656
 20
29.031223847996444
  0
LWPOLYLINE
  5
64
330
17
100
AcDbEntity
  8
0
 62
0
100
AcDbPolyline
 90
7
 70
0
 10
-83.22321866219863
 20
34.899260262958705
 10
-78.557877054438
 20
41.79039032384753
 10
-81.9085200917907
 20
45.82387089822441
 10
-83.38460122561082
 20
45.363436146173626
 10
-88.19168248819187
 20
38.26294384011999
 10
-86.67846238426864
 20
35.14683008752763
 10
-83.22321866219863
 20
34.899260262958705
  0
LWPOLYLINE
  5
65
330
17
100
AcDbEntity
  8
0
 62
0
100
AcDbPolyline
 90
6
 70
0
 10
-94.81630092347041
 20
42.74785527633503
 10
-91.94874368607998
 20
46.98349578026682
 10
-97.57608823664486
 20
49.37395313940942
 10
-99.78476474946365
 20
46.11153885349631
 10
-98.27154464554042
 20
42.99542510090396
 10
-94.81630092347041
 20
42.74785527633503
  0
LWPOLYLINE
  5
66
330
17
100
AcDbEntity
  8
0
 62
0
100
AcDbPolyline
 90
6
 70
0
 10
-88.63685181364417
 20
60.7557160356082
 10
-91.99348980374634
 20
61.61185936257243
 10
-95.80826900806278
 20
57.70390641037375
 10
-95.68931387271732
 20
57.264342699665576
 10
-86.56750735174865
 20
53.389461868908256
 10
-88.63685181364417
 20
60.7557160356082
  0
LWPOLYLINE
  5
67
330
17
100
AcDbEntity
  8
0
 62
0
100
AcDbPolyline
 90
7
 70
0
 10
-90.01631148299202
 20
69.36368275340647
 10
-86.65967349242419
 20
68.50753942644224
 10
-84.23991262633353
 20
70.9864015346393
 10
-85.57653278391808
 20
75.74437392037362
 10
-87.26306164823472
 20
76.47894433839247
 10
-90.95318860793486
 20
72.69868818856776
 10
-90.01631148299202
 20
69.36368275340647
  0
LWPOLYLINE
  5
68
330
17
100
AcDbEntity
  8
0
 62
0
100
AcDbPolyline
 90
6
 70
0
 10
-92.76519901352003
 20
82.29512778483331
 10
-94.05221002735198
 20
86.14081308944151
 10
-99.43754173303023
 20
84.88352748611942
 10
-101.29191089328378
 20
79.46374137979001
 10
-96.67787543032318
 20
78.28688653791323
 10
-92.76519901352003
 20
82.29512778483331
  0
LWPOLYLINE
  5
69
330
17
100
AcDbEntity
  8
0
 62
0
100
AcDbPolyline
 90
7
 70
0
 10
-82.50540468096733
 20
83.13262780709192
 10
-76.39504855964333
 20
86.70953885372728
 10
-83.15293875942007
 20
94.17073297966272
 10
-86.3026884640567
 20
92.43596871197224
 10
-87.12154699629173
 20
90.6392070343718
 10
-84.96837920648977
 20
84.205380408559
 10
-82.50540468096733
 20
83.13262780709192
  0
LWPOLYLINE
  5
6A
330
17
100
AcDbEntity
  8
0
 62
0
100
AcDbPolyline
 90
7
 70
0
 10
-40.678589328657836
 20
-101.81164870690554
 10
-37.544682698789984
 20
-100.33563067251816
 10
-37.2559984982945
 20
-96.8835789016448
 10
-40.10122092766687
 20
-94.90754516469315
 10
-43.23512755706906
 20
-96.38356319908053
 10
-43.52381175709888
 20
-99.83561497041956
 10
-40.678589328657836
 20
-101.81164870690554
  0
LWPOLYLINE
  5
6B
330
17
100
AcDbEntity
  8
0
 62
0
100
AcDbPolyline
 90
7
 70
0
 10
-54.629890465177596
 20
-100.64494540169835
 10
-51.49598383484408
 20
-99.16892736684531
 10
-51.20729963481426
 20
-95.71687559550628
 10
-54.05252206372097
 20
-93.74084185855463
 10
-57.18642869358882
 20
-95.21685989294201
 10
-57.47511289361864
 20
-98.6689116647467
 10
-54.629890465177596
 20
-100.64494540169835
  0
LWPOLYLINE
  5
6C
330
17
100
AcDbEntity
  8
0
 62
0
100
AcDbPolyline
 90
7
 70
0
 10
-72.09034793823957
 20
-101.13099651737139
 10
-65.44728497136384
 20
-98.00222406117246
 10
-65.15860077133402
 20
-94.55017228983343
 10
-68.00382320024073
 20
-92.57413855334744
 10
-75.83454135153443
 20
-96.26227689953521
 10
-75.57273282017559
 20
-99.26128840772435
 10
-72.09034793823957
 20
-101.13099651737139
  0
LWPOLYLINE
  5
6D
330
17
100
AcDbEntity
  8
0
 62
0
100
AcDbPolyline
 90
7
 70
0
 10
-35.53776648780331
 20
-88.33678542310372
 10
-32.69254405843094
 20
-90.31281916005537
 10
-29.55863742902875
 20
-88.83680112566799
 10
-29.26995322899893
 20
-85.3847493538633
 10
-32.11517565743998
 20
-83.40871561737731
 10
-35.24908228730783
 20
-84.88473365176469
 10
-35.53776648780331
 20
-88.33678542310372
  0
LWPOLYLINE
  5
6E
330
17
100
AcDbEntity
  8
0
 62
0
100
AcDbPolyline
 90
7
 70
0
 10
-49.48906762385741
 20
-87.17008211789653
 10
-46.64384519541636
 20
-89.14611585438251
 10
-43.50993856554851
 20
-87.67009781999514
 10
-43.22125436505303
 20
-84.2180460486561
 10
-46.0664767944254
 20
-82.24201231170446
 10
-49.20038342382759
 20
-83.71803034609184
 10
-49.48906762385741
 20
-87.17008211789653
  0
LWPOLYLINE
  5
6F
330
17
100
AcDbEntity
  8
0
 62
0
100
AcDbPolyline
 90
7
 70
0
 10
-60.59514633147046
 20
-87.979412548244
 10
-57.46123970160261
 20
-86.50339451432228
 10
-57.17255550157279
 20
-83.05134274251759
 10
-60.017777930013835
 20
-81.0753090060316
 10
-63.15168455988169
 20
-82.55132704041898
 10
-63.44036876037717
 20
-86.00337881175801
 10
-60.59514633147046
 20
-87.979412548244
  0
LWPOLYLINE
  5
70
330
17
100
AcDbEntity
  8
0
 62
0
100
AcDbPolyline
 90
6
 70
0
 10
-71.41254083812237
 20
-85.33669120864943
 10
-71.12385663762689
 20
-81.8846394373104
 10
-73.96907906699926
 20
-79.90860570035875
 10
-77.78762610722333
 20
-81.70707801077515
 10
-76.975596469827
 20
-87.9567981264554
 10
-71.41254083812237
 20
-85.33669120864943
  0
LWPOLYLINE
  5
71
330
17
100
AcDbEntity
  8
0
 62
0
100
AcDbPolyline
 90
7
 70
0
 10
-38.657799925189465
 20
-77.64728630706668
 10
-35.523893295787275
 20
-76.1712682726793
 10
-34.88192009879276
 20
-68.49462816212326
 10
-38.238639913033694
 20
-67.05600823275745
 10
-40.84008577931672
 20
-67.74393484881148
 10
-41.503022354561836
 20
-75.67125257011503
 10
-38.657799925189465
 20
-77.64728630706668
  0
LWPOLYLINE
  5
72
330
17
100
AcDbEntity
  8
0
 62
0
100
AcDbPolyline
 90
6
 70
0
 10
-52.60910106217489
 20
-76.48058300139382
 10
-49.475194432307035
 20
-75.00456496700644
 10
-48.89782603131607
 20
-68.10046142432839
 10
-55.165639290586114
 20
-71.05249749356881
 10
-55.454323490615934
 20
-74.50454926490784
 10
-52.60910106217489
 20
-76.48058300139382
  0
LWPOLYLINE
  5
73
330
17
100
AcDbEntity
  8
0
 62
0
100
AcDbPolyline
 90
7
 70
0
 10
-69.4056246271357
 20
-73.33784595876932
 10
-66.56040219776332
 20
-75.31387969572097
 10
-63.42649556836113
 20
-73.83786166133359
 10
-63.13781136833131
 20
-70.38580988999456
 10
-65.98303379723802
 20
-68.40977615304291
 10
-69.11694042664021
 20
-69.88579418743029
 10
-69.4056246271357
 20
-73.33784595876932
  0
LWPOLYLINE
  5
74
330
17
100
AcDbEntity
  8
0
 62
0
100
AcDbPolyline
 90
6
 70
0
 10
-53.298320543486625
 20
-61.3301245351322
 10
-55.98324029427022
 20
-55.96250459412113
 10
-61.13089515734464
 20
-58.38696464058012
 10
-61.41957935737446
 20
-61.83901641238481
 10
-58.57435692893341
 20
-63.815050148870796
 10
-53.298320543486625
 20
-61.3301245351322
  0
LWPOLYLINE
  5
75
330
17
100
AcDbEntity
  8
0
 62
0
100
AcDbPolyline
 90
7
 70
0
 10
-72.52565806498751
 20
-62.64834684319794
 10
-69.39175143511966
 20
-61.17232880881056
 10
-69.10306723508984
 20
-57.72027703700587
 10
-71.94828966353089
 20
-55.744243300519884
 10
-75.08219629339874
 20
-57.22026133490726
 10
-75.37088049389422
 20
-60.67231310624629
 10
-72.52565806498751
 20
-62.64834684319794
  0
LWPOLYLINE
  5
76
330
17
100
AcDbEntity
  8
0
 62
0
100
AcDbPolyline
 90
7
 70
0
 10
-44.2919976436533
 20
-60.381770660635084
 10
-41.61058500595391
 20
-59.67269762372598
 10
-40.75753523642197
 20
-51.78071511629969
 10
-43.554027582053095
 20
-49.73630063654855
 10
-48.958549006376415
 20
-52.123451174236834
 10
-44.97140805097297
 20
-60.09443700965494
 10
-44.2919976436533
 20
-60.381770660635084
  0
LWPOLYLINE
  5
77
330
17
100
AcDbEntity
  8
0
 62
0
100
AcDbPolyline
 90
6
 70
0
 10
-64.53961279569194
 20
-51.14951729634777
 10
-59.11220298008993
 20
-48.593297307845205
 10
-62.11930095637217
 20
-42.57044926658273
 10
-66.9297971460037
 20
-43.732191648799926
 10
-67.38483522413298
 20
-49.17348355939612
 10
-64.53961279569194
 20
-51.14951729634777
  0
LWPOLYLINE
  5
78
330
17
100
AcDbEntity
  8
0
 62
0
100
AcDbPolyline
 90
7
 70
0
 10
-38.832654582336545
 20
-43.278078203089535
 10
-36.03616223670542
 20
-45.322492682840675
 10
-32.86740118917078
 20
-43.92286650976166
 10
-32.495132487267256
 20
-40.47882585786283
 10
-35.29162483289838
 20
-38.43441137811169
 10
-38.46038588043302
 20
-39.834037551190704
 10
-38.832654582336545
 20
-43.278078203089535
  0
LWPOLYLINE
  5
79
330
17
100
AcDbEntity
  8
0
 62
0
100
AcDbPolyline
 90
6
 70
0
 10
-46.78632577229291
 20
-42.41836046194658
 10
-46.41405707038939
 20
-38.974319810047746
 10
-49.21054941602051
 20
-36.929905330296606
 10
-54.768189838621765
 20
-39.38468777667731
 10
-52.085011770483106
 20
-44.75876401225105
 10
-46.78632577229291
 20
-42.41836046194658
  0
LWPOLYLINE
  5
7A
330
17
100
AcDbEntity
  8
0
 62
0
100
AcDbPolyline
 90
7
 70
0
 10
-70.06530935037881
 20
-36.14680559653789
 10
-69.93903119722381
 20
-36.22894021635875
 10
-64.35263604251668
 20
-34.87981701595709
 10
-66.08493886189535
 20
-28.691143282223493
 10
-69.09317104611546
 20
-27.849084788933396
 10
-71.56977937975898
 20
-30.27115232637152
 10
-70.06530935037881
 20
-36.14680559653789
  0
LWPOLYLINE
  5
7B
330
17
100
AcDbEntity
  8
0
 62
0
100
AcDbPolyline
 90
7
 70
0
 10
-44.48917641630396
 20
-30.471682896837592
 10
-41.69268407067284
 20
-32.51609737658873
 10
-38.523923023138195
 20
-31.116471203509718
 10
-38.15165432123467
 20
-27.672430551145226
 10
-43.07074347883463
 20
-24.07626226078719
 10
-43.80508463550359
 20
-24.1428137505427
 10
-44.48917641630396
 20
-30.471682896837592
  0
LWPOLYLINE
  5
7C
330
17
100
AcDbEntity
  8
0
 62
0
100
AcDbPolyline
 90
6
 70
0
 10
-52.44284760626033
 20
-29.611965155694634
 10
-51.65398524655029
 20
-22.313811911270022
 10
-52.76910251751542
 20
-21.493883550167084
 10
-58.333240549545735
 20
-26.70553493127227
 10
-56.96106746047735
 20
-31.60764064779505
 10
-52.44284760626033
 20
-29.611965155694634
  0
LWPOLYLINE
  5
7D
330
17
100
AcDbEntity
  8
0
 62
0
100
AcDbPolyline
 90
7
 70
0
 10
-80.49918094463646
 20
-23.617898408323526
 10
-77.16330476012081
 20
-24.551670372020453
 10
-74.68669642601162
 20
-22.12960283458233
 10
-75.54596427595243
 20
-18.773763332515955
 10
-78.88184046046808
 20
-17.839991368819028
 10
-81.35844879457727
 20
-20.262058906257153
 10
-80.49918094463646
 20
-23.617898408323526
  0
LWPOLYLINE
  5
7E
330
17
100
AcDbEntity
  8
0
 62
0
100
AcDbPolyline
 90
6
 70
0
 10
-33.430281321983784
 20
-21.21420811722055
 10
-30.2615202749148
 20
-19.8145819446072
 10
-29.927971843630075
 20
-16.728761540260166
 10
-33.71180666098371
 20
-15.144755105953664
 10
-36.414598781149834
 20
-19.03248148644343
 10
-33.430281321983784
 20
-21.21420811722055
  0
LWPOLYLINE
  5
7F
330
17
100
AcDbEntity
  8
0
 62
0
100
AcDbPolyline
 90
6
 70
0
 10
-58.808775081299245
 20
-16.189736587461084
 10
-65.31937658274546
 20
-14.367301696445793
 10
-67.79598491685465
 20
-16.789369233883917
 10
-66.93671706691384
 20
-20.14520873595029
 10
-63.93025468289852
 20
-20.98677183035761
 10
-58.808775081299245
 20
-16.189736587461084
  0
LWPOLYLINE
  5
80
330
17
100
AcDbEntity
  8
0
 62
0
100
AcDbPolyline
 90
8
 70
0
 10
-49.66058033378795
 20
-13.849719621706754
 10
-46.281313417479396
 20
-16.3344419519417
 10
-44.14779459731653
 20
-16.1410865127109
 10
-39.54375021904707
 20
-9.518577644135803
 10
-41.06739808386192
 20
-4.5398544813506305
 10
-46.9363489872776
 20
-5.906433019321412
 10
-49.77637694450095
 20
-13.486067023128271
 10
-49.66058033378795
 20
-13.849719621706754
  0
LWPOLYLINE
  5
81
330
17
100
AcDbEntity
  8
0
 62
0
100
AcDbPolyline
 90
6
 70
0
 10
-70.91290196264163
 20
-8.647819742094725
 10
-72.6314376629889
 20
-1.9361407388933003
 10
-77.58465433120728
 20
-6.780275813769549
 10
-76.72538648126647
 20
-10.136115315835923
 10
-73.38951029675081
 20
-11.06988727953285
 10
-70.91290196264163
 20
-8.647819742094725
  0
LWPOLYLINE
  5
82
330
17
100
AcDbEntity
  8
0
 62
0
100
AcDbPolyline
 90
7
 70
0
 10
-63.16292260354385
 20
-6.663425643462688
 10
-56.46556598553434
 20
-8.538136662915349
 10
-54.54281775793061
 20
-3.406592865474522
 10
-59.56862495560199
 20
2.0089641376398504
 10
-65.33577926643193
 20
2.5605158898979425
 10
-65.49747336143628
 20
2.4540778808295727
 10
-63.16292260354385
 20
-6.663425643462688
  0
LWPOLYLINE
  5
83
330
17
100
AcDbEntity
  8
0
 62
0
100
AcDbPolyline
 90
7
 70
0
 10
-52.50423315912485
 20
6.157311429735273
 10
-48.57702481560409
 20
1.9255492850206792
 10
-40.64947302127257
 20
3.771470697131008
 10
-37.96752487169579
 20
7.306228347122669
 10
-38.869162186048925
 20
10.225706725846976
 10
-48.79937108140439
 20
11.26322873821482
 10
-52.50423315912485
 20
6.157311429735273
  0
LWPOLYLINE
  5
84
330
17
100
AcDbEntity
  8
0
 62
0
100
AcDbPolyline
 90
6
 70
0
 10
-70.37457551108673
 20
8.8213343443349
 10
-70.45263455249369
 20
18.94578782375902
 10
-75.65711814258248
 20
19.318691500928253
 10
-79.13149611791596
 20
14.186722071375698
 10
-71.00547926267609
 20
8.406030748039484
 10
-70.37457551108673
 20
8.8213343443349
  0
LWPOLYLINE
  5
85
330
17
100
AcDbEntity
  8
0
 62
0
100
AcDbPolyline
 90
6
 70
0
 10
-55.274402796290815
 20
15.961522502824664
 10
-56.685329250991344
 20
19.12526815244928
 10
-62.45843106880784
 20
19.728449845686555
 10
-62.385853035375476
 20
10.314896862022579
 10
-59.567201698198915
 20
10.045330278109759
 10
-55.274402796290815
 20
15.961522502824664
  0
LWPOLYLINE
  5
86
330
17
100
AcDbEntity
  8
0
 62
0
100
AcDbPolyline
 90
5
 70
0
 10
-49.37897164002061
 20
22.383663225453347
 10
-47.96804518532008
 20
19.21991757582873
 10
-41.077350521460176
 20
18.499968230258673
 10
-45.3101298850961
 20
27.991205181460828
 10
-49.37897164002061
 20
22.383663225453347
  0
LWPOLYLINE
  5
87
330
17
100
AcDbEntity
  8
0
 62
0
100
AcDbPolyline
 90
5
 70
0
 10
-51.78516160044819
 20
32.68949894513935
 10
-61.22133720153943
 20
33.6754036732018
 10
-61.19133631512523
 20
27.63960894756019
 10
-55.854003354441375
 20
27.08195699006319
 10
-51.78516160044819
 20
32.68949894513935
  0
LWPOLYLINE
  5
88
330
17
100
AcDbEntity
  8
0
 62
0
100
AcDbPolyline
 90
7
 70
0
 10
-75.08538012299687
 20
27.298235074151307
 10
-69.18763792840764
 20
26.87565909465775
 10
-69.23644413473085
 20
36.6948436149396
 10
-69.36171805253252
 20
36.84990922547877
 10
-71.82132799224928
 20
37.47081051208079
 10
-76.5986002269201
 20
30.414348826743662
 10
-75.08538012299687
 20
27.298235074151307
  0
LWPOLYLINE
  5
89
330
17
100
AcDbEntity
  8
0
 62
0
100
AcDbPolyline
 90
5
 70
0
 10
-58.001508723944426
 20
46.521829183679074
 10
-61.31160509958863
 20
41.72838190943003
 10
-53.21653969353065
 20
40.882598236668855
 10
-54.133329833392054
 20
45.96007041353732
 10
-58.001508723944426
 20
46.521829183679074
  0
LWPOLYLINE
  5
8A
330
17
100
AcDbEntity
  8
0
 62
0
100
AcDbPolyline
 90
7
 70
0
 10
-44.36269739829004
 20
38.263436272740364
 10
-39.978620789479464
 20
40.84126894408837
 10
-38.90171068767086
 20
48.07028218684718
 10
-45.000557927880436
 20
49.62585278460756
 10
-46.40591333573684
 20
48.18617239408195
 10
-44.658152668736875
 20
38.50652405200526
 10
-44.36269739829004
 20
38.263436272740364
  0
LWPOLYLINE
  5
8B
330
17
100
AcDbEntity
  8
0
 62
0
100
AcDbPolyline
 90
7
 70
0
 10
-68.80232726689428
 20
44.95966238901019
 10
-64.2417765040882
 20
51.563929196447134
 10
-65.14038587501273
 20
54.762712746392936
 10
-68.49702386651188
 20
55.618856073822826
 10
-74.51974179502577
 20
49.44903678633273
 10
-71.31790920626372
 20
45.59469318669289
 10
-68.80232726689428
 20
44.95966238901019
  0
LWPOLYLINE
  5
8C
330
17
100
AcDbEntity
  8
0
 62
0
100
AcDbPolyline
 90
7
 70
0
 10
-56.73494415683672
 20
54.421813300810754
 10
-52.14874769281596
 20
53.75577996624634
 10
-50.725244749803096
 20
55.214051134418696
 10
-51.6621218752116
 20
58.54905656957999
 10
-55.01875986624509
 20
59.40519989654422
 10
-57.438520731870085
 20
56.926337788347155
 10
-56.73494415683672
 20
54.421813300810754
  0
LWPOLYLINE
  5
8D
330
17
100
AcDbEntity
  8
0
 62
0
100
AcDbPolyline
 90
6
 70
0
 10
-79.06123241968453
 20
56.249330206774175
 10
-74.22171068796888
 20
61.2070544231683
 10
-75.15858781291172
 20
64.5420598583296
 10
-78.51522580394521
 20
65.39820318529382
 10
-80.93498667003587
 20
62.91934107709676
 10
-79.06123241968453
 20
56.249330206774175
  0
LWPOLYLINE
  5
8E
330
17
100
AcDbEntity
  8
0
 62
0
100
AcDbPolyline
 90
7
 70
0
 10
-35.45343417301774
 20
55.446887605357915
 10
-34.68614556128159
 20
56.112736684735864
 10
-33.45940151344985
 20
62.72036820650101
 10
-36.87986538512632
 20
67.96600736957043
 10
-43.960256732068956
 20
60.712681610602885
 10
-43.023379606660455
 20
57.37767617544159
 10
-35.45343417301774
 20
55.446887605357915
  0
LWPOLYLINE
  5
8F
330
17
100
AcDbEntity
  8
0
 62
0
100
AcDbPolyline
 90
7
 70
0
 10
-63.163207553792745
 20
62.51453613722697
 10
-60.74344668816775
 20
64.99339824542403
 10
-61.93829287588596
 20
69.24669723631814
 10
-64.13906207447872
 20
70.10437741270289
 10
-67.45672267023474
 20
66.70568489981815
 10
-66.51984554482624
 20
63.37067946465686
 10
-63.163207553792745
 20
62.51453613722697
  0
LWPOLYLINE
  5
90
330
17
100
AcDbEntity
  8
0
 62
0
100
AcDbPolyline
 90
6
 70
0
 10
-43.09331458900124
 20
73.05350560275838
 10
-47.94352734833956
 20
74.83304433291778
 10
-54.00784935289994
 20
70.59665086027235
 10
-53.04158154455945
 20
67.15702328737825
 10
-49.684943553991616
 20
66.30087996041402
 10
-43.09331458900124
 20
73.05350560275838
  0
LWPOLYLINE
  5
91
330
17
100
AcDbEntity
  8
0
 62
0
100
AcDbPolyline
 90
6
 70
0
 10
-73.1814094921574
 20
72.29388324916363
 10
-69.6936890007928
 20
75.86678927158937
 10
-71.17052092216909
 20
80.49798863753676
 10
-77.5527161876671
 20
76.7619470236823
 10
-76.53804748272523
 20
73.15002657612786
 10
-73.1814094921574
 20
72.29388324916363
  0
LWPOLYLINE
  5
92
330
17
100
AcDbEntity
  8
0
 62
0
100
AcDbPolyline
 90
6
 70
0
 10
-59.16569423256442
 20
76.75221994007006
 10
-53.66988321347162
 20
80.59146493906155
 10
-54.469091886188835
 20
82.15814500534907
 10
-63.584511873777956
 20
83.0408972078003
 10
-61.92162825120613
 20
77.82625804282725
 10
-59.16569423256442
 20
76.75221994007006
  0
LWPOLYLINE
  5
93
330
17
100
AcDbEntity
  8
0
 62
0
100
AcDbPolyline
 90
7
 70
0
 10
-41.59511950518936
 20
81.02528365748003
 10
-39.995219396427274
 20
87.70597558142617
 10
-45.01313353283331
 20
91.79182747658342
 10
-45.9123241584748
 20
91.48588787904009
 10
-47.588487999513745
 20
86.27514124615118
 10
-45.67376780277118
 20
82.521736075636
 10
-41.59511950518936
 20
81.02528365748003
  0
LWPOLYLINE
  5
94
330
17
100
AcDbEntity
  8
0
 62
0
100
AcDbPolyline
 90
6
 70
0
 10
-53.774843845982105
 20
93.16830828320235
 10
-56.789513354655355
 20
95.48349029291421
 10
-59.52245615283027
 20
94.89418741781265
 10
-60.83555615181103
 20
90.8121095020324
 10
-54.72318217018619
 20
90.22017719363794
 10
-53.774843845982105
 20
93.16830828320235
  0
LWPOLYLINE
  5
95
330
17
100
AcDbEntity
  8
0
 62
0
100
AcDbPolyline
 90
6
 70
0
 10
-33.155327800195664
 20
95.13664995227009
 10
-32.76467297784984
 20
101.08256803499535
 10
-38.15533731551841
 20
100.39115716982633
 10
-39.3614666829817
 20
97.50655399588868
 10
-35.10529287997633
 20
94.04095149086788
 10
-33.155327800195664
 20
95.13664995227009
  0
LWPOLYLINE
  5
96
330
17
100
AcDbEntity
  8
0
 62
0
100
AcDbPolyline
 90
6
 70
0
 10
-23.882065762765706
 20
-104.95438574953005
 10
-23.304697362240404
 20
-98.05028220685199
 10
-26.14991979068145
 20
-96.074248470366
 10
-29.283826420549303
 20
-97.55026650475338
 10
-29.572510621044785
 20
-101.00231827562675
 10
-23.882065762765706
 20
-104.95438574953005
  0
LWPOLYLINE
  5
97
330
17
100
AcDbEntity
  8
0
 62
0
100
AcDbPolyline
 90
7
 70
0
 10
-24.706498789601028
 20
-78.8139896132052
 10
-21.410400272347033
 20
-77.26158188981935
 10
-20.428480974864215
 20
-73.34537535579875
 10
-24.328308205120265
 20
-68.38727075606585
 10
-26.90322702843696
 20
-69.08333850372583
 10
-27.551721218042076
 20
-76.83795587625355
 10
-24.706498789601028
 20
-78.8139896132052
  0
LWPOLYLINE
  5
98
330
17
100
AcDbEntity
  8
0
 62
0
100
AcDbPolyline
 90
6
 70
0
 10
0.575998168438673
 20
-75.05375188123435
 10
5.680139941629022
 20
-71.88576785288751
 10
2.8948499192483723
 20
-67.8577835727483
 10
-0.5577845117077231
 20
-68.13941361708567
 10
-2.0402029547840357
 20
-71.27029776666313
 10
0.575998168438673
 20
-75.05375188123435
  0
LWPOLYLINE
  5
99
330
17
100
AcDbEntity
  8
0
 62
0
100
AcDbPolyline
 90
6
 70
0
 10
13.33074485976249
 20
-68.88391654146835
 10
17.307621898595244
 20
-64.08572359522805
 10
14.40997329261154
 20
-59.895250452216715
 10
10.957338861655444
 20
-60.17688049655408
 10
9.474920418579131
 20
-63.30776464659721
 10
13.33074485976249
 20
-68.88391654146835
  0
LWPOLYLINE
  5
9A
330
17
100
AcDbEntity
  8
0
 62
0
100
AcDbPolyline
 90
7
 70
0
 10
-14.255442763213068
 20
-68.25340497447178
 10
-9.270670181605965
 20
-67.84679901879281
 10
-7.788251738995314
 20
-64.71591486921534
 10
-12.034560239873827
 20
-58.575059248134494
 10
-15.079996549058706
 20
-58.05792143428698
 10
-18.039183493703604
 20
-63.4428887097165
 10
-14.255442763213068
 20
-68.25340497447178
  0
LWPOLYLINE
  5
9B
330
17
100
AcDbEntity
  8
0
 62
0
100
AcDbPolyline
 90
7
 70
0
 10
-30.357453998178244
 20
-61.72995489183813
 10
-25.50545564154163
 20
-60.41833312762901
 10
-23.09112766291946
 20
-56.024870531167835
 10
-29.63510299893096
 20
-51.24080668436363
 10
-32.803864046465605
 20
-52.64043285744265
 10
-33.63454414717853
 20
-60.32546257227659
 10
-30.357453998178244
 20
-61.72995489183813
  0
LWPOLYLINE
  5
9C
330
17
100
AcDbEntity
  8
0
 62
0
100
AcDbPolyline
 90
6
 70
0
 10
2.244453191291541
 20
-59.88426589872688
 10
3.7268716343678534
 20
-56.75338174868375
 10
0.8932414762675762
 20
-52.655489737167954
 10
-4.0994077399373055
 20
-55.98471021419391
 10
-1.2081812396645546
 20
-60.16589594306424
 10
2.244453191291541
 20
-59.88426589872688
  0
LWPOLYLINE
  5
9D
330
17
100
AcDbEntity
  8
0
 62
0
100
AcDbPolyline
 90
8
 70
0
 10
6.238881178665906
 20
-46.196310489438474
 10
6.218668018933386
 20
-46.2910507353954
 10
10.306942133698612
 20
-52.203362822532654
 10
13.75957656512037
 20
-51.92173277819529
 10
15.76976307015866
 20
-47.67619664222002
 10
15.131201166193932
 20
-46.52590141026303
 10
7.659645129926503
 20
-45.15478944266215
 10
6.238881178665906
 20
-46.196310489438474
  0
LWPOLYLINE
  5
9E
330
17
100
AcDbEntity
  8
0
 62
0
100
AcDbPolyline
 90
6
 70
0
 10
-10.600214246660471
 20
-50.7041032621637
 10
-2.3299344209954143
 20
-45.189278615638614
 10
-7.453775666188449
 20
-41.44342347374186
 10
-10.622536714188755
 20
-42.84304964682087
 10
-11.45652609365061
 20
-50.558695119805634
 10
-10.600214246660471
 20
-50.7041032621637
  0
LWPOLYLINE
  5
9F
330
17
100
AcDbEntity
  8
0
 62
0
100
AcDbPolyline
 90
6
 70
0
 10
-18.57620790414512
 20
-41.98333190521225
 10
-21.372700249776244
 20
-39.938917425926775
 10
-24.54146129731089
 20
-41.33854359900579
 10
-24.91372999921441
 20
-44.78258425090462
 10
-19.320745308417827
 20
-48.87141320947558
 10
-18.57620790414512
 20
-41.98333190521225
  0
LWPOLYLINE
  5
A0
330
17
100
AcDbEntity
  8
0
 62
0
100
AcDbPolyline
 90
7
 70
0
 10
2.641668408177793
 20
-38.9139901669696
 10
2.8982086116448045
 20
-38.72592794848606
 10
3.605119427666068
 20
-32.18594869459048
 10
0.8086270820349455
 20
-30.141534215305
 10
-2.360133965034038
 20
-31.541160387918353
 10
-2.73240266693756
 20
-34.98520104074851
 10
2.641668408177793
 20
-38.9139901669696
  0
LWPOLYLINE
  5
A1
330
17
100
AcDbEntity
  8
0
 62
0
100
AcDbPolyline
 90
7
 70
0
 10
-13.854834904894233
 20
-35.52510947128758
 10
-10.686073856893927
 20
-34.125483298674226
 10
-10.313805154990405
 20
-30.681442646775395
 10
-13.110297500155866
 20
-28.637028167955577
 10
-16.279058548156172
 20
-30.03665434056893
 10
-16.651327250059694
 20
-33.48069499246776
 10
-13.854834904894233
 20
-35.52510947128758
  0
LWPOLYLINE
  5
A2
330
17
100
AcDbEntity
  8
0
 62
0
100
AcDbPolyline
 90
7
 70
0
 10
-30.57025183318183
 20
-31.976188944652677
 10
-27.773759487550706
 20
-34.02060342440382
 10
-24.60499844001606
 20
-32.6209772513248
 10
-24.23272973811254
 20
-29.17693659896031
 10
-27.029222083278
 20
-27.132522120140493
 10
-30.197983131278306
 20
-28.532148292753845
 10
-30.57025183318183
 20
-31.976188944652677
  0
LWPOLYLINE
  5
A3
330
17
100
AcDbEntity
  8
0
 62
0
100
AcDbPolyline
 90
6
 70
0
 10
8.326492427382618
 20
-25.727726261131465
 10
13.947755643632263
 20
-23.244841939769685
 10
10.302515731193125
 20
-18.295703690033406
 10
5.902268783655018
 20
-20.239271129481494
 10
5.530000081751496
 20
-23.683311781845987
 10
8.326492427382618
 20
-25.727726261131465
  0
LWPOLYLINE
  5
A4
330
17
100
AcDbEntity
  8
0
 62
0
100
AcDbPolyline
 90
7
 70
0
 10
-5.592432155273855
 20
-24.22322021331638
 10
-2.4236711082048714
 20
-22.82359404070303
 10
-2.0514024063013494
 20
-19.379553387872875
 10
-4.847894751001149
 20
-17.335138909053057
 10
-8.016655799001455
 20
-18.73476508213207
 10
-8.388924500904977
 20
-22.178805734030902
 10
-5.592432155273855
 20
-24.22322021331638
  0
LWPOLYLINE
  5
A5
330
17
100
AcDbEntity
  8
0
 62
0
100
AcDbPolyline
 90
7
 70
0
 10
-19.51135673886165
 20
-22.718714165035635
 10
-16.342595690861344
 20
-21.319087992422283
 10
-15.970326988957822
 20
-17.87504734052345
 10
-19.882683825679123
 20
-15.014864662662148
 10
-21.84694917825982
 20
-16.410288226325065
 10
-22.30784908402711
 20
-20.674299686215818
 10
-19.51135673886165
 20
-22.718714165035635
  0
LWPOLYLINE
  5
A6
330
17
100
AcDbEntity
  8
0
 62
0
100
AcDbPolyline
 90
6
 70
0
 10
6.956334417685866
 20
-11.028065131045878
 10
0.6148682185448706
 20
-4.533414996694773
 10
0.5564466705545783
 20
-4.558440068271011
 10
-0.1265217517502606
 20
-10.876916476059705
 10
2.6699705929495394
 20
-12.921330954879522
 10
6.956334417685866
 20
-11.028065131045878
  0
LWPOLYLINE
  5
A7
330
17
100
AcDbEntity
  8
0
 62
0
100
AcDbPolyline
 90
7
 70
0
 10
-15.660494714044034
 20
-8.191706930752844
 10
-11.248953989706933
 20
-11.416824906598777
 10
-8.080192941706628
 20
-10.017198733985424
 10
-7.470942920073867
 20
-4.380727468058467
 10
-8.278182970825583
 20
-4.055150683969259
 10
-15.634164283052087
 20
-7.902225397527218
 10
-15.660494714044034
 20
-8.191706930752844
  0
LWPOLYLINE
  5
A8
330
17
100
AcDbEntity
  8
0
 62
0
100
AcDbPolyline
 90
8
 70
0
 10
-33.91185154160485
 20
-0.5837556286714971
 10
-31.874458071310073
 20
-7.2412112625315785
 10
-26.135500567499548
 20
-9.643680199980736
 10
-23.666017646435648
 20
-7.889347643125802
 10
-23.552216864656657
 20
-6.638201221358031
 10
-30.34435877762735
 20
1.6407529395073652
 10
-31.933687262702733
 20
2.0234280033037066
 10
-33.91185154160485
 20
-0.5837556286714971
  0
LWPOLYLINE
  5
A9
330
17
100
AcDbEntity
  8
0
 62
0
100
AcDbPolyline
 90
6
 70
0
 10
14.412782066036016
 20
-3.5633443943224847
 10
13.815569004509598
 20
3.3822691654786468
 10
7.81573870498687
 20
2.833771753590554
 10
6.5863341595977545
 20
0.8020431562326849
 10
12.451620806474239
 20
-5.204924871679395
 10
14.412782066036016
 20
-3.5633443943224847
  0
LWPOLYLINE
  5
AA
330
17
100
AcDbEntity
  8
0
 62
0
100
AcDbPolyline
 90
5
 70
0
 10
-13.540989935863763
 20
2.22048252960667
 10
-15.47670650202781
 20
7.104384223464876
 10
-21.844013955444098
 20
3.8926043803803623
 10
-18.391158529091626
 20
-0.3160873940214515
 10
-13.540989935863763
 20
2.22048252960667
  0
LWPOLYLINE
  5
AB
330
17
100
AcDbEntity
  8
0
 62
0
100
AcDbPolyline
 90
7
 70
0
 10
-5.408418368548155
 20
3.413579043932259
 10
-3.215209308080375
 20
2.5290119904093444
 10
-1.1958499168977141
 20
3.3940115603618324
 10
0.8272326774895191
 20
6.737381957005709
 10
-2.4503292073495686
 20
12.751164005603641
 10
-7.795829899609089
 20
9.437127856072038
 10
-5.408418368548155
 20
3.413579043932259
  0
LWPOLYLINE
  5
AC
330
17
100
AcDbEntity
  8
0
 62
0
100
AcDbPolyline
 90
6
 70
0
 10
-20.14215306378901
 20
13.711183769628406
 10
-22.854009631089866
 20
20.836834126152098
 10
-31.52422043820843
 20
13.553978574927896
 10
-30.389656079467386
 20
9.880288430023938
 10
-28.593989204149693
 20
9.447931656613946
 10
-20.14215306378901
 20
13.711183769628406
  0
LWPOLYLINE
  5
AD
330
17
100
AcDbEntity
  8
0
 62
0
100
AcDbPolyline
 90
7
 70
0
 10
4.831234696786851
 20
16.10786217544228
 10
7.693564135581255
 20
10.855962745379657
 10
12.031526386737823
 20
11.2525341399014
 10
13.061106565408409
 20
18.183945363853127
 10
11.877319763880223
 20
19.792000086512417
 10
8.665788137353957
 20
19.981065653730184
 10
4.831234696786851
 20
16.10786217544228
  0
LWPOLYLINE
  5
AE
330
17
100
AcDbEntity
  8
0
 62
0
100
AcDbPolyline
 90
5
 70
0
 10
-8.327580408193171
 20
18.520164732821286
 10
-12.561056535691023
 20
25.17111970251426
 10
-15.940391094889492
 20
25.16224870318547
 10
-12.441831121686846
 20
15.96946342755109
 10
-8.327580408193171
 20
18.520164732821286
  0
LWPOLYLINE
  5
AF
330
17
100
AcDbEntity
  8
0
 62
0
100
AcDbPolyline
 90
5
 70
0
 10
-1.0469719027169049
 20
32.07974911434576
 10
-5.160466689616442
 20
28.44290943723172
 10
-0.8768232124857605
 20
21.713139617815614
 10
2.2931407797150314
 20
24.915054977871478
 10
-1.0469719027169049
 20
32.07974911434576
  0
LWPOLYLINE
  5
B0
330
17
100
AcDbEntity
  8
0
 62
0
100
AcDbPolyline
 90
6
 70
0
 10
-25.116129942703992
 20
29.38450238853693
 10
-25.141403985209763
 20
29.434618656523526
 10
-35.99008860858157
 20
33.90602939436212
 10
-38.523991459514946
 20
32.41609704680741
 10
-33.88654787093401
 20
22.017474259715527
 10
-25.116129942703992
 20
29.38450238853693
  0
LWPOLYLINE
  5
B1
330
17
100
AcDbEntity
  8
0
 62
0
100
AcDbPolyline
 90
6
 70
0
 10
14.086983704473823
 20
32.217799158301204
 10
10.155746444128454
 20
38.656741687096655
 10
5.872878378257155
 20
36.16987315705046
 10
9.712698253337294
 20
27.93328428827226
 10
11.688158001285046
 20
27.81698731146753
 10
14.086983704473823
 20
32.217799158301204
  0
LWPOLYLINE
  5
B2
330
17
100
AcDbEntity
  8
0
 62
0
100
AcDbPolyline
 90
6
 70
0
 10
-17.784904923290014
 20
33.1574342851527
 10
-11.888424603734165
 20
33.17291297437623
 10
-6.0989449843764305
 20
38.29153115209192
 10
-11.66252727387473
 20
44.79277371568605
 10
-14.038835055194795
 20
43.69840198662132
 10
-17.784904923290014
 20
33.1574342851527
  0
LWPOLYLINE
  5
B3
330
17
100
AcDbEntity
  8
0
 62
0
100
AcDbPolyline
 90
6
 70
0
 10
-24.602026870008558
 20
37.86517688957974
 10
-22.163763237651438
 20
44.726142942905426
 10
-30.46917785424739
 20
49.179921933449805
 10
-30.67469345079735
 20
49.00157656427473
 10
-31.886427354533225
 20
40.86752672959119
 10
-24.602026870008558
 20
37.86517688957974
  0
LWPOLYLINE
  5
B4
330
17
100
AcDbEntity
  8
0
 62
0
100
AcDbPolyline
 90
7
 70
0
 10
0.8336257017217577
 20
42.49465751182288
 10
8.272292886860669
 20
46.813956413418055
 10
7.243864734657109
 20
52.07412251830101
 10
7.099913881160319
 20
52.23595003783703
 10
-5.552422805689275
 20
52.195697295013815
 10
-6.085028021130711
 20
50.5793489436619
 10
0.8336257017217577
 20
42.49465751182288
  0
LWPOLYLINE
  5
B5
330
17
100
AcDbEntity
  8
0
 62
0
100
AcDbPolyline
 90
8
 70
0
 10
-26.542198517359793
 20
56.151749663520604
 10
-17.1078891181387
 20
51.09260079078376
 10
-13.843678873497993
 20
52.5958822411485
 10
-12.672646976541728
 20
56.149725541006774
 10
-13.899915375746787
 20
59.6669622217305
 10
-15.220960390754044
 20
60.66128300316632
 10
-25.861398589797318
 20
59.81875344598666
 10
-26.542198517359793
 20
56.151749663520604
  0
LWPOLYLINE
  5
B6
330
17
100
AcDbEntity
  8
0
 62
0
100
AcDbPolyline
 90
6
 70
0
 10
4.8061863468028605
 20
60.228693150449544
 10
4.706092268228531
 20
65.02685450902209
 10
1.8901184974238276
 20
67.1321633355692
 10
-5.825753167271614
 20
60.81006101379171
 10
-5.6113321403972805
 20
60.19555036397651
 10
4.8061863468028605
 20
60.228693150449544
  0
LWPOLYLINE
  5
B7
330
17
100
AcDbEntity
  8
0
 62
0
100
AcDbPolyline
 90
6
 70
0
 10
-27.181540719699115
 20
67.73926202580333
 10
-18.136495301965624
 20
68.45546543505043
 10
-18.308417787775397
 20
74.2918735765852
 10
-21.358115795999765
 20
75.93484103260562
 10
-29.320516925305128
 20
71.01960579678416
 10
-27.181540719699115
 20
67.73926202580333
  0
LWPOLYLINE
  5
B8
330
17
100
AcDbEntity
  8
0
 62
0
100
AcDbPolyline
 90
6
 70
0
 10
-10.109090361278504
 20
67.64292716607451
 10
-2.554929622448981
 20
73.83252948429435
 10
-2.978693334851414
 20
76.33116686437279
 10
-5.049368905834854
 20
77.77600837917998
 10
-10.311886366456747
 20
74.52742659719661
 10
-10.109090361278504
 20
67.64292716607451
  0
LWPOLYLINE
  5
B9
330
17
100
AcDbEntity
  8
0
 62
0
100
AcDbPolyline
 90
6
 70
0
 10
16.08763215970248
 20
75.69599733687937
 10
10.164814330637455
 20
79.29046933818609
 10
5.104436568915844
 20
76.5145905232057
 10
5.453441604506224
 20
74.45675262389705
 10
8.997817841358483
 20
71.80686765257269
 10
16.08763215970248
 20
75.69599733687937
  0
LWPOLYLINE
  5
BA
330
17
100
AcDbEntity
  8
0
 62
0
100
AcDbPolyline
 90
6
 70
0
 10
-25.560376405715942
 20
82.7422638759017
 10
-25.66237385524437
 20
86.20486355246976
 10
-29.265442226547748
 20
88.14594888594002
 10
-32.03654344333336
 20
86.58884851960465
 10
-34.24101363681257
 20
77.38365743402392
 10
-25.560376405715942
 20
82.7422638759017
  0
LWPOLYLINE
  5
BB
330
17
100
AcDbEntity
  8
0
 62
0
100
AcDbPolyline
 90
15
 70
0
 10
-16.92314112161292
 20
84.21963871193549
 10
-16.98073890668879
 20
84.60793143868176
 10
-17.0
 20
85.0
 10
-17.0
 20
86.85144487163531
 10
-17.665842433925718
 20
86.4404165726155
 10
-17.563844984397292
 20
82.97781689604744
 10
-15.430352475562575
 20
81.82843792467851
 10
-15.537573136654583
 20
81.90795818654905
 10
-15.828427124746192
 20
82.17157287525382
 10
-16.092041813450948
 20
82.46242686334541
 10
-16.325878449210183
 20
82.7777190679216
 10
-16.52768505739342
 20
83.11441305269601
 10
-16.695518130045148
 20
83.46926627053963
 10
-16.827761342928834
 20
83.83886129098215
 10
-16.92314112161292
 20
84.21963871193549
  0
LWPOLYLINE
  5
BC
330
17
100
AcDbEntity
  8
0
 62
0
100
AcDbPolyline
 90
13
 70
0
 10
-1.0139882760343535
 20
84.71526210005334
 10
0.9376468430273235
 20
83.35348264873028
 10
1.2789254713197749
 20
83.54069161986381
 10
1.1722386570711643
 20
83.83886129098215
 10
1.0768588783870783
 20
84.21963871193549
 10
1.0192610933112123
 20
84.60793143868176
 10
1.0
 20
85.0
 10
1.0
 20
89.8
 10
1.0192610933112127
 20
90.19206856131824
 10
1.0272747051899593
 20
90.24609194439428
 10
-1.0
 20
89.1340269620692
 10
-1.0
 20
85.0
 10
-1.0139882760343535
 20
84.71526210005334
  0
LWPOLYLINE
  5
BD
330
17
100
AcDbEntity
  8
0
 62
0
100
AcDbPolyline
 90
6
 70
0
 10
-21.868103044107556
 20
93.24783941591159
 10
-16.375196147710085
 20
96.63864189945161
 10
-16.45705428533256
 20
97.05382207175717
 10
-24.864530036691576
 20
99.30018244450912
 10
-25.14614947186783
 20
95.01382528897375
 10
-21.868103044107556
 20
93.24783941591159
  0
LWPOLYLINE
  5
BE
330
17
100
AcDbEntity
  8
0
 62
0
100
AcDbPolyline
 90
7
 70
0
 10
51.528302556835115
 20
-104.11016248399392
 10
53.93687879247591
 20
-98.63744771573693
 10
51.88874622248113
 20
-95.8436773288995
 10
45.84462310420349
 20
-96.50512573309243
 10
43.00913416547701
 20
-99.862689841073
 10
43.0377875007689
 20
-99.94486358761787
 10
51.528302556835115
 20
-104.11016248399392
  0
LWPOLYLINE
  5
BF
330
17
100
AcDbEntity
  8
0
 62
0
100
AcDbPolyline
 90
6
 70
0
 10
39.57025839528069
 20
-91.53565537184477
 10
38.61657745856792
 20
-85.81740767043084
 10
33.8258016477339
 20
-84.71534999134019
 10
32.62455077376217
 20
-92.49109096778557
 10
37.25993490871042
 20
-94.27135964902118
 10
39.57025839528069
 20
-91.53565537184477
  0
LWPOLYLINE
  5
C0
330
17
100
AcDbEntity
  8
0
 62
0
100
AcDbPolyline
 90
6
 70
0
 10
23.146917187143117
 20
-92.39996617799625
 10
24.611482680775225
 20
-91.96137689426541
 10
25.88668817654252
 20
-83.70692493766546
 10
20.021968403365463
 20
-82.37052282923833
 10
18.72804098110646
 20
-90.74616250395775
 10
23.146917187143117
 20
-92.39996617799625
  0
LWPOLYLINE
  5
C1
330
17
100
AcDbEntity
  8
0
 62
0
100
AcDbPolyline
 90
6
 70
0
 10
47.14365302491933
 20
-88.31520137516782
 10
51.01844925340265
 20
-87.89115677308291
 10
52.413859096355736
 20
-84.72053674375638
 10
49.39115817239508
 20
-80.59739918168634
 10
46.391920077614486
 20
-83.80782890552655
 10
47.14365302491933
 20
-88.31520137516782
  0
LWPOLYLINE
  5
C2
330
17
100
AcDbEntity
  8
0
 62
0
100
AcDbPolyline
 90
6
 70
0
 10
43.23675360158086
 20
-75.46635867049918
 10
39.71860579960048
 20
-72.45616600429639
 10
36.45217368891463
 20
-73.60960489138961
 10
35.82688080659136
 20
-76.96673272363842
 10
40.77228680066764
 20
-78.10436112992465
 10
43.23675360158086
 20
-75.46635867049918
  0
LWPOLYLINE
  5
C3
330
17
100
AcDbEntity
  8
0
 62
0
100
AcDbPolyline
 90
5
 70
0
 10
24.159111112356186
 20
-68.35577724454924
 10
19.451612441334873
 20
-74.03548187110573
 10
27.87763968622312
 20
-75.95553278829902
 10
28.587432963307947
 20
-72.14473174884915
 10
24.159111112356186
 20
-68.35577724454924
  0
LWPOLYLINE
  5
C4
330
17
100
AcDbEntity
  8
0
 62
0
100
AcDbPolyline
 90
7
 70
0
 10
49.431113647762686
 20
-70.2376778125763
 10
54.93482425250113
 20
-64.50646843202412
 10
48.149623547680676
 20
-56.95323840435594
 10
48.072832816280425
 20
-56.938935494050384
 10
46.477063331287354
 20
-58.01565537415445
 10
44.919593517202884
 20
-66.37753731384873
 10
49.431113647762686
 20
-70.2376778125763
  0
LWPOLYLINE
  5
C5
330
17
100
AcDbEntity
  8
0
 62
0
100
AcDbPolyline
 90
6
 70
0
 10
33.78842068091035
 20
-66.0661030584015
 10
37.054852791596204
 20
-64.91266417130828
 10
38.12086438015103
 20
-59.189366698265076
 10
34.48376447800547
 20
-58.83053702209145
 10
30.874079634435475
 20
-63.572538677603006
 10
33.78842068091035
 20
-66.0661030584015
  0
LWPOLYLINE
  5
C6
330
17
100
AcDbEntity
  8
0
 62
0
100
AcDbPolyline
 90
6
 70
0
 10
23.8901663008146
 20
-59.53928233683109
 10
27.712620235979557
 20
-54.51776836114004
 10
26.136336247902364
 20
-52.238204267807305
 10
22.65230320394039
 20
-51.834521260112524
 10
20.9900437919423
 20
-55.34523152606562
 10
23.8901663008146
 20
-59.53928233683109
  0
LWPOLYLINE
  5
C7
330
17
100
AcDbEntity
  8
0
 62
0
100
AcDbPolyline
 90
7
 70
0
 10
41.809274120256305
 20
-51.51441904110834
 10
42.41626144340262
 20
-51.10486407438293
 10
39.90090573718771
 20
-43.76946703856811
 10
35.68013448826969
 20
-44.113753703888506
 10
33.15370768494904
 20
-48.32059391960502
 10
34.89016313524917
 20
-50.8317921073176
 10
41.809274120256305
 20
-51.51441904110834
  0
LWPOLYLINE
  5
C8
330
17
100
AcDbEntity
  8
0
 62
0
100
AcDbPolyline
 90
7
 70
0
 10
49.89414009777829
 20
-48.24871448613703
 10
57.69856316410005
 20
-41.457883533556014
 10
57.35874029062688
 20
-36.31413973169401
 10
50.372729756869376
 20
-34.864796799607575
 10
48.77568000834435
 20
-35.87121353903785
 10
46.98044565320015
 20
-39.75166353629902
 10
49.89414009777829
 20
-48.24871448613703
  0
LWPOLYLINE
  5
C9
330
17
100
AcDbEntity
  8
0
 62
0
100
AcDbPolyline
 90
6
 70
0
 10
28.344208816066384
 20
-40.79036083351821
 10
25.14334094291553
 20
-37.286011829506606
 10
22.25043849600479
 20
-42.86769386334345
 10
22.76466839388013
 20
-43.79401940200478
 10
26.294720432255417
 20
-44.2030344735831
 10
28.344208816066384
 20
-40.79036083351821
  0
LWPOLYLINE
  5
CA
330
17
100
AcDbEntity
  8
0
 62
0
100
AcDbPolyline
 90
6
 70
0
 10
15.522139196284115
 20
-38.46405318612233
 10
18.326218948699534
 20
-33.0537492223084
 10
16.51350901974365
 20
-30.857191681396216
 10
11.558790617622435
 20
-33.04566643573344
 10
11.061592101119459
 20
-37.645494177471846
 10
15.522139196284115
 20
-38.46405318612233
  0
LWPOLYLINE
  5
CB
330
17
100
AcDbEntity
  8
0
 62
0
100
AcDbPolyline
 90
6
 70
0
 10
34.93848775001243
 20
-36.14767925767228
 10
40.02508137188852
 20
-35.73276779893786
 10
40.551112678833306
 20
-34.59573620278388
 10
34.75661444151774
 20
-30.861608978826553
 10
32.168048554100096
 20
-33.1145687950775
 10
34.93848775001243
 20
-36.14767925767228
  0
LWPOLYLINE
  5
CC
330
17
100
AcDbEntity
  8
0
 62
0
100
AcDbPolyline
 90
7
 70
0
 10
25.084359739907086
 20
-28.674172021448612
 10
30.237901754677296
 20
-24.18878374993801
 10
30.08982576848939
 20
-22.46665366459638
 10
27.777638183906674
 20
-21.384256593883038
 10
21.849776638206095
 20
-24.663266053423285
 10
21.84042981080711
 20
-24.74332868307829
 10
25.084359739907086
 20
-28.674172021448612
  0
LWPOLYLINE
  5
CD
330
17
100
AcDbEntity
  8
0
 62
0
100
AcDbPolyline
 90
6
 70
0
 10
44.84390939865261
 20
-21.763539892155677
 10
41.08231659652665
 20
-19.672068716026843
 10
38.06041561206803
 20
-21.78130883257836
 10
38.21444388059899
 20
-23.57266421429813
 10
45.386447770521045
 20
-28.194492348469794
 10
44.84390939865261
 20
-21.763539892155677
  0
LWPOLYLINE
  5
CE
330
17
100
AcDbEntity
  8
0
 62
0
100
AcDbPolyline
 90
6
 70
0
 10
23.339326065033674
 20
-14.696969383396208
 10
22.889416894409806
 20
-10.879542727023363
 10
19.453324559610337
 20
-9.776883895974606
 10
16.05744658410549
 20
-12.619387011043727
 10
19.252656229771674
 20
-16.957519658841193
 10
23.339326065033674
 20
-14.696969383396208
  0
LWPOLYLINE
  5
CF
330
17
100
AcDbEntity
  8
0
 62
0
100
AcDbPolyline
 90
7
 70
0
 10
31.338231610599905
 20
-14.2178821885027
 10
33.481594655197114
 20
-15.221247960813344
 10
36.71693418454379
 20
-12.963031043298542
 10
36.543561555910856
 20
-10.029749033972621
 10
32.88806862011552
 20
-8.318514672107995
 10
30.813601882196963
 20
-9.766460348386317
 10
31.338231610599905
 20
-14.2178821885027
  0
LWPOLYLINE
  5
D0
330
17
100
AcDbEntity
  8
0
 62
0
100
AcDbPolyline
 90
7
 70
0
 10
44.705487590283155
 20
-12.533151495736092
 10
48.28398189879954
 20
-14.522818664088845
 10
51.2782789086923
 20
-12.196482079103589
 10
50.80548475822434
 20
-8.764796532224864
 10
47.18271207250655
 20
-7.289646944031119
 10
44.51515195751563
 20
-9.312873350456357
 10
44.705487590283155
 20
-12.533151495736092
  0
LWPOLYLINE
  5
D1
330
17
100
AcDbEntity
  8
0
 62
0
100
AcDbPolyline
 90
6
 70
0
 10
28.309247663244605
 20
-1.758453800342977
 10
27.89494889555499
 20
3.059858668129891
 10
21.934341840911657
 20
2.3442394277080894
 10
22.333617691416293
 20
-2.299355870578438
 10
25.896315585821867
 20
-3.4426430449821055
 10
28.309247663244605
 20
-1.758453800342977
  0
LWPOLYLINE
  5
D2
330
17
100
AcDbEntity
  8
0
 62
0
100
AcDbPolyline
 90
7
 70
0
 10
39.903851548209786
 20
-2.7696072147227824
 10
42.41494895005599
 20
-0.8650508583523333
 10
42.15260315639898
 20
2.3347842688672245
 10
37.54271626658738
 20
5.808525360189378
 10
35.72247671755031
 20
5.409020958468318
 10
36.27983750682324
 20
-1.0731089683249593
 10
39.903851548209786
 20
-2.7696072147227824
  0
LWPOLYLINE
  5
D3
330
17
100
AcDbEntity
  8
0
 62
0
100
AcDbPolyline
 90
6
 70
0
 10
51.0123261581175
 20
12.037780828308314
 10
49.15916484268382
 20
15.07305914349854
 10
45.6961058373563
 20
14.988074900582433
 10
43.64579090056941
 20
11.226630185730755
 10
46.26804571505636
 20
9.250652354210615
 10
51.0123261581175
 20
12.037780828308314
  0
LWPOLYLINE
  5
D4
330
17
100
AcDbEntity
  8
0
 62
0
100
AcDbPolyline
 90
5
 70
0
 10
27.235291195567697
 20
11.038110934197903
 10
25.232445314526558
 20
15.617978400085121
 10
20.73458739835769
 20
15.394818687345833
 10
19.957665775436908
 20
10.164372952654958
 10
27.235291195567697
 20
11.038110934197903
  0
LWPOLYLINE
  5
D5
330
17
100
AcDbEntity
  8
0
 62
0
100
AcDbPolyline
 90
7
 70
0
 10
32.24157047923654
 20
19.556572193745524
 10
34.923411215655506
 20
13.424060823395848
 10
35.842208608519286
 20
13.625717579387128
 10
38.671856474131346
 20
18.816902513150126
 10
36.86672845808789
 20
21.77350746607408
 10
33.40366945229471
 20
21.688523223157972
 10
32.24157047923654
 20
19.556572193745524
  0
LWPOLYLINE
  5
D6
330
17
100
AcDbEntity
  8
0
 62
0
100
AcDbPolyline
 90
7
 70
0
 10
19.2075621150434
 20
23.32889624685049
 10
25.352713143918663
 20
23.633785855490714
 10
26.379420089069754
 20
25.517350835725665
 10
24.5742920730263
 20
28.47395578864962
 10
21.111233067233115
 20
28.38897154526785
 10
18.716589751653373
 20
23.99583257874474
 10
19.2075621150434
 20
23.32889624685049
  0
LWPOLYLINE
  5
D7
330
17
100
AcDbEntity
  8
0
 62
0
100
AcDbPolyline
 90
7
 70
0
 10
43.694715118967
 20
25.9422720503062
 10
45.49984313501045
 20
22.985667097382247
 10
48.962902140803635
 20
23.070651340298355
 10
50.620833130553365
 20
26.112240535672754
 10
48.81570511450991
 20
29.068845488596708
 10
45.352646108716726
 20
28.9838612456806
 10
43.694715118967
 20
25.9422720503062
  0
LWPOLYLINE
  5
D8
330
17
100
AcDbEntity
  8
0
 62
0
100
AcDbPolyline
 90
7
 70
0
 10
31.402278733905405
 20
32.64272037241608
 10
33.20740674994886
 20
29.686115419957787
 10
36.670465756207705
 20
29.771099662873894
 10
38.328396745957434
 20
32.812688858713955
 10
36.52326872944832
 20
35.76929381117225
 10
33.060209723655134
 20
35.68430956779048
 10
31.402278733905405
 20
32.64272037241608
  0
LWPOLYLINE
  5
D9
330
17
100
AcDbEntity
  8
0
 62
0
100
AcDbPolyline
 90
6
 70
0
 10
24.378029371146113
 20
36.47154798544943
 10
26.035960360895842
 20
39.51313718082383
 10
24.230832344386727
 20
42.469742133747786
 10
17.304714332334697
 20
42.29977364791557
 10
20.91497036535293
 20
36.386563742067665
 10
24.378029371146113
 20
36.47154798544943
  0
LWPOLYLINE
  5
DA
330
17
100
AcDbEntity
  8
0
 62
0
100
AcDbPolyline
 90
7
 70
0
 10
43.351255390327424
 20
39.93805839493871
 10
45.15638340683654
 20
36.981453442480415
 10
48.61944241262972
 20
37.06643768539652
 10
50.27737340237945
 20
40.10802688123658
 10
48.47224538587034
 20
43.064631833694875
 10
45.00918638007715
 20
42.97964759031311
 10
43.351255390327424
 20
39.93805839493871
  0
LWPOLYLINE
  5
DB
330
17
100
AcDbEntity
  8
0
 62
0
100
AcDbPolyline
 90
7
 70
0
 10
31.058819005265832
 20
46.63850671751425
 10
32.86394702177495
 20
43.68190176459029
 10
36.32700602756813
 20
43.76688600797206
 10
37.98493701731786
 20
46.80847520334646
 10
36.17980900127441
 20
49.765080156270415
 10
32.71674999501556
 20
49.680095912888646
 10
31.058819005265832
 20
46.63850671751425
  0
LWPOLYLINE
  5
DC
330
17
100
AcDbEntity
  8
0
 62
0
100
AcDbPolyline
 90
6
 70
0
 10
24.03456964250654
 20
50.4673343305476
 10
25.69250063225627
 20
53.508923525922
 10
23.97170546045527
 20
56.32740037702024
 10
15.452897539362311
 20
51.77968526119366
 10
15.749230925925076
 20
50.26401026453823
 10
24.03456964250654
 20
50.4673343305476
  0
LWPOLYLINE
  5
DD
330
17
100
AcDbEntity
  8
0
 62
0
100
AcDbPolyline
 90
7
 70
0
 10
44.81292367819697
 20
50.97723978711292
 10
48.27598268399015
 20
51.06222403049469
 10
49.93391367373988
 20
54.10381322586909
 10
48.128785657696426
 20
57.06041817879304
 10
44.66572665190324
 20
56.975433935411274
 10
43.00779566215351
 20
53.933844740502536
 10
44.81292367819697
 20
50.97723978711292
  0
LWPOLYLINE
  5
DE
330
17
100
AcDbEntity
  8
0
 62
0
100
AcDbPolyline
 90
7
 70
0
 10
32.520487293135375
 20
57.67768810968846
 10
35.98354629892856
 20
57.76267235307023
 10
37.64147728867829
 20
60.80426154797897
 10
35.836349272634834
 20
63.76086650090292
 10
29.794356927275658
 20
63.61259465664625
 10
29.605034042149782
 20
62.45288601424545
 10
32.520487293135375
 20
57.67768810968846
  0
LWPOLYLINE
  5
DF
330
17
100
AcDbEntity
  8
0
 62
0
100
AcDbPolyline
 90
6
 70
0
 10
12.824275410734117
 20
59.44500108528882
 10
21.78940736176446
 20
64.23098363913596
 10
22.18229879066348
 20
66.63766355672851
 10
20.6012469031848
 20
69.04735666373745
 10
12.714215036015958
 20
64.72091193916276
 10
12.824275410734117
 20
59.44500108528882
  0
LWPOLYLINE
  5
E0
330
17
100
AcDbEntity
  8
0
 62
0
100
AcDbPolyline
 90
7
 70
0
 10
42.66433593351394
 20
67.92963108513504
 10
44.469463949557394
 20
64.97302613221109
 10
47.93252295581624
 20
65.05801037559286
 10
49.59045394556597
 20
68.09959957096726
 10
47.78532592905685
 20
71.05620452342555
 10
44.32226692326367
 20
70.97122028050944
 10
42.66433593351394
 20
67.92963108513504
  0
LWPOLYLINE
  5
E1
330
17
100
AcDbEntity
  8
0
 62
0
100
AcDbPolyline
 90
7
 70
0
 10
28.505575911141932
 20
71.58337620971724
 10
35.64008657075465
 20
71.75845869770274
 10
37.29801756050438
 20
74.8000478935428
 10
35.58289977442473
 20
77.60922579932958
 10
26.38654935033992
 20
75.81968847475946
 10
26.024975469801575
 20
75.36407805327326
 10
28.505575911141932
 20
71.58337620971724
  0
LWPOLYLINE
  5
E2
330
17
100
AcDbEntity
  8
0
 62
0
100
AcDbPolyline
 90
7
 70
0
 10
44.12600422138348
 20
78.96881247730926
 10
47.589063227176666
 20
79.05379672022536
 10
51.62644725246355
 20
86.46065726270899
 10
48.79249382484704
 20
89.11981016723439
 10
43.710898539982736
 20
87.03114946465939
 10
41.98297301447019
 20
82.47886640299112
 10
44.12600422138348
 20
78.96881247730926
  0
LWPOLYLINE
  5
E3
330
17
100
AcDbEntity
  8
0
 62
0
100
AcDbPolyline
 90
11
 70
0
 10
20.389666066039354
 20
89.4616249743849
 10
17.42825715104118
 20
91.25886097503826
 10
16.834738285395847
 20
90.93328519336303
 10
16.92314112161292
 20
90.58036128806451
 10
16.98073890668879
 20
90.19206856131824
 10
17.0
 20
89.8
 10
17.0
 20
85.0
 10
16.98073890668879
 20
84.60793143868176
 10
16.9676794832337
 20
84.51989195701712
 10
20.23817091435194
 20
82.53507827222347
 10
20.389666066039354
 20
89.4616249743849
  0
LWPOLYLINE
  5
E4
330
17
100
AcDbEntity
  8
0
 62
0
100
AcDbPolyline
 90
6
 70
0
 10
28.2795193195343
 20
84.3381025660783
 10
34.59850341640413
 20
85.56772707728669
 10
35.665626366622746
 20
88.37910155998543
 10
31.424909762572497
 20
90.95273079164326
 10
28.387753271963447
 20
89.2866934412159
 10
28.2795193195343
 20
84.3381025660783
  0
LWPOLYLINE
  5
E5
330
17
100
AcDbEntity
  8
0
 62
0
100
AcDbPolyline
 90
6
 70
0
 10
40.93459150381386
 20
94.53942578984424
 10
43.16823714831844
 20
95.4575091120787
 10
38.872745255474
 20
103.02227134257555
 10
35.65119609283283
 20
101.25508507853374
 10
35.57544851722196
 20
97.79181172698736
 10
40.93459150381386
 20
94.53942578984424
  0
LWPOLYLINE
  5
E6
330
17
100
AcDbEntity
  8
0
 62
0
100
AcDbPolyline
 90
7
 70
0
 10
24.540204821154475
 20
96.30070591019467
 10
27.577361311297864
 20
97.96674326062202
 10
27.65310888690874
 20
101.4300166121684
 10
24.69169997284189
 20
103.2272526123561
 10
21.65454348223284
 20
101.56121526192874
 10
21.5787959061563
 20
98.09794191084802
 10
24.540204821154475
 20
96.30070591019467
  0
LWPOLYLINE
  5
E7
330
17
100
AcDbEntity
  8
0
 62
0
100
AcDbPolyline
 90
7
 70
0
 10
79.75550607452169
 20
-98.85183699335903
 10
81.3452781108208
 20
-97.26218960108235
 10
78.93431336292997
 20
-92.88390187779441
 10
72.55000069784
 20
-93.58257947629318
 10
71.15459085535258
 20
-96.75319950515404
 10
72.39631818514317
 20
-98.44698685780168
 10
79.75550607452169
 20
-98.85183699335903
  0
LWPOLYLINE
  5
E8
330
17
100
AcDbEntity
  8
0
 62
0
100
AcDbPolyline
 90
7
 70
0
 10
60.38881513290107
 20
-93.90748815378174
 10
63.832357545383275
 20
-93.5306385117583
 10
65.22776738833636
 20
-90.36001848243177
 10
63.17963481834158
 20
-87.56624809559435
 10
59.73609240585938
 20
-87.94309773761779
 10
58.340682562906295
 20
-91.11371776694432
 10
60.38881513290107
 20
-93.90748815378174
  0
LWPOLYLINE
  5
E9
330
17
100
AcDbEntity
  8
0
 62
0
100
AcDbPolyline
 90
7
 70
0
 10
89.5252838190645
 20
-94.39989213645458
 10
94.64811000507325
 20
-87.66561270132661
 10
93.30909333983436
 20
-84.47076773364097
 10
86.60207455977798
 20
-83.61626972816885
 10
85.4263053657487
 20
-88.08834769111127
 10
88.84646118525416
 20
-94.29931624606252
 10
89.5252838190645
 20
-94.39989213645458
  0
LWPOLYLINE
  5
EA
330
17
100
AcDbEntity
  8
0
 62
0
100
AcDbPolyline
 90
7
 70
0
 10
69.63157115876675
 20
-82.83628853363916
 10
71.67970372876152
 20
-85.63005892047659
 10
77.9820825890638
 20
-84.9403478805907
 10
79.37733825994655
 20
-79.63344566663727
 10
78.08444826444611
 20
-78.8933231420815
 10
71.02698100171983
 20
-79.66566850384697
 10
69.63157115876675
 20
-82.83628853363916
  0
LWPOLYLINE
  5
EB
330
17
100
AcDbEntity
  8
0
 62
0
100
AcDbPolyline
 90
6
 70
0
 10
58.8657954367809
 20
-79.9905771818012
 10
62.3093378492631
 20
-79.61372753977776
 10
63.704747691750526
 20
-76.44310751045123
 10
59.747320578899235
 20
-71.04494977323338
 10
55.52843467798084
 20
-75.43822554405779
 10
58.8657954367809
 20
-79.9905771818012
  0
LWPOLYLINE
  5
EC
330
17
100
AcDbEntity
  8
0
 62
0
100
AcDbPolyline
 90
6
 70
0
 10
96.41745778406039
 20
-73.77786960080266
 10
95.07844111835584
 20
-70.58302463265136
 10
92.26260685967281
 20
-70.22427735058591
 10
88.25462447851896
 20
-75.7621451462619
 10
94.3201492135413
 20
-76.53491453267634
 10
96.41745778406039
 20
-73.77786960080266
  0
LWPOLYLINE
  5
ED
330
17
100
AcDbEntity
  8
0
 62
0
100
AcDbPolyline
 90
6
 70
0
 10
73.96729182172567
 20
-71.29612791212276
 10
72.2828170536086
 20
-64.449392340146
 10
69.59160922188312
 20
-63.62105307215825
 10
65.818633380346
 20
-65.7957978551276
 10
70.15668403264135
 20
-71.71314794803038
 10
73.96729182172567
 20
-71.29612791212276
  0
LWPOLYLINE
  5
EE
330
17
100
AcDbEntity
  8
0
 62
0
100
AcDbPolyline
 90
5
 70
0
 10
83.71368255000561
 20
-61.79244702681899
 10
80.28049061028287
 20
-63.47028968948871
 10
82.05506011052057
 20
-70.68322534766048
 10
85.72024627309293
 20
-65.61900238320231
 10
83.71368255000561
 20
-61.79244702681899
  0
LWPOLYLINE
  5
EF
330
17
100
AcDbEntity
  8
0
 62
0
100
AcDbPolyline
 90
7
 70
0
 10
92.98784326948225
 20
-62.2520097354427
 10
96.08949699206278
 20
-62.64717143168673
 10
98.18680556258187
 20
-59.89012649981305
 10
96.84778889687732
 20
-56.69528153166175
 10
89.92567454231903
 20
-55.81337958667427
 10
89.79995669657364
 20
-56.172649135347456
 10
92.98784326948225
 20
-62.2520097354427
  0
LWPOLYLINE
  5
F0
330
17
100
AcDbEntity
  8
0
 62
0
100
AcDbPolyline
 90
6
 70
0
 10
61.0310342120938
 20
-59.32156475447118
 10
65.18188819149509
 20
-56.92901086201891
 10
65.40451312903315
 20
-50.443512697704136
 10
62.12180982436985
 20
-48.21361156227067
 10
55.90888930670917
 20
-53.61963486438617
 10
61.0310342120938
 20
-59.32156475447118
  0
LWPOLYLINE
  5
F1
330
17
100
AcDbEntity
  8
0
 62
0
100
AcDbPolyline
 90
7
 70
0
 10
75.29042545938864
 20
-57.00474157743156
 10
82.21780621027574
 20
-53.61924633849412
 10
82.22189291659743
 20
-53.6075675743632
 10
76.71201112214476
 20
-49.56440685503185
 10
73.38926532305777
 20
-51.02497685654089
 10
73.20602330612019
 20
-56.36317382752895
 10
75.29042545938864
 20
-57.00474157743156
  0
LWPOLYLINE
  5
F2
330
17
100
AcDbEntity
  8
0
 62
0
100
AcDbPolyline
 90
5
 70
0
 10
87.50281830783933
 20
-40.11783754359931
 10
82.20169501565397
 20
-36.227864171843976
 10
81.44488472025841
 20
-43.114607827272266
 10
85.5599841424264
 20
-46.13427484733984
 10
87.50281830783933
 20
-40.11783754359931
  0
LWPOLYLINE
  5
F3
330
17
100
AcDbEntity
  8
0
 62
0
100
AcDbPolyline
 90
7
 70
0
 10
65.68321932759136
 20
-40.96165748825297
 10
69.89455774473026
 20
-43.82236936176196
 10
73.49275811389089
 20
-42.24071857146919
 10
74.38945350889117
 20
-34.0810630293563
 10
66.23332051699981
 20
-34.15053601982072
 10
65.28162435023114
 20
-34.88289753161371
 10
65.68321932759136
 20
-40.96165748825297
  0
LWPOLYLINE
  5
F4
330
17
100
AcDbEntity
  8
0
 62
0
100
AcDbPolyline
 90
6
 70
0
 10
96.91185377445072
 20
-33.3589534740895
 10
97.41899963375181
 20
-32.38935391232371
 10
93.38421764736995
 20
-25.86893984582275
 10
87.31737996451557
 20
-30.05897276941687
 10
93.06807628879324
 20
-34.278843603562564
 10
96.91185377445072
 20
-33.3589534740895
  0
LWPOLYLINE
  5
F5
330
17
100
AcDbEntity
  8
0
 62
0
100
AcDbPolyline
 90
7
 70
0
 10
53.340255599003285
 20
-27.310099533759058
 10
60.16478575067595
 20
-28.725941163487732
 10
60.57791684940457
 20
-28.408023190684617
 10
59.394760293886065
 20
-19.820308541413397
 10
56.18643635744229
 20
-18.51391751272604
 10
52.81889968877658
 20
-21.130232369992882
 10
53.340255599003285
 20
-27.310099533759058
  0
LWPOLYLINE
  5
F6
330
17
100
AcDbEntity
  8
0
 62
0
100
AcDbPolyline
 90
6
 70
0
 10
68.33995237993076
 20
-26.132301763165742
 10
74.38952962635085
 20
-26.080772169400007
 10
73.26375231286511
 20
-17.909533731639385
 10
70.05542837642133
 20
-16.603142702952027
 10
67.31989859044552
 20
-18.728437221143395
 10
68.33995237993076
 20
-26.132301763165742
  0
LWPOLYLINE
  5
F7
330
17
100
AcDbEntity
  8
0
 62
0
100
AcDbPolyline
 90
6
 70
0
 10
65.14727092767134
 20
-10.285707269329578
 10
64.20168262720108
 20
-3.4223361760377884
 10
58.73062305478379
 20
-7.672925212420523
 10
59.20341720525175
 20
-11.104610758833587
 10
62.41174114169553
 20
-12.411001787520945
 10
65.14727092767134
 20
-10.285707269329578
  0
LWPOLYLINE
  5
F8
330
17
100
AcDbEntity
  8
0
 62
0
100
AcDbPolyline
 90
7
 70
0
 10
50.36663092067465
 20
0.05168465757742524
 10
53.8224656060338
 20
-1.3554897792637348
 10
60.80146990856156
 20
4.066655379720032
 10
60.4751338721253
 20
5.017584269400686
 10
56.967616281006485
 20
6.257989409379661
 10
50.184502695687115
 20
2.273105031810701
 10
50.36663092067465
 20
0.05168465757742524
  0
LWPOLYLINE
  5
F9
330
17
100
AcDbEntity
  8
0
 62
0
100
AcDbPolyline
 90
8
 70
0
 10
90.95594426818256
 20
1.1709375173764427
 10
90.58036128806451
 20
1.0768588783870783
 10
90.19206856131824
 20
1.0192610933112127
 10
89.8
 20
1.0
 10
86.87269047061007
 20
1.0
 10
88.12249719770625
 20
-0.22416412737220526
 10
90.90330891637132
 20
0.9432773287408054
 10
90.95594426818256
 20
1.1709375173764427
  0
LWPOLYLINE
  5
FA
330
17
100
AcDbEntity
  8
0
 62
0
100
AcDbPolyline
 90
6
 70
0
 10
77.5502767120488
 20
5.338905627839267
 10
78.78510423796251
 20
10.679823051672429
 10
73.05412309197709
 20
16.02743959100917
 10
68.02031716983765
 20
7.677406649105251
 10
68.88253211090341
 20
5.164950148202479
 10
77.5502767120488
 20
5.338905627839267
  0
LWPOLYLINE
  5
FB
330
17
100
AcDbEntity
  8
0
 62
0
100
AcDbPolyline
 90
6
 70
0
 10
67.6320066684857
 20
22.52849427703768
 10
57.64508249331266
 20
22.28341292310506
 10
55.98715150356293
 20
19.241823727265
 10
59.219841993413866
 20
13.947025449480861
 10
61.88952374085784
 20
13.00291415816173
 10
67.6320066684857
 20
22.52849427703768
  0
LWPOLYLINE
  5
FC
330
17
100
AcDbEntity
  8
0
 62
0
100
AcDbPolyline
 90
10
 70
0
 10
83.90494410060825
 20
16.844314225032974
 10
84.21963871193549
 20
16.92314112161292
 10
84.60793143868176
 20
16.98073890668879
 10
85.0
 20
17.0
 10
85.78549827473952
 20
17.0
 10
87.55599859263748
 20
17.540683947037905
 10
88.3363195238635
 20
20.91575420461595
 10
85.80358340637758
 20
23.27906708372757
 10
79.17746930988505
 20
21.25555232493207
 10
83.90494410060825
 20
16.844314225032974
  0
LWPOLYLINE
  5
FD
330
17
100
AcDbEntity
  8
0
 62
0
100
AcDbPolyline
 90
7
 70
0
 10
91.26142071234062
 20
29.128170599695295
 10
93.79415682982653
 20
26.764857720583677
 10
97.1072138780728
 20
27.776615099981427
 10
97.88753480929881
 20
31.151685358025134
 10
95.3547986918129
 20
33.51499823667109
 10
92.04174164356664
 20
32.50324085727334
 10
91.26142071234062
 20
29.128170599695295
  0
LWPOLYLINE
  5
FE
330
17
100
AcDbEntity
  8
0
 62
0
100
AcDbPolyline
 90
5
 70
0
 10
84.24735075654462
 20
34.30531485565007
 10
81.15135298855603
 20
37.19421091862023
 10
74.46979289036244
 20
28.182624883018434
 10
83.4670298253186
 20
30.930244598072022
 10
84.24735075654462
 20
34.30531485565007
  0
LWPOLYLINE
  5
FF
330
17
100
AcDbEntity
  8
0
 62
0
100
AcDbPolyline
 90
6
 70
0
 10
64.3749378034845
 20
30.45097360573709
 10
60.76468177093193
 20
36.364183511119336
 10
57.301622765138745
 20
36.27919926820323
 10
55.643691775389016
 20
33.23761007282883
 10
57.44881979143247
 20
30.281005119904876
 10
64.3749378034845
 20
30.45097360573709
  0
LWPOLYLINE
  5
100
330
17
100
AcDbEntity
  8
0
 62
0
100
AcDbPolyline
 90
5
 70
0
 10
69.25059942156076
 20
43.574537290260196
 10
67.59266843181103
 20
40.532948094885796
 10
70.33611687785015
 20
36.0394755047746
 10
76.04657489666715
 20
43.74131204932928
 10
69.25059942156076
 20
43.574537290260196
  0
LWPOLYLINE
  5
101
330
17
100
AcDbEntity
  8
0
 62
0
100
AcDbPolyline
 90
8
 70
0
 10
84.0657141469419
 20
47.075805853586644
 10
84.35475453548133
 20
45.14694340201095
 10
89.70518806250766
 20
40.154418371617794
 10
93.01824511121958
 20
41.166175751015544
 10
93.79856604197994
 20
44.54124600859359
 10
88.71584606496617
 20
49.28396574873477
 10
84.23400847520679
 20
47.376027369871736
 10
84.0657141469419
 20
47.075805853586644
  0
LWPOLYLINE
  5
102
330
17
100
AcDbEntity
  8
0
 62
0
100
AcDbPolyline
 90
7
 70
0
 10
55.30023204674944
 20
47.233396417461336
 10
57.10536006325856
 20
44.27679146500304
 10
60.56841906905174
 20
44.36177570791915
 10
62.22635005880147
 20
47.40336490329355
 10
60.42122204229236
 20
50.3599698562175
 10
56.95816303649917
 20
50.274985612835735
 10
55.30023204674944
 20
47.233396417461336
  0
LWPOLYLINE
  5
103
330
17
100
AcDbEntity
  8
0
 62
0
100
AcDbPolyline
 90
6
 70
0
 10
75.98045473126695
 20
51.742097973357886
 10
72.37019869918004
 20
57.65530787874013
 10
68.90713969292119
 20
57.57032363535836
 10
67.24920870317146
 20
54.528734439983964
 10
69.05433671968058
 20
51.57212948706001
 10
75.98045473126695
 20
51.742097973357886
  0
LWPOLYLINE
  5
104
330
17
100
AcDbEntity
  8
0
 62
0
100
AcDbPolyline
 90
7
 70
0
 10
54.95677231857553
 20
61.2291827625595
 10
56.761900334618986
 20
58.27257780963555
 10
60.22495934041217
 20
58.35756205301732
 10
61.8828903301619
 20
61.39915124839172
 10
60.077762314118445
 20
64.35575620085001
 10
56.61470330832526
 20
64.2707719579339
 10
54.95677231857553
 20
61.2291827625595
  0
LWPOLYLINE
  5
105
330
17
100
AcDbEntity
  8
0
 62
0
100
AcDbPolyline
 90
7
 70
0
 10
79.19818536005914
 20
61.82407246250659
 10
83.02504089009017
 20
55.55609594704583
 10
86.5695023862645
 20
57.06498911557719
 10
87.31999038578942
 20
58.66625023307279
 10
83.34366721194237
 20
68.7372053032741
 10
83.00741301104426
 20
68.81236433843151
 10
79.19818536005914
 20
61.82407246250659
  0
LWPOLYLINE
  5
106
330
17
100
AcDbEntity
  8
0
 62
0
100
AcDbPolyline
 90
6
 70
0
 10
98.48049162933603
 20
64.79166755499318
 10
99.37382970191538
 20
68.65556334191933
 10
95.14762960979715
 20
72.42047991137952
 10
91.30929976142943
 20
70.34639712283388
 10
94.03811865532771
 20
63.435034218244255
 10
98.48049162933603
 20
64.79166755499318
  0
LWPOLYLINE
  5
107
330
17
100
AcDbEntity
  8
0
 62
0
100
AcDbPolyline
 90
7
 70
0
 10
66.90574897499755
 20
68.52452078508213
 10
68.710876991041
 20
65.56791583215818
 10
72.17393599729985
 20
65.65290007553995
 10
76.1138031561859
 20
72.88085917383432
 10
75.47755195666105
 20
73.63221030123532
 10
70.26757033495232
 20
74.6920148418285
 10
66.90574897499755
 20
68.52452078508213
  0
LWPOLYLINE
  5
108
330
17
100
AcDbEntity
  8
0
 62
0
100
AcDbPolyline
 90
7
 70
0
 10
54.61331258993596
 20
75.22496910765767
 10
56.418440606445074
 20
72.26836415473372
 10
59.88149961223826
 20
72.35334839764982
 10
63.395796936471015
 20
78.80057016899809
 10
60.3045412581414
 20
82.7321104654111
 10
58.81417409190908
 20
82.9317403989844
 10
54.61331258993596
 20
75.22496910765767
  0
LWPOLYLINE
  5
109
330
17
100
AcDbEntity
  8
0
 62
0
100
AcDbPolyline
 90
7
 70
0
 10
85.69910719059408
 20
76.40812738891691
 10
92.19342251773924
 20
79.9174004769884
 10
86.58984545851126
 20
88.63782190252095
 10
86.36268245475367
 20
88.67503207409754
 10
82.22504416014999
 20
78.04349640849978
 10
83.1221251245588
 20
76.9841305562295
 10
85.69910719059408
 20
76.40812738891691
  0
LWPOLYLINE
  5
10A
330
17
100
AcDbEntity
  8
0
 62
0
100
AcDbPolyline
 90
6
 70
0
 10
79.01201379392296
 20
91.84534459235147
 10
70.73593849875033
 20
90.5737911700271
 10
67.53062865138054
 20
86.4848383939825
 10
70.40616072434932
 20
82.82766105467454
 10
75.12860014662147
 20
81.86703142011538
 10
79.01201379392296
 20
91.84534459235147
  0
LWPOLYLINE
  5
10B
330
17
100
AcDbEntity
  8
0
 62
0
100
AcDbPolyline
 90
7
 70
0
 10
60.70861305342987
 20
90.74943428160623
 10
64.10997024970129
 20
95.08848092984408
 10
61.20616093836725
 20
104.19082838017493
 10
61.05975596187636
 20
104.24858343228698
 10
55.21999814314768
 20
94.05909887840971
 10
58.4206079239957
 20
91.05590527923778
 10
60.70861305342987
 20
90.74943428160623
  0
LWPOLYLINE
  5
10C
330
17
100
AcDbEntity
  8
0
 62
0
100
AcDbPolyline
 90
6
 70
0
 10
97.85884477058426
 20
-48.75942833069712
 10
100.09552682656795
 20
-45.81916812621057
 10
97.6113078831695
 20
-41.41746593778953
 10
95.31223646784201
 20
-41.96767809474841
 10
93.3063336131163
 20
-48.17942224582657
 10
97.85884477058426
 20
-48.75942833069712
  0
LWPOLYLINE
  5
10D
330
17
100
AcDbEntity
  8
0
 62
0
100
AcDbPolyline
 90
7
 70
0
 10
97.88312559667975
 20
13.375297070015222
 10
101.19618264492601
 20
14.387054449412972
 10
101.97650357615203
 20
17.762124706991017
 10
99.44376745913178
 20
20.125437585636973
 10
96.13071041088551
 20
19.113680206239223
 10
95.3503894796595
 20
15.738609948661178
 10
97.88312559667975
 20
13.375297070015222
  0
LWPOLYLINE
  5
10E
330
17
100
AcDbEntity
  8
0
 62
0
100
AcDbPolyline
 90
7
 70
0
 10
99.25640334794298
 20
50.390349524561316
 10
102.5694603966549
 20
51.402106903959066
 10
103.34978132788092
 20
54.77717716153711
 10
100.81704521086067
 20
57.140490039717406
 10
94.54179518390447
 20
55.22412384720519
 10
94.40009972732514
 20
54.92179866041988
 10
99.25640334794298
 20
50.390349524561316
  0
LWPOLYLINE
  5
10F
330
17
100
AcDbEntity
  8
0
 62
0
100
AcDbPolyline
 90
5
 70
0
 10
-5.0
 20
89.8
 10
-13.0
 20
89.8
 10
-13.0
 20
85.0
 10
-5.0
 20
85.0
 10
-5.0
 20
89.8
  0
LWPOLYLINE
  5
110
330
17
100
AcDbEntity
  8
0
 62
0
100
AcDbPolyline
 90
5
 70
0
 10
13.0
 20
89.8
 10
5.0
 20
89.8
 10
5.0
 20
85.0
 10
13.0
 20
85.0
 10
13.0
 20
89.8
  0
LWPOLYLINE
  5
111
330
17
100
AcDbEntity
  8
0
 62
0
100
AcDbPolyline
 90
5
 70
0
 10
-89.8
 20
-13.0
 10
-85.0
 20
-13.0
 10
-85.0
 20
-5.0
 10
-89.8
 20
-5.0
 10
-89.8
 20
-13.0
  0
LWPOLYLINE
  5
112
330
17
100
AcDbEntity
  8
0
 62
0
100
AcDbPolyline
 90
5
 70
0
 10
-89.8
 20
5.0
 10
-85.0
 20
5.0
 10
-85.0
 20
13.0
 10
-89.8
 20
13.0
 10
-89.8
 20
5.0
  0
LWPOLYLINE
  5
113
330
17
100
AcDbEntity
  8
0
 62
0
100
AcDbPolyline
 90
5
 70
0
 10
13.0
 20
-85.0
 10
5.0
 20
-85.0
 10
5.0
 20
-89.8
 10
13.0
 20
-89.8
 10
13.0
 20
-85.0
  0
LWPOLYLINE
  5
114
330
17
100
AcDbEntity
  8
0
 62
0
100
AcDbPolyline
 90
5
 70
0
 10
-5.0
 20
-85.0
 10
-13.0
 20
-85.0
 10
-13.0
 20
-89.8
 10
-5.0
 20
-89.8
 10
-5.0
 20
-85.0
  0
LWPOLYLINE
  5
115
330
17
100
AcDbEntity
  8
0
 62
0
100
AcDbPolyline
 90
5
 70
0
 10
85.0
 20
5.0
 10
89.8
 20
5.0
 10
89.8
 20
13.0
 10
85.0
 20
13.0
 10
85.0
 20
5.0
  0
LWPOLYLINE
  5
116
330
17
100
AcDbEntity
  8
0
 62
0
100
AcDbPolyline
 90
5
 70
0
 10
85.0
 20
-13.0
 10
89.8
 20
-13.0
 10
89.8
 20
-5.0
 10
85.0
 20
-5.0
 10
85.0
 20
-13.0
  0
ENDSEC
  0
SECTION
  2
OBJECTS
  0
DICTIONARY
  5
A
330
0
100
AcDbDictionary
280
0
281
1
  3
ACAD_COLOR
350
B
  3
ACAD_GROUP
350
C
  3
ACAD_LAYOUT
350
D
  3
ACAD_MATERIAL
350
E
  3
ACAD_MLEADERSTYLE
350
F
  3
ACAD_MLINESTYLE
350
10
  3
ACAD_PLOTSETTINGS
350
11
  3
ACAD_PLOTSTYLENAME
350
12
  3
ACAD_SCALELIST
350
14
  3
ACAD_TABLESTYLE
350
15
  3
ACAD_VISUALSTYLE
350
16
  3
EZDXF_META
350
2D
  0
DICTIONARY
  5
B
330
A
100
AcDbDictionary
280
0
281
1
  0
DICTIONARY
  5
C
330
A
100
AcDbDictionary
280
0
281
1
  0
DICTIONARY
  5
D
330
A
100
AcDbDictionary
280
0
281
1
  3
Model
350
1A
  3
Layout1
350
1E
  0
DICTIONARY
  5
E
330
A
100
AcDbDictionary
280
0
281
1
  3
ByBlock
350
1F
  3
ByLayer
350
20
  3
Global
350
21
  0
DICTIONARY
  5
F
330
A
100
AcDbDictionary
280
0
281
1
  3
Standard
350
2C
  0
DICTIONARY
  5
10
330
A
100
AcDbDictionary
280
0
281
1
  3
Standard
350
22
  0
DICTIONARY
  5
11
330
A
100
AcDbDictionary
280
0
281
1
  0
ACDBDICTIONARYWDFLT
  5
12
330
A
100
AcDbDictionary
280
0
281
1
  3
Normal
350
13
100
AcDbDictionaryWithDefault
340
13
  0
ACDBPLACEHOLDER
  5
13
330
12
  0
DICTIONARY
  5
14
330
A
100
AcDbDictionary
280
0
281
1
  0
DICTIONARY
  5
15
330
A
100
AcDbDictionary
280
0
281
1
  0
DICTIONARY
  5
16
330
A
100
AcDbDictionary
280
0
281
1
  0
LAYOUT
  5
1A
330
D
100
AcDbPlotSettings
  1

  2
Adobe PDF
  4
A3
  6

 40
7.5
 41
20.0
 42
7.5
 43
20.0
 44
420.0
 45
297.0
 46
0.0
 47
0.0
 48
0.0
 49
0.0
140
0.0
141
0.0
142
1.0
143
1.0
 70
1024
 72
1
 73
0
 74
5
  7

 75
16
 76
0
 77
2
 78
300
147
1.0
148
0.0
149
0.0
100
AcDbLayout
  1
Model
 70
1
 71
0
 10
0.0
 20
0.0
 11
420.0
 21
297.0
 12
0.0
 22
0.0
 32
0.0
 14
1e+20
 24
1e+20
 34
1e+20
 15
-1e+20
 25
-1e+20
 35
-1e+20
146
0.0
 13
0.0
 23
0.0
 33
0.0
 16
1.0
 26
0.0
 36
0.0
 17
0.0
 27
1.0
 37
0.0
 76
1
330
17
  0
LAYOUT
  5
1E
330
D
100
AcDbPlotSettings
  1

  2
Adobe PDF
  4
A3
  6

 40
7.5
 41
20.0
 42
7.5
 43
20.0
 44
420.0
 45
297.0
 46
0.0
 47
0.0
 48
0.0
 49
0.0
140
0.0
141
0.0
142
1.0
143
1.0
 70
0
 72
1
 73
0
 74
5
  7

 75
16
 76
0
 77
2
 78
300
147
1.0
148
0.0
149
0.0
100
AcDbLayout
  1
Layout1
 70
1
 71
1
 10
0.0
 20
0.0
 11
420.0
 21
297.0
 12
0.0
 22
0.0
 32
0.0
 14
1e+20
 24
1e+20
 34
1e+20
 15
-1e+20
 25
-1e+20
 35
-1e+20
146
0.0
 13
0.0
 23
0.0
 33
0.0
 16
1.0
 26
0.0
 36
0.0
 17
0.0
 27
1.0
 37
0.0
 76
1
330
1B
  0
MATERIAL
  5
1F
102
{ACAD_REACTORS
330
E
102
}
330
E
100
AcDbMaterial
  1
ByBlock
  2

 70
0
 40
1.0
 71
1
 41
1.0
 91
-1023410177
 42
1.0
 72
1
  3

 73
1
 74
1
 75
1
 44
0.5
 73
0
 45
1.0
 46
1.0
 77
1
  4

 78
1
 79
1
170
1
 48
1.0
171
1
  6

172
1
173
1
174
1
140
1.0
141
1.0
175
1
  7

176
1
177
1
178
1
143
1.0
179
1
  8

270
1
271
1
272
1
145
1.0
146
1.0
273
1
  9

274
1
275
1
276
1
 42
1.0
 72
1
  3

 73
1
 74
1
 75
1
 94
63
  0
MATERIAL
  5
20
102
{ACAD_REACTORS
330
E
102
}
330
E
100
AcDbMaterial
  1
ByLayer
  2

 70
0
 40
1.0
 71
1
 41
1.0
 91
-1023410177
 42
1.0
 72
1
  3

 73
1
 74
1
 75
1
 44
0.5
 73
0
 45
1.0
 46
1.0
 77
1
  4

 78
1
 79
1
170
1
 48
1.0
171
1
  6

172
1
173
1
174
1
140
1.0
141
1.0
175
1
  7

176
1
177
1
178
1
143
1.0
179
1
  8

270
1
271
1
272
1
145
1.0
146
1.0
273
1
  9

274
1
275
1
276
1
 42
1.0
 72
1
  3

 73
1
 74
1
 75
1
 94
63
  0
MATERIAL
  5
21
102
{ACAD_REACTORS
330
E
102
}
330
E
100
AcDbMaterial
  1
Global
  2

 70
0
 40
1.0
 71
1
 41
1.0
 91
-1023410177
 42
1.0
 72
1
  3

 73
1
 74
1
 75
1
 44
0.5
 73
0
 45
1.0
 46
1.0
 77
1
  4

 78
1
 79
1
170
1
 48
1.0
171
1
  6

172
1
173
1
174
1
140
1.0
141
1.0
175
1
  7

176
1
177
1
178
1
143
1.0
179
1
  8

270
1
271
1
272
1
145
1.0
146
1.0
273
1
  9

274
1
275
1
276
1
 42
1.0
 72
1
  3

 73
1
 74
1
 75
1
 94
63
  0
MLINESTYLE
  5
22
102
{ACAD_REACTORS
330
10
102
}
330
10
100
AcDbMlineStyle
  2
Standard
 70
0
  3

 62
256
 51
90.0
 52
90.0
 71
2
 49
0.5
 62
256
  6
BYLAYER
 49
-0.5
 62
256
  6
BYLAYER
  0
MLEADERSTYLE
  5
2C
102
{ACAD_REACTORS
330
F
102
}
330
F
100
AcDbMLeaderStyle
179
2
170
2
171
1
172
0
 90
2
 40
0.0
 41
0.0
173
1
 91
-1056964608
 92
-2
290
1
 42
2.0
291
1
 43
8.0
  3
Standard
 44
4.0
300

342
29
174
1
175
1
176
0
178
1
 93
-1056964608
 45
4.0
292
0
297
0
 46
4.0
 94
-1056964608
 47
1.0
 49
1.0
140
1.0
294
1
141
0.0
177
0
142
1.0
295
0
296
0
143
3.75
271
0
272
9
273
9
  0
DICTIONARY
  5
2D
330
A
100
AcDbDictionary
281
1
  3
CREATED_BY_EZDXF
350
2E
  3
WRITTEN_BY_EZDXF
350
119
  0
DICTIONARYVAR
  5
2E
330
2D
100
DictionaryVariables
280
0
  1
1.1.1 @ 2023-10-27T18:38:04.584295+00:00
  0
DICTIONARYVAR
  5
119
330
2D
100
DictionaryVariables
280
0
  1
1.1.1 @ 2023-10-27T18:38:04.617718+00:00
  0
ENDSEC
  0
EOF
