  0
SECTION
  2
HEADER
  9
$ACADVER
  1
AC1032
  9
$ACADMAINTVER
 90
4
  9
$DWGCODEPAGE
  3
ANSI_1252
  9
$LASTSAVEDBY
  1
ezdxf
  9
$REQUIREDVERSIONS
160
0
  9
$INSBASE
 10
0.0
 20
0.0
 30
0.0
  9
$EXTMIN
 10
1e+20
 20
1e+20
 30
1e+20
  9
$EXTMAX
 10
-1e+20
 20
-1e+20
 30
-1e+20
  9
$LIMMIN
 10
0.0
 20
0.0
  9
$LIMMAX
 10
420.0
 20
297.0
  9
$ORTHOMODE
 70
0
  9
$REGENMODE
 70
1
  9
$FILLMODE
 70
1
  9
$QTEXTMODE
 70
0
  9
$MIRRTEXT
 70
1
  9
$LTSCALE
 40
1.0
  9
$ATTMODE
 70
1
  9
$TEXTSIZE
 40
2.5
  9
$TRACEWID
 40
1.0
  9
$TEXTSTYLE
  7
Standard
  9
$CLAYER
  8
0
  9
$CELTYPE
  6
ByLayer
  9
$CECOLOR
 62
256
  9
$CELTSCALE
 40
1.0
  9
$DISPSILH
 70
0
  9
$DIMSCALE
 40
1.0
  9
$DIMASZ
 40
2.5
  9
$DIMEXO
 40
0.625
  9
$DIMDLI
 40
3.75
  9
$DIMRND
 40
0.0
  9
$DIMDLE
 40
0.0
  9
$DIMEXE
 40
1.25
  9
$DIMTP
 40
0.0
  9
$DIMTM
 40
0.0
  9
$DIMTXT
 40
2.5
  9
$DIMCEN
 40
2.5
  9
$DIMTSZ
 40
0.0
  9
$DIMTOL
 70
0
  9
$DIMLIM
 70
0
  9
$DIMTIH
 70
0
  9
$DIMTOH
 70
0
  9
$DIMSE1
 70
0
  9
$DIMSE2
 70
0
  9
$DIMTAD
 70
1
  9
$DIMZIN
 70
8
  9
$DIMBLK
  1

  9
$DIMASO
 70
1
  9
$DIMSHO
 70
1
  9
$DIMPOST
  1

  9
$DIMAPOST
  1

  9
$DIMALT
 70
0
  9
$DIMALTD
 70
3
  9
$DIMALTF
 40
0.03937007874
  9
$DIMLFAC
 40
1.0
  9
$DIMTOFL
 70
1
  9
$DIMTVP
 40
0.0
  9
$DIMTIX
 70
0
  9
$DIMSOXD
 70
0
  9
$DIMSAH
 70
0
  9
$DIMBLK1
  1

  9
$DIMBLK2
  1

  9
$DIMSTYLE
  2
ISO-25
  9
$DIMCLRD
 70
0
  9
$DIMCLRE
 70
0
  9
$DIMCLRT
 70
0
  9
$DIMTFAC
 40
1.0
  9
$DIMGAP
 40
0.625
  9
$DIMJUST
 70
0
  9
$DIMSD1
 70
0
  9
$DIMSD2
 70
0
  9
$DIMTOLJ
 70
0
  9
$DIMTZIN
 70
8
  9
$DIMALTZ
 70
0
  9
$DIMALTTZ
 70
0
  9
$DIMUPT
 70
0
  9
$DIMDEC
 70
2
  9
$DIMTDEC
 70
2
  9
$DIMALTU
 70
2
  9
$DIMALTTD
 70
3
  9
$DIMTXSTY
  7
Standard
  9
$DIMAUNIT
 70
0
  9
$DIMADEC
 70
0
  9
$DIMALTRND
 40
0.0
  9
$DIMAZIN
 70
0
  9
$DIMDSEP
 70
44
  9
$DIMATFIT
 70
3
  9
$DIMFRAC
 70
0
  9
$DIMLDRBLK
  1

  9
$DIMLUNIT
 70
2
  9
$DIMLWD
 70
-2
  9
$DIMLWE
 70
-2
  9
$DIMTMOVE
 70
0
  9
$DIMFXL
 40
1.0
  9
$DIMFXLON
 70
0
  9
$DIMJOGANG
 40
0.785398163397
  9
$DIMTFILL
 70
0
  9
$DIMTFILLCLR
 70
0
  9
$DIMARCSYM
 70
0
  9
$DIMLTYPE
  6

  9
$DIMLTEX1
  6

  9
$DIMLTEX2
  6

  9
$DIMTXTDIRECTION
 70
0
  9
$LUNITS
 70
2
  9
$LUPREC
 70
4
  9
$SKETCHINC
 40
1.0
  9
$FILLETRAD
 40
10.0
  9
$AUNITS
 70
0
  9
$AUPREC
 70
2
  9
$MENU
  1
.
  9
$ELEVATION
 40
0.0
  9
$PELEVATION
 40
0.0
  9
$THICKNESS
 40
0.0
  9
$LIMCHECK
 70
0
  9
$CHAMFERA
 40
0.0
  9
$CHAMFERB
 40
0.0
  9
$CHAMFERC
 40
0.0
  9
$CHAMFERD
 40
0.0
  9
$SKPOLY
 70
0
  9
$TDCREATE
 40
2460253.6201273147
  9
$TDUCREATE
 40
2458532.153996898
  9
$TDUPDATE
 40
2460253.6201273147
  9
$TDUUPDATE
 40
2458532.1544311
  9
$TDINDWG
 40
0.0
  9
$TDUSRTIMER
 40
0.0
  9
$USRTIMER
 70
1
  9
$ANGBASE
 50
0.0
  9
$ANGDIR
 70
0
  9
$PDMODE
 70
0
  9
$PDSIZE
 40
0.0
  9
$PLINEWID
 40
0.0
  9
$SPLFRAME
 70
0
  9
$SPLINETYPE
 70
6
  9
$SPLINESEGS
 70
8
  9
$HANDSEED
  5
111
  9
$SURFTAB1
 70
6
  9
$SURFTAB2
 70
6
  9
$SURFTYPE
 70
6
  9
$SURFU
 70
6
  9
$SURFV
 70
6
  9
$UCSBASE
  2

  9
$UCSNAME
  2

  9
$UCSORG
 10
0.0
 20
0.0
 30
0.0
  9
$UCSXDIR
 10
1.0
 20
0.0
 30
0.0
  9
$UCSYDIR
 10
0.0
 20
1.0
 30
0.0
  9
$UCSORTHOREF
  2

  9
$UCSORTHOVIEW
 70
0
  9
$UCSORGTOP
 10
0.0
 20
0.0
 30
0.0
  9
$UCSORGBOTTOM
 10
0.0
 20
0.0
 30
0.0
  9
$UCSORGLEFT
 10
0.0
 20
0.0
 30
0.0
  9
$UCSORGRIGHT
 10
0.0
 20
0.0
 30
0.0
  9
$UCSORGFRONT
 10
0.0
 20
0.0
 30
0.0
  9
$UCSORGBACK
 10
0.0
 20
0.0
 30
0.0
  9
$PUCSBASE
  2

  9
$PUCSNAME
  2

  9
$PUCSORG
 10
0.0
 20
0.0
 30
0.0
  9
$PUCSXDIR
 10
1.0
 20
0.0
 30
0.0
  9
$PUCSYDIR
 10
0.0
 20
1.0
 30
0.0
  9
$PUCSORTHOREF
  2

  9
$PUCSORTHOVIEW
 70
0
  9
$PUCSORGTOP
 10
0.0
 20
0.0
 30
0.0
  9
$PUCSORGBOTTOM
 10
0.0
 20
0.0
 30
0.0
  9
$PUCSORGLEFT
 10
0.0
 20
0.0
 30
0.0
  9
$PUCSORGRIGHT
 10
0.0
 20
0.0
 30
0.0
  9
$PUCSORGFRONT
 10
0.0
 20
0.0
 30
0.0
  9
$PUCSORGBACK
 10
0.0
 20
0.0
 30
0.0
  9
$USERI1
 70
0
  9
$USERI2
 70
0
  9
$USERI3
 70
0
  9
$USERI4
 70
0
  9
$USERI5
 70
0
  9
$USERR1
 40
0.0
  9
$USERR2
 40
0.0
  9
$USERR3
 40
0.0
  9
$USERR4
 40
0.0
  9
$USERR5
 40
0.0
  9
$WORLDVIEW
 70
1
  9
$SHADEDGE
 70
3
  9
$SHADEDIF
 70
70
  9
$TILEMODE
 70
1
  9
$MAXACTVP
 70
64
  9
$PINSBASE
 10
0.0
 20
0.0
 30
0.0
  9
$PLIMCHECK
 70
0
  9
$PEXTMIN
 10
1e+20
 20
1e+20
 30
1e+20
  9
$PEXTMAX
 10
-1e+20
 20
-1e+20
 30
-1e+20
  9
$PLIMMIN
 10
0.0
 20
0.0
  9
$PLIMMAX
 10
420.0
 20
297.0
  9
$UNITMODE
 70
0
  9
$VISRETAIN
 70
1
  9
$PLINEGEN
 70
0
  9
$PSLTSCALE
 70
1
  9
$TREEDEPTH
 70
3020
  9
$CMLSTYLE
  2
Standard
  9
$CMLJUST
 70
0
  9
$CMLSCALE
 40
20.0
  9
$PROXYGRAPHICS
 70
1
  9
$MEASUREMENT
 70
1
  9
$CELWEIGHT
370
-1
  9
$ENDCAPS
280
0
  9
$JOINSTYLE
280
0
  9
$LWDISPLAY
290
0
  9
$INSUNITS
 70
4
  9
$HYPERLINKBASE
  1

  9
$STYLESHEET
  1

  9
$XEDIT
290
1
  9
$CEPSNTYPE
380
0
  9
$PSTYLEMODE
290
1
  9
$FINGERPRINTGUID
  2
{7F946A91-E057-4092-BC9F-261C5502FAE5}
  9
$VERSIONGUID
  2
{DC60E1BE-1F40-43C7-ACC9-24F7AF458A00}
  9
$EXTNAMES
290
1
  9
$PSVPSCALE
 40
0.0
  9
$OLESTARTUP
290
0
  9
$SORTENTS
280
127
  9
$INDEXCTL
280
0
  9
$HIDETEXT
280
1
  9
$XCLIPFRAME
280
0
  9
$HALOGAP
280
0
  9
$OBSCOLOR
 70
257
  9
$OBSLTYPE
280
0
  9
$INTERSECTIONDISPLAY
280
0
  9
$INTERSECTIONCOLOR
 70
257
  9
$DIMASSOC
280
2
  9
$PROJECTNAME
  1

  9
$CAMERADISPLAY
290
0
  9
$LENSLENGTH
 40
50.0
  9
$CAMERAHEIGHT
 40
0.0
  9
$STEPSPERSEC
 40
24.0
  9
$STEPSIZE
 40
100.0
  9
$3DDWFPREC
 40
2.0
  9
$PSOLWIDTH
 40
0.005
  9
$PSOLHEIGHT
 40
0.08
  9
$LOFTANG1
 40
1.570796326795
  9
$LOFTANG2
 40
1.570796326795
  9
$LOFTMAG1
 40
0.0
  9
$LOFTMAG2
 40
0.0
  9
$LOFTPARAM
 70
7
  9
$LOFTNORMALS
280
1
  9
$LATITUDE
 40
37.795
  9
$LONGITUDE
 40
-122.394
  9
$NORTHDIRECTION
 40
0.0
  9
$TIMEZONE
 70
-8000
  9
$LIGHTGLYPHDISPLAY
280
1
  9
$TILEMODELIGHTSYNCH
280
1
  9
$CMATERIAL
347
20
  9
$SOLIDHIST
280
0
  9
$SHOWHIST
280
1
  9
$DWFFRAME
280
2
  9
$DGNFRAME
280
2
  9
$REALWORLDSCALE
290
1
  9
$INTERFERECOLOR
 62
256
  9
$CSHADOW
280
0
  9
$SHADOWPLANELOCATION
 40
0.0
  0
ENDSEC
  0
SECTION
  2
CLASSES
  0
CLASS
  1
ACDBDICTIONARYWDFLT
  2
AcDbDictionaryWithDefault
  3
ObjectDBX Classes
 90
0
 91
0
280
0
281
0
  0
CLASS
  1
SUN
  2
AcDbSun
  3
SCENEOE
 90
1153
 91
0
280
0
281
0
  0
CLASS
  1
VISUALSTYLE
  2
AcDbVisualStyle
  3
ObjectDBX Classes
 90
4095
 91
0
280
0
281
0
  0
CLASS
  1
MATERIAL
  2
AcDbMaterial
  3
ObjectDBX Classes
 90
1153
 91
0
280
0
281
0
  0
CLASS
  1
SCALE
  2
AcDbScale
  3
ObjectDBX Classes
 90
1153
 91
0
280
0
281
0
  0
CLASS
  1
TABLESTYLE
  2
AcDbTableStyle
  3
ObjectDBX Classes
 90
4095
 91
0
280
0
281
0
  0
CLASS
  1
MLEADERSTYLE
  2
AcDbMLeaderStyle
  3
ACDB_MLEADERSTYLE_CLASS
 90
4095
 91
0
280
0
281
0
  0
CLASS
  1
DICTIONARYVAR
  2
AcDbDictionaryVar
  3
ObjectDBX Classes
 90
0
 91
0
280
0
281
0
  0
CLASS
  1
CELLSTYLEMAP
  2
AcDbCellStyleMap
  3
ObjectDBX Classes
 90
1152
 91
0
280
0
281
0
  0
CLASS
  1
MENTALRAYRENDERSETTINGS
  2
AcDbMentalRayRenderSettings
  3
SCENEOE
 90
1024
 91
0
280
0
281
0
  0
CLASS
  1
ACDBDETAILVIEWSTYLE
  2
AcDbDetailViewStyle
  3
ObjectDBX Classes
 90
1025
 91
0
280
0
281
0
  0
CLASS
  1
ACDBSECTIONVIEWSTYLE
  2
AcDbSectionViewStyle
  3
ObjectDBX Classes
 90
1025
 91
0
280
0
281
0
  0
CLASS
  1
RASTERVARIABLES
  2
AcDbRasterVariables
  3
ISM
 90
0
 91
0
280
0
281
0
  0
CLASS
  1
LAYOUT
  2
AcDbLayout
  3
ObjectDBX Classes
 90
0
 91
0
280
0
281
0
  0
CLASS
  1
ACDBPLACEHOLDER
  2
AcDbPlaceHolder
  3
ObjectDBX Classes
 90
0
 91
0
280
0
281
0
  0
ENDSEC
  0
SECTION
  2
TABLES
  0
TABLE
  2
VPORT
  5
8
330
0
100
AcDbSymbolTable
 70
1
  0
VPORT
  5
23
330
8
100
AcDbSymbolTableRecord
100
AcDbViewportTableRecord
  2
*Active
 70
0
 10
0.0
 20
0.0
 11
1.0
 21
1.0
 12
0.0
 22
0.0
 13
0.0
 23
0.0
 14
0.5
 24
0.5
 15
0.5
 25
0.5
 16
0.0
 26
0.0
 36
1.0
 17
0.0
 27
0.0
 37
0.0
 40
1000.0
 41
1.34
 42
50.0
 43
0.0
 44
0.0
 50
0.0
 51
0.0
 71
0
 72
1000
 73
1
 74
3
 75
0
 76
0
 77
0
 78
0
281
0
 65
0
146
0.0
  0
ENDTAB
  0
TABLE
  2
LTYPE
  5
2
330
0
100
AcDbSymbolTable
 70
3
  0
LTYPE
  5
24
330
2
100
AcDbSymbolTableRecord
100
AcDbLinetypeTableRecord
  2
ByBlock
 70
0
  3

 72
65
 73
0
 40
0.0
  0
LTYPE
  5
25
330
2
100
AcDbSymbolTableRecord
100
AcDbLinetypeTableRecord
  2
ByLayer
 70
0
  3

 72
65
 73
0
 40
0.0
  0
LTYPE
  5
26
330
2
100
AcDbSymbolTableRecord
100
AcDbLinetypeTableRecord
  2
Continuous
 70
0
  3

 72
65
 73
0
 40
0.0
  0
ENDTAB
  0
TABLE
  2
LAYER
  5
1
330
0
100
AcDbSymbolTable
 70
2
  0
LAYER
  5
27
330
1
100
AcDbSymbolTableRecord
100
AcDbLayerTableRecord
  2
0
 70
0
 62
7
  6
Continuous
370
-3
390
13
347
21
  0
LAYER
  5
28
330
1
100
AcDbSymbolTableRecord
100
AcDbLayerTableRecord
  2
Defpoints
 70
0
 62
7
  6
Continuous
290
0
370
-3
390
13
347
21
  0
ENDTAB
  0
TABLE
  2
STYLE
  5
5
330
0
100
AcDbSymbolTable
 70
1
  0
STYLE
  5
29
330
5
100
AcDbSymbolTableRecord
100
AcDbTextStyleTableRecord
  2
Standard
 70
0
 40
0.0
 41
1.0
 50
0.0
 71
0
 42
2.5
  3
txt
  4

  0
ENDTAB
  0
TABLE
  2
VIEW
  5
7
330
0
100
AcDbSymbolTable
 70
0
  0
ENDTAB
  0
TABLE
  2
UCS
  5
6
330
0
100
AcDbSymbolTable
 70
0
  0
ENDTAB
  0
TABLE
  2
APPID
  5
3
330
0
100
AcDbSymbolTable
 70
3
  0
APPID
  5
2A
330
3
100
AcDbSymbolTableRecord
100
AcDbRegAppTableRecord
  2
ACAD
 70
0
  0
APPID
  5
10E
330
3
100
AcDbSymbolTableRecord
100
AcDbRegAppTableRecord
  2
HATCHBACKGROUNDCOLOR
 70
0
  0
APPID
  5
10F
330
3
100
AcDbSymbolTableRecord
100
AcDbRegAppTableRecord
  2
EZDXF
 70
0
  0
ENDTAB
  0
TABLE
  2
DIMSTYLE
  5
4
330
0
100
AcDbSymbolTable
 70
1
100
AcDbDimStyleTable
  0
DIMSTYLE
105
2B
330
4
100
AcDbSymbolTableRecord
100
AcDbDimStyleTableRecord
  2
Standard
 70
0
 40
1.0
 41
2.5
 42
0.625
 43
3.75
 44
1.25
 45
0.0
 46
0.0
 47
0.0
 48
0.0
 49
2.5
140
2.5
141
2.5
142
0.0
143
0.03937007874
144
1.0
145
0.0
146
1.0
147
0.625
148
0.0
 69
0
 70
0
 71
0
 72
0
 73
0
 74
0
 75
0
 76
0
 77
1
 78
8
 79
3
170
0
171
3
172
1
173
0
174
0
175
0
176
0
177
0
178
0
179
2
271
2
272
2
273
2
274
3
275
0
276
0
277
2
278
44
279
0
280
0
281
0
282
0
283
0
284
8
285
0
286
0
288
0
289
3
290
0
371
-2
372
-2
  0
ENDTAB
  0
TABLE
  2
BLOCK_RECORD
  5
9
330
0
100
AcDbSymbolTable
 70
2
  0
BLOCK_RECORD
  5
17
330
9
100
AcDbSymbolTableRecord
100
AcDbBlockTableRecord
  2
*Model_Space
340
1A
 70
0
280
1
281
0
  0
BLOCK_RECORD
  5
1B
330
9
100
AcDbSymbolTableRecord
100
AcDbBlockTableRecord
  2
*Paper_Space
340
1E
 70
0
280
1
281
0
  0
ENDTAB
  0
ENDSEC
  0
SECTION
  2
BLOCKS
  0
BLOCK
  5
18
330
17
100
AcDbEntity
  8
0
100
AcDbBlockBegin
  2
*Model_Space
 70
0
 10
0.0
 20
0.0
 30
0.0
  3
*Model_Space
  1

  0
ENDBLK
  5
19
330
17
100
AcDbEntity
  8
0
100
AcDbBlockEnd
  0
BLOCK
  5
1C
330
1B
100
AcDbEntity
  8
0
100
AcDbBlockBegin
  2
*Paper_Space
 70
0
 10
0.0
 20
0.0
 30
0.0
  3
*Paper_Space
  1

  0
ENDBLK
  5
1D
330
1B
100
AcDbEntity
  8
0
100
AcDbBlockEnd
  0
ENDSEC
  0
SECTION
  2
ENTITIES
  0
LWPOLYLINE
  5
2F
330
17
100
AcDbEntity
  8
0
 62
0
100
AcDbPolyline
 90
1463
 70
0
 10
401.28269202711573
 20
0.76934197061993
 10
399.8905959844827
 20
2.4449081670615804
 10
399.0743995428323
 20
3.5292968999717367
 10
398.2512236356973
 20
4.601229215798153
 10
398.11209970545315
 20
4.786861440147071
 10
397.53361431346417
 20
12.5
 10
397.06313220685956
 20
6.226905245271849
 10
396.92063481810084
 20
6.429945017037166
 10
396.3139124632119
 20
7.2867732297752035
 10
395.61802346708765
 20
8.232643152413143
 10
395.55733692338623
 20
8.316301465627724
 10
395.98361431346416
 20
14.0
 10
395.23361431346416
 20
24.0
 10
394.48361431346416
 20
14.0
 10
394.83399833332976
 20
9.328213068458751
 10
394.4555917501687
 20
9.895075823006405
 10
394.11480767729273
 20
10.485859895882381
 10
393.829561781907
 20
11.021105791268123
 10
393.4705320120095
 20
11.630135561165584
 10
393.0023232221841
 20
12.348344350991024
 10
392.93780830628214
 20
12.444080095760501
 10
392.93361431346415
 20
12.5
 10
392.9302603676873
 20
12.455280722975811
 10
392.4857216596841
 20
13.114945913491024
 10
391.96554191114893
 20
13.88512566202618
 10
391.4487877607583
 20
14.651879812416805
 10
391.3198684676018
 20
14.849944611499037
 10
390.6336143134642
 20
24.0
 10
390.1007705385409
 20
16.895416334356362
 10
389.9437657118081
 20
17.156901861367
 10
389.50839288237086
 20
17.842274690804256
 10
389.133459639573
 20
18.467207933602108
 10
388.81783778669825
 20
19.032829786476864
 10
388.6229389073664
 20
19.357661252029903
 10
389.0836143134642
 20
25.5
 10
388.3336143134642
 20
35.5
 10
387.5836143134642
 20
25.5
 10
387.9650190645381
 20
20.414603319013715
 10
387.63338382246485
 20
20.967283750710262
 10
387.31880862715235
 20
21.531858946022762
 10
386.94456393721094
 20
22.15610363596417
 10
386.49904925825587
 20
22.851618314919246
 10
386.1059370756387
 20
23.494730497536434
 10
386.0657293259752
 20
23.57179983318648
 10
386.03361431346417
 20
24.0
 10
386.0095723375444
 20
23.679440321069762
 10
385.8332429647683
 20
24.017424608406795
 10
385.61808068754664
 20
24.482586885628475
 10
385.34543807508936
 20
25.00522949808575
 10
384.9524021864175
 20
25.648265386757622
 10
384.50578935148707
 20
26.34487822168805
 10
384.4080284596662
 20
26.507811383972967
 10
383.73361431346416
 20
35.5
 10
383.21056241000946
 20
28.525974620603918
 10
382.9922219038247
 20
28.85842754953839
 10
382.45689160826197
 20
29.64386370295025
 10
381.9876394987344
 20
30.36323025339581
 10
381.7204349646038
 20
30.82427534852851
 10
382.18361431346415
 20
37.0
 10
381.43361431346415
 20
47.0
 10
380.68361431346415
 20
37.0
 10
381.06352424702317
 20
31.934534219212964
 10
380.8554974317788
 20
32.26044561975934
 10
380.1687632322549
 20
33.230956102547424
 10
379.3427329778909
 20
34.2585716497276
 10
379.21736140551616
 20
34.38337210597383
 10
379.1336143134642
 20
35.5
 10
379.06150332769977
 20
34.53852018980745
 10
378.4601097822427
 20
35.137174154457824
 10
377.6226011038064
 20
35.79902174585797
 10
377.4999900867725
 20
35.885010310777886
 10
377.5836143134642
 20
37.0
 10
376.8336143134642
 20
47.0
 10
376.0836143134642
 20
37.0
 10
376.1059192613449
 20
36.70260069492334
 10
375.2550659895181
 20
36.89657261484601
 10
374.15669448378077
 20
36.87778141611554
 10
373.2795210600137
 20
36.70375588053204
 10
372.9520035754883
 20
36.57852349365467
 10
372.98361431346416
 20
37.0
 10
372.23361431346416
 20
47.0
 10
371.48361431346416
 20
37.0
 10
371.5844014858725
 20
35.65617103455535
 10
371.1623936414956
 20
35.30843021982648
 10
370.03245490755995
 20
34.182125412055825
 10
369.93361431346415
 20
35.5
 10
369.8166137603703
 20
33.939992625414874
 10
368.97636849882593
 20
32.92475655191876
 10
368.38988215925684
 20
32.05449297541119
 10
367.96077324189963
 20
31.362119045805642
 10
368.3836143134642
 20
37.0
 10
367.6336143134642
 20
47.0
 10
366.8836143134642
 20
37.0
 10
367.3731315472791
 20
30.473103549134475
 10
366.9524770498513
 20
29.852014566597713
 10
366.4821782827615
 20
29.131601358589897
 10
366.1248646497964
 20
28.524181867775695
 10
365.88897450749283
 20
28.09519741295111
 10
365.3336143134642
 20
35.5
 10
364.6220443893343
 20
26.012401011601465
 10
364.31881768705836
 20
25.468153024849663
 10
363.9445634603738
 20
24.843898798165096
 10
363.49904925825587
 20
24.148384596047176
 10
363.1059370756387
 20
23.50527241342999
 10
363.075145434591
 20
23.44625171830891
 10
363.03361431346417
 20
24.0
 10
362.97813750275844
 20
23.260309190590053
 10
362.83324248793116
 20
22.98257782572247
 10
362.61808974745264
 20
22.517425085243953
 10
362.3453951597451
 20
21.994730497536434
 10
361.95228297712794
 20
21.351618314919246
 10
361.50676877501
 20
20.656104112801327
 10
361.13251454832545
 20
20.031849886116756
 10
361.06432359519147
 20
19.909457089697142
 10
361.48361431346416
 20
25.5
 10
360.73361431346416
 20
35.5
 10
359.98361431346416
 20
25.5
 10
360.4785010929271
 20
18.901509607160992
 10
360.4429913282632
 20
18.8423266660545
 10
360.00751454832545
 20
18.156849886116756
 10
359.97936496783086
 20
18.109971165806286
 10
359.97936496783086
 20
18.10997116580627
 10
359.63176877501
 20
17.531104112801327
 10
359.3272834539651
 20
16.976618791756405
 10
359.00186988591855
 20
16.423259033940955
 10
358.43361431346415
 20
24.0
 10
357.7208147741084
 20
14.496006141923683
 10
357.4800010442971
 20
14.129336382088436
 10
357.12242467405787
 20
13.521760011849178
 10
356.8280821562051
 20
12.977417493996395
 10
356.46974093916407
 20
12.36907627695538
 10
356.17710074564957
 20
11.920180904195085
 10
356.1336143134642
 20
12.5
 10
356.0788211880355
 20
11.769424994283813
 10
356.00153214933863
 20
11.65086748712994
 10
355.4842420339822
 20
10.883577371773494
 10
354.97315890791407
 20
10.12249424570538
 10
354.9203039856037
 20
10.043209845830713
 10
354.9203039856037
 20
10.043209845830718
 10
354.4731970548867
 20
9.372532392678036
 10
354.20632119211587
 20
8.96942504868928
 10
354.5836143134642
 20
14.0
 10
353.8336143134642
 20
24.0
 10
353.0836143134642
 20
14.0
 10
353.5369636487192
 20
7.95534219659947
 10
353.5001474142312
 20
7.8994817983482015
 10
352.9758749723672
 20
7.125228429970516
 10
352.3503041982888
 20
6.249551798043026
 10
352.0343437087607
 20
5.823608062713334
 10
351.53361431346417
 20
12.5
 10
350.92101982447997
 20
4.332073480210994
 10
350.89136607649317
 20
4.292486692604793
 10
350.17795522215357
 20
3.3303194295737875
 10
349.3444019079446
 20
2.2285738241050375
 10
347.8642421484231
 20
0.46494391077495933
 10
347.4332498182206
 20
0.0
 10
334.37166941154067
 20
0.0
 10
334.37166941154067
 20
-5.0
 10
326.37166941154067
 20
-5.0
 10
326.37166941154067
 20
0.0
 10
316.37166941154067
 20
0.0
 10
316.37166941154067
 20
-5.0
 10
308.37166941154067
 20
-5.0
 10
308.37166941154067
 20
0.0
 10
294.80538972401735
 20
0.0
 10
294.63699395658955
 20
0.19851019495464683
 10
293.36177880766377
 20
1.7419176351401937
 10
292.5020271063088
 20
2.8504257451865804
 10
291.81992490293965
 20
3.7805404912803304
 10
291.09930951597676
 20
4.75127031916119
 10
290.978913919312
 20
4.910807870736892
 10
290.40972450961726
 20
12.5
 10
289.9438828502918
 20
6.288777875660937
 10
289.59862048628315
 20
6.752046133217586
 10
288.97387845518574
 20
7.626789117989315
 10
288.45134217741474
 20
8.399325395760311
 10
288.4408660003201
 20
8.415219876037987
 10
288.85972450961725
 20
14.0
 10
288.10972450961725
 20
24.0
 10
287.35972450961725
 20
14.0
 10
287.69370420173493
 20
9.546937438430424
 10
287.478117060685
 20
9.872550512490047
 10
287.41929651402654
 20
9.960784698601687
 10
287.41929651402654
 20
9.960784698601685
 10
286.978174281144
 20
10.622493292031063
 10
286.46709020140156
 20
11.383577371773494
 10
285.9498000860451
 20
12.15086748712994
 10
285.8211033759122
 20
12.348281782734157
 10
285.80972450961724
 20
12.5
 10
285.8006936997554
 20
12.379589201842489
 10
285.4815912962197
 20
12.86907627695538
 10
285.12325007917866
 20
13.477417493996395
 10
284.8289075613259
 20
14.021760011849178
 10
284.4713311910866
 20
14.629336382088436
 10
284.1791590690022
 20
15.074205874866912
 10
283.50972450961723
 20
24.0
 10
282.9756314338407
 20
16.878758989645906
 10
282.62404878141865
 20
17.476618791756405
 10
282.31956346037373
 20
18.031104112801327
 10
282.2109059256476
 20
18.212056229691
 10
282.2109059256476
 20
18.212056229691008
 10
281.9438176870583
 20
18.656849886116756
 10
281.50834090712056
 20
19.3423266660545
 10
281.4990592204102
 20
19.3577961439052
 10
281.9597245096173
 20
25.5
 10
281.2097245096173
 20
35.5
 10
280.4597245096173
 20
25.5
 10
280.83443855651296
 20
20.503812708057332
 10
280.8188176870583
 20
20.531849886116756
 10
280.44456346037373
 20
21.156104112801327
 10
279.9990492582558
 20
21.851618314919246
 10
279.6059370756386
 20
22.494730497536434
 10
279.3332424879311
 20
23.017425085243953
 10
279.1180897474526
 20
23.48257782572247
 10
278.9200632288311
 20
23.86215041048176
 10
278.90972450961726
 20
24.0
 10
278.90198472438976
 20
23.896802863633738
 10
278.84539515974507
 20
24.00527241342999
 10
278.4522829771279
 20
24.648384596047176
 10
278.00676877500996
 20
25.343898798165093
 10
277.6325145483254
 20
25.96815302484967
 10
277.31799466612324
 20
26.53267290705181
 10
277.27717149856466
 20
26.60070681403415
 10
276.60972450961725
 20
35.5
 10
276.08832015504515
 20
28.54794193903854
 10
275.820748877549
 20
29.0300855886314
 10
275.458257269883
 20
29.64078047388531
 10
275.0522752523659
 20
30.295897508797417
 10
274.64446647169575
 20
30.967711950478332
 10
274.6108380303853
 20
31.0148469435744
 10
275.05972450961724
 20
37.0
 10
274.30972450961724
 20
47.0
 10
273.55972450961724
 20
37.0
 10
273.9380648528392
 20
31.955462090373796
 10
272.6003733396767
 20
33.53571083658673
 10
272.1194408341224
 20
34.037115673264985
 10
272.00972450961723
 20
35.5
 10
271.91592186253047
 20
34.24929803884315
 10
270.834592413926
 20
35.376657510933654
 10
270.3662989911414
 20
35.754326420321654
 10
270.4597245096173
 20
37.0
 10
269.7097245096173
 20
47.0
 10
268.9597245096173
 20
37.0
 10
268.9780942768377
 20
36.75506977039438
 10
268.01462371351704
 20
37.11357929819562
 10
266.9024029493569
 20
37.09622242563702
 10
265.83763473196234
 20
36.70546963126771
 10
265.85972450961725
 20
37.0
 10
265.10972450961725
 20
47.0
 10
264.35972450961725
 20
37.0
 10
264.4590425915566
 20
35.67575890747449
 10
264.26537091734394
 20
35.52341559046246
 10
262.91405741325553
 20
34.108894618156086
 10
262.80972450961724
 20
35.5
 10
262.68741414853065
 20
33.869195185512176
 10
261.4965019941567
 20
32.4368319761131
 10
260.84841368778046
 20
31.51585570884317
 10
261.25972450961723
 20
37.0
 10
260.50972450961723
 20
47.0
 10
259.75972450961723
 20
37.0
 10
260.2440047732535
 20
30.542929818183175
 10
259.9914594412087
 20
30.13916494959332
 10
259.62964684965596
 20
29.52914908045269
 10
259.3188482046364
 20
28.968273187813537
 10
258.9435578108071
 20
28.34287502878643
 10
258.76732044664215
 20
28.06538750633472
 10
258.2097245096173
 20
35.5
 10
257.49146602356194
 20
25.923220185929118
 10
257.4428377866982
 20
25.842173124489555
 10
257.0084601164101
 20
25.157795454201473
 10
256.6333838224648
 20
24.53271916025616
 10
256.31880910398945
 20
23.96814444178082
 10
255.95733407102085
 20
23.365205847952197
 10
255.90972450961726
 20
24.0
 10
255.84937110658302
 20
23.19528795954376
 10
255.49909217360005
 20
22.648427511391414
 10
255.10605628492817
 20
22.00539162271954
 10
254.83226306440815
 20
21.48159840219952
 10
254.61635501387104
 20
21.01569035166241
 10
254.3548489332436
 20
20.50418427103497
 10
253.9798489332436
 20
19.87918427103497
 10
253.93283244633818
 20
19.808105822945954
 10
254.35972450961725
 20
25.5
 10
253.60972450961725
 20
35.5
 10
252.85972450961725
 20
25.5
 10
253.352014953739
 20
18.936127411709684
 10
252.95726306440815
 20
18.35659840219952
 10
252.88352965657322
 20
18.244156241757914
 10
252.88352965657322
 20
18.244156241757906
 10
252.48105676176533
 20
17.630392099556698
 10
252.12408311369404
 20
17.02341845148541
 10
251.86795056113857
 20
16.556985979715645
 10
251.30972450961724
 20
24.0
 10
250.5944658944466
 20
14.463218464391604
 10
250.32635600569233
 20
13.9756913434837
 10
249.9687700987099
 20
13.368105436501278
 10
249.50160796644673
 20
12.650943304238094
 10
249.0487753104702
 20
11.979322655294164
 10
249.00972450961723
 20
12.5
 10
248.96088493421837
 20
11.84880566134865
 10
248.47408587934956
 20
11.123421217140926
 10
247.97482211592182
 20
10.374157453713192
 10
247.47492797377095
 20
9.624263311562313
 10
247.0880376710814
 20
9.044175486188653
 10
247.45972450961727
 20
14.0
 10
246.70972450961727
 20
24.0
 10
245.95972450961727
 20
14.0
 10
246.40827569875586
 20
8.01931747815232
 10
245.99851615431294
 20
7.397850538429989
 10
245.48422820570454
 20
6.633581663307918
 10
244.9104310597383
 20
5.823912665052915
 10
244.40972450961726
 20
12.5
 10
243.79885388268667
 20
4.355058307592065
 10
243.24851806166157
 20
3.6496386777732504
 10
242.30022723677143
 20
2.4525914441917074
 10
241.2728586912392
 20
1.1570306073997152
 10
240.30876003973336
 20
0.0
 10
227.24777960769381
 20
0.0
 10
227.24777960769381
 20
-5.0
 10
219.24777960769381
 20
-5.0
 10
219.24777960769381
 20
0.0
 10
209.24777960769381
 20
0.0
 10
209.24777960769381
 20
-5.0
 10
201.24777960769381
 20
-5.0
 10
201.24777960769381
 20
0.0
 10
187.64226882674816
 20
0.0
 10
186.66906268599018
 20
1.166441465554012
 10
185.62365825178608
 20
2.4800381910178793
 10
184.71724803450093
 20
3.6352048169944418
 10
183.99623401167378
 20
4.6042313825462
 10
183.8637546317754
 20
4.7944009865993715
 10
183.28583470577036
 20
12.5
 10
182.8192625162819
 20
6.279037473487415
 10
182.8134589910744
 20
6.287226701912655
 10
182.1262989759682
 20
7.224367643532528
 10
181.48325402739033
 20
8.117413545784725
 10
181.31336268793888
 20
8.367039762246852
 10
181.73583470577034
 20
14.0
 10
180.98583470577034
 20
24.0
 10
180.23583470577034
 20
14.0
 10
180.5756153087001
 20
9.469591960936498
 10
180.46871907713398
 20
9.631948496041073
 10
179.9688249349831
 20
10.381842638191952
 10
179.45077950956806
 20
11.14988806360699
 10
178.98147208693013
 20
11.86919548624493
 10
178.69691019244198
 20
12.35232684437842
 10
178.68583470577033
 20
12.5
 10
178.67726123087652
 20
12.385687001415926
 10
178.62320716383442
 20
12.477460409340633
 10
178.32891662123188
 20
13.021750951943172
 10
177.97133071424946
 20
13.629336858925594
 10
177.49297959806904
 20
14.357687975106014
 10
177.06152133015246
 20
14.99084500823811
 10
176.38583470577032
 20
24.0
 10
175.85792776863588
 20
16.96124083820737
 10
175.8195639372109
 20
17.03110363596417
 10
175.4438086271523
 20
17.656858946022762
 10
175.15282080886305
 20
18.114917987148093
 10
175.15282080886305
 20
18.114917987148097
 10
175.0083838224648
 20
18.342283750710262
 10
174.6334601164101
 20
18.96720745676495
 10
174.37994883713657
 20
19.421521751549417
 10
174.83583470577037
 20
25.5
 10
174.08583470577037
 20
35.5
 10
173.33583470577037
 20
25.5
 10
173.70884709704598
 20
20.526501449658582
 10
173.50850303175434
 20
20.84216454142071
 10
173.13350303175434
 20
21.46716454142071
 10
172.81782920362934
 20
22.03283836954571
 10
172.44282920362934
 20
22.65783836954571
 10
172.00850303175434
 20
23.34216454142071
 10
171.81041084136513
 20
23.67231819206942
 10
171.78583470577036
 20
24.0
 10
171.76671993364107
 20
23.745136371609547
 10
171.63350303175434
 20
23.96716454142071
 10
171.31782920362934
 20
24.53283836954571
 10
170.94282920362934
 20
25.15783836954571
 10
170.5085035085915
 20
25.84216406458355
 10
170.1675541667213
 20
26.410407187320853
 10
169.48583470577034
 20
35.5
 10
168.95557443610898
 20
28.42986307118156
 10
168.63248403074726
 20
28.968273187813537
 10
168.32168538572773
 20
29.52914908045269
 10
167.959872794175
 20
30.13916494959332
 10
167.5438013792275
 20
30.80437233561016
 10
167.4790359488423
 20
30.909349907625913
 10
167.93583470577033
 20
37.0
 10
167.18583470577033
 20
47.0
 10
166.43583470577033
 20
37.0
 10
166.81663325511386
 20
31.92268600875307
 10
166.454830241227
 20
32.4368319761131
 10
165.24817807676777
 20
33.888126398262756
 10
164.98615424136838
 20
34.162406192026296
 10
164.88583470577035
 20
35.5
 10
164.80012033254275
 20
34.35714169029858
 10
163.6859608412026
 20
35.523415113625305
 10
163.25076575748778
 20
35.86574735623263
 10
163.33583470577037
 20
37.0
 10
162.58583470577037
 20
47.0
 10
161.83583470577037
 20
37.0
 10
161.85068624098795
 20
36.801979530431794
 10
161.04888637068257
 20
37.096179510292785
 10
159.9365893125771
 20
37.113460088906066
 10
158.71016902509075
 20
36.657790924271865
 10
158.73583470577034
 20
37.0
 10
157.98583470577034
 20
47.0
 10
157.23583470577034
 20
37.0
 10
157.34382624015237
 20
35.56011287490631
 10
157.11847455503926
 20
35.3783922445152
 10
155.79816702459988
 20
34.00223574893939
 10
155.68583470577033
 20
35.5
 10
155.5544504539202
 20
33.748209975331406
 10
155.34150512220845
 20
33.526257063088195
 10
153.97493894102558
 20
31.9151821386192
 10
153.72802748745664
 20
31.562570422484193
 10
154.13583470577035
 20
37.0
 10
153.38583470577035
 20
47.0
 10
152.63583470577035
 20
37.0
 10
153.1186351441848
 20
30.562660821140575
 10
153.074317526841
 20
30.47115805262066
 10
152.8299670934914
 20
29.977672601876034
 10
152.4493633032082
 20
29.348865534004936
 10
152.00767714979634
 20
28.65710213297345
 10
151.64448472153543
 20
28.051333123132284
 10
151.08583470577037
 20
35.5
 10
150.3675539480194
 20
25.922923229987468
 10
150.13350303175434
 20
25.532838369545708
 10
149.81782920362934
 20
24.96716454142071
 10
149.44282920362934
 20
24.34216454142071
 10
149.00850303175434
 20
23.65783836954571
 10
148.83338640624328
 20
23.365977327027274
 10
148.78583470577036
 20
24.0
 10
148.72469680516224
 20
23.18482799189221
 10
148.63350303175434
 20
23.03283836954571
 10
148.31782920362934
 20
22.46716454142071
 10
147.94282920362934
 20
21.84216454142071
 10
147.50850303175434
 20
21.15783836954571
 10
147.13350303175434
 20
20.53283836954571
 10
146.82134448936063
 20
19.97346378120364
 10
147.23583470577034
 20
25.5
 10
146.48583470577034
 20
35.5
 10
145.73583470577034
 20
25.5
 10
146.2235810053894
 20
18.99671600507916
 10
146.0085035085915
 20
18.65783884638287
 10
145.73941268078806
 20
18.209358695483512
 10
145.73941268078806
 20
18.209358695483505
 10
145.63349397184834
 20
18.032829309639705
 10
145.31787259581074
 20
17.467207933602108
 10
144.9429393530129
 20
16.842274690804256
 10
144.74592491622047
 20
16.532130527331862
 10
144.18583470577033
 20
24.0
 10
143.46275417173337
 20
14.358926212840007
 10
143.00258738996968
 20
13.651922727761043
 10
142.48590953352436
 20
12.88524487131573
 10
141.9646311521767
 20
12.113966489968075
 10
141.9197768924421
 20
12.04743751104356
 10
141.88583470577035
 20
12.5
 10
141.84339573324007
 20
11.934147032929708
 10
141.4472742796181
 20
11.34660961740948
 10
140.9902544737099
 20
10.639589811501278
 10
140.64932734968647
 20
10.04866268747784
 10
140.62219773421177
 20
10.000865862146458
 10
140.62219773421177
 20
10.00086586214646
 10
140.3211551428078
 20
9.470490480599178
 10
139.954937790305
 20
8.921374460462197
 10
140.33583470577034
 20
14.0
 10
139.58583470577034
 20
24.0
 10
138.83583470577034
 20
14.0
 10
139.2869210673403
 20
7.985515179067277
 10
139.15596921446308
 20
7.8053045522544515
 10
138.51309592726216
 20
6.912430311379207
 10
137.95567185881123
 20
6.105025316414608
 10
137.78380011282516
 20
5.860461239269031
 10
137.28583470577036
 20
12.5
 10
136.67331643465639
 20
4.333089718480541
 10
136.64261395933613
 20
4.29174711817242
 10
135.78189237120137
 20
3.1830129873130453
 10
134.759358000779
 20
1.9117222081992757
 10
133.52029092314228
 20
0.40446283930279137
 10
133.18066434195396
 20
0.0
 10
120.1238898038469
 20
0.0
 10
120.1238898038469
 20
-5.0
 10
112.1238898038469
 20
-5.0
 10
112.1238898038469
 20
0.0
 10
102.1238898038469
 20
0.0
 10
102.1238898038469
 20
-5.0
 10
94.1238898038469
 20
-5.0
 10
94.1238898038469
 20
0.0
 10
80.56252023186268
 20
0.0
 10
79.1156655073403
 20
1.7198386442039144
 10
78.10573012831198
 20
2.9979663144920004
 10
77.22059781553732
 20
4.131855035958065
 10
76.74126413962146
 20
4.77574349735978
 10
76.16194490192345
 20
12.5
 10
75.69328225540475
 20
6.251164713084121
 10
75.31325347425924
 20
6.78743221872784
 10
74.62729699614034
 20
7.7233696233604086
 10
74.18706585575889
 20
8.334946051139323
 10
74.61194490192344
 20
14.0
 10
73.86194490192344
 20
24.0
 10
73.11194490192344
 20
14.0
 10
73.45808446514395
 20
9.384805823726438
 10
73.44116694929586
 20
9.409500623879207
 10
72.94128139021383
 20
10.159386182961239
 10
72.48321588041769
 20
10.867451692757381
 10
72.12418611052023
 20
11.476481462654842
 10
71.82879741194235
 20
12.021870161232723
 10
71.56406559046901
 20
12.471724152725754
 10
71.56194490192345
 20
12.5
 10
71.56030365725339
 20
12.478116737732577
 10
71.47128779890524
 20
12.629379774269832
 10
70.99298865797506
 20
13.357678915200008
 10
70.45819861891256
 20
14.142468954262508
 10
69.98094613554464
 20
14.869721437630428
 10
69.9417120285705
 20
14.93643831137249
 10
69.26194490192344
 20
24.0
 10
68.73577058462439
 20
16.98434243601273
 10
68.50838382246481
 20
17.342283750710262
 10
68.13346011641012
 20
17.96720745676495
 10
68.01398831971187
 20
18.1813113231457
 10
67.81783826353536
 20
18.532829309639705
 10
67.4428287267922
 20
19.15783884638287
 10
67.25811097953485
 20
19.44888103481867
 10
67.71194490192345
 20
25.5
 10
66.96194490192345
 20
35.5
 10
66.21194490192345
 20
25.5
 10
66.58256113600002
 20
20.558450212312273
 10
66.31782920362936
 20
21.03283836954571
 10
65.94282920362936
 20
21.65783836954571
 10
65.50850303175436
 20
22.34216454142071
 10
65.13350303175436
 20
22.96716454142071
 10
64.81782920362936
 20
23.53283836954571
 10
64.67971814143297
 20
23.763023473206356
 10
64.66194490192345
 20
24.0
 10
64.64812127119382
 20
23.815684923604945
 10
64.44282920362936
 20
24.15783836954571
 10
64.00850350859152
 20
24.842164064583553
 10
63.63349397184835
 20
25.467173601326714
 10
63.317872595810755
 20
26.03279497736432
 10
63.036855659861516
 20
26.501189894159033
 10
62.361944901923444
 20
35.5
 10
61.83728334402302
 20
28.504512561327704
 10
61.826467585587366
 20
28.524181867775695
 10
61.46915395262228
 20
29.131601358589897
 10
60.998855185532435
 20
29.852014566597713
 10
60.478344988846644
 20
30.620538736519585
 10
60.34829792862003
 20
30.818040355954437
 10
60.81194490192345
 20
37.0
 10
60.06194490192345
 20
47.0
 10
59.31194490192345
 20
37.0
 10
59.699572648040785
 20
31.831630051768858
 10
59.56145007612692
 20
32.05449297541119
 10
58.974963736557825
 20
32.92475655191876
 10
58.00711257460104
 20
34.09417393320538
 10
57.856091738597385
 20
34.244708844347485
 10
57.76194490192344
 20
35.5
 10
57.68089550443719
 20
34.41934136684987
 10
56.78893764021383
 20
35.30842926615216
 10
56.12604626656743
 20
35.85468486191983
 10
56.211944901923445
 20
37.0
 10
55.461944901923445
 20
47.0
 10
54.711944901923445
 20
37.0
 10
54.73602360283333
 20
36.67895065453486
 10
54.67160947325216
 20
36.70356276148297
 10
53.796414446854456
 20
36.87952425592877
 10
52.6993304014443
 20
36.899473692116516
 10
51.738760066056116
 20
36.667563940224426
 10
51.580403028180655
 20
36.57944168342943
 10
51.61194490192345
 20
37.0
 10
50.86194490192345
 20
47.0
 10
50.11194490192345
 20
37.0
 10
50.20937353413649
 20
35.70095157049276
 10
49.743051600479944
 20
35.35407593363263
 10
49.34124286177145
 20
34.98043968790509
 10
49.05243165495382
 20
34.671207929787414
 10
48.74388654234396
 20
34.38580277079083
 10
48.65279448024753
 20
34.288672289012226
 10
48.56194490192345
 20
35.5
 10
48.45530147418008
 20
34.078087630088476
 10
48.37746055128561
 20
33.995086694893615
 10
47.96134335997091
 20
33.401461149391906
 10
47.49069840910421
 20
32.657806421456115
 10
46.9837337255715
 20
31.880919481453674
 10
46.58319227067091
 20
31.2832982499662
 10
47.01194490192344
 20
37.0
 10
46.26194490192344
 20
47.0
 10
45.51194490192344
 20
37.0
 10
46.00548254595246
 20
30.419498079613195
 10
45.97622115614401
 20
30.375724817452202
 10
45.468175959610804
 20
29.617607618508114
 10
44.951512885117396
 20
28.850829626259575
 10
44.5109410840694
 20
28.180050904720567
 10
43.961944901923445
 20
35.5
 10
43.2355801590099
 20
25.815136761152697
 10
42.9522395849465
 20
25.351574922737846
 10
42.50677735807882
 20
24.656112695870174
 10
42.13252313139425
 20
24.031858469185604
 10
41.81794841291891
 20
23.467283750710262
 10
41.71479210941183
 20
23.295370566821585
 10
41.66194490192345
 20
24.0
 10
41.593999896309235
 20
23.09406659181049
 10
41.4428721189736
 20
22.84220745676495
 10
41.00849397184835
 20
22.157829309639705
 10
40.63350350859152
 20
21.53283884638287
 10
40.31782920362936
 20
20.96716454142071
 10
39.94282920362936
 20
20.34216454142071
 10
39.69593121659267
 20
19.953150862256265
 10
40.11194490192345
 20
25.5
 10
39.36194490192345
 20
35.5
 10
38.61194490192345
 20
25.5
 10
39.10130862463143
 20
18.975150363893587
 10
38.8178721189736
 20
18.46720745676495
 10
38.61924092690898
 20
18.136128523428642
 10
38.44294841291891
 20
17.842283750710262
 10
38.00752360823141
 20
17.156858946022762
 10
37.631768298172815
 20
16.53110363596417
 10
37.62327248276414
 20
16.51563225545736
 10
37.06194490192345
 20
24.0
 10
36.34368118967186
 20
14.4231505033122
 10
35.95835263731466
 20
13.857687975106014
 10
35.48000152113424
 20
13.129336858925594
 10
35.12241561415182
 20
12.521750951943172
 10
34.82812554838644
 20
11.977460886177791
 10
34.80418392272665
 20
11.936813055957295
 10
34.76194490192345
 20
12.5
 10
34.70737935028754
 20
11.772459311521208
 10
34.46985108854757
 20
11.369186426338924
 10
34.000596117997034
 20
10.649931455788387
 10
33.5620916033533
 20
9.99978477248323
 10
33.482617449784144
 20
9.881952787575496
 10
32.98168237211691
 20
9.13101770990826
 10
32.82943857901393
 20
8.899915694539857
 10
33.211944901923445
 20
14.0
 10
32.461944901923445
 20
24.0
 10
31.711944901923445
 20
14.0
 10
32.16870667265703
 20
7.909843056885572
 10
31.977060389542444
 20
7.626413847145809
 10
31.352302145981653
 20
6.751549745735897
 10
30.66249482709224
 20
5.826000997749451
 10
30.161944901923448
 20
12.5
 10
29.54929564631056
 20
4.331343258494875
 10
29.210274767899378
 20
3.862638975319637
 10
28.57119662764059
 20
2.9553685438010824
 10
27.190237593674524
 20
1.2909393560264242
 10
25.98442901891241
 20
0.0
 10
13.0
 20
0.0
 10
13.0
 20
-5.0
 10
5.0
 20
-5.0
 10
5.0
 20
0.0
 10
0.0
 20
0.0
 10
0.0
 20
22.503892443826604
 10
0.3974185705422002
 20
22.462728525337948
 10
1.7533536672829229
 20
22.796278978523983
 10
3.047815871262415
 20
23.790042902169
 10
4.4178143263100225
 20
25.276930357155578
 10
5.633368086838587
 20
26.74545767420269
 10
6.428887915634974
 20
27.8173923742149
 10
6.854259085678919
 20
28.505894209084282
 10
7.150462222123011
 20
29.05140211695172
 10
7.512298655533655
 20
29.661475206551323
 10
7.941862654709681
 20
30.341107870278133
 10
8.317219328904017
 20
30.966572786507378
 10
8.632588934922083
 20
31.531923319039123
 10
9.006814074540003
 20
32.15614941233136
 10
9.452274394059046
 20
32.8516097318504
 10
9.845386576676233
 20
33.49472191446759
 10
10.118132662796839
 20
34.017468000588195
 10
10.333361697220667
 20
34.48269703501202
 10
10.604957652115687
 20
35.00429298990704
 10
10.99731452467428
 20
35.64664986246564
 10
11.454017710709437
 20
36.35335304850079
 10
11.84637458326803
 20
36.99570992105939
 10
12.11797053816305
 20
37.517305875954406
 10
12.333199572586878
 20
37.982534910378234
 10
12.605946135544642
 20
38.505281473336
 10
12.999048781418665
 20
39.14838411921002
 10
13.444563937210901
 20
39.84389927500226
 10
13.818808627152308
 20
40.468143964943664
 10
14.133383822464808
 20
41.032719160256164
 10
14.330160480828248
 20
41.36065357341504
 10
14.12241561415182
 20
41.713639669275764
 10
13.828125548386438
 20
42.257929735041145
 10
13.46985156538473
 20
42.86620467171717
 10
13.00058658125387
 20
43.5854505823617
 10
12.482670378708704
 20
44.35347264275599
 10
11.981732440018519
 20
45.10452502236414
 10
11.49817187788473
 20
45.83609812722254
 10
10.975796294236048
 20
46.60723011956263
 10
10.359711718582972
 20
47.49150746331263
 10
9.651066851639612
 20
48.48361294732142
 10
8.86294705870138
 20
49.47640030846644
 10
7.960639071488245
 20
50.37869017586756
 10
6.949911189102991
 20
51.18421404824305
 10
5.979471278214319
 20
51.87120192513514
 10
5.22104032042013
 20
52.36227744088221
 10
4.687532496476038
 20
52.656353883600715
 10
4.279977393174036
 20
52.87262433037806
 10
3.8119140386818486
 20
53.12257187829066
 10
2.8298936605690557
 20
53.407147340631965
 10
0.9284039259193975
 20
53.614218168116096
 10
0.0
 20
53.61442253876261
 10
0.0
 20
65.62173969385832
 10
0.5508752584694463
 20
65.62176516169049
 10
2.007927012467249
 20
65.82612469309308
 10
3.0556035757301885
 20
66.10915091150738
 10
3.7598787069557744
 20
66.3834610235069
 10
4.27806050779806
 20
66.63716127985455
 10
4.687487673783167
 20
66.82729675882794
 10
5.078692030930384
 20
66.96547463053204
 10
5.768028807663782
 20
67.37040379160382
 10
7.063482832932337
 20
68.4593978177879
 10
8.720547270798548
 20
70.1165490400169
 10
10.11028010847555
 20
71.71099999063946
 10
10.966225218796595
 20
72.85039618128278
 10
11.511447501206263
 20
73.66381170862653
 10
11.992469859146937
 20
74.3935904752586
 10
12.479616236710413
 20
75.12874939554669
 10
12.973761153244837
 20
75.87300875299908
 10
13.473431658768519
 20
76.62278511637189
 10
13.983269763016565
 20
77.3826041471336
 10
14.436627199696602
 20
78.05533652137841
 10
14.317837786698206
 20
78.26821749672938
 10
13.942837786698206
 20
78.89321749672938
 10
13.50846011641012
 20
79.57759516701746
 10
13.133383822464808
 20
80.20267146096278
 10
12.818808627152308
 20
80.76724665627528
 10
12.444563937210901
 20
81.39149134621668
 10
11.999048781418665
 20
82.08700650200892
 10
11.605946135544642
 20
82.73010914788294
 10
11.333199572586878
 20
83.2528557108407
 10
11.11797053816305
 20
83.71808474526453
 10
10.84637458326803
 20
84.23968070015955
 10
10.454017710709437
 20
84.88203757271815
 10
9.99731452467428
 20
85.5887407587533
 10
9.604957652115687
 20
86.2310976313119
 10
9.333365511917933
 20
86.75268977150965
 10
9.118061137223108
 20
87.21799557671595
 10
8.845714640641077
 20
87.74031346306849
 10
8.453261446976526
 20
88.38292544350672
 10
7.99943501951681
 20
89.08692448601771
 10
7.617703986191614
 20
89.71565525994349
 10
7.383653712296351
 20
90.1979526804452
 10
7.166245532059534
 20
90.69262974724818
 10
6.501256060623987
 20
91.65658181176234
 10
4.929924082779749
 20
93.40944903359461
 10
2.752811980271204
 20
95.46514885888148
 10
0.9290357351540166
 20
96.88208096489954
 10
0.0
 20
97.36862595207037
 10
0.0
 20
120.0
 10
5.0
 20
120.0
 10
5.0
 20
125.0
 10
13.0
 20
125.0
 10
13.0
 20
120.0
 10
25.65232953500259
 20
120.0
 10
25.850329947495325
 20
119.7843589113717
 10
27.298698973679407
 20
118.05251973137905
 10
28.308701109909876
 20
116.77432530388879
 10
29.246902537369593
 20
115.58736746773768
 10
29.58819709490478
 20
115.14997076024893
 10
30.161944901923448
 20
107.5
 10
30.6332460482665
 20
113.78401528457404
 10
30.875914645218714
 20
113.460228376246
 10
31.48427159788595
 20
112.60176556572961
 10
31.998507094406946
 20
111.83754914269495
 10
32.134313280048445
 20
111.63157837499998
 10
31.711944901923445
 20
106.0
 10
32.461944901923445
 20
96.0
 10
33.211944901923445
 20
106.0
 10
32.873400160537855
 20
110.51392988514124
 10
32.974287104630335
 20
110.36176817879725
 10
33.47492797377096
 20
109.61112730965662
 10
33.59530394623705
 20
109.43055060551755
 10
33.97482211592184
 20
108.86123316750574
 10
34.47408587934957
 20
108.11196940407801
 10
34.74649069487408
 20
107.70605609399156
 10
34.76194490192345
 20
107.5
 10
34.77429207417055
 20
107.66462896329467
 10
34.984174799942835
 20
107.35188048348475
 10
35.50160796644674
 20
106.58444731698084
 10
35.968770098709925
 20
105.86728518471766
 10
36.32635600569235
 20
105.25969927773524
 10
36.37395957955141
 20
105.17313763162711
 10
37.06194490192345
 20
96.0
 10
37.59720787895557
 20
103.13683969376164
 10
37.81959826948629
 20
102.76645701394129
 10
38.124083113694056
 20
102.21197216973353
 10
38.481056761765345
 20
101.60499852166224
 10
38.70040738692583
 20
101.2704926455406
 10
38.95726306440817
 20
100.87879221901942
 10
39.07715361199992
 20
100.70278280101954
 10
38.61194490192345
 20
94.5
 10
39.36194490192345
 20
84.5
 10
40.11194490192345
 20
94.5
 10
39.71804526662516
 20
99.75199513731054
 10
39.979848933243616
 20
99.35620635018397
 10
40.354848933243616
 20
98.73120635018397
 10
40.61635501387106
 20
98.21970026955653
 10
40.83226306440817
 20
97.75379221901942
 10
41.10605628492819
 20
97.2299989984994
 10
41.49909217360006
 20
96.58696310982752
 10
41.633681926281774
 20
96.3768396752223
 10
41.66194490192345
 20
96.0
 10
41.68428294978903
 20
96.29784063820773
 10
41.944554877304896
 20
95.89150040612269
 10
42.318809103989466
 20
95.26724617943812
 10
42.63338382246481
 20
94.70267146096278
 10
43.00846011641012
 20
94.07759516701746
 10
43.27513721805393
 20
93.65743578492693
 10
43.961944901923445
 20
84.5
 10
44.49450669353603
 20
91.60082388816782
 10
44.50841958525167
 20
91.5776347445016
 10
44.94364411833273
 20
90.89242928490687
 10
45.319077086472376
 20
90.26688807473231
 10
45.62773950102316
 20
89.70815794930506
 10
45.97151063621743
 20
89.12754312391974
 10
45.51194490192344
 20
83.0
 10
46.26194490192344
 20
73.0
 10
47.01194490192344
 20
83.0
 10
46.630065028709794
 20
88.09173164284871
 10
46.886911463761194
 20
87.68856947884608
 10
47.47776753904806
 20
86.81899540886927
 10
48.37356956007467
 20
85.66859477028895
 10
48.48317258597461
 20
85.55029754598452
 10
48.56194490192345
 20
84.5
 10
48.62891913219348
 20
85.39298973693377
 10
49.53995187284933
 20
84.4096898363595
 10
50.18176167985583
 20
83.93089037243179
 10
50.11194490192345
 20
83.0
 10
50.86194490192345
 20
73.0
 10
51.61194490192345
 20
83.0
 10
51.6016734896301
 20
83.13695216391126
 10
52.359214854264124
 20
82.84699957833338
 10
53.86985213758932
 20
82.6705507563119
 10
54.71950183941302
 20
82.89924083347232
 10
55.461944901923445
 20
73.0
 10
56.211944901923445
 20
83.0
 10
56.15565076557684
 20
83.75058848462142
 10
56.72307641508566
 20
84.20069115624476
 10
57.70511890769595
 20
85.25767992303338
 10
57.76194490192344
 20
84.5
 10
57.82875093785567
 20
85.39074714576297
 10
58.254706454300745
 20
85.84921019539881
 10
59.45214803221212
 20
87.29962532982874
 10
59.65606065647742
 20
87.5882100607196
 10
59.31194490192345
 20
83.0
 10
60.06194490192345
 20
73.0
 10
60.81194490192345
 20
83.0
 10
60.386252460085515
 20
88.67589922450576
 10
60.543944430374964
 20
88.93096726403284
 10
60.95995004179464
 20
89.59627764687586
 10
61.32179601194845
 20
90.20636027321864
 10
61.63150508406149
 20
90.76613800988245
 10
61.86302514150473
 20
91.15226347224952
 10
62.361944901923444
 20
84.5
 10
63.001668337596975
 20
93.02964580898045
 10
63.118080687546595
 20
93.25280373559046
 10
63.333242964768274
 20
93.71796601281214
 10
63.605937075638636
 20
94.2406601236825
 10
63.99904925825582
 20
94.88377230629969
 10
64.4445639372109
 20
95.57928698525477
 10
64.81880862715231
 20
96.20353167519617
 10
65.13338382246481
 20
96.76810687050867
 10
65.50846011641012
 20
97.39318316445399
 10
65.9428377866982
 20
98.07756083474207
 10
66.3178377866982
 20
98.70256083474207
 10
66.55963623376913
 20
99.13588442460916
 10
66.21194490192345
 20
94.5
 10
66.96194490192345
 20
84.5
 10
67.71194490192345
 20
94.5
 10
67.27588081789402
 20
100.314187787059
 10
67.44380862715231
 20
100.57853167519617
 10
67.8195639372109
 20
101.20428698525477
 10
68.12404878141867
 20
101.75877182946253
 10
68.48094613554464
 20
102.36566918358851
 10
68.75338356377372
 20
102.78081784199624
 10
69.26194490192344
 20
96.0
 10
69.89915687110121
 20
104.49615958903699
 10
69.97133119108663
 20
104.6060542391305
 10
70.32890756132589
 20
105.21363060936976
 10
70.62325007917867
 20
105.75797312722254
 10
70.98159129621969
 20
106.36631434426356
 10
71.44980008604513
 20
107.084523134089
 10
71.96709020140158
 20
107.85181324944544
 10
72.47817380430685
 20
108.61289685235072
 10
72.97812612059103
 20
109.3628491686349
 10
73.41347528401768
 20
110.02040509458979
 10
73.11194490192344
 20
106.0
 10
73.86194490192344
 20
96.0
 10
74.61194490192344
 20
106.0
 10
74.21951800690091
 20
111.23235860030037
 10
74.4747300863503
 20
111.60945313439417
 10
75.09997947218405
 20
112.48470347390223
 10
75.72501946504396
 20
113.3256724917265
 10
76.16194490192345
 20
107.5
 10
76.69607559138083
 20
114.6217425260984
 10
77.30514628889547
 20
115.4400715158944
 10
78.09148700239645
 20
116.47442477212002
 10
79.26083714964376
 20
117.89253132805871
 10
81.03136403563009
 20
119.93125050530482
 10
81.09114242766945
 20
120.0
 10
94.1238898038469
 20
120.0
 10
94.1238898038469
 20
125.0
 10
102.1238898038469
 20
125.0
 10
102.1238898038469
 20
120.0
 10
112.1238898038469
 20
120.0
 10
112.1238898038469
 20
125.0
 10
120.1238898038469
 20
125.0
 10
120.1238898038469
 20
120.0
 10
132.7185601692072
 20
120.0
 10
133.84812552931294
 20
118.78656332955407
 10
135.381250453019
 20
116.96996825203945
 10
136.21481330397114
 20
115.86821310982751
 10
136.70927204268992
 20
115.18750217440594
 10
137.28583470577036
 20
107.5
 10
137.7509125928419
 20
113.7010384942873
 10
138.0041204214333
 20
113.3320226000314
 10
138.62969119551167
 20
112.45634596810388
 10
139.25619494499082
 20
111.60480318960651
 10
138.83583470577034
 20
106.0
 10
139.58583470577034
 20
96.0
 10
140.33583470577034
 20
106.0
 10
139.99215064666618
 20
110.58245412138889
 10
140.51005465986714
 20
109.82600062356043
 10
141.01001651289448
 20
109.07603877053309
 10
141.46808249952778
 20
108.36797278389979
 10
141.82702643873677
 20
107.7590288446908
 10
141.8727249171898
 20
107.67479718107393
 10
141.88583470577035
 20
107.5
 10
141.89576010180508
 20
107.63233861379663
 10
142.1235142469643
 20
107.21254103646326
 10
142.48177917006
 20
106.60427611336756
 10
142.9488898039101
 20
105.88716547951746
 10
143.46556766035542
 20
105.12048762307215
 10
143.50632375756066
 20
105.06014597612928
 10
144.18583470577033
 20
96.0
 10
144.72855563501452
 20
103.23627905658901
 10
144.96866042616352
 20
102.86739485726405
 10
145.32630355360493
 20
102.25975172982264
 10
145.6318879842995
 20
101.70416729912806
 10
146.00755746366963
 20
101.07849781975794
 10
146.20581542995805
 20
100.76640965583604
 10
145.73583470577034
 20
94.5
 10
146.48583470577034
 20
84.5
 10
147.23583470577034
 20
94.5
 10
146.84426695079958
 20
99.72090339961025
 10
147.1325145483254
 20
99.20354073510218
 10
147.50676877500996
 20
98.57928650841761
 10
147.95228297712788
 20
97.88377230629969
 10
148.34539515974507
 20
97.2406601236825
 10
148.6180897474526
 20
96.71796553597498
 10
148.7540295797055
 20
96.42406834753112
 10
148.78583470577036
 20
96.0
 10
148.80876467838755
 20
96.30573296822946
 10
148.8332424879311
 20
96.25281279549647
 10
149.10593707563862
 20
95.73011820778895
 10
149.4990492582558
 20
95.08700602517176
 10
149.94456346037373
 20
94.39149182305384
 10
150.3188176870583
 20
93.76723759636927
 10
150.4019877520641
 20
93.61795938274999
 10
151.08583470577037
 20
84.5
 10
151.61843884638702
 20
91.60138854155558
 10
151.81947095396504
 20
91.26658337578822
 10
152.12490756514057
 20
90.711165838099
 10
152.48229510786518
 20
90.10367005333948
 10
152.9515424490212
 20
89.38435500130701
 10
153.09838522883672
 20
89.16734030755165
 10
152.63583470577035
 20
83.0
 10
153.38583470577035
 20
73.0
 10
154.13583470577035
 20
83.0
 10
153.74565361739565
 20
88.20241451166297
 10
153.96134622099385
 20
87.87709277138758
 10
154.4222055196999
 20
87.15329354271937
 10
154.97002990248188
 20
86.32664626107264
 10
155.61337158641703
 20
85.46617492471063
 10
155.68583470577033
 20
84.5
 10
155.74542815406494
 20
85.29457931059446
 10
156.68870265486225
 20
84.2628130243783
 10
157.29788864259262
 20
83.82738582429702
 10
157.23583470577034
 20
83.0
 10
157.98583470577034
 20
73.0
 10
158.73583470577034
 20
83.0
 10
158.72907724874835
 20
83.09009942695972
 10
159.32494313719258
 20
82.86440842614222
 10
160.83566625120625
 20
82.6533126162057
 10
161.8410368340227
 20
82.93063828996847
 10
162.58583470577037
 20
73.0
 10
163.33583470577037
 20
83.0
 10
163.27137339080957
 20
83.85948419947698
 10
163.86997277739033
 20
84.34571450219202
 10
164.82120323263794
 20
85.36175297509872
 10
164.88583470577035
 20
84.5
 10
164.9617232064864
 20
85.51184667621422
 10
165.6163554907082
 20
86.21107953057337
 10
166.7802148796225
 20
87.59173565136194
 10
166.43583470577033
 20
83.0
 10
167.18583470577033
 20
73.0
 10
167.93583470577033
 20
83.0
 10
167.51635980839154
 20
88.59299863171739
 10
167.62825400831684
 20
88.75212805733729
 10
167.87716681959614
 20
89.26419060692835
 10
168.12139947416767
 20
89.75772707924891
 10
168.50196034910664
 20
90.38652461037684
 10
168.9436555624245
 20
91.07828848824549
 10
168.98703643697803
 20
91.15064358389778
 10
169.48583470577034
 20
84.5
 10
170.12964126729636
 20
93.08408748701359
 10
170.44287211897358
 20
93.57759516701746
 10
170.8179484129189
 20
94.20267146096278
 10
171.1325236082314
 20
94.76724665627528
 10
171.5067682981728
 20
95.39149134621668
 10
171.95228297712788
 20
96.08700602517176
 10
172.34539515974507
 20
96.73011820778895
 10
172.61808927061543
 20
97.25281231865931
 10
172.8332515478371
 20
97.71797459588099
 10
173.10589416029438
 20
98.24061720833826
 10
173.49893004896626
 20
98.88365309701014
 10
173.68655788519203
 20
99.17630905895564
 10
173.33583470577037
 20
94.5
 10
174.08583470577037
 20
84.5
 10
174.83583470577037
 20
94.5
 10
174.3974224765435
 20
100.34549638969106
 10
174.6239295721291
 20
100.75865262017298
 10
174.9809032202004
 20
101.36562626824427
 10
175.4582081556557
 20
102.09293120369959
 10
175.882199626866
 20
102.71513438539112
 10
176.38583470577032
 20
96.0
 10
177.0297083041122
 20
104.58498131122495
 10
177.12325055601582
 20
104.7579736040597
 10
177.48158223631367
 20
105.36630528435755
 10
177.9498434782265
 20
106.0845665262704
 10
178.4672003507851
 20
106.85192339882899
 10
178.97723777296528
 20
107.61196082100916
 10
179.47650153639302
 20
108.3612245844369
 10
179.9764481306313
 20
109.11117117867518
 10
180.4771462202309
 20
109.86186926827479
 10
180.53164376915328
 20
109.94412084510559
 10
180.23583470577034
 20
106.0
 10
180.98583470577034
 20
96.0
 10
181.73583470577034
 20
106.0
 10
181.34745241003327
 20
111.17843060982767
 10
181.45135600569233
 20
111.33608000741053
 10
181.9744253874062
 20
112.10913031563805
 10
182.599183630967
 20
112.983994417048
 10
182.84935084677272
 20
113.31978478663517
 10
183.28583470577036
 20
107.5
 10
183.81940128896662
 20
114.6142211092837
 10
184.08913857939228
 20
114.97207634911585
 10
184.7495318174599
 20
115.88122599587487
 10
185.4059668302773
 20
116.80585329995205
 10
186.75513513090596
 20
118.43849175438928
 10
188.20874095328244
 20
120.0
 10
201.24777960769381
 20
120.0
 10
201.24777960769381
 20
125.0
 10
209.24777960769381
 20
125.0
 10
209.24777960769381
 20
120.0
 10
219.24777960769381
 20
120.0
 10
219.24777960769381
 20
125.0
 10
227.24777960769381
 20
125.0
 10
227.24777960769381
 20
120.0
 10
239.73726419318996
 20
120.0
 10
241.1901942014931
 20
118.4444946573739
 10
242.57120568754658
 20
116.78001301751186
 10
243.2102742910622
 20
115.87275212273644
 10
243.84788107031636
 20
114.99124585734495
 10
244.40972450961726
 20
107.5
 10
244.86958842343108
 20
113.63151885085084
 10
245.35225875380024
 20
112.98388426766445
 10
245.97695024015889
 20
112.10908692345666
 10
246.37390480698963
 20
111.52240396496455
 10
245.95972450961727
 20
106.0
 10
246.70972450961727
 20
96.0
 10
247.45972450961727
 20
106.0
 10
247.13126781378878
 20
110.37942261104641
 10
247.47414309980854
 20
109.86191218361903
 10
247.97476489546284
 20
109.11129038796473
 10
248.47581059935078
 20
108.36024468407679
 10
248.97582013609394
 20
107.61023514733363
 10
249.00470929006104
 20
107.56686959408272
 10
249.00972450961723
 20
107.5
 10
249.0137247456135
 20
107.55333647994978
 10
249.47472102644429
 20
106.86133425698328
 10
249.974042010331
 20
106.11201327309657
 10
250.48418385984883
 20
105.35187142357874
 10
250.62387275933844
 20
105.14469000371749
 10
251.30972450961724
 20
96.0
 10
251.85085984803032
 20
103.21513784550726
 10
252.13187844755635
 20
102.70417683587122
 10
252.5075670004128
 20
102.07848828301478
 10
252.9429393530129
 20
101.39311593041468
 10
253.31787259581074
 20
100.76818268761683
 10
253.32842050265333
 20
100.7492799071477
 10
252.85972450961725
 20
94.5
 10
253.60972450961725
 20
84.5
 10
254.35972450961725
 20
94.5
 10
253.97468026392914
 20
99.63392327584158
 10
254.0085035085915
 20
99.57755177483607
 10
254.44282920362934
 20
98.89322607979823
 10
254.81782920362934
 20
98.26822607979823
 10
255.1335035085915
 20
97.70255177483607
 10
255.50849397184834
 20
97.07756131157923
 10
255.87184255256727
 20
96.50509276066637
 10
255.90972450961726
 20
96.0
 10
255.93959990823953
 20
96.39833864829684
 10
255.94287211897358
 20
96.39318316445399
 10
256.3179484129189
 20
95.76810687050867
 10
256.63252313139424
 20
95.20353215203333
 10
257.0067773580788
 20
94.57927792534876
 10
257.45224006178364
 20
93.88381522164393
 10
257.51344905183623
 20
93.78367277041338
 10
258.2097245096173
 20
84.5
 10
258.7353156771486
 20
91.50788223375115
 10
258.97077615263447
 20
91.1151890085702
 10
259.4655404806374
 20
90.37035601601649
 10
260.00443799498066
 20
89.58322184548426
 10
260.2267941770767
 20
89.22759556612682
 10
259.75972450961723
 20
83.0
 10
260.50972450961723
 20
73.0
 10
261.25972450961723
 20
83.0
 10
260.8790291407836
 20
88.07593825111528
 10
261.151155543351
 20
87.64773982033778
 10
262.34941918852314
 20
86.19665520653773
 10
262.71153129160354
 20
85.80924290684989
 10
262.80972450961724
 20
84.5
 10
262.89333016247264
 20
85.61474203807212
 10
264.0538693189858
 20
84.3731178568368
 10
264.4391724563977
 20
84.05930595707339
 10
264.35972450961725
 20
83.0
 10
265.10972450961725
 20
73.0
 10
265.85972450961725
 20
83.0
 10
265.85930042619447
 20
83.0056544456373
 10
267.11832864286885
 20
82.65252392754603
 10
268.6289754629372
 20
82.8650349901681
 10
268.96051072612863
 20
82.98951711318153
 10
269.7097245096173
 20
73.0
 10
270.4597245096173
 20
83.0
 10
270.41094752859993
 20
83.65035974689759
 10
271.23687465193257
 20
84.23714392647791
 10
271.96950196871643
 20
85.0363005453441
 10
272.00972450961723
 20
84.5
 10
272.0571147092911
 20
85.1318693289852
 10
272.2315359831093
 20
85.32212965951014
 10
273.1272617101906
 20
86.47260659203577
 10
273.89088637831196
 20
87.51505320534754
 10
273.89924607794836
 20
87.52695424441497
 10
273.55972450961724
 20
83.0
 10
274.30972450961724
 20
73.0
 10
275.05972450961724
 20
83.0
 10
274.64016382231796
 20
88.59414249732424
 10
274.99074704649433
 20
89.12705653176356
 10
275.3331228018044
 20
89.71768801674891
 10
275.62955005171284
 20
90.26418297753382
 10
276.0049734831093
 20
90.88971465096522
 10
276.1173586362689
 20
91.0648783113118
 10
276.60972450961725
 20
84.5
 10
277.25008943319057
 20
93.0381989809778
 10
277.3332434416054
 20
93.2179664896493
 10
277.6059370756386
 20
93.7406601236825
 10
277.9990492582558
 20
94.38377230629969
 10
278.4445639372109
 20
95.07928698525477
 10
278.8188086271523
 20
95.70353167519617
 10
279.1333838224648
 20
96.26810687050867
 10
279.5084601164101
 20
96.89318316445399
 10
279.94283826353535
 20
97.57756131157923
 10
280.3178287267922
 20
98.20255177483607
 10
280.63350303175434
 20
98.76822607979823
 10
280.8007469561518
 20
99.04696595379397
 10
280.4597245096173
 20
94.5
 10
281.2097245096173
 20
84.5
 10
281.9597245096173
 20
94.5
 10
281.53045495890956
 20
100.22359400943591
 10
281.81783826353535
 20
100.70256131157923
 10
282.13345963957295
 20
101.26818268761683
 10
282.5083928823708
 20
101.89311593041468
 10
282.9437652349709
 20
102.57848828301478
 10
283.0082795153536
 20
102.68593325684834
 10
283.50972450961723
 20
96.0
 10
284.1574011620742
 20
104.63568869942631
 10
284.4497247457741
 20
105.084447793818
 10
284.96714837553486
 20
105.85187142357874
 10
285.4772902250527
 20
106.61201327309657
 10
285.9766112089394
 20
107.36133425698328
 10
286.47551209928974
 20
108.11023514733363
 10
286.9755216360329
 20
108.86024468407679
 10
287.3585680254455
 20
109.43441473295783
 10
287.4765668630837
 20
109.61128991112757
 10
287.65008369037326
 20
109.8714557434138
 10
287.35972450961725
 20
106.0
 10
288.10972450961725
 20
96.0
 10
288.85972450961725
 20
106.0
 10
288.47609839181837
 20
111.11501490398479
 10
288.9512191534279
 20
111.83594315514613
 10
289.47549159529194
 20
112.6101965235238
 10
289.97411360294944
 20
113.30814542223756
 10
290.40972450961726
 20
107.5
 10
290.94377398148345
 20
114.62065962488245
 10
291.5583506345986
 20
115.44128840432215
 10
292.2818508863686
 20
116.41354506478356
 10
293.13277060987934
 20
117.5326570795541
 10
294.5810876608132
 20
119.2644442842965
 10
295.26006758350894
 20
120.0
 10
308.37166941154067
 20
120.0
 10
308.37166941154067
 20
125.0
 10
316.37166941154067
 20
125.0
 10
316.37166941154067
 20
120.0
 10
326.37166941154067
 20
120.0
 10
326.37166941154067
 20
125.0
 10
334.37166941154067
 20
125.0
 10
334.37166941154067
 20
120.0
 10
346.99879982131534
 20
120.0
 10
347.84005935194483
 20
119.01115935311367
 10
349.09798438551417
 20
117.48504202828454
 10
349.94769866468897
 20
116.38657134041834
 10
350.63047034742823
 20
115.45578711495446
 10
350.9713577105773
 20
114.99675470515797
 10
351.53361431346417
 20
107.5
 10
351.9936569157076
 20
113.6339013632456
 10
352.12135941984644
 20
113.46467774376916
 10
352.8527022123574
 20
112.48335402474451
 10
353.47746331694117
 20
111.60859196648646
 10
353.5015840523682
 20
111.57292985205338
 10
353.0836143134642
 20
106.0
 10
353.8336143134642
 20
96.0
 10
354.5836143134642
 20
106.0
 10
354.2492792767733
 20
110.45780048921206
 10
354.48324067594996
 20
110.10281460747767
 10
354.97419507505884
 20
109.36186020836878
 10
355.4748836279153
 20
108.61117165551234
 10
355.9748311758279
 20
107.86122410759974
 10
356.1232251387396
 20
107.63852232966099
 10
356.1336143134642
 20
107.5
 10
356.1419013663992
 20
107.61049403913373
 10
356.47408540251246
 20
107.11196988091517
 10
356.9841747999429
 20
106.35188048348475
 10
357.5016079664468
 20
105.58444731698084
 10
357.7425181836109
 20
105.21461506470989
 10
358.43361431346415
 20
96.0
 10
358.96928293461025
 20
103.14224828194833
 10
359.00756700041285
 20
103.07848828301478
 10
359.44293935301295
 20
102.39311593041468
 10
359.8178725958108
 20
101.76818268761683
 10
360.04011618016784
 20
101.36990255976968
 10
360.04011618016784
 20
101.36990255976966
 10
360.1334939718484
 20
101.20256131157923
 10
360.447105384072
 20
100.67988094143837
 10
359.98361431346416
 20
94.5
 10
360.73361431346416
 20
84.5
 10
361.48361431346416
 20
94.5
 10
361.09859280802925
 20
99.6336200724651
 10
361.3178292036294
 20
99.26822607979823
 10
361.6335030317544
 20
98.70255225167323
 10
362.0085030317544
 20
98.07755225167323
 10
362.4428292036294
 20
97.39322607979823
 10
362.8178292036294
 20
96.76822607979823
 10
363.0005551092606
 20
96.44078938938122
 10
363.03361431346417
 20
96.0
 10
363.0588401964976
 20
96.33634510711245
 10
363.13350350859156
 20
96.20255177483607
 10
363.5084939718484
 20
95.57756131157923
 10
363.94287211897364
 20
94.89318316445399
 10
364.31794841291895
 20
94.26810687050867
 10
364.6325231313943
 20
93.70353215203333
 10
364.6448974211939
 20
93.68289189693706
 10
365.3336143134642
 20
84.5
 10
365.8727346027088
 20
91.68827052326209
 10
366.1188183546304
 20
91.21725504860926
 10
366.3342610121011
 20
90.75170414910365
 10
366.6020899534463
 20
90.23380749688197
 10
366.9819622755288
 20
89.60567944512415
 10
367.3368920912852
 20
89.04370370428074
 10
366.8836143134642
 20
83.0
 10
367.6336143134642
 20
73.0
 10
368.3836143134642
 20
83.0
 10
368.0091366680867
 20
87.99303527170028
 10
368.498085093522
 20
87.29876463875819
 10
369.69485719206324
 20
85.84752743706751
 10
369.8444578971352
 20
85.68875221771945
 10
369.93361431346415
 20
84.5
 10
370.00962362064365
 20
85.51345742906035
 10
371.2376757383584
 20
84.21009295449305
 10
371.5559600906788
 20
83.96461036286183
 10
371.48361431346416
 20
83.0
 10
372.23361431346416
 20
73.0
 10
372.9828935785907
 20
82.99039020168675
 10
374.0670457601785
 20
82.65611641869593
 10
375.41860063078394
 20
82.67348282799769
 10
376.09285070563055
 20
82.87684810444802
 10
376.8336143134642
 20
73.0
 10
377.5836143134642
 20
83.0
 10
377.533599571688
 20
83.66686322368265
 10
378.0649152517556
 20
84.0632247255807
 10
379.0846155977467
 20
85.15331620956658
 10
379.1336143134642
 20
84.5
 10
379.1911550815977
 20
85.26721024177988
 10
379.4052167654275
 20
85.49604886040736
 10
380.4608565092324
 20
86.806287221766
 10
381.03102246614213
 20
87.63210870237347
 10
380.68361431346415
 20
83.0
 10
381.43361431346415
 20
73.0
 10
382.18361431346415
 20
83.0
 10
381.751045595487
 20
88.76758290636126
 10
381.97596557142725
 20
89.11227505669642
 10
382.4961386442422
 20
89.88070385918665
 10
382.9787202596902
 20
90.61335318551112
 10
383.24218637906336
 20
91.05237245867757
 10
383.73361431346416
 20
84.5
 10
384.3860268141531
 20
93.19883334251936
 10
384.49909265043726
 20
93.38381569848109
 10
384.94455487730494
 20
94.07927792534876
 10
385.3188091039895
 20
94.70353215203333
 10
385.63338382246485
 20
95.26810687050867
 10
386.00846011641016
 20
95.89318316445399
 10
386.4428382635354
 20
96.57756131157923
 10
386.81782872679224
 20
97.20255177483607
 10
387.1335030317544
 20
97.76822607979823
 10
387.5085030317544
 20
98.39322607979823
 10
387.92480026683256
 20
99.04914604491192
 10
387.5836143134642
 20
94.5
 10
388.3336143134642
 20
84.5
 10
389.0836143134642
 20
94.5
 10
388.64905149515147
 20
100.29417091083593
 10
389.00838382246485
 20
100.89310687050867
 10
389.3096913872146
 20
101.36741076063205
 10
389.3096913872146
 20
101.36741076063207
 10
389.44380862715235
 20
101.57853167519617
 10
389.81956393721094
 20
102.20428698525477
 10
390.1240487814187
 20
102.75877182946253
 10
390.1264058188593
 20
102.76277992806496
 10
390.6336143134642
 20
96.0
 10
391.2755067028767
 20
104.55856519216742
 10
391.4929795980691
 20
104.87770264611292
 10
391.9713307142495
 20
105.60605376229334
 10
392.32891662123194
 20
106.21363966927576
 10
392.6232066869973
 20
106.75792973504115
 10
392.9814811468362
 20
107.36620419488001
 10
393.4507365942239
 20
108.08545964226771
 10
393.9687057256936
 20
108.85342877373743
 10
394.3932466220073
 20
109.48981947983374
 10
394.3932466220073
 20
109.48981947983373
 10
394.469698500657
 20
109.60442154870081
 10
394.7904655402129
 20
110.09134968998286
 10
394.48361431346416
 20
106.0
 10
395.23361431346416
 20
96.0
 10
395.98361431346416
 20
106.0
 10
395.5884377460228
 20
111.26902089921812
 10
396.09873301985255
 20
111.98345702157069
 10
396.8288727522134
 20
112.96357768044518
 10
397.097172586017
 20
113.31922303262886
 10
397.53361431346417
 20
107.5
 10
398.06697244005716
 20
114.61144168790648
 10
398.3331690550088
 20
114.96809428200768
 10
399.03614718916407
 20
115.91908495888758
 10
399.81161792280665
 20
116.94331210122155
 10
400.85702235701075
 20
118.25690882668545
 10
402.3318751985399
 20
120.0
 10
415.4955592153876
 20
120.0
 10
415.4955592153876
 20
125.0
 10
423.4955592153876
 20
125.0
 10
423.4955592153876
 20
120.0
 10
428.4955592153876
 20
120.0
 10
428.4955592153876
 20
97.37095163386122
 10
428.472260546708
 20
97.38315337166834
 10
427.9449282407998
 20
97.36587279305506
 10
427.028883051896
 20
96.88545458779383
 10
425.3454170942544
 20
95.61017172799158
 10
423.38305766584864
 20
93.77131884560633
 10
421.97163016798487
 20
92.17822258935023
 10
421.2955566168069
 20
91.20308154091883
 10
420.90101106169215
 20
90.53128617272425
 10
420.4941411733865
 20
89.87616818413782
 10
420.13044602873316
 20
89.26547329888392
 10
419.81869561674586
 20
88.70355027184534
 10
419.44353253843775
 20
88.07822840676356
 10
419.00840337278834
 20
87.39312785134364
 10
418.6333375692605
 20
86.76806061730433
 10
418.31881768705836
 20
86.20354073510218
 10
417.9445634603738
 20
85.57928650841761
 10
417.49904925825587
 20
84.88377230629969
 10
417.1059370756387
 20
84.2406601236825
 10
416.83324248793116
 20
83.71796553597498
 10
416.61808974745264
 20
83.25281279549647
 10
416.3453951597451
 20
82.73011820778895
 10
415.95228297712794
 20
82.08700602517176
 10
415.50676829817286
 20
81.39149134621668
 10
415.13252360823145
 20
80.76724665627528
 10
414.81794841291895
 20
80.20267146096278
 10
414.44287211897364
 20
79.57759516701746
 10
414.00849444868555
 20
78.89321749672938
 10
413.63349444868555
 20
78.26821749672938
 10
413.5481746680875
 20
78.115317018042
 10
413.6249399900674
 20
77.97572758310773
 10
413.98248727324
 20
77.3681793462608
 10
414.4504967451333
 20
76.65018894785382
 10
414.9682794332742
 20
75.88230040186383
 10
415.4724617719888
 20
75.12800362223126
 10
415.9581166029214
 20
74.39433624857404
 10
416.44917638304224
 20
73.65452005976178
 10
417.0125108480691
 20
72.82299234980084
 10
417.8266273260354
 20
71.72542479151227
 10
419.05725867750635
 20
70.29007532709576
 10
420.54150350096216
 20
68.80574371927716
 10
421.8369575262307
 20
67.71674969309308
 10
422.6991143942117
 20
67.13900044077374
 10
423.2494107008218
 20
66.84173061960675
 10
423.7007184744119
 20
66.60971453302838
 10
424.2008643865823
 20
66.3740501653526
 10
424.8940034628152
 20
66.11087706202008
 10
425.9424162626504
 20
65.82709553354718
 10
427.4006191015481
 20
65.62168886774518
 10
428.4955592153876
 20
65.62173948855384
 10
428.4955592153876
 20
53.61442351631774
 10
427.0239773512124
 20
53.6147474573617
 10
425.1146651029824
 20
53.40072100625086
 10
424.12894828321924
 20
53.110222272730354
 10
423.73318393232813
 20
52.93122237191248
 10
423.43764932157984
 20
52.84715216622401
 10
422.65520579817286
 20
52.3388537691598
 10
420.91975171568384
 20
50.8071736620431
 10
418.68041951658716
 20
48.56782334313441
 10
417.00646836760035
 20
46.689854554987434
 10
416.26080901625147
 20
45.660743169641975
 10
415.9101176977395
 20
45.04180281624842
 10
415.48110873701563
 20
44.3640469835763
 10
414.95727880003443
 20
43.59220402703333
 10
414.4806481123208
 20
42.86545889840174
 10
414.12291295530787
 20
42.25761788353968
 10
413.8289795637368
 20
41.71370356545496
 10
413.6510266564636
 20
41.4113605437038
 10
413.8332429647683
 20
41.0174246084068
 10
414.10593755247584
 20
40.49473002069928
 10
414.49904019834986
 20
39.851627374825256
 10
414.9446068525552
 20
39.156060720619934
 10
415.3189278364419
 20
38.531739736733215
 10
415.6324043989419
 20
37.968263174233215
 10
416.0067253828286
 20
37.343942190346496
 10
416.4522925138711
 20
36.648375059304016
 10
416.84538562300196
 20
36.005281950173156
 10
417.1181326627969
 20
35.482534910378234
 10
417.3333616972207
 20
35.017305875954406
 10
417.60495717527857
 20
34.495710397896545
 10
417.99732358458033
 20
33.85334398859479
 10
418.4539743185281
 20
33.14669325464703
 10
418.8462644338845
 20
32.50440313929059
 10
419.118904662156
 20
31.981762911019104
 10
419.3348599195718
 20
31.515806699929016
 10
419.5972643614053
 20
31.00342133158184
 10
419.97261149885645
 20
30.37796595209576
 10
420.4551935911416
 20
29.645316148934135
 10
420.97536666395655
 20
28.876887346443908
 10
421.4433427572488
 20
28.159710432228813
 10
421.86886651518336
 20
27.471208597359432
 10
422.4905186414956
 20
26.57094242685772
 10
423.54623467924586
 20
25.260780359444396
 10
424.88543756010523
 20
23.82685759180523
 10
426.21589524748316
 20
22.8330173742149
 10
427.5421853780984
 20
22.44754889124371
 10
428.4955592153876
 20
22.44806799606251
 10
428.4955592153876
 20
0.0
 10
423.4955592153876
 20
0.0
 10
423.4955592153876
 20
-5.0
 10
415.4955592153876
 20
-5.0
 10
415.4955592153876
 20
0.0
 10
401.99854436520144
 20
0.0
 10
401.28269202711573
 20
0.76934197061993
  0
LWPOLYLINE
  5
30
330
17
100
AcDbEntity
  8
0
 62
0
100
AcDbPolyline
 90
99
 70
0
 10
327.94032723906025
 20
68.0427022230003
 10
328.9349542379617
 20
68.8308692228172
 10
329.8689475775002
 20
69.76494934671857
 10
330.7987614393471
 20
70.89948132151105
 10
331.71197469236836
 20
72.09614565485455
 10
332.4697175741433
 20
73.12208178156354
 10
333.02498300077906
 20
73.92610361689069
 10
333.4919324636697
 20
74.64106562250592
 10
333.97164399626246
 20
75.37089159601666
 10
334.47220332624903
 20
76.12155678385236
 10
334.9843955755471
 20
76.88372995966412
 10
335.5016947508096
 20
77.65103008860089
 10
335.8029767465794
 20
78.11357802249384
 10
335.5085030317544
 20
78.57755225167323
 10
335.1335030317544
 20
79.20255225167323
 10
334.81782872679224
 20
79.76822655663538
 10
334.4428382635354
 20
80.39321701989222
 10
334.00846011641016
 20
81.07759516701746
 10
333.63338382246485
 20
81.70267146096278
 10
333.31880862715235
 20
82.26724665627528
 10
332.94456393721094
 20
82.89149134621668
 10
332.49904925825587
 20
83.58700602517176
 10
332.1059370756386
 20
84.23011820778895
 10
331.8332424879311
 20
84.75281279549647
 10
331.6180897474526
 20
85.21796553597498
 10
331.3453951597451
 20
85.7406601236825
 10
330.9522829771279
 20
86.38377230629969
 10
330.50677115919575
 20
87.07928412423182
 10
330.1324697256325
 20
87.70358651146937
 10
329.81819922926417
 20
88.26783793435145
 10
329.4435859441994
 20
88.89255707726527
 10
329.0029326200722
 20
89.58332484231043
 10
328.622808051133
 20
90.21146243081141
 10
328.36808784010395
 20
90.71493046746302
 10
328.1070667028664
 20
91.24417775139857
 10
327.48864657881245
 20
92.14623206124354
 10
326.2221141577004
 20
93.61647646889735
 10
324.5860534429787
 20
95.25004427895594
 10
323.2848516226052
 20
96.35453026757288
 10
322.6032610655068
 20
96.78563921914149
 10
322.1752992391823
 20
96.95604889855433
 10
321.61908061506733
 20
97.10994761452723
 10
320.896781992936
 20
97.13007777199793
 10
320.0939970731972
 20
96.91736357674647
 10
319.2405248403786
 20
96.53423302636195
 10
318.35067756178364
 20
96.03341143593836
 10
317.46043355467305
 20
95.37083714470911
 10
316.60766274931416
 20
94.5033702181344
 10
315.8118515730141
 20
93.4937905596261
 10
315.0824242353676
 20
92.48139946923304
 10
314.4486671209572
 20
91.58046334252406
 10
313.95918567183
 20
90.84216731057215
 10
313.6173558950661
 20
90.25227206215907
 10
313.3209143400429
 20
89.70572560296107
 10
312.9446764707802
 20
89.07938139901209
 10
312.50824840071186
 20
88.39297240243006
 10
312.13329656126484
 20
87.76801960930872
 10
311.8188267469643
 20
87.20354979500819
 10
311.44456298353657
 20
86.57928603158045
 10
310.9990492582558
 20
85.88377230629969
 10
310.6059370756386
 20
85.2406601236825
 10
310.3332424879311
 20
84.71796553597498
 10
310.1180897474526
 20
84.25281279549647
 10
309.84539515974507
 20
83.73011820778895
 10
309.4522829771279
 20
83.08700602517176
 10
309.0067682981728
 20
82.39149134621668
 10
308.6325236082314
 20
81.76724665627528
 10
308.3179484129189
 20
81.20267146096278
 10
307.9428721189736
 20
80.57759516701746
 10
307.50849397184834
 20
79.89321701989222
 10
307.1335035085915
 20
79.26822655663538
 10
306.81782920362934
 20
78.70255225167323
 10
306.46937584852503
 20
78.12179665983273
 10
306.96720225813374
 20
77.383464361367
 10
307.4770398855446
 20
76.62364580744244
 10
307.97588832380757
 20
75.87469151133038
 10
308.4811177969216
 20
75.1193475972984
 10
308.9863095999001
 20
74.36614325159528
 10
309.42545087339863
 20
73.67824556940533
 10
309.8115812063454
 20
73.02392199152447
 10
310.4947062254189
 20
72.05734589212872
 10
311.8844390630959
 20
70.46289494150616
 10
313.71432359220967
 20
68.6329236280296
 10
315.1688695669411
 20
67.38483765238263
 10
315.9000869512795
 20
66.93802788370587
 10
316.27325541975483
 20
66.81788590067364
 10
316.6715460539101
 20
66.63888695353009
 10
317.1904736280678
 20
66.384440923867
 10
317.8958473921059
 20
66.10903122538068
 10
318.9434571981667
 20
65.82609083765485
 10
320.40040595533833
 20
65.62173225992657
 10
322.05057628157124
 20
65.62155106180646
 10
323.5099821806191
 20
65.82816174143292
 10
324.5592838049172
 20
66.11283209436871
 10
325.23914058210835
 20
66.36272289865948
 10
325.71982581617823
 20
66.57892658823468
 10
326.23424060347065
 20
66.87404968851544
 10
326.9790216207741
 20
67.3658042203758
 10
327.94032723906025
 20
68.0427022230003
  0
LWPOLYLINE
  5
31
330
17
100
AcDbEntity
  8
0
 62
0
100
AcDbPolyline
 90
34
 70
0
 10
344.31862170698633
 20
65.01723139748621
 10
343.6011386633157
 20
65.98482888207484
 10
342.975491595292
 20
66.86058180794764
 10
342.4512186765908
 20
67.63483565316248
 10
341.9680019140481
 20
68.36805336937952
 10
341.47715528013697
 20
69.10890000329066
 10
340.9764476537942
 20
69.85960762963343
 10
340.84466455867704
 20
70.0572893110376
 10
340.64447267057886
 20
69.79683687799908
 10
339.2822519064187
 20
68.16642382257916
 10
337.32703311445704
 20
65.9277348768089
 10
334.996439528489
 20
63.39252998941876
 10
332.7277026891946
 20
61.12380268686749
 10
331.06001782259125
 20
59.65027101998444
 10
332.8306942701577
 20
58.00870650277186
 10
336.44635827543726
 20
54.39298527703333
 10
339.3431511640786
 20
51.291528634882454
 10
340.7833106288115
 20
49.59017595041823
 10
340.98408944609156
 20
49.88342478388287
 10
341.62571961882105
 20
50.775054956612365
 10
342.3211265325784
 20
51.72046187036969
 10
342.94679553511133
 20
52.596131826576965
 10
343.493030619645
 20
53.39234783762433
 10
344.0842309713601
 20
54.23365404718854
 10
344.8191762686013
 20
55.21871378534772
 10
345.69853646757593
 20
56.346086527046936
 10
346.66910035612574
 20
57.56540682428815
 10
347.7317949056863
 20
58.89629366510846
 10
348.4676830533238
 20
59.78753028921991
 10
348.0811305761575
 20
60.206291131830696
 10
346.6327615499734
 20
61.93813031182337
 10
345.7818513632058
 20
63.057232789850715
 10
345.05835063459864
 20
64.0294899271493
 10
344.31862170698633
 20
65.01723139748621
  0
LWPOLYLINE
  5
32
330
17
100
AcDbEntity
  8
0
 62
0
100
AcDbPolyline
 90
97
 70
0
 10
312.2619114637612
 20
49.649926595545296
 10
311.3146901846169
 20
48.49803774819422
 10
310.5642166853188
 20
47.464103631830696
 10
309.9662442922829
 20
46.59793847069788
 10
309.4539061308144
 20
45.83684390053797
 10
308.96885402204975
 20
45.10377924904871
 10
308.4779539823769
 20
44.36276476845789
 10
307.97814042570576
 20
43.61284535393763
 10
307.4670987844704
 20
42.851822786188606
 10
306.94979960920796
 20
42.08452265725184
 10
306.5554690210404
 20
41.47963910727817
 10
306.8454290151833
 20
41.00523855799176
 10
307.1181236028908
 20
40.48254397028424
 10
307.3333621740578
 20
40.01730539911725
 10
307.6049576521157
 20
39.49570992105939
 10
307.99731452467427
 20
38.85335304850079
 10
308.4540177107094
 20
38.14664986246564
 10
308.846374583268
 20
37.50429298990704
 10
309.11797053816304
 20
36.98269703501202
 10
309.33319957258686
 20
36.517468000588195
 10
309.6059466123818
 20
35.99472096079327
 10
309.99903972151264
 20
35.351627851662414
 10
310.4446068525551
 20
34.656060720619934
 10
310.81892783644184
 20
34.031739736733215
 10
311.1324039221047
 20
33.46826365107037
 10
311.50673444273457
 20
32.84393313044049
 10
311.9522462606667
 20
32.14842131250836
 10
312.34532935621723
 20
31.505337263283508
 10
312.6188183546303
 20
30.981867338356743
 10
312.8342614889382
 20
30.51631643885113
 10
313.10208089354023
 20
29.998419786629448
 10
313.48200566771015
 20
29.370291734871643
 10
313.90926892759785
 20
28.69389917963482
 10
314.3336215734719
 20
28.00542643183209
 10
314.9966946363686
 20
27.06358387583233
 10
316.2038570165871
 20
25.612751985726135
 10
317.7586270094155
 20
23.97004559153057
 10
319.1966996908425
 20
22.829914117989315
 10
320.46516807081684
 20
22.46331455820538
 10
321.69009788038716
 20
22.578846479592098
 10
322.6680207967995
 20
22.81477358454205
 10
323.25652368071064
 20
23.033357645210994
 10
323.7863541364907
 20
23.35488369577862
 10
324.6141420126198
 20
24.01795866602398
 10
325.6588049650429
 20
25.05854847544171
 10
326.62699563505635
 20
26.22716333979107
 10
327.3974219084023
 20
27.281438375649227
 10
328.0119295835732
 20
28.16432907694317
 10
328.49042184355244
 20
28.89154055231549
 10
328.833124709153
 20
29.48225786798931
 10
329.12955672743306
 20
30.028804327187313
 10
329.50497300627217
 20
30.65432646387554
 10
329.9524861097573
 20
31.351820493874328
 10
330.3454738378762
 20
31.99480917566754
 10
330.6181145429848
 20
32.517449880776184
 10
330.83336265089497
 20
32.98269798868634
 10
331.1049576521157
 20
33.50429298990704
 10
331.4973145246743
 20
34.14664986246564
 10
331.9540181875466
 20
34.85335352533795
 10
332.346365523362
 20
35.49570086115338
 10
332.6180134535073
 20
36.017348791298645
 10
332.83331878187647
 20
36.482654119667785
 10
333.10496671202174
 20
37.00430204981305
 10
333.49731404783716
 20
37.64664938562848
 10
333.9540177107095
 20
38.35335304850079
 10
334.3463745832681
 20
38.99570992105939
 10
334.61797006132593
 20
39.51730539911725
 10
334.8332086324929
 20
39.98254397028424
 10
335.10590322020045
 20
40.50523855799176
 10
335.49892957212916
 20
41.14826490992047
 10
335.70414912913674
 20
41.468359758647516
 10
335.4696961164712
 20
41.866360120630745
 10
335.00173957350245
 20
42.58429759011317
 10
334.48484570982447
 20
43.351297311640266
 10
333.968532156968
 20
44.11772530541468
 10
333.46415336134424
 20
44.87011712060023
 10
333.02505500318995
 20
45.557962350702766
 10
332.63822515013203
 20
46.21304123864222
 10
331.9651380300759
 20
47.169580392694954
 10
330.59209020140156
 20
48.746645860529426
 10
328.7302408933877
 20
50.608513288355354
 10
327.13651235105976
 20
51.99846785531092
 10
326.2130399465798
 20
52.64779513344813
 10
325.74105651381
 20
52.90831416115809
 10
325.29332120420924
 20
53.13928406701136
 10
324.3263288259743
 20
53.411077432489876
 10
322.4291477918862
 20
53.61286871895838
 10
320.02383239271626
 20
53.61307566628504
 10
318.1222902059792
 20
53.40825551018763
 10
317.1411014318703
 20
53.124339990473274
 10
316.6619530439614
 20
52.86320441231776
 10
316.23635251524433
 20
52.6289076136117
 10
315.7447257757424
 20
52.37671130166102
 10
315.1453867674111
 20
52.04472773537684
 10
314.34776694776997
 20
51.53055994973231
 10
313.3370390653847
 20
50.72503607735682
 10
312.2619114637612
 20
49.649926595545296
  0
LWPOLYLINE
  5
33
330
17
100
AcDbEntity
  8
0
 62
0
100
AcDbPolyline
 90
35
 70
0
 10
296.88964993956074
 20
55.95798876398541
 10
297.68202979567036
 20
54.91685249918439
 10
298.45992476942524
 20
53.890944982704895
 10
299.01896913053974
 20
53.081786180672424
 10
299.46659953596577
 20
52.38404991739728
 10
299.977432799363
 20
51.62323572748639
 10
300.6199227094887
 20
50.73074486368634
 10
301.33665759565815
 20
49.764009977516906
 10
301.5031674091417
 20
49.53432857208435
 10
301.80826337339863
 20
49.939957551813606
 10
302.71198041441426
 20
51.111866884089
 10
304.0538416624306
 20
52.73719828591395
 10
306.06625182631
 20
54.9542192743783
 10
308.51893575193867
 20
57.406903200006965
 10
310.77060277464375
 20
59.4539603518014
 10
311.18155589641935
 20
59.79131586406749
 10
309.44287831785664
 20
61.40455391520001
 10
305.6760288000344
 20
65.17139389627911
 10
302.74446017744526
 20
68.30757382029034
 10
301.3761063337563
 20
69.9593978177879
 10
301.37550598390453
 20
69.96031136750115
 10
300.9843393087624
 20
69.36906235680628
 10
300.5017247915505
 20
68.63644783959437
 10
299.96800096037373
 20
67.85272400841761
 10
299.3251276731728
 20
66.95984976754237
 10
298.63681609632954
 20
66.02155726418543
 10
298.02750356199726
 20
65.16213887200404
 10
297.466425490403
 20
64.35094635949183
 10
296.76487214567646
 20
63.40138047204066
 10
295.7953549146889
 20
62.1831068323617
 10
294.55546576979145
 20
60.675025396204475
 10
293.7605352049902
 20
59.732506818899935
 10
295.0151053190468
 20
58.38419582956769
 10
296.2332816839455
 20
56.88254931086041
 10
296.88964993956074
 20
55.95798876398541
  0
LWPOLYLINE
  5
34
330
17
100
AcDbEntity
  8
0
 62
0
100
AcDbPolyline
 90
95
 70
0
 10
225.69056470396504
 20
73.57558443659283
 10
226.04292209150776
 20
74.1951942693565
 10
226.46183640959248
 20
74.86291267984845
 10
226.96832330229267
 20
75.61746552103497
 10
227.4757076025246
 20
76.37495472544171
 10
227.9744983434914
 20
77.12385180109479
 10
228.48313195707783
 20
77.88246634119488
 10
228.66427119982922
 20
78.15123918144792
 10
228.6334601164101
 20
78.20259516701746
 10
228.3178377866982
 20
78.76821749672938
 10
227.9428377866982
 20
79.39321749672938
 10
227.5084601164101
 20
80.07759516701746
 10
227.1333838224648
 20
80.70267146096278
 10
226.8188086271523
 20
81.26724665627528
 10
226.4445639372109
 20
81.89149134621668
 10
225.9990492582558
 20
82.58700602517176
 10
225.60593707563862
 20
83.23011820778895
 10
225.3332424879311
 20
83.75281279549647
 10
225.1180897474526
 20
84.21796553597498
 10
224.84539515974507
 20
84.7406601236825
 10
224.45228297712788
 20
85.38377230629969
 10
224.00676877500996
 20
86.07928650841761
 10
223.6325145483254
 20
86.70354073510218
 10
223.31799371244892
 20
87.26806157097865
 10
222.94294650557026
 20
87.89310973153162
 10
222.5077219724892
 20
88.57831519112635
 10
222.13237245085224
 20
89.20377057061243
 10
221.82265813353047
 20
89.76359932885218
 10
221.46131522657856
 20
90.37295525536585
 10
221.0348740339516
 20
91.04814427361536
 10
220.59664876463398
 20
91.75459568963099
 10
219.9670396566628
 20
92.66783802971888
 10
218.86036403181538
 20
93.97824471459437
 10
217.44005115034565
 20
95.39596169457484
 10
216.27974326612934
 20
96.3593820856576
 10
215.62999637129292
 20
96.76095049843836
 10
215.18556649687275
 20
96.94945328698206
 10
214.60712630751118
 20
97.10120623574305
 10
213.86679179670796
 20
97.10196154580164
 10
213.11697251799092
 20
96.94011872277308
 10
212.43980605604634
 20
96.73342745766688
 10
211.69203431608662
 20
96.37478631005335
 10
210.66082007887348
 20
95.57122271523524
 10
209.41942937376484
 20
94.31513684258509
 10
208.30467898848042
 20
92.98661797509241
 10
207.54455955030903
 20
91.94353478417445
 10
207.10604245665058
 20
91.23783867821741
 10
206.79941899778828
 20
90.6824006365304
 10
206.43805224897847
 20
90.07296841607142
 10
206.00962455275044
 20
89.39443581566859
 10
205.63427550795063
 20
88.7689804361825
 10
205.3177543401955
 20
88.2024783419137
 10
204.94279296400532
 20
87.5775160120492
 10
204.5084691763161
 20
86.89319222435999
 10
204.13338334562764
 20
86.26810639367152
 10
203.8188086271523
 20
85.70353167519617
 10
203.4445639372109
 20
85.07928698525477
 10
202.9990492582558
 20
84.38377230629969
 10
202.60593707563862
 20
83.7406601236825
 10
202.3332424879311
 20
83.21796553597498
 10
202.1180897474526
 20
82.75281279549647
 10
201.84539515974507
 20
82.23011820778895
 10
201.45228297712788
 20
81.58700602517176
 10
201.00676877500996
 20
80.89149182305384
 10
200.6325145483254
 20
80.26723759636927
 10
200.31799132826313
 20
79.70271437630701
 10
199.94299132826313
 20
79.07771437630701
 10
199.5075145483254
 20
78.39223759636927
 10
199.3391380327569
 20
78.1118328641672
 10
199.4826336622475
 20
77.86803295725323
 10
199.9493871450661
 20
77.15129854792096
 10
200.46621377470478
 20
76.38436558359601
 10
200.98473460676655
 20
75.61573984735944
 10
201.49047572615132
 20
74.86193277948834
 10
201.90829093458638
 20
74.19531347864606
 10
202.2607246160744
 20
73.57562735193707
 10
203.00804765226826
 20
72.54541685694196
 10
204.6731410742043
 20
70.6675243627403
 10
206.89608676435932
 20
68.42822601908185
 10
208.6479650259255
 20
66.89653637522198
 10
209.55133397581562
 20
66.38823845499493
 10
210.13471372129902
 20
66.30416824930646
 10
210.90134150984272
 20
66.12516501062848
 10
211.95553023817524
 20
65.83473255747296
 10
213.2634912252663
 20
65.62034895533063
 10
214.68784101011738
 20
65.62034895533063
 10
215.99580199720845
 20
65.83473255747296
 10
217.04999072554097
 20
66.12516501062848
 10
217.81661851408467
 20
66.30416824930646
 10
218.39999825956806
 20
66.38823845499493
 10
219.3033672094582
 20
66.89653637522198
 10
221.05524547102436
 20
68.42822601908185
 10
223.27819068434223
 20
70.66752388590314
 10
224.94329364302143
 20
72.54542591684796
 10
225.69056470396504
 20
73.57558443659283
  0
LWPOLYLINE
  5
35
330
17
100
AcDbEntity
  8
0
 62
0
100
AcDbPolyline
 90
36
 70
0
 10
238.896555972123
 20
62.67433588967371
 10
238.22208507063374
 20
63.61699908242274
 10
237.60357196333393
 20
64.48426859841395
 10
237.0034838438271
 20
65.3323692606454
 10
236.44548614027485
 20
66.14048140511561
 10
235.8206611395119
 20
67.01541226372767
 10
235.1258188009499
 20
67.96023552880335
 10
234.48408420088276
 20
68.85197108254481
 10
233.9412680387734
 20
69.64478724465418
 10
233.6959694547519
 20
70.01274915839052
 10
233.09333188536152
 20
69.2456960927818
 10
231.50055463316426
 20
67.38472654932477
 10
229.52994830610737
 20
65.13065006845929
 10
227.81836564543232
 20
63.21445610636212
 10
226.44551999571308
 20
61.84161999338605
 10
224.98929936888203
 20
60.58995583170392
 10
223.95547072043172
 20
59.74062642839142
 10
225.7231546163796
 20
58.116246156549934
 10
229.06158263685688
 20
54.777760915613655
 10
231.69362981321797
 20
51.94104998574305
 10
233.02115972044453
 20
50.33005946145106
 10
233.6721787299473
 20
49.41964315096566
 10
233.97652394773945
 20
49.87585928553082
 10
234.4770789861916
 20
50.62641432398297
 10
234.96897275450215
 20
51.36830809229352
 10
235.45294482710347
 20
52.10228111856915
 10
235.9660812139748
 20
52.86539843195416
 10
236.57368285658345
 20
53.723105932411926
 10
237.33309895994648
 20
54.73263647669293
 10
238.23198659422383
 20
55.879536653694885
 10
239.12726027967915
 20
57.02356674784161
 10
239.9775009870766
 20
58.14199974649884
 10
241.26308782103047
 20
59.71105673426129
 10
241.37339718915797
 20
59.83112062240745
 10
240.2568608045815
 20
61.030560903406624
 10
238.896555972123
 20
62.67433588967371
  0
LWPOLYLINE
  5
36
330
17
100
AcDbEntity
  8
0
 62
0
100
AcDbPolyline
 90
91
 70
0
 10
203.82658965589985
 20
48.00996678338099
 10
203.01246364119038
 20
46.9123982714181
 10
202.4491854429482
 20
46.08087056145716
 10
201.95811660292134
 20
45.34105484948206
 10
201.4724527120827
 20
44.60737793908167
 10
200.96832282545552
 20
43.85313361153651
 10
200.4506068945168
 20
43.085311822748665
 10
199.98155076506123
 20
42.366274766779426
 10
199.62332446577534
 20
41.75804751381922
 10
199.41091599260912
 20
41.365868148976695
 10
199.6325236082314
 20
40.968143964943664
 10
200.0067682981728
 20
40.34389927500226
 10
200.45228345396504
 20
39.64838411921002
 10
200.84538609983906
 20
39.005281473336
 10
201.11813266279682
 20
38.482534910378234
 10
201.33336169722065
 20
38.017305875954406
 10
201.60495765211567
 20
37.49570992105939
 10
201.99731452467427
 20
36.85335304850079
 10
202.45401771070942
 20
36.14664986246564
 10
202.84637458326802
 20
35.50429298990704
 10
203.11797053816304
 20
34.98269703501202
 10
203.33319957258686
 20
34.517468000588195
 10
203.60594613554463
 20
33.99472143763043
 10
203.99904878141865
 20
33.35161879175641
 10
204.44456059935078
 20
32.65610697382428
 10
204.81887156965718
 20
32.031795049843566
 10
205.13308961393818
 20
31.46759607904889
 10
205.5076342344521
 20
30.84294369333721
 10
205.9493723631142
 20
30.151128317055477
 10
206.32996661665425
 20
29.522330785927544
 10
206.57431705000386
 20
29.028844381508605
 10
206.8222881078957
 20
28.51688673609234
 10
207.4748955488442
 20
27.58477738016583
 10
208.8413949728249
 20
25.973635698494682
 10
210.61941106321797
 20
24.122547174629943
 10
212.20230348112568
 20
22.847350145516167
 10
213.4281149626015
 20
22.378068472084774
 10
214.5230551481484
 20
22.37799217813946
 10
215.75001771452412
 20
22.84832098597027
 10
217.3336463690041
 20
24.12427332514264
 10
219.1005264044045
 20
25.964224840340385
 10
220.44898993971333
 20
27.557330633339657
 10
221.1434779882668
 20
28.531320596871147
 10
221.55054099562153
 20
29.202370191750305
 10
221.96771104338154
 20
29.868676210579643
 10
222.34831483366474
 20
30.49748327845074
 10
222.61718089582905
 20
31.016426588234673
 10
222.83255727293476
 20
31.481910730538146
 10
223.10599381926045
 20
32.0053282033775
 10
223.49908645155415
 20
32.64842178934552
 10
223.94459779264912
 20
33.34393313044049
 10
224.318928313279
 20
33.96826365107037
 10
224.63240439894184
 20
34.531739736733215
 10
225.00672538282856
 20
35.156060720619934
 10
225.45229251387104
 20
35.851627851662414
 10
225.8453856230019
 20
36.49472096079327
 10
226.11813266279682
 20
37.017468000588195
 10
226.33336169722065
 20
37.48269703501202
 10
226.60495765211567
 20
38.00429298990704
 10
226.99731452467427
 20
38.64664986246564
 10
227.45401771070942
 20
39.35335304850079
 10
227.84637458326802
 20
39.99570992105939
 10
228.11797006132588
 20
40.51730539911725
 10
228.33320863249287
 20
40.98254397028424
 10
228.5824782250894
 20
41.46033847656602
 10
228.5014906645058
 20
41.58456461892176
 10
227.98409612181172
 20
42.35196011529017
 10
227.47425849440083
 20
43.11177866921473
 10
226.9753242254494
 20
43.860818796015266
 10
226.47119433882222
 20
44.61506312356043
 10
225.9667487859963
 20
45.36752169594813
 10
225.51646144392475
 20
46.0665559099679
 10
225.11235148909077
 20
46.73891537652064
 10
224.4710975408791
 20
47.663611821985725
 10
223.23982770445332
 20
49.098951749659065
 10
221.58265645506367
 20
50.756207876062874
 10
220.12961633207783
 20
52.00442736611414
 10
219.23725612165913
 20
52.621964387751106
 10
218.75799615385517
 20
52.8998307512765
 10
218.3175822019814
 20
53.14094489083338
 10
217.31950623991474
 20
53.412088327265266
 10
215.28080899717793
 20
53.61198609337855
 10
212.67036111357197
 20
53.611909799433235
 10
210.63281495573506
 20
53.41305916771937
 10
209.63547523024067
 20
53.14267104134608
 10
209.18392522337422
 20
52.8904198931222
 10
208.6866293668984
 20
52.594517640924934
 10
207.83614976408467
 20
52.01886122689295
 10
206.54220159056172
 20
50.92973368630457
 10
205.05784995558247
 20
49.445297174311165
 10
203.82658965589985
 20
48.00996678338099
  0
LWPOLYLINE
  5
37
330
17
100
AcDbEntity
  8
0
 62
0
100
AcDbPolyline
 90
32
 70
0
 10
191.5314141035317
 20
53.56934120768048
 10
192.13893945219502
 20
52.71171000116803
 10
192.82489593031391
 20
51.77577259653546
 10
193.46803624632344
 20
50.88263132685162
 10
194.00076348783955
 20
50.09990408533551
 10
194.36903272443038
 20
49.54056045972061
 10
194.9575763464211
 20
50.35746329293299
 10
196.24327762129292
 20
51.92662518487025
 10
198.71622331144795
 20
54.6042346285348
 10
201.88183171751484
 20
57.769900255060676
 10
204.12208579559734
 20
59.828540115214125
 10
202.47388036253437
 20
61.37346890085675
 10
198.12502725126728
 20
65.72235062235333
 10
194.91004235746846
 20
69.14200070017316
 10
194.22339769763468
 20
69.98322632434382
 10
193.97321517469868
 20
69.60793822274256
 10
193.4833651304482
 20
68.86808817849207
 10
192.99989087584004
 20
68.1346129702096
 10
192.47792060377583
 20
67.36266177163172
 10
191.85399396421894
 20
66.48862927422572
 10
191.1109925031899
 20
65.4955133722787
 10
190.3330212354897
 20
64.46952956185389
 10
189.72564513685688
 20
63.61339705452967
 10
189.24633796217427
 20
62.86589758858729
 10
188.02810914518818
 20
61.36419861779261
 10
186.60544694885732
 20
59.84169360360602
 10
187.17957932951435
 20
59.21972181910016
 10
188.5091925382851
 20
57.60663845652081
 10
189.36003596785054
 20
56.48760273569562
 10
190.20328719618306
 20
55.39559509867169
 10
190.94377143385395
 20
54.407098318276184
 10
191.5314141035317
 20
53.56934120768048
  0
LWPOLYLINE
  5
38
330
17
100
AcDbEntity
  8
0
 62
0
100
AcDbPolyline
 90
100
 70
0
 10
112.77394492628561
 20
67.37636330240704
 10
114.21118648054586
 20
68.60709240549542
 10
116.07285268309103
 20
70.46885492914654
 10
117.60431153776632
 20
72.20503141993024
 10
118.49209983351217
 20
73.37627079599835
 10
119.0200320005654
 20
74.17239620798566
 10
119.48991734983908
 20
74.89103796595074
 10
119.97707326414572
 20
75.626206422982
 10
120.48230273725973
 20
76.38155033701398
 10
120.99918706419454
 20
77.14854052179791
 10
121.47828061583029
 20
77.87761499994733
 10
121.55465508884538
 20
78.00481401866828
 10
121.50834996702658
 20
78.07770531640101
 10
121.13334043028341
 20
78.70271485314417
 10
120.81881768705831
 20
79.26723759636927
 10
120.44456346037374
 20
79.89149182305384
 10
119.99904925825582
 20
80.58700602517176
 10
119.60593707563864
 20
81.23011820778895
 10
119.33324248793112
 20
81.75281279549647
 10
119.1180897474526
 20
82.21796553597498
 10
118.84539468290792
 20
82.74066060051966
 10
118.4522920370339
 20
83.38376324639368
 10
118.00672538282858
 20
84.079329900599
 10
117.63240439894186
 20
84.70365088448573
 10
117.31892831327902
 20
85.26712697014857
 10
116.94459779264913
 20
85.89145749077845
 10
116.49908359053121
 20
86.58697169289637
 10
116.10604770185934
 20
87.23000758156824
 10
115.83230741026388
 20
87.7537478731637
 10
115.61644752027975
 20
88.21960871682215
 10
115.35399062635885
 20
88.73204653725672
 10
114.97848899366842
 20
89.35765450463343
 10
114.498091292405
 20
90.08815711007166
 10
113.97913367750631
 20
90.85518019661951
 10
113.48965222837911
 20
91.59347622857142
 10
113.03302295210348
 20
92.31728451714564
 10
112.48755223753439
 20
93.14571898446131
 10
111.69099528791891
 20
94.15604441628504
 10
110.66430480482565
 20
95.19743006691981
 10
109.61505467894064
 20
96.0190295504098
 10
108.68332679274069
 20
96.56162779793787
 10
107.84780461790548
 20
96.92665570244837
 10
107.05725581648336
 20
97.1293319986825
 10
106.33495719435201
 20
97.11069338784266
 10
105.76650292875753
 20
96.94675724968958
 10
105.3205815077065
 20
96.75823538765955
 10
104.68092353346334
 20
96.36895506844569
 10
103.53880412580953
 20
95.4235705660348
 10
102.07556397917257
 20
93.9628223703866
 10
100.80903155806051
 20
92.4925779627328
 10
100.017791342759
 20
91.41770356164027
 10
99.59767825605856
 20
90.72936432824183
 10
99.30107743742452
 20
90.18401568398524
 10
98.93898875715719
 20
89.57391398415614
 10
98.50947196485983
 20
88.8942827509408
 10
98.1341129064797
 20
88.26881783471156
 10
97.81874330046163
 20
87.70346730217982
 10
97.44451816084371
 20
87.07924120888758
 10
96.99905831816183
 20
86.3837813662057
 10
96.60593659880148
 20
85.74065964684534
 10
96.33324248793112
 20
85.21796553597498
 10
96.1180897474526
 20
84.75281279549647
 10
95.84539515974508
 20
84.23011820778895
 10
95.4522829771279
 20
83.58700602517176
 10
95.00676829817282
 20
82.89149134621668
 10
94.63252360823141
 20
82.26724665627528
 10
94.31794841291891
 20
81.70267146096278
 10
93.9428721189736
 20
81.07759516701746
 10
93.50849397184835
 20
80.39321701989222
 10
93.13350350859152
 20
79.76822655663538
 10
92.81782920362936
 20
79.20255225167323
 10
92.44282920362936
 20
78.57755225167323
 10
92.1483512792502
 20
78.11357138989965
 10
92.44964654448019
 20
77.65102102869488
 10
92.96693618299948
 20
76.88373043650128
 10
93.47912890913473
 20
76.12155678385236
 10
93.9796882391213
 20
75.37089159601666
 10
94.45939977171408
 20
74.64106562250592
 10
94.92634875776754
 20
73.92610361689069
 10
95.48162372114645
 20
73.12208178156354
 10
96.23931415083395
 20
72.09614565485455
 10
97.15246064665304
 20
70.89948132151105
 10
98.08332164289938
 20
69.76494934671857
 10
99.01798446180807
 20
68.8308692228172
 10
100.00257403852926
 20
68.0427022230003
 10
100.94658954145895
 20
67.3658042203758
 10
101.72211463453756
 20
66.87404968851544
 10
102.37758548262106
 20
66.57892658823468
 10
103.07297141554342
 20
66.36272289865948
 10
103.91192014219747
 20
66.11283209436871
 10
104.96122176649557
 20
65.82816174143292
 10
106.26153571608053
 20
65.62155106180646
 10
107.6970053434609
 20
65.62173225992657
 10
109.01289756300436
 20
65.82609036081769
 10
110.02977283003317
 20
66.10904028528668
 10
110.7523842573403
 20
66.38439753168561
 10
111.28128249647604
 20
66.63877680414654
 10
111.67995030882345
 20
66.81882240885236
 10
112.05275065901266
 20
66.93964340799786
 10
112.77394492628561
 20
67.37636330240704
  0
LWPOLYLINE
  5
39
330
17
100
AcDbEntity
  8
0
 62
0
100
AcDbPolyline
 90
33
 70
0
 10
129.49397809507832
 20
65.84209530816126
 10
128.94763810636982
 20
66.63841622338343
 10
128.32281024458393
 20
67.51324503884364
 10
127.61631782057272
 20
68.46973746285487
 10
126.95664222242819
 20
69.3794130609994
 10
126.61159075929498
 20
69.89666640496353
 10
125.70091254713522
 20
68.80161430948712
 10
122.62760884764181
 20
65.5236993085716
 10
118.65614850523458
 20
61.55224850290753
 10
116.80179806740193
 20
59.825313554188476
 10
116.84034307005392
 20
59.794346742487434
 10
119.2337451696633
 20
57.605554513788704
 10
122.06386048796163
 20
54.775439195490364
 10
124.37708814146505
 20
52.257600717401985
 10
125.79267270567404
 20
50.55854599938441
 10
126.57894078433173
 20
49.52945099967373
 10
126.97714622023092
 20
50.12648155802228
 10
127.46804387571798
 20
50.86737921350934
 10
127.95135600569235
 20
51.60069229715802
 10
128.4744253874062
 20
52.37374260538556
 10
129.099183630967
 20
53.24860670679547
 10
129.8299489736794
 20
54.22948649042584
 10
130.58913857939228
 20
55.23668863886334
 10
131.24953229429707
 20
56.14583876245953
 10
131.9059577703713
 20
57.07045652979352
 10
133.2551780462502
 20
58.70314695948102
 10
134.24642839529955
 20
59.767976646656535
 10
133.95687301161274
 20
60.11401885018397
 10
132.70043952467427
 20
61.63864462838221
 10
131.66786725523457
 20
62.91997330651331
 10
130.8079009771584
 20
64.0279521273141
 10
130.08613402845845
 20
64.99983351693201
 10
129.49397809507832
 20
65.84209530816126
  0
LWPOLYLINE
  5
3A
330
17
100
AcDbEntity
  8
0
 62
0
100
AcDbPolyline
 90
98
 70
0
 10
99.39461715223776
 20
50.78203909859705
 10
97.7055879354714
 20
49.092991762018684
 10
96.33254010679708
 20
47.51592629418421
 10
95.48663289549337
 20
46.38656704888392
 10
94.94071109297262
 20
45.572396211481575
 10
94.45973212721334
 20
44.842670373774055
 10
93.97338922026144
 20
44.10831444726038
 10
93.46821219923483
 20
43.3530229853158
 10
92.95057256224142
 20
42.585277490473274
 10
92.48151643278585
 20
41.866240434504036
 10
92.24723593953637
 20
41.468493787656634
 10
92.45228345396505
 20
41.14838411921002
 10
92.84538609983908
 20
40.505281473336
 10
93.11813266279684
 20
39.982534910378234
 10
93.33336169722067
 20
39.517305875954406
 10
93.60495765211569
 20
38.99570992105939
 10
93.99731452467428
 20
38.35335304850079
 10
94.45401771070944
 20
37.64664986246564
 10
94.84637458326803
 20
37.00429298990704
 10
95.11797053816305
 20
36.48269703501202
 10
95.33319957258688
 20
36.017468000588195
 10
95.60594613554464
 20
35.49472143763043
 10
95.99904878141867
 20
34.85161879175641
 10
96.4445639372109
 20
34.15610363596417
 10
96.81880862715231
 20
33.531858946022766
 10
97.13338334562765
 20
32.967284227547424
 10
97.50846917631613
 20
32.34219839685895
 10
97.9427934408425
 20
31.65787413233258
 10
98.31774528028951
 20
31.032921339211235
 10
98.63431890013204
 20
30.466366792855037
 10
99.00973517897116
 20
29.8408446561668
 10
99.43710668089376
 20
29.163358713326232
 10
99.79784543516622
 20
28.554605508980522
 10
100.11465413572775
 20
27.989077593025936
 10
100.56932408812033
 20
27.266024614510307
 10
101.29677064421163
 20
26.2547292959068
 10
102.28307349684225
 20
25.06800224894024
 10
103.33892495634542
 20
24.01622393244244
 10
104.16595752241598
 20
23.353904272255672
 10
104.69468934538351
 20
23.033476854500545
 10
105.28326852323995
 20
22.814816499886287
 10
106.26124341490255
 20
22.578837419686092
 10
107.4861636877297
 20
22.463315035042537
 10
108.75463206770407
 20
22.829913641152153
 10
110.19271428587423
 20
23.970054651436584
 10
111.74743230345236
 20
25.61270907038189
 10
112.95451838972555
 20
27.06346466654278
 10
113.61869056227194
 20
28.006406332192192
 10
114.04378898146139
 20
28.695624853310363
 10
114.45991570951925
 20
29.36088087671734
 10
114.8218045950173
 20
29.97097303980328
 10
115.13150460722433
 20
30.530750299629936
 10
115.50603969099508
 20
31.15539314859845
 10
115.95234830381857
 20
31.851682687935607
 10
116.34544093611227
 20
32.494776273903625
 10
116.6180806875466
 20
33.01741602533795
 10
116.83324296476827
 20
33.48257830255963
 10
117.1059375524758
 20
34.00527289026715
 10
117.49904019834982
 20
34.648375536141174
 10
117.94460685255514
 20
35.343942190346496
 10
118.31892783644186
 20
35.968263174233215
 10
118.63240439894186
 20
36.531739736733215
 10
119.00672538282858
 20
37.156060720619934
 10
119.4522920370339
 20
37.851627374825256
 10
119.84539468290792
 20
38.49473002069928
 10
120.1180897474526
 20
39.01742508524396
 10
120.33324248793112
 20
39.48257782572247
 10
120.60593707563864
 20
40.00527241342999
 10
120.99904925825582
 20
40.64838459604718
 10
121.44456346037374
 20
41.3438987981651
 10
121.46179688604286
 20
41.37264406821723
 10
121.45834357740866
 20
41.37771170601893
 10
120.98004634382711
 20
42.10600893960047
 10
120.6224990606545
 20
42.713557176447395
 10
120.3273092031716
 20
43.25872796044398
 10
119.96862800123678
 20
43.86751502022791
 10
119.50627381803976
 20
44.5799836443429
 10
119.00251634123312
 20
45.33175366387415
 10
118.50136668684469
 20
46.08165972695399
 10
117.93945653440939
 20
46.91176264748621
 10
117.11635882856832
 20
48.01832097039271
 10
115.8682437658547
 20
49.47110360131312
 10
114.41563279631124
 20
50.92369645104456
 10
113.26317937376486
 20
51.870945863581184
 10
112.60658843519674
 20
52.24408476815272
 10
112.18369824888693
 20
52.39961951241541
 10
111.74404199125753
 20
52.59984534249354
 10
111.29972655775533
 20
52.85285704598475
 10
110.80839450361715
 20
53.1261753366952
 10
109.828027796769
 20
53.40928786263514
 10
107.92758519651876
 20
53.61290448174525
 10
105.52210767271505
 20
53.61270707116175
 10
103.62597424986349
 20
53.41206639275599
 10
102.65973718168722
 20
53.14100926384974
 10
102.2008648634194
 20
52.89890330300379
 10
101.71084554197775
 20
52.620348386621956
 10
100.82925374510275
 20
52.01290171608973
 10
99.39461715223776
 20
50.78203909859705
  0
LWPOLYLINE
  5
3B
330
17
100
AcDbEntity
  8
0
 62
0
100
AcDbPolyline
 90
36
 70
0
 10
82.41518504621969
 20
56.18369724863507
 10
83.11816318037496
 20
55.23270657175519
 10
83.85420711042867
 20
54.24654820078351
 10
84.62246854307638
 20
53.22818091028668
 10
85.35255630018698
 20
52.248112226662414
 10
85.97741277220236
 20
51.37325480097272
 10
86.49999911787496
 20
50.60066845530011
 10
86.98335940840231
 20
49.867308164772766
 10
87.22273766240188
 20
49.505762306830704
 10
87.57782418730245
 20
49.97771113381434
 10
89.11001689436422
 20
51.793364457941536
 10
91.88378961088644
 20
54.771800927973274
 10
95.2540088415383
 20
58.142077379084114
 10
96.9319315549043
 20
59.683035626225276
 10
96.64876563551412
 20
59.903223539528625
 10
95.05080945494161
 20
61.29662277811505
 10
93.1277127981423
 20
63.2197098981712
 10
90.95621116163717
 20
65.59582283609845
 10
88.87005288603292
 20
67.96545126551129
 10
87.330704283738
 20
69.77299215906598
 10
87.10778584496381
 20
70.05896679820428
 10
86.9748841047524
 20
69.85960715279627
 10
86.4741860151528
 20
69.10890906319666
 10
85.98328740599142
 20
68.36801045403529
 10
85.49999434950338
 20
67.63471644387293
 10
84.97682054045187
 20
66.86156170830775
 10
84.35191924574362
 20
65.98655455575037
 10
83.62329967024313
 20
65.00782053933192
 10
82.86553485395895
 20
64.00204318032313
 10
82.18391520979391
 20
63.07166712746668
 10
81.49208743574606
 20
62.111647062159065
 10
80.21659047605978
 20
60.55267994866419
 10
79.51698674340373
 20
59.79478195038536
 10
80.59430987837301
 20
58.52152111643292
 10
81.63971431257711
 20
57.207924390969055
 10
82.41518504621969
 20
56.18369724863507
  0
LWPOLYLINE
  5
3C
330
17
100
AcDbEntity
  8
0
 62
0
100
AcDbPolyline
 90
33
 70
0
 10
406.3509765386819
 20
52.74969198816754
 10
406.97648341658106
 20
51.874184156594055
 10
407.5000663519143
 20
51.1006012212608
 10
407.9832835912942
 20
50.36738398188092
 10
408.47418601515284
 20
49.62648155802228
 10
408.5588066110817
 20
49.49960965452571
 10
409.7745252371072
 20
50.95788186059046
 10
412.83121736052027
 20
54.219185762262825
 10
416.79369647505274
 20
58.18164580330897
 10
418.3621096829302
 20
59.64233969077402
 10
416.41613729002466
 20
61.43129494303204
 10
413.20962865355006
 20
64.63779404276349
 10
410.5962439298867
 20
67.45579006784894
 10
409.0969506025552
 20
69.23855354898907
 10
408.4562941461168
 20
70.08127932411402
 10
407.97476537230006
 20
69.35948842034388
 10
407.4741340399026
 20
68.60885708794642
 10
406.9833384275674
 20
67.86806147561121
 10
406.50013120176783
 20
67.13485329613734
 10
405.975753855729
 20
66.36049502358485
 10
405.34997327330103
 20
65.48460858330775
 10
404.6345835447549
 20
64.51910441384364
 10
403.89621264936915
 20
63.532720975733284
 10
403.15253264906397
 20
62.5402845667367
 10
402.26689918043604
 20
61.38645880684901
 10
400.8977895121015
 20
59.737077776475864
 10
400.9954481840371
 20
59.62038281076886
 10
402.25261790754786
 20
58.09502079599835
 10
403.2740536451577
 20
56.82482864969708
 10
404.1159935713052
 20
55.73487618082501
 10
404.8795886755227
 20
54.721166635689514
 10
405.6307698011636
 20
53.71987965219952
 10
406.3509765386819
 20
52.74969198816754
  0
LWPOLYLINE
  5
3D
330
17
100
AcDbEntity
  8
0
 62
0
100
AcDbPolyline
 90
35
 70
0
 10
22.603084635758265
 20
65.48288290963221
 10
21.976558280014856
 20
66.35951512322474
 10
21.45108182432638
 20
67.13497250542689
 10
20.967950892472132
 20
67.86810439095545
 10
20.47720725538717
 20
68.60884802804041
 10
19.976566386246546
 20
69.35948889718104
 10
19.57117986348794
 20
69.96714603677863
 10
19.547779154801233
 20
69.93195107096173
 10
18.22130591871725
 20
68.32200768106915
 10
15.448829245591028
 20
65.34491970652081
 10
11.854799819016321
 20
61.75089981668927
 10
9.697982576446762
 20
59.749689420953764
 10
10.666710448288782
 20
58.96797936425257
 10
12.300045561814173
 20
57.539254121637825
 10
13.97768790724264
 20
55.86161177620936
 10
15.689950060868128
 20
53.94473879799891
 10
17.346707415604456
 20
52.00451128945399
 10
18.7449904203652
 20
50.33803599343348
 10
19.407146351137406
 20
49.52098798068798
 10
19.47812564375387
 20
49.62746098154523
 10
19.967928957962854
 20
50.36726429575421
 10
20.451232028031214
 20
51.10056736582257
 10
20.974815440201624
 20
51.87415077799298
 10
21.600226950669153
 20
52.749563242134826
 10
22.321585249924524
 20
53.72090246790387
 10
23.073588442826136
 20
54.7230115186546
 10
23.82494838240133
 20
55.724485899147766
 10
24.648097109818323
 20
56.79564716928937
 10
25.722601962113245
 20
58.118908430275695
 10
27.096200313582436
 20
59.74933556296902
 10
25.857958865189417
 20
61.21293299660731
 10
24.813233447098597
 20
62.52585070595789
 10
24.02767283918844
 20
63.560167722559456
 10
23.307337832474573
 20
64.52851527199793
 10
22.603084635758265
 20
65.48288290963221
  0
LWPOLYLINE
  5
3E
330
17
100
AcDbEntity
  8
0
 62
0
100
AcDbPolyline
 90
5
 70
0
 10
34.76194490192345
 20
15.5
 10
35.51194490192345
 20
25.5
 10
34.76194490192345
 20
35.5
 10
34.01194490192345
 20
25.5
 10
34.76194490192345
 20
15.5
  0
LWPOLYLINE
  5
3F
330
17
100
AcDbEntity
  8
0
 62
0
100
AcDbPolyline
 90
5
 70
0
 10
30.161944901923448
 20
15.5
 10
30.911944901923448
 20
25.5
 10
30.161944901923448
 20
35.5
 10
29.411944901923448
 20
25.5
 10
30.161944901923448
 20
15.5
  0
LWPOLYLINE
  5
40
330
17
100
AcDbEntity
  8
0
 62
0
100
AcDbPolyline
 90
5
 70
0
 10
37.81194490192345
 20
37.0
 10
37.06194490192345
 20
47.0
 10
36.31194490192345
 20
37.0
 10
37.06194490192345
 20
27.0
 10
37.81194490192345
 20
37.0
  0
LWPOLYLINE
  5
41
330
17
100
AcDbEntity
  8
0
 62
0
100
AcDbPolyline
 90
5
 70
0
 10
32.461944901923445
 20
27.0
 10
33.211944901923445
 20
37.0
 10
32.461944901923445
 20
47.0
 10
31.711944901923445
 20
37.0
 10
32.461944901923445
 20
27.0
  0
LWPOLYLINE
  5
42
330
17
100
AcDbEntity
  8
0
 62
0
100
AcDbPolyline
 90
5
 70
0
 10
30.161944901923448
 20
38.5
 10
30.911944901923448
 20
48.5
 10
30.161944901923448
 20
58.5
 10
29.411944901923448
 20
48.5
 10
30.161944901923448
 20
38.5
  0
LWPOLYLINE
  5
43
330
17
100
AcDbEntity
  8
0
 62
0
100
AcDbPolyline
 90
5
 70
0
 10
35.51194490192345
 20
48.5
 10
34.76194490192345
 20
58.5
 10
34.01194490192345
 20
48.5
 10
34.76194490192345
 20
38.5
 10
35.51194490192345
 20
48.5
  0
LWPOLYLINE
  5
44
330
17
100
AcDbEntity
  8
0
 62
0
100
AcDbPolyline
 90
5
 70
0
 10
37.06194490192345
 20
50.0
 10
37.81194490192345
 20
60.0
 10
37.06194490192345
 20
70.0
 10
36.31194490192345
 20
60.0
 10
37.06194490192345
 20
50.0
  0
LWPOLYLINE
  5
45
330
17
100
AcDbEntity
  8
0
 62
0
100
AcDbPolyline
 90
5
 70
0
 10
32.461944901923445
 20
50.0
 10
33.211944901923445
 20
60.0
 10
32.461944901923445
 20
70.0
 10
31.711944901923445
 20
60.0
 10
32.461944901923445
 20
50.0
  0
LWPOLYLINE
  5
46
330
17
100
AcDbEntity
  8
0
 62
0
100
AcDbPolyline
 90
5
 70
0
 10
30.911944901923448
 20
71.5
 10
30.161944901923448
 20
81.5
 10
29.411944901923448
 20
71.5
 10
30.161944901923448
 20
61.5
 10
30.911944901923448
 20
71.5
  0
LWPOLYLINE
  5
47
330
17
100
AcDbEntity
  8
0
 62
0
100
AcDbPolyline
 90
5
 70
0
 10
34.76194490192345
 20
61.5
 10
35.51194490192345
 20
71.5
 10
34.76194490192345
 20
81.5
 10
34.01194490192345
 20
71.5
 10
34.76194490192345
 20
61.5
  0
LWPOLYLINE
  5
48
330
17
100
AcDbEntity
  8
0
 62
0
100
AcDbPolyline
 90
5
 70
0
 10
32.461944901923445
 20
73.0
 10
33.211944901923445
 20
83.0
 10
32.461944901923445
 20
93.0
 10
31.711944901923445
 20
83.0
 10
32.461944901923445
 20
73.0
  0
LWPOLYLINE
  5
49
330
17
100
AcDbEntity
  8
0
 62
0
100
AcDbPolyline
 90
5
 70
0
 10
37.81194490192345
 20
83.0
 10
37.06194490192345
 20
93.0
 10
36.31194490192345
 20
83.0
 10
37.06194490192345
 20
73.0
 10
37.81194490192345
 20
83.0
  0
LWPOLYLINE
  5
4A
330
17
100
AcDbEntity
  8
0
 62
0
100
AcDbPolyline
 90
5
 70
0
 10
34.76194490192345
 20
84.5
 10
35.51194490192345
 20
94.5
 10
34.76194490192345
 20
104.5
 10
34.01194490192345
 20
94.5
 10
34.76194490192345
 20
84.5
  0
LWPOLYLINE
  5
4B
330
17
100
AcDbEntity
  8
0
 62
0
100
AcDbPolyline
 90
5
 70
0
 10
30.161944901923448
 20
84.5
 10
30.911944901923448
 20
94.5
 10
30.161944901923448
 20
104.5
 10
29.411944901923448
 20
94.5
 10
30.161944901923448
 20
84.5
  0
LWPOLYLINE
  5
4C
330
17
100
AcDbEntity
  8
0
 62
0
100
AcDbPolyline
 90
5
 70
0
 10
41.66194490192345
 20
27.0
 10
42.41194490192345
 20
37.0
 10
41.66194490192345
 20
47.0
 10
40.91194490192345
 20
37.0
 10
41.66194490192345
 20
27.0
  0
LWPOLYLINE
  5
4D
330
17
100
AcDbEntity
  8
0
 62
0
100
AcDbPolyline
 90
5
 70
0
 10
43.961944901923445
 20
38.5
 10
44.711944901923445
 20
48.5
 10
43.961944901923445
 20
58.5
 10
43.211944901923445
 20
48.5
 10
43.961944901923445
 20
38.5
  0
LWPOLYLINE
  5
4E
330
17
100
AcDbEntity
  8
0
 62
0
100
AcDbPolyline
 90
5
 70
0
 10
48.56194490192345
 20
38.5
 10
49.31194490192345
 20
48.5
 10
48.56194490192345
 20
58.5
 10
47.81194490192345
 20
48.5
 10
48.56194490192345
 20
38.5
  0
LWPOLYLINE
  5
4F
330
17
100
AcDbEntity
  8
0
 62
0
100
AcDbPolyline
 90
5
 70
0
 10
40.11194490192345
 20
48.5
 10
39.36194490192345
 20
58.5
 10
38.61194490192345
 20
48.5
 10
39.36194490192345
 20
38.5
 10
40.11194490192345
 20
48.5
  0
LWPOLYLINE
  5
50
330
17
100
AcDbEntity
  8
0
 62
0
100
AcDbPolyline
 90
5
 70
0
 10
46.26194490192344
 20
50.0
 10
47.01194490192344
 20
60.0
 10
46.26194490192344
 20
70.0
 10
45.51194490192344
 20
60.0
 10
46.26194490192344
 20
50.0
  0
LWPOLYLINE
  5
51
330
17
100
AcDbEntity
  8
0
 62
0
100
AcDbPolyline
 90
5
 70
0
 10
41.66194490192345
 20
50.0
 10
42.41194490192345
 20
60.0
 10
41.66194490192345
 20
70.0
 10
40.91194490192345
 20
60.0
 10
41.66194490192345
 20
50.0
  0
LWPOLYLINE
  5
52
330
17
100
AcDbEntity
  8
0
 62
0
100
AcDbPolyline
 90
5
 70
0
 10
40.11194490192345
 20
71.5
 10
39.36194490192345
 20
81.5
 10
38.61194490192345
 20
71.5
 10
39.36194490192345
 20
61.5
 10
40.11194490192345
 20
71.5
  0
LWPOLYLINE
  5
53
330
17
100
AcDbEntity
  8
0
 62
0
100
AcDbPolyline
 90
5
 70
0
 10
43.961944901923445
 20
61.5
 10
44.711944901923445
 20
71.5
 10
43.961944901923445
 20
81.5
 10
43.211944901923445
 20
71.5
 10
43.961944901923445
 20
61.5
  0
LWPOLYLINE
  5
54
330
17
100
AcDbEntity
  8
0
 62
0
100
AcDbPolyline
 90
5
 70
0
 10
42.41194490192345
 20
83.0
 10
41.66194490192345
 20
93.0
 10
40.91194490192345
 20
83.0
 10
41.66194490192345
 20
73.0
 10
42.41194490192345
 20
83.0
  0
LWPOLYLINE
  5
55
330
17
100
AcDbEntity
  8
0
 62
0
100
AcDbPolyline
 90
5
 70
0
 10
57.76194490192344
 20
38.5
 10
58.51194490192344
 20
48.5
 10
57.76194490192344
 20
58.5
 10
57.01194490192344
 20
48.5
 10
57.76194490192344
 20
38.5
  0
LWPOLYLINE
  5
56
330
17
100
AcDbEntity
  8
0
 62
0
100
AcDbPolyline
 90
5
 70
0
 10
53.91194490192345
 20
48.5
 10
53.16194490192345
 20
58.5
 10
52.41194490192345
 20
48.5
 10
53.16194490192345
 20
38.5
 10
53.91194490192345
 20
48.5
  0
LWPOLYLINE
  5
57
330
17
100
AcDbEntity
  8
0
 62
0
100
AcDbPolyline
 90
5
 70
0
 10
55.461944901923445
 20
50.0
 10
56.211944901923445
 20
60.0
 10
55.461944901923445
 20
70.0
 10
54.711944901923445
 20
60.0
 10
55.461944901923445
 20
50.0
  0
LWPOLYLINE
  5
58
330
17
100
AcDbEntity
  8
0
 62
0
100
AcDbPolyline
 90
5
 70
0
 10
50.86194490192345
 20
50.0
 10
51.61194490192345
 20
60.0
 10
50.86194490192345
 20
70.0
 10
50.11194490192345
 20
60.0
 10
50.86194490192345
 20
50.0
  0
LWPOLYLINE
  5
59
330
17
100
AcDbEntity
  8
0
 62
0
100
AcDbPolyline
 90
5
 70
0
 10
53.91194490192345
 20
71.5
 10
53.16194490192345
 20
81.5
 10
52.41194490192345
 20
71.5
 10
53.16194490192345
 20
61.5
 10
53.91194490192345
 20
71.5
  0
LWPOLYLINE
  5
5A
330
17
100
AcDbEntity
  8
0
 62
0
100
AcDbPolyline
 90
5
 70
0
 10
58.51194490192344
 20
71.5
 10
57.76194490192344
 20
81.5
 10
57.01194490192344
 20
71.5
 10
57.76194490192344
 20
61.5
 10
58.51194490192344
 20
71.5
  0
LWPOLYLINE
  5
5B
330
17
100
AcDbEntity
  8
0
 62
0
100
AcDbPolyline
 90
5
 70
0
 10
49.31194490192345
 20
71.5
 10
48.56194490192345
 20
81.5
 10
47.81194490192345
 20
71.5
 10
48.56194490192345
 20
61.5
 10
49.31194490192345
 20
71.5
  0
LWPOLYLINE
  5
5C
330
17
100
AcDbEntity
  8
0
 62
0
100
AcDbPolyline
 90
5
 70
0
 10
65.41194490192345
 20
37.0
 10
64.66194490192345
 20
47.0
 10
63.91194490192345
 20
37.0
 10
64.66194490192345
 20
27.0
 10
65.41194490192345
 20
37.0
  0
LWPOLYLINE
  5
5D
330
17
100
AcDbEntity
  8
0
 62
0
100
AcDbPolyline
 90
5
 70
0
 10
62.361944901923444
 20
38.5
 10
63.111944901923444
 20
48.5
 10
62.361944901923444
 20
58.5
 10
61.611944901923444
 20
48.5
 10
62.361944901923444
 20
38.5
  0
LWPOLYLINE
  5
5E
330
17
100
AcDbEntity
  8
0
 62
0
100
AcDbPolyline
 90
5
 70
0
 10
67.71194490192345
 20
48.5
 10
66.96194490192345
 20
58.5
 10
66.21194490192345
 20
48.5
 10
66.96194490192345
 20
38.5
 10
67.71194490192345
 20
48.5
  0
LWPOLYLINE
  5
5F
330
17
100
AcDbEntity
  8
0
 62
0
100
AcDbPolyline
 90
5
 70
0
 10
60.06194490192345
 20
50.0
 10
60.81194490192345
 20
60.0
 10
60.06194490192345
 20
70.0
 10
59.31194490192345
 20
60.0
 10
60.06194490192345
 20
50.0
  0
LWPOLYLINE
  5
60
330
17
100
AcDbEntity
  8
0
 62
0
100
AcDbPolyline
 90
5
 70
0
 10
64.66194490192345
 20
50.0
 10
65.41194490192345
 20
60.0
 10
64.66194490192345
 20
70.0
 10
63.91194490192345
 20
60.0
 10
64.66194490192345
 20
50.0
  0
LWPOLYLINE
  5
61
330
17
100
AcDbEntity
  8
0
 62
0
100
AcDbPolyline
 90
5
 70
0
 10
67.71194490192345
 20
71.5
 10
66.96194490192345
 20
81.5
 10
66.21194490192345
 20
71.5
 10
66.96194490192345
 20
61.5
 10
67.71194490192345
 20
71.5
  0
LWPOLYLINE
  5
62
330
17
100
AcDbEntity
  8
0
 62
0
100
AcDbPolyline
 90
5
 70
0
 10
62.361944901923444
 20
61.5
 10
63.111944901923444
 20
71.5
 10
62.361944901923444
 20
81.5
 10
61.611944901923444
 20
71.5
 10
62.361944901923444
 20
61.5
  0
LWPOLYLINE
  5
63
330
17
100
AcDbEntity
  8
0
 62
0
100
AcDbPolyline
 90
5
 70
0
 10
64.66194490192345
 20
73.0
 10
65.41194490192345
 20
83.0
 10
64.66194490192345
 20
93.0
 10
63.91194490192345
 20
83.0
 10
64.66194490192345
 20
73.0
  0
LWPOLYLINE
  5
64
330
17
100
AcDbEntity
  8
0
 62
0
100
AcDbPolyline
 90
5
 70
0
 10
72.31194490192345
 20
25.5
 10
71.56194490192345
 20
35.5
 10
70.81194490192345
 20
25.5
 10
71.56194490192345
 20
15.5
 10
72.31194490192345
 20
25.5
  0
LWPOLYLINE
  5
65
330
17
100
AcDbEntity
  8
0
 62
0
100
AcDbPolyline
 90
5
 70
0
 10
76.16194490192345
 20
15.5
 10
76.91194490192345
 20
25.5
 10
76.16194490192345
 20
35.5
 10
75.41194490192345
 20
25.5
 10
76.16194490192345
 20
15.5
  0
LWPOLYLINE
  5
66
330
17
100
AcDbEntity
  8
0
 62
0
100
AcDbPolyline
 90
5
 70
0
 10
69.26194490192344
 20
27.0
 10
70.01194490192344
 20
37.0
 10
69.26194490192344
 20
47.0
 10
68.51194490192344
 20
37.0
 10
69.26194490192344
 20
27.0
  0
LWPOLYLINE
  5
67
330
17
100
AcDbEntity
  8
0
 62
0
100
AcDbPolyline
 90
5
 70
0
 10
74.61194490192344
 20
37.0
 10
73.86194490192344
 20
47.0
 10
73.11194490192344
 20
37.0
 10
73.86194490192344
 20
27.0
 10
74.61194490192344
 20
37.0
  0
LWPOLYLINE
  5
68
330
17
100
AcDbEntity
  8
0
 62
0
100
AcDbPolyline
 90
5
 70
0
 10
71.56194490192345
 20
38.5
 10
72.31194490192345
 20
48.5
 10
71.56194490192345
 20
58.5
 10
70.81194490192345
 20
48.5
 10
71.56194490192345
 20
38.5
  0
LWPOLYLINE
  5
69
330
17
100
AcDbEntity
  8
0
 62
0
100
AcDbPolyline
 90
5
 70
0
 10
76.16194490192345
 20
38.5
 10
76.91194490192345
 20
48.5
 10
76.16194490192345
 20
58.5
 10
75.41194490192345
 20
48.5
 10
76.16194490192345
 20
38.5
  0
LWPOLYLINE
  5
6A
330
17
100
AcDbEntity
  8
0
 62
0
100
AcDbPolyline
 90
5
 70
0
 10
74.61194490192344
 20
60.0
 10
73.86194490192344
 20
70.0
 10
73.11194490192344
 20
60.0
 10
73.86194490192344
 20
50.0
 10
74.61194490192344
 20
60.0
  0
LWPOLYLINE
  5
6B
330
17
100
AcDbEntity
  8
0
 62
0
100
AcDbPolyline
 90
5
 70
0
 10
69.26194490192344
 20
50.0
 10
70.01194490192344
 20
60.0
 10
69.26194490192344
 20
70.0
 10
68.51194490192344
 20
60.0
 10
69.26194490192344
 20
50.0
  0
LWPOLYLINE
  5
6C
330
17
100
AcDbEntity
  8
0
 62
0
100
AcDbPolyline
 90
5
 70
0
 10
76.16194490192345
 20
61.5
 10
76.91194490192345
 20
71.5
 10
76.16194490192345
 20
81.5
 10
75.41194490192345
 20
71.5
 10
76.16194490192345
 20
61.5
  0
LWPOLYLINE
  5
6D
330
17
100
AcDbEntity
  8
0
 62
0
100
AcDbPolyline
 90
5
 70
0
 10
72.31194490192345
 20
71.5
 10
71.56194490192345
 20
81.5
 10
70.81194490192345
 20
71.5
 10
71.56194490192345
 20
61.5
 10
72.31194490192345
 20
71.5
  0
LWPOLYLINE
  5
6E
330
17
100
AcDbEntity
  8
0
 62
0
100
AcDbPolyline
 90
5
 70
0
 10
73.86194490192344
 20
73.0
 10
74.61194490192344
 20
83.0
 10
73.86194490192344
 20
93.0
 10
73.11194490192344
 20
83.0
 10
73.86194490192344
 20
73.0
  0
LWPOLYLINE
  5
6F
330
17
100
AcDbEntity
  8
0
 62
0
100
AcDbPolyline
 90
5
 70
0
 10
69.26194490192344
 20
73.0
 10
70.01194490192344
 20
83.0
 10
69.26194490192344
 20
93.0
 10
68.51194490192344
 20
83.0
 10
69.26194490192344
 20
73.0
  0
LWPOLYLINE
  5
70
330
17
100
AcDbEntity
  8
0
 62
0
100
AcDbPolyline
 90
5
 70
0
 10
76.91194490192345
 20
94.5
 10
76.16194490192345
 20
104.5
 10
75.41194490192345
 20
94.5
 10
76.16194490192345
 20
84.5
 10
76.91194490192345
 20
94.5
  0
LWPOLYLINE
  5
71
330
17
100
AcDbEntity
  8
0
 62
0
100
AcDbPolyline
 90
5
 70
0
 10
71.56194490192345
 20
84.5
 10
72.31194490192345
 20
94.5
 10
71.56194490192345
 20
104.5
 10
70.81194490192345
 20
94.5
 10
71.56194490192345
 20
84.5
  0
LWPOLYLINE
  5
72
330
17
100
AcDbEntity
  8
0
 62
0
100
AcDbPolyline
 90
5
 70
0
 10
141.13583470577035
 20
25.5
 10
141.88583470577035
 20
15.5
 10
142.63583470577035
 20
25.5
 10
141.88583470577035
 20
35.5
 10
141.13583470577035
 20
25.5
  0
LWPOLYLINE
  5
73
330
17
100
AcDbEntity
  8
0
 62
0
100
AcDbPolyline
 90
5
 70
0
 10
136.53583470577036
 20
25.5
 10
137.28583470577036
 20
15.5
 10
138.03583470577036
 20
25.5
 10
137.28583470577036
 20
35.5
 10
136.53583470577036
 20
25.5
  0
LWPOLYLINE
  5
74
330
17
100
AcDbEntity
  8
0
 62
0
100
AcDbPolyline
 90
5
 70
0
 10
144.18583470577033
 20
27.0
 10
144.93583470577033
 20
37.0
 10
144.18583470577033
 20
47.0
 10
143.43583470577033
 20
37.0
 10
144.18583470577033
 20
27.0
  0
LWPOLYLINE
  5
75
330
17
100
AcDbEntity
  8
0
 62
0
100
AcDbPolyline
 90
5
 70
0
 10
138.83583470577034
 20
37.0
 10
139.58583470577034
 20
27.0
 10
140.33583470577034
 20
37.0
 10
139.58583470577034
 20
47.0
 10
138.83583470577034
 20
37.0
  0
LWPOLYLINE
  5
76
330
17
100
AcDbEntity
  8
0
 62
0
100
AcDbPolyline
 90
5
 70
0
 10
136.53583470577036
 20
48.5
 10
137.28583470577036
 20
38.5
 10
138.03583470577036
 20
48.5
 10
137.28583470577036
 20
58.5
 10
136.53583470577036
 20
48.5
  0
LWPOLYLINE
  5
77
330
17
100
AcDbEntity
  8
0
 62
0
100
AcDbPolyline
 90
5
 70
0
 10
141.88583470577035
 20
38.5
 10
142.63583470577035
 20
48.5
 10
141.88583470577035
 20
58.5
 10
141.13583470577035
 20
48.5
 10
141.88583470577035
 20
38.5
  0
LWPOLYLINE
  5
78
330
17
100
AcDbEntity
  8
0
 62
0
100
AcDbPolyline
 90
5
 70
0
 10
143.43583470577033
 20
60.0
 10
144.18583470577033
 20
50.0
 10
144.93583470577033
 20
60.0
 10
144.18583470577033
 20
70.0
 10
143.43583470577033
 20
60.0
  0
LWPOLYLINE
  5
79
330
17
100
AcDbEntity
  8
0
 62
0
100
AcDbPolyline
 90
5
 70
0
 10
138.83583470577034
 20
60.0
 10
139.58583470577034
 20
50.0
 10
140.33583470577034
 20
60.0
 10
139.58583470577034
 20
70.0
 10
138.83583470577034
 20
60.0
  0
LWPOLYLINE
  5
7A
330
17
100
AcDbEntity
  8
0
 62
0
100
AcDbPolyline
 90
5
 70
0
 10
137.28583470577036
 20
61.5
 10
138.03583470577036
 20
71.5
 10
137.28583470577036
 20
81.5
 10
136.53583470577036
 20
71.5
 10
137.28583470577036
 20
61.5
  0
LWPOLYLINE
  5
7B
330
17
100
AcDbEntity
  8
0
 62
0
100
AcDbPolyline
 90
5
 70
0
 10
141.13583470577035
 20
71.5
 10
141.88583470577035
 20
61.5
 10
142.63583470577035
 20
71.5
 10
141.88583470577035
 20
81.5
 10
141.13583470577035
 20
71.5
  0
LWPOLYLINE
  5
7C
330
17
100
AcDbEntity
  8
0
 62
0
100
AcDbPolyline
 90
5
 70
0
 10
138.83583470577034
 20
83.0
 10
139.58583470577034
 20
73.0
 10
140.33583470577034
 20
83.0
 10
139.58583470577034
 20
93.0
 10
138.83583470577034
 20
83.0
  0
LWPOLYLINE
  5
7D
330
17
100
AcDbEntity
  8
0
 62
0
100
AcDbPolyline
 90
5
 70
0
 10
144.18583470577033
 20
73.0
 10
144.93583470577033
 20
83.0
 10
144.18583470577033
 20
93.0
 10
143.43583470577033
 20
83.0
 10
144.18583470577033
 20
73.0
  0
LWPOLYLINE
  5
7E
330
17
100
AcDbEntity
  8
0
 62
0
100
AcDbPolyline
 90
5
 70
0
 10
141.13583470577035
 20
94.5
 10
141.88583470577035
 20
84.5
 10
142.63583470577035
 20
94.5
 10
141.88583470577035
 20
104.5
 10
141.13583470577035
 20
94.5
  0
LWPOLYLINE
  5
7F
330
17
100
AcDbEntity
  8
0
 62
0
100
AcDbPolyline
 90
5
 70
0
 10
136.53583470577036
 20
94.5
 10
137.28583470577036
 20
84.5
 10
138.03583470577036
 20
94.5
 10
137.28583470577036
 20
104.5
 10
136.53583470577036
 20
94.5
  0
LWPOLYLINE
  5
80
330
17
100
AcDbEntity
  8
0
 62
0
100
AcDbPolyline
 90
5
 70
0
 10
148.03583470577036
 20
37.0
 10
148.78583470577036
 20
27.0
 10
149.53583470577036
 20
37.0
 10
148.78583470577036
 20
47.0
 10
148.03583470577036
 20
37.0
  0
LWPOLYLINE
  5
81
330
17
100
AcDbEntity
  8
0
 62
0
100
AcDbPolyline
 90
5
 70
0
 10
150.33583470577037
 20
48.5
 10
151.08583470577037
 20
38.5
 10
151.83583470577037
 20
48.5
 10
151.08583470577037
 20
58.5
 10
150.33583470577037
 20
48.5
  0
LWPOLYLINE
  5
82
330
17
100
AcDbEntity
  8
0
 62
0
100
AcDbPolyline
 90
5
 70
0
 10
154.93583470577033
 20
48.5
 10
155.68583470577033
 20
38.5
 10
156.43583470577033
 20
48.5
 10
155.68583470577033
 20
58.5
 10
154.93583470577033
 20
48.5
  0
LWPOLYLINE
  5
83
330
17
100
AcDbEntity
  8
0
 62
0
100
AcDbPolyline
 90
5
 70
0
 10
146.48583470577034
 20
38.5
 10
147.23583470577034
 20
48.5
 10
146.48583470577034
 20
58.5
 10
145.73583470577034
 20
48.5
 10
146.48583470577034
 20
38.5
  0
LWPOLYLINE
  5
84
330
17
100
AcDbEntity
  8
0
 62
0
100
AcDbPolyline
 90
5
 70
0
 10
152.63583470577035
 20
60.0
 10
153.38583470577035
 20
50.0
 10
154.13583470577035
 20
60.0
 10
153.38583470577035
 20
70.0
 10
152.63583470577035
 20
60.0
  0
LWPOLYLINE
  5
85
330
17
100
AcDbEntity
  8
0
 62
0
100
AcDbPolyline
 90
5
 70
0
 10
148.03583470577036
 20
60.0
 10
148.78583470577036
 20
50.0
 10
149.53583470577036
 20
60.0
 10
148.78583470577036
 20
70.0
 10
148.03583470577036
 20
60.0
  0
LWPOLYLINE
  5
86
330
17
100
AcDbEntity
  8
0
 62
0
100
AcDbPolyline
 90
5
 70
0
 10
146.48583470577034
 20
61.5
 10
147.23583470577034
 20
71.5
 10
146.48583470577034
 20
81.5
 10
145.73583470577034
 20
71.5
 10
146.48583470577034
 20
61.5
  0
LWPOLYLINE
  5
87
330
17
100
AcDbEntity
  8
0
 62
0
100
AcDbPolyline
 90
5
 70
0
 10
150.33583470577037
 20
71.5
 10
151.08583470577037
 20
61.5
 10
151.83583470577037
 20
71.5
 10
151.08583470577037
 20
81.5
 10
150.33583470577037
 20
71.5
  0
LWPOLYLINE
  5
88
330
17
100
AcDbEntity
  8
0
 62
0
100
AcDbPolyline
 90
5
 70
0
 10
148.78583470577036
 20
73.0
 10
149.53583470577036
 20
83.0
 10
148.78583470577036
 20
93.0
 10
148.03583470577036
 20
83.0
 10
148.78583470577036
 20
73.0
  0
LWPOLYLINE
  5
89
330
17
100
AcDbEntity
  8
0
 62
0
100
AcDbPolyline
 90
5
 70
0
 10
164.13583470577035
 20
48.5
 10
164.88583470577035
 20
38.5
 10
165.63583470577035
 20
48.5
 10
164.88583470577035
 20
58.5
 10
164.13583470577035
 20
48.5
  0
LWPOLYLINE
  5
8A
330
17
100
AcDbEntity
  8
0
 62
0
100
AcDbPolyline
 90
5
 70
0
 10
160.28583470577036
 20
38.5
 10
161.03583470577036
 20
48.5
 10
160.28583470577036
 20
58.5
 10
159.53583470577036
 20
48.5
 10
160.28583470577036
 20
38.5
  0
LWPOLYLINE
  5
8B
330
17
100
AcDbEntity
  8
0
 62
0
100
AcDbPolyline
 90
5
 70
0
 10
161.83583470577037
 20
60.0
 10
162.58583470577037
 20
50.0
 10
163.33583470577037
 20
60.0
 10
162.58583470577037
 20
70.0
 10
161.83583470577037
 20
60.0
  0
LWPOLYLINE
  5
8C
330
17
100
AcDbEntity
  8
0
 62
0
100
AcDbPolyline
 90
5
 70
0
 10
157.23583470577034
 20
60.0
 10
157.98583470577034
 20
50.0
 10
158.73583470577034
 20
60.0
 10
157.98583470577034
 20
70.0
 10
157.23583470577034
 20
60.0
  0
LWPOLYLINE
  5
8D
330
17
100
AcDbEntity
  8
0
 62
0
100
AcDbPolyline
 90
5
 70
0
 10
160.28583470577036
 20
61.5
 10
161.03583470577036
 20
71.5
 10
160.28583470577036
 20
81.5
 10
159.53583470577036
 20
71.5
 10
160.28583470577036
 20
61.5
  0
LWPOLYLINE
  5
8E
330
17
100
AcDbEntity
  8
0
 62
0
100
AcDbPolyline
 90
5
 70
0
 10
164.88583470577035
 20
61.5
 10
165.63583470577035
 20
71.5
 10
164.88583470577035
 20
81.5
 10
164.13583470577035
 20
71.5
 10
164.88583470577035
 20
61.5
  0
LWPOLYLINE
  5
8F
330
17
100
AcDbEntity
  8
0
 62
0
100
AcDbPolyline
 90
5
 70
0
 10
155.68583470577033
 20
61.5
 10
156.43583470577033
 20
71.5
 10
155.68583470577033
 20
81.5
 10
154.93583470577033
 20
71.5
 10
155.68583470577033
 20
61.5
  0
LWPOLYLINE
  5
90
330
17
100
AcDbEntity
  8
0
 62
0
100
AcDbPolyline
 90
5
 70
0
 10
171.78583470577036
 20
27.0
 10
172.53583470577036
 20
37.0
 10
171.78583470577036
 20
47.0
 10
171.03583470577036
 20
37.0
 10
171.78583470577036
 20
27.0
  0
LWPOLYLINE
  5
91
330
17
100
AcDbEntity
  8
0
 62
0
100
AcDbPolyline
 90
5
 70
0
 10
168.73583470577034
 20
48.5
 10
169.48583470577034
 20
38.5
 10
170.23583470577034
 20
48.5
 10
169.48583470577034
 20
58.5
 10
168.73583470577034
 20
48.5
  0
LWPOLYLINE
  5
92
330
17
100
AcDbEntity
  8
0
 62
0
100
AcDbPolyline
 90
5
 70
0
 10
174.08583470577037
 20
38.5
 10
174.83583470577037
 20
48.5
 10
174.08583470577037
 20
58.5
 10
173.33583470577037
 20
48.5
 10
174.08583470577037
 20
38.5
  0
LWPOLYLINE
  5
93
330
17
100
AcDbEntity
  8
0
 62
0
100
AcDbPolyline
 90
5
 70
0
 10
166.43583470577033
 20
60.0
 10
167.18583470577033
 20
50.0
 10
167.93583470577033
 20
60.0
 10
167.18583470577033
 20
70.0
 10
166.43583470577033
 20
60.0
  0
LWPOLYLINE
  5
94
330
17
100
AcDbEntity
  8
0
 62
0
100
AcDbPolyline
 90
5
 70
0
 10
171.03583470577036
 20
60.0
 10
171.78583470577036
 20
50.0
 10
172.53583470577036
 20
60.0
 10
171.78583470577036
 20
70.0
 10
171.03583470577036
 20
60.0
  0
LWPOLYLINE
  5
95
330
17
100
AcDbEntity
  8
0
 62
0
100
AcDbPolyline
 90
5
 70
0
 10
174.08583470577037
 20
61.5
 10
174.83583470577037
 20
71.5
 10
174.08583470577037
 20
81.5
 10
173.33583470577037
 20
71.5
 10
174.08583470577037
 20
61.5
  0
LWPOLYLINE
  5
96
330
17
100
AcDbEntity
  8
0
 62
0
100
AcDbPolyline
 90
5
 70
0
 10
168.73583470577034
 20
71.5
 10
169.48583470577034
 20
61.5
 10
170.23583470577034
 20
71.5
 10
169.48583470577034
 20
81.5
 10
168.73583470577034
 20
71.5
  0
LWPOLYLINE
  5
97
330
17
100
AcDbEntity
  8
0
 62
0
100
AcDbPolyline
 90
5
 70
0
 10
171.03583470577036
 20
83.0
 10
171.78583470577036
 20
73.0
 10
172.53583470577036
 20
83.0
 10
171.78583470577036
 20
93.0
 10
171.03583470577036
 20
83.0
  0
LWPOLYLINE
  5
98
330
17
100
AcDbEntity
  8
0
 62
0
100
AcDbPolyline
 90
5
 70
0
 10
178.68583470577033
 20
15.5
 10
179.43583470577033
 20
25.5
 10
178.68583470577033
 20
35.5
 10
177.93583470577033
 20
25.5
 10
178.68583470577033
 20
15.5
  0
LWPOLYLINE
  5
99
330
17
100
AcDbEntity
  8
0
 62
0
100
AcDbPolyline
 90
5
 70
0
 10
182.53583470577036
 20
25.5
 10
183.28583470577036
 20
15.5
 10
184.03583470577036
 20
25.5
 10
183.28583470577036
 20
35.5
 10
182.53583470577036
 20
25.5
  0
LWPOLYLINE
  5
9A
330
17
100
AcDbEntity
  8
0
 62
0
100
AcDbPolyline
 90
5
 70
0
 10
175.63583470577032
 20
37.0
 10
176.38583470577032
 20
27.0
 10
177.13583470577032
 20
37.0
 10
176.38583470577032
 20
47.0
 10
175.63583470577032
 20
37.0
  0
LWPOLYLINE
  5
9B
330
17
100
AcDbEntity
  8
0
 62
0
100
AcDbPolyline
 90
5
 70
0
 10
180.98583470577034
 20
27.0
 10
181.73583470577034
 20
37.0
 10
180.98583470577034
 20
47.0
 10
180.23583470577034
 20
37.0
 10
180.98583470577034
 20
27.0
  0
LWPOLYLINE
  5
9C
330
17
100
AcDbEntity
  8
0
 62
0
100
AcDbPolyline
 90
5
 70
0
 10
177.93583470577033
 20
48.5
 10
178.68583470577033
 20
38.5
 10
179.43583470577033
 20
48.5
 10
178.68583470577033
 20
58.5
 10
177.93583470577033
 20
48.5
  0
LWPOLYLINE
  5
9D
330
17
100
AcDbEntity
  8
0
 62
0
100
AcDbPolyline
 90
5
 70
0
 10
182.53583470577036
 20
48.5
 10
183.28583470577036
 20
38.5
 10
184.03583470577036
 20
48.5
 10
183.28583470577036
 20
58.5
 10
182.53583470577036
 20
48.5
  0
LWPOLYLINE
  5
9E
330
17
100
AcDbEntity
  8
0
 62
0
100
AcDbPolyline
 90
5
 70
0
 10
180.98583470577034
 20
50.0
 10
181.73583470577034
 20
60.0
 10
180.98583470577034
 20
70.0
 10
180.23583470577034
 20
60.0
 10
180.98583470577034
 20
50.0
  0
LWPOLYLINE
  5
9F
330
17
100
AcDbEntity
  8
0
 62
0
100
AcDbPolyline
 90
5
 70
0
 10
175.63583470577032
 20
60.0
 10
176.38583470577032
 20
50.0
 10
177.13583470577032
 20
60.0
 10
176.38583470577032
 20
70.0
 10
175.63583470577032
 20
60.0
  0
LWPOLYLINE
  5
A0
330
17
100
AcDbEntity
  8
0
 62
0
100
AcDbPolyline
 90
5
 70
0
 10
182.53583470577036
 20
71.5
 10
183.28583470577036
 20
61.5
 10
184.03583470577036
 20
71.5
 10
183.28583470577036
 20
81.5
 10
182.53583470577036
 20
71.5
  0
LWPOLYLINE
  5
A1
330
17
100
AcDbEntity
  8
0
 62
0
100
AcDbPolyline
 90
5
 70
0
 10
178.68583470577033
 20
61.5
 10
179.43583470577033
 20
71.5
 10
178.68583470577033
 20
81.5
 10
177.93583470577033
 20
71.5
 10
178.68583470577033
 20
61.5
  0
LWPOLYLINE
  5
A2
330
17
100
AcDbEntity
  8
0
 62
0
100
AcDbPolyline
 90
5
 70
0
 10
180.23583470577034
 20
83.0
 10
180.98583470577034
 20
73.0
 10
181.73583470577034
 20
83.0
 10
180.98583470577034
 20
93.0
 10
180.23583470577034
 20
83.0
  0
LWPOLYLINE
  5
A3
330
17
100
AcDbEntity
  8
0
 62
0
100
AcDbPolyline
 90
5
 70
0
 10
175.63583470577032
 20
83.0
 10
176.38583470577032
 20
73.0
 10
177.13583470577032
 20
83.0
 10
176.38583470577032
 20
93.0
 10
175.63583470577032
 20
83.0
  0
LWPOLYLINE
  5
A4
330
17
100
AcDbEntity
  8
0
 62
0
100
AcDbPolyline
 90
5
 70
0
 10
183.28583470577036
 20
84.5
 10
184.03583470577036
 20
94.5
 10
183.28583470577036
 20
104.5
 10
182.53583470577036
 20
94.5
 10
183.28583470577036
 20
84.5
  0
LWPOLYLINE
  5
A5
330
17
100
AcDbEntity
  8
0
 62
0
100
AcDbPolyline
 90
5
 70
0
 10
177.93583470577033
 20
94.5
 10
178.68583470577033
 20
84.5
 10
179.43583470577033
 20
94.5
 10
178.68583470577033
 20
104.5
 10
177.93583470577033
 20
94.5
  0
LWPOLYLINE
  5
A6
330
17
100
AcDbEntity
  8
0
 62
0
100
AcDbPolyline
 90
5
 70
0
 10
249.00972450961723
 20
35.5
 10
248.25972450961723
 20
25.5
 10
249.00972450961723
 20
15.5
 10
249.75972450961723
 20
25.5
 10
249.00972450961723
 20
35.5
  0
LWPOLYLINE
  5
A7
330
17
100
AcDbEntity
  8
0
 62
0
100
AcDbPolyline
 90
5
 70
0
 10
244.40972450961726
 20
35.5
 10
243.65972450961726
 20
25.5
 10
244.40972450961726
 20
15.5
 10
245.15972450961726
 20
25.5
 10
244.40972450961726
 20
35.5
  0
LWPOLYLINE
  5
A8
330
17
100
AcDbEntity
  8
0
 62
0
100
AcDbPolyline
 90
5
 70
0
 10
250.55972450961724
 20
37.0
 10
251.30972450961724
 20
27.0
 10
252.05972450961724
 20
37.0
 10
251.30972450961724
 20
47.0
 10
250.55972450961724
 20
37.0
  0
LWPOLYLINE
  5
A9
330
17
100
AcDbEntity
  8
0
 62
0
100
AcDbPolyline
 90
5
 70
0
 10
246.70972450961727
 20
47.0
 10
245.95972450961727
 20
37.0
 10
246.70972450961727
 20
27.0
 10
247.45972450961727
 20
37.0
 10
246.70972450961727
 20
47.0
  0
LWPOLYLINE
  5
AA
330
17
100
AcDbEntity
  8
0
 62
0
100
AcDbPolyline
 90
5
 70
0
 10
244.40972450961726
 20
58.5
 10
243.65972450961726
 20
48.5
 10
244.40972450961726
 20
38.5
 10
245.15972450961726
 20
48.5
 10
244.40972450961726
 20
58.5
  0
LWPOLYLINE
  5
AB
330
17
100
AcDbEntity
  8
0
 62
0
100
AcDbPolyline
 90
5
 70
0
 10
248.25972450961723
 20
48.5
 10
249.00972450961723
 20
38.5
 10
249.75972450961723
 20
48.5
 10
249.00972450961723
 20
58.5
 10
248.25972450961723
 20
48.5
  0
LWPOLYLINE
  5
AC
330
17
100
AcDbEntity
  8
0
 62
0
100
AcDbPolyline
 90
5
 70
0
 10
251.30972450961724
 20
70.0
 10
250.55972450961724
 20
60.0
 10
251.30972450961724
 20
50.0
 10
252.05972450961724
 20
60.0
 10
251.30972450961724
 20
70.0
  0
LWPOLYLINE
  5
AD
330
17
100
AcDbEntity
  8
0
 62
0
100
AcDbPolyline
 90
5
 70
0
 10
246.70972450961727
 20
70.0
 10
245.95972450961727
 20
60.0
 10
246.70972450961727
 20
50.0
 10
247.45972450961727
 20
60.0
 10
246.70972450961727
 20
70.0
  0
LWPOLYLINE
  5
AE
330
17
100
AcDbEntity
  8
0
 62
0
100
AcDbPolyline
 90
5
 70
0
 10
243.65972450961726
 20
71.5
 10
244.40972450961726
 20
61.5
 10
245.15972450961726
 20
71.5
 10
244.40972450961726
 20
81.5
 10
243.65972450961726
 20
71.5
  0
LWPOLYLINE
  5
AF
330
17
100
AcDbEntity
  8
0
 62
0
100
AcDbPolyline
 90
5
 70
0
 10
249.00972450961723
 20
81.5
 10
248.25972450961723
 20
71.5
 10
249.00972450961723
 20
61.5
 10
249.75972450961723
 20
71.5
 10
249.00972450961723
 20
81.5
  0
LWPOLYLINE
  5
B0
330
17
100
AcDbEntity
  8
0
 62
0
100
AcDbPolyline
 90
5
 70
0
 10
246.70972450961727
 20
93.0
 10
245.95972450961727
 20
83.0
 10
246.70972450961727
 20
73.0
 10
247.45972450961727
 20
83.0
 10
246.70972450961727
 20
93.0
  0
LWPOLYLINE
  5
B1
330
17
100
AcDbEntity
  8
0
 62
0
100
AcDbPolyline
 90
5
 70
0
 10
250.55972450961724
 20
83.0
 10
251.30972450961724
 20
73.0
 10
252.05972450961724
 20
83.0
 10
251.30972450961724
 20
93.0
 10
250.55972450961724
 20
83.0
  0
LWPOLYLINE
  5
B2
330
17
100
AcDbEntity
  8
0
 62
0
100
AcDbPolyline
 90
5
 70
0
 10
249.00972450961723
 20
104.5
 10
248.25972450961723
 20
94.5
 10
249.00972450961723
 20
84.5
 10
249.75972450961723
 20
94.5
 10
249.00972450961723
 20
104.5
  0
LWPOLYLINE
  5
B3
330
17
100
AcDbEntity
  8
0
 62
0
100
AcDbPolyline
 90
5
 70
0
 10
244.40972450961726
 20
104.5
 10
243.65972450961726
 20
94.5
 10
244.40972450961726
 20
84.5
 10
245.15972450961726
 20
94.5
 10
244.40972450961726
 20
104.5
  0
LWPOLYLINE
  5
B4
330
17
100
AcDbEntity
  8
0
 62
0
100
AcDbPolyline
 90
5
 70
0
 10
255.90972450961726
 20
47.0
 10
255.15972450961726
 20
37.0
 10
255.90972450961726
 20
27.0
 10
256.65972450961726
 20
37.0
 10
255.90972450961726
 20
47.0
  0
LWPOLYLINE
  5
B5
330
17
100
AcDbEntity
  8
0
 62
0
100
AcDbPolyline
 90
5
 70
0
 10
258.2097245096173
 20
58.5
 10
257.4597245096173
 20
48.5
 10
258.2097245096173
 20
38.5
 10
258.9597245096173
 20
48.5
 10
258.2097245096173
 20
58.5
  0
LWPOLYLINE
  5
B6
330
17
100
AcDbEntity
  8
0
 62
0
100
AcDbPolyline
 90
5
 70
0
 10
262.80972450961724
 20
58.5
 10
262.05972450961724
 20
48.5
 10
262.80972450961724
 20
38.5
 10
263.55972450961724
 20
48.5
 10
262.80972450961724
 20
58.5
  0
LWPOLYLINE
  5
B7
330
17
100
AcDbEntity
  8
0
 62
0
100
AcDbPolyline
 90
5
 70
0
 10
252.85972450961725
 20
48.5
 10
253.60972450961725
 20
38.5
 10
254.35972450961725
 20
48.5
 10
253.60972450961725
 20
58.5
 10
252.85972450961725
 20
48.5
  0
LWPOLYLINE
  5
B8
330
17
100
AcDbEntity
  8
0
 62
0
100
AcDbPolyline
 90
5
 70
0
 10
260.50972450961723
 20
70.0
 10
259.75972450961723
 20
60.0
 10
260.50972450961723
 20
50.0
 10
261.25972450961723
 20
60.0
 10
260.50972450961723
 20
70.0
  0
LWPOLYLINE
  5
B9
330
17
100
AcDbEntity
  8
0
 62
0
100
AcDbPolyline
 90
5
 70
0
 10
255.90972450961726
 20
70.0
 10
255.15972450961726
 20
60.0
 10
255.90972450961726
 20
50.0
 10
256.65972450961726
 20
60.0
 10
255.90972450961726
 20
70.0
  0
LWPOLYLINE
  5
BA
330
17
100
AcDbEntity
  8
0
 62
0
100
AcDbPolyline
 90
5
 70
0
 10
252.85972450961725
 20
71.5
 10
253.60972450961725
 20
61.5
 10
254.35972450961725
 20
71.5
 10
253.60972450961725
 20
81.5
 10
252.85972450961725
 20
71.5
  0
LWPOLYLINE
  5
BB
330
17
100
AcDbEntity
  8
0
 62
0
100
AcDbPolyline
 90
5
 70
0
 10
258.2097245096173
 20
81.5
 10
257.4597245096173
 20
71.5
 10
258.2097245096173
 20
61.5
 10
258.9597245096173
 20
71.5
 10
258.2097245096173
 20
81.5
  0
LWPOLYLINE
  5
BC
330
17
100
AcDbEntity
  8
0
 62
0
100
AcDbPolyline
 90
5
 70
0
 10
255.15972450961726
 20
83.0
 10
255.90972450961726
 20
73.0
 10
256.65972450961726
 20
83.0
 10
255.90972450961726
 20
93.0
 10
255.15972450961726
 20
83.0
  0
LWPOLYLINE
  5
BD
330
17
100
AcDbEntity
  8
0
 62
0
100
AcDbPolyline
 90
5
 70
0
 10
272.00972450961723
 20
58.5
 10
271.25972450961723
 20
48.5
 10
272.00972450961723
 20
38.5
 10
272.75972450961723
 20
48.5
 10
272.00972450961723
 20
58.5
  0
LWPOLYLINE
  5
BE
330
17
100
AcDbEntity
  8
0
 62
0
100
AcDbPolyline
 90
5
 70
0
 10
266.65972450961726
 20
48.5
 10
267.40972450961726
 20
38.5
 10
268.15972450961726
 20
48.5
 10
267.40972450961726
 20
58.5
 10
266.65972450961726
 20
48.5
  0
LWPOLYLINE
  5
BF
330
17
100
AcDbEntity
  8
0
 62
0
100
AcDbPolyline
 90
5
 70
0
 10
269.7097245096173
 20
70.0
 10
268.9597245096173
 20
60.0
 10
269.7097245096173
 20
50.0
 10
270.4597245096173
 20
60.0
 10
269.7097245096173
 20
70.0
  0
LWPOLYLINE
  5
C0
330
17
100
AcDbEntity
  8
0
 62
0
100
AcDbPolyline
 90
5
 70
0
 10
265.10972450961725
 20
70.0
 10
264.35972450961725
 20
60.0
 10
265.10972450961725
 20
50.0
 10
265.85972450961725
 20
60.0
 10
265.10972450961725
 20
70.0
  0
LWPOLYLINE
  5
C1
330
17
100
AcDbEntity
  8
0
 62
0
100
AcDbPolyline
 90
5
 70
0
 10
266.65972450961726
 20
71.5
 10
267.40972450961726
 20
61.5
 10
268.15972450961726
 20
71.5
 10
267.40972450961726
 20
81.5
 10
266.65972450961726
 20
71.5
  0
LWPOLYLINE
  5
C2
330
17
100
AcDbEntity
  8
0
 62
0
100
AcDbPolyline
 90
5
 70
0
 10
271.25972450961723
 20
71.5
 10
272.00972450961723
 20
61.5
 10
272.75972450961723
 20
71.5
 10
272.00972450961723
 20
81.5
 10
271.25972450961723
 20
71.5
  0
LWPOLYLINE
  5
C3
330
17
100
AcDbEntity
  8
0
 62
0
100
AcDbPolyline
 90
5
 70
0
 10
262.05972450961724
 20
71.5
 10
262.80972450961724
 20
61.5
 10
263.55972450961724
 20
71.5
 10
262.80972450961724
 20
81.5
 10
262.05972450961724
 20
71.5
  0
LWPOLYLINE
  5
C4
330
17
100
AcDbEntity
  8
0
 62
0
100
AcDbPolyline
 90
5
 70
0
 10
278.15972450961726
 20
37.0
 10
278.90972450961726
 20
27.0
 10
279.65972450961726
 20
37.0
 10
278.90972450961726
 20
47.0
 10
278.15972450961726
 20
37.0
  0
LWPOLYLINE
  5
C5
330
17
100
AcDbEntity
  8
0
 62
0
100
AcDbPolyline
 90
5
 70
0
 10
276.60972450961725
 20
58.5
 10
275.85972450961725
 20
48.5
 10
276.60972450961725
 20
38.5
 10
277.35972450961725
 20
48.5
 10
276.60972450961725
 20
58.5
  0
LWPOLYLINE
  5
C6
330
17
100
AcDbEntity
  8
0
 62
0
100
AcDbPolyline
 90
5
 70
0
 10
280.4597245096173
 20
48.5
 10
281.2097245096173
 20
38.5
 10
281.9597245096173
 20
48.5
 10
281.2097245096173
 20
58.5
 10
280.4597245096173
 20
48.5
  0
LWPOLYLINE
  5
C7
330
17
100
AcDbEntity
  8
0
 62
0
100
AcDbPolyline
 90
5
 70
0
 10
274.30972450961724
 20
70.0
 10
273.55972450961724
 20
60.0
 10
274.30972450961724
 20
50.0
 10
275.05972450961724
 20
60.0
 10
274.30972450961724
 20
70.0
  0
LWPOLYLINE
  5
C8
330
17
100
AcDbEntity
  8
0
 62
0
100
AcDbPolyline
 90
5
 70
0
 10
278.90972450961726
 20
70.0
 10
278.15972450961726
 20
60.0
 10
278.90972450961726
 20
50.0
 10
279.65972450961726
 20
60.0
 10
278.90972450961726
 20
70.0
  0
LWPOLYLINE
  5
C9
330
17
100
AcDbEntity
  8
0
 62
0
100
AcDbPolyline
 90
5
 70
0
 10
280.4597245096173
 20
71.5
 10
281.2097245096173
 20
61.5
 10
281.9597245096173
 20
71.5
 10
281.2097245096173
 20
81.5
 10
280.4597245096173
 20
71.5
  0
LWPOLYLINE
  5
CA
330
17
100
AcDbEntity
  8
0
 62
0
100
AcDbPolyline
 90
5
 70
0
 10
276.60972450961725
 20
81.5
 10
275.85972450961725
 20
71.5
 10
276.60972450961725
 20
61.5
 10
277.35972450961725
 20
71.5
 10
276.60972450961725
 20
81.5
  0
LWPOLYLINE
  5
CB
330
17
100
AcDbEntity
  8
0
 62
0
100
AcDbPolyline
 90
5
 70
0
 10
278.90972450961726
 20
93.0
 10
278.15972450961726
 20
83.0
 10
278.90972450961726
 20
73.0
 10
279.65972450961726
 20
83.0
 10
278.90972450961726
 20
93.0
  0
LWPOLYLINE
  5
CC
330
17
100
AcDbEntity
  8
0
 62
0
100
AcDbPolyline
 90
5
 70
0
 10
285.05972450961724
 20
25.5
 10
285.80972450961724
 20
15.5
 10
286.55972450961724
 20
25.5
 10
285.80972450961724
 20
35.5
 10
285.05972450961724
 20
25.5
  0
LWPOLYLINE
  5
CD
330
17
100
AcDbEntity
  8
0
 62
0
100
AcDbPolyline
 90
5
 70
0
 10
290.40972450961726
 20
35.5
 10
289.65972450961726
 20
25.5
 10
290.40972450961726
 20
15.5
 10
291.15972450961726
 20
25.5
 10
290.40972450961726
 20
35.5
  0
LWPOLYLINE
  5
CE
330
17
100
AcDbEntity
  8
0
 62
0
100
AcDbPolyline
 90
5
 70
0
 10
283.50972450961723
 20
47.0
 10
282.75972450961723
 20
37.0
 10
283.50972450961723
 20
27.0
 10
284.25972450961723
 20
37.0
 10
283.50972450961723
 20
47.0
  0
LWPOLYLINE
  5
CF
330
17
100
AcDbEntity
  8
0
 62
0
100
AcDbPolyline
 90
5
 70
0
 10
287.35972450961725
 20
37.0
 10
288.10972450961725
 20
27.0
 10
288.85972450961725
 20
37.0
 10
288.10972450961725
 20
47.0
 10
287.35972450961725
 20
37.0
  0
LWPOLYLINE
  5
D0
330
17
100
AcDbEntity
  8
0
 62
0
100
AcDbPolyline
 90
5
 70
0
 10
285.80972450961724
 20
58.5
 10
285.05972450961724
 20
48.5
 10
285.80972450961724
 20
38.5
 10
286.55972450961724
 20
48.5
 10
285.80972450961724
 20
58.5
  0
LWPOLYLINE
  5
D1
330
17
100
AcDbEntity
  8
0
 62
0
100
AcDbPolyline
 90
5
 70
0
 10
290.40972450961726
 20
58.5
 10
289.65972450961726
 20
48.5
 10
290.40972450961726
 20
38.5
 10
291.15972450961726
 20
48.5
 10
290.40972450961726
 20
58.5
  0
LWPOLYLINE
  5
D2
330
17
100
AcDbEntity
  8
0
 62
0
100
AcDbPolyline
 90
5
 70
0
 10
287.35972450961725
 20
60.0
 10
288.10972450961725
 20
50.0
 10
288.85972450961725
 20
60.0
 10
288.10972450961725
 20
70.0
 10
287.35972450961725
 20
60.0
  0
LWPOLYLINE
  5
D3
330
17
100
AcDbEntity
  8
0
 62
0
100
AcDbPolyline
 90
5
 70
0
 10
283.50972450961723
 20
70.0
 10
282.75972450961723
 20
60.0
 10
283.50972450961723
 20
50.0
 10
284.25972450961723
 20
60.0
 10
283.50972450961723
 20
70.0
  0
LWPOLYLINE
  5
D4
330
17
100
AcDbEntity
  8
0
 62
0
100
AcDbPolyline
 90
5
 70
0
 10
290.40972450961726
 20
81.5
 10
289.65972450961726
 20
71.5
 10
290.40972450961726
 20
61.5
 10
291.15972450961726
 20
71.5
 10
290.40972450961726
 20
81.5
  0
LWPOLYLINE
  5
D5
330
17
100
AcDbEntity
  8
0
 62
0
100
AcDbPolyline
 90
5
 70
0
 10
285.05972450961724
 20
71.5
 10
285.80972450961724
 20
61.5
 10
286.55972450961724
 20
71.5
 10
285.80972450961724
 20
81.5
 10
285.05972450961724
 20
71.5
  0
LWPOLYLINE
  5
D6
330
17
100
AcDbEntity
  8
0
 62
0
100
AcDbPolyline
 90
5
 70
0
 10
288.10972450961725
 20
93.0
 10
287.35972450961725
 20
83.0
 10
288.10972450961725
 20
73.0
 10
288.85972450961725
 20
83.0
 10
288.10972450961725
 20
93.0
  0
LWPOLYLINE
  5
D7
330
17
100
AcDbEntity
  8
0
 62
0
100
AcDbPolyline
 90
5
 70
0
 10
283.50972450961723
 20
93.0
 10
282.75972450961723
 20
83.0
 10
283.50972450961723
 20
73.0
 10
284.25972450961723
 20
83.0
 10
283.50972450961723
 20
93.0
  0
LWPOLYLINE
  5
D8
330
17
100
AcDbEntity
  8
0
 62
0
100
AcDbPolyline
 90
5
 70
0
 10
289.65972450961726
 20
94.5
 10
290.40972450961726
 20
84.5
 10
291.15972450961726
 20
94.5
 10
290.40972450961726
 20
104.5
 10
289.65972450961726
 20
94.5
  0
LWPOLYLINE
  5
D9
330
17
100
AcDbEntity
  8
0
 62
0
100
AcDbPolyline
 90
5
 70
0
 10
285.80972450961724
 20
104.5
 10
285.05972450961724
 20
94.5
 10
285.80972450961724
 20
84.5
 10
286.55972450961724
 20
94.5
 10
285.80972450961724
 20
104.5
  0
LWPOLYLINE
  5
DA
330
17
100
AcDbEntity
  8
0
 62
0
100
AcDbPolyline
 90
5
 70
0
 10
356.8836143134642
 20
25.5
 10
356.1336143134642
 20
35.5
 10
355.3836143134642
 20
25.5
 10
356.1336143134642
 20
15.5
 10
356.8836143134642
 20
25.5
  0
LWPOLYLINE
  5
DB
330
17
100
AcDbEntity
  8
0
 62
0
100
AcDbPolyline
 90
5
 70
0
 10
352.28361431346417
 20
25.5
 10
351.53361431346417
 20
35.5
 10
350.78361431346417
 20
25.5
 10
351.53361431346417
 20
15.5
 10
352.28361431346417
 20
25.5
  0
LWPOLYLINE
  5
DC
330
17
100
AcDbEntity
  8
0
 62
0
100
AcDbPolyline
 90
5
 70
0
 10
358.43361431346415
 20
47.0
 10
357.68361431346415
 20
37.0
 10
358.43361431346415
 20
27.0
 10
359.18361431346415
 20
37.0
 10
358.43361431346415
 20
47.0
  0
LWPOLYLINE
  5
DD
330
17
100
AcDbEntity
  8
0
 62
0
100
AcDbPolyline
 90
5
 70
0
 10
354.5836143134642
 20
37.0
 10
353.8336143134642
 20
47.0
 10
353.0836143134642
 20
37.0
 10
353.8336143134642
 20
27.0
 10
354.5836143134642
 20
37.0
  0
LWPOLYLINE
  5
DE
330
17
100
AcDbEntity
  8
0
 62
0
100
AcDbPolyline
 90
5
 70
0
 10
352.28361431346417
 20
48.5
 10
351.53361431346417
 20
58.5
 10
350.78361431346417
 20
48.5
 10
351.53361431346417
 20
38.5
 10
352.28361431346417
 20
48.5
  0
LWPOLYLINE
  5
DF
330
17
100
AcDbEntity
  8
0
 62
0
100
AcDbPolyline
 90
5
 70
0
 10
356.1336143134642
 20
58.5
 10
355.3836143134642
 20
48.5
 10
356.1336143134642
 20
38.5
 10
356.8836143134642
 20
48.5
 10
356.1336143134642
 20
58.5
  0
LWPOLYLINE
  5
E0
330
17
100
AcDbEntity
  8
0
 62
0
100
AcDbPolyline
 90
5
 70
0
 10
359.18361431346415
 20
60.0
 10
358.43361431346415
 20
70.0
 10
357.68361431346415
 20
60.0
 10
358.43361431346415
 20
50.0
 10
359.18361431346415
 20
60.0
  0
LWPOLYLINE
  5
E1
330
17
100
AcDbEntity
  8
0
 62
0
100
AcDbPolyline
 90
5
 70
0
 10
354.5836143134642
 20
60.0
 10
353.8336143134642
 20
70.0
 10
353.0836143134642
 20
60.0
 10
353.8336143134642
 20
50.0
 10
354.5836143134642
 20
60.0
  0
LWPOLYLINE
  5
E2
330
17
100
AcDbEntity
  8
0
 62
0
100
AcDbPolyline
 90
5
 70
0
 10
351.53361431346417
 20
81.5
 10
350.78361431346417
 20
71.5
 10
351.53361431346417
 20
61.5
 10
352.28361431346417
 20
71.5
 10
351.53361431346417
 20
81.5
  0
LWPOLYLINE
  5
E3
330
17
100
AcDbEntity
  8
0
 62
0
100
AcDbPolyline
 90
5
 70
0
 10
356.8836143134642
 20
71.5
 10
356.1336143134642
 20
81.5
 10
355.3836143134642
 20
71.5
 10
356.1336143134642
 20
61.5
 10
356.8836143134642
 20
71.5
  0
LWPOLYLINE
  5
E4
330
17
100
AcDbEntity
  8
0
 62
0
100
AcDbPolyline
 90
5
 70
0
 10
354.5836143134642
 20
83.0
 10
353.8336143134642
 20
93.0
 10
353.0836143134642
 20
83.0
 10
353.8336143134642
 20
73.0
 10
354.5836143134642
 20
83.0
  0
LWPOLYLINE
  5
E5
330
17
100
AcDbEntity
  8
0
 62
0
100
AcDbPolyline
 90
5
 70
0
 10
358.43361431346415
 20
93.0
 10
357.68361431346415
 20
83.0
 10
358.43361431346415
 20
73.0
 10
359.18361431346415
 20
83.0
 10
358.43361431346415
 20
93.0
  0
LWPOLYLINE
  5
E6
330
17
100
AcDbEntity
  8
0
 62
0
100
AcDbPolyline
 90
5
 70
0
 10
356.8836143134642
 20
94.5
 10
356.1336143134642
 20
104.5
 10
355.3836143134642
 20
94.5
 10
356.1336143134642
 20
84.5
 10
356.8836143134642
 20
94.5
  0
LWPOLYLINE
  5
E7
330
17
100
AcDbEntity
  8
0
 62
0
100
AcDbPolyline
 90
5
 70
0
 10
352.28361431346417
 20
94.5
 10
351.53361431346417
 20
104.5
 10
350.78361431346417
 20
94.5
 10
351.53361431346417
 20
84.5
 10
352.28361431346417
 20
94.5
  0
LWPOLYLINE
  5
E8
330
17
100
AcDbEntity
  8
0
 62
0
100
AcDbPolyline
 90
5
 70
0
 10
363.78361431346417
 20
37.0
 10
363.03361431346417
 20
47.0
 10
362.28361431346417
 20
37.0
 10
363.03361431346417
 20
27.0
 10
363.78361431346417
 20
37.0
  0
LWPOLYLINE
  5
E9
330
17
100
AcDbEntity
  8
0
 62
0
100
AcDbPolyline
 90
5
 70
0
 10
366.0836143134642
 20
48.5
 10
365.3336143134642
 20
58.5
 10
364.5836143134642
 20
48.5
 10
365.3336143134642
 20
38.5
 10
366.0836143134642
 20
48.5
  0
LWPOLYLINE
  5
EA
330
17
100
AcDbEntity
  8
0
 62
0
100
AcDbPolyline
 90
5
 70
0
 10
370.68361431346415
 20
48.5
 10
369.93361431346415
 20
58.5
 10
369.18361431346415
 20
48.5
 10
369.93361431346415
 20
38.5
 10
370.68361431346415
 20
48.5
  0
LWPOLYLINE
  5
EB
330
17
100
AcDbEntity
  8
0
 62
0
100
AcDbPolyline
 90
5
 70
0
 10
360.73361431346416
 20
58.5
 10
359.98361431346416
 20
48.5
 10
360.73361431346416
 20
38.5
 10
361.48361431346416
 20
48.5
 10
360.73361431346416
 20
58.5
  0
LWPOLYLINE
  5
EC
330
17
100
AcDbEntity
  8
0
 62
0
100
AcDbPolyline
 90
5
 70
0
 10
368.3836143134642
 20
60.0
 10
367.6336143134642
 20
70.0
 10
366.8836143134642
 20
60.0
 10
367.6336143134642
 20
50.0
 10
368.3836143134642
 20
60.0
  0
LWPOLYLINE
  5
ED
330
17
100
AcDbEntity
  8
0
 62
0
100
AcDbPolyline
 90
5
 70
0
 10
363.78361431346417
 20
60.0
 10
363.03361431346417
 20
70.0
 10
362.28361431346417
 20
60.0
 10
363.03361431346417
 20
50.0
 10
363.78361431346417
 20
60.0
  0
LWPOLYLINE
  5
EE
330
17
100
AcDbEntity
  8
0
 62
0
100
AcDbPolyline
 90
5
 70
0
 10
360.73361431346416
 20
81.5
 10
359.98361431346416
 20
71.5
 10
360.73361431346416
 20
61.5
 10
361.48361431346416
 20
71.5
 10
360.73361431346416
 20
81.5
  0
LWPOLYLINE
  5
EF
330
17
100
AcDbEntity
  8
0
 62
0
100
AcDbPolyline
 90
5
 70
0
 10
366.0836143134642
 20
71.5
 10
365.3336143134642
 20
81.5
 10
364.5836143134642
 20
71.5
 10
365.3336143134642
 20
61.5
 10
366.0836143134642
 20
71.5
  0
LWPOLYLINE
  5
F0
330
17
100
AcDbEntity
  8
0
 62
0
100
AcDbPolyline
 90
5
 70
0
 10
363.03361431346417
 20
93.0
 10
362.28361431346417
 20
83.0
 10
363.03361431346417
 20
73.0
 10
363.78361431346417
 20
83.0
 10
363.03361431346417
 20
93.0
  0
LWPOLYLINE
  5
F1
330
17
100
AcDbEntity
  8
0
 62
0
100
AcDbPolyline
 90
5
 70
0
 10
379.8836143134642
 20
48.5
 10
379.1336143134642
 20
58.5
 10
378.3836143134642
 20
48.5
 10
379.1336143134642
 20
38.5
 10
379.8836143134642
 20
48.5
  0
LWPOLYLINE
  5
F2
330
17
100
AcDbEntity
  8
0
 62
0
100
AcDbPolyline
 90
5
 70
0
 10
374.53361431346417
 20
58.5
 10
373.78361431346417
 20
48.5
 10
374.53361431346417
 20
38.5
 10
375.28361431346417
 20
48.5
 10
374.53361431346417
 20
58.5
  0
LWPOLYLINE
  5
F3
330
17
100
AcDbEntity
  8
0
 62
0
100
AcDbPolyline
 90
5
 70
0
 10
377.5836143134642
 20
60.0
 10
376.8336143134642
 20
70.0
 10
376.0836143134642
 20
60.0
 10
376.8336143134642
 20
50.0
 10
377.5836143134642
 20
60.0
  0
LWPOLYLINE
  5
F4
330
17
100
AcDbEntity
  8
0
 62
0
100
AcDbPolyline
 90
5
 70
0
 10
372.98361431346416
 20
60.0
 10
372.23361431346416
 20
70.0
 10
371.48361431346416
 20
60.0
 10
372.23361431346416
 20
50.0
 10
372.98361431346416
 20
60.0
  0
LWPOLYLINE
  5
F5
330
17
100
AcDbEntity
  8
0
 62
0
100
AcDbPolyline
 90
5
 70
0
 10
374.53361431346417
 20
81.5
 10
373.78361431346417
 20
71.5
 10
374.53361431346417
 20
61.5
 10
375.28361431346417
 20
71.5
 10
374.53361431346417
 20
81.5
  0
LWPOLYLINE
  5
F6
330
17
100
AcDbEntity
  8
0
 62
0
100
AcDbPolyline
 90
5
 70
0
 10
379.1336143134642
 20
81.5
 10
378.3836143134642
 20
71.5
 10
379.1336143134642
 20
61.5
 10
379.8836143134642
 20
71.5
 10
379.1336143134642
 20
81.5
  0
LWPOLYLINE
  5
F7
330
17
100
AcDbEntity
  8
0
 62
0
100
AcDbPolyline
 90
5
 70
0
 10
369.93361431346415
 20
81.5
 10
369.18361431346415
 20
71.5
 10
369.93361431346415
 20
61.5
 10
370.68361431346415
 20
71.5
 10
369.93361431346415
 20
81.5
  0
LWPOLYLINE
  5
F8
330
17
100
AcDbEntity
  8
0
 62
0
100
AcDbPolyline
 90
5
 70
0
 10
386.03361431346417
 20
47.0
 10
385.28361431346417
 20
37.0
 10
386.03361431346417
 20
27.0
 10
386.78361431346417
 20
37.0
 10
386.03361431346417
 20
47.0
  0
LWPOLYLINE
  5
F9
330
17
100
AcDbEntity
  8
0
 62
0
100
AcDbPolyline
 90
5
 70
0
 10
384.48361431346416
 20
48.5
 10
383.73361431346416
 20
58.5
 10
382.98361431346416
 20
48.5
 10
383.73361431346416
 20
38.5
 10
384.48361431346416
 20
48.5
  0
LWPOLYLINE
  5
FA
330
17
100
AcDbEntity
  8
0
 62
0
100
AcDbPolyline
 90
5
 70
0
 10
388.3336143134642
 20
58.5
 10
387.5836143134642
 20
48.5
 10
388.3336143134642
 20
38.5
 10
389.0836143134642
 20
48.5
 10
388.3336143134642
 20
58.5
  0
LWPOLYLINE
  5
FB
330
17
100
AcDbEntity
  8
0
 62
0
100
AcDbPolyline
 90
5
 70
0
 10
382.18361431346415
 20
60.0
 10
381.43361431346415
 20
70.0
 10
380.68361431346415
 20
60.0
 10
381.43361431346415
 20
50.0
 10
382.18361431346415
 20
60.0
  0
LWPOLYLINE
  5
FC
330
17
100
AcDbEntity
  8
0
 62
0
100
AcDbPolyline
 90
5
 70
0
 10
386.78361431346417
 20
60.0
 10
386.03361431346417
 20
70.0
 10
385.28361431346417
 20
60.0
 10
386.03361431346417
 20
50.0
 10
386.78361431346417
 20
60.0
  0
LWPOLYLINE
  5
FD
330
17
100
AcDbEntity
  8
0
 62
0
100
AcDbPolyline
 90
5
 70
0
 10
388.3336143134642
 20
81.5
 10
387.5836143134642
 20
71.5
 10
388.3336143134642
 20
61.5
 10
389.0836143134642
 20
71.5
 10
388.3336143134642
 20
81.5
  0
LWPOLYLINE
  5
FE
330
17
100
AcDbEntity
  8
0
 62
0
100
AcDbPolyline
 90
5
 70
0
 10
384.48361431346416
 20
71.5
 10
383.73361431346416
 20
81.5
 10
382.98361431346416
 20
71.5
 10
383.73361431346416
 20
61.5
 10
384.48361431346416
 20
71.5
  0
LWPOLYLINE
  5
FF
330
17
100
AcDbEntity
  8
0
 62
0
100
AcDbPolyline
 90
5
 70
0
 10
386.78361431346417
 20
83.0
 10
386.03361431346417
 20
93.0
 10
385.28361431346417
 20
83.0
 10
386.03361431346417
 20
73.0
 10
386.78361431346417
 20
83.0
  0
LWPOLYLINE
  5
100
330
17
100
AcDbEntity
  8
0
 62
0
100
AcDbPolyline
 90
5
 70
0
 10
392.93361431346415
 20
35.5
 10
392.18361431346415
 20
25.5
 10
392.93361431346415
 20
15.5
 10
393.68361431346415
 20
25.5
 10
392.93361431346415
 20
35.5
  0
LWPOLYLINE
  5
101
330
17
100
AcDbEntity
  8
0
 62
0
100
AcDbPolyline
 90
5
 70
0
 10
398.28361431346417
 20
25.5
 10
397.53361431346417
 20
35.5
 10
396.78361431346417
 20
25.5
 10
397.53361431346417
 20
15.5
 10
398.28361431346417
 20
25.5
  0
LWPOLYLINE
  5
102
330
17
100
AcDbEntity
  8
0
 62
0
100
AcDbPolyline
 90
5
 70
0
 10
391.3836143134642
 20
37.0
 10
390.6336143134642
 20
47.0
 10
389.8836143134642
 20
37.0
 10
390.6336143134642
 20
27.0
 10
391.3836143134642
 20
37.0
  0
LWPOLYLINE
  5
103
330
17
100
AcDbEntity
  8
0
 62
0
100
AcDbPolyline
 90
5
 70
0
 10
395.23361431346416
 20
47.0
 10
394.48361431346416
 20
37.0
 10
395.23361431346416
 20
27.0
 10
395.98361431346416
 20
37.0
 10
395.23361431346416
 20
47.0
  0
LWPOLYLINE
  5
104
330
17
100
AcDbEntity
  8
0
 62
0
100
AcDbPolyline
 90
5
 70
0
 10
393.68361431346415
 20
48.5
 10
392.93361431346415
 20
58.5
 10
392.18361431346415
 20
48.5
 10
392.93361431346415
 20
38.5
 10
393.68361431346415
 20
48.5
  0
LWPOLYLINE
  5
105
330
17
100
AcDbEntity
  8
0
 62
0
100
AcDbPolyline
 90
5
 70
0
 10
398.28361431346417
 20
48.5
 10
397.53361431346417
 20
58.5
 10
396.78361431346417
 20
48.5
 10
397.53361431346417
 20
38.5
 10
398.28361431346417
 20
48.5
  0
LWPOLYLINE
  5
106
330
17
100
AcDbEntity
  8
0
 62
0
100
AcDbPolyline
 90
5
 70
0
 10
395.23361431346416
 20
70.0
 10
394.48361431346416
 20
60.0
 10
395.23361431346416
 20
50.0
 10
395.98361431346416
 20
60.0
 10
395.23361431346416
 20
70.0
  0
LWPOLYLINE
  5
107
330
17
100
AcDbEntity
  8
0
 62
0
100
AcDbPolyline
 90
5
 70
0
 10
391.3836143134642
 20
60.0
 10
390.6336143134642
 20
70.0
 10
389.8836143134642
 20
60.0
 10
390.6336143134642
 20
50.0
 10
391.3836143134642
 20
60.0
  0
LWPOLYLINE
  5
108
330
17
100
AcDbEntity
  8
0
 62
0
100
AcDbPolyline
 90
5
 70
0
 10
398.28361431346417
 20
71.5
 10
397.53361431346417
 20
81.5
 10
396.78361431346417
 20
71.5
 10
397.53361431346417
 20
61.5
 10
398.28361431346417
 20
71.5
  0
LWPOLYLINE
  5
109
330
17
100
AcDbEntity
  8
0
 62
0
100
AcDbPolyline
 90
5
 70
0
 10
392.93361431346415
 20
81.5
 10
392.18361431346415
 20
71.5
 10
392.93361431346415
 20
61.5
 10
393.68361431346415
 20
71.5
 10
392.93361431346415
 20
81.5
  0
LWPOLYLINE
  5
10A
330
17
100
AcDbEntity
  8
0
 62
0
100
AcDbPolyline
 90
5
 70
0
 10
395.98361431346416
 20
83.0
 10
395.23361431346416
 20
93.0
 10
394.48361431346416
 20
83.0
 10
395.23361431346416
 20
73.0
 10
395.98361431346416
 20
83.0
  0
LWPOLYLINE
  5
10B
330
17
100
AcDbEntity
  8
0
 62
0
100
AcDbPolyline
 90
5
 70
0
 10
391.3836143134642
 20
83.0
 10
390.6336143134642
 20
93.0
 10
389.8836143134642
 20
83.0
 10
390.6336143134642
 20
73.0
 10
391.3836143134642
 20
83.0
  0
LWPOLYLINE
  5
10C
330
17
100
AcDbEntity
  8
0
 62
0
100
AcDbPolyline
 90
5
 70
0
 10
397.53361431346417
 20
104.5
 10
396.78361431346417
 20
94.5
 10
397.53361431346417
 20
84.5
 10
398.28361431346417
 20
94.5
 10
397.53361431346417
 20
104.5
  0
LWPOLYLINE
  5
10D
330
17
100
AcDbEntity
  8
0
 62
0
100
AcDbPolyline
 90
5
 70
0
 10
393.68361431346415
 20
94.5
 10
392.93361431346415
 20
104.5
 10
392.18361431346415
 20
94.5
 10
392.93361431346415
 20
84.5
 10
393.68361431346415
 20
94.5
  0
ENDSEC
  0
SECTION
  2
OBJECTS
  0
DICTIONARY
  5
A
330
0
100
AcDbDictionary
280
0
281
1
  3
ACAD_COLOR
350
B
  3
ACAD_GROUP
350
C
  3
ACAD_LAYOUT
350
D
  3
ACAD_MATERIAL
350
E
  3
ACAD_MLEADERSTYLE
350
F
  3
ACAD_MLINESTYLE
350
10
  3
ACAD_PLOTSETTINGS
350
11
  3
ACAD_PLOTSTYLENAME
350
12
  3
ACAD_SCALELIST
350
14
  3
ACAD_TABLESTYLE
350
15
  3
ACAD_VISUALSTYLE
350
16
  3
EZDXF_META
350
2D
  0
DICTIONARY
  5
B
330
A
100
AcDbDictionary
280
0
281
1
  0
DICTIONARY
  5
C
330
A
100
AcDbDictionary
280
0
281
1
  0
DICTIONARY
  5
D
330
A
100
AcDbDictionary
280
0
281
1
  3
Model
350
1A
  3
Layout1
350
1E
  0
DICTIONARY
  5
E
330
A
100
AcDbDictionary
280
0
281
1
  3
ByBlock
350
1F
  3
ByLayer
350
20
  3
Global
350
21
  0
DICTIONARY
  5
F
330
A
100
AcDbDictionary
280
0
281
1
  3
Standard
350
2C
  0
DICTIONARY
  5
10
330
A
100
AcDbDictionary
280
0
281
1
  3
Standard
350
22
  0
DICTIONARY
  5
11
330
A
100
AcDbDictionary
280
0
281
1
  0
ACDBDICTIONARYWDFLT
  5
12
330
A
100
AcDbDictionary
280
0
281
1
  3
Normal
350
13
100
AcDbDictionaryWithDefault
340
13
  0
ACDBPLACEHOLDER
  5
13
330
12
  0
DICTIONARY
  5
14
330
A
100
AcDbDictionary
280
0
281
1
  0
DICTIONARY
  5
15
330
A
100
AcDbDictionary
280
0
281
1
  0
DICTIONARY
  5
16
330
A
100
AcDbDictionary
280
0
281
1
  0
LAYOUT
  5
1A
330
D
100
AcDbPlotSettings
  1

  2
Adobe PDF
  4
A3
  6

 40
7.5
 41
20.0
 42
7.5
 43
20.0
 44
420.0
 45
297.0
 46
0.0
 47
0.0
 48
0.0
 49
0.0
140
0.0
141
0.0
142
1.0
143
1.0
 70
1024
 72
1
 73
0
 74
5
  7

 75
16
 76
0
 77
2
 78
300
147
1.0
148
0.0
149
0.0
100
AcDbLayout
  1
Model
 70
1
 71
0
 10
0.0
 20
0.0
 11
420.0
 21
297.0
 12
0.0
 22
0.0
 32
0.0
 14
1e+20
 24
1e+20
 34
1e+20
 15
-1e+20
 25
-1e+20
 35
-1e+20
146
0.0
 13
0.0
 23
0.0
 33
0.0
 16
1.0
 26
0.0
 36
0.0
 17
0.0
 27
1.0
 37
0.0
 76
1
330
17
  0
LAYOUT
  5
1E
330
D
100
AcDbPlotSettings
  1

  2
Adobe PDF
  4
A3
  6

 40
7.5
 41
20.0
 42
7.5
 43
20.0
 44
420.0
 45
297.0
 46
0.0
 47
0.0
 48
0.0
 49
0.0
140
0.0
141
0.0
142
1.0
143
1.0
 70
0
 72
1
 73
0
 74
5
  7

 75
16
 76
0
 77
2
 78
300
147
1.0
148
0.0
149
0.0
100
AcDbLayout
  1
Layout1
 70
1
 71
1
 10
0.0
 20
0.0
 11
420.0
 21
297.0
 12
0.0
 22
0.0
 32
0.0
 14
1e+20
 24
1e+20
 34
1e+20
 15
-1e+20
 25
-1e+20
 35
-1e+20
146
0.0
 13
0.0
 23
0.0
 33
0.0
 16
1.0
 26
0.0
 36
0.0
 17
0.0
 27
1.0
 37
0.0
 76
1
330
1B
  0
MATERIAL
  5
1F
102
{ACAD_REACTORS
330
E
102
}
330
E
100
AcDbMaterial
  1
ByBlock
  2

 70
0
 40
1.0
 71
1
 41
1.0
 91
-1023410177
 42
1.0
 72
1
  3

 73
1
 74
1
 75
1
 44
0.5
 73
0
 45
1.0
 46
1.0
 77
1
  4

 78
1
 79
1
170
1
 48
1.0
171
1
  6

172
1
173
1
174
1
140
1.0
141
1.0
175
1
  7

176
1
177
1
178
1
143
1.0
179
1
  8

270
1
271
1
272
1
145
1.0
146
1.0
273
1
  9

274
1
275
1
276
1
 42
1.0
 72
1
  3

 73
1
 74
1
 75
1
 94
63
  0
MATERIAL
  5
20
102
{ACAD_REACTORS
330
E
102
}
330
E
100
AcDbMaterial
  1
ByLayer
  2

 70
0
 40
1.0
 71
1
 41
1.0
 91
-1023410177
 42
1.0
 72
1
  3

 73
1
 74
1
 75
1
 44
0.5
 73
0
 45
1.0
 46
1.0
 77
1
  4

 78
1
 79
1
170
1
 48
1.0
171
1
  6

172
1
173
1
174
1
140
1.0
141
1.0
175
1
  7

176
1
177
1
178
1
143
1.0
179
1
  8

270
1
271
1
272
1
145
1.0
146
1.0
273
1
  9

274
1
275
1
276
1
 42
1.0
 72
1
  3

 73
1
 74
1
 75
1
 94
63
  0
MATERIAL
  5
21
102
{ACAD_REACTORS
330
E
102
}
330
E
100
AcDbMaterial
  1
Global
  2

 70
0
 40
1.0
 71
1
 41
1.0
 91
-1023410177
 42
1.0
 72
1
  3

 73
1
 74
1
 75
1
 44
0.5
 73
0
 45
1.0
 46
1.0
 77
1
  4

 78
1
 79
1
170
1
 48
1.0
171
1
  6

172
1
173
1
174
1
140
1.0
141
1.0
175
1
  7

176
1
177
1
178
1
143
1.0
179
1
  8

270
1
271
1
272
1
145
1.0
146
1.0
273
1
  9

274
1
275
1
276
1
 42
1.0
 72
1
  3

 73
1
 74
1
 75
1
 94
63
  0
MLINESTYLE
  5
22
102
{ACAD_REACTORS
330
10
102
}
330
10
100
AcDbMlineStyle
  2
Standard
 70
0
  3

 62
256
 51
90.0
 52
90.0
 71
2
 49
0.5
 62
256
  6
BYLAYER
 49
-0.5
 62
256
  6
BYLAYER
  0
MLEADERSTYLE
  5
2C
102
{ACAD_REACTORS
330
F
102
}
330
F
100
AcDbMLeaderStyle
179
2
170
2
171
1
172
0
 90
2
 40
0.0
 41
0.0
173
1
 91
-1056964608
 92
-2
290
1
 42
2.0
291
1
 43
8.0
  3
Standard
 44
4.0
300

342
29
174
1
175
1
176
0
178
1
 93
-1056964608
 45
4.0
292
0
297
0
 46
4.0
 94
-1056964608
 47
1.0
 49
1.0
140
1.0
294
1
141
0.0
177
0
142
1.0
295
0
296
0
143
3.75
271
0
272
9
273
9
  0
DICTIONARY
  5
2D
330
A
100
AcDbDictionary
281
1
  3
CREATED_BY_EZDXF
350
2E
  3
WRITTEN_BY_EZDXF
350
110
  0
DICTIONARYVAR
  5
2E
330
2D
100
DictionaryVariables
280
0
  1
1.1.1 @ 2023-11-04T19:52:59.795605+00:00
  0
DICTIONARYVAR
  5
110
330
2D
100
DictionaryVariables
280
0
  1
1.1.1 @ 2023-11-04T19:52:59.839001+00:00
  0
ENDSEC
  0
EOF
