  0
SECTION
  2
HEADER
  9
$ACADVER
  1
AC1032
  9
$ACADMAINTVER
 90
4
  9
$DWGCODEPAGE
  3
ANSI_1252
  9
$LASTSAVEDBY
  1
ezdxf
  9
$REQUIREDVERSIONS
160
0
  9
$INSBASE
 10
0.0
 20
0.0
 30
0.0
  9
$EXTMIN
 10
1e+20
 20
1e+20
 30
1e+20
  9
$EXTMAX
 10
-1e+20
 20
-1e+20
 30
-1e+20
  9
$LIMMIN
 10
0.0
 20
0.0
  9
$LIMMAX
 10
420.0
 20
297.0
  9
$ORTHOMODE
 70
0
  9
$REGENMODE
 70
1
  9
$FILLMODE
 70
1
  9
$QTEXTMODE
 70
0
  9
$MIRRTEXT
 70
1
  9
$LTSCALE
 40
1.0
  9
$ATTMODE
 70
1
  9
$TEXTSIZE
 40
2.5
  9
$TRACEWID
 40
1.0
  9
$TEXTSTYLE
  7
Standard
  9
$CLAYER
  8
0
  9
$CELTYPE
  6
ByLayer
  9
$CECOLOR
 62
256
  9
$CELTSCALE
 40
1.0
  9
$DISPSILH
 70
0
  9
$DIMSCALE
 40
1.0
  9
$DIMASZ
 40
2.5
  9
$DIMEXO
 40
0.625
  9
$DIMDLI
 40
3.75
  9
$DIMRND
 40
0.0
  9
$DIMDLE
 40
0.0
  9
$DIMEXE
 40
1.25
  9
$DIMTP
 40
0.0
  9
$DIMTM
 40
0.0
  9
$DIMTXT
 40
2.5
  9
$DIMCEN
 40
2.5
  9
$DIMTSZ
 40
0.0
  9
$DIMTOL
 70
0
  9
$DIMLIM
 70
0
  9
$DIMTIH
 70
0
  9
$DIMTOH
 70
0
  9
$DIMSE1
 70
0
  9
$DIMSE2
 70
0
  9
$DIMTAD
 70
1
  9
$DIMZIN
 70
8
  9
$DIMBLK
  1

  9
$DIMASO
 70
1
  9
$DIMSHO
 70
1
  9
$DIMPOST
  1

  9
$DIMAPOST
  1

  9
$DIMALT
 70
0
  9
$DIMALTD
 70
3
  9
$DIMALTF
 40
0.03937007874
  9
$DIMLFAC
 40
1.0
  9
$DIMTOFL
 70
1
  9
$DIMTVP
 40
0.0
  9
$DIMTIX
 70
0
  9
$DIMSOXD
 70
0
  9
$DIMSAH
 70
0
  9
$DIMBLK1
  1

  9
$DIMBLK2
  1

  9
$DIMSTYLE
  2
ISO-25
  9
$DIMCLRD
 70
0
  9
$DIMCLRE
 70
0
  9
$DIMCLRT
 70
0
  9
$DIMTFAC
 40
1.0
  9
$DIMGAP
 40
0.625
  9
$DIMJUST
 70
0
  9
$DIMSD1
 70
0
  9
$DIMSD2
 70
0
  9
$DIMTOLJ
 70
0
  9
$DIMTZIN
 70
8
  9
$DIMALTZ
 70
0
  9
$DIMALTTZ
 70
0
  9
$DIMUPT
 70
0
  9
$DIMDEC
 70
2
  9
$DIMTDEC
 70
2
  9
$DIMALTU
 70
2
  9
$DIMALTTD
 70
3
  9
$DIMTXSTY
  7
Standard
  9
$DIMAUNIT
 70
0
  9
$DIMADEC
 70
0
  9
$DIMALTRND
 40
0.0
  9
$DIMAZIN
 70
0
  9
$DIMDSEP
 70
44
  9
$DIMATFIT
 70
3
  9
$DIMFRAC
 70
0
  9
$DIMLDRBLK
  1

  9
$DIMLUNIT
 70
2
  9
$DIMLWD
 70
-2
  9
$DIMLWE
 70
-2
  9
$DIMTMOVE
 70
0
  9
$DIMFXL
 40
1.0
  9
$DIMFXLON
 70
0
  9
$DIMJOGANG
 40
0.785398163397
  9
$DIMTFILL
 70
0
  9
$DIMTFILLCLR
 70
0
  9
$DIMARCSYM
 70
0
  9
$DIMLTYPE
  6

  9
$DIMLTEX1
  6

  9
$DIMLTEX2
  6

  9
$DIMTXTDIRECTION
 70
0
  9
$LUNITS
 70
2
  9
$LUPREC
 70
4
  9
$SKETCHINC
 40
1.0
  9
$FILLETRAD
 40
10.0
  9
$AUNITS
 70
0
  9
$AUPREC
 70
2
  9
$MENU
  1
.
  9
$ELEVATION
 40
0.0
  9
$PELEVATION
 40
0.0
  9
$THICKNESS
 40
0.0
  9
$LIMCHECK
 70
0
  9
$CHAMFERA
 40
0.0
  9
$CHAMFERB
 40
0.0
  9
$CHAMFERC
 40
0.0
  9
$CHAMFERD
 40
0.0
  9
$SKPOLY
 70
0
  9
$TDCREATE
 40
2460243.506446759
  9
$TDUCREATE
 40
2458532.153996898
  9
$TDUPDATE
 40
2460243.506446759
  9
$TDUUPDATE
 40
2458532.1544311
  9
$TDINDWG
 40
0.0
  9
$TDUSRTIMER
 40
0.0
  9
$USRTIMER
 70
1
  9
$ANGBASE
 50
0.0
  9
$ANGDIR
 70
0
  9
$PDMODE
 70
0
  9
$PDSIZE
 40
0.0
  9
$PLINEWID
 40
0.0
  9
$SPLFRAME
 70
0
  9
$SPLINETYPE
 70
6
  9
$SPLINESEGS
 70
8
  9
$HANDSEED
  5
93
  9
$SURFTAB1
 70
6
  9
$SURFTAB2
 70
6
  9
$SURFTYPE
 70
6
  9
$SURFU
 70
6
  9
$SURFV
 70
6
  9
$UCSBASE
  2

  9
$UCSNAME
  2

  9
$UCSORG
 10
0.0
 20
0.0
 30
0.0
  9
$UCSXDIR
 10
1.0
 20
0.0
 30
0.0
  9
$UCSYDIR
 10
0.0
 20
1.0
 30
0.0
  9
$UCSORTHOREF
  2

  9
$UCSORTHOVIEW
 70
0
  9
$UCSORGTOP
 10
0.0
 20
0.0
 30
0.0
  9
$UCSORGBOTTOM
 10
0.0
 20
0.0
 30
0.0
  9
$UCSORGLEFT
 10
0.0
 20
0.0
 30
0.0
  9
$UCSORGRIGHT
 10
0.0
 20
0.0
 30
0.0
  9
$UCSORGFRONT
 10
0.0
 20
0.0
 30
0.0
  9
$UCSORGBACK
 10
0.0
 20
0.0
 30
0.0
  9
$PUCSBASE
  2

  9
$PUCSNAME
  2

  9
$PUCSORG
 10
0.0
 20
0.0
 30
0.0
  9
$PUCSXDIR
 10
1.0
 20
0.0
 30
0.0
  9
$PUCSYDIR
 10
0.0
 20
1.0
 30
0.0
  9
$PUCSORTHOREF
  2

  9
$PUCSORTHOVIEW
 70
0
  9
$PUCSORGTOP
 10
0.0
 20
0.0
 30
0.0
  9
$PUCSORGBOTTOM
 10
0.0
 20
0.0
 30
0.0
  9
$PUCSORGLEFT
 10
0.0
 20
0.0
 30
0.0
  9
$PUCSORGRIGHT
 10
0.0
 20
0.0
 30
0.0
  9
$PUCSORGFRONT
 10
0.0
 20
0.0
 30
0.0
  9
$PUCSORGBACK
 10
0.0
 20
0.0
 30
0.0
  9
$USERI1
 70
0
  9
$USERI2
 70
0
  9
$USERI3
 70
0
  9
$USERI4
 70
0
  9
$USERI5
 70
0
  9
$USERR1
 40
0.0
  9
$USERR2
 40
0.0
  9
$USERR3
 40
0.0
  9
$USERR4
 40
0.0
  9
$USERR5
 40
0.0
  9
$WORLDVIEW
 70
1
  9
$SHADEDGE
 70
3
  9
$SHADEDIF
 70
70
  9
$TILEMODE
 70
1
  9
$MAXACTVP
 70
64
  9
$PINSBASE
 10
0.0
 20
0.0
 30
0.0
  9
$PLIMCHECK
 70
0
  9
$PEXTMIN
 10
1e+20
 20
1e+20
 30
1e+20
  9
$PEXTMAX
 10
-1e+20
 20
-1e+20
 30
-1e+20
  9
$PLIMMIN
 10
0.0
 20
0.0
  9
$PLIMMAX
 10
420.0
 20
297.0
  9
$UNITMODE
 70
0
  9
$VISRETAIN
 70
1
  9
$PLINEGEN
 70
0
  9
$PSLTSCALE
 70
1
  9
$TREEDEPTH
 70
3020
  9
$CMLSTYLE
  2
Standard
  9
$CMLJUST
 70
0
  9
$CMLSCALE
 40
20.0
  9
$PROXYGRAPHICS
 70
1
  9
$MEASUREMENT
 70
1
  9
$CELWEIGHT
370
-1
  9
$ENDCAPS
280
0
  9
$JOINSTYLE
280
0
  9
$LWDISPLAY
290
0
  9
$INSUNITS
 70
4
  9
$HYPERLINKBASE
  1

  9
$STYLESHEET
  1

  9
$XEDIT
290
1
  9
$CEPSNTYPE
380
0
  9
$PSTYLEMODE
290
1
  9
$FINGERPRINTGUID
  2
{3016E1B7-2A7D-46A0-B5EE-A5A9A83A3400}
  9
$VERSIONGUID
  2
{CC71C1CF-D876-40DB-A9AE-7A012045C5B1}
  9
$EXTNAMES
290
1
  9
$PSVPSCALE
 40
0.0
  9
$OLESTARTUP
290
0
  9
$SORTENTS
280
127
  9
$INDEXCTL
280
0
  9
$HIDETEXT
280
1
  9
$XCLIPFRAME
280
0
  9
$HALOGAP
280
0
  9
$OBSCOLOR
 70
257
  9
$OBSLTYPE
280
0
  9
$INTERSECTIONDISPLAY
280
0
  9
$INTERSECTIONCOLOR
 70
257
  9
$DIMASSOC
280
2
  9
$PROJECTNAME
  1

  9
$CAMERADISPLAY
290
0
  9
$LENSLENGTH
 40
50.0
  9
$CAMERAHEIGHT
 40
0.0
  9
$STEPSPERSEC
 40
24.0
  9
$STEPSIZE
 40
100.0
  9
$3DDWFPREC
 40
2.0
  9
$PSOLWIDTH
 40
0.005
  9
$PSOLHEIGHT
 40
0.08
  9
$LOFTANG1
 40
1.570796326795
  9
$LOFTANG2
 40
1.570796326795
  9
$LOFTMAG1
 40
0.0
  9
$LOFTMAG2
 40
0.0
  9
$LOFTPARAM
 70
7
  9
$LOFTNORMALS
280
1
  9
$LATITUDE
 40
37.795
  9
$LONGITUDE
 40
-122.394
  9
$NORTHDIRECTION
 40
0.0
  9
$TIMEZONE
 70
-8000
  9
$LIGHTGLYPHDISPLAY
280
1
  9
$TILEMODELIGHTSYNCH
280
1
  9
$CMATERIAL
347
20
  9
$SOLIDHIST
280
0
  9
$SHOWHIST
280
1
  9
$DWFFRAME
280
2
  9
$DGNFRAME
280
2
  9
$REALWORLDSCALE
290
1
  9
$INTERFERECOLOR
 62
256
  9
$CSHADOW
280
0
  9
$SHADOWPLANELOCATION
 40
0.0
  0
ENDSEC
  0
SECTION
  2
CLASSES
  0
CLASS
  1
ACDBDICTIONARYWDFLT
  2
AcDbDictionaryWithDefault
  3
ObjectDBX Classes
 90
0
 91
0
280
0
281
0
  0
CLASS
  1
SUN
  2
AcDbSun
  3
SCENEOE
 90
1153
 91
0
280
0
281
0
  0
CLASS
  1
VISUALSTYLE
  2
AcDbVisualStyle
  3
ObjectDBX Classes
 90
4095
 91
0
280
0
281
0
  0
CLASS
  1
MATERIAL
  2
AcDbMaterial
  3
ObjectDBX Classes
 90
1153
 91
0
280
0
281
0
  0
CLASS
  1
SCALE
  2
AcDbScale
  3
ObjectDBX Classes
 90
1153
 91
0
280
0
281
0
  0
CLASS
  1
TABLESTYLE
  2
AcDbTableStyle
  3
ObjectDBX Classes
 90
4095
 91
0
280
0
281
0
  0
CLASS
  1
MLEADERSTYLE
  2
AcDbMLeaderStyle
  3
ACDB_MLEADERSTYLE_CLASS
 90
4095
 91
0
280
0
281
0
  0
CLASS
  1
DICTIONARYVAR
  2
AcDbDictionaryVar
  3
ObjectDBX Classes
 90
0
 91
0
280
0
281
0
  0
CLASS
  1
CELLSTYLEMAP
  2
AcDbCellStyleMap
  3
ObjectDBX Classes
 90
1152
 91
0
280
0
281
0
  0
CLASS
  1
MENTALRAYRENDERSETTINGS
  2
AcDbMentalRayRenderSettings
  3
SCENEOE
 90
1024
 91
0
280
0
281
0
  0
CLASS
  1
ACDBDETAILVIEWSTYLE
  2
AcDbDetailViewStyle
  3
ObjectDBX Classes
 90
1025
 91
0
280
0
281
0
  0
CLASS
  1
ACDBSECTIONVIEWSTYLE
  2
AcDbSectionViewStyle
  3
ObjectDBX Classes
 90
1025
 91
0
280
0
281
0
  0
CLASS
  1
RASTERVARIABLES
  2
AcDbRasterVariables
  3
ISM
 90
0
 91
0
280
0
281
0
  0
CLASS
  1
ACDBPLACEHOLDER
  2
AcDbPlaceHolder
  3
ObjectDBX Classes
 90
0
 91
0
280
0
281
0
  0
CLASS
  1
LAYOUT
  2
AcDbLayout
  3
ObjectDBX Classes
 90
0
 91
0
280
0
281
0
  0
ENDSEC
  0
SECTION
  2
TABLES
  0
TABLE
  2
VPORT
  5
8
330
0
100
AcDbSymbolTable
 70
1
  0
VPORT
  5
23
330
8
100
AcDbSymbolTableRecord
100
AcDbViewportTableRecord
  2
*Active
 70
0
 10
0.0
 20
0.0
 11
1.0
 21
1.0
 12
0.0
 22
0.0
 13
0.0
 23
0.0
 14
0.5
 24
0.5
 15
0.5
 25
0.5
 16
0.0
 26
0.0
 36
1.0
 17
0.0
 27
0.0
 37
0.0
 40
1000.0
 41
1.34
 42
50.0
 43
0.0
 44
0.0
 50
0.0
 51
0.0
 71
0
 72
1000
 73
1
 74
3
 75
0
 76
0
 77
0
 78
0
281
0
 65
0
146
0.0
  0
ENDTAB
  0
TABLE
  2
LTYPE
  5
2
330
0
100
AcDbSymbolTable
 70
3
  0
LTYPE
  5
24
330
2
100
AcDbSymbolTableRecord
100
AcDbLinetypeTableRecord
  2
ByBlock
 70
0
  3

 72
65
 73
0
 40
0.0
  0
LTYPE
  5
25
330
2
100
AcDbSymbolTableRecord
100
AcDbLinetypeTableRecord
  2
ByLayer
 70
0
  3

 72
65
 73
0
 40
0.0
  0
LTYPE
  5
26
330
2
100
AcDbSymbolTableRecord
100
AcDbLinetypeTableRecord
  2
Continuous
 70
0
  3

 72
65
 73
0
 40
0.0
  0
ENDTAB
  0
TABLE
  2
LAYER
  5
1
330
0
100
AcDbSymbolTable
 70
2
  0
LAYER
  5
27
330
1
100
AcDbSymbolTableRecord
100
AcDbLayerTableRecord
  2
0
 70
0
 62
7
  6
Continuous
370
-3
390
13
347
21
  0
LAYER
  5
28
330
1
100
AcDbSymbolTableRecord
100
AcDbLayerTableRecord
  2
Defpoints
 70
0
 62
7
  6
Continuous
290
0
370
-3
390
13
347
21
  0
ENDTAB
  0
TABLE
  2
STYLE
  5
5
330
0
100
AcDbSymbolTable
 70
1
  0
STYLE
  5
29
330
5
100
AcDbSymbolTableRecord
100
AcDbTextStyleTableRecord
  2
Standard
 70
0
 40
0.0
 41
1.0
 50
0.0
 71
0
 42
2.5
  3
txt
  4

  0
ENDTAB
  0
TABLE
  2
VIEW
  5
7
330
0
100
AcDbSymbolTable
 70
0
  0
ENDTAB
  0
TABLE
  2
UCS
  5
6
330
0
100
AcDbSymbolTable
 70
0
  0
ENDTAB
  0
TABLE
  2
APPID
  5
3
330
0
100
AcDbSymbolTable
 70
3
  0
APPID
  5
2A
330
3
100
AcDbSymbolTableRecord
100
AcDbRegAppTableRecord
  2
ACAD
 70
0
  0
APPID
  5
90
330
3
100
AcDbSymbolTableRecord
100
AcDbRegAppTableRecord
  2
HATCHBACKGROUNDCOLOR
 70
0
  0
APPID
  5
91
330
3
100
AcDbSymbolTableRecord
100
AcDbRegAppTableRecord
  2
EZDXF
 70
0
  0
ENDTAB
  0
TABLE
  2
DIMSTYLE
  5
4
330
0
100
AcDbSymbolTable
 70
1
100
AcDbDimStyleTable
  0
DIMSTYLE
105
2B
330
4
100
AcDbSymbolTableRecord
100
AcDbDimStyleTableRecord
  2
Standard
 70
0
 40
1.0
 41
2.5
 42
0.625
 43
3.75
 44
1.25
 45
0.0
 46
0.0
 47
0.0
 48
0.0
 49
2.5
140
2.5
141
2.5
142
0.0
143
0.03937007874
144
1.0
145
0.0
146
1.0
147
0.625
148
0.0
 69
0
 70
0
 71
0
 72
0
 73
0
 74
0
 75
0
 76
0
 77
1
 78
8
 79
3
170
0
171
3
172
1
173
0
174
0
175
0
176
0
177
0
178
0
179
2
271
2
272
2
273
2
274
3
275
0
276
0
277
2
278
44
279
0
280
0
281
0
282
0
283
0
284
8
285
0
286
0
288
0
289
3
290
0
371
-2
372
-2
  0
ENDTAB
  0
TABLE
  2
BLOCK_RECORD
  5
9
330
0
100
AcDbSymbolTable
 70
2
  0
BLOCK_RECORD
  5
17
330
9
100
AcDbSymbolTableRecord
100
AcDbBlockTableRecord
  2
*Model_Space
340
1A
 70
0
280
1
281
0
  0
BLOCK_RECORD
  5
1B
330
9
100
AcDbSymbolTableRecord
100
AcDbBlockTableRecord
  2
*Paper_Space
340
1E
 70
0
280
1
281
0
  0
ENDTAB
  0
ENDSEC
  0
SECTION
  2
BLOCKS
  0
BLOCK
  5
18
330
17
100
AcDbEntity
  8
0
100
AcDbBlockBegin
  2
*Model_Space
 70
0
 10
0.0
 20
0.0
 30
0.0
  3
*Model_Space
  1

  0
ENDBLK
  5
19
330
17
100
AcDbEntity
  8
0
100
AcDbBlockEnd
  0
BLOCK
  5
1C
330
1B
100
AcDbEntity
  8
0
100
AcDbBlockBegin
  2
*Paper_Space
 70
0
 10
0.0
 20
0.0
 30
0.0
  3
*Paper_Space
  1

  0
ENDBLK
  5
1D
330
1B
100
AcDbEntity
  8
0
100
AcDbBlockEnd
  0
ENDSEC
  0
SECTION
  2
ENTITIES
  0
LWPOLYLINE
  5
2F
330
17
100
AcDbEntity
  8
0
 62
0
100
AcDbPolyline
 90
1127
 70
0
 10
0.09452079139273906
 20
76.67236720359531
 10
0.3375969811017683
 20
76.27413665400987
 10
0.09203673205102803
 20
73.0
 10
0.842036732051028
 20
63.0
 10
1.592036732051028
 20
73.0
 10
1.521021741222647
 20
73.94686654437841
 10
1.7492644628099754
 20
73.51762353217808
 10
2.141621335368569
 20
72.87526665961948
 10
2.586036427836831
 20
72.18085156715122
 10
2.9603760083727195
 20
71.55651103294102
 10
3.124220338709282
 20
71.26244808877671
 10
2.3920367320510287
 20
61.5
 10
3.1420367320510287
 20
51.5
 10
3.8920367320510287
 20
61.5
 10
3.1653956412703934
 20
71.18854787707512
 10
3.2749082883409812
 20
70.99199782645908
 10
3.649778111796792
 20
70.36702119147984
 10
4.086263879161294
 20
69.68043814933506
 10
4.463577493052895
 20
69.0550452355167
 10
4.758461697917397
 20
68.51106034553257
 10
5.070910651669397
 20
67.94834773842177
 10
5.4420367320510294
 20
63.0
 10
5.737373617205847
 20
66.93782513539757
 10
6.263849957805093
 20
66.23912297523228
 10
7.036109193187173
 20
65.39367209708897
 10
7.270915956349903
 20
65.21838965731833
 10
6.992036732051027
 20
61.5
 10
7.742036732051027
 20
51.5
 10
8.492036732051027
 20
61.5
 10
8.251676020661087
 20
64.7048094851992
 10
8.71044228873771
 20
64.59713231361118
 10
9.746178372722085
 20
64.77350484168736
 10
9.904144700984137
 20
64.8385604142252
 10
10.042036732051027
 20
63.0
 10
10.188718505847431
 20
64.95575698395204
 10
10.722195847850259
 20
65.17545996940342
 10
11.388437493663247
 20
65.60439692771641
 10
11.784312947612221
 20
66.04909669196812
 10
11.953850342527693
 20
66.3241814730222
 10
11.592036732051028
 20
61.5
 10
12.342036732051028
 20
51.5
 10
13.092036732051028
 20
61.5
 10
12.646762438448574
 20
67.43699058136606
 10
13.13165400825065
 20
68.16674338615147
 10
13.620636208873208
 20
68.90472327506748
 10
13.996515496592934
 20
69.5287009362003
 10
14.13244070487352
 20
69.79461369570011
 10
14.642036732051029
 20
63.0
 10
15.312545501761232
 20
71.94011692946938
 10
15.594621880870278
 20
72.37699233329502
 10
15.986232980113442
 20
73.01860343253819
 10
16.26901744208854
 20
73.55138789451328
 10
16.50234912238639
 20
74.03471957481113
 10
16.732168897014077
 20
74.51453934943882
 10
16.912872057698692
 20
74.88886232469781
 10
16.94203673205103
 20
74.5
 10
16.98166104442479
 20
75.0283241649835
 10
17.248328431468423
 20
75.53069888389317
 10
17.63999675117057
 20
76.17236720359531
 10
18.09455512366813
 20
76.87692557609287
 10
18.48629973731559
 20
77.51867018974033
 10
18.768089516978677
 20
78.05045996940342
 10
18.88975077826107
 20
78.30285394946728
 10
18.492036732051027
 20
73.0
 10
19.242036732051027
 20
63.0
 10
19.992036732051027
 20
73.0
 10
19.501266189672986
 20
79.5436072317072
 10
19.74330542884391
 20
80.02567588126865
 10
19.993917687755044
 20
80.52628814017979
 10
20.233775361400063
 20
81.0161458138248
 10
20.466428025584634
 20
81.49879847800938
 10
20.49990300332697
 20
81.56197194334146
 10
20.748218282084878
 20
82.03058873450962
 10
20.952182697096838
 20
82.36472046605589
 10
21.542036732051027
 20
74.5
 10
22.292036732051027
 20
84.5
 10
22.28553407540886
 20
84.58670208856219
 10
22.500622971873696
 20
85.03299342429844
 10
22.741579278331216
 20
85.52394973075596
 10
22.992946847300942
 20
86.02531729972569
 10
23.23385070167106
 20
86.5162211540958
 10
23.466369851451333
 20
86.99874030387608
 10
23.729891117386977
 20
87.49527486218734
 10
23.842036732051028
 20
86.0
 10
23.98598308178702
 20
87.91928466314653
 10
24.141468270640786
 20
88.17383872306553
 10
24.586981995921548
 20
88.86935244834629
 10
24.96199153266471
 20
89.49436198508945
 10
25.266423924785073
 20
90.04879437720982
 10
25.624009831767495
 20
90.65638028419224
 10
26.092213853221352
 20
91.3745843056461
 10
26.610354169230874
 20
92.14272557532993
 10
27.110833867412026
 20
92.89318620002476
 10
27.592613442759927
 20
93.62507163322178
 10
28.125771268229897
 20
94.40834389960972
 10
28.759348615031655
 20
95.28993378913609
 10
29.37539885840934
 20
96.15474044120518
 10
29.941538079600747
 20
96.98907195365635
 10
31.041700108867104
 20
98.3727041367313
 10
32.538518533395106
 20
100.0
 10
67.20409112441801
 20
100.0
 10
68.69794152579826
 20
98.36757098472324
 10
69.76632235847038
 20
97.0157295349857
 10
70.34907220206779
 20
96.16478692329136
 10
70.98525021873039
 20
95.27985249793736
 10
71.63550542197746
 20
94.38158475196568
 10
72.13587735496085
 20
93.63109837806431
 10
72.47606490455192
 20
93.04080497062412
 10
72.77088712058585
 20
92.49600182807652
 10
73.14653704963249
 20
91.87035094535557
 10
73.59408734641593
 20
91.17280064857212
 10
73.98706601462882
 20
90.52982198035923
 10
74.25970767341178
 20
90.00718032157627
 10
74.47494624457877
 20
89.54194175040928
 10
74.74659322104972
 20
89.02029477393833
 10
74.92507196367956
 20
88.72811594307446
 10
74.60796326794897
 20
84.5
 10
75.35796326794897
 20
74.5
 10
76.10796326794897
 20
84.5
 10
75.90862804729652
 20
87.15780294203273
 10
75.98623250327628
 20
87.03065549171177
 10
76.26901744208854
 20
86.49787055289951
 10
76.50234912238639
 20
86.01453887260166
 10
76.73216889701408
 20
85.53471909797398
 10
76.96549104056876
 20
85.05139695441929
 10
77.24832843146842
 20
84.51855956351963
 10
77.63999675117057
 20
83.87689124381748
 10
78.09455512366813
 20
83.17233287131992
 10
78.48629973731559
 20
82.53058825767246
 10
78.76808999381583
 20
81.99879800117222
 10
79.00073312125724
 20
81.51615487373081
 10
79.24064324698966
 20
81.02624474799839
 10
79.49132226310294
 20
80.52556573188511
 10
79.50863774906014
 20
80.49100691851781
 10
79.95796326794897
 20
74.5
 10
80.2901256684645
 20
78.92883200687373
 10
80.49214909873527
 20
78.52473889625279
 10
80.74319527946037
 20
78.02369271552769
 10
80.99387429557365
 20
77.5230136994144
 10
81.23378394446891
 20
77.03310405051914
 10
81.46643660865348
 20
76.55045138633457
 10
81.73607894540093
 20
76.04154236602612
 10
81.50796326794898
 20
73.0
 10
82.25796326794898
 20
63.0
 10
83.00796326794898
 20
73.0
 10
82.92279435853854
 20
74.13558545880589
 10
82.98792384467643
 20
74.02896415031162
 10
83.25957225165885
 20
73.5073157433292
 10
83.47479174933952
 20
73.04209624564854
 10
83.74753783546012
 20
72.51935015952793
 10
84.14065907798332
 20
71.87622796333042
 10
84.53948148764033
 20
71.25357626255138
 10
83.80796326794898
 20
61.5
 10
84.55796326794898
 20
51.5
 10
85.30796326794898
 20
61.5
 10
84.58134718240669
 20
71.18821447389715
 10
84.58607886634391
 20
71.18082724845615
 10
84.96013615928214
 20
70.55666314399448
 10
85.27676461539787
 20
69.98993359840122
 10
85.65412638984245
 20
69.3645688179752
 10
86.06859372458976
 20
68.70058118140904
 10
86.40165351234
 20
68.10064040458408
 10
86.4864311979739
 20
67.95376093300086
 10
86.85796326794897
 20
63.0
 10
87.15439688012944
 20
66.95244816240611
 10
87.43248341880363
 20
66.58341370856968
 10
88.32533620200675
 20
65.53665124213902
 10
88.68555034679676
 20
65.2011610513039
 10
88.40796326794897
 20
61.5
 10
89.15796326794897
 20
51.5
 10
89.90796326794897
 20
61.5
 10
89.67182280095639
 20
64.64853955990101
 10
90.2877209027819
 20
64.56761657035557
 10
91.30154782469648
 20
65.08553924336653
 10
91.45796326794897
 20
63.0
 10
91.62684217891552
 20
65.25171881288746
 10
91.84056113563102
 20
65.36089907920567
 10
93.3950561833481
 20
66.66123887198837
 10
93.00796326794898
 20
61.5
 10
93.75796326794898
 20
51.5
 10
94.50796326794898
 20
61.5
 10
94.06447015166106
 20
67.41324155050565
 10
94.50970815024894
 20
67.93223725593296
 10
94.90214799247306
 20
68.65477429664341
 10
95.17760871253532
 20
69.21776400840488
 10
95.54717944504472
 20
69.81045097205669
 10
96.05796326794898
 20
63.0
 10
96.73320976640635
 20
72.00328664609832
 10
96.74655888877433
 20
72.02892743385044
 10
97.13901923499625
 20
72.671389687421
 10
97.59467385612052
 20
73.37704430854527
 10
97.98635171256583
 20
74.01872216499058
 10
98.26803754172843
 20
74.55040799415318
 10
98.34258235011215
 20
74.70507890449088
 10
98.35796326794897
 20
74.5
 10
98.37901342043894
 20
74.78066869986623
 10
98.50062344871085
 20
75.0329939011356
 10
98.74157975516837
 20
75.52395020759312
 10
98.99293778739494
 20
76.02530823981968
 10
99.23389457068961
 20
76.51626502311436
 10
99.46647094092887
 20
76.99884139335362
 10
99.74820922217887
 20
77.53057967460362
 10
100.13995383582633
 20
78.17232428825108
 10
100.31639820900725
 20
78.44579921411025
 10
99.90796326794897
 20
73.0
 10
100.65796326794897
 20
63.0
 10
101.40796326794897
 20
73.0
 10
100.92642003897218
 20
79.42057638635721
 10
100.98629926047843
 20
79.51866971290318
 10
101.26808999381583
 20
80.05046044624058
 10
101.50073312125724
 20
80.53310357368198
 10
101.7406427701525
 20
81.02301322257725
 10
101.89608238705216
 20
81.33346551868435
 10
101.99133132300895
 20
81.5237017754337
 10
102.2423255284838
 20
82.02469598090855
 10
102.37387358849534
 20
82.28786239271497
 10
102.95796326794897
 20
74.5
 10
103.70796326794897
 20
84.5
 10
103.67809259505852
 20
84.89827563853937
 10
103.74817488990348
 20
85.03054534232822
 10
104.13984320960563
 20
85.67221366203037
 10
104.59550021491569
 20
86.37787066734043
 10
104.98792384467643
 20
87.02029429710117
 10
105.1570789429741
 20
87.34512433299841
 10
105.25796326794898
 20
86.0
 10
105.39567322574966
 20
87.83613277067569
 10
105.47480080924552
 20
88.00717126167027
 10
105.74749492011588
 20
88.52986537254063
 10
106.14054034553092
 20
89.17291079795567
 10
106.5870487531237
 20
89.86941920554844
 10
106.96192477546256
 20
90.4942952278873
 10
107.2673499425463
 20
91.04972039497105
 10
107.62565301261466
 20
91.6580234650394
 10
108.08361409507316
 20
92.3659845474979
 10
108.584101899486
 20
93.11647330558506
 10
109.12003587089103
 20
93.90238820350376
 10
109.74627421699088
 20
94.77873240745274
 10
110.44320128760856
 20
95.72577391898838
 10
111.15952895484489
 20
96.69011412894932
 10
112.00568173728507
 20
97.78502332008091
 10
113.15452931724113
 20
99.20206319129673
 10
113.81540828141327
 20
100.0
 10
148.6852324066927
 20
100.0
 10
149.89268706641715
 20
98.67283450401035
 10
151.06025908790153
 20
97.22179232871738
 10
151.6792242368273
 20
96.33463488853184
 10
152.15267203650993
 20
95.61243068015781
 10
152.6242983182482
 20
94.89279185569492
 10
153.12357209525626
 20
94.1434036377689
 10
153.64170001349967
 20
93.37516986167637
 10
154.1105453809313
 20
92.65634356773106
 10
154.4681498845629
 20
92.04873811042515
 10
154.7724735578112
 20
91.49441443717686
 10
155.14742587409538
 20
90.86946212089268
 10
155.26978516397372
 20
90.67860185411433
 10
155.5939862569384
 20
90.17290173804966
 10
155.98702214561027
 20
89.52986584937779
 10
156.2597167333178
 20
89.00717126167027
 10
156.34766911608395
 20
88.81705749649393
 10
156.0238898038469
 20
84.5
 10
156.7738898038469
 20
74.5
 10
157.5238898038469
 20
84.5
 10
157.33026251202054
 20
87.08169722435184
 10
157.59467433295768
 20
86.67221366203037
 10
157.98634265265983
 20
86.03054534232822
 10
158.26808045707267
 20
85.49880753791538
 10
158.5007426580004
 20
85.01614533698765
 10
158.74059985480827
 20
84.52628814017979
 10
158.9912121137194
 20
84.02567588126865
 10
159.2433054288439
 20
83.52358256614414
 10
159.49391768775504
 20
83.02297030723301
 10
159.73377536140006
 20
82.53311263358799
 10
159.96642802558463
 20
82.05045996940342
 10
160.24821828208488
 20
81.51866971290318
 10
160.63995335898917
 20
80.87693463599888
 10
160.9292485569634
 20
80.4285499584471
 10
161.3738898038469
 20
74.5
 10
161.71834103298096
 20
79.09268305512079
 10
161.76808951697868
 20
78.99879847800938
 10
162.00074218116325
 20
78.5161458138248
 10
162.24059985480827
 20
78.02628814017979
 10
162.4912121137194
 20
77.52567588126865
 10
162.7433054288439
 20
77.02358256614414
 10
162.99391768775504
 20
76.52297030723301
 10
163.1623183869832
 20
76.17904777515044
 10
162.92388980384692
 20
73.0
 10
163.67388980384692
 20
63.0
 10
164.42388980384692
 20
73.0
 10
164.34436672272352
 20
74.06030774831207
 10
164.5955002149157
 20
73.67138778007237
 10
164.98792384467643
 20
73.02896415031162
 10
165.25957034431022
 20
72.50731765067783
 10
165.47482655845207
 20
72.04205952918736
 10
165.74739287696403
 20
71.51953040397373
 10
165.95042492014264
 20
71.18713488394322
 10
165.2238898038469
 20
61.5
 10
165.9738898038469
 20
51.5
 10
166.7238898038469
 20
61.5
 10
166.00392362469063
 20
71.09954905541692
 10
166.14006112418693
 20
70.87667046821323
 10
166.58962319694083
 20
70.17675172126499
 10
166.96976683936637
 20
69.55063163078037
 10
167.2447488149218
 20
69.02992306983677
 10
167.52029536567252
 20
68.46686660087315
 10
167.9117575477562
 20
67.82843008120963
 10
168.2738898038469
 20
63.0
 10
168.57365975948832
 20
66.99693274188552
 10
169.0902817090563
 20
66.39612017905918
 10
170.12752044675636
 20
65.54840857212581
 10
169.82388980384692
 20
61.5
 10
170.57388980384692
 20
51.5
 10
171.32388980384692
 20
61.5
 10
171.06421229226976
 20
64.96236682102878
 10
171.96394513450187
 20
64.5539375427982
 10
172.74738118020224
 20
64.68678164859561
 10
172.8738898038469
 20
63.0
 10
173.00484683449278
 20
64.7460937419448
 10
173.8721616109423
 20
65.51853905952183
 10
174.8049566194126
 20
66.58089087420893
 10
174.42388980384692
 20
61.5
 10
175.17388980384692
 20
51.5
 10
175.92388980384692
 20
61.5
 10
175.47898093574577
 20
67.43211824134853
 10
175.64097235999625
 20
67.63713084495274
 10
176.16967986426872
 20
68.4376946572086
 10
176.4847800572924
 20
69.01952325141636
 10
176.76835988364738
 20
69.5525194290897
 10
176.95878225852078
 20
69.8681006043481
 10
177.4738898038469
 20
63.0
 10
178.13363884281648
 20
71.79665385292765
 10
178.26910994849723
 20
72.05147944724766
 10
178.5023934682421
 20
72.53476392066685
 10
178.73215983710807
 20
73.01453028953281
 10
178.96549151740592
 20
73.49786196983067
 10
179.24832843146842
 20
74.03069888389317
 10
179.63999675117057
 20
74.67236720359531
 10
179.74836462105102
 20
74.84033577061193
 10
179.7738898038469
 20
74.5
 10
179.80613016602922
 20
74.9298714957639
 10
180.09455464683097
 20
75.37692509925571
 10
180.4863087972216
 20
76.01867924964634
 10
180.76804660163444
 20
76.55041705405918
 10
181.0006229718737
 20
77.03299342429844
 10
181.24157975516837
 20
77.52395020759312
 10
181.49293778739494
 20
78.02530823981968
 10
181.7338945706896
 20
78.51626502311436
 10
181.7382943718262
 20
78.52539423972435
 10
181.3238898038469
 20
73.0
 10
182.0738898038469
 20
63.0
 10
182.8238898038469
 20
73.0
 10
182.32469862490876
 20
79.65588238584188
 10
182.63995383582633
 20
80.17232428825108
 10
183.09456418357414
 20
80.87693463599888
 10
183.48629926047843
 20
81.51866971290318
 10
183.76808999381583
 20
82.05046044624058
 10
183.80228472282985
 20
82.12140108022727
 10
184.3738898038469
 20
74.5
 10
185.1238898038469
 20
84.5
 10
185.10513909502936
 20
84.75000945090076
 10
185.2431857427172
 20
85.02555619514195
 10
185.4938838323168
 20
85.52625428474155
 10
185.73374055228751
 20
86.01611100471226
 10
185.96632645926994
 20
86.49869691169468
 10
186.24911092124503
 20
87.03148137366978
 10
186.55853508709225
 20
87.5380628900621
 10
186.67388980384692
 20
86.0
 10
186.82037525965876
 20
87.95313941082469
 10
187.0869824727587
 20
88.36935292518345
 10
187.4619824727587
 20
88.99435292518345
 10
187.76646731696647
 20
89.54883776939121
 10
188.12411998115104
 20
90.15649043357578
 10
188.59128163657707
 20
90.87365208900181
 10
189.108657582622
 20
91.64102803504673
 10
189.61968730292838
 20
92.40205775535313
 10
190.11952470145744
 20
93.1518961075565
 10
190.61127541862052
 20
93.89362775123325
 10
191.09564517341178
 20
94.62810336387363
 10
191.60234235129874
 20
95.38491498267857
 10
192.19631932578605
 20
96.22690449989048
 10
192.9475223859362
 20
97.22686396873203
 10
193.91925166450065
 20
98.46678553855625
 10
195.17409073549726
 20
100.0
 10
230.15189050489113
 20
100.0
 10
230.9036786397509
 20
99.16184293067661
 10
232.00866387687248
 20
97.77338753974644
 10
232.66219971976798
 20
96.85165940559116
 10
233.15687344871085
 20
96.10822926795689
 10
233.62790654502433
 20
95.3891836289188
 10
234.11389754615348
 20
94.65307818687168
 10
234.61405633292716
 20
93.90281354224888
 10
235.125934346538
 20
93.14095460212437
 10
235.64328120551627
 20
92.37360678947178
 10
236.1103880246691
 20
91.65649997031895
 10
236.46805976234
 20
91.04882823264805
 10
236.71435465993443
 20
90.60027555159711
 10
236.7724916776232
 20
90.49439631736485
 10
237.14742492042106
 20
89.869463074567
 10
237.5939862569384
 20
89.17290173804966
 10
237.7688297055634
 20
88.88684487758084
 10
237.43981633974485
 20
84.5
 10
238.18981633974485
 20
74.5
 10
238.93981633974485
 20
84.5
 10
238.75138219970265
 20
87.01245520056291
 10
239.13901732764762
 20
86.37787066734043
 10
239.59467433295768
 20
85.67221366203037
 10
239.98634265265983
 20
85.03054534232822
 10
240.26808093390983
 20
84.49880706107822
 10
240.5007335980944
 20
84.01615439689365
 10
240.74064324698966
 20
83.52624474799839
 10
240.99132226310294
 20
83.02556573188511
 10
241.24236844382804
 20
82.52451955116001
 10
241.49231122336906
 20
82.024576771619
 10
241.74220631919425
 20
81.5246816757938
 10
241.780175693788
 20
81.4487342341166
 10
241.780175693788
 20
81.44873423411659
 10
241.99214909873527
 20
81.02473889625279
 10
242.24319527946037
 20
80.52369271552769
 10
242.35474991940595
 20
80.30088560451848
 10
242.78981633974485
 20
74.5
 10
243.1106831071677
 20
78.77822356563784
 10
243.24821780524772
 20
78.51867018974033
 10
243.63996241889518
 20
77.87692557609287
 10
244.09452079139274
 20
77.17236720359531
 10
244.4861891110949
 20
76.53069888389317
 10
244.58995711457464
 20
76.33521033106376
 10
244.33981633974486
 20
73.0
 10
245.08981633974486
 20
63.0
 10
245.83981633974486
 20
73.0
 10
245.76554161073028
 20
73.99032972019424
 10
246.13988660178703
 20
73.37700139320103
 10
246.59548924766105
 20
72.671398747327
 10
246.98795913062614
 20
72.02892695701328
 10
247.25942586265128
 20
71.50749741828648
 10
247.3720870234475
 20
71.26360911603572
 10
246.63981633974484
 20
61.5
 10
247.38981633974484
 20
51.5
 10
248.13981633974484
 20
61.5
 10
247.4144185934396
 20
71.17196995073682
 10
247.474220498424
 20
71.04251109397617
 10
247.75096247993034
 20
70.51541243827549
 10
248.14988778434318
 20
69.87051068580357
 10
248.556908830028
 20
69.21776400840488
 10
248.83236955009025
 20
68.65477429664341
 10
249.22480939231437
 20
67.93223725593296
 10
249.3290080540837
 20
67.81077714214871
 10
249.68981633974485
 20
63.0
 10
249.9926096358689
 20
67.03724394832068
 10
250.25346635184806
 20
66.73317395484654
 10
251.55090597472446
 20
65.64786179972785
 10
251.23981633974486
 20
61.5
 10
251.98981633974486
 20
51.5
 10
252.73981633974486
 20
61.5
 10
252.4724121092292
 20
65.06538974020896
 10
253.4467966397814
 20
64.56761657035557
 10
254.16516609271923
 20
64.66200329367481
 10
254.28981633974485
 20
63.0
 10
254.41694771000206
 20
64.69508493676271
 10
254.52015565238517
 20
64.70864545142857
 10
255.40918134055656
 20
65.53665124213902
 10
256.21326723016887
 20
66.47934520565349
 10
255.83981633974486
 20
61.5
 10
256.58981633974486
 20
51.5
 10
257.33981633974486
 20
61.5
 10
256.89913195690895
 20
67.37579177114578
 10
256.96474145255604
 20
67.46285878455845
 10
257.3328640302233
 20
68.10064040458408
 10
257.6659238179735
 20
68.70058118140904
 10
258.080391629558
 20
69.36456929481236
 10
258.3757616812021
 20
69.85406211390273
 10
258.8898163397448
 20
63.0
 10
259.55049246141544
 20
71.80901495560803
 10
259.59287856421986
 20
71.87524806297031
 10
259.9852540334276
 20
72.5176244858524
 10
260.26913665137806
 20
73.05150710380283
 10
260.5023920377306
 20
73.53476249015537
 10
260.73215983710804
 20
74.01453028953281
 10
260.9654915174059
 20
74.49786196983067
 10
261.1621853106659
 20
74.86841372105208
 10
261.1898163397449
 20
74.5
 10
261.22654024627025
 20
74.98965208700487
 10
261.2483284314684
 20
75.03069888389317
 10
261.63999675117054
 20
75.67236720359531
 10
262.0945551236681
 20
76.37692557609287
 10
262.48629973731556
 20
77.01867018974033
 10
262.7680899938158
 20
77.55046044624058
 10
263.0007331212572
 20
78.03310357368198
 10
263.13838037146877
 20
78.31418708965278
 10
262.73981633974483
 20
73.0
 10
263.48981633974483
 20
63.0
 10
264.23981633974483
 20
73.0
 10
263.7494052767628
 20
79.53881417309421
 10
263.99231122336903
 20
80.0246816757938
 10
264.2422063191942
 20
80.524576771619
 10
264.49214909873524
 20
81.02451955116001
 10
264.74319527946034
 20
81.52556573188511
 10
264.9938742955736
 20
82.02624474799839
 10
265.19460519057554
 20
82.43614865559098
 10
265.78981633974485
 20
74.5
 10
266.53981633974485
 20
84.5
 10
266.52019032593284
 20
84.76168018416043
 10
266.5945207913927
 20
84.87689124381748
 10
266.98618911109486
 20
85.51855956351963
 10
267.26902602515736
 20
86.05139647758213
 10
267.5023577054552
 20
86.53472815787998
 10
267.7321250279955
 20
87.01449548042027
 10
267.9653899510912
 20
87.49776040351597
 10
267.97598917713776
 20
87.51769550142764
 10
268.08981633974486
 20
86.0
 10
268.24103034785617
 20
88.01618677481719
 10
268.2492205937914
 20
88.03159104621616
 10
268.641520245891
 20
88.67389069831577
 10
269.0869300206713
 20
89.36930047309605
 10
269.4618728002123
 20
89.99424325263706
 10
269.76740287147084
 20
90.54977332389561
 10
269.90626710069273
 20
90.78551486379392
 10
270.125753625255
 20
91.15812407767979
 10
270.5827185948901
 20
91.8650890473148
 10
271.08264182410755
 20
92.61501323020664
 10
271.6273572286181
 20
93.40970956123081
 10
272.2699301084093
 20
94.3023882988712
 10
272.95044253669306
 20
95.23301516807285
 10
273.545844300609
 20
96.07642947471348
 10
274.104151471477
 20
96.8834930542728
 10
274.8821413358263
 20
97.9296756867191
 10
276.18055795035883
 20
99.511552918317
 10
276.6220122896649
 20
100.0
 10
311.6063485801641
 20
100.0
 10
311.8982317288927
 20
99.66728984153477
 10
312.96138833365956
 20
98.32066308295933
 10
313.79212830863514
 20
97.22173081672398
 10
314.5115406354479
 20
96.25356208121983
 10
315.12212870917836
 20
95.39496146476475
 10
315.6489531835131
 20
94.61802254951206
 10
316.1500103314928
 20
93.8668595436832
 10
316.6089231809191
 20
93.15796576774326
 10
316.967092259746
 20
92.54979573524204
 10
317.2735636075548
 20
91.9933243874332
 10
317.6491949399523
 20
91.36769305503574
 10
318.08456633887806
 20
90.68232165610996
 10
318.4595758756212
 20
90.0573121193668
 10
318.7741501172594
 20
89.49273787772862
 10
319.1484806378893
 20
88.86840735709873
 10
319.1797132679763
 20
88.81960523111408
 10
318.85574287564276
 20
84.5
 10
319.60574287564276
 20
74.5
 10
320.35574287564276
 20
84.5
 10
320.15187148358393
 20
87.21828522745113
 10
320.26913665137806
 20
86.99775134360996
 10
320.5023920377306
 20
86.51449595725742
 10
320.73215983710804
 20
86.03472815787998
 10
320.9654915174059
 20
85.55139647758213
 10
321.2483284314684
 20
85.01855956351963
 10
321.63999675117054
 20
84.37689124381748
 10
322.0945551236681
 20
83.67233287131992
 10
322.48629973731556
 20
83.03058825767246
 10
322.7680899938158
 20
82.49879800117222
 10
323.0007331212572
 20
82.01615487373081
 10
323.24064324698963
 20
81.52624474799839
 10
323.4913222631029
 20
81.02556573188511
 10
323.742368443828
 20
80.52451955116001
 10
323.7559398538278
 20
80.49737362420012
 10
324.2057428756428
 20
74.5
 10
324.53820439311636
 20
78.93282023298069
 10
324.74319527946034
 20
78.52369271552769
 10
324.9938742955736
 20
78.0230136994144
 10
325.2337839444689
 20
77.53310405051914
 10
325.46643660865345
 20
77.05045138633457
 10
325.66370614359175
 20
76.67813505436263
 10
325.66370614359175
 20
22.411357964201443
 10
325.4862992604784
 20
22.076558411344386
 10
325.0945641835741
 20
21.43482333444009
 10
324.63995335898915
 20
20.73021250985513
 10
324.57184500131814
 20
20.61863832432846
 10
324.2057428756428
 20
25.5
 10
323.72199033567153
 20
19.049966133716886
 10
323.493917687755
 20
18.584176838620998
 10
323.2433054288439
 20
18.083564579709865
 10
322.99121211371937
 20
17.581471264585353
 10
322.74059985480824
 20
17.08085900567422
 10
322.5007426580004
 20
16.59100180886636
 10
322.26808045707264
 20
16.108339607938625
 10
321.9863426526598
 20
15.576601803525783
 10
321.59467433295765
 20
14.934933483823635
 10
321.13901685081044
 20
14.229276001676418
 10
320.74660275779286
 20
13.58686190865884
 10
320.4749023755602
 20
13.065161526426174
 10
320.2596065839342
 20
12.599865734800197
 10
320.1178109496734
 20
12.327574320408678
 10
320.35574287564276
 20
15.5
 10
319.60574287564276
 20
25.5
 10
318.85574287564276
 20
15.5
 10
319.20579428005664
 20
10.832647941148617
 10
319.13895057044545
 20
10.729209721311427
 10
318.746660455089
 20
10.086919605954982
 10
318.47401879630604
 20
9.564277947172023
 10
318.2580916722826
 20
9.098350823148586
 10
317.99554084144154
 20
8.585799992307521
 10
317.6199095090441
 20
7.96016865991006
 10
317.1406180699877
 20
7.230877220853664
 10
316.6233570416979
 20
6.4636152388895525
 10
316.12256358466664
 20
5.712840855344631
 10
315.6395423253588
 20
4.979713738187648
 10
315.1238543828539
 20
4.213911354764797
 10
314.512520535808
 20
3.354564964994289
 10
313.7920090993456
 20
2.38529711984048
 10
312.9613454183153
 20
1.2864411475504411
 10
311.94571557250435
 20
0.0
 10
276.2089256967673
 20
0.0
 10
275.5307175954394
 20
0.7454255225504411
 10
274.49309037528553
 20
2.0665228965128435
 10
273.89230416617914
 20
2.9355013968790544
 10
273.25612662635365
 20
3.8204353453959
 10
272.62389777503535
 20
4.700676739438869
 10
272.092833741527
 20
5.481855213865138
 10
271.61092065177485
 20
6.213874161466457
 10
271.110336526256
 20
6.9644392134989275
 10
270.5922057469897
 20
7.732570946439601
 10
270.12405322394886
 20
8.450723469480373
 10
269.9032790297364
 20
8.82587694264077
 10
269.9032790297364
 20
8.82587694264076
 10
269.7665340741686
 20
9.058242619260646
 10
269.461055024486
 20
9.613721668943263
 10
269.0853664716295
 20
10.239410221799709
 10
268.6499421437792
 20
10.92483454965005
 10
268.2749421437792
 20
11.54983454965005
 10
268.27336668519274
 20
11.55266206069484
 10
268.08981633974486
 20
14.0
 10
267.9497279147846
 20
12.132154333863358
 10
267.58604596457997
 20
12.73873072884927
 10
267.14157794318714
 20
13.433198750242092
 10
266.7491543134264
 20
14.075622380002834
 10
266.472129569986
 20
14.59750973654897
 10
266.53981633974485
 20
15.5
 10
265.78981633974485
 20
25.5
 10
265.16942774017457
 20
17.228152005729495
 10
264.9922683080248
 20
17.582508385404445
 10
264.74224923453846
 20
18.082527458890773
 10
264.7322640263435
 20
18.102499989753777
 10
264.7322640263435
 20
18.102499989753788
 10
264.492302163463
 20
18.582474529966213
 10
264.24236892066517
 20
19.082407772764064
 10
263.9913222631029
 20
19.58345443032632
 10
263.74064324698963
 20
20.0841334464396
 10
263.7237184526912
 20
20.118694839284
 10
264.23981633974483
 20
27.0
 10
263.48981633974483
 20
37.0
 10
262.73981633974483
 20
27.0
 10
263.1719585080152
 20
21.23810442306104
 10
262.9862992604784
 20
21.58847743295083
 10
262.5945641835741
 20
22.23021250985513
 10
262.1399538358263
 20
22.93482285760293
 10
261.74820922217884
 20
23.576567471250392
 10
261.46647094092884
 20
24.108305752500392
 10
261.2624428216785
 20
24.531646907551046
 10
261.1898163397449
 20
25.5
 10
261.1365137439341
 20
24.789298722523082
 10
260.99293826423207
 20
25.08183842919717
 10
260.74157069526234
 20
25.583205998166896
 10
260.50066636405506
 20
26.07411032937417
 10
260.26815675101795
 20
26.55661994241128
 10
259.9853732427172
 20
27.089403450712062
 10
259.5929214795641
 20
27.731856167539455
 10
259.58386589306934
 20
27.746005955673116
 10
258.8898163397448
 20
37.0
 10
258.34955633036554
 20
29.79653320827613
 10
258.0803940137438
 20
30.242622673734523
 10
257.66558907828846
 20
30.90635949395547
 10
257.33326600394764
 20
31.505885422452785
 10
256.9712798436693
 20
32.14899092934976
 10
256.87319411206596
 20
32.27837029761486
 10
257.33981633974486
 20
38.5
 10
256.58981633974486
 20
48.5
 10
255.83981633974486
 20
38.5
 10
256.24554745741375
 20
33.090251764415164
 10
255.33655379615348
 20
34.02693063043008
 10
254.46168517232138
 20
34.70841556564608
 10
254.28981633974485
 20
37.0
 10
254.130268578484
 20
34.87269651652194
 10
253.67558644614738
 20
35.06896334908853
 10
253.05637906394523
 20
35.068284332975246
 10
252.46350771688108
 20
34.81588502848297
 10
252.73981633974486
 20
38.5
 10
251.98981633974486
 20
48.5
 10
251.23981633974486
 20
38.5
 10
251.5651521570029
 20
34.162189103226204
 10
251.4238474210314
 20
34.05272752068887
 10
250.42747472129386
 20
33.02708464883218
 10
250.02584049189906
 20
32.519677971277154
 10
249.68981633974485
 20
37.0
 10
249.27689303155546
 20
31.494355890808137
 10
249.04992602668327
 20
31.154559910520412
 10
248.57661364875358
 20
30.41404467843423
 10
248.11888144813102
 20
29.707380593046047
 10
247.7408459027819
 20
29.081299126371242
 10
247.4761426290087
 20
28.566489994748927
 10
247.26043103538078
 20
28.10067206643472
 10
246.98783133826774
 20
27.57809144280801
 10
246.59545586905998
 20
26.93571501992593
 10
246.13985226951164
 20
26.23011142037759
 10
245.74817441306632
 20
25.588433563932277
 10
245.73160317821183
 20
25.557157846226218
 10
245.83981633974486
 20
27.0
 10
245.08981633974486
 20
37.0
 10
244.33981633974486
 20
27.0
 10
244.61521439081434
 20
23.32802598574021
 10
244.49214909873527
 20
23.082408249601222
 10
244.24220631919425
 20
22.582465470060207
 10
243.99231122336906
 20
22.08257037423501
 10
243.74236844382804
 20
21.582627594693996
 10
243.49132226310294
 20
21.081581413968898
 10
243.24064324698966
 20
20.580902397855617
 10
243.16962535334417
 20
20.43587981867562
 10
242.78981633974485
 20
25.5
 10
242.2830912791875
 20
18.74366585923534
 10
242.09456418357414
 20
18.43482333444009
 10
241.84856885451387
 20
18.0535498873833
 10
241.84856885451387
 20
18.053549887383294
 10
241.63995383582633
 20
17.730212986692287
 10
241.24820922217887
 20
17.088468373044826
 10
240.96647094092887
 20
16.556730091794826
 10
240.7338945706896
 20
16.074153721555568
 10
240.49293778739494
 20
15.58319693826089
 10
240.24157975516837
 20
15.081838906034328
 10
240.00062344871085
 20
14.590882599576808
 10
239.76803754172843
 20
14.108296692594386
 10
239.48635171256583
 20
13.576610863431789
 10
239.09467385612052
 20
12.934933006986476
 10
238.70180480438225
 20
12.326512861831995
 10
238.93981633974485
 20
15.5
 10
238.18981633974485
 20
25.5
 10
237.43981633974485
 20
15.5
 10
237.8006776999223
 20
10.688515197634146
 10
237.7597167333178
 20
10.599975884183742
 10
237.48702262244743
 20
10.07728177331338
 10
237.0939771970324
 20
9.434236347898342
 10
236.64746926627677
 20
8.737728417142726
 10
236.27258370719474
 20
8.112842858060695
 10
235.96721242270988
 20
7.557471573575832
 10
235.60894797645133
 20
6.94920617364297
 10
235.15008757911247
 20
6.240364849790431
 10
234.64918301902335
 20
5.489354431852199
 10
234.12021230063957
 20
4.710269272550441
 10
233.50819943748039
 20
3.850243866666652
 10
232.81001351676505
 20
2.903301537259914
 10
232.01466630301994
 20
1.839762032255031
 10
230.8778383573107
 20
0.4194639327372087
 10
230.50197998344908
 20
0.0
 10
194.73363621659925
 20
0.0
 10
194.33421204886955
 20
0.44193106912026536
 10
193.20857308707755
 20
1.8510401847208513
 10
192.5895984014086
 20
2.7382071616495622
 10
192.07427047095817
 20
3.502291500791408
 10
191.46158812842887
 20
4.362986386045314
 10
190.75875066123527
 20
5.3159382941568865
 10
190.09881137214225
 20
6.225983441099025
 10
189.59817479453605
 20
6.976600945218898
 10
189.25801299415153
 20
7.566763699277736
 10
188.962679608684
 20
8.112097084745265
 10
188.5863025029711
 20
8.738474190458156
 10
188.54154909029515
 20
8.808861301056806
 10
188.54154909029515
 20
8.8088613010568
 10
188.14983199439567
 20
9.424944699033595
 10
187.77489875159782
 20
10.049877941831447
 10
187.46037648520988
 20
10.614400208219386
 10
187.08603642783683
 20
11.238740265592433
 10
186.8537642396927
 20
11.60167418872294
 10
186.67388980384692
 20
14.0
 10
186.5322998376338
 20
12.112133783824975
 10
186.24926446280998
 20
12.575512230619289
 10
185.96538089118522
 20
13.109395802244045
 10
185.73212550483268
 20
13.592651188596584
 10
185.50235770545524
 20
14.072418987974025
 10
185.2690260251574
 20
14.555750668271877
 10
185.07980643550107
 20
14.912221755388773
 10
185.1238898038469
 20
15.5
 10
184.3738898038469
 20
25.5
 10
183.74288633117675
 20
17.086620364397735
 10
183.46642754874748
 20
17.60834914468179
 10
183.25846623138366
 20
18.039787209081855
 10
183.25846623138366
 20
18.03978720908187
 10
183.23378442130607
 20
18.090992272123195
 10
182.99387429557365
 20
18.580902397855617
 10
182.74319527946037
 20
19.081581413968898
 10
182.49214909873527
 20
19.582627594693996
 10
182.29688051394265
 20
19.973209467943292
 10
182.8238898038469
 20
27.0
 10
182.0738898038469
 20
37.0
 10
181.3238898038469
 20
27.0
 10
181.7721816828799
 20
21.022774946226406
 10
181.74236844382804
 20
21.082408249601222
 10
181.49132226310294
 20
21.58345443032632
 10
181.24064324698966
 20
22.0841334464396
 10
181.00073312125724
 20
22.574043572172023
 10
180.76808999381583
 20
23.05668669961343
 10
180.4862997373156
 20
23.588476956113674
 10
180.09455512366813
 20
24.230221569761135
 10
179.83946981840734
 20
24.62559980586119
 10
179.7738898038469
 20
25.5
 10
179.72196910901116
 20
24.807724068856523
 10
179.63999675117057
 20
24.934779942258693
 10
179.24832843146842
 20
25.57644826196084
 10
178.96549151740592
 20
26.10928517602334
 10
178.73215983710807
 20
26.592616856321193
 10
178.5023934682421
 20
27.07238322518716
 10
178.26910994849723
 20
27.55566769860635
 10
178.16794224354166
 20
27.745967470736726
 10
177.4738898038469
 20
37.0
 10
176.9325768695834
 20
29.782494209819884
 10
176.76835320792716
 20
30.054663479551174
 10
176.48448823295158
 20
30.587460339292385
 10
176.17020104728263
 20
31.168950379117824
 10
175.6465313275866
 20
31.97373944543252
 10
175.45270235721875
 20
32.21750071162434
 10
175.92388980384692
 20
38.5
 10
175.17388980384692
 20
48.5
 10
174.42388980384692
 20
38.5
 10
174.83700412822452
 20
32.991809008298816
 10
174.8164450963549
 20
33.01766425393472
 10
173.8089873632006
 20
34.054496109708644
 10
173.05075215445444
 20
34.64183532523297
 10
172.8738898038469
 20
37.0
 10
172.71197956289768
 20
34.84119678734355
 10
172.17727826438468
 20
35.067185700162746
 10
171.55723927817863
 20
35.067185700162746
 10
171.05036152437367
 20
34.852956273690104
 10
171.32388980384692
 20
38.5
 10
170.57388980384692
 20
48.5
 10
169.82388980384692
 20
38.5
 10
170.14457685736465
 20
34.22417261976364
 10
169.9255301793627
 20
34.054496109708644
 10
168.9180724462084
 20
33.01766425393472
 10
168.60234466749043
 20
32.62060181808641
 10
168.2738898038469
 20
37.0
 10
167.8720285592075
 20
31.641850071474757
 10
167.56431697211784
 20
31.168950855954982
 10
167.25002024970573
 20
30.58745127938638
 10
166.96620724998039
 20
30.054706394895412
 10
166.5889174779467
 20
29.429370701536037
 10
166.1402575810961
 20
28.73060494683633
 10
165.7474181493334
 20
28.087659180387355
 10
165.47481845222038
 20
27.565078556760646
 10
165.25957082114738
 20
27.09982997201333
 10
164.98792384467643
 20
26.578182995542385
 10
164.5955002149157
 20
25.935759365781642
 10
164.3110308137411
 20
25.495213465255862
 10
164.42388980384692
 20
27.0
 10
163.67388980384692
 20
37.0
 10
162.92388980384692
 20
27.0
 10
163.18786869517461
 20
23.480281448963893
 10
162.99387429557365
 20
23.0841334464396
 10
162.74319527946037
 20
22.58345443032632
 10
162.4921486218981
 20
22.082407772764064
 10
162.24221537910026
 20
21.582474529966213
 10
161.99226830802482
 20
21.082527458890773
 10
161.74264266293338
 20
20.583295212180317
 10
161.3738898038469
 20
25.5
 10
160.87509844900268
 20
18.849448602077086
 10
160.74064324698966
 20
18.580902397855617
 10
160.50073312125724
 20
18.090992272123195
 10
160.26808999381583
 20
17.60834914468179
 10
159.9862997373156
 20
17.076558888181545
 10
159.59455512366813
 20
16.434814274534084
 10
159.13999675117057
 20
15.730255902036525
 10
158.74832843146842
 20
15.088587582334377
 10
158.46549151740592
 20
14.555750668271877
 10
158.23215983710807
 20
14.072418987974025
 10
158.00239203773063
 20
13.592651188596584
 10
157.7691366513781
 20
13.109395802244045
 10
157.48525307975333
 20
12.575512230619289
 10
157.2792596770842
 20
12.238264976497403
 10
157.5238898038469
 20
15.5
 10
156.7738898038469
 20
25.5
 10
156.0238898038469
 20
15.5
 10
156.37739434749167
 20
10.78660608473669
 10
156.27415011725944
 20
10.614409268125392
 10
155.9595753987841
 20
10.04983454965005
 10
155.5845753987841
 20
9.42483454965005
 10
155.2714259710217
 20
8.931889374000997
 10
155.2714259710217
 20
8.931889374001
 10
155.1491515477709
 20
8.739410698636867
 10
154.7734534581713
 20
8.113712609037258
 10
154.46803067527335
 20
7.558289826139308
 10
154.11050246558707
 20
6.950760662778713
 10
153.64170907340568
 20
6.231986344083644
 10
153.1235716184191
 20
5.463743031247951
 10
152.6242983182482
 20
4.714355290159084
 10
152.15267203650993
 20
3.994716465696193
 10
151.67922471366447
 20
3.272512734159328
 10
151.06025050483268
 20
2.385345757230617
 10
149.89272139869254
 20
0.9343560340250505
 10
149.0426687229625
 20
0.0
 10
113.28955320715042
 20
0.0
 10
112.24745152793449
 20
1.3121617438639177
 10
111.4340684255175
 20
2.3937371375406755
 10
110.72364686332267
 20
3.352915108426906
 10
110.1117102941088
 20
4.2128642203653826
 10
109.59392808280509
 20
4.980760872587062
 10
109.11030410132926
 20
5.714490711912013
 10
108.61960099540275
 20
6.455174744352199
 10
108.11961100898307
 20
7.205165684446193
 10
107.60962842307609
 20
7.9651482703531755
 10
107.09300778708976
 20
8.731768906339504
 10
107.0349550023727
 20
8.82016506700303
 10
106.61470912299674
 20
9.460067570432521
 10
106.2390205701403
 20
10.085756123288967
 10
105.97641633353751
 20
10.59836035989175
 10
105.7605082830004
 20
11.06426841042886
 10
105.48781369529289
 20
11.586962998136379
 10
105.43210007159425
 20
11.678175951396476
 10
105.25796326794898
 20
14.0
 10
105.12191367136512
 20
12.186005378881866
 10
105.09545682273429
 20
12.229319870694972
 10
104.63985226951164
 20
12.934924423917629
 10
104.24817441306632
 20
13.576602280362941
 10
103.96643660865348
 20
14.108340084775783
 10
103.73378394446891
 20
14.590992748960353
 10
103.65227169782364
 20
14.757445731662132
 10
103.70796326794897
 20
15.5
 10
102.95796326794897
 20
25.5
 10
102.34816685001398
 20
17.36938109420008
 10
102.2406427701525
 20
17.58413392327676
 10
102.00073312125724
 20
18.074043572172023
 10
101.90078946023498
 20
18.281387419610102
 10
101.90078946023498
 20
18.281387419610105
 10
101.76808999381583
 20
18.55668669961343
 10
101.48629926047843
 20
19.08847743295083
 10
101.09456418357414
 20
19.73021250985513
 10
100.88687217075743
 20
20.052118704112804
 10
101.40796326794897
 20
27.0
 10
100.65796326794897
 20
37.0
 10
99.90796326794897
 20
27.0
 10
100.36678952152354
 20
20.88231661900574
 10
100.24821828208488
 20
21.076558411344386
 10
99.96642802558463
 20
21.60834866784463
 10
99.73377536140006
 20
22.0910013320292
 10
99.49391768775504
 20
22.58085900567422
 10
99.24330542884391
 20
23.081471264585353
 10
98.9912121137194
 20
23.583564579709865
 10
98.74059985480827
 20
24.084176838620998
 10
98.5007426580004
 20
24.57403403542886
 10
98.41389876629168
 20
24.754193355430672
 10
98.35796326794897
 20
25.5
 10
98.317090123637
 20
24.95502474250694
 10
98.26808045707267
 20
25.056696236356593
 10
97.98634265265983
 20
25.588434040769435
 10
97.59467433295768
 20
26.230102360471584
 10
97.1390187581591
 20
26.935757935270168
 10
96.7671210262943
 20
27.544563222062283
 10
96.05796326794898
 20
37.0
 10
95.52111698242915
 20
29.84204952640232
 10
95.17233727775138
 20
30.399610340818263
 10
94.85812638602775
 20
30.98104316018472
 10
94.46539614997428
 20
31.654787838682033
 10
94.03531627011684
 20
32.198040028904714
 10
94.50796326794898
 20
38.5
 10
93.75796326794898
 20
48.5
 10
93.00796326794898
 20
38.5
 10
93.42698852877395
 20
32.91299652233382
 10
92.4851758321337
 20
33.88018161080728
 10
91.64070063029897
 20
34.563501835333305
 10
91.45796326794897
 20
37.0
 10
91.29310400790166
 20
34.80187653270247
 10
90.64128087363761
 20
35.08632022164712
 10
90.02207349143546
 20
35.05092746041665
 10
89.63715911950011
 20
34.889278020681914
 10
89.90796326794897
 20
38.5
 10
89.15796326794897
 20
48.5
 10
88.40796326794897
 20
38.5
 10
88.72227773243515
 20
34.3091404735178
 10
88.57246945701164
 20
34.19947654031167
 10
87.77971289954704
 20
33.37954312585244
 10
87.18804221169475
 20
32.59894741672313
 10
86.85796326794897
 20
37.0
 10
86.44374710270475
 20
31.477117796743617
 10
86.08336184821647
 20
30.920793831571437
 10
85.62667678199332
 20
30.21517592690835
 10
85.26735614142936
 20
29.607809365018703
 10
84.96181891761344
 20
29.052166283353664
 10
84.58694861732047
 20
28.427189648374416
 10
84.14147637687248
 20
27.731736481412746
 10
83.74911044440788
 20
27.08936959527383
 10
83.4663269361071
 20
26.55658608697305
 10
83.23373149238151
 20
26.073990643247463
 10
82.99392674766105
 20
25.584185898527004
 10
82.88553925469262
 20
25.367679823248668
 10
83.00796326794898
 20
27.0
 10
82.25796326794898
 20
37.0
 10
81.50796326794898
 20
27.0
 10
81.79556253012822
 20
23.165343170943398
 10
81.76808951697868
 20
23.10834866784463
 10
81.48629926047843
 20
22.576558411344386
 10
81.09456418357414
 20
21.93482333444009
 10
80.63995335898917
 20
21.23021250985513
 10
80.3177807400173
 20
20.702433705755638
 10
79.95796326794897
 20
25.5
 10
79.47376028222092
 20
19.043960190292704
 10
79.24318621955436
 20
18.583445370420314
 10
79.0048887501493
 20
18.107794344431927
 10
79.0048887501493
 20
18.107794344431923
 10
78.9921920140795
 20
18.08245116494546
 10
78.7423255284838
 20
17.582584679349758
 10
78.49133132300895
 20
17.081590473874904
 10
78.2406427701525
 20
16.58090192101846
 10
78.0007335980944
 20
16.090992748960353
 10
77.76808093390983
 20
15.608340084775783
 10
77.48634265265983
 20
15.076601803525783
 10
77.09467433295768
 20
14.434933483823635
 10
76.63901732764762
 20
13.729276478513576
 10
76.24659369788688
 20
13.086852848752834
 10
75.97494529090446
 20
12.565204441770412
 10
75.87100233107049
 20
12.340520841620265
 10
76.10796326794897
 20
15.5
 10
75.35796326794897
 20
25.5
 10
74.60796326794897
 20
15.5
 10
74.96544108640882
 20
10.733629087202184
 10
74.64836142859977
 20
10.238620579465724
 10
74.2741072019152
 20
9.614366352781154
 10
73.95958541236442
 20
9.049844563230373
 10
73.87564518835745
 20
8.909948458980283
 10
73.58455680213493
 20
8.42481595300088
 10
73.14924262366813
 20
7.739501774534084
 10
72.7735926946215
 20
7.1138508918131365
 10
72.46653483710807
 20
6.556812107786037
 10
72.10838769279044
 20
5.948559105619289
 10
71.64994834266227
 20
5.240005314573146
 10
71.15877555213493
 20
4.500819981321193
 10
70.69541810355705
 20
3.788706124051906
 10
70.11266778312248
 20
2.93776351235757
 10
68.87147639594596
 20
1.4131019713724626
 10
67.570879590775
 20
0.0
 10
31.989010029326693
 20
0.0
 10
31.6460554441027
 20
0.4135578276957048
 10
30.479841454844887
 20
1.847964108213283
 10
29.66553138099235
 20
2.9110305907572283
 10
29.09101508460563
 20
3.7335594298685564
 10
28.597600205760415
 20
4.47708874963174
 10
28.112341626506264
 20
5.2124531867350115
 10
27.619387372355874
 20
5.955388367399074
 10
27.11964534125846
 20
6.7051313521708025
 10
26.60866711936515
 20
7.466109574064113
 10
26.0912720998339
 20
8.233504593595363
 10
25.688263769858782
 20
8.852205923460227
 10
25.624163373332436
 20
8.950613320096828
 10
25.266577466350014
 20
9.55819922707925
 10
24.961045964579995
 20
10.11373072884927
 10
24.585366948466714
 20
10.73940974496255
 10
24.149942143779214
 20
11.42483454965005
 10
24.01877871183414
 20
11.643440269558507
 10
23.842036732051028
 20
14.0
 10
23.70516642715661
 20
12.175062601407735
 10
23.460366948466714
 20
12.61440974496255
 10
23.086045964579995
 20
13.23873072884927
 10
22.641577943187173
 20
13.933198750242092
 10
22.24915431342643
 20
14.575622380002834
 10
22.225982427078307
 20
14.619275933697073
 10
22.292036732051027
 20
15.5
 10
21.542036732051027
 20
25.5
 10
20.921354390336283
 20
17.224235443803405
 10
20.74221537910026
 20
17.582561314329006
 10
20.49226830802482
 20
18.082508385404445
 10
20.24224923453849
 20
18.582527458890773
 10
19.99230216346305
 20
19.082474529966213
 10
19.7423689206652
 20
19.582407772764064
 10
19.491322263102944
 20
20.08345443032632
 10
19.4756443206687
 20
20.11476784823566
 10
19.992036732051027
 20
27.0
 10
19.242036732051027
 20
37.0
 10
18.492036732051027
 20
27.0
 10
18.924644397596154
 20
21.231897792731626
 10
18.768089993815835
 20
21.55668669961343
 10
18.48629973731559
 20
22.088476956113674
 10
18.09455512366813
 20
22.730221569761135
 10
17.63999675117057
 20
23.434779942258693
 10
17.248328431468423
 20
24.07644826196084
 10
17.01597303580204
 20
24.514182616653205
 10
16.94203673205103
 20
25.5
 10
16.887370102772046
 20
24.77111160961356
 10
16.732168897014077
 20
25.092607796415187
 10
16.50234912238639
 20
25.572427571042873
 10
16.26901744208854
 20
26.055759251340724
 10
15.986234887462075
 20
26.58854180596719
 10
15.59458707175773
 20
27.230191529020168
 10
15.34588034086255
 20
27.615418549179726
 10
14.642036732051029
 20
37.0
 10
14.107269505878755
 20
29.869770317703008
 10
14.025637372355874
 20
30.04126864694009
 10
13.749354585032876
 20
30.60492783807168
 10
13.184094174724038
 20
31.502482712491847
 10
12.616001237860697
 20
32.15286007746224
 10
13.092036732051028
 20
38.5
 10
12.342036732051028
 20
48.5
 10
11.592036732051028
 20
38.5
 10
12.016606226185718
 20
32.839073411537456
 10
11.997176869731362
 20
32.861316979154445
 10
10.30366967521232
 20
34.26423198006997
 10
10.24507676858913
 20
34.292799512825304
 10
10.042036732051027
 20
37.0
 10
9.853321980417038
 20
34.48380331154681
 10
8.750743611674721
 20
35.02137595437417
 10
8.226931414668101
 20
34.96526243489434
 10
8.492036732051027
 20
38.5
 10
7.742036732051027
 20
48.5
 10
6.992036732051027
 20
38.5
 10
7.291309502799031
 20
34.50969639002659
 10
7.001576646190102
 20
34.24477654717813
 10
6.2692563375048
 20
33.3607447745646
 10
5.764863146753882
 20
32.69564780396199
 10
5.4420367320510294
 20
37.0
 10
5.036937674202328
 20
31.59867922868398
 10
4.758278592448647
 20
31.096251785978176
 10
4.463614209514077
 20
30.55206614755044
 10
4.086261971812661
 20
29.92671090386758
 10
3.649778111796792
 20
29.24012595437417
 10
3.2749082883409812
 20
28.615149319394924
 10
2.9603755315355613
 20
28.05063563607583
 10
2.5860454877428367
 20
27.42630463860879
 10
2.1415779431871727
 20
26.731837094053127
 10
1.7491543134264305
 20
26.089413464292385
 10
1.486653283689975
 20
25.59488735518594
 10
1.592036732051028
 20
27.0
 10
0.842036732051028
 20
37.0
 10
0.09203673205102803
 20
27.0
 10
0.3671135869647095
 20
23.332308601150896
 10
0.24220631919425273
 20
23.082465470060207
 10
0.0
 20
22.597951155190362
 10
0.0
 20
76.81887295286784
 10
0.09452079139273906
 20
76.67236720359531
  0
LWPOLYLINE
  5
30
330
17
100
AcDbEntity
  8
0
 62
0
100
AcDbPolyline
 90
34
 70
0
 10
33.847303136210854
 20
41.37788831031529
 10
34.781995042186196
 20
42.56133662498204
 10
35.8601233800463
 20
43.90765773093907
 10
37.24235366187614
 20
45.573348629834335
 10
39.14700721107047
 20
47.6826692703983
 10
41.28420791742718
 20
49.81986141121322
 10
40.96897624335807
 20
50.102517426236965
 10
38.43988154731315
 20
52.63160353921304
 10
36.37613604865592
 20
54.900016129239894
 10
35.166726334910805
 20
56.392886460050434
 10
34.406772359233315
 20
57.42103320382486
 10
33.72871373496574
 20
58.34784823678383
 10
33.25208599337786
 20
59.01696626544492
 10
32.96803258262199
 20
58.50040303504673
 10
32.61046622596305
 20
57.89283572471349
 10
32.141882165294106
 20
57.17427073753087
 10
31.624021275859292
 20
56.40630399024693
 10
31.120508893351968
 20
55.65267716682164
 10
30.646099789958413
 20
54.930255520703476
 10
30.214058144908364
 20
54.24945746696202
 10
29.66519950233024
 20
53.43240653312413
 10
28.360374673228677
 20
51.844111550213974
 10
26.471076787990583
 20
49.80883227651276
 10
28.374808534007485
 20
47.74860173486123
 10
29.637752755504067
 20
46.202187359556056
 10
30.204647286754067
 20
45.36710053704629
 10
30.64782546363395
 20
44.675165951475
 10
31.121488793712075
 20
43.95349007867227
 10
31.6239025434069
 20
43.200961888059474
 10
32.14183019004386
 20
42.43292838357339
 10
32.610518201213296
 20
41.714259445890285
 10
32.96815131507438
 20
41.106625378354885
 10
33.25430670905217
 20
40.585394007507674
 10
33.847303136210854
 20
41.37788831031529
  0
LWPOLYLINE
  5
31
330
17
100
AcDbEntity
  8
0
 62
0
100
AcDbPolyline
 90
95
 70
0
 10
40.24821828208488
 20
27.576558411344386
 10
40.639953358989175
 20
26.93482333444009
 10
41.09456370673698
 20
26.230212986692287
 10
41.48630832038444
 20
25.588468373044826
 10
41.76804660163444
 20
25.056730091794826
 10
42.000622971873696
 20
24.574153721555568
 10
42.241579755168374
 20
24.08319693826089
 10
42.492937787394936
 20
23.581838906034328
 10
42.733894093852456
 20
23.09088259957681
 10
42.96648000083488
 20
22.608296692594386
 10
43.24816487632316
 20
22.076611817106105
 10
43.63986132941764
 20
21.434914410337306
 10
44.09542296729606
 20
20.729371845945217
 10
44.487649186473305
 20
20.087038338407375
 10
44.761412843089516
 20
19.563184082731105
 10
44.978932126384194
 20
19.09759026788125
 10
45.23065493903678
 20
18.596384346708156
 10
45.58219455085319
 20
17.979162991269924
 10
46.09092686973136
 20
17.199253380521633
 10
46.76014588676017
 20
16.301696121915676
 10
47.4841000875048
 20
15.42885237954507
 10
48.263257726054604
 20
14.77872973702798
 10
49.392444833140786
 20
14.63764840386758
 10
51.00816081367057
 20
15.252990544065334
 10
52.639891846995766
 20
16.4523933532084
 10
53.71761058173698
 20
17.67023831628213
 10
54.222586854319985
 20
18.52486592553506
 10
54.488100751262124
 20
19.08784610055337
 10
54.76386664710563
 20
19.608554661496974
 10
55.14511416755241
 20
20.234751045926906
 10
55.59356282554191
 20
20.933622181638576
 10
55.98550914130729
 20
21.575812638028957
 10
56.26812241874259
 20
22.108379185422756
 10
56.500668271403725
 20
22.59092742226968
 10
56.74157069526237
 20
23.081829846128322
 10
56.992938264232095
 20
23.58319741509805
 10
57.233894570689614
 20
24.074153721555568
 10
57.46647094092887
 20
24.556730091794826
 10
57.74820922217887
 20
25.088468373044826
 10
58.13995383582633
 20
25.730212986692287
 10
58.594564183574136
 20
26.43482333444009
 10
58.98629926047843
 20
27.076558411344386
 10
59.268089993815835
 20
27.60834914468179
 10
59.50073312125724
 20
28.090992272123195
 10
59.740642770152505
 20
28.58090192101846
 10
59.99133132300895
 20
29.081590473874904
 10
60.2423255284838
 20
29.582584679349758
 10
60.49219201407951
 20
30.08245116494546
 10
60.74318621955436
 20
30.583445370420314
 10
60.993874772410805
 20
31.08413392327676
 10
61.22344387955332
 20
31.552927576201032
 10
61.00239251456779
 20
32.01449548042027
 10
60.769127591472085
 20
32.497760403515976
 10
60.48529885612052
 20
33.03158913886754
 10
60.092961533885415
 20
33.67392741477696
 10
59.64775155387443
 20
34.36911832130162
 10
59.27313826880973
 20
34.99383746421544
 10
58.96342442832511
 20
35.55366574561803
 10
58.60133813224357
 20
36.16376744544713
 10
58.18488667808097
 20
36.828919041516464
 10
57.764289601664956
 20
37.51800404823033
 10
57.10323260627311
 20
38.46303759849278
 10
55.84953616462272
 20
39.91517936027257
 10
54.221151574473794
 20
41.537508118512314
 10
52.97058556876701
 20
42.642644513013046
 10
52.376615746837075
 20
43.07610808646886
 10
51.780642255168374
 20
43.247397053601425
 10
50.48411391578239
 20
43.38691436088292
 10
48.75041220984977
 20
43.38692389762608
 10
47.45383189521354
 20
43.24735366142003
 10
46.85779164634269
 20
43.07599793708531
 10
46.264868005137856
 20
42.6435805443546
 10
45.014990552287514
 20
41.53913270271031
 10
43.376464112620766
 20
39.90666209495274
 10
42.10533450446647
 20
38.43708716666905
 10
41.477167352061684
 20
37.52494345939366
 10
41.199051125865395
 20
36.97833930289952
 10
40.976073964457925
 20
36.50666199958531
 10
40.7376868566088
 20
36.02025948798863
 10
40.50164388022941
 20
35.53410207069127
 10
40.26877520881217
 20
35.05112754142491
 10
39.98624347053092
 20
34.51861487662999
 10
39.594508870463784
 20
33.876879322888534
 10
39.14000581107658
 20
33.17237626350133
 10
38.748327954631264
 20
32.530698407056015
 10
38.465491040568764
 20
31.997861492993515
 10
38.25381941921516
 20
31.559387972205123
 10
38.49226830802482
 20
31.082508385404445
 10
38.74221537910026
 20
30.582561314329006
 10
38.99214862189811
 20
30.082628071531154
 10
39.243195279460366
 20
29.581581413968898
 10
39.49387429557365
 20
29.080902397855617
 10
39.73378442130607
 20
28.590992272123195
 10
39.966427548747475
 20
28.10834914468179
 10
40.24821828208488
 20
27.576558411344386
  0
LWPOLYLINE
  5
32
330
17
100
AcDbEntity
  8
0
 62
0
100
AcDbPolyline
 90
37
 70
0
 10
70.05541251502555
 20
46.3926427962626
 10
70.67430137000602
 20
47.279723942502834
 10
71.84182141624015
 20
48.73071414254556
 10
72.8217276808182
 20
49.80777093396617
 10
71.85719178519767
 20
50.86106263435094
 10
70.64674495063346
 20
52.35497962272374
 10
70.04594920478385
 20
53.223967659833114
 10
69.58264373145622
 20
53.93602954185216
 10
69.10958312354606
 20
54.65710269248692
 10
68.61930058799308
 20
55.39749966895787
 10
68.11860583625358
 20
56.14830027854649
 10
67.61802171073478
 20
56.898865330578964
 10
67.11867259345573
 20
57.64821540153234
 10
66.60973857245963
 20
58.40714942252842
 10
66.34842050293337
 20
58.794906647030814
 10
66.13456080756706
 20
58.47660475991617
 10
65.69289420447868
 20
57.786191284879536
 10
65.23457501731437
 20
57.05962687753091
 10
64.2298424085192
 20
55.771366894468166
 10
62.1469476064257
 20
53.48485165856729
 10
59.444301350932534
 20
50.78289300225625
 10
58.365536300458174
 20
49.80356987033527
 10
59.444420560222085
 20
48.82413493430821
 10
62.14596818290275
 20
46.12327491080968
 10
64.22810767493766
 20
43.83751498496739
 10
65.2440287908129
 20
42.53806649482457
 10
65.7204601605944
 20
41.79338990485875
 10
66.11914704642814
 20
41.14595614707677
 10
66.35056646291312
 20
40.74960986786412
 10
66.62412904105705
 20
41.214388191923
 10
67.09123538337272
 20
41.931494534238674
 10
67.60860131583732
 20
42.69886142037759
 10
68.12037442527335
 20
43.4606154563273
 10
68.62039969764274
 20
44.2107465865458
 10
69.10848449073356
 20
44.94894582055459
 10
69.58086608253043
 20
45.669339955076076
 10
70.05541251502555
 20
46.3926427962626
  0
LWPOLYLINE
  5
33
330
17
100
AcDbEntity
  8
0
 62
0
100
AcDbPolyline
 90
98
 70
0
 10
59.48629926047843
 20
71.53058873450962
 10
59.094564183574136
 20
72.17232381141392
 10
58.639953358989175
 20
72.87693463599888
 10
58.24821828208488
 20
73.51866971290318
 10
57.966428025584634
 20
74.05045996940342
 10
57.73377536140006
 20
74.53311263358799
 10
57.493917687755044
 20
75.02297030723301
 10
57.24330542884391
 20
75.52358256614414
 10
56.99121259055656
 20
76.0256754044315
 10
56.74059079490226
 20
76.52629720008579
 10
56.50078700385612
 20
77.01610099113194
 10
56.26817296348136
 20
77.49871598518101
 10
55.985483868937905
 20
78.03138600623814
 10
55.59332393012565
 20
78.67365275657383
 10
55.145701154094155
 20
79.37137185371128
 10
54.76839707694572
 20
79.9967743042728
 10
54.484597428660805
 20
80.52957068717686
 10
54.16928265891593
 20
81.11107980048862
 10
53.6448290189318
 20
81.91576396262852
 10
52.82469914756339
 20
82.95955525672642
 10
51.83669207892936
 20
83.99848090446201
 10
50.888395531993325
 20
84.71081172263828
 10
50.01267789207023
 20
84.9923912171146
 10
49.15339063010734
 20
84.95775376594273
 10
48.3602831204943
 20
84.71852885520664
 10
47.69336245856803
 20
84.29027091300694
 10
47.12362025580924
 20
83.67379771506992
 10
46.605120404582436
 20
82.93136941230503
 10
46.10252497993034
 20
82.14833365714756
 10
45.593452199321206
 20
81.37310467994419
 10
45.11560700736564
 20
80.64626084602085
 10
44.73898194633048
 20
80.02153741157261
 10
44.47636245093864
 20
79.5088215950748
 10
44.26051781974357
 20
79.0428701523563
 10
43.98781321845573
 20
78.52018462455479
 10
43.59545682273429
 20
77.87782727515904
 10
43.139852746348794
 20
77.17222319877354
 10
42.74816535316032
 20
76.53053580558506
 10
42.46648000083488
 20
75.99885045325962
 10
42.233894093852456
 20
75.5162645462772
 10
41.992937787394936
 20
75.02530823981968
 10
41.741579755168374
 20
74.52395020759312
 10
41.500622971873696
 20
74.03299342429844
 10
41.26804660163444
 20
73.55041705405918
 10
40.98630832038444
 20
73.01867877280918
 10
40.59456370673698
 20
72.37693415916172
 10
40.139953358989175
 20
71.67232381141392
 10
39.74821828208488
 20
71.03058873450962
 10
39.466427548747475
 20
70.49879800117222
 10
39.23378442130607
 20
70.01615487373081
 10
38.99387429557365
 20
69.52624474799839
 10
38.743195279460366
 20
69.02556573188511
 10
38.49214862189811
 20
68.52451907432285
 10
38.256733892920785
 20
68.05362673706301
 10
38.49219201407951
 20
67.58258467934976
 10
38.7431857427172
 20
67.08159095071207
 10
38.99388383231681
 20
66.58089286111246
 10
39.23373816810172
 20
66.09103852532755
 10
39.46637128196281
 20
65.60840445779215
 10
39.748903497081216
 20
65.07589131616007
 10
40.14086411796134
 20
64.43382483743082
 10
40.591607793193276
 20
63.73296672128092
 10
40.97105096183341
 20
63.10550814889321
 10
41.22477219901603
 20
62.60308676980386
 10
41.485598309855874
 20
62.07377272866616
 10
42.10372804008048
 20
61.171666443570956
 10
43.3755271276049
 20
59.70142203591713
 10
45.01510070167106
 20
58.06790429376016
 10
46.26491139731925
 20
56.96352320931801
 10
46.857782586436684
 20
56.531158268674716
 10
47.4538323720507
 20
56.35979300759682
 10
48.75041220984977
 20
56.22022324822793
 10
50.48411391578239
 20
56.22023278497109
 10
51.780642255168374
 20
56.3597500922526
 10
52.376615746837075
 20
56.53103905938515
 10
52.97058556876701
 20
56.96450263284097
 10
54.221151574473794
 20
58.069639027341694
 10
55.84953616462272
 20
59.691967785581454
 10
57.10323260627311
 20
61.144109547361225
 10
57.7642891248278
 20
62.089142620786525
 10
58.18489573798698
 20
62.77823716424355
 10
58.60129474006217
 20
63.4433363082255
 10
58.96331427894157
 20
64.05337125085245
 10
59.2740752538256
 20
64.61424666665445
 10
59.649358018260415
 20
65.23963528893839
 10
60.084530576091225
 20
65.92478877328287
 10
60.45957778296989
 20
66.54983693383585
 10
60.7741505940966
 20
67.11440974496256
 10
61.148471577983315
 20
67.73873072884928
 10
61.28137552048674
 20
67.94638917342405
 10
61.24224923453849
 20
68.02463876044956
 10
60.99230216346305
 20
68.524585831525
 10
60.7423689206652
 20
69.02451907432285
 10
60.491322263102944
 20
69.52556573188511
 10
60.24064324698966
 20
70.02624474799839
 10
60.00073312125724
 20
70.51615487373081
 10
59.768089993815835
 20
70.99879800117222
 10
59.48629926047843
 20
71.53058873450962
  0
LWPOLYLINE
  5
34
330
17
100
AcDbEntity
  8
0
 62
0
100
AcDbPolyline
 90
37
 70
0
 10
114.64075843132264
 20
40.645545430967026
 10
114.70283912025016
 20
40.7334242943546
 10
115.41274092994254
 20
41.69208251273839
 10
116.31442044578117
 20
42.861954796673935
 10
117.7284414609484
 20
44.5594364289066
 10
119.93392203650993
 20
46.96958409583775
 10
122.49480746589225
 20
49.53046094215123
 10
122.79729218484127
 20
49.80141169669319
 10
122.49410174689811
 20
50.077391922696926
 10
119.41475604377311
 20
53.15672904275308
 10
117.0501835187487
 20
55.725968659147114
 10
115.9399220784716
 20
57.11969071648966
 10
115.37446235023063
 20
57.953343212827534
 10
114.7594587644152
 20
58.81710320733438
 10
114.64751794117934
 20
58.97285841790531
 10
114.58294127784293
 20
58.86531173026768
 10
114.15771697364372
 20
58.19008742606847
 10
113.79942391715568
 20
57.58179341590611
 10
113.46057532630485
 20
56.99296389854161
 10
112.96069310508292
 20
56.242975819470566
 10
112.29764293036979
 20
55.32981120383946
 10
111.66473506293815
 20
54.44889079368321
 10
111.16958688102287
 20
53.70498620307652
 10
110.60419343314689
 20
52.87140046394078
 10
109.37309192023795
 20
51.35682879722325
 10
107.94346760325271
 20
49.80357357292701
 10
109.37309192023795
 20
48.25031834863076
 10
110.60419343314689
 20
46.735746681913234
 10
111.16958688102287
 20
45.90216094277749
 10
111.66473506293815
 20
45.1582563521708
 10
112.29764293036979
 20
44.27733594201455
 10
112.96069310508292
 20
43.36417132638345
 10
113.46057532630485
 20
42.614183247312404
 10
113.79942391715568
 20
42.0253537299479
 10
114.15771697364372
 20
41.41705971978555
 10
114.58294175468009
 20
40.74183493874917
 10
114.64075843132264
 20
40.645545430967026
  0
LWPOLYLINE
  5
35
330
17
100
AcDbEntity
  8
0
 62
0
100
AcDbPolyline
 90
98
 70
0
 10
121.99214909873527
 20
27.082627594693996
 10
122.24319527946037
 20
26.581581413968898
 10
122.49387429557365
 20
26.080902397855617
 10
122.73378442130607
 20
25.590992272123195
 10
122.96642754874748
 20
25.10834914468179
 10
123.24821780524772
 20
24.576558888181545
 10
123.63996241889518
 20
23.934814274534084
 10
124.09452079139274
 20
23.230255902036525
 10
124.48618911109489
 20
22.588587582334377
 10
124.76902459464591
 20
22.05575209878335
 10
125.00238297782462
 20
21.57239133141885
 10
125.23203156791251
 20
21.092789471372463
 10
125.46487639747184
 20
20.609700501188136
 10
125.75164197288078
 20
20.072512448057033
 10
126.150179608684
 20
19.429025948270656
 10
126.56692241035026
 20
18.7673404815043
 10
126.84980271659416
 20
18.18699389718423
 10
127.19204781852287
 20
17.49509650491128
 10
128.11000512443107
 20
16.437032044156886
 10
129.69875644050163
 20
15.280504048093654
 10
131.3325083097033
 20
14.646992504819728
 10
132.47393105826896
 20
14.777931511625148
 10
133.25301240287345
 20
15.429488480314113
 10
133.965778096538
 20
16.29334098122964
 10
134.61771653495353
 20
17.17346507333169
 10
135.15829156241935
 20
17.98511344216714
 10
135.6515567143969
 20
18.744079411252834
 10
136.1078908284716
 20
19.449895680173732
 10
136.46714518867057
 20
20.057224571927883
 10
136.77269957862418
 20
20.612869560941554
 10
137.14756892524284
 20
21.237846195920802
 10
137.59304116569083
 20
21.933299362882472
 10
137.98540709815543
 20
22.57566624902139
 10
138.26819108329337
 20
23.108450234159328
 10
138.5007769902758
 20
23.59103614114175
 10
138.7406337102465
 20
24.080892861112453
 10
138.9913317998461
 20
24.581590950712062
 10
139.2423255284838
 20
25.082584679349758
 10
139.4921920140795
 20
25.58245116494546
 10
139.74318621955436
 20
26.083445370420314
 10
139.9938747724108
 20
26.58413392327676
 10
140.23378442130607
 20
27.074043572172023
 10
140.46642754874748
 20
27.55668669961343
 10
140.74821828208488
 20
28.08847743295083
 10
141.13995335898917
 20
28.73021250985513
 10
141.59456418357414
 20
29.43482333444009
 10
141.98629926047843
 20
30.076558411344386
 10
142.26808951697868
 20
30.60834866784463
 10
142.50074218116325
 20
31.0910013320292
 10
142.73291363795659
 20
31.565161562065764
 10
142.48540662131828
 20
32.031481373669784
 10
142.09304974875968
 20
32.67383824622838
 10
141.64753697715324
 20
33.36935101783482
 10
141.27249930701774
 20
33.99438964164464
 10
140.9682137807421
 20
34.548656094433944
 10
140.61090014777702
 20
35.15607558524815
 10
140.13950227103751
 20
35.877587902905624
 10
139.61832402549308
 20
36.646781552197616
 10
139.14885543189567
 20
37.36495028770177
 10
138.72900460563224
 20
38.053289521100204
 10
138.11091826758903
 20
38.955343830945175
 10
136.99824450812858
 20
40.26649628913609
 10
135.57348941169303
 20
41.68536340034215
 10
134.4637930234484
 20
42.648793328168075
 10
133.89973090491813
 20
43.04915820396153
 10
133.2955252965502
 20
43.23685799873082
 10
132.0205933888964
 20
43.40079366004674
 10
130.27591965995353
 20
43.42026387489049
 10
128.76545451484245
 20
43.206450569989364
 10
127.75288556418937
 20
42.82331048286168
 10
126.95086882911247
 20
42.323639977338
 10
126.11183904014152
 20
41.66181145942418
 10
125.24448369346183
 20
40.783156025769394
 10
124.42533658347648
 20
39.75547372138707
 10
123.73916982017082
 20
38.78600941932408
 10
123.26545546851676
 20
38.04485379493443
 10
122.93860410056632
 20
37.46923552787511
 10
122.57935307822746
 20
36.86191664970128
 10
122.14292882285636
 20
36.17538749015538
 10
121.75001309714835
 20
35.53236542976109
 10
121.4662253697924
 20
34.998596775891464
 10
121.23368762336295
 20
34.516058075787704
 10
120.99393580756706
 20
34.026306259991806
 10
120.7433044751696
 20
33.525674927594345
 10
120.4912121137194
 20
33.02358256614415
 10
120.24059985480827
 20
32.52297030723302
 10
120.00074218116325
 20
32.033112633588
 10
119.76808951697868
 20
31.550459969403427
 10
119.7384431907285
 20
31.494511876532258
 10
119.98629926047843
 20
31.08847743295083
 10
120.26808999381583
 20
30.55668669961343
 10
120.50073312125724
 20
30.074043572172023
 10
120.74064324698966
 20
29.5841334464396
 10
120.99132226310294
 20
29.08345443032632
 10
121.24236844382804
 20
28.582408249601222
 10
121.49231122336906
 20
28.082465470060207
 10
121.74220631919425
 20
27.58257037423501
 10
121.99214909873527
 20
27.082627594693996
  0
LWPOLYLINE
  5
36
330
17
100
AcDbEntity
  8
0
 62
0
100
AcDbPolyline
 90
38
 70
0
 10
151.96721576056999
 20
47.07263880990396
 10
153.0366952260546
 20
48.425578892454006
 10
154.29687353490635
 20
49.802663018906046
 10
153.0272662480883
 20
51.19098817146031
 10
151.96898482642692
 20
52.53273974693028
 10
151.38480971656364
 20
53.38510714805333
 10
150.75762246451896
 20
54.26105080878941
 10
150.1248004277758
 20
55.14188538825719
 10
149.59268973670524
 20
55.92411052024571
 10
149.1107575734667
 20
56.65614854133336
 10
148.61132500968498
 20
57.40556203162877
 10
148.09394000373405
 20
58.17294799125402
 10
147.68052943933208
 20
58.80197256448483
 10
147.61688016257804
 20
58.706937134488925
 10
147.12849067054313
 20
57.97053462289223
 10
146.67673467002433
 20
57.2700317504252
 10
146.18227694831413
 20
56.507328808530666
 10
145.25011657081168
 20
55.291641056760646
 10
143.46812508903068
 20
53.30602914117227
 10
141.14296172462028
 20
50.981553375943996
 10
139.83466263303546
 20
49.80250711533451
 10
141.13604710898917
 20
48.634076226117294
 10
143.47067330680412
 20
46.29945956504552
 10
145.2510711988024
 20
44.31445037162511
 10
146.18114302955192
 20
43.100908387067
 10
146.6749746640734
 20
42.33888446128575
 10
147.13791011176627
 20
41.627192604901474
 10
147.64432643256706
 20
40.87276374137608
 10
147.75352813678964
 20
40.70486714082632
 10
147.96188186011832
 20
41.05214101098428
 10
148.2673556645922
 20
41.607614815458156
 10
148.6257154782824
 20
42.21597558282266
 10
149.0833203633837
 20
42.92356139443765
 10
149.58326934180778
 20
43.67361623071084
 10
150.12656901679557
 20
44.4670303466166
 10
150.75872157416862
 20
45.34719544671426
 10
151.38371060691398
 20
46.22094088815103
 10
151.96721576056999
 20
47.07263880990396
  0
LWPOLYLINE
  5
37
330
17
100
AcDbEntity
  8
0
 62
0
100
AcDbPolyline
 90
101
 70
0
 10
140.24220631919425
 20
72.5246816757938
 10
139.99231122336906
 20
73.024576771619
 10
139.74236844382804
 20
73.52451955116001
 10
139.49132226310294
 20
74.02556573188511
 10
139.24064324698966
 20
74.52624474799839
 10
139.0007335980944
 20
75.01615439689365
 10
138.76808093390983
 20
75.49880706107822
 10
138.486343129497
 20
76.03054486549107
 10
138.09466527305167
 20
76.67222272193638
 10
137.63906119666618
 20
77.37782679832188
 10
137.24669526420158
 20
78.02019368446079
 10
136.97404311500114
 20
78.5428267601749
 10
136.75826524100822
 20
79.00871144569126
 10
136.49459908805412
 20
79.52247391975132
 10
136.11729501090568
 20
80.14787637031284
 10
135.64953921638053
 20
80.86462985313145
 10
135.15783284507316
 20
81.62251149451939
 10
134.62339423499625
 20
82.43728553092686
 10
133.963092549663
 20
83.3213821533939
 10
133.1897861798815
 20
84.14351283347813
 10
132.38180945716422
 20
84.71418486869541
 10
131.5468213399462
 20
84.97511063850132
 10
130.68753407798332
 20
84.97503434455601
 10
129.8536970456652
 20
84.71515570914951
 10
129.04645655952018
 20
84.14523898399082
 10
128.26201365790885
 20
83.31197081840244
 10
127.58368562064689
 20
82.40984784400669
 10
127.09107516608756
 20
81.6369019631168
 10
126.75839398704093
 20
81.0380455139896
 10
126.46450541816276
 20
80.49515925681797
 10
126.08787082038444
 20
79.87042628562656
 10
125.6413471540026
 20
79.17380629813877
 10
125.24918721519035
 20
78.53153954780308
 10
124.96539853416007
 20
77.99776994025913
 10
124.73212455115836
 20
77.51449500358311
 10
124.50235770545524
 20
77.03472815787998
 10
124.26902602515739
 20
76.55139647758213
 10
123.98618911109489
 20
76.01855956351963
 10
123.59452079139274
 20
75.37689124381748
 10
123.13996241889518
 20
74.67233287131992
 10
122.74821780524772
 20
74.03058825767246
 10
122.46642754874748
 20
73.49879800117222
 10
122.23378442130607
 20
73.01615487373081
 10
121.99387429557365
 20
72.52624474799839
 10
121.74319527946037
 20
72.02556573188511
 10
121.49214862189811
 20
71.52451907432285
 10
121.24221537910026
 20
71.024585831525
 10
120.99226783118766
 20
70.5246382836124
 10
120.7422582944445
 20
70.02462874686924
 10
120.49225924811881
 20
69.52462970054356
 10
120.24224971137565
 20
69.02462016380039
 10
119.99230216346305
 20
68.5246726158878
 10
119.7423689206652
 20
68.02473937308994
 10
119.73228130366698
 20
68.00460619613867
 10
119.98629926047843
 20
67.58847743295084
 10
120.26808951697868
 20
67.0566871764506
 10
120.50074218116325
 20
66.57403451226602
 10
120.74059937797111
 20
66.08417731545816
 10
120.9912211736254
 20
65.58355551980387
 10
121.24326060615104
 20
65.08151608727823
 10
121.49383424125236
 20
64.5809414985026
 10
121.73459027610343
 20
64.09020453713785
 10
121.96767781577628
 20
63.60701066277872
 10
122.2424180348925
 20
63.08216553948769
 10
122.61970494590324
 20
62.456810772641994
 10
123.07749579749625
 20
61.75025302194008
 10
123.55121014915031
 20
61.00909739755045
 10
124.1064374288134
 20
60.170572579130024
 10
124.90754865012687
 20
59.16092616341958
 10
125.93658755622428
 20
58.120587170347065
 10
126.93545506797355
 20
57.29892092965494
 10
127.78045152030509
 20
56.756270706876606
 10
128.77490828834098
 20
56.391242802366115
 10
130.274184926372
 20
56.18861800454507
 10
132.01961396537345
 20
56.207332909330226
 10
133.29564450583976
 20
56.37016993783364
 10
133.89977382026237
 20
56.55794602654825
 10
134.4637839635424
 20
56.95836287759194
 10
135.5734898885302
 20
57.92178326867471
 10
136.99824450812858
 20
59.340650856717915
 10
138.11091826758903
 20
60.65180331490885
 10
138.72900460563224
 20
61.5538576247538
 10
139.14885543189567
 20
62.24219685815225
 10
139.61832402549308
 20
62.96036559365639
 10
140.13950227103751
 20
63.7295592429484
 10
140.61090014777702
 20
64.45107156060587
 10
140.9682137807421
 20
65.05849105142008
 10
141.27249930701774
 20
65.61275750420938
 10
141.64753697715324
 20
66.2377961280192
 10
142.09304927192252
 20
66.93330842278849
 10
142.48541568122428
 20
67.57567483209024
 10
142.70556417600045
 20
67.99048513299125
 10
142.59456418357414
 20
68.17232381141392
 10
142.13995335898917
 20
68.87693463599888
 10
141.74821828208488
 20
69.51866971290318
 10
141.46642754874748
 20
70.05046044624058
 10
141.23378442130607
 20
70.53310357368198
 10
140.99387429557365
 20
71.0230136994144
 10
140.74319527946037
 20
71.52369271552769
 10
140.49214909873527
 20
72.02473889625279
 10
140.24220631919425
 20
72.5246816757938
  0
LWPOLYLINE
  5
38
330
17
100
AcDbEntity
  8
0
 62
0
100
AcDbPolyline
 90
37
 70
0
 10
196.15234824986197
 20
40.65083896339078
 10
196.23201201758903
 20
40.762597191693466
 10
196.88889621100944
 20
41.66823779380528
 10
197.6134478887133
 20
42.660982239606064
 10
198.89652942023795
 20
44.22752438819615
 10
201.26110194526237
 20
46.796764004590194
 10
204.09869279422327
 20
49.63434647404893
 10
203.23308680854362
 20
50.34002238534341
 10
202.19133590064567
 20
51.38108569405923
 10
200.86925385795158
 20
52.906788170560695
 10
199.31953738532584
 20
54.740032017454006
 10
197.9942843755297
 20
56.33353024743447
 10
197.13808463416618
 20
57.43847686074625
 10
196.58159516654533
 20
58.24297934792885
 10
196.13086937884842
 20
58.92748129345902
 10
196.1104986508898
 20
58.89286910331455
 10
195.64234612784904
 20
58.174716580273795
 10
195.124291642528
 20
57.40666114127843
 10
194.62266038260978
 20
56.65504895484654
 10
194.1400682767443
 20
55.92235099113194
 10
193.61909411750358
 20
55.15126239097325
 10
193.0042221387438
 20
54.288377869488876
 10
192.33625386558097
 20
53.37165318763463
 10
191.59373257957023
 20
52.36093961036412
 10
190.35149453483146
 20
50.83523141181676
 10
189.41122483070532
 20
49.807758160180406
 10
190.36689923606437
 20
48.75650197289834
 10
191.56616710029166
 20
47.27377349160562
 10
192.32680009208244
 20
46.24494773171792
 10
193.00595734916251
 20
45.31703406594644
 10
193.62006448112052
 20
44.45491439126382
 10
194.139991982799
 20
43.684872448667385
 10
194.6227366765551
 20
42.95202189706216
 10
195.1233208020739
 20
42.20145684502969
 10
195.64061997733634
 20
41.43415671609292
 10
196.1199095090441
 20
40.70486718438516
 10
196.15234824986197
 20
40.65083896339078
  0
LWPOLYLINE
  5
39
330
17
100
AcDbEntity
  8
0
 62
0
100
AcDbPolyline
 90
97
 70
0
 10
203.48630832038444
 20
27.088468373044826
 10
203.76804660163444
 20
26.556730091794826
 10
204.0006229718737
 20
26.074153721555568
 10
204.24157975516837
 20
25.58319693826089
 10
204.49293778739494
 20
25.081838906034328
 10
204.7338945706896
 20
24.59088212273965
 10
204.96647094092887
 20
24.108305752500392
 10
205.2482087453417
 20
23.57656794808755
 10
205.63996289573234
 20
22.934813797696926
 10
206.0945188840441
 20
22.230257809385158
 10
206.48622344337028
 20
21.588550865873195
 10
206.76888917289298
 20
21.055931866391994
 10
207.0017340024523
 20
20.572842896207668
 10
207.23548243842643
 20
20.08867198251138
 10
207.4756738980822
 20
19.603531658872463
 10
207.72069571815055
 20
19.113567173704006
 10
208.00349973044914
 20
18.53329688332925
 10
208.51851294837516
 20
17.668631375058986
 10
209.59557174048942
 20
16.451465428098537
 10
211.2262031873278
 20
15.253057301267482
 10
212.84191916785758
 20
14.637581646665431
 10
213.97220586143058
 20
14.779657662137843
 10
214.75202344260734
 20
15.430459320768215
 10
215.4659402211718
 20
16.293264687284328
 10
216.11787865958732
 20
17.173541367277004
 10
216.65730260215324
 20
17.98414260171304
 10
217.1498315175585
 20
18.74235326074014
 10
217.6173016866259
 20
19.45930653832803
 10
217.99459193549674
 20
20.084671318754054
 10
218.25826571784538
 20
20.598435700162746
 10
218.47404311500114
 20
21.064320385679103
 10
218.74669526420158
 20
21.586953461393215
 10
219.13906119666618
 20
22.22932034753213
 10
219.59466527305167
 20
22.93492442391763
 10
219.986343129497
 20
23.57660228036294
 10
220.26808093390983
 20
24.108340084775783
 10
220.5007335980944
 20
24.590992748960353
 10
220.74064324698966
 20
25.080902397855617
 10
220.99132226310294
 20
25.581581413968898
 10
221.24236844382804
 20
26.082627594693996
 10
221.49231122336906
 20
26.58257037423501
 10
221.74220631919425
 20
27.082465470060207
 10
221.99214909873527
 20
27.582408249601222
 10
222.24319527946037
 20
28.08345443032632
 10
222.49387429557365
 20
28.5841334464396
 10
222.73378442130607
 20
29.074043572172023
 10
222.96642754874748
 20
29.55668669961343
 10
223.24821828208488
 20
30.08847743295083
 10
223.63995335898917
 20
30.73021250985513
 10
224.09456418357414
 20
31.43482333444009
 10
224.20557217954848
 20
31.61667512416631
 10
223.98540709815543
 20
32.031480896832626
 10
223.59304068885368
 20
32.673847306134384
 10
223.14757941566032
 20
33.36930857932774
 10
222.7726275762133
 20
33.99426137244908
 10
222.46719096503776
 20
34.54967891013829
 10
222.1090557416491
 20
35.15792046821324
 10
221.6498839696459
 20
35.86719714439122
 10
221.14753936133903
 20
36.61760913169591
 10
220.6251299222521
 20
37.38879500663487
 10
220.02705214820426
 20
38.254262078168075
 10
219.27728055320304
 20
39.287255871655624
 10
218.33483527503532
 20
40.43931638038365
 10
217.27375672660392
 20
41.51254378593175
 10
216.28126214347404
 20
42.31687222755162
 10
215.42722056708854
 20
42.8482285622379
 10
214.4731433232836
 20
43.213132489087265
 10
213.14409564338249
 20
43.4289866570255
 10
211.59026835761588
 20
43.42891989982335
 10
210.26231931052726
 20
43.21405946052281
 10
209.3089210828356
 20
42.849853623273056
 10
208.4447376569323
 20
42.30835448539464
 10
207.43481944404166
 20
41.48660241401402
 10
206.40657780967277
 20
40.44621192252843
 10
205.6065561612658
 20
39.43657504356114
 10
205.05125306449455
 20
38.59804974830357
 10
204.57748673759025
 20
37.856894123913925
 10
204.11970589957755
 20
37.15033685004918
 10
203.7424089749865
 20
36.52497254646031
 10
203.46772073112052
 20
36.00017939841954
 10
203.23470948539298
 20
35.51706181800572
 10
202.99285434089225
 20
35.02522574699132
 10
202.7415349324755
 20
34.52390538490025
 10
202.5006320317797
 20
34.03300248420445
 10
202.26804612479728
 20
33.55041657722203
 10
201.9863087972216
 20
33.01867924964635
 10
201.59455464683097
 20
32.37692509925572
 10
201.13999675117057
 20
31.67236720359532
 10
201.03410637051093
 20
31.49888750352111
 10
201.24319527946037
 20
31.081581413968898
 10
201.49387429557365
 20
30.580902397855617
 10
201.73378442130607
 20
30.090992272123195
 10
201.96642754874748
 20
29.60834914468179
 10
202.24821828208488
 20
29.076558411344386
 10
202.63995335898917
 20
28.43482333444009
 10
203.09456370673698
 20
27.730212986692287
 10
203.48630832038444
 20
27.088468373044826
  0
LWPOLYLINE
  5
3A
330
17
100
AcDbEntity
  8
0
 62
0
100
AcDbPolyline
 90
37
 70
0
 10
233.46725915275138
 20
47.072681725248195
 10
234.5366771062426
 20
48.425569832548
 10
235.80115205090416
 20
49.807316130767376
 10
234.5417001088671
 20
51.1765543106815
 10
233.44153807960075
 20
52.560186493756454
 10
232.87539885840934
 20
53.394518006207626
 10
232.25934861503166
 20
54.25932465827672
 10
231.6257712682299
 20
55.140914547803085
 10
231.09261344275993
 20
55.924186814191025
 10
230.61083386741203
 20
56.656072247388046
 10
230.11035416923087
 20
57.40653287208287
 10
229.59221385322135
 20
58.174674141766715
 10
229.18444982414357
 20
58.800165919002026
 10
229.13165829978507
 20
58.721715271695956
 10
228.53903935752433
 20
57.88108378671059
 10
227.77764199576896
 20
56.87093001626382
 10
226.7877528508715
 20
55.61284858010659
 10
225.5528223355822
 20
54.09444791100869
 10
224.090684636455
 20
52.42769891045938
 10
222.4892713864855
 20
50.82629519723306
 10
221.31024310253747
 20
49.803569653070454
 10
222.48938153586906
 20
48.78074179923741
 10
224.08974765143913
 20
47.18038522041051
 10
225.5512158711962
 20
45.51430569923131
 10
226.7961838086657
 20
43.98586760795323
 10
227.8033630689196
 20
42.71049605643956
 10
228.53401683173698
 20
41.73108588493077
 10
228.98557017646354
 20
41.0315199974796
 10
229.141432725025
 20
40.745687001347385
 10
229.59394000373405
 20
41.4341991546
 10
230.11132500968498
 20
42.201585114225246
 10
230.61075805030387
 20
42.950999081357814
 10
231.09268067679923
 20
43.6830275657023
 10
231.62484334312003
 20
44.465304672941066
 10
232.2577416738085
 20
45.34621554635415
 10
232.88382981620353
 20
46.22106009744058
 10
233.46725915275138
 20
47.072681725248195
  0
LWPOLYLINE
  5
3B
330
17
100
AcDbEntity
  8
0
 62
0
100
AcDbPolyline
 90
100
 70
0
 10
222.24224971137565
 20
71.5246382836124
 10
221.99230216346305
 20
72.024585831525
 10
221.7423689206652
 20
72.52451907432285
 10
221.49132226310294
 20
73.02556573188511
 10
221.24064324698966
 20
73.52624474799839
 10
221.00073312125724
 20
74.01615487373081
 10
220.76808999381583
 20
74.49879800117222
 10
220.4862997373156
 20
75.03058825767246
 10
220.09455512366813
 20
75.67233287131992
 10
219.63999722800773
 20
76.37689076698032
 10
219.24831937156242
 20
77.01856862342564
 10
218.96553538642448
 20
77.55135260856358
 10
218.73226140342277
 20
78.0346275452396
 10
218.5014898618273
 20
78.51538001334873
 10
218.26767609916251
 20
78.99930058753696
 10
217.99287341437858
 20
79.52419959342686
 10
217.61631511054557
 20
80.14885627067295
 10
217.14965890250724
 20
80.86451112067905
 10
216.6578667005114
 20
81.62245951926914
 10
216.1234280904345
 20
82.4373375061771
 10
215.4632122357897
 20
83.32150088584629
 10
214.68880675635856
 20
84.14253340995518
 10
213.88007472358268
 20
84.71245013511387
 10
213.05627511344474
 20
84.98456441199986
 10
212.21510003409904
 20
85.00260030067173
 10
211.33828328452628
 20
84.6997419480106
 10
210.37120507560294
 20
83.96998750007359
 10
209.42507909141105
 20
82.97503625190464
 10
208.7647774060778
 20
82.0909396294376
 10
208.40315888724845
 20
81.44898568427769
 10
208.07054446540397
 20
80.85019599235264
 10
207.6446692784838
 20
80.17532311713902
 10
207.2493293126635
 20
79.53188477790562
 10
206.97452662787956
 20
79.00698577201572
 10
206.75949452720207
 20
78.5418468598148
 10
206.48794148765128
 20
78.02031289375034
 10
206.09549926124137
 20
77.37786971366612
 10
205.63984320960563
 20
76.67221366203037
 10
205.24817488990348
 20
76.03054534232822
 10
204.96643660865348
 20
75.49880706107822
 10
204.7337839444689
 20
75.01615439689365
 10
204.49387429557365
 20
74.52624474799839
 10
204.24319527946037
 20
74.02556573188511
 10
203.9921486218981
 20
73.52451907432285
 10
203.74221537910026
 20
73.024585831525
 10
203.49226830802482
 20
72.52463876044956
 10
203.2422492345385
 20
72.02461968696323
 10
202.99230216346305
 20
71.5246726158878
 10
202.7423689206652
 20
71.02473937308994
 10
202.49132226310294
 20
70.52369271552769
 10
202.24064324698966
 20
70.0230136994144
 10
202.00073312125724
 20
69.53310357368198
 10
201.76808999381583
 20
69.05046044624058
 10
201.48629926047843
 20
68.51866971290318
 10
201.09491899386222
 20
67.87751588138877
 10
201.2431948026232
 20
67.58158189080606
 10
201.49388335547965
 20
67.08089333794962
 10
201.73374055228751
 20
66.59103614114176
 10
201.96632645926994
 20
66.10845023415933
 10
202.24910949073356
 20
65.57566720269571
 10
202.6414944966845
 20
64.93328124307047
 10
203.08686183295768
 20
64.2379329802836
 10
203.4615990956835
 20
63.61308985970865
 10
203.76922009788078
 20
63.0553544165934
 10
204.12994836173576
 20
62.44661074899087
 10
204.5665795644335
 20
61.76127940438637
 10
205.02188990912956
 20
61.03748065255533
 10
205.6193744977526
 20
60.15602809213051
 10
206.58955787025016
 20
58.98736602090249
 10
207.8086030324511
 20
57.77420789025673
 10
208.7766501744799
 20
56.95244628213297
 10
209.3089210828356
 20
56.58376771233925
 10
209.9304072698168
 20
56.378653824552394
 10
211.21647570930045
 20
56.20567399285684
 10
212.9611589749865
 20
56.187571346982814
 10
214.46043513618034
 20
56.392288983091206
 10
215.45564721427482
 20
56.757938683256015
 10
216.29055379233878
 20
57.29039412759194
 10
217.27198813758415
 20
58.094646275266506
 10
218.33386443458122
 20
59.16782170556435
 10
219.27739928565543
 20
60.319891751035556
 10
220.0270950635485
 20
61.35288506768593
 10
220.6251208623461
 20
62.21835213921914
 10
221.1475398381762
 20
62.9895380141581
 10
221.6498839696459
 20
63.7399500014628
 10
222.1090557416491
 20
64.44922667764078
 10
222.46719096503776
 20
65.05746823571573
 10
222.7726275762133
 20
65.61288577340494
 10
223.14757941566032
 20
66.23783856652628
 10
223.59304068885368
 20
66.93329983971964
 10
223.98540709815543
 20
67.5756662490214
 10
224.10375230517596
 20
67.79863655261765
 10
223.99387429557365
 20
68.0230136994144
 10
223.74319527946037
 20
68.52369271552769
 10
223.4921486218981
 20
69.02473937308994
 10
223.24221537910026
 20
69.5246726158878
 10
222.99226783118766
 20
70.02462016380039
 10
222.7422582944445
 20
70.52462970054356
 10
222.4922592481188
 20
71.02462874686924
 10
222.24224971137565
 20
71.5246382836124
  0
LWPOLYLINE
  5
3C
330
17
100
AcDbEntity
  8
0
 62
0
100
AcDbPolyline
 90
39
 70
0
 10
277.51451599215284
 20
40.64898277706742
 10
277.93881390891596
 20
41.22138654029576
 10
278.7781522115282
 20
42.308737385632675
 10
279.8809387525134
 20
43.66028033530919
 10
281.3480369885973
 20
45.39557086265294
 10
282.88667462668934
 20
47.21767865455357
 10
284.0486738523058
 20
48.58428918159215
 10
284.88618157706776
 20
49.421787369610946
 10
285.3675646528886
 20
49.79863419387424
 10
284.73076556525746
 20
50.340617954954006
 10
283.17025349937
 20
51.90118819497476
 10
281.6894996007494
 20
53.586661637052394
 10
280.45355628333607
 20
55.10605603478798
 10
279.481827958446
 20
56.345977604612216
 10
278.6887442906908
 20
57.387817681058735
 10
277.95371125541254
 20
58.37086325906167
 10
277.5166672339499
 20
58.96180971162472
 10
277.2725837071947
 20
58.554954159619484
 10
276.96721337638417
 20
57.99958382880895
 10
276.6089298566393
 20
57.391299355389755
 10
276.15017436347523
 20
56.68256293571202
 10
275.6494033177904
 20
55.931686032178085
 10
275.11833880744496
 20
55.15050708091466
 10
274.5049774488024
 20
54.28913317954747
 10
273.82691930137196
 20
53.362318623425644
 10
273.0662100156359
 20
52.333416569592636
 10
271.86689017615834
 20
50.85063611304967
 10
270.89927699334817
 20
49.78624664039289
 10
271.5205099423937
 20
49.102900326475
 10
272.892692788463
 20
47.44724732659707
 10
273.812484963756
 20
46.25926286004434
 10
274.53242419562855
 20
45.29056721948037
 10
275.12774966559925
 20
44.44722920678506
 10
275.6476776441149
 20
43.67718678735147
 10
276.1491944631151
 20
42.9255641105021
 10
276.609049542766
 20
42.21572810433755
 10
276.9672472318224
 20
41.60752946160684
 10
277.27261756263295
 20
41.05215913079629
 10
277.51451599215284
 20
40.64898277706742
  0
LWPOLYLINE
  5
3D
330
17
100
AcDbEntity
  8
0
 62
0
100
AcDbPolyline
 90
97
 70
0
 10
284.46642754874745
 20
27.60834914468179
 10
284.74821828208485
 20
27.076558411344386
 10
285.13995335898915
 20
26.43482333444009
 10
285.5945641835741
 20
25.73021250985513
 10
285.9862992604784
 20
25.08847743295083
 10
286.26808951697865
 20
24.556687176450588
 10
286.5007421811632
 20
24.074034512266017
 10
286.74059985480824
 20
23.584176838620998
 10
286.99121211371937
 20
23.083564579709865
 10
287.2433030446581
 20
22.581473648771144
 10
287.4939610799364
 20
22.080813229307033
 10
287.7335946401171
 20
21.591226399167873
 10
287.96570323310414
 20
21.108873665555812
 10
288.2524688085131
 20
20.571686566099025
 10
288.65174268088856
 20
19.927444756254054
 10
289.05850051246205
 20
19.275849163755275
 10
289.32408116660633
 20
18.712935745939113
 10
289.69707082114735
 20
17.988200485929347
 10
290.75608418784657
 20
16.787721932157375
 10
292.5595357259325
 20
15.436672508939601
 10
294.3523890813402
 20
14.678792298063136
 10
295.49375985465565
 20
14.746097862943508
 10
296.11367295585194
 20
15.273200333341457
 10
296.6128370603136
 20
15.94363099358926
 10
297.12446521125355
 20
16.682086765989162
 10
297.6231596311144
 20
17.44976121209512
 10
298.1156790097765
 20
18.20811492226968
 10
298.62393115363636
 20
18.96595412515054
 10
299.1416079839281
 20
19.731686413511135
 10
299.6189348538927
 20
20.45910483621011
 10
299.9938804944567
 20
21.08415776513467
 10
300.2665326436571
 20
21.60679084084878
 10
300.4997303327135
 20
22.089989483579494
 10
300.7416808446459
 20
22.581939995511867
 10
300.99298165641346
 20
23.083240807279445
 10
301.2338855107836
 20
23.574144661649562
 10
301.466471417766
 20
24.056730568631984
 10
301.74820922217884
 20
24.588468373044826
 10
302.1399538358263
 20
25.230212986692287
 10
302.5945641835741
 20
25.93482333444009
 10
302.9862992604784
 20
26.576558411344386
 10
303.2680899938158
 20
27.10834914468179
 10
303.5007331212572
 20
27.590992272123195
 10
303.7406427701525
 20
28.08090192101846
 10
303.9913313230089
 20
28.581590473874904
 10
304.2423255284838
 20
29.082584679349758
 10
304.4921920140795
 20
29.58245116494546
 10
304.74318621955433
 20
30.083445370420314
 10
304.9938747724108
 20
30.58413392327676
 10
305.23378442130604
 20
31.074043572172023
 10
305.46469519792765
 20
31.553092751979154
 10
305.2322699864916
 20
32.034618008496444
 10
305.0014564832262
 20
32.515431511761825
 10
304.76750300727406
 20
32.999384987713974
 10
304.4938142140917
 20
33.52307378089635
 10
304.11894820533314
 20
34.14794074332921
 10
303.6406395276598
 20
34.87623034751622
 10
303.1232597669176
 20
35.64371644294469
 10
302.62435363135853
 20
36.39272748267857
 10
302.14146970115223
 20
37.123678791882675
 10
301.60897038779774
 20
37.90495454108922
 10
300.974754079204
 20
38.80656014716832
 10
300.29755423865834
 20
39.766981232525985
 10
299.6560218175463
 20
40.61814795768468
 10
298.9723741849474
 20
41.313840496899765
 10
298.12152884803334
 20
41.97636710441319
 10
297.12755797706166
 20
42.649851906659286
 10
295.9977681478075
 20
43.1919408921024
 10
294.60566542945423
 20
43.4486809853336
 10
293.0525934537462
 20
43.411939728619735
 10
291.777609094005
 20
43.22567759788243
 10
290.98174451194325
 20
43.020630467297714
 10
290.3003666242174
 20
42.66423999107091
 10
289.308560593944
 20
41.86042844093053
 10
288.06572221122303
 20
40.60533820426671
 10
286.94757388434925
 20
39.277593720318954
 10
286.1765239080004
 20
38.22332059180943
 10
285.7201144536547
 20
37.49952183997838
 10
285.4563796361498
 20
36.987010586621444
 10
285.25479529700795
 20
36.537358868481796
 10
284.9890453656725
 20
36.02150403297154
 10
284.59627269111195
 20
35.378625023724716
 10
284.1397692998461
 20
34.672140705945175
 10
283.7481205304674
 20
34.030490982892196
 10
283.46648906074086
 20
33.498859513165634
 10
283.23389361701527
 20
33.01626406944005
 10
282.9929377873949
 20
32.52530823981969
 10
282.74157975516835
 20
32.023950207593124
 10
282.508755667105
 20
31.54956403847956
 10
282.74224923453846
 20
31.082527458890773
 10
282.9922683080248
 20
30.582508385404445
 10
283.24221537910023
 20
30.082561314329006
 10
283.4921486218981
 20
29.582628071531154
 10
283.74319527946034
 20
29.081581413968898
 10
283.9938742955736
 20
28.580902397855617
 10
284.23378442130604
 20
28.090992272123195
 10
284.46642754874745
 20
27.60834914468179
  0
LWPOLYLINE
  5
3E
330
17
100
AcDbEntity
  8
0
 62
0
100
AcDbPolyline
 90
41
 70
0
 10
313.8685400327257
 20
45.705770313962795
 10
314.41664336524525
 20
46.52206593774209
 10
315.54754947028675
 20
47.93644219659219
 10
317.18422009800923
 20
49.707653382158696
 10
316.6545293172411
 20
50.34719525611607
 10
315.50568173728504
 20
51.764235127331894
 10
314.65952895484486
 20
52.859144318463485
 10
313.94320128760853
 20
53.82348452842442
 10
313.24627421699086
 20
54.77052603996007
 10
312.620035870891
 20
55.64687024390904
 10
312.084101899486
 20
56.43278514182774
 10
311.58361409507313
 20
57.1832738999149
 10
311.12565301261463
 20
57.891234982373405
 10
310.7673499425463
 20
58.49953805244175
 10
310.6081477368438
 20
58.789052215752776
 10
310.5036461194567
 20
58.59370309136759
 10
310.0896560987047
 20
57.93170052789101
 10
309.2652036984972
 20
56.85849171899209
 10
307.9217283567003
 20
55.24682408593545
 10
306.37294886909046
 20
53.414574444516994
 10
305.07058213553944
 20
51.90759640954385
 10
303.9886758168749
 20
50.82569962762246
 10
302.76378987632313
 20
49.805368244871
 10
302.73433313699746
 20
49.78214161532863
 10
302.9363357862047
 20
49.629232991101425
 10
304.00138400397816
 20
48.76873933112828
 10
305.05254624686756
 20
47.71758662498204
 10
306.39098475776234
 20
46.174536812665146
 10
307.9090206464342
 20
44.37303077018468
 10
309.0926487287096
 20
42.92121039664952
 10
309.74323390327015
 20
42.02186881339757
 10
310.15737651191273
 20
41.35971366203038
 10
310.60595561141395
 20
40.66695333541538
 10
310.64984105430165
 20
40.74010020516763
 10
311.08625386558094
 20
41.426513016446926
 10
311.46266864142933
 20
42.05292874596963
 10
311.7584850629381
 20
42.59872609399209
 10
312.0984628041796
 20
43.18880969308267
 10
312.6008765538744
 20
43.94133788369546
 10
313.25248978934803
 20
44.8409636618937
 10
313.8685400327257
 20
45.705770313962795
  0
LWPOLYLINE
  5
3F
330
17
100
AcDbEntity
  8
0
 62
0
100
AcDbPolyline
 90
98
 70
0
 10
303.7680899938158
 20
71.49879800117222
 10
303.4862992604784
 20
72.03058873450962
 10
303.0945641835741
 20
72.67232381141392
 10
302.6399538358263
 20
73.37693415916172
 10
302.24820922217884
 20
74.01867877280918
 10
301.96647094092884
 20
74.55041705405918
 10
301.7338945706896
 20
75.03299342429844
 10
301.49293826423207
 20
75.52394973075596
 10
301.24157069526234
 20
76.02531729972569
 10
301.0006668408922
 20
76.5162211540958
 10
300.76814769111195
 20
76.99874030387608
 10
300.4854152043871
 20
77.53147279060093
 10
300.09305880866566
 20
78.17383013999668
 10
299.6474826177172
 20
78.86938725745884
 10
299.27247021995106
 20
79.49450694358555
 10
298.96906159720936
 20
80.0480061653873
 10
298.6112320264391
 20
80.65391026771275
 10
298.13367198310414
 20
81.38095341956821
 10
297.60500453315296
 20
82.17530261314121
 10
297.13815282187977
 20
82.91333161628452
 10
296.78711770377674
 20
83.4927049759647
 10
296.4506842931322
 20
83.9780279282352
 10
295.8125827153734
 20
84.48709450996128
 10
294.54131959281483
 20
84.7702518585941
 10
292.7492215474657
 20
84.33129178321568
 10
291.06557248435536
 20
83.18380700385777
 10
290.00655911765614
 20
81.94725667274204
 10
289.5137665113024
 20
81.08044539725987
 10
289.24744008384266
 20
80.51827775275913
 10
288.9705226262621
 20
79.99872075355259
 10
288.5893609365038
 20
79.37243853843418
 10
288.1409633000902
 20
78.67351542747227
 10
287.74901698432484
 20
78.03134404456821
 10
287.46635220847645
 20
77.49872504508701
 10
287.23373006187
 20
77.01610051429478
 10
286.993926747661
 20
76.52629720008579
 10
286.7433049520067
 20
76.0256754044315
 10
286.49121211371937
 20
75.52358256614414
 10
286.24059985480824
 20
75.02297030723301
 10
286.0007421811632
 20
74.53311263358799
 10
285.76808951697865
 20
74.05045996940342
 10
285.4862992604784
 20
73.51866971290318
 10
285.0945641835741
 20
72.87693463599888
 10
284.63995335898915
 20
72.17232381141392
 10
284.24821828208485
 20
71.53058873450962
 10
283.96642754874745
 20
70.99879800117222
 10
283.73378442130604
 20
70.51615487373081
 10
283.4938742955736
 20
70.02624474799839
 10
283.24319527946034
 20
69.52556573188511
 10
282.9921486218981
 20
69.02451907432285
 10
282.74221537910023
 20
68.524585831525
 10
282.5065142762078
 20
68.05313371354931
 10
282.742368443828
 20
67.58240824960123
 10
282.99231122336903
 20
67.08246547006021
 10
283.24220584235707
 20
66.58257085107218
 10
283.49215815864125
 20
66.082618534788
 10
283.74314950309315
 20
65.58162719033609
 10
283.99380896888295
 20
65.08096677087198
 10
284.2345130284838
 20
64.59028178475748
 10
284.46744845710316
 20
64.10724049828897
 10
284.7443253835253
 20
63.580249130948886
 10
285.12308953605213
 20
62.95346957467446
 10
285.5597207387499
 20
62.26813823006997
 10
285.99699519477406
 20
61.562375366910786
 10
286.62522385917225
 20
60.65017873071085
 10
287.73720906577626
 20
59.33971482537636
 10
289.1609179814867
 20
57.92189389489541
 10
290.2706811269335
 20
56.95839720986733
 10
290.83479569755116
 20
56.55797988198648
 10
291.4389917691759
 20
56.370289623960346
 10
292.7139236768297
 20
56.20635300897012
 10
294.45860694251576
 20
56.18689233086953
 10
295.96901963553944
 20
56.40065318368325
 10
296.98152182899037
 20
56.7837265136088
 10
297.78458474479237
 20
57.28444319985756
 10
298.62430308661976
 20
57.946960270627834
 10
299.48151610694447
 20
58.81547337792763
 10
300.2832395871691
 20
59.82573205254923
 10
301.0022437413744
 20
60.82803374551186
 10
301.61837218604603
 20
61.71160346291909
 10
302.1397440274767
 20
62.48174220345864
 10
302.62338279090443
 20
63.21344882272135
 10
303.1233360608629
 20
63.96350699685465
 10
303.6405632337145
 20
64.73084050439249
 10
304.11991904578724
 20
65.46017724297892
 10
304.4955403646044
 20
66.08579951547037
 10
304.75809214911976
 20
66.59835129998575
 10
304.97400973640003
 20
67.06426888726602
 10
305.2467038472704
 20
67.58696299813639
 10
305.5020623411606
 20
68.005029546702
 10
305.4922683080248
 20
68.02461968696323
 10
305.24224923453846
 20
68.52463876044956
 10
304.992302163463
 20
69.024585831525
 10
304.74236892066517
 20
69.52451907432285
 10
304.4913222631029
 20
70.02556573188511
 10
304.24064324698963
 20
70.52624474799839
 10
304.0007331212572
 20
71.01615487373081
 10
303.7680899938158
 20
71.49879800117222
  0
LWPOLYLINE
  5
40
330
17
100
AcDbEntity
  8
0
 62
0
100
AcDbPolyline
 90
5
 70
0
 10
0.09203673205102803
 20
50.0
 10
0.842036732051028
 20
40.0
 10
1.592036732051028
 20
50.0
 10
0.842036732051028
 20
60.0
 10
0.09203673205102803
 20
50.0
  0
LWPOLYLINE
  5
41
330
17
100
AcDbEntity
  8
0
 62
0
100
AcDbPolyline
 90
5
 70
0
 10
2.3920367320510287
 20
38.5
 10
3.1420367320510287
 20
28.5
 10
3.8920367320510287
 20
38.5
 10
3.1420367320510287
 20
48.5
 10
2.3920367320510287
 20
38.5
  0
LWPOLYLINE
  5
42
330
17
100
AcDbEntity
  8
0
 62
0
100
AcDbPolyline
 90
5
 70
0
 10
4.6920367320510294
 20
50.0
 10
5.4420367320510294
 20
40.0
 10
6.1920367320510294
 20
50.0
 10
5.4420367320510294
 20
60.0
 10
4.6920367320510294
 20
50.0
  0
LWPOLYLINE
  5
43
330
17
100
AcDbEntity
  8
0
 62
0
100
AcDbPolyline
 90
5
 70
0
 10
16.19203673205103
 20
38.5
 10
16.94203673205103
 20
28.5
 10
17.69203673205103
 20
38.5
 10
16.94203673205103
 20
48.5
 10
16.19203673205103
 20
38.5
  0
LWPOLYLINE
  5
44
330
17
100
AcDbEntity
  8
0
 62
0
100
AcDbPolyline
 90
5
 70
0
 10
13.892036732051029
 20
50.0
 10
14.642036732051029
 20
40.0
 10
15.392036732051029
 20
50.0
 10
14.642036732051029
 20
60.0
 10
13.892036732051029
 20
50.0
  0
LWPOLYLINE
  5
45
330
17
100
AcDbEntity
  8
0
 62
0
100
AcDbPolyline
 90
5
 70
0
 10
9.292036732051027
 20
50.0
 10
10.042036732051027
 20
40.0
 10
10.792036732051027
 20
50.0
 10
10.042036732051027
 20
60.0
 10
9.292036732051027
 20
50.0
  0
LWPOLYLINE
  5
46
330
17
100
AcDbEntity
  8
0
 62
0
100
AcDbPolyline
 90
5
 70
0
 10
16.19203673205103
 20
61.5
 10
16.94203673205103
 20
51.5
 10
17.69203673205103
 20
61.5
 10
16.94203673205103
 20
71.5
 10
16.19203673205103
 20
61.5
  0
LWPOLYLINE
  5
47
330
17
100
AcDbEntity
  8
0
 62
0
100
AcDbPolyline
 90
5
 70
0
 10
23.092036732051028
 20
27.0
 10
23.842036732051028
 20
17.0
 10
24.592036732051028
 20
27.0
 10
23.842036732051028
 20
37.0
 10
23.092036732051028
 20
27.0
  0
LWPOLYLINE
  5
48
330
17
100
AcDbEntity
  8
0
 62
0
100
AcDbPolyline
 90
5
 70
0
 10
20.792036732051027
 20
38.5
 10
21.542036732051027
 20
28.5
 10
22.292036732051027
 20
38.5
 10
21.542036732051027
 20
48.5
 10
20.792036732051027
 20
38.5
  0
LWPOLYLINE
  5
49
330
17
100
AcDbEntity
  8
0
 62
0
100
AcDbPolyline
 90
5
 70
0
 10
23.092036732051028
 20
50.0
 10
23.842036732051028
 20
40.0
 10
24.592036732051028
 20
50.0
 10
23.842036732051028
 20
60.0
 10
23.092036732051028
 20
50.0
  0
LWPOLYLINE
  5
4A
330
17
100
AcDbEntity
  8
0
 62
0
100
AcDbPolyline
 90
5
 70
0
 10
18.492036732051027
 20
50.0
 10
19.242036732051027
 20
40.0
 10
19.992036732051027
 20
50.0
 10
19.242036732051027
 20
60.0
 10
18.492036732051027
 20
50.0
  0
LWPOLYLINE
  5
4B
330
17
100
AcDbEntity
  8
0
 62
0
100
AcDbPolyline
 90
5
 70
0
 10
20.792036732051027
 20
61.5
 10
21.542036732051027
 20
51.5
 10
22.292036732051027
 20
61.5
 10
21.542036732051027
 20
71.5
 10
20.792036732051027
 20
61.5
  0
LWPOLYLINE
  5
4C
330
17
100
AcDbEntity
  8
0
 62
0
100
AcDbPolyline
 90
5
 70
0
 10
23.092036732051028
 20
73.0
 10
23.842036732051028
 20
63.0
 10
24.592036732051028
 20
73.0
 10
23.842036732051028
 20
83.0
 10
23.092036732051028
 20
73.0
  0
LWPOLYLINE
  5
4D
330
17
100
AcDbEntity
  8
0
 62
0
100
AcDbPolyline
 90
5
 70
0
 10
77.65796326794897
 20
37.0
 10
76.90796326794897
 20
27.0
 10
77.65796326794897
 20
17.0
 10
78.40796326794897
 20
27.0
 10
77.65796326794897
 20
37.0
  0
LWPOLYLINE
  5
4E
330
17
100
AcDbEntity
  8
0
 62
0
100
AcDbPolyline
 90
5
 70
0
 10
75.35796326794897
 20
48.5
 10
74.60796326794897
 20
38.5
 10
75.35796326794897
 20
28.5
 10
76.10796326794897
 20
38.5
 10
75.35796326794897
 20
48.5
  0
LWPOLYLINE
  5
4F
330
17
100
AcDbEntity
  8
0
 62
0
100
AcDbPolyline
 90
5
 70
0
 10
79.95796326794897
 20
48.5
 10
79.20796326794897
 20
38.5
 10
79.95796326794897
 20
28.5
 10
80.70796326794897
 20
38.5
 10
79.95796326794897
 20
48.5
  0
LWPOLYLINE
  5
50
330
17
100
AcDbEntity
  8
0
 62
0
100
AcDbPolyline
 90
5
 70
0
 10
82.25796326794898
 20
60.0
 10
81.50796326794898
 20
50.0
 10
82.25796326794898
 20
40.0
 10
83.00796326794898
 20
50.0
 10
82.25796326794898
 20
60.0
  0
LWPOLYLINE
  5
51
330
17
100
AcDbEntity
  8
0
 62
0
100
AcDbPolyline
 90
5
 70
0
 10
77.65796326794897
 20
60.0
 10
76.90796326794897
 20
50.0
 10
77.65796326794897
 20
40.0
 10
78.40796326794897
 20
50.0
 10
77.65796326794897
 20
60.0
  0
LWPOLYLINE
  5
52
330
17
100
AcDbEntity
  8
0
 62
0
100
AcDbPolyline
 90
5
 70
0
 10
75.35796326794897
 20
71.5
 10
74.60796326794897
 20
61.5
 10
75.35796326794897
 20
51.5
 10
76.10796326794897
 20
61.5
 10
75.35796326794897
 20
71.5
  0
LWPOLYLINE
  5
53
330
17
100
AcDbEntity
  8
0
 62
0
100
AcDbPolyline
 90
5
 70
0
 10
79.95796326794897
 20
71.5
 10
79.20796326794897
 20
61.5
 10
79.95796326794897
 20
51.5
 10
80.70796326794897
 20
61.5
 10
79.95796326794897
 20
71.5
  0
LWPOLYLINE
  5
54
330
17
100
AcDbEntity
  8
0
 62
0
100
AcDbPolyline
 90
5
 70
0
 10
77.65796326794897
 20
83.0
 10
76.90796326794897
 20
73.0
 10
77.65796326794897
 20
63.0
 10
78.40796326794897
 20
73.0
 10
77.65796326794897
 20
83.0
  0
LWPOLYLINE
  5
55
330
17
100
AcDbEntity
  8
0
 62
0
100
AcDbPolyline
 90
5
 70
0
 10
84.55796326794898
 20
48.5
 10
83.80796326794898
 20
38.5
 10
84.55796326794898
 20
28.5
 10
85.30796326794898
 20
38.5
 10
84.55796326794898
 20
48.5
  0
LWPOLYLINE
  5
56
330
17
100
AcDbEntity
  8
0
 62
0
100
AcDbPolyline
 90
5
 70
0
 10
86.85796326794897
 20
60.0
 10
86.10796326794897
 20
50.0
 10
86.85796326794897
 20
40.0
 10
87.60796326794897
 20
50.0
 10
86.85796326794897
 20
60.0
  0
LWPOLYLINE
  5
57
330
17
100
AcDbEntity
  8
0
 62
0
100
AcDbPolyline
 90
5
 70
0
 10
98.35796326794897
 20
48.5
 10
97.60796326794897
 20
38.5
 10
98.35796326794897
 20
28.5
 10
99.10796326794897
 20
38.5
 10
98.35796326794897
 20
48.5
  0
LWPOLYLINE
  5
58
330
17
100
AcDbEntity
  8
0
 62
0
100
AcDbPolyline
 90
5
 70
0
 10
96.05796326794898
 20
60.0
 10
95.30796326794898
 20
50.0
 10
96.05796326794898
 20
40.0
 10
96.80796326794898
 20
50.0
 10
96.05796326794898
 20
60.0
  0
LWPOLYLINE
  5
59
330
17
100
AcDbEntity
  8
0
 62
0
100
AcDbPolyline
 90
5
 70
0
 10
91.45796326794897
 20
60.0
 10
90.70796326794897
 20
50.0
 10
91.45796326794897
 20
40.0
 10
92.20796326794897
 20
50.0
 10
91.45796326794897
 20
60.0
  0
LWPOLYLINE
  5
5A
330
17
100
AcDbEntity
  8
0
 62
0
100
AcDbPolyline
 90
5
 70
0
 10
98.35796326794897
 20
71.5
 10
97.60796326794897
 20
61.5
 10
98.35796326794897
 20
51.5
 10
99.10796326794897
 20
61.5
 10
98.35796326794897
 20
71.5
  0
LWPOLYLINE
  5
5B
330
17
100
AcDbEntity
  8
0
 62
0
100
AcDbPolyline
 90
5
 70
0
 10
105.25796326794898
 20
37.0
 10
104.50796326794898
 20
27.0
 10
105.25796326794898
 20
17.0
 10
106.00796326794898
 20
27.0
 10
105.25796326794898
 20
37.0
  0
LWPOLYLINE
  5
5C
330
17
100
AcDbEntity
  8
0
 62
0
100
AcDbPolyline
 90
5
 70
0
 10
102.95796326794897
 20
48.5
 10
102.20796326794897
 20
38.5
 10
102.95796326794897
 20
28.5
 10
103.70796326794897
 20
38.5
 10
102.95796326794897
 20
48.5
  0
LWPOLYLINE
  5
5D
330
17
100
AcDbEntity
  8
0
 62
0
100
AcDbPolyline
 90
5
 70
0
 10
105.25796326794898
 20
60.0
 10
104.50796326794898
 20
50.0
 10
105.25796326794898
 20
40.0
 10
106.00796326794898
 20
50.0
 10
105.25796326794898
 20
60.0
  0
LWPOLYLINE
  5
5E
330
17
100
AcDbEntity
  8
0
 62
0
100
AcDbPolyline
 90
5
 70
0
 10
100.65796326794897
 20
60.0
 10
99.90796326794897
 20
50.0
 10
100.65796326794897
 20
40.0
 10
101.40796326794897
 20
50.0
 10
100.65796326794897
 20
60.0
  0
LWPOLYLINE
  5
5F
330
17
100
AcDbEntity
  8
0
 62
0
100
AcDbPolyline
 90
5
 70
0
 10
102.95796326794897
 20
71.5
 10
102.20796326794897
 20
61.5
 10
102.95796326794897
 20
51.5
 10
103.70796326794897
 20
61.5
 10
102.95796326794897
 20
71.5
  0
LWPOLYLINE
  5
60
330
17
100
AcDbEntity
  8
0
 62
0
100
AcDbPolyline
 90
5
 70
0
 10
105.25796326794898
 20
83.0
 10
104.50796326794898
 20
73.0
 10
105.25796326794898
 20
63.0
 10
106.00796326794898
 20
73.0
 10
105.25796326794898
 20
83.0
  0
LWPOLYLINE
  5
61
330
17
100
AcDbEntity
  8
0
 62
0
100
AcDbPolyline
 90
5
 70
0
 10
159.82388980384692
 20
27.0
 10
159.07388980384692
 20
37.0
 10
158.32388980384692
 20
27.0
 10
159.07388980384692
 20
17.0
 10
159.82388980384692
 20
27.0
  0
LWPOLYLINE
  5
62
330
17
100
AcDbEntity
  8
0
 62
0
100
AcDbPolyline
 90
5
 70
0
 10
157.5238898038469
 20
38.5
 10
156.7738898038469
 20
48.5
 10
156.0238898038469
 20
38.5
 10
156.7738898038469
 20
28.5
 10
157.5238898038469
 20
38.5
  0
LWPOLYLINE
  5
63
330
17
100
AcDbEntity
  8
0
 62
0
100
AcDbPolyline
 90
5
 70
0
 10
162.1238898038469
 20
38.5
 10
161.3738898038469
 20
48.5
 10
160.6238898038469
 20
38.5
 10
161.3738898038469
 20
28.5
 10
162.1238898038469
 20
38.5
  0
LWPOLYLINE
  5
64
330
17
100
AcDbEntity
  8
0
 62
0
100
AcDbPolyline
 90
5
 70
0
 10
164.42388980384692
 20
50.0
 10
163.67388980384692
 20
60.0
 10
162.92388980384692
 20
50.0
 10
163.67388980384692
 20
40.0
 10
164.42388980384692
 20
50.0
  0
LWPOLYLINE
  5
65
330
17
100
AcDbEntity
  8
0
 62
0
100
AcDbPolyline
 90
5
 70
0
 10
159.82388980384692
 20
50.0
 10
159.07388980384692
 20
60.0
 10
158.32388980384692
 20
50.0
 10
159.07388980384692
 20
40.0
 10
159.82388980384692
 20
50.0
  0
LWPOLYLINE
  5
66
330
17
100
AcDbEntity
  8
0
 62
0
100
AcDbPolyline
 90
5
 70
0
 10
157.5238898038469
 20
61.5
 10
156.7738898038469
 20
71.5
 10
156.0238898038469
 20
61.5
 10
156.7738898038469
 20
51.5
 10
157.5238898038469
 20
61.5
  0
LWPOLYLINE
  5
67
330
17
100
AcDbEntity
  8
0
 62
0
100
AcDbPolyline
 90
5
 70
0
 10
162.1238898038469
 20
61.5
 10
161.3738898038469
 20
71.5
 10
160.6238898038469
 20
61.5
 10
161.3738898038469
 20
51.5
 10
162.1238898038469
 20
61.5
  0
LWPOLYLINE
  5
68
330
17
100
AcDbEntity
  8
0
 62
0
100
AcDbPolyline
 90
5
 70
0
 10
159.82388980384692
 20
73.0
 10
159.07388980384692
 20
83.0
 10
158.32388980384692
 20
73.0
 10
159.07388980384692
 20
63.0
 10
159.82388980384692
 20
73.0
  0
LWPOLYLINE
  5
69
330
17
100
AcDbEntity
  8
0
 62
0
100
AcDbPolyline
 90
5
 70
0
 10
166.7238898038469
 20
38.5
 10
165.9738898038469
 20
48.5
 10
165.2238898038469
 20
38.5
 10
165.9738898038469
 20
28.5
 10
166.7238898038469
 20
38.5
  0
LWPOLYLINE
  5
6A
330
17
100
AcDbEntity
  8
0
 62
0
100
AcDbPolyline
 90
5
 70
0
 10
169.0238898038469
 20
50.0
 10
168.2738898038469
 20
60.0
 10
167.5238898038469
 20
50.0
 10
168.2738898038469
 20
40.0
 10
169.0238898038469
 20
50.0
  0
LWPOLYLINE
  5
6B
330
17
100
AcDbEntity
  8
0
 62
0
100
AcDbPolyline
 90
5
 70
0
 10
180.5238898038469
 20
38.5
 10
179.7738898038469
 20
48.5
 10
179.0238898038469
 20
38.5
 10
179.7738898038469
 20
28.5
 10
180.5238898038469
 20
38.5
  0
LWPOLYLINE
  5
6C
330
17
100
AcDbEntity
  8
0
 62
0
100
AcDbPolyline
 90
5
 70
0
 10
178.2238898038469
 20
50.0
 10
177.4738898038469
 20
60.0
 10
176.7238898038469
 20
50.0
 10
177.4738898038469
 20
40.0
 10
178.2238898038469
 20
50.0
  0
LWPOLYLINE
  5
6D
330
17
100
AcDbEntity
  8
0
 62
0
100
AcDbPolyline
 90
5
 70
0
 10
173.6238898038469
 20
50.0
 10
172.8738898038469
 20
60.0
 10
172.1238898038469
 20
50.0
 10
172.8738898038469
 20
40.0
 10
173.6238898038469
 20
50.0
  0
LWPOLYLINE
  5
6E
330
17
100
AcDbEntity
  8
0
 62
0
100
AcDbPolyline
 90
5
 70
0
 10
180.5238898038469
 20
61.5
 10
179.7738898038469
 20
71.5
 10
179.0238898038469
 20
61.5
 10
179.7738898038469
 20
51.5
 10
180.5238898038469
 20
61.5
  0
LWPOLYLINE
  5
6F
330
17
100
AcDbEntity
  8
0
 62
0
100
AcDbPolyline
 90
5
 70
0
 10
187.42388980384692
 20
27.0
 10
186.67388980384692
 20
37.0
 10
185.92388980384692
 20
27.0
 10
186.67388980384692
 20
17.0
 10
187.42388980384692
 20
27.0
  0
LWPOLYLINE
  5
70
330
17
100
AcDbEntity
  8
0
 62
0
100
AcDbPolyline
 90
5
 70
0
 10
185.1238898038469
 20
38.5
 10
184.3738898038469
 20
48.5
 10
183.6238898038469
 20
38.5
 10
184.3738898038469
 20
28.5
 10
185.1238898038469
 20
38.5
  0
LWPOLYLINE
  5
71
330
17
100
AcDbEntity
  8
0
 62
0
100
AcDbPolyline
 90
5
 70
0
 10
187.42388980384692
 20
50.0
 10
186.67388980384692
 20
60.0
 10
185.92388980384692
 20
50.0
 10
186.67388980384692
 20
40.0
 10
187.42388980384692
 20
50.0
  0
LWPOLYLINE
  5
72
330
17
100
AcDbEntity
  8
0
 62
0
100
AcDbPolyline
 90
5
 70
0
 10
182.8238898038469
 20
50.0
 10
182.0738898038469
 20
60.0
 10
181.3238898038469
 20
50.0
 10
182.0738898038469
 20
40.0
 10
182.8238898038469
 20
50.0
  0
LWPOLYLINE
  5
73
330
17
100
AcDbEntity
  8
0
 62
0
100
AcDbPolyline
 90
5
 70
0
 10
185.1238898038469
 20
61.5
 10
184.3738898038469
 20
71.5
 10
183.6238898038469
 20
61.5
 10
184.3738898038469
 20
51.5
 10
185.1238898038469
 20
61.5
  0
LWPOLYLINE
  5
74
330
17
100
AcDbEntity
  8
0
 62
0
100
AcDbPolyline
 90
5
 70
0
 10
187.42388980384692
 20
73.0
 10
186.67388980384692
 20
83.0
 10
185.92388980384692
 20
73.0
 10
186.67388980384692
 20
63.0
 10
187.42388980384692
 20
73.0
  0
LWPOLYLINE
  5
75
330
17
100
AcDbEntity
  8
0
 62
0
100
AcDbPolyline
 90
5
 70
0
 10
240.48981633974486
 20
17.0
 10
241.23981633974486
 20
27.0
 10
240.48981633974486
 20
37.0
 10
239.73981633974486
 20
27.0
 10
240.48981633974486
 20
17.0
  0
LWPOLYLINE
  5
76
330
17
100
AcDbEntity
  8
0
 62
0
100
AcDbPolyline
 90
5
 70
0
 10
238.18981633974485
 20
28.5
 10
238.93981633974485
 20
38.5
 10
238.18981633974485
 20
48.5
 10
237.43981633974485
 20
38.5
 10
238.18981633974485
 20
28.5
  0
LWPOLYLINE
  5
77
330
17
100
AcDbEntity
  8
0
 62
0
100
AcDbPolyline
 90
5
 70
0
 10
242.78981633974485
 20
28.5
 10
243.53981633974485
 20
38.5
 10
242.78981633974485
 20
48.5
 10
242.03981633974485
 20
38.5
 10
242.78981633974485
 20
28.5
  0
LWPOLYLINE
  5
78
330
17
100
AcDbEntity
  8
0
 62
0
100
AcDbPolyline
 90
5
 70
0
 10
245.08981633974486
 20
40.0
 10
245.83981633974486
 20
50.0
 10
245.08981633974486
 20
60.0
 10
244.33981633974486
 20
50.0
 10
245.08981633974486
 20
40.0
  0
LWPOLYLINE
  5
79
330
17
100
AcDbEntity
  8
0
 62
0
100
AcDbPolyline
 90
5
 70
0
 10
240.48981633974486
 20
40.0
 10
241.23981633974486
 20
50.0
 10
240.48981633974486
 20
60.0
 10
239.73981633974486
 20
50.0
 10
240.48981633974486
 20
40.0
  0
LWPOLYLINE
  5
7A
330
17
100
AcDbEntity
  8
0
 62
0
100
AcDbPolyline
 90
5
 70
0
 10
238.18981633974485
 20
51.5
 10
238.93981633974485
 20
61.5
 10
238.18981633974485
 20
71.5
 10
237.43981633974485
 20
61.5
 10
238.18981633974485
 20
51.5
  0
LWPOLYLINE
  5
7B
330
17
100
AcDbEntity
  8
0
 62
0
100
AcDbPolyline
 90
5
 70
0
 10
242.78981633974485
 20
51.5
 10
243.53981633974485
 20
61.5
 10
242.78981633974485
 20
71.5
 10
242.03981633974485
 20
61.5
 10
242.78981633974485
 20
51.5
  0
LWPOLYLINE
  5
7C
330
17
100
AcDbEntity
  8
0
 62
0
100
AcDbPolyline
 90
5
 70
0
 10
240.48981633974486
 20
63.0
 10
241.23981633974486
 20
73.0
 10
240.48981633974486
 20
83.0
 10
239.73981633974486
 20
73.0
 10
240.48981633974486
 20
63.0
  0
LWPOLYLINE
  5
7D
330
17
100
AcDbEntity
  8
0
 62
0
100
AcDbPolyline
 90
5
 70
0
 10
247.38981633974484
 20
28.5
 10
248.13981633974484
 20
38.5
 10
247.38981633974484
 20
48.5
 10
246.63981633974484
 20
38.5
 10
247.38981633974484
 20
28.5
  0
LWPOLYLINE
  5
7E
330
17
100
AcDbEntity
  8
0
 62
0
100
AcDbPolyline
 90
5
 70
0
 10
249.68981633974485
 20
40.0
 10
250.43981633974485
 20
50.0
 10
249.68981633974485
 20
60.0
 10
248.93981633974485
 20
50.0
 10
249.68981633974485
 20
40.0
  0
LWPOLYLINE
  5
7F
330
17
100
AcDbEntity
  8
0
 62
0
100
AcDbPolyline
 90
5
 70
0
 10
261.1898163397449
 20
28.5
 10
261.9398163397449
 20
38.5
 10
261.1898163397449
 20
48.5
 10
260.4398163397449
 20
38.5
 10
261.1898163397449
 20
28.5
  0
LWPOLYLINE
  5
80
330
17
100
AcDbEntity
  8
0
 62
0
100
AcDbPolyline
 90
5
 70
0
 10
258.8898163397448
 20
40.0
 10
259.6398163397448
 20
50.0
 10
258.8898163397448
 20
60.0
 10
258.1398163397448
 20
50.0
 10
258.8898163397448
 20
40.0
  0
LWPOLYLINE
  5
81
330
17
100
AcDbEntity
  8
0
 62
0
100
AcDbPolyline
 90
5
 70
0
 10
254.28981633974485
 20
40.0
 10
255.03981633974485
 20
50.0
 10
254.28981633974485
 20
60.0
 10
253.53981633974485
 20
50.0
 10
254.28981633974485
 20
40.0
  0
LWPOLYLINE
  5
82
330
17
100
AcDbEntity
  8
0
 62
0
100
AcDbPolyline
 90
5
 70
0
 10
261.1898163397449
 20
51.5
 10
261.9398163397449
 20
61.5
 10
261.1898163397449
 20
71.5
 10
260.4398163397449
 20
61.5
 10
261.1898163397449
 20
51.5
  0
LWPOLYLINE
  5
83
330
17
100
AcDbEntity
  8
0
 62
0
100
AcDbPolyline
 90
5
 70
0
 10
268.08981633974486
 20
17.0
 10
268.83981633974486
 20
27.0
 10
268.08981633974486
 20
37.0
 10
267.33981633974486
 20
27.0
 10
268.08981633974486
 20
17.0
  0
LWPOLYLINE
  5
84
330
17
100
AcDbEntity
  8
0
 62
0
100
AcDbPolyline
 90
5
 70
0
 10
265.78981633974485
 20
28.5
 10
266.53981633974485
 20
38.5
 10
265.78981633974485
 20
48.5
 10
265.03981633974485
 20
38.5
 10
265.78981633974485
 20
28.5
  0
LWPOLYLINE
  5
85
330
17
100
AcDbEntity
  8
0
 62
0
100
AcDbPolyline
 90
5
 70
0
 10
268.08981633974486
 20
40.0
 10
268.83981633974486
 20
50.0
 10
268.08981633974486
 20
60.0
 10
267.33981633974486
 20
50.0
 10
268.08981633974486
 20
40.0
  0
LWPOLYLINE
  5
86
330
17
100
AcDbEntity
  8
0
 62
0
100
AcDbPolyline
 90
5
 70
0
 10
263.48981633974483
 20
40.0
 10
264.23981633974483
 20
50.0
 10
263.48981633974483
 20
60.0
 10
262.73981633974483
 20
50.0
 10
263.48981633974483
 20
40.0
  0
LWPOLYLINE
  5
87
330
17
100
AcDbEntity
  8
0
 62
0
100
AcDbPolyline
 90
5
 70
0
 10
265.78981633974485
 20
51.5
 10
266.53981633974485
 20
61.5
 10
265.78981633974485
 20
71.5
 10
265.03981633974485
 20
61.5
 10
265.78981633974485
 20
51.5
  0
LWPOLYLINE
  5
88
330
17
100
AcDbEntity
  8
0
 62
0
100
AcDbPolyline
 90
5
 70
0
 10
268.08981633974486
 20
63.0
 10
268.83981633974486
 20
73.0
 10
268.08981633974486
 20
83.0
 10
267.33981633974486
 20
73.0
 10
268.08981633974486
 20
63.0
  0
LWPOLYLINE
  5
89
330
17
100
AcDbEntity
  8
0
 62
0
100
AcDbPolyline
 90
5
 70
0
 10
321.1557428756428
 20
27.0
 10
321.9057428756428
 20
17.0
 10
322.6557428756428
 20
27.0
 10
321.9057428756428
 20
37.0
 10
321.1557428756428
 20
27.0
  0
LWPOLYLINE
  5
8A
330
17
100
AcDbEntity
  8
0
 62
0
100
AcDbPolyline
 90
5
 70
0
 10
318.85574287564276
 20
38.5
 10
319.60574287564276
 20
28.5
 10
320.35574287564276
 20
38.5
 10
319.60574287564276
 20
48.5
 10
318.85574287564276
 20
38.5
  0
LWPOLYLINE
  5
8B
330
17
100
AcDbEntity
  8
0
 62
0
100
AcDbPolyline
 90
5
 70
0
 10
323.4557428756428
 20
38.5
 10
324.2057428756428
 20
28.5
 10
324.9557428756428
 20
38.5
 10
324.2057428756428
 20
48.5
 10
323.4557428756428
 20
38.5
  0
LWPOLYLINE
  5
8C
330
17
100
AcDbEntity
  8
0
 62
0
100
AcDbPolyline
 90
5
 70
0
 10
321.1557428756428
 20
50.0
 10
321.9057428756428
 20
40.0
 10
322.6557428756428
 20
50.0
 10
321.9057428756428
 20
60.0
 10
321.1557428756428
 20
50.0
  0
LWPOLYLINE
  5
8D
330
17
100
AcDbEntity
  8
0
 62
0
100
AcDbPolyline
 90
5
 70
0
 10
318.85574287564276
 20
61.5
 10
319.60574287564276
 20
51.5
 10
320.35574287564276
 20
61.5
 10
319.60574287564276
 20
71.5
 10
318.85574287564276
 20
61.5
  0
LWPOLYLINE
  5
8E
330
17
100
AcDbEntity
  8
0
 62
0
100
AcDbPolyline
 90
5
 70
0
 10
323.4557428756428
 20
61.5
 10
324.2057428756428
 20
51.5
 10
324.9557428756428
 20
61.5
 10
324.2057428756428
 20
71.5
 10
323.4557428756428
 20
61.5
  0
LWPOLYLINE
  5
8F
330
17
100
AcDbEntity
  8
0
 62
0
100
AcDbPolyline
 90
5
 70
0
 10
321.1557428756428
 20
73.0
 10
321.9057428756428
 20
63.0
 10
322.6557428756428
 20
73.0
 10
321.9057428756428
 20
83.0
 10
321.1557428756428
 20
73.0
  0
ENDSEC
  0
SECTION
  2
OBJECTS
  0
DICTIONARY
  5
A
330
0
100
AcDbDictionary
280
0
281
1
  3
ACAD_COLOR
350
B
  3
ACAD_GROUP
350
C
  3
ACAD_LAYOUT
350
D
  3
ACAD_MATERIAL
350
E
  3
ACAD_MLEADERSTYLE
350
F
  3
ACAD_MLINESTYLE
350
10
  3
ACAD_PLOTSETTINGS
350
11
  3
ACAD_PLOTSTYLENAME
350
12
  3
ACAD_SCALELIST
350
14
  3
ACAD_TABLESTYLE
350
15
  3
ACAD_VISUALSTYLE
350
16
  3
EZDXF_META
350
2D
  0
DICTIONARY
  5
B
330
A
100
AcDbDictionary
280
0
281
1
  0
DICTIONARY
  5
C
330
A
100
AcDbDictionary
280
0
281
1
  0
DICTIONARY
  5
D
330
A
100
AcDbDictionary
280
0
281
1
  3
Model
350
1A
  3
Layout1
350
1E
  0
DICTIONARY
  5
E
330
A
100
AcDbDictionary
280
0
281
1
  3
ByBlock
350
1F
  3
ByLayer
350
20
  3
Global
350
21
  0
DICTIONARY
  5
F
330
A
100
AcDbDictionary
280
0
281
1
  3
Standard
350
2C
  0
DICTIONARY
  5
10
330
A
100
AcDbDictionary
280
0
281
1
  3
Standard
350
22
  0
DICTIONARY
  5
11
330
A
100
AcDbDictionary
280
0
281
1
  0
ACDBDICTIONARYWDFLT
  5
12
330
A
100
AcDbDictionary
280
0
281
1
  3
Normal
350
13
100
AcDbDictionaryWithDefault
340
13
  0
ACDBPLACEHOLDER
  5
13
330
12
  0
DICTIONARY
  5
14
330
A
100
AcDbDictionary
280
0
281
1
  0
DICTIONARY
  5
15
330
A
100
AcDbDictionary
280
0
281
1
  0
DICTIONARY
  5
16
330
A
100
AcDbDictionary
280
0
281
1
  0
LAYOUT
  5
1A
330
D
100
AcDbPlotSettings
  1

  2
Adobe PDF
  4
A3
  6

 40
7.5
 41
20.0
 42
7.5
 43
20.0
 44
420.0
 45
297.0
 46
0.0
 47
0.0
 48
0.0
 49
0.0
140
0.0
141
0.0
142
1.0
143
1.0
 70
1024
 72
1
 73
0
 74
5
  7

 75
16
 76
0
 77
2
 78
300
147
1.0
148
0.0
149
0.0
100
AcDbLayout
  1
Model
 70
1
 71
0
 10
0.0
 20
0.0
 11
420.0
 21
297.0
 12
0.0
 22
0.0
 32
0.0
 14
1e+20
 24
1e+20
 34
1e+20
 15
-1e+20
 25
-1e+20
 35
-1e+20
146
0.0
 13
0.0
 23
0.0
 33
0.0
 16
1.0
 26
0.0
 36
0.0
 17
0.0
 27
1.0
 37
0.0
 76
1
330
17
  0
LAYOUT
  5
1E
330
D
100
AcDbPlotSettings
  1

  2
Adobe PDF
  4
A3
  6

 40
7.5
 41
20.0
 42
7.5
 43
20.0
 44
420.0
 45
297.0
 46
0.0
 47
0.0
 48
0.0
 49
0.0
140
0.0
141
0.0
142
1.0
143
1.0
 70
0
 72
1
 73
0
 74
5
  7

 75
16
 76
0
 77
2
 78
300
147
1.0
148
0.0
149
0.0
100
AcDbLayout
  1
Layout1
 70
1
 71
1
 10
0.0
 20
0.0
 11
420.0
 21
297.0
 12
0.0
 22
0.0
 32
0.0
 14
1e+20
 24
1e+20
 34
1e+20
 15
-1e+20
 25
-1e+20
 35
-1e+20
146
0.0
 13
0.0
 23
0.0
 33
0.0
 16
1.0
 26
0.0
 36
0.0
 17
0.0
 27
1.0
 37
0.0
 76
1
330
1B
  0
MATERIAL
  5
1F
102
{ACAD_REACTORS
330
E
102
}
330
E
100
AcDbMaterial
  1
ByBlock
  2

 70
0
 40
1.0
 71
1
 41
1.0
 91
-1023410177
 42
1.0
 72
1
  3

 73
1
 74
1
 75
1
 44
0.5
 73
0
 45
1.0
 46
1.0
 77
1
  4

 78
1
 79
1
170
1
 48
1.0
171
1
  6

172
1
173
1
174
1
140
1.0
141
1.0
175
1
  7

176
1
177
1
178
1
143
1.0
179
1
  8

270
1
271
1
272
1
145
1.0
146
1.0
273
1
  9

274
1
275
1
276
1
 42
1.0
 72
1
  3

 73
1
 74
1
 75
1
 94
63
  0
MATERIAL
  5
20
102
{ACAD_REACTORS
330
E
102
}
330
E
100
AcDbMaterial
  1
ByLayer
  2

 70
0
 40
1.0
 71
1
 41
1.0
 91
-1023410177
 42
1.0
 72
1
  3

 73
1
 74
1
 75
1
 44
0.5
 73
0
 45
1.0
 46
1.0
 77
1
  4

 78
1
 79
1
170
1
 48
1.0
171
1
  6

172
1
173
1
174
1
140
1.0
141
1.0
175
1
  7

176
1
177
1
178
1
143
1.0
179
1
  8

270
1
271
1
272
1
145
1.0
146
1.0
273
1
  9

274
1
275
1
276
1
 42
1.0
 72
1
  3

 73
1
 74
1
 75
1
 94
63
  0
MATERIAL
  5
21
102
{ACAD_REACTORS
330
E
102
}
330
E
100
AcDbMaterial
  1
Global
  2

 70
0
 40
1.0
 71
1
 41
1.0
 91
-1023410177
 42
1.0
 72
1
  3

 73
1
 74
1
 75
1
 44
0.5
 73
0
 45
1.0
 46
1.0
 77
1
  4

 78
1
 79
1
170
1
 48
1.0
171
1
  6

172
1
173
1
174
1
140
1.0
141
1.0
175
1
  7

176
1
177
1
178
1
143
1.0
179
1
  8

270
1
271
1
272
1
145
1.0
146
1.0
273
1
  9

274
1
275
1
276
1
 42
1.0
 72
1
  3

 73
1
 74
1
 75
1
 94
63
  0
MLINESTYLE
  5
22
102
{ACAD_REACTORS
330
10
102
}
330
10
100
AcDbMlineStyle
  2
Standard
 70
0
  3

 62
256
 51
90.0
 52
90.0
 71
2
 49
0.5
 62
256
  6
BYLAYER
 49
-0.5
 62
256
  6
BYLAYER
  0
MLEADERSTYLE
  5
2C
102
{ACAD_REACTORS
330
F
102
}
330
F
100
AcDbMLeaderStyle
179
2
170
2
171
1
172
0
 90
2
 40
0.0
 41
0.0
173
1
 91
-1056964608
 92
-2
290
1
 42
2.0
291
1
 43
8.0
  3
Standard
 44
4.0
300

342
29
174
1
175
1
176
0
178
1
 93
-1056964608
 45
4.0
292
0
297
0
 46
4.0
 94
-1056964608
 47
1.0
 49
1.0
140
1.0
294
1
141
0.0
177
0
142
1.0
295
0
296
0
143
3.75
271
0
272
9
273
9
  0
DICTIONARY
  5
2D
330
A
100
AcDbDictionary
281
1
  3
CREATED_BY_EZDXF
350
2E
  3
WRITTEN_BY_EZDXF
350
92
  0
DICTIONARYVAR
  5
2E
330
2D
100
DictionaryVariables
280
0
  1
1.1.1 @ 2023-10-25T16:09:17.281005+00:00
  0
DICTIONARYVAR
  5
92
330
2D
100
DictionaryVariables
280
0
  1
1.1.1 @ 2023-10-25T16:09:17.306917+00:00
  0
ENDSEC
  0
EOF
