  0
SECTION
  2
HEADER
  9
$ACADVER
  1
AC1032
  9
$ACADMAINTVER
 90
4
  9
$DWGCODEPAGE
  3
ANSI_1252
  9
$LASTSAVEDBY
  1
ezdxf
  9
$REQUIREDVERSIONS
160
0
  9
$INSBASE
 10
0.0
 20
0.0
 30
0.0
  9
$EXTMIN
 10
1e+20
 20
1e+20
 30
1e+20
  9
$EXTMAX
 10
-1e+20
 20
-1e+20
 30
-1e+20
  9
$LIMMIN
 10
0.0
 20
0.0
  9
$LIMMAX
 10
420.0
 20
297.0
  9
$ORTHOMODE
 70
0
  9
$REGENMODE
 70
1
  9
$FILLMODE
 70
1
  9
$QTEXTMODE
 70
0
  9
$MIRRTEXT
 70
1
  9
$LTSCALE
 40
1.0
  9
$ATTMODE
 70
1
  9
$TEXTSIZE
 40
2.5
  9
$TRACEWID
 40
1.0
  9
$TEXTSTYLE
  7
Standard
  9
$CLAYER
  8
0
  9
$CELTYPE
  6
ByLayer
  9
$CECOLOR
 62
256
  9
$CELTSCALE
 40
1.0
  9
$DISPSILH
 70
0
  9
$DIMSCALE
 40
1.0
  9
$DIMASZ
 40
2.5
  9
$DIMEXO
 40
0.625
  9
$DIMDLI
 40
3.75
  9
$DIMRND
 40
0.0
  9
$DIMDLE
 40
0.0
  9
$DIMEXE
 40
1.25
  9
$DIMTP
 40
0.0
  9
$DIMTM
 40
0.0
  9
$DIMTXT
 40
2.5
  9
$DIMCEN
 40
2.5
  9
$DIMTSZ
 40
0.0
  9
$DIMTOL
 70
0
  9
$DIMLIM
 70
0
  9
$DIMTIH
 70
0
  9
$DIMTOH
 70
0
  9
$DIMSE1
 70
0
  9
$DIMSE2
 70
0
  9
$DIMTAD
 70
1
  9
$DIMZIN
 70
8
  9
$DIMBLK
  1

  9
$DIMASO
 70
1
  9
$DIMSHO
 70
1
  9
$DIMPOST
  1

  9
$DIMAPOST
  1

  9
$DIMALT
 70
0
  9
$DIMALTD
 70
3
  9
$DIMALTF
 40
0.03937007874
  9
$DIMLFAC
 40
1.0
  9
$DIMTOFL
 70
1
  9
$DIMTVP
 40
0.0
  9
$DIMTIX
 70
0
  9
$DIMSOXD
 70
0
  9
$DIMSAH
 70
0
  9
$DIMBLK1
  1

  9
$DIMBLK2
  1

  9
$DIMSTYLE
  2
ISO-25
  9
$DIMCLRD
 70
0
  9
$DIMCLRE
 70
0
  9
$DIMCLRT
 70
0
  9
$DIMTFAC
 40
1.0
  9
$DIMGAP
 40
0.625
  9
$DIMJUST
 70
0
  9
$DIMSD1
 70
0
  9
$DIMSD2
 70
0
  9
$DIMTOLJ
 70
0
  9
$DIMTZIN
 70
8
  9
$DIMALTZ
 70
0
  9
$DIMALTTZ
 70
0
  9
$DIMUPT
 70
0
  9
$DIMDEC
 70
2
  9
$DIMTDEC
 70
2
  9
$DIMALTU
 70
2
  9
$DIMALTTD
 70
3
  9
$DIMTXSTY
  7
Standard
  9
$DIMAUNIT
 70
0
  9
$DIMADEC
 70
0
  9
$DIMALTRND
 40
0.0
  9
$DIMAZIN
 70
0
  9
$DIMDSEP
 70
44
  9
$DIMATFIT
 70
3
  9
$DIMFRAC
 70
0
  9
$DIMLDRBLK
  1

  9
$DIMLUNIT
 70
2
  9
$DIMLWD
 70
-2
  9
$DIMLWE
 70
-2
  9
$DIMTMOVE
 70
0
  9
$DIMFXL
 40
1.0
  9
$DIMFXLON
 70
0
  9
$DIMJOGANG
 40
0.785398163397
  9
$DIMTFILL
 70
0
  9
$DIMTFILLCLR
 70
0
  9
$DIMARCSYM
 70
0
  9
$DIMLTYPE
  6

  9
$DIMLTEX1
  6

  9
$DIMLTEX2
  6

  9
$DIMTXTDIRECTION
 70
0
  9
$LUNITS
 70
2
  9
$LUPREC
 70
4
  9
$SKETCHINC
 40
1.0
  9
$FILLETRAD
 40
10.0
  9
$AUNITS
 70
0
  9
$AUPREC
 70
2
  9
$MENU
  1
.
  9
$ELEVATION
 40
0.0
  9
$PELEVATION
 40
0.0
  9
$THICKNESS
 40
0.0
  9
$LIMCHECK
 70
0
  9
$CHAMFERA
 40
0.0
  9
$CHAMFERB
 40
0.0
  9
$CHAMFERC
 40
0.0
  9
$CHAMFERD
 40
0.0
  9
$SKPOLY
 70
0
  9
$TDCREATE
 40
2460253.6201273147
  9
$TDUCREATE
 40
2458532.153996898
  9
$TDUPDATE
 40
2460253.6201273147
  9
$TDUUPDATE
 40
2458532.1544311
  9
$TDINDWG
 40
0.0
  9
$TDUSRTIMER
 40
0.0
  9
$USRTIMER
 70
1
  9
$ANGBASE
 50
0.0
  9
$ANGDIR
 70
0
  9
$PDMODE
 70
0
  9
$PDSIZE
 40
0.0
  9
$PLINEWID
 40
0.0
  9
$SPLFRAME
 70
0
  9
$SPLINETYPE
 70
6
  9
$SPLINESEGS
 70
8
  9
$HANDSEED
  5
97
  9
$SURFTAB1
 70
6
  9
$SURFTAB2
 70
6
  9
$SURFTYPE
 70
6
  9
$SURFU
 70
6
  9
$SURFV
 70
6
  9
$UCSBASE
  2

  9
$UCSNAME
  2

  9
$UCSORG
 10
0.0
 20
0.0
 30
0.0
  9
$UCSXDIR
 10
1.0
 20
0.0
 30
0.0
  9
$UCSYDIR
 10
0.0
 20
1.0
 30
0.0
  9
$UCSORTHOREF
  2

  9
$UCSORTHOVIEW
 70
0
  9
$UCSORGTOP
 10
0.0
 20
0.0
 30
0.0
  9
$UCSORGBOTTOM
 10
0.0
 20
0.0
 30
0.0
  9
$UCSORGLEFT
 10
0.0
 20
0.0
 30
0.0
  9
$UCSORGRIGHT
 10
0.0
 20
0.0
 30
0.0
  9
$UCSORGFRONT
 10
0.0
 20
0.0
 30
0.0
  9
$UCSORGBACK
 10
0.0
 20
0.0
 30
0.0
  9
$PUCSBASE
  2

  9
$PUCSNAME
  2

  9
$PUCSORG
 10
0.0
 20
0.0
 30
0.0
  9
$PUCSXDIR
 10
1.0
 20
0.0
 30
0.0
  9
$PUCSYDIR
 10
0.0
 20
1.0
 30
0.0
  9
$PUCSORTHOREF
  2

  9
$PUCSORTHOVIEW
 70
0
  9
$PUCSORGTOP
 10
0.0
 20
0.0
 30
0.0
  9
$PUCSORGBOTTOM
 10
0.0
 20
0.0
 30
0.0
  9
$PUCSORGLEFT
 10
0.0
 20
0.0
 30
0.0
  9
$PUCSORGRIGHT
 10
0.0
 20
0.0
 30
0.0
  9
$PUCSORGFRONT
 10
0.0
 20
0.0
 30
0.0
  9
$PUCSORGBACK
 10
0.0
 20
0.0
 30
0.0
  9
$USERI1
 70
0
  9
$USERI2
 70
0
  9
$USERI3
 70
0
  9
$USERI4
 70
0
  9
$USERI5
 70
0
  9
$USERR1
 40
0.0
  9
$USERR2
 40
0.0
  9
$USERR3
 40
0.0
  9
$USERR4
 40
0.0
  9
$USERR5
 40
0.0
  9
$WORLDVIEW
 70
1
  9
$SHADEDGE
 70
3
  9
$SHADEDIF
 70
70
  9
$TILEMODE
 70
1
  9
$MAXACTVP
 70
64
  9
$PINSBASE
 10
0.0
 20
0.0
 30
0.0
  9
$PLIMCHECK
 70
0
  9
$PEXTMIN
 10
1e+20
 20
1e+20
 30
1e+20
  9
$PEXTMAX
 10
-1e+20
 20
-1e+20
 30
-1e+20
  9
$PLIMMIN
 10
0.0
 20
0.0
  9
$PLIMMAX
 10
420.0
 20
297.0
  9
$UNITMODE
 70
0
  9
$VISRETAIN
 70
1
  9
$PLINEGEN
 70
0
  9
$PSLTSCALE
 70
1
  9
$TREEDEPTH
 70
3020
  9
$CMLSTYLE
  2
Standard
  9
$CMLJUST
 70
0
  9
$CMLSCALE
 40
20.0
  9
$PROXYGRAPHICS
 70
1
  9
$MEASUREMENT
 70
1
  9
$CELWEIGHT
370
-1
  9
$ENDCAPS
280
0
  9
$JOINSTYLE
280
0
  9
$LWDISPLAY
290
0
  9
$INSUNITS
 70
4
  9
$HYPERLINKBASE
  1

  9
$STYLESHEET
  1

  9
$XEDIT
290
1
  9
$CEPSNTYPE
380
0
  9
$PSTYLEMODE
290
1
  9
$FINGERPRINTGUID
  2
{2CBA22B7-B473-4C93-9BDC-B798EFF0B548}
  9
$VERSIONGUID
  2
{789E8DEB-72E8-4CDA-BA97-D5409E873B4E}
  9
$EXTNAMES
290
1
  9
$PSVPSCALE
 40
0.0
  9
$OLESTARTUP
290
0
  9
$SORTENTS
280
127
  9
$INDEXCTL
280
0
  9
$HIDETEXT
280
1
  9
$XCLIPFRAME
280
0
  9
$HALOGAP
280
0
  9
$OBSCOLOR
 70
257
  9
$OBSLTYPE
280
0
  9
$INTERSECTIONDISPLAY
280
0
  9
$INTERSECTIONCOLOR
 70
257
  9
$DIMASSOC
280
2
  9
$PROJECTNAME
  1

  9
$CAMERADISPLAY
290
0
  9
$LENSLENGTH
 40
50.0
  9
$CAMERAHEIGHT
 40
0.0
  9
$STEPSPERSEC
 40
24.0
  9
$STEPSIZE
 40
100.0
  9
$3DDWFPREC
 40
2.0
  9
$PSOLWIDTH
 40
0.005
  9
$PSOLHEIGHT
 40
0.08
  9
$LOFTANG1
 40
1.570796326795
  9
$LOFTANG2
 40
1.570796326795
  9
$LOFTMAG1
 40
0.0
  9
$LOFTMAG2
 40
0.0
  9
$LOFTPARAM
 70
7
  9
$LOFTNORMALS
280
1
  9
$LATITUDE
 40
37.795
  9
$LONGITUDE
 40
-122.394
  9
$NORTHDIRECTION
 40
0.0
  9
$TIMEZONE
 70
-8000
  9
$LIGHTGLYPHDISPLAY
280
1
  9
$TILEMODELIGHTSYNCH
280
1
  9
$CMATERIAL
347
20
  9
$SOLIDHIST
280
0
  9
$SHOWHIST
280
1
  9
$DWFFRAME
280
2
  9
$DGNFRAME
280
2
  9
$REALWORLDSCALE
290
1
  9
$INTERFERECOLOR
 62
256
  9
$CSHADOW
280
0
  9
$SHADOWPLANELOCATION
 40
0.0
  0
ENDSEC
  0
SECTION
  2
CLASSES
  0
CLASS
  1
ACDBDICTIONARYWDFLT
  2
AcDbDictionaryWithDefault
  3
ObjectDBX Classes
 90
0
 91
0
280
0
281
0
  0
CLASS
  1
SUN
  2
AcDbSun
  3
SCENEOE
 90
1153
 91
0
280
0
281
0
  0
CLASS
  1
VISUALSTYLE
  2
AcDbVisualStyle
  3
ObjectDBX Classes
 90
4095
 91
0
280
0
281
0
  0
CLASS
  1
MATERIAL
  2
AcDbMaterial
  3
ObjectDBX Classes
 90
1153
 91
0
280
0
281
0
  0
CLASS
  1
SCALE
  2
AcDbScale
  3
ObjectDBX Classes
 90
1153
 91
0
280
0
281
0
  0
CLASS
  1
TABLESTYLE
  2
AcDbTableStyle
  3
ObjectDBX Classes
 90
4095
 91
0
280
0
281
0
  0
CLASS
  1
MLEADERSTYLE
  2
AcDbMLeaderStyle
  3
ACDB_MLEADERSTYLE_CLASS
 90
4095
 91
0
280
0
281
0
  0
CLASS
  1
DICTIONARYVAR
  2
AcDbDictionaryVar
  3
ObjectDBX Classes
 90
0
 91
0
280
0
281
0
  0
CLASS
  1
CELLSTYLEMAP
  2
AcDbCellStyleMap
  3
ObjectDBX Classes
 90
1152
 91
0
280
0
281
0
  0
CLASS
  1
MENTALRAYRENDERSETTINGS
  2
AcDbMentalRayRenderSettings
  3
SCENEOE
 90
1024
 91
0
280
0
281
0
  0
CLASS
  1
ACDBDETAILVIEWSTYLE
  2
AcDbDetailViewStyle
  3
ObjectDBX Classes
 90
1025
 91
0
280
0
281
0
  0
CLASS
  1
ACDBSECTIONVIEWSTYLE
  2
AcDbSectionViewStyle
  3
ObjectDBX Classes
 90
1025
 91
0
280
0
281
0
  0
CLASS
  1
RASTERVARIABLES
  2
AcDbRasterVariables
  3
ISM
 90
0
 91
0
280
0
281
0
  0
CLASS
  1
LAYOUT
  2
AcDbLayout
  3
ObjectDBX Classes
 90
0
 91
0
280
0
281
0
  0
CLASS
  1
ACDBPLACEHOLDER
  2
AcDbPlaceHolder
  3
ObjectDBX Classes
 90
0
 91
0
280
0
281
0
  0
ENDSEC
  0
SECTION
  2
TABLES
  0
TABLE
  2
VPORT
  5
8
330
0
100
AcDbSymbolTable
 70
1
  0
VPORT
  5
23
330
8
100
AcDbSymbolTableRecord
100
AcDbViewportTableRecord
  2
*Active
 70
0
 10
0.0
 20
0.0
 11
1.0
 21
1.0
 12
0.0
 22
0.0
 13
0.0
 23
0.0
 14
0.5
 24
0.5
 15
0.5
 25
0.5
 16
0.0
 26
0.0
 36
1.0
 17
0.0
 27
0.0
 37
0.0
 40
1000.0
 41
1.34
 42
50.0
 43
0.0
 44
0.0
 50
0.0
 51
0.0
 71
0
 72
1000
 73
1
 74
3
 75
0
 76
0
 77
0
 78
0
281
0
 65
0
146
0.0
  0
ENDTAB
  0
TABLE
  2
LTYPE
  5
2
330
0
100
AcDbSymbolTable
 70
3
  0
LTYPE
  5
24
330
2
100
AcDbSymbolTableRecord
100
AcDbLinetypeTableRecord
  2
ByBlock
 70
0
  3

 72
65
 73
0
 40
0.0
  0
LTYPE
  5
25
330
2
100
AcDbSymbolTableRecord
100
AcDbLinetypeTableRecord
  2
ByLayer
 70
0
  3

 72
65
 73
0
 40
0.0
  0
LTYPE
  5
26
330
2
100
AcDbSymbolTableRecord
100
AcDbLinetypeTableRecord
  2
Continuous
 70
0
  3

 72
65
 73
0
 40
0.0
  0
ENDTAB
  0
TABLE
  2
LAYER
  5
1
330
0
100
AcDbSymbolTable
 70
2
  0
LAYER
  5
27
330
1
100
AcDbSymbolTableRecord
100
AcDbLayerTableRecord
  2
0
 70
0
 62
7
  6
Continuous
370
-3
390
13
347
21
  0
LAYER
  5
28
330
1
100
AcDbSymbolTableRecord
100
AcDbLayerTableRecord
  2
Defpoints
 70
0
 62
7
  6
Continuous
290
0
370
-3
390
13
347
21
  0
ENDTAB
  0
TABLE
  2
STYLE
  5
5
330
0
100
AcDbSymbolTable
 70
1
  0
STYLE
  5
29
330
5
100
AcDbSymbolTableRecord
100
AcDbTextStyleTableRecord
  2
Standard
 70
0
 40
0.0
 41
1.0
 50
0.0
 71
0
 42
2.5
  3
txt
  4

  0
ENDTAB
  0
TABLE
  2
VIEW
  5
7
330
0
100
AcDbSymbolTable
 70
0
  0
ENDTAB
  0
TABLE
  2
UCS
  5
6
330
0
100
AcDbSymbolTable
 70
0
  0
ENDTAB
  0
TABLE
  2
APPID
  5
3
330
0
100
AcDbSymbolTable
 70
3
  0
APPID
  5
2A
330
3
100
AcDbSymbolTableRecord
100
AcDbRegAppTableRecord
  2
ACAD
 70
0
  0
APPID
  5
94
330
3
100
AcDbSymbolTableRecord
100
AcDbRegAppTableRecord
  2
HATCHBACKGROUNDCOLOR
 70
0
  0
APPID
  5
95
330
3
100
AcDbSymbolTableRecord
100
AcDbRegAppTableRecord
  2
EZDXF
 70
0
  0
ENDTAB
  0
TABLE
  2
DIMSTYLE
  5
4
330
0
100
AcDbSymbolTable
 70
1
100
AcDbDimStyleTable
  0
DIMSTYLE
105
2B
330
4
100
AcDbSymbolTableRecord
100
AcDbDimStyleTableRecord
  2
Standard
 70
0
 40
1.0
 41
2.5
 42
0.625
 43
3.75
 44
1.25
 45
0.0
 46
0.0
 47
0.0
 48
0.0
 49
2.5
140
2.5
141
2.5
142
0.0
143
0.03937007874
144
1.0
145
0.0
146
1.0
147
0.625
148
0.0
 69
0
 70
0
 71
0
 72
0
 73
0
 74
0
 75
0
 76
0
 77
1
 78
8
 79
3
170
0
171
3
172
1
173
0
174
0
175
0
176
0
177
0
178
0
179
2
271
2
272
2
273
2
274
3
275
0
276
0
277
2
278
44
279
0
280
0
281
0
282
0
283
0
284
8
285
0
286
0
288
0
289
3
290
0
371
-2
372
-2
  0
ENDTAB
  0
TABLE
  2
BLOCK_RECORD
  5
9
330
0
100
AcDbSymbolTable
 70
2
  0
BLOCK_RECORD
  5
17
330
9
100
AcDbSymbolTableRecord
100
AcDbBlockTableRecord
  2
*Model_Space
340
1A
 70
0
280
1
281
0
  0
BLOCK_RECORD
  5
1B
330
9
100
AcDbSymbolTableRecord
100
AcDbBlockTableRecord
  2
*Paper_Space
340
1E
 70
0
280
1
281
0
  0
ENDTAB
  0
ENDSEC
  0
SECTION
  2
BLOCKS
  0
BLOCK
  5
18
330
17
100
AcDbEntity
  8
0
100
AcDbBlockBegin
  2
*Model_Space
 70
0
 10
0.0
 20
0.0
 30
0.0
  3
*Model_Space
  1

  0
ENDBLK
  5
19
330
17
100
AcDbEntity
  8
0
100
AcDbBlockEnd
  0
BLOCK
  5
1C
330
1B
100
AcDbEntity
  8
0
100
AcDbBlockBegin
  2
*Paper_Space
 70
0
 10
0.0
 20
0.0
 30
0.0
  3
*Paper_Space
  1

  0
ENDBLK
  5
1D
330
1B
100
AcDbEntity
  8
0
100
AcDbBlockEnd
  0
ENDSEC
  0
SECTION
  2
ENTITIES
  0
LWPOLYLINE
  5
2F
330
17
100
AcDbEntity
  8
0
 62
0
100
AcDbPolyline
 90
99
 70
0
 10
-65.2768505739342
 20
-48.85586947303992
 10
-66.95518130045147
 20
-45.3073372946036
 10
-68.27761342928835
 20
-41.611387090178496
 10
-69.23141121612922
 20
-37.80361288064515
 10
-69.80738906688788
 20
-33.920685613182435
 10
-70.0
 20
-30.0
 10
-70.0
 20
-27.947255847968645
 10
-70.0
 20
-23.222734170900765
 10
-70.0
 20
-3.415109178633121
 10
-70.0
 20
0.3778071646866332
 10
-70.0
 20
9.097323226336297
 10
-70.0
 20
11.956157323483307
 10
-70.0
 20
25.010857962732977
 10
-70.0
 20
29.351735460529888
 10
-70.0
 20
30.0
 10
-69.80738906688788
 20
33.920685613182435
 10
-69.28171878607772
 20
37.46446679220527
 10
-69.23141121612922
 20
37.80361288064515
 10
-68.27761342928835
 20
41.611387090178496
 10
-66.95518130045147
 20
45.3073372946036
 10
-65.2768505739342
 20
48.85586947303992
 10
-63.25878449210181
 20
52.22280932078409
 10
-60.920418134509475
 20
55.37573136654582
 10
-58.2842712474619
 20
58.2842712474619
 10
-55.375731366545814
 20
60.92041813450948
 10
-52.22280932078408
 20
63.25878449210181
 10
-48.85586947303991
 20
65.27685057393421
 10
-45.307337294603585
 20
66.95518130045147
 10
-41.61138709017848
 20
68.27761342928835
 10
-37.803612880645126
 20
69.23141121612922
 10
-33.92068561318243
 20
69.80738906688788
 10
-30.0
 20
70.0
 10
-13.745014706870943
 20
70.0
 10
-13.374832389655353
 20
70.0
 10
-5.220821962492784
 20
70.0
 10
-0.5270835211145045
 20
70.0
 10
7.75031134771035
 20
70.0
 10
12.909834658721831
 20
70.0
 10
26.208790053634157
 20
70.0
 10
27.846889417875005
 20
70.0
 10
30.0
 20
70.0
 10
33.92068561318243
 20
69.80738906688788
 10
37.80361288064513
 20
69.23141121612922
 10
38.894813741821615
 20
68.95807962945499
 10
41.611387090178496
 20
68.27761342928835
 10
45.30733729460359
 20
66.95518130045147
 10
48.85586947303992
 20
65.2768505739342
 10
52.222809320784094
 20
63.25878449210181
 10
55.37573136654582
 20
60.920418134509475
 10
58.2842712474619
 20
58.2842712474619
 10
60.920418134509475
 20
55.37573136654582
 10
63.25878449210181
 20
52.22280932078409
 10
63.77753897834723
 20
51.35731974803935
 10
65.27685057393421
 20
48.8558694730399
 10
66.95518130045147
 20
45.30733729460359
 10
68.27761342928835
 20
41.611387090178496
 10
69.23141121612922
 20
37.80361288064513
 10
69.80738906688788
 20
33.92068561318242
 10
70.0
 20
30.0
 10
70.0
 20
-11.221618129631857
 10
70.0
 20
-20.617401314693566
 10
70.0
 20
-30.0
 10
69.80738906688788
 20
-33.92068561318243
 10
69.23141121612922
 20
-37.80361288064513
 10
68.27761342928835
 20
-41.61138709017849
 10
66.95518130045147
 20
-45.30733729460359
 10
65.2768505739342
 20
-48.85586947303991
 10
63.25878449210181
 20
-52.22280932078409
 10
61.07882260535894
 20
-55.162147662406866
 10
60.920418134509475
 20
-55.37573136654582
 10
58.2842712474619
 20
-58.2842712474619
 10
55.37573136654582
 20
-60.920418134509475
 10
52.222809320784094
 20
-63.25878449210181
 10
49.948156053414316
 20
-64.62215919268748
 10
48.85586947303992
 20
-65.2768505739342
 10
45.30733729460359
 20
-66.95518130045147
 10
42.230379358369085
 20
-68.0561344542803
 10
42.230379358369085
 20
-68.05613445428031
 10
41.611387090178496
 20
-68.27761342928835
 10
37.80361288064513
 20
-69.23141121612922
 10
33.92068561318243
 20
-69.80738906688788
 10
30.0
 20
-70.0
 10
-11.113911953006975
 20
-70.0
 10
-11.575460818712264
 20
-70.0
 10
-19.60338587761154
 20
-70.0
 10
-21.721118028083765
 20
-70.0
 10
-30.0
 20
-70.0
 10
-33.92068561318243
 20
-69.80738906688788
 10
-37.803612880645126
 20
-69.23141121612922
 10
-41.61138709017848
 20
-68.27761342928835
 10
-45.307337294603585
 20
-66.95518130045147
 10
-47.74910352762402
 20
-65.80031188127198
 10
-48.85586947303991
 20
-65.27685057393421
 10
-52.22280932078408
 20
-63.25878449210181
 10
-55.375731366545814
 20
-60.92041813450948
 10
-58.2842712474619
 20
-58.2842712474619
 10
-60.920418134509475
 20
-55.37573136654582
 10
-63.25878449210181
 20
-52.22280932078409
 10
-65.2768505739342
 20
-48.85586947303992
  0
LWPOLYLINE
  5
30
330
17
100
AcDbEntity
  8
0
 62
0
100
AcDbPolyline
 90
36
 70
0
 10
60.58036128806451
 20
-1.0768588783870783
 10
60.961138709017845
 20
-1.1722386570711647
 10
61.330733729460356
 20
-1.304481869954853
 10
61.68558694730399
 20
-1.4723149426065802
 10
62.02228093207841
 20
-1.674121550789819
 10
62.337573136654576
 20
-1.907958186549052
 10
62.62842712474619
 20
-2.17157287525381
 10
62.892041813450945
 20
-2.462426863345418
 10
63.12587844921018
 20
-2.7777190679215913
 10
63.32768505739342
 20
-3.114413052696009
 10
63.49551813004514
 20
-3.4692662705396407
 10
63.52760286997414
 20
-3.558937111495244
 10
65.0
 20
-3.1694623227694754
 10
65.0
 20
6.419734139980462
 10
64.73520311014727
 20
6.666817875113338
 10
63.8
 20
6.381221027806381
 10
63.8
 20
5.0
 10
63.78073890668878
 20
4.607931438681757
 10
63.72314112161292
 20
4.219638711935487
 10
63.627761342928835
 20
3.838861290982151
 10
63.49551813004514
 20
3.4692662705396407
 10
63.32768505739342
 20
3.114413052696009
 10
63.12587844921018
 20
2.7777190679215913
 10
62.892041813450945
 20
2.462426863345418
 10
62.62842712474619
 20
2.17157287525381
 10
62.337573136654576
 20
1.907958186549052
 10
62.02228093207841
 20
1.674121550789819
 10
61.68558694730399
 20
1.4723149426065802
 10
61.330733729460356
 20
1.304481869954853
 10
60.961138709017845
 20
1.1722386570711647
 10
60.58036128806451
 20
1.0768588783870783
 10
60.35596366376849
 20
1.0435726351858694
 10
59.909308115020394
 20
-0.888316921889782
 10
60.00833068744137
 20
-1.0102346303843024
 10
60.19206856131824
 20
-1.0192610933112127
 10
60.58036128806451
 20
-1.0768588783870783
  0
LWPOLYLINE
  5
31
330
17
100
AcDbEntity
  8
0
 62
0
100
AcDbPolyline
 90
6
 70
0
 10
54.15967211173847
 20
-18.78357754042372
 10
54.93578102160245
 20
-24.416815023869276
 10
59.8626934424974
 20
-21.074278630316257
 10
58.82281012314688
 20
-17.0
 10
56.455367812178984
 20
-17.0
 10
54.15967211173847
 20
-18.78357754042372
  0
LWPOLYLINE
  5
32
330
17
100
AcDbEntity
  8
0
 62
0
100
AcDbPolyline
 90
7
 70
0
 10
44.883135745767504
 20
-4.851442054379731
 10
42.979630707297474
 20
-9.011419820599258
 10
43.277850202750415
 20
-10.033737582620233
 10
49.251514662988484
 20
-12.466142106801271
 10
51.0
 20
-11.107704585458576
 10
51.0
 20
-5.458384399921643
 10
44.883135745767504
 20
-4.851442054379731
  0
LWPOLYLINE
  5
33
330
17
100
AcDbEntity
  8
0
 62
0
100
AcDbPolyline
 90
5
 70
0
 10
-8.29815270481719
 20
-63.8
 10
-10.846013142610573
 20
-65.0
 10
-4.594483627947873
 20
-65.0
 10
-5.310909453576125
 20
-63.8
 10
-8.29815270481719
 20
-63.8
  0
LWPOLYLINE
  5
34
330
17
100
AcDbEntity
  8
0
 62
0
100
AcDbPolyline
 90
23
 70
0
 10
-16.695518130045148
 20
-53.46926627053964
 10
-16.52768505739342
 20
-53.11441305269601
 10
-16.32587844921018
 20
-52.777719067921595
 10
-16.092041813450948
 20
-52.46242686334542
 10
-15.82842712474619
 20
-52.17157287525381
 10
-15.537573136654581
 20
-51.90795818654905
 10
-15.222280932078409
 20
-51.67412155078982
 10
-14.885586947303992
 20
-51.47231494260658
 10
-14.530733729460358
 20
-51.304481869954856
 10
-14.161138709017848
 20
-51.17223865707116
 10
-13.780361288064512
 20
-51.07685887838708
 10
-13.392068561318242
 20
-51.019261093311215
 10
-13.0
 20
-51.0
 10
-8.515933016962158
 20
-51.0
 10
-9.579565905500203
 20
-48.92845495091751
 10
-17.135346865747124
 20
-52.4871024414897
 10
-17.424031066242605
 20
-55.93915421329439
 10
-17.0
 20
-56.23364777697337
 10
-17.0
 20
-55.0
 10
-16.98073890668879
 20
-54.60793143868176
 10
-16.92314112161292
 20
-54.21963871193549
 10
-16.827761342928834
 20
-53.83886129098215
 10
-16.695518130045148
 20
-53.46926627053964
  0
LWPOLYLINE
  5
35
330
17
100
AcDbEntity
  8
0
 62
0
100
AcDbPolyline
 90
15
 70
0
 10
15.82842712474619
 20
-52.17157287525381
 10
16.092041813450948
 20
-52.46242686334542
 10
16.32587844921018
 20
-52.777719067921595
 10
16.468472039812088
 20
-53.015622101203114
 10
21.47165900748223
 20
-51.22812801087275
 10
18.915731532033533
 20
-47.531839434057474
 10
15.463097101077437
 20
-47.813469478394836
 10
13.980678658001125
 20
-50.944353627972305
 10
14.133464265246928
 20
-51.165306569776
 10
14.16113870901785
 20
-51.17223865707116
 10
14.530733729460358
 20
-51.304481869954856
 10
14.885586947303992
 20
-51.47231494260658
 10
15.222280932078409
 20
-51.67412155078982
 10
15.537573136654583
 20
-51.90795818654905
 10
15.82842712474619
 20
-52.17157287525381
  0
LWPOLYLINE
  5
36
330
17
100
AcDbEntity
  8
0
 62
0
100
AcDbPolyline
 90
5
 70
0
 10
-0.010290370788425207
 20
-56.098876657895744
 10
-0.1593316411599517
 20
-56.82251567626372
 10
1.0
 20
-58.764374721032794
 10
1.0
 20
-56.01646766623089
 10
-0.010290370788425207
 20
-56.098876657895744
  0
LWPOLYLINE
  5
37
330
17
100
AcDbEntity
  8
0
 62
0
100
AcDbPolyline
 90
16
 70
0
 10
-62.33757313665458
 20
-16.092041813450948
 10
-62.62842712474619
 20
-15.82842712474619
 10
-62.892041813450945
 20
-15.537573136654581
 10
-63.11633403728519
 20
-15.235150081805273
 10
-63.31119639519602
 20
-16.175460900180042
 10
-59.81567581743002
 20
-19.058260852005333
 10
-57.22794192750007
 20
-17.915271517354995
 10
-57.12900960524649
 20
-17.0
 10
-59.8
 20
-17.0
 10
-60.19206856131824
 20
-16.98073890668879
 10
-60.58036128806451
 20
-16.92314112161292
 10
-60.961138709017845
 20
-16.827761342928834
 10
-61.330733729460356
 20
-16.695518130045144
 10
-61.68558694730399
 20
-16.52768505739342
 10
-62.0222809320784
 20
-16.32587844921018
 10
-62.33757313665458
 20
-16.092041813450948
  0
LWPOLYLINE
  5
38
330
17
100
AcDbEntity
  8
0
 62
0
100
AcDbPolyline
 90
11
 70
0
 10
-65.0
 20
2.5455717416214583
 10
-65.0
 20
-5.86950553923408
 10
-63.8
 20
-5.228075872531292
 10
-63.8
 20
-5.0
 10
-63.78073890668878
 20
-4.6079314386817565
 10
-63.72314112161292
 20
-4.2196387119354855
 10
-63.627761342928835
 20
-3.8388612909821505
 10
-63.49551813004514
 20
-3.4692662705396407
 10
-63.428708259365315
 20
-3.3280086672563525
 10
-63.69076435081661
 20
3.1131946742534637
 10
-65.0
 20
2.5455717416214583
  0
LWPOLYLINE
  5
39
330
17
100
AcDbEntity
  8
0
 62
0
100
AcDbPolyline
 90
23
 70
0
 10
-52.46242686334542
 20
-1.907958186549052
 10
-52.17157287525381
 20
-2.17157287525381
 10
-51.90795818654905
 20
-2.462426863345418
 10
-51.67412155078982
 20
-2.7777190679215913
 10
-51.47231494260658
 20
-3.114413052696009
 10
-51.304481869954856
 20
-3.4692662705396407
 10
-51.17223865707116
 20
-3.838861290982151
 10
-51.07685887838708
 20
-4.219638711935487
 10
-51.019261093311215
 20
-4.607931438681757
 10
-51.0
 20
-5.0
 10
-51.0
 20
-6.457833212213209
 10
-49.442056495230645
 20
-5.824032679665834
 10
-48.16108518419787
 20
-0.5129269249737263
 10
-55.596807688008994
 20
0.9664584961719811
 10
-55.51680362664041
 20
-1.0
 10
-55.0
 20
-1.0
 10
-54.60793143868176
 20
-1.0192610933112127
 10
-54.21963871193549
 20
-1.0768588783870783
 10
-53.83886129098215
 20
-1.1722386570711647
 10
-53.46926627053964
 20
-1.304481869954853
 10
-53.11441305269601
 20
-1.4723149426065802
 10
-52.77771906792159
 20
-1.674121550789819
 10
-52.46242686334542
 20
-1.907958186549052
  0
LWPOLYLINE
  5
3A
330
17
100
AcDbEntity
  8
0
 62
0
100
AcDbPolyline
 90
8
 70
0
 10
31.37427102215588
 20
-64.4809775291942
 10
32.662352799893
 20
-64.86317701161437
 10
33.43000886990823
 20
-64.82546448718811
 10
35.015201975194124
 20
-64.59032330247655
 10
36.59809343377128
 20
-60.99371160566807
 10
32.75521520618349
 20
-55.751805123873055
 10
31.098841289058328
 20
-56.1249577794224
 10
31.37427102215588
 20
-64.4809775291942
  0
LWPOLYLINE
  5
3B
330
17
100
AcDbEntity
  8
0
 62
0
100
AcDbPolyline
 90
8
 70
0
 10
55.57831462379545
 20
-43.786776080261916
 10
56.933233875315636
 20
-46.56931963050738
 10
60.542400257190884
 20
-47.02914024174943
 10
60.86192628253257
 20
-46.49604327490611
 10
62.33021266061866
 20
-43.39161255843457
 10
63.077316026230704
 20
-41.303598529851406
 10
56.89682253357023
 20
-40.516181715298444
 10
55.57831462379545
 20
-43.786776080261916
  0
LWPOLYLINE
  5
3C
330
17
100
AcDbEntity
  8
0
 62
0
100
AcDbPolyline
 90
8
 70
0
 10
57.45210743974894
 20
-32.37697364576161
 10
57.493364883586764
 20
-32.52751801954582
 10
64.82085750870466
 20
-33.4610665960872
 10
64.82546448718811
 20
-33.43000886990823
 10
65.0
 20
-29.877256889455357
 10
65.0
 20
-27.289207782227606
 10
64.96872418746352
 20
-27.27751928381622
 10
57.45210743974894
 20
-32.37697364576161
  0
LWPOLYLINE
  5
3D
330
17
100
AcDbEntity
  8
0
 62
0
100
AcDbPolyline
 90
8
 70
0
 10
54.58518995763734
 20
27.649987265467644
 10
54.97286777989939
 20
26.956935518886894
 10
65.0
 20
26.89906809988498
 10
65.0
 20
29.877256889455357
 10
64.82546448718811
 20
33.43000886990823
 10
64.76902100887135
 20
33.81051989257678
 10
55.261754125822335
 20
30.01417119335383
 10
54.58518995763734
 20
27.649987265467644
  0
LWPOLYLINE
  5
3E
330
17
100
AcDbEntity
  8
0
 62
0
100
AcDbPolyline
 90
4
 70
0
 10
56.55982443654531
 20
52.74154239548119
 10
55.135027441315785
 20
54.31356362965291
 10
55.45378217054531
 20
53.28742950037122
 10
56.55982443654531
 20
52.74154239548119
  0
LWPOLYLINE
  5
3F
330
17
100
AcDbEntity
  8
0
 62
0
100
AcDbPolyline
 90
7
 70
0
 10
44.82916093245111
 20
61.650302916069
 10
43.3916125584346
 20
62.33021266061865
 10
40.158213292425316
 20
63.48714141729095
 10
37.761147384096404
 20
64.08757517004648
 10
37.650592451449484
 20
63.442668091505766
 10
40.71602248027921
 20
60.948272108566016
 10
44.82916093245111
 20
61.650302916069
  0
LWPOLYLINE
  5
40
330
17
100
AcDbEntity
  8
0
 62
0
100
AcDbPolyline
 90
6
 70
0
 10
-3.9786686985753477
 20
63.69986392464489
 10
-1.6333469217643142
 20
62.87633706536144
 10
0.9151739664375782
 20
64.57010879786685
 10
0.8009886573717675
 20
65.0
 10
-4.235007331617989
 20
65.0
 10
-3.9786686985753477
 20
63.69986392464489
  0
LWPOLYLINE
  5
41
330
17
100
AcDbEntity
  8
0
 62
0
100
AcDbPolyline
 90
17
 70
0
 10
-13.780361288064512
 20
63.72314112161292
 10
-13.392068561318242
 20
63.78073890668878
 10
-13.0
 20
63.8
 10
-12.152422247508905
 20
63.8
 10
-12.38901775889209
 20
65.0
 10
-17.66354028754196
 20
65.0
 10
-17.59443422080949
 20
62.65399384079501
 10
-16.349301469172975
 20
61.98320198418011
 10
-16.32587844921018
 20
62.0222809320784
 10
-16.092041813450948
 20
62.337573136654576
 10
-15.82842712474619
 20
62.62842712474619
 10
-15.537573136654581
 20
62.892041813450945
 10
-15.222280932078409
 20
63.12587844921018
 10
-14.885586947303992
 20
63.32768505739342
 10
-14.530733729460358
 20
63.49551813004514
 10
-14.161138709017848
 20
63.627761342928835
 10
-13.780361288064512
 20
63.72314112161292
  0
LWPOLYLINE
  5
42
330
17
100
AcDbEntity
  8
0
 62
0
100
AcDbPolyline
 90
7
 70
0
 10
-25.667010370446352
 20
65.0
 10
-29.877256889455357
 20
65.0
 10
-31.208783736355798
 20
64.93458628062831
 10
-33.33996386406943
 20
63.185417434200644
 10
-28.53866619989276
 20
60.59880860010162
 10
-25.59096564212814
 20
62.418440820649266
 10
-25.667010370446352
 20
65.0
  0
LWPOLYLINE
  5
43
330
17
100
AcDbEntity
  8
0
 62
0
100
AcDbPolyline
 90
8
 70
0
 10
-47.68071199534461
 20
57.47525743953884
 10
-41.855023741256446
 20
62.87005278840661
 10
-41.85483395029898
 20
62.88008083900334
 10
-43.3916125584346
 20
62.33021266061865
 10
-46.49604327490604
 20
60.861926282532615
 10
-49.44160807698571
 20
59.09642268350069
 10
-50.22970651639921
 20
58.51192904539353
 10
-47.68071199534461
 20
57.47525743953884
  0
LWPOLYLINE
  5
44
330
17
100
AcDbEntity
  8
0
 62
0
100
AcDbPolyline
 90
4
 70
0
 10
-65.0
 20
-25.152334083542247
 10
-65.0
 20
-25.719884066504438
 10
-64.89343058597296
 20
-25.240223224740475
 10
-65.0
 20
-25.152334083542247
  0
LWPOLYLINE
  5
45
330
17
100
AcDbEntity
  8
0
 62
0
100
AcDbPolyline
 90
9
 70
0
 10
-62.39796791272238
 20
-41.74954517977312
 10
-59.65696718823165
 20
-40.458579308819026
 10
-59.06246283277869
 20
-37.95866712555289
 10
-62.52121699554846
 20
-35.17542084958404
 10
-64.4329931508118
 20
-36.075835704578815
 10
-64.32157069618115
 20
-36.82698487936576
 10
-63.48714141729097
 20
-40.15821329242527
 10
-63.0896318681634
 20
-41.26917805751394
 10
-62.39796791272238
 20
-41.74954517977312
  0
LWPOLYLINE
  5
46
330
17
100
AcDbEntity
  8
0
 62
0
100
AcDbPolyline
 90
8
 70
0
 10
-56.737989058252424
 20
-47.92668583756313
 10
-58.98925027484074
 20
-48.986992524471134
 10
-59.03427587378546
 20
-49.52540334960786
 10
-57.05070462830413
 20
-52.19993956541988
 10
-55.4587708095572
 20
-53.95636786702724
 10
-53.29880541656166
 20
-52.93905999837443
 10
-53.11706249881536
 20
-50.76579952798784
 10
-56.737989058252424
 20
-47.92668583756313
  0
LWPOLYLINE
  5
47
330
17
100
AcDbEntity
  8
0
 62
0
100
AcDbPolyline
 90
8
 70
0
 10
-35.93878664262593
 20
-61.3432106487453
 10
-39.07269327202812
 20
-62.81922868313268
 10
-39.14967499673362
 20
-63.73976710921528
 10
-36.82698487936575
 20
-64.32157069618115
 10
-33.43000886990823
 20
-64.82546448718811
 10
-33.22038584830688
 20
-64.83576260587854
 10
-33.09356421325356
 20
-63.31924438569695
 10
-35.93878664262593
 20
-61.3432106487453
  0
LWPOLYLINE
  5
48
330
17
100
AcDbEntity
  8
0
 62
0
100
AcDbPolyline
 90
6
 70
0
 10
-19.14226307719946
 20
-64.48594769090414
 10
-21.987485505640507
 20
-62.50991395441815
 10
-25.12139213550836
 20
-63.98593198880553
 10
-25.206195444511504
 20
-65.0
 10
-19.18525165021999
 20
-65.0
 10
-19.14226307719946
 20
-64.48594769090414
  0
LWPOLYLINE
  5
49
330
17
100
AcDbEntity
  8
0
 62
0
100
AcDbPolyline
 90
6
 70
0
 10
23.19283765554428
 20
-59.10844216123223
 10
17.550101723521948
 20
-61.12442861078307
 10
16.76741568231955
 20
-64.99163144780323
 10
16.774450516272655
 20
-65.0
 10
23.38703420459868
 20
-65.0
 10
23.19283765554428
 20
-59.10844216123223
  0
LWPOLYLINE
  5
4A
330
17
100
AcDbEntity
  8
0
 62
0
100
AcDbPolyline
 90
7
 70
0
 10
-51.57142009353265
 20
-30.721666823606938
 10
-51.19915139162913
 20
-27.277626171242446
 10
-53.99564373726025
 20
-25.233211691956967
 10
-56.99072119081393
 20
-26.556122675538063
 10
-57.5186814959161
 20
-28.93243192601949
 10
-53.975563750602305
 20
-31.783565254881978
 10
-51.57142009353265
 20
-30.721666823606938
  0
LWPOLYLINE
  5
4B
330
17
100
AcDbEntity
  8
0
 62
0
100
AcDbPolyline
 90
15
 70
0
 10
-60.58036128806451
 20
16.92314112161292
 10
-60.19206856131824
 20
16.98073890668879
 10
-59.8
 20
17.0
 10
-58.516770851722846
 20
17.0
 10
-56.41593759460375
 20
20.1031200774014
 10
-62.79139397479594
 20
21.388548833783716
 10
-64.47759134322405
 20
18.89788333699107
 10
-62.86192366763801
 20
15.570803389743503
 10
-62.62842712474619
 20
15.82842712474619
 10
-62.337573136654576
 20
16.092041813450948
 10
-62.0222809320784
 20
16.32587844921018
 10
-61.68558694730399
 20
16.52768505739342
 10
-61.330733729460356
 20
16.695518130045148
 10
-60.961138709017845
 20
16.827761342928834
 10
-60.58036128806451
 20
16.92314112161292
  0
LWPOLYLINE
  5
4C
330
17
100
AcDbEntity
  8
0
 62
0
100
AcDbPolyline
 90
6
 70
0
 10
-56.09860096126795
 20
33.548418710939586
 10
-59.45523895230144
 20
34.404562037903816
 10
-62.25442582415417
 20
31.537006665952504
 10
-61.52740547200665
 20
29.29468671279028
 10
-54.50593757769093
 20
27.879008178133518
 10
-56.09860096126795
 20
33.548418710939586
  0
LWPOLYLINE
  5
4D
330
17
100
AcDbEntity
  8
0
 62
0
100
AcDbPolyline
 90
7
 70
0
 10
-54.12142264004797
 20
41.30024210177362
 10
-48.876458670478314
 20
46.67331124516204
 10
-49.991417748853564
 20
49.77870908007026
 10
-53.02535847853869
 20
51.01260745944455
 10
-58.41493775648996
 20
45.49139086389914
 10
-57.47806063154712
 20
42.15638542873785
 10
-54.12142264004797
 20
41.30024210177362
  0
LWPOLYLINE
  5
4E
330
17
100
AcDbEntity
  8
0
 62
0
100
AcDbPolyline
 90
7
 70
0
 10
-28.530109773389995
 20
-56.74848464410752
 10
-25.396203143987805
 20
-55.27246660972014
 10
-25.107518943492323
 20
-51.82041483838111
 10
-27.37212924286723
 20
-50.24762168619782
 10
-31.200391477439553
 20
-52.680530256126076
 10
-31.375332202762365
 20
-54.77245090715587
 10
-28.530109773389995
 20
-56.74848464410752
  0
LWPOLYLINE
  5
4F
330
17
100
AcDbEntity
  8
0
 62
0
100
AcDbPolyline
 90
7
 70
0
 10
-39.347504280507565
 20
-54.10576330404729
 10
-39.18360887700692
 20
-52.14592131366953
 10
-42.33953310456127
 20
-49.59114713314921
 10
-45.1339961476624
 20
-51.30221468722448
 10
-45.326633338816464
 20
-53.60574760194868
 10
-42.481410910375416
 20
-55.581781338434666
 10
-39.347504280507565
 20
-54.10576330404729
  0
LWPOLYLINE
  5
50
330
17
100
AcDbEntity
  8
0
 62
0
100
AcDbPolyline
 90
7
 70
0
 10
-31.45768285682425
 20
-43.365219741128385
 10
-31.601882896386087
 20
-41.60448085796088
 10
-34.42019731970504
 20
-39.544113046023995
 10
-37.588958367239684
 20
-40.94373921910301
 10
-37.807658781297505
 20
-42.96704419562593
 10
-34.73944127652794
 20
-45.4508182965219
 10
-31.45768285682425
 20
-43.365219741128385
  0
LWPOLYLINE
  5
51
330
17
100
AcDbEntity
  8
0
 62
0
100
AcDbPolyline
 90
6
 70
0
 10
-20.220110427122563
 20
-39.480741050094366
 10
-23.578354466240853
 20
-41.564729819539934
 10
-23.441362580284476
 20
-43.23745433287695
 10
-20.54406450362876
 20
-45.249655096791685
 10
-16.087847073562443
 20
-43.15085061080754
 10
-20.220110427122563
 20
-39.480741050094366
  0
LWPOLYLINE
  5
52
330
17
100
AcDbEntity
  8
0
 62
0
100
AcDbPolyline
 90
7
 70
0
 10
-48.66996346414089
 20
-44.086754474788904
 10
-45.784301256295294
 20
-42.3198450896889
 10
-45.54262955812737
 20
-40.08402147749439
 10
-48.339121903292835
 20
-38.03960699820891
 10
-51.15431405324489
 20
-39.28306352766231
 10
-51.72670934628695
 20
-41.69000631105155
 10
-48.66996346414089
 20
-44.086754474788904
  0
LWPOLYLINE
  5
53
330
17
100
AcDbEntity
  8
0
 62
0
100
AcDbPolyline
 90
7
 70
0
 10
-27.581552998628467
 20
-34.633751151151955
 10
-23.56153529183939
 20
-32.13909273594618
 10
-23.36130222538486
 20
-30.286638266872615
 10
-26.157794570550323
 20
-28.242223788052797
 10
-29.32655561855063
 20
-29.64184996066615
 10
-29.69882432045415
 20
-33.08589061303064
 10
-27.581552998628467
 20
-34.633751151151955
  0
LWPOLYLINE
  5
54
330
17
100
AcDbEntity
  8
0
 62
0
100
AcDbPolyline
 90
7
 70
0
 10
-37.65249551041052
 20
-32.22617287095636
 10
-37.280226808506995
 20
-28.78213221905753
 10
-40.07671915367246
 20
-26.737717740237713
 10
-43.24548020167276
 20
-28.137343912851065
 10
-43.617748903576285
 20
-31.581384564749897
 10
-40.82125655841082
 20
-33.625799043569714
 10
-37.65249551041052
 20
-32.22617287095636
  0
LWPOLYLINE
  5
55
330
17
100
AcDbEntity
  8
0
 62
0
100
AcDbPolyline
 90
7
 70
0
 10
-18.639929226133972
 20
-23.82841583294794
 10
-15.471168178133667
 20
-22.428789660334587
 10
-15.098899476230145
 20
-18.984749008435756
 10
-17.895391821395606
 20
-16.94033452961594
 10
-21.06415286939591
 20
-18.33996070222929
 10
-21.436421571299434
 20
-21.784001354128122
 10
-18.639929226133972
 20
-23.82841583294794
  0
LWPOLYLINE
  5
56
330
17
100
AcDbEntity
  8
0
 62
0
100
AcDbPolyline
 90
7
 70
0
 10
-32.55885380925611
 20
-22.323909785132855
 10
-29.3900927612558
 20
-20.924283612519503
 10
-29.01782405935228
 20
-17.48024296062067
 10
-31.81431640451774
 20
-15.435828481800854
 10
-34.983077452518046
 20
-16.835454654414207
 10
-35.35534615442157
 20
-20.279495306313038
 10
-32.55885380925611
 20
-22.323909785132855
  0
LWPOLYLINE
  5
57
330
17
100
AcDbEntity
  8
0
 62
0
100
AcDbPolyline
 90
7
 70
0
 10
-43.309017344377935
 20
-19.419777564704418
 10
-42.93674864247441
 20
-15.975736912339926
 10
-46.59399224864319
 20
-13.30205829674378
 10
-48.77876979764551
 20
-14.190866632852703
 10
-49.2742707375437
 20
-18.774989258497953
 10
-46.47777839237824
 20
-20.81940373731777
 10
-43.309017344377935
 20
-19.419777564704418
  0
LWPOLYLINE
  5
58
330
17
100
AcDbEntity
  8
0
 62
0
100
AcDbPolyline
 90
7
 70
0
 10
-24.29645106010139
 20
-11.022020526695997
 10
-21.127690012101084
 20
-9.622394354082644
 10
-20.33979363134131
 20
-2.333177858032286
 10
-23.142885270994157
 20
-1.3053192985244095
 10
-26.40750570455566
 20
-2.6362851369194686
 10
-27.09294340526685
 20
-8.97760604787618
 10
-24.29645106010139
 20
-11.022020526695997
  0
LWPOLYLINE
  5
59
330
17
100
AcDbEntity
  8
0
 62
0
100
AcDbPolyline
 90
6
 70
0
 10
-35.04661459522322
 20
-8.11788830626756
 10
-34.42557438928634
 20
-2.372340254485607
 10
-39.83482509525493
 20
-0.11131486389786005
 10
-41.520679000299424
 20
-7.1011266596615314
 10
-38.215375643223524
 20
-9.517514479346573
 10
-35.04661459522322
 20
-8.11788830626756
  0
LWPOLYLINE
  5
5A
330
17
100
AcDbEntity
  8
0
 62
0
100
AcDbPolyline
 90
6
 70
0
 10
-28.436043644323945
 20
14.63052656315267
 10
-36.173752947710454
 20
12.615989157464355
 10
-36.40174300922081
 20
7.124434307683259
 10
-30.108799652196467
 20
4.494032152928412
 10
-27.504470776300877
 20
5.555801150389016
 10
-28.436043644323945
 20
14.63052656315267
  0
LWPOLYLINE
  5
5B
330
17
100
AcDbEntity
  8
0
 62
0
100
AcDbPolyline
 90
6
 70
0
 10
-15.601244403515011
 20
15.077494871802628
 10
-20.344707017298788
 20
14.150336514692754
 10
-19.495516065042466
 20
5.878117580898106
 10
-17.061982084065676
 20
4.985771181061864
 10
-13.46676441701129
 20
11.581446923315525
 10
-15.601244403515011
 20
15.077494871802628
  0
LWPOLYLINE
  5
5C
330
17
100
AcDbEntity
  8
0
 62
0
100
AcDbPolyline
 90
8
 70
0
 10
-51.06943533793531
 20
13.730315843429258
 10
-51.019261093311215
 20
13.392068561318244
 10
-51.0
 20
13.0
 10
-51.0
 20
8.208691839519357
 10
-44.41798721533269
 20
6.899157527368516
 10
-44.11636407393962
 20
14.16429888503626
 10
-48.072457336355
 20
18.15712248161435
 10
-51.06943533793531
 20
13.730315843429258
  0
LWPOLYLINE
  5
5D
330
17
100
AcDbEntity
  8
0
 62
0
100
AcDbPolyline
 90
6
 70
0
 10
-31.230502730235457
 20
22.16967013012618
 10
-31.486278764437884
 20
28.016738889273256
 10
-34.79171716514975
 20
29.607119253836572
 10
-41.423782831057906
 20
22.813069267664105
 10
-38.82678034249693
 20
20.191954918205738
 10
-31.230502730235457
 20
22.16967013012618
  0
LWPOLYLINE
  5
5E
330
17
100
AcDbEntity
  8
0
 62
0
100
AcDbPolyline
 90
7
 70
0
 10
-16.39090083539486
 20
23.074534894432873
 10
-15.188963987398893
 20
25.621089440770447
 10
-16.654608924407512
 20
28.616460687015206
 10
-20.43890048377216
 20
30.126678037457168
 10
-23.49299325235188
 20
28.345126480795443
 10
-23.204179413150996
 20
21.742809805087745
 10
-16.39090083539486
 20
23.074534894432873
  0
LWPOLYLINE
  5
5F
330
17
100
AcDbEntity
  8
0
 62
0
100
AcDbPolyline
 90
6
 70
0
 10
-40.13847575522959
 20
35.58247651159763
 10
-41.212924991268665
 20
39.28417756874114
 10
-43.57607348822057
 20
40.65044793765992
 10
-48.39673581859097
 20
35.712043752428144
 10
-46.52298156823963
 20
29.04203288257122
 10
-40.13847575522959
 20
35.58247651159763
  0
LWPOLYLINE
  5
60
330
17
100
AcDbEntity
  8
0
 62
0
100
AcDbPolyline
 90
7
 70
0
 10
-27.7750024208799
 20
35.10891733597964
 10
-24.836996015161276
 20
36.82275194535032
 10
-24.978980944491923
 20
41.64284276077524
 10
-28.02867895271629
 20
43.285810217261314
 10
-33.13017095671967
 20
40.13663035957143
 10
-32.30322471354157
 20
37.2876285831444
 10
-27.7750024208799
 20
35.10891733597964
  0
LWPOLYLINE
  5
61
330
17
100
AcDbEntity
  8
0
 62
0
100
AcDbPolyline
 90
7
 70
0
 10
-32.23093956243247
 20
50.093233060091734
 10
-32.33293701149523
 20
53.555832736659795
 10
-37.26797354640439
 20
56.21449087234214
 10
-42.17169898049906
 20
51.67346601653844
 10
-40.996316426899284
 20
48.39977596793324
 10
-37.88667496712878
 20
46.60191561700776
 10
-32.23093956243247
 20
50.093233060091734
  0
LWPOLYLINE
  5
62
330
17
100
AcDbEntity
  8
0
 62
0
100
AcDbPolyline
 90
7
 70
0
 10
-21.18471013288945
 20
48.68581862421706
 10
-18.23700957465917
 20
50.50545084476471
 10
-18.339007024187595
 20
53.96805052133277
 10
-21.388705032411963
 20
55.61101797781885
 10
-24.336405590176582
 20
53.7913857572712
 10
-24.234408141113818
 20
50.32878608023748
 10
-21.18471013288945
 20
48.68581862421706
  0
LWPOLYLINE
  5
63
330
17
100
AcDbEntity
  8
0
 62
0
100
AcDbPolyline
 90
7
 70
0
 10
-0.985411049798131
 20
-48.151846589986235
 10
6.750211430713534
 20
-47.52085488010198
 10
8.232629873789847
 20
-44.38997073052451
 10
6.407186095137149
 20
-41.75008088629693
 10
-2.6842485987581313
 20
-44.326406641397625
 10
-2.833497849293053
 20
-44.55248904787004
 10
-0.985411049798131
 20
-48.151846589986235
  0
LWPOLYLINE
  5
64
330
17
100
AcDbEntity
  8
0
 62
0
100
AcDbPolyline
 90
7
 70
0
 10
14.812700373120606
 20
-39.83995180437341
 10
18.2653348040767
 20
-39.55832176003605
 10
19.747753247153014
 20
-36.42743760999292
 10
17.01256092824042
 20
-32.471902791410685
 10
12.977865987922996
 20
-34.50957874767482
 10
12.435997012536973
 20
-36.40285056969151
 10
14.812700373120606
 20
-39.83995180437341
  0
LWPOLYLINE
  5
65
330
17
100
AcDbEntity
  8
0
 62
0
100
AcDbPolyline
 90
6
 70
0
 10
-12.238869987428188
 20
-29.74672983586788
 10
-15.407631035428494
 20
-31.146356008481234
 10
-15.595889032818377
 20
-32.88802323304117
 10
-9.345552438404411
 20
-38.43931997520849
 10
-9.725318806245923
 20
-31.584296256303787
 10
-12.238869987428188
 20
-29.74672983586788
  0
LWPOLYLINE
  5
66
330
17
100
AcDbEntity
  8
0
 62
0
100
AcDbPolyline
 90
6
 70
0
 10
4.8368237260729074
 20
-33.88007575692609
 10
5.086785712745041
 20
-33.00671705277637
 10
1.7401598119176924
 20
-29.943400581832975
 10
-1.7015358074568212
 20
-31.792165379039943
 10
-1.4865939393639565
 20
-35.672002371400595
 10
4.8368237260729074
 20
-33.88007575692609
  0
LWPOLYLINE
  5
67
330
17
100
AcDbEntity
  8
0
 62
0
100
AcDbPolyline
 90
7
 70
0
 10
10.276366945821792
 20
-26.9115691347979
 10
14.970237307716161
 20
-24.540984265040606
 10
15.823704097419977
 20
-21.63292304612696
 10
11.74693459039554
 20
-18.772197884041816
 10
6.686856470536441
 20
-22.152370693162084
 10
6.541918670292944
 20
-23.493261486291885
 10
10.276366945821792
 20
-26.9115691347979
  0
LWPOLYLINE
  5
68
330
17
100
AcDbEntity
  8
0
 62
0
100
AcDbPolyline
 90
7
 70
0
 10
-1.40278115356341
 20
-22.550545232370496
 10
-1.3225405337288976
 20
-21.808199835475534
 10
-5.339491060003638
 20
-19.04688149644062
 10
-7.1452282862737775
 20
-19.844466749578714
 10
-7.5174969881772995
 20
-23.288507401943207
 10
-5.509455025196075
 20
-24.75651430338621
 10
-1.40278115356341
 20
-22.550545232370496
  0
LWPOLYLINE
  5
69
330
17
100
AcDbEntity
  8
0
 62
0
100
AcDbPolyline
 90
5
 70
0
 10
0.5983628984540701
 20
-9.386027127038687
 10
-0.3165358891710639
 20
-12.791878298390657
 10
2.9429997275583446
 20
-15.0325370808132
 10
6.661457787733525
 20
-12.548577242996544
 10
0.5983628984540701
 20
-9.386027127038687
  0
LWPOLYLINE
  5
6A
330
17
100
AcDbEntity
  8
0
 62
0
100
AcDbPolyline
 90
6
 70
0
 10
-8.279993711039424
 20
-11.600056666415185
 10
-6.9321560193784535
 20
-6.582523969002068
 10
-12.518943523522466
 20
-4.421688681002706
 10
-13.174018822144717
 20
-10.482112095691264
 10
-10.377526476513594
 20
-12.526526574976742
 10
-8.279993711039424
 20
-11.600056666415185
  0
LWPOLYLINE
  5
6B
330
17
100
AcDbEntity
  8
0
 62
0
100
AcDbPolyline
 90
6
 70
0
 10
9.312980336137116
 20
1.1371552306227386
 10
5.849921329878271
 20
1.0521709877066314
 10
4.086662869434804
 20
-2.1826487467624247
 10
9.407350115012378
 20
-4.957954159937799
 10
11.11810835218057
 20
-1.8194497213698924
 10
9.312980336137116
 20
1.1371552306227386
  0
LWPOLYLINE
  5
6C
330
17
100
AcDbEntity
  8
0
 62
0
100
AcDbPolyline
 90
6
 70
0
 10
-2.979456048924476
 20
7.837603553198278
 10
-6.442515054251999
 20
7.752619310282171
 10
-9.119716517161578
 20
2.84110785741359
 10
-3.4760757270269096
 20
0.6582830832339823
 10
-1.1743280328810215
 20
4.880998600739986
 10
-2.979456048924476
 20
7.837603553198278
  0
LWPOLYLINE
  5
6D
330
17
100
AcDbEntity
  8
0
 62
0
100
AcDbPolyline
 90
7
 70
0
 10
9.11671763425693
 20
9.134747427422553
 10
10.774648623540998
 20
12.176336622796953
 10
8.969520607497543
 20
15.132941575720906
 10
5.506461601704359
 20
15.047957332804799
 10
3.8485306124202907
 20
12.0063681374304
 10
5.653658628463745
 20
9.049763184506446
 10
9.11671763425693
 20
9.134747427422553
  0
LWPOLYLINE
  5
6E
330
17
100
AcDbEntity
  8
0
 62
0
100
AcDbPolyline
 90
7
 70
0
 10
-6.6387777561321855
 20
15.750211507081985
 10
-3.1757187503390014
 20
15.835195749998093
 10
-1.517787761054933
 20
18.876784945372492
 10
-3.3229157770983875
 20
21.833389898296446
 10
-8.186723321676254
 20
21.71403097268194
 10
-9.09937052987516
 20
19.78039702028036
 10
-6.6387777561321855
 20
15.750211507081985
  0
LWPOLYLINE
  5
6F
330
17
100
AcDbEntity
  8
0
 62
0
100
AcDbPolyline
 90
7
 70
0
 10
5.310198899824172
 20
23.045549529604614
 10
8.773257905617356
 20
23.13053377252072
 10
10.431188895367086
 20
26.17212296836078
 10
8.62606087885797
 20
29.128727920819074
 10
5.163001873064786
 20
29.043743677902967
 10
3.505070883780718
 20
26.002154482528567
 10
5.310198899824172
 20
23.045549529604614
  0
LWPOLYLINE
  5
70
330
17
100
AcDbEntity
  8
0
 62
0
100
AcDbPolyline
 90
6
 70
0
 10
-1.861247489694506
 20
32.87257129047066
 10
-4.188994648866355
 20
36.68517001951113
 10
-8.98431918444112
 20
31.142585789319128
 10
-8.28531726822257
 20
29.714019982609898
 10
-3.5191784789785743
 20
29.83098209509626
 10
-1.861247489694506
 20
32.87257129047066
  0
LWPOLYLINE
  5
71
330
17
100
AcDbEntity
  8
0
 62
0
100
AcDbPolyline
 90
7
 70
0
 10
4.966739171650261
 20
37.04133587470278
 10
8.429798176977783
 20
37.12632011761889
 10
10.087729166727513
 20
40.16790931299329
 10
8.282601150684059
 20
43.12451426591724
 10
2.034189058933407
 20
42.971176834777
 10
1.6249892869964242
 20
42.514761676546186
 10
4.966739171650261
 20
37.04133587470278
  0
LWPOLYLINE
  5
72
330
17
100
AcDbEntity
  8
0
 62
0
100
AcDbPolyline
 90
6
 70
0
 10
-10.3961416836828
 20
41.73779674852267
 10
-14.034748964942992
 20
43.69802800193429
 10
-16.982449523173273
 20
41.878395781386644
 10
-16.84779257560149
 20
37.30707459198311
 10
-14.901504607405514
 20
36.53035910567269
 10
-10.3961416836828
 20
41.73779674852267
  0
LWPOLYLINE
  5
73
330
17
100
AcDbEntity
  8
0
 62
0
100
AcDbPolyline
 90
7
 70
0
 10
20.378774833865464
 20
44.42165814014152
 10
22.036705823149532
 20
47.463247335515916
 10
20.231577807106078
 20
50.41985228843987
 10
16.768518801312894
 20
50.3348680450581
 10
15.110587811563164
 20
47.2932788496837
 10
16.91571582760662
 20
44.33667389722541
 10
20.378774833865464
 20
44.42165814014152
  0
LWPOLYLINE
  5
74
330
17
100
AcDbEntity
  8
0
 62
0
100
AcDbPolyline
 90
8
 70
0
 10
-10.248107376362782
 20
51.0
 10
-10.240478153340518
 20
50.741003865376115
 10
-4.511380194686353
 20
47.65456006862223
 10
-3.965273221489042
 20
48.263679422438145
 10
-4.2789077849020645
 20
51.0680671419181
 10
-4.6079314386817565
 20
51.019261093311215
 10
-5.0
 20
51.0
 10
-10.248107376362782
 20
51.0
  0
LWPOLYLINE
  5
75
330
17
100
AcDbEntity
  8
0
 62
0
100
AcDbPolyline
 90
6
 70
0
 10
3.776750980410725
 20
51.01634822180495
 10
4.506792694291125
 20
51.034263608838785
 10
4.2196387119354855
 20
51.07685887838708
 10
3.83886129098215
 20
51.17223865707116
 10
3.7560009107711387
 20
51.20188657518096
 10
3.776750980410725
 20
51.01634822180495
  0
LWPOLYLINE
  5
76
330
17
100
AcDbEntity
  8
0
 62
0
100
AcDbPolyline
 90
13
 70
0
 10
17.0
 20
58.34295717294978
 10
20.03531510522589
 20
58.417444485239685
 10
21.235823480412364
 20
60.61986022302881
 10
18.787438112776726
 20
64.52843432221562
 10
16.199852344326928
 20
62.192207463538175
 10
16.32587844921018
 20
62.0222809320784
 10
16.52768505739342
 20
61.68558694730399
 10
16.695518130045148
 20
61.330733729460356
 10
16.827761342928834
 20
60.961138709017845
 10
16.92314112161292
 20
60.58036128806451
 10
16.98073890668879
 20
60.19206856131824
 10
17.0
 20
59.8
 10
17.0
 20
58.34295717294978
  0
LWPOLYLINE
  5
77
330
17
100
AcDbEntity
  8
0
 62
0
100
AcDbPolyline
 90
7
 70
0
 10
43.050029774196446
 20
-56.263752043712884
 10
48.42339032329619
 20
-55.67570962756872
 10
49.994679864961654
 20
-50.59340083040297
 10
48.82635179720819
 20
-48.19405214115977
 10
40.780863645486534
 20
-48.98862202744931
 10
39.316900653298944
 20
-51.17154964245856
 10
43.050029774196446
 20
-56.263752043712884
  0
LWPOLYLINE
  5
78
330
17
100
AcDbEntity
  8
0
 62
0
100
AcDbPolyline
 90
7
 70
0
 10
31.99788544792682
 20
-47.72192150913179
 10
33.93440392287448
 20
-44.834362412802875
 10
31.45479396916926
 20
-39.48578400351107
 10
26.978220474440604
 20
-39.85093635786325
 10
25.495802031364292
 20
-42.98182050790638
 10
29.208101601339877
 20
-48.35041199764237
 10
31.99788544792682
 20
-47.72192150913179
  0
LWPOLYLINE
  5
79
330
17
100
AcDbEntity
  8
0
 62
0
100
AcDbPolyline
 90
7
 70
0
 10
40.943900919985026
 20
-40.933601283468306
 10
48.39976673712954
 20
-40.19726231414825
 10
50.126485721208155
 20
-35.914089389611036
 10
49.454839350655675
 20
-33.463317532557994
 10
39.54830041201785
 20
-32.96849519945681
 10
38.35249663842842
 20
-35.34387981565669
 10
40.943900919985026
 20
-40.933601283468306
  0
LWPOLYLINE
  5
7A
330
17
100
AcDbEntity
  8
0
 62
0
100
AcDbPolyline
 90
7
 70
0
 10
26.327823746483773
 20
-31.877418683841825
 10
31.34715252602473
 20
-31.467993992380798
 10
32.73531091213226
 20
-28.71050973981619
 10
31.607128472533077
 20
-26.086683238390833
 10
23.29772737622261
 20
-24.574797871988267
 10
22.69597652880475
 20
-26.62517443532124
 10
26.327823746483773
 20
-31.877418683841825
  0
LWPOLYLINE
  5
7B
330
17
100
AcDbEntity
  8
0
 62
0
100
AcDbPolyline
 90
6
 70
0
 10
41.688396628480405
 20
-18.024316321127117
 10
38.90483782067895
 20
-22.806351846084
 10
39.83640688704327
 20
-24.97291242936626
 10
46.98602858465165
 20
-25.33002933114767
 10
46.23453381517902
 20
-19.875448860693723
 10
41.688396628480405
 20
-18.024316321127117
  0
LWPOLYLINE
  5
7C
330
17
100
AcDbEntity
  8
0
 62
0
100
AcDbPolyline
 90
6
 70
0
 10
35.658366782125086
 20
-12.481192765757442
 10
35.62833132781088
 20
-12.378229080233723
 10
29.6403325391002
 20
-11.703455831855536
 10
26.682845297735184
 20
-17.05937269842252
 10
32.389118500519544
 20
-18.09762212820351
 10
35.658366782125086
 20
-12.481192765757442
  0
LWPOLYLINE
  5
7D
330
17
100
AcDbEntity
  8
0
 62
0
100
AcDbPolyline
 90
7
 70
0
 10
19.13305882178247
 20
-14.182029662188143
 10
22.80621140776202
 20
-7.5300652463920414
 10
21.605416720733047
 20
-5.563293091021478
 10
18.142357714939862
 20
-5.648277334403247
 10
15.258994212374091
 20
-10.938007323537022
 10
15.389638286549598
 20
-11.555220052599907
 10
19.13305882178247
 20
-14.182029662188143
  0
LWPOLYLINE
  5
7E
330
17
100
AcDbEntity
  8
0
 62
0
100
AcDbPolyline
 90
7
 70
0
 10
38.06646568933502
 20
-0.521975374314934
 10
37.080981160048395
 20
1.8185881841927767
 10
30.09133437136188
 20
1.6470606876537204
 10
28.433403381612152
 20
-1.3945285072550178
 10
29.82488078530878
 20
-3.6736183813773096
 10
36.29094002908096
 20
-4.402263117954135
 10
38.06646568933502
 20
-0.521975374314934
  0
LWPOLYLINE
  5
7F
330
17
100
AcDbEntity
  8
0
 62
0
100
AcDbPolyline
 90
7
 70
0
 10
21.40915401885286
 20
2.4342991057783365
 10
23.06708500860259
 20
5.475888300687075
 10
21.261956992559135
 20
8.432493253145367
 10
17.79889798630029
 20
8.34750901022926
 10
16.14096699701622
 20
5.30591981485486
 10
17.946095013059676
 20
2.349314862396568
 10
21.40915401885286
 20
2.4342991057783365
  0
LWPOLYLINE
  5
80
330
17
100
AcDbEntity
  8
0
 62
0
100
AcDbPolyline
 90
14
 70
0
 10
51.885236105764356
 20
2.493064042673215
 10
51.67412155078982
 20
2.777719067921592
 10
51.47231494260658
 20
3.114413052696009
 10
51.304481869954856
 20
3.4692662705396415
 10
51.17223865707116
 20
3.838861290982152
 10
51.07685887838708
 20
4.219638711935486
 10
51.019261093311215
 20
4.607931438681757
 10
51.0
 20
5.0
 10
51.0
 20
9.90911028590486
 10
50.38343347655609
 20
10.484432600438595
 10
44.46388690173626
 20
7.505147616378963
 10
43.97972302464768
 20
6.0496225780807436
 10
45.19780966080725
 20
3.156620094552636
 10
51.885236105764356
 20
2.493064042673215
  0
LWPOLYLINE
  5
81
330
17
100
AcDbEntity
  8
0
 62
0
100
AcDbPolyline
 90
7
 70
0
 10
29.895071669481695
 20
9.644652884453535
 10
36.80095732724294
 20
9.814124864060432
 10
36.8081997432746
 20
9.835897487122566
 10
33.210933648981154
 20
15.727831275667995
 10
29.74787464318797
 20
15.642847032751888
 10
28.08994365343824
 20
12.601257837377489
 10
29.895071669481695
 20
9.644652884453535
  0
LWPOLYLINE
  5
82
330
17
100
AcDbEntity
  8
0
 62
0
100
AcDbPolyline
 90
7
 70
0
 10
47.53829268179834
 20
18.008579819928855
 10
48.40577460825443
 20
22.309867042582482
 10
47.96821872331202
 20
23.092085815500468
 10
41.69685129960999
 20
22.938185055274516
 10
40.03892030986026
 20
19.896595859900117
 10
42.68344314256683
 20
15.565152751747519
 10
47.53829268179834
 20
18.008579819928855
  0
LWPOLYLINE
  5
83
330
17
100
AcDbEntity
  8
0
 62
0
100
AcDbPolyline
 90
7
 70
0
 10
17.602635284420103
 20
16.345101207029074
 10
21.065694290678948
 20
16.43008544994518
 10
22.723625280428678
 20
19.471674645785242
 10
20.918497263919562
 20
22.428279598243535
 10
17.455438258126378
 20
22.343295355327427
 10
15.797507268376648
 20
19.301706159953028
 10
17.602635284420103
 20
16.345101207029074
  0
LWPOLYLINE
  5
84
330
17
100
AcDbEntity
  8
0
 62
0
100
AcDbPolyline
 90
7
 70
0
 10
29.551611941307783
 20
23.640439229551703
 10
33.01467094710097
 20
23.72542347246781
 10
34.6726019368507
 20
26.76701266830787
 10
32.86747392034158
 20
29.723617620766163
 10
29.404414914548397
 20
29.638633377850056
 10
27.746483924798667
 20
26.597044182009995
 10
29.551611941307783
 20
23.640439229551703
  0
LWPOLYLINE
  5
85
330
17
100
AcDbEntity
  8
0
 62
0
100
AcDbPolyline
 90
7
 70
0
 10
20.722234562039375
 20
30.42587179504335
 10
22.380165551789105
 20
33.46746099041775
 10
20.57503753574565
 20
36.4240659433417
 10
17.111978529486805
 20
36.339081700425595
 10
15.454047539737076
 20
33.297492504585534
 10
17.25917555624619
 20
30.340887552127242
 10
20.722234562039375
 20
30.42587179504335
  0
LWPOLYLINE
  5
86
330
17
100
AcDbEntity
  8
0
 62
0
100
AcDbPolyline
 90
7
 70
0
 10
41.5005885977298
 20
30.93577725207433
 10
47.24469855055213
 20
31.07673899596557
 10
47.6275702691637
 20
32.41464485274628
 10
44.8164505767636
 20
37.01895564328879
 10
41.353391570970416
 20
36.933971400372684
 10
39.695460581220686
 20
33.89238220453262
 10
41.5005885977298
 20
30.93577725207433
  0
LWPOLYLINE
  5
87
330
17
100
AcDbEntity
  8
0
 62
0
100
AcDbPolyline
 90
7
 70
0
 10
29.20815221266821
 20
37.63622557464987
 10
32.671211218461394
 20
37.72120981756598
 10
34.329142208211124
 20
40.76279901294038
 10
32.52401419216767
 20
43.71940396586433
 10
29.060955185908824
 20
43.63441972294822
 10
27.403024196624756
 20
40.592830527573824
 10
29.20815221266821
 20
37.63622557464987
  0
LWPOLYLINE
  5
88
330
17
100
AcDbEntity
  8
0
 62
0
100
AcDbPolyline
 90
7
 70
0
 10
44.62018787488341
 20
45.016547840088606
 10
47.82153191184625
 20
50.88963513588533
 10
46.890608463436365
 20
53.886460702400655
 10
42.183681056369096
 20
53.083081947639585
 10
39.352000853046775
 20
47.88816855009645
 10
41.15712886909023
 20
44.9315635971725
 10
44.62018787488341
 20
45.016547840088606
  0
LWPOLYLINE
  5
89
330
17
100
AcDbEntity
  8
0
 62
0
100
AcDbPolyline
 90
7
 70
0
 10
32.32775149028748
 20
51.716996162664145
 10
34.4963424843736
 20
55.695426494348794
 10
32.14410312380642
 20
57.60948630236089
 10
28.418447829782963
 20
57.08158248849213
 10
27.059564467985183
 20
54.58861687267199
 10
28.864692484028637
 20
51.63201191974804
 10
32.32775149028748
 20
51.716996162664145
  0
LWPOLYLINE
  5
8A
330
17
100
AcDbEntity
  8
0
 62
0
100
AcDbPolyline
 90
14
 70
0
 10
60.19206856131824
 20
16.98073890668879
 10
60.58036128806451
 20
16.92314112161292
 10
60.961138709017845
 20
16.827761342928834
 10
61.330733729460356
 20
16.695518130045148
 10
61.68558694730399
 20
16.52768505739342
 10
62.02228093207841
 20
16.32587844921018
 10
62.337573136654576
 20
16.092041813450948
 10
62.62842712474619
 20
15.82842712474619
 10
62.72358857447984
 20
15.723432644720795
 10
63.45982413133606
 20
18.90782336331904
 10
55.88953994307667
 20
18.95151210669428
 10
55.49595974358284
 20
17.0
 10
59.8
 20
17.0
 10
60.19206856131824
 20
16.98073890668879
  0
LWPOLYLINE
  5
8B
330
17
100
AcDbEntity
  8
0
 62
0
100
AcDbPolyline
 90
5
 70
0
 10
53.817219629883766
 20
45.17383996862918
 10
51.644437237642705
 20
41.18772022752091
 10
53.609762323554605
 20
37.96872975723818
 10
61.79413554864004
 20
41.23683351743966
 10
53.817219629883766
 20
45.17383996862918
  0
LWPOLYLINE
  5
8C
330
17
100
AcDbEntity
  8
0
 62
0
100
AcDbPolyline
 90
5
 70
0
 10
-5.0
 20
59.8
 10
-13.0
 20
59.8
 10
-13.0
 20
55.0
 10
-5.0
 20
55.0
 10
-5.0
 20
59.8
  0
LWPOLYLINE
  5
8D
330
17
100
AcDbEntity
  8
0
 62
0
100
AcDbPolyline
 90
5
 70
0
 10
13.0
 20
59.8
 10
5.0
 20
59.8
 10
5.0
 20
55.0
 10
13.0
 20
55.0
 10
13.0
 20
59.8
  0
LWPOLYLINE
  5
8E
330
17
100
AcDbEntity
  8
0
 62
0
100
AcDbPolyline
 90
5
 70
0
 10
-59.8
 20
-13.0
 10
-55.0
 20
-13.0
 10
-55.0
 20
-5.0
 10
-59.8
 20
-5.0
 10
-59.8
 20
-13.0
  0
LWPOLYLINE
  5
8F
330
17
100
AcDbEntity
  8
0
 62
0
100
AcDbPolyline
 90
5
 70
0
 10
-59.8
 20
5.0
 10
-55.0
 20
5.0
 10
-55.0
 20
13.0
 10
-59.8
 20
13.0
 10
-59.8
 20
5.0
  0
LWPOLYLINE
  5
90
330
17
100
AcDbEntity
  8
0
 62
0
100
AcDbPolyline
 90
5
 70
0
 10
13.0
 20
-55.0
 10
5.0
 20
-55.0
 10
5.0
 20
-59.8
 10
13.0
 20
-59.8
 10
13.0
 20
-55.0
  0
LWPOLYLINE
  5
91
330
17
100
AcDbEntity
  8
0
 62
0
100
AcDbPolyline
 90
5
 70
0
 10
-5.0
 20
-55.0
 10
-13.0
 20
-55.0
 10
-13.0
 20
-59.8
 10
-5.0
 20
-59.8
 10
-5.0
 20
-55.0
  0
LWPOLYLINE
  5
92
330
17
100
AcDbEntity
  8
0
 62
0
100
AcDbPolyline
 90
5
 70
0
 10
55.0
 20
5.0
 10
59.8
 20
5.0
 10
59.8
 20
13.0
 10
55.0
 20
13.0
 10
55.0
 20
5.0
  0
LWPOLYLINE
  5
93
330
17
100
AcDbEntity
  8
0
 62
0
100
AcDbPolyline
 90
5
 70
0
 10
55.0
 20
-13.0
 10
59.8
 20
-13.0
 10
59.8
 20
-5.0
 10
55.0
 20
-5.0
 10
55.0
 20
-13.0
  0
ENDSEC
  0
SECTION
  2
OBJECTS
  0
DICTIONARY
  5
A
330
0
100
AcDbDictionary
280
0
281
1
  3
ACAD_COLOR
350
B
  3
ACAD_GROUP
350
C
  3
ACAD_LAYOUT
350
D
  3
ACAD_MATERIAL
350
E
  3
ACAD_MLEADERSTYLE
350
F
  3
ACAD_MLINESTYLE
350
10
  3
ACAD_PLOTSETTINGS
350
11
  3
ACAD_PLOTSTYLENAME
350
12
  3
ACAD_SCALELIST
350
14
  3
ACAD_TABLESTYLE
350
15
  3
ACAD_VISUALSTYLE
350
16
  3
EZDXF_META
350
2D
  0
DICTIONARY
  5
B
330
A
100
AcDbDictionary
280
0
281
1
  0
DICTIONARY
  5
C
330
A
100
AcDbDictionary
280
0
281
1
  0
DICTIONARY
  5
D
330
A
100
AcDbDictionary
280
0
281
1
  3
Model
350
1A
  3
Layout1
350
1E
  0
DICTIONARY
  5
E
330
A
100
AcDbDictionary
280
0
281
1
  3
ByBlock
350
1F
  3
ByLayer
350
20
  3
Global
350
21
  0
DICTIONARY
  5
F
330
A
100
AcDbDictionary
280
0
281
1
  3
Standard
350
2C
  0
DICTIONARY
  5
10
330
A
100
AcDbDictionary
280
0
281
1
  3
Standard
350
22
  0
DICTIONARY
  5
11
330
A
100
AcDbDictionary
280
0
281
1
  0
ACDBDICTIONARYWDFLT
  5
12
330
A
100
AcDbDictionary
280
0
281
1
  3
Normal
350
13
100
AcDbDictionaryWithDefault
340
13
  0
ACDBPLACEHOLDER
  5
13
330
12
  0
DICTIONARY
  5
14
330
A
100
AcDbDictionary
280
0
281
1
  0
DICTIONARY
  5
15
330
A
100
AcDbDictionary
280
0
281
1
  0
DICTIONARY
  5
16
330
A
100
AcDbDictionary
280
0
281
1
  0
LAYOUT
  5
1A
330
D
100
AcDbPlotSettings
  1

  2
Adobe PDF
  4
A3
  6

 40
7.5
 41
20.0
 42
7.5
 43
20.0
 44
420.0
 45
297.0
 46
0.0
 47
0.0
 48
0.0
 49
0.0
140
0.0
141
0.0
142
1.0
143
1.0
 70
1024
 72
1
 73
0
 74
5
  7

 75
16
 76
0
 77
2
 78
300
147
1.0
148
0.0
149
0.0
100
AcDbLayout
  1
Model
 70
1
 71
0
 10
0.0
 20
0.0
 11
420.0
 21
297.0
 12
0.0
 22
0.0
 32
0.0
 14
1e+20
 24
1e+20
 34
1e+20
 15
-1e+20
 25
-1e+20
 35
-1e+20
146
0.0
 13
0.0
 23
0.0
 33
0.0
 16
1.0
 26
0.0
 36
0.0
 17
0.0
 27
1.0
 37
0.0
 76
1
330
17
  0
LAYOUT
  5
1E
330
D
100
AcDbPlotSettings
  1

  2
Adobe PDF
  4
A3
  6

 40
7.5
 41
20.0
 42
7.5
 43
20.0
 44
420.0
 45
297.0
 46
0.0
 47
0.0
 48
0.0
 49
0.0
140
0.0
141
0.0
142
1.0
143
1.0
 70
0
 72
1
 73
0
 74
5
  7

 75
16
 76
0
 77
2
 78
300
147
1.0
148
0.0
149
0.0
100
AcDbLayout
  1
Layout1
 70
1
 71
1
 10
0.0
 20
0.0
 11
420.0
 21
297.0
 12
0.0
 22
0.0
 32
0.0
 14
1e+20
 24
1e+20
 34
1e+20
 15
-1e+20
 25
-1e+20
 35
-1e+20
146
0.0
 13
0.0
 23
0.0
 33
0.0
 16
1.0
 26
0.0
 36
0.0
 17
0.0
 27
1.0
 37
0.0
 76
1
330
1B
  0
MATERIAL
  5
1F
102
{ACAD_REACTORS
330
E
102
}
330
E
100
AcDbMaterial
  1
ByBlock
  2

 70
0
 40
1.0
 71
1
 41
1.0
 91
-1023410177
 42
1.0
 72
1
  3

 73
1
 74
1
 75
1
 44
0.5
 73
0
 45
1.0
 46
1.0
 77
1
  4

 78
1
 79
1
170
1
 48
1.0
171
1
  6

172
1
173
1
174
1
140
1.0
141
1.0
175
1
  7

176
1
177
1
178
1
143
1.0
179
1
  8

270
1
271
1
272
1
145
1.0
146
1.0
273
1
  9

274
1
275
1
276
1
 42
1.0
 72
1
  3

 73
1
 74
1
 75
1
 94
63
  0
MATERIAL
  5
20
102
{ACAD_REACTORS
330
E
102
}
330
E
100
AcDbMaterial
  1
ByLayer
  2

 70
0
 40
1.0
 71
1
 41
1.0
 91
-1023410177
 42
1.0
 72
1
  3

 73
1
 74
1
 75
1
 44
0.5
 73
0
 45
1.0
 46
1.0
 77
1
  4

 78
1
 79
1
170
1
 48
1.0
171
1
  6

172
1
173
1
174
1
140
1.0
141
1.0
175
1
  7

176
1
177
1
178
1
143
1.0
179
1
  8

270
1
271
1
272
1
145
1.0
146
1.0
273
1
  9

274
1
275
1
276
1
 42
1.0
 72
1
  3

 73
1
 74
1
 75
1
 94
63
  0
MATERIAL
  5
21
102
{ACAD_REACTORS
330
E
102
}
330
E
100
AcDbMaterial
  1
Global
  2

 70
0
 40
1.0
 71
1
 41
1.0
 91
-1023410177
 42
1.0
 72
1
  3

 73
1
 74
1
 75
1
 44
0.5
 73
0
 45
1.0
 46
1.0
 77
1
  4

 78
1
 79
1
170
1
 48
1.0
171
1
  6

172
1
173
1
174
1
140
1.0
141
1.0
175
1
  7

176
1
177
1
178
1
143
1.0
179
1
  8

270
1
271
1
272
1
145
1.0
146
1.0
273
1
  9

274
1
275
1
276
1
 42
1.0
 72
1
  3

 73
1
 74
1
 75
1
 94
63
  0
MLINESTYLE
  5
22
102
{ACAD_REACTORS
330
10
102
}
330
10
100
AcDbMlineStyle
  2
Standard
 70
0
  3

 62
256
 51
90.0
 52
90.0
 71
2
 49
0.5
 62
256
  6
BYLAYER
 49
-0.5
 62
256
  6
BYLAYER
  0
MLEADERSTYLE
  5
2C
102
{ACAD_REACTORS
330
F
102
}
330
F
100
AcDbMLeaderStyle
179
2
170
2
171
1
172
0
 90
2
 40
0.0
 41
0.0
173
1
 91
-1056964608
 92
-2
290
1
 42
2.0
291
1
 43
8.0
  3
Standard
 44
4.0
300

342
29
174
1
175
1
176
0
178
1
 93
-1056964608
 45
4.0
292
0
297
0
 46
4.0
 94
-1056964608
 47
1.0
 49
1.0
140
1.0
294
1
141
0.0
177
0
142
1.0
295
0
296
0
143
3.75
271
0
272
9
273
9
  0
DICTIONARY
  5
2D
330
A
100
AcDbDictionary
281
1
  3
CREATED_BY_EZDXF
350
2E
  3
WRITTEN_BY_EZDXF
350
96
  0
DICTIONARYVAR
  5
2E
330
2D
100
DictionaryVariables
280
0
  1
1.1.1 @ 2023-11-04T19:52:59.931779+00:00
  0
DICTIONARYVAR
  5
96
330
2D
100
DictionaryVariables
280
0
  1
1.1.1 @ 2023-11-04T19:52:59.948546+00:00
  0
ENDSEC
  0
EOF
