  0
SECTION
  2
HEADER
  9
$ACADVER
  1
AC1024
  9
$ACADMAINTVER
 70
6
  9
$DWGCODEPAGE
  3
ANSI_1252
  9
$LASTSAVEDBY
  1
ezdxf
  9
$INSBASE
 10
0.0
 20
0.0
 30
0.0
  9
$EXTMIN
 10
1e+20
 20
1e+20
 30
1e+20
  9
$EXTMAX
 10
-1e+20
 20
-1e+20
 30
-1e+20
  9
$LIMMIN
 10
0.0
 20
0.0
  9
$LIMMAX
 10
420.0
 20
297.0
  9
$ORTHOMODE
 70
0
  9
$REGENMODE
 70
1
  9
$FILLMODE
 70
1
  9
$QTEXTMODE
 70
0
  9
$MIRRTEXT
 70
1
  9
$LTSCALE
 40
1.0
  9
$ATTMODE
 70
1
  9
$TEXTSIZE
 40
2.5
  9
$TRACEWID
 40
1.0
  9
$TEXTSTYLE
  7
Standard
  9
$CLAYER
  8
0
  9
$CELTYPE
  6
ByLayer
  9
$CECOLOR
 62
256
  9
$CELTSCALE
 40
1.0
  9
$DISPSILH
 70
0
  9
$DIMSCALE
 40
1.0
  9
$DIMASZ
 40
2.5
  9
$DIMEXO
 40
0.625
  9
$DIMDLI
 40
3.75
  9
$DIMRND
 40
0.0
  9
$DIMDLE
 40
0.0
  9
$DIMEXE
 40
1.25
  9
$DIMTP
 40
0.0
  9
$DIMTM
 40
0.0
  9
$DIMTXT
 40
2.5
  9
$DIMCEN
 40
2.5
  9
$DIMTSZ
 40
0.0
  9
$DIMTOL
 70
0
  9
$DIMLIM
 70
0
  9
$DIMTIH
 70
0
  9
$DIMTOH
 70
0
  9
$DIMSE1
 70
0
  9
$DIMSE2
 70
0
  9
$DIMTAD
 70
1
  9
$DIMZIN
 70
8
  9
$DIMBLK
  1

  9
$DIMASO
 70
1
  9
$DIMSHO
 70
1
  9
$DIMPOST
  1

  9
$DIMAPOST
  1

  9
$DIMALT
 70
0
  9
$DIMALTD
 70
3
  9
$DIMALTF
 40
0.03937007874
  9
$DIMLFAC
 40
1.0
  9
$DIMTOFL
 70
1
  9
$DIMTVP
 40
0.0
  9
$DIMTIX
 70
0
  9
$DIMSOXD
 70
0
  9
$DIMSAH
 70
0
  9
$DIMBLK1
  1

  9
$DIMBLK2
  1

  9
$DIMSTYLE
  2
ISO-25
  9
$DIMCLRD
 70
0
  9
$DIMCLRE
 70
0
  9
$DIMCLRT
 70
0
  9
$DIMTFAC
 40
1.0
  9
$DIMGAP
 40
0.625
  9
$DIMJUST
 70
0
  9
$DIMSD1
 70
0
  9
$DIMSD2
 70
0
  9
$DIMTOLJ
 70
0
  9
$DIMTZIN
 70
8
  9
$DIMALTZ
 70
0
  9
$DIMALTTZ
 70
0
  9
$DIMUPT
 70
0
  9
$DIMDEC
 70
2
  9
$DIMTDEC
 70
2
  9
$DIMALTU
 70
2
  9
$DIMALTTD
 70
3
  9
$DIMTXSTY
  7
Standard
  9
$DIMAUNIT
 70
0
  9
$DIMADEC
 70
0
  9
$DIMALTRND
 40
0.0
  9
$DIMAZIN
 70
0
  9
$DIMDSEP
 70
44
  9
$DIMATFIT
 70
3
  9
$DIMFRAC
 70
0
  9
$DIMLDRBLK
  1

  9
$DIMLUNIT
 70
2
  9
$DIMLWD
 70
-2
  9
$DIMLWE
 70
-2
  9
$DIMTMOVE
 70
0
  9
$DIMFXL
 40
1.0
  9
$DIMFXLON
 70
0
  9
$DIMJOGANG
 40
0.785398163397
  9
$DIMTFILL
 70
0
  9
$DIMTFILLCLR
 70
0
  9
$DIMARCSYM
 70
0
  9
$DIMLTYPE
  6

  9
$DIMLTEX1
  6

  9
$DIMLTEX2
  6

  9
$DIMTXTDIRECTION
 70
0
  9
$LUNITS
 70
2
  9
$LUPREC
 70
4
  9
$SKETCHINC
 40
1.0
  9
$FILLETRAD
 40
10.0
  9
$AUNITS
 70
0
  9
$AUPREC
 70
2
  9
$MENU
  1
.
  9
$ELEVATION
 40
0.0
  9
$PELEVATION
 40
0.0
  9
$THICKNESS
 40
0.0
  9
$LIMCHECK
 70
0
  9
$CHAMFERA
 40
0.0
  9
$CHAMFERB
 40
0.0
  9
$CHAMFERC
 40
0.0
  9
$CHAMFERD
 40
0.0
  9
$SKPOLY
 70
0
  9
$TDCREATE
 40
2460681.8196527776
  9
$TDUCREATE
 40
2458532.153996898
  9
$TDUPDATE
 40
2460681.8196643516
  9
$TDUUPDATE
 40
2458532.1544311
  9
$TDINDWG
 40
0.0
  9
$TDUSRTIMER
 40
0.0
  9
$USRTIMER
 70
1
  9
$ANGBASE
 50
0.0
  9
$ANGDIR
 70
0
  9
$PDMODE
 70
0
  9
$PDSIZE
 40
0.0
  9
$PLINEWID
 40
0.0
  9
$SPLFRAME
 70
0
  9
$SPLINETYPE
 70
6
  9
$SPLINESEGS
 70
8
  9
$HANDSEED
  5
62
  9
$SURFTAB1
 70
6
  9
$SURFTAB2
 70
6
  9
$SURFTYPE
 70
6
  9
$SURFU
 70
6
  9
$SURFV
 70
6
  9
$UCSBASE
  2

  9
$UCSNAME
  2

  9
$UCSORG
 10
0.0
 20
0.0
 30
0.0
  9
$UCSXDIR
 10
1.0
 20
0.0
 30
0.0
  9
$UCSYDIR
 10
0.0
 20
1.0
 30
0.0
  9
$UCSORTHOREF
  2

  9
$UCSORTHOVIEW
 70
0
  9
$UCSORGTOP
 10
0.0
 20
0.0
 30
0.0
  9
$UCSORGBOTTOM
 10
0.0
 20
0.0
 30
0.0
  9
$UCSORGLEFT
 10
0.0
 20
0.0
 30
0.0
  9
$UCSORGRIGHT
 10
0.0
 20
0.0
 30
0.0
  9
$UCSORGFRONT
 10
0.0
 20
0.0
 30
0.0
  9
$UCSORGBACK
 10
0.0
 20
0.0
 30
0.0
  9
$PUCSBASE
  2

  9
$PUCSNAME
  2

  9
$PUCSORG
 10
0.0
 20
0.0
 30
0.0
  9
$PUCSXDIR
 10
1.0
 20
0.0
 30
0.0
  9
$PUCSYDIR
 10
0.0
 20
1.0
 30
0.0
  9
$PUCSORTHOREF
  2

  9
$PUCSORTHOVIEW
 70
0
  9
$PUCSORGTOP
 10
0.0
 20
0.0
 30
0.0
  9
$PUCSORGBOTTOM
 10
0.0
 20
0.0
 30
0.0
  9
$PUCSORGLEFT
 10
0.0
 20
0.0
 30
0.0
  9
$PUCSORGRIGHT
 10
0.0
 20
0.0
 30
0.0
  9
$PUCSORGFRONT
 10
0.0
 20
0.0
 30
0.0
  9
$PUCSORGBACK
 10
0.0
 20
0.0
 30
0.0
  9
$USERI1
 70
0
  9
$USERI2
 70
0
  9
$USERI3
 70
0
  9
$USERI4
 70
0
  9
$USERI5
 70
0
  9
$USERR1
 40
0.0
  9
$USERR2
 40
0.0
  9
$USERR3
 40
0.0
  9
$USERR4
 40
0.0
  9
$USERR5
 40
0.0
  9
$WORLDVIEW
 70
1
  9
$SHADEDGE
 70
3
  9
$SHADEDIF
 70
70
  9
$TILEMODE
 70
1
  9
$MAXACTVP
 70
64
  9
$PINSBASE
 10
0.0
 20
0.0
 30
0.0
  9
$PLIMCHECK
 70
0
  9
$PEXTMIN
 10
1e+20
 20
1e+20
 30
1e+20
  9
$PEXTMAX
 10
-1e+20
 20
-1e+20
 30
-1e+20
  9
$PLIMMIN
 10
0.0
 20
0.0
  9
$PLIMMAX
 10
420.0
 20
297.0
  9
$UNITMODE
 70
0
  9
$VISRETAIN
 70
1
  9
$PLINEGEN
 70
0
  9
$PSLTSCALE
 70
1
  9
$TREEDEPTH
 70
3020
  9
$CMLSTYLE
  2
Standard
  9
$CMLJUST
 70
0
  9
$CMLSCALE
 40
20.0
  9
$PROXYGRAPHICS
 70
1
  9
$MEASUREMENT
 70
1
  9
$CELWEIGHT
370
-1
  9
$ENDCAPS
280
0
  9
$JOINSTYLE
280
0
  9
$LWDISPLAY
290
0
  9
$INSUNITS
 70
4
  9
$HYPERLINKBASE
  1

  9
$STYLESHEET
  1

  9
$XEDIT
290
1
  9
$CEPSNTYPE
380
0
  9
$PSTYLEMODE
290
1
  9
$FINGERPRINTGUID
  2
{1F3F0384-2E18-434A-AC49-40C2EF7C0FF0}
  9
$VERSIONGUID
  2
{99F2C1CE-8F27-4BE2-BF91-E31AF3866CF5}
  9
$EXTNAMES
290
1
  9
$PSVPSCALE
 40
0.0
  9
$OLESTARTUP
290
0
  9
$SORTENTS
280
127
  9
$INDEXCTL
280
0
  9
$HIDETEXT
280
1
  9
$XCLIPFRAME
280
1
  9
$HALOGAP
280
0
  9
$OBSCOLOR
 70
257
  9
$OBSLTYPE
280
0
  9
$INTERSECTIONDISPLAY
280
0
  9
$INTERSECTIONCOLOR
 70
257
  9
$DIMASSOC
280
2
  9
$PROJECTNAME
  1

  9
$CAMERADISPLAY
290
0
  9
$LENSLENGTH
 40
50.0
  9
$CAMERAHEIGHT
 40
0.0
  9
$STEPSPERSEC
 40
24.0
  9
$STEPSIZE
 40
100.0
  9
$3DDWFPREC
 40
2.0
  9
$PSOLWIDTH
 40
0.005
  9
$PSOLHEIGHT
 40
0.08
  9
$LOFTANG1
 40
1.570796326795
  9
$LOFTANG2
 40
1.570796326795
  9
$LOFTMAG1
 40
0.0
  9
$LOFTMAG2
 40
0.0
  9
$LOFTPARAM
 70
7
  9
$LOFTNORMALS
280
1
  9
$LATITUDE
 40
37.795
  9
$LONGITUDE
 40
-122.394
  9
$NORTHDIRECTION
 40
0.0
  9
$TIMEZONE
 70
-8000
  9
$LIGHTGLYPHDISPLAY
280
1
  9
$TILEMODELIGHTSYNCH
280
1
  9
$CMATERIAL
347
20
  9
$SOLIDHIST
280
0
  9
$SHOWHIST
280
1
  9
$DWFFRAME
280
2
  9
$DGNFRAME
280
2
  9
$REALWORLDSCALE
290
1
  9
$INTERFERECOLOR
 62
256
  9
$CSHADOW
280
0
  9
$SHADOWPLANELOCATION
 40
0.0
  0
ENDSEC
  0
SECTION
  2
CLASSES
  0
CLASS
  1
ACDBDICTIONARYWDFLT
  2
AcDbDictionaryWithDefault
  3
ObjectDBX Classes
 90
0
 91
0
280
0
281
0
  0
CLASS
  1
SUN
  2
AcDbSun
  3
SCENEOE
 90
1153
 91
0
280
0
281
0
  0
CLASS
  1
VISUALSTYLE
  2
AcDbVisualStyle
  3
ObjectDBX Classes
 90
4095
 91
0
280
0
281
0
  0
CLASS
  1
MATERIAL
  2
AcDbMaterial
  3
ObjectDBX Classes
 90
1153
 91
0
280
0
281
0
  0
CLASS
  1
SCALE
  2
AcDbScale
  3
ObjectDBX Classes
 90
1153
 91
0
280
0
281
0
  0
CLASS
  1
TABLESTYLE
  2
AcDbTableStyle
  3
ObjectDBX Classes
 90
4095
 91
0
280
0
281
0
  0
CLASS
  1
MLEADERSTYLE
  2
AcDbMLeaderStyle
  3
ACDB_MLEADERSTYLE_CLASS
 90
4095
 91
0
280
0
281
0
  0
CLASS
  1
DICTIONARYVAR
  2
AcDbDictionaryVar
  3
ObjectDBX Classes
 90
0
 91
0
280
0
281
0
  0
CLASS
  1
CELLSTYLEMAP
  2
AcDbCellStyleMap
  3
ObjectDBX Classes
 90
1152
 91
0
280
0
281
0
  0
CLASS
  1
MENTALRAYRENDERSETTINGS
  2
AcDbMentalRayRenderSettings
  3
SCENEOE
 90
1024
 91
0
280
0
281
0
  0
CLASS
  1
ACDBDETAILVIEWSTYLE
  2
AcDbDetailViewStyle
  3
ObjectDBX Classes
 90
1025
 91
0
280
0
281
0
  0
CLASS
  1
ACDBSECTIONVIEWSTYLE
  2
AcDbSectionViewStyle
  3
ObjectDBX Classes
 90
1025
 91
0
280
0
281
0
  0
CLASS
  1
RASTERVARIABLES
  2
AcDbRasterVariables
  3
ISM
 90
0
 91
0
280
0
281
0
  0
CLASS
  1
ACDBPLACEHOLDER
  2
AcDbPlaceHolder
  3
ObjectDBX Classes
 90
0
 91
0
280
0
281
0
  0
CLASS
  1
LAYOUT
  2
AcDbLayout
  3
ObjectDBX Classes
 90
0
 91
0
280
0
281
0
  0
ENDSEC
  0
SECTION
  2
TABLES
  0
TABLE
  2
VPORT
  5
8
330
0
100
AcDbSymbolTable
 70
1
  0
VPORT
  5
23
330
8
100
AcDbSymbolTableRecord
100
AcDbViewportTableRecord
  2
*Active
 70
0
 10
0.0
 20
0.0
 11
1.0
 21
1.0
 12
0.0
 22
0.0
 13
0.0
 23
0.0
 14
0.5
 24
0.5
 15
0.5
 25
0.5
 16
0.0
 26
0.0
 36
1.0
 17
0.0
 27
0.0
 37
0.0
 40
1000.0
 41
1.34
 42
50.0
 43
0.0
 44
0.0
 50
0.0
 51
0.0
 71
0
 72
1000
 73
1
 74
3
 75
0
 76
0
 77
0
 78
0
281
0
 65
0
146
0.0
  0
ENDTAB
  0
TABLE
  2
LTYPE
  5
2
330
0
100
AcDbSymbolTable
 70
3
  0
LTYPE
  5
24
330
2
100
AcDbSymbolTableRecord
100
AcDbLinetypeTableRecord
  2
ByBlock
 70
0
  3

 72
65
 73
0
 40
0.0
  0
LTYPE
  5
25
330
2
100
AcDbSymbolTableRecord
100
AcDbLinetypeTableRecord
  2
ByLayer
 70
0
  3

 72
65
 73
0
 40
0.0
  0
LTYPE
  5
26
330
2
100
AcDbSymbolTableRecord
100
AcDbLinetypeTableRecord
  2
Continuous
 70
0
  3

 72
65
 73
0
 40
0.0
  0
ENDTAB
  0
TABLE
  2
LAYER
  5
1
330
0
100
AcDbSymbolTable
 70
3
  0
LAYER
  5
27
330
1
100
AcDbSymbolTableRecord
100
AcDbLayerTableRecord
  2
0
 70
0
 62
7
  6
Continuous
370
-3
390
13
347
21
  0
LAYER
  5
28
330
1
100
AcDbSymbolTableRecord
100
AcDbLayerTableRecord
  2
Defpoints
 70
0
 62
7
  6
Continuous
290
0
370
-3
390
13
347
21
  0
LAYER
  5
2F
330
1
100
AcDbSymbolTableRecord
100
AcDbLayerTableRecord
  2
default
 70
0
 62
7
  6
Continuous
370
-3
390
13
347
21
  0
ENDTAB
  0
TABLE
  2
STYLE
  5
5
330
0
100
AcDbSymbolTable
 70
1
  0
STYLE
  5
29
330
5
100
AcDbSymbolTableRecord
100
AcDbTextStyleTableRecord
  2
Standard
 70
0
 40
0.0
 41
1.0
 50
0.0
 71
0
 42
2.5
  3
txt
  4

  0
ENDTAB
  0
TABLE
  2
VIEW
  5
7
330
0
100
AcDbSymbolTable
 70
0
  0
ENDTAB
  0
TABLE
  2
UCS
  5
6
330
0
100
AcDbSymbolTable
 70
0
  0
ENDTAB
  0
TABLE
  2
APPID
  5
3
330
0
100
AcDbSymbolTable
 70
3
  0
APPID
  5
2A
330
3
100
AcDbSymbolTableRecord
100
AcDbRegAppTableRecord
  2
ACAD
 70
0
  0
APPID
  5
5F
330
3
100
AcDbSymbolTableRecord
100
AcDbRegAppTableRecord
  2
HATCHBACKGROUNDCOLOR
 70
0
  0
APPID
  5
60
330
3
100
AcDbSymbolTableRecord
100
AcDbRegAppTableRecord
  2
EZDXF
 70
0
  0
ENDTAB
  0
TABLE
  2
DIMSTYLE
  5
4
330
0
100
AcDbSymbolTable
 70
1
100
AcDbDimStyleTable
  0
DIMSTYLE
105
2B
330
4
100
AcDbSymbolTableRecord
100
AcDbDimStyleTableRecord
  2
Standard
 70
0
 40
1.0
 41
2.5
 42
0.625
 43
3.75
 44
1.25
 45
0.0
 46
0.0
 47
0.0
 48
0.0
 49
2.5
140
2.5
141
2.5
142
0.0
143
0.03937007874
144
1.0
145
0.0
146
1.0
147
0.625
148
0.0
 69
0
 70
0
 71
0
 72
0
 73
0
 74
0
 75
0
 76
0
 77
1
 78
8
 79
3
170
0
171
3
172
1
173
0
174
0
175
0
176
0
177
0
178
0
179
2
271
2
272
2
273
2
274
3
275
0
276
0
277
2
278
44
279
0
280
0
281
0
282
0
283
0
284
8
285
0
286
0
288
0
289
3
290
0
371
-2
372
-2
  0
ENDTAB
  0
TABLE
  2
BLOCK_RECORD
  5
9
330
0
100
AcDbSymbolTable
 70
2
  0
BLOCK_RECORD
  5
17
330
9
100
AcDbSymbolTableRecord
100
AcDbBlockTableRecord
  2
*Model_Space
340
1A
 70
0
280
1
281
0
  0
BLOCK_RECORD
  5
1B
330
9
100
AcDbSymbolTableRecord
100
AcDbBlockTableRecord
  2
*Paper_Space
340
1E
 70
0
280
1
281
0
  0
ENDTAB
  0
ENDSEC
  0
SECTION
  2
BLOCKS
  0
BLOCK
  5
18
330
17
100
AcDbEntity
  8
0
100
AcDbBlockBegin
  2
*Model_Space
 70
0
 10
0.0
 20
0.0
 30
0.0
  3
*Model_Space
  1

  0
ENDBLK
  5
19
330
17
100
AcDbEntity
  8
0
100
AcDbBlockEnd
  0
BLOCK
  5
1C
330
1B
100
AcDbEntity
  8
0
100
AcDbBlockBegin
  2
*Paper_Space
 70
0
 10
0.0
 20
0.0
 30
0.0
  3
*Paper_Space
  1

  0
ENDBLK
  5
1D
330
1B
100
AcDbEntity
  8
0
100
AcDbBlockEnd
  0
ENDSEC
  0
SECTION
  2
ENTITIES
  0
LWPOLYLINE
  5
30
330
17
100
AcDbEntity
  8
0
 62
0
100
AcDbPolyline
 90
103
 70
0
 10
95.32479934797337
 20
72.19999623807496
 10
95.31820368898559
 20
51.7499973017111
 10
59.69820554163694
 20
51.76148568181597
 10
59.68843622570834
 20
21.471487257245755
 10
95.308434373057
 20
21.459998877140883
 10
95.30180323619692
 20
0.8999999464983031
 10
9.991807673302056
 20
0.9275146491020827
 10
9.993449762503385
 20
6.01885161525081
 10
9.821797015796074
 20
5.916042155349334
 10
9.289436020892778
 20
5.664464233608584
 10
8.734979541229919
 20
5.466278230667676
 10
8.163767295803394
 20
5.323392786074427
 10
7.581300370793035
 20
5.237183964769391
 10
6.993188241095511
 20
5.208482004828275
 10
6.405094748014593
 20
5.237563321815399
 10
5.822683553373254
 20
5.32414784675071
 10
5.251563595354239
 20
5.467401723327168
 10
4.6972350713591995
 20
5.665945338402803
 10
4.165036468101
 20
5.917866608429463
 10
3.6600931490583655
 20
6.220739393862608
 10
3.187267994423772
 20
6.571646864211424
 10
2.751114568908873
 20
6.967209588710897
 10
2.3558332684271086
 20
7.4036180820875295
 10
2.005230867984828
 20
7.876669491984952
 10
1.7026838603570909
 20
8.381808074729648
 10
1.4511059386163403
 20
8.914169069632944
 10
1.2529199356754344
 20
9.468625549295808
 10
1.1100344910821835
 20
10.039837794722331
 10
1.0238256697771408
 20
10.622304719732693
 10
0.9951237098360277
 20
11.210416849430217
 10
1.0242050268231484
 20
11.798510342511136
 10
1.110789551758467
 20
12.380921537152478
 10
1.2540434283349242
 20
12.952041495171489
 10
1.4525870434105617
 20
13.506370019166535
 10
1.7045083134372199
 20
14.038568622424734
 10
2.0073810988703578
 20
14.543511941467365
 10
2.358288569219175
 20
15.016337096101957
 10
2.753851293718645
 20
15.452490521616848
 10
3.1902597870952842
 20
15.847771822098622
 10
3.663311196992712
 20
16.198374222540895
 10
4.168449779737394
 20
16.500921230168643
 10
4.700810774640691
 20
16.75249915190939
 10
5.255267254303562
 20
16.9506851548503
 10
5.826479499730088
 20
17.09357059944355
 10
6.408946424740447
 20
17.179779420748584
 10
6.997058554437972
 20
17.2084813806897
 10
7.585152047518888
 20
17.179400063702577
 10
8.167563242160227
 20
17.092815538767265
 10
8.738683200179244
 20
16.94956166219081
 10
9.293011724174281
 20
16.75101804711517
 10
9.825210327432481
 20
16.499096777088514
 10
9.99679672096081
 20
16.396176613595934
 10
9.99843881016214
 20
21.487513579744665
 10
43.85843704905114
 20
21.47659284559669
 10
43.868206364979734
 20
51.766591270166906
 10
10.008208126090736
 20
51.77751200431488
 10
10.00983247635591
 20
56.813848973324255
 10
9.838179729648601
 20
56.711039513422776
 10
9.305818734745303
 20
56.459461591682015
 10
8.751362255082446
 20
56.26127558874113
 10
8.18015000965592
 20
56.11839014414787
 10
7.597683084645562
 20
56.03218132284283
 10
7.009570954948036
 20
56.003479362901714
 10
6.42147746186712
 20
56.032560679888846
 10
5.83906626722578
 20
56.11914520482415
 10
5.267946309206764
 20
56.262399081400616
 10
4.713617785211726
 20
56.46094269647624
 10
4.181419181953526
 20
56.712863966502894
 10
3.676475862910893
 20
57.015736751936046
 10
3.2036507082762977
 20
57.36664422228485
 10
2.767497282761399
 20
57.76220694678433
 10
2.3722159822796343
 20
58.198615440160964
 10
2.0216135818373537
 20
58.671666850058386
 10
1.7190665742096165
 20
59.17680543280308
 10
1.467488652468866
 20
59.70916642770638
 10
1.26930264952796
 20
60.26362290736924
 10
1.1264172049347092
 20
60.83483515279576
 10
1.0402083836296665
 20
61.41730207780614
 10
1.0115064236885534
 20
62.00541420750366
 10
1.040587740675674
 20
62.59350770058458
 10
1.1271722656109926
 20
63.175918895225905
 10
1.2704261421874499
 20
63.74703885324493
 10
1.4689697572630873
 20
64.30136737723997
 10
1.7208910272897473
 20
64.83356598049818
 10
2.0237638127228834
 20
65.33850929954079
 10
2.3746712830717005
 20
65.8113344541754
 10
2.7702340075711707
 20
66.24748787969027
 10
3.20664250094781
 20
66.64276918017204
 10
3.679693910845238
 20
66.99337158061435
 10
4.184832493589919
 20
67.29591858824207
 10
4.7171934884932165
 20
67.54749650998282
 10
5.271649968156089
 20
67.74568251292374
 10
5.842862213582614
 20
67.88856795751698
 10
6.425329138592972
 20
67.97477677882203
 10
7.013441268290498
 20
68.00347873876314
 10
7.601534761371414
 20
67.97439742177602
 10
8.183945956012753
 20
67.8878128968407
 10
8.75506591403177
 20
67.74455902026425
 10
9.309394438026807
 20
67.5460154051886
 10
9.841593041285009
 20
67.29409413516194
 10
10.013179434813336
 20
67.19117397166937
 10
10.014803785078513
 20
72.22751094067874
 10
95.32479934797337
 20
72.19999623807496
  0
LWPOLYLINE
  5
31
330
17
100
AcDbEntity
  8
0
 62
0
100
AcDbPolyline
 90
65
 70
0
 10
6.141578039887677
 20
64.87458078187808
 10
5.864349800056249
 20
64.77548778040763
 10
5.5981693026045924
 20
64.64969881953725
 10
5.3456000112322455
 20
64.49842531572338
 10
5.109074306283538
 20
64.32312411550224
 10
4.890870059595218
 20
64.12548346526134
 10
4.693088697345476
 20
63.9074067525039
 10
4.517634962171076
 20
63.67099417518661
 10
4.366198569454507
 20
63.4185225156653
 10
4.24023793444117
 20
63.15242321403619
 10
4.140966126903358
 20
62.87525895203866
 10
4.06933918861513
 20
62.58969897302916
 10
4.026046926147471
 20
62.29849337570849
 10
4.01150626765391
 20
62.004446629168044
 10
4.025857247624467
 20
61.710390564319255
 10
4.068961658276988
 20
61.41915710181408
 10
4.140404380573614
 20
61.13355097910083
 10
4.239497382044059
 20
60.85632273926939
 10
4.365286342914443
 20
60.590142241817745
 10
4.516559846728311
 20
60.337572950445406
 10
4.691861046949457
 20
60.10104724549669
 10
4.889501697190333
 20
59.88284299880837
 10
5.107578409947783
 20
59.68506163655863
 10
5.343990987265073
 20
59.50960790138424
 10
5.596462646786389
 20
59.35817150866767
 10
5.862561948415497
 20
59.23221087365434
 10
6.1397262104130155
 20
59.132939066116506
 10
6.425286189422524
 20
59.06131212782829
 10
6.716491786743194
 20
59.018019865360614
 10
7.010538533283651
 20
59.00347920686707
 10
7.3045945981324145
 20
59.017830186837614
 10
7.595828060637594
 20
59.060934597490146
 10
7.881434183350856
 20
59.132377319786755
 10
8.158662423182285
 20
59.23147032125722
 10
8.42484292063394
 20
59.3572592821276
 10
8.677412212006288
 20
59.50853278594148
 10
8.913937916954996
 20
59.6838339861626
 10
9.132142163643316
 20
59.88147463640348
 10
9.329923525893058
 20
60.09955134916093
 10
9.505377261067459
 20
60.33596392647823
 10
9.656813653784027
 20
60.58843558599955
 10
9.782774288797363
 20
60.854534887628645
 10
9.882046096335175
 20
61.13169914962617
 10
9.953673034623403
 20
61.41725912863566
 10
9.996965297091064
 20
61.70846472595633
 10
10.011505955584624
 20
62.00251147249682
 10
9.997154975614068
 20
62.29656753734557
 10
9.954050564961546
 20
62.58780099985074
 10
9.882607842664921
 20
62.873407122564004
 10
9.783514841194474
 20
63.150635362395434
 10
9.657725880324094
 20
63.41681585984709
 10
9.506452376510223
 20
63.66938515121943
 10
9.33115117628909
 20
63.90591085616815
 10
9.133510526048202
 20
64.12411510285645
 10
8.915433813290752
 20
64.3218964651062
 10
8.679021235973462
 20
64.49735020028062
 10
8.426549576452144
 20
64.64878659299718
 10
8.160450274823038
 20
64.77474722801051
 10
7.8832860128255176
 20
64.87401903554833
 10
7.59772603381601
 20
64.94564597383656
 10
7.306520436495341
 20
64.98893823630422
 10
7.0124736899548825
 20
65.00347889479778
 10
6.71841762510612
 20
64.98912791482722
 10
6.42718416260094
 20
64.9460235041747
 10
6.141578039887677
 20
64.87458078187808
  0
LWPOLYLINE
  5
32
330
17
100
AcDbEntity
  8
0
 62
0
100
AcDbPolyline
 90
65
 70
0
 10
6.410801448748415
 20
14.151026146101266
 10
6.1251953260351515
 20
14.079583423804642
 10
5.847967086203723
 20
13.980490422334189
 10
5.581786588752067
 20
13.854701461463812
 10
5.32921729737972
 20
13.70342795764994
 10
5.092691592431012
 20
13.528126757428808
 10
4.8744873457426925
 20
13.33048610718792
 10
4.67670598349295
 20
13.112409394430475
 10
4.50125224831855
 20
12.875996817113176
 10
4.349815855601982
 20
12.62352515759186
 10
4.223855220588645
 20
12.357425855962763
 10
4.124583413050832
 20
12.08026159396524
 10
4.052956474762604
 20
11.794701614955734
 10
4.009664212294945
 20
11.503496017635062
 10
3.9951235538013847
 20
11.209449271094602
 10
4.009474533771941
 20
10.915393206245842
 10
4.052578944424463
 20
10.624159743740663
 10
4.124021666721088
 20
10.338553621027401
 10
4.223114668191533
 20
10.061325381195967
 10
4.348903629061915
 20
9.795144883744317
 10
4.500177132875785
 20
9.542575592371971
 10
4.675478333096931
 20
9.30604988742326
 10
4.873118983337807
 20
9.087845640734944
 10
5.091195696095256
 20
8.890064278485205
 10
5.3276082734125465
 20
8.714610543310798
 10
5.580079932933863
 20
8.563174150594225
 10
5.84617923456297
 20
8.437213515580897
 10
6.12334349656049
 20
8.337941708043083
 10
6.408903475569997
 20
8.26631476975485
 10
6.700109072890668
 20
8.22302250728719
 10
6.994155819431126
 20
8.208481848793632
 10
7.288211884279889
 20
8.222832828764187
 10
7.579445346785067
 20
8.265937239416708
 10
7.86505146949833
 20
8.337379961713335
 10
8.14227970932976
 20
8.436472963183789
 10
8.408460206781415
 20
8.562261924054162
 10
8.661029498153763
 20
8.713535427868035
 10
8.89755520310247
 20
8.88883662808917
 10
9.11575944979079
 20
9.086477278330058
 10
9.313540812040532
 20
9.304553991087502
 10
9.488994547214933
 20
9.540966568404802
 10
9.640430939931502
 20
9.793438227926114
 10
9.766391574944837
 20
10.059537529555218
 10
9.86566338248265
 20
10.336701791552738
 10
9.937290320770877
 20
10.622261770562243
 10
9.980582583238537
 20
10.913467367882916
 10
9.995123241732099
 20
11.207514114423372
 10
9.98077226176154
 20
11.501570179272136
 10
9.93766785110902
 20
11.792803641777315
 10
9.866225128812395
 20
12.078409764490576
 10
9.767132127341949
 20
12.355638004322007
 10
9.641343166471566
 20
12.621818501773657
 10
9.490069662657698
 20
12.874387793146006
 10
9.314768462436565
 20
13.110913498094718
 10
9.117127812195676
 20
13.329117744783034
 10
8.899051099438225
 20
13.526899107032772
 10
8.662638522120936
 20
13.702352842207176
 10
8.410166862599619
 20
13.853789234923749
 10
8.144067560970512
 20
13.97974986993708
 10
7.866903298972992
 20
14.079021677474895
 10
7.5813433199634845
 20
14.150648615763124
 10
7.2901377226428155
 20
14.193940878230784
 10
6.996090976102356
 20
14.208481536724342
 10
6.702034911253595
 20
14.194130556753787
 10
6.410801448748415
 20
14.151026146101266
  0
LWPOLYLINE
  5
33
330
17
100
AcDbEntity
  8
0
 62
0
100
AcDbPolyline
 90
54
 70
0
 10
168.0158946478523
 20
88.6272004434598
 10
250.52583675430438
 20
126.88182047280951
 10
252.29593107405202
 20
104.86285441853718
 10
236.806241205661
 20
98.62157988675568
 10
239.06433346145496
 20
70.53219720638472
 10
255.34732046726117
 20
66.90530677948375
 10
257.1086003743709
 20
44.99598700253012
 10
169.56562865165128
 20
69.34939132215484
 10
169.20588639885926
 20
73.82438023327919
 10
169.04306135327928
 20
73.70809414198158
 10
168.53266611180928
 20
73.41450194677435
 10
167.99595149553485
 20
73.17235096024066
 10
167.43808635960883
 20
72.98397322875402
 10
166.86444325025025
 20
72.8511829328464
 10
166.28054666418745
 20
72.77525891565793
 10
165.69201984473457
 20
72.75693236697845
 10
165.1045306268844
 20
72.79637978149
 10
164.5237368529592
 20
72.89322125902677
 10
163.95523188449593
 20
73.04652416322108
 10
163.40449073511738
 20
73.25481210330166
 10
162.87681734315777
 20
73.51607915254378
 10
162.37729349183732
 20
73.82780916644012
 10
161.91072986891174
 20
74.1870000145479
 10
161.48161973711947
 20
74.59019249264618
 10
161.09409566160505
 20
75.03350363676341
 10
160.75188971105797
 20
75.51266411824324
 10
160.45829751585075
 20
76.02305935971324
 10
160.21614652931706
 20
76.55977397598765
 10
160.02776879783042
 20
77.11763911191368
 10
159.89497850192276
 20
77.69128222127227
 10
159.81905448473432
 20
78.27517880733507
 10
159.8007279360548
 20
78.86370562678795
 10
159.8401753505664
 20
79.45119484463808
 10
159.93701682810317
 20
80.03198861856333
 10
160.09031973229747
 20
80.60049358702659
 10
160.29860767237804
 20
81.15123473640514
 10
160.55987472162016
 20
81.67890812836475
 10
160.8716047355165
 20
82.1784319796852
 10
161.23079558362429
 20
82.64499560261075
 10
161.63398806172256
 20
83.07410573440305
 10
162.0772992058398
 20
83.46162980991747
 10
162.5564596873196
 20
83.80383576046455
 10
163.0668549287896
 20
84.09742795567178
 10
163.60356954506403
 20
84.33957894220548
 10
164.16143468099008
 20
84.5279566736921
 10
164.73507779034867
 20
84.66074696959974
 10
165.31897437641146
 20
84.7366709867882
 10
165.90750119586434
 20
84.7549975354677
 10
166.49499041371448
 20
84.71555012095612
 10
167.07578418763973
 20
84.61870864341937
 10
167.64428915610299
 20
84.46540573922506
 10
168.19503030548154
 20
84.25711779914448
 10
168.3743406773048
 20
84.16833581305494
 10
168.0158946478523
 20
88.6272004434598
  0
LWPOLYLINE
  5
34
330
17
100
AcDbEntity
  8
0
 62
0
100
AcDbPolyline
 90
4
 70
0
 10
222.8411535160044
 20
74.16389549472458
 10
221.37155053618676
 20
92.4449202767687
 10
192.61390735808627
 20
80.90342735596117
 10
222.8411535160044
 20
74.16389549472458
  0
LWPOLYLINE
  5
35
330
17
100
AcDbEntity
  8
0
 62
0
100
AcDbPolyline
 90
65
 70
0
 10
164.98059760064476
 20
81.6419608124576
 10
164.70166503268175
 20
81.54777194671428
 10
164.43330772454453
 20
81.42669645344742
 10
164.17811010380953
 20
81.27990035584381
 10
163.93852986306962
 20
81.10879738057027
 10
163.716874291011
 20
80.91503534281306
 10
163.51527805196187
 20
80.7004802769169
 10
163.33568262790797
 20
80.46719846545413
 10
163.1798176209598
 20
80.21743653979391
 10
163.04918409633876
 20
79.9535998438141
 10
162.94504012629847
 20
79.67822926912483
 10
162.8683886742013
 20
79.3939767848932
 10
162.81996793543294
 20
79.10357989793059
 10
162.80024422817712
 20
78.8098352890055
 10
162.80940750251688
 20
78.51557187927907
 10
162.8473695111111
 20
78.22362358624767
 10
162.91376465906492
 20
77.93680203156838
 10
163.00795352480824
 20
77.65786946360535
 10
163.12902901807507
 20
77.38951215546814
 10
163.2758251156787
 20
77.13431453473316
 10
163.44692809095224
 20
76.89473429399325
 10
163.64069012870948
 20
76.67307872193462
 10
163.8552451946056
 20
76.47148248288548
 10
164.08852700606838
 20
76.29188705883159
 10
164.3382889317286
 20
76.13602205188343
 10
164.6021256277084
 20
76.00538852726237
 10
164.87749620239768
 20
75.90124455722207
 10
165.16174868662932
 20
75.82459310512492
 10
165.45214557359193
 20
75.77617236635655
 10
165.745890182517
 20
75.75644865910076
 10
166.04015359224346
 20
75.7656119334405
 10
166.33210188527485
 20
75.80357394203472
 10
166.61892343995413
 20
75.86996908998856
 10
166.89785600791717
 20
75.96415795573186
 10
167.16621331605435
 20
76.08523344899871
 10
167.42141093678936
 20
76.23202954660232
 10
167.6609911775293
 20
76.40313252187588
 10
167.8826467495879
 20
76.59689455963307
 10
168.08424298863704
 20
76.8114496255292
 10
168.26383841269094
 20
77.04473143699201
 10
168.4197034196391
 20
77.29449336265223
 10
168.55033694426015
 20
77.55833005863204
 10
168.65448091430045
 20
77.8337006333213
 10
168.7311323663976
 20
78.11795311755293
 10
168.77955310516597
 20
78.40835000451555
 10
168.79927681242177
 20
78.70209461344062
 10
168.790113538082
 20
78.99635802316706
 10
168.7521515294878
 20
79.28830631619846
 10
168.68575638153396
 20
79.57512787087776
 10
168.59156751579064
 20
79.85406043884078
 10
168.4704920225238
 20
80.12241774697797
 10
168.3236959249202
 20
80.37761536771298
 10
168.15259294964665
 20
80.6171956084529
 10
167.95883091188946
 20
80.83885118051151
 10
167.7442758459933
 20
81.04044741956065
 10
167.5109940345305
 20
81.22004284361454
 10
167.2612321088703
 20
81.37590785056273
 10
166.9973954128905
 20
81.50654137518377
 10
166.7220248382012
 20
81.61068534522406
 10
166.4377723539696
 20
81.68733679732122
 10
166.14737546700695
 20
81.7357575360896
 10
165.85363085808189
 20
81.75548124334537
 10
165.55936744835546
 20
81.74631796900564
 10
165.26741915532406
 20
81.70835596041141
 10
164.98059760064476
 20
81.6419608124576
  0
LWPOLYLINE
  5
36
330
17
100
AcDbEntity
  8
0
 62
0
100
AcDbPolyline
 90
76
 70
0
 10
7.130418684907909
 20
105.34016858167652
 10
6.199136723801654
 20
107.57580833358745
 10
4.773929363381665
 20
111.98169763568126
 10
3.8735498771126906
 20
116.30911869570141
 10
3.4979982649947168
 20
120.55807151364793
 10
3.5289007398319967
 20
122.64985282175718
 10
3.646851655294565
 20
124.71542302325668
 10
4.315638393342098
 20
128.64922576810042
 10
5.503449732728225
 20
132.3451130943423
 10
7.209799798776995
 20
135.8018514144099
 10
8.278850431574032
 20
137.4301125598646
 10
9.427225450179353
 20
139.01074307470853
 10
12.06590223978068
 20
141.84804684945232
 10
15.11421819064375
 20
144.29814943428704
 10
18.571425589871875
 20
146.36277029146123
 10
20.470120333968445
 20
147.23510813186624
 10
23.320458937991944
 20
148.37337766836714
 10
28.913044227175163
 20
149.58980977430963
 10
34.376592155328886
 20
149.53256600375732
 10
39.711850435349824
 20
148.1999268944617
 10
42.32630594764122
 20
147.00154781699428
 10
44.886347195081086
 20
145.60230725048365
 10
49.56844736865949
 20
141.85976013823128
 10
53.72530522747982
 20
136.98356009288975
 10
57.35729462799041
 20
130.97284738333482
 10
58.95473433345143
 20
127.49445501929682
 10
64.19071851134863
 20
115.4536340469208
 10
90.73921562865905
 20
126.99832117183504
 10
98.93813677851179
 20
108.14384446261562
 10
20.704897086706893
 20
74.12390461368874
 10
11.718859001724802
 20
94.78845824029565
 10
11.60249631534992
 20
94.62568792446068
 10
11.214763708198998
 20
94.18255915654578
 10
10.785463924900835
 20
93.77956861613328
 10
10.318731357047714
 20
93.42059732242434
 10
9.81906089441004
 20
93.1091023652111
 10
9.291264636690684
 20
92.84808361121196
 10
8.740425550374255
 20
92.64005481371532
 10
8.171848516981253
 20
92.48701940376114
 10
7.5910092441590855
 20
92.39045119600499
 10
7.003501531624067
 20
92.35128019507708
 10
6.4149833998122965
 20
92.36988363912941
 10
5.831122600049863
 20
92.44608236682608
 10
5.257542031009244
 20
92.57914254276488
 10
4.6997655871213375
 20
92.76778272471347
 10
4.163164960452431
 20
93.01018620459847
 10
3.6529079083730487
 20
93.30401850439733
 10
3.173908485229628
 20
93.64644985843795
 10
2.7307797173147286
 20
94.03418246558886
 10
2.3277891769022183
 20
94.46348224888703
 10
1.9688178831932923
 20
94.93021481674015
 10
1.657322925980047
 20
95.42988527937783
 10
1.396304171980912
 20
95.95768153709719
 10
1.1882753744842596
 20
96.5085206234136
 10
1.0352399645300956
 20
97.07709765680661
 10
0.9386717567739389
 20
97.65793692962879
 10
0.8995007558460308
 20
98.24544464216382
 10
0.9181041998983623
 20
98.83396277397557
 10
0.9943029275950188
 20
99.41782357373802
 10
1.1273631035338418
 20
99.99140414277863
 10
1.3160032854824237
 20
100.54918058666652
 10
1.558406765367419
 20
101.08578121333544
 10
1.852239065166284
 20
101.59603826541482
 10
2.194670419206883
 20
102.07503768855824
 10
2.582403026357806
 20
102.51816645647314
 10
3.011702809655983
 20
102.92115699688566
 10
3.478435377509097
 20
103.28012829059458
 10
3.978105840146771
 20
103.59162324780783
 10
4.50590209786613
 20
103.85264200180697
 10
5.056741184182556
 20
104.06067079930361
 10
5.625318217575558
 20
104.21370620925777
 10
6.206157490397732
 20
104.31027441701394
 10
6.793665202932747
 20
104.34944541794184
 10
7.382183334744514
 20
104.3308419738895
 10
7.580586928129506
 20
104.30494864213554
 10
7.130418684907909
 20
105.34016858167652
  0
LWPOLYLINE
  5
37
330
17
100
AcDbEntity
  8
0
 62
0
100
AcDbPolyline
 90
24
 70
0
 10
49.63719003978676
 20
109.12499208932533
 10
44.26163278784051
 20
121.4867793480937
 10
43.64950978664686
 20
122.8160711744188
 10
42.256445223772445
 20
125.08041065467934
 10
40.661908617128816
 20
126.87121984086401
 10
38.867133554288586
 20
128.1880128582969
 10
37.88677592812629
 20
128.64872042702996
 10
36.87918504364828
 20
129.0294319629457
 10
34.75766689013328
 20
129.38731924591917
 10
32.50975612036768
 20
129.26241028188193
 10
30.13679834015168
 20
128.6563125148549
 10
28.898721131197743
 20
128.1533710882702
 10
27.566002980964143
 20
127.53737276554489
 10
25.261351335811828
 20
126.0971315413902
 10
23.391525263864594
 20
124.40689600638586
 10
21.958618083819314
 20
122.4665541423043
 10
21.42499902660048
 20
121.39213023297934
 10
20.971301323380594
 20
120.28907751954074
 10
20.496403731974112
 20
118.00524601520942
 10
20.540503518607615
 20
115.62814321793311
 10
21.1036006832811
 20
113.15776912771182
 10
21.60139817313449
 20
111.8837190438741
 10
27.068674873741536
 20
99.31101108261932
 10
49.63719003978676
 20
109.12499208932533
  0
LWPOLYLINE
  5
38
330
17
100
AcDbEntity
  8
0
 62
0
100
AcDbPolyline
 90
65
 70
0
 10
5.1885093723937565
 20
100.81524554855201
 10
4.955143088467192
 20
100.63575990169755
 10
4.740493196818111
 20
100.4342646314913
 10
4.546626893242646
 20
100.21270024753385
 10
4.375411216222339
 20
99.97320053596214
 10
4.22849506632291
 20
99.71807200992245
 10
4.107293326380418
 20
99.44977169658799
 10
4.012973235406118
 20
99.17088347464403
 10
3.946443147436714
 20
98.88409319012374
 10
3.908343783588382
 20
98.59216279024253
 10
3.8990420615622163
 20
98.29790372433663
 10
3.918627562026174
 20
98.00414986806912
 10
3.9669116659042523
 20
97.71373023165803
 10
4.043429370881334
 20
97.42944171496154
 10
4.14744376962966
 20
97.15402217180332
 10
4.277953146629226
 20
96.89012404294364
 10
4.433700625235854
 20
96.6402888116248
 10
4.613186272090314
 20
96.40692252769824
 10
4.814681542296565
 20
96.19227263604915
 10
5.036245926254015
 20
95.9984063324737
 10
5.275745637825729
 20
95.82719065545339
 10
5.530874163865423
 20
95.68027450555397
 10
5.799174477199873
 20
95.55907276561146
 10
6.078062699143821
 20
95.46475267463718
 10
6.364852983664125
 20
95.39822258666777
 10
6.656783383545349
 20
95.36012322281944
 10
6.95104244945124
 20
95.35082150079327
 10
7.244796305718747
 20
95.37040700125722
 10
7.535215942129831
 20
95.41869110513531
 10
7.81950445882633
 20
95.49520881011239
 10
8.094924001984548
 20
95.5992232088607
 10
8.358822130844224
 20
95.72973258586029
 10
8.608657362163061
 20
95.8854800644669
 10
8.842023646089618
 20
96.06496571132135
 10
9.056673537738703
 20
96.26646098152762
 10
9.250539841314172
 20
96.48802536548507
 10
9.421755518334475
 20
96.72752507705678
 10
9.5686716682339
 20
96.98265360309648
 10
9.689873408176396
 20
97.25095391643093
 10
9.784193499150696
 20
97.52984213837487
 10
9.8507235871201
 20
97.8166324228952
 10
9.888822950968429
 20
98.1085628227764
 10
9.898124672994602
 20
98.4028218886823
 10
9.878539172530644
 20
98.6965757449498
 10
9.830255068652566
 20
98.98699538136088
 10
9.753737363675484
 20
99.27128389805739
 10
9.649722964927154
 20
99.54670344121558
 10
9.519213587927588
 20
99.81060157007528
 10
9.363466109320964
 20
100.0604368013941
 10
9.183980462466504
 20
100.29380308532066
 10
8.982485192260253
 20
100.50845297696976
 10
8.760920808302796
 20
100.70231928054523
 10
8.521421096731085
 20
100.87353495756554
 10
8.266292570691405
 20
101.02045110746495
 10
7.997992257356941
 20
101.14165284740744
 10
7.71910403541299
 20
101.23597293838174
 10
7.4323137508926855
 20
101.30250302635116
 10
7.140383351011465
 20
101.34060239019949
 10
6.846124285105574
 20
101.34990411222566
 10
6.552370428838067
 20
101.3303186117617
 10
6.261950792426983
 20
101.28203450788362
 10
5.977662275730484
 20
101.20551680290653
 10
5.7022427325722695
 20
101.10150240415821
 10
5.43834460371259
 20
100.97099302715864
 10
5.1885093723937565
 20
100.81524554855201
  0
LWPOLYLINE
  5
39
330
17
100
AcDbEntity
  8
0
 62
0
100
AcDbPolyline
 90
76
 70
0
 10
26.18571852809679
 20
192.73780779358032
 10
27.149466039922014
 20
194.95964530448362
 10
29.333333838863243
 20
199.04300152201444
 10
31.824848968153386
 20
202.69397517441433
 10
34.62401142779244
 20
205.91256626168334
 10
36.151779045257356
 20
207.34170240317997
 10
37.721070471621516
 20
208.6899668783187
 10
41.01790591189642
 20
210.93784494798254
 10
44.5035415501478
 20
212.64688652255052
 10
48.17675193406526
 20
213.81658555940112
 10
50.09105372543508
 20
214.17651925446106
 10
52.02609541568573
 20
214.44628149200446
 10
55.90013892475507
 20
214.5148001025704
 10
59.77958205682608
 20
214.01967002115026
 10
63.66514422158762
 20
212.96262274267596
 10
65.61074467955609
 20
212.2006162485991
 10
68.40814819120092
 20
210.9378330968467
 10
73.16455495757788
 20
207.7545467512724
 10
76.91423394693959
 20
203.78043800977585
 10
79.6564657495972
 20
199.01377537742508
 10
80.60754221116593
 20
196.2995639627942
 10
81.3762195177465
 20
193.48516872581868
 10
81.929841312968
 20
187.5167330990646
 10
81.30265999230187
 20
181.13994411622753
 10
79.49431585090377
 20
174.3539360298414
 10
78.09785771558305
 20
170.7900993715365
 10
73.0600714676041
 20
158.66501752770245
 10
99.79435321771803
 20
147.5573319314351
 10
91.9057861759475
 20
128.57091283705367
 10
13.125075429756858
 20
161.30309446805776
 10
21.770964636113938
 20
182.11225727877795
 10
21.573012434847048
 20
182.08311321401357
 10
20.984878605342537
 20
182.05485939667534
 10
20.39680744260153
 20
182.08438882528924
 10
19.814462393393626
 20
182.17141711531534
 10
19.24345175888487
 20
182.31510613674612
 10
18.689274683631762
 20
182.51407208575682
 10
18.15726819581299
 20
182.76639881149265
 10
17.65255580873057
 20
183.06965626964887
 10
17.179998178575964
 20
183.42092392512615
 10
16.74414629365385
 20
183.81681887837973
 10
16.34919764587689
 20
184.2535284445916
 10
15.998955806624075
 20
184.72684687190946
 10
15.696793796269068
 20
185.232215845136
 10
15.445621600150151
 20
185.7647683847963
 10
15.24785814382065
 20
186.3193757188106
 10
15.105407997473497
 20
186.89069667537308
 10
15.019643033889212
 20
187.47322912135633
 10
14.991389216550985
 20
188.06136295086083
 10
15.0209186451649
 20
188.64943411360184
 10
15.107946935190979
 20
189.23177916280974
 10
15.251635956621762
 20
189.8027897973185
 10
15.450601905632475
 20
190.3569668725716
 10
15.702928631368277
 20
190.88897336039037
 10
16.00618608952454
 20
191.3936857474728
 10
16.357453745001795
 20
191.8662433776274
 10
16.753348698255387
 20
192.30209526254953
 10
17.190058264467268
 20
192.6970439103265
 10
17.663376691785096
 20
193.04728574957932
 10
18.16874566501164
 20
193.3494477599343
 10
18.701298204671932
 20
193.6006199560532
 10
19.255905538686218
 20
193.79838341238272
 10
19.827226495248738
 20
193.94083355872988
 10
20.409758941231956
 20
194.02659852231417
 10
20.997892770736463
 20
194.0548523396524
 10
21.58596393347748
 20
194.02532291103847
 10
22.16830898268539
 20
193.9382946210124
 10
22.73931961719414
 20
193.7946055995816
 10
23.293496692447253
 20
193.5956396505709
 10
23.825503180266022
 20
193.3433129248351
 10
24.330215567348446
 20
193.04005546667884
 10
24.802773197503047
 20
192.68878781120156
 10
25.238625082425166
 20
192.292892857948
 10
25.633573730202123
 20
191.8561832917361
 10
25.75259052237211
 20
191.69534345314204
 10
26.18571852809679
 20
192.73780779358032
  0
LWPOLYLINE
  5
3A
330
17
100
AcDbEntity
  8
0
 62
0
100
AcDbPolyline
 90
24
 70
0
 10
58.404698363137506
 20
164.75410113436092
 10
63.5767744197069
 20
177.20239536550207
 10
64.10929553139422
 20
178.5655287389224
 10
64.77330076948846
 20
181.13981683507376
 10
64.95651706360565
 20
183.5306276433185
 10
64.65945045636735
 20
185.73673571134623
 10
64.3109890431665
 20
186.76237072565326
 10
63.88602529406566
 20
187.75211133612282
 10
62.671723234605025
 20
189.52817245314483
 10
61.02205378143244
 20
191.06026114946573
 10
58.93910813432433
 20
192.3485237628626
 10
57.717887763213305
 20
192.89111574500916
 10
56.34958634115928
 20
193.423415303498
 10
53.71335483029214
 20
194.0837163033223
 10
51.19880353039292
 20
194.25743292112318
 10
48.8073042315492
 20
193.94297999974577
 10
47.663340670516625
 20
193.58175513046638
 10
46.554214741884934
 20
193.14311339856192
 10
44.5800811368079
 20
191.9004507042617
 10
42.8988894343545
 20
190.2193329333718
 10
41.510639634524736
 20
188.09976008589223
 10
40.93857386070303
 20
186.85728404690676
 10
35.678250215631344
 20
174.19659310410668
 10
58.404698363137506
 20
164.75410113436092
  0
LWPOLYLINE
  5
3B
330
17
100
AcDbEntity
  8
0
 62
0
100
AcDbPolyline
 90
65
 70
0
 10
21.579847335362448
 20
190.99657524458812
 10
21.288674810758494
 20
191.04008938960118
 10
20.994639229387992
 20
191.05485410390813
 10
20.70057231463573
 20
191.04072719523901
 10
20.409306091644112
 20
190.99784471344685
 10
20.123645613362868
 20
190.9266196402733
 10
19.84634194635572
 20
190.82773791210855
 10
19.58006567652557
 20
190.70215181404907
 10
19.327381189912302
 20
190.5510708088716
 10
19.090721976253388
 20
190.37594988924516
 10
18.87236719314744
 20
190.1784755653567
 10
18.674419716520653
 20
189.96054962289563
 10
18.49878588878202
 20
189.72427080781833
 10
18.34715715970389
 20
189.47191461427713
 10
18.22099379683599
 20
189.20591137036774
 10
18.121510822330634
 20
188.9288228327412
 10
18.04966631161524
 20
188.64331751548679
 10
18.006152166602202
 20
188.35214499088283
 10
17.99138745229524
 20
188.05810940951235
 10
18.00551436096436
 20
187.76404249476008
 10
18.048396842756503
 20
187.47277627176848
 10
18.119621915930082
 20
187.1871157934872
 10
18.21850364409483
 20
186.90981212648006
 10
18.34408974215429
 20
186.64353585664995
 10
18.495170747331784
 20
186.39085137003667
 10
18.670291666958192
 20
186.15419215637775
 10
18.867765990846678
 20
185.9358373732718
 10
19.085691933307736
 20
185.73788989664502
 10
19.321970748385034
 20
185.56225606890638
 10
19.57432694192625
 20
185.41062733982824
 10
19.840330185835633
 20
185.28446397696035
 10
20.11741872346219
 20
185.184981002455
 10
20.402924040716563
 20
185.1131364917396
 10
20.694096565320518
 20
185.06962234672656
 10
20.988132146691022
 20
185.0548576324196
 10
21.282199061443283
 20
185.0689845410887
 10
21.573465284434903
 20
185.11186702288086
 10
21.859125762716154
 20
185.18309209605445
 10
22.136429429723293
 20
185.2819738242192
 10
22.402705699553444
 20
185.40755992227864
 10
22.65539018616671
 20
185.55864092745614
 10
22.892049399825623
 20
185.73376184708255
 10
23.110404182931575
 20
185.93123617097103
 10
23.30835165955836
 20
186.14916211343208
 10
23.48398548729699
 20
186.38544092850938
 10
23.63561421637512
 20
186.6377971220506
 10
23.76177757924302
 20
186.90380036596
 10
23.86126055374838
 20
187.18088890358655
 10
23.93310506446377
 20
187.46639422084093
 10
23.97661920947681
 20
187.75756674544488
 10
23.991383923783772
 20
188.05160232681538
 10
23.977257015114652
 20
188.34566924156763
 10
23.93437453332251
 20
188.63693546455926
 10
23.86314946014894
 20
188.9225959428405
 10
23.764267731984184
 20
189.19989960984765
 10
23.638681633924726
 20
189.4661758796778
 10
23.48760062874723
 20
189.71886036629107
 10
23.312479709120822
 20
189.95551957995
 10
23.115005385232337
 20
190.17387436305592
 10
22.89707944277128
 20
190.37182183968272
 10
22.660800627693977
 20
190.54745566742136
 10
22.408444434152766
 20
190.69908439649947
 10
22.142441190243378
 20
190.8252477593674
 10
21.865352652616824
 20
190.92473073387274
 10
21.579847335362448
 20
190.99657524458812
  0
LWPOLYLINE
  5
3C
330
17
100
AcDbEntity
  8
0
 62
0
100
AcDbPolyline
 90
100
 70
0
 10
47.20551795766748
 20
241.59733322215476
 10
10.006178280566727
 20
256.89177755948447
 10
9.955430026446626
 20
261.5358958559322
 10
9.784944673376556
 20
261.4311619316957
 10
9.255447433890728
 20
261.1736112512875
 10
8.703255487155802
 20
260.96920055302814
 10
8.133686743477654
 20
260.81989842368387
 10
7.552226461215853
 20
260.7271427243773
 10
6.964474420747109
 20
260.69182674319813
 10
6.376090995519081
 20
260.7142905923507
 10
5.792742639559805
 20
260.79431793268793
 10
5.220047316427827
 20
260.9311380571747
 10
4.663520395152016
 20
261.1234333132188
 10
4.128521534212817
 20
261.3693517923854
 10
3.620203065101202
 20
261.6665251652872
 10
3.1434603725498516
 20
262.0120914898918
 10
2.702884749302104
 20
262.4027227735874
 10
2.3027191794529855
 20
262.8346570235713
 10
1.9468174761928694
 20
263.3037344768968
 10
1.6386071674798366
 20
263.8054376612647
 10
1.3810564870716675
 20
264.3349349007505
 10
1.1766457888122215
 20
264.88712684748543
 10
1.0273436594679932
 20
265.45669559116357
 10
0.9345879601614051
 20
266.0381558734254
 10
0.8992719789822221
 20
266.62590791389414
 10
0.9217358281348602
 20
267.21429133912216
 10
1.0017631684720083
 20
267.79763969508144
 10
1.1385832929588044
 20
268.37033501821344
 10
1.3308785490029678
 20
268.92686193948924
 10
1.5767970281695032
 20
269.46186080042844
 10
1.8739704010713218
 20
269.97017926954004
 10
2.219536725675905
 20
270.44692196209144
 10
2.6101680093715203
 20
270.88749758533913
 10
3.0421022593554206
 20
271.2876631551883
 10
3.511179712680967
 20
271.64356485844837
 10
4.012882897048799
 20
271.95177516716143
 10
4.542380136534627
 20
272.2093258475696
 10
5.094572083269567
 20
272.413736545829
 10
5.6641408269477145
 20
272.5630386751733
 10
6.245601109209516
 20
272.65579437447985
 10
6.833353149678259
 20
272.691110355659
 10
7.421736574906287
 20
272.6686465065064
 10
8.005084930865564
 20
272.5886191661692
 10
8.577780253997542
 20
272.4517990416825
 10
9.134307175273353
 20
272.2595037856383
 10
9.669306036212552
 20
272.0135853064718
 10
9.842039350209204
 20
271.9126018784594
 10
9.763494661363463
 20
279.1004516455476
 10
64.73049862988103
 20
252.21945883045657
 10
95.36866945369792
 20
252.5542551425857
 10
95.59660192990594
 20
231.69550046292446
 10
64.95843110608905
 20
231.36070415079533
 10
10.591416220437365
 20
203.33497503586722
 10
10.513465171372738
 20
210.46849912384042
 10
10.342979818302668
 20
210.36376519960396
 10
9.81348257881684
 20
210.1062145191958
 10
9.261290632081913
 20
209.90180382093632
 10
8.691721888403766
 20
209.7525016915921
 10
8.110261606141965
 20
209.65974599228554
 10
7.5225095656732215
 20
209.62443001110634
 10
6.934126140445192
 20
209.64689386025898
 10
6.350777784485917
 20
209.7269212005961
 10
5.7780824613539385
 20
209.8637413250829
 10
5.221555540078128
 20
210.05603658112707
 10
4.6865566791389295
 20
210.3019550602936
 10
4.178238210027313
 20
210.59912843319543
 10
3.701495517475963
 20
210.94469475780002
 10
3.2609198942282154
 20
211.33532604149565
 10
2.860754324379096
 20
211.76726029147954
 10
2.5048526211189817
 20
212.23633774480507
 10
2.196642312405949
 20
212.7380409291729
 10
1.9390916319977798
 20
213.26753816865875
 10
1.734680933738332
 20
213.8197301153937
 10
1.5853788043941055
 20
214.38929885907183
 10
1.4926231050875174
 20
214.97075914133364
 10
1.4573071239083344
 20
215.55851118180237
 10
1.4797709730609707
 20
216.1468946070304
 10
1.5597983133981188
 20
216.73024296298968
 10
1.6966184378849167
 20
217.30293828612167
 10
1.8889136939290783
 20
217.85946520739748
 10
2.1348321730956155
 20
218.39446406833667
 10
2.432005545997434
 20
218.90278253744827
 10
2.777571870602017
 20
219.37952522999964
 10
3.1682031542976317
 20
219.82010085324737
 10
3.600137404281532
 20
220.2202664230965
 10
4.069214857607079
 20
220.5761681263566
 10
4.5709180419749105
 20
220.88437843506966
 10
5.100415281460738
 20
221.1419291154778
 10
5.652607228195679
 20
221.34633981373727
 10
6.222175971873826
 20
221.4956419430815
 10
6.803636254135627
 20
221.5883976423881
 10
7.39138829460437
 20
221.62371362356726
 10
7.979771719832399
 20
221.6012497744146
 10
8.563120075791675
 20
221.5212224340775
 10
9.135815398923654
 20
221.38440230959068
 10
9.692342320199463
 20
221.19210705354652
 10
10.227341181138662
 20
220.94618857438
 10
10.400074495135316
 20
220.84520514636762
 10
10.350043813944788
 20
225.42365628580572
 10
47.20551795766748
 20
241.59733322215476
  0
LWPOLYLINE
  5
3D
330
17
100
AcDbEntity
  8
0
 62
0
100
AcDbPolyline
 90
65
 70
0
 10
6.554778079167238
 20
218.48520581553703
 10
6.278682105799775
 20
218.3830004664073
 10
6.013933486056853
 20
218.25422512620324
 10
5.763081893872931
 20
218.1001199718467
 10
5.528543167210165
 20
217.92216912021667
 10
5.312576042218214
 20
217.7220863352921
 10
5.1172604003704
 20
217.5017985236682
 10
4.944477238068115
 20
217.26342717739254
 10
4.795890551617206
 20
217.00926794283674
 10
4.67293131203393
 20
216.74176851236714
 10
4.576783684011857
 20
216.46350505172921
 10
4.508373621768458
 20
216.17715739016325
 10
4.468359951599884
 20
215.8854832121836
 10
4.457128027023565
 20
215.5912914995696
 10
4.474786017613157
 20
215.29741547933523
 10
4.521163867266451
 20
215.0066853382043
 10
4.595814931938564
 20
214.72190096636524
 10
4.698020281068281
 20
214.44580499299778
 10
4.826795621272373
 20
214.18105637325488
 10
4.980900775628888
 20
213.93020478107093
 10
5.1588516272589535
 20
213.69566605440818
 10
5.358934412183506
 20
213.47969892941623
 10
5.57922222380738
 20
213.2843832875684
 10
5.817593570083048
 20
213.1116001252661
 10
6.071752804638855
 20
212.9630134388152
 10
6.339252235108463
 20
212.84005419923193
 10
6.617515695746368
 20
212.74390657120986
 10
6.903863357312357
 20
212.67549650896646
 10
7.195537535291995
 20
212.63548283879788
 10
7.489729247906009
 20
212.62425091422156
 10
7.783605268140381
 20
212.64190890481117
 10
8.074335409271281
 20
212.68828675446446
 10
8.359119781110355
 20
212.76293781913657
 10
8.635215754477818
 20
212.8651431682663
 10
8.899964374220739
 20
212.9939185084704
 10
9.15081596640466
 20
213.1480236628269
 10
9.385354693067429
 20
213.32597451445696
 10
9.601321818059379
 20
213.5260572993815
 10
9.796637459907192
 20
213.74634511100538
 10
9.969420622209478
 20
213.98471645728105
 10
10.118007308660387
 20
214.23887569183685
 10
10.240966548243662
 20
214.50637512230648
 10
10.337114176265736
 20
214.78463858294438
 10
10.405524238509134
 20
215.07098624451038
 10
10.445537908677709
 20
215.36266042249
 10
10.456769833254027
 20
215.65685213510403
 10
10.439111842664435
 20
215.9507281553384
 10
10.392733993011142
 20
216.2414582964693
 10
10.318082928339027
 20
216.52624266830836
 10
10.215877579209312
 20
216.80233864167582
 10
10.087102239005219
 20
217.06708726141875
 10
9.932997084648704
 20
217.31793885360267
 10
9.755046233018653
 20
217.55247758026542
 10
9.554963448094085
 20
217.76844470525737
 10
9.334675636470212
 20
217.9637603471052
 10
9.096304290194544
 20
218.1365435094075
 10
8.842145055638737
 20
218.2851301958584
 10
8.57464562516913
 20
218.40808943544167
 10
8.296382164531225
 20
218.50423706346373
 10
8.010034502965237
 20
218.57264712570714
 10
7.718360324985598
 20
218.6126607958757
 10
7.4241686123715835
 20
218.62389272045203
 10
7.130292592137211
 20
218.60623472986245
 10
6.839562451006311
 20
218.55985688020914
 10
6.554778079167238
 20
218.48520581553703
  0
LWPOLYLINE
  5
3E
330
17
100
AcDbEntity
  8
0
 62
0
100
AcDbPolyline
 90
65
 70
0
 10
6.281527306080199
 20
269.62725361230093
 10
5.996742934241126
 20
269.5526025476288
 10
5.720646960873663
 20
269.4503971984991
 10
5.455898341130742
 20
269.321621858295
 10
5.2050467489468195
 20
269.1675167039385
 10
4.9705080222840525
 20
268.98956585230843
 10
4.754540897292102
 20
268.78948306738386
 10
4.559225255444288
 20
268.56919525576
 10
4.386442093142003
 20
268.3308239094843
 10
4.237855406691094
 20
268.0766646749285
 10
4.114896167107818
 20
267.8091652444589
 10
4.0187485390857445
 20
267.53090178382104
 10
3.9503384768423455
 20
267.244554122255
 10
3.9103248066737724
 20
266.95287994427537
 10
3.8990928820974533
 20
266.65868823166136
 10
3.916750872687045
 20
266.36481221142697
 10
3.963128722340339
 20
266.0740820702961
 10
4.037779787012452
 20
265.789297698457
 10
4.139985136142169
 20
265.5132017250896
 10
4.2687604763462605
 20
265.24845310534664
 10
4.422865630702777
 20
264.99760151316275
 10
4.600816482332842
 20
264.7630627865
 10
4.800899267257394
 20
264.547095661508
 10
5.021187078881268
 20
264.35178001966017
 10
5.2595584251569365
 20
264.1789968573579
 10
5.513717659712744
 20
264.030410170907
 10
5.78121709018235
 20
263.9074509313237
 10
6.059480550820256
 20
263.81130330330166
 10
6.345828212386245
 20
263.74289324105825
 10
6.637502390365882
 20
263.70287957088965
 10
6.931694102979897
 20
263.69164764631336
 10
7.225570123214268
 20
263.70930563690297
 10
7.516300264345169
 20
263.7556834865562
 10
7.8010846361842425
 20
263.83033455122836
 10
8.077180609551707
 20
263.93253990035805
 10
8.341929229294626
 20
264.0613152405622
 10
8.59278082147855
 20
264.2154203949187
 10
8.827319548141316
 20
264.3933712465487
 10
9.043286673133267
 20
264.5934540314733
 10
9.238602314981081
 20
264.81374184309715
 10
9.411385477283366
 20
265.05211318937285
 10
9.559972163734274
 20
265.30627242392865
 10
9.68293140331755
 20
265.5737718543983
 10
9.779079031339624
 20
265.8520353150361
 10
9.847489093583023
 20
266.13838297660214
 10
9.887502763751597
 20
266.4300571545818
 10
9.898734688327915
 20
266.7242488671958
 10
9.881076697738324
 20
267.0181248874302
 10
9.83469884808503
 20
267.3088550285611
 10
9.760047783412915
 20
267.59363940040015
 10
9.6578424342832
 20
267.8697353737676
 10
9.529067094079108
 20
268.1344839935105
 10
9.374961939722592
 20
268.3853355856944
 10
9.197011088092541
 20
268.6198743123572
 10
8.996928303167975
 20
268.83584143734913
 10
8.7766404915441
 20
269.031157079197
 10
8.538269145268433
 20
269.20394024149925
 10
8.284109910712624
 20
269.3525269279502
 10
8.016610480243019
 20
269.4754861675334
 10
7.738347019605113
 20
269.5716337955555
 10
7.451999358039124
 20
269.6400438577989
 10
7.160325180059486
 20
269.6800575279675
 10
6.866133467445471
 20
269.6912894525438
 10
6.5722574472111
 20
269.6736314619542
 10
6.281527306080199
 20
269.62725361230093
  0
LWPOLYLINE
  5
3F
330
17
100
AcDbEntity
  8
0
 62
0
100
AcDbPolyline
 90
88
 70
0
 10
106.27240034511225
 20
35.57531249850986
 10
107.02615034511224
 20
42.82406249850986
 10
108.53365034511224
 20
49.08656249850985
 10
110.79490034511225
 20
54.36281249850984
 10
112.23958784511224
 20
56.58999999850985
 10
113.80740034511224
 20
58.645624998509845
 10
117.50865034511224
 20
61.86312499850982
 10
121.88865034511224
 20
64.00812499850983
 10
126.94740034511224
 20
65.08062499850985
 10
129.75958784511224
 20
65.16999999850984
 10
131.39677534511225
 20
65.13843749850983
 10
134.46802534511224
 20
64.75921874850985
 10
137.29552534511225
 20
63.99984374850983
 10
139.87927534511223
 20
62.859374998509836
 10
141.06958784511224
 20
62.12999999850983
 10
142.21740034511225
 20
61.33562499850983
 10
144.25411909511223
 20
59.45171874850983
 10
145.98099409511224
 20
57.21109374850984
 10
147.39896284511224
 20
54.61093749850984
 10
147.97958784511223
 20
53.15999999850983
 10
148.45333784511223
 20
54.79656249850983
 10
149.71474409511225
 20
57.747343748509834
 10
151.35536909511225
 20
60.31046874850982
 10
153.37802534511223
 20
62.48499999850982
 10
154.54958784511226
 20
63.40999999850983
 10
155.77177534511225
 20
64.26874999850982
 10
158.43755659511226
 20
65.61171874850983
 10
161.36818159511225
 20
66.50609374850983
 10
164.56271284511226
 20
66.95281249850983
 10
166.26958784511226
 20
66.98999999850982
 10
169.33927534511224
 20
66.90718749850983
 10
174.82646284511225
 20
65.91390624850983
 10
179.53271284511226
 20
63.92828124850983
 10
183.45990034511226
 20
60.95124999850982
 10
185.09958784511224
 20
59.049999998509804
 10
186.61021284511224
 20
56.986249998509805
 10
188.98771284511224
 20
52.05968749850982
 10
190.59271284511226
 20
46.175937498509825
 10
191.42521284511224
 20
39.33687499850983
 10
191.51958784511226
 20
35.51999999850983
 10
191.51958784511223
 20
0.8999999985098288
 10
106.20958784511222
 20
0.8999999985098537
 10
106.20958784511224
 20
23.5332126350477
 10
106.03796826606822
 20
23.430347818000516
 10
105.50568843930277
 20
23.178598209022926
 10
104.95129590863901
 20
22.980233389697393
 10
104.380129777209
 20
22.837163721671264
 10
103.7976906870896
 20
22.750767044057458
 10
103.20958784511224
 20
22.721875404090643
 10
102.62148500313488
 20
22.750767044057458
 10
102.03904591301547
 20
22.837163721671264
 10
101.46787978158547
 20
22.980233389697393
 10
100.9134872509217
 20
23.178598209022926
 10
100.38120742415626
 20
23.430347818000516
 10
99.87616644699463
 20
23.733057730275366
 10
99.40322814013037
 20
24.08381268391422
 10
98.96694715799295
 20
24.479234716971366
 10
98.57152512493582
 20
24.915515699108777
 10
98.22077017129696
 20
25.388454005973035
 10
97.91806025902211
 20
25.893494983134662
 10
97.66631065004452
 20
26.42577480990011
 10
97.46794583071899
 20
26.980167340563877
 10
97.32487616269286
 20
27.551333471993882
 10
97.23847948507905
 20
28.13377256211329
 10
97.20958784511224
 20
28.72187540409065
 10
97.23847948507905
 20
29.30997824606801
 10
97.32487616269286
 20
29.892417336187417
 10
97.46794583071899
 20
30.463583467617422
 10
97.66631065004452
 20
31.01797599828119
 10
97.91806025902211
 20
31.550255825046637
 10
98.22077017129696
 20
32.05529680220826
 10
98.57152512493582
 20
32.528235109072526
 10
98.96694715799295
 20
32.96451609120993
 10
99.40322814013037
 20
33.35993812426706
 10
99.87616644699463
 20
33.710693077905916
 10
100.38120742415624
 20
34.013402990180765
 10
100.91348725092169
 20
34.265152599158355
 10
101.46787978158547
 20
34.4635174184839
 10
102.03904591301547
 20
34.60658708651002
 10
102.62148500313488
 20
34.692983764123824
 10
103.20958784511224
 20
34.72187540409064
 10
103.7976906870896
 20
34.692983764123824
 10
104.380129777209
 20
34.60658708651003
 10
104.95129590863901
 20
34.4635174184839
 10
105.50568843930277
 20
34.26515259915837
 10
106.03796826606822
 20
34.01340299018078
 10
106.24614587600877
 20
33.88862613267338
 10
106.27240034511225
 20
35.57531249850986
  0
LWPOLYLINE
  5
40
330
17
100
AcDbEntity
  8
0
 62
0
100
AcDbPolyline
 90
22
 70
0
 10
141.76958784511226
 20
32.17999999850986
 10
141.64208784511226
 20
35.39249999850985
 10
140.79271284511225
 20
39.11671874850984
 10
139.88521284511222
 20
41.03343749850984
 10
139.30958784511225
 20
41.78999999850984
 10
138.68583784511225
 20
42.47968749850985
 10
137.20036909511225
 20
43.55687499850984
 10
135.42849409511226
 20
44.27312499850984
 10
133.36927534511224
 20
44.63031249850984
 10
132.21958784511224
 20
44.659999998509846
 10
130.90458784511225
 20
44.62781249850984
 10
128.58755659511223
 20
44.24109374850984
 10
126.64693159511224
 20
43.466718748509834
 10
125.08365034511225
 20
42.30374999850984
 10
124.45958784511224
 20
41.55999999850984
 10
123.89177534511224
 20
40.744062498509834
 10
123.00302534511225
 20
38.715312498509846
 10
122.18833784511226
 20
34.838749998509854
 10
122.08958784511225
 20
31.53999999850986
 10
122.08958784511225
 20
21.459999998509854
 10
141.76958784511223
 20
21.459999998509847
 10
141.76958784511226
 20
32.17999999850986
  0
LWPOLYLINE
  5
41
330
17
100
AcDbEntity
  8
0
 62
0
100
AcDbPolyline
 90
21
 70
0
 10
175.69958784511226
 20
21.459999998509833
 10
175.69958784511226
 20
34.93999999850983
 10
175.59333784511225
 20
37.61499999850983
 10
174.71677534511224
 20
40.901874998509825
 10
173.76052534511223
 20
42.71687499850982
 10
173.14958784511225
 20
43.48999999850983
 10
172.49052534511225
 20
44.208437498509824
 10
170.95630659511224
 20
45.33062499850983
 10
169.16193159511224
 20
46.07687499850984
 10
167.10646284511225
 20
46.44906249850983
 10
165.96958784511224
 20
46.47999999850984
 10
163.41396284511222
 20
46.36968749850983
 10
160.32695112636225
 20
45.45931640475983
 10
158.65579878261224
 20
44.46597656100984
 10
157.31611128261224
 20
43.14128906100984
 10
156.30777143886223
 20
41.48513671725985
 10
155.63066206386225
 20
39.49740234225983
 10
155.28466597011226
 20
37.17796874850984
 10
155.24958784511225
 20
35.87999999850983
 10
155.24958784511225
 20
21.45999999850984
 10
175.69958784511226
 20
21.459999998509833
  0
LWPOLYLINE
  5
42
330
17
100
AcDbEntity
  8
0
 62
0
100
AcDbPolyline
 90
65
 70
0
 10
102.62431687906385
 20
31.664231245300332
 10
102.33873381334885
 20
31.592696411287267
 10
102.06153754801697
 20
31.4935140016245
 10
101.79539763463424
 20
31.367639197135706
 10
101.54287714605343
 20
31.21628424099828
 10
101.3064079926213
 20
31.040906764178853
 10
101.0882675015526
 20
30.843195747650288
 10
100.89055648502402
 20
30.62505525658158
 10
100.7151790082046
 20
30.388586103149446
 10
100.56382405206718
 20
30.13606561456864
 10
100.43794924757837
 20
29.86992570118591
 10
100.33876683791561
 20
29.59272943585403
 10
100.26723200390255
 20
29.307146370139026
 10
100.22403366509565
 20
29.015926825079323
 10
100.20958784511224
 20
28.721875404090643
 10
100.22403366509565
 20
28.427823983101963
 10
100.26723200390255
 20
28.13660443804226
 10
100.33876683791561
 20
27.851021372327256
 10
100.43794924757837
 20
27.573825106995375
 10
100.56382405206718
 20
27.307685193612645
 10
100.7151790082046
 20
27.05516470503183
 10
100.89055648502404
 20
26.818695551599706
 10
101.0882675015526
 20
26.600555060530997
 10
101.3064079926213
 20
26.402844044002432
 10
101.54287714605343
 20
26.227466567183004
 10
101.79539763463424
 20
26.07611161104558
 10
102.06153754801697
 20
25.950236806556777
 10
102.33873381334885
 20
25.851054396894018
 10
102.62431687906385
 20
25.779519562880953
 10
102.91553642412356
 20
25.73632122407405
 10
103.20958784511224
 20
25.721875404090643
 10
103.50363926610092
 20
25.73632122407405
 10
103.79485881116062
 20
25.779519562880953
 10
104.08044187687562
 20
25.851054396894018
 10
104.3576381422075
 20
25.950236806556784
 10
104.62377805559024
 20
26.07611161104558
 10
104.87629854417105
 20
26.227466567183004
 10
105.11276769760318
 20
26.402844044002432
 10
105.33090818867188
 20
26.600555060530997
 10
105.52861920520046
 20
26.818695551599706
 10
105.70399668201988
 20
27.05516470503183
 10
105.8553516381573
 20
27.307685193612645
 10
105.9812264426461
 20
27.573825106995375
 10
106.08040885230886
 20
27.851021372327256
 10
106.15194368632193
 20
28.13660443804226
 10
106.19514202512883
 20
28.427823983101963
 10
106.20958784511224
 20
28.721875404090643
 10
106.19514202512883
 20
29.015926825079323
 10
106.15194368632193
 20
29.307146370139026
 10
106.08040885230886
 20
29.59272943585403
 10
105.9812264426461
 20
29.86992570118591
 10
105.8553516381573
 20
30.13606561456864
 10
105.70399668201988
 20
30.388586103149454
 10
105.52861920520046
 20
30.62505525658158
 10
105.33090818867188
 20
30.843195747650288
 10
105.11276769760318
 20
31.040906764178853
 10
104.87629854417105
 20
31.21628424099828
 10
104.62377805559024
 20
31.367639197135706
 10
104.3576381422075
 20
31.4935140016245
 10
104.08044187687562
 20
31.592696411287267
 10
103.79485881116062
 20
31.664231245300332
 10
103.50363926610092
 20
31.707429584107235
 10
103.20958784511224
 20
31.721875404090643
 10
102.91553642412356
 20
31.707429584107235
 10
102.62431687906385
 20
31.664231245300332
  0
LWPOLYLINE
  5
43
330
17
100
AcDbEntity
  8
0
 62
0
100
AcDbPolyline
 90
50
 70
0
 10
72.59629893508816
 20
94.61732793741172
 10
157.90629449798303
 20
94.58981323480717
 10
157.89967948742836
 20
74.079814301564
 10
72.58968392453347
 20
74.10732900416855
 10
72.59131795058205
 20
79.17366597161757
 10
72.41966520387474
 20
79.0708565117161
 10
71.88730420897144
 20
78.81927858997534
 10
71.33284772930858
 20
78.62109258703445
 10
70.76163548388206
 20
78.47820714244119
 10
70.17916855887171
 20
78.39199832113619
 10
69.59105642917417
 20
78.36329636119507
 10
69.00296293609327
 20
78.39237767818219
 10
68.42055174145192
 20
78.4789622031175
 10
67.8494317834329
 20
78.62221607969397
 10
67.29510325943787
 20
78.8207596947696
 10
66.76290465617967
 20
79.07268096479628
 10
66.25796133713703
 20
79.37555375022943
 10
65.78513618250244
 20
79.72646122057824
 10
65.34898275698755
 20
80.12202394507773
 10
64.9537014565058
 20
80.55843243845436
 10
64.60309905606351
 20
81.0314838483518
 10
64.30055204843578
 20
81.53662243109649
 10
64.04897412669504
 20
82.06898342599978
 10
63.85078812375414
 20
82.62343990566265
 10
63.707902679160895
 20
83.19465215108917
 10
63.62169385785585
 20
83.77711907609952
 10
63.59299189791475
 20
84.36523120579706
 10
63.62207321490187
 20
84.95332469887796
 10
63.7086577398372
 20
85.53573589351933
 10
63.85191161641366
 20
86.10685585153831
 10
64.05045523148931
 20
86.66118437553337
 10
64.30237650151597
 20
87.19338297879156
 10
64.60524928694912
 20
87.6983262978342
 10
64.95615675729792
 20
88.17115145246879
 10
65.3517194817974
 20
88.60730487798368
 10
65.78812797517404
 20
89.00258617846544
 10
66.26117938507147
 20
89.35318857890772
 10
66.76631796781616
 20
89.65573558653546
 10
67.29867896271946
 20
89.9073135082762
 10
67.85313544238234
 20
90.10549951121709
 10
68.42434768780886
 20
90.24838495581034
 10
69.00681461281923
 20
90.33459377711537
 10
69.59492674251675
 20
90.36329573705649
 10
70.18302023559767
 20
90.33421442006937
 10
70.765431430239
 20
90.24762989513404
 10
71.33655138825802
 20
90.10437601855759
 10
71.89087991225306
 20
89.90583240348194
 10
72.42307851551125
 20
89.65391113345527
 10
72.59466490903958
 20
89.5509909699627
 10
72.59629893508816
 20
94.61732793741172
  0
LWPOLYLINE
  5
44
330
17
100
AcDbEntity
  8
0
 62
0
100
AcDbPolyline
 90
65
 70
0
 10
69.00866963682716
 20
87.30584050246807
 10
68.7230635141139
 20
87.23439778017143
 10
68.44583527428247
 20
87.135304778701
 10
68.1796547768308
 20
87.00951581783062
 10
67.92708548545846
 20
86.85824231401674
 10
67.69055978050974
 20
86.68294111379561
 10
67.47235553382143
 20
86.48530046355472
 10
67.27457417157169
 20
86.26722375079729
 10
67.09912043639729
 20
86.03081117347999
 10
66.94768404368071
 20
85.77833951395868
 10
66.82172340866737
 20
85.51224021232957
 10
66.72245160112956
 20
85.23507595033206
 10
66.65082466284133
 20
84.94951597132254
 10
66.60753240037367
 20
84.65831037400187
 10
66.5929917418801
 20
84.36426362746141
 10
66.60734272185066
 20
84.07020756261265
 10
66.65044713250317
 20
83.77897410010748
 10
66.7218898547998
 20
83.4933679773942
 10
66.82098285627023
 20
83.21613973756277
 10
66.94677181714061
 20
82.94995924011113
 10
67.0980453209545
 20
82.69738994873879
 10
67.27334652117564
 20
82.46086424379007
 10
67.47098717141651
 20
82.24265999710175
 10
67.68906388417395
 20
82.04487863485201
 10
67.92547646149124
 20
81.8694248996776
 10
68.17794812101255
 20
81.71798850696104
 10
68.44404742264166
 20
81.59202787194769
 10
68.72121168463919
 20
81.49275606440987
 10
69.00677166364869
 20
81.42112912612164
 10
69.29797726096936
 20
81.37783686365398
 10
69.59202400750982
 20
81.36329620516042
 10
69.88608007235858
 20
81.37764718513097
 10
70.17731353486376
 20
81.42075159578349
 10
70.46291965757703
 20
81.49219431808011
 10
70.74014789740846
 20
81.59128731955056
 10
71.0063283948601
 20
81.71707628042094
 10
71.25889768623246
 20
81.8683497842348
 10
71.49542339118116
 20
82.04365098445595
 10
71.7136276378695
 20
82.24129163469684
 10
71.91140900011924
 20
82.45936834745427
 10
72.08686273529364
 20
82.69578092477155
 10
72.23829912801021
 20
82.94825258429287
 10
72.36425976302354
 20
83.21435188592199
 10
72.46353157056136
 20
83.4915161479195
 10
72.53515850884959
 20
83.777076126929
 10
72.57845077131725
 20
84.06828172424967
 10
72.59299142981081
 20
84.36232847079013
 10
72.57864044984026
 20
84.65638453563889
 10
72.53553603918775
 20
84.94761799814407
 10
72.46409331689112
 20
85.23322412085733
 10
72.36500031542067
 20
85.51045236068877
 10
72.23921135455029
 20
85.77663285814043
 10
72.08793785073644
 20
86.02920214951277
 10
71.91263665051531
 20
86.26572785446149
 10
71.71499600027441
 20
86.4839321011498
 10
71.49691928751696
 20
86.68171346339955
 10
71.26050671019968
 20
86.85716719857395
 10
71.00803505067836
 20
87.00860359129052
 10
70.74193574904926
 20
87.13456422630387
 10
70.46477148705173
 20
87.23383603384167
 10
70.17921150804223
 20
87.3054629721299
 10
69.88800591072156
 20
87.34875523459756
 10
69.5939591641811
 20
87.36329589309113
 10
69.29990309933234
 20
87.34894491312058
 10
69.00866963682716
 20
87.30584050246807
  0
LWPOLYLINE
  5
45
330
17
100
AcDbEntity
  8
0
 62
0
100
AcDbPolyline
 90
75
 70
0
 10
151.4669672694976
 20
120.05138139018439
 10
149.96324484572773
 20
123.46112172137649
 10
147.88220950849183
 20
129.9488770625235
 10
146.9143965406696
 20
136.03927182574003
 10
147.0615070056489
 20
141.7330946860861
 10
147.600251567243
 20
144.41506357654401
 10
148.31891195143038
 20
147.00615445863036
 10
150.65775775774566
 20
151.6246232134243
 10
154.0776681310651
 20
155.56628145318672
 10
158.57779253969477
 20
158.83073484038763
 10
161.2776249760036
 20
160.18064496884696
 10
163.28534370441278
 20
161.0701621964598
 10
167.16933539731045
 20
162.37490921389343
 10
170.89559217350325
 20
163.11051130597667
 10
174.46411403299118
 20
163.2769684727095
 10
176.1826520807748
 20
163.1230533371799
 10
177.88806102128908
 20
162.87487093294817
 10
181.2658628574813
 20
161.8947417115836
 10
184.605576396919
 20
160.33480500229166
 10
187.90890270299005
 20
158.19584948013255
 10
189.54604240755995
 20
156.88540963350582
 10
213.25445152164457
 20
187.50859590272327
 10
214.05281727168952
 20
187.8787473975942
 10
223.31922344442404
 20
167.8923866322646
 10
202.32797926419948
 20
141.56016933545897
 10
207.0095544209192
 20
131.46265706500418
 10
234.3354366838211
 20
144.13193323035887
 10
242.98352160944168
 20
125.47920616112704
 10
165.58740554542575
 20
89.5955424935836
 10
155.93133281246588
 20
110.4223603148282
 10
155.81890141684516
 20
110.2568500982971
 10
155.44189177021659
 20
109.80456323584053
 10
155.0223656632171
 20
109.39140766568846
 10
154.56436336159345
 20
109.02136230183525
 10
154.07229567787974
 20
108.6979908834222
 10
153.55090149286175
 20
108.4244076539814
 10
153.00520211756424
 20
108.2032473695682
 10
152.44045293528094
 20
108.03663992461999
 10
151.86209278936056
 20
107.92618983990852
 10
151.27569160417212
 20
107.87296081012772
 10
150.68689674368846
 20
107.87746545993232
 10
150.10137862428408
 20
107.93966040708221
 10
149.5247761055256
 20
108.05894668023713
 10
148.96264218487164
 20
108.23417548737808
 10
148.4203905192718
 20
108.4636592793025
 10
147.90324328869065
 20
108.74518800164553
 10
147.4161809036602
 20
109.07605037891177
 10
146.96389404120364
 20
109.45306002554037
 10
146.55073847105157
 20
109.87258613253985
 10
146.18069310719835
 20
110.33058843416352
 10
145.8573216887853
 20
110.8226561178772
 10
145.58373845934452
 20
111.3440503028952
 10
145.36257817493131
 20
111.8897496781927
 10
145.19597072998312
 20
112.45449886047601
 10
145.08552064527163
 20
113.0328590063964
 10
145.03229161549083
 20
113.61926019158483
 10
145.03679626529544
 20
114.20805505206849
 10
145.09899121244533
 20
114.79357317147287
 10
145.21827748560025
 20
115.37017569023136
 10
145.3935062927412
 20
115.93230961088531
 10
145.62299008466562
 20
116.47456127648516
 10
145.90451880700866
 20
116.99170850706629
 10
146.23538118427487
 20
117.47877089209675
 10
146.61239083090348
 20
117.93105775455331
 10
147.03191693790296
 20
118.34421332470538
 10
147.4899192395266
 20
118.7142586885586
 10
147.98198692324033
 20
119.03763010697165
 10
148.5033811082583
 20
119.31121333641244
 10
149.0490804835558
 20
119.53237362082564
 10
149.6138296658391
 20
119.69898106577385
 10
150.1921898117595
 20
119.80943115048532
 10
150.77859099694794
 20
119.86266018026612
 10
151.3673858574316
 20
119.85815553046152
 10
151.56635262986967
 20
119.83702086786738
 10
151.4669672694976
 20
120.05138139018439
  0
LWPOLYLINE
  5
46
330
17
100
AcDbEntity
  8
0
 62
0
100
AcDbPolyline
 90
24
 70
0
 10
192.60268156783548
 20
124.78310508937894
 10
187.1303282175279
 20
136.5862169167479
 10
186.49741648974506
 20
137.8755404852776
 10
185.06948946044142
 20
140.04491044564875
 10
183.4462726641277
 20
141.72279289021688
 10
181.62691556910988
 20
142.90879348145197
 10
180.63519294775574
 20
143.29669512827365
 10
179.61693632195968
 20
143.605126179813
 10
177.47936834240392
 20
143.8370543618133
 10
175.22012411454423
 20
143.60594145621786
 10
172.83874744421678
 20
142.91054259380275
 10
171.59699951854668
 20
142.368923854628
 10
170.38396091078488
 20
141.7720695256787
 10
168.3131057159161
 20
140.39911778522617
 10
166.66816204205614
 20
138.8118398242335
 10
165.44873555167493
 20
137.0110861743946
 10
165.01617325636005
 20
136.02208009517443
 10
164.6611459527065
 20
135.00254251215372
 10
164.37191126517953
 20
132.8347883820959
 10
164.58689500286414
 20
130.5122645914414
 10
165.3052466340664
 20
128.03457680266018
 10
165.87384012258133
 20
126.73093336580965
 10
171.3461934728889
 20
114.92782153844067
 10
192.60268156783548
 20
124.78310508937894
  0
LWPOLYLINE
  5
47
330
17
100
AcDbEntity
  8
0
 62
0
100
AcDbPolyline
 90
65
 70
0
 10
149.25853027004334
 20
116.29103459187776
 10
149.02952911923148
 20
116.10601190995115
 10
148.81976606573176
 20
115.89943412487511
 10
148.63126124241745
 20
115.67329069364683
 10
148.46583005378434
 20
115.4297595011316
 10
148.32506569261284
 20
115.17118588584104
 10
148.2103237966506
 20
114.90006005304112
 10
148.12270939308013
 20
114.61899309271413
 10
148.06306625650268
 20
114.3306918333349
 10
148.03196878292772
 20
114.0379327736327
 10
148.02971645802543
 20
113.74353534339087
 10
148.05633097291582
 20
113.45033475079666
 10
148.11155601527156
 20
113.16115467783646
 10
148.19485973774567
 20
112.87878008669482
 10
148.30543987995227
 20
112.60593039904606
 10
148.44223149467265
 20
112.34523330653707
 10
148.6039172038792
 20
112.09919946468023
 10
148.7889398858058
 20
111.87019831386839
 10
148.99551767088184
 20
111.66043526036864
 10
149.22166110211012
 20
111.47193043705434
 10
149.46519229462535
 20
111.30649924842123
 10
149.72376590991593
 20
111.16573488724973
 10
149.99489174271582
 20
111.0509929912875
 10
150.27595870304282
 20
110.96337858771703
 10
150.56425996242206
 20
110.90373545113957
 10
150.85701902212423
 20
110.87263797756461
 10
151.15141645236608
 20
110.87038565266232
 10
151.4446170449603
 20
110.89700016755272
 10
151.7337971179205
 20
110.95222520990845
 10
152.01617170906215
 20
111.03552893238256
 10
152.2890213967109
 20
111.14610907458916
 10
152.54971848921988
 20
111.28290068930956
 10
152.79575233107673
 20
111.44458639851608
 10
153.02475348188858
 20
111.62960908044269
 10
153.2345165353883
 20
111.83618686551873
 10
153.4230213587026
 20
112.062330296747
 10
153.58845254733572
 20
112.30586148926224
 10
153.72921690850723
 20
112.5644351045528
 10
153.84395880446945
 20
112.83556093735272
 10
153.93157320803994
 20
113.1166278976797
 10
153.99121634461738
 20
113.40492915705894
 10
154.02231381819234
 20
113.69768821676114
 10
154.02456614309463
 20
113.99208564700297
 10
153.99795162820422
 20
114.28528623959718
 10
153.9427265858485
 20
114.57446631255738
 10
153.8594228633744
 20
114.85684090369904
 10
153.7488427211678
 20
115.12969059134778
 10
153.61205110644738
 20
115.39038768385679
 10
153.45036539724086
 20
115.63642152571362
 10
153.26534271531426
 20
115.86542267652547
 10
153.05876493023823
 20
116.0751857300252
 10
152.83262149900995
 20
116.2636905533395
 10
152.5890903064947
 20
116.42912174197261
 10
152.33051669120417
 20
116.56988610314414
 10
152.05939085840424
 20
116.68462799910634
 10
151.77832389807725
 20
116.77224240267681
 10
151.490022638698
 20
116.83188553925427
 10
151.19726357899583
 20
116.86298301282923
 10
150.902866148754
 20
116.86523533773152
 10
150.60966555615977
 20
116.83862082284112
 10
150.32048548319958
 20
116.78339578048539
 10
150.03811089205792
 20
116.70009205801128
 10
149.76526120440917
 20
116.58951191580468
 10
149.50456411190018
 20
116.45272030108427
 10
149.25853027004334
 20
116.29103459187776
  0
LWPOLYLINE
  5
48
330
17
100
AcDbEntity
  8
0
 62
0
100
AcDbPolyline
 90
99
 70
0
 10
106.81542590567332
 20
205.90077299845657
 10
115.67824112902305
 20
181.8732344995433
 10
180.81810828948966
 20
205.90077299845666
 10
187.9332774028075
 20
186.61119113443257
 10
122.79341024234091
 20
162.5836526355192
 10
131.49357325346986
 20
138.99707247688272
 10
116.59481060752127
 20
133.50150411503992
 10
112.16120987960275
 20
145.52121901310247
 10
112.03579308240734
 20
145.3653181552516
 10
111.62352585230649
 20
144.94491904656223
 10
111.17203748317185
 20
144.56695352943407
 10
110.68567605480682
 20
144.235061618414
 10
110.16912549363877
 20
143.9524396140357
 10
109.62736046394701
 20
143.72180932069827
 10
109.06559845912636
 20
143.5453918342019
 10
108.4892495543736
 20
143.4248861513811
 10
107.90386430470583
 20
143.36145280783657
 10
107.31508029008151
 20
143.35570270134286
 10
106.72856782242354
 20
143.40769120856882
 10
106.14997533741581
 20
143.51691765177003
 10
105.58487499697974
 20
143.68233012058926
 10
105.03870902630902
 20
143.90233560252807
 10
104.5167373022659
 20
144.17481532452823
 10
104.02398669789167
 20
144.49714515791425
 10
103.56520267087137
 20
144.86622089018724
 10
103.14480356218202
 20
145.2784881202881
 10
102.76683804505385
 20
145.72997648942274
 10
102.43494613403377
 20
146.21633791778777
 10
102.15232412965547
 20
146.7328884789558
 10
101.92169383631804
 20
147.27465350864756
 10
101.74527634982164
 20
147.8364155134682
 10
101.62477066700086
 20
148.412764418221
 10
101.56133732345634
 20
148.99814966788875
 10
101.55558721696264
 20
149.5869336825131
 10
101.60757572418858
 20
150.17344615017106
 10
101.7168021673898
 20
150.7520386351788
 10
101.88221463620903
 20
151.31713897561485
 10
102.10222011814784
 20
151.86330494628555
 10
102.374699840148
 20
152.3852766703287
 10
102.69702967353402
 20
152.8780272747029
 10
103.06610540580701
 20
153.33681130172323
 10
103.47837263590785
 20
153.75721041041257
 10
103.92986100504251
 20
154.13517592754073
 10
104.41622243340754
 20
154.4670678385608
 10
104.93277299457557
 20
154.74968984293912
 10
105.47453802426733
 20
154.98032013627653
 10
106.03630002908798
 20
155.15673762277294
 10
106.61264893384076
 20
155.27724330559374
 10
107.19803418350851
 20
155.34067664913823
 10
107.78681819813283
 20
155.34642675563197
 10
108.3733306657908
 20
155.294438248406
 10
108.56994401640074
 20
155.2573216637122
 10
97.17298155772548
 20
186.1550609649937
 10
97.04756476053007
 20
185.9991601071428
 10
96.63529753042921
 20
185.5787609984535
 10
96.18380916129458
 20
185.20079548132531
 10
95.69744773292956
 20
184.86890357030524
 10
95.1808971717615
 20
184.58628156592692
 10
94.63913214206976
 20
184.3556512725895
 10
94.0773701372491
 20
184.1792337860931
 10
93.50102123249633
 20
184.05872810327233
 10
92.91563598282858
 20
183.9952947597278
 10
92.32685196820425
 20
183.98954465323408
 10
91.74033950054627
 20
184.04153316046006
 10
91.16174701553854
 20
184.15075960366127
 10
90.59664667510246
 20
184.3161720724805
 10
90.05048070443175
 20
184.5361775544193
 10
89.52850898038864
 20
184.80865727641947
 10
89.0357583760144
 20
185.1309871098055
 10
88.5769743489941
 20
185.50006284207848
 10
88.15657524030475
 20
185.91233007217934
 10
87.77860972317657
 20
186.36381844131398
 10
87.44671781215649
 20
186.85017986967898
 10
87.16409580777821
 20
187.36673043084704
 10
86.93346551444077
 20
187.9084954605388
 10
86.75704802794436
 20
188.47025746535945
 10
86.63654234512359
 20
189.04660637011222
 10
86.57310900157907
 20
189.63199161978
 10
86.56735889508536
 20
190.2207756344043
 10
86.61934740231132
 20
190.80728810206227
 10
86.72857384551253
 20
191.38588058707
 10
86.89398631433176
 20
191.9509809275061
 10
87.11399179627057
 20
192.49714689817682
 10
87.38647151827072
 20
193.01911862221993
 10
87.70880135165675
 20
193.51186922659417
 10
88.07787708392974
 20
193.97065325361444
 10
88.49014431403059
 20
194.3910523623038
 10
88.94163268316524
 20
194.76901787943197
 10
89.42799411153027
 20
195.10090979045205
 10
89.9445446726983
 20
195.38353179483036
 10
90.48630970239006
 20
195.61416208816777
 10
91.04807170721071
 20
195.7905795746642
 10
91.62442061196349
 20
195.91108525748496
 10
92.20980586163125
 20
195.97451860102947
 10
92.79858987625556
 20
195.98026870752318
 10
93.38510234391353
 20
195.92828020029725
 10
93.58171569452347
 20
195.89116361560343
 10
91.91666325972474
 20
200.4052046366138
 10
106.81542590567332
 20
205.90077299845657
  0
LWPOLYLINE
  5
49
330
17
100
AcDbEntity
  8
0
 62
0
100
AcDbPolyline
 90
65
 70
0
 10
105.74040512457483
 20
151.74312032801407
 10
105.51466094000753
 20
151.55413756945
 10
105.30852732495708
 20
151.34393801510532
 10
105.1239894588206
 20
151.11454600159516
 10
104.96282454212758
 20
150.86817069940804
 10
104.82658468112751
 20
150.60718483738648
 10
104.7165819401581
 20
150.33410185205113
 10
104.6338757057485
 20
150.0515516818331
 10
104.57926248414788
 20
149.76225543932924
 10
104.5532682305349
 20
149.46899920550024
 10
104.55614328378175
 20
149.17460719818808
 10
104.58785995555402
 20
148.8819145733542
 10
104.64811279696441
 20
148.59374012097783
 10
104.7363215402126
 20
148.3128591185675
 10
104.85163668688132
 20
148.04197660372162
 10
104.99294768907048
 20
147.7837013231376
 10
105.1588936445805
 20
147.5405206089551
 10
105.3478764031446
 20
147.31477642438776
 10
105.55807595748927
 20
147.10864280933734
 10
105.78746797099942
 20
146.92410494320083
 10
106.03384327318655
 20
146.76294002650783
 10
106.29482913520809
 20
146.62670016550774
 10
106.56791212054345
 20
146.51669742453834
 10
106.85046229076148
 20
146.43399119012872
 10
107.13975853326535
 20
146.3793779685281
 10
107.43301476709435
 20
146.35338371491514
 10
107.7274067744065
 20
146.35625876816198
 10
108.0200993992404
 20
146.38797543993425
 10
108.30827385161678
 20
146.44822828134465
 10
108.5891548540271
 20
146.53643702459283
 10
108.86003736887298
 20
146.65175217126156
 10
109.118312649457
 20
146.79306317345072
 10
109.36149336363951
 20
146.95900912896076
 10
109.58723754820683
 20
147.14799188752482
 10
109.79337116325726
 20
147.3581914418695
 10
109.97790902939376
 20
147.58758345537967
 10
110.13907394608677
 20
147.83395875756676
 10
110.27531380708683
 20
148.09494461958832
 10
110.38531654805627
 20
148.3680276049237
 10
110.46802278246587
 20
148.65057777514173
 10
110.52263600406647
 20
148.9398740176456
 10
110.54863025767946
 20
149.23313025147456
 10
110.5457552044326
 20
149.52752225878675
 10
110.51403853266034
 20
149.82021488362062
 10
110.45378569124995
 20
150.108389335997
 10
110.36557694800175
 20
150.38927033840733
 10
110.25026180133302
 20
150.6601528532532
 10
110.10895079914388
 20
150.91842813383724
 10
109.94300484363384
 20
151.16160884801974
 10
109.75402208506976
 20
151.38735303258707
 10
109.54382253072508
 20
151.5934866476375
 10
109.31443051721493
 20
151.778024513774
 10
109.06805521502783
 20
151.939189430467
 10
108.80706935300626
 20
152.07542929146706
 10
108.53398636767089
 20
152.1854320324365
 10
108.25143619745288
 20
152.2681382668461
 10
107.962139954949
 20
152.32275148844673
 10
107.66888372112001
 20
152.3487457420597
 10
107.37449171380784
 20
152.34587068881282
 10
107.08179908897397
 20
152.31415401704058
 10
106.79362463659757
 20
152.25390117563018
 10
106.51274363418726
 20
152.16569243238197
 10
106.24186111934137
 20
152.05037728571327
 10
105.98358583875735
 20
151.9090662835241
 10
105.74040512457483
 20
151.74312032801407
  0
LWPOLYLINE
  5
4A
330
17
100
AcDbEntity
  8
0
 62
0
100
AcDbPolyline
 90
65
 70
0
 10
90.99535751688009
 20
192.54290823541535
 10
90.75217680269758
 20
192.3769622799053
 10
90.52643261813026
 20
192.18797952134122
 10
90.32029900307982
 20
191.97777996699656
 10
90.13576113694333
 20
191.7483879534864
 10
89.9745962202503
 20
191.5020126512993
 10
89.83835635925024
 20
191.24102678927773
 10
89.72835361828082
 20
190.96794380394238
 10
89.64564738387122
 20
190.68539363372432
 10
89.59103416227062
 20
190.39609739122045
 10
89.56503990865762
 20
190.10284115739148
 10
89.56791496190449
 20
189.8084491500793
 10
89.59963163367675
 20
189.51575652524542
 10
89.65988447508714
 20
189.22758207286904
 10
89.74809321833534
 20
188.94670107045874
 10
89.86340836500406
 20
188.67581855561286
 10
90.0047193671932
 20
188.41754327502883
 10
90.17066532270324
 20
188.1743625608463
 10
90.35964808126732
 20
187.948618376279
 10
90.569847635612
 20
187.74248476122858
 10
90.79923964912214
 20
187.55794689509207
 10
91.04561495130928
 20
187.39678197839908
 10
91.30660081333082
 20
187.26054211739898
 10
91.5796837986662
 20
187.15053937642955
 10
91.86223396888421
 20
187.06783314201996
 10
92.15153021138809
 20
187.01321992041935
 10
92.44478644521708
 20
186.98722566680635
 10
92.73917845252925
 20
186.99010072005322
 10
93.03187107736312
 20
187.0218173918255
 10
93.3200455297395
 20
187.08207023323587
 10
93.60092653214983
 20
187.17027897648407
 10
93.87180904699571
 20
187.2855941231528
 10
94.13008432757974
 20
187.42690512534193
 10
94.37326504176224
 20
187.59285108085197
 10
94.59900922632957
 20
187.78183383941607
 10
94.80514284137999
 20
187.99203339376075
 10
94.98968070751648
 20
188.22142540727089
 10
95.1508456242095
 20
188.467800709458
 10
95.28708548520957
 20
188.7287865714796
 10
95.397088226179
 20
189.00186955681494
 10
95.4797944605886
 20
189.28441972703297
 10
95.5344076821892
 20
189.57371596953686
 10
95.56040193580219
 20
189.86697220336583
 10
95.55752688255532
 20
190.161364210678
 10
95.52581021078308
 20
190.45405683551184
 10
95.46555736937268
 20
190.74223128788825
 10
95.37734862612447
 20
191.02311229029857
 10
95.26203347945577
 20
191.29399480514445
 10
95.12072247726661
 20
191.55227008572848
 10
94.95477652175657
 20
191.79545079991098
 10
94.76579376319249
 20
192.0211949844783
 10
94.55559420884782
 20
192.22732859952873
 10
94.32620219533766
 20
192.4118664656652
 10
94.07982689315055
 20
192.57303138235824
 10
93.81884103112898
 20
192.70927124335833
 10
93.54575804579363
 20
192.81927398432774
 10
93.2632078755756
 20
192.90198021873732
 10
92.97391163307174
 20
192.95659344033794
 10
92.68065539924274
 20
192.98258769395093
 10
92.38626339193058
 20
192.97971264070407
 10
92.09357076709671
 20
192.94799596893182
 10
91.80539631472031
 20
192.8877431275214
 10
91.52451531230999
 20
192.79953438427322
 10
91.2536327974641
 20
192.6842192376045
 10
90.99535751688009
 20
192.54290823541535
  0
LWPOLYLINE
  5
4B
330
17
100
AcDbEntity
  8
0
 62
0
100
AcDbPolyline
 90
103
 70
0
 10
191.89769404153776
 20
279.1000000014904
 10
191.8976940415377
 20
258.6500000014904
 10
156.27769404153773
 20
258.65000000149047
 10
156.2776940415377
 20
228.36000000149045
 10
191.8976940415377
 20
228.36000000149042
 10
191.8976940415377
 20
207.80000000149042
 10
106.58769404153769
 20
207.80000000149047
 10
106.58769404153769
 20
212.89133723244754
 10
106.41607446249367
 20
212.78847241540035
 10
105.88379463572822
 20
212.53672280642277
 10
105.32940210506446
 20
212.33835798709723
 10
104.75823597363446
 20
212.1952883190711
 10
104.17579688351505
 20
212.10889164145732
 10
103.58769404153769
 20
212.08000000149048
 10
102.99959119956033
 20
212.10889164145732
 10
102.41715210944092
 20
212.1952883190711
 10
101.84598597801092
 20
212.33835798709723
 10
101.29159344734715
 20
212.53672280642277
 10
100.75931362058171
 20
212.78847241540035
 10
100.25427264342008
 20
213.09118232767523
 10
99.78133433655582
 20
213.44193728131407
 10
99.3450533544184
 20
213.8373593143712
 10
98.94963132136127
 20
214.2736402965086
 10
98.59887636772241
 20
214.74657860337288
 10
98.29616645544756
 20
215.2516195805345
 10
98.04441684646997
 20
215.78389940729994
 10
97.84605202714444
 20
216.33829193796373
 10
97.70298235911831
 20
216.90945806939374
 10
97.6165856815045
 20
217.49189715951314
 10
97.58769404153769
 20
218.0800000014905
 10
97.6165856815045
 20
218.66810284346786
 10
97.70298235911831
 20
219.25054193358727
 10
97.84605202714444
 20
219.82170806501728
 10
98.04441684646997
 20
220.37610059568104
 10
98.29616645544756
 20
220.90838042244647
 10
98.59887636772241
 20
221.4134213996081
 10
98.94963132136127
 20
221.88635970647238
 10
99.3450533544184
 20
222.32264068860977
 10
99.78133433655583
 20
222.7180627216669
 10
100.25427264342008
 20
223.06881767530575
 10
100.75931362058171
 20
223.37152758758063
 10
101.29159344734714
 20
223.6232771965582
 10
101.84598597801093
 20
223.82164201588375
 10
102.41715210944093
 20
223.96471168390985
 10
102.99959119956034
 20
224.05110836152366
 10
103.5876940415377
 20
224.08000000149048
 10
104.17579688351506
 20
224.05110836152366
 10
104.75823597363447
 20
223.96471168390985
 10
105.32940210506447
 20
223.82164201588375
 10
105.88379463572824
 20
223.6232771965582
 10
106.41607446249367
 20
223.3715275875806
 10
106.5876940415377
 20
223.26866277053344
 10
106.5876940415377
 20
228.36000000149048
 10
140.44769404153772
 20
228.36000000149045
 10
140.44769404153772
 20
258.65000000149047
 10
106.58769404153772
 20
258.65000000149047
 10
106.58769404153773
 20
263.68633723244756
 10
106.41607446249371
 20
263.58347241540037
 10
105.88379463572826
 20
263.33172280642276
 10
105.3294021050645
 20
263.13335798709727
 10
104.7582359736345
 20
262.9902883190711
 10
104.17579688351509
 20
262.90389164145734
 10
103.58769404153773
 20
262.8750000014905
 10
102.99959119956037
 20
262.90389164145734
 10
102.41715210944096
 20
262.9902883190711
 10
101.84598597801096
 20
263.13335798709727
 10
101.2915934473472
 20
263.33172280642276
 10
100.75931362058175
 20
263.58347241540037
 10
100.25427264342012
 20
263.8861823276752
 10
99.78133433655586
 20
264.23693728131406
 10
99.34505335441844
 20
264.63235931437123
 10
98.94963132136131
 20
265.06864029650865
 10
98.59887636772245
 20
265.5415786033729
 10
98.2961664554476
 20
266.0466195805345
 10
98.04441684647001
 20
266.57889940729996
 10
97.84605202714448
 20
267.13329193796375
 10
97.70298235911835
 20
267.7044580693937
 10
97.61658568150455
 20
268.28689715951316
 10
97.58769404153773
 20
268.8750000014905
 10
97.61658568150455
 20
269.4631028434679
 10
97.70298235911835
 20
270.0455419335873
 10
97.84605202714448
 20
270.6167080650173
 10
98.04441684647001
 20
271.171100595681
 10
98.2961664554476
 20
271.70338042244646
 10
98.59887636772245
 20
272.2084213996081
 10
98.94963132136131
 20
272.6813597064724
 10
99.34505335441844
 20
273.11764068860975
 10
99.78133433655586
 20
273.5130627216669
 10
100.25427264342012
 20
273.86381767530577
 10
100.75931362058174
 20
274.1665275875806
 10
101.29159344734718
 20
274.41827719655817
 10
101.84598597801096
 20
274.6166420158837
 10
102.41715210944096
 20
274.75971168390987
 10
102.99959119956037
 20
274.84610836152365
 10
103.58769404153773
 20
274.8750000014905
 10
104.17579688351509
 20
274.84610836152365
 10
104.7582359736345
 20
274.75971168390987
 10
105.3294021050645
 20
274.6166420158837
 10
105.88379463572826
 20
274.41827719655817
 10
106.41607446249371
 20
274.1665275875806
 10
106.58769404153773
 20
274.0636627705334
 10
106.58769404153774
 20
279.10000000149046
 10
191.89769404153776
 20
279.1000000014904
  0
LWPOLYLINE
  5
4C
330
17
100
AcDbEntity
  8
0
 62
0
100
AcDbPolyline
 90
65
 70
0
 10
102.71684000977434
 20
271.74582100868713
 10
102.43964374444246
 20
271.64663859902436
 10
102.17350383105973
 20
271.5207637945356
 10
101.92098334247892
 20
271.36940883839816
 10
101.6845141890468
 20
271.1940313615787
 10
101.46637369797809
 20
270.9963203450501
 10
101.26866268144951
 20
270.77817985398144
 10
101.09328520463009
 20
270.5417107005493
 10
100.94193024849267
 20
270.2891902119685
 10
100.81605544400387
 20
270.02305029858576
 10
100.7168730343411
 20
269.74585403325386
 10
100.64533820032804
 20
269.46027096753886
 10
100.60213986152114
 20
269.16905142247913
 10
100.58769404153773
 20
268.8750000014905
 10
100.60213986152114
 20
268.5809485805018
 10
100.64533820032804
 20
268.28972903544206
 10
100.7168730343411
 20
268.0041459697271
 10
100.81605544400387
 20
267.7269497043952
 10
100.94193024849267
 20
267.4608097910125
 10
101.09328520463009
 20
267.2082893024317
 10
101.26866268144953
 20
266.97182014899954
 10
101.46637369797809
 20
266.75367965793083
 10
101.6845141890468
 20
266.5559686414023
 10
101.92098334247892
 20
266.3805911645828
 10
102.17350383105973
 20
266.2292362084454
 10
102.43964374444246
 20
266.1033614039566
 10
102.71684000977434
 20
266.00417899429385
 10
103.00242307548935
 20
265.9326441602808
 10
103.29364262054905
 20
265.8894458214739
 10
103.58769404153773
 20
265.8750000014905
 10
103.88174546252641
 20
265.8894458214739
 10
104.17296500758611
 20
265.9326441602808
 10
104.45854807330112
 20
266.00417899429385
 10
104.735744338633
 20
266.1033614039566
 10
105.00188425201573
 20
266.2292362084454
 10
105.25440474059654
 20
266.3805911645828
 10
105.49087389402867
 20
266.5559686414023
 10
105.70901438509738
 20
266.75367965793083
 10
105.90672540162595
 20
266.97182014899954
 10
106.08210287844537
 20
267.2082893024317
 10
106.2334578345828
 20
267.4608097910125
 10
106.3593326390716
 20
267.7269497043952
 10
106.45851504873436
 20
268.0041459697271
 10
106.53004988274742
 20
268.28972903544206
 10
106.57324822155432
 20
268.5809485805018
 10
106.58769404153773
 20
268.8750000014905
 10
106.57324822155432
 20
269.16905142247913
 10
106.53004988274742
 20
269.46027096753886
 10
106.45851504873436
 20
269.74585403325386
 10
106.3593326390716
 20
270.02305029858576
 10
106.2334578345828
 20
270.2891902119685
 10
106.08210287844537
 20
270.5417107005493
 10
105.90672540162595
 20
270.77817985398144
 10
105.70901438509738
 20
270.9963203450501
 10
105.49087389402867
 20
271.1940313615787
 10
105.25440474059654
 20
271.36940883839816
 10
105.00188425201573
 20
271.5207637945356
 10
104.735744338633
 20
271.64663859902436
 10
104.45854807330112
 20
271.74582100868713
 10
104.17296500758611
 20
271.8173558427002
 10
103.88174546252641
 20
271.86055418150704
 10
103.58769404153773
 20
271.8750000014905
 10
103.29364262054905
 20
271.86055418150704
 10
103.00242307548935
 20
271.8173558427002
 10
102.71684000977434
 20
271.74582100868713
  0
LWPOLYLINE
  5
4D
330
17
100
AcDbEntity
  8
0
 62
0
100
AcDbPolyline
 90
65
 70
0
 10
103.0024230754893
 20
221.02235584270016
 10
102.7168400097743
 20
220.95082100868711
 10
102.43964374444242
 20
220.85163859902434
 10
102.17350383105969
 20
220.72576379453557
 10
101.92098334247888
 20
220.5744088383981
 10
101.68451418904675
 20
220.3990313615787
 10
101.46637369797804
 20
220.20132034505014
 10
101.26866268144947
 20
219.98317985398143
 10
101.09328520463005
 20
219.7467107005493
 10
100.94193024849262
 20
219.4941902119685
 10
100.81605544400382
 20
219.22805029858577
 10
100.71687303434106
 20
218.95085403325388
 10
100.645338200328
 20
218.66527096753887
 10
100.6021398615211
 20
218.37405142247917
 10
100.58769404153769
 20
218.08000000149048
 10
100.6021398615211
 20
217.7859485805018
 10
100.645338200328
 20
217.4947290354421
 10
100.71687303434106
 20
217.2091459697271
 10
100.81605544400382
 20
216.9319497043952
 10
100.94193024849262
 20
216.6658097910125
 10
101.09328520463005
 20
216.41328930243168
 10
101.26866268144948
 20
216.17682014899955
 10
101.46637369797804
 20
215.95867965793084
 10
101.68451418904675
 20
215.7609686414023
 10
101.92098334247888
 20
215.58559116458287
 10
102.17350383105969
 20
215.43423620844544
 10
102.43964374444242
 20
215.30836140395664
 10
102.7168400097743
 20
215.20917899429386
 10
103.0024230754893
 20
215.1376441602808
 10
103.29364262054901
 20
215.0944458214739
 10
103.58769404153769
 20
215.08000000149048
 10
103.88174546252637
 20
215.0944458214739
 10
104.17296500758607
 20
215.1376441602808
 10
104.45854807330107
 20
215.20917899429386
 10
104.73574433863295
 20
215.30836140395664
 10
105.00188425201569
 20
215.4342362084454
 10
105.2544047405965
 20
215.58559116458284
 10
105.49087389402862
 20
215.7609686414023
 10
105.70901438509733
 20
215.95867965793084
 10
105.9067254016259
 20
216.17682014899955
 10
106.08210287844533
 20
216.41328930243168
 10
106.23345783458275
 20
216.6658097910125
 10
106.35933263907155
 20
216.9319497043952
 10
106.45851504873431
 20
217.2091459697271
 10
106.53004988274738
 20
217.4947290354421
 10
106.57324822155428
 20
217.7859485805018
 10
106.58769404153769
 20
218.08000000149048
 10
106.57324822155428
 20
218.37405142247917
 10
106.53004988274738
 20
218.66527096753887
 10
106.45851504873431
 20
218.95085403325388
 10
106.35933263907155
 20
219.22805029858574
 10
106.23345783458275
 20
219.4941902119685
 10
106.08210287844533
 20
219.7467107005493
 10
105.9067254016259
 20
219.98317985398143
 10
105.70901438509733
 20
220.20132034505014
 10
105.49087389402862
 20
220.3990313615787
 10
105.2544047405965
 20
220.5744088383981
 10
105.00188425201569
 20
220.72576379453554
 10
104.73574433863295
 20
220.85163859902434
 10
104.45854807330107
 20
220.95082100868711
 10
104.17296500758607
 20
221.02235584270016
 10
103.88174546252637
 20
221.06555418150708
 10
103.58769404153769
 20
221.08000000149048
 10
103.29364262054901
 20
221.06555418150708
 10
103.0024230754893
 20
221.02235584270016
  0
LWPOLYLINE
  5
4E
330
17
100
AcDbEntity
  8
0
 62
0
100
AcDbPolyline
 90
79
 70
0
 10
256.86538350926173
 20
31.180312498509856
 10
257.5061647592617
 20
36.546093748509854
 10
258.7867897592617
 20
41.62921874850986
 10
260.7063210092617
 20
46.428749998509865
 10
261.9319460092617
 20
48.709999998509865
 10
263.25850850926173
 20
50.92281249850986
 10
266.35178975926175
 20
54.93859374850987
 10
269.9724147592617
 20
58.46171874850986
 10
274.11944600926176
 20
61.49124999850985
 10
276.4119460092617
 20
62.79999999850984
 10
278.77163350926173
 20
64.01531249850984
 10
283.72538350926175
 20
65.92406249850984
 10
288.9603835092617
 20
67.20656249850984
 10
294.4766335092617
 20
67.86281249850984
 10
297.3519460092617
 20
67.92999999850986
 10
301.28194600926173
 20
67.92999999850986
 10
304.1853835092617
 20
67.87843749850984
 10
309.73960225926174
 20
67.25968749850983
 10
314.9914772592617
 20
66.02218749850985
 10
319.94194600926176
 20
64.16593749850983
 10
322.2919460092617
 20
62.97999999850983
 10
324.57100850926173
 20
61.69718749850983
 10
328.70772725926173
 20
58.714531248509836
 10
332.3396022592617
 20
55.22890624850982
 10
335.46757100926175
 20
51.23749999850982
 10
336.82194600926175
 20
49.02999999850982
 10
338.07694600926175
 20
46.75843749850982
 10
340.04897725926173
 20
41.99968749850982
 10
341.37460225926174
 20
36.982187498509816
 10
342.05288350926173
 20
31.70593749850982
 10
342.1219460092617
 20
28.959999998509822
 10
342.1219460092617
 20
0.8999999985098235
 10
256.8119460092617
 20
0.8999999985098643
 10
256.8119460092617
 20
20.350292470927464
 10
256.64032643021767
 20
20.247427653880273
 10
256.10804660345224
 20
19.995678044902682
 10
255.55365407278848
 20
19.79731322557715
 10
254.98248794135847
 20
19.65424355755102
 10
254.40004885123906
 20
19.56784687993723
 10
253.8119460092617
 20
19.538955239970413
 10
253.22384316728434
 20
19.567846879937235
 10
252.64140407716494
 20
19.654243557551027
 10
252.07023794573493
 20
19.797313225577156
 10
251.51584541507117
 20
19.99567804490269
 10
250.98356558830574
 20
20.24742765388028
 10
250.4785246111441
 20
20.550137566155144
 10
250.00558630427983
 20
20.90089251979399
 10
249.5693053221424
 20
21.29631455285113
 10
249.1738832890853
 20
21.732595534988533
 10
248.82312833544643
 20
22.205533841852798
 10
248.52041842317158
 20
22.710574819014425
 10
248.268668814194
 20
23.24285464577987
 10
248.07030399486845
 20
23.797247176443634
 10
247.92723432684232
 20
24.368413307873638
 10
247.84083764922852
 20
24.950852397993046
 10
247.8119460092617
 20
25.538955239970413
 10
247.84083764922852
 20
26.127058081947773
 10
247.92723432684232
 20
26.709497172067188
 10
248.07030399486845
 20
27.280663303497185
 10
248.268668814194
 20
27.835055834160954
 10
248.52041842317158
 20
28.3673356609264
 10
248.82312833544643
 20
28.872376638088028
 10
249.1738832890853
 20
29.345314944952285
 10
249.5693053221424
 20
29.781595927089697
 10
250.00558630427983
 20
30.177017960146834
 10
250.4785246111441
 20
30.527772913785682
 10
250.9835655883057
 20
30.830482826060546
 10
251.51584541507117
 20
31.082232435038136
 10
252.07023794573493
 20
31.28059725436367
 10
252.64140407716494
 20
31.4236669223898
 10
253.22384316728434
 20
31.51006360000359
 10
253.8119460092617
 20
31.538955239970413
 10
254.40004885123906
 20
31.510063600003583
 10
254.98248794135847
 20
31.423666922389792
 10
255.55365407278848
 20
31.280597254363663
 10
256.10804660345224
 20
31.08223243503813
 10
256.64032643021767
 20
30.83048282606054
 10
256.85623827711186
 20
30.701070245323514
 10
256.86538350926173
 20
31.180312498509856
  0
LWPOLYLINE
  5
4F
330
17
100
AcDbEntity
  8
0
 62
0
100
AcDbPolyline
 90
25
 70
0
 10
272.6919460092617
 20
21.459999998509858
 10
326.3019460092617
 20
21.459999998509836
 10
326.3019460092617
 20
28.609999998509828
 10
326.2363210092617
 20
30.779687498509837
 10
325.44882100926174
 20
34.69093749850983
 10
323.87382100926175
 20
38.08843749850983
 10
321.51132100926174
 20
40.97218749850983
 10
320.0019460092617
 20
42.19999999850983
 10
318.36319600926174
 20
43.339062498509826
 10
314.4481960092617
 20
45.12078124850982
 10
309.7681960092617
 20
46.30765624850983
 10
304.3231960092617
 20
46.90062499850984
 10
301.28194600926173
 20
46.94999999850984
 10
297.59194600926173
 20
46.94999999850984
 10
294.5653835092617
 20
46.90062499850985
 10
289.14663350926173
 20
46.307656248509836
 10
284.4891335092617
 20
45.120781248509836
 10
280.5928835092617
 20
43.33906249850985
 10
278.96194600926174
 20
42.19999999850985
 10
277.45975850926175
 20
40.969687498509856
 10
275.1085085092617
 20
38.05640624850986
 10
273.5410085092617
 20
34.60078124850985
 10
272.7572585092617
 20
30.603749998509855
 10
272.6919460092617
 20
28.37999999850986
 10
272.6919460092617
 20
21.459999998509858
  0
LWPOLYLINE
  5
50
330
17
100
AcDbEntity
  8
0
 62
0
100
AcDbPolyline
 90
65
 70
0
 10
253.22667504321333
 20
28.481311081180102
 10
252.94109197749833
 20
28.409776247167038
 10
252.66389571216644
 20
28.31059383750427
 10
252.39775579878372
 20
28.184719033015476
 10
252.1452353102029
 20
28.033364076878044
 10
251.90876615677078
 20
27.857986600058624
 10
251.69062566570207
 20
27.66027558353005
 10
251.49291464917349
 20
27.44213509246135
 10
251.31753717235406
 20
27.205665939029217
 10
251.16618221621664
 20
26.953145450448403
 10
251.04030741172784
 20
26.687005537065687
 10
250.9411250020651
 20
26.4098092717338
 10
250.869590168052
 20
26.124226206018797
 10
250.82639182924513
 20
25.833006660959093
 10
250.8119460092617
 20
25.538955239970413
 10
250.82639182924513
 20
25.244903818981733
 10
250.869590168052
 20
24.953684273922022
 10
250.9411250020651
 20
24.668101208207027
 10
251.04030741172784
 20
24.39090494287514
 10
251.16618221621664
 20
24.124765029492423
 10
251.31753717235406
 20
23.87224454091161
 10
251.4929146491735
 20
23.635775387479477
 10
251.69062566570207
 20
23.417634896410775
 10
251.90876615677078
 20
23.219923879882202
 10
252.1452353102029
 20
23.044546403062775
 10
252.39775579878372
 20
22.893191446925343
 10
252.66389571216644
 20
22.767316642436555
 10
252.94109197749833
 20
22.668134232773788
 10
253.22667504321333
 20
22.596599398760723
 10
253.51789458827304
 20
22.55340105995382
 10
253.8119460092617
 20
22.538955239970413
 10
254.1059974302504
 20
22.55340105995382
 10
254.3972169753101
 20
22.596599398760716
 10
254.6828000410251
 20
22.66813423277378
 10
254.95999630635697
 20
22.767316642436548
 10
255.22613621973971
 20
22.893191446925343
 10
255.47865670832053
 20
23.044546403062775
 10
255.71512586175265
 20
23.219923879882195
 10
255.93326635282136
 20
23.417634896410767
 10
256.1309773693499
 20
23.63577538747947
 10
256.30635484616937
 20
23.872244540911602
 10
256.4577098023068
 20
24.124765029492416
 10
256.58358460679557
 20
24.39090494287513
 10
256.68276701645834
 20
24.66810120820702
 10
256.7543018504714
 20
24.953684273922022
 10
256.7975001892783
 20
25.24490381898172
 10
256.8119460092617
 20
25.538955239970406
 10
256.7975001892783
 20
25.833006660959093
 10
256.7543018504714
 20
26.12422620601879
 10
256.68276701645834
 20
26.409809271733792
 10
256.58358460679557
 20
26.68700553706568
 10
256.4577098023068
 20
26.953145450448396
 10
256.30635484616937
 20
27.20566593902921
 10
256.1309773693499
 20
27.442135092461342
 10
255.93326635282136
 20
27.660275583530044
 10
255.71512586175265
 20
27.857986600058616
 10
255.47865670832053
 20
28.033364076878037
 10
255.22613621973971
 20
28.184719033015476
 10
254.95999630635697
 20
28.310593837504264
 10
254.6828000410251
 20
28.40977624716703
 10
254.3972169753101
 20
28.481311081180095
 10
254.1059974302504
 20
28.524509419987005
 10
253.8119460092617
 20
28.538955239970413
 10
253.51789458827304
 20
28.524509419987005
 10
253.22667504321333
 20
28.481311081180102
  0
LWPOLYLINE
  5
51
330
17
100
AcDbEntity
  8
0
 62
0
100
AcDbPolyline
 90
54
 70
0
 10
315.0939349668279
 20
82.00326171902921
 10
356.1546579689405
 20
163.15326804400604
 10
371.1870337715792
 20
146.966984414703
 10
362.89603650793276
 20
132.47066197160706
 10
382.0726933715977
 20
111.82197601987511
 10
397.10069925661685
 20
119.06414690434273
 10
412.05821940790696
 20
102.95846495902448
 10
328.25491948575194
 20
67.83202018934519
 10
325.1998389311584
 20
71.12161333258864
 10
325.14408607484216
 20
70.9294517612223
 10
324.92537908000907
 20
70.38276452887376
 10
324.6541404999653
 20
69.86014677917743
 10
324.3329825105108
 20
69.36663160675478
 10
323.9649980386468
 20
68.9069718324991
 10
323.5537309759981
 20
68.48559423131202
 10
323.10314204919956
 20
68.10655689984146
 10
322.6175706759331
 20
67.77351017479232
 10
322.10169317396367
 20
67.4896614781887
 10
321.5604777256425
 20
67.25774442814637
 10
320.99913653159535
 20
67.07999251263598
 10
320.42307561438133
 20
66.95811757977302
 10
319.83784275554007
 20
66.89329335178452
 10
319.24907406742307
 20
66.88614412142257
 10
318.6624397143505
 20
66.93673873968372
 10
318.0835893058295
 20
67.04458995273627
 10
317.518097487726
 20
67.20865909444107
 10
316.9714102553774
 20
67.42736608927419
 10
316.44879250568107
 20
67.69860466931794
 10
315.95527733325844
 20
68.01976265877246
 10
315.49561755900277
 20
68.38774713063647
 10
315.0742399578157
 20
68.79901419328513
 10
314.6952026263451
 20
69.2496031200837
 10
314.362155901296
 20
69.73517449335017
 10
314.07830720469235
 20
70.25105199531963
 10
313.84639015465
 20
70.7922674436408
 10
313.6686382391396
 20
71.3536086376879
 10
313.54676330627666
 20
71.92966955490192
 10
313.4819390782882
 20
72.51490241374319
 10
313.4747898479262
 20
73.10367110186021
 10
313.52538446618735
 20
73.69030545493274
 10
313.63323567923993
 20
74.26915586345373
 10
313.7973048209447
 20
74.8346476815573
 10
314.0160118157778
 20
75.38133491390583
 10
314.2872503958216
 20
75.90395266360218
 10
314.6084083852761
 20
76.39746783602482
 10
314.9763928571401
 20
76.85712761028051
 10
315.3876599197888
 20
77.27850521146758
 10
315.83824884658736
 20
77.65754254293815
 10
316.3238202198538
 20
77.99058926798729
 10
316.83969772182326
 20
78.2744379645909
 10
317.3809131701444
 20
78.50635501463324
 10
317.9422543641915
 20
78.68410693014361
 10
318.1380074547063
 20
78.72552163829565
 10
315.0939349668279
 20
82.00326171902921
  0
LWPOLYLINE
  5
52
330
17
100
AcDbEntity
  8
0
 62
0
100
AcDbPolyline
 90
4
 70
0
 10
367.0886520414794
 20
104.62063549068851
 10
354.6081734439061
 20
118.05913443869292
 10
339.186974928433
 20
91.1817324744708
 10
367.0886520414794
 20
104.62063549068851
  0
LWPOLYLINE
  5
53
330
17
100
AcDbEntity
  8
0
 62
0
100
AcDbPolyline
 90
65
 70
0
 10
317.0395519165848
 20
74.63975877870732
 10
316.87897292185755
 20
74.393001192496
 10
316.74335363183565
 20
74.13169231764782
 10
316.63400013441907
 20
73.85834870147355
 10
316.5519655635667
 20
73.57560279242176
 10
316.4980399570404
 20
73.28617758816128
 10
316.47274264790985
 20
72.992860411625
 10
316.47631726309083
 20
72.69847606756649
 10
316.50872937708505
 20
72.40585963814586
 10
316.56966684351653
 20
72.11782917953884
 10
316.6585428012717
 20
71.83715858251529
 10
316.7745013262929
 20
71.56655085835472
 10
316.91642567459473
 20
71.30861210736998
 10
317.0829490371193
 20
71.06582642073676
 10
317.27246770285456
 20
70.84053195733748
 10
317.4831565034481
 20
70.63489842601314
 10
317.71298639057596
 20
70.45090619008113
 10
317.95974397678725
 20
70.29032719535388
 10
318.2210528516354
 20
70.15470790533197
 10
318.4943964678097
 20
70.04535440791544
 10
318.7771423768615
 20
69.96331983706304
 10
319.066567581122
 20
69.90939423053676
 10
319.3598847576583
 20
69.88409692140618
 10
319.65426910171675
 20
69.88767153658716
 10
319.9468855311374
 20
69.9200836505814
 10
320.2349159897444
 20
69.9810211170129
 10
320.51558658676794
 20
70.06989707476808
 10
320.7861943109285
 20
70.18585559978925
 10
321.04413306191327
 20
70.32777994809106
 10
321.2869187485465
 20
70.49430331061563
 10
321.5122132119458
 20
70.68382197635091
 10
321.7178467432701
 20
70.89451077694444
 10
321.9018389792021
 20
71.12434066407229
 10
322.06241797392937
 20
71.37109825028362
 10
322.1980372639513
 20
71.63240712513178
 10
322.3073907613678
 20
71.90575074130606
 10
322.38942533222024
 20
72.18849665035783
 10
322.4433509387465
 20
72.47792185461833
 10
322.46864824787707
 20
72.7712390311546
 10
322.4650736326961
 20
73.06562337521311
 10
322.4326615187019
 20
73.35823980463375
 10
322.37172405227034
 20
73.64627026324077
 10
322.2828480945152
 20
73.92694086026431
 10
322.166889569494
 20
74.19754858442491
 10
322.0249652211922
 20
74.45548733540963
 10
321.8584418586676
 20
74.69827302204286
 10
321.66892319293237
 20
74.92356748544213
 10
321.4582343923388
 20
75.12920101676647
 10
321.22840450521096
 20
75.31319325269847
 10
320.9816469189997
 20
75.47377224742573
 10
320.7203380441515
 20
75.6093915374476
 10
320.4469944279772
 20
75.71874503486416
 10
320.16424851892543
 20
75.80077960571657
 10
319.8748233146649
 20
75.85470521224285
 10
319.58150613812865
 20
75.88000252137343
 10
319.2871217940701
 20
75.87642790619245
 10
318.9945053646495
 20
75.8440157921982
 10
318.7064749060425
 20
75.78307832576671
 10
318.42580430901893
 20
75.69420236801152
 10
318.15519658485834
 20
75.57824384299036
 10
317.89725783387365
 20
75.43631949468855
 10
317.6544721472404
 20
75.26979613216398
 10
317.42917768384115
 20
75.0802774664287
 10
317.2235441525168
 20
74.86958866583517
 10
317.0395519165848
 20
74.63975877870732
  0
LWPOLYLINE
  5
54
330
17
100
AcDbEntity
  8
0
 62
0
100
AcDbPolyline
 90
100
 70
0
 10
305.9841102659846
 20
122.98138095119658
 10
268.79819001813814
 20
107.65433833623655
 10
265.4926172622236
 20
110.9167912312301
 10
265.44527554621783
 20
110.72238646682595
 10
265.25055457532966
 20
110.16670362284191
 10
265.00230479584144
 20
109.63278253636389
 10
264.7029169888368
 20
109.1257651593256
 10
264.35527442255926
 20
108.65053434623184
 10
263.96272508496276
 20
108.21166682960026
 10
263.52904944075766
 20
107.81338914352544
 10
263.0584240234689
 20
107.459536919845
 10
262.5553812131349
 20
107.15351794890827
 10
262.02476558701056
 20
106.89827936069238
 10
261.4716872636393
 20
106.69627924232947
 10
260.9014726896186
 20
106.54946296538381
 10
260.3196133430072
 20
106.45924445086038
 10
259.7317128473897
 20
106.42649255237248
 10
259.14343300591804
 20
106.45152268860656
 10
258.56043927505203
 20
106.53409380566781
 10
257.9883462031167
 20
106.67341069856099
 10
257.4326633591326
 20
106.86813166944916
 10
256.8987422726546
 20
107.11638144893736
 10
256.39172489561633
 20
107.415769255942
 10
255.91649408252255
 20
107.76341182221957
 10
255.47762656589097
 20
108.15596115981609
 10
255.07934887981617
 20
108.58963680402118
 10
254.7254966561357
 20
109.06026222130996
 10
254.41947768519898
 20
109.56330503164388
 10
254.16423909698312
 20
110.09392065776828
 10
253.96223897862018
 20
110.64699898113955
 10
253.81542270167452
 20
111.21721355516028
 10
253.7252041871511
 20
111.79907290177167
 10
253.6924522886632
 20
112.38697339738911
 10
253.71748242489727
 20
112.97525323886079
 10
253.80005354195853
 20
113.55824696972681
 10
253.9393704348517
 20
114.13034004166215
 10
254.13409140573987
 20
114.68602288564618
 10
254.38234118522809
 20
115.21994397212421
 10
254.6817289922327
 20
115.72696134916251
 10
255.0293715585103
 20
116.2021921622563
 10
255.4219208961068
 20
116.64105967888784
 10
255.8555965403119
 20
117.03933736496268
 10
256.3262219576007
 20
117.39318958864311
 10
256.8292647679346
 20
117.69920855957983
 10
257.359880394059
 20
117.95444714779572
 10
257.9129587174303
 20
118.15644726615865
 10
258.10672514348977
 20
118.20633737168599
 10
252.99058493193058
 20
123.25573960145965
 10
310.9519354469568
 20
142.86291039365395
 10
332.4749851888044
 20
164.6704304225328
 10
347.32174980376567
 20
150.01733585285456
 10
325.798700061918
 20
128.2098158239757
 10
306.91864604773184
 20
70.0311482522496
 10
301.8411735602413
 20
75.04238716279067
 10
301.79383184423557
 20
74.84798239838653
 10
301.5991108733474
 20
74.29229955440249
 10
301.35086109385924
 20
73.75837846792446
 10
301.0514732868546
 20
73.25136109088618
 10
300.703830720577
 20
72.7761302777924
 10
300.3112813829805
 20
72.33726276116083
 10
299.8776057387754
 20
71.93898507508601
 10
299.4069803214866
 20
71.58513285140558
 10
298.9039375111527
 20
71.27911388046886
 10
298.3733218850283
 20
71.02387529225297
 10
297.82024356165704
 20
70.82187517389004
 10
297.2500289876363
 20
70.67505889694438
 10
296.6681696410249
 20
70.58484038242095
 10
296.08026914540744
 20
70.55208848393305
 10
295.4919893039358
 20
70.57711862016713
 10
294.9089955730698
 20
70.65968973722838
 10
294.33690250113443
 20
70.79900663012157
 10
293.7812196571504
 20
70.99372760100974
 10
293.24729857067234
 20
71.24197738049794
 10
292.7402811936341
 20
71.54136518750256
 10
292.2650503805403
 20
71.88900775378013
 10
291.82618286390874
 20
72.28155709137665
 10
291.4279051778339
 20
72.71523273558175
 10
291.07405295415344
 20
73.18585815287052
 10
290.76803398321675
 20
73.68890096320446
 10
290.51279539500086
 20
74.21951658932886
 10
290.3107952766379
 20
74.77259491270013
 10
290.1639789996923
 20
75.34280948672085
 10
290.07376048516886
 20
75.92466883333223
 10
290.04100858668096
 20
76.5125693289497
 10
290.06603872291504
 20
77.10084917042136
 10
290.1486098399763
 20
77.68384290128738
 10
290.28792673286944
 20
78.25593597322272
 10
290.4826477037576
 20
78.81161881720675
 10
290.7308974832458
 20
79.3455399036848
 10
291.03028529025045
 20
79.85255728072309
 10
291.37792785652806
 20
80.32778809381685
 10
291.77047719412457
 20
80.76665561044842
 10
292.20415283832966
 20
81.16493329652324
 10
292.67477825561843
 20
81.51878552020369
 10
293.17782106595234
 20
81.82480449114041
 10
293.70843669207676
 20
82.08004307935629
 10
294.261515015448
 20
82.28204319771922
 10
294.4552814415075
 20
82.33193330324656
 10
291.19644900341285
 20
85.54825558897983
 10
305.9841102659846
 20
122.98138095119658
  0
LWPOLYLINE
  5
55
330
17
100
AcDbEntity
  8
0
 62
0
100
AcDbPolyline
 90
65
 70
0
 10
293.3858883858992
 20
77.94874954474471
 10
293.2617634961551
 20
77.68178900150569
 10
293.164403010711
 20
77.40394757951367
 10
293.0947445642644
 20
77.117901043546
 10
293.05345900573377
 20
76.826404178113
 10
293.04094393761676
 20
76.53226425737716
 10
293.0573198868607
 20
76.23831400956843
 10
293.1024291441224
 20
75.94738433626274
 10
293.17583728259524
 20
75.66227704925238
 10
293.2768373417767
 20
75.38573788756673
 10
293.4044566358846
 20
75.12043007450454
 10
293.557466121353
 20
74.86890866933757
 10
293.7343922331932
 20
74.63359596069319
 10
293.9335310762306
 20
74.41675813859064
 10
294.1529648345464
 20
74.22048346979238
 10
294.3905802410933
 20
74.04666218665359
 10
294.64408892961245
 20
73.89696828315128
 10
294.91104947285146
 20
73.77284339340717
 10
295.1888908948435
 20
73.6754829079631
 10
295.47493743081117
 20
73.6058244615165
 10
295.76643429624414
 20
73.56453890298589
 10
296.06057421698
 20
73.55202383486883
 10
296.3545244647887
 20
73.56839978411278
 10
296.6454541380944
 20
73.6135090413745
 10
296.93056142510477
 20
73.68691717984733
 10
297.20710058679043
 20
73.7879172390288
 10
297.4724083998526
 20
73.91553653313674
 10
297.72392980501957
 20
74.0685460186051
 10
297.959242513664
 20
74.24547213044532
 10
298.1760803357665
 20
74.44461097348272
 10
298.3723550045648
 20
74.66404473179851
 10
298.54617628770353
 20
74.9016601383454
 10
298.69587019120587
 20
75.15516882686454
 10
298.81999508095
 20
75.42212937010356
 10
298.91735556639406
 20
75.69997079209558
 10
298.98701401284063
 20
75.98601732806326
 10
299.0282995713713
 20
76.27751419349626
 10
299.0408146394883
 20
76.5716541142321
 10
299.0244386902444
 20
76.86560436204083
 10
298.97932943298264
 20
77.15653403534651
 10
298.9059212945098
 20
77.44164132235687
 10
298.8049212353284
 20
77.71818048404252
 10
298.67730194122043
 20
77.98348829710471
 10
298.52429245575206
 20
78.23500970227168
 10
298.34736634391186
 20
78.47032241091607
 10
298.14822750087444
 20
78.68716023301862
 10
297.92879374255864
 20
78.88343490181687
 10
297.6911783360118
 20
79.05725618495566
 10
297.4376696474926
 20
79.20695008845797
 10
297.1707091042536
 20
79.33107497820208
 10
296.89286768226157
 20
79.42843546364615
 10
296.6068211462939
 20
79.49809391009275
 10
296.3153242808609
 20
79.53937946862338
 10
296.02118436012506
 20
79.55189453674042
 10
295.72723411231635
 20
79.53551858749647
 10
295.43630443901066
 20
79.49040933023475
 10
295.1511971520003
 20
79.41700119176193
 10
294.87465799031463
 20
79.31600113258045
 10
294.60935017725245
 20
79.18838183847251
 10
294.3578287720855
 20
79.03537235300415
 10
294.1225160634411
 20
78.85844624116393
 10
293.90567824133853
 20
78.65930739812653
 10
293.7094035725403
 20
78.43987363981074
 10
293.5355822894015
 20
78.20225823326385
 10
293.3858883858992
 20
77.94874954474471
  0
LWPOLYLINE
  5
56
330
17
100
AcDbEntity
  8
0
 62
0
100
AcDbPolyline
 90
65
 70
0
 10
257.18702599138373
 20
114.07666230170328
 10
257.0373320878814
 20
113.82315361318413
 10
256.91320719813734
 20
113.55619306994512
 10
256.81584671269326
 20
113.27835164795309
 10
256.74618826624663
 20
112.99230511198543
 10
256.70490270771603
 20
112.70080824655241
 10
256.69238763959896
 20
112.40666832581658
 10
256.70876358884294
 20
112.11271807800784
 10
256.7538728461046
 20
111.82178840470218
 10
256.82728098457744
 20
111.53668111769181
 10
256.92828104375894
 20
111.26014195600617
 10
257.0559003378669
 20
110.99483414294397
 10
257.20890982333526
 20
110.743312737777
 10
257.38583593517546
 20
110.50800002913262
 10
257.5849747782129
 20
110.29116220703007
 10
257.8044085365286
 20
110.0948875382318
 10
258.04202394307555
 20
109.92106625509302
 10
258.2955326315947
 20
109.77137235159071
 10
258.56249317483366
 20
109.6472474618466
 10
258.8403345968257
 20
109.54988697640252
 10
259.12638113279337
 20
109.48022852995594
 10
259.4178779982264
 20
109.4389429714253
 10
259.71201791896226
 20
109.42642790330825
 10
260.00596816677097
 20
109.4428038525522
 10
260.29689784007667
 20
109.48791310981392
 10
260.58200512708703
 20
109.56132124828676
 10
260.8585442887727
 20
109.66232130746822
 10
261.12385210183487
 20
109.78994060157618
 10
261.3753735070018
 20
109.94295008704452
 10
261.6106862156462
 20
110.11987619888475
 10
261.82752403774873
 20
110.31901504192216
 10
262.02379870654704
 20
110.53844880023794
 10
262.1976199896858
 20
110.77606420678484
 10
262.34731389318813
 20
111.02957289530397
 10
262.47143878293224
 20
111.29653343854298
 10
262.5687992683763
 20
111.57437486053502
 10
262.6384577148229
 20
111.86042139650269
 10
262.67974327335355
 20
112.15191826193569
 10
262.69225834147056
 20
112.44605818267152
 10
262.67588239222664
 20
112.74000843048026
 10
262.6307731349649
 20
113.03093810378594
 10
262.5573649964921
 20
113.31604539079632
 10
262.4563649373106
 20
113.59258455248195
 10
262.32874564320264
 20
113.85789236554413
 10
262.17573615773426
 20
114.1094137707111
 10
261.99881004589406
 20
114.3447264793555
 10
261.79967120285664
 20
114.56156430145805
 10
261.5802374445409
 20
114.7578389702563
 10
261.342622037994
 20
114.93166025339508
 10
261.08911334947487
 20
115.08135415689739
 10
260.82215280623586
 20
115.2054790466415
 10
260.5443113842438
 20
115.30283953208559
 10
260.25826484827616
 20
115.37249797853218
 10
259.9667679828431
 20
115.41378353706281
 10
259.6726280621073
 20
115.42629860517985
 10
259.37867781429856
 20
115.4099226559359
 10
259.08774814099286
 20
115.36481339867419
 10
258.80264085398255
 20
115.29140526020134
 10
258.5261016922969
 20
115.19040520101989
 10
258.26079387923465
 20
115.06278590691194
 10
258.0092724740677
 20
114.90977642144358
 10
257.77395976542334
 20
114.73285030960335
 10
257.5571219433208
 20
114.53371146656596
 10
257.36084727452254
 20
114.31427770825016
 10
257.18702599138373
 20
114.07666230170328
  0
LWPOLYLINE
  5
57
330
17
100
AcDbEntity
  8
0
 62
0
100
AcDbPolyline
 90
101
 70
0
 10
235.8525840273144
 20
191.2987311486581
 10
306.746888893401
 20
182.41971444891146
 10
288.0651065711032
 20
218.668844221394
 10
302.1274222405655
 20
225.91616634838644
 10
332.56434272838953
 20
166.85799611582777
 10
322.9287231419817
 20
161.89206869126406
 10
252.2215681004324
 20
171.19378498076176
 10
270.95832378905374
 20
134.83798783278388
 10
256.84267443184376
 20
127.56317902262967
 10
250.97365497607404
 20
138.95111001439034
 10
250.86822676931664
 20
138.78105313062107
 10
250.51041536369988
 20
138.31343076416243
 10
250.10849191068652
 20
137.88313177796837
 10
249.66632715284283
 20
137.49430018650125
 10
249.1881793784987
 20
137.15068065054385
 10
248.6786534121032
 20
136.85558241406903
 10
248.14265626724793
 20
136.61184743441117
 10
247.5853498894437
 20
136.4218230126634
 10
247.01210144376347
 20
136.2873391878851
 10
246.42843162610853
 20
136.20969111282523
 10
245.83996149588936
 20
136.18962658089333
 10
245.25235834215042
 20
136.22733882450035
 10
244.6712811044788
 20
136.3224646541247
 10
244.10232587432236
 20
136.47408795602607
 10
243.55097200157013
 20
136.6807485149214
 10
243.02252932541734
 20
136.94045607665637
 10
242.52208703771157
 20
137.2507095154409
 10
242.05446467125293
 20
137.60852092105767
 10
241.62416568505884
 20
138.01044437407103
 10
241.23533409359172
 20
138.4526091319147
 10
240.89171455763434
 20
138.93075690625884
 10
240.59661632115953
 20
139.44028287265436
 10
240.35288134150164
 20
139.97628001750962
 10
240.16285691975386
 20
140.53358639531382
 10
240.02837309497556
 20
141.10683484099408
 10
239.9507250199157
 20
141.690504658649
 10
239.9306604879838
 20
142.27897478886817
 10
239.96837273159082
 20
142.8665779426071
 10
240.0634985612152
 20
143.44765518027876
 10
240.21512186311656
 20
144.01661041043516
 10
240.4217824220119
 20
144.56796428318742
 10
240.68148998374687
 20
145.0964069593402
 10
240.99174342253136
 20
145.59684924704598
 10
241.34955482814814
 20
146.0644716135046
 10
241.7514782811615
 20
146.49477059969868
 10
242.19364303900517
 20
146.8836021911658
 10
242.67179081334933
 20
147.2272217271232
 10
243.18131677974483
 20
147.522319963598
 10
243.7173139246001
 20
147.7660549432559
 10
244.27462030240432
 20
147.95607936500366
 10
244.84786874808455
 20
148.09056318978196
 10
245.43153856573946
 20
148.16821126484183
 10
246.02000869595864
 20
148.18827579677372
 10
246.21968399053844
 20
148.17546067945588
 10
231.13285084712072
 20
177.44914362023195
 10
231.0274226403633
 20
177.27908673646266
 10
230.66961123474653
 20
176.81146437000405
 10
230.2676877817332
 20
176.38116538380996
 10
229.8255230238895
 20
175.99233379234283
 10
229.34737524954537
 20
175.64871425638546
 10
228.83784928314986
 20
175.35361601991065
 10
228.3018521382946
 20
175.10988104025276
 10
227.74454576049038
 20
174.91985661850498
 10
227.17129731481015
 20
174.7853727937267
 10
226.5876274971552
 20
174.7077247186668
 10
225.99915736693603
 20
174.68766018673495
 10
225.41155421319712
 20
174.72537243034193
 10
224.83047697552547
 20
174.8204982599663
 10
224.26152174536904
 20
174.97212156186765
 10
223.7101678726168
 20
175.178782120763
 10
223.18172519646401
 20
175.43848968249796
 10
222.68128290875825
 20
175.74874312128247
 10
222.2136605422996
 20
176.10655452689926
 10
221.78336155610552
 20
176.5084779799126
 10
221.3945299646384
 20
176.9506427377563
 10
221.05091042868102
 20
177.42879051210045
 10
220.7558121922062
 20
177.93831647849595
 10
220.51207721254832
 20
178.47431362335124
 10
220.32205279080054
 20
179.03162000115543
 10
220.18756896602224
 20
179.60486844683567
 10
220.10992089096237
 20
180.18853826449057
 10
220.08985635903048
 20
180.77700839470975
 10
220.1275686026375
 20
181.3646115484487
 10
220.22269443226185
 20
181.94568878612034
 10
220.37431773416324
 20
182.51464401627678
 10
220.58097829305856
 20
183.065997889029
 10
220.84068585479355
 20
183.5944405651818
 10
221.15093929357803
 20
184.09488285288757
 10
221.50875069919482
 20
184.5625052193462
 10
221.91067415220817
 20
184.9928042055403
 10
222.35283891005184
 20
185.38163579700742
 10
222.830986684396
 20
185.72525533296482
 10
223.3405126507915
 20
186.0203535694396
 10
223.87650979564677
 20
186.2640885490975
 10
224.433816173451
 20
186.45411297084524
 10
225.00706461913126
 20
186.58859679562357
 10
225.59073443678614
 20
186.66624487068344
 10
226.17920456700534
 20
186.68630940261534
 10
226.76680772074428
 20
186.64859715900832
 10
226.8145484415038
 20
186.64078171662874
 10
235.8525840273144
 20
191.2987311486581
  0
LWPOLYLINE
  5
58
330
17
100
AcDbEntity
  8
0
 62
0
100
AcDbPolyline
 90
65
 70
0
 10
243.84073168854275
 20
144.34186089426612
 10
243.63976996203607
 20
144.12671140116908
 10
243.4608642592277
 20
143.89290021793977
 10
243.30573753983543
 20
143.64267907408686
 10
243.17588375896793
 20
143.3784577360105
 10
243.07255347952028
 20
143.10278079963436
 10
242.99674182856958
 20
142.81830318455613
 10
242.9491789137574
 20
142.5277645657203
 10
242.9303227919539
 20
142.23396298885086
 10
242.94035505791985
 20
141.93972792374126
 10
242.97917909544978
 20
141.6478930149138
 10
243.04642100783894
 20
141.36126879207367
 10
243.14143321871282
 20
141.08261560317158
 10
243.26330070854178
 20
140.81461703074393
 10
243.41084982677916
 20
140.5598540475462
 10
243.58265959475787
 20
140.3207801603741
 10
243.77707539049143
 20
140.09969778145228
 10
243.99222488358845
 20
139.8987360549456
 10
244.22603606681778
 20
139.7198303521372
 10
244.47625721067067
 20
139.56470363274494
 10
244.74047854874706
 20
139.43484985187746
 10
245.0161554851232
 20
139.3315195724298
 10
245.3006331002014
 20
139.25570792147911
 10
245.59117171903722
 20
139.20814500666694
 10
245.8849732959067
 20
139.18928888486343
 10
246.17920836101626
 20
139.19932115082938
 10
246.47104326984373
 20
139.2381451883593
 10
246.75766749268385
 20
139.30538710074848
 10
247.03632068158595
 20
139.40039931162235
 10
247.3043192540136
 20
139.52226680145128
 10
247.55908223721136
 20
139.6698159196887
 10
247.7981561243834
 20
139.84162568766737
 10
248.01923850330527
 20
140.03604148340094
 10
248.22020022981192
 20
140.25119097649798
 10
248.39910593262033
 20
140.4850021597273
 10
248.5542326520126
 20
140.7352233035802
 10
248.68408643288006
 20
140.99944464165657
 10
248.78741671232774
 20
141.2751215780327
 10
248.86322836327844
 20
141.55959919311093
 10
248.91079127809058
 20
141.85013781194672
 10
248.9296473998941
 20
142.1439393888162
 10
248.91961513392818
 20
142.4381744539258
 10
248.8807910963982
 20
142.73000936275326
 10
248.81354918400908
 20
143.01663358559338
 10
248.7185369731352
 20
143.29528677449548
 10
248.59666948330624
 20
143.56328534692312
 10
248.44912036506884
 20
143.81804833012086
 10
248.27731059709015
 20
144.05712221729294
 10
248.0828948013566
 20
144.27820459621478
 10
247.86774530825954
 20
144.47916632272145
 10
247.63393412503024
 20
144.65807202552986
 10
247.38371298117733
 20
144.81319874492212
 10
247.11949164310096
 20
144.9430525257896
 10
246.84381470672483
 20
145.04638280523727
 10
246.55933709164663
 20
145.12219445618794
 10
246.2687984728108
 20
145.16975737100012
 10
245.97499689594133
 20
145.18861349280363
 10
245.68076183083173
 20
145.17858122683768
 10
245.3889269220043
 20
145.13975718930774
 10
245.10230269916417
 20
145.07251527691858
 10
244.82364951026204
 20
144.9775030660447
 10
244.55565093783443
 20
144.85563557621578
 10
244.30088795463666
 20
144.70808645797837
 10
244.06181406746458
 20
144.53627668999968
 10
243.84073168854275
 20
144.34186089426612
  0
LWPOLYLINE
  5
59
330
17
100
AcDbEntity
  8
0
 62
0
100
AcDbPolyline
 90
65
 70
0
 10
224.22100993851126
 20
183.03431029584127
 10
223.99992755958942
 20
182.8398945001077
 10
223.79896583308275
 20
182.6247450070107
 10
223.62006013027437
 20
182.39093382378135
 10
223.4649334108821
 20
182.14071267992847
 10
223.3350796300146
 20
181.87649134185207
 10
223.23174935056696
 20
181.60081440547594
 10
223.15593769961626
 20
181.3163367903977
 10
223.10837478480408
 20
181.02579817156192
 10
223.0895186630006
 20
180.73199659469245
 10
223.09955092896652
 20
180.43776152958284
 10
223.13837496649649
 20
180.1459266207554
 10
223.20561687888562
 20
179.85930239791526
 10
223.3006290897595
 20
179.58064920901316
 10
223.42249657958845
 20
179.31265063658554
 10
223.57004569782583
 20
179.05788765338778
 10
223.74185546580455
 20
178.81881376621573
 10
223.9362712615381
 20
178.5977313872939
 10
224.15142075463513
 20
178.39676966078719
 10
224.38523193786446
 20
178.2178639579788
 10
224.63545308171734
 20
178.06273723858655
 10
224.89967441979374
 20
177.93288345771907
 10
225.17535135616987
 20
177.8295531782714
 10
225.45982897124807
 20
177.75374152732073
 10
225.7503675900839
 20
177.70617861250852
 10
226.04416916695337
 20
177.68732249070501
 10
226.33840423206294
 20
177.69735475667096
 10
226.6302391408904
 20
177.7361787942009
 10
226.91686336373053
 20
177.80342070659006
 10
227.19551655263263
 20
177.89843291746394
 10
227.46351512506027
 20
178.0203004072929
 10
227.71827810825803
 20
178.1678495255303
 10
227.9573519954301
 20
178.339659293509
 10
228.17843437435192
 20
178.53407508924255
 10
228.37939610085863
 20
178.7492245823396
 10
228.558301803667
 20
178.9830357655689
 10
228.71342852305926
 20
179.2332569094218
 10
228.84328230392674
 20
179.49747824749818
 10
228.94661258337442
 20
179.7731551838743
 10
229.0224242343251
 20
180.0576327989525
 10
229.06998714913726
 20
180.34817141778836
 10
229.08884327094077
 20
180.6419729946578
 10
229.07881100497485
 20
180.9362080597674
 10
229.03998696744492
 20
181.22804296859485
 10
228.97274505505575
 20
181.51466719143497
 10
228.87773284418188
 20
181.7933203803371
 10
228.75586535435292
 20
182.0613189527647
 10
228.6083162361155
 20
182.31608193596247
 10
228.43650646813683
 20
182.55515582313453
 10
228.24209067240326
 20
182.7762382020564
 10
228.02694117930622
 20
182.97719992856304
 10
227.7931299960769
 20
183.15610563137145
 10
227.542908852224
 20
183.3112323507637
 10
227.27868751414763
 20
183.44108613163118
 10
227.0030105777715
 20
183.54441641107886
 10
226.7185329626933
 20
183.62022806202953
 10
226.42799434385748
 20
183.66779097684173
 10
226.134192766988
 20
183.6866470986452
 10
225.8399577018784
 20
183.6766148326793
 10
225.54812279305096
 20
183.63779079514933
 10
225.26149857021085
 20
183.5705488827602
 10
224.98284538130872
 20
183.4755366718863
 10
224.7148468088811
 20
183.3536691820574
 10
224.46008382568334
 20
183.20612006381995
 10
224.22100993851126
 20
183.03431029584127
  0
LWPOLYLINE
  5
5A
330
17
100
AcDbEntity
  8
0
 62
0
100
AcDbPolyline
 90
107
 70
0
 10
197.82741801752223
 20
216.77695740733003
 10
195.81574005730906
 20
221.35655672488963
 10
194.49189845704666
 20
226.1100006921861
 10
194.11756434190065
 20
228.55904737085524
 10
193.85871259195028
 20
231.02274343786718
 10
193.9425263061392
 20
235.92385182978444
 10
194.74776679249732
 20
240.79526483960558
 10
196.2739964013153
 20
245.63903258781048
 10
197.33735922144157
 20
248.0501663980861
 10
198.51578333009817
 20
250.43641842774332
 10
201.40029638519678
 20
255.01046556227004
 10
204.91932577848794
 20
259.347417538215
 10
209.0743365464719
 20
263.44844452353755
 10
211.41738355860673
 20
265.4010947497576
 10
214.48028653494234
 20
267.84752589686855
 10
216.92494517091475
 20
269.7385551184425
 10
221.88220146365228
 20
272.9583595898735
 10
226.92019262407266
 20
275.50174687765553
 10
232.03803869965535
 20
277.3668142955792
 10
234.6299046365692
 20
278.0160012181048
 10
237.21831599287253
 20
278.55284328469986
 10
242.28903088171987
 20
279.0190447456105
 10
247.23202249731744
 20
278.7581121082176
 10
252.04685318995604
 20
277.7720954930009
 10
254.40070403306808
 20
276.97773765647935
 10
256.7164448264392
 20
276.06535172194197
 10
261.08028994271166
 20
273.71365189924603
 10
265.12336517915867
 20
270.727793423773
 10
268.8461081854895
 20
267.105726175043
 10
270.57417204474757
 20
265.028836766641
 10
272.2166818050845
 20
262.8888120862902
 10
274.93537507471547
 20
258.4815784226618
 10
276.97342369193154
 20
253.92304212837132
 10
278.32965748877336
 20
249.21466823991892
 10
278.72324606572016
 20
246.79859835347946
 10
279.0029156034851
 20
244.36992764814318
 10
278.9695214797905
 20
239.53788708444128
 10
278.22524140176495
 20
234.73436242867243
 10
276.7705130191177
 20
229.95730356035676
 10
275.74729281950937
 20
227.5790327424578
 10
274.60861817331636
 20
225.2221300992312
 10
271.8198229186145
 20
220.6957393904389
 10
268.4153147098583
 20
216.39266644809447
 10
264.39289599229755
 20
212.31115602025886
 10
262.1233998384839
 20
210.36206030124254
 10
258.36509287007215
 20
207.3601894294049
 10
255.9121323605988
 20
205.462529256061
 10
250.94439966095456
 20
202.23255720556958
 10
245.9055238949119
 20
199.68126430440884
 10
240.7988727851805
 20
197.80894076801775
 10
238.2185703997939
 20
197.15579173259914
 10
235.63767615191668
 20
196.62055438160493
 10
230.57399157702943
 20
196.15756855603175
 10
225.62631928959425
 20
196.42436133942533
 10
220.79275660340164
 20
197.4218126843061
 10
218.4228074201612
 20
198.225309406228
 10
216.09179289028955
 20
199.14029380873976
 10
211.70196896819937
 20
201.504239249587
 10
207.63694610286095
 20
204.50856276868424
 10
205.57119306533124
 20
206.52021490462909
 10
205.56782999891843
 20
206.5075060632847
 10
205.36213291876757
 20
205.9557920152315
 10
205.10334889301055
 20
205.42689646068902
 10
204.79397015328112
 20
204.92591295297117
 10
204.43697618596656
 20
204.45766623712277
 10
204.03580503812483
 20
204.02666578498707
 10
203.5943202072121
 20
203.637062366527
 10
203.11677343349018
 20
203.29260807564123
 10
202.6077637534437
 20
202.99662019544883
 10
202.07219320854446
 20
202.7519492510395
 10
201.5152196359125
 20
202.5609515573586
 10
200.942206995525
 20
202.42546652660633
 10
200.35867371234943
 20
202.34679895369237
 10
199.77023953089451
 20
202.32570645034806
 10
199.18257139399856
 20
202.36239214891089
 10
198.60132886707189
 20
202.45650274604927
 10
198.03210963338833
 20
202.60713190526664
 10
197.48039558533515
 20
202.8128289854175
 10
196.95150003079266
 20
203.07161301117452
 10
196.45051652307484
 20
203.38099175090395
 10
195.9822698072264
 20
203.7379857182185
 10
195.5512693550907
 20
204.13915686606023
 10
195.16166593663064
 20
204.58064169697298
 10
194.81721164574486
 20
205.0581884706949
 10
194.52122376555246
 20
205.56719815074138
 10
194.27655282114313
 20
206.1027686956406
 10
194.08555512746224
 20
206.65974226827257
 10
193.95007009670996
 20
207.2327549086601
 10
193.871402523796
 20
207.81628819183564
 10
193.8503100204517
 20
208.40472237329055
 10
193.88699571901452
 20
208.9923905101865
 10
193.9811063161529
 20
209.57363303711315
 10
194.13173547537028
 20
210.14285227079674
 10
194.33743255552113
 20
210.6945663188499
 10
194.59621658127816
 20
211.2234618733924
 10
194.90559532100758
 20
211.72444538111026
 10
195.26258928832215
 20
212.19269209695867
 10
195.66376043616387
 20
212.62369254909436
 10
196.1052452670766
 20
213.01329596755443
 10
196.58279204079852
 20
213.3577502584402
 10
197.091801720845
 20
213.6537381386326
 10
197.62737226574424
 20
213.89840908304194
 10
198.1843458383762
 20
214.08940677672283
 10
198.7573584787637
 20
214.22489180747513
 10
199.34089176193928
 20
214.30355938038903
 10
199.34153762190198
 20
214.30358253132732
 10
197.82741801752223
 20
216.77695740733003
  0
LWPOLYLINE
  5
5B
330
17
100
AcDbEntity
  8
0
 62
0
100
AcDbPolyline
 90
42
 70
0
 10
224.74681101760618
 20
249.27362552438714
 10
222.3396634741352
 20
247.29457304611017
 10
218.300472018946
 20
243.39104055504077
 10
215.19061296459162
 20
239.55128260496437
 10
213.00920635855164
 20
235.7733965096714
 10
212.30502826013412
 20
233.9095198941895
 10
211.76045383336722
 20
232.0631379215132
 10
211.44268597531845
 20
228.50196253667264
 10
212.05176115385854
 20
225.0985607336032
 10
213.58899697121723
 20
221.85278507803446
 10
214.74484258024052
 20
220.29551952385734
 10
215.97584888310564
 20
218.85108009088714
 10
218.67194666215553
 20
216.63688279747845
 10
221.64922652333527
 20
215.23212198814605
 10
224.9079994379185
 20
214.63659610404363
 10
228.4485763771789
 20
214.85010358632493
 10
232.27126831239008
 20
215.87244287614357
 10
236.3763862148257
 20
217.70341241465323
 10
240.76424105575938
 20
220.34281064300762
 10
243.0760921481614
 20
221.99927946005275
 10
248.01261957939886
 20
225.86543994826837
 10
250.38792637585277
 20
227.81826038593857
 10
254.39612393348028
 20
231.68623855576217
 10
257.51328955792815
 20
235.50783563695882
 10
259.7392758149259
 20
239.2817340272987
 10
260.4808889191359
 20
241.14831466710885
 10
261.0670001436889
 20
243.00027693925506
 10
261.42754892878315
 20
246.59802239937767
 10
260.8150097773832
 20
250.0658485836395
 10
259.23040542317807
 20
253.40097285331072
 10
258.03345960337344
 20
255.0121990342098
 10
256.78592610703345
 20
256.4634350778691
 10
253.98505210381887
 20
258.6429130603513
 10
250.81681580322447
 20
259.9566432254617
 10
247.2807795555409
 20
260.4066756936801
 10
245.3593473351043
 20
260.27258668259753
 10
243.38660422608592
 20
259.9899283046339
 10
239.24066096910116
 20
258.70917365835544
 10
234.853642689797
 20
256.57055281008047
 10
230.22496430419375
 20
253.57479827805923
 10
227.80971399394178
 20
251.72005667149807
 10
224.74681101760618
 20
249.27362552438714
  0
LWPOLYLINE
  5
5C
330
17
100
AcDbEntity
  8
0
 62
0
100
AcDbPolyline
 90
65
 70
0
 10
197.55618601273324
 20
210.2589356319997
 10
197.37768902907595
 20
210.0248122740755
 10
197.22299965921127
 20
209.77432052021658
 10
197.09360764633274
 20
209.5098727429453
 10
196.99075910625731
 20
209.23401571891873
 10
196.91544452664863
 20
208.94940610207695
 10
196.86838922807942
 20
208.6587848386136
 10
196.85004637879803
 20
208.36495077016565
 10
196.8605926304702
 20
208.07073367943818
 10
196.89992641692714
 20
207.7789670378504
 10
196.9676689323033
 20
207.49246071765663
 10
197.06316777914373
 20
207.21397393134066
 10
197.1855032513484
 20
206.94618865889106
 10
197.33349719144462
 20
206.6916838188678
 10
197.5057243368875
 20
206.45291043200686
 10
197.70052604611755
 20
206.23216801655047
 10
197.91602627218538
 20
206.0315824426296
 10
198.15014963010958
 20
205.85308545897232
 10
198.4006413839685
 20
205.6983960891076
 10
198.66508916123976
 20
205.5690040762291
 10
198.94094618526634
 20
205.46615553615368
 10
199.22555580210815
 20
205.390840956545
 10
199.51617706557144
 20
205.3437856579758
 10
199.81001113401942
 20
205.3254428086944
 10
200.1042282247469
 20
205.33598906036656
 10
200.39599486633466
 20
205.3753228468235
 10
200.68250118652844
 20
205.44306536219966
 10
200.9609879728444
 20
205.5385642090401
 10
201.228773245294
 20
205.66089968124476
 10
201.48327808531727
 20
205.80889362134099
 10
201.7220514721782
 20
205.98112076678387
 10
201.9427938876346
 20
206.1759224760139
 10
202.14337946155547
 20
206.39142270208174
 10
202.32187644521275
 20
206.62554606000595
 10
202.47656581507744
 20
206.87603781386485
 10
202.60595782795596
 20
207.14048559113613
 10
202.7088063680314
 20
207.4163426151627
 10
202.78412094764008
 20
207.70095223200448
 10
202.83117624620928
 20
207.99157349546783
 10
202.84951909549068
 20
208.2854075639158
 10
202.8389728438185
 20
208.57962465464325
 10
202.79963905736156
 20
208.87139129623102
 10
202.7318965419854
 20
209.1578976164248
 10
202.63639769514498
 20
209.43638440274077
 10
202.51406222294028
 20
209.70416967519037
 10
202.36606828284408
 20
209.95867451521363
 10
202.1938411374012
 20
210.19744790207457
 10
201.99903942817116
 20
210.41819031753096
 10
201.78353920210333
 20
210.61877589145183
 10
201.54941584417912
 20
210.79727287510912
 10
201.2989240903202
 20
210.9519622449738
 10
201.03447631304897
 20
211.08135425785233
 10
200.75861928902236
 20
211.18420279792775
 10
200.47400967218059
 20
211.25951737753644
 10
200.18338840871726
 20
211.30657267610565
 10
199.88955434026929
 20
211.32491552538704
 10
199.5953372495418
 20
211.31436927371487
 10
199.30357060795404
 20
211.27503548725792
 10
199.01706428776026
 20
211.20729297188177
 10
198.7385775014443
 20
211.11179412504134
 10
198.4707922289947
 20
210.98945865283667
 10
198.21628738897144
 20
210.84146471274045
 10
197.9775140021105
 20
210.66923756729756
 10
197.7567715866541
 20
210.47443585806752
 10
197.55618601273324
 20
210.2589356319997
  0
LWPOLYLINE
  5
5D
330
17
100
AcDbEntity
  8
0
 62
0
100
AcDbPolyline
 90
58
 70
0
 10
351.9035381031519
 20
75.57788924641149
 10
367.7566657330146
 20
74.65444766662111
 10
365.5283104850569
 20
36.39929333561756
 10
383.4778844639568
 20
35.35373416656019
 10
385.3590768509983
 20
67.6489910195864
 10
400.63318596541257
 20
66.7592771549269
 10
398.75199357837107
 20
34.464020301900696
 10
419.0475908526222
 20
33.281805735330266
 10
421.26896795262167
 20
71.4171631321031
 10
437.062197115369
 20
70.49721062629179
 10
433.64523066521264
 20
11.836645164658998
 10
348.4795935050375
 20
16.797526850547992
 10
349.88983866653524
 20
41.007825611077074
 10
349.7125277887312
 20
40.91511475351561
 10
349.1665091435713
 20
40.69474388715724
 10
348.60151960529754
 20
40.52895335291906
 10
348.0230003320181
 20
40.41933980427613
 10
347.4365227805856
 20
40.36695887962271
 10
346.84773505042153
 20
40.37231503589758
 10
346.26230748923143
 20
40.43535669038779
 10
345.6858780844569
 20
40.555476717498586
 10
345.12399816637424
 20
40.731518295704554
 10
344.5820789457494
 20
40.961786048373476
 10
344.0653394009202
 20
41.24406237116999
 10
343.57875601618184
 20
41.57562878879761
 10
343.127014855523
 20
41.95329213540199
 10
342.7144664332676
 20
42.3734153065035
 10
342.34508381624386
 20
42.831952286301764
 10
342.0224243609788
 20
43.32448711301951
 10
341.7495954544102
 20
43.84627640702852
 10
341.5292245880519
 20
44.392295052188445
 10
341.36343405381365
 20
44.95728459046226
 10
341.2538205051707
 20
45.535803863741656
 10
341.20143958051733
 20
46.12228141517418
 10
341.2067957367922
 20
46.711069145338264
 10
341.2698373912824
 20
47.29649670652834
 10
341.3899574183932
 20
47.872926111302874
 10
341.56599899659915
 20
48.434806029385534
 10
341.7962667492681
 20
48.97672525001037
 10
342.0785430720646
 20
49.49346479483959
 10
342.4101094896922
 20
49.980048179577906
 10
342.7877728362966
 20
50.43178934023677
 10
343.2078960073981
 20
50.84433776249219
 10
343.6664329871964
 20
51.21372037951593
 10
344.1589678139141
 20
51.53637983478098
 10
344.6807571079231
 20
51.80920874134955
 10
345.2267757530831
 20
52.02957960770792
 10
345.79176529135685
 20
52.19537014194609
 10
346.3702845646363
 20
52.304983690589026
 10
346.9567621160688
 20
52.35736461524244
 10
347.54554984623286
 20
52.35200845896758
 10
348.13097740742296
 20
52.288966804477354
 10
348.70740681219746
 20
52.16884677736657
 10
349.26928673028016
 20
51.9928051991606
 10
349.811205950905
 20
51.762537446491685
 10
350.3279454957342
 20
51.48026112369518
 10
350.49329294165415
 20
51.367590485882396
 10
351.9035381031519
 20
75.57788924641149
  0
LWPOLYLINE
  5
5E
330
17
100
AcDbEntity
  8
0
 62
0
100
AcDbPolyline
 90
65
 70
0
 10
346.7834635064817
 20
49.3335727190108
 10
346.494203869842
 20
49.27876594468934
 10
346.21170910070515
 20
49.19587067757025
 10
345.93869977812517
 20
49.08568524439106
 10
345.67780513112064
 20
48.94927079110679
 10
345.4315377177618
 20
48.78794106347425
 10
345.20226922786264
 20
48.603249754962384
 10
344.9922076423119
 20
48.39697554383467
 10
344.8033759690097
 20
48.17110496350524
 10
344.6375927601959
 20
47.92781327113608
 10
344.49645459879764
 20
47.66944349872148
 10
344.38132072246316
 20
47.398483888409054
 10
344.2932999333602
 20
47.11754392936773
 10
344.2332399198048
 20
46.829329226980455
 10
344.2017190925597
 20
46.53661544638542
 10
344.1990410144223
 20
46.242221581303376
 10
344.22523147674895
 20
45.94898280558712
 10
344.28003825107044
 20
45.659723168947416
 10
344.3629335181895
 20
45.37722839981052
 10
344.4731189513687
 20
45.10421907723054
 10
344.609533404653
 20
44.84332443022604
 10
344.7708631322855
 20
44.59705701686717
 10
344.9555544407974
 20
44.367788526968035
 10
345.1618286519251
 20
44.15772694141728
 10
345.38769923225453
 20
43.9688952681151
 10
345.6309909246237
 20
43.80311205930128
 10
345.8893606970383
 20
43.66197389790302
 10
346.16032030735073
 20
43.54684002156857
 10
346.441260266392
 20
43.45881923246558
 10
346.7294749687793
 20
43.398759218910186
 10
347.0221887493743
 20
43.367238391665076
 10
347.31658261445637
 20
43.36456031352765
 10
347.60982139017267
 20
43.39075077585435
 10
347.8990810268123
 20
43.44555755017582
 10
348.18157579594924
 20
43.528452817294905
 10
348.4545851185292
 20
43.63863825047409
 10
348.71547976553376
 20
43.77505270375837
 10
348.9617471788926
 20
43.9363824313909
 10
349.19101566879175
 20
44.12107373990277
 10
349.4010772543425
 20
44.32734795103048
 10
349.5899089276447
 20
44.55321853135991
 10
349.7556921364585
 20
44.796510223729065
 10
349.89683029785675
 20
45.05487999614368
 10
350.0119641741912
 20
45.3258396064561
 10
350.09998496329416
 20
45.60677956549743
 10
350.1600449768496
 20
45.8949942678847
 10
350.1915658040947
 20
46.187708048479735
 10
350.1942438822321
 20
46.48210191356178
 10
350.1680534199054
 20
46.77534068927804
 10
350.11324664558396
 20
47.06460032591774
 10
350.03035137846484
 20
47.34709509505464
 10
349.9201659452857
 20
47.62010441763461
 10
349.7837514920014
 20
47.88099906463912
 10
349.6224217643689
 20
48.127266477997985
 10
349.437730455857
 20
48.35653496789712
 10
349.23145624472926
 20
48.56659655344787
 10
349.00558566439986
 20
48.75542822675006
 10
348.7622939720307
 20
48.92121143556387
 10
348.5039241996161
 20
49.06234959696213
 10
348.23296458930366
 20
49.17748347329659
 10
347.9520246302623
 20
49.265504262399574
 10
347.6638099278751
 20
49.32556427595497
 10
347.37109614728
 20
49.35708510320008
 10
347.07670228219797
 20
49.359763181337506
 10
346.7834635064817
 20
49.3335727190108
  0
ENDSEC
  0
SECTION
  2
OBJECTS
  0
DICTIONARY
  5
A
330
0
100
AcDbDictionary
280
0
281
1
  3
ACAD_COLOR
350
B
  3
ACAD_GROUP
350
C
  3
ACAD_LAYOUT
350
D
  3
ACAD_MATERIAL
350
E
  3
ACAD_MLEADERSTYLE
350
F
  3
ACAD_MLINESTYLE
350
10
  3
ACAD_PLOTSETTINGS
350
11
  3
ACAD_PLOTSTYLENAME
350
12
  3
ACAD_SCALELIST
350
14
  3
ACAD_TABLESTYLE
350
15
  3
ACAD_VISUALSTYLE
350
16
  3
EZDXF_META
350
2D
  0
DICTIONARY
  5
B
330
A
100
AcDbDictionary
280
0
281
1
  0
DICTIONARY
  5
C
330
A
100
AcDbDictionary
280
0
281
1
  0
DICTIONARY
  5
D
330
A
100
AcDbDictionary
280
0
281
1
  3
Model
350
1A
  3
Layout1
350
1E
  0
DICTIONARY
  5
E
330
A
100
AcDbDictionary
280
0
281
1
  3
ByBlock
350
1F
  3
ByLayer
350
20
  3
Global
350
21
  0
DICTIONARY
  5
F
330
A
100
AcDbDictionary
280
0
281
1
  3
Standard
350
2C
  0
DICTIONARY
  5
10
330
A
100
AcDbDictionary
280
0
281
1
  3
Standard
350
22
  0
DICTIONARY
  5
11
330
A
100
AcDbDictionary
280
0
281
1
  0
ACDBDICTIONARYWDFLT
  5
12
330
A
100
AcDbDictionary
280
0
281
1
  3
Normal
350
13
100
AcDbDictionaryWithDefault
340
13
  0
ACDBPLACEHOLDER
  5
13
330
12
  0
DICTIONARY
  5
14
330
A
100
AcDbDictionary
280
0
281
1
  0
DICTIONARY
  5
15
330
A
100
AcDbDictionary
280
0
281
1
  0
DICTIONARY
  5
16
330
A
100
AcDbDictionary
280
0
281
1
  0
LAYOUT
  5
1A
330
D
100
AcDbPlotSettings
  1

  4
A3
  6

 40
7.5
 41
20.0
 42
7.5
 43
20.0
 44
420.0
 45
297.0
 46
0.0
 47
0.0
 48
0.0
 49
0.0
140
0.0
141
0.0
142
1.0
143
1.0
 70
1024
 72
1
 73
0
 74
5
  7

 75
16
 76
0
 77
2
 78
300
147
1.0
148
0.0
149
0.0
100
AcDbLayout
  1
Model
 70
1
 71
0
 10
0.0
 20
0.0
 11
420.0
 21
297.0
 12
0.0
 22
0.0
 32
0.0
 14
1e+20
 24
1e+20
 34
1e+20
 15
-1e+20
 25
-1e+20
 35
-1e+20
146
0.0
 13
0.0
 23
0.0
 33
0.0
 16
1.0
 26
0.0
 36
0.0
 17
0.0
 27
1.0
 37
0.0
 76
1
330
17
  0
LAYOUT
  5
1E
330
D
100
AcDbPlotSettings
  1

  4
A3
  6

 40
7.5
 41
20.0
 42
7.5
 43
20.0
 44
420.0
 45
297.0
 46
0.0
 47
0.0
 48
0.0
 49
0.0
140
0.0
141
0.0
142
1.0
143
1.0
 70
0
 72
1
 73
0
 74
5
  7

 75
16
 76
0
 77
2
 78
300
147
1.0
148
0.0
149
0.0
100
AcDbLayout
  1
Layout1
 70
1
 71
1
 10
0.0
 20
0.0
 11
420.0
 21
297.0
 12
0.0
 22
0.0
 32
0.0
 14
1e+20
 24
1e+20
 34
1e+20
 15
-1e+20
 25
-1e+20
 35
-1e+20
146
0.0
 13
0.0
 23
0.0
 33
0.0
 16
1.0
 26
0.0
 36
0.0
 17
0.0
 27
1.0
 37
0.0
 76
1
330
1B
  0
MATERIAL
  5
1F
102
{ACAD_REACTORS
330
E
102
}
330
E
100
AcDbMaterial
  1
ByBlock
  2

 70
0
 40
1.0
 71
1
 41
1.0
 91
-1023410177
 42
1.0
 72
1
  3

 73
1
 74
1
 75
1
 44
0.5
 73
0
 45
1.0
 46
1.0
 77
1
  4

 78
1
 79
1
170
1
 48
1.0
171
1
  6

172
1
173
1
174
1
140
1.0
141
1.0
175
1
  7

176
1
177
1
178
1
143
1.0
179
1
  8

270
1
271
1
272
1
145
1.0
146
1.0
273
1
  9

274
1
275
1
276
1
 42
1.0
 72
1
  3

 73
1
 74
1
 75
1
 94
63
  0
MATERIAL
  5
20
102
{ACAD_REACTORS
330
E
102
}
330
E
100
AcDbMaterial
  1
ByLayer
  2

 70
0
 40
1.0
 71
1
 41
1.0
 91
-1023410177
 42
1.0
 72
1
  3

 73
1
 74
1
 75
1
 44
0.5
 73
0
 45
1.0
 46
1.0
 77
1
  4

 78
1
 79
1
170
1
 48
1.0
171
1
  6

172
1
173
1
174
1
140
1.0
141
1.0
175
1
  7

176
1
177
1
178
1
143
1.0
179
1
  8

270
1
271
1
272
1
145
1.0
146
1.0
273
1
  9

274
1
275
1
276
1
 42
1.0
 72
1
  3

 73
1
 74
1
 75
1
 94
63
  0
MATERIAL
  5
21
102
{ACAD_REACTORS
330
E
102
}
330
E
100
AcDbMaterial
  1
Global
  2

 70
0
 40
1.0
 71
1
 41
1.0
 91
-1023410177
 42
1.0
 72
1
  3

 73
1
 74
1
 75
1
 44
0.5
 73
0
 45
1.0
 46
1.0
 77
1
  4

 78
1
 79
1
170
1
 48
1.0
171
1
  6

172
1
173
1
174
1
140
1.0
141
1.0
175
1
  7

176
1
177
1
178
1
143
1.0
179
1
  8

270
1
271
1
272
1
145
1.0
146
1.0
273
1
  9

274
1
275
1
276
1
 42
1.0
 72
1
  3

 73
1
 74
1
 75
1
 94
63
  0
MLINESTYLE
  5
22
102
{ACAD_REACTORS
330
10
102
}
330
10
100
AcDbMlineStyle
  2
Standard
 70
0
  3

 62
256
 51
90.0
 52
90.0
 71
2
 49
0.5
 62
256
  6
BYLAYER
 49
-0.5
 62
256
  6
BYLAYER
  0
MLEADERSTYLE
  5
2C
102
{ACAD_REACTORS
330
F
102
}
330
F
100
AcDbMLeaderStyle
179
2
170
2
171
1
172
0
 90
2
 40
0.0
 41
0.0
173
1
 91
-1056964608
 92
-2
290
1
 42
2.0
291
1
 43
8.0
  3
Standard
 44
4.0
300

342
29
174
1
175
1
176
0
178
1
 93
-1056964608
 45
4.0
292
0
297
0
 46
4.0
 94
-1056964608
 47
1.0
 49
1.0
140
1.0
294
1
141
0.0
177
0
142
1.0
295
0
296
0
143
3.75
271
0
272
9
273
9
  0
DICTIONARY
  5
2D
330
A
100
AcDbDictionary
281
1
  3
CREATED_BY_EZDXF
350
2E
  3
WRITTEN_BY_EZDXF
350
61
  0
DICTIONARYVAR
  5
2E
330
2D
100
DictionaryVariables
280
0
  1
1.3.2 @ 2025-01-06T02:40:18.585172+00:00
  0
DICTIONARYVAR
  5
61
330
2D
100
DictionaryVariables
280
0
  1
1.3.2 @ 2025-01-06T02:40:19.140066+00:00
  0
ENDSEC
  0
EOF
