  0
SECTION
  2
HEADER
  9
$ACADVER
  1
AC1032
  9
$ACADMAINTVER
 90
4
  9
$DWGCODEPAGE
  3
ANSI_1252
  9
$LASTSAVEDBY
  1
ezdxf
  9
$REQUIREDVERSIONS
160
0
  9
$INSBASE
 10
0.0
 20
0.0
 30
0.0
  9
$EXTMIN
 10
1e+20
 20
1e+20
 30
1e+20
  9
$EXTMAX
 10
-1e+20
 20
-1e+20
 30
-1e+20
  9
$LIMMIN
 10
0.0
 20
0.0
  9
$LIMMAX
 10
420.0
 20
297.0
  9
$ORTHOMODE
 70
0
  9
$REGENMODE
 70
1
  9
$FILLMODE
 70
1
  9
$QTEXTMODE
 70
0
  9
$MIRRTEXT
 70
1
  9
$LTSCALE
 40
1.0
  9
$ATTMODE
 70
1
  9
$TEXTSIZE
 40
2.5
  9
$TRACEWID
 40
1.0
  9
$TEXTSTYLE
  7
Standard
  9
$CLAYER
  8
0
  9
$CELTYPE
  6
ByLayer
  9
$CECOLOR
 62
256
  9
$CELTSCALE
 40
1.0
  9
$DISPSILH
 70
0
  9
$DIMSCALE
 40
1.0
  9
$DIMASZ
 40
2.5
  9
$DIMEXO
 40
0.625
  9
$DIMDLI
 40
3.75
  9
$DIMRND
 40
0.0
  9
$DIMDLE
 40
0.0
  9
$DIMEXE
 40
1.25
  9
$DIMTP
 40
0.0
  9
$DIMTM
 40
0.0
  9
$DIMTXT
 40
2.5
  9
$DIMCEN
 40
2.5
  9
$DIMTSZ
 40
0.0
  9
$DIMTOL
 70
0
  9
$DIMLIM
 70
0
  9
$DIMTIH
 70
0
  9
$DIMTOH
 70
0
  9
$DIMSE1
 70
0
  9
$DIMSE2
 70
0
  9
$DIMTAD
 70
1
  9
$DIMZIN
 70
8
  9
$DIMBLK
  1

  9
$DIMASO
 70
1
  9
$DIMSHO
 70
1
  9
$DIMPOST
  1

  9
$DIMAPOST
  1

  9
$DIMALT
 70
0
  9
$DIMALTD
 70
3
  9
$DIMALTF
 40
0.03937007874
  9
$DIMLFAC
 40
1.0
  9
$DIMTOFL
 70
1
  9
$DIMTVP
 40
0.0
  9
$DIMTIX
 70
0
  9
$DIMSOXD
 70
0
  9
$DIMSAH
 70
0
  9
$DIMBLK1
  1

  9
$DIMBLK2
  1

  9
$DIMSTYLE
  2
ISO-25
  9
$DIMCLRD
 70
0
  9
$DIMCLRE
 70
0
  9
$DIMCLRT
 70
0
  9
$DIMTFAC
 40
1.0
  9
$DIMGAP
 40
0.625
  9
$DIMJUST
 70
0
  9
$DIMSD1
 70
0
  9
$DIMSD2
 70
0
  9
$DIMTOLJ
 70
0
  9
$DIMTZIN
 70
8
  9
$DIMALTZ
 70
0
  9
$DIMALTTZ
 70
0
  9
$DIMUPT
 70
0
  9
$DIMDEC
 70
2
  9
$DIMTDEC
 70
2
  9
$DIMALTU
 70
2
  9
$DIMALTTD
 70
3
  9
$DIMTXSTY
  7
Standard
  9
$DIMAUNIT
 70
0
  9
$DIMADEC
 70
0
  9
$DIMALTRND
 40
0.0
  9
$DIMAZIN
 70
0
  9
$DIMDSEP
 70
44
  9
$DIMATFIT
 70
3
  9
$DIMFRAC
 70
0
  9
$DIMLDRBLK
  1

  9
$DIMLUNIT
 70
2
  9
$DIMLWD
 70
-2
  9
$DIMLWE
 70
-2
  9
$DIMTMOVE
 70
0
  9
$DIMFXL
 40
1.0
  9
$DIMFXLON
 70
0
  9
$DIMJOGANG
 40
0.785398163397
  9
$DIMTFILL
 70
0
  9
$DIMTFILLCLR
 70
0
  9
$DIMARCSYM
 70
0
  9
$DIMLTYPE
  6

  9
$DIMLTEX1
  6

  9
$DIMLTEX2
  6

  9
$DIMTXTDIRECTION
 70
0
  9
$LUNITS
 70
2
  9
$LUPREC
 70
4
  9
$SKETCHINC
 40
1.0
  9
$FILLETRAD
 40
10.0
  9
$AUNITS
 70
0
  9
$AUPREC
 70
2
  9
$MENU
  1
.
  9
$ELEVATION
 40
0.0
  9
$PELEVATION
 40
0.0
  9
$THICKNESS
 40
0.0
  9
$LIMCHECK
 70
0
  9
$CHAMFERA
 40
0.0
  9
$CHAMFERB
 40
0.0
  9
$CHAMFERC
 40
0.0
  9
$CHAMFERD
 40
0.0
  9
$SKPOLY
 70
0
  9
$TDCREATE
 40
2460448.7507291664
  9
$TDUCREATE
 40
2458532.153996898
  9
$TDUPDATE
 40
2460448.7507291664
  9
$TDUUPDATE
 40
2458532.1544311
  9
$TDINDWG
 40
0.0
  9
$TDUSRTIMER
 40
0.0
  9
$USRTIMER
 70
1
  9
$ANGBASE
 50
0.0
  9
$ANGDIR
 70
0
  9
$PDMODE
 70
0
  9
$PDSIZE
 40
0.0
  9
$PLINEWID
 40
0.0
  9
$SPLFRAME
 70
0
  9
$SPLINETYPE
 70
6
  9
$SPLINESEGS
 70
8
  9
$HANDSEED
  5
34
  9
$SURFTAB1
 70
6
  9
$SURFTAB2
 70
6
  9
$SURFTYPE
 70
6
  9
$SURFU
 70
6
  9
$SURFV
 70
6
  9
$UCSBASE
  2

  9
$UCSNAME
  2

  9
$UCSORG
 10
0.0
 20
0.0
 30
0.0
  9
$UCSXDIR
 10
1.0
 20
0.0
 30
0.0
  9
$UCSYDIR
 10
0.0
 20
1.0
 30
0.0
  9
$UCSORTHOREF
  2

  9
$UCSORTHOVIEW
 70
0
  9
$UCSORGTOP
 10
0.0
 20
0.0
 30
0.0
  9
$UCSORGBOTTOM
 10
0.0
 20
0.0
 30
0.0
  9
$UCSORGLEFT
 10
0.0
 20
0.0
 30
0.0
  9
$UCSORGRIGHT
 10
0.0
 20
0.0
 30
0.0
  9
$UCSORGFRONT
 10
0.0
 20
0.0
 30
0.0
  9
$UCSORGBACK
 10
0.0
 20
0.0
 30
0.0
  9
$PUCSBASE
  2

  9
$PUCSNAME
  2

  9
$PUCSORG
 10
0.0
 20
0.0
 30
0.0
  9
$PUCSXDIR
 10
1.0
 20
0.0
 30
0.0
  9
$PUCSYDIR
 10
0.0
 20
1.0
 30
0.0
  9
$PUCSORTHOREF
  2

  9
$PUCSORTHOVIEW
 70
0
  9
$PUCSORGTOP
 10
0.0
 20
0.0
 30
0.0
  9
$PUCSORGBOTTOM
 10
0.0
 20
0.0
 30
0.0
  9
$PUCSORGLEFT
 10
0.0
 20
0.0
 30
0.0
  9
$PUCSORGRIGHT
 10
0.0
 20
0.0
 30
0.0
  9
$PUCSORGFRONT
 10
0.0
 20
0.0
 30
0.0
  9
$PUCSORGBACK
 10
0.0
 20
0.0
 30
0.0
  9
$USERI1
 70
0
  9
$USERI2
 70
0
  9
$USERI3
 70
0
  9
$USERI4
 70
0
  9
$USERI5
 70
0
  9
$USERR1
 40
0.0
  9
$USERR2
 40
0.0
  9
$USERR3
 40
0.0
  9
$USERR4
 40
0.0
  9
$USERR5
 40
0.0
  9
$WORLDVIEW
 70
1
  9
$SHADEDGE
 70
3
  9
$SHADEDIF
 70
70
  9
$TILEMODE
 70
1
  9
$MAXACTVP
 70
64
  9
$PINSBASE
 10
0.0
 20
0.0
 30
0.0
  9
$PLIMCHECK
 70
0
  9
$PEXTMIN
 10
1e+20
 20
1e+20
 30
1e+20
  9
$PEXTMAX
 10
-1e+20
 20
-1e+20
 30
-1e+20
  9
$PLIMMIN
 10
0.0
 20
0.0
  9
$PLIMMAX
 10
420.0
 20
297.0
  9
$UNITMODE
 70
0
  9
$VISRETAIN
 70
1
  9
$PLINEGEN
 70
0
  9
$PSLTSCALE
 70
1
  9
$TREEDEPTH
 70
3020
  9
$CMLSTYLE
  2
Standard
  9
$CMLJUST
 70
0
  9
$CMLSCALE
 40
20.0
  9
$PROXYGRAPHICS
 70
1
  9
$MEASUREMENT
 70
1
  9
$CELWEIGHT
370
-1
  9
$ENDCAPS
280
0
  9
$JOINSTYLE
280
0
  9
$LWDISPLAY
290
0
  9
$INSUNITS
 70
4
  9
$HYPERLINKBASE
  1

  9
$STYLESHEET
  1

  9
$XEDIT
290
1
  9
$CEPSNTYPE
380
0
  9
$PSTYLEMODE
290
1
  9
$FINGERPRINTGUID
  2
{35266EFC-892E-4BA5-9387-7206195192CC}
  9
$VERSIONGUID
  2
{AF292E30-EED1-44E6-9FC6-4710A44BB099}
  9
$EXTNAMES
290
1
  9
$PSVPSCALE
 40
0.0
  9
$OLESTARTUP
290
0
  9
$SORTENTS
280
127
  9
$INDEXCTL
280
0
  9
$HIDETEXT
280
1
  9
$XCLIPFRAME
280
0
  9
$HALOGAP
280
0
  9
$OBSCOLOR
 70
257
  9
$OBSLTYPE
280
0
  9
$INTERSECTIONDISPLAY
280
0
  9
$INTERSECTIONCOLOR
 70
257
  9
$DIMASSOC
280
2
  9
$PROJECTNAME
  1

  9
$CAMERADISPLAY
290
0
  9
$LENSLENGTH
 40
50.0
  9
$CAMERAHEIGHT
 40
0.0
  9
$STEPSPERSEC
 40
24.0
  9
$STEPSIZE
 40
100.0
  9
$3DDWFPREC
 40
2.0
  9
$PSOLWIDTH
 40
0.005
  9
$PSOLHEIGHT
 40
0.08
  9
$LOFTANG1
 40
1.570796326795
  9
$LOFTANG2
 40
1.570796326795
  9
$LOFTMAG1
 40
0.0
  9
$LOFTMAG2
 40
0.0
  9
$LOFTPARAM
 70
7
  9
$LOFTNORMALS
280
1
  9
$LATITUDE
 40
37.795
  9
$LONGITUDE
 40
-122.394
  9
$NORTHDIRECTION
 40
0.0
  9
$TIMEZONE
 70
-8000
  9
$LIGHTGLYPHDISPLAY
280
1
  9
$TILEMODELIGHTSYNCH
280
1
  9
$CMATERIAL
347
20
  9
$SOLIDHIST
280
0
  9
$SHOWHIST
280
1
  9
$DWFFRAME
280
2
  9
$DGNFRAME
280
2
  9
$REALWORLDSCALE
290
1
  9
$INTERFERECOLOR
 62
256
  9
$CSHADOW
280
0
  9
$SHADOWPLANELOCATION
 40
0.0
  0
ENDSEC
  0
SECTION
  2
CLASSES
  0
CLASS
  1
ACDBDICTIONARYWDFLT
  2
AcDbDictionaryWithDefault
  3
ObjectDBX Classes
 90
0
 91
0
280
0
281
0
  0
CLASS
  1
SUN
  2
AcDbSun
  3
SCENEOE
 90
1153
 91
0
280
0
281
0
  0
CLASS
  1
VISUALSTYLE
  2
AcDbVisualStyle
  3
ObjectDBX Classes
 90
4095
 91
0
280
0
281
0
  0
CLASS
  1
MATERIAL
  2
AcDbMaterial
  3
ObjectDBX Classes
 90
1153
 91
0
280
0
281
0
  0
CLASS
  1
SCALE
  2
AcDbScale
  3
ObjectDBX Classes
 90
1153
 91
0
280
0
281
0
  0
CLASS
  1
TABLESTYLE
  2
AcDbTableStyle
  3
ObjectDBX Classes
 90
4095
 91
0
280
0
281
0
  0
CLASS
  1
MLEADERSTYLE
  2
AcDbMLeaderStyle
  3
ACDB_MLEADERSTYLE_CLASS
 90
4095
 91
0
280
0
281
0
  0
CLASS
  1
DICTIONARYVAR
  2
AcDbDictionaryVar
  3
ObjectDBX Classes
 90
0
 91
0
280
0
281
0
  0
CLASS
  1
CELLSTYLEMAP
  2
AcDbCellStyleMap
  3
ObjectDBX Classes
 90
1152
 91
0
280
0
281
0
  0
CLASS
  1
MENTALRAYRENDERSETTINGS
  2
AcDbMentalRayRenderSettings
  3
SCENEOE
 90
1024
 91
0
280
0
281
0
  0
CLASS
  1
ACDBDETAILVIEWSTYLE
  2
AcDbDetailViewStyle
  3
ObjectDBX Classes
 90
1025
 91
0
280
0
281
0
  0
CLASS
  1
ACDBSECTIONVIEWSTYLE
  2
AcDbSectionViewStyle
  3
ObjectDBX Classes
 90
1025
 91
0
280
0
281
0
  0
CLASS
  1
RASTERVARIABLES
  2
AcDbRasterVariables
  3
ISM
 90
0
 91
0
280
0
281
0
  0
CLASS
  1
LAYOUT
  2
AcDbLayout
  3
ObjectDBX Classes
 90
0
 91
0
280
0
281
0
  0
CLASS
  1
ACDBPLACEHOLDER
  2
AcDbPlaceHolder
  3
ObjectDBX Classes
 90
0
 91
0
280
0
281
0
  0
ENDSEC
  0
SECTION
  2
TABLES
  0
TABLE
  2
VPORT
  5
8
330
0
100
AcDbSymbolTable
 70
1
  0
VPORT
  5
23
330
8
100
AcDbSymbolTableRecord
100
AcDbViewportTableRecord
  2
*Active
 70
0
 10
0.0
 20
0.0
 11
1.0
 21
1.0
 12
0.0
 22
0.0
 13
0.0
 23
0.0
 14
0.5
 24
0.5
 15
0.5
 25
0.5
 16
0.0
 26
0.0
 36
1.0
 17
0.0
 27
0.0
 37
0.0
 40
1000.0
 41
1.34
 42
50.0
 43
0.0
 44
0.0
 50
0.0
 51
0.0
 71
0
 72
1000
 73
1
 74
3
 75
0
 76
0
 77
0
 78
0
281
0
 65
0
146
0.0
  0
ENDTAB
  0
TABLE
  2
LTYPE
  5
2
330
0
100
AcDbSymbolTable
 70
3
  0
LTYPE
  5
24
330
2
100
AcDbSymbolTableRecord
100
AcDbLinetypeTableRecord
  2
ByBlock
 70
0
  3

 72
65
 73
0
 40
0.0
  0
LTYPE
  5
25
330
2
100
AcDbSymbolTableRecord
100
AcDbLinetypeTableRecord
  2
ByLayer
 70
0
  3

 72
65
 73
0
 40
0.0
  0
LTYPE
  5
26
330
2
100
AcDbSymbolTableRecord
100
AcDbLinetypeTableRecord
  2
Continuous
 70
0
  3

 72
65
 73
0
 40
0.0
  0
ENDTAB
  0
TABLE
  2
LAYER
  5
1
330
0
100
AcDbSymbolTable
 70
2
  0
LAYER
  5
27
330
1
100
AcDbSymbolTableRecord
100
AcDbLayerTableRecord
  2
0
 70
0
 62
7
  6
Continuous
370
-3
390
13
347
21
  0
LAYER
  5
28
330
1
100
AcDbSymbolTableRecord
100
AcDbLayerTableRecord
  2
Defpoints
 70
0
 62
7
  6
Continuous
290
0
370
-3
390
13
347
21
  0
ENDTAB
  0
TABLE
  2
STYLE
  5
5
330
0
100
AcDbSymbolTable
 70
1
  0
STYLE
  5
29
330
5
100
AcDbSymbolTableRecord
100
AcDbTextStyleTableRecord
  2
Standard
 70
0
 40
0.0
 41
1.0
 50
0.0
 71
0
 42
2.5
  3
txt
  4

  0
ENDTAB
  0
TABLE
  2
VIEW
  5
7
330
0
100
AcDbSymbolTable
 70
0
  0
ENDTAB
  0
TABLE
  2
UCS
  5
6
330
0
100
AcDbSymbolTable
 70
0
  0
ENDTAB
  0
TABLE
  2
APPID
  5
3
330
0
100
AcDbSymbolTable
 70
3
  0
APPID
  5
2A
330
3
100
AcDbSymbolTableRecord
100
AcDbRegAppTableRecord
  2
ACAD
 70
0
  0
APPID
  5
31
330
3
100
AcDbSymbolTableRecord
100
AcDbRegAppTableRecord
  2
HATCHBACKGROUNDCOLOR
 70
0
  0
APPID
  5
32
330
3
100
AcDbSymbolTableRecord
100
AcDbRegAppTableRecord
  2
EZDXF
 70
0
  0
ENDTAB
  0
TABLE
  2
DIMSTYLE
  5
4
330
0
100
AcDbSymbolTable
 70
1
100
AcDbDimStyleTable
  0
DIMSTYLE
105
2B
330
4
100
AcDbSymbolTableRecord
100
AcDbDimStyleTableRecord
  2
Standard
 70
0
 40
1.0
 41
2.5
 42
0.625
 43
3.75
 44
1.25
 45
0.0
 46
0.0
 47
0.0
 48
0.0
 49
2.5
140
2.5
141
2.5
142
0.0
143
0.03937007874
144
1.0
145
0.0
146
1.0
147
0.625
148
0.0
 69
0
 70
0
 71
0
 72
0
 73
0
 74
0
 75
0
 76
0
 77
1
 78
8
 79
3
170
0
171
3
172
1
173
0
174
0
175
0
176
0
177
0
178
0
179
2
271
2
272
2
273
2
274
3
275
0
276
0
277
2
278
44
279
0
280
0
281
0
282
0
283
0
284
8
285
0
286
0
288
0
289
3
290
0
371
-2
372
-2
  0
ENDTAB
  0
TABLE
  2
BLOCK_RECORD
  5
9
330
0
100
AcDbSymbolTable
 70
2
  0
BLOCK_RECORD
  5
17
330
9
100
AcDbSymbolTableRecord
100
AcDbBlockTableRecord
  2
*Model_Space
340
1A
 70
0
280
1
281
0
  0
BLOCK_RECORD
  5
1B
330
9
100
AcDbSymbolTableRecord
100
AcDbBlockTableRecord
  2
*Paper_Space
340
1E
 70
0
280
1
281
0
  0
ENDTAB
  0
ENDSEC
  0
SECTION
  2
BLOCKS
  0
BLOCK
  5
18
330
17
100
AcDbEntity
  8
0
100
AcDbBlockBegin
  2
*Model_Space
 70
0
 10
0.0
 20
0.0
 30
0.0
  3
*Model_Space
  1

  0
ENDBLK
  5
19
330
17
100
AcDbEntity
  8
0
100
AcDbBlockEnd
  0
BLOCK
  5
1C
330
1B
100
AcDbEntity
  8
0
100
AcDbBlockBegin
  2
*Paper_Space
 70
0
 10
0.0
 20
0.0
 30
0.0
  3
*Paper_Space
  1

  0
ENDBLK
  5
1D
330
1B
100
AcDbEntity
  8
0
100
AcDbBlockEnd
  0
ENDSEC
  0
SECTION
  2
ENTITIES
  0
LWPOLYLINE
  5
2F
330
17
100
AcDbEntity
  8
0
 62
0
100
AcDbPolyline
 90
156
 70
0
 10
46.57537962249991
 20
-23.24831699721732
 10
46.64894033539561
 20
-23.311401389408896
 10
46.71604955977284
 20
-23.381309693803946
 10
46.77607708505091
 20
-23.457385414167902
 10
46.82845920360372
 20
-23.53891413717902
 10
46.872704004436066
 20
-23.625130241354576
 10
46.90839599263075
 20
-23.71522408686366
 10
46.93519999118618
 20
-23.808349618708288
 10
46.95286428860292
 20
-23.903632311872773
 10
46.9612230026608
 20
-24.00017738382988
 10
46.96019763818888
 20
-24.097078197281594
 10
46.94979782419933
 20
-24.19342477422591
 10
46.930121223463175
 20
-24.288312341395557
 10
46.90135261537686
 20
-24.380849826820004
 10
46.863762160732364
 20
-24.470168227721075
 10
46.81770286468614
 20
-24.55542877116076
 10
46.76360726175154
 20
-24.63583079080608
 10
46.701983353945494
 20
-24.71061924584171
 10
46.633409840233504
 20
-24.779091811421626
 10
46.55853068207241
 20
-24.84060547407465
 10
32.71485901017201
 20
-35.131594628285306
 10
32.632682692331336
 20
-35.186590598436645
 10
32.54547669361247
 20
-35.23320194613423
 10
32.454093671012075
 20
-35.270972928741976
 10
32.35942712239428
 20
-35.29953424032836
 10
32.262402650311834
 20
-35.318606622556636
 10
32.16396891192344
 20
-35.328003595134284
 10
32.06508834349469
 20
-35.32763327912484
 10
31.96672775017365
 20
-35.31749929529454
 10
31.869848853049724
 20
-35.297700728710296
 10
31.77539888592189
 20
-35.26843115993502
 10
31.684301333716515
 20
-35.22997677229292
 10
31.597446903109827
 20
-35.182713553710954
 10
31.515684813639865
 20
-35.12710362049533
 10
31.439814494459128
 20
-35.06369069898755
 10
31.370577767912835
 20
-34.99309480927793
 10
31.30865159636806
 20
-34.916006202956716
 10
31.254641463211485
 20
-34.833178614176475
 10
31.20907545273321
 20
-34.745421890013404
 10
31.172399086780526
 20
-34.65359407218436
 10
31.14497096866629
 20
-34.55859300754059
 10
31.12705927692361
 20
-34.46134756936658
 10
31.118839143189195
 20
-34.36280857531789
 10
31.120390939853078
 20
-34.26393949079773
 10
31.13169949421725
 20
-34.165707008670225
 10
31.15265423684679
 20
-34.06907159741705
 10
31.183050282662926
 20
-33.974978110153145
 10
31.22259043420773
 20
-33.884346546321595
 10
31.27088808749342
 20
-33.79806305639545
 10
37.13221765103476
 20
-24.444170929275337
 10
9.112168825540909
 20
-10.6130857284755
 10
8.881505978291036
 20
-10.822146347078318
 10
7.777983262274432
 20
-11.640574572235634
 10
6.599554315563969
 20
-12.34689770087697
 10
5.357568053111258
 20
-12.934313455158014
 10
4.063985481562472
 20
-13.397164700250924
 10
2.7312645082257965
 20
-13.730993925645226
 10
1.3722399646138508
 20
-13.932586173410755
 10
8.572527594031472e-16
 20
-14.0
 10
-1.372239964613849
 20
-13.932586173410757
 10
-2.7312645082257947
 20
-13.730993925645226
 10
-4.0639854815624705
 20
-13.397164700250926
 10
-5.357568053111256
 20
-12.934313455158014
 10
-6.599554315563967
 20
-12.346897700876971
 10
-7.777983262274427
 20
-11.640574572235636
 10
-8.853143061101587
 20
-10.843181720105742
 10
-41.103689291153344
 20
-28.002558685240317
 10
-35.871704718155364
 20
-38.707075004505846
 10
-35.83330590098157
 20
-38.79640268082016
 10
-35.803763758800855
 20
-38.889037257255936
 10
-35.78335758015732
 20
-38.98410297552088
 10
-35.77228028308276
 20
-39.080701093543865
 10
-35.770636591268286
 20
-39.177918382095235
 10
-35.77844204401673
 20
-39.27483575836726
 10
-35.795622849335594
 20
-39.37053697489378
 10
-35.82201658155938
 20
-39.46411728166481
 10
-35.85737371690605
 20
-39.55469197954528
 10
-35.901359992450644
 20
-39.64140478413478
 10
-35.95355956621452
 20
-39.72343592099713
 10
-36.01347894849506
 20
-39.80000987572836
 10
-36.080551667269404
 20
-39.870402725594516
 10
-36.15414362356592
 20
-39.933948983426994
 10
-36.233559086174395
 20
-39.99004788907357
 10
-36.31804726902129
 20
-40.03816908892655
 10
-36.406809429028414
 20
-40.077857649834336
 10
-36.49900641735244
 20
-40.10873835999522
 10
-36.593766612616605
 20
-40.13051927617336
 10
-36.69019416113456
 20
-40.142994483701784
 10
-36.787377446224205
 20
-40.146046043179666
 10
-36.88439770654322
 20
-40.139645105459955
 10
-36.98033772196966
 20
-40.12385218438642
 10
-37.074290484911934
 20
-40.098816584701666
 10
-37.16536777507047
 20
-40.06477499053455
 10
-37.252708556586256
 20
-40.022049227811436
 10
-37.33548711819024
 20
-39.97104322174512
 10
-37.412920879397475
 20
-39.91223917816509
 10
-50.4356764124201
 20
-28.984849813493916
 10
-50.507291538851746
 20
-28.91854012771293
 10
-50.572101478595435
 20
-28.845564978020633
 10
-50.629488871558756
 20
-28.766619503856074
 10
-50.678907062608815
 20
-28.682455716182673
 10
-50.71988530884546
 20
-28.593875334056822
 10
-50.75203326375729
 20
-28.50172214769205
 10
-50.775044695545695
 20
-28.406873980765948
 10
-50.78870040419734
 20
-28.310234328534502
 10
-50.79287030951793
 20
-28.212723751406628
 10
-50.78751469023715
 20
-28.1152711059612
 10
-50.77268456238169
 20
-28.018804696937206
 10
-50.74852119331176
 20
-27.92424343448062
 10
-50.71525475605051
 20
-27.83248808088129
 10
-50.67320213672474
 20
-27.744412670180946
 10
-50.62276391600239
 20
-27.660856182386414
 10
-50.56442055328105
 20
-27.58261455159717
 10
-50.49872780997547
 20
-27.51043308417526
 10
-50.42631145550062
 20
-27.444999359179917
 10
-50.347861306379514
 20
-27.386936678695207
 10
-13.68225083123125
 20
-2.9258578490398217
 10
-13.730993925645226
 20
-2.7312645082258005
 10
-13.932586173410755
 20
-1.3722399646138514
 10
-14.0
 20
-1.7145055188062944e-15
 10
-13.932586173410757
 20
1.3722399646138483
 10
-13.730993925645226
 20
2.731264508225797
 10
-13.397164700250926
 20
4.06398548156247
 10
-12.934313455158016
 20
5.3575680531112555
 10
-12.346897700876971
 20
6.599554315563967
 10
-11.640574572235636
 20
7.777983262274427
 10
-10.82214634707832
 20
8.881505978291035
 10
-9.899494936611667
 20
9.899494936611664
 10
-8.881505978291042
 20
10.822146347078313
 10
-7.7779832622744305
 20
11.640574572235634
 10
-6.599554315563971
 20
12.34689770087697
 10
-5.357568053111264
 20
12.934313455158012
 10
-4.063985481562474
 20
13.397164700250924
 10
-2.7312645082258014
 20
13.730993925645224
 10
-1.3722399646138463
 20
13.932586173410757
 10
-2.5717582782094417e-15
 20
14.0
 10
1.3722399646138412
 20
13.932586173410757
 10
2.731264508225796
 20
13.730993925645226
 10
4.063985481562469
 20
13.397164700250926
 10
5.35756805311126
 20
12.934313455158012
 10
6.599554315563966
 20
12.346897700876971
 10
7.777983262274426
 20
11.640574572235636
 10
8.881505978291038
 20
10.822146347078316
 10
9.899494936611664
 20
9.899494936611667
 10
10.822146347078313
 20
8.881505978291043
 10
11.640574572235634
 20
7.7779832622744305
 10
12.346897700876967
 20
6.599554315563972
 10
12.934313455158012
 20
5.357568053111265
 10
13.397164700250924
 20
4.063985481562475
 10
13.730993925645224
 20
2.7312645082258022
 10
13.932586173410757
 20
1.372239964613847
 10
14.0
 20
0.0
 10
13.932586173410757
 20
-1.3722399646138483
 10
13.76342035757573
 20
-2.512663260688865
 10
46.49605821642752
 20
-23.192648931339264
 10
46.57537962249991
 20
-23.24831699721732
  0
LWPOLYLINE
  5
30
330
17
100
AcDbEntity
  8
0
 62
0
100
AcDbPolyline
 90
65
 70
0
 10
10.847513520726947
 20
1.0683868295922097
 10
10.690559556395211
 20
2.126484509975803
 10
10.430649659481077
 20
3.1641029820736413
 10
10.070286904373024
 20
4.171249412779486
 10
9.612941781397067
 20
5.138224431403378
 10
9.063018774097744
 20
6.055715539913664
 10
8.42581394165383
 20
6.9148867973837405
 10
7.707463914933366
 20
7.70746391493337
 10
6.914886797383737
 20
8.425813941653832
 10
6.055715539913661
 20
9.063018774097745
 10
5.138224431403374
 20
9.61294178139707
 10
4.171249412779481
 20
10.070286904373024
 10
3.1641029820736364
 20
10.430649659481078
 10
2.1264845099757985
 20
10.690559556395211
 10
1.068386829592205
 20
10.847513520726947
 10
-2.0022975166059223e-15
 20
10.9
 10
-1.068386829592209
 20
10.847513520726947
 10
-2.1264845099758025
 20
10.690559556395211
 10
-3.164102982073641
 20
10.430649659481077
 10
-4.171249412779485
 20
10.070286904373024
 10
-5.138224431403377
 20
9.612941781397069
 10
-6.055715539913664
 20
9.063018774097744
 10
-6.91488679738374
 20
8.42581394165383
 10
-7.70746391493337
 20
7.707463914933368
 10
-8.425813941653836
 20
6.914886797383733
 10
-9.063018774097745
 20
6.0557155399136615
 10
-9.61294178139707
 20
5.1382244314033745
 10
-10.070286904373027
 20
4.171249412779478
 10
-10.430649659481078
 20
3.1641029820736373
 10
-10.690559556395211
 20
2.126484509975799
 10
-10.847513520726947
 20
1.0683868295922105
 10
-10.9
 20
-1.334865011070615e-15
 10
-10.847513520726945
 20
-1.068386829592213
 10
-10.690559556395211
 20
-2.126484509975802
 10
-10.430649659481077
 20
-3.16410298207364
 10
-10.070286904373026
 20
-4.17124941277948
 10
-9.612941781397069
 20
-5.138224431403377
 10
-9.063018774097744
 20
-6.055715539913664
 10
-8.425813941653834
 20
-6.914886797383736
 10
-7.707463914933368
 20
-7.707463914933369
 10
-6.914886797383735
 20
-8.425813941653836
 10
-6.0557155399136615
 20
-9.063018774097744
 10
-5.138224431403375
 20
-9.61294178139707
 10
-4.171249412779479
 20
-10.070286904373026
 10
-3.1641029820736377
 20
-10.430649659481078
 10
-2.126484509975797
 20
-10.690559556395211
 10
-1.068386829592211
 20
-10.847513520726947
 10
6.674325055353075e-16
 20
-10.9
 10
1.0683868295922125
 20
-10.847513520726945
 10
2.126484509975799
 20
-10.690559556395211
 10
3.1641029820736395
 20
-10.430649659481077
 10
4.1712494127794795
 20
-10.070286904373026
 10
5.138224431403376
 20
-9.612941781397069
 10
6.055715539913665
 20
-9.063018774097744
 10
6.914886797383736
 20
-8.425813941653834
 10
7.707463914933369
 20
-7.707463914933368
 10
8.425813941653834
 20
-6.914886797383736
 10
9.063018774097744
 20
-6.055715539913664
 10
9.61294178139707
 20
-5.1382244314033745
 10
10.070286904373026
 20
-4.171249412779479
 10
10.430649659481077
 20
-3.1641029820736395
 10
10.690559556395211
 20
-2.126484509975798
 10
10.847513520726947
 20
-1.0683868295922105
 10
10.9
 20
0.0
 10
10.847513520726947
 20
1.0683868295922097
  0
ENDSEC
  0
SECTION
  2
OBJECTS
  0
DICTIONARY
  5
A
330
0
100
AcDbDictionary
280
0
281
1
  3
ACAD_COLOR
350
B
  3
ACAD_GROUP
350
C
  3
ACAD_LAYOUT
350
D
  3
ACAD_MATERIAL
350
E
  3
ACAD_MLEADERSTYLE
350
F
  3
ACAD_MLINESTYLE
350
10
  3
ACAD_PLOTSETTINGS
350
11
  3
ACAD_PLOTSTYLENAME
350
12
  3
ACAD_SCALELIST
350
14
  3
ACAD_TABLESTYLE
350
15
  3
ACAD_VISUALSTYLE
350
16
  3
EZDXF_META
350
2D
  0
DICTIONARY
  5
B
330
A
100
AcDbDictionary
280
0
281
1
  0
DICTIONARY
  5
C
330
A
100
AcDbDictionary
280
0
281
1
  0
DICTIONARY
  5
D
330
A
100
AcDbDictionary
280
0
281
1
  3
Model
350
1A
  3
Layout1
350
1E
  0
DICTIONARY
  5
E
330
A
100
AcDbDictionary
280
0
281
1
  3
ByBlock
350
1F
  3
ByLayer
350
20
  3
Global
350
21
  0
DICTIONARY
  5
F
330
A
100
AcDbDictionary
280
0
281
1
  3
Standard
350
2C
  0
DICTIONARY
  5
10
330
A
100
AcDbDictionary
280
0
281
1
  3
Standard
350
22
  0
DICTIONARY
  5
11
330
A
100
AcDbDictionary
280
0
281
1
  0
ACDBDICTIONARYWDFLT
  5
12
330
A
100
AcDbDictionary
280
0
281
1
  3
Normal
350
13
100
AcDbDictionaryWithDefault
340
13
  0
ACDBPLACEHOLDER
  5
13
330
12
  0
DICTIONARY
  5
14
330
A
100
AcDbDictionary
280
0
281
1
  0
DICTIONARY
  5
15
330
A
100
AcDbDictionary
280
0
281
1
  0
DICTIONARY
  5
16
330
A
100
AcDbDictionary
280
0
281
1
  0
LAYOUT
  5
1A
330
D
100
AcDbPlotSettings
  1

  2
Adobe PDF
  4
A3
  6

 40
7.5
 41
20.0
 42
7.5
 43
20.0
 44
420.0
 45
297.0
 46
0.0
 47
0.0
 48
0.0
 49
0.0
140
0.0
141
0.0
142
1.0
143
1.0
 70
1024
 72
1
 73
0
 74
5
  7

 75
16
 76
0
 77
2
 78
300
147
1.0
148
0.0
149
0.0
100
AcDbLayout
  1
Model
 70
1
 71
0
 10
0.0
 20
0.0
 11
420.0
 21
297.0
 12
0.0
 22
0.0
 32
0.0
 14
1e+20
 24
1e+20
 34
1e+20
 15
-1e+20
 25
-1e+20
 35
-1e+20
146
0.0
 13
0.0
 23
0.0
 33
0.0
 16
1.0
 26
0.0
 36
0.0
 17
0.0
 27
1.0
 37
0.0
 76
1
330
17
  0
LAYOUT
  5
1E
330
D
100
AcDbPlotSettings
  1

  2
Adobe PDF
  4
A3
  6

 40
7.5
 41
20.0
 42
7.5
 43
20.0
 44
420.0
 45
297.0
 46
0.0
 47
0.0
 48
0.0
 49
0.0
140
0.0
141
0.0
142
1.0
143
1.0
 70
0
 72
1
 73
0
 74
5
  7

 75
16
 76
0
 77
2
 78
300
147
1.0
148
0.0
149
0.0
100
AcDbLayout
  1
Layout1
 70
1
 71
1
 10
0.0
 20
0.0
 11
420.0
 21
297.0
 12
0.0
 22
0.0
 32
0.0
 14
1e+20
 24
1e+20
 34
1e+20
 15
-1e+20
 25
-1e+20
 35
-1e+20
146
0.0
 13
0.0
 23
0.0
 33
0.0
 16
1.0
 26
0.0
 36
0.0
 17
0.0
 27
1.0
 37
0.0
 76
1
330
1B
  0
MATERIAL
  5
1F
102
{ACAD_REACTORS
330
E
102
}
330
E
100
AcDbMaterial
  1
ByBlock
  2

 70
0
 40
1.0
 71
1
 41
1.0
 91
-1023410177
 42
1.0
 72
1
  3

 73
1
 74
1
 75
1
 44
0.5
 73
0
 45
1.0
 46
1.0
 77
1
  4

 78
1
 79
1
170
1
 48
1.0
171
1
  6

172
1
173
1
174
1
140
1.0
141
1.0
175
1
  7

176
1
177
1
178
1
143
1.0
179
1
  8

270
1
271
1
272
1
145
1.0
146
1.0
273
1
  9

274
1
275
1
276
1
 42
1.0
 72
1
  3

 73
1
 74
1
 75
1
 94
63
  0
MATERIAL
  5
20
102
{ACAD_REACTORS
330
E
102
}
330
E
100
AcDbMaterial
  1
ByLayer
  2

 70
0
 40
1.0
 71
1
 41
1.0
 91
-1023410177
 42
1.0
 72
1
  3

 73
1
 74
1
 75
1
 44
0.5
 73
0
 45
1.0
 46
1.0
 77
1
  4

 78
1
 79
1
170
1
 48
1.0
171
1
  6

172
1
173
1
174
1
140
1.0
141
1.0
175
1
  7

176
1
177
1
178
1
143
1.0
179
1
  8

270
1
271
1
272
1
145
1.0
146
1.0
273
1
  9

274
1
275
1
276
1
 42
1.0
 72
1
  3

 73
1
 74
1
 75
1
 94
63
  0
MATERIAL
  5
21
102
{ACAD_REACTORS
330
E
102
}
330
E
100
AcDbMaterial
  1
Global
  2

 70
0
 40
1.0
 71
1
 41
1.0
 91
-1023410177
 42
1.0
 72
1
  3

 73
1
 74
1
 75
1
 44
0.5
 73
0
 45
1.0
 46
1.0
 77
1
  4

 78
1
 79
1
170
1
 48
1.0
171
1
  6

172
1
173
1
174
1
140
1.0
141
1.0
175
1
  7

176
1
177
1
178
1
143
1.0
179
1
  8

270
1
271
1
272
1
145
1.0
146
1.0
273
1
  9

274
1
275
1
276
1
 42
1.0
 72
1
  3

 73
1
 74
1
 75
1
 94
63
  0
MLINESTYLE
  5
22
102
{ACAD_REACTORS
330
10
102
}
330
10
100
AcDbMlineStyle
  2
Standard
 70
0
  3

 62
256
 51
90.0
 52
90.0
 71
2
 49
0.5
 62
256
  6
BYLAYER
 49
-0.5
 62
256
  6
BYLAYER
  0
MLEADERSTYLE
  5
2C
102
{ACAD_REACTORS
330
F
102
}
330
F
100
AcDbMLeaderStyle
179
2
170
2
171
1
172
0
 90
2
 40
0.0
 41
0.0
173
1
 91
-1056964608
 92
-2
290
1
 42
2.0
291
1
 43
8.0
  3
Standard
 44
4.0
300

342
29
174
1
175
1
176
0
178
1
 93
-1056964608
 45
4.0
292
0
297
0
 46
4.0
 94
-1056964608
 47
1.0
 49
1.0
140
1.0
294
1
141
0.0
177
0
142
1.0
295
0
296
0
143
3.75
271
0
272
9
273
9
  0
DICTIONARY
  5
2D
330
A
100
AcDbDictionary
281
1
  3
CREATED_BY_EZDXF
350
2E
  3
WRITTEN_BY_EZDXF
350
33
  0
DICTIONARYVAR
  5
2E
330
2D
100
DictionaryVariables
280
0
  1
1.1.1 @ 2024-05-17T23:01:03.610058+00:00
  0
DICTIONARYVAR
  5
33
330
2D
100
DictionaryVariables
280
0
  1
1.1.1 @ 2024-05-17T23:01:03.612734+00:00
  0
ENDSEC
  0
EOF
