  0
SECTION
  2
HEADER
  9
$ACADVER
  1
AC1032
  9
$ACADMAINTVER
 90
4
  9
$DWGCODEPAGE
  3
ANSI_1252
  9
$LASTSAVEDBY
  1
ezdxf
  9
$REQUIREDVERSIONS
160
0
  9
$INSBASE
 10
0.0
 20
0.0
 30
0.0
  9
$EXTMIN
 10
1e+20
 20
1e+20
 30
1e+20
  9
$EXTMAX
 10
-1e+20
 20
-1e+20
 30
-1e+20
  9
$LIMMIN
 10
0.0
 20
0.0
  9
$LIMMAX
 10
420.0
 20
297.0
  9
$ORTHOMODE
 70
0
  9
$REGENMODE
 70
1
  9
$FILLMODE
 70
1
  9
$QTEXTMODE
 70
0
  9
$MIRRTEXT
 70
1
  9
$LTSCALE
 40
1.0
  9
$ATTMODE
 70
1
  9
$TEXTSIZE
 40
2.5
  9
$TRACEWID
 40
1.0
  9
$TEXTSTYLE
  7
Standard
  9
$CLAYER
  8
0
  9
$CELTYPE
  6
ByLayer
  9
$CECOLOR
 62
256
  9
$CELTSCALE
 40
1.0
  9
$DISPSILH
 70
0
  9
$DIMSCALE
 40
1.0
  9
$DIMASZ
 40
2.5
  9
$DIMEXO
 40
0.625
  9
$DIMDLI
 40
3.75
  9
$DIMRND
 40
0.0
  9
$DIMDLE
 40
0.0
  9
$DIMEXE
 40
1.25
  9
$DIMTP
 40
0.0
  9
$DIMTM
 40
0.0
  9
$DIMTXT
 40
2.5
  9
$DIMCEN
 40
2.5
  9
$DIMTSZ
 40
0.0
  9
$DIMTOL
 70
0
  9
$DIMLIM
 70
0
  9
$DIMTIH
 70
0
  9
$DIMTOH
 70
0
  9
$DIMSE1
 70
0
  9
$DIMSE2
 70
0
  9
$DIMTAD
 70
1
  9
$DIMZIN
 70
8
  9
$DIMBLK
  1

  9
$DIMASO
 70
1
  9
$DIMSHO
 70
1
  9
$DIMPOST
  1

  9
$DIMAPOST
  1

  9
$DIMALT
 70
0
  9
$DIMALTD
 70
3
  9
$DIMALTF
 40
0.03937007874
  9
$DIMLFAC
 40
1.0
  9
$DIMTOFL
 70
1
  9
$DIMTVP
 40
0.0
  9
$DIMTIX
 70
0
  9
$DIMSOXD
 70
0
  9
$DIMSAH
 70
0
  9
$DIMBLK1
  1

  9
$DIMBLK2
  1

  9
$DIMSTYLE
  2
ISO-25
  9
$DIMCLRD
 70
0
  9
$DIMCLRE
 70
0
  9
$DIMCLRT
 70
0
  9
$DIMTFAC
 40
1.0
  9
$DIMGAP
 40
0.625
  9
$DIMJUST
 70
0
  9
$DIMSD1
 70
0
  9
$DIMSD2
 70
0
  9
$DIMTOLJ
 70
0
  9
$DIMTZIN
 70
8
  9
$DIMALTZ
 70
0
  9
$DIMALTTZ
 70
0
  9
$DIMUPT
 70
0
  9
$DIMDEC
 70
2
  9
$DIMTDEC
 70
2
  9
$DIMALTU
 70
2
  9
$DIMALTTD
 70
3
  9
$DIMTXSTY
  7
Standard
  9
$DIMAUNIT
 70
0
  9
$DIMADEC
 70
0
  9
$DIMALTRND
 40
0.0
  9
$DIMAZIN
 70
0
  9
$DIMDSEP
 70
44
  9
$DIMATFIT
 70
3
  9
$DIMFRAC
 70
0
  9
$DIMLDRBLK
  1

  9
$DIMLUNIT
 70
2
  9
$DIMLWD
 70
-2
  9
$DIMLWE
 70
-2
  9
$DIMTMOVE
 70
0
  9
$DIMFXL
 40
1.0
  9
$DIMFXLON
 70
0
  9
$DIMJOGANG
 40
0.785398163397
  9
$DIMTFILL
 70
0
  9
$DIMTFILLCLR
 70
0
  9
$DIMARCSYM
 70
0
  9
$DIMLTYPE
  6

  9
$DIMLTEX1
  6

  9
$DIMLTEX2
  6

  9
$DIMTXTDIRECTION
 70
0
  9
$LUNITS
 70
2
  9
$LUPREC
 70
4
  9
$SKETCHINC
 40
1.0
  9
$FILLETRAD
 40
10.0
  9
$AUNITS
 70
0
  9
$AUPREC
 70
2
  9
$MENU
  1
.
  9
$ELEVATION
 40
0.0
  9
$PELEVATION
 40
0.0
  9
$THICKNESS
 40
0.0
  9
$LIMCHECK
 70
0
  9
$CHAMFERA
 40
0.0
  9
$CHAMFERB
 40
0.0
  9
$CHAMFERC
 40
0.0
  9
$CHAMFERD
 40
0.0
  9
$SKPOLY
 70
0
  9
$TDCREATE
 40
2460448.741979167
  9
$TDUCREATE
 40
2458532.153996898
  9
$TDUPDATE
 40
2460448.741979167
  9
$TDUUPDATE
 40
2458532.1544311
  9
$TDINDWG
 40
0.0
  9
$TDUSRTIMER
 40
0.0
  9
$USRTIMER
 70
1
  9
$ANGBASE
 50
0.0
  9
$ANGDIR
 70
0
  9
$PDMODE
 70
0
  9
$PDSIZE
 40
0.0
  9
$PLINEWID
 40
0.0
  9
$SPLFRAME
 70
0
  9
$SPLINETYPE
 70
6
  9
$SPLINESEGS
 70
8
  9
$HANDSEED
  5
52
  9
$SURFTAB1
 70
6
  9
$SURFTAB2
 70
6
  9
$SURFTYPE
 70
6
  9
$SURFU
 70
6
  9
$SURFV
 70
6
  9
$UCSBASE
  2

  9
$UCSNAME
  2

  9
$UCSORG
 10
0.0
 20
0.0
 30
0.0
  9
$UCSXDIR
 10
1.0
 20
0.0
 30
0.0
  9
$UCSYDIR
 10
0.0
 20
1.0
 30
0.0
  9
$UCSORTHOREF
  2

  9
$UCSORTHOVIEW
 70
0
  9
$UCSORGTOP
 10
0.0
 20
0.0
 30
0.0
  9
$UCSORGBOTTOM
 10
0.0
 20
0.0
 30
0.0
  9
$UCSORGLEFT
 10
0.0
 20
0.0
 30
0.0
  9
$UCSORGRIGHT
 10
0.0
 20
0.0
 30
0.0
  9
$UCSORGFRONT
 10
0.0
 20
0.0
 30
0.0
  9
$UCSORGBACK
 10
0.0
 20
0.0
 30
0.0
  9
$PUCSBASE
  2

  9
$PUCSNAME
  2

  9
$PUCSORG
 10
0.0
 20
0.0
 30
0.0
  9
$PUCSXDIR
 10
1.0
 20
0.0
 30
0.0
  9
$PUCSYDIR
 10
0.0
 20
1.0
 30
0.0
  9
$PUCSORTHOREF
  2

  9
$PUCSORTHOVIEW
 70
0
  9
$PUCSORGTOP
 10
0.0
 20
0.0
 30
0.0
  9
$PUCSORGBOTTOM
 10
0.0
 20
0.0
 30
0.0
  9
$PUCSORGLEFT
 10
0.0
 20
0.0
 30
0.0
  9
$PUCSORGRIGHT
 10
0.0
 20
0.0
 30
0.0
  9
$PUCSORGFRONT
 10
0.0
 20
0.0
 30
0.0
  9
$PUCSORGBACK
 10
0.0
 20
0.0
 30
0.0
  9
$USERI1
 70
0
  9
$USERI2
 70
0
  9
$USERI3
 70
0
  9
$USERI4
 70
0
  9
$USERI5
 70
0
  9
$USERR1
 40
0.0
  9
$USERR2
 40
0.0
  9
$USERR3
 40
0.0
  9
$USERR4
 40
0.0
  9
$USERR5
 40
0.0
  9
$WORLDVIEW
 70
1
  9
$SHADEDGE
 70
3
  9
$SHADEDIF
 70
70
  9
$TILEMODE
 70
1
  9
$MAXACTVP
 70
64
  9
$PINSBASE
 10
0.0
 20
0.0
 30
0.0
  9
$PLIMCHECK
 70
0
  9
$PEXTMIN
 10
1e+20
 20
1e+20
 30
1e+20
  9
$PEXTMAX
 10
-1e+20
 20
-1e+20
 30
-1e+20
  9
$PLIMMIN
 10
0.0
 20
0.0
  9
$PLIMMAX
 10
420.0
 20
297.0
  9
$UNITMODE
 70
0
  9
$VISRETAIN
 70
1
  9
$PLINEGEN
 70
0
  9
$PSLTSCALE
 70
1
  9
$TREEDEPTH
 70
3020
  9
$CMLSTYLE
  2
Standard
  9
$CMLJUST
 70
0
  9
$CMLSCALE
 40
20.0
  9
$PROXYGRAPHICS
 70
1
  9
$MEASUREMENT
 70
1
  9
$CELWEIGHT
370
-1
  9
$ENDCAPS
280
0
  9
$JOINSTYLE
280
0
  9
$LWDISPLAY
290
0
  9
$INSUNITS
 70
4
  9
$HYPERLINKBASE
  1

  9
$STYLESHEET
  1

  9
$XEDIT
290
1
  9
$CEPSNTYPE
380
0
  9
$PSTYLEMODE
290
1
  9
$FINGERPRINTGUID
  2
{22148BC4-218C-488E-8DF6-B98033CECCC0}
  9
$VERSIONGUID
  2
{C02E2FCA-D11E-4CD6-BA31-5C81797E7A39}
  9
$EXTNAMES
290
1
  9
$PSVPSCALE
 40
0.0
  9
$OLESTARTUP
290
0
  9
$SORTENTS
280
127
  9
$INDEXCTL
280
0
  9
$HIDETEXT
280
1
  9
$XCLIPFRAME
280
0
  9
$HALOGAP
280
0
  9
$OBSCOLOR
 70
257
  9
$OBSLTYPE
280
0
  9
$INTERSECTIONDISPLAY
280
0
  9
$INTERSECTIONCOLOR
 70
257
  9
$DIMASSOC
280
2
  9
$PROJECTNAME
  1

  9
$CAMERADISPLAY
290
0
  9
$LENSLENGTH
 40
50.0
  9
$CAMERAHEIGHT
 40
0.0
  9
$STEPSPERSEC
 40
24.0
  9
$STEPSIZE
 40
100.0
  9
$3DDWFPREC
 40
2.0
  9
$PSOLWIDTH
 40
0.005
  9
$PSOLHEIGHT
 40
0.08
  9
$LOFTANG1
 40
1.570796326795
  9
$LOFTANG2
 40
1.570796326795
  9
$LOFTMAG1
 40
0.0
  9
$LOFTMAG2
 40
0.0
  9
$LOFTPARAM
 70
7
  9
$LOFTNORMALS
280
1
  9
$LATITUDE
 40
37.795
  9
$LONGITUDE
 40
-122.394
  9
$NORTHDIRECTION
 40
0.0
  9
$TIMEZONE
 70
-8000
  9
$LIGHTGLYPHDISPLAY
280
1
  9
$TILEMODELIGHTSYNCH
280
1
  9
$CMATERIAL
347
20
  9
$SOLIDHIST
280
0
  9
$SHOWHIST
280
1
  9
$DWFFRAME
280
2
  9
$DGNFRAME
280
2
  9
$REALWORLDSCALE
290
1
  9
$INTERFERECOLOR
 62
256
  9
$CSHADOW
280
0
  9
$SHADOWPLANELOCATION
 40
0.0
  0
ENDSEC
  0
SECTION
  2
CLASSES
  0
CLASS
  1
ACDBDICTIONARYWDFLT
  2
AcDbDictionaryWithDefault
  3
ObjectDBX Classes
 90
0
 91
0
280
0
281
0
  0
CLASS
  1
SUN
  2
AcDbSun
  3
SCENEOE
 90
1153
 91
0
280
0
281
0
  0
CLASS
  1
VISUALSTYLE
  2
AcDbVisualStyle
  3
ObjectDBX Classes
 90
4095
 91
0
280
0
281
0
  0
CLASS
  1
MATERIAL
  2
AcDbMaterial
  3
ObjectDBX Classes
 90
1153
 91
0
280
0
281
0
  0
CLASS
  1
SCALE
  2
AcDbScale
  3
ObjectDBX Classes
 90
1153
 91
0
280
0
281
0
  0
CLASS
  1
TABLESTYLE
  2
AcDbTableStyle
  3
ObjectDBX Classes
 90
4095
 91
0
280
0
281
0
  0
CLASS
  1
MLEADERSTYLE
  2
AcDbMLeaderStyle
  3
ACDB_MLEADERSTYLE_CLASS
 90
4095
 91
0
280
0
281
0
  0
CLASS
  1
DICTIONARYVAR
  2
AcDbDictionaryVar
  3
ObjectDBX Classes
 90
0
 91
0
280
0
281
0
  0
CLASS
  1
CELLSTYLEMAP
  2
AcDbCellStyleMap
  3
ObjectDBX Classes
 90
1152
 91
0
280
0
281
0
  0
CLASS
  1
MENTALRAYRENDERSETTINGS
  2
AcDbMentalRayRenderSettings
  3
SCENEOE
 90
1024
 91
0
280
0
281
0
  0
CLASS
  1
ACDBDETAILVIEWSTYLE
  2
AcDbDetailViewStyle
  3
ObjectDBX Classes
 90
1025
 91
0
280
0
281
0
  0
CLASS
  1
ACDBSECTIONVIEWSTYLE
  2
AcDbSectionViewStyle
  3
ObjectDBX Classes
 90
1025
 91
0
280
0
281
0
  0
CLASS
  1
RASTERVARIABLES
  2
AcDbRasterVariables
  3
ISM
 90
0
 91
0
280
0
281
0
  0
CLASS
  1
ACDBPLACEHOLDER
  2
AcDbPlaceHolder
  3
ObjectDBX Classes
 90
0
 91
0
280
0
281
0
  0
CLASS
  1
LAYOUT
  2
AcDbLayout
  3
ObjectDBX Classes
 90
0
 91
0
280
0
281
0
  0
ENDSEC
  0
SECTION
  2
TABLES
  0
TABLE
  2
VPORT
  5
8
330
0
100
AcDbSymbolTable
 70
1
  0
VPORT
  5
23
330
8
100
AcDbSymbolTableRecord
100
AcDbViewportTableRecord
  2
*Active
 70
0
 10
0.0
 20
0.0
 11
1.0
 21
1.0
 12
0.0
 22
0.0
 13
0.0
 23
0.0
 14
0.5
 24
0.5
 15
0.5
 25
0.5
 16
0.0
 26
0.0
 36
1.0
 17
0.0
 27
0.0
 37
0.0
 40
1000.0
 41
1.34
 42
50.0
 43
0.0
 44
0.0
 50
0.0
 51
0.0
 71
0
 72
1000
 73
1
 74
3
 75
0
 76
0
 77
0
 78
0
281
0
 65
0
146
0.0
  0
ENDTAB
  0
TABLE
  2
LTYPE
  5
2
330
0
100
AcDbSymbolTable
 70
3
  0
LTYPE
  5
24
330
2
100
AcDbSymbolTableRecord
100
AcDbLinetypeTableRecord
  2
ByBlock
 70
0
  3

 72
65
 73
0
 40
0.0
  0
LTYPE
  5
25
330
2
100
AcDbSymbolTableRecord
100
AcDbLinetypeTableRecord
  2
ByLayer
 70
0
  3

 72
65
 73
0
 40
0.0
  0
LTYPE
  5
26
330
2
100
AcDbSymbolTableRecord
100
AcDbLinetypeTableRecord
  2
Continuous
 70
0
  3

 72
65
 73
0
 40
0.0
  0
ENDTAB
  0
TABLE
  2
LAYER
  5
1
330
0
100
AcDbSymbolTable
 70
2
  0
LAYER
  5
27
330
1
100
AcDbSymbolTableRecord
100
AcDbLayerTableRecord
  2
0
 70
0
 62
7
  6
Continuous
370
-3
390
13
347
21
  0
LAYER
  5
28
330
1
100
AcDbSymbolTableRecord
100
AcDbLayerTableRecord
  2
Defpoints
 70
0
 62
7
  6
Continuous
290
0
370
-3
390
13
347
21
  0
ENDTAB
  0
TABLE
  2
STYLE
  5
5
330
0
100
AcDbSymbolTable
 70
1
  0
STYLE
  5
29
330
5
100
AcDbSymbolTableRecord
100
AcDbTextStyleTableRecord
  2
Standard
 70
0
 40
0.0
 41
1.0
 50
0.0
 71
0
 42
2.5
  3
txt
  4

  0
ENDTAB
  0
TABLE
  2
VIEW
  5
7
330
0
100
AcDbSymbolTable
 70
0
  0
ENDTAB
  0
TABLE
  2
UCS
  5
6
330
0
100
AcDbSymbolTable
 70
0
  0
ENDTAB
  0
TABLE
  2
APPID
  5
3
330
0
100
AcDbSymbolTable
 70
3
  0
APPID
  5
2A
330
3
100
AcDbSymbolTableRecord
100
AcDbRegAppTableRecord
  2
ACAD
 70
0
  0
APPID
  5
4F
330
3
100
AcDbSymbolTableRecord
100
AcDbRegAppTableRecord
  2
HATCHBACKGROUNDCOLOR
 70
0
  0
APPID
  5
50
330
3
100
AcDbSymbolTableRecord
100
AcDbRegAppTableRecord
  2
EZDXF
 70
0
  0
ENDTAB
  0
TABLE
  2
DIMSTYLE
  5
4
330
0
100
AcDbSymbolTable
 70
1
100
AcDbDimStyleTable
  0
DIMSTYLE
105
2B
330
4
100
AcDbSymbolTableRecord
100
AcDbDimStyleTableRecord
  2
Standard
 70
0
 40
1.0
 41
2.5
 42
0.625
 43
3.75
 44
1.25
 45
0.0
 46
0.0
 47
0.0
 48
0.0
 49
2.5
140
2.5
141
2.5
142
0.0
143
0.03937007874
144
1.0
145
0.0
146
1.0
147
0.625
148
0.0
 69
0
 70
0
 71
0
 72
0
 73
0
 74
0
 75
0
 76
0
 77
1
 78
8
 79
3
170
0
171
3
172
1
173
0
174
0
175
0
176
0
177
0
178
0
179
2
271
2
272
2
273
2
274
3
275
0
276
0
277
2
278
44
279
0
280
0
281
0
282
0
283
0
284
8
285
0
286
0
288
0
289
3
290
0
371
-2
372
-2
  0
ENDTAB
  0
TABLE
  2
BLOCK_RECORD
  5
9
330
0
100
AcDbSymbolTable
 70
2
  0
BLOCK_RECORD
  5
17
330
9
100
AcDbSymbolTableRecord
100
AcDbBlockTableRecord
  2
*Model_Space
340
1A
 70
0
280
1
281
0
  0
BLOCK_RECORD
  5
1B
330
9
100
AcDbSymbolTableRecord
100
AcDbBlockTableRecord
  2
*Paper_Space
340
1E
 70
0
280
1
281
0
  0
ENDTAB
  0
ENDSEC
  0
SECTION
  2
BLOCKS
  0
BLOCK
  5
18
330
17
100
AcDbEntity
  8
0
100
AcDbBlockBegin
  2
*Model_Space
 70
0
 10
0.0
 20
0.0
 30
0.0
  3
*Model_Space
  1

  0
ENDBLK
  5
19
330
17
100
AcDbEntity
  8
0
100
AcDbBlockEnd
  0
BLOCK
  5
1C
330
1B
100
AcDbEntity
  8
0
100
AcDbBlockBegin
  2
*Paper_Space
 70
0
 10
0.0
 20
0.0
 30
0.0
  3
*Paper_Space
  1

  0
ENDBLK
  5
1D
330
1B
100
AcDbEntity
  8
0
100
AcDbBlockEnd
  0
ENDSEC
  0
SECTION
  2
ENTITIES
  0
LWPOLYLINE
  5
2F
330
17
100
AcDbEntity
  8
0
 62
0
100
AcDbPolyline
 90
5
 70
0
 10
11.3825
 20
8.3552
 10
11.729
 20
8.3552
 10
11.729
 20
8.0
 10
11.3825
 20
8.0
 10
11.3825
 20
8.3552
  0
LWPOLYLINE
  5
30
330
17
100
AcDbEntity
  8
0
 62
0
100
AcDbPolyline
 90
43
 70
0
 10
10.99480625
 20
8.8565609375
 10
10.967656250000001
 20
8.6399984375
 10
10.91335625
 20
8.4521234375
 10
10.831906250000001
 20
8.2929359375
 10
10.781
 20
8.2241
 10
10.7241921875
 20
8.162928125
 10
10.595529687500001
 20
8.065053125
 10
10.4468046875
 20
7.999803125
 10
10.2780171875
 20
7.967178125
 10
10.1861
 20
7.9631
 10
10.094075
 20
7.9671921875
 10
9.924875
 20
7.9999296875
 10
9.775475
 20
8.0654046875
 10
9.645875
 20
8.1636171875
 10
9.5885
 20
8.225
 10
9.5369609375
 20
8.29401875
 10
9.4544984375
 20
8.45331875
 10
9.399523437500001
 20
8.64096875
 10
9.3720359375
 20
8.85696875
 10
9.3686
 20
8.9756
 10
9.3686
 20
9.5819
 10
9.372021875
 20
9.7005453125
 10
9.399396875
 20
9.9166578125
 10
9.454146875
 20
10.1045328125
 10
9.536271875
 20
10.2641703125
 10
9.5876
 20
10.333400000000001
 10
9.6447359375
 20
10.39499375
 10
9.773773437500001
 20
10.49354375
 10
9.9224984375
 20
10.55924375
 10
10.0909109375
 20
10.59209375
 10
10.182500000000001
 20
10.5962
 10
10.2745109375
 20
10.59209375
 10
10.4435984375
 20
10.55924375
 10
10.5927734375
 20
10.49354375
 10
10.7220359375
 20
10.39499375
 10
10.7792
 20
10.333400000000001
 10
10.830528125
 20
10.2641703125
 10
10.912653125
 20
10.1045328125
 10
10.967403125
 20
9.9166578125
 10
10.994778125
 20
9.7005453125
 10
10.9982
 20
9.5819
 10
10.9982
 20
8.9756
 10
10.99480625
 20
8.8565609375
  0
LWPOLYLINE
  5
31
330
17
100
AcDbEntity
  8
0
 62
0
100
AcDbPolyline
 90
43
 70
0
 10
10.649820312500001
 20
9.7364609375
 10
10.6347828125
 20
9.8819984375
 10
10.604707812500001
 20
10.0070234375
 10
10.5595953125
 20
10.111535937500001
 10
10.5314
 20
10.1561
 10
10.4996328125
 20
10.1954046875
 10
10.4259453125
 20
10.2582921875
 10
10.3387203125
 20
10.3002171875
 10
10.2379578125
 20
10.321179687499999
 10
10.182500000000001
 20
10.3238
 10
10.127056249999999
 20
10.321179687499999
 10
10.02640625
 20
10.3002171875
 10
9.939406250000001
 20
10.2582921875
 10
9.86605625
 20
10.1954046875
 10
9.8345
 20
10.1561
 10
9.8064453125
 20
10.111535937500001
 10
9.7615578125
 20
10.0070234375
 10
9.731632812500001
 20
9.8819984375
 10
9.7166703125
 20
9.7364609375
 10
9.7148
 20
9.656
 10
9.7148
 20
8.9054
 10
9.7166984375
 20
8.8248453125
 10
9.7318859375
 20
8.6790078125
 10
9.7622609375
 20
8.5535328125
 10
9.8078234375
 20
8.4484203125
 10
9.8363
 20
8.4035
 10
9.868278125
 20
8.363703125
 10
9.942303125
 20
8.300028125
 10
10.029753125
 20
8.257578125
 10
10.130628125
 20
8.236353125
 10
10.1861
 20
8.2337
 10
10.2414640625
 20
8.2363390625
 10
10.3419265625
 20
8.2574515625
 10
10.428701562499999
 20
8.2996765625
 10
10.5017890625
 20
8.3630140625
 10
10.5332
 20
8.4026
 10
10.5609734375
 20
8.4473375
 10
10.6054109375
 20
8.5523375
 10
10.6350359375
 20
8.6780375
 10
10.649848437500001
 20
8.8244375
 10
10.6517
 20
8.9054
 10
10.6517
 20
9.656
 10
10.649820312500001
 20
9.7364609375
  0
LWPOLYLINE
  5
32
330
17
100
AcDbEntity
  8
0
 62
0
100
AcDbPolyline
 90
72
 70
0
 10
13.5215
 20
9.8915
 10
13.514468749999999
 20
9.79443125
 10
13.4775546875
 20
9.660570312499999
 10
13.435367187499999
 20
9.5791578125
 10
13.408999999999999
 20
9.5408
 10
13.3478
 20
9.47043125
 10
13.195699999999999
 20
9.35838125
 10
13.104800000000001
 20
9.3167
 10
13.21008125
 20
9.27250625
 10
13.3471203125
 20
9.1856140625
 10
13.4245578125
 20
9.1139515625
 10
13.4591
 20
9.074
 10
13.490178125
 20
9.0318828125
 10
13.539903125
 20
8.9428953125
 10
13.573053125
 20
8.8475703125
 10
13.589628125
 20
8.7459078125
 10
13.5917
 20
8.6927
 10
13.588090625
 20
8.606525
 10
13.559215625
 20
8.449925
 10
13.501465625
 20
8.314325
 10
13.414840625
 20
8.199725
 10
13.3607
 20
8.1503
 10
13.3007234375
 20
8.106425
 10
13.1678609375
 20
8.036225
 10
13.017785937500001
 20
7.989425
 10
12.8504984375
 20
7.966025
 10
12.7604
 20
7.9631
 10
12.6686421875
 20
7.966025
 10
12.4988796875
 20
7.989425
 10
12.3474546875
 20
8.036225
 10
12.214367187499999
 20
8.106425
 10
12.1547
 20
8.1503
 10
12.10098125
 20
8.199725
 10
12.01503125
 20
8.314325
 10
11.95773125
 20
8.449925
 10
11.92908125
 20
8.606525
 10
11.9255
 20
8.6927
 10
11.9275296875
 20
8.7459078125
 10
11.9437671875
 20
8.8475703125
 10
11.976242187499999
 20
8.9428953125
 10
12.0249546875
 20
9.0318828125
 10
12.055399999999999
 20
9.074
 10
12.089375
 20
9.1139515625
 10
12.165875
 20
9.1856140625
 10
12.302
 20
9.27250625
 10
12.407
 20
9.3167
 10
12.316324999999999
 20
9.35838125
 10
12.166025000000001
 20
9.47043125
 10
12.1064
 20
9.5408
 10
12.05875625
 20
9.61908125
 10
12.004306249999999
 20
9.79443125
 10
11.9975
 20
9.8915
 10
12.000753125
 20
9.9734703125
 10
12.026778125
 20
10.1229828125
 10
12.078828125000001
 20
10.2532578125
 10
12.156903125
 20
10.3642953125
 10
12.2057
 20
10.4126
 10
12.2599203125
 20
10.45563125
 10
12.3809328125
 20
10.52448125
 10
12.5187078125
 20
10.57038125
 10
12.6732453125
 20
10.59333125
 10
12.7568
 20
10.5962
 10
12.839239062499999
 20
10.59333125
 10
12.9925015625
 20
10.57038125
 10
13.1302765625
 20
10.52448125
 10
13.2525640625
 20
10.45563125
 10
13.3079
 20
10.4126
 10
13.3579625
 20
10.3642953125
 10
13.438062500000001
 20
10.2532578125
 10
13.4914625
 20
10.1229828125
 10
13.518162499999999
 20
9.9734703125
 10
13.5215
 20
9.8915
  0
LWPOLYLINE
  5
33
330
17
100
AcDbEntity
  8
0
 62
0
100
AcDbPolyline
 90
41
 70
0
 10
13.2473
 20
8.6996
 10
13.2451296875
 20
8.75114375
 10
13.2277671875
 20
8.84714375
 10
13.1930421875
 20
8.93369375
 10
13.140954687499999
 20
9.01079375
 10
13.1084
 20
9.0458
 10
13.072521875
 20
9.07758125
 10
12.993846875
 20
9.12843125
 10
12.905946875
 20
9.16233125
 10
12.808821875
 20
9.17928125
 10
12.7568
 20
9.1814
 10
12.7040046875
 20
9.17928125
 10
12.6060921875
 20
9.16233125
 10
12.518417187499999
 20
9.12843125
 10
12.4409796875
 20
9.07758125
 10
12.4061
 20
9.0458
 10
12.374600000000001
 20
9.01079375
 10
12.324200000000001
 20
8.93369375
 10
12.290600000000001
 20
8.84714375
 10
12.273800000000001
 20
8.75114375
 10
12.2717
 20
8.6996
 10
12.2737859375
 20
8.646546875
 10
12.290473437500001
 20
8.549271875
 10
12.3238484375
 20
8.463771875
 10
12.3739109375
 20
8.390046875
 10
12.4052
 20
8.3576
 10
12.44001875
 20
8.3285609375
 10
12.51786875
 20
8.2820984375
 10
12.60666875
 20
8.2511234375
 10
12.706418750000001
 20
8.2356359375
 10
12.7604
 20
8.2337
 10
12.813209375
 20
8.23565
 10
12.911234375
 20
8.25125
 10
12.999134375
 20
8.28245
 10
13.076909375
 20
8.32925
 10
13.112
 20
8.3585
 10
13.1437109375
 20
8.3911296875
 10
13.1944484375
 20
8.4649671875
 10
13.2282734375
 20
8.5502421875
 10
13.2451859375
 20
8.6469546875
 10
13.2473
 20
8.6996
  0
LWPOLYLINE
  5
34
330
17
100
AcDbEntity
  8
0
 62
0
100
AcDbPolyline
 90
41
 70
0
 10
13.17344375
 20
9.9307578125
 10
13.15859375
 20
10.0175703125
 10
13.12889375
 20
10.096245312499999
 10
13.08434375
 20
10.1667828125
 10
13.0565
 20
10.199
 10
13.0258953125
 20
10.22825
 10
12.9588078125
 20
10.27505
 10
12.883882812500001
 20
10.30625
 10
12.8011203125
 20
10.321850000000001
 10
12.7568
 20
10.3238
 10
12.711771875
 20
10.3219203125
 10
12.628296875
 20
10.3068828125
 10
12.553596875
 20
10.2768078125
 10
12.487671875
 20
10.231695312500001
 10
12.458
 20
10.2035
 10
12.4312109375
 20
10.17213125
 10
12.3883484375
 20
10.10208125
 10
12.3597734375
 20
10.022281249999999
 10
12.345485937500001
 20
9.93273125
 10
12.3437
 20
9.8843
 10
12.345500000000001
 20
9.8367546875
 10
12.3599
 20
9.748892187500001
 10
12.3887
 20
9.6706671875
 10
12.4319
 20
9.6020796875
 10
12.4589
 20
9.5714
 10
12.4888109375
 20
9.5438375
 10
12.5552984375
 20
9.4997375
 10
12.6306734375
 20
9.4703375
 10
12.714935937499998
 20
9.4556375
 10
12.7604
 20
9.4538
 10
12.805034375
 20
9.4556375
 10
12.888059375000001
 20
9.4703375
 10
12.962759375000001
 20
9.4997375
 10
13.029134375
 20
9.5438375
 10
13.0592
 20
9.5714
 10
13.0864109375
 20
9.6020796875
 10
13.1299484375
 20
9.6706671875
 10
13.1589734375
 20
9.748892187500001
 10
13.1734859375
 20
9.8367546875
 10
13.1753
 20
9.8843
 10
13.17344375
 20
9.9307578125
  0
LWPOLYLINE
  5
35
330
17
100
AcDbEntity
  8
0
 62
0
100
AcDbPolyline
 90
7
 70
0
 10
8.8508
 20
10.2218
 10
8.327
 20
10.2149
 10
8.327
 20
10.464500000000001
 10
9.197
 20
10.5593
 10
9.197
 20
8.0
 10
8.8508
 20
8.0
 10
8.8508
 20
10.2218
  0
LWPOLYLINE
  5
36
330
17
100
AcDbEntity
  8
0
 62
0
100
AcDbPolyline
 90
5
 70
0
 10
11.3825
 20
34.7552
 10
11.729
 20
34.7552
 10
11.729
 20
34.4
 10
11.3825
 20
34.4
 10
11.3825
 20
34.7552
  0
LWPOLYLINE
  5
37
330
17
100
AcDbEntity
  8
0
 62
0
100
AcDbPolyline
 90
43
 70
0
 10
10.99480625
 20
35.2565609375
 10
10.967656250000001
 20
35.039998437499996
 10
10.91335625
 20
34.8521234375
 10
10.831906250000001
 20
34.692935937499996
 10
10.781
 20
34.6241
 10
10.7241921875
 20
34.562928125
 10
10.595529687500001
 20
34.465053125
 10
10.4468046875
 20
34.399803125
 10
10.2780171875
 20
34.367178124999995
 10
10.1861
 20
34.363099999999996
 10
10.094075
 20
34.367192187499995
 10
9.924875
 20
34.3999296875
 10
9.775475
 20
34.4654046875
 10
9.645875
 20
34.5636171875
 10
9.5885
 20
34.625
 10
9.5369609375
 20
34.69401875
 10
9.4544984375
 20
34.85331875
 10
9.399523437500001
 20
35.04096875
 10
9.3720359375
 20
35.25696875
 10
9.3686
 20
35.3756
 10
9.3686
 20
35.981899999999996
 10
9.372021875
 20
36.100545312499996
 10
9.399396875
 20
36.3166578125
 10
9.454146875
 20
36.504532812499995
 10
9.536271875
 20
36.6641703125
 10
9.5876
 20
36.733399999999996
 10
9.6447359375
 20
36.794993749999996
 10
9.773773437500001
 20
36.89354375
 10
9.9224984375
 20
36.95924375
 10
10.0909109375
 20
36.992093749999995
 10
10.182500000000001
 20
36.9962
 10
10.2745109375
 20
36.992093749999995
 10
10.4435984375
 20
36.95924375
 10
10.5927734375
 20
36.89354375
 10
10.7220359375
 20
36.794993749999996
 10
10.7792
 20
36.733399999999996
 10
10.830528125
 20
36.6641703125
 10
10.912653125
 20
36.504532812499995
 10
10.967403125
 20
36.3166578125
 10
10.994778125
 20
36.100545312499996
 10
10.9982
 20
35.981899999999996
 10
10.9982
 20
35.3756
 10
10.99480625
 20
35.2565609375
  0
LWPOLYLINE
  5
38
330
17
100
AcDbEntity
  8
0
 62
0
100
AcDbPolyline
 90
43
 70
0
 10
10.649820312500001
 20
36.1364609375
 10
10.6347828125
 20
36.2819984375
 10
10.604707812500001
 20
36.4070234375
 10
10.5595953125
 20
36.5115359375
 10
10.5314
 20
36.5561
 10
10.4996328125
 20
36.5954046875
 10
10.4259453125
 20
36.658292187499995
 10
10.3387203125
 20
36.7002171875
 10
10.2379578125
 20
36.7211796875
 10
10.182500000000001
 20
36.7238
 10
10.127056249999999
 20
36.7211796875
 10
10.02640625
 20
36.7002171875
 10
9.939406250000001
 20
36.658292187499995
 10
9.86605625
 20
36.5954046875
 10
9.8345
 20
36.5561
 10
9.8064453125
 20
36.5115359375
 10
9.7615578125
 20
36.4070234375
 10
9.731632812500001
 20
36.2819984375
 10
9.7166703125
 20
36.1364609375
 10
9.7148
 20
36.056
 10
9.7148
 20
35.3054
 10
9.7166984375
 20
35.2248453125
 10
9.7318859375
 20
35.079007812499995
 10
9.7622609375
 20
34.9535328125
 10
9.8078234375
 20
34.8484203125
 10
9.8363
 20
34.8035
 10
9.868278125
 20
34.763703125
 10
9.942303125
 20
34.700028124999996
 10
10.029753125
 20
34.657578125
 10
10.130628125
 20
34.636353125
 10
10.1861
 20
34.6337
 10
10.2414640625
 20
34.6363390625
 10
10.3419265625
 20
34.6574515625
 10
10.428701562499999
 20
34.699676562499995
 10
10.5017890625
 20
34.7630140625
 10
10.5332
 20
34.8026
 10
10.5609734375
 20
34.8473375
 10
10.6054109375
 20
34.9523375
 10
10.6350359375
 20
35.0780375
 10
10.649848437500001
 20
35.2244375
 10
10.6517
 20
35.3054
 10
10.6517
 20
36.056
 10
10.649820312500001
 20
36.1364609375
  0
LWPOLYLINE
  5
39
330
17
100
AcDbEntity
  8
0
 62
0
100
AcDbPolyline
 90
70
 70
0
 10
12.7060203125
 20
34.636695312499995
 10
12.819982812500001
 20
34.6606578125
 10
12.9213078125
 20
34.7085828125
 10
13.0099953125
 20
34.7804703125
 10
13.0496
 20
34.8254
 10
13.085248437499999
 20
34.87623125
 10
13.1422859375
 20
34.99533125
 10
13.1803109375
 20
35.13768125
 10
13.199323437499999
 20
35.30328125
 10
13.2017
 20
35.3948
 10
13.2017
 20
35.5109
 10
13.1558375
 20
35.4522875
 10
13.0481375
 20
35.3577875
 10
12.9863
 20
35.3219
 10
12.91985
 20
35.2938125
 10
12.776150000000001
 20
35.2617125
 10
12.6989
 20
35.2577
 10
12.6085203125
 20
35.2612859375
 10
12.4421328125
 20
35.289973437499995
 10
12.2949078125
 20
35.347348437499996
 10
12.166845312500001
 20
35.4334109375
 10
12.11
 20
35.4872
 10
12.0588828125
 20
35.547275
 10
11.977095312500001
 20
35.683625
 10
11.9225703125
 20
35.841575
 10
11.8953078125
 20
36.021125
 10
11.8919
 20
36.119
 10
11.8955140625
 20
36.213125
 10
11.9244265625
 20
36.388325
 10
11.9822515625
 20
36.546124999999996
 10
12.0689890625
 20
36.686524999999996
 10
12.1232
 20
36.7502
 10
12.18250625
 20
36.80785625
 10
12.31045625
 20
36.90010625
 10
12.450856250000001
 20
36.961606249999996
 10
12.60370625
 20
36.99235625
 10
12.6848
 20
36.9962
 10
12.782346875
 20
36.9922859375
 10
12.961521874999999
 20
36.9609734375
 10
13.119471875
 20
36.8983484375
 10
13.256196875
 20
36.804410937499995
 10
13.3166
 20
36.7457
 10
13.3708109375
 20
36.67938125
 10
13.4575484375
 20
36.52458125
 10
13.5153734375
 20
36.340231249999995
 10
13.5442859375
 20
36.12633125
 10
13.5479
 20
36.0083
 10
13.5479
 20
35.398399999999995
 10
13.5439859375
 20
35.27680625
 10
13.5126734375
 20
35.055556249999995
 10
13.4500484375
 20
34.86355625
 10
13.3561109375
 20
34.70080625
 10
13.2974
 20
34.6304
 10
13.2323984375
 20
34.5677515625
 10
13.088135937499999
 20
34.4675140625
 10
12.9248609375
 20
34.4006890625
 10
12.7425734375
 20
34.367276562499995
 10
12.644300000000001
 20
34.363099999999996
 10
12.507875
 20
34.369475
 10
12.3692
 20
34.3886
 10
12.30111875
 20
34.40305625
 10
12.17586875
 20
34.44220625
 10
12.1187
 20
34.466899999999995
 10
12.1715
 20
34.732099999999996
 10
12.2238875
 20
34.706975
 10
12.331587500000001
 20
34.668875
 10
12.3869
 20
34.655899999999995
 10
12.50705
 20
34.63925
 10
12.644300000000001
 20
34.6337
 10
12.7060203125
 20
34.636695312499995
  0
LWPOLYLINE
  5
3A
330
17
100
AcDbEntity
  8
0
 62
0
100
AcDbPolyline
 90
38
 70
0
 10
12.79060625
 20
35.533756249999996
 10
12.95005625
 20
35.57500625
 10
13.0178
 20
35.6111
 10
13.07710625
 20
35.655218749999996
 10
13.16905625
 20
35.76066875
 10
13.2017
 20
35.821999999999996
 10
13.2017
 20
36.0437
 10
13.199679687500002
 20
36.1250703125
 10
13.1835171875
 20
36.2724828125
 10
13.1511921875
 20
36.399457812499996
 10
13.102704687500001
 20
36.5059953125
 10
13.0724
 20
36.5516
 10
13.038223437500001
 20
36.591959375
 10
12.9587609375
 20
36.656534375
 10
12.8644859375
 20
36.699584375
 10
12.7553984375
 20
36.721109375
 10
12.6953
 20
36.7238
 10
12.64870625
 20
36.7211515625
 10
12.56080625
 20
36.6999640625
 10
12.47995625
 20
36.6575890625
 10
12.406156249999999
 20
36.5940265625
 10
12.3719
 20
36.5543
 10
12.3406109375
 20
36.5103546875
 10
12.2905484375
 20
36.4134921875
 10
12.2571734375
 20
36.3046671875
 10
12.2404859375
 20
36.183879687499996
 10
12.238399999999999
 20
36.119
 10
12.2403359375
 20
36.0547109375
 10
12.2558234375
 20
35.9354984375
 10
12.2867984375
 20
35.8287734375
 10
12.3332609375
 20
35.7345359375
 10
12.3623
 20
35.692099999999996
 10
12.394662499999999
 20
35.6537796875
 10
12.467712500000001
 20
35.5924671875
 10
12.5518625
 20
35.5515921875
 10
12.647112499999999
 20
35.5311546875
 10
12.6989
 20
35.5286
 10
12.79060625
 20
35.533756249999996
  0
LWPOLYLINE
  5
3B
330
17
100
AcDbEntity
  8
0
 62
0
100
AcDbPolyline
 90
7
 70
0
 10
8.8508
 20
36.6218
 10
8.327
 20
36.6149
 10
8.327
 20
36.8645
 10
9.197
 20
36.9593
 10
9.197
 20
34.4
 10
8.8508
 20
34.4
 10
8.8508
 20
36.6218
  0
LWPOLYLINE
  5
3C
330
17
100
AcDbEntity
  8
0
 62
0
100
AcDbPolyline
 90
5
 70
0
 10
10.6229
 20
61.155199999999994
 10
10.9694
 20
61.155199999999994
 10
10.9694
 20
60.8
 10
10.6229
 20
60.8
 10
10.6229
 20
61.155199999999994
  0
LWPOLYLINE
  5
3D
330
17
100
AcDbEntity
  8
0
 62
0
100
AcDbPolyline
 90
43
 70
0
 10
12.81130625
 20
61.6565609375
 10
12.78415625
 20
61.439998437499995
 10
12.729856250000001
 20
61.252123437499996
 10
12.648406249999999
 20
61.092935937499995
 10
12.5975
 20
61.0241
 10
12.5406921875
 20
60.962928125
 10
12.412029687499999
 20
60.865053124999996
 10
12.2633046875
 20
60.799803125
 10
12.0945171875
 20
60.767178124999994
 10
12.0026
 20
60.763099999999994
 10
11.910575
 20
60.767192187499994
 10
11.741375
 20
60.7999296875
 10
11.591975
 20
60.865404687499996
 10
11.462375
 20
60.9636171875
 10
11.405
 20
61.025
 10
11.3534609375
 20
61.09401875
 10
11.2709984375
 20
61.25331875
 10
11.216023437499999
 20
61.440968749999996
 10
11.1885359375
 20
61.65696875
 10
11.185099999999998
 20
61.7756
 10
11.185099999999998
 20
62.381899999999995
 10
11.188521875
 20
62.500545312499995
 10
11.215896874999999
 20
62.716657812499996
 10
11.270646874999999
 20
62.904532812499994
 10
11.352771874999998
 20
63.064170312499996
 10
11.4041
 20
63.133399999999995
 10
11.4612359375
 20
63.194993749999995
 10
11.590273437499999
 20
63.29354375
 10
11.7389984375
 20
63.35924375
 10
11.9074109375
 20
63.392093749999994
 10
11.998999999999999
 20
63.39619999999999
 10
12.091010937499998
 20
63.392093749999994
 10
12.260098437499998
 20
63.35924375
 10
12.4092734375
 20
63.29354375
 10
12.5385359375
 20
63.194993749999995
 10
12.5957
 20
63.133399999999995
 10
12.647028124999999
 20
63.064170312499996
 10
12.729153125
 20
62.904532812499994
 10
12.783903125
 20
62.716657812499996
 10
12.811278125
 20
62.500545312499995
 10
12.814699999999998
 20
62.381899999999995
 10
12.814699999999998
 20
61.7756
 10
12.81130625
 20
61.6565609375
  0
LWPOLYLINE
  5
3E
330
17
100
AcDbEntity
  8
0
 62
0
100
AcDbPolyline
 90
43
 70
0
 10
12.466320312499999
 20
62.536460937499996
 10
12.4512828125
 20
62.6819984375
 10
12.4212078125
 20
62.8070234375
 10
12.376095312499999
 20
62.9115359375
 10
12.3479
 20
62.9561
 10
12.3161328125
 20
62.9954046875
 10
12.2424453125
 20
63.058292187499994
 10
12.1552203125
 20
63.1002171875
 10
12.054457812499999
 20
63.121179687499996
 10
11.998999999999999
 20
63.123799999999996
 10
11.943556249999999
 20
63.121179687499996
 10
11.842906249999999
 20
63.1002171875
 10
11.755906249999999
 20
63.058292187499994
 10
11.68255625
 20
62.9954046875
 10
11.651
 20
62.9561
 10
11.622945312499999
 20
62.9115359375
 10
11.578057812499999
 20
62.8070234375
 10
11.548132812499999
 20
62.6819984375
 10
11.5331703125
 20
62.536460937499996
 10
11.5313
 20
62.455999999999996
 10
11.5313
 20
61.7054
 10
11.5331984375
 20
61.6248453125
 10
11.548385937499999
 20
61.479007812499994
 10
11.5787609375
 20
61.3535328125
 10
11.6243234375
 20
61.248420312499995
 10
11.6528
 20
61.2035
 10
11.684778125
 20
61.163703125
 10
11.758803125
 20
61.100028124999994
 10
11.846253124999999
 20
61.057578125
 10
11.947128124999999
 20
61.036353125
 10
12.0026
 20
61.033699999999996
 10
12.057964062499998
 20
61.0363390625
 10
12.158426562499999
 20
61.0574515625
 10
12.2452015625
 20
61.099676562499994
 10
12.3182890625
 20
61.1630140625
 10
12.349699999999999
 20
61.2026
 10
12.377473437499999
 20
61.2473375
 10
12.4219109375
 20
61.3523375
 10
12.4515359375
 20
61.4780375
 10
12.466348437499999
 20
61.6244375
 10
12.4682
 20
61.7054
 10
12.4682
 20
62.455999999999996
 10
12.466320312499999
 20
62.536460937499996
  0
LWPOLYLINE
  5
3F
330
17
100
AcDbEntity
  8
0
 62
0
100
AcDbPolyline
 90
7
 70
0
 10
8.8508
 20
63.0218
 10
8.327
 20
63.0149
 10
8.327
 20
63.2645
 10
9.197
 20
63.3593
 10
9.197
 20
60.8
 10
8.8508
 20
60.8
 10
8.8508
 20
63.0218
  0
LWPOLYLINE
  5
40
330
17
100
AcDbEntity
  8
0
 62
0
100
AcDbPolyline
 90
7
 70
0
 10
10.020800000000001
 20
63.0218
 10
9.497
 20
63.0149
 10
9.497
 20
63.2645
 10
10.367
 20
63.3593
 10
10.367
 20
60.8
 10
10.020800000000001
 20
60.8
 10
10.020800000000001
 20
63.0218
  0
LWPOLYLINE
  5
41
330
17
100
AcDbEntity
  8
0
 62
0
100
AcDbPolyline
 90
5
 70
0
 10
10.6229
 20
87.55519999999999
 10
10.9694
 20
87.55519999999999
 10
10.9694
 20
87.19999999999999
 10
10.6229
 20
87.19999999999999
 10
10.6229
 20
87.55519999999999
  0
LWPOLYLINE
  5
42
330
17
100
AcDbEntity
  8
0
 62
0
100
AcDbPolyline
 90
7
 70
0
 10
8.8508
 20
89.42179999999999
 10
8.327
 20
89.41489999999999
 10
8.327
 20
89.66449999999999
 10
9.197
 20
89.75929999999998
 10
9.197
 20
87.19999999999999
 10
8.8508
 20
87.19999999999999
 10
8.8508
 20
89.42179999999999
  0
LWPOLYLINE
  5
43
330
17
100
AcDbEntity
  8
0
 62
0
100
AcDbPolyline
 90
7
 70
0
 10
10.020800000000001
 20
89.42179999999999
 10
9.497
 20
89.41489999999999
 10
9.497
 20
89.66449999999999
 10
10.367
 20
89.75929999999998
 10
10.367
 20
87.19999999999999
 10
10.020800000000001
 20
87.19999999999999
 10
10.020800000000001
 20
89.42179999999999
  0
LWPOLYLINE
  5
44
330
17
100
AcDbEntity
  8
0
 62
0
100
AcDbPolyline
 90
7
 70
0
 10
11.837299999999999
 20
89.42179999999999
 10
11.3135
 20
89.41489999999999
 10
11.3135
 20
89.66449999999999
 10
12.183499999999999
 20
89.75929999999998
 10
12.183499999999999
 20
87.19999999999999
 10
11.837299999999999
 20
87.19999999999999
 10
11.837299999999999
 20
89.42179999999999
  0
LWPOLYLINE
  5
45
330
17
100
AcDbEntity
  8
0
 62
0
100
AcDbPolyline
 90
5
 70
0
 10
10.6229
 20
113.95519999999999
 10
10.9694
 20
113.95519999999999
 10
10.9694
 20
113.6
 10
10.6229
 20
113.6
 10
10.6229
 20
113.95519999999999
  0
LWPOLYLINE
  5
46
330
17
100
AcDbEntity
  8
0
 62
0
100
AcDbPolyline
 90
7
 70
0
 10
8.8508
 20
115.8218
 10
8.327
 20
115.8149
 10
8.327
 20
116.0645
 10
9.197
 20
116.15929999999999
 10
9.197
 20
113.6
 10
8.8508
 20
113.6
 10
8.8508
 20
115.8218
  0
LWPOLYLINE
  5
47
330
17
100
AcDbEntity
  8
0
 62
0
100
AcDbPolyline
 90
7
 70
0
 10
10.020800000000001
 20
115.8218
 10
9.497
 20
115.8149
 10
9.497
 20
116.0645
 10
10.367
 20
116.15929999999999
 10
10.367
 20
113.6
 10
10.020800000000001
 20
113.6
 10
10.020800000000001
 20
115.8218
  0
LWPOLYLINE
  5
48
330
17
100
AcDbEntity
  8
0
 62
0
100
AcDbPolyline
 90
63
 70
0
 10
11.1938
 20
113.8373
 10
12.0323
 20
114.7688
 10
12.13574375
 20
114.88803125
 10
12.28829375
 20
115.08768124999999
 10
12.337399999999999
 20
115.1681
 10
12.372443749999999
 20
115.24233124999999
 10
12.41249375
 20
115.39338124999999
 10
12.417499999999999
 20
115.47019999999999
 10
12.415751562499999
 20
115.517178125
 10
12.4017640625
 20
115.605453125
 10
12.373789062499998
 20
115.68615312499999
 10
12.3318265625
 20
115.759278125
 10
12.305599999999998
 20
115.79299999999999
 10
12.2765609375
 20
115.82365625
 10
12.2116484375
 20
115.87270625
 10
12.1376234375
 20
115.90540625
 10
12.0544859375
 20
115.92175624999999
 10
12.0095
 20
115.9238
 10
11.945309375
 20
115.921671875
 10
11.830034375
 20
115.904646875
 10
11.732234374999999
 20
115.87059687499999
 10
11.651909374999999
 20
115.81952187499999
 10
11.6183
 20
115.7876
 10
11.588909375
 20
115.75183437499999
 10
11.541884374999999
 20
115.67000937499999
 10
11.510534374999999
 20
115.57445937499999
 10
11.494859374999999
 20
115.46518437499999
 10
11.492899999999999
 20
115.4054
 10
11.160499999999999
 20
115.4054
 10
11.1569
 20
115.4159
 10
11.1584328125
 20
115.4968296875
 10
11.1837453125
 20
115.6488171875
 10
11.2387203125
 20
115.7876421875
 10
11.3233578125
 20
115.91330468749999
 10
11.3768
 20
115.9712
 10
11.436626562499999
 20
116.023934375
 10
11.5727890625
 20
116.10830937499999
 10
11.7309640625
 20
116.164559375
 10
11.911151562499999
 20
116.192684375
 10
12.0095
 20
116.19619999999999
 10
12.093485937499999
 20
116.1930546875
 10
12.248323437499998
 20
116.16789218749999
 10
12.385648437499999
 20
116.1175671875
 10
12.505460937499999
 20
116.04207968749999
 10
12.558799999999998
 20
115.9949
 10
12.6068234375
 20
115.942859375
 10
12.683660937500001
 20
115.82848437499999
 10
12.7348859375
 20
115.700384375
 10
12.7604984375
 20
115.55855937499999
 10
12.7637
 20
115.48249999999999
 10
12.7617640625
 20
115.4302109375
 10
12.7462765625
 20
115.32554843749999
 10
12.69400625
 20
115.16834374999999
 10
12.6398
 20
115.0634
 10
12.57164375
 20
114.95646875
 10
12.39809375
 20
114.73101874999999
 10
12.2927
 20
114.6125
 10
11.6192
 20
113.8796
 10
11.6228
 20
113.8706
 10
12.853399999999999
 20
113.8706
 10
12.853399999999999
 20
113.6
 10
11.1938
 20
113.6
 10
11.1938
 20
113.8373
  0
LWPOLYLINE
  5
49
330
17
100
AcDbEntity
  8
0
 62
1
100
AcDbPolyline
 90
67
 70
0
 10
-14.28712448244335
 20
139.63662713658115
 10
-13.469807719301235
 20
141.00023777491757
 10
-12.52276934447634
 20
142.27717120345105
 10
-11.455129855222069
 20
143.45512985522208
 10
-10.277171203451054
 20
144.52276934447633
 10
-9.00023777491755
 20
145.46980771930123
 10
-7.636627136581162
 20
146.28712448244335
 10
-6.1994716043144535
 20
146.96684842668284
 10
-4.702611771522287
 20
147.50243343886177
 10
-3.1604632166612765
 20
147.88872154253232
 10
-1.5878776733388824
 20
148.1219925720896
 10
9.919639073093561e-16
 20
148.2
 10
1.5878776733388844
 20
148.1219925720896
 10
3.1604632166612787
 20
147.88872154253232
 10
4.70261177152229
 20
147.50243343886177
 10
6.199471604314455
 20
146.96684842668284
 10
7.636627136581164
 20
146.28712448244335
 10
9.000237774917553
 20
145.46980771930123
 10
10.277171203451056
 20
144.52276934447633
 10
11.45512985522207
 20
143.45512985522208
 10
12.52276934447634
 20
142.27717120345105
 10
13.469807719301235
 20
141.00023777491757
 10
14.28712448244335
 20
139.63662713658115
 10
14.966848426682844
 20
138.19947160431445
 10
15.502433438861784
 20
136.7026117715223
 10
15.888721542532332
 20
135.16046321666127
 10
16.12199257208959
 20
133.58787767333888
 10
16.2
 20
132.0
 10
16.2
 20
0.0
 10
16.12199257208959
 20
-1.5878776733388817
 10
15.888721542532332
 20
-3.1604632166612774
 10
15.502433438861782
 20
-4.70261177152229
 10
14.966848426682844
 20
-6.199471604314454
 10
14.287124482443351
 20
-7.636627136581161
 10
13.469807719301233
 20
-9.000237774917554
 10
12.52276934447634
 20
-10.277171203451056
 10
11.45512985522207
 20
-11.455129855222069
 10
10.277171203451056
 20
-12.52276934447634
 10
9.000237774917556
 20
-13.469807719301233
 10
7.636627136581164
 20
-14.28712448244335
 10
6.199471604314455
 20
-14.966848426682844
 10
4.70261177152229
 20
-15.502433438861782
 10
3.1604632166612787
 20
-15.888721542532332
 10
1.5878776733388844
 20
-16.12199257208959
 10
9.919639073093561e-16
 20
-16.2
 10
-1.5878776733388824
 20
-16.12199257208959
 10
-3.1604632166612765
 20
-15.888721542532332
 10
-4.702611771522287
 20
-15.502433438861784
 10
-6.1994716043144535
 20
-14.966848426682844
 10
-7.636627136581162
 20
-14.287124482443351
 10
-9.00023777491755
 20
-13.469807719301235
 10
-10.277171203451054
 20
-12.522769344476341
 10
-11.455129855222069
 20
-11.45512985522207
 10
-12.52276934447634
 20
-10.277171203451056
 10
-13.469807719301235
 20
-9.000237774917554
 10
-14.28712448244335
 20
-7.636627136581165
 10
-14.966848426682844
 20
-6.199471604314456
 10
-15.502433438861782
 20
-4.702611771522291
 10
-15.888721542532332
 20
-3.160463216661283
 10
-16.12199257208959
 20
-1.5878776733388853
 10
-16.2
 20
0.0
 10
-16.2
 20
132.0
 10
-16.12199257208959
 20
133.58787767333888
 10
-15.888721542532332
 20
135.16046321666127
 10
-15.502433438861782
 20
136.7026117715223
 10
-14.966848426682844
 20
138.19947160431445
 10
-14.28712448244335
 20
139.63662713658115
  0
LWPOLYLINE
  5
4A
330
17
100
AcDbEntity
  8
0
 62
1
100
AcDbPolyline
 90
65
 70
0
 10
9.524749654962232
 20
5.091084757720778
 10
8.97987181286749
 20
6.0001585166117035
 10
8.348512896317557
 20
6.851447468967376
 10
7.6367532368147115
 20
7.636753236814715
 10
6.851447468967373
 20
8.348512896317558
 10
6.0001585166117
 20
8.979871812867492
 10
5.0910847577207745
 20
9.524749654962235
 10
4.132981069542972
 20
9.977898951121896
 10
3.13507451434819
 20
10.334955625907858
 10
2.106975477774186
 20
10.59248102835489
 10
1.058585115559249
 20
10.747995048059728
 10
-1.9839278146187122e-15
 20
10.8
 10
-1.058585115559253
 20
10.747995048059728
 10
-2.10697547777419
 20
10.592481028354888
 10
-3.1350745143481946
 20
10.334955625907856
 10
-4.132981069542976
 20
9.977898951121896
 10
-5.091084757720778
 20
9.524749654962234
 10
-6.0001585166117035
 20
8.97987181286749
 10
-6.851447468967375
 20
8.348512896317557
 10
-7.636753236814715
 20
7.636753236814713
 10
-8.348512896317562
 20
6.851447468967369
 10
-8.979871812867492
 20
6.000158516611702
 10
-9.524749654962235
 20
5.0910847577207745
 10
-9.9778989511219
 20
4.132981069542969
 10
-10.334955625907858
 20
3.135074514348191
 10
-10.59248102835489
 20
2.1069754777741863
 10
-10.747995048059728
 20
1.0585851155592545
 10
-10.8
 20
-1.3226185430791415e-15
 10
-10.747995048059726
 20
-1.058585115559257
 10
-10.59248102835489
 20
-2.106975477774189
 10
-10.334955625907856
 20
-3.135074514348194
 10
-9.977898951121897
 20
-4.132981069542971
 10
-9.524749654962234
 20
-5.091084757720777
 10
-8.97987181286749
 20
-6.0001585166117035
 10
-8.34851289631756
 20
-6.851447468967372
 10
-7.636753236814713
 20
-7.636753236814714
 10
-6.85144746896737
 20
-8.348512896317562
 10
-6.000158516611702
 20
-8.97987181286749
 10
-5.091084757720775
 20
-9.524749654962235
 10
-4.13298106954297
 20
-9.977898951121897
 10
-3.1350745143481915
 20
-10.334955625907858
 10
-2.1069754777741845
 20
-10.59248102835489
 10
-1.058585115559255
 20
-10.747995048059728
 10
6.613092715395707e-16
 20
-10.8
 10
1.0585851155592565
 20
-10.747995048059726
 10
2.1069754777741863
 20
-10.59248102835489
 10
3.1350745143481933
 20
-10.334955625907856
 10
4.1329810695429705
 20
-9.977898951121897
 10
5.091084757720776
 20
-9.524749654962234
 10
6.000158516611705
 20
-8.97987181286749
 10
6.851447468967372
 20
-8.34851289631756
 10
7.636753236814714
 20
-7.636753236814713
 10
8.34851289631756
 20
-6.851447468967372
 10
8.97987181286749
 20
-6.0001585166117035
 10
9.524749654962235
 20
-5.0910847577207745
 10
9.977898951121897
 20
-4.13298106954297
 10
10.334955625907856
 20
-3.1350745143481933
 10
10.59248102835489
 20
-2.1069754777741854
 10
10.747995048059728
 20
-1.0585851155592545
 10
10.8
 20
0.0
 10
10.747995048059728
 20
1.0585851155592536
 10
10.592481028354888
 20
2.1069754777741903
 10
10.334955625907856
 20
3.135074514348195
 10
9.977898951121896
 20
4.132981069542977
 10
9.524749654962232
 20
5.091084757720778
  0
LWPOLYLINE
  5
4B
330
17
100
AcDbEntity
  8
0
 62
1
100
AcDbPolyline
 90
65
 70
0
 10
10.070286904373024
 20
30.571249412779483
 10
9.612941781397067
 20
31.53822443140338
 10
9.063018774097744
 20
32.45571553991366
 10
8.42581394165383
 20
33.314886797383735
 10
7.707463914933366
 20
34.10746391493337
 10
6.914886797383737
 20
34.825813941653834
 10
6.055715539913661
 20
35.46301877409775
 10
5.138224431403374
 20
36.01294178139707
 10
4.171249412779481
 20
36.470286904373026
 10
3.1641029820736364
 20
36.830649659481075
 10
2.1264845099757985
 20
37.090559556395206
 10
1.068386829592205
 20
37.24751352072695
 10
-2.0022975166059223e-15
 20
37.3
 10
-1.068386829592209
 20
37.24751352072695
 10
-2.1264845099758025
 20
37.090559556395206
 10
-3.164102982073641
 20
36.830649659481075
 10
-4.171249412779485
 20
36.470286904373026
 10
-5.138224431403377
 20
36.01294178139707
 10
-6.055715539913664
 20
35.46301877409774
 10
-6.91488679738374
 20
34.82581394165383
 10
-7.70746391493337
 20
34.10746391493337
 10
-8.425813941653836
 20
33.314886797383735
 10
-9.063018774097745
 20
32.45571553991366
 10
-9.61294178139707
 20
31.53822443140337
 10
-10.070286904373027
 20
30.571249412779476
 10
-10.430649659481078
 20
29.564102982073635
 10
-10.690559556395211
 20
28.5264845099758
 10
-10.847513520726947
 20
27.46838682959221
 10
-10.9
 20
26.4
 10
-10.847513520726945
 20
25.331613170407785
 10
-10.690559556395211
 20
24.273515490024195
 10
-10.430649659481077
 20
23.23589701792636
 10
-10.070286904373026
 20
22.228750587220517
 10
-9.612941781397069
 20
21.261775568596622
 10
-9.063018774097744
 20
20.344284460086335
 10
-8.425813941653834
 20
19.48511320261626
 10
-7.707463914933368
 20
18.692536085066628
 10
-6.914886797383735
 20
17.974186058346163
 10
-6.0557155399136615
 20
17.336981225902257
 10
-5.138224431403375
 20
16.78705821860293
 10
-4.171249412779479
 20
16.32971309562697
 10
-3.1641029820736377
 20
15.96935034051892
 10
-2.126484509975797
 20
15.709440443604787
 10
-1.068386829592211
 20
15.552486479273052
 10
6.674325055353075e-16
 20
15.499999999999998
 10
1.0683868295922125
 20
15.552486479273053
 10
2.126484509975799
 20
15.709440443604787
 10
3.1641029820736395
 20
15.969350340518922
 10
4.1712494127794795
 20
16.32971309562697
 10
5.138224431403376
 20
16.78705821860293
 10
6.055715539913665
 20
17.336981225902257
 10
6.914886797383736
 20
17.974186058346163
 10
7.707463914933369
 20
18.69253608506663
 10
8.425813941653834
 20
19.48511320261626
 10
9.063018774097744
 20
20.344284460086335
 10
9.61294178139707
 20
21.261775568596626
 10
10.070286904373026
 20
22.22875058722052
 10
10.430649659481077
 20
23.23589701792636
 10
10.690559556395211
 20
24.273515490024202
 10
10.847513520726947
 20
25.33161317040779
 10
10.9
 20
26.4
 10
10.847513520726947
 20
27.46838682959221
 10
10.690559556395211
 20
28.526484509975802
 10
10.430649659481077
 20
29.56410298207364
 10
10.070286904373024
 20
30.571249412779483
  0
LWPOLYLINE
  5
4C
330
17
100
AcDbEntity
  8
0
 62
1
100
AcDbPolyline
 90
65
 70
0
 10
10.526343693054297
 20
55.99313144979909
 10
10.162674857624152
 20
57.009517756015995
 10
9.701133907831903
 20
57.98536410508598
 10
9.146165735327997
 20
58.91127256321562
 10
8.503114986990104
 20
59.778326125800106
 10
7.778174593052021
 20
60.57817459305202
 10
6.978326125800102
 20
61.3031149869901
 10
6.11127256321562
 20
61.946165735327995
 10
5.185364105085974
 20
62.5011339078319
 10
4.20951775601599
 20
62.96267485762415
 10
3.1931314497990826
 20
63.3263436930543
 10
2.1459935421774112
 20
63.58863808443553
 10
1.078188543625161
 20
63.74703199339416
 10
-2.0206672185931327e-15
 20
63.8
 10
-1.078188543625165
 20
63.74703199339416
 10
-2.1459935421774152
 20
63.58863808443553
 10
-3.193131449799087
 20
63.3263436930543
 10
-4.209517756015994
 20
62.96267485762415
 10
-5.185364105085977
 20
62.5011339078319
 10
-6.111272563215624
 20
61.946165735327995
 10
-6.978326125800104
 20
61.3031149869901
 10
-7.778174593052024
 20
60.57817459305202
 10
-8.503114986990107
 20
59.77832612580009
 10
-9.146165735328
 20
58.91127256321562
 10
-9.701133907831906
 20
57.98536410508597
 10
-10.162674857624156
 20
57.00951775601598
 10
-10.526343693054299
 20
55.99313144979908
 10
-10.788638084435535
 20
54.94599354217741
 10
-10.947031993394166
 20
53.878188543625164
 10
-11.0
 20
52.8
 10
-10.947031993394164
 20
51.72181145637483
 10
-10.788638084435535
 20
50.65400645782258
 10
-10.526343693054297
 20
49.606868550200915
 10
-10.162674857624154
 20
48.590482243984006
 10
-9.701133907831904
 20
47.614635894914024
 10
-9.146165735328
 20
46.688727436784376
 10
-8.503114986990107
 20
45.821673874199895
 10
-7.778174593052022
 20
45.021825406947976
 10
-6.978326125800099
 20
44.29688501300989
 10
-6.111272563215621
 20
43.653834264672
 10
-5.1853641050859745
 20
43.098866092168095
 10
-4.209517756015987
 20
42.63732514237584
 10
-3.193131449799084
 20
42.273656306945696
 10
-2.1459935421774103
 20
42.011361915564464
 10
-1.078188543625167
 20
41.852968006605835
 10
6.735557395310443e-16
 20
41.8
 10
1.0781885436251684
 20
41.852968006605835
 10
2.1459935421774117
 20
42.011361915564464
 10
3.1931314497990857
 20
42.273656306945696
 10
4.209517756015988
 20
42.63732514237584
 10
5.185364105085976
 20
43.098866092168095
 10
6.111272563215625
 20
43.653834264672
 10
6.9783261258001
 20
44.29688501300989
 10
7.778174593052023
 20
45.021825406947976
 10
8.503114986990107
 20
45.821673874199895
 10
9.146165735327997
 20
46.688727436784376
 10
9.701133907831906
 20
47.614635894914024
 10
10.162674857624154
 20
48.59048224398401
 10
10.526343693054297
 20
49.606868550200915
 10
10.788638084435535
 20
50.65400645782259
 10
10.947031993394166
 20
51.72181145637483
 10
11.0
 20
52.8
 10
10.947031993394166
 20
53.878188543625164
 10
10.788638084435533
 20
54.94599354217741
 10
10.526343693054297
 20
55.99313144979909
  0
LWPOLYLINE
  5
4D
330
17
100
AcDbEntity
  8
0
 62
1
100
AcDbPolyline
 90
65
 70
0
 10
10.886716612475857
 20
81.36550257437902
 10
10.622037726627518
 20
82.42215991752452
 10
10.25506281087528
 20
83.4477860992525
 10
9.789326034266738
 20
84.43250377876856
 10
9.229312696558251
 20
85.36682958651757
 10
8.580416032326376
 20
86.24176545421646
 10
7.848885271170675
 20
87.04888527117066
 10
7.041765454216466
 20
87.78041603232637
 10
6.16682958651758
 20
88.42931269655824
 10
5.232503778768573
 20
88.98932603426672
 10
4.247786099252499
 20
89.45506281087526
 10
3.222159917524529
 20
89.82203772662751
 10
2.165502574379024
 20
90.08671661247584
 10
1.0879902576581169
 20
90.24655046606138
 10
-2.0390369205803427e-15
 20
90.29999999999998
 10
-1.087990257658121
 20
90.24655046606138
 10
-2.165502574379028
 20
90.08671661247584
 10
-3.222159917524533
 20
89.82203772662751
 10
-4.247786099252503
 20
89.45506281087526
 10
-5.232503778768577
 20
88.98932603426672
 10
-6.166829586517584
 20
88.42931269655824
 10
-7.041765454216469
 20
87.78041603232637
 10
-7.848885271170679
 20
87.04888527117066
 10
-8.580416032326381
 20
86.24176545421645
 10
-9.229312696558255
 20
85.36682958651757
 10
-9.789326034266741
 20
84.43250377876856
 10
-10.255062810875284
 20
83.44778609925248
 10
-10.62203772662752
 20
82.42215991752452
 10
-10.886716612475858
 20
81.36550257437901
 10
-11.046550466061385
 20
80.28799025765811
 10
-11.1
 20
79.19999999999999
 10
-11.046550466061385
 20
78.11200974234187
 10
-10.886716612475858
 20
77.03449742562096
 10
-10.622037726627518
 20
75.97784008247545
 10
-10.255062810875282
 20
74.9522139007475
 10
-9.78932603426674
 20
73.96749622123141
 10
-9.229312696558253
 20
73.03317041348241
 10
-8.580416032326381
 20
72.15823454578353
 10
-7.848885271170676
 20
71.35111472882932
 10
-7.041765454216463
 20
70.6195839676736
 10
-6.166829586517582
 20
69.97068730344174
 10
-5.232503778768574
 20
69.41067396573325
 10
-4.247786099252496
 20
68.9449371891247
 10
-3.22215991752453
 20
68.57796227337246
 10
-2.165502574379023
 20
68.31328338752414
 10
-1.087990257658123
 20
68.1534495339386
 10
6.79678973526781e-16
 20
68.1
 10
1.0879902576581244
 20
68.1534495339386
 10
2.1655025743790244
 20
68.31328338752414
 10
3.222159917524532
 20
68.57796227337246
 10
4.247786099252497
 20
68.9449371891247
 10
5.232503778768575
 20
69.41067396573325
 10
6.1668295865175855
 20
69.97068730344174
 10
7.041765454216464
 20
70.6195839676736
 10
7.848885271170678
 20
71.35111472882932
 10
8.580416032326381
 20
72.15823454578353
 10
9.229312696558251
 20
73.03317041348241
 10
9.789326034266741
 20
73.96749622123141
 10
10.255062810875282
 20
74.9522139007475
 10
10.622037726627518
 20
75.97784008247545
 10
10.886716612475858
 20
77.03449742562097
 10
11.046550466061385
 20
78.11200974234187
 10
11.1
 20
79.19999999999999
 10
11.046550466061385
 20
80.28799025765811
 10
10.886716612475857
 20
81.36550257437902
  0
LWPOLYLINE
  5
4E
330
17
100
AcDbEntity
  8
0
 62
1
100
AcDbPolyline
 90
65
 70
0
 10
11.146068938728606
 20
106.69779197169107
 10
10.984795140516178
 20
107.78501160658064
 10
10.717731760200738
 20
108.85118838524997
 10
10.347450764126409
 20
109.88605444248901
 10
9.877518160701573
 20
110.87964345245118
 10
9.312459657788507
 20
111.82238660981955
 10
8.65771707766265
 20
112.70520478263283
 10
7.91959594928933
 20
113.51959594928933
 10
7.10520478263283
 20
114.25771707766265
 10
6.22238660981954
 20
114.9124596577885
 10
5.279643452451173
 20
115.47751816070158
 10
4.286054442489008
 20
115.9474507641264
 10
3.251188385249975
 20
116.31773176020073
 10
2.1850116065806366
 20
116.58479514051618
 10
1.097791971691073
 20
116.7460689387286
 10
-2.057406622567553e-15
 20
116.8
 10
-1.097791971691077
 20
116.7460689387286
 10
-2.185011606580641
 20
116.58479514051618
 10
-3.251188385249979
 20
116.31773176020073
 10
-4.286054442489012
 20
115.9474507641264
 10
-5.279643452451176
 20
115.47751816070156
 10
-6.222386609819544
 20
114.9124596577885
 10
-7.105204782632833
 20
114.25771707766265
 10
-7.9195959492893335
 20
113.51959594928933
 10
-8.657717077662655
 20
112.70520478263282
 10
-9.312459657788509
 20
111.82238660981953
 10
-9.877518160701577
 20
110.87964345245116
 10
-10.347450764126412
 20
109.886054442489
 10
-10.71773176020074
 20
108.85118838524997
 10
-10.98479514051618
 20
107.78501160658064
 10
-11.146068938728606
 20
106.69779197169107
 10
-11.2
 20
105.6
 10
-11.146068938728604
 20
104.50220802830891
 10
-10.98479514051618
 20
103.41498839341935
 10
-10.717731760200738
 20
102.34881161475002
 10
-10.34745076412641
 20
101.31394555751099
 10
-9.877518160701575
 20
100.32035654754881
 10
-9.312459657788507
 20
99.37761339018044
 10
-8.657717077662653
 20
98.49479521736717
 10
-7.919595949289331
 20
97.68040405071066
 10
-7.1052047826328275
 20
96.94228292233734
 10
-6.222386609819542
 20
96.28754034221149
 10
-5.2796434524511735
 20
95.72248183929841
 10
-4.286054442489005
 20
95.25254923587359
 10
-3.251188385249976
 20
94.88226823979926
 10
-2.1850116065806358
 20
94.61520485948381
 10
-1.0977919716910791
 20
94.45393106127139
 10
6.858022075225178e-16
 20
94.39999999999999
 10
1.0977919716910804
 20
94.45393106127139
 10
2.185011606580637
 20
94.61520485948381
 10
3.251188385249978
 20
94.88226823979926
 10
4.2860544424890055
 20
95.25254923587359
 10
5.279643452451175
 20
95.72248183929842
 10
6.222386609819545
 20
96.28754034221149
 10
7.105204782632829
 20
96.94228292233734
 10
7.919595949289333
 20
97.68040405071066
 10
8.657717077662653
 20
98.49479521736717
 10
9.312459657788507
 20
99.37761339018044
 10
9.877518160701577
 20
100.32035654754883
 10
10.34745076412641
 20
101.31394555751099
 10
10.717731760200738
 20
102.34881161475002
 10
10.98479514051618
 20
103.41498839341936
 10
11.146068938728606
 20
104.50220802830891
 10
11.2
 20
105.6
 10
11.146068938728606
 20
106.69779197169107
  0
ENDSEC
  0
SECTION
  2
OBJECTS
  0
DICTIONARY
  5
A
330
0
100
AcDbDictionary
280
0
281
1
  3
ACAD_COLOR
350
B
  3
ACAD_GROUP
350
C
  3
ACAD_LAYOUT
350
D
  3
ACAD_MATERIAL
350
E
  3
ACAD_MLEADERSTYLE
350
F
  3
ACAD_MLINESTYLE
350
10
  3
ACAD_PLOTSETTINGS
350
11
  3
ACAD_PLOTSTYLENAME
350
12
  3
ACAD_SCALELIST
350
14
  3
ACAD_TABLESTYLE
350
15
  3
ACAD_VISUALSTYLE
350
16
  3
EZDXF_META
350
2D
  0
DICTIONARY
  5
B
330
A
100
AcDbDictionary
280
0
281
1
  0
DICTIONARY
  5
C
330
A
100
AcDbDictionary
280
0
281
1
  0
DICTIONARY
  5
D
330
A
100
AcDbDictionary
280
0
281
1
  3
Model
350
1A
  3
Layout1
350
1E
  0
DICTIONARY
  5
E
330
A
100
AcDbDictionary
280
0
281
1
  3
ByBlock
350
1F
  3
ByLayer
350
20
  3
Global
350
21
  0
DICTIONARY
  5
F
330
A
100
AcDbDictionary
280
0
281
1
  3
Standard
350
2C
  0
DICTIONARY
  5
10
330
A
100
AcDbDictionary
280
0
281
1
  3
Standard
350
22
  0
DICTIONARY
  5
11
330
A
100
AcDbDictionary
280
0
281
1
  0
ACDBDICTIONARYWDFLT
  5
12
330
A
100
AcDbDictionary
280
0
281
1
  3
Normal
350
13
100
AcDbDictionaryWithDefault
340
13
  0
ACDBPLACEHOLDER
  5
13
330
12
  0
DICTIONARY
  5
14
330
A
100
AcDbDictionary
280
0
281
1
  0
DICTIONARY
  5
15
330
A
100
AcDbDictionary
280
0
281
1
  0
DICTIONARY
  5
16
330
A
100
AcDbDictionary
280
0
281
1
  0
LAYOUT
  5
1A
330
D
100
AcDbPlotSettings
  1

  2
Adobe PDF
  4
A3
  6

 40
7.5
 41
20.0
 42
7.5
 43
20.0
 44
420.0
 45
297.0
 46
0.0
 47
0.0
 48
0.0
 49
0.0
140
0.0
141
0.0
142
1.0
143
1.0
 70
1024
 72
1
 73
0
 74
5
  7

 75
16
 76
0
 77
2
 78
300
147
1.0
148
0.0
149
0.0
100
AcDbLayout
  1
Model
 70
1
 71
0
 10
0.0
 20
0.0
 11
420.0
 21
297.0
 12
0.0
 22
0.0
 32
0.0
 14
1e+20
 24
1e+20
 34
1e+20
 15
-1e+20
 25
-1e+20
 35
-1e+20
146
0.0
 13
0.0
 23
0.0
 33
0.0
 16
1.0
 26
0.0
 36
0.0
 17
0.0
 27
1.0
 37
0.0
 76
1
330
17
  0
LAYOUT
  5
1E
330
D
100
AcDbPlotSettings
  1

  2
Adobe PDF
  4
A3
  6

 40
7.5
 41
20.0
 42
7.5
 43
20.0
 44
420.0
 45
297.0
 46
0.0
 47
0.0
 48
0.0
 49
0.0
140
0.0
141
0.0
142
1.0
143
1.0
 70
0
 72
1
 73
0
 74
5
  7

 75
16
 76
0
 77
2
 78
300
147
1.0
148
0.0
149
0.0
100
AcDbLayout
  1
Layout1
 70
1
 71
1
 10
0.0
 20
0.0
 11
420.0
 21
297.0
 12
0.0
 22
0.0
 32
0.0
 14
1e+20
 24
1e+20
 34
1e+20
 15
-1e+20
 25
-1e+20
 35
-1e+20
146
0.0
 13
0.0
 23
0.0
 33
0.0
 16
1.0
 26
0.0
 36
0.0
 17
0.0
 27
1.0
 37
0.0
 76
1
330
1B
  0
MATERIAL
  5
1F
102
{ACAD_REACTORS
330
E
102
}
330
E
100
AcDbMaterial
  1
ByBlock
  2

 70
0
 40
1.0
 71
1
 41
1.0
 91
-1023410177
 42
1.0
 72
1
  3

 73
1
 74
1
 75
1
 44
0.5
 73
0
 45
1.0
 46
1.0
 77
1
  4

 78
1
 79
1
170
1
 48
1.0
171
1
  6

172
1
173
1
174
1
140
1.0
141
1.0
175
1
  7

176
1
177
1
178
1
143
1.0
179
1
  8

270
1
271
1
272
1
145
1.0
146
1.0
273
1
  9

274
1
275
1
276
1
 42
1.0
 72
1
  3

 73
1
 74
1
 75
1
 94
63
  0
MATERIAL
  5
20
102
{ACAD_REACTORS
330
E
102
}
330
E
100
AcDbMaterial
  1
ByLayer
  2

 70
0
 40
1.0
 71
1
 41
1.0
 91
-1023410177
 42
1.0
 72
1
  3

 73
1
 74
1
 75
1
 44
0.5
 73
0
 45
1.0
 46
1.0
 77
1
  4

 78
1
 79
1
170
1
 48
1.0
171
1
  6

172
1
173
1
174
1
140
1.0
141
1.0
175
1
  7

176
1
177
1
178
1
143
1.0
179
1
  8

270
1
271
1
272
1
145
1.0
146
1.0
273
1
  9

274
1
275
1
276
1
 42
1.0
 72
1
  3

 73
1
 74
1
 75
1
 94
63
  0
MATERIAL
  5
21
102
{ACAD_REACTORS
330
E
102
}
330
E
100
AcDbMaterial
  1
Global
  2

 70
0
 40
1.0
 71
1
 41
1.0
 91
-1023410177
 42
1.0
 72
1
  3

 73
1
 74
1
 75
1
 44
0.5
 73
0
 45
1.0
 46
1.0
 77
1
  4

 78
1
 79
1
170
1
 48
1.0
171
1
  6

172
1
173
1
174
1
140
1.0
141
1.0
175
1
  7

176
1
177
1
178
1
143
1.0
179
1
  8

270
1
271
1
272
1
145
1.0
146
1.0
273
1
  9

274
1
275
1
276
1
 42
1.0
 72
1
  3

 73
1
 74
1
 75
1
 94
63
  0
MLINESTYLE
  5
22
102
{ACAD_REACTORS
330
10
102
}
330
10
100
AcDbMlineStyle
  2
Standard
 70
0
  3

 62
256
 51
90.0
 52
90.0
 71
2
 49
0.5
 62
256
  6
BYLAYER
 49
-0.5
 62
256
  6
BYLAYER
  0
MLEADERSTYLE
  5
2C
102
{ACAD_REACTORS
330
F
102
}
330
F
100
AcDbMLeaderStyle
179
2
170
2
171
1
172
0
 90
2
 40
0.0
 41
0.0
173
1
 91
-1056964608
 92
-2
290
1
 42
2.0
291
1
 43
8.0
  3
Standard
 44
4.0
300

342
29
174
1
175
1
176
0
178
1
 93
-1056964608
 45
4.0
292
0
297
0
 46
4.0
 94
-1056964608
 47
1.0
 49
1.0
140
1.0
294
1
141
0.0
177
0
142
1.0
295
0
296
0
143
3.75
271
0
272
9
273
9
  0
DICTIONARY
  5
2D
330
A
100
AcDbDictionary
281
1
  3
CREATED_BY_EZDXF
350
2E
  3
WRITTEN_BY_EZDXF
350
51
  0
DICTIONARYVAR
  5
2E
330
2D
100
DictionaryVariables
280
0
  1
1.1.1 @ 2024-05-17T22:48:27.643963+00:00
  0
DICTIONARYVAR
  5
51
330
2D
100
DictionaryVariables
280
0
  1
1.1.1 @ 2024-05-17T22:48:27.647071+00:00
  0
ENDSEC
  0
EOF
