  0
SECTION
  2
HEADER
  9
$ACADVER
  1
AC1032
  9
$ACADMAINTVER
 90
4
  9
$DWGCODEPAGE
  3
ANSI_1252
  9
$LASTSAVEDBY
  1
ezdxf
  9
$REQUIREDVERSIONS
160
0
  9
$INSBASE
 10
0.0
 20
0.0
 30
0.0
  9
$EXTMIN
 10
1e+20
 20
1e+20
 30
1e+20
  9
$EXTMAX
 10
-1e+20
 20
-1e+20
 30
-1e+20
  9
$LIMMIN
 10
0.0
 20
0.0
  9
$LIMMAX
 10
420.0
 20
297.0
  9
$ORTHOMODE
 70
0
  9
$REGENMODE
 70
1
  9
$FILLMODE
 70
1
  9
$QTEXTMODE
 70
0
  9
$MIRRTEXT
 70
1
  9
$LTSCALE
 40
1.0
  9
$ATTMODE
 70
1
  9
$TEXTSIZE
 40
2.5
  9
$TRACEWID
 40
1.0
  9
$TEXTSTYLE
  7
Standard
  9
$CLAYER
  8
0
  9
$CELTYPE
  6
ByLayer
  9
$CECOLOR
 62
256
  9
$CELTSCALE
 40
1.0
  9
$DISPSILH
 70
0
  9
$DIMSCALE
 40
1.0
  9
$DIMASZ
 40
2.5
  9
$DIMEXO
 40
0.625
  9
$DIMDLI
 40
3.75
  9
$DIMRND
 40
0.0
  9
$DIMDLE
 40
0.0
  9
$DIMEXE
 40
1.25
  9
$DIMTP
 40
0.0
  9
$DIMTM
 40
0.0
  9
$DIMTXT
 40
2.5
  9
$DIMCEN
 40
2.5
  9
$DIMTSZ
 40
0.0
  9
$DIMTOL
 70
0
  9
$DIMLIM
 70
0
  9
$DIMTIH
 70
0
  9
$DIMTOH
 70
0
  9
$DIMSE1
 70
0
  9
$DIMSE2
 70
0
  9
$DIMTAD
 70
1
  9
$DIMZIN
 70
8
  9
$DIMBLK
  1

  9
$DIMASO
 70
1
  9
$DIMSHO
 70
1
  9
$DIMPOST
  1

  9
$DIMAPOST
  1

  9
$DIMALT
 70
0
  9
$DIMALTD
 70
3
  9
$DIMALTF
 40
0.03937007874
  9
$DIMLFAC
 40
1.0
  9
$DIMTOFL
 70
1
  9
$DIMTVP
 40
0.0
  9
$DIMTIX
 70
0
  9
$DIMSOXD
 70
0
  9
$DIMSAH
 70
0
  9
$DIMBLK1
  1

  9
$DIMBLK2
  1

  9
$DIMSTYLE
  2
ISO-25
  9
$DIMCLRD
 70
0
  9
$DIMCLRE
 70
0
  9
$DIMCLRT
 70
0
  9
$DIMTFAC
 40
1.0
  9
$DIMGAP
 40
0.625
  9
$DIMJUST
 70
0
  9
$DIMSD1
 70
0
  9
$DIMSD2
 70
0
  9
$DIMTOLJ
 70
0
  9
$DIMTZIN
 70
8
  9
$DIMALTZ
 70
0
  9
$DIMALTTZ
 70
0
  9
$DIMUPT
 70
0
  9
$DIMDEC
 70
2
  9
$DIMTDEC
 70
2
  9
$DIMALTU
 70
2
  9
$DIMALTTD
 70
3
  9
$DIMTXSTY
  7
Standard
  9
$DIMAUNIT
 70
0
  9
$DIMADEC
 70
0
  9
$DIMALTRND
 40
0.0
  9
$DIMAZIN
 70
0
  9
$DIMDSEP
 70
44
  9
$DIMATFIT
 70
3
  9
$DIMFRAC
 70
0
  9
$DIMLDRBLK
  1

  9
$DIMLUNIT
 70
2
  9
$DIMLWD
 70
-2
  9
$DIMLWE
 70
-2
  9
$DIMTMOVE
 70
0
  9
$DIMFXL
 40
1.0
  9
$DIMFXLON
 70
0
  9
$DIMJOGANG
 40
0.785398163397
  9
$DIMTFILL
 70
0
  9
$DIMTFILLCLR
 70
0
  9
$DIMARCSYM
 70
0
  9
$DIMLTYPE
  6

  9
$DIMLTEX1
  6

  9
$DIMLTEX2
  6

  9
$DIMTXTDIRECTION
 70
0
  9
$LUNITS
 70
2
  9
$LUPREC
 70
4
  9
$SKETCHINC
 40
1.0
  9
$FILLETRAD
 40
10.0
  9
$AUNITS
 70
0
  9
$AUPREC
 70
2
  9
$MENU
  1
.
  9
$ELEVATION
 40
0.0
  9
$PELEVATION
 40
0.0
  9
$THICKNESS
 40
0.0
  9
$LIMCHECK
 70
0
  9
$CHAMFERA
 40
0.0
  9
$CHAMFERB
 40
0.0
  9
$CHAMFERC
 40
0.0
  9
$CHAMFERD
 40
0.0
  9
$SKPOLY
 70
0
  9
$TDCREATE
 40
2460448.7507291664
  9
$TDUCREATE
 40
2458532.153996898
  9
$TDUPDATE
 40
2460448.7507291664
  9
$TDUUPDATE
 40
2458532.1544311
  9
$TDINDWG
 40
0.0
  9
$TDUSRTIMER
 40
0.0
  9
$USRTIMER
 70
1
  9
$ANGBASE
 50
0.0
  9
$ANGDIR
 70
0
  9
$PDMODE
 70
0
  9
$PDSIZE
 40
0.0
  9
$PLINEWID
 40
0.0
  9
$SPLFRAME
 70
0
  9
$SPLINETYPE
 70
6
  9
$SPLINESEGS
 70
8
  9
$HANDSEED
  5
3E
  9
$SURFTAB1
 70
6
  9
$SURFTAB2
 70
6
  9
$SURFTYPE
 70
6
  9
$SURFU
 70
6
  9
$SURFV
 70
6
  9
$UCSBASE
  2

  9
$UCSNAME
  2

  9
$UCSORG
 10
0.0
 20
0.0
 30
0.0
  9
$UCSXDIR
 10
1.0
 20
0.0
 30
0.0
  9
$UCSYDIR
 10
0.0
 20
1.0
 30
0.0
  9
$UCSORTHOREF
  2

  9
$UCSORTHOVIEW
 70
0
  9
$UCSORGTOP
 10
0.0
 20
0.0
 30
0.0
  9
$UCSORGBOTTOM
 10
0.0
 20
0.0
 30
0.0
  9
$UCSORGLEFT
 10
0.0
 20
0.0
 30
0.0
  9
$UCSORGRIGHT
 10
0.0
 20
0.0
 30
0.0
  9
$UCSORGFRONT
 10
0.0
 20
0.0
 30
0.0
  9
$UCSORGBACK
 10
0.0
 20
0.0
 30
0.0
  9
$PUCSBASE
  2

  9
$PUCSNAME
  2

  9
$PUCSORG
 10
0.0
 20
0.0
 30
0.0
  9
$PUCSXDIR
 10
1.0
 20
0.0
 30
0.0
  9
$PUCSYDIR
 10
0.0
 20
1.0
 30
0.0
  9
$PUCSORTHOREF
  2

  9
$PUCSORTHOVIEW
 70
0
  9
$PUCSORGTOP
 10
0.0
 20
0.0
 30
0.0
  9
$PUCSORGBOTTOM
 10
0.0
 20
0.0
 30
0.0
  9
$PUCSORGLEFT
 10
0.0
 20
0.0
 30
0.0
  9
$PUCSORGRIGHT
 10
0.0
 20
0.0
 30
0.0
  9
$PUCSORGFRONT
 10
0.0
 20
0.0
 30
0.0
  9
$PUCSORGBACK
 10
0.0
 20
0.0
 30
0.0
  9
$USERI1
 70
0
  9
$USERI2
 70
0
  9
$USERI3
 70
0
  9
$USERI4
 70
0
  9
$USERI5
 70
0
  9
$USERR1
 40
0.0
  9
$USERR2
 40
0.0
  9
$USERR3
 40
0.0
  9
$USERR4
 40
0.0
  9
$USERR5
 40
0.0
  9
$WORLDVIEW
 70
1
  9
$SHADEDGE
 70
3
  9
$SHADEDIF
 70
70
  9
$TILEMODE
 70
1
  9
$MAXACTVP
 70
64
  9
$PINSBASE
 10
0.0
 20
0.0
 30
0.0
  9
$PLIMCHECK
 70
0
  9
$PEXTMIN
 10
1e+20
 20
1e+20
 30
1e+20
  9
$PEXTMAX
 10
-1e+20
 20
-1e+20
 30
-1e+20
  9
$PLIMMIN
 10
0.0
 20
0.0
  9
$PLIMMAX
 10
420.0
 20
297.0
  9
$UNITMODE
 70
0
  9
$VISRETAIN
 70
1
  9
$PLINEGEN
 70
0
  9
$PSLTSCALE
 70
1
  9
$TREEDEPTH
 70
3020
  9
$CMLSTYLE
  2
Standard
  9
$CMLJUST
 70
0
  9
$CMLSCALE
 40
20.0
  9
$PROXYGRAPHICS
 70
1
  9
$MEASUREMENT
 70
1
  9
$CELWEIGHT
370
-1
  9
$ENDCAPS
280
0
  9
$JOINSTYLE
280
0
  9
$LWDISPLAY
290
0
  9
$INSUNITS
 70
4
  9
$HYPERLINKBASE
  1

  9
$STYLESHEET
  1

  9
$XEDIT
290
1
  9
$CEPSNTYPE
380
0
  9
$PSTYLEMODE
290
1
  9
$FINGERPRINTGUID
  2
{57C591A4-F900-4DE0-9C5B-6CB09C2D4D54}
  9
$VERSIONGUID
  2
{0A1B7379-F408-45A5-BF9A-416120995295}
  9
$EXTNAMES
290
1
  9
$PSVPSCALE
 40
0.0
  9
$OLESTARTUP
290
0
  9
$SORTENTS
280
127
  9
$INDEXCTL
280
0
  9
$HIDETEXT
280
1
  9
$XCLIPFRAME
280
0
  9
$HALOGAP
280
0
  9
$OBSCOLOR
 70
257
  9
$OBSLTYPE
280
0
  9
$INTERSECTIONDISPLAY
280
0
  9
$INTERSECTIONCOLOR
 70
257
  9
$DIMASSOC
280
2
  9
$PROJECTNAME
  1

  9
$CAMERADISPLAY
290
0
  9
$LENSLENGTH
 40
50.0
  9
$CAMERAHEIGHT
 40
0.0
  9
$STEPSPERSEC
 40
24.0
  9
$STEPSIZE
 40
100.0
  9
$3DDWFPREC
 40
2.0
  9
$PSOLWIDTH
 40
0.005
  9
$PSOLHEIGHT
 40
0.08
  9
$LOFTANG1
 40
1.570796326795
  9
$LOFTANG2
 40
1.570796326795
  9
$LOFTMAG1
 40
0.0
  9
$LOFTMAG2
 40
0.0
  9
$LOFTPARAM
 70
7
  9
$LOFTNORMALS
280
1
  9
$LATITUDE
 40
37.795
  9
$LONGITUDE
 40
-122.394
  9
$NORTHDIRECTION
 40
0.0
  9
$TIMEZONE
 70
-8000
  9
$LIGHTGLYPHDISPLAY
280
1
  9
$TILEMODELIGHTSYNCH
280
1
  9
$CMATERIAL
347
20
  9
$SOLIDHIST
280
0
  9
$SHOWHIST
280
1
  9
$DWFFRAME
280
2
  9
$DGNFRAME
280
2
  9
$REALWORLDSCALE
290
1
  9
$INTERFERECOLOR
 62
256
  9
$CSHADOW
280
0
  9
$SHADOWPLANELOCATION
 40
0.0
  0
ENDSEC
  0
SECTION
  2
CLASSES
  0
CLASS
  1
ACDBDICTIONARYWDFLT
  2
AcDbDictionaryWithDefault
  3
ObjectDBX Classes
 90
0
 91
0
280
0
281
0
  0
CLASS
  1
SUN
  2
AcDbSun
  3
SCENEOE
 90
1153
 91
0
280
0
281
0
  0
CLASS
  1
VISUALSTYLE
  2
AcDbVisualStyle
  3
ObjectDBX Classes
 90
4095
 91
0
280
0
281
0
  0
CLASS
  1
MATERIAL
  2
AcDbMaterial
  3
ObjectDBX Classes
 90
1153
 91
0
280
0
281
0
  0
CLASS
  1
SCALE
  2
AcDbScale
  3
ObjectDBX Classes
 90
1153
 91
0
280
0
281
0
  0
CLASS
  1
TABLESTYLE
  2
AcDbTableStyle
  3
ObjectDBX Classes
 90
4095
 91
0
280
0
281
0
  0
CLASS
  1
MLEADERSTYLE
  2
AcDbMLeaderStyle
  3
ACDB_MLEADERSTYLE_CLASS
 90
4095
 91
0
280
0
281
0
  0
CLASS
  1
DICTIONARYVAR
  2
AcDbDictionaryVar
  3
ObjectDBX Classes
 90
0
 91
0
280
0
281
0
  0
CLASS
  1
CELLSTYLEMAP
  2
AcDbCellStyleMap
  3
ObjectDBX Classes
 90
1152
 91
0
280
0
281
0
  0
CLASS
  1
MENTALRAYRENDERSETTINGS
  2
AcDbMentalRayRenderSettings
  3
SCENEOE
 90
1024
 91
0
280
0
281
0
  0
CLASS
  1
ACDBDETAILVIEWSTYLE
  2
AcDbDetailViewStyle
  3
ObjectDBX Classes
 90
1025
 91
0
280
0
281
0
  0
CLASS
  1
ACDBSECTIONVIEWSTYLE
  2
AcDbSectionViewStyle
  3
ObjectDBX Classes
 90
1025
 91
0
280
0
281
0
  0
CLASS
  1
RASTERVARIABLES
  2
AcDbRasterVariables
  3
ISM
 90
0
 91
0
280
0
281
0
  0
CLASS
  1
LAYOUT
  2
AcDbLayout
  3
ObjectDBX Classes
 90
0
 91
0
280
0
281
0
  0
CLASS
  1
ACDBPLACEHOLDER
  2
AcDbPlaceHolder
  3
ObjectDBX Classes
 90
0
 91
0
280
0
281
0
  0
ENDSEC
  0
SECTION
  2
TABLES
  0
TABLE
  2
VPORT
  5
8
330
0
100
AcDbSymbolTable
 70
1
  0
VPORT
  5
23
330
8
100
AcDbSymbolTableRecord
100
AcDbViewportTableRecord
  2
*Active
 70
0
 10
0.0
 20
0.0
 11
1.0
 21
1.0
 12
0.0
 22
0.0
 13
0.0
 23
0.0
 14
0.5
 24
0.5
 15
0.5
 25
0.5
 16
0.0
 26
0.0
 36
1.0
 17
0.0
 27
0.0
 37
0.0
 40
1000.0
 41
1.34
 42
50.0
 43
0.0
 44
0.0
 50
0.0
 51
0.0
 71
0
 72
1000
 73
1
 74
3
 75
0
 76
0
 77
0
 78
0
281
0
 65
0
146
0.0
  0
ENDTAB
  0
TABLE
  2
LTYPE
  5
2
330
0
100
AcDbSymbolTable
 70
3
  0
LTYPE
  5
24
330
2
100
AcDbSymbolTableRecord
100
AcDbLinetypeTableRecord
  2
ByBlock
 70
0
  3

 72
65
 73
0
 40
0.0
  0
LTYPE
  5
25
330
2
100
AcDbSymbolTableRecord
100
AcDbLinetypeTableRecord
  2
ByLayer
 70
0
  3

 72
65
 73
0
 40
0.0
  0
LTYPE
  5
26
330
2
100
AcDbSymbolTableRecord
100
AcDbLinetypeTableRecord
  2
Continuous
 70
0
  3

 72
65
 73
0
 40
0.0
  0
ENDTAB
  0
TABLE
  2
LAYER
  5
1
330
0
100
AcDbSymbolTable
 70
2
  0
LAYER
  5
27
330
1
100
AcDbSymbolTableRecord
100
AcDbLayerTableRecord
  2
0
 70
0
 62
7
  6
Continuous
370
-3
390
13
347
21
  0
LAYER
  5
28
330
1
100
AcDbSymbolTableRecord
100
AcDbLayerTableRecord
  2
Defpoints
 70
0
 62
7
  6
Continuous
290
0
370
-3
390
13
347
21
  0
ENDTAB
  0
TABLE
  2
STYLE
  5
5
330
0
100
AcDbSymbolTable
 70
1
  0
STYLE
  5
29
330
5
100
AcDbSymbolTableRecord
100
AcDbTextStyleTableRecord
  2
Standard
 70
0
 40
0.0
 41
1.0
 50
0.0
 71
0
 42
2.5
  3
txt
  4

  0
ENDTAB
  0
TABLE
  2
VIEW
  5
7
330
0
100
AcDbSymbolTable
 70
0
  0
ENDTAB
  0
TABLE
  2
UCS
  5
6
330
0
100
AcDbSymbolTable
 70
0
  0
ENDTAB
  0
TABLE
  2
APPID
  5
3
330
0
100
AcDbSymbolTable
 70
3
  0
APPID
  5
2A
330
3
100
AcDbSymbolTableRecord
100
AcDbRegAppTableRecord
  2
ACAD
 70
0
  0
APPID
  5
3B
330
3
100
AcDbSymbolTableRecord
100
AcDbRegAppTableRecord
  2
HATCHBACKGROUNDCOLOR
 70
0
  0
APPID
  5
3C
330
3
100
AcDbSymbolTableRecord
100
AcDbRegAppTableRecord
  2
EZDXF
 70
0
  0
ENDTAB
  0
TABLE
  2
DIMSTYLE
  5
4
330
0
100
AcDbSymbolTable
 70
1
100
AcDbDimStyleTable
  0
DIMSTYLE
105
2B
330
4
100
AcDbSymbolTableRecord
100
AcDbDimStyleTableRecord
  2
Standard
 70
0
 40
1.0
 41
2.5
 42
0.625
 43
3.75
 44
1.25
 45
0.0
 46
0.0
 47
0.0
 48
0.0
 49
2.5
140
2.5
141
2.5
142
0.0
143
0.03937007874
144
1.0
145
0.0
146
1.0
147
0.625
148
0.0
 69
0
 70
0
 71
0
 72
0
 73
0
 74
0
 75
0
 76
0
 77
1
 78
8
 79
3
170
0
171
3
172
1
173
0
174
0
175
0
176
0
177
0
178
0
179
2
271
2
272
2
273
2
274
3
275
0
276
0
277
2
278
44
279
0
280
0
281
0
282
0
283
0
284
8
285
0
286
0
288
0
289
3
290
0
371
-2
372
-2
  0
ENDTAB
  0
TABLE
  2
BLOCK_RECORD
  5
9
330
0
100
AcDbSymbolTable
 70
2
  0
BLOCK_RECORD
  5
17
330
9
100
AcDbSymbolTableRecord
100
AcDbBlockTableRecord
  2
*Model_Space
340
1A
 70
0
280
1
281
0
  0
BLOCK_RECORD
  5
1B
330
9
100
AcDbSymbolTableRecord
100
AcDbBlockTableRecord
  2
*Paper_Space
340
1E
 70
0
280
1
281
0
  0
ENDTAB
  0
ENDSEC
  0
SECTION
  2
BLOCKS
  0
BLOCK
  5
18
330
17
100
AcDbEntity
  8
0
100
AcDbBlockBegin
  2
*Model_Space
 70
0
 10
0.0
 20
0.0
 30
0.0
  3
*Model_Space
  1

  0
ENDBLK
  5
19
330
17
100
AcDbEntity
  8
0
100
AcDbBlockEnd
  0
BLOCK
  5
1C
330
1B
100
AcDbEntity
  8
0
100
AcDbBlockBegin
  2
*Paper_Space
 70
0
 10
0.0
 20
0.0
 30
0.0
  3
*Paper_Space
  1

  0
ENDBLK
  5
1D
330
1B
100
AcDbEntity
  8
0
100
AcDbBlockEnd
  0
ENDSEC
  0
SECTION
  2
ENTITIES
  0
LWPOLYLINE
  5
2F
330
17
100
AcDbEntity
  8
0
 62
0
100
AcDbPolyline
 90
61
 70
0
 10
39.81584793468715
 20
-3.8338301008089792
 10
47.552825814757675
 20
-15.450849718747383
 10
38.54521812834492
 20
-10.689535043130284
 10
36.682402975404955
 20
-15.949962757009866
 10
40.450849718747364
 20
-29.389262614623668
 10
33.35543288268672
 20
-22.077479412482333
 10
29.958228831560074
 20
-26.50480192862951
 10
29.389262614623647
 20
-40.45084971874738
 10
24.900585465504776
 20
-31.30432627409656
 10
20.30153451842815
 20
-34.46516641766104
 10
15.450849718747362
 20
-47.55282581475768
 10
14.008295250378689
 20
-37.466887569935906
 10
8.657584557524098
 20
-39.051840284797336
 10
-9.184850993605149e-15
 20
-50.0
 10
1.7447754946134306
 20
-39.96192886327431
 10
-3.8338301008089766
 20
-39.81584793468715
 10
-15.450849718747378
 20
-47.552825814757675
 10
-10.689535043130283
 20
-38.54521812834492
 10
-15.949962757009864
 20
-36.682402975404955
 10
-29.38926261462366
 20
-40.450849718747364
 10
-22.077479412482333
 20
-33.35543288268673
 10
-26.504801928629497
 20
-29.95822883156009
 10
-40.45084971874737
 20
-29.38926261462365
 10
-31.30432627409656
 20
-24.900585465504776
 10
-34.46516641766103
 20
-20.30153451842817
 10
-47.55282581475768
 20
-15.450849718747364
 10
-37.466887569935906
 20
-14.00829525037869
 10
-39.051840284797336
 20
-8.657584557524117
 10
-50.0
 20
6.123233995736766e-15
 10
-39.96192886327431
 20
-1.744775494613433
 10
-39.815847934687156
 20
3.8338301008089566
 10
-47.552825814757675
 20
15.450849718747376
 10
-38.54521812834492
 20
10.689535043130281
 10
-36.68240297540496
 20
15.949962757009846
 10
-40.450849718747364
 20
29.38926261462366
 10
-33.35543288268673
 20
22.07747941248233
 10
-29.95822883156009
 20
26.504801928629497
 10
-29.38926261462365
 20
40.45084971874737
 10
-24.900585465504776
 20
31.30432627409656
 10
-20.301534518428173
 20
34.46516641766103
 10
-15.450849718747367
 20
47.55282581475768
 10
-14.008295250378692
 20
37.466887569935906
 10
-8.657584557524112
 20
39.051840284797336
 10
3.061616997868383e-15
 20
50.0
 10
-1.7447754946134355
 20
39.96192886327431
 10
3.8338301008089632
 20
39.81584793468715
 10
15.450849718747373
 20
47.552825814757675
 10
10.689535043130277
 20
38.54521812834492
 10
15.94996275700985
 20
36.68240297540496
 10
29.389262614623657
 20
40.45084971874737
 10
22.07747941248233
 20
33.35543288268673
 10
26.5048019286295
 20
29.958228831560085
 10
40.45084971874737
 20
29.389262614623657
 10
31.304326274096557
 20
24.900585465504783
 10
34.46516641766103
 20
20.301534518428163
 10
47.552825814757675
 20
15.450849718747369
 10
37.466887569935906
 20
14.008295250378698
 10
39.051840284797336
 20
8.657584557524116
 10
50.0
 20
0.0
 10
39.96192886327431
 20
1.74477549461344
 10
39.81584793468715
 20
-3.8338301008089792
  0
LWPOLYLINE
  5
30
330
17
100
AcDbEntity
  8
0
 62
0
100
AcDbPolyline
 90
13
 70
0
 10
-6.828161270564487
 20
-34.32748481411306
 10
-3.4305999115346224
 20
-34.831465433526894
 10
2.1431318985078682e-15
 20
-35.0
 10
3.430599911534627
 20
-34.83146543352689
 10
6.828161270564491
 20
-34.32748481411306
 10
8.883473440698806
 20
-33.812655916371924
 10
2.688677770929006
 20
-14.747035267356848
 10
1.4702571049434114
 20
-14.927770900082953
 10
9.18485099360515e-16
 20
-15.0
 10
-1.4702571049434097
 20
-14.927770900082955
 10
-2.6886777709290115
 20
-14.747035267356848
 10
-8.883473440698818
 20
-33.812655916371924
 10
-6.828161270564487
 20
-34.32748481411306
  0
LWPOLYLINE
  5
31
330
17
100
AcDbEntity
  8
0
 62
0
100
AcDbPolyline
 90
15
 70
0
 10
-27.055365867695794
 20
-22.203764945727592
 10
-24.74873734152916
 20
-24.748737341529164
 10
-22.20376494572759
 20
-27.055365867695798
 10
-19.44495815568607
 20
-29.101436430589086
 10
-16.49888578890992
 20
-30.867244252192428
 10
-13.39392013277814
 20
-32.335783637895034
 10
-12.691159123693174
 20
-32.5872355476624
 10
-6.4904388348598845
 20
-13.503380796091614
 10
-7.070951052389965
 20
-13.228818965225326
 10
-8.33355349529403
 20
-12.47204418453818
 10
-9.515899262454681
 20
-11.595156800441057
 10
-10.606601717798211
 20
-10.606601717798213
 10
-10.840671870952802
 20
-10.348345101398229
 10
-27.091394382609895
 20
-22.155186116931198
 10
-27.055365867695794
 20
-22.203764945727592
  0
LWPOLYLINE
  5
32
330
17
100
AcDbEntity
  8
0
 62
0
100
AcDbPolyline
 90
14
 70
0
 10
-14.849190964603311
 20
-1.9999999999999982
 10
-34.90174630046106
 20
-1.9999999999999958
 10
-34.83146543352689
 20
-3.430599911534629
 10
-34.32748481411306
 20
-6.828161270564501
 10
-33.49291175062731
 20
-10.159963703906184
 10
-32.335783637895034
 20
-13.393920132778145
 10
-30.86724425219242
 20
-16.498885788909924
 10
-29.424476823166323
 20
-18.90599782133883
 10
-13.200337033838917
 20
-7.118470284088533
 10
-13.228818965225324
 20
-7.070951052389968
 10
-13.858192987669302
 20
-5.740251485476349
 10
-14.354105035983132
 20
-4.354270158816936
 10
-14.711779206048456
 20
-2.9263548302419293
 10
-14.849190964603311
 20
-1.9999999999999982
  0
LWPOLYLINE
  5
33
330
17
100
AcDbEntity
  8
0
 62
0
100
AcDbPolyline
 90
65
 70
0
 10
10.430649659481077
 20
-3.1641029820736395
 10
10.690559556395211
 20
-2.126484509975798
 10
10.847513520726947
 20
-1.0683868295922105
 10
10.9
 20
0.0
 10
10.847513520726947
 20
1.0683868295922097
 10
10.690559556395211
 20
2.126484509975803
 10
10.430649659481077
 20
3.1641029820736413
 10
10.070286904373024
 20
4.171249412779486
 10
9.612941781397067
 20
5.138224431403378
 10
9.063018774097744
 20
6.055715539913664
 10
8.42581394165383
 20
6.9148867973837405
 10
7.707463914933366
 20
7.70746391493337
 10
6.914886797383737
 20
8.425813941653832
 10
6.055715539913661
 20
9.063018774097745
 10
5.138224431403374
 20
9.61294178139707
 10
4.171249412779481
 20
10.070286904373024
 10
3.1641029820736364
 20
10.430649659481078
 10
2.1264845099757985
 20
10.690559556395211
 10
1.068386829592205
 20
10.847513520726947
 10
-2.0022975166059223e-15
 20
10.9
 10
-1.068386829592209
 20
10.847513520726947
 10
-2.1264845099758025
 20
10.690559556395211
 10
-3.164102982073641
 20
10.430649659481077
 10
-4.171249412779485
 20
10.070286904373024
 10
-5.138224431403377
 20
9.612941781397069
 10
-6.055715539913664
 20
9.063018774097744
 10
-6.91488679738374
 20
8.42581394165383
 10
-7.70746391493337
 20
7.707463914933368
 10
-8.425813941653836
 20
6.914886797383733
 10
-9.063018774097745
 20
6.0557155399136615
 10
-9.61294178139707
 20
5.1382244314033745
 10
-10.070286904373027
 20
4.171249412779478
 10
-10.430649659481078
 20
3.1641029820736373
 10
-10.690559556395211
 20
2.126484509975799
 10
-10.847513520726947
 20
1.0683868295922105
 10
-10.9
 20
-1.334865011070615e-15
 10
-10.847513520726945
 20
-1.068386829592213
 10
-10.690559556395211
 20
-2.126484509975802
 10
-10.430649659481077
 20
-3.16410298207364
 10
-10.070286904373026
 20
-4.17124941277948
 10
-9.612941781397069
 20
-5.138224431403377
 10
-9.063018774097744
 20
-6.055715539913664
 10
-8.425813941653834
 20
-6.914886797383736
 10
-7.707463914933368
 20
-7.707463914933369
 10
-6.914886797383735
 20
-8.425813941653836
 10
-6.0557155399136615
 20
-9.063018774097744
 10
-5.138224431403375
 20
-9.61294178139707
 10
-4.171249412779479
 20
-10.070286904373026
 10
-3.1641029820736377
 20
-10.430649659481078
 10
-2.126484509975797
 20
-10.690559556395211
 10
-1.068386829592211
 20
-10.847513520726947
 10
6.674325055353075e-16
 20
-10.9
 10
1.0683868295922125
 20
-10.847513520726945
 10
2.126484509975799
 20
-10.690559556395211
 10
3.1641029820736395
 20
-10.430649659481077
 10
4.1712494127794795
 20
-10.070286904373026
 10
5.138224431403376
 20
-9.612941781397069
 10
6.055715539913665
 20
-9.063018774097744
 10
6.914886797383736
 20
-8.425813941653834
 10
7.707463914933369
 20
-7.707463914933368
 10
8.425813941653834
 20
-6.914886797383736
 10
9.063018774097744
 20
-6.055715539913664
 10
9.61294178139707
 20
-5.1382244314033745
 10
10.070286904373026
 20
-4.171249412779479
 10
10.430649659481077
 20
-3.1641029820736395
  0
LWPOLYLINE
  5
34
330
17
100
AcDbEntity
  8
0
 62
0
100
AcDbPolyline
 90
14
 70
0
 10
-13.858192987669304
 20
5.740251485476345
 10
-13.228818965225326
 20
7.070951052389964
 10
-13.200337033838915
 20
7.118470284088536
 10
-29.42447682316632
 20
18.905997821338836
 10
-30.867244252192428
 20
16.498885788909917
 10
-32.33578363789504
 20
13.393920132778138
 10
-33.492911750627314
 20
10.159963703906174
 10
-34.32748481411306
 20
6.828161270564492
 10
-34.831465433526894
 20
3.4305999115346206
 10
-34.90174630046107
 20
2.0000000000000044
 10
-14.849190964603311
 20
2.0000000000000018
 10
-14.711779206048456
 20
2.9263548302419253
 10
-14.354105035983133
 20
4.354270158816932
 10
-13.858192987669304
 20
5.740251485476345
  0
LWPOLYLINE
  5
35
330
17
100
AcDbEntity
  8
0
 62
0
100
AcDbPolyline
 90
15
 70
0
 10
-7.070951052389969
 20
13.228818965225324
 10
-6.490438834859881
 20
13.503380796091616
 10
-12.691159123693167
 20
32.58723554766241
 10
-13.393920132778161
 20
32.33578363789503
 10
-16.498885788909927
 20
30.86724425219242
 10
-19.444958155686077
 20
29.101436430589082
 10
-22.203764945727603
 20
27.055365867695784
 10
-24.748737341529168
 20
24.74873734152916
 10
-27.055365867695798
 20
22.203764945727585
 10
-27.091394382609888
 20
22.15518611693121
 10
-10.840671870952798
 20
10.348345101398234
 10
-10.606601717798215
 20
10.606601717798211
 10
-9.515899262454687
 20
11.59515680044105
 10
-8.333553495294034
 20
12.472044184538179
 10
-7.070951052389969
 20
13.228818965225324
  0
LWPOLYLINE
  5
36
330
17
100
AcDbEntity
  8
0
 62
0
100
AcDbPolyline
 90
15
 70
0
 10
6.490438834859879
 20
-13.503380796091616
 10
12.691159123693163
 20
-32.58723554766241
 10
13.393920132778144
 20
-32.335783637895034
 10
16.498885788909924
 20
-30.86724425219242
 10
19.44495815568608
 20
-29.101436430589082
 10
22.203764945727592
 20
-27.055365867695794
 10
24.748737341529164
 20
-24.74873734152916
 10
27.055365867695794
 20
-22.203764945727592
 10
27.091394382609888
 20
-22.15518611693121
 10
10.840671870952798
 20
-10.348345101398234
 10
10.606601717798213
 20
-10.606601717798211
 10
9.515899262454683
 20
-11.595156800441055
 10
8.333553495294034
 20
-12.472044184538179
 10
7.070951052389967
 20
-13.228818965225324
 10
6.490438834859879
 20
-13.503380796091616
  0
LWPOLYLINE
  5
37
330
17
100
AcDbEntity
  8
0
 62
0
100
AcDbPolyline
 90
14
 70
0
 10
32.335783637895034
 20
-13.393920132778142
 10
33.49291175062731
 20
-10.15996370390618
 10
34.32748481411306
 20
-6.828161270564489
 10
34.831465433526894
 20
-3.430599911534621
 10
34.90174630046107
 20
-2.0
 10
14.849190964603311
 20
-2.0
 10
14.711779206048456
 20
-2.9263548302419236
 10
14.354105035983132
 20
-4.354270158816935
 10
13.858192987669302
 20
-5.740251485476347
 10
13.228818965225326
 20
-7.070951052389964
 10
13.200337033838915
 20
-7.118470284088537
 10
29.424476823166316
 20
-18.90599782133884
 10
30.867244252192428
 20
-16.498885788909917
 10
32.335783637895034
 20
-13.393920132778142
  0
LWPOLYLINE
  5
38
330
17
100
AcDbEntity
  8
0
 62
0
100
AcDbPolyline
 90
14
 70
0
 10
34.32748481411306
 20
6.828161270564506
 10
33.49291175062731
 20
10.159963703906188
 10
32.33578363789503
 20
13.393920132778163
 10
30.867244252192418
 20
16.49888578890993
 10
29.42447682316632
 20
18.905997821338833
 10
13.200337033838915
 20
7.118470284088534
 10
13.228818965225322
 20
7.07095105238997
 10
13.858192987669298
 20
5.740251485476356
 10
14.354105035983132
 20
4.354270158816938
 10
14.711779206048455
 20
2.9263548302419307
 10
14.849190964603311
 20
2.0
 10
34.90174630046107
 20
2.0
 10
34.831465433526894
 20
3.4305999115346175
 10
34.32748481411306
 20
6.828161270564506
  0
LWPOLYLINE
  5
39
330
17
100
AcDbEntity
  8
0
 62
0
100
AcDbPolyline
 90
15
 70
0
 10
19.444958155686063
 20
29.10143643058909
 10
16.498885788909917
 20
30.867244252192428
 10
13.39392013277815
 20
32.335783637895034
 10
12.691159123693172
 20
32.58723554766241
 10
6.490438834859883
 20
13.503380796091614
 10
7.0709510523899635
 20
13.228818965225326
 10
8.333553495294028
 20
12.472044184538182
 10
9.515899262454685
 20
11.595156800441053
 10
10.60660171779821
 20
10.606601717798215
 10
10.840671870952798
 20
10.348345101398232
 10
27.09139438260989
 20
22.155186116931205
 10
27.055365867695784
 20
22.203764945727606
 10
24.748737341529157
 20
24.748737341529168
 10
22.203764945727595
 20
27.05536586769579
 10
19.444958155686063
 20
29.10143643058909
  0
LWPOLYLINE
  5
3A
330
17
100
AcDbEntity
  8
0
 62
0
100
AcDbPolyline
 90
13
 70
0
 10
-6.429395695523604e-15
 20
35.0
 10
-3.4305999115346157
 20
34.831465433526894
 10
-6.828161270564503
 20
34.32748481411306
 10
-8.883473440698811
 20
33.812655916371924
 10
-2.688677770929007
 20
14.747035267356848
 10
-1.4702571049434068
 20
14.927770900082955
 10
-2.7554552980815444e-15
 20
15.0
 10
1.4702571049434014
 20
14.927770900082955
 10
2.6886777709290097
 20
14.747035267356848
 10
8.883473440698817
 20
33.812655916371924
 10
6.8281612705644905
 20
34.32748481411306
 10
3.4305999115346033
 20
34.831465433526894
 10
-6.429395695523604e-15
 20
35.0
  0
ENDSEC
  0
SECTION
  2
OBJECTS
  0
DICTIONARY
  5
A
330
0
100
AcDbDictionary
280
0
281
1
  3
ACAD_COLOR
350
B
  3
ACAD_GROUP
350
C
  3
ACAD_LAYOUT
350
D
  3
ACAD_MATERIAL
350
E
  3
ACAD_MLEADERSTYLE
350
F
  3
ACAD_MLINESTYLE
350
10
  3
ACAD_PLOTSETTINGS
350
11
  3
ACAD_PLOTSTYLENAME
350
12
  3
ACAD_SCALELIST
350
14
  3
ACAD_TABLESTYLE
350
15
  3
ACAD_VISUALSTYLE
350
16
  3
EZDXF_META
350
2D
  0
DICTIONARY
  5
B
330
A
100
AcDbDictionary
280
0
281
1
  0
DICTIONARY
  5
C
330
A
100
AcDbDictionary
280
0
281
1
  0
DICTIONARY
  5
D
330
A
100
AcDbDictionary
280
0
281
1
  3
Model
350
1A
  3
Layout1
350
1E
  0
DICTIONARY
  5
E
330
A
100
AcDbDictionary
280
0
281
1
  3
ByBlock
350
1F
  3
ByLayer
350
20
  3
Global
350
21
  0
DICTIONARY
  5
F
330
A
100
AcDbDictionary
280
0
281
1
  3
Standard
350
2C
  0
DICTIONARY
  5
10
330
A
100
AcDbDictionary
280
0
281
1
  3
Standard
350
22
  0
DICTIONARY
  5
11
330
A
100
AcDbDictionary
280
0
281
1
  0
ACDBDICTIONARYWDFLT
  5
12
330
A
100
AcDbDictionary
280
0
281
1
  3
Normal
350
13
100
AcDbDictionaryWithDefault
340
13
  0
ACDBPLACEHOLDER
  5
13
330
12
  0
DICTIONARY
  5
14
330
A
100
AcDbDictionary
280
0
281
1
  0
DICTIONARY
  5
15
330
A
100
AcDbDictionary
280
0
281
1
  0
DICTIONARY
  5
16
330
A
100
AcDbDictionary
280
0
281
1
  0
LAYOUT
  5
1A
330
D
100
AcDbPlotSettings
  1

  2
Adobe PDF
  4
A3
  6

 40
7.5
 41
20.0
 42
7.5
 43
20.0
 44
420.0
 45
297.0
 46
0.0
 47
0.0
 48
0.0
 49
0.0
140
0.0
141
0.0
142
1.0
143
1.0
 70
1024
 72
1
 73
0
 74
5
  7

 75
16
 76
0
 77
2
 78
300
147
1.0
148
0.0
149
0.0
100
AcDbLayout
  1
Model
 70
1
 71
0
 10
0.0
 20
0.0
 11
420.0
 21
297.0
 12
0.0
 22
0.0
 32
0.0
 14
1e+20
 24
1e+20
 34
1e+20
 15
-1e+20
 25
-1e+20
 35
-1e+20
146
0.0
 13
0.0
 23
0.0
 33
0.0
 16
1.0
 26
0.0
 36
0.0
 17
0.0
 27
1.0
 37
0.0
 76
1
330
17
  0
LAYOUT
  5
1E
330
D
100
AcDbPlotSettings
  1

  2
Adobe PDF
  4
A3
  6

 40
7.5
 41
20.0
 42
7.5
 43
20.0
 44
420.0
 45
297.0
 46
0.0
 47
0.0
 48
0.0
 49
0.0
140
0.0
141
0.0
142
1.0
143
1.0
 70
0
 72
1
 73
0
 74
5
  7

 75
16
 76
0
 77
2
 78
300
147
1.0
148
0.0
149
0.0
100
AcDbLayout
  1
Layout1
 70
1
 71
1
 10
0.0
 20
0.0
 11
420.0
 21
297.0
 12
0.0
 22
0.0
 32
0.0
 14
1e+20
 24
1e+20
 34
1e+20
 15
-1e+20
 25
-1e+20
 35
-1e+20
146
0.0
 13
0.0
 23
0.0
 33
0.0
 16
1.0
 26
0.0
 36
0.0
 17
0.0
 27
1.0
 37
0.0
 76
1
330
1B
  0
MATERIAL
  5
1F
102
{ACAD_REACTORS
330
E
102
}
330
E
100
AcDbMaterial
  1
ByBlock
  2

 70
0
 40
1.0
 71
1
 41
1.0
 91
-1023410177
 42
1.0
 72
1
  3

 73
1
 74
1
 75
1
 44
0.5
 73
0
 45
1.0
 46
1.0
 77
1
  4

 78
1
 79
1
170
1
 48
1.0
171
1
  6

172
1
173
1
174
1
140
1.0
141
1.0
175
1
  7

176
1
177
1
178
1
143
1.0
179
1
  8

270
1
271
1
272
1
145
1.0
146
1.0
273
1
  9

274
1
275
1
276
1
 42
1.0
 72
1
  3

 73
1
 74
1
 75
1
 94
63
  0
MATERIAL
  5
20
102
{ACAD_REACTORS
330
E
102
}
330
E
100
AcDbMaterial
  1
ByLayer
  2

 70
0
 40
1.0
 71
1
 41
1.0
 91
-1023410177
 42
1.0
 72
1
  3

 73
1
 74
1
 75
1
 44
0.5
 73
0
 45
1.0
 46
1.0
 77
1
  4

 78
1
 79
1
170
1
 48
1.0
171
1
  6

172
1
173
1
174
1
140
1.0
141
1.0
175
1
  7

176
1
177
1
178
1
143
1.0
179
1
  8

270
1
271
1
272
1
145
1.0
146
1.0
273
1
  9

274
1
275
1
276
1
 42
1.0
 72
1
  3

 73
1
 74
1
 75
1
 94
63
  0
MATERIAL
  5
21
102
{ACAD_REACTORS
330
E
102
}
330
E
100
AcDbMaterial
  1
Global
  2

 70
0
 40
1.0
 71
1
 41
1.0
 91
-1023410177
 42
1.0
 72
1
  3

 73
1
 74
1
 75
1
 44
0.5
 73
0
 45
1.0
 46
1.0
 77
1
  4

 78
1
 79
1
170
1
 48
1.0
171
1
  6

172
1
173
1
174
1
140
1.0
141
1.0
175
1
  7

176
1
177
1
178
1
143
1.0
179
1
  8

270
1
271
1
272
1
145
1.0
146
1.0
273
1
  9

274
1
275
1
276
1
 42
1.0
 72
1
  3

 73
1
 74
1
 75
1
 94
63
  0
MLINESTYLE
  5
22
102
{ACAD_REACTORS
330
10
102
}
330
10
100
AcDbMlineStyle
  2
Standard
 70
0
  3

 62
256
 51
90.0
 52
90.0
 71
2
 49
0.5
 62
256
  6
BYLAYER
 49
-0.5
 62
256
  6
BYLAYER
  0
MLEADERSTYLE
  5
2C
102
{ACAD_REACTORS
330
F
102
}
330
F
100
AcDbMLeaderStyle
179
2
170
2
171
1
172
0
 90
2
 40
0.0
 41
0.0
173
1
 91
-1056964608
 92
-2
290
1
 42
2.0
291
1
 43
8.0
  3
Standard
 44
4.0
300

342
29
174
1
175
1
176
0
178
1
 93
-1056964608
 45
4.0
292
0
297
0
 46
4.0
 94
-1056964608
 47
1.0
 49
1.0
140
1.0
294
1
141
0.0
177
0
142
1.0
295
0
296
0
143
3.75
271
0
272
9
273
9
  0
DICTIONARY
  5
2D
330
A
100
AcDbDictionary
281
1
  3
CREATED_BY_EZDXF
350
2E
  3
WRITTEN_BY_EZDXF
350
3D
  0
DICTIONARYVAR
  5
2E
330
2D
100
DictionaryVariables
280
0
  1
1.1.1 @ 2024-05-17T23:01:03.585034+00:00
  0
DICTIONARYVAR
  5
3D
330
2D
100
DictionaryVariables
280
0
  1
1.1.1 @ 2024-05-17T23:01:03.589724+00:00
  0
ENDSEC
  0
EOF
