solid OpenSCAD_Model
  facet normal 0 0 1
    outer loop
      vertex -58.6889 12.4747 30
      vertex -60 0 30
      vertex -58.6889 -12.4747 30
    endloop
  endfacet
  facet normal 0 0 1
    outer loop
      vertex -57.3185 -0.240398 30
      vertex -58.6889 12.4747 30
      vertex -54.8127 -24.4042 30
    endloop
  endfacet
  facet normal 0 0 1
    outer loop
      vertex -54.8127 -24.4042 30
      vertex -58.6889 12.4747 30
      vertex -58.6889 -12.4747 30
    endloop
  endfacet
  facet normal 0 0 1
    outer loop
      vertex 56.1159 -11.682 30
      vertex 56.0907 -11.9224 30
      vertex 58.6889 -12.4747 30
    endloop
  endfacet
  facet normal 0 0 1
    outer loop
      vertex -46.3921 -33.7058 30
      vertex -52.2653 -23.5331 30
      vertex -48.541 -35.2671 30
    endloop
  endfacet
  facet normal 0 0 1
    outer loop
      vertex -48.541 35.2671 30
      vertex -58.6889 12.4747 30
      vertex -40.1478 44.5887 30
    endloop
  endfacet
  facet normal 0 0 1
    outer loop
      vertex -54.8127 24.4042 30
      vertex -58.6889 12.4747 30
      vertex -48.541 35.2671 30
    endloop
  endfacet
  facet normal 0 0 1
    outer loop
      vertex -56.0907 -11.9224 30
      vertex -57.3185 -0.240398 30
      vertex -54.8127 -24.4042 30
    endloop
  endfacet
  facet normal 0 0 1
    outer loop
      vertex -57.3438 0 30
      vertex -58.6889 12.4747 30
      vertex -57.3185 -0.240398 30
    endloop
  endfacet
  facet normal 0 0 1
    outer loop
      vertex -56.0907 11.9224 30
      vertex -52.4608 23.0939 30
      vertex -58.6889 12.4747 30
    endloop
  endfacet
  facet normal 0 0 1
    outer loop
      vertex 46.3921 -33.7058 30
      vertex 38.5322 -42.4351 30
      vertex 48.541 -35.2671 30
    endloop
  endfacet
  facet normal 0 0 1
    outer loop
      vertex -17.7202 54.5371 30
      vertex -6.23049 56.9794 30
      vertex -6.27171 59.6713 30
    endloop
  endfacet
  facet normal 0 0 1
    outer loop
      vertex 56.0907 -11.9224 30
      vertex 52.4608 -23.0939 30
      vertex 58.6889 -12.4747 30
    endloop
  endfacet
  facet normal 0 0 1
    outer loop
      vertex -28.6719 49.6611 30
      vertex -17.941 54.4388 30
      vertex -18.541 57.0634 30
    endloop
  endfacet
  facet normal 0 0 1
    outer loop
      vertex -52.3861 23.3238 30
      vertex -58.6889 12.4747 30
      vertex -52.4608 23.0939 30
    endloop
  endfacet
  facet normal 0 0 1
    outer loop
      vertex -40.1478 44.5887 30
      vertex -58.6889 12.4747 30
      vertex -52.3861 23.3238 30
    endloop
  endfacet
  facet normal 0 0 1
    outer loop
      vertex -40.1478 44.5887 30
      vertex -52.3861 23.3238 30
      vertex -46.5129 33.4965 30
    endloop
  endfacet
  facet normal 0 0 1
    outer loop
      vertex -38.3705 42.6147 30
      vertex -28.8674 49.5191 30
      vertex -30 51.9615 30
    endloop
  endfacet
  facet normal 0 0 1
    outer loop
      vertex -40.1478 44.5887 30
      vertex -46.5129 33.4965 30
      vertex -46.3921 33.7058 30
    endloop
  endfacet
  facet normal 0 0 1
    outer loop
      vertex -40.1478 44.5887 30
      vertex -38.5322 42.4351 30
      vertex -30 51.9615 30
    endloop
  endfacet
  facet normal 0 0 1
    outer loop
      vertex -38.5322 42.4351 30
      vertex -38.3705 42.6147 30
      vertex -30 51.9615 30
    endloop
  endfacet
  facet normal 0 0 1
    outer loop
      vertex -30 51.9615 30
      vertex -28.8674 49.5191 30
      vertex -18.541 57.0634 30
    endloop
  endfacet
  facet normal 0 0 1
    outer loop
      vertex -46.3921 33.7058 30
      vertex -38.5322 42.4351 30
      vertex -40.1478 44.5887 30
    endloop
  endfacet
  facet normal 0 0 1
    outer loop
      vertex -28.8674 49.5191 30
      vertex -28.6719 49.6611 30
      vertex -18.541 57.0634 30
    endloop
  endfacet
  facet normal 0 0 1
    outer loop
      vertex 56.0907 11.9224 30
      vertex 57.3185 0.240398 30
      vertex 60 0 30
    endloop
  endfacet
  facet normal 0 0 1
    outer loop
      vertex -18.541 57.0634 30
      vertex -17.941 54.4388 30
      vertex -6.27171 59.6713 30
    endloop
  endfacet
  facet normal 0 0 1
    outer loop
      vertex -17.941 54.4388 30
      vertex -17.7202 54.5371 30
      vertex -6.27171 59.6713 30
    endloop
  endfacet
  facet normal 0 0 1
    outer loop
      vertex -6.27171 59.6713 30
      vertex -6.23049 56.9794 30
      vertex 6.27171 59.6713 30
    endloop
  endfacet
  facet normal 0 0 1
    outer loop
      vertex -6.23049 56.9794 30
      vertex -5.99405 57.0296 30
      vertex 6.27171 59.6713 30
    endloop
  endfacet
  facet normal 0 0 1
    outer loop
      vertex 6.27171 59.6713 30
      vertex 5.99405 57.0296 30
      vertex 18.541 57.0634 30
    endloop
  endfacet
  facet normal 0 0 1
    outer loop
      vertex 18.541 57.0634 30
      vertex 17.4838 54.5874 30
      vertex 30 51.9615 30
    endloop
  endfacet
  facet normal 0 0 1
    outer loop
      vertex 17.4838 54.5874 30
      vertex 17.7202 54.5371 30
      vertex 30 51.9615 30
    endloop
  endfacet
  facet normal 0 0 1
    outer loop
      vertex 30 51.9615 30
      vertex 28.4511 49.7595 30
      vertex 40.1478 44.5887 30
    endloop
  endfacet
  facet normal 0 0 1
    outer loop
      vertex 28.4511 49.7595 30
      vertex 28.6719 49.6611 30
      vertex 40.1478 44.5887 30
    endloop
  endfacet
  facet normal 0 0 1
    outer loop
      vertex 40.1478 44.5887 30
      vertex 38.1749 42.7568 30
      vertex 48.541 35.2671 30
    endloop
  endfacet
  facet normal 0 0 1
    outer loop
      vertex 38.1749 42.7568 30
      vertex 38.3705 42.6147 30
      vertex 48.541 35.2671 30
    endloop
  endfacet
  facet normal 0 0 1
    outer loop
      vertex 48.541 35.2671 30
      vertex 46.2303 33.8854 30
      vertex 54.8127 24.4042 30
    endloop
  endfacet
  facet normal 0 0 1
    outer loop
      vertex 46.2303 33.8854 30
      vertex 46.3921 33.7058 30
      vertex 54.8127 24.4042 30
    endloop
  endfacet
  facet normal 0 0 1
    outer loop
      vertex 54.8127 24.4042 30
      vertex 52.2653 23.5331 30
      vertex 58.6889 12.4747 30
    endloop
  endfacet
  facet normal 0 0 1
    outer loop
      vertex 52.2653 23.5331 30
      vertex 52.3861 23.3238 30
      vertex 58.6889 12.4747 30
    endloop
  endfacet
  facet normal 0 0 1
    outer loop
      vertex 58.6889 12.4747 30
      vertex 56.016 12.1523 30
      vertex 60 0 30
    endloop
  endfacet
  facet normal 0 0 1
    outer loop
      vertex 56.016 12.1523 30
      vertex 56.0907 11.9224 30
      vertex 60 0 30
    endloop
  endfacet
  facet normal 0 0 1
    outer loop
      vertex 60 0 30
      vertex 57.3185 0.240398 30
      vertex 58.6889 -12.4747 30
    endloop
  endfacet
  facet normal 0 0 1
    outer loop
      vertex 57.3185 0.240398 30
      vertex 57.3438 0 30
      vertex 58.6889 -12.4747 30
    endloop
  endfacet
  facet normal 0 0 1
    outer loop
      vertex 57.3438 0 30
      vertex 56.1159 -11.682 30
      vertex 58.6889 -12.4747 30
    endloop
  endfacet
  facet normal 0 0 1
    outer loop
      vertex 52.3861 -23.3238 30
      vertex 46.5129 -33.4965 30
      vertex 54.8127 -24.4042 30
    endloop
  endfacet
  facet normal 0 0 1
    outer loop
      vertex 58.6889 -12.4747 30
      vertex 52.4608 -23.0939 30
      vertex 54.8127 -24.4042 30
    endloop
  endfacet
  facet normal 0 0 1
    outer loop
      vertex 52.4608 -23.0939 30
      vertex 52.3861 -23.3238 30
      vertex 54.8127 -24.4042 30
    endloop
  endfacet
  facet normal 0 0 1
    outer loop
      vertex 54.8127 -24.4042 30
      vertex 46.5129 -33.4965 30
      vertex 48.541 -35.2671 30
    endloop
  endfacet
  facet normal 0 0 1
    outer loop
      vertex 46.5129 -33.4965 30
      vertex 46.3921 -33.7058 30
      vertex 48.541 -35.2671 30
    endloop
  endfacet
  facet normal 0 0 1
    outer loop
      vertex -56.1159 11.682 30
      vertex -56.0907 11.9224 30
      vertex -58.6889 12.4747 30
    endloop
  endfacet
  facet normal 0 0 1
    outer loop
      vertex 48.541 -35.2671 30
      vertex 38.5322 -42.4351 30
      vertex 40.1478 -44.5887 30
    endloop
  endfacet
  facet normal 0 0 1
    outer loop
      vertex 38.5322 -42.4351 30
      vertex 38.3705 -42.6147 30
      vertex 40.1478 -44.5887 30
    endloop
  endfacet
  facet normal 0 0 1
    outer loop
      vertex -5.99405 57.0296 30
      vertex 5.99405 57.0296 30
      vertex 6.27171 59.6713 30
    endloop
  endfacet
  facet normal 0 0 1
    outer loop
      vertex 40.1478 -44.5887 30
      vertex 28.8674 -49.5191 30
      vertex 30 -51.9615 30
    endloop
  endfacet
  facet normal 0 0 1
    outer loop
      vertex 28.8674 -49.5191 30
      vertex 28.6719 -49.6611 30
      vertex 30 -51.9615 30
    endloop
  endfacet
  facet normal 0 0 1
    outer loop
      vertex 5.99405 57.0296 30
      vertex 17.4838 54.5874 30
      vertex 18.541 57.0634 30
    endloop
  endfacet
  facet normal 0 0 1
    outer loop
      vertex 30 -51.9615 30
      vertex 17.941 -54.4388 30
      vertex 18.541 -57.0634 30
    endloop
  endfacet
  facet normal 0 0 1
    outer loop
      vertex 17.7202 54.5371 30
      vertex 28.4511 49.7595 30
      vertex 30 51.9615 30
    endloop
  endfacet
  facet normal 0 0 1
    outer loop
      vertex 17.941 -54.4388 30
      vertex 17.7202 -54.5371 30
      vertex 18.541 -57.0634 30
    endloop
  endfacet
  facet normal 0 0 1
    outer loop
      vertex 18.541 -57.0634 30
      vertex 6.23049 -56.9794 30
      vertex 6.27171 -59.6713 30
    endloop
  endfacet
  facet normal 0 0 1
    outer loop
      vertex 28.6719 49.6611 30
      vertex 38.1749 42.7568 30
      vertex 40.1478 44.5887 30
    endloop
  endfacet
  facet normal 0 0 1
    outer loop
      vertex 6.23049 -56.9794 30
      vertex 5.99405 -57.0296 30
      vertex 6.27171 -59.6713 30
    endloop
  endfacet
  facet normal 0 0 1
    outer loop
      vertex 6.27171 -59.6713 30
      vertex -5.99405 -57.0296 30
      vertex -6.27171 -59.6713 30
    endloop
  endfacet
  facet normal 0 0 1
    outer loop
      vertex 38.3705 42.6147 30
      vertex 46.2303 33.8854 30
      vertex 48.541 35.2671 30
    endloop
  endfacet
  facet normal 0 0 1
    outer loop
      vertex -6.27171 -59.6713 30
      vertex -17.4838 -54.5874 30
      vertex -18.541 -57.0634 30
    endloop
  endfacet
  facet normal 0 0 1
    outer loop
      vertex -17.4838 -54.5874 30
      vertex -17.7202 -54.5371 30
      vertex -18.541 -57.0634 30
    endloop
  endfacet
  facet normal 0 0 1
    outer loop
      vertex 46.3921 33.7058 30
      vertex 52.2653 23.5331 30
      vertex 54.8127 24.4042 30
    endloop
  endfacet
  facet normal 0 0 1
    outer loop
      vertex -18.541 -57.0634 30
      vertex -28.4511 -49.7595 30
      vertex -30 -51.9615 30
    endloop
  endfacet
  facet normal 0 0 1
    outer loop
      vertex -28.4511 -49.7595 30
      vertex -28.6719 -49.6611 30
      vertex -30 -51.9615 30
    endloop
  endfacet
  facet normal 0 0 1
    outer loop
      vertex 52.3861 23.3238 30
      vertex 56.016 12.1523 30
      vertex 58.6889 12.4747 30
    endloop
  endfacet
  facet normal 0 0 1
    outer loop
      vertex -30 -51.9615 30
      vertex -38.1749 -42.7568 30
      vertex -40.1478 -44.5887 30
    endloop
  endfacet
  facet normal 0 0 1
    outer loop
      vertex -38.1749 -42.7568 30
      vertex -38.3705 -42.6147 30
      vertex -40.1478 -44.5887 30
    endloop
  endfacet
  facet normal 0 0 1
    outer loop
      vertex -40.1478 -44.5887 30
      vertex -46.2303 -33.8854 30
      vertex -48.541 -35.2671 30
    endloop
  endfacet
  facet normal 0 0 1
    outer loop
      vertex -46.2303 -33.8854 30
      vertex -46.3921 -33.7058 30
      vertex -48.541 -35.2671 30
    endloop
  endfacet
  facet normal 0 0 1
    outer loop
      vertex -48.541 -35.2671 30
      vertex -52.2653 -23.5331 30
      vertex -54.8127 -24.4042 30
    endloop
  endfacet
  facet normal 0 0 1
    outer loop
      vertex -52.2653 -23.5331 30
      vertex -52.3861 -23.3238 30
      vertex -54.8127 -24.4042 30
    endloop
  endfacet
  facet normal 0 0 1
    outer loop
      vertex -52.3861 -23.3238 30
      vertex -56.016 -12.1523 30
      vertex -54.8127 -24.4042 30
    endloop
  endfacet
  facet normal 0 0 1
    outer loop
      vertex -56.016 -12.1523 30
      vertex -56.0907 -11.9224 30
      vertex -54.8127 -24.4042 30
    endloop
  endfacet
  facet normal 0 0 1
    outer loop
      vertex 38.3705 -42.6147 30
      vertex 28.8674 -49.5191 30
      vertex 40.1478 -44.5887 30
    endloop
  endfacet
  facet normal 0 0 1
    outer loop
      vertex 28.6719 -49.6611 30
      vertex 17.941 -54.4388 30
      vertex 30 -51.9615 30
    endloop
  endfacet
  facet normal 0 0 1
    outer loop
      vertex 17.7202 -54.5371 30
      vertex 6.23049 -56.9794 30
      vertex 18.541 -57.0634 30
    endloop
  endfacet
  facet normal 0 0 1
    outer loop
      vertex 5.99405 -57.0296 30
      vertex -5.99405 -57.0296 30
      vertex 6.27171 -59.6713 30
    endloop
  endfacet
  facet normal 0 0 1
    outer loop
      vertex -5.99405 -57.0296 30
      vertex -17.4838 -54.5874 30
      vertex -6.27171 -59.6713 30
    endloop
  endfacet
  facet normal 0 0 1
    outer loop
      vertex -17.7202 -54.5371 30
      vertex -28.4511 -49.7595 30
      vertex -18.541 -57.0634 30
    endloop
  endfacet
  facet normal 0 0 1
    outer loop
      vertex -28.6719 -49.6611 30
      vertex -38.1749 -42.7568 30
      vertex -30 -51.9615 30
    endloop
  endfacet
  facet normal 0 0 1
    outer loop
      vertex -38.3705 -42.6147 30
      vertex -46.2303 -33.8854 30
      vertex -40.1478 -44.5887 30
    endloop
  endfacet
  facet normal 0 0 1
    outer loop
      vertex -57.3438 0 30
      vertex -56.1159 11.682 30
      vertex -58.6889 12.4747 30
    endloop
  endfacet
  facet normal -0.828887 -0.0871195 -0.552591
    outer loop
      vertex -58.6889 -12.4747 30
      vertex -60 0 30
      vertex -39.1259 -8.31647 0
    endloop
  endfacet
  facet normal -0.828887 -0.0871195 -0.552591
    outer loop
      vertex -39.1259 -8.31647 0
      vertex -60 0 30
      vertex -40 0 0
    endloop
  endfacet
  facet normal -0.828887 0.0871195 -0.552591
    outer loop
      vertex -40 0 0
      vertex -60 0 30
      vertex -58.6889 12.4747 30
    endloop
  endfacet
  facet normal -0.828887 0.0871195 -0.552591
    outer loop
      vertex -40 0 0
      vertex -58.6889 12.4747 30
      vertex -39.1259 8.31647 0
    endloop
  endfacet
  facet normal -0.79266 0.257551 -0.552591
    outer loop
      vertex -39.1259 8.31647 0
      vertex -58.6889 12.4747 30
      vertex -54.8127 24.4042 30
    endloop
  endfacet
  facet normal -0.79266 0.257551 -0.552591
    outer loop
      vertex -39.1259 8.31647 0
      vertex -54.8127 24.4042 30
      vertex -36.5418 16.2695 0
    endloop
  endfacet
  facet normal -0.721791 0.416726 -0.552591
    outer loop
      vertex -36.5418 16.2695 0
      vertex -54.8127 24.4042 30
      vertex -48.541 35.2671 30
    endloop
  endfacet
  facet normal -0.721791 0.416726 -0.552591
    outer loop
      vertex -36.5418 16.2695 0
      vertex -48.541 35.2671 30
      vertex -32.3607 23.5114 0
    endloop
  endfacet
  facet normal -0.619376 0.557689 -0.552591
    outer loop
      vertex -32.3607 23.5114 0
      vertex -48.541 35.2671 30
      vertex -40.1478 44.5887 30
    endloop
  endfacet
  facet normal -0.619376 0.557689 -0.552591
    outer loop
      vertex -32.3607 23.5114 0
      vertex -40.1478 44.5887 30
      vertex -26.7652 29.7258 0
    endloop
  endfacet
  facet normal -0.489891 0.674277 -0.552591
    outer loop
      vertex -26.7652 29.7258 0
      vertex -40.1478 44.5887 30
      vertex -30 51.9615 30
    endloop
  endfacet
  facet normal -0.489891 0.674277 -0.552591
    outer loop
      vertex -26.7652 29.7258 0
      vertex -30 51.9615 30
      vertex -20 34.641 0
    endloop
  endfacet
  facet normal -0.338996 0.761397 -0.552591
    outer loop
      vertex -20 34.641 0
      vertex -30 51.9615 30
      vertex -18.541 57.0634 30
    endloop
  endfacet
  facet normal -0.338996 0.761397 -0.552591
    outer loop
      vertex -12.3607 38.0423 0
      vertex -20 34.641 0
      vertex -18.541 57.0634 30
    endloop
  endfacet
  facet normal -0.173285 0.81524 -0.552591
    outer loop
      vertex -12.3607 38.0423 0
      vertex -18.541 57.0634 30
      vertex -6.27171 59.6713 30
    endloop
  endfacet
  facet normal -0.173285 0.81524 -0.552591
    outer loop
      vertex -4.18114 39.7809 0
      vertex -12.3607 38.0423 0
      vertex -6.27171 59.6713 30
    endloop
  endfacet
  facet normal 0 0.833452 -0.552591
    outer loop
      vertex -6.27171 59.6713 30
      vertex 6.27171 59.6713 30
      vertex -4.18114 39.7809 0
    endloop
  endfacet
  facet normal 0 0.833452 -0.552591
    outer loop
      vertex -4.18114 39.7809 0
      vertex 6.27171 59.6713 30
      vertex 4.18114 39.7809 0
    endloop
  endfacet
  facet normal 0.173285 0.81524 -0.552591
    outer loop
      vertex 18.541 57.0634 30
      vertex 4.18114 39.7809 0
      vertex 6.27171 59.6713 30
    endloop
  endfacet
  facet normal 0.173285 0.81524 -0.552591
    outer loop
      vertex 12.3607 38.0423 0
      vertex 4.18114 39.7809 0
      vertex 18.541 57.0634 30
    endloop
  endfacet
  facet normal 0.338996 0.761397 -0.552591
    outer loop
      vertex 30 51.9615 30
      vertex 12.3607 38.0423 0
      vertex 18.541 57.0634 30
    endloop
  endfacet
  facet normal 0.338996 0.761397 -0.552591
    outer loop
      vertex 20 34.641 0
      vertex 12.3607 38.0423 0
      vertex 30 51.9615 30
    endloop
  endfacet
  facet normal 0.489891 0.674277 -0.552591
    outer loop
      vertex 40.1478 44.5887 30
      vertex 20 34.641 0
      vertex 30 51.9615 30
    endloop
  endfacet
  facet normal 0.489891 0.674277 -0.552591
    outer loop
      vertex 26.7652 29.7258 0
      vertex 20 34.641 0
      vertex 40.1478 44.5887 30
    endloop
  endfacet
  facet normal 0.619376 0.557689 -0.552591
    outer loop
      vertex 48.541 35.2671 30
      vertex 26.7652 29.7258 0
      vertex 40.1478 44.5887 30
    endloop
  endfacet
  facet normal 0.619376 0.557689 -0.552591
    outer loop
      vertex 32.3607 23.5114 0
      vertex 26.7652 29.7258 0
      vertex 48.541 35.2671 30
    endloop
  endfacet
  facet normal 0.721791 0.416726 -0.552591
    outer loop
      vertex 54.8127 24.4042 30
      vertex 32.3607 23.5114 0
      vertex 48.541 35.2671 30
    endloop
  endfacet
  facet normal 0.721791 0.416726 -0.552591
    outer loop
      vertex 36.5418 16.2695 0
      vertex 32.3607 23.5114 0
      vertex 54.8127 24.4042 30
    endloop
  endfacet
  facet normal 0.79266 0.257551 -0.552591
    outer loop
      vertex 58.6889 12.4747 30
      vertex 36.5418 16.2695 0
      vertex 54.8127 24.4042 30
    endloop
  endfacet
  facet normal 0.79266 0.257551 -0.552591
    outer loop
      vertex 39.1259 8.31647 0
      vertex 36.5418 16.2695 0
      vertex 58.6889 12.4747 30
    endloop
  endfacet
  facet normal 0.828887 0.0871195 -0.552591
    outer loop
      vertex 60 0 30
      vertex 39.1259 8.31647 0
      vertex 58.6889 12.4747 30
    endloop
  endfacet
  facet normal 0.828887 0.0871195 -0.552591
    outer loop
      vertex 40 0 0
      vertex 39.1259 8.31647 0
      vertex 60 0 30
    endloop
  endfacet
  facet normal 0.828887 -0.0871195 -0.552591
    outer loop
      vertex 58.6889 -12.4747 30
      vertex 40 0 0
      vertex 60 0 30
    endloop
  endfacet
  facet normal 0.828887 -0.0871195 -0.552591
    outer loop
      vertex 58.6889 -12.4747 30
      vertex 39.1259 -8.31647 0
      vertex 40 0 0
    endloop
  endfacet
  facet normal 0.79266 -0.257551 -0.552591
    outer loop
      vertex 54.8127 -24.4042 30
      vertex 39.1259 -8.31647 0
      vertex 58.6889 -12.4747 30
    endloop
  endfacet
  facet normal 0.79266 -0.257551 -0.552591
    outer loop
      vertex 54.8127 -24.4042 30
      vertex 36.5418 -16.2695 0
      vertex 39.1259 -8.31647 0
    endloop
  endfacet
  facet normal 0.721791 -0.416726 -0.552591
    outer loop
      vertex 48.541 -35.2671 30
      vertex 36.5418 -16.2695 0
      vertex 54.8127 -24.4042 30
    endloop
  endfacet
  facet normal 0.721791 -0.416726 -0.552591
    outer loop
      vertex 48.541 -35.2671 30
      vertex 32.3607 -23.5114 0
      vertex 36.5418 -16.2695 0
    endloop
  endfacet
  facet normal 0.619376 -0.557689 -0.552591
    outer loop
      vertex 40.1478 -44.5887 30
      vertex 32.3607 -23.5114 0
      vertex 48.541 -35.2671 30
    endloop
  endfacet
  facet normal 0.619376 -0.557689 -0.552591
    outer loop
      vertex 40.1478 -44.5887 30
      vertex 26.7652 -29.7258 0
      vertex 32.3607 -23.5114 0
    endloop
  endfacet
  facet normal 0.489891 -0.674277 -0.552591
    outer loop
      vertex 30 -51.9615 30
      vertex 26.7652 -29.7258 0
      vertex 40.1478 -44.5887 30
    endloop
  endfacet
  facet normal 0.489891 -0.674277 -0.552591
    outer loop
      vertex 30 -51.9615 30
      vertex 20 -34.641 0
      vertex 26.7652 -29.7258 0
    endloop
  endfacet
  facet normal 0.338996 -0.761397 -0.552591
    outer loop
      vertex 30 -51.9615 30
      vertex 18.541 -57.0634 30
      vertex 20 -34.641 0
    endloop
  endfacet
  facet normal 0.338996 -0.761397 -0.552591
    outer loop
      vertex 18.541 -57.0634 30
      vertex 12.3607 -38.0423 0
      vertex 20 -34.641 0
    endloop
  endfacet
  facet normal 0.173285 -0.81524 -0.552591
    outer loop
      vertex 18.541 -57.0634 30
      vertex 6.27171 -59.6713 30
      vertex 12.3607 -38.0423 0
    endloop
  endfacet
  facet normal 0.173285 -0.81524 -0.552591
    outer loop
      vertex 6.27171 -59.6713 30
      vertex 4.18114 -39.7809 0
      vertex 12.3607 -38.0423 0
    endloop
  endfacet
  facet normal 0 -0.833452 -0.552591
    outer loop
      vertex 6.27171 -59.6713 30
      vertex -6.27171 -59.6713 30
      vertex -4.18114 -39.7809 0
    endloop
  endfacet
  facet normal 0 -0.833452 -0.552591
    outer loop
      vertex 4.18114 -39.7809 0
      vertex 6.27171 -59.6713 30
      vertex -4.18114 -39.7809 0
    endloop
  endfacet
  facet normal -0.173285 -0.81524 -0.552591
    outer loop
      vertex -6.27171 -59.6713 30
      vertex -18.541 -57.0634 30
      vertex -4.18114 -39.7809 0
    endloop
  endfacet
  facet normal -0.173285 -0.81524 -0.552591
    outer loop
      vertex -4.18114 -39.7809 0
      vertex -18.541 -57.0634 30
      vertex -12.3607 -38.0423 0
    endloop
  endfacet
  facet normal -0.338996 -0.761397 -0.552591
    outer loop
      vertex -18.541 -57.0634 30
      vertex -30 -51.9615 30
      vertex -12.3607 -38.0423 0
    endloop
  endfacet
  facet normal -0.338996 -0.761397 -0.552591
    outer loop
      vertex -12.3607 -38.0423 0
      vertex -30 -51.9615 30
      vertex -20 -34.641 0
    endloop
  endfacet
  facet normal -0.489891 -0.674277 -0.552591
    outer loop
      vertex -30 -51.9615 30
      vertex -40.1478 -44.5887 30
      vertex -20 -34.641 0
    endloop
  endfacet
  facet normal -0.489891 -0.674277 -0.552591
    outer loop
      vertex -20 -34.641 0
      vertex -40.1478 -44.5887 30
      vertex -26.7652 -29.7258 0
    endloop
  endfacet
  facet normal -0.619376 -0.557689 -0.552591
    outer loop
      vertex -40.1478 -44.5887 30
      vertex -48.541 -35.2671 30
      vertex -26.7652 -29.7258 0
    endloop
  endfacet
  facet normal -0.619376 -0.557689 -0.552591
    outer loop
      vertex -26.7652 -29.7258 0
      vertex -48.541 -35.2671 30
      vertex -32.3607 -23.5114 0
    endloop
  endfacet
  facet normal -0.721791 -0.416726 -0.552591
    outer loop
      vertex -48.541 -35.2671 30
      vertex -54.8127 -24.4042 30
      vertex -32.3607 -23.5114 0
    endloop
  endfacet
  facet normal -0.721791 -0.416726 -0.552591
    outer loop
      vertex -32.3607 -23.5114 0
      vertex -54.8127 -24.4042 30
      vertex -36.5418 -16.2695 0
    endloop
  endfacet
  facet normal -0.79266 -0.257551 -0.552591
    outer loop
      vertex -54.8127 -24.4042 30
      vertex -58.6889 -12.4747 30
      vertex -36.5418 -16.2695 0
    endloop
  endfacet
  facet normal -0.79266 -0.257551 -0.552591
    outer loop
      vertex -36.5418 -16.2695 0
      vertex -58.6889 -12.4747 30
      vertex -39.1259 -8.31647 0
    endloop
  endfacet
  facet normal 0.832839 0.0875349 0.54655
    outer loop
      vertex -56.0907 -11.9224 30
      vertex -38.7591 -8.2385 3
      vertex -38.9175 -6.73114 3
    endloop
  endfacet
  facet normal 0.832839 0.0875349 0.54655
    outer loop
      vertex -57.3185 -0.240398 30
      vertex -56.0907 -11.9224 30
      vertex -38.9175 -6.73114 3
    endloop
  endfacet
  facet normal 0.832839 0.0875349 0.54655
    outer loop
      vertex -57.3185 -0.240398 30
      vertex -38.9175 -6.73114 3
      vertex -39.625 0 3
    endloop
  endfacet
  facet normal 0.832839 0.0875349 0.54655
    outer loop
      vertex -57.3438 0 30
      vertex -57.3185 -0.240398 30
      vertex -39.625 0 3
    endloop
  endfacet
  facet normal 0.79644 0.258779 0.54655
    outer loop
      vertex -56.016 -12.1523 30
      vertex -36.6676 -14.6755 3
      vertex -38.7591 -8.2385 3
    endloop
  endfacet
  facet normal 0.79644 0.258779 0.54655
    outer loop
      vertex -56.0907 -11.9224 30
      vertex -56.016 -12.1523 30
      vertex -38.7591 -8.2385 3
    endloop
  endfacet
  facet normal 0.79644 0.258779 0.54655
    outer loop
      vertex -52.3861 -23.3238 30
      vertex -36.1992 -16.1169 3
      vertex -36.6676 -14.6755 3
    endloop
  endfacet
  facet normal 0.79644 0.258779 0.54655
    outer loop
      vertex -56.016 -12.1523 30
      vertex -52.3861 -23.3238 30
      vertex -36.6676 -14.6755 3
    endloop
  endfacet
  facet normal 0.725232 0.418713 0.54655
    outer loop
      vertex -52.2653 -23.5331 30
      vertex -32.8151 -21.9784 3
      vertex -36.1992 -16.1169 3
    endloop
  endfacet
  facet normal 0.725232 0.418713 0.54655
    outer loop
      vertex -52.3861 -23.3238 30
      vertex -52.2653 -23.5331 30
      vertex -36.1992 -16.1169 3
    endloop
  endfacet
  facet normal 0.725232 0.418713 0.54655
    outer loop
      vertex -46.3921 -33.7058 30
      vertex -32.0573 -23.291 3
      vertex -32.8151 -21.9784 3
    endloop
  endfacet
  facet normal 0.725232 0.418713 0.54655
    outer loop
      vertex -52.2653 -23.5331 30
      vertex -46.3921 -33.7058 30
      vertex -32.8151 -21.9784 3
    endloop
  endfacet
  facet normal 0.622329 0.560348 0.54655
    outer loop
      vertex -46.2303 -33.8854 30
      vertex -27.5285 -28.3208 3
      vertex -32.0573 -23.291 3
    endloop
  endfacet
  facet normal 0.622329 0.560348 0.54655
    outer loop
      vertex -46.3921 -33.7058 30
      vertex -46.2303 -33.8854 30
      vertex -32.0573 -23.291 3
    endloop
  endfacet
  facet normal 0.622329 0.560348 0.54655
    outer loop
      vertex -38.3705 -42.6147 30
      vertex -26.5143 -29.4471 3
      vertex -27.5285 -28.3208 3
    endloop
  endfacet
  facet normal 0.622329 0.560348 0.54655
    outer loop
      vertex -46.2303 -33.8854 30
      vertex -38.3705 -42.6147 30
      vertex -27.5285 -28.3208 3
    endloop
  endfacet
  facet normal 0.492227 0.677492 0.54655
    outer loop
      vertex -21.0387 -33.4254 3
      vertex -26.5143 -29.4471 3
      vertex -38.1749 -42.7568 30
    endloop
  endfacet
  facet normal 0.492227 0.677492 0.54655
    outer loop
      vertex -38.1749 -42.7568 30
      vertex -26.5143 -29.4471 3
      vertex -38.3705 -42.6147 30
    endloop
  endfacet
  facet normal 0.492227 0.677492 0.54655
    outer loop
      vertex -19.8125 -34.3163 3
      vertex -21.0387 -33.4254 3
      vertex -28.6719 -49.6611 30
    endloop
  endfacet
  facet normal 0.492227 0.677492 0.54655
    outer loop
      vertex -28.6719 -49.6611 30
      vertex -21.0387 -33.4254 3
      vertex -38.1749 -42.7568 30
    endloop
  endfacet
  facet normal 0.340612 0.765027 0.54655
    outer loop
      vertex -13.6294 -37.0691 3
      vertex -19.8125 -34.3163 3
      vertex -28.4511 -49.7595 30
    endloop
  endfacet
  facet normal 0.340612 0.765027 0.54655
    outer loop
      vertex -28.4511 -49.7595 30
      vertex -19.8125 -34.3163 3
      vertex -28.6719 -49.6611 30
    endloop
  endfacet
  facet normal 0.340612 0.765027 0.54655
    outer loop
      vertex -12.2448 -37.6856 3
      vertex -13.6294 -37.0691 3
      vertex -17.7202 -54.5371 30
    endloop
  endfacet
  facet normal 0.340612 0.765027 0.54655
    outer loop
      vertex -17.7202 -54.5371 30
      vertex -13.6294 -37.0691 3
      vertex -28.4511 -49.7595 30
    endloop
  endfacet
  facet normal 0.174111 0.819126 0.54655
    outer loop
      vertex -5.62448 -39.0928 3
      vertex -12.2448 -37.6856 3
      vertex -17.4838 -54.5874 30
    endloop
  endfacet
  facet normal 0.174111 0.819126 0.54655
    outer loop
      vertex -17.4838 -54.5874 30
      vertex -12.2448 -37.6856 3
      vertex -17.7202 -54.5371 30
    endloop
  endfacet
  facet normal 0.174111 0.819126 0.54655
    outer loop
      vertex -4.14194 -39.4079 3
      vertex -5.62448 -39.0928 3
      vertex -5.99405 -57.0296 30
    endloop
  endfacet
  facet normal 0.174111 0.819126 0.54655
    outer loop
      vertex -5.99405 -57.0296 30
      vertex -5.62448 -39.0928 3
      vertex -17.4838 -54.5874 30
    endloop
  endfacet
  facet normal 0 0.837426 0.54655
    outer loop
      vertex 4.14194 -39.4079 3
      vertex -4.14194 -39.4079 3
      vertex 5.99405 -57.0296 30
    endloop
  endfacet
  facet normal 0 0.837426 0.54655
    outer loop
      vertex 5.99405 -57.0296 30
      vertex -4.14194 -39.4079 3
      vertex -5.99405 -57.0296 30
    endloop
  endfacet
  facet normal -0.174111 0.819126 0.54655
    outer loop
      vertex 6.23049 -56.9794 30
      vertex 10.7623 -38.0007 3
      vertex 5.99405 -57.0296 30
    endloop
  endfacet
  facet normal -0.174111 0.819126 0.54655
    outer loop
      vertex 5.99405 -57.0296 30
      vertex 10.7623 -38.0007 3
      vertex 4.14194 -39.4079 3
    endloop
  endfacet
  facet normal -0.174111 0.819126 0.54655
    outer loop
      vertex 12.2448 -37.6856 3
      vertex 10.7623 -38.0007 3
      vertex 17.7202 -54.5371 30
    endloop
  endfacet
  facet normal -0.174111 0.819126 0.54655
    outer loop
      vertex 17.7202 -54.5371 30
      vertex 10.7623 -38.0007 3
      vertex 6.23049 -56.9794 30
    endloop
  endfacet
  facet normal -0.340612 0.765027 0.54655
    outer loop
      vertex 17.941 -54.4388 30
      vertex 18.4279 -34.9327 3
      vertex 17.7202 -54.5371 30
    endloop
  endfacet
  facet normal -0.340612 0.765027 0.54655
    outer loop
      vertex 17.7202 -54.5371 30
      vertex 18.4279 -34.9327 3
      vertex 12.2448 -37.6856 3
    endloop
  endfacet
  facet normal -0.340612 0.765027 0.54655
    outer loop
      vertex 19.8125 -34.3163 3
      vertex 18.4279 -34.9327 3
      vertex 28.6719 -49.6611 30
    endloop
  endfacet
  facet normal -0.340612 0.765027 0.54655
    outer loop
      vertex 28.6719 -49.6611 30
      vertex 18.4279 -34.9327 3
      vertex 17.941 -54.4388 30
    endloop
  endfacet
  facet normal -0.492227 0.677492 0.54655
    outer loop
      vertex 28.8674 -49.5191 30
      vertex 25.2881 -30.338 3
      vertex 28.6719 -49.6611 30
    endloop
  endfacet
  facet normal -0.492227 0.677492 0.54655
    outer loop
      vertex 28.6719 -49.6611 30
      vertex 25.2881 -30.338 3
      vertex 19.8125 -34.3163 3
    endloop
  endfacet
  facet normal -0.492227 0.677492 0.54655
    outer loop
      vertex 38.3705 -42.6147 30
      vertex 26.5143 -29.4471 3
      vertex 28.8674 -49.5191 30
    endloop
  endfacet
  facet normal -0.492227 0.677492 0.54655
    outer loop
      vertex 28.8674 -49.5191 30
      vertex 26.5143 -29.4471 3
      vertex 25.2881 -30.338 3
    endloop
  endfacet
  facet normal -0.622329 0.560348 0.54655
    outer loop
      vertex 38.5322 -42.4351 30
      vertex 31.0431 -24.4173 3
      vertex 38.3705 -42.6147 30
    endloop
  endfacet
  facet normal -0.622329 0.560348 0.54655
    outer loop
      vertex 38.3705 -42.6147 30
      vertex 31.0431 -24.4173 3
      vertex 26.5143 -29.4471 3
    endloop
  endfacet
  facet normal -0.622329 0.560348 0.54655
    outer loop
      vertex 46.3921 -33.7058 30
      vertex 32.0573 -23.291 3
      vertex 38.5322 -42.4351 30
    endloop
  endfacet
  facet normal -0.622329 0.560348 0.54655
    outer loop
      vertex 38.5322 -42.4351 30
      vertex 32.0573 -23.291 3
      vertex 31.0431 -24.4173 3
    endloop
  endfacet
  facet normal -0.725232 0.418713 0.54655
    outer loop
      vertex 46.5129 -33.4965 30
      vertex 35.4414 -17.4295 3
      vertex 46.3921 -33.7058 30
    endloop
  endfacet
  facet normal -0.725232 0.418713 0.54655
    outer loop
      vertex 46.3921 -33.7058 30
      vertex 35.4414 -17.4295 3
      vertex 32.0573 -23.291 3
    endloop
  endfacet
  facet normal -0.725232 0.418713 0.54655
    outer loop
      vertex 52.3861 -23.3238 30
      vertex 36.1992 -16.1169 3
      vertex 46.5129 -33.4965 30
    endloop
  endfacet
  facet normal -0.725232 0.418713 0.54655
    outer loop
      vertex 46.5129 -33.4965 30
      vertex 36.1992 -16.1169 3
      vertex 35.4414 -17.4295 3
    endloop
  endfacet
  facet normal -0.79644 0.258779 0.54655
    outer loop
      vertex 52.4608 -23.0939 30
      vertex 38.2907 -9.67998 3
      vertex 52.3861 -23.3238 30
    endloop
  endfacet
  facet normal -0.79644 0.258779 0.54655
    outer loop
      vertex 52.3861 -23.3238 30
      vertex 38.2907 -9.67998 3
      vertex 36.1992 -16.1169 3
    endloop
  endfacet
  facet normal -0.79644 0.258779 0.54655
    outer loop
      vertex 56.0907 -11.9224 30
      vertex 38.7591 -8.2385 3
      vertex 52.4608 -23.0939 30
    endloop
  endfacet
  facet normal -0.79644 0.258779 0.54655
    outer loop
      vertex 52.4608 -23.0939 30
      vertex 38.7591 -8.2385 3
      vertex 38.2907 -9.67998 3
    endloop
  endfacet
  facet normal -0.832839 0.0875349 0.54655
    outer loop
      vertex 56.1159 -11.682 30
      vertex 39.4666 -1.50736 3
      vertex 56.0907 -11.9224 30
    endloop
  endfacet
  facet normal -0.832839 0.0875349 0.54655
    outer loop
      vertex 56.0907 -11.9224 30
      vertex 39.4666 -1.50736 3
      vertex 38.7591 -8.2385 3
    endloop
  endfacet
  facet normal -0.832839 0.0875349 0.54655
    outer loop
      vertex 57.3438 0 30
      vertex 39.625 0 3
      vertex 56.1159 -11.682 30
    endloop
  endfacet
  facet normal -0.832839 0.0875349 0.54655
    outer loop
      vertex 56.1159 -11.682 30
      vertex 39.625 0 3
      vertex 39.4666 -1.50736 3
    endloop
  endfacet
  facet normal -0.832839 -0.0875349 0.54655
    outer loop
      vertex 57.3438 0 30
      vertex 57.3185 0.240398 30
      vertex 39.625 0 3
    endloop
  endfacet
  facet normal -0.832839 -0.0875349 0.54655
    outer loop
      vertex 39.625 0 3
      vertex 57.3185 0.240398 30
      vertex 38.9175 6.73114 3
    endloop
  endfacet
  facet normal -0.832839 -0.0875349 0.54655
    outer loop
      vertex 57.3185 0.240398 30
      vertex 56.0907 11.9224 30
      vertex 38.9175 6.73114 3
    endloop
  endfacet
  facet normal -0.832839 -0.0875349 0.54655
    outer loop
      vertex 38.9175 6.73114 3
      vertex 56.0907 11.9224 30
      vertex 38.7591 8.2385 3
    endloop
  endfacet
  facet normal -0.79644 -0.258779 0.54655
    outer loop
      vertex 56.0907 11.9224 30
      vertex 56.016 12.1523 30
      vertex 38.7591 8.2385 3
    endloop
  endfacet
  facet normal -0.79644 -0.258779 0.54655
    outer loop
      vertex 38.7591 8.2385 3
      vertex 56.016 12.1523 30
      vertex 36.6676 14.6755 3
    endloop
  endfacet
  facet normal -0.79644 -0.258779 0.54655
    outer loop
      vertex 56.016 12.1523 30
      vertex 52.3861 23.3238 30
      vertex 36.6676 14.6755 3
    endloop
  endfacet
  facet normal -0.79644 -0.258779 0.54655
    outer loop
      vertex 36.6676 14.6755 3
      vertex 52.3861 23.3238 30
      vertex 36.1992 16.1169 3
    endloop
  endfacet
  facet normal -0.725232 -0.418713 0.54655
    outer loop
      vertex 52.3861 23.3238 30
      vertex 52.2653 23.5331 30
      vertex 36.1992 16.1169 3
    endloop
  endfacet
  facet normal -0.725232 -0.418713 0.54655
    outer loop
      vertex 36.1992 16.1169 3
      vertex 52.2653 23.5331 30
      vertex 32.8151 21.9784 3
    endloop
  endfacet
  facet normal -0.725232 -0.418713 0.54655
    outer loop
      vertex 52.2653 23.5331 30
      vertex 46.3921 33.7058 30
      vertex 32.8151 21.9784 3
    endloop
  endfacet
  facet normal -0.725232 -0.418713 0.54655
    outer loop
      vertex 32.8151 21.9784 3
      vertex 46.3921 33.7058 30
      vertex 32.0573 23.291 3
    endloop
  endfacet
  facet normal -0.622329 -0.560348 0.54655
    outer loop
      vertex 46.3921 33.7058 30
      vertex 46.2303 33.8854 30
      vertex 32.0573 23.291 3
    endloop
  endfacet
  facet normal -0.622329 -0.560348 0.54655
    outer loop
      vertex 32.0573 23.291 3
      vertex 46.2303 33.8854 30
      vertex 27.5285 28.3208 3
    endloop
  endfacet
  facet normal -0.622329 -0.560348 0.54655
    outer loop
      vertex 46.2303 33.8854 30
      vertex 38.3705 42.6147 30
      vertex 27.5285 28.3208 3
    endloop
  endfacet
  facet normal -0.622329 -0.560348 0.54655
    outer loop
      vertex 27.5285 28.3208 3
      vertex 38.3705 42.6147 30
      vertex 26.5143 29.4471 3
    endloop
  endfacet
  facet normal -0.492227 -0.677492 0.54655
    outer loop
      vertex 26.5143 29.4471 3
      vertex 38.3705 42.6147 30
      vertex 38.1749 42.7568 30
    endloop
  endfacet
  facet normal -0.492227 -0.677492 0.54655
    outer loop
      vertex 21.0387 33.4254 3
      vertex 26.5143 29.4471 3
      vertex 38.1749 42.7568 30
    endloop
  endfacet
  facet normal -0.492227 -0.677492 0.54655
    outer loop
      vertex 21.0387 33.4254 3
      vertex 38.1749 42.7568 30
      vertex 28.6719 49.6611 30
    endloop
  endfacet
  facet normal -0.492227 -0.677492 0.54655
    outer loop
      vertex 19.8125 34.3163 3
      vertex 21.0387 33.4254 3
      vertex 28.6719 49.6611 30
    endloop
  endfacet
  facet normal -0.340612 -0.765027 0.54655
    outer loop
      vertex 19.8125 34.3163 3
      vertex 28.6719 49.6611 30
      vertex 28.4511 49.7595 30
    endloop
  endfacet
  facet normal -0.340612 -0.765027 0.54655
    outer loop
      vertex 13.6294 37.0691 3
      vertex 19.8125 34.3163 3
      vertex 28.4511 49.7595 30
    endloop
  endfacet
  facet normal -0.340612 -0.765027 0.54655
    outer loop
      vertex 13.6294 37.0691 3
      vertex 28.4511 49.7595 30
      vertex 17.7202 54.5371 30
    endloop
  endfacet
  facet normal -0.340612 -0.765027 0.54655
    outer loop
      vertex 12.2448 37.6856 3
      vertex 13.6294 37.0691 3
      vertex 17.7202 54.5371 30
    endloop
  endfacet
  facet normal -0.174111 -0.819126 0.54655
    outer loop
      vertex 12.2448 37.6856 3
      vertex 17.7202 54.5371 30
      vertex 17.4838 54.5874 30
    endloop
  endfacet
  facet normal -0.174111 -0.819126 0.54655
    outer loop
      vertex 5.62448 39.0928 3
      vertex 12.2448 37.6856 3
      vertex 17.4838 54.5874 30
    endloop
  endfacet
  facet normal -0.174111 -0.819126 0.54655
    outer loop
      vertex 5.62448 39.0928 3
      vertex 17.4838 54.5874 30
      vertex 5.99405 57.0296 30
    endloop
  endfacet
  facet normal -0.174111 -0.819126 0.54655
    outer loop
      vertex 4.14194 39.4079 3
      vertex 5.62448 39.0928 3
      vertex 5.99405 57.0296 30
    endloop
  endfacet
  facet normal 0 -0.837426 0.54655
    outer loop
      vertex -4.14194 39.4079 3
      vertex 4.14194 39.4079 3
      vertex 5.99405 57.0296 30
    endloop
  endfacet
  facet normal 0 -0.837426 0.54655
    outer loop
      vertex -5.99405 57.0296 30
      vertex -4.14194 39.4079 3
      vertex 5.99405 57.0296 30
    endloop
  endfacet
  facet normal 0.174111 -0.819126 0.54655
    outer loop
      vertex -4.14194 39.4079 3
      vertex -5.99405 57.0296 30
      vertex -6.23049 56.9794 30
    endloop
  endfacet
  facet normal 0.174111 -0.819126 0.54655
    outer loop
      vertex -10.7623 38.0007 3
      vertex -4.14194 39.4079 3
      vertex -6.23049 56.9794 30
    endloop
  endfacet
  facet normal 0.174111 -0.819126 0.54655
    outer loop
      vertex -12.2448 37.6856 3
      vertex -10.7623 38.0007 3
      vertex -6.23049 56.9794 30
    endloop
  endfacet
  facet normal 0.174111 -0.819126 0.54655
    outer loop
      vertex -17.7202 54.5371 30
      vertex -12.2448 37.6856 3
      vertex -6.23049 56.9794 30
    endloop
  endfacet
  facet normal 0.340612 -0.765027 0.54655
    outer loop
      vertex -12.2448 37.6856 3
      vertex -17.7202 54.5371 30
      vertex -17.941 54.4388 30
    endloop
  endfacet
  facet normal 0.340612 -0.765027 0.54655
    outer loop
      vertex -18.4279 34.9327 3
      vertex -12.2448 37.6856 3
      vertex -17.941 54.4388 30
    endloop
  endfacet
  facet normal 0.340612 -0.765027 0.54655
    outer loop
      vertex -19.8125 34.3163 3
      vertex -18.4279 34.9327 3
      vertex -17.941 54.4388 30
    endloop
  endfacet
  facet normal 0.340612 -0.765027 0.54655
    outer loop
      vertex -28.6719 49.6611 30
      vertex -19.8125 34.3163 3
      vertex -17.941 54.4388 30
    endloop
  endfacet
  facet normal 0.492227 -0.677492 0.54655
    outer loop
      vertex -25.2881 30.338 3
      vertex -19.8125 34.3163 3
      vertex -28.6719 49.6611 30
    endloop
  endfacet
  facet normal 0.492227 -0.677492 0.54655
    outer loop
      vertex -28.8674 49.5191 30
      vertex -25.2881 30.338 3
      vertex -28.6719 49.6611 30
    endloop
  endfacet
  facet normal 0.492227 -0.677492 0.54655
    outer loop
      vertex -26.5143 29.4471 3
      vertex -25.2881 30.338 3
      vertex -28.8674 49.5191 30
    endloop
  endfacet
  facet normal 0.492227 -0.677492 0.54655
    outer loop
      vertex -38.3705 42.6147 30
      vertex -26.5143 29.4471 3
      vertex -28.8674 49.5191 30
    endloop
  endfacet
  facet normal 0.622329 -0.560348 0.54655
    outer loop
      vertex -31.0431 24.4173 3
      vertex -26.5143 29.4471 3
      vertex -38.3705 42.6147 30
    endloop
  endfacet
  facet normal 0.622329 -0.560348 0.54655
    outer loop
      vertex -38.5322 42.4351 30
      vertex -31.0431 24.4173 3
      vertex -38.3705 42.6147 30
    endloop
  endfacet
  facet normal 0.622329 -0.560348 0.54655
    outer loop
      vertex -32.0573 23.291 3
      vertex -31.0431 24.4173 3
      vertex -38.5322 42.4351 30
    endloop
  endfacet
  facet normal 0.622329 -0.560348 0.54655
    outer loop
      vertex -46.3921 33.7058 30
      vertex -32.0573 23.291 3
      vertex -38.5322 42.4351 30
    endloop
  endfacet
  facet normal 0.725232 -0.418713 0.54655
    outer loop
      vertex -35.4414 17.4295 3
      vertex -32.0573 23.291 3
      vertex -46.3921 33.7058 30
    endloop
  endfacet
  facet normal 0.725232 -0.418713 0.54655
    outer loop
      vertex -46.5129 33.4965 30
      vertex -35.4414 17.4295 3
      vertex -46.3921 33.7058 30
    endloop
  endfacet
  facet normal 0.725232 -0.418713 0.54655
    outer loop
      vertex -36.1992 16.1169 3
      vertex -35.4414 17.4295 3
      vertex -46.5129 33.4965 30
    endloop
  endfacet
  facet normal 0.725232 -0.418713 0.54655
    outer loop
      vertex -52.3861 23.3238 30
      vertex -36.1992 16.1169 3
      vertex -46.5129 33.4965 30
    endloop
  endfacet
  facet normal 0.79644 -0.258779 0.54655
    outer loop
      vertex -38.2907 9.67998 3
      vertex -36.1992 16.1169 3
      vertex -52.3861 23.3238 30
    endloop
  endfacet
  facet normal 0.79644 -0.258779 0.54655
    outer loop
      vertex -52.4608 23.0939 30
      vertex -38.2907 9.67998 3
      vertex -52.3861 23.3238 30
    endloop
  endfacet
  facet normal 0.79644 -0.258779 0.54655
    outer loop
      vertex -38.7591 8.2385 3
      vertex -38.2907 9.67998 3
      vertex -52.4608 23.0939 30
    endloop
  endfacet
  facet normal 0.79644 -0.258779 0.54655
    outer loop
      vertex -56.0907 11.9224 30
      vertex -38.7591 8.2385 3
      vertex -52.4608 23.0939 30
    endloop
  endfacet
  facet normal 0.832839 -0.0875349 0.54655
    outer loop
      vertex -39.4666 1.50736 3
      vertex -38.7591 8.2385 3
      vertex -56.0907 11.9224 30
    endloop
  endfacet
  facet normal 0.832839 -0.0875349 0.54655
    outer loop
      vertex -56.1159 11.682 30
      vertex -39.4666 1.50736 3
      vertex -56.0907 11.9224 30
    endloop
  endfacet
  facet normal 0.832839 -0.0875349 0.54655
    outer loop
      vertex -39.625 0 3
      vertex -39.4666 1.50736 3
      vertex -56.1159 11.682 30
    endloop
  endfacet
  facet normal 0.832839 -0.0875349 0.54655
    outer loop
      vertex -57.3438 0 30
      vertex -39.625 0 3
      vertex -56.1159 11.682 30
    endloop
  endfacet
  facet normal 0 0 -1
    outer loop
      vertex -40 0 0
      vertex -39.1259 8.31647 0
      vertex -39.1259 -8.31647 0
    endloop
  endfacet
  facet normal 0 0 -1
    outer loop
      vertex -39.1259 -8.31647 0
      vertex -39.1259 8.31647 0
      vertex -36.5418 16.2695 0
    endloop
  endfacet
  facet normal 0 0 -1
    outer loop
      vertex -39.1259 -8.31647 0
      vertex -36.5418 16.2695 0
      vertex -32.3607 23.5114 0
    endloop
  endfacet
  facet normal 0 0 -1
    outer loop
      vertex -39.1259 -8.31647 0
      vertex -32.3607 23.5114 0
      vertex -26.7652 29.7258 0
    endloop
  endfacet
  facet normal 0 0 -1
    outer loop
      vertex -39.1259 -8.31647 0
      vertex -26.7652 29.7258 0
      vertex -20 34.641 0
    endloop
  endfacet
  facet normal 0 0 -1
    outer loop
      vertex -39.1259 -8.31647 0
      vertex -20 34.641 0
      vertex -12.3607 38.0423 0
    endloop
  endfacet
  facet normal 0 0 -1
    outer loop
      vertex -39.1259 -8.31647 0
      vertex -12.3607 38.0423 0
      vertex -4.18114 39.7809 0
    endloop
  endfacet
  facet normal 0 0 -1
    outer loop
      vertex -39.1259 -8.31647 0
      vertex -4.18114 39.7809 0
      vertex 4.18114 39.7809 0
    endloop
  endfacet
  facet normal 0 0 -1
    outer loop
      vertex -6.79837 20.9232 0
      vertex 4.18114 39.7809 0
      vertex 12.3607 38.0423 0
    endloop
  endfacet
  facet normal 0 0 -1
    outer loop
      vertex 2.29963 21.8795 0
      vertex 12.3607 38.0423 0
      vertex 20 34.641 0
    endloop
  endfacet
  facet normal 0 0 -1
    outer loop
      vertex 6.79837 20.9232 0
      vertex 20 34.641 0
      vertex 26.7652 29.7258 0
    endloop
  endfacet
  facet normal 0 0 -1
    outer loop
      vertex 14.7209 16.3492 0
      vertex 26.7652 29.7258 0
      vertex 32.3607 23.5114 0
    endloop
  endfacet
  facet normal 0 0 -1
    outer loop
      vertex 17.7984 12.9313 0
      vertex 32.3607 23.5114 0
      vertex 36.5418 16.2695 0
    endloop
  endfacet
  facet normal 0 0 -1
    outer loop
      vertex 20.098 8.94821 0
      vertex 36.5418 16.2695 0
      vertex 39.1259 8.31647 0
    endloop
  endfacet
  facet normal 0 0 -1
    outer loop
      vertex 22 0 0
      vertex 39.1259 8.31647 0
      vertex 40 0 0
    endloop
  endfacet
  facet normal 0 0 -1
    outer loop
      vertex 21.5192 -4.57406 0
      vertex 40 0 0
      vertex 39.1259 -8.31647 0
    endloop
  endfacet
  facet normal 0 0 -1
    outer loop
      vertex 17.7984 -12.9313 0
      vertex 39.1259 -8.31647 0
      vertex 36.5418 -16.2695 0
    endloop
  endfacet
  facet normal 0 0 -1
    outer loop
      vertex 14.7209 -16.3492 0
      vertex 36.5418 -16.2695 0
      vertex 32.3607 -23.5114 0
    endloop
  endfacet
  facet normal 0 0 -1
    outer loop
      vertex 6.79837 -20.9232 0
      vertex 32.3607 -23.5114 0
      vertex 26.7652 -29.7258 0
    endloop
  endfacet
  facet normal 0 0 -1
    outer loop
      vertex -2.29963 -21.8795 0
      vertex 26.7652 -29.7258 0
      vertex 20 -34.641 0
    endloop
  endfacet
  facet normal 0 0 -1
    outer loop
      vertex -39.1259 -8.31647 0
      vertex 20 -34.641 0
      vertex 12.3607 -38.0423 0
    endloop
  endfacet
  facet normal 0 0 -1
    outer loop
      vertex -39.1259 -8.31647 0
      vertex 12.3607 -38.0423 0
      vertex 4.18114 -39.7809 0
    endloop
  endfacet
  facet normal 0 0 -1
    outer loop
      vertex -39.1259 -8.31647 0
      vertex 4.18114 -39.7809 0
      vertex -4.18114 -39.7809 0
    endloop
  endfacet
  facet normal 0 0 -1
    outer loop
      vertex -39.1259 -8.31647 0
      vertex -4.18114 -39.7809 0
      vertex -12.3607 -38.0423 0
    endloop
  endfacet
  facet normal 0 0 -1
    outer loop
      vertex -39.1259 -8.31647 0
      vertex -12.3607 -38.0423 0
      vertex -20 -34.641 0
    endloop
  endfacet
  facet normal 0 0 -1
    outer loop
      vertex -39.1259 -8.31647 0
      vertex -20 -34.641 0
      vertex -26.7652 -29.7258 0
    endloop
  endfacet
  facet normal 0 0 -1
    outer loop
      vertex -39.1259 -8.31647 0
      vertex -26.7652 -29.7258 0
      vertex -32.3607 -23.5114 0
    endloop
  endfacet
  facet normal 0 0 -1
    outer loop
      vertex -39.1259 -8.31647 0
      vertex -32.3607 -23.5114 0
      vertex -36.5418 -16.2695 0
    endloop
  endfacet
  facet normal 0 0 -1
    outer loop
      vertex -21.5192 -4.57406 0
      vertex -39.1259 -8.31647 0
      vertex -22 0 0
    endloop
  endfacet
  facet normal 0 0 -1
    outer loop
      vertex 20.098 8.94821 0
      vertex 39.1259 8.31647 0
      vertex 21.5192 4.57406 0
    endloop
  endfacet
  facet normal 0 0 -1
    outer loop
      vertex -20.098 -8.94821 0
      vertex -39.1259 -8.31647 0
      vertex -21.5192 -4.57406 0
    endloop
  endfacet
  facet normal 0 0 -1
    outer loop
      vertex -17.7984 -12.9313 0
      vertex -39.1259 -8.31647 0
      vertex -20.098 -8.94821 0
    endloop
  endfacet
  facet normal 0 0 -1
    outer loop
      vertex -14.7209 -16.3492 0
      vertex -39.1259 -8.31647 0
      vertex -17.7984 -12.9313 0
    endloop
  endfacet
  facet normal 0 0 -1
    outer loop
      vertex -2.29963 -21.8795 0
      vertex 20 -34.641 0
      vertex -6.79837 -20.9232 0
    endloop
  endfacet
  facet normal 0 0 -1
    outer loop
      vertex -39.1259 -8.31647 0
      vertex -14.7209 -16.3492 0
      vertex -11 -19.0526 0
    endloop
  endfacet
  facet normal 0 0 -1
    outer loop
      vertex -39.1259 -8.31647 0
      vertex -11 -19.0526 0
      vertex 20 -34.641 0
    endloop
  endfacet
  facet normal 0 0 -1
    outer loop
      vertex -11 -19.0526 0
      vertex -6.79837 -20.9232 0
      vertex 20 -34.641 0
    endloop
  endfacet
  facet normal 0 0 -1
    outer loop
      vertex 2.29963 -21.8795 0
      vertex 26.7652 -29.7258 0
      vertex -2.29963 -21.8795 0
    endloop
  endfacet
  facet normal 0 0 -1
    outer loop
      vertex 6.79837 -20.9232 0
      vertex 26.7652 -29.7258 0
      vertex 2.29963 -21.8795 0
    endloop
  endfacet
  facet normal 0 0 -1
    outer loop
      vertex 11 -19.0526 0
      vertex 32.3607 -23.5114 0
      vertex 6.79837 -20.9232 0
    endloop
  endfacet
  facet normal 0 0 -1
    outer loop
      vertex 14.7209 -16.3492 0
      vertex 32.3607 -23.5114 0
      vertex 11 -19.0526 0
    endloop
  endfacet
  facet normal 0 0 -1
    outer loop
      vertex 20.098 -8.94821 0
      vertex 39.1259 -8.31647 0
      vertex 17.7984 -12.9313 0
    endloop
  endfacet
  facet normal 0 0 -1
    outer loop
      vertex 21.5192 -4.57406 0
      vertex 39.1259 -8.31647 0
      vertex 20.098 -8.94821 0
    endloop
  endfacet
  facet normal 0 0 -1
    outer loop
      vertex 17.7984 -12.9313 0
      vertex 36.5418 -16.2695 0
      vertex 14.7209 -16.3492 0
    endloop
  endfacet
  facet normal 0 0 -1
    outer loop
      vertex 21.5192 4.57406 0
      vertex 39.1259 8.31647 0
      vertex 22 0 0
    endloop
  endfacet
  facet normal 0 0 -1
    outer loop
      vertex 17.7984 12.9313 0
      vertex 36.5418 16.2695 0
      vertex 20.098 8.94821 0
    endloop
  endfacet
  facet normal 0 0 -1
    outer loop
      vertex 11 19.0526 0
      vertex 26.7652 29.7258 0
      vertex 14.7209 16.3492 0
    endloop
  endfacet
  facet normal 0 0 -1
    outer loop
      vertex 6.79837 20.9232 0
      vertex 26.7652 29.7258 0
      vertex 11 19.0526 0
    endloop
  endfacet
  facet normal 0 0 -1
    outer loop
      vertex 14.7209 16.3492 0
      vertex 32.3607 23.5114 0
      vertex 17.7984 12.9313 0
    endloop
  endfacet
  facet normal 0 0 -1
    outer loop
      vertex -2.29963 21.8795 0
      vertex 12.3607 38.0423 0
      vertex 2.29963 21.8795 0
    endloop
  endfacet
  facet normal 0 0 -1
    outer loop
      vertex -11 19.0526 0
      vertex 4.18114 39.7809 0
      vertex -6.79837 20.9232 0
    endloop
  endfacet
  facet normal 0 0 -1
    outer loop
      vertex -20.098 8.94821 0
      vertex -39.1259 -8.31647 0
      vertex -17.7984 12.9313 0
    endloop
  endfacet
  facet normal 0 0 -1
    outer loop
      vertex -14.7209 16.3492 0
      vertex 4.18114 39.7809 0
      vertex -11 19.0526 0
    endloop
  endfacet
  facet normal 0 0 -1
    outer loop
      vertex -39.1259 -8.31647 0
      vertex 4.18114 39.7809 0
      vertex -14.7209 16.3492 0
    endloop
  endfacet
  facet normal 0 0 -1
    outer loop
      vertex -39.1259 -8.31647 0
      vertex -14.7209 16.3492 0
      vertex -17.7984 12.9313 0
    endloop
  endfacet
  facet normal 0 0 -1
    outer loop
      vertex -21.5192 4.57406 0
      vertex -39.1259 -8.31647 0
      vertex -20.098 8.94821 0
    endloop
  endfacet
  facet normal 0 0 -1
    outer loop
      vertex -22 0 0
      vertex -39.1259 -8.31647 0
      vertex -21.5192 4.57406 0
    endloop
  endfacet
  facet normal 0 0 -1
    outer loop
      vertex -6.79837 20.9232 0
      vertex 12.3607 38.0423 0
      vertex -2.29963 21.8795 0
    endloop
  endfacet
  facet normal 0 0 -1
    outer loop
      vertex 2.29963 21.8795 0
      vertex 20 34.641 0
      vertex 6.79837 20.9232 0
    endloop
  endfacet
  facet normal 0 0 -1
    outer loop
      vertex 22 0 0
      vertex 40 0 0
      vertex 21.5192 -4.57406 0
    endloop
  endfacet
  facet normal 0 0 1
    outer loop
      vertex -32.8151 -21.9784 3
      vertex -32.0573 -23.291 3
      vertex -39.4666 1.50736 3
    endloop
  endfacet
  facet normal 0 0 1
    outer loop
      vertex -39.4666 1.50736 3
      vertex -39.625 0 3
      vertex -38.9175 -6.73114 3
    endloop
  endfacet
  facet normal 0 0 1
    outer loop
      vertex -38.7591 -8.2385 3
      vertex -39.4666 1.50736 3
      vertex -38.9175 -6.73114 3
    endloop
  endfacet
  facet normal 0 0 1
    outer loop
      vertex -38.7591 -8.2385 3
      vertex -36.6676 -14.6755 3
      vertex -39.4666 1.50736 3
    endloop
  endfacet
  facet normal 0 0 1
    outer loop
      vertex -36.6676 -14.6755 3
      vertex -36.1992 -16.1169 3
      vertex -39.4666 1.50736 3
    endloop
  endfacet
  facet normal 0 0 1
    outer loop
      vertex -36.1992 -16.1169 3
      vertex -32.8151 -21.9784 3
      vertex -39.4666 1.50736 3
    endloop
  endfacet
  facet normal 0 0 1
    outer loop
      vertex -13.6294 -37.0691 3
      vertex -12.2448 -37.6856 3
      vertex -39.4666 1.50736 3
    endloop
  endfacet
  facet normal 0 0 1
    outer loop
      vertex -32.0573 -23.291 3
      vertex -27.5285 -28.3208 3
      vertex -39.4666 1.50736 3
    endloop
  endfacet
  facet normal 0 0 1
    outer loop
      vertex -27.5285 -28.3208 3
      vertex -26.5143 -29.4471 3
      vertex -39.4666 1.50736 3
    endloop
  endfacet
  facet normal 0 0 1
    outer loop
      vertex -26.5143 -29.4471 3
      vertex -21.0387 -33.4254 3
      vertex -39.4666 1.50736 3
    endloop
  endfacet
  facet normal 0 0 1
    outer loop
      vertex -21.0387 -33.4254 3
      vertex -19.8125 -34.3163 3
      vertex -39.4666 1.50736 3
    endloop
  endfacet
  facet normal 0 0 1
    outer loop
      vertex -19.8125 -34.3163 3
      vertex -13.6294 -37.0691 3
      vertex -39.4666 1.50736 3
    endloop
  endfacet
  facet normal 0 0 1
    outer loop
      vertex -5.62448 -39.0928 3
      vertex -4.14194 -39.4079 3
      vertex -39.4666 1.50736 3
    endloop
  endfacet
  facet normal 0 0 1
    outer loop
      vertex -12.2448 -37.6856 3
      vertex -5.62448 -39.0928 3
      vertex -39.4666 1.50736 3
    endloop
  endfacet
  facet normal 0 0 1
    outer loop
      vertex 14.7209 -16.3492 3
      vertex 31.0431 -24.4173 3
      vertex 32.0573 -23.291 3
    endloop
  endfacet
  facet normal 0 0 1
    outer loop
      vertex -4.14194 -39.4079 3
      vertex 4.14194 -39.4079 3
      vertex -39.4666 1.50736 3
    endloop
  endfacet
  facet normal 0 0 1
    outer loop
      vertex 4.14194 -39.4079 3
      vertex 10.7623 -38.0007 3
      vertex -39.4666 1.50736 3
    endloop
  endfacet
  facet normal 0 0 1
    outer loop
      vertex 10.7623 -38.0007 3
      vertex 12.2448 -37.6856 3
      vertex -39.4666 1.50736 3
    endloop
  endfacet
  facet normal 0 0 1
    outer loop
      vertex -14.7209 -16.3492 3
      vertex -17.7984 -12.9313 3
      vertex -39.4666 1.50736 3
    endloop
  endfacet
  facet normal 0 0 1
    outer loop
      vertex -21.5192 -4.57406 3
      vertex -22 0 3
      vertex -39.4666 1.50736 3
    endloop
  endfacet
  facet normal 0 0 1
    outer loop
      vertex 17.7984 -12.9313 3
      vertex 14.7209 -16.3492 3
      vertex 35.4414 -17.4295 3
    endloop
  endfacet
  facet normal 0 0 1
    outer loop
      vertex -22 0 3
      vertex -21.5192 4.57406 3
      vertex -39.4666 1.50736 3
    endloop
  endfacet
  facet normal 0 0 1
    outer loop
      vertex 21.5192 -4.57406 3
      vertex 38.2907 -9.67998 3
      vertex 38.7591 -8.2385 3
    endloop
  endfacet
  facet normal 0 0 1
    outer loop
      vertex 22 0 3
      vertex 21.5192 -4.57406 3
      vertex 39.4666 -1.50736 3
    endloop
  endfacet
  facet normal 0 0 1
    outer loop
      vertex -21.5192 4.57406 3
      vertex -20.098 8.94821 3
      vertex -39.4666 1.50736 3
    endloop
  endfacet
  facet normal 0 0 1
    outer loop
      vertex 20.098 8.94821 3
      vertex 21.5192 4.57406 3
      vertex 38.9175 6.73114 3
    endloop
  endfacet
  facet normal 0 0 1
    outer loop
      vertex 11 19.0526 3
      vertex 32.8151 21.9784 3
      vertex 32.0573 23.291 3
    endloop
  endfacet
  facet normal 0 0 1
    outer loop
      vertex 13.6294 37.0691 3
      vertex 12.2448 37.6856 3
      vertex -39.4666 1.50736 3
    endloop
  endfacet
  facet normal 0 0 1
    outer loop
      vertex -17.7984 12.9313 3
      vertex -14.7209 16.3492 3
      vertex -39.4666 1.50736 3
    endloop
  endfacet
  facet normal 0 0 1
    outer loop
      vertex 2.29963 21.8795 3
      vertex 6.79837 20.9232 3
      vertex 26.5143 29.4471 3
    endloop
  endfacet
  facet normal 0 0 1
    outer loop
      vertex -6.79837 20.9232 3
      vertex -2.29963 21.8795 3
      vertex 19.8125 34.3163 3
    endloop
  endfacet
  facet normal 0 0 1
    outer loop
      vertex -14.7209 16.3492 3
      vertex 13.6294 37.0691 3
      vertex -39.4666 1.50736 3
    endloop
  endfacet
  facet normal 0 0 1
    outer loop
      vertex 5.62448 39.0928 3
      vertex 4.14194 39.4079 3
      vertex -39.4666 1.50736 3
    endloop
  endfacet
  facet normal 0 0 1
    outer loop
      vertex 12.2448 37.6856 3
      vertex 5.62448 39.0928 3
      vertex -39.4666 1.50736 3
    endloop
  endfacet
  facet normal 0 0 1
    outer loop
      vertex -25.2881 30.338 3
      vertex -26.5143 29.4471 3
      vertex -39.4666 1.50736 3
    endloop
  endfacet
  facet normal 0 0 1
    outer loop
      vertex 4.14194 39.4079 3
      vertex -4.14194 39.4079 3
      vertex -39.4666 1.50736 3
    endloop
  endfacet
  facet normal 0 0 1
    outer loop
      vertex -4.14194 39.4079 3
      vertex -10.7623 38.0007 3
      vertex -39.4666 1.50736 3
    endloop
  endfacet
  facet normal 0 0 1
    outer loop
      vertex -10.7623 38.0007 3
      vertex -12.2448 37.6856 3
      vertex -39.4666 1.50736 3
    endloop
  endfacet
  facet normal 0 0 1
    outer loop
      vertex -12.2448 37.6856 3
      vertex -18.4279 34.9327 3
      vertex -39.4666 1.50736 3
    endloop
  endfacet
  facet normal 0 0 1
    outer loop
      vertex -18.4279 34.9327 3
      vertex -19.8125 34.3163 3
      vertex -39.4666 1.50736 3
    endloop
  endfacet
  facet normal 0 0 1
    outer loop
      vertex -19.8125 34.3163 3
      vertex -25.2881 30.338 3
      vertex -39.4666 1.50736 3
    endloop
  endfacet
  facet normal 0 0 1
    outer loop
      vertex -31.0431 24.4173 3
      vertex -32.0573 23.291 3
      vertex -39.4666 1.50736 3
    endloop
  endfacet
  facet normal 0 0 1
    outer loop
      vertex -26.5143 29.4471 3
      vertex -31.0431 24.4173 3
      vertex -39.4666 1.50736 3
    endloop
  endfacet
  facet normal 0 0 1
    outer loop
      vertex -38.2907 9.67998 3
      vertex -38.7591 8.2385 3
      vertex -39.4666 1.50736 3
    endloop
  endfacet
  facet normal 0 0 1
    outer loop
      vertex -32.0573 23.291 3
      vertex -35.4414 17.4295 3
      vertex -39.4666 1.50736 3
    endloop
  endfacet
  facet normal 0 0 1
    outer loop
      vertex -35.4414 17.4295 3
      vertex -36.1992 16.1169 3
      vertex -39.4666 1.50736 3
    endloop
  endfacet
  facet normal 0 0 1
    outer loop
      vertex -36.1992 16.1169 3
      vertex -38.2907 9.67998 3
      vertex -39.4666 1.50736 3
    endloop
  endfacet
  facet normal 0 0 1
    outer loop
      vertex 20.098 -8.94821 3
      vertex 17.7984 -12.9313 3
      vertex 36.1992 -16.1169 3
    endloop
  endfacet
  facet normal 0 0 1
    outer loop
      vertex 21.5192 4.57406 3
      vertex 22 0 3
      vertex 39.625 0 3
    endloop
  endfacet
  facet normal 0 0 1
    outer loop
      vertex -11 19.0526 3
      vertex 13.6294 37.0691 3
      vertex -14.7209 16.3492 3
    endloop
  endfacet
  facet normal 0 0 1
    outer loop
      vertex 19.8125 34.3163 3
      vertex 13.6294 37.0691 3
      vertex -11 19.0526 3
    endloop
  endfacet
  facet normal 0 0 1
    outer loop
      vertex -2.29963 21.8795 3
      vertex 2.29963 21.8795 3
      vertex 21.0387 33.4254 3
    endloop
  endfacet
  facet normal 0 0 1
    outer loop
      vertex 19.8125 34.3163 3
      vertex -11 19.0526 3
      vertex -6.79837 20.9232 3
    endloop
  endfacet
  facet normal 0 0 1
    outer loop
      vertex 11 19.0526 3
      vertex 14.7209 16.3492 3
      vertex 32.8151 21.9784 3
    endloop
  endfacet
  facet normal 0 0 1
    outer loop
      vertex 21.0387 33.4254 3
      vertex 19.8125 34.3163 3
      vertex -2.29963 21.8795 3
    endloop
  endfacet
  facet normal 0 0 1
    outer loop
      vertex 6.79837 20.9232 3
      vertex 11 19.0526 3
      vertex 27.5285 28.3208 3
    endloop
  endfacet
  facet normal 0 0 1
    outer loop
      vertex 26.5143 29.4471 3
      vertex 21.0387 33.4254 3
      vertex 2.29963 21.8795 3
    endloop
  endfacet
  facet normal 0 0 1
    outer loop
      vertex 27.5285 28.3208 3
      vertex 26.5143 29.4471 3
      vertex 6.79837 20.9232 3
    endloop
  endfacet
  facet normal 0 0 1
    outer loop
      vertex 17.7984 12.9313 3
      vertex 20.098 8.94821 3
      vertex 36.6676 14.6755 3
    endloop
  endfacet
  facet normal 0 0 1
    outer loop
      vertex 32.0573 23.291 3
      vertex 27.5285 28.3208 3
      vertex 11 19.0526 3
    endloop
  endfacet
  facet normal 0 0 1
    outer loop
      vertex -20.098 8.94821 3
      vertex -17.7984 12.9313 3
      vertex -39.4666 1.50736 3
    endloop
  endfacet
  facet normal 0 0 1
    outer loop
      vertex 36.1992 16.1169 3
      vertex 32.8151 21.9784 3
      vertex 14.7209 16.3492 3
    endloop
  endfacet
  facet normal 0 0 1
    outer loop
      vertex 36.1992 16.1169 3
      vertex 14.7209 16.3492 3
      vertex 17.7984 12.9313 3
    endloop
  endfacet
  facet normal 0 0 1
    outer loop
      vertex 21.5192 -4.57406 3
      vertex 20.098 -8.94821 3
      vertex 38.2907 -9.67998 3
    endloop
  endfacet
  facet normal 0 0 1
    outer loop
      vertex 38.7591 8.2385 3
      vertex 36.6676 14.6755 3
      vertex 20.098 8.94821 3
    endloop
  endfacet
  facet normal 0 0 1
    outer loop
      vertex 17.7984 12.9313 3
      vertex 36.6676 14.6755 3
      vertex 36.1992 16.1169 3
    endloop
  endfacet
  facet normal 0 0 1
    outer loop
      vertex 39.625 0 3
      vertex 38.9175 6.73114 3
      vertex 21.5192 4.57406 3
    endloop
  endfacet
  facet normal 0 0 1
    outer loop
      vertex 20.098 8.94821 3
      vertex 38.9175 6.73114 3
      vertex 38.7591 8.2385 3
    endloop
  endfacet
  facet normal 0 0 1
    outer loop
      vertex 39.4666 -1.50736 3
      vertex 39.625 0 3
      vertex 22 0 3
    endloop
  endfacet
  facet normal 0 0 1
    outer loop
      vertex 14.7209 -16.3492 3
      vertex 11 -19.0526 3
      vertex 31.0431 -24.4173 3
    endloop
  endfacet
  facet normal 0 0 1
    outer loop
      vertex 38.7591 -8.2385 3
      vertex 39.4666 -1.50736 3
      vertex 21.5192 -4.57406 3
    endloop
  endfacet
  facet normal 0 0 1
    outer loop
      vertex 36.1992 -16.1169 3
      vertex 38.2907 -9.67998 3
      vertex 20.098 -8.94821 3
    endloop
  endfacet
  facet normal 0 0 1
    outer loop
      vertex 35.4414 -17.4295 3
      vertex 36.1992 -16.1169 3
      vertex 17.7984 -12.9313 3
    endloop
  endfacet
  facet normal 0 0 1
    outer loop
      vertex -2.29963 -21.8795 3
      vertex -6.79837 -20.9232 3
      vertex 18.4279 -34.9327 3
    endloop
  endfacet
  facet normal 0 0 1
    outer loop
      vertex 32.0573 -23.291 3
      vertex 35.4414 -17.4295 3
      vertex 14.7209 -16.3492 3
    endloop
  endfacet
  facet normal 0 0 1
    outer loop
      vertex 26.5143 -29.4471 3
      vertex 31.0431 -24.4173 3
      vertex 11 -19.0526 3
    endloop
  endfacet
  facet normal 0 0 1
    outer loop
      vertex 25.2881 -30.338 3
      vertex 26.5143 -29.4471 3
      vertex 6.79837 -20.9232 3
    endloop
  endfacet
  facet normal 0 0 1
    outer loop
      vertex 19.8125 -34.3163 3
      vertex 25.2881 -30.338 3
      vertex 2.29963 -21.8795 3
    endloop
  endfacet
  facet normal 0 0 1
    outer loop
      vertex -17.7984 -12.9313 3
      vertex -20.098 -8.94821 3
      vertex -39.4666 1.50736 3
    endloop
  endfacet
  facet normal 0 0 1
    outer loop
      vertex 18.4279 -34.9327 3
      vertex 19.8125 -34.3163 3
      vertex -2.29963 -21.8795 3
    endloop
  endfacet
  facet normal 0 0 1
    outer loop
      vertex 12.2448 -37.6856 3
      vertex 18.4279 -34.9327 3
      vertex -6.79837 -20.9232 3
    endloop
  endfacet
  facet normal 0 0 1
    outer loop
      vertex 12.2448 -37.6856 3
      vertex -11 -19.0526 3
      vertex -39.4666 1.50736 3
    endloop
  endfacet
  facet normal 0 0 1
    outer loop
      vertex 12.2448 -37.6856 3
      vertex -6.79837 -20.9232 3
      vertex -11 -19.0526 3
    endloop
  endfacet
  facet normal 0 0 1
    outer loop
      vertex -11 -19.0526 3
      vertex -14.7209 -16.3492 3
      vertex -39.4666 1.50736 3
    endloop
  endfacet
  facet normal 0 0 1
    outer loop
      vertex 11 -19.0526 3
      vertex 6.79837 -20.9232 3
      vertex 26.5143 -29.4471 3
    endloop
  endfacet
  facet normal 0 0 1
    outer loop
      vertex 6.79837 -20.9232 3
      vertex 2.29963 -21.8795 3
      vertex 25.2881 -30.338 3
    endloop
  endfacet
  facet normal 0 0 1
    outer loop
      vertex 2.29963 -21.8795 3
      vertex -2.29963 -21.8795 3
      vertex 19.8125 -34.3163 3
    endloop
  endfacet
  facet normal 0 0 1
    outer loop
      vertex -20.098 -8.94821 3
      vertex -21.5192 -4.57406 3
      vertex -39.4666 1.50736 3
    endloop
  endfacet
  facet normal 0.994522 -0.104529 0
    outer loop
      vertex -21.5192 4.57406 0
      vertex -21.5192 4.57406 3
      vertex -22 0 3
    endloop
  endfacet
  facet normal 0.994522 -0.104529 0
    outer loop
      vertex -22 0 0
      vertex -21.5192 4.57406 0
      vertex -22 0 3
    endloop
  endfacet
  facet normal 0.994522 0.104529 0
    outer loop
      vertex -22 0 3
      vertex -21.5192 -4.57406 3
      vertex -21.5192 -4.57406 0
    endloop
  endfacet
  facet normal 0.994522 0.104529 0
    outer loop
      vertex -22 0 0
      vertex -22 0 3
      vertex -21.5192 -4.57406 0
    endloop
  endfacet
  facet normal 0.951057 -0.309017 0
    outer loop
      vertex -20.098 8.94821 0
      vertex -20.098 8.94821 3
      vertex -21.5192 4.57406 3
    endloop
  endfacet
  facet normal 0.951057 -0.309017 0
    outer loop
      vertex -21.5192 4.57406 0
      vertex -20.098 8.94821 0
      vertex -21.5192 4.57406 3
    endloop
  endfacet
  facet normal 0.866025 -0.5 0
    outer loop
      vertex -17.7984 12.9313 0
      vertex -17.7984 12.9313 3
      vertex -20.098 8.94821 3
    endloop
  endfacet
  facet normal 0.866025 -0.5 0
    outer loop
      vertex -20.098 8.94821 0
      vertex -17.7984 12.9313 0
      vertex -20.098 8.94821 3
    endloop
  endfacet
  facet normal 0.743145 -0.669131 0
    outer loop
      vertex -14.7209 16.3492 0
      vertex -14.7209 16.3492 3
      vertex -17.7984 12.9313 3
    endloop
  endfacet
  facet normal 0.743145 -0.669131 0
    outer loop
      vertex -17.7984 12.9313 0
      vertex -14.7209 16.3492 0
      vertex -17.7984 12.9313 3
    endloop
  endfacet
  facet normal 0.587785 -0.809017 0
    outer loop
      vertex -11 19.0526 0
      vertex -11 19.0526 3
      vertex -14.7209 16.3492 3
    endloop
  endfacet
  facet normal 0.587785 -0.809017 0
    outer loop
      vertex -14.7209 16.3492 0
      vertex -11 19.0526 0
      vertex -14.7209 16.3492 3
    endloop
  endfacet
  facet normal 0.406737 -0.913545 0
    outer loop
      vertex -6.79837 20.9232 0
      vertex -6.79837 20.9232 3
      vertex -11 19.0526 3
    endloop
  endfacet
  facet normal 0.406737 -0.913545 0
    outer loop
      vertex -11 19.0526 0
      vertex -6.79837 20.9232 0
      vertex -11 19.0526 3
    endloop
  endfacet
  facet normal 0.207912 -0.978148 0
    outer loop
      vertex -2.29963 21.8795 0
      vertex -2.29963 21.8795 3
      vertex -6.79837 20.9232 3
    endloop
  endfacet
  facet normal 0.207912 -0.978148 0
    outer loop
      vertex -6.79837 20.9232 0
      vertex -2.29963 21.8795 0
      vertex -6.79837 20.9232 3
    endloop
  endfacet
  facet normal 0 -1 0
    outer loop
      vertex 2.29963 21.8795 0
      vertex 2.29963 21.8795 3
      vertex -2.29963 21.8795 3
    endloop
  endfacet
  facet normal 0 -1 0
    outer loop
      vertex -2.29963 21.8795 0
      vertex 2.29963 21.8795 0
      vertex -2.29963 21.8795 3
    endloop
  endfacet
  facet normal -0.207912 -0.978148 0
    outer loop
      vertex 6.79837 20.9232 0
      vertex 6.79837 20.9232 3
      vertex 2.29963 21.8795 3
    endloop
  endfacet
  facet normal -0.207912 -0.978148 0
    outer loop
      vertex 2.29963 21.8795 0
      vertex 6.79837 20.9232 0
      vertex 2.29963 21.8795 3
    endloop
  endfacet
  facet normal -0.406737 -0.913545 0
    outer loop
      vertex 11 19.0526 0
      vertex 11 19.0526 3
      vertex 6.79837 20.9232 3
    endloop
  endfacet
  facet normal -0.406737 -0.913545 0
    outer loop
      vertex 6.79837 20.9232 0
      vertex 11 19.0526 0
      vertex 6.79837 20.9232 3
    endloop
  endfacet
  facet normal -0.587785 -0.809017 0
    outer loop
      vertex 14.7209 16.3492 0
      vertex 14.7209 16.3492 3
      vertex 11 19.0526 3
    endloop
  endfacet
  facet normal -0.587785 -0.809017 0
    outer loop
      vertex 11 19.0526 0
      vertex 14.7209 16.3492 0
      vertex 11 19.0526 3
    endloop
  endfacet
  facet normal -0.743145 -0.669131 0
    outer loop
      vertex 17.7984 12.9313 3
      vertex 14.7209 16.3492 3
      vertex 17.7984 12.9313 0
    endloop
  endfacet
  facet normal -0.743145 -0.669131 0
    outer loop
      vertex 17.7984 12.9313 0
      vertex 14.7209 16.3492 3
      vertex 14.7209 16.3492 0
    endloop
  endfacet
  facet normal -0.866025 -0.5 0
    outer loop
      vertex 20.098 8.94821 3
      vertex 17.7984 12.9313 3
      vertex 20.098 8.94821 0
    endloop
  endfacet
  facet normal -0.866025 -0.5 0
    outer loop
      vertex 20.098 8.94821 0
      vertex 17.7984 12.9313 3
      vertex 17.7984 12.9313 0
    endloop
  endfacet
  facet normal -0.951057 -0.309017 0
    outer loop
      vertex 21.5192 4.57406 3
      vertex 20.098 8.94821 3
      vertex 21.5192 4.57406 0
    endloop
  endfacet
  facet normal -0.951057 -0.309017 0
    outer loop
      vertex 21.5192 4.57406 0
      vertex 20.098 8.94821 3
      vertex 20.098 8.94821 0
    endloop
  endfacet
  facet normal -0.994522 -0.104529 0
    outer loop
      vertex 22 0 3
      vertex 21.5192 4.57406 3
      vertex 22 0 0
    endloop
  endfacet
  facet normal -0.994522 -0.104529 0
    outer loop
      vertex 22 0 0
      vertex 21.5192 4.57406 3
      vertex 21.5192 4.57406 0
    endloop
  endfacet
  facet normal -0.994522 0.104529 0
    outer loop
      vertex 22 0 3
      vertex 22 0 0
      vertex 21.5192 -4.57406 3
    endloop
  endfacet
  facet normal -0.994522 0.104529 0
    outer loop
      vertex 21.5192 -4.57406 3
      vertex 22 0 0
      vertex 21.5192 -4.57406 0
    endloop
  endfacet
  facet normal -0.951057 0.309017 0
    outer loop
      vertex 21.5192 -4.57406 3
      vertex 21.5192 -4.57406 0
      vertex 20.098 -8.94821 3
    endloop
  endfacet
  facet normal -0.951057 0.309017 0
    outer loop
      vertex 20.098 -8.94821 3
      vertex 21.5192 -4.57406 0
      vertex 20.098 -8.94821 0
    endloop
  endfacet
  facet normal -0.866025 0.5 0
    outer loop
      vertex 20.098 -8.94821 3
      vertex 20.098 -8.94821 0
      vertex 17.7984 -12.9313 3
    endloop
  endfacet
  facet normal -0.866025 0.5 0
    outer loop
      vertex 17.7984 -12.9313 3
      vertex 20.098 -8.94821 0
      vertex 17.7984 -12.9313 0
    endloop
  endfacet
  facet normal -0.743145 0.669131 0
    outer loop
      vertex 17.7984 -12.9313 3
      vertex 17.7984 -12.9313 0
      vertex 14.7209 -16.3492 3
    endloop
  endfacet
  facet normal -0.743145 0.669131 0
    outer loop
      vertex 14.7209 -16.3492 3
      vertex 17.7984 -12.9313 0
      vertex 14.7209 -16.3492 0
    endloop
  endfacet
  facet normal -0.587785 0.809017 0
    outer loop
      vertex 14.7209 -16.3492 3
      vertex 14.7209 -16.3492 0
      vertex 11 -19.0526 3
    endloop
  endfacet
  facet normal -0.587785 0.809017 0
    outer loop
      vertex 11 -19.0526 3
      vertex 14.7209 -16.3492 0
      vertex 11 -19.0526 0
    endloop
  endfacet
  facet normal -0.406737 0.913545 0
    outer loop
      vertex 11 -19.0526 3
      vertex 11 -19.0526 0
      vertex 6.79837 -20.9232 3
    endloop
  endfacet
  facet normal -0.406737 0.913545 0
    outer loop
      vertex 6.79837 -20.9232 3
      vertex 11 -19.0526 0
      vertex 6.79837 -20.9232 0
    endloop
  endfacet
  facet normal -0.207912 0.978148 0
    outer loop
      vertex 6.79837 -20.9232 3
      vertex 6.79837 -20.9232 0
      vertex 2.29963 -21.8795 3
    endloop
  endfacet
  facet normal -0.207912 0.978148 0
    outer loop
      vertex 2.29963 -21.8795 3
      vertex 6.79837 -20.9232 0
      vertex 2.29963 -21.8795 0
    endloop
  endfacet
  facet normal 0 1 0
    outer loop
      vertex 2.29963 -21.8795 3
      vertex 2.29963 -21.8795 0
      vertex -2.29963 -21.8795 3
    endloop
  endfacet
  facet normal 0 1 0
    outer loop
      vertex -2.29963 -21.8795 3
      vertex 2.29963 -21.8795 0
      vertex -2.29963 -21.8795 0
    endloop
  endfacet
  facet normal 0.207912 0.978148 0
    outer loop
      vertex -2.29963 -21.8795 3
      vertex -2.29963 -21.8795 0
      vertex -6.79837 -20.9232 3
    endloop
  endfacet
  facet normal 0.207912 0.978148 0
    outer loop
      vertex -6.79837 -20.9232 3
      vertex -2.29963 -21.8795 0
      vertex -6.79837 -20.9232 0
    endloop
  endfacet
  facet normal 0.406737 0.913545 0
    outer loop
      vertex -6.79837 -20.9232 3
      vertex -6.79837 -20.9232 0
      vertex -11 -19.0526 3
    endloop
  endfacet
  facet normal 0.406737 0.913545 0
    outer loop
      vertex -11 -19.0526 3
      vertex -6.79837 -20.9232 0
      vertex -11 -19.0526 0
    endloop
  endfacet
  facet normal 0.587785 0.809017 0
    outer loop
      vertex -11 -19.0526 3
      vertex -11 -19.0526 0
      vertex -14.7209 -16.3492 3
    endloop
  endfacet
  facet normal 0.587785 0.809017 0
    outer loop
      vertex -14.7209 -16.3492 3
      vertex -11 -19.0526 0
      vertex -14.7209 -16.3492 0
    endloop
  endfacet
  facet normal 0.743145 0.669131 0
    outer loop
      vertex -17.7984 -12.9313 3
      vertex -14.7209 -16.3492 3
      vertex -14.7209 -16.3492 0
    endloop
  endfacet
  facet normal 0.743145 0.669131 0
    outer loop
      vertex -17.7984 -12.9313 0
      vertex -17.7984 -12.9313 3
      vertex -14.7209 -16.3492 0
    endloop
  endfacet
  facet normal 0.866025 0.5 0
    outer loop
      vertex -20.098 -8.94821 3
      vertex -17.7984 -12.9313 3
      vertex -17.7984 -12.9313 0
    endloop
  endfacet
  facet normal 0.866025 0.5 0
    outer loop
      vertex -20.098 -8.94821 0
      vertex -20.098 -8.94821 3
      vertex -17.7984 -12.9313 0
    endloop
  endfacet
  facet normal 0.951057 0.309017 0
    outer loop
      vertex -21.5192 -4.57406 3
      vertex -20.098 -8.94821 3
      vertex -20.098 -8.94821 0
    endloop
  endfacet
  facet normal 0.951057 0.309017 0
    outer loop
      vertex -21.5192 -4.57406 0
      vertex -21.5192 -4.57406 3
      vertex -20.098 -8.94821 0
    endloop
  endfacet
endsolid OpenSCAD_Model
