solid OpenSCAD_Model
  facet normal 0 0 1
    outer loop
      vertex -37.1696 7.90064 13
      vertex -38 0 13
      vertex -37.1696 -7.90064 13
    endloop
  endfacet
  facet normal 0 0 1
    outer loop
      vertex -35.4454 -0.519779 13
      vertex -37.1696 7.90064 13
      vertex -34.7147 -15.456 13
    endloop
  endfacet
  facet normal 0 0 1
    outer loop
      vertex -34.7147 -15.456 13
      vertex -37.1696 7.90064 13
      vertex -37.1696 -7.90064 13
    endloop
  endfacet
  facet normal 0 0 1
    outer loop
      vertex 34.7789 -6.86109 13
      vertex 34.7242 -7.38087 13
      vertex 37.1696 -7.90064 13
    endloop
  endfacet
  facet normal 0 0 1
    outer loop
      vertex -17.75 30.7439 13
      vertex -11.4476 33.5499 13
      vertex -11.7426 36.1401 13
    endloop
  endfacet
  facet normal 0 0 1
    outer loop
      vertex -30.7426 22.3358 13
      vertex -37.1696 7.90064 13
      vertex -25.427 28.2395 13
    endloop
  endfacet
  facet normal 0 0 1
    outer loop
      vertex -34.7147 15.456 13
      vertex -37.1696 7.90064 13
      vertex -30.7426 22.3358 13
    endloop
  endfacet
  facet normal 0 0 1
    outer loop
      vertex -34.7242 -7.38087 13
      vertex -35.4454 -0.519779 13
      vertex -34.7147 -15.456 13
    endloop
  endfacet
  facet normal 0 0 1
    outer loop
      vertex -35.5 0 13
      vertex -37.1696 7.90064 13
      vertex -35.4454 -0.519779 13
    endloop
  endfacet
  facet normal 0 0 1
    outer loop
      vertex -34.7242 7.38087 13
      vertex -32.5924 13.9421 13
      vertex -37.1696 7.90064 13
    endloop
  endfacet
  facet normal 0 0 1
    outer loop
      vertex 23.7541 -26.3816 13
      vertex 18.1728 -30.4367 13
      vertex 25.427 -28.2395 13
    endloop
  endfacet
  facet normal 0 0 1
    outer loop
      vertex 3.71076 35.3055 13
      vertex 10.4589 33.8712 13
      vertex 11.7426 36.1401 13
    endloop
  endfacet
  facet normal 0 0 1
    outer loop
      vertex -10.9701 33.7625 13
      vertex -4.22198 35.1969 13
      vertex -3.97208 37.7918 13
    endloop
  endfacet
  facet normal 0 0 1
    outer loop
      vertex -28.7201 20.8664 13
      vertex -24.1039 25.9932 13
      vertex -19 32.909 13
    endloop
  endfacet
  facet normal 0 0 1
    outer loop
      vertex 35.4454 0.519779 13
      vertex 35.5 0 13
      vertex 38 0 13
    endloop
  endfacet
  facet normal 0 0 1
    outer loop
      vertex -25.427 28.2395 13
      vertex -37.1696 7.90064 13
      vertex -32.4309 14.4392 13
    endloop
  endfacet
  facet normal 0 0 1
    outer loop
      vertex -25.427 28.2395 13
      vertex -32.4309 14.4392 13
      vertex -28.9814 20.4138 13
    endloop
  endfacet
  facet normal 0 0 1
    outer loop
      vertex -25.427 28.2395 13
      vertex -28.7201 20.8664 13
      vertex -19 32.909 13
    endloop
  endfacet
  facet normal 0 0 1
    outer loop
      vertex -25.427 28.2395 13
      vertex -28.9814 20.4138 13
      vertex -28.7201 20.8664 13
    endloop
  endfacet
  facet normal 0 0 1
    outer loop
      vertex -24.1039 25.9932 13
      vertex -23.7541 26.3816 13
      vertex -19 32.909 13
    endloop
  endfacet
  facet normal 0 0 1
    outer loop
      vertex -19 32.909 13
      vertex -18.1728 30.4367 13
      vertex -11.7426 36.1401 13
    endloop
  endfacet
  facet normal 0 0 1
    outer loop
      vertex -18.1728 30.4367 13
      vertex -17.75 30.7439 13
      vertex -11.7426 36.1401 13
    endloop
  endfacet
  facet normal 0 0 1
    outer loop
      vertex -11.7426 36.1401 13
      vertex -11.4476 33.5499 13
      vertex -3.97208 37.7918 13
    endloop
  endfacet
  facet normal 0 0 1
    outer loop
      vertex -32.5924 13.9421 13
      vertex -32.4309 14.4392 13
      vertex -37.1696 7.90064 13
    endloop
  endfacet
  facet normal 0 0 1
    outer loop
      vertex -11.4476 33.5499 13
      vertex -10.9701 33.7625 13
      vertex -3.97208 37.7918 13
    endloop
  endfacet
  facet normal 0 0 1
    outer loop
      vertex -23.7541 26.3816 13
      vertex -18.1728 30.4367 13
      vertex -19 32.909 13
    endloop
  endfacet
  facet normal 0 0 1
    outer loop
      vertex -3.97208 37.7918 13
      vertex -4.22198 35.1969 13
      vertex 3.97208 37.7918 13
    endloop
  endfacet
  facet normal 0 0 1
    outer loop
      vertex -4.22198 35.1969 13
      vertex -3.71076 35.3055 13
      vertex 3.97208 37.7918 13
    endloop
  endfacet
  facet normal 0 0 1
    outer loop
      vertex 3.97208 37.7918 13
      vertex 3.71076 35.3055 13
      vertex 11.7426 36.1401 13
    endloop
  endfacet
  facet normal 0 0 1
    outer loop
      vertex 11.7426 36.1401 13
      vertex 10.4589 33.8712 13
      vertex 19 32.909 13
    endloop
  endfacet
  facet normal 0 0 1
    outer loop
      vertex 10.4589 33.8712 13
      vertex 10.9701 33.7625 13
      vertex 19 32.909 13
    endloop
  endfacet
  facet normal 0 0 1
    outer loop
      vertex 19 32.909 13
      vertex 17.2725 30.9565 13
      vertex 25.427 28.2395 13
    endloop
  endfacet
  facet normal 0 0 1
    outer loop
      vertex 17.2725 30.9565 13
      vertex 17.75 30.7439 13
      vertex 25.427 28.2395 13
    endloop
  endfacet
  facet normal 0 0 1
    outer loop
      vertex 25.427 28.2395 13
      vertex 23.3313 26.6888 13
      vertex 30.7426 22.3358 13
    endloop
  endfacet
  facet normal 0 0 1
    outer loop
      vertex 23.3313 26.6888 13
      vertex 23.7541 26.3816 13
      vertex 30.7426 22.3358 13
    endloop
  endfacet
  facet normal 0 0 1
    outer loop
      vertex 30.7426 22.3358 13
      vertex 28.3704 21.2548 13
      vertex 34.7147 15.456 13
    endloop
  endfacet
  facet normal 0 0 1
    outer loop
      vertex 28.3704 21.2548 13
      vertex 28.7201 20.8664 13
      vertex 34.7147 15.456 13
    endloop
  endfacet
  facet normal 0 0 1
    outer loop
      vertex 34.7147 15.456 13
      vertex 32.1695 14.8918 13
      vertex 37.1696 7.90064 13
    endloop
  endfacet
  facet normal 0 0 1
    outer loop
      vertex 32.1695 14.8918 13
      vertex 32.4309 14.4392 13
      vertex 37.1696 7.90064 13
    endloop
  endfacet
  facet normal 0 0 1
    outer loop
      vertex 37.1696 7.90064 13
      vertex 34.5627 7.87793 13
      vertex 38 0 13
    endloop
  endfacet
  facet normal 0 0 1
    outer loop
      vertex 34.5627 7.87793 13
      vertex 34.7242 7.38087 13
      vertex 38 0 13
    endloop
  endfacet
  facet normal 0 0 1
    outer loop
      vertex 34.7242 7.38087 13
      vertex 35.4454 0.519779 13
      vertex 38 0 13
    endloop
  endfacet
  facet normal 0 0 1
    outer loop
      vertex 38 0 13
      vertex 35.5 0 13
      vertex 37.1696 -7.90064 13
    endloop
  endfacet
  facet normal 0 0 1
    outer loop
      vertex 35.5 0 13
      vertex 34.7789 -6.86109 13
      vertex 37.1696 -7.90064 13
    endloop
  endfacet
  facet normal 0 0 1
    outer loop
      vertex 37.1696 -7.90064 13
      vertex 34.7242 -7.38087 13
      vertex 34.7147 -15.456 13
    endloop
  endfacet
  facet normal 0 0 1
    outer loop
      vertex 34.7242 -7.38087 13
      vertex 32.5924 -13.9421 13
      vertex 34.7147 -15.456 13
    endloop
  endfacet
  facet normal 0 0 1
    outer loop
      vertex -3.71076 35.3055 13
      vertex 3.71076 35.3055 13
      vertex 3.97208 37.7918 13
    endloop
  endfacet
  facet normal 0 0 1
    outer loop
      vertex 32.5924 -13.9421 13
      vertex 32.4309 -14.4392 13
      vertex 34.7147 -15.456 13
    endloop
  endfacet
  facet normal 0 0 1
    outer loop
      vertex 34.7147 -15.456 13
      vertex 28.9814 -20.4138 13
      vertex 30.7426 -22.3358 13
    endloop
  endfacet
  facet normal 0 0 1
    outer loop
      vertex 28.9814 -20.4138 13
      vertex 28.7201 -20.8664 13
      vertex 30.7426 -22.3358 13
    endloop
  endfacet
  facet normal 0 0 1
    outer loop
      vertex 30.7426 -22.3358 13
      vertex 24.1039 -25.9932 13
      vertex 25.427 -28.2395 13
    endloop
  endfacet
  facet normal 0 0 1
    outer loop
      vertex 24.1039 -25.9932 13
      vertex 23.7541 -26.3816 13
      vertex 25.427 -28.2395 13
    endloop
  endfacet
  facet normal 0 0 1
    outer loop
      vertex 25.427 -28.2395 13
      vertex 18.1728 -30.4367 13
      vertex 19 -32.909 13
    endloop
  endfacet
  facet normal 0 0 1
    outer loop
      vertex 28.7201 -20.8664 13
      vertex 24.1039 -25.9932 13
      vertex 30.7426 -22.3358 13
    endloop
  endfacet
  facet normal 0 0 1
    outer loop
      vertex 18.1728 -30.4367 13
      vertex 17.75 -30.7439 13
      vertex 19 -32.909 13
    endloop
  endfacet
  facet normal 0 0 1
    outer loop
      vertex -34.7789 6.86109 13
      vertex -34.7242 7.38087 13
      vertex -37.1696 7.90064 13
    endloop
  endfacet
  facet normal 0 0 1
    outer loop
      vertex 19 -32.909 13
      vertex 11.4476 -33.5499 13
      vertex 11.7426 -36.1401 13
    endloop
  endfacet
  facet normal 0 0 1
    outer loop
      vertex 10.9701 33.7625 13
      vertex 17.2725 30.9565 13
      vertex 19 32.909 13
    endloop
  endfacet
  facet normal 0 0 1
    outer loop
      vertex 11.4476 -33.5499 13
      vertex 10.9701 -33.7625 13
      vertex 11.7426 -36.1401 13
    endloop
  endfacet
  facet normal 0 0 1
    outer loop
      vertex 11.7426 -36.1401 13
      vertex 4.22198 -35.1969 13
      vertex 3.97208 -37.7918 13
    endloop
  endfacet
  facet normal 0 0 1
    outer loop
      vertex 17.75 30.7439 13
      vertex 23.3313 26.6888 13
      vertex 25.427 28.2395 13
    endloop
  endfacet
  facet normal 0 0 1
    outer loop
      vertex 4.22198 -35.1969 13
      vertex 3.71076 -35.3055 13
      vertex 3.97208 -37.7918 13
    endloop
  endfacet
  facet normal 0 0 1
    outer loop
      vertex 3.97208 -37.7918 13
      vertex -3.71076 -35.3055 13
      vertex -3.97208 -37.7918 13
    endloop
  endfacet
  facet normal 0 0 1
    outer loop
      vertex 23.7541 26.3816 13
      vertex 28.3704 21.2548 13
      vertex 30.7426 22.3358 13
    endloop
  endfacet
  facet normal 0 0 1
    outer loop
      vertex -3.97208 -37.7918 13
      vertex -10.4589 -33.8712 13
      vertex -11.7426 -36.1401 13
    endloop
  endfacet
  facet normal 0 0 1
    outer loop
      vertex -10.4589 -33.8712 13
      vertex -10.9701 -33.7625 13
      vertex -11.7426 -36.1401 13
    endloop
  endfacet
  facet normal 0 0 1
    outer loop
      vertex 28.7201 20.8664 13
      vertex 32.1695 14.8918 13
      vertex 34.7147 15.456 13
    endloop
  endfacet
  facet normal 0 0 1
    outer loop
      vertex -11.7426 -36.1401 13
      vertex -17.2725 -30.9565 13
      vertex -19 -32.909 13
    endloop
  endfacet
  facet normal 0 0 1
    outer loop
      vertex -17.2725 -30.9565 13
      vertex -17.75 -30.7439 13
      vertex -19 -32.909 13
    endloop
  endfacet
  facet normal 0 0 1
    outer loop
      vertex 32.4309 14.4392 13
      vertex 34.5627 7.87793 13
      vertex 37.1696 7.90064 13
    endloop
  endfacet
  facet normal 0 0 1
    outer loop
      vertex -19 -32.909 13
      vertex -23.3313 -26.6888 13
      vertex -25.427 -28.2395 13
    endloop
  endfacet
  facet normal 0 0 1
    outer loop
      vertex -23.3313 -26.6888 13
      vertex -23.7541 -26.3816 13
      vertex -25.427 -28.2395 13
    endloop
  endfacet
  facet normal 0 0 1
    outer loop
      vertex -25.427 -28.2395 13
      vertex -28.3704 -21.2548 13
      vertex -30.7426 -22.3358 13
    endloop
  endfacet
  facet normal 0 0 1
    outer loop
      vertex -28.3704 -21.2548 13
      vertex -28.7201 -20.8664 13
      vertex -30.7426 -22.3358 13
    endloop
  endfacet
  facet normal 0 0 1
    outer loop
      vertex -28.7201 -20.8664 13
      vertex -32.1695 -14.8918 13
      vertex -30.7426 -22.3358 13
    endloop
  endfacet
  facet normal 0 0 1
    outer loop
      vertex 32.4309 -14.4392 13
      vertex 28.9814 -20.4138 13
      vertex 34.7147 -15.456 13
    endloop
  endfacet
  facet normal 0 0 1
    outer loop
      vertex -30.7426 -22.3358 13
      vertex -34.5627 -7.87793 13
      vertex -34.7147 -15.456 13
    endloop
  endfacet
  facet normal 0 0 1
    outer loop
      vertex -34.5627 -7.87793 13
      vertex -34.7242 -7.38087 13
      vertex -34.7147 -15.456 13
    endloop
  endfacet
  facet normal 0 0 1
    outer loop
      vertex 17.75 -30.7439 13
      vertex 11.4476 -33.5499 13
      vertex 19 -32.909 13
    endloop
  endfacet
  facet normal 0 0 1
    outer loop
      vertex 10.9701 -33.7625 13
      vertex 4.22198 -35.1969 13
      vertex 11.7426 -36.1401 13
    endloop
  endfacet
  facet normal 0 0 1
    outer loop
      vertex 3.71076 -35.3055 13
      vertex -3.71076 -35.3055 13
      vertex 3.97208 -37.7918 13
    endloop
  endfacet
  facet normal 0 0 1
    outer loop
      vertex -3.71076 -35.3055 13
      vertex -10.4589 -33.8712 13
      vertex -3.97208 -37.7918 13
    endloop
  endfacet
  facet normal 0 0 1
    outer loop
      vertex -10.9701 -33.7625 13
      vertex -17.2725 -30.9565 13
      vertex -11.7426 -36.1401 13
    endloop
  endfacet
  facet normal 0 0 1
    outer loop
      vertex -17.75 -30.7439 13
      vertex -23.3313 -26.6888 13
      vertex -19 -32.909 13
    endloop
  endfacet
  facet normal 0 0 1
    outer loop
      vertex -23.7541 -26.3816 13
      vertex -28.3704 -21.2548 13
      vertex -25.427 -28.2395 13
    endloop
  endfacet
  facet normal 0 0 1
    outer loop
      vertex -32.1695 -14.8918 13
      vertex -32.4309 -14.4392 13
      vertex -30.7426 -22.3358 13
    endloop
  endfacet
  facet normal 0 0 1
    outer loop
      vertex -32.4309 -14.4392 13
      vertex -34.5627 -7.87793 13
      vertex -30.7426 -22.3358 13
    endloop
  endfacet
  facet normal 0 0 1
    outer loop
      vertex -35.5 0 13
      vertex -34.7789 6.86109 13
      vertex -37.1696 7.90064 13
    endloop
  endfacet
  facet normal -0.854031 -0.0897623 -0.512419
    outer loop
      vertex -37.1696 -7.90064 13
      vertex -38 0 13
      vertex -31.3007 -6.65317 3
    endloop
  endfacet
  facet normal -0.854031 -0.0897623 -0.512419
    outer loop
      vertex -31.3007 -6.65317 3
      vertex -38 0 13
      vertex -32 0 3
    endloop
  endfacet
  facet normal -0.854031 0.0897623 -0.512419
    outer loop
      vertex -32 0 3
      vertex -38 0 13
      vertex -37.1696 7.90064 13
    endloop
  endfacet
  facet normal -0.854031 0.0897623 -0.512419
    outer loop
      vertex -32 0 3
      vertex -37.1696 7.90064 13
      vertex -31.3007 6.65317 3
    endloop
  endfacet
  facet normal -0.816706 0.265364 -0.512419
    outer loop
      vertex -31.3007 6.65317 3
      vertex -37.1696 7.90064 13
      vertex -34.7147 15.456 13
    endloop
  endfacet
  facet normal -0.816706 0.265364 -0.512419
    outer loop
      vertex -31.3007 6.65317 3
      vertex -34.7147 15.456 13
      vertex -29.2335 13.0156 3
    endloop
  endfacet
  facet normal -0.743687 0.429368 -0.512419
    outer loop
      vertex -29.2335 13.0156 3
      vertex -34.7147 15.456 13
      vertex -30.7426 22.3358 13
    endloop
  endfacet
  facet normal -0.743687 0.429368 -0.512419
    outer loop
      vertex -29.2335 13.0156 3
      vertex -30.7426 22.3358 13
      vertex -25.8885 18.8091 3
    endloop
  endfacet
  facet normal -0.638165 0.574606 -0.512419
    outer loop
      vertex -25.8885 18.8091 3
      vertex -30.7426 22.3358 13
      vertex -25.427 28.2395 13
    endloop
  endfacet
  facet normal -0.638165 0.574606 -0.512419
    outer loop
      vertex -21.4122 23.7806 3
      vertex -25.8885 18.8091 3
      vertex -25.427 28.2395 13
    endloop
  endfacet
  facet normal -0.504752 0.694732 -0.512419
    outer loop
      vertex -21.4122 23.7806 3
      vertex -25.427 28.2395 13
      vertex -19 32.909 13
    endloop
  endfacet
  facet normal -0.504752 0.694732 -0.512419
    outer loop
      vertex -16 27.7128 3
      vertex -21.4122 23.7806 3
      vertex -19 32.909 13
    endloop
  endfacet
  facet normal -0.349279 0.784494 -0.512419
    outer loop
      vertex -16 27.7128 3
      vertex -19 32.909 13
      vertex -11.7426 36.1401 13
    endloop
  endfacet
  facet normal -0.349279 0.784494 -0.512419
    outer loop
      vertex -9.88854 30.4338 3
      vertex -16 27.7128 3
      vertex -11.7426 36.1401 13
    endloop
  endfacet
  facet normal -0.178541 0.83997 -0.512419
    outer loop
      vertex -9.88854 30.4338 3
      vertex -11.7426 36.1401 13
      vertex -3.97208 37.7918 13
    endloop
  endfacet
  facet normal -0.178541 0.83997 -0.512419
    outer loop
      vertex -3.34491 31.8247 3
      vertex -9.88854 30.4338 3
      vertex -3.97208 37.7918 13
    endloop
  endfacet
  facet normal 0 0.858736 -0.512419
    outer loop
      vertex -3.97208 37.7918 13
      vertex 3.97208 37.7918 13
      vertex -3.34491 31.8247 3
    endloop
  endfacet
  facet normal 0 0.858736 -0.512419
    outer loop
      vertex -3.34491 31.8247 3
      vertex 3.97208 37.7918 13
      vertex 3.34491 31.8247 3
    endloop
  endfacet
  facet normal 0.178541 0.83997 -0.512419
    outer loop
      vertex 11.7426 36.1401 13
      vertex 3.34491 31.8247 3
      vertex 3.97208 37.7918 13
    endloop
  endfacet
  facet normal 0.178541 0.83997 -0.512419
    outer loop
      vertex 9.88854 30.4338 3
      vertex 3.34491 31.8247 3
      vertex 11.7426 36.1401 13
    endloop
  endfacet
  facet normal 0.349279 0.784494 -0.512419
    outer loop
      vertex 19 32.909 13
      vertex 9.88854 30.4338 3
      vertex 11.7426 36.1401 13
    endloop
  endfacet
  facet normal 0.349279 0.784494 -0.512419
    outer loop
      vertex 16 27.7128 3
      vertex 9.88854 30.4338 3
      vertex 19 32.909 13
    endloop
  endfacet
  facet normal 0.504752 0.694732 -0.512419
    outer loop
      vertex 25.427 28.2395 13
      vertex 16 27.7128 3
      vertex 19 32.909 13
    endloop
  endfacet
  facet normal 0.504752 0.694732 -0.512419
    outer loop
      vertex 21.4122 23.7806 3
      vertex 16 27.7128 3
      vertex 25.427 28.2395 13
    endloop
  endfacet
  facet normal 0.638165 0.574606 -0.512419
    outer loop
      vertex 30.7426 22.3358 13
      vertex 21.4122 23.7806 3
      vertex 25.427 28.2395 13
    endloop
  endfacet
  facet normal 0.638165 0.574606 -0.512419
    outer loop
      vertex 25.8885 18.8091 3
      vertex 21.4122 23.7806 3
      vertex 30.7426 22.3358 13
    endloop
  endfacet
  facet normal 0.743687 0.429368 -0.512419
    outer loop
      vertex 34.7147 15.456 13
      vertex 25.8885 18.8091 3
      vertex 30.7426 22.3358 13
    endloop
  endfacet
  facet normal 0.743687 0.429368 -0.512419
    outer loop
      vertex 29.2335 13.0156 3
      vertex 25.8885 18.8091 3
      vertex 34.7147 15.456 13
    endloop
  endfacet
  facet normal 0.816706 0.265364 -0.512419
    outer loop
      vertex 37.1696 7.90064 13
      vertex 29.2335 13.0156 3
      vertex 34.7147 15.456 13
    endloop
  endfacet
  facet normal 0.816706 0.265364 -0.512419
    outer loop
      vertex 31.3007 6.65317 3
      vertex 29.2335 13.0156 3
      vertex 37.1696 7.90064 13
    endloop
  endfacet
  facet normal 0.854031 0.0897623 -0.512419
    outer loop
      vertex 38 0 13
      vertex 31.3007 6.65317 3
      vertex 37.1696 7.90064 13
    endloop
  endfacet
  facet normal 0.854031 0.0897623 -0.512419
    outer loop
      vertex 32 0 3
      vertex 31.3007 6.65317 3
      vertex 38 0 13
    endloop
  endfacet
  facet normal 0.854031 -0.0897623 -0.512419
    outer loop
      vertex 37.1696 -7.90064 13
      vertex 32 0 3
      vertex 38 0 13
    endloop
  endfacet
  facet normal 0.854031 -0.0897623 -0.512419
    outer loop
      vertex 37.1696 -7.90064 13
      vertex 31.3007 -6.65317 3
      vertex 32 0 3
    endloop
  endfacet
  facet normal 0.816706 -0.265364 -0.512419
    outer loop
      vertex 34.7147 -15.456 13
      vertex 31.3007 -6.65317 3
      vertex 37.1696 -7.90064 13
    endloop
  endfacet
  facet normal 0.816706 -0.265364 -0.512419
    outer loop
      vertex 34.7147 -15.456 13
      vertex 29.2335 -13.0156 3
      vertex 31.3007 -6.65317 3
    endloop
  endfacet
  facet normal 0.743687 -0.429368 -0.512419
    outer loop
      vertex 30.7426 -22.3358 13
      vertex 29.2335 -13.0156 3
      vertex 34.7147 -15.456 13
    endloop
  endfacet
  facet normal 0.743687 -0.429368 -0.512419
    outer loop
      vertex 30.7426 -22.3358 13
      vertex 25.8885 -18.8091 3
      vertex 29.2335 -13.0156 3
    endloop
  endfacet
  facet normal 0.638165 -0.574606 -0.512419
    outer loop
      vertex 30.7426 -22.3358 13
      vertex 25.427 -28.2395 13
      vertex 25.8885 -18.8091 3
    endloop
  endfacet
  facet normal 0.638165 -0.574606 -0.512419
    outer loop
      vertex 25.427 -28.2395 13
      vertex 21.4122 -23.7806 3
      vertex 25.8885 -18.8091 3
    endloop
  endfacet
  facet normal 0.504752 -0.694732 -0.512419
    outer loop
      vertex 25.427 -28.2395 13
      vertex 19 -32.909 13
      vertex 21.4122 -23.7806 3
    endloop
  endfacet
  facet normal 0.504752 -0.694732 -0.512419
    outer loop
      vertex 19 -32.909 13
      vertex 16 -27.7128 3
      vertex 21.4122 -23.7806 3
    endloop
  endfacet
  facet normal 0.349279 -0.784494 -0.512419
    outer loop
      vertex 19 -32.909 13
      vertex 11.7426 -36.1401 13
      vertex 16 -27.7128 3
    endloop
  endfacet
  facet normal 0.349279 -0.784494 -0.512419
    outer loop
      vertex 11.7426 -36.1401 13
      vertex 9.88854 -30.4338 3
      vertex 16 -27.7128 3
    endloop
  endfacet
  facet normal 0.178541 -0.83997 -0.512419
    outer loop
      vertex 11.7426 -36.1401 13
      vertex 3.97208 -37.7918 13
      vertex 9.88854 -30.4338 3
    endloop
  endfacet
  facet normal 0.178541 -0.83997 -0.512419
    outer loop
      vertex 3.97208 -37.7918 13
      vertex 3.34491 -31.8247 3
      vertex 9.88854 -30.4338 3
    endloop
  endfacet
  facet normal 0 -0.858736 -0.512419
    outer loop
      vertex 3.97208 -37.7918 13
      vertex -3.97208 -37.7918 13
      vertex -3.34491 -31.8247 3
    endloop
  endfacet
  facet normal 0 -0.858736 -0.512419
    outer loop
      vertex 3.34491 -31.8247 3
      vertex 3.97208 -37.7918 13
      vertex -3.34491 -31.8247 3
    endloop
  endfacet
  facet normal -0.178541 -0.83997 -0.512419
    outer loop
      vertex -3.97208 -37.7918 13
      vertex -11.7426 -36.1401 13
      vertex -3.34491 -31.8247 3
    endloop
  endfacet
  facet normal -0.178541 -0.83997 -0.512419
    outer loop
      vertex -3.34491 -31.8247 3
      vertex -11.7426 -36.1401 13
      vertex -9.88854 -30.4338 3
    endloop
  endfacet
  facet normal -0.349279 -0.784494 -0.512419
    outer loop
      vertex -11.7426 -36.1401 13
      vertex -19 -32.909 13
      vertex -9.88854 -30.4338 3
    endloop
  endfacet
  facet normal -0.349279 -0.784494 -0.512419
    outer loop
      vertex -9.88854 -30.4338 3
      vertex -19 -32.909 13
      vertex -16 -27.7128 3
    endloop
  endfacet
  facet normal -0.504752 -0.694732 -0.512419
    outer loop
      vertex -19 -32.909 13
      vertex -25.427 -28.2395 13
      vertex -16 -27.7128 3
    endloop
  endfacet
  facet normal -0.504752 -0.694732 -0.512419
    outer loop
      vertex -16 -27.7128 3
      vertex -25.427 -28.2395 13
      vertex -21.4122 -23.7806 3
    endloop
  endfacet
  facet normal -0.638165 -0.574606 -0.512419
    outer loop
      vertex -25.427 -28.2395 13
      vertex -30.7426 -22.3358 13
      vertex -21.4122 -23.7806 3
    endloop
  endfacet
  facet normal -0.638165 -0.574606 -0.512419
    outer loop
      vertex -21.4122 -23.7806 3
      vertex -30.7426 -22.3358 13
      vertex -25.8885 -18.8091 3
    endloop
  endfacet
  facet normal -0.743687 -0.429368 -0.512419
    outer loop
      vertex -30.7426 -22.3358 13
      vertex -34.7147 -15.456 13
      vertex -25.8885 -18.8091 3
    endloop
  endfacet
  facet normal -0.743687 -0.429368 -0.512419
    outer loop
      vertex -25.8885 -18.8091 3
      vertex -34.7147 -15.456 13
      vertex -29.2335 -13.0156 3
    endloop
  endfacet
  facet normal -0.816706 -0.265364 -0.512419
    outer loop
      vertex -34.7147 -15.456 13
      vertex -37.1696 -7.90064 13
      vertex -29.2335 -13.0156 3
    endloop
  endfacet
  facet normal -0.816706 -0.265364 -0.512419
    outer loop
      vertex -29.2335 -13.0156 3
      vertex -37.1696 -7.90064 13
      vertex -31.3007 -6.65317 3
    endloop
  endfacet
  facet normal 0.890501 0.0935954 0.44525
    outer loop
      vertex -34.7242 -7.38087 13
      vertex -29.8335 -6.34131 3
      vertex -29.8991 -5.71757 3
    endloop
  endfacet
  facet normal 0.890501 0.0935954 0.44525
    outer loop
      vertex -35.4454 -0.519779 13
      vertex -34.7242 -7.38087 13
      vertex -29.8991 -5.71757 3
    endloop
  endfacet
  facet normal 0.890501 0.0935954 0.44525
    outer loop
      vertex -35.4454 -0.519779 13
      vertex -29.8991 -5.71757 3
      vertex -30.5 0 3
    endloop
  endfacet
  facet normal 0.890501 0.0935954 0.44525
    outer loop
      vertex -35.5 0 13
      vertex -35.4454 -0.519779 13
      vertex -30.5 0 3
    endloop
  endfacet
  facet normal 0.851582 0.276696 0.44525
    outer loop
      vertex -34.5627 -7.87793 13
      vertex -28.0569 -11.809 3
      vertex -29.8335 -6.34131 3
    endloop
  endfacet
  facet normal 0.851582 0.276696 0.44525
    outer loop
      vertex -34.7242 -7.38087 13
      vertex -34.5627 -7.87793 13
      vertex -29.8335 -6.34131 3
    endloop
  endfacet
  facet normal 0.851582 0.276696 0.44525
    outer loop
      vertex -32.4309 -14.4392 13
      vertex -27.8631 -12.4055 3
      vertex -28.0569 -11.809 3
    endloop
  endfacet
  facet normal 0.851582 0.276696 0.44525
    outer loop
      vertex -34.5627 -7.87793 13
      vertex -32.4309 -14.4392 13
      vertex -28.0569 -11.809 3
    endloop
  endfacet
  facet normal 0.775444 0.447703 0.44525
    outer loop
      vertex -32.1695 -14.8918 13
      vertex -24.9886 -17.3843 3
      vertex -27.8631 -12.4055 3
    endloop
  endfacet
  facet normal 0.775444 0.447703 0.44525
    outer loop
      vertex -32.4309 -14.4392 13
      vertex -32.1695 -14.8918 13
      vertex -27.8631 -12.4055 3
    endloop
  endfacet
  facet normal 0.775444 0.447703 0.44525
    outer loop
      vertex -28.7201 -20.8664 13
      vertex -24.675 -17.9275 3
      vertex -24.9886 -17.3843 3
    endloop
  endfacet
  facet normal 0.775444 0.447703 0.44525
    outer loop
      vertex -32.1695 -14.8918 13
      vertex -28.7201 -20.8664 13
      vertex -24.9886 -17.3843 3
    endloop
  endfacet
  facet normal 0.665416 0.599144 0.44525
    outer loop
      vertex -28.3704 -21.2548 13
      vertex -20.8281 -22.1998 3
      vertex -24.675 -17.9275 3
    endloop
  endfacet
  facet normal 0.665416 0.599144 0.44525
    outer loop
      vertex -28.7201 -20.8664 13
      vertex -28.3704 -21.2548 13
      vertex -24.675 -17.9275 3
    endloop
  endfacet
  facet normal 0.665416 0.599144 0.44525
    outer loop
      vertex -23.7541 -26.3816 13
      vertex -20.4085 -22.6659 3
      vertex -20.8281 -22.1998 3
    endloop
  endfacet
  facet normal 0.665416 0.599144 0.44525
    outer loop
      vertex -28.3704 -21.2548 13
      vertex -23.7541 -26.3816 13
      vertex -20.8281 -22.1998 3
    endloop
  endfacet
  facet normal 0.526306 0.724399 0.44525
    outer loop
      vertex -15.7574 -26.0451 3
      vertex -20.4085 -22.6659 3
      vertex -23.3313 -26.6888 13
    endloop
  endfacet
  facet normal 0.526306 0.724399 0.44525
    outer loop
      vertex -23.3313 -26.6888 13
      vertex -20.4085 -22.6659 3
      vertex -23.7541 -26.3816 13
    endloop
  endfacet
  facet normal 0.526306 0.724399 0.44525
    outer loop
      vertex -15.25 -26.4138 3
      vertex -15.7574 -26.0451 3
      vertex -17.75 -30.7439 13
    endloop
  endfacet
  facet normal 0.526306 0.724399 0.44525
    outer loop
      vertex -17.75 -30.7439 13
      vertex -15.7574 -26.0451 3
      vertex -23.3313 -26.6888 13
    endloop
  endfacet
  facet normal 0.364194 0.817994 0.44525
    outer loop
      vertex -9.99797 -28.7521 3
      vertex -15.25 -26.4138 3
      vertex -17.2725 -30.9565 13
    endloop
  endfacet
  facet normal 0.364194 0.817994 0.44525
    outer loop
      vertex -17.2725 -30.9565 13
      vertex -15.25 -26.4138 3
      vertex -17.75 -30.7439 13
    endloop
  endfacet
  facet normal 0.364194 0.817994 0.445251
    outer loop
      vertex -9.42502 -29.0072 3
      vertex -9.99797 -28.7521 3
      vertex -10.9701 -33.7625 13
    endloop
  endfacet
  facet normal 0.364194 0.817994 0.445251
    outer loop
      vertex -10.9701 -33.7625 13
      vertex -9.99797 -28.7521 3
      vertex -17.2725 -30.9565 13
    endloop
  endfacet
  facet normal 0.186165 0.875839 0.445251
    outer loop
      vertex -3.80158 -30.2025 3
      vertex -9.42502 -29.0072 3
      vertex -10.4589 -33.8712 13
    endloop
  endfacet
  facet normal 0.186165 0.875839 0.445251
    outer loop
      vertex -10.4589 -33.8712 13
      vertex -9.42502 -29.0072 3
      vertex -10.9701 -33.7625 13
    endloop
  endfacet
  facet normal 0.186165 0.875839 0.44525
    outer loop
      vertex -3.18812 -30.3329 3
      vertex -3.80158 -30.2025 3
      vertex -3.71076 -35.3055 13
    endloop
  endfacet
  facet normal 0.186165 0.875839 0.44525
    outer loop
      vertex -3.71076 -35.3055 13
      vertex -3.80158 -30.2025 3
      vertex -10.4589 -33.8712 13
    endloop
  endfacet
  facet normal 0 0.895406 0.44525
    outer loop
      vertex 3.18812 -30.3329 3
      vertex -3.18812 -30.3329 3
      vertex 3.71076 -35.3055 13
    endloop
  endfacet
  facet normal 0 0.895406 0.44525
    outer loop
      vertex 3.71076 -35.3055 13
      vertex -3.18812 -30.3329 3
      vertex -3.71076 -35.3055 13
    endloop
  endfacet
  facet normal -0.186165 0.875839 0.44525
    outer loop
      vertex 4.22198 -35.1969 13
      vertex 8.81155 -29.1376 3
      vertex 3.71076 -35.3055 13
    endloop
  endfacet
  facet normal -0.186165 0.875839 0.44525
    outer loop
      vertex 3.71076 -35.3055 13
      vertex 8.81155 -29.1376 3
      vertex 3.18812 -30.3329 3
    endloop
  endfacet
  facet normal -0.186165 0.875839 0.445251
    outer loop
      vertex 9.42502 -29.0072 3
      vertex 8.81155 -29.1376 3
      vertex 10.9701 -33.7625 13
    endloop
  endfacet
  facet normal -0.186165 0.875839 0.445251
    outer loop
      vertex 10.9701 -33.7625 13
      vertex 8.81155 -29.1376 3
      vertex 4.22198 -35.1969 13
    endloop
  endfacet
  facet normal -0.364194 0.817994 0.445251
    outer loop
      vertex 11.4476 -33.5499 13
      vertex 14.6771 -26.6689 3
      vertex 10.9701 -33.7625 13
    endloop
  endfacet
  facet normal -0.364194 0.817994 0.445251
    outer loop
      vertex 10.9701 -33.7625 13
      vertex 14.6771 -26.6689 3
      vertex 9.42502 -29.0072 3
    endloop
  endfacet
  facet normal -0.364194 0.817994 0.44525
    outer loop
      vertex 15.25 -26.4138 3
      vertex 14.6771 -26.6689 3
      vertex 17.75 -30.7439 13
    endloop
  endfacet
  facet normal -0.364194 0.817994 0.44525
    outer loop
      vertex 17.75 -30.7439 13
      vertex 14.6771 -26.6689 3
      vertex 11.4476 -33.5499 13
    endloop
  endfacet
  facet normal -0.526306 0.724399 0.44525
    outer loop
      vertex 18.1728 -30.4367 13
      vertex 19.9011 -23.0346 3
      vertex 17.75 -30.7439 13
    endloop
  endfacet
  facet normal -0.526306 0.724399 0.44525
    outer loop
      vertex 17.75 -30.7439 13
      vertex 19.9011 -23.0346 3
      vertex 15.25 -26.4138 3
    endloop
  endfacet
  facet normal -0.526306 0.724399 0.44525
    outer loop
      vertex 20.4085 -22.6659 3
      vertex 19.9011 -23.0346 3
      vertex 23.7541 -26.3816 13
    endloop
  endfacet
  facet normal -0.526306 0.724399 0.44525
    outer loop
      vertex 23.7541 -26.3816 13
      vertex 19.9011 -23.0346 3
      vertex 18.1728 -30.4367 13
    endloop
  endfacet
  facet normal -0.665416 0.599144 0.44525
    outer loop
      vertex 24.1039 -25.9932 13
      vertex 24.2554 -18.3935 3
      vertex 23.7541 -26.3816 13
    endloop
  endfacet
  facet normal -0.665416 0.599144 0.44525
    outer loop
      vertex 23.7541 -26.3816 13
      vertex 24.2554 -18.3935 3
      vertex 20.4085 -22.6659 3
    endloop
  endfacet
  facet normal -0.665416 0.599144 0.44525
    outer loop
      vertex 24.675 -17.9275 3
      vertex 24.2554 -18.3935 3
      vertex 28.7201 -20.8664 13
    endloop
  endfacet
  facet normal -0.665416 0.599144 0.44525
    outer loop
      vertex 28.7201 -20.8664 13
      vertex 24.2554 -18.3935 3
      vertex 24.1039 -25.9932 13
    endloop
  endfacet
  facet normal -0.775444 0.447703 0.44525
    outer loop
      vertex 28.9814 -20.4138 13
      vertex 27.5496 -12.9486 3
      vertex 28.7201 -20.8664 13
    endloop
  endfacet
  facet normal -0.775444 0.447703 0.44525
    outer loop
      vertex 28.7201 -20.8664 13
      vertex 27.5496 -12.9486 3
      vertex 24.675 -17.9275 3
    endloop
  endfacet
  facet normal -0.775444 0.447703 0.44525
    outer loop
      vertex 32.4309 -14.4392 13
      vertex 27.8631 -12.4055 3
      vertex 28.9814 -20.4138 13
    endloop
  endfacet
  facet normal -0.775444 0.447703 0.44525
    outer loop
      vertex 28.9814 -20.4138 13
      vertex 27.8631 -12.4055 3
      vertex 27.5496 -12.9486 3
    endloop
  endfacet
  facet normal -0.851582 0.276696 0.44525
    outer loop
      vertex 32.5924 -13.9421 13
      vertex 29.6397 -6.93778 3
      vertex 32.4309 -14.4392 13
    endloop
  endfacet
  facet normal -0.851582 0.276696 0.44525
    outer loop
      vertex 32.4309 -14.4392 13
      vertex 29.6397 -6.93778 3
      vertex 27.8631 -12.4055 3
    endloop
  endfacet
  facet normal -0.851582 0.276696 0.44525
    outer loop
      vertex 34.7242 -7.38087 13
      vertex 29.8335 -6.34131 3
      vertex 32.5924 -13.9421 13
    endloop
  endfacet
  facet normal -0.851582 0.276696 0.44525
    outer loop
      vertex 32.5924 -13.9421 13
      vertex 29.8335 -6.34131 3
      vertex 29.6397 -6.93778 3
    endloop
  endfacet
  facet normal -0.890501 0.0935954 0.44525
    outer loop
      vertex 34.7789 -6.86109 13
      vertex 30.4344 -0.623735 3
      vertex 34.7242 -7.38087 13
    endloop
  endfacet
  facet normal -0.890501 0.0935954 0.44525
    outer loop
      vertex 34.7242 -7.38087 13
      vertex 30.4344 -0.623735 3
      vertex 29.8335 -6.34131 3
    endloop
  endfacet
  facet normal -0.890501 0.0935954 0.44525
    outer loop
      vertex 35.5 0 13
      vertex 30.5 0 3
      vertex 34.7789 -6.86109 13
    endloop
  endfacet
  facet normal -0.890501 0.0935954 0.44525
    outer loop
      vertex 34.7789 -6.86109 13
      vertex 30.5 0 3
      vertex 30.4344 -0.623735 3
    endloop
  endfacet
  facet normal -0.890501 -0.0935954 0.44525
    outer loop
      vertex 35.5 0 13
      vertex 35.4454 0.519779 13
      vertex 30.5 0 3
    endloop
  endfacet
  facet normal -0.890501 -0.0935954 0.44525
    outer loop
      vertex 30.5 0 3
      vertex 35.4454 0.519779 13
      vertex 29.8991 5.71757 3
    endloop
  endfacet
  facet normal -0.890501 -0.0935954 0.44525
    outer loop
      vertex 35.4454 0.519779 13
      vertex 34.7242 7.38087 13
      vertex 29.8991 5.71757 3
    endloop
  endfacet
  facet normal -0.890501 -0.0935954 0.44525
    outer loop
      vertex 29.8991 5.71757 3
      vertex 34.7242 7.38087 13
      vertex 29.8335 6.34131 3
    endloop
  endfacet
  facet normal -0.851582 -0.276696 0.44525
    outer loop
      vertex 34.7242 7.38087 13
      vertex 34.5627 7.87793 13
      vertex 29.8335 6.34131 3
    endloop
  endfacet
  facet normal -0.851582 -0.276696 0.44525
    outer loop
      vertex 29.8335 6.34131 3
      vertex 34.5627 7.87793 13
      vertex 28.0569 11.809 3
    endloop
  endfacet
  facet normal -0.851582 -0.276696 0.44525
    outer loop
      vertex 34.5627 7.87793 13
      vertex 32.4309 14.4392 13
      vertex 28.0569 11.809 3
    endloop
  endfacet
  facet normal -0.851582 -0.276696 0.44525
    outer loop
      vertex 28.0569 11.809 3
      vertex 32.4309 14.4392 13
      vertex 27.8631 12.4055 3
    endloop
  endfacet
  facet normal -0.775444 -0.447703 0.44525
    outer loop
      vertex 32.4309 14.4392 13
      vertex 32.1695 14.8918 13
      vertex 27.8631 12.4055 3
    endloop
  endfacet
  facet normal -0.775444 -0.447703 0.44525
    outer loop
      vertex 27.8631 12.4055 3
      vertex 32.1695 14.8918 13
      vertex 24.9886 17.3843 3
    endloop
  endfacet
  facet normal -0.775444 -0.447703 0.44525
    outer loop
      vertex 32.1695 14.8918 13
      vertex 28.7201 20.8664 13
      vertex 24.9886 17.3843 3
    endloop
  endfacet
  facet normal -0.775444 -0.447703 0.44525
    outer loop
      vertex 24.9886 17.3843 3
      vertex 28.7201 20.8664 13
      vertex 24.675 17.9275 3
    endloop
  endfacet
  facet normal -0.665416 -0.599144 0.44525
    outer loop
      vertex 28.7201 20.8664 13
      vertex 28.3704 21.2548 13
      vertex 24.675 17.9275 3
    endloop
  endfacet
  facet normal -0.665416 -0.599144 0.44525
    outer loop
      vertex 24.675 17.9275 3
      vertex 28.3704 21.2548 13
      vertex 20.8281 22.1998 3
    endloop
  endfacet
  facet normal -0.665416 -0.599144 0.44525
    outer loop
      vertex 28.3704 21.2548 13
      vertex 23.7541 26.3816 13
      vertex 20.8281 22.1998 3
    endloop
  endfacet
  facet normal -0.665416 -0.599144 0.44525
    outer loop
      vertex 20.8281 22.1998 3
      vertex 23.7541 26.3816 13
      vertex 20.4085 22.6659 3
    endloop
  endfacet
  facet normal -0.526306 -0.724399 0.44525
    outer loop
      vertex 20.4085 22.6659 3
      vertex 23.7541 26.3816 13
      vertex 23.3313 26.6888 13
    endloop
  endfacet
  facet normal -0.526306 -0.724399 0.44525
    outer loop
      vertex 15.7574 26.0451 3
      vertex 20.4085 22.6659 3
      vertex 23.3313 26.6888 13
    endloop
  endfacet
  facet normal -0.526306 -0.724399 0.44525
    outer loop
      vertex 15.7574 26.0451 3
      vertex 23.3313 26.6888 13
      vertex 17.75 30.7439 13
    endloop
  endfacet
  facet normal -0.526306 -0.724399 0.44525
    outer loop
      vertex 15.25 26.4138 3
      vertex 15.7574 26.0451 3
      vertex 17.75 30.7439 13
    endloop
  endfacet
  facet normal -0.364194 -0.817994 0.44525
    outer loop
      vertex 15.25 26.4138 3
      vertex 17.75 30.7439 13
      vertex 17.2725 30.9565 13
    endloop
  endfacet
  facet normal -0.364194 -0.817994 0.44525
    outer loop
      vertex 9.99797 28.7521 3
      vertex 15.25 26.4138 3
      vertex 17.2725 30.9565 13
    endloop
  endfacet
  facet normal -0.364194 -0.817994 0.445251
    outer loop
      vertex 9.99797 28.7521 3
      vertex 17.2725 30.9565 13
      vertex 10.9701 33.7625 13
    endloop
  endfacet
  facet normal -0.364194 -0.817994 0.445251
    outer loop
      vertex 9.42502 29.0072 3
      vertex 9.99797 28.7521 3
      vertex 10.9701 33.7625 13
    endloop
  endfacet
  facet normal -0.186165 -0.875839 0.445251
    outer loop
      vertex 9.42502 29.0072 3
      vertex 10.9701 33.7625 13
      vertex 10.4589 33.8712 13
    endloop
  endfacet
  facet normal -0.186165 -0.875839 0.445251
    outer loop
      vertex 3.80158 30.2025 3
      vertex 9.42502 29.0072 3
      vertex 10.4589 33.8712 13
    endloop
  endfacet
  facet normal -0.186165 -0.875839 0.44525
    outer loop
      vertex 3.80158 30.2025 3
      vertex 10.4589 33.8712 13
      vertex 3.71076 35.3055 13
    endloop
  endfacet
  facet normal -0.186165 -0.875839 0.44525
    outer loop
      vertex 3.18812 30.3329 3
      vertex 3.80158 30.2025 3
      vertex 3.71076 35.3055 13
    endloop
  endfacet
  facet normal 0 -0.895406 0.44525
    outer loop
      vertex -3.18812 30.3329 3
      vertex 3.18812 30.3329 3
      vertex 3.71076 35.3055 13
    endloop
  endfacet
  facet normal 0 -0.895406 0.44525
    outer loop
      vertex -3.71076 35.3055 13
      vertex -3.18812 30.3329 3
      vertex 3.71076 35.3055 13
    endloop
  endfacet
  facet normal 0.186165 -0.875839 0.44525
    outer loop
      vertex -3.18812 30.3329 3
      vertex -3.71076 35.3055 13
      vertex -4.22198 35.1969 13
    endloop
  endfacet
  facet normal 0.186165 -0.875839 0.44525
    outer loop
      vertex -8.81155 29.1376 3
      vertex -3.18812 30.3329 3
      vertex -4.22198 35.1969 13
    endloop
  endfacet
  facet normal 0.186165 -0.875839 0.445251
    outer loop
      vertex -9.42502 29.0072 3
      vertex -8.81155 29.1376 3
      vertex -4.22198 35.1969 13
    endloop
  endfacet
  facet normal 0.186165 -0.875839 0.445251
    outer loop
      vertex -10.9701 33.7625 13
      vertex -9.42502 29.0072 3
      vertex -4.22198 35.1969 13
    endloop
  endfacet
  facet normal 0.364194 -0.817994 0.445251
    outer loop
      vertex -9.42502 29.0072 3
      vertex -10.9701 33.7625 13
      vertex -11.4476 33.5499 13
    endloop
  endfacet
  facet normal 0.364194 -0.817994 0.445251
    outer loop
      vertex -14.6771 26.6689 3
      vertex -9.42502 29.0072 3
      vertex -11.4476 33.5499 13
    endloop
  endfacet
  facet normal 0.364194 -0.817994 0.44525
    outer loop
      vertex -15.25 26.4138 3
      vertex -14.6771 26.6689 3
      vertex -11.4476 33.5499 13
    endloop
  endfacet
  facet normal 0.364194 -0.817994 0.44525
    outer loop
      vertex -17.75 30.7439 13
      vertex -15.25 26.4138 3
      vertex -11.4476 33.5499 13
    endloop
  endfacet
  facet normal 0.526306 -0.724399 0.44525
    outer loop
      vertex -15.25 26.4138 3
      vertex -17.75 30.7439 13
      vertex -18.1728 30.4367 13
    endloop
  endfacet
  facet normal 0.526306 -0.724399 0.44525
    outer loop
      vertex -19.9011 23.0346 3
      vertex -15.25 26.4138 3
      vertex -18.1728 30.4367 13
    endloop
  endfacet
  facet normal 0.526306 -0.724399 0.44525
    outer loop
      vertex -20.4085 22.6659 3
      vertex -19.9011 23.0346 3
      vertex -18.1728 30.4367 13
    endloop
  endfacet
  facet normal 0.526306 -0.724399 0.44525
    outer loop
      vertex -23.7541 26.3816 13
      vertex -20.4085 22.6659 3
      vertex -18.1728 30.4367 13
    endloop
  endfacet
  facet normal 0.665416 -0.599144 0.44525
    outer loop
      vertex -20.4085 22.6659 3
      vertex -23.7541 26.3816 13
      vertex -24.1039 25.9932 13
    endloop
  endfacet
  facet normal 0.665416 -0.599144 0.44525
    outer loop
      vertex -24.2554 18.3935 3
      vertex -20.4085 22.6659 3
      vertex -24.1039 25.9932 13
    endloop
  endfacet
  facet normal 0.665416 -0.599144 0.44525
    outer loop
      vertex -24.675 17.9275 3
      vertex -24.2554 18.3935 3
      vertex -24.1039 25.9932 13
    endloop
  endfacet
  facet normal 0.665416 -0.599144 0.44525
    outer loop
      vertex -28.7201 20.8664 13
      vertex -24.675 17.9275 3
      vertex -24.1039 25.9932 13
    endloop
  endfacet
  facet normal 0.775444 -0.447703 0.44525
    outer loop
      vertex -27.5496 12.9486 3
      vertex -24.675 17.9275 3
      vertex -28.7201 20.8664 13
    endloop
  endfacet
  facet normal 0.775444 -0.447703 0.44525
    outer loop
      vertex -28.9814 20.4138 13
      vertex -27.5496 12.9486 3
      vertex -28.7201 20.8664 13
    endloop
  endfacet
  facet normal 0.775444 -0.447703 0.44525
    outer loop
      vertex -27.8631 12.4055 3
      vertex -27.5496 12.9486 3
      vertex -28.9814 20.4138 13
    endloop
  endfacet
  facet normal 0.775444 -0.447703 0.44525
    outer loop
      vertex -32.4309 14.4392 13
      vertex -27.8631 12.4055 3
      vertex -28.9814 20.4138 13
    endloop
  endfacet
  facet normal 0.851582 -0.276696 0.44525
    outer loop
      vertex -29.6397 6.93778 3
      vertex -27.8631 12.4055 3
      vertex -32.4309 14.4392 13
    endloop
  endfacet
  facet normal 0.851582 -0.276696 0.44525
    outer loop
      vertex -32.5924 13.9421 13
      vertex -29.6397 6.93778 3
      vertex -32.4309 14.4392 13
    endloop
  endfacet
  facet normal 0.851582 -0.276696 0.44525
    outer loop
      vertex -29.8335 6.34131 3
      vertex -29.6397 6.93778 3
      vertex -32.5924 13.9421 13
    endloop
  endfacet
  facet normal 0.851582 -0.276696 0.44525
    outer loop
      vertex -34.7242 7.38087 13
      vertex -29.8335 6.34131 3
      vertex -32.5924 13.9421 13
    endloop
  endfacet
  facet normal 0.890501 -0.0935954 0.44525
    outer loop
      vertex -30.4344 0.623735 3
      vertex -29.8335 6.34131 3
      vertex -34.7242 7.38087 13
    endloop
  endfacet
  facet normal 0.890501 -0.0935954 0.44525
    outer loop
      vertex -34.7789 6.86109 13
      vertex -30.4344 0.623735 3
      vertex -34.7242 7.38087 13
    endloop
  endfacet
  facet normal 0.890501 -0.0935954 0.44525
    outer loop
      vertex -30.5 0 3
      vertex -30.4344 0.623735 3
      vertex -34.7789 6.86109 13
    endloop
  endfacet
  facet normal 0.890501 -0.0935954 0.44525
    outer loop
      vertex -35.5 0 13
      vertex -30.5 0 3
      vertex -34.7789 6.86109 13
    endloop
  endfacet
  facet normal -0.951057 -0.309017 0
    outer loop
      vertex -31.3007 -6.65317 0
      vertex -29.2335 -13.0156 0
      vertex -31.3007 -6.65317 3
    endloop
  endfacet
  facet normal -0.951057 -0.309017 0
    outer loop
      vertex -31.3007 -6.65317 3
      vertex -29.2335 -13.0156 0
      vertex -29.2335 -13.0156 3
    endloop
  endfacet
  facet normal -0.994522 -0.104528 0
    outer loop
      vertex -32 0 0
      vertex -31.3007 -6.65317 0
      vertex -32 0 3
    endloop
  endfacet
  facet normal -0.994522 -0.104528 0
    outer loop
      vertex -32 0 3
      vertex -31.3007 -6.65317 0
      vertex -31.3007 -6.65317 3
    endloop
  endfacet
  facet normal -0.994522 0.104528 0
    outer loop
      vertex -32 0 0
      vertex -32 0 3
      vertex -31.3007 6.65317 0
    endloop
  endfacet
  facet normal -0.994522 0.104528 0
    outer loop
      vertex -31.3007 6.65317 0
      vertex -32 0 3
      vertex -31.3007 6.65317 3
    endloop
  endfacet
  facet normal -0.951057 0.309017 0
    outer loop
      vertex -31.3007 6.65317 0
      vertex -31.3007 6.65317 3
      vertex -29.2335 13.0156 0
    endloop
  endfacet
  facet normal -0.951057 0.309017 0
    outer loop
      vertex -29.2335 13.0156 0
      vertex -31.3007 6.65317 3
      vertex -29.2335 13.0156 3
    endloop
  endfacet
  facet normal -0.866025 0.5 0
    outer loop
      vertex -29.2335 13.0156 0
      vertex -29.2335 13.0156 3
      vertex -25.8885 18.8091 0
    endloop
  endfacet
  facet normal -0.866025 0.5 0
    outer loop
      vertex -25.8885 18.8091 0
      vertex -29.2335 13.0156 3
      vertex -25.8885 18.8091 3
    endloop
  endfacet
  facet normal -0.743145 0.669131 0
    outer loop
      vertex -25.8885 18.8091 0
      vertex -25.8885 18.8091 3
      vertex -21.4122 23.7806 0
    endloop
  endfacet
  facet normal -0.743145 0.669131 0
    outer loop
      vertex -21.4122 23.7806 0
      vertex -25.8885 18.8091 3
      vertex -21.4122 23.7806 3
    endloop
  endfacet
  facet normal -0.587785 0.809017 0
    outer loop
      vertex -21.4122 23.7806 0
      vertex -21.4122 23.7806 3
      vertex -16 27.7128 0
    endloop
  endfacet
  facet normal -0.587785 0.809017 0
    outer loop
      vertex -16 27.7128 0
      vertex -21.4122 23.7806 3
      vertex -16 27.7128 3
    endloop
  endfacet
  facet normal -0.406737 0.913545 0
    outer loop
      vertex -16 27.7128 0
      vertex -16 27.7128 3
      vertex -9.88854 30.4338 0
    endloop
  endfacet
  facet normal -0.406737 0.913545 0
    outer loop
      vertex -9.88854 30.4338 0
      vertex -16 27.7128 3
      vertex -9.88854 30.4338 3
    endloop
  endfacet
  facet normal -0.207912 0.978148 0
    outer loop
      vertex -9.88854 30.4338 0
      vertex -9.88854 30.4338 3
      vertex -3.34491 31.8247 0
    endloop
  endfacet
  facet normal -0.207912 0.978148 0
    outer loop
      vertex -3.34491 31.8247 0
      vertex -9.88854 30.4338 3
      vertex -3.34491 31.8247 3
    endloop
  endfacet
  facet normal 0 1 0
    outer loop
      vertex -3.34491 31.8247 0
      vertex -3.34491 31.8247 3
      vertex 3.34491 31.8247 0
    endloop
  endfacet
  facet normal 0 1 0
    outer loop
      vertex 3.34491 31.8247 0
      vertex -3.34491 31.8247 3
      vertex 3.34491 31.8247 3
    endloop
  endfacet
  facet normal 0.207912 0.978148 0
    outer loop
      vertex 3.34491 31.8247 0
      vertex 3.34491 31.8247 3
      vertex 9.88854 30.4338 0
    endloop
  endfacet
  facet normal 0.207912 0.978148 0
    outer loop
      vertex 9.88854 30.4338 0
      vertex 3.34491 31.8247 3
      vertex 9.88854 30.4338 3
    endloop
  endfacet
  facet normal 0.406737 0.913545 0
    outer loop
      vertex 9.88854 30.4338 0
      vertex 9.88854 30.4338 3
      vertex 16 27.7128 0
    endloop
  endfacet
  facet normal 0.406737 0.913545 0
    outer loop
      vertex 16 27.7128 0
      vertex 9.88854 30.4338 3
      vertex 16 27.7128 3
    endloop
  endfacet
  facet normal 0.587785 0.809017 0
    outer loop
      vertex 16 27.7128 0
      vertex 16 27.7128 3
      vertex 21.4122 23.7806 0
    endloop
  endfacet
  facet normal 0.587785 0.809017 0
    outer loop
      vertex 21.4122 23.7806 0
      vertex 16 27.7128 3
      vertex 21.4122 23.7806 3
    endloop
  endfacet
  facet normal 0.743145 0.669131 0
    outer loop
      vertex 25.8885 18.8091 0
      vertex 21.4122 23.7806 0
      vertex 21.4122 23.7806 3
    endloop
  endfacet
  facet normal 0.743145 0.669131 0
    outer loop
      vertex 25.8885 18.8091 3
      vertex 25.8885 18.8091 0
      vertex 21.4122 23.7806 3
    endloop
  endfacet
  facet normal 0.866025 0.5 0
    outer loop
      vertex 29.2335 13.0156 0
      vertex 25.8885 18.8091 0
      vertex 25.8885 18.8091 3
    endloop
  endfacet
  facet normal 0.866025 0.5 0
    outer loop
      vertex 29.2335 13.0156 3
      vertex 29.2335 13.0156 0
      vertex 25.8885 18.8091 3
    endloop
  endfacet
  facet normal 0.951057 0.309017 0
    outer loop
      vertex 31.3007 6.65317 0
      vertex 29.2335 13.0156 0
      vertex 29.2335 13.0156 3
    endloop
  endfacet
  facet normal 0.951057 0.309017 0
    outer loop
      vertex 31.3007 6.65317 3
      vertex 31.3007 6.65317 0
      vertex 29.2335 13.0156 3
    endloop
  endfacet
  facet normal 0.994522 0.104528 0
    outer loop
      vertex 32 0 0
      vertex 31.3007 6.65317 0
      vertex 31.3007 6.65317 3
    endloop
  endfacet
  facet normal 0.994522 0.104528 0
    outer loop
      vertex 32 0 3
      vertex 32 0 0
      vertex 31.3007 6.65317 3
    endloop
  endfacet
  facet normal 0.994522 -0.104528 0
    outer loop
      vertex 31.3007 -6.65317 3
      vertex 31.3007 -6.65317 0
      vertex 32 0 0
    endloop
  endfacet
  facet normal 0.994522 -0.104528 0
    outer loop
      vertex 32 0 3
      vertex 31.3007 -6.65317 3
      vertex 32 0 0
    endloop
  endfacet
  facet normal 0.951057 -0.309017 0
    outer loop
      vertex 29.2335 -13.0156 3
      vertex 29.2335 -13.0156 0
      vertex 31.3007 -6.65317 0
    endloop
  endfacet
  facet normal 0.951057 -0.309017 0
    outer loop
      vertex 31.3007 -6.65317 3
      vertex 29.2335 -13.0156 3
      vertex 31.3007 -6.65317 0
    endloop
  endfacet
  facet normal 0.866025 -0.5 0
    outer loop
      vertex 25.8885 -18.8091 3
      vertex 25.8885 -18.8091 0
      vertex 29.2335 -13.0156 0
    endloop
  endfacet
  facet normal 0.866025 -0.5 0
    outer loop
      vertex 29.2335 -13.0156 3
      vertex 25.8885 -18.8091 3
      vertex 29.2335 -13.0156 0
    endloop
  endfacet
  facet normal 0.743145 -0.669131 0
    outer loop
      vertex 21.4122 -23.7806 3
      vertex 21.4122 -23.7806 0
      vertex 25.8885 -18.8091 0
    endloop
  endfacet
  facet normal 0.743145 -0.669131 0
    outer loop
      vertex 25.8885 -18.8091 3
      vertex 21.4122 -23.7806 3
      vertex 25.8885 -18.8091 0
    endloop
  endfacet
  facet normal 0.587785 -0.809017 0
    outer loop
      vertex 16 -27.7128 3
      vertex 16 -27.7128 0
      vertex 21.4122 -23.7806 0
    endloop
  endfacet
  facet normal 0.587785 -0.809017 0
    outer loop
      vertex 21.4122 -23.7806 3
      vertex 16 -27.7128 3
      vertex 21.4122 -23.7806 0
    endloop
  endfacet
  facet normal 0.406737 -0.913545 0
    outer loop
      vertex 9.88854 -30.4338 3
      vertex 9.88854 -30.4338 0
      vertex 16 -27.7128 0
    endloop
  endfacet
  facet normal 0.406737 -0.913545 0
    outer loop
      vertex 16 -27.7128 3
      vertex 9.88854 -30.4338 3
      vertex 16 -27.7128 0
    endloop
  endfacet
  facet normal 0.207912 -0.978148 0
    outer loop
      vertex 3.34491 -31.8247 3
      vertex 3.34491 -31.8247 0
      vertex 9.88854 -30.4338 0
    endloop
  endfacet
  facet normal 0.207912 -0.978148 0
    outer loop
      vertex 9.88854 -30.4338 3
      vertex 3.34491 -31.8247 3
      vertex 9.88854 -30.4338 0
    endloop
  endfacet
  facet normal 0 -1 0
    outer loop
      vertex -3.34491 -31.8247 3
      vertex -3.34491 -31.8247 0
      vertex 3.34491 -31.8247 0
    endloop
  endfacet
  facet normal 0 -1 0
    outer loop
      vertex 3.34491 -31.8247 3
      vertex -3.34491 -31.8247 3
      vertex 3.34491 -31.8247 0
    endloop
  endfacet
  facet normal -0.207912 -0.978148 0
    outer loop
      vertex -9.88854 -30.4338 3
      vertex -9.88854 -30.4338 0
      vertex -3.34491 -31.8247 0
    endloop
  endfacet
  facet normal -0.207912 -0.978148 0
    outer loop
      vertex -3.34491 -31.8247 3
      vertex -9.88854 -30.4338 3
      vertex -3.34491 -31.8247 0
    endloop
  endfacet
  facet normal -0.406737 -0.913545 0
    outer loop
      vertex -16 -27.7128 3
      vertex -16 -27.7128 0
      vertex -9.88854 -30.4338 0
    endloop
  endfacet
  facet normal -0.406737 -0.913545 0
    outer loop
      vertex -9.88854 -30.4338 3
      vertex -16 -27.7128 3
      vertex -9.88854 -30.4338 0
    endloop
  endfacet
  facet normal -0.587785 -0.809017 0
    outer loop
      vertex -21.4122 -23.7806 3
      vertex -21.4122 -23.7806 0
      vertex -16 -27.7128 0
    endloop
  endfacet
  facet normal -0.587785 -0.809017 0
    outer loop
      vertex -16 -27.7128 3
      vertex -21.4122 -23.7806 3
      vertex -16 -27.7128 0
    endloop
  endfacet
  facet normal -0.743145 -0.669131 0
    outer loop
      vertex -25.8885 -18.8091 0
      vertex -21.4122 -23.7806 0
      vertex -25.8885 -18.8091 3
    endloop
  endfacet
  facet normal -0.743145 -0.669131 0
    outer loop
      vertex -25.8885 -18.8091 3
      vertex -21.4122 -23.7806 0
      vertex -21.4122 -23.7806 3
    endloop
  endfacet
  facet normal -0.866025 -0.5 0
    outer loop
      vertex -29.2335 -13.0156 0
      vertex -25.8885 -18.8091 0
      vertex -29.2335 -13.0156 3
    endloop
  endfacet
  facet normal -0.866025 -0.5 0
    outer loop
      vertex -29.2335 -13.0156 3
      vertex -25.8885 -18.8091 0
      vertex -25.8885 -18.8091 3
    endloop
  endfacet
  facet normal 0 0 1
    outer loop
      vertex -24.9886 -17.3843 3
      vertex -24.675 -17.9275 3
      vertex -30.4344 0.623735 3
    endloop
  endfacet
  facet normal 0 0 1
    outer loop
      vertex -30.4344 0.623735 3
      vertex -30.5 0 3
      vertex -29.8991 -5.71757 3
    endloop
  endfacet
  facet normal 0 0 1
    outer loop
      vertex -29.8335 -6.34131 3
      vertex -30.4344 0.623735 3
      vertex -29.8991 -5.71757 3
    endloop
  endfacet
  facet normal 0 0 1
    outer loop
      vertex -29.8335 -6.34131 3
      vertex -28.0569 -11.809 3
      vertex -30.4344 0.623735 3
    endloop
  endfacet
  facet normal 0 0 1
    outer loop
      vertex -28.0569 -11.809 3
      vertex -27.8631 -12.4055 3
      vertex -30.4344 0.623735 3
    endloop
  endfacet
  facet normal 0 0 1
    outer loop
      vertex -27.8631 -12.4055 3
      vertex -24.9886 -17.3843 3
      vertex -30.4344 0.623735 3
    endloop
  endfacet
  facet normal 0 0 1
    outer loop
      vertex -20.8281 -22.1998 3
      vertex -20.4085 -22.6659 3
      vertex -30.4344 0.623735 3
    endloop
  endfacet
  facet normal 0 0 1
    outer loop
      vertex -24.675 -17.9275 3
      vertex -20.8281 -22.1998 3
      vertex -30.4344 0.623735 3
    endloop
  endfacet
  facet normal 0 0 1
    outer loop
      vertex -15.7574 -26.0451 3
      vertex -15.25 -26.4138 3
      vertex -30.4344 0.623735 3
    endloop
  endfacet
  facet normal 0 0 1
    outer loop
      vertex -20.4085 -22.6659 3
      vertex -15.7574 -26.0451 3
      vertex -30.4344 0.623735 3
    endloop
  endfacet
  facet normal 0 0 1
    outer loop
      vertex -9.99797 -28.7521 3
      vertex -9.42502 -29.0072 3
      vertex -30.4344 0.623735 3
    endloop
  endfacet
  facet normal 0 0 1
    outer loop
      vertex -15.25 -26.4138 3
      vertex -9.99797 -28.7521 3
      vertex -30.4344 0.623735 3
    endloop
  endfacet
  facet normal 0 0 1
    outer loop
      vertex -9.42502 -29.0072 3
      vertex -3.80158 -30.2025 3
      vertex -30.4344 0.623735 3
    endloop
  endfacet
  facet normal 0 0 1
    outer loop
      vertex -3.80158 -30.2025 3
      vertex -3.18812 -30.3329 3
      vertex -30.4344 0.623735 3
    endloop
  endfacet
  facet normal 0 0 1
    outer loop
      vertex 6.48936 -19.9722 3
      vertex 2.1951 -20.885 3
      vertex 14.6771 -26.6689 3
    endloop
  endfacet
  facet normal 0 0 1
    outer loop
      vertex 16.9894 -12.3435 3
      vertex 14.0517 -15.606 3
      vertex 24.2554 -18.3935 3
    endloop
  endfacet
  facet normal 0 0 1
    outer loop
      vertex -21 0 3
      vertex -20.5411 4.36615 3
      vertex -30.4344 0.623735 3
    endloop
  endfacet
  facet normal 0 0 1
    outer loop
      vertex 20.5411 -4.36615 3
      vertex 29.6397 -6.93778 3
      vertex 29.8335 -6.34131 3
    endloop
  endfacet
  facet normal 0 0 1
    outer loop
      vertex 21 0 3
      vertex 20.5411 -4.36615 3
      vertex 30.4344 -0.623735 3
    endloop
  endfacet
  facet normal 0 0 1
    outer loop
      vertex 20.5411 -4.36615 3
      vertex 19.1845 -8.54147 3
      vertex 29.6397 -6.93778 3
    endloop
  endfacet
  facet normal 0 0 1
    outer loop
      vertex 19.1845 8.54147 3
      vertex 20.5411 4.36615 3
      vertex 29.8991 5.71757 3
    endloop
  endfacet
  facet normal 0 0 1
    outer loop
      vertex -20.5411 4.36615 3
      vertex -19.1845 8.54147 3
      vertex -30.4344 0.623735 3
    endloop
  endfacet
  facet normal 0 0 1
    outer loop
      vertex 14.0517 15.606 3
      vertex 16.9894 12.3435 3
      vertex 24.9886 17.3843 3
    endloop
  endfacet
  facet normal 0 0 1
    outer loop
      vertex 10.5 18.1865 3
      vertex 14.0517 15.606 3
      vertex 20.8281 22.1998 3
    endloop
  endfacet
  facet normal 0 0 1
    outer loop
      vertex 6.48936 19.9722 3
      vertex 10.5 18.1865 3
      vertex 20.4085 22.6659 3
    endloop
  endfacet
  facet normal 0 0 1
    outer loop
      vertex -19.1845 8.54147 3
      vertex -16.9894 12.3435 3
      vertex -30.4344 0.623735 3
    endloop
  endfacet
  facet normal 0 0 1
    outer loop
      vertex -8.81155 29.1376 3
      vertex -9.42502 29.0072 3
      vertex -30.4344 0.623735 3
    endloop
  endfacet
  facet normal 0 0 1
    outer loop
      vertex -10.5 18.1865 3
      vertex 3.80158 30.2025 3
      vertex 3.18812 30.3329 3
    endloop
  endfacet
  facet normal 0 0 1
    outer loop
      vertex -14.0517 15.606 3
      vertex -3.18812 30.3329 3
      vertex -30.4344 0.623735 3
    endloop
  endfacet
  facet normal 0 0 1
    outer loop
      vertex -3.18812 30.3329 3
      vertex -8.81155 29.1376 3
      vertex -30.4344 0.623735 3
    endloop
  endfacet
  facet normal 0 0 1
    outer loop
      vertex -29.6397 6.93778 3
      vertex -29.8335 6.34131 3
      vertex -30.4344 0.623735 3
    endloop
  endfacet
  facet normal 0 0 1
    outer loop
      vertex -9.42502 29.0072 3
      vertex -14.6771 26.6689 3
      vertex -30.4344 0.623735 3
    endloop
  endfacet
  facet normal 0 0 1
    outer loop
      vertex -14.6771 26.6689 3
      vertex -15.25 26.4138 3
      vertex -30.4344 0.623735 3
    endloop
  endfacet
  facet normal 0 0 1
    outer loop
      vertex -15.25 26.4138 3
      vertex -19.9011 23.0346 3
      vertex -30.4344 0.623735 3
    endloop
  endfacet
  facet normal 0 0 1
    outer loop
      vertex -19.9011 23.0346 3
      vertex -20.4085 22.6659 3
      vertex -30.4344 0.623735 3
    endloop
  endfacet
  facet normal 0 0 1
    outer loop
      vertex -20.4085 22.6659 3
      vertex -24.2554 18.3935 3
      vertex -30.4344 0.623735 3
    endloop
  endfacet
  facet normal 0 0 1
    outer loop
      vertex -24.2554 18.3935 3
      vertex -24.675 17.9275 3
      vertex -30.4344 0.623735 3
    endloop
  endfacet
  facet normal 0 0 1
    outer loop
      vertex -24.675 17.9275 3
      vertex -27.5496 12.9486 3
      vertex -30.4344 0.623735 3
    endloop
  endfacet
  facet normal 0 0 1
    outer loop
      vertex -27.5496 12.9486 3
      vertex -27.8631 12.4055 3
      vertex -30.4344 0.623735 3
    endloop
  endfacet
  facet normal 0 0 1
    outer loop
      vertex -27.8631 12.4055 3
      vertex -29.6397 6.93778 3
      vertex -30.4344 0.623735 3
    endloop
  endfacet
  facet normal 0 0 1
    outer loop
      vertex 19.1845 -8.54147 3
      vertex 27.5496 -12.9486 3
      vertex 27.8631 -12.4055 3
    endloop
  endfacet
  facet normal 0 0 1
    outer loop
      vertex 16.9894 12.3435 3
      vertex 28.0569 11.809 3
      vertex 27.8631 12.4055 3
    endloop
  endfacet
  facet normal 0 0 1
    outer loop
      vertex 2.1951 20.885 3
      vertex 15.7574 26.0451 3
      vertex 15.25 26.4138 3
    endloop
  endfacet
  facet normal 0 0 1
    outer loop
      vertex -14.0517 15.606 3
      vertex -10.5 18.1865 3
      vertex 3.18812 30.3329 3
    endloop
  endfacet
  facet normal 0 0 1
    outer loop
      vertex -2.1951 20.885 3
      vertex 9.99797 28.7521 3
      vertex 9.42502 29.0072 3
    endloop
  endfacet
  facet normal 0 0 1
    outer loop
      vertex 3.18812 30.3329 3
      vertex -3.18812 30.3329 3
      vertex -14.0517 15.606 3
    endloop
  endfacet
  facet normal 0 0 1
    outer loop
      vertex -10.5 18.1865 3
      vertex -6.48936 19.9722 3
      vertex 3.80158 30.2025 3
    endloop
  endfacet
  facet normal 0 0 1
    outer loop
      vertex -2.1951 20.885 3
      vertex 2.1951 20.885 3
      vertex 9.99797 28.7521 3
    endloop
  endfacet
  facet normal 0 0 1
    outer loop
      vertex -16.9894 12.3435 3
      vertex -14.0517 15.606 3
      vertex -30.4344 0.623735 3
    endloop
  endfacet
  facet normal 0 0 1
    outer loop
      vertex 9.42502 29.0072 3
      vertex 3.80158 30.2025 3
      vertex -6.48936 19.9722 3
    endloop
  endfacet
  facet normal 0 0 1
    outer loop
      vertex 9.42502 29.0072 3
      vertex -6.48936 19.9722 3
      vertex -2.1951 20.885 3
    endloop
  endfacet
  facet normal 0 0 1
    outer loop
      vertex 2.1951 20.885 3
      vertex 6.48936 19.9722 3
      vertex 15.7574 26.0451 3
    endloop
  endfacet
  facet normal 0 0 1
    outer loop
      vertex 15.25 26.4138 3
      vertex 9.99797 28.7521 3
      vertex 2.1951 20.885 3
    endloop
  endfacet
  facet normal 0 0 1
    outer loop
      vertex 20.4085 22.6659 3
      vertex 15.7574 26.0451 3
      vertex 6.48936 19.9722 3
    endloop
  endfacet
  facet normal 0 0 1
    outer loop
      vertex 20.8281 22.1998 3
      vertex 20.4085 22.6659 3
      vertex 10.5 18.1865 3
    endloop
  endfacet
  facet normal 0 0 1
    outer loop
      vertex 16.9894 12.3435 3
      vertex 19.1845 8.54147 3
      vertex 28.0569 11.809 3
    endloop
  endfacet
  facet normal 0 0 1
    outer loop
      vertex 24.675 17.9275 3
      vertex 20.8281 22.1998 3
      vertex 14.0517 15.606 3
    endloop
  endfacet
  facet normal 0 0 1
    outer loop
      vertex 27.8631 12.4055 3
      vertex 24.9886 17.3843 3
      vertex 16.9894 12.3435 3
    endloop
  endfacet
  facet normal 0 0 1
    outer loop
      vertex 14.0517 15.606 3
      vertex 24.9886 17.3843 3
      vertex 24.675 17.9275 3
    endloop
  endfacet
  facet normal 0 0 1
    outer loop
      vertex 29.8335 6.34131 3
      vertex 28.0569 11.809 3
      vertex 19.1845 8.54147 3
    endloop
  endfacet
  facet normal 0 0 1
    outer loop
      vertex 30.5 0 3
      vertex 29.8991 5.71757 3
      vertex 20.5411 4.36615 3
    endloop
  endfacet
  facet normal 0 0 1
    outer loop
      vertex 30.4344 -0.623735 3
      vertex 30.5 0 3
      vertex 21 0 3
    endloop
  endfacet
  facet normal 0 0 1
    outer loop
      vertex 19.1845 -8.54147 3
      vertex 16.9894 -12.3435 3
      vertex 27.5496 -12.9486 3
    endloop
  endfacet
  facet normal 0 0 1
    outer loop
      vertex 29.8335 -6.34131 3
      vertex 30.4344 -0.623735 3
      vertex 20.5411 -4.36615 3
    endloop
  endfacet
  facet normal 0 0 1
    outer loop
      vertex 19.1845 8.54147 3
      vertex 29.8991 5.71757 3
      vertex 29.8335 6.34131 3
    endloop
  endfacet
  facet normal 0 0 1
    outer loop
      vertex 27.8631 -12.4055 3
      vertex 29.6397 -6.93778 3
      vertex 19.1845 -8.54147 3
    endloop
  endfacet
  facet normal 0 0 1
    outer loop
      vertex 20.5411 4.36615 3
      vertex 21 0 3
      vertex 30.5 0 3
    endloop
  endfacet
  facet normal 0 0 1
    outer loop
      vertex 24.675 -17.9275 3
      vertex 27.5496 -12.9486 3
      vertex 16.9894 -12.3435 3
    endloop
  endfacet
  facet normal 0 0 1
    outer loop
      vertex 20.4085 -22.6659 3
      vertex 24.2554 -18.3935 3
      vertex 14.0517 -15.606 3
    endloop
  endfacet
  facet normal 0 0 1
    outer loop
      vertex 19.9011 -23.0346 3
      vertex 20.4085 -22.6659 3
      vertex 10.5 -18.1865 3
    endloop
  endfacet
  facet normal 0 0 1
    outer loop
      vertex 2.1951 -20.885 3
      vertex -2.1951 -20.885 3
      vertex 8.81155 -29.1376 3
    endloop
  endfacet
  facet normal 0 0 1
    outer loop
      vertex 15.25 -26.4138 3
      vertex 19.9011 -23.0346 3
      vertex 6.48936 -19.9722 3
    endloop
  endfacet
  facet normal 0 0 1
    outer loop
      vertex 16.9894 -12.3435 3
      vertex 24.2554 -18.3935 3
      vertex 24.675 -17.9275 3
    endloop
  endfacet
  facet normal 0 0 1
    outer loop
      vertex 9.42502 -29.0072 3
      vertex 14.6771 -26.6689 3
      vertex 2.1951 -20.885 3
    endloop
  endfacet
  facet normal 0 0 1
    outer loop
      vertex 14.0517 -15.606 3
      vertex 10.5 -18.1865 3
      vertex 20.4085 -22.6659 3
    endloop
  endfacet
  facet normal 0 0 1
    outer loop
      vertex 3.18812 -30.3329 3
      vertex 8.81155 -29.1376 3
      vertex -2.1951 -20.885 3
    endloop
  endfacet
  facet normal 0 0 1
    outer loop
      vertex 3.18812 -30.3329 3
      vertex -2.1951 -20.885 3
      vertex -6.48936 -19.9722 3
    endloop
  endfacet
  facet normal 0 0 1
    outer loop
      vertex -3.18812 -30.3329 3
      vertex 3.18812 -30.3329 3
      vertex -10.5 -18.1865 3
    endloop
  endfacet
  facet normal 0 0 1
    outer loop
      vertex -3.18812 -30.3329 3
      vertex -14.0517 -15.606 3
      vertex -30.4344 0.623735 3
    endloop
  endfacet
  facet normal 0 0 1
    outer loop
      vertex -3.18812 -30.3329 3
      vertex -10.5 -18.1865 3
      vertex -14.0517 -15.606 3
    endloop
  endfacet
  facet normal 0 0 1
    outer loop
      vertex -14.0517 -15.606 3
      vertex -16.9894 -12.3435 3
      vertex -30.4344 0.623735 3
    endloop
  endfacet
  facet normal 0 0 1
    outer loop
      vertex 2.1951 -20.885 3
      vertex 8.81155 -29.1376 3
      vertex 9.42502 -29.0072 3
    endloop
  endfacet
  facet normal 0 0 1
    outer loop
      vertex -16.9894 -12.3435 3
      vertex -19.1845 -8.54147 3
      vertex -30.4344 0.623735 3
    endloop
  endfacet
  facet normal 0 0 1
    outer loop
      vertex -6.48936 -19.9722 3
      vertex -10.5 -18.1865 3
      vertex 3.18812 -30.3329 3
    endloop
  endfacet
  facet normal 0 0 1
    outer loop
      vertex -19.1845 -8.54147 3
      vertex -20.5411 -4.36615 3
      vertex -30.4344 0.623735 3
    endloop
  endfacet
  facet normal 0 0 1
    outer loop
      vertex 10.5 -18.1865 3
      vertex 6.48936 -19.9722 3
      vertex 19.9011 -23.0346 3
    endloop
  endfacet
  facet normal 0 0 1
    outer loop
      vertex 6.48936 -19.9722 3
      vertex 14.6771 -26.6689 3
      vertex 15.25 -26.4138 3
    endloop
  endfacet
  facet normal 0 0 1
    outer loop
      vertex -20.5411 -4.36615 3
      vertex -21 0 3
      vertex -30.4344 0.623735 3
    endloop
  endfacet
  facet normal 0 0 -1
    outer loop
      vertex -32 0 0
      vertex -31.3007 6.65317 0
      vertex -31.3007 -6.65317 0
    endloop
  endfacet
  facet normal 0 0 -1
    outer loop
      vertex -31.3007 -6.65317 0
      vertex -31.3007 6.65317 0
      vertex -29.2335 13.0156 0
    endloop
  endfacet
  facet normal 0 0 -1
    outer loop
      vertex -31.3007 -6.65317 0
      vertex -29.2335 13.0156 0
      vertex -25.8885 18.8091 0
    endloop
  endfacet
  facet normal 0 0 -1
    outer loop
      vertex -31.3007 -6.65317 0
      vertex -25.8885 18.8091 0
      vertex -21.4122 23.7806 0
    endloop
  endfacet
  facet normal 0 0 -1
    outer loop
      vertex -31.3007 -6.65317 0
      vertex -21.4122 23.7806 0
      vertex -16 27.7128 0
    endloop
  endfacet
  facet normal 0 0 -1
    outer loop
      vertex -31.3007 -6.65317 0
      vertex -16 27.7128 0
      vertex -9.88854 30.4338 0
    endloop
  endfacet
  facet normal 0 0 -1
    outer loop
      vertex -31.3007 -6.65317 0
      vertex -9.88854 30.4338 0
      vertex -3.34491 31.8247 0
    endloop
  endfacet
  facet normal 0 0 -1
    outer loop
      vertex -10.5 18.1865 0
      vertex -3.34491 31.8247 0
      vertex 3.34491 31.8247 0
    endloop
  endfacet
  facet normal 0 0 -1
    outer loop
      vertex -2.1951 20.885 0
      vertex 3.34491 31.8247 0
      vertex 9.88854 30.4338 0
    endloop
  endfacet
  facet normal 0 0 -1
    outer loop
      vertex 2.1951 20.885 0
      vertex 9.88854 30.4338 0
      vertex 16 27.7128 0
    endloop
  endfacet
  facet normal 0 0 -1
    outer loop
      vertex 10.5 18.1865 0
      vertex 16 27.7128 0
      vertex 21.4122 23.7806 0
    endloop
  endfacet
  facet normal 0 0 -1
    outer loop
      vertex 14.0517 15.606 0
      vertex 21.4122 23.7806 0
      vertex 25.8885 18.8091 0
    endloop
  endfacet
  facet normal 0 0 -1
    outer loop
      vertex 16.9894 12.3435 0
      vertex 25.8885 18.8091 0
      vertex 29.2335 13.0156 0
    endloop
  endfacet
  facet normal 0 0 -1
    outer loop
      vertex 20.5411 4.36615 0
      vertex 29.2335 13.0156 0
      vertex 31.3007 6.65317 0
    endloop
  endfacet
  facet normal 0 0 -1
    outer loop
      vertex 21 0 0
      vertex 31.3007 6.65317 0
      vertex 32 0 0
    endloop
  endfacet
  facet normal 0 0 -1
    outer loop
      vertex 20.5411 -4.36615 0
      vertex 32 0 0
      vertex 31.3007 -6.65317 0
    endloop
  endfacet
  facet normal 0 0 -1
    outer loop
      vertex 19.1845 -8.54147 0
      vertex 31.3007 -6.65317 0
      vertex 29.2335 -13.0156 0
    endloop
  endfacet
  facet normal 0 0 -1
    outer loop
      vertex 14.0517 -15.606 0
      vertex 29.2335 -13.0156 0
      vertex 25.8885 -18.8091 0
    endloop
  endfacet
  facet normal 0 0 -1
    outer loop
      vertex 10.5 -18.1865 0
      vertex 25.8885 -18.8091 0
      vertex 21.4122 -23.7806 0
    endloop
  endfacet
  facet normal 0 0 -1
    outer loop
      vertex 2.1951 -20.885 0
      vertex 21.4122 -23.7806 0
      vertex 16 -27.7128 0
    endloop
  endfacet
  facet normal 0 0 -1
    outer loop
      vertex -6.48936 -19.9722 0
      vertex 16 -27.7128 0
      vertex 9.88854 -30.4338 0
    endloop
  endfacet
  facet normal 0 0 -1
    outer loop
      vertex -31.3007 -6.65317 0
      vertex 9.88854 -30.4338 0
      vertex 3.34491 -31.8247 0
    endloop
  endfacet
  facet normal 0 0 -1
    outer loop
      vertex -31.3007 -6.65317 0
      vertex 3.34491 -31.8247 0
      vertex -3.34491 -31.8247 0
    endloop
  endfacet
  facet normal 0 0 -1
    outer loop
      vertex -31.3007 -6.65317 0
      vertex -3.34491 -31.8247 0
      vertex -9.88854 -30.4338 0
    endloop
  endfacet
  facet normal 0 0 -1
    outer loop
      vertex -31.3007 -6.65317 0
      vertex -9.88854 -30.4338 0
      vertex -16 -27.7128 0
    endloop
  endfacet
  facet normal 0 0 -1
    outer loop
      vertex -31.3007 -6.65317 0
      vertex -16 -27.7128 0
      vertex -21.4122 -23.7806 0
    endloop
  endfacet
  facet normal 0 0 -1
    outer loop
      vertex -31.3007 -6.65317 0
      vertex -21.4122 -23.7806 0
      vertex -25.8885 -18.8091 0
    endloop
  endfacet
  facet normal 0 0 -1
    outer loop
      vertex -31.3007 -6.65317 0
      vertex -25.8885 -18.8091 0
      vertex -29.2335 -13.0156 0
    endloop
  endfacet
  facet normal 0 0 -1
    outer loop
      vertex -20.5411 -4.36615 0
      vertex -31.3007 -6.65317 0
      vertex -21 0 0
    endloop
  endfacet
  facet normal 0 0 -1
    outer loop
      vertex -19.1845 -8.54147 0
      vertex -31.3007 -6.65317 0
      vertex -20.5411 -4.36615 0
    endloop
  endfacet
  facet normal 0 0 -1
    outer loop
      vertex -16.9894 -12.3435 0
      vertex -31.3007 -6.65317 0
      vertex -19.1845 -8.54147 0
    endloop
  endfacet
  facet normal 0 0 -1
    outer loop
      vertex -14.0517 -15.606 0
      vertex -31.3007 -6.65317 0
      vertex -16.9894 -12.3435 0
    endloop
  endfacet
  facet normal 0 0 -1
    outer loop
      vertex -6.48936 -19.9722 0
      vertex 9.88854 -30.4338 0
      vertex -10.5 -18.1865 0
    endloop
  endfacet
  facet normal 0 0 -1
    outer loop
      vertex -31.3007 -6.65317 0
      vertex -14.0517 -15.606 0
      vertex -10.5 -18.1865 0
    endloop
  endfacet
  facet normal 0 0 -1
    outer loop
      vertex -31.3007 -6.65317 0
      vertex -10.5 -18.1865 0
      vertex 9.88854 -30.4338 0
    endloop
  endfacet
  facet normal 0 0 -1
    outer loop
      vertex -2.1951 -20.885 0
      vertex 16 -27.7128 0
      vertex -6.48936 -19.9722 0
    endloop
  endfacet
  facet normal 0 0 -1
    outer loop
      vertex 2.1951 -20.885 0
      vertex 16 -27.7128 0
      vertex -2.1951 -20.885 0
    endloop
  endfacet
  facet normal 0 0 -1
    outer loop
      vertex 6.48936 -19.9722 0
      vertex 21.4122 -23.7806 0
      vertex 2.1951 -20.885 0
    endloop
  endfacet
  facet normal 0 0 -1
    outer loop
      vertex 10.5 -18.1865 0
      vertex 21.4122 -23.7806 0
      vertex 6.48936 -19.9722 0
    endloop
  endfacet
  facet normal 0 0 -1
    outer loop
      vertex 16.9894 -12.3435 0
      vertex 29.2335 -13.0156 0
      vertex 14.0517 -15.606 0
    endloop
  endfacet
  facet normal 0 0 -1
    outer loop
      vertex 19.1845 -8.54147 0
      vertex 29.2335 -13.0156 0
      vertex 16.9894 -12.3435 0
    endloop
  endfacet
  facet normal 0 0 -1
    outer loop
      vertex 14.0517 -15.606 0
      vertex 25.8885 -18.8091 0
      vertex 10.5 -18.1865 0
    endloop
  endfacet
  facet normal 0 0 -1
    outer loop
      vertex 20.5411 4.36615 0
      vertex 31.3007 6.65317 0
      vertex 21 0 0
    endloop
  endfacet
  facet normal 0 0 -1
    outer loop
      vertex 19.1845 8.54147 0
      vertex 29.2335 13.0156 0
      vertex 20.5411 4.36615 0
    endloop
  endfacet
  facet normal 0 0 -1
    outer loop
      vertex 21 0 0
      vertex 32 0 0
      vertex 20.5411 -4.36615 0
    endloop
  endfacet
  facet normal 0 0 -1
    outer loop
      vertex 20.5411 -4.36615 0
      vertex 31.3007 -6.65317 0
      vertex 19.1845 -8.54147 0
    endloop
  endfacet
  facet normal 0 0 -1
    outer loop
      vertex 6.48936 19.9722 0
      vertex 16 27.7128 0
      vertex 10.5 18.1865 0
    endloop
  endfacet
  facet normal 0 0 -1
    outer loop
      vertex 2.1951 20.885 0
      vertex 16 27.7128 0
      vertex 6.48936 19.9722 0
    endloop
  endfacet
  facet normal 0 0 -1
    outer loop
      vertex 10.5 18.1865 0
      vertex 21.4122 23.7806 0
      vertex 14.0517 15.606 0
    endloop
  endfacet
  facet normal 0 0 -1
    outer loop
      vertex -6.48936 19.9722 0
      vertex 3.34491 31.8247 0
      vertex -2.1951 20.885 0
    endloop
  endfacet
  facet normal 0 0 -1
    outer loop
      vertex -14.0517 15.606 0
      vertex -3.34491 31.8247 0
      vertex -10.5 18.1865 0
    endloop
  endfacet
  facet normal 0 0 -1
    outer loop
      vertex -19.1845 8.54147 0
      vertex -31.3007 -6.65317 0
      vertex -16.9894 12.3435 0
    endloop
  endfacet
  facet normal 0 0 -1
    outer loop
      vertex -16.9894 12.3435 0
      vertex -3.34491 31.8247 0
      vertex -14.0517 15.606 0
    endloop
  endfacet
  facet normal 0 0 -1
    outer loop
      vertex -31.3007 -6.65317 0
      vertex -3.34491 31.8247 0
      vertex -16.9894 12.3435 0
    endloop
  endfacet
  facet normal 0 0 -1
    outer loop
      vertex -20.5411 4.36615 0
      vertex -31.3007 -6.65317 0
      vertex -19.1845 8.54147 0
    endloop
  endfacet
  facet normal 0 0 -1
    outer loop
      vertex 14.0517 15.606 0
      vertex 25.8885 18.8091 0
      vertex 16.9894 12.3435 0
    endloop
  endfacet
  facet normal 0 0 -1
    outer loop
      vertex -21 0 0
      vertex -31.3007 -6.65317 0
      vertex -20.5411 4.36615 0
    endloop
  endfacet
  facet normal 0 0 -1
    outer loop
      vertex -10.5 18.1865 0
      vertex 3.34491 31.8247 0
      vertex -6.48936 19.9722 0
    endloop
  endfacet
  facet normal 0 0 -1
    outer loop
      vertex -2.1951 20.885 0
      vertex 9.88854 30.4338 0
      vertex 2.1951 20.885 0
    endloop
  endfacet
  facet normal 0 0 -1
    outer loop
      vertex 16.9894 12.3435 0
      vertex 29.2335 13.0156 0
      vertex 19.1845 8.54147 0
    endloop
  endfacet
  facet normal 0.994522 0.104528 0
    outer loop
      vertex -21 0 3
      vertex -20.5411 -4.36615 3
      vertex -20.5411 -4.36615 0
    endloop
  endfacet
  facet normal 0.994522 0.104528 0
    outer loop
      vertex -21 0 0
      vertex -21 0 3
      vertex -20.5411 -4.36615 0
    endloop
  endfacet
  facet normal 0.951057 0.309017 0
    outer loop
      vertex -20.5411 -4.36615 3
      vertex -19.1845 -8.54147 3
      vertex -19.1845 -8.54147 0
    endloop
  endfacet
  facet normal 0.951057 0.309017 0
    outer loop
      vertex -20.5411 -4.36615 0
      vertex -20.5411 -4.36615 3
      vertex -19.1845 -8.54147 0
    endloop
  endfacet
  facet normal 0.866025 0.5 0
    outer loop
      vertex -19.1845 -8.54147 3
      vertex -16.9894 -12.3435 3
      vertex -16.9894 -12.3435 0
    endloop
  endfacet
  facet normal 0.866025 0.5 0
    outer loop
      vertex -19.1845 -8.54147 0
      vertex -19.1845 -8.54147 3
      vertex -16.9894 -12.3435 0
    endloop
  endfacet
  facet normal 0.743145 0.669131 0
    outer loop
      vertex -16.9894 -12.3435 3
      vertex -14.0517 -15.606 3
      vertex -14.0517 -15.606 0
    endloop
  endfacet
  facet normal 0.743145 0.669131 0
    outer loop
      vertex -16.9894 -12.3435 0
      vertex -16.9894 -12.3435 3
      vertex -14.0517 -15.606 0
    endloop
  endfacet
  facet normal 0.587785 0.809017 0
    outer loop
      vertex -10.5 -18.1865 3
      vertex -10.5 -18.1865 0
      vertex -14.0517 -15.606 3
    endloop
  endfacet
  facet normal 0.587785 0.809017 0
    outer loop
      vertex -14.0517 -15.606 3
      vertex -10.5 -18.1865 0
      vertex -14.0517 -15.606 0
    endloop
  endfacet
  facet normal 0.406737 0.913545 0
    outer loop
      vertex -6.48936 -19.9722 3
      vertex -6.48936 -19.9722 0
      vertex -10.5 -18.1865 3
    endloop
  endfacet
  facet normal 0.406737 0.913545 0
    outer loop
      vertex -10.5 -18.1865 3
      vertex -6.48936 -19.9722 0
      vertex -10.5 -18.1865 0
    endloop
  endfacet
  facet normal 0.207912 0.978148 0
    outer loop
      vertex -2.1951 -20.885 3
      vertex -2.1951 -20.885 0
      vertex -6.48936 -19.9722 3
    endloop
  endfacet
  facet normal 0.207912 0.978148 0
    outer loop
      vertex -6.48936 -19.9722 3
      vertex -2.1951 -20.885 0
      vertex -6.48936 -19.9722 0
    endloop
  endfacet
  facet normal 0 1 0
    outer loop
      vertex 2.1951 -20.885 3
      vertex 2.1951 -20.885 0
      vertex -2.1951 -20.885 3
    endloop
  endfacet
  facet normal 0 1 0
    outer loop
      vertex -2.1951 -20.885 3
      vertex 2.1951 -20.885 0
      vertex -2.1951 -20.885 0
    endloop
  endfacet
  facet normal -0.207912 0.978148 0
    outer loop
      vertex 6.48936 -19.9722 3
      vertex 6.48936 -19.9722 0
      vertex 2.1951 -20.885 3
    endloop
  endfacet
  facet normal -0.207912 0.978148 0
    outer loop
      vertex 2.1951 -20.885 3
      vertex 6.48936 -19.9722 0
      vertex 2.1951 -20.885 0
    endloop
  endfacet
  facet normal -0.406737 0.913545 0
    outer loop
      vertex 10.5 -18.1865 3
      vertex 10.5 -18.1865 0
      vertex 6.48936 -19.9722 3
    endloop
  endfacet
  facet normal -0.406737 0.913545 0
    outer loop
      vertex 6.48936 -19.9722 3
      vertex 10.5 -18.1865 0
      vertex 6.48936 -19.9722 0
    endloop
  endfacet
  facet normal -0.587785 0.809017 0
    outer loop
      vertex 14.0517 -15.606 3
      vertex 14.0517 -15.606 0
      vertex 10.5 -18.1865 3
    endloop
  endfacet
  facet normal -0.587785 0.809017 0
    outer loop
      vertex 10.5 -18.1865 3
      vertex 14.0517 -15.606 0
      vertex 10.5 -18.1865 0
    endloop
  endfacet
  facet normal -0.743145 0.669131 0
    outer loop
      vertex 16.9894 -12.3435 3
      vertex 16.9894 -12.3435 0
      vertex 14.0517 -15.606 3
    endloop
  endfacet
  facet normal -0.743145 0.669131 0
    outer loop
      vertex 14.0517 -15.606 3
      vertex 16.9894 -12.3435 0
      vertex 14.0517 -15.606 0
    endloop
  endfacet
  facet normal -0.866025 0.5 0
    outer loop
      vertex 19.1845 -8.54147 3
      vertex 19.1845 -8.54147 0
      vertex 16.9894 -12.3435 3
    endloop
  endfacet
  facet normal -0.866025 0.5 0
    outer loop
      vertex 16.9894 -12.3435 3
      vertex 19.1845 -8.54147 0
      vertex 16.9894 -12.3435 0
    endloop
  endfacet
  facet normal -0.951057 0.309017 0
    outer loop
      vertex 20.5411 -4.36615 3
      vertex 20.5411 -4.36615 0
      vertex 19.1845 -8.54147 3
    endloop
  endfacet
  facet normal -0.951057 0.309017 0
    outer loop
      vertex 19.1845 -8.54147 3
      vertex 20.5411 -4.36615 0
      vertex 19.1845 -8.54147 0
    endloop
  endfacet
  facet normal -0.994522 0.104528 0
    outer loop
      vertex 21 0 3
      vertex 21 0 0
      vertex 20.5411 -4.36615 3
    endloop
  endfacet
  facet normal -0.994522 0.104528 0
    outer loop
      vertex 20.5411 -4.36615 3
      vertex 21 0 0
      vertex 20.5411 -4.36615 0
    endloop
  endfacet
  facet normal -0.994522 -0.104528 0
    outer loop
      vertex 21 0 3
      vertex 20.5411 4.36615 3
      vertex 21 0 0
    endloop
  endfacet
  facet normal -0.994522 -0.104528 0
    outer loop
      vertex 21 0 0
      vertex 20.5411 4.36615 3
      vertex 20.5411 4.36615 0
    endloop
  endfacet
  facet normal -0.951057 -0.309017 0
    outer loop
      vertex 20.5411 4.36615 3
      vertex 19.1845 8.54147 3
      vertex 20.5411 4.36615 0
    endloop
  endfacet
  facet normal -0.951057 -0.309017 0
    outer loop
      vertex 20.5411 4.36615 0
      vertex 19.1845 8.54147 3
      vertex 19.1845 8.54147 0
    endloop
  endfacet
  facet normal -0.866025 -0.5 0
    outer loop
      vertex 19.1845 8.54147 3
      vertex 16.9894 12.3435 3
      vertex 19.1845 8.54147 0
    endloop
  endfacet
  facet normal -0.866025 -0.5 0
    outer loop
      vertex 19.1845 8.54147 0
      vertex 16.9894 12.3435 3
      vertex 16.9894 12.3435 0
    endloop
  endfacet
  facet normal -0.743145 -0.669131 0
    outer loop
      vertex 16.9894 12.3435 3
      vertex 14.0517 15.606 3
      vertex 16.9894 12.3435 0
    endloop
  endfacet
  facet normal -0.743145 -0.669131 0
    outer loop
      vertex 16.9894 12.3435 0
      vertex 14.0517 15.606 3
      vertex 14.0517 15.606 0
    endloop
  endfacet
  facet normal -0.587785 -0.809017 0
    outer loop
      vertex 14.0517 15.606 0
      vertex 14.0517 15.606 3
      vertex 10.5 18.1865 3
    endloop
  endfacet
  facet normal -0.587785 -0.809017 0
    outer loop
      vertex 10.5 18.1865 0
      vertex 14.0517 15.606 0
      vertex 10.5 18.1865 3
    endloop
  endfacet
  facet normal -0.406737 -0.913545 0
    outer loop
      vertex 10.5 18.1865 0
      vertex 10.5 18.1865 3
      vertex 6.48936 19.9722 3
    endloop
  endfacet
  facet normal -0.406737 -0.913545 0
    outer loop
      vertex 6.48936 19.9722 0
      vertex 10.5 18.1865 0
      vertex 6.48936 19.9722 3
    endloop
  endfacet
  facet normal -0.207912 -0.978148 0
    outer loop
      vertex 6.48936 19.9722 0
      vertex 6.48936 19.9722 3
      vertex 2.1951 20.885 3
    endloop
  endfacet
  facet normal -0.207912 -0.978148 0
    outer loop
      vertex 2.1951 20.885 0
      vertex 6.48936 19.9722 0
      vertex 2.1951 20.885 3
    endloop
  endfacet
  facet normal 0 -1 0
    outer loop
      vertex 2.1951 20.885 0
      vertex 2.1951 20.885 3
      vertex -2.1951 20.885 3
    endloop
  endfacet
  facet normal 0 -1 0
    outer loop
      vertex -2.1951 20.885 0
      vertex 2.1951 20.885 0
      vertex -2.1951 20.885 3
    endloop
  endfacet
  facet normal 0.207912 -0.978148 0
    outer loop
      vertex -2.1951 20.885 0
      vertex -2.1951 20.885 3
      vertex -6.48936 19.9722 3
    endloop
  endfacet
  facet normal 0.207912 -0.978148 0
    outer loop
      vertex -6.48936 19.9722 0
      vertex -2.1951 20.885 0
      vertex -6.48936 19.9722 3
    endloop
  endfacet
  facet normal 0.406737 -0.913545 0
    outer loop
      vertex -6.48936 19.9722 0
      vertex -6.48936 19.9722 3
      vertex -10.5 18.1865 3
    endloop
  endfacet
  facet normal 0.406737 -0.913545 0
    outer loop
      vertex -10.5 18.1865 0
      vertex -6.48936 19.9722 0
      vertex -10.5 18.1865 3
    endloop
  endfacet
  facet normal 0.587785 -0.809017 0
    outer loop
      vertex -10.5 18.1865 0
      vertex -10.5 18.1865 3
      vertex -14.0517 15.606 3
    endloop
  endfacet
  facet normal 0.587785 -0.809017 0
    outer loop
      vertex -14.0517 15.606 0
      vertex -10.5 18.1865 0
      vertex -14.0517 15.606 3
    endloop
  endfacet
  facet normal 0.743145 -0.669131 0
    outer loop
      vertex -14.0517 15.606 0
      vertex -14.0517 15.606 3
      vertex -16.9894 12.3435 3
    endloop
  endfacet
  facet normal 0.743145 -0.669131 0
    outer loop
      vertex -16.9894 12.3435 0
      vertex -14.0517 15.606 0
      vertex -16.9894 12.3435 3
    endloop
  endfacet
  facet normal 0.866025 -0.5 0
    outer loop
      vertex -16.9894 12.3435 0
      vertex -16.9894 12.3435 3
      vertex -19.1845 8.54147 3
    endloop
  endfacet
  facet normal 0.866025 -0.5 0
    outer loop
      vertex -19.1845 8.54147 0
      vertex -16.9894 12.3435 0
      vertex -19.1845 8.54147 3
    endloop
  endfacet
  facet normal 0.951057 -0.309017 0
    outer loop
      vertex -19.1845 8.54147 0
      vertex -19.1845 8.54147 3
      vertex -20.5411 4.36615 3
    endloop
  endfacet
  facet normal 0.951057 -0.309017 0
    outer loop
      vertex -20.5411 4.36615 0
      vertex -19.1845 8.54147 0
      vertex -20.5411 4.36615 3
    endloop
  endfacet
  facet normal 0.994522 -0.104528 0
    outer loop
      vertex -20.5411 4.36615 0
      vertex -20.5411 4.36615 3
      vertex -21 0 3
    endloop
  endfacet
  facet normal 0.994522 -0.104528 0
    outer loop
      vertex -21 0 0
      vertex -20.5411 4.36615 0
      vertex -21 0 3
    endloop
  endfacet
endsolid OpenSCAD_Model
