  0
SECTION
  2
HEADER
  9
$ACADVER
  1
AC1024
  9
$ACADMAINTVER
 70
6
  9
$DWGCODEPAGE
  3
ANSI_1252
  9
$LASTSAVEDBY
  1
ezdxf
  9
$INSBASE
 10
0.0
 20
0.0
 30
0.0
  9
$EXTMIN
 10
1e+20
 20
1e+20
 30
1e+20
  9
$EXTMAX
 10
-1e+20
 20
-1e+20
 30
-1e+20
  9
$LIMMIN
 10
0.0
 20
0.0
  9
$LIMMAX
 10
420.0
 20
297.0
  9
$ORTHOMODE
 70
0
  9
$REGENMODE
 70
1
  9
$FILLMODE
 70
1
  9
$QTEXTMODE
 70
0
  9
$MIRRTEXT
 70
1
  9
$LTSCALE
 40
1.0
  9
$ATTMODE
 70
1
  9
$TEXTSIZE
 40
2.5
  9
$TRACEWID
 40
1.0
  9
$TEXTSTYLE
  7
Standard
  9
$CLAYER
  8
0
  9
$CELTYPE
  6
ByLayer
  9
$CECOLOR
 62
256
  9
$CELTSCALE
 40
1.0
  9
$DISPSILH
 70
0
  9
$DIMSCALE
 40
1.0
  9
$DIMASZ
 40
2.5
  9
$DIMEXO
 40
0.625
  9
$DIMDLI
 40
3.75
  9
$DIMRND
 40
0.0
  9
$DIMDLE
 40
0.0
  9
$DIMEXE
 40
1.25
  9
$DIMTP
 40
0.0
  9
$DIMTM
 40
0.0
  9
$DIMTXT
 40
2.5
  9
$DIMCEN
 40
2.5
  9
$DIMTSZ
 40
0.0
  9
$DIMTOL
 70
0
  9
$DIMLIM
 70
0
  9
$DIMTIH
 70
0
  9
$DIMTOH
 70
0
  9
$DIMSE1
 70
0
  9
$DIMSE2
 70
0
  9
$DIMTAD
 70
1
  9
$DIMZIN
 70
8
  9
$DIMBLK
  1

  9
$DIMASO
 70
1
  9
$DIMSHO
 70
1
  9
$DIMPOST
  1

  9
$DIMAPOST
  1

  9
$DIMALT
 70
0
  9
$DIMALTD
 70
3
  9
$DIMALTF
 40
0.03937007874
  9
$DIMLFAC
 40
1.0
  9
$DIMTOFL
 70
1
  9
$DIMTVP
 40
0.0
  9
$DIMTIX
 70
0
  9
$DIMSOXD
 70
0
  9
$DIMSAH
 70
0
  9
$DIMBLK1
  1

  9
$DIMBLK2
  1

  9
$DIMSTYLE
  2
ISO-25
  9
$DIMCLRD
 70
0
  9
$DIMCLRE
 70
0
  9
$DIMCLRT
 70
0
  9
$DIMTFAC
 40
1.0
  9
$DIMGAP
 40
0.625
  9
$DIMJUST
 70
0
  9
$DIMSD1
 70
0
  9
$DIMSD2
 70
0
  9
$DIMTOLJ
 70
0
  9
$DIMTZIN
 70
8
  9
$DIMALTZ
 70
0
  9
$DIMALTTZ
 70
0
  9
$DIMUPT
 70
0
  9
$DIMDEC
 70
2
  9
$DIMTDEC
 70
2
  9
$DIMALTU
 70
2
  9
$DIMALTTD
 70
3
  9
$DIMTXSTY
  7
Standard
  9
$DIMAUNIT
 70
0
  9
$DIMADEC
 70
0
  9
$DIMALTRND
 40
0.0
  9
$DIMAZIN
 70
0
  9
$DIMDSEP
 70
44
  9
$DIMATFIT
 70
3
  9
$DIMFRAC
 70
0
  9
$DIMLDRBLK
  1

  9
$DIMLUNIT
 70
2
  9
$DIMLWD
 70
-2
  9
$DIMLWE
 70
-2
  9
$DIMTMOVE
 70
0
  9
$DIMFXL
 40
1.0
  9
$DIMFXLON
 70
0
  9
$DIMJOGANG
 40
0.785398163397
  9
$DIMTFILL
 70
0
  9
$DIMTFILLCLR
 70
0
  9
$DIMARCSYM
 70
0
  9
$DIMLTYPE
  6

  9
$DIMLTEX1
  6

  9
$DIMLTEX2
  6

  9
$DIMTXTDIRECTION
 70
0
  9
$LUNITS
 70
2
  9
$LUPREC
 70
4
  9
$SKETCHINC
 40
1.0
  9
$FILLETRAD
 40
10.0
  9
$AUNITS
 70
0
  9
$AUPREC
 70
2
  9
$MENU
  1
.
  9
$ELEVATION
 40
0.0
  9
$PELEVATION
 40
0.0
  9
$THICKNESS
 40
0.0
  9
$LIMCHECK
 70
0
  9
$CHAMFERA
 40
0.0
  9
$CHAMFERB
 40
0.0
  9
$CHAMFERC
 40
0.0
  9
$CHAMFERD
 40
0.0
  9
$SKPOLY
 70
0
  9
$TDCREATE
 40
2460681.8034490743
  9
$TDUCREATE
 40
2458532.153996898
  9
$TDUPDATE
 40
2460681.8034606483
  9
$TDUUPDATE
 40
2458532.1544311
  9
$TDINDWG
 40
0.0
  9
$TDUSRTIMER
 40
0.0
  9
$USRTIMER
 70
1
  9
$ANGBASE
 50
0.0
  9
$ANGDIR
 70
0
  9
$PDMODE
 70
0
  9
$PDSIZE
 40
0.0
  9
$PLINEWID
 40
0.0
  9
$SPLFRAME
 70
0
  9
$SPLINETYPE
 70
6
  9
$SPLINESEGS
 70
8
  9
$HANDSEED
  5
60
  9
$SURFTAB1
 70
6
  9
$SURFTAB2
 70
6
  9
$SURFTYPE
 70
6
  9
$SURFU
 70
6
  9
$SURFV
 70
6
  9
$UCSBASE
  2

  9
$UCSNAME
  2

  9
$UCSORG
 10
0.0
 20
0.0
 30
0.0
  9
$UCSXDIR
 10
1.0
 20
0.0
 30
0.0
  9
$UCSYDIR
 10
0.0
 20
1.0
 30
0.0
  9
$UCSORTHOREF
  2

  9
$UCSORTHOVIEW
 70
0
  9
$UCSORGTOP
 10
0.0
 20
0.0
 30
0.0
  9
$UCSORGBOTTOM
 10
0.0
 20
0.0
 30
0.0
  9
$UCSORGLEFT
 10
0.0
 20
0.0
 30
0.0
  9
$UCSORGRIGHT
 10
0.0
 20
0.0
 30
0.0
  9
$UCSORGFRONT
 10
0.0
 20
0.0
 30
0.0
  9
$UCSORGBACK
 10
0.0
 20
0.0
 30
0.0
  9
$PUCSBASE
  2

  9
$PUCSNAME
  2

  9
$PUCSORG
 10
0.0
 20
0.0
 30
0.0
  9
$PUCSXDIR
 10
1.0
 20
0.0
 30
0.0
  9
$PUCSYDIR
 10
0.0
 20
1.0
 30
0.0
  9
$PUCSORTHOREF
  2

  9
$PUCSORTHOVIEW
 70
0
  9
$PUCSORGTOP
 10
0.0
 20
0.0
 30
0.0
  9
$PUCSORGBOTTOM
 10
0.0
 20
0.0
 30
0.0
  9
$PUCSORGLEFT
 10
0.0
 20
0.0
 30
0.0
  9
$PUCSORGRIGHT
 10
0.0
 20
0.0
 30
0.0
  9
$PUCSORGFRONT
 10
0.0
 20
0.0
 30
0.0
  9
$PUCSORGBACK
 10
0.0
 20
0.0
 30
0.0
  9
$USERI1
 70
0
  9
$USERI2
 70
0
  9
$USERI3
 70
0
  9
$USERI4
 70
0
  9
$USERI5
 70
0
  9
$USERR1
 40
0.0
  9
$USERR2
 40
0.0
  9
$USERR3
 40
0.0
  9
$USERR4
 40
0.0
  9
$USERR5
 40
0.0
  9
$WORLDVIEW
 70
1
  9
$SHADEDGE
 70
3
  9
$SHADEDIF
 70
70
  9
$TILEMODE
 70
1
  9
$MAXACTVP
 70
64
  9
$PINSBASE
 10
0.0
 20
0.0
 30
0.0
  9
$PLIMCHECK
 70
0
  9
$PEXTMIN
 10
1e+20
 20
1e+20
 30
1e+20
  9
$PEXTMAX
 10
-1e+20
 20
-1e+20
 30
-1e+20
  9
$PLIMMIN
 10
0.0
 20
0.0
  9
$PLIMMAX
 10
420.0
 20
297.0
  9
$UNITMODE
 70
0
  9
$VISRETAIN
 70
1
  9
$PLINEGEN
 70
0
  9
$PSLTSCALE
 70
1
  9
$TREEDEPTH
 70
3020
  9
$CMLSTYLE
  2
Standard
  9
$CMLJUST
 70
0
  9
$CMLSCALE
 40
20.0
  9
$PROXYGRAPHICS
 70
1
  9
$MEASUREMENT
 70
1
  9
$CELWEIGHT
370
-1
  9
$ENDCAPS
280
0
  9
$JOINSTYLE
280
0
  9
$LWDISPLAY
290
0
  9
$INSUNITS
 70
4
  9
$HYPERLINKBASE
  1

  9
$STYLESHEET
  1

  9
$XEDIT
290
1
  9
$CEPSNTYPE
380
0
  9
$PSTYLEMODE
290
1
  9
$FINGERPRINTGUID
  2
{451F89BD-E922-4EC0-92F7-E4CA0944616F}
  9
$VERSIONGUID
  2
{B9339F29-DC24-4ABF-B1AE-AF8C27F16635}
  9
$EXTNAMES
290
1
  9
$PSVPSCALE
 40
0.0
  9
$OLESTARTUP
290
0
  9
$SORTENTS
280
127
  9
$INDEXCTL
280
0
  9
$HIDETEXT
280
1
  9
$XCLIPFRAME
280
1
  9
$HALOGAP
280
0
  9
$OBSCOLOR
 70
257
  9
$OBSLTYPE
280
0
  9
$INTERSECTIONDISPLAY
280
0
  9
$INTERSECTIONCOLOR
 70
257
  9
$DIMASSOC
280
2
  9
$PROJECTNAME
  1

  9
$CAMERADISPLAY
290
0
  9
$LENSLENGTH
 40
50.0
  9
$CAMERAHEIGHT
 40
0.0
  9
$STEPSPERSEC
 40
24.0
  9
$STEPSIZE
 40
100.0
  9
$3DDWFPREC
 40
2.0
  9
$PSOLWIDTH
 40
0.005
  9
$PSOLHEIGHT
 40
0.08
  9
$LOFTANG1
 40
1.570796326795
  9
$LOFTANG2
 40
1.570796326795
  9
$LOFTMAG1
 40
0.0
  9
$LOFTMAG2
 40
0.0
  9
$LOFTPARAM
 70
7
  9
$LOFTNORMALS
280
1
  9
$LATITUDE
 40
37.795
  9
$LONGITUDE
 40
-122.394
  9
$NORTHDIRECTION
 40
0.0
  9
$TIMEZONE
 70
-8000
  9
$LIGHTGLYPHDISPLAY
280
1
  9
$TILEMODELIGHTSYNCH
280
1
  9
$CMATERIAL
347
20
  9
$SOLIDHIST
280
0
  9
$SHOWHIST
280
1
  9
$DWFFRAME
280
2
  9
$DGNFRAME
280
2
  9
$REALWORLDSCALE
290
1
  9
$INTERFERECOLOR
 62
256
  9
$CSHADOW
280
0
  9
$SHADOWPLANELOCATION
 40
0.0
  0
ENDSEC
  0
SECTION
  2
CLASSES
  0
CLASS
  1
ACDBDICTIONARYWDFLT
  2
AcDbDictionaryWithDefault
  3
ObjectDBX Classes
 90
0
 91
0
280
0
281
0
  0
CLASS
  1
SUN
  2
AcDbSun
  3
SCENEOE
 90
1153
 91
0
280
0
281
0
  0
CLASS
  1
VISUALSTYLE
  2
AcDbVisualStyle
  3
ObjectDBX Classes
 90
4095
 91
0
280
0
281
0
  0
CLASS
  1
MATERIAL
  2
AcDbMaterial
  3
ObjectDBX Classes
 90
1153
 91
0
280
0
281
0
  0
CLASS
  1
SCALE
  2
AcDbScale
  3
ObjectDBX Classes
 90
1153
 91
0
280
0
281
0
  0
CLASS
  1
TABLESTYLE
  2
AcDbTableStyle
  3
ObjectDBX Classes
 90
4095
 91
0
280
0
281
0
  0
CLASS
  1
MLEADERSTYLE
  2
AcDbMLeaderStyle
  3
ACDB_MLEADERSTYLE_CLASS
 90
4095
 91
0
280
0
281
0
  0
CLASS
  1
DICTIONARYVAR
  2
AcDbDictionaryVar
  3
ObjectDBX Classes
 90
0
 91
0
280
0
281
0
  0
CLASS
  1
CELLSTYLEMAP
  2
AcDbCellStyleMap
  3
ObjectDBX Classes
 90
1152
 91
0
280
0
281
0
  0
CLASS
  1
MENTALRAYRENDERSETTINGS
  2
AcDbMentalRayRenderSettings
  3
SCENEOE
 90
1024
 91
0
280
0
281
0
  0
CLASS
  1
ACDBDETAILVIEWSTYLE
  2
AcDbDetailViewStyle
  3
ObjectDBX Classes
 90
1025
 91
0
280
0
281
0
  0
CLASS
  1
ACDBSECTIONVIEWSTYLE
  2
AcDbSectionViewStyle
  3
ObjectDBX Classes
 90
1025
 91
0
280
0
281
0
  0
CLASS
  1
RASTERVARIABLES
  2
AcDbRasterVariables
  3
ISM
 90
0
 91
0
280
0
281
0
  0
CLASS
  1
LAYOUT
  2
AcDbLayout
  3
ObjectDBX Classes
 90
0
 91
0
280
0
281
0
  0
CLASS
  1
ACDBPLACEHOLDER
  2
AcDbPlaceHolder
  3
ObjectDBX Classes
 90
0
 91
0
280
0
281
0
  0
ENDSEC
  0
SECTION
  2
TABLES
  0
TABLE
  2
VPORT
  5
8
330
0
100
AcDbSymbolTable
 70
1
  0
VPORT
  5
23
330
8
100
AcDbSymbolTableRecord
100
AcDbViewportTableRecord
  2
*Active
 70
0
 10
0.0
 20
0.0
 11
1.0
 21
1.0
 12
0.0
 22
0.0
 13
0.0
 23
0.0
 14
0.5
 24
0.5
 15
0.5
 25
0.5
 16
0.0
 26
0.0
 36
1.0
 17
0.0
 27
0.0
 37
0.0
 40
1000.0
 41
1.34
 42
50.0
 43
0.0
 44
0.0
 50
0.0
 51
0.0
 71
0
 72
1000
 73
1
 74
3
 75
0
 76
0
 77
0
 78
0
281
0
 65
0
146
0.0
  0
ENDTAB
  0
TABLE
  2
LTYPE
  5
2
330
0
100
AcDbSymbolTable
 70
3
  0
LTYPE
  5
24
330
2
100
AcDbSymbolTableRecord
100
AcDbLinetypeTableRecord
  2
ByBlock
 70
0
  3

 72
65
 73
0
 40
0.0
  0
LTYPE
  5
25
330
2
100
AcDbSymbolTableRecord
100
AcDbLinetypeTableRecord
  2
ByLayer
 70
0
  3

 72
65
 73
0
 40
0.0
  0
LTYPE
  5
26
330
2
100
AcDbSymbolTableRecord
100
AcDbLinetypeTableRecord
  2
Continuous
 70
0
  3

 72
65
 73
0
 40
0.0
  0
ENDTAB
  0
TABLE
  2
LAYER
  5
1
330
0
100
AcDbSymbolTable
 70
3
  0
LAYER
  5
27
330
1
100
AcDbSymbolTableRecord
100
AcDbLayerTableRecord
  2
0
 70
0
 62
7
  6
Continuous
370
-3
390
13
347
21
  0
LAYER
  5
28
330
1
100
AcDbSymbolTableRecord
100
AcDbLayerTableRecord
  2
Defpoints
 70
0
 62
7
  6
Continuous
290
0
370
-3
390
13
347
21
  0
LAYER
  5
2F
330
1
100
AcDbSymbolTableRecord
100
AcDbLayerTableRecord
  2
default
 70
0
 62
7
  6
Continuous
370
-3
390
13
347
21
  0
ENDTAB
  0
TABLE
  2
STYLE
  5
5
330
0
100
AcDbSymbolTable
 70
1
  0
STYLE
  5
29
330
5
100
AcDbSymbolTableRecord
100
AcDbTextStyleTableRecord
  2
Standard
 70
0
 40
0.0
 41
1.0
 50
0.0
 71
0
 42
2.5
  3
txt
  4

  0
ENDTAB
  0
TABLE
  2
VIEW
  5
7
330
0
100
AcDbSymbolTable
 70
0
  0
ENDTAB
  0
TABLE
  2
UCS
  5
6
330
0
100
AcDbSymbolTable
 70
0
  0
ENDTAB
  0
TABLE
  2
APPID
  5
3
330
0
100
AcDbSymbolTable
 70
3
  0
APPID
  5
2A
330
3
100
AcDbSymbolTableRecord
100
AcDbRegAppTableRecord
  2
ACAD
 70
0
  0
APPID
  5
5D
330
3
100
AcDbSymbolTableRecord
100
AcDbRegAppTableRecord
  2
HATCHBACKGROUNDCOLOR
 70
0
  0
APPID
  5
5E
330
3
100
AcDbSymbolTableRecord
100
AcDbRegAppTableRecord
  2
EZDXF
 70
0
  0
ENDTAB
  0
TABLE
  2
DIMSTYLE
  5
4
330
0
100
AcDbSymbolTable
 70
1
100
AcDbDimStyleTable
  0
DIMSTYLE
105
2B
330
4
100
AcDbSymbolTableRecord
100
AcDbDimStyleTableRecord
  2
Standard
 70
0
 40
1.0
 41
2.5
 42
0.625
 43
3.75
 44
1.25
 45
0.0
 46
0.0
 47
0.0
 48
0.0
 49
2.5
140
2.5
141
2.5
142
0.0
143
0.03937007874
144
1.0
145
0.0
146
1.0
147
0.625
148
0.0
 69
0
 70
0
 71
0
 72
0
 73
0
 74
0
 75
0
 76
0
 77
1
 78
8
 79
3
170
0
171
3
172
1
173
0
174
0
175
0
176
0
177
0
178
0
179
2
271
2
272
2
273
2
274
3
275
0
276
0
277
2
278
44
279
0
280
0
281
0
282
0
283
0
284
8
285
0
286
0
288
0
289
3
290
0
371
-2
372
-2
  0
ENDTAB
  0
TABLE
  2
BLOCK_RECORD
  5
9
330
0
100
AcDbSymbolTable
 70
2
  0
BLOCK_RECORD
  5
17
330
9
100
AcDbSymbolTableRecord
100
AcDbBlockTableRecord
  2
*Model_Space
340
1A
 70
0
280
1
281
0
  0
BLOCK_RECORD
  5
1B
330
9
100
AcDbSymbolTableRecord
100
AcDbBlockTableRecord
  2
*Paper_Space
340
1E
 70
0
280
1
281
0
  0
ENDTAB
  0
ENDSEC
  0
SECTION
  2
BLOCKS
  0
BLOCK
  5
18
330
17
100
AcDbEntity
  8
0
100
AcDbBlockBegin
  2
*Model_Space
 70
0
 10
0.0
 20
0.0
 30
0.0
  3
*Model_Space
  1

  0
ENDBLK
  5
19
330
17
100
AcDbEntity
  8
0
100
AcDbBlockEnd
  0
BLOCK
  5
1C
330
1B
100
AcDbEntity
  8
0
100
AcDbBlockBegin
  2
*Paper_Space
 70
0
 10
0.0
 20
0.0
 30
0.0
  3
*Paper_Space
  1

  0
ENDBLK
  5
1D
330
1B
100
AcDbEntity
  8
0
100
AcDbBlockEnd
  0
ENDSEC
  0
SECTION
  2
ENTITIES
  0
LWPOLYLINE
  5
30
330
17
100
AcDbEntity
  8
0
 62
0
100
AcDbPolyline
 90
103
 70
0
 10
43.81675228337592
 20
21.50826407387367
 10
43.84517223083007
 20
51.79825074119636
 10
9.985187134905779
 20
51.83002028298565
 10
9.993876693091945
 20
61.091353437401914
 10
9.82216067546929
 20
60.98864968971366
 10
9.289644875975432
 20
60.737399609333075
 10
8.735066471221037
 20
60.539555042609884
 10
8.16376635440728
 20
60.397021340874424
 10
7.5812464579634895
 20
60.311171181591284
 10
6.993116766930193
 20
60.28283134872482
 10
6.405041291736429
 20
60.312274770357654
 10
5.822683520683063
 20
60.39921789024405
 10
5.2516518774544885
 20
60.542823398611596
 10
4.697445708932645
 20
60.7417082959119
 10
4.165402323480302
 20
60.99395721186247
 10
3.660645589743867
 20
61.29714085150939
 10
3.1880365909973154
 20
61.648339390665804
 10
2.752126810252939
 20
62.04417059541503
 10
2.3571142969918455
 20
62.48082239487197
 10
2.0068032376525213
 20
62.95408959350967
 10
1.704567319235931
 20
63.45941436949112
 10
1.453317238855366
 20
63.991930168984986
 10
1.2554726721321607
 20
64.5465085737394
 10
1.1129389703967068
 20
65.11780869055315
 10
1.027088811113554
 20
65.70032858699693
 10
0.998748978247086
 20
66.28845827803025
 10
1.02819239987992
 20
66.87653375322398
 10
1.1151355197663388
 20
67.45889152427736
 10
1.258741028133871
 20
68.02992316750593
 10
1.4576259254341934
 20
68.58412933602779
 10
1.709874841384753
 20
69.1161727214801
 10
2.013058481031658
 20
69.62092945521653
 10
2.364257020188095
 20
70.0935384539631
 10
2.7600882249373093
 20
70.52944823470744
 10
3.196740024394243
 20
70.92446074796857
 10
3.670007223031961
 20
71.2747718073079
 10
4.175331999013393
 20
71.57700772572448
 10
4.70784779850725
 20
71.82825780610503
 10
5.2624262032616596
 20
72.02610237282826
 10
5.833726320075416
 20
72.16863607456372
 10
6.416246216519207
 20
72.25448623384688
 10
7.004375907552504
 20
72.28282606671334
 10
7.592451382746267
 20
72.2533826450805
 10
8.174809153799632
 20
72.16643952519408
 10
8.745840797028206
 20
72.02283401682655
 10
9.30004696555005
 20
71.82394911952622
 10
9.832090351002394
 20
71.57170020357566
 10
10.003613340385012
 20
71.46867440772508
 10
10.004374587049634
 20
72.28001128155776
 10
95.3143370363497
 20
72.19996817435032
 10
95.29514958420584
 20
51.749977175778206
 10
59.67516526297659
 20
51.7833980581921
 10
59.646745315522445
 20
21.493411390869404
 10
95.26672963675169
 20
21.45999050845551
 10
95.24743897581881
 20
0.8999995583018379
 10
9.937476526518736
 20
0.9800426655092842
 10
9.938237773183358
 20
1.7913795393419605
 10
9.766521755560703
 20
1.6886757916537007
 10
9.234005956066845
 20
1.4374257112731357
 10
8.67942755131245
 20
1.2395811445499323
 10
8.108127434498693
 20
1.0970474428144765
 10
7.525607538054903
 20
1.011197283531331
 10
6.937477847021606
 20
0.9828574506648611
 10
6.349402371827843
 20
1.012300872297697
 10
5.767044600774477
 20
1.0992439921841086
 10
5.196012957545902
 20
1.2428495005516424
 10
4.641806789024058
 20
1.4417343978519632
 10
4.109763403571716
 20
1.6939833138025229
 10
3.60500666983528
 20
1.997166953449435
 10
3.1323976710887287
 20
2.3483654926058666
 10
2.6964878903443523
 20
2.744196697355088
 10
2.3014753770832588
 20
3.180848496812013
 10
1.9511643177439346
 20
3.654115695449729
 10
1.6489283993273443
 20
4.159440471431173
 10
1.3976783189467792
 20
4.691956270925031
 10
1.1998337522235758
 20
5.246534675679431
 10
1.05730005048812
 20
5.817834792493187
 10
0.9714498912049674
 20
6.400354688936979
 10
0.9431100583384993
 20
6.988484379970277
 10
0.9725534799713333
 20
7.576559855164042
 10
1.0594965998577521
 20
8.15891762621741
 10
1.203102108225286
 20
8.729949269445981
 10
1.4019870055256067
 20
9.284155437967833
 10
1.6542359214761664
 20
9.816198823420176
 10
1.9574195611230714
 20
10.320955557156605
 10
2.3086181002795083
 20
10.793564555903153
 10
2.7044493050287226
 20
11.22947433664752
 10
3.1411011044856565
 20
11.624486849908621
 10
3.614368303123374
 20
11.97479790924794
 10
4.119693079104806
 20
12.277033827664543
 10
4.652208878598663
 20
12.528283908045108
 10
5.206787283353073
 20
12.726128474768313
 10
5.77808740016683
 20
12.868662176503765
 10
6.36060729661062
 20
12.954512335786912
 10
6.948736987643917
 20
12.982852168653384
 10
7.5368124628376805
 20
12.953408747020543
 10
8.119170233891046
 20
12.866465627134136
 10
8.69020187711962
 20
12.7228601187666
 10
9.244408045641464
 20
12.523975221466284
 10
9.776451431093808
 20
12.27172630551572
 10
9.947974420476426
 20
12.168700509665126
 10
9.956767187451629
 20
21.540033615662956
 10
43.81675228337592
 20
21.50826407387367
  0
LWPOLYLINE
  5
31
330
17
100
AcDbEntity
  8
0
 62
0
100
AcDbPolyline
 90
65
 70
0
 10
6.074947350342917
 20
9.854491642213716
 10
5.79765814796572
 20
9.755569358852114
 10
5.531400248218784
 20
9.629944318661831
 10
5.278737860228061
 20
9.478826359453532
 10
5.042104260909209
 20
9.303670829783872
 10
4.823778361180742
 20
9.106164573153322
 10
4.625862758806128
 20
8.888209682781138
 10
4.4502634892279165
 20
8.651905183407862
 10
4.298671669404465
 20
8.399526816539648
 10
4.172547211429176
 20
8.133505123813478
 10
4.073104762779023
 20
7.8564020395525525
 10
4.001302008595257
 20
7.570886217938263
 10
3.9578304486520484
 20
7.279707332411579
 10
3.9431087378356313
 20
6.9856695948146985
 10
3.9572786542688636
 20
6.691604749298051
 10
4.000203733910443
 20
6.400344801076155
 10
4.071470584778167
 20
6.114694742669279
 10
4.170392868139764
 20
5.837405540292078
 10
4.296017908330054
 20
5.571147640545146
 10
4.447135867538348
 20
5.318485252554424
 10
4.622291397208017
 20
5.081851653235569
 10
4.819797653838557
 20
4.863525753507105
 10
5.037752544210745
 20
4.665610151132494
 10
5.274057043584014
 20
4.490010881554278
 10
5.5264354104522315
 20
4.338419061730823
 10
5.7924571031784104
 20
4.212294603755543
 10
6.069560187439333
 20
4.112852155105381
 10
6.35507600905362
 20
4.041049400921617
 10
6.646254894580302
 20
3.99757784097841
 10
6.940292632177184
 20
3.9828561301619914
 10
7.234357477693832
 20
3.9970260465952254
 10
7.525617425915727
 20
4.039951126236801
 10
7.811267484322606
 20
4.111217977104525
 10
8.088556686699803
 20
4.2101402604661295
 10
8.35481458644674
 20
4.335765300656412
 10
8.607476974437462
 20
4.48688325986471
 10
8.844110573756314
 20
4.662038789534371
 10
9.06243647348478
 20
4.8595450461649214
 10
9.260352075859394
 20
5.077499936537107
 10
9.435951345437607
 20
5.313804435910379
 10
9.587543165261058
 20
5.566182802778595
 10
9.713667623236347
 20
5.832204495504772
 10
9.813110071886499
 20
6.109307579765691
 10
9.884912826070266
 20
6.394823401379977
 10
9.928384386013475
 20
6.686002286906664
 10
9.943106096829892
 20
6.980040024503541
 10
9.928936180396658
 20
7.274104870020196
 10
9.886011100755082
 20
7.5653648182420845
 10
9.814744249887354
 20
7.851014876648964
 10
9.715821966525759
 20
8.128304079026169
 10
9.59019692633547
 20
8.394561978773098
 10
9.439078967127175
 20
8.647224366763819
 10
9.26392343745752
 20
8.883857966082672
 10
9.066417180826965
 20
9.102183865811135
 10
8.848462290454778
 20
9.300099468185746
 10
8.612157791081508
 20
9.47569873776396
 10
8.359779424213292
 20
9.627290557587418
 10
8.093757731487113
 20
9.753415015562702
 10
7.816654647226191
 20
9.85285746421286
 10
7.531138825611904
 20
9.924660218396628
 10
7.239959940085221
 20
9.968131778339835
 10
6.945922202488339
 20
9.982853489156252
 10
6.651857356971691
 20
9.96868357272302
 10
6.360597408749796
 20
9.925758493081442
 10
6.074947350342917
 20
9.854491642213716
  0
LWPOLYLINE
  5
32
330
17
100
AcDbEntity
  8
0
 62
0
100
AcDbPolyline
 90
65
 70
0
 10
6.416236328658383
 20
69.2257323911414
 10
6.130586270251504
 20
69.15446554027366
 10
5.853297067874307
 20
69.05554325691207
 10
5.587039168127371
 20
68.92991821672177
 10
5.3343767801366475
 20
68.7788002575135
 10
5.097743180817796
 20
68.6036447278438
 10
4.879417281089329
 20
68.40613847121327
 10
4.681501678714715
 20
68.18818358084107
 10
4.505902409136503
 20
67.95187908146781
 10
4.354310589313052
 20
67.6995007145996
 10
4.228186131337763
 20
67.43347902187341
 10
4.12874368268761
 20
67.1563759376125
 10
4.056940928503844
 20
66.8708601159982
 10
4.013469368560635
 20
66.57968123047152
 10
3.998747657744218
 20
66.28564349287467
 10
4.01291757417745
 20
65.99157864735798
 10
4.055842653819029
 20
65.70031869913609
 10
4.127109504686754
 20
65.41466864072922
 10
4.226031788048351
 20
65.13737943835204
 10
4.351656828238639
 20
64.87112153860508
 10
4.502774787446935
 20
64.61845915061437
 10
4.677930317116604
 20
64.38182555129552
 10
4.875436573747144
 20
64.16349965156704
 10
5.093391464119332
 20
63.96558404919244
 10
5.3296959634926
 20
63.78998477961424
 10
5.582074330360818
 20
63.638392959790785
 10
5.848096023086997
 20
63.51226850181549
 10
6.125199107347919
 20
63.412826053165325
 10
6.410714928962206
 20
63.341023298981575
 10
6.701893814488889
 20
63.29755173903835
 10
6.9959315520857706
 20
63.282830028221944
 10
7.289996397602419
 20
63.29699994465516
 10
7.581256345824314
 20
63.339925024296754
 10
7.866906404231193
 20
63.41119187516447
 10
8.14419560660839
 20
63.51011415852607
 10
8.410453506355326
 20
63.63573919871637
 10
8.66311589434605
 20
63.786857157924665
 10
8.8997494936649
 20
63.96201268759432
 10
9.118075393393369
 20
64.15951894422486
 10
9.315990995767983
 20
64.37747383459705
 10
9.491590265346193
 20
64.61377833397032
 10
9.643182085169645
 20
64.86615670083856
 10
9.769306543144932
 20
65.13217839356471
 10
9.868748991795087
 20
65.40928147782563
 10
9.940551745978853
 20
65.69479729943993
 10
9.984023305922062
 20
65.9859761849666
 10
9.998745016738479
 20
66.28001392256351
 10
9.984575100305246
 20
66.57407876808011
 10
9.941650020663669
 20
66.86533871630203
 10
9.870383169795941
 20
67.1509887747089
 10
9.771460886434348
 20
67.42827797708611
 10
9.645835846244056
 20
67.69453587683304
 10
9.494717887035762
 20
67.94719826482375
 10
9.319562357366106
 20
68.1838318641426
 10
9.122056100735552
 20
68.40215776387109
 10
8.904101210363365
 20
68.60007336624571
 10
8.667796710990096
 20
68.77567263582392
 10
8.415418344121878
 20
68.92726445564736
 10
8.1493966513957
 20
69.05338891362265
 10
7.872293567134777
 20
69.15283136227279
 10
7.58677774552049
 20
69.22463411645657
 10
7.295598859993808
 20
69.26810567639976
 10
7.001561122396926
 20
69.2828273872162
 10
6.707496276880278
 20
69.26865747078295
 10
6.416236328658383
 20
69.2257323911414
  0
LWPOLYLINE
  5
33
330
17
100
AcDbEntity
  8
0
 62
0
100
AcDbPolyline
 90
54
 70
0
 10
168.7287151845575
 20
87.75573185512775
 10
248.90893440207887
 20
130.67937273320587
 10
251.93891335824716
 20
108.79816327108568
 10
236.8326578750205
 20
101.67882023429615
 10
240.6979728132198
 20
73.76517231023338
 10
257.1621636366939
 20
71.07808829066305
 10
260.17705442241504
 20
49.3058391291691
 10
171.38148987954594
 20
68.59852990866311
 10
170.75628726593453
 20
73.11347524082342
 10
170.60039927472224
 20
72.98804245127782
 10
170.10768173898254
 20
72.66566207101808
 10
169.5857379698794
 20
72.39312880424824
 10
169.03959457123278
 20
72.17306729530914
 10
168.474511202524
 20
72.00759685682972
 10
167.89592992549973
 20
71.89831105958788
 10
167.30942279414242
 20
71.84626238555275
 10
166.7206381927444
 20
71.85195209190798
 10
166.13524643887956
 20
71.91532538367107
 10
165.55888517514535
 20
72.03577194139899
 10
164.99710507558257
 20
72.21213179889801
 10
164.4553163896503
 20
72.44270651433231
 10
163.9387368385659
 20
72.72527552714732
 10
163.45234136579737
 20
73.05711754328166
 10
163.00081422563832
 20
73.43503674271669
 10
162.5885038712783
 20
73.8553935569702
 10
162.2193810768216
 20
74.3141397201305
 10
161.89700069656186
 20
74.8068572558702
 10
161.62446742979202
 20
75.32880102497333
 10
161.40440592085292
 20
75.87494442361994
 10
161.2389354823735
 20
76.44002779232872
 10
161.12964968513165
 20
77.01860906935298
 10
161.07760101109653
 20
77.60511620071031
 10
161.08329071745177
 20
78.19390080210833
 10
161.14666400921487
 20
78.77929255597316
 10
161.2671105669428
 20
79.35565381970738
 10
161.44347042444178
 20
79.91743391927017
 10
161.67404513987609
 20
80.45922260520243
 10
161.9566141526911
 20
80.97580215628685
 10
162.28845616882543
 20
81.46219762905537
 10
162.66637536826047
 20
81.91372476921441
 10
163.086732182514
 20
82.32603512357441
 10
163.54547834567427
 20
82.69515791803111
 10
164.03819588141397
 20
83.01753829829086
 10
164.56013965051713
 20
83.2900715650607
 10
165.10628304916372
 20
83.5101330739998
 10
165.6713664178725
 20
83.67560351247921
 10
166.24994769489678
 20
83.78488930972105
 10
166.8364548262541
 20
83.83693798375619
 10
167.42523942765212
 20
83.83124827740096
 10
168.01063118151694
 20
83.76787498563786
 10
168.58699244525118
 20
83.64742842790996
 10
169.14877254481394
 20
83.47106857041095
 10
169.33287947952857
 20
83.39271624378702
 10
168.7287151845575
 20
87.75573185512775
  0
LWPOLYLINE
  5
34
330
17
100
AcDbEntity
  8
0
 62
0
100
AcDbPolyline
 90
4
 70
0
 10
224.29321488099632
 20
76.46048624095673
 10
221.77760537189147
 20
94.62713999991027
 10
193.729204213567
 20
81.455378824513
 10
224.29321488099632
 20
76.46048624095673
  0
LWPOLYLINE
  5
35
330
17
100
AcDbEntity
  8
0
 62
0
100
AcDbPolyline
 90
65
 70
0
 10
166.089610929681
 20
80.67586662932713
 10
165.81653923035768
 20
80.56583587485758
 10
165.55556734580614
 20
80.42956924147268
 10
165.30920857793626
 20
80.26837905134279
 10
165.0798354963561
 20
80.08381765411444
 10
164.86965708922938
 20
79.87766247693443
 10
164.68069748951186
 20
79.65189890685491
 10
164.51477648144467
 20
79.40870117047065
 10
164.37349197503718
 20
79.15041139492845
 10
164.25820461732002
 20
78.8795170519623
 10
164.17002468857052
 20
78.59862700218093
 10
164.10980140970656
 20
78.31044637031381
 10
164.07811476382503
 20
78.0177504933814
 10
164.0752699106474
 20
77.72335819268238
 10
164.10129424766495
 20
77.43010462700373
 10
164.15593714628588
 20
77.1408139884916
 10
164.2386723655256
 20
76.8582723041372
 10
164.34870311999515
 20
76.5852006048139
 10
164.48496975338006
 20
76.32422872026233
 10
164.64615994350993
 20
76.07786995239249
 10
164.83072134073828
 20
75.84849687081234
 10
165.0368765179183
 20
75.63831846368558
 10
165.26264008799782
 20
75.44935886396806
 10
165.50583782438207
 20
75.2834378559009
 10
165.76412759992428
 20
75.14215334949338
 10
166.0350219428904
 20
75.02686599177623
 10
166.3159119926718
 20
74.93868606302674
 10
166.6040926245389
 20
74.87846278416278
 10
166.89678850147132
 20
74.84677613828123
 10
167.19118080217032
 20
74.84393128510361
 10
167.484434367849
 20
74.86995562212118
 10
167.77372500636113
 20
74.9245985207421
 10
168.05626669071552
 20
75.00733373998182
 10
168.32933839003883
 20
75.11736449445135
 10
168.5903102745904
 20
75.25363112783629
 10
168.83666904246024
 20
75.41482131796614
 10
169.0660421240404
 20
75.5993827151945
 10
169.27622053116716
 20
75.8055378923745
 10
169.46518013088468
 20
76.03130146245402
 10
169.63110113895183
 20
76.27449919883828
 10
169.77238564535935
 20
76.53278897438051
 10
169.8876730030765
 20
76.80368331734664
 10
169.975852931826
 20
77.08457336712802
 10
170.03607621068994
 20
77.37275399899514
 10
170.0677628565715
 20
77.66544987592754
 10
170.0706077097491
 20
77.95984217662655
 10
170.04458337273155
 20
78.25309574230522
 10
169.98994047411063
 20
78.54238638081735
 10
169.90720525487092
 20
78.82492806517173
 10
169.79717450040138
 20
79.09799976449503
 10
169.66090786701645
 20
79.35897164904661
 10
169.49971767688658
 20
79.60533041691644
 10
169.31515627965823
 20
79.83470349849661
 10
169.10900110247823
 20
80.04488190562336
 10
168.8832375323987
 20
80.23384150534088
 10
168.64003979601443
 20
80.39976251340805
 10
168.38175002047223
 20
80.54104701981555
 10
168.1108556775061
 20
80.6563343775327
 10
167.8299656277247
 20
80.74451430628221
 10
167.5417849958576
 20
80.80473758514617
 10
167.24908911892518
 20
80.8364242310277
 10
166.95469681822618
 20
80.83926908420534
 10
166.6614432525475
 20
80.81324474718777
 10
166.37215261403537
 20
80.75860184856685
 10
166.089610929681
 20
80.67586662932713
  0
LWPOLYLINE
  5
36
330
17
100
AcDbEntity
  8
0
 62
0
100
AcDbPolyline
 90
76
 70
0
 10
6.921069794931345
 20
105.55218619538758
 10
6.017493684660458
 20
107.79916670361499
 10
4.6468563248798205
 20
112.2223363578871
 10
3.8000367980125453
 20
116.56055637753988
 10
3.477035104058622
 20
120.81382676257337
 10
3.5337916874622337
 20
122.90506627399876
 10
3.6772660660064638
 20
124.96902067719728
 10
4.394627370785919
 20
128.89425601978928
 10
5.62803275547741
 20
132.57517846712008
 10
7.376981134172887
 20
136.01056053175085
 10
8.466076997140139
 20
137.62548276348488
 10
9.633902424213233
 20
139.19179747633606
 10
12.307449478047111
 20
141.9962678472069
 10
15.385818210128335
 20
144.40850306829225
 10
18.86828221892596
 20
146.43023171293908
 10
20.77761485471583
 20
147.2790331767515
 10
23.641805821694177
 20
148.38198276761784
 10
29.249000132659454
 20
149.52919209648283
 10
34.7114230574129
 20
149.40441788589436
 10
40.029800997485445
 20
148.00593156250548
 10
42.629243624478804
 20
146.77532680547236
 10
45.17179329876393
 20
145.3445485188902
 10
49.80727420595534
 20
141.5444119842489
 10
53.90353986418099
 20
136.6172016378291
 10
57.46095347420638
 20
130.56205319295736
 10
59.015274792756
 20
127.06418065533063
 10
64.10202258009181
 20
114.95955769763245
 10
90.791195057271
 20
126.17519733536068
 10
98.75642997788215
 20
107.2208143947457
 10
20.108647455320625
 20
74.1705132723071
 10
11.67483375488019
 20
94.23994450958288
 10
11.556467957776057
 20
94.07862498635862
 10
11.16328746694931
 20
93.64032282889751
 10
10.729039123578435
 20
93.24266964346896
 10
10.25790497659439
 20
92.88949504762797
 10
9.75442230538075
 20
92.5842003057974
 10
9.223439923292936
 20
92.32972557323211
 10
8.670071480934947
 20
92.12852158071678
 10
8.099646218908646
 20
91.9825260326886
 10
7.517657644313509
 20
91.89314494608439
 10
6.929710625270221
 20
91.8612391096288
 10
6.341467412976691
 20
91.8871157939684
 10
5.758593111133756
 20
91.9705257924874
 10
5.186701117899666
 20
92.11066582130346
 10
4.631299065797236
 20
92.3061862553308
 10
4.097735780201866
 20
92.55520412590737
 10
3.5911497672291794
 20
92.85532125481251
 10
3.1164197271122127
 20
93.20364735003416
 10
2.678117569651107
 20
93.5968278408609
 10
2.2804643842225545
 20
94.03107618423178
 10
1.9272897883815716
 20
94.50221033121582
 10
1.6219950465509783
 20
95.00569300242947
 10
1.3675203139856968
 20
95.53667538451728
 10
1.1663163214703616
 20
96.09004382687527
 10
1.0203207734421866
 20
96.66046908890158
 10
0.9309396868379736
 20
97.24245766349671
 10
0.8990338503823807
 20
97.83040468254
 10
0.9249105347219881
 20
98.41864789483354
 10
1.008320533240962
 20
99.00152219667646
 10
1.1484605620570427
 20
99.57341418991055
 10
1.3439809960843725
 20
100.12881624201297
 10
1.5929988666609525
 20
100.66237952760835
 10
1.8931159955661023
 20
101.16896554058104
 10
2.2414420907877357
 20
101.64369558069801
 10
2.6346225816144866
 20
102.08199773815912
 10
3.0688709249853687
 20
102.47965092358767
 10
3.540005071969418
 20
102.83282551942865
 10
4.04348774318305
 20
103.13812026125925
 10
4.574470125270864
 20
103.39259499382453
 10
5.1278385676288565
 20
103.59379898633986
 10
5.698263829655161
 20
103.73979453436803
 10
6.2802524042502945
 20
103.82917562097225
 10
6.868199423293586
 20
103.86108145742784
 10
7.456442635587113
 20
103.83520477308824
 10
7.654511003979817
 20
103.8068609564848
 10
6.921069794931345
 20
105.55218619538758
  0
LWPOLYLINE
  5
37
330
17
100
AcDbEntity
  8
0
 62
0
100
AcDbPolyline
 90
24
 70
0
 10
49.47137777135836
 20
108.81129513974824
 10
44.249035031580235
 20
121.23858512221372
 10
43.65339014781985
 20
122.57534183178171
 10
42.28842147270473
 20
124.85672796178198
 10
40.71614284717141
 20
126.66711036750213
 10
38.93778175865887
 20
128.00598796303416
 10
37.96319382928421
 20
128.4787785160063
 10
36.96038589274954
 20
128.87191577764094
 10
34.84345366088846
 20
129.25599976417965
 10
32.59417063380061
 20
129.15888672602563
 10
30.213902184067486
 20
128.58216735138325
 10
28.969702714483454
 20
128.09456819860193
 10
27.629472040000795
 20
127.49509064210943
 10
25.307193675126882
 20
126.08344720791777
 10
23.416617487863874
 20
124.4164536916499
 10
21.9598352523242
 20
122.49397220816331
 10
21.41297602973125
 20
121.42622643981709
 10
20.945678175047405
 20
120.3288661482359
 10
20.44258646736069
 20
118.05107932850127
 10
20.45729956169119
 20
115.67361302487987
 10
20.989817458038882
 20
113.1964672373717
 10
21.471828407053223
 20
111.91636122533147
 10
26.783276401293435
 20
99.27703291230465
 10
49.47137777135836
 20
108.81129513974824
  0
LWPOLYLINE
  5
38
330
17
100
AcDbEntity
  8
0
 62
0
100
AcDbPolyline
 90
65
 70
0
 10
5.219480048125661
 20
100.34699290147847
 10
4.983912974633636
 20
100.17040560355798
 10
4.766788802948199
 20
99.97157901084373
 10
4.57019855753482
 20
99.75242793211316
 10
4.396035509923998
 20
99.51506291205467
 10
4.245976945471426
 20
99.26176990556834
 10
4.121468010183136
 20
98.99498826277065
 10
4.023707793169464
 20
98.71728723671943
 10
3.9536377787614327
 20
98.43134124010238
 10
3.911932779501946
 20
98.13990408918093
 10
3.898994437332135
 20
97.84578248303416
 10
3.9149473555599386
 20
97.55180897351252
 10
3.9596378988620486
 20
97.26081468621494
 10
4.032635672876133
 20
96.97560205520179
 10
4.133237669133798
 20
96.69891783402281
 10
4.260475035416441
 20
96.4334266429789
 10
4.413122406331738
 20
96.18168530737206
 10
4.589709704252229
 20
95.94611823388004
 10
4.788536296966498
 20
95.7289940621946
 10
5.007687375697056
 20
95.53240381678124
 10
5.24505239575554
 20
95.35824076917041
 10
5.498345402241888
 20
95.20818220471784
 10
5.765127045039566
 20
95.08367326942955
 10
6.042828071090781
 20
94.9859130524159
 10
6.328774067707823
 20
94.91584303800784
 10
6.62021121862929
 20
94.87413803874836
 10
6.914332824776061
 20
94.86119969657855
 10
7.208306334297706
 20
94.87715261480635
 10
7.499300621595271
 20
94.92184315810846
 10
7.7845132526084235
 20
94.99484093212254
 10
8.06119747378742
 20
95.09544292838021
 10
8.326688664831327
 20
95.22268029466285
 10
8.578430000438146
 20
95.37532766557814
 10
8.813997073930167
 20
95.55191496349863
 10
9.031121245615601
 20
95.75074155621292
 10
9.227711491028984
 20
95.96989263494348
 10
9.401874538639806
 20
96.20725765500197
 10
9.551933103092374
 20
96.4605506614883
 10
9.676442038380664
 20
96.727332304286
 10
9.774202255394336
 20
97.0050333303372
 10
9.84427226980237
 20
97.29097932695424
 10
9.885977269061858
 20
97.58241647787571
 10
9.898915611231672
 20
97.87653808402247
 10
9.882962693003869
 20
98.17051159354412
 10
9.838272149701758
 20
98.46150588084168
 10
9.765274375687675
 20
98.74671851185484
 10
9.664672379430002
 20
99.02340273303383
 10
9.537435013147359
 20
99.28889392407775
 10
9.38478764223207
 20
99.54063525968456
 10
9.208200344311578
 20
99.77620233317658
 10
9.009373751597302
 20
99.99332650486203
 10
8.790222672866747
 20
100.18991675027539
 10
8.552857652808264
 20
100.3640797978862
 10
8.299564646321926
 20
100.5141383623388
 10
8.032783003524237
 20
100.63864729762707
 10
7.755081977473019
 20
100.73640751464075
 10
7.469135980855981
 20
100.80647752904878
 10
7.1776988299345135
 20
100.84818252830829
 10
6.883577223787743
 20
100.86112087047809
 10
6.589603714266097
 20
100.84516795225028
 10
6.298609426968532
 20
100.80047740894817
 10
6.01339679595538
 20
100.7274796349341
 10
5.736712574776384
 20
100.62687763867642
 10
5.471221383732477
 20
100.49964027239378
 10
5.219480048125661
 20
100.34699290147847
  0
LWPOLYLINE
  5
39
330
17
100
AcDbEntity
  8
0
 62
0
100
AcDbPolyline
 90
76
 70
0
 10
26.474190438288325
 20
192.95748718264696
 10
27.46532841174426
 20
195.16724208058923
 10
29.699503653125582
 20
199.22329158143347
 10
32.23595804787023
 20
202.8431887282293
 10
35.07469159597818
 20
206.02693352097674
 10
36.620008017266876
 20
207.4370757698303
 10
38.20584542189138
 20
208.76583925588605
 10
41.530214963094366
 20
210.97279346697655
 10
45.03670973015962
 20
212.63861859429147
 10
48.724098109217756
 20
213.762823781664
 10
50.642702781876146
 20
214.09906732931157
 10
52.5809311611954
 20
214.34488994302717
 10
56.4555256511929
 20
214.3655163396386
 10
60.328552100753434
 20
213.82247036229913
 10
64.20075126757945
 20
212.7174744810452
 10
66.1367839339915
 20
211.93147667338414
 10
68.91836448558527
 20
210.63421134573997
 10
73.6350593204096
 20
207.39237434794106
 10
77.33532795126578
 20
203.3722195160967
 10
80.0184296204514
 20
198.5720243801705
 10
80.93588310354303
 20
195.8462640925763
 10
81.66971299656535
 20
193.02258226919935
 10
82.14951677434479
 20
187.0477593213891
 10
81.44356000123977
 20
180.67921010079482
 10
79.55147229839918
 20
173.91607337239827
 10
78.11106833418648
 20
170.36977058348396
 10
72.92378906308701
 20
158.30788707535714
 10
99.51872642487464
 20
146.87058814936097
 10
91.39607129815681
 20
127.98313004371836
 10
13.025981269344998
 20
161.6866178287523
 10
21.626475890589557
 20
181.68518717736873
 10
21.428178563602728
 20
181.65849222265297
 10
20.839740422526752
 20
181.63751047513585
 10
20.252079201045817
 20
181.67430678431708
 10
19.67085439797109
 20
181.76852678162427
 10
19.101663525885975
 20
181.91926307697747
 10
18.549988204040034
 20
182.1250639974516
 10
18.021141367359053
 20
182.38394756768028
 10
17.520216099977347
 20
182.693420597362
 10
17.05203658605342
 20
183.05050269204582
 10
16.621111650239317
 20
183.45175495595896
 10
16.23159133523445
 20
183.8933131104532
 10
15.887226934605788
 20
184.37092470912043
 10
15.591334865780103
 20
184.8799900911765
 10
15.346764731131252
 20
185.41560667870874
 10
15.15587187475155
 20
185.97261619118137
 10
15.020494699200565
 20
186.54565432249697
 10
14.941936960683567
 20
187.12920240219643
 10
14.92095521316648
 20
187.7176405432724
 10
14.95775152234769
 20
188.30530176475332
 10
15.05197151965488
 20
188.88652656782807
 10
15.20270781500808
 20
189.45571743991317
 10
15.408508735482215
 20
190.00739276175912
 10
15.667392305710877
 20
190.5362395984401
 10
15.97686533539263
 20
191.0371648658218
 10
16.333947430076442
 20
191.50534437974574
 10
16.7351996939896
 20
191.93626931555985
 10
17.176757848483806
 20
192.3257896305647
 10
17.654369447151048
 20
192.67015403119336
 10
18.163434829207112
 20
192.96604610001907
 10
18.699051416739337
 20
193.2106162346679
 10
19.256060929211994
 20
193.40150909104761
 10
19.829099060527586
 20
193.53688626659857
 10
20.412647140227023
 20
193.6154440051156
 10
21.001085281303006
 20
193.63642575263268
 10
21.58874650278395
 20
193.59962944345148
 10
22.169971305858677
 20
193.50540944614428
 10
22.739162177943797
 20
193.3546731507911
 10
23.290837499789735
 20
193.14887223031695
 10
23.81968433647072
 20
192.88998866008828
 10
24.320609603852418
 20
192.58051563040652
 10
24.788789117776343
 20
192.22343353572273
 10
25.21971405359045
 20
191.82218127180957
 10
25.609234368595317
 20
191.38062311731537
 10
25.72625392967288
 20
191.21832440252496
 10
26.474190438288325
 20
192.95748718264696
  0
LWPOLYLINE
  5
3A
330
17
100
AcDbEntity
  8
0
 62
0
100
AcDbPolyline
 90
24
 70
0
 10
58.34480267512261
 20
164.5776602689861
 10
63.670356717348106
 20
176.96107151723817
 10
64.219686810562
 20
178.31751826400512
 10
64.91546204562354
 20
180.8834019286474
 10
65.12821710959582
 20
183.27176534613733
 10
64.85844285864582
 20
185.48137690260546
 10
64.52268592301581
 20
186.51124088354607
 10
64.10998880620008
 20
187.50615884691516
 10
62.91773337738184
 20
189.29709423811755
 10
61.28712807833829
 20
190.84945741626115
 10
59.220265757957044
 20
192.16336885866167
 10
58.005845657208575
 20
192.7210148689624
 10
56.644228518031134
 20
193.27018730805668
 10
54.01636038312069
 20
193.96302426923882
 10
51.50414850241021
 20
194.16780993656474
 10
49.10894496708486
 20
193.8829423173138
 10
47.96060371086041
 20
193.53588555767766
 10
46.84614047706039
 20
193.11098722273243
 10
44.856797165235555
 20
191.892821696132
 10
43.15495364034095
 20
190.23261354147957
 10
41.740609902376576
 20
188.13036275877525
 10
41.15322961128199
 20
186.8950529390681
 10
35.73680929088796
 20
174.30035203301946
 10
58.34480267512261
 20
164.5776602689861
  0
LWPOLYLINE
  5
3B
330
17
100
AcDbEntity
  8
0
 62
0
100
AcDbPolyline
 90
65
 70
0
 10
21.54519207888678
 20
190.57118878001427
 10
21.25457967734942
 20
190.61829877866788
 10
20.96074906660895
 20
190.63669693325846
 10
20.666529996070953
 20
190.62620605949994
 10
20.37475595622123
 20
190.58692719024143
 10
20.08823689056344
 20
190.51923860246595
 10
19.809732134327106
 20
190.4237921742761
 10
19.54192384056099
 20
190.30150710695168
 10
19.287391149532965
 20
190.15356107253882
 10
19.048585350199346
 20
189.9813788722245
 10
18.827806272952234
 20
189.78661871472207
 10
18.627180140995662
 20
189.571156246815
 10
18.448639093653753
 20
189.33706648985304
 10
18.29390257881288
 20
189.08660385616218
 10
18.164460793698552
 20
188.82218043782171
 10
18.061560333461482
 20
188.5463427768987
 10
17.98619218578488
 20
188.26174734085618
 10
17.93908218713129
 20
187.9711349393188
 10
17.920684032540674
 20
187.67730432857834
 10
17.931174906299226
 20
187.38308525804035
 10
17.97045377555773
 20
187.09131121819064
 10
18.038142363333225
 20
186.80479215253283
 10
18.13358879152307
 20
186.5262873962965
 10
18.255873858847494
 20
186.25847910253037
 10
18.40381989326033
 20
186.00394641150234
 10
18.576002093574658
 20
185.76514061216875
 10
18.7707622510771
 20
185.54436153492162
 10
18.986224718984154
 20
185.34373540296505
 10
19.220314475946118
 20
185.16519435562316
 10
19.470777109636966
 20
185.01045784078227
 10
19.735200527977458
 20
184.88101605566794
 10
20.01103818890043
 20
184.77811559543088
 10
20.295633624942987
 20
184.7027474477543
 10
20.586246026480353
 20
184.65563744910068
 10
20.880076637220817
 20
184.63723929451007
 10
21.174295707758816
 20
184.6477301682686
 10
21.466069747608543
 20
184.6870090375271
 10
21.75258881326633
 20
184.7546976253026
 10
22.031093569502662
 20
184.85014405349247
 10
22.298901863268778
 20
184.97242912081688
 10
22.553434554296807
 20
185.12037515522974
 10
22.792240353630426
 20
185.29255735554406
 10
23.013019430877534
 20
185.4873175130465
 10
23.213645562834106
 20
185.70277998095355
 10
23.392186610176015
 20
185.93686973791552
 10
23.546923125016885
 20
186.18733237160635
 10
23.67636491013122
 20
186.45175578994684
 10
23.779265370368286
 20
186.72759345086982
 10
23.854633518044885
 20
187.01218888691238
 10
23.901743516698478
 20
187.30280128844976
 10
23.920141671289095
 20
187.5966318991902
 10
23.909650797530542
 20
187.8908509697282
 10
23.870371928272043
 20
188.18262500957792
 10
23.802683340496557
 20
188.4691440752357
 10
23.707236912306698
 20
188.74764883147205
 10
23.584951844982278
 20
189.01545712523816
 10
23.43700581056944
 20
189.2699898162662
 10
23.264823610255107
 20
189.5087956155998
 10
23.07006345275267
 20
189.72957469284694
 10
22.854600984845614
 20
189.9302008248035
 10
22.620511227883654
 20
190.1087418721454
 10
22.370048594192802
 20
190.26347838698626
 10
22.10562517585231
 20
190.39292017210062
 10
21.82978751492934
 20
190.49582063233765
 10
21.54519207888678
 20
190.57118878001427
  0
LWPOLYLINE
  5
3C
330
17
100
AcDbEntity
  8
0
 62
0
100
AcDbPolyline
 90
100
 70
0
 10
47.09942553479553
 20
241.38933113784785
 10
9.9858030023436
 20
256.8906189075358
 10
9.926726882339103
 20
267.91179780865724
 10
9.755661140515372
 20
267.80801456110885
 10
9.224738378285295
 20
267.553415464198
 10
8.671417078861625
 20
267.3520818624175
 10
8.101026028833992
 20
267.20595270841255
 10
7.519058405821632
 20
267.1164353058186
 10
6.931118876170023
 20
267.0843917561578
 10
6.342869618950146
 20
267.1101306563301
 10
5.759975796078775
 20
267.1934041266567
 10
5.1880509937123485
 20
267.33341019809626
 10
4.632603160343552
 20
267.5288005356458
 10
4.098981562246397
 20
267.77769342354355
 10
3.592325267117797
 20
268.0776918872202
 10
3.1175136520463402
 20
268.4259067774749
 10
2.679119412443601
 20
268.81898459456073
 10
2.2813645244876355
 20
269.25313978422105
 10
1.9280795851843742
 20
269.724191194646
 10
1.6226669216245284
 20
270.2276023432503
 10
1.3680678247137
 20
270.7585251054803
 10
1.1667342229331688
 20
271.31184640490403
 10
1.02060506892823
 20
271.88223745493167
 10
0.9310876663342604
 20
272.46420507794403
 10
0.8990441166734531
 20
273.0521446075956
 10
0.9247830168458027
 20
273.6403938648155
 10
1.0080564871723592
 20
274.2232876876869
 10
1.1480625586119455
 20
274.7952124900533
 10
1.3434528961615104
 20
275.35066032342206
 10
1.5923457840592175
 20
275.88428192151923
 10
1.892344247735915
 20
276.39093821664784
 10
2.24055913799058
 20
276.8657498317193
 10
2.63363695507641
 20
277.30414407132207
 10
3.067792144736699
 20
277.701898959278
 10
3.5388435551616384
 20
278.0551838985813
 10
4.042254703765922
 20
278.3605965621411
 10
4.573177465995998
 20
278.61519565905195
 10
5.126498765419684
 20
278.81652926083245
 10
5.6968898154473155
 20
278.9626584148374
 10
6.278857438459676
 20
279.05217581743136
 10
6.866796968111285
 20
279.0842193670922
 10
7.455046225331163
 20
279.05848046691983
 10
8.037940048202532
 20
278.9752069965933
 10
8.60986485056896
 20
278.8352009251537
 10
9.165312683937756
 20
278.63981058760413
 10
9.69893428203491
 20
278.3909176997064
 10
9.871102767409408
 20
278.2889742686221
 10
9.866753870844885
 20
279.10029984410687
 10
64.68326566444804
 20
251.91373450786466
 10
95.32282549770056
 20
252.07796977977466
 10
95.43463841454266
 20
231.21826944943368
 10
64.79507858129016
 20
231.0540341775237
 10
10.272893118645765
 20
203.33138833739855
 10
10.268544222081244
 20
204.14271391288335
 10
10.097478480257513
 20
204.03893066533493
 10
9.566555718027438
 20
203.7843315684241
 10
9.013234418603766
 20
203.58299796664357
 10
8.442843368576133
 20
203.43686881263864
 10
7.8608757455637726
 20
203.34735141004467
 10
7.272936215912164
 20
203.31530786038385
 10
6.6846869586922875
 20
203.34104676055622
 10
6.101793135820917
 20
203.42432023088276
 10
5.529868333454489
 20
203.56432630232234
 10
4.974420500085694
 20
203.75971663987193
 10
4.440798901988538
 20
204.00860952776964
 10
3.934142606859938
 20
204.30860799144634
 10
3.459330991788482
 20
204.65682288170098
 10
3.020936752185743
 20
205.04990069878681
 10
2.6231818642297764
 20
205.4840558884471
 10
2.269896924926515
 20
205.95510729887204
 10
1.9644842613666693
 20
206.45851844747634
 10
1.7098851644558408
 20
206.98944120970643
 10
1.5085515626753097
 20
207.54276250913009
 10
1.362422408670371
 20
208.11315355915772
 10
1.2729050060764031
 20
208.69512118217008
 10
1.240861456415594
 20
209.2830607118217
 10
1.2666003565879436
 20
209.87130996904156
 10
1.3498738269145
 20
210.45420379191293
 10
1.4898798983540882
 20
211.02612859427938
 10
1.6852702359036513
 20
211.58157642764817
 10
1.9341631238013584
 20
212.11519802574531
 10
2.2341615874780576
 20
212.62185432087392
 10
2.5823764777327227
 20
213.09666593594537
 10
2.975454294818552
 20
213.5350601755481
 10
3.4096094844788407
 20
213.93281506350408
 10
3.8806608949037793
 20
214.28610000280733
 10
4.384072043508064
 20
214.59151266636718
 10
4.914994805738139
 20
214.84611176327803
 10
5.468316105161825
 20
215.04744536505856
 10
6.038707155189457
 20
215.19357451906347
 10
6.620674778201818
 20
215.28309192165744
 10
7.208614307853427
 20
215.31513547131826
 10
7.796863565073304
 20
215.28939657114591
 10
8.379757387944673
 20
215.20612310081935
 10
8.9516821903111
 20
215.06611702937977
 10
9.507130023679897
 20
214.8707266918302
 10
10.040751621777051
 20
214.6218338039325
 10
10.212920107151549
 20
214.51989037284815
 10
10.154487206227639
 20
225.42107099786028
 10
47.09942553479553
 20
241.38933113784785
  0
LWPOLYLINE
  5
3D
330
17
100
AcDbEntity
  8
0
 62
0
100
AcDbPolyline
 90
65
 70
0
 10
6.35454568352231
 20
212.1813335154548
 10
6.077885033810474
 20
212.08066671456453
 10
5.812423652695429
 20
211.95336716610913
 10
5.560718078393281
 20
211.8006608343292
 10
5.325192373180818
 20
211.62401836467757
 10
5.108114778350673
 20
211.4251409206996
 10
4.911575869807752
 20
211.2059438008982
 10
4.737468424680427
 20
210.9685379933625
 10
4.587469192842077
 20
210.7152098457982
 10
4.463022748893216
 20
210.4483990467496
 10
4.365327580118442
 20
210.1706751300652
 10
4.295324544398648
 20
209.884712728882
 10
4.25368780923537
 20
209.5932658174463
 10
4.240818359149195
 20
209.2991411888364
 10
4.2568401339795985
 20
209.00517142401057
 10
4.301598835276583
 20
208.7141876125044
 10
4.374663412279053
 20
208.42899208749057
 10
4.475330213169311
 20
208.15233143777874
 10
4.6026297616247325
 20
207.8868700566637
 10
4.755336093404655
 20
207.63516448236155
 10
4.931978563056294
 20
207.39963877714908
 10
5.130856007034269
 20
207.18256118231895
 10
5.350053126835639
 20
206.98602227377603
 10
5.5874589343713605
 20
206.8119148286487
 10
5.84078708193566
 20
206.66191559681033
 10
6.107597880984244
 20
206.5374691528615
 10
6.3853217976686425
 20
206.4397739840867
 10
6.671284198851856
 20
206.36977094836692
 10
6.962731110287541
 20
206.32813421320364
 10
7.25685573889748
 20
206.31526476311745
 10
7.550825503723284
 20
206.33128653794788
 10
7.841809315229465
 20
206.37604523924486
 10
8.12700484024328
 20
206.44910981624733
 10
8.403665489955117
 20
206.54977661713758
 10
8.669126871070162
 20
206.677076165593
 10
8.92083244537231
 20
206.82978249737292
 10
9.156358150584772
 20
207.00642496702454
 10
9.373435745414918
 20
207.20530241100255
 10
9.56997465395784
 20
207.4244995308039
 10
9.744082099085164
 20
207.66190533833964
 10
9.894081330923514
 20
207.91523348590394
 10
10.018527774872375
 20
208.1820442849525
 10
10.116222943647148
 20
208.4597682016369
 10
10.186225979366943
 20
208.74573060282012
 10
10.22786271453022
 20
209.0371775142558
 10
10.240732164616396
 20
209.33130214286575
 10
10.224710389785992
 20
209.62527190769157
 10
10.179951688489007
 20
209.91625571919772
 10
10.106887111486538
 20
210.20145124421154
 10
10.00622031059628
 20
210.4781118939234
 10
9.878920762140858
 20
210.74357327503841
 10
9.726214430360935
 20
210.99527884934056
 10
9.549571960709311
 20
211.23080455455303
 10
9.350694516731322
 20
211.4478821493832
 10
9.131497396929952
 20
211.6444210579261
 10
8.89409158939423
 20
211.81852850305341
 10
8.64076344182993
 20
211.96852773489178
 10
8.373952642781347
 20
212.09297417884065
 10
8.096228726096948
 20
212.19066934761543
 10
7.8102663249137345
 20
212.26067238333522
 10
7.518819413478049
 20
212.3023091184985
 10
7.224694784868111
 20
212.31517856858466
 10
6.930725020042306
 20
212.29915679375426
 10
6.639741208536126
 20
212.25439809245728
 10
6.35454568352231
 20
212.1813335154548
  0
LWPOLYLINE
  5
3E
330
17
100
AcDbEntity
  8
0
 62
0
100
AcDbPolyline
 90
65
 70
0
 10
6.297923868793985
 20
276.0234819882312
 10
6.012728343780168
 20
275.9504174112287
 10
5.736067694068332
 20
275.84975061033845
 10
5.470606312953288
 20
275.722451061883
 10
5.218900738651139
 20
275.56974473010314
 10
4.983375033438676
 20
275.3931022604515
 10
4.766297438608532
 20
275.1942248164735
 10
4.56975853006561
 20
274.97502769667216
 10
4.395651084938285
 20
274.73762188913645
 10
4.245651853099936
 20
274.4842937415721
 10
4.121205409151075
 20
274.21748294252353
 10
4.0235102403763
 20
273.9397590258391
 10
3.953507204656507
 20
273.6537966246559
 10
3.911870469493228
 20
273.3623497132202
 10
3.899001019407053
 20
273.0682250846103
 10
3.9150227942374576
 20
272.7742553197845
 10
3.9597814955344424
 20
272.48327150827834
 10
4.032846072536911
 20
272.1980759832645
 10
4.133512873427169
 20
271.92141533355266
 10
4.260812421882591
 20
271.6559539524376
 10
4.413518753662514
 20
271.40424837813543
 10
4.590161223314152
 20
271.168722672923
 10
4.789038667292128
 20
270.95164507809284
 10
5.008235787093497
 20
270.75510616954995
 10
5.245641594629219
 20
270.5809987244226
 10
5.498969742193518
 20
270.43099949258425
 10
5.765780541242103
 20
270.3065530486354
 10
6.043504457926501
 20
270.2088578798606
 10
6.329466859109715
 20
270.13885484414084
 10
6.6209137705454
 20
270.0972181089776
 10
6.915038399155338
 20
270.0843486588914
 10
7.209008163981142
 20
270.10037043372176
 10
7.4999919754873225
 20
270.1451291350188
 10
7.78518750050114
 20
270.2181937120213
 10
8.061848150212974
 20
270.3188605129115
 10
8.32730953132802
 20
270.4461600613669
 10
8.57901510563017
 20
270.59886639314686
 10
8.814540810842631
 20
270.77550886279846
 10
9.031618405672775
 20
270.97438630677647
 10
9.228157314215697
 20
271.19358342657785
 10
9.402264759343023
 20
271.43098923411355
 10
9.552263991181372
 20
271.68431738167783
 10
9.676710435130234
 20
271.9511281807264
 10
9.774405603905008
 20
272.2288520974108
 10
9.8444086396248
 20
272.51481449859403
 10
9.886045374788079
 20
272.8062614100297
 10
9.898914824874256
 20
273.10038603863967
 10
9.88289305004385
 20
273.3943558034655
 10
9.838134348746866
 20
273.68533961497167
 10
9.765069771744397
 20
273.9705351399855
 10
9.66440297085414
 20
274.2471957896973
 10
9.537103422398717
 20
274.51265717081236
 10
9.384397090618794
 20
274.7643627451145
 10
9.20775462096717
 20
274.999888450327
 10
9.00887717698918
 20
275.2169660451571
 10
8.78968005718781
 20
275.4135049537
 10
8.55227424965209
 20
275.58761239882733
 10
8.29894610208779
 20
275.7376116306657
 10
8.032135303039205
 20
275.86205807461454
 10
7.754411386354807
 20
275.95975324338934
 10
7.468448985171593
 20
276.02975627910917
 10
7.177002073735908
 20
276.0713930142724
 10
6.8828774451259696
 20
276.0842624643586
 10
6.588907680300165
 20
276.0682406895282
 10
6.297923868793985
 20
276.0234819882312
  0
LWPOLYLINE
  5
3F
330
17
100
AcDbEntity
  8
0
 62
0
100
AcDbPolyline
 90
87
 70
0
 10
106.99128198382931
 20
42.82406249850888
 10
108.49878198383118
 20
49.086562498508414
 10
110.76003198383277
 20
54.362812498507736
 10
112.20471948383343
 20
56.589999998507324
 10
113.77253198383404
 20
58.64562499850685
 10
117.473781983835
 20
61.8631249985057
 10
121.85378198383563
 20
64.0081249985044
 10
126.91253198383596
 20
65.0806249985029
 10
129.724719483836
 20
65.16999999850205
 10
131.36190698383598
 20
65.13843749850156
 10
134.4331569838359
 20
64.75921874850066
 10
137.26065698383564
 20
63.9998437484998
 10
139.8444069838353
 20
62.859374998499035
 10
141.0347194838351
 20
62.129999998498675
 10
142.18253198383485
 20
61.33562499849832
 10
144.2192507338343
 20
59.45171874849771
 10
145.9461257338336
 20
57.211093748497206
 10
147.36409448383284
 20
54.61093749849678
 10
147.9447194838324
 20
53.1599999984966
 10
148.4184694838329
 20
54.796562498496456
 10
149.67987573383377
 20
57.74734374849608
 10
151.32050073383454
 20
60.31046874849558
 10
153.34315698383517
 20
62.48499999849497
 10
154.51471948383548
 20
63.40999999849463
 10
155.73690698383572
 20
64.26874999849426
 10
158.40268823383613
 20
65.61171874849346
 10
161.3333132338364
 20
66.50609374849259
 10
164.52784448383653
 20
66.95281249849162
 10
166.23471948383656
 20
66.9899999984911
 10
169.30440698383651
 20
66.90718749849019
 10
174.7915944838362
 20
65.91390624848856
 10
179.49784448383565
 20
63.92828124848715
 10
183.42503198383474
 20
60.95124999848596
 10
185.06471948383415
 20
59.04999999848546
 10
186.57534448383353
 20
56.98624999848501
 10
188.95284448383205
 20
52.05968749848431
 10
190.5578444838303
 20
46.17593749848383
 10
191.39034448382824
 20
39.33687499848358
 10
191.48471948382712
 20
35.519999998483556
 10
191.48471948381675
 20
0.8999999984835512
 10
106.17471948381674
 20
0.8999999985091165
 10
106.17471948382426
 20
26.02122340759399
 10
106.00309990478021
 20
25.91835859054685
 10
105.4708200780147
 20
25.666608981569414
 10
104.91642754735088
 20
25.46824416224405
 10
104.34526141592083
 20
25.325174494218093
 10
103.7628223258014
 20
25.238777816604465
 10
103.17471948382402
 20
25.20988617663782
 10
102.58661664184667
 20
25.23877781660482
 10
102.0041775517273
 20
25.32517449421879
 10
101.43301142029733
 20
25.468244162245096
 10
100.87861888963363
 20
25.666608981570793
 10
100.34633906286825
 20
25.91835859054854
 10
99.84129808570671
 20
26.221068502823552
 10
99.36835977884256
 20
26.571823456462543
 10
98.93207879670526
 20
26.967245489519808
 10
98.53665676364827
 20
27.40352647165734
 10
98.18590181000954
 20
27.876464778521704
 10
97.88319189773485
 20
28.381505755683424
 10
97.63144228875741
 20
28.91378558244895
 10
97.43307746943205
 20
29.468178113112767
 10
97.29000780140609
 20
30.039344244542814
 10
97.20361112379246
 20
30.62178333466225
 10
97.17471948382583
 20
31.209886176639618
 10
97.20361112379281
 20
31.79798901861697
 10
97.29000780140679
 20
32.38042810873635
 10
97.4330774694331
 20
32.951594240166315
 10
97.63144228875879
 20
33.50598677083002
 10
97.88319189773654
 20
34.038266597595396
 10
98.18590181001154
 20
34.54330757475692
 10
98.53665676365054
 20
35.01624588162109
 10
98.9320787967078
 20
35.45252686375838
 10
99.36835977884533
 20
35.84794889681538
 10
99.84129808570971
 20
36.198703850454095
 10
100.34633906287141
 20
36.5014137627288
 10
100.87861888963694
 20
36.753163371706236
 10
101.43301142030077
 20
36.9515281910316
 10
102.00417755173082
 20
37.09459785905756
 10
102.58661664185026
 20
37.18099453667118
 10
103.17471948382762
 20
37.20988617663782
 10
103.76282232580498
 20
37.18099453667082
 10
104.34526141592436
 20
37.09459785905686
 10
104.91642754735432
 20
36.95152819103056
 10
105.47082007801802
 20
36.75316337170486
 10
106.00309990478338
 20
36.50141376272711
 10
106.31442759880247
 20
36.314811124115565
 10
106.99128198382931
 20
42.82406249850888
  0
LWPOLYLINE
  5
40
330
17
100
AcDbEntity
  8
0
 62
0
100
AcDbPolyline
 90
22
 70
0
 10
141.73471948382613
 20
32.179999998498474
 10
141.60721948382707
 20
35.392499998498494
 10
140.7578444838282
 20
39.116718748498755
 10
139.85034448382876
 20
41.033437498499026
 10
139.274719483829
 20
41.7899999984992
 10
138.65096948382921
 20
42.47968749849939
 10
137.1655007338295
 20
43.55687499849982
 10
135.39362573382974
 20
44.273124998500364
 10
133.33440698382984
 20
44.63031249850097
 10
132.18471948382987
 20
44.65999999850132
 10
130.86971948382984
 20
44.62781249850171
 10
128.5526882338297
 20
44.24109374850241
 10
126.61206323382949
 20
43.466718748502984
 10
125.04878198382916
 20
42.30374999850345
 10
124.42471948382892
 20
41.55999999850364
 10
123.85690698382868
 20
40.74406249850381
 10
122.96815698382808
 20
38.715312498504076
 10
122.15346948382692
 20
34.838749998504326
 10
122.05471948382593
 20
31.539999998504367
 10
122.05471948382291
 20
21.45999999850436
 10
141.73471948382291
 20
21.459999998498464
 10
141.73471948382613
 20
32.179999998498474
  0
LWPOLYLINE
  5
41
330
17
100
AcDbEntity
  8
0
 62
0
100
AcDbPolyline
 90
21
 70
0
 10
175.66471948382292
 20
21.459999998488296
 10
175.66471948382696
 20
34.93999999848829
 10
175.55846948382776
 20
37.614999998488315
 10
174.68190698382872
 20
40.90187499848858
 10
173.72565698382928
 20
42.716874998488876
 10
173.1147194838295
 20
43.489999998489054
 10
172.45565698382973
 20
44.208437498489246
 10
170.92143823383006
 20
45.33062499848971
 10
169.12706323383026
 20
46.07687499849024
 10
167.07159448383038
 20
46.44906249849086
 10
165.9347194838304
 20
46.47999999849121
 10
163.37909448383036
 20
46.36968749849197
 10
160.2920827650801
 20
45.45931640474289
 10
158.6209304213298
 20
44.4659765609934
 10
157.2812429213294
 20
43.1412890609938
 10
156.27290307757892
 20
41.48513671724412
 10
155.5957937025783
 20
39.4974023422443
 10
155.2497976088276
 20
37.17796874849441
 10
155.21471948382722
 20
35.87999999849441
 10
155.2147194838229
 20
21.45999999849442
 10
175.66471948382292
 20
21.459999998488296
  0
LWPOLYLINE
  5
42
330
17
100
AcDbEntity
  8
0
 62
0
100
AcDbPolyline
 90
65
 70
0
 10
102.58944851777832
 20
34.1522420178477
 10
102.30386545206329
 20
34.08070718383472
 10
102.02666918673138
 20
33.98152477417203
 10
101.76052927334862
 20
33.85564996968331
 10
101.50800878476775
 20
33.70429501354596
 10
101.27153963133559
 20
33.528917536726595
 10
101.0533991402668
 20
33.33120652019811
 10
100.85568812373818
 20
33.113066029129456
 10
100.68031064691868
 20
32.87659687569737
 10
100.52895569078117
 20
32.62407638711662
 10
100.4030808862923
 20
32.35793647373393
 10
100.30389847662946
 20
32.08074020840206
 10
100.2323636426163
 20
31.795157142687085
 10
100.18916530380932
 20
31.503937597627395
 10
100.17471948382583
 20
31.209886176638722
 10
100.18916530380915
 20
30.915834755650035
 10
100.23236364261595
 20
30.624615210590317
 10
100.30389847662893
 20
30.339032144875294
 10
100.4030808862916
 20
30.061835879543384
 10
100.52895569078034
 20
29.795695966160626
 10
100.68031064691769
 20
29.543175477579762
 10
100.85568812373705
 20
29.30670632414758
 10
101.05339914026554
 20
29.08856583307882
 10
101.27153963133419
 20
28.890854816550185
 10
101.50800878476626
 20
28.715477339730686
 10
101.76052927334703
 20
28.564122383593183
 10
102.02666918672972
 20
28.438247579104303
 10
102.30386545206157
 20
28.339065169441458
 10
102.58944851777656
 20
28.267530335428308
 10
102.88066806283625
 20
28.22433199662132
 10
103.17471948382493
 20
28.20988617663782
 10
103.46877090481361
 20
28.22433199662115
 10
103.75999044987333
 20
28.267530335427953
 10
104.04557351558834
 20
28.339065169440932
 10
104.32276978092025
 20
28.43824757910362
 10
104.58890969430303
 20
28.56412238359233
 10
104.84143018288388
 20
28.71547733972969
 10
105.07789933631607
 20
28.890854816549048
 10
105.29603982738483
 20
29.08856583307755
 10
105.49375084391347
 20
29.306706324146187
 10
105.66912832073297
 20
29.54317547757827
 10
105.82048327687046
 20
29.795695966159034
 10
105.94635808135934
 20
30.06183587954172
 10
106.04554049102218
 20
30.339032144873574
 10
106.11707532503533
 20
30.624615210588555
 10
106.16027366384233
 20
30.915834755648245
 10
106.17471948382583
 20
31.209886176636925
 10
106.1602736638425
 20
31.50393759762561
 10
106.11707532503569
 20
31.795157142685323
 10
106.0455404910227
 20
32.08074020840034
 10
105.94635808136003
 20
32.357936473732266
 10
105.82048327687131
 20
32.624076387115025
 10
105.66912832073396
 20
32.87659687569588
 10
105.49375084391461
 20
33.11306602912806
 10
105.2960398273861
 20
33.33120652019683
 10
105.07789933631746
 20
33.52891753672547
 10
104.84143018288538
 20
33.704295013544964
 10
104.58890969430462
 20
33.85564996968246
 10
104.32276978092192
 20
33.98152477417135
 10
104.04557351559006
 20
34.08070718383419
 10
103.75999044987509
 20
34.15224201784734
 10
103.4687709048154
 20
34.19544035665433
 10
103.17471948382672
 20
34.20988617663782
 10
102.88066806283804
 20
34.1954403566545
 10
102.58944851777832
 20
34.1522420178477
  0
LWPOLYLINE
  5
43
330
17
100
AcDbEntity
  8
0
 62
0
100
AcDbPolyline
 90
50
 70
0
 10
73.91941284443425
 20
94.72261965572397
 10
159.2282365948893
 20
94.27463493076608
 10
159.12053331615425
 20
73.76491772150769
 10
73.8117095656992
 20
74.21290244646559
 10
73.83831420397085
 20
79.27916982304612
 10
73.6661568216292
 20
79.17720764278957
 10
73.13256233204072
 20
78.92825664302728
 10
72.57713578068696
 20
78.73280581633914
 10
72.00522622888445
 20
78.59273746103047
 10
71.42234147825462
 20
78.50940051193201
 10
70.83409502758329
 20
78.48359754942022
 10
70.2461520117586
 20
78.51557707012941
 10
69.66417464342528
 20
78.60503109379337
 10
69.09376768278162
 20
78.75109812926368
 10
68.54042446067476
 20
78.95237147114037
 10
68.00947397482176
 20
79.20691274711399
 10
67.50602956864843
 20
79.51227058555048
 10
67.03493968699694
 20
79.86550422354014
 10
66.60074118295151
 20
80.263211828052
 10
66.20761562546318
 20
80.70156325744547
 10
65.85934902855479
 20
81.17633694782825
 10
65.55929538993652
 20
81.68296056902426
 10
65.31034439017424
 20
82.21655505861273
 10
65.1148935634861
 20
82.7719816099665
 10
64.97482520817744
 20
83.34389116176902
 10
64.89148825907898
 20
83.92677591239882
 10
64.8656852965672
 20
84.51502236307019
 10
64.89766481727638
 20
85.10296537889487
 10
64.98711884094034
 20
85.68494274722818
 10
65.13318587641064
 20
86.25534970787183
 10
65.33445921828734
 20
86.8086929299787
 10
65.58900049426094
 20
87.33964341583172
 10
65.89435833269744
 20
87.84308782200503
 10
66.24759197068713
 20
88.31417770365653
 10
66.64529957519895
 20
88.74837620770194
 10
67.08365100459243
 20
89.14150176519028
 10
67.55842469497523
 20
89.48976836209866
 10
68.06504831617121
 20
89.78982200071694
 10
68.59864280575968
 20
90.03877300047922
 10
69.15406935711346
 20
90.23422382716737
 10
69.72597890891598
 20
90.37429218247604
 10
70.3088636595458
 20
90.45762913157449
 10
70.89711011021714
 20
90.48343209408628
 10
71.48505312604183
 20
90.45145257337708
 10
72.06703049437513
 20
90.36199854971312
 10
72.6374374550188
 20
90.21593151424283
 10
73.19078067712566
 20
90.01465817236613
 10
73.72173116297867
 20
89.76011689639252
 10
73.8928082061626
 20
89.65635227914346
 10
73.91941284443425
 20
94.72261965572397
  0
LWPOLYLINE
  5
44
330
17
100
AcDbEntity
  8
0
 62
0
100
AcDbPolyline
 90
65
 70
0
 10
70.2957907389081
 20
87.42890350211465
 10
70.00983596300684
 20
87.35886932446031
 10
69.73212268732995
 20
87.26114391111625
 10
69.46532544253571
 20
87.13666841123509
 10
69.21201363193771
 20
86.98664159192596
 10
68.97462678674631
 20
86.81250829347178
 10
68.75545107204958
 20
86.6159455147276
 10
68.55659726979366
 20
86.3988462627049
 10
68.37998045079883
 20
86.16330132187915
 10
68.22730153158058
 20
85.91157911879247
 10
68.10003089359377
 20
85.64610387586598
 10
67.99939422265543
 20
85.36943226481254
 10
67.92636070492028
 20
85.08422878449072
 10
67.8816336930883
 20
84.79324010032406
 10
67.86564393273369
 20
84.49926859241171
 10
67.8785454139896
 20
84.20514536707606
 10
67.92021388853883
 20
83.91370299176114
 10
67.99024806619316
 20
83.62774821585988
 10
68.08797347953723
 20
83.350034940183
 10
68.21244897941837
 20
83.08323769538876
 10
68.3624757987275
 20
82.82992588479075
 10
68.5366090971817
 20
82.59253903959936
 10
68.73317187592586
 20
82.37336332490263
 10
68.95027112794858
 20
82.1745095226467
 10
69.18581606877432
 20
81.99789270365187
 10
69.43753827186097
 20
81.84521378443362
 10
69.70301351478749
 20
81.71794314644681
 10
69.97968512584092
 20
81.61730647550846
 10
70.26488860616274
 20
81.5442729577733
 10
70.5558772903294
 20
81.49954594594134
 10
70.84984879824175
 20
81.48355618558674
 10
71.14397202357742
 20
81.49645766684264
 10
71.43541439889233
 20
81.53812614139186
 10
71.72136917479358
 20
81.60816031904619
 10
71.99908245047047
 20
81.70588573239027
 10
72.26587969526472
 20
81.83036123227141
 10
72.51919150586272
 20
81.98038805158055
 10
72.7565783510541
 20
82.15452135003474
 10
72.97575406575085
 20
82.35108412877891
 10
73.17460786800677
 20
82.56818338080161
 10
73.3512246870016
 20
82.80372832162736
 10
73.50390360621984
 20
83.05545052471402
 10
73.63117424420666
 20
83.32092576764052
 10
73.73181091514499
 20
83.59759737869396
 10
73.80484443288015
 20
83.88280085901579
 10
73.84957144471213
 20
84.17378954318244
 10
73.86556120506673
 20
84.46776105109478
 10
73.85265972381083
 20
84.76188427643046
 10
73.8109912492616
 20
85.05332665174538
 10
73.74095707160727
 20
85.33928142764663
 10
73.6432316582632
 20
85.61699470332351
 10
73.51875615838205
 20
85.88379194811775
 10
73.36872933907291
 20
86.13710375871577
 10
73.19459604061873
 20
86.37449060390713
 10
72.99803326187455
 20
86.59366631860388
 10
72.78093400985185
 20
86.7925201208598
 10
72.54538906902611
 20
86.96913693985464
 10
72.29366686593946
 20
87.12181585907288
 10
72.02819162301293
 20
87.2490864970597
 10
71.75152001195951
 20
87.34972316799805
 10
71.46631653163767
 20
87.42275668573319
 10
71.17532784747102
 20
87.46748369756517
 10
70.88135633955868
 20
87.48347345791976
 10
70.58723311422301
 20
87.47057197666388
 10
70.2957907389081
 20
87.42890350211465
  0
LWPOLYLINE
  5
45
330
17
100
AcDbEntity
  8
0
 62
0
100
AcDbPolyline
 90
74
 70
0
 10
149.61267946470653
 20
121.98128350850467
 10
147.16299347906852
 20
128.3390123493074
 10
145.84748643373067
 20
134.36387844957608
 10
145.66781136142887
 20
140.05676674307873
 10
146.05185703465236
 20
142.76521865384058
 10
146.6207343047139
 20
145.39326038841
 10
148.69085927463553
 20
150.13826154263887
 10
151.87908489558433
 20
154.26956569878018
 10
156.18458465119235
 20
157.78673038994995
 10
158.8025554747997
 20
159.2892553667151
 10
160.75595548395282
 20
160.29245215442205
 10
164.55872669076516
 20
161.81780044207278
 10
168.23666332378482
 20
162.76589438440766
 10
171.78976538301174
 20
163.13673398142674
 10
173.51430200687827
 20
163.08163113605468
 10
175.2311374046112
 20
162.93166321532667
 10
178.6595906118842
 20
162.14686569959673
 10
182.0832704427881
 20
160.78103061512942
 10
185.50382993005883
 20
158.83504289569277
 10
187.2134294177897
 20
157.62065062156694
 10
209.12656295356385
 20
189.55312278773863
 10
209.90238631763398
 20
189.9684517028925
 10
220.29976813677038
 20
170.54641907736405
 10
200.85323829179885
 20
143.0536840917605
 10
206.10620513914284
 20
133.2412817711916
 10
232.6605230093615
 20
147.4568578216859
 10
242.36411675432038
 20
129.3308028611382
 10
167.15333131247598
 20
89.06749632502716
 10
155.26473885281098
 20
111.27507075479872
 10
155.16198459567173
 20
111.10338495708335
 10
154.8115343299436
 20
110.63022083032298
 10
154.41639338342117
 20
110.19368525103629
 10
153.98036717942546
 20
109.7979822954864
 10
153.5076548886571
 20
109.44692279944853
 10
153.00280898888704
 20
109.14388765777815
 10
152.4706914221069
 20
108.89179526454541
 10
151.91642677136983
 20
108.69307340730487
 10
151.3453529082543
 20
108.54963588617414
 10
150.76296958624283
 20
108.46286408289266
 10
150.17488547508952
 20
108.43359365736033
 10
149.58676414626427
 20
108.46210649977584
 10
149.00426952966342
 20
108.54812801588005
 10
148.4330113668688
 20
108.69082977144873
 10
147.87849118626968
 20
108.88883747056704
 10
147.34604932033673
 20
109.14024419085044
 10
146.84081347530122
 20
109.44262874814972
 10
146.36764934854085
 20
109.79307901387784
 10
145.93111376925415
 20
110.18821996040029
 10
145.5354108137043
 20
110.62424616439601
 10
145.1843513176664
 20
111.09695845516435
 10
144.88131617599603
 20
111.60180435493442
 10
144.6292237827633
 20
112.13392192171455
 10
144.43050192552272
 20
112.68818657245161
 10
144.28706440439203
 20
113.25926043556714
 10
144.20029260111053
 20
113.84164375757862
 10
144.1710221755782
 20
114.42972786873193
 10
144.19953501799372
 20
115.0178491975572
 10
144.28555653409794
 20
115.60034381415804
 10
144.42825828966662
 20
116.17160197695262
 10
144.62626598878492
 20
116.72612215755176
 10
144.87767270906832
 20
117.25856402348472
 10
145.18005726636758
 20
117.76379986852022
 10
145.53050753209573
 20
118.23696399528059
 10
145.92564847861817
 20
118.6734995745673
 10
146.36167468261388
 20
119.06920253011718
 10
146.83438697338224
 20
119.42026202615504
 10
147.3392328731523
 20
119.72329716782542
 10
147.87135043993243
 20
119.97538956105817
 10
148.42561509066948
 20
120.17411141829874
 10
148.99668895378502
 20
120.31754893942946
 10
149.57907227579648
 20
120.40432074271092
 10
150.16715638694978
 20
120.43359116824325
 10
150.4102091260063
 20
120.42180767373674
 10
149.61267946470653
 20
121.98128350850467
  0
LWPOLYLINE
  5
46
330
17
100
AcDbEntity
  8
0
 62
0
100
AcDbPolyline
 90
24
 70
0
 10
192.10611988751361
 20
125.74648271136928
 10
185.96585944870452
 20
137.21632585517887
 10
185.2600461148028
 20
138.46722955139924
 10
183.71005491621156
 20
140.55113667751266
 10
181.99328241594384
 20
142.13316526383767
 10
180.10890209763164
 20
143.21287284349023
 10
179.0965654039857
 20
143.54326028878813
 10
178.06229605390016
 20
143.79278620127997
 10
175.91494509175484
 20
143.90174212907527
 10
173.67267377070493
 20
143.5414408953178
 10
171.33509804126652
 20
142.7106135167556
 10
170.12645598782896
 20
142.09867139841967
 10
168.9496437868034
 20
141.4332310949937
 10
166.96093642289028
 20
139.94377456979925
 10
165.40973128454712
 20
138.26477080732496
 10
164.29558590488983
 20
136.39704632393887
 10
163.92045552276548
 20
135.38486039217054
 10
163.62448351408347
 20
134.34663987628386
 10
163.4600465909922
 20
132.16586589185178
 10
163.80787431629713
 20
129.85949414403353
 10
164.66714017363023
 20
127.42708216594508
 10
165.3095623803372
 20
126.15819348920675
 10
171.4498228191463
 20
114.68835034539717
 10
192.10611988751361
 20
125.74648271136928
  0
LWPOLYLINE
  5
47
330
17
100
AcDbEntity
  8
0
 62
0
100
AcDbPolyline
 90
65
 70
0
 10
148.26634780681678
 20
116.75139747145948
 10
148.0483347048189
 20
116.55354599368454
 10
147.8507642315577
 20
116.3352782040412
 10
147.67553909869363
 20
116.098696140661
 10
147.524346820044
 20
115.84607821814325
 10
147.3986434599023
 20
115.57985728517679
 10
147.29963961034315
 20
115.3025971948772
 10
147.22828873255878
 20
115.01696811347992
 10
147.1852779745067
 20
114.72572080517949
 10
147.17102155329894
 20
114.43166014076687
 10
147.1856567660651
 20
114.1376180851902
 10
147.22904266770584
 20
113.84642642418447
 10
147.3007614282712
 20
113.5608894926267
 10
147.40012235689147
 20
113.28375716725817
 10
147.52616855350783
 20
113.0176983838681
 10
147.67768612434304
 20
112.76527543398308
 10
147.85321587236197
 20
112.5289192885989
 10
148.05106735013692
 20
112.31090618660104
 10
148.26933513978025
 20
112.11333571333982
 10
148.50591720316044
 20
111.93811058047575
 10
148.7585351256782
 20
111.78691830182612
 10
149.0247560586447
 20
111.66121494168442
 10
149.30201614894423
 20
111.56221109212527
 10
149.58764523034154
 20
111.49086021434093
 10
149.87889253864196
 20
111.44784945628882
 10
150.1729532030546
 20
111.43359303508106
 10
150.46699525863124
 20
111.44822824784723
 10
150.75818691963698
 20
111.49161414948797
 10
151.04372385119476
 20
111.56333291005333
 10
151.3208561765633
 20
111.6626938386736
 10
151.58691495995336
 20
111.78874003528998
 10
151.83933790983838
 20
111.94025760612516
 10
152.07569405522256
 20
112.11578735414409
 10
152.2937071572204
 20
112.31363883191904
 10
152.49127763048165
 20
112.5319066215624
 10
152.6665027633457
 20
112.76848868494258
 10
152.81769504199534
 20
113.02110660746033
 10
152.94339840213703
 20
113.28732754042682
 10
153.0424022516962
 20
113.56458763072638
 10
153.11375312948053
 20
113.85021671212367
 10
153.15676388753263
 20
114.14146402042408
 10
153.1710203087404
 20
114.43552468483672
 10
153.15638509597423
 20
114.72956674041339
 10
153.1129991943335
 20
115.02075840141912
 10
153.04128043376812
 20
115.30629533297687
 10
152.94191950514787
 20
115.58342765834541
 10
152.81587330853148
 20
115.84948644173548
 10
152.6643557376963
 20
116.10190939162051
 10
152.48882598967737
 20
116.33826553700467
 10
152.29097451190242
 20
116.55627863900254
 10
152.07270672225908
 20
116.75384911226377
 10
151.83612465887887
 20
116.92907424512784
 10
151.58350673636113
 20
117.08026652377747
 10
151.31728580339467
 20
117.20596988391917
 10
151.04002571309508
 20
117.30497373347832
 10
150.75439663169777
 20
117.37632461126265
 10
150.46314932339737
 20
117.41933536931477
 10
150.16908865898472
 20
117.43359179052253
 10
149.87504660340807
 20
117.41895657775635
 10
149.58385494240235
 20
117.37557067611561
 10
149.29831801084458
 20
117.30385191555025
 10
149.02118568547604
 20
117.20449098692998
 10
148.75512690208598
 20
117.07844479031361
 10
148.50270395220093
 20
116.92692721947843
 10
148.26634780681678
 20
116.75139747145948
  0
LWPOLYLINE
  5
48
330
17
100
AcDbEntity
  8
0
 62
0
100
AcDbPolyline
 90
54
 70
0
 10
91.25403593112259
 20
200.40520463700943
 10
106.1527985770816
 20
205.90077299882392
 10
115.01561380038572
 20
181.87323449989384
 10
180.15548096089793
 20
205.90077299868358
 10
187.27065007417917
 20
186.61119113464596
 10
122.13078291366698
 20
162.58365263585623
 10
130.83094592475115
 20
138.99707247720323
 10
115.93218327879214
 20
133.50150411538874
 10
105.43409282318355
 20
161.9623561394872
 10
105.30867602598784
 20
161.80645528163657
 10
104.89640879588619
 20
161.386056172948
 10
104.44492042675083
 20
161.0080906558207
 10
103.95855899838519
 20
160.67619874480152
 10
103.4420084372166
 20
160.39357674042424
 10
102.90024340752441
 20
160.16294644708782
 10
102.33848140270342
 20
159.9865289605925
 10
101.76213249795042
 20
159.8660232777728
 10
101.17674724828254
 20
159.8025899342294
 10
100.5879632336582
 20
159.7968398277368
 10
100.00145076600033
 20
159.84882833496386
 10
99.42285828099281
 20
159.95805477816617
 10
98.85775794055705
 20
160.12346724698648
 10
98.31159196988673
 20
160.34347272892634
 10
97.78962024584415
 20
160.61595245092747
 10
97.29686964147052
 20
160.93828228431443
 10
96.83808561445092
 20
161.3073580165883
 10
96.41768650576236
 20
161.71962524668996
 10
96.03972098863504
 20
162.1711136158253
 10
95.70782907761588
 20
162.65747504419096
 10
95.42520707323857
 20
163.17402560535953
 10
95.19457677990218
 20
163.71579063505175
 10
95.01815929340684
 20
164.27755263987274
 10
94.89765361058714
 20
164.85390154462573
 10
94.83422026704375
 20
165.43928679429362
 10
94.82847016055115
 20
166.02807080891796
 10
94.88045866777821
 20
166.61458327657581
 10
94.98968511098053
 20
167.19317576158335
 10
95.15509757980082
 20
167.7582761020191
 10
95.37510306174069
 20
168.3044420726894
 10
95.64758278374183
 20
168.826413796732
 10
95.96991261712878
 20
169.3191644011056
 10
96.33898834940264
 20
169.77794842812523
 10
96.75125557950429
 20
170.1983475368138
 10
97.20274394863966
 20
170.5763130539411
 10
97.68910537700532
 20
170.90820496496025
 10
98.20565593817389
 20
171.1908269693376
 10
98.74742096786609
 20
171.42145726267398
 10
99.30918297268707
 20
171.5978747491693
 10
99.88553187744007
 20
171.718380431989
 10
100.47091712710795
 20
171.7818137755324
 10
101.05970114173229
 20
171.787563882025
 10
101.64621360939016
 20
171.73557537479795
 10
101.84282696000002
 20
171.69845879010376
 10
91.25403593112259
 20
200.40520463700943
  0
LWPOLYLINE
  5
49
330
17
100
AcDbEntity
  8
0
 62
0
100
AcDbPolyline
 90
65
 70
0
 10
99.25646878235028
 20
168.35020340992057
 10
99.01328806816745
 20
168.184257454411
 10
98.78754388359977
 20
167.99527469584734
 10
98.58141026854895
 20
167.78507514150306
 10
98.39687240241201
 20
167.55568312799326
 10
98.23570748571854
 20
167.30930782580646
 10
98.09946762471796
 20
167.04832196378516
 10
97.98946488374803
 20
166.77523897845
 10
97.90675864933789
 20
166.49268880823212
 10
97.85214542773673
 20
166.20339256572834
 10
97.8261511741232
 20
165.91013633189942
 10
97.8290262273695
 20
165.61574432458724
 10
97.8607428991412
 20
165.3230516997533
 10
97.92099574055104
 20
165.0348772473768
 10
98.00920448379871
 20
164.75399624496632
 10
98.1245196304669
 20
164.48311373012024
 10
98.26583063265556
 20
164.22483844953592
 10
98.43177658816515
 20
163.9816577353531
 10
98.62075934672879
 20
163.7559135507854
 10
98.83095890107309
 20
163.5497799357346
 10
99.06035091458288
 20
163.36524206959768
 10
99.3067262167697
 20
163.20407715290418
 10
99.567712078791
 20
163.06783729190363
 10
99.84079506412616
 20
162.95783455093368
 10
100.12334523434401
 20
162.87512831652353
 10
100.41264147684778
 20
162.82051509492237
 10
100.70589771067672
 20
162.79452084130884
 10
101.00028971798889
 20
162.79739589455514
 10
101.29298234282282
 20
162.82911256632684
 10
101.58115679519933
 20
162.8893654077367
 10
101.86203779760983
 20
162.97757415098437
 10
102.13292031245592
 20
163.09288929765256
 10
102.39119559304021
 20
163.23420029984123
 10
102.63437630722304
 20
163.4001462553508
 10
102.86012049179072
 20
163.58912901391446
 10
103.06625410684154
 20
163.79932856825874
 10
103.25079197297848
 20
164.02872058176854
 10
103.41195688967196
 20
164.27509588395534
 10
103.54819675067253
 20
164.53608174597665
 10
103.65819949164246
 20
164.8091647313118
 10
103.7409057260526
 20
165.09171490152968
 10
103.79551894765376
 20
165.38101114403344
 10
103.82151320126731
 20
165.67426737786238
 10
103.818638148021
 20
165.96865938517453
 10
103.78692147624929
 20
166.2613520100085
 10
103.72666863483946
 20
166.549526462385
 10
103.63845989159178
 20
166.83040746479548
 10
103.52314474492358
 20
167.1012899796416
 10
103.38183374273493
 20
167.35956526022588
 10
103.21588778722536
 20
167.6027459744087
 10
103.0269050286617
 20
167.82849015897636
 10
102.81670547431742
 20
168.03462377402718
 10
102.58731346080761
 20
168.21916164016412
 10
102.34093815862082
 20
168.38032655685763
 10
102.0799522965995
 20
168.51656641785817
 10
101.80686931126435
 20
168.62656915882812
 10
101.52431914104648
 20
168.70927539323827
 10
101.23502289854271
 20
168.76388861483943
 10
100.94176666471377
 20
168.78988286845293
 10
100.6473746574016
 20
168.78700781520666
 10
100.35468203256767
 20
168.75529114343496
 10
100.06650758019116
 20
168.6950383020251
 10
99.78562657778068
 20
168.60682955877743
 10
99.51474406293457
 20
168.49151441210924
 10
99.25646878235028
 20
168.35020340992057
  0
LWPOLYLINE
  5
4A
330
17
100
AcDbEntity
  8
0
 62
0
100
AcDbPolyline
 90
103
 70
0
 10
140.19341950343664
 20
228.36000000164609
 10
140.19341950347666
 20
258.6500000016461
 10
106.33341950347665
 20
258.65000000169084
 10
106.33341950348888
 20
267.91133723264784
 10
106.16179992444474
 20
267.80847241560093
 10
105.62952009767895
 20
267.556722806624
 10
105.07512756701493
 20
267.3583579872992
 10
104.50396143558473
 20
267.21528831927384
 10
103.9215223454652
 20
267.1288916416608
 10
103.33341950348782
 20
267.10000000169475
 10
102.74531666151049
 20
267.12889164166234
 10
102.16287757139119
 20
267.21528831927697
 10
101.59171143996139
 20
267.35835798730386
 10
101.03731890929788
 20
267.5567228066301
 10
100.50503908253276
 20
267.8084724156084
 10
99.99999810537155
 20
268.1111823278839
 10
99.52705979850774
 20
268.4619372815234
 10
99.09077881637084
 20
268.8573593145811
 10
98.6953567833143
 20
269.29364029671905
 10
98.34460182967607
 20
269.76657860358375
 10
98.04189191740187
 20
270.2716195807458
 10
97.79014230842499
 20
270.80389940751155
 10
97.5917774891002
 20
271.35829193817557
 10
97.44870782107482
 20
271.9294580696058
 10
97.36231114346178
 20
272.5118971597253
 10
97.33341950349573
 20
273.1000000017027
 10
97.36231114346333
 20
273.68810284368004
 10
97.4487078210779
 20
274.27054193379934
 10
97.59177748910479
 20
274.8417080652291
 10
97.79014230843106
 20
275.3961005958926
 10
98.04189191740934
 20
275.9283804226577
 10
98.34460182968486
 20
276.43342139981894
 10
98.69535678332434
 20
276.9063597066828
 10
99.09077881638206
 20
277.34264068881964
 10
99.52705979851999
 20
277.7380627218762
 10
99.99999810538472
 20
278.08881767551446
 10
100.50503908254673
 20
278.39152758778863
 10
101.03731890931252
 20
278.6432771967655
 10
101.59171143997655
 20
278.8416420160903
 10
102.16287757140674
 20
278.9847116841157
 10
102.74531666152626
 20
279.07110836172876
 10
103.33341950350366
 20
279.10000000169475
 10
103.92152234548098
 20
279.07110836172717
 10
104.50396143560027
 20
278.9847116841126
 10
105.0751275670301
 20
278.84164201608576
 10
105.6295200976936
 20
278.6432771967594
 10
106.1617999244587
 20
278.3915275877812
 10
106.3334195035026
 20
278.28866277073377
 10
106.33341950350366
 20
279.10000000169083
 10
191.64341950350365
 20
279.1000000015781
 10
191.64341950347665
 20
258.6500000015781
 10
156.02341950347665
 20
258.6500000016252
 10
156.02341950343663
 20
228.36000000162517
 10
191.64341950343663
 20
228.36000000157813
 10
191.64341950340946
 20
207.80000000157813
 10
106.33341950340947
 20
207.80000000169082
 10
106.33341950341055
 20
208.61133723264786
 10
106.16179992436639
 20
208.50847241560092
 10
105.62952009760062
 20
208.25672280662403
 10
105.07512756693659
 20
208.05835798729922
 10
104.5039614355064
 20
207.91528831927386
 10
103.92152234538688
 20
207.82889164166082
 10
103.33341950340947
 20
207.80000000169477
 10
102.74531666143216
 20
207.82889164166238
 10
102.16287757131286
 20
207.91528831927693
 10
101.59171143988304
 20
208.05835798730382
 10
101.03731890921955
 20
208.25672280663008
 10
100.50503908245443
 20
208.50847241560837
 10
99.9999981052932
 20
208.8111823278839
 10
99.5270597984294
 20
209.16193728152336
 10
99.09077881629251
 20
209.5573593145811
 10
98.69535678323595
 20
209.99364029671904
 10
98.34460182959772
 20
210.46657860358374
 10
98.04189191732354
 20
210.97161958074577
 10
97.79014230834666
 20
211.50389940751154
 10
97.59177748902185
 20
212.05829193817559
 10
97.44870782099647
 20
212.6294580696058
 10
97.36231114338344
 20
213.2118971597253
 10
97.3334195034174
 20
213.8000000017027
 10
97.362311143385
 20
214.38810284368003
 10
97.44870782099957
 20
214.97054193379932
 10
97.59177748902646
 20
215.54170806522913
 10
97.79014230835273
 20
216.09610059589264
 10
98.04189191733101
 20
216.62838042265776
 10
98.34460182960653
 20
217.13342139981899
 10
98.69535678324601
 20
217.60635970668278
 10
99.09077881630373
 20
218.04264068881966
 10
99.52705979844166
 20
218.43806272187624
 10
99.99999810530639
 20
218.78881767551445
 10
100.5050390824684
 20
219.09152758778865
 10
101.03731890923417
 20
219.34327719676554
 10
101.59171143989822
 20
219.54164201609032
 10
102.16287757132841
 20
219.6847116841157
 10
102.74531666144793
 20
219.77110836172872
 10
103.33341950342533
 20
219.80000000169477
 10
103.92152234540265
 20
219.7711083617272
 10
104.50396143552194
 20
219.6847116841126
 10
105.07512756695176
 20
219.54164201608572
 10
105.62952009761526
 20
219.34327719675946
 10
106.16179992438038
 20
219.09152758778117
 10
106.33341950342427
 20
218.98866277073375
 10
106.33341950343664
 20
228.36000000169082
 10
140.19341950343664
 20
228.36000000164609
  0
LWPOLYLINE
  5
4B
330
17
100
AcDbEntity
  8
0
 62
0
100
AcDbPolyline
 90
65
 70
0
 10
102.46256547165781
 20
216.67082100889255
 10
102.1853692063258
 20
216.57163859923014
 10
101.9192292929429
 20
216.4457637947417
 10
101.66670880436189
 20
216.29440883860462
 10
101.43023965092954
 20
216.1190313617855
 10
101.21209915986056
 20
215.92132034525721
 10
101.0143881433317
 20
215.70317985418876
 10
100.83901066651197
 20
215.46671070075686
 10
100.68765571037422
 20
215.21419021217628
 10
100.56178090588506
 20
214.9480502987937
 10
100.46259849622193
 20
214.67085403346195
 10
100.3910636622085
 20
214.38527096774703
 10
100.34786532340121
 20
214.0940514226874
 10
100.3334195034174
 20
213.80000000169872
 10
100.34786532340043
 20
213.50594858071003
 10
100.39106366220695
 20
213.21472903565027
 10
100.46259849621963
 20
212.92914596993518
 10
100.56178090588202
 20
212.65194970460317
 10
100.68765571037048
 20
212.38580979122028
 10
100.83901066650756
 20
212.13328930263927
 10
101.01438814332668
 20
211.8968201492069
 10
101.21209915985496
 20
211.67867965813792
 10
101.43023965092341
 20
211.48096864160908
 10
101.6667088043553
 20
211.30559116478935
 10
101.91922929293591
 20
211.15423620865158
 10
102.18536920631848
 20
211.02836140416244
 10
102.46256547165022
 20
210.9291789944993
 10
102.74814853736514
 20
210.85764416048585
 10
103.03936808242479
 20
210.81444582167856
 10
103.33341950341344
 20
210.80000000169477
 10
103.62747092440215
 20
210.8144458216778
 10
103.91869046946191
 20
210.8576441604843
 10
104.204273535177
 20
210.929178994497
 10
104.48146980050902
 20
211.0283614041594
 10
104.7476097138919
 20
211.15423620864783
 10
105.00013020247292
 20
211.30559116478494
 10
105.23659935590528
 20
211.48096864160405
 10
105.45473984697425
 20
211.67867965813232
 10
105.6524508635031
 20
211.89682014920078
 10
105.82782834032284
 20
212.13328930263268
 10
105.9791832964606
 20
212.3858097912133
 10
106.10505810094975
 20
212.65194970459584
 10
106.20424051061288
 20
212.9291459699276
 10
106.27577534462633
 20
213.2147290356425
 10
106.31897368343361
 20
213.50594858070215
 10
106.3334195034174
 20
213.80000000169082
 10
106.3189736834344
 20
214.0940514226795
 10
106.27577534462787
 20
214.38527096773927
 10
106.20424051061518
 20
214.67085403345436
 10
106.10505810095279
 20
214.94805029878637
 10
105.97918329646434
 20
215.21419021216929
 10
105.82782834032724
 20
215.4667107007503
 10
105.65245086350814
 20
215.70317985418265
 10
105.45473984697985
 20
215.92132034525162
 10
105.23659935591141
 20
216.11903136178046
 10
105.00013020247951
 20
216.2944088386002
 10
104.7476097138989
 20
216.44576379473796
 10
104.48146980051634
 20
216.57163859922713
 10
104.20427353518458
 20
216.67082100889024
 10
103.91869046946968
 20
216.7423558429037
 10
103.62747092441003
 20
216.78555418171098
 10
103.33341950342137
 20
216.80000000169477
 10
103.03936808243267
 20
216.78555418171175
 10
102.74814853737291
 20
216.74235584290523
 10
102.46256547165781
 20
216.67082100889255
  0
LWPOLYLINE
  5
4C
330
17
100
AcDbEntity
  8
0
 62
0
100
AcDbPolyline
 90
65
 70
0
 10
102.74814853745124
 20
276.04235584290524
 10
102.46256547173614
 20
275.97082100889253
 10
102.18536920640413
 20
275.87163859923015
 10
101.91922929302123
 20
275.7457637947417
 10
101.66670880444022
 20
275.59440883860464
 10
101.43023965100787
 20
275.41903136178547
 10
101.2120991599389
 20
275.2213203452572
 10
101.01438814341003
 20
275.0031798541888
 10
100.8390106665903
 20
274.7667107007569
 10
100.68765571045255
 20
274.51419021217623
 10
100.56178090596339
 20
274.2480502987937
 10
100.46259849630026
 20
273.97085403346193
 10
100.39106366228683
 20
273.68527096774704
 10
100.34786532347954
 20
273.39405142268737
 10
100.33341950349573
 20
273.10000000169873
 10
100.34786532347876
 20
272.80594858071004
 10
100.39106366228528
 20
272.51472903565025
 10
100.46259849629797
 20
272.2291459699352
 10
100.56178090596036
 20
271.9519497046032
 10
100.68765571044881
 20
271.68580979122027
 10
100.83901066658589
 20
271.43328930263925
 10
101.01438814340503
 20
271.19682014920687
 10
101.21209915993329
 20
270.97867965813793
 10
101.43023965100174
 20
270.7809686416091
 10
101.66670880443364
 20
270.60559116478936
 10
101.91922929301424
 20
270.4542362086516
 10
102.18536920639681
 20
270.3283614041624
 10
102.46256547172857
 20
270.2291789944993
 10
102.74814853744347
 20
270.15764416048586
 10
103.03936808250312
 20
270.11444582167854
 10
103.33341950349178
 20
270.10000000169475
 10
103.62747092448048
 20
270.1144458216778
 10
103.91869046954024
 20
270.1576441604843
 10
104.20427353525534
 20
270.229178994497
 10
104.48146980058735
 20
270.3283614041594
 10
104.74760971397023
 20
270.45423620864784
 10
105.00013020255126
 20
270.6055911647849
 10
105.23659935598361
 20
270.78096864160403
 10
105.45473984705258
 20
270.9786796581323
 10
105.65245086358144
 20
271.1968201492008
 10
105.82782834040117
 20
271.43328930263266
 10
105.97918329653893
 20
271.6858097912133
 10
106.10505810102809
 20
271.95194970459585
 10
106.2042405106912
 20
272.2291459699276
 10
106.27577534470466
 20
272.5147290356425
 10
106.31897368351194
 20
272.80594858070214
 10
106.33341950349573
 20
273.10000000169083
 10
106.31897368351272
 20
273.39405142267947
 10
106.2757753447062
 20
273.68527096773926
 10
106.20424051069351
 20
273.9708540334544
 10
106.10505810103112
 20
274.2480502987864
 10
105.97918329654267
 20
274.5141902121693
 10
105.82782834040557
 20
274.7667107007503
 10
105.65245086358647
 20
275.00317985418263
 10
105.45473984705819
 20
275.2213203452516
 10
105.23659935598974
 20
275.41903136178047
 10
105.00013020255784
 20
275.5944088386002
 10
104.74760971397723
 20
275.74576379473797
 10
104.48146980059467
 20
275.87163859922714
 10
104.20427353526291
 20
275.97082100889025
 10
103.91869046954801
 20
276.0423558429037
 10
103.62747092448836
 20
276.08555418171096
 10
103.3334195034997
 20
276.10000000169475
 10
103.039368082511
 20
276.08555418171176
 10
102.74814853745124
 20
276.04235584290524
  0
LWPOLYLINE
  5
4D
330
17
100
AcDbEntity
  8
0
 62
0
100
AcDbPolyline
 90
79
 70
0
 10
262.1978453141306
 20
36.60678163969061
 10
263.4821162555699
 20
41.68898670297018
 10
265.4050898527248
 20
46.487139783489624
 10
266.63235094325506
 20
48.76751002070891
 10
267.9605004156403
 20
50.97937037018066
 10
271.05666150452566
 20
54.99293168790406
 10
274.6798128113198
 20
58.51345860362643
 10
278.8290161637685
 20
61.54001429008456
 10
281.12245437775346
 20
62.84711947756311
 10
283.4830130490617
 20
64.06073899356629
 10
288.4381309755173
 20
65.96593503595103
 10
293.6740496025797
 20
67.2446794907899
 10
299.19076893024885
 20
67.89697235808293
 10
302.06612888600296
 20
67.96209729691869
 10
305.99612787489184
 20
67.95927819553701
 10
308.8995276406391
 20
67.90563299005798
 10
314.45330111458
 20
67.28289894931312
 10
319.70428706923923
 20
66.04163194757805
 10
324.65342300437567
 20
64.18183131235716
 10
327.00257169288557
 20
62.99420839527514
 10
329.28071340843854
 20
61.709761388614396
 10
333.4152915495231
 20
58.724138519340414
 10
337.0446652766267
 20
55.23590916832863
 10
340.1697700720215
 20
51.24226016380709
 10
341.5225612206923
 20
49.03378919983611
 10
342.77593144106714
 20
46.76132703687635
 10
344.74454859624706
 20
42.00116366680092
 10
346.0665740589603
 20
36.982714048984406
 10
346.7410703294482
 20
31.70597885592237
 10
346.8081630721886
 20
28.959992521891525
 10
346.7880348317891
 20
0.8999997411736693
 10
261.4780567803621
 20
0.9611950436855494
 10
261.49567696801995
 20
25.52480958028097
 10
261.3678654733824
 20
25.448326885158973
 10
260.83540519636847
 20
25.19695916049231
 10
260.2808705155816
 20
24.99899207381768
 10
259.70960190313724
 20
24.856332156399592
 10
259.1271009880605
 20
24.770353301228642
 10
258.5389775725908
 20
24.741883531680916
 10
257.95089560672017
 20
24.771197027200348
 10
257.3685186412582
 20
24.85801148280066
 10
256.797455284742
 20
25.001490827816856
 10
256.2432051894698
 20
25.20025327772262
 10
255.7111060868429
 20
25.452384641470754
 10
255.20628238209466
 20
25.755456756199354
 10
254.73359580346641
 20
26.106550871767485
 10
254.2975985811072
 20
26.502285759914674
 10
253.90248960660864
 20
26.938850277337362
 10
253.55207399538367
 20
27.412040069082362
 10
253.24972644132507
 20
27.917298058783263
 10
252.9983587166584
 20
28.449758335797174
 10
252.80039162998378
 20
29.004293016584032
 10
252.6577317125657
 20
29.575561629028382
 10
252.57175285739473
 20
30.15806254410518
 10
252.54328308784702
 20
30.74618595957487
 10
252.57259658336642
 20
31.33426792544549
 10
252.65941103896677
 20
31.916644890907424
 10
252.80289038398297
 20
32.48770824742361
 10
253.00165283388873
 20
33.041958342695864
 10
253.25378419763686
 20
33.57405744532274
 10
253.55685631236543
 20
34.078881150071
 10
253.90795042793357
 20
34.551567728699226
 10
254.30368531608076
 20
34.987564951058445
 10
254.74024983350347
 20
35.382673925557015
 10
255.21343962524844
 20
35.733089536781975
 10
255.71869761494935
 20
36.035437090840574
 10
256.25115789196326
 20
36.28680481550724
 10
256.8056925727501
 20
36.48477190218186
 10
257.3769611851945
 20
36.62743181959995
 10
257.95946210027125
 20
36.71341067477091
 10
258.54758551574093
 20
36.74188044431864
 10
259.13566748161156
 20
36.71256694879921
 10
259.7180444470735
 20
36.625752493198874
 10
260.28910780358973
 20
36.482273148182685
 10
260.84335789886194
 20
36.28351069827693
 10
261.3754570014888
 20
36.03137933452879
 10
261.8802807062371
 20
35.7283072198002
 10
262.0749281912862
 20
35.58373026394669
 10
262.1978453141306
 20
36.60678163969061
  0
LWPOLYLINE
  5
4E
330
17
100
AcDbEntity
  8
0
 62
0
100
AcDbPolyline
 90
25
 70
0
 10
277.37280097068333
 20
21.50979857590276
 10
330.98278717789236
 20
21.471342589879296
 10
330.9879160773527
 20
28.62134075032593
 10
330.9238474731245
 20
30.79107476679741
 10
330.13915332720313
 20
34.70288865677951
 10
328.56659085632384
 20
38.10151757520852
 10
326.2061600604866
 20
40.98696152208447
 10
324.69766619383546
 20
42.21585642404199
 10
323.0597336975571
 20
43.35609415322021
 10
319.1460127826182
 20
45.140620786272024
 10
314.46686536606666
 20
46.33085257874117
 10
309.0222921203981
 20
46.927727030386464
 10
305.9810783209509
 20
46.97928359327538
 10
302.2910792703148
 20
46.98193053579406
 10
299.26448213089
 20
46.934726588325645
 10
293.84530817158617
 20
46.345645015213506
 10
289.18695799049146
 20
45.16211127850811
 10
285.28943091511024
 20
43.38318787845061
 10
283.65767675261446
 20
42.24529558961564
 10
282.15460710075945
 20
41.01606096820075
 10
279.8012679257411
 20
38.1044670865913
 10
278.2312895103988
 20
34.64996738822914
 10
277.444672527228
 20
30.65349937287309
 10
277.3777648845666
 20
28.42979679552383
 10
277.37280097068333
 20
21.50979857590276
  0
LWPOLYLINE
  5
4F
330
17
100
AcDbEntity
  8
0
 62
0
100
AcDbPolyline
 90
65
 70
0
 10
257.96012136468016
 20
33.68465690379986
 10
257.674487058458
 20
33.61332694509082
 10
257.39721971806455
 20
33.51434340175351
 10
257.1309895795576
 20
33.388659539420175
 10
256.87836058470714
 20
33.237485762390875
 10
256.64176568883465
 20
33.06227795677839
 10
256.4234834301233
 20
32.86472346952911
 10
256.2256159860497
 20
32.6467248583495
 10
256.05006892826566
 20
32.410381569035394
 10
255.89853287090136
 20
32.157969716661256
 10
255.77246718902728
 20
31.891920165347816
 10
255.6730859640744
 20
31.614795117711697
 10
255.6013462915663
 20
31.329263439453594
 10
255.55793906376616
 20
31.038074956722628
 10
255.54328231600644
 20
30.744033973787328
 10
255.5575172007803
 20
30.44997226605248
 10
255.6005066283658
 20
30.15872180851407
 10
255.6718365870748
 20
29.873087502291906
 10
255.77082013041212
 20
29.59582016189847
 10
255.89650399274547
 20
29.32959002339152
 10
256.04767776977474
 20
29.076961028541074
 10
256.22288557538724
 20
28.840366132668574
 10
256.42044006263654
 20
28.622083873957227
 10
256.63843867381615
 20
28.424216429883625
 10
256.87478196313026
 20
28.24866937209956
 10
257.12719381550437
 20
28.097133314735263
 10
257.39324336681784
 20
27.971067632861203
 10
257.67036841445395
 20
27.871686407908317
 10
257.95590009271206
 20
27.799946735400223
 10
258.247088575443
 20
27.756539507600056
 10
258.5411295583783
 20
27.741882759840347
 10
258.83519126611316
 20
27.75611764461421
 10
259.12644172365157
 20
27.799107072199686
 10
259.41207602987373
 20
27.87043703090873
 10
259.6893433702672
 20
27.96942057424604
 10
259.95557350877414
 20
28.095104436579373
 10
260.2082025036246
 20
28.246278213608687
 10
260.4447973994971
 20
28.42148601922116
 10
260.6630796582084
 20
28.619040506470444
 10
260.860947102282
 20
28.837039117650047
 10
261.03649416006607
 20
29.073382406964168
 10
261.18803021743037
 20
29.3257942593383
 10
261.31409589930445
 20
29.591843810651735
 10
261.4134771242573
 20
29.868968858287854
 10
261.4852167967654
 20
30.154500536545957
 10
261.5286240245656
 20
30.44568901927691
 10
261.5432807723253
 20
30.73973000221223
 10
261.52904588755143
 20
31.03379170994707
 10
261.48605645996594
 20
31.325042167485474
 10
261.4147265012569
 20
31.610676473707645
 10
261.3157429579196
 20
31.88794381410108
 10
261.19005909558626
 20
32.15417395260803
 10
261.038885318557
 20
32.40680294745849
 10
260.8636775129445
 20
32.64339784333097
 10
260.6661230256952
 20
32.86168010204233
 10
260.4481244145156
 20
33.05954754611592
 10
260.21178112520147
 20
33.235094603899995
 10
259.95936927282736
 20
33.38663066126428
 10
259.6933197215139
 20
33.512696343138344
 10
259.4161946738778
 20
33.61207756809122
 10
259.1306629956197
 20
33.683817240599325
 10
258.8394745128887
 20
33.7272244683995
 10
258.5454335299534
 20
33.7418812161592
 10
258.2513718222186
 20
33.727646331385344
 10
257.96012136468016
 20
33.68465690379986
  0
LWPOLYLINE
  5
50
330
17
100
AcDbEntity
  8
0
 62
0
100
AcDbPolyline
 90
54
 70
0
 10
330.5380237089604
 20
79.8354204567434
 10
399.74317720565915
 20
138.84349811987664
 10
407.3616417878894
 20
118.10881467861566
 10
394.1171465215158
 20
107.93692472939743
 10
403.83594832899655
 20
81.4858889949142
 10
420.49478489750146
 20
82.36518654628347
 10
428.0753123541525
 20
61.73375413166524
 10
337.2080601517098
 20
61.68201268155159
 10
335.63607432691725
 20
65.96038506215544
 10
335.5104606701328
 20
65.80464277590461
 10
335.0976626515468
 20
65.384764846676
 10
334.64569713433895
 20
65.00737002575646
 10
334.15891679350955
 20
64.67609283157643
 10
333.64200958984185
 20
64.39412364461039
 10
333.0999536222775
 20
64.16417798226885
 10
332.53796918610203
 20
63.98847034698128
 10
331.9614684986477
 20
63.86869289932702
 10
331.3760035766822
 20
63.80599916160402
 10
330.78721276745154
 20
63.80099290877845
 10
330.20076644831454
 20
63.853722353801686
 10
329.6223124179086
 20
63.96367968329333
 10
329.05742150476163
 20
64.12980594806157
 10
328.5115339171681
 20
64.35050126136284
 10
327.98990685100904
 20
64.6236402066857
 10
327.49756386008187
 20
64.94659230667381
 10
327.0392464765313
 20
65.31624735606064
 10
326.6193685473027
 20
65.72904537464665
 10
326.24197372638315
 20
66.18101089185447
 10
325.91069653220313
 20
66.6677912326839
 10
325.62872734523705
 20
67.18469843635157
 10
325.3987816828955
 20
67.72675440391593
 10
325.22307404760795
 20
68.28873884009141
 10
325.1032965999537
 20
68.8652395275457
 10
325.0406028622307
 20
69.45070444951125
 10
325.0355966094051
 20
70.03949525874191
 10
325.08832605442836
 20
70.62594157787893
 10
325.19828338392
 20
71.20439560828487
 10
325.36440964868825
 20
71.76928652143181
 10
325.5851049619895
 20
72.31517410902532
 10
325.8582439073124
 20
72.83680117518442
 10
326.1811960073005
 20
73.32914416611158
 10
326.5508510566873
 20
73.78746154966214
 10
326.96364907527334
 20
74.20733947889073
 10
327.4156145924811
 20
74.5847342998103
 10
327.9023949333106
 20
74.91601149399034
 10
328.4193021369783
 20
75.19798068095638
 10
328.9613581045426
 20
75.42792634329791
 10
329.5233425407181
 20
75.60363397858549
 10
330.09984322817235
 20
75.72341142623975
 10
330.6853081501379
 20
75.78610516396273
 10
331.2740989593686
 20
75.79111141678831
 10
331.8605452785056
 20
75.73838197176508
 10
332.0571115804174
 20
75.70101702227876
 10
330.5380237089604
 20
79.8354204567434
  0
LWPOLYLINE
  5
51
330
17
100
AcDbEntity
  8
0
 62
0
100
AcDbPolyline
 90
4
 70
0
 10
387.2334305022968
 20
80.62728442113361
 10
380.9082770193587
 20
97.84204649957303
 10
356.30667408271796
 20
79.00141930863614
 10
387.2334305022968
 20
80.62728442113361
  0
LWPOLYLINE
  5
52
330
17
100
AcDbEntity
  8
0
 62
0
100
AcDbPolyline
 90
65
 70
0
 10
329.4665253983603
 20
72.35603182838685
 10
329.2231352279456
 20
72.19039323129684
 10
328.9971524693417
 20
72.00169582083706
 10
328.7907534600487
 20
71.79175685622276
 10
328.6059259353553
 20
71.56259816444748
 10
328.4444498853612
 20
71.3164266689839
 10
328.3078804126998
 20
71.05561313590435
 10
328.19753275604916
 20
70.7826693421076
 10
328.114469623665
 20
70.50022388553413
 10
328.0594909589192
 20
70.21099687033114
 10
328.0331262364076
 20
69.91777371076263
 10
328.0356293628204
 20
69.62337830614732
 10
328.0669762316819
 20
69.33064584516454
 10
328.126864955509
 20
69.0423955014374
 10
328.2147187731528
 20
68.76140328334967
 10
328.32969160432356
 20
68.49037529956748
 10
328.4706761978066
 20
68.23192169773364
 10
328.6363147948966
 20
67.98853152731893
 10
328.82501220535636
 20
67.76254876871499
 10
329.03495116997067
 20
67.55614975942201
 10
329.26410986174596
 20
67.3713222347286
 10
329.5102813572095
 20
67.20984618473454
 10
329.7710948902891
 20
67.0732767120731
 10
330.0440386840858
 20
66.96292905542248
 10
330.3264841406593
 20
66.87986592303835
 10
330.6157111558623
 20
66.82488725829253
 10
330.90893431543077
 20
66.79852253578092
 10
331.2033297200461
 20
66.8010256621937
 10
331.4960621810289
 20
66.8323725310552
 10
331.78431252475605
 20
66.89226125488233
 10
332.06530474284375
 20
66.9801150725261
 10
332.336332726626
 20
67.09508790369688
 10
332.5947863284598
 20
67.2360724971799
 10
332.83817649887453
 20
67.40171109426993
 10
333.0641592574784
 20
67.5904085047297
 10
333.27055826677145
 20
67.80034746934399
 10
333.45538579146483
 20
68.02950616111929
 10
333.6168618414589
 20
68.27567765658286
 10
333.75343131412035
 20
68.5364911896624
 10
333.86377897077097
 20
68.80943498345917
 10
333.94684210315506
 20
69.09188044003264
 10
334.0018207679009
 20
69.38110745523561
 10
334.0281854904125
 20
69.67433061480412
 10
334.02568236399975
 20
69.96872601941945
 10
333.9943354951382
 20
70.26145848040221
 10
333.9344467713111
 20
70.54970882412937
 10
333.8465929536673
 20
70.8307010422171
 10
333.73162012249657
 20
71.10172902599928
 10
333.5906355290135
 20
71.36018262783313
 10
333.4249969319235
 20
71.60357279824784
 10
333.23629952146376
 20
71.82955555685174
 10
333.02636055684945
 20
72.03595456614474
 10
332.79720186507416
 20
72.22078209083816
 10
332.5510303696106
 20
72.38225814083222
 10
332.29021683653104
 20
72.51882761349366
 10
332.01727304273425
 20
72.62917527014429
 10
331.7348275861608
 20
72.71223840252841
 10
331.4456005709578
 20
72.76721706727423
 10
331.1523774113893
 20
72.79358178978583
 10
330.857982006774
 20
72.79107866337304
 10
330.56524954579123
 20
72.75973179451155
 10
330.2769992020641
 20
72.69984307068444
 10
329.9960069839763
 20
72.61198925304063
 10
329.72497900019414
 20
72.49701642186989
 10
329.4665253983603
 20
72.35603182838685
  0
LWPOLYLINE
  5
53
330
17
100
AcDbEntity
  8
0
 62
0
100
AcDbPolyline
 90
100
 70
0
 10
301.6251806670429
 20
102.79621379218588
 10
262.6614684068172
 20
112.7731886293967
 10
261.01081402031025
 20
123.67021641016268
 10
260.8565360934618
 20
123.54280851486283
 10
260.3679641216398
 20
123.21417938050044
 10
259.84953346942325
 20
122.93502111276666
 10
259.30623690739594
 20
122.70802215838322
 10
258.74330667844646
 20
122.53536864137101
 10
258.16616410840845
 20
122.41872330948092
 10
257.58036739572964
 20
122.3592095210239
 10
256.9915580829821
 20
122.3574004263163
 10
256.40540672572365
 20
122.41331344792908
 10
255.82755828194755
 20
122.52641011289901
 10
255.2635777480514
 20
122.69560123851747
 10
254.71889656487977
 20
122.91925742175547
 10
254.19876030997966
 20
123.19522473130556
 10
253.70817817982112
 20
123.52084545111762
 10
253.25187474849707
 20
123.89298367565755
 10
252.83424446749194
 20
124.30805551039151
 10
252.45930934471184
 20
124.76206358664973
 10
252.13068021034945
 20
125.25063555847174
 10
251.85152194261568
 20
125.76906621068832
 10
251.62452298823223
 20
126.31236277271557
 10
251.45186947122002
 20
126.87529300166509
 10
251.33522413932994
 20
127.45243557170309
 10
251.2757103508729
 20
128.0382322843819
 10
251.2739012561653
 20
128.6270415971294
 10
251.3298142777781
 20
129.21319295438786
 10
251.44291094274803
 20
129.791041398164
 10
251.61210206836648
 20
130.35502193206017
 10
251.8357582516045
 20
130.89970311523177
 10
252.11172556115457
 20
131.41983937013188
 10
252.43734628096664
 20
131.91042150029043
 10
252.80948450550656
 20
132.36672493161447
 10
253.22455634024053
 20
132.78435521261957
 10
253.67856441649872
 20
133.15929033539967
 10
254.16713638832076
 20
133.48791946976206
 10
254.68556704053734
 20
133.76707773749584
 10
255.2288636025646
 20
133.99407669187931
 10
255.7917938315141
 20
134.16673020889152
 10
256.3689364015521
 20
134.2833755407816
 10
256.9547331142309
 20
134.34288932923863
 10
257.5435424269784
 20
134.34469842394623
 10
258.1296937842369
 20
134.28878540233342
 10
258.70754222801304
 20
134.1756887373635
 10
259.2715227619092
 20
134.00649761174503
 10
259.4566126053006
 20
133.93049629352802
 10
259.33509945937726
 20
134.7326824674957
 10
317.5041290318456
 20
115.75049875230354
 10
347.7985410624333
 20
120.3394201638101
 10
350.92272189285194
 20
99.71469970173244
 10
320.62830986226425
 20
95.1257782902259
 10
270.6830947384194
 20
59.81729083702473
 10
270.56158159249605
 20
60.61947701099239
 10
270.4073036656476
 20
60.492069115692544
 10
269.9187316938256
 20
60.16343998133016
 10
269.400301041609
 20
59.88428171359638
 10
268.85700447958175
 20
59.65728275921291
 10
268.29407425063226
 20
59.48462924220072
 10
267.71693168059426
 20
59.36798391031064
 10
267.13113496791544
 20
59.3084701218536
 10
266.54232565516793
 20
59.306661027146
 10
265.95617429790946
 20
59.36257404875881
 10
265.3783258541333
 20
59.47567071372873
 10
264.8143453202372
 20
59.64486183934719
 10
264.26966413706555
 20
59.86851802258519
 10
263.74952788216547
 20
60.144485332135254
 10
263.2589457520069
 20
60.47010605194733
 10
262.8026423206829
 20
60.84224427648724
 10
262.38501203967775
 20
61.25731611122123
 10
262.0100769168977
 20
61.711324187479434
 10
261.68144778253526
 20
62.19989615930145
 10
261.4022895148015
 20
62.718326811518025
 10
261.17529056041803
 20
63.261623373545284
 10
261.0026370434058
 20
63.82455360249479
 10
260.8859917115157
 20
64.4016961725328
 10
260.8264779230587
 20
64.98749288521162
 10
260.8246688283511
 20
65.57630219795911
 10
260.8805818499639
 20
66.16245355521758
 10
260.99367851493383
 20
66.74030199899371
 10
261.1628696405523
 20
67.30428253288986
 10
261.3865258237903
 20
67.84896371606148
 10
261.6624931333404
 20
68.3690999709616
 10
261.9881138531524
 20
68.85968210112014
 10
262.36025207769234
 20
69.31598553244419
 10
262.7753239124263
 20
69.73361581344929
 10
263.2293319886845
 20
70.10855093622939
 10
263.71790396050653
 20
70.43718007059178
 10
264.2363346127231
 20
70.71633833832557
 10
264.77963117475036
 20
70.94333729270903
 10
265.3425614036999
 20
71.11599080972123
 10
265.9197039737379
 20
71.23263614161131
 10
266.5055006864167
 20
71.29214993006835
 10
267.0943099991642
 20
71.29395902477594
 10
267.68046135642265
 20
71.23804600316313
 10
268.2583098001988
 20
71.12494933819322
 10
268.82229033409493
 20
70.95575821257475
 10
269.0073801774864
 20
70.87975689435774
 10
267.374698068048
 20
81.6581381528107
 10
301.6251806670429
 20
102.79621379218588
  0
LWPOLYLINE
  5
54
330
17
100
AcDbEntity
  8
0
 62
0
100
AcDbPolyline
 90
65
 70
0
 10
265.5273262199446
 20
68.00832418214327
 10
265.2681108938363
 20
67.86874504827638
 10
265.0238249079253
 20
67.70443048109519
 10
264.7968208697962
 20
67.51696291970512
 10
264.5892849524292
 20
67.30814777920259
 10
264.40321584015925
 20
67.07999606354056
 10
264.24040548025323
 20
66.83470499846129
 10
264.1024218254782
 20
66.57463687101122
 10
263.99059373385916
 20
66.30229627942542
 10
263.90599817104993
 20
66.02030601247735
 10
263.84944983856496
 20
65.73138179058927
 10
263.82149332775856
 20
65.43830611196003
 10
263.8223978751124
 20
65.1439014555863
 10
263.8521547693409
 20
64.85100309924688
 10
263.91047743528594
 20
64.56243181422788
 10
263.99680419379206
 20
64.28096669975312
 10
264.1103036709838
 20
64.0093184187395
 10
264.24988280485064
 20
63.750103092631214
 10
264.4141973720319
 20
63.5058171067202
 10
264.6016649334219
 20
63.2788130685911
 10
264.81048007392445
 20
63.07127715122411
 10
265.0386317895865
 20
62.885208038954154
 10
265.2839228546658
 20
62.722397679048115
 10
265.5439909821158
 20
62.58441402427308
 10
265.81633157370163
 20
62.472585932654084
 10
266.0983218406497
 20
62.38799036984486
 10
266.38724606253777
 20
62.33144203735989
 10
266.680321741167
 20
62.30348552655349
 10
266.97472639754073
 20
62.30439007390729
 10
267.26762475388017
 20
62.33414696813581
 10
267.55619603889915
 20
62.39246963408085
 10
267.8376611533739
 20
62.47879639258694
 10
268.10930943438757
 20
62.59229586977868
 10
268.3685247604958
 20
62.73187500364557
 10
268.61281074640686
 20
62.89618957082676
 10
268.839814784536
 20
63.083657132216814
 10
269.04735070190293
 20
63.292472272719365
 10
269.2334198141729
 20
63.520623988381395
 10
269.39623017407894
 20
63.76591505346066
 10
269.534213828854
 20
64.02598318091071
 10
269.64604192047295
 20
64.29832377249653
 10
269.7306374832822
 20
64.5803140394446
 10
269.78718581576715
 20
64.86923826133267
 10
269.81514232657355
 20
65.1623139399619
 10
269.81423777921975
 20
65.45671859633565
 10
269.78448088499124
 20
65.74961695267507
 10
269.7261582190462
 20
66.03818823769407
 10
269.6398314605401
 20
66.31965335216881
 10
269.52633198334837
 20
66.59130163318244
 10
269.38675284948147
 20
66.85051695929073
 10
269.2224382823003
 20
67.09480294520174
 10
269.0349707209102
 20
67.32180698333084
 10
268.8261555804077
 20
67.52934290069784
 10
268.59800386474564
 20
67.71541201296779
 10
268.3527127996664
 20
67.87822237287384
 10
268.09264467221635
 20
68.01620602764886
 10
267.82030408063054
 20
68.12803411926787
 10
267.53831381368246
 20
68.2126296820771
 10
267.2493895917944
 20
68.26917801456206
 10
266.95631391316516
 20
68.29713452536846
 10
266.6619092567914
 20
68.29622997801467
 10
266.369010900452
 20
68.26647308378614
 10
266.08043961543297
 20
68.2081504178411
 10
265.79897450095825
 20
68.121823659335
 10
265.5273262199446
 20
68.00832418214327
  0
LWPOLYLINE
  5
55
330
17
100
AcDbEntity
  8
0
 62
0
100
AcDbPolyline
 90
65
 70
0
 10
256.24820692877245
 20
131.1725630585053
 10
255.9765586477588
 20
131.05906358131355
 10
255.7173433216505
 20
130.91948444744668
 10
255.4730573357395
 20
130.75516988026547
 10
255.2460532976104
 20
130.56770231887543
 10
255.0385173802434
 20
130.35888717837287
 10
254.85244826797344
 20
130.13073546271085
 10
254.68963790806743
 20
129.88544439763157
 10
254.55165425329238
 20
129.6253762701815
 10
254.43982616167338
 20
129.35303567859572
 10
254.35523059886415
 20
129.07104541164762
 10
254.2986822663792
 20
128.78212118975955
 10
254.27072575557278
 20
128.4890455111303
 10
254.27163030292658
 20
128.19464085475659
 10
254.30138719715512
 20
127.90174249841718
 10
254.35970986310014
 20
127.61317121339818
 10
254.44603662160625
 20
127.3317060989234
 10
254.559536098798
 20
127.06005781790978
 10
254.69911523266487
 20
126.80084249180149
 10
254.86342979984607
 20
126.55655650589051
 10
255.0508973612361
 20
126.32955246776137
 10
255.25971250173868
 20
126.12201655039442
 10
255.4878642174007
 20
125.93594743812446
 10
255.73315528247997
 20
125.77313707821838
 10
255.99322340993
 20
125.63515342344337
 10
256.2655640015158
 20
125.52332533182437
 10
256.5475542684639
 20
125.43872976901514
 10
256.83647849035196
 20
125.38218143653017
 10
257.1295541689812
 20
125.35422492572377
 10
257.42395882535493
 20
125.35512947307757
 10
257.71685718169437
 20
125.38488636730611
 10
258.00542846671334
 20
125.44320903325112
 10
258.2868935811881
 20
125.52953579175724
 10
258.55854186220176
 20
125.64303526894898
 10
258.81775718831005
 20
125.78261440281585
 10
259.06204317422106
 20
125.94692896999706
 10
259.28904721235017
 20
126.13439653138713
 10
259.4965831297171
 20
126.34321167188963
 10
259.6826522419871
 20
126.57136338755168
 10
259.84546260189313
 20
126.81665445263096
 10
259.9834462566682
 20
127.076722580081
 10
260.09527434828715
 20
127.34906317166681
 10
260.1798699110964
 20
127.63105343861488
 10
260.23641824358134
 20
127.91997766050295
 10
260.26437475438775
 20
128.2130533391322
 10
260.26347020703395
 20
128.50745799550594
 10
260.23371331280543
 20
128.80035635184535
 10
260.1753906468604
 20
129.08892763686436
 10
260.0890638883543
 20
129.3703927513391
 10
259.97556441116257
 20
129.64204103235272
 10
259.83598527729566
 20
129.901256358461
 10
259.6716707101145
 20
130.14554234437205
 10
259.4842031487244
 20
130.37254638250113
 10
259.2753880082219
 20
130.58008229986814
 10
259.0472362925599
 20
130.7661514121381
 10
258.8019452274806
 20
130.92896177204412
 10
258.54187710003055
 20
131.06694542681916
 10
258.26953650844473
 20
131.17877351843816
 10
257.98754624149666
 20
131.2633690812474
 10
257.6986220196086
 20
131.31991741373236
 10
257.40554634097936
 20
131.34787392453876
 10
257.11114168460557
 20
131.34696937718493
 10
256.8182433282662
 20
131.31721248295642
 10
256.52967204324716
 20
131.25888981701138
 10
256.24820692877245
 20
131.1725630585053
  0
LWPOLYLINE
  5
56
330
17
100
AcDbEntity
  8
0
 62
0
100
AcDbPolyline
 90
56
 70
0
 10
233.25096811744683
 20
200.03913123077862
 10
243.69982988378646
 20
201.4222030972865
 10
307.43749709219685
 20
169.13677017731575
 10
302.0862949369605
 20
209.56414995258433
 10
317.7695011175575
 20
211.6400699647432
 10
326.48784028366606
 20
145.77456941867052
 10
315.74157258469813
 20
144.35213118025067
 10
252.32273833592677
 20
176.97229614805644
 10
257.68968703992795
 20
136.42595399973658
 10
241.94699967280522
 20
134.34216071319528
 10
238.2641773111507
 20
162.16522811754805
 10
238.1075397567563
 20
162.04073262746613
 10
237.61289739154736
 20
161.72131345123785
 10
237.08932831030612
 20
161.4519157957729
 10
236.54187476949687
 20
161.23513410776113
 10
235.97580904598615
 20
161.073056113363
 10
235.3965826621344
 20
160.96724271226543
 10
234.8097738846554
 20
160.91871294536446
 10
234.2210340028587
 20
160.92793418084446
 10
233.6360329036438
 20
160.99481761316684
 10
233.0604044673904
 20
161.11871911831622
 10
232.49969231061007
 20
161.2984454570665
 10
231.95929639788906
 20
161.5322657665271
 10
231.44442103727735
 20
161.8179282292988
 10
230.9600247599571
 20
162.152681759706
 10
230.51077256687688
 20
162.53330249825612
 10
230.1009910022422
 20
162.95612485916837
 10
229.73462648653003
 20
163.41707683196898
 10
229.41520731030175
 20
163.91171919717792
 10
229.1458096548368
 20
164.4352882784192
 10
228.92902796682503
 20
164.98274181922844
 10
228.76694997242691
 20
165.54880754273915
 10
228.66113657132934
 20
166.12803392659092
 10
228.6126068044284
 20
166.71484270406987
 10
228.62182803990837
 20
167.30358258586662
 10
228.68871147223078
 20
167.88858368508147
 10
228.81261297738013
 20
168.4642121213349
 10
228.99233931613043
 20
169.02492427811524
 10
229.22615962559104
 20
169.56532019083622
 10
229.5118220883627
 20
170.08019555144796
 10
229.84657561876992
 20
170.5645918287682
 10
230.22719635732003
 20
171.01384402184843
 10
230.6500187182323
 20
171.42362558648307
 10
231.1109706910329
 20
171.78999010219528
 10
231.60561305624182
 20
172.10940927842353
 10
232.1291821374831
 20
172.37880693388848
 10
232.67663567829234
 20
172.59558862190028
 10
233.24270140180306
 20
172.7576666162984
 10
233.82192778565482
 20
172.86348001739594
 10
234.4087365631338
 20
172.9120097842969
 10
234.99747644493053
 20
172.90278854881691
 10
235.5824775441454
 20
172.83590511649453
 10
236.1581059803988
 20
172.71200361134515
 10
236.71881813717914
 20
172.53227727259488
 10
236.90245178920378
 20
172.45282205035312
 10
233.25096811744683
 20
200.03913123077862
  0
LWPOLYLINE
  5
57
330
17
100
AcDbEntity
  8
0
 62
0
100
AcDbPolyline
 90
65
 70
0
 10
233.64294545109348
 20
169.75547499336545
 10
233.36921868068885
 20
169.64708414935959
 10
233.10743414006822
 20
169.5123853216271
 10
232.86011295746374
 20
169.35267573351297
 10
232.62963697106343
 20
169.16949347565688
 10
232.41822579060732
 20
168.96460269333954
 10
232.22791542133226
 20
168.73997659679944
 10
232.06053865612864
 20
168.49777845813932
 10
231.91770742474282
 20
168.24034077783347
 10
231.8007972700125
 20
167.97014282147296
 10
231.71093410063736
 20
167.68978674308278
 10
231.6489833480627
 20
167.40197252495608
 10
231.6155416319015
 20
167.10947197534864
 10
231.6109310141615
 20
166.81510203445026
 10
231.63519589761196
 20
166.5216976457108
 10
231.68810259816075
 20
166.23208445378492
 10
231.76914159535983
 20
165.94905159202955
 10
231.87753243936572
 20
165.67532482162494
 10
232.01223126709817
 20
165.4135402810043
 10
232.1719408552123
 20
165.16621909839984
 10
232.35512311306843
 20
164.93574311199953
 10
232.56001389538574
 20
164.72433193154342
 10
232.78463999192584
 20
164.53402156226835
 10
233.026838130586
 20
164.36664479706474
 10
233.28427581089184
 20
164.22381356567888
 10
233.55447376725232
 20
164.10690341094858
 10
233.8348298456425
 20
164.01704024157345
 10
234.1226440637692
 20
163.95508948899877
 10
234.41514461337664
 20
163.92164777283756
 10
234.70951455427502
 20
163.91703715509757
 10
235.0029189430145
 20
163.94130203854806
 10
235.2925321349404
 20
163.99420873909685
 10
235.57556499669573
 20
164.0752477362959
 10
235.84929176710037
 20
164.1836385803018
 10
236.111076307721
 20
164.31833740803427
 10
236.35839749032544
 20
164.4780469961484
 10
236.58887347672578
 20
164.6612292540045
 10
236.8002846571819
 20
164.86612003632183
 10
236.99059502645693
 20
165.09074613286194
 10
237.15797179166057
 20
165.33294427152205
 10
237.3008030230464
 20
165.5903819518279
 10
237.4177131777767
 20
165.8605799081884
 10
237.50757634715185
 20
166.1409359865786
 10
237.5695270997265
 20
166.4287502047053
 10
237.60296881588772
 20
166.72125075431273
 10
237.6075794336277
 20
167.01562069521108
 10
237.58331455017725
 20
167.3090250839506
 10
237.53040784962846
 20
167.59863827587645
 10
237.4493688524294
 20
167.88167113763183
 10
237.3409780084235
 20
168.15539790803643
 10
237.20627918069104
 20
168.41718244865706
 10
237.0465695925769
 20
168.66450363126154
 10
236.86338733472078
 20
168.89497961766185
 10
236.65849655240348
 20
169.10639079811796
 10
236.43387045586337
 20
169.29670116739302
 10
236.19167231720323
 20
169.46407793259664
 10
235.93423463689737
 20
169.6069091639825
 10
235.66403668053687
 20
169.7238193187128
 10
235.3836806021467
 20
169.81368248808792
 10
235.09586638402
 20
169.8756332406626
 10
234.80336583441257
 20
169.90907495682382
 10
234.5089958935142
 20
169.9136855745638
 10
234.21559150477472
 20
169.88942069111332
 10
233.92597831284883
 20
169.83651399056453
 10
233.64294545109348
 20
169.75547499336545
  0
LWPOLYLINE
  5
58
330
17
100
AcDbEntity
  8
0
 62
0
100
AcDbPolyline
 90
107
 70
0
 10
202.4548825938955
 20
245.0872646277174
 10
203.26234346051618
 20
250.02361804637331
 10
204.74133798701274
 20
254.73109734249408
 10
205.76140944672647
 20
256.9888417658379
 10
206.88630742881165
 20
259.19596819378967
 10
209.6262369988593
 20
263.2605314125361
 10
212.95500160563782
 20
266.9072289796211
 10
216.8733509265674
 20
270.1380185760747
 10
219.07846701362774
 20
271.5808525169248
 10
221.36652381026997
 20
272.94014579809914
 10
226.2770532058504
 20
275.20488061901017
 10
231.59056097839897
 20
276.9251583476243
 10
237.30891314370785
 20
278.1011623144175
 10
240.33747414593452
 20
278.4624523126504
 10
244.23869116209102
 20
278.84573522754636
 10
247.31890167242784
 20
279.10000000153525
 10
253.23003783953928
 20
279.1000000016576
 10
258.8404352668772
 20
278.4887598398184
 10
264.14831960388733
 20
277.2651631776457
 10
266.6755492699647
 20
276.3977976778642
 10
269.1386874145112
 20
275.4380981234274
 10
273.64508180081253
 20
273.0670428897298
 10
277.64829261344204
 20
270.1557622191708
 10
281.14906952982005
 20
266.7062137927803
 10
282.6903916602701
 20
264.75789547837496
 10
284.13546348188845
 20
262.73135385630303
 10
286.51414072119087
 20
258.3821549822451
 10
288.27838356609425
 20
253.67585543936298
 10
289.4274423391782
 20
248.6104975466266
 10
289.7453639000962
 20
245.92747682409953
 10
289.9571473500937
 20
243.23811040882256
 10
289.8364985751212
 20
238.06119573565536
 10
289.06262599275954
 20
233.12814226556517
 10
287.63534627253273
 20
228.44081601434416
 10
286.6493846893804
 20
226.20023898585123
 10
285.56102349475424
 20
224.01114639864886
 10
282.90099865385145
 20
219.9770419103469
 10
279.66033616128993
 20
216.35407233244123
 10
275.83828633964947
 20
213.14027998390173
 10
273.6847355793471
 20
211.70314019148162
 10
271.44600052904116
 20
210.3468085970465
 10
266.6417014795845
 20
208.06990226065952
 10
261.4426885701948
 20
206.31565665110998
 10
255.84616277718368
 20
205.0837967726841
 10
252.88121987861945
 20
204.68542443138
 10
248.09426736644787
 20
204.2151206506021
 10
245.00348276662206
 20
203.95981700391653
 10
239.07802247497824
 20
203.95699668076205
 10
233.46257699169146
 20
204.56208880379714
 10
228.16012867092584
 20
205.7735023529434
 10
225.6404383777384
 20
206.6312464225335
 10
223.18447839696896
 20
207.58819715976296
 10
218.68573140431215
 20
209.95811969957185
 10
214.6817872697791
 20
212.87686443329957
 10
211.17152965499784
 20
216.34620571150037
 10
209.62168493728097
 20
218.3109569589224
 10
208.16521949087115
 20
220.34799736076198
 10
205.7714258509283
 20
224.72161647125012
 10
203.99883500151037
 20
229.4553562595871
 10
203.35343941886316
 20
232.30622635705856
 10
203.34746358402523
 20
232.3008128101439
 10
202.8744403910623
 20
231.95017234111472
 10
202.36932615800586
 20
231.64758468246754
 10
201.8369854110437
 20
231.39596391876626
 10
201.28254488257616
 20
231.19773329551532
 10
200.7113441379804
 20
231.05480188198047
 10
200.12888415267696
 20
230.9685461858083
 10
199.54077433472935
 20
230.93979689650513
 10
198.9526785031779
 20
230.9688308854429
 10
198.37026034236635
 20
231.05536853943653
 10
197.79912885756548
 20
231.1985764535718
 10
197.24478435718615
 20
231.39707545735016
 10
196.7125654818025
 20
231.64895389685464
 10
196.20759779012496
 20
231.95178604502203
 10
195.73474439706777
 20
232.3026554627206
 10
195.29855913929407
 20
232.69818308565317
 10
194.9032427192793
 20
233.13455976659355
 10
194.55260225025012
 20
233.60758295955645
 10
194.2500145916029
 20
234.11269719261293
 10
193.99839382790168
 20
234.64503793957508
 10
193.80016320465072
 20
235.19947846804263
 10
193.65723179111586
 20
235.77067921263838
 10
193.5709760949437
 20
236.35313919794183
 10
193.54222680564052
 20
236.94124901588944
 10
193.5712607945783
 20
237.52934484744088
 10
193.65779844857195
 20
238.11176300825244
 10
193.8010063627072
 20
238.6828944930533
 10
193.99950536648555
 20
239.23723899343264
 10
194.25138380599003
 20
239.7694578688163
 10
194.55421595415743
 20
240.27442556049382
 10
194.905085371856
 20
240.747278953551
 10
195.3006129947886
 20
241.18346421132472
 10
195.73698967572895
 20
241.5787806313395
 10
196.21001286869185
 20
241.92942110036864
 10
196.71512710174832
 20
242.23200875901586
 10
197.24746784871047
 20
242.4836295227171
 10
197.80190837717802
 20
242.68186014596807
 10
198.37310912177378
 20
242.82479155950293
 10
198.95556910707722
 20
242.91104725567507
 10
199.54367892502484
 20
242.93979654497826
 10
200.13177475657628
 20
242.91076255604048
 10
200.71419291738783
 20
242.82422490204684
 10
201.2853244021887
 20
242.6810169879116
 10
201.83966890256804
 20
242.4825179841332
 10
202.37188777795168
 20
242.23063954462876
 10
202.37844482517326
 20
242.22670724415
 10
202.4548825938955
 20
245.0872646277174
  0
LWPOLYLINE
  5
59
330
17
100
AcDbEntity
  8
0
 62
0
100
AcDbPolyline
 90
42
 70
0
 10
242.7312763233012
 20
257.67691380301267
 10
239.63457734553526
 20
257.32839773607185
 10
234.12093027221383
 20
256.25493163443576
 10
229.42138734204613
 20
254.7287400669594
 10
225.53417420447795
 20
252.74870669527093
 10
223.92837300115247
 20
251.5691706307821
 10
222.465949586938
 20
250.3173697469073
 10
220.25968250518503
 20
247.50394974676934
 10
218.9166333252638
 20
244.31799065937304
 10
218.4378267203084
 20
240.75865114206027
 10
218.55890874315838
 20
238.82309070077525
 10
218.80447933322458
 20
236.94120949344375
 10
219.85943140321507
 20
233.61574877072292
 10
221.5910924414413
 20
230.81594550050698
 10
223.9996134483546
 20
228.54146126298969
 10
227.08514542440616
 20
226.7919576383647
 10
230.84783937004718
 20
225.56709620682577
 10
235.287846285729
 20
224.8665385485666
 10
240.40531717190274
 20
224.68994624378087
 10
243.24638589453048
 20
224.81984208124126
 10
249.49220927876388
 20
225.3731866872178
 10
252.54791701926078
 20
225.7170474784253
 10
258.0162051888675
 20
226.77757907971875
 10
262.7119833764175
 20
228.28456049784577
 10
266.6344102392525
 20
230.23696705967237
 10
268.2730784485419
 20
231.39837989803522
 10
269.7733754659122
 20
232.63223543442106
 10
272.03543969095426
 20
235.45302136462743
 10
273.4106759333943
 20
238.69489550372188
 10
273.89842618105
 20
242.35496716277822
 10
273.77226871914934
 20
244.35816795060987
 10
273.51654005207877
 20
246.2547513860918
 10
272.35480783504124
 20
249.60816721385683
 10
270.4134204682064
 20
252.43564370271028
 10
267.6931276289944
 20
254.73913853368225
 10
266.0087183915971
 20
255.67329438877056
 10
264.20035235192313
 20
256.5108046271356
 10
260.0258109203869
 20
257.695026646222
 10
255.18181576751064
 20
258.2911302232425
 10
249.66827522805647
 20
258.300048366093
 10
246.63249333945768
 20
258.0601967179086
 10
242.7312763233012
 20
257.67691380301267
  0
LWPOLYLINE
  5
5A
330
17
100
AcDbEntity
  8
0
 62
0
100
AcDbPolyline
 90
65
 70
0
 10
198.67206750352756
 20
239.81082843335489
 10
198.3948472392938
 20
239.71171312172942
 10
198.1286768658127
 20
239.58590273987878
 10
197.87611974928447
 20
239.43460891055517
 10
197.63960815280302
 20
239.2592886760406
 10
197.42141981233283
 20
239.0616304660332
 10
197.22365600086653
 20
238.84353783714636
 10
197.04822129201727
 20
238.60711114061775
 10
196.89680521793355
 20
238.354627294779
 10
196.77086599818134
 20
238.08851785708717
 10
196.67161649629213
 20
237.8113456068975
 10
196.6000125392245
 20
237.52577986449705
 10
196.5567437122277
 20
237.2345707840913
 10
196.5422267177588
 20
236.94052286831555
 10
196.5566013624104
 20
236.64646795934175
 10
196.59972921049646
 20
236.35523796669003
 10
196.6711949172639
 20
236.06963759439216
 10
196.77031022888937
 20
235.7924173301584
 10
196.89612061074
 20
235.5262469566773
 10
197.04741444006362
 20
235.27368984014907
 10
197.2227346745782
 20
235.03717824366763
 10
197.4203928845856
 20
234.81898990319743
 10
197.63848551347243
 20
234.62122609173113
 10
197.874912210001
 20
234.44579138288185
 10
198.1273960558398
 20
234.29437530879815
 10
198.39350549353162
 20
234.16843608904594
 10
198.67067774372128
 20
234.06918658715676
 10
198.95624348612174
 20
233.9975826300891
 10
199.2474525665275
 20
233.9543138030923
 10
199.5415004823032
 20
233.9397968086234
 10
199.83555539127704
 20
233.954171453275
 10
200.12678538392873
 20
233.99729930136107
 10
200.41238575622663
 20
234.0687650081285
 10
200.6896060204604
 20
234.16788031975398
 10
200.95577639394148
 20
234.29369070160462
 10
201.2083335104697
 20
234.44498453092822
 10
201.44484510695116
 20
234.6203047654428
 10
201.66303344742136
 20
234.81796297545017
 10
201.86079725888763
 20
235.03605560433704
 10
202.03623196773694
 20
235.27248230086565
 10
202.18764804182064
 20
235.5249661467044
 10
202.31358726157285
 20
235.79107558439622
 10
202.41283676346205
 20
236.0682478345859
 10
202.48444072052968
 20
236.35381357698634
 10
202.52770954752648
 20
236.6450226573921
 10
202.54222654199538
 20
236.9390705731678
 10
202.5278518973438
 20
237.23312548214165
 10
202.48472404925772
 20
237.52435547479334
 10
202.41325834249028
 20
237.80995584709123
 10
202.3141430308648
 20
238.087176111325
 10
202.18833264901417
 20
238.35334648480608
 10
202.03703881969057
 20
238.60590360133432
 10
201.861718585176
 20
238.84241519781577
 10
201.66406037516862
 20
239.06060353828596
 10
201.44596774628175
 20
239.25836734975223
 10
201.20954104975317
 20
239.43380205860151
 10
200.9570572039144
 20
239.5852181326852
 10
200.69094776622256
 20
239.71115735243745
 10
200.4137755160329
 20
239.81040685432663
 10
200.12820977363245
 20
239.88201081139425
 10
199.83700069322668
 20
239.9252796383911
 10
199.54295277745098
 20
239.93979663285998
 10
199.24889786847714
 20
239.92542198820837
 10
198.95766787582545
 20
239.88229414012233
 10
198.67206750352756
 20
239.81082843335489
  0
LWPOLYLINE
  5
5B
330
17
100
AcDbEntity
  8
0
 62
0
100
AcDbPolyline
 90
58
 70
0
 10
357.66108321636364
 20
59.77995286108774
 10
373.54107071565926
 20
59.79987827736981
 10
373.58915270255653
 20
21.479908442797452
 10
391.56913854873636
 20
21.50246883226543
 10
391.5285474141819
 20
53.85244336640988
 10
406.8285353700524
 20
53.871641028192975
 10
406.86912650460687
 20
21.521666494048517
 10
427.19911050087137
 20
21.547175543986448
 10
427.15117908387043
 20
59.74714547302256
 10
442.971166630398
 20
59.76699560435646
 10
443.0448956896381
 20
1.007041860111368
 10
357.73496284550015
 20
0.8999992113064224
 10
357.7108995913983
 20
20.077725233220463
 10
357.5394092169932
 20
19.974645157629702
 10
357.0074456918417
 20
19.72222786917608
 10
356.45330249568036
 20
19.523167582453993
 10
355.8823163304136
 20
19.379381356842018
 10
355.2999861049456
 20
19.292253932294322
 10
354.711919977682
 20
19.26262439353801
 10
354.1237813468977
 20
19.290778089228446
 10
353.5412343091166
 20
19.376443883885763
 10
352.96988911076505
 20
19.518796769077724
 10
352.4152481184323
 20
19.716465808701933
 10
351.8826528280721
 20
19.967547341849908
 10
351.37723242347676
 20
20.26962331610231
 10
350.9038543794335
 20
20.619784574695565
 10
350.46707758528123
 20
21.014658873291815
 10
350.07110844031405
 20
21.45044335653531
 10
349.7197603438568
 20
21.922941181628403
 10
349.4164169701448
 20
22.42760193622184
 10
349.16399968169117
 20
22.95956546137328
 10
348.9649393949691
 20
23.513708657534664
 10
348.8211531693571
 20
24.08469482280146
 10
348.7340257448094
 20
24.66702504826938
 10
348.7043962060531
 20
25.255091175533067
 10
348.73254990174354
 20
25.84322980631734
 10
348.81821569640084
 20
26.42577684409845
 10
348.96056858159284
 20
26.99712204244998
 10
349.15823762121704
 20
27.551763034782738
 10
349.409319154365
 20
28.084358325142958
 10
349.7113951286174
 20
28.589778729738264
 10
350.06155638721066
 20
29.063156773781515
 10
350.45643068580694
 20
29.499933567933795
 10
350.8922151690504
 20
29.89590271290095
 10
351.36471299414353
 20
30.247250809358192
 10
351.86937374873696
 20
30.550594183070224
 10
352.4013372738884
 20
30.803011471523853
 10
352.95548047004974
 20
31.002071758245926
 10
353.5264666353166
 20
31.14585798385791
 10
354.1087968607845
 20
31.232985408405604
 10
354.69686298804817
 20
31.26261494716192
 10
355.28500161883244
 20
31.23446125147148
 10
355.86754865661356
 20
31.148795456814163
 10
356.43889385496504
 20
31.006442571622195
 10
356.99353484729784
 20
30.808773531998
 10
357.5261301376581
 20
30.557691998850018
 10
357.6978786511438
 20
30.455042602296366
 10
357.66108321636364
 20
59.77995286108774
  0
LWPOLYLINE
  5
5C
330
17
100
AcDbEntity
  8
0
 62
0
100
AcDbPolyline
 90
65
 70
0
 10
354.1154290590908
 20
28.204238827103943
 10
353.8299359764574
 20
28.132345714297948
 10
353.55286437837674
 20
28.032815570936904
 10
353.286882615801
 20
27.906606926710097
 10
353.03455223850426
 20
27.754935239854078
 10
352.79830332595776
 20
27.579261191625456
 10
352.580411084336
 20
27.381276619141886
 10
352.38297393503785
 20
27.16288822206574
 10
352.2078933057412
 20
26.926199200044117
 10
352.056855318615
 20
26.67348899774646
 10
351.93131455204104
 20
26.407191352566358
 10
351.83248003222894
 20
26.129870856399968
 10
351.761303589633
 20
25.844198257224207
 10
351.7184706923043
 20
25.55292473833365
 10
351.7043938444591
 20
25.258855422941515
 10
351.7192086138372
 20
24.96482235930968
 10
351.7627723261111
 20
24.673657246575708
 10
351.83466543891706
 20
24.388164163942314
 10
351.9341955822781
 20
24.111092565861625
 10
352.06040422650494
 20
23.845110803285905
 10
352.21207591336093
 20
23.592780425989183
 10
352.3877499615896
 20
23.35653151344264
 10
352.58573453407314
 20
23.138639271820892
 10
352.80412293114927
 20
22.941202122522768
 10
353.04081195317093
 20
22.766121493226137
 10
353.29352215546857
 20
22.615083506099936
 10
353.55981980064865
 20
22.48954273952595
 10
353.83714029681505
 20
22.390708219713844
 10
354.1228128959908
 20
22.319531777117867
 10
354.41408641488135
 20
22.27669887978921
 10
354.7081557302735
 20
22.262622031943984
 10
355.00218879390536
 20
22.277436801322146
 10
355.2933539066393
 20
22.32100051359599
 10
355.57884698927273
 20
22.39289362640198
 10
355.8559185873534
 20
22.492423769763022
 10
356.12190034992915
 20
22.618632413989836
 10
356.37423072722584
 20
22.77030410084585
 10
356.6104796397724
 20
22.94597814907447
 10
356.82837188139416
 20
23.143962721558047
 10
357.02580903069224
 20
23.362351118634187
 10
357.2008896599889
 20
23.59904014065581
 10
357.3519276471151
 20
23.851750342953466
 10
357.47746841368905
 20
24.118047988133576
 10
357.57630293350115
 20
24.395368484299958
 10
357.6474793760972
 20
24.68104108347572
 10
357.69031227342583
 20
24.972314602366282
 10
357.70438912127105
 20
25.266383917758418
 10
357.6895743518929
 20
25.56041698139026
 10
357.646010639619
 20
25.85158209412421
 10
357.57411752681304
 20
26.137075176757612
 10
357.474587383452
 20
26.414146774838308
 10
357.3483787392252
 20
26.68012853741402
 10
357.19670705236916
 20
26.932458914710743
 10
357.0210330041406
 20
27.168707827257286
 10
356.82304843165696
 20
27.38660006887904
 10
356.60466003458083
 20
27.58403721817716
 10
356.3679710125592
 20
27.75911784747379
 10
356.1152608102616
 20
27.910155834599998
 10
355.84896316508144
 20
28.03569660117398
 10
355.57164266891505
 20
28.134531120986082
 10
355.2859700697393
 20
28.205707563582067
 10
354.99469655084874
 20
28.248540460910725
 10
354.70062723545664
 20
28.262617308755942
 10
354.4065941718248
 20
28.247802539377787
 10
354.1154290590908
 20
28.204238827103943
  0
ENDSEC
  0
SECTION
  2
OBJECTS
  0
DICTIONARY
  5
A
330
0
100
AcDbDictionary
280
0
281
1
  3
ACAD_COLOR
350
B
  3
ACAD_GROUP
350
C
  3
ACAD_LAYOUT
350
D
  3
ACAD_MATERIAL
350
E
  3
ACAD_MLEADERSTYLE
350
F
  3
ACAD_MLINESTYLE
350
10
  3
ACAD_PLOTSETTINGS
350
11
  3
ACAD_PLOTSTYLENAME
350
12
  3
ACAD_SCALELIST
350
14
  3
ACAD_TABLESTYLE
350
15
  3
ACAD_VISUALSTYLE
350
16
  3
EZDXF_META
350
2D
  0
DICTIONARY
  5
B
330
A
100
AcDbDictionary
280
0
281
1
  0
DICTIONARY
  5
C
330
A
100
AcDbDictionary
280
0
281
1
  0
DICTIONARY
  5
D
330
A
100
AcDbDictionary
280
0
281
1
  3
Model
350
1A
  3
Layout1
350
1E
  0
DICTIONARY
  5
E
330
A
100
AcDbDictionary
280
0
281
1
  3
ByBlock
350
1F
  3
ByLayer
350
20
  3
Global
350
21
  0
DICTIONARY
  5
F
330
A
100
AcDbDictionary
280
0
281
1
  3
Standard
350
2C
  0
DICTIONARY
  5
10
330
A
100
AcDbDictionary
280
0
281
1
  3
Standard
350
22
  0
DICTIONARY
  5
11
330
A
100
AcDbDictionary
280
0
281
1
  0
ACDBDICTIONARYWDFLT
  5
12
330
A
100
AcDbDictionary
280
0
281
1
  3
Normal
350
13
100
AcDbDictionaryWithDefault
340
13
  0
ACDBPLACEHOLDER
  5
13
330
12
  0
DICTIONARY
  5
14
330
A
100
AcDbDictionary
280
0
281
1
  0
DICTIONARY
  5
15
330
A
100
AcDbDictionary
280
0
281
1
  0
DICTIONARY
  5
16
330
A
100
AcDbDictionary
280
0
281
1
  0
LAYOUT
  5
1A
330
D
100
AcDbPlotSettings
  1

  4
A3
  6

 40
7.5
 41
20.0
 42
7.5
 43
20.0
 44
420.0
 45
297.0
 46
0.0
 47
0.0
 48
0.0
 49
0.0
140
0.0
141
0.0
142
1.0
143
1.0
 70
1024
 72
1
 73
0
 74
5
  7

 75
16
 76
0
 77
2
 78
300
147
1.0
148
0.0
149
0.0
100
AcDbLayout
  1
Model
 70
1
 71
0
 10
0.0
 20
0.0
 11
420.0
 21
297.0
 12
0.0
 22
0.0
 32
0.0
 14
1e+20
 24
1e+20
 34
1e+20
 15
-1e+20
 25
-1e+20
 35
-1e+20
146
0.0
 13
0.0
 23
0.0
 33
0.0
 16
1.0
 26
0.0
 36
0.0
 17
0.0
 27
1.0
 37
0.0
 76
1
330
17
  0
LAYOUT
  5
1E
330
D
100
AcDbPlotSettings
  1

  4
A3
  6

 40
7.5
 41
20.0
 42
7.5
 43
20.0
 44
420.0
 45
297.0
 46
0.0
 47
0.0
 48
0.0
 49
0.0
140
0.0
141
0.0
142
1.0
143
1.0
 70
0
 72
1
 73
0
 74
5
  7

 75
16
 76
0
 77
2
 78
300
147
1.0
148
0.0
149
0.0
100
AcDbLayout
  1
Layout1
 70
1
 71
1
 10
0.0
 20
0.0
 11
420.0
 21
297.0
 12
0.0
 22
0.0
 32
0.0
 14
1e+20
 24
1e+20
 34
1e+20
 15
-1e+20
 25
-1e+20
 35
-1e+20
146
0.0
 13
0.0
 23
0.0
 33
0.0
 16
1.0
 26
0.0
 36
0.0
 17
0.0
 27
1.0
 37
0.0
 76
1
330
1B
  0
MATERIAL
  5
1F
102
{ACAD_REACTORS
330
E
102
}
330
E
100
AcDbMaterial
  1
ByBlock
  2

 70
0
 40
1.0
 71
1
 41
1.0
 91
-1023410177
 42
1.0
 72
1
  3

 73
1
 74
1
 75
1
 44
0.5
 73
0
 45
1.0
 46
1.0
 77
1
  4

 78
1
 79
1
170
1
 48
1.0
171
1
  6

172
1
173
1
174
1
140
1.0
141
1.0
175
1
  7

176
1
177
1
178
1
143
1.0
179
1
  8

270
1
271
1
272
1
145
1.0
146
1.0
273
1
  9

274
1
275
1
276
1
 42
1.0
 72
1
  3

 73
1
 74
1
 75
1
 94
63
  0
MATERIAL
  5
20
102
{ACAD_REACTORS
330
E
102
}
330
E
100
AcDbMaterial
  1
ByLayer
  2

 70
0
 40
1.0
 71
1
 41
1.0
 91
-1023410177
 42
1.0
 72
1
  3

 73
1
 74
1
 75
1
 44
0.5
 73
0
 45
1.0
 46
1.0
 77
1
  4

 78
1
 79
1
170
1
 48
1.0
171
1
  6

172
1
173
1
174
1
140
1.0
141
1.0
175
1
  7

176
1
177
1
178
1
143
1.0
179
1
  8

270
1
271
1
272
1
145
1.0
146
1.0
273
1
  9

274
1
275
1
276
1
 42
1.0
 72
1
  3

 73
1
 74
1
 75
1
 94
63
  0
MATERIAL
  5
21
102
{ACAD_REACTORS
330
E
102
}
330
E
100
AcDbMaterial
  1
Global
  2

 70
0
 40
1.0
 71
1
 41
1.0
 91
-1023410177
 42
1.0
 72
1
  3

 73
1
 74
1
 75
1
 44
0.5
 73
0
 45
1.0
 46
1.0
 77
1
  4

 78
1
 79
1
170
1
 48
1.0
171
1
  6

172
1
173
1
174
1
140
1.0
141
1.0
175
1
  7

176
1
177
1
178
1
143
1.0
179
1
  8

270
1
271
1
272
1
145
1.0
146
1.0
273
1
  9

274
1
275
1
276
1
 42
1.0
 72
1
  3

 73
1
 74
1
 75
1
 94
63
  0
MLINESTYLE
  5
22
102
{ACAD_REACTORS
330
10
102
}
330
10
100
AcDbMlineStyle
  2
Standard
 70
0
  3

 62
256
 51
90.0
 52
90.0
 71
2
 49
0.5
 62
256
  6
BYLAYER
 49
-0.5
 62
256
  6
BYLAYER
  0
MLEADERSTYLE
  5
2C
102
{ACAD_REACTORS
330
F
102
}
330
F
100
AcDbMLeaderStyle
179
2
170
2
171
1
172
0
 90
2
 40
0.0
 41
0.0
173
1
 91
-1056964608
 92
-2
290
1
 42
2.0
291
1
 43
8.0
  3
Standard
 44
4.0
300

342
29
174
1
175
1
176
0
178
1
 93
-1056964608
 45
4.0
292
0
297
0
 46
4.0
 94
-1056964608
 47
1.0
 49
1.0
140
1.0
294
1
141
0.0
177
0
142
1.0
295
0
296
0
143
3.75
271
0
272
9
273
9
  0
DICTIONARY
  5
2D
330
A
100
AcDbDictionary
281
1
  3
CREATED_BY_EZDXF
350
2E
  3
WRITTEN_BY_EZDXF
350
5F
  0
DICTIONARYVAR
  5
2E
330
2D
100
DictionaryVariables
280
0
  1
1.3.2 @ 2025-01-06T02:16:58.571076+00:00
  0
DICTIONARYVAR
  5
5F
330
2D
100
DictionaryVariables
280
0
  1
1.3.2 @ 2025-01-06T02:16:59.246873+00:00
  0
ENDSEC
  0
EOF
