  0
SECTION
  2
HEADER
  9
$ACADVER
  1
AC1024
  9
$ACADMAINTVER
 70
6
  9
$DWGCODEPAGE
  3
ANSI_1252
  9
$LASTSAVEDBY
  1
ezdxf
  9
$INSBASE
 10
0.0
 20
0.0
 30
0.0
  9
$EXTMIN
 10
1e+20
 20
1e+20
 30
1e+20
  9
$EXTMAX
 10
-1e+20
 20
-1e+20
 30
-1e+20
  9
$LIMMIN
 10
0.0
 20
0.0
  9
$LIMMAX
 10
420.0
 20
297.0
  9
$ORTHOMODE
 70
0
  9
$REGENMODE
 70
1
  9
$FILLMODE
 70
1
  9
$QTEXTMODE
 70
0
  9
$MIRRTEXT
 70
1
  9
$LTSCALE
 40
1.0
  9
$ATTMODE
 70
1
  9
$TEXTSIZE
 40
2.5
  9
$TRACEWID
 40
1.0
  9
$TEXTSTYLE
  7
Standard
  9
$CLAYER
  8
0
  9
$CELTYPE
  6
ByLayer
  9
$CECOLOR
 62
256
  9
$CELTSCALE
 40
1.0
  9
$DISPSILH
 70
0
  9
$DIMSCALE
 40
1.0
  9
$DIMASZ
 40
2.5
  9
$DIMEXO
 40
0.625
  9
$DIMDLI
 40
3.75
  9
$DIMRND
 40
0.0
  9
$DIMDLE
 40
0.0
  9
$DIMEXE
 40
1.25
  9
$DIMTP
 40
0.0
  9
$DIMTM
 40
0.0
  9
$DIMTXT
 40
2.5
  9
$DIMCEN
 40
2.5
  9
$DIMTSZ
 40
0.0
  9
$DIMTOL
 70
0
  9
$DIMLIM
 70
0
  9
$DIMTIH
 70
0
  9
$DIMTOH
 70
0
  9
$DIMSE1
 70
0
  9
$DIMSE2
 70
0
  9
$DIMTAD
 70
1
  9
$DIMZIN
 70
8
  9
$DIMBLK
  1

  9
$DIMASO
 70
1
  9
$DIMSHO
 70
1
  9
$DIMPOST
  1

  9
$DIMAPOST
  1

  9
$DIMALT
 70
0
  9
$DIMALTD
 70
3
  9
$DIMALTF
 40
0.03937007874
  9
$DIMLFAC
 40
1.0
  9
$DIMTOFL
 70
1
  9
$DIMTVP
 40
0.0
  9
$DIMTIX
 70
0
  9
$DIMSOXD
 70
0
  9
$DIMSAH
 70
0
  9
$DIMBLK1
  1

  9
$DIMBLK2
  1

  9
$DIMSTYLE
  2
ISO-25
  9
$DIMCLRD
 70
0
  9
$DIMCLRE
 70
0
  9
$DIMCLRT
 70
0
  9
$DIMTFAC
 40
1.0
  9
$DIMGAP
 40
0.625
  9
$DIMJUST
 70
0
  9
$DIMSD1
 70
0
  9
$DIMSD2
 70
0
  9
$DIMTOLJ
 70
0
  9
$DIMTZIN
 70
8
  9
$DIMALTZ
 70
0
  9
$DIMALTTZ
 70
0
  9
$DIMUPT
 70
0
  9
$DIMDEC
 70
2
  9
$DIMTDEC
 70
2
  9
$DIMALTU
 70
2
  9
$DIMALTTD
 70
3
  9
$DIMTXSTY
  7
Standard
  9
$DIMAUNIT
 70
0
  9
$DIMADEC
 70
0
  9
$DIMALTRND
 40
0.0
  9
$DIMAZIN
 70
0
  9
$DIMDSEP
 70
44
  9
$DIMATFIT
 70
3
  9
$DIMFRAC
 70
0
  9
$DIMLDRBLK
  1

  9
$DIMLUNIT
 70
2
  9
$DIMLWD
 70
-2
  9
$DIMLWE
 70
-2
  9
$DIMTMOVE
 70
0
  9
$DIMFXL
 40
1.0
  9
$DIMFXLON
 70
0
  9
$DIMJOGANG
 40
0.785398163397
  9
$DIMTFILL
 70
0
  9
$DIMTFILLCLR
 70
0
  9
$DIMARCSYM
 70
0
  9
$DIMLTYPE
  6

  9
$DIMLTEX1
  6

  9
$DIMLTEX2
  6

  9
$DIMTXTDIRECTION
 70
0
  9
$LUNITS
 70
2
  9
$LUPREC
 70
4
  9
$SKETCHINC
 40
1.0
  9
$FILLETRAD
 40
10.0
  9
$AUNITS
 70
0
  9
$AUPREC
 70
2
  9
$MENU
  1
.
  9
$ELEVATION
 40
0.0
  9
$PELEVATION
 40
0.0
  9
$THICKNESS
 40
0.0
  9
$LIMCHECK
 70
0
  9
$CHAMFERA
 40
0.0
  9
$CHAMFERB
 40
0.0
  9
$CHAMFERC
 40
0.0
  9
$CHAMFERD
 40
0.0
  9
$SKPOLY
 70
0
  9
$TDCREATE
 40
2460397.4826041665
  9
$TDUCREATE
 40
2458532.153996898
  9
$TDUPDATE
 40
2460397.4826041665
  9
$TDUUPDATE
 40
2458532.1544311
  9
$TDINDWG
 40
0.0
  9
$TDUSRTIMER
 40
0.0
  9
$USRTIMER
 70
1
  9
$ANGBASE
 50
0.0
  9
$ANGDIR
 70
0
  9
$PDMODE
 70
0
  9
$PDSIZE
 40
0.0
  9
$PLINEWID
 40
0.0
  9
$SPLFRAME
 70
0
  9
$SPLINETYPE
 70
6
  9
$SPLINESEGS
 70
8
  9
$HANDSEED
  5
60
  9
$SURFTAB1
 70
6
  9
$SURFTAB2
 70
6
  9
$SURFTYPE
 70
6
  9
$SURFU
 70
6
  9
$SURFV
 70
6
  9
$UCSBASE
  2

  9
$UCSNAME
  2

  9
$UCSORG
 10
0.0
 20
0.0
 30
0.0
  9
$UCSXDIR
 10
1.0
 20
0.0
 30
0.0
  9
$UCSYDIR
 10
0.0
 20
1.0
 30
0.0
  9
$UCSORTHOREF
  2

  9
$UCSORTHOVIEW
 70
0
  9
$UCSORGTOP
 10
0.0
 20
0.0
 30
0.0
  9
$UCSORGBOTTOM
 10
0.0
 20
0.0
 30
0.0
  9
$UCSORGLEFT
 10
0.0
 20
0.0
 30
0.0
  9
$UCSORGRIGHT
 10
0.0
 20
0.0
 30
0.0
  9
$UCSORGFRONT
 10
0.0
 20
0.0
 30
0.0
  9
$UCSORGBACK
 10
0.0
 20
0.0
 30
0.0
  9
$PUCSBASE
  2

  9
$PUCSNAME
  2

  9
$PUCSORG
 10
0.0
 20
0.0
 30
0.0
  9
$PUCSXDIR
 10
1.0
 20
0.0
 30
0.0
  9
$PUCSYDIR
 10
0.0
 20
1.0
 30
0.0
  9
$PUCSORTHOREF
  2

  9
$PUCSORTHOVIEW
 70
0
  9
$PUCSORGTOP
 10
0.0
 20
0.0
 30
0.0
  9
$PUCSORGBOTTOM
 10
0.0
 20
0.0
 30
0.0
  9
$PUCSORGLEFT
 10
0.0
 20
0.0
 30
0.0
  9
$PUCSORGRIGHT
 10
0.0
 20
0.0
 30
0.0
  9
$PUCSORGFRONT
 10
0.0
 20
0.0
 30
0.0
  9
$PUCSORGBACK
 10
0.0
 20
0.0
 30
0.0
  9
$USERI1
 70
0
  9
$USERI2
 70
0
  9
$USERI3
 70
0
  9
$USERI4
 70
0
  9
$USERI5
 70
0
  9
$USERR1
 40
0.0
  9
$USERR2
 40
0.0
  9
$USERR3
 40
0.0
  9
$USERR4
 40
0.0
  9
$USERR5
 40
0.0
  9
$WORLDVIEW
 70
1
  9
$SHADEDGE
 70
3
  9
$SHADEDIF
 70
70
  9
$TILEMODE
 70
1
  9
$MAXACTVP
 70
64
  9
$PINSBASE
 10
0.0
 20
0.0
 30
0.0
  9
$PLIMCHECK
 70
0
  9
$PEXTMIN
 10
1e+20
 20
1e+20
 30
1e+20
  9
$PEXTMAX
 10
-1e+20
 20
-1e+20
 30
-1e+20
  9
$PLIMMIN
 10
0.0
 20
0.0
  9
$PLIMMAX
 10
420.0
 20
297.0
  9
$UNITMODE
 70
0
  9
$VISRETAIN
 70
1
  9
$PLINEGEN
 70
0
  9
$PSLTSCALE
 70
1
  9
$TREEDEPTH
 70
3020
  9
$CMLSTYLE
  2
Standard
  9
$CMLJUST
 70
0
  9
$CMLSCALE
 40
20.0
  9
$PROXYGRAPHICS
 70
1
  9
$MEASUREMENT
 70
1
  9
$CELWEIGHT
370
-1
  9
$ENDCAPS
280
0
  9
$JOINSTYLE
280
0
  9
$LWDISPLAY
290
0
  9
$INSUNITS
 70
4
  9
$HYPERLINKBASE
  1

  9
$STYLESHEET
  1

  9
$XEDIT
290
1
  9
$CEPSNTYPE
380
0
  9
$PSTYLEMODE
290
1
  9
$FINGERPRINTGUID
  2
{7B6C65E6-5ADD-46D6-839B-0179ACC5319F}
  9
$VERSIONGUID
  2
{42CDB916-FE36-4914-B05A-8D0D1515373B}
  9
$EXTNAMES
290
1
  9
$PSVPSCALE
 40
0.0
  9
$OLESTARTUP
290
0
  9
$SORTENTS
280
127
  9
$INDEXCTL
280
0
  9
$HIDETEXT
280
1
  9
$XCLIPFRAME
280
0
  9
$HALOGAP
280
0
  9
$OBSCOLOR
 70
257
  9
$OBSLTYPE
280
0
  9
$INTERSECTIONDISPLAY
280
0
  9
$INTERSECTIONCOLOR
 70
257
  9
$DIMASSOC
280
2
  9
$PROJECTNAME
  1

  9
$CAMERADISPLAY
290
0
  9
$LENSLENGTH
 40
50.0
  9
$CAMERAHEIGHT
 40
0.0
  9
$STEPSPERSEC
 40
24.0
  9
$STEPSIZE
 40
100.0
  9
$3DDWFPREC
 40
2.0
  9
$PSOLWIDTH
 40
0.005
  9
$PSOLHEIGHT
 40
0.08
  9
$LOFTANG1
 40
1.570796326795
  9
$LOFTANG2
 40
1.570796326795
  9
$LOFTMAG1
 40
0.0
  9
$LOFTMAG2
 40
0.0
  9
$LOFTPARAM
 70
7
  9
$LOFTNORMALS
280
1
  9
$LATITUDE
 40
37.795
  9
$LONGITUDE
 40
-122.394
  9
$NORTHDIRECTION
 40
0.0
  9
$TIMEZONE
 70
-8000
  9
$LIGHTGLYPHDISPLAY
280
1
  9
$TILEMODELIGHTSYNCH
280
1
  9
$CMATERIAL
347
20
  9
$SOLIDHIST
280
0
  9
$SHOWHIST
280
1
  9
$DWFFRAME
280
2
  9
$DGNFRAME
280
2
  9
$REALWORLDSCALE
290
1
  9
$INTERFERECOLOR
 62
256
  9
$CSHADOW
280
0
  9
$SHADOWPLANELOCATION
 40
0.0
  0
ENDSEC
  0
SECTION
  2
CLASSES
  0
CLASS
  1
ACDBDICTIONARYWDFLT
  2
AcDbDictionaryWithDefault
  3
ObjectDBX Classes
 90
0
 91
0
280
0
281
0
  0
CLASS
  1
SUN
  2
AcDbSun
  3
SCENEOE
 90
1153
 91
0
280
0
281
0
  0
CLASS
  1
VISUALSTYLE
  2
AcDbVisualStyle
  3
ObjectDBX Classes
 90
4095
 91
0
280
0
281
0
  0
CLASS
  1
MATERIAL
  2
AcDbMaterial
  3
ObjectDBX Classes
 90
1153
 91
0
280
0
281
0
  0
CLASS
  1
SCALE
  2
AcDbScale
  3
ObjectDBX Classes
 90
1153
 91
0
280
0
281
0
  0
CLASS
  1
TABLESTYLE
  2
AcDbTableStyle
  3
ObjectDBX Classes
 90
4095
 91
0
280
0
281
0
  0
CLASS
  1
MLEADERSTYLE
  2
AcDbMLeaderStyle
  3
ACDB_MLEADERSTYLE_CLASS
 90
4095
 91
0
280
0
281
0
  0
CLASS
  1
DICTIONARYVAR
  2
AcDbDictionaryVar
  3
ObjectDBX Classes
 90
0
 91
0
280
0
281
0
  0
CLASS
  1
CELLSTYLEMAP
  2
AcDbCellStyleMap
  3
ObjectDBX Classes
 90
1152
 91
0
280
0
281
0
  0
CLASS
  1
MENTALRAYRENDERSETTINGS
  2
AcDbMentalRayRenderSettings
  3
SCENEOE
 90
1024
 91
0
280
0
281
0
  0
CLASS
  1
ACDBDETAILVIEWSTYLE
  2
AcDbDetailViewStyle
  3
ObjectDBX Classes
 90
1025
 91
0
280
0
281
0
  0
CLASS
  1
ACDBSECTIONVIEWSTYLE
  2
AcDbSectionViewStyle
  3
ObjectDBX Classes
 90
1025
 91
0
280
0
281
0
  0
CLASS
  1
RASTERVARIABLES
  2
AcDbRasterVariables
  3
ISM
 90
0
 91
0
280
0
281
0
  0
CLASS
  1
LAYOUT
  2
AcDbLayout
  3
ObjectDBX Classes
 90
0
 91
0
280
0
281
0
  0
CLASS
  1
ACDBPLACEHOLDER
  2
AcDbPlaceHolder
  3
ObjectDBX Classes
 90
0
 91
0
280
0
281
0
  0
ENDSEC
  0
SECTION
  2
TABLES
  0
TABLE
  2
VPORT
  5
8
330
0
100
AcDbSymbolTable
 70
1
  0
VPORT
  5
23
330
8
100
AcDbSymbolTableRecord
100
AcDbViewportTableRecord
  2
*Active
 70
0
 10
0.0
 20
0.0
 11
1.0
 21
1.0
 12
0.0
 22
0.0
 13
0.0
 23
0.0
 14
0.5
 24
0.5
 15
0.5
 25
0.5
 16
0.0
 26
0.0
 36
1.0
 17
0.0
 27
0.0
 37
0.0
 40
1000.0
 41
1.34
 42
50.0
 43
0.0
 44
0.0
 50
0.0
 51
0.0
 71
0
 72
1000
 73
1
 74
3
 75
0
 76
0
 77
0
 78
0
281
0
 65
0
146
0.0
  0
ENDTAB
  0
TABLE
  2
LTYPE
  5
2
330
0
100
AcDbSymbolTable
 70
3
  0
LTYPE
  5
24
330
2
100
AcDbSymbolTableRecord
100
AcDbLinetypeTableRecord
  2
ByBlock
 70
0
  3

 72
65
 73
0
 40
0.0
  0
LTYPE
  5
25
330
2
100
AcDbSymbolTableRecord
100
AcDbLinetypeTableRecord
  2
ByLayer
 70
0
  3

 72
65
 73
0
 40
0.0
  0
LTYPE
  5
26
330
2
100
AcDbSymbolTableRecord
100
AcDbLinetypeTableRecord
  2
Continuous
 70
0
  3

 72
65
 73
0
 40
0.0
  0
ENDTAB
  0
TABLE
  2
LAYER
  5
1
330
0
100
AcDbSymbolTable
 70
3
  0
LAYER
  5
27
330
1
100
AcDbSymbolTableRecord
100
AcDbLayerTableRecord
  2
0
 70
0
 62
7
  6
Continuous
370
-3
390
13
347
21
  0
LAYER
  5
28
330
1
100
AcDbSymbolTableRecord
100
AcDbLayerTableRecord
  2
Defpoints
 70
0
 62
7
  6
Continuous
290
0
370
-3
390
13
347
21
  0
LAYER
  5
2F
330
1
100
AcDbSymbolTableRecord
100
AcDbLayerTableRecord
  2
default
 70
0
 62
7
  6
Continuous
370
-3
390
13
347
21
  0
ENDTAB
  0
TABLE
  2
STYLE
  5
5
330
0
100
AcDbSymbolTable
 70
1
  0
STYLE
  5
29
330
5
100
AcDbSymbolTableRecord
100
AcDbTextStyleTableRecord
  2
Standard
 70
0
 40
0.0
 41
1.0
 50
0.0
 71
0
 42
2.5
  3
txt
  4

  0
ENDTAB
  0
TABLE
  2
VIEW
  5
7
330
0
100
AcDbSymbolTable
 70
0
  0
ENDTAB
  0
TABLE
  2
UCS
  5
6
330
0
100
AcDbSymbolTable
 70
0
  0
ENDTAB
  0
TABLE
  2
APPID
  5
3
330
0
100
AcDbSymbolTable
 70
3
  0
APPID
  5
2A
330
3
100
AcDbSymbolTableRecord
100
AcDbRegAppTableRecord
  2
ACAD
 70
0
  0
APPID
  5
5D
330
3
100
AcDbSymbolTableRecord
100
AcDbRegAppTableRecord
  2
HATCHBACKGROUNDCOLOR
 70
0
  0
APPID
  5
5E
330
3
100
AcDbSymbolTableRecord
100
AcDbRegAppTableRecord
  2
EZDXF
 70
0
  0
ENDTAB
  0
TABLE
  2
DIMSTYLE
  5
4
330
0
100
AcDbSymbolTable
 70
1
100
AcDbDimStyleTable
  0
DIMSTYLE
105
2B
330
4
100
AcDbSymbolTableRecord
100
AcDbDimStyleTableRecord
  2
Standard
 70
0
 40
1.0
 41
2.5
 42
0.625
 43
3.75
 44
1.25
 45
0.0
 46
0.0
 47
0.0
 48
0.0
 49
2.5
140
2.5
141
2.5
142
0.0
143
0.03937007874
144
1.0
145
0.0
146
1.0
147
0.625
148
0.0
 69
0
 70
0
 71
0
 72
0
 73
0
 74
0
 75
0
 76
0
 77
1
 78
8
 79
3
170
0
171
3
172
1
173
0
174
0
175
0
176
0
177
0
178
0
179
2
271
2
272
2
273
2
274
3
275
0
276
0
277
2
278
44
279
0
280
0
281
0
282
0
283
0
284
8
285
0
286
0
288
0
289
3
290
0
371
-2
372
-2
  0
ENDTAB
  0
TABLE
  2
BLOCK_RECORD
  5
9
330
0
100
AcDbSymbolTable
 70
2
  0
BLOCK_RECORD
  5
17
330
9
100
AcDbSymbolTableRecord
100
AcDbBlockTableRecord
  2
*Model_Space
340
1A
 70
0
280
1
281
0
  0
BLOCK_RECORD
  5
1B
330
9
100
AcDbSymbolTableRecord
100
AcDbBlockTableRecord
  2
*Paper_Space
340
1E
 70
0
280
1
281
0
  0
ENDTAB
  0
ENDSEC
  0
SECTION
  2
BLOCKS
  0
BLOCK
  5
18
330
17
100
AcDbEntity
  8
0
100
AcDbBlockBegin
  2
*Model_Space
 70
0
 10
0.0
 20
0.0
 30
0.0
  3
*Model_Space
  1

  0
ENDBLK
  5
19
330
17
100
AcDbEntity
  8
0
100
AcDbBlockEnd
  0
BLOCK
  5
1C
330
1B
100
AcDbEntity
  8
0
100
AcDbBlockBegin
  2
*Paper_Space
 70
0
 10
0.0
 20
0.0
 30
0.0
  3
*Paper_Space
  1

  0
ENDBLK
  5
1D
330
1B
100
AcDbEntity
  8
0
100
AcDbBlockEnd
  0
ENDSEC
  0
SECTION
  2
ENTITIES
  0
LWPOLYLINE
  5
30
330
17
100
AcDbEntity
  8
0
 62
0
100
AcDbPolyline
 90
103
 70
0
 10
189.987
 20
-31.35500000000001
 10
220.277
 20
-31.35500000000001
 10
220.277
 20
2.5049999999999955
 10
229.53833723095704
 20
2.5049999999999955
 10
229.43547241390988
 20
2.676619579044015
 10
229.18372280493227
 20
3.2088994058094613
 10
228.98535798560675
 20
3.763291936473223
 10
228.84228831758062
 20
4.334458067903228
 10
228.75589163996682
 20
4.9168971580226355
 10
228.727
 20
5.5049999999999955
 10
228.75589163996682
 20
6.093102841977355
 10
228.84228831758062
 20
6.675541932096763
 10
228.98535798560675
 20
7.246708063526768
 10
229.18372280493227
 20
7.80110059419053
 10
229.43547241390985
 20
8.333380420955976
 10
229.73818232618473
 20
8.838421398117603
 10
230.08893727982357
 20
9.311359704981868
 10
230.4843593128807
 20
9.747640687119286
 10
230.92064029501813
 20
10.143062720176417
 10
231.39357860188238
 20
10.493817673815272
 10
231.898619579044
 20
10.796527586090122
 10
232.43089940580944
 20
11.048277195067712
 10
232.98529193647323
 20
11.246642014393245
 10
233.55645806790324
 20
11.389711682419374
 10
234.13889715802264
 20
11.47610836003318
 10
234.727
 20
11.504999999999995
 10
235.31510284197736
 20
11.47610836003318
 10
235.89754193209677
 20
11.389711682419374
 10
236.46870806352678
 20
11.246642014393245
 10
237.02310059419054
 20
11.048277195067712
 10
237.55538042095597
 20
10.796527586090122
 10
238.0604213981176
 20
10.493817673815272
 10
238.53335970498188
 20
10.143062720176417
 10
238.96964068711927
 20
9.747640687119286
 10
239.3650627201764
 20
9.311359704981868
 10
239.71581767381528
 20
8.838421398117603
 10
240.01852758609013
 20
8.33338042095599
 10
240.2702771950677
 20
7.801100594190544
 10
240.46864201439325
 20
7.246708063526768
 10
240.61171168241938
 20
6.675541932096763
 10
240.6981083600332
 20
6.093102841977355
 10
240.727
 20
5.5049999999999955
 10
240.6981083600332
 20
4.9168971580226355
 10
240.61171168241938
 20
4.334458067903228
 10
240.46864201439325
 20
3.763291936473223
 10
240.2702771950677
 20
3.2088994058094613
 10
240.01852758609013
 20
2.676619579044015
 10
239.91566276904294
 20
2.5049999999999955
 10
240.727
 20
2.5049999999999955
 10
240.727
 20
-82.805
 10
220.277
 20
-82.805
 10
220.277
 20
-47.18500000000001
 10
189.987
 20
-47.18500000000001
 10
189.987
 20
-82.805
 10
169.427
 20
-82.805
 10
169.427
 20
2.5049999999999955
 10
170.23833723095706
 20
2.5049999999999955
 10
170.13547241390987
 20
2.676619579044015
 10
169.8837228049323
 20
3.2088994058094613
 10
169.68535798560674
 20
3.763291936473223
 10
169.5422883175806
 20
4.334458067903228
 10
169.4558916399668
 20
4.9168971580226355
 10
169.427
 20
5.5049999999999955
 10
169.4558916399668
 20
6.093102841977355
 10
169.5422883175806
 20
6.675541932096763
 10
169.68535798560674
 20
7.246708063526768
 10
169.8837228049323
 20
7.80110059419053
 10
170.13547241390987
 20
8.333380420955976
 10
170.43818232618472
 20
8.838421398117603
 10
170.78893727982359
 20
9.311359704981868
 10
171.1843593128807
 20
9.747640687119286
 10
171.62064029501812
 20
10.143062720176417
 10
172.0935786018824
 20
10.493817673815272
 10
172.598619579044
 20
10.796527586090122
 10
173.13089940580946
 20
11.048277195067712
 10
173.68529193647322
 20
11.246642014393245
 10
174.25645806790322
 20
11.389711682419374
 10
174.83889715802263
 20
11.47610836003318
 10
175.427
 20
11.504999999999995
 10
176.01510284197735
 20
11.47610836003318
 10
176.59754193209676
 20
11.389711682419374
 10
177.16870806352676
 20
11.246642014393245
 10
177.72310059419056
 20
11.048277195067712
 10
178.255380420956
 20
10.796527586090122
 10
178.76042139811761
 20
10.493817673815272
 10
179.23335970498186
 20
10.143062720176417
 10
179.66964068711928
 20
9.747640687119286
 10
180.06506272017643
 20
9.311359704981868
 10
180.41581767381527
 20
8.838421398117603
 10
180.71852758609012
 20
8.33338042095599
 10
180.97027719506772
 20
7.801100594190544
 10
181.16864201439324
 20
7.246708063526768
 10
181.31171168241937
 20
6.675541932096763
 10
181.39810836003318
 20
6.093102841977355
 10
181.427
 20
5.5049999999999955
 10
181.39810836003318
 20
4.9168971580226355
 10
181.31171168241937
 20
4.334458067903228
 10
181.16864201439324
 20
3.763291936473223
 10
180.97027719506772
 20
3.2088994058094613
 10
180.71852758609012
 20
2.676619579044015
 10
180.61566276904296
 20
2.5049999999999955
 10
189.987
 20
2.5049999999999955
 10
189.987
 20
-31.35500000000001
  0
LWPOLYLINE
  5
31
330
17
100
AcDbEntity
  8
0
 62
0
100
AcDbPolyline
 90
65
 70
0
 10
178.29782100719663
 20
6.375854031763382
 10
178.19863859753386
 20
6.6530502970952625
 10
178.07276379304506
 20
6.919190210477993
 10
177.92140883690763
 20
7.171710699058806
 10
177.7460313600882
 20
7.408179852490932
 10
177.54832034355965
 20
7.626320343559641
 10
177.33017985249094
 20
7.824031360088213
 10
177.09371069905882
 20
7.999408836907634
 10
176.841190210478
 20
8.150763793045058
 10
176.57505029709526
 20
8.27663859753386
 10
176.2978540317634
 20
8.37582100719662
 10
176.0122709660484
 20
8.447355841209685
 10
175.7210514209887
 20
8.490554180016588
 10
175.427
 20
8.504999999999995
 10
175.13294857901133
 20
8.490554180016588
 10
174.84172903395162
 20
8.447355841209685
 10
174.55614596823662
 20
8.37582100719662
 10
174.27894970290473
 20
8.27663859753386
 10
174.012809789522
 20
8.150763793045058
 10
173.7602893009412
 20
7.999408836907634
 10
173.52382014750907
 20
7.824031360088199
 10
173.30567965644036
 20
7.626320343559641
 10
173.1079686399118
 20
7.408179852490932
 10
172.93259116309235
 20
7.171710699058806
 10
172.78123620695493
 20
6.919190210477993
 10
172.65536140246613
 20
6.6530502970952625
 10
172.55617899280338
 20
6.375854031763382
 10
172.4846441587903
 20
6.090270966048379
 10
172.44144581998341
 20
5.799051420988675
 10
172.427
 20
5.5049999999999955
 10
172.44144581998341
 20
5.2109485790113155
 10
172.4846441587903
 20
4.9197290339516115
 10
172.55617899280338
 20
4.634145968236609
 10
172.65536140246613
 20
4.356949702904728
 10
172.78123620695493
 20
4.090809789521998
 10
172.93259116309235
 20
3.8382893009411845
 10
173.1079686399118
 20
3.601820147509059
 10
173.30567965644036
 20
3.38367965644035
 10
173.52382014750907
 20
3.1859686399117777
 10
173.7602893009412
 20
3.010591163092357
 10
174.012809789522
 20
2.8592362069549324
 10
174.27894970290473
 20
2.73336140246613
 10
174.55614596823662
 20
2.6341789928033705
 10
174.84172903395162
 20
2.562644158790306
 10
175.13294857901133
 20
2.519445819983403
 10
175.427
 20
2.5049999999999955
 10
175.7210514209887
 20
2.519445819983403
 10
176.0122709660484
 20
2.562644158790306
 10
176.2978540317634
 20
2.6341789928033705
 10
176.57505029709526
 20
2.73336140246613
 10
176.841190210478
 20
2.8592362069549324
 10
177.09371069905882
 20
3.010591163092357
 10
177.33017985249094
 20
3.1859686399117777
 10
177.54832034355965
 20
3.38367965644035
 10
177.7460313600882
 20
3.601820147509059
 10
177.92140883690763
 20
3.8382893009411845
 10
178.07276379304506
 20
4.090809789521998
 10
178.19863859753386
 20
4.356949702904728
 10
178.29782100719663
 20
4.634145968236609
 10
178.36935584120968
 20
4.9197290339516115
 10
178.4125541800166
 20
5.2109485790113155
 10
178.427
 20
5.5049999999999955
 10
178.4125541800166
 20
5.799051420988675
 10
178.36935584120968
 20
6.090270966048379
 10
178.29782100719663
 20
6.375854031763382
  0
LWPOLYLINE
  5
32
330
17
100
AcDbEntity
  8
0
 62
0
100
AcDbPolyline
 90
65
 70
0
 10
237.6693558412097
 20
6.090270966048379
 10
237.59782100719661
 20
6.375854031763382
 10
237.49863859753387
 20
6.6530502970952625
 10
237.37276379304507
 20
6.919190210477993
 10
237.22140883690764
 20
7.171710699058806
 10
237.0460313600882
 20
7.408179852490932
 10
236.84832034355964
 20
7.626320343559641
 10
236.63017985249093
 20
7.824031360088213
 10
236.3937106990588
 20
7.999408836907634
 10
236.141190210478
 20
8.150763793045058
 10
235.87505029709527
 20
8.27663859753386
 10
235.59785403176338
 20
8.37582100719662
 10
235.31227096604837
 20
8.447355841209685
 10
235.02105142098867
 20
8.490554180016588
 10
234.727
 20
8.504999999999995
 10
234.4329485790113
 20
8.490554180016588
 10
234.1417290339516
 20
8.447355841209685
 10
233.8561459682366
 20
8.37582100719662
 10
233.57894970290474
 20
8.27663859753386
 10
233.31280978952202
 20
8.150763793045058
 10
233.06028930094118
 20
7.999408836907634
 10
232.82382014750905
 20
7.824031360088199
 10
232.60567965644034
 20
7.626320343559641
 10
232.4079686399118
 20
7.408179852490932
 10
232.23259116309237
 20
7.171710699058806
 10
232.08123620695494
 20
6.919190210477993
 10
231.95536140246614
 20
6.6530502970952625
 10
231.85617899280336
 20
6.375854031763382
 10
231.78464415879031
 20
6.090270966048379
 10
231.7414458199834
 20
5.799051420988675
 10
231.727
 20
5.5049999999999955
 10
231.7414458199834
 20
5.2109485790113155
 10
231.78464415879031
 20
4.9197290339516115
 10
231.85617899280336
 20
4.634145968236609
 10
231.95536140246614
 20
4.356949702904728
 10
232.08123620695494
 20
4.090809789521998
 10
232.23259116309237
 20
3.8382893009411845
 10
232.4079686399118
 20
3.601820147509059
 10
232.60567965644034
 20
3.38367965644035
 10
232.82382014750905
 20
3.1859686399117777
 10
233.06028930094118
 20
3.010591163092357
 10
233.31280978952202
 20
2.8592362069549324
 10
233.57894970290474
 20
2.73336140246613
 10
233.8561459682366
 20
2.6341789928033705
 10
234.1417290339516
 20
2.562644158790306
 10
234.4329485790113
 20
2.519445819983403
 10
234.727
 20
2.5049999999999955
 10
235.02105142098867
 20
2.519445819983403
 10
235.31227096604837
 20
2.562644158790306
 10
235.59785403176338
 20
2.6341789928033705
 10
235.87505029709527
 20
2.73336140246613
 10
236.141190210478
 20
2.8592362069549324
 10
236.3937106990588
 20
3.010591163092357
 10
236.63017985249093
 20
3.1859686399117777
 10
236.84832034355964
 20
3.38367965644035
 10
237.04603136008822
 20
3.601820147509059
 10
237.22140883690764
 20
3.8382893009411845
 10
237.37276379304507
 20
4.090809789521998
 10
237.49863859753387
 20
4.356949702904728
 10
237.59782100719661
 20
4.634145968236609
 10
237.6693558412097
 20
4.9197290339516115
 10
237.71255418001658
 20
5.2109485790113155
 10
237.727
 20
5.5049999999999955
 10
237.71255418001658
 20
5.799051420988675
 10
237.6693558412097
 20
6.090270966048379
  0
LWPOLYLINE
  5
33
330
17
100
AcDbEntity
  8
0
 62
1
100
AcDbPolyline
 90
54
 70
0
 10
56.71
 20
-2.9200000000000017
 10
88.23
 20
-88.23
 10
66.14
 20
-88.23
 10
61.160000000000004
 20
-72.29
 10
32.980000000000004
 20
-72.29
 10
28.06
 20
-88.23
 10
6.079999999999998
 20
-88.23
 10
37.370000000000005
 20
-2.9200000000000017
 10
41.92802694819399
 20
-2.9200000000000017
 10
41.8251621311468
 20
-2.748380420955982
 10
41.57341252216921
 20
-2.216100594190536
 10
41.37504770284367
 20
-1.661708063526774
 10
41.231978034817544
 20
-1.0905419320967695
 10
41.14558135720375
 20
-0.5081028419773617
 10
41.11668971723693
 20
0.0799999999999983
 10
41.14558135720375
 20
0.6681028419773583
 10
41.231978034817544
 20
1.2505419320967661
 10
41.37504770284367
 20
1.8217080635267706
 10
41.57341252216921
 20
2.3761005941905324
 10
41.8251621311468
 20
2.9083804209559787
 10
42.12787204342166
 20
3.413421398117606
 10
42.47862699706051
 20
3.8863597049818708
 10
42.87404903011765
 20
4.322640687119289
 10
43.31033001225506
 20
4.71806272017642
 10
43.783268319119315
 20
5.068817673815275
 10
44.28830929628094
 20
5.371527586090124
 10
44.82058912304639
 20
5.623277195067715
 10
45.37498165371016
 20
5.821642014393248
 10
45.946147785140155
 20
5.964711682419377
 10
46.52858687525957
 20
6.051108360033183
 10
47.11668971723693
 20
6.079999999999998
 10
47.70479255921429
 20
6.051108360033183
 10
48.2872316493337
 20
5.964711682419377
 10
48.8583977807637
 20
5.821642014393248
 10
49.41279031142747
 20
5.623277195067715
 10
49.94507013819292
 20
5.371527586090124
 10
50.450111115354545
 20
5.068817673815275
 10
50.9230494222188
 20
4.71806272017642
 10
51.359330404356214
 20
4.322640687119289
 10
51.75475243741335
 20
3.8863597049818708
 10
52.1055073910522
 20
3.413421398117606
 10
52.408217303327056
 20
2.908380420955993
 10
52.65996691230465
 20
2.3761005941905466
 10
52.85833173163019
 20
1.8217080635267706
 10
53.00140139965631
 20
1.2505419320967661
 10
53.08779807727011
 20
0.6681028419773583
 10
53.11668971723693
 20
0.0799999999999983
 10
53.08779807727011
 20
-0.5081028419773617
 10
53.00140139965632
 20
-1.0905419320967695
 10
52.85833173163019
 20
-1.661708063526774
 10
52.659966912304654
 20
-2.216100594190536
 10
52.40821730332706
 20
-2.748380420955982
 10
52.30535248627987
 20
-2.9200000000000017
 10
56.71
 20
-2.9200000000000017
  0
LWPOLYLINE
  5
34
330
17
100
AcDbEntity
  8
0
 62
1
100
AcDbPolyline
 90
4
 70
0
 10
37.9
 20
-56.410000000000004
 10
56.24
 20
-56.410000000000004
 10
47.04
 20
-26.820000000000007
 10
37.9
 20
-56.410000000000004
  0
LWPOLYLINE
  5
35
330
17
100
AcDbEntity
  8
0
 62
1
100
AcDbPolyline
 90
65
 70
0
 10
50.05904555844662
 20
0.6652709660483822
 10
49.987510724433555
 20
0.9508540317633845
 10
49.88832831477079
 20
1.2280502970952654
 10
49.76245351028199
 20
1.4941902104779956
 10
49.61109855414457
 20
1.7467106990588093
 10
49.43572107732514
 20
1.9831798524909345
 10
49.23801006079657
 20
2.201320343559644
 10
49.01986956972787
 20
2.399031360088216
 10
48.783400416295734
 20
2.5744088369076366
 10
48.53087992771492
 20
2.7257637930450613
 10
48.2647400143322
 20
2.8516385975338636
 10
47.98754374900032
 20
2.950821007196623
 10
47.701960683285314
 20
3.022355841209688
 10
47.41074113822561
 20
3.0655541800165906
 10
47.11668971723693
 20
3.0799999999999983
 10
46.82263829624825
 20
3.0655541800165906
 10
46.531418751188546
 20
3.022355841209688
 10
46.245835685473544
 20
2.950821007196623
 10
45.968639420141656
 20
2.8516385975338636
 10
45.70249950675894
 20
2.7257637930450613
 10
45.44997901817813
 20
2.5744088369076366
 10
45.213509864745994
 20
2.399031360088202
 10
44.995369373677285
 20
2.201320343559644
 10
44.79765835714872
 20
1.9831798524909345
 10
44.62228088032929
 20
1.7467106990588093
 10
44.47092592419187
 20
1.4941902104779956
 10
44.34505111970307
 20
1.2280502970952654
 10
44.245868710040305
 20
0.9508540317633845
 10
44.17433387602724
 20
0.6652709660483822
 10
44.13113553722034
 20
0.3740514209886783
 10
44.11668971723693
 20
0.0799999999999983
 10
44.13113553722034
 20
-0.21405142098868168
 10
44.17433387602724
 20
-0.5052709660483856
 10
44.245868710040305
 20
-0.7908540317633879
 10
44.34505111970307
 20
-1.0680502970952688
 10
44.47092592419187
 20
-1.334190210477999
 10
44.62228088032929
 20
-1.5867106990588127
 10
44.79765835714872
 20
-1.823179852490938
 10
44.995369373677285
 20
-2.041320343559647
 10
45.213509864745994
 20
-2.2390313600882195
 10
45.44997901817813
 20
-2.41440883690764
 10
45.70249950675894
 20
-2.5657637930450647
 10
45.96863942014166
 20
-2.691638597533867
 10
46.245835685473544
 20
-2.7908210071966266
 10
46.531418751188546
 20
-2.862355841209691
 10
46.82263829624825
 20
-2.905554180016594
 10
47.11668971723693
 20
-2.9200000000000017
 10
47.41074113822561
 20
-2.905554180016594
 10
47.701960683285314
 20
-2.862355841209691
 10
47.98754374900032
 20
-2.7908210071966266
 10
48.2647400143322
 20
-2.691638597533867
 10
48.53087992771492
 20
-2.5657637930450647
 10
48.783400416295734
 20
-2.41440883690764
 10
49.01986956972787
 20
-2.2390313600882195
 10
49.238010060796576
 20
-2.041320343559647
 10
49.43572107732514
 20
-1.823179852490938
 10
49.61109855414457
 20
-1.5867106990588127
 10
49.76245351028199
 20
-1.334190210477999
 10
49.88832831477079
 20
-1.0680502970952688
 10
49.987510724433555
 20
-0.7908540317633879
 10
50.05904555844662
 20
-0.5052709660483856
 10
50.10224389725352
 20
-0.21405142098868168
 10
50.11668971723693
 20
0.0799999999999983
 10
50.10224389725352
 20
0.3740514209886783
 10
50.05904555844662
 20
0.6652709660483822
  0
LWPOLYLINE
  5
36
330
17
100
AcDbEntity
  8
0
 62
2
100
AcDbPolyline
 90
76
 70
0
 10
276.848
 20
4.585000000000008
 10
279.2695625
 20
4.547500000000014
 10
283.8783125
 20
4.097500000000011
 10
288.20581250000004
 20
3.197500000000005
 10
292.2520625
 20
1.8475000000000108
 10
294.158
 20
0.9849999999999994
 10
296.00518750000003
 20
0.053124999999994316
 10
299.34596875
 20
-2.12890625
 10
302.26159375
 20
-4.692031249999999
 10
304.751125
 20
-7.635312499999998
 10
305.818
 20
-9.265
 10
306.8095625
 20
-10.948437499999997
 10
308.35925
 20
-14.499687499999993
 10
309.3905
 20
-18.2721875
 10
309.9051875
 20
-22.265937500000007
 10
309.948
 20
-24.354999999999997
 10
309.8551875
 20
-27.422812500000006
 10
308.7405
 20
-33.0365625
 10
306.50925
 20
-38.0240625
 10
303.1595625
 20
-42.3853125
 10
301.01800000000003
 20
-44.30499999999999
 10
298.71393750000004
 20
-46.09468749999999
 10
293.41471875
 20
-48.895937499999995
 10
287.28534375000004
 20
-50.763437499999995
 10
280.324875
 20
-51.6971875
 10
276.498
 20
-51.77499999999999
 10
263.368
 20
-51.77499999999999
 10
263.368
 20
-80.725
 10
242.80800000000002
 20
-80.725
 10
242.80800000000002
 20
4.585000000000008
 10
264.5775035249194
 20
4.585000000000008
 10
264.4746387078722
 20
4.7566195790440275
 10
264.2228890988946
 20
5.288899405809474
 10
264.02452427956905
 20
5.843291936473236
 10
263.88145461154295
 20
6.41445806790324
 10
263.7950579339292
 20
6.996897158022648
 10
263.7661662939623
 20
7.585000000000008
 10
263.7950579339292
 20
8.173102841977368
 10
263.88145461154295
 20
8.755541932096776
 10
264.02452427956905
 20
9.32670806352678
 10
264.2228890988946
 20
9.881100594190542
 10
264.4746387078722
 20
10.413380420955988
 10
264.77734862014705
 20
10.918421398117616
 10
265.1281035737859
 20
11.39135970498188
 10
265.52352560684307
 20
11.827640687119299
 10
265.9598065889804
 20
12.22306272017643
 10
266.43274489584473
 20
12.573817673815284
 10
266.93778587300636
 20
12.876527586090134
 10
267.4700656997718
 20
13.128277195067724
 10
268.0244582304356
 20
13.326642014393258
 10
268.5956243618656
 20
13.469711682419387
 10
269.17806345198494
 20
13.556108360033193
 10
269.7661662939623
 20
13.585000000000008
 10
270.3542691359397
 20
13.556108360033193
 10
270.9367082260591
 20
13.469711682419387
 10
271.50787435748913
 20
13.326642014393258
 10
272.06226688815286
 20
13.128277195067724
 10
272.59454671491835
 20
12.876527586090134
 10
273.0995876920799
 20
12.573817673815284
 10
273.57252599894423
 20
12.22306272017643
 10
274.00880698108165
 20
11.827640687119299
 10
274.40422901413876
 20
11.39135970498188
 10
274.7549839677776
 20
10.918421398117616
 10
275.05769388005245
 20
10.413380420956003
 10
275.30944348903006
 20
9.881100594190556
 10
275.5078083083556
 20
9.32670806352678
 10
275.6508779763817
 20
8.755541932096776
 10
275.73727465399554
 20
8.173102841977368
 10
275.7661662939623
 20
7.585000000000008
 10
275.73727465399554
 20
6.996897158022648
 10
275.6508779763817
 20
6.41445806790324
 10
275.5078083083556
 20
5.843291936473236
 10
275.30944348903006
 20
5.288899405809474
 10
275.05769388005245
 20
4.7566195790440275
 10
274.95482906300526
 20
4.585000000000008
 10
276.848
 20
4.585000000000008
  0
LWPOLYLINE
  5
37
330
17
100
AcDbEntity
  8
0
 62
2
100
AcDbPolyline
 90
24
 70
0
 10
263.368
 20
-35.904999999999994
 10
276.848
 20
-35.904999999999994
 10
278.311125
 20
-35.873749999999994
 10
280.94315625
 20
-35.49921875
 10
283.22128125
 20
-34.751093749999995
 10
285.1445625
 20
-33.630312499999995
 10
285.958
 20
-32.915
 10
286.7089375
 20
-32.14281249999999
 10
287.88315625
 20
-30.33999999999999
 10
288.66503125
 20
-28.22874999999999
 10
289.0555
 20
-25.810937499999994
 10
289.088
 20
-24.474999999999994
 10
289.05456250000003
 20
-23.0071875
 10
288.65284375
 20
-20.319374999999994
 10
287.84846875
 20
-17.930624999999992
 10
286.64050000000003
 20
-15.842812499999994
 10
285.868
 20
-14.924999999999997
 10
285.037375
 20
-14.069062500000001
 10
283.132375
 20
-12.722812500000003
 10
280.93487500000003
 20
-11.815312500000005
 10
278.444875
 20
-11.346562500000005
 10
277.07800000000003
 20
-11.295000000000002
 10
263.368
 20
-11.295000000000002
 10
263.368
 20
-35.904999999999994
  0
LWPOLYLINE
  5
38
330
17
100
AcDbEntity
  8
0
 62
2
100
AcDbPolyline
 90
65
 70
0
 10
272.708522135172
 20
8.170270966048392
 10
272.63698730115897
 20
8.455854031763394
 10
272.5378048914962
 20
8.733050297095275
 10
272.4119300870074
 20
8.999190210478005
 10
272.26057513086994
 20
9.251710699058819
 10
272.08519765405055
 20
9.488179852490944
 10
271.887486637522
 20
9.706320343559653
 10
271.6693461464533
 20
9.904031360088226
 10
271.4328769930211
 20
10.079408836907646
 10
271.18035650444034
 20
10.230763793045071
 10
270.9142165910576
 20
10.356638597533873
 10
270.6370203257257
 20
10.455821007196633
 10
270.3514372600107
 20
10.527355841209697
 10
270.060217714951
 20
10.5705541800166
 10
269.7661662939623
 20
10.585000000000008
 10
269.47211487297363
 20
10.5705541800166
 10
269.18089532791396
 20
10.527355841209697
 10
268.89531226219896
 20
10.455821007196633
 10
268.61811599686706
 20
10.356638597533873
 10
268.3519760834844
 20
10.230763793045071
 10
268.09945559490353
 20
10.079408836907646
 10
267.8629864414714
 20
9.904031360088211
 10
267.64484595040267
 20
9.706320343559653
 10
267.4471349338741
 20
9.488179852490944
 10
267.2717574570547
 20
9.251710699058819
 10
267.1204025009173
 20
8.999190210478005
 10
266.99452769642846
 20
8.733050297095275
 10
266.8953452867657
 20
8.455854031763394
 10
266.82381045275264
 20
8.170270966048392
 10
266.7806121139457
 20
7.879051420988688
 10
266.7661662939623
 20
7.585000000000008
 10
266.7806121139457
 20
7.290948579011328
 10
266.82381045275264
 20
6.999729033951624
 10
266.8953452867657
 20
6.714145968236622
 10
266.99452769642846
 20
6.436949702904741
 10
267.1204025009173
 20
6.170809789522011
 10
267.2717574570547
 20
5.918289300941197
 10
267.4471349338741
 20
5.681820147509072
 10
267.64484595040267
 20
5.4636796564403625
 10
267.8629864414714
 20
5.26596863991179
 10
268.09945559490353
 20
5.09059116309237
 10
268.3519760834844
 20
4.939236206954945
 10
268.61811599686706
 20
4.813361402466143
 10
268.89531226219896
 20
4.714178992803383
 10
269.18089532791396
 20
4.642644158790318
 10
269.47211487297363
 20
4.599445819983416
 10
269.7661662939623
 20
4.585000000000008
 10
270.060217714951
 20
4.599445819983416
 10
270.3514372600107
 20
4.642644158790318
 10
270.6370203257257
 20
4.714178992803383
 10
270.9142165910576
 20
4.813361402466143
 10
271.18035650444034
 20
4.939236206954945
 10
271.4328769930211
 20
5.09059116309237
 10
271.6693461464533
 20
5.26596863991179
 10
271.887486637522
 20
5.4636796564403625
 10
272.08519765405055
 20
5.681820147509072
 10
272.26057513086994
 20
5.918289300941197
 10
272.4119300870074
 20
6.170809789522011
 10
272.5378048914962
 20
6.436949702904741
 10
272.63698730115897
 20
6.714145968236622
 10
272.708522135172
 20
6.999729033951624
 10
272.75172047397893
 20
7.290948579011328
 10
272.7661662939623
 20
7.585000000000008
 10
272.75172047397893
 20
7.879051420988688
 10
272.708522135172
 20
8.170270966048392
  0
LWPOLYLINE
  5
39
330
17
100
AcDbEntity
  8
0
 62
3
100
AcDbPolyline
 90
76
 70
0
 10
276.848
 20
98.89600000000002
 10
279.2695625
 20
98.85850000000002
 10
283.8783125
 20
98.40850000000002
 10
288.20581250000004
 20
97.50850000000001
 10
292.2520625
 20
96.15850000000002
 10
294.158
 20
95.296
 10
296.00518750000003
 20
94.364125
 10
299.34596875
 20
92.18209375
 10
302.26159375
 20
89.61896875000001
 10
304.751125
 20
86.67568750000001
 10
305.818
 20
85.046
 10
306.8095625
 20
83.36256250000001
 10
308.35925
 20
79.81131250000001
 10
309.3905
 20
76.0388125
 10
309.9051875
 20
72.0450625
 10
309.948
 20
69.95600000000002
 10
309.8551875
 20
66.8881875
 10
308.7405
 20
61.274437500000005
 10
306.50925
 20
56.28693750000001
 10
303.1595625
 20
51.92568750000001
 10
301.01800000000003
 20
50.006000000000014
 10
298.71393750000004
 20
48.216312500000015
 10
293.41471875
 20
45.41506250000001
 10
287.28534375000004
 20
43.54756250000001
 10
280.324875
 20
42.61381250000001
 10
276.498
 20
42.536000000000016
 10
263.368
 20
42.536000000000016
 10
263.368
 20
13.586000000000013
 10
242.80800000000002
 20
13.586000000000013
 10
242.80800000000002
 20
98.89600000000002
 10
264.5775035249194
 20
98.89600000000002
 10
264.4746387078722
 20
99.06761957904403
 10
264.2228890988946
 20
99.59989940580948
 10
264.02452427956905
 20
100.15429193647324
 10
263.88145461154295
 20
100.72545806790325
 10
263.7950579339292
 20
101.30789715802266
 10
263.7661662939623
 20
101.89600000000002
 10
263.7950579339292
 20
102.48410284197737
 10
263.88145461154295
 20
103.06654193209678
 10
264.02452427956905
 20
103.63770806352679
 10
264.2228890988946
 20
104.19210059419055
 10
264.4746387078722
 20
104.724380420956
 10
264.77734862014705
 20
105.22942139811762
 10
265.1281035737859
 20
105.70235970498189
 10
265.52352560684307
 20
106.1386406871193
 10
265.9598065889804
 20
106.53406272017644
 10
266.43274489584473
 20
106.88481767381529
 10
266.93778587300636
 20
107.18752758609014
 10
267.4700656997718
 20
107.43927719506773
 10
268.0244582304356
 20
107.63764201439326
 10
268.5956243618656
 20
107.7807116824194
 10
269.17806345198494
 20
107.8671083600332
 10
269.7661662939623
 20
107.89600000000002
 10
270.3542691359397
 20
107.8671083600332
 10
270.9367082260591
 20
107.7807116824194
 10
271.50787435748913
 20
107.63764201439326
 10
272.06226688815286
 20
107.43927719506773
 10
272.59454671491835
 20
107.18752758609014
 10
273.0995876920799
 20
106.88481767381529
 10
273.57252599894423
 20
106.53406272017644
 10
274.00880698108165
 20
106.1386406871193
 10
274.40422901413876
 20
105.70235970498189
 10
274.7549839677776
 20
105.22942139811762
 10
275.05769388005245
 20
104.72438042095601
 10
275.30944348903006
 20
104.19210059419056
 10
275.5078083083556
 20
103.63770806352679
 10
275.6508779763817
 20
103.06654193209678
 10
275.73727465399554
 20
102.48410284197737
 10
275.7661662939623
 20
101.89600000000002
 10
275.73727465399554
 20
101.30789715802266
 10
275.6508779763817
 20
100.72545806790325
 10
275.5078083083556
 20
100.15429193647324
 10
275.30944348903006
 20
99.59989940580948
 10
275.05769388005245
 20
99.06761957904403
 10
274.95482906300526
 20
98.89600000000002
 10
276.848
 20
98.89600000000002
  0
LWPOLYLINE
  5
3A
330
17
100
AcDbEntity
  8
0
 62
3
100
AcDbPolyline
 90
24
 70
0
 10
263.368
 20
58.40600000000001
 10
276.848
 20
58.40600000000001
 10
278.311125
 20
58.43725000000001
 10
280.94315625
 20
58.81178125000001
 10
283.22128125
 20
59.55990625000001
 10
285.1445625
 20
60.68068750000001
 10
285.958
 20
61.39600000000001
 10
286.7089375
 20
62.168187500000016
 10
287.88315625
 20
63.97100000000002
 10
288.66503125
 20
66.08225000000002
 10
289.0555
 20
68.50006250000001
 10
289.088
 20
69.83600000000001
 10
289.05456250000003
 20
71.3038125
 10
288.65284375
 20
73.99162500000001
 10
287.84846875
 20
76.38037500000002
 10
286.64050000000003
 20
78.46818750000001
 10
285.868
 20
79.38600000000001
 10
285.037375
 20
80.2419375
 10
283.132375
 20
81.5881875
 10
280.93487500000003
 20
82.4956875
 10
278.444875
 20
82.9644375
 10
277.07800000000003
 20
83.016
 10
263.368
 20
83.016
 10
263.368
 20
58.40600000000001
  0
LWPOLYLINE
  5
3B
330
17
100
AcDbEntity
  8
0
 62
3
100
AcDbPolyline
 90
65
 70
0
 10
272.708522135172
 20
102.4812709660484
 10
272.63698730115897
 20
102.7668540317634
 10
272.5378048914962
 20
103.04405029709528
 10
272.4119300870074
 20
103.31019021047801
 10
272.26057513086994
 20
103.56271069905883
 10
272.08519765405055
 20
103.79917985249095
 10
271.887486637522
 20
104.01732034355966
 10
271.6693461464533
 20
104.21503136008823
 10
271.4328769930211
 20
104.39040883690765
 10
271.18035650444034
 20
104.54176379304508
 10
270.9142165910576
 20
104.66763859753388
 10
270.6370203257257
 20
104.76682100719664
 10
270.3514372600107
 20
104.8383558412097
 10
270.060217714951
 20
104.88155418001661
 10
269.7661662939623
 20
104.89600000000002
 10
269.47211487297363
 20
104.88155418001661
 10
269.18089532791396
 20
104.8383558412097
 10
268.89531226219896
 20
104.76682100719664
 10
268.61811599686706
 20
104.66763859753388
 10
268.3519760834844
 20
104.54176379304508
 10
268.09945559490353
 20
104.39040883690765
 10
267.8629864414714
 20
104.21503136008822
 10
267.64484595040267
 20
104.01732034355966
 10
267.4471349338741
 20
103.79917985249095
 10
267.2717574570547
 20
103.56271069905883
 10
267.1204025009173
 20
103.31019021047801
 10
266.99452769642846
 20
103.04405029709528
 10
266.8953452867657
 20
102.7668540317634
 10
266.82381045275264
 20
102.4812709660484
 10
266.7806121139457
 20
102.1900514209887
 10
266.7661662939623
 20
101.89600000000002
 10
266.7806121139457
 20
101.60194857901134
 10
266.82381045275264
 20
101.31072903395163
 10
266.8953452867657
 20
101.02514596823663
 10
266.99452769642846
 20
100.74794970290475
 10
267.1204025009173
 20
100.48180978952202
 10
267.2717574570547
 20
100.2292893009412
 10
267.4471349338741
 20
99.99282014750908
 10
267.64484595040267
 20
99.77467965644037
 10
267.8629864414714
 20
99.5769686399118
 10
268.09945559490353
 20
99.40159116309238
 10
268.3519760834844
 20
99.25023620695495
 10
268.61811599686706
 20
99.12436140246615
 10
268.89531226219896
 20
99.02517899280339
 10
269.18089532791396
 20
98.95364415879033
 10
269.47211487297363
 20
98.91044581998342
 10
269.7661662939623
 20
98.89600000000002
 10
270.060217714951
 20
98.91044581998342
 10
270.3514372600107
 20
98.95364415879033
 10
270.6370203257257
 20
99.02517899280339
 10
270.9142165910576
 20
99.12436140246615
 10
271.18035650444034
 20
99.25023620695495
 10
271.4328769930211
 20
99.40159116309238
 10
271.6693461464533
 20
99.5769686399118
 10
271.887486637522
 20
99.77467965644037
 10
272.08519765405055
 20
99.99282014750908
 10
272.26057513086994
 20
100.2292893009412
 10
272.4119300870074
 20
100.48180978952202
 10
272.5378048914962
 20
100.74794970290475
 10
272.63698730115897
 20
101.02514596823663
 10
272.708522135172
 20
101.31072903395163
 10
272.75172047397893
 20
101.60194857901134
 10
272.7661662939623
 20
101.89600000000002
 10
272.75172047397893
 20
102.1900514209887
 10
272.708522135172
 20
102.4812709660484
  0
LWPOLYLINE
  5
3C
330
17
100
AcDbEntity
  8
0
 62
4
100
AcDbPolyline
 90
100
 70
0
 10
129.281
 20
-36.760000000000005
 10
144.981
 20
0.269999999999996
 10
156.00233723095704
 20
0.269999999999996
 10
155.89947241390988
 20
0.4416195790440156
 10
155.6477228049323
 20
0.9738994058094619
 10
155.44935798560675
 20
1.5282919364732237
 10
155.30628831758062
 20
2.099458067903228
 10
155.21989163996682
 20
2.681897158022636
 10
155.191
 20
3.269999999999996
 10
155.21989163996682
 20
3.858102841977356
 10
155.30628831758062
 20
4.440541932096764
 10
155.44935798560675
 20
5.011708063526768
 10
155.6477228049323
 20
5.56610059419053
 10
155.89947241390988
 20
6.098380420955976
 10
156.20218232618473
 20
6.603421398117604
 10
156.5529372798236
 20
7.0763597049818685
 10
156.9483593128807
 20
7.512640687119287
 10
157.38464029501813
 20
7.908062720176417
 10
157.85757860188238
 20
8.258817673815273
 10
158.362619579044
 20
8.561527586090122
 10
158.89489940580944
 20
8.813277195067712
 10
159.44929193647323
 20
9.011642014393246
 10
160.02045806790323
 20
9.154711682419375
 10
160.60289715802264
 20
9.24110836003318
 10
161.191
 20
9.269999999999996
 10
161.77910284197736
 20
9.24110836003318
 10
162.36154193209677
 20
9.154711682419375
 10
162.93270806352677
 20
9.011642014393246
 10
163.48710059419054
 20
8.813277195067712
 10
164.019380420956
 20
8.561527586090122
 10
164.52442139811762
 20
8.258817673815273
 10
164.99735970498187
 20
7.908062720176417
 10
165.4336406871193
 20
7.512640687119287
 10
165.8290627201764
 20
7.0763597049818685
 10
166.17981767381528
 20
6.603421398117604
 10
166.48252758609013
 20
6.098380420955991
 10
166.7342771950677
 20
5.566100594190544
 10
166.93264201439325
 20
5.011708063526768
 10
167.07571168241938
 20
4.440541932096764
 10
167.1621083600332
 20
3.858102841977356
 10
167.191
 20
3.269999999999996
 10
167.1621083600332
 20
2.681897158022636
 10
167.07571168241938
 20
2.099458067903228
 10
166.93264201439325
 20
1.5282919364732237
 10
166.7342771950677
 20
0.9738994058094619
 10
166.48252758609013
 20
0.4416195790440156
 10
166.37966276904297
 20
0.269999999999996
 10
167.191
 20
0.269999999999996
 10
139.71099999999998
 20
-54.400000000000006
 10
139.71099999999998
 20
-85.04
 10
118.851
 20
-85.04
 10
118.851
 20
-54.400000000000006
 10
91.42099999999999
 20
0.269999999999996
 10
92.23233723095706
 20
0.269999999999996
 10
92.12947241390987
 20
0.4416195790440156
 10
91.87772280493228
 20
0.9738994058094619
 10
91.67935798560674
 20
1.5282919364732237
 10
91.53628831758061
 20
2.099458067903228
 10
91.44989163996681
 20
2.681897158022636
 10
91.42099999999999
 20
3.269999999999996
 10
91.44989163996681
 20
3.858102841977356
 10
91.53628831758061
 20
4.440541932096764
 10
91.67935798560674
 20
5.011708063526768
 10
91.87772280493228
 20
5.56610059419053
 10
92.12947241390987
 20
6.098380420955976
 10
92.43218232618472
 20
6.603421398117604
 10
92.78293727982357
 20
7.0763597049818685
 10
93.1783593128807
 20
7.512640687119287
 10
93.61464029501812
 20
7.908062720176417
 10
94.08757860188238
 20
8.258817673815273
 10
94.592619579044
 20
8.561527586090122
 10
95.12489940580946
 20
8.813277195067712
 10
95.67929193647322
 20
9.011642014393246
 10
96.25045806790322
 20
9.154711682419375
 10
96.83289715802263
 20
9.24110836003318
 10
97.42099999999999
 20
9.269999999999996
 10
98.00910284197735
 20
9.24110836003318
 10
98.59154193209676
 20
9.154711682419375
 10
99.16270806352676
 20
9.011642014393246
 10
99.71710059419053
 20
8.813277195067712
 10
100.24938042095599
 20
8.561527586090122
 10
100.7544213981176
 20
8.258817673815273
 10
101.22735970498186
 20
7.908062720176417
 10
101.66364068711928
 20
7.512640687119287
 10
102.05906272017641
 20
7.0763597049818685
 10
102.40981767381527
 20
6.603421398117604
 10
102.71252758609012
 20
6.098380420955991
 10
102.96427719506771
 20
5.566100594190544
 10
103.16264201439324
 20
5.011708063526768
 10
103.30571168241937
 20
4.440541932096764
 10
103.39210836003318
 20
3.858102841977356
 10
103.42099999999999
 20
3.269999999999996
 10
103.39210836003318
 20
2.681897158022636
 10
103.30571168241937
 20
2.099458067903228
 10
103.16264201439324
 20
1.5282919364732237
 10
102.96427719506771
 20
0.9738994058094619
 10
102.71252758609012
 20
0.4416195790440156
 10
102.60966276904293
 20
0.269999999999996
 10
113.511
 20
0.269999999999996
 10
129.281
 20
-36.760000000000005
  0
LWPOLYLINE
  5
3D
330
17
100
AcDbEntity
  8
0
 62
4
100
AcDbPolyline
 90
65
 70
0
 10
100.29182100719662
 20
4.140854031763382
 10
100.19263859753386
 20
4.418050297095263
 10
100.06676379304506
 20
4.684190210477993
 10
99.91540883690763
 20
4.936710699058807
 10
99.74003136008821
 20
5.173179852490932
 10
99.54232034355964
 20
5.3913203435596415
 10
99.32417985249093
 20
5.589031360088214
 10
99.08771069905879
 20
5.764408836907634
 10
98.83519021047799
 20
5.915763793045059
 10
98.56905029709526
 20
6.041638597533861
 10
98.29185403176338
 20
6.140821007196621
 10
98.00627096604838
 20
6.2123558412096855
 10
97.71505142098867
 20
6.255554180016588
 10
97.42099999999999
 20
6.269999999999996
 10
97.12694857901131
 20
6.255554180016588
 10
96.83572903395161
 20
6.2123558412096855
 10
96.5501459682366
 20
6.140821007196621
 10
96.27294970290473
 20
6.041638597533861
 10
96.006809789522
 20
5.915763793045059
 10
95.75428930094118
 20
5.764408836907634
 10
95.51782014750906
 20
5.5890313600882
 10
95.29967965644035
 20
5.3913203435596415
 10
95.10196863991177
 20
5.173179852490932
 10
94.92659116309235
 20
4.936710699058807
 10
94.77523620695493
 20
4.684190210477993
 10
94.64936140246613
 20
4.418050297095263
 10
94.55017899280337
 20
4.140854031763382
 10
94.4786441587903
 20
3.85527096604838
 10
94.4354458199834
 20
3.564051420988676
 10
94.42099999999999
 20
3.269999999999996
 10
94.4354458199834
 20
2.975948579011316
 10
94.4786441587903
 20
2.684729033951612
 10
94.55017899280337
 20
2.39914596823661
 10
94.64936140246613
 20
2.121949702904729
 10
94.77523620695493
 20
1.8558097895219987
 10
94.92659116309235
 20
1.603289300941185
 10
95.10196863991177
 20
1.3668201475090598
 10
95.29967965644035
 20
1.1486796564403505
 10
95.51782014750906
 20
0.9509686399117783
 10
95.75428930094118
 20
0.7755911630923578
 10
96.006809789522
 20
0.624236206954933
 10
96.27294970290473
 20
0.4983614024661307
 10
96.5501459682366
 20
0.3991789928033711
 10
96.83572903395161
 20
0.3276441587903065
 10
97.12694857901131
 20
0.2844458199834037
 10
97.42099999999999
 20
0.269999999999996
 10
97.71505142098867
 20
0.2844458199834037
 10
98.00627096604838
 20
0.3276441587903065
 10
98.29185403176338
 20
0.3991789928033711
 10
98.56905029709526
 20
0.4983614024661307
 10
98.83519021047799
 20
0.624236206954933
 10
99.0877106990588
 20
0.7755911630923578
 10
99.32417985249093
 20
0.9509686399117783
 10
99.54232034355964
 20
1.1486796564403505
 10
99.74003136008821
 20
1.3668201475090598
 10
99.91540883690763
 20
1.603289300941185
 10
100.06676379304506
 20
1.8558097895219987
 10
100.19263859753386
 20
2.121949702904729
 10
100.29182100719662
 20
2.39914596823661
 10
100.36335584120968
 20
2.684729033951612
 10
100.40655418001658
 20
2.975948579011316
 10
100.42099999999999
 20
3.269999999999996
 10
100.40655418001658
 20
3.564051420988676
 10
100.36335584120968
 20
3.85527096604838
 10
100.29182100719662
 20
4.140854031763382
  0
LWPOLYLINE
  5
3E
330
17
100
AcDbEntity
  8
0
 62
4
100
AcDbPolyline
 90
65
 70
0
 10
164.1333558412097
 20
3.85527096604838
 10
164.0618210071966
 20
4.140854031763382
 10
163.96263859753387
 20
4.418050297095263
 10
163.83676379304507
 20
4.684190210477993
 10
163.68540883690764
 20
4.936710699058807
 10
163.5100313600882
 20
5.173179852490932
 10
163.31232034355963
 20
5.3913203435596415
 10
163.09417985249092
 20
5.589031360088214
 10
162.85771069905883
 20
5.764408836907634
 10
162.60519021047799
 20
5.915763793045059
 10
162.33905029709527
 20
6.041638597533861
 10
162.0618540317634
 20
6.140821007196621
 10
161.7762709660484
 20
6.2123558412096855
 10
161.48505142098867
 20
6.255554180016588
 10
161.191
 20
6.269999999999996
 10
160.89694857901134
 20
6.255554180016588
 10
160.6057290339516
 20
6.2123558412096855
 10
160.3201459682366
 20
6.140821007196621
 10
160.04294970290474
 20
6.041638597533861
 10
159.77680978952202
 20
5.915763793045059
 10
159.52428930094118
 20
5.764408836907634
 10
159.28782014750908
 20
5.5890313600882
 10
159.06967965644037
 20
5.3913203435596415
 10
158.87196863991178
 20
5.173179852490932
 10
158.69659116309236
 20
4.936710699058807
 10
158.54523620695494
 20
4.684190210477993
 10
158.41936140246614
 20
4.418050297095263
 10
158.3201789928034
 20
4.140854031763382
 10
158.2486441587903
 20
3.85527096604838
 10
158.20544581998342
 20
3.564051420988676
 10
158.191
 20
3.269999999999996
 10
158.20544581998342
 20
2.975948579011316
 10
158.2486441587903
 20
2.684729033951612
 10
158.3201789928034
 20
2.39914596823661
 10
158.41936140246614
 20
2.121949702904729
 10
158.54523620695494
 20
1.8558097895219987
 10
158.69659116309236
 20
1.603289300941185
 10
158.87196863991178
 20
1.3668201475090598
 10
159.06967965644037
 20
1.1486796564403505
 10
159.28782014750908
 20
0.9509686399117783
 10
159.52428930094118
 20
0.7755911630923578
 10
159.77680978952202
 20
0.624236206954933
 10
160.04294970290474
 20
0.4983614024661307
 10
160.3201459682366
 20
0.3991789928033711
 10
160.6057290339516
 20
0.3276441587903065
 10
160.89694857901134
 20
0.2844458199834037
 10
161.191
 20
0.269999999999996
 10
161.48505142098867
 20
0.2844458199834037
 10
161.7762709660484
 20
0.3276441587903065
 10
162.0618540317634
 20
0.3991789928033711
 10
162.33905029709527
 20
0.4983614024661307
 10
162.60519021047799
 20
0.624236206954933
 10
162.85771069905883
 20
0.7755911630923578
 10
163.09417985249092
 20
0.9509686399117783
 10
163.31232034355963
 20
1.1486796564403505
 10
163.51003136008822
 20
1.3668201475090598
 10
163.68540883690764
 20
1.603289300941185
 10
163.83676379304507
 20
1.8558097895219987
 10
163.96263859753387
 20
2.121949702904729
 10
164.0618210071966
 20
2.39914596823661
 10
164.1333558412097
 20
2.684729033951612
 10
164.17655418001658
 20
2.975948579011316
 10
164.191
 20
3.269999999999996
 10
164.17655418001658
 20
3.564051420988676
 10
164.1333558412097
 20
3.85527096604838
  0
LWPOLYLINE
  5
3F
330
17
100
AcDbEntity
  8
0
 62
5
100
AcDbPolyline
 90
87
 70
0
 10
352.3970625
 20
98.60443750000002
 10
358.6595625
 20
97.09693750000002
 10
363.9358125
 20
94.8356875
 10
366.163
 20
93.39100000000002
 10
368.218625
 20
91.82318750000002
 10
371.43612499999995
 20
88.12193750000003
 10
373.581125
 20
83.74193750000003
 10
374.65362500000003
 20
78.68318750000003
 10
374.743
 20
75.87100000000002
 10
374.7114375
 20
74.23381250000003
 10
374.33221875000004
 20
71.16256250000002
 10
373.57284375
 20
68.33506250000002
 10
372.432375
 20
65.75131250000003
 10
371.703
 20
64.56100000000002
 10
370.90862500000003
 20
63.41318750000002
 10
369.02471875000003
 20
61.37646875000002
 10
366.78409375
 20
59.649593750000015
 10
364.1839375
 20
58.231625000000015
 10
362.733
 20
57.65100000000002
 10
364.36956250000003
 20
57.17725000000002
 10
367.32034375
 20
55.91584375000002
 10
369.88346875
 20
54.27521875000002
 10
372.058
 20
52.252562500000025
 10
372.983
 20
51.08100000000002
 10
373.84175
 20
49.85881250000002
 10
375.18471875
 20
47.19303125000002
 10
376.07909374999997
 20
44.26240625000002
 10
376.52581250000003
 20
41.067875000000015
 10
376.563
 20
39.36100000000002
 10
376.4801875
 20
36.29131250000002
 10
375.48690625
 20
30.80412500000002
 10
373.50128125000003
 20
26.097875000000016
 10
370.52425
 20
22.170687500000014
 10
368.623
 20
20.53100000000002
 10
366.55925
 20
19.020375000000016
 10
361.6326875
 20
16.642875000000018
 10
355.7489375
 20
15.037875000000014
 10
348.909875
 20
14.205375000000018
 10
345.093
 20
14.111000000000018
 10
310.473
 20
14.111000000000018
 10
310.473
 20
99.42100000000002
 10
335.59422340908486
 20
99.42100000000002
 10
335.49135859203767
 20
99.59261957904404
 10
335.23960898306007
 20
100.12489940580949
 10
335.0412441637346
 20
100.67929193647325
 10
334.8981744957084
 20
101.25045806790325
 10
334.81177781809464
 20
101.83289715802266
 10
334.7828861781278
 20
102.42100000000002
 10
334.81177781809464
 20
103.00910284197738
 10
334.8981744957084
 20
103.59154193209679
 10
335.0412441637346
 20
104.1627080635268
 10
335.23960898306007
 20
104.71710059419055
 10
335.49135859203767
 20
105.249380420956
 10
335.7940685043125
 20
105.75442139811763
 10
336.14482345795136
 20
106.2273597049819
 10
336.54024549100853
 20
106.66364068711931
 10
336.97652647314595
 20
107.05906272017644
 10
337.4494647800102
 20
107.4098176738153
 10
337.95450575717183
 20
107.71252758609015
 10
338.48678558393726
 20
107.96427719506774
 10
339.04117811460105
 20
108.16264201439327
 10
339.61234424603106
 20
108.3057116824194
 10
340.19478333615046
 20
108.3921083600332
 10
340.7828861781278
 20
108.42100000000002
 10
341.3709890201052
 20
108.3921083600332
 10
341.9534281102246
 20
108.3057116824194
 10
342.5245942416546
 20
108.16264201439327
 10
343.07898677231833
 20
107.96427719506774
 10
343.6112665990838
 20
107.71252758609015
 10
344.11630757624545
 20
107.4098176738153
 10
344.5892458831097
 20
107.05906272017644
 10
345.0255268652471
 20
106.66364068711931
 10
345.42094889830423
 20
106.2273597049819
 10
345.7717038519431
 20
105.75442139811763
 10
346.0744137642179
 20
105.24938042095602
 10
346.3261633731955
 20
104.71710059419057
 10
346.5245281925211
 20
104.1627080635268
 10
346.6675978605472
 20
103.59154193209679
 10
346.753994538161
 20
103.00910284197738
 10
346.7828861781278
 20
102.42100000000002
 10
346.753994538161
 20
101.83289715802266
 10
346.6675978605472
 20
101.25045806790325
 10
346.5245281925211
 20
100.67929193647325
 10
346.3261633731955
 20
100.12489940580949
 10
346.0744137642179
 20
99.59261957904404
 10
345.8878111256065
 20
99.2812918850249
 10
352.3970625
 20
98.60443750000002
  0
LWPOLYLINE
  5
40
330
17
100
AcDbEntity
  8
0
 62
5
100
AcDbPolyline
 90
22
 70
0
 10
341.75300000000004
 20
63.86100000000002
 10
344.9655
 20
63.988500000000016
 10
348.68971875
 20
64.83787500000001
 10
350.6064375
 20
65.74537500000002
 10
351.363
 20
66.32100000000003
 10
352.0526875
 20
66.94475000000003
 10
353.12987499999997
 20
68.43021875000002
 10
353.84612500000003
 20
70.20209375000002
 10
354.2033125
 20
72.26131250000002
 10
354.233
 20
73.41100000000002
 10
354.2008125
 20
74.72600000000001
 10
353.81409375
 20
77.04303125000001
 10
353.03971875
 20
78.98365625000002
 10
351.87675
 20
80.54693750000001
 10
351.133
 20
81.17100000000002
 10
350.3170625
 20
81.73881250000002
 10
348.2883125
 20
82.62756250000001
 10
344.41175
 20
83.44225
 10
341.113
 20
83.54100000000001
 10
331.033
 20
83.54100000000001
 10
331.033
 20
63.86100000000002
 10
341.75300000000004
 20
63.86100000000002
  0
LWPOLYLINE
  5
41
330
17
100
AcDbEntity
  8
0
 62
5
100
AcDbPolyline
 90
21
 70
0
 10
331.033
 20
29.93100000000001
 10
344.51300000000003
 20
29.93100000000001
 10
347.188
 20
30.037250000000014
 10
350.474875
 20
30.91381250000002
 10
352.289875
 20
31.870062500000017
 10
353.063
 20
32.48100000000002
 10
353.7814375
 20
33.14006250000002
 10
354.903625
 20
34.67428125000002
 10
355.649875
 20
36.46865625000002
 10
356.0220625
 20
38.52412500000002
 10
356.053
 20
39.661000000000016
 10
355.94268750000003
 20
42.21662500000002
 10
355.03231640625
 20
45.30363671875002
 10
354.0389765625
 20
46.97478906250002
 10
352.71428906250003
 20
48.31447656250002
 10
351.05813671875
 20
49.32281640625002
 10
349.07040234375
 20
49.99992578125001
 10
346.75096875
 20
50.345921875000016
 10
345.453
 20
50.381000000000014
 10
331.033
 20
50.381000000000014
 10
331.033
 20
29.93100000000001
  0
LWPOLYLINE
  5
42
330
17
100
AcDbEntity
  8
0
 62
5
100
AcDbPolyline
 90
65
 70
0
 10
343.7252420193375
 20
103.0062709660484
 10
343.65370718532444
 20
103.2918540317634
 10
343.55452477566166
 20
103.56905029709529
 10
343.4286499711729
 20
103.83519021047802
 10
343.27729501503546
 20
104.08771069905883
 10
343.101917538216
 20
104.32417985249096
 10
342.90420652168746
 20
104.54232034355967
 10
342.68606603061875
 20
104.74003136008824
 10
342.44959687718665
 20
104.91540883690766
 10
342.1970763886058
 20
105.06676379304508
 10
341.93093647522306
 20
105.19263859753389
 10
341.6537402098912
 20
105.29182100719665
 10
341.36815714417617
 20
105.36335584120971
 10
341.0769375991165
 20
105.40655418001661
 10
340.7828861781278
 20
105.42100000000002
 10
340.4888347571391
 20
105.40655418001661
 10
340.1976152120794
 20
105.36335584120971
 10
339.9120321463644
 20
105.29182100719665
 10
339.63483588103253
 20
105.19263859753389
 10
339.36869596764984
 20
105.06676379304508
 10
339.116175479069
 20
104.91540883690766
 10
338.8797063256369
 20
104.74003136008822
 10
338.6615658345682
 20
104.54232034355967
 10
338.46385481803964
 20
104.32417985249096
 10
338.2884773412202
 20
104.08771069905883
 10
338.13712238508276
 20
103.83519021047802
 10
338.01124758059393
 20
103.56905029709529
 10
337.9120651709312
 20
103.2918540317634
 10
337.8405303369181
 20
103.0062709660484
 10
337.79733199811125
 20
102.7150514209887
 10
337.7828861781278
 20
102.42100000000002
 10
337.79733199811125
 20
102.12694857901134
 10
337.8405303369181
 20
101.83572903395164
 10
337.9120651709312
 20
101.55014596823663
 10
338.01124758059393
 20
101.27294970290475
 10
338.13712238508276
 20
101.00680978952202
 10
338.2884773412202
 20
100.75428930094121
 10
338.46385481803964
 20
100.51782014750908
 10
338.6615658345682
 20
100.29967965644038
 10
338.8797063256369
 20
100.1019686399118
 10
339.116175479069
 20
99.92659116309238
 10
339.36869596764984
 20
99.77523620695496
 10
339.63483588103253
 20
99.64936140246616
 10
339.9120321463644
 20
99.5501789928034
 10
340.1976152120794
 20
99.47864415879033
 10
340.4888347571391
 20
99.43544581998343
 10
340.7828861781278
 20
99.42100000000002
 10
341.0769375991165
 20
99.43544581998343
 10
341.36815714417617
 20
99.47864415879033
 10
341.6537402098912
 20
99.5501789928034
 10
341.93093647522306
 20
99.64936140246616
 10
342.1970763886058
 20
99.77523620695496
 10
342.44959687718665
 20
99.92659116309238
 10
342.68606603061875
 20
100.1019686399118
 10
342.90420652168746
 20
100.29967965644038
 10
343.101917538216
 20
100.51782014750908
 10
343.27729501503546
 20
100.75428930094121
 10
343.4286499711729
 20
101.00680978952202
 10
343.55452477566166
 20
101.27294970290475
 10
343.65370718532444
 20
101.55014596823663
 10
343.7252420193375
 20
101.83572903395164
 10
343.7684403581444
 20
102.12694857901134
 10
343.7828861781278
 20
102.42100000000002
 10
343.7684403581444
 20
102.7150514209887
 10
343.7252420193375
 20
103.0062709660484
  0
LWPOLYLINE
  5
43
330
17
100
AcDbEntity
  8
0
 62
6
100
AcDbPolyline
 90
50
 70
0
 10
420.454
 20
27.900000000000006
 10
420.454
 20
-57.41
 10
399.94399999999996
 20
-57.41
 10
399.94399999999996
 20
27.900000000000006
 10
405.010337230957
 20
27.900000000000006
 10
404.9074724139099
 20
28.071619579044025
 10
404.6557228049323
 20
28.60389940580947
 10
404.45735798560673
 20
29.158291936473233
 10
404.3142883175806
 20
29.729458067903238
 10
404.2278916399668
 20
30.311897158022646
 10
404.19899999999996
 20
30.900000000000006
 10
404.2278916399668
 20
31.488102841977366
 10
404.3142883175806
 20
32.07054193209677
 10
404.45735798560673
 20
32.64170806352678
 10
404.6557228049323
 20
33.19610059419054
 10
404.9074724139099
 20
33.728380420955986
 10
405.21018232618474
 20
34.23342139811761
 10
405.5609372798236
 20
34.70635970498188
 10
405.9563593128807
 20
35.1426406871193
 10
406.3926402950181
 20
35.53806272017643
 10
406.86557860188236
 20
35.88881767381528
 10
407.370619579044
 20
36.19152758609013
 10
407.9028994058094
 20
36.44327719506772
 10
408.4572919364732
 20
36.641642014393256
 10
409.0284580679032
 20
36.784711682419385
 10
409.6108971580226
 20
36.87110836003319
 10
410.19899999999996
 20
36.900000000000006
 10
410.78710284197734
 20
36.87110836003319
 10
411.36954193209675
 20
36.784711682419385
 10
411.94070806352676
 20
36.641642014393256
 10
412.49510059419055
 20
36.44327719506772
 10
413.027380420956
 20
36.19152758609013
 10
413.5324213981176
 20
35.88881767381528
 10
414.00535970498186
 20
35.53806272017643
 10
414.4416406871193
 20
35.1426406871193
 10
414.8370627201764
 20
34.70635970498188
 10
415.1878176738153
 20
34.23342139811761
 10
415.49052758609014
 20
33.728380420956
 10
415.7422771950677
 20
33.196100594190554
 10
415.94064201439323
 20
32.64170806352678
 10
416.0837116824194
 20
32.07054193209677
 10
416.17010836003317
 20
31.488102841977366
 10
416.19899999999996
 20
30.900000000000006
 10
416.17010836003317
 20
30.311897158022646
 10
416.0837116824194
 20
29.729458067903238
 10
415.94064201439323
 20
29.158291936473233
 10
415.7422771950677
 20
28.60389940580947
 10
415.49052758609014
 20
28.071619579044025
 10
415.38766276904295
 20
27.900000000000006
 10
420.454
 20
27.900000000000006
  0
LWPOLYLINE
  5
44
330
17
100
AcDbEntity
  8
0
 62
6
100
AcDbPolyline
 90
65
 70
0
 10
413.1413558412097
 20
31.48527096604839
 10
413.0698210071966
 20
31.770854031763392
 10
412.9706385975338
 20
32.04805029709527
 10
412.84476379304505
 20
32.314190210478
 10
412.6934088369076
 20
32.56671069905882
 10
412.51803136008823
 20
32.80317985249094
 10
412.3203203435596
 20
33.02132034355965
 10
412.1021798524909
 20
33.21903136008822
 10
411.8657106990588
 20
33.394408836907644
 10
411.61319021047797
 20
33.54576379304507
 10
411.3470502970953
 20
33.67163859753387
 10
411.0698540317634
 20
33.77082100719663
 10
410.7842709660484
 20
33.842355841209695
 10
410.49305142098865
 20
33.8855541800166
 10
410.19899999999996
 20
33.900000000000006
 10
409.9049485790113
 20
33.8855541800166
 10
409.6137290339516
 20
33.842355841209695
 10
409.3281459682366
 20
33.77082100719663
 10
409.05094970290475
 20
33.67163859753387
 10
408.784809789522
 20
33.54576379304507
 10
408.53228930094116
 20
33.394408836907644
 10
408.29582014750906
 20
33.21903136008821
 10
408.07767965644035
 20
33.02132034355965
 10
407.8799686399118
 20
32.80317985249094
 10
407.70459116309235
 20
32.56671069905882
 10
407.5532362069549
 20
32.314190210478
 10
407.42736140246615
 20
32.04805029709527
 10
407.3281789928034
 20
31.770854031763392
 10
407.2566441587903
 20
31.48527096604839
 10
407.2134458199834
 20
31.194051420988686
 10
407.19899999999996
 20
30.900000000000006
 10
407.2134458199834
 20
30.605948579011326
 10
407.2566441587903
 20
30.31472903395162
 10
407.3281789928034
 20
30.02914596823662
 10
407.42736140246615
 20
29.75194970290474
 10
407.5532362069549
 20
29.48580978952201
 10
407.70459116309235
 20
29.233289300941195
 10
407.8799686399118
 20
28.99682014750907
 10
408.07767965644035
 20
28.77867965644036
 10
408.29582014750906
 20
28.580968639911788
 10
408.53228930094116
 20
28.405591163092367
 10
408.784809789522
 20
28.254236206954943
 10
409.05094970290475
 20
28.12836140246614
 10
409.3281459682366
 20
28.02917899280338
 10
409.6137290339516
 20
27.957644158790316
 10
409.9049485790113
 20
27.914445819983413
 10
410.19899999999996
 20
27.900000000000006
 10
410.49305142098865
 20
27.914445819983413
 10
410.7842709660484
 20
27.957644158790316
 10
411.0698540317634
 20
28.02917899280338
 10
411.3470502970953
 20
28.12836140246614
 10
411.61319021047797
 20
28.254236206954943
 10
411.8657106990588
 20
28.405591163092367
 10
412.1021798524909
 20
28.580968639911788
 10
412.3203203435596
 20
28.77867965644036
 10
412.51803136008823
 20
28.99682014750907
 10
412.6934088369076
 20
29.233289300941195
 10
412.84476379304505
 20
29.48580978952201
 10
412.9706385975338
 20
29.75194970290474
 10
413.0698210071966
 20
30.02914596823662
 10
413.1413558412097
 20
30.31472903395162
 10
413.18455418001656
 20
30.605948579011326
 10
413.19899999999996
 20
30.900000000000006
 10
413.18455418001656
 20
31.194051420988686
 10
413.1413558412097
 20
31.48527096604839
  0
LWPOLYLINE
  5
45
330
17
100
AcDbEntity
  8
0
 62
7
100
AcDbPolyline
 90
74
 70
0
 10
241.0219375
 20
192.31700000000004
 10
247.78318750000003
 20
191.4760625
 10
253.71568750000003
 20
189.79231250000004
 10
258.81943750000005
 20
187.26387500000004
 10
261.026
 20
185.64700000000005
 10
263.07443750000004
 20
183.90512500000003
 10
266.2806875
 20
179.84059375000004
 10
268.41818750000004
 20
175.07996875000003
 10
269.48693750000007
 20
169.6241875
 10
269.576
 20
166.60700000000003
 10
269.5385
 20
164.41137500000002
 10
269.08850000000007
 20
160.33887500000003
 10
268.18850000000003
 20
156.64887500000003
 10
266.83850000000007
 20
153.34137500000003
 10
265.976
 20
151.84700000000004
 10
265.0335
 20
150.40418750000003
 10
262.7235
 20
147.752
 10
259.9035
 20
145.37825000000004
 10
256.5735
 20
143.28106250000002
 10
254.69600000000003
 20
142.34700000000004
 10
272.506
 20
107.95700000000002
 10
272.506
 20
107.07700000000003
 10
250.47600000000003
 20
107.07700000000003
 10
235.41600000000003
 20
137.19700000000003
 10
224.28600000000003
 20
137.19700000000003
 10
224.28600000000003
 20
107.07700000000003
 10
203.72600000000003
 20
107.07700000000003
 10
203.72600000000003
 20
192.38700000000003
 10
228.91558103513927
 20
192.38700000000003
 10
228.81271621809208
 20
192.55861957904403
 10
228.5609666091145
 20
193.0908994058095
 10
228.36260178978898
 20
193.64529193647326
 10
228.21953212176282
 20
194.21645806790326
 10
228.13313544414905
 20
194.79889715802267
 10
228.1042438041822
 20
195.38700000000003
 10
228.13313544414905
 20
195.9751028419774
 10
228.21953212176282
 20
196.5575419320968
 10
228.36260178978898
 20
197.1287080635268
 10
228.5609666091145
 20
197.68310059419056
 10
228.81271621809208
 20
198.21538042095602
 10
229.11542613036693
 20
198.72042139811765
 10
229.4661810840058
 20
199.1933597049819
 10
229.86160311706294
 20
199.62964068711932
 10
230.29788409920036
 20
200.02506272017644
 10
230.7708224060646
 20
200.3758176738153
 10
231.27586338322624
 20
200.67852758609015
 10
231.80814320999167
 20
200.93027719506773
 10
232.36253574065546
 20
201.12864201439328
 10
232.93370187208546
 20
201.2717116824194
 10
233.51614096220487
 20
201.3581083600332
 10
234.1042438041822
 20
201.38700000000003
 10
234.6923466461596
 20
201.3581083600332
 10
235.274785736279
 20
201.2717116824194
 10
235.845951867709
 20
201.12864201439328
 10
236.40034439837277
 20
200.93027719506773
 10
236.9326242251382
 20
200.67852758609015
 10
237.43766520229983
 20
200.3758176738153
 10
237.9106035091641
 20
200.02506272017644
 10
238.3468844913015
 20
199.62964068711932
 10
238.74230652435864
 20
199.1933597049819
 10
239.09306147799748
 20
198.72042139811765
 10
239.39577139027233
 20
198.21538042095602
 10
239.64752099924993
 20
197.6831005941906
 10
239.84588581857548
 20
197.1287080635268
 10
239.98895548660158
 20
196.5575419320968
 10
240.0753521642154
 20
195.9751028419774
 10
240.1042438041822
 20
195.38700000000003
 10
240.0753521642154
 20
194.79889715802267
 10
239.9889554866016
 20
194.21645806790326
 10
239.84588581857548
 20
193.64529193647326
 10
239.64752099924993
 20
193.0908994058095
 10
239.39577139027236
 20
192.55861957904403
 10
239.27067054847
 20
192.34990143396317
 10
241.0219375
 20
192.31700000000004
  0
LWPOLYLINE
  5
46
330
17
100
AcDbEntity
  8
0
 62
7
100
AcDbPolyline
 90
24
 70
0
 10
224.28600000000003
 20
153.07700000000003
 10
237.29600000000002
 20
153.07700000000003
 10
238.73193750000002
 20
153.108875
 10
241.3006875
 20
153.49184375000004
 10
243.50568750000002
 20
154.25871875
 10
245.34693750000002
 20
155.41043750000003
 10
246.116
 20
156.14700000000002
 10
246.824125
 20
156.94106250000002
 10
247.93365625
 20
158.78278125000003
 10
248.67428125
 20
160.92965625000002
 10
249.04506250000003
 20
163.38262500000002
 10
249.07600000000002
 20
164.73700000000002
 10
249.04475000000002
 20
166.08856250000002
 10
248.67021875
 20
168.54481250000003
 10
247.92209375000002
 20
170.70481250000003
 10
246.80131250000002
 20
172.56856250000004
 10
246.086
 20
173.377
 10
245.31037500000002
 20
174.12793750000003
 10
243.46537500000002
 20
175.30215625000002
 10
241.267875
 20
176.08403125
 10
238.71787500000002
 20
176.4745
 10
237.29600000000002
 20
176.507
 10
224.28600000000003
 20
176.507
 10
224.28600000000003
 20
153.07700000000003
  0
LWPOLYLINE
  5
47
330
17
100
AcDbEntity
  8
0
 62
7
100
AcDbPolyline
 90
65
 70
0
 10
237.0465996453919
 20
195.97227096604843
 10
236.97506481137884
 20
196.25785403176343
 10
236.87588240171607
 20
196.5350502970953
 10
236.7500075972273
 20
196.801190210478
 10
236.59865264108987
 20
197.05371069905885
 10
236.42327516427042
 20
197.29017985249095
 10
236.22556414774186
 20
197.50832034355966
 10
236.00742365667315
 20
197.70603136008825
 10
235.77095450324103
 20
197.88140883690767
 10
235.51843401466022
 20
198.0327637930451
 10
235.25229410127747
 20
198.1586385975339
 10
234.9750978359456
 20
198.25782100719664
 10
234.6895147702306
 20
198.32935584120972
 10
234.3982952251709
 20
198.3725541800166
 10
234.1042438041822
 20
198.38700000000003
 10
233.81019238319354
 20
198.3725541800166
 10
233.51897283813383
 20
198.32935584120972
 10
233.23338977241883
 20
198.25782100719664
 10
232.95619350708694
 20
198.1586385975339
 10
232.69005359370422
 20
198.0327637930451
 10
232.4375331051234
 20
197.88140883690767
 10
232.20106395169128
 20
197.70603136008822
 10
231.98292346062257
 20
197.50832034355966
 10
231.78521244409401
 20
197.29017985249095
 10
231.6098349672746
 20
197.05371069905885
 10
231.45848001113717
 20
196.801190210478
 10
231.33260520664834
 20
196.5350502970953
 10
231.2334227969856
 20
196.25785403176343
 10
231.16188796297251
 20
195.97227096604843
 10
231.11868962416563
 20
195.6810514209887
 10
231.1042438041822
 20
195.38700000000003
 10
231.11868962416563
 20
195.09294857901136
 10
231.16188796297251
 20
194.80172903395163
 10
231.2334227969856
 20
194.51614596823663
 10
231.33260520664837
 20
194.23894970290476
 10
231.45848001113717
 20
193.97280978952205
 10
231.6098349672746
 20
193.7202893009412
 10
231.78521244409401
 20
193.4838201475091
 10
231.98292346062257
 20
193.2656796564404
 10
232.20106395169128
 20
193.0679686399118
 10
232.4375331051234
 20
192.8925911630924
 10
232.69005359370422
 20
192.74123620695497
 10
232.95619350708694
 20
192.61536140246616
 10
233.23338977241883
 20
192.51617899280342
 10
233.51897283813383
 20
192.44464415879034
 10
233.81019238319354
 20
192.40144581998345
 10
234.1042438041822
 20
192.38700000000003
 10
234.3982952251709
 20
192.40144581998345
 10
234.6895147702306
 20
192.44464415879034
 10
234.9750978359456
 20
192.51617899280342
 10
235.25229410127747
 20
192.61536140246616
 10
235.51843401466022
 20
192.74123620695497
 10
235.77095450324103
 20
192.8925911630924
 10
236.00742365667315
 20
193.0679686399118
 10
236.22556414774186
 20
193.2656796564404
 10
236.42327516427042
 20
193.4838201475091
 10
236.59865264108987
 20
193.7202893009412
 10
236.7500075972273
 20
193.97280978952205
 10
236.87588240171607
 20
194.23894970290476
 10
236.97506481137884
 20
194.51614596823663
 10
237.0465996453919
 20
194.80172903395163
 10
237.0897979841988
 20
195.09294857901136
 10
237.1042438041822
 20
195.38700000000003
 10
237.0897979841988
 20
195.6810514209887
 10
237.0465996453919
 20
195.97227096604843
  0
LWPOLYLINE
  5
48
330
17
100
AcDbEntity
  8
0
 62
8
100
AcDbPolyline
 90
54
 70
0
 10
179.46
 20
191.122
 10
179.46
 20
175.24200000000002
 10
153.85
 20
175.24200000000002
 10
153.85
 20
105.81200000000001
 10
133.29000000000002
 20
105.81200000000001
 10
133.29000000000002
 20
175.24200000000002
 10
108.15
 20
175.24200000000002
 10
108.15
 20
191.122
 10
138.485292995977
 20
191.122
 10
138.3824281789298
 20
191.29361957904405
 10
138.13067856995224
 20
191.82589940580948
 10
137.9323137506267
 20
192.38029193647324
 10
137.78924408260056
 20
192.95145806790325
 10
137.70284740498676
 20
193.53389715802265
 10
137.67395576501994
 20
194.122
 10
137.70284740498676
 20
194.71010284197737
 10
137.78924408260056
 20
195.29254193209678
 10
137.9323137506267
 20
195.8637080635268
 10
138.13067856995224
 20
196.41810059419055
 10
138.3824281789298
 20
196.95038042095598
 10
138.68513809120466
 20
197.4554213981176
 10
139.03589304484353
 20
197.9283597049819
 10
139.43131507790065
 20
198.3646406871193
 10
139.86759606003807
 20
198.76006272017645
 10
140.34053436690232
 20
199.1108176738153
 10
140.84557534406395
 20
199.41352758609014
 10
141.3778551708294
 20
199.66527719506774
 10
141.93224770149317
 20
199.86364201439326
 10
142.50341383292317
 20
200.0067116824194
 10
143.08585292304258
 20
200.0931083600332
 10
143.67395576501994
 20
200.122
 10
144.2620586069973
 20
200.0931083600332
 10
144.8444976971167
 20
200.0067116824194
 10
145.4156638285467
 20
199.86364201439326
 10
145.97005635921047
 20
199.66527719506774
 10
146.50233618597593
 20
199.41352758609014
 10
147.00737716313756
 20
199.1108176738153
 10
147.4803154700018
 20
198.76006272017645
 10
147.91659645213923
 20
198.3646406871193
 10
148.31201848519635
 20
197.9283597049819
 10
148.66277343883522
 20
197.4554213981176
 10
148.96548335111007
 20
196.950380420956
 10
149.21723296008764
 20
196.41810059419055
 10
149.4155977794132
 20
195.8637080635268
 10
149.55866744743932
 20
195.29254193209678
 10
149.64506412505312
 20
194.71010284197737
 10
149.67395576501994
 20
194.122
 10
149.64506412505312
 20
193.53389715802265
 10
149.55866744743932
 20
192.95145806790325
 10
149.4155977794132
 20
192.38029193647324
 10
149.21723296008764
 20
191.82589940580948
 10
148.96548335111007
 20
191.29361957904405
 10
148.86261853406288
 20
191.122
 10
179.46
 20
191.122
  0
LWPOLYLINE
  5
49
330
17
100
AcDbEntity
  8
0
 62
8
100
AcDbPolyline
 90
65
 70
0
 10
146.61631160622963
 20
194.70727096604838
 10
146.54477677221655
 20
194.9928540317634
 10
146.4455943625538
 20
195.27005029709528
 10
146.319719558065
 20
195.53619021047803
 10
146.16836460192758
 20
195.7887106990588
 10
145.99298712510816
 20
196.02517985249096
 10
145.79527610857957
 20
196.24332034355967
 10
145.57713561751086
 20
196.44103136008823
 10
145.34066646407874
 20
196.61640883690765
 10
145.08814597549792
 20
196.76776379304508
 10
144.8220060621152
 20
196.89363859753388
 10
144.54480979678334
 20
196.99282100719665
 10
144.25922673106834
 20
197.0643558412097
 10
143.9680071860086
 20
197.10755418001662
 10
143.67395576501994
 20
197.122
 10
143.37990434403127
 20
197.10755418001662
 10
143.08868479897154
 20
197.0643558412097
 10
142.80310173325654
 20
196.99282100719665
 10
142.52590546792467
 20
196.89363859753388
 10
142.25976555454196
 20
196.76776379304508
 10
142.00724506596114
 20
196.61640883690765
 10
141.77077591252902
 20
196.44103136008823
 10
141.5526354214603
 20
196.24332034355967
 10
141.35492440493172
 20
196.02517985249096
 10
141.1795469281123
 20
195.7887106990588
 10
141.02819197197488
 20
195.53619021047803
 10
140.90231716748607
 20
195.27005029709528
 10
140.80313475782333
 20
194.9928540317634
 10
140.73159992381025
 20
194.70727096604838
 10
140.68840158500336
 20
194.4160514209887
 10
140.67395576501994
 20
194.122
 10
140.68840158500336
 20
193.82794857901132
 10
140.73159992381025
 20
193.53672903395164
 10
140.80313475782333
 20
193.25114596823664
 10
140.90231716748607
 20
192.97394970290475
 10
141.02819197197488
 20
192.707809789522
 10
141.1795469281123
 20
192.45528930094122
 10
141.35492440493172
 20
192.21882014750906
 10
141.5526354214603
 20
192.00067965644035
 10
141.77077591252902
 20
191.8029686399118
 10
142.00724506596114
 20
191.62759116309238
 10
142.25976555454196
 20
191.47623620695495
 10
142.52590546792467
 20
191.35036140246615
 10
142.80310173325654
 20
191.25117899280337
 10
143.08868479897154
 20
191.17964415879032
 10
143.37990434403127
 20
191.1364458199834
 10
143.67395576501994
 20
191.122
 10
143.9680071860086
 20
191.1364458199834
 10
144.25922673106834
 20
191.17964415879032
 10
144.54480979678334
 20
191.25117899280337
 10
144.8220060621152
 20
191.35036140246615
 10
145.08814597549792
 20
191.47623620695495
 10
145.34066646407874
 20
191.62759116309238
 10
145.57713561751086
 20
191.8029686399118
 10
145.79527610857957
 20
192.00067965644035
 10
145.99298712510816
 20
192.21882014750906
 10
146.16836460192758
 20
192.45528930094122
 10
146.319719558065
 20
192.707809789522
 10
146.4455943625538
 20
192.97394970290475
 10
146.54477677221655
 20
193.25114596823664
 10
146.61631160622963
 20
193.53672903395164
 10
146.65950994503652
 20
193.82794857901132
 10
146.67395576501994
 20
194.122
 10
146.65950994503652
 20
194.4160514209887
 10
146.61631160622963
 20
194.70727096604838
  0
LWPOLYLINE
  5
4A
330
17
100
AcDbEntity
  8
0
 62
9
100
AcDbPolyline
 90
103
 70
0
 10
189.987
 20
62.955999999999996
 10
220.277
 20
62.955999999999996
 10
220.277
 20
96.816
 10
229.53833723095704
 20
96.816
 10
229.43547241390988
 20
96.98761957904402
 10
229.18372280493227
 20
97.51989940580947
 10
228.98535798560675
 20
98.07429193647323
 10
228.84228831758062
 20
98.64545806790323
 10
228.75589163996682
 20
99.22789715802264
 10
228.727
 20
99.816
 10
228.75589163996682
 20
100.40410284197736
 10
228.84228831758062
 20
100.98654193209677
 10
228.98535798560675
 20
101.55770806352677
 10
229.18372280493227
 20
102.11210059419054
 10
229.43547241390985
 20
102.64438042095598
 10
229.73818232618473
 20
103.14942139811761
 10
230.08893727982357
 20
103.62235970498187
 10
230.4843593128807
 20
104.0586406871193
 10
230.92064029501813
 20
104.45406272017642
 10
231.39357860188238
 20
104.80481767381528
 10
231.898619579044
 20
105.10752758609013
 10
232.43089940580944
 20
105.35927719506772
 10
232.98529193647323
 20
105.55764201439325
 10
233.55645806790324
 20
105.70071168241938
 10
234.13889715802264
 20
105.78710836003319
 10
234.727
 20
105.816
 10
235.31510284197736
 20
105.78710836003319
 10
235.89754193209677
 20
105.70071168241938
 10
236.46870806352678
 20
105.55764201439325
 10
237.02310059419054
 20
105.35927719506772
 10
237.55538042095597
 20
105.10752758609013
 10
238.0604213981176
 20
104.80481767381528
 10
238.53335970498188
 20
104.45406272017642
 10
238.96964068711927
 20
104.0586406871193
 10
239.3650627201764
 20
103.62235970498187
 10
239.71581767381528
 20
103.14942139811761
 10
240.01852758609013
 20
102.644380420956
 10
240.2702771950677
 20
102.11210059419055
 10
240.46864201439325
 20
101.55770806352677
 10
240.61171168241938
 20
100.98654193209677
 10
240.6981083600332
 20
100.40410284197736
 10
240.727
 20
99.816
 10
240.6981083600332
 20
99.22789715802264
 10
240.61171168241938
 20
98.64545806790323
 10
240.46864201439325
 20
98.07429193647323
 10
240.2702771950677
 20
97.51989940580947
 10
240.01852758609013
 20
96.98761957904402
 10
239.91566276904294
 20
96.816
 10
240.727
 20
96.816
 10
240.727
 20
11.506
 10
220.277
 20
11.506
 10
220.277
 20
47.126
 10
189.987
 20
47.126
 10
189.987
 20
11.506
 10
169.427
 20
11.506
 10
169.427
 20
96.816
 10
170.23833723095706
 20
96.816
 10
170.13547241390987
 20
96.98761957904402
 10
169.8837228049323
 20
97.51989940580947
 10
169.68535798560674
 20
98.07429193647323
 10
169.5422883175806
 20
98.64545806790323
 10
169.4558916399668
 20
99.22789715802264
 10
169.427
 20
99.816
 10
169.4558916399668
 20
100.40410284197736
 10
169.5422883175806
 20
100.98654193209677
 10
169.68535798560674
 20
101.55770806352677
 10
169.8837228049323
 20
102.11210059419054
 10
170.13547241390987
 20
102.64438042095598
 10
170.43818232618472
 20
103.14942139811761
 10
170.78893727982359
 20
103.62235970498187
 10
171.1843593128807
 20
104.0586406871193
 10
171.62064029501812
 20
104.45406272017642
 10
172.0935786018824
 20
104.80481767381528
 10
172.598619579044
 20
105.10752758609013
 10
173.13089940580946
 20
105.35927719506772
 10
173.68529193647322
 20
105.55764201439325
 10
174.25645806790322
 20
105.70071168241938
 10
174.83889715802263
 20
105.78710836003319
 10
175.427
 20
105.816
 10
176.01510284197735
 20
105.78710836003319
 10
176.59754193209676
 20
105.70071168241938
 10
177.16870806352676
 20
105.55764201439325
 10
177.72310059419056
 20
105.35927719506772
 10
178.255380420956
 20
105.10752758609013
 10
178.76042139811761
 20
104.80481767381528
 10
179.23335970498186
 20
104.45406272017642
 10
179.66964068711928
 20
104.0586406871193
 10
180.06506272017643
 20
103.62235970498187
 10
180.41581767381527
 20
103.14942139811761
 10
180.71852758609012
 20
102.644380420956
 10
180.97027719506772
 20
102.11210059419055
 10
181.16864201439324
 20
101.55770806352677
 10
181.31171168241937
 20
100.98654193209677
 10
181.39810836003318
 20
100.40410284197736
 10
181.427
 20
99.816
 10
181.39810836003318
 20
99.22789715802264
 10
181.31171168241937
 20
98.64545806790323
 10
181.16864201439324
 20
98.07429193647323
 10
180.97027719506772
 20
97.51989940580947
 10
180.71852758609012
 20
96.98761957904402
 10
180.61566276904296
 20
96.816
 10
189.987
 20
96.816
 10
189.987
 20
62.955999999999996
  0
LWPOLYLINE
  5
4B
330
17
100
AcDbEntity
  8
0
 62
9
100
AcDbPolyline
 90
65
 70
0
 10
178.29782100719663
 20
100.68685403176339
 10
178.19863859753386
 20
100.96405029709527
 10
178.07276379304506
 20
101.230190210478
 10
177.92140883690763
 20
101.48271069905881
 10
177.7460313600882
 20
101.71917985249094
 10
177.54832034355965
 20
101.93732034355965
 10
177.33017985249094
 20
102.13503136008822
 10
177.09371069905882
 20
102.31040883690764
 10
176.841190210478
 20
102.46176379304507
 10
176.57505029709526
 20
102.58763859753387
 10
176.2978540317634
 20
102.68682100719663
 10
176.0122709660484
 20
102.75835584120969
 10
175.7210514209887
 20
102.8015541800166
 10
175.427
 20
102.816
 10
175.13294857901133
 20
102.8015541800166
 10
174.84172903395162
 20
102.75835584120969
 10
174.55614596823662
 20
102.68682100719663
 10
174.27894970290473
 20
102.58763859753387
 10
174.012809789522
 20
102.46176379304507
 10
173.7602893009412
 20
102.31040883690764
 10
173.52382014750907
 20
102.1350313600882
 10
173.30567965644036
 20
101.93732034355965
 10
173.1079686399118
 20
101.71917985249094
 10
172.93259116309235
 20
101.48271069905881
 10
172.78123620695493
 20
101.230190210478
 10
172.65536140246613
 20
100.96405029709527
 10
172.55617899280338
 20
100.68685403176339
 10
172.4846441587903
 20
100.40127096604839
 10
172.44144581998341
 20
100.11005142098868
 10
172.427
 20
99.816
 10
172.44144581998341
 20
99.52194857901132
 10
172.4846441587903
 20
99.23072903395162
 10
172.55617899280338
 20
98.94514596823662
 10
172.65536140246613
 20
98.66794970290474
 10
172.78123620695493
 20
98.401809789522
 10
172.93259116309235
 20
98.14928930094119
 10
173.1079686399118
 20
97.91282014750907
 10
173.30567965644036
 20
97.69467965644036
 10
173.52382014750907
 20
97.49696863991178
 10
173.7602893009412
 20
97.32159116309236
 10
174.012809789522
 20
97.17023620695494
 10
174.27894970290473
 20
97.04436140246614
 10
174.55614596823662
 20
96.94517899280338
 10
174.84172903395162
 20
96.87364415879031
 10
175.13294857901133
 20
96.83044581998341
 10
175.427
 20
96.816
 10
175.7210514209887
 20
96.83044581998341
 10
176.0122709660484
 20
96.87364415879031
 10
176.2978540317634
 20
96.94517899280338
 10
176.57505029709526
 20
97.04436140246614
 10
176.841190210478
 20
97.17023620695494
 10
177.09371069905882
 20
97.32159116309236
 10
177.33017985249094
 20
97.49696863991178
 10
177.54832034355965
 20
97.69467965644036
 10
177.7460313600882
 20
97.91282014750907
 10
177.92140883690763
 20
98.14928930094119
 10
178.07276379304506
 20
98.401809789522
 10
178.19863859753386
 20
98.66794970290474
 10
178.29782100719663
 20
98.94514596823662
 10
178.36935584120968
 20
99.23072903395162
 10
178.4125541800166
 20
99.52194857901132
 10
178.427
 20
99.816
 10
178.4125541800166
 20
100.11005142098868
 10
178.36935584120968
 20
100.40127096604839
 10
178.29782100719663
 20
100.68685403176339
  0
LWPOLYLINE
  5
4C
330
17
100
AcDbEntity
  8
0
 62
9
100
AcDbPolyline
 90
65
 70
0
 10
237.6693558412097
 20
100.40127096604839
 10
237.59782100719661
 20
100.68685403176339
 10
237.49863859753387
 20
100.96405029709527
 10
237.37276379304507
 20
101.230190210478
 10
237.22140883690764
 20
101.48271069905881
 10
237.0460313600882
 20
101.71917985249094
 10
236.84832034355964
 20
101.93732034355965
 10
236.63017985249093
 20
102.13503136008822
 10
236.3937106990588
 20
102.31040883690764
 10
236.141190210478
 20
102.46176379304507
 10
235.87505029709527
 20
102.58763859753387
 10
235.59785403176338
 20
102.68682100719663
 10
235.31227096604837
 20
102.75835584120969
 10
235.02105142098867
 20
102.8015541800166
 10
234.727
 20
102.816
 10
234.4329485790113
 20
102.8015541800166
 10
234.1417290339516
 20
102.75835584120969
 10
233.8561459682366
 20
102.68682100719663
 10
233.57894970290474
 20
102.58763859753387
 10
233.31280978952202
 20
102.46176379304507
 10
233.06028930094118
 20
102.31040883690764
 10
232.82382014750905
 20
102.1350313600882
 10
232.60567965644034
 20
101.93732034355965
 10
232.4079686399118
 20
101.71917985249094
 10
232.23259116309237
 20
101.48271069905881
 10
232.08123620695494
 20
101.230190210478
 10
231.95536140246614
 20
100.96405029709527
 10
231.85617899280336
 20
100.68685403176339
 10
231.78464415879031
 20
100.40127096604839
 10
231.7414458199834
 20
100.11005142098868
 10
231.727
 20
99.816
 10
231.7414458199834
 20
99.52194857901132
 10
231.78464415879031
 20
99.23072903395162
 10
231.85617899280336
 20
98.94514596823662
 10
231.95536140246614
 20
98.66794970290474
 10
232.08123620695494
 20
98.401809789522
 10
232.23259116309237
 20
98.14928930094119
 10
232.4079686399118
 20
97.91282014750907
 10
232.60567965644034
 20
97.69467965644036
 10
232.82382014750905
 20
97.49696863991178
 10
233.06028930094118
 20
97.32159116309236
 10
233.31280978952202
 20
97.17023620695494
 10
233.57894970290474
 20
97.04436140246614
 10
233.8561459682366
 20
96.94517899280338
 10
234.1417290339516
 20
96.87364415879031
 10
234.4329485790113
 20
96.83044581998341
 10
234.727
 20
96.816
 10
235.02105142098867
 20
96.83044581998341
 10
235.31227096604837
 20
96.87364415879031
 10
235.59785403176338
 20
96.94517899280338
 10
235.87505029709527
 20
97.04436140246614
 10
236.141190210478
 20
97.17023620695494
 10
236.3937106990588
 20
97.32159116309236
 10
236.63017985249093
 20
97.49696863991178
 10
236.84832034355964
 20
97.69467965644036
 10
237.04603136008822
 20
97.91282014750907
 10
237.22140883690764
 20
98.14928930094119
 10
237.37276379304507
 20
98.401809789522
 10
237.49863859753387
 20
98.66794970290474
 10
237.59782100719661
 20
98.94514596823662
 10
237.6693558412097
 20
99.23072903395162
 10
237.71255418001658
 20
99.52194857901132
 10
237.727
 20
99.816
 10
237.71255418001658
 20
100.11005142098868
 10
237.6693558412097
 20
100.40127096604839
  0
LWPOLYLINE
  5
4D
330
17
100
AcDbEntity
  8
0
 62
10
100
AcDbPolyline
 90
79
 70
0
 10
334.5361622597429
 20
192.58971274025706
 10
339.6192872597429
 20
191.30908774025707
 10
344.41881850974295
 20
189.38955649025706
 10
346.70006850974295
 20
188.16393149025706
 10
348.91288100974293
 20
186.83736899025706
 10
352.92866225974296
 20
183.74408774025704
 10
356.4517872597429
 20
180.12346274025705
 10
359.4813185097429
 20
175.97643149025703
 10
360.7900685097429
 20
173.68393149025707
 10
362.0053810097429
 20
171.32424399025706
 10
363.91413100974296
 20
166.37049399025705
 10
365.19663100974293
 20
161.13549399025706
 10
365.85288100974293
 20
155.61924399025708
 10
365.9200685097429
 20
152.74393149025707
 10
365.9200685097429
 20
148.81393149025706
 10
365.86850600974293
 20
145.91049399025707
 10
365.2497560097429
 20
140.35627524025705
 10
364.01225600974294
 20
135.10440024025706
 10
362.1560060097429
 20
130.15393149025707
 10
360.97006850974293
 20
127.80393149025706
 10
359.6872560097429
 20
125.52486899025706
 10
356.7045997597429
 20
121.38815024025706
 10
353.21897475974293
 20
117.75627524025705
 10
349.2275685097429
 20
114.62830649025706
 10
347.02006850974294
 20
113.27393149025706
 10
344.7485060097429
 20
112.01893149025706
 10
339.9897560097429
 20
110.04690024025706
 10
334.9722560097429
 20
108.72127524025706
 10
329.696006009743
 20
108.04299399025706
 10
326.95006850974295
 20
107.97393149025706
 10
298.89006850974295
 20
107.97393149025706
 10
298.89006850974295
 20
193.28393149025706
 10
323.4536893660714
 20
193.28393149025706
 10
323.3771150077869
 20
193.41168808878697
 10
323.1253653988093
 20
193.94396791555243
 10
322.9270005794838
 20
194.49836044621617
 10
322.7839309114577
 20
195.06952657764617
 10
322.69753423384384
 20
195.65196566776558
 10
322.66864259387705
 20
196.24006850974297
 10
322.69753423384384
 20
196.8281713517203
 10
322.7839309114577
 20
197.4106104418397
 10
322.9270005794838
 20
197.9817765732697
 10
323.1253653988093
 20
198.5361691039335
 10
323.3771150077869
 20
199.06844893069893
 10
323.6798249200618
 20
199.57348990786056
 10
324.0305798737006
 20
200.0464282147248
 10
324.42600190675773
 20
200.48270919686223
 10
324.86228288889515
 20
200.87813122991938
 10
325.33522119575946
 20
201.22888618355825
 10
325.84026217292103
 20
201.5315960958331
 10
326.3725419996865
 20
201.78334570481067
 10
326.92693453035025
 20
201.9817105241362
 10
327.49810066178026
 20
202.12478019216235
 10
328.08053975189966
 20
202.21117686977612
 10
328.66864259387705
 20
202.24006850974297
 10
329.2567454358544
 20
202.21117686977612
 10
329.8391845259738
 20
202.12478019216235
 10
330.4103506574038
 20
201.9817105241362
 10
330.9647431880676
 20
201.78334570481067
 10
331.497023014833
 20
201.5315960958331
 10
332.00206399199465
 20
201.22888618355825
 10
332.4750022988589
 20
200.87813122991938
 10
332.9112832809963
 20
200.48270919686223
 10
333.3067053140535
 20
200.0464282147248
 10
333.65746026769233
 20
199.57348990786056
 10
333.9601701799672
 20
199.06844893069893
 10
334.2119197889448
 20
198.5361691039335
 10
334.4102846082703
 20
197.9817765732697
 10
334.55335427629643
 20
197.4106104418397
 10
334.6397509539102
 20
196.8281713517203
 10
334.66864259387705
 20
196.24006850974297
 10
334.6397509539102
 20
195.65196566776558
 10
334.55335427629643
 20
195.06952657764617
 10
334.4102846082703
 20
194.49836044621617
 10
334.2119197889448
 20
193.94396791555243
 10
333.9601701799672
 20
193.41168808878697
 10
333.65746026769233
 20
192.90664711162535
 10
333.51302297524273
 20
192.71189596747047
 10
334.5361622597429
 20
192.58971274025706
  0
LWPOLYLINE
  5
4E
330
17
100
AcDbEntity
  8
0
 62
10
100
AcDbPolyline
 90
25
 70
0
 10
319.45006850974295
 20
177.40393149025704
 10
319.45006850974295
 20
123.79393149025705
 10
326.6000685097429
 20
123.79393149025705
 10
328.76975600974293
 20
123.85955649025706
 10
332.68100600974293
 20
124.64705649025706
 10
336.0785060097429
 20
126.22205649025706
 10
338.96225600974293
 20
128.58455649025706
 10
340.19006850974296
 20
130.09393149025706
 10
341.3291310097429
 20
131.73268149025705
 10
343.1108497597429
 20
135.64768149025707
 10
344.29772475974295
 20
140.32768149025705
 10
344.89069350974296
 20
145.77268149025707
 10
344.94006850974296
 20
148.81393149025706
 10
344.94006850974296
 20
152.50393149025706
 10
344.89069350974296
 20
155.53049399025707
 10
344.29772475974295
 20
160.94924399025706
 10
343.1108497597429
 20
165.60674399025706
 10
341.3291310097429
 20
169.50299399025704
 10
340.19006850974296
 20
171.13393149025705
 10
338.95975600974293
 20
172.63611899025705
 10
336.0464747597429
 20
174.98736899025707
 10
332.5908497597429
 20
176.55486899025703
 10
328.59381850974296
 20
177.33861899025706
 10
326.37006850974296
 20
177.40393149025704
 10
319.45006850974295
 20
177.40393149025704
  0
LWPOLYLINE
  5
4F
330
17
100
AcDbEntity
  8
0
 62
10
100
AcDbPolyline
 90
65
 70
0
 10
331.61099843508674
 20
196.82533947579134
 10
331.5394636010737
 20
197.11092254150634
 10
331.4402811914109
 20
197.38811880683824
 10
331.3144063869221
 20
197.65425872022095
 10
331.16305143078466
 20
197.90677920880177
 10
330.98767395396527
 20
198.1432483622339
 10
330.7899629374367
 20
198.3613888533026
 10
330.571822446368
 20
198.55909986983116
 10
330.33535329293585
 20
198.73447734665058
 10
330.082832804355
 20
198.885832302788
 10
329.8166928909723
 20
199.01170710727683
 10
329.5394966256404
 20
199.11088951693958
 10
329.2539135599254
 20
199.18242435095266
 10
328.96269401486575
 20
199.22562268975955
 10
328.66864259387705
 20
199.24006850974297
 10
328.37459117288836
 20
199.22562268975955
 10
328.0833716278287
 20
199.18242435095266
 10
327.7977885621137
 20
199.11088951693958
 10
327.5205922967818
 20
199.01170710727683
 10
327.25445238339904
 20
198.885832302788
 10
327.00193189481826
 20
198.73447734665058
 10
326.7654627413861
 20
198.55909986983116
 10
326.5473222503174
 20
198.3613888533026
 10
326.34961123378883
 20
198.1432483622339
 10
326.1742337569694
 20
197.90677920880177
 10
326.02287880083196
 20
197.65425872022095
 10
325.8970039963432
 20
197.38811880683824
 10
325.7978215866804
 20
197.11092254150634
 10
325.72628675266736
 20
196.82533947579134
 10
325.68308841386045
 20
196.53411993073163
 10
325.66864259387705
 20
196.24006850974297
 10
325.68308841386045
 20
195.94601708875427
 10
325.72628675266736
 20
195.65479754369457
 10
325.7978215866804
 20
195.36921447797957
 10
325.8970039963432
 20
195.0920182126477
 10
326.02287880083196
 20
194.82587829926496
 10
326.17423375696944
 20
194.57335781068414
 10
326.34961123378883
 20
194.33688865725202
 10
326.5473222503174
 20
194.1187481661833
 10
326.7654627413861
 20
193.92103714965475
 10
327.00193189481826
 20
193.7456596728353
 10
327.25445238339904
 20
193.59430471669788
 10
327.5205922967818
 20
193.4684299122091
 10
327.7977885621137
 20
193.36924750254633
 10
328.0833716278287
 20
193.29771266853328
 10
328.37459117288836
 20
193.25451432972636
 10
328.66864259387705
 20
193.24006850974297
 10
328.96269401486575
 20
193.25451432972636
 10
329.2539135599254
 20
193.29771266853328
 10
329.5394966256404
 20
193.36924750254633
 10
329.8166928909723
 20
193.4684299122091
 10
330.082832804355
 20
193.59430471669788
 10
330.33535329293585
 20
193.7456596728353
 10
330.571822446368
 20
193.92103714965475
 10
330.7899629374367
 20
194.1187481661833
 10
330.98767395396527
 20
194.33688865725202
 10
331.16305143078466
 20
194.57335781068414
 10
331.3144063869221
 20
194.82587829926496
 10
331.4402811914109
 20
195.0920182126477
 10
331.5394636010737
 20
195.36921447797957
 10
331.61099843508674
 20
195.65479754369457
 10
331.65419677389366
 20
195.94601708875427
 10
331.66864259387705
 20
196.24006850974297
 10
331.65419677389366
 20
196.53411993073163
 10
331.61099843508674
 20
196.82533947579134
  0
LWPOLYLINE
  5
50
330
17
100
AcDbEntity
  8
0
 62
11
100
AcDbPolyline
 90
54
 70
0
 10
56.71
 20
91.391
 10
88.23
 20
6.081000000000003
 10
66.14
 20
6.081000000000003
 10
61.160000000000004
 20
22.021
 10
32.980000000000004
 20
22.021
 10
28.06
 20
6.081000000000003
 10
6.079999999999998
 20
6.081000000000003
 10
37.370000000000005
 20
91.391
 10
41.92802694819399
 20
91.391
 10
41.8251621311468
 20
91.56261957904402
 10
41.57341252216921
 20
92.09489940580947
 10
41.37504770284367
 20
92.64929193647323
 10
41.231978034817544
 20
93.22045806790324
 10
41.14558135720375
 20
93.80289715802265
 10
41.11668971723693
 20
94.391
 10
41.14558135720375
 20
94.97910284197737
 10
41.231978034817544
 20
95.56154193209677
 10
41.37504770284367
 20
96.13270806352678
 10
41.57341252216921
 20
96.68710059419054
 10
41.8251621311468
 20
97.21938042095599
 10
42.12787204342166
 20
97.72442139811761
 10
42.47862699706051
 20
98.19735970498188
 10
42.87404903011765
 20
98.6336406871193
 10
43.31033001225506
 20
99.02906272017643
 10
43.783268319119315
 20
99.37981767381528
 10
44.28830929628094
 20
99.68252758609013
 10
44.82058912304639
 20
99.93427719506772
 10
45.37498165371016
 20
100.13264201439326
 10
45.946147785140155
 20
100.27571168241938
 10
46.52858687525957
 20
100.36210836003319
 10
47.11668971723693
 20
100.391
 10
47.70479255921429
 20
100.36210836003319
 10
48.2872316493337
 20
100.27571168241938
 10
48.8583977807637
 20
100.13264201439326
 10
49.41279031142747
 20
99.93427719506772
 10
49.94507013819292
 20
99.68252758609013
 10
50.450111115354545
 20
99.37981767381528
 10
50.9230494222188
 20
99.02906272017643
 10
51.359330404356214
 20
98.6336406871193
 10
51.75475243741335
 20
98.19735970498188
 10
52.1055073910522
 20
97.72442139811761
 10
52.408217303327056
 20
97.219380420956
 10
52.65996691230465
 20
96.68710059419055
 10
52.85833173163019
 20
96.13270806352678
 10
53.00140139965631
 20
95.56154193209677
 10
53.08779807727011
 20
94.97910284197737
 10
53.11668971723693
 20
94.391
 10
53.08779807727011
 20
93.80289715802265
 10
53.00140139965632
 20
93.22045806790324
 10
52.85833173163019
 20
92.64929193647323
 10
52.659966912304654
 20
92.09489940580947
 10
52.40821730332706
 20
91.56261957904402
 10
52.30535248627987
 20
91.391
 10
56.71
 20
91.391
  0
LWPOLYLINE
  5
51
330
17
100
AcDbEntity
  8
0
 62
11
100
AcDbPolyline
 90
4
 70
0
 10
37.9
 20
37.901
 10
56.24
 20
37.901
 10
47.04
 20
67.491
 10
37.9
 20
37.901
  0
LWPOLYLINE
  5
52
330
17
100
AcDbEntity
  8
0
 62
11
100
AcDbPolyline
 90
65
 70
0
 10
50.05904555844662
 20
94.97627096604839
 10
49.987510724433555
 20
95.26185403176339
 10
49.88832831477079
 20
95.53905029709527
 10
49.76245351028199
 20
95.805190210478
 10
49.61109855414457
 20
96.05771069905882
 10
49.43572107732514
 20
96.29417985249094
 10
49.23801006079657
 20
96.51232034355965
 10
49.01986956972787
 20
96.71003136008822
 10
48.783400416295734
 20
96.88540883690764
 10
48.53087992771492
 20
97.03676379304507
 10
48.2647400143322
 20
97.16263859753387
 10
47.98754374900032
 20
97.26182100719663
 10
47.701960683285314
 20
97.3333558412097
 10
47.41074113822561
 20
97.3765541800166
 10
47.11668971723693
 20
97.391
 10
46.82263829624825
 20
97.3765541800166
 10
46.531418751188546
 20
97.3333558412097
 10
46.245835685473544
 20
97.26182100719663
 10
45.968639420141656
 20
97.16263859753387
 10
45.70249950675894
 20
97.03676379304507
 10
45.44997901817813
 20
96.88540883690764
 10
45.213509864745994
 20
96.71003136008821
 10
44.995369373677285
 20
96.51232034355965
 10
44.79765835714872
 20
96.29417985249094
 10
44.62228088032929
 20
96.05771069905882
 10
44.47092592419187
 20
95.805190210478
 10
44.34505111970307
 20
95.53905029709527
 10
44.245868710040305
 20
95.26185403176339
 10
44.17433387602724
 20
94.97627096604839
 10
44.13113553722034
 20
94.68505142098869
 10
44.11668971723693
 20
94.391
 10
44.13113553722034
 20
94.09694857901133
 10
44.17433387602724
 20
93.80572903395162
 10
44.245868710040305
 20
93.52014596823662
 10
44.34505111970307
 20
93.24294970290474
 10
44.47092592419187
 20
92.97680978952201
 10
44.62228088032929
 20
92.7242893009412
 10
44.79765835714872
 20
92.48782014750907
 10
44.995369373677285
 20
92.26967965644036
 10
45.213509864745994
 20
92.07196863991179
 10
45.44997901817813
 20
91.89659116309237
 10
45.70249950675894
 20
91.74523620695494
 10
45.96863942014166
 20
91.61936140246614
 10
46.245835685473544
 20
91.52017899280338
 10
46.531418751188546
 20
91.44864415879032
 10
46.82263829624825
 20
91.40544581998341
 10
47.11668971723693
 20
91.391
 10
47.41074113822561
 20
91.40544581998341
 10
47.701960683285314
 20
91.44864415879032
 10
47.98754374900032
 20
91.52017899280338
 10
48.2647400143322
 20
91.61936140246614
 10
48.53087992771492
 20
91.74523620695494
 10
48.783400416295734
 20
91.89659116309237
 10
49.01986956972787
 20
92.07196863991179
 10
49.238010060796576
 20
92.26967965644036
 10
49.43572107732514
 20
92.48782014750907
 10
49.61109855414457
 20
92.7242893009412
 10
49.76245351028199
 20
92.97680978952201
 10
49.88832831477079
 20
93.24294970290474
 10
49.987510724433555
 20
93.52014596823662
 10
50.05904555844662
 20
93.80572903395162
 10
50.10224389725352
 20
94.09694857901133
 10
50.11668971723693
 20
94.391
 10
50.10224389725352
 20
94.68505142098869
 10
50.05904555844662
 20
94.97627096604839
  0
LWPOLYLINE
  5
53
330
17
100
AcDbEntity
  8
0
 62
12
100
AcDbPolyline
 90
100
 70
0
 10
129.281
 20
57.551
 10
144.981
 20
94.581
 10
156.00233723095704
 20
94.581
 10
155.89947241390988
 20
94.75261957904402
 10
155.6477228049323
 20
95.28489940580947
 10
155.44935798560675
 20
95.83929193647323
 10
155.30628831758062
 20
96.41045806790324
 10
155.21989163996682
 20
96.99289715802264
 10
155.191
 20
97.581
 10
155.21989163996682
 20
98.16910284197736
 10
155.30628831758062
 20
98.75154193209677
 10
155.44935798560675
 20
99.32270806352678
 10
155.6477228049323
 20
99.87710059419054
 10
155.89947241390988
 20
100.40938042095598
 10
156.20218232618473
 20
100.91442139811761
 10
156.5529372798236
 20
101.38735970498188
 10
156.9483593128807
 20
101.8236406871193
 10
157.38464029501813
 20
102.21906272017642
 10
157.85757860188238
 20
102.56981767381528
 10
158.362619579044
 20
102.87252758609013
 10
158.89489940580944
 20
103.12427719506772
 10
159.44929193647323
 20
103.32264201439325
 10
160.02045806790323
 20
103.46571168241938
 10
160.60289715802264
 20
103.55210836003319
 10
161.191
 20
103.581
 10
161.77910284197736
 20
103.55210836003319
 10
162.36154193209677
 20
103.46571168241938
 10
162.93270806352677
 20
103.32264201439325
 10
163.48710059419054
 20
103.12427719506772
 10
164.019380420956
 20
102.87252758609013
 10
164.52442139811762
 20
102.56981767381528
 10
164.99735970498187
 20
102.21906272017642
 10
165.4336406871193
 20
101.8236406871193
 10
165.8290627201764
 20
101.38735970498188
 10
166.17981767381528
 20
100.91442139811761
 10
166.48252758609013
 20
100.409380420956
 10
166.7342771950677
 20
99.87710059419055
 10
166.93264201439325
 20
99.32270806352678
 10
167.07571168241938
 20
98.75154193209677
 10
167.1621083600332
 20
98.16910284197736
 10
167.191
 20
97.581
 10
167.1621083600332
 20
96.99289715802264
 10
167.07571168241938
 20
96.41045806790324
 10
166.93264201439325
 20
95.83929193647323
 10
166.7342771950677
 20
95.28489940580947
 10
166.48252758609013
 20
94.75261957904402
 10
166.37966276904297
 20
94.581
 10
167.191
 20
94.581
 10
139.71099999999998
 20
39.911
 10
139.71099999999998
 20
9.271
 10
118.851
 20
9.271
 10
118.851
 20
39.911
 10
91.42099999999999
 20
94.581
 10
92.23233723095706
 20
94.581
 10
92.12947241390987
 20
94.75261957904402
 10
91.87772280493228
 20
95.28489940580947
 10
91.67935798560674
 20
95.83929193647323
 10
91.53628831758061
 20
96.41045806790324
 10
91.44989163996681
 20
96.99289715802264
 10
91.42099999999999
 20
97.581
 10
91.44989163996681
 20
98.16910284197736
 10
91.53628831758061
 20
98.75154193209677
 10
91.67935798560674
 20
99.32270806352678
 10
91.87772280493228
 20
99.87710059419054
 10
92.12947241390987
 20
100.40938042095598
 10
92.43218232618472
 20
100.91442139811761
 10
92.78293727982357
 20
101.38735970498188
 10
93.1783593128807
 20
101.8236406871193
 10
93.61464029501812
 20
102.21906272017642
 10
94.08757860188238
 20
102.56981767381528
 10
94.592619579044
 20
102.87252758609013
 10
95.12489940580946
 20
103.12427719506772
 10
95.67929193647322
 20
103.32264201439325
 10
96.25045806790322
 20
103.46571168241938
 10
96.83289715802263
 20
103.55210836003319
 10
97.42099999999999
 20
103.581
 10
98.00910284197735
 20
103.55210836003319
 10
98.59154193209676
 20
103.46571168241938
 10
99.16270806352676
 20
103.32264201439325
 10
99.71710059419053
 20
103.12427719506772
 10
100.24938042095599
 20
102.87252758609013
 10
100.7544213981176
 20
102.56981767381528
 10
101.22735970498186
 20
102.21906272017642
 10
101.66364068711928
 20
101.8236406871193
 10
102.05906272017641
 20
101.38735970498188
 10
102.40981767381527
 20
100.91442139811761
 10
102.71252758609012
 20
100.409380420956
 10
102.96427719506771
 20
99.87710059419055
 10
103.16264201439324
 20
99.32270806352678
 10
103.30571168241937
 20
98.75154193209677
 10
103.39210836003318
 20
98.16910284197736
 10
103.42099999999999
 20
97.581
 10
103.39210836003318
 20
96.99289715802264
 10
103.30571168241937
 20
96.41045806790324
 10
103.16264201439324
 20
95.83929193647323
 10
102.96427719506771
 20
95.28489940580947
 10
102.71252758609012
 20
94.75261957904402
 10
102.60966276904293
 20
94.581
 10
113.511
 20
94.581
 10
129.281
 20
57.551
  0
LWPOLYLINE
  5
54
330
17
100
AcDbEntity
  8
0
 62
12
100
AcDbPolyline
 90
65
 70
0
 10
100.29182100719662
 20
98.45185403176339
 10
100.19263859753386
 20
98.72905029709527
 10
100.06676379304506
 20
98.995190210478
 10
99.91540883690763
 20
99.24771069905881
 10
99.74003136008821
 20
99.48417985249094
 10
99.54232034355964
 20
99.70232034355965
 10
99.32417985249093
 20
99.90003136008822
 10
99.08771069905879
 20
100.07540883690764
 10
98.83519021047799
 20
100.22676379304507
 10
98.56905029709526
 20
100.35263859753387
 10
98.29185403176338
 20
100.45182100719663
 10
98.00627096604838
 20
100.52335584120969
 10
97.71505142098867
 20
100.5665541800166
 10
97.42099999999999
 20
100.581
 10
97.12694857901131
 20
100.5665541800166
 10
96.83572903395161
 20
100.52335584120969
 10
96.5501459682366
 20
100.45182100719663
 10
96.27294970290473
 20
100.35263859753387
 10
96.006809789522
 20
100.22676379304507
 10
95.75428930094118
 20
100.07540883690764
 10
95.51782014750906
 20
99.9000313600882
 10
95.29967965644035
 20
99.70232034355965
 10
95.10196863991177
 20
99.48417985249094
 10
94.92659116309235
 20
99.24771069905881
 10
94.77523620695493
 20
98.995190210478
 10
94.64936140246613
 20
98.72905029709527
 10
94.55017899280337
 20
98.45185403176339
 10
94.4786441587903
 20
98.16627096604839
 10
94.4354458199834
 20
97.87505142098868
 10
94.42099999999999
 20
97.581
 10
94.4354458199834
 20
97.28694857901132
 10
94.4786441587903
 20
96.99572903395162
 10
94.55017899280337
 20
96.71014596823662
 10
94.64936140246613
 20
96.43294970290474
 10
94.77523620695493
 20
96.166809789522
 10
94.92659116309235
 20
95.91428930094119
 10
95.10196863991177
 20
95.67782014750907
 10
95.29967965644035
 20
95.45967965644036
 10
95.51782014750906
 20
95.26196863991179
 10
95.75428930094118
 20
95.08659116309236
 10
96.006809789522
 20
94.93523620695494
 10
96.27294970290473
 20
94.80936140246614
 10
96.5501459682366
 20
94.71017899280338
 10
96.83572903395161
 20
94.63864415879031
 10
97.12694857901131
 20
94.59544581998341
 10
97.42099999999999
 20
94.581
 10
97.71505142098867
 20
94.59544581998341
 10
98.00627096604838
 20
94.63864415879031
 10
98.29185403176338
 20
94.71017899280338
 10
98.56905029709526
 20
94.80936140246614
 10
98.83519021047799
 20
94.93523620695494
 10
99.0877106990588
 20
95.08659116309236
 10
99.32417985249093
 20
95.26196863991179
 10
99.54232034355964
 20
95.45967965644036
 10
99.74003136008821
 20
95.67782014750907
 10
99.91540883690763
 20
95.91428930094119
 10
100.06676379304506
 20
96.166809789522
 10
100.19263859753386
 20
96.43294970290474
 10
100.29182100719662
 20
96.71014596823662
 10
100.36335584120968
 20
96.99572903395162
 10
100.40655418001658
 20
97.28694857901132
 10
100.42099999999999
 20
97.581
 10
100.40655418001658
 20
97.87505142098868
 10
100.36335584120968
 20
98.16627096604839
 10
100.29182100719662
 20
98.45185403176339
  0
LWPOLYLINE
  5
55
330
17
100
AcDbEntity
  8
0
 62
12
100
AcDbPolyline
 90
65
 70
0
 10
164.1333558412097
 20
98.16627096604839
 10
164.0618210071966
 20
98.45185403176339
 10
163.96263859753387
 20
98.72905029709527
 10
163.83676379304507
 20
98.995190210478
 10
163.68540883690764
 20
99.24771069905881
 10
163.5100313600882
 20
99.48417985249094
 10
163.31232034355963
 20
99.70232034355965
 10
163.09417985249092
 20
99.90003136008822
 10
162.85771069905883
 20
100.07540883690764
 10
162.60519021047799
 20
100.22676379304507
 10
162.33905029709527
 20
100.35263859753387
 10
162.0618540317634
 20
100.45182100719663
 10
161.7762709660484
 20
100.52335584120969
 10
161.48505142098867
 20
100.5665541800166
 10
161.191
 20
100.581
 10
160.89694857901134
 20
100.5665541800166
 10
160.6057290339516
 20
100.52335584120969
 10
160.3201459682366
 20
100.45182100719663
 10
160.04294970290474
 20
100.35263859753387
 10
159.77680978952202
 20
100.22676379304507
 10
159.52428930094118
 20
100.07540883690764
 10
159.28782014750908
 20
99.9000313600882
 10
159.06967965644037
 20
99.70232034355965
 10
158.87196863991178
 20
99.48417985249094
 10
158.69659116309236
 20
99.24771069905881
 10
158.54523620695494
 20
98.995190210478
 10
158.41936140246614
 20
98.72905029709527
 10
158.3201789928034
 20
98.45185403176339
 10
158.2486441587903
 20
98.16627096604839
 10
158.20544581998342
 20
97.87505142098868
 10
158.191
 20
97.581
 10
158.20544581998342
 20
97.28694857901132
 10
158.2486441587903
 20
96.99572903395162
 10
158.3201789928034
 20
96.71014596823662
 10
158.41936140246614
 20
96.43294970290474
 10
158.54523620695494
 20
96.166809789522
 10
158.69659116309236
 20
95.91428930094119
 10
158.87196863991178
 20
95.67782014750907
 10
159.06967965644037
 20
95.45967965644036
 10
159.28782014750908
 20
95.26196863991179
 10
159.52428930094118
 20
95.08659116309236
 10
159.77680978952202
 20
94.93523620695494
 10
160.04294970290474
 20
94.80936140246614
 10
160.3201459682366
 20
94.71017899280338
 10
160.6057290339516
 20
94.63864415879031
 10
160.89694857901134
 20
94.59544581998341
 10
161.191
 20
94.581
 10
161.48505142098867
 20
94.59544581998341
 10
161.7762709660484
 20
94.63864415879031
 10
162.0618540317634
 20
94.71017899280338
 10
162.33905029709527
 20
94.80936140246614
 10
162.60519021047799
 20
94.93523620695494
 10
162.85771069905883
 20
95.08659116309236
 10
163.09417985249092
 20
95.26196863991179
 10
163.31232034355963
 20
95.45967965644036
 10
163.51003136008822
 20
95.67782014750907
 10
163.68540883690764
 20
95.91428930094119
 10
163.83676379304507
 20
96.166809789522
 10
163.96263859753387
 20
96.43294970290474
 10
164.0618210071966
 20
96.71014596823662
 10
164.1333558412097
 20
96.99572903395162
 10
164.17655418001658
 20
97.28694857901132
 10
164.191
 20
97.581
 10
164.17655418001658
 20
97.87505142098868
 10
164.1333558412097
 20
98.16627096604839
  0
LWPOLYLINE
  5
56
330
17
100
AcDbEntity
  8
0
 62
13
100
AcDbPolyline
 90
56
 70
0
 10
376.448
 20
4.814999999999998
 10
376.448
 20
-5.724999999999994
 10
336.078
 20
-64.67500000000001
 10
376.858
 20
-64.67500000000001
 10
376.858
 20
-80.495
 10
310.418
 20
-80.495
 10
310.418
 20
-69.655
 10
351.078
 20
-11.065000000000012
 10
310.178
 20
-11.065000000000012
 10
310.178
 20
4.814999999999998
 10
338.2437488824841
 20
4.814999999999998
 10
338.1408840654369
 20
4.986619579044017
 10
337.8891344564594
 20
5.518899405809464
 10
337.6907696371338
 20
6.073291936473225
 10
337.54769996910767
 20
6.64445806790323
 10
337.4613032914939
 20
7.226897158022638
 10
337.43241165152705
 20
7.814999999999998
 10
337.4613032914939
 20
8.403102841977358
 10
337.54769996910767
 20
8.985541932096766
 10
337.6907696371338
 20
9.55670806352677
 10
337.8891344564594
 20
10.111100594190532
 10
338.1408840654369
 20
10.643380420955978
 10
338.44359397771177
 20
11.148421398117605
 10
338.79434893135067
 20
11.62135970498187
 10
339.1897709644078
 20
12.057640687119289
 10
339.6260519465452
 20
12.453062720176419
 10
340.09899025340945
 20
12.803817673815274
 10
340.6040312305711
 20
13.106527586090124
 10
341.1363110573365
 20
13.358277195067714
 10
341.6907035880003
 20
13.556642014393248
 10
342.2618697194303
 20
13.699711682419377
 10
342.8443088095497
 20
13.786108360033182
 10
343.43241165152705
 20
13.814999999999998
 10
344.02051449350444
 20
13.786108360033182
 10
344.60295358362384
 20
13.699711682419377
 10
345.17411971505385
 20
13.556642014393248
 10
345.7285122457176
 20
13.358277195067714
 10
346.26079207248307
 20
13.106527586090124
 10
346.7658330496447
 20
12.803817673815274
 10
347.23877135650895
 20
12.453062720176419
 10
347.67505233864637
 20
12.057640687119289
 10
348.0704743717035
 20
11.62135970498187
 10
348.4212293253423
 20
11.148421398117605
 10
348.7239392376172
 20
10.643380420955992
 10
348.9756888465948
 20
10.111100594190546
 10
349.1740536659203
 20
9.55670806352677
 10
349.3171233339464
 20
8.985541932096766
 10
349.40352001156026
 20
8.403102841977358
 10
349.43241165152705
 20
7.814999999999998
 10
349.40352001156026
 20
7.226897158022638
 10
349.3171233339464
 20
6.64445806790323
 10
349.1740536659203
 20
6.073291936473225
 10
348.9756888465948
 20
5.518899405809464
 10
348.7239392376172
 20
4.986619579044017
 10
348.62107442057
 20
4.814999999999998
 10
376.448
 20
4.814999999999998
  0
LWPOLYLINE
  5
57
330
17
100
AcDbEntity
  8
0
 62
13
100
AcDbPolyline
 90
65
 70
0
 10
346.37476749273674
 20
8.400270966048382
 10
346.3032326587237
 20
8.685854031763384
 10
346.2040502490609
 20
8.963050297095265
 10
346.07817544457214
 20
9.229190210477995
 10
345.9268204884347
 20
9.481710699058809
 10
345.75144301161527
 20
9.718179852490934
 10
345.5537319950867
 20
9.936320343559643
 10
345.335591504018
 20
10.134031360088215
 10
345.09912235058584
 20
10.309408836907636
 10
344.84660186200506
 20
10.46076379304506
 10
344.5804619486223
 20
10.586638597533863
 10
344.3032656832904
 20
10.685821007196623
 10
344.0176826175755
 20
10.757355841209687
 10
343.72646307251574
 20
10.80055418001659
 10
343.43241165152705
 20
10.814999999999998
 10
343.1383602305384
 20
10.80055418001659
 10
342.8471406854787
 20
10.757355841209687
 10
342.5615576197637
 20
10.685821007196623
 10
342.2843613544318
 20
10.586638597533863
 10
342.01822144104904
 20
10.46076379304506
 10
341.76570095246825
 20
10.309408836907636
 10
341.5292317990361
 20
10.134031360088201
 10
341.31109130796744
 20
9.936320343559643
 10
341.11338029143883
 20
9.718179852490934
 10
340.93800281461944
 20
9.481710699058809
 10
340.786647858482
 20
9.229190210477995
 10
340.6607730539932
 20
8.963050297095265
 10
340.5615906443304
 20
8.685854031763384
 10
340.49005581031736
 20
8.400270966048382
 10
340.4468574715105
 20
8.109051420988678
 10
340.43241165152705
 20
7.814999999999998
 10
340.4468574715105
 20
7.520948579011318
 10
340.49005581031736
 20
7.229729033951614
 10
340.5615906443304
 20
6.944145968236612
 10
340.6607730539932
 20
6.666949702904731
 10
340.786647858482
 20
6.400809789522
 10
340.93800281461944
 20
6.148289300941187
 10
341.11338029143883
 20
5.9118201475090615
 10
341.31109130796744
 20
5.693679656440352
 10
341.5292317990361
 20
5.49596863991178
 10
341.76570095246825
 20
5.3205911630923595
 10
342.01822144104904
 20
5.169236206954935
 10
342.2843613544318
 20
5.043361402466132
 10
342.5615576197637
 20
4.944178992803373
 10
342.8471406854787
 20
4.872644158790308
 10
343.1383602305384
 20
4.829445819983405
 10
343.43241165152705
 20
4.814999999999998
 10
343.72646307251574
 20
4.829445819983405
 10
344.0176826175755
 20
4.872644158790308
 10
344.3032656832904
 20
4.944178992803373
 10
344.5804619486223
 20
5.043361402466132
 10
344.84660186200506
 20
5.169236206954935
 10
345.09912235058584
 20
5.3205911630923595
 10
345.335591504018
 20
5.49596863991178
 10
345.5537319950867
 20
5.693679656440352
 10
345.75144301161527
 20
5.9118201475090615
 10
345.9268204884347
 20
6.148289300941187
 10
346.07817544457214
 20
6.400809789522
 10
346.2040502490609
 20
6.666949702904731
 10
346.3032326587237
 20
6.944145968236612
 10
346.37476749273674
 20
7.229729033951614
 10
346.41796583154365
 20
7.520948579011318
 10
346.43241165152705
 20
7.814999999999998
 10
346.41796583154365
 20
8.109051420988678
 10
346.37476749273674
 20
8.400270966048382
  0
LWPOLYLINE
  5
58
330
17
100
AcDbEntity
  8
0
 62
14
100
AcDbPolyline
 90
107
 70
0
 10
56.13860181855164
 20
189.92652318144837
 10
60.97235181855164
 20
188.64027318144838
 10
65.51266431855163
 20
186.70808568144838
 10
67.65985181855163
 20
185.47214818144838
 10
69.74641431855164
 20
184.1368356814484
 10
73.52360181855164
 20
181.01261693144838
 10
76.82735181855162
 20
177.34324193144838
 10
79.65953931855162
 20
173.1277731814484
 10
80.87985181855163
 20
170.7921481814484
 10
82.00891431855165
 20
168.3821481814484
 10
83.78266431855162
 20
163.2737106814484
 10
84.97516431855163
 20
157.81746068144838
 10
85.58641431855163
 20
152.0115231814484
 10
85.64985181855162
 20
148.96214818144838
 10
85.64985181855162
 20
145.0421481814484
 10
85.60172681855163
 20
141.9518356814484
 10
85.02375806855163
 20
136.0690231814484
 10
83.86688306855162
 20
130.5452731814484
 10
82.13016431855164
 20
125.38246068144839
 10
81.01985181855163
 20
122.9521481814484
 10
79.82391431855164
 20
120.59464818144839
 10
77.02360181855163
 20
116.34167943144838
 10
73.73485181855165
 20
112.6423044314484
 10
69.95953931855163
 20
109.49558568144839
 10
67.86985181855164
 20
108.15214818144838
 10
65.71172681855163
 20
106.91214818144839
 10
61.15078931855164
 20
104.97011693144839
 10
56.294539318551635
 20
103.67449193144839
 10
51.14110181855163
 20
103.02621068144839
 10
48.43985181855163
 20
102.97214818144839
 10
45.742664318551626
 20
103.02433568144839
 10
40.60235181855163
 20
103.65058568144839
 10
35.76860181855163
 20
104.90308568144839
 10
31.243289318551632
 20
106.78183568144838
 10
29.109851818551633
 20
107.9821481814484
 10
27.037664318551634
 20
109.27933568144839
 10
23.282976818551635
 20
112.32105443144839
 10
19.994226818551635
 20
115.90042943144839
 10
17.169539318551635
 20
120.01839818144839
 10
15.949851818551632
 20
122.30214818144839
 10
14.818914318551634
 20
124.66277318144839
 10
13.022664318551634
 20
129.6666794314484
 10
11.785164318551633
 20
135.0123044314484
 10
11.106414318551632
 20
140.70246068144837
 10
10.999851818551633
 20
143.69214818144837
 10
10.999851818551633
 20
148.50214818144838
 10
11.047976818551632
 20
151.6030856814484
 10
11.624539318551633
 20
157.5004294314484
 10
12.775789318551634
 20
163.02980443144838
 10
14.499851818551633
 20
168.1883981814484
 10
15.599851818551635
 20
170.6121481814484
 10
16.792351818551634
 20
172.96277318144837
 10
19.590789318551636
 20
177.20824193144838
 10
22.887039318551636
 20
180.9076169314484
 10
26.682976818551637
 20
184.0618356814484
 10
28.789851818551632
 20
185.4121481814484
 10
30.959539318551634
 20
186.6624606814484
 10
35.54625806855164
 20
188.61714818144839
 10
40.43063306855164
 20
189.91839818144837
 10
43.33094736326727
 20
190.28195390293484
 10
43.32614405052605
 20
190.28843042043405
 10
43.02343413825119
 20
190.79347139759568
 10
42.7716845292736
 20
191.3257512243611
 10
42.573319709948066
 20
191.88014375502487
 10
42.43025004192194
 20
192.45130988645488
 10
42.34385336430813
 20
193.0337489765743
 10
42.314961724341316
 20
193.62185181855165
 10
42.34385336430813
 20
194.209954660529
 10
42.43025004192194
 20
194.79239375064842
 10
42.573319709948066
 20
195.36355988207842
 10
42.7716845292736
 20
195.91795241274218
 10
43.02343413825118
 20
196.4502322395076
 10
43.32614405052604
 20
196.95527321666924
 10
43.676899004164895
 20
197.42821152353352
 10
44.07232103722203
 20
197.86449250567094
 10
44.508602019359444
 20
198.25991453872808
 10
44.9815403262237
 20
198.61066949236692
 10
45.48658130338533
 20
198.91337940464177
 10
46.018861130150775
 20
199.16512901361938
 10
46.573253660814544
 20
199.3634938329449
 10
47.14441979224454
 20
199.50656350097103
 10
47.726858882363956
 20
199.59296017858483
 10
48.314961724341316
 20
199.62185181855165
 10
48.903064566318676
 20
199.59296017858483
 10
49.485503656438084
 20
199.50656350097103
 10
50.05666978786809
 20
199.3634938329449
 10
50.61106231853186
 20
199.16512901361938
 10
51.143342145297304
 20
198.91337940464177
 10
51.648383122458924
 20
198.61066949236692
 10
52.12132142932319
 20
198.25991453872808
 10
52.5576024114606
 20
197.86449250567094
 10
52.95302444451774
 20
197.42821152353352
 10
53.303779398156586
 20
196.95527321666924
 10
53.60648931043144
 20
196.4502322395076
 10
53.85823891940903
 20
195.91795241274218
 10
54.056603738734566
 20
195.36355988207842
 10
54.199673406760695
 20
194.79239375064842
 10
54.2860700843745
 20
194.209954660529
 10
54.314961724341316
 20
193.62185181855165
 10
54.2860700843745
 20
193.0337489765743
 10
54.199673406760695
 20
192.45130988645488
 10
54.056603738734566
 20
191.88014375502487
 10
53.85823891940903
 20
191.3257512243611
 10
53.60648931043145
 20
190.79347139759568
 10
53.303779398156586
 20
190.28843042043405
 10
53.29922481608704
 20
190.28228927742208
 10
56.13860181855164
 20
189.92652318144837
  0
LWPOLYLINE
  5
59
330
17
100
AcDbEntity
  8
0
 62
14
100
AcDbPolyline
 90
42
 70
0
 10
64.72985181855164
 20
148.6121481814484
 10
64.68578931855163
 20
151.7280856814484
 10
64.15657056855164
 20
157.32027318144839
 10
63.09719556855163
 20
162.1465231814484
 10
61.506726818551634
 20
166.2087106814484
 10
60.489851818551635
 20
167.9221481814484
 10
59.387039318551636
 20
169.49996068144839
 10
56.80282056855163
 20
171.9707419314484
 10
53.76344556855163
 20
173.6188669314484
 10
50.26797681855163
 20
174.4433981814484
 10
48.32985181855163
 20
174.5121481814484
 10
46.43297681855163
 20
174.4517575564484
 10
43.02030103730163
 20
173.72701146269839
 10
40.064597912301636
 20
172.2774020876984
 10
37.56551588105163
 20
170.1028122439484
 10
35.52270338105163
 20
167.20312474394836
 10
33.93580884980163
 20
163.5782224001984
 10
32.804480724801635
 20
159.22798802519839
 10
32.12836744355163
 20
154.15230443144839
 10
31.97985181855163
 20
151.31214818144838
 10
31.919851818551635
 20
145.0421481814484
 10
31.963289318551634
 20
141.9674606814484
 10
32.48407056855164
 20
136.4216794314484
 10
33.524695568551635
 20
131.6010544314484
 10
35.084226818551635
 20
127.50652318144839
 10
36.07985181855163
 20
125.7621481814484
 10
37.161101818551636
 20
124.14839818144839
 10
39.74719556855163
 20
121.62136693144839
 10
42.83907056855163
 20
119.93574193144839
 10
46.43391431855163
 20
119.09246068144839
 10
48.43985181855163
 20
119.02214818144839
 10
50.35235181855163
 20
119.09121068144839
 10
53.80328931855163
 20
119.91949193144839
 10
56.807039318551624
 20
121.57511693144839
 10
59.365476818551635
 20
124.05714818144838
 10
60.459851818551634
 20
125.64214818144839
 10
61.47016431855163
 20
127.3599606814484
 10
63.056883068551635
 20
131.3987106814484
 10
64.12375806855164
 20
136.16121068144838
 10
64.67172681855163
 20
141.6474606814484
 10
64.72985181855164
 20
144.69214818144837
 10
64.72985181855164
 20
148.6121481814484
  0
LWPOLYLINE
  5
5A
330
17
100
AcDbEntity
  8
0
 62
14
100
AcDbPolyline
 90
65
 70
0
 10
51.257317565551006
 20
194.20712278460002
 10
51.18578273153794
 20
194.49270585031502
 10
51.086600321875174
 20
194.76990211564691
 10
50.96072551738638
 20
195.03604202902966
 10
50.809370561248954
 20
195.28856251761044
 10
50.63399308442953
 20
195.5250316710426
 10
50.43628206790096
 20
195.7431721621113
 10
50.21814157683225
 20
195.94088317863987
 10
49.98167242340012
 20
196.11626065545929
 10
49.729151934819306
 20
196.2676156115967
 10
49.46301202143658
 20
196.3934904160855
 10
49.1858157561047
 20
196.4926728257483
 10
48.9002326903897
 20
196.56420765976134
 10
48.609013145329996
 20
196.60740599856825
 10
48.314961724341316
 20
196.62185181855165
 10
48.020910303352636
 20
196.60740599856825
 10
47.72969075829293
 20
196.56420765976134
 10
47.44410769257793
 20
196.4926728257483
 10
47.16691142724604
 20
196.3934904160855
 10
46.900771513863326
 20
196.2676156115967
 10
46.64825102528251
 20
196.11626065545929
 10
46.41178187185038
 20
195.94088317863987
 10
46.19364138078167
 20
195.7431721621113
 10
45.995930364253105
 20
195.5250316710426
 10
45.82055288743368
 20
195.28856251761044
 10
45.66919793129625
 20
195.03604202902966
 10
45.54332312680746
 20
194.76990211564691
 10
45.44414071714469
 20
194.49270585031502
 10
45.37260588313163
 20
194.20712278460002
 10
45.329407544324724
 20
193.91590323954034
 10
45.314961724341316
 20
193.62185181855165
 10
45.329407544324724
 20
193.32780039756295
 10
45.37260588313163
 20
193.03658085250328
 10
45.44414071714469
 20
192.75099778678828
 10
45.54332312680746
 20
192.47380152145638
 10
45.66919793129625
 20
192.20766160807364
 10
45.82055288743368
 20
191.95514111949285
 10
45.995930364253105
 20
191.7186719660607
 10
46.19364138078167
 20
191.500531474992
 10
46.41178187185038
 20
191.30282045846343
 10
46.64825102528251
 20
191.127442981644
 10
46.900771513863326
 20
190.97608802550658
 10
47.16691142724605
 20
190.85021322101778
 10
47.44410769257793
 20
190.751030811355
 10
47.72969075829293
 20
190.67949597734196
 10
48.020910303352636
 20
190.63629763853504
 10
48.314961724341316
 20
190.62185181855165
 10
48.609013145329996
 20
190.63629763853504
 10
48.9002326903897
 20
190.67949597734196
 10
49.1858157561047
 20
190.751030811355
 10
49.46301202143658
 20
190.85021322101778
 10
49.729151934819306
 20
190.97608802550658
 10
49.98167242340012
 20
191.127442981644
 10
50.21814157683225
 20
191.30282045846343
 10
50.43628206790096
 20
191.500531474992
 10
50.63399308442953
 20
191.7186719660607
 10
50.809370561248954
 20
191.95514111949285
 10
50.96072551738638
 20
192.20766160807364
 10
51.086600321875174
 20
192.47380152145638
 10
51.18578273153794
 20
192.75099778678828
 10
51.257317565551006
 20
193.03658085250328
 10
51.30051590435791
 20
193.32780039756295
 10
51.314961724341316
 20
193.62185181855165
 10
51.30051590435791
 20
193.91590323954034
 10
51.257317565551006
 20
194.20712278460002
  0
LWPOLYLINE
  5
5B
330
17
100
AcDbEntity
  8
0
 62
15
100
AcDbPolyline
 90
58
 70
0
 10
439.048
 20
103.02600000000001
 10
439.048
 20
87.146
 10
400.72799999999995
 20
87.146
 10
400.72799999999995
 20
69.166
 10
433.078
 20
69.166
 10
433.078
 20
53.866000000000014
 10
400.72799999999995
 20
53.866000000000014
 10
400.72799999999995
 20
33.53600000000001
 10
438.928
 20
33.53600000000001
 10
438.928
 20
17.716000000000008
 10
380.168
 20
17.716000000000008
 10
380.168
 20
103.02600000000001
 10
399.3457411185936
 20
103.02600000000001
 10
399.2428763015464
 20
103.19761957904403
 10
398.99112669256886
 20
103.72989940580948
 10
398.7927618732433
 20
104.28429193647324
 10
398.64969220521715
 20
104.85545806790324
 10
398.5632955276034
 20
105.43789715802265
 10
398.5344038876366
 20
106.02600000000001
 10
398.5632955276034
 20
106.61410284197737
 10
398.64969220521715
 20
107.19654193209678
 10
398.7927618732433
 20
107.76770806352678
 10
398.99112669256886
 20
108.32210059419054
 10
399.2428763015464
 20
108.85438042095599
 10
399.54558621382125
 20
109.35942139811762
 10
399.89634116746015
 20
109.83235970498188
 10
400.29176320051727
 20
110.2686406871193
 10
400.7280441826547
 20
110.66406272017643
 10
401.20098248951894
 20
111.01481767381529
 10
401.70602346668056
 20
111.31752758609014
 10
402.238303293446
 20
111.56927719506773
 10
402.7926958241098
 20
111.76764201439326
 10
403.3638619555398
 20
111.91071168241939
 10
403.9463010456592
 20
111.9971083600332
 10
404.5344038876366
 20
112.02600000000001
 10
405.1225067296139
 20
111.9971083600332
 10
405.7049458197333
 20
111.91071168241939
 10
406.27611195116333
 20
111.76764201439326
 10
406.8305044818271
 20
111.56927719506773
 10
407.36278430859255
 20
111.31752758609014
 10
407.8678252857542
 20
111.01481767381529
 10
408.34076359261843
 20
110.66406272017643
 10
408.77704457475585
 20
110.2686406871193
 10
409.17246660781296
 20
109.83235970498188
 10
409.5232215614518
 20
109.35942139811762
 10
409.82593147372665
 20
108.854380420956
 10
410.07768108270426
 20
108.32210059419056
 10
410.2760459020298
 20
107.76770806352678
 10
410.41911557005596
 20
107.19654193209678
 10
410.50551224766974
 20
106.61410284197737
 10
410.5344038876366
 20
106.02600000000001
 10
410.50551224766974
 20
105.43789715802265
 10
410.41911557005596
 20
104.85545806790324
 10
410.2760459020298
 20
104.28429193647324
 10
410.07768108270426
 20
103.72989940580948
 10
409.82593147372665
 20
103.19761957904403
 10
409.7230666566795
 20
103.02600000000001
 10
439.048
 20
103.02600000000001
  0
LWPOLYLINE
  5
5C
330
17
100
AcDbEntity
  8
0
 62
15
100
AcDbPolyline
 90
65
 70
0
 10
407.4767597288462
 20
106.6112709660484
 10
407.40522489483317
 20
106.8968540317634
 10
407.3060424851704
 20
107.17405029709528
 10
407.1801676806816
 20
107.44019021047801
 10
407.0288127245442
 20
107.69271069905882
 10
406.85343524772475
 20
107.92917985249095
 10
406.6557242311962
 20
108.14732034355966
 10
406.4375837401275
 20
108.34503136008823
 10
406.2011145866954
 20
108.52040883690765
 10
405.94859409811454
 20
108.67176379304507
 10
405.6824541847318
 20
108.79763859753388
 10
405.40525791939996
 20
108.89682100719664
 10
405.11967485368496
 20
108.9683558412097
 10
404.8284553086252
 20
109.0115541800166
 10
404.5344038876366
 20
109.02600000000001
 10
404.2403524666479
 20
109.0115541800166
 10
403.94913292158816
 20
108.9683558412097
 10
403.66354985587316
 20
108.89682100719664
 10
403.38635359054126
 20
108.79763859753388
 10
403.1202136771586
 20
108.67176379304507
 10
402.86769318857773
 20
108.52040883690765
 10
402.63122403514564
 20
108.34503136008821
 10
402.4130835440769
 20
108.14732034355966
 10
402.2153725275483
 20
107.92917985249095
 10
402.0399950507289
 20
107.69271069905882
 10
401.8886400945915
 20
107.44019021047801
 10
401.7627652901027
 20
107.17405029709528
 10
401.66358288043995
 20
106.8968540317634
 10
401.59204804642684
 20
106.6112709660484
 10
401.54884970762
 20
106.32005142098869
 10
401.5344038876366
 20
106.02600000000001
 10
401.54884970762
 20
105.73194857901133
 10
401.59204804642684
 20
105.44072903395163
 10
401.66358288043995
 20
105.15514596823662
 10
401.7627652901027
 20
104.87794970290474
 10
401.8886400945915
 20
104.61180978952201
 10
402.0399950507289
 20
104.3592893009412
 10
402.2153725275483
 20
104.12282014750907
 10
402.4130835440769
 20
103.90467965644036
 10
402.63122403514564
 20
103.70696863991179
 10
402.86769318857773
 20
103.53159116309237
 10
403.1202136771586
 20
103.38023620695495
 10
403.38635359054126
 20
103.25436140246615
 10
403.66354985587316
 20
103.15517899280339
 10
403.94913292158816
 20
103.08364415879032
 10
404.2403524666479
 20
103.04044581998342
 10
404.5344038876366
 20
103.02600000000001
 10
404.8284553086252
 20
103.04044581998342
 10
405.11967485368496
 20
103.08364415879032
 10
405.40525791939996
 20
103.15517899280339
 10
405.6824541847318
 20
103.25436140246615
 10
405.94859409811454
 20
103.38023620695495
 10
406.2011145866954
 20
103.53159116309237
 10
406.4375837401275
 20
103.70696863991179
 10
406.6557242311962
 20
103.90467965644036
 10
406.85343524772475
 20
104.12282014750907
 10
407.0288127245442
 20
104.3592893009412
 10
407.1801676806816
 20
104.61180978952201
 10
407.3060424851704
 20
104.87794970290474
 10
407.40522489483317
 20
105.15514596823662
 10
407.4767597288462
 20
105.44072903395163
 10
407.51995806765314
 20
105.73194857901133
 10
407.5344038876366
 20
106.02600000000001
 10
407.51995806765314
 20
106.32005142098869
 10
407.4767597288462
 20
106.6112709660484
  0
ENDSEC
  0
SECTION
  2
OBJECTS
  0
DICTIONARY
  5
A
330
0
100
AcDbDictionary
280
0
281
1
  3
ACAD_COLOR
350
B
  3
ACAD_GROUP
350
C
  3
ACAD_LAYOUT
350
D
  3
ACAD_MATERIAL
350
E
  3
ACAD_MLEADERSTYLE
350
F
  3
ACAD_MLINESTYLE
350
10
  3
ACAD_PLOTSETTINGS
350
11
  3
ACAD_PLOTSTYLENAME
350
12
  3
ACAD_SCALELIST
350
14
  3
ACAD_TABLESTYLE
350
15
  3
ACAD_VISUALSTYLE
350
16
  3
EZDXF_META
350
2D
  0
DICTIONARY
  5
B
330
A
100
AcDbDictionary
280
0
281
1
  0
DICTIONARY
  5
C
330
A
100
AcDbDictionary
280
0
281
1
  0
DICTIONARY
  5
D
330
A
100
AcDbDictionary
280
0
281
1
  3
Model
350
1A
  3
Layout1
350
1E
  0
DICTIONARY
  5
E
330
A
100
AcDbDictionary
280
0
281
1
  3
ByBlock
350
1F
  3
ByLayer
350
20
  3
Global
350
21
  0
DICTIONARY
  5
F
330
A
100
AcDbDictionary
280
0
281
1
  3
Standard
350
2C
  0
DICTIONARY
  5
10
330
A
100
AcDbDictionary
280
0
281
1
  3
Standard
350
22
  0
DICTIONARY
  5
11
330
A
100
AcDbDictionary
280
0
281
1
  0
ACDBDICTIONARYWDFLT
  5
12
330
A
100
AcDbDictionary
280
0
281
1
  3
Normal
350
13
100
AcDbDictionaryWithDefault
340
13
  0
ACDBPLACEHOLDER
  5
13
330
12
  0
DICTIONARY
  5
14
330
A
100
AcDbDictionary
280
0
281
1
  0
DICTIONARY
  5
15
330
A
100
AcDbDictionary
280
0
281
1
  0
DICTIONARY
  5
16
330
A
100
AcDbDictionary
280
0
281
1
  0
LAYOUT
  5
1A
330
D
100
AcDbPlotSettings
  1

  2
Adobe PDF
  4
A3
  6

 40
7.5
 41
20.0
 42
7.5
 43
20.0
 44
420.0
 45
297.0
 46
0.0
 47
0.0
 48
0.0
 49
0.0
140
0.0
141
0.0
142
1.0
143
1.0
 70
1024
 72
1
 73
0
 74
5
  7

 75
16
 76
0
 77
2
 78
300
147
1.0
148
0.0
149
0.0
100
AcDbLayout
  1
Model
 70
1
 71
0
 10
0.0
 20
0.0
 11
420.0
 21
297.0
 12
0.0
 22
0.0
 32
0.0
 14
1e+20
 24
1e+20
 34
1e+20
 15
-1e+20
 25
-1e+20
 35
-1e+20
146
0.0
 13
0.0
 23
0.0
 33
0.0
 16
1.0
 26
0.0
 36
0.0
 17
0.0
 27
1.0
 37
0.0
 76
1
330
17
  0
LAYOUT
  5
1E
330
D
100
AcDbPlotSettings
  1

  2
Adobe PDF
  4
A3
  6

 40
7.5
 41
20.0
 42
7.5
 43
20.0
 44
420.0
 45
297.0
 46
0.0
 47
0.0
 48
0.0
 49
0.0
140
0.0
141
0.0
142
1.0
143
1.0
 70
0
 72
1
 73
0
 74
5
  7

 75
16
 76
0
 77
2
 78
300
147
1.0
148
0.0
149
0.0
100
AcDbLayout
  1
Layout1
 70
1
 71
1
 10
0.0
 20
0.0
 11
420.0
 21
297.0
 12
0.0
 22
0.0
 32
0.0
 14
1e+20
 24
1e+20
 34
1e+20
 15
-1e+20
 25
-1e+20
 35
-1e+20
146
0.0
 13
0.0
 23
0.0
 33
0.0
 16
1.0
 26
0.0
 36
0.0
 17
0.0
 27
1.0
 37
0.0
 76
1
330
1B
  0
MATERIAL
  5
1F
102
{ACAD_REACTORS
330
E
102
}
330
E
100
AcDbMaterial
  1
ByBlock
  2

 70
0
 40
1.0
 71
1
 41
1.0
 91
-1023410177
 42
1.0
 72
1
  3

 73
1
 74
1
 75
1
 44
0.5
 73
0
 45
1.0
 46
1.0
 77
1
  4

 78
1
 79
1
170
1
 48
1.0
171
1
  6

172
1
173
1
174
1
140
1.0
141
1.0
175
1
  7

176
1
177
1
178
1
143
1.0
179
1
  8

270
1
271
1
272
1
145
1.0
146
1.0
273
1
  9

274
1
275
1
276
1
 42
1.0
 72
1
  3

 73
1
 74
1
 75
1
 94
63
  0
MATERIAL
  5
20
102
{ACAD_REACTORS
330
E
102
}
330
E
100
AcDbMaterial
  1
ByLayer
  2

 70
0
 40
1.0
 71
1
 41
1.0
 91
-1023410177
 42
1.0
 72
1
  3

 73
1
 74
1
 75
1
 44
0.5
 73
0
 45
1.0
 46
1.0
 77
1
  4

 78
1
 79
1
170
1
 48
1.0
171
1
  6

172
1
173
1
174
1
140
1.0
141
1.0
175
1
  7

176
1
177
1
178
1
143
1.0
179
1
  8

270
1
271
1
272
1
145
1.0
146
1.0
273
1
  9

274
1
275
1
276
1
 42
1.0
 72
1
  3

 73
1
 74
1
 75
1
 94
63
  0
MATERIAL
  5
21
102
{ACAD_REACTORS
330
E
102
}
330
E
100
AcDbMaterial
  1
Global
  2

 70
0
 40
1.0
 71
1
 41
1.0
 91
-1023410177
 42
1.0
 72
1
  3

 73
1
 74
1
 75
1
 44
0.5
 73
0
 45
1.0
 46
1.0
 77
1
  4

 78
1
 79
1
170
1
 48
1.0
171
1
  6

172
1
173
1
174
1
140
1.0
141
1.0
175
1
  7

176
1
177
1
178
1
143
1.0
179
1
  8

270
1
271
1
272
1
145
1.0
146
1.0
273
1
  9

274
1
275
1
276
1
 42
1.0
 72
1
  3

 73
1
 74
1
 75
1
 94
63
  0
MLINESTYLE
  5
22
102
{ACAD_REACTORS
330
10
102
}
330
10
100
AcDbMlineStyle
  2
Standard
 70
0
  3

 62
256
 51
90.0
 52
90.0
 71
2
 49
0.5
 62
256
  6
BYLAYER
 49
-0.5
 62
256
  6
BYLAYER
  0
MLEADERSTYLE
  5
2C
102
{ACAD_REACTORS
330
F
102
}
330
F
100
AcDbMLeaderStyle
179
2
170
2
171
1
172
0
 90
2
 40
0.0
 41
0.0
173
1
 91
-1056964608
 92
-2
290
1
 42
2.0
291
1
 43
8.0
  3
Standard
 44
4.0
300

342
29
174
1
175
1
176
0
178
1
 93
-1056964608
 45
4.0
292
0
297
0
 46
4.0
 94
-1056964608
 47
1.0
 49
1.0
140
1.0
294
1
141
0.0
177
0
142
1.0
295
0
296
0
143
3.75
271
0
272
9
273
9
  0
DICTIONARY
  5
2D
330
A
100
AcDbDictionary
281
1
  3
CREATED_BY_EZDXF
350
2E
  3
WRITTEN_BY_EZDXF
350
5F
  0
DICTIONARYVAR
  5
2E
330
2D
100
DictionaryVariables
280
0
  1
1.1.1 @ 2024-03-27T16:34:57.654819+00:00
  0
DICTIONARYVAR
  5
5F
330
2D
100
DictionaryVariables
280
0
  1
1.1.1 @ 2024-03-27T16:34:57.702819+00:00
  0
ENDSEC
  0
EOF
