  0
SECTION
  2
HEADER
  9
$ACADVER
  1
AC1024
  9
$ACADMAINTVER
 70
6
  9
$DWGCODEPAGE
  3
ANSI_1252
  9
$LASTSAVEDBY
  1
ezdxf
  9
$INSBASE
 10
0.0
 20
0.0
 30
0.0
  9
$EXTMIN
 10
1e+20
 20
1e+20
 30
1e+20
  9
$EXTMAX
 10
-1e+20
 20
-1e+20
 30
-1e+20
  9
$LIMMIN
 10
0.0
 20
0.0
  9
$LIMMAX
 10
420.0
 20
297.0
  9
$ORTHOMODE
 70
0
  9
$REGENMODE
 70
1
  9
$FILLMODE
 70
1
  9
$QTEXTMODE
 70
0
  9
$MIRRTEXT
 70
1
  9
$LTSCALE
 40
1.0
  9
$ATTMODE
 70
1
  9
$TEXTSIZE
 40
2.5
  9
$TRACEWID
 40
1.0
  9
$TEXTSTYLE
  7
Standard
  9
$CLAYER
  8
0
  9
$CELTYPE
  6
ByLayer
  9
$CECOLOR
 62
256
  9
$CELTSCALE
 40
1.0
  9
$DISPSILH
 70
0
  9
$DIMSCALE
 40
1.0
  9
$DIMASZ
 40
2.5
  9
$DIMEXO
 40
0.625
  9
$DIMDLI
 40
3.75
  9
$DIMRND
 40
0.0
  9
$DIMDLE
 40
0.0
  9
$DIMEXE
 40
1.25
  9
$DIMTP
 40
0.0
  9
$DIMTM
 40
0.0
  9
$DIMTXT
 40
2.5
  9
$DIMCEN
 40
2.5
  9
$DIMTSZ
 40
0.0
  9
$DIMTOL
 70
0
  9
$DIMLIM
 70
0
  9
$DIMTIH
 70
0
  9
$DIMTOH
 70
0
  9
$DIMSE1
 70
0
  9
$DIMSE2
 70
0
  9
$DIMTAD
 70
1
  9
$DIMZIN
 70
8
  9
$DIMBLK
  1

  9
$DIMASO
 70
1
  9
$DIMSHO
 70
1
  9
$DIMPOST
  1

  9
$DIMAPOST
  1

  9
$DIMALT
 70
0
  9
$DIMALTD
 70
3
  9
$DIMALTF
 40
0.03937007874
  9
$DIMLFAC
 40
1.0
  9
$DIMTOFL
 70
1
  9
$DIMTVP
 40
0.0
  9
$DIMTIX
 70
0
  9
$DIMSOXD
 70
0
  9
$DIMSAH
 70
0
  9
$DIMBLK1
  1

  9
$DIMBLK2
  1

  9
$DIMSTYLE
  2
ISO-25
  9
$DIMCLRD
 70
0
  9
$DIMCLRE
 70
0
  9
$DIMCLRT
 70
0
  9
$DIMTFAC
 40
1.0
  9
$DIMGAP
 40
0.625
  9
$DIMJUST
 70
0
  9
$DIMSD1
 70
0
  9
$DIMSD2
 70
0
  9
$DIMTOLJ
 70
0
  9
$DIMTZIN
 70
8
  9
$DIMALTZ
 70
0
  9
$DIMALTTZ
 70
0
  9
$DIMUPT
 70
0
  9
$DIMDEC
 70
2
  9
$DIMTDEC
 70
2
  9
$DIMALTU
 70
2
  9
$DIMALTTD
 70
3
  9
$DIMTXSTY
  7
Standard
  9
$DIMAUNIT
 70
0
  9
$DIMADEC
 70
0
  9
$DIMALTRND
 40
0.0
  9
$DIMAZIN
 70
0
  9
$DIMDSEP
 70
44
  9
$DIMATFIT
 70
3
  9
$DIMFRAC
 70
0
  9
$DIMLDRBLK
  1

  9
$DIMLUNIT
 70
2
  9
$DIMLWD
 70
-2
  9
$DIMLWE
 70
-2
  9
$DIMTMOVE
 70
0
  9
$DIMFXL
 40
1.0
  9
$DIMFXLON
 70
0
  9
$DIMJOGANG
 40
0.785398163397
  9
$DIMTFILL
 70
0
  9
$DIMTFILLCLR
 70
0
  9
$DIMARCSYM
 70
0
  9
$DIMLTYPE
  6

  9
$DIMLTEX1
  6

  9
$DIMLTEX2
  6

  9
$DIMTXTDIRECTION
 70
0
  9
$LUNITS
 70
2
  9
$LUPREC
 70
4
  9
$SKETCHINC
 40
1.0
  9
$FILLETRAD
 40
10.0
  9
$AUNITS
 70
0
  9
$AUPREC
 70
2
  9
$MENU
  1
.
  9
$ELEVATION
 40
0.0
  9
$PELEVATION
 40
0.0
  9
$THICKNESS
 40
0.0
  9
$LIMCHECK
 70
0
  9
$CHAMFERA
 40
0.0
  9
$CHAMFERB
 40
0.0
  9
$CHAMFERC
 40
0.0
  9
$CHAMFERD
 40
0.0
  9
$SKPOLY
 70
0
  9
$TDCREATE
 40
2460246.482303241
  9
$TDUCREATE
 40
2458532.153996898
  9
$TDUPDATE
 40
2460246.482303241
  9
$TDUUPDATE
 40
2458532.1544311
  9
$TDINDWG
 40
0.0
  9
$TDUSRTIMER
 40
0.0
  9
$USRTIMER
 70
1
  9
$ANGBASE
 50
0.0
  9
$ANGDIR
 70
0
  9
$PDMODE
 70
0
  9
$PDSIZE
 40
0.0
  9
$PLINEWID
 40
0.0
  9
$SPLFRAME
 70
0
  9
$SPLINETYPE
 70
6
  9
$SPLINESEGS
 70
8
  9
$HANDSEED
  5
6D
  9
$SURFTAB1
 70
6
  9
$SURFTAB2
 70
6
  9
$SURFTYPE
 70
6
  9
$SURFU
 70
6
  9
$SURFV
 70
6
  9
$UCSBASE
  2

  9
$UCSNAME
  2

  9
$UCSORG
 10
0.0
 20
0.0
 30
0.0
  9
$UCSXDIR
 10
1.0
 20
0.0
 30
0.0
  9
$UCSYDIR
 10
0.0
 20
1.0
 30
0.0
  9
$UCSORTHOREF
  2

  9
$UCSORTHOVIEW
 70
0
  9
$UCSORGTOP
 10
0.0
 20
0.0
 30
0.0
  9
$UCSORGBOTTOM
 10
0.0
 20
0.0
 30
0.0
  9
$UCSORGLEFT
 10
0.0
 20
0.0
 30
0.0
  9
$UCSORGRIGHT
 10
0.0
 20
0.0
 30
0.0
  9
$UCSORGFRONT
 10
0.0
 20
0.0
 30
0.0
  9
$UCSORGBACK
 10
0.0
 20
0.0
 30
0.0
  9
$PUCSBASE
  2

  9
$PUCSNAME
  2

  9
$PUCSORG
 10
0.0
 20
0.0
 30
0.0
  9
$PUCSXDIR
 10
1.0
 20
0.0
 30
0.0
  9
$PUCSYDIR
 10
0.0
 20
1.0
 30
0.0
  9
$PUCSORTHOREF
  2

  9
$PUCSORTHOVIEW
 70
0
  9
$PUCSORGTOP
 10
0.0
 20
0.0
 30
0.0
  9
$PUCSORGBOTTOM
 10
0.0
 20
0.0
 30
0.0
  9
$PUCSORGLEFT
 10
0.0
 20
0.0
 30
0.0
  9
$PUCSORGRIGHT
 10
0.0
 20
0.0
 30
0.0
  9
$PUCSORGFRONT
 10
0.0
 20
0.0
 30
0.0
  9
$PUCSORGBACK
 10
0.0
 20
0.0
 30
0.0
  9
$USERI1
 70
0
  9
$USERI2
 70
0
  9
$USERI3
 70
0
  9
$USERI4
 70
0
  9
$USERI5
 70
0
  9
$USERR1
 40
0.0
  9
$USERR2
 40
0.0
  9
$USERR3
 40
0.0
  9
$USERR4
 40
0.0
  9
$USERR5
 40
0.0
  9
$WORLDVIEW
 70
1
  9
$SHADEDGE
 70
3
  9
$SHADEDIF
 70
70
  9
$TILEMODE
 70
1
  9
$MAXACTVP
 70
64
  9
$PINSBASE
 10
0.0
 20
0.0
 30
0.0
  9
$PLIMCHECK
 70
0
  9
$PEXTMIN
 10
1e+20
 20
1e+20
 30
1e+20
  9
$PEXTMAX
 10
-1e+20
 20
-1e+20
 30
-1e+20
  9
$PLIMMIN
 10
0.0
 20
0.0
  9
$PLIMMAX
 10
420.0
 20
297.0
  9
$UNITMODE
 70
0
  9
$VISRETAIN
 70
1
  9
$PLINEGEN
 70
0
  9
$PSLTSCALE
 70
1
  9
$TREEDEPTH
 70
3020
  9
$CMLSTYLE
  2
Standard
  9
$CMLJUST
 70
0
  9
$CMLSCALE
 40
20.0
  9
$PROXYGRAPHICS
 70
1
  9
$MEASUREMENT
 70
1
  9
$CELWEIGHT
370
-1
  9
$ENDCAPS
280
0
  9
$JOINSTYLE
280
0
  9
$LWDISPLAY
290
0
  9
$INSUNITS
 70
4
  9
$HYPERLINKBASE
  1

  9
$STYLESHEET
  1

  9
$XEDIT
290
1
  9
$CEPSNTYPE
380
0
  9
$PSTYLEMODE
290
1
  9
$FINGERPRINTGUID
  2
{4CDF4A0B-A650-4546-8B32-CBF28D6F3A6E}
  9
$VERSIONGUID
  2
{4E98FF58-4626-4B52-8316-5D4F258F638B}
  9
$EXTNAMES
290
1
  9
$PSVPSCALE
 40
0.0
  9
$OLESTARTUP
290
0
  9
$SORTENTS
280
127
  9
$INDEXCTL
280
0
  9
$HIDETEXT
280
1
  9
$XCLIPFRAME
280
0
  9
$HALOGAP
280
0
  9
$OBSCOLOR
 70
257
  9
$OBSLTYPE
280
0
  9
$INTERSECTIONDISPLAY
280
0
  9
$INTERSECTIONCOLOR
 70
257
  9
$DIMASSOC
280
2
  9
$PROJECTNAME
  1

  9
$CAMERADISPLAY
290
0
  9
$LENSLENGTH
 40
50.0
  9
$CAMERAHEIGHT
 40
0.0
  9
$STEPSPERSEC
 40
24.0
  9
$STEPSIZE
 40
100.0
  9
$3DDWFPREC
 40
2.0
  9
$PSOLWIDTH
 40
0.005
  9
$PSOLHEIGHT
 40
0.08
  9
$LOFTANG1
 40
1.570796326795
  9
$LOFTANG2
 40
1.570796326795
  9
$LOFTMAG1
 40
0.0
  9
$LOFTMAG2
 40
0.0
  9
$LOFTPARAM
 70
7
  9
$LOFTNORMALS
280
1
  9
$LATITUDE
 40
37.795
  9
$LONGITUDE
 40
-122.394
  9
$NORTHDIRECTION
 40
0.0
  9
$TIMEZONE
 70
-8000
  9
$LIGHTGLYPHDISPLAY
280
1
  9
$TILEMODELIGHTSYNCH
280
1
  9
$CMATERIAL
347
20
  9
$SOLIDHIST
280
0
  9
$SHOWHIST
280
1
  9
$DWFFRAME
280
2
  9
$DGNFRAME
280
2
  9
$REALWORLDSCALE
290
1
  9
$INTERFERECOLOR
 62
256
  9
$CSHADOW
280
0
  9
$SHADOWPLANELOCATION
 40
0.0
  0
ENDSEC
  0
SECTION
  2
CLASSES
  0
CLASS
  1
ACDBDICTIONARYWDFLT
  2
AcDbDictionaryWithDefault
  3
ObjectDBX Classes
 90
0
 91
0
280
0
281
0
  0
CLASS
  1
SUN
  2
AcDbSun
  3
SCENEOE
 90
1153
 91
0
280
0
281
0
  0
CLASS
  1
VISUALSTYLE
  2
AcDbVisualStyle
  3
ObjectDBX Classes
 90
4095
 91
0
280
0
281
0
  0
CLASS
  1
MATERIAL
  2
AcDbMaterial
  3
ObjectDBX Classes
 90
1153
 91
0
280
0
281
0
  0
CLASS
  1
SCALE
  2
AcDbScale
  3
ObjectDBX Classes
 90
1153
 91
0
280
0
281
0
  0
CLASS
  1
TABLESTYLE
  2
AcDbTableStyle
  3
ObjectDBX Classes
 90
4095
 91
0
280
0
281
0
  0
CLASS
  1
MLEADERSTYLE
  2
AcDbMLeaderStyle
  3
ACDB_MLEADERSTYLE_CLASS
 90
4095
 91
0
280
0
281
0
  0
CLASS
  1
DICTIONARYVAR
  2
AcDbDictionaryVar
  3
ObjectDBX Classes
 90
0
 91
0
280
0
281
0
  0
CLASS
  1
CELLSTYLEMAP
  2
AcDbCellStyleMap
  3
ObjectDBX Classes
 90
1152
 91
0
280
0
281
0
  0
CLASS
  1
MENTALRAYRENDERSETTINGS
  2
AcDbMentalRayRenderSettings
  3
SCENEOE
 90
1024
 91
0
280
0
281
0
  0
CLASS
  1
ACDBDETAILVIEWSTYLE
  2
AcDbDetailViewStyle
  3
ObjectDBX Classes
 90
1025
 91
0
280
0
281
0
  0
CLASS
  1
ACDBSECTIONVIEWSTYLE
  2
AcDbSectionViewStyle
  3
ObjectDBX Classes
 90
1025
 91
0
280
0
281
0
  0
CLASS
  1
RASTERVARIABLES
  2
AcDbRasterVariables
  3
ISM
 90
0
 91
0
280
0
281
0
  0
CLASS
  1
ACDBPLACEHOLDER
  2
AcDbPlaceHolder
  3
ObjectDBX Classes
 90
0
 91
0
280
0
281
0
  0
CLASS
  1
LAYOUT
  2
AcDbLayout
  3
ObjectDBX Classes
 90
0
 91
0
280
0
281
0
  0
ENDSEC
  0
SECTION
  2
TABLES
  0
TABLE
  2
VPORT
  5
8
330
0
100
AcDbSymbolTable
 70
1
  0
VPORT
  5
23
330
8
100
AcDbSymbolTableRecord
100
AcDbViewportTableRecord
  2
*Active
 70
0
 10
0.0
 20
0.0
 11
1.0
 21
1.0
 12
0.0
 22
0.0
 13
0.0
 23
0.0
 14
0.5
 24
0.5
 15
0.5
 25
0.5
 16
0.0
 26
0.0
 36
1.0
 17
0.0
 27
0.0
 37
0.0
 40
1000.0
 41
1.34
 42
50.0
 43
0.0
 44
0.0
 50
0.0
 51
0.0
 71
0
 72
1000
 73
1
 74
3
 75
0
 76
0
 77
0
 78
0
281
0
 65
0
146
0.0
  0
ENDTAB
  0
TABLE
  2
LTYPE
  5
2
330
0
100
AcDbSymbolTable
 70
3
  0
LTYPE
  5
24
330
2
100
AcDbSymbolTableRecord
100
AcDbLinetypeTableRecord
  2
ByBlock
 70
0
  3

 72
65
 73
0
 40
0.0
  0
LTYPE
  5
25
330
2
100
AcDbSymbolTableRecord
100
AcDbLinetypeTableRecord
  2
ByLayer
 70
0
  3

 72
65
 73
0
 40
0.0
  0
LTYPE
  5
26
330
2
100
AcDbSymbolTableRecord
100
AcDbLinetypeTableRecord
  2
Continuous
 70
0
  3

 72
65
 73
0
 40
0.0
  0
ENDTAB
  0
TABLE
  2
LAYER
  5
1
330
0
100
AcDbSymbolTable
 70
2
  0
LAYER
  5
27
330
1
100
AcDbSymbolTableRecord
100
AcDbLayerTableRecord
  2
0
 70
0
 62
7
  6
Continuous
370
-3
390
13
347
21
  0
LAYER
  5
28
330
1
100
AcDbSymbolTableRecord
100
AcDbLayerTableRecord
  2
Defpoints
 70
0
 62
7
  6
Continuous
290
0
370
-3
390
13
347
21
  0
ENDTAB
  0
TABLE
  2
STYLE
  5
5
330
0
100
AcDbSymbolTable
 70
1
  0
STYLE
  5
29
330
5
100
AcDbSymbolTableRecord
100
AcDbTextStyleTableRecord
  2
Standard
 70
0
 40
0.0
 41
1.0
 50
0.0
 71
0
 42
2.5
  3
txt
  4

  0
ENDTAB
  0
TABLE
  2
VIEW
  5
7
330
0
100
AcDbSymbolTable
 70
0
  0
ENDTAB
  0
TABLE
  2
UCS
  5
6
330
0
100
AcDbSymbolTable
 70
0
  0
ENDTAB
  0
TABLE
  2
APPID
  5
3
330
0
100
AcDbSymbolTable
 70
3
  0
APPID
  5
2A
330
3
100
AcDbSymbolTableRecord
100
AcDbRegAppTableRecord
  2
ACAD
 70
0
  0
APPID
  5
6A
330
3
100
AcDbSymbolTableRecord
100
AcDbRegAppTableRecord
  2
HATCHBACKGROUNDCOLOR
 70
0
  0
APPID
  5
6B
330
3
100
AcDbSymbolTableRecord
100
AcDbRegAppTableRecord
  2
EZDXF
 70
0
  0
ENDTAB
  0
TABLE
  2
DIMSTYLE
  5
4
330
0
100
AcDbSymbolTable
 70
1
100
AcDbDimStyleTable
  0
DIMSTYLE
105
2B
330
4
100
AcDbSymbolTableRecord
100
AcDbDimStyleTableRecord
  2
Standard
 70
0
 40
1.0
 41
2.5
 42
0.625
 43
3.75
 44
1.25
 45
0.0
 46
0.0
 47
0.0
 48
0.0
 49
2.5
140
2.5
141
2.5
142
0.0
143
0.03937007874
144
1.0
145
0.0
146
1.0
147
0.625
148
0.0
 69
0
 70
0
 71
0
 72
0
 73
0
 74
0
 75
0
 76
0
 77
1
 78
8
 79
3
170
0
171
3
172
1
173
0
174
0
175
0
176
0
177
0
178
0
179
2
271
2
272
2
273
2
274
3
275
0
276
0
277
2
278
44
279
0
280
0
281
0
282
0
283
0
284
8
285
0
286
0
288
0
289
3
290
0
371
-2
372
-2
  0
ENDTAB
  0
TABLE
  2
BLOCK_RECORD
  5
9
330
0
100
AcDbSymbolTable
 70
2
  0
BLOCK_RECORD
  5
17
330
9
100
AcDbSymbolTableRecord
100
AcDbBlockTableRecord
  2
*Model_Space
340
1A
 70
0
280
1
281
0
  0
BLOCK_RECORD
  5
1B
330
9
100
AcDbSymbolTableRecord
100
AcDbBlockTableRecord
  2
*Paper_Space
340
1E
 70
0
280
1
281
0
  0
ENDTAB
  0
ENDSEC
  0
SECTION
  2
BLOCKS
  0
BLOCK
  5
18
330
17
100
AcDbEntity
  8
0
100
AcDbBlockBegin
  2
*Model_Space
 70
0
 10
0.0
 20
0.0
 30
0.0
  3
*Model_Space
  1

  0
ENDBLK
  5
19
330
17
100
AcDbEntity
  8
0
100
AcDbBlockEnd
  0
BLOCK
  5
1C
330
1B
100
AcDbEntity
  8
0
100
AcDbBlockBegin
  2
*Paper_Space
 70
0
 10
0.0
 20
0.0
 30
0.0
  3
*Paper_Space
  1

  0
ENDBLK
  5
1D
330
1B
100
AcDbEntity
  8
0
100
AcDbBlockEnd
  0
ENDSEC
  0
SECTION
  2
ENTITIES
  0
LWPOLYLINE
  5
2F
330
17
100
AcDbEntity
  8
default
100
AcDbPolyline
 90
1135
 70
0
 10
84.81518443043007
 20
346.0741322789635
 10
85.18454670369117
 20
346.5922655218246
 10
85.48211996297553
 20
347.0744011448422
 10
85.85148223623666
 20
347.59253438770344
 10
86.15149366348747
 20
348.0771081786876
 10
86.53770172475458
 20
348.61208720955466
 10
86.90714402350147
 20
349.1660918720349
 10
87.42619007786922
 20
349.8339088960027
 10
87.79564801381846
 20
350.3879291956852
 10
88.18209289852246
 20
350.92314504998916
 10
88.48457376815018
 20
351.41018828335024
 10
88.8710186533291
 20
351.9454041381292
 10
88.92437248960934
 20
352.02541083139636
 10
89.2404766121123
 20
352.49942446064574
 10
89.75952338788778
 20
353.1672422060212
 10
90.12898134667685
 20
353.7212625285435
 10
90.51542623233073
 20
354.2564783837974
 10
90.81790712479831
 20
354.74352163999833
 10
91.20435273138496
 20
355.278738216185
 10
91.57382635021034
 20
355.83277419874383
 10
92.09310995037254
 20
356.500828768506
 10
92.46503737437254
 20
357.05731855623924
 10
92.86856559287702
 20
357.6096177443437
 10
93.24294682205162
 20
358.16856133725173
 10
93.77931303413168
 20
358.85369851893176
 10
94.22068698966994
 20
359.4796348382033
 10
94.75705392315767
 20
360.1647727412911
 10
95.1314508352026
 20
360.7237320170693
 10
95.53521659950151
 20
361.2762687509682
 10
95.90962914876049
 20
361.83524366396057
 10
96.44623290663499
 20
362.5206183914351
 10
96.89007635022406
 20
363.1490241987575
 10
97.03167912409488
 20
363.328690703395
 10
97.0316791240949
 20
363.328690703395
 10
97.44352661751225
 20
363.8512454356457
 10
97.88982388910405
 20
364.48210507097076
 10
98.44351098030408
 20
365.18456313177086
 10
98.88983952631813
 20
365.8154540415183
 10
99.44376344190486
 20
366.51814892670495
 10
99.89254583874391
 20
367.1514936872774
 10
100.46331698420222
 20
367.87103580233565
 10
100.9815458897573
 20
368.57382707162407
 10
101.68539041131234
 20
369.42644256277913
 10
102.20607314487013
 20
370.13168766007027
 10
102.79392762365401
 20
370.8683131084541
 10
103.31462601725401
 20
371.5735738657874
 10
104.01870808460349
 20
372.4264269027369
 10
104.53942213824567
 20
373.1317033201125
 10
105.12751416282396
 20
373.8685663142907
 10
105.65068204446887
 20
374.57629655966895
 10
106.37184744514393
 20
375.446232929944
 10
106.96446183550485
 20
376.2234096840383
 10
107.70247446605147
 20
377.1101932841849
 10
108.2975427072374
 20
377.88982388910415
 10
109.03579216217074
 20
378.7768443136374
 10
109.63089167778479
 20
379.55650619298484
 10
110.36937795710487
 20
380.443763441905
 10
110.9669313235498
 20
381.22587917208324
 10
111.57673993568989
 20
381.9557960772322
 10
111.57673993568987
 20
381.9557960772322
 10
111.7222648332164
 20
382.1299836513498
 10
112.38926473121133
 20
382.981545913078
 10
113.27767233838237
 20
384.0187244898491
 10
113.94714172441635
 20
384.8727562396165
 10
114.719796112728
 20
385.7941815975281
 10
115.39175060118698
 20
386.6506984497203
 10
116.29771518998206
 20
387.70543400811545
 10
117.04157003798205
 20
388.6338512198488
 10
117.98122908652034
 20
389.72228123798703
 10
118.7969842940672
 20
390.72259880926725
 10
119.86995354356385
 20
391.9443390283639
 10
120.68819387636971
 20
392.94714172490313
 10
121.64541062841478
 20
394.05312944654816
 10
122.46613610931361
 20
395.0584172911804
 10
123.55666378419969
 20
396.2977159356664
 10
124.44930530752741
 20
397.37491982272746
 10
125.57376498842618
 20
398.6481504732262
 10
126.54079201940547
 20
399.7997398679389
 10
127.81588278133268
 20
401.2236015994661
 10
128.85978046807995
 20
402.4520616499467
 10
130.18636166330984
 20
403.92741381477657
 10
131.3790617997493
 20
405.30467631494935
 10
132.47687405366688
 20
406.5017911928179
 10
133.0237574476893
 20
407.09814293247763
 10
134.44217812643075
 20
408.7011259740024
 10
136.34121278425218
 20
410.7489315557442
 10
138.1443308421829
 20
412.73661053364293
 10
139.25254170729795
 20
413.9067775349324
 10
140.80483963472102
 20
415.54585893001695
 10
142.00335971274072
 20
416.8246930793809
 10
143.55195837670175
 20
418.47706494319226
 10
148.02101116324343
 20
423.089918403148
 10
148.94994333691398
 20
424.04389327172686
 10
153.58215681663958
 20
428.8009846620374
 10
162.44223455351883
 20
437.6610623989166
 10
167.87559298646616
 20
442.9445002263706
 10
171.88994886778977
 20
446.81505543428017
 10
174.53610132239277
 20
449.27712061768864
 10
177.2943401521153
 20
451.88661984357526
 10
179.34652684530027
 20
453.75424561679233
 10
181.5606266155333
 20
455.819574463105
 10
183.30983281557997
 20
457.3842183003683
 10
185.2876206430588
 20
459.2132351582589
 10
186.81362265573742
 20
460.5546748072042
 10
188.4732989147237
 20
462.0655800965905
 10
189.84804478667618
 20
463.2557636048096
 10
191.43914872327443
 20
464.69809657180775
 10
192.66513923998943
 20
465.7395247247894
 10
193.95592687258716
 20
466.8815413877872
 10
195.03806971290993
 20
467.77912186437663
 10
196.29445241212923
 20
468.88673359399604
 10
197.36918681113954
 20
469.776905629273
 10
198.0487701437058
 20
470.37487758584814
 10
198.60801252731005
 20
470.8669603758435
 10
199.6108152466891
 20
471.68520073148915
 10
200.6997181936179
 20
472.62533270881806
 10
201.63060489340788
 20
473.3716570448747
 10
202.70218840308237
 20
474.2944695849492
 10
203.62815180964697
 20
475.0358706277804
 10
204.68265126506304
 20
475.9415991135964
 10
205.53915248004714
 20
476.6135379648472
 10
206.460577117026
 20
477.386191632226
 10
207.31460884396517
 20
478.0556609954319
 10
207.5813773678092
 20
478.28416473743596
 10
208.3517874202613
 20
478.94406860212797
 10
209.20334968198372
 20
479.6110685001171
 10
210.1074541612503
 20
480.36640200978366
 10
210.7496111146922
 20
480.8570238378701
 10
210.88956989142852
 20
480.96395537622857
 10
211.77682714034862
 20
481.7024416555487
 10
212.55648901969602
 20
482.2975411711628
 10
213.44350944422936
 20
483.03579062609606
 10
214.22314004914867
 20
483.630858867282
 10
215.10992364929527
 20
484.36887149782865
 10
215.88710040338952
 20
484.96148588818954
 10
216.75703677366454
 20
485.6826512888646
 10
217.4647670190428
 20
486.2058191705095
 10
218.2016300132211
 20
486.7939111950878
 10
218.90690643059665
 20
487.31462524872995
 10
219.75975946754613
 20
488.01870731607943
 10
220.46502022487942
 20
488.5394057096795
 10
221.2016456732633
 20
489.12726018846337
 10
221.34098554798496
 20
489.2301348729416
 10
221.90689077055444
 20
489.6479429220211
 10
222.7595062617095
 20
490.35178744357614
 10
223.4622975309979
 20
490.87001634913133
 10
224.18183964605618
 20
491.44078749458964
 10
224.81518440663444
 20
491.8895698914346
 10
225.51787929229607
 20
492.44349380749617
 10
226.1487702248775
 20
492.8898223763443
 10
226.85122900708524
 20
493.443510188952
 10
227.48210430245254
 20
493.88982312058596
 10
228.18456236372748
 20
494.44351021226095
 10
228.8154376362667
 20
494.8898231210668
 10
229.51789569706668
 20
495.4435102122668
 10
230.14877096959415
 20
495.88982312106094
 10
230.8512290299192
 20
496.443510211786
 10
231.48210427961854
 20
496.889823097752
 10
232.18456161901082
 20
497.44350946754435
 10
232.8154212314961
 20
497.8898067162963
 10
233.38952796953828
 20
498.3422845264432
 10
233.51764246743448
 20
498.44325698263464
 10
234.14604825192288
 20
498.88710040338964
 10
234.83142225846456
 20
499.42370344033134
 10
235.39038153424283
 20
499.79810035237625
 10
235.94268216468777
 20
500.2016300132212
 10
236.4991876124633
 20
500.5735730972633
 10
236.80359391921607
 20
500.81021424848876
 10
237.16747828567946
 20
501.09309280087956
 10
237.7239680734187
 20
501.46502022488545
 10
238.2760311585441
 20
501.86831234041085
 10
238.83250530906923
 20
502.2402241272026
 10
239.50055915789864
 20
502.7595070064321
 10
240.05459511762928
 20
503.1289806024294
 10
240.589811693341
 20
503.5154262085411
 10
241.0768549495302
 20
503.817907100997
 10
241.6120708043091
 20
504.2043519861758
 10
242.16609110399747
 20
504.5738099221309
 10
242.83390812796526
 20
505.0928559764987
 10
243.38791279043963
 20
505.4622982752397
 10
243.92289182083184
 20
505.8485063360319
 10
244.40746558898195
 20
506.1485177404487
 10
244.92559811043537
 20
506.51787929230215
 10
245.40771807341088
 20
506.8154368915443
 10
245.92561449188528
 20
507.18456234041867
 10
246.134008071743
 20
507.31317731297145
 10
246.40771881765258
 20
507.4821043024526
 10
246.92561451519418
 20
507.8512290303943
 10
247.4077188181334
 20
508.1487709696001
 10
247.92561451520007
 20
508.51789569706676
 10
248.40771881813342
 20
508.81543763626684
 10
248.92561451520007
 20
509.1845623637334
 10
249.40771881813342
 20
509.48210430293346
 10
249.92561451520007
 20
509.85122903040013
 10
250.11261625988143
 20
509.96664152808523
 10
250.40771881813342
 20
510.14877096960015
 10
250.92561451520007
 20
510.5178956970668
 10
251.40771881813342
 20
510.81543763626684
 10
251.92561451520004
 20
511.18456236373345
 10
252.40771881813342
 20
511.48210430293346
 10
252.92561451520007
 20
511.8512290304001
 10
253.40771881813342
 20
512.1487709696002
 10
253.92561451520007
 20
512.5178956970667
 10
254.40771881813342
 20
512.8154376362668
 10
254.92561451520007
 20
513.1845623637334
 10
255.40771881813342
 20
513.4821043029335
 10
255.9256145152
 20
513.8512290304002
 10
256.40771881812753
 20
514.1487709695942
 10
256.9256145147192
 20
514.5178956965858
 10
257.40771879481855
 20
514.8154376129519
 10
257.9256137704776
 20
515.1845616190109
 10
258.4077024133687
 20
515.4820878981689
 10
258.4512653874545
 20
515.5131312261412
 10
258.9253612860486
 20
515.8509758012488
 10
259.404996123771
 20
516.1460482752377
 10
259.90580848798703
 20
516.4980896698539
 10
260.3160124542133
 20
516.7237312723469
 10
260.6839875457867
 20
516.9429353943203
 10
261.09419151200717
 20
517.1685769968072
 10
261.5950038757483
 20
517.5206183909482
 10
262.0746386906367
 20
517.8156908421033
 10
262.59229684190893
 20
518.1845780237757
 10
263.07436982475787
 20
518.4820886428913
 10
263.59202797603007
 20
518.8509758245635
 10
264.07166279091257
 20
519.1460482757127
 10
264.57247515417885
 20
519.4980896693789
 10
264.98267909756527
 20
519.7237312490322
 10
265.35065346773087
 20
519.9429346495976
 10
265.760841773915
 20
520.1685605920484
 10
266.26141731374435
 20
520.5203651622777
 10
266.73858268624986
 20
520.81296817105
 10
267.2391582256043
 20
521.1647727408044
 10
267.64934650895447
 20
521.3903986604213
 10
268.0173201577123
 20
521.6096013395792
 10
268.4275084410624
 20
521.8352272591958
 10
268.92808398041683
 20
522.1870318289502
 10
269.4052493529166
 20
522.4796348377167
 10
269.9058248922709
 20
522.8314394074711
 10
270.3160131756211
 20
523.0570653270879
 10
270.68398682437896
 20
523.2762680062458
 10
271.0941751077291
 20
523.5018939258625
 10
271.5947506470835
 20
523.853698495617
 10
272.0719160195833
 20
524.1463015043834
 10
272.57249155893766
 20
524.4981060741377
 10
272.9826798422878
 20
524.7237319937545
 10
273.35065349104565
 20
524.9429346729125
 10
273.7608417743899
 20
525.1685605925232
 10
274.2614173132694
 20
525.5203651618028
 10
274.6211480215248
 20
525.7409559474532
 10
274.738582662941
 20
525.8129681477411
 10
275.2391574813626
 20
526.1647719965628
 10
275.6493301274987
 20
526.3903822789655
 10
276.0170676728026
 20
526.6093488546694
 10
276.42480212815
 20
526.8325209462832
 10
276.90853043763286
 20
527.1674782861662
 10
277.3162492785942
 20
527.3906347633944
 10
277.68375072091914
 20
527.6093652361193
 10
278.09146953905844
 20
527.832521690525
 10
278.5751971276085
 20
528.1674783094752
 10
278.98291594574175
 20
528.3906347638753
 10
279.3504173875916
 20
528.6093652361251
 10
279.75813620571915
 20
528.8325216905192
 10
280.2418637937943
 20
529.1674783089944
 10
280.6495825890995
 20
529.3906347405663
 10
281.01708331001663
 20
529.6093644918834
 10
281.4247864909359
 20
529.8325053090693
 10
281.90827797603197
 20
530.1672258245654
 10
282.3135429661626
 20
530.3879284509627
 10
282.66419717814097
 20
530.5898116933411
 10
283.002469464736
 20
530.7435216162028
 10
283.3531229562565
 20
530.9454041381234
 10
283.7583723091789
 20
531.1660911273124
 10
284.2416276908211
 20
531.5005755393545
 10
284.6468770437377
 20
531.7212625285377
 10
284.9975305347832
 20
531.9231450499833
 10
285.33580279855016
 20
532.0768549500169
 10
285.68645628959575
 20
532.2787374714626
 10
286.0917056425123
 20
532.4994244606457
 10
286.57496102415445
 20
532.8339088726879
 10
286.980210377071
 20
533.054595861871
 10
287.3308638681165
 20
533.2564783833166
 10
287.6691361318835
 20
533.4101882833503
 10
288.01978962292907
 20
533.612070804796
 10
288.4250389758456
 20
533.8327577939791
 10
288.90829435748776
 20
534.1672422060212
 10
289.3135437104043
 20
534.3879291952045
 10
289.6641972014499
 20
534.5898117166499
 10
290.00246946521094
 20
534.7435216166776
 10
290.3531229557816
 20
534.9454041376484
 10
290.75837228587005
 20
535.1660911040035
 10
291.2416269465794
 20
535.5005747951128
 10
291.64686066228774
 20
535.7212461470879
 10
291.99727805035434
 20
535.9228925655544
 10
292.33309650894665
 20
536.0741486604134
 10
292.6669034910535
 20
536.2591846729202
 10
293.0027219496399
 20
536.4104407677734
 10
293.3531393372316
 20
536.6120871857651
 10
293.7583730301118
 20
536.8327585149119
 10
294.24162696988833
 20
537.1672414850885
 10
294.6468606627686
 20
537.3879128142354
 10
294.99727805036025
 20
537.5895592322271
 10
295.3330965089467
 20
537.7408153270801
 10
295.6669034910535
 20
537.9258513395869
 10
296.0027219496399
 20
538.07710743444
 10
296.35313933723154
 20
538.2787538524317
 10
296.7583730301059
 20
538.4994251815727
 10
297.24162696940755
 20
538.8339081512744
 10
297.64686063945965
 20
539.054579457593
 10
297.9972773061186
 20
539.2562251546518
 10
298.3330801274968
 20
539.4074656122968
 10
298.66665100662453
 20
539.5922655218246
 10
299.0000156600422
 20
539.741067811509
 10
299.33358653917
 20
539.9258677210366
 10
299.6693893605483
 20
540.0771081786817
 10
300.0198060272071
 20
540.2787538757406
 10
300.4250396972533
 20
540.4994251820535
 10
300.9082936360801
 20
540.8339081512803
 10
301.3135273061263
 20
541.0545794575931
 10
301.6639439727852
 20
541.2562251546518
 10
301.99974679416346
 20
541.4074656122968
 10
302.33331767329116
 20
541.5922655218246
 10
302.66668232670884
 20
541.741067811509
 10
303.00025320583666
 20
541.9258677210366
 10
303.18393481771864
 20
542.0085951112592
 10
303.1839348177186
 20
542.0085951112592
 10
303.33605602721497
 20
542.0771081786817
 10
303.68647269387384
 20
542.2787538757406
 10
304.09170636391997
 20
542.4994251820535
 10
304.5749603027467
 20
542.8339081512802
 10
304.9801939727871
 20
543.0545794575872
 10
305.33061063897105
 20
543.256225154171
 10
305.66641343751525
 20
543.4074655889821
 10
305.99998359523534
 20
543.5922647771021
 10
306.3333325886167
 20
543.7410514067502
 10
306.66666664383274
 20
543.9256144923662
 10
307.000000022834
 20
544.074385507634
 10
307.33333407805
 20
544.25894859325
 10
307.40859529254675
 20
544.2925406024372
 10
307.4085952925468
 20
544.2925406024372
 10
307.66668307143135
 20
544.407735222898
 10
308.0002532291515
 20
544.5925344110183
 10
308.33605602769575
 20
544.7437748458292
 10
308.6864726938797
 20
544.9454205424132
 10
309.09170636392
 20
545.1660918487202
 10
309.5749603027467
 20
545.5005748179468
 10
309.9801939727871
 20
545.721246124254
 10
310.33061063897105
 20
545.9228918208378
 10
310.66641343751525
 20
546.0741322556487
 10
310.99998359523534
 20
546.2589314437688
 10
311.3333325886108
 20
546.4077180734109
 10
311.6666666433519
 20
546.5922811585519
 10
311.99999999951916
 20
546.741052150986
 10
312.33333333332746
 20
546.9256145151943
 10
312.6666666666667
 20
547.0743854848
 10
313.0
 20
547.2589478485335
 10
313.3333333333333
 20
547.4077188181334
 10
313.6666666666667
 20
547.5922811818668
 10
314.0
 20
547.7410521514668
 10
314.3333333333333
 20
547.9256145152002
 10
314.6666666666667
 20
548.0743854848
 10
315.0
 20
548.2589478485335
 10
315.3333333333333
 20
548.4077188181334
 10
315.6666666666667
 20
548.5922811818668
 10
316.0
 20
548.7410521514668
 10
316.3333333333333
 20
548.9256145152002
 10
316.6666666666667
 20
549.0743854848
 10
317.0
 20
549.2589478485335
 10
317.3333333333333
 20
549.4077188181334
 10
317.6666666666667
 20
549.5922811818668
 10
318.0
 20
549.7410521514668
 10
318.3333333333333
 20
549.9256145152002
 10
318.6666666666667
 20
550.0743854848
 10
319.0
 20
550.2589478485335
 10
319.3333333333333
 20
550.4077188181334
 10
319.6666666666667
 20
550.5922811818668
 10
320.0
 20
550.7410521514668
 10
320.3333333333333
 20
550.9256145152002
 10
320.66666666666674
 20
551.0743854848
 10
321.0000000000059
 20
551.2589478485335
 10
321.33333333381415
 20
551.4077188181334
 10
321.66666668998147
 20
551.5922811818668
 10
322.00000074472257
 20
551.7410521514668
 10
322.3333497380981
 20
551.9256145152002
 10
322.6669198958182
 20
552.0743854848
 10
323.00272269436243
 20
552.2589478485335
 10
323.3531393605463
 20
552.4077188181334
 10
323.7583730305867
 20
552.5922811818668
 10
324.2416269694134
 20
552.7410521514668
 10
324.6468606394538
 20
552.9256145152002
 10
324.99727730563774
 20
553.0743854848
 10
325.33308010418193
 20
553.2589478485335
 10
325.666650261902
 20
553.4077188181334
 10
325.9999992552775
 20
553.5922811818668
 10
326.33333331001853
 20
553.7410521514668
 10
326.66666666618585
 20
553.9256145152002
 10
326.99999999999415
 20
554.0743854848
 10
327.3333333333333
 20
554.2589478485335
 10
327.6666666666667
 20
554.4077188181334
 10
328.0
 20
554.5922811818668
 10
328.3333333333333
 20
554.7410521514668
 10
328.6666666666667
 20
554.9256145152002
 10
329.00000000000006
 20
555.0743854848
 10
329.3333333333392
 20
555.2589478485335
 10
329.6666666671475
 20
555.4077188181334
 10
330.00000002331484
 20
555.5922811818668
 10
330.3333340780559
 20
555.7410521514668
 10
330.6666830714314
 20
555.9256145152002
 10
331.0002532291515
 20
556.0743854848
 10
331.33605602769575
 20
556.2589478485335
 10
331.6864726938797
 20
556.4077188181334
 10
332.09170636392
 20
556.5922811818668
 10
332.5749603027467
 20
556.7410521514668
 10
332.9801939727871
 20
556.9256145152002
 10
333.33061063897105
 20
557.0743854848
 10
333.66641343751525
 20
557.2589478485335
 10
333.99998359523534
 20
557.4077188181334
 10
334.3333325886167
 20
557.5922811818668
 10
334.66666664383274
 20
557.7410521514668
 10
335.00000002283406
 20
557.9256145152002
 10
335.33333407805
 20
558.0743854848
 10
335.66668307143135
 20
558.2589478485335
 10
336.0002532291515
 20
558.4077188181334
 10
336.33605602769575
 20
558.5922811818668
 10
336.6864726938797
 20
558.7410521514668
 10
337.09170636392
 20
558.9256145152002
 10
337.5749603027468
 20
559.0743854848
 10
337.980193972793
 20
559.2589478485335
 10
338.3306106394519
 20
559.4077188181334
 10
338.6664134608301
 20
559.5922811818668
 10
338.99998433995785
 20
559.7410521514668
 10
339.3333489933755
 20
559.9256145152002
 10
339.66691987250334
 20
560.0743854848
 10
340.00272269388165
 20
560.2589478485335
 10
340.3531393605405
 20
560.4077188181334
 10
340.75837303059257
 20
560.5922811818668
 10
341.2416269698942
 20
560.7410521514668
 10
341.64686066276863
 20
560.9256145152002
 10
341.99727805036025
 20
561.0743854848
 10
342.3330965089467
 20
561.2589478485335
 10
342.6669034910535
 20
561.4077188181334
 10
343.0027219496399
 20
561.5922811818668
 10
343.3531393372316
 20
561.7410521514668
 10
343.7583730301118
 20
561.9256145152002
 10
344.2416269698884
 20
562.0743854848
 10
344.6468606627686
 20
562.2589478485335
 10
344.9972780503603
 20
562.4077188181334
 10
345.3330965089526
 20
562.5922811818668
 10
345.66690349153436
 20
562.7410521514668
 10
346.00272197295476
 20
562.9256145152002
 10
346.3531400819541
 20
563.0743854848
 10
346.75838943487065
 20
563.2589478485335
 10
347.24188019855904
 20
563.4077188181334
 10
347.62639898284294
 20
563.5817859017274
 10
347.626398982843
 20
563.5817859017274
 10
347.649583333822
 20
563.5922811818668
 10
348.01708333333147
 20
563.7410521514668
 10
348.42478649141674
 20
563.9256145152002
 10
348.9082779760379
 20
564.0743854848
 10
349.3135429661626
 20
564.2589478485335
 10
349.66419717814097
 20
564.4077188181334
 10
350.002469464736
 20
564.5922811818668
 10
350.3531229562565
 20
564.7410521514668
 10
350.7583723091789
 20
564.9256145152002
 10
351.2416276908211
 20
565.0743854848
 10
351.64687704374353
 20
565.2589478485335
 10
351.997530535264
 20
565.4077188181334
 10
352.3358028218591
 20
565.5922811818668
 10
352.6864570338375
 20
565.7410521514668
 10
353.0917220239623
 20
565.9256145152002
 10
353.5752135085834
 20
566.0743854848
 10
353.98291666667456
 20
566.2589478485335
 10
354.3504166666589
 20
566.4077188181334
 10
354.75811982475
 20
566.5922811818668
 10
355.2416113093713
 20
566.7410521514668
 10
355.57565456094227
 20
566.8931793117213
 10
355.64687629950186
 20
566.9256145152002
 10
355.9975305119551
 20
567.0743854848
 10
356.3358028213783
 20
567.2589478485335
 10
356.68645703383163
 20
567.4077188181334
 10
357.09172202396815
 20
567.5922811818668
 10
357.5752135090642
 20
567.7410521514668
 10
357.9829166899835
 20
567.9256145152002
 10
358.35041741090066
 20
568.0743854848
 10
358.7581362062059
 20
568.2589478485335
 10
359.2418637942811
 20
568.4077188181334
 10
359.64958261240844
 20
568.5922811818668
 10
360.0170840542584
 20
568.7410521514668
 10
360.4248028723918
 20
568.9256145152002
 10
360.90853046094185
 20
569.0743854848
 10
361.3162492790751
 20
569.2589478485335
 10
361.68375072092505
 20
569.4077188181334
 10
362.0914695390585
 20
569.5922811818668
 10
362.5751971276085
 20
569.7410521514668
 10
362.98291594574175
 20
569.9256145152002
 10
363.3504173875917
 20
570.0743854848
 10
363.7581362057251
 20
570.2589478485335
 10
364.1929976442445
 20
570.3926899781566
 10
366.89306459345994
 20
563.393029620949
 10
367.86781061904804
 20
560.8660955700593
 10
368.8435013971014
 20
558.3367123405
 10
368.886312279049
 20
558.3530133142223
 10
369.5105564558489
 20
558.6045249686223
 10
370.1094688818989
 20
558.8530133142223
 10
370.73371615869894
 20
559.1045249686224
 10
371.38635954929896
 20
559.3530133142224
 10
372.01103514289895
 20
559.6045249686223
 10
372.61291800469894
 20
559.8530133142223
 10
373.251442900699
 20
560.1045249686224
 10
373.95048367179896
 20
560.3530133142224
 10
374.66954151339894
 20
560.6045249686224
 10
375.3685822844989
 20
560.8530133142223
 10
376.0071071804989
 20
561.1045249686223
 10
376.60899004224893
 20
561.3530133142223
 10
377.23366563184896
 20
561.6045249686224
 10
377.88630887789895
 20
561.8530133142724
 10
378.5105530426989
 20
562.1045249726723
 10
379.10942116189887
 20
562.3530134628223
 10
379.7332276979489
 20
562.6045282292724
 10
380.3827680254989
 20
562.8530608856724
 10
380.9918594539989
 20
563.1050103213724
 10
381.53825979804884
 20
563.3565606797224
 10
382.03786943549886
 20
563.6232662731724
 10
382.4888479642989
 20
563.9246598823224
 10
382.8680560502989
 20
564.3034271954224
 10
383.1838166147989
 20
564.7656241413223
 10
383.5003463133989
 20
565.2994484130222
 10
383.8642678242989
 20
565.9024187633723
 10
384.2801096970989
 20
566.5333123269725
 10
384.705286686299
 20
567.0890098947225
 10
385.204103536499
 20
567.5079653423226
 10
385.914229577049
 20
567.7924236526727
 10
386.95315791744895
 20
567.9506910824725
 10
388.20974835969895
 20
567.9217013191725
 10
389.338501021349
 20
567.6616394886225
 10
390.25123761574895
 20
567.1728383075725
 10
390.99369097104903
 20
566.5100606588725
 10
391.527911833399
 20
565.8451738733223
 10
391.89556984554895
 20
565.2611506619724
 10
392.176762187149
 20
564.7317320200724
 10
392.43475592514903
 20
564.2109785410723
 10
392.68415211759907
 20
563.6575064105724
 10
392.9356663218991
 20
563.0314417531723
 10
393.18327939399904
 20
562.3203747539724
 10
393.428582083299
 20
561.5285397525724
 10
393.64585708539903
 20
560.5846732510224
 10
393.78595081249904
 20
559.4098034848224
 10
393.753334988299
 20
558.0981683101226
 10
393.491484668299
 20
556.9539641186224
 10
392.993547827199
 20
556.0390028307725
 10
392.286189749199
 20
555.3022263956725
 10
391.469963957349
 20
554.7982544236226
 10
390.54307639234906
 20
554.5354464484225
 10
389.518507634949
 20
554.5018670262225
 10
388.53196783604903
 20
554.6358367276224
 10
387.585086599949
 20
554.8228118710725
 10
386.589772135549
 20
554.9631724927725
 10
385.542144487399
 20
554.9622908583724
 10
384.589316387199
 20
554.8156320639725
 10
383.7883487286989
 20
554.5974370479224
 10
383.11995880379885
 20
554.3520429139224
 10
382.51200229474887
 20
554.1044298339224
 10
381.8864545355489
 20
553.8530067930224
 10
381.2337226758489
 20
553.6045246714224
 10
380.6094691790489
 20
553.3530133061223
 10
380.01055646394894
 20
553.1045249685224
 10
379.3863122791489
 20
552.8530133142224
 10
378.7337129061489
 20
552.6045249686224
 10
378.1094687293489
 20
552.3530133142223
 10
377.5105563032989
 20
552.1045249686223
 10
376.8863090264989
 20
551.8530133142224
 10
376.23366563589894
 20
551.6045249686224
 10
375.6089900422989
 20
551.3530133142223
 10
375.0071071804989
 20
551.1045249686223
 10
374.3685822844989
 20
550.8530133142223
 10
373.66954151339894
 20
550.6045249686224
 10
372.95048367179896
 20
550.3530133142224
 10
372.2514429006989
 20
550.1045249686224
 10
372.0496650157496
 20
550.0250457032361
 10
376.8207058852449
 20
537.6565873409254
 10
376.6691361318835
 20
537.5922811818668
 10
376.3308638681165
 20
537.4077188181334
 10
375.980210377071
 20
537.2589478485335
 10
375.57496102415445
 20
537.0743854848
 10
375.0917056425123
 20
536.9256145152002
 10
374.6864562895958
 20
536.7410521514668
 10
374.33580279855016
 20
536.5922811818668
 10
373.9975305347832
 20
536.4077188181334
 10
373.6468770437377
 20
536.2589478485335
 10
373.2416276908211
 20
536.0743854848
 10
372.7583723091789
 20
535.9256145152002
 10
372.35312295626244
 20
535.7410521514668
 10
372.00246946521685
 20
535.5922811818668
 10
371.6641972014558
 20
535.4077188181334
 10
371.31354371088514
 20
535.2589478485335
 10
370.9082943808026
 20
535.0743854848
 10
370.4250397205682
 20
534.9256145152002
 10
370.01980602768805
 20
534.7410521514668
 10
369.6693893605542
 20
534.5922811818668
 10
369.3335865391701
 20
534.4077188181334
 10
369.0000156600422
 20
534.2589478485335
 10
368.66665100662453
 20
534.0743854848
 10
368.3330801274968
 20
533.9256145152002
 10
367.9972773061186
 20
533.7410521514668
 10
367.64686063945965
 20
533.5922811818668
 10
367.24162696941346
 20
533.4077188181334
 10
366.7583730305867
 20
533.2589478485335
 10
366.3531393605463
 20
533.0743854848
 10
366.00272269436243
 20
532.9256145152002
 10
365.66691989581227
 20
532.7410521514668
 10
365.3333497376173
 20
532.5922811818668
 10
365.0000007214078
 20
532.4077188181334
 10
364.666665945259
 20
532.2589478485335
 10
364.3333169290495
 20
532.0743854848
 10
363.99974677085453
 20
531.9256145152002
 10
363.6639439723044
 20
531.7410521514668
 10
363.3135273061204
 20
531.5922811818668
 10
362.90829363608003
 20
531.4077188181334
 10
362.42503969725334
 20
531.2589478485335
 10
362.01980602721295
 20
531.0743854848
 10
361.66938936102906
 20
530.9256145152002
 10
361.3335865624848
 20
530.7410521514668
 10
361.0000164047647
 20
530.5922811818668
 10
360.66666741138334
 20
530.4077188181334
 10
360.3333333561674
 20
530.2589478485335
 10
359.99999997716606
 20
530.0743854848
 10
359.6666659219501
 20
529.9256145152002
 10
359.33331692856865
 20
529.7410521514668
 10
358.9997467708486
 20
529.5922811818668
 10
358.6639439723044
 20
529.4077188181334
 10
358.3135273061204
 20
529.2589478485335
 10
357.90829363608003
 20
529.0743854848
 10
357.42503969725334
 20
528.9256145152002
 10
357.01980602721295
 20
528.7410521514668
 10
356.66938936102906
 20
528.5922811818668
 10
356.3335865624848
 20
528.4077188181334
 10
356.0000164047648
 20
528.2589478485335
 10
355.6666674113892
 20
528.0743854848
 10
355.33333335664815
 20
527.9256145152002
 10
355.00000000048084
 20
527.7410521514668
 10
354.6666666666726
 20
527.5922811818668
 10
354.33333333333337
 20
527.4077188181334
 10
354.0
 20
527.2589478485335
 10
353.6666666666667
 20
527.0743854848
 10
353.3333333333333
 20
526.9256145152002
 10
353.0
 20
526.7410521514668
 10
352.6666666666667
 20
526.5922811818668
 10
352.3333333333333
 20
526.4077188181334
 10
352.0
 20
526.2589478485335
 10
351.66666666666083
 20
526.0743854848
 10
351.3333333328525
 20
525.9256145152002
 10
350.9999999766852
 20
525.7410521514668
 10
350.6666659219442
 20
525.5922811818668
 10
350.33331692856865
 20
525.4077188181334
 10
349.9997467708486
 20
525.2589478485335
 10
349.6639439723044
 20
525.0743854848
 10
349.3135273061204
 20
524.9256145152002
 10
348.9082936360801
 20
524.7410521514668
 10
348.4250396972534
 20
524.5922811818668
 10
348.019806027213
 20
524.4077188181334
 10
347.6693893610291
 20
524.2589478485335
 10
347.3335865624848
 20
524.0743854848
 10
347.0000164047648
 20
523.9256145152002
 10
346.6666674113892
 20
523.7410521514668
 10
346.33333335664815
 20
523.5922811818668
 10
346.00000000048084
 20
523.4077188181334
 10
345.6666666666726
 20
523.2589478485335
 10
345.33333333333337
 20
523.0743854848
 10
345.0
 20
522.9256145152002
 10
344.6666666666667
 20
522.7410521514668
 10
344.3333333333333
 20
522.5922811818668
 10
344.0
 20
522.4077188181334
 10
343.6666666666667
 20
522.2589478485335
 10
343.3333333333333
 20
522.0743854848
 10
342.99999999999415
 20
521.9256145151943
 10
342.66666666618585
 20
521.741052150986
 10
342.33333331001853
 20
521.5922811585519
 10
341.9999992552775
 20
521.4077180734109
 10
341.666650261902
 20
521.2589314437688
 10
341.33308010418193
 20
521.0741322556487
 10
340.99727730563774
 20
520.9228918208378
 10
340.6468606394538
 20
520.721246124254
 10
340.2416269694134
 20
520.5005748179468
 10
339.7583730305867
 20
520.1660918487202
 10
339.3531393605463
 20
519.9454205424132
 10
339.0027226943625
 20
519.7437748458292
 10
338.6669198958182
 20
519.5925344110183
 10
338.3333497380981
 20
519.407735222898
 10
338.00000074472257
 20
519.2589485932559
 10
337.66666668998147
 20
519.0743855081149
 10
337.33333333381415
 20
518.925614515681
 10
337.0000000000059
 20
518.7410521514727
 10
336.66666666666674
 20
518.5922811818668
 10
336.3333333333333
 20
518.4077188181334
 10
336.0
 20
518.2589478485335
 10
335.6666666666667
 20
518.0743854848
 10
335.33333333332746
 20
517.9256145151943
 10
334.99999999951916
 20
517.741052150986
 10
334.6666666433519
 20
517.5922811585519
 10
334.3333325886108
 20
517.4077180734109
 10
333.99998359523534
 20
517.2589314437688
 10
333.66641343751525
 20
517.0741322556487
 10
333.33061063897105
 20
516.9228918208378
 10
332.9801939727871
 20
516.721246124254
 10
332.5749603027467
 20
516.5005748179468
 10
332.09170636392
 20
516.1660918487202
 10
331.6864726938797
 20
515.9454205424132
 10
331.33605602769575
 20
515.7437748458292
 10
331.0002532291456
 20
515.5925344110124
 10
330.66668307095057
 20
515.4077352224173
 10
330.3333340547411
 20
515.2589485699413
 10
329.9999992785923
 20
515.0743847633923
 10
329.66665026238286
 20
514.9255981109162
 10
329.33308010418784
 20
514.7407989223212
 10
328.99727730563774
 20
514.5895584875045
 10
328.6468606394538
 20
514.3879127909207
 10
328.24162696941346
 20
514.1672414846134
 10
327.75837303058665
 20
513.8327585153868
 10
327.58614773915343
 20
513.7389726756358
 10
327.3531393605405
 20
513.6120872090739
 10
327.00272269388165
 20
513.410441512015
 10
326.66691987250334
 20
513.2592010543701
 10
326.3333489933755
 20
513.0744011448423
 10
325.99998433995785
 20
512.9255988551579
 10
325.66641346083014
 20
512.7407989456301
 10
325.3306106394519
 20
512.5895584879853
 10
324.98019397279296
 20
512.3879127909265
 10
324.5749603027409
 20
512.1672414846078
 10
324.0917063634392
 20
511.832758514906
 10
324.03860906366424
 20
511.80384420713455
 10
323.68647267056485
 20
511.6120871857649
 10
323.33605528297323
 20
511.41044076777337
 10
323.00023682438683
 20
511.2591846729202
 10
322.66642984228
 20
511.0741486604134
 10
322.33061138369357
 20
510.92289256556035
 10
321.98019399610195
 20
510.7212461475687
 10
321.5749603032217
 20
510.50057481842174
 10
321.0917063634451
 20
510.1660918482452
 10
320.6864726705649
 20
509.9454205190983
 10
320.33605528297323
 20
509.7437741011067
 10
320.00023682438683
 20
509.59251800625356
 10
319.66642984227997
 20
509.4074819937467
 10
319.33061138368765
 20
509.2562258988877
 10
318.98019399562105
 20
509.0545794804211
 10
318.5749602799127
 20
508.8339081284462
 10
318.09170561920337
 20
508.4994244373368
 10
317.686456289115
 20
508.2787374709817
 10
317.3358027985443
 20
508.076854950011
 10
316.9975305347832
 20
507.9231450499833
 10
316.6468770437377
 20
507.72126252853775
 10
316.2416276908211
 20
507.50057553935454
 10
316.13973219960127
 20
507.4300487438648
 10
315.7583723091789
 20
507.1660911273124
 10
315.35312295626244
 20
506.9454041381293
 10
315.0024694652168
 20
506.74352161668355
 10
314.6641972014499
 20
506.58981171665
 10
314.3135437104043
 20
506.3879291952044
 10
313.90829435748776
 20
506.16724220602117
 10
313.4250389758456
 20
505.8327577939791
 10
313.0197896229232
 20
505.61207080479
 10
312.6691361314027
 20
505.41018828286946
 10
312.33086384480765
 20
505.2564783600078
 10
312.25983141683423
 20
505.21558263885737
 10
312.25983141683423
 20
505.2155826388574
 10
311.98020963282926
 20
505.0545951176294
 10
311.57494464269865
 20
504.83389249123206
 10
311.0914531576026
 20
504.499171975736
 10
310.6837499766833
 20
504.27603115855004
 10
310.31624925576614
 20
504.05730140723284
 10
309.908530460461
 20
503.83414497566093
 10
309.42480287238584
 20
503.49918835718586
 10
309.0170840542583
 20
503.2760319027917
 10
308.64958261240844
 20
503.05730143054177
 10
308.24186379427516
 20
502.83414497614183
 10
307.7581362057251
 20
502.4991883571918
 10
307.3504173875917
 20
502.2760319027918
 10
306.98291594574175
 20
502.0573014305418
 10
306.5751971276085
 20
501.83414497614183
 10
306.0914695390585
 20
501.4991883571918
 10
305.68375072092505
 20
501.2760319027918
 10
305.31624927907507
 20
501.05730143054177
 10
304.90853046094185
 20
500.83414497614183
 10
304.4248028723918
 20
500.4991883571918
 10
304.01708405425836
 20
500.2760319027918
 10
303.64958261240844
 20
500.0573014305418
 10
303.24186379427516
 20
499.83414497614183
 10
302.75813620572507
 20
499.49918835719177
 10
302.35041738758576
 20
499.2760319027859
 10
301.9829159452609
 20
499.057301430061
 10
301.57519710429955
 20
498.83414495283284
 10
301.09146879481676
 20
498.49918761295004
 10
300.68373433946925
 20
498.2760155213359
 10
300.3159967941653
 20
498.057048945632
 10
299.90582414802924
 20
497.83143866322933
 10
299.4052493296076
 20
497.47963481440775
 10
298.92808397993605
 20
497.18703182846946
 10
298.72681837159615
 20
497.0455823265396
 10
298.42750844105655
 20
496.83522725919
 10
298.0173201577123
 20
496.609601339579
 10
297.64934650895447
 20
496.39039866042117
 10
297.2391582256043
 20
496.1647727408044
 10
296.73858268624986
 20
495.81296817104993
 10
296.26141731374435
 20
495.52036516227764
 10
295.760841773915
 20
495.1685605920483
 10
295.3506534677367
 20
494.94293464960344
 10
294.98267909804605
 20
494.7237312495128
 10
294.5724751774877
 20
494.49808969268787
 10
294.1766759976782
 20
494.21986650906086
 10
294.0716635351543
 20
494.14604901995443
 10
293.59204435747995
 20
493.8509922060134
 10
293.4836276293296
 20
493.77374782898534
 10
293.48362762932965
 20
493.77374782898534
 10
293.0746223091868
 20
493.48234112732024
 10
292.5950031315066
 20
493.18728431337337
 10
292.0941914886983
 20
492.835243640165
 10
291.6839875453118
 20
492.60960206051186
 10
291.31601245468835
 20
492.3903979394884
 10
290.90580851130187
 20
492.1647563598352
 10
290.4049968684935
 20
491.812715686627
 10
289.9253776908133
 20
491.51765887268016
 10
289.40795564252016
 20
491.1490077939869
 10
288.9283364648399
 20
490.85395098004
 10
288.42752482203156
 20
490.50191030683163
 10
288.0173208786392
 20
490.2762687271725
 10
287.6493457875408
 20
490.0570646056742
 10
287.2391418213204
 20
489.8314230031871
 10
286.7383294571044
 20
489.47938160857115
 10
286.4475844390978
 20
489.30051459346873
 10
286.2586946193879
 20
489.184309134588
 10
285.7410357471829
 20
488.81542123198295
 10
285.2589471271257
 20
488.5178949756592
 10
284.74105287287443
 20
488.14877169100794
 10
284.2589642528173
 20
487.851245434684
 10
283.7413053806123
 20
487.482357532079
 10
283.2616705428958
 20
487.1872850580959
 10
282.7608581786797
 20
486.83524366347973
 10
282.3506542124534
 20
486.6096020609868
 10
281.98267912088
 20
486.39039793901344
 10
281.5724751546537
 20
486.1647563365205
 10
281.0716627904377
 20
485.8127149419045
 10
280.5920279527153
 20
485.51764246791544
 10
280.0743690800354
 20
485.14875456483543
 10
279.5922804371442
 20
484.8512282856776
 10
279.07438546148524
 20
484.4821042796187
 10
278.59228118138003
 20
484.1845623632467
 10
278.0743854843133
 20
483.81543763578014
 10
277.5922811585519
 20
483.517895673752
 10
277.07438474007756
 20
483.14877022487764
 10
276.59226477710206
 20
482.85121262563547
 10
276.07413225564864
 20
482.4818510737821
 10
275.5895584875044
 20
482.18183966937113
 10
275.0545794575871
 20
481.7956316090539
 10
274.5005748179409
 20
481.42618933314094
 10
273.83275851490595
 20
480.907143999706
 10
273.2787538524315
 20
480.53770170096493
 10
272.74377410110657
 20
480.15149291923996
 10
272.2591846729143
 20
479.851465854781
 10
271.74081532659926
 20
479.4818674780659
 10
271.25622587557876
 20
479.18184039077886
 10
270.721245402846
 20
478.79563088764615
 10
270.16722508032365
 20
478.42617292885706
 10
269.49917195242705
 20
477.90689077056044
 10
268.94269782473583
 20
477.53497900660267
 10
268.3906347405602
 20
477.13168689202706
 10
267.83414497566093
 20
476.759759490861
 10
267.16585502385254
 20
476.2402405086526
 10
266.6093652361191
 20
475.8683130846526
 10
266.05730143006093
 20
475.4650202481944
 10
265.50081161949953
 20
475.0930928013662
 10
265.32581835874134
 20
474.95705551907645
 10
265.3258183587412
 20
474.95705551907633
 10
264.8325209462834
 20
474.57357309775006
 10
264.276015521336
 20
474.201630036536
 10
263.7237156122987
 20
473.79810109709877
 10
263.16477199656265
 20
473.42371984509606
 10
262.4796348144077
 20
472.8873536325411
 10
261.8536984951302
 20
472.44597967699696
 10
261.64014812335665
 20
472.2787996720124
 10
261.1685605920424
 20
471.9096127435092
 10
260.60960131626416
 20
471.53521583146426
 10
260.05706458236523
 20
471.13145006716536
 10
259.49808966937303
 20
470.7570375179064
 10
258.81271494189855
 20
470.2204337600319
 10
258.3904362498119
 20
469.92217803631746
 10
258.18430913458207
 20
469.77659031644873
 10
257.48208789816874
 20
469.22314004963545
 10
256.85122828567756
 20
468.7768428008776
 10
256.14877094628537
 20
468.22315643108533
 10
255.51789569658592
 20
467.7768435451194
 10
254.81543763626084
 20
467.22315645439426
 10
254.18456236373336
 20
466.7768435456002
 10
253.48210430293338
 20
466.2231564544001
 10
252.85122903039414
 20
465.7768435455942
 10
252.14877096911917
 20
465.2231564539193
 10
251.51789567374598
 20
464.7768435222794
 10
250.81543689106334
 20
464.22315570919676
 10
250.18454593565386
 20
463.7768271175206
 10
249.48185032905937
 20
463.2229024805262
 10
248.84848993126707
 20
462.77410444646716
 10
248.1287117127548
 20
462.2030971975548
 10
247.46072645882262
 20
461.7099234210484
 10
247.42346661546367
 20
461.682414463997
 10
246.55400389443705
 20
460.96172271257046
 10
245.77931226560762
 20
460.3715934474743
 10
244.90961272019427
 20
459.650664871661
 10
244.20188249765
 20
459.12749701285003
 10
243.4647834004927
 20
458.5391688852927
 10
242.75703751790627
 20
458.0159853664396
 10
241.8871004266985
 20
457.2948192448318
 10
241.10992364978193
 20
456.7022048316486
 10
240.22314004963536
 20
455.96419220110204
 10
239.44350946754423
 20
455.36912398274427
 10
238.55648976441856
 20
454.63087524921855
 10
237.77684354511337
 20
454.03579139364666
 10
236.88982312058
 20
453.29754193871327
 10
236.11017685561268
 20
452.70245803747935
 10
235.22315570919667
 20
451.9642078606634
 10
234.44349378418133
 20
451.36910829938137
 10
233.55623581337855
 20
450.63062129817854
 10
232.7741044231464
 20
450.03305227167976
 10
231.86976311901805
 20
449.27748193715144
 10
231.01573136923903
 20
448.6080125511058
 10
229.9614687377347
 20
447.7025208892014
 10
229.03552096837245
 20
446.9611354835725
 10
227.96393745822309
 20
446.0383229430232
 10
227.0330350983968
 20
445.2919829469302
 10
225.9438946066234
 20
444.3516134247568
 10
225.87942317163098
 20
444.2989784013647
 10
225.87942317163103
 20
444.2989784013647
 10
224.9386067848311
 20
443.53088796669783
 10
223.68246163283106
 20
442.4235137842978
 10
222.53337309195084
 20
441.4589876071509
 10
221.1102232792492
 20
440.18460876404924
 10
220.46971143932592
 20
439.6407188193951
 10
220.2410700135771
 20
439.4465681969631
 10
219.88674925355141
 20
439.14569710208485
 10
218.44604173639274
 20
437.85376055452616
 10
217.21759739161055
 20
436.8098785734773
 10
216.18093116710173
 20
435.87897199247914
 10
215.75933000102313
 20
435.50038215248986
 10
214.4564528945313
 20
434.38206740973123
 10
212.83046099653677
 20
432.90484648132497
 10
211.37617142352605
 20
431.6351192710977
 10
209.5288533814131
 20
429.9365721529051
 10
207.7525313593109
 20
428.34481105077083
 10
205.21818716710985
 20
425.95920646240575
 10
203.99839614720213
 20
424.8166613969572
 10
202.31126470295646
 20
423.23637126944686
 10
201.06109482516388
 20
422.0272349649815
 10
201.06109482516385
 20
422.02723496498146
 10
197.9300895887408
 20
418.99899682864526
 10
194.71828022389076
 20
415.93710806928857
 10
191.3508974194275
 20
412.56972526482537
 10
188.1476774975298
 20
409.2165847374343
 10
188.014199678381
 20
409.07889217424224
 10
183.59361678056797
 20
404.5187233470584
 10
180.65265811524935
 20
401.39367741054525
 10
178.06612119099123
 20
398.65840088245125
 10
176.32809001874566
 20
396.7358087902376
 10
174.47914936911874
 20
394.73809721669045
 10
173.206937056484
 20
393.28132254127235
 10
171.86255267931293
 20
391.78816719451294
 10
170.81613822759334
 20
390.55719037906005
 10
169.54080774994947
 20
389.1330889318163
 10
168.5737493531358
 20
387.9814681712693
 10
167.44905284595023
 20
386.7080006944837
 10
166.55395747177405
 20
385.62834295657416
 10
165.84699753132807
 20
384.8264060436894
 10
165.44658256701626
 20
384.3721970822163
 10
164.55641057740144
 20
383.29746272886814
 10
163.46612044925968
 20
382.05840163112634
 10
162.64542628845692
 20
381.05314510659025
 10
161.6884470822064
 20
379.94739493073973
 10
160.87267623745132
 20
378.94706172225136
 10
159.81679032175515
 20
377.74240483695513
 10
159.07293547375514
 20
376.81398762522184
 10
158.28319775211796
 20
375.87547893398465
 10
157.61125890086717
 20
375.01897771900053
 10
156.72261446930935
 20
373.98156231784276
 10
156.05559891127226
 20
373.12998439607236
 10
155.30026468019796
 20
372.225879195398
 10
154.70271129091904
 20
371.44376344238583
 10
153.96422501112406
 20
370.55650619299075
 10
153.36912549551
 20
369.7768443136434
 10
152.63087604105152
 20
368.889823889585
 10
152.0358078226937
 20
368.11019330749383
 10
151.29779591307997
 20
367.22341042828003
 10
150.70519715993308
 20
366.44624931139975
 10
149.98426786271196
 20
365.57654904457866
 10
149.4635538090698
 20
364.8712726272032
 10
148.89230901436306
 20
364.1512568628965
 10
148.44104149225916
 20
363.5154269770593
 10
147.8700335219391
 20
362.7956480371392
 10
147.3518045935442
 20
362.092856745011
 10
146.64819617449322
 20
361.24047735636003
 10
146.1299828833124
 20
360.53770170144577
 10
145.55921173737914
 20
359.81815958591255
 10
145.11041370332015
 20
359.1847991881202
 10
144.7135865068162
 20
358.6814390625777
 10
144.55625296334668
 20
358.4818674785467
 10
144.10745492929354
 20
357.84850708076027
 10
143.53668378383526
 20
357.128964965702
 10
143.01847051549422
 20
356.42618933362763
 10
142.31486281832596
 20
355.5738106668594
 10
141.79664957281892
 20
354.871035057619
 10
141.22587914924324
 20
354.15149366444336
 10
140.77709679806628
 20
353.51814894953304
 10
140.22317360388726
 20
352.81545478575407
 10
139.77686069508727
 20
352.1845795132206
 10
139.2234097068663
 20
351.4823575553997
 10
138.77956624044916
 20
350.8539517252492
 10
138.24296248209973
 20
350.1685769972998
 10
137.86854993283487
 20
349.60960208430157
 10
137.46478416853589
 20
349.05706535040264
 10
137.09038725648517
 20
348.4981060746186
 10
136.5540203225225
 20
347.81296817105584
 10
136.11264634415022
 20
347.18703182895024
 10
135.5762794106625
 20
346.50189392586253
 10
135.20188252145155
 20
345.9429346729183
 10
134.79811747903523
 20
345.390398660902
 10
134.42372061265246
 20
344.83143943078585
 10
133.88735440057243
 20
344.1463022491058
 10
133.44599608224823
 20
343.52038156704833
 10
132.9098659731472
 20
342.83548048834723
 10
132.53793854914136
 20
342.27899070060806
 10
132.15125683910077
 20
341.74353802096743
 10
131.84876028659687
 20
341.25647910473015
 10
131.46231395907745
 20
340.7212618076108
 10
131.09284034025205
 20
340.16722582505207
 10
131.0491470304405
 20
340.11101468281106
 10
130.57355746102263
 20
339.49917197622267
 10
130.20164569706483
 20
338.94269784853145
 10
129.79835430342197
 20
338.3906354852886
 10
129.4264425622923
 20
337.8341613804257
 10
128.90716040447055
 20
337.166108253004
 10
128.53770244568736
 20
336.61208793048746
 10
128.15149294255468
 20
336.0771074577548
 10
127.85146585526756
 20
335.59251800673434
 10
127.48186747855253
 20
335.0741486604194
 10
127.18184041409354
 20
334.58955923222703
 10
126.79563163236854
 20
334.05457948090196
 10
126.42618933362755
 20
333.5005748184276
 10
125.90714400019257
 20
332.8327585153927
 10
125.5377017242797
 20
332.2787538757464
 10
125.1514936639624
 20
331.7437748458291
 10
124.85148225955145
 20
331.25920107768485
 10
124.48212070769807
 20
330.7410685562315
 10
124.18456310845588
 20
330.258948593256
 10
123.8154376595815
 20
329.74105217478154
 10
123.51789569754753
 20
329.25894784901425
 10
123.1487709696059
 20
328.7410521514727
 10
122.85122903040005
 20
328.25894784853347
 10
122.48210430293335
 20
327.74105215146676
 10
122.18456236373335
 20
327.2589478485334
 10
121.81543763626668
 20
326.74105215146676
 10
121.51789569706669
 20
326.2589478485334
 10
121.37651669073279
 20
326.06058785369265
 10
121.14877096960005
 20
325.7410521514668
 10
120.85122903040592
 20
325.2589478485393
 10
120.48210430341418
 20
324.7410521519476
 10
120.18456238704817
 20
324.2589478718482
 10
119.81543838098922
 20
323.7410528961893
 10
119.51791210183143
 20
323.25896425329813
 10
119.14902419875145
 20
322.7413053806182
 10
118.85395172476238
 20
322.26167054289584
 10
118.50191033014634
 20
321.76085817867977
 10
118.27626872765926
 20
321.35065421245923
 10
118.23742352111107
 20
321.2854452724056
 10
117.27746862607724
 20
321.9615217883348
 10
110.68126017044652
 20
326.6070959232198
 10
108.63923641010688
 20
328.0452513162254
 10
104.55114748636183
 20
330.92440837940893
 10
104.67884848579448
 20
331.1092336346456
 10
105.28578863064448
 20
331.9676854337956
 10
105.93844058769447
 20
332.8688257364456
 10
106.55922692689447
 20
333.7411237300456
 10
107.16107448169447
 20
334.5914596304455
 10
107.78186082094449
 20
335.46375762399555
 10
108.43451278179448
 20
336.3648979224456
 10
109.04145305534448
 20
337.2233495610956
 10
109.59695008634448
 20
338.0273286976956
 10
110.12339594634449
 20
338.8051970204956
 10
110.67925173819448
 20
339.6086534523456
 10
111.28855527114449
 20
340.4631741811956
 10
111.95202174574447
 20
341.3430913485956
 10
112.60747839489449
 20
342.1330597828456
 10
113.29057674234448
 20
342.7573157943956
 10
114.07510030384448
 20
343.1977107536957
 10
115.05439024444448
 20
343.5233223370956
 10
116.16484220764447
 20
343.8084015948956
 10
117.13805864549448
 20
344.1297539560956
 10
117.89184812439449
 20
344.5523541247456
 10
118.46690176684447
 20
345.13362000874565
 10
118.85828208669447
 20
345.8883265383456
 10
119.06812493559448
 20
346.86194607184564
 10
119.07118355529448
 20
347.97428600474564
 10
118.87692203664446
 20
348.9609002900956
 10
118.53797140919447
 20
349.7619709895456
 10
118.08633422894448
 20
350.4595305770956
 10
117.5259085768945
 20
351.1076926851456
 10
116.7588333462945
 20
351.80179744424555
 10
115.8074580236945
 20
352.5724690291456
 10
114.88295095019448
 20
353.26341464954567
 10
114.08816222559449
 20
353.81051610474566
 10
113.41723432479448
 20
354.2114452328456
 10
112.77050583684448
 20
354.5152537640956
 10
111.95763099694449
 20
354.7489785679456
 10
110.79734073949447
 20
354.8952184496456
 10
109.40582432464447
 20
354.8775379477456
 10
108.21695103464448
 20
354.6629745533956
 10
107.36384941894447
 20
354.25910371409566
 10
106.75320624399447
 20
353.6251543500456
 10
106.32462428629448
 20
352.67366954614556
 10
106.00284065669449
 20
351.26363775904554
 10
105.72073198319448
 20
349.5638473358456
 10
105.41026396464447
 20
348.1330300463956
 10
105.02233959964448
 20
347.09838768759556
 10
104.5223277528945
 20
346.2321965913456
 10
103.93140008964448
 20
345.3656407790956
 10
103.28482148704448
 20
344.46709764049564
 10
102.67875350779447
 20
343.6091647089456
 10
102.12334778474447
 20
342.80524577629564
 10
101.59694680954448
 20
342.0273319906956
 10
101.04145290654448
 20
341.22334971009565
 10
100.43451277774447
 20
340.36489792649564
 10
99.78186082089448
 20
339.46375762404557
 10
99.16107448169447
 20
338.59145963044557
 10
98.55922692689447
 20
337.74112373004556
 10
97.93844058769447
 20
336.8688257363956
 10
97.32107180013453
 20
336.0164021857185
 10
90.01178796370957
 20
341.16418066534544
 10
84.2499288011202
 20
345.22213972995416
 10
84.34567304160221
 20
345.35476555043454
 10
84.3456730416022
 20
345.35476555043454
 10
84.51517300318514
 20
345.58955848798524
 10
84.81518443043007
 20
346.0741322789635
  0
LWPOLYLINE
  5
30
330
17
100
AcDbEntity
  8
default
100
AcDbPolyline
 90
31
 70
0
 10
208.00045076970864
 20
438.7253556763331
 10
207.3748502843406
 20
437.6816043235324
 10
206.64995671348697
 20
436.70419848934625
 10
205.8327511785022
 20
435.80255112626224
 10
204.93110381541823
 20
434.9853455912775
 10
203.9536979812321
 20
434.2604520204239
 10
202.90994662843138
 20
433.6348515350559
 10
201.80990165311613
 20
433.1145690098355
 10
200.66415708974435
 20
432.70461504989606
 10
200.4916057618429
 20
432.6613931922931
 10
202.12442402908096
 20
429.9137196267167
 10
204.32544927559445
 20
431.9855676193249
 10
204.41574013616355
 20
432.0684952926376
 10
206.16821034123956
 20
433.6388827957931
 10
207.99195232666656
 20
435.31575251884897
 10
208.08772249871478
 20
435.40156370436733
 10
209.50482458730502
 20
436.638822854777
 10
211.09427732607773
 20
438.08284779323066
 10
211.19987309121572
 20
438.1761006178934
 10
212.46029107491657
 20
439.2579708926779
 10
213.87692557626593
 20
440.53008176983127
 10
213.97988779409735
 20
440.6200277256984
 10
215.1575485563212
 20
441.62075588623355
 10
215.34655930776208
 20
441.7902489268124
 10
213.18176819430664
 20
444.32556895166636
 10
209.43610596635426
 20
443.99011436756
 10
209.40491770252427
 20
443.3552626728889
 10
209.22636456878908
 20
442.1515552199755
 10
208.93068725486842
 20
440.9711452150201
 10
208.520733294929
 20
439.82540065164835
 10
208.00045076970864
 20
438.7253556763331
  0
LWPOLYLINE
  5
31
330
17
100
AcDbEntity
  8
default
100
AcDbPolyline
 90
14
 70
0
 10
188.29650300507583
 20
435.80255112626224
 10
187.47929747009107
 20
436.70419848934625
 10
186.75440389923745
 20
437.6816043235324
 10
186.1288034138694
 20
438.7253556763331
 10
185.60852088864905
 20
439.82540065164835
 10
185.2875888622993
 20
440.72234557799186
 10
179.4022541604936
 20
438.6771694011986
 10
179.26416324358433
 20
438.3567501618527
 10
185.1711839530617
 20
431.93580172676593
 10
191.81554566663564
 20
433.35285191027765
 10
191.21930755514666
 20
433.6348515350559
 10
190.17555620234594
 20
434.2604520204239
 10
189.19815036815982
 20
434.9853455912775
 10
188.29650300507583
 20
435.80255112626224
  0
LWPOLYLINE
  5
32
330
17
100
AcDbEntity
  8
default
100
AcDbPolyline
 90
20
 70
0
 10
185.60852088864905
 20
449.31594977430257
 10
186.1288034138694
 20
450.4159947496178
 10
186.75440389923745
 20
451.45974610241853
 10
187.47929747009107
 20
452.43715193660466
 10
188.29650300507583
 20
453.3387992996887
 10
188.4007381154401
 20
453.43327249687974
 10
187.4946784723898
 20
454.4439596955174
 10
186.7046057136504
 20
453.71331691644
 10
186.64329190428793
 20
453.65755082071433
 10
184.9330057415136
 20
452.12772048712065
 10
182.75709043817648
 20
450.09801039747896
 10
182.7118649810419
 20
450.0563409084307
 10
180.69545023253588
 20
448.22126997345634
 10
178.46378457089617
 20
446.10994815689253
 10
179.30431683175266
 20
442.8777718320489
 10
184.6731149523434
 20
444.7434495836961
 10
184.72433648105377
 20
445.786087753062
 10
184.90288961478896
 20
446.98979520597544
 10
185.19856692870962
 20
448.1702052109308
 10
185.60852088864905
 20
449.31594977430257
  0
LWPOLYLINE
  5
33
330
17
100
AcDbEntity
  8
default
100
AcDbPolyline
 90
21
 70
0
 10
195.84921455170246
 20
456.9109658237107
 10
197.06462709178902
 20
456.97067521297544
 10
198.28003963187555
 20
456.9109658237107
 10
199.45278481196203
 20
456.7370055092917
 10
202.12173121143132
 20
463.071044487413
 10
199.28849044465485
 20
464.860663267358
 10
198.3445641738785
 20
464.02850933045846
 10
198.23015727657642
 20
463.93067061928
 10
197.2093671550914
 20
463.08397899078204
 10
195.97827891675848
 20
461.99478101096616
 10
195.9021833693689
 20
461.9288101849098
 10
194.73757748313216
 20
460.9395257324453
 10
193.20614685835557
 20
459.5512865194192
 10
193.12071391093846
 20
459.47560001005604
 10
191.79311745616894
 20
458.32623601611823
 10
190.46788555674934
 20
457.11979597960203
 10
191.7072733006657
 20
455.73728950036707
 10
192.3193525304619
 20
456.0267814161154
 10
193.4650970938337
 20
456.43673537605486
 10
194.64550709878904
 20
456.7324126899755
 10
195.84921455170246
 20
456.9109658237107
  0
LWPOLYLINE
  5
34
330
17
100
AcDbEntity
  8
default
100
AcDbPolyline
 90
15
 70
0
 10
206.64995671348694
 20
452.43715193660466
 10
207.3748502843406
 20
451.45974610241853
 10
208.0004507697086
 20
450.4159947496178
 10
208.52073329492896
 20
449.31594977430257
 10
208.93068725486842
 20
448.1702052109308
 10
208.98197512976742
 20
447.96545253694
 10
212.63123465096578
 20
448.29227347299457
 10
215.39788719685748
 20
455.205883378163
 10
208.51562992483377
 20
462.68691675085574
 10
206.06699604401365
 20
462.13282757950947
 10
203.20130440246004
 20
455.3318657616934
 10
203.9536979812321
 20
454.88089840552703
 10
204.93110381541823
 20
454.1560048346734
 10
205.8327511785022
 20
453.3387992996887
 10
206.64995671348694
 20
452.43715193660466
  0
LWPOLYLINE
  5
35
330
17
100
AcDbEntity
  8
default
100
AcDbPolyline
 90
66
 70
0
 10
99.2263522192838
 20
347.3875132278123
 10
99.83604847501127
 20
348.23480137655565
 10
100.28576001082892
 20
348.89427320269317
 10
100.48557463696653
 20
349.2404203013787
 10
100.60099709526568
 20
349.54826630252677
 10
100.80834882480703
 20
350.5038637293107
 10
101.07031233068273
 20
352.08227340027526
 10
101.12816590495055
 20
352.3760882364647
 10
101.44994953455054
 20
353.7861200235647
 10
101.58444498578136
 20
354.2644870086431
 10
101.76575899813146
 20
354.72714155335245
 10
102.19434095583145
 20
355.6786263572525
 10
102.45876626965692
 20
356.18597166231365
 10
102.77941782806464
 20
356.6597886979402
 10
103.15209740426451
 20
357.09387387235046
 10
103.76274057921451
 20
357.7278232364005
 10
104.09093791583486
 20
358.03905745624814
 10
104.44591817215742
 20
358.3193595236505
 10
104.82477647046345
 20
358.5664356681354
 10
105.22441253401998
 20
358.7782640139107
 10
105.91234382637525
 20
359.1039407953293
 10
106.01345383562148
 20
361.72230341332033
 10
101.01186994972876
 20
360.30123675166334
 10
100.8983352151797
 20
360.15718315473316
 10
100.53026716993814
 20
359.636062249467
 10
100.38313463322902
 20
359.43828083770404
 10
99.96073118130906
 20
358.898767935501
 10
99.68941232673534
 20
358.49370556932575
 10
99.5722107736689
 20
358.32623857523464
 10
99.22876710700375
 20
357.8562501348157
 10
98.91126739264412
 20
357.3822360479234
 10
98.69409903048131
 20
357.08261832872523
 10
98.23485332418394
 20
356.4959926056057
 10
97.86557725536954
 20
355.9723022056435
 10
97.71635857837184
 20
355.77154466446916
 10
97.29413356980105
 20
355.2322078347215
 10
97.02279685739852
 20
354.8271076184193
 10
96.90578247421303
 20
354.65989235830256
 10
96.5639521450823
 20
354.1920375600729
 10
96.25013763352824
 20
353.7224981831585
 10
96.04077120566174
 20
353.43228341060615
 10
95.63292776344456
 20
352.9075957924422
 10
95.36420114862717
 20
352.5046327485491
 10
95.25810725718148
 20
352.3517817346868
 10
94.97356793347001
 20
351.95770256796413
 10
94.76293065106738
 20
351.618542407923
 10
94.56918147848069
 20
351.3295228999692
 10
94.23721494157056
 20
350.86975810409825
 10
93.91938988561026
 20
350.39316385076046
 10
93.70733570331714
 20
350.0988911957644
 10
93.2996564125013
 20
349.5743614663924
 10
93.03088515105865
 20
349.1713257828791
 10
92.9247738999537
 20
349.01844865495843
 10
92.64023492083129
 20
348.6243697609955
 10
92.42959735108843
 20
348.28520912858545
 10
92.2358481456213
 20
347.9961895674752
 10
92.20406775242958
 20
347.95217457085994
 10
94.303676456213
 20
344.8743152320385
 10
97.07409218992231
 20
344.2772401887817
 10
97.46953750222231
 20
344.84957954717703
 10
97.98233883479368
 20
345.60739582160505
 10
98.00962627510782
 20
345.6473040693559
 10
98.56503199815782
 20
346.4512230020059
 10
98.59496458963764
 20
346.4940681860033
 10
99.20103256888765
 20
347.3520011175533
 10
99.2263522192838
 20
347.3875132278123
  0
LWPOLYLINE
  5
36
330
17
100
AcDbEntity
  8
default
100
AcDbPolyline
 90
13
 70
0
 10
123.29693214542185
 20
343.5865042914813
 10
122.90555182557185
 20
342.8317977618813
 10
122.70688972862264
 20
342.4917041620159
 10
126.00921152252704
 20
345.5297106844373
 10
126.0089811924845
 20
345.5896893888712
 10
124.07043969594636
 20
347.69688954977624
 10
124.06810603334672
 20
346.8481975402746
 10
124.03925379186948
 20
346.3254035345665
 10
123.95588894191442
 20
345.8084931689956
 10
123.74604609301443
 20
344.83487363549557
 10
123.63350016522452
 20
344.4059998865985
 10
123.48340206030554
 20
343.9887831117023
 10
123.29693214542185
 20
343.5865042914813
  0
LWPOLYLINE
  5
37
330
17
100
AcDbEntity
  8
default
100
AcDbPolyline
 90
24
 70
0
 10
112.51716763791136
 20
333.478389767975
 10
112.48400544743394
 20
333.4320479175984
 10
111.84352987357589
 20
332.54771999950754
 10
111.53841739865646
 20
332.1189911714846
 10
116.88535867957114
 20
328.353250248885
 10
116.89388013646096
 20
328.3670574823961
 10
117.07712811230132
 20
328.64307290304805
 10
117.35005404826259
 20
329.02599812407647
 10
117.56054680313643
 20
329.36705748241036
 10
117.74379477896791
 20
329.64307290304794
 10
118.01672071492918
 20
330.02599812407635
 10
118.22721346980316
 20
330.3670574824105
 10
118.41046144563452
 20
330.6430729030479
 10
118.68338738160084
 20
331.0259981240834
 10
118.7779838173059
 20
331.17927180650224
 10
118.47964052390307
 20
336.0648865699768
 10
114.94100459589787
 20
336.9732532377158
 10
114.7709340527568
 20
336.73473697017147
 10
114.24985471873751
 20
335.98154783629826
 10
113.73777211408718
 20
335.2249024391545
 10
113.71055263536613
 20
335.18509822345845
 10
113.15505560436613
 20
334.3811190868584
 10
113.12410791146135
 20
334.33684140662496
 10
112.51716763791136
 20
333.478389767975
  0
LWPOLYLINE
  5
38
330
17
100
AcDbEntity
  8
default
100
AcDbPolyline
 90
67
 70
0
 10
348.5371710746066
 20
558.5749333863428
 10
348.4254867565533
 20
558.524069093572
 10
348.30709961719066
 20
558.4719902242147
 10
348.18938412572743
 20
558.422013789344
 10
348.07511665205766
 20
558.3592135677804
 10
347.7023052731062
 20
558.1740904056696
 10
347.5587602061695
 20
558.1101152945911
 10
347.4054913366118
 20
558.0258803035459
 10
346.9512409939016
 20
557.8053250045547
 10
346.66038581249313
 20
557.6818413850668
 10
346.3140399712019
 20
557.5240993012741
 10
345.71275582612225
 20
557.2957057624964
 10
345.5375043359678
 20
557.2417541400303
 10
345.4255523385451
 20
557.1907659679408
 10
345.30710228077317
 20
557.1386583378882
 10
345.1893857952608
 20
557.0886813781034
 10
345.0751167773376
 20
557.0258803035639
 10
344.7023052750414
 20
556.8407570734131
 10
344.55876020734195
 20
556.7767819619036
 10
344.405491336644
 20
556.6925469702303
 10
343.9512409939008
 20
556.471991671221
 10
343.6603858125022
 20
556.3485080517374
 10
343.31403997123203
 20
556.190765967952
 10
342.7127558274498
 20
555.96237242957
 10
342.53750438806213
 20
555.9084208226794
 10
342.42555245854345
 20
555.8574326786444
 10
342.30710571015305
 20
555.805326450616
 10
342.1894335116104
 20
555.7553681902425
 10
342.0752192850326
 20
555.6925943054292
 10
341.70352337238944
 20
555.5079595098989
 10
341.56668457484903
 20
555.4469300799852
 10
341.42177684735736
 20
555.3667040799132
 10
341.03658783984554
 20
555.1746261765663
 10
340.89269964733495
 20
555.1104527512069
 10
340.73891005198175
 20
555.0259276387629
 10
340.2845769890644
 20
554.805326450616
 10
339.99372085547145
 20
554.6818421728238
 10
339.64737340077426
 20
554.5240993453222
 10
339.04608916162186
 20
554.2957057633095
 10
338.870837722047
 20
554.2417541563084
 10
338.7588857919322
 20
554.1907660120003
 10
338.64043904573606
 20
554.1386597849021
 10
338.52276691271487
 20
554.0887015522784
 10
338.40855276744946
 20
554.025927707887
 10
338.03686040281474
 20
553.8412944817205
 10
337.90006595137305
 20
553.7802846980038
 10
337.75521366376796
 20
553.70008562399
 10
337.37114424758016
 20
553.5084978697837
 10
337.23400559456854
 20
553.4472912512012
 10
337.08863305927485
 20
553.3668003660216
 10
336.70447681336367
 20
553.1751645364508
 10
336.56729276008144
 20
553.1139376551853
 10
336.5033559943175
 20
553.0785383563929
 10
336.6716385334058
 20
552.7599999331154
 10
337.6216244051883
 20
553.3293995519856
 10
338.72166938050356
 20
553.8496820772059
 10
339.8674139438753
 20
554.2596360371454
 10
341.0478239488307
 20
554.555313351066
 10
342.2515314017441
 20
554.7338664848012
 10
343.46694394183066
 20
554.7935758740659
 10
344.6823564819172
 20
554.7338664848012
 10
345.88606393483064
 20
554.555313351066
 10
347.06647393978596
 20
554.2596360371454
 10
347.9158350730379
 20
553.9557297642057
 10
349.0899973530154
 20
558.7717591944798
 10
348.71235080377204
 20
558.628836501189
 10
348.5371710746066
 20
558.5749333863428
  0
LWPOLYLINE
  5
39
330
17
100
AcDbEntity
  8
default
100
AcDbPolyline
 90
70
 70
0
 10
332.7552136638064
 20
551.3667522906748
 10
332.37114425000823
 20
551.1751645375315
 10
332.2340056626068
 20
551.1139579481444
 10
332.0886332095707
 20
551.0334671029959
 10
331.70448051437563
 20
550.8418328445193
 10
331.5673408027694
 20
550.7806256210076
 10
331.4219666693717
 20
550.7001338399523
 10
331.037813849648
 20
550.508499512266
 10
330.90067413727525
 20
550.447292288325
 10
330.7553000027372
 20
550.3668005066369
 10
330.37114718298284
 20
550.1751661789334
 10
330.23400747060856
 20
550.1139589549916
 10
330.08863333607087
 20
550.0334671733037
 10
329.7044805163159
 20
549.8418328455999
 10
329.5673408039255
 20
549.780625621651
 10
329.4219666693658
 20
549.7001338399523
 10
329.03781384722095
 20
549.5084995111854
 10
328.90067406923794
 20
549.447292258049
 10
328.7552998524417
 20
549.3668004363293
 10
328.3711434819709
 20
549.1751645375315
 10
328.23395942792143
 20
549.1139376558364
 10
328.08852984765286
 20
549.0334189573416
 10
327.70325743556555
 20
548.8412944817206
 10
327.55936812199104
 20
548.7771204175841
 10
327.405576843936
 20
548.6925943745539
 10
326.95124365749285
 20
548.4719931182348
 10
326.6603875232518
 20
548.3485088400001
 10
326.31404006746567
 20
548.1907660120003
 10
325.7127558282897
 20
547.9623724299765
 10
325.5375043887133
 20
547.9084208229749
 10
325.4255524585986
 20
547.8574326786669
 10
325.307105712403
 20
547.8053264515688
 10
325.1894335793816
 20
547.755368218945
 10
325.07521943411615
 20
547.6925943745537
 10
324.7035270694804
 20
547.5079611483867
 10
324.56673261805673
 20
547.4469513646781
 10
324.4218803304731
 20
547.3667522906748
 10
324.03781091667463
 20
547.1751645375314
 10
323.9006723292734
 20
547.1139579481444
 10
323.7552998762373
 20
547.0334671029959
 10
323.37114718104255
 20
546.8418328445194
 10
323.2340074694361
 20
546.7806256210076
 10
323.0886333360384
 20
546.7001338399523
 10
322.7044805163144
 20
546.5084995122659
 10
322.56734080394136
 20
546.4472922883248
 10
322.4219666694042
 20
546.3668005066371
 10
322.0378138496495
 20
546.1751661789334
 10
321.9006741372757
 20
546.1139589549919
 10
321.7553000027372
 20
546.0334671733035
 10
321.37114718298284
 20
545.8418328456
 10
321.2462390000217
 20
545.7860847111297
 10
319.36964970082045
 20
544.5075694313273
 10
319.1242474303581
 20
543.4868945577182
 10
328.39753284631297
 20
533.6095254216343
 10
328.427208640147
 20
533.6125375488773
 10
332.52986443758897
 20
536.5509115590936
 10
332.0108377386907
 20
537.6483013127388
 10
331.60088377875127
 20
538.7940458761107
 10
331.30520646483063
 20
539.974455881066
 10
331.12665333109544
 20
541.1781633339795
 10
331.0669439418307
 20
542.393575874066
 10
331.12665333109544
 20
543.6089884141525
 10
331.30520646483063
 20
544.8126958670659
 10
331.60088377875127
 20
545.9931058720213
 10
332.0108377386907
 20
547.1388504353931
 10
332.5311202639111
 20
548.2388954107083
 10
333.1567207492791
 20
549.282646763509
 10
333.6403341778983
 20
549.9347239864682
 10
332.8547000554585
 20
551.4218340337354
 10
332.7552136638064
 20
551.3667522906748
  0
LWPOLYLINE
  5
3A
330
17
100
AcDbEntity
  8
default
100
AcDbPolyline
 90
54
 70
0
 10
349.9621861503505
 20
530.8248338210668
 10
350.0993258627243
 20
530.8860410450084
 10
350.2446999972628
 20
530.9665328266967
 10
350.62885281701716
 20
531.1581671544002
 10
350.76599252939144
 20
531.219374378342
 10
350.91136666392913
 20
531.2998661600299
 10
351.2955194836854
 20
531.4915004877342
 10
351.43265919605864
 20
531.5527077116755
 10
351.5780333305958
 20
531.6331994933631
 10
351.96218615035076
 20
531.8248338210669
 10
352.09932586274203
 20
531.8860410450162
 10
352.24469999730127
 20
531.9665328267147
 10
352.6288528194442
 20
532.1581671554808
 10
352.76599259742824
 20
532.2193744086178
 10
352.911366814225
 20
532.2998662303377
 10
353.29552318469706
 20
532.491502129136
 10
353.43270723874633
 20
532.5527290108311
 10
353.57813681901456
 20
532.6332477093256
 10
353.96340923110097
 20
532.8253721849461
 10
354.10729854467513
 20
532.8895462490825
 10
354.2610898227311
 20
532.9740722921132
 10
354.7154230091724
 20
533.1946735484314
 10
355.0062791434132
 20
533.318157826666
 10
355.3526265992011
 20
533.4759006546667
 10
355.9539108383781
 20
533.7042942366907
 10
356.12916227795336
 20
533.758245843692
 10
356.24111420806815
 20
533.809233988
 10
356.35956095426434
 20
533.8613402150983
 10
356.47723308728575
 20
533.9112984477221
 10
356.59144723255037
 20
533.974072292113
 10
356.9631395971848
 20
534.1587055182795
 10
357.0999340486267
 20
534.2197153019963
 10
357.24478633623244
 20
534.2999143760104
 10
357.6288557524202
 20
534.4915021302166
 10
357.76599440543157
 20
534.552708748799
 10
357.91136694072526
 20
534.6331996339786
 10
358.29552318663616
 20
534.8248354635493
 10
358.4327072399186
 20
534.886062344815
 10
358.57813681904673
 20
534.9665810426768
 10
358.9634092311012
 20
535.1587055182796
 10
359.0044069897424
 20
535.1769903563063
 10
355.57577556794746
 20
539.7632438848694
 10
355.33300410491006
 20
538.7940458761107
 10
354.9230501449706
 20
537.6483013127388
 10
354.40276761975025
 20
536.5482563374236
 10
353.77716713438224
 20
535.5045049846229
 10
353.0522735635286
 20
534.5270991504368
 10
352.2350680285439
 20
533.6254517873527
 10
351.33342066545987
 20
532.808246252368
 10
350.35601483127374
 20
532.0833526815144
 10
349.312263478473
 20
531.4577521961463
 10
349.3027012852835
 20
531.4532296155874
 10
349.8240125383701
 20
530.7559060249494
 10
349.9621861503505
 20
530.8248338210668
  0
LWPOLYLINE
  5
3B
330
17
100
AcDbEntity
  8
default
100
AcDbPolyline
 90
5
 70
0
 10
112.73377212323248
 20
365.92794227972627
 10
127.58637570496649
 20
349.78311963239685
 10
132.6404588483274
 20
359.0594732691534
 10
120.09322606958449
 20
372.6983512486331
 10
112.73377212323248
 20
365.92794227972627
  0
LWPOLYLINE
  5
3C
330
17
100
AcDbEntity
  8
default
100
AcDbPolyline
 90
7
 70
0
 10
135.64898407598957
 20
361.6972603253089
 10
141.4589160340838
 20
363.82381068821996
 10
142.3855300634168
 20
369.14477203041315
 10
134.5156796462834
 20
377.69932198151946
 10
126.77604920882732
 20
378.8462864141911
 10
123.03700764849782
 20
375.4065148360096
 10
135.64898407598957
 20
361.6972603253089
  0
LWPOLYLINE
  5
3D
330
17
100
AcDbEntity
  8
default
100
AcDbPolyline
 90
20
 70
0
 10
113.01031630318738
 20
375.7431736241136
 10
112.87888846269693
 20
375.5783117086947
 10
112.20810087381389
 20
374.77234796854344
 10
111.67701680978966
 20
374.076546442868
 10
111.5456554053413
 20
373.91176237702444
 10
110.87581607774761
 20
373.10689467441705
 10
110.34782264964977
 20
372.41446427565086
 10
110.22117041225931
 20
372.2551966257259
 10
109.58874133807541
 20
371.492302215183
 10
109.1482240071862
 20
370.89637985522586
 10
109.03547328447576
 20
370.7496152881445
 10
108.6929005941708
 20
370.3203812095446
 10
110.02560853585601
 20
368.8717238586396
 10
117.38506248220801
 20
375.64213282754645
 10
114.99123461588658
 20
378.2442305768747
 10
114.87389069639335
 20
378.10377452418965
 10
114.34247848971579
 20
377.40822853718606
 10
114.21238966508713
 20
377.2451292001838
 10
113.54140011067949
 20
376.4389661572549
 10
113.01031630318738
 20
375.7431736241136
  0
LWPOLYLINE
  5
3E
330
17
100
AcDbEntity
  8
default
100
AcDbPolyline
 90
6
 70
0
 10
144.83576201321557
 20
372.38942547887564
 10
151.99914261465892
 20
377.1924777915701
 10
152.21883163880557
 20
379.13416413683444
 10
146.33162331627682
 20
385.53357645124197
 10
138.44428688380867
 20
379.336977256462
 10
144.83576201321557
 20
372.38942547887564
  0
LWPOLYLINE
  5
3F
330
17
100
AcDbEntity
  8
default
100
AcDbPolyline
 90
6
 70
0
 10
134.95010844431818
 20
381.6786265759729
 10
144.05225179018453
 20
388.8296254728921
 10
136.38559736777097
 20
396.2490332252346
 10
128.66536540165544
 20
388.2546697179787
 10
128.25535029591992
 20
382.6707475236617
 10
134.95010844431818
 20
381.6786265759729
  0
LWPOLYLINE
  5
40
330
17
100
AcDbEntity
  8
default
100
AcDbPolyline
 90
9
 70
0
 10
148.88124780450016
 20
388.6701899250038
 10
154.62036881782115
 20
382.4317489406094
 10
160.73819176292298
 20
386.52712926634825
 10
160.75337811820998
 20
386.54438781209393
 10
161.59590769416275
 20
387.5616018893197
 10
161.69592849779616
 20
387.67864442839357
 10
162.52070109596247
 20
388.6142216136979
 10
156.03738135192543
 20
395.66160875046626
 10
148.88124780450016
 20
388.6701899250038
  0
LWPOLYLINE
  5
41
330
17
100
AcDbEntity
  8
default
100
AcDbPolyline
 90
18
 70
0
 10
120.88624394975686
 20
385.4358985603474
 10
120.19975975030282
 20
384.5790865787226
 10
120.09061023679148
 20
384.44752867433294
 10
119.25704254740941
 20
383.4770785119377
 10
118.65366937539007
 20
382.7079798618484
 10
118.55106903692948
 20
382.581496150697
 10
117.83136877057605
 20
381.7232209819467
 10
117.55280387554575
 20
381.36786005030524
 10
120.32884406112134
 20
378.3502964149229
 10
124.18803105922416
 20
381.90059708291665
 10
124.66572674782947
 20
388.4062490030192
 10
124.01417848905055
 20
389.1144838270757
 10
123.74396745230725
 20
388.7833239643595
 10
123.62681658569468
 20
388.64494816296593
 10
122.61413047001732
 20
387.4918495467435
 10
121.85611069833871
 20
386.56232989431226
 10
121.76594384882965
 20
386.454876431729
 10
120.88624394975686
 20
385.4358985603474
  0
LWPOLYLINE
  5
42
330
17
100
AcDbEntity
  8
default
100
AcDbPolyline
 90
14
 70
0
 10
168.1467558695552
 20
395.1337395025933
 10
169.46580386781443
 20
396.59875472047133
 10
170.71310889955436
 20
398.0270087663681
 10
170.80962056808897
 20
398.1343537409261
 10
171.8006433069022
 20
399.2051169346366
 10
167.11763104330748
 20
404.29556468268856
 10
158.09504166990519
 20
399.7372475513257
 10
158.1015719450079
 20
399.32589025981724
 10
165.14331567925922
 20
391.6714946455436
 10
165.71178724137434
 20
392.3484585754049
 10
165.81607598646193
 20
392.4687108063799
 10
167.04836095766535
 20
393.8447453650063
 10
168.05298461744175
 20
395.02656049705837
 10
168.1467558695552
 20
395.1337395025933
  0
LWPOLYLINE
  5
43
330
17
100
AcDbEntity
  8
default
100
AcDbPolyline
 90
14
 70
0
 10
128.24905915096784
 20
394.1240653518953
 10
127.40659396005884
 20
393.10741224463493
 10
127.31031418373831
 20
392.99467057145426
 10
126.61092750604095
 20
392.19987280372914
 10
126.75906706042588
 20
392.03884468367323
 10
133.7178795435466
 20
399.2447520722635
 10
133.20307009847406
 20
399.8043514139626
 10
132.6246003400271
 20
399.1610085010055
 10
131.62602832223692
 20
397.98588775214614
 10
131.54064710105695
 20
397.88801607927496
 10
130.31864530115766
 20
396.52343745421757
 10
129.40279372813023
 20
395.4327906316968
 10
129.32146313148544
 20
395.33835310352066
 10
128.24905915096784
 20
394.1240653518953
  0
LWPOLYLINE
  5
44
330
17
100
AcDbEntity
  8
default
100
AcDbPolyline
 90
7
 70
0
 10
139.16831439221278
 20
399.12244373746216
 10
146.5469574430026
 20
391.98175909975544
 10
154.10050354944542
 20
399.3614431284368
 10
154.08773700986058
 20
400.1656372831203
 10
148.25429717777297
 20
406.52244340023026
 10
147.64333659084514
 20
406.53143305517733
 10
139.16831439221278
 20
399.12244373746216
  0
LWPOLYLINE
  5
45
330
17
100
AcDbEntity
  8
default
100
AcDbPolyline
 90
10
 70
0
 10
184.14811059227213
 20
412.374453230761
 10
180.3853281904012
 20
415.60046377405524
 10
170.9413219136186
 20
415.994165008422
 10
169.68276999518275
 20
407.4153138906695
 10
174.5067809805464
 20
402.1716001280304
 10
177.01561199139636
 20
404.8247022401916
 10
179.95246502436086
 20
407.9453855551364
 10
180.0035644302044
 20
407.99888485504175
 10
184.1437478213852
 20
412.26980017904293
 10
184.14811059227213
 20
412.374453230761
  0
LWPOLYLINE
  5
46
330
17
100
AcDbEntity
  8
default
100
AcDbPolyline
 90
11
 70
0
 10
135.87431770327805
 20
402.8087602119895
 10
136.51319218985736
 20
402.1143018146977
 10
144.04430779116228
 20
408.698114072904
 10
142.64578560020718
 20
410.218311701372
 10
141.81156033359918
 20
409.3374478609644
 10
140.044493225268
 20
407.38950988301696
 10
140.00741039896084
 20
407.349079345735
 10
138.14804246752695
 20
405.34404799318975
 10
136.7682797431199
 20
403.78475300990243
 10
136.708827411748
 20
403.7187555086991
 10
135.87431770327805
 20
402.8087602119895
  0
LWPOLYLINE
  5
47
330
17
100
AcDbEntity
  8
default
100
AcDbPolyline
 90
7
 70
0
 10
156.52514181425795
 20
403.4256134778261
 10
165.73743343586102
 20
408.0797703927383
 10
167.09802291262895
 20
417.35415500728413
 10
165.98063838249072
 20
418.45445841550827
 10
157.41928844712675
 20
417.20558023126796
 10
151.68537595495582
 20
408.6995948860422
 10
156.52514181425795
 20
403.4256134778261
  0
LWPOLYLINE
  5
48
330
17
100
AcDbEntity
  8
default
100
AcDbPolyline
 90
8
 70
0
 10
152.34026751078068
 20
420.3586011810407
 10
151.60766906898314
 20
419.6062529234996
 10
147.1718576634247
 20
415.0277104521596
 10
145.39787215094802
 20
413.13484833375395
 10
147.7945607821457
 20
410.52964092511684
 10
148.09209923446178
 20
410.5252629532479
 10
153.71410339744762
 20
418.865237636026
 10
152.34026751078068
 20
420.3586011810407
  0
LWPOLYLINE
  5
49
330
17
100
AcDbEntity
  8
default
100
AcDbPolyline
 90
7
 70
0
 10
179.64998253947124
 20
419.6345930858515
 10
182.2522050011903
 20
429.20067761233076
 10
176.4128097947687
 20
435.5481169321574
 10
169.16776921553537
 20
432.3411584193818
 10
168.71081280196086
 20
421.3798027955927
 10
170.0778791019693
 20
420.0336344279349
 10
179.64998253947124
 20
419.6345930858515
  0
LWPOLYLINE
  5
4A
330
17
100
AcDbEntity
  8
default
100
AcDbPolyline
 90
7
 70
0
 10
164.74639791576192
 20
422.3167492575012
 10
165.17894774349406
 20
432.69264583522454
 10
164.81518842690286
 20
432.96294846043514
 10
157.14120101273974
 20
425.28896104627205
 10
155.13505007596177
 20
423.2287271233797
 10
157.0119799845852
 20
421.18849893519655
 10
164.74639791576192
 20
422.3167492575012
  0
LWPOLYLINE
  5
4B
330
17
100
AcDbEntity
  8
default
100
AcDbPolyline
 90
6
 70
0
 10
168.20258504665256
 20
436.28827422921273
 10
175.3877308173105
 20
439.46872079046443
 10
175.80563613539562
 20
440.4384073363617
 10
175.1389456458258
 20
443.0020938436005
 10
171.35371408914853
 20
439.35245535912964
 10
168.20258504665256
 20
436.28827422921273
  0
LWPOLYLINE
  5
4C
330
17
100
AcDbEntity
  8
default
100
AcDbPolyline
 90
15
 70
0
 10
194.4669840740248
 20
422.6055498890326
 10
198.83520506793488
 20
426.8303953948213
 10
198.89316597662616
 20
426.8855631110824
 10
198.93746249102878
 20
426.9270544510917
 10
199.07350204093382
 20
427.217809189111
 10
197.17851208150387
 20
430.40665997751057
 10
186.0818424699828
 20
428.0400612899102
 10
183.42280869558454
 20
418.26513150846586
 10
186.61866958625615
 20
415.52516947267577
 10
187.5737438150779
 20
415.85422257507093
 10
187.73546353350451
 20
416.0235112768012
 10
187.8153635134948
 20
416.10525917075813
 10
191.18274631795805
 20
419.47264197522134
 10
191.26821880905746
 20
419.55609635800664
 10
194.4669840740248
 20
422.6055498890326
  0
LWPOLYLINE
  5
4D
330
17
100
AcDbEntity
  8
default
100
AcDbPolyline
 90
24
 70
0
 10
222.72844864165134
 20
448.1811897274363
 10
223.76543695625534
 20
449.0765307906592
 10
223.90542695646582
 20
449.19301708040393
 10
224.76777790843607
 20
449.8843967931424
 10
225.77278333116976
 20
450.7498744704626
 10
225.9104339655922
 20
450.8641895730073
 10
226.76909307392003
 20
451.5516984718765
 10
227.7579641414869
 20
452.40102621965275
 10
227.93105718890428
 20
452.5430837323141
 10
228.7237576544374
 20
453.16447596289083
 10
229.56829574314503
 20
453.8700811622705
 10
229.73855766530363
 20
454.0061437482192
 10
230.43778805887268
 20
454.5403742250952
 10
230.90610499051434
 20
454.9301661208475
 10
227.25832596607506
 20
457.5890720579773
 10
219.27390508446842
 20
454.12542131962255
 10
216.33807407971472
 20
446.7890500272624
 10
218.35395369566436
 20
444.4281294160388
 10
219.19789561647784
 20
445.1838486798102
 10
219.31879671267063
 20
445.28867410891235
 10
220.42147092134783
 20
446.2142408527241
 10
221.63215958239184
 20
447.2815421626324
 10
221.77653396883477
 20
447.4040385584431
 10
222.72844864165134
 20
448.1811897274363
  0
LWPOLYLINE
  5
4E
330
17
100
AcDbEntity
  8
default
100
AcDbPolyline
 90
24
 70
0
 10
237.91149274262156
 20
460.5453857709385
 10
238.07815497795593
 20
460.6781800227853
 10
238.77440890061268
 20
461.2090889769086
 10
239.56600089035453
 20
461.8653080655158
 10
239.7848360784331
 20
462.03668413695124
 10
240.41808438608717
 20
462.5047971787332
 10
241.0827770895537
 20
463.0353329169259
 10
241.2296960604606
 20
463.14820687338306
 10
241.82567391720957
 20
463.58876522355945
 10
242.58838220839635
 20
464.2210044894372
 10
242.74945995342742
 20
464.34902917497215
 10
243.4423502720768
 20
464.87684545608346
 10
243.64797025202046
 20
465.04728246262806
 10
237.77801164379343
 20
472.02567036962137
 10
229.56918665301055
 20
464.6918039987795
 10
229.52402209071442
 20
460.88742767786607
 10
234.1455731748059
 20
457.5187286599796
 10
234.57831094017072
 20
457.87888769417293
 10
234.74318479682026
 20
458.0103246491252
 10
235.4390082449118
 20
458.54142874484785
 10
236.24497717229772
 20
459.21222054102446
 10
236.40986264363576
 20
459.3436663397698
 10
237.10571674837928
 20
459.8747905309682
 10
237.91149274262156
 20
460.5453857709385
  0
LWPOLYLINE
  5
4F
330
17
100
AcDbEntity
  8
default
100
AcDbPolyline
 90
7
 70
0
 10
211.5907911946997
 20
465.2522702375427
 10
218.23177805449814
 20
458.03349849395454
 10
225.5274315448478
 20
461.1983611653559
 10
225.5705031468533
 20
464.8264397867024
 10
217.31470271432772
 20
473.8005185103975
 10
215.5579754463397
 20
473.56860992638394
 10
211.5907911946997
 20
465.2522702375427
  0
LWPOLYLINE
  5
50
330
17
100
AcDbEntity
  8
default
100
AcDbPolyline
 90
20
 70
0
 10
206.88598821278322
 20
471.24291637411477
 10
206.7532468180387
 20
471.1328229482708
 10
205.8971274887675
 20
470.4473447112155
 10
204.89334253047684
 20
469.58291805786945
 10
204.75820511515508
 20
469.4706165615002
 10
203.89834505925262
 20
468.7812367632199
 10
202.8783487784473
 20
467.90059710378443
 10
202.77183032044212
 20
467.8111868307002
 10
202.48194864032996
 20
467.5746568687781
 10
204.99022536864504
 20
465.9903018819168
 10
207.8160810326226
 20
466.6297506922856
 10
211.7417815825902
 20
474.8591288155876
 10
211.50057496264841
 20
475.0577011886645
 10
210.56729367503874
 20
474.2582880364372
 10
210.3992830102136
 20
474.1205898031814
 10
209.6101122218649
 20
473.50196446588865
 10
208.75183764270542
 20
472.7822648023547
 10
208.6253446358307
 20
472.6796571865851
 10
207.85623081847712
 20
472.076275141268
 10
206.88598821278322
 20
471.24291637411477
  0
LWPOLYLINE
  5
51
330
17
100
AcDbEntity
  8
default
100
AcDbPolyline
 90
20
 70
0
 10
248.63020955184788
 20
468.8586652799505
 10
249.1553337209963
 20
469.230164543159
 10
249.75605644311193
 20
469.7036624432437
 10
249.96354293730045
 20
469.858665323643
 10
250.48866706885536
 20
470.23016455469565
 10
251.08938977679762
 20
470.7036624435227
 10
251.29687627065476
 20
470.85866532365964
 10
251.82200040237066
 20
471.23016455482326
 10
252.42272310999707
 20
471.70366244331535
 10
252.53175652261007
 20
471.7851159034712
 10
254.39027873426676
 20
473.6208928739652
 10
249.4640365554951
 20
480.6999337291345
 10
247.80507245240733
 20
480.71088394802064
 10
240.7566662672907
 20
474.69849791005254
 10
246.81945209383454
 20
467.4908710566081
 10
247.08919995321372
 20
467.7035093365182
 10
247.29684005962358
 20
467.8586349000528
 10
247.82198986057557
 20
468.23015610996737
 10
248.4227225596703
 20
468.70366200470295
 10
248.63020955184788
 20
468.8586652799505
  0
LWPOLYLINE
  5
52
330
17
100
AcDbEntity
  8
default
100
AcDbPolyline
 90
6
 70
0
 10
220.74306381959468
 20
475.98194276401773
 10
227.7171811517328
 20
468.40105724241585
 10
235.17529180739075
 20
475.06422608625144
 10
227.8486432028003
 20
483.02831411128864
 10
226.74579699942842
 20
483.1573170037009
 10
220.74306381959468
 20
475.98194276401773
  0
LWPOLYLINE
  5
53
330
17
100
AcDbEntity
  8
default
100
AcDbPolyline
 90
37
 70
0
 10
260.38226183196485
 20
477.5779510837141
 10
260.8564030307964
 20
477.89553155274024
 10
261.3262892098092
 20
478.2388462416812
 10
261.4976581577595
 20
478.3586398224591
 10
261.9052196558902
 20
478.6310354981384
 10
262.43207266488224
 20
479.0406035649252
 10
262.7224809950581
 20
479.2501204583936
 10
263.1921761255463
 20
479.5640390735321
 10
263.6599421720553
 20
479.9057508351533
 10
263.8310346507721
 20
480.0253407678086
 10
264.23856677583973
 20
480.297713014011
 10
264.76540661233133
 20
480.7072707140786
 10
265.0558144294169
 20
480.91678720015125
 10
265.5255099518081
 20
481.2307060644343
 10
265.99327568832274
 20
481.57241743476925
 10
266.1643940585661
 20
481.6920246141089
 10
266.5719988316026
 20
481.9644416099656
 10
267.09868090519257
 20
482.3738351035206
 10
267.39314672506316
 20
482.5860394265797
 10
267.8699082511716
 20
482.9039760312574
 10
268.3295963003935
 20
483.235830934632
 10
268.6241791952276
 20
483.4329967361104
 10
268.9704997737146
 20
483.64741649744076
 10
269.35645535316667
 20
483.92260359456304
 10
269.62713804770004
 20
484.10262223424985
 10
269.6656309537388
 20
484.12645460229055
 10
266.07655636547133
 20
487.95560296066105
 10
256.39937100280076
 20
487.31670741178095
 10
252.97289608838037
 20
482.6605223119259
 10
257.8250160162865
 20
475.68799559606964
 10
257.8270646228966
 20
475.68942930095074
 10
258.2321941881323
 20
475.96078942462196
 10
258.77154408256416
 20
476.38302478432047
 10
258.9723021818347
 20
476.53224389822975
 10
259.49599287142473
 20
476.9015201712742
 10
260.0826181417326
 20
477.3607653890486
 10
260.38226183196485
 20
477.5779510837141
  0
LWPOLYLINE
  5
54
330
17
100
AcDbEntity
  8
default
100
AcDbPolyline
 90
5
 70
0
 10
238.15320579055697
 20
477.73528765235096
 10
244.3447008030489
 20
483.01671684207395
 10
238.84812210779637
 20
490.3245758530684
 10
231.74764601700008
 20
484.6981494789943
 10
238.15320579055697
 20
477.73528765235096
  0
LWPOLYLINE
  5
55
330
17
100
AcDbEntity
  8
default
100
AcDbPolyline
 90
18
 70
0
 10
218.22643865891678
 20
480.4575172555861
 10
217.4215709563093
 20
479.78767792799226
 10
217.2567868904654
 20
479.65631652354364
 10
216.56098536479018
 20
479.1252324595196
 10
215.75502162463843
 20
478.4544448706363
 10
215.59015970922005
 20
478.3230170301463
 10
214.8943671760782
 20
477.7919332226537
 10
214.6847337237394
 20
477.6174500855172
 10
214.82020989852026
 20
477.5059198732488
 10
217.04898236878216
 20
477.80014395480976
 10
221.26665529364817
 20
482.8417442974524
 10
221.24709497716717
 20
482.82730268075517
 10
220.58371804518876
 20
482.29786004885756
 10
220.43695347810774
 20
482.18510932614737
 10
219.84103111815097
 20
481.74459199525836
 10
219.07813670760768
 20
481.1121629210742
 10
218.91886905768268
 20
480.9855106836837
 10
218.22643865891678
 20
480.4575172555861
  0
LWPOLYLINE
  5
56
330
17
100
AcDbEntity
  8
default
100
AcDbPolyline
 90
7
 70
0
 10
249.50718933250755
 20
484.69973602937534
 10
253.0195785467513
 20
489.47266877628863
 10
248.30987826967612
 20
499.3738299519755
 10
241.60924992756918
 20
494.95934817474335
 10
241.34960027504712
 20
493.653286928311
 10
248.07687895791605
 20
484.7091769883409
 10
249.50718933250755
 20
484.69973602937534
  0
LWPOLYLINE
  5
57
330
17
100
AcDbEntity
  8
default
100
AcDbPolyline
 90
30
 70
0
 10
235.91042081434725
 20
493.9628514603567
 10
235.7030875692499
 20
493.80797096239786
 10
235.1779890701712
 20
493.4364936783483
 10
234.5772763397596
 20
492.96300378460273
 10
234.36979034390026
 20
492.8080012993202
 10
233.84466624994818
 20
492.4365021004315
 10
233.2439435561829
 20
491.9630042228649
 10
233.03645706267298
 20
491.80800134300165
 10
232.5113329311369
 20
491.4365021119652
 10
231.91061022320224
 20
490.96300422314414
 10
231.70312372936021
 20
490.8080013430179
 10
231.17799959798563
 20
490.43650211209285
 10
230.577276889735
 20
489.9630042229367
 10
230.3697904243431
 20
489.8080013629095
 10
229.8446665290011
 20
489.43650229340693
 10
229.2439433386063
 20
488.96300389364734
 10
229.03647607211263
 20
488.80801457344074
 10
228.5114159429274
 20
488.43655680805557
 10
227.91052986303774
 20
487.9628872577699
 10
227.70597104531666
 20
487.80994336323175
 10
227.18308510604513
 20
487.43943109296595
 10
227.03582405201792
 20
487.3226174155877
 10
227.14101096708328
 20
487.13836001139134
 10
228.2263147314079
 20
487.0114091052674
 10
237.39530232269317
 20
494.2769266483374
 10
237.58459529257954
 20
495.2290874158596
 10
237.22838524836436
 20
494.9501982404742
 10
237.03060436481212
 20
494.8030661195481
 10
236.50948349710836
 20
494.4349981063983
 10
235.91042081434725
 20
493.9628514603567
  0
LWPOLYLINE
  5
58
330
17
100
AcDbEntity
  8
default
100
AcDbPolyline
 90
19
 70
0
 10
274.96627577175354
 20
487.77278647241013
 10
275.30733518201606
 20
487.9832792655154
 10
275.69026042979965
 20
488.25620522054606
 10
275.96627590628987
 20
488.4394532308482
 10
276.3073357778273
 20
488.6499462962752
 10
276.69026076596214
 20
488.9228719130193
 10
276.6914927964238
 20
488.92368985578725
 10
279.4319163081236
 20
491.69557744218037
 10
277.91395769361407
 20
503.76510703610256
 10
276.79656988196075
 20
504.5461638853885
 10
268.6235802313313
 20
501.6355070085265
 10
268.87080272566527
 20
490.82355781970546
 10
272.9755971222848
 20
486.44419307335846
 10
273.3040199243148
 20
486.6475276171472
 10
273.6898895468937
 20
486.92260280873916
 10
273.96622113179745
 20
487.1060798119241
 10
274.30731554708893
 20
487.31659844447074
 10
274.69025932657553
 20
487.5895377610102
 10
274.96627577175354
 20
487.77278647241013
  0
LWPOLYLINE
  5
59
330
17
100
AcDbEntity
  8
default
100
AcDbPolyline
 90
5
 70
0
 10
251.94070138735697
 20
501.0528205130249
 10
256.56262401118875
 20
491.33619352057576
 10
264.8455314631574
 20
491.8830377222039
 10
264.6167223597877
 20
501.88970159739256
 10
251.94070138735697
 20
501.0528205130249
  0
LWPOLYLINE
  5
5A
330
17
100
AcDbEntity
  8
default
100
AcDbPolyline
 90
38
 70
0
 10
284.8293068364015
 20
494.2123698580874
 10
285.1642470799933
 20
494.39661101498757
 10
285.4584249445195
 20
494.5718538559234
 10
285.60748597793196
 20
494.65721562839525
 10
285.77693769422547
 20
494.7504262217021
 10
286.052958368833
 20
494.9444522702248
 10
286.30845120565033
 20
495.1126128859303
 10
286.6442073787077
 20
495.3191666504492
 10
287.0240670684187
 20
495.58980777373716
 10
287.30549243162426
 20
495.7763207785708
 10
287.6547922484501
 20
495.9912064542507
 10
288.0304304152956
 20
496.2552576500205
 10
288.49597361061666
 20
496.5457032610701
 10
288.83091378929424
 20
496.72994437387416
 10
289.125091612846
 20
496.90518719024794
 10
289.27415264462707
 20
496.990548961747
 10
289.4436043609028
 20
497.0837595550429
 10
289.71962503549946
 20
497.277785603558
 10
289.9751178723171
 20
497.44594621926376
 10
290.31087404537476
 20
497.65249998378283
 10
290.6907337350856
 20
497.92314110707065
 10
290.97215909830504
 20
498.10965411191273
 10
291.3214589155196
 20
498.32453978783013
 10
291.69709708225207
 20
498.5885909834148
 10
292.16264036101626
 20
498.87903664024634
 10
292.49758175494617
 20
499.06327841313964
 10
292.7917600466033
 20
499.23852127534855
 10
292.9408762553781
 20
499.32391328305937
 10
293.11048770667577
 20
499.41720883286433
 10
293.11419776809953
 20
499.41981626463206
 10
288.90404233243316
 20
503.49316996568814
 10
282.0366912409663
 20
503.03978193178773
 10
283.2745431684453
 20
493.19742501401953
 10
283.3570287375784
 20
493.2562048982763
 10
283.6387705447619
 20
493.44294716137483
 10
283.98810556779057
 20
493.6578588846033
 10
284.3637625538228
 20
493.9219234698837
 10
284.8293068364015
 20
494.2123698580874
  0
LWPOLYLINE
  5
5B
330
17
100
AcDbEntity
  8
default
100
AcDbPolyline
 90
33
 70
0
 10
259.3097395689968
 20
510.07712811178806
 10
259.0337241490561
 20
509.89388013645475
 10
258.6926647907361
 20
509.6833873815911
 10
258.3097395697148
 20
509.4104614456349
 10
258.03372414907756
 20
509.2272134698036
 10
257.69266479074366
 20
509.0167207149297
 10
257.3097395697146
 20
508.743794778968
 10
257.03372414907756
 20
508.56054680313684
 10
256.69266479074287
 20
508.35005404826245
 10
256.309739569714
 20
508.07712811230095
 10
256.03372414907756
 20
507.8938801364702
 10
255.69266479074295
 20
507.6833873815959
 10
255.3097395697143
 20
507.4104614456345
 10
255.03372414907707
 20
507.22721346980325
 10
254.69266479074315
 20
507.01672071492936
 10
254.30973956971442
 20
506.7437947789679
 10
254.0337241490772
 20
506.5605468031367
 10
253.6926647907435
 20
506.35005404826296
 10
253.30973956971462
 20
506.07712811230135
 10
253.0337241490772
 20
505.89388013647
 10
252.6926647907435
 20
505.6833873815963
 10
252.30973956971462
 20
505.41046144563467
 10
252.03372414907756
 20
505.22721346980353
 10
251.74425166247755
 20
505.04855875860517
 10
262.70186605490744
 20
505.7719892603345
 10
261.4033091426485
 20
511.47713514283174
 10
261.3093682958902
 20
511.41019213498794
 10
261.0336694268246
 20
511.22717341674365
 10
260.69264512716535
 20
511.0167065400058
 10
260.30973846600074
 20
510.74379398561024
 10
260.033724069894
 20
510.5605467453413
 10
259.6926647631295
 20
510.3500540284787
 10
259.3097395689968
 20
510.07712811178806
  0
LWPOLYLINE
  5
5C
330
17
100
AcDbEntity
  8
default
100
AcDbPolyline
 90
30
 70
0
 10
270.0591236370927
 20
517.0094199806396
 10
269.88951225299
 20
516.9161244720426
 10
269.6135771553781
 20
516.7221972409584
 10
269.3523462402768
 20
516.5505463144477
 10
269.00848036102354
 20
516.3396840082512
 10
268.63583624381505
 20
516.0777896624993
 10
268.1706189862952
 20
515.7875819586044
 10
267.83572256258594
 20
515.6033706583709
 10
267.54157252035213
 20
515.428144624272
 10
267.3925139982512
 20
515.3427843477978
 10
267.2230629103778
 20
515.249574100168
 10
266.9470420568679
 20
515.0555478079319
 10
266.69158680894384
 20
514.8874102141086
 10
266.35598020831407
 20
514.6809442545975
 10
265.97603462569026
 20
514.4101921089615
 10
265.7002985175955
 20
514.2271505117158
 10
265.35912422286316
 20
514.0165953068746
 10
264.9878278801682
 20
513.7520066761626
 10
266.91751678008586
 20
505.27401346713305
 10
275.15960329491645
 20
508.20927789621055
 10
275.60442411340773
 20
518.0911856610328
 10
275.2957965345122
 20
518.4561446341686
 10
272.2686284366172
 20
518.3812316116174
 10
272.01901290692877
 20
518.2172129811054
 10
271.675147027287
 20
518.0063506746723
 10
271.30250291019064
 20
517.7444563291042
 10
270.837285569199
 20
517.4542485794132
 10
270.50238792939587
 20
517.27003661865
 10
270.2082374187438
 20
517.0948105386623
 10
270.0591236370927
 20
517.0094199806396
  0
LWPOLYLINE
  5
5D
330
17
100
AcDbEntity
  8
default
100
AcDbPolyline
 90
6
 70
0
 10
280.357201567851
 20
506.93760868906975
 10
288.1505055888556
 20
507.4521288787946
 10
291.2951821065508
 20
517.6815129835159
 10
279.5551441665739
 20
516.9064262509346
 10
279.14456637296826
 20
507.7852436956018
 10
280.357201567851
 20
506.93760868906975
  0
LWPOLYLINE
  5
5E
330
17
100
AcDbEntity
  8
default
100
AcDbPolyline
 90
55
 70
0
 10
289.4749501641541
 20
528.7214361146722
 10
289.371479884747
 20
528.6634877851255
 10
289.20087613954934
 20
528.5705819566521
 10
288.93731265612627
 20
528.3881569281114
 10
288.4829751501883
 20
528.1083163839003
 10
288.12980457210784
 20
527.9159899779881
 10
287.830542585634
 20
527.7436952028185
 10
287.40425742167315
 20
527.524768014107
 10
287.2843794462177
 20
527.4702958223338
 10
287.1416168308208
 20
527.388102781339
 10
287.0381465514144
 20
527.3301544517927
 10
286.86754280621665
 20
527.2372486233191
 10
286.6039793227929
 20
527.054823594778
 10
286.14964181687674
 20
526.7749830505788
 10
285.79647123972563
 20
526.5826566451706
 10
285.49720925369047
 20
526.4103618700814
 10
285.0709242267812
 20
526.1914347434188
 10
284.95104765037655
 20
526.1369631829562
 10
284.80828559201143
 20
526.0547703381341
 10
284.7048719877745
 20
525.9968527842956
 10
284.53444480897747
 20
525.9040401138553
 10
284.2708113314362
 20
525.7215270061279
 10
283.82532328835555
 20
525.4464566221263
 10
283.49677955453683
 20
525.2666407151709
 10
283.2068233806713
 20
525.0940640692144
 10
283.0501778976915
 20
525.0046180779935
 10
282.87260614547387
 20
524.9074278600563
 10
282.60457837633993
 20
524.7218323360056
 10
282.1587315998278
 20
524.4465050747522
 10
281.8301436286177
 20
524.2666592512296
 10
281.5401592568536
 20
524.0940655921088
 10
281.3835113398733
 20
524.0046181481208
 10
281.20593951993277
 20
523.9074278886162
 10
280.93791171051873
 20
523.7218323365927
 10
280.49206493320975
 20
523.4465050747814
 10
280.1634769628155
 20
523.2666592517012
 10
279.87349259136676
 20
523.0940655926163
 10
279.71684475826436
 20
523.0046181944576
 10
279.5392735514452
 20
522.9074282660317
 10
279.2712455731558
 20
522.7218324742163
 10
278.8254561132103
 20
522.4465363995693
 10
278.49724359658666
 20
522.2668903753786
 10
278.34735053656016
 20
522.1776376719358
 10
278.26392959756777
 20
521.1409155479632
 10
278.51304260175675
 20
520.8463338832371
 10
293.37572390632704
 20
521.8275800379924
 10
295.5787233635783
 20
523.3541028560139
 10
291.45457610775435
 20
529.8487971881997
 10
291.2706459894596
 20
529.7214902614447
 10
290.8163084835216
 20
529.4416497172336
 10
290.46313790544116
 20
529.2493233113215
 10
290.16387591896734
 20
529.0770285361518
 10
289.7375907550078
 20
528.858101347441
 10
289.6177127795514
 20
528.8036291556673
 10
289.4749501641541
 20
528.7214361146722
  0
LWPOLYLINE
  5
5F
330
17
100
AcDbEntity
  8
default
100
AcDbPolyline
 90
32
 70
0
 10
305.84126840014454
 20
507.22016159189684
 10
306.1698563713719
 20
507.40000741543105
 10
306.4598407431455
 20
507.57260107455755
 10
306.6164886601497
 20
507.6620485185587
 10
306.7940604805221
 20
507.75923877829854
 10
307.06208828984086
 20
507.944834330175
 10
307.50793515186825
 20
508.2201616382333
 10
307.8365243430549
 20
508.400008121159
 10
308.1265091851113
 20
508.57260182990177
 10
308.28321317926367
 20
508.662079845493
 10
308.4609615479021
 20
508.75936364922006
 10
308.72891980219833
 20
508.9448707941735
 10
309.18361562108623
 20
509.22496815789896
 10
309.53683054325126
 20
509.4173249192847
 10
309.8361212189583
 20
509.58963647283616
 10
310.2624090827631
 20
509.8085652327921
 10
310.3822871527102
 20
509.86303747191596
 10
310.5250498339698
 20
509.9452305509121
 10
310.628520115224
 20
510.0031788815228
 10
310.7991238604403
 20
510.0960847100076
 10
311.06268734387413
 20
510.2785097385557
 10
311.51702484981126
 20
510.55835028276636
 10
311.87019542789244
 20
510.7506766886789
 10
311.94097703056434
 20
510.7914279396553
 10
311.867735105101
 20
512.0722183678299
 10
304.7051899060607
 20
514.6222520815209
 10
304.56579031581833
 20
506.43726621137756
 10
304.79317407647915
 20
506.5726010745578
 10
304.9498219934609
 20
506.66204851854667
 10
305.12739381340236
 20
506.7592387780518
 10
305.39542162281583
 20
506.9448343300748
 10
305.84126840014454
 20
507.22016159189684
  0
LWPOLYLINE
  5
60
330
17
100
AcDbEntity
  8
default
100
AcDbPolyline
 90
21
 70
0
 10
298.12566655901213
 20
502.57209387613665
 10
298.2830803544071
 20
502.66200006804894
 10
298.4606981890406
 20
502.75921859629267
 10
298.72875365929457
 20
502.94483342490025
 10
299.1746016246294
 20
503.22016152176957
 10
299.50318966146546
 20
503.40000738954143
 10
299.79317407481295
 20
503.57260107356376
 10
299.94982199343355
 20
503.66204851852905
 10
300.1273938133918
 20
503.75923877804445
 10
300.3954216228157
 20
503.94483433007474
 10
300.5241148120718
 20
504.02430724591665
 10
300.74165035784245
 20
516.7971236105077
 10
298.1683315606788
 20
520.282059959136
 10
295.7680789111182
 20
518.6188546302728
 10
291.9293736307882
 20
506.1318498281762
 10
296.5926311267089
 20
501.62011683596614
 10
296.6581869214878
 20
501.660316362841
 10
297.03083085096165
 20
501.92221041704505
 10
297.49610471389946
 20
502.2124490773664
 10
297.83137716395726
 20
502.39686145311094
 10
298.12566655901213
 20
502.57209387613665
  0
LWPOLYLINE
  5
61
330
17
100
AcDbEntity
  8
default
100
AcDbPolyline
 90
7
 70
0
 10
313.55740697076544
 20
515.7165998956189
 10
319.8202371271327
 20
519.5652952888049
 10
320.5108825294301
 20
523.8394825733267
 10
305.07955758972093
 20
524.8315846566111
 10
301.6507824510336
 20
522.2997359703295
 10
303.9990282622166
 20
519.1196064078249
 10
313.55740697076544
 20
515.7165998956189
  0
LWPOLYLINE
  5
62
330
17
100
AcDbEntity
  8
default
100
AcDbPolyline
 90
44
 70
0
 10
325.1324873078846
 20
518.096105573575
 10
325.39602251064383
 20
518.2785107854779
 10
325.8504171553933
 20
518.5583820682584
 10
326.2040147623115
 20
518.7509347893046
 10
326.503470853277
 20
518.9232554517793
 10
326.9439956275713
 20
519.1485095017749
 10
327.0910908500166
 20
519.2147589359611
 10
327.2436229643386
 20
519.2992623313305
 10
327.6287372337172
 20
519.4914398172826
 10
327.765940830218
 20
519.5526791275503
 10
327.9113609177785
 20
519.633196633761
 10
328.2954210260767
 20
519.8247902763082
 10
328.4320734007425
 20
519.8857835547964
 10
328.5772259311002
 20
519.9661986314261
 10
328.9469715510782
 20
520.1514854252823
 10
329.0569326350539
 20
520.2010102125241
 10
329.19266624151686
 20
520.2791175066867
 10
329.2952628798624
 20
520.3365611260597
 10
329.46582064122856
 20
520.4294389069156
 10
329.72935584397663
 20
520.611844118811
 10
330.18375048872775
 20
520.8917154015924
 10
330.53734809564276
 20
521.0842681226366
 10
330.8368041866103
 20
521.2565887851125
 10
331.27732896094005
 20
521.4818428351241
 10
331.42442418446944
 20
521.5480922697972
 10
331.57695629931555
 20
521.6325956653601
 10
331.9620707109637
 20
521.8247732145838
 10
332.0992759003513
 20
521.8860132306153
 10
332.24469674016154
 20
521.9665310128744
 10
332.62885264928894
 20
522.1581670666317
 10
332.76599245849354
 20
522.2193743389917
 10
332.9113666617952
 20
522.2998661588457
 10
333.29551948364184
 20
522.4915004877115
 10
333.4326591960405
 20
522.5527077116654
 10
333.4680123273681
 20
522.5722822841151
 10
328.4114088481292
 20
529.3361663818359
 10
324.72485051723197
 20
524.8425751640461
 10
323.75807859236374
 20
518.8595276353881
 10
324.55759483856997
 20
517.7900676222774
 10
324.6136380528246
 20
517.8181520048605
 10
324.7235992327795
 20
517.8676768394384
 10
324.85933290630487
 20
517.9457841722698
 10
324.9619295465002
 20
518.0032277927079
 10
325.1324873078846
 20
518.096105573575
  0
LWPOLYLINE
  5
63
330
17
100
AcDbEntity
  8
default
100
AcDbPolyline
 90
52
 70
0
 10
339.09109085113613
 20
525.5480922697972
 10
339.24362296598224
 20
525.6325956653601
 10
339.6287373776304
 20
525.8247732145838
 10
339.76594256701713
 20
525.8860132306149
 10
339.91136340682783
 20
525.9665310128743
 10
340.29551931595586
 20
526.1581670666318
 10
340.4326591251603
 20
526.2193743389917
 10
340.5780333284619
 20
526.2998661588457
 10
340.96218615030824
 20
526.4915004877114
 10
341.0993258627066
 20
526.5527077116652
 10
341.2446999972628
 20
526.6331994933633
 10
341.62885281701716
 20
526.8248338210668
 10
341.76599252939144
 20
526.8860410450086
 10
341.91136666392913
 20
526.9665328266965
 10
342.2955194836841
 20
527.1581671544003
 10
342.4326591960582
 20
527.219374378342
 10
342.5780333305958
 20
527.2998661600299
 10
342.96218615035207
 20
527.4915004877342
 10
343.09932586274255
 20
527.5527077116832
 10
343.24469999730127
 20
527.6331994933813
 10
343.6288528194442
 20
527.8248338221474
 10
343.76599259742824
 20
527.8860410752844
 10
343.911366814225
 20
527.9665328970043
 10
344.2955231846958
 20
528.1581687958021
 10
344.4327072387456
 20
528.2193956774973
 10
344.57813681901456
 20
528.2999143759923
 10
344.9634092311023
 20
528.4920388516134
 10
345.1072985446765
 20
528.5562129157497
 10
345.2610898227315
 20
528.6407389587799
 10
345.71542300917247
 20
528.861340215098
 10
346.0062791434133
 20
528.9848244933327
 10
346.1163548801691
 20
529.0349581314465
 10
345.28791230347235
 20
530.1431109841307
 10
344.6823564819172
 20
530.0532852633307
 10
343.46694394183066
 20
529.993575874066
 10
342.2515314017441
 20
530.0532852633307
 10
341.0478239488307
 20
530.2318383970659
 10
339.8674139438753
 20
530.5275157109866
 10
338.72166938050356
 20
530.937469670926
 10
337.6216244051883
 20
531.4577521961463
 10
336.5778730523876
 20
532.0833526815144
 10
335.60046721820146
 20
532.808246252368
 10
334.9707391923765
 20
533.3789984658264
 10
331.9829900688492
 20
531.2391347270459
 10
337.09080913630396
 20
524.4067429237102
 10
337.1324873078958
 20
524.4294389069161
 10
337.3960225106433
 20
524.611844118811
 10
337.85041715539444
 20
524.8917154015924
 10
338.20401476230944
 20
525.0842681226366
 10
338.503470853277
 20
525.2565887851125
 10
338.94399562760674
 20
525.4818428351241
 10
339.09109085113613
 20
525.5480922697972
  0
LWPOLYLINE
  5
64
330
17
100
AcDbEntity
  8
default
100
AcDbPolyline
 90
6
 70
0
 10
321.94099218724295
 20
527.7557970187627
 10
324.9561798805371
 20
531.4310463224538
 10
316.2965904776938
 20
540.6547418367118
 10
311.1110966480337
 20
539.2176715093665
 10
307.27358507411554
 20
528.698785725981
 10
321.94099218724295
 20
527.7557970187627
  0
LWPOLYLINE
  5
65
330
17
100
AcDbEntity
  8
default
100
AcDbPolyline
 90
50
 70
0
 10
304.56797647658306
 20
537.1142442277963
 10
304.42277731798055
 20
537.0338031789751
 10
304.0530286138437
 20
536.8485146618071
 10
303.9430674338864
 20
536.7989898272281
 10
303.8073337603595
 20
536.7208824943959
 10
303.7047371201663
 20
536.6634388739591
 10
303.53417935878247
 20
536.5705610930924
 10
303.27064415602354
 20
536.3881558811895
 10
302.8162495112943
 20
536.1082845984199
 10
302.462651905309
 20
535.9157318778796
 10
302.1631958147842
 20
535.743411215486
 10
301.72267118022853
 20
535.518157228192
 10
301.57557754548196
 20
535.451908503585
 10
301.42304618385754
 20
535.3674053781862
 10
301.0380275667553
 20
535.1752702395512
 10
300.9013098099164
 20
535.1142442277963
 10
300.7561106513139
 20
535.0338031789751
 10
300.3863619471771
 20
534.8485146618071
 10
300.27640076722076
 20
534.7989898272285
 10
300.14066709369393
 20
534.7208824943964
 10
300.03807045352124
 20
534.6634388739707
 10
299.86751269256985
 20
534.5705610933384
 10
299.603977489717
 20
534.3881558812908
 10
299.1495829310414
 20
534.1082846452579
 10
298.79598669909615
 20
533.9157326638834
 10
298.49653124753763
 20
533.743412107618
 10
298.05610076713737
 20
533.5182001715257
 10
297.90949217228604
 20
533.4521661493862
 10
297.75718250003086
 20
533.3677377942859
 10
297.38647532644256
 20
533.1819080641651
 10
297.276449226803
 20
533.1323511749058
 10
297.140669960666
 20
533.0542174874132
 10
297.0380705637257
 20
532.9967722779322
 10
296.867512734296
 20
532.9038944556338
 10
296.60397749056443
 20
532.7214892152124
 10
296.1495829310691
 20
532.4416179786089
 10
295.79598669910683
 20
532.2490659972229
 10
295.49653124753735
 20
532.0767454409512
 10
295.05610076713737
 20
531.851533504859
 10
294.951163983386
 20
531.8042688959287
 10
299.0490578254685
 20
525.3509183591232
 10
302.8065642300062
 20
528.1255061551929
 10
306.4399583296409
 20
538.0848917631105
 10
306.12931857197646
 20
537.9157318778799
 10
305.8298624814506
 20
537.7434112154858
 10
305.38933784689493
 20
537.5181572281919
 10
305.2422442121486
 20
537.451908503585
 10
305.08971285052417
 20
537.3674053781862
 10
304.70469423342195
 20
537.1752702395512
 10
304.56797647658306
 20
537.1142442277963
  0
LWPOLYLINE
  5
66
330
17
100
AcDbEntity
  8
default
100
AcDbPolyline
 90
35
 70
0
 10
364.3396124767476
 20
537.6514911599998
 10
364.68595993253444
 20
537.809233988
 10
365.2872441717106
 20
538.0376275700237
 10
365.4624956112991
 20
538.0915791770291
 10
365.57444754143194
 20
538.1425673213446
 10
365.69289428984735
 20
538.1946735493843
 10
365.8105664883903
 20
538.244631809758
 10
365.92478071496726
 20
538.3074056945708
 10
366.29647662761016
 20
538.4920404901011
 10
366.43331542515097
 20
538.5530699200149
 10
366.5782231526427
 20
538.633295920087
 10
366.9634121601551
 20
538.8253738234341
 10
367.1073003526827
 20
538.8895472488011
 10
367.2610899480569
 20
538.9740723612551
 10
367.7154230131857
 20
539.1946735503369
 10
368.0062791950366
 20
539.3181578484498
 10
368.24560438267554
 20
539.4271577245896
 10
369.49482682163864
 20
542.7552750837344
 10
367.4060478538899
 20
548.1702309387244
 10
367.2334285338989
 20
548.1045314979724
 10
366.6065800352989
 20
547.8531087501724
 10
365.9896182565489
 20
547.6055020388725
 10
365.2774505361489
 20
547.3601996425725
 10
364.3305693000489
 20
547.1429246484726
 10
363.0608827571489
 20
547.0028309174724
 10
362.6944614516963
 20
547.0110433937692
 10
358.51841061841697
 20
542.5075119324028
 10
362.7322254467389
 20
536.8709704824088
 10
362.7660423800877
 20
536.8860633509697
 10
362.9114702788401
 20
536.966581112959
 10
363.2967425663721
 20
537.1587055193581
 10
363.4406318791824
 20
537.2228795830624
 10
363.59442315609704
 20
537.3074056254644
 10
364.0487563425071
 20
537.5280068817654
 10
364.3396124767476
 20
537.6514911599998
  0
LWPOLYLINE
  5
67
330
17
100
AcDbEntity
  8
default
100
AcDbPolyline
 90
27
 70
0
 10
352.2350680285439
 20
551.1616999607792
 10
353.0522735635286
 20
550.2600525976952
 10
353.77716713438224
 20
549.282646763509
 10
354.40276761975025
 20
548.2388954107083
 10
354.9230501449706
 20
547.1388504353931
 10
355.33300410491006
 20
545.9931058720213
 10
355.53770346431395
 20
545.1759002208865
 10
358.63096273586393
 20
548.5117289749073
 10
358.12998648819894
 20
549.3151786855724
 10
357.86683586229884
 20
550.2260444566724
 10
357.83413496634887
 20
551.1920720804725
 10
357.9747011723989
 20
552.0245530520225
 10
358.19546930709896
 20
552.6709893423225
 10
358.45893918219895
 20
553.2030758039224
 10
358.773773227399
 20
553.6743669300724
 10
359.19928975929895
 20
554.1008385951725
 10
359.7589657962489
 20
554.5110247107725
 10
360.40553228684894
 20
554.9242653578725
 10
361.06399448704894
 20
555.2849074337724
 10
361.736778472649
 20
555.5862687154724
 10
362.44747233844896
 20
555.8495135120223
 10
362.6706449088203
 20
555.928229190067
 10
360.6681220163591
 20
560.3260061051697
 10
359.3253069636412
 20
560.714660114143
 10
353.16719806566834
 20
558.6078434586525
 10
351.51165814189307
 20
551.8173604635856
 10
352.2350680285439
 20
551.1616999607792
  0
LWPOLYLINE
  5
68
330
17
100
AcDbEntity
  8
default
100
AcDbPolyline
 90
65
 70
0
 10
202.99765717332872
 20
446.3704402119531
 10
202.792680193359
 20
446.94331249363904
 10
202.5325389307488
 20
447.49333498129664
 10
202.2197386880648
 20
448.01521065769697
 10
201.857291902638
 20
448.5039135747901
 10
201.44868913514563
 20
448.95473725633207
 10
200.99786545360362
 20
449.36334002382443
 10
200.50916253651056
 20
449.72578680925125
 10
199.9872868601102
 20
450.0385870519353
 10
199.43726437245257
 20
450.29872831454543
 10
198.86439209076667
 20
450.50370529451516
 10
198.274187088289
 20
450.6515439514755
 10
197.6723333618323
 20
450.74082051834307
 10
197.06462709178902
 20
450.77067521297545
 10
196.45692082174574
 20
450.74082051834307
 10
195.85506709528903
 20
450.6515439514755
 10
195.26486209281134
 20
450.50370529451516
 10
194.69198981112547
 20
450.29872831454543
 10
194.14196732346784
 20
450.0385870519353
 10
193.62009164706748
 20
449.72578680925125
 10
193.13138872997442
 20
449.36334002382443
 10
192.6805650484324
 20
448.95473725633207
 10
192.27196228094004
 20
448.50391357479003
 10
191.90951549551323
 20
448.01521065769697
 10
191.59671525282923
 20
447.49333498129664
 10
191.33657399021905
 20
446.94331249363904
 10
191.13159701024932
 20
446.3704402119531
 10
190.983758353289
 20
445.78023520947545
 10
190.8944817864214
 20
445.1783814830187
 10
190.86462709178903
 20
444.57067521297546
 10
190.8944817864214
 20
443.9629689429322
 10
190.983758353289
 20
443.36111521647547
 10
191.13159701024932
 20
442.7709102139978
 10
191.33657399021905
 20
442.1980379323119
 10
191.59671525282923
 20
441.6480154446543
 10
191.90951549551323
 20
441.12613976825395
 10
192.27196228094004
 20
440.6374368511609
 10
192.6805650484324
 20
440.18661316961885
 10
193.13138872997442
 20
439.7780104021265
 10
193.62009164706748
 20
439.41556361669967
 10
194.14196732346784
 20
439.10276337401564
 10
194.69198981112547
 20
438.8426221114055
 10
195.26486209281134
 20
438.63764513143576
 10
195.85506709528903
 20
438.4898064744754
 10
196.45692082174574
 20
438.40052990760785
 10
197.06462709178902
 20
438.37067521297547
 10
197.6723333618323
 20
438.40052990760785
 10
198.274187088289
 20
438.4898064744754
 10
198.8643920907667
 20
438.63764513143576
 10
199.43726437245257
 20
438.8426221114055
 10
199.9872868601102
 20
439.10276337401564
 10
200.50916253651056
 20
439.41556361669967
 10
200.99786545360362
 20
439.7780104021265
 10
201.44868913514563
 20
440.18661316961885
 10
201.857291902638
 20
440.6374368511609
 10
202.2197386880648
 20
441.12613976825395
 10
202.5325389307488
 20
441.6480154446543
 10
202.792680193359
 20
442.1980379323119
 10
202.99765717332872
 20
442.7709102139978
 10
203.14549583028904
 20
443.36111521647547
 10
203.23477239715663
 20
443.9629689429322
 10
203.264627091789
 20
444.57067521297546
 10
203.23477239715663
 20
445.1783814830187
 10
203.14549583028904
 20
445.78023520947545
 10
202.99765717332872
 20
446.3704402119531
  0
LWPOLYLINE
  5
69
330
17
100
AcDbEntity
  8
default
100
AcDbPolyline
 90
65
 70
0
 10
349.6370892471983
 20
543.0012821441093
 10
349.5478126803307
 20
543.603135870566
 10
349.39997402337036
 20
544.1933408730437
 10
349.19499704340063
 20
544.7662131547295
 10
348.9348557807905
 20
545.3162356423871
 10
348.62205553810645
 20
545.8381113187875
 10
348.25960875267964
 20
546.3268142358805
 10
347.85100598518727
 20
546.7776379174226
 10
347.4001823036453
 20
547.1862406849149
 10
346.9114793865522
 20
547.5486874703417
 10
346.38960371015185
 20
547.8614877130258
 10
345.83958122249425
 20
548.121628975636
 10
345.2667089408083
 20
548.3266059556056
 10
344.67650393833065
 20
548.474444612566
 10
344.0746502118739
 20
548.5637211794336
 10
343.46694394183066
 20
548.593575874066
 10
342.8592376717874
 20
548.5637211794336
 10
342.2573839453307
 20
548.474444612566
 10
341.667178942853
 20
548.3266059556056
 10
341.0943066611671
 20
548.121628975636
 10
340.5442841735095
 20
547.8614877130258
 10
340.02240849710915
 20
547.5486874703417
 10
339.53370558001603
 20
547.1862406849149
 10
339.08288189847406
 20
546.7776379174226
 10
338.6742791309817
 20
546.3268142358805
 10
338.3118323455549
 20
545.8381113187875
 10
337.99903210287084
 20
545.3162356423871
 10
337.7388908402607
 20
544.7662131547295
 10
337.53391386029097
 20
544.1933408730437
 10
337.3860752033306
 20
543.603135870566
 10
337.29679863646305
 20
543.0012821441093
 10
337.2669439418307
 20
542.393575874066
 10
337.29679863646305
 20
541.7858696040227
 10
337.3860752033306
 20
541.1840158775659
 10
337.53391386029097
 20
540.5938108750883
 10
337.7388908402607
 20
540.0209385934024
 10
337.99903210287084
 20
539.4709161057448
 10
338.3118323455549
 20
538.9490404293444
 10
338.6742791309817
 20
538.4603375122514
 10
339.08288189847406
 20
538.0095138307094
 10
339.5337055800161
 20
537.600911063217
 10
340.02240849710915
 20
537.2384642777902
 10
340.5442841735095
 20
536.9256640351061
 10
341.0943066611671
 20
536.6655227724959
 10
341.667178942853
 20
536.4605457925263
 10
342.2573839453307
 20
536.3127071355659
 10
342.8592376717874
 20
536.2234305686983
 10
343.46694394183066
 20
536.1935758740659
 10
344.0746502118739
 20
536.2234305686983
 10
344.67650393833065
 20
536.3127071355659
 10
345.2667089408083
 20
536.4605457925263
 10
345.83958122249425
 20
536.6655227724959
 10
346.38960371015185
 20
536.9256640351061
 10
346.9114793865522
 20
537.2384642777902
 10
347.40018230364524
 20
537.600911063217
 10
347.85100598518727
 20
538.0095138307094
 10
348.25960875267964
 20
538.4603375122514
 10
348.62205553810645
 20
538.9490404293444
 10
348.9348557807905
 20
539.4709161057448
 10
349.19499704340063
 20
540.0209385934024
 10
349.39997402337036
 20
540.5938108750883
 10
349.5478126803307
 20
541.1840158775659
 10
349.6370892471983
 20
541.7858696040227
 10
349.66694394183065
 20
542.393575874066
 10
349.6370892471983
 20
543.0012821441093
  0
ENDSEC
  0
SECTION
  2
OBJECTS
  0
DICTIONARY
  5
A
330
0
100
AcDbDictionary
280
0
281
1
  3
ACAD_COLOR
350
B
  3
ACAD_GROUP
350
C
  3
ACAD_LAYOUT
350
D
  3
ACAD_MATERIAL
350
E
  3
ACAD_MLEADERSTYLE
350
F
  3
ACAD_MLINESTYLE
350
10
  3
ACAD_PLOTSETTINGS
350
11
  3
ACAD_PLOTSTYLENAME
350
12
  3
ACAD_SCALELIST
350
14
  3
ACAD_TABLESTYLE
350
15
  3
ACAD_VISUALSTYLE
350
16
  3
EZDXF_META
350
2D
  0
DICTIONARY
  5
B
330
A
100
AcDbDictionary
280
0
281
1
  0
DICTIONARY
  5
C
330
A
100
AcDbDictionary
280
0
281
1
  0
DICTIONARY
  5
D
330
A
100
AcDbDictionary
280
0
281
1
  3
Model
350
1A
  3
Layout1
350
1E
  0
DICTIONARY
  5
E
330
A
100
AcDbDictionary
280
0
281
1
  3
ByBlock
350
1F
  3
ByLayer
350
20
  3
Global
350
21
  0
DICTIONARY
  5
F
330
A
100
AcDbDictionary
280
0
281
1
  3
Standard
350
2C
  0
DICTIONARY
  5
10
330
A
100
AcDbDictionary
280
0
281
1
  3
Standard
350
22
  0
DICTIONARY
  5
11
330
A
100
AcDbDictionary
280
0
281
1
  0
ACDBDICTIONARYWDFLT
  5
12
330
A
100
AcDbDictionary
280
0
281
1
  3
Normal
350
13
100
AcDbDictionaryWithDefault
340
13
  0
ACDBPLACEHOLDER
  5
13
330
12
  0
DICTIONARY
  5
14
330
A
100
AcDbDictionary
280
0
281
1
  0
DICTIONARY
  5
15
330
A
100
AcDbDictionary
280
0
281
1
  0
DICTIONARY
  5
16
330
A
100
AcDbDictionary
280
0
281
1
  0
LAYOUT
  5
1A
330
D
100
AcDbPlotSettings
  1

  2
Adobe PDF
  4
A3
  6

 40
7.5
 41
20.0
 42
7.5
 43
20.0
 44
420.0
 45
297.0
 46
0.0
 47
0.0
 48
0.0
 49
0.0
140
0.0
141
0.0
142
1.0
143
1.0
 70
1024
 72
1
 73
0
 74
5
  7

 75
16
 76
0
 77
2
 78
300
147
1.0
148
0.0
149
0.0
100
AcDbLayout
  1
Model
 70
1
 71
0
 10
0.0
 20
0.0
 11
420.0
 21
297.0
 12
0.0
 22
0.0
 32
0.0
 14
1e+20
 24
1e+20
 34
1e+20
 15
-1e+20
 25
-1e+20
 35
-1e+20
146
0.0
 13
0.0
 23
0.0
 33
0.0
 16
1.0
 26
0.0
 36
0.0
 17
0.0
 27
1.0
 37
0.0
 76
1
330
17
  0
LAYOUT
  5
1E
330
D
100
AcDbPlotSettings
  1

  2
Adobe PDF
  4
A3
  6

 40
7.5
 41
20.0
 42
7.5
 43
20.0
 44
420.0
 45
297.0
 46
0.0
 47
0.0
 48
0.0
 49
0.0
140
0.0
141
0.0
142
1.0
143
1.0
 70
0
 72
1
 73
0
 74
5
  7

 75
16
 76
0
 77
2
 78
300
147
1.0
148
0.0
149
0.0
100
AcDbLayout
  1
Layout1
 70
1
 71
1
 10
0.0
 20
0.0
 11
420.0
 21
297.0
 12
0.0
 22
0.0
 32
0.0
 14
1e+20
 24
1e+20
 34
1e+20
 15
-1e+20
 25
-1e+20
 35
-1e+20
146
0.0
 13
0.0
 23
0.0
 33
0.0
 16
1.0
 26
0.0
 36
0.0
 17
0.0
 27
1.0
 37
0.0
 76
1
330
1B
  0
MATERIAL
  5
1F
102
{ACAD_REACTORS
330
E
102
}
330
E
100
AcDbMaterial
  1
ByBlock
  2

 70
0
 40
1.0
 71
1
 41
1.0
 91
-1023410177
 42
1.0
 72
1
  3

 73
1
 74
1
 75
1
 44
0.5
 73
0
 45
1.0
 46
1.0
 77
1
  4

 78
1
 79
1
170
1
 48
1.0
171
1
  6

172
1
173
1
174
1
140
1.0
141
1.0
175
1
  7

176
1
177
1
178
1
143
1.0
179
1
  8

270
1
271
1
272
1
145
1.0
146
1.0
273
1
  9

274
1
275
1
276
1
 42
1.0
 72
1
  3

 73
1
 74
1
 75
1
 94
63
  0
MATERIAL
  5
20
102
{ACAD_REACTORS
330
E
102
}
330
E
100
AcDbMaterial
  1
ByLayer
  2

 70
0
 40
1.0
 71
1
 41
1.0
 91
-1023410177
 42
1.0
 72
1
  3

 73
1
 74
1
 75
1
 44
0.5
 73
0
 45
1.0
 46
1.0
 77
1
  4

 78
1
 79
1
170
1
 48
1.0
171
1
  6

172
1
173
1
174
1
140
1.0
141
1.0
175
1
  7

176
1
177
1
178
1
143
1.0
179
1
  8

270
1
271
1
272
1
145
1.0
146
1.0
273
1
  9

274
1
275
1
276
1
 42
1.0
 72
1
  3

 73
1
 74
1
 75
1
 94
63
  0
MATERIAL
  5
21
102
{ACAD_REACTORS
330
E
102
}
330
E
100
AcDbMaterial
  1
Global
  2

 70
0
 40
1.0
 71
1
 41
1.0
 91
-1023410177
 42
1.0
 72
1
  3

 73
1
 74
1
 75
1
 44
0.5
 73
0
 45
1.0
 46
1.0
 77
1
  4

 78
1
 79
1
170
1
 48
1.0
171
1
  6

172
1
173
1
174
1
140
1.0
141
1.0
175
1
  7

176
1
177
1
178
1
143
1.0
179
1
  8

270
1
271
1
272
1
145
1.0
146
1.0
273
1
  9

274
1
275
1
276
1
 42
1.0
 72
1
  3

 73
1
 74
1
 75
1
 94
63
  0
MLINESTYLE
  5
22
102
{ACAD_REACTORS
330
10
102
}
330
10
100
AcDbMlineStyle
  2
Standard
 70
0
  3

 62
256
 51
90.0
 52
90.0
 71
2
 49
0.5
 62
256
  6
BYLAYER
 49
-0.5
 62
256
  6
BYLAYER
  0
MLEADERSTYLE
  5
2C
102
{ACAD_REACTORS
330
F
102
}
330
F
100
AcDbMLeaderStyle
179
2
170
2
171
1
172
0
 90
2
 40
0.0
 41
0.0
173
1
 91
-1056964608
 92
-2
290
1
 42
2.0
291
1
 43
8.0
  3
Standard
 44
4.0
300

342
29
174
1
175
1
176
0
178
1
 93
-1056964608
 45
4.0
292
0
297
0
 46
4.0
 94
-1056964608
 47
1.0
 49
1.0
140
1.0
294
1
141
0.0
177
0
142
1.0
295
0
296
0
143
3.75
271
0
272
9
273
9
  0
DICTIONARY
  5
2D
330
A
100
AcDbDictionary
281
1
  3
CREATED_BY_EZDXF
350
2E
  3
WRITTEN_BY_EZDXF
350
6C
  0
DICTIONARYVAR
  5
2E
330
2D
100
DictionaryVariables
280
0
  1
1.1.1 @ 2023-10-28T15:34:31.077522+00:00
  0
DICTIONARYVAR
  5
6C
330
2D
100
DictionaryVariables
280
0
  1
1.1.1 @ 2023-10-28T15:34:31.096637+00:00
  0
ENDSEC
  0
EOF
