<?xml version="1.0" standalone="no"?>
<!DOCTYPE svg PUBLIC "-//W3C//DTD SVG 1.1//EN" "http://www.w3.org/Graphics/SVG/1.1/DTD/svg11.dtd">
<svg width="216mm" height="76mm" viewBox="-28 -38 216 76" xmlns="http://www.w3.org/2000/svg" version="1.1">
<title>OpenSCAD Model</title>
<path d="
M 117.229,37.1737 L 131.13,36.7373 L 138.879,36.2465 L 143.751,35.7513 L 147.26,35.2485 L 150.121,34.7515
 L 152.649,34.2485 L 154.967,33.7515 L 156.963,33.2485 L 158.67,32.7515 L 160.198,32.2485 L 161.614,31.7515
 L 162.894,31.2484 L 164.099,30.7505 L 165.353,30.2415 L 166.682,29.7151 L 168,29.113 L 169.32,28.3952
 L 170.661,27.5809 L 171.973,26.7774 L 173.369,25.8779 L 175.049,24.6882 L 176.922,23.2514 L 178.561,21.9057
 L 179.906,20.5612 L 181.25,18.9233 L 182.681,17.0561 L 183.842,15.4049 L 184.642,14.1081 L 185.227,13.0127
 L 185.748,11.9539 L 186.246,10.774 L 186.737,9.1722 L 187.174,6.58829 L 187.467,2.50423 L 187.467,-2.50423
 L 187.174,-6.58829 L 186.737,-9.1722 L 186.246,-10.774 L 185.748,-11.9539 L 185.227,-13.0127 L 184.642,-14.1081
 L 183.842,-15.4049 L 182.681,-17.0561 L 181.25,-18.9233 L 179.906,-20.5612 L 178.561,-21.9057 L 176.922,-23.2514
 L 175.049,-24.6882 L 173.369,-25.8779 L 171.973,-26.7774 L 170.661,-27.5809 L 169.32,-28.3952 L 168,-29.113
 L 166.682,-29.7151 L 165.353,-30.2415 L 164.099,-30.7505 L 162.894,-31.2484 L 161.614,-31.7515 L 160.198,-32.2485
 L 158.67,-32.7515 L 156.963,-33.2485 L 154.967,-33.7515 L 152.649,-34.2485 L 150.121,-34.7515 L 147.26,-35.2485
 L 143.751,-35.7513 L 138.879,-36.2465 L 131.13,-36.7373 L 117.229,-37.1737 L 94.2796,-37.4668 L 65.7204,-37.4668
 L 42.771,-37.1737 L 28.8699,-36.7373 L 21.121,-36.2465 L 16.2492,-35.7513 L 12.7399,-35.2485 L 9.87906,-34.7515
 L 7.35126,-34.2485 L 5.03317,-33.7515 L 3.03741,-33.2485 L 1.33028,-32.7515 L -0.197876,-32.2485 L -1.61423,-31.7515
 L -2.89398,-31.2484 L -4.0988,-30.7505 L -5.35333,-30.2415 L -6.68202,-29.7151 L -8.00018,-29.113 L -9.31989,-28.3952
 L -10.6605,-27.5809 L -11.973,-26.7774 L -13.3685,-25.8779 L -15.0491,-24.6882 L -16.9223,-23.2514 L -18.5611,-21.9057
 L -19.9056,-20.5612 L -21.2504,-18.9233 L -22.6812,-17.0561 L -23.8415,-15.4049 L -24.6421,-14.1081 L -25.2275,-13.0127
 L -25.7484,-11.9539 L -26.2463,-10.774 L -26.7373,-9.1722 L -27.1737,-6.58829 L -27.4668,-2.50423 L -27.4668,2.50423
 L -27.1737,6.58829 L -26.7373,9.1722 L -26.2463,10.774 L -25.7484,11.9539 L -25.2275,13.0127 L -24.6421,14.1081
 L -23.8415,15.4049 L -22.6812,17.0561 L -21.2504,18.9233 L -19.9056,20.5612 L -18.5611,21.9057 L -16.9223,23.2514
 L -15.0491,24.6882 L -13.3685,25.8779 L -11.973,26.7774 L -10.6605,27.5809 L -9.31989,28.3952 L -8.00018,29.113
 L -6.68202,29.7151 L -5.35333,30.2415 L -4.0988,30.7505 L -2.89398,31.2484 L -1.61423,31.7515 L -0.197876,32.2485
 L 1.33028,32.7515 L 3.03741,33.2485 L 5.03317,33.7515 L 7.35126,34.2485 L 9.87906,34.7515 L 12.7399,35.2485
 L 16.2492,35.7513 L 21.121,36.2465 L 28.8699,36.7373 L 42.771,37.1737 L 65.7204,37.4668 L 94.2796,37.4668
 z
M 9.85297,-20.5072 L 9.70735,-20.5288 L 9.56456,-20.5646 L 9.42596,-20.6142 L 9.29289,-20.6771 L 9.16664,-20.7528
 L 9.0484,-20.8405 L 8.93933,-20.9393 L 8.84047,-21.0484 L 8.75279,-21.1666 L 8.67711,-21.2929 L 8.61417,-21.426
 L 8.56458,-21.5646 L 8.52881,-21.7074 L 8.50722,-21.853 L 8.5,-22 L 8.50722,-22.147 L 8.52881,-22.2926
 L 8.56458,-22.4354 L 8.61417,-22.574 L 8.67711,-22.7071 L 8.75279,-22.8333 L 8.84047,-22.9516 L 8.93933,-23.0607
 L 9.0484,-23.1595 L 9.16664,-23.2472 L 9.29289,-23.3229 L 9.42596,-23.3858 L 9.56456,-23.4354 L 9.70735,-23.4712
 L 9.85297,-23.4928 L 10,-23.5 L 10.147,-23.4928 L 10.2926,-23.4712 L 10.4354,-23.4354 L 10.574,-23.3858
 L 10.7071,-23.3229 L 10.8333,-23.2472 L 10.9516,-23.1595 L 11.0607,-23.0607 L 11.1595,-22.9516 L 11.2472,-22.8333
 L 11.3229,-22.7071 L 11.3858,-22.574 L 11.4354,-22.4354 L 11.4712,-22.2926 L 11.4928,-22.147 L 11.5,-22
 L 11.4928,-21.853 L 11.4712,-21.7074 L 11.4354,-21.5646 L 11.3858,-21.426 L 11.3229,-21.2929 L 11.2472,-21.1666
 L 11.1595,-21.0484 L 11.0607,-20.9393 L 10.9516,-20.8405 L 10.8333,-20.7528 L 10.7071,-20.6771 L 10.574,-20.6142
 L 10.4354,-20.5646 L 10.2926,-20.5288 L 10.147,-20.5072 L 10,-20.5 z
M 149.853,-20.5072 L 149.707,-20.5288 L 149.565,-20.5646 L 149.426,-20.6142 L 149.293,-20.6771 L 149.167,-20.7528
 L 149.048,-20.8405 L 148.939,-20.9393 L 148.84,-21.0484 L 148.753,-21.1666 L 148.677,-21.2929 L 148.614,-21.426
 L 148.565,-21.5646 L 148.529,-21.7074 L 148.507,-21.853 L 148.5,-22 L 148.507,-22.147 L 148.529,-22.2926
 L 148.565,-22.4354 L 148.614,-22.574 L 148.677,-22.7071 L 148.753,-22.8333 L 148.84,-22.9516 L 148.939,-23.0607
 L 149.048,-23.1595 L 149.167,-23.2472 L 149.293,-23.3229 L 149.426,-23.3858 L 149.565,-23.4354 L 149.707,-23.4712
 L 149.853,-23.4928 L 150,-23.5 L 150.147,-23.4928 L 150.293,-23.4712 L 150.435,-23.4354 L 150.574,-23.3858
 L 150.707,-23.3229 L 150.833,-23.2472 L 150.952,-23.1595 L 151.061,-23.0607 L 151.16,-22.9516 L 151.247,-22.8333
 L 151.323,-22.7071 L 151.386,-22.574 L 151.435,-22.4354 L 151.471,-22.2926 L 151.493,-22.147 L 151.5,-22
 L 151.493,-21.853 L 151.471,-21.7074 L 151.435,-21.5646 L 151.386,-21.426 L 151.323,-21.2929 L 151.247,-21.1666
 L 151.16,-21.0484 L 151.061,-20.9393 L 150.952,-20.8405 L 150.833,-20.7528 L 150.707,-20.6771 L 150.574,-20.6142
 L 150.435,-20.5646 L 150.293,-20.5288 L 150.147,-20.5072 L 150,-20.5 z
M -20,10 L -20,-10 L 140,-10 L 140,10 z
M 149.853,23.4928 L 149.707,23.4712 L 149.565,23.4354 L 149.426,23.3858 L 149.293,23.3229 L 149.167,23.2472
 L 149.048,23.1595 L 148.939,23.0607 L 148.84,22.9516 L 148.753,22.8333 L 148.677,22.7071 L 148.614,22.574
 L 148.565,22.4354 L 148.529,22.2926 L 148.507,22.147 L 148.5,22 L 148.507,21.853 L 148.529,21.7074
 L 148.565,21.5646 L 148.614,21.426 L 148.677,21.2929 L 148.753,21.1666 L 148.84,21.0484 L 148.939,20.9393
 L 149.048,20.8405 L 149.167,20.7528 L 149.293,20.6771 L 149.426,20.6142 L 149.565,20.5646 L 149.707,20.5288
 L 149.853,20.5072 L 150,20.5 L 150.147,20.5072 L 150.293,20.5288 L 150.435,20.5646 L 150.574,20.6142
 L 150.707,20.6771 L 150.833,20.7528 L 150.952,20.8405 L 151.061,20.9393 L 151.16,21.0484 L 151.247,21.1666
 L 151.323,21.2929 L 151.386,21.426 L 151.435,21.5646 L 151.471,21.7074 L 151.493,21.853 L 151.5,22
 L 151.493,22.147 L 151.471,22.2926 L 151.435,22.4354 L 151.386,22.574 L 151.323,22.7071 L 151.247,22.8333
 L 151.16,22.9516 L 151.061,23.0607 L 150.952,23.1595 L 150.833,23.2472 L 150.707,23.3229 L 150.574,23.3858
 L 150.435,23.4354 L 150.293,23.4712 L 150.147,23.4928 L 150,23.5 z
M 9.85297,23.4928 L 9.70735,23.4712 L 9.56456,23.4354 L 9.42596,23.3858 L 9.29289,23.3229 L 9.16664,23.2472
 L 9.0484,23.1595 L 8.93933,23.0607 L 8.84047,22.9516 L 8.75279,22.8333 L 8.67711,22.7071 L 8.61417,22.574
 L 8.56458,22.4354 L 8.52881,22.2926 L 8.50722,22.147 L 8.5,22 L 8.50722,21.853 L 8.52881,21.7074
 L 8.56458,21.5646 L 8.61417,21.426 L 8.67711,21.2929 L 8.75279,21.1666 L 8.84047,21.0484 L 8.93933,20.9393
 L 9.0484,20.8405 L 9.16664,20.7528 L 9.29289,20.6771 L 9.42596,20.6142 L 9.56456,20.5646 L 9.70735,20.5288
 L 9.85297,20.5072 L 10,20.5 L 10.147,20.5072 L 10.2926,20.5288 L 10.4354,20.5646 L 10.574,20.6142
 L 10.7071,20.6771 L 10.8333,20.7528 L 10.9516,20.8405 L 11.0607,20.9393 L 11.1595,21.0484 L 11.2472,21.1666
 L 11.3229,21.2929 L 11.3858,21.426 L 11.4354,21.5646 L 11.4712,21.7074 L 11.4928,21.853 L 11.5,22
 L 11.4928,22.147 L 11.4712,22.2926 L 11.4354,22.4354 L 11.3858,22.574 L 11.3229,22.7071 L 11.2472,22.8333
 L 11.1595,22.9516 L 11.0607,23.0607 L 10.9516,23.1595 L 10.8333,23.2472 L 10.7071,23.3229 L 10.574,23.3858
 L 10.4354,23.4354 L 10.2926,23.4712 L 10.147,23.4928 L 10,23.5 z
" stroke="black" fill="lightgray" stroke-width="0.5"/>
</svg>
