  0
SECTION
  2
HEADER
  9
$ACADVER
  1
AC1024
  9
$ACADMAINTVER
 70
6
  9
$DWGCODEPAGE
  3
ANSI_1252
  9
$LASTSAVEDBY
  1
ezdxf
  9
$INSBASE
 10
0.0
 20
0.0
 30
0.0
  9
$EXTMIN
 10
1e+20
 20
1e+20
 30
1e+20
  9
$EXTMAX
 10
-1e+20
 20
-1e+20
 30
-1e+20
  9
$LIMMIN
 10
0.0
 20
0.0
  9
$LIMMAX
 10
420.0
 20
297.0
  9
$ORTHOMODE
 70
0
  9
$REGENMODE
 70
1
  9
$FILLMODE
 70
1
  9
$QTEXTMODE
 70
0
  9
$MIRRTEXT
 70
1
  9
$LTSCALE
 40
1.0
  9
$ATTMODE
 70
1
  9
$TEXTSIZE
 40
2.5
  9
$TRACEWID
 40
1.0
  9
$TEXTSTYLE
  7
Standard
  9
$CLAYER
  8
0
  9
$CELTYPE
  6
ByLayer
  9
$CECOLOR
 62
256
  9
$CELTSCALE
 40
1.0
  9
$DISPSILH
 70
0
  9
$DIMSCALE
 40
1.0
  9
$DIMASZ
 40
2.5
  9
$DIMEXO
 40
0.625
  9
$DIMDLI
 40
3.75
  9
$DIMRND
 40
0.0
  9
$DIMDLE
 40
0.0
  9
$DIMEXE
 40
1.25
  9
$DIMTP
 40
0.0
  9
$DIMTM
 40
0.0
  9
$DIMTXT
 40
2.5
  9
$DIMCEN
 40
2.5
  9
$DIMTSZ
 40
0.0
  9
$DIMTOL
 70
0
  9
$DIMLIM
 70
0
  9
$DIMTIH
 70
0
  9
$DIMTOH
 70
0
  9
$DIMSE1
 70
0
  9
$DIMSE2
 70
0
  9
$DIMTAD
 70
1
  9
$DIMZIN
 70
8
  9
$DIMBLK
  1

  9
$DIMASO
 70
1
  9
$DIMSHO
 70
1
  9
$DIMPOST
  1

  9
$DIMAPOST
  1

  9
$DIMALT
 70
0
  9
$DIMALTD
 70
3
  9
$DIMALTF
 40
0.03937007874
  9
$DIMLFAC
 40
1.0
  9
$DIMTOFL
 70
1
  9
$DIMTVP
 40
0.0
  9
$DIMTIX
 70
0
  9
$DIMSOXD
 70
0
  9
$DIMSAH
 70
0
  9
$DIMBLK1
  1

  9
$DIMBLK2
  1

  9
$DIMSTYLE
  2
ISO-25
  9
$DIMCLRD
 70
0
  9
$DIMCLRE
 70
0
  9
$DIMCLRT
 70
0
  9
$DIMTFAC
 40
1.0
  9
$DIMGAP
 40
0.625
  9
$DIMJUST
 70
0
  9
$DIMSD1
 70
0
  9
$DIMSD2
 70
0
  9
$DIMTOLJ
 70
0
  9
$DIMTZIN
 70
8
  9
$DIMALTZ
 70
0
  9
$DIMALTTZ
 70
0
  9
$DIMUPT
 70
0
  9
$DIMDEC
 70
2
  9
$DIMTDEC
 70
2
  9
$DIMALTU
 70
2
  9
$DIMALTTD
 70
3
  9
$DIMTXSTY
  7
Standard
  9
$DIMAUNIT
 70
0
  9
$DIMADEC
 70
0
  9
$DIMALTRND
 40
0.0
  9
$DIMAZIN
 70
0
  9
$DIMDSEP
 70
44
  9
$DIMATFIT
 70
3
  9
$DIMFRAC
 70
0
  9
$DIMLDRBLK
  1

  9
$DIMLUNIT
 70
2
  9
$DIMLWD
 70
-2
  9
$DIMLWE
 70
-2
  9
$DIMTMOVE
 70
0
  9
$DIMFXL
 40
1.0
  9
$DIMFXLON
 70
0
  9
$DIMJOGANG
 40
0.785398163397
  9
$DIMTFILL
 70
0
  9
$DIMTFILLCLR
 70
0
  9
$DIMARCSYM
 70
0
  9
$DIMLTYPE
  6

  9
$DIMLTEX1
  6

  9
$DIMLTEX2
  6

  9
$DIMTXTDIRECTION
 70
0
  9
$LUNITS
 70
2
  9
$LUPREC
 70
4
  9
$SKETCHINC
 40
1.0
  9
$FILLETRAD
 40
10.0
  9
$AUNITS
 70
0
  9
$AUPREC
 70
2
  9
$MENU
  1
.
  9
$ELEVATION
 40
0.0
  9
$PELEVATION
 40
0.0
  9
$THICKNESS
 40
0.0
  9
$LIMCHECK
 70
0
  9
$CHAMFERA
 40
0.0
  9
$CHAMFERB
 40
0.0
  9
$CHAMFERC
 40
0.0
  9
$CHAMFERD
 40
0.0
  9
$SKPOLY
 70
0
  9
$TDCREATE
 40
2460231.825787037
  9
$TDUCREATE
 40
2458532.153996898
  9
$TDUPDATE
 40
2460231.825787037
  9
$TDUUPDATE
 40
2458532.1544311
  9
$TDINDWG
 40
0.0
  9
$TDUSRTIMER
 40
0.0
  9
$USRTIMER
 70
1
  9
$ANGBASE
 50
0.0
  9
$ANGDIR
 70
0
  9
$PDMODE
 70
0
  9
$PDSIZE
 40
0.0
  9
$PLINEWID
 40
0.0
  9
$SPLFRAME
 70
0
  9
$SPLINETYPE
 70
6
  9
$SPLINESEGS
 70
8
  9
$HANDSEED
  5
63
  9
$SURFTAB1
 70
6
  9
$SURFTAB2
 70
6
  9
$SURFTYPE
 70
6
  9
$SURFU
 70
6
  9
$SURFV
 70
6
  9
$UCSBASE
  2

  9
$UCSNAME
  2

  9
$UCSORG
 10
0.0
 20
0.0
 30
0.0
  9
$UCSXDIR
 10
1.0
 20
0.0
 30
0.0
  9
$UCSYDIR
 10
0.0
 20
1.0
 30
0.0
  9
$UCSORTHOREF
  2

  9
$UCSORTHOVIEW
 70
0
  9
$UCSORGTOP
 10
0.0
 20
0.0
 30
0.0
  9
$UCSORGBOTTOM
 10
0.0
 20
0.0
 30
0.0
  9
$UCSORGLEFT
 10
0.0
 20
0.0
 30
0.0
  9
$UCSORGRIGHT
 10
0.0
 20
0.0
 30
0.0
  9
$UCSORGFRONT
 10
0.0
 20
0.0
 30
0.0
  9
$UCSORGBACK
 10
0.0
 20
0.0
 30
0.0
  9
$PUCSBASE
  2

  9
$PUCSNAME
  2

  9
$PUCSORG
 10
0.0
 20
0.0
 30
0.0
  9
$PUCSXDIR
 10
1.0
 20
0.0
 30
0.0
  9
$PUCSYDIR
 10
0.0
 20
1.0
 30
0.0
  9
$PUCSORTHOREF
  2

  9
$PUCSORTHOVIEW
 70
0
  9
$PUCSORGTOP
 10
0.0
 20
0.0
 30
0.0
  9
$PUCSORGBOTTOM
 10
0.0
 20
0.0
 30
0.0
  9
$PUCSORGLEFT
 10
0.0
 20
0.0
 30
0.0
  9
$PUCSORGRIGHT
 10
0.0
 20
0.0
 30
0.0
  9
$PUCSORGFRONT
 10
0.0
 20
0.0
 30
0.0
  9
$PUCSORGBACK
 10
0.0
 20
0.0
 30
0.0
  9
$USERI1
 70
0
  9
$USERI2
 70
0
  9
$USERI3
 70
0
  9
$USERI4
 70
0
  9
$USERI5
 70
0
  9
$USERR1
 40
0.0
  9
$USERR2
 40
0.0
  9
$USERR3
 40
0.0
  9
$USERR4
 40
0.0
  9
$USERR5
 40
0.0
  9
$WORLDVIEW
 70
1
  9
$SHADEDGE
 70
3
  9
$SHADEDIF
 70
70
  9
$TILEMODE
 70
1
  9
$MAXACTVP
 70
64
  9
$PINSBASE
 10
0.0
 20
0.0
 30
0.0
  9
$PLIMCHECK
 70
0
  9
$PEXTMIN
 10
1e+20
 20
1e+20
 30
1e+20
  9
$PEXTMAX
 10
-1e+20
 20
-1e+20
 30
-1e+20
  9
$PLIMMIN
 10
0.0
 20
0.0
  9
$PLIMMAX
 10
420.0
 20
297.0
  9
$UNITMODE
 70
0
  9
$VISRETAIN
 70
1
  9
$PLINEGEN
 70
0
  9
$PSLTSCALE
 70
1
  9
$TREEDEPTH
 70
3020
  9
$CMLSTYLE
  2
Standard
  9
$CMLJUST
 70
0
  9
$CMLSCALE
 40
20.0
  9
$PROXYGRAPHICS
 70
1
  9
$MEASUREMENT
 70
1
  9
$CELWEIGHT
370
-1
  9
$ENDCAPS
280
0
  9
$JOINSTYLE
280
0
  9
$LWDISPLAY
290
0
  9
$INSUNITS
 70
4
  9
$HYPERLINKBASE
  1

  9
$STYLESHEET
  1

  9
$XEDIT
290
1
  9
$CEPSNTYPE
380
0
  9
$PSTYLEMODE
290
1
  9
$FINGERPRINTGUID
  2
{E624A026-4247-441B-937F-145A5CAEF32B}
  9
$VERSIONGUID
  2
{F5C4B87B-25E7-4490-AB86-4128863FE410}
  9
$EXTNAMES
290
1
  9
$PSVPSCALE
 40
0.0
  9
$OLESTARTUP
290
0
  9
$SORTENTS
280
127
  9
$INDEXCTL
280
0
  9
$HIDETEXT
280
1
  9
$XCLIPFRAME
280
0
  9
$HALOGAP
280
0
  9
$OBSCOLOR
 70
257
  9
$OBSLTYPE
280
0
  9
$INTERSECTIONDISPLAY
280
0
  9
$INTERSECTIONCOLOR
 70
257
  9
$DIMASSOC
280
2
  9
$PROJECTNAME
  1

  9
$CAMERADISPLAY
290
0
  9
$LENSLENGTH
 40
50.0
  9
$CAMERAHEIGHT
 40
0.0
  9
$STEPSPERSEC
 40
24.0
  9
$STEPSIZE
 40
100.0
  9
$3DDWFPREC
 40
2.0
  9
$PSOLWIDTH
 40
0.005
  9
$PSOLHEIGHT
 40
0.08
  9
$LOFTANG1
 40
1.570796326795
  9
$LOFTANG2
 40
1.570796326795
  9
$LOFTMAG1
 40
0.0
  9
$LOFTMAG2
 40
0.0
  9
$LOFTPARAM
 70
7
  9
$LOFTNORMALS
280
1
  9
$LATITUDE
 40
37.795
  9
$LONGITUDE
 40
-122.394
  9
$NORTHDIRECTION
 40
0.0
  9
$TIMEZONE
 70
-8000
  9
$LIGHTGLYPHDISPLAY
280
1
  9
$TILEMODELIGHTSYNCH
280
1
  9
$CMATERIAL
347
20
  9
$SOLIDHIST
280
0
  9
$SHOWHIST
280
1
  9
$DWFFRAME
280
2
  9
$DGNFRAME
280
2
  9
$REALWORLDSCALE
290
1
  9
$INTERFERECOLOR
 62
256
  9
$CSHADOW
280
0
  9
$SHADOWPLANELOCATION
 40
0.0
  0
ENDSEC
  0
SECTION
  2
CLASSES
  0
CLASS
  1
ACDBDICTIONARYWDFLT
  2
AcDbDictionaryWithDefault
  3
ObjectDBX Classes
 90
0
 91
0
280
0
281
0
  0
CLASS
  1
SUN
  2
AcDbSun
  3
SCENEOE
 90
1153
 91
0
280
0
281
0
  0
CLASS
  1
VISUALSTYLE
  2
AcDbVisualStyle
  3
ObjectDBX Classes
 90
4095
 91
0
280
0
281
0
  0
CLASS
  1
MATERIAL
  2
AcDbMaterial
  3
ObjectDBX Classes
 90
1153
 91
0
280
0
281
0
  0
CLASS
  1
SCALE
  2
AcDbScale
  3
ObjectDBX Classes
 90
1153
 91
0
280
0
281
0
  0
CLASS
  1
TABLESTYLE
  2
AcDbTableStyle
  3
ObjectDBX Classes
 90
4095
 91
0
280
0
281
0
  0
CLASS
  1
MLEADERSTYLE
  2
AcDbMLeaderStyle
  3
ACDB_MLEADERSTYLE_CLASS
 90
4095
 91
0
280
0
281
0
  0
CLASS
  1
DICTIONARYVAR
  2
AcDbDictionaryVar
  3
ObjectDBX Classes
 90
0
 91
0
280
0
281
0
  0
CLASS
  1
CELLSTYLEMAP
  2
AcDbCellStyleMap
  3
ObjectDBX Classes
 90
1152
 91
0
280
0
281
0
  0
CLASS
  1
MENTALRAYRENDERSETTINGS
  2
AcDbMentalRayRenderSettings
  3
SCENEOE
 90
1024
 91
0
280
0
281
0
  0
CLASS
  1
ACDBDETAILVIEWSTYLE
  2
AcDbDetailViewStyle
  3
ObjectDBX Classes
 90
1025
 91
0
280
0
281
0
  0
CLASS
  1
ACDBSECTIONVIEWSTYLE
  2
AcDbSectionViewStyle
  3
ObjectDBX Classes
 90
1025
 91
0
280
0
281
0
  0
CLASS
  1
RASTERVARIABLES
  2
AcDbRasterVariables
  3
ISM
 90
0
 91
0
280
0
281
0
  0
CLASS
  1
ACDBPLACEHOLDER
  2
AcDbPlaceHolder
  3
ObjectDBX Classes
 90
0
 91
0
280
0
281
0
  0
CLASS
  1
LAYOUT
  2
AcDbLayout
  3
ObjectDBX Classes
 90
0
 91
0
280
0
281
0
  0
ENDSEC
  0
SECTION
  2
TABLES
  0
TABLE
  2
VPORT
  5
8
330
0
100
AcDbSymbolTable
 70
1
  0
VPORT
  5
23
330
8
100
AcDbSymbolTableRecord
100
AcDbViewportTableRecord
  2
*Active
 70
0
 10
0.0
 20
0.0
 11
1.0
 21
1.0
 12
0.0
 22
0.0
 13
0.0
 23
0.0
 14
0.5
 24
0.5
 15
0.5
 25
0.5
 16
0.0
 26
0.0
 36
1.0
 17
0.0
 27
0.0
 37
0.0
 40
1000.0
 41
1.34
 42
50.0
 43
0.0
 44
0.0
 50
0.0
 51
0.0
 71
0
 72
1000
 73
1
 74
3
 75
0
 76
0
 77
0
 78
0
281
0
 65
0
146
0.0
  0
ENDTAB
  0
TABLE
  2
LTYPE
  5
2
330
0
100
AcDbSymbolTable
 70
3
  0
LTYPE
  5
24
330
2
100
AcDbSymbolTableRecord
100
AcDbLinetypeTableRecord
  2
ByBlock
 70
0
  3

 72
65
 73
0
 40
0.0
  0
LTYPE
  5
25
330
2
100
AcDbSymbolTableRecord
100
AcDbLinetypeTableRecord
  2
ByLayer
 70
0
  3

 72
65
 73
0
 40
0.0
  0
LTYPE
  5
26
330
2
100
AcDbSymbolTableRecord
100
AcDbLinetypeTableRecord
  2
Continuous
 70
0
  3

 72
65
 73
0
 40
0.0
  0
ENDTAB
  0
TABLE
  2
LAYER
  5
1
330
0
100
AcDbSymbolTable
 70
2
  0
LAYER
  5
27
330
1
100
AcDbSymbolTableRecord
100
AcDbLayerTableRecord
  2
0
 70
0
 62
7
  6
Continuous
370
-3
390
13
347
21
  0
LAYER
  5
28
330
1
100
AcDbSymbolTableRecord
100
AcDbLayerTableRecord
  2
Defpoints
 70
0
 62
7
  6
Continuous
290
0
370
-3
390
13
347
21
  0
ENDTAB
  0
TABLE
  2
STYLE
  5
5
330
0
100
AcDbSymbolTable
 70
1
  0
STYLE
  5
29
330
5
100
AcDbSymbolTableRecord
100
AcDbTextStyleTableRecord
  2
Standard
 70
0
 40
0.0
 41
1.0
 50
0.0
 71
0
 42
2.5
  3
txt
  4

  0
ENDTAB
  0
TABLE
  2
VIEW
  5
7
330
0
100
AcDbSymbolTable
 70
0
  0
ENDTAB
  0
TABLE
  2
UCS
  5
6
330
0
100
AcDbSymbolTable
 70
0
  0
ENDTAB
  0
TABLE
  2
APPID
  5
3
330
0
100
AcDbSymbolTable
 70
3
  0
APPID
  5
2A
330
3
100
AcDbSymbolTableRecord
100
AcDbRegAppTableRecord
  2
ACAD
 70
0
  0
APPID
  5
60
330
3
100
AcDbSymbolTableRecord
100
AcDbRegAppTableRecord
  2
HATCHBACKGROUNDCOLOR
 70
0
  0
APPID
  5
61
330
3
100
AcDbSymbolTableRecord
100
AcDbRegAppTableRecord
  2
EZDXF
 70
0
  0
ENDTAB
  0
TABLE
  2
DIMSTYLE
  5
4
330
0
100
AcDbSymbolTable
 70
1
100
AcDbDimStyleTable
  0
DIMSTYLE
105
2B
330
4
100
AcDbSymbolTableRecord
100
AcDbDimStyleTableRecord
  2
Standard
 70
0
 40
1.0
 41
2.5
 42
0.625
 43
3.75
 44
1.25
 45
0.0
 46
0.0
 47
0.0
 48
0.0
 49
2.5
140
2.5
141
2.5
142
0.0
143
0.03937007874
144
1.0
145
0.0
146
1.0
147
0.625
148
0.0
 69
0
 70
0
 71
0
 72
0
 73
0
 74
0
 75
0
 76
0
 77
1
 78
8
 79
3
170
0
171
3
172
1
173
0
174
0
175
0
176
0
177
0
178
0
179
2
271
2
272
2
273
2
274
3
275
0
276
0
277
2
278
44
279
0
280
0
281
0
282
0
283
0
284
8
285
0
286
0
288
0
289
3
290
0
371
-2
372
-2
  0
ENDTAB
  0
TABLE
  2
BLOCK_RECORD
  5
9
330
0
100
AcDbSymbolTable
 70
2
  0
BLOCK_RECORD
  5
17
330
9
100
AcDbSymbolTableRecord
100
AcDbBlockTableRecord
  2
*Model_Space
340
1A
 70
0
280
1
281
0
  0
BLOCK_RECORD
  5
1B
330
9
100
AcDbSymbolTableRecord
100
AcDbBlockTableRecord
  2
*Paper_Space
340
1E
 70
0
280
1
281
0
  0
ENDTAB
  0
ENDSEC
  0
SECTION
  2
BLOCKS
  0
BLOCK
  5
18
330
17
100
AcDbEntity
  8
0
100
AcDbBlockBegin
  2
*Model_Space
 70
0
 10
0.0
 20
0.0
 30
0.0
  3
*Model_Space
  1

  0
ENDBLK
  5
19
330
17
100
AcDbEntity
  8
0
100
AcDbBlockEnd
  0
BLOCK
  5
1C
330
1B
100
AcDbEntity
  8
0
100
AcDbBlockBegin
  2
*Paper_Space
 70
0
 10
0.0
 20
0.0
 30
0.0
  3
*Paper_Space
  1

  0
ENDBLK
  5
1D
330
1B
100
AcDbEntity
  8
0
100
AcDbBlockEnd
  0
ENDSEC
  0
SECTION
  2
ENTITIES
  0
LWPOLYLINE
  5
2F
330
17
100
AcDbEntity
  8
default
100
AcDbPolyline
 90
1112
 70
0
 10
41.25894784853334
 20
266.3333333333333
 10
41.40771881813335
 20
266.6666666666667
 10
41.592281181866674
 20
267.0
 10
41.74105215146667
 20
267.3333333333333
 10
41.92561451520002
 20
267.6666666666667
 10
42.07438548480001
 20
268.0
 10
42.25894784853334
 20
268.3333333333333
 10
42.40771881813335
 20
268.6666666666667
 10
42.59228118186667
 20
269.0
 10
42.741052151466675
 20
269.3333333333333
 10
42.92561451520001
 20
269.6666666666667
 10
43.074385484800004
 20
270.0
 10
43.25894784853339
 20
270.33333333333337
 10
43.40771881813924
 20
270.6666666666726
 10
43.59228118234749
 20
271.00000000048084
 10
43.74105217478147
 20
271.33333335664815
 10
43.92561525992254
 20
271.6666674113892
 10
44.07440188956472
 20
272.0000164047648
 10
44.25920107768477
 20
272.3335865624848
 10
44.410441512495716
 20
272.66938936102906
 10
44.61208720907963
 20
273.01980602721295
 10
44.83275851538666
 20
273.4250396972534
 10
45.16724148461336
 20
273.9082936360801
 10
45.3879127909204
 20
274.3135273061205
 10
45.58955848750432
 20
274.66394397230437
 10
45.74079892231526
 20
274.99974677084856
 10
45.9255981104353
 20
275.33331692856865
 10
46.074384740077484
 20
275.6666659219442
 10
46.258947825218534
 20
275.9999999766852
 10
46.40771881765251
 20
276.3333333328525
 10
46.59228118186078
 20
276.66666666666083
 10
46.74105215146664
 20
277.0
 10
46.92561451520002
 20
277.3333333333333
 10
47.07438548480001
 20
277.6666666666667
 10
47.25894784853334
 20
278.0
 10
47.40771881813335
 20
278.3333333333333
 10
47.5922811818667
 20
278.66666666666674
 10
47.741052151472566
 20
279.0000000000059
 10
47.92561451568084
 20
279.33333333381427
 10
48.07438550811484
 20
279.6666666899815
 10
48.25894859325589
 20
280.00000074472257
 10
48.40773522289807
 20
280.3333497380981
 10
48.59253441101811
 20
280.6669198958182
 10
48.74377484582905
 20
281.0027226943625
 10
48.945420542412975
 20
281.35313936054644
 10
49.16609184872001
 20
281.75837303058677
 10
49.50057481794671
 20
282.24162696941346
 10
49.72124612425961
 20
282.6468606394597
 10
49.922891821318466
 20
282.9972773061186
 10
50.07413227896339
 20
283.3330801274968
 10
50.25893218849117
 20
283.66665100662453
 10
50.40773447817555
 20
284.0000156600422
 10
50.592534387703324
 20
284.33358653917014
 10
50.743774845348234
 20
284.6693893605484
 10
50.94542054240713
 20
285.01980602720727
 10
51.16609184872588
 20
285.42503969725925
 10
51.500574818427516
 20
285.9082936365609
 10
51.72124614756853
 20
286.31352732943526
 10
51.92289256556018
 20
286.6639447170269
 10
52.0741486604133
 20
286.99976317561334
 10
52.25918467292007
 20
287.33357015772015
 10
52.4104407677732
 20
287.66938861630655
 10
52.612087185764864
 20
288.01980600389817
 10
52.832758514911745
 20
288.42503969677836
 10
53.1672414850883
 20
288.908293636555
 10
53.387912814235165
 20
289.3135273294353
 10
53.58955923222683
 20
289.6639447170269
 10
53.74081532707996
 20
289.9997631756133
 10
53.92585133958675
 20
290.33357015772015
 10
54.07710743444574
 20
290.6693886163124
 10
54.27875385291233
 20
291.019806004379
 10
54.499425204887324
 20
291.42503972008734
 10
54.83390889599667
 20
291.90829438079663
 10
55.054595862351746
 20
292.31354371088514
 10
55.256478383322445
 20
292.6641972014558
 10
55.410188283350195
 20
293.0024694652169
 10
55.612070804795756
 20
293.35312295626255
 10
55.832757793978956
 20
293.75837230917915
 10
56.16724220602108
 20
294.2416276908211
 10
56.38792919520428
 20
294.6468770437377
 10
56.58981171664988
 20
294.9975305347833
 10
56.74352161668349
 20
295.3358027985502
 10
56.94540413812909
 20
295.68645628959587
 10
57.16609112731229
 20
296.09170564251247
 10
57.50057553935446
 20
296.57496102415456
 10
57.72126252854349
 20
296.9802103770769
 10
57.923145050464
 20
297.3308638685974
 10
58.07685497332573
 20
297.6691361551924
 10
58.278738215704124
 20
298.0197903671708
 10
58.49944084209553
 20
298.4250553572955
 10
58.834161357116685
 20
298.90854684191675
 10
59.0573021514745
 20
299.3162500000079
 10
59.27603118185888
 20
299.68374999999224
 10
59.499171976216694
 20
300.09145315808337
 10
59.83389249123788
 20
300.5749446427045
 10
60.05459511763514
 20
300.98020963283517
 10
60.25647836048843
 20
301.33086384528843
 10
60.41018830617827
 20
301.6691361547116
 10
60.61207154903157
 20
302.01979036716494
 10
60.83277417542884
 20
302.42505535729566
 10
61.16749469045002
 20
302.9085468419168
 10
61.29589636524938
 20
303.1431510453774
 10
61.2958963652494
 20
303.1431510453774
 10
61.39063548480783
 20
303.31625000000787
 10
61.6093645151922
 20
303.68374999999236
 10
61.832505309550015
 20
304.09145315808354
 10
62.16722582457121
 20
304.5749446427047
 10
62.387928450968474
 20
304.9802096328353
 10
62.58981169382176
 20
305.3308638452885
 10
62.7435216395116
 20
305.6691361547117
 10
62.94540488236492
 20
306.01979036716494
 10
63.16610750876805
 20
306.4250553573014
 10
63.500828024264145
 20
306.9085468423975
 10
63.72396884145008
 20
307.3162500233168
 10
63.942698592767265
 20
307.6837507442341
 10
64.16585502433915
 20
308.09146953953933
 10
64.50081164281424
 20
308.5751971276144
 10
64.72396809720837
 20
308.9829159457418
 10
64.94269856945834
 20
309.3504173875918
 10
65.16585502385834
 20
309.75813620572507
 10
65.50081164280837
 20
310.24186379427516
 10
65.72396809721423
 20
310.6495826124143
 10
65.94269856993913
 20
311.01708405473914
 10
66.16585504716726
 20
311.4248028957007
 10
66.50081238705008
 20
311.90853120518346
 10
66.72398447866414
 20
312.3162656605309
 10
66.94295105436808
 20
312.68400320583487
 10
67.16856133677081
 20
313.094175851971
 10
67.52036518559241
 20
313.59475067039244
 10
67.81296817153068
 20
314.0719160200641
 10
68.16477274081016
 20
314.5724915589437
 10
68.39039866042108
 20
314.9826798422878
 10
68.60960133957894
 20
315.3506534910456
 10
68.83522725919575
 20
315.76084177439583
 10
69.18703182895015
 20
316.2614173137502
 10
69.47963483772243
 20
316.7385826862559
 10
69.83143940795175
 20
317.2391582260852
 10
70.05706535039666
 20
317.64934653226334
 10
70.27626875048733
 20
318.017320901954
 10
70.50191030731231
 20
318.4275248225124
 10
70.85395098004575
 20
318.92833646484587
 10
71.14900779398677
 20
319.4079556425202
 10
71.51765887267997
 20
319.9253776908134
 10
71.81271568662686
 20
320.4049968684935
 10
72.16475635983521
 20
320.9058085113019
 10
72.39039793949419
 20
321.3160124546942
 10
72.60960206099256
 20
321.6839875457926
 10
72.83524366347967
 20
322.0941915120129
 10
73.18728505809572
 20
322.5950038762291
 10
73.48235753208479
 20
323.0746387139515
 10
73.85124543516471
 20
323.59229758663145
 10
74.14877171431667
 20
324.0743862295168
 10
74.51789571990066
 20
324.59228120470084
 10
74.81543761343269
 20
325.0743854619662
 10
75.18456161901672
 20
325.5922804371502
 10
75.48208789816867
 20
326.07436908003535
 10
75.85097580124858
 20
326.5920279527153
 10
76.14604827523765
 20
327.07166279043764
 10
76.49808966985371
 20
327.5724751546538
 10
76.72373127234668
 20
327.9826791208801
 10
76.80761262635573
 20
328.1234896523834
 10
76.94293539432
 20
328.3506542124535
 10
77.16857699681299
 20
328.76085817867977
 10
77.52061839142907
 20
329.2616705428958
 10
77.81569086541812
 20
329.7413053806182
 10
78.18457876849807
 20
330.2589642532982
 10
78.48210504765588
 20
330.74105289618933
 10
78.85122905371485
 20
331.25894787184825
 10
79.14877097008086
 20
331.74105215194766
 10
79.51789569707257
 20
332.2589478485394
 10
79.81543763626672
 20
332.7410521514667
 10
80.18456236373338
 20
333.25894784853347
 10
80.48210430293923
 20
333.7410521514727
 10
80.85122903088084
 20
334.2589478490142
 10
81.14877099291483
 20
334.7410521747816
 10
81.51789644178922
 20
335.2589485932559
 10
81.81545404103139
 20
335.7410685562314
 10
82.18481559288476
 20
336.25920107768496
 10
82.4848269972957
 20
336.7437748458292
 10
82.87103505761296
 20
337.2787538757464
 10
83.24047733351999
 20
337.83275851538673
 10
83.75952266648007
 20
338.5005748179468
 10
84.12896494239295
 20
339.05457945759304
 10
84.51517300318514
 20
339.58955848798524
 10
84.81518443043007
 20
340.0741322789636
 10
85.18454670369117
 20
340.5922655218246
 10
85.48211996297553
 20
341.0744011448422
 10
85.85148223623668
 20
341.5925343877033
 10
86.15149366348746
 20
342.07710817868735
 10
86.53770172475458
 20
342.61208720955466
 10
86.90714402350146
 20
343.1660918720348
 10
87.42619007786922
 20
343.8339088960026
 10
87.79564801381845
 20
344.3879291956851
 10
88.18209289852246
 20
344.9231450499892
 10
88.48457376815017
 20
345.4101882833503
 10
88.87101865332909
 20
345.94540413812905
 10
89.2404766121123
 20
346.4994244606456
 10
89.75952338788777
 20
347.16724220602117
 10
90.12898134667684
 20
347.72126252854355
 10
90.51542623233073
 20
348.2564783837974
 10
90.8179071247983
 20
348.74352163999833
 10
91.20435273138492
 20
349.278738216185
 10
91.57382635021034
 20
349.8327741987438
 10
92.09310995037255
 20
350.500828768506
 10
92.46503737437253
 20
351.05731855623924
 10
92.86856559287702
 20
351.60961774434367
 10
93.24294682205162
 20
352.16856133725156
 10
93.77931303413165
 20
352.8536985189317
 10
94.22068698966991
 20
353.47963483820325
 10
94.75705392315766
 20
354.16477274129113
 10
95.1314508352026
 20
354.7237320170693
 10
95.53521659950151
 20
355.27626875096826
 10
95.90962914876052
 20
355.8352436639605
 10
96.446232906635
 20
356.52061839143505
 10
96.89007635022406
 20
357.1490241987574
 10
97.44352661751225
 20
357.8512454356456
 10
97.88982388910404
 20
358.48210507097076
 10
98.4435109803041
 20
359.1845631317709
 10
98.7861235920259
 20
359.6688502880158
 10
98.88983952631816
 20
359.8154540415182
 10
99.44376344190488
 20
360.51814892670495
 10
99.89254583874394
 20
361.15149368727725
 10
100.46331698420224
 20
361.87103580233554
 10
100.98154588975729
 20
362.573827071624
 10
101.68539041131235
 20
363.426442562779
 10
102.20607314487016
 20
364.1316876600702
 10
102.793927623654
 20
364.86831310845406
 10
103.31462601725397
 20
365.57357386578735
 10
104.01870808460345
 20
366.4264269027368
 10
104.53942213824564
 20
367.1317033201123
 10
105.12751416282394
 20
367.8685663142906
 10
105.65068204446888
 20
368.57629655966883
 10
106.3718474451439
 20
369.44623292994396
 10
106.96446183550482
 20
370.22340968403824
 10
107.70247446605146
 20
371.1101932841849
 10
108.29754270723738
 20
371.8898238891041
 10
109.03579216217072
 20
372.7768443136374
 10
109.63089167778479
 20
373.55650619298484
 10
110.36937795710487
 20
374.443763441905
 10
110.96693132354982
 20
375.2258791720832
 10
111.72226483321641
 20
376.12998365134973
 10
112.38926473121134
 20
376.98154591307804
 10
113.27767233838236
 20
378.018724489849
 10
113.94714172441634
 20
378.87275623961654
 10
114.16929377625644
 20
379.13768262452305
 10
114.71979611272799
 20
379.79418159752817
 10
115.39175060118698
 20
380.6506984497203
 10
116.29771518998207
 20
381.7054340081155
 10
116.73739773069005
 20
382.254208865992
 10
116.73739773069006
 20
382.254208865992
 10
117.04157003798207
 20
382.63385121984885
 10
117.98122908652033
 20
383.72228123798715
 10
118.79698429406722
 20
384.72259880926725
 10
119.86995354356387
 20
385.94433902836397
 10
120.68819387636974
 20
386.9471417249032
 10
121.64541062841478
 20
388.05312944654827
 10
122.46613610931361
 20
389.05841729118043
 10
123.55666378419969
 20
390.2977159356665
 10
124.44930530752742
 20
391.3749198227275
 10
125.57376498842616
 20
392.6481504732262
 10
126.54079201940547
 20
393.7997398679389
 10
127.8158827813327
 20
395.2236015994662
 10
128.85978046807995
 20
396.4520616499467
 10
130.1863616633098
 20
397.9274138147766
 10
131.37906179974928
 20
399.30467631494935
 10
132.5190964099349
 20
400.54783277295763
 10
133.0237574476893
 20
401.09814293247763
 10
134.44217812643066
 20
402.70112597400237
 10
136.3412127842521
 20
404.74893155574415
 10
138.14433084218285
 20
406.7366105336429
 10
140.80483963472102
 20
409.54585893001695
 10
142.04604161106028
 20
410.8702351358985
 10
143.55195837670175
 20
412.47706494319215
 10
148.02101116324346
 20
417.08991840314786
 10
151.78821647852283
 20
420.95868223479863
 10
153.5821568166396
 20
422.8009846620373
 10
154.59592729045016
 20
423.81475513584786
 10
162.44223455351886
 20
431.6610623989166
 10
164.22900444334735
 20
433.3985306225535
 10
167.8755929864662
 20
436.94450022637056
 10
171.88994886778977
 20
440.8150554342802
 10
174.53610132239277
 20
443.27712061768864
 10
174.9625148340392
 20
443.68053953723916
 10
177.29434015211524
 20
445.8866198435752
 10
179.3465268453003
 20
447.75424561679233
 10
181.56062661553332
 20
449.8195744631049
 10
183.30983281557994
 20
451.3842183003683
 10
185.28762064305877
 20
453.2132351582589
 10
186.81362265573742
 20
454.55467480720415
 10
187.13397712037937
 20
454.84631316286857
 10
188.47329891472367
 20
456.0655800965905
 10
189.84804478667618
 20
457.25576360480966
 10
190.12275137510812
 20
457.5047846521676
 10
191.4391487232744
 20
458.6980965718079
 10
192.6651392399894
 20
459.7395247247895
 10
193.95592687258716
 20
460.8815413877872
 10
195.03806971290993
 20
461.77912186437663
 10
196.29445241212923
 20
462.886733593996
 10
197.3691868111395
 20
463.77690562927285
 10
198.60801252731005
 20
464.8669603758434
 10
199.6108152466891
 20
465.6852007314892
 10
200.69971819361794
 20
466.62533270881795
 10
201.6306048934079
 20
467.37165704487467
 10
202.70218840308237
 20
468.2944695849492
 10
203.62815180964694
 20
469.03587062778035
 10
204.68265126506296
 20
469.9415991135964
 10
205.53915248004714
 20
470.6135379648472
 10
206.46057711702602
 20
471.3861916322261
 10
207.31460884396517
 20
472.05566099543205
 10
208.3517874202613
 20
472.944068602128
 10
209.20334968198375
 20
473.6110685001171
 10
210.10745416125036
 20
474.36640200978366
 10
210.88956989142855
 20
474.96395537622857
 10
211.25002155778137
 20
475.2639682645804
 10
211.77682714034862
 20
475.7024416555487
 10
212.556489019696
 20
476.2975411711628
 10
213.4435094442293
 20
477.035790626096
 10
214.22314004914864
 20
477.630858867282
 10
215.1099236492953
 20
478.3688714978287
 10
215.88710040338952
 20
478.96148588818966
 10
216.7570367736646
 20
479.68265128886463
 10
217.46476701904282
 20
480.2058191705096
 10
218.2016300132211
 20
480.79391119508784
 10
218.9069064305966
 20
481.31462524872995
 10
219.75975946754608
 20
482.0187073160795
 10
220.46502022487942
 20
482.53940570967944
 10
221.20164567326327
 20
483.1272601884633
 10
221.90689077055447
 20
483.6479429220212
 10
222.0174588605977
 20
483.7392182333931
 10
222.0174588605978
 20
483.7392182333932
 10
222.75950626170953
 20
484.3517874435762
 10
223.46229753099792
 20
484.8700163491312
 10
224.18183964605618
 20
485.44078749458953
 10
224.81518440663447
 20
485.8895698914345
 10
225.51787929229613
 20
486.4434938074962
 10
226.14877022487752
 20
486.8898223763442
 10
226.8512290070853
 20
487.443510188952
 10
226.93355980595646
 20
487.5017551392263
 10
227.48210430245263
 20
487.88982312058596
 10
228.1845623637275
 20
488.44351021226095
 10
228.8154376362667
 20
488.8898231210669
 10
229.5178956970667
 20
489.4435102122668
 10
230.14877096959418
 20
489.88982312106083
 10
230.85122902991924
 20
490.443510211786
 10
231.48210427961857
 20
490.889823097752
 10
232.18456161901085
 20
491.4435094675442
 10
232.81542123149615
 20
491.88980671629616
 10
233.51764246743448
 20
492.44325698263447
 10
234.14604825192288
 20
492.8871004033896
 10
234.83142225846458
 20
493.42370344033134
 10
235.39038153424283
 20
493.7981003523762
 10
235.94268216468777
 20
494.2016300132211
 10
236.49918761246332
 20
494.5735730972633
 10
237.16747828567944
 20
495.09309280087956
 10
237.72396807341866
 20
495.46502022488545
 10
238.2760311585441
 20
495.86831234041085
 10
238.83250530906926
 20
496.24022412720257
 10
239.5005591578987
 20
496.75950700643205
 10
240.05459511762925
 20
497.12898060242935
 10
240.58981169334098
 20
497.515426208541
 10
241.0768549495302
 20
497.8179071009969
 10
241.61207080430913
 20
498.2043519861758
 10
242.16609110399753
 20
498.57380992213086
 10
242.83390812796534
 20
499.0928559764987
 10
243.3879127904396
 20
499.46229827523973
 10
243.92289182083175
 20
499.84850633603196
 10
244.40746558898195
 20
500.14851774044865
 10
244.92559811043537
 20
500.51787929230204
 10
245.40771807341088
 20
500.8154368915442
 10
245.92561449188526
 20
501.1845623404186
 10
246.4077188176526
 20
501.4821043024525
 10
246.92561451519418
 20
501.8512290303941
 10
247.4077188181334
 20
502.14877096960004
 10
247.9256145152001
 20
502.51789569706676
 10
248.4077188181334
 20
502.8154376362668
 10
248.92561451520007
 20
503.1845623637334
 10
249.4077188181334
 20
503.4821043029334
 10
249.9256145152001
 20
503.8512290304002
 10
250.40771881813342
 20
504.14877096960015
 10
250.9256145152001
 20
504.5178956970668
 10
251.40771881813342
 20
504.8154376362668
 10
251.73383116049808
 20
505.0478707886963
 10
251.92561451520004
 20
505.18456236373345
 10
252.40771881813342
 20
505.48210430293346
 10
252.9256145152001
 20
505.8512290304002
 10
253.4077188181334
 20
506.1487709695998
 10
253.92561451520007
 20
506.5178956970668
 10
254.4077188181334
 20
506.8154376362668
 10
254.9256145152001
 20
507.18456236373345
 10
255.40771881813342
 20
507.4821043029335
 10
255.92561451520007
 20
507.8512290304001
 10
256.4077188181275
 20
508.14877096959424
 10
256.9256145147192
 20
508.5178956965859
 10
257.40771879481855
 20
508.815437612952
 10
257.9256137704775
 20
509.18456161901076
 10
258.4077024133687
 20
509.48208789816874
 10
258.9253612860486
 20
509.85097580124875
 10
259.40499612377096
 20
510.1460482752377
 10
259.905808487987
 20
510.4980896698539
 10
260.31601245421336
 20
510.72373127234675
 10
260.6839875457867
 20
510.9429353943202
 10
261.09419151200717
 20
511.16857699680713
 10
261.42121726102505
 20
511.39845670613437
 10
261.59500387574826
 20
511.52061839094824
 10
262.0746386906366
 20
511.8156908421033
 10
262.59229684190893
 20
512.1845780237757
 10
263.07436982475787
 20
512.4820886428913
 10
263.59202797603007
 20
512.8509758245634
 10
264.07166279091257
 20
513.1460482757127
 10
264.5724751541788
 20
513.4980896693789
 10
264.98267909756527
 20
513.723731249032
 10
264.99288049709907
 20
513.7298082523497
 10
265.35065346773087
 20
513.9429346495976
 10
265.760841773915
 20
514.1685605920483
 10
266.26141731374435
 20
514.5203651622776
 10
266.73858268624997
 20
514.8129681710498
 10
267.23915822560434
 20
515.1647727408043
 10
267.64934650895447
 20
515.3903986604212
 10
268.01732015771233
 20
515.6096013395791
 10
268.42750844106246
 20
515.8352272591959
 10
268.9280839804169
 20
516.1870318289501
 10
269.4052493529166
 20
516.4796348377166
 10
269.90582489227097
 20
516.8314394074711
 10
270.31601317562115
 20
517.0570653270878
 10
270.683986824379
 20
517.2762680062457
 10
271.09417510772914
 20
517.5018939258625
 10
271.5947506470835
 20
517.8536984956169
 10
272.0719160195833
 20
518.1463015043834
 10
272.5724915589376
 20
518.4981060741376
 10
272.9826798422878
 20
518.7237319937544
 10
273.35065349104565
 20
518.9429346729124
 10
273.7608417743899
 20
519.1685605925232
 10
274.26141731326936
 20
519.5203651618026
 10
274.738582662941
 20
519.8129681477409
 10
275.23915748136255
 20
520.1647719965626
 10
275.6493301274987
 20
520.3903822789653
 10
276.01706767280257
 20
520.6093488546693
 10
276.42480212814996
 20
520.8325209462834
 10
276.90853043763286
 20
521.1674782861661
 10
277.3162492785942
 20
521.3906347633944
 10
277.6837507209192
 20
521.6093652361193
 10
278.09146953905844
 20
521.8325216905251
 10
278.33304041282946
 20
521.99979716753
 10
278.5751971276084
 20
522.1674783094751
 10
278.9829159457417
 20
522.390634763875
 10
279.3504173875917
 20
522.609365236125
 10
279.7581362057191
 20
522.8325216905191
 10
280.2418637937943
 20
523.1674783089944
 10
280.6495825890995
 20
523.3906347405663
 10
281.01708331001663
 20
523.6093644918835
 10
281.4247864909359
 20
523.8325053090693
 10
281.9082779760319
 20
524.1672258245654
 10
282.3135429661626
 20
524.3879284509627
 10
282.66419717814097
 20
524.589811693341
 10
283.002469464736
 20
524.7435216162029
 10
283.3531229562565
 20
524.9454041381233
 10
283.7583723091789
 20
525.1660911273124
 10
284.2416276908211
 20
525.5005755393545
 10
284.6468770437376
 20
525.7212625285376
 10
284.99753053478327
 20
525.9231450499832
 10
285.11475122652337
 20
525.9764097800222
 10
289.432505201701
 20
518.3545080895032
 10
289.82277142498003
 20
518.5692277570656
 10
290.35219572098
 20
518.8471403986655
 10
290.90462244203
 20
519.1510787741156
 10
291.51415446683006
 20
519.5090991445156
 10
292.16081267913
 20
519.9072690112156
 10
292.77034470393
 20
520.2652893816157
 10
293.32277142498003
 20
520.5692277570656
 10
293.85219572098003
 20
520.8471403986656
 10
294.40462244203
 20
521.1510787741157
 10
295.01415446683
 20
521.5090991445156
 10
295.66081267927996
 20
521.9072690113658
 10
296.27034471602997
 20
522.2652893938657
 10
296.82277186653
 20
522.5692282107656
 10
297.35220533798
 20
522.8471504614655
 10
297.90476128938
 20
523.1512274032655
 10
298.51554948183
 20
523.5106368615654
 10
299.17076998208
 20
523.9186819146157
 10
299.82095137003
 20
524.3265279287157
 10
300.50354110023
 20
524.8060693036156
 10
301.29397947533005
 20
525.5022751678155
 10
302.11893882898
 20
526.4501530623655
 10
302.78027561643
 20
527.4477408893156
 10
303.31092956038003
 20
528.3826449708654
 10
303.88934669753
 20
529.2845375229156
 10
304.62674598863003
 20
530.0795483928155
 10
305.49315348093
 20
530.6203002862156
 10
306.52496157913004
 20
530.8836239266157
 10
307.6934056532801
 20
530.8572675783156
 10
308.81787335118
 20
530.5048048908155
 10
309.90025270473
 20
529.7987253305656
 10
310.92122187178006
 20
528.8429023064156
 10
311.67062313213006
 20
527.9598772556656
 10
312.13667086543
 20
527.2774649050655
 10
312.44724334078006
 20
526.7216365812155
 10
312.71126316693
 20
526.2095660503655
 10
312.96152826848
 20
525.7046368527656
 10
313.21313093778
 20
525.1875784073657
 10
313.46075333377996
 20
524.6230781879656
 10
313.70610047032994
 20
523.9403814518156
 10
313.92380986058004
 20
523.0463614455656
 10
314.0669150657801
 20
521.8892184211657
 10
314.04896678998
 20
520.5953099804656
 10
313.83608461168
 20
519.5009520032656
 10
313.44409551138
 20
518.6951230536656
 10
312.86730093078
 20
518.1048312898656
 10
312.10184638968
 20
517.7090848047155
 10
311.07244666153
 20
517.4896596159657
 10
309.7768721771301
 20
517.4413680458157
 10
308.40154022453004
 20
517.4795282437157
 10
307.11721944133006
 20
517.4487460199657
 10
306.12190808493006
 20
517.2959668660656
 10
305.41176429068
 20
517.0764650308655
 10
304.84816287692996
 20
516.8279678259155
 10
304.32121568398
 20
516.5656363778656
 10
303.77005302973
 20
516.2648009249156
 10
303.16077830273
 20
515.9072212953156
 10
302.51415180468007
 20
515.5090958798656
 10
301.90462230968006
 20
515.1510786254656
 10
301.35219571713003
 20
514.8471403946155
 10
300.82277142493
 20
514.5692277570155
 10
300.27034470393
 20
514.2652893816155
 10
299.66081267913
 20
513.9072690112156
 10
299.01415446683006
 20
513.5090991445156
 10
298.40462244203
 20
513.1510787741156
 10
297.85219572098
 20
512.8471403986655
 10
297.32277142498003
 20
512.5692277570655
 10
296.7703447039301
 20
512.2652893816156
 10
296.1608126791301
 20
511.9072690112157
 10
295.51415446683
 20
511.50909914451563
 10
294.90462244203
 20
511.1510787741157
 10
294.35219572098003
 20
510.84714039866566
 10
293.83821851406736
 20
510.577336454316
 10
298.6268676279266
 20
502.1241885940968
 10
300.60811030135744
 20
498.62680616592587
 10
300.77769618159147
 20
498.3274452216306
 10
300.68373433946937
 20
498.276015521336
 10
300.3159967941654
 20
498.05704894563206
 10
299.90582414802935
 20
497.8314386632293
 10
299.4052493296078
 20
497.4796348144078
 10
298.9280839799361
 20
497.18703182846946
 10
298.72681837159615
 20
497.0455823265395
 10
298.42750844105666
 20
496.8352272591899
 10
298.01732015771233
 20
496.60960133957906
 10
297.64934650895447
 20
496.39039866042117
 10
297.23915822560434
 20
496.1647727408043
 10
296.7385826862498
 20
495.81296817105
 10
296.26141731374423
 20
495.52036516227776
 10
295.76084177391493
 20
495.1685605920485
 10
295.3506534677367
 20
494.94293464960356
 10
294.98267909804605
 20
494.7237312495129
 10
294.5724751774878
 20
494.49808969268787
 10
294.07166353515436
 20
494.14604901995443
 10
293.59204435747995
 20
493.8509922060135
 10
293.48362762932953
 20
493.77374782898534
 10
293.4836276293296
 20
493.77374782898534
 10
293.0746223091868
 20
493.4823411273202
 10
292.5950031315067
 20
493.1872843133733
 10
292.09419148869824
 20
492.835243640165
 10
291.68398754531177
 20
492.6096020605119
 10
291.3160124546884
 20
492.39039793948837
 10
290.90580851130187
 20
492.1647563598352
 10
290.40499686849364
 20
491.8127156866269
 10
289.9253776908134
 20
491.51765887268004
 10
289.4079556425201
 20
491.14900779398675
 10
288.92833646483996
 20
490.85395098004
 10
288.4275248220316
 20
490.5019103068315
 10
288.0173208786393
 20
490.2762687271726
 10
287.64934578754094
 20
490.0570646056742
 10
287.2391418213204
 20
489.8314230031872
 10
286.73832945710444
 20
489.47938160857115
 10
286.44758443909785
 20
489.30051459346873
 10
286.2586946193878
 20
489.1843091345879
 10
285.74103574718276
 20
488.81542123198284
 10
285.25894712712574
 20
488.51789497565903
 10
284.7410528728744
 20
488.1487716910078
 10
284.2589642528173
 20
487.8512454346839
 10
283.74130538061223
 20
487.4823575320789
 10
283.26167054289573
 20
487.18728505809565
 10
282.7608581786797
 20
486.8352436634796
 10
282.3506542124534
 20
486.60960206098673
 10
281.98267912088
 20
486.39039793901344
 10
281.5724751546537
 20
486.16475633652044
 10
281.07166279043764
 20
485.8127149419044
 10
280.5920279527152
 20
485.51764246791527
 10
280.07436908003535
 20
485.14875456483543
 10
279.5922804371442
 20
484.8512282856776
 10
279.07438546148524
 20
484.4821042796186
 10
278.59228118138003
 20
484.18456236324664
 10
278.0743854843134
 20
483.81543763578003
 10
277.5922811585519
 20
483.51789567375187
 10
277.07438474007756
 20
483.14877022487747
 10
276.59226477710206
 20
482.8512126256353
 10
276.0741322556486
 20
482.4818510737819
 10
276.0551916253732
 20
482.4701244689533
 10
275.58955848750435
 20
482.1818396693711
 10
275.054579457587
 20
481.7956316090538
 10
274.50057481794073
 20
481.42618933314094
 10
273.8327585149059
 20
480.907143999706
 10
273.27875385243146
 20
480.537701700965
 10
272.74377410110657
 20
480.15149291924
 10
272.2591846729143
 20
479.85146585478094
 10
271.7408153265992
 20
479.48186747806585
 10
271.2562258755788
 20
479.18184039077886
 10
270.721245402846
 20
478.7956308876461
 10
270.1672250803236
 20
478.42617292885706
 10
269.499171952427
 20
477.9068907705605
 10
268.9426978247359
 20
477.53497900660267
 10
268.3906347405603
 20
477.1316868920271
 10
267.83414497566093
 20
476.75975949086103
 10
267.1658550238525
 20
476.24024050865256
 10
266.6093652361191
 20
475.86831308465247
 10
266.0573014300609
 20
475.46502024819426
 10
265.5008116194995
 20
475.0930928013662
 10
265.3258183587411
 20
474.95705551907633
 10
265.3258183587409
 20
474.95705551907616
 10
264.83252094628335
 20
474.57357309775006
 10
264.276015521336
 20
474.2016300365359
 10
263.72371561229863
 20
473.7981010970987
 10
263.1647719965626
 20
473.4237198450959
 10
262.47963481440763
 20
472.8873536325411
 10
261.85369849513023
 20
472.4459796769969
 10
261.16856059204247
 20
471.90961274350906
 10
260.60960131626416
 20
471.5352158314642
 10
260.05706458236523
 20
471.13145006716536
 10
259.4980896693729
 20
470.7570375179063
 10
258.81271494189843
 20
470.2204337600319
 10
258.3904362498119
 20
469.92217803631746
 10
258.18430913458195
 20
469.7765903164486
 10
257.48208789816874
 20
469.2231400496355
 10
256.85122828567756
 20
468.7768428008776
 10
256.14877094628537
 20
468.2231564310854
 10
255.51789569658592
 20
467.7768435451193
 10
254.81543763626084
 20
467.22315645439414
 10
254.1845623637334
 20
466.77684354560006
 10
253.48210430293338
 20
466.22315645440017
 10
252.8512290303942
 20
465.7768435455942
 10
252.14877096911925
 20
465.22315645391916
 10
251.5178956737461
 20
464.7768435222795
 10
250.81543689106337
 20
464.2231557091968
 10
250.18454593565383
 20
463.7768271175206
 10
249.4818503290594
 20
463.22290248052616
 10
248.84848993126707
 20
462.7741044464671
 10
248.12871171275484
 20
462.2030971975549
 10
247.4607264588226
 20
461.7099234210485
 10
247.4234666154637
 20
461.68241446399713
 10
246.55400389443702
 20
460.9617227125705
 10
245.7793122656076
 20
460.3715934474744
 10
244.90961272019427
 20
459.6506648716611
 10
244.20188249764993
 20
459.12749701285
 10
243.4647834004927
 20
458.5391688852927
 10
242.75703751790627
 20
458.0159853664396
 10
241.88710042669848
 20
457.29481924483184
 10
241.10992364978193
 20
456.7022048316486
 10
240.22314004963536
 20
455.96419220110204
 10
239.44350946754417
 20
455.3691239827441
 10
238.55648976441853
 20
454.63087524921855
 10
237.77684354511337
 20
454.0357913936468
 10
236.88982312058002
 20
453.2975419387133
 10
236.47083971717964
 20
452.97774270481557
 10
236.11017685561274
 20
452.70245803747935
 10
235.2231557091967
 20
451.96420786066335
 10
234.44349378418133
 20
451.36910829938137
 10
233.55623581337855
 20
450.6306212981786
 10
232.77410442314635
 20
450.0330522716798
 10
231.86976311901805
 20
449.2774819371515
 10
231.015731369239
 20
448.60801255110573
 10
229.9614687377347
 20
447.7025208892015
 10
229.0355209683725
 20
446.96113548357255
 10
227.96393745822317
 20
446.0383229430231
 10
227.03303509839682
 20
445.29198294693015
 10
225.9438946066234
 20
444.3516134247569
 10
224.93860678483105
 20
443.5308879666979
 10
223.68246163283104
 20
442.42351378429777
 10
222.5333730919509
 20
441.4589876071509
 10
221.11022327924923
 20
440.18460876404924
 10
220.31578004900902
 20
439.5100081437423
 10
220.2410700135771
 20
439.4465681969631
 10
219.8867492535514
 20
439.14569710208485
 10
218.44604173639277
 20
437.85376055452605
 10
217.2175973916106
 20
436.8098785734773
 10
216.18093116710173
 20
435.8789719924791
 10
215.75933000102322
 20
435.50038215248986
 10
214.4564528945313
 20
434.38206740973123
 10
212.83046099653683
 20
432.904846481325
 10
211.3761714235261
 20
431.6351192710977
 10
209.52885338141314
 20
429.93657215290494
 10
207.75253135931086
 20
428.3448110507708
 10
205.21818716710985
 20
425.95920646240575
 10
202.31126470295646
 20
423.236371269447
 10
197.93008958874086
 20
418.9989968286453
 10
194.71828022389073
 20
415.93710806928857
 10
191.8926430948991
 20
413.111470940297
 10
191.89264309489909
 20
413.111470940297
 10
191.35089741942744
 20
412.56972526482537
 10
188.14767749752974
 20
409.21658473743435
 10
183.59361678056797
 20
404.5187233470584
 10
180.65265811524938
 20
401.39367741054525
 10
179.22321723023907
 20
399.8820360864269
 10
179.2232172302391
 20
399.8820360864269
 10
178.06612119099123
 20
398.65840088245125
 10
176.32809001874568
 20
396.7358087902376
 10
174.47914936911877
 20
394.7380972166905
 10
173.20693705648404
 20
393.2813225412723
 10
171.86255267931287
 20
391.7881671945129
 10
170.81613822759337
 20
390.55719037906005
 10
169.54080774994952
 20
389.13308893181613
 10
168.5737493531358
 20
387.98146817126917
 10
167.4490528459502
 20
386.70800069448364
 10
166.55395747177403
 20
385.6283429565741
 10
165.84699753132804
 20
384.8264060436894
 10
165.44658256701624
 20
384.3721970822163
 10
164.55641057740144
 20
383.2974627288681
 10
163.46612044925968
 20
382.05840163112634
 10
162.64542628845695
 20
381.05314510659025
 10
161.6884470822064
 20
379.9473949307397
 10
160.8726762374513
 20
378.9470617222513
 10
159.8167903217551
 20
377.7424048369552
 10
159.0729354737551
 20
376.81398762522184
 10
158.28319775211796
 20
375.8754789339846
 10
157.61125890086714
 20
375.0189777190005
 10
156.7226144693094
 20
373.9815623178428
 10
156.05559891127226
 20
373.12998439607236
 10
155.30026468019793
 20
372.225879195398
 10
154.70271129091907
 20
371.4437634423857
 10
153.96422501112406
 20
370.5565061929908
 10
153.36912549551002
 20
369.7768443136434
 10
152.63087604105158
 20
368.889823889585
 10
152.03580782269373
 20
368.1101933074938
 10
151.29779591307994
 20
367.22341042828
 10
150.70519715993308
 20
366.4462493113998
 10
149.98426786271193
 20
365.5765490445787
 10
149.46355380906977
 20
364.87127262720315
 10
148.89230901436304
 20
364.15125686289645
 10
148.44104149225916
 20
363.5154269770592
 10
147.87003352193915
 20
362.7956480371392
 10
147.35180459354427
 20
362.092856745011
 10
146.64819617449328
 20
361.24047735636
 10
146.1299828833124
 20
360.53770170144577
 10
145.55921173737912
 20
359.81815958591244
 10
145.11041370332012
 20
359.18479918812017
 10
144.71358650681623
 20
358.6814390625777
 10
144.55625296334668
 20
358.48186747854663
 10
144.10745492929354
 20
357.8485070807603
 10
143.53668378383523
 20
357.128964965702
 10
143.01847051549422
 20
356.4261893336276
 10
142.31486281832593
 20
355.57381066685923
 10
141.7966495728189
 20
354.8710350576189
 10
141.2258791492432
 20
354.15149366444325
 10
140.77709679806628
 20
353.51814894953304
 10
140.22317360388726
 20
352.815454785754
 10
139.77686069508727
 20
352.1845795132207
 10
139.22340970686628
 20
351.4823575553998
 10
138.7795662404491
 20
350.85395172524915
 10
138.2429624820997
 20
350.1685769972998
 10
137.86854993283484
 20
349.6096020843016
 10
137.46478416853589
 20
349.05706535040275
 10
137.09038725648512
 20
348.49810607461853
 10
136.5540203225225
 20
347.8129681710559
 10
136.11264634415022
 20
347.18703182895024
 10
135.57627941066252
 20
346.5018939258626
 10
135.51268337445504
 20
346.40694764315265
 10
135.20188252145152
 20
345.94293467291834
 10
134.79811747903523
 20
345.39039866090206
 10
134.42372061265246
 20
344.8314394307859
 10
133.88735440057243
 20
344.1463022491059
 10
133.4459960822482
 20
343.5203815670482
 10
132.9098659731472
 20
342.8354804883473
 10
132.53793854914133
 20
342.2789907006081
 10
132.15125683910074
 20
341.74353802096755
 10
131.84876028659684
 20
341.2564791047302
 10
131.4623139590774
 20
340.72126180761086
 10
131.092840340252
 20
340.16722582505207
 10
130.5735574610227
 20
339.49917197622267
 10
130.2016456970648
 20
338.94269784853145
 10
129.79835430342195
 20
338.39063548528867
 10
129.42644256229224
 20
337.83416138042566
 10
128.90716040447055
 20
337.1661082530039
 10
128.53770244568736
 20
336.6120879304874
 10
128.15149294255465
 20
336.07710745775483
 10
127.85146585526756
 20
335.59251800673434
 10
127.4818674785525
 20
335.0741486604192
 10
127.18184041409356
 20
334.5895592322269
 10
126.79563163236853
 20
334.0545794809019
 10
126.42618933362755
 20
333.5005748184276
 10
125.90714400019257
 20
332.8327585153927
 10
125.53770172427969
 20
332.2787538757464
 10
125.1514936639624
 20
331.7437748458291
 10
124.85148225955146
 20
331.25920107768474
 10
124.48212070769806
 20
330.7410685562315
 10
124.18456310845588
 20
330.2589485932559
 10
123.8154376595815
 20
329.74105217478154
 10
123.51789569754752
 20
329.25894784901425
 10
123.14877096960592
 20
328.74105215147256
 10
122.85122903040005
 20
328.25894784853347
 10
122.48210430293335
 20
327.74105215146676
 10
122.18456236373335
 20
327.2589478485334
 10
121.8154376362667
 20
326.7410521514667
 10
121.5178956970667
 20
326.2589478485334
 10
121.3765166907328
 20
326.06058785369265
 10
121.14877096960006
 20
325.7410521514668
 10
120.8512290304059
 20
325.2589478485393
 10
120.48210430341419
 20
324.7410521519476
 10
120.18456238704815
 20
324.25894787184825
 10
119.8154383809892
 20
323.74105289618933
 10
119.51791210183139
 20
323.2589642532982
 10
119.14902419875145
 20
322.7413053806182
 10
118.8539517247624
 20
322.2616705428958
 10
118.50191033014636
 20
321.76085817867965
 10
118.27626872765926
 20
321.3506542124593
 10
118.05706460616086
 20
320.98267912136095
 10
117.83142302650187
 20
320.5724751779686
 10
117.47938235329352
 20
320.07166353516027
 10
117.18432553934663
 20
319.59204435748006
 10
116.81567446065344
 20
319.07462230918696
 10
116.52061764671245
 20
318.5950031315126
 10
116.168576973979
 20
318.094191489179
 10
115.94293541715402
 20
317.68398756862075
 10
115.72373201706336
 20
317.31601319893
 10
115.49810607461843
 20
316.9058248927518
 10
115.14630150438911
 20
316.4052493529225
 10
114.85369849561685
 20
315.9280839804169
 10
114.50189392586243
 20
315.4275084410625
 10
114.2762680062456
 20
315.0173201577123
 10
114.05706532708777
 20
314.64934650895447
 10
113.83143940747684
 20
314.23915822561014
 10
113.47963483819737
 20
313.73858268673064
 10
113.18703185225908
 20
313.26141733705913
 10
112.83522800343748
 20
312.76084251863756
 10
112.60961772102887
 20
312.35066987249564
 10
112.39065114485003
 20
311.9829323267168
 10
112.16747903040785
 20
311.5751978485413
 10
111.83252096959222
 20
311.0914688181257
 10
111.60934885515005
 20
310.68373433995015
 10
111.39038227897122
 20
310.3159967941714
 10
111.16477199656848
 20
309.9058241480353
 10
110.8129681482218
 20
309.40524933008857
 10
110.52036518511161
 20
308.92808400324503
 10
110.16856133676492
 20
308.42750918529845
 10
109.94295105436807
 20
308.0173365391681
 10
109.72398447866415
 20
307.64959899386423
 10
109.5008123870501
 20
307.24186453851684
 10
109.16585504716728
 20
306.75813622903405
 10
108.94269856993915
 20
306.3504173880725
 10
108.72396809721425
 20
305.98291594574766
 10
108.50081164280842
 20
305.57519712760853
 10
108.16585502385837
 20
305.09146953905844
 10
107.94269856945837
 20
304.68375072092516
 10
107.72396809720836
 20
304.3162492790751
 10
107.50081164280834
 20
303.90853046094173
 10
107.16585502385836
 20
303.42480287239175
 10
106.94269856945834
 20
303.01708405425836
 10
106.72396809720836
 20
302.64958261240844
 10
106.50081164280837
 20
302.2418637942751
 10
106.16585502385836
 20
301.75813620572507
 10
105.94269856945839
 20
301.3504173875917
 10
105.7239680972084
 20
300.98291594574175
 10
105.50081164280837
 20
300.5751971276085
 10
105.16585502385837
 20
300.09146953905844
 10
104.94269856945836
 20
299.68375072092516
 10
104.7239680972084
 20
299.3162492790752
 10
104.50081164281426
 20
298.90853046094765
 10
104.16585502433918
 20
298.4248028728726
 10
103.94269859276729
 20
298.0170840775673
 10
103.72396884145012
 20
297.64958335665017
 10
103.50082802426415
 20
297.2418801757309
 10
103.1661075087681
 20
296.75838869063483
 10
102.94540488237084
 20
296.3531237005043
 10
102.74352163999242
 20
296.00246948852583
 10
102.58981171713071
 20
295.6641972019308
 10
102.38792919521019
 20
295.3135437104103
 10
102.16724220602111
 20
294.90829435748793
 10
101.83275779397897
 20
294.42503897584567
 10
101.61207080479579
 20
294.0197896229291
 10
101.41018828335018
 20
293.66913613188353
 10
101.25647838331656
 20
293.33086386811664
 10
101.05459586187098
 20
292.98021037707105
 10
100.83390887268777
 20
292.5749610241545
 10
100.49942446064564
 20
292.09170564251247
 10
100.27873747146239
 20
291.68645628959587
 10
100.07685495001682
 20
291.3358027985502
 10
99.92314504998319
 20
290.9975305347833
 10
99.72126252853762
 20
290.6468770437377
 10
99.50057553935443
 20
290.2416276908211
 10
99.16609112731231
 20
289.75837230917915
 10
99.00387964347617
 20
289.460502012867
 10
99.00387964347618
 20
289.460502012867
 10
98.94540413812913
 20
289.35312295626255
 10
98.74352161668355
 20
289.0024694652169
 10
98.58981171665582
 20
288.6641972014558
 10
98.38792919568515
 20
288.31354371088514
 10
98.16724222933591
 20
287.9082943808026
 10
97.83275853870147
 20
287.4250397205681
 10
97.61208720955459
 20
287.01980602768793
 10
97.41044151202081
 20
286.66938936055413
 10
97.25920105437001
 20
286.33358653917
 10
97.0744011448422
 20
286.0000156600423
 10
96.93851756448345
 20
285.6955930414956
 10
96.92559885515783
 20
285.66665100662453
 10
96.74079894563006
 20
285.33308012749677
 10
96.58955848798514
 20
284.9972773061185
 10
96.3879127909263
 20
284.64686063945976
 10
96.16724148461341
 20
284.24162696941346
 10
95.83275851538667
 20
283.75837303058665
 10
95.61208720907376
 20
283.35313936054047
 10
95.41044151201488
 20
283.00272269388165
 10
95.25920105436997
 20
282.66691987250334
 10
95.07440114484223
 20
282.3333489933755
 10
94.92559885515783
 20
281.99998433995785
 10
94.74079894563006
 20
281.66641346083014
 10
94.58955848798516
 20
281.33061063945183
 10
94.38791279092628
 20
280.98019397279296
 10
94.16724148461338
 20
280.5749603027468
 10
93.8327585153867
 20
280.09170636392
 10
93.61208720907965
 20
279.6864726938796
 10
93.4104415124957
 20
279.33605602769563
 10
93.2592010776789
 20
279.0002532291456
 10
93.07440188908392
 20
278.6666830709506
 10
92.92561523660774
 20
278.33333405474104
 10
92.74105143005899
 20
277.9999992785923
 10
92.59226477758278
 20
277.6666502623828
 10
92.4074655889878
 20
277.33308010418784
 10
92.25622515417103
 20
276.99727730563774
 10
92.05457945758707
 20
276.6468606394538
 10
91.83390815128004
 20
276.24162696941335
 10
91.49942518205336
 20
275.75837303058665
 10
91.2787538757463
 20
275.3531393605463
 10
91.07710817916238
 20
275.00272269436243
 10
90.92586774435145
 20
274.6669198958181
 10
90.74106855623141
 20
274.33334973809804
 10
90.59228192658921
 20
274.00000074472257
 10
90.40771884144816
 20
273.6666666899815
 10
90.25894784901419
 20
273.33333333381415
 10
90.07438548480592
 20
273.0000000000059
 10
89.92561451520007
 20
272.66666666666674
 10
89.74105215146668
 20
272.3333333333333
 10
89.5922811818667
 20
272.0
 10
89.40771881813335
 20
271.6666666666667
 10
89.25894784853332
 20
271.3333333333333
 10
89.07438548480003
 20
271.0
 10
88.92561451520001
 20
270.6666666666667
 10
88.74105215146672
 20
270.3333333333333
 10
88.59228118186668
 20
270.0
 10
88.4077188181333
 20
269.66666666666663
 10
88.25894784852746
 20
269.33333333332746
 10
88.0743854843192
 20
268.99999999951916
 10
87.9256144918852
 20
268.6666666433519
 10
87.74105140674416
 20
268.3333325886108
 10
87.62233421533698
 20
268.0673526659046
 10
87.59226477710197
 20
267.99998359523534
 10
87.40746558898192
 20
267.66641343751525
 10
87.256225154171
 20
267.33061063897105
 10
87.05457945758707
 20
266.9801939727871
 10
86.83390815128004
 20
266.5749603027467
 10
86.49942518205336
 20
266.09170636392
 10
86.2787538757463
 20
265.6864726938797
 10
86.07710817916238
 20
265.33605602769575
 10
85.92586774435145
 20
265.00025322915144
 10
85.74106855623141
 20
264.6666830714314
 10
85.59228192658921
 20
264.3333340780558
 10
85.40771884144816
 20
264.0000000233089
 10
85.25894784901419
 20
263.6666666666667
 10
85.07438548480592
 20
263.3333333100244
 10
84.92561451520007
 20
262.9999992552775
 10
84.74105215146668
 20
262.666650261902
 10
84.5922811818667
 20
262.33308010418193
 10
84.40771881813335
 20
261.9972773056377
 10
84.25894784853332
 20
261.6468606394538
 10
84.07438548480003
 20
261.24162696941335
 10
83.92561451520001
 20
260.75837303058665
 10
83.74105215146672
 20
260.3531393605463
 10
83.59228118186668
 20
260.00272269436243
 10
83.40771881813335
 20
259.6669198958181
 10
83.25894784853334
 20
259.33334973809804
 10
83.07438548480002
 20
259.00000074472257
 10
82.92561451520002
 20
258.6666666899815
 10
82.74105215146668
 20
258.33333333381415
 10
82.5922811818667
 20
258.0000000000059
 10
82.40771881813333
 20
257.66666666666674
 10
82.25894784853337
 20
257.3333333333333
 10
82.07438548480002
 20
257.0
 10
81.92561451520002
 20
256.6666666666667
 10
81.74105215146669
 20
256.3333333333333
 10
81.59228118186667
 20
256.0
 10
81.40771881813338
 20
255.66666666666666
 10
81.25894784853335
 20
255.33333333333331
 10
81.07438548480003
 20
254.9999999999941
 10
80.98595267647937
 20
254.8018591738988
 10
80.9256145152
 20
254.66666666618588
 10
80.74105215146669
 20
254.33333331001853
 10
80.59228118186668
 20
253.99999925527752
 10
80.40771881813336
 20
253.66665026190202
 10
80.25894784853337
 20
253.33308010418193
 10
80.07438548480002
 20
252.9972773056377
 10
79.92561451520004
 20
252.6468606394538
 10
79.74105215146668
 20
252.2416269694134
 10
79.5922811818667
 20
251.7583730305867
 10
79.40771881813335
 20
251.35313936054632
 10
79.25894784853332
 20
251.00272269436246
 10
79.07438548480003
 20
250.66691989581815
 10
78.92561451520001
 20
250.33334973809804
 10
78.74105215146672
 20
250.00000074471666
 10
78.59228118186668
 20
249.66666668950066
 10
78.40771881813335
 20
249.33333331049937
 10
78.25894784853334
 20
248.9999992552834
 10
78.07438548480002
 20
248.66665026190205
 10
77.92561451520002
 20
248.33308010418193
 10
77.74105215146668
 20
247.9972773056377
 10
77.5922811818667
 20
247.6468606394538
 10
77.40771881813333
 20
247.2416269694134
 10
77.25894784853337
 20
246.75837303058668
 10
77.21538877677143
 20
246.66273271607815
 10
65.94391769133048
 20
252.3363144749999
 10
61.477796026363386
 20
254.58437120330152
 10
61.48606665658805
 20
254.6008130462141
 10
61.73455500218804
 20
255.10081304621409
 10
61.98606665658804
 20
255.60081304621406
 10
62.234555002188046
 20
256.10081304621406
 10
62.48606665658804
 20
256.60081304621406
 10
62.73455500218803
 20
257.10081304621406
 10
62.98606665658804
 20
257.60081304621406
 10
63.23455500218804
 20
258.10081304621406
 10
63.486066656588044
 20
258.60081304621406
 10
63.73455500218803
 20
259.10081304621406
 10
63.98606665658802
 20
259.60081304621406
 10
64.23455500218802
 20
260.10081304621406
 10
64.48606665658804
 20
260.60081304621406
 10
64.73455500218803
 20
261.10081304621406
 10
64.98606665658804
 20
261.60081304621406
 10
65.23455500218803
 20
262.10081304621406
 10
65.48606665663804
 20
262.6008130462641
 10
65.73455500628803
 20
263.1008130502141
 10
65.98606680918803
 20
263.6008131907141
 10
66.23455840743804
 20
264.10081615416414
 10
66.48611734408804
 20
264.6008572044142
 10
66.73508481028803
 20
265.10124742241413
 10
66.99005491553802
 20
265.6038243836642
 10
67.25640263838801
 20
266.1154776269142
 10
67.57334524218803
 20
266.64973997311415
 10
67.98943102253803
 20
267.20636673456414
 10
68.54122207568803
 20
267.72873973981416
 10
69.19705975138803
 20
268.13927277031416
 10
69.95208740518805
 20
268.4588108508142
 10
70.76852743518803
 20
268.74301794301425
 10
71.52346676443803
 20
269.06428169076423
 10
72.17842917048804
 20
269.4868725392142
 10
72.72410226563804
 20
270.0680942449642
 10
73.10988523183805
 20
270.8223718836642
 10
73.32183879478805
 20
271.79305284811414
 10
73.33921934043804
 20
272.8913758605642
 10
73.19265566868802
 20
273.8329073510141
 10
72.95717495648802
 20
274.5425987222141
 10
72.64726663463802
 20
275.1357505461642
 10
72.23809153998803
 20
275.7044354103142
 10
71.71585458708805
 20
276.2284993650142
 10
71.15923730638805
 20
276.6387296388642
 10
70.62497539383804
 20
276.9548154846142
 10
70.11332201783803
 20
277.22107545701425
 10
69.61074192473802
 20
277.4760393621142
 10
69.11030667748803
 20
277.7250065315142
 10
68.60981245438802
 20
277.97656517101416
 10
68.10652991548803
 20
278.2250505411142
 10
67.58921034168803
 20
278.4764735819142
 10
67.02170780778803
 20
278.7240834052142
 10
66.32429950158804
 20
278.9694299598142
 10
65.38086753278803
 20
279.1871393341642
 10
64.11463011668802
 20
279.3302445511642
 10
62.67415179618803
 20
279.3122967088142
 10
61.47069971598804
 20
279.0994238505142
 10
60.61546500388803
 20
278.7075670924642
 10
60.01054942058805
 20
278.1320729782642
 10
59.61265738703804
 20
277.37561806891415
 10
59.39882686953804
 20
276.38992024801416
 10
59.379915429138045
 20
275.23956710511425
 10
59.51689662053804
 20
274.1768063290142
 10
59.70430614428804
 20
273.2827863387142
 10
59.844710924238036
 20
272.5057079285642
 10
59.843832397788034
 20
271.7976647068142
 10
59.69717374788804
 20
271.17211993111414
 10
59.478978735838034
 20
270.6195167016642
 10
59.23358460188803
 20
270.1043576008142
 10
58.98597152188804
 20
269.60129826256417
 10
58.734548480988046
 20
269.1008606137641
 10
58.48606635938804
 20
268.6008163068141
 10
58.23455499408805
 20
268.10081319481407
 10
57.98606665648804
 20
267.60081305026404
 10
57.73455500218803
 20
267.1008130462641
 10
57.48606665658804
 20
266.60081304621406
 10
57.234555002188046
 20
266.10081304621406
 10
56.98606665658804
 20
265.60081304621406
 10
56.73455500218804
 20
265.10081304621406
 10
56.48606665658805
 20
264.60081304621406
 10
56.234555002188046
 20
264.10081304621406
 10
55.986066656588044
 20
263.60081304621406
 10
55.73455500218804
 20
263.10081304621406
 10
55.48606665658804
 20
262.60081304621406
 10
55.23455500218803
 20
262.10081304621406
 10
54.98606665658804
 20
261.60081304621406
 10
54.734555002188046
 20
261.10081304621406
 10
54.48606665658804
 20
260.60081304621406
 10
54.23455500218804
 20
260.10081304621406
 10
53.98606665658805
 20
259.60081304621406
 10
53.734555002188046
 20
259.10081304621406
 10
53.48855387945886
 20
258.6058177535069
 10
49.022374197030096
 20
260.85390368534456
 10
49.0223741970301
 20
260.85390368534456
 10
40.627725097690536
 20
265.0794149466103
 10
40.74105215146668
 20
265.3333333333333
 10
40.92561451520001
 20
265.6666666666667
 10
41.07438548480002
 20
266.0
 10
41.25894784853334
 20
266.3333333333333
  0
LWPOLYLINE
  5
30
330
17
100
AcDbEntity
  8
default
100
AcDbPolyline
 90
61
 70
0
 10
96.29865767775637
 20
302.61632697929065
 10
95.67305719238833
 20
301.57257562648994
 10
95.6079781557128
 20
301.4848267034929
 10
96.40440680179745
 20
300.37292375182733
 10
99.63279864073894
 20
300.5567487076535
 10
99.77983836176632
 20
300.82539818146444
 10
100.05516566982541
 20
301.2712450434932
 10
100.24076122170159
 20
301.53927285281145
 10
100.33795148144137
 20
301.7168446731838
 10
100.42739892544228
 20
301.87349259018754
 10
100.5999925845695
 20
302.1634769619624
 10
100.7798384081037
 20
302.4920649331896
 10
101.0551656699254
 20
302.93791171051777
 10
101.24076122194862
 20
303.2059395199315
 10
101.33795148145379
 20
303.38351133987305
 10
101.4273989254426
 20
303.5401592568547
 10
101.5999925845695
 20
303.8301436286289
 10
101.7798384081032
 20
304.1587315998554
 10
102.05516566992544
 20
304.60457837718445
 10
102.24076122194842
 20
304.8726061865978
 10
102.33795148145342
 20
305.0501780065391
 10
102.42739892544256
 20
305.20682592352136
 10
102.59999258456972
 20
305.49681029529603
 10
102.7798384081034
 20
305.8253982665224
 10
103.05516566992549
 20
306.27124504385125
 10
103.24076122194849
 20
306.53927285326466
 10
103.3379514814534
 20
306.7168446732058
 10
103.42739892544235
 20
306.8734925901877
 10
103.59999258456982
 20
307.16347696196294
 10
103.77983840810363
 20
307.4920649331895
 10
104.05516566992542
 20
307.93791171051777
 10
104.24076122195557
 20
308.2059395199415
 10
104.33795148147145
 20
308.38351133990056
 10
104.42739892643625
 20
308.54015925852025
 10
104.59999261045878
 20
308.83014367186814
 10
104.77983847823008
 20
309.1587317087033
 10
105.0551665750999
 20
309.60457967403914
 10
105.2407814037077
 20
309.8726351442933
 10
105.3379999319511
 20
310.0502529789263
 10
105.42790612386361
 20
310.20766677432164
 10
105.60313854688262
 20
310.5019561693652
 10
105.78755092261589
 20
310.83722861940646
 10
106.077789582407
 20
311.3025024815945
 10
106.33968361708163
 20
311.6751463834297
 10
106.55054622131195
 20
312.01901276946063
 10
106.72219639386336
 20
312.28024262638394
 10
106.91610439360808
 20
312.5561505282639
 10
107.00937186483448
 20
312.72571622830174
 10
107.09430392515748
 20
312.87406457628606
 10
107.26689040127351
 20
313.16391030648407
 10
107.44653646969387
 20
313.492122888718
 10
107.72183337938762
 20
313.9379135366716
 10
107.9074484477954
 20
314.20596917579485
 10
107.92784907087172
 20
314.2432410250367
 10
107.91923535754904
 20
314.25785829359666
 10
102.34312206180766
 20
315.7129018283449
 10
97.64889801773062
 20
306.8806679810984
 10
97.52457147683683
 20
306.04252652293303
 10
97.22889416291616
 20
304.86211651797765
 10
96.81894020297672
 20
303.7163719546059
 10
96.29865767775637
 20
302.61632697929065
  0
LWPOLYLINE
  5
31
330
17
100
AcDbEntity
  8
default
100
AcDbPolyline
 90
16
 70
0
 10
88.9623639977921
 20
296.5955863528536
 10
87.78195399283676
 20
296.299909038933
 10
86.57824653992331
 20
296.1213559051978
 10
85.36283399983677
 20
296.06164651593303
 10
84.14742145975022
 20
296.1213559051978
 10
82.94371400683677
 20
296.299909038933
 10
82.43541631340082
 20
296.427230983034
 10
81.30481663206592
 20
294.62196051562205
 10
85.4306805273518
 20
288.7692657597363
 10
92.88149812398478
 20
292.67040022695437
 10
93.35832203412428
 20
297.7563884346746
 10
92.78968534119979
 20
298.55026848932226
 10
92.25190488927984
 20
298.15142332338144
 10
91.20815353647914
 20
297.5258228380134
 10
90.10810856116387
 20
297.0055403127931
 10
88.9623639977921
 20
296.5955863528536
  0
LWPOLYLINE
  5
32
330
17
100
AcDbEntity
  8
default
100
AcDbPolyline
 90
16
 70
0
 10
75.77750437813883
 20
300.5951697923038
 10
75.0526108072852
 20
301.57257562648994
 10
74.42701032191717
 20
302.61632697929065
 10
73.90672779669681
 20
303.7163719546059
 10
73.49677383675737
 20
304.86211651797765
 10
73.2010965228367
 20
306.04252652293303
 10
73.04821723455628
 20
307.0731549686493
 10
71.44101611478254
 20
306.90836663078517
 10
68.59806559700519
 20
302.14976197341457
 10
73.41036492260173
 20
295.8374465405941
 10
77.70735737634823
 20
296.4138841996901
 10
78.70771755769043
 20
298.0111964241395
 10
78.4737631103937
 20
298.15142332338144
 10
77.49635727620756
 20
298.87631689423506
 10
76.59470991312358
 20
299.6935224292198
 10
75.77750437813883
 20
300.5951697923038
  0
LWPOLYLINE
  5
33
330
17
100
AcDbEntity
  8
default
100
AcDbPolyline
 90
42
 70
0
 10
75.0526108072852
 20
315.3507174053761
 10
75.77750437813883
 20
316.3281232395622
 10
76.59470991312358
 20
317.2297706026462
 10
77.49635727620756
 20
318.04697613763096
 10
78.20903763034211
 20
318.57553591159217
 10
77.37516744401572
 20
319.8675791582324
 10
77.2777855247925
 20
319.7196246087318
 10
77.08375920450888
 20
319.4436037155428
 10
76.99054891589245
 20
319.27415256087295
 10
76.90518718974313
 20
319.1250916116724
 10
76.72994437340924
 20
318.8309137884453
 10
76.54570326105839
 20
318.49597361059546
 10
76.25525765002024
 20
318.0304304152953
 10
75.99120645425018
 20
317.65479224844955
 10
75.77632077857017
 20
317.30549243162363
 10
75.5898077737371
 20
317.02406706841884
 10
75.3191666504539
 20
316.64420737871455
 10
75.11261288594507
 20
316.30845120567096
 10
74.94445227077286
 20
316.0529583696104
 10
74.75042625013776
 20
315.776937734565
 10
74.65721569804576
 20
315.60748608548244
 10
74.5718553762322
 20
315.4584274808202
 10
74.39662934209446
 20
315.1642774382636
 10
74.21241804140725
 20
314.8293810137258
 10
73.92221033750072
 20
314.36416375618495
 10
73.66031599174879
 20
313.99151963897646
 10
73.44945368555287
 20
313.64765375972405
 10
73.27780275904172
 20
313.38642284462196
 10
73.0838755279578
 20
313.11048774701055
 10
72.99058001936099
 20
312.940876362908
 10
72.90518946133814
 20
312.7917625812565
 10
72.72996338135495
 20
312.4976120706119
 10
72.54575142060351
 20
312.1627144308266
 10
72.25554367144467
 20
311.697497090588
 10
71.99364934540564
 20
311.3248530011295
 10
71.78278707735332
 20
310.9809871737009
 10
71.77108588638781
 20
310.9631794409681
 10
73.2599787368604
 20
311.11583748419946
 10
73.49677383675737
 20
312.06117651388837
 10
73.90672779669681
 20
313.2069210772601
 10
74.42701032191717
 20
314.3069660525754
 10
75.0526108072852
 20
315.3507174053761
  0
LWPOLYLINE
  5
34
330
17
100
AcDbEntity
  8
default
100
AcDbPolyline
 90
32
 70
0
 10
86.57824653992331
 20
320.80193712666824
 10
87.78195399283676
 20
320.62338399293304
 10
88.2401492035576
 20
320.50861206742536
 10
92.56364423269406
 20
322.15152461640537
 10
87.2856104108505
 20
330.32959365751594
 10
83.79887687837827
 20
329.6752164543535
 10
83.77278653021119
 20
329.63294251760937
 10
83.5895385548784
 20
329.3569270976696
 10
83.31661263818792
 20
328.97400190353727
 10
83.10611992132579
 20
328.6329425967734
 10
82.92287268105628
 20
328.3569282006658
 10
82.64996012666117
 20
327.9740215395019
 10
82.43949324992393
 20
327.6329972398434
 10
82.25647453167909
 20
327.35729837077685
 10
81.98572206772222
 20
326.9773525549964
 10
81.77925641820703
 20
326.64174646825535
 10
81.61111885812528
 20
326.38629127539764
 10
81.41709253783499
 20
326.1102703821993
 10
81.32388224920824
 20
325.94081922751263
 10
81.23852052208508
 20
325.79175827667893
 10
81.06327768118987
 20
325.4975804124787
 10
80.87903652474215
 20
325.16264016971326
 10
80.58859013655028
 20
324.69709588715614
 10
80.32452555126477
 20
324.3214389011167
 10
80.10961382802635
 20
323.9721038780745
 10
79.92287156442961
 20
323.69036207019394
 10
79.78949692503163
 20
323.503197988915
 10
81.82839983059804
 20
320.34401233526876
 10
82.94371400683677
 20
320.62338399293304
 10
84.14742145975022
 20
320.80193712666824
 10
85.36283399983677
 20
320.861646515933
 10
86.57824653992331
 20
320.80193712666824
  0
LWPOLYLINE
  5
35
330
17
100
AcDbEntity
  8
default
100
AcDbPolyline
 90
11
 70
0
 10
95.67305719238833
 20
315.3507174053761
 10
96.29865767775637
 20
314.3069660525754
 10
96.6599844298729
 20
313.5430048221949
 10
98.88448857795447
 20
317.7284336909652
 10
98.58270686678588
 20
318.05309293372557
 10
95.62830377463251
 20
319.03702400717884
 10
93.15937860679836
 20
318.0988413301595
 10
93.22931072346597
 20
318.04697613763096
 10
94.13095808654995
 20
317.2297706026462
 10
94.9481636215347
 20
316.3281232395622
 10
95.67305719238833
 20
315.3507174053761
  0
LWPOLYLINE
  5
36
330
17
100
AcDbEntity
  8
default
100
AcDbPolyline
 90
65
 70
0
 10
52.26783380721956
 20
267.3476779211942
 10
52.5139110805923
 20
267.8368744833968
 10
52.757017367923126
 20
268.3260448844146
 10
52.767833807219546
 20
268.34767792119413
 10
53.01391108054862
 20
268.83687448330994
 10
53.25701736783434
 20
269.326044884286
 10
53.26783379964511
 20
269.34767790618633
 10
53.513910932885466
 20
269.83687419391663
 10
53.757017074883265
 20
270.32604445966797
 10
53.76782714837691
 20
270.3476648482057
 10
54.01385660315908
 20
270.83676995440254
 10
54.256910057502616
 20
271.32588963571567
 10
54.266721217494
 20
271.3455252977602
 10
54.50897361106308
 20
271.82770949941465
 10
54.73337442064179
 20
272.28360998241595
 10
54.78316956468288
 20
272.38814557671884
 10
54.62326099759939
 20
273.15097476881255
 10
54.56291977428212
 20
273.5080423697002
 10
51.85786646284363
 20
276.0361984433531
 10
51.82483382106623
 20
275.9621861503495
 10
51.63319949336368
 20
275.578033330597
 10
51.552707711675026
 20
275.43265919605795
 10
51.491500487733106
 20
275.2955194836833
 10
51.299866160030085
 20
274.9113666639298
 10
51.21937437833164
 20
274.76599252937314
 10
51.15816715437714
 20
274.6288528169733
 10
50.96653282551264
 20
274.2446999951294
 10
50.886041005658505
 20
274.09932579182754
 10
50.824833733298604
 20
273.962185982623
 10
50.63319767954058
 20
273.5780300734941
 10
50.55267989728177
 20
273.4326092336844
 10
50.49143988125025
 20
273.29540404429673
 10
50.29926233202694
 20
272.9102896326495
 10
50.214758936463795
 20
272.75775751780293
 10
50.14850950179053
 20
272.61066229427314
 10
49.92325545177823
 20
272.1701375199422
 10
49.75093478930388
 20
271.87068142897755
 10
49.55838206825955
 20
271.5170838220622
 10
49.2785107854773
 20
271.0626891773097
 10
49.096105573582086
 20
270.7991539745618
 10
49.00322779272602
 20
270.62859621319546
 10
48.945784173353545
 20
270.5259995748508
 10
48.867676879200644
 20
270.39026596840455
 10
48.81815209197107
 20
270.28030488445376
 10
48.6328652992762
 20
269.9105592665653
 10
48.55245026082489
 20
269.7654068049547
 10
48.49145703073762
 20
269.62875452711756
 10
48.299865114244504
 20
269.24469750819793
 10
48.219373608637625
 20
269.09932412588995
 10
48.15816709042765
 20
268.96218600641885
 10
47.96653282599908
 20
268.57803332894895
 10
47.886041044507756
 20
268.43265919493325
 10
47.82483382104996
 20
268.2955194836463
 10
47.63319949336359
 20
267.91136666393015
 10
47.55270771167494
 20
267.7659925293911
 10
47.49150048773297
 20
267.62885281701637
 10
47.32934795464302
 20
267.3037996098832
 10
51.25730980705442
 20
265.326629766954
 10
51.26783380721959
 20
265.34767792119425
 10
51.51391108059347
 20
265.83687448339913
 10
51.757017367923105
 20
266.32604488441456
 10
51.767833807219596
 20
266.34767792119425
 10
52.01391108059402
 20
266.8368744834002
 10
52.25701736792305
 20
267.32604488441444
 10
52.26783380721956
 20
267.3476779211942
  0
LWPOLYLINE
  5
37
330
17
100
AcDbEntity
  8
default
100
AcDbPolyline
 90
51
 70
0
 10
56.56420831613298
 20
281.7546042744359
 10
57.16912389943296
 20
282.3300983886359
 10
57.58873993261718
 20
282.6873830860675
 10
58.04512825044445
 20
282.9963162077538
 10
58.53274410050556
 20
283.2531444637795
 10
59.38797881260557
 20
283.6450012218295
 10
59.780727005537486
 20
283.8051642001226
 10
60.185636466702476
 20
283.9314640454356
 10
60.599793413802814
 20
284.02299188729546
 10
61.8032454940028
 20
284.23586474559545
 10
62.20600537133001
 20
284.2903323580329
 10
62.611858427653765
 20
284.3119086473787
 10
64.05233674815376
 20
284.3298564897287
 10
64.67613604840378
 20
284.29861562110733
 10
65.72276621813994
 20
284.1803295590668
 10
57.13730114015064
 20
285.85867246018597
 10
57.09610554436639
 20
285.7991539323707
 10
57.003227722067756
 20
285.6285961029406
 10
56.94578251258706
 20
285.5259967060008
 10
56.86764882509425
 20
285.3902174398635
 10
56.81809193583434
 20
285.2801913402226
 10
56.63226220571429
 20
284.909484166636
 10
56.54783385061406
 20
284.75717449438116
 10
56.48179982847465
 20
284.6105658995298
 10
56.25658789238241
 20
284.17013541912956
 10
56.08426733611663
 20
283.87067996757037
 10
55.89171535474261
 20
283.51708373562576
 10
55.611844118709506
 20
283.0626891769498
 10
55.4294389066614
 20
282.79915397409616
 10
55.33656112602876
 20
282.6285962131443
 10
55.279117505602954
 20
282.5259995729716
 10
55.20101017277143
 20
282.390265899446
 10
55.151485338193595
 20
282.28030471949126
 10
54.96619682102589
 20
281.91055601535436
 10
54.88575577220394
 20
281.7653568567505
 10
54.82472976044876
 20
281.62863909991097
 10
54.632594621813
 20
281.24362048280744
 10
54.54809149641472
 20
281.0910891211841
 10
54.48184277180866
 20
280.9439954864395
 10
54.256588784514484
 20
280.50347085188326
 10
54.084268122119845
 20
280.2040147613566
 10
53.89171540158077
 20
279.8504171553733
 10
53.79787963947571
 20
279.69806687719296
 10
54.81006118017247
 20
278.75207705176683
 10
54.84166096587748
 20
278.87147673512334
 10
54.99580250574814
 20
279.29516254745835
 10
55.18748263667077
 20
279.7032409826852
 10
55.58537467022078
 20
280.45969589203526
 10
55.863998039837995
 20
280.9260149330657
 10
56.19156471950201
 20
281.3593560233148
 10
56.56420831613298
 20
281.7546042744359
  0
LWPOLYLINE
  5
38
330
17
100
AcDbEntity
  8
default
100
AcDbPolyline
 90
13
 70
0
 10
82.26077886950225
 20
283.9717413051985
 10
82.66044703265652
 20
285.75661326758564
 10
77.96800646744668
 20
292.4130185660906
 10
73.8084233221598
 20
291.8550142417662
 10
70.5131077603437
 20
285.65484199346974
 10
72.33638256619756
 20
281.69990552064394
 10
72.37542832874959
 20
281.6800972149937
 10
72.42145179248283
 20
281.6564488283775
 10
72.93310516848284
 20
281.39018885597744
 10
73.1709237828387
 20
281.25808712379114
 10
73.7051856953887
 20
280.9420012780412
 10
73.9284706127091
 20
280.7942113550188
 10
82.26077886950225
 20
283.9717413051985
  0
LWPOLYLINE
  5
39
330
17
100
AcDbEntity
  8
default
100
AcDbPolyline
 90
44
 70
0
 10
78.13315572454593
 20
274.60197119626235
 10
78.27971939629595
 20
273.66043970581245
 10
78.32721748495617
 20
273.23760484589565
 10
78.33859341140186
 20
272.8122626595507
 10
78.32121286575187
 20
271.71393964710063
 10
78.28858152460538
 20
271.217321438682
 10
78.2067407992363
 20
270.72640744924087
 10
78.1992293815535
 20
270.6920075077666
 10
78.83857023948804
 20
269.92788790306076
 10
83.56431513141277
 20
271.14970262178866
 10
83.70013384066746
 20
271.4219666710508
 10
83.78062562215904
 20
271.567340805067
 10
83.84183284561686
 20
271.704480516354
 10
84.03346717330307
 20
272.0886333360698
 10
84.11395895499183
 20
272.234007470609
 10
84.17516617893398
 20
272.37114718298415
 10
84.366800506636
 20
272.7553000027356
 10
84.44729228832499
 20
272.90067413727536
 10
84.50849951226722
 20
273.03781384965066
 10
84.7001338399695
 20
273.42196666940265
 10
84.78062562165823
 20
273.5673408039419
 10
84.8418328456004
 20
273.70448051631706
 10
85.03346717330312
 20
274.0886333360699
 10
85.11395895499179
 20
274.23400747060896
 10
85.17516617893364
 20
274.37114718298346
 10
85.36680050663634
 20
274.7553000027363
 10
85.44729228833484
 20
274.90067413729315
 10
85.50849951228948
 20
275.0378138496933
 10
85.70013384115444
 20
275.42196667153803
 10
85.7806256610081
 20
275.567340874839
 10
85.8418329333678
 20
275.7044806840431
 10
86.03346898712611
 20
276.0886365931726
 10
86.1139867693851
 20
276.2340574329827
 10
86.1752267854167
 20
276.37126262237047
 10
86.2913517861364
 20
276.6039714455938
 10
83.3584053805098
 20
280.10933454008773
 10
76.94730863046334
 20
277.66445956559846
 10
77.07884869093712
 20
277.4511512627331
 10
77.38875701278712
 20
276.857999438783
 10
77.56068305528203
 20
276.4939349783058
 10
77.70275967588792
 20
276.1172179368175
 10
77.93824038808792
 20
275.4075265656175
 10
78.05241795008044
 20
275.0087944920083
 10
78.13315572454593
 20
274.60197119626235
  0
LWPOLYLINE
  5
3A
330
17
100
AcDbEntity
  8
default
100
AcDbPolyline
 90
29
 70
0
 10
72.72637017544504
 20
264.14227324194434
 10
72.41230662906923
 20
264.0209431911956
 10
71.7502645265253
 20
263.79048283407906
 10
71.67080643275526
 20
263.7568550766907
 10
71.62741829656532
 20
263.6837167634436
 10
71.4372045674803
 20
263.3183167128795
 10
71.20291001490959
 20
262.8564937703311
 10
70.96263769435478
 20
262.3735795940459
 10
70.9527430313506
 20
262.35380247212873
 10
70.70666348375003
 20
261.86465318144604
 10
70.46359809111492
 20
261.37556857059565
 10
70.45278772505333
 20
261.3539477608827
 10
70.20671044031457
 20
260.8647513274566
 10
69.96360428345477
 20
260.3755811930765
 10
69.95278785151739
 20
260.35394817110677
 10
69.70671057813887
 20
259.864751608941
 10
69.463604290853
 20
259.3755812080136
 10
69.45278785155648
 20
259.35394817123387
 10
69.44485649619635
 20
259.33818079977937
 10
69.44703518878669
 20
259.3355768965557
 10
75.19425724586472
 20
261.62815731950104
 10
75.85982040591743
 20
266.10306603116845
 10
75.82368044093961
 20
266.06457167937276
 10
75.38023468584272
 20
265.6465025776292
 10
74.88921958946048
 20
265.28548999243185
 10
74.23425718341046
 20
264.8628991439819
 10
73.86630829267537
 20
264.6471453363411
 10
73.48130950469503
 20
264.4635369896943
 10
72.72637017544504
 20
264.14227324194434
  0
LWPOLYLINE
  5
3B
330
17
100
AcDbEntity
  8
default
100
AcDbPolyline
 90
22
 70
0
 10
75.69259437455321
 20
255.40557684393482
 10
75.77712041758447
 20
255.5593681219918
 10
75.84129448172101
 20
255.70325743556634
 10
76.03341895734074
 20
256.08852984765144
 10
76.11393765583635
 20
256.23395942792166
 10
76.17516453753193
 20
256.371143481972
 10
76.36680043632836
 20
256.7552998524401
 10
76.44729225804915
 20
256.9006740692386
 10
76.50849951118676
 20
257.0378138472239
 10
76.70013383995145
 20
257.4219666693641
 10
76.78062562165069
 20
257.5673408039249
 10
76.84183284560049
 20
257.7044805163172
 10
76.88990103570409
 20
257.800838674013
 10
76.71554178744555
 20
257.92849815124646
 10
70.71232194397943
 20
255.5337996081442
 10
74.86550000452692
 20
253.44326545273012
 10
74.90842082297502
 20
253.53750438871378
 10
74.96237242997667
 20
253.7127558282902
 10
75.19076601199977
 20
254.31404006746487
 10
75.34850884000113
 20
254.66038752325434
 10
75.47199311823563
 20
254.95124365749484
 10
75.69259437455321
 20
255.40557684393482
  0
LWPOLYLINE
  5
3C
330
17
100
AcDbEntity
  8
default
100
AcDbPolyline
 90
45
 70
0
 10
64.41732491877494
 20
298.5368305423105
 10
64.22496815790527
 20
298.18361562109294
 10
63.94487079476072
 20
297.728919803044
 10
63.759363677777976
 20
297.46096158903345
 10
63.662079915622776
 20
297.2832132881196
 10
63.572603352801835
 20
297.12651172797325
 10
63.40002665721223
 20
296.83655508383225
 10
63.220210090880684
 20
296.50801013004434
 10
62.94513966063997
 20
296.0625220022569
 10
62.762626553058546
 20
295.7988885248114
 10
62.66981388238332
 20
295.62846134558094
 10
62.611896328532595
 20
295.5250477413216
 10
62.52970348371038
 20
295.3822856829563
 10
62.47523192324779
 20
295.26240910655173
 10
62.256304796586214
 20
294.83612407964426
 10
62.0840100214956
 20
294.5368620936064
 10
61.89168361608748
 20
294.1836915164558
 10
61.61184307188846
 20
293.7293540105401
 10
61.42941804334779
 20
293.4657905271172
 10
61.33651221487443
 20
293.2951867819197
 10
61.27856388532803
 20
293.1917165025129
 10
61.196370844332776
 20
293.04895388711526
 10
61.14189865255966
 20
292.92907591166016
 10
60.922971463848825
 20
292.5027907477004
 10
60.7506766886791
 20
292.2035287612264
 10
60.55835028276642
 20
291.8503581831449
 10
60.278509738554774
 20
291.3960206772062
 10
60.09608471001442
 20
291.1324571937838
 10
60.003178881541096
 20
290.9618534485864
 10
59.945230551994925
 20
290.85838316918
 10
59.86303751100942
 20
290.7156205537993
 10
59.808565319248544
 20
290.5957425783686
 10
59.58963813159777
 20
290.16945741624244
 10
59.41734338102751
 20
289.8701954721971
 10
59.22956499388192
 20
289.52537644254306
 10
67.21111294068396
 20
287.96509121451527
 10
70.15682194614783
 20
293.50747490581125
 10
65.34176125843078
 20
299.82341243093833
 10
65.08328940135262
 20
299.7756223585788
 10
65.00314721569902
 20
299.62846134555355
 10
64.94522966078348
 20
299.5250477394459
 10
64.86303677796042
 20
299.3822856152188
 10
64.80856517014657
 20
299.26240894432095
 10
64.58963647224022
 20
298.83612121756914
 10
64.41732491877494
 20
298.5368305423105
  0
LWPOLYLINE
  5
3D
330
17
100
AcDbEntity
  8
default
100
AcDbPolyline
 90
37
 70
0
 10
89.0767445482218
 20
281.82986248005784
 10
89.24906521069674
 20
282.1293185710235
 10
89.44161793174044
 20
282.48291617793774
 10
89.72148921452252
 20
282.93731082269005
 10
89.90389442642518
 20
283.20084602544875
 10
89.99677220729237
 20
283.3714037868334
 10
90.05421582773037
 20
283.47400042702844
 10
90.13232316056174
 20
283.6097341005538
 10
90.18184799513963
 20
283.7196952805087
 10
90.36713651230815
 20
284.0894439846471
 10
90.44757756112982
 20
284.2346431432504
 10
90.50860357288474
 20
284.3713609000893
 10
90.70073871151982
 20
284.7563795171916
 10
90.78524183691833
 20
284.90891087881545
 10
90.85149056152453
 20
285.05600451356037
 10
91.07674454881915
 20
285.4965291481175
 10
91.24906521121389
 20
285.7959852386443
 10
91.44161793175283
 20
286.1495828446272
 10
91.72148921452256
 20
286.60397748935674
 10
91.90389442642507
 20
286.8675126921152
 10
91.99677220729204
 20
287.03807045349953
 10
92.05421582773059
 20
287.1406670936956
 10
92.1323231605619
 20
287.2764007672208
 10
92.18184799513983
 20
287.38636194717577
 10
92.36713651230798
 20
287.7561106513134
 10
92.44757756112946
 20
287.9013098099164
 10
92.46317815035856
 20
287.93626011231095
 10
86.55487102689222
 20
284.84276060480624
 10
86.14498688839376
 20
283.01226527569816
 10
88.34644202964172
 20
280.3811569843396
 10
88.36680336623847
 20
280.4219724155537
 10
88.44732087244992
 20
280.5673925031154
 10
88.5085601827175
 20
280.70459609961625
 10
88.70073766866977
 20
281.08971036899516
 10
88.7852410640396
 20
281.2422424833179
 10
88.85149049822589
 20
281.3893377057633
 10
89.0767445482218
 20
281.82986248005784
  0
LWPOLYLINE
  5
3E
330
17
100
AcDbEntity
  8
default
100
AcDbPolyline
 90
27
 70
0
 10
116.01672037038665
 20
327.02599755549926
 10
116.2272134358035
 20
327.36705742702287
 10
116.41046144560836
 20
327.6430729028174
 10
116.6833873813675
 20
328.02599812370374
 10
116.89388013646109
 20
328.36705748239626
 10
117.07712811230134
 20
328.64307290304805
 10
117.35005404826269
 20
329.0259981240766
 10
117.56054680313659
 20
329.36705748241053
 10
117.74379477896771
 20
329.6430729030476
 10
118.01672071492915
 20
330.0259981240763
 10
118.22721346980316
 20
330.3670574824105
 10
118.41046144563452
 20
330.6430729030479
 10
118.68338738160121
 20
331.0259981240839
 10
118.7779838173059
 20
331.17927180650213
 10
118.47964052390307
 20
336.0648865699768
 10
107.29031706461683
 20
338.9371821866371
 10
107.08458641730249
 20
338.8683220236562
 10
101.92639928124845
 20
320.3311073812656
 10
102.3872428345494
 20
319.83532810304314
 10
108.54904816718772
 20
318.22745277173817
 10
114.75148529825034
 20
325.13544865935097
 10
114.89038617197349
 20
325.36122945525864
 10
115.07712843557037
 20
325.6429712631395
 10
115.34994281484963
 20
326.0258105561862
 10
115.5605238995634
 20
326.36701990964417
 10
115.74379475364766
 20
326.64307256737163
 10
116.01672037038665
 20
327.02599755549926
  0
LWPOLYLINE
  5
3F
330
17
100
AcDbEntity
  8
default
100
AcDbPolyline
 90
6
 70
0
 10
98.33650880679488
 20
322.3510843520053
 10
102.9469109820202
 20
338.9196989540942
 10
94.24648710153997
 20
340.79479874577373
 10
90.51404039375484
 20
332.7038014526479
 10
96.88319247635081
 20
322.8350951834582
 10
98.33650880679488
 20
322.3510843520053
  0
LWPOLYLINE
  5
40
330
17
100
AcDbEntity
  8
default
100
AcDbPolyline
 90
6
 70
0
 10
119.83242923393846
 20
339.84731325274333
 10
126.00921152252704
 20
345.5297106844373
 10
126.0089811924845
 20
345.5896893888712
 10
110.06280950084329
 20
362.92322370549664
 10
109.27635479485616
 20
342.55705405632034
 10
119.83242923393846
 20
339.84731325274333
  0
LWPOLYLINE
  5
41
330
17
100
AcDbEntity
  8
default
100
AcDbPolyline
 90
43
 70
0
 10
103.5233899701127
 20
357.62736228802976
 10
103.37044607584265
 20
357.42280347064815
 10
102.89677653681424
 20
356.8219174049301
 10
102.52531880358421
 20
356.29685731333836
 10
102.37032987822698
 20
356.0893905448356
 10
101.89683947354413
 20
355.48867733196283
 10
101.5253623510268
 20
354.9635790690783
 10
101.37048187290465
 20
354.7562458521002
 10
100.89833521517961
 20
354.15718315473293
 10
100.53026716993807
 20
353.6360622494668
 10
100.38313463322908
 20
353.43828083770404
 10
99.96073118130899
 20
352.8987679355008
 10
99.68941232673497
 20
352.49370556932524
 10
99.57221077366904
 20
352.3262385752349
 10
99.22876710700378
 20
351.85625013481575
 10
98.91126739264394
 20
351.38223604792324
 10
98.69409903048151
 20
351.0826183287256
 10
98.23485332418409
 20
350.4959926056059
 10
97.86557725536952
 20
349.9723022056434
 10
97.71635857837214
 20
349.77154466446956
 10
97.2941335698013
 20
349.2322078347217
 10
97.02279685739826
 20
348.82710761841884
 10
96.90578247421283
 20
348.6598923583023
 10
96.56395214508242
 20
348.1920375600731
 10
96.25013763352835
 20
347.7224981831587
 10
96.04077120566184
 20
347.43228341060626
 10
95.6329277634447
 20
346.9075957924423
 10
95.36420114862686
 20
346.50463274854866
 10
95.25810725718154
 20
346.35178173468694
 10
94.97356793347011
 20
345.95770256796425
 10
94.76293065106744
 20
345.61854240792303
 10
94.56918147848049
 20
345.329522899969
 10
94.272987730653
 20
344.91930246246443
 10
94.303676456213
 20
344.8743152320385
 10
105.27157710678875
 20
342.51053290301934
 10
105.97874762148231
 20
360.82354517571923
 10
105.70786647715404
 20
360.4566468964527
 10
105.54128705397727
 20
360.2433526989697
 10
104.92456186075219
 20
359.49627086850023
 10
104.48754939519331
 20
358.9036205125035
 10
104.38054081178062
 20
358.76372869092023
 10
103.89390224037083
 20
358.1502482272924
 10
103.5233899701127
 20
357.62736228802976
  0
LWPOLYLINE
  5
42
330
17
100
AcDbEntity
  8
default
100
AcDbPolyline
 90
5
 70
0
 10
112.73377212323248
 20
365.92794227972627
 10
127.58637570496649
 20
349.78311963239685
 10
132.6404588483274
 20
359.0594732691534
 10
120.09322606958449
 20
372.6983512486331
 10
112.73377212323248
 20
365.92794227972627
  0
LWPOLYLINE
  5
43
330
17
100
AcDbEntity
  8
default
100
AcDbPolyline
 90
7
 70
0
 10
135.64898407598957
 20
361.6972603253089
 10
141.4589160340838
 20
363.82381068821996
 10
142.3855300634168
 20
369.14477203041315
 10
134.5156796462834
 20
377.69932198151946
 10
126.77604920882732
 20
378.8462864141911
 10
123.03700764849782
 20
375.4065148360096
 10
135.64898407598957
 20
361.6972603253089
  0
LWPOLYLINE
  5
44
330
17
100
AcDbEntity
  8
default
100
AcDbPolyline
 90
6
 70
0
 10
144.83576201321557
 20
372.38942547887564
 10
151.99914261465892
 20
377.1924777915701
 10
152.21883163880557
 20
379.13416413683444
 10
146.33162331627682
 20
385.53357645124197
 10
138.44428688380867
 20
379.336977256462
 10
144.83576201321557
 20
372.38942547887564
  0
LWPOLYLINE
  5
45
330
17
100
AcDbEntity
  8
default
100
AcDbPolyline
 90
6
 70
0
 10
134.95010844431818
 20
381.6786265759729
 10
144.05225179018453
 20
388.8296254728921
 10
136.38559736777097
 20
396.2490332252346
 10
128.66536540165544
 20
388.2546697179787
 10
128.25535029591992
 20
382.6707475236617
 10
134.95010844431818
 20
381.6786265759729
  0
LWPOLYLINE
  5
46
330
17
100
AcDbEntity
  8
default
100
AcDbPolyline
 90
9
 70
0
 10
148.88124780450016
 20
388.6701899250038
 10
154.62036881782115
 20
382.4317489406094
 10
160.73819176292312
 20
386.5271292663483
 10
160.75337811820938
 20
386.5443878120932
 10
161.59590769416258
 20
387.5616018893196
 10
161.6959284977962
 20
387.6786444283936
 10
162.52070109596247
 20
388.61422161369796
 10
156.03738135192543
 20
395.66160875046626
 10
148.88124780450016
 20
388.6701899250038
  0
LWPOLYLINE
  5
47
330
17
100
AcDbEntity
  8
default
100
AcDbPolyline
 90
14
 70
0
 10
168.14675586955525
 20
395.13373950259336
 10
169.46580386781432
 20
396.59875472047105
 10
170.71310889955424
 20
398.027008766368
 10
170.80962056808906
 20
398.1343537409262
 10
171.8006433069022
 20
399.2051169346365
 10
167.11763104330748
 20
404.29556468268856
 10
158.09504166990519
 20
399.7372475513257
 10
158.1015719450079
 20
399.32589025981724
 10
165.14331567925927
 20
391.6714946455435
 10
165.71178724137457
 20
392.34845857540495
 10
165.81607598646175
 20
392.4687108063794
 10
167.04836095766458
 20
393.84474536500534
 10
168.05298461744164
 20
395.02656049705826
 10
168.14675586955525
 20
395.13373950259336
  0
LWPOLYLINE
  5
48
330
17
100
AcDbEntity
  8
default
100
AcDbPolyline
 90
7
 70
0
 10
139.16831439221278
 20
399.12244373746216
 10
146.5469574430026
 20
391.98175909975544
 10
154.10050354944542
 20
399.3614431284368
 10
154.08773700986058
 20
400.1656372831203
 10
148.25429717777297
 20
406.52244340023026
 10
147.64333659084514
 20
406.53143305517733
 10
139.16831439221278
 20
399.12244373746216
  0
LWPOLYLINE
  5
49
330
17
100
AcDbEntity
  8
default
100
AcDbPolyline
 90
10
 70
0
 10
184.14811059227213
 20
412.374453230761
 10
180.3853281904012
 20
415.60046377405524
 10
170.9413219136186
 20
415.994165008422
 10
169.68276999518275
 20
407.4153138906695
 10
174.5067809805464
 20
402.1716001280304
 10
177.01561199139047
 20
404.82470224018533
 10
179.95246502436086
 20
407.9453855551364
 10
180.00356443020436
 20
407.99888485504175
 10
184.14374782138523
 20
412.269800179043
 10
184.14811059227213
 20
412.374453230761
  0
LWPOLYLINE
  5
4A
330
17
100
AcDbEntity
  8
default
100
AcDbPolyline
 90
7
 70
0
 10
156.52514181425795
 20
403.4256134778261
 10
165.73743343586102
 20
408.0797703927383
 10
167.09802291262895
 20
417.35415500728413
 10
165.98063838249072
 20
418.45445841550827
 10
157.41928844712675
 20
417.20558023126796
 10
151.68537595495582
 20
408.6995948860422
 10
156.52514181425795
 20
403.4256134778261
  0
LWPOLYLINE
  5
4B
330
17
100
AcDbEntity
  8
default
100
AcDbPolyline
 90
8
 70
0
 10
170.0778791019693
 20
420.0336344279349
 10
179.64998253947124
 20
419.6345930858515
 10
182.2522050011903
 20
429.20067761233076
 10
176.4128097947687
 20
435.5481169321574
 10
171.27121314541537
 20
433.2722308327524
 10
169.11935229367532
 20
431.1797454641158
 10
168.71081280196086
 20
421.3798027955927
 10
170.0778791019693
 20
420.0336344279349
  0
LWPOLYLINE
  5
4C
330
17
100
AcDbEntity
  8
default
100
AcDbPolyline
 90
4
 70
0
 10
159.38722540300566
 20
421.53498543653797
 10
164.74639791576192
 20
422.3167492575012
 10
164.9455217511141
 20
427.09328178464636
 10
159.38722540300566
 20
421.53498543653797
  0
LWPOLYLINE
  5
4D
330
17
100
AcDbEntity
  8
default
100
AcDbPolyline
 90
15
 70
0
 10
194.466984074025
 20
422.6055498890328
 10
198.83520506793485
 20
426.8303953948214
 10
198.89316597662625
 20
426.88556311108255
 10
198.93746249102887
 20
426.92705445109186
 10
199.07350204093382
 20
427.217809189111
 10
197.17851208150387
 20
430.40665997751057
 10
186.0818424699828
 20
428.0400612899102
 10
183.42280869558454
 20
418.26513150846586
 10
186.61866958625615
 20
415.52516947267577
 10
187.5737438150778
 20
415.8542225750709
 10
187.7354635335045
 20
416.02351127680123
 10
187.81536351349476
 20
416.10525917075813
 10
191.18274631795805
 20
419.47264197522134
 10
191.26821880905746
 20
419.55609635800664
 10
194.466984074025
 20
422.6055498890328
  0
LWPOLYLINE
  5
4E
330
17
100
AcDbEntity
  8
default
100
AcDbPolyline
 90
31
 70
0
 10
211.09427732607776
 20
438.08284779323066
 10
211.19987309121584
 20
438.17610061789344
 10
212.46029107491646
 20
439.2579708926777
 10
213.87692557626596
 20
440.5300817698312
 10
213.97988779409755
 20
440.6200277256985
 10
215.1575485563215
 20
441.62075588623367
 10
215.34655930776213
 20
441.7902489268123
 10
213.18176819430664
 20
444.32556895166636
 10
209.43610596635426
 20
443.99011436756
 10
209.40491770252427
 20
443.3552626728889
 10
209.22636456878908
 20
442.1515552199755
 10
208.93068725486842
 20
440.9711452150201
 10
208.520733294929
 20
439.82540065164835
 10
208.00045076970864
 20
438.7253556763331
 10
207.3748502843406
 20
437.6816043235324
 10
206.64995671348697
 20
436.70419848934625
 10
205.8327511785022
 20
435.80255112626224
 10
204.93110381541823
 20
434.9853455912775
 10
203.9536979812321
 20
434.2604520204239
 10
202.90994662843138
 20
433.6348515350559
 10
201.80990165311613
 20
433.1145690098355
 10
200.66415708974435
 20
432.70461504989606
 10
200.4916057618429
 20
432.6613931922931
 10
202.12442402908093
 20
429.9137196267167
 10
204.32544927559445
 20
431.9855676193249
 10
204.41574013616375
 20
432.06849529263775
 10
206.16821034123882
 20
433.63888279579226
 10
207.99195232666645
 20
435.3157525188488
 10
208.08772249871475
 20
435.4015637043673
 10
209.50482458730625
 20
436.6388228547781
 10
211.09427732607776
 20
438.08284779323066
  0
LWPOLYLINE
  5
4F
330
17
100
AcDbEntity
  8
default
100
AcDbPolyline
 90
14
 70
0
 10
185.1711839530617
 20
431.93580172676593
 10
191.81554566663564
 20
433.35285191027765
 10
191.21930755514666
 20
433.6348515350559
 10
190.17555620234594
 20
434.2604520204239
 10
189.19815036815982
 20
434.9853455912775
 10
188.29650300507583
 20
435.80255112626224
 10
187.47929747009107
 20
436.70419848934625
 10
186.75440389923745
 20
437.6816043235324
 10
186.1288034138694
 20
438.7253556763331
 10
185.60852088864905
 20
439.82540065164835
 10
185.2875888622993
 20
440.72234557799186
 10
179.4022541604936
 20
438.6771694011986
 10
179.26416324358433
 20
438.3567501618527
 10
185.1711839530617
 20
431.93580172676593
  0
LWPOLYLINE
  5
50
330
17
100
AcDbEntity
  8
default
100
AcDbPolyline
 90
24
 70
0
 10
222.72844864165205
 20
448.18118972743696
 10
223.76543695625577
 20
449.0765307906595
 10
223.9054269564661
 20
449.19301708040405
 10
224.76777790843548
 20
449.8843967931417
 10
225.77278333116942
 20
450.7498744704623
 10
225.91043396559215
 20
450.86418957300725
 10
226.7690930739206
 20
451.55169847187705
 10
227.75796414148707
 20
452.40102621965286
 10
227.931057188904
 20
452.54308373231385
 10
228.72375765443817
 20
453.1644759628915
 10
229.56829574314486
 20
453.8700811622704
 10
229.73855766530372
 20
454.00614374821936
 10
230.43778805887297
 20
454.5403742250955
 10
230.90610499051434
 20
454.9301661208475
 10
227.25832596607506
 20
457.5890720579773
 10
219.27390508446842
 20
454.12542131962255
 10
216.33807407971472
 20
446.7890500272624
 10
218.35395369566442
 20
444.42812941603876
 10
219.19789561647795
 20
445.1838486798102
 10
219.31879671267066
 20
445.28867410891235
 10
220.42147092134755
 20
446.21424085272383
 10
221.63215958239155
 20
447.28154216263226
 10
221.77653396883468
 20
447.4040385584432
 10
222.72844864165205
 20
448.18118972743696
  0
LWPOLYLINE
  5
51
330
17
100
AcDbEntity
  8
default
100
AcDbPolyline
 90
15
 70
0
 10
203.20130440246004
 20
455.3318657616934
 10
203.9536979812321
 20
454.88089840552703
 10
204.93110381541823
 20
454.1560048346734
 10
205.8327511785022
 20
453.3387992996887
 10
206.64995671348694
 20
452.43715193660466
 10
207.3748502843406
 20
451.45974610241853
 10
208.0004507697086
 20
450.4159947496178
 10
208.52073329492896
 20
449.31594977430257
 10
208.93068725486842
 20
448.1702052109308
 10
208.98197512976742
 20
447.96545253694
 10
212.63123465096578
 20
448.29227347299457
 10
215.39788719685748
 20
455.205883378163
 10
208.51562992483377
 20
462.68691675085574
 10
206.06699604401365
 20
462.13282757950947
 10
203.20130440246004
 20
455.3318657616934
  0
LWPOLYLINE
  5
52
330
17
100
AcDbEntity
  8
default
100
AcDbPolyline
 90
24
 70
0
 10
237.91149274262156
 20
460.5453857709385
 10
238.07815497795568
 20
460.6781800227851
 10
238.77440890061294
 20
461.2090889769089
 10
239.56600089035473
 20
461.865308065516
 10
239.7848360784331
 20
462.03668413695124
 10
240.418084386087
 20
462.5047971787331
 10
241.0827770895537
 20
463.0353329169259
 10
241.2296960604601
 20
463.14820687338266
 10
241.8256739172091
 20
463.5887652235592
 10
242.58838220839624
 20
464.22100448943723
 10
242.7494599534276
 20
464.34902917497243
 10
243.44235027207677
 20
464.8768454560835
 10
243.64797025202043
 20
465.0472824626281
 10
237.77801164379343
 20
472.02567036962137
 10
229.56918665301055
 20
464.6918039987795
 10
229.52402209071442
 20
460.88742767786607
 10
234.14557317480583
 20
457.5187286599797
 10
234.5783109401705
 20
457.8788876941729
 10
234.74318479682057
 20
458.01032464912555
 10
235.4390082449118
 20
458.54142874484785
 10
236.24497717229806
 20
459.21222054102464
 10
236.4098626436353
 20
459.3436663397693
 10
237.10571674837854
 20
459.8747905309676
 10
237.91149274262156
 20
460.5453857709385
  0
LWPOLYLINE
  5
53
330
17
100
AcDbEntity
  8
default
100
AcDbPolyline
 90
12
 70
0
 10
211.5907911946997
 20
465.2522702375427
 10
218.23177805449814
 20
458.03349849395454
 10
225.5274315448478
 20
461.1983611653559
 10
225.5705031468533
 20
464.8264397867024
 10
217.36673238951096
 20
473.7439621044041
 10
217.2567868904655
 20
473.65631652354375
 10
216.56098536479033
 20
473.12523245951974
 10
215.75502162463832
 20
472.4544448706362
 10
215.5901597092201
 20
472.32301703014633
 10
214.89436717607833
 20
471.7919332226538
 10
214.5893204680287
 20
471.5380352593285
 10
211.5907911946997
 20
465.2522702375427
  0
LWPOLYLINE
  5
54
330
17
100
AcDbEntity
  8
default
100
AcDbPolyline
 90
20
 70
0
 10
248.63020955184865
 20
468.858665279951
 10
249.15533372099685
 20
469.2301645431592
 10
249.75605644311153
 20
469.7036624432433
 10
249.9635429373001
 20
469.8586653236427
 10
250.48866706885553
 20
470.23016455469576
 10
251.0893897767983
 20
470.7036624435231
 10
251.2968762706547
 20
470.85866532365947
 10
251.82200040237066
 20
471.23016455482315
 10
252.42272310999707
 20
471.70366244331524
 10
252.5317565226097
 20
471.78511590347085
 10
254.39027873426676
 20
473.6208928739652
 10
249.4640365554951
 20
480.6999337291345
 10
247.80507245240733
 20
480.71088394802064
 10
240.7566662672907
 20
474.69849791005254
 10
246.81945209383454
 20
467.4908710566081
 10
247.08919995321335
 20
467.7035093365179
 10
247.29684005962346
 20
467.8586349000527
 10
247.82198986057585
 20
468.2301561099676
 10
248.42272255967063
 20
468.7036620047032
 10
248.63020955184865
 20
468.858665279951
  0
LWPOLYLINE
  5
55
330
17
100
AcDbEntity
  8
default
100
AcDbPolyline
 90
20
 70
0
 10
225.0899806343635
 20
479.79204627935604
 10
224.87668643688102
 20
479.6254668561796
 10
224.24701591046218
 20
479.1605808581119
 10
223.5838158110278
 20
478.6313225360735
 10
223.4348310193224
 20
478.5169408129762
 10
222.83852259565566
 20
478.07668260342064
 10
222.09010773892646
 20
477.4588206075886
 10
221.87673235235837
 20
477.292171520664
 10
221.77848416295504
 20
477.21963370186444
 10
220.74306381959468
 20
475.98194276401773
 10
227.7171811517328
 20
468.40105724241585
 10
235.17529180739075
 20
475.06422608625144
 10
228.44279791420578
 20
482.3824662376566
 10
227.91052986303808
 20
481.96288725777015
 10
227.70597104531686
 20
481.8099433632318
 10
227.1830851060446
 20
481.4394310929655
 10
226.56960464241337
 20
480.95279252155296
 10
226.42971282083008
 20
480.84578393814024
 10
225.83706246483342
 20
480.4087714725814
 10
225.0899806343635
 20
479.79204627935604
  0
LWPOLYLINE
  5
56
330
17
100
AcDbEntity
  8
default
100
AcDbPolyline
 90
37
 70
0
 10
260.38226183196423
 20
477.5779510837135
 10
260.85640303079657
 20
477.8955315527403
 10
261.3262892098097
 20
478.2388462416814
 10
261.49765815775874
 20
478.3586398224585
 10
261.9052196558896
 20
478.6310354981379
 10
262.4320726648822
 20
479.0406035649252
 10
262.7224809950586
 20
479.250120458394
 10
263.1921761255462
 20
479.56403907353194
 10
263.6599421720555
 20
479.90575083515336
 10
263.83103465077164
 20
480.02534076780813
 10
264.2385667758389
 20
480.29771301401036
 10
264.7654066123311
 20
480.7072707140785
 10
265.0558144294173
 20
480.9167872001516
 10
265.5255099518085
 20
481.23070606443457
 10
265.99327568832285
 20
481.5724174347693
 10
266.16439405856545
 20
481.69202461410845
 10
266.57199883160297
 20
481.9644416099659
 10
267.09868090519274
 20
482.3738351035207
 10
267.39314672506356
 20
482.58603942658004
 10
267.8699082511728
 20
482.90397603125814
 10
268.3295963003935
 20
483.23583093463196
 10
268.6241791952276
 20
483.43299673611034
 10
268.9704997737143
 20
483.64741649744053
 10
269.3564553531669
 20
483.92260359456316
 10
269.62713804769936
 20
484.10262223424934
 10
269.66563095373886
 20
484.1264546022905
 10
266.07655636547133
 20
487.95560296066105
 10
256.39937100280076
 20
487.31670741178095
 10
252.97289608838037
 20
482.6605223119259
 10
257.8250160162865
 20
475.6879955960696
 10
257.82706462289707
 20
475.689429300951
 10
258.2321941881328
 20
475.96078942462213
 10
258.771544082564
 20
476.38302478432024
 10
258.9723021818342
 20
476.5322438982293
 10
259.4959928714252
 20
476.90152017127457
 10
260.0826181417332
 20
477.3607653890489
 10
260.38226183196423
 20
477.5779510837135
  0
LWPOLYLINE
  5
57
330
17
100
AcDbEntity
  8
default
100
AcDbPolyline
 90
15
 70
0
 10
237.0306043648126
 20
488.80306611954836
 10
236.50948349710802
 20
488.4349981063979
 10
235.91042081434725
 20
487.9628514603566
 10
235.70308756925013
 20
487.80797096239786
 10
235.41499915442242
 20
487.6041648153719
 10
231.74764601700008
 20
484.6981494789943
 10
238.15320579055697
 20
477.73528765235096
 10
244.3447008030489
 20
483.01671684207395
 10
238.94573509529056
 20
490.1947965867648
 10
238.80797714246066
 20
490.1027253985461
 10
238.34010877186213
 20
489.76088482386564
 10
238.1729182276101
 20
489.6438868828895
 10
237.76788512391633
 20
489.3725913701927
 10
237.2283852483645
 20
488.95019824047426
 10
237.0306043648126
 20
488.80306611954836
  0
LWPOLYLINE
  5
58
330
17
100
AcDbEntity
  8
default
100
AcDbPolyline
 90
26
 70
0
 10
248.03376171871548
 20
496.5605697052556
 10
247.6928521628867
 20
496.3501651653459
 10
247.3098408191903
 20
496.07712755734497
 10
247.03947438848795
 20
495.8973379419312
 10
246.70570754256795
 20
495.6906947706047
 10
246.31454036751379
 20
495.4083062889244
 10
246.1619640314175
 20
495.30241369602015
 10
245.7589579268017
 20
495.0336659547449
 10
245.23444152199357
 20
494.6259971463798
 10
244.94016941972353
 20
494.41394339804395
 10
244.4635752091469
 20
494.09611837714345
 10
244.00381043270133
 20
493.7641518543725
 10
243.7147909253768
 20
493.57040268224296
 10
243.3756307650171
 20
493.35976539964554
 10
242.9815515984698
 20
493.075226076158
 10
242.8287005457448
 20
492.96913215883194
 10
242.42573723342673
 20
492.7004053705391
 10
242.19891678705645
 20
492.5240962681132
 10
248.07687895791605
 20
484.7091769883409
 10
249.50718933250755
 20
484.69973602937534
 10
253.0195785467513
 20
489.47266877628863
 10
249.25962343614768
 20
497.3771891009988
 10
249.03372420446433
 20
497.2272135038026
 10
248.69266535931925
 20
497.01672105947125
 10
248.30973990538735
 20
496.74379480428604
 10
248.03376171871548
 20
496.5605697052556
  0
LWPOLYLINE
  5
59
330
17
100
AcDbEntity
  8
default
100
AcDbPolyline
 90
19
 70
0
 10
274.96627577175377
 20
487.7727864724102
 10
275.30733518201663
 20
487.98327926551565
 10
275.69026042979914
 20
488.2562052205456
 10
275.96627590628987
 20
488.43945323084813
 10
276.30733577782735
 20
488.6499462962752
 10
276.69026076596185
 20
488.9228719130191
 10
276.6914927964237
 20
488.9236898557872
 10
279.4319163081236
 20
491.69557744218037
 10
277.91395769361407
 20
503.76510703610256
 10
276.79656988196075
 20
504.5461638853885
 10
268.6235802313313
 20
501.6355070085265
 10
268.87080272566527
 20
490.82355781970546
 10
272.9755971222848
 20
486.4441930733584
 10
273.30401992431547
 20
486.6475276171475
 10
273.68988954689394
 20
486.9226028087391
 10
273.96622113179745
 20
487.1060798119239
 10
274.3073155470886
 20
487.31659844447034
 10
274.6902593265752
 20
487.58953776100986
 10
274.96627577175377
 20
487.7727864724102
  0
LWPOLYLINE
  5
5A
330
17
100
AcDbEntity
  8
default
100
AcDbPolyline
 90
14
 70
0
 10
254.03372414907693
 20
500.5605468031365
 10
253.69266479074355
 20
500.350054048263
 10
253.3097395697145
 20
500.0771281123013
 10
253.03372414907693
 20
499.8938801364699
 10
252.69266479074383
 20
499.68338738159656
 10
252.61756334544944
 20
499.6298596139714
 10
256.56262401118875
 20
491.33619352057576
 10
264.8455314631574
 20
491.8830377222039
 10
264.6167223597877
 20
501.88970159739256
 10
255.08358480372297
 20
501.2603162001376
 10
255.03372414907707
 20
501.22721346980325
 10
254.69266479074304
 20
501.0167207149293
 10
254.3097395697147
 20
500.7437947789681
 10
254.03372414907693
 20
500.5605468031365
  0
LWPOLYLINE
  5
5B
330
17
100
AcDbEntity
  8
default
100
AcDbPolyline
 90
38
 70
0
 10
284.82930683640245
 20
494.21236985808804
 10
285.16424707999465
 20
494.39661101498825
 10
285.4584249445188
 20
494.571853855923
 10
285.60748597793344
 20
494.6572156283961
 10
285.77693769422604
 20
494.7504262217024
 10
286.05295836883244
 20
494.94445227022436
 10
286.308451205651
 20
495.1126128859307
 10
286.64420737870785
 20
495.3191666504492
 10
287.02406706841884
 20
495.58980777373716
 10
287.30549243162415
 20
495.77632077857055
 10
287.6547922484496
 20
495.9912064542502
 10
288.03043041529486
 20
496.25525765002
 10
288.4959736106174
 20
496.5457032610705
 10
288.8309137892928
 20
496.7299443738733
 10
289.12509161284436
 20
496.9051871902471
 10
289.2741526446275
 20
496.9905489617473
 10
289.44360436090346
 20
497.08375955504334
 10
289.71962503550054
 20
497.27778560355864
 10
289.97511787231684
 20
497.4459462192634
 10
290.31087404537374
 20
497.6524999837821
 10
290.690733735085
 20
497.9231411070703
 10
290.9721590983056
 20
498.10965411191313
 10
291.3214589155198
 20
498.32453978783025
 10
291.6970970822521
 20
498.5885909834148
 10
292.1626403610151
 20
498.8790366402457
 10
292.4975817549462
 20
499.0632784131398
 10
292.7917600466033
 20
499.23852127534866
 10
292.9408762553774
 20
499.3239132830591
 10
293.1104877066754
 20
499.4172088328643
 10
293.1141977680994
 20
499.4198162646322
 10
288.90404233243316
 20
503.49316996568814
 10
282.0366912409663
 20
503.03978193178773
 10
283.2745431684453
 20
493.19742501401953
 10
283.3570287375782
 20
493.25620489827617
 10
283.63877054476194
 20
493.44294716137483
 10
283.98810556779034
 20
493.65785888460306
 10
284.3637625538223
 20
493.9219234698834
 10
284.82930683640245
 20
494.21236985808804
  0
LWPOLYLINE
  5
5C
330
17
100
AcDbEntity
  8
default
100
AcDbPolyline
 90
37
 70
0
 10
273.50395223586764
 20
513.1209152460809
 10
273.1690545960645
 20
512.9367032853175
 10
272.8749040854102
 20
512.7614772053286
 10
272.72579030375846
 20
512.6760866473056
 10
272.55617891965625
 20
512.582791138709
 10
272.28024382204507
 20
512.3888639076253
 10
272.019012906929
 20
512.2172129811055
 10
271.67514702728624
 20
512.0063506746717
 10
271.30250291018945
 20
511.74445632910346
 10
270.83728556920096
 20
511.45424857941435
 10
270.50238792939905
 20
511.27003661865166
 10
270.2082374187435
 20
511.09481053866193
 10
270.05912363709297
 20
511.0094199806396
 10
269.8895122529905
 20
510.91612447204284
 10
269.61357715537906
 20
510.7221972409588
 10
269.3523462402757
 20
510.55054631444676
 10
269.00848036102354
 20
510.339684008251
 10
268.63583624381505
 20
510.07778966249913
 10
268.17061898629424
 20
509.7875819586037
 10
267.83572256258475
 20
509.6033706583701
 10
267.54157252035407
 20
509.428144624273
 10
267.39251399824906
 20
509.34278434779634
 10
267.22306291037637
 20
509.24957410016714
 10
266.9470420568681
 20
509.05554780793216
 10
266.6915868089446
 20
508.8874102141091
 10
266.3559802083142
 20
508.6809442545975
 10
266.1719150432945
 20
508.5497780017311
 10
266.91751678008586
 20
505.27401346713305
 10
275.15960329491645
 20
508.20927789621055
 10
275.4368374675745
 20
514.3681679696462
 10
275.392456970426
 20
514.3427533139727
 10
275.22284558632293
 20
514.2494578053755
 10
274.9469104887107
 20
514.0555305742912
 10
274.68567957359545
 20
513.883879647772
 10
274.3418136939529
 20
513.6730173413384
 10
273.969169576857
 20
513.4111229957707
 10
273.50395223586764
 20
513.1209152460809
  0
LWPOLYLINE
  5
5D
330
17
100
AcDbEntity
  8
default
100
AcDbPolyline
 90
19
 70
0
 10
279.67019421403
 20
510.2902339437157
 10
279.97324238103
 20
511.36528908101565
 10
280.57023052458
 20
512.4357350398155
 10
281.37952781533
 20
513.4045607290655
 10
282.15389285407997
 20
514.0916995027155
 10
282.78990469623
 20
514.5256274748656
 10
283.34568813933
 20
514.8391703979655
 10
283.90370613033
 20
515.1500194550656
 10
284.5140628899301
 20
515.5089977776156
 10
285.09519076926205
 20
515.8668561660097
 10
284.3277833437085
 20
517.2215197220552
 10
279.5551441665739
 20
516.9064262509346
 10
279.14456637296826
 20
507.7852436956018
 10
280.357201567851
 20
506.93760868906975
 10
281.0348484921494
 20
506.9823474831828
 10
280.46826495098
 20
507.48213614336566
 10
279.92523488188
 20
508.2994885715656
 10
279.65858527753
 20
509.2336756114156
 10
279.67019421403
 20
510.2902339437157
  0
LWPOLYLINE
  5
5E
330
17
100
AcDbEntity
  8
default
100
AcDbPolyline
 90
65
 70
0
 10
91.29586408137646
 20
310.26141151491066
 10
91.09088710140674
 20
310.8342837965966
 10
90.83074583879656
 20
311.3843062842542
 10
90.51794559611255
 20
311.9061819606545
 10
90.15549881068573
 20
312.39488487774764
 10
89.74689604319336
 20
312.8457085592896
 10
89.29607236165137
 20
313.254311326782
 10
88.8073694445583
 20
313.6167581122088
 10
88.28549376815795
 20
313.92955835489283
 10
87.73547128050032
 20
314.189699617503
 10
87.16259899881443
 20
314.3946765974727
 10
86.57239399633676
 20
314.54251525443306
 10
85.97054026988003
 20
314.6317918213006
 10
85.36283399983677
 20
314.661646515933
 10
84.75512772979349
 20
314.6317918213006
 10
84.15327400333678
 20
314.54251525443306
 10
83.5630690008591
 20
314.3946765974727
 10
82.99019671917321
 20
314.189699617503
 10
82.44017423151558
 20
313.92955835489283
 10
81.91829855511523
 20
313.6167581122088
 10
81.42959563802216
 20
313.254311326782
 10
80.97877195648017
 20
312.8457085592896
 10
80.57016918898779
 20
312.3948848777476
 10
80.20772240356098
 20
311.9061819606545
 10
79.89492216087696
 20
311.3843062842542
 10
79.63478089826678
 20
310.8342837965966
 10
79.42980391829707
 20
310.26141151491066
 10
79.28196526133674
 20
309.671206512433
 10
79.19268869446914
 20
309.06935278597626
 10
79.16283399983676
 20
308.461646515933
 10
79.19268869446914
 20
307.85394024588976
 10
79.28196526133674
 20
307.252086519433
 10
79.42980391829707
 20
306.66188151695536
 10
79.63478089826678
 20
306.08900923526943
 10
79.89492216087696
 20
305.53898674761183
 10
80.20772240356098
 20
305.0171110712115
 10
80.57016918898779
 20
304.52840815411844
 10
80.97877195648017
 20
304.0775844725764
 10
81.42959563802216
 20
303.66898170508404
 10
81.91829855511523
 20
303.3065349196572
 10
82.44017423151558
 20
302.9937346769732
 10
82.99019671917321
 20
302.73359341436304
 10
83.5630690008591
 20
302.5286164343933
 10
84.15327400333678
 20
302.38077777743297
 10
84.75512772979349
 20
302.2915012105654
 10
85.36283399983677
 20
302.261646515933
 10
85.97054026988005
 20
302.2915012105654
 10
86.57239399633676
 20
302.38077777743297
 10
87.16259899881443
 20
302.5286164343933
 10
87.73547128050032
 20
302.73359341436304
 10
88.28549376815795
 20
302.9937346769732
 10
88.8073694445583
 20
303.3065349196572
 10
89.29607236165137
 20
303.66898170508404
 10
89.74689604319336
 20
304.0775844725764
 10
90.15549881068574
 20
304.52840815411844
 10
90.51794559611255
 20
305.0171110712115
 10
90.83074583879657
 20
305.53898674761183
 10
91.09088710140675
 20
306.08900923526943
 10
91.29586408137646
 20
306.66188151695536
 10
91.4437027383368
 20
307.252086519433
 10
91.53297930520439
 20
307.85394024588976
 10
91.56283399983677
 20
308.461646515933
 10
91.53297930520439
 20
309.06935278597626
 10
91.4437027383368
 20
309.671206512433
 10
91.29586408137646
 20
310.26141151491066
  0
LWPOLYLINE
  5
5F
330
17
100
AcDbEntity
  8
default
100
AcDbPolyline
 90
65
 70
0
 10
203.23477239715663
 20
445.1783814830187
 10
203.14549583028904
 20
445.78023520947545
 10
202.99765717332872
 20
446.3704402119531
 10
202.792680193359
 20
446.94331249363904
 10
202.5325389307488
 20
447.49333498129664
 10
202.2197386880648
 20
448.01521065769697
 10
201.857291902638
 20
448.5039135747901
 10
201.44868913514563
 20
448.95473725633207
 10
200.99786545360362
 20
449.36334002382443
 10
200.50916253651056
 20
449.72578680925125
 10
199.9872868601102
 20
450.0385870519353
 10
199.43726437245257
 20
450.29872831454543
 10
198.86439209076667
 20
450.50370529451516
 10
198.274187088289
 20
450.6515439514755
 10
197.6723333618323
 20
450.74082051834307
 10
197.06462709178902
 20
450.77067521297545
 10
196.45692082174574
 20
450.74082051834307
 10
195.85506709528903
 20
450.6515439514755
 10
195.26486209281134
 20
450.50370529451516
 10
194.69198981112547
 20
450.29872831454543
 10
194.14196732346784
 20
450.0385870519353
 10
193.62009164706748
 20
449.72578680925125
 10
193.13138872997442
 20
449.36334002382443
 10
192.6805650484324
 20
448.95473725633207
 10
192.27196228094004
 20
448.50391357479003
 10
191.90951549551323
 20
448.01521065769697
 10
191.59671525282923
 20
447.49333498129664
 10
191.33657399021905
 20
446.94331249363904
 10
191.13159701024932
 20
446.3704402119531
 10
190.983758353289
 20
445.78023520947545
 10
190.8944817864214
 20
445.1783814830187
 10
190.86462709178903
 20
444.57067521297546
 10
190.8944817864214
 20
443.9629689429322
 10
190.983758353289
 20
443.36111521647547
 10
191.13159701024932
 20
442.7709102139978
 10
191.33657399021905
 20
442.1980379323119
 10
191.59671525282923
 20
441.6480154446543
 10
191.90951549551323
 20
441.12613976825395
 10
192.27196228094004
 20
440.6374368511609
 10
192.6805650484324
 20
440.18661316961885
 10
193.13138872997442
 20
439.7780104021265
 10
193.62009164706748
 20
439.41556361669967
 10
194.14196732346784
 20
439.10276337401564
 10
194.69198981112547
 20
438.8426221114055
 10
195.26486209281134
 20
438.63764513143576
 10
195.85506709528903
 20
438.4898064744754
 10
196.45692082174574
 20
438.40052990760785
 10
197.06462709178902
 20
438.37067521297547
 10
197.6723333618323
 20
438.40052990760785
 10
198.274187088289
 20
438.4898064744754
 10
198.8643920907667
 20
438.63764513143576
 10
199.43726437245257
 20
438.8426221114055
 10
199.9872868601102
 20
439.10276337401564
 10
200.50916253651056
 20
439.41556361669967
 10
200.99786545360362
 20
439.7780104021265
 10
201.44868913514563
 20
440.18661316961885
 10
201.857291902638
 20
440.6374368511609
 10
202.2197386880648
 20
441.12613976825395
 10
202.5325389307488
 20
441.6480154446543
 10
202.792680193359
 20
442.1980379323119
 10
202.99765717332872
 20
442.7709102139978
 10
203.14549583028904
 20
443.36111521647547
 10
203.23477239715663
 20
443.9629689429322
 10
203.264627091789
 20
444.57067521297546
 10
203.23477239715663
 20
445.1783814830187
  0
ENDSEC
  0
SECTION
  2
OBJECTS
  0
DICTIONARY
  5
A
330
0
100
AcDbDictionary
280
0
281
1
  3
ACAD_COLOR
350
B
  3
ACAD_GROUP
350
C
  3
ACAD_LAYOUT
350
D
  3
ACAD_MATERIAL
350
E
  3
ACAD_MLEADERSTYLE
350
F
  3
ACAD_MLINESTYLE
350
10
  3
ACAD_PLOTSETTINGS
350
11
  3
ACAD_PLOTSTYLENAME
350
12
  3
ACAD_SCALELIST
350
14
  3
ACAD_TABLESTYLE
350
15
  3
ACAD_VISUALSTYLE
350
16
  3
EZDXF_META
350
2D
  0
DICTIONARY
  5
B
330
A
100
AcDbDictionary
280
0
281
1
  0
DICTIONARY
  5
C
330
A
100
AcDbDictionary
280
0
281
1
  0
DICTIONARY
  5
D
330
A
100
AcDbDictionary
280
0
281
1
  3
Model
350
1A
  3
Layout1
350
1E
  0
DICTIONARY
  5
E
330
A
100
AcDbDictionary
280
0
281
1
  3
ByBlock
350
1F
  3
ByLayer
350
20
  3
Global
350
21
  0
DICTIONARY
  5
F
330
A
100
AcDbDictionary
280
0
281
1
  3
Standard
350
2C
  0
DICTIONARY
  5
10
330
A
100
AcDbDictionary
280
0
281
1
  3
Standard
350
22
  0
DICTIONARY
  5
11
330
A
100
AcDbDictionary
280
0
281
1
  0
ACDBDICTIONARYWDFLT
  5
12
330
A
100
AcDbDictionary
280
0
281
1
  3
Normal
350
13
100
AcDbDictionaryWithDefault
340
13
  0
ACDBPLACEHOLDER
  5
13
330
12
  0
DICTIONARY
  5
14
330
A
100
AcDbDictionary
280
0
281
1
  0
DICTIONARY
  5
15
330
A
100
AcDbDictionary
280
0
281
1
  0
DICTIONARY
  5
16
330
A
100
AcDbDictionary
280
0
281
1
  0
LAYOUT
  5
1A
330
D
100
AcDbPlotSettings
  1

  2
Adobe PDF
  4
A3
  6

 40
7.5
 41
20.0
 42
7.5
 43
20.0
 44
420.0
 45
297.0
 46
0.0
 47
0.0
 48
0.0
 49
0.0
140
0.0
141
0.0
142
1.0
143
1.0
 70
1024
 72
1
 73
0
 74
5
  7

 75
16
 76
0
 77
2
 78
300
147
1.0
148
0.0
149
0.0
100
AcDbLayout
  1
Model
 70
1
 71
0
 10
0.0
 20
0.0
 11
420.0
 21
297.0
 12
0.0
 22
0.0
 32
0.0
 14
1e+20
 24
1e+20
 34
1e+20
 15
-1e+20
 25
-1e+20
 35
-1e+20
146
0.0
 13
0.0
 23
0.0
 33
0.0
 16
1.0
 26
0.0
 36
0.0
 17
0.0
 27
1.0
 37
0.0
 76
1
330
17
  0
LAYOUT
  5
1E
330
D
100
AcDbPlotSettings
  1

  2
Adobe PDF
  4
A3
  6

 40
7.5
 41
20.0
 42
7.5
 43
20.0
 44
420.0
 45
297.0
 46
0.0
 47
0.0
 48
0.0
 49
0.0
140
0.0
141
0.0
142
1.0
143
1.0
 70
0
 72
1
 73
0
 74
5
  7

 75
16
 76
0
 77
2
 78
300
147
1.0
148
0.0
149
0.0
100
AcDbLayout
  1
Layout1
 70
1
 71
1
 10
0.0
 20
0.0
 11
420.0
 21
297.0
 12
0.0
 22
0.0
 32
0.0
 14
1e+20
 24
1e+20
 34
1e+20
 15
-1e+20
 25
-1e+20
 35
-1e+20
146
0.0
 13
0.0
 23
0.0
 33
0.0
 16
1.0
 26
0.0
 36
0.0
 17
0.0
 27
1.0
 37
0.0
 76
1
330
1B
  0
MATERIAL
  5
1F
102
{ACAD_REACTORS
330
E
102
}
330
E
100
AcDbMaterial
  1
ByBlock
  2

 70
0
 40
1.0
 71
1
 41
1.0
 91
-1023410177
 42
1.0
 72
1
  3

 73
1
 74
1
 75
1
 44
0.5
 73
0
 45
1.0
 46
1.0
 77
1
  4

 78
1
 79
1
170
1
 48
1.0
171
1
  6

172
1
173
1
174
1
140
1.0
141
1.0
175
1
  7

176
1
177
1
178
1
143
1.0
179
1
  8

270
1
271
1
272
1
145
1.0
146
1.0
273
1
  9

274
1
275
1
276
1
 42
1.0
 72
1
  3

 73
1
 74
1
 75
1
 94
63
  0
MATERIAL
  5
20
102
{ACAD_REACTORS
330
E
102
}
330
E
100
AcDbMaterial
  1
ByLayer
  2

 70
0
 40
1.0
 71
1
 41
1.0
 91
-1023410177
 42
1.0
 72
1
  3

 73
1
 74
1
 75
1
 44
0.5
 73
0
 45
1.0
 46
1.0
 77
1
  4

 78
1
 79
1
170
1
 48
1.0
171
1
  6

172
1
173
1
174
1
140
1.0
141
1.0
175
1
  7

176
1
177
1
178
1
143
1.0
179
1
  8

270
1
271
1
272
1
145
1.0
146
1.0
273
1
  9

274
1
275
1
276
1
 42
1.0
 72
1
  3

 73
1
 74
1
 75
1
 94
63
  0
MATERIAL
  5
21
102
{ACAD_REACTORS
330
E
102
}
330
E
100
AcDbMaterial
  1
Global
  2

 70
0
 40
1.0
 71
1
 41
1.0
 91
-1023410177
 42
1.0
 72
1
  3

 73
1
 74
1
 75
1
 44
0.5
 73
0
 45
1.0
 46
1.0
 77
1
  4

 78
1
 79
1
170
1
 48
1.0
171
1
  6

172
1
173
1
174
1
140
1.0
141
1.0
175
1
  7

176
1
177
1
178
1
143
1.0
179
1
  8

270
1
271
1
272
1
145
1.0
146
1.0
273
1
  9

274
1
275
1
276
1
 42
1.0
 72
1
  3

 73
1
 74
1
 75
1
 94
63
  0
MLINESTYLE
  5
22
102
{ACAD_REACTORS
330
10
102
}
330
10
100
AcDbMlineStyle
  2
Standard
 70
0
  3

 62
256
 51
90.0
 52
90.0
 71
2
 49
0.5
 62
256
  6
BYLAYER
 49
-0.5
 62
256
  6
BYLAYER
  0
MLEADERSTYLE
  5
2C
102
{ACAD_REACTORS
330
F
102
}
330
F
100
AcDbMLeaderStyle
179
2
170
2
171
1
172
0
 90
2
 40
0.0
 41
0.0
173
1
 91
-1056964608
 92
-2
290
1
 42
2.0
291
1
 43
8.0
  3
Standard
 44
4.0
300

342
29
174
1
175
1
176
0
178
1
 93
-1056964608
 45
4.0
292
0
297
0
 46
4.0
 94
-1056964608
 47
1.0
 49
1.0
140
1.0
294
1
141
0.0
177
0
142
1.0
295
0
296
0
143
3.75
271
0
272
9
273
9
  0
DICTIONARY
  5
2D
330
A
100
AcDbDictionary
281
1
  3
CREATED_BY_EZDXF
350
2E
  3
WRITTEN_BY_EZDXF
350
62
  0
DICTIONARYVAR
  5
2E
330
2D
100
DictionaryVariables
280
0
  1
1.1.1 @ 2023-10-14T00:49:08.769053+00:00
  0
DICTIONARYVAR
  5
62
330
2D
100
DictionaryVariables
280
0
  1
1.1.1 @ 2023-10-14T00:49:08.793052+00:00
  0
ENDSEC
  0
EOF
