  0
SECTION
  2
HEADER
  9
$ACADVER
  1
AC1024
  9
$ACADMAINTVER
 70
6
  9
$DWGCODEPAGE
  3
ANSI_1252
  9
$LASTSAVEDBY
  1
ezdxf
  9
$INSBASE
 10
0.0
 20
0.0
 30
0.0
  9
$EXTMIN
 10
1e+20
 20
1e+20
 30
1e+20
  9
$EXTMAX
 10
-1e+20
 20
-1e+20
 30
-1e+20
  9
$LIMMIN
 10
0.0
 20
0.0
  9
$LIMMAX
 10
420.0
 20
297.0
  9
$ORTHOMODE
 70
0
  9
$REGENMODE
 70
1
  9
$FILLMODE
 70
1
  9
$QTEXTMODE
 70
0
  9
$MIRRTEXT
 70
1
  9
$LTSCALE
 40
1.0
  9
$ATTMODE
 70
1
  9
$TEXTSIZE
 40
2.5
  9
$TRACEWID
 40
1.0
  9
$TEXTSTYLE
  7
Standard
  9
$CLAYER
  8
0
  9
$CELTYPE
  6
ByLayer
  9
$CECOLOR
 62
256
  9
$CELTSCALE
 40
1.0
  9
$DISPSILH
 70
0
  9
$DIMSCALE
 40
1.0
  9
$DIMASZ
 40
2.5
  9
$DIMEXO
 40
0.625
  9
$DIMDLI
 40
3.75
  9
$DIMRND
 40
0.0
  9
$DIMDLE
 40
0.0
  9
$DIMEXE
 40
1.25
  9
$DIMTP
 40
0.0
  9
$DIMTM
 40
0.0
  9
$DIMTXT
 40
2.5
  9
$DIMCEN
 40
2.5
  9
$DIMTSZ
 40
0.0
  9
$DIMTOL
 70
0
  9
$DIMLIM
 70
0
  9
$DIMTIH
 70
0
  9
$DIMTOH
 70
0
  9
$DIMSE1
 70
0
  9
$DIMSE2
 70
0
  9
$DIMTAD
 70
1
  9
$DIMZIN
 70
8
  9
$DIMBLK
  1

  9
$DIMASO
 70
1
  9
$DIMSHO
 70
1
  9
$DIMPOST
  1

  9
$DIMAPOST
  1

  9
$DIMALT
 70
0
  9
$DIMALTD
 70
3
  9
$DIMALTF
 40
0.03937007874
  9
$DIMLFAC
 40
1.0
  9
$DIMTOFL
 70
1
  9
$DIMTVP
 40
0.0
  9
$DIMTIX
 70
0
  9
$DIMSOXD
 70
0
  9
$DIMSAH
 70
0
  9
$DIMBLK1
  1

  9
$DIMBLK2
  1

  9
$DIMSTYLE
  2
ISO-25
  9
$DIMCLRD
 70
0
  9
$DIMCLRE
 70
0
  9
$DIMCLRT
 70
0
  9
$DIMTFAC
 40
1.0
  9
$DIMGAP
 40
0.625
  9
$DIMJUST
 70
0
  9
$DIMSD1
 70
0
  9
$DIMSD2
 70
0
  9
$DIMTOLJ
 70
0
  9
$DIMTZIN
 70
8
  9
$DIMALTZ
 70
0
  9
$DIMALTTZ
 70
0
  9
$DIMUPT
 70
0
  9
$DIMDEC
 70
2
  9
$DIMTDEC
 70
2
  9
$DIMALTU
 70
2
  9
$DIMALTTD
 70
3
  9
$DIMTXSTY
  7
Standard
  9
$DIMAUNIT
 70
0
  9
$DIMADEC
 70
0
  9
$DIMALTRND
 40
0.0
  9
$DIMAZIN
 70
0
  9
$DIMDSEP
 70
44
  9
$DIMATFIT
 70
3
  9
$DIMFRAC
 70
0
  9
$DIMLDRBLK
  1

  9
$DIMLUNIT
 70
2
  9
$DIMLWD
 70
-2
  9
$DIMLWE
 70
-2
  9
$DIMTMOVE
 70
0
  9
$DIMFXL
 40
1.0
  9
$DIMFXLON
 70
0
  9
$DIMJOGANG
 40
0.785398163397
  9
$DIMTFILL
 70
0
  9
$DIMTFILLCLR
 70
0
  9
$DIMARCSYM
 70
0
  9
$DIMLTYPE
  6

  9
$DIMLTEX1
  6

  9
$DIMLTEX2
  6

  9
$DIMTXTDIRECTION
 70
0
  9
$LUNITS
 70
2
  9
$LUPREC
 70
4
  9
$SKETCHINC
 40
1.0
  9
$FILLETRAD
 40
10.0
  9
$AUNITS
 70
0
  9
$AUPREC
 70
2
  9
$MENU
  1
.
  9
$ELEVATION
 40
0.0
  9
$PELEVATION
 40
0.0
  9
$THICKNESS
 40
0.0
  9
$LIMCHECK
 70
0
  9
$CHAMFERA
 40
0.0
  9
$CHAMFERB
 40
0.0
  9
$CHAMFERC
 40
0.0
  9
$CHAMFERD
 40
0.0
  9
$SKPOLY
 70
0
  9
$TDCREATE
 40
2460246.482303241
  9
$TDUCREATE
 40
2458532.153996898
  9
$TDUPDATE
 40
2460246.482303241
  9
$TDUUPDATE
 40
2458532.1544311
  9
$TDINDWG
 40
0.0
  9
$TDUSRTIMER
 40
0.0
  9
$USRTIMER
 70
1
  9
$ANGBASE
 50
0.0
  9
$ANGDIR
 70
0
  9
$PDMODE
 70
0
  9
$PDSIZE
 40
0.0
  9
$PLINEWID
 40
0.0
  9
$SPLFRAME
 70
0
  9
$SPLINETYPE
 70
6
  9
$SPLINESEGS
 70
8
  9
$HANDSEED
  5
4F
  9
$SURFTAB1
 70
6
  9
$SURFTAB2
 70
6
  9
$SURFTYPE
 70
6
  9
$SURFU
 70
6
  9
$SURFV
 70
6
  9
$UCSBASE
  2

  9
$UCSNAME
  2

  9
$UCSORG
 10
0.0
 20
0.0
 30
0.0
  9
$UCSXDIR
 10
1.0
 20
0.0
 30
0.0
  9
$UCSYDIR
 10
0.0
 20
1.0
 30
0.0
  9
$UCSORTHOREF
  2

  9
$UCSORTHOVIEW
 70
0
  9
$UCSORGTOP
 10
0.0
 20
0.0
 30
0.0
  9
$UCSORGBOTTOM
 10
0.0
 20
0.0
 30
0.0
  9
$UCSORGLEFT
 10
0.0
 20
0.0
 30
0.0
  9
$UCSORGRIGHT
 10
0.0
 20
0.0
 30
0.0
  9
$UCSORGFRONT
 10
0.0
 20
0.0
 30
0.0
  9
$UCSORGBACK
 10
0.0
 20
0.0
 30
0.0
  9
$PUCSBASE
  2

  9
$PUCSNAME
  2

  9
$PUCSORG
 10
0.0
 20
0.0
 30
0.0
  9
$PUCSXDIR
 10
1.0
 20
0.0
 30
0.0
  9
$PUCSYDIR
 10
0.0
 20
1.0
 30
0.0
  9
$PUCSORTHOREF
  2

  9
$PUCSORTHOVIEW
 70
0
  9
$PUCSORGTOP
 10
0.0
 20
0.0
 30
0.0
  9
$PUCSORGBOTTOM
 10
0.0
 20
0.0
 30
0.0
  9
$PUCSORGLEFT
 10
0.0
 20
0.0
 30
0.0
  9
$PUCSORGRIGHT
 10
0.0
 20
0.0
 30
0.0
  9
$PUCSORGFRONT
 10
0.0
 20
0.0
 30
0.0
  9
$PUCSORGBACK
 10
0.0
 20
0.0
 30
0.0
  9
$USERI1
 70
0
  9
$USERI2
 70
0
  9
$USERI3
 70
0
  9
$USERI4
 70
0
  9
$USERI5
 70
0
  9
$USERR1
 40
0.0
  9
$USERR2
 40
0.0
  9
$USERR3
 40
0.0
  9
$USERR4
 40
0.0
  9
$USERR5
 40
0.0
  9
$WORLDVIEW
 70
1
  9
$SHADEDGE
 70
3
  9
$SHADEDIF
 70
70
  9
$TILEMODE
 70
1
  9
$MAXACTVP
 70
64
  9
$PINSBASE
 10
0.0
 20
0.0
 30
0.0
  9
$PLIMCHECK
 70
0
  9
$PEXTMIN
 10
1e+20
 20
1e+20
 30
1e+20
  9
$PEXTMAX
 10
-1e+20
 20
-1e+20
 30
-1e+20
  9
$PLIMMIN
 10
0.0
 20
0.0
  9
$PLIMMAX
 10
420.0
 20
297.0
  9
$UNITMODE
 70
0
  9
$VISRETAIN
 70
1
  9
$PLINEGEN
 70
0
  9
$PSLTSCALE
 70
1
  9
$TREEDEPTH
 70
3020
  9
$CMLSTYLE
  2
Standard
  9
$CMLJUST
 70
0
  9
$CMLSCALE
 40
20.0
  9
$PROXYGRAPHICS
 70
1
  9
$MEASUREMENT
 70
1
  9
$CELWEIGHT
370
-1
  9
$ENDCAPS
280
0
  9
$JOINSTYLE
280
0
  9
$LWDISPLAY
290
0
  9
$INSUNITS
 70
4
  9
$HYPERLINKBASE
  1

  9
$STYLESHEET
  1

  9
$XEDIT
290
1
  9
$CEPSNTYPE
380
0
  9
$PSTYLEMODE
290
1
  9
$FINGERPRINTGUID
  2
{EA2F622E-AD3B-4F6B-B1B2-EF5512C1A775}
  9
$VERSIONGUID
  2
{5F68258B-4D18-4636-A0EA-59BDF003D413}
  9
$EXTNAMES
290
1
  9
$PSVPSCALE
 40
0.0
  9
$OLESTARTUP
290
0
  9
$SORTENTS
280
127
  9
$INDEXCTL
280
0
  9
$HIDETEXT
280
1
  9
$XCLIPFRAME
280
0
  9
$HALOGAP
280
0
  9
$OBSCOLOR
 70
257
  9
$OBSLTYPE
280
0
  9
$INTERSECTIONDISPLAY
280
0
  9
$INTERSECTIONCOLOR
 70
257
  9
$DIMASSOC
280
2
  9
$PROJECTNAME
  1

  9
$CAMERADISPLAY
290
0
  9
$LENSLENGTH
 40
50.0
  9
$CAMERAHEIGHT
 40
0.0
  9
$STEPSPERSEC
 40
24.0
  9
$STEPSIZE
 40
100.0
  9
$3DDWFPREC
 40
2.0
  9
$PSOLWIDTH
 40
0.005
  9
$PSOLHEIGHT
 40
0.08
  9
$LOFTANG1
 40
1.570796326795
  9
$LOFTANG2
 40
1.570796326795
  9
$LOFTMAG1
 40
0.0
  9
$LOFTMAG2
 40
0.0
  9
$LOFTPARAM
 70
7
  9
$LOFTNORMALS
280
1
  9
$LATITUDE
 40
37.795
  9
$LONGITUDE
 40
-122.394
  9
$NORTHDIRECTION
 40
0.0
  9
$TIMEZONE
 70
-8000
  9
$LIGHTGLYPHDISPLAY
280
1
  9
$TILEMODELIGHTSYNCH
280
1
  9
$CMATERIAL
347
20
  9
$SOLIDHIST
280
0
  9
$SHOWHIST
280
1
  9
$DWFFRAME
280
2
  9
$DGNFRAME
280
2
  9
$REALWORLDSCALE
290
1
  9
$INTERFERECOLOR
 62
256
  9
$CSHADOW
280
0
  9
$SHADOWPLANELOCATION
 40
0.0
  0
ENDSEC
  0
SECTION
  2
CLASSES
  0
CLASS
  1
ACDBDICTIONARYWDFLT
  2
AcDbDictionaryWithDefault
  3
ObjectDBX Classes
 90
0
 91
0
280
0
281
0
  0
CLASS
  1
SUN
  2
AcDbSun
  3
SCENEOE
 90
1153
 91
0
280
0
281
0
  0
CLASS
  1
VISUALSTYLE
  2
AcDbVisualStyle
  3
ObjectDBX Classes
 90
4095
 91
0
280
0
281
0
  0
CLASS
  1
MATERIAL
  2
AcDbMaterial
  3
ObjectDBX Classes
 90
1153
 91
0
280
0
281
0
  0
CLASS
  1
SCALE
  2
AcDbScale
  3
ObjectDBX Classes
 90
1153
 91
0
280
0
281
0
  0
CLASS
  1
TABLESTYLE
  2
AcDbTableStyle
  3
ObjectDBX Classes
 90
4095
 91
0
280
0
281
0
  0
CLASS
  1
MLEADERSTYLE
  2
AcDbMLeaderStyle
  3
ACDB_MLEADERSTYLE_CLASS
 90
4095
 91
0
280
0
281
0
  0
CLASS
  1
DICTIONARYVAR
  2
AcDbDictionaryVar
  3
ObjectDBX Classes
 90
0
 91
0
280
0
281
0
  0
CLASS
  1
CELLSTYLEMAP
  2
AcDbCellStyleMap
  3
ObjectDBX Classes
 90
1152
 91
0
280
0
281
0
  0
CLASS
  1
MENTALRAYRENDERSETTINGS
  2
AcDbMentalRayRenderSettings
  3
SCENEOE
 90
1024
 91
0
280
0
281
0
  0
CLASS
  1
ACDBDETAILVIEWSTYLE
  2
AcDbDetailViewStyle
  3
ObjectDBX Classes
 90
1025
 91
0
280
0
281
0
  0
CLASS
  1
ACDBSECTIONVIEWSTYLE
  2
AcDbSectionViewStyle
  3
ObjectDBX Classes
 90
1025
 91
0
280
0
281
0
  0
CLASS
  1
RASTERVARIABLES
  2
AcDbRasterVariables
  3
ISM
 90
0
 91
0
280
0
281
0
  0
CLASS
  1
ACDBPLACEHOLDER
  2
AcDbPlaceHolder
  3
ObjectDBX Classes
 90
0
 91
0
280
0
281
0
  0
CLASS
  1
LAYOUT
  2
AcDbLayout
  3
ObjectDBX Classes
 90
0
 91
0
280
0
281
0
  0
ENDSEC
  0
SECTION
  2
TABLES
  0
TABLE
  2
VPORT
  5
8
330
0
100
AcDbSymbolTable
 70
1
  0
VPORT
  5
23
330
8
100
AcDbSymbolTableRecord
100
AcDbViewportTableRecord
  2
*Active
 70
0
 10
0.0
 20
0.0
 11
1.0
 21
1.0
 12
0.0
 22
0.0
 13
0.0
 23
0.0
 14
0.5
 24
0.5
 15
0.5
 25
0.5
 16
0.0
 26
0.0
 36
1.0
 17
0.0
 27
0.0
 37
0.0
 40
1000.0
 41
1.34
 42
50.0
 43
0.0
 44
0.0
 50
0.0
 51
0.0
 71
0
 72
1000
 73
1
 74
3
 75
0
 76
0
 77
0
 78
0
281
0
 65
0
146
0.0
  0
ENDTAB
  0
TABLE
  2
LTYPE
  5
2
330
0
100
AcDbSymbolTable
 70
3
  0
LTYPE
  5
24
330
2
100
AcDbSymbolTableRecord
100
AcDbLinetypeTableRecord
  2
ByBlock
 70
0
  3

 72
65
 73
0
 40
0.0
  0
LTYPE
  5
25
330
2
100
AcDbSymbolTableRecord
100
AcDbLinetypeTableRecord
  2
ByLayer
 70
0
  3

 72
65
 73
0
 40
0.0
  0
LTYPE
  5
26
330
2
100
AcDbSymbolTableRecord
100
AcDbLinetypeTableRecord
  2
Continuous
 70
0
  3

 72
65
 73
0
 40
0.0
  0
ENDTAB
  0
TABLE
  2
LAYER
  5
1
330
0
100
AcDbSymbolTable
 70
2
  0
LAYER
  5
27
330
1
100
AcDbSymbolTableRecord
100
AcDbLayerTableRecord
  2
0
 70
0
 62
7
  6
Continuous
370
-3
390
13
347
21
  0
LAYER
  5
28
330
1
100
AcDbSymbolTableRecord
100
AcDbLayerTableRecord
  2
Defpoints
 70
0
 62
7
  6
Continuous
290
0
370
-3
390
13
347
21
  0
ENDTAB
  0
TABLE
  2
STYLE
  5
5
330
0
100
AcDbSymbolTable
 70
1
  0
STYLE
  5
29
330
5
100
AcDbSymbolTableRecord
100
AcDbTextStyleTableRecord
  2
Standard
 70
0
 40
0.0
 41
1.0
 50
0.0
 71
0
 42
2.5
  3
txt
  4

  0
ENDTAB
  0
TABLE
  2
VIEW
  5
7
330
0
100
AcDbSymbolTable
 70
0
  0
ENDTAB
  0
TABLE
  2
UCS
  5
6
330
0
100
AcDbSymbolTable
 70
0
  0
ENDTAB
  0
TABLE
  2
APPID
  5
3
330
0
100
AcDbSymbolTable
 70
3
  0
APPID
  5
2A
330
3
100
AcDbSymbolTableRecord
100
AcDbRegAppTableRecord
  2
ACAD
 70
0
  0
APPID
  5
4C
330
3
100
AcDbSymbolTableRecord
100
AcDbRegAppTableRecord
  2
HATCHBACKGROUNDCOLOR
 70
0
  0
APPID
  5
4D
330
3
100
AcDbSymbolTableRecord
100
AcDbRegAppTableRecord
  2
EZDXF
 70
0
  0
ENDTAB
  0
TABLE
  2
DIMSTYLE
  5
4
330
0
100
AcDbSymbolTable
 70
1
100
AcDbDimStyleTable
  0
DIMSTYLE
105
2B
330
4
100
AcDbSymbolTableRecord
100
AcDbDimStyleTableRecord
  2
Standard
 70
0
 40
1.0
 41
2.5
 42
0.625
 43
3.75
 44
1.25
 45
0.0
 46
0.0
 47
0.0
 48
0.0
 49
2.5
140
2.5
141
2.5
142
0.0
143
0.03937007874
144
1.0
145
0.0
146
1.0
147
0.625
148
0.0
 69
0
 70
0
 71
0
 72
0
 73
0
 74
0
 75
0
 76
0
 77
1
 78
8
 79
3
170
0
171
3
172
1
173
0
174
0
175
0
176
0
177
0
178
0
179
2
271
2
272
2
273
2
274
3
275
0
276
0
277
2
278
44
279
0
280
0
281
0
282
0
283
0
284
8
285
0
286
0
288
0
289
3
290
0
371
-2
372
-2
  0
ENDTAB
  0
TABLE
  2
BLOCK_RECORD
  5
9
330
0
100
AcDbSymbolTable
 70
2
  0
BLOCK_RECORD
  5
17
330
9
100
AcDbSymbolTableRecord
100
AcDbBlockTableRecord
  2
*Model_Space
340
1A
 70
0
280
1
281
0
  0
BLOCK_RECORD
  5
1B
330
9
100
AcDbSymbolTableRecord
100
AcDbBlockTableRecord
  2
*Paper_Space
340
1E
 70
0
280
1
281
0
  0
ENDTAB
  0
ENDSEC
  0
SECTION
  2
BLOCKS
  0
BLOCK
  5
18
330
17
100
AcDbEntity
  8
0
100
AcDbBlockBegin
  2
*Model_Space
 70
0
 10
0.0
 20
0.0
 30
0.0
  3
*Model_Space
  1

  0
ENDBLK
  5
19
330
17
100
AcDbEntity
  8
0
100
AcDbBlockEnd
  0
BLOCK
  5
1C
330
1B
100
AcDbEntity
  8
0
100
AcDbBlockBegin
  2
*Paper_Space
 70
0
 10
0.0
 20
0.0
 30
0.0
  3
*Paper_Space
  1

  0
ENDBLK
  5
1D
330
1B
100
AcDbEntity
  8
0
100
AcDbBlockEnd
  0
ENDSEC
  0
SECTION
  2
ENTITIES
  0
LWPOLYLINE
  5
2F
330
17
100
AcDbEntity
  8
default
100
AcDbPolyline
 90
750
 70
0
 10
365.37169001369233
 20
567.3370449119614
 10
364.1929976442445
 20
570.3926899781566
 10
364.24186379427516
 20
570.4077188181334
 10
364.64958261240844
 20
570.5922811818668
 10
365.0170840542584
 20
570.7410521514668
 10
365.4248028723918
 20
570.9256145152002
 10
365.90853046094185
 20
571.0743854848
 10
366.3162492790751
 20
571.2589478485335
 10
366.68375072092505
 20
571.4077188181334
 10
367.0914695390585
 20
571.5922811818668
 10
367.5751971276085
 20
571.7410521514668
 10
367.98291594574175
 20
571.9256145152002
 10
368.3504173875917
 20
572.0743854848
 10
368.54886312404693
 20
572.1642160556838
 10
368.7581362057251
 20
572.2589478485335
 10
369.2418637942752
 20
572.4077188181334
 10
369.6495826124143
 20
572.5922811818668
 10
370.0170840547392
 20
572.7410521514668
 10
370.4248028957006
 20
572.9256145152002
 10
370.9085312051835
 20
573.0743854848
 10
371.31626566053086
 20
573.2589478485335
 10
371.68400320583476
 20
573.4077188181334
 10
372.0941758519709
 20
573.5922811818668
 10
372.2657821367813
 20
573.643282615501
 10
372.5947506703925
 20
573.7410521514668
 10
373.0719160200641
 20
573.9256145152002
 10
373.57249155894357
 20
574.0743854848
 10
373.9826798422878
 20
574.2589478485335
 10
374.35065349104565
 20
574.4077188181334
 10
374.7608417743958
 20
574.5922811818668
 10
375.2614173137502
 20
574.7410521514668
 10
375.73858268624997
 20
574.9256145152002
 10
376.23915822560434
 20
575.0743854848
 10
376.64934650895447
 20
575.2589478485335
 10
377.0173201577123
 20
575.4077188181334
 10
377.42750844106246
 20
575.5922811818668
 10
377.92808398041694
 20
575.7410521514668
 10
378.40524935292245
 20
575.9256145152002
 10
378.90582489275175
 20
576.0743854848
 10
379.31601319893
 20
576.2589478485335
 10
379.68398756862075
 20
576.4077188181334
 10
380.09419148917914
 20
576.5922811818668
 10
380.4663575948812
 20
576.7028367435138
 10
380.5950031315125
 20
576.7410521514668
 10
381.07462230918685
 20
576.9256145152002
 10
381.59204435748
 20
577.0743854848
 10
382.0716635351602
 20
577.2589478485335
 10
382.57247517796856
 20
577.4077188181334
 10
382.9826791213609
 20
577.5922811818668
 10
383.3506542124593
 20
577.7410521514668
 10
383.76085817867386
 20
577.9256145152002
 10
384.261670542415
 20
578.0743854848
 10
384.51085010457496
 20
578.1702692020757
 10
384.74130535730336
 20
578.2589478485335
 10
385.25896350857556
 20
578.4077188181334
 10
385.7410364914246
 20
578.5922811818668
 10
386.2586946426968
 20
578.7410521514668
 10
386.73832945758517
 20
578.9256145152002
 10
387.23914182132637
 20
579.0743854848
 10
387.64934578754674
 20
579.2589478485335
 10
388.01732087912006
 20
579.4077188181334
 10
388.42752484534634
 20
579.5922811818668
 10
388.9283372095625
 20
579.7410521514668
 10
389.4079720472849
 20
579.9256145152002
 10
389.9256309199648
 20
580.0743854848
 10
390.407719562856
 20
580.2589478485335
 10
390.92561453851494
 20
580.4077188181334
 10
391.4077188186143
 20
580.5922811818668
 10
391.925614515206
 20
580.7410521514668
 10
392.40771881813345
 20
580.9256145152002
 10
392.9256145152001
 20
581.0743854848
 10
393.4077188181334
 20
581.2589478485335
 10
393.9256145152001
 20
581.4077188181334
 10
394.2648205616091
 20
581.5375759244421
 10
394.40771881813345
 20
581.5922811818668
 10
394.92561451520015
 20
581.7410521514668
 10
395.40771881813936
 20
581.9256145152002
 10
395.92561451568093
 20
582.0743854848
 10
396.40771884144823
 20
582.2589478485335
 10
396.92561525992267
 20
582.4077188181334
 10
397.40773522289817
 20
582.5922811818668
 10
397.92586774435154
 20
582.7410521514668
 10
398.26326442385886
 20
582.8695583413997
 10
398.4104415124958
 20
582.9256145152002
 10
398.94542054241305
 20
583.0743854848
 10
399.49942518205347
 20
583.2589478485335
 10
400.1672414846135
 20
583.4077188181334
 10
400.72124612425966
 20
583.5922811818668
 10
401.256225154652
 20
583.7410521514668
 10
401.7407989456302
 20
583.9256145152002
 10
402.2589321884912
 20
584.0743854848
 10
402.7410678115089
 20
584.2589478485335
 10
403.25920105437007
 20
584.4077188181334
 10
403.7437748453484
 20
584.5922811818668
 10
404.2787538757405
 20
584.7410521514668
 10
404.8327585153868
 20
584.9256145152002
 10
405.50057481794687
 20
585.0743854848
 10
406.05457945759304
 20
585.2589478485335
 10
406.58955848798536
 20
585.4077188181334
 10
407.07413227896353
 20
585.5922811818668
 10
407.5922655218246
 20
585.7410521514668
 10
408.0744011448422
 20
585.9256145152002
 10
408.3952639667844
 20
586.0177434681028
 10
408.59253438770344
 20
586.0743854848
 10
409.07710817868764
 20
586.2589478485335
 10
409.6120872095547
 20
586.4077188181334
 10
410.1660918720349
 20
586.5922811818668
 10
410.8339088960027
 20
586.7410521514668
 10
411.3879291956852
 20
586.9256145152002
 10
411.9231450499892
 20
587.0743854848
 10
412.41018828335024
 20
587.2589478485335
 10
412.9454041381292
 20
587.4077188181334
 10
413.49942446064574
 20
587.5922811818668
 10
414.16724220602117
 20
587.7410521514668
 10
414.7212625285377
 20
587.9256145152002
 10
415.25647838331656
 20
588.0743854848
 10
415.74352161668355
 20
588.2589478485335
 10
416.2787374714626
 20
588.4077188181334
 10
416.8327577939791
 20
588.5922811818668
 10
417.5005755393546
 20
588.7410521514668
 10
418.0545958618769
 20
588.9256145152002
 10
418.5898117171308
 20
589.0743854848
 10
419.07685497332585
 20
589.2589478485335
 10
419.61207154903764
 20
589.4077188181334
 10
420.1661075087682
 20
589.5922811818668
 10
420.8341613575976
 20
589.7410521514668
 10
421.3906355081227
 20
589.9256145152002
 10
421.94269859324817
 20
590.0743854848
 10
422.49918838098154
 20
590.2589478485335
 10
423.16747905372273
 20
590.4077188181334
 10
423.71882012702696
 20
590.5905684493353
 10
423.72398447866425
 20
590.5922811818668
 10
424.2762843877014
 20
590.7410521514668
 10
424.8352280034375
 20
590.9256145152002
 10
425.52036518559254
 20
591.0743854848
 10
426.14630150487
 20
591.2589478485335
 10
426.83143940795776
 20
591.4077188181334
 10
427.39039868373595
 20
591.5922811818668
 10
427.9429354176348
 20
591.7410521514668
 10
428.5019103306214
 20
591.9256145152002
 10
429.18728505762095
 20
592.0743854848
 10
429.81569084210355
 20
592.2589478485335
 10
430.51791135710897
 20
592.4077188181334
 10
431.14875530955794
 20
592.5922811818668
 10
431.8509758245636
 20
592.7410521514668
 10
432.479381609052
 20
592.9256145152002
 10
433.1647563365264
 20
593.0743854848
 10
433.7237312723468
 20
593.2589478485335
 10
434.2762687276534
 20
593.4077188181334
 10
434.83524366347973
 20
593.5922811818668
 10
435.52061839142925
 20
593.7410521514668
 10
436.1490241987516
 20
593.9256145152002
 10
436.8512454351648
 20
594.0743854848
 10
437.482105047656
 20
594.2589478485335
 10
437.5073559403829
 20
594.2642956463051
 10
438.18456238704835
 20
594.4077188181334
 10
438.81543763675353
 20
594.5922811818668
 10
439.5178956975535
 20
594.7410521514668
 10
440.148770992915
 20
594.9256145152002
 10
440.85122977512265
 20
595.0743854848
 10
441.41443868824894
 20
595.2391479863912
 10
441.4821207076982
 20
595.2589478485335
 10
442.1848155928849
 20
595.4077188181334
 10
442.8181603306292
 20
595.5922811818668
 10
443.5377017242798
 20
595.7410521514668
 10
444.24047733352603
 20
595.9256145152002
 10
445.0928560002943
 20
596.0743854848
 10
445.79563163236867
 20
596.2589478485335
 10
446.515173747427
 20
596.4077188181334
 10
447.14853414521934
 20
596.5922811818668
 10
447.8514658552677
 20
596.7410521514668
 10
448.48482627588817
 20
596.9256145152002
 10
449.20436911235413
 20
597.0743854848
 10
449.9071604044766
 20
597.2589478485335
 10
450.15718467357567
 20
597.3025740238758
 10
450.7597758961066
 20
597.4077188181334
 10
451.4650209934036
 20
597.5922811818668
 10
452.2016464417875
 20
597.7410521514668
 10
452.9069071991208
 20
597.9256145152002
 10
453.75976023607024
 20
598.0743854848
 10
454.1233290538454
 20
598.1695270757212
 10
454.46503665344585
 20
598.2589478485335
 10
455.20189964762403
 20
598.4077188181334
 10
455.9096298929964
 20
598.5922811818668
 10
456.7795662627965
 20
598.7410521514668
 10
457.5567429940509
 20
598.9256145152002
 10
458.4435258723149
 20
599.0743854848
 10
459.2231407943639
 20
599.2589478485335
 10
460.1099236735777
 20
599.4077188181334
 10
460.8871004505001
 20
599.5922811818668
 10
461.7570382631156
 20
599.7410521514668
 10
462.4647998285782
 20
599.9256145152002
 10
463.2021364720049
 20
600.0743854848
 10
463.9123518426422
 20
600.2589478485335
 10
464.04308249945876
 20
600.2808739801457
 10
464.79937226717544
 20
600.4077188181334
 10
465.64844938081075
 20
600.5922811818668
 10
466.6851535869256
 20
600.7410521514668
 10
467.53668452855777
 20
600.9256145152002
 10
468.02902926169355
 20
601.0066302202316
 10
468.4407882859418
 20
601.0743854848
 10
469.2229196305002
 20
601.2589478485335
 10
470.110413703807
 20
601.4077188181334
 10
470.8925450940274
 20
601.5922811818668
 10
471.79665029470164
 20
601.7410521514668
 10
472.6482125792521
 20
601.9256145152002
 10
473.6853911555482
 20
602.0743854848
 10
474.5394228596534
 20
602.2589478485335
 10
475.4608467747497
 20
602.4077188181334
 10
476.31733230685757
 20
602.5922811818668
 10
477.3715942164793
 20
602.7410521514668
 10
478.2950724977848
 20
602.9256145152002
 10
479.3493358497469
 20
603.0743854848
 10
479.41963863662244
 20
603.0895343381397
 10
480.2058527247733
 20
603.2589478485335
 10
481.12775101100056
 20
603.4077188181334
 10
481.9867373512437
 20
603.5922811818668
 10
483.05832086091806
 20
603.7410521514668
 10
483.37648015961605
 20
603.7998980923718
 10
484.0561846270237
 20
603.9256145152002
 10
485.2776887426663
 20
604.0743854848
 10
486.2804757791575
 20
604.2589478485335
 10
487.38646205798705
 20
604.4077188181334
 10
488.3917341968973
 20
604.5922811818668
 10
489.6307952936891
 20
604.7410521514668
 10
490.70551398697165
 20
604.9256145152002
 10
491.9614223145849
 20
605.0743854848
 10
492.6546753872348
 20
605.1931672217194
 10
493.03859485871595
 20
605.2589478485335
 10
494.2947400116658
 20
605.4077188181334
 10
495.37194387588113
 20
605.5922811818668
 10
496.6283272950834
 20
605.7410521514668
 10
496.63238782904955
 20
605.741746260376
 10
497.70801628455774
 20
605.9256145152002
 10
498.98171914101437
 20
606.0743854848
 10
500.13576231803245
 20
606.2589478485335
 10
501.57623373078684
 20
606.4077188181334
 10
502.8716394132643
 20
606.5922811818668
 10
504.4625043593527
 20
606.7410521514668
 10
505.7653028002607
 20
606.9256145152002
 10
507.2574978612901
 20
607.0743854848
 10
508.63222798182346
 20
607.2589478485335
 10
508.8938381587568
 20
607.2810823024469
 10
510.39057267972737
 20
607.4077188181334
 10
511.8372344798919
 20
607.5922811818668
 10
513.4969092932118
 20
607.7410521514668
 10
514.7902723997795
 20
607.9052180329697
 10
514.950963874641
 20
607.9256145152002
 10
516.7610329427027
 20
608.0743854848
 10
518.3564656896567
 20
608.2589478485335
 10
520.3335401403027
 20
608.4077188181334
 10
522.0057966313592
 20
608.5922811818668
 10
524.0172767386913
 20
608.7410521514668
 10
525.7639813776265
 20
608.9256145152002
 10
527.9265691032416
 20
609.0743854848
 10
529.7551148768612
 20
609.2589478485335
 10
532.0038391291121
 20
609.4077188181217
 10
533.303590467719
 20
609.5205415362277
 10
534.1300525559041
 20
609.5922811809052
 10
537.032803801479
 20
609.7410521048255
 10
539.6923125951415
 20
609.9256130247934
 10
543.0618482473228
 20
610.0636407811169
 10
543.3233460290425
 20
610.0743526286294
 10
547.125048959051
 20
610.2584398998239
 10
552.9753371369623
 20
610.4022405732378
 10
559.1474578927129
 20
610.5521611787312
 10
563.7443766805167
 20
610.5521611787312
 10
567.9353562483875
 20
610.5521611787312
 10
569.1268724995891
 20
610.5189808818947
 10
573.236332929241
 20
610.40454424139
 10
573.3190584712759
 20
610.4022405732378
 10
577.3498624737257
 20
610.2584398998239
 10
579.6194958318309
 20
610.0743526286294
 10
581.4080009482525
 20
609.9256130247934
 10
582.6568277588609
 20
609.7410521048255
 10
583.9153714633511
 20
609.5922811809052
 10
584.8464314055836
 20
609.4077188181217
 10
585.751018211889
 20
609.2589478485335
 10
586.4587957345051
 20
609.0743854848
 10
587.16173033636
 20
608.9256145152002
 10
587.7207366608548
 20
608.7410521514668
 10
588.2561915061435
 20
608.5922811818668
 10
588.7407810028614
 20
608.4077188181334
 10
589.2586774227667
 20
608.2589478485276
 10
589.7383122838158
 20
608.074385484319
 10
590.238887846995
 20
607.925614491844
 10
590.6466074127005
 20
607.7410514033727
 10
590.997277445034
 20
607.5922646134176
 10
591.333337777867
 20
607.4074603526036
 10
591.6694870210933
 20
607.2561095756147
 10
592.0215614579843
 20
607.0527904254359
 10
592.4438445601145
 20
606.8145953159075
 10
593.0441967036422
 20
606.3580438457412
 10
593.935411851975
 20
605.6167485772079
 10
595.2608872708684
 20
604.2912572689827
 10
595.4562442030607
 20
604.0522371407435
 10
595.9327508960689
 20
603.4692289536704
 10
596.2396171184706
 20
603.0159345256224
 10
596.4058961850887
 20
602.6460845239081
 10
596.591657630805
 20
602.2144977320085
 10
596.7355686463677
 20
601.5600646961793
 10
596.8854936012415
 20
600.4333524425921
 10
596.8854779868672
 20
598.5666304555123
 10
596.7353169299644
 20
597.4396835408116
 10
596.5889677464469
 20
596.7828123826723
 10
596.5245660071748
 20
596.640180217291
 10
596.3865966157038
 20
596.3346159066953
 10
596.1533561199606
 20
595.897804475868
 10
595.7307352363589
 20
595.3287553866201
 10
595.1307562878231
 20
594.5786117479726
 10
594.0878019226793
 20
593.5356414934967
 10
593.3354485173387
 20
592.9332079679557
 10
592.7519428822808
 20
592.4935030062531
 10
592.2626827142982
 20
592.1883308303975
 10
591.7611606221136
 20
591.8355640020908
 10
591.3531430608383
 20
591.6123441856453
 10
591.0000164975434
 20
591.4104580343213
 10
590.6471138705227
 20
591.2592018248175
 10
590.2416269694312
 20
591.0744019129091
 10
589.7581198009547
 20
590.9256152604037
 10
589.3504002380988
 20
590.7410521747876
 10
589.1523889999196
 20
590.6609453998959
 10
588.9826619480723
 20
590.5922811823476
 10
588.5724579813592
 20
590.4077188181393
 10
588.0714087918005
 20
590.2589478485335
 10
587.5892887831512
 20
590.0743854848
 10
587.0543075885357
 20
589.9256145152002
 10
586.4978021179145
 20
589.7410521514668
 10
585.8121912860361
 20
589.5922811818668
 10
585.1788465254403
 20
589.4077188181334
 10
584.4422203551737
 20
589.2589478485335
 10
583.6650435554176
 20
589.0743854848
 10
582.644948311972
 20
588.9256145152002
 10
581.7909009249964
 20
588.7410521514668
 10
580.8521554098475
 20
588.5922811818668
 10
579.9187992676923
 20
588.4077188181334
 10
578.6797388918334
 20
588.2589478485335
 10
577.7244084381506
 20
588.1051757219007
 10
577.5331198618497
 20
588.0743854848
 10
576.1102068754346
 20
587.9256145152002
 10
574.886748555488
 20
587.7410521514668
 10
573.4460432049278
 20
587.5922811818668
 10
573.4084049263988
 20
587.5866262349656
 10
572.2176303173393
 20
587.4077188181334
 10
570.7598401915881
 20
587.2589478485335
 10
569.4619807268051
 20
587.0743854848
 10
567.954869063696
 20
586.9334257843158
 10
567.8713526065285
 20
586.9256145152002
 10
566.5734931417279
 20
586.7410521514668
 10
565.1157030145517
 20
586.5922811818668
 10
563.8872900584498
 20
586.4077188181334
 10
563.8626688815074
 20
586.4051763753916
 10
562.4465825427164
 20
586.2589478485335
 10
561.2230771969577
 20
586.0743854848
 10
559.7994522931422
 20
585.9256145152002
 10
558.6453934789217
 20
585.7410521514668
 10
557.3546072900896
 20
585.5922811818668
 10
556.2005641587393
 20
585.4077188181334
 10
554.777177522126
 20
585.2589478485335
 10
553.5561729844966
 20
585.0743854848
 10
552.1330231722698
 20
584.9256145152002
 10
551.1290676448735
 20
584.7647086778569
 10
550.9814651661787
 20
584.7410521514668
 10
549.7079998564665
 20
584.5922811818668
 10
548.6283265498743
 20
584.4077188181334
 10
547.3719438520799
 20
584.2589478485335
 10
546.2947399878761
 20
584.0743854848
 10
545.0385941144685
 20
583.9256145152002
 10
544.2969617499966
 20
583.798545332137
 10
543.9614059331293
 20
583.7410521514668
 10
542.7052615020622
 20
583.5922811818668
 10
541.6280889807709
 20
583.4077188181334
 10
540.3721806536324
 20
583.2589478485335
 10
539.297461960344
 20
583.0743854848
 10
538.0584008626023
 20
582.9256145152002
 10
537.0531286780241
 20
582.7410521514668
 10
535.947140956379
 20
582.5922811818668
 10
535.4211456284154
 20
582.4954750749531
 10
534.9443225998035
 20
582.4077188181334
 10
533.7223448353875
 20
582.2589478485335
 10
532.7195421388542
 20
582.0743854848
 10
531.6137919630037
 20
581.9256145152002
 10
530.6110049265126
 20
581.7410521514668
 10
529.3892647078907
 20
581.5922811818668
 10
528.3889314994024
 20
581.4077188181334
 10
527.3002646568775
 20
581.2589478485335
 10
526.3693779570992
 20
581.0743854848
 10
525.297558343971
 20
580.9256145152002
 10
524.3691254721954
 20
580.7410521514668
 10
523.297541962996
 20
580.5922811818668
 10
522.3691247512684
 20
580.4077188181334
 10
521.2975426844096
 20
580.2589478485335
 10
520.3691411555465
 20
580.0743854848
 10
519.2977959130742
 20
579.9256145152002
 10
518.3718638265999
 20
579.7410521514668
 10
517.3176011960454
 20
579.5922811818668
 10
516.4635538090699
 20
579.4077188181334
 10
515.5589756810299
 20
579.2589478485335
 10
514.7743748255926
 20
579.0743854848
 10
514.7307571765632
 20
579.0672100523482
 10
513.8700335219394
 20
578.9256145152002
 10
513.0184712602169
 20
578.7410521514668
 10
511.98152950830746
 20
578.5922811818668
 10
511.12998290662733
 20
578.4077188181334
 10
510.22587914876846
 20
578.2589478485335
 10
509.4437634414242
 20
578.0743854848
 10
508.556506192979
 20
577.9256145152002
 10
507.77684431363747
 20
577.7410521514668
 10
506.88982388910415
 20
577.5922811818668
 10
506.11019328417905
 20
577.4077188181334
 10
505.2234096835575
 20
577.2589478485335
 10
504.44623290662923
 20
577.0743854848
 10
503.57629581494643
 20
576.9256145152002
 10
502.868549909526
 20
576.7410521514668
 10
502.31540833469376
 20
576.6294100015962
 10
502.131450090961
 20
576.5922811818668
 10
501.42370420836863
 20
576.4077188181334
 10
500.5537678380936
 20
576.2589478485335
 10
499.7766067212135
 20
576.0743854848
 10
498.89005994545363
 20
575.9256145152002
 10
498.3959502327581
 20
575.8082719789633
 10
498.1128988285792
 20
575.7410521514668
 10
497.2429624587791
 20
575.5922811818668
 10
496.53521659902077
 20
575.4077188181334
 10
495.79811750186354
 20
575.2589478485335
 10
495.09038725649117
 20
575.0743854848
 10
494.22068698967007
 20
574.9256145152002
 10
493.4459797007926
 20
574.7410521514668
 10
492.5762801549042
 20
574.5922811818668
 10
491.86856556956826
 20
574.4077188181334
 10
491.13170329679775
 20
574.2589478485335
 10
490.42642690225614
 20
574.0743854848
 10
489.5735738657816
 20
573.9256145152002
 10
488.8683131084482
 20
573.7410521514668
 10
488.1316876595895
 20
573.5922811818668
 10
487.42644253946435
 20
573.4077188181334
 10
486.96254198545245
 20
573.3267739167799
 10
486.57382632690155
 20
573.2589478485335
 10
485.871019397571
 20
573.0743854848
 10
485.1512404581259
 20
572.9256145152002
 10
484.5154262323368
 20
572.7410521514668
 10
483.79564801382446
 20
572.5922811818668
 10
483.0928567445361
 20
572.4077188181334
 10
482.85316188101837
 20
572.3658834127162
 10
482.24047735683496
 20
572.2589478485335
 10
481.5377017247606
 20
572.0743854848
 10
480.8181603306351
 20
571.9256145152002
 10
480.18481559288495
 20
571.7410521514668
 10
479.4821207076982
 20
571.5922811818668
 10
478.85122977512265
 20
571.4077188181334
 10
478.14877099291493
 20
571.2589478485335
 10
477.51789569754766
 20
571.0743854848
 10
476.81543763627275
 20
570.9256145152002
 10
476.1845623637335
 20
570.7410521514668
 10
475.48210430293346
 20
570.5922811818668
 10
474.85122903040013
 20
570.4077188181334
 10
474.8454887013309
 20
570.4065030952752
 10
474.14877096960015
 20
570.2589478485335
 10
473.51789569706676
 20
570.0743854848
 10
472.81543763626684
 20
569.9256145152002
 10
472.18456236373345
 20
569.7410521514668
 10
471.48210430293346
 20
569.5922811818668
 10
470.85122903040013
 20
569.4077188181334
 10
470.1487709696002
 20
569.2589478485335
 10
469.51789569707273
 20
569.0743854848
 10
468.8256710081536
 20
568.9277818027186
 10
468.8154376367477
 20
568.9256145152002
 10
468.1845623870483
 20
568.7410521514668
 10
467.482105047656
 20
568.5922811818668
 10
466.8512454351648
 20
568.4077188181334
 10
466.1490241987516
 20
568.2589478485335
 10
465.52061839142925
 20
568.0743854848
 10
464.8352436634798
 20
567.9256145152002
 10
464.2762687276593
 20
567.7410521514668
 10
463.7237312728276
 20
567.5922811818668
 10
463.1647563598353
 20
567.4077188181334
 10
462.47938235329366
 20
567.2589478485335
 10
461.8509922060135
 20
567.0743854848
 10
461.1490077939869
 20
566.9256145152002
 10
460.5773091258842
 20
566.7577028157791
 10
460.5206176467126
 20
566.7410521514668
 10
459.8352436406458
 20
566.5922811818668
 10
459.2762687504874
 20
566.4077188181334
 10
458.72373201706347
 20
566.2589478485335
 10
458.1647727412911
 20
566.0743854848
 10
457.47963483820337
 20
565.9256145152002
 10
456.8536985189259
 20
565.7410521514668
 10
456.16856133677095
 20
565.5922811818668
 10
455.67058699949325
 20
565.4278507846334
 10
455.60961772103485
 20
565.4077188181334
 10
455.0573178119976
 20
565.2589478485335
 10
454.5008123870561
 20
565.0743854848
 10
453.8325217143149
 20
564.9256145152002
 10
453.3578144516168
 20
564.7681756970651
 10
453.2760319265815
 20
564.7410521514668
 10
452.7239688414561
 20
564.5922811818668
 10
452.167494690931
 20
564.4077188181334
 10
451.49944084210154
 20
564.2589478485335
 10
450.94540488236504
 20
564.0743854848
 10
450.4101883061784
 20
563.9256145152002
 10
449.92314502715516
 20
563.7410521514668
 10
449.38792845096856
 20
563.5922811818668
 10
448.833892491238
 20
563.4077188181334
 10
448.1658386428834
 20
563.2589478485335
 10
447.6093645151923
 20
563.0743854848
 10
447.1267567346109
 20
562.9443312877162
 10
447.0573021514746
 20
562.9256145152002
 10
446.50082802378347
 20
562.7410521514668
 10
445.832774175429
 20
562.5922811818668
 10
445.27873821570427
 20
562.4077188181334
 10
444.74352163999254
 20
562.2589478485335
 10
444.2564783838033
 20
562.0743854848
 10
443.72126252902433
 20
561.9256145152002
 10
443.1672422293301
 20
561.7410521514668
 10
442.4994252048874
 20
561.5922811818668
 10
441.94542051957905
 20
561.4077188181334
 10
441.41044076777916
 20
561.2589478485335
 10
440.92585133958687
 20
561.0743854848
 10
440.4074819937468
 20
560.9256145152002
 10
439.92289256556035
 20
560.7410521514668
 10
439.38791281423534
 20
560.5922811818668
 10
438.83390815176097
 20
560.4077188181334
 10
438.16609184872596
 20
560.2589478485335
 10
437.6120872090739
 20
560.0743854848
 10
437.07710817868167
 20
559.9256145152002
 10
436.5925343877034
 20
559.7410521514668
 10
436.0744011448423
 20
559.5922811818668
 10
435.5922655218246
 20
559.4077188181334
 10
435.07413227896353
 20
559.2589478485335
 10
434.5895584879853
 20
559.0743854848
 10
434.05457945759304
 20
558.9256145152002
 10
433.50057481794687
 20
558.7410521514668
 10
432.83275851538684
 20
558.5922811818668
 10
432.47036226595327
 20
558.4715516723685
 10
432.27875387574636
 20
558.4077188181334
 10
431.74377484582914
 20
558.2589478485335
 10
431.25920107768485
 20
558.0743854848
 10
430.7410685562315
 20
557.9256145152002
 10
430.258948593256
 20
557.7410521514668
 10
429.74105217478154
 20
557.5922811818668
 10
429.25894784901425
 20
557.4077188181334
 10
428.7410521514727
 20
557.2589478485335
 10
428.25894784853347
 20
557.0743854848
 10
427.74105215146676
 20
556.9256145152002
 10
427.2589478485334
 20
556.7410521514668
 10
426.74105215146676
 20
556.5922811818668
 10
426.2589478485334
 20
556.4077188181334
 10
425.74105215146676
 20
556.2589478485335
 10
425.2589478485334
 20
556.0743854848
 10
424.74105215146676
 20
555.9256145152002
 10
424.2589478485334
 20
555.7410521514668
 10
423.74105215146676
 20
555.5922811818668
 10
423.2589478485334
 20
555.4077188181334
 10
422.74105215146676
 20
555.2589478485335
 10
422.2589478485334
 20
555.0743854848
 10
421.74105215146676
 20
554.9256145152002
 10
421.2589478485334
 20
554.7410521514668
 10
420.74105215146676
 20
554.5922811818668
 10
420.2589478485334
 20
554.4077188181334
 10
419.74105215146676
 20
554.2589478485335
 10
419.2589478485334
 20
554.0743854848
 10
418.7410521514668
 20
553.9256145152002
 10
418.2589478485394
 20
553.7410521514668
 10
417.7410521519476
 20
553.5922811818668
 10
417.32265433308004
 20
553.4321073489044
 10
417.25894787184825
 20
553.4077188181334
 10
416.7410528961893
 20
553.2589478485335
 10
416.25896425329813
 20
553.0743854848
 10
415.9846095050174
 20
552.9955381510246
 10
415.7413053806182
 20
552.9256145152002
 10
415.26167054289584
 20
552.7410521514668
 10
414.76085817867977
 20
552.5922811818668
 10
414.3506542124593
 20
552.4077188181334
 10
413.9826791213609
 20
552.2589478485335
 10
413.57247517796856
 20
552.0743854848
 10
413.0716635351602
 20
551.9256145152002
 10
412.59204435748006
 20
551.7410521514668
 10
412.07462230918685
 20
551.5922811818668
 10
411.5950031315066
 20
551.4077188181334
 10
411.09419148869836
 20
551.2589478485335
 10
410.6839875453118
 20
551.0743854848
 10
410.31601245468835
 20
550.9256145152002
 10
409.9058085113019
 20
550.7410521514668
 10
409.4049968684936
 20
550.5922811818668
 10
408.9253776908134
 20
550.4077188181334
 10
408.40795564252016
 20
550.2589478485335
 10
407.9283364648458
 20
550.0743854848
 10
407.4275248225124
 20
549.9256145152002
 10
407.017320901954
 20
549.7410521514668
 10
406.6493465322634
 20
549.5922811818668
 10
406.23915822609104
 20
549.4077188181334
 10
405.73858268673666
 20
549.2589478485335
 10
405.31656930527095
 20
549.095717665824
 10
405.2614173370592
 20
549.0743854848
 10
404.7608425186375
 20
548.9256145152002
 10
404.35066987249553
 20
548.7410521514668
 10
403.98293232671676
 20
548.5922811818668
 10
403.5751978485413
 20
548.4077188181334
 10
403.09146881812563
 20
548.2589478485335
 10
402.6837343399501
 20
548.0743854848
 10
402.3159967941712
 20
547.9256145152002
 10
401.90582414803515
 20
547.7410521514668
 10
401.4052493300885
 20
547.5922811818668
 10
400.92808400324503
 20
547.4077188181334
 10
400.42750918529833
 20
547.2589478485335
 10
400.0173365391681
 20
547.0743854848
 10
399.64959899386423
 20
546.9256145152002
 10
399.24186453851695
 20
546.7410521514668
 10
398.75813622903405
 20
546.5922811818668
 10
398.35041738807246
 20
546.4077188181334
 10
397.9829159457476
 20
546.2589478485335
 10
397.57519712760853
 20
546.0743854848
 10
397.0914695390585
 20
545.9256145152002
 10
396.68375072092505
 20
545.7410521514668
 10
396.3162492790751
 20
545.5922811818668
 10
395.90853046094185
 20
545.4077188181334
 10
395.42480287239187
 20
545.2589478485335
 10
395.0170840542584
 20
545.0743854848
 10
394.80065462525334
 20
544.9867710911233
 10
394.6495826124085
 20
544.9256145152002
 10
394.2418637942752
 20
544.7410521514668
 10
393.7581362057251
 20
544.5922811818668
 10
393.3504173875917
 20
544.4077188181334
 10
392.98291594574175
 20
544.2589478485335
 10
392.57519712760853
 20
544.0743854848
 10
392.0914695390585
 20
543.9256145152002
 10
391.68375072092505
 20
543.7410521514668
 10
391.3162492790751
 20
543.5922811818668
 10
390.90853046094185
 20
543.4077188181334
 10
390.47920360664585
 20
543.275678856178
 10
390.42480287239187
 20
543.2589478485335
 10
390.0170840542584
 20
543.0743854848
 10
389.6495826124085
 20
542.9256145152002
 10
389.2418637942752
 20
542.7410521514668
 10
388.7581362057251
 20
542.5922811818668
 10
388.3504173875917
 20
542.4077188181334
 10
387.98291594574175
 20
542.2589478485335
 10
387.5751971276144
 20
542.0743854848
 10
387.12289451225405
 20
541.9352793012816
 10
387.0914695395393
 20
541.9256145152002
 10
386.683750744234
 20
541.7410521514668
 10
386.3162500233168
 20
541.5922811818668
 10
385.9085468423976
 20
541.4077188181334
 10
385.4250553573015
 20
541.2589478485335
 10
385.01979036716494
 20
541.0743854848
 10
384.6691361547116
 20
540.9256145152002
 10
384.33086384528843
 20
540.7410521514668
 10
383.9802096328351
 20
540.5922811818668
 10
383.5749446426987
 20
540.4077188181334
 10
383.0914531576026
 20
540.2589478485335
 10
382.6837499766833
 20
540.0743854848
 10
382.5479482887534
 20
540.0194104939042
 10
382.3162492557662
 20
539.9256145152002
 10
381.90853046046686
 20
539.7410521514668
 10
381.4248028728667
 20
539.5922811818668
 10
381.0170840775673
 20
539.4077188181334
 10
380.64958335665017
 20
539.2589478485335
 10
380.24188017573084
 20
539.0743854848
 10
379.75838869063483
 20
538.9256145152002
 10
379.35312370050417
 20
538.7410521514668
 10
379.0024694885257
 20
538.5922811818668
 10
378.6641972019307
 20
538.4077188181334
 10
378.3135437104102
 20
538.2589478485335
 10
377.9082943574878
 20
538.0743854848
 10
377.4250389758456
 20
537.9256145152002
 10
377.01978962292907
 20
537.7410521514668
 10
376.8207058852449
 20
537.6565873409254
 10
374.30320990900714
 20
544.1829502481196
 10
372.0496650157496
 20
550.0250457032361
 10
372.2514429006989
 20
550.1045249686224
 10
372.95048367179896
 20
550.3530133142224
 10
373.66954151339894
 20
550.6045249686224
 10
374.3685822844989
 20
550.8530133142223
 10
375.0071071804989
 20
551.1045249686223
 10
375.6089900422989
 20
551.3530133142223
 10
376.23366563589894
 20
551.6045249686224
 10
376.8863090264989
 20
551.8530133142224
 10
377.5105563032989
 20
552.1045249686223
 10
378.1094687293489
 20
552.3530133142223
 10
378.7337129061489
 20
552.6045249686224
 10
379.3863122791489
 20
552.8530133142224
 10
380.01055646394894
 20
553.1045249685224
 10
380.6094691790489
 20
553.3530133061223
 10
381.2337226758489
 20
553.6045246714224
 10
381.8864545355489
 20
553.8530067930224
 10
382.51200229474887
 20
554.1044298339224
 10
383.11995880379885
 20
554.3520429139224
 10
383.7883487286989
 20
554.5974370479224
 10
384.589316387199
 20
554.8156320639725
 10
385.542144487399
 20
554.9622908583724
 10
386.589772135549
 20
554.9631724927725
 10
387.585086599949
 20
554.8228118710725
 10
388.53196783604903
 20
554.6358367276224
 10
389.518507634949
 20
554.5018670262225
 10
390.54307639234906
 20
554.5354464484225
 10
391.469963957349
 20
554.7982544236226
 10
392.286189749199
 20
555.3022263956725
 10
392.993547827199
 20
556.0390028307725
 10
393.491484668299
 20
556.9539641186224
 10
393.753334988299
 20
558.0981683101226
 10
393.78595081249904
 20
559.4098034848224
 10
393.64585708539903
 20
560.5846732510224
 10
393.428582083299
 20
561.5285397525724
 10
393.18327939399904
 20
562.3203747539724
 10
392.9356663218991
 20
563.0314417531723
 10
392.68415211759907
 20
563.6575064105724
 10
392.43475592514903
 20
564.2109785410723
 10
392.176762187149
 20
564.7317320200724
 10
391.89556984554895
 20
565.2611506619724
 10
391.527911833399
 20
565.8451738733223
 10
390.99369097104903
 20
566.5100606588725
 10
390.25123761574895
 20
567.1728383075725
 10
389.338501021349
 20
567.6616394886225
 10
388.20974835969895
 20
567.9217013191725
 10
386.95315791744895
 20
567.9506910824725
 10
385.914229577049
 20
567.7924236526727
 10
385.204103536499
 20
567.5079653423226
 10
384.705286686299
 20
567.0890098947225
 10
384.2801096970989
 20
566.5333123269725
 10
383.8642678242989
 20
565.9024187633723
 10
383.5003463133989
 20
565.2994484130222
 10
383.1838166147989
 20
564.7656241413223
 10
382.8680560502989
 20
564.3034271954224
 10
382.4888479642989
 20
563.9246598823224
 10
382.03786943549886
 20
563.6232662731724
 10
381.53825979804884
 20
563.3565606797224
 10
380.9918594539989
 20
563.1050103213724
 10
380.3827680254989
 20
562.8530608856724
 10
379.7332276979489
 20
562.6045282292724
 10
379.10942116189887
 20
562.3530134628223
 10
378.5105530426989
 20
562.1045249726723
 10
377.88630887789895
 20
561.8530133142724
 10
377.23366563184896
 20
561.6045249686224
 10
376.60899004224893
 20
561.3530133142223
 10
376.0071071804989
 20
561.1045249686223
 10
375.3685822844989
 20
560.8530133142223
 10
374.66954151339894
 20
560.6045249686224
 10
373.95048367179896
 20
560.3530133142224
 10
373.251442900699
 20
560.1045249686224
 10
372.61291800469894
 20
559.8530133142223
 10
372.01103514289895
 20
559.6045249686223
 10
371.38635954929896
 20
559.3530133142224
 10
370.73371615869894
 20
559.1045249686224
 10
370.1094688818989
 20
558.8530133142223
 10
369.5105564558489
 20
558.6045249686223
 10
368.886312279049
 20
558.3530133142223
 10
368.8435013971014
 20
558.3367123405
 10
367.86781061904804
 20
560.8660955700593
 10
366.89306459345994
 20
563.393029620949
 10
365.37169001369233
 20
567.3370449119614
  0
LWPOLYLINE
  5
30
330
17
100
AcDbEntity
  8
default
100
AcDbPolyline
 90
21
 70
0
 10
373.6145167650414
 20
565.5359985068886
 10
374.136739589777
 20
565.7416993768743
 10
374.70094656008865
 20
565.9746331677137
 10
374.74153502919125
 20
565.9911823251797
 10
375.3662106187913
 20
566.2426939795798
 10
375.4545496821299
 20
566.2772914337322
 10
376.0622998247199
 20
566.5086871134007
 10
376.6180991684939
 20
566.7326219494355
 10
377.19317929920567
 20
566.9712400839035
 10
377.2397081814406
 20
566.9902727148705
 10
377.86351471749066
 20
567.2417874813206
 10
377.94641763954337
 20
567.2743579708349
 10
378.5334383677825
 20
567.4989688452689
 10
378.84744865938393
 20
567.62885856637
 10
372.2457450875081
 20
567.8792105959728
 10
370.94286903727135
 20
566.7872459707938
 10
371.68810031483645
 20
564.8553065305368
 10
372.2757912398299
 20
565.0642132949391
 10
372.2996589067135
 20
565.0726295692775
 10
373.00677226485857
 20
565.3199632888566
 10
373.6145167650414
 20
565.5359985068886
  0
LWPOLYLINE
  5
31
330
17
100
AcDbEntity
  8
default
100
AcDbPolyline
 90
54
 70
0
 10
386.63310478073646
 20
572.9404371671627
 10
387.06847811545754
 20
572.9493610307619
 10
388.32506855770754
 20
572.9203712674619
 10
388.83191153140484
 20
572.8828416102521
 10
389.33232635813744
 20
572.7940537938424
 10
390.46107901978746
 20
572.5339919632925
 10
390.8868871593099
 20
572.4158481891079
 10
391.3006011319899
 20
572.2605701421357
 10
391.6989894920736
 20
572.069370671394
 10
391.8826313283516
 20
571.9710242842615
 10
393.6292204163037
 20
572.4845438092016
 10
395.57262532688975
 20
576.6911852421993
 10
395.3060884601327
 20
576.6020667617146
 10
394.99468900140647
 20
576.5126140018829
 10
394.7132314566202
 20
576.4048645596142
 10
394.30608846013183
 20
576.268733428381
 10
393.9946890014158
 20
576.1792806685522
 10
393.713231456645
 20
576.0715312262882
 10
393.30608846130815
 20
575.9354000953839
 10
392.99468904052526
 20
575.8459473463697
 10
392.7132315537797
 20
575.7381979212173
 10
392.3060902598113
 20
575.6020672719941
 10
391.99471672000163
 20
575.512621833049
 10
391.71329850706707
 20
575.4048839484448
 10
391.30668824671574
 20
575.268901049259
 10
390.99936175243437
 20
575.1805779025866
 10
390.72397355508053
 20
575.0746091683527
 10
390.3521404255151
 20
574.9480588902319
 10
390.1730303987745
 20
574.894852591332
 10
390.0688722973647
 20
574.8479889162314
 10
389.89143005474193
 20
574.7722345070986
 10
389.61290700994596
 20
574.6596286694233
 10
389.2906932395956
 20
574.5146555829092
 10
388.6629450385188
 20
574.2813922239334
 10
388.3505365071562
 20
574.1885883646698
 10
388.0543310626746
 20
574.0746091970046
 10
387.63975374725203
 20
573.9355682268526
 10
387.3283437135724
 20
573.8460713792906
 10
387.04668174401957
 20
573.7382366722567
 10
386.6400226131308
 20
573.6022348935193
 10
386.3326959657024
 20
573.5139115797466
 10
386.0573069623928
 20
573.4079425303379
 10
385.6854737596076
 20
573.2813922239335
 10
385.50636373271993
 20
573.2281859249395
 10
385.40220563075263
 20
573.1813222495867
 10
385.22476339016015
 20
573.1055678412724
 10
384.9462403930637
 20
572.9929620227366
 10
384.62402669118654
 20
572.8479889589627
 10
384.352705911632
 20
572.747169496011
 10
384.34642010680784
 20
572.5316159201265
 10
384.59943300536077
 20
572.6164582685391
 10
385.161230767239
 20
572.7353977364025
 10
386.2001591076389
 20
572.8936651662024
 10
386.63310478073646
 20
572.9404371671627
  0
LWPOLYLINE
  5
32
330
17
100
AcDbEntity
  8
default
100
AcDbPolyline
 90
18
 70
0
 10
397.3237491909972
 20
565.5214106453752
 10
397.5752633952972
 20
564.8953459879751
 10
397.65756189934064
 20
564.6757355699028
 10
397.9051749714406
 20
563.9646685707029
 10
397.9593493876615
 20
563.7999542265378
 10
398.20465207696145
 20
563.0081192251379
 10
398.30114851254643
 20
562.650188713955
 10
398.5184235146465
 20
561.706322212405
 10
398.61068512811363
 20
561.1766888811158
 10
398.75077885521364
 20
560.0018191149157
 10
398.78440566741847
 20
559.2855092237622
 10
398.77805802604576
 20
559.030240810193
 10
400.42041837982833
 20
563.5748223406263
 10
396.7767084254483
 20
566.7098940985873
 10
396.9150626720634
 20
566.4306297419491
 10
396.99333424330325
 20
566.2650875248545
 10
397.2427304357533
 20
565.7116153943546
 10
397.3237491909972
 20
565.5214106453752
  0
LWPOLYLINE
  5
33
330
17
100
AcDbEntity
  8
default
100
AcDbPolyline
 90
71
 70
0
 10
389.2630951956453
 20
549.5083948388714
 10
388.84569513603896
 20
549.5473414847291
 10
387.859155337139
 20
549.681311186129
 10
387.5633504850788
 20
549.7305558562146
 10
386.7510513116877
 20
549.8909558606489
 10
386.24104786158796
 20
549.9628772522146
 10
385.9267821756817
 20
549.9626127809208
 10
385.63005992289817
 20
549.9169414495908
 10
385.309864950437
 20
549.8297157714826
 10
384.9251330414076
 20
549.6884644597538
 10
384.3980104692327
 20
549.4737740309307
 10
384.3766504107389
 20
549.4651316754145
 10
383.75110265153893
 20
549.2137086345144
 10
383.66532061296857
 20
549.1801451988164
 10
383.0575946675392
 20
548.9487959395033
 10
382.50184852707827
 20
548.7248861476253
 10
381.926675592593
 20
548.4862474232849
 10
381.8791218545936
 20
548.4668031807386
 10
381.2548776697936
 20
548.2152915264386
 10
381.1655326904808
 20
548.180286623317
 10
380.5577737749663
 20
547.9488720469504
 10
380.0018613706388
 20
547.724891666019
 10
379.4266762735272
 20
547.4862477725575
 10
379.3791137318713
 20
547.4667999728806
 10
378.7548664550713
 20
547.2152883184807
 10
378.66542463174983
 20
547.1802467179592
 10
378.52652341210506
 20
547.1273612758197
 10
378.53699314151686
 20
547.1002195229325
 10
381.84148409279527
 20
545.1123678706285
 10
381.9079291845161
 20
545.1426277338907
 10
382.02736499176274
 20
545.1951496144678
 10
382.151809929643
 20
545.2479474803218
 10
382.27437356156673
 20
545.3148185572189
 10
382.7162915136405
 20
545.5284829478018
 10
383.0068851563558
 20
545.6517722067097
 10
383.35277490898324
 20
545.8092944005576
 10
383.95458675638065
 20
546.0378307822017
 10
384.1352184786283
 20
546.0934114021044
 10
384.254249490563
 20
546.1472953204753
 10
384.4400621728404
 20
546.226924549994
 10
384.71388486625017
 20
546.3377729518567
 10
385.0295345453081
 20
546.4806583217475
 10
385.6216566257174
 20
546.7046991554176
 10
385.80221706917547
 20
546.7602307250589
 10
385.9209810472993
 20
546.8139916984416
 10
386.10673125757825
 20
546.893592496821
 10
386.38055311300513
 20
547.0044403420007
 10
386.6962013073082
 20
547.1473250317864
 10
387.28832329322074
 20
547.3713658224895
 10
387.4688837364801
 20
547.4268973920152
 10
387.5876477139908
 20
547.4806583651194
 10
387.77339792424624
 20
547.5602591634884
 10
388.04721977967375
 20
547.6711070086683
 10
388.3628679739749
 20
547.813991698453
 10
388.9549899598872
 20
548.0380324891561
 10
389.1355504031472
 20
548.093564058682
 10
389.25431438065743
 20
548.1473250317861
 10
389.4400645909116
 20
548.2269258301544
 10
389.7138864463385
 20
548.3377736753341
 10
390.02953464064154
 20
548.4806583651198
 10
390.62165662655497
 20
548.7046991558232
 10
390.80221706981433
 20
548.7602307253488
 10
390.92098104732383
 20
548.8139916984526
 10
391.10673125757825
 20
548.893592496821
 10
391.38055311300513
 20
549.0044403420007
 10
391.3885461572082
 20
549.0080585589334
 10
391.4877355563955
 20
549.6333359071427
 10
391.31262797433254
 20
549.5950223408516
 10
390.70685945636933
 20
549.5381296575896
 10
389.68229069896927
 20
549.5045502353896
 10
389.2630951956453
 20
549.5083948388714
  0
LWPOLYLINE
  5
34
330
17
100
AcDbEntity
  8
default
100
AcDbPolyline
 90
36
 70
0
 10
404.3141605197803
 20
554.0517572011244
 10
404.49332254060874
 20
554.1050041248325
 10
404.597729977218
 20
554.1519817763208
 10
404.77523419659116
 20
554.2277642153038
 10
405.0537580281984
 20
554.3403705919917
 10
405.37597321432105
 20
554.4853443316397
 10
406.00371972067336
 20
554.7186072162145
 10
406.3161022679555
 20
554.811403490336
 10
406.6122682295593
 20
554.9253711806941
 10
407.0263144610592
 20
555.0642644505579
 10
407.33367761373637
 20
555.1526385629365
 10
407.6093094555518
 20
555.2587045140349
 10
407.98119176789425
 20
555.3852738832495
 10
408.16030200721895
 20
555.438480321942
 10
408.26446094144575
 20
555.4853443743599
 10
408.4419032749097
 20
555.5610988245545
 10
408.72042627257633
 20
555.6737046434661
 10
409.04263997545627
 20
555.8186777076933
 10
409.67038638809873
 20
556.051940549916
 10
409.98276893523007
 20
556.1447368239049
 10
410.27893489624523
 20
556.258704514035
 10
410.6929811277259
 20
556.3975977838912
 10
411.0003442804032
 20
556.4859718962699
 10
411.2759761222182
 20
556.5920378473681
 10
411.6478584345619
 20
556.7186072165831
 10
411.8269686738989
 20
556.7718136552793
 10
411.9311276081429
 20
556.8186777077042
 10
412.10856994366003
 20
556.8944321587278
 10
412.38709298903785
 20
557.0070379967835
 10
412.5490859402169
 20
557.0799232061911
 10
408.29757147841156
 20
562.766892963089
 10
404.22550927102566
 20
562.3348845154978
 10
401.4770615012385
 20
554.7296443241648
 10
403.8309287313612
 20
553.8820716938689
 10
403.934859981976
 20
553.9222711704072
 10
404.3141605197803
 20
554.0517572011244
  0
LWPOLYLINE
  5
35
330
17
100
AcDbEntity
  8
default
100
AcDbPolyline
 90
36
 70
0
 10
417.67197766526175
 20
558.8207193314511
 10
417.95343521004685
 20
558.9284687737193
 10
418.36057820653406
 20
559.0645999049523
 10
418.67197766526135
 20
559.1540526647843
 10
418.95343521004685
 20
559.2618021070526
 10
419.36057820653406
 20
559.3979332382856
 10
419.67197766526135
 20
559.4873859981177
 10
419.95343521004685
 20
559.595135440386
 10
420.360578206535
 20
559.7312665716192
 10
420.6719776652613
 20
559.820719331451
 10
420.95343521004685
 20
559.9284687737193
 10
421.36057820653406
 20
560.0645999049523
 10
421.67197766526135
 20
560.1540526647843
 10
421.95343521004685
 20
560.2618021070526
 10
422.36057820653406
 20
560.3979332382856
 10
422.67197766526135
 20
560.4873859981177
 10
422.95343521004685
 20
560.595135440386
 10
423.360578206535
 20
560.7312665716192
 10
423.6719776652613
 20
560.820719331451
 10
423.95343521004685
 20
560.9284687737193
 10
424.36057820653406
 20
561.0645999049523
 10
424.67197766526135
 20
561.1540526647843
 10
424.95343521004685
 20
561.2618021070526
 10
425.36057820653406
 20
561.3979332382856
 10
425.67197766526135
 20
561.4873859981177
 10
425.95343521004685
 20
561.595135440386
 10
426.36057820653514
 20
561.7312665716192
 10
426.51779705814687
 20
561.7764293353304
 10
420.335821299348
 20
570.0456495145336
 10
414.39302931772545
 20
570.1464592511766
 10
411.5909150908701
 20
565.042041358538
 10
416.52307810757384
 20
558.4446130387264
 10
416.6719776646875
 20
558.4873859978967
 10
416.9534352100278
 20
558.5951354403787
 10
417.3605782065349
 20
558.7312665716192
 10
417.67197766526175
 20
558.8207193314511
  0
LWPOLYLINE
  5
36
330
17
100
AcDbEntity
  8
default
100
AcDbPolyline
 90
7
 70
0
 10
407.42915100976825
 20
578.9891930324957
 10
400.18862244766206
 20
577.1452369624749
 10
397.51284890202805
 20
571.353330292739
 10
403.41886614635587
 20
566.2717546196654
 10
407.96782696805894
 20
566.7543576355092
 10
410.9536328506656
 20
572.1933939256705
 10
407.42915100976825
 20
578.9891930324957
  0
LWPOLYLINE
  5
37
330
17
100
AcDbEntity
  8
default
100
AcDbPolyline
 90
7
 70
0
 10
429.328338900581
 20
581.3984806528315
 10
428.33095740759745
 20
581.5762345846742
 10
423.68923619017005
 20
572.2404445330612
 10
429.53384391078725
 20
564.4224992697127
 10
435.8149048355408
 20
570.1568251983263
 10
435.90689550479874
 20
572.5987805011682
 10
429.328338900581
 20
581.3984806528315
  0
LWPOLYLINE
  5
38
330
17
100
AcDbEntity
  8
default
100
AcDbPolyline
 90
40
 70
0
 10
422.8293064272922
 20
585.1349406157007
 10
422.40816772339093
 20
584.9952641283412
 10
421.9210033962451
 20
584.8606039770642
 10
421.5031548091169
 20
584.7675519879739
 10
421.1923142360121
 20
584.664003707562
 10
420.95112393020736
 20
584.5903607537496
 10
420.63550098961963
 20
584.5026289213847
 10
420.36158742355497
 20
584.3988308817476
 10
419.9288657715271
 20
584.2570278855134
 10
419.5151934872803
 20
584.1420417052277
 10
419.0808583732892
 20
583.9973504149774
 10
418.58778366080884
 20
583.8606855155833
 10
418.1700041822818
 20
583.7676160238997
 10
417.85902030541206
 20
583.664017081649
 10
417.6177915269626
 20
583.5903612191536
 10
417.3021684846766
 20
583.502629240346
 10
417.02825416235754
 20
583.3988309092653
 10
416.59553243881606
 20
583.25702788582
 10
416.18186015449095
 20
583.1420417054105
 10
415.74752503997064
 20
582.9973504149824
 10
415.2544503274755
 20
582.8606855155833
 10
414.83667084894824
 20
582.7676160238996
 10
414.5256869720787
 20
582.664017081649
 10
414.2844581936294
 20
582.5903612191536
 10
413.96883515135187
 20
582.5026292403484
 10
413.6949208290492
 20
582.3988309092725
 10
413.26219910659154
 20
582.2570278861266
 10
412.84852685197006
 20
582.1420417138717
 10
412.41419178857757
 20
581.9973504345124
 10
411.9211181363815
 20
581.8606857648483
 10
411.5033595428169
 20
581.7676208252126
 10
411.1924102510041
 20
581.664030476277
 10
410.9516914946895
 20
581.590514197272
 10
410.8350327392685
 20
581.5580728581635
 10
410.72046838048846
 20
581.3312088493258
 10
414.4468452720903
 20
574.1461218218319
 10
420.1217373562977
 20
574.049856568221
 10
424.78997857216746
 20
583.4389856997877
 10
423.09498469255277
 20
585.2065360804027
 10
422.8293064272922
 20
585.1349406157007
  0
LWPOLYLINE
  5
39
330
17
100
AcDbEntity
  8
default
100
AcDbPolyline
 90
20
 70
0
 10
433.2599603380585
 20
587.943681763355
 10
432.88726435732775
 20
587.8496202469155
 10
432.37064069128706
 20
587.7401694375575
 10
431.9218803719166
 20
587.6088782284221
 10
431.5541998898734
 20
587.5162869135822
 10
431.04013648199367
 20
587.4073785151634
 10
430.59626957112783
 20
587.2770150966918
 10
430.247911495801
 20
587.1881730908661
 10
429.8196925305052
 20
587.0952216758833
 10
429.51059356619714
 20
586.9931633649379
 10
429.24289305556454
 20
586.9129976634159
 10
428.8253472360779
 20
586.8005731084382
 10
428.39913710134846
 20
586.6598430887005
 10
427.89241595616215
 20
586.5215824340196
 10
427.4649050791615
 20
586.4287526439886
 10
428.1995240589604
 20
585.6626873072237
 10
429.98002168303356
 20
585.3453659457155
 10
433.8496995044691
 20
588.1066253445966
 10
433.71578508968685
 20
588.0775571917571
 10
433.2599603380585
 20
587.943681763355
  0
LWPOLYLINE
  5
3A
330
17
100
AcDbEntity
  8
default
100
AcDbPolyline
 90
26
 70
0
 10
462.1560731242798
 20
572.3401699684005
 10
462.42377521638866
 20
572.4203360957351
 10
462.8413411049278
 20
572.5327659076268
 10
463.26758557266055
 20
572.6735033207947
 10
463.7746172267036
 20
572.8118269094389
 10
464.2842149351728
 20
572.9224428135614
 10
464.7400397323884
 20
573.0563182504878
 10
465.1127366848591
 20
573.1503799689406
 10
465.6293769389181
 20
573.2598341801565
 10
466.07816813629347
 20
573.3911311637806
 10
466.4461508858946
 20
573.483783913618
 10
466.96287400713817
 20
573.593218886322
 10
467.4115327806178
 20
573.7244738749788
 10
467.77948449254586
 20
573.8171174624566
 10
468.1939399330923
 20
573.9048934326228
 10
466.24586811213345
 20
579.089579732544
 10
466.077952221121
 20
578.4192219187711
 10
465.66799826118154
 20
577.2734773553992
 10
465.1477157359612
 20
576.173432380084
 10
464.5221152505932
 20
575.1296810272834
 10
463.79722167973955
 20
574.1522751930972
 10
462.9800161447548
 20
573.2506278300132
 10
462.0783687816708
 20
572.4334222950284
 10
461.8018018024313
 20
572.2283062437947
 10
461.84697364122206
 20
572.2381114861753
 10
462.1560731242798
 20
572.3401699684005
  0
LWPOLYLINE
  5
3B
330
17
100
AcDbEntity
  8
default
100
AcDbPolyline
 90
32
 70
0
 10
447.07899660349995
 20
568.1393960227721
 10
447.4968451905303
 20
568.2324480119067
 10
447.8076857639941
 20
568.3359962924383
 10
448.04887607090154
 20
568.4096392465572
 10
448.364499048885
 20
568.4973710892389
 10
448.63841267237115
 20
568.6011691457704
 10
449.07113592611245
 20
568.7429725798909
 10
449.48482847997207
 20
568.8579642395148
 10
449.9191981551422
 20
569.0026629591099
 10
450.41259880345416
 20
569.139396022936
 10
450.83366304988226
 20
569.233164117102
 10
451.1499624756628
 20
569.3380692049924
 10
451.4229713709068
 20
569.4200555740298
 10
451.83738129115005
 20
569.5317315170652
 10
452.2585551947284
 20
569.6714157536868
 10
452.53287656907435
 20
569.7472303072391
 10
451.7927720650416
 20
569.8570144397263
 10
450.61236206008624
 20
570.152691753647
 10
449.4666174967145
 20
570.5626457135864
 10
448.36657252139923
 20
571.0829282388067
 10
447.3228211685985
 20
571.7085287241748
 10
446.3454153344124
 20
572.4334222950284
 10
445.4437679713284
 20
573.2506278300132
 10
444.62656243634365
 20
574.1522751930972
 10
443.90166886549
 20
575.1296810272834
 10
443.8805092846637
 20
575.1649836551246
 10
439.894622748252
 20
572.1976766656153
 10
439.8316966644488
 20
570.5272606890649
 10
445.98880457331694
 20
567.8160434853536
 10
446.17069278673995
 20
567.8650591177316
 10
446.59183221890385
 20
568.0047358523608
 10
447.07899660349995
 20
568.1393960227721
  0
LWPOLYLINE
  5
3C
330
17
100
AcDbEntity
  8
default
100
AcDbPolyline
 90
31
 70
0
 10
473.1128178260679
 20
575.1504507959316
 10
473.6295411745702
 20
575.2598857043788
 10
474.0781994936106
 20
575.3911405553389
 10
474.44615115940127
 20
575.4837841292651
 10
474.9628745079113
 20
575.5932190377139
 10
475.411532826962
 20
575.7244738886758
 10
475.7794844934116
 20
575.8171174627406
 10
476.29620786593864
 20
575.9265523762018
 10
476.7448662303991
 20
576.0578072356989
 10
477.1128188676099
 20
576.1504510115782
 10
477.6295588032306
 20
576.2598893205586
 10
478.0782479990099
 20
576.3911499462529
 10
478.4465017236533
 20
576.4838548877294
 10
478.9658662436545
 20
576.5938120894185
 10
479.419300234658
 20
576.7259468403505
 10
479.8057826850798
 20
576.8220511279605
 10
480.3956981631751
 20
576.9440208970033
 10
480.97044749835027
 20
577.0949610989865
 10
481.3807928708006
 20
577.18448767524
 10
482.02613134875355
 20
577.2971225329928
 10
482.5256445905546
 20
577.4283013746372
 10
482.7835898156401
 20
577.4887838320742
 10
483.3106078823159
 20
577.597713203316
 10
483.32132753130986
 20
577.6008248728516
 10
469.8887578668073
 20
583.5157145415433
 10
469.01185820344836
 20
583.3642533277161
 10
468.95838478719816
 20
583.2428165078163
 10
472.09881029160834
 20
574.8847462811254
 10
472.29620784123864
 20
574.9265523710459
 10
472.7448661602774
 20
575.0578072220055
 10
473.1128178260679
 20
575.1504507959316
  0
LWPOLYLINE
  5
3D
330
17
100
AcDbEntity
  8
default
100
AcDbPolyline
 90
14
 70
0
 10
442.2212750172745
 20
578.9164808483082
 10
442.05015458104157
 20
579.5996319237264
 10
441.8716014473064
 20
580.8033393766399
 10
441.8118920580416
 20
582.0187519167264
 10
441.8716014473064
 20
583.2341644568129
 10
442.05015458104157
 20
584.4378719097264
 10
442.3458318949622
 20
585.6182819146817
 10
442.75578585490166
 20
586.7640264780536
 10
443.1324112110462
 20
587.5603338889697
 10
443.0465473937802
 20
587.8436618959531
 10
441.27658811211586
 20
588.4922441728413
 10
433.2833480485715
 20
582.7885628147051
 10
438.33882887428626
 20
576.0261804163456
 10
442.2212750172745
 20
578.9164808483082
  0
LWPOLYLINE
  5
3E
330
17
100
AcDbEntity
  8
default
100
AcDbPolyline
 90
6
 70
0
 10
491.6362741799094
 20
589.2366208429448
 10
482.34326342027634
 20
593.3286996269599
 10
473.8716294746846
 20
586.1325262724422
 10
485.3648676946759
 20
581.0716006485745
 10
492.02257768204436
 20
584.842550907284
 10
491.6362741799094
 20
589.2366208429448
  0
LWPOLYLINE
  5
3F
330
17
100
AcDbEntity
  8
default
100
AcDbPolyline
 90
7
 70
0
 10
498.10018224734813
 20
593.2093564718962
 10
495.58618796058
 20
589.9818254522979
 10
496.0415558377281
 20
584.8021719204262
 10
500.0956742488779
 20
581.7694944692776
 10
507.30474156234413
 20
584.9646693337709
 10
507.4866148564033
 20
594.5622509140521
 10
498.10018224734813
 20
593.2093564718962
  0
LWPOLYLINE
  5
40
330
17
100
AcDbEntity
  8
default
100
AcDbPolyline
 90
21
 70
0
 10
514.7475539674348
 20
584.1926680273343
 10
515.5291950552636
 20
584.3212202207942
 10
516.2614649549217
 20
584.4794660811913
 10
516.6189541918011
 20
584.5432298145494
 10
517.5331684034834
 20
584.672238024413
 10
518.3203931875008
 20
584.8291524126821
 10
518.6100764196636
 20
584.8780928744042
 10
519.5371247343882
 20
585.0068262380108
 10
520.322640775312
 20
585.1629835608461
 10
520.6099723056117
 20
585.2114469120569
 10
521.5371902267746
 20
585.3401753719929
 10
522.3226558959268
 20
585.4963200434822
 10
522.5434530907303
 20
585.5335608594105
 10
519.5874292291701
 20
596.9741718010046
 10
514.4628509352915
 20
598.815560170915
 10
511.51468223519623
 20
596.0054898238741
 10
511.30511129368097
 20
584.9462839313783
 10
513.579096981423
 20
583.9449584375783
 10
513.7949767666368
 20
583.980472291511
 10
514.4140705729825
 20
584.1261022834746
 10
514.7475539674348
 20
584.1926680273343
  0
LWPOLYLINE
  5
41
330
17
100
AcDbEntity
  8
default
100
AcDbPolyline
 90
20
 70
0
 10
528.4820717490311
 20
586.5092925643426
 10
528.7848804621777
 20
586.555618736732
 10
529.8555910575536
 20
586.6859988707466
 10
530.7087460925902
 20
586.8430215526995
 10
530.9470841065992
 20
586.8809652226889
 10
531.9332141687656
 20
587.0136421407706
 10
532.8173126353566
 20
587.176357402039
 10
533.118076362503
 20
587.2222994996537
 10
534.1889799453014
 20
587.3526777839403
 10
535.0421224263248
 20
587.5096932512646
 10
535.2805737513177
 20
587.5476508109799
 10
536.2679547513309
 20
587.6804675013117
 10
536.2826934700753
 20
587.683173447832
 10
537.1226518624462
 20
588.1888755154796
 10
534.9526959504001
 20
603.2441113800742
 10
523.5967567921616
 20
597.4464830788784
 10
526.5044254390868
 20
586.1930198810409
 10
526.6232851716264
 20
586.2129057385997
 10
527.5964144390168
 20
586.3458880055346
 10
528.4820717490311
 20
586.5092925643426
  0
LWPOLYLINE
  5
42
330
17
100
AcDbEntity
  8
default
100
AcDbPolyline
 90
19
 70
0
 10
544.1942126739749
 20
588.8538007924172
 10
544.4505317014756
 20
588.8909123510228
 10
545.578043340879
 20
589.0244485934134
 10
546.527574354235
 20
589.1871361719551
 10
546.783990754196
 20
589.2242586298128
 10
547.9126300346481
 20
589.3579032274152
 10
548.865506718401
 20
589.5207906230988
 10
549.1278268198425
 20
589.5585070373404
 10
549.782176977505
 20
589.6349506645604
 10
550.853131766431
 20
591.0625606789254
 10
549.377210683655
 20
601.3025567508303
 10
540.9496758819037
 20
604.9729256953956
 10
539.9677659882509
 20
604.9327032928087
 10
538.7627026856281
 20
604.849075973252
 10
541.0812604934908
 20
588.7628345564008
 10
541.9613367066265
 20
588.5350120487648
 10
542.1171984231793
 20
588.5575789388251
 10
543.2447029351263
 20
588.6911144904083
 10
544.1942126739749
 20
588.8538007924172
  0
LWPOLYLINE
  5
43
330
17
100
AcDbEntity
  8
default
100
AcDbPolyline
 90
26
 70
0
 10
479.8083766237722
 20
598.0896251378759
 10
479.1350295779303
 20
597.994606665783
 10
478.35149440930917
 20
597.8380127255502
 10
478.07024168914944
 20
597.7901035848856
 10
477.1944256534539
 20
597.6665138017089
 10
476.5141101214193
 20
597.5199139608828
 10
476.25781411200563
 20
597.4716431437391
 10
475.4666289596564
 20
597.3439002228971
 10
474.74154592552327
 20
597.1872045896562
 10
474.3953158834321
 20
597.1250413988894
 10
473.5338296480763
 20
597.0014714125246
 10
472.8557305538102
 20
596.8545043920801
 10
472.6084852671318
 20
596.8073999568406
 10
471.8737828668994
 20
596.6865043040245
 10
471.2587432946852
 20
596.5413711989519
 10
470.93703210430715
 20
596.4765220039761
 10
470.2114583492437
 20
596.354893799007
 10
469.58911794032497
 20
596.208037880604
 10
469.2526245201994
 20
596.1407334978084
 10
468.47275455688174
 20
596.0124052947045
 10
468.1330434543619
 20
595.9387756930046
 10
468.2988494015299
 20
587.8602587287314
 10
468.60951311932877
 20
587.3539872034453
 10
469.26415719185024
 20
587.4670596453361
 10
479.92987078009173
 20
596.5269794226624
 10
479.8083766237722
 20
598.0896251378759
  0
LWPOLYLINE
  5
44
330
17
100
AcDbEntity
  8
default
100
AcDbPolyline
 90
20
 70
0
 10
462.59986923816564
 20
594.8126004729478
 10
461.88716311365016
 20
594.6907182192438
 10
461.26518438255357
 20
594.5430119724646
 10
460.9371868759513
 20
594.4766301357024
 10
460.21377852514235
 20
594.3552676643588
 10
459.59536567311454
 20
594.208867519229
 10
459.27078907554966
 20
594.1432968025135
 10
458.54911633082787
 20
594.0222255046822
 10
457.93482703603297
 20
593.8763453210585
 10
457.87130618807885
 20
593.8633851947309
 10
458.9571666193687
 20
593.4748581198663
 10
460.05721159468396
 20
592.954575594646
 10
461.1009629474847
 20
592.328975109278
 10
462.0783687816708
 20
591.6040815384243
 10
462.676036770985
 20
591.0623868482961
 10
464.24647866236046
 20
590.3708594078198
 10
464.1480927532439
 20
595.1644886442202
 10
463.59096531676846
 20
595.0520781331544
 10
463.01869275354755
 20
594.9028471179059
 10
462.59986923816564
 20
594.8126004729478
  0
LWPOLYLINE
  5
45
330
17
100
AcDbEntity
  8
default
100
AcDbPolyline
 90
5
 70
0
 10
564.7516607805155
 20
592.7703147903085
 10
562.9406283609569
 20
605.3353259428404
 10
553.399987351615
 20
601.4313155370764
 10
554.6782879182138
 20
592.5624180515297
 10
564.7516607805155
 20
592.7703147903085
  0
LWPOLYLINE
  5
46
330
17
100
AcDbEntity
  8
default
100
AcDbPolyline
 90
53
 70
0
 10
588.6773828656226
 20
595.8548693245758
 10
588.7670397082588
 20
595.8932967919136
 10
588.871526013242
 20
595.9530327058088
 10
588.953376190847
 20
595.9988141752488
 10
589.1146196564822
 20
596.0870278704868
 10
589.386067214763
 20
596.2779620201056
 10
589.6165265127789
 20
596.4307189971216
 10
589.9188317306114
 20
596.6192794954734
 10
590.2676346676731
 20
596.882122513377
 10
590.747277871546
 20
597.2661882253946
 10
591.3991984306651
 20
597.9181187164749
 10
591.7700888744088
 20
598.3818368313995
 10
591.8268472655934
 20
598.458260671451
 10
591.8854807609775
 20
598.8983004399782
 10
591.8854908308815
 20
600.1021726373406
 10
591.8190528167233
 20
600.6014659319028
 10
591.548096101979
 20
600.9329827507771
 10
590.5618665844378
 20
601.9192240908899
 10
589.9307105602786
 20
602.4442072841075
 10
589.6894717192897
 20
602.6276628588098
 10
589.5650796907614
 20
602.6978280458852
 10
589.5211106278782
 20
602.7229237246906
 10
589.3871037789261
 20
602.8003112194707
 10
589.2805713146364
 20
602.8482773284824
 10
588.9240335245048
 20
603.0262215991537
 10
588.8105244333774
 20
603.0886418303801
 10
588.6936614533059
 20
603.1382259580962
 10
588.5846689321751
 20
603.1860091749704
 10
588.4875996890968
 20
603.2299496693813
 10
588.3138899779084
 20
603.2815761730243
 10
587.9426760103383
 20
603.4079424734839
 10
587.667572410173
 20
603.5138016905095
 10
587.3603088377607
 20
603.6020662504395
 10
586.9611677823248
 20
603.7351417149396
 10
586.6937668857311
 20
603.8369849077327
 10
586.3822374284441
 20
603.9235403658209
 10
586.1531579429387
 20
603.9931371392602
 10
585.8563320969888
 20
604.0911376042732
 10
585.4235147764082
 20
604.1827402260142
 10
585.1971678775925
 20
604.236173506118
 10
584.7122970548854
 20
604.3626099953885
 10
584.0350172715146
 20
604.4739973927641
 10
583.8742077054843
 20
604.5031514491313
 10
583.1345931375772
 20
604.6497639345473
 10
582.0698704706481
 20
604.7756235088417
 10
581.9258303332452
 20
604.7947764590751
 10
581.188848631991
 20
604.9036930995793
 10
582.2098893914372
 20
597.8196738488041
 10
587.81898755121
 20
595.5271347253362
 10
588.2875531728963
 20
595.7044680298915
 10
588.4621655240377
 20
595.7582004022455
 10
588.5735651096352
 20
595.8089705591843
 10
588.6773828656226
 20
595.8548693245758
  0
LWPOLYLINE
  5
47
330
17
100
AcDbEntity
  8
default
100
AcDbPolyline
 90
20
 70
0
 10
491.4232212419313
 20
599.9756740003508
 10
490.47706143451705
 20
599.8131891644421
 10
490.2268517372495
 20
599.7767076110374
 10
489.1419256982925
 20
599.6464432526634
 10
488.28934363433035
 20
599.4899139359629
 10
488.0530301171649
 20
599.4523493039111
 10
487.0667412374836
 20
599.3196793461146
 10
486.1827346130797
 20
599.1569784473007
 10
485.8821881016629
 20
599.1110619486025
 10
484.8138369407478
 20
598.9809439767946
 10
483.96768470380135
 20
598.8244417945992
 10
483.7658560962506
 20
598.7917836479365
 10
483.9042348898947
 20
597.0119694117457
 10
492.90477009117603
 20
593.0486791399308
 10
494.8562750611454
 20
595.554071797058
 10
493.76986657919633
 20
600.3106109407379
 10
493.7553036941887
 20
600.3088861921946
 10
492.80581566329096
 20
600.1462012479171
 10
492.54959441623566
 20
600.1091006411239
 10
491.4232212419313
 20
599.9756740003508
  0
LWPOLYLINE
  5
48
330
17
100
AcDbEntity
  8
default
100
AcDbPolyline
 90
9
 70
0
 10
577.0584729947383
 20
605.2656545159945
 10
573.1603333431271
 20
605.4047223314036
 10
567.8657519379535
 20
605.5521611787312
 10
566.9507103081436
 20
605.5521611787312
 10
568.7320788339712
 20
593.1929592383094
 10
573.195974455215
 20
592.8521315129474
 10
578.257495209109
 20
597.2025987259112
 10
577.0957791280254
 20
605.2626286597472
 10
577.0584729947383
 20
605.2656545159945
  0
LWPOLYLINE
  5
49
330
17
100
AcDbEntity
  8
default
100
AcDbPolyline
 90
21
 70
0
 10
507.9227965838629
 20
602.118845392162
 10
507.7535357140125
 20
602.099051682062
 10
506.3642417397213
 20
601.9605398902646
 10
505.16383220594014
 20
601.7904825628638
 10
504.9280520157077
 20
601.7627727921235
 10
503.45737990000083
 20
601.6252417483004
 10
502.2814845823194
 20
601.4577065720463
 10
502.0898982773345
 20
601.4341739320768
 10
500.7878996321483
 20
601.2997043416725
 10
499.7713189719399
 20
601.1371259101977
 10
499.5617854312811
 20
601.1081471599815
 10
498.41979032353225
 20
600.9747599114589
 10
497.7474335154959
 20
600.8598270345165
 10
498.5567412856035
 20
597.3164967382327
 10
508.6133132753894
 20
598.7659803619608
 10
511.67281421879306
 20
601.6821679184213
 10
511.39695849929734
 20
602.495585417065
 10
511.0233344941472
 20
602.4479191763926
 10
510.81210924058126
 20
602.4255198128885
 10
509.1759725809092
 20
602.2870886864162
 10
507.9227965838629
 20
602.118845392162
  0
LWPOLYLINE
  5
4A
330
17
100
AcDbEntity
  8
default
100
AcDbPolyline
 90
15
 70
0
 10
524.3860741377091
 20
603.7546718532467
 10
522.4645976320819
 20
603.6125576350828
 10
520.882045886807
 20
603.4378957381786
 10
520.7087196368356
 20
603.4218146528509
 10
518.8315343836366
 20
603.2805601491847
 10
517.3356096267257
 20
603.1075090383623
 10
517.1706057206807
 20
603.0911887056692
 10
515.470802582406
 20
602.9514805776911
 10
515.466305580816
 20
602.9509097757049
 10
515.5611251746304
 20
602.6713146418333
 10
521.1208304422908
 20
600.6735743335448
 10
527.7328184549385
 20
604.0492395510922
 10
526.1983993729627
 20
603.9436822079639
 10
524.5426678522089
 20
603.768732353039
 10
524.3860741377091
 20
603.7546718532467
  0
LWPOLYLINE
  5
4B
330
17
100
AcDbEntity
  8
default
100
AcDbPolyline
 90
65
 70
0
 10
460.3820373634092
 20
582.6264581867697
 10
460.29276079654164
 20
583.2283119132264
 10
460.1449221395813
 20
583.8185169157041
 10
459.93994515961157
 20
584.3913891973899
 10
459.6798038970014
 20
584.9414116850476
 10
459.3670036543174
 20
585.4632873614479
 10
459.0045568688906
 20
585.951990278541
 10
458.5959541013982
 20
586.402813960083
 10
458.14513041985623
 20
586.8114167275753
 10
457.6564275027631
 20
587.1738635130022
 10
457.1345518263628
 20
587.4866637556862
 10
456.5845293387052
 20
587.7468050182964
 10
456.01165705701925
 20
587.951781998266
 10
455.4214520545416
 20
588.0996206552264
 10
454.81959832808485
 20
588.188897222094
 10
454.2118920580416
 20
588.2187519167264
 10
453.60418578799835
 20
588.188897222094
 10
453.0023320615416
 20
588.0996206552264
 10
452.41212705906395
 20
587.951781998266
 10
451.839254777378
 20
587.7468050182964
 10
451.2892322897204
 20
587.4866637556862
 10
450.7673566133201
 20
587.1738635130022
 10
450.27865369622697
 20
586.8114167275753
 10
449.827830014685
 20
586.402813960083
 10
449.4192272471926
 20
585.951990278541
 10
449.0567804617658
 20
585.4632873614479
 10
448.7439802190818
 20
584.9414116850476
 10
448.48383895647163
 20
584.3913891973899
 10
448.2788619765019
 20
583.8185169157041
 10
448.13102331954155
 20
583.2283119132264
 10
448.041746752674
 20
582.6264581867697
 10
448.0118920580416
 20
582.0187519167264
 10
448.041746752674
 20
581.4110456466831
 10
448.13102331954155
 20
580.8091919202263
 10
448.2788619765019
 20
580.2189869177487
 10
448.48383895647163
 20
579.6461146360629
 10
448.7439802190818
 20
579.0960921484052
 10
449.0567804617658
 20
578.5742164720049
 10
449.4192272471926
 20
578.0855135549118
 10
449.827830014685
 20
577.6346898733698
 10
450.278653696227
 20
577.2260871058775
 10
450.7673566133201
 20
576.8636403204506
 10
451.2892322897204
 20
576.5508400777666
 10
451.839254777378
 20
576.2906988151564
 10
452.41212705906395
 20
576.0857218351867
 10
453.0023320615416
 20
575.9378831782263
 10
453.60418578799835
 20
575.8486066113587
 10
454.2118920580416
 20
575.8187519167263
 10
454.81959832808485
 20
575.8486066113587
 10
455.4214520545416
 20
575.9378831782263
 10
456.01165705701925
 20
576.0857218351867
 10
456.5845293387052
 20
576.2906988151564
 10
457.1345518263628
 20
576.5508400777666
 10
457.6564275027631
 20
576.8636403204506
 10
458.1451304198562
 20
577.2260871058775
 10
458.5959541013982
 20
577.6346898733698
 10
459.0045568688906
 20
578.0855135549118
 10
459.3670036543174
 20
578.5742164720049
 10
459.6798038970014
 20
579.0960921484052
 10
459.93994515961157
 20
579.6461146360629
 10
460.1449221395813
 20
580.2189869177487
 10
460.29276079654164
 20
580.8091919202263
 10
460.3820373634092
 20
581.4110456466831
 10
460.4118920580416
 20
582.0187519167264
 10
460.3820373634092
 20
582.6264581867697
  0
ENDSEC
  0
SECTION
  2
OBJECTS
  0
DICTIONARY
  5
A
330
0
100
AcDbDictionary
280
0
281
1
  3
ACAD_COLOR
350
B
  3
ACAD_GROUP
350
C
  3
ACAD_LAYOUT
350
D
  3
ACAD_MATERIAL
350
E
  3
ACAD_MLEADERSTYLE
350
F
  3
ACAD_MLINESTYLE
350
10
  3
ACAD_PLOTSETTINGS
350
11
  3
ACAD_PLOTSTYLENAME
350
12
  3
ACAD_SCALELIST
350
14
  3
ACAD_TABLESTYLE
350
15
  3
ACAD_VISUALSTYLE
350
16
  3
EZDXF_META
350
2D
  0
DICTIONARY
  5
B
330
A
100
AcDbDictionary
280
0
281
1
  0
DICTIONARY
  5
C
330
A
100
AcDbDictionary
280
0
281
1
  0
DICTIONARY
  5
D
330
A
100
AcDbDictionary
280
0
281
1
  3
Model
350
1A
  3
Layout1
350
1E
  0
DICTIONARY
  5
E
330
A
100
AcDbDictionary
280
0
281
1
  3
ByBlock
350
1F
  3
ByLayer
350
20
  3
Global
350
21
  0
DICTIONARY
  5
F
330
A
100
AcDbDictionary
280
0
281
1
  3
Standard
350
2C
  0
DICTIONARY
  5
10
330
A
100
AcDbDictionary
280
0
281
1
  3
Standard
350
22
  0
DICTIONARY
  5
11
330
A
100
AcDbDictionary
280
0
281
1
  0
ACDBDICTIONARYWDFLT
  5
12
330
A
100
AcDbDictionary
280
0
281
1
  3
Normal
350
13
100
AcDbDictionaryWithDefault
340
13
  0
ACDBPLACEHOLDER
  5
13
330
12
  0
DICTIONARY
  5
14
330
A
100
AcDbDictionary
280
0
281
1
  0
DICTIONARY
  5
15
330
A
100
AcDbDictionary
280
0
281
1
  0
DICTIONARY
  5
16
330
A
100
AcDbDictionary
280
0
281
1
  0
LAYOUT
  5
1A
330
D
100
AcDbPlotSettings
  1

  2
Adobe PDF
  4
A3
  6

 40
7.5
 41
20.0
 42
7.5
 43
20.0
 44
420.0
 45
297.0
 46
0.0
 47
0.0
 48
0.0
 49
0.0
140
0.0
141
0.0
142
1.0
143
1.0
 70
1024
 72
1
 73
0
 74
5
  7

 75
16
 76
0
 77
2
 78
300
147
1.0
148
0.0
149
0.0
100
AcDbLayout
  1
Model
 70
1
 71
0
 10
0.0
 20
0.0
 11
420.0
 21
297.0
 12
0.0
 22
0.0
 32
0.0
 14
1e+20
 24
1e+20
 34
1e+20
 15
-1e+20
 25
-1e+20
 35
-1e+20
146
0.0
 13
0.0
 23
0.0
 33
0.0
 16
1.0
 26
0.0
 36
0.0
 17
0.0
 27
1.0
 37
0.0
 76
1
330
17
  0
LAYOUT
  5
1E
330
D
100
AcDbPlotSettings
  1

  2
Adobe PDF
  4
A3
  6

 40
7.5
 41
20.0
 42
7.5
 43
20.0
 44
420.0
 45
297.0
 46
0.0
 47
0.0
 48
0.0
 49
0.0
140
0.0
141
0.0
142
1.0
143
1.0
 70
0
 72
1
 73
0
 74
5
  7

 75
16
 76
0
 77
2
 78
300
147
1.0
148
0.0
149
0.0
100
AcDbLayout
  1
Layout1
 70
1
 71
1
 10
0.0
 20
0.0
 11
420.0
 21
297.0
 12
0.0
 22
0.0
 32
0.0
 14
1e+20
 24
1e+20
 34
1e+20
 15
-1e+20
 25
-1e+20
 35
-1e+20
146
0.0
 13
0.0
 23
0.0
 33
0.0
 16
1.0
 26
0.0
 36
0.0
 17
0.0
 27
1.0
 37
0.0
 76
1
330
1B
  0
MATERIAL
  5
1F
102
{ACAD_REACTORS
330
E
102
}
330
E
100
AcDbMaterial
  1
ByBlock
  2

 70
0
 40
1.0
 71
1
 41
1.0
 91
-1023410177
 42
1.0
 72
1
  3

 73
1
 74
1
 75
1
 44
0.5
 73
0
 45
1.0
 46
1.0
 77
1
  4

 78
1
 79
1
170
1
 48
1.0
171
1
  6

172
1
173
1
174
1
140
1.0
141
1.0
175
1
  7

176
1
177
1
178
1
143
1.0
179
1
  8

270
1
271
1
272
1
145
1.0
146
1.0
273
1
  9

274
1
275
1
276
1
 42
1.0
 72
1
  3

 73
1
 74
1
 75
1
 94
63
  0
MATERIAL
  5
20
102
{ACAD_REACTORS
330
E
102
}
330
E
100
AcDbMaterial
  1
ByLayer
  2

 70
0
 40
1.0
 71
1
 41
1.0
 91
-1023410177
 42
1.0
 72
1
  3

 73
1
 74
1
 75
1
 44
0.5
 73
0
 45
1.0
 46
1.0
 77
1
  4

 78
1
 79
1
170
1
 48
1.0
171
1
  6

172
1
173
1
174
1
140
1.0
141
1.0
175
1
  7

176
1
177
1
178
1
143
1.0
179
1
  8

270
1
271
1
272
1
145
1.0
146
1.0
273
1
  9

274
1
275
1
276
1
 42
1.0
 72
1
  3

 73
1
 74
1
 75
1
 94
63
  0
MATERIAL
  5
21
102
{ACAD_REACTORS
330
E
102
}
330
E
100
AcDbMaterial
  1
Global
  2

 70
0
 40
1.0
 71
1
 41
1.0
 91
-1023410177
 42
1.0
 72
1
  3

 73
1
 74
1
 75
1
 44
0.5
 73
0
 45
1.0
 46
1.0
 77
1
  4

 78
1
 79
1
170
1
 48
1.0
171
1
  6

172
1
173
1
174
1
140
1.0
141
1.0
175
1
  7

176
1
177
1
178
1
143
1.0
179
1
  8

270
1
271
1
272
1
145
1.0
146
1.0
273
1
  9

274
1
275
1
276
1
 42
1.0
 72
1
  3

 73
1
 74
1
 75
1
 94
63
  0
MLINESTYLE
  5
22
102
{ACAD_REACTORS
330
10
102
}
330
10
100
AcDbMlineStyle
  2
Standard
 70
0
  3

 62
256
 51
90.0
 52
90.0
 71
2
 49
0.5
 62
256
  6
BYLAYER
 49
-0.5
 62
256
  6
BYLAYER
  0
MLEADERSTYLE
  5
2C
102
{ACAD_REACTORS
330
F
102
}
330
F
100
AcDbMLeaderStyle
179
2
170
2
171
1
172
0
 90
2
 40
0.0
 41
0.0
173
1
 91
-1056964608
 92
-2
290
1
 42
2.0
291
1
 43
8.0
  3
Standard
 44
4.0
300

342
29
174
1
175
1
176
0
178
1
 93
-1056964608
 45
4.0
292
0
297
0
 46
4.0
 94
-1056964608
 47
1.0
 49
1.0
140
1.0
294
1
141
0.0
177
0
142
1.0
295
0
296
0
143
3.75
271
0
272
9
273
9
  0
DICTIONARY
  5
2D
330
A
100
AcDbDictionary
281
1
  3
CREATED_BY_EZDXF
350
2E
  3
WRITTEN_BY_EZDXF
350
4E
  0
DICTIONARYVAR
  5
2E
330
2D
100
DictionaryVariables
280
0
  1
1.1.1 @ 2023-10-28T15:34:31.152643+00:00
  0
DICTIONARYVAR
  5
4E
330
2D
100
DictionaryVariables
280
0
  1
1.1.1 @ 2023-10-28T15:34:31.164098+00:00
  0
ENDSEC
  0
EOF
