<?xml version="1.0" standalone="no"?>
<!DOCTYPE svg PUBLIC "-//W3C//DTD SVG 1.1//EN" "http://www.w3.org/Graphics/SVG/1.1/DTD/svg11.dtd">
<svg width="609mm" height="627mm" viewBox="-12 -611 609 627" xmlns="http://www.w3.org/2000/svg" version="1.1">
<title>OpenSCAD Model</title>
<path d="
M 2.78046,15.0689 L 3.9709,14.9251 L 4.77028,14.741 L 5.49194,14.5923 L 6.05109,14.4077 L 6.5697,14.2589
 L 6.98241,14.0744 L 7.35037,13.9256 L 7.75812,13.741 L 8.24162,13.5923 L 8.64711,13.4075 L 9,13.2562
 L 9.35287,13.0546 L 9.75836,12.8339 L 10.2419,12.4992 L 10.6498,12.2758 L 11.0201,12.0542 L 11.4572,11.8012
 L 12.1437,11.2585 L 13.3994,10.1528 L 15.5086,8.04352 L 16.6838,6.71841 L 17.3762,5.88225 L 17.7011,5.37325
 L 17.9398,4.98582 L 18.1656,4.57547 L 18.5005,4.09174 L 18.7212,3.68646 L 18.9229,3.33604 L 19.0741,3.00024
 L 19.2589,2.66667 L 19.4077,2.33333 L 19.5923,1.99997 L 19.741,1.66641 L 19.9256,1.3306 L 20.0744,0.980179
 L 20.2589,0.574936 L 20.4077,0.0914459 L 20.5923,-0.316269 L 20.741,-0.68425 L 20.9256,-1.09691 L 21.0744,-1.61481
 L 21.2589,-2.16637 L 21.4077,-2.83443 L 21.5923,-3.39337 L 21.741,-3.96275 L 21.9256,-4.59364 L 22.0744,-5.42941
 L 22.2589,-6.1347 L 22.4077,-6.88889 L 22.5923,-7.67352 L 22.741,-8.72874 L 22.9256,-9.73413 L 23.0744,-11.0259
 L 23.2589,-12.3387 L 23.4077,-14.2017 L 23.5923,-16.1789 L 23.741,-19.0947 L 23.9256,-21.9347 L 24.0744,-25.8015
 L 24.2589,-28.867 L 24.4077,-32.3531 L 24.5923,-35.0667 L 24.741,-38.1518 L 24.9256,-40.4986 L 25.0744,-43.0986
 L 25.2589,-45.2197 L 25.4077,-47.7336 L 25.5923,-49.701 L 25.741,-51.897 L 25.9256,-53.6461 L 26.0744,-55.641
 L 26.2589,-57.2414 L 26.4077,-59.0688 L 26.5923,-60.5948 L 26.741,-62.4046 L 26.9256,-63.9257 L 27.0744,-65.7179
 L 27.2589,-67.1646 L 27.4077,-68.7901 L 27.5923,-70.0954 L 27.741,-71.5707 L 27.9256,-72.8711 L 28.0744,-74.462
 L 28.2589,-75.7598 L 28.4077,-77.2174 L 28.5923,-78.4433 L 28.741,-79.8669 L 28.9256,-81.0185 L 29.0744,-82.292
 L 29.2589,-83.3716 L 29.4077,-84.6278 L 29.5923,-85.7025 L 29.741,-86.9416 L 29.9256,-87.9469 L 30.0744,-89.0529
 L 30.2589,-90.0556 L 30.4077,-91.2774 L 30.5923,-92.2777 L 30.741,-93.3664 L 30.9256,-94.2973 L 31.0744,-95.3691
 L 31.2589,-96.2975 L 31.4077,-97.3691 L 31.5923,-98.2975 L 31.741,-99.3691 L 31.9256,-100.298 L 32.0744,-101.369
 L 32.2589,-102.295 L 32.4077,-103.349 L 32.5923,-104.206 L 32.741,-105.127 L 32.9256,-105.981 L 33.0744,-107.018
 L 33.2589,-107.87 L 33.4077,-108.774 L 33.5923,-109.559 L 33.741,-110.463 L 33.9256,-111.315 L 34.0744,-112.352
 L 34.2589,-113.203 L 34.4077,-114.107 L 34.5923,-114.89 L 34.741,-115.777 L 34.9256,-116.556 L 35.0744,-117.443
 L 35.2589,-118.223 L 35.4077,-119.11 L 35.5923,-119.887 L 35.741,-120.757 L 35.9256,-121.465 L 36.0744,-122.202
 L 36.2589,-122.91 L 36.4077,-123.779 L 36.5923,-124.554 L 36.741,-125.424 L 36.9256,-126.131 L 37.0744,-126.868
 L 37.2589,-127.574 L 37.4077,-128.426 L 37.5923,-129.132 L 37.741,-129.868 L 37.9256,-130.574 L 38.0744,-131.426
 L 38.2589,-132.129 L 38.4077,-132.849 L 38.5923,-133.485 L 38.741,-134.204 L 38.9256,-134.907 L 39.0744,-135.76
 L 39.2589,-136.462 L 39.4077,-137.182 L 39.5923,-137.815 L 39.741,-138.518 L 39.9256,-139.149 L 40.0744,-139.851
 L 40.2589,-140.482 L 40.4077,-141.185 L 40.5923,-141.815 L 40.741,-142.518 L 40.9256,-143.149 L 41.0744,-143.851
 L 41.2589,-144.482 L 41.4077,-145.185 L 41.5923,-145.815 L 41.741,-146.518 L 41.9256,-147.149 L 42.0744,-147.851
 L 42.2589,-148.482 L 42.4077,-149.184 L 42.5923,-149.813 L 42.741,-150.498 L 42.9256,-151.057 L 43.0744,-151.61
 L 43.2589,-152.169 L 43.4077,-152.854 L 43.5923,-153.482 L 43.741,-154.184 L 43.9256,-154.813 L 44.0744,-155.498
 L 44.2589,-156.057 L 44.4077,-156.609 L 44.5923,-157.166 L 44.741,-157.834 L 44.9256,-158.391 L 45.0744,-158.943
 L 45.2589,-159.502 L 45.4077,-160.187 L 45.5923,-160.813 L 45.741,-161.498 L 45.9256,-162.057 L 46.0744,-162.609
 L 46.2589,-163.166 L 46.4077,-163.834 L 46.5923,-164.391 L 46.741,-164.943 L 46.9256,-165.499 L 47.0744,-166.167
 L 47.2589,-166.721 L 47.4077,-167.256 L 47.5923,-167.744 L 47.741,-168.279 L 47.9256,-168.833 L 48.0744,-169.501
 L 48.2589,-170.057 L 48.4077,-170.609 L 48.5923,-171.166 L 48.741,-171.834 L 48.9256,-172.388 L 49.0744,-172.923
 L 49.2589,-173.407 L 49.4077,-173.926 L 49.5923,-174.41 L 49.741,-174.945 L 49.9256,-175.499 L 50.0744,-176.167
 L 50.2589,-176.721 L 50.4077,-177.256 L 50.5923,-177.741 L 50.741,-178.259 L 50.9256,-178.741 L 51.0744,-179.259
 L 51.2589,-179.744 L 51.4077,-180.279 L 51.5923,-180.833 L 51.741,-181.501 L 51.9256,-182.055 L 52.0744,-182.59
 L 52.2589,-183.074 L 52.4077,-183.592 L 52.5923,-184.074 L 52.741,-184.592 L 52.9256,-185.074 L 53.0744,-185.592
 L 53.2589,-186.074 L 53.4077,-186.592 L 53.5923,-187.074 L 53.741,-187.592 L 53.9256,-188.074 L 54.0744,-188.592
 L 54.2589,-189.074 L 54.4077,-189.592 L 54.5923,-190.074 L 54.741,-190.592 L 54.9256,-191.072 L 55.0744,-191.572
 L 55.2589,-191.983 L 55.4077,-192.351 L 55.5923,-192.761 L 55.741,-193.262 L 55.9256,-193.741 L 56.0744,-194.259
 L 56.2589,-194.741 L 56.4077,-195.259 L 56.5923,-195.741 L 56.741,-196.259 L 56.9256,-196.738 L 57.0744,-197.239
 L 57.2589,-197.649 L 57.4077,-198.017 L 57.5923,-198.428 L 57.741,-198.928 L 57.9256,-199.408 L 58.0744,-199.925
 L 58.2589,-200.405 L 58.4077,-200.906 L 58.5923,-201.316 L 58.741,-201.684 L 58.9256,-202.094 L 59.0744,-202.595
 L 59.2589,-203.072 L 59.4077,-203.572 L 59.5923,-203.983 L 59.741,-204.351 L 59.9256,-204.761 L 60.0744,-205.261
 L 60.2589,-205.739 L 60.4077,-206.239 L 60.5923,-206.649 L 60.741,-207.017 L 60.9256,-207.428 L 61.0744,-207.928
 L 61.2589,-208.405 L 61.4077,-208.906 L 61.5923,-209.316 L 61.741,-209.684 L 61.9256,-210.094 L 62.0744,-210.595
 L 62.2589,-211.072 L 62.4077,-211.572 L 62.5923,-211.983 L 62.741,-212.35 L 62.9256,-212.758 L 63.0744,-213.242
 L 63.2589,-213.65 L 63.4077,-214.017 L 63.5923,-214.428 L 63.741,-214.928 L 63.9256,-215.405 L 64.0744,-215.906
 L 64.2589,-216.316 L 64.4077,-216.684 L 64.5923,-217.091 L 64.741,-217.575 L 64.9256,-217.983 L 65.0744,-218.35
 L 65.2589,-218.758 L 65.4077,-219.242 L 65.5923,-219.65 L 65.741,-220.017 L 65.9256,-220.425 L 66.0744,-220.909
 L 66.2589,-221.316 L 66.4077,-221.684 L 66.5923,-222.091 L 66.741,-222.575 L 66.9256,-222.983 L 67.0744,-223.35
 L 67.2589,-223.758 L 67.4077,-224.242 L 67.5923,-224.65 L 67.741,-225.017 L 67.9256,-225.425 L 68.0744,-225.909
 L 68.2589,-226.316 L 68.4077,-226.684 L 68.5923,-227.091 L 68.741,-227.575 L 68.9256,-227.98 L 69.0744,-228.331
 L 69.2589,-228.669 L 69.4077,-229.02 L 69.5923,-229.425 L 69.741,-229.908 L 69.9256,-230.314 L 70.0744,-230.664
 L 70.2589,-231.002 L 70.4077,-231.353 L 70.5923,-231.758 L 70.741,-232.242 L 70.9256,-232.647 L 71.0744,-232.998
 L 71.2589,-233.336 L 71.4077,-233.686 L 71.5923,-234.092 L 71.741,-234.575 L 71.9256,-234.98 L 72.0744,-235.331
 L 72.2589,-235.666 L 72.4077,-236 L 72.5923,-236.336 L 72.741,-236.686 L 72.9256,-237.092 L 73.0744,-237.575
 L 73.2589,-237.98 L 73.4077,-238.331 L 73.5923,-238.666 L 73.741,-239 L 73.9256,-239.336 L 74.0744,-239.686
 L 74.2589,-240.092 L 74.4077,-240.575 L 74.5923,-240.98 L 74.741,-241.331 L 74.9256,-241.666 L 75.0744,-242
 L 75.2589,-242.336 L 75.4077,-242.686 L 75.5923,-243.092 L 75.741,-243.575 L 75.9256,-243.98 L 76.0744,-244.331
 L 76.2589,-244.666 L 76.4077,-245 L 76.5923,-245.333 L 76.741,-245.667 L 76.9256,-246.003 L 77.0744,-246.353
 L 77.2589,-246.758 L 77.4077,-247.242 L 77.5923,-247.647 L 77.741,-247.997 L 77.9256,-248.333 L 78.0744,-248.667
 L 78.2589,-249 L 78.4077,-249.333 L 78.5923,-249.667 L 78.741,-250 L 78.9256,-250.333 L 79.0744,-250.667
 L 79.2589,-251.003 L 79.4077,-251.353 L 79.5923,-251.758 L 79.741,-252.242 L 79.9256,-252.647 L 80.0744,-252.997
 L 80.2589,-253.333 L 80.4077,-253.667 L 80.5923,-254 L 80.741,-254.333 L 80.9256,-254.667 L 81.0744,-255
 L 81.2589,-255.333 L 81.4077,-255.667 L 81.5923,-256 L 81.741,-256.333 L 81.9256,-256.667 L 82.0744,-257
 L 82.2589,-257.333 L 82.4077,-257.667 L 82.5923,-258 L 82.741,-258.333 L 82.9256,-258.667 L 83.0744,-259
 L 83.2589,-259.333 L 83.4077,-259.667 L 83.5923,-260.003 L 83.741,-260.353 L 83.9256,-260.758 L 84.0744,-261.242
 L 84.2589,-261.647 L 84.4077,-261.997 L 84.5923,-262.333 L 84.741,-262.667 L 84.9256,-263 L 85.0744,-263.333
 L 85.2589,-263.667 L 85.4077,-264 L 85.5923,-264.333 L 85.7411,-264.667 L 85.9259,-265 L 86.0771,-265.336
 L 86.2787,-265.686 L 86.4994,-266.092 L 86.8339,-266.575 L 87.0546,-266.98 L 87.2562,-267.331 L 87.4075,-267.666
 L 87.5923,-268 L 87.741,-268.333 L 87.9256,-268.667 L 88.0744,-269 L 88.2589,-269.333 L 88.4077,-269.667
 L 88.5923,-270 L 88.741,-270.333 L 88.9256,-270.667 L 89.0744,-271 L 89.2589,-271.333 L 89.4077,-271.667
 L 89.5923,-272 L 89.741,-272.333 L 89.9256,-272.667 L 90.0744,-273 L 90.2589,-273.333 L 90.4077,-273.667
 L 90.5923,-274 L 90.7411,-274.333 L 90.9259,-274.667 L 91.0771,-275.003 L 91.2787,-275.353 L 91.4994,-275.758
 L 91.8339,-276.242 L 92.0546,-276.647 L 92.2562,-276.997 L 92.4075,-277.333 L 92.5923,-277.667 L 92.741,-278
 L 92.9256,-278.333 L 93.0744,-278.667 L 93.2592,-279 L 93.4104,-279.336 L 93.6121,-279.686 L 93.8327,-280.092
 L 94.1672,-280.575 L 94.3879,-280.98 L 94.5896,-281.331 L 94.7408,-281.666 L 94.9256,-282 L 95.0744,-282.333
 L 95.2592,-282.667 L 95.4104,-283.003 L 95.6121,-283.353 L 95.8327,-283.758 L 96.1672,-284.242 L 96.3879,-284.647
 L 96.5896,-284.997 L 96.7408,-285.333 L 96.9256,-285.667 L 97.0744,-286 L 97.2592,-286.334 L 97.4104,-286.669
 L 97.6121,-287.02 L 97.8327,-287.425 L 98.1672,-287.908 L 98.3879,-288.314 L 98.5898,-288.664 L 98.7435,-289.002
 L 98.9454,-289.353 L 99.1661,-289.758 L 99.5006,-290.242 L 99.7213,-290.647 L 99.9231,-290.998 L 100.077,-291.336
 L 100.279,-291.686 L 100.499,-292.092 L 100.834,-292.575 L 101.055,-292.98 L 101.256,-293.331 L 101.41,-293.669
 L 101.612,-294.02 L 101.833,-294.425 L 102.167,-294.908 L 102.388,-295.314 L 102.59,-295.664 L 102.744,-296.002
 L 102.945,-296.353 L 103.166,-296.758 L 103.501,-297.242 L 103.724,-297.65 L 103.943,-298.017 L 104.166,-298.425
 L 104.501,-298.909 L 104.724,-299.316 L 104.943,-299.684 L 105.166,-300.091 L 105.501,-300.575 L 105.724,-300.983
 L 105.943,-301.35 L 106.166,-301.758 L 106.501,-302.242 L 106.724,-302.65 L 106.943,-303.017 L 107.166,-303.425
 L 107.501,-303.909 L 107.724,-304.316 L 107.943,-304.684 L 108.166,-305.091 L 108.501,-305.575 L 108.724,-305.983
 L 108.943,-306.35 L 109.166,-306.758 L 109.501,-307.242 L 109.724,-307.65 L 109.943,-308.017 L 110.169,-308.428
 L 110.52,-308.928 L 110.813,-309.405 L 111.165,-309.906 L 111.39,-310.316 L 111.609,-310.684 L 111.833,-311.091
 L 112.167,-311.575 L 112.391,-311.983 L 112.61,-312.351 L 112.835,-312.761 L 113.187,-313.261 L 113.48,-313.739
 L 113.831,-314.239 L 114.057,-314.649 L 114.276,-315.017 L 114.502,-315.428 L 114.854,-315.928 L 115.146,-316.405
 L 115.498,-316.906 L 115.724,-317.316 L 115.943,-317.684 L 116.169,-318.094 L 116.521,-318.595 L 116.816,-319.075
 L 117.184,-319.592 L 117.479,-320.072 L 117.831,-320.572 L 118.057,-320.983 L 118.276,-321.351 L 118.502,-321.761
 L 118.854,-322.262 L 119.149,-322.741 L 119.518,-323.259 L 119.815,-323.741 L 120.185,-324.259 L 120.482,-324.741
 L 120.851,-325.259 L 121.149,-325.741 L 121.518,-326.259 L 121.815,-326.741 L 122.185,-327.259 L 122.482,-327.741
 L 122.851,-328.259 L 123.149,-328.741 L 123.518,-329.259 L 123.815,-329.741 L 124.185,-330.259 L 124.482,-330.741
 L 124.851,-331.259 L 125.151,-331.744 L 125.538,-332.279 L 125.907,-332.833 L 126.426,-333.501 L 126.796,-334.055
 L 127.182,-334.59 L 127.482,-335.074 L 127.851,-335.593 L 128.151,-336.077 L 128.538,-336.612 L 128.907,-337.166
 L 129.426,-337.834 L 129.798,-338.391 L 130.202,-338.943 L 130.574,-339.499 L 131.093,-340.167 L 131.462,-340.721
 L 131.849,-341.256 L 132.151,-341.744 L 132.538,-342.279 L 132.91,-342.835 L 133.446,-343.52 L 133.887,-344.146
 L 134.424,-344.831 L 134.798,-345.39 L 135.202,-345.943 L 135.576,-346.502 L 136.113,-347.187 L 136.554,-347.813
 L 137.09,-348.498 L 137.465,-349.057 L 137.869,-349.61 L 138.243,-350.169 L 138.78,-350.854 L 139.223,-351.482
 L 139.777,-352.185 L 140.223,-352.815 L 140.777,-353.518 L 141.226,-354.151 L 141.797,-354.871 L 142.315,-355.574
 L 143.018,-356.426 L 143.537,-357.129 L 144.107,-357.848 L 144.556,-358.482 L 145.11,-359.185 L 145.559,-359.818
 L 146.13,-360.538 L 146.648,-361.24 L 147.352,-362.093 L 147.87,-362.796 L 148.441,-363.515 L 148.892,-364.151
 L 149.464,-364.871 L 149.984,-365.577 L 150.705,-366.446 L 151.298,-367.223 L 152.036,-368.11 L 152.631,-368.89
 L 153.369,-369.777 L 153.964,-370.557 L 154.703,-371.444 L 155.3,-372.226 L 156.056,-373.13 L 156.723,-373.982
 L 157.611,-375.019 L 158.283,-375.875 L 159.073,-376.814 L 159.817,-377.742 L 160.873,-378.947 L 161.688,-379.947
 L 162.645,-381.053 L 163.466,-382.058 L 164.556,-383.297 L 165.447,-384.372 L 166.554,-385.628 L 167.449,-386.708
 L 168.574,-387.981 L 169.541,-389.133 L 170.816,-390.557 L 171.863,-391.788 L 173.207,-393.281 L 174.479,-394.738
 L 176.328,-396.736 L 178.066,-398.658 L 180.653,-401.394 L 183.594,-404.519 L 188.148,-409.217 L 191.351,-412.57
 L 194.718,-415.937 L 197.93,-418.999 L 202.311,-423.236 L 205.218,-425.959 L 207.753,-428.345 L 209.529,-429.937
 L 211.376,-431.635 L 212.83,-432.905 L 214.456,-434.382 L 215.759,-435.5 L 217.218,-436.81 L 218.446,-437.854
 L 219.887,-439.146 L 221.11,-440.185 L 222.533,-441.459 L 223.682,-442.424 L 224.939,-443.531 L 225.944,-444.352
 L 227.033,-445.292 L 227.964,-446.038 L 229.036,-446.961 L 229.961,-447.703 L 231.016,-448.608 L 231.87,-449.277
 L 232.774,-450.033 L 233.556,-450.631 L 234.443,-451.369 L 235.223,-451.964 L 236.11,-452.702 L 236.89,-453.298
 L 237.777,-454.036 L 238.556,-454.631 L 239.443,-455.369 L 240.223,-455.964 L 241.11,-456.702 L 241.887,-457.295
 L 242.757,-458.016 L 243.465,-458.539 L 244.202,-459.127 L 244.91,-459.651 L 245.779,-460.372 L 246.554,-460.962
 L 247.423,-461.682 L 248.129,-462.203 L 248.848,-462.774 L 249.482,-463.223 L 250.185,-463.777 L 250.815,-464.223
 L 251.518,-464.777 L 252.149,-465.223 L 252.851,-465.777 L 253.482,-466.223 L 254.185,-466.777 L 254.815,-467.223
 L 255.518,-467.777 L 256.149,-468.223 L 256.851,-468.777 L 257.482,-469.223 L 258.184,-469.777 L 258.813,-470.22
 L 259.498,-470.757 L 260.057,-471.131 L 260.61,-471.535 L 261.169,-471.91 L 261.854,-472.446 L 262.48,-472.887
 L 263.165,-473.424 L 263.724,-473.798 L 264.276,-474.202 L 264.833,-474.574 L 265.501,-475.093 L 266.057,-475.465
 L 266.609,-475.868 L 267.166,-476.24 L 267.834,-476.76 L 268.391,-477.132 L 268.943,-477.535 L 269.499,-477.907
 L 270.167,-478.426 L 270.721,-478.796 L 271.256,-479.182 L 271.741,-479.482 L 272.259,-479.851 L 272.744,-480.151
 L 273.279,-480.538 L 273.833,-480.907 L 274.501,-481.426 L 275.055,-481.796 L 275.59,-482.182 L 276.074,-482.482
 L 276.592,-482.851 L 277.074,-483.149 L 277.592,-483.518 L 278.074,-483.815 L 278.592,-484.185 L 279.074,-484.482
 L 279.592,-484.851 L 280.074,-485.149 L 280.592,-485.518 L 281.072,-485.813 L 281.572,-486.165 L 281.983,-486.39
 L 282.351,-486.61 L 282.761,-486.835 L 283.262,-487.187 L 283.741,-487.482 L 284.259,-487.851 L 284.741,-488.149
 L 285.259,-488.518 L 285.741,-488.815 L 286.259,-489.184 L 286.738,-489.479 L 287.239,-489.831 L 287.649,-490.057
 L 288.017,-490.276 L 288.428,-490.502 L 288.928,-490.854 L 289.408,-491.149 L 289.925,-491.518 L 290.405,-491.813
 L 290.906,-492.165 L 291.316,-492.39 L 291.684,-492.61 L 292.094,-492.835 L 292.595,-493.187 L 293.075,-493.482
 L 293.592,-493.851 L 294.072,-494.146 L 294.572,-494.498 L 294.983,-494.724 L 295.351,-494.943 L 295.761,-495.169
 L 296.261,-495.52 L 296.739,-495.813 L 297.239,-496.165 L 297.649,-496.39 L 298.017,-496.61 L 298.428,-496.835
 L 298.928,-497.187 L 299.405,-497.48 L 299.906,-497.831 L 300.316,-498.057 L 300.684,-498.276 L 301.091,-498.499
 L 301.575,-498.834 L 301.983,-499.057 L 302.35,-499.276 L 302.758,-499.499 L 303.242,-499.834 L 303.65,-500.057
 L 304.017,-500.276 L 304.425,-500.499 L 304.909,-500.834 L 305.316,-501.057 L 305.684,-501.276 L 306.091,-501.499
 L 306.575,-501.834 L 306.983,-502.057 L 307.35,-502.276 L 307.758,-502.499 L 308.242,-502.834 L 308.65,-503.057
 L 309.017,-503.276 L 309.425,-503.499 L 309.909,-503.834 L 310.316,-504.057 L 310.684,-504.276 L 311.091,-504.499
 L 311.575,-504.834 L 311.98,-505.055 L 312.331,-505.256 L 312.669,-505.41 L 313.02,-505.612 L 313.425,-505.833
 L 313.908,-506.167 L 314.314,-506.388 L 314.664,-506.59 L 315.002,-506.744 L 315.353,-506.945 L 315.758,-507.166
 L 316.242,-507.501 L 316.647,-507.721 L 316.998,-507.923 L 317.336,-508.077 L 317.686,-508.279 L 318.092,-508.499
 L 318.575,-508.834 L 318.98,-509.055 L 319.331,-509.256 L 319.666,-509.407 L 320,-509.593 L 320.336,-509.744
 L 320.686,-509.945 L 321.092,-510.166 L 321.575,-510.501 L 321.98,-510.721 L 322.331,-510.923 L 322.666,-511.074
 L 323,-511.259 L 323.336,-511.41 L 323.686,-511.612 L 324.092,-511.833 L 324.575,-512.167 L 324.98,-512.388
 L 325.331,-512.59 L 325.666,-512.741 L 326,-512.926 L 326.333,-513.074 L 326.667,-513.259 L 327.003,-513.41
 L 327.353,-513.612 L 327.758,-513.833 L 328.242,-514.167 L 328.647,-514.388 L 328.997,-514.59 L 329.333,-514.741
 L 329.667,-514.926 L 330,-515.074 L 330.333,-515.259 L 330.667,-515.408 L 331,-515.593 L 331.336,-515.744
 L 331.686,-515.945 L 332.092,-516.166 L 332.575,-516.501 L 332.98,-516.721 L 333.331,-516.923 L 333.666,-517.074
 L 334,-517.259 L 334.333,-517.408 L 334.667,-517.592 L 335,-517.741 L 335.333,-517.926 L 335.667,-518.074
 L 336,-518.259 L 336.333,-518.408 L 336.667,-518.592 L 337,-518.741 L 337.333,-518.926 L 337.667,-519.074
 L 338,-519.259 L 338.333,-519.408 L 338.667,-519.593 L 339.003,-519.744 L 339.353,-519.945 L 339.758,-520.166
 L 340.242,-520.501 L 340.647,-520.721 L 340.997,-520.923 L 341.333,-521.074 L 341.667,-521.259 L 342,-521.408
 L 342.333,-521.592 L 342.667,-521.741 L 343,-521.926 L 343.333,-522.074 L 343.667,-522.259 L 344,-522.408
 L 344.333,-522.592 L 344.667,-522.741 L 345,-522.926 L 345.333,-523.074 L 345.667,-523.259 L 346,-523.408
 L 346.333,-523.592 L 346.667,-523.741 L 347,-523.926 L 347.334,-524.074 L 347.669,-524.259 L 348.02,-524.408
 L 348.425,-524.592 L 348.908,-524.741 L 349.314,-524.926 L 349.664,-525.074 L 350,-525.259 L 350.333,-525.408
 L 350.667,-525.592 L 351,-525.741 L 351.333,-525.926 L 351.667,-526.074 L 352,-526.259 L 352.333,-526.408
 L 352.667,-526.592 L 353,-526.741 L 353.333,-526.926 L 353.667,-527.074 L 354,-527.259 L 354.333,-527.408
 L 354.667,-527.592 L 355,-527.741 L 355.333,-527.926 L 355.667,-528.074 L 356,-528.259 L 356.334,-528.408
 L 356.669,-528.592 L 357.02,-528.741 L 357.425,-528.926 L 357.908,-529.074 L 358.314,-529.259 L 358.664,-529.408
 L 359,-529.592 L 359.333,-529.741 L 359.667,-529.926 L 360,-530.074 L 360.333,-530.259 L 360.667,-530.408
 L 361,-530.592 L 361.334,-530.741 L 361.669,-530.926 L 362.02,-531.074 L 362.425,-531.259 L 362.908,-531.408
 L 363.314,-531.592 L 363.664,-531.741 L 364,-531.926 L 364.333,-532.074 L 364.667,-532.259 L 365,-532.408
 L 365.333,-532.592 L 365.667,-532.741 L 366.003,-532.926 L 366.353,-533.074 L 366.758,-533.259 L 367.242,-533.408
 L 367.647,-533.592 L 367.997,-533.741 L 368.333,-533.926 L 368.667,-534.074 L 369,-534.259 L 369.334,-534.408
 L 369.669,-534.592 L 370.02,-534.741 L 370.425,-534.926 L 370.908,-535.074 L 371.314,-535.259 L 371.664,-535.408
 L 372.002,-535.592 L 372.353,-535.741 L 372.758,-535.926 L 373.242,-536.074 L 373.647,-536.259 L 373.998,-536.408
 L 374.336,-536.592 L 374.686,-536.741 L 375.092,-536.926 L 375.575,-537.074 L 375.98,-537.259 L 376.331,-537.408
 L 376.669,-537.592 L 377.02,-537.741 L 377.425,-537.926 L 377.908,-538.074 L 378.314,-538.259 L 378.664,-538.408
 L 379.002,-538.592 L 379.353,-538.741 L 379.758,-538.926 L 380.242,-539.074 L 380.65,-539.259 L 381.017,-539.408
 L 381.425,-539.592 L 381.909,-539.741 L 382.316,-539.926 L 382.684,-540.074 L 383.091,-540.259 L 383.575,-540.408
 L 383.98,-540.592 L 384.331,-540.741 L 384.669,-540.926 L 385.02,-541.074 L 385.425,-541.259 L 385.909,-541.408
 L 386.316,-541.592 L 386.684,-541.741 L 387.091,-541.926 L 387.575,-542.074 L 387.983,-542.259 L 388.35,-542.408
 L 388.758,-542.592 L 389.242,-542.741 L 389.65,-542.926 L 390.017,-543.074 L 390.425,-543.259 L 390.909,-543.408
 L 391.316,-543.592 L 391.684,-543.741 L 392.091,-543.926 L 392.575,-544.074 L 392.983,-544.259 L 393.35,-544.408
 L 393.758,-544.592 L 394.242,-544.741 L 394.65,-544.926 L 395.017,-545.074 L 395.425,-545.259 L 395.909,-545.408
 L 396.316,-545.592 L 396.684,-545.741 L 397.091,-545.926 L 397.575,-546.074 L 397.983,-546.259 L 398.35,-546.408
 L 398.758,-546.592 L 399.242,-546.741 L 399.65,-546.926 L 400.017,-547.074 L 400.428,-547.259 L 400.928,-547.408
 L 401.405,-547.592 L 401.906,-547.741 L 402.316,-547.926 L 402.684,-548.074 L 403.091,-548.259 L 403.575,-548.408
 L 403.983,-548.592 L 404.351,-548.741 L 404.761,-548.926 L 405.261,-549.074 L 405.739,-549.259 L 406.239,-549.408
 L 406.649,-549.592 L 407.017,-549.741 L 407.428,-549.926 L 407.928,-550.074 L 408.408,-550.259 L 408.925,-550.408
 L 409.405,-550.592 L 409.906,-550.741 L 410.316,-550.926 L 410.684,-551.074 L 411.094,-551.259 L 411.595,-551.408
 L 412.075,-551.592 L 412.592,-551.741 L 413.072,-551.926 L 413.572,-552.074 L 413.983,-552.259 L 414.351,-552.408
 L 414.761,-552.592 L 415.262,-552.741 L 415.741,-552.926 L 416.259,-553.074 L 416.741,-553.259 L 417.259,-553.408
 L 417.741,-553.592 L 418.259,-553.741 L 418.741,-553.926 L 419.259,-554.074 L 419.741,-554.259 L 420.259,-554.408
 L 420.741,-554.592 L 421.259,-554.741 L 421.741,-554.926 L 422.259,-555.074 L 422.741,-555.259 L 423.259,-555.408
 L 423.741,-555.592 L 424.259,-555.741 L 424.741,-555.926 L 425.259,-556.074 L 425.741,-556.259 L 426.259,-556.408
 L 426.741,-556.592 L 427.259,-556.741 L 427.741,-556.926 L 428.259,-557.074 L 428.741,-557.259 L 429.259,-557.408
 L 429.741,-557.592 L 430.259,-557.741 L 430.741,-557.926 L 431.259,-558.074 L 431.744,-558.259 L 432.279,-558.408
 L 432.833,-558.592 L 433.501,-558.741 L 434.055,-558.926 L 434.59,-559.074 L 435.074,-559.259 L 435.592,-559.408
 L 436.074,-559.592 L 436.593,-559.741 L 437.077,-559.926 L 437.612,-560.074 L 438.166,-560.259 L 438.834,-560.408
 L 439.388,-560.592 L 439.923,-560.741 L 440.407,-560.926 L 440.926,-561.074 L 441.41,-561.259 L 441.945,-561.408
 L 442.499,-561.592 L 443.167,-561.741 L 443.721,-561.926 L 444.256,-562.074 L 444.744,-562.259 L 445.279,-562.408
 L 445.833,-562.592 L 446.501,-562.741 L 447.057,-562.926 L 447.609,-563.074 L 448.166,-563.259 L 448.834,-563.408
 L 449.388,-563.592 L 449.923,-563.741 L 450.41,-563.926 L 450.945,-564.074 L 451.499,-564.259 L 452.167,-564.408
 L 452.724,-564.592 L 453.276,-564.741 L 453.833,-564.926 L 454.501,-565.074 L 455.057,-565.259 L 455.61,-565.408
 L 456.169,-565.592 L 456.854,-565.741 L 457.48,-565.926 L 458.165,-566.074 L 458.724,-566.259 L 459.276,-566.408
 L 459.835,-566.592 L 460.521,-566.741 L 461.149,-566.926 L 461.851,-567.074 L 462.479,-567.259 L 463.165,-567.408
 L 463.724,-567.592 L 464.276,-567.741 L 464.835,-567.926 L 465.521,-568.074 L 466.149,-568.259 L 466.851,-568.408
 L 467.482,-568.592 L 468.185,-568.741 L 468.815,-568.926 L 469.518,-569.074 L 470.149,-569.259 L 470.851,-569.408
 L 471.482,-569.592 L 472.185,-569.741 L 472.815,-569.926 L 473.518,-570.074 L 474.149,-570.259 L 474.851,-570.408
 L 475.482,-570.592 L 476.185,-570.741 L 476.815,-570.926 L 477.518,-571.074 L 478.149,-571.259 L 478.851,-571.408
 L 479.482,-571.592 L 480.185,-571.741 L 480.818,-571.926 L 481.538,-572.074 L 482.24,-572.259 L 483.093,-572.408
 L 483.796,-572.592 L 484.515,-572.741 L 485.151,-572.926 L 485.871,-573.074 L 486.574,-573.259 L 487.426,-573.408
 L 488.132,-573.592 L 488.868,-573.741 L 489.574,-573.926 L 490.426,-574.074 L 491.132,-574.259 L 491.869,-574.408
 L 492.576,-574.592 L 493.446,-574.741 L 494.221,-574.926 L 495.09,-575.074 L 495.798,-575.259 L 496.535,-575.408
 L 497.243,-575.592 L 498.113,-575.741 L 498.89,-575.926 L 499.777,-576.074 L 500.554,-576.259 L 501.424,-576.408
 L 502.131,-576.592 L 502.869,-576.741 L 503.576,-576.926 L 504.446,-577.074 L 505.223,-577.259 L 506.11,-577.408
 L 506.89,-577.592 L 507.777,-577.741 L 508.557,-577.926 L 509.444,-578.074 L 510.226,-578.259 L 511.13,-578.408
 L 511.982,-578.592 L 513.018,-578.741 L 513.87,-578.926 L 514.774,-579.074 L 515.559,-579.259 L 516.464,-579.408
 L 517.318,-579.592 L 518.372,-579.741 L 519.298,-579.926 L 520.369,-580.074 L 521.298,-580.259 L 522.369,-580.408
 L 523.298,-580.592 L 524.369,-580.741 L 525.298,-580.926 L 526.369,-581.074 L 527.3,-581.259 L 528.389,-581.408
 L 529.389,-581.592 L 530.611,-581.741 L 531.614,-581.926 L 532.72,-582.074 L 533.722,-582.259 L 534.944,-582.408
 L 535.947,-582.592 L 537.053,-582.741 L 538.058,-582.926 L 539.297,-583.074 L 540.372,-583.259 L 541.628,-583.408
 L 542.705,-583.592 L 543.961,-583.741 L 545.039,-583.926 L 546.295,-584.074 L 547.372,-584.259 L 548.628,-584.408
 L 549.708,-584.592 L 550.981,-584.741 L 552.133,-584.926 L 553.556,-585.074 L 554.777,-585.259 L 556.201,-585.408
 L 557.355,-585.592 L 558.645,-585.741 L 559.799,-585.926 L 561.223,-586.074 L 562.447,-586.259 L 563.887,-586.408
 L 565.116,-586.592 L 566.573,-586.741 L 567.871,-586.926 L 569.462,-587.074 L 570.76,-587.259 L 572.218,-587.408
 L 573.446,-587.592 L 574.887,-587.741 L 576.11,-587.926 L 577.533,-588.074 L 578.68,-588.259 L 579.919,-588.408
 L 580.852,-588.592 L 581.791,-588.741 L 582.645,-588.926 L 583.665,-589.074 L 584.442,-589.259 L 585.179,-589.408
 L 585.812,-589.592 L 586.498,-589.741 L 587.054,-589.926 L 587.589,-590.074 L 588.071,-590.259 L 588.572,-590.408
 L 588.983,-590.592 L 589.35,-590.741 L 589.758,-590.926 L 590.242,-591.074 L 590.647,-591.259 L 591,-591.41
 L 591.353,-591.612 L 591.761,-591.836 L 592.263,-592.188 L 592.752,-592.493 L 593.335,-592.933 L 594.088,-593.536
 L 595.131,-594.579 L 595.731,-595.329 L 596.153,-595.898 L 596.387,-596.335 L 596.589,-596.783 L 596.735,-597.44
 L 596.885,-598.567 L 596.885,-600.433 L 596.736,-601.56 L 596.592,-602.214 L 596.406,-602.646 L 596.24,-603.016
 L 595.933,-603.469 L 595.261,-604.291 L 593.935,-605.617 L 593.044,-606.358 L 592.444,-606.815 L 592.022,-607.053
 L 591.669,-607.256 L 591.333,-607.407 L 590.997,-607.592 L 590.647,-607.741 L 590.239,-607.926 L 589.738,-608.074
 L 589.259,-608.259 L 588.741,-608.408 L 588.256,-608.592 L 587.721,-608.741 L 587.162,-608.926 L 586.459,-609.074
 L 585.751,-609.259 L 584.846,-609.408 L 583.915,-609.592 L 582.657,-609.741 L 581.408,-609.926 L 579.619,-610.074
 L 577.35,-610.258 L 573.319,-610.402 L 567.935,-610.552 L 559.147,-610.552 L 552.975,-610.402 L 547.125,-610.258
 L 543.323,-610.074 L 539.692,-609.926 L 537.033,-609.741 L 534.13,-609.592 L 532.004,-609.408 L 529.755,-609.259
 L 527.927,-609.074 L 525.764,-608.926 L 524.017,-608.741 L 522.006,-608.592 L 520.334,-608.408 L 518.356,-608.259
 L 516.761,-608.074 L 514.951,-607.926 L 513.497,-607.741 L 511.837,-607.592 L 510.391,-607.408 L 508.632,-607.259
 L 507.257,-607.074 L 505.765,-606.926 L 504.462,-606.741 L 502.872,-606.592 L 501.576,-606.408 L 500.136,-606.259
 L 498.982,-606.074 L 497.708,-605.926 L 496.628,-605.741 L 495.372,-605.592 L 494.295,-605.408 L 493.039,-605.259
 L 491.961,-605.074 L 490.706,-604.926 L 489.631,-604.741 L 488.392,-604.592 L 487.386,-604.408 L 486.28,-604.259
 L 485.278,-604.074 L 484.056,-603.926 L 483.058,-603.741 L 481.987,-603.592 L 481.128,-603.408 L 480.206,-603.259
 L 479.349,-603.074 L 478.295,-602.926 L 477.372,-602.741 L 476.317,-602.592 L 475.461,-602.408 L 474.539,-602.259
 L 473.685,-602.074 L 472.648,-601.926 L 471.797,-601.741 L 470.893,-601.592 L 470.11,-601.408 L 469.223,-601.259
 L 468.441,-601.074 L 467.537,-600.926 L 466.685,-600.741 L 465.648,-600.592 L 464.799,-600.408 L 463.912,-600.259
 L 463.202,-600.074 L 462.465,-599.926 L 461.757,-599.741 L 460.887,-599.592 L 460.11,-599.408 L 459.223,-599.259
 L 458.444,-599.074 L 457.557,-598.926 L 456.78,-598.741 L 455.91,-598.592 L 455.202,-598.408 L 454.465,-598.259
 L 453.76,-598.074 L 452.907,-597.926 L 452.202,-597.741 L 451.465,-597.592 L 450.76,-597.408 L 449.907,-597.259
 L 449.204,-597.074 L 448.485,-596.926 L 447.851,-596.741 L 447.149,-596.592 L 446.515,-596.408 L 445.796,-596.259
 L 445.093,-596.074 L 444.24,-595.926 L 443.538,-595.741 L 442.818,-595.592 L 442.185,-595.408 L 441.482,-595.259
 L 440.851,-595.074 L 440.149,-594.926 L 439.518,-594.741 L 438.815,-594.592 L 438.185,-594.408 L 437.482,-594.259
 L 436.851,-594.074 L 436.149,-593.926 L 435.521,-593.741 L 434.835,-593.592 L 434.276,-593.408 L 433.724,-593.259
 L 433.165,-593.074 L 432.479,-592.926 L 431.851,-592.741 L 431.149,-592.592 L 430.518,-592.408 L 429.816,-592.259
 L 429.187,-592.074 L 428.502,-591.926 L 427.943,-591.741 L 427.39,-591.592 L 426.831,-591.408 L 426.146,-591.259
 L 425.52,-591.074 L 424.835,-590.926 L 424.276,-590.741 L 423.724,-590.592 L 423.167,-590.408 L 422.499,-590.259
 L 421.943,-590.074 L 421.391,-589.926 L 420.834,-589.741 L 420.166,-589.592 L 419.612,-589.408 L 419.077,-589.259
 L 418.59,-589.074 L 418.055,-588.926 L 417.501,-588.741 L 416.833,-588.592 L 416.279,-588.408 L 415.744,-588.259
 L 415.256,-588.074 L 414.721,-587.926 L 414.167,-587.741 L 413.499,-587.592 L 412.945,-587.408 L 412.41,-587.259
 L 411.923,-587.074 L 411.388,-586.926 L 410.834,-586.741 L 410.166,-586.592 L 409.612,-586.408 L 409.077,-586.259
 L 408.593,-586.074 L 408.074,-585.926 L 407.592,-585.741 L 407.074,-585.592 L 406.59,-585.408 L 406.055,-585.259
 L 405.501,-585.074 L 404.833,-584.926 L 404.279,-584.741 L 403.744,-584.592 L 403.259,-584.408 L 402.741,-584.259
 L 402.259,-584.074 L 401.741,-583.926 L 401.256,-583.741 L 400.721,-583.592 L 400.167,-583.408 L 399.499,-583.259
 L 398.945,-583.074 L 398.41,-582.926 L 397.926,-582.741 L 397.408,-582.592 L 396.926,-582.408 L 396.408,-582.259
 L 395.926,-582.074 L 395.408,-581.926 L 394.926,-581.741 L 394.408,-581.592 L 393.926,-581.408 L 393.408,-581.259
 L 392.926,-581.074 L 392.408,-580.926 L 391.926,-580.741 L 391.408,-580.592 L 390.926,-580.408 L 390.408,-580.259
 L 389.926,-580.074 L 389.408,-579.926 L 388.928,-579.741 L 388.428,-579.592 L 388.017,-579.408 L 387.649,-579.259
 L 387.239,-579.074 L 386.738,-578.926 L 386.259,-578.741 L 385.741,-578.592 L 385.259,-578.408 L 384.741,-578.259
 L 384.262,-578.074 L 383.761,-577.926 L 383.351,-577.741 L 382.983,-577.592 L 382.572,-577.408 L 382.072,-577.259
 L 381.592,-577.074 L 381.075,-576.926 L 380.595,-576.741 L 380.094,-576.592 L 379.684,-576.408 L 379.316,-576.259
 L 378.906,-576.074 L 378.405,-575.926 L 377.928,-575.741 L 377.428,-575.592 L 377.017,-575.408 L 376.649,-575.259
 L 376.239,-575.074 L 375.739,-574.926 L 375.261,-574.741 L 374.761,-574.592 L 374.351,-574.408 L 373.983,-574.259
 L 373.572,-574.074 L 373.072,-573.926 L 372.595,-573.741 L 372.094,-573.592 L 371.684,-573.408 L 371.316,-573.259
 L 370.909,-573.074 L 370.425,-572.926 L 370.017,-572.741 L 369.65,-572.592 L 369.242,-572.408 L 368.758,-572.259
 L 368.35,-572.074 L 367.983,-571.926 L 367.575,-571.741 L 367.091,-571.592 L 366.684,-571.408 L 366.316,-571.259
 L 365.909,-571.074 L 365.425,-570.926 L 365.017,-570.741 L 364.65,-570.592 L 364.242,-570.408 L 363.758,-570.259
 L 363.35,-570.074 L 362.983,-569.926 L 362.575,-569.741 L 362.091,-569.592 L 361.684,-569.408 L 361.316,-569.259
 L 360.909,-569.074 L 360.425,-568.926 L 360.017,-568.741 L 359.65,-568.592 L 359.242,-568.408 L 358.758,-568.259
 L 358.35,-568.074 L 357.983,-567.926 L 357.575,-567.741 L 357.092,-567.592 L 356.686,-567.408 L 356.336,-567.259
 L 355.998,-567.074 L 355.647,-566.926 L 355.242,-566.741 L 354.758,-566.592 L 354.35,-566.408 L 353.983,-566.259
 L 353.575,-566.074 L 353.092,-565.926 L 352.686,-565.741 L 352.336,-565.592 L 351.998,-565.408 L 351.647,-565.259
 L 351.242,-565.074 L 350.758,-564.926 L 350.353,-564.741 L 350.002,-564.592 L 349.664,-564.408 L 349.314,-564.259
 L 348.908,-564.074 L 348.425,-563.926 L 348.017,-563.741 L 347.65,-563.592 L 347.242,-563.408 L 346.758,-563.259
 L 346.353,-563.074 L 346.003,-562.926 L 345.667,-562.741 L 345.333,-562.592 L 344.997,-562.408 L 344.647,-562.259
 L 344.242,-562.074 L 343.758,-561.926 L 343.353,-561.741 L 343.003,-561.592 L 342.667,-561.408 L 342.333,-561.259
 L 341.997,-561.074 L 341.647,-560.926 L 341.242,-560.741 L 340.758,-560.592 L 340.353,-560.408 L 340.003,-560.259
 L 339.667,-560.074 L 339.333,-559.926 L 339,-559.741 L 338.666,-559.592 L 338.331,-559.408 L 337.98,-559.259
 L 337.575,-559.074 L 337.092,-558.926 L 336.686,-558.741 L 336.336,-558.592 L 336,-558.408 L 335.667,-558.259
 L 335.333,-558.074 L 335,-557.926 L 334.667,-557.741 L 334.333,-557.592 L 334,-557.408 L 333.666,-557.259
 L 333.331,-557.074 L 332.98,-556.926 L 332.575,-556.741 L 332.092,-556.592 L 331.686,-556.408 L 331.336,-556.259
 L 331,-556.074 L 330.667,-555.926 L 330.333,-555.741 L 330,-555.592 L 329.667,-555.408 L 329.333,-555.259
 L 329,-555.074 L 328.667,-554.926 L 328.333,-554.741 L 328,-554.592 L 327.667,-554.408 L 327.333,-554.259
 L 327,-554.074 L 326.667,-553.926 L 326.333,-553.741 L 326,-553.592 L 325.667,-553.408 L 325.333,-553.259
 L 324.997,-553.074 L 324.647,-552.926 L 324.242,-552.741 L 323.758,-552.592 L 323.353,-552.408 L 323.003,-552.259
 L 322.667,-552.074 L 322.333,-551.926 L 322,-551.741 L 321.667,-551.592 L 321.333,-551.408 L 321,-551.259
 L 320.667,-551.074 L 320.333,-550.926 L 320,-550.741 L 319.667,-550.592 L 319.333,-550.408 L 319,-550.259
 L 318.667,-550.074 L 318.333,-549.926 L 318,-549.741 L 317.667,-549.592 L 317.333,-549.408 L 317,-549.259
 L 316.667,-549.074 L 316.333,-548.926 L 316,-548.741 L 315.667,-548.592 L 315.333,-548.408 L 315,-548.259
 L 314.667,-548.074 L 314.333,-547.926 L 314,-547.741 L 313.667,-547.592 L 313.333,-547.408 L 313,-547.259
 L 312.667,-547.074 L 312.333,-546.926 L 312,-546.741 L 311.667,-546.592 L 311.333,-546.408 L 311,-546.259
 L 310.666,-546.074 L 310.331,-545.923 L 309.98,-545.721 L 309.575,-545.501 L 309.092,-545.166 L 308.686,-544.945
 L 308.336,-544.744 L 308,-544.593 L 307.667,-544.408 L 307.333,-544.259 L 307,-544.074 L 306.667,-543.926
 L 306.333,-543.741 L 306,-543.592 L 305.666,-543.407 L 305.331,-543.256 L 304.98,-543.055 L 304.575,-542.834
 L 304.092,-542.499 L 303.686,-542.279 L 303.336,-542.077 L 303,-541.926 L 302.667,-541.741 L 302.333,-541.592
 L 302,-541.407 L 301.664,-541.256 L 301.314,-541.055 L 300.908,-540.834 L 300.425,-540.499 L 300.02,-540.279
 L 299.669,-540.077 L 299.334,-539.926 L 299,-539.741 L 298.667,-539.592 L 298.333,-539.407 L 297.997,-539.256
 L 297.647,-539.055 L 297.242,-538.834 L 296.758,-538.499 L 296.353,-538.279 L 296.003,-538.077 L 295.667,-537.926
 L 295.333,-537.741 L 294.997,-537.59 L 294.647,-537.388 L 294.242,-537.167 L 293.758,-536.833 L 293.353,-536.612
 L 293.003,-536.41 L 292.667,-536.259 L 292.333,-536.074 L 291.997,-535.923 L 291.647,-535.721 L 291.242,-535.501
 L 290.758,-535.166 L 290.353,-534.945 L 290.002,-534.744 L 289.664,-534.59 L 289.314,-534.388 L 288.908,-534.167
 L 288.425,-533.833 L 288.02,-533.612 L 287.669,-533.41 L 287.331,-533.256 L 286.98,-533.055 L 286.575,-532.834
 L 286.092,-532.499 L 285.686,-532.279 L 285.336,-532.077 L 284.998,-531.923 L 284.647,-531.721 L 284.242,-531.501
 L 283.758,-531.166 L 283.353,-530.945 L 283.002,-530.744 L 282.664,-530.59 L 282.314,-530.388 L 281.908,-530.167
 L 281.425,-529.833 L 281.017,-529.609 L 280.65,-529.391 L 280.242,-529.167 L 279.758,-528.833 L 279.35,-528.609
 L 278.983,-528.391 L 278.575,-528.167 L 278.091,-527.833 L 277.684,-527.609 L 277.316,-527.391 L 276.909,-527.167
 L 276.425,-526.833 L 276.017,-526.609 L 275.649,-526.39 L 275.239,-526.165 L 274.739,-525.813 L 274.261,-525.52
 L 273.761,-525.169 L 273.351,-524.943 L 272.983,-524.724 L 272.572,-524.498 L 272.072,-524.146 L 271.595,-523.854
 L 271.094,-523.502 L 270.684,-523.276 L 270.316,-523.057 L 269.906,-522.831 L 269.405,-522.48 L 268.928,-522.187
 L 268.428,-521.835 L 268.017,-521.61 L 267.649,-521.39 L 267.239,-521.165 L 266.739,-520.813 L 266.261,-520.52
 L 265.761,-520.169 L 265.351,-519.943 L 264.983,-519.724 L 264.572,-519.498 L 264.072,-519.146 L 263.592,-518.851
 L 263.074,-518.482 L 262.592,-518.185 L 262.075,-517.816 L 261.595,-517.521 L 261.094,-517.169 L 260.684,-516.943
 L 260.316,-516.724 L 259.906,-516.498 L 259.405,-516.146 L 258.925,-515.851 L 258.408,-515.482 L 257.926,-515.185
 L 257.408,-514.815 L 256.926,-514.518 L 256.408,-514.149 L 255.926,-513.851 L 255.408,-513.482 L 254.926,-513.185
 L 254.408,-512.815 L 253.926,-512.518 L 253.408,-512.149 L 252.926,-511.851 L 252.408,-511.482 L 251.926,-511.185
 L 251.408,-510.815 L 250.926,-510.518 L 250.408,-510.149 L 249.926,-509.851 L 249.408,-509.482 L 248.926,-509.185
 L 248.408,-508.815 L 247.926,-508.518 L 247.408,-508.149 L 246.926,-507.851 L 246.408,-507.482 L 245.926,-507.185
 L 245.408,-506.815 L 244.926,-506.518 L 244.407,-506.149 L 243.923,-505.848 L 243.388,-505.462 L 242.834,-505.093
 L 242.166,-504.574 L 241.612,-504.204 L 241.077,-503.818 L 240.59,-503.515 L 240.055,-503.129 L 239.501,-502.76
 L 238.833,-502.24 L 238.276,-501.868 L 237.724,-501.465 L 237.167,-501.093 L 236.499,-500.574 L 235.943,-500.202
 L 235.39,-499.798 L 234.831,-499.424 L 234.146,-498.887 L 233.518,-498.443 L 232.815,-497.89 L 232.185,-497.443
 L 231.482,-496.89 L 230.851,-496.443 L 230.149,-495.89 L 229.518,-495.443 L 228.815,-494.89 L 228.185,-494.443
 L 227.482,-493.89 L 226.851,-493.443 L 226.149,-492.89 L 225.518,-492.443 L 224.815,-491.89 L 224.182,-491.441
 L 223.462,-490.87 L 222.76,-490.352 L 221.907,-489.648 L 221.202,-489.127 L 220.465,-488.539 L 219.76,-488.019
 L 218.907,-487.315 L 218.202,-486.794 L 217.465,-486.206 L 216.757,-485.683 L 215.887,-484.961 L 215.11,-484.369
 L 214.223,-483.631 L 213.443,-483.036 L 212.556,-482.298 L 211.777,-481.702 L 210.89,-480.964 L 210.107,-480.366
 L 209.203,-479.611 L 208.352,-478.944 L 207.315,-478.056 L 206.461,-477.386 L 205.539,-476.614 L 204.683,-475.942
 L 203.628,-475.036 L 202.702,-474.294 L 201.631,-473.372 L 200.7,-472.625 L 199.611,-471.685 L 198.608,-470.867
 L 197.369,-469.777 L 196.294,-468.887 L 195.038,-467.779 L 193.956,-466.882 L 192.665,-465.74 L 191.439,-464.698
 L 189.848,-463.256 L 188.473,-462.066 L 186.814,-460.555 L 185.288,-459.213 L 183.31,-457.384 L 181.561,-455.82
 L 179.347,-453.754 L 177.294,-451.887 L 174.536,-449.277 L 171.89,-446.815 L 167.876,-442.944 L 162.442,-437.661
 L 153.582,-428.801 L 148.021,-423.09 L 143.552,-418.477 L 140.805,-415.546 L 138.144,-412.737 L 136.341,-410.749
 L 134.442,-408.701 L 133.024,-407.098 L 131.379,-405.305 L 130.186,-403.927 L 128.86,-402.452 L 127.816,-401.224
 L 126.541,-399.8 L 125.574,-398.648 L 124.449,-397.375 L 123.557,-396.298 L 122.466,-395.058 L 121.645,-394.053
 L 120.688,-392.947 L 119.87,-391.944 L 118.797,-390.723 L 117.981,-389.722 L 117.042,-388.634 L 116.298,-387.705
 L 115.392,-386.651 L 114.72,-385.794 L 113.947,-384.873 L 113.278,-384.019 L 112.389,-382.982 L 111.722,-382.13
 L 110.967,-381.226 L 110.369,-380.444 L 109.631,-379.557 L 109.036,-378.777 L 108.298,-377.89 L 107.702,-377.11
 L 106.964,-376.223 L 106.372,-375.446 L 105.651,-374.576 L 105.128,-373.869 L 104.539,-373.132 L 104.019,-372.426
 L 103.315,-371.574 L 102.794,-370.868 L 102.206,-370.132 L 101.685,-369.426 L 100.982,-368.574 L 100.463,-367.871
 L 99.8925,-367.151 L 99.4438,-366.518 L 98.8898,-365.815 L 98.4435,-365.185 L 97.8898,-364.482 L 97.4435,-363.851
 L 96.8901,-363.149 L 96.4462,-362.521 L 95.9096,-361.835 L 95.5352,-361.276 L 95.1314,-360.724 L 94.757,-360.165
 L 94.2207,-359.48 L 93.7793,-358.854 L 93.2429,-358.169 L 92.8686,-357.61 L 92.465,-357.057 L 92.0931,-356.501
 L 91.5738,-355.833 L 91.2043,-355.279 L 90.8179,-354.744 L 90.5154,-354.256 L 90.129,-353.721 L 89.7595,-353.167
 L 89.2405,-352.499 L 88.871,-351.945 L 88.4846,-351.41 L 88.1821,-350.923 L 87.7956,-350.388 L 87.4262,-349.834
 L 86.9071,-349.166 L 86.5377,-348.612 L 86.1515,-348.077 L 85.8515,-347.593 L 85.4821,-347.074 L 85.1845,-346.592
 L 84.8152,-346.074 L 84.5152,-345.59 L 84.129,-345.055 L 83.7595,-344.501 L 83.2405,-343.833 L 82.871,-343.279
 L 82.4848,-342.744 L 82.1848,-342.259 L 81.8154,-341.741 L 81.5179,-341.259 L 81.1488,-340.741 L 80.8512,-340.259
 L 80.4821,-339.741 L 80.1846,-339.259 L 79.8154,-338.741 L 79.5179,-338.259 L 79.1488,-337.741 L 78.8512,-337.259
 L 78.4821,-336.741 L 78.1846,-336.259 L 77.8157,-335.741 L 77.5206,-335.262 L 77.1686,-334.761 L 76.9429,-334.351
 L 76.7237,-333.983 L 76.4981,-333.572 L 76.146,-333.072 L 75.851,-332.592 L 75.4821,-332.074 L 75.1846,-331.592
 L 74.8154,-331.074 L 74.5179,-330.592 L 74.1488,-330.074 L 73.8512,-329.592 L 73.4823,-329.075 L 73.1873,-328.595
 L 72.8352,-328.094 L 72.6096,-327.684 L 72.3904,-327.316 L 72.1647,-326.906 L 71.8127,-326.405 L 71.5177,-325.925
 L 71.149,-325.408 L 70.8539,-324.928 L 70.5019,-324.428 L 70.2763,-324.017 L 70.0571,-323.649 L 69.8314,-323.239
 L 69.4796,-322.739 L 69.187,-322.261 L 68.8352,-321.761 L 68.6096,-321.351 L 68.3904,-320.983 L 68.1648,-320.572
 L 67.813,-320.072 L 67.5204,-319.595 L 67.1685,-319.094 L 66.9429,-318.684 L 66.724,-318.316 L 66.5008,-317.909
 L 66.1658,-317.425 L 65.9427,-317.017 L 65.724,-316.65 L 65.5008,-316.242 L 65.1658,-315.758 L 64.9427,-315.35
 L 64.724,-314.983 L 64.5008,-314.575 L 64.1658,-314.091 L 63.9427,-313.684 L 63.724,-313.316 L 63.5008,-312.909
 L 63.1661,-312.425 L 62.9454,-312.02 L 62.7435,-311.669 L 62.5898,-311.331 L 62.3879,-310.98 L 62.1672,-310.575
 L 61.8325,-310.091 L 61.6094,-309.684 L 61.3906,-309.316 L 61.1675,-308.909 L 60.8328,-308.425 L 60.6121,-308.02
 L 60.4102,-307.669 L 60.2565,-307.331 L 60.0546,-306.98 L 59.8339,-306.575 L 59.4992,-306.091 L 59.276,-305.684
 L 59.0573,-305.316 L 58.8342,-304.909 L 58.4994,-304.425 L 58.2787,-304.02 L 58.0768,-303.669 L 57.9231,-303.331
 L 57.7213,-302.98 L 57.5006,-302.575 L 57.1661,-302.092 L 56.9454,-301.686 L 56.7435,-301.336 L 56.5898,-300.998
 L 56.3879,-300.647 L 56.1672,-300.242 L 55.8327,-299.758 L 55.6121,-299.353 L 55.4102,-299.002 L 55.2565,-298.664
 L 55.0546,-298.314 L 54.8339,-297.908 L 54.4994,-297.425 L 54.2787,-297.02 L 54.0771,-296.669 L 53.9258,-296.334
 L 53.7408,-296 L 53.5896,-295.664 L 53.3879,-295.314 L 53.1672,-294.908 L 52.8327,-294.425 L 52.6121,-294.02
 L 52.4104,-293.669 L 52.2592,-293.334 L 52.0741,-293 L 51.9229,-292.664 L 51.7212,-292.314 L 51.5006,-291.908
 L 51.1661,-291.425 L 50.9454,-291.02 L 50.7438,-290.669 L 50.5925,-290.334 L 50.4077,-290 L 50.2589,-289.667
 L 50.0741,-289.333 L 49.9229,-288.997 L 49.7212,-288.647 L 49.5006,-288.242 L 49.1661,-287.758 L 48.9454,-287.353
 L 48.7438,-287.003 L 48.5925,-286.667 L 48.4077,-286.333 L 48.2589,-286 L 48.0744,-285.667 L 47.9256,-285.333
 L 47.741,-285 L 47.5923,-284.667 L 47.4077,-284.333 L 47.2589,-284 L 47.0744,-283.667 L 46.9256,-283.333
 L 46.741,-283 L 46.5923,-282.667 L 46.4077,-282.333 L 46.2589,-282 L 46.0744,-281.667 L 45.9256,-281.333
 L 45.7408,-281 L 45.5896,-280.664 L 45.3879,-280.314 L 45.1672,-279.908 L 44.8327,-279.425 L 44.6121,-279.02
 L 44.4104,-278.669 L 44.2592,-278.334 L 44.0744,-278 L 43.9256,-277.667 L 43.741,-277.333 L 43.5923,-277
 L 43.4077,-276.667 L 43.2589,-276.333 L 43.0744,-276 L 42.9256,-275.667 L 42.741,-275.333 L 42.5923,-275
 L 42.4077,-274.667 L 42.2589,-274.333 L 42.0744,-274 L 41.9256,-273.667 L 41.741,-273.333 L 41.5923,-273
 L 41.4077,-272.667 L 41.2589,-272.333 L 41.0744,-272 L 40.9256,-271.667 L 40.741,-271.333 L 40.5923,-271
 L 40.4077,-270.667 L 40.2589,-270.333 L 40.0744,-270 L 39.9256,-269.667 L 39.741,-269.333 L 39.5923,-269
 L 39.4077,-268.667 L 39.2589,-268.333 L 39.0744,-268 L 38.9256,-267.667 L 38.741,-267.333 L 38.5923,-267
 L 38.4077,-266.667 L 38.2589,-266.333 L 38.0744,-266 L 37.9256,-265.667 L 37.741,-265.333 L 37.5923,-265
 L 37.4077,-264.667 L 37.2589,-264.333 L 37.0744,-264 L 36.9256,-263.666 L 36.741,-263.331 L 36.5923,-262.98
 L 36.4077,-262.575 L 36.2589,-262.092 L 36.0744,-261.686 L 35.9256,-261.336 L 35.741,-261 L 35.5923,-260.667
 L 35.4077,-260.333 L 35.2589,-260 L 35.0744,-259.667 L 34.9256,-259.333 L 34.741,-259 L 34.5923,-258.667
 L 34.4077,-258.333 L 34.2589,-258 L 34.0744,-257.664 L 33.9256,-257.314 L 33.741,-256.908 L 33.5923,-256.425
 L 33.4077,-256.02 L 33.2589,-255.669 L 33.0744,-255.334 L 32.9256,-255 L 32.741,-254.667 L 32.5923,-254.333
 L 32.4077,-253.997 L 32.2589,-253.647 L 32.0744,-253.242 L 31.9256,-252.758 L 31.741,-252.353 L 31.5923,-252.003
 L 31.4077,-251.667 L 31.2589,-251.333 L 31.0744,-250.997 L 30.9256,-250.647 L 30.741,-250.242 L 30.5923,-249.758
 L 30.4077,-249.353 L 30.2589,-249.003 L 30.0744,-248.667 L 29.9256,-248.333 L 29.741,-247.997 L 29.5923,-247.647
 L 29.4077,-247.242 L 29.2589,-246.758 L 29.0744,-246.353 L 28.9256,-246.003 L 28.741,-245.667 L 28.5923,-245.333
 L 28.4077,-244.997 L 28.2589,-244.647 L 28.0744,-244.242 L 27.9256,-243.758 L 27.741,-243.353 L 27.5923,-243.002
 L 27.4077,-242.664 L 27.2589,-242.314 L 27.0744,-241.908 L 26.9256,-241.425 L 26.741,-241.02 L 26.5923,-240.669
 L 26.4077,-240.331 L 26.2589,-239.98 L 26.0744,-239.575 L 25.9256,-239.092 L 25.741,-238.686 L 25.5923,-238.336
 L 25.4077,-237.998 L 25.2589,-237.647 L 25.0744,-237.242 L 24.9256,-236.758 L 24.741,-236.353 L 24.5923,-236.002
 L 24.4077,-235.664 L 24.2589,-235.314 L 24.0744,-234.908 L 23.9256,-234.425 L 23.741,-234.02 L 23.5923,-233.669
 L 23.4077,-233.331 L 23.2589,-232.98 L 23.0744,-232.575 L 22.9256,-232.091 L 22.741,-231.684 L 22.5923,-231.316
 L 22.4077,-230.909 L 22.2589,-230.425 L 22.0744,-230.017 L 21.9256,-229.65 L 21.741,-229.242 L 21.5923,-228.758
 L 21.4077,-228.35 L 21.2589,-227.983 L 21.0744,-227.575 L 20.9256,-227.092 L 20.741,-226.686 L 20.5923,-226.336
 L 20.4077,-225.998 L 20.2589,-225.647 L 20.0744,-225.242 L 19.9256,-224.758 L 19.741,-224.35 L 19.5923,-223.983
 L 19.4077,-223.572 L 19.2589,-223.072 L 19.0744,-222.595 L 18.9256,-222.094 L 18.741,-221.684 L 18.5923,-221.316
 L 18.4077,-220.909 L 18.2589,-220.425 L 18.0744,-220.017 L 17.9256,-219.65 L 17.741,-219.242 L 17.5923,-218.758
 L 17.4077,-218.35 L 17.2589,-217.983 L 17.0744,-217.572 L 16.9256,-217.072 L 16.741,-216.595 L 16.5923,-216.094
 L 16.4077,-215.684 L 16.2589,-215.316 L 16.0744,-214.909 L 15.9256,-214.425 L 15.741,-214.017 L 15.5923,-213.649
 L 15.4077,-213.239 L 15.2589,-212.738 L 15.0744,-212.259 L 14.9256,-211.741 L 14.741,-211.262 L 14.5923,-210.761
 L 14.4077,-210.351 L 14.2589,-209.983 L 14.0744,-209.572 L 13.9256,-209.072 L 13.741,-208.592 L 13.5923,-208.075
 L 13.4077,-207.595 L 13.2589,-207.094 L 13.0744,-206.684 L 12.9256,-206.316 L 12.741,-205.906 L 12.5923,-205.405
 L 12.4077,-204.925 L 12.2589,-204.408 L 12.0744,-203.926 L 11.9256,-203.408 L 11.741,-202.926 L 11.5923,-202.408
 L 11.4077,-201.926 L 11.2589,-201.408 L 11.0744,-200.928 L 10.9256,-200.428 L 10.741,-200.017 L 10.5923,-199.649
 L 10.4077,-199.239 L 10.2589,-198.738 L 10.0744,-198.259 L 9.92561,-197.741 L 9.74104,-197.259 L 9.59227,-196.741
 L 9.40771,-196.259 L 9.25894,-195.741 L 9.07437,-195.259 L 8.92561,-194.741 L 8.74104,-194.259 L 8.59227,-193.741
 L 8.40771,-193.259 L 8.25894,-192.741 L 8.07437,-192.259 L 7.92561,-191.741 L 7.74104,-191.259 L 7.59227,-190.741
 L 7.40771,-190.259 L 7.25894,-189.741 L 7.07437,-189.259 L 6.92561,-188.741 L 6.74104,-188.259 L 6.59227,-187.741
 L 6.40771,-187.259 L 6.25894,-186.741 L 6.07437,-186.259 L 5.92561,-185.741 L 5.74104,-185.259 L 5.59227,-184.741
 L 5.40771,-184.256 L 5.25894,-183.721 L 5.07437,-183.167 L 4.92561,-182.499 L 4.74104,-181.945 L 4.59227,-181.41
 L 4.40771,-180.926 L 4.25894,-180.408 L 4.07437,-179.926 L 3.92561,-179.407 L 3.74104,-178.923 L 3.59227,-178.388
 L 3.40771,-177.834 L 3.25894,-177.166 L 3.07437,-176.612 L 2.92561,-176.077 L 2.74104,-175.593 L 2.59227,-175.074
 L 2.40771,-174.59 L 2.25894,-174.055 L 2.07437,-173.501 L 1.92561,-172.833 L 1.74104,-172.276 L 1.59227,-171.724
 L 1.40771,-171.167 L 1.25894,-170.499 L 1.07437,-169.943 L 0.925613,-169.391 L 0.741043,-168.834 L 0.59227,-168.166
 L 0.407715,-167.609 L 0.258942,-167.057 L 0.0743713,-166.501 L 0,-166.167 L 0,-130 L -12,-130
 L -12,-110 L -5,-110 L -5,-120 L 0,-120 L 0,-90 L -12,-90
 L -12,-70 L -5,-70 L -5,-80 L 0,-80 L 0,-50 L -12,-50
 L -12,-30 L -5,-30 L -5,-40 L 0,-40 L 0,-10 L -12,-10
 L -12,10 L -5,10 L -5,-0 L 0,-0 L 0,15.2188 L 1.20995,15.2188
 z
M 453.722,-577.043 L 453.236,-577.115 L 452.76,-577.234 L 452.298,-577.399 L 451.855,-577.609 L 451.434,-577.861
 L 451.04,-578.154 L 450.676,-578.483 L 450.347,-578.847 L 450.055,-579.241 L 449.802,-579.662 L 449.592,-580.105
 L 449.427,-580.567 L 449.308,-581.043 L 449.236,-581.529 L 449.212,-582.019 L 449.236,-582.509 L 449.308,-582.994
 L 449.427,-583.47 L 449.592,-583.932 L 449.802,-584.376 L 450.055,-584.797 L 450.347,-585.191 L 450.676,-585.554
 L 451.04,-585.884 L 451.434,-586.176 L 451.855,-586.428 L 452.298,-586.638 L 452.76,-586.803 L 453.236,-586.923
 L 453.722,-586.995 L 454.212,-587.019 L 454.702,-586.995 L 455.187,-586.923 L 455.663,-586.803 L 456.125,-586.638
 L 456.569,-586.428 L 456.99,-586.176 L 457.384,-585.884 L 457.747,-585.554 L 458.077,-585.191 L 458.369,-584.797
 L 458.621,-584.376 L 458.831,-583.932 L 458.997,-583.47 L 459.116,-582.994 L 459.188,-582.509 L 459.212,-582.019
 L 459.188,-581.529 L 459.116,-581.043 L 458.997,-580.567 L 458.831,-580.105 L 458.621,-579.662 L 458.369,-579.241
 L 458.077,-578.847 L 457.747,-578.483 L 457.384,-578.154 L 456.99,-577.861 L 456.569,-577.609 L 456.125,-577.399
 L 455.663,-577.234 L 455.187,-577.115 L 454.702,-577.043 L 454.212,-577.019 z
M 266.168,-493.906 L 265.682,-493.978 L 265.206,-494.097 L 264.744,-494.262 L 264.301,-494.472 L 263.88,-494.724
 L 263.486,-495.017 L 263.122,-495.346 L 262.793,-495.71 L 262.501,-496.104 L 262.248,-496.525 L 262.038,-496.968
 L 261.873,-497.43 L 261.754,-497.906 L 261.682,-498.392 L 261.658,-498.882 L 261.682,-499.372 L 261.754,-499.857
 L 261.873,-500.333 L 262.038,-500.795 L 262.248,-501.239 L 262.501,-501.66 L 262.793,-502.054 L 263.122,-502.417
 L 263.486,-502.747 L 263.88,-503.039 L 264.301,-503.291 L 264.744,-503.501 L 265.206,-503.666 L 265.682,-503.786
 L 266.168,-503.858 L 266.658,-503.882 L 267.148,-503.858 L 267.633,-503.786 L 268.109,-503.666 L 268.571,-503.501
 L 269.015,-503.291 L 269.436,-503.039 L 269.83,-502.747 L 270.193,-502.417 L 270.523,-502.054 L 270.815,-501.66
 L 271.067,-501.239 L 271.277,-500.795 L 271.443,-500.333 L 271.562,-499.857 L 271.634,-499.372 L 271.658,-498.882
 L 271.634,-498.392 L 271.562,-497.906 L 271.443,-497.43 L 271.277,-496.968 L 271.067,-496.525 L 270.815,-496.104
 L 270.523,-495.71 L 270.193,-495.346 L 269.83,-495.017 L 269.436,-494.724 L 269.015,-494.472 L 268.571,-494.262
 L 268.109,-494.097 L 267.633,-493.978 L 267.148,-493.906 L 266.658,-493.882 z
M 100.628,-328.366 L 100.143,-328.438 L 99.6668,-328.557 L 99.2048,-328.723 L 98.7612,-328.933 L 98.3404,-329.185
 L 97.9463,-329.477 L 97.5827,-329.807 L 97.2532,-330.17 L 96.9609,-330.564 L 96.7086,-330.985 L 96.4988,-331.429
 L 96.3335,-331.891 L 96.2143,-332.367 L 96.1423,-332.852 L 96.1182,-333.342 L 96.1423,-333.832 L 96.2143,-334.318
 L 96.3335,-334.794 L 96.4988,-335.256 L 96.7086,-335.699 L 96.9609,-336.12 L 97.2532,-336.514 L 97.5827,-336.878
 L 97.9463,-337.207 L 98.3404,-337.499 L 98.7612,-337.752 L 99.2048,-337.962 L 99.6668,-338.127 L 100.143,-338.246
 L 100.628,-338.318 L 101.118,-338.342 L 101.608,-338.318 L 102.094,-338.246 L 102.57,-338.127 L 103.032,-337.962
 L 103.475,-337.752 L 103.896,-337.499 L 104.29,-337.207 L 104.654,-336.878 L 104.983,-336.514 L 105.276,-336.12
 L 105.528,-335.699 L 105.738,-335.256 L 105.903,-334.794 L 106.022,-334.318 L 106.094,-333.832 L 106.118,-333.342
 L 106.094,-332.852 L 106.022,-332.367 L 105.903,-331.891 L 105.738,-331.429 L 105.528,-330.985 L 105.276,-330.564
 L 104.983,-330.17 L 104.654,-329.807 L 104.29,-329.477 L 103.896,-329.185 L 103.475,-328.933 L 103.032,-328.723
 L 102.57,-328.557 L 102.094,-328.438 L 101.608,-328.366 L 101.118,-328.342 z
M 17.4911,-140.812 L 17.0058,-140.884 L 16.5298,-141.003 L 16.0678,-141.169 L 15.6243,-141.378 L 15.2034,-141.631
 L 14.8093,-141.923 L 14.4457,-142.253 L 14.1162,-142.616 L 13.8239,-143.01 L 13.5716,-143.431 L 13.3618,-143.875
 L 13.1965,-144.337 L 13.0773,-144.813 L 13.0053,-145.298 L 12.9812,-145.788 L 13.0053,-146.278 L 13.0773,-146.764
 L 13.1965,-147.24 L 13.3618,-147.702 L 13.5716,-148.145 L 13.8239,-148.566 L 14.1162,-148.96 L 14.4457,-149.324
 L 14.8093,-149.653 L 15.2034,-149.945 L 15.6243,-150.198 L 16.0678,-150.408 L 16.5298,-150.573 L 17.0058,-150.692
 L 17.4911,-150.764 L 17.9812,-150.788 L 18.4713,-150.764 L 18.9567,-150.692 L 19.4327,-150.573 L 19.8947,-150.408
 L 20.3382,-150.198 L 20.7591,-149.945 L 21.1532,-149.653 L 21.5168,-149.324 L 21.8463,-148.96 L 22.1386,-148.566
 L 22.3909,-148.145 L 22.6006,-147.702 L 22.7659,-147.24 L 22.8852,-146.764 L 22.9572,-146.278 L 22.9812,-145.788
 L 22.9572,-145.298 L 22.8852,-144.813 L 22.7659,-144.337 L 22.6006,-143.875 L 22.3909,-143.431 L 22.1386,-143.01
 L 21.8463,-142.616 L 21.5168,-142.253 L 21.1532,-141.923 L 20.7591,-141.631 L 20.3382,-141.378 L 19.8947,-141.169
 L 19.4327,-141.003 L 18.9567,-140.884 L 18.4713,-140.812 L 17.9812,-140.788 z
" stroke="black" fill="lightgray" stroke-width="0.5"/>
</svg>
