  0
SECTION
  2
HEADER
  9
$ACADVER
  1
AC1024
  9
$ACADMAINTVER
 70
6
  9
$DWGCODEPAGE
  3
ANSI_1252
  9
$LASTSAVEDBY
  1
ezdxf
  9
$INSBASE
 10
0.0
 20
0.0
 30
0.0
  9
$EXTMIN
 10
1e+20
 20
1e+20
 30
1e+20
  9
$EXTMAX
 10
-1e+20
 20
-1e+20
 30
-1e+20
  9
$LIMMIN
 10
0.0
 20
0.0
  9
$LIMMAX
 10
420.0
 20
297.0
  9
$ORTHOMODE
 70
0
  9
$REGENMODE
 70
1
  9
$FILLMODE
 70
1
  9
$QTEXTMODE
 70
0
  9
$MIRRTEXT
 70
1
  9
$LTSCALE
 40
1.0
  9
$ATTMODE
 70
1
  9
$TEXTSIZE
 40
2.5
  9
$TRACEWID
 40
1.0
  9
$TEXTSTYLE
  7
Standard
  9
$CLAYER
  8
0
  9
$CELTYPE
  6
ByLayer
  9
$CECOLOR
 62
256
  9
$CELTSCALE
 40
1.0
  9
$DISPSILH
 70
0
  9
$DIMSCALE
 40
1.0
  9
$DIMASZ
 40
2.5
  9
$DIMEXO
 40
0.625
  9
$DIMDLI
 40
3.75
  9
$DIMRND
 40
0.0
  9
$DIMDLE
 40
0.0
  9
$DIMEXE
 40
1.25
  9
$DIMTP
 40
0.0
  9
$DIMTM
 40
0.0
  9
$DIMTXT
 40
2.5
  9
$DIMCEN
 40
2.5
  9
$DIMTSZ
 40
0.0
  9
$DIMTOL
 70
0
  9
$DIMLIM
 70
0
  9
$DIMTIH
 70
0
  9
$DIMTOH
 70
0
  9
$DIMSE1
 70
0
  9
$DIMSE2
 70
0
  9
$DIMTAD
 70
1
  9
$DIMZIN
 70
8
  9
$DIMBLK
  1

  9
$DIMASO
 70
1
  9
$DIMSHO
 70
1
  9
$DIMPOST
  1

  9
$DIMAPOST
  1

  9
$DIMALT
 70
0
  9
$DIMALTD
 70
3
  9
$DIMALTF
 40
0.03937007874
  9
$DIMLFAC
 40
1.0
  9
$DIMTOFL
 70
1
  9
$DIMTVP
 40
0.0
  9
$DIMTIX
 70
0
  9
$DIMSOXD
 70
0
  9
$DIMSAH
 70
0
  9
$DIMBLK1
  1

  9
$DIMBLK2
  1

  9
$DIMSTYLE
  2
ISO-25
  9
$DIMCLRD
 70
0
  9
$DIMCLRE
 70
0
  9
$DIMCLRT
 70
0
  9
$DIMTFAC
 40
1.0
  9
$DIMGAP
 40
0.625
  9
$DIMJUST
 70
0
  9
$DIMSD1
 70
0
  9
$DIMSD2
 70
0
  9
$DIMTOLJ
 70
0
  9
$DIMTZIN
 70
8
  9
$DIMALTZ
 70
0
  9
$DIMALTTZ
 70
0
  9
$DIMUPT
 70
0
  9
$DIMDEC
 70
2
  9
$DIMTDEC
 70
2
  9
$DIMALTU
 70
2
  9
$DIMALTTD
 70
3
  9
$DIMTXSTY
  7
Standard
  9
$DIMAUNIT
 70
0
  9
$DIMADEC
 70
0
  9
$DIMALTRND
 40
0.0
  9
$DIMAZIN
 70
0
  9
$DIMDSEP
 70
44
  9
$DIMATFIT
 70
3
  9
$DIMFRAC
 70
0
  9
$DIMLDRBLK
  1

  9
$DIMLUNIT
 70
2
  9
$DIMLWD
 70
-2
  9
$DIMLWE
 70
-2
  9
$DIMTMOVE
 70
0
  9
$DIMFXL
 40
1.0
  9
$DIMFXLON
 70
0
  9
$DIMJOGANG
 40
0.785398163397
  9
$DIMTFILL
 70
0
  9
$DIMTFILLCLR
 70
0
  9
$DIMARCSYM
 70
0
  9
$DIMLTYPE
  6

  9
$DIMLTEX1
  6

  9
$DIMLTEX2
  6

  9
$DIMTXTDIRECTION
 70
0
  9
$LUNITS
 70
2
  9
$LUPREC
 70
4
  9
$SKETCHINC
 40
1.0
  9
$FILLETRAD
 40
10.0
  9
$AUNITS
 70
0
  9
$AUPREC
 70
2
  9
$MENU
  1
.
  9
$ELEVATION
 40
0.0
  9
$PELEVATION
 40
0.0
  9
$THICKNESS
 40
0.0
  9
$LIMCHECK
 70
0
  9
$CHAMFERA
 40
0.0
  9
$CHAMFERB
 40
0.0
  9
$CHAMFERC
 40
0.0
  9
$CHAMFERD
 40
0.0
  9
$SKPOLY
 70
0
  9
$TDCREATE
 40
2460231.825787037
  9
$TDUCREATE
 40
2458532.153996898
  9
$TDUPDATE
 40
2460231.825787037
  9
$TDUUPDATE
 40
2458532.1544311
  9
$TDINDWG
 40
0.0
  9
$TDUSRTIMER
 40
0.0
  9
$USRTIMER
 70
1
  9
$ANGBASE
 50
0.0
  9
$ANGDIR
 70
0
  9
$PDMODE
 70
0
  9
$PDSIZE
 40
0.0
  9
$PLINEWID
 40
0.0
  9
$SPLFRAME
 70
0
  9
$SPLINETYPE
 70
6
  9
$SPLINESEGS
 70
8
  9
$HANDSEED
  5
55
  9
$SURFTAB1
 70
6
  9
$SURFTAB2
 70
6
  9
$SURFTYPE
 70
6
  9
$SURFU
 70
6
  9
$SURFV
 70
6
  9
$UCSBASE
  2

  9
$UCSNAME
  2

  9
$UCSORG
 10
0.0
 20
0.0
 30
0.0
  9
$UCSXDIR
 10
1.0
 20
0.0
 30
0.0
  9
$UCSYDIR
 10
0.0
 20
1.0
 30
0.0
  9
$UCSORTHOREF
  2

  9
$UCSORTHOVIEW
 70
0
  9
$UCSORGTOP
 10
0.0
 20
0.0
 30
0.0
  9
$UCSORGBOTTOM
 10
0.0
 20
0.0
 30
0.0
  9
$UCSORGLEFT
 10
0.0
 20
0.0
 30
0.0
  9
$UCSORGRIGHT
 10
0.0
 20
0.0
 30
0.0
  9
$UCSORGFRONT
 10
0.0
 20
0.0
 30
0.0
  9
$UCSORGBACK
 10
0.0
 20
0.0
 30
0.0
  9
$PUCSBASE
  2

  9
$PUCSNAME
  2

  9
$PUCSORG
 10
0.0
 20
0.0
 30
0.0
  9
$PUCSXDIR
 10
1.0
 20
0.0
 30
0.0
  9
$PUCSYDIR
 10
0.0
 20
1.0
 30
0.0
  9
$PUCSORTHOREF
  2

  9
$PUCSORTHOVIEW
 70
0
  9
$PUCSORGTOP
 10
0.0
 20
0.0
 30
0.0
  9
$PUCSORGBOTTOM
 10
0.0
 20
0.0
 30
0.0
  9
$PUCSORGLEFT
 10
0.0
 20
0.0
 30
0.0
  9
$PUCSORGRIGHT
 10
0.0
 20
0.0
 30
0.0
  9
$PUCSORGFRONT
 10
0.0
 20
0.0
 30
0.0
  9
$PUCSORGBACK
 10
0.0
 20
0.0
 30
0.0
  9
$USERI1
 70
0
  9
$USERI2
 70
0
  9
$USERI3
 70
0
  9
$USERI4
 70
0
  9
$USERI5
 70
0
  9
$USERR1
 40
0.0
  9
$USERR2
 40
0.0
  9
$USERR3
 40
0.0
  9
$USERR4
 40
0.0
  9
$USERR5
 40
0.0
  9
$WORLDVIEW
 70
1
  9
$SHADEDGE
 70
3
  9
$SHADEDIF
 70
70
  9
$TILEMODE
 70
1
  9
$MAXACTVP
 70
64
  9
$PINSBASE
 10
0.0
 20
0.0
 30
0.0
  9
$PLIMCHECK
 70
0
  9
$PEXTMIN
 10
1e+20
 20
1e+20
 30
1e+20
  9
$PEXTMAX
 10
-1e+20
 20
-1e+20
 30
-1e+20
  9
$PLIMMIN
 10
0.0
 20
0.0
  9
$PLIMMAX
 10
420.0
 20
297.0
  9
$UNITMODE
 70
0
  9
$VISRETAIN
 70
1
  9
$PLINEGEN
 70
0
  9
$PSLTSCALE
 70
1
  9
$TREEDEPTH
 70
3020
  9
$CMLSTYLE
  2
Standard
  9
$CMLJUST
 70
0
  9
$CMLSCALE
 40
20.0
  9
$PROXYGRAPHICS
 70
1
  9
$MEASUREMENT
 70
1
  9
$CELWEIGHT
370
-1
  9
$ENDCAPS
280
0
  9
$JOINSTYLE
280
0
  9
$LWDISPLAY
290
0
  9
$INSUNITS
 70
4
  9
$HYPERLINKBASE
  1

  9
$STYLESHEET
  1

  9
$XEDIT
290
1
  9
$CEPSNTYPE
380
0
  9
$PSTYLEMODE
290
1
  9
$FINGERPRINTGUID
  2
{B222F62C-BDEC-466A-84ED-AAB79915B287}
  9
$VERSIONGUID
  2
{E3AB57E0-5A1E-4C3E-9D48-4AAFE310499D}
  9
$EXTNAMES
290
1
  9
$PSVPSCALE
 40
0.0
  9
$OLESTARTUP
290
0
  9
$SORTENTS
280
127
  9
$INDEXCTL
280
0
  9
$HIDETEXT
280
1
  9
$XCLIPFRAME
280
0
  9
$HALOGAP
280
0
  9
$OBSCOLOR
 70
257
  9
$OBSLTYPE
280
0
  9
$INTERSECTIONDISPLAY
280
0
  9
$INTERSECTIONCOLOR
 70
257
  9
$DIMASSOC
280
2
  9
$PROJECTNAME
  1

  9
$CAMERADISPLAY
290
0
  9
$LENSLENGTH
 40
50.0
  9
$CAMERAHEIGHT
 40
0.0
  9
$STEPSPERSEC
 40
24.0
  9
$STEPSIZE
 40
100.0
  9
$3DDWFPREC
 40
2.0
  9
$PSOLWIDTH
 40
0.005
  9
$PSOLHEIGHT
 40
0.08
  9
$LOFTANG1
 40
1.570796326795
  9
$LOFTANG2
 40
1.570796326795
  9
$LOFTMAG1
 40
0.0
  9
$LOFTMAG2
 40
0.0
  9
$LOFTPARAM
 70
7
  9
$LOFTNORMALS
280
1
  9
$LATITUDE
 40
37.795
  9
$LONGITUDE
 40
-122.394
  9
$NORTHDIRECTION
 40
0.0
  9
$TIMEZONE
 70
-8000
  9
$LIGHTGLYPHDISPLAY
280
1
  9
$TILEMODELIGHTSYNCH
280
1
  9
$CMATERIAL
347
20
  9
$SOLIDHIST
280
0
  9
$SHOWHIST
280
1
  9
$DWFFRAME
280
2
  9
$DGNFRAME
280
2
  9
$REALWORLDSCALE
290
1
  9
$INTERFERECOLOR
 62
256
  9
$CSHADOW
280
0
  9
$SHADOWPLANELOCATION
 40
0.0
  0
ENDSEC
  0
SECTION
  2
CLASSES
  0
CLASS
  1
ACDBDICTIONARYWDFLT
  2
AcDbDictionaryWithDefault
  3
ObjectDBX Classes
 90
0
 91
0
280
0
281
0
  0
CLASS
  1
SUN
  2
AcDbSun
  3
SCENEOE
 90
1153
 91
0
280
0
281
0
  0
CLASS
  1
VISUALSTYLE
  2
AcDbVisualStyle
  3
ObjectDBX Classes
 90
4095
 91
0
280
0
281
0
  0
CLASS
  1
MATERIAL
  2
AcDbMaterial
  3
ObjectDBX Classes
 90
1153
 91
0
280
0
281
0
  0
CLASS
  1
SCALE
  2
AcDbScale
  3
ObjectDBX Classes
 90
1153
 91
0
280
0
281
0
  0
CLASS
  1
TABLESTYLE
  2
AcDbTableStyle
  3
ObjectDBX Classes
 90
4095
 91
0
280
0
281
0
  0
CLASS
  1
MLEADERSTYLE
  2
AcDbMLeaderStyle
  3
ACDB_MLEADERSTYLE_CLASS
 90
4095
 91
0
280
0
281
0
  0
CLASS
  1
DICTIONARYVAR
  2
AcDbDictionaryVar
  3
ObjectDBX Classes
 90
0
 91
0
280
0
281
0
  0
CLASS
  1
CELLSTYLEMAP
  2
AcDbCellStyleMap
  3
ObjectDBX Classes
 90
1152
 91
0
280
0
281
0
  0
CLASS
  1
MENTALRAYRENDERSETTINGS
  2
AcDbMentalRayRenderSettings
  3
SCENEOE
 90
1024
 91
0
280
0
281
0
  0
CLASS
  1
ACDBDETAILVIEWSTYLE
  2
AcDbDetailViewStyle
  3
ObjectDBX Classes
 90
1025
 91
0
280
0
281
0
  0
CLASS
  1
ACDBSECTIONVIEWSTYLE
  2
AcDbSectionViewStyle
  3
ObjectDBX Classes
 90
1025
 91
0
280
0
281
0
  0
CLASS
  1
RASTERVARIABLES
  2
AcDbRasterVariables
  3
ISM
 90
0
 91
0
280
0
281
0
  0
CLASS
  1
ACDBPLACEHOLDER
  2
AcDbPlaceHolder
  3
ObjectDBX Classes
 90
0
 91
0
280
0
281
0
  0
CLASS
  1
LAYOUT
  2
AcDbLayout
  3
ObjectDBX Classes
 90
0
 91
0
280
0
281
0
  0
ENDSEC
  0
SECTION
  2
TABLES
  0
TABLE
  2
VPORT
  5
8
330
0
100
AcDbSymbolTable
 70
1
  0
VPORT
  5
23
330
8
100
AcDbSymbolTableRecord
100
AcDbViewportTableRecord
  2
*Active
 70
0
 10
0.0
 20
0.0
 11
1.0
 21
1.0
 12
0.0
 22
0.0
 13
0.0
 23
0.0
 14
0.5
 24
0.5
 15
0.5
 25
0.5
 16
0.0
 26
0.0
 36
1.0
 17
0.0
 27
0.0
 37
0.0
 40
1000.0
 41
1.34
 42
50.0
 43
0.0
 44
0.0
 50
0.0
 51
0.0
 71
0
 72
1000
 73
1
 74
3
 75
0
 76
0
 77
0
 78
0
281
0
 65
0
146
0.0
  0
ENDTAB
  0
TABLE
  2
LTYPE
  5
2
330
0
100
AcDbSymbolTable
 70
3
  0
LTYPE
  5
24
330
2
100
AcDbSymbolTableRecord
100
AcDbLinetypeTableRecord
  2
ByBlock
 70
0
  3

 72
65
 73
0
 40
0.0
  0
LTYPE
  5
25
330
2
100
AcDbSymbolTableRecord
100
AcDbLinetypeTableRecord
  2
ByLayer
 70
0
  3

 72
65
 73
0
 40
0.0
  0
LTYPE
  5
26
330
2
100
AcDbSymbolTableRecord
100
AcDbLinetypeTableRecord
  2
Continuous
 70
0
  3

 72
65
 73
0
 40
0.0
  0
ENDTAB
  0
TABLE
  2
LAYER
  5
1
330
0
100
AcDbSymbolTable
 70
2
  0
LAYER
  5
27
330
1
100
AcDbSymbolTableRecord
100
AcDbLayerTableRecord
  2
0
 70
0
 62
7
  6
Continuous
370
-3
390
13
347
21
  0
LAYER
  5
28
330
1
100
AcDbSymbolTableRecord
100
AcDbLayerTableRecord
  2
Defpoints
 70
0
 62
7
  6
Continuous
290
0
370
-3
390
13
347
21
  0
ENDTAB
  0
TABLE
  2
STYLE
  5
5
330
0
100
AcDbSymbolTable
 70
1
  0
STYLE
  5
29
330
5
100
AcDbSymbolTableRecord
100
AcDbTextStyleTableRecord
  2
Standard
 70
0
 40
0.0
 41
1.0
 50
0.0
 71
0
 42
2.5
  3
txt
  4

  0
ENDTAB
  0
TABLE
  2
VIEW
  5
7
330
0
100
AcDbSymbolTable
 70
0
  0
ENDTAB
  0
TABLE
  2
UCS
  5
6
330
0
100
AcDbSymbolTable
 70
0
  0
ENDTAB
  0
TABLE
  2
APPID
  5
3
330
0
100
AcDbSymbolTable
 70
3
  0
APPID
  5
2A
330
3
100
AcDbSymbolTableRecord
100
AcDbRegAppTableRecord
  2
ACAD
 70
0
  0
APPID
  5
52
330
3
100
AcDbSymbolTableRecord
100
AcDbRegAppTableRecord
  2
HATCHBACKGROUNDCOLOR
 70
0
  0
APPID
  5
53
330
3
100
AcDbSymbolTableRecord
100
AcDbRegAppTableRecord
  2
EZDXF
 70
0
  0
ENDTAB
  0
TABLE
  2
DIMSTYLE
  5
4
330
0
100
AcDbSymbolTable
 70
1
100
AcDbDimStyleTable
  0
DIMSTYLE
105
2B
330
4
100
AcDbSymbolTableRecord
100
AcDbDimStyleTableRecord
  2
Standard
 70
0
 40
1.0
 41
2.5
 42
0.625
 43
3.75
 44
1.25
 45
0.0
 46
0.0
 47
0.0
 48
0.0
 49
2.5
140
2.5
141
2.5
142
0.0
143
0.03937007874
144
1.0
145
0.0
146
1.0
147
0.625
148
0.0
 69
0
 70
0
 71
0
 72
0
 73
0
 74
0
 75
0
 76
0
 77
1
 78
8
 79
3
170
0
171
3
172
1
173
0
174
0
175
0
176
0
177
0
178
0
179
2
271
2
272
2
273
2
274
3
275
0
276
0
277
2
278
44
279
0
280
0
281
0
282
0
283
0
284
8
285
0
286
0
288
0
289
3
290
0
371
-2
372
-2
  0
ENDTAB
  0
TABLE
  2
BLOCK_RECORD
  5
9
330
0
100
AcDbSymbolTable
 70
2
  0
BLOCK_RECORD
  5
17
330
9
100
AcDbSymbolTableRecord
100
AcDbBlockTableRecord
  2
*Model_Space
340
1A
 70
0
280
1
281
0
  0
BLOCK_RECORD
  5
1B
330
9
100
AcDbSymbolTableRecord
100
AcDbBlockTableRecord
  2
*Paper_Space
340
1E
 70
0
280
1
281
0
  0
ENDTAB
  0
ENDSEC
  0
SECTION
  2
BLOCKS
  0
BLOCK
  5
18
330
17
100
AcDbEntity
  8
0
100
AcDbBlockBegin
  2
*Model_Space
 70
0
 10
0.0
 20
0.0
 30
0.0
  3
*Model_Space
  1

  0
ENDBLK
  5
19
330
17
100
AcDbEntity
  8
0
100
AcDbBlockEnd
  0
BLOCK
  5
1C
330
1B
100
AcDbEntity
  8
0
100
AcDbBlockBegin
  2
*Paper_Space
 70
0
 10
0.0
 20
0.0
 30
0.0
  3
*Paper_Space
  1

  0
ENDBLK
  5
1D
330
1B
100
AcDbEntity
  8
0
100
AcDbBlockEnd
  0
ENDSEC
  0
SECTION
  2
ENTITIES
  0
LWPOLYLINE
  5
2F
330
17
100
AcDbEntity
  8
default
100
AcDbPolyline
 90
706
 70
0
 10
12.258947848533337
 20
198.40770241336872
 10
12.407718818133336
 20
198.92536128604866
 10
12.59228118186667
 20
199.404996123771
 10
12.741052151466668
 20
199.9058084879871
 10
12.925614515200001
 20
200.31601245420754
 10
13.0743854848
 20
200.6839875453059
 10
13.258947848533333
 20
201.09419148869824
 10
13.407718818133333
 20
201.59500313150653
 10
13.592281181866666
 20
202.0746223091868
 10
13.741052151466667
 20
202.59204435747998
 10
13.9256145152
 20
203.07166353516018
 10
14.0743854848
 20
203.5724751779685
 10
14.258947848533332
 20
203.98267912135498
 10
14.407718818133333
 20
204.35065421197845
 10
14.592281181866666
 20
204.7608581553649
 10
14.74105215146667
 20
205.26166979817324
 10
14.925614515200007
 20
205.7412889758476
 10
15.074385484800004
 20
206.2587110236659
 10
15.258947848533339
 20
206.73833017851211
 10
15.40771881813334
 20
207.23914109991273
 10
15.592281181866673
 20
207.64932938326282
 10
15.741052151466672
 20
208.01706764997448
 10
15.796554776366424
 20
208.1396838465279
 10
15.796554776366422
 20
208.1396838465279
 10
15.925614515200008
 20
208.4248021509781
 10
16.074385484800008
 20
208.90853118186863
 10
16.25894784853334
 20
209.31626566005005
 10
16.40771881813334
 20
209.68400320582884
 10
16.59228118186667
 20
210.09417585196496
 10
16.741052151466675
 20
210.59475066991163
 10
16.92561451520001
 20
211.07191599675514
 10
17.074385484800008
 20
211.57249081470184
 10
17.258947848533335
 20
211.98266346083204
 10
17.40771881813334
 20
212.35040100613594
 10
17.436221846050177
 20
212.4133697844304
 10
17.43622184605018
 20
212.4133697844304
 10
17.592281181866674
 20
212.75813546148333
 10
17.741052151466672
 20
213.24186377096615
 10
17.92561451520001
 20
213.64958261193345
 10
18.074385484800004
 20
214.0170840547333
 10
18.13347182785946
 20
214.14761237492758
 10
18.25894784853334
 20
214.42480289570062
 10
18.407718818133343
 20
214.90853120518346
 10
18.592281181866678
 20
215.31626566053083
 10
18.741052151466675
 20
215.68400320583476
 10
18.925614515200007
 20
216.094175851965
 10
19.074385484800008
 20
216.59475066991158
 10
19.258947848533342
 20
217.07191599674923
 10
19.40771881813334
 20
217.57249081422106
 10
19.592281181866674
 20
217.98266343752312
 10
19.741052151466675
 20
218.3504002618942
 10
19.925614515200007
 20
218.75811908002748
 10
20.074385484800008
 20
219.24161128605644
 10
20.25894784853334
 20
219.646876299021
 10
20.40771881813334
 20
219.99753051194918
 10
20.59228118186667
 20
220.33580282137825
 10
20.741052151466672
 20
220.68645703383163
 10
20.925614515200003
 20
221.0917220239681
 10
21.074385484800004
 20
221.57521350906418
 10
21.258947848533335
 20
221.98291668998345
 10
21.260339795643638
 20
221.98635514015885
 10
21.407718818133336
 20
222.35041741090063
 10
21.592281181866667
 20
222.75813620620585
 10
21.74105215146667
 20
223.2418637942809
 10
21.925614515200003
 20
223.64958261240838
 10
22.0743854848
 20
224.01708405425833
 10
22.258947848533335
 20
224.42480287238584
 10
22.30752366914915
 20
224.5827467549083
 10
22.307523669149145
 20
224.5827467549083
 10
22.407718818133336
 20
224.90853046046095
 10
22.592281181866674
 20
225.31624925576617
 10
22.741052151466675
 20
225.68374997668337
 10
22.92561451520001
 20
226.0914531576026
 10
23.074385484800004
 20
226.57494464269865
 10
23.25894784853334
 20
226.98020963282926
 10
23.407718818133343
 20
227.3308638448077
 10
23.592281181866678
 20
227.66913613140272
 10
23.741052151466675
 20
228.01978962292324
 10
23.925614515200007
 20
228.4250389758456
 10
24.07438548480001
 20
228.90829435748782
 10
24.258947848533342
 20
229.31354371040436
 10
24.407718818133343
 20
229.66419720144992
 10
24.592281181866678
 20
230.00246946521682
 10
24.741052151466675
 20
230.3531229562624
 10
24.92561451520001
 20
230.75837230917898
 10
25.074385484800008
 20
231.24162769082113
 10
25.258947848533342
 20
231.64687704373767
 10
25.407718818133343
 20
231.99753053478327
 10
25.592281181866674
 20
232.33580279855013
 10
25.741052151466672
 20
232.6864562895958
 10
25.925614515200007
 20
233.09170564251232
 10
26.074385484800008
 20
233.57496102415445
 10
26.25894784853334
 20
233.980210377071
 10
26.407718818133336
 20
234.33086386811658
 10
26.59228118186667
 20
234.6691361318835
 10
26.741052151466672
 20
235.0197896229291
 10
26.925614515200003
 20
235.42503897584567
 10
27.0743854848
 20
235.90829435748782
 10
27.258947848533335
 20
236.31354371040436
 10
27.407718818133336
 20
236.66419720144992
 10
27.592281181866674
 20
237.00246946521094
 10
27.741052151466675
 20
237.35312295578166
 10
27.92561451520001
 20
237.75837228587005
 10
28.074385484800004
 20
238.24162694657943
 10
28.258947848533342
 20
238.64686066228774
 10
28.407718818133343
 20
238.9972780503543
 10
28.592281181866678
 20
239.33309650894662
 10
28.74105215146668
 20
239.66690349105343
 10
28.925614515200007
 20
240.00272194963992
 10
29.07438548480001
 20
240.3531393372315
 10
29.258947848533342
 20
240.75837303011176
 10
29.407718818133343
 20
241.24162696988833
 10
29.472115738554827
 20
241.38301983755997
 10
29.592281181866678
 20
241.64686066276857
 10
29.741052151466675
 20
241.9972780503602
 10
29.92561451520001
 20
242.33309650894665
 10
30.074385484800008
 20
242.6669034910534
 10
30.258947848533342
 20
243.00272194963986
 10
30.407718818133343
 20
243.3531393372316
 10
30.592281181866674
 20
243.75837303011176
 10
30.741052151466672
 20
244.2416269698884
 10
30.925614515200007
 20
244.64686066276855
 10
31.074385484800008
 20
244.99727805036017
 10
31.25894784853334
 20
245.33309650894668
 10
31.407718818133336
 20
245.66690349105346
 10
31.59228118186667
 20
246.00272194963992
 10
31.741052151466672
 20
246.3531393372316
 10
31.925614515200003
 20
246.75837303010593
 10
32.0743854848
 20
247.24162696940752
 10
32.258947848533346
 20
247.64686063945965
 10
32.40771881813334
 20
247.9972773061185
 10
32.59228118186667
 20
248.33308012749674
 10
32.74105215146666
 20
248.66665100662448
 10
32.9256145152
 20
249.0000156600422
 10
33.074385484800004
 20
249.33358653916997
 10
33.25894784853333
 20
249.66938936054825
 10
33.40771881813334
 20
250.0198060272071
 10
33.59228118186668
 20
250.42503969725323
 10
33.74105215146667
 20
250.90829363607997
 10
33.925614515199996
 20
251.31352730612042
 10
34.074385484800004
 20
251.6639439723043
 10
34.258947848533346
 20
251.99974677084856
 10
34.40771881813334
 20
252.33331692856865
 10
34.59228118186666
 20
252.66666592194417
 10
34.74105215146667
 20
252.99999997668522
 10
34.92561451520001
 20
253.3333333328584
 10
35.074385484800004
 20
253.6666666671416
 10
35.25894784853333
 20
254.00000002331473
 10
35.40771881813335
 20
254.33333407805583
 10
35.59228118186668
 20
254.6666830714314
 10
35.74105215146668
 20
255.0002532291515
 10
35.92561451520001
 20
255.3360560276958
 10
36.07438548480002
 20
255.6864726938797
 10
36.25894784853334
 20
256.0917063639201
 10
36.40771881813335
 20
256.5749603027467
 10
36.592281181866674
 20
256.9801939727871
 10
36.74105215146667
 20
257.33061063897105
 10
36.92561451520002
 20
257.6664134375152
 10
37.07438548480001
 20
257.9999835952353
 10
37.25894784853334
 20
258.3333325886108
 10
37.40771881813335
 20
258.6666666433519
 10
37.59228118186667
 20
258.99999999951916
 10
37.741052151466675
 20
259.33333333332746
 10
37.92561451520001
 20
259.66666666666663
 10
38.074385484800004
 20
260.0
 10
38.25894784853335
 20
260.3333333333333
 10
38.40771881813335
 20
260.6666666666667
 10
38.59228118186667
 20
261.0
 10
38.741052151466675
 20
261.3333333333333
 10
38.92561451520001
 20
261.6666666666667
 10
39.074385484800004
 20
262.0
 10
39.25894784853335
 20
262.3333333333333
 10
39.40771881813334
 20
262.6666666666667
 10
39.59228118186668
 20
263.0
 10
39.741052151466675
 20
263.3333333333333
 10
39.76166383047973
 20
263.3705595561235
 10
39.77525444585176
 20
263.3951052166383
 10
39.77525444585174
 20
263.3951052166383
 10
39.9256145152
 20
263.6666666666667
 10
40.07438548480002
 20
264.0
 10
40.25894784853334
 20
264.3333333333333
 10
40.40771881813334
 20
264.6666666666667
 10
40.59228118186668
 20
265.0
 10
40.627725097690536
 20
265.0794149466103
 10
53.48855387945886
 20
258.60581775350687
 10
53.734555002188046
 20
259.10081304621406
 10
53.98606665658805
 20
259.60081304621406
 10
54.23455500218804
 20
260.10081304621406
 10
54.48606665658804
 20
260.60081304621406
 10
54.734555002188046
 20
261.10081304621406
 10
54.98606665658804
 20
261.60081304621406
 10
55.23455500218803
 20
262.10081304621406
 10
55.48606665658804
 20
262.60081304621406
 10
55.73455500218804
 20
263.10081304621406
 10
55.986066656588044
 20
263.60081304621406
 10
56.234555002188046
 20
264.10081304621406
 10
56.48606665658805
 20
264.60081304621406
 10
56.73455500218804
 20
265.10081304621406
 10
56.98606665658804
 20
265.60081304621406
 10
57.234555002188046
 20
266.10081304621406
 10
57.48606665658804
 20
266.60081304621406
 10
57.73455500218803
 20
267.1008130462641
 10
57.98606665648804
 20
267.60081305026404
 10
58.23455499408805
 20
268.10081319481407
 10
58.48606635938804
 20
268.6008163068141
 10
58.734548480988046
 20
269.1008606137641
 10
58.98597152188804
 20
269.60129826256417
 10
59.23358460188803
 20
270.1043576008142
 10
59.478978735838034
 20
270.6195167016642
 10
59.69717374788804
 20
271.17211993111414
 10
59.843832397788034
 20
271.7976647068142
 10
59.844710924238036
 20
272.5057079285642
 10
59.70430614428804
 20
273.2827863387142
 10
59.51689662053804
 20
274.1768063290142
 10
59.379915429138045
 20
275.23956710511425
 10
59.39882686953804
 20
276.38992024801416
 10
59.61265738703804
 20
277.37561806891415
 10
60.01054942058805
 20
278.1320729782642
 10
60.61546500388803
 20
278.7075670924642
 10
61.47069971598804
 20
279.0994238505142
 10
62.67415179618803
 20
279.3122967088142
 10
64.11463011668802
 20
279.3302445511642
 10
65.38086753278803
 20
279.1871393341642
 10
66.32429950158804
 20
278.9694299598142
 10
67.02170780778803
 20
278.7240834052142
 10
67.58921034168803
 20
278.4764735819142
 10
68.10652991548803
 20
278.2250505411142
 10
68.60981245438802
 20
277.97656517101416
 10
69.11030667748803
 20
277.7250065315142
 10
69.61074192473802
 20
277.4760393621142
 10
70.11332201783803
 20
277.22107545701425
 10
70.62497539383804
 20
276.9548154846142
 10
71.15923730638805
 20
276.6387296388642
 10
71.71585458708805
 20
276.2284993650142
 10
72.23809153998803
 20
275.7044354103142
 10
72.64726663463802
 20
275.1357505461642
 10
72.95717495648802
 20
274.5425987222141
 10
73.19265566868802
 20
273.8329073510141
 10
73.33921934043804
 20
272.8913758605642
 10
73.32183879478805
 20
271.79305284811414
 10
73.10988523183805
 20
270.8223718836642
 10
72.72410226563804
 20
270.0680942449642
 10
72.17842917048804
 20
269.4868725392142
 10
71.52346676443803
 20
269.06428169076423
 10
70.76852743518803
 20
268.74301794301425
 10
69.95208740518805
 20
268.4588108508142
 10
69.19705975138803
 20
268.13927277031416
 10
68.54122207568803
 20
267.72873973981416
 10
67.98943102253803
 20
267.20636673456414
 10
67.57334524218803
 20
266.64973997311415
 10
67.25640263838801
 20
266.1154776269142
 10
66.99005491553802
 20
265.6038243836642
 10
66.73508481028803
 20
265.10124742241413
 10
66.48611734408804
 20
264.6008572044142
 10
66.23455840743804
 20
264.10081615416414
 10
65.98606680918803
 20
263.6008131907141
 10
65.73455500628803
 20
263.1008130502141
 10
65.48606665663804
 20
262.6008130462641
 10
65.23455500218803
 20
262.10081304621406
 10
64.98606665658804
 20
261.60081304621406
 10
64.73455500218803
 20
261.10081304621406
 10
64.48606665658804
 20
260.60081304621406
 10
64.23455500218802
 20
260.10081304621406
 10
63.98606665658802
 20
259.60081304621406
 10
63.73455500218803
 20
259.10081304621406
 10
63.486066656588044
 20
258.60081304621406
 10
63.23455500218804
 20
258.10081304621406
 10
62.98606665658804
 20
257.60081304621406
 10
62.73455500218803
 20
257.10081304621406
 10
62.48606665658804
 20
256.60081304621406
 10
62.234555002188046
 20
256.10081304621406
 10
61.98606665658804
 20
255.60081304621406
 10
61.73455500218804
 20
255.10081304621409
 10
61.48606665658805
 20
254.6008130462141
 10
61.477796026363386
 20
254.58437120330152
 10
61.628007936444234
 20
254.50876088176076
 10
69.2253561527765
 20
250.68457715901351
 10
77.21538877677143
 20
246.66273271607815
 10
77.07438548480002
 20
246.35313936054044
 10
76.92561451520002
 20
246.0027226938816
 10
76.74105215146669
 20
245.6669198725033
 10
76.59228118186667
 20
245.33334899337552
 10
76.40771881813338
 20
244.99998433995785
 10
76.25894784853335
 20
244.66641346083009
 10
76.07438548480003
 20
244.3306106394519
 10
75.9256145152
 20
243.98019397279296
 10
75.74105215146669
 20
243.57496030274086
 10
75.59228118186668
 20
243.09170636343924
 10
75.40771881813336
 20
242.6864726705649
 10
75.25894784853337
 20
242.33605528297323
 10
75.07438548480002
 20
242.00023682438677
 10
74.92561451520004
 20
241.66642984228005
 10
74.74105215146668
 20
241.33061138369354
 10
74.72369508204844
 20
241.28972828036942
 10
74.5922811818667
 20
240.98019399610186
 10
74.40771881813335
 20
240.5749603032217
 10
74.25894784853332
 20
240.09170636344507
 10
74.07438548480003
 20
239.6864726705649
 10
73.92561451520001
 20
239.33605528297323
 10
73.74105215146672
 20
239.00023682438672
 10
73.59228118186668
 20
238.66642984227997
 10
73.40771881813335
 20
238.3306113836935
 10
73.25894784853334
 20
237.9801939961019
 10
73.07438548480002
 20
237.57496030322164
 10
72.92561451520002
 20
237.09170636344516
 10
72.74105215146668
 20
236.68647267056485
 10
72.5922811818667
 20
236.33605528297323
 10
72.40771881813333
 20
236.0002368243868
 10
72.25894784853337
 20
235.66642984227997
 10
72.07438548480002
 20
235.33061138368765
 10
71.97744917652642
 20
235.10228613955312
 10
71.92561451520002
 20
234.98019399562105
 10
71.74105215146669
 20
234.57496027991274
 10
71.59228118186667
 20
234.09170561920337
 10
71.40771881813338
 20
233.68645628911497
 10
71.25894784853335
 20
233.33580279854425
 10
71.07438548480003
 20
232.99753053478324
 10
70.92561451520002
 20
232.64687704373767
 10
70.7410521514667
 20
232.24162769082113
 10
70.59228118186667
 20
231.75837230917898
 10
70.40771881813333
 20
231.3531229562624
 10
70.25894784853332
 20
231.00246946521682
 10
70.07438548480002
 20
230.66419720144992
 10
69.92561451520001
 20
230.31354371040436
 10
69.7410521514667
 20
229.90829435748782
 10
69.5922811818667
 20
229.4250389758456
 10
69.40771881813333
 20
229.01978962292324
 10
69.25894784853331
 20
228.66913613140272
 10
69.0743854848
 20
228.3308638448077
 10
68.9256145152
 20
227.98020963282926
 10
68.74105215146669
 20
227.57494464269865
 10
68.59228118186668
 20
227.0914531576026
 10
68.40771881813336
 20
226.68374997668337
 10
68.25894784853332
 20
226.31624925576617
 10
68.07438548479999
 20
225.90853046046095
 10
67.92561451519998
 20
225.42480287238584
 10
67.74105215146668
 20
225.01708405425833
 10
67.59228118186667
 20
224.64958261240835
 10
67.40771881813336
 20
224.24186379427505
 10
67.25894784853335
 20
223.75813620572507
 10
67.07438548480002
 20
223.3504173875917
 10
66.92561451520001
 20
222.98291594574172
 10
66.74105215146668
 20
222.57519712760842
 10
66.59228118186665
 20
222.0914695390584
 10
66.40771881813335
 20
221.6837507209251
 10
66.25894784853334
 20
221.31624927907512
 10
66.07438548480002
 20
220.90853046094173
 10
65.92561451520002
 20
220.42480287239175
 10
65.7410521514667
 20
220.01708405425836
 10
65.59228118186667
 20
219.64958261240835
 10
65.40771881813333
 20
219.24186379427505
 10
65.25894784853332
 20
218.75813620572504
 10
65.07438548480002
 20
218.35041738758582
 10
64.92561451520001
 20
217.98291594526094
 10
64.7410521514667
 20
217.5751971042995
 10
64.5922811818667
 20
217.0914687948167
 10
64.40771881813333
 20
216.68373433946928
 10
64.25894784853331
 20
216.3159967941654
 10
64.0743854848
 20
215.90582414803515
 10
63.9293930964983
 20
215.4179632530439
 10
63.925614515199996
 20
215.40524933008848
 10
63.741052151466675
 20
214.92808400324503
 10
63.592281181866674
 20
214.42750918529828
 10
63.40771881813335
 20
214.0173365391622
 10
63.25894784853335
 20
213.6495989933834
 10
63.07438548480001
 20
213.2418645152079
 10
62.92561451520001
 20
212.75813548479223
 10
62.741052151466675
 20
212.35040100661672
 10
62.59228118186667
 20
211.9826634608379
 10
62.40771881813335
 20
211.57249081469595
 10
62.258947848533346
 20
211.07191599627438
 10
62.07438548480002
 20
210.5947506466028
 10
61.925614515200024
 20
210.09417510772323
 10
61.74105215146668
 20
209.68398682437896
 10
61.59228118186668
 20
209.31601317562112
 10
61.40771881813335
 20
208.90582489227097
 10
61.25894784853334
 20
208.4052493529166
 10
61.07438548480002
 20
207.92808398041683
 10
60.92561451520002
 20
207.42750844106246
 10
60.74105215146669
 20
207.01732015771233
 10
60.592281181866696
 20
206.64934650895447
 10
60.407718818133354
 20
206.23915822560434
 10
60.25894784853335
 20
205.73858268624997
 10
60.07438548480002
 20
205.26141731375026
 10
59.92561451520001
 20
204.7608417743958
 10
59.74105215146669
 20
204.35065349104568
 10
59.59228118186668
 20
203.98267984228778
 10
59.40771881813335
 20
203.57249155893766
 10
59.25894784853335
 20
203.07191601958323
 10
59.074385484800004
 20
202.59475064707763
 10
58.92561451520001
 20
202.09417510724836
 10
58.741052151466675
 20
201.6839868010701
 10
58.592281181866674
 20
201.31601243137945
 10
58.40771881813335
 20
200.9058085108211
 10
58.39454918743645
 20
200.86147523534424
 10
58.25894784853335
 20
200.40499686848764
 10
58.07438548480001
 20
199.92537769081338
 10
57.92561451520001
 20
199.40795564252014
 10
57.741052151466675
 20
198.92833646483984
 10
57.59228118186667
 20
198.4275248220315
 10
57.40771881813335
 20
198.01732087863923
 10
57.258947848533346
 20
197.64934578754088
 10
57.07438548480002
 20
197.23914182132043
 10
56.925614515200024
 20
196.73832945710438
 10
56.74105215146668
 20
196.25869461938788
 10
56.59228118186668
 20
195.74103574718285
 10
56.40771881813335
 20
195.25894712712568
 10
56.25894784853334
 20
194.74105287287443
 10
56.07438548480002
 20
194.2589642528173
 10
55.92561451520002
 20
193.74130538061223
 10
55.74105215146669
 20
193.26167054289573
 10
55.592281181866696
 20
192.7608581786797
 10
55.407718818133354
 20
192.35065421245338
 10
55.402278314054506
 20
192.33719748771736
 10
55.40227831405451
 20
192.33719748771736
 10
55.25894784853335
 20
191.98267912088008
 10
55.07438548480002
 20
191.57247515465374
 10
54.92561451520001
 20
191.07166279043767
 10
54.74105215146669
 20
190.59202795271528
 10
54.59228118186668
 20
190.0743690800353
 10
54.40771881813335
 20
189.59228043714413
 10
54.25894784853335
 20
189.07438546148524
 10
54.074385484800004
 20
188.59228118138583
 10
53.92561451520001
 20
188.0743854847941
 10
53.741052151466675
 20
187.5922811818667
 10
53.592281181866674
 20
187.07438548480008
 10
53.40771881813335
 20
186.59228118186672
 10
53.25894784853335
 20
186.07438548480002
 10
53.07438548480001
 20
185.5922811818608
 10
52.92561451520001
 20
185.0743854843192
 10
52.741052151466675
 20
184.59228115855186
 10
52.59228118186667
 20
184.07438474007748
 10
52.40771881813335
 20
183.592264777102
 10
52.3045890778264
 20
183.23308937799192
 10
52.258947848533346
 20
183.07413225564858
 10
52.07438548480002
 20
182.58955848750432
 10
51.925614515200024
 20
182.0545794575871
 10
51.74105215146668
 20
181.5005748179467
 10
51.59228118186668
 20
180.83275851538664
 10
51.40771881813335
 20
180.27875387574042
 10
51.25894784853334
 20
179.74377484534824
 10
51.07438548480002
 20
179.25920105437
 10
50.92561451520002
 20
178.74106781150888
 10
50.74105215146669
 20
178.25893218849117
 10
50.592281181866696
 20
177.7407989456301
 10
50.407718818133354
 20
177.25622515465184
 10
50.25894784853335
 20
176.72124612425966
 10
50.07438548480002
 20
176.1672414846075
 10
49.92561451520001
 20
175.49942518157252
 10
49.74105215146669
 20
174.94542051909815
 10
49.59228118186668
 20
174.41044076777314
 10
49.40771881813335
 20
173.92585133958087
 10
49.25894784853335
 20
173.40748199326586
 10
49.074385484800004
 20
172.92289254224536
 10
48.92561451520001
 20
172.38791206951268
 10
48.741052151466675
 20
171.83389174699613
 10
48.592281181866674
 20
171.16583861957446
 10
48.40771881813335
 20
170.60936451471142
 10
48.25894784853335
 20
170.0573021514686
 10
48.07438548480001
 20
169.50082802378333
 10
47.92561451520001
 20
168.83277417542885
 10
47.741052151466675
 20
168.27873821569824
 10
47.59228118186667
 20
167.74352163951164
 10
47.40771881813335
 20
167.25647836048847
 10
47.25894784853334
 20
166.72126178430184
 10
47.07438548480001
 20
166.16722582456532
 10
46.92561451520002
 20
165.4991719757359
 10
46.74105215146667
 20
164.94269782521073
 10
46.592281181866674
 20
164.39063474008532
 10
46.40771881813335
 20
163.834144952352
 10
46.25894784853334
 20
163.16585427961078
 10
46.07438548480002
 20
162.60934885466924
 10
45.92561451520001
 20
162.057048945632
 10
45.74105215146668
 20
161.4981053299018
 10
45.59228118186668
 20
160.81296814822176
 10
45.40771881813334
 20
160.1870318517783
 10
45.25894784853334
 20
159.50189467009827
 10
45.07438548480002
 20
158.94295105436214
 10
44.9256145152
 20
158.39065114484993
 10
44.77159503846403
 20
157.9262407627211
 10
44.741052151466675
 20
157.83414569706864
 10
44.59228118186668
 20
157.16585430244476
 10
44.40771881813334
 20
156.60934883184117
 10
44.25894784853335
 20
156.0570482013962
 10
44.074385484800004
 20
155.49808894844605
 10
43.92561451520001
 20
154.81271566331208
 10
43.741052151466675
 20
154.18432553886583
 10
43.59228118186667
 20
153.48234112731419
 10
43.40771881813335
 20
152.85395098003988
 10
43.25894784853335
 20
152.1685769734982
 10
43.074385484800004
 20
151.6096020605059
 10
42.92561451520001
 20
151.0570646056742
 10
42.741052151466675
 20
150.4980896698537
 10
42.59228118186667
 20
149.81271494190432
 10
42.40771881813335
 20
149.18430913458192
 10
42.25894784853334
 20
148.48208789816866
 10
42.07438548480001
 20
147.8512282856775
 10
41.92561451520002
 20
147.1487709462852
 10
41.74105215146667
 20
146.51789569658587
 10
41.592281181866674
 20
145.8154376362608
 10
41.40771881813335
 20
145.18456236373336
 10
41.25894784853334
 20
144.48210430293335
 10
41.07438548480002
 20
143.85122903040005
 10
40.92561451520001
 20
143.14877096960006
 10
40.74105215146668
 20
142.5178956970667
 10
40.59228118186668
 20
141.8154376362667
 10
40.40771881813334
 20
141.18456236372748
 10
40.25894784853334
 20
140.4821043024525
 10
40.07438548480002
 20
139.8512290070852
 10
39.9256145152
 20
139.1487702248775
 10
39.741052151466675
 20
138.51787929230193
 10
39.59228118186668
 20
137.8151844071152
 10
39.40771881813334
 20
137.1818396693651
 10
39.25894784853335
 20
136.46229827523956
 10
39.074385484800004
 20
135.7595226431652
 10
38.92561451520001
 20
134.90714325546415
 10
38.741052151466675
 20
134.20435198617577
 10
38.59228118186667
 20
133.48457376766353
 10
38.40771881813335
 20
132.8487595418743
 10
38.25894784853335
 20
132.12898060242924
 10
38.074385484800004
 20
131.42617367309865
 10
37.92561451520001
 20
130.57355746053588
 10
37.741052151466675
 20
129.86831234041074
 10
37.59228118186667
 20
129.13168689155196
 10
37.40771881813335
 20
128.42642613421862
 10
37.25894784853334
 20
127.57357309774407
 10
37.07438548480001
 20
126.86829670320252
 10
36.92561451520002
 20
126.13143443043198
 10
36.74105215146667
 20
125.42371984509592
 10
36.592281181866674
 20
124.55402029920762
 10
36.40771881813335
 20
123.77931301033016
 10
36.25894784853334
 20
122.90961274350904
 10
36.07438548480002
 20
122.20188249813079
 10
35.92561451520001
 20
121.46478340049855
 10
35.74105215146668
 20
120.75703751790624
 10
35.59228118186668
 20
119.88710042669841
 10
35.40771881813335
 20
119.109923649776
 10
35.25894784853333
 20
118.2231400491545
 10
35.074385484800004
 20
117.44350944422935
 10
34.92561451520001
 20
116.55648901969603
 10
34.74105215146667
 20
115.7768271403545
 10
34.59228118186666
 20
114.88956989190936
 10
34.40771881813334
 20
114.10745418456509
 10
34.258947848533346
 20
113.20335042670627
 10
34.074385484800004
 20
112.35180382503191
 10
33.925614515199996
 20
111.31486207359745
 10
33.74105215146667
 20
110.46329983470905
 10
33.59228118186668
 20
109.55895925246345
 10
33.40771881813334
 20
108.7743740570684
 10
33.25894784853333
 20
107.87003275341507
 10
33.074385484800004
 20
107.01845483165047
 10
32.9256145152
 20
105.98127553394667
 10
32.74105215146666
 20
105.12724378417936
 10
32.59228118186667
 20
104.20581914720053
 10
32.455243463335414
 20
103.56986625346134
 10
32.40771881813334
 20
103.34931795505038
 10
32.258947848533346
 20
102.29481922151695
 10
32.0743854848
 20
101.3688714978344
 10
31.925614515200003
 20
100.29752553442937
 10
31.85199046327537
 20
99.92717546594317
 10
31.741052151466672
 20
99.36912398273826
 10
31.59228118186667
 20
98.29754191540438
 10
31.407718818133336
 20
97.36912470367106
 10
31.25894784853334
 20
96.29754119447159
 10
31.074385484800008
 20
95.36910832269605
 10
30.925614515200007
 20
94.29728870956774
 10
30.741052151466672
 20
93.36640200978364
 10
30.592281181866674
 20
92.27773516678369
 10
30.407718818133343
 20
91.27740193546128
 10
30.258947848533342
 20
90.05566099543181
 10
30.168916325533594
 20
89.56648296253599
 10
30.074385484800008
 20
89.05285829889263
 10
29.92561451520001
 20
87.94687129818043
 10
29.741052151466675
 20
86.94159911359631
 10
29.592281181866678
 20
85.70253729444687
 10
29.407718818133343
 20
84.62780291827644
 10
29.258947848533342
 20
83.37165704439377
 10
29.07438548480001
 20
82.2919993521815
 10
28.925614515200007
 20
81.01853332106154
 10
28.74105215146668
 20
79.86694401771416
 10
28.592281181866678
 20
78.44332055671404
 10
28.407718818133343
 20
77.21737706582287
 10
28.258947848533342
 20
75.75982304115072
 10
28.074385484800004
 20
74.46196353067052
 10
28.00045351276279
 20
73.67138028475551
 10
27.92561451520001
 20
72.87109786317443
 10
27.741052151466675
 20
71.57073756739892
 10
27.592281181866674
 20
70.09538829390054
 10
27.407718818133336
 20
68.79008904486331
 10
27.258947848533335
 20
67.16458234053495
 10
27.122934727711506
 20
66.09847735432014
 10
27.0743854848
 20
65.71793620040667
 10
26.925614515200003
 20
63.92566093883065
 10
26.741052151466672
 20
62.40464495110474
 10
26.59228118186667
 20
60.594812706479864
 10
26.407718818133336
 20
59.06882644540786
 10
26.25894784853334
 20
57.241435055410626
 10
26.074385484800008
 20
55.64103198944838
 10
25.925614515200007
 20
53.64616228902628
 10
25.741052151466672
 20
51.8970195278746
 10
25.619852342376564
 20
50.10796129395054
 10
25.592281181866674
 20
49.70097705775929
 10
25.407718818133343
 20
47.7336167954576
 10
25.274413299126035
 20
45.481034551350845
 10
25.258947848533342
 20
45.21970103971805
 10
25.074385484800008
 20
43.098615194565184
 10
24.92561451520001
 20
40.49856941863148
 10
24.741052151466675
 20
38.15184217655011
 10
24.60859744304143
 20
35.40504771328913
 10
24.592281181866678
 20
35.06668740591492
 10
24.407718818133343
 20
32.353112839015964
 10
24.258947848533342
 20
28.867040693191576
 10
24.07438548480001
 20
25.801466821477387
 10
23.925614515200007
 20
21.934678827483665
 10
23.741052151466675
 20
19.094683849568302
 10
23.65486817705895
 20
17.40555443364011
 10
23.592281181866678
 20
16.178904869607557
 10
23.407718818133343
 20
14.201698249294534
 10
23.29488224459481
 20
12.788706401979267
 10
23.25894784853334
 20
12.33871924727611
 10
23.074385484800004
 20
11.025886185252935
 10
22.92561451520001
 20
9.734144039131449
 10
22.741052151466675
 20
8.728746322983271
 10
22.592281181866674
 20
7.673531337903615
 10
22.407718818133336
 20
6.88889895679411
 10
22.258947848533335
 20
6.134712914997822
 10
22.0743854848
 20
5.429420746191441
 10
21.925614515200003
 20
4.593650319259701
 10
21.74105215146667
 20
3.9627593638208993
 10
21.592281181866667
 20
3.3933753991003917
 10
21.407718818133336
 20
2.834431760518621
 10
21.258947848533335
 20
2.166377911214193
 10
21.222889645598585
 20
2.0586176062998827
 10
21.222889645598585
 20
2.058617606299882
 10
21.074385484800004
 20
1.614811416688672
 10
20.925614515200003
 20
1.0969149982142254
 10
20.741052151466672
 20
0.684257203985189
 10
20.59228118186667
 20
0.31628283334466156
 10
20.40771881813334
 20
-0.09145164484257817
 10
20.25894784853334
 20
-0.574943851346452
 10
20.074385484799972
 20
-0.9801932271028647
 10
19.925614515194113
 20
-1.3306106156502604
 10
19.741052150985844
 20
-1.6664134375151696
 10
19.702023414051457
 20
-1.7539225858480707
 10
19.702023414051457
 20
-1.7539225858480705
 10
19.592281158551863
 20
-1.9999836185442061
 10
19.40771807341074
 20
-2.333333333333366
 10
19.258931443756843
 20
-2.666683048128353
 10
19.07413225468653
 20
-3.0002532296326505
 10
18.92289177413728
 20
-3.3360560743901053
 10
18.721244629032817
 20
-3.6864741890887047
 10
18.50054172815277
 20
-4.091739452752181
 10
18.165576429945286
 20
-4.575475674879983
 10
17.939777527993463
 20
-4.9858354967997744
 10
17.701106868777966
 20
-5.373245759851207
 10
17.376178971704263
 20
-5.882260928119435
 10
16.68381660543584
 20
-6.718423967801923
 10
15.50863489473031
 20
-8.043526284000816
 10
13.39938833890948
 20
-10.15277283982165
 10
12.143716894206648
 20
-11.25852367903109
 10
11.457237635624939
 20
-11.801202264192876
 10
11.249292857394666
 20
-11.921575967936162
 10
11.020107143546618
 20
-12.05424548460173
 10
10.649779469104073
 20
-12.275833532374355
 10
10.241888368153486
 20
-12.499162991949225
 10
10.0
 20
-12.666617806516086
 10
10.0
 20
-11.396046828039792
 10
10.0
 20
4.968056843384838
 10
10.0
 20
14.320045009984943
 10
10.0
 20
21.9999730779892
 10
10.0
 20
26.866234858756027
 10
10.0
 20
39.03188931300701
 10
10.0
 20
43.89815109380166
 10
10.0
 20
52.66483062246848
 10
10.0
 20
56.71052609114367
 10
10.0
 20
75.14875198255932
 10
10.0
 20
79.40732718296844
 10
10.0
 20
80.30131895451052
 10
10.0
 20
86.07135469712426
 10
10.0
 20
105.79695520298381
 10
10.0
 20
111.09903288967533
 10
10.0
 20
128.72176016024713
 10
10.0
 20
136.30680101715856
 10
10.0
 20
153.55962885220163
 10
10.0
 20
155.26941486675807
 10
10.0
 20
167.13568178292127
 10
10.0
 20
171.25260400738316
 10
10.0
 20
183.20542783944975
 10
10.0
 20
187.31066710257699
 10
10.0
 20
191.99986518304198
 10
10.074385484800004
 20
192.25869461938194
 10
10.258947848533339
 20
192.73832945710433
 10
10.303440371002942
 20
192.88810602593256
 10
10.303440371002939
 20
192.88810602593256
 10
10.40771881813334
 20
193.2391418213204
 10
10.592281181866673
 20
193.64934578754674
 10
10.741052151466672
 20
194.01732087912004
 10
10.925614515200008
 20
194.4275248453463
 10
11.074385484800008
 20
194.92833720956241
 10
11.25894784853334
 20
195.40797204728483
 10
11.40771881813334
 20
195.92563091996473
 10
11.592281181866673
 20
196.40771956285005
 10
11.741052151466672
 20
196.9256145380341
 10
11.925614515200005
 20
197.4077187952994
 10
12.074385484800004
 20
197.92561377048338
 10
12.258947848533337
 20
198.40770241336872
  0
LWPOLYLINE
  5
30
330
17
100
AcDbEntity
  8
default
100
AcDbPolyline
 90
16
 70
0
 10
26.034726086072624
 20
159.59856634121388
 10
21.328567432705313
 20
159.97464476851746
 10
19.7163884977487
 20
158.05130420519492
 10
20.400368076273605
 20
157.94984541895838
 10
21.580778081228942
 20
157.6541681050377
 10
22.726522644600728
 20
157.24421414509828
 10
23.826567619915984
 20
156.72393161987793
 10
24.870318972716674
 20
156.0983311345099
 10
25.847724806902818
 20
155.37343756365624
 10
26.7493721699868
 20
154.5562320286715
 10
27.566577704971547
 20
153.65458466558752
 10
28.291471275825174
 20
152.6771788314014
 10
28.917071761193213
 20
151.63342747860068
 10
28.968477161492366
 20
151.52473989144943
 10
29.87262447271496
 20
155.3051145011559
 10
26.034726086072624
 20
159.59856634121388
  0
LWPOLYLINE
  5
31
330
17
100
AcDbEntity
  8
default
100
AcDbPolyline
 90
23
 70
0
 10
17.05055200464096
 20
5.73706935608784
 10
17.151765471863474
 20
6.305669688123352
 10
17.237260544113997
 20
6.695209949887472
 10
17.38308831779672
 20
7.252480591054037
 10
17.50224795287268
 20
7.856553642143625
 10
17.54055412986336
 20
8.03376047560667
 10
17.673013092808
 20
8.596884990227176
 10
17.790016314632172
 20
9.42677507767786
 10
17.823227241118694
 20
9.631518803268802
 10
17.977587559133635
 20
10.472391817987878
 10
18.107219978179703
 20
11.597958584378672
 10
18.12307410194612
 20
11.721957726131867
 10
18.2867548234871
 20
12.886255031975242
 10
18.423585619360715
 20
14.59971364710289
 10
18.429360716614227
 20
14.666403115891583
 10
18.560289496282103
 20
16.06903605097289
 10
16.883128254208714
 20
17.231045550201088
 10
15.0
 20
14.513073172155515
 10
15.0
 20
6.370103407099936
 10
16.864642801593018
 20
5.078198613589973
 10
16.903455941658798
 20
5.226746274691635
 10
16.94218337337035
 20
5.366632025643313
 10
17.05055200464096
 20
5.73706935608784
  0
LWPOLYLINE
  5
32
330
17
100
AcDbEntity
  8
default
100
AcDbPolyline
 90
7
 70
0
 10
19.1710133858181
 20
27.556828540186523
 10
19.26535823324303
 20
29.123892882809606
 10
19.40995973904087
 20
32.51226416896478
 10
15.0
 20
35.567674095914725
 10
15.0
 20
23.402019641633366
 10
15.873213143553585
 20
22.7970199896954
 10
19.1710133858181
 20
27.556828540186523
  0
LWPOLYLINE
  5
33
330
17
100
AcDbEntity
  8
default
100
AcDbPolyline
 90
13
 70
0
 10
19.74685532937835
 20
38.39267012808991
 10
19.756444045782253
 20
38.54386517682581
 10
19.93682554573309
 20
40.83743235563452
 10
20.082550361009584
 20
43.38424099328134
 10
20.09320689650764
 20
43.5320432411169
 10
20.27176925697364
 20
45.58417395509471
 10
20.416451267155505
 20
48.02899491677955
 10
20.429576465963233
 20
48.20062720383223
 10
20.485698223830788
 20
48.79886247805464
 10
15.0
 20
52.59959033058259
 10
15.0
 20
40.43393587670001
 10
19.688640984766447
 20
37.18544358730914
 10
19.74685532937835
 20
38.39267012808991
  0
LWPOLYLINE
  5
34
330
17
100
AcDbEntity
  8
default
100
AcDbPolyline
 90
10
 70
0
 10
21.107305640680075
 20
56.21384768593155
 10
21.282248745624006
 20
57.730838885316906
 10
21.42420655112254
 20
59.4745424600695
 10
21.44389244491719
 20
59.66918278672842
 10
21.598270061536848
 20
60.94559752922173
 10
17.42177436221391
 20
55.787942591588944
 10
20.87164344558871
 20
53.39772479660268
 10
20.9451671444679
 20
54.094526913059326
 10
21.088231996230938
 20
56.01288328826348
 10
21.107305640680075
 20
56.21384768593155
  0
LWPOLYLINE
  5
35
330
17
100
AcDbEntity
  8
default
100
AcDbPolyline
 90
5
 70
0
 10
15.0
 20
59.15338169743007
 10
21.249904485885054
 20
66.87153898831457
 10
20.66635254956782
 20
71.25200739130378
 10
15.0
 20
73.32209916326289
 10
15.0
 20
59.15338169743007
  0
LWPOLYLINE
  5
36
330
17
100
AcDbEntity
  8
default
100
AcDbPolyline
 90
20
 70
0
 10
22.11219956772402
 20
74.982370485086
 10
23.226115966908
 20
75.882679838941
 10
23.29483028840076
 20
76.36588526528907
 10
23.43356222643977
 20
77.72508387226866
 10
23.46343466068189
 20
77.9617252171436
 10
23.63113414436244
 20
79.07565812461885
 10
23.768132031743622
 20
80.38662226707008
 10
23.804055205715624
 20
80.6581842831486
 10
23.971753852514404
 20
81.70455128849504
 10
24.108159591447762
 20
82.87217206456779
 10
24.145878067285338
 20
83.13450432872635
 10
24.30877342618767
 20
84.0874138152926
 10
24.44242098228482
 20
85.21586533105078
 10
24.47985377116865
 20
85.47405706385192
 10
24.565277474045146
 20
85.97149212137961
 10
24.652041515801102
 20
87.98476367816329
 10
18.48935468494892
 20
89.12711286032572
 10
15.0
 20
85.4994725441248
 10
15.0
 20
77.58067436357722
 10
22.11219956772402
 20
74.982370485086
  0
LWPOLYLINE
  5
37
330
17
100
AcDbEntity
  8
default
100
AcDbPolyline
 90
19
 70
0
 10
25.49070743196266
 20
92.18459487429396
 10
25.6541119930597
 20
93.07025221693179
 10
25.787094261360874
 20
94.04338149474498
 10
25.836519296725463
 20
94.33879980737682
 10
25.99296869991108
 20
95.12789172009785
 10
26.1218656673716
 20
96.05652919667276
 10
26.170343478616708
 20
96.34397857128798
 10
26.326490095378674
 20
97.12946727486684
 10
26.455219628554964
 20
98.05669417450699
 10
26.503679956516635
 20
98.34401077073386
 10
26.659824627977553
 20
99.12947643974869
 10
26.78855308790184
 20
100.05669436123739
 10
26.83701643456964
 20
100.3440258687751
 10
26.993173715645327
 20
101.1295417189514
 10
27.08248967075945
 20
101.77273365509636
 10
15.968124059028924
 20
103.83295297296718
 10
19.343961180187762
 20
93.03683865536004
 10
25.447988244440072
 20
91.90536296768686
 10
25.49070743196266
 20
92.18459487429396
  0
LWPOLYLINE
  5
38
330
17
100
AcDbEntity
  8
default
100
AcDbPolyline
 90
23
 70
0
 10
27.770917351058937
 20
105.71326326039039
 10
27.80497637882313
 20
105.92421051292126
 10
27.853871244663868
 20
106.18339850020453
 10
28.00125859552466
 20
106.86540903909791
 10
28.125041329489527
 20
107.72837907570333
 10
28.18783369962037
 20
108.07751651576417
 10
28.345711690340863
 20
108.80597170300044
 10
28.474032670290914
 20
109.58600266338274
 10
28.540569476859382
 20
109.91930081880317
 10
28.68619625591841
 20
110.53836861026177
 10
28.807366107328136
 20
111.27492907141301
 10
28.854504403835875
 20
111.52238014805852
 10
29.00148843556363
 20
112.20055769524134
 10
29.12506418928006
 20
113.06188742131674
 10
29.187841763174507
 20
113.41090271401369
 10
29.345737081656193
 20
114.1394110575004
 10
29.474066831073564
 20
114.91929041840854
 10
29.54137634595679
 20
115.25580558700713
 10
29.609118521318006
 20
115.54287505408566
 10
20.528001084923744
 20
117.22620042134076
 10
15.0
 20
109.38018093568257
 10
15.0
 20
108.0805500272079
 10
27.770917351058937
 20
105.71326326039039
  0
LWPOLYLINE
  5
39
330
17
100
AcDbEntity
  8
default
100
AcDbPolyline
 90
5
 70
0
 10
16.000699063763022
 20
129.36159501969814
 10
15.0
 20
129.76018864745078
 10
15.0
 20
116.32508178105374
 10
17.527254621032625
 20
119.91207257518545
 10
16.000699063763022
 20
129.36159501969814
  0
LWPOLYLINE
  5
3A
330
17
100
AcDbEntity
  8
default
100
AcDbPolyline
 90
26
 70
0
 10
30.543011972464402
 20
120.26518435875111
 10
30.690718298913676
 20
120.88716342533242
 10
30.812600589077846
 20
121.59986917202646
 10
30.90285394407771
 20
122.01871818511887
 10
31.052120256029834
 20
122.59111342083712
 10
31.173217439082766
 20
123.19110026366077
 10
31.236194084133615
 20
123.46358926696325
 10
31.366672532661674
 20
123.96392716102473
 10
31.47930539419666
 20
124.62236764839383
 10
31.54384091910705
 20
124.93805879063038
 10
31.69104685782643
 20
125.55596111581261
 10
31.812638843675977
 20
126.26677516213722
 10
31.90286756788315
 20
126.68545275469873
 10
32.05216495269653
 20
127.25794182911054
 10
32.17327910510832
 20
127.85781994949105
 10
32.23726747779365
 20
128.1341124031742
 10
32.3691116661722
 20
128.63793448228043
 10
32.482098144353984
 20
129.28564728039538
 10
32.57060768499229
 20
129.69226810130726
 10
32.63940697206828
 20
129.9551680573206
 10
22.650802243035287
 20
131.23995476402342
 10
19.991114869248122
 20
129.74193798471242
 10
21.38136539934203
 20
121.13615647424012
 10
30.397396391298074
 20
119.46489588474878
 10
30.476630025889623
 20
119.93718619758555
 10
30.543011972464402
 20
120.26518435875111
  0
LWPOLYLINE
  5
3B
330
17
100
AcDbEntity
  8
default
100
AcDbPolyline
 90
33
 70
0
 10
33.51486237493039
 20
133.87551556041484
 10
33.605929323576824
 20
134.24260947998334
 10
33.73562013001734
 20
134.68939211768352
 10
33.84454950125944
 20
135.21641018436083
 10
33.90503195869609
 20
135.47435540944485
 10
34.03621080034077
 20
135.97386865124776
 10
34.1488456580936
 20
136.61920712920008
 10
34.238372234346805
 20
137.02955250164928
 10
34.38931243633034
 20
137.60430183682612
 10
34.511282205373234
 20
138.19421731492153
 10
34.607386492982876
 20
138.58069976534165
 10
34.7395212439151
 20
139.03413375634622
 10
34.84947844560424
 20
139.55349827634734
 10
34.94218338708035
 20
139.9217520009893
 10
35.07344401277493
 20
140.3704411967701
 10
35.18288232175547
 20
140.88718113239082
 10
35.26979114709084
 20
141.23235630660562
 10
30.29578671448373
 20
147.17712622635872
 10
30.321538694008854
 20
147.00352048204488
 10
30.38124808327361
 20
145.78810794195832
 10
30.321538694008854
 20
144.57269540187175
 10
30.142985560273672
 20
143.36898794895833
 10
29.847308246353002
 20
142.188577944003
 10
29.43735428641357
 20
141.0428333806312
 10
28.917071761193213
 20
139.94278840531595
 10
28.291471275825174
 20
138.89903705251524
 10
27.56657770497155
 20
137.9216312183291
 10
26.749372169986803
 20
137.01998385524513
 10
25.847724806902818
 20
136.2027783202604
 10
24.87031897271668
 20
135.47788474940677
 10
24.758325134145764
 20
135.41075822585287
 10
24.670787062961608
 20
135.0130868931301
 10
33.51486237493039
 20
133.87551556041484
  0
LWPOLYLINE
  5
3C
330
17
100
AcDbEntity
  8
default
100
AcDbPolyline
 90
4
 70
0
 10
15.0
 20
165.4581579378166
 10
15.0
 20
158.6513567130804
 10
17.85021078493446
 20
162.05167779279873
 10
15.0
 20
165.4581579378166
  0
LWPOLYLINE
  5
3D
330
17
100
AcDbEntity
  8
default
100
AcDbPolyline
 90
6
 70
0
 10
28.066025615204126
 20
171.65883615100756
 10
20.67529400018975
 20
180.49200057331473
 10
16.066788480617106
 20
170.41652991669253
 10
21.454480128828436
 20
163.97733435826376
 10
25.560128645971417
 20
163.64924388146028
 10
28.066025615204126
 20
171.65883615100756
  0
LWPOLYLINE
  5
3E
330
17
100
AcDbEntity
  8
default
100
AcDbPolyline
 90
5
 70
0
 10
16.65675067016855
 20
184.7424287297763
 10
15.0
 20
184.35989566202753
 10
15.0
 20
177.70072714274863
 10
17.73907120944932
 20
183.68909614440054
 10
16.65675067016855
 20
184.7424287297763
  0
LWPOLYLINE
  5
3F
330
17
100
AcDbEntity
  8
default
100
AcDbPolyline
 90
6
 70
0
 10
40.38431785348803
 20
175.85932106012478
 10
40.63941765576601
 20
178.44829414831474
 10
33.49687495082617
 20
186.98483117716387
 10
23.58685098681599
 20
183.2455646409653
 10
31.097002847120166
 20
174.2696729870513
 10
40.38431785348803
 20
175.85932106012478
  0
LWPOLYLINE
  5
40
330
17
100
AcDbEntity
  8
default
100
AcDbPolyline
 90
7
 70
0
 10
35.743175184354186
 20
197.5243245176971
 10
33.028031336609274
 20
201.47509934101254
 10
24.219003424048424
 20
200.94948970433325
 10
19.189096923917532
 20
187.8595208413899
 10
20.66854571690783
 20
186.4196963487193
 10
32.6538848024793
 20
190.9420241988264
 10
35.743175184354186
 20
197.5243245176971
  0
LWPOLYLINE
  5
41
330
17
100
AcDbEntity
  8
default
100
AcDbPolyline
 90
40
 70
0
 10
19.152011041026846
 20
202.7093066421235
 10
19.00703797679792
 20
202.3870929392396
 10
18.894432157886737
 20
202.10856994157425
 10
18.818677707693574
 20
201.9311276081137
 10
18.771813655275395
 20
201.82696867388603
 10
18.71860721658242
 20
201.64785843456008
 10
18.592037847368424
 20
201.27597612221936
 10
18.48597189626977
 20
201.00034428040297
 10
18.39759778389084
 20
200.69298112772512
 10
18.25870451403516
 20
200.27893489624614
 10
18.144736823905006
 20
199.9827689352308
 10
18.051940549915738
 20
199.67038638809808
 10
17.818677707704524
 20
199.0426399754813
 10
17.67370464392976
 20
198.7204262736022
 10
17.561098825393895
 20
198.4419032765057
 10
17.485344417091483
 20
198.26446103593972
 10
17.4384807419979
 20
198.1603029345468
 10
17.38527444310128
 20
197.98119290781747
 10
17.258724164981135
 20
197.60935977825397
 10
17.152755430746694
 20
197.33397158089855
 10
17.064432284073952
 20
197.02664508661618
 10
16.92844938488172
 20
196.62003482624854
 10
16.820711500063865
 20
196.33861661275935
 10
16.731266061003204
 20
196.0272430728329
 10
16.59513538384661
 20
195.62010170619058
 10
16.487385645030106
 20
195.33864341343858
 10
16.39793272766991
 20
195.0272438403837
 10
16.26178271821502
 20
194.62005197572978
 10
16.153936455719894
 20
194.3383506728485
 10
16.064432284073938
 20
194.0269147205322
 10
15.925390831647878
 20
193.612335701768
 10
15.811411646939654
 20
193.31613019889392
 10
15.718607776434641
 20
193.00372162939286
 10
15.627445521708648
 20
192.7583897363567
 10
16.421641296707094
 20
191.8091925214976
 10
20.525134508963674
 20
202.48823762405664
 10
19.501850640106237
 20
203.71123355141805
 10
19.47807015723542
 20
203.64943560188766
 10
19.3852738832491
 20
203.33705305476485
 10
19.152011041026846
 20
202.7093066421235
  0
LWPOLYLINE
  5
42
330
17
100
AcDbEntity
  8
default
100
AcDbPolyline
 90
44
 70
0
 10
24.981485223903594
 20
217.94104022826662
 10
24.914614147579925
 20
217.81847659739168
 10
24.861816282084842
 20
217.69403166018893
 10
24.809294444586044
 20
217.57459594738137
 10
24.75841158040278
 20
217.46286653410456
 10
24.704498065183458
 20
217.28765248207378
 10
24.480658365119766
 20
216.6961841816109
 10
24.338003317469166
 20
216.38104329236174
 10
24.227343453125087
 20
216.10751071266128
 10
24.151952423375032
 20
215.93098164704935
 10
24.104993483594637
 20
215.82661978730943
 10
24.051756640172513
 20
215.64749194233767
 10
23.922271141359204
 20
215.2681932168887
 10
23.81005862929517
 20
214.97808033086352
 10
23.718423307208084
 20
214.66975179879472
 10
23.485285799436916
 20
214.04249415645145
 10
23.340114211605297
 20
213.7198638372502
 10
23.22734473116803
 20
213.44111609477935
 10
23.147354740260248
 20
213.25439639270036
 10
23.093575123475766
 20
213.1355866726965
 10
23.03803310464696
 20
212.95499198446154
 10
22.813991741836603
 20
212.36286809312304
 10
22.671107029340178
 20
212.04721983097158
 10
22.560259165174042
 20
211.7733979279359
 10
22.480658408503203
 20
211.58764780935573
 10
22.42689784100013
 20
211.46888472121188
 10
22.37136643798029
 20
211.28832455024425
 10
22.147354740260297
 20
210.69626619365297
 10
22.004684201524
 20
210.38107899497896
 10
21.894011397834607
 20
210.10751389508036
 10
21.818619132770205
 20
209.93098176531842
 10
21.77166016542758
 20
209.82661983851574
 10
21.718423307208187
 20
209.64749194358518
 10
21.588937808033318
 20
209.26819321691386
 10
21.47672529596484
 20
208.9780803308736
 10
21.385089973874805
 20
208.66975179879486
 10
21.151952466114594
 20
208.0424941564759
 10
21.131456658342263
 20
207.99694413458292
 10
23.701169547159225
 20
204.92570604244247
 10
32.264318289700896
 20
205.43664476834238
 10
32.80407737893984
 20
209.62961178831756
 10
25.291034266600573
 20
218.6089589738103
 10
25.19514961446742
 20
218.38295818030525
 10
24.981485223903594
 20
217.94104022826662
  0
LWPOLYLINE
  5
43
330
17
100
AcDbEntity
  8
default
100
AcDbPolyline
 90
45
 70
0
 10
32.97411969645472
 20
236.92488322269625
 10
32.91131862249246
 20
236.81061420582117
 10
32.86134166306412
 20
236.69289772098898
 10
32.809234076096516
 20
236.5744477576645
 10
32.75824631216469
 20
236.46249665010495
 10
32.70429485464901
 20
236.2872454343159
 10
32.47593086239578
 20
235.68602551458804
 10
32.31842387209418
 20
235.34018251056048
 10
32.19514816898563
 20
235.0496214171308
 10
31.98148508797307
 20
234.60770662296113
 10
31.91461320358971
 20
234.4851415275931
 10
31.86181483660311
 20
234.3606956645653
 10
31.809264239761745
 20
234.2411970358062
 10
31.758257499309074
 20
234.12919994092346
 10
31.70429547179233
 20
233.95391412896765
 10
31.47593090642848
 20
233.35269230124766
 10
31.31842389334926
 20
233.0068492277248
 10
31.195148169936502
 20
232.71628808604456
 10
30.981485087990684
 20
232.274373289666
 10
30.91461320359696
 20
232.15180819427684
 10
30.861814836603187
 20
232.0273623312321
 10
30.809264239761763
 20
231.90786370247287
 10
30.75825749930906
 20
231.79586660759003
 10
30.7042954717923
 20
231.6205807956342
 10
30.47593090642836
 20
231.01935896791403
 10
30.31842389334916
 20
230.6735158943913
 10
30.195148169936694
 20
230.38295475271164
 10
29.98148508799054
 20
229.94103995633233
 10
29.914613203596907
 20
229.81847486094335
 10
29.861814836603173
 20
229.69402899789873
 10
29.809264239761752
 20
229.57453036913952
 10
29.75825749930908
 20
229.46253327425677
 10
29.70429547179234
 20
229.28724746230097
 10
29.475930906428474
 20
228.68602563458094
 10
29.31842389334923
 20
228.34018256105804
 10
29.195148169936527
 20
228.04962141937793
 10
28.981485087990606
 20
227.60770662299916
 10
28.914613203596907
 20
227.48514152761007
 10
28.89656828545643
 20
227.44260961726087
 10
35.92454967368394
 20
230.5233277459629
 10
37.206762552727014
 20
233.51385365705937
 10
33.26743460704204
 20
237.5216935738459
 10
33.22321803809691
 20
237.44123979265902
 10
33.159242926586614
 20
237.29769472495786
 10
32.97411969645472
 20
236.92488322269625
  0
LWPOLYLINE
  5
44
330
17
100
AcDbEntity
  8
default
100
AcDbPolyline
 90
28
 70
0
 10
36.60885944466462
 20
146.58846717306744
 10
36.74011429571856
 20
147.03712549242476
 10
36.8495492042105
 20
147.55384884078893
 10
36.94219279168787
 20
147.92180055271518
 10
37.0734477803449
 20
148.3704593261958
 10
37.18288275304893
 20
148.88718244743936
 10
37.275535502886
 20
149.25516519703925
 10
37.406832486510055
 20
149.70395639441472
 10
37.51628669772633
 20
150.22059664847492
 10
37.61034841617873
 20
150.59329360094407
 10
37.74422385310538
 20
151.04911839816052
 10
37.85483975722834
 20
151.55871610663135
 10
37.99316334587189
 20
152.06574776067188
 10
38.133900759039854
 20
152.49199222840514
 10
38.246330570931896
 20
152.9095581169455
 10
38.326496698266126
 20
153.17726020905292
 10
38.42855518049148
 20
153.48635969211148
 10
38.52150665532015
 20
153.9145784829722
 10
38.61035791005352
 20
154.26296777114902
 10
38.7407634540173
 20
154.7069670639582
 10
38.849690926807334
 20
155.22094763485794
 10
38.943691257226824
 20
155.59334237709675
 10
38.99462875388006
 20
155.76677220977462
 10
33.73483659652993
 20
154.25731695536524
 10
32.81281704548746
 20
150.4022158482112
 10
36.47489654973857
 20
146.02541635466318
 10
36.51621587073522
 20
146.22051550726616
 10
36.60885944466462
 20
146.58846717306744
  0
LWPOLYLINE
  5
45
330
17
100
AcDbEntity
  8
default
100
AcDbPolyline
 90
31
 70
0
 10
40.23959966562688
 20
160.28551052184775
 10
40.283753749692
 20
160.36790015226654
 10
40.32652283251931
 20
160.5106883522147
 10
40.42862036810763
 20
160.8198888010231
 10
40.521582665674124
 20
161.2480094668254
 10
40.611853663601785
 20
161.60113136014044
 10
40.74484099858895
 20
162.0521528915726
 10
40.85491599900747
 20
162.5590829449489
 10
40.993189499190926
 20
163.06584262776934
 10
41.13399631462707
 20
163.49227339592449
 10
41.24647096098974
 20
163.90982620963618
 10
41.32857103195588
 20
164.18327552995487
 10
41.43343407869388
 20
164.49946596664603
 10
41.527188939103894
 20
164.92062003255438
 10
41.661917579646556
 20
165.40811147193787
 10
41.80160181626817
 20
165.82928537551643
 10
41.91327775930386
 20
166.24369529576055
 10
41.99526412834079
 20
166.51670419100313
 10
42.10016921623155
 20
166.83300361678485
 10
42.193937310397615
 20
167.25406786321324
 10
42.330670374223196
 20
167.7474685115236
 10
42.47536909381922
 20
168.18183818669672
 10
42.59036075344321
 20
168.59553074055614
 10
42.732164187562745
 20
169.0282539942948
 10
42.83596224409475
 20
169.30216761778215
 10
42.919708942702314
 20
169.60345369137687
 10
41.301470992621034
 20
171.95813326211646
 10
31.844430743716657
 20
170.3394344463013
 10
29.239980003796518
 20
162.01483500376344
 10
32.71587784867734
 20
158.12635269016027
 10
40.23959966562688
 20
160.28551052184775
  0
LWPOLYLINE
  5
46
330
17
100
AcDbEntity
  8
default
100
AcDbPolyline
 90
21
 70
0
 10
47.73817850576435
 20
185.37983107549792
 10
47.84593950449837
 20
185.6613279509655
 10
47.93539958477066
 20
185.97275332712604
 10
48.07153119801069
 20
186.37989802612597
 10
48.17928065739575
 20
186.66135562895386
 10
48.268733428045486
 20
186.9727551256247
 10
48.40486455960657
 20
187.3798981232609
 10
48.51261400187991
 20
187.66135566806307
 10
48.602066761714724
 20
187.9727551267999
 10
48.738197892947106
 20
188.3798981232856
 10
48.84594733521606
 20
188.66135566807296
 10
48.935400095048124
 20
188.97275512680017
 10
49.07153122628782
 20
189.37989812330486
 10
49.17928066877013
 20
189.66135566864605
 10
49.26420636485195
 20
189.95699568933753
 10
44.22217271756381
 20
195.98307193629444
 10
39.337320174090564
 20
195.76758770318702
 10
36.471977062523365
 20
189.66244815802202
 10
43.05064361775294
 20
181.79983774432912
 10
47.65313851953868
 20
185.1254363417979
 10
47.73817850576435
 20
185.37983107549792
  0
LWPOLYLINE
  5
47
330
17
100
AcDbEntity
  8
default
100
AcDbPolyline
 90
41
 70
0
 10
50.94805889023211
 20
194.68547375884935
 10
51.07460916835956
 20
195.0573068884318
 10
51.18057790280854
 20
195.33269508634143
 10
51.268901049595726
 20
195.6400215807401
 10
51.40488397671659
 20
196.04663191376733
 10
51.51262217499337
 20
196.32805093270525
 10
51.602067782275604
 20
196.63942462479068
 10
51.73821731004993
 20
197.04661478807574
 10
51.8460635554363
 20
197.32831603292857
 10
51.93556771626241
 20
197.63975194731077
 10
52.07460916835959
 20
198.05433096492408
 10
52.18858835306336
 20
198.35053646778292
 10
52.28139222356542
 20
198.662945037274
 10
52.51465558290852
 20
199.2906932395882
 10
52.659628669883595
 20
199.6129070109632
 10
52.772234507939515
 20
199.8914300563412
 10
52.84798895896221
 20
200.06887239185627
 10
52.89485301138748
 20
200.1730313261012
 10
52.94805945008425
 20
200.35214156543992
 10
53.07462881929815
 20
200.7240238777804
 10
53.18069477039687
 20
200.99965571959703
 10
53.2690688827758
 20
201.3070188722749
 10
53.40796215263907
 20
201.72106510377367
 10
53.52192984299743
 20
202.0172310653783
 10
53.61472611711943
 20
202.3296136126617
 10
53.84798900169339
 20
202.95736011901144
 10
53.99296274134244
 20
203.27957530513666
 10
54.10556911803009
 20
203.55809913674304
 10
54.181351557001186
 20
203.73560335608983
 10
54.22832920822999
 20
203.84001079212385
 10
54.281576131840225
 20
204.019172812793
 10
54.41106213389271
 20
204.39847327677512
 10
54.52327432556823
 20
204.68858536223735
 10
54.61490946554255
 20
204.99691372589456
 10
54.713183115854825
 20
205.2613254129573
 10
54.47422806825489
 20
205.54691679077223
 10
47.76177697815001
 20
197.98601412773132
 10
50.8183825478297
 20
194.33285758264051
 10
50.8479889162309
 20
194.4022056306968
 10
50.89485259133169
 20
194.50636373210727
 10
50.94805889023211
 20
194.68547375884935
  0
LWPOLYLINE
  5
48
330
17
100
AcDbEntity
  8
default
100
AcDbPolyline
 90
8
 70
0
 10
47.6475640386343
 20
215.1591411018744
 10
47.58270334172994
 20
215.1731504299678
 10
36.75582271069288
 20
208.99835754791275
 10
36.11774432146922
 20
204.04162463499233
 10
39.06075883889571
 20
199.75927780102938
 10
44.18796174414456
 20
199.98545277304947
 10
52.01589438179508
 20
208.80283347843215
 10
47.6475640386343
 20
215.1591411018744
  0
LWPOLYLINE
  5
49
330
17
100
AcDbEntity
  8
default
100
AcDbPolyline
 90
42
 70
0
 10
57.614910025756174
 20
212.99691486662434
 10
57.84804753387448
 20
213.6241725101607
 10
57.99321912125739
 20
213.94680282837396
 10
58.10598860132349
 20
214.2255505702873
 10
58.18597854970496
 20
214.41227017863844
 10
58.239757760892964
 20
214.53107900925198
 10
58.295299613197635
 20
214.71167342518586
 10
58.519311883038384
 20
215.30373368722982
 10
58.66198244495113
 20
215.61892095475173
 10
58.772655267990146
 20
215.89248610283275
 10
58.84804753388546
 20
216.06901823465134
 10
58.89500650123525
 20
216.1733801614714
 10
58.948243359458466
 20
216.35250805641488
 10
59.07772885863339
 20
216.73180678308637
 10
59.18994137070185
 20
217.02191966912656
 10
59.28157669279188
 20
217.33024820120528
 10
59.51471420056299
 20
217.95750584354846
 10
59.659885788394725
 20
218.28013616275
 10
59.77265526883214
 20
218.55888390522117
 10
59.852645259739774
 20
218.74560360729978
 10
59.90642487652435
 20
218.86441332730385
 10
59.96196689535314
 20
219.04500801553874
 10
60.1860082581745
 20
219.63713190690152
 10
60.32889297112852
 20
219.95278017005936
 10
60.439740835669426
 20
220.2266020736669
 10
60.519341634868866
 20
220.41235228597725
 10
60.57310260798079
 20
220.53111626350673
 10
60.62863417751098
 20
220.71167670678042
 10
60.852674968213535
 20
221.30379869269154
 10
60.99555965799946
 20
221.6194468869953
 10
61.10640750317946
 20
221.89326874242272
 10
61.186008301546686
 20
222.07901895267437
 10
61.239769274651465
 20
222.19778293018635
 10
61.29530084417765
 20
222.37834337344705
 10
61.42349832717379
 20
222.7171591220545
 10
56.65481276484206
 20
224.03648298513144
 10
51.30725613422692
 20
216.89629629673436
 10
55.20190797466785
 20
211.22923285607249
 10
57.36657509220795
 20
212.2681583687479
 10
57.41106216293343
 20
212.39847335138177
 10
57.52327469231873
 20
212.68858629607203
 10
57.614910025756174
 20
212.99691486662434
  0
LWPOLYLINE
  5
4A
330
17
100
AcDbEntity
  8
default
100
AcDbPolyline
 90
5
 70
0
 10
27.34036959055811
 20
222.39302260661498
 10
35.36063455604017
 20
212.8074601967819
 10
44.18731855740771
 20
217.84149976959452
 10
36.88015219848603
 20
226.5747896884568
 10
27.34036959055811
 20
222.39302260661498
  0
LWPOLYLINE
  5
4B
330
17
100
AcDbEntity
  8
default
100
AcDbPolyline
 90
7
 70
0
 10
52.94349352456629
 20
230.70444063004106
 10
42.47093932889402
 20
233.32787610497326
 10
41.150688513647765
 20
232.56171138212085
 10
39.77362601971254
 20
229.34996617399156
 10
48.144239333458245
 20
219.34567870013416
 10
53.733959627337754
 20
226.80920815793797
 10
52.94349352456629
 20
230.70444063004106
  0
LWPOLYLINE
  5
4C
330
17
100
AcDbEntity
  8
default
100
AcDbPolyline
 90
47
 70
0
 10
63.18600830155778
 20
227.0790189526989
 10
63.23976927494093
 20
227.19778293082413
 10
63.29530084458308
 20
227.3783433742846
 10
63.519341678252374
 20
227.97046545469144
 10
63.66222704814445
 20
228.28611513375228
 10
63.77307545000668
 20
228.55993782716087
 10
63.85270467952437
 20
228.74575050943602
 10
63.906588597895514
 20
228.8647815213711
 10
63.96216921779865
 20
229.04541324362026
 10
64.19070559945348
 20
229.6472250910409
 10
64.34822779380015
 20
229.9931148447585
 10
64.47151705315027
 20
230.28370848812224
 10
64.68518151072827
 20
230.7256265624883
 10
64.7520534347138
 20
230.84819173871392
 10
64.80485182911262
 20
230.97263766652094
 10
64.8574024268938
 20
231.09213629749698
 10
64.90840916735362
 20
231.20413339239704
 10
64.96237119487435
 20
231.37941920436577
 10
65.19073576023817
 20
231.9806410320857
 10
65.34824277331764
 20
232.32648410560913
 10
65.47151849673028
 20
232.61704524728907
 10
65.68518157867594
 20
233.0589600436673
 10
65.7520534630697
 20
233.18152513905653
 10
65.80485183006354
 20
233.30597100210142
 10
65.85740242690487
 20
233.42546963086045
 10
65.90840916735765
 20
233.53746672574343
 10
65.96237119487448
 20
233.7127525376995
 10
66.19073576023824
 20
234.31397436541917
 10
66.3482427733176
 20
234.65981743894233
 10
66.4715184967303
 20
234.95037858062238
 10
66.68518157869354
 20
235.39229337703287
 10
66.7520534636614
 20
235.51485847347217
 10
66.80485183101452
 20
235.63930433719534
 10
66.85740247093743
 20
235.7588030603966
 10
66.90840961953592
 20
235.87080104514894
 10
66.96237181201778
 20
236.04608713146715
 10
67.1907659239035
 20
236.64737318453595
 10
67.3289016360105
 20
236.9506703831458
 10
66.1578334895894
 20
241.2535625747405
 10
64.9057022370398
 20
242.03317090356722
 10
63.97923585167155
 20
241.9315978102386
 10
56.78601601300761
 20
231.8822218226269
 10
57.5883579114452
 20
227.9284682031721
 10
62.920348913459115
 20
226.45329797529612
 10
62.995559657999316
 20
226.61944688699498
 10
63.106407503179355
 20
226.89326874242252
 10
63.18600830155778
 20
227.0790189526989
  0
LWPOLYLINE
  5
4D
330
17
100
AcDbEntity
  8
default
100
AcDbPolyline
 90
15
 70
0
 10
53.81857560714707
 20
234.6088242828846
 10
59.952129498589784
 20
243.1777809644118
 10
55.9618117582646
 20
245.4370986968965
 10
55.83785853478805
 20
245.33355674126418
 10
54.76741568398805
 20
244.7365717057142
 10
53.69236069118804
 20
244.43352368321422
 10
52.63580236288805
 20
244.42191475071422
 10
51.70161532308804
 20
244.68856435511424
 10
50.88426289488804
 20
245.23159442421422
 10
50.176784770138035
 20
246.03362434826423
 10
49.67883918313803
 20
246.9498805476142
 10
49.67447239300349
 20
246.96556146736594
 10
48.13659312296659
 20
246.50439320364967
 10
44.778447705321014
 20
236.87342867581174
 10
53.81857560714707
 20
234.6088242828846
  0
LWPOLYLINE
  5
4E
330
17
100
AcDbEntity
  8
default
100
AcDbPolyline
 90
41
 70
0
 10
38.57796511438861
 20
249.47723308728553
 10
38.52800688176419
 20
249.35956095426283
 10
38.475900654667164
 20
249.24111420806952
 10
38.42491251035846
 20
249.12916227795324
 10
38.37096090335672
 20
248.95391083837652
 10
38.14256732134476
 20
248.35262659922626
 10
37.9848244938425
 20
248.0062791445277
 10
37.8613402160502
 20
247.71542301093461
 10
37.640739027904665
 20
247.26108994802007
 10
37.55621391546022
 20
247.10730035266587
 10
37.49204049010003
 20
246.96341216015364
 10
37.29996258675424
 20
246.57822315264409
 10
37.219736586681584
 20
246.43331542515122
 10
37.15870715676667
 20
246.29647662760811
 10
36.974072361237916
 20
245.9247807149684
 10
36.911298476424115
 20
245.81056648838964
 10
36.86134021605028
 20
245.69289428984618
 10
36.80923398802296
 20
245.57444754145803
 10
36.75824584398726
 20
245.46249561193795
 10
36.704294237096505
 20
245.28724417254955
 10
36.4759006987151
 20
244.6859600287687
 10
36.318158614928294
 20
244.33961418749533
 10
36.194674995444885
 20
244.0487590060975
 10
35.97411969643699
 20
243.5945086633573
 10
35.88988470476342
 20
243.44123979265873
 10
35.82590959325323
 20
243.29769472495784
 10
35.64078636310385
 20
242.9248832226644
 10
35.57798528856335
 20
242.81061420473915
 10
35.52800832877811
 20
242.69289771922587
 10
35.475900698726335
 20
242.57444766145596
 10
35.42491252663648
 20
242.4624956640323
 10
35.37096090416982
 20
242.28724417387627
 10
35.14256736539301
 20
241.6859600287992
 10
35.02873322798482
 20
241.43602051272106
 10
39.91212401725352
 20
236.4676988082938
 10
40.52475508349016
 20
236.82321937009692
 10
44.13093400374055
 20
247.1655294666998
 10
38.83300354523541
 20
249.98025042238288
 10
38.8253721849457
 20
249.96313959718424
 10
38.640738958780275
 20
249.59144723255167
 10
38.57796511438861
 20
249.47723308728553
  0
LWPOLYLINE
  5
4F
330
17
100
AcDbEntity
  8
default
100
AcDbPolyline
 90
9
 70
0
 10
64.2475377525924
 20
247.592502249478
 10
59.240580770295864
 20
250.11279259908076
 10
59.23455454843804
 20
250.10081260461413
 10
58.98605658963804
 20
249.60080342516417
 10
58.73440621648804
 20
249.10067405051416
 10
58.48685312440059
 20
248.6040842026613
 10
63.296719597652555
 20
245.88073801295832
 10
63.80038161901757
 20
245.93595697218552
 10
64.2475377525924
 20
247.592502249478
  0
LWPOLYLINE
  5
50
330
17
100
AcDbEntity
  8
default
100
AcDbPolyline
 90
30
 70
0
 10
50.234650438138026
 20
252.06342823821416
 10
50.42097556753227
 20
252.45642214115642
 10
50.546238609437204
 20
254.48915667043858
 10
42.85408584295162
 20
258.3610609934815
 10
42.82483382106645
 20
258.2955194836833
 10
42.63319949336358
 20
257.9113666639301
 10
42.552707711674984
 20
257.76599252939116
 10
42.491500487733106
 20
257.6288528170166
 10
42.299866160048346
 20
257.24469999729615
 10
42.2193743789927
 20
257.0993258638978
 10
42.15816715548028
 20
256.9621861522901
 10
41.96653289700465
 20
256.578033457097
 10
41.886042051855874
 20
256.4326610040602
 10
41.8248354624683
 20
256.2955224166578
 10
41.63324770932601
 20
255.9114530028615
 10
41.55304863532179
 20
255.766600715276
 10
41.49203885161237
 20
255.62980626385087
 10
41.30740562544656
 20
255.25811389921762
 10
41.24463178105525
 20
255.14389975395216
 10
41.19467354843105
 20
255.02622762092994
 10
41.142567321333736
 20
254.90778087473595
 10
41.09157917702496
 20
254.79582894461953
 10
41.03762757002322
 20
254.62057750504286
 10
40.80923398800043
 20
254.019293265869
 10
40.65149115999888
 20
253.67294581007906
 10
40.606683184643835
 20
253.56740464580096
 10
46.79688984667882
 20
250.27862904779613
 10
49.90585901090805
 20
251.2109245405962
 10
49.98704372683804
 20
251.4585248515142
 10
50.234650438138026
 20
252.06342823821416
  0
LWPOLYLINE
  5
51
330
17
100
AcDbEntity
  8
default
100
AcDbPolyline
 90
65
 70
0
 10
24.15139338864123
 20
146.3958142120016
 10
24.062116821773643
 20
146.9976679384583
 10
23.914278164813307
 20
147.587872940936
 10
23.70930118484359
 20
148.16074522262187
 10
23.449159922233413
 20
148.7107677102795
 10
23.136359679549393
 20
149.23264338667985
 10
22.77391289412258
 20
149.72134630377292
 10
22.365310126630206
 20
150.17216998531492
 10
21.914486445088215
 20
150.5807727528073
 10
21.425783527995144
 20
150.9432195382341
 10
20.9039078515948
 20
151.2560197809181
 10
20.35388536393717
 20
151.51616104352829
 10
19.781013082251278
 20
151.721138023498
 10
19.190808079773607
 20
151.86897668045833
 10
18.588954353316886
 20
151.95825324732593
 10
17.981248083273613
 20
151.9881079419583
 10
17.37354181323034
 20
151.95825324732593
 10
16.771688086773615
 20
151.86897668045833
 10
16.181483084295945
 20
151.721138023498
 10
15.608610802610052
 20
151.51616104352829
 10
15.058588314952425
 20
151.2560197809181
 10
14.536712638552078
 20
150.9432195382341
 10
14.048009721459009
 20
150.5807727528073
 10
13.597186039917016
 20
150.17216998531492
 10
13.188583272424642
 20
149.72134630377292
 10
12.82613648699783
 20
149.23264338667985
 10
12.513336244313813
 20
148.7107677102795
 10
12.253194981703635
 20
148.16074522262187
 10
12.048218001733918
 20
147.587872940936
 10
11.900379344773583
 20
146.9976679384583
 10
11.811102777905992
 20
146.3958142120016
 10
11.781248083273614
 20
145.78810794195832
 10
11.811102777905992
 20
145.18040167191504
 10
11.900379344773583
 20
144.57854794545833
 10
12.048218001733918
 20
143.98834294298064
 10
12.253194981703635
 20
143.41547066129476
 10
12.513336244313813
 20
142.86544817363713
 10
12.826136486997832
 20
142.34357249723678
 10
13.188583272424644
 20
141.8548695801437
 10
13.59718603991702
 20
141.4040458986017
 10
14.04800972145901
 20
140.99544313110934
 10
14.53671263855208
 20
140.63299634568253
 10
15.058588314952427
 20
140.32019610299852
 10
15.608610802610055
 20
140.06005484038835
 10
16.181483084295948
 20
139.85507786041862
 10
16.77168808677362
 20
139.7072392034583
 10
17.373541813230336
 20
139.6179626365907
 10
17.981248083273613
 20
139.58810794195833
 10
18.58895435331689
 20
139.6179626365907
 10
19.190808079773607
 20
139.7072392034583
 10
19.781013082251278
 20
139.85507786041862
 10
20.35388536393717
 20
140.06005484038835
 10
20.9039078515948
 20
140.32019610299852
 10
21.425783527995147
 20
140.63299634568253
 10
21.914486445088215
 20
140.99544313110934
 10
22.365310126630206
 20
141.4040458986017
 10
22.77391289412258
 20
141.8548695801437
 10
23.136359679549393
 20
142.34357249723678
 10
23.449159922233413
 20
142.86544817363713
 10
23.70930118484359
 20
143.41547066129476
 10
23.914278164813307
 20
143.98834294298064
 10
24.062116821773643
 20
144.57854794545833
 10
24.15139338864123
 20
145.18040167191504
 10
24.181248083273612
 20
145.78810794195832
 10
24.15139338864123
 20
146.3958142120016
  0
ENDSEC
  0
SECTION
  2
OBJECTS
  0
DICTIONARY
  5
A
330
0
100
AcDbDictionary
280
0
281
1
  3
ACAD_COLOR
350
B
  3
ACAD_GROUP
350
C
  3
ACAD_LAYOUT
350
D
  3
ACAD_MATERIAL
350
E
  3
ACAD_MLEADERSTYLE
350
F
  3
ACAD_MLINESTYLE
350
10
  3
ACAD_PLOTSETTINGS
350
11
  3
ACAD_PLOTSTYLENAME
350
12
  3
ACAD_SCALELIST
350
14
  3
ACAD_TABLESTYLE
350
15
  3
ACAD_VISUALSTYLE
350
16
  3
EZDXF_META
350
2D
  0
DICTIONARY
  5
B
330
A
100
AcDbDictionary
280
0
281
1
  0
DICTIONARY
  5
C
330
A
100
AcDbDictionary
280
0
281
1
  0
DICTIONARY
  5
D
330
A
100
AcDbDictionary
280
0
281
1
  3
Model
350
1A
  3
Layout1
350
1E
  0
DICTIONARY
  5
E
330
A
100
AcDbDictionary
280
0
281
1
  3
ByBlock
350
1F
  3
ByLayer
350
20
  3
Global
350
21
  0
DICTIONARY
  5
F
330
A
100
AcDbDictionary
280
0
281
1
  3
Standard
350
2C
  0
DICTIONARY
  5
10
330
A
100
AcDbDictionary
280
0
281
1
  3
Standard
350
22
  0
DICTIONARY
  5
11
330
A
100
AcDbDictionary
280
0
281
1
  0
ACDBDICTIONARYWDFLT
  5
12
330
A
100
AcDbDictionary
280
0
281
1
  3
Normal
350
13
100
AcDbDictionaryWithDefault
340
13
  0
ACDBPLACEHOLDER
  5
13
330
12
  0
DICTIONARY
  5
14
330
A
100
AcDbDictionary
280
0
281
1
  0
DICTIONARY
  5
15
330
A
100
AcDbDictionary
280
0
281
1
  0
DICTIONARY
  5
16
330
A
100
AcDbDictionary
280
0
281
1
  0
LAYOUT
  5
1A
330
D
100
AcDbPlotSettings
  1

  2
Adobe PDF
  4
A3
  6

 40
7.5
 41
20.0
 42
7.5
 43
20.0
 44
420.0
 45
297.0
 46
0.0
 47
0.0
 48
0.0
 49
0.0
140
0.0
141
0.0
142
1.0
143
1.0
 70
1024
 72
1
 73
0
 74
5
  7

 75
16
 76
0
 77
2
 78
300
147
1.0
148
0.0
149
0.0
100
AcDbLayout
  1
Model
 70
1
 71
0
 10
0.0
 20
0.0
 11
420.0
 21
297.0
 12
0.0
 22
0.0
 32
0.0
 14
1e+20
 24
1e+20
 34
1e+20
 15
-1e+20
 25
-1e+20
 35
-1e+20
146
0.0
 13
0.0
 23
0.0
 33
0.0
 16
1.0
 26
0.0
 36
0.0
 17
0.0
 27
1.0
 37
0.0
 76
1
330
17
  0
LAYOUT
  5
1E
330
D
100
AcDbPlotSettings
  1

  2
Adobe PDF
  4
A3
  6

 40
7.5
 41
20.0
 42
7.5
 43
20.0
 44
420.0
 45
297.0
 46
0.0
 47
0.0
 48
0.0
 49
0.0
140
0.0
141
0.0
142
1.0
143
1.0
 70
0
 72
1
 73
0
 74
5
  7

 75
16
 76
0
 77
2
 78
300
147
1.0
148
0.0
149
0.0
100
AcDbLayout
  1
Layout1
 70
1
 71
1
 10
0.0
 20
0.0
 11
420.0
 21
297.0
 12
0.0
 22
0.0
 32
0.0
 14
1e+20
 24
1e+20
 34
1e+20
 15
-1e+20
 25
-1e+20
 35
-1e+20
146
0.0
 13
0.0
 23
0.0
 33
0.0
 16
1.0
 26
0.0
 36
0.0
 17
0.0
 27
1.0
 37
0.0
 76
1
330
1B
  0
MATERIAL
  5
1F
102
{ACAD_REACTORS
330
E
102
}
330
E
100
AcDbMaterial
  1
ByBlock
  2

 70
0
 40
1.0
 71
1
 41
1.0
 91
-1023410177
 42
1.0
 72
1
  3

 73
1
 74
1
 75
1
 44
0.5
 73
0
 45
1.0
 46
1.0
 77
1
  4

 78
1
 79
1
170
1
 48
1.0
171
1
  6

172
1
173
1
174
1
140
1.0
141
1.0
175
1
  7

176
1
177
1
178
1
143
1.0
179
1
  8

270
1
271
1
272
1
145
1.0
146
1.0
273
1
  9

274
1
275
1
276
1
 42
1.0
 72
1
  3

 73
1
 74
1
 75
1
 94
63
  0
MATERIAL
  5
20
102
{ACAD_REACTORS
330
E
102
}
330
E
100
AcDbMaterial
  1
ByLayer
  2

 70
0
 40
1.0
 71
1
 41
1.0
 91
-1023410177
 42
1.0
 72
1
  3

 73
1
 74
1
 75
1
 44
0.5
 73
0
 45
1.0
 46
1.0
 77
1
  4

 78
1
 79
1
170
1
 48
1.0
171
1
  6

172
1
173
1
174
1
140
1.0
141
1.0
175
1
  7

176
1
177
1
178
1
143
1.0
179
1
  8

270
1
271
1
272
1
145
1.0
146
1.0
273
1
  9

274
1
275
1
276
1
 42
1.0
 72
1
  3

 73
1
 74
1
 75
1
 94
63
  0
MATERIAL
  5
21
102
{ACAD_REACTORS
330
E
102
}
330
E
100
AcDbMaterial
  1
Global
  2

 70
0
 40
1.0
 71
1
 41
1.0
 91
-1023410177
 42
1.0
 72
1
  3

 73
1
 74
1
 75
1
 44
0.5
 73
0
 45
1.0
 46
1.0
 77
1
  4

 78
1
 79
1
170
1
 48
1.0
171
1
  6

172
1
173
1
174
1
140
1.0
141
1.0
175
1
  7

176
1
177
1
178
1
143
1.0
179
1
  8

270
1
271
1
272
1
145
1.0
146
1.0
273
1
  9

274
1
275
1
276
1
 42
1.0
 72
1
  3

 73
1
 74
1
 75
1
 94
63
  0
MLINESTYLE
  5
22
102
{ACAD_REACTORS
330
10
102
}
330
10
100
AcDbMlineStyle
  2
Standard
 70
0
  3

 62
256
 51
90.0
 52
90.0
 71
2
 49
0.5
 62
256
  6
BYLAYER
 49
-0.5
 62
256
  6
BYLAYER
  0
MLEADERSTYLE
  5
2C
102
{ACAD_REACTORS
330
F
102
}
330
F
100
AcDbMLeaderStyle
179
2
170
2
171
1
172
0
 90
2
 40
0.0
 41
0.0
173
1
 91
-1056964608
 92
-2
290
1
 42
2.0
291
1
 43
8.0
  3
Standard
 44
4.0
300

342
29
174
1
175
1
176
0
178
1
 93
-1056964608
 45
4.0
292
0
297
0
 46
4.0
 94
-1056964608
 47
1.0
 49
1.0
140
1.0
294
1
141
0.0
177
0
142
1.0
295
0
296
0
143
3.75
271
0
272
9
273
9
  0
DICTIONARY
  5
2D
330
A
100
AcDbDictionary
281
1
  3
CREATED_BY_EZDXF
350
2E
  3
WRITTEN_BY_EZDXF
350
54
  0
DICTIONARYVAR
  5
2E
330
2D
100
DictionaryVariables
280
0
  1
1.1.1 @ 2023-10-14T00:49:08.937055+00:00
  0
DICTIONARYVAR
  5
54
330
2D
100
DictionaryVariables
280
0
  1
1.1.1 @ 2023-10-14T00:49:08.954053+00:00
  0
ENDSEC
  0
EOF
