  0
SECTION
  2
HEADER
  9
$ACADVER
  1
AC1024
  9
$ACADMAINTVER
 70
6
  9
$DWGCODEPAGE
  3
ANSI_1252
  9
$LASTSAVEDBY
  1
ezdxf
  9
$INSBASE
 10
0.0
 20
0.0
 30
0.0
  9
$EXTMIN
 10
1e+20
 20
1e+20
 30
1e+20
  9
$EXTMAX
 10
-1e+20
 20
-1e+20
 30
-1e+20
  9
$LIMMIN
 10
0.0
 20
0.0
  9
$LIMMAX
 10
420.0
 20
297.0
  9
$ORTHOMODE
 70
0
  9
$REGENMODE
 70
1
  9
$FILLMODE
 70
1
  9
$QTEXTMODE
 70
0
  9
$MIRRTEXT
 70
1
  9
$LTSCALE
 40
1.0
  9
$ATTMODE
 70
1
  9
$TEXTSIZE
 40
2.5
  9
$TRACEWID
 40
1.0
  9
$TEXTSTYLE
  7
Standard
  9
$CLAYER
  8
0
  9
$CELTYPE
  6
ByLayer
  9
$CECOLOR
 62
256
  9
$CELTSCALE
 40
1.0
  9
$DISPSILH
 70
0
  9
$DIMSCALE
 40
1.0
  9
$DIMASZ
 40
2.5
  9
$DIMEXO
 40
0.625
  9
$DIMDLI
 40
3.75
  9
$DIMRND
 40
0.0
  9
$DIMDLE
 40
0.0
  9
$DIMEXE
 40
1.25
  9
$DIMTP
 40
0.0
  9
$DIMTM
 40
0.0
  9
$DIMTXT
 40
2.5
  9
$DIMCEN
 40
2.5
  9
$DIMTSZ
 40
0.0
  9
$DIMTOL
 70
0
  9
$DIMLIM
 70
0
  9
$DIMTIH
 70
0
  9
$DIMTOH
 70
0
  9
$DIMSE1
 70
0
  9
$DIMSE2
 70
0
  9
$DIMTAD
 70
1
  9
$DIMZIN
 70
8
  9
$DIMBLK
  1

  9
$DIMASO
 70
1
  9
$DIMSHO
 70
1
  9
$DIMPOST
  1

  9
$DIMAPOST
  1

  9
$DIMALT
 70
0
  9
$DIMALTD
 70
3
  9
$DIMALTF
 40
0.03937007874
  9
$DIMLFAC
 40
1.0
  9
$DIMTOFL
 70
1
  9
$DIMTVP
 40
0.0
  9
$DIMTIX
 70
0
  9
$DIMSOXD
 70
0
  9
$DIMSAH
 70
0
  9
$DIMBLK1
  1

  9
$DIMBLK2
  1

  9
$DIMSTYLE
  2
ISO-25
  9
$DIMCLRD
 70
0
  9
$DIMCLRE
 70
0
  9
$DIMCLRT
 70
0
  9
$DIMTFAC
 40
1.0
  9
$DIMGAP
 40
0.625
  9
$DIMJUST
 70
0
  9
$DIMSD1
 70
0
  9
$DIMSD2
 70
0
  9
$DIMTOLJ
 70
0
  9
$DIMTZIN
 70
8
  9
$DIMALTZ
 70
0
  9
$DIMALTTZ
 70
0
  9
$DIMUPT
 70
0
  9
$DIMDEC
 70
2
  9
$DIMTDEC
 70
2
  9
$DIMALTU
 70
2
  9
$DIMALTTD
 70
3
  9
$DIMTXSTY
  7
Standard
  9
$DIMAUNIT
 70
0
  9
$DIMADEC
 70
0
  9
$DIMALTRND
 40
0.0
  9
$DIMAZIN
 70
0
  9
$DIMDSEP
 70
44
  9
$DIMATFIT
 70
3
  9
$DIMFRAC
 70
0
  9
$DIMLDRBLK
  1

  9
$DIMLUNIT
 70
2
  9
$DIMLWD
 70
-2
  9
$DIMLWE
 70
-2
  9
$DIMTMOVE
 70
0
  9
$DIMFXL
 40
1.0
  9
$DIMFXLON
 70
0
  9
$DIMJOGANG
 40
0.785398163397
  9
$DIMTFILL
 70
0
  9
$DIMTFILLCLR
 70
0
  9
$DIMARCSYM
 70
0
  9
$DIMLTYPE
  6

  9
$DIMLTEX1
  6

  9
$DIMLTEX2
  6

  9
$DIMTXTDIRECTION
 70
0
  9
$LUNITS
 70
2
  9
$LUPREC
 70
4
  9
$SKETCHINC
 40
1.0
  9
$FILLETRAD
 40
10.0
  9
$AUNITS
 70
0
  9
$AUPREC
 70
2
  9
$MENU
  1
.
  9
$ELEVATION
 40
0.0
  9
$PELEVATION
 40
0.0
  9
$THICKNESS
 40
0.0
  9
$LIMCHECK
 70
0
  9
$CHAMFERA
 40
0.0
  9
$CHAMFERB
 40
0.0
  9
$CHAMFERC
 40
0.0
  9
$CHAMFERD
 40
0.0
  9
$SKPOLY
 70
0
  9
$TDCREATE
 40
2460249.542349537
  9
$TDUCREATE
 40
2458532.153996898
  9
$TDUPDATE
 40
2460249.542349537
  9
$TDUUPDATE
 40
2458532.1544311
  9
$TDINDWG
 40
0.0
  9
$TDUSRTIMER
 40
0.0
  9
$USRTIMER
 70
1
  9
$ANGBASE
 50
0.0
  9
$ANGDIR
 70
0
  9
$PDMODE
 70
0
  9
$PDSIZE
 40
0.0
  9
$PLINEWID
 40
0.0
  9
$SPLFRAME
 70
0
  9
$SPLINETYPE
 70
6
  9
$SPLINESEGS
 70
8
  9
$HANDSEED
  5
3B
  9
$SURFTAB1
 70
6
  9
$SURFTAB2
 70
6
  9
$SURFTYPE
 70
6
  9
$SURFU
 70
6
  9
$SURFV
 70
6
  9
$UCSBASE
  2

  9
$UCSNAME
  2

  9
$UCSORG
 10
0.0
 20
0.0
 30
0.0
  9
$UCSXDIR
 10
1.0
 20
0.0
 30
0.0
  9
$UCSYDIR
 10
0.0
 20
1.0
 30
0.0
  9
$UCSORTHOREF
  2

  9
$UCSORTHOVIEW
 70
0
  9
$UCSORGTOP
 10
0.0
 20
0.0
 30
0.0
  9
$UCSORGBOTTOM
 10
0.0
 20
0.0
 30
0.0
  9
$UCSORGLEFT
 10
0.0
 20
0.0
 30
0.0
  9
$UCSORGRIGHT
 10
0.0
 20
0.0
 30
0.0
  9
$UCSORGFRONT
 10
0.0
 20
0.0
 30
0.0
  9
$UCSORGBACK
 10
0.0
 20
0.0
 30
0.0
  9
$PUCSBASE
  2

  9
$PUCSNAME
  2

  9
$PUCSORG
 10
0.0
 20
0.0
 30
0.0
  9
$PUCSXDIR
 10
1.0
 20
0.0
 30
0.0
  9
$PUCSYDIR
 10
0.0
 20
1.0
 30
0.0
  9
$PUCSORTHOREF
  2

  9
$PUCSORTHOVIEW
 70
0
  9
$PUCSORGTOP
 10
0.0
 20
0.0
 30
0.0
  9
$PUCSORGBOTTOM
 10
0.0
 20
0.0
 30
0.0
  9
$PUCSORGLEFT
 10
0.0
 20
0.0
 30
0.0
  9
$PUCSORGRIGHT
 10
0.0
 20
0.0
 30
0.0
  9
$PUCSORGFRONT
 10
0.0
 20
0.0
 30
0.0
  9
$PUCSORGBACK
 10
0.0
 20
0.0
 30
0.0
  9
$USERI1
 70
0
  9
$USERI2
 70
0
  9
$USERI3
 70
0
  9
$USERI4
 70
0
  9
$USERI5
 70
0
  9
$USERR1
 40
0.0
  9
$USERR2
 40
0.0
  9
$USERR3
 40
0.0
  9
$USERR4
 40
0.0
  9
$USERR5
 40
0.0
  9
$WORLDVIEW
 70
1
  9
$SHADEDGE
 70
3
  9
$SHADEDIF
 70
70
  9
$TILEMODE
 70
1
  9
$MAXACTVP
 70
64
  9
$PINSBASE
 10
0.0
 20
0.0
 30
0.0
  9
$PLIMCHECK
 70
0
  9
$PEXTMIN
 10
1e+20
 20
1e+20
 30
1e+20
  9
$PEXTMAX
 10
-1e+20
 20
-1e+20
 30
-1e+20
  9
$PLIMMIN
 10
0.0
 20
0.0
  9
$PLIMMAX
 10
420.0
 20
297.0
  9
$UNITMODE
 70
0
  9
$VISRETAIN
 70
1
  9
$PLINEGEN
 70
0
  9
$PSLTSCALE
 70
1
  9
$TREEDEPTH
 70
3020
  9
$CMLSTYLE
  2
Standard
  9
$CMLJUST
 70
0
  9
$CMLSCALE
 40
20.0
  9
$PROXYGRAPHICS
 70
1
  9
$MEASUREMENT
 70
1
  9
$CELWEIGHT
370
-1
  9
$ENDCAPS
280
0
  9
$JOINSTYLE
280
0
  9
$LWDISPLAY
290
0
  9
$INSUNITS
 70
4
  9
$HYPERLINKBASE
  1

  9
$STYLESHEET
  1

  9
$XEDIT
290
1
  9
$CEPSNTYPE
380
0
  9
$PSTYLEMODE
290
1
  9
$FINGERPRINTGUID
  2
{8ED20C43-CA44-457F-B650-742DCB451F8E}
  9
$VERSIONGUID
  2
{FE49D6AC-218A-4ED8-BD21-1FCFA2BAA520}
  9
$EXTNAMES
290
1
  9
$PSVPSCALE
 40
0.0
  9
$OLESTARTUP
290
0
  9
$SORTENTS
280
127
  9
$INDEXCTL
280
0
  9
$HIDETEXT
280
1
  9
$XCLIPFRAME
280
0
  9
$HALOGAP
280
0
  9
$OBSCOLOR
 70
257
  9
$OBSLTYPE
280
0
  9
$INTERSECTIONDISPLAY
280
0
  9
$INTERSECTIONCOLOR
 70
257
  9
$DIMASSOC
280
2
  9
$PROJECTNAME
  1

  9
$CAMERADISPLAY
290
0
  9
$LENSLENGTH
 40
50.0
  9
$CAMERAHEIGHT
 40
0.0
  9
$STEPSPERSEC
 40
24.0
  9
$STEPSIZE
 40
100.0
  9
$3DDWFPREC
 40
2.0
  9
$PSOLWIDTH
 40
0.005
  9
$PSOLHEIGHT
 40
0.08
  9
$LOFTANG1
 40
1.570796326795
  9
$LOFTANG2
 40
1.570796326795
  9
$LOFTMAG1
 40
0.0
  9
$LOFTMAG2
 40
0.0
  9
$LOFTPARAM
 70
7
  9
$LOFTNORMALS
280
1
  9
$LATITUDE
 40
37.795
  9
$LONGITUDE
 40
-122.394
  9
$NORTHDIRECTION
 40
0.0
  9
$TIMEZONE
 70
-8000
  9
$LIGHTGLYPHDISPLAY
280
1
  9
$TILEMODELIGHTSYNCH
280
1
  9
$CMATERIAL
347
20
  9
$SOLIDHIST
280
0
  9
$SHOWHIST
280
1
  9
$DWFFRAME
280
2
  9
$DGNFRAME
280
2
  9
$REALWORLDSCALE
290
1
  9
$INTERFERECOLOR
 62
256
  9
$CSHADOW
280
0
  9
$SHADOWPLANELOCATION
 40
0.0
  0
ENDSEC
  0
SECTION
  2
CLASSES
  0
CLASS
  1
ACDBDICTIONARYWDFLT
  2
AcDbDictionaryWithDefault
  3
ObjectDBX Classes
 90
0
 91
0
280
0
281
0
  0
CLASS
  1
SUN
  2
AcDbSun
  3
SCENEOE
 90
1153
 91
0
280
0
281
0
  0
CLASS
  1
VISUALSTYLE
  2
AcDbVisualStyle
  3
ObjectDBX Classes
 90
4095
 91
0
280
0
281
0
  0
CLASS
  1
MATERIAL
  2
AcDbMaterial
  3
ObjectDBX Classes
 90
1153
 91
0
280
0
281
0
  0
CLASS
  1
SCALE
  2
AcDbScale
  3
ObjectDBX Classes
 90
1153
 91
0
280
0
281
0
  0
CLASS
  1
TABLESTYLE
  2
AcDbTableStyle
  3
ObjectDBX Classes
 90
4095
 91
0
280
0
281
0
  0
CLASS
  1
MLEADERSTYLE
  2
AcDbMLeaderStyle
  3
ACDB_MLEADERSTYLE_CLASS
 90
4095
 91
0
280
0
281
0
  0
CLASS
  1
DICTIONARYVAR
  2
AcDbDictionaryVar
  3
ObjectDBX Classes
 90
0
 91
0
280
0
281
0
  0
CLASS
  1
CELLSTYLEMAP
  2
AcDbCellStyleMap
  3
ObjectDBX Classes
 90
1152
 91
0
280
0
281
0
  0
CLASS
  1
MENTALRAYRENDERSETTINGS
  2
AcDbMentalRayRenderSettings
  3
SCENEOE
 90
1024
 91
0
280
0
281
0
  0
CLASS
  1
ACDBDETAILVIEWSTYLE
  2
AcDbDetailViewStyle
  3
ObjectDBX Classes
 90
1025
 91
0
280
0
281
0
  0
CLASS
  1
ACDBSECTIONVIEWSTYLE
  2
AcDbSectionViewStyle
  3
ObjectDBX Classes
 90
1025
 91
0
280
0
281
0
  0
CLASS
  1
RASTERVARIABLES
  2
AcDbRasterVariables
  3
ISM
 90
0
 91
0
280
0
281
0
  0
CLASS
  1
LAYOUT
  2
AcDbLayout
  3
ObjectDBX Classes
 90
0
 91
0
280
0
281
0
  0
CLASS
  1
ACDBPLACEHOLDER
  2
AcDbPlaceHolder
  3
ObjectDBX Classes
 90
0
 91
0
280
0
281
0
  0
ENDSEC
  0
SECTION
  2
TABLES
  0
TABLE
  2
VPORT
  5
8
330
0
100
AcDbSymbolTable
 70
1
  0
VPORT
  5
23
330
8
100
AcDbSymbolTableRecord
100
AcDbViewportTableRecord
  2
*Active
 70
0
 10
0.0
 20
0.0
 11
1.0
 21
1.0
 12
0.0
 22
0.0
 13
0.0
 23
0.0
 14
0.5
 24
0.5
 15
0.5
 25
0.5
 16
0.0
 26
0.0
 36
1.0
 17
0.0
 27
0.0
 37
0.0
 40
1000.0
 41
1.34
 42
50.0
 43
0.0
 44
0.0
 50
0.0
 51
0.0
 71
0
 72
1000
 73
1
 74
3
 75
0
 76
0
 77
0
 78
0
281
0
 65
0
146
0.0
  0
ENDTAB
  0
TABLE
  2
LTYPE
  5
2
330
0
100
AcDbSymbolTable
 70
3
  0
LTYPE
  5
24
330
2
100
AcDbSymbolTableRecord
100
AcDbLinetypeTableRecord
  2
ByBlock
 70
0
  3

 72
65
 73
0
 40
0.0
  0
LTYPE
  5
25
330
2
100
AcDbSymbolTableRecord
100
AcDbLinetypeTableRecord
  2
ByLayer
 70
0
  3

 72
65
 73
0
 40
0.0
  0
LTYPE
  5
26
330
2
100
AcDbSymbolTableRecord
100
AcDbLinetypeTableRecord
  2
Continuous
 70
0
  3

 72
65
 73
0
 40
0.0
  0
ENDTAB
  0
TABLE
  2
LAYER
  5
1
330
0
100
AcDbSymbolTable
 70
2
  0
LAYER
  5
27
330
1
100
AcDbSymbolTableRecord
100
AcDbLayerTableRecord
  2
0
 70
0
 62
7
  6
Continuous
370
-3
390
13
347
21
  0
LAYER
  5
28
330
1
100
AcDbSymbolTableRecord
100
AcDbLayerTableRecord
  2
Defpoints
 70
0
 62
7
  6
Continuous
290
0
370
-3
390
13
347
21
  0
ENDTAB
  0
TABLE
  2
STYLE
  5
5
330
0
100
AcDbSymbolTable
 70
1
  0
STYLE
  5
29
330
5
100
AcDbSymbolTableRecord
100
AcDbTextStyleTableRecord
  2
Standard
 70
0
 40
0.0
 41
1.0
 50
0.0
 71
0
 42
2.5
  3
txt
  4

  0
ENDTAB
  0
TABLE
  2
VIEW
  5
7
330
0
100
AcDbSymbolTable
 70
0
  0
ENDTAB
  0
TABLE
  2
UCS
  5
6
330
0
100
AcDbSymbolTable
 70
0
  0
ENDTAB
  0
TABLE
  2
APPID
  5
3
330
0
100
AcDbSymbolTable
 70
3
  0
APPID
  5
2A
330
3
100
AcDbSymbolTableRecord
100
AcDbRegAppTableRecord
  2
ACAD
 70
0
  0
APPID
  5
38
330
3
100
AcDbSymbolTableRecord
100
AcDbRegAppTableRecord
  2
HATCHBACKGROUNDCOLOR
 70
0
  0
APPID
  5
39
330
3
100
AcDbSymbolTableRecord
100
AcDbRegAppTableRecord
  2
EZDXF
 70
0
  0
ENDTAB
  0
TABLE
  2
DIMSTYLE
  5
4
330
0
100
AcDbSymbolTable
 70
1
100
AcDbDimStyleTable
  0
DIMSTYLE
105
2B
330
4
100
AcDbSymbolTableRecord
100
AcDbDimStyleTableRecord
  2
Standard
 70
0
 40
1.0
 41
2.5
 42
0.625
 43
3.75
 44
1.25
 45
0.0
 46
0.0
 47
0.0
 48
0.0
 49
2.5
140
2.5
141
2.5
142
0.0
143
0.03937007874
144
1.0
145
0.0
146
1.0
147
0.625
148
0.0
 69
0
 70
0
 71
0
 72
0
 73
0
 74
0
 75
0
 76
0
 77
1
 78
8
 79
3
170
0
171
3
172
1
173
0
174
0
175
0
176
0
177
0
178
0
179
2
271
2
272
2
273
2
274
3
275
0
276
0
277
2
278
44
279
0
280
0
281
0
282
0
283
0
284
8
285
0
286
0
288
0
289
3
290
0
371
-2
372
-2
  0
ENDTAB
  0
TABLE
  2
BLOCK_RECORD
  5
9
330
0
100
AcDbSymbolTable
 70
2
  0
BLOCK_RECORD
  5
17
330
9
100
AcDbSymbolTableRecord
100
AcDbBlockTableRecord
  2
*Model_Space
340
1A
 70
0
280
1
281
0
  0
BLOCK_RECORD
  5
1B
330
9
100
AcDbSymbolTableRecord
100
AcDbBlockTableRecord
  2
*Paper_Space
340
1E
 70
0
280
1
281
0
  0
ENDTAB
  0
ENDSEC
  0
SECTION
  2
BLOCKS
  0
BLOCK
  5
18
330
17
100
AcDbEntity
  8
0
100
AcDbBlockBegin
  2
*Model_Space
 70
0
 10
0.0
 20
0.0
 30
0.0
  3
*Model_Space
  1

  0
ENDBLK
  5
19
330
17
100
AcDbEntity
  8
0
100
AcDbBlockEnd
  0
BLOCK
  5
1C
330
1B
100
AcDbEntity
  8
0
100
AcDbBlockBegin
  2
*Paper_Space
 70
0
 10
0.0
 20
0.0
 30
0.0
  3
*Paper_Space
  1

  0
ENDBLK
  5
1D
330
1B
100
AcDbEntity
  8
0
100
AcDbBlockEnd
  0
ENDSEC
  0
SECTION
  2
ENTITIES
  0
LWPOLYLINE
  5
2F
330
17
100
AcDbEntity
  8
default
100
AcDbPolyline
 90
145
 70
0
 10
5.033176423700002
 20
-33.751511654200016
 10
3.0374221340000016
 20
-33.24848834550002
 10
1.3302768974000008
 20
-32.75151164630002
 10
-0.19788742200000012
 20
-32.24848804850002
 10
-1.614240863400001
 20
-31.751505141300015
 10
-2.8939923930000013
 20
-31.248393507700015
 10
-4.098804417700002
 20
-30.750547742900018
 10
-5.353335274300002
 20
-30.241494371100018
 10
-6.682036373600003
 20
-29.71507474380002
 10
-8.000189370000001
 20
-29.11296249620002
 10
-9.319897608500002
 20
-28.395189559100015
 10
-10.660550127100006
 20
-27.58093179570002
 10
-11.972971294600004
 20
-26.77738619490002
 10
-13.368525880100009
 20
-25.87792681100002
 10
-15.049094183900008
 20
-24.688234521400013
 10
-16.92233694910001
 20
-23.25137554020001
 10
-18.561103737100005
 20
-21.905748816700008
 10
-19.90564746600001
 20
-20.56120508780001
 10
-21.250411355900013
 20
-18.923301132100008
 10
-22.681241429900012
 20
-17.05608716990001
 10
-23.841509423500014
 20
-15.40493938910001
 10
-24.642144272300015
 20
-14.10812795250001
 10
-25.227488641100017
 20
-13.012747350600009
 10
-25.748429401700015
 20
-11.953936970800008
 10
-26.246263007600014
 20
-10.774038257600006
 10
-26.73731567900002
 20
-9.172199714200005
 10
-27.173711895100016
 20
-6.588300653700005
 10
-27.466852537400015
 20
-2.504232522400002
 10
-27.466852537400015
 20
2.504232522400002
 10
-27.173711895100016
 20
6.588300653700005
 10
-26.73731567900002
 20
9.172199714200005
 10
-26.246263007600014
 20
10.774038257600006
 10
-25.748429401700015
 20
11.953936970800008
 10
-25.227488641100017
 20
13.012747350600009
 10
-24.642144272300015
 20
14.10812795250001
 10
-23.841509423500014
 20
15.40493938910001
 10
-22.681241429900012
 20
17.05608716990001
 10
-21.250411355900013
 20
18.923301132100008
 10
-19.90564746600001
 20
20.56120508780001
 10
-18.561103737100005
 20
21.905748816700008
 10
-16.92233694910001
 20
23.25137554020001
 10
-15.049094183900008
 20
24.688234521400013
 10
-13.368525880100009
 20
25.87792681100002
 10
-11.972971294600004
 20
26.77738619490002
 10
-10.660550127100006
 20
27.58093179570002
 10
-9.319897608500002
 20
28.395189559100015
 10
-8.000189370000001
 20
29.11296249620002
 10
-6.682036373600003
 20
29.71507474380002
 10
-5.353335274300002
 20
30.241494371100018
 10
-4.098804417700002
 20
30.750547742900018
 10
-2.8939923930000013
 20
31.248393507700015
 10
-1.614240863400001
 20
31.751505141300015
 10
-0.19788742200000012
 20
32.24848804850002
 10
1.3302768974000008
 20
32.75151164630002
 10
3.0374221340000016
 20
33.24848834550002
 10
5.033176423700002
 20
33.751511654200016
 10
7.351269024300003
 20
34.24848832940002
 10
9.879066910700004
 20
34.75151106000002
 10
12.739910259200009
 20
35.24847530320002
 10
16.249223260800008
 20
35.751321384800015
 10
21.121053040700012
 20
36.246547528800015
 10
28.86992561830002
 20
36.73733521840001
 10
42.770986001000026
 20
37.17371278640001
 10
65.72040707940005
 20
37.466852562000014
 10
94.27959292060005
 20
37.466852562000014
 10
117.22901399900006
 20
37.17371278640001
 10
131.13007438170007
 20
36.73733521840001
 10
138.8789469593001
 20
36.246547528800015
 10
143.75077673920006
 20
35.751321384800015
 10
147.26008974080003
 20
35.24847530320002
 10
150.12093308930002
 20
34.75151106000002
 10
152.64873097570003
 20
34.24848832940002
 10
154.96682357630004
 20
33.751511654200016
 10
156.96257786600003
 20
33.24848834550002
 10
158.66972310260007
 20
32.75151164630002
 10
160.1978874220001
 20
32.24848804850002
 10
161.61424086340008
 20
31.751505141300015
 10
162.89399239300008
 20
31.248393507700015
 10
164.09880441770008
 20
30.750547742900018
 10
165.3533352743001
 20
30.241494371100018
 10
166.68203637360006
 20
29.71507474380002
 10
168.00018937000007
 20
29.11296249620002
 10
169.31989760850007
 20
28.395189559100015
 10
170.66055012710007
 20
27.58093179570002
 10
171.97297129460003
 20
26.77738619490002
 10
173.3685258801001
 20
25.87792681100002
 10
175.04909418390005
 20
24.688234521400013
 10
176.92233694910007
 20
23.25137554020001
 10
178.5611037371001
 20
21.905748816700008
 10
179.90564746600006
 20
20.56120508780001
 10
181.2504113559001
 20
18.923301132100008
 10
182.68124142990007
 20
17.05608716990001
 10
183.8415094235001
 20
15.40493938910001
 10
184.64214427230007
 20
14.10812795250001
 10
185.22748864110005
 20
13.012747350600009
 10
185.74842940170007
 20
11.953936970800008
 10
186.24626300760008
 20
10.774038257600006
 10
186.7373156790001
 20
9.172199714200005
 10
187.17371189510013
 20
6.588300653700005
 10
187.4668525374001
 20
2.504232522400002
 10
187.4668525374001
 20
-2.504232522400002
 10
187.17371189510013
 20
-6.588300653700005
 10
186.7373156790001
 20
-9.172199714200005
 10
186.24626300760008
 20
-10.774038257600006
 10
185.74842940170007
 20
-11.953936970800008
 10
185.22748864110005
 20
-13.012747350600009
 10
184.64214427230007
 20
-14.10812795250001
 10
183.8415094235001
 20
-15.40493938910001
 10
182.68124142990007
 20
-17.05608716990001
 10
181.2504113559001
 20
-18.923301132100008
 10
179.90564746600006
 20
-20.56120508780001
 10
178.5611037371001
 20
-21.905748816700008
 10
176.92233694910007
 20
-23.25137554020001
 10
175.04909418390005
 20
-24.688234521400013
 10
173.3685258801001
 20
-25.87792681100002
 10
171.97297129460003
 20
-26.77738619490002
 10
170.66055012710007
 20
-27.58093179570002
 10
169.31989760850007
 20
-28.395189559100015
 10
168.00018937000007
 20
-29.11296249620002
 10
166.68203637360006
 20
-29.71507474380002
 10
165.3533352743001
 20
-30.241494371100018
 10
164.09880441770008
 20
-30.750547742900018
 10
162.89399239300008
 20
-31.248393507700015
 10
161.61424086340008
 20
-31.751505141300015
 10
160.1978874220001
 20
-32.24848804850002
 10
158.66972310260007
 20
-32.75151164630002
 10
156.96257786600003
 20
-33.24848834550002
 10
154.96682357630004
 20
-33.751511654200016
 10
152.64873097570003
 20
-34.24848832940002
 10
150.12093308930002
 20
-34.75151106000002
 10
147.26008974080003
 20
-35.24847530320002
 10
143.75077673920006
 20
-35.751321384800015
 10
138.8789469593001
 20
-36.246547528800015
 10
131.13007438170007
 20
-36.73733521840001
 10
117.22901399900006
 20
-37.17371278640001
 10
94.27959292060005
 20
-37.466852562000014
 10
65.72040707940005
 20
-37.466852562000014
 10
42.770986001000026
 20
-37.17371278640001
 10
28.86992561830002
 20
-36.73733521840001
 10
21.121053040700012
 20
-36.246547528800015
 10
16.249223260800008
 20
-35.751321384800015
 10
12.739910259200009
 20
-35.24847530320002
 10
9.879066910700004
 20
-34.75151106000002
 10
7.351269024300003
 20
-34.24848832940002
 10
5.033176423700002
 20
-33.751511654200016
  0
LWPOLYLINE
  5
30
330
17
100
AcDbEntity
  8
default
100
AcDbPolyline
 90
5
 70
0
 10
21.0
 20
-10.5
 10
21.0
 20
10.5
 10
0.0
 20
10.5
 10
0.0
 20
-10.5
 10
21.0
 20
-10.5
  0
LWPOLYLINE
  5
31
330
17
100
AcDbEntity
  8
default
100
AcDbPolyline
 90
5
 70
0
 10
40.0
 20
-10.5
 10
61.0
 20
-10.5
 10
61.0
 20
10.5
 10
40.0
 20
10.5
 10
40.0
 20
-10.5
  0
LWPOLYLINE
  5
32
330
17
100
AcDbEntity
  8
default
100
AcDbPolyline
 90
5
 70
0
 10
80.0
 20
10.5
 10
80.0
 20
-10.5
 10
101.0
 20
-10.5
 10
101.0
 20
10.5
 10
80.0
 20
10.5
  0
LWPOLYLINE
  5
33
330
17
100
AcDbEntity
  8
default
100
AcDbPolyline
 90
5
 70
0
 10
141.0
 20
10.5
 10
120.0
 20
10.5
 10
120.0
 20
-10.5
 10
141.0
 20
-10.5
 10
141.0
 20
10.5
  0
LWPOLYLINE
  5
34
330
17
100
AcDbEntity
  8
default
100
AcDbPolyline
 90
65
 70
0
 10
13.695518130045146
 20
-20.469266270539638
 10
13.52768505739342
 20
-20.11441305269601
 10
13.325878449210181
 20
-19.77771906792159
 10
13.092041813450946
 20
-19.462426863345417
 10
12.82842712474619
 20
-19.17157287525381
 10
12.537573136654583
 20
-18.907958186549052
 10
12.222280932078407
 20
-18.674121550789817
 10
11.88558694730399
 20
-18.47231494260658
 10
11.53073372946036
 20
-18.304481869954852
 10
11.161138709017848
 20
-18.172238657071166
 10
10.780361288064514
 20
-18.07685887838708
 10
10.39206856131824
 20
-18.01926109331121
 10
10.0
 20
-18.0
 10
9.607931438681758
 20
-18.01926109331121
 10
9.219638711935485
 20
-18.07685887838708
 10
8.83886129098215
 20
-18.172238657071166
 10
8.469266270539638
 20
-18.304481869954856
 10
8.114413052696008
 20
-18.47231494260658
 10
7.777719067921591
 20
-18.67412155078982
 10
7.462426863345416
 20
-18.907958186549052
 10
7.171572875253809
 20
-19.17157287525381
 10
6.907958186549052
 20
-19.46242686334542
 10
6.674121550789819
 20
-19.77771906792159
 10
6.47231494260658
 20
-20.11441305269601
 10
6.304481869954852
 20
-20.46926627053964
 10
6.172238657071164
 20
-20.838861290982152
 10
6.076858878387078
 20
-21.219638711935488
 10
6.019261093311212
 20
-21.607931438681756
 10
6.0
 20
-22.0
 10
6.019261093311213
 20
-22.392068561318244
 10
6.076858878387078
 20
-22.780361288064515
 10
6.172238657071165
 20
-23.161138709017848
 10
6.304481869954853
 20
-23.53073372946036
 10
6.47231494260658
 20
-23.88558694730399
 10
6.674121550789819
 20
-24.22228093207841
 10
6.9079581865490525
 20
-24.537573136654583
 10
7.17157287525381
 20
-24.82842712474619
 10
7.462426863345419
 20
-25.092041813450948
 10
7.777719067921592
 20
-25.32587844921018
 10
8.114413052696008
 20
-25.52768505739342
 10
8.469266270539642
 20
-25.695518130045148
 10
8.838861290982152
 20
-25.827761342928834
 10
9.219638711935488
 20
-25.92314112161292
 10
9.607931438681758
 20
-25.98073890668879
 10
10.0
 20
-26.0
 10
10.392068561318244
 20
-25.98073890668879
 10
10.780361288064514
 20
-25.92314112161292
 10
11.16113870901785
 20
-25.827761342928834
 10
11.530733729460358
 20
-25.695518130045148
 10
11.885586947303992
 20
-25.52768505739342
 10
12.222280932078409
 20
-25.32587844921018
 10
12.537573136654583
 20
-25.092041813450948
 10
12.82842712474619
 20
-24.82842712474619
 10
13.092041813450948
 20
-24.537573136654583
 10
13.325878449210181
 20
-24.22228093207841
 10
13.52768505739342
 20
-23.88558694730399
 10
13.695518130045148
 20
-23.53073372946036
 10
13.827761342928834
 20
-23.161138709017848
 10
13.923141121612922
 20
-22.780361288064512
 10
13.980738906688789
 20
-22.392068561318244
 10
14.0
 20
-22.0
 10
13.980738906688789
 20
-21.607931438681756
 10
13.923141121612922
 20
-21.219638711935485
 10
13.827761342928834
 20
-20.838861290982152
 10
13.695518130045146
 20
-20.469266270539638
  0
LWPOLYLINE
  5
35
330
17
100
AcDbEntity
  8
default
100
AcDbPolyline
 90
65
 70
0
 10
13.827761342928834
 20
23.161138709017848
 10
13.695518130045146
 20
23.530733729460362
 10
13.52768505739342
 20
23.88558694730399
 10
13.325878449210181
 20
24.22228093207841
 10
13.092041813450946
 20
24.537573136654583
 10
12.82842712474619
 20
24.82842712474619
 10
12.537573136654583
 20
25.092041813450948
 10
12.222280932078407
 20
25.325878449210183
 10
11.88558694730399
 20
25.52768505739342
 10
11.53073372946036
 20
25.695518130045148
 10
11.161138709017848
 20
25.827761342928834
 10
10.780361288064514
 20
25.92314112161292
 10
10.39206856131824
 20
25.98073890668879
 10
10.0
 20
26.0
 10
9.607931438681758
 20
25.98073890668879
 10
9.219638711935485
 20
25.92314112161292
 10
8.83886129098215
 20
25.827761342928834
 10
8.469266270539638
 20
25.695518130045144
 10
8.114413052696008
 20
25.52768505739342
 10
7.777719067921591
 20
25.32587844921018
 10
7.462426863345416
 20
25.092041813450948
 10
7.171572875253809
 20
24.82842712474619
 10
6.907958186549052
 20
24.53757313665458
 10
6.674121550789819
 20
24.22228093207841
 10
6.47231494260658
 20
23.88558694730399
 10
6.304481869954852
 20
23.53073372946036
 10
6.172238657071164
 20
23.161138709017848
 10
6.076858878387078
 20
22.780361288064512
 10
6.019261093311212
 20
22.392068561318244
 10
6.0
 20
22.0
 10
6.019261093311213
 20
21.607931438681756
 10
6.076858878387078
 20
21.219638711935485
 10
6.172238657071165
 20
20.838861290982152
 10
6.304481869954853
 20
20.46926627053964
 10
6.47231494260658
 20
20.11441305269601
 10
6.674121550789819
 20
19.77771906792159
 10
6.9079581865490525
 20
19.462426863345417
 10
7.17157287525381
 20
19.17157287525381
 10
7.462426863345419
 20
18.907958186549052
 10
7.777719067921592
 20
18.67412155078982
 10
8.114413052696008
 20
18.47231494260658
 10
8.469266270539642
 20
18.304481869954852
 10
8.838861290982152
 20
18.172238657071166
 10
9.219638711935488
 20
18.07685887838708
 10
9.607931438681758
 20
18.01926109331121
 10
10.0
 20
18.0
 10
10.392068561318244
 20
18.01926109331121
 10
10.780361288064514
 20
18.07685887838708
 10
11.16113870901785
 20
18.172238657071166
 10
11.530733729460358
 20
18.304481869954852
 10
11.885586947303992
 20
18.47231494260658
 10
12.222280932078409
 20
18.67412155078982
 10
12.537573136654583
 20
18.907958186549052
 10
12.82842712474619
 20
19.17157287525381
 10
13.092041813450948
 20
19.462426863345417
 10
13.325878449210181
 20
19.77771906792159
 10
13.52768505739342
 20
20.11441305269601
 10
13.695518130045148
 20
20.46926627053964
 10
13.827761342928834
 20
20.838861290982152
 10
13.923141121612922
 20
21.219638711935488
 10
13.980738906688789
 20
21.607931438681756
 10
14.0
 20
22.0
 10
13.980738906688789
 20
22.392068561318244
 10
13.923141121612922
 20
22.780361288064515
 10
13.827761342928834
 20
23.161138709017848
  0
LWPOLYLINE
  5
36
330
17
100
AcDbEntity
  8
default
100
AcDbPolyline
 90
65
 70
0
 10
153.92314112161293
 20
-21.219638711935485
 10
153.82776134292882
 20
-20.838861290982152
 10
153.69551813004514
 20
-20.469266270539638
 10
153.52768505739343
 20
-20.11441305269601
 10
153.3258784492102
 20
-19.77771906792159
 10
153.09204181345095
 20
-19.462426863345417
 10
152.82842712474618
 20
-19.17157287525381
 10
152.53757313665457
 20
-18.907958186549052
 10
152.2222809320784
 20
-18.674121550789817
 10
151.88558694730398
 20
-18.47231494260658
 10
151.53073372946037
 20
-18.304481869954852
 10
151.16113870901785
 20
-18.172238657071166
 10
150.7803612880645
 20
-18.07685887838708
 10
150.39206856131824
 20
-18.01926109331121
 10
150.0
 20
-18.0
 10
149.60793143868176
 20
-18.01926109331121
 10
149.2196387119355
 20
-18.07685887838708
 10
148.83886129098215
 20
-18.172238657071166
 10
148.46926627053963
 20
-18.304481869954856
 10
148.11441305269602
 20
-18.47231494260658
 10
147.7777190679216
 20
-18.67412155078982
 10
147.46242686334543
 20
-18.907958186549052
 10
147.17157287525382
 20
-19.17157287525381
 10
146.90795818654905
 20
-19.46242686334542
 10
146.6741215507898
 20
-19.77771906792159
 10
146.47231494260657
 20
-20.11441305269601
 10
146.30448186995486
 20
-20.46926627053964
 10
146.17223865707118
 20
-20.838861290982152
 10
146.07685887838707
 20
-21.219638711935488
 10
146.0192610933112
 20
-21.607931438681756
 10
146.0
 20
-22.0
 10
146.0192610933112
 20
-22.392068561318244
 10
146.07685887838707
 20
-22.780361288064515
 10
146.17223865707118
 20
-23.161138709017848
 10
146.30448186995486
 20
-23.53073372946036
 10
146.47231494260657
 20
-23.88558694730399
 10
146.6741215507898
 20
-24.22228093207841
 10
146.90795818654905
 20
-24.537573136654583
 10
147.17157287525382
 20
-24.82842712474619
 10
147.46242686334543
 20
-25.092041813450948
 10
147.7777190679216
 20
-25.32587844921018
 10
148.11441305269602
 20
-25.52768505739342
 10
148.46926627053963
 20
-25.695518130045148
 10
148.83886129098215
 20
-25.827761342928834
 10
149.2196387119355
 20
-25.92314112161292
 10
149.60793143868176
 20
-25.98073890668879
 10
150.0
 20
-26.0
 10
150.39206856131824
 20
-25.98073890668879
 10
150.7803612880645
 20
-25.92314112161292
 10
151.16113870901785
 20
-25.827761342928834
 10
151.53073372946037
 20
-25.695518130045148
 10
151.88558694730398
 20
-25.52768505739342
 10
152.2222809320784
 20
-25.32587844921018
 10
152.53757313665457
 20
-25.092041813450948
 10
152.82842712474618
 20
-24.82842712474619
 10
153.09204181345095
 20
-24.537573136654583
 10
153.3258784492102
 20
-24.22228093207841
 10
153.52768505739343
 20
-23.88558694730399
 10
153.69551813004514
 20
-23.53073372946036
 10
153.82776134292882
 20
-23.161138709017848
 10
153.92314112161293
 20
-22.780361288064512
 10
153.9807389066888
 20
-22.392068561318244
 10
154.0
 20
-22.0
 10
153.9807389066888
 20
-21.607931438681756
 10
153.92314112161293
 20
-21.219638711935485
  0
LWPOLYLINE
  5
37
330
17
100
AcDbEntity
  8
default
100
AcDbPolyline
 90
65
 70
0
 10
153.9807389066888
 20
22.392068561318244
 10
153.92314112161293
 20
22.780361288064515
 10
153.82776134292882
 20
23.161138709017848
 10
153.69551813004514
 20
23.530733729460362
 10
153.52768505739343
 20
23.88558694730399
 10
153.3258784492102
 20
24.22228093207841
 10
153.09204181345095
 20
24.537573136654583
 10
152.82842712474618
 20
24.82842712474619
 10
152.53757313665457
 20
25.092041813450948
 10
152.2222809320784
 20
25.325878449210183
 10
151.88558694730398
 20
25.52768505739342
 10
151.53073372946037
 20
25.695518130045148
 10
151.16113870901785
 20
25.827761342928834
 10
150.7803612880645
 20
25.92314112161292
 10
150.39206856131824
 20
25.98073890668879
 10
150.0
 20
26.0
 10
149.60793143868176
 20
25.98073890668879
 10
149.2196387119355
 20
25.92314112161292
 10
148.83886129098215
 20
25.827761342928834
 10
148.46926627053963
 20
25.695518130045144
 10
148.11441305269602
 20
25.52768505739342
 10
147.7777190679216
 20
25.32587844921018
 10
147.46242686334543
 20
25.092041813450948
 10
147.17157287525382
 20
24.82842712474619
 10
146.90795818654905
 20
24.53757313665458
 10
146.6741215507898
 20
24.22228093207841
 10
146.47231494260657
 20
23.88558694730399
 10
146.30448186995486
 20
23.53073372946036
 10
146.17223865707118
 20
23.161138709017848
 10
146.07685887838707
 20
22.780361288064512
 10
146.0192610933112
 20
22.392068561318244
 10
146.0
 20
22.0
 10
146.0192610933112
 20
21.607931438681756
 10
146.07685887838707
 20
21.219638711935485
 10
146.17223865707118
 20
20.838861290982152
 10
146.30448186995486
 20
20.46926627053964
 10
146.47231494260657
 20
20.11441305269601
 10
146.6741215507898
 20
19.77771906792159
 10
146.90795818654905
 20
19.462426863345417
 10
147.17157287525382
 20
19.17157287525381
 10
147.46242686334543
 20
18.907958186549052
 10
147.7777190679216
 20
18.67412155078982
 10
148.11441305269602
 20
18.47231494260658
 10
148.46926627053963
 20
18.304481869954852
 10
148.83886129098215
 20
18.172238657071166
 10
149.2196387119355
 20
18.07685887838708
 10
149.60793143868176
 20
18.01926109331121
 10
150.0
 20
18.0
 10
150.39206856131824
 20
18.01926109331121
 10
150.7803612880645
 20
18.07685887838708
 10
151.16113870901785
 20
18.172238657071166
 10
151.53073372946037
 20
18.304481869954852
 10
151.88558694730398
 20
18.47231494260658
 10
152.2222809320784
 20
18.67412155078982
 10
152.53757313665457
 20
18.907958186549052
 10
152.82842712474618
 20
19.17157287525381
 10
153.09204181345095
 20
19.462426863345417
 10
153.3258784492102
 20
19.77771906792159
 10
153.52768505739343
 20
20.11441305269601
 10
153.69551813004514
 20
20.46926627053964
 10
153.82776134292882
 20
20.838861290982152
 10
153.92314112161293
 20
21.219638711935488
 10
153.9807389066888
 20
21.607931438681756
 10
154.0
 20
22.0
 10
153.9807389066888
 20
22.392068561318244
  0
ENDSEC
  0
SECTION
  2
OBJECTS
  0
DICTIONARY
  5
A
330
0
100
AcDbDictionary
280
0
281
1
  3
ACAD_COLOR
350
B
  3
ACAD_GROUP
350
C
  3
ACAD_LAYOUT
350
D
  3
ACAD_MATERIAL
350
E
  3
ACAD_MLEADERSTYLE
350
F
  3
ACAD_MLINESTYLE
350
10
  3
ACAD_PLOTSETTINGS
350
11
  3
ACAD_PLOTSTYLENAME
350
12
  3
ACAD_SCALELIST
350
14
  3
ACAD_TABLESTYLE
350
15
  3
ACAD_VISUALSTYLE
350
16
  3
EZDXF_META
350
2D
  0
DICTIONARY
  5
B
330
A
100
AcDbDictionary
280
0
281
1
  0
DICTIONARY
  5
C
330
A
100
AcDbDictionary
280
0
281
1
  0
DICTIONARY
  5
D
330
A
100
AcDbDictionary
280
0
281
1
  3
Model
350
1A
  3
Layout1
350
1E
  0
DICTIONARY
  5
E
330
A
100
AcDbDictionary
280
0
281
1
  3
ByBlock
350
1F
  3
ByLayer
350
20
  3
Global
350
21
  0
DICTIONARY
  5
F
330
A
100
AcDbDictionary
280
0
281
1
  3
Standard
350
2C
  0
DICTIONARY
  5
10
330
A
100
AcDbDictionary
280
0
281
1
  3
Standard
350
22
  0
DICTIONARY
  5
11
330
A
100
AcDbDictionary
280
0
281
1
  0
ACDBDICTIONARYWDFLT
  5
12
330
A
100
AcDbDictionary
280
0
281
1
  3
Normal
350
13
100
AcDbDictionaryWithDefault
340
13
  0
ACDBPLACEHOLDER
  5
13
330
12
  0
DICTIONARY
  5
14
330
A
100
AcDbDictionary
280
0
281
1
  0
DICTIONARY
  5
15
330
A
100
AcDbDictionary
280
0
281
1
  0
DICTIONARY
  5
16
330
A
100
AcDbDictionary
280
0
281
1
  0
LAYOUT
  5
1A
330
D
100
AcDbPlotSettings
  1

  2
Adobe PDF
  4
A3
  6

 40
7.5
 41
20.0
 42
7.5
 43
20.0
 44
420.0
 45
297.0
 46
0.0
 47
0.0
 48
0.0
 49
0.0
140
0.0
141
0.0
142
1.0
143
1.0
 70
1024
 72
1
 73
0
 74
5
  7

 75
16
 76
0
 77
2
 78
300
147
1.0
148
0.0
149
0.0
100
AcDbLayout
  1
Model
 70
1
 71
0
 10
0.0
 20
0.0
 11
420.0
 21
297.0
 12
0.0
 22
0.0
 32
0.0
 14
1e+20
 24
1e+20
 34
1e+20
 15
-1e+20
 25
-1e+20
 35
-1e+20
146
0.0
 13
0.0
 23
0.0
 33
0.0
 16
1.0
 26
0.0
 36
0.0
 17
0.0
 27
1.0
 37
0.0
 76
1
330
17
  0
LAYOUT
  5
1E
330
D
100
AcDbPlotSettings
  1

  2
Adobe PDF
  4
A3
  6

 40
7.5
 41
20.0
 42
7.5
 43
20.0
 44
420.0
 45
297.0
 46
0.0
 47
0.0
 48
0.0
 49
0.0
140
0.0
141
0.0
142
1.0
143
1.0
 70
0
 72
1
 73
0
 74
5
  7

 75
16
 76
0
 77
2
 78
300
147
1.0
148
0.0
149
0.0
100
AcDbLayout
  1
Layout1
 70
1
 71
1
 10
0.0
 20
0.0
 11
420.0
 21
297.0
 12
0.0
 22
0.0
 32
0.0
 14
1e+20
 24
1e+20
 34
1e+20
 15
-1e+20
 25
-1e+20
 35
-1e+20
146
0.0
 13
0.0
 23
0.0
 33
0.0
 16
1.0
 26
0.0
 36
0.0
 17
0.0
 27
1.0
 37
0.0
 76
1
330
1B
  0
MATERIAL
  5
1F
102
{ACAD_REACTORS
330
E
102
}
330
E
100
AcDbMaterial
  1
ByBlock
  2

 70
0
 40
1.0
 71
1
 41
1.0
 91
-1023410177
 42
1.0
 72
1
  3

 73
1
 74
1
 75
1
 44
0.5
 73
0
 45
1.0
 46
1.0
 77
1
  4

 78
1
 79
1
170
1
 48
1.0
171
1
  6

172
1
173
1
174
1
140
1.0
141
1.0
175
1
  7

176
1
177
1
178
1
143
1.0
179
1
  8

270
1
271
1
272
1
145
1.0
146
1.0
273
1
  9

274
1
275
1
276
1
 42
1.0
 72
1
  3

 73
1
 74
1
 75
1
 94
63
  0
MATERIAL
  5
20
102
{ACAD_REACTORS
330
E
102
}
330
E
100
AcDbMaterial
  1
ByLayer
  2

 70
0
 40
1.0
 71
1
 41
1.0
 91
-1023410177
 42
1.0
 72
1
  3

 73
1
 74
1
 75
1
 44
0.5
 73
0
 45
1.0
 46
1.0
 77
1
  4

 78
1
 79
1
170
1
 48
1.0
171
1
  6

172
1
173
1
174
1
140
1.0
141
1.0
175
1
  7

176
1
177
1
178
1
143
1.0
179
1
  8

270
1
271
1
272
1
145
1.0
146
1.0
273
1
  9

274
1
275
1
276
1
 42
1.0
 72
1
  3

 73
1
 74
1
 75
1
 94
63
  0
MATERIAL
  5
21
102
{ACAD_REACTORS
330
E
102
}
330
E
100
AcDbMaterial
  1
Global
  2

 70
0
 40
1.0
 71
1
 41
1.0
 91
-1023410177
 42
1.0
 72
1
  3

 73
1
 74
1
 75
1
 44
0.5
 73
0
 45
1.0
 46
1.0
 77
1
  4

 78
1
 79
1
170
1
 48
1.0
171
1
  6

172
1
173
1
174
1
140
1.0
141
1.0
175
1
  7

176
1
177
1
178
1
143
1.0
179
1
  8

270
1
271
1
272
1
145
1.0
146
1.0
273
1
  9

274
1
275
1
276
1
 42
1.0
 72
1
  3

 73
1
 74
1
 75
1
 94
63
  0
MLINESTYLE
  5
22
102
{ACAD_REACTORS
330
10
102
}
330
10
100
AcDbMlineStyle
  2
Standard
 70
0
  3

 62
256
 51
90.0
 52
90.0
 71
2
 49
0.5
 62
256
  6
BYLAYER
 49
-0.5
 62
256
  6
BYLAYER
  0
MLEADERSTYLE
  5
2C
102
{ACAD_REACTORS
330
F
102
}
330
F
100
AcDbMLeaderStyle
179
2
170
2
171
1
172
0
 90
2
 40
0.0
 41
0.0
173
1
 91
-1056964608
 92
-2
290
1
 42
2.0
291
1
 43
8.0
  3
Standard
 44
4.0
300

342
29
174
1
175
1
176
0
178
1
 93
-1056964608
 45
4.0
292
0
297
0
 46
4.0
 94
-1056964608
 47
1.0
 49
1.0
140
1.0
294
1
141
0.0
177
0
142
1.0
295
0
296
0
143
3.75
271
0
272
9
273
9
  0
DICTIONARY
  5
2D
330
A
100
AcDbDictionary
281
1
  3
CREATED_BY_EZDXF
350
2E
  3
WRITTEN_BY_EZDXF
350
3A
  0
DICTIONARYVAR
  5
2E
330
2D
100
DictionaryVariables
280
0
  1
1.1.1 @ 2023-10-31T18:00:59.619357+00:00
  0
DICTIONARYVAR
  5
3A
330
2D
100
DictionaryVariables
280
0
  1
1.1.1 @ 2023-10-31T18:00:59.625357+00:00
  0
ENDSEC
  0
EOF
