  0
SECTION
  2
HEADER
  9
$ACADVER
  1
AC1024
  9
$ACADMAINTVER
 70
6
  9
$DWGCODEPAGE
  3
ANSI_1252
  9
$LASTSAVEDBY
  1
ezdxf
  9
$INSBASE
 10
0.0
 20
0.0
 30
0.0
  9
$EXTMIN
 10
1e+20
 20
1e+20
 30
1e+20
  9
$EXTMAX
 10
-1e+20
 20
-1e+20
 30
-1e+20
  9
$LIMMIN
 10
0.0
 20
0.0
  9
$LIMMAX
 10
420.0
 20
297.0
  9
$ORTHOMODE
 70
0
  9
$REGENMODE
 70
1
  9
$FILLMODE
 70
1
  9
$QTEXTMODE
 70
0
  9
$MIRRTEXT
 70
1
  9
$LTSCALE
 40
1.0
  9
$ATTMODE
 70
1
  9
$TEXTSIZE
 40
2.5
  9
$TRACEWID
 40
1.0
  9
$TEXTSTYLE
  7
Standard
  9
$CLAYER
  8
0
  9
$CELTYPE
  6
ByLayer
  9
$CECOLOR
 62
256
  9
$CELTSCALE
 40
1.0
  9
$DISPSILH
 70
0
  9
$DIMSCALE
 40
1.0
  9
$DIMASZ
 40
2.5
  9
$DIMEXO
 40
0.625
  9
$DIMDLI
 40
3.75
  9
$DIMRND
 40
0.0
  9
$DIMDLE
 40
0.0
  9
$DIMEXE
 40
1.25
  9
$DIMTP
 40
0.0
  9
$DIMTM
 40
0.0
  9
$DIMTXT
 40
2.5
  9
$DIMCEN
 40
2.5
  9
$DIMTSZ
 40
0.0
  9
$DIMTOL
 70
0
  9
$DIMLIM
 70
0
  9
$DIMTIH
 70
0
  9
$DIMTOH
 70
0
  9
$DIMSE1
 70
0
  9
$DIMSE2
 70
0
  9
$DIMTAD
 70
1
  9
$DIMZIN
 70
8
  9
$DIMBLK
  1

  9
$DIMASO
 70
1
  9
$DIMSHO
 70
1
  9
$DIMPOST
  1

  9
$DIMAPOST
  1

  9
$DIMALT
 70
0
  9
$DIMALTD
 70
3
  9
$DIMALTF
 40
0.03937007874
  9
$DIMLFAC
 40
1.0
  9
$DIMTOFL
 70
1
  9
$DIMTVP
 40
0.0
  9
$DIMTIX
 70
0
  9
$DIMSOXD
 70
0
  9
$DIMSAH
 70
0
  9
$DIMBLK1
  1

  9
$DIMBLK2
  1

  9
$DIMSTYLE
  2
ISO-25
  9
$DIMCLRD
 70
0
  9
$DIMCLRE
 70
0
  9
$DIMCLRT
 70
0
  9
$DIMTFAC
 40
1.0
  9
$DIMGAP
 40
0.625
  9
$DIMJUST
 70
0
  9
$DIMSD1
 70
0
  9
$DIMSD2
 70
0
  9
$DIMTOLJ
 70
0
  9
$DIMTZIN
 70
8
  9
$DIMALTZ
 70
0
  9
$DIMALTTZ
 70
0
  9
$DIMUPT
 70
0
  9
$DIMDEC
 70
2
  9
$DIMTDEC
 70
2
  9
$DIMALTU
 70
2
  9
$DIMALTTD
 70
3
  9
$DIMTXSTY
  7
Standard
  9
$DIMAUNIT
 70
0
  9
$DIMADEC
 70
0
  9
$DIMALTRND
 40
0.0
  9
$DIMAZIN
 70
0
  9
$DIMDSEP
 70
44
  9
$DIMATFIT
 70
3
  9
$DIMFRAC
 70
0
  9
$DIMLDRBLK
  1

  9
$DIMLUNIT
 70
2
  9
$DIMLWD
 70
-2
  9
$DIMLWE
 70
-2
  9
$DIMTMOVE
 70
0
  9
$DIMFXL
 40
1.0
  9
$DIMFXLON
 70
0
  9
$DIMJOGANG
 40
0.785398163397
  9
$DIMTFILL
 70
0
  9
$DIMTFILLCLR
 70
0
  9
$DIMARCSYM
 70
0
  9
$DIMLTYPE
  6

  9
$DIMLTEX1
  6

  9
$DIMLTEX2
  6

  9
$DIMTXTDIRECTION
 70
0
  9
$LUNITS
 70
2
  9
$LUPREC
 70
4
  9
$SKETCHINC
 40
1.0
  9
$FILLETRAD
 40
10.0
  9
$AUNITS
 70
0
  9
$AUPREC
 70
2
  9
$MENU
  1
.
  9
$ELEVATION
 40
0.0
  9
$PELEVATION
 40
0.0
  9
$THICKNESS
 40
0.0
  9
$LIMCHECK
 70
0
  9
$CHAMFERA
 40
0.0
  9
$CHAMFERB
 40
0.0
  9
$CHAMFERC
 40
0.0
  9
$CHAMFERD
 40
0.0
  9
$SKPOLY
 70
0
  9
$TDCREATE
 40
2460234.9895833335
  9
$TDUCREATE
 40
2458532.153996898
  9
$TDUPDATE
 40
2460234.9895833335
  9
$TDUUPDATE
 40
2458532.1544311
  9
$TDINDWG
 40
0.0
  9
$TDUSRTIMER
 40
0.0
  9
$USRTIMER
 70
1
  9
$ANGBASE
 50
0.0
  9
$ANGDIR
 70
0
  9
$PDMODE
 70
0
  9
$PDSIZE
 40
0.0
  9
$PLINEWID
 40
0.0
  9
$SPLFRAME
 70
0
  9
$SPLINETYPE
 70
6
  9
$SPLINESEGS
 70
8
  9
$HANDSEED
  5
50
  9
$SURFTAB1
 70
6
  9
$SURFTAB2
 70
6
  9
$SURFTYPE
 70
6
  9
$SURFU
 70
6
  9
$SURFV
 70
6
  9
$UCSBASE
  2

  9
$UCSNAME
  2

  9
$UCSORG
 10
0.0
 20
0.0
 30
0.0
  9
$UCSXDIR
 10
1.0
 20
0.0
 30
0.0
  9
$UCSYDIR
 10
0.0
 20
1.0
 30
0.0
  9
$UCSORTHOREF
  2

  9
$UCSORTHOVIEW
 70
0
  9
$UCSORGTOP
 10
0.0
 20
0.0
 30
0.0
  9
$UCSORGBOTTOM
 10
0.0
 20
0.0
 30
0.0
  9
$UCSORGLEFT
 10
0.0
 20
0.0
 30
0.0
  9
$UCSORGRIGHT
 10
0.0
 20
0.0
 30
0.0
  9
$UCSORGFRONT
 10
0.0
 20
0.0
 30
0.0
  9
$UCSORGBACK
 10
0.0
 20
0.0
 30
0.0
  9
$PUCSBASE
  2

  9
$PUCSNAME
  2

  9
$PUCSORG
 10
0.0
 20
0.0
 30
0.0
  9
$PUCSXDIR
 10
1.0
 20
0.0
 30
0.0
  9
$PUCSYDIR
 10
0.0
 20
1.0
 30
0.0
  9
$PUCSORTHOREF
  2

  9
$PUCSORTHOVIEW
 70
0
  9
$PUCSORGTOP
 10
0.0
 20
0.0
 30
0.0
  9
$PUCSORGBOTTOM
 10
0.0
 20
0.0
 30
0.0
  9
$PUCSORGLEFT
 10
0.0
 20
0.0
 30
0.0
  9
$PUCSORGRIGHT
 10
0.0
 20
0.0
 30
0.0
  9
$PUCSORGFRONT
 10
0.0
 20
0.0
 30
0.0
  9
$PUCSORGBACK
 10
0.0
 20
0.0
 30
0.0
  9
$USERI1
 70
0
  9
$USERI2
 70
0
  9
$USERI3
 70
0
  9
$USERI4
 70
0
  9
$USERI5
 70
0
  9
$USERR1
 40
0.0
  9
$USERR2
 40
0.0
  9
$USERR3
 40
0.0
  9
$USERR4
 40
0.0
  9
$USERR5
 40
0.0
  9
$WORLDVIEW
 70
1
  9
$SHADEDGE
 70
3
  9
$SHADEDIF
 70
70
  9
$TILEMODE
 70
1
  9
$MAXACTVP
 70
64
  9
$PINSBASE
 10
0.0
 20
0.0
 30
0.0
  9
$PLIMCHECK
 70
0
  9
$PEXTMIN
 10
1e+20
 20
1e+20
 30
1e+20
  9
$PEXTMAX
 10
-1e+20
 20
-1e+20
 30
-1e+20
  9
$PLIMMIN
 10
0.0
 20
0.0
  9
$PLIMMAX
 10
420.0
 20
297.0
  9
$UNITMODE
 70
0
  9
$VISRETAIN
 70
1
  9
$PLINEGEN
 70
0
  9
$PSLTSCALE
 70
1
  9
$TREEDEPTH
 70
3020
  9
$CMLSTYLE
  2
Standard
  9
$CMLJUST
 70
0
  9
$CMLSCALE
 40
20.0
  9
$PROXYGRAPHICS
 70
1
  9
$MEASUREMENT
 70
1
  9
$CELWEIGHT
370
-1
  9
$ENDCAPS
280
0
  9
$JOINSTYLE
280
0
  9
$LWDISPLAY
290
0
  9
$INSUNITS
 70
4
  9
$HYPERLINKBASE
  1

  9
$STYLESHEET
  1

  9
$XEDIT
290
1
  9
$CEPSNTYPE
380
0
  9
$PSTYLEMODE
290
1
  9
$FINGERPRINTGUID
  2
{2F0D76B3-128A-4208-82E0-B48A5B6E1755}
  9
$VERSIONGUID
  2
{CAD11A31-2085-455D-9DFA-681A19FC562A}
  9
$EXTNAMES
290
1
  9
$PSVPSCALE
 40
0.0
  9
$OLESTARTUP
290
0
  9
$SORTENTS
280
127
  9
$INDEXCTL
280
0
  9
$HIDETEXT
280
1
  9
$XCLIPFRAME
280
0
  9
$HALOGAP
280
0
  9
$OBSCOLOR
 70
257
  9
$OBSLTYPE
280
0
  9
$INTERSECTIONDISPLAY
280
0
  9
$INTERSECTIONCOLOR
 70
257
  9
$DIMASSOC
280
2
  9
$PROJECTNAME
  1

  9
$CAMERADISPLAY
290
0
  9
$LENSLENGTH
 40
50.0
  9
$CAMERAHEIGHT
 40
0.0
  9
$STEPSPERSEC
 40
24.0
  9
$STEPSIZE
 40
100.0
  9
$3DDWFPREC
 40
2.0
  9
$PSOLWIDTH
 40
0.005
  9
$PSOLHEIGHT
 40
0.08
  9
$LOFTANG1
 40
1.570796326795
  9
$LOFTANG2
 40
1.570796326795
  9
$LOFTMAG1
 40
0.0
  9
$LOFTMAG2
 40
0.0
  9
$LOFTPARAM
 70
7
  9
$LOFTNORMALS
280
1
  9
$LATITUDE
 40
37.795
  9
$LONGITUDE
 40
-122.394
  9
$NORTHDIRECTION
 40
0.0
  9
$TIMEZONE
 70
-8000
  9
$LIGHTGLYPHDISPLAY
280
1
  9
$TILEMODELIGHTSYNCH
280
1
  9
$CMATERIAL
347
20
  9
$SOLIDHIST
280
0
  9
$SHOWHIST
280
1
  9
$DWFFRAME
280
2
  9
$DGNFRAME
280
2
  9
$REALWORLDSCALE
290
1
  9
$INTERFERECOLOR
 62
256
  9
$CSHADOW
280
0
  9
$SHADOWPLANELOCATION
 40
0.0
  0
ENDSEC
  0
SECTION
  2
CLASSES
  0
CLASS
  1
ACDBDICTIONARYWDFLT
  2
AcDbDictionaryWithDefault
  3
ObjectDBX Classes
 90
0
 91
0
280
0
281
0
  0
CLASS
  1
SUN
  2
AcDbSun
  3
SCENEOE
 90
1153
 91
0
280
0
281
0
  0
CLASS
  1
VISUALSTYLE
  2
AcDbVisualStyle
  3
ObjectDBX Classes
 90
4095
 91
0
280
0
281
0
  0
CLASS
  1
MATERIAL
  2
AcDbMaterial
  3
ObjectDBX Classes
 90
1153
 91
0
280
0
281
0
  0
CLASS
  1
SCALE
  2
AcDbScale
  3
ObjectDBX Classes
 90
1153
 91
0
280
0
281
0
  0
CLASS
  1
TABLESTYLE
  2
AcDbTableStyle
  3
ObjectDBX Classes
 90
4095
 91
0
280
0
281
0
  0
CLASS
  1
MLEADERSTYLE
  2
AcDbMLeaderStyle
  3
ACDB_MLEADERSTYLE_CLASS
 90
4095
 91
0
280
0
281
0
  0
CLASS
  1
DICTIONARYVAR
  2
AcDbDictionaryVar
  3
ObjectDBX Classes
 90
0
 91
0
280
0
281
0
  0
CLASS
  1
CELLSTYLEMAP
  2
AcDbCellStyleMap
  3
ObjectDBX Classes
 90
1152
 91
0
280
0
281
0
  0
CLASS
  1
MENTALRAYRENDERSETTINGS
  2
AcDbMentalRayRenderSettings
  3
SCENEOE
 90
1024
 91
0
280
0
281
0
  0
CLASS
  1
ACDBDETAILVIEWSTYLE
  2
AcDbDetailViewStyle
  3
ObjectDBX Classes
 90
1025
 91
0
280
0
281
0
  0
CLASS
  1
ACDBSECTIONVIEWSTYLE
  2
AcDbSectionViewStyle
  3
ObjectDBX Classes
 90
1025
 91
0
280
0
281
0
  0
CLASS
  1
RASTERVARIABLES
  2
AcDbRasterVariables
  3
ISM
 90
0
 91
0
280
0
281
0
  0
CLASS
  1
ACDBPLACEHOLDER
  2
AcDbPlaceHolder
  3
ObjectDBX Classes
 90
0
 91
0
280
0
281
0
  0
CLASS
  1
LAYOUT
  2
AcDbLayout
  3
ObjectDBX Classes
 90
0
 91
0
280
0
281
0
  0
ENDSEC
  0
SECTION
  2
TABLES
  0
TABLE
  2
VPORT
  5
8
330
0
100
AcDbSymbolTable
 70
1
  0
VPORT
  5
23
330
8
100
AcDbSymbolTableRecord
100
AcDbViewportTableRecord
  2
*Active
 70
0
 10
0.0
 20
0.0
 11
1.0
 21
1.0
 12
0.0
 22
0.0
 13
0.0
 23
0.0
 14
0.5
 24
0.5
 15
0.5
 25
0.5
 16
0.0
 26
0.0
 36
1.0
 17
0.0
 27
0.0
 37
0.0
 40
1000.0
 41
1.34
 42
50.0
 43
0.0
 44
0.0
 50
0.0
 51
0.0
 71
0
 72
1000
 73
1
 74
3
 75
0
 76
0
 77
0
 78
0
281
0
 65
0
146
0.0
  0
ENDTAB
  0
TABLE
  2
LTYPE
  5
2
330
0
100
AcDbSymbolTable
 70
3
  0
LTYPE
  5
24
330
2
100
AcDbSymbolTableRecord
100
AcDbLinetypeTableRecord
  2
ByBlock
 70
0
  3

 72
65
 73
0
 40
0.0
  0
LTYPE
  5
25
330
2
100
AcDbSymbolTableRecord
100
AcDbLinetypeTableRecord
  2
ByLayer
 70
0
  3

 72
65
 73
0
 40
0.0
  0
LTYPE
  5
26
330
2
100
AcDbSymbolTableRecord
100
AcDbLinetypeTableRecord
  2
Continuous
 70
0
  3

 72
65
 73
0
 40
0.0
  0
ENDTAB
  0
TABLE
  2
LAYER
  5
1
330
0
100
AcDbSymbolTable
 70
2
  0
LAYER
  5
27
330
1
100
AcDbSymbolTableRecord
100
AcDbLayerTableRecord
  2
0
 70
0
 62
7
  6
Continuous
370
-3
390
13
347
21
  0
LAYER
  5
28
330
1
100
AcDbSymbolTableRecord
100
AcDbLayerTableRecord
  2
Defpoints
 70
0
 62
7
  6
Continuous
290
0
370
-3
390
13
347
21
  0
ENDTAB
  0
TABLE
  2
STYLE
  5
5
330
0
100
AcDbSymbolTable
 70
1
  0
STYLE
  5
29
330
5
100
AcDbSymbolTableRecord
100
AcDbTextStyleTableRecord
  2
Standard
 70
0
 40
0.0
 41
1.0
 50
0.0
 71
0
 42
2.5
  3
txt
  4

  0
ENDTAB
  0
TABLE
  2
VIEW
  5
7
330
0
100
AcDbSymbolTable
 70
0
  0
ENDTAB
  0
TABLE
  2
UCS
  5
6
330
0
100
AcDbSymbolTable
 70
0
  0
ENDTAB
  0
TABLE
  2
APPID
  5
3
330
0
100
AcDbSymbolTable
 70
3
  0
APPID
  5
2A
330
3
100
AcDbSymbolTableRecord
100
AcDbRegAppTableRecord
  2
ACAD
 70
0
  0
APPID
  5
4D
330
3
100
AcDbSymbolTableRecord
100
AcDbRegAppTableRecord
  2
HATCHBACKGROUNDCOLOR
 70
0
  0
APPID
  5
4E
330
3
100
AcDbSymbolTableRecord
100
AcDbRegAppTableRecord
  2
EZDXF
 70
0
  0
ENDTAB
  0
TABLE
  2
DIMSTYLE
  5
4
330
0
100
AcDbSymbolTable
 70
1
100
AcDbDimStyleTable
  0
DIMSTYLE
105
2B
330
4
100
AcDbSymbolTableRecord
100
AcDbDimStyleTableRecord
  2
Standard
 70
0
 40
1.0
 41
2.5
 42
0.625
 43
3.75
 44
1.25
 45
0.0
 46
0.0
 47
0.0
 48
0.0
 49
2.5
140
2.5
141
2.5
142
0.0
143
0.03937007874
144
1.0
145
0.0
146
1.0
147
0.625
148
0.0
 69
0
 70
0
 71
0
 72
0
 73
0
 74
0
 75
0
 76
0
 77
1
 78
8
 79
3
170
0
171
3
172
1
173
0
174
0
175
0
176
0
177
0
178
0
179
2
271
2
272
2
273
2
274
3
275
0
276
0
277
2
278
44
279
0
280
0
281
0
282
0
283
0
284
8
285
0
286
0
288
0
289
3
290
0
371
-2
372
-2
  0
ENDTAB
  0
TABLE
  2
BLOCK_RECORD
  5
9
330
0
100
AcDbSymbolTable
 70
2
  0
BLOCK_RECORD
  5
17
330
9
100
AcDbSymbolTableRecord
100
AcDbBlockTableRecord
  2
*Model_Space
340
1A
 70
0
280
1
281
0
  0
BLOCK_RECORD
  5
1B
330
9
100
AcDbSymbolTableRecord
100
AcDbBlockTableRecord
  2
*Paper_Space
340
1E
 70
0
280
1
281
0
  0
ENDTAB
  0
ENDSEC
  0
SECTION
  2
BLOCKS
  0
BLOCK
  5
18
330
17
100
AcDbEntity
  8
0
100
AcDbBlockBegin
  2
*Model_Space
 70
0
 10
0.0
 20
0.0
 30
0.0
  3
*Model_Space
  1

  0
ENDBLK
  5
19
330
17
100
AcDbEntity
  8
0
100
AcDbBlockEnd
  0
BLOCK
  5
1C
330
1B
100
AcDbEntity
  8
0
100
AcDbBlockBegin
  2
*Paper_Space
 70
0
 10
0.0
 20
0.0
 30
0.0
  3
*Paper_Space
  1

  0
ENDBLK
  5
1D
330
1B
100
AcDbEntity
  8
0
100
AcDbBlockEnd
  0
ENDSEC
  0
SECTION
  2
ENTITIES
  0
LWPOLYLINE
  5
2F
330
17
100
AcDbEntity
  8
default
100
AcDbPolyline
 90
1090
 70
0
 10
337.9801939727931
 20
553.2589478485336
 10
338.3306106394519
 20
553.4077188181334
 10
338.66641346083014
 20
553.5922811818666
 10
338.9999843399579
 20
553.7410521514668
 10
339.3333489933755
 20
553.9256145152002
 10
339.6669198725034
 20
554.0743854848
 10
340.00272269388165
 20
554.2589478485334
 10
340.3531393605406
 20
554.4077188181335
 10
340.7583730305926
 20
554.5922811818668
 10
341.2416269698943
 20
554.7410521514666
 10
341.64686066276863
 20
554.9256145152001
 10
341.99727805036025
 20
555.0743854848001
 10
342.33309650894665
 20
555.2589478485335
 10
342.66690349105346
 20
555.4077188181333
 10
343.00272194963986
 20
555.5922811818666
 10
343.3531393372315
 20
555.7410521514668
 10
343.75837303011167
 20
555.9256145152001
 10
344.2416269698884
 20
556.0743854847999
 10
344.6468606627686
 20
556.2589478485334
 10
344.99727805036025
 20
556.4077188181334
 10
345.3330965089526
 20
556.5922811818667
 10
345.6669034915343
 20
556.7410521514666
 10
346.0027219729547
 20
556.9256145152002
 10
346.35314008195405
 20
557.0743854848
 10
346.7583894348706
 20
557.2589478485334
 10
347.241880198559
 20
557.4077188181334
 10
347.6495833338221
 20
557.5922811818668
 10
348.01708333333147
 20
557.7410521514666
 10
348.42478649141674
 20
557.9256145152
 10
348.9082779760379
 20
558.0743854848
 10
349.3135429661626
 20
558.2589478485336
 10
349.66419717814114
 20
558.4077188181334
 10
350.0024694647361
 20
558.5922811818666
 10
350.3531229562566
 20
558.7410521514668
 10
350.758372309179
 20
558.9256145152002
 10
351.2416276908213
 20
559.0743854848
 10
351.6468770437436
 20
559.2589478485334
 10
351.9975305352641
 20
559.4077188181335
 10
352.33580282185915
 20
559.5922811818668
 10
352.68645703383754
 20
559.7410521514666
 10
353.09172202396223
 20
559.9256145152001
 10
353.57521350858343
 20
560.0743854848001
 10
353.98291666667456
 20
560.2589478485335
 10
354.35041666665893
 20
560.4077188181333
 10
354.75811982475005
 20
560.5922811818666
 10
355.2416113093712
 20
560.7410521514668
 10
355.64687629950186
 20
560.9256145152001
 10
355.9975305119552
 20
561.0743854847999
 10
356.3358028213783
 20
561.2589478485334
 10
356.6864570338317
 20
561.4077188181334
 10
357.0917220239682
 20
561.5922811818667
 10
357.57521350906427
 20
561.7410521514666
 10
357.9829166899834
 20
561.9256145152002
 10
358.3504174109007
 20
562.0743854848
 10
358.7581362062058
 20
562.2589478485334
 10
359.241863794281
 20
562.4077188181334
 10
359.6495826124085
 20
562.5922811818668
 10
360.0170840542584
 20
562.7410521514666
 10
360.4248028723918
 20
562.9256145152001
 10
360.90853046094173
 20
563.0743854848
 10
361.3162492790751
 20
563.2589478485336
 10
361.68375072092505
 20
563.4077188181336
 10
362.0914695390583
 20
563.5922811818668
 10
362.57519712760836
 20
563.7410521514666
 10
362.9829159457417
 20
563.9256145152001
 10
363.35041738759173
 20
564.0743854848002
 10
363.75813620572507
 20
564.2589478485334
 10
364.2418637942751
 20
564.4077188181335
 10
364.6495826124085
 20
564.5922811818668
 10
365.0170840542584
 20
564.7410521514669
 10
365.4248028723918
 20
564.9256145152002
 10
365.90853046094173
 20
565.0743854848001
 10
366.3162492790751
 20
565.2589478485335
 10
366.68375072092505
 20
565.4077188181335
 10
367.0914695390583
 20
565.5922811818666
 10
367.57519712760836
 20
565.7410521514668
 10
367.9829159457417
 20
565.9256145152002
 10
368.35041738759173
 20
566.0743854848001
 10
368.75813620572507
 20
566.2589478485335
 10
369.2418637942751
 20
566.4077188181336
 10
369.64958261241435
 20
566.5922811818668
 10
370.01708405473914
 20
566.7410521514668
 10
370.4248028957007
 20
566.9256145152003
 10
370.9085312051835
 20
567.0743854848002
 10
371.3162656605309
 20
567.2589478485336
 10
371.68400320583487
 20
567.4077188181334
 10
372.09417585197093
 20
567.5922811818667
 10
372.5947506703925
 20
567.7410521514669
 10
373.07191602006395
 20
567.9256145152001
 10
373.5724915589435
 20
568.0743854848
 10
373.9826798422878
 20
568.2589478485336
 10
374.35065349104565
 20
568.4077188181336
 10
374.7608417743959
 20
568.5922811818668
 10
375.26141731375026
 20
568.7410521514666
 10
375.73858268624997
 20
568.9256145152001
 10
376.23915822560434
 20
569.0743854848002
 10
376.64934650895447
 20
569.2589478485334
 10
377.0173201577123
 20
569.4077188181335
 10
377.42750844106246
 20
569.5922811818668
 10
377.9280839804169
 20
569.7410521514669
 10
378.40524935292257
 20
569.9256145152002
 10
378.9058248927518
 20
570.0743854848001
 10
379.31601319892997
 20
570.2589478485335
 10
379.68398756862064
 20
570.4077188181335
 10
380.0941914891791
 20
570.5922811818666
 10
380.5950031315125
 20
570.7410521514668
 10
381.07462230918685
 20
570.9256145152002
 10
381.59204435748
 20
571.0743854848001
 10
382.07166353516016
 20
571.2589478485335
 10
382.5724751779686
 20
571.4077188181336
 10
382.98267912136083
 20
571.5922811818668
 10
383.35065421245923
 20
571.7410521514668
 10
383.7608581786738
 20
571.9256145152003
 10
384.26167054241495
 20
572.0743854848002
 10
384.7413053573035
 20
572.2589478485336
 10
385.2589635085757
 20
572.4077188181334
 10
385.74103649142467
 20
572.5922811818667
 10
386.2586946426968
 20
572.7410521514669
 10
386.7383294575852
 20
572.9256145152001
 10
387.23914182132637
 20
573.0743854848
 10
387.64934578754685
 20
573.2589478485336
 10
388.0173208791201
 20
573.4077188181336
 10
388.4275248453465
 20
573.5922811818668
 10
388.9283372095625
 20
573.7410521514666
 10
389.4079720472849
 20
573.9256145152001
 10
389.92563091996493
 20
574.0743854848002
 10
390.4077195628561
 20
574.2589478485334
 10
390.92561453851494
 20
574.4077188181335
 10
391.4077188186143
 20
574.5922811818668
 10
391.92561451520606
 20
574.7410521514669
 10
392.4077188181334
 20
574.9256145152002
 10
392.9256145152001
 20
575.0743854848001
 10
393.40771881813345
 20
575.2589478485335
 10
393.9256145152001
 20
575.4077188181335
 10
394.4077188181334
 20
575.5922811818666
 10
394.92561451520027
 20
575.7410521514668
 10
395.1783827967097
 20
575.8378185798679
 10
395.4077188181393
 20
575.9256145152002
 10
395.9256145156809
 20
576.0743854848001
 10
396.40771884144823
 20
576.2589478485335
 10
396.9256152599226
 20
576.4077188181336
 10
397.40773522289817
 20
576.5922811818668
 10
397.9258677443516
 20
576.7410521514668
 10
398.41044151249594
 20
576.9256145152003
 10
398.9454205424131
 20
577.0743854848002
 10
399.4994251820534
 20
577.2589478485336
 10
400.16724148461356
 20
577.4077188181334
 10
400.7212461242597
 20
577.5922811818667
 10
401.25622515465193
 20
577.7410521514669
 10
401.7407989456302
 20
577.9256145152001
 10
402.2589321884913
 20
578.0743854848
 10
402.7410678115091
 20
578.2589478485336
 10
403.25920105437
 20
578.4077188181336
 10
403.7437748453483
 20
578.5922811818668
 10
404.27875387574056
 20
578.7410521514666
 10
404.83275851538673
 20
578.9256145152001
 10
405.5005748179469
 20
579.0743854848002
 10
406.0545794575931
 20
579.2589478485334
 10
406.5895584879852
 20
579.4077188181335
 10
407.0741322789634
 20
579.5922811818668
 10
407.59226552182463
 20
579.7410521514669
 10
408.0744011448423
 20
579.9256145152002
 10
408.5925343877035
 20
580.0743854848001
 10
409.0771081786876
 20
580.2589478485335
 10
409.6120872095548
 20
580.4077188181335
 10
410.16609187203494
 20
580.5922811818666
 10
410.83390889600275
 20
580.7410521514668
 10
411.3879291956852
 20
580.9256145152002
 10
411.9231450499893
 20
581.0743854848001
 10
412.4101882833503
 20
581.2589478485335
 10
412.9454041381292
 20
581.4077188181336
 10
413.4994244606458
 20
581.5922811818668
 10
414.16724220602117
 20
581.7410521514668
 10
414.7212625285377
 20
581.9256145152003
 10
415.2564783833167
 20
582.0743854848002
 10
415.7435216166836
 20
582.2589478485336
 10
416.2787374714625
 20
582.4077188181334
 10
416.83275779397906
 20
582.5922811818667
 10
417.50057553935454
 20
582.7410521514669
 10
418.0545958618769
 20
582.9256145152001
 10
418.5898117171308
 20
583.0743854848
 10
419.07685497332585
 20
583.2589478485336
 10
419.61207154903764
 20
583.4077188181336
 10
420.1661075087683
 20
583.5922811818668
 10
420.8341613575977
 20
583.7410521514666
 10
421.3906355081227
 20
583.9256145152001
 10
421.94269859324817
 20
584.0743854848002
 10
422.4991883809815
 20
584.2589478485334
 10
423.1674790537228
 20
584.4077188181335
 10
423.72398447866425
 20
584.5922811818668
 10
424.2762843877016
 20
584.7410521514669
 10
424.8352280034377
 20
584.9256145152002
 10
425.5203651855926
 20
585.0743854848001
 10
426.14630150487005
 20
585.2589478485335
 10
426.83143940795776
 20
585.4077188181335
 10
427.39039868373607
 20
585.5922811818666
 10
427.9429354176349
 20
585.7410521514668
 10
428.0807426242318
 20
585.7865533415884
 10
428.50191033062134
 20
585.9256145152002
 10
429.1872850576209
 20
586.0743854848001
 10
429.8156908421035
 20
586.2589478485335
 10
430.5179113571089
 20
586.4077188181336
 10
431.1487553095579
 20
586.5922811818668
 10
431.8509758245634
 20
586.7410521514668
 10
432.4793816090518
 20
586.9256145152003
 10
433.16475633652635
 20
587.0743854848002
 10
433.72373127234687
 20
587.2589478485336
 10
434.2762687276535
 20
587.4077188181334
 10
434.83524366347973
 20
587.5922811818667
 10
435.52061839142925
 20
587.7410521514669
 10
436.1490241987516
 20
587.9256145152001
 10
436.8512454351649
 20
588.0743854848
 10
437.482105047656
 20
588.2589478485336
 10
438.1845623870483
 20
588.4077188181336
 10
438.8154376367535
 20
588.5922811818668
 10
439.5178956975535
 20
588.7410521514666
 10
440.148770992915
 20
588.9256145152001
 10
440.85122977512265
 20
589.0743854848002
 10
441.48212070769813
 20
589.2589478485334
 10
442.1848155928849
 20
589.4077188181335
 10
442.8181603306291
 20
589.5922811818668
 10
443.5377017242797
 20
589.7410521514669
 10
444.240477333526
 20
589.9256145152002
 10
445.0928560002943
 20
590.0743854848001
 10
445.79563163236867
 20
590.2589478485335
 10
446.5151737474271
 20
590.4077188181335
 10
447.1485341452194
 20
590.5922811818666
 10
447.8514658552677
 20
590.7410521514668
 10
448.484826275888
 20
590.9256145152002
 10
449.20436911235413
 20
591.0743854848001
 10
449.9071604044766
 20
591.2589478485335
 10
450.75977589610665
 20
591.4077188181336
 10
451.4650209934036
 20
591.5922811818668
 10
452.2016464417874
 20
591.7410521514668
 10
452.90690719912084
 20
591.9256145152003
 10
453.7597602360703
 20
592.0743854848002
 10
454.46503665344574
 20
592.2589478485336
 10
455.20189964762403
 20
592.4077188181334
 10
455.90962989299646
 20
592.5922811818667
 10
456.7795662627965
 20
592.7410521514669
 10
457.5567429940509
 20
592.9256145152001
 10
458.443525872315
 20
593.0743854848
 10
459.22314079436387
 20
593.2589478485336
 10
459.3637833617154
 20
593.2825427234487
 10
460.10992367357767
 20
593.4077188181336
 10
460.8871004505
 20
593.5922811818668
 10
461.7570382631155
 20
593.7410521514666
 10
462.4647998285782
 20
593.9256145152001
 10
463.2021364720049
 20
594.0743854848002
 10
463.9123518426422
 20
594.2589478485334
 10
464.16580587534634
 20
594.301457131467
 10
464.7993722671755
 20
594.4077188181335
 10
465.6484493808108
 20
594.5922811818668
 10
466.6851535869257
 20
594.7410521514669
 10
467.53668452855777
 20
594.9256145152002
 10
468.44078828594166
 20
595.0743854848001
 10
469.2229196305001
 20
595.2589478485335
 10
470.1104137038069
 20
595.4077188181335
 10
470.89254509402735
 20
595.5922811818666
 10
471.79665029470164
 20
595.7410521514668
 10
472.6482125792521
 20
595.9256145152002
 10
473.68539115554825
 20
596.0743854848001
 10
474.5394228596534
 20
596.2589478485335
 10
475.4608467747497
 20
596.4077188181336
 10
476.3173323068577
 20
596.5922811818668
 10
477.37159421647925
 20
596.7410521514668
 10
478.29507249778476
 20
596.9256145152003
 10
479.34933584974704
 20
597.0743854848002
 10
479.8784461228352
 20
597.1883982328546
 10
480.2058527247733
 20
597.2589478485336
 10
481.12775101100044
 20
597.4077188181334
 10
481.9867373512436
 20
597.5922811818667
 10
483.058320860918
 20
597.7410521514669
 10
483.8363610091256
 20
597.8849564936327
 10
484.05618462702364
 20
597.9256145152001
 10
485.2776887426664
 20
598.0743854848
 10
486.28047577915754
 20
598.2589478485336
 10
487.38646205798693
 20
598.4077188181336
 10
488.39173419689723
 20
598.5922811818668
 10
489.63079529368906
 20
598.7410521514666
 10
490.70551398697165
 20
598.9256145152001
 10
491.961422314585
 20
599.0743854848002
 10
493.038594858716
 20
599.2589478485334
 10
494.29474001166597
 20
599.4077188181335
 10
495.37194387588124
 20
599.5922811818668
 10
496.6283272950835
 20
599.7410521514669
 10
497.7080162845577
 20
599.9256145152002
 10
497.9542418021476
 20
599.9543741342953
 10
498.98171914101437
 20
600.0743854848001
 10
500.1357623180383
 20
600.2589478485335
 10
501.57623373126773
 20
600.4077188181335
 10
502.8716394365968
 20
600.5922811818666
 10
504.4625051055182
 20
600.7410521514668
 10
505.7653192750758
 20
600.9256145152001
 10
507.25775333326385
 20
601.0743854847883
 10
508.635000310123
 20
601.2589478475719
 10
510.41115179747646
 20
601.4077187714921
 10
511.9374041193633
 20
601.5922796914601
 10
513.8025094867336
 20
601.7410192952959
 10
515.5885529887341
 20
601.9251065664904
 10
517.3629527113911
 20
602.0238732172475
 10
518.1720148462363
 20
602.0689072399047
 10
521.2698364653619
 20
602.2188278453982
 10
524.1475517071144
 20
602.2188278453982
 10
525.9269717582812
 20
602.2188278453982
 10
528.5958451851554
 20
602.0689072399047
 10
530.1943667449696
 20
601.9251065664904
 10
531.1747053663073
 20
601.7410192952959
 10
531.8062230038548
 20
601.6377201913186
 10
532.0840228686624
 20
601.5922796914601
 10
532.7920977719903
 20
601.4077187714921
 10
533.4948099742869
 20
601.2589478475719
 10
534.0513472902093
 20
601.0743854847883
 10
534.5697188121522
 20
600.9256145151942
 10
534.982407972755
 20
600.7410521509861
 10
535.3503838100074
 20
600.5922811585402
 10
535.7581190562319
 20
600.4077180724493
 10
536.2416269694077
 20
600.2589313971274
 10
536.6471146133221
 20
600.074130765236
 10
537.0000328323634
 20
599.9228589641859
 10
537.3533940563029
 20
599.7207381522237
 10
537.7638341254965
 20
599.4950958278597
 10
538.2817297987793
 20
599.1259554184609
 10
538.8354975678783
 20
598.7562756419641
 10
539.5179106342646
 20
598.2176632718259
 10
539.7429893860062
 20
598.047809916165
 10
540.1289328314137
 20
597.756561680645
 10
540.756292046729
 20
597.12920246533
 10
541.2149398327409
 20
596.5206340733494
 10
541.7364695914364
 20
595.8553036183887
 10
542.03424905406
 20
595.3734361617377
 10
542.2534688584403
 20
595.0054610249479
 10
542.4072108460913
 20
594.6669191263325
 10
542.5922483242534
 20
594.3305941637752
 10
542.7410506144128
 20
593.9794320506787
 10
542.9256129781521
 20
593.5667101725272
 10
543.0743526276676
 20
593.0310199028373
 10
543.0833690619489
 20
592.9999999994421
 10
543.0743526281482
 20
592.9689800976433
 10
542.9256130014313
 20
592.4332898507525
 10
542.7410513562503
 20
592.0205686911594
 10
542.5922645891352
 20
591.6694221011068
 10
542.4074596073884
 20
591.3333296349648
 10
542.2560931475291
 20
590.9971632641415
 10
542.052536451087
 20
590.6448512352897
 10
541.8118561939467
 20
590.2200829841222
 10
541.3379838680279
 20
589.602409961938
 10
541.0153065995798
 20
589.2204251570041
 10
540.5223038636916
 20
588.6368093516332
 10
539.0295876811236
 20
587.1440931690593
 10
538.061533266125
 20
586.3259593595542
 10
537.4267776553492
 20
585.8350044221926
 10
536.9301098131416
 20
585.5224238511794
 10
536.427892907839
 20
585.1689465497185
 10
536.020065190824
 20
584.9456797531462
 10
535.6694059285226
 20
584.7437914375989
 10
535.3335865663255
 20
584.5925351595932
 10
535.0000000233563
 20
584.4077352462602
 10
534.6664141822382
 20
584.2589485937372
 10
534.330610638971
 20
584.0743855081208
 10
533.9801932280646
 20
583.9256145156811
 10
533.5749438746672
 20
583.7410521514727
 10
533.0914523895652
 20
583.5922811818667
 10
532.683733571426
 20
583.4077188181334
 10
532.3159960256472
 20
583.2589478485336
 10
531.905807719463
 20
583.0743854848002
 10
531.404995355247
 20
582.9256145152003
 10
530.9253448574823
 20
582.7410521514668
 10
530.407448439008
 20
582.5922811818668
 10
529.9228746480239
 20
582.4077188181336
 10
529.38765879277
 20
582.2589478485335
 10
528.8311690050309
 20
582.0743854848001
 10
528.1460311019431
 20
581.9256145152002
 10
527.5176252946264
 20
581.7410521514668
 10
526.8151672338264
 20
581.5922811818666
 10
526.1818224960824
 20
581.4077188181335
 10
525.4620442780451
 20
581.2589478485335
 10
524.7567835435515
 20
581.0743854848001
 10
523.8870839986131
 20
580.9256145152002
 10
523.1099229045786
 20
580.7410521514669
 10
522.2231400263146
 20
580.5922811818668
 10
521.4435094670574
 20
580.4077188181335
 10
520.5564897639321
 20
580.2589478485334
 10
519.7768435218044
 20
580.0743854848002
 10
518.8898223763382
 20
579.9256145152001
 10
518.1101604741687
 20
579.7410521514666
 10
517.2229032252486
 20
579.5922811818668
 10
516.4407875179045
 20
579.4077188181336
 10
515.5366837605204
 20
579.2589478485336
 10
514.7047891312501
 20
579.0786448058457
 10
514.6851371816801
 20
579.0743854848
 10
513.6481961516536
 20
578.9256145152001
 10
512.7966495728132
 20
578.7410521514669
 10
511.8925458154292
 20
578.5922811818667
 10
511.1104301080849
 20
578.4077188181334
 10
510.22317285916495
 20
578.2589478485336
 10
509.4435109569953
 20
578.0743854848002
 10
508.5564898115291
 20
577.9256145152003
 10
507.77684356939574
 20
577.7410521514668
 10
506.88982386579517
 20
577.5922811818668
 10
506.11019328369815
 20
577.4077188181336
 10
505.22340968355155
 20
577.2589478485335
 10
504.4462329066292
 20
577.0743854848001
 10
503.5762958149464
 20
576.9256145152002
 10
502.86854990952605
 20
576.7410521514668
 10
502.13145009096104
 20
576.5922811818666
 10
501.4237042083687
 20
576.4077188181335
 10
500.55376783809356
 20
576.2589478485335
 10
499.7766067212133
 20
576.0743854848001
 10
498.89005994545346
 20
575.9256145152002
 10
498.1128988285792
 20
575.7410521514669
 10
497.2429624587791
 20
575.5922811818668
 10
496.53521659902077
 20
575.4077188181335
 10
495.79811750186354
 20
575.2589478485334
 10
495.0903872564911
 20
575.0743854848002
 10
494.22068698967007
 20
574.9256145152001
 10
493.4459797007925
 20
574.7410521514666
 10
492.5762801549043
 20
574.5922811818668
 10
491.8685655695682
 20
574.4077188181336
 10
491.1317032967976
 20
574.2589478485336
 10
490.42642690225614
 20
574.0743854848
 10
489.57357386578144
 20
573.9256145152001
 10
488.86831310844815
 20
573.7410521514669
 10
488.1316876595894
 20
573.5922811818667
 10
487.42644253946423
 20
573.4077188181334
 10
486.96254198545245
 20
573.32677391678
 10
486.57382632690144
 20
573.2589478485336
 10
485.87101939757093
 20
573.0743854848002
 10
485.15124045812604
 20
572.9256145152003
 10
484.51542623233684
 20
572.7410521514668
 10
483.7956480138246
 20
572.5922811818668
 10
483.09285674453605
 20
572.4077188181336
 10
482.85316188101837
 20
572.3658834127165
 10
482.2404773568349
 20
572.2589478485335
 10
481.5377017247606
 20
572.0743854848001
 10
480.81816033063507
 20
571.9256145152002
 10
480.1848155928849
 20
571.7410521514668
 10
479.48212070769813
 20
571.5922811818666
 10
478.8512297751226
 20
571.4077188181335
 10
478.1487709929149
 20
571.2589478485335
 10
477.51789569754766
 20
571.0743854848001
 10
476.8154376362727
 20
570.9256145152002
 10
476.1845623637335
 20
570.7410521514669
 10
475.4821043029335
 20
570.5922811818668
 10
474.8512290304002
 20
570.4077188181335
 10
474.8454887013308
 20
570.4065030952753
 10
474.14877096960015
 20
570.2589478485334
 10
473.5178956970668
 20
570.0743854848002
 10
472.81543763626684
 20
569.9256145152001
 10
472.1845623637335
 20
569.7410521514666
 10
471.48210430293346
 20
569.5922811818668
 10
470.8512290304002
 20
569.4077188181336
 10
470.1487709696002
 20
569.2589478485336
 10
469.51789569707273
 20
569.0743854848
 10
468.82567100815345
 20
568.9277818027184
 10
468.8154376367476
 20
568.9256145152001
 10
468.18456238704823
 20
568.7410521514666
 10
467.482105047656
 20
568.5922811818668
 10
466.8512454351649
 20
568.4077188181334
 10
466.1490241987516
 20
568.2589478485334
 10
465.52061839142925
 20
568.0743854848
 10
464.83524366347973
 20
567.9256145152002
 10
464.2762687276594
 20
567.7410521514666
 10
463.72373127282765
 20
567.5922811818667
 10
463.16475635983534
 20
567.4077188181334
 10
462.47938235329354
 20
567.2589478485334
 10
461.8509922060134
 20
567.0743854847999
 10
461.1490077939868
 20
566.9256145152001
 10
460.5773091258842
 20
566.7577028157791
 10
460.5206176467126
 20
566.7410521514668
 10
459.83524364064573
 20
566.5922811818666
 10
459.2762687504875
 20
566.4077188181333
 10
458.7237320170635
 20
566.2589478485335
 10
458.16477274129113
 20
566.0743854848001
 10
457.4796348382033
 20
565.9256145152001
 10
456.85369851892585
 20
565.7410521514666
 10
456.16856133677095
 20
565.5922811818668
 10
455.6705869994932
 20
565.4278507846335
 10
455.6096177210349
 20
565.4077188181335
 10
455.0573178119977
 20
565.2589478485334
 10
454.50081238705616
 20
565.0743854848
 10
453.8325217143149
 20
564.9256145152002
 10
453.35781445161666
 20
564.7681756970651
 10
453.27603192658154
 20
564.7410521514668
 10
452.723968841456
 20
564.5922811818666
 10
452.16749469093094
 20
564.4077188181334
 10
451.49944084210154
 20
564.2589478485336
 10
450.94540488236504
 20
564.0743854848
 10
450.4101883061783
 20
563.9256145152
 10
449.92314502715516
 20
563.7410521514666
 10
449.38792845096856
 20
563.5922811818668
 10
448.833892491238
 20
563.4077188181334
 10
448.1658386428835
 20
563.2589478485334
 10
447.6093645151923
 20
563.0743854848
 10
447.0573021514746
 20
562.9256145152002
 10
446.5008280237836
 20
562.7410521514666
 10
445.83277417542905
 20
562.5922811818667
 10
445.27873821570427
 20
562.4077188181334
 10
444.74352163999254
 20
562.2589478485334
 10
444.25647838380337
 20
562.0743854847999
 10
443.72126252902444
 20
561.9256145152001
 10
443.1672422293301
 20
561.7410521514668
 10
442.4994252048873
 20
561.5922811818666
 10
441.9454205195791
 20
561.4077188181333
 10
441.41044076777916
 20
561.2589478485335
 10
440.925851339587
 20
561.0743854848001
 10
440.40748199374684
 20
560.9256145152001
 10
439.92289256556023
 20
560.7410521514666
 10
439.3879128142354
 20
560.5922811818668
 10
438.83390815176097
 20
560.4077188181335
 10
438.16609184872596
 20
560.2589478485334
 10
437.6120872090739
 20
560.0743854848
 10
437.07710817868167
 20
559.9256145152002
 10
436.5925343877035
 20
559.7410521514668
 10
436.07440114484234
 20
559.5922811818666
 10
435.5922655218246
 20
559.4077188181334
 10
435.0741322789635
 20
559.2589478485336
 10
434.5895584879852
 20
559.0743854848
 10
434.05457945759315
 20
558.9256145152
 10
433.50057481794687
 20
558.7410521514666
 10
432.8327585153868
 20
558.5922811818668
 10
432.2787538757465
 20
558.4077188181334
 10
431.74377484582914
 20
558.2589478485334
 10
431.25920107768485
 20
558.0743854848
 10
430.7410685562315
 20
557.9256145152002
 10
430.258948593256
 20
557.7410521514666
 10
429.74105217478166
 20
557.5922811818667
 10
429.2589478490143
 20
557.4077188181334
 10
428.74105215147273
 20
557.2589478485334
 10
428.2589478485335
 20
557.0743854847999
 10
427.7410521514668
 20
556.9256145152001
 10
427.25894784853347
 20
556.7410521514668
 10
426.7410521514667
 20
556.5922811818666
 10
426.25894784853347
 20
556.4077188181333
 10
425.7410521514669
 20
556.2589478485335
 10
425.2589478485335
 20
556.0743854848001
 10
424.7410521514668
 20
555.9256145152001
 10
424.25894784853347
 20
555.7410521514666
 10
423.74105215146676
 20
555.5922811818668
 10
423.25894784853347
 20
555.4077188181335
 10
422.7410521514668
 20
555.2589478485334
 10
422.25894784853347
 20
555.0743854848
 10
421.7410521514667
 20
554.9256145152002
 10
421.25894784853347
 20
554.7410521514668
 10
420.7410521514669
 20
554.5922811818666
 10
420.2589478485335
 20
554.4077188181334
 10
419.7410521514668
 20
554.2589478485336
 10
419.25894784853347
 20
554.0743854848
 10
418.7410521514668
 20
553.9256145152
 10
418.25894784853944
 20
553.7410521514666
 10
417.74105215194766
 20
553.5922811818668
 10
417.32265433308015
 20
553.4321073489044
 10
417.2589478718483
 20
553.4077188181334
 10
416.7410528961894
 20
553.2589478485334
 10
416.2589642532982
 20
553.0743854848
 10
415.9846095050173
 20
552.9955381510246
 10
415.7413053806182
 20
552.9256145152002
 10
415.2616705428958
 20
552.7410521514666
 10
414.76085817867977
 20
552.5922811818667
 10
414.35065421245935
 20
552.4077188181334
 10
413.98267912136106
 20
552.2589478485334
 10
413.5724751779686
 20
552.0743854847999
 10
413.07166353516027
 20
551.9256145152001
 10
412.59204435748
 20
551.7410521514668
 10
412.0746223091868
 20
551.5922811818666
 10
411.59500313150664
 20
551.4077188181333
 10
411.09419148869824
 20
551.2589478485335
 10
410.6839875453119
 20
551.0743854848001
 10
410.31601245468846
 20
550.9256145152001
 10
409.9058085113019
 20
550.7410521514666
 10
409.4049968684936
 20
550.5922811818668
 10
408.9253776908134
 20
550.4077188181335
 10
408.4079556425202
 20
550.2589478485334
 10
407.928336464846
 20
550.0743854848
 10
407.4275248225125
 20
549.9256145152002
 10
407.0173209019541
 20
549.7410521514668
 10
406.64934653226345
 20
549.5922811818666
 10
406.23915822609115
 20
549.4077188181334
 10
405.7385826867367
 20
549.2589478485336
 10
405.31656930527095
 20
549.095717665824
 10
405.26141733705924
 20
549.0743854848
 10
404.7608425186377
 20
548.9256145152
 10
404.35066987249564
 20
548.7410521514666
 10
403.9829323267169
 20
548.5922811818668
 10
403.5751978485413
 20
548.4077188181334
 10
403.09146881812563
 20
548.2589478485334
 10
402.6837343399502
 20
548.0743854848
 10
402.31599679417127
 20
547.9256145152002
 10
401.90582414803526
 20
547.7410521514666
 10
401.40524933008857
 20
547.5922811818667
 10
400.9280840032451
 20
547.4077188181334
 10
400.4275091852984
 20
547.2589478485334
 10
400.0173365391681
 20
547.0743854847999
 10
399.6495989938643
 20
546.9256145152001
 10
399.2418645385169
 20
546.7410521514668
 10
398.75813622903405
 20
546.5922811818666
 10
398.3504173880727
 20
546.4077188181333
 10
397.98291594574766
 20
546.2589478485335
 10
397.5751971276084
 20
546.0743854848001
 10
397.0914695390584
 20
545.9256145152001
 10
396.68375072092505
 20
545.7410521514666
 10
396.3162492790752
 20
545.5922811818668
 10
395.90853046094185
 20
545.4077188181335
 10
395.4248028723918
 20
545.2589478485334
 10
395.0170840542584
 20
545.0743854848
 10
394.80065462525334
 20
544.9867710911233
 10
394.6495826124085
 20
544.9256145152002
 10
394.2418637942752
 20
544.7410521514668
 10
393.75813620572524
 20
544.5922811818666
 10
393.3504173875919
 20
544.4077188181334
 10
392.98291594574175
 20
544.2589478485336
 10
392.57519712760836
 20
544.0743854848
 10
392.0914695390584
 20
543.9256145152
 10
391.68375072092505
 20
543.7410521514666
 10
391.3162492790752
 20
543.5922811818668
 10
390.90853046094185
 20
543.4077188181334
 10
390.4792036066458
 20
543.2756788561779
 10
390.4248028723918
 20
543.2589478485334
 10
390.0170840542584
 20
543.0743854848
 10
389.6495826124085
 20
542.9256145152002
 10
389.2418637942752
 20
542.7410521514666
 10
388.75813620572524
 20
542.5922811818667
 10
388.3504173875919
 20
542.4077188181334
 10
387.98291594574175
 20
542.2589478485334
 10
387.5751971276143
 20
542.0743854847999
 10
387.09146953953916
 20
541.9256145152001
 10
386.683750744234
 20
541.7410521514668
 10
386.31625002331685
 20
541.5922811818666
 10
385.90854684239764
 20
541.4077188181333
 10
385.4250553573015
 20
541.2589478485335
 10
385.0197903671651
 20
541.0743854848001
 10
384.6691361547117
 20
540.9256145152001
 10
384.33086384528843
 20
540.7410521514666
 10
383.9802096328351
 20
540.5922811818668
 10
383.57494464269877
 20
540.4077188181335
 10
383.09145315760264
 20
540.2589478485334
 10
382.6837499766833
 20
540.0743854848
 10
382.3162492557662
 20
539.9256145152002
 10
381.90853046046675
 20
539.7410521514668
 10
381.4248028728666
 20
539.5922811818666
 10
381.01708407756735
 20
539.4077188181334
 10
380.6495833566502
 20
539.2589478485336
 10
380.2418801757309
 20
539.0743854848
 10
379.7583886906349
 20
538.9256145152
 10
379.3531237005043
 20
538.7410521514666
 10
379.00246948852583
 20
538.5922811818668
 10
378.6641972019307
 20
538.4077188181334
 10
378.3135437104102
 20
538.2589478485334
 10
377.9082943574877
 20
538.0743854848
 10
377.42503897584567
 20
537.9256145152002
 10
377.0197896229291
 20
537.7410521514666
 10
376.6691361318836
 20
537.5922811818667
 10
376.3308638681166
 20
537.4077188181334
 10
375.98021037707105
 20
537.2589478485334
 10
375.5749610241545
 20
537.0743854847999
 10
375.0917056425123
 20
536.9256145152001
 10
374.68645628959575
 20
536.7410521514668
 10
374.33580279855016
 20
536.5922811818666
 10
373.99753053478327
 20
536.4077188181333
 10
373.6468770437377
 20
536.2589478485335
 10
373.24162769082113
 20
536.0743854848001
 10
372.7583723091791
 20
535.9256145152001
 10
372.3531229562625
 20
535.7410521514666
 10
372.0024694652169
 20
535.5922811818668
 10
371.66419720145586
 20
535.4077188181335
 10
371.3135437108852
 20
535.2589478485334
 10
370.90829438080254
 20
535.0743854848
 10
370.42503972056824
 20
534.9256145152002
 10
370.019806027688
 20
534.7410521514668
 10
369.66938936055425
 20
534.5922811818666
 10
369.33358653917
 20
534.4077188181334
 10
369.00001566004227
 20
534.2589478485336
 10
368.6666510066246
 20
534.0743854848
 10
368.33308012749677
 20
533.9256145152
 10
367.9972773061185
 20
533.7410521514666
 10
367.64686063945965
 20
533.5922811818668
 10
367.2416269694134
 20
533.4077188181334
 10
366.7583730305867
 20
533.2589478485334
 10
366.3531393605464
 20
533.0743854848
 10
366.0027226943624
 20
532.9256145152002
 10
365.6669198958123
 20
532.7410521514666
 10
365.33334973761737
 20
532.5922811818667
 10
365.0000007214078
 20
532.4077188181334
 10
364.66666594525907
 20
532.2589478485334
 10
364.3333169290495
 20
532.0743854847999
 10
363.99974677085453
 20
531.9256145152001
 10
363.6639439723043
 20
531.7410521514668
 10
363.3135273061204
 20
531.5922811818666
 10
362.90829363608
 20
531.4077188181333
 10
362.42503969725334
 20
531.2589478485335
 10
362.019806027213
 20
531.0743854848001
 10
361.66938936102906
 20
530.9256145152001
 10
361.33358656248487
 20
530.7410521514666
 10
361.0000164047648
 20
530.5922811818668
 10
360.6666674113834
 20
530.4077188181335
 10
360.33333335616743
 20
530.2589478485334
 10
359.99999997716606
 20
530.0743854848
 10
359.66666592195014
 20
529.9256145152002
 10
359.33331692856865
 20
529.7410521514668
 10
358.9997467708487
 20
529.5922811818666
 10
358.66394397230425
 20
529.4077188181334
 10
358.3135273061204
 20
529.2589478485336
 10
357.90829363608
 20
529.0743854848
 10
357.42503969725334
 20
528.9256145152
 10
357.019806027213
 20
528.7410521514666
 10
356.66938936102906
 20
528.5922811818668
 10
356.33358656248487
 20
528.4077188181334
 10
356.0000164047648
 20
528.2589478485334
 10
355.66666741138937
 20
528.0743854848
 10
355.3333333566482
 20
527.9256145152002
 10
355.00000000048084
 20
527.7410521514666
 10
354.6666666666726
 20
527.5922811818667
 10
354.33333333333337
 20
527.4077188181334
 10
354.0
 20
527.2589478485334
 10
353.6666666666667
 20
527.0743854847999
 10
353.3333333333333
 20
526.9256145152001
 10
353.0
 20
526.7410521514668
 10
352.6666666666667
 20
526.5922811818666
 10
352.3333333333333
 20
526.4077188181333
 10
352.0
 20
526.2589478485335
 10
351.6666666666608
 20
526.0743854848001
 10
351.33333333285253
 20
525.9256145152001
 10
350.9999999766853
 20
525.7410521514666
 10
350.66666592194423
 20
525.5922811818668
 10
350.3333169285687
 20
525.4077188181335
 10
349.9997467708487
 20
525.2589478485334
 10
349.6639439723045
 20
525.0743854848
 10
349.3135273061205
 20
524.9256145152002
 10
348.90829363608015
 20
524.7410521514668
 10
348.4250396972535
 20
524.5922811818666
 10
348.0198060272132
 20
524.4077188181334
 10
347.6693893610292
 20
524.2589478485336
 10
347.33358656248487
 20
524.0743854848
 10
347.0000164047648
 20
523.9256145152
 10
346.6666674113892
 20
523.7410521514666
 10
346.33333335664815
 20
523.5922811818668
 10
346.0000000004809
 20
523.4077188181334
 10
345.66666666667265
 20
523.2589478485334
 10
345.3333333333334
 20
523.0743854848
 10
345.0
 20
522.9256145152002
 10
344.6666666666667
 20
522.7410521514666
 10
344.3333333333333
 20
522.5922811818667
 10
344.0
 20
522.4077188181334
 10
343.6666666666667
 20
522.2589478485334
 10
343.3333333333333
 20
522.0743854847999
 10
342.9999999999941
 20
521.9256145151942
 10
342.6666666661859
 20
521.741052150986
 10
342.33333331001853
 20
521.5922811585519
 10
341.99999925527754
 20
521.4077180734109
 10
341.666650261902
 20
521.2589314437688
 10
341.3330801041821
 20
521.0741322556487
 10
340.99727730563774
 20
520.9228918208378
 10
340.64686063945373
 20
520.7212461242539
 10
340.2416269694134
 20
520.5005748179466
 10
340.0896536722311
 20
520.3953868916814
 10
339.75837303058677
 20
520.16609184872
 10
339.35313936054644
 20
519.945420542413
 10
339.0027226943625
 20
519.7437748458292
 10
338.6669198958182
 20
519.5925344110183
 10
338.33334973809815
 20
519.4077352228982
 10
338.0000007447225
 20
519.258948593256
 10
337.6666666899815
 20
519.0743855081149
 10
337.33333333381415
 20
518.9256145156809
 10
337.00000000000597
 20
518.7410521514726
 10
336.6666666666667
 20
518.5922811818668
 10
336.3333333333333
 20
518.4077188181334
 10
336.00000000000006
 20
518.2589478485334
 10
335.6666666666667
 20
518.0743854848
 10
335.3333333333275
 20
517.9256145151943
 10
334.9999999995192
 20
517.7410521509859
 10
334.66666664335196
 20
517.5922811585518
 10
334.3333325886109
 20
517.4077180734109
 10
333.9999835952354
 20
517.2589314437687
 10
333.66641343751525
 20
517.0741322556487
 10
333.3306106389711
 20
516.9228918208375
 10
332.98019397278716
 20
516.7212461242536
 10
332.57496030274683
 20
516.5005748179468
 10
332.09170636392014
 20
516.1660918487202
 10
331.6864726938798
 20
515.9454205424132
 10
331.33605602769586
 20
515.7437748458292
 10
331.00025322914564
 20
515.5925344110123
 10
330.6666830709507
 20
515.4077352224174
 10
330.3333340547411
 20
515.2589485699411
 10
329.9999992785923
 20
515.0743847633923
 10
329.66665026238286
 20
514.9255981109163
 10
329.3330801041879
 20
514.7407989223211
 10
328.9972773056378
 20
514.5895584875045
 10
328.6468606394538
 20
514.3879127909206
 10
328.24162696941346
 20
514.1672414846133
 10
327.75837303058677
 20
513.8327585153868
 10
327.3531393605405
 20
513.6120872090738
 10
327.0027226938817
 20
513.410441512015
 10
326.6669198725034
 20
513.25920105437
 10
326.3333489933756
 20
513.0744011448423
 10
325.99998433995785
 20
512.9255988551579
 10
325.66641346083014
 20
512.7407989456301
 10
325.3306106394519
 20
512.5895584879852
 10
324.98019397279296
 20
512.3879127909263
 10
324.574960302741
 20
512.1672414846076
 10
324.09170636343936
 20
511.8327585149059
 10
323.6864726705649
 20
511.61208718576495
 10
323.33605528297323
 20
511.4104407677733
 10
323.0002368243868
 20
511.2591846729202
 10
322.66642984228
 20
511.0741486604135
 10
322.33061138369357
 20
510.92289256556035
 10
321.98019399610183
 20
510.7212461475686
 10
321.5749603032216
 20
510.5005748184218
 10
321.09170636344516
 20
510.1660918482453
 10
320.68647267056497
 20
509.9454205190983
 10
320.33605528297323
 20
509.7437741011067
 10
320.0002368243868
 20
509.5925180062535
 10
319.66642984227997
 20
509.4074819937467
 10
319.3306113836876
 20
509.2562258988878
 10
318.98019399562105
 20
509.05457948042124
 10
318.5749602799128
 20
508.8339081284462
 10
318.09170561920337
 20
508.4994244373368
 10
317.68645628911503
 20
508.2787374709817
 10
317.33580279854436
 20
508.076854950011
 10
316.9975305347832
 20
507.9231450499833
 10
316.64687704373773
 20
507.72126252853775
 10
316.24162769082125
 20
507.5005755393546
 10
316.13973219960127
 20
507.43004874386475
 10
315.758372309179
 20
507.1660911273125
 10
315.3531229562625
 20
506.94540413812916
 10
315.0024694652169
 20
506.7435216166836
 10
314.66419720145
 20
506.58981171665005
 10
314.31354371040436
 20
506.3879291952045
 10
313.9082943574878
 20
506.1672422060212
 10
313.4250389758457
 20
505.8327577939791
 10
313.0197896229232
 20
505.61207080479
 10
312.66913613140275
 20
505.41018828286946
 10
312.33086384480765
 20
505.2564783600077
 10
311.98020963282926
 20
505.05459511762933
 10
311.5749446426986
 20
504.833892491232
 10
311.0914531576026
 20
504.49917197573603
 10
310.6837499766834
 20
504.27603115855015
 10
310.3162492557662
 20
504.057301407233
 10
309.908530460461
 20
503.83414497566105
 10
309.42480287238584
 20
503.49918835718586
 10
309.0170840542584
 20
503.2760319027917
 10
308.6495826124084
 20
503.05730143054166
 10
308.24186379427505
 20
502.8341449761416
 10
307.7581362057251
 20
502.4991883571917
 10
307.3504173875917
 20
502.2760319027918
 10
306.98291594574175
 20
502.0573014305419
 10
306.5751971276084
 20
501.83414497614183
 10
306.09146953905844
 20
501.4991883571918
 10
305.68375072092505
 20
501.2760319027918
 10
305.3162492790751
 20
501.0573014305417
 10
304.9085304609418
 20
500.8341449761417
 10
304.4248028723917
 20
500.4991883571918
 10
304.0170840542585
 20
500.27603190279183
 10
303.6495826124084
 20
500.0573014305418
 10
303.24186379427505
 20
499.8341449761419
 10
302.75813620572507
 20
499.4991883571918
 10
302.3504173875858
 20
499.276031902786
 10
301.98291594526097
 20
499.05730143006105
 10
301.57519710429943
 20
498.8341449528329
 10
301.09146879481676
 20
498.4991876129501
 10
300.77769618159147
 20
498.3274452216306
 10
296.3039736127888
 20
506.22466998387927
 10
293.83821851406736
 20
510.577336454316
 10
294.35219572098003
 20
510.84714039866566
 10
294.90462244203
 20
511.1510787741157
 10
295.51415446683
 20
511.50909914451563
 10
296.1608126791301
 20
511.9072690112157
 10
296.7703447039301
 20
512.2652893816156
 10
297.32277142498003
 20
512.5692277570655
 10
297.85219572098
 20
512.8471403986655
 10
298.40462244203
 20
513.1510787741156
 10
299.01415446683006
 20
513.5090991445156
 10
299.66081267913
 20
513.9072690112156
 10
300.27034470393
 20
514.2652893816155
 10
300.82277142493
 20
514.5692277570155
 10
301.35219571713003
 20
514.8471403946155
 10
301.90462230968006
 20
515.1510786254656
 10
302.51415180468007
 20
515.5090958798656
 10
303.16077830273
 20
515.9072212953156
 10
303.77005302973
 20
516.2648009249156
 10
304.32121568398
 20
516.5656363778656
 10
304.84816287692996
 20
516.8279678259155
 10
305.41176429068
 20
517.0764650308655
 10
306.12190808493006
 20
517.2959668660656
 10
307.11721944133006
 20
517.4487460199657
 10
308.40154022453004
 20
517.4795282437157
 10
309.7768721771301
 20
517.4413680458157
 10
311.07244666153
 20
517.4896596159657
 10
312.10184638968
 20
517.7090848047155
 10
312.86730093078
 20
518.1048312898656
 10
313.44409551138
 20
518.6951230536656
 10
313.83608461168
 20
519.5009520032656
 10
314.04896678998
 20
520.5953099804656
 10
314.0669150657801
 20
521.8892184211657
 10
313.92380986058004
 20
523.0463614455656
 10
313.70610047032994
 20
523.9403814518156
 10
313.46075333377996
 20
524.6230781879656
 10
313.21313093778
 20
525.1875784073657
 10
312.96152826848
 20
525.7046368527656
 10
312.71126316693
 20
526.2095660503655
 10
312.44724334078006
 20
526.7216365812155
 10
312.13667086543
 20
527.2774649050655
 10
311.67062313213006
 20
527.9598772556656
 10
310.92122187178006
 20
528.8429023064156
 10
309.90025270473
 20
529.7987253305656
 10
308.81787335118
 20
530.5048048908155
 10
307.6934056532801
 20
530.8572675783156
 10
306.52496157913004
 20
530.8836239266157
 10
305.49315348093
 20
530.6203002862156
 10
304.62674598863003
 20
530.0795483928155
 10
303.88934669753
 20
529.2845375229156
 10
303.31092956038003
 20
528.3826449708654
 10
302.78027561643
 20
527.4477408893156
 10
302.11893882898
 20
526.4501530623655
 10
301.29397947533005
 20
525.5022751678155
 10
300.50354110023
 20
524.8060693036156
 10
299.82095137003
 20
524.3265279287157
 10
299.17076998208
 20
523.9186819146157
 10
298.51554948183
 20
523.5106368615654
 10
297.90476128938
 20
523.1512274032655
 10
297.35220533798
 20
522.8471504614655
 10
296.82277186653
 20
522.5692282107656
 10
296.27034471602997
 20
522.2652893938657
 10
295.66081267927996
 20
521.9072690113658
 10
295.01415446683
 20
521.5090991445156
 10
294.40462244203
 20
521.1510787741157
 10
293.85219572098003
 20
520.8471403986656
 10
293.32277142498003
 20
520.5692277570656
 10
292.77034470393
 20
520.2652893816157
 10
292.16081267913
 20
519.9072690112156
 10
291.51415446683006
 20
519.5090991445156
 10
290.90462244203
 20
519.1510787741156
 10
290.35219572098
 20
518.8471403986655
 10
289.82277142498003
 20
518.5692277570656
 10
289.432505201701
 20
518.3545080895032
 10
287.9498668424889
 20
520.9717308125839
 10
287.67812623772136
 20
521.4514200646273
 10
286.96782383255135
 20
522.7052791621741
 10
285.11475122652337
 20
525.9764097800222
 10
285.3358027985503
 20
526.0768549500168
 10
285.68645628959587
 20
526.2787374714625
 10
286.0917056425124
 20
526.4994244606459
 10
286.5749610241544
 20
526.8339088726877
 10
286.980210377071
 20
527.054595861871
 10
287.3308638681166
 20
527.2564783833164
 10
287.66913613188353
 20
527.4101882833502
 10
288.0197896229292
 20
527.6120708047957
 10
288.4250389758458
 20
527.8327577939791
 10
288.9082943574878
 20
528.1672422060212
 10
289.31354371040436
 20
528.3879291952045
 10
289.66419720144995
 20
528.5898117166499
 10
290.002469465211
 20
528.7435216166776
 10
290.3531229557817
 20
528.9454041376483
 10
290.75837228587017
 20
529.1660911040034
 10
291.24162694657946
 20
529.5005747951127
 10
291.64686066228785
 20
529.7212461470876
 10
291.9972780503544
 20
529.9228925655543
 10
292.3330965089466
 20
530.0741486604134
 10
292.66690349105346
 20
530.2591846729201
 10
293.00272194963986
 20
530.4104407677733
 10
293.3531393372315
 20
530.6120871857651
 10
293.75837303011167
 20
530.8327585149119
 10
294.2416269698884
 20
531.1672414850883
 10
294.6468606627686
 20
531.3879128142352
 10
294.99727805036025
 20
531.589559232227
 10
295.33309650894665
 20
531.74081532708
 10
295.66690349105346
 20
531.9258513395869
 10
296.0027219496399
 20
532.0771074344401
 10
296.35313933723154
 20
532.2787538524316
 10
296.7583730301059
 20
532.4994251815726
 10
297.2416269694075
 20
532.8339081512744
 10
297.6468606394596
 20
533.054579457593
 10
297.9972773061185
 20
533.2562251546519
 10
298.33308012749677
 20
533.4074656122967
 10
298.6666510066246
 20
533.5922655218244
 10
299.00001566004227
 20
533.741067811509
 10
299.33358653916997
 20
533.9258677210366
 10
299.66938936054834
 20
534.0771081786817
 10
300.01980602720715
 20
534.2787538757404
 10
300.4250396972534
 20
534.4994251820535
 10
300.9082936360801
 20
534.8339081512802
 10
301.3135273061263
 20
535.054579457593
 10
301.6639439727852
 20
535.2562251546519
 10
301.99974679416346
 20
535.4074656122968
 10
302.33331767329116
 20
535.5922655218245
 10
302.6666823267089
 20
535.7410678115089
 10
303.0002532058367
 20
535.9258677210368
 10
303.33605602721497
 20
536.0771081786818
 10
303.68647269387384
 20
536.2787538757406
 10
304.09170636392014
 20
536.4994251820535
 10
304.5749603027468
 20
536.8339081512801
 10
304.9801939727871
 20
537.0545794575872
 10
305.3306106389711
 20
537.2562251541711
 10
305.6664134375154
 20
537.4074655889821
 10
305.9999835952354
 20
537.5922647771021
 10
306.31085858005645
 20
537.7310203820439
 10
306.3333325886167
 20
537.74105140675
 10
306.66666664383274
 20
537.925614492366
 10
307.00000002283406
 20
538.0743855076341
 10
307.33333407805
 20
538.2589485932502
 10
307.6666830714314
 20
538.4077352228982
 10
308.0002532291515
 20
538.5925344110183
 10
308.3360560276958
 20
538.7437748458292
 10
308.6864726938798
 20
538.945420542413
 10
309.09170636392014
 20
539.16609184872
 10
309.5749603027468
 20
539.5005748179466
 10
309.9801939727871
 20
539.7212461242539
 10
310.3306106389711
 20
539.9228918208378
 10
310.6664134375154
 20
540.0741322556487
 10
310.99998359523534
 20
540.2589314437688
 10
311.33333258861086
 20
540.4077180734109
 10
311.6666666433519
 20
540.5922811585519
 10
311.9999999995192
 20
540.741052150986
 10
312.3333333333274
 20
540.9256145151942
 10
312.6666666666667
 20
541.0743854847999
 10
313.0
 20
541.2589478485334
 10
313.3333333333333
 20
541.4077188181334
 10
313.6666666666667
 20
541.5922811818667
 10
314.0
 20
541.7410521514666
 10
314.3333333333333
 20
541.9256145152002
 10
314.6666666666667
 20
542.0743854848
 10
315.0
 20
542.2589478485334
 10
315.3333333333334
 20
542.4077188181334
 10
315.6666666666667
 20
542.5922811818668
 10
316.00000000000006
 20
542.7410521514666
 10
316.3333333333333
 20
542.9256145152
 10
316.6666666666667
 20
543.0743854848
 10
317.0
 20
543.2589478485336
 10
317.3333333333333
 20
543.4077188181334
 10
317.6666666666667
 20
543.5922811818666
 10
318.0
 20
543.7410521514668
 10
318.3333333333333
 20
543.9256145152002
 10
318.6666666666667
 20
544.0743854848
 10
319.0
 20
544.2589478485334
 10
319.3333333333333
 20
544.4077188181335
 10
319.34753276098735
 20
544.4155808579279
 10
319.6666666666667
 20
544.5922811818668
 10
320.0
 20
544.7410521514666
 10
320.3333333333334
 20
544.9256145152001
 10
320.66666666666674
 20
545.0743854848001
 10
321.0000000000059
 20
545.2589478485335
 10
321.33333333381415
 20
545.4077188181333
 10
321.66666668998147
 20
545.5922811818666
 10
322.0000007447226
 20
545.7410521514668
 10
322.33334973809804
 20
545.9256145152001
 10
322.6669198958182
 20
546.0743854847999
 10
323.0027226943623
 20
546.2589478485334
 10
323.35313936054627
 20
546.4077188181334
 10
323.75837303058665
 20
546.5922811818667
 10
324.2416269694134
 20
546.7410521514666
 10
324.64686063945385
 20
546.9256145152002
 10
324.9972773056377
 20
547.0743854848
 10
325.33308010418193
 20
547.2589478485334
 10
325.666650261902
 20
547.4077188181334
 10
325.99999925527754
 20
547.5922811818668
 10
326.33333331001853
 20
547.7410521514666
 10
326.66666666618585
 20
547.9256145152
 10
326.99999999999415
 20
548.0743854848
 10
327.33333333333326
 20
548.2589478485336
 10
327.6666666666667
 20
548.4077188181334
 10
328.0
 20
548.5922811818666
 10
328.3333333333333
 20
548.7410521514668
 10
328.6666666666667
 20
548.9256145152002
 10
329.00000000000006
 20
549.0743854848
 10
329.33333333333917
 20
549.2589478485334
 10
329.6666666671475
 20
549.4077188181335
 10
330.00000002331484
 20
549.5922811818668
 10
330.33333407805594
 20
549.7410521514666
 10
330.66668307143146
 20
549.9256145152001
 10
331.00025322915155
 20
550.0743854848001
 10
331.33605602769586
 20
550.2589478485335
 10
331.6864726938798
 20
550.4077188181333
 10
332.09170636392014
 20
550.5922811818666
 10
332.57496030274683
 20
550.7410521514668
 10
332.98019397278716
 20
550.9256145152001
 10
333.09181521442036
 20
550.9730038147061
 10
333.3306106389711
 20
551.0743854847999
 10
333.66641343751525
 20
551.2589478485334
 10
333.99998359523545
 20
551.4077188181334
 10
334.33333258861677
 20
551.5922811818667
 10
334.66666664383274
 20
551.7410521514666
 10
335.000000022834
 20
551.9256145152002
 10
335.33333407805003
 20
552.0743854848
 10
335.6666830714314
 20
552.2589478485334
 10
336.00025322915155
 20
552.4077188181334
 10
336.33605602769586
 20
552.5922811818668
 10
336.635498093201
 20
552.7194106557852
 10
336.6864726938798
 20
552.7410521514666
 10
337.09170636392014
 20
552.9256145152
 10
337.57496030274683
 20
553.0743854848
 10
337.9801939727931
 20
553.2589478485336
  0
LWPOLYLINE
  5
30
330
17
100
AcDbEntity
  8
default
100
AcDbPolyline
 90
54
 70
0
 10
353.77716713438224
 20
535.5045049846229
 10
353.0522735635286
 20
534.5270991504368
 10
352.2350680285439
 20
533.6254517873527
 10
351.33342066545987
 20
532.808246252368
 10
350.35601483127374
 20
532.0833526815144
 10
349.312263478473
 20
531.4577521961463
 10
349.30270128528355
 20
531.4532296155874
 10
349.82401253837014
 20
530.7559060249494
 10
349.9621861503518
 20
530.8248338210674
 10
350.09932586272595
 20
530.886041045009
 10
350.2446999972639
 20
530.9665328266971
 10
350.62885281701455
 20
531.1581671543988
 10
350.7659925293906
 20
531.2193743783414
 10
350.91136666393027
 20
531.2998661600304
 10
351.2955194836854
 20
531.4915004877341
 10
351.43265919605864
 20
531.5527077116753
 10
351.5780333305958
 20
531.633199493363
 10
351.96218615034945
 20
531.8248338210662
 10
352.0993258627417
 20
531.886041045016
 10
352.2446999973024
 20
531.9665328267153
 10
352.6288528194442
 20
532.1581671554807
 10
352.76599259742795
 20
532.2193744086176
 10
352.91136681422427
 20
532.2998662303372
 10
353.29552318469774
 20
532.4915021291363
 10
353.4327072387465
 20
532.5527290108311
 10
353.5781368190148
 20
532.6332477093256
 10
353.96340923109994
 20
532.8253721849455
 10
354.10729854467525
 20
532.8895462490824
 10
354.2610898227308
 20
532.974072292113
 10
354.71542300917395
 20
533.1946735484321
 10
355.0062791434124
 20
533.3181578266656
 10
355.35262659920187
 20
533.4759006546669
 10
355.95391083837586
 20
533.7042942366897
 10
356.1291622779517
 20
533.7582458436913
 10
356.24111420806736
 20
533.8092339879997
 10
356.3595609542648
 20
533.8613402150986
 10
356.47723308728797
 20
533.9112984477232
 10
356.59144723255395
 20
533.9740722921147
 10
356.96313959718196
 20
534.1587055182779
 10
357.09993404862445
 20
534.2197153019952
 10
357.24478633623283
 20
534.2999143760106
 10
357.62885575241995
 20
534.4915021302165
 10
357.76599440543146
 20
534.552708748799
 10
357.9113669407268
 20
534.6331996339794
 10
358.2955231866336
 20
534.8248354635481
 10
358.4327072399181
 20
534.8860623448147
 10
358.578136819048
 20
534.9665810426775
 10
358.96340923110256
 20
535.1587055182802
 10
359.0044069897424
 20
535.1769903563063
 10
355.57577556794746
 20
539.7632438848694
 10
355.33300410491006
 20
538.7940458761107
 10
354.9230501449706
 20
537.6483013127388
 10
354.40276761975025
 20
536.5482563374236
 10
353.77716713438224
 20
535.5045049846229
  0
LWPOLYLINE
  5
31
330
17
100
AcDbEntity
  8
default
100
AcDbPolyline
 90
52
 70
0
 10
341.0478239488307
 20
530.2318383970659
 10
339.8674139438753
 20
530.5275157109866
 10
338.72166938050356
 20
530.937469670926
 10
337.6216244051883
 20
531.4577521961463
 10
336.5778730523876
 20
532.0833526815144
 10
335.60046721820146
 20
532.808246252368
 10
334.9707391923765
 20
533.3789984658264
 10
331.9829900688492
 20
531.2391347270459
 10
337.0908091363041
 20
524.4067429237101
 10
337.13248730789536
 20
524.4294389069156
 10
337.3960225106438
 20
524.6118441188111
 10
337.85041715539325
 20
524.8917154015916
 10
338.204014762312
 20
525.084268122638
 10
338.50347085327627
 20
525.2565887851121
 10
338.9439956276076
 20
525.4818428351244
 10
339.09109085113613
 20
525.5480922697972
 10
339.2436229659813
 20
525.6325956653595
 10
339.62873737763067
 20
525.824773214584
 10
339.7659425670177
 20
525.8860132306152
 10
339.91136340682755
 20
525.966531012874
 10
340.29551931595614
 20
526.1581670666319
 10
340.43265912516006
 20
526.2193743389915
 10
340.57803332846237
 20
526.2998661588459
 10
340.96218615030847
 20
526.4915004877114
 10
341.0993258627066
 20
526.5527077116651
 10
341.2446999972628
 20
526.6331994933632
 10
341.62885281701585
 20
526.8248338210661
 10
341.7659925293911
 20
526.8860410450084
 10
341.91136666393027
 20
526.9665328266971
 10
342.2955194836841
 20
527.1581671544002
 10
342.432659196057
 20
527.2193743783413
 10
342.5780333305947
 20
527.2998661600293
 10
342.96218615035235
 20
527.4915004877344
 10
343.0993258627427
 20
527.5527077116832
 10
343.24469999730246
 20
527.6331994933819
 10
343.628852819443
 20
527.8248338221467
 10
343.7659925974278
 20
527.8860410752841
 10
343.91136681422466
 20
527.9665328970041
 10
344.29552318469706
 20
528.1581687958027
 10
344.43270723874645
 20
528.2193956774977
 10
344.5781368190157
 20
528.2999143759928
 10
344.96340923109994
 20
528.4920388516122
 10
345.1072985446745
 20
528.5562129157487
 10
345.2610898227304
 20
528.6407389587795
 10
345.71542300917434
 20
528.861340215099
 10
346.00627914341425
 20
528.984824493333
 10
346.1163548801692
 20
529.0349581314464
 10
345.2879123034723
 20
530.1431109841307
 10
344.6823564819172
 20
530.0532852633307
 10
343.46694394183066
 20
529.993575874066
 10
342.2515314017441
 20
530.0532852633307
 10
341.0478239488307
 20
530.2318383970659
  0
LWPOLYLINE
  5
32
330
17
100
AcDbEntity
  8
default
100
AcDbPolyline
 90
51
 70
0
 10
331.12665333109544
 20
541.1781633339795
 10
331.0669439418307
 20
542.393575874066
 10
331.12665333109544
 20
543.6089884141525
 10
331.2778448407687
 20
544.6282387807174
 10
331.037813849648
 20
544.508499512266
 10
330.90067413727525
 20
544.447292288325
 10
330.7553000027372
 20
544.3668005066369
 10
330.37114718298545
 20
544.1751661789345
 10
330.2340074706082
 20
544.1139589549914
 10
330.0886333360686
 20
544.0334671733025
 10
329.70448051631433
 20
543.8418328455992
 10
329.5673408039256
 20
543.7806256216511
 10
329.42196666936724
 20
543.7001338399531
 10
329.0378138472235
 20
543.5084995111865
 10
328.900674069238
 20
543.4472922580488
 10
328.75529985244054
 20
543.3668004363286
 10
328.3711434819699
 20
543.1751645375309
 10
328.233959427921
 20
543.113937655836
 10
328.0885298476525
 20
543.0334189573414
 10
327.70325743556685
 20
542.8412944817212
 10
327.55936812199093
 20
542.777120417584
 10
327.4055768439345
 20
542.6925943745531
 10
326.9512436574933
 20
542.471993118235
 10
326.6603875232536
 20
542.3485088400009
 10
326.31404006746646
 20
542.1907660120005
 10
325.7127558282895
 20
541.9623724299764
 10
325.5375043887136
 20
541.908420822975
 10
325.4255524585975
 20
541.8574326786663
 10
325.3071057124039
 20
541.8053264515693
 10
325.1894335793827
 20
541.7553682189455
 10
325.0752194341168
 20
541.6925943745539
 10
324.7035270694801
 20
541.5079611483865
 10
324.5667326180559
 20
541.4469513646775
 10
324.4218803304726
 20
541.3667522906745
 10
324.037810916677
 20
541.1751645375324
 10
323.9006723292732
 20
541.1139579481442
 10
323.75529987623617
 20
541.0334671029952
 10
323.37114718104124
 20
540.8418328445188
 10
323.2340074694342
 20
540.7806256210067
 10
323.0886333360372
 20
540.7001338399518
 10
322.7044805163176
 20
540.5084995122673
 10
322.5673408039421
 20
540.447292288325
 10
322.42196666940356
 20
540.3668005066367
 10
322.1710405014602
 20
540.2416261879168
 10
328.39753284631297
 20
533.6095254216343
 10
328.427208640147
 20
533.6125375488773
 10
332.52986443758897
 20
536.5509115590936
 10
332.0108377386907
 20
537.6483013127388
 10
331.60088377875127
 20
538.7940458761107
 10
331.30520646483063
 20
539.974455881066
 10
331.12665333109544
 20
541.1781633339795
  0
LWPOLYLINE
  5
33
330
17
100
AcDbEntity
  8
default
100
AcDbPolyline
 90
50
 70
0
 10
354.40276761975025
 20
548.2388954107083
 10
354.9230501449706
 20
547.1388504353931
 10
355.33300410491006
 20
545.9931058720213
 10
355.53770346431395
 20
545.1759002208865
 10
363.60513774165884
 20
553.8759724977426
 10
361.71219221120435
 20
558.0331045768411
 10
361.61944688700544
 20
557.9955596580036
 10
361.30379869272303
 20
557.8526749682252
 10
360.7116767081046
 20
557.6286341779164
 10
360.53111631509705
 20
557.5731026237911
 10
360.4123524051318
 20
557.5193416782527
 10
360.22660526137537
 20
557.4397421166722
 10
359.9528159236081
 20
557.3289072177798
 10
359.6372140418194
 20
557.1860380128588
 10
359.04568210998514
 20
556.9621692177984
 10
358.87046778445705
 20
556.9082555380334
 10
358.7587374821492
 20
556.8573722661089
 10
358.6393016749051
 20
556.8048503855329
 10
358.5148567370252
 20
556.752052519679
 10
358.3922931051004
 20
556.6851814427813
 10
357.9503751530263
 20
556.4715170521984
 10
357.65978151032346
 20
556.3482277932958
 10
357.31389175771346
 20
556.1907055994535
 10
356.71207991161356
 20
555.9621692182051
 10
356.53144823961696
 20
555.90658861371
 10
356.4124172952312
 20
555.8527047229006
 10
356.226607679457
 20
555.7730767301726
 10
355.9528175036981
 20
555.6622412746182
 10
355.6372141371557
 20
555.5193713895675
 10
355.04568211082466
 20
555.2955025515381
 10
354.87046778510853
 20
555.2415888716622
 10
354.75873748220613
 20
555.1907055994654
 10
354.6393016771501
 20
555.1381837198161
 10
354.5148568040319
 20
555.0853858813671
 10
354.3922932529448
 20
555.0185148440619
 10
353.95037857886325
 20
554.8048518291134
 10
353.65981743782834
 20
554.6815761061413
 10
353.31397436539515
 20
554.5240690935606
 10
352.71275253769716
 20
554.295704528207
 10
352.5374667257297
 20
554.2417425006868
 10
352.425469630831
 20
554.1907357602275
 10
352.30597099985596
 20
554.1381851624468
 10
352.18152507204786
 20
554.0853867680474
 10
352.05895989582103
 20
554.0185148440613
 10
352.0468824651475
 20
554.012675486444
 10
351.51165814189307
 20
551.8173604635856
 10
352.2350680285439
 20
551.1616999607792
 10
353.0522735635286
 20
550.2600525976952
 10
353.77716713438224
 20
549.282646763509
 10
354.40276761975025
 20
548.2388954107083
  0
LWPOLYLINE
  5
34
330
17
100
AcDbEntity
  8
default
100
AcDbPolyline
 90
52
 70
0
 10
314.73340996884855
 20
532.0782109335128
 10
315.48281122919855
 20
531.1951858827628
 10
315.79959977681176
 20
530.7797268735837
 10
316.26564751011165
 20
530.0973145229837
 10
316.5015135736221
 20
529.7163474632757
 10
316.81208604897216
 20
529.1605191394258
 10
316.8913176509184
 20
529.0129688412705
 10
317.1553374770683
 20
528.5008983104206
 10
317.19117776651706
 20
528.4300086144519
 10
317.3800078770465
 20
528.0490292625493
 10
321.94099218724295
 20
527.7557970187627
 10
324.9561798805371
 20
531.4310463224538
 10
318.43686206936127
 20
538.3750478973114
 10
318.42196666940345
 20
538.3668005066365
 10
318.037813849648
 20
538.1751661789326
 10
317.9006741372756
 20
538.1139589549917
 10
317.75530000273795
 20
538.0334671733038
 10
317.3711471829837
 20
537.8418328456004
 10
317.2340074706089
 20
537.7806256216584
 10
317.08863333606973
 20
537.7001338399697
 10
316.7044805163146
 20
537.508499512266
 10
316.5673408039425
 20
537.4472922883253
 10
316.4219666694053
 20
537.3668005066376
 10
316.0378138496495
 20
537.1751661789333
 10
315.90067413727456
 20
537.1139589549913
 10
315.7553000027361
 20
537.0334671733029
 10
315.37114718298415
 20
536.8418328456006
 10
315.234007470609
 20
536.7806256216585
 10
315.08863333607087
 20
536.7001338399702
 10
314.704480516352
 20
536.5084995122826
 10
314.5673408050667
 20
536.4472922888256
 10
314.42196667105094
 20
536.3668005073342
 10
314.0378139935819
 20
536.1751662429061
 10
313.9006758741106
 20
536.1139597246961
 10
313.75530249180156
 20
536.0334682190886
 10
313.3712454728822
 20
535.8418763025958
 10
313.23459319504633
 20
535.7808830725091
 10
313.08944073343616
 20
535.700468034058
 10
312.71969511554585
 20
535.5151812413621
 10
312.60973403159505
 20
535.4656564541326
 10
312.4740004251486
 20
535.3875491599796
 10
312.37140378680726
 20
535.3301055406089
 10
312.2008460254391
 20
535.2372277597517
 10
311.93731082268977
 20
535.0548225478556
 10
311.4829161779384
 20
534.774951265074
 10
311.44491726110795
 20
534.7542588319542
 10
311.54970078942256
 20
534.6925392242786
 10
312.63208014297254
 20
533.9864596640286
 10
312.9864791921212
 20
533.7325791748924
 10
313.3174162550989
 20
533.4487929011772
 10
314.338385422149
 20
532.4929698770271
 10
314.73340996884855
 20
532.0782109335128
  0
LWPOLYLINE
  5
35
330
17
100
AcDbEntity
  8
default
100
AcDbPolyline
 90
11
 70
0
 10
318.95696780409276
 20
519.6405712489435
 10
318.823127489434
 20
518.9525417615181
 10
319.8202371271327
 20
519.5652952888049
 10
320.5108825294301
 20
523.8394825733267
 10
318.83344521807555
 20
523.9473274316052
 10
318.8860065688311
 20
523.6600420046699
 10
319.02911177403115
 20
522.50289898027
 10
319.066434098295
 20
521.8198682696086
 10
319.0484858224949
 20
520.5259598289085
 10
319.0224682329239
 20
520.0812249709247
 10
318.95696780409276
 20
519.6405712489435
  0
LWPOLYLINE
  5
36
330
17
100
AcDbEntity
  8
default
100
AcDbPolyline
 90
45
 70
0
 10
307.16446569435095
 20
512.3848145836656
 10
306.97205874867694
 20
512.2999805377486
 10
306.6339375786245
 20
512.1316528241886
 10
306.23379759265026
 20
511.9132485237597
 10
305.73719204429847
 20
511.62179374947203
 10
305.1356008054269
 20
511.25139636763095
 10
305.04646941366263
 20
511.19778894028957
 10
304.642829597288
 20
510.9607044021165
 10
304.56579031581833
 20
506.43726621137756
 10
304.7931740764796
 20
506.57260107455807
 10
304.94982199346185
 20
506.6620485185472
 10
305.1273938134027
 20
506.7592387780519
 10
305.39542162281595
 20
506.94483433007474
 10
305.84126840014375
 20
507.2201615918962
 10
306.1698563713707
 20
507.40000741543025
 10
306.4598407431455
 20
507.5726010745575
 10
306.6164886601493
 20
507.66204851855844
 10
306.79406048052164
 20
507.75923877829825
 10
307.06208828984023
 20
507.9448343301747
 10
307.507935151868
 20
508.2201616382333
 10
307.8365243430546
 20
508.400008121159
 10
308.12650918511184
 20
508.5726018299022
 10
308.2832131792639
 20
508.6620798454932
 10
308.4609615479028
 20
508.7593636492205
 10
308.72891980219873
 20
508.9448707941737
 10
309.18361562108646
 20
509.22496815789907
 10
309.5368305432525
 20
509.41732491928536
 10
309.8361212189588
 20
509.58963647283633
 10
310.26240908276213
 20
509.8085652327916
 10
310.38228715271003
 20
509.86303747191585
 10
310.5250498339695
 20
509.9452305509119
 10
310.6285201152245
 20
510.00317888152307
 10
310.7991238604401
 20
510.0960847100074
 10
311.0626873438736
 20
510.27850973855544
 10
311.51702484981087
 20
510.5583502827661
 10
311.87019542789267
 20
510.75067668867905
 10
311.94097703056434
 20
510.79142793965536
 10
311.867735105101
 20
512.0722183678299
 10
310.7398036121353
 20
512.473788375958
 10
309.963114103864
 20
512.4448378553009
 10
309.63819468371673
 20
512.4432915605245
 10
308.3920972323221
 20
512.477865995633
 10
307.5582398245044
 20
512.4578803459116
 10
307.24558525545336
 20
512.4098882274499
 10
307.16446569435095
 20
512.3848145836656
  0
LWPOLYLINE
  5
37
330
17
100
AcDbEntity
  8
default
100
AcDbPolyline
 90
44
 70
0
 10
324.9619295464998
 20
518.0032277927075
 10
325.13248730788484
 20
518.096105573575
 10
325.39602251064406
 20
518.2785107854779
 10
325.8504171553933
 20
518.5583820682583
 10
326.20401476231206
 20
518.7509347893048
 10
326.5034708532763
 20
518.9232554517788
 10
326.9439956275727
 20
519.1485095017755
 10
327.0910908500149
 20
519.2147589359603
 10
327.243622964336
 20
519.2992623313293
 10
327.6287372337185
 20
519.4914398172833
 10
327.76594083021865
 20
519.5526791275505
 10
327.91136091777963
 20
519.6331966337616
 10
328.2954210260747
 20
519.8247902763072
 10
328.43207340074343
 20
519.8857835547968
 10
328.57722593110225
 20
519.966198631427
 10
328.94697155107724
 20
520.1514854252817
 10
329.05693263505356
 20
520.2010102125239
 10
329.192666241517
 20
520.2791175066867
 10
329.2952628798625
 20
520.3365611260597
 10
329.4658206412287
 20
520.4294389069156
 10
329.72935584397675
 20
520.611844118811
 10
330.1837504887305
 20
520.8917154015938
 10
330.5373480956436
 20
521.0842681226368
 10
330.8368041866093
 20
521.2565887851117
 10
331.27732896093727
 20
521.4818428351226
 10
331.42442418446933
 20
521.548092269797
 10
331.5769562993171
 20
521.6325956653608
 10
331.9620707109628
 20
521.8247732145833
 10
332.099275900351
 20
521.886013230615
 10
332.2446967401624
 20
521.9665310128747
 10
332.628852649289
 20
522.1581670666316
 10
332.7659924584935
 20
522.2193743389914
 10
332.91136666179415
 20
522.299866158845
 10
333.2955194836416
 20
522.4915004877114
 10
333.4326591960412
 20
522.5527077116657
 10
333.46801232736817
 20
522.572282284115
 10
328.4114088481292
 20
529.3361663818359
 10
324.72485051723197
 20
524.8425751640461
 10
323.75807859236374
 20
518.8595276353881
 10
324.55759483857
 20
517.7900676222774
 10
324.61363805282343
 20
517.8181520048598
 10
324.7235992327793
 20
517.8676768394382
 10
324.85933290630567
 20
517.9457841722701
 10
324.9619295464998
 20
518.0032277927075
  0
LWPOLYLINE
  5
38
330
17
100
AcDbEntity
  8
default
100
AcDbPolyline
 90
20
 70
0
 10
374.1518081942765
 20
541.9146132035968
 10
374.2743732896665
 20
541.981485087991
 10
374.71628808604527
 20
542.1951481699368
 10
375.00684922772575
 20
542.3184238933496
 10
375.3526923012454
 20
542.4759309064276
 10
375.953914128969
 20
542.704295471793
 10
376.12919994093767
 20
542.7582574993136
 10
376.24119703583733
 20
542.8092642397733
 10
376.3606956668121
 20
542.8618148375539
 10
376.4851415946189
 20
542.9146132319527
 10
376.60770677084463
 20
542.9814851559382
 10
377.0496248452135
 20
543.1951496135175
 10
377.1781413679282
 20
543.2496749180503
 10
374.54700676118955
 20
544.8324619047344
 10
373.3316420621615
 20
541.5945466815056
 10
373.62058079563616
 20
541.704295471793
 10
373.79586660759014
 20
541.7582574993091
 10
373.90786370247184
 20
541.8092642397613
 10
374.0273623312314
 20
541.8618148366029
 10
374.1518081942765
 20
541.9146132035968
  0
LWPOLYLINE
  5
39
330
17
100
AcDbEntity
  8
default
100
AcDbPolyline
 90
29
 70
0
 10
364.04875634250755
 20
537.5280068817656
 10
364.3396124767457
 20
537.651491159999
 10
364.68595993253524
 20
537.8092339880003
 10
365.2872441717094
 20
538.0376275700232
 10
365.4624956112987
 20
538.0915791770288
 10
365.57444754143216
 20
538.1425673213447
 10
365.69289428984837
 20
538.1946735493847
 10
365.8105664883901
 20
538.2446318097577
 10
365.92478071496834
 20
538.3074056945712
 10
366.2964766276081
 20
538.4920404901
 10
366.4333154251498
 20
538.5530699200142
 10
366.5782231526416
 20
538.6332959200864
 10
366.9634121601559
 20
538.8253738234346
 10
367.10730035268466
 20
538.889547248802
 10
367.26108994805986
 20
538.9740723612565
 10
367.7154230131827
 20
539.1946735503353
 10
368.0062791950326
 20
539.3181578484481
 10
368.24560438267554
 20
539.4271577245896
 10
371.3988767908886
 20
547.8279519407079
 10
371.34074488049373
 20
548.0042816093192
 10
366.3481866372749
 20
550.9512890903279
 10
358.51841061841697
 20
542.5075119324028
 10
362.73222544673894
 20
536.8709704824087
 10
362.7660423800882
 20
536.8860633509698
 10
362.91147027884165
 20
536.9665811129597
 10
363.29674256637213
 20
537.158705519358
 10
363.44063187918096
 20
537.2228795830616
 10
363.5944231560952
 20
537.3074056254635
 10
364.04875634250755
 20
537.5280068817656
  0
LWPOLYLINE
  5
3A
330
17
100
AcDbEntity
  8
default
100
AcDbPolyline
 90
42
 70
0
 10
382.2743735615671
 20
545.314818557219
 10
382.71629151363857
 20
545.5284829478007
 10
383.0068851563544
 20
545.651772206709
 10
383.3527749089836
 20
545.8092944005577
 10
383.95458675638184
 20
546.0378307822021
 10
384.1352184786301
 20
546.093411402105
 10
384.25424949056406
 20
546.1472953204756
 10
384.44006217283777
 20
546.2269245499926
 10
384.71388486624676
 20
546.3377729518552
 10
385.0295345453086
 20
546.4806583217477
 10
385.62165662571726
 20
546.7046991554175
 10
385.80221706917627
 20
546.7602307250592
 10
385.92098104729973
 20
546.8139916984416
 10
386.106731257578
 20
546.8935924968208
 10
386.3805531130057
 20
547.0044403420009
 10
386.69620130730885
 20
547.1473250317865
 10
387.28832329322057
 20
547.3713658224893
 10
387.46888373648
 20
547.4268973920151
 10
387.5876477139898
 20
547.480658365119
 10
387.77339792424624
 20
547.5602591634884
 10
388.0472197796746
 20
547.6711070086686
 10
388.36286797397565
 20
547.8139916984533
 10
388.95498995988623
 20
548.0380324891556
 10
389.1355504031466
 20
548.0935640586817
 10
389.2543143806578
 20
548.1473250317862
 10
389.44006459091264
 20
548.2269258301549
 10
389.71388644634123
 20
548.3377736753353
 10
390.029534640642
 20
548.4806583651198
 10
390.6216566265527
 20
548.7046991558223
 10
390.80221706981257
 20
548.7602307253482
 10
390.9209810473235
 20
548.8139916984526
 10
391.10673125758046
 20
548.8935924968221
 10
391.3805531130065
 20
549.0044403420013
 10
391.3885461572082
 20
549.0080585589334
 10
391.56914410274476
 20
550.1465250221081
 10
384.815999366343
 20
556.7415028829128
 10
375.5611539147794
 20
548.8903672373854
 10
381.8414840927953
 20
545.1123678706284
 10
381.90792918451695
 20
545.142627733891
 10
382.027364991764
 20
545.1951496144684
 10
382.1518099296435
 20
545.2479474803221
 10
382.2743735615671
 20
545.314818557219
  0
LWPOLYLINE
  5
3B
330
17
100
AcDbEntity
  8
default
100
AcDbPolyline
 90
36
 70
0
 10
404.59772997721996
 20
554.1519817763213
 10
404.775234196589
 20
554.2277642153026
 10
405.05375802819714
 20
554.3403705919911
 10
405.37597321432116
 20
554.4853443316397
 10
406.0037197206736
 20
554.7186072162147
 10
406.31610226795686
 20
554.8114034903365
 10
406.6122682295599
 20
554.9253711806942
 10
407.0263144610572
 20
555.0642644505572
 10
407.33367761373637
 20
555.1526385629365
 10
407.60930945555276
 20
555.2587045140352
 10
407.98119176789527
 20
555.3852738832497
 10
408.16030200721923
 20
555.438480321942
 10
408.2644609414464
 20
555.48534437436
 10
408.4419032749071
 20
555.5610988245533
 10
408.72042627257287
 20
555.6737046434647
 10
409.0426399754565
 20
555.8186777076935
 10
409.67038638810004
 20
556.0519405499165
 10
409.98276893523143
 20
556.1447368239052
 10
410.27893489624574
 20
556.258704514035
 10
410.6929811277239
 20
556.3975977838904
 10
411.0003442804023
 20
556.4859718962696
 10
411.2759761222196
 20
556.5920378473686
 10
411.64785843456195
 20
556.718607216583
 10
411.826968673899
 20
556.7718136552792
 10
411.9311276081435
 20
556.8186777077043
 10
412.10856994365844
 20
556.8944321587269
 10
412.38709298903655
 20
557.0070379967829
 10
412.54908594021697
 20
557.079923206191
 10
408.29757147841156
 20
562.766892963089
 10
404.22550927102566
 20
562.3348845154978
 10
401.4770615012385
 20
554.7296443241648
 10
403.8309287313611
 20
553.882071693869
 10
403.9348599819751
 20
553.9222711704069
 10
404.31416051978147
 20
554.0517572011248
 10
404.49332254061073
 20
554.105004124833
 10
404.59772997721996
 20
554.1519817763213
  0
LWPOLYLINE
  5
3C
330
17
100
AcDbEntity
  8
default
100
AcDbPolyline
 90
66
 70
0
 10
381.83969804398157
 20
565.8948530265487
 10
381.7355391768086
 20
565.8479890016924
 10
381.55809990429384
 20
565.772235784697
 10
381.2796090980048
 20
565.6596427600493
 10
380.957441447772
 20
565.5146848903348
 10
380.3302470584666
 20
565.2815761318402
 10
380.0219186949719
 20
565.1899409920011
 10
379.73180661011395
 20
565.0777288005594
 10
379.35250614737413
 20
564.9482427988762
 10
379.17334417666075
 20
564.8949958900623
 10
379.06893680768644
 20
564.8480182663923
 10
378.89143564928884
 20
564.7722370606208
 10
378.61294400904393
 20
564.6596434782144
 10
378.29077487557663
 20
564.5146849330582
 10
377.6635803925628
 20
564.2815761322099
 10
377.355252028916
 20
564.1899409922386
 10
377.06513994346795
 20
564.0777288005671
 10
376.6858394807057
 20
563.9482427988754
 10
376.5066775099923
 20
563.8949958900615
 10
376.4022701410185
 20
563.8480182663918
 10
376.22476898262073
 20
563.7722370606203
 10
375.9462773423915
 20
563.6596434782205
 10
375.62410820894434
 20
563.5146849330708
 10
374.99691372714136
 20
563.281576132578
 10
374.6885854019677
 20
563.1899410039541
 10
374.398473375171
 20
563.0777288296001
 10
374.0191747223222
 20
562.94824335909
 10
373.8400468275511
 20
562.8950065009685
 10
373.7356849013242
 20
562.8480475338856
 10
373.5591527715842
 20
562.7726552688312
 10
373.2855876716856
 20
562.6619824651419
 10
372.97040047301385
 20
562.5193119264067
 10
372.37834211642183
 20
562.2953002286864
 10
372.1977819454688
 20
562.2397688256711
 10
372.07901885734316
 20
562.1860082581754
 10
371.8932687408197
 20
562.106407502336
 10
371.619446885963
 20
561.9955596575303
 10
371.3037986926656
 20
561.8526749682021
 10
370.7116767067817
 20
561.6286341775117
 10
370.53111626352035
 20
561.5731026079852
 10
370.4123522860081
 20
561.5193416348803
 10
370.2266020757547
 20
561.4397408365123
 10
369.9527802203274
 20
561.3288929913324
 10
369.63713202602577
 20
561.1860083015474
 10
369.04501004011496
 20
560.9619675108448
 10
368.86444959685304
 20
560.9064359413183
 10
368.74568561933955
 20
560.8526749682128
 10
368.5599354090898
 20
560.7730741698464
 10
368.28611355366036
 20
560.6622263246655
 10
367.9704653593579
 20
560.5193416348802
 10
367.37834337344657
 20
560.2953008441776
 10
367.19778293018607
 20
560.2397692746515
 10
367.0790189526746
 20
560.186008301547
 10
366.8932687424232
 20
560.1064075031798
 10
366.6194468869937
 20
559.9955596579989
 10
366.30379869269126
 20
559.8526749682136
 10
365.7116767067817
 20
559.6286341775116
 10
365.5311162635198
 20
559.573102607985
 10
365.4274827996952
 20
559.5261907751368
 10
367.5363821121864
 20
554.8947986713611
 10
372.79607534594834
 20
551.7901067370549
 10
382.86636520782486
 20
560.3330059251748
 10
382.59081509331753
 20
566.1516387919992
 10
382.3906905444734
 20
566.0746288193061
 10
382.01880823335455
 20
565.9480594504532
 10
381.83969804398157
 20
565.8948530265487
  0
LWPOLYLINE
  5
3D
330
17
100
AcDbEntity
  8
default
100
AcDbPolyline
 90
7
 70
0
 10
386.59083565184847
 20
566.2458646362647
 10
386.8712066193111
 20
560.3254325962625
 10
394.07429390819743
 20
553.2910503856838
 10
397.30225754948333
 20
554.94654774433
 10
400.42041837982833
 20
563.5748223406263
 10
394.584482959006
 20
568.5960991568863
 10
386.59083565184847
 20
566.2458646362647
  0
LWPOLYLINE
  5
3E
330
17
100
AcDbEntity
  8
default
100
AcDbPolyline
 90
36
 70
0
 10
418.3605782065352
 20
559.0645999049526
 10
418.6719776652616
 20
559.1540526647843
 10
418.9534352100489
 20
559.2618021070532
 10
419.36057820653207
 20
559.3979332382847
 10
419.671977665259
 20
559.4873859981168
 10
419.9534352100464
 20
559.5951354403859
 10
420.36057820653525
 20
559.7312665716194
 10
420.67197766526147
 20
559.820719331451
 10
420.95343521004787
 20
559.9284687737196
 10
421.3605782065321
 20
560.0645999049516
 10
421.6719776652605
 20
560.1540526647841
 10
421.95343521004764
 20
560.261802107053
 10
422.36057820653514
 20
560.3979332382859
 10
422.6719776652611
 20
560.4873859981175
 10
422.9534352100469
 20
560.5951354403859
 10
423.36057820653326
 20
560.7312665716186
 10
423.6719776652597
 20
560.8207193314504
 10
423.9534352100479
 20
560.9284687737197
 10
424.36057820653497
 20
561.0645999049525
 10
424.67197766526203
 20
561.1540526647844
 10
424.95343521004736
 20
561.2618021070526
 10
425.3605782065323
 20
561.3979332382848
 10
425.6719776652594
 20
561.4873859981169
 10
425.95343521004787
 20
561.5951354403863
 10
426.3605782065352
 20
561.7312665716191
 10
426.5177970581469
 20
561.7764293353302
 10
420.335821299348
 20
570.0456495145336
 10
414.39302931772545
 20
570.1464592511766
 10
411.5909150908701
 20
565.042041358538
 10
416.5230781075739
 20
558.4446130387263
 10
416.6719776646873
 20
558.4873859978965
 10
416.95343521002854
 20
558.5951354403788
 10
417.3605782065331
 20
558.7312665716184
 10
417.67197766525965
 20
558.8207193314504
 10
417.95343521004594
 20
558.928468773719
 10
418.3605782065352
 20
559.0645999049526
  0
LWPOLYLINE
  5
3F
330
17
100
AcDbEntity
  8
default
100
AcDbPolyline
 90
40
 70
0
 10
407.5154686268664
 20
574.4754710352795
 10
407.08089791802195
 20
574.3306971624745
 10
406.5877851772541
 20
574.1940193474479
 10
406.1700267616307
 20
574.1009543469191
 10
405.8590769758182
 20
573.9973638291418
 10
405.618358161978
 20
573.9238475309119
 10
405.30676256377706
 20
573.8371966967037
 10
405.03886464750417
 20
573.7351609003254
 10
404.6390903149061
 20
573.6018988434928
 10
404.3277011974513
 20
573.5124900638691
 10
404.0464478465249
 20
573.4048257868965
 10
403.638821449026
 20
573.2685655101587
 10
403.32338570301016
 20
573.1779948269844
 10
403.0358887477861
 20
573.0684942336586
 10
402.5958294408923
 20
572.9238475309129
 10
402.18213529353346
 20
572.808804368613
 10
401.74756458469034
 20
572.6640304958082
 10
401.25445184391845
 20
572.5273526807806
 10
400.83669342830456
 20
572.4342876802541
 10
400.5257436425049
 20
572.3306971624801
 10
400.28502482975574
 20
572.2571808645528
 10
399.9734292692963
 20
572.170530040763
 10
399.70553141072526
 20
572.0684942615536
 10
399.30575877980743
 20
571.9352326864569
 10
398.9943955800555
 20
571.8458312240764
 10
398.71318155831744
 20
571.7381785057642
 10
398.306087428498
 20
571.6020662514379
 10
397.99468812203884
 20
571.5126136599501
 10
397.713231383255
 20
571.4048645313442
 10
397.52579293175944
 20
571.342193165319
 10
403.41886614635587
 20
566.2717546196654
 10
407.96782696805894
 20
566.7543576355092
 10
410.9536328506656
 20
572.1933939256705
 10
409.4475252366349
 20
575.097424997542
 10
409.3797811798567
 20
575.0714924535628
 10
408.97215478236006
 20
574.9352321768258
 10
408.6567190363442
 20
574.8446614936514
 10
408.3692220811205
 20
574.7351609003257
 10
407.92916277422586
 20
574.5905141975796
 10
407.5154686268664
 20
574.4754710352795
  0
LWPOLYLINE
  5
40
330
17
100
AcDbEntity
  8
default
100
AcDbPolyline
 90
12
 70
0
 10
429.2428930555666
 20
580.9129976634164
 10
428.8253472360754
 20
580.8005731084372
 10
428.39913710134556
 20
580.6598430886997
 10
427.892415956163
 20
580.5215824340199
 10
427.796200619054
 20
580.5006902181207
 10
423.68923619017005
 20
572.2404445330612
 10
429.53384391078725
 20
564.4224992697127
 10
435.8149048355408
 20
570.1568251983263
 10
435.90689550479874
 20
572.5987805011682
 10
429.6074432635728
 20
581.0251412026892
 10
429.5105935661975
 20
580.993163364938
 10
429.2428930555666
 20
580.9129976634164
  0
LWPOLYLINE
  5
41
330
17
100
AcDbEntity
  8
default
100
AcDbPolyline
 90
30
 70
0
 10
421.1923142360102
 20
578.6640037075615
 10
420.9511239302083
 20
578.5903607537501
 10
420.63550098962133
 20
578.5026289213855
 10
420.3615874235559
 20
578.3988308817479
 10
419.9288657715281
 20
578.2570278855136
 10
419.51519348727805
 20
578.1420417052269
 10
419.08085837328724
 20
577.997350414977
 10
418.5877836608104
 20
577.8606855155838
 10
418.17000418228184
 20
577.7676160238997
 10
417.8590203054109
 20
577.6640170816487
 10
417.617791526962
 20
577.5903612191534
 10
417.30216848467444
 20
577.5026292403454
 10
417.02825416235686
 20
577.3988309092653
 10
416.59553243881686
 20
577.2570278858204
 10
416.1818601544917
 20
577.1420417054109
 10
415.74752503997155
 20
576.9973504149827
 10
415.2544503274756
 20
576.8606855155834
 10
414.8366708489478
 20
576.7676160238996
 10
414.5256869720768
 20
576.6640170816487
 10
414.2844581936314
 20
576.5903612191544
 10
413.96883515135346
 20
576.5026292403488
 10
413.69492082904827
 20
576.3988309092722
 10
413.3390177105823
 20
576.2822013630158
 10
414.4468452720903
 20
574.1461218218319
 10
420.1217373562977
 20
574.049856568221
 10
422.61462072743035
 20
579.063737128191
 10
422.40816772339116
 20
578.9952641283411
 10
421.9210033962444
 20
578.860603977064
 10
421.5031548091165
 20
578.7675519879738
 10
421.1923142360102
 20
578.6640037075615
  0
LWPOLYLINE
  5
42
330
17
100
AcDbEntity
  8
default
100
AcDbPolyline
 90
26
 70
0
 10
462.15607312428074
 20
572.3401699684007
 10
462.4237752163887
 20
572.420336095735
 10
462.8413411049286
 20
572.5327659076269
 10
463.26758557265936
 20
572.6735033207942
 10
463.77461722670364
 20
572.8118269094389
 10
464.28421493517305
 20
572.9224428135614
 10
464.7400397323892
 20
573.056318250488
 10
465.1127366848585
 20
573.1503799689403
 10
465.6293769389186
 20
573.2598341801566
 10
466.07816813629324
 20
573.3911311637805
 10
466.4461508858953
 20
573.4837839136181
 10
466.96287400713805
 20
573.5932188863219
 10
467.41153278061773
 20
573.7244738749787
 10
467.7794844925451
 20
573.8171174624564
 10
468.1939399330923
 20
573.9048934326227
 10
466.24586811213345
 20
579.089579732544
 10
466.077952221121
 20
578.4192219187711
 10
465.66799826118154
 20
577.2734773553992
 10
465.1477157359612
 20
576.173432380084
 10
464.5221152505932
 20
575.1296810272834
 10
463.79722167973955
 20
574.1522751930972
 10
462.9800161447548
 20
573.2506278300132
 10
462.0783687816708
 20
572.4334222950284
 10
461.8018018024312
 20
572.2283062437946
 10
461.8469736412218
 20
572.2381114861752
 10
462.15607312428074
 20
572.3401699684007
  0
LWPOLYLINE
  5
43
330
17
100
AcDbEntity
  8
default
100
AcDbPolyline
 90
32
 70
0
 10
447.8076857639941
 20
568.3359962924383
 10
448.0488760709025
 20
568.4096392465574
 10
448.3644990488851
 20
568.4973710892388
 10
448.6384126723719
 20
568.6011691457705
 10
449.0711359261106
 20
568.7429725798901
 10
449.4848284799683
 20
568.8579642395135
 10
449.9191981551414
 20
569.0026629591098
 10
450.41259880345484
 20
569.1393960229362
 10
450.83366304988266
 20
569.2331641171021
 10
451.14996247566427
 20
569.3380692049927
 10
451.4229713709052
 20
569.4200555740291
 10
451.83738129114965
 20
569.5317315170649
 10
452.2585551947283
 20
569.6714157536867
 10
452.53287656907446
 20
569.7472303072391
 10
451.7927720650416
 20
569.8570144397263
 10
450.61236206008624
 20
570.152691753647
 10
449.4666174967145
 20
570.5626457135864
 10
448.36657252139923
 20
571.0829282388067
 10
447.3228211685985
 20
571.7085287241748
 10
446.3454153344124
 20
572.4334222950284
 10
445.4437679713284
 20
573.2506278300132
 10
444.62656243634365
 20
574.1522751930972
 10
443.90166886549
 20
575.1296810272834
 10
443.8805092846637
 20
575.1649836551246
 10
439.894622748252
 20
572.1976766656153
 10
439.8316966644488
 20
570.5272606890649
 10
445.98880457331694
 20
567.8160434853536
 10
446.17069278674114
 20
567.8650591177319
 10
446.5918322189051
 20
568.004735852361
 10
447.0789966034991
 20
568.1393960227717
 10
447.4968451905297
 20
568.2324480119065
 10
447.8076857639941
 20
568.3359962924383
  0
LWPOLYLINE
  5
44
330
17
100
AcDbEntity
  8
default
100
AcDbPolyline
 90
31
 70
0
 10
474.07819949361146
 20
575.3911405553391
 10
474.44615115940053
 20
575.4837841292649
 10
474.96287450791016
 20
575.5932190377137
 10
475.4115328269626
 20
575.724473888676
 10
475.77948449341085
 20
575.8171174627404
 10
476.2962078659373
 20
575.9265523762015
 10
476.74486623039974
 20
576.0578072356991
 10
477.1128188676091
 20
576.150451011578
 10
477.62955880323074
 20
576.2598893205587
 10
478.0782479990122
 20
576.3911499462533
 10
478.4465017236517
 20
576.4838548877289
 10
478.96586624365347
 20
576.5938120894183
 10
479.41930023465795
 20
576.7259468403505
 10
479.80578268507907
 20
576.8220511279604
 10
480.3956981631745
 20
576.9440208970033
 10
480.97044749835084
 20
577.0949610989867
 10
481.38079287079927
 20
577.1844876752398
 10
482.0261313487524
 20
577.2971225329928
 10
482.52564459055645
 20
577.4283013746377
 10
482.78358981564014
 20
577.4887838320742
 10
483.31060788231605
 20
577.597713203316
 10
483.3213275313099
 20
577.6008248728516
 10
469.8887578668073
 20
583.5157145415433
 10
469.01185820344836
 20
583.3642533277161
 10
468.95838478719816
 20
583.2428165078163
 10
472.09881029160834
 20
574.8847462811256
 10
472.29620784123875
 20
574.9265523710461
 10
472.7448661602797
 20
575.0578072220061
 10
473.1128178260665
 20
575.1504507959313
 10
473.62954117457093
 20
575.259885704379
 10
474.07819949361146
 20
575.3911405553391
  0
LWPOLYLINE
  5
45
330
17
100
AcDbEntity
  8
default
100
AcDbPolyline
 90
28
 70
0
 10
441.37045832466856
 20
584.0734474775653
 10
440.9218004600812
 20
583.9421927643048
 10
440.5538488410849
 20
583.8495492040682
 10
440.0371255164647
 20
583.7401143006791
 10
439.5884672431647
 20
583.608859458351
 10
439.22051654881045
 20
583.5162160863825
 10
438.7038097881731
 20
583.4067845786337
 10
438.25518234652844
 20
583.2755355028866
 10
437.8875329490573
 20
583.1829533643929
 10
437.3734693141936
 20
583.0740450297699
 10
436.9296028577908
 20
582.943681749512
 10
436.5812448282077
 20
582.8548397572287
 10
436.1530258328768
 20
582.7618883358549
 10
435.84392681845713
 20
582.6598300125338
 10
435.5762247830498
 20
582.5796639039844
 10
435.1586588945654
 20
582.4672340922042
 10
434.73241442734457
 20
582.3264966792054
 10
434.2253827740052
 20
582.1881730907141
 10
433.80105123219613
 20
582.0960654999668
 10
438.33882887428626
 20
576.0261804163456
 10
442.2212750172745
 20
578.9164808483082
 10
442.05015458104157
 20
579.5996319237264
 10
441.8716014473064
 20
580.8033393766399
 10
441.8118920580416
 20
582.0187519167264
 10
441.8716014473064
 20
583.2341644568129
 10
442.0171858052266
 20
584.2156144767047
 10
441.88718190042925
 20
584.1828823217559
 10
441.37045832466856
 20
584.0734474775653
  0
LWPOLYLINE
  5
46
330
17
100
AcDbEntity
  8
default
100
AcDbPolyline
 90
10
 70
0
 10
485.3648676946759
 20
581.0716006485745
 10
492.02257768204436
 20
584.842550907284
 10
491.6362741799094
 20
589.2366208429448
 10
483.61210417280984
 20
592.7699790510309
 10
482.8568690820173
 20
592.6651276272091
 10
482.17808344496535
 20
592.5192833037627
 10
481.924318672421
 20
592.4715786296076
 10
481.1958287689878
 20
592.3540188609254
 10
473.8716294746846
 20
586.1325262724422
 10
485.3648676946759
 20
581.0716006485745
  0
LWPOLYLINE
  5
47
330
17
100
AcDbEntity
  8
default
100
AcDbPolyline
 90
7
 70
0
 10
496.0415558377281
 20
584.8021719204262
 10
500.0956742488779
 20
581.7694944692776
 10
507.30474156234413
 20
584.9646693337709
 10
507.4866148564033
 20
594.5622509140521
 10
498.10018224734813
 20
593.2093564718962
 10
495.58618796058
 20
589.9818254522979
 10
496.0415558377281
 20
584.8021719204262
  0
LWPOLYLINE
  5
48
330
17
100
AcDbEntity
  8
default
100
AcDbPolyline
 90
29
 70
0
 10
516.0745518228069
 20
584.4586236540434
 10
516.3960702187564
 20
584.5234420167388
 10
517.1197685544671
 20
584.6447882252173
 10
517.7380482989549
 20
584.7911480393542
 10
518.0627753077564
 20
584.8567394524076
 10
518.7863347656452
 20
584.9780946677412
 10
519.404693779553
 20
585.1244761867889
 10
519.7294413873229
 20
585.1900725663587
 10
520.4529889348842
 20
585.3114259814217
 10
521.0713221021894
 20
585.4578043263667
 10
521.3958768230787
 20
585.5233698641531
 10
522.117538403175
 20
585.6444392889532
 10
522.4918370782115
 20
585.7333287724043
 10
519.5874292291701
 20
596.9741718010046
 10
519.2014214408194
 20
597.1128739949027
 10
518.4318055028523
 20
597.0756280519132
 10
515.9840290470526
 20
596.9393799003528
 10
514.3151430739669
 20
596.7673680404088
 10
514.1999906967089
 20
596.7568434669652
 10
512.4364762628728
 20
596.616205601225
 10
512.1145720775897
 20
596.5772795784925
 10
511.51468223519623
 20
596.0054898238741
 10
511.30511129368097
 20
584.9462839313783
 10
513.5415161991733
 20
583.9615067366932
 10
513.7994318880493
 20
583.9985101592582
 10
514.477584844412
 20
584.1454915642797
 10
514.7248475262617
 20
584.192599835525
 10
515.4595380523351
 20
584.3134937274342
 10
516.0745518228069
 20
584.4586236540434
  0
LWPOLYLINE
  5
49
330
17
100
AcDbEntity
  8
default
100
AcDbPolyline
 90
67
 70
0
 10
534.8708467262587
 20
595.380581616557
 10
534.7665154997211
 20
595.440258544279
 10
534.6772856051335
 20
595.4785052715192
 10
534.5735623085493
 20
595.52436364599
 10
534.4621645456469
 20
595.5751330770308
 10
534.2875542912128
 20
595.6288647296603
 10
533.6962464100583
 20
595.8526460432755
 10
533.3815729687556
 20
595.9950843092225
 10
533.1083018139786
 20
596.105566620253
 10
532.9411466044111
 20
596.1767064118789
 10
532.8509012058231
 20
596.2170658535903
 10
532.6720440421301
 20
596.2683972877743
 10
532.4775018759454
 20
596.328544082887
 10
532.1860204102663
 20
596.4252069776728
 10
531.7565035184753
 20
596.5161398298735
 10
531.5309753017789
 20
596.5693750347235
 10
531.0476613296557
 20
596.6953516382003
 10
530.3675680299383
 20
596.8065963989241
 10
530.2519369665199
 20
596.8269071190881
 10
529.5074124292312
 20
596.9667133935974
 10
528.2315371949777
 20
597.0814892730666
 10
525.7866480153092
 20
597.2188278453982
 10
523.6555783276358
 20
597.2188278453982
 10
526.3935590294775
 20
586.6221028378401
 10
526.7370466355682
 20
586.722984917151
 10
527.0850545537388
 20
586.811750899314
 10
527.5099603974016
 20
586.9040150319295
 10
527.8136922731989
 20
587.0047490870252
 10
528.048604738371
 20
587.0763054478193
 10
528.3601543548866
 20
587.1629051590809
 10
528.6277848458924
 20
587.2648390996821
 10
529.0269762704343
 20
587.397933748563
 10
529.3342661505346
 20
587.4862058658822
 10
529.6094100744631
 20
587.5920771475838
 10
529.981192139294
 20
587.7186077764351
 10
530.1602677771973
 20
587.7718038598111
 10
530.2643794706521
 20
587.8186484430101
 10
530.4408464619788
 20
587.8940113986777
 10
530.7143781558586
 20
588.0046706875697
 10
531.0295174911735
 20
588.1473250317977
 10
531.6209837886063
 20
588.3711641155232
 10
531.7961631918448
 20
588.4250670496551
 10
531.9078465510853
 20
588.4759309058251
 10
532.0262301405079
 20
588.5280082681174
 10
532.1438996625768
 20
588.5779652937482
 10
532.2581115115258
 20
588.6407379823592
 10
532.6297078102891
 20
588.8253286868155
 10
532.7660131533103
 20
588.8861238801641
 10
532.9106430618627
 20
588.9662458009345
 10
533.2802102751006
 20
589.1514435603659
 10
533.3897332043272
 20
589.2007737434819
 10
533.525302467065
 20
589.2788262948804
 10
533.6190499423794
 20
589.3314665442176
 10
533.7801184431745
 20
589.4196440924834
 10
534.052286657523
 20
589.611205318192
 10
534.2668746355864
 20
589.7541112674511
 10
534.5589525923676
 20
589.937932096489
 10
534.9168202869155
 20
590.2147266747137
 10
535.6421678228822
 20
590.827741122684
 10
536.6037138305387
 20
591.7892871303444
 10
536.2201055212744
 20
594.4507760313554
 10
535.8939224665779
 20
594.7082245428842
 10
535.5056233529225
 20
594.9674421022297
 10
535.3796272033235
 20
595.0543708957659
 10
535.0993503744237
 20
595.2541437625854
 10
534.944617595736
 20
595.3392091995613
 10
534.8708467262587
 20
595.380581616557
  0
LWPOLYLINE
  5
4A
330
17
100
AcDbEntity
  8
default
100
AcDbPolyline
 90
15
 70
0
 10
471.8737828668985
 20
590.6865043040242
 10
471.258743294683
 20
590.5413711989515
 10
470.93703210430766
 20
590.4765220039764
 10
470.21145834924465
 20
590.3548937990072
 10
469.5891179403242
 20
590.2080378806039
 10
469.25262452019996
 20
590.1407334978086
 10
468.47275455688214
 20
590.0124052947045
 10
468.25564390009714
 20
589.9653483364087
 10
468.2988494015299
 20
587.8602587287314
 10
468.60951311932877
 20
587.3539872034453
 10
469.26415719185024
 20
587.4670596453361
 10
473.38773855780295
 20
590.9698085295736
 10
472.8557305538102
 20
590.8545043920801
 10
472.60848526713295
 20
590.8073999568408
 10
471.8737828668985
 20
590.6865043040242
  0
LWPOLYLINE
  5
4B
330
17
100
AcDbEntity
  8
default
100
AcDbPolyline
 90
65
 70
0
 10
349.39997402337036
 20
544.1933408730437
 10
349.19499704340063
 20
544.7662131547295
 10
348.9348557807905
 20
545.3162356423871
 10
348.62205553810645
 20
545.8381113187875
 10
348.25960875267964
 20
546.3268142358805
 10
347.85100598518727
 20
546.7776379174226
 10
347.4001823036453
 20
547.1862406849149
 10
346.9114793865522
 20
547.5486874703417
 10
346.38960371015185
 20
547.8614877130258
 10
345.83958122249425
 20
548.121628975636
 10
345.2667089408083
 20
548.3266059556056
 10
344.67650393833065
 20
548.474444612566
 10
344.0746502118739
 20
548.5637211794336
 10
343.46694394183066
 20
548.593575874066
 10
342.8592376717874
 20
548.5637211794336
 10
342.2573839453307
 20
548.474444612566
 10
341.667178942853
 20
548.3266059556056
 10
341.0943066611671
 20
548.121628975636
 10
340.5442841735095
 20
547.8614877130258
 10
340.02240849710915
 20
547.5486874703417
 10
339.53370558001603
 20
547.1862406849149
 10
339.08288189847406
 20
546.7776379174226
 10
338.6742791309817
 20
546.3268142358805
 10
338.3118323455549
 20
545.8381113187875
 10
337.99903210287084
 20
545.3162356423871
 10
337.7388908402607
 20
544.7662131547295
 10
337.53391386029097
 20
544.1933408730437
 10
337.3860752033306
 20
543.603135870566
 10
337.29679863646305
 20
543.0012821441093
 10
337.2669439418307
 20
542.393575874066
 10
337.29679863646305
 20
541.7858696040227
 10
337.3860752033306
 20
541.1840158775659
 10
337.53391386029097
 20
540.5938108750883
 10
337.7388908402607
 20
540.0209385934024
 10
337.99903210287084
 20
539.4709161057448
 10
338.3118323455549
 20
538.9490404293444
 10
338.6742791309817
 20
538.4603375122514
 10
339.08288189847406
 20
538.0095138307094
 10
339.5337055800161
 20
537.600911063217
 10
340.02240849710915
 20
537.2384642777902
 10
340.5442841735095
 20
536.9256640351061
 10
341.0943066611671
 20
536.6655227724959
 10
341.667178942853
 20
536.4605457925263
 10
342.2573839453307
 20
536.3127071355659
 10
342.8592376717874
 20
536.2234305686983
 10
343.46694394183066
 20
536.1935758740659
 10
344.0746502118739
 20
536.2234305686983
 10
344.67650393833065
 20
536.3127071355659
 10
345.2667089408083
 20
536.4605457925263
 10
345.83958122249425
 20
536.6655227724959
 10
346.38960371015185
 20
536.9256640351061
 10
346.9114793865522
 20
537.2384642777902
 10
347.40018230364524
 20
537.600911063217
 10
347.85100598518727
 20
538.0095138307094
 10
348.25960875267964
 20
538.4603375122514
 10
348.62205553810645
 20
538.9490404293444
 10
348.9348557807905
 20
539.4709161057448
 10
349.19499704340063
 20
540.0209385934024
 10
349.39997402337036
 20
540.5938108750883
 10
349.5478126803307
 20
541.1840158775659
 10
349.6370892471983
 20
541.7858696040227
 10
349.66694394183065
 20
542.393575874066
 10
349.6370892471983
 20
543.0012821441093
 10
349.5478126803307
 20
543.603135870566
 10
349.39997402337036
 20
544.1933408730437
  0
LWPOLYLINE
  5
4C
330
17
100
AcDbEntity
  8
default
100
AcDbPolyline
 90
65
 70
0
 10
460.3820373634092
 20
582.6264581867697
 10
460.29276079654164
 20
583.2283119132264
 10
460.1449221395813
 20
583.8185169157041
 10
459.93994515961157
 20
584.3913891973899
 10
459.6798038970014
 20
584.9414116850476
 10
459.3670036543174
 20
585.4632873614479
 10
459.0045568688906
 20
585.951990278541
 10
458.5959541013982
 20
586.402813960083
 10
458.14513041985623
 20
586.8114167275753
 10
457.6564275027631
 20
587.1738635130022
 10
457.1345518263628
 20
587.4866637556862
 10
456.5845293387052
 20
587.7468050182964
 10
456.01165705701925
 20
587.951781998266
 10
455.4214520545416
 20
588.0996206552264
 10
454.81959832808485
 20
588.188897222094
 10
454.2118920580416
 20
588.2187519167264
 10
453.60418578799835
 20
588.188897222094
 10
453.0023320615416
 20
588.0996206552264
 10
452.41212705906395
 20
587.951781998266
 10
451.839254777378
 20
587.7468050182964
 10
451.2892322897204
 20
587.4866637556862
 10
450.7673566133201
 20
587.1738635130022
 10
450.27865369622697
 20
586.8114167275753
 10
449.827830014685
 20
586.402813960083
 10
449.4192272471926
 20
585.951990278541
 10
449.0567804617658
 20
585.4632873614479
 10
448.7439802190818
 20
584.9414116850476
 10
448.48383895647163
 20
584.3913891973899
 10
448.2788619765019
 20
583.8185169157041
 10
448.13102331954155
 20
583.2283119132264
 10
448.041746752674
 20
582.6264581867697
 10
448.0118920580416
 20
582.0187519167264
 10
448.041746752674
 20
581.4110456466831
 10
448.13102331954155
 20
580.8091919202263
 10
448.2788619765019
 20
580.2189869177487
 10
448.48383895647163
 20
579.6461146360629
 10
448.7439802190818
 20
579.0960921484052
 10
449.0567804617658
 20
578.5742164720049
 10
449.4192272471926
 20
578.0855135549118
 10
449.827830014685
 20
577.6346898733698
 10
450.278653696227
 20
577.2260871058775
 10
450.7673566133201
 20
576.8636403204506
 10
451.2892322897204
 20
576.5508400777666
 10
451.839254777378
 20
576.2906988151564
 10
452.41212705906395
 20
576.0857218351867
 10
453.0023320615416
 20
575.9378831782263
 10
453.60418578799835
 20
575.8486066113587
 10
454.2118920580416
 20
575.8187519167263
 10
454.81959832808485
 20
575.8486066113587
 10
455.4214520545416
 20
575.9378831782263
 10
456.01165705701925
 20
576.0857218351867
 10
456.5845293387052
 20
576.2906988151564
 10
457.1345518263628
 20
576.5508400777666
 10
457.6564275027631
 20
576.8636403204506
 10
458.1451304198562
 20
577.2260871058775
 10
458.5959541013982
 20
577.6346898733698
 10
459.0045568688906
 20
578.0855135549118
 10
459.3670036543174
 20
578.5742164720049
 10
459.6798038970014
 20
579.0960921484052
 10
459.93994515961157
 20
579.6461146360629
 10
460.1449221395813
 20
580.2189869177487
 10
460.29276079654164
 20
580.8091919202263
 10
460.3820373634092
 20
581.4110456466831
 10
460.4118920580416
 20
582.0187519167264
 10
460.3820373634092
 20
582.6264581867697
  0
ENDSEC
  0
SECTION
  2
OBJECTS
  0
DICTIONARY
  5
A
330
0
100
AcDbDictionary
280
0
281
1
  3
ACAD_COLOR
350
B
  3
ACAD_GROUP
350
C
  3
ACAD_LAYOUT
350
D
  3
ACAD_MATERIAL
350
E
  3
ACAD_MLEADERSTYLE
350
F
  3
ACAD_MLINESTYLE
350
10
  3
ACAD_PLOTSETTINGS
350
11
  3
ACAD_PLOTSTYLENAME
350
12
  3
ACAD_SCALELIST
350
14
  3
ACAD_TABLESTYLE
350
15
  3
ACAD_VISUALSTYLE
350
16
  3
EZDXF_META
350
2D
  0
DICTIONARY
  5
B
330
A
100
AcDbDictionary
280
0
281
1
  0
DICTIONARY
  5
C
330
A
100
AcDbDictionary
280
0
281
1
  0
DICTIONARY
  5
D
330
A
100
AcDbDictionary
280
0
281
1
  3
Model
350
1A
  3
Layout1
350
1E
  0
DICTIONARY
  5
E
330
A
100
AcDbDictionary
280
0
281
1
  3
ByBlock
350
1F
  3
ByLayer
350
20
  3
Global
350
21
  0
DICTIONARY
  5
F
330
A
100
AcDbDictionary
280
0
281
1
  3
Standard
350
2C
  0
DICTIONARY
  5
10
330
A
100
AcDbDictionary
280
0
281
1
  3
Standard
350
22
  0
DICTIONARY
  5
11
330
A
100
AcDbDictionary
280
0
281
1
  0
ACDBDICTIONARYWDFLT
  5
12
330
A
100
AcDbDictionary
280
0
281
1
  3
Normal
350
13
100
AcDbDictionaryWithDefault
340
13
  0
ACDBPLACEHOLDER
  5
13
330
12
  0
DICTIONARY
  5
14
330
A
100
AcDbDictionary
280
0
281
1
  0
DICTIONARY
  5
15
330
A
100
AcDbDictionary
280
0
281
1
  0
DICTIONARY
  5
16
330
A
100
AcDbDictionary
280
0
281
1
  0
LAYOUT
  5
1A
330
D
100
AcDbPlotSettings
  1

  2
Adobe PDF
  4
A3
  6

 40
7.5
 41
20.0
 42
7.5
 43
20.0
 44
420.0
 45
297.0
 46
0.0
 47
0.0
 48
0.0
 49
0.0
140
0.0
141
0.0
142
1.0
143
1.0
 70
1024
 72
1
 73
0
 74
5
  7

 75
16
 76
0
 77
2
 78
300
147
1.0
148
0.0
149
0.0
100
AcDbLayout
  1
Model
 70
1
 71
0
 10
0.0
 20
0.0
 11
420.0
 21
297.0
 12
0.0
 22
0.0
 32
0.0
 14
1e+20
 24
1e+20
 34
1e+20
 15
-1e+20
 25
-1e+20
 35
-1e+20
146
0.0
 13
0.0
 23
0.0
 33
0.0
 16
1.0
 26
0.0
 36
0.0
 17
0.0
 27
1.0
 37
0.0
 76
1
330
17
  0
LAYOUT
  5
1E
330
D
100
AcDbPlotSettings
  1

  2
Adobe PDF
  4
A3
  6

 40
7.5
 41
20.0
 42
7.5
 43
20.0
 44
420.0
 45
297.0
 46
0.0
 47
0.0
 48
0.0
 49
0.0
140
0.0
141
0.0
142
1.0
143
1.0
 70
0
 72
1
 73
0
 74
5
  7

 75
16
 76
0
 77
2
 78
300
147
1.0
148
0.0
149
0.0
100
AcDbLayout
  1
Layout1
 70
1
 71
1
 10
0.0
 20
0.0
 11
420.0
 21
297.0
 12
0.0
 22
0.0
 32
0.0
 14
1e+20
 24
1e+20
 34
1e+20
 15
-1e+20
 25
-1e+20
 35
-1e+20
146
0.0
 13
0.0
 23
0.0
 33
0.0
 16
1.0
 26
0.0
 36
0.0
 17
0.0
 27
1.0
 37
0.0
 76
1
330
1B
  0
MATERIAL
  5
1F
102
{ACAD_REACTORS
330
E
102
}
330
E
100
AcDbMaterial
  1
ByBlock
  2

 70
0
 40
1.0
 71
1
 41
1.0
 91
-1023410177
 42
1.0
 72
1
  3

 73
1
 74
1
 75
1
 44
0.5
 73
0
 45
1.0
 46
1.0
 77
1
  4

 78
1
 79
1
170
1
 48
1.0
171
1
  6

172
1
173
1
174
1
140
1.0
141
1.0
175
1
  7

176
1
177
1
178
1
143
1.0
179
1
  8

270
1
271
1
272
1
145
1.0
146
1.0
273
1
  9

274
1
275
1
276
1
 42
1.0
 72
1
  3

 73
1
 74
1
 75
1
 94
63
  0
MATERIAL
  5
20
102
{ACAD_REACTORS
330
E
102
}
330
E
100
AcDbMaterial
  1
ByLayer
  2

 70
0
 40
1.0
 71
1
 41
1.0
 91
-1023410177
 42
1.0
 72
1
  3

 73
1
 74
1
 75
1
 44
0.5
 73
0
 45
1.0
 46
1.0
 77
1
  4

 78
1
 79
1
170
1
 48
1.0
171
1
  6

172
1
173
1
174
1
140
1.0
141
1.0
175
1
  7

176
1
177
1
178
1
143
1.0
179
1
  8

270
1
271
1
272
1
145
1.0
146
1.0
273
1
  9

274
1
275
1
276
1
 42
1.0
 72
1
  3

 73
1
 74
1
 75
1
 94
63
  0
MATERIAL
  5
21
102
{ACAD_REACTORS
330
E
102
}
330
E
100
AcDbMaterial
  1
Global
  2

 70
0
 40
1.0
 71
1
 41
1.0
 91
-1023410177
 42
1.0
 72
1
  3

 73
1
 74
1
 75
1
 44
0.5
 73
0
 45
1.0
 46
1.0
 77
1
  4

 78
1
 79
1
170
1
 48
1.0
171
1
  6

172
1
173
1
174
1
140
1.0
141
1.0
175
1
  7

176
1
177
1
178
1
143
1.0
179
1
  8

270
1
271
1
272
1
145
1.0
146
1.0
273
1
  9

274
1
275
1
276
1
 42
1.0
 72
1
  3

 73
1
 74
1
 75
1
 94
63
  0
MLINESTYLE
  5
22
102
{ACAD_REACTORS
330
10
102
}
330
10
100
AcDbMlineStyle
  2
Standard
 70
0
  3

 62
256
 51
90.0
 52
90.0
 71
2
 49
0.5
 62
256
  6
BYLAYER
 49
-0.5
 62
256
  6
BYLAYER
  0
MLEADERSTYLE
  5
2C
102
{ACAD_REACTORS
330
F
102
}
330
F
100
AcDbMLeaderStyle
179
2
170
2
171
1
172
0
 90
2
 40
0.0
 41
0.0
173
1
 91
-1056964608
 92
-2
290
1
 42
2.0
291
1
 43
8.0
  3
Standard
 44
4.0
300

342
29
174
1
175
1
176
0
178
1
 93
-1056964608
 45
4.0
292
0
297
0
 46
4.0
 94
-1056964608
 47
1.0
 49
1.0
140
1.0
294
1
141
0.0
177
0
142
1.0
295
0
296
0
143
3.75
271
0
272
9
273
9
  0
DICTIONARY
  5
2D
330
A
100
AcDbDictionary
281
1
  3
CREATED_BY_EZDXF
350
2E
  3
WRITTEN_BY_EZDXF
350
4F
  0
DICTIONARYVAR
  5
2E
330
2D
100
DictionaryVariables
280
0
  1
1.1.1 @ 2023-10-17T04:45:00.593275+00:00
  0
DICTIONARYVAR
  5
4F
330
2D
100
DictionaryVariables
280
0
  1
1.1.1 @ 2023-10-17T04:45:00.613274+00:00
  0
ENDSEC
  0
EOF
