  0
SECTION
  2
HEADER
  9
$ACADVER
  1
AC1024
  9
$ACADMAINTVER
 70
6
  9
$DWGCODEPAGE
  3
ANSI_1252
  9
$LASTSAVEDBY
  1
ezdxf
  9
$INSBASE
 10
0.0
 20
0.0
 30
0.0
  9
$EXTMIN
 10
1e+20
 20
1e+20
 30
1e+20
  9
$EXTMAX
 10
-1e+20
 20
-1e+20
 30
-1e+20
  9
$LIMMIN
 10
0.0
 20
0.0
  9
$LIMMAX
 10
420.0
 20
297.0
  9
$ORTHOMODE
 70
0
  9
$REGENMODE
 70
1
  9
$FILLMODE
 70
1
  9
$QTEXTMODE
 70
0
  9
$MIRRTEXT
 70
1
  9
$LTSCALE
 40
1.0
  9
$ATTMODE
 70
1
  9
$TEXTSIZE
 40
2.5
  9
$TRACEWID
 40
1.0
  9
$TEXTSTYLE
  7
Standard
  9
$CLAYER
  8
0
  9
$CELTYPE
  6
ByLayer
  9
$CECOLOR
 62
256
  9
$CELTSCALE
 40
1.0
  9
$DISPSILH
 70
0
  9
$DIMSCALE
 40
1.0
  9
$DIMASZ
 40
2.5
  9
$DIMEXO
 40
0.625
  9
$DIMDLI
 40
3.75
  9
$DIMRND
 40
0.0
  9
$DIMDLE
 40
0.0
  9
$DIMEXE
 40
1.25
  9
$DIMTP
 40
0.0
  9
$DIMTM
 40
0.0
  9
$DIMTXT
 40
2.5
  9
$DIMCEN
 40
2.5
  9
$DIMTSZ
 40
0.0
  9
$DIMTOL
 70
0
  9
$DIMLIM
 70
0
  9
$DIMTIH
 70
0
  9
$DIMTOH
 70
0
  9
$DIMSE1
 70
0
  9
$DIMSE2
 70
0
  9
$DIMTAD
 70
1
  9
$DIMZIN
 70
8
  9
$DIMBLK
  1

  9
$DIMASO
 70
1
  9
$DIMSHO
 70
1
  9
$DIMPOST
  1

  9
$DIMAPOST
  1

  9
$DIMALT
 70
0
  9
$DIMALTD
 70
3
  9
$DIMALTF
 40
0.03937007874
  9
$DIMLFAC
 40
1.0
  9
$DIMTOFL
 70
1
  9
$DIMTVP
 40
0.0
  9
$DIMTIX
 70
0
  9
$DIMSOXD
 70
0
  9
$DIMSAH
 70
0
  9
$DIMBLK1
  1

  9
$DIMBLK2
  1

  9
$DIMSTYLE
  2
ISO-25
  9
$DIMCLRD
 70
0
  9
$DIMCLRE
 70
0
  9
$DIMCLRT
 70
0
  9
$DIMTFAC
 40
1.0
  9
$DIMGAP
 40
0.625
  9
$DIMJUST
 70
0
  9
$DIMSD1
 70
0
  9
$DIMSD2
 70
0
  9
$DIMTOLJ
 70
0
  9
$DIMTZIN
 70
8
  9
$DIMALTZ
 70
0
  9
$DIMALTTZ
 70
0
  9
$DIMUPT
 70
0
  9
$DIMDEC
 70
2
  9
$DIMTDEC
 70
2
  9
$DIMALTU
 70
2
  9
$DIMALTTD
 70
3
  9
$DIMTXSTY
  7
Standard
  9
$DIMAUNIT
 70
0
  9
$DIMADEC
 70
0
  9
$DIMALTRND
 40
0.0
  9
$DIMAZIN
 70
0
  9
$DIMDSEP
 70
44
  9
$DIMATFIT
 70
3
  9
$DIMFRAC
 70
0
  9
$DIMLDRBLK
  1

  9
$DIMLUNIT
 70
2
  9
$DIMLWD
 70
-2
  9
$DIMLWE
 70
-2
  9
$DIMTMOVE
 70
0
  9
$DIMFXL
 40
1.0
  9
$DIMFXLON
 70
0
  9
$DIMJOGANG
 40
0.785398163397
  9
$DIMTFILL
 70
0
  9
$DIMTFILLCLR
 70
0
  9
$DIMARCSYM
 70
0
  9
$DIMLTYPE
  6

  9
$DIMLTEX1
  6

  9
$DIMLTEX2
  6

  9
$DIMTXTDIRECTION
 70
0
  9
$LUNITS
 70
2
  9
$LUPREC
 70
4
  9
$SKETCHINC
 40
1.0
  9
$FILLETRAD
 40
10.0
  9
$AUNITS
 70
0
  9
$AUPREC
 70
2
  9
$MENU
  1
.
  9
$ELEVATION
 40
0.0
  9
$PELEVATION
 40
0.0
  9
$THICKNESS
 40
0.0
  9
$LIMCHECK
 70
0
  9
$CHAMFERA
 40
0.0
  9
$CHAMFERB
 40
0.0
  9
$CHAMFERC
 40
0.0
  9
$CHAMFERD
 40
0.0
  9
$SKPOLY
 70
0
  9
$TDCREATE
 40
2460249.542337963
  9
$TDUCREATE
 40
2458532.153996898
  9
$TDUPDATE
 40
2460249.542337963
  9
$TDUUPDATE
 40
2458532.1544311
  9
$TDINDWG
 40
0.0
  9
$TDUSRTIMER
 40
0.0
  9
$USRTIMER
 70
1
  9
$ANGBASE
 50
0.0
  9
$ANGDIR
 70
0
  9
$PDMODE
 70
0
  9
$PDSIZE
 40
0.0
  9
$PLINEWID
 40
0.0
  9
$SPLFRAME
 70
0
  9
$SPLINETYPE
 70
6
  9
$SPLINESEGS
 70
8
  9
$HANDSEED
  5
6E
  9
$SURFTAB1
 70
6
  9
$SURFTAB2
 70
6
  9
$SURFTYPE
 70
6
  9
$SURFU
 70
6
  9
$SURFV
 70
6
  9
$UCSBASE
  2

  9
$UCSNAME
  2

  9
$UCSORG
 10
0.0
 20
0.0
 30
0.0
  9
$UCSXDIR
 10
1.0
 20
0.0
 30
0.0
  9
$UCSYDIR
 10
0.0
 20
1.0
 30
0.0
  9
$UCSORTHOREF
  2

  9
$UCSORTHOVIEW
 70
0
  9
$UCSORGTOP
 10
0.0
 20
0.0
 30
0.0
  9
$UCSORGBOTTOM
 10
0.0
 20
0.0
 30
0.0
  9
$UCSORGLEFT
 10
0.0
 20
0.0
 30
0.0
  9
$UCSORGRIGHT
 10
0.0
 20
0.0
 30
0.0
  9
$UCSORGFRONT
 10
0.0
 20
0.0
 30
0.0
  9
$UCSORGBACK
 10
0.0
 20
0.0
 30
0.0
  9
$PUCSBASE
  2

  9
$PUCSNAME
  2

  9
$PUCSORG
 10
0.0
 20
0.0
 30
0.0
  9
$PUCSXDIR
 10
1.0
 20
0.0
 30
0.0
  9
$PUCSYDIR
 10
0.0
 20
1.0
 30
0.0
  9
$PUCSORTHOREF
  2

  9
$PUCSORTHOVIEW
 70
0
  9
$PUCSORGTOP
 10
0.0
 20
0.0
 30
0.0
  9
$PUCSORGBOTTOM
 10
0.0
 20
0.0
 30
0.0
  9
$PUCSORGLEFT
 10
0.0
 20
0.0
 30
0.0
  9
$PUCSORGRIGHT
 10
0.0
 20
0.0
 30
0.0
  9
$PUCSORGFRONT
 10
0.0
 20
0.0
 30
0.0
  9
$PUCSORGBACK
 10
0.0
 20
0.0
 30
0.0
  9
$USERI1
 70
0
  9
$USERI2
 70
0
  9
$USERI3
 70
0
  9
$USERI4
 70
0
  9
$USERI5
 70
0
  9
$USERR1
 40
0.0
  9
$USERR2
 40
0.0
  9
$USERR3
 40
0.0
  9
$USERR4
 40
0.0
  9
$USERR5
 40
0.0
  9
$WORLDVIEW
 70
1
  9
$SHADEDGE
 70
3
  9
$SHADEDIF
 70
70
  9
$TILEMODE
 70
1
  9
$MAXACTVP
 70
64
  9
$PINSBASE
 10
0.0
 20
0.0
 30
0.0
  9
$PLIMCHECK
 70
0
  9
$PEXTMIN
 10
1e+20
 20
1e+20
 30
1e+20
  9
$PEXTMAX
 10
-1e+20
 20
-1e+20
 30
-1e+20
  9
$PLIMMIN
 10
0.0
 20
0.0
  9
$PLIMMAX
 10
420.0
 20
297.0
  9
$UNITMODE
 70
0
  9
$VISRETAIN
 70
1
  9
$PLINEGEN
 70
0
  9
$PSLTSCALE
 70
1
  9
$TREEDEPTH
 70
3020
  9
$CMLSTYLE
  2
Standard
  9
$CMLJUST
 70
0
  9
$CMLSCALE
 40
20.0
  9
$PROXYGRAPHICS
 70
1
  9
$MEASUREMENT
 70
1
  9
$CELWEIGHT
370
-1
  9
$ENDCAPS
280
0
  9
$JOINSTYLE
280
0
  9
$LWDISPLAY
290
0
  9
$INSUNITS
 70
4
  9
$HYPERLINKBASE
  1

  9
$STYLESHEET
  1

  9
$XEDIT
290
1
  9
$CEPSNTYPE
380
0
  9
$PSTYLEMODE
290
1
  9
$FINGERPRINTGUID
  2
{496FB404-304E-40E2-8C40-139F501773A4}
  9
$VERSIONGUID
  2
{C09FEDF4-3E36-4D39-A242-0F4919B0AA0A}
  9
$EXTNAMES
290
1
  9
$PSVPSCALE
 40
0.0
  9
$OLESTARTUP
290
0
  9
$SORTENTS
280
127
  9
$INDEXCTL
280
0
  9
$HIDETEXT
280
1
  9
$XCLIPFRAME
280
0
  9
$HALOGAP
280
0
  9
$OBSCOLOR
 70
257
  9
$OBSLTYPE
280
0
  9
$INTERSECTIONDISPLAY
280
0
  9
$INTERSECTIONCOLOR
 70
257
  9
$DIMASSOC
280
2
  9
$PROJECTNAME
  1

  9
$CAMERADISPLAY
290
0
  9
$LENSLENGTH
 40
50.0
  9
$CAMERAHEIGHT
 40
0.0
  9
$STEPSPERSEC
 40
24.0
  9
$STEPSIZE
 40
100.0
  9
$3DDWFPREC
 40
2.0
  9
$PSOLWIDTH
 40
0.005
  9
$PSOLHEIGHT
 40
0.08
  9
$LOFTANG1
 40
1.570796326795
  9
$LOFTANG2
 40
1.570796326795
  9
$LOFTMAG1
 40
0.0
  9
$LOFTMAG2
 40
0.0
  9
$LOFTPARAM
 70
7
  9
$LOFTNORMALS
280
1
  9
$LATITUDE
 40
37.795
  9
$LONGITUDE
 40
-122.394
  9
$NORTHDIRECTION
 40
0.0
  9
$TIMEZONE
 70
-8000
  9
$LIGHTGLYPHDISPLAY
280
1
  9
$TILEMODELIGHTSYNCH
280
1
  9
$CMATERIAL
347
20
  9
$SOLIDHIST
280
0
  9
$SHOWHIST
280
1
  9
$DWFFRAME
280
2
  9
$DGNFRAME
280
2
  9
$REALWORLDSCALE
290
1
  9
$INTERFERECOLOR
 62
256
  9
$CSHADOW
280
0
  9
$SHADOWPLANELOCATION
 40
0.0
  0
ENDSEC
  0
SECTION
  2
CLASSES
  0
CLASS
  1
ACDBDICTIONARYWDFLT
  2
AcDbDictionaryWithDefault
  3
ObjectDBX Classes
 90
0
 91
0
280
0
281
0
  0
CLASS
  1
SUN
  2
AcDbSun
  3
SCENEOE
 90
1153
 91
0
280
0
281
0
  0
CLASS
  1
VISUALSTYLE
  2
AcDbVisualStyle
  3
ObjectDBX Classes
 90
4095
 91
0
280
0
281
0
  0
CLASS
  1
MATERIAL
  2
AcDbMaterial
  3
ObjectDBX Classes
 90
1153
 91
0
280
0
281
0
  0
CLASS
  1
SCALE
  2
AcDbScale
  3
ObjectDBX Classes
 90
1153
 91
0
280
0
281
0
  0
CLASS
  1
TABLESTYLE
  2
AcDbTableStyle
  3
ObjectDBX Classes
 90
4095
 91
0
280
0
281
0
  0
CLASS
  1
MLEADERSTYLE
  2
AcDbMLeaderStyle
  3
ACDB_MLEADERSTYLE_CLASS
 90
4095
 91
0
280
0
281
0
  0
CLASS
  1
DICTIONARYVAR
  2
AcDbDictionaryVar
  3
ObjectDBX Classes
 90
0
 91
0
280
0
281
0
  0
CLASS
  1
CELLSTYLEMAP
  2
AcDbCellStyleMap
  3
ObjectDBX Classes
 90
1152
 91
0
280
0
281
0
  0
CLASS
  1
MENTALRAYRENDERSETTINGS
  2
AcDbMentalRayRenderSettings
  3
SCENEOE
 90
1024
 91
0
280
0
281
0
  0
CLASS
  1
ACDBDETAILVIEWSTYLE
  2
AcDbDetailViewStyle
  3
ObjectDBX Classes
 90
1025
 91
0
280
0
281
0
  0
CLASS
  1
ACDBSECTIONVIEWSTYLE
  2
AcDbSectionViewStyle
  3
ObjectDBX Classes
 90
1025
 91
0
280
0
281
0
  0
CLASS
  1
RASTERVARIABLES
  2
AcDbRasterVariables
  3
ISM
 90
0
 91
0
280
0
281
0
  0
CLASS
  1
LAYOUT
  2
AcDbLayout
  3
ObjectDBX Classes
 90
0
 91
0
280
0
281
0
  0
CLASS
  1
ACDBPLACEHOLDER
  2
AcDbPlaceHolder
  3
ObjectDBX Classes
 90
0
 91
0
280
0
281
0
  0
ENDSEC
  0
SECTION
  2
TABLES
  0
TABLE
  2
VPORT
  5
8
330
0
100
AcDbSymbolTable
 70
1
  0
VPORT
  5
23
330
8
100
AcDbSymbolTableRecord
100
AcDbViewportTableRecord
  2
*Active
 70
0
 10
0.0
 20
0.0
 11
1.0
 21
1.0
 12
0.0
 22
0.0
 13
0.0
 23
0.0
 14
0.5
 24
0.5
 15
0.5
 25
0.5
 16
0.0
 26
0.0
 36
1.0
 17
0.0
 27
0.0
 37
0.0
 40
1000.0
 41
1.34
 42
50.0
 43
0.0
 44
0.0
 50
0.0
 51
0.0
 71
0
 72
1000
 73
1
 74
3
 75
0
 76
0
 77
0
 78
0
281
0
 65
0
146
0.0
  0
ENDTAB
  0
TABLE
  2
LTYPE
  5
2
330
0
100
AcDbSymbolTable
 70
3
  0
LTYPE
  5
24
330
2
100
AcDbSymbolTableRecord
100
AcDbLinetypeTableRecord
  2
ByBlock
 70
0
  3

 72
65
 73
0
 40
0.0
  0
LTYPE
  5
25
330
2
100
AcDbSymbolTableRecord
100
AcDbLinetypeTableRecord
  2
ByLayer
 70
0
  3

 72
65
 73
0
 40
0.0
  0
LTYPE
  5
26
330
2
100
AcDbSymbolTableRecord
100
AcDbLinetypeTableRecord
  2
Continuous
 70
0
  3

 72
65
 73
0
 40
0.0
  0
ENDTAB
  0
TABLE
  2
LAYER
  5
1
330
0
100
AcDbSymbolTable
 70
2
  0
LAYER
  5
27
330
1
100
AcDbSymbolTableRecord
100
AcDbLayerTableRecord
  2
0
 70
0
 62
7
  6
Continuous
370
-3
390
13
347
21
  0
LAYER
  5
28
330
1
100
AcDbSymbolTableRecord
100
AcDbLayerTableRecord
  2
Defpoints
 70
0
 62
7
  6
Continuous
290
0
370
-3
390
13
347
21
  0
ENDTAB
  0
TABLE
  2
STYLE
  5
5
330
0
100
AcDbSymbolTable
 70
1
  0
STYLE
  5
29
330
5
100
AcDbSymbolTableRecord
100
AcDbTextStyleTableRecord
  2
Standard
 70
0
 40
0.0
 41
1.0
 50
0.0
 71
0
 42
2.5
  3
txt
  4

  0
ENDTAB
  0
TABLE
  2
VIEW
  5
7
330
0
100
AcDbSymbolTable
 70
0
  0
ENDTAB
  0
TABLE
  2
UCS
  5
6
330
0
100
AcDbSymbolTable
 70
0
  0
ENDTAB
  0
TABLE
  2
APPID
  5
3
330
0
100
AcDbSymbolTable
 70
3
  0
APPID
  5
2A
330
3
100
AcDbSymbolTableRecord
100
AcDbRegAppTableRecord
  2
ACAD
 70
0
  0
APPID
  5
6B
330
3
100
AcDbSymbolTableRecord
100
AcDbRegAppTableRecord
  2
HATCHBACKGROUNDCOLOR
 70
0
  0
APPID
  5
6C
330
3
100
AcDbSymbolTableRecord
100
AcDbRegAppTableRecord
  2
EZDXF
 70
0
  0
ENDTAB
  0
TABLE
  2
DIMSTYLE
  5
4
330
0
100
AcDbSymbolTable
 70
1
100
AcDbDimStyleTable
  0
DIMSTYLE
105
2B
330
4
100
AcDbSymbolTableRecord
100
AcDbDimStyleTableRecord
  2
Standard
 70
0
 40
1.0
 41
2.5
 42
0.625
 43
3.75
 44
1.25
 45
0.0
 46
0.0
 47
0.0
 48
0.0
 49
2.5
140
2.5
141
2.5
142
0.0
143
0.03937007874
144
1.0
145
0.0
146
1.0
147
0.625
148
0.0
 69
0
 70
0
 71
0
 72
0
 73
0
 74
0
 75
0
 76
0
 77
1
 78
8
 79
3
170
0
171
3
172
1
173
0
174
0
175
0
176
0
177
0
178
0
179
2
271
2
272
2
273
2
274
3
275
0
276
0
277
2
278
44
279
0
280
0
281
0
282
0
283
0
284
8
285
0
286
0
288
0
289
3
290
0
371
-2
372
-2
  0
ENDTAB
  0
TABLE
  2
BLOCK_RECORD
  5
9
330
0
100
AcDbSymbolTable
 70
2
  0
BLOCK_RECORD
  5
17
330
9
100
AcDbSymbolTableRecord
100
AcDbBlockTableRecord
  2
*Model_Space
340
1A
 70
0
280
1
281
0
  0
BLOCK_RECORD
  5
1B
330
9
100
AcDbSymbolTableRecord
100
AcDbBlockTableRecord
  2
*Paper_Space
340
1E
 70
0
280
1
281
0
  0
ENDTAB
  0
ENDSEC
  0
SECTION
  2
BLOCKS
  0
BLOCK
  5
18
330
17
100
AcDbEntity
  8
0
100
AcDbBlockBegin
  2
*Model_Space
 70
0
 10
0.0
 20
0.0
 30
0.0
  3
*Model_Space
  1

  0
ENDBLK
  5
19
330
17
100
AcDbEntity
  8
0
100
AcDbBlockEnd
  0
BLOCK
  5
1C
330
1B
100
AcDbEntity
  8
0
100
AcDbBlockBegin
  2
*Paper_Space
 70
0
 10
0.0
 20
0.0
 30
0.0
  3
*Paper_Space
  1

  0
ENDBLK
  5
1D
330
1B
100
AcDbEntity
  8
0
100
AcDbBlockEnd
  0
ENDSEC
  0
SECTION
  2
ENTITIES
  0
LWPOLYLINE
  5
2F
330
17
100
AcDbEntity
  8
default
100
AcDbPolyline
 90
1193
 70
0
 10
-12.0
 20
70.0
 10
-12.0
 20
73.16174742624004
 10
-12.0
 20
80.0
 10
-12.0
 20
80.35089605880827
 10
-12.0
 20
86.00778126676506
 10
-12.0
 20
90.0
 10
-5.0
 20
90.0
 10
-0.3184877024356163
 20
90.0
 10
0.0
 20
90.0
 10
0.0
 20
97.4289723381653
 10
0.0
 20
106.79289138208026
 10
0.0
 20
110.86103169005526
 10
0.0
 20
120.0
 10
-5.0
 20
120.0
 10
-5.0
 20
111.7878589109433
 10
-5.0
 20
110.0
 10
-12.0
 20
110.0
 10
-12.0
 20
110.52904844334286
 10
-12.0
 20
119.90991934336562
 10
-12.0
 20
120.0
 10
-12.0
 20
130.0
 10
-11.805574186643506
 20
130.0
 10
-5.0
 20
130.0
 10
0.0
 20
130.0
 10
0.0
 20
135.26987353845402
 10
0.0
 20
139.33801384660308
 10
0.0
 20
150.81265790596828
 10
0.0
 20
154.8901141397601
 10
0.0
 20
166.16666666666669
 10
0.07438548480000001
 20
166.50081164280834
 10
0.2589478485333333
 20
167.05730143054168
 10
0.40771881813333344
 20
167.6093652361251
 10
0.5922811818666669
 20
168.1658550238584
 10
0.7410521514666668
 20
168.83414497614172
 10
0.9256145152000002
 20
169.39063476387506
 10
1.0743854848
 20
169.94269856945832
 10
1.2589478485333336
 20
170.4991883571858
 10
1.4077188181333338
 20
171.1674783089942
 10
1.5922811818666671
 20
171.72396807389356
 10
1.741052151466667
 20
172.2760311580692
 10
1.9256145152000004
 20
172.83250528576033
 10
1.965684837770011
 20
173.01244028518056
 10
1.9656848377700114
 20
173.01244028518056
 10
2.0743854847999996
 20
173.50055841365696
 10
2.2589478485333343
 20
174.0545787361793
 10
2.407718818133334
 20
174.58955920891196
 10
2.5922811818666673
 20
175.07414865993246
 10
2.741052151466667
 20
175.59251800624753
 10
2.9256145152000004
 20
176.07710743443988
 10
3.0743854848000014
 20
176.6120871857649
 10
3.2589478485333343
 20
177.1660918482392
 10
3.4077188181333344
 20
177.8339081512742
 10
3.5922811818666682
 20
178.38791279092624
 10
3.7410521514666675
 20
178.92289182131842
 10
3.925614515200001
 20
179.40746561229673
 10
4.0743854848
 20
179.9255988551579
 10
4.2589478485333325
 20
180.4077344781755
 10
4.407718818133333
 20
180.92586772103664
 10
4.592281181866667
 20
181.41044151201493
 10
4.7410521514666675
 20
181.94542054240713
 10
4.757563497343698
 20
181.99498298860496
 10
4.757563497343694
 20
181.99498298860496
 10
4.925614515200001
 20
182.49942518205336
 10
5.0743854848
 20
183.1672414846134
 10
5.258947848533334
 20
183.72124612425372
 10
5.407718818133334
 20
184.25622515417098
 10
5.592281181866669
 20
184.7407989223153
 10
5.741052151466668
 20
185.2589314437687
 10
5.925614515200002
 20
185.74105140674416
 10
6.074385484800004
 20
186.25894782521857
 10
6.258947848533336
 20
186.74105215098592
 10
6.407718818133336
 20
187.25894784852753
 10
6.592281181866668
 20
187.74105215146668
 10
6.741052151466668
 20
188.25894784853338
 10
6.925614515200001
 20
188.74105215146668
 10
7.0743854848000005
 20
189.25894784853338
 10
7.258947848533334
 20
189.7410521514667
 10
7.407718818133334
 20
190.25894784853335
 10
7.59228118186667
 20
190.7410521514667
 10
7.74105215146667
 20
191.2589478485334
 10
7.925614515200003
 20
191.74105215146673
 10
8.074385484800004
 20
192.25894784853344
 10
8.258947848533337
 20
192.74105215146676
 10
8.407718818133336
 20
193.2589478485334
 10
8.59228118186667
 20
193.7410521514667
 10
8.741052151466668
 20
194.25894784853338
 10
8.871452208681106
 20
194.5995721633404
 10
8.925614515199998
 20
194.7410521514667
 10
9.074385484799999
 20
195.25894784853338
 10
9.258947848533332
 20
195.74105215146085
 10
9.40771881813333
 20
196.2589478480526
 10
9.592281181866664
 20
196.74105212815198
 10
9.741052151466663
 20
197.2589471038109
 10
9.925614515199998
 20
197.741035746702
 10
10.074385484800004
 20
198.25869461938194
 10
10.258947848533339
 20
198.73832945710433
 10
10.354599697267986
 20
199.06032526472214
 10
10.354599697267988
 20
199.06032526472214
 10
10.40771881813334
 20
199.2391418213204
 10
10.592281181866673
 20
199.64934578754674
 10
10.741052151466672
 20
200.01732087912004
 10
10.925614515200008
 20
200.4275248453463
 10
11.074385484800008
 20
200.92833720956241
 10
11.25894784853334
 20
201.40797204728483
 10
11.40771881813334
 20
201.92563091996473
 10
11.592281181866673
 20
202.40771956285005
 10
11.741052151466672
 20
202.9256145380341
 10
11.925614515200005
 20
203.4077187952994
 10
12.074385484800004
 20
203.92561377048338
 10
12.258947848533337
 20
204.40770241336872
 10
12.407718818133336
 20
204.92536128604866
 10
12.59228118186667
 20
205.404996123771
 10
12.741052151466668
 20
205.9058084879871
 10
12.925614515200001
 20
206.31601245420754
 10
13.0743854848
 20
206.6839875453059
 10
13.258947848533333
 20
207.09419148869824
 10
13.407718818133333
 20
207.59500313150653
 10
13.592281181866666
 20
208.0746223091868
 10
13.741052151466667
 20
208.59204435747998
 10
13.9256145152
 20
209.07166353516018
 10
14.0743854848
 20
209.5724751779685
 10
14.257397998734833
 20
209.97923446185808
 10
14.25739799873483
 20
209.97923446185808
 10
14.258947848533332
 20
209.98267912135498
 10
14.407718818133333
 20
210.35065421197845
 10
14.592281181866666
 20
210.7608581553649
 10
14.74105215146667
 20
211.26166979817324
 10
14.925614515200007
 20
211.7412889758476
 10
15.074385484800004
 20
212.2587110236659
 10
15.258947848533339
 20
212.73833017851211
 10
15.40771881813334
 20
213.23914109991273
 10
15.592281181866673
 20
213.64932938326282
 10
15.741052151466672
 20
214.01706764997448
 10
15.925614515200008
 20
214.4248021509781
 10
16.074385484800008
 20
214.90853118186863
 10
16.25894784853334
 20
215.31626566005005
 10
16.40771881813334
 20
215.68400320582884
 10
16.59228118186667
 20
216.09417585196496
 10
16.741052151466675
 20
216.59475066991163
 10
16.92561451520001
 20
217.07191599675514
 10
17.074385484800008
 20
217.57249081470184
 10
17.258947848533335
 20
217.98266346083204
 10
17.40771881813334
 20
218.35040100613594
 10
17.592281181866674
 20
218.75813546148333
 10
17.741052151466672
 20
219.24186377096615
 10
17.92561451520001
 20
219.64958261193345
 10
18.074385484800004
 20
220.0170840547333
 10
18.25894784853334
 20
220.42480289570062
 10
18.407718818133343
 20
220.90853120518346
 10
18.592281181866678
 20
221.31626566053083
 10
18.741052151466675
 20
221.68400320583476
 10
18.925614515200007
 20
222.094175851965
 10
19.074385484800008
 20
222.59475066991158
 10
19.258947848533342
 20
223.07191599674923
 10
19.40771881813334
 20
223.57249081422106
 10
19.592281181866674
 20
223.98266343752312
 10
19.741052151466675
 20
224.3504002618942
 10
19.925614515200007
 20
224.75811908002748
 10
20.074385484800008
 20
225.24161128605644
 10
20.25894784853334
 20
225.646876299021
 10
20.40771881813334
 20
225.99753051194918
 10
20.59228118186667
 20
226.33580282137825
 10
20.741052151466672
 20
226.68645703383163
 10
20.925614515200003
 20
227.0917220239681
 10
21.074385484800004
 20
227.57521350906418
 10
21.258947848533335
 20
227.98291668998345
 10
21.407718818133336
 20
228.35041741090063
 10
21.592281181866667
 20
228.75813620620585
 10
21.74105215146667
 20
229.2418637942809
 10
21.925614515200003
 20
229.64958261240838
 10
22.0743854848
 20
230.01708405425833
 10
22.258947848533335
 20
230.42480287238584
 10
22.407718818133336
 20
230.90853046046095
 10
22.592281181866674
 20
231.31624925576617
 10
22.741052151466675
 20
231.68374997668337
 10
22.92561451520001
 20
232.0914531576026
 10
23.074385484800004
 20
232.57494464269865
 10
23.25894784853334
 20
232.98020963282926
 10
23.407718818133343
 20
233.3308638448077
 10
23.592281181866678
 20
233.66913613140272
 10
23.741052151466675
 20
234.01978962292324
 10
23.925614515200007
 20
234.4250389758456
 10
24.07438548480001
 20
234.90829435748782
 10
24.258947848533342
 20
235.31354371040436
 10
24.407718818133343
 20
235.66419720144992
 10
24.592281181866678
 20
236.00246946521682
 10
24.741052151466675
 20
236.3531229562624
 10
24.92561451520001
 20
236.75837230917898
 10
25.074385484800008
 20
237.24162769082113
 10
25.258947848533342
 20
237.64687704373767
 10
25.407718818133343
 20
237.99753053478327
 10
25.592281181866674
 20
238.33580279855013
 10
25.741052151466672
 20
238.6864562895958
 10
25.925614515200007
 20
239.09170564251232
 10
26.074385484800008
 20
239.57496102415445
 10
26.25894784853334
 20
239.980210377071
 10
26.407718818133336
 20
240.33086386811658
 10
26.59228118186667
 20
240.6691361318835
 10
26.616645879357545
 20
240.72656377557243
 10
26.741052151466672
 20
241.0197896229291
 10
26.925614515200003
 20
241.42503897584567
 10
27.0743854848
 20
241.90829435748782
 10
27.258947848533335
 20
242.31354371040436
 10
27.407718818133336
 20
242.66419720144992
 10
27.592281181866674
 20
243.00246946521094
 10
27.741052151466675
 20
243.35312295578166
 10
27.92561451520001
 20
243.75837228587005
 10
28.074385484800004
 20
244.24162694657943
 10
28.258947848533342
 20
244.64686066228774
 10
28.407718818133343
 20
244.9972780503543
 10
28.592281181866678
 20
245.33309650894662
 10
28.592748333235757
 20
245.33414468648502
 10
28.592748333235765
 20
245.33414468648502
 10
28.74105215146668
 20
245.66690349105343
 10
28.925614515200007
 20
246.00272194963992
 10
29.07438548480001
 20
246.3531393372315
 10
29.258947848533342
 20
246.75837303011176
 10
29.407718818133343
 20
247.24162696988833
 10
29.592281181866678
 20
247.64686066276857
 10
29.741052151466675
 20
247.9972780503602
 10
29.92561451520001
 20
248.33309650894665
 10
30.074385484800008
 20
248.6669034910534
 10
30.258947848533342
 20
249.00272194963986
 10
30.407718818133343
 20
249.3531393372316
 10
30.592281181866674
 20
249.75837303011176
 10
30.741052151466672
 20
250.2416269698884
 10
30.925614515200007
 20
250.64686066276855
 10
31.074385484800008
 20
250.99727805036017
 10
31.25894784853334
 20
251.33309650894668
 10
31.407718818133336
 20
251.66690349105346
 10
31.59228118186667
 20
252.00272194963992
 10
31.741052151466672
 20
252.3531393372316
 10
31.925614515200003
 20
252.75837303010593
 10
32.0743854848
 20
253.24162696940752
 10
32.258947848533346
 20
253.64686063945965
 10
32.40771881813334
 20
253.9972773061185
 10
32.45988483874713
 20
254.09219100654929
 10
32.45988483874712
 20
254.09219100654929
 10
32.59228118186667
 20
254.33308012749674
 10
32.74105215146666
 20
254.66665100662448
 10
32.9256145152
 20
255.0000156600422
 10
33.074385484800004
 20
255.33358653916997
 10
33.25894784853333
 20
255.66938936054825
 10
33.40771881813334
 20
256.0198060272071
 10
33.59228118186668
 20
256.4250396972532
 10
33.74105215146667
 20
256.90829363608
 10
33.925614515199996
 20
257.3135273061204
 10
34.074385484800004
 20
257.6639439723043
 10
34.258947848533346
 20
257.99974677084856
 10
34.40771881813334
 20
258.33331692856865
 10
34.59228118186666
 20
258.6666659219442
 10
34.74105215146667
 20
258.9999999766852
 10
34.92561451520001
 20
259.3333333328584
 10
35.074385484800004
 20
259.6666666671416
 10
35.25894784853333
 20
260.0000000233147
 10
35.40771881813335
 20
260.3333340780558
 10
35.59228118186668
 20
260.6666830714314
 10
35.74105215146668
 20
261.0002532291515
 10
35.92561451520001
 20
261.3360560276958
 10
36.07438548480002
 20
261.6864726938797
 10
36.25894784853334
 20
262.0917063639201
 10
36.40771881813335
 20
262.5749603027467
 10
36.592281181866674
 20
262.9801939727871
 10
36.74105215146667
 20
263.33061063897105
 10
36.92561451520002
 20
263.6664134375152
 10
37.07438548480001
 20
263.9999835952353
 10
37.25894784853334
 20
264.3333325886108
 10
37.40771881813335
 20
264.6666666433519
 10
37.59228118186667
 20
264.99999999951916
 10
37.741052151466675
 20
265.33333333332746
 10
37.92561451520001
 20
265.66666666666663
 10
38.074385484800004
 20
266.0
 10
38.25894784853335
 20
266.3333333333333
 10
38.40771881813335
 20
266.6666666666667
 10
38.59228118186667
 20
267.0
 10
38.70852111592737
 20
267.26044492948506
 10
38.708521115927375
 20
267.26044492948506
 10
38.741052151466675
 20
267.3333333333333
 10
38.92561451520001
 20
267.6666666666667
 10
39.074385484800004
 20
268.0
 10
39.25894784853335
 20
268.3333333333333
 10
39.40771881813334
 20
268.6666666666667
 10
39.59228118186668
 20
269.0
 10
39.741052151466675
 20
269.3333333333333
 10
39.9256145152
 20
269.6666666666667
 10
40.07438548480002
 20
270.0
 10
40.25894784853334
 20
270.3333333333333
 10
40.40771881813334
 20
270.6666666666667
 10
40.59228118186668
 20
271.0
 10
40.74105215146668
 20
271.3333333333333
 10
40.92561451520001
 20
271.6666666666667
 10
41.07438548480002
 20
272.0
 10
41.25894784853334
 20
272.3333333333333
 10
41.40771881813335
 20
272.6666666666667
 10
41.592281181866674
 20
273.0
 10
41.74105215146667
 20
273.3333333333333
 10
41.92561451520002
 20
273.6666666666667
 10
42.07438548480001
 20
274.0
 10
42.25894784853334
 20
274.3333333333333
 10
42.40771881813335
 20
274.6666666666667
 10
42.59228118186667
 20
275.0
 10
42.741052151466675
 20
275.3333333333333
 10
42.92561451520001
 20
275.6666666666667
 10
43.074385484800004
 20
276.0
 10
43.25894784853339
 20
276.33333333333337
 10
43.40771881813924
 20
276.6666666666726
 10
43.59228118234749
 20
277.00000000048084
 10
43.74105217478147
 20
277.33333335664815
 10
43.92561525992254
 20
277.6666674113892
 10
44.07440188956472
 20
278.0000164047648
 10
44.25920107768477
 20
278.3335865624848
 10
44.410441512495716
 20
278.66938936102906
 10
44.61208720907963
 20
279.01980602721295
 10
44.83275851538666
 20
279.4250396972534
 10
45.16724148461336
 20
279.9082936360801
 10
45.3879127909204
 20
280.3135273061205
 10
45.58955848750432
 20
280.66394397230437
 10
45.74079892231526
 20
280.99974677084856
 10
45.9255981104353
 20
281.33331692856865
 10
46.074384740077484
 20
281.6666659219442
 10
46.258947825218534
 20
281.9999999766852
 10
46.40771881765251
 20
282.3333333328525
 10
46.59228118186078
 20
282.66666666666083
 10
46.74105215146664
 20
283.0
 10
46.84079797040316
 20
283.1801483554914
 10
46.92561451520002
 20
283.3333333333333
 10
47.07438548480001
 20
283.6666666666667
 10
47.25894784853334
 20
284.0
 10
47.40771881813335
 20
284.3333333333333
 10
47.5922811818667
 20
284.66666666666674
 10
47.741052151472566
 20
285.0000000000059
 10
47.92561451568084
 20
285.33333333381427
 10
48.07438550811484
 20
285.6666666899815
 10
48.25894859325589
 20
286.00000074472257
 10
48.40773522289807
 20
286.3333497380981
 10
48.59253441101811
 20
286.6669198958182
 10
48.74377484582905
 20
287.0027226943625
 10
48.945420542412975
 20
287.35313936054644
 10
49.16609184872001
 20
287.75837303058677
 10
49.50057481794671
 20
288.24162696941346
 10
49.72124612425961
 20
288.6468606394597
 10
49.922891821318466
 20
288.9972773061186
 10
50.07413227896339
 20
289.3330801274968
 10
50.25893218849117
 20
289.66665100662453
 10
50.40773447817555
 20
290.0000156600422
 10
50.592534387703324
 20
290.33358653917014
 10
50.743774845348234
 20
290.6693893605484
 10
50.861031077021615
 20
290.87315536422346
 10
50.86103107702162
 20
290.87315536422346
 10
50.94542054240713
 20
291.01980602720727
 10
51.16609184872588
 20
291.42503969725925
 10
51.500574818427516
 20
291.9082936365609
 10
51.72124614756853
 20
292.31352732943526
 10
51.92289256556018
 20
292.6639447170269
 10
52.0741486604133
 20
292.99976317561334
 10
52.25918467292007
 20
293.33357015772015
 10
52.4104407677732
 20
293.66938861630655
 10
52.612087185764864
 20
294.01980600389817
 10
52.832758514911745
 20
294.42503969677836
 10
53.1672414850883
 20
294.908293636555
 10
53.387912814235165
 20
295.3135273294353
 10
53.58955923222683
 20
295.6639447170269
 10
53.74081532707996
 20
295.9997631756133
 10
53.92585133958675
 20
296.33357015772015
 10
54.07710743444574
 20
296.6693886163124
 10
54.27875385291233
 20
297.019806004379
 10
54.499425204887324
 20
297.42503972008734
 10
54.83390889599667
 20
297.90829438079663
 10
55.054595862351746
 20
298.31354371088514
 10
55.256478383322445
 20
298.6641972014558
 10
55.410188283350195
 20
299.0024694652169
 10
55.612070804795756
 20
299.35312295626255
 10
55.832757793978956
 20
299.75837230917915
 10
56.16724220602108
 20
300.2416276908211
 10
56.38792919520428
 20
300.6468770437377
 10
56.419539135182255
 20
300.70178093400835
 10
56.41953913518225
 20
300.70178093400835
 10
56.58981171664988
 20
300.9975305347833
 10
56.74352161668349
 20
301.3358027985502
 10
56.94540413812909
 20
301.68645628959587
 10
57.16609112731229
 20
302.09170564251247
 10
57.50057553935446
 20
302.57496102415456
 10
57.72126252854349
 20
302.9802103770769
 10
57.923145050464
 20
303.3308638685974
 10
58.07685497332573
 20
303.6691361551924
 10
58.278738215704124
 20
304.0197903671708
 10
58.49944084209553
 20
304.4250553572955
 10
58.834161357116685
 20
304.90854684191675
 10
59.0573021514745
 20
305.3162500000079
 10
59.27603118185888
 20
305.68374999999224
 10
59.499171976216694
 20
306.09145315808337
 10
59.83389249123788
 20
306.5749446427045
 10
60.05459511763514
 20
306.98020963283517
 10
60.25647836048843
 20
307.33086384528843
 10
60.41018830617827
 20
307.6691361547116
 10
60.61207154903157
 20
308.01979036716494
 10
60.83277417542884
 20
308.42505535729566
 10
61.16749469045002
 20
308.9085468419168
 10
61.39063548480783
 20
309.31625000000787
 10
61.6093645151922
 20
309.68374999999236
 10
61.832505309550015
 20
310.09145315808354
 10
62.16722582457121
 20
310.5749446427047
 10
62.387928450968474
 20
310.9802096328353
 10
62.58981169382176
 20
311.3308638452885
 10
62.7435216395116
 20
311.6691361547117
 10
62.94540488236492
 20
312.01979036716494
 10
63.16610750876805
 20
312.4250553573014
 10
63.500828024264145
 20
312.9085468423975
 10
63.72396884145008
 20
313.3162500233168
 10
63.942698592767265
 20
313.6837507442341
 10
64.16585502433915
 20
314.09146953953933
 10
64.30800497191771
 20
314.2967553810319
 10
64.50081164281424
 20
314.5751971276144
 10
64.72396809720837
 20
314.9829159457418
 10
64.94269856945834
 20
315.3504173875918
 10
65.16585502385834
 20
315.75813620572507
 10
65.50081164280837
 20
316.24186379427516
 10
65.72396809721423
 20
316.6495826124143
 10
65.94269856993913
 20
317.01708405473914
 10
66.16585504716726
 20
317.4248028957007
 10
66.50081238705008
 20
317.90853120518346
 10
66.60953049476126
 20
318.1071587222418
 10
66.72398447866414
 20
318.3162656605309
 10
66.94295105436808
 20
318.68400320583487
 10
67.16856133677081
 20
319.094175851971
 10
67.52036518559241
 20
319.59475067039244
 10
67.81296817153068
 20
320.0719160200641
 10
68.16477274081016
 20
320.5724915589437
 10
68.39039866042108
 20
320.9826798422878
 10
68.60960133957894
 20
321.3506534910456
 10
68.83522725919575
 20
321.76084177439583
 10
69.18703182895015
 20
322.2614173137502
 10
69.47963483772243
 20
322.7385826862559
 10
69.83143940795175
 20
323.2391582260852
 10
70.05706535039666
 20
323.64934653226334
 10
70.27626875048733
 20
324.017320901954
 10
70.50191030731231
 20
324.4275248225124
 10
70.85395098004575
 20
324.92833646484587
 10
71.14900779398677
 20
325.4079556425202
 10
71.51765887267997
 20
325.9253776908134
 10
71.81271568662686
 20
326.4049968684935
 10
72.16475635983521
 20
326.9058085113019
 10
72.39039793949419
 20
327.3160124546942
 10
72.47565948634492
 20
327.4591398979883
 10
72.60960206099256
 20
327.6839875457926
 10
72.83524366347967
 20
328.0941915120129
 10
73.18728505809572
 20
328.5950038762291
 10
73.48235753208479
 20
329.0746387139515
 10
73.85124543516471
 20
329.59229758663145
 10
74.14877171431667
 20
330.0743862295168
 10
74.51789571990066
 20
330.59228120470084
 10
74.81543761343269
 20
331.0743854619662
 10
75.18456161901672
 20
331.5922804371502
 10
75.48208789816867
 20
332.07436908003535
 10
75.5724273918304
 20
332.20114211882833
 10
75.57242739183043
 20
332.20114211882833
 10
75.85097580124858
 20
332.5920279527153
 10
76.14604827523765
 20
333.07166279043764
 10
76.49808966985371
 20
333.5724751546538
 10
76.72373127234668
 20
333.9826791208801
 10
76.94293539432
 20
334.3506542124535
 10
77.16857699681299
 20
334.76085817867977
 10
77.52061839142907
 20
335.2616705428958
 10
77.81569086541812
 20
335.7413053806182
 10
78.18457876849807
 20
336.2589642532982
 10
78.48210504765588
 20
336.74105289618933
 10
78.85122905371485
 20
337.25894787184825
 10
79.14877097008086
 20
337.74105215194766
 10
79.51789569707257
 20
338.2589478485394
 10
79.81543763626672
 20
338.7410521514667
 10
80.18456236373338
 20
339.25894784853347
 10
80.48210430293923
 20
339.7410521514727
 10
80.85122903088084
 20
340.2589478490142
 10
81.14877099291483
 20
340.7410521747816
 10
81.51789644178922
 20
341.2589485932559
 10
81.81545404103139
 20
341.7410685562314
 10
82.18481559288476
 20
342.25920107768496
 10
82.4848269972957
 20
342.7437748458292
 10
82.87103505761296
 20
343.2787538757464
 10
83.24047733351999
 20
343.83275851538673
 10
83.75952266648007
 20
344.5005748179468
 10
84.12896494239295
 20
345.05457945759304
 10
84.2499288011202
 20
345.22213972995416
 10
93.33666595644043
 20
338.8225373851829
 10
97.3210718001345
 20
336.0164021857185
 10
97.93844058769447
 20
336.86882573639565
 10
98.55922692689447
 20
337.7411237300456
 10
99.16107448169447
 20
338.5914596304456
 10
99.78186082089448
 20
339.46375762404557
 10
100.43451277774447
 20
340.3648979264956
 10
101.04145290654446
 20
341.22334971009553
 10
101.59694680954446
 20
342.0273319906956
 10
102.12334778474447
 20
342.80524577629564
 10
102.67875350779448
 20
343.6091647089456
 10
103.28482148704448
 20
344.4670976404955
 10
103.9314000896445
 20
345.36564077909554
 10
104.5223277528945
 20
346.23219659134554
 10
105.02233959964448
 20
347.0983876875956
 10
105.41026396464449
 20
348.1330300463956
 10
105.7207319831945
 20
349.5638473358456
 10
106.00284065669449
 20
351.2636377590456
 10
106.32462428629448
 20
352.67366954614556
 10
106.75320624399446
 20
353.62515435004565
 10
107.36384941894447
 20
354.2591037140956
 10
108.21695103464448
 20
354.6629745533956
 10
109.40582432464447
 20
354.8775379477456
 10
110.79734073949447
 20
354.89521844964565
 10
111.95763099694449
 20
354.74897856794564
 10
112.77050583684448
 20
354.51525376409563
 10
113.41723432479449
 20
354.21144523284556
 10
114.08816222559447
 20
353.8105161047456
 10
114.88295095019448
 20
353.26341464954555
 10
115.80745802369448
 20
352.57246902914557
 10
116.75883334629448
 20
351.8017974442456
 10
117.5259085768945
 20
351.1076926851456
 10
118.08633422894448
 20
350.4595305770957
 10
118.53797140919448
 20
349.7619709895456
 10
118.87692203664449
 20
348.9609002900956
 10
119.07118355529447
 20
347.97428600474564
 10
119.06812493559447
 20
346.8619460718456
 10
118.85828208669447
 20
345.88832653834555
 10
118.46690176684447
 20
345.1336200087456
 10
117.8918481243945
 20
344.5523541247456
 10
117.13805864549448
 20
344.12975395609556
 10
116.16484220764451
 20
343.80840159489554
 10
115.05439024444449
 20
343.5233223370956
 10
114.0751003038445
 20
343.19771075369556
 10
113.29057674234448
 20
342.75731579439554
 10
112.60747839489447
 20
342.1330597828456
 10
111.95202174574449
 20
341.3430913485956
 10
111.2885552711445
 20
340.4631741811956
 10
110.6792517381945
 20
339.6086534523456
 10
110.1233959463445
 20
338.8051970204956
 10
109.59695008634449
 20
338.0273286976956
 10
109.04145305534449
 20
337.2233495610956
 10
108.43451278179448
 20
336.3648979224456
 10
107.78186082094449
 20
335.4637576239956
 10
107.1610744816945
 20
334.59145963044557
 10
106.5592269268945
 20
333.74112373004556
 10
105.9384405876945
 20
332.8688257364457
 10
105.28578863064448
 20
331.9676854337956
 10
104.67884848579448
 20
331.1092336346456
 10
104.55114748636181
 20
330.9244083794089
 10
104.82118369310425
 20
330.7342274253103
 10
113.9842123667667
 20
324.2808945311324
 10
118.23742352111104
 20
321.2854452724056
 10
118.05706460616086
 20
320.98267912136095
 10
117.83142302650187
 20
320.5724751779686
 10
117.47938235329352
 20
320.07166353516027
 10
117.18432553934663
 20
319.59204435748006
 10
116.81567446065344
 20
319.07462230918696
 10
116.52061764671245
 20
318.5950031315126
 10
116.168576973979
 20
318.094191489179
 10
115.94293541715402
 20
317.68398756862075
 10
115.72373201706336
 20
317.31601319893
 10
115.49810607461843
 20
316.9058248927518
 10
115.14630150438911
 20
316.4052493529225
 10
114.85369849561685
 20
315.9280839804169
 10
114.50189392586243
 20
315.4275084410625
 10
114.2762680062456
 20
315.0173201577123
 10
114.05706532708777
 20
314.64934650895447
 10
113.83143940747684
 20
314.23915822561014
 10
113.47963483819737
 20
313.73858268673064
 10
113.18703185225908
 20
313.26141733705913
 10
112.83522800343748
 20
312.76084251863756
 10
112.60961772102887
 20
312.35066987249564
 10
112.39065114485003
 20
311.9829323267168
 10
112.16747903040785
 20
311.5751978485413
 10
111.83252096959222
 20
311.0914688181257
 10
111.60934885515005
 20
310.68373433995015
 10
111.39038227897122
 20
310.3159967941714
 10
111.16477199656848
 20
309.9058241480353
 10
110.8129681482218
 20
309.40524933008857
 10
110.52036518511161
 20
308.92808400324503
 10
110.16856133676492
 20
308.42750918529845
 10
109.94295105436807
 20
308.0173365391681
 10
109.72398447866415
 20
307.64959899386423
 10
109.5008123870501
 20
307.24186453851684
 10
109.16585504716728
 20
306.75813622903405
 10
108.94269856993915
 20
306.3504173880725
 10
108.72396809721425
 20
305.98291594574766
 10
108.50081164280842
 20
305.57519712760853
 10
108.16585502385837
 20
305.09146953905844
 10
107.94269856945837
 20
304.68375072092516
 10
107.72396809720836
 20
304.3162492790751
 10
107.50081164280834
 20
303.90853046094173
 10
107.16585502385836
 20
303.42480287239175
 10
106.94269856945834
 20
303.01708405425836
 10
106.72396809720836
 20
302.64958261240844
 10
106.50081164280837
 20
302.2418637942751
 10
106.16585502385836
 20
301.75813620572507
 10
105.94269856945839
 20
301.3504173875917
 10
105.7239680972084
 20
300.98291594574175
 10
105.50081164280837
 20
300.5751971276085
 10
105.16585502385837
 20
300.09146953905844
 10
104.94269856945836
 20
299.68375072092516
 10
104.7239680972084
 20
299.3162492790752
 10
104.50081164281426
 20
298.90853046094765
 10
104.16585502433918
 20
298.4248028728726
 10
103.94269859276729
 20
298.0170840775673
 10
103.72396884145012
 20
297.64958335665017
 10
103.50082802426415
 20
297.2418801757309
 10
103.1661075087681
 20
296.75838869063483
 10
102.94540488237084
 20
296.3531237005043
 10
102.74352163999242
 20
296.00246948852583
 10
102.58981171713071
 20
295.6641972019308
 10
102.38792919521019
 20
295.3135437104103
 10
102.16724220602111
 20
294.90829435748793
 10
101.83275779397897
 20
294.42503897584567
 10
101.61207080479579
 20
294.0197896229291
 10
101.41018828335018
 20
293.66913613188353
 10
101.25647838331656
 20
293.33086386811664
 10
101.05459586187098
 20
292.98021037707105
 10
100.83390887268777
 20
292.5749610241545
 10
100.49942446064564
 20
292.09170564251247
 10
100.27873747146239
 20
291.68645628959587
 10
100.07685495001682
 20
291.3358027985502
 10
99.92314504998319
 20
290.9975305347833
 10
99.72126252853762
 20
290.6468770437377
 10
99.50057553935443
 20
290.2416276908211
 10
99.16609112731231
 20
289.75837230917915
 10
99.00387964347617
 20
289.460502012867
 10
99.00387964347618
 20
289.460502012867
 10
98.94540413812913
 20
289.35312295626255
 10
98.74352161668355
 20
289.0024694652169
 10
98.58981171665582
 20
288.6641972014558
 10
98.38792919568515
 20
288.31354371088514
 10
98.16724222933591
 20
287.9082943808026
 10
97.83275853870147
 20
287.4250397205681
 10
97.61208720955459
 20
287.01980602768793
 10
97.41044151202081
 20
286.66938936055413
 10
97.25920105437001
 20
286.33358653917
 10
97.0744011448422
 20
286.0000156600423
 10
96.93851756448345
 20
285.6955930414956
 10
96.92559885515783
 20
285.66665100662453
 10
96.74079894563006
 20
285.33308012749677
 10
96.58955848798514
 20
284.9972773061185
 10
96.3879127909263
 20
284.64686063945976
 10
96.16724148461341
 20
284.24162696941346
 10
95.83275851538667
 20
283.75837303058665
 10
95.61208720907376
 20
283.35313936054047
 10
95.41044151201488
 20
283.00272269388165
 10
95.25920105436997
 20
282.66691987250334
 10
95.07440114484223
 20
282.3333489933755
 10
94.92559885515783
 20
281.99998433995785
 10
94.74079894563006
 20
281.66641346083014
 10
94.58955848798516
 20
281.33061063945183
 10
94.38791279092628
 20
280.98019397279296
 10
94.16724148461338
 20
280.5749603027468
 10
93.8327585153867
 20
280.09170636392
 10
93.61208720907965
 20
279.6864726938796
 10
93.4104415124957
 20
279.33605602769563
 10
93.2592010776789
 20
279.0002532291456
 10
93.07440188908392
 20
278.6666830709506
 10
92.92561523660774
 20
278.33333405474104
 10
92.74105143005899
 20
277.9999992785923
 10
92.59226477758278
 20
277.6666502623828
 10
92.4074655889878
 20
277.33308010418784
 10
92.25622515417103
 20
276.99727730563774
 10
92.05457945758707
 20
276.6468606394538
 10
91.83390815128004
 20
276.24162696941335
 10
91.49942518205336
 20
275.75837303058665
 10
91.2787538757463
 20
275.3531393605463
 10
91.07710817916238
 20
275.00272269436243
 10
90.92586774435145
 20
274.6669198958181
 10
90.74106855623141
 20
274.33334973809804
 10
90.59228192658921
 20
274.00000074472257
 10
90.40771884144816
 20
273.6666666899815
 10
90.25894784901419
 20
273.33333333381415
 10
90.07438548480592
 20
273.0000000000059
 10
89.92561451520007
 20
272.66666666666674
 10
89.74105215146668
 20
272.3333333333333
 10
89.5922811818667
 20
272.0
 10
89.40771881813335
 20
271.6666666666667
 10
89.25894784853332
 20
271.3333333333333
 10
89.07438548480003
 20
271.0
 10
88.92561451520001
 20
270.6666666666667
 10
88.74105215146672
 20
270.3333333333333
 10
88.59228118186668
 20
270.0
 10
88.4077188181333
 20
269.66666666666663
 10
88.25894784852746
 20
269.33333333332746
 10
88.0743854843192
 20
268.99999999951916
 10
87.9256144918852
 20
268.6666666433519
 10
87.74105140674416
 20
268.3333325886108
 10
87.62233421533698
 20
268.0673526659046
 10
87.59226477710197
 20
267.99998359523534
 10
87.40746558898192
 20
267.66641343751525
 10
87.256225154171
 20
267.33061063897105
 10
87.05457945758707
 20
266.9801939727871
 10
86.83390815128004
 20
266.5749603027467
 10
86.49942518205336
 20
266.09170636392
 10
86.2787538757463
 20
265.6864726938797
 10
86.07710817916238
 20
265.33605602769575
 10
85.92586774435145
 20
265.00025322915144
 10
85.74106855623141
 20
264.6666830714314
 10
85.59228192658921
 20
264.3333340780558
 10
85.40771884144816
 20
264.0000000233089
 10
85.25894784901419
 20
263.6666666666667
 10
85.07438548480592
 20
263.3333333100244
 10
84.92561451520007
 20
262.9999992552775
 10
84.74105215146668
 20
262.666650261902
 10
84.5922811818667
 20
262.33308010418193
 10
84.40771881813335
 20
261.9972773056377
 10
84.25894784853332
 20
261.6468606394538
 10
84.07438548480003
 20
261.24162696941335
 10
83.92561451520001
 20
260.75837303058665
 10
83.74105215146672
 20
260.3531393605463
 10
83.59228118186668
 20
260.00272269436243
 10
83.40771881813335
 20
259.6669198958181
 10
83.25894784853334
 20
259.33334973809804
 10
83.07438548480002
 20
259.00000074472257
 10
82.92561451520002
 20
258.6666666899815
 10
82.74105215146668
 20
258.33333333381415
 10
82.5922811818667
 20
258.0000000000059
 10
82.40771881813333
 20
257.66666666666674
 10
82.25894784853337
 20
257.3333333333333
 10
82.07438548480002
 20
257.0
 10
81.92561451520002
 20
256.6666666666667
 10
81.74105215146669
 20
256.3333333333333
 10
81.59228118186667
 20
256.0
 10
81.40771881813338
 20
255.66666666666666
 10
81.25894784853335
 20
255.33333333333331
 10
81.07438548480003
 20
254.9999999999941
 10
80.98595267647937
 20
254.8018591738988
 10
80.9256145152
 20
254.66666666618588
 10
80.74105215146669
 20
254.33333331001853
 10
80.59228118186668
 20
253.99999925527752
 10
80.40771881813336
 20
253.66665026190202
 10
80.25894784853337
 20
253.33308010418193
 10
80.07438548480002
 20
252.9972773056377
 10
79.92561451520004
 20
252.6468606394538
 10
79.74105215146668
 20
252.2416269694134
 10
79.5922811818667
 20
251.7583730305867
 10
79.40771881813335
 20
251.35313936054632
 10
79.25894784853332
 20
251.00272269436246
 10
79.07438548480003
 20
250.66691989581815
 10
78.92561451520001
 20
250.33334973809804
 10
78.74105215146672
 20
250.00000074471666
 10
78.59228118186668
 20
249.66666668950066
 10
78.40771881813335
 20
249.33333331049937
 10
78.25894784853334
 20
248.9999992552834
 10
78.07438548480002
 20
248.66665026190205
 10
77.92561451520002
 20
248.33308010418193
 10
77.74105215146668
 20
247.9972773056377
 10
77.5922811818667
 20
247.6468606394538
 10
77.40771881813333
 20
247.2416269694134
 10
77.25894784853337
 20
246.75837303058668
 10
77.07438548480002
 20
246.35313936054044
 10
76.92561451520002
 20
246.0027226938816
 10
76.74105215146669
 20
245.6669198725033
 10
76.59228118186667
 20
245.33334899337552
 10
76.40771881813338
 20
244.99998433995785
 10
76.25894784853335
 20
244.66641346083009
 10
76.07438548480003
 20
244.3306106394519
 10
75.9256145152
 20
243.98019397279296
 10
75.74105215146669
 20
243.57496030274086
 10
75.59228118186668
 20
243.09170636343924
 10
75.40771881813336
 20
242.6864726705649
 10
75.25894784853337
 20
242.33605528297323
 10
75.07438548480002
 20
242.00023682438677
 10
74.92561451520004
 20
241.66642984228005
 10
74.74105215146668
 20
241.33061138369354
 10
74.72369508204844
 20
241.28972828036942
 10
74.5922811818667
 20
240.98019399610186
 10
74.40771881813335
 20
240.5749603032217
 10
74.25894784853332
 20
240.09170636344507
 10
74.07438548480003
 20
239.6864726705649
 10
73.92561451520001
 20
239.33605528297323
 10
73.74105215146672
 20
239.00023682438672
 10
73.59228118186668
 20
238.66642984227997
 10
73.40771881813335
 20
238.3306113836935
 10
73.25894784853334
 20
237.9801939961019
 10
73.07438548480002
 20
237.57496030322164
 10
72.92561451520002
 20
237.09170636344516
 10
72.74105215146668
 20
236.68647267056485
 10
72.5922811818667
 20
236.33605528297323
 10
72.40771881813333
 20
236.0002368243868
 10
72.25894784853337
 20
235.66642984227997
 10
72.07438548480002
 20
235.33061138368765
 10
71.97744917652642
 20
235.10228613955312
 10
71.92561451520002
 20
234.98019399562105
 10
71.74105215146669
 20
234.57496027991274
 10
71.59228118186667
 20
234.09170561920337
 10
71.40771881813338
 20
233.68645628911497
 10
71.25894784853335
 20
233.33580279854425
 10
71.07438548480003
 20
232.99753053478324
 10
70.92561451520002
 20
232.64687704373767
 10
70.7410521514667
 20
232.24162769082113
 10
70.59228118186667
 20
231.75837230917898
 10
70.40771881813333
 20
231.3531229562624
 10
70.25894784853332
 20
231.00246946521682
 10
70.07438548480002
 20
230.66419720144992
 10
69.92561451520001
 20
230.31354371040436
 10
69.7410521514667
 20
229.90829435748782
 10
69.5922811818667
 20
229.4250389758456
 10
69.40771881813333
 20
229.01978962292324
 10
69.25894784853331
 20
228.66913613140272
 10
69.0743854848
 20
228.3308638448077
 10
68.9256145152
 20
227.98020963282926
 10
68.74105215146669
 20
227.57494464269865
 10
68.59228118186668
 20
227.0914531576026
 10
68.40771881813336
 20
226.68374997668337
 10
68.25894784853332
 20
226.31624925576617
 10
68.07438548479999
 20
225.90853046046095
 10
67.92561451519998
 20
225.42480287238584
 10
67.74105215146668
 20
225.01708405425833
 10
67.59228118186667
 20
224.64958261240835
 10
67.40771881813336
 20
224.24186379427505
 10
67.25894784853335
 20
223.75813620572507
 10
67.07438548480002
 20
223.3504173875917
 10
66.92561451520001
 20
222.98291594574172
 10
66.74105215146668
 20
222.57519712760842
 10
66.59228118186665
 20
222.0914695390584
 10
66.40771881813335
 20
221.6837507209251
 10
66.25894784853334
 20
221.31624927907512
 10
66.07438548480002
 20
220.90853046094173
 10
65.92561451520002
 20
220.42480287239175
 10
65.7410521514667
 20
220.01708405425836
 10
65.59228118186667
 20
219.64958261240835
 10
65.40771881813333
 20
219.24186379427505
 10
65.25894784853332
 20
218.75813620572504
 10
65.07438548480002
 20
218.35041738758582
 10
64.92561451520001
 20
217.98291594526094
 10
64.7410521514667
 20
217.5751971042995
 10
64.5922811818667
 20
217.0914687948167
 10
64.40771881813333
 20
216.68373433946928
 10
64.25894784853331
 20
216.3159967941654
 10
64.0743854848
 20
215.90582414803515
 10
63.9293930964983
 20
215.4179632530439
 10
63.925614515199996
 20
215.40524933008848
 10
63.741052151466675
 20
214.92808400324503
 10
63.592281181866674
 20
214.42750918529828
 10
63.40771881813335
 20
214.0173365391622
 10
63.25894784853335
 20
213.6495989933834
 10
63.07438548480001
 20
213.2418645152079
 10
62.92561451520001
 20
212.75813548479223
 10
62.741052151466675
 20
212.35040100661672
 10
62.59228118186667
 20
211.9826634608379
 10
62.40771881813335
 20
211.57249081469595
 10
62.258947848533346
 20
211.07191599627438
 10
62.07438548480002
 20
210.5947506466028
 10
61.925614515200024
 20
210.09417510772323
 10
61.74105215146668
 20
209.68398682437896
 10
61.59228118186668
 20
209.31601317562112
 10
61.40771881813335
 20
208.90582489227097
 10
61.25894784853334
 20
208.4052493529166
 10
61.07438548480002
 20
207.92808398041683
 10
60.92561451520002
 20
207.42750844106246
 10
60.74105215146669
 20
207.01732015771233
 10
60.592281181866696
 20
206.64934650895447
 10
60.407718818133354
 20
206.23915822560434
 10
60.25894784853335
 20
205.73858268624997
 10
60.07438548480002
 20
205.26141731375026
 10
59.92561451520001
 20
204.7608417743958
 10
59.74105215146669
 20
204.35065349104568
 10
59.59228118186668
 20
203.98267984228778
 10
59.40771881813335
 20
203.57249155893766
 10
59.25894784853335
 20
203.07191601958323
 10
59.074385484800004
 20
202.59475064707763
 10
58.92561451520001
 20
202.09417510724836
 10
58.741052151466675
 20
201.6839868010701
 10
58.592281181866674
 20
201.31601243137945
 10
58.40771881813335
 20
200.9058085108211
 10
58.39454918743645
 20
200.86147523534424
 10
58.25894784853335
 20
200.40499686848764
 10
58.07438548480001
 20
199.92537769081338
 10
57.92561451520001
 20
199.40795564252014
 10
57.741052151466675
 20
198.92833646483984
 10
57.59228118186667
 20
198.4275248220315
 10
57.40771881813335
 20
198.01732087863923
 10
57.258947848533346
 20
197.64934578754088
 10
57.07438548480002
 20
197.23914182132043
 10
56.925614515200024
 20
196.73832945710438
 10
56.74105215146668
 20
196.25869461938788
 10
56.59228118186668
 20
195.74103574718285
 10
56.40771881813335
 20
195.25894712712568
 10
56.25894784853334
 20
194.74105287287443
 10
56.07438548480002
 20
194.2589642528173
 10
55.92561451520002
 20
193.74130538061223
 10
55.74105215146669
 20
193.26167054289573
 10
55.592281181866696
 20
192.7608581786797
 10
55.407718818133354
 20
192.35065421245338
 10
55.402278314054506
 20
192.33719748771736
 10
55.40227831405451
 20
192.33719748771736
 10
55.25894784853335
 20
191.98267912088008
 10
55.07438548480002
 20
191.57247515465374
 10
54.92561451520001
 20
191.07166279043767
 10
54.74105215146669
 20
190.59202795271528
 10
54.59228118186668
 20
190.0743690800353
 10
54.40771881813335
 20
189.59228043714413
 10
54.25894784853335
 20
189.07438546148524
 10
54.074385484800004
 20
188.59228118138583
 10
53.92561451520001
 20
188.0743854847941
 10
53.741052151466675
 20
187.5922811818667
 10
53.592281181866674
 20
187.07438548480008
 10
53.40771881813335
 20
186.59228118186672
 10
53.25894784853335
 20
186.07438548480002
 10
53.07438548480001
 20
185.5922811818608
 10
52.92561451520001
 20
185.0743854843192
 10
52.741052151466675
 20
184.59228115855186
 10
52.59228118186667
 20
184.07438474007748
 10
52.40771881813335
 20
183.592264777102
 10
52.3045890778264
 20
183.23308937799192
 10
52.258947848533346
 20
183.07413225564858
 10
52.07438548480002
 20
182.58955848750432
 10
51.925614515200024
 20
182.0545794575871
 10
51.74105215146668
 20
181.5005748179467
 10
51.59228118186668
 20
180.83275851538664
 10
51.40771881813335
 20
180.27875387574042
 10
51.25894784853334
 20
179.74377484534824
 10
51.07438548480002
 20
179.25920105437
 10
50.92561451520002
 20
178.74106781150888
 10
50.74105215146669
 20
178.25893218849117
 10
50.592281181866696
 20
177.7407989456301
 10
50.407718818133354
 20
177.25622515465184
 10
50.25894784853335
 20
176.72124612425966
 10
50.07438548480002
 20
176.1672414846075
 10
49.92561451520001
 20
175.49942518157252
 10
49.74105215146669
 20
174.94542051909815
 10
49.59228118186668
 20
174.41044076777314
 10
49.40771881813335
 20
173.92585133958087
 10
49.25894784853335
 20
173.40748199326586
 10
49.074385484800004
 20
172.92289254224536
 10
48.92561451520001
 20
172.38791206951268
 10
48.741052151466675
 20
171.83389174699613
 10
48.592281181866674
 20
171.16583861957446
 10
48.40771881813335
 20
170.60936451471142
 10
48.25894784853335
 20
170.0573021514686
 10
48.07438548480001
 20
169.50082802378333
 10
47.92561451520001
 20
168.83277417542885
 10
47.741052151466675
 20
168.27873821569824
 10
47.59228118186667
 20
167.74352163951164
 10
47.40771881813335
 20
167.25647836048847
 10
47.25894784853334
 20
166.72126178430184
 10
47.07438548480001
 20
166.16722582456532
 10
46.92561451520002
 20
165.4991719757359
 10
46.74105215146667
 20
164.94269782521073
 10
46.592281181866674
 20
164.39063474008532
 10
46.40771881813335
 20
163.834144952352
 10
46.25894784853334
 20
163.16585427961078
 10
46.07438548480002
 20
162.60934885466924
 10
45.92561451520001
 20
162.057048945632
 10
45.74105215146668
 20
161.4981053299018
 10
45.59228118186668
 20
160.81296814822176
 10
45.40771881813334
 20
160.1870318517783
 10
45.25894784853334
 20
159.50189467009827
 10
45.07438548480002
 20
158.94295105436214
 10
44.9256145152
 20
158.39065114484993
 10
44.77159503846403
 20
157.9262407627211
 10
44.741052151466675
 20
157.83414569706864
 10
44.59228118186668
 20
157.16585430244476
 10
44.40771881813334
 20
156.60934883184117
 10
44.25894784853335
 20
156.0570482013962
 10
44.074385484800004
 20
155.49808894844605
 10
43.92561451520001
 20
154.81271566331208
 10
43.741052151466675
 20
154.18432553886583
 10
43.59228118186667
 20
153.48234112731419
 10
43.40771881813335
 20
152.85395098003988
 10
43.25894784853335
 20
152.1685769734982
 10
43.074385484800004
 20
151.6096020605059
 10
42.92561451520001
 20
151.0570646056742
 10
42.741052151466675
 20
150.4980896698537
 10
42.59228118186667
 20
149.81271494190432
 10
42.40771881813335
 20
149.18430913458192
 10
42.25894784853334
 20
148.48208789816866
 10
42.07438548480001
 20
147.8512282856775
 10
41.92561451520002
 20
147.1487709462852
 10
41.74105215146667
 20
146.51789569658587
 10
41.592281181866674
 20
145.8154376362608
 10
41.40771881813335
 20
145.18456236373336
 10
41.25894784853334
 20
144.48210430293335
 10
41.07438548480002
 20
143.85122903040005
 10
40.92561451520001
 20
143.14877096960006
 10
40.74105215146668
 20
142.5178956970667
 10
40.59228118186668
 20
141.8154376362667
 10
40.40771881813334
 20
141.18456236372748
 10
40.25894784853334
 20
140.4821043024525
 10
40.07438548480002
 20
139.8512290070852
 10
39.9256145152
 20
139.1487702248775
 10
39.741052151466675
 20
138.51787929230193
 10
39.59228118186668
 20
137.8151844071152
 10
39.40771881813334
 20
137.1818396693651
 10
39.25894784853335
 20
136.46229827523956
 10
39.074385484800004
 20
135.7595226431652
 10
38.92561451520001
 20
134.90714325546415
 10
38.741052151466675
 20
134.20435198617577
 10
38.59228118186667
 20
133.48457376766353
 10
38.40771881813335
 20
132.8487595418743
 10
38.25894784853335
 20
132.12898060242924
 10
38.074385484800004
 20
131.42617367309865
 10
37.92561451520001
 20
130.57355746053588
 10
37.741052151466675
 20
129.86831234041074
 10
37.59228118186667
 20
129.13168689155196
 10
37.40771881813335
 20
128.42642613421862
 10
37.25894784853334
 20
127.57357309774407
 10
37.07438548480001
 20
126.86829670320252
 10
36.92561451520002
 20
126.13143443043198
 10
36.74105215146667
 20
125.42371984509592
 10
36.592281181866674
 20
124.55402029920762
 10
36.40771881813335
 20
123.77931301033016
 10
36.25894784853334
 20
122.90961274350904
 10
36.07438548480002
 20
122.20188249813079
 10
35.92561451520001
 20
121.46478340049855
 10
35.74105215146668
 20
120.75703751790624
 10
35.59228118186668
 20
119.88710042669841
 10
35.40771881813335
 20
119.109923649776
 10
35.25894784853333
 20
118.2231400491545
 10
35.074385484800004
 20
117.44350944422935
 10
34.92561451520001
 20
116.55648901969603
 10
34.74105215146667
 20
115.7768271403545
 10
34.59228118186666
 20
114.88956989190936
 10
34.40771881813334
 20
114.10745418456509
 10
34.258947848533346
 20
113.20335042670627
 10
34.074385484800004
 20
112.35180382503191
 10
33.925614515199996
 20
111.31486207359745
 10
33.74105215146667
 20
110.46329983470905
 10
33.59228118186668
 20
109.55895925246345
 10
33.40771881813334
 20
108.7743740570684
 10
33.25894784853333
 20
107.87003275341507
 10
33.074385484800004
 20
107.01845483165047
 10
32.9256145152
 20
105.98127553394667
 10
32.74105215146666
 20
105.12724378417936
 10
32.59228118186667
 20
104.20581914720053
 10
32.455243463335414
 20
103.56986625346134
 10
32.40771881813334
 20
103.34931795505038
 10
32.258947848533346
 20
102.29481922151695
 10
32.0743854848
 20
101.3688714978344
 10
31.925614515200003
 20
100.29752553442937
 10
31.85199046327537
 20
99.92717546594317
 10
31.741052151466672
 20
99.36912398273826
 10
31.59228118186667
 20
98.29754191540438
 10
31.407718818133336
 20
97.36912470367106
 10
31.25894784853334
 20
96.29754119447159
 10
31.074385484800008
 20
95.36910832269605
 10
30.925614515200007
 20
94.29728870956774
 10
30.741052151466672
 20
93.36640200978364
 10
30.592281181866674
 20
92.27773516678369
 10
30.407718818133343
 20
91.27740193546128
 10
30.258947848533342
 20
90.05566099543181
 10
30.168916325533594
 20
89.56648296253599
 10
30.074385484800008
 20
89.05285829889263
 10
29.92561451520001
 20
87.94687129818043
 10
29.741052151466675
 20
86.94159911359631
 10
29.592281181866678
 20
85.70253729444687
 10
29.407718818133343
 20
84.62780291827644
 10
29.258947848533342
 20
83.37165704439377
 10
29.07438548480001
 20
82.2919993521815
 10
28.925614515200007
 20
81.01853332106154
 10
28.74105215146668
 20
79.86694401771416
 10
28.592281181866678
 20
78.44332055671404
 10
28.407718818133343
 20
77.21737706582287
 10
28.258947848533342
 20
75.75982304115072
 10
28.074385484800004
 20
74.46196353067052
 10
28.00045351276279
 20
73.67138028475551
 10
27.92561451520001
 20
72.87109786317443
 10
27.741052151466675
 20
71.57073756739892
 10
27.592281181866674
 20
70.09538829390054
 10
27.407718818133336
 20
68.79008904486331
 10
27.258947848533335
 20
67.16458234053495
 10
27.122934727711506
 20
66.09847735432014
 10
27.0743854848
 20
65.71793620040667
 10
26.925614515200003
 20
63.92566093883065
 10
26.741052151466672
 20
62.40464495110474
 10
26.59228118186667
 20
60.594812706479864
 10
26.407718818133336
 20
59.06882644540786
 10
26.25894784853334
 20
57.241435055410626
 10
26.074385484800008
 20
55.64103198944838
 10
25.925614515200007
 20
53.64616228902628
 10
25.741052151466672
 20
51.8970195278746
 10
25.619852342376564
 20
50.10796129395054
 10
25.592281181866674
 20
49.70097705775929
 10
25.407718818133343
 20
47.7336167954576
 10
25.274413299126035
 20
45.481034551350845
 10
25.258947848533342
 20
45.21970103971805
 10
25.074385484800008
 20
43.098615194565184
 10
24.92561451520001
 20
40.49856941863148
 10
24.741052151466675
 20
38.15184217655011
 10
24.60859744304143
 20
35.40504771328913
 10
24.592281181866678
 20
35.06668740591492
 10
24.407718818133343
 20
32.353112839015964
 10
24.258947848533342
 20
28.867040693191576
 10
24.07438548480001
 20
25.801466821477387
 10
23.925614515200007
 20
21.934678827483665
 10
23.741052151466675
 20
19.094683849568302
 10
23.65486817705895
 20
17.40555443364011
 10
23.592281181866678
 20
16.178904869607557
 10
23.407718818133343
 20
14.201698249294534
 10
23.29488224459481
 20
12.788706401979267
 10
23.25894784853334
 20
12.33871924727611
 10
23.074385484800004
 20
11.025886185252935
 10
22.92561451520001
 20
9.734144039131449
 10
22.741052151466675
 20
8.728746322983271
 10
22.592281181866674
 20
7.673531337903615
 10
22.407718818133336
 20
6.88889895679411
 10
22.258947848533335
 20
6.134712914997822
 10
22.0743854848
 20
5.429420746191441
 10
21.925614515200003
 20
4.593650319259701
 10
21.74105215146667
 20
3.9627593638208993
 10
21.592281181866667
 20
3.3933753991003917
 10
21.407718818133336
 20
2.834431760518621
 10
21.258947848533335
 20
2.166377911214193
 10
21.222889645598585
 20
2.0586176062998827
 10
21.222889645598585
 20
2.058617606299882
 10
21.074385484800004
 20
1.614811416688672
 10
20.925614515200003
 20
1.0969149982142254
 10
20.741052151466672
 20
0.684257203985189
 10
20.59228118186667
 20
0.31628283334466156
 10
20.40771881813334
 20
-0.09145164484257817
 10
20.25894784853334
 20
-0.574943851346452
 10
20.074385484799972
 20
-0.9801932271028647
 10
19.925614515194113
 20
-1.3306106156502604
 10
19.741052150985844
 20
-1.6664134375151696
 10
19.702023414051457
 20
-1.7539225858480707
 10
19.702023414051457
 20
-1.7539225858480705
 10
19.592281158551863
 20
-1.9999836185442061
 10
19.40771807341074
 20
-2.333333333333366
 10
19.258931443756843
 20
-2.666683048128353
 10
19.07413225468653
 20
-3.0002532296326505
 10
18.92289177413728
 20
-3.3360560743901053
 10
18.721244629032817
 20
-3.6864741890887047
 10
18.50054172815277
 20
-4.091739452752181
 10
18.165576429945286
 20
-4.575475674879983
 10
17.939777527993463
 20
-4.9858354967997744
 10
17.701106868777966
 20
-5.373245759851207
 10
17.376178971704263
 20
-5.882260928119435
 10
16.68381660543584
 20
-6.718423967801923
 10
15.50863489473031
 20
-8.043526284000816
 10
13.39938833890948
 20
-10.15277283982165
 10
12.143716894206648
 20
-11.25852367903109
 10
11.457237635624939
 20
-11.801202264192876
 10
11.249292857394666
 20
-11.921575967936162
 10
11.020107143546618
 20
-12.05424548460173
 10
10.649779469104073
 20
-12.275833532374355
 10
10.241888368153486
 20
-12.499162991949225
 10
9.758373309889425
 20
-12.833891466244928
 10
9.352886881400591
 20
-13.054578707088647
 10
9.000000000058888
 20
-13.25622513078542
 10
8.647113123402052
 20
-13.407465588500685
 10
8.24162692276605
 20
-13.59226477709606
 10
7.758119054788999
 20
-13.74105140674411
 10
7.350383786633465
 20
-13.925614491885124
 10
6.982407224186394
 20
-14.074385484307388
 10
6.569702221004299
 20
-14.258947847565723
 10
6.051088114336884
 20
-14.407718771491894
 10
5.491956578100393
 20
-14.592279691459893
 10
4.77028304451159
 20
-14.741019295295834
 10
3.9709124693063806
 20
-14.925106566490369
 10
2.7804611555419276
 20
-15.06890723990443
 10
1.2099583039570314
 20
-15.21882784539779
 10
0.0
 20
-15.21882784539779
 10
0.0
 20
-3.3287160581623207
 10
0.0
 20
0.0
 10
-5.0
 20
0.0
 10
-5.0
 20
-2.096132032023756
 10
-5.0
 20
-3.199551512061204
 10
-5.0
 20
-9.66359250017846
 10
-5.0
 20
-10.0
 10
-5.265003726225556
 20
-10.0
 10
-10.357027386047752
 20
-10.0
 10
-12.0
 20
-10.0
 10
-12.0
 20
0.0
 10
-12.0
 20
0.6678155734071325
 10
-12.0
 20
4.968338802263798
 10
-12.0
 20
10.0
 10
-5.0
 20
10.0
 10
0.0
 20
10.0
 10
0.0
 20
11.89648727765962
 10
0.0
 20
16.76274905827534
 10
0.0
 20
28.928403512278262
 10
0.0
 20
33.794665293001344
 10
0.0
 20
40.0
 10
-5.0
 20
40.0
 10
-5.0
 20
37.25888051012401
 10
-5.0
 20
32.39261872942279
 10
-5.0
 20
30.0
 10
-11.193922828339304
 20
30.0
 10
-12.0
 20
30.0
 10
-12.0
 20
40.0
 10
-12.0
 20
42.91046289637129
 10
-12.0
 20
50.0
 10
-7.425244038800645
 20
50.0
 10
-5.0
 20
50.0
 10
-3.3916684115369686
 20
50.0
 10
0.0
 20
50.0
 10
0.0
 20
75.33950394715812
 10
0.0
 20
79.49816630229432
 10
0.0
 20
80.0
 10
-5.0
 20
80.0
 10
-5.0
 20
79.00770465050502
 10
-5.0
 20
72.73267264795201
 10
-5.0
 20
70.0
 10
-5.98845650630291
 20
70.0
 10
-12.0
 20
70.0
  0
LWPOLYLINE
  5
30
330
17
100
AcDbEntity
  8
default
100
AcDbPolyline
 90
33
 70
0
 10
28.917071761193213
 20
139.94278840531595
 10
28.291471275825174
 20
138.89903705251524
 10
27.56657770497155
 20
137.9216312183291
 10
26.749372169986803
 20
137.01998385524513
 10
25.847724806902818
 20
136.2027783202604
 10
24.87031897271668
 20
135.47788474940677
 10
24.758325134145764
 20
135.41075822585287
 10
24.670787062961608
 20
135.0130868931301
 10
33.51486237493039
 20
133.87551556041484
 10
33.605929323576824
 20
134.24260947998334
 10
33.73562013001734
 20
134.68939211768352
 10
33.84454950125944
 20
135.21641018436083
 10
33.90503195869609
 20
135.47435540944485
 10
34.03621080034077
 20
135.97386865124776
 10
34.1488456580936
 20
136.61920712920008
 10
34.238372234346805
 20
137.02955250164928
 10
34.38931243633034
 20
137.60430183682612
 10
34.511282205373234
 20
138.19421731492153
 10
34.607386492982876
 20
138.58069976534165
 10
34.7395212439151
 20
139.03413375634622
 10
34.84947844560424
 20
139.55349827634734
 10
34.94218338708035
 20
139.9217520009893
 10
35.07344401277493
 20
140.3704411967701
 10
35.18288232175547
 20
140.88718113239082
 10
35.26979114709084
 20
141.23235630660562
 10
30.29578671448373
 20
147.17712622635872
 10
30.321538694008854
 20
147.00352048204488
 10
30.38124808327361
 20
145.78810794195832
 10
30.321538694008854
 20
144.57269540187175
 10
30.142985560273672
 20
143.36898794895833
 10
29.847308246353002
 20
142.188577944003
 10
29.43735428641357
 20
141.0428333806312
 10
28.917071761193213
 20
139.94278840531595
  0
LWPOLYLINE
  5
31
330
17
100
AcDbEntity
  8
default
100
AcDbPolyline
 90
17
 70
0
 10
6.115187920194224
 20
142.188577944003
 10
5.819510606273555
 20
143.36898794895833
 10
5.640957472538371
 20
144.57269540187175
 10
5.581248083273612
 20
145.78810794195832
 10
5.640957472538371
 20
147.00352048204488
 10
5.819510606273555
 20
148.2072279349583
 10
6.115187920194222
 20
149.38763793991365
 10
6.525141880133656
 20
150.53338250328542
 10
6.642661915836351
 20
150.78185774223155
 10
5.0
 20
151.61977906579023
 10
5.0
 20
138.411186625863
 10
8.03992364462465
 20
137.8476898293011
 10
8.085013667687143
 20
138.34083780484255
 10
7.67102489072205
 20
138.89903705251524
 10
7.0454244053540105
 20
139.94278840531595
 10
6.525141880133656
 20
141.0428333806312
 10
6.115187920194224
 20
142.188577944003
  0
LWPOLYLINE
  5
32
330
17
100
AcDbEntity
  8
default
100
AcDbPolyline
 90
12
 70
0
 10
12.135928546631238
 20
156.72393161987793
 10
13.235973521946493
 20
157.24421414509828
 10
14.070925857486333
 20
157.54296486777935
 10
17.85021078493446
 20
162.05167779279873
 10
12.987605824135244
 20
167.86330665182322
 10
7.967548346146941
 20
166.64068262465298
 10
7.125768011435866
 20
155.02577368030325
 10
8.84420926105737
 20
154.1491973425012
 10
9.213123996560421
 20
154.5562320286715
 10
10.114771359644404
 20
155.37343756365624
 10
11.092177193830546
 20
156.09833113450986
 10
12.135928546631238
 20
156.72393161987793
  0
LWPOLYLINE
  5
33
330
17
100
AcDbEntity
  8
default
100
AcDbPolyline
 90
16
 70
0
 10
23.826567619915984
 20
156.72393161987793
 10
24.870318972716674
 20
156.0983311345099
 10
25.847724806902818
 20
155.37343756365624
 10
26.7493721699868
 20
154.5562320286715
 10
27.566577704971547
 20
153.65458466558752
 10
28.291471275825174
 20
152.6771788314014
 10
28.917071761193213
 20
151.63342747860068
 10
28.968477161492366
 20
151.52473989144943
 10
29.87262447271496
 20
155.3051145011559
 10
26.034726086072624
 20
159.59856634121388
 10
21.328567432705313
 20
159.97464476851746
 10
19.7163884977487
 20
158.05130420519492
 10
20.400368076273605
 20
157.94984541895838
 10
21.580778081228942
 20
157.6541681050377
 10
22.726522644600728
 20
157.24421414509828
 10
23.826567619915984
 20
156.72393161987793
  0
LWPOLYLINE
  5
34
330
17
100
AcDbEntity
  8
default
100
AcDbPolyline
 90
16
 70
0
 10
68.59806559700519
 20
302.14976197341457
 10
73.41036492260173
 20
295.8374465405941
 10
77.70735737634823
 20
296.4138841996901
 10
78.70771755769043
 20
298.0111964241395
 10
78.4737631103937
 20
298.15142332338144
 10
77.49635727620756
 20
298.87631689423506
 10
76.59470991312358
 20
299.6935224292198
 10
75.77750437813883
 20
300.5951697923038
 10
75.0526108072852
 20
301.57257562648994
 10
74.42701032191717
 20
302.61632697929065
 10
73.90672779669681
 20
303.7163719546059
 10
73.49677383675737
 20
304.86211651797765
 10
73.2010965228367
 20
306.04252652293303
 10
73.04821723455628
 20
307.0731549686493
 10
71.44101611478254
 20
306.90836663078517
 10
68.59806559700519
 20
302.14976197341457
  0
LWPOLYLINE
  5
35
330
17
100
AcDbEntity
  8
default
100
AcDbPolyline
 90
11
 70
0
 10
98.58270686678588
 20
318.05309293372557
 10
95.62830377463251
 20
319.03702400717884
 10
93.15937860679836
 20
318.0988413301595
 10
93.22931072346597
 20
318.04697613763096
 10
94.13095808654995
 20
317.2297706026462
 10
94.9481636215347
 20
316.3281232395622
 10
95.67305719238833
 20
315.3507174053761
 10
96.29865767775637
 20
314.3069660525754
 10
96.6599844298729
 20
313.5430048221949
 10
98.88448857795447
 20
317.7284336909652
 10
98.58270686678588
 20
318.05309293372557
  0
LWPOLYLINE
  5
36
330
17
100
AcDbEntity
  8
default
100
AcDbPolyline
 90
36
 70
0
 10
8.639766790437573
 20
-7.654846912660586
 10
8.938872347132719
 20
-7.418396680126679
 10
9.975972530200053
 20
-6.5051208366656
 10
11.867198259056838
 20
-4.613895107808812
 10
12.886747150296788
 20
-3.4642800440677477
 10
13.327941279817962
 20
-2.9314517992011417
 10
13.465079518504073
 20
-2.716618156816211
 10
13.618362291446052
 20
-2.4678095282990036
 10
13.784952243165598
 20
-2.1650541901182843
 10
14.054897818356762
 20
-1.7290179899268678
 10
14.237482614808638
 20
-1.4653402892030893
 10
14.330169533600309
 20
-1.2951441185479649
 10
14.387550952623371
 20
-1.1926620231369927
 10
14.465657841419606
 20
-1.0569295350684371
 10
14.515181367101786
 20
-0.9469712702831079
 10
14.700467965140712
 20
-0.577226056373612
 10
14.780882066242318
 20
-0.4320752771147183
 10
14.841874661160347
 20
-0.29542412661936757
 10
15.033420003103906
 20
0.08854948631540616
 10
15.113618799987691
 20
0.23340102066856067
 10
15.174627877915702
 20
0.3701938781733076
 10
15.359260972757312
 20
0.7418859770922863
 10
15.422033962772408
 20
0.8560985754971266
 10
15.47199166933244
 20
0.9737697119894303
 10
15.524069049516447
 20
1.0921533507620982
 10
15.540890731475022
 20
1.1290892458979784
 10
8.910024427808821
 20
5.723238836042583
 10
4.996339716725794
 20
0.07450677768637298
 10
4.999999999999999
 20
0.0
 10
4.999999999999999
 20
-2.7784841586384283
 10
7.791728080409033
 20
-8.143710109877635
 10
7.840641792424124
 20
-8.11350284978727
 10
8.164599990928252
 20
-7.9361285230903515
 10
8.452814561212701
 20
-7.763673401919368
 10
8.515165477568805
 20
-7.72697530005717
 10
8.639766790437573
 20
-7.654846912660586
  0
LWPOLYLINE
  5
37
330
17
100
AcDbEntity
  8
default
100
AcDbPolyline
 90
22
 70
0
 10
17.237260544113997
 20
6.695209949887472
 10
17.38308831779672
 20
7.252480591054037
 10
17.50224795287268
 20
7.856553642143625
 10
17.54055412986336
 20
8.03376047560667
 10
17.673013092808
 20
8.596884990227176
 10
17.790016314632172
 20
9.42677507767786
 10
17.823227241118694
 20
9.631518803268802
 10
17.977587559133635
 20
10.472391817987878
 10
18.107219978179703
 20
11.597958584378672
 10
18.12307410194612
 20
11.721957726131867
 10
18.2867548234871
 20
12.886255031975242
 10
18.423585619360715
 20
14.59971364710289
 10
18.429360716614227
 20
14.666403115891583
 10
18.560289496282103
 20
16.06903605097289
 10
16.883128254208714
 20
17.231045550201088
 10
11.188054092228413
 20
9.011183611117303
 10
16.864642801593018
 20
5.078198613589973
 10
16.903455941658798
 20
5.226746274691635
 10
16.94218337337035
 20
5.366632025643313
 10
17.05055200464096
 20
5.73706935608784
 10
17.151765471863474
 20
6.305669688123352
 10
17.237260544113997
 20
6.695209949887472
  0
LWPOLYLINE
  5
38
330
17
100
AcDbEntity
  8
default
100
AcDbPolyline
 90
24
 70
0
 10
3.865052266813685
 20
6.828033579181772
 10
3.5355339059327378
 20
6.464466094067262
 10
3.1719664208182277
 20
6.134947733186316
 10
2.7778511650980113
 20
5.842651938487274
 10
2.356983684129989
 20
5.590393678258225
 10
1.9134171618254492
 20
5.380602337443566
 10
1.4514233862723116
 20
5.215298321338955
 10
0.9754516100806416
 20
5.096073597983848
 10
0.49008570164780385
 20
5.024076366639016
 10
0.0
 20
5.0
 10
0.49008570164780385
 20
4.975923633360984
 10
0.9754516100806416
 20
4.903926402016152
 10
1.4514233862723116
 20
4.784701678661045
 10
1.9134171618254492
 20
4.619397662556434
 10
2.356983684129989
 20
4.409606321741775
 10
2.7778511650980113
 20
4.157348061512726
 10
2.8974107381221486
 20
4.0686766388673234
 10
5.6220796522684395
 20
8.001268500927836
 10
4.7917161764589995
 20
8.576580058667886
 10
4.784701678661045
 20
8.548576613727688
 10
4.619397662556434
 20
8.08658283817455
 10
4.409606321741775
 20
7.643016315870011
 10
4.157348061512726
 20
7.222148834901989
 10
3.865052266813685
 20
6.828033579181772
  0
LWPOLYLINE
  5
39
330
17
100
AcDbEntity
  8
default
100
AcDbPolyline
 90
5
 70
0
 10
5.0
 20
25.46418829513373
 10
5.0
 20
13.298533841117756
 10
7.900109317153692
 20
11.289213275536895
 10
13.595183479133993
 20
19.50907521462068
 10
5.0
 20
25.46418829513373
  0
LWPOLYLINE
  5
3A
330
17
100
AcDbEntity
  8
default
100
AcDbPolyline
 90
15
 70
0
 10
4.784701678661044
 20
41.45142338627231
 10
4.903926402016152
 20
40.97545161008064
 10
4.975923633360985
 20
40.4900857016478
 10
5.0
 20
40.0
 10
5.0
 20
30.330450075878687
 10
15.873213143553585
 20
22.7970199896954
 10
19.1710133858181
 20
27.556828540186523
 10
19.26535823324303
 20
29.123892882809606
 10
19.40995973904087
 20
32.51226416896478
 10
3.59591154109149
 20
43.46891745119819
 10
3.865052266813685
 20
43.17196642081823
 10
4.157348061512726
 20
42.777851165098014
 10
4.409606321741776
 20
42.356983684129986
 10
4.619397662556434
 20
41.91341716182545
 10
4.784701678661044
 20
41.45142338627231
  0
LWPOLYLINE
  5
3B
330
17
100
AcDbEntity
  8
default
100
AcDbPolyline
 90
17
 70
0
 10
4.455346465108292
 20
47.73972572362732
 10
19.688640984766447
 20
37.18544358730914
 10
19.74685532937835
 20
38.39267012808991
 10
19.756444045782253
 20
38.54386517682581
 10
19.93682554573309
 20
40.83743235563452
 10
20.082550361009584
 20
43.38424099328134
 10
20.09320689650764
 20
43.5320432411169
 10
20.27176925697364
 20
45.58417395509471
 10
20.416451267155505
 20
48.02899491677955
 10
20.429576465963233
 20
48.20062720383223
 10
20.485698223830788
 20
48.79886247805464
 10
14.025176498107612
 20
53.27499001240358
 10
9.035181902814656
 20
52.51857794960961
 10
4.8183135092569715
 20
48.6827625632488
 10
4.784701678661045
 20
48.54857661372769
 10
4.619397662556434
 20
48.08658283817455
 10
4.455346465108292
 20
47.73972572362732
  0
LWPOLYLINE
  5
3C
330
17
100
AcDbEntity
  8
default
100
AcDbPolyline
 90
10
 70
0
 10
21.42420655112254
 20
59.4745424600695
 10
21.44389244491719
 20
59.66918278672842
 10
21.598270061536848
 20
60.94559752922173
 10
17.42177436221391
 20
55.787942591588944
 10
20.87164344558871
 20
53.39772479660268
 10
20.9451671444679
 20
54.094526913059326
 10
21.088231996230938
 20
56.01288328826348
 10
21.107305640680075
 20
56.21384768593155
 10
21.282248745624006
 20
57.730838885316906
 10
21.42420655112254
 20
59.4745424600695
  0
LWPOLYLINE
  5
3D
330
17
100
AcDbEntity
  8
default
100
AcDbPolyline
 90
6
 70
0
 10
21.249904485885054
 20
66.87153898831457
 10
20.66635254956782
 20
71.25200739130378
 10
7.334091797005385
 20
76.12268972955644
 10
9.85736292321235
 20
56.68890434317291
 10
13.444690010044724
 20
57.23269200278446
 10
21.249904485885054
 20
66.87153898831457
  0
LWPOLYLINE
  5
3E
330
17
100
AcDbEntity
  8
default
100
AcDbPolyline
 90
19
 70
0
 10
23.43356222643977
 20
77.72508387226866
 10
23.46343466068189
 20
77.9617252171436
 10
23.63113414436244
 20
79.07565812461885
 10
23.768132031743622
 20
80.38662226707008
 10
23.804055205715624
 20
80.6581842831486
 10
23.971753852514404
 20
81.70455128849504
 10
24.108159591447762
 20
82.87217206456779
 10
24.145878067285338
 20
83.13450432872635
 10
24.30877342618767
 20
84.0874138152926
 10
24.44242098228482
 20
85.21586533105078
 10
24.47985377116865
 20
85.47405706385192
 10
24.565277474045146
 20
85.97149212137961
 10
24.652041515801102
 20
87.98476367816329
 10
18.48935468494892
 20
89.12711286032572
 10
9.36368938907981
 20
79.63979089725763
 10
22.11219956772402
 20
74.982370485086
 10
23.226115966908
 20
75.882679838941
 10
23.29483028840076
 20
76.36588526528907
 10
23.43356222643977
 20
77.72508387226866
  0
LWPOLYLINE
  5
3F
330
17
100
AcDbEntity
  8
default
100
AcDbPolyline
 90
14
 70
0
 10
4.619397662556434
 20
88.08658283817455
 10
4.441995775571253
 20
87.71149806225047
 10
6.005082728806883
 20
81.91811598651111
 10
15.53249326441437
 20
91.82310464140028
 10
11.330312930978835
 20
105.26191037567332
 10
10.704847940709442
 20
105.80040788045153
 10
9.863952474668622
 20
105.79628877807409
 10
9.80704999808222
 20
105.76577149285004
 10
5.0
 20
97.92989170088036
 10
5.0
 20
90.0
 10
4.975923633360985
 20
89.5099142983522
 10
4.903926402016152
 20
89.02454838991936
 10
4.784701678661045
 20
88.54857661372769
 10
4.619397662556434
 20
88.08658283817455
  0
LWPOLYLINE
  5
40
330
17
100
AcDbEntity
  8
default
100
AcDbPolyline
 90
19
 70
0
 10
25.787094261360874
 20
94.04338149474498
 10
25.836519296725463
 20
94.33879980737682
 10
25.99296869991108
 20
95.12789172009785
 10
26.1218656673716
 20
96.05652919667276
 10
26.170343478616708
 20
96.34397857128798
 10
26.326490095378674
 20
97.12946727486684
 10
26.455219628554964
 20
98.05669417450699
 10
26.503679956516635
 20
98.34401077073386
 10
26.659824627977553
 20
99.12947643974869
 10
26.78855308790184
 20
100.05669436123739
 10
26.83701643456964
 20
100.3440258687751
 10
26.993173715645327
 20
101.1295417189514
 10
27.08248967075945
 20
101.77273365509636
 10
15.968124059028924
 20
103.83295297296718
 10
19.343961180187762
 20
93.03683865536004
 10
25.447988244440072
 20
91.90536296768686
 10
25.49070743196266
 20
92.18459487429396
 10
25.6541119930597
 20
93.07025221693179
 10
25.787094261360874
 20
94.04338149474498
  0
LWPOLYLINE
  5
41
330
17
100
AcDbEntity
  8
default
100
AcDbPolyline
 90
22
 70
0
 10
28.00125859552466
 20
106.86540903909791
 10
28.125041329489527
 20
107.72837907570333
 10
28.18783369962037
 20
108.07751651576417
 10
28.345711690340863
 20
108.80597170300044
 10
28.474032670290914
 20
109.58600266338274
 10
28.540569476859382
 20
109.91930081880317
 10
28.68619625591841
 20
110.53836861026177
 10
28.807366107328136
 20
111.27492907141301
 10
28.854504403835875
 20
111.52238014805852
 10
29.00148843556363
 20
112.20055769524134
 10
29.12506418928006
 20
113.06188742131674
 10
29.187841763174507
 20
113.41090271401369
 10
29.345737081656193
 20
114.1394110575004
 10
29.474066831073564
 20
114.91929041840854
 10
29.54137634595679
 20
115.25580558700713
 10
29.609118521318006
 20
115.54287505408566
 10
20.528001084923744
 20
117.22620042134076
 10
14.190103939268738
 20
108.23067677021027
 10
27.770917351058937
 20
105.71326326039039
 10
27.80497637882313
 20
105.92421051292126
 10
27.853871244663868
 20
106.18339850020453
 10
28.00125859552466
 20
106.86540903909791
  0
LWPOLYLINE
  5
42
330
17
100
AcDbEntity
  8
default
100
AcDbPolyline
 90
6
 70
0
 10
11.902532100211829
 20
130.9939571316354
 10
4.655867306049913
 20
122.33925438253209
 10
10.531017839442939
 20
109.98215228924528
 10
17.527254621032625
 20
119.91207257518545
 10
16.000699063763022
 20
129.36159501969814
 10
11.902532100211829
 20
130.9939571316354
  0
LWPOLYLINE
  5
43
330
17
100
AcDbEntity
  8
default
100
AcDbPolyline
 90
26
 70
0
 10
30.812600589077846
 20
121.59986917202646
 10
30.90285394407771
 20
122.01871818511887
 10
31.052120256029834
 20
122.59111342083712
 10
31.173217439082766
 20
123.19110026366077
 10
31.236194084133615
 20
123.46358926696325
 10
31.366672532661674
 20
123.96392716102473
 10
31.47930539419666
 20
124.62236764839383
 10
31.54384091910705
 20
124.93805879063038
 10
31.69104685782643
 20
125.55596111581261
 10
31.812638843675977
 20
126.26677516213722
 10
31.90286756788315
 20
126.68545275469873
 10
32.05216495269653
 20
127.25794182911054
 10
32.17327910510832
 20
127.85781994949105
 10
32.23726747779365
 20
128.1341124031742
 10
32.3691116661722
 20
128.63793448228043
 10
32.482098144353984
 20
129.28564728039538
 10
32.57060768499229
 20
129.69226810130726
 10
32.63940697206828
 20
129.9551680573206
 10
22.650802243035287
 20
131.23995476402342
 10
19.991114869248122
 20
129.74193798471242
 10
21.38136539934203
 20
121.13615647424012
 10
30.397396391298074
 20
119.46489588474878
 10
30.476630025889623
 20
119.93718619758555
 10
30.543011972464402
 20
120.26518435875111
 10
30.690718298913676
 20
120.88716342533242
 10
30.812600589077846
 20
121.59986917202646
  0
LWPOLYLINE
  5
44
330
17
100
AcDbEntity
  8
default
100
AcDbPolyline
 90
8
 70
0
 10
8.780553666409105
 20
133.4960795971565
 10
8.662923633586615
 20
133.66406685160473
 10
5.0
 20
134.34304631777792
 10
5.0
 20
130.0
 10
4.975923633360985
 20
129.5099142983522
 10
4.903926402016152
 20
129.02454838991935
 10
4.847337763775745
 20
128.79863388244482
 10
8.780553666409105
 20
133.4960795971565
  0
LWPOLYLINE
  5
45
330
17
100
AcDbEntity
  8
default
100
AcDbPolyline
 90
6
 70
0
 10
16.066788480617106
 20
170.41652991669253
 10
21.454480128828436
 20
163.97733435826376
 10
25.560128645971417
 20
163.64924388146028
 10
28.066025615204126
 20
171.65883615100756
 10
20.67529400018975
 20
180.49200057331473
 10
16.066788480617106
 20
170.41652991669253
  0
LWPOLYLINE
  5
46
330
17
100
AcDbEntity
  8
default
100
AcDbPolyline
 90
42
 70
0
 10
9.89904565307946
 20
181.8299732383624
 10
9.80598065255251
 20
181.41221482274705
 10
9.669302837525176
 20
180.91910208197675
 10
9.524528964720774
 20
180.48453137313453
 10
9.409485802420967
 20
180.0708372257758
 10
9.264839099674571
 20
179.6307779188798
 10
9.155338506348684
 20
179.3432809636557
 10
9.064767823174424
 20
179.0278452176402
 10
8.928507546437405
 20
178.62021882014338
 10
8.820843269465081
 20
178.33896546921756
 10
8.731434489841115
 20
178.0275763517615
 10
8.598172433007944
 20
177.6278020191617
 10
8.496136636629341
 20
177.3599041028882
 10
8.409485802420953
 20
177.04830850468704
 10
8.335969504196829
 20
176.80758969086457
 10
8.232378986535826
 20
176.49663990539761
 10
8.13931398604994
 20
176.0788814896695
 10
8.002636190384997
 20
175.58576880677566
 10
7.857862581365551
 20
175.15119887183545
 10
7.742819601732237
 20
174.7375048238542
 10
7.5981915346902635
 20
174.29749399413004
 10
7.488786958994387
 20
174.01023986655127
 10
7.398267843866818
 20
173.6948400633245
 10
7.264858229241536
 20
173.2945352928368
 10
7.162811139136029
 20
173.02659906590424
 10
7.0761534013486775
 20
172.71497780234677
 10
7.002649585022955
 20
172.47429590224567
 10
6.899109886131889
 20
172.16348986241636
 10
6.806062440753018
 20
171.74566212965857
 10
6.67140251902762
 20
171.25849886178173
 10
6.531726042643888
 20
170.8373602082537
 10
6.420055573467138
 20
170.42297060125702
 10
6.4063652608946855
 20
170.37738212075786
 10
12.307713551912457
 20
171.81464259931818
 10
17.73907120944932
 20
183.68909614440054
 10
16.65675067016855
 20
184.7424287297763
 10
10.375146219243062
 20
183.2920466872253
 10
10.26483907178049
 20
182.96113525594345
 10
10.162803292570773
 20
182.6932373973712
 10
10.076152468780645
 20
182.38164183691063
 10
10.002636170853451
 20
182.14092302416194
 10
9.89904565307946
 20
181.8299732383624
  0
LWPOLYLINE
  5
47
330
17
100
AcDbEntity
  8
default
100
AcDbPolyline
 90
6
 70
0
 10
33.49687495082617
 20
186.98483117716387
 10
23.58685098681599
 20
183.2455646409653
 10
31.097002847120166
 20
174.2696729870513
 10
40.38431785348803
 20
175.85932106012478
 10
40.63941765576601
 20
178.44829414831474
 10
33.49687495082617
 20
186.98483117716387
  0
LWPOLYLINE
  5
48
330
17
100
AcDbEntity
  8
default
100
AcDbPolyline
 90
7
 70
0
 10
24.219003424048424
 20
200.94948970433325
 10
19.189096923917532
 20
187.8595208413899
 10
20.66854571690783
 20
186.4196963487193
 10
32.6538848024793
 20
190.9420241988264
 10
35.743175184354186
 20
197.5243245176971
 10
33.028031336609274
 20
201.47509934101254
 10
24.219003424048424
 20
200.94948970433325
  0
LWPOLYLINE
  5
49
330
17
100
AcDbEntity
  8
default
100
AcDbPolyline
 90
40
 70
0
 10
17.4384807419979
 20
204.1603029345468
 10
17.38527444310128
 20
203.98119290781747
 10
17.258724164981135
 20
203.60935977825397
 10
17.152755430746694
 20
203.33397158089855
 10
17.064432284073952
 20
203.02664508661618
 10
16.92844938488172
 20
202.62003482624854
 10
16.820711500063865
 20
202.33861661275935
 10
16.731266061003204
 20
202.0272430728329
 10
16.59513538384661
 20
201.62010170619058
 10
16.487385645030106
 20
201.33864341343858
 10
16.39793272766991
 20
201.0272438403837
 10
16.26178271821502
 20
200.62005197572978
 10
16.153936455719894
 20
200.3383506728485
 10
16.064432284073938
 20
200.0269147205322
 10
15.925390831647878
 20
199.612335701768
 10
15.811411646939654
 20
199.31613019889392
 10
15.718607776434641
 20
199.00372162939286
 10
15.485344417102379
 20
198.3759734271027
 10
15.340371330581647
 20
198.05375965673298
 10
15.227765492901096
 20
197.7752366119239
 10
15.152011083769164
 20
197.5977943693034
 10
15.10514740866839
 20
197.49363626789298
 10
15.051941109767945
 20
197.3145262411508
 10
14.925390831647835
 20
196.94269311158737
 10
14.819422097413359
 20
196.66730491423183
 10
14.731098950740595
 20
196.3599784199494
 10
14.595116051555518
 20
195.95336815960047
 10
14.487378166951162
 20
195.6719499466656
 10
14.397932728005799
 20
195.36057640685496
 10
14.26180207878315
 20
194.9534351128883
 10
14.154052653630341
 20
194.67197762614157
 10
14.121412480498298
 20
194.55835192855724
 10
16.421641296707094
 20
191.8091925214976
 10
20.525134508963674
 20
202.48823762405664
 10
17.993719189300975
 20
205.51370369523056
 10
17.818677707704524
 20
205.0426399754813
 10
17.67370464392976
 20
204.7204262736022
 10
17.561098825393895
 20
204.4419032765057
 10
17.485344417091483
 20
204.26446103593972
 10
17.4384807419979
 20
204.1603029345468
  0
LWPOLYLINE
  5
4A
330
17
100
AcDbEntity
  8
default
100
AcDbPolyline
 90
36
 70
0
 10
22.42689784100013
 20
217.46888472121188
 10
22.37136643798029
 20
217.28832455024425
 10
22.147354740260297
 20
216.69626619365297
 10
22.004684201524
 20
216.38107899497896
 10
21.894011397834607
 20
216.10751389508036
 10
21.818619132770205
 20
215.93098176531842
 10
21.77166016542758
 20
215.82661983851574
 10
21.718423307208187
 20
215.64749194358518
 10
21.588937808033318
 20
215.26819321691386
 10
21.47672529596484
 20
214.9780803308736
 10
21.385089973874805
 20
214.66975179879486
 10
21.151952466114594
 20
214.0424941564759
 10
21.006780878737608
 20
213.7198638382804
 10
20.894011398676504
 20
213.4411160963794
 10
20.8140214503063
 20
213.25439648805317
 10
20.76024223939656
 20
213.13558765805263
 10
20.70470038720778
 20
212.9549932423183
 10
20.480688160329798
 20
212.36293307476498
 10
20.338018277717133
 20
212.04774729030368
 10
20.227346010046357
 20
211.77418297869286
 10
20.151981733607705
 20
211.59771273328835
 10
20.105136367898712
 20
211.49359930650735
 10
20.051939990061395
 20
211.31452319326084
 10
19.92537115204737
 20
210.94264269110758
 10
19.81930521833913
 20
210.66701090760583
 10
19.730931116887444
 20
210.35964779321475
 10
19.59203784736107
 20
209.94560156288765
 10
19.563361542049858
 20
209.8710809201418
 10
23.701169547159225
 20
204.92570604244247
 10
32.264318289700896
 20
205.43664476834238
 10
32.80407737893984
 20
209.62961178831756
 10
24.53543078713119
 20
219.51203191978857
 10
22.61145661057326
 20
217.89986840199725
 10
22.560259165174042
 20
217.7733979279359
 10
22.480658408503203
 20
217.58764780935573
 10
22.42689784100013
 20
217.46888472121188
  0
LWPOLYLINE
  5
4B
330
17
100
AcDbEntity
  8
default
100
AcDbPolyline
 90
55
 70
0
 10
30.861814836603187
 20
238.0273623312321
 10
30.809264239761763
 20
237.90786370247287
 10
30.75825749930906
 20
237.79586660759003
 10
30.7042954717923
 20
237.6205807956342
 10
30.47593090642836
 20
237.01935896791403
 10
30.31842389334916
 20
236.6735158943913
 10
30.195148169936694
 20
236.38295475271164
 10
29.98148508799054
 20
235.94103995633233
 10
29.914613203596907
 20
235.81847486094335
 10
29.861814836603173
 20
235.69402899789873
 10
29.809264239761752
 20
235.57453036913952
 10
29.75825749930908
 20
235.46253327425677
 10
29.70429547179234
 20
235.28724746230097
 10
29.475930906428474
 20
234.68602563458094
 10
29.31842389334923
 20
234.34018256105804
 10
29.195148169936527
 20
234.04962141937793
 10
28.981485087990606
 20
233.60770662299916
 10
28.914613203596907
 20
233.48514152761007
 10
28.861814836603116
 20
233.3606956645653
 10
28.809264239761767
 20
233.24119703580624
 10
28.75825749930909
 20
233.12919994092346
 10
28.704295471792364
 20
232.9539141289677
 10
28.47593090643967
 20
232.35269230127216
 10
28.3184238938591
 20
232.0068492288393
 10
28.19514817088751
 20
231.7162880878053
 10
27.98148515593826
 20
231.27437341372186
 10
27.914614118632485
 20
231.15180986263357
 10
27.861816280183092
 20
231.02736498951475
 10
27.80929440054643
 20
230.90792918448676
 10
27.758411128629376
 20
230.7961988821968
 10
27.70449744886809
 20
230.6209845566811
 10
27.48062865380894
 20
230.0294526248498
 10
27.337759448886363
 20
229.71385074305718
 10
27.226924549993512
 20
229.44006140528904
 10
27.147324988414272
 20
229.25431426153565
 10
27.093564042875556
 20
229.13555035156978
 10
27.038032488750265
 20
228.95498995856224
 10
26.813991698442116
 20
228.36286797394501
 10
26.671107008662315
 20
228.04721977965926
 10
26.560259163487316
 20
227.7733979242442
 10
26.48065836510873
 20
227.58764771396744
 10
26.42689739172566
 20
227.4688837358424
 10
26.371365822083547
 20
227.28832329238207
 10
26.147324988414297
 20
226.6962012119754
 10
26.00443961852228
 20
226.3805515329147
 10
25.956010513528838
 20
226.260919785899
 10
26.005142589565367
 20
226.17515214020386
 10
35.92454967368394
 20
230.5233277459629
 10
37.206762552727014
 20
233.51385365705937
 10
31.473336057918743
 20
239.34699471123952
 10
31.31842389334926
 20
239.0068492277248
 10
31.195148169936502
 20
238.71628808604456
 10
30.981485087990684
 20
238.274373289666
 10
30.91461320359696
 20
238.15180819427684
 10
30.861814836603187
 20
238.0273623312321
  0
LWPOLYLINE
  5
4C
330
17
100
AcDbEntity
  8
default
100
AcDbPolyline
 90
28
 70
0
 10
36.8495492042105
 20
147.55384884078893
 10
36.94219279168787
 20
147.92180055271518
 10
37.0734477803449
 20
148.3704593261958
 10
37.18288275304893
 20
148.88718244743936
 10
37.275535502886
 20
149.25516519703925
 10
37.406832486510055
 20
149.70395639441472
 10
37.51628669772633
 20
150.22059664847492
 10
37.61034841617873
 20
150.59329360094407
 10
37.74422385310538
 20
151.04911839816052
 10
37.85483975722834
 20
151.55871610663135
 10
37.99316334587189
 20
152.06574776067188
 10
38.133900759039854
 20
152.49199222840514
 10
38.246330570931896
 20
152.9095581169455
 10
38.326496698266126
 20
153.17726020905292
 10
38.42855518049148
 20
153.48635969211148
 10
38.52150665532015
 20
153.9145784829722
 10
38.61035791005352
 20
154.26296777114902
 10
38.7407634540173
 20
154.7069670639582
 10
38.849690926807334
 20
155.22094763485794
 10
38.943691257226824
 20
155.59334237709675
 10
38.99462875388006
 20
155.76677220977462
 10
33.73483659652993
 20
154.25731695536524
 10
32.81281704548746
 20
150.4022158482112
 10
36.47489654973857
 20
146.02541635466318
 10
36.51621587073522
 20
146.22051550726616
 10
36.60885944466462
 20
146.58846717306744
 10
36.74011429571856
 20
147.03712549242476
 10
36.8495492042105
 20
147.55384884078893
  0
LWPOLYLINE
  5
4D
330
17
100
AcDbEntity
  8
default
100
AcDbPolyline
 90
31
 70
0
 10
40.32652283251931
 20
160.5106883522147
 10
40.42862036810763
 20
160.8198888010231
 10
40.521582665674124
 20
161.2480094668254
 10
40.611853663601785
 20
161.60113136014044
 10
40.74484099858895
 20
162.0521528915726
 10
40.85491599900747
 20
162.5590829449489
 10
40.993189499190926
 20
163.06584262776934
 10
41.13399631462707
 20
163.49227339592449
 10
41.24647096098974
 20
163.90982620963618
 10
41.32857103195588
 20
164.18327552995487
 10
41.43343407869388
 20
164.49946596664603
 10
41.527188939103894
 20
164.92062003255438
 10
41.661917579646556
 20
165.40811147193787
 10
41.80160181626817
 20
165.82928537551643
 10
41.91327775930386
 20
166.24369529576055
 10
41.99526412834079
 20
166.51670419100313
 10
42.10016921623155
 20
166.83300361678485
 10
42.193937310397615
 20
167.25406786321324
 10
42.330670374223196
 20
167.7474685115236
 10
42.47536909381922
 20
168.18183818669672
 10
42.59036075344321
 20
168.59553074055614
 10
42.732164187562745
 20
169.0282539942948
 10
42.83596224409475
 20
169.30216761778215
 10
42.919708942702314
 20
169.60345369137687
 10
41.301470992621034
 20
171.95813326211646
 10
31.844430743716657
 20
170.3394344463013
 10
29.239980003796518
 20
162.01483500376344
 10
32.71587784867734
 20
158.12635269016027
 10
40.23959966562688
 20
160.28551052184775
 10
40.283753749692
 20
160.36790015226654
 10
40.32652283251931
 20
160.5106883522147
  0
LWPOLYLINE
  5
4E
330
17
100
AcDbEntity
  8
default
100
AcDbPolyline
 90
21
 70
0
 10
47.93539958477066
 20
185.97275332712604
 10
48.07153119801069
 20
186.37989802612597
 10
48.17928065739575
 20
186.66135562895386
 10
48.268733428045486
 20
186.9727551256247
 10
48.40486455960657
 20
187.3798981232609
 10
48.51261400187991
 20
187.66135566806307
 10
48.602066761714724
 20
187.9727551267999
 10
48.738197892947106
 20
188.3798981232856
 10
48.84594733521606
 20
188.66135566807296
 10
48.935400095048124
 20
188.97275512680017
 10
49.07153122628782
 20
189.37989812330486
 10
49.17928066877013
 20
189.66135566864605
 10
49.26420636485195
 20
189.95699568933753
 10
44.22217271756381
 20
195.98307193629444
 10
39.337320174090564
 20
195.76758770318702
 10
36.471977062523365
 20
189.66244815802202
 10
43.05064361775294
 20
181.79983774432912
 10
47.65313851953868
 20
185.1254363417979
 10
47.73817850576435
 20
185.37983107549792
 10
47.84593950449837
 20
185.6613279509655
 10
47.93539958477066
 20
185.97275332712604
  0
LWPOLYLINE
  5
4F
330
17
100
AcDbEntity
  8
default
100
AcDbPolyline
 90
41
 70
0
 10
51.18057790280854
 20
195.33269508634143
 10
51.268901049595726
 20
195.6400215807401
 10
51.40488397671659
 20
196.04663191376733
 10
51.51262217499337
 20
196.32805093270525
 10
51.602067782275604
 20
196.63942462479068
 10
51.73821731004993
 20
197.04661478807574
 10
51.8460635554363
 20
197.32831603292857
 10
51.93556771626241
 20
197.63975194731077
 10
52.07460916835959
 20
198.05433096492408
 10
52.18858835306336
 20
198.35053646778292
 10
52.28139222356542
 20
198.662945037274
 10
52.51465558290852
 20
199.2906932395882
 10
52.659628669883595
 20
199.6129070109632
 10
52.772234507939515
 20
199.8914300563412
 10
52.84798895896221
 20
200.06887239185627
 10
52.89485301138748
 20
200.1730313261012
 10
52.94805945008425
 20
200.35214156543992
 10
53.07462881929815
 20
200.7240238777804
 10
53.18069477039687
 20
200.99965571959703
 10
53.2690688827758
 20
201.3070188722749
 10
53.40796215263907
 20
201.72106510377367
 10
53.52192984299743
 20
202.0172310653783
 10
53.61472611711943
 20
202.3296136126617
 10
53.84798900169339
 20
202.95736011901144
 10
53.99296274134244
 20
203.27957530513666
 10
54.10556911803009
 20
203.55809913674304
 10
54.181351557001186
 20
203.73560335608983
 10
54.22832920822999
 20
203.84001079212385
 10
54.281576131840225
 20
204.019172812793
 10
54.41106213389271
 20
204.39847327677512
 10
54.52327432556823
 20
204.68858536223735
 10
54.61490946554255
 20
204.99691372589456
 10
54.713183115854825
 20
205.2613254129573
 10
54.47422806825489
 20
205.54691679077223
 10
47.76177697815001
 20
197.98601412773132
 10
50.8183825478297
 20
194.33285758264051
 10
50.8479889162309
 20
194.4022056306968
 10
50.89485259133169
 20
194.50636373210727
 10
50.94805889023211
 20
194.68547375884935
 10
51.07460916835956
 20
195.0573068884318
 10
51.18057790280854
 20
195.33269508634143
  0
LWPOLYLINE
  5
50
330
17
100
AcDbEntity
  8
default
100
AcDbPolyline
 90
8
 70
0
 10
36.75582271069288
 20
208.99835754791275
 10
36.11774432146922
 20
204.04162463499233
 10
39.06075883889571
 20
199.75927780102938
 10
44.18796174414456
 20
199.98545277304947
 10
52.01589438179508
 20
208.80283347843215
 10
47.6475640386343
 20
215.1591411018744
 10
47.58270334172994
 20
215.1731504299678
 10
36.75582271069288
 20
208.99835754791275
  0
LWPOLYLINE
  5
51
330
17
100
AcDbEntity
  8
default
100
AcDbPolyline
 90
42
 70
0
 10
57.99321912125739
 20
213.94680282837396
 10
58.10598860132349
 20
214.2255505702873
 10
58.18597854970496
 20
214.41227017863844
 10
58.239757760892964
 20
214.53107900925198
 10
58.295299613197635
 20
214.71167342518586
 10
58.519311883038384
 20
215.30373368722982
 10
58.66198244495113
 20
215.61892095475173
 10
58.772655267990146
 20
215.89248610283275
 10
58.84804753388546
 20
216.06901823465134
 10
58.89500650123525
 20
216.1733801614714
 10
58.948243359458466
 20
216.35250805641488
 10
59.07772885863339
 20
216.73180678308637
 10
59.18994137070185
 20
217.02191966912656
 10
59.28157669279188
 20
217.33024820120528
 10
59.51471420056299
 20
217.95750584354846
 10
59.659885788394725
 20
218.28013616275
 10
59.77265526883214
 20
218.55888390522117
 10
59.852645259739774
 20
218.74560360729978
 10
59.90642487652435
 20
218.86441332730385
 10
59.96196689535314
 20
219.04500801553874
 10
60.1860082581745
 20
219.63713190690152
 10
60.32889297112852
 20
219.95278017005936
 10
60.439740835669426
 20
220.2266020736669
 10
60.519341634868866
 20
220.41235228597725
 10
60.57310260798079
 20
220.53111626350673
 10
60.62863417751098
 20
220.71167670678042
 10
60.852674968213535
 20
221.30379869269154
 10
60.99555965799946
 20
221.6194468869953
 10
61.10640750317946
 20
221.89326874242272
 10
61.186008301546686
 20
222.07901895267437
 10
61.239769274651465
 20
222.19778293018635
 10
61.29530084417765
 20
222.37834337344705
 10
61.42349832717379
 20
222.7171591220545
 10
56.65481276484206
 20
224.03648298513144
 10
51.30725613422692
 20
216.89629629673436
 10
55.20190797466785
 20
211.22923285607249
 10
57.36657509220795
 20
212.2681583687479
 10
57.41106216293343
 20
212.39847335138177
 10
57.52327469231873
 20
212.68858629607203
 10
57.614910025756174
 20
212.99691486662434
 10
57.84804753387448
 20
213.6241725101607
 10
57.99321912125739
 20
213.94680282837396
  0
LWPOLYLINE
  5
52
330
17
100
AcDbEntity
  8
default
100
AcDbPolyline
 90
5
 70
0
 10
44.18731855740771
 20
217.84149976959452
 10
36.88015219848603
 20
226.5747896884568
 10
27.34036959055811
 20
222.39302260661498
 10
35.36063455604017
 20
212.8074601967819
 10
44.18731855740771
 20
217.84149976959452
  0
LWPOLYLINE
  5
53
330
17
100
AcDbEntity
  8
default
100
AcDbPolyline
 90
7
 70
0
 10
41.150688513647765
 20
232.56171138212085
 10
39.77362601971254
 20
229.34996617399156
 10
48.144239333458245
 20
219.34567870013416
 10
53.733959627337754
 20
226.80920815793797
 10
52.94349352456629
 20
230.70444063004106
 10
42.47093932889402
 20
233.32787610497326
 10
41.150688513647765
 20
232.56171138212085
  0
LWPOLYLINE
  5
54
330
17
100
AcDbEntity
  8
default
100
AcDbPolyline
 90
47
 70
0
 10
63.29530084458308
 20
227.3783433742846
 10
63.519341678252374
 20
227.97046545469144
 10
63.66222704814445
 20
228.28611513375228
 10
63.77307545000668
 20
228.55993782716087
 10
63.85270467952437
 20
228.74575050943602
 10
63.906588597895514
 20
228.8647815213711
 10
63.96216921779865
 20
229.04541324362026
 10
64.19070559945348
 20
229.6472250910409
 10
64.34822779380015
 20
229.9931148447585
 10
64.47151705315027
 20
230.28370848812224
 10
64.68518151072827
 20
230.7256265624883
 10
64.7520534347138
 20
230.84819173871392
 10
64.80485182911262
 20
230.97263766652094
 10
64.8574024268938
 20
231.09213629749698
 10
64.90840916735362
 20
231.20413339239704
 10
64.96237119487435
 20
231.37941920436577
 10
65.19073576023817
 20
231.9806410320857
 10
65.34824277331764
 20
232.32648410560913
 10
65.47151849673028
 20
232.61704524728907
 10
65.68518157867594
 20
233.0589600436673
 10
65.7520534630697
 20
233.18152513905653
 10
65.80485183006354
 20
233.30597100210142
 10
65.85740242690487
 20
233.42546963086045
 10
65.90840916735765
 20
233.53746672574343
 10
65.96237119487448
 20
233.7127525376995
 10
66.19073576023824
 20
234.31397436541917
 10
66.3482427733176
 20
234.65981743894233
 10
66.4715184967303
 20
234.95037858062238
 10
66.68518157869354
 20
235.39229337703287
 10
66.7520534636614
 20
235.51485847347217
 10
66.80485183101452
 20
235.63930433719534
 10
66.85740247093743
 20
235.7588030603966
 10
66.90840961953592
 20
235.87080104514894
 10
66.96237181201778
 20
236.04608713146715
 10
67.1907659239035
 20
236.64737318453595
 10
67.3289016360105
 20
236.9506703831458
 10
66.1578334895894
 20
241.2535625747405
 10
64.9057022370398
 20
242.03317090356722
 10
63.97923585167155
 20
241.9315978102386
 10
56.78601601300761
 20
231.8822218226269
 10
57.5883579114452
 20
227.9284682031721
 10
62.920348913459115
 20
226.45329797529612
 10
62.995559657999316
 20
226.61944688699498
 10
63.106407503179355
 20
226.89326874242252
 10
63.18600830155778
 20
227.0790189526989
 10
63.23976927494093
 20
227.19778293082413
 10
63.29530084458308
 20
227.3783433742846
  0
LWPOLYLINE
  5
55
330
17
100
AcDbEntity
  8
default
100
AcDbPolyline
 90
6
 70
0
 10
52.020035553723574
 20
247.66893221391365
 10
48.13659312296659
 20
246.50439320364967
 10
44.778447705321014
 20
236.87342867581174
 10
53.81857560714707
 20
234.6088242828846
 10
59.952129498589784
 20
243.1777809644118
 10
52.020035553723574
 20
247.66893221391365
  0
LWPOLYLINE
  5
56
330
17
100
AcDbEntity
  8
default
100
AcDbPolyline
 90
35
 70
0
 10
35.88988470476342
 20
249.44123979265873
 10
35.82590959325323
 20
249.29769472495784
 10
35.64078636310385
 20
248.9248832226644
 10
35.57798528856335
 20
248.81061420473915
 10
35.52800832877811
 20
248.69289771922587
 10
35.475900698726335
 20
248.57444766145596
 10
35.42491252663648
 20
248.4624956640323
 10
35.37096090416982
 20
248.28724417387627
 10
35.14256736539301
 20
247.6859600287992
 10
34.98482528160034
 20
247.33961418750798
 10
34.86134166211167
 20
247.0487590060977
 10
34.640786363103665
 20
246.59450866335723
 10
34.55655137143012
 20
246.44123979265873
 10
34.492576259919836
 20
246.29769472495764
 10
34.30745302977033
 20
245.92488322266402
 10
34.244651955230005
 20
245.81061420473912
 10
34.1946749954448
 20
245.69289771922593
 10
34.14256736539317
 20
245.57444766145636
 10
34.0915791933032
 20
245.46249566403242
 10
34.037627570836435
 20
245.28724417387608
 10
33.80923403205985
 20
244.68596002879957
 10
33.65149194826702
 20
244.33961418750795
 10
33.528008328778036
 20
244.04875900609704
 10
33.30745302977045
 20
243.59450866335752
 10
33.22321803809691
 20
243.44123979265902
 10
33.17160966848387
 20
243.32544277823948
 10
39.91212401725352
 20
236.4676988082938
 10
40.52475508349016
 20
236.82321937009692
 10
44.13093400374055
 20
247.1655294666998
 10
36.6486554945015
 20
251.14076588800887
 10
36.4759006987151
 20
250.6859600287687
 10
36.318158614928294
 20
250.33961418749533
 10
36.194674995444885
 20
250.0487590060975
 10
35.97411969643699
 20
249.5945086633573
 10
35.88988470476342
 20
249.44123979265873
  0
LWPOLYLINE
  5
57
330
17
100
AcDbEntity
  8
default
100
AcDbPolyline
 90
59
 70
0
 10
71.34850883948528
 20
245.9937208554593
 10
71.47199311728312
 20
246.28457698906544
 10
71.69259430542891
 20
246.73891005198047
 10
71.77711941787338
 20
246.89269964733467
 10
71.84129284323346
 20
247.03658783984665
 10
72.03337074657904
 20
247.4217768473558
 10
72.11359674665174
 20
247.56668457484878
 10
72.1746261765667
 20
247.70352337239197
 10
72.3592609720954
 20
248.07521928503158
 10
72.42203485690918
 20
248.1894335116103
 10
72.47199311728308
 20
248.3071057101539
 10
72.52409934532176
 20
248.42555245856698
 10
72.57508748963758
 20
248.53750438870048
 10
72.62903909664325
 20
248.71275582829
 10
72.85743267866643
 20
249.31404006746487
 10
73.01517550666779
 20
249.66038752325434
 10
73.13865978490229
 20
249.95124365749484
 10
73.35926104121987
 20
250.40557684393482
 10
73.44378708425106
 20
250.55936812199167
 10
73.5079611483876
 20
250.70325743556623
 10
73.70008562398937
 20
251.08852984761887
 10
73.78060432185202
 20
251.23395942674844
 10
73.84183120311793
 20
251.37114348003158
 10
74.0334670326876
 20
251.7552997259405
 10
74.11395791786825
 20
251.90067226123614
 10
74.17516453645138
 20
252.03781091424904
 10
74.36675229065582
 20
252.42188033043305
 10
74.44695136467067
 20
252.5667326180403
 10
74.50796114838776
 20
252.70352706948265
 10
74.69259437455266
 20
253.07521943411422
 10
74.7553682189446
 20
253.1894335793809
 10
74.80532645156927
 20
253.3071057124042
 10
74.85743267866638
 20
253.42555245859768
 10
74.90842082297502
 20
253.53750438871378
 10
74.96237242997667
 20
253.7127558282902
 10
75.19076601199977
 20
254.31404006746487
 10
75.34850884000113
 20
254.66038752325434
 10
75.47199311823563
 20
254.95124365749484
 10
75.69259437455321
 20
255.40557684393482
 10
75.77712041758447
 20
255.5593681219918
 10
75.84129448172101
 20
255.70325743556634
 10
76.03341895734074
 20
256.08852984765144
 10
76.11393765583635
 20
256.23395942792166
 10
76.17516453753193
 20
256.371143481972
 10
76.36680043632836
 20
256.7552998524401
 10
76.44729225804915
 20
256.9006740692386
 10
76.50849951118676
 20
257.0378138472239
 10
76.70013383995145
 20
257.4219666693641
 10
76.78062562165069
 20
257.5673408039249
 10
76.84183284560049
 20
257.7044805163172
 10
76.88990103570409
 20
257.800838674013
 10
76.71554178744555
 20
257.92849815124646
 10
70.51284159254283
 20
255.4542264258489
 10
67.6934432447888
 20
245.00941606378183
 10
68.34907288756222
 20
244.60120460065082
 10
70.91378712338229
 20
244.88826911872192
 10
70.9623724295702
 20
245.0460891602973
 10
71.19076601197695
 20
245.64737340074223
 10
71.34850883948528
 20
245.9937208554593
  0
LWPOLYLINE
  5
58
330
17
100
AcDbEntity
  8
default
100
AcDbPolyline
 90
7
 70
0
 10
54.86479445267469
 20
259.53546506818384
 10
54.33599787764251
 20
250.95429826434702
 10
63.296719597652555
 20
245.88073801295832
 10
63.80038161901757
 20
245.93595697218552
 10
66.6402891529724
 20
256.4567461553961
 10
60.618929248768836
 20
263.65328160719946
 10
54.86479445267469
 20
259.53546506818384
  0
LWPOLYLINE
  5
59
330
17
100
AcDbEntity
  8
default
100
AcDbPolyline
 90
47
 70
0
 10
42.491500487733106
 20
263.6288528170166
 10
42.299866160048346
 20
263.24469999729615
 10
42.2193743789927
 20
263.0993258638978
 10
42.15816715548028
 20
262.9621861522901
 10
41.96653289700465
 20
262.578033457097
 10
41.886042051855874
 20
262.4326610040602
 10
41.8248354624683
 20
262.2955224166578
 10
41.63324770932601
 20
261.9114530028615
 10
41.55304863532179
 20
261.766600715276
 10
41.49203885161237
 20
261.62980626385087
 10
41.30740562544656
 20
261.2581138992176
 10
41.24463178105525
 20
261.14389975395216
 10
41.19467354843105
 20
261.02622762092994
 10
41.142567321333736
 20
260.907780874736
 10
41.09157917702496
 20
260.7958289446196
 10
41.03762757002322
 20
260.6205775050429
 10
40.80923398800043
 20
260.019293265869
 10
40.651491159998706
 20
259.67294581007866
 10
40.528006881764206
 20
259.38208967583824
 10
40.307405625447196
 20
258.92775648939937
 10
40.22287958241571
 20
258.77396521134193
 10
40.158705518279
 20
258.63007589776703
 10
39.966581042659485
 20
258.2448034856823
 10
39.88606234416385
 20
258.09937390541205
 10
39.82483546246826
 20
257.9621898513616
 10
39.6331995636893
 20
257.57803348092506
 10
39.55270774260192
 20
257.432659265268
 10
39.491500489894285
 20
257.2955194880507
 10
39.29986623035607
 20
256.9113667904689
 10
39.219375385196884
 20
256.76599433741075
 10
39.15816879580149
 20
256.6288557499908
 10
38.96658104265937
 20
256.2447863361949
 10
38.88638196865511
 20
256.0999340486094
 10
38.8253721849457
 20
255.96313959718424
 10
38.640738958780275
 20
255.59144723255167
 10
38.57796511438861
 20
255.47723308728553
 10
38.52800688176419
 20
255.35956095426283
 10
38.475900654667164
 20
255.24111420806952
 10
38.42491251035846
 20
255.12916227795324
 10
38.37096090335672
 20
254.95391083837652
 10
38.308160912732134
 20
254.78857937744533
 10
46.79688984667882
 20
250.27862904779613
 10
50.352477446664125
 20
251.34485329082236
 10
50.85172721417621
 20
259.44654254987836
 10
42.59263452071909
 20
263.83810331123647
 10
42.552707711674984
 20
263.76599252939116
 10
42.491500487733106
 20
263.6288528170166
  0
LWPOLYLINE
  5
5A
330
17
100
AcDbEntity
  8
default
100
AcDbPolyline
 90
7
 70
0
 10
63.3528218944557
 20
268.5108048785478
 10
63.08799329865724
 20
266.93569898372516
 10
69.44703518878669
 20
259.3355768965557
 10
75.19425724586472
 20
261.62815731950104
 10
76.00524457264692
 20
267.080824281089
 10
70.89389694482088
 20
273.1897423649207
 10
63.3528218944557
 20
268.5108048785478
  0
LWPOLYLINE
  5
5B
330
17
100
AcDbEntity
  8
default
100
AcDbPolyline
 90
6
 70
0
 10
59.379942004568875
 20
269.0060298005119
 10
50.3135183644481
 20
277.47955374000594
 10
44.83683556178585
 20
267.1751151867211
 10
52.771402910817415
 20
262.95611245557666
 10
59.12752193817869
 20
267.5047254068777
 10
59.379942004568875
 20
269.0060298005119
  0
LWPOLYLINE
  5
5C
330
17
100
AcDbEntity
  8
default
100
AcDbPolyline
 90
31
 70
0
 10
83.78062562215904
 20
271.567340805067
 10
83.84183284561686
 20
271.704480516354
 10
84.03346717330307
 20
272.0886333360698
 10
84.11395895499183
 20
272.234007470609
 10
84.17516617893398
 20
272.37114718298415
 10
84.366800506636
 20
272.7553000027356
 10
84.44729228832499
 20
272.90067413727536
 10
84.50849951226722
 20
273.03781384965066
 10
84.7001338399695
 20
273.42196666940265
 10
84.78062562165823
 20
273.5673408039419
 10
84.8418328456004
 20
273.70448051631706
 10
85.03346717330312
 20
274.0886333360699
 10
85.11395895499179
 20
274.23400747060896
 10
85.17516617893364
 20
274.37114718298346
 10
85.36680050663634
 20
274.7553000027363
 10
85.44729228833484
 20
274.90067413729315
 10
85.50849951228948
 20
275.0378138496933
 10
85.70013384115444
 20
275.42196667153803
 10
85.7806256610081
 20
275.567340874839
 10
85.8418329333678
 20
275.7044806840431
 10
86.03346898712611
 20
276.0886365931726
 10
86.1139867693851
 20
276.2340574329827
 10
86.1752267854167
 20
276.37126262237047
 10
86.2913517861364
 20
276.6039714455938
 10
83.3584053805098
 20
280.10933454008773
 10
73.54956159600988
 20
276.36872702278197
 10
73.52444662619382
 20
276.2791573149152
 10
78.83857023948804
 20
269.92788790306076
 10
83.56431513141277
 20
271.14970262178866
 10
83.70013384066746
 20
271.4219666710508
 10
83.78062562215904
 20
271.567340805067
  0
LWPOLYLINE
  5
5D
330
17
100
AcDbEntity
  8
default
100
AcDbPolyline
 90
27
 70
0
 10
53.89171540158077
 20
285.8504171553733
 10
53.61184411881065
 20
285.3960225106431
 10
53.42943890691524
 20
285.1324873078949
 10
53.33656112605905
 20
284.9619295465284
 10
53.27911750668702
 20
284.8593329081845
 10
53.20101021253399
 20
284.723599301738
 10
53.151485425304536
 20
284.61363821778747
 10
52.96619863260979
 20
284.24389259989914
 10
52.88578359415823
 20
284.09874013828806
 10
52.824790364070836
 20
283.96208786045065
 10
52.63319844757793
 20
283.5780308415315
 10
52.55270694197099
 20
283.4326574592234
 10
52.491500423760804
 20
283.2955193397518
 10
52.299866159332666
 20
282.9113666622828
 10
52.219374377840985
 20
282.7659925282664
 10
52.158167154383065
 20
282.6288528169792
 10
51.96653282669724
 20
282.2446999972641
 10
51.88604104500833
 20
282.0993258627245
 10
51.82483382106623
 20
281.9621861503495
 10
51.68190434578223
 20
281.6756677503616
 10
61.77718028938398
 20
272.2405734085478
 10
69.5984827359207
 20
277.09338086191565
 10
69.77130313171074
 20
277.7097253156826
 10
66.89381081424654
 20
283.95140609750524
 10
54.21435057442003
 20
286.43006996605817
 10
54.084268122119845
 20
286.2040147613566
 10
53.89171540158077
 20
285.8504171553733
  0
LWPOLYLINE
  5
5E
330
17
100
AcDbEntity
  8
default
100
AcDbPolyline
 90
7
 70
0
 10
73.8084233221598
 20
291.8550142417662
 10
70.5131077603437
 20
285.65484199346974
 10
72.92953840829432
 20
280.4132680557668
 10
82.26077886950225
 20
283.9717413051985
 10
82.66044703265652
 20
285.75661326758564
 10
77.96800646744668
 20
292.4130185660906
 10
73.8084233221598
 20
291.8550142417662
  0
LWPOLYLINE
  5
5F
330
17
100
AcDbEntity
  8
default
100
AcDbPolyline
 90
42
 70
0
 10
60.7506766886791
 20
298.2035287612264
 10
60.55835028276642
 20
297.8503581831449
 10
60.278509738554774
 20
297.3960206772062
 10
60.09608471001442
 20
297.1324571937838
 10
60.003178881541096
 20
296.9618534485864
 10
59.945230551994925
 20
296.85838316918
 10
59.86303751100942
 20
296.7156205537993
 10
59.808565319248544
 20
296.5957425783686
 10
59.58963813159777
 20
296.16945741624244
 10
59.41734338102751
 20
295.8701954721971
 10
59.22501702005783
 20
295.5170249600069
 10
58.945177312112236
 20
295.0626886437609
 10
58.762771833800414
 20
294.7991532311949
 10
58.66989434189644
 20
294.6285960165267
 10
58.61244917865671
 20
294.5259967046086
 10
58.534315491311844
 20
294.3902174388641
 10
58.48475860248462
 20
294.2801913401862
 10
58.298928872381026
 20
293.9094841666361
 10
58.21450051728062
 20
293.75717449438093
 10
58.148466495141136
 20
293.61056589952943
 10
57.923254559048814
 20
293.1701354191291
 10
57.75093400277681
 20
292.8706799675591
 10
57.55838202139154
 20
292.5170837355981
 10
57.27851078478842
 20
292.0626891761032
 10
57.09610554436639
 20
291.7991539323707
 10
57.003227722067756
 20
291.6285961029406
 10
56.94578251258706
 20
291.5259967060008
 10
56.86764882509425
 20
291.3902174398635
 10
56.81809193583434
 20
291.2801913402226
 10
56.63226220571429
 20
290.909484166636
 10
56.54783385061406
 20
290.75717449438116
 10
56.48179982847465
 20
290.6105658995298
 10
56.25658789238241
 20
290.17013541912956
 10
56.22369956078852
 20
290.1129826893456
 10
67.21111294068396
 20
287.96509121451527
 10
70.15682194614783
 20
293.50747490581125
 10
65.34176125843078
 20
299.82341243093833
 10
61.201524046618765
 20
299.0579045796205
 10
61.196370844332776
 20
299.04895388711526
 10
61.14189865255966
 20
298.92907591166016
 10
60.922971463848825
 20
298.5027907477004
 10
60.7506766886791
 20
298.2035287612264
  0
LWPOLYLINE
  5
60
330
17
100
AcDbEntity
  8
default
100
AcDbPolyline
 90
16
 70
0
 10
92.25190488927984
 20
298.15142332338144
 10
91.20815353647914
 20
297.5258228380134
 10
90.10810856116387
 20
297.0055403127931
 10
88.9623639977921
 20
296.5955863528536
 10
87.78195399283676
 20
296.299909038933
 10
86.57824653992331
 20
296.1213559051978
 10
85.36283399983677
 20
296.06164651593303
 10
84.14742145975022
 20
296.1213559051978
 10
82.94371400683677
 20
296.299909038933
 10
82.43541631340082
 20
296.427230983034
 10
81.30481663206592
 20
294.62196051562205
 10
85.4306805273518
 20
288.7692657597363
 10
92.88149812398478
 20
292.67040022695437
 10
93.35832203412428
 20
297.7563884346746
 10
92.78968534119979
 20
298.55026848932226
 10
92.25190488927984
 20
298.15142332338144
  0
LWPOLYLINE
  5
61
330
17
100
AcDbEntity
  8
default
100
AcDbPolyline
 90
27
 70
0
 10
66.9229698055734
 20
308.836121217569
 10
66.750658252108
 20
308.53683054231016
 10
66.55830149123841
 20
308.1836156210928
 10
66.27820412809402
 20
307.72891980304416
 10
66.09269701111138
 20
307.4609615890338
 10
65.9954132489562
 20
307.28321328811995
 10
65.90593668613575
 20
307.1265117279744
 10
65.73335999054592
 20
306.8365550838328
 10
65.55354342421377
 20
306.50801013004394
 10
65.27847299397288
 20
306.06252200225634
 10
65.09595988638453
 20
305.79888852480093
 10
65.00314721569902
 20
305.62846134555355
 10
64.94522966078348
 20
305.5250477394459
 10
64.86303677796042
 20
305.3822856152188
 10
64.80856517014657
 20
305.26240894432095
 10
64.58963647224022
 20
304.83612121756914
 10
64.41732491877494
 20
304.5368305423105
 10
64.22496815790527
 20
304.18361562109294
 10
63.94487079476072
 20
303.728919803044
 10
63.86866417178097
 20
303.61884213636705
 10
64.93392653483897
 20
303.81580348452553
 10
67.88468356663361
 20
308.75485749403015
 10
67.32922754581192
 20
309.6155108814108
 10
67.27856299411654
 20
309.52504773944537
 10
67.1963701112936
 20
309.3822856152185
 10
67.1418985034799
 20
309.262408944321
 10
66.9229698055734
 20
308.836121217569
  0
LWPOLYLINE
  5
62
330
17
100
AcDbEntity
  8
default
100
AcDbPolyline
 90
45
 70
0
 10
75.11261288594507
 20
322.30845120567096
 10
74.94445227077286
 20
322.0529583696104
 10
74.75042625013776
 20
321.776937734565
 10
74.65721569804576
 20
321.60748608548244
 10
74.5718553762322
 20
321.4584274808202
 10
74.39662934209446
 20
321.1642774382636
 10
74.21241804140725
 20
320.8293810137258
 10
73.92221033750072
 20
320.36416375618495
 10
73.66031599174879
 20
319.99151963897646
 10
73.44945368555287
 20
319.64765375972405
 10
73.27780275904172
 20
319.38642284462196
 10
73.0838755279578
 20
319.11048774701055
 10
72.99058001936099
 20
318.940876362908
 10
72.90518946133814
 20
318.7917625812565
 10
72.72996338135495
 20
318.4976120706119
 10
72.54575142060351
 20
318.1627144308266
 10
72.25554367144467
 20
317.697497090588
 10
71.99364934540564
 20
317.3248530011295
 10
71.78278707735332
 20
316.9809871737009
 10
71.6111369394076
 20
316.7197573733241
 10
71.41722893950298
 20
316.44384947132744
 10
71.32396146850502
 20
316.2742837717049
 10
71.23902940916865
 20
316.1259354253775
 10
71.06644295795451
 20
315.8360897367459
 10
70.8867969337632
 20
315.50787722012154
 10
70.61150085911746
 20
315.0620877601784
 10
70.4259050673023
 20
314.7940597818893
 10
70.32871513887633
 20
314.6164885750699
 10
70.23926774071712
 20
314.45984074196656
 10
70.06667408163258
 20
314.1698563705184
 10
69.8868282585511
 20
313.84126840012215
 10
69.63053754969117
 20
313.42624815894567
 10
71.25436699902639
 20
310.9101996081881
 10
73.2599787368604
 20
311.11583748419946
 10
73.49677383675737
 20
312.06117651388837
 10
73.90672779669681
 20
313.2069210772601
 10
74.42701032191717
 20
314.3069660525754
 10
75.0526108072852
 20
315.3507174053761
 10
75.77750437813883
 20
316.3281232395622
 10
76.59470991312358
 20
317.2297706026462
 10
77.49635727620756
 20
318.04697613763096
 10
78.20903763034211
 20
318.57553591159217
 10
75.45768633211262
 20
322.83862736431945
 10
75.3191666504539
 20
322.64420737871455
 10
75.11261288594507
 20
322.30845120567096
  0
LWPOLYLINE
  5
63
330
17
100
AcDbEntity
  8
default
100
AcDbPolyline
 90
19
 70
0
 10
78.77278662199207
 20
327.96627598549435
 10
78.58953934774935
 20
327.6902615342301
 10
78.31662679355685
 20
327.3073548732089
 10
78.10615991659955
 20
326.9663305731912
 10
77.92314119834569
 20
326.69063170411005
 10
77.82303046464143
 20
326.5501467244731
 10
81.82839983059806
 20
320.34401233526876
 10
82.94371400683677
 20
320.62338399293304
 10
84.14742145975022
 20
320.80193712666824
 10
85.36283399983677
 20
320.861646515933
 10
86.57824653992331
 20
320.80193712666824
 10
87.78195399283676
 20
320.62338399293304
 10
88.2401492035576
 20
320.50861206742536
 10
92.56364423269406
 20
322.15152461640537
 10
87.2856104108505
 20
330.32959365751594
 10
79.35661937603405
 20
328.84151006037786
 10
79.25620524686515
 20
328.69026076667905
 10
78.9832796493971
 20
328.3073358054478
 10
78.77278662199207
 20
327.96627598549435
  0
LWPOLYLINE
  5
64
330
17
100
AcDbEntity
  8
default
100
AcDbPolyline
 90
19
 70
0
 10
84.6499459515087
 20
336.9740018755505
 10
84.43945319685473
 20
336.63294251757543
 10
84.2562052210325
 20
336.35692709695275
 10
83.98327928507531
 20
335.97400187592996
 10
83.77278653021119
 20
335.63294251760937
 10
83.5895385548784
 20
335.3569270976696
 10
83.31661263818792
 20
334.97400190353727
 10
83.10611992132579
 20
334.6329425967734
 10
82.92287268105628
 20
334.3569282006658
 10
82.64996012666117
 20
333.9740215395019
 10
82.43949324992393
 20
333.6329972398434
 10
82.33100197906903
 20
333.46956630247735
 10
86.8537616636604
 20
334.3183810468763
 10
87.88242906208642
 20
336.5482709257436
 10
85.49756364464537
 20
338.2278826561747
 10
85.31661227386223
 20
337.9740013073477
 10
85.10611982953057
 20
337.63294246220215
 10
84.92287188767247
 20
337.35692709672145
 10
84.6499459515087
 20
336.9740018755505
  0
LWPOLYLINE
  5
65
330
17
100
AcDbEntity
  8
default
100
AcDbPolyline
 90
37
 70
0
 10
88.7852410640396
 20
281.2422424833179
 10
88.85149049822589
 20
281.3893377057633
 10
89.0767445482218
 20
281.82986248005784
 10
89.24906521069674
 20
282.1293185710235
 10
89.44161793174044
 20
282.48291617793774
 10
89.72148921452252
 20
282.93731082269005
 10
89.90389442642518
 20
283.20084602544875
 10
89.99677220729237
 20
283.3714037868334
 10
90.05421582773037
 20
283.47400042702844
 10
90.13232316056174
 20
283.6097341005538
 10
90.18184799513963
 20
283.7196952805087
 10
90.36713651230815
 20
284.0894439846471
 10
90.44757756112982
 20
284.2346431432504
 10
90.50860357288474
 20
284.3713609000893
 10
90.70073871151982
 20
284.7563795171916
 10
90.78524183691833
 20
284.90891087881545
 10
90.85149056152453
 20
285.05600451356037
 10
91.07674454881915
 20
285.4965291481175
 10
91.24906521121389
 20
285.7959852386443
 10
91.44161793175283
 20
286.1495828446272
 10
91.72148921452256
 20
286.60397748935674
 10
91.90389442642507
 20
286.8675126921152
 10
91.99677220729204
 20
287.03807045349953
 10
92.05421582773059
 20
287.1406670936956
 10
92.1323231605619
 20
287.2764007672208
 10
92.18184799513983
 20
287.38636194717577
 10
92.36713651230798
 20
287.7561106513134
 10
92.44757756112946
 20
287.9013098099164
 10
92.46317815035856
 20
287.93626011231095
 10
86.55487102689222
 20
284.84276060480624
 10
86.14498688839376
 20
283.01226527569816
 10
88.34644202964172
 20
280.3811569843396
 10
88.36680336623847
 20
280.4219724155537
 10
88.44732087244992
 20
280.5673925031154
 10
88.5085601827175
 20
280.70459609961625
 10
88.70073766866977
 20
281.08971036899516
 10
88.7852410640396
 20
281.2422424833179
  0
LWPOLYLINE
  5
66
330
17
100
AcDbEntity
  8
default
100
AcDbPolyline
 90
61
 70
0
 10
100.05516566982541
 20
301.2712450434932
 10
100.24076122170159
 20
301.53927285281145
 10
100.33795148144137
 20
301.7168446731838
 10
100.42739892544228
 20
301.87349259018754
 10
100.5999925845695
 20
302.1634769619624
 10
100.7798384081037
 20
302.4920649331896
 10
101.0551656699254
 20
302.93791171051777
 10
101.24076122194862
 20
303.2059395199315
 10
101.33795148145379
 20
303.38351133987305
 10
101.4273989254426
 20
303.5401592568547
 10
101.5999925845695
 20
303.8301436286289
 10
101.7798384081032
 20
304.1587315998554
 10
102.05516566992544
 20
304.60457837718445
 10
102.24076122194842
 20
304.8726061865978
 10
102.33795148145342
 20
305.0501780065391
 10
102.42739892544256
 20
305.20682592352136
 10
102.59999258456972
 20
305.49681029529603
 10
102.7798384081034
 20
305.8253982665224
 10
103.05516566992549
 20
306.27124504385125
 10
103.24076122194849
 20
306.53927285326466
 10
103.3379514814534
 20
306.7168446732058
 10
103.42739892544235
 20
306.8734925901877
 10
103.59999258456982
 20
307.16347696196294
 10
103.77983840810363
 20
307.4920649331895
 10
104.05516566992542
 20
307.93791171051777
 10
104.24076122195557
 20
308.2059395199415
 10
104.33795148147145
 20
308.38351133990056
 10
104.42739892643625
 20
308.54015925852025
 10
104.59999261045878
 20
308.83014367186814
 10
104.77983847823008
 20
309.1587317087033
 10
105.0551665750999
 20
309.60457967403914
 10
105.2407814037077
 20
309.8726351442933
 10
105.3379999319511
 20
310.0502529789263
 10
105.42790612386361
 20
310.20766677432164
 10
105.60313854688262
 20
310.5019561693652
 10
105.78755092261589
 20
310.83722861940646
 10
106.077789582407
 20
311.3025024815945
 10
106.33968361708163
 20
311.6751463834297
 10
106.55054622131195
 20
312.01901276946063
 10
106.72219639386336
 20
312.28024262638394
 10
106.91610439360808
 20
312.5561505282639
 10
107.00937186483448
 20
312.72571622830174
 10
107.09430392515748
 20
312.87406457628606
 10
107.26689040127351
 20
313.16391030648407
 10
107.44653646969387
 20
313.492122888718
 10
107.72183337938762
 20
313.9379135366716
 10
107.9074484477954
 20
314.20596917579485
 10
107.92784907087172
 20
314.2432410250367
 10
107.91923535754904
 20
314.25785829359666
 10
102.34312206180766
 20
315.7129018283449
 10
97.64889801773062
 20
306.8806679810984
 10
97.52457147683683
 20
306.04252652293303
 10
97.22889416291616
 20
304.86211651797765
 10
96.81894020297672
 20
303.7163719546059
 10
96.29865767775637
 20
302.61632697929065
 10
95.67305719238833
 20
301.57257562648994
 10
95.6079781557128
 20
301.4848267034929
 10
96.40440680179745
 20
300.37292375182733
 10
99.63279864073894
 20
300.5567487076535
 10
99.77983836176632
 20
300.82539818146444
 10
100.05516566982541
 20
301.2712450434932
  0
LWPOLYLINE
  5
67
330
17
100
AcDbEntity
  8
default
100
AcDbPolyline
 90
6
 70
0
 10
108.54904816718772
 20
318.22745277173817
 10
110.62037448136445
 20
320.53440298467575
 10
103.3983039395562
 20
325.6207589321898
 10
101.92639928124845
 20
320.3311073812656
 10
102.3872428345494
 20
319.83532810304314
 10
108.54904816718772
 20
318.22745277173817
  0
LWPOLYLINE
  5
68
330
17
100
AcDbEntity
  8
default
100
AcDbPolyline
 90
8
 70
0
 10
94.46879457820596
 20
331.90962897099087
 10
91.20730705464155
 20
334.2066276457049
 10
90.51404039375484
 20
332.7038014526479
 10
92.73913320519868
 20
329.2561231599866
 10
93.19798359049445
 20
330.0571974287956
 10
93.78890176884445
 20
330.9521043847956
 10
94.43547993374446
 20
331.8623209653956
 10
94.46879457820596
 20
331.90962897099087
  0
LWPOLYLINE
  5
69
330
17
100
AcDbEntity
  8
default
100
AcDbPolyline
 90
65
 70
0
 10
23.914278164813307
 20
147.587872940936
 10
23.70930118484359
 20
148.16074522262187
 10
23.449159922233413
 20
148.7107677102795
 10
23.136359679549393
 20
149.23264338667985
 10
22.77391289412258
 20
149.72134630377292
 10
22.365310126630206
 20
150.17216998531492
 10
21.914486445088215
 20
150.5807727528073
 10
21.425783527995144
 20
150.9432195382341
 10
20.9039078515948
 20
151.2560197809181
 10
20.35388536393717
 20
151.51616104352829
 10
19.781013082251278
 20
151.721138023498
 10
19.190808079773607
 20
151.86897668045833
 10
18.588954353316886
 20
151.95825324732593
 10
17.981248083273613
 20
151.9881079419583
 10
17.37354181323034
 20
151.95825324732593
 10
16.771688086773615
 20
151.86897668045833
 10
16.181483084295945
 20
151.721138023498
 10
15.608610802610052
 20
151.51616104352829
 10
15.058588314952425
 20
151.2560197809181
 10
14.536712638552078
 20
150.9432195382341
 10
14.048009721459009
 20
150.5807727528073
 10
13.597186039917016
 20
150.17216998531492
 10
13.188583272424642
 20
149.72134630377292
 10
12.82613648699783
 20
149.23264338667985
 10
12.513336244313813
 20
148.7107677102795
 10
12.253194981703635
 20
148.16074522262187
 10
12.048218001733918
 20
147.587872940936
 10
11.900379344773583
 20
146.9976679384583
 10
11.811102777905992
 20
146.3958142120016
 10
11.781248083273614
 20
145.78810794195832
 10
11.811102777905992
 20
145.18040167191504
 10
11.900379344773583
 20
144.57854794545833
 10
12.048218001733918
 20
143.98834294298064
 10
12.253194981703635
 20
143.41547066129476
 10
12.513336244313813
 20
142.86544817363713
 10
12.826136486997832
 20
142.34357249723678
 10
13.188583272424644
 20
141.8548695801437
 10
13.59718603991702
 20
141.4040458986017
 10
14.04800972145901
 20
140.99544313110934
 10
14.53671263855208
 20
140.63299634568253
 10
15.058588314952427
 20
140.32019610299852
 10
15.608610802610055
 20
140.06005484038835
 10
16.181483084295948
 20
139.85507786041862
 10
16.77168808677362
 20
139.7072392034583
 10
17.373541813230336
 20
139.6179626365907
 10
17.981248083273613
 20
139.58810794195833
 10
18.58895435331689
 20
139.6179626365907
 10
19.190808079773607
 20
139.7072392034583
 10
19.781013082251278
 20
139.85507786041862
 10
20.35388536393717
 20
140.06005484038835
 10
20.9039078515948
 20
140.32019610299852
 10
21.425783527995147
 20
140.63299634568253
 10
21.914486445088215
 20
140.99544313110934
 10
22.365310126630206
 20
141.4040458986017
 10
22.77391289412258
 20
141.8548695801437
 10
23.136359679549393
 20
142.34357249723678
 10
23.449159922233413
 20
142.86544817363713
 10
23.70930118484359
 20
143.41547066129476
 10
23.914278164813307
 20
143.98834294298064
 10
24.062116821773643
 20
144.57854794545833
 10
24.15139338864123
 20
145.18040167191504
 10
24.181248083273612
 20
145.78810794195832
 10
24.15139338864123
 20
146.3958142120016
 10
24.062116821773643
 20
146.9976679384583
 10
23.914278164813307
 20
147.587872940936
  0
LWPOLYLINE
  5
6A
330
17
100
AcDbEntity
  8
default
100
AcDbPolyline
 90
65
 70
0
 10
91.53297930520439
 20
309.06935278597626
 10
91.4437027383368
 20
309.671206512433
 10
91.29586408137646
 20
310.26141151491066
 10
91.09088710140674
 20
310.8342837965966
 10
90.83074583879656
 20
311.3843062842542
 10
90.51794559611255
 20
311.9061819606545
 10
90.15549881068573
 20
312.39488487774764
 10
89.74689604319336
 20
312.8457085592896
 10
89.29607236165137
 20
313.254311326782
 10
88.8073694445583
 20
313.6167581122088
 10
88.28549376815795
 20
313.92955835489283
 10
87.73547128050032
 20
314.189699617503
 10
87.16259899881443
 20
314.3946765974727
 10
86.57239399633676
 20
314.54251525443306
 10
85.97054026988003
 20
314.6317918213006
 10
85.36283399983677
 20
314.661646515933
 10
84.75512772979349
 20
314.6317918213006
 10
84.15327400333678
 20
314.54251525443306
 10
83.5630690008591
 20
314.3946765974727
 10
82.99019671917321
 20
314.189699617503
 10
82.44017423151558
 20
313.92955835489283
 10
81.91829855511523
 20
313.6167581122088
 10
81.42959563802216
 20
313.254311326782
 10
80.97877195648017
 20
312.8457085592896
 10
80.57016918898779
 20
312.3948848777476
 10
80.20772240356098
 20
311.9061819606545
 10
79.89492216087696
 20
311.3843062842542
 10
79.63478089826678
 20
310.8342837965966
 10
79.42980391829707
 20
310.26141151491066
 10
79.28196526133674
 20
309.671206512433
 10
79.19268869446914
 20
309.06935278597626
 10
79.16283399983676
 20
308.461646515933
 10
79.19268869446914
 20
307.85394024588976
 10
79.28196526133674
 20
307.252086519433
 10
79.42980391829707
 20
306.66188151695536
 10
79.63478089826678
 20
306.08900923526943
 10
79.89492216087696
 20
305.53898674761183
 10
80.20772240356098
 20
305.0171110712115
 10
80.57016918898779
 20
304.52840815411844
 10
80.97877195648017
 20
304.0775844725764
 10
81.42959563802216
 20
303.66898170508404
 10
81.91829855511523
 20
303.3065349196572
 10
82.44017423151558
 20
302.9937346769732
 10
82.99019671917321
 20
302.73359341436304
 10
83.5630690008591
 20
302.5286164343933
 10
84.15327400333678
 20
302.38077777743297
 10
84.75512772979349
 20
302.2915012105654
 10
85.36283399983677
 20
302.261646515933
 10
85.97054026988005
 20
302.2915012105654
 10
86.57239399633676
 20
302.38077777743297
 10
87.16259899881443
 20
302.5286164343933
 10
87.73547128050032
 20
302.73359341436304
 10
88.28549376815795
 20
302.9937346769732
 10
88.8073694445583
 20
303.3065349196572
 10
89.29607236165137
 20
303.66898170508404
 10
89.74689604319336
 20
304.0775844725764
 10
90.15549881068574
 20
304.52840815411844
 10
90.51794559611255
 20
305.0171110712115
 10
90.83074583879657
 20
305.53898674761183
 10
91.09088710140675
 20
306.08900923526943
 10
91.29586408137646
 20
306.66188151695536
 10
91.4437027383368
 20
307.252086519433
 10
91.53297930520439
 20
307.85394024588976
 10
91.56283399983677
 20
308.461646515933
 10
91.53297930520439
 20
309.06935278597626
  0
ENDSEC
  0
SECTION
  2
OBJECTS
  0
DICTIONARY
  5
A
330
0
100
AcDbDictionary
280
0
281
1
  3
ACAD_COLOR
350
B
  3
ACAD_GROUP
350
C
  3
ACAD_LAYOUT
350
D
  3
ACAD_MATERIAL
350
E
  3
ACAD_MLEADERSTYLE
350
F
  3
ACAD_MLINESTYLE
350
10
  3
ACAD_PLOTSETTINGS
350
11
  3
ACAD_PLOTSTYLENAME
350
12
  3
ACAD_SCALELIST
350
14
  3
ACAD_TABLESTYLE
350
15
  3
ACAD_VISUALSTYLE
350
16
  3
EZDXF_META
350
2D
  0
DICTIONARY
  5
B
330
A
100
AcDbDictionary
280
0
281
1
  0
DICTIONARY
  5
C
330
A
100
AcDbDictionary
280
0
281
1
  0
DICTIONARY
  5
D
330
A
100
AcDbDictionary
280
0
281
1
  3
Model
350
1A
  3
Layout1
350
1E
  0
DICTIONARY
  5
E
330
A
100
AcDbDictionary
280
0
281
1
  3
ByBlock
350
1F
  3
ByLayer
350
20
  3
Global
350
21
  0
DICTIONARY
  5
F
330
A
100
AcDbDictionary
280
0
281
1
  3
Standard
350
2C
  0
DICTIONARY
  5
10
330
A
100
AcDbDictionary
280
0
281
1
  3
Standard
350
22
  0
DICTIONARY
  5
11
330
A
100
AcDbDictionary
280
0
281
1
  0
ACDBDICTIONARYWDFLT
  5
12
330
A
100
AcDbDictionary
280
0
281
1
  3
Normal
350
13
100
AcDbDictionaryWithDefault
340
13
  0
ACDBPLACEHOLDER
  5
13
330
12
  0
DICTIONARY
  5
14
330
A
100
AcDbDictionary
280
0
281
1
  0
DICTIONARY
  5
15
330
A
100
AcDbDictionary
280
0
281
1
  0
DICTIONARY
  5
16
330
A
100
AcDbDictionary
280
0
281
1
  0
LAYOUT
  5
1A
330
D
100
AcDbPlotSettings
  1

  2
Adobe PDF
  4
A3
  6

 40
7.5
 41
20.0
 42
7.5
 43
20.0
 44
420.0
 45
297.0
 46
0.0
 47
0.0
 48
0.0
 49
0.0
140
0.0
141
0.0
142
1.0
143
1.0
 70
1024
 72
1
 73
0
 74
5
  7

 75
16
 76
0
 77
2
 78
300
147
1.0
148
0.0
149
0.0
100
AcDbLayout
  1
Model
 70
1
 71
0
 10
0.0
 20
0.0
 11
420.0
 21
297.0
 12
0.0
 22
0.0
 32
0.0
 14
1e+20
 24
1e+20
 34
1e+20
 15
-1e+20
 25
-1e+20
 35
-1e+20
146
0.0
 13
0.0
 23
0.0
 33
0.0
 16
1.0
 26
0.0
 36
0.0
 17
0.0
 27
1.0
 37
0.0
 76
1
330
17
  0
LAYOUT
  5
1E
330
D
100
AcDbPlotSettings
  1

  2
Adobe PDF
  4
A3
  6

 40
7.5
 41
20.0
 42
7.5
 43
20.0
 44
420.0
 45
297.0
 46
0.0
 47
0.0
 48
0.0
 49
0.0
140
0.0
141
0.0
142
1.0
143
1.0
 70
0
 72
1
 73
0
 74
5
  7

 75
16
 76
0
 77
2
 78
300
147
1.0
148
0.0
149
0.0
100
AcDbLayout
  1
Layout1
 70
1
 71
1
 10
0.0
 20
0.0
 11
420.0
 21
297.0
 12
0.0
 22
0.0
 32
0.0
 14
1e+20
 24
1e+20
 34
1e+20
 15
-1e+20
 25
-1e+20
 35
-1e+20
146
0.0
 13
0.0
 23
0.0
 33
0.0
 16
1.0
 26
0.0
 36
0.0
 17
0.0
 27
1.0
 37
0.0
 76
1
330
1B
  0
MATERIAL
  5
1F
102
{ACAD_REACTORS
330
E
102
}
330
E
100
AcDbMaterial
  1
ByBlock
  2

 70
0
 40
1.0
 71
1
 41
1.0
 91
-1023410177
 42
1.0
 72
1
  3

 73
1
 74
1
 75
1
 44
0.5
 73
0
 45
1.0
 46
1.0
 77
1
  4

 78
1
 79
1
170
1
 48
1.0
171
1
  6

172
1
173
1
174
1
140
1.0
141
1.0
175
1
  7

176
1
177
1
178
1
143
1.0
179
1
  8

270
1
271
1
272
1
145
1.0
146
1.0
273
1
  9

274
1
275
1
276
1
 42
1.0
 72
1
  3

 73
1
 74
1
 75
1
 94
63
  0
MATERIAL
  5
20
102
{ACAD_REACTORS
330
E
102
}
330
E
100
AcDbMaterial
  1
ByLayer
  2

 70
0
 40
1.0
 71
1
 41
1.0
 91
-1023410177
 42
1.0
 72
1
  3

 73
1
 74
1
 75
1
 44
0.5
 73
0
 45
1.0
 46
1.0
 77
1
  4

 78
1
 79
1
170
1
 48
1.0
171
1
  6

172
1
173
1
174
1
140
1.0
141
1.0
175
1
  7

176
1
177
1
178
1
143
1.0
179
1
  8

270
1
271
1
272
1
145
1.0
146
1.0
273
1
  9

274
1
275
1
276
1
 42
1.0
 72
1
  3

 73
1
 74
1
 75
1
 94
63
  0
MATERIAL
  5
21
102
{ACAD_REACTORS
330
E
102
}
330
E
100
AcDbMaterial
  1
Global
  2

 70
0
 40
1.0
 71
1
 41
1.0
 91
-1023410177
 42
1.0
 72
1
  3

 73
1
 74
1
 75
1
 44
0.5
 73
0
 45
1.0
 46
1.0
 77
1
  4

 78
1
 79
1
170
1
 48
1.0
171
1
  6

172
1
173
1
174
1
140
1.0
141
1.0
175
1
  7

176
1
177
1
178
1
143
1.0
179
1
  8

270
1
271
1
272
1
145
1.0
146
1.0
273
1
  9

274
1
275
1
276
1
 42
1.0
 72
1
  3

 73
1
 74
1
 75
1
 94
63
  0
MLINESTYLE
  5
22
102
{ACAD_REACTORS
330
10
102
}
330
10
100
AcDbMlineStyle
  2
Standard
 70
0
  3

 62
256
 51
90.0
 52
90.0
 71
2
 49
0.5
 62
256
  6
BYLAYER
 49
-0.5
 62
256
  6
BYLAYER
  0
MLEADERSTYLE
  5
2C
102
{ACAD_REACTORS
330
F
102
}
330
F
100
AcDbMLeaderStyle
179
2
170
2
171
1
172
0
 90
2
 40
0.0
 41
0.0
173
1
 91
-1056964608
 92
-2
290
1
 42
2.0
291
1
 43
8.0
  3
Standard
 44
4.0
300

342
29
174
1
175
1
176
0
178
1
 93
-1056964608
 45
4.0
292
0
297
0
 46
4.0
 94
-1056964608
 47
1.0
 49
1.0
140
1.0
294
1
141
0.0
177
0
142
1.0
295
0
296
0
143
3.75
271
0
272
9
273
9
  0
DICTIONARY
  5
2D
330
A
100
AcDbDictionary
281
1
  3
CREATED_BY_EZDXF
350
2E
  3
WRITTEN_BY_EZDXF
350
6D
  0
DICTIONARYVAR
  5
2E
330
2D
100
DictionaryVariables
280
0
  1
1.1.1 @ 2023-10-31T18:00:58.666858+00:00
  0
DICTIONARYVAR
  5
6D
330
2D
100
DictionaryVariables
280
0
  1
1.1.1 @ 2023-10-31T18:00:58.694356+00:00
  0
ENDSEC
  0
EOF
