  0
SECTION
  2
HEADER
  9
$ACADVER
  1
AC1024
  9
$ACADMAINTVER
 70
6
  9
$DWGCODEPAGE
  3
ANSI_1252
  9
$LASTSAVEDBY
  1
ezdxf
  9
$INSBASE
 10
0.0
 20
0.0
 30
0.0
  9
$EXTMIN
 10
1e+20
 20
1e+20
 30
1e+20
  9
$EXTMAX
 10
-1e+20
 20
-1e+20
 30
-1e+20
  9
$LIMMIN
 10
0.0
 20
0.0
  9
$LIMMAX
 10
420.0
 20
297.0
  9
$ORTHOMODE
 70
0
  9
$REGENMODE
 70
1
  9
$FILLMODE
 70
1
  9
$QTEXTMODE
 70
0
  9
$MIRRTEXT
 70
1
  9
$LTSCALE
 40
1.0
  9
$ATTMODE
 70
1
  9
$TEXTSIZE
 40
2.5
  9
$TRACEWID
 40
1.0
  9
$TEXTSTYLE
  7
Standard
  9
$CLAYER
  8
0
  9
$CELTYPE
  6
ByLayer
  9
$CECOLOR
 62
256
  9
$CELTSCALE
 40
1.0
  9
$DISPSILH
 70
0
  9
$DIMSCALE
 40
1.0
  9
$DIMASZ
 40
2.5
  9
$DIMEXO
 40
0.625
  9
$DIMDLI
 40
3.75
  9
$DIMRND
 40
0.0
  9
$DIMDLE
 40
0.0
  9
$DIMEXE
 40
1.25
  9
$DIMTP
 40
0.0
  9
$DIMTM
 40
0.0
  9
$DIMTXT
 40
2.5
  9
$DIMCEN
 40
2.5
  9
$DIMTSZ
 40
0.0
  9
$DIMTOL
 70
0
  9
$DIMLIM
 70
0
  9
$DIMTIH
 70
0
  9
$DIMTOH
 70
0
  9
$DIMSE1
 70
0
  9
$DIMSE2
 70
0
  9
$DIMTAD
 70
1
  9
$DIMZIN
 70
8
  9
$DIMBLK
  1

  9
$DIMASO
 70
1
  9
$DIMSHO
 70
1
  9
$DIMPOST
  1

  9
$DIMAPOST
  1

  9
$DIMALT
 70
0
  9
$DIMALTD
 70
3
  9
$DIMALTF
 40
0.03937007874
  9
$DIMLFAC
 40
1.0
  9
$DIMTOFL
 70
1
  9
$DIMTVP
 40
0.0
  9
$DIMTIX
 70
0
  9
$DIMSOXD
 70
0
  9
$DIMSAH
 70
0
  9
$DIMBLK1
  1

  9
$DIMBLK2
  1

  9
$DIMSTYLE
  2
ISO-25
  9
$DIMCLRD
 70
0
  9
$DIMCLRE
 70
0
  9
$DIMCLRT
 70
0
  9
$DIMTFAC
 40
1.0
  9
$DIMGAP
 40
0.625
  9
$DIMJUST
 70
0
  9
$DIMSD1
 70
0
  9
$DIMSD2
 70
0
  9
$DIMTOLJ
 70
0
  9
$DIMTZIN
 70
8
  9
$DIMALTZ
 70
0
  9
$DIMALTTZ
 70
0
  9
$DIMUPT
 70
0
  9
$DIMDEC
 70
2
  9
$DIMTDEC
 70
2
  9
$DIMALTU
 70
2
  9
$DIMALTTD
 70
3
  9
$DIMTXSTY
  7
Standard
  9
$DIMAUNIT
 70
0
  9
$DIMADEC
 70
0
  9
$DIMALTRND
 40
0.0
  9
$DIMAZIN
 70
0
  9
$DIMDSEP
 70
44
  9
$DIMATFIT
 70
3
  9
$DIMFRAC
 70
0
  9
$DIMLDRBLK
  1

  9
$DIMLUNIT
 70
2
  9
$DIMLWD
 70
-2
  9
$DIMLWE
 70
-2
  9
$DIMTMOVE
 70
0
  9
$DIMFXL
 40
1.0
  9
$DIMFXLON
 70
0
  9
$DIMJOGANG
 40
0.785398163397
  9
$DIMTFILL
 70
0
  9
$DIMTFILLCLR
 70
0
  9
$DIMARCSYM
 70
0
  9
$DIMLTYPE
  6

  9
$DIMLTEX1
  6

  9
$DIMLTEX2
  6

  9
$DIMTXTDIRECTION
 70
0
  9
$LUNITS
 70
2
  9
$LUPREC
 70
4
  9
$SKETCHINC
 40
1.0
  9
$FILLETRAD
 40
10.0
  9
$AUNITS
 70
0
  9
$AUPREC
 70
2
  9
$MENU
  1
.
  9
$ELEVATION
 40
0.0
  9
$PELEVATION
 40
0.0
  9
$THICKNESS
 40
0.0
  9
$LIMCHECK
 70
0
  9
$CHAMFERA
 40
0.0
  9
$CHAMFERB
 40
0.0
  9
$CHAMFERC
 40
0.0
  9
$CHAMFERD
 40
0.0
  9
$SKPOLY
 70
0
  9
$TDCREATE
 40
2460246.482291667
  9
$TDUCREATE
 40
2458532.153996898
  9
$TDUPDATE
 40
2460246.482291667
  9
$TDUUPDATE
 40
2458532.1544311
  9
$TDINDWG
 40
0.0
  9
$TDUSRTIMER
 40
0.0
  9
$USRTIMER
 70
1
  9
$ANGBASE
 50
0.0
  9
$ANGDIR
 70
0
  9
$PDMODE
 70
0
  9
$PDSIZE
 40
0.0
  9
$PLINEWID
 40
0.0
  9
$SPLFRAME
 70
0
  9
$SPLINETYPE
 70
6
  9
$SPLINESEGS
 70
8
  9
$HANDSEED
  5
50
  9
$SURFTAB1
 70
6
  9
$SURFTAB2
 70
6
  9
$SURFTYPE
 70
6
  9
$SURFU
 70
6
  9
$SURFV
 70
6
  9
$UCSBASE
  2

  9
$UCSNAME
  2

  9
$UCSORG
 10
0.0
 20
0.0
 30
0.0
  9
$UCSXDIR
 10
1.0
 20
0.0
 30
0.0
  9
$UCSYDIR
 10
0.0
 20
1.0
 30
0.0
  9
$UCSORTHOREF
  2

  9
$UCSORTHOVIEW
 70
0
  9
$UCSORGTOP
 10
0.0
 20
0.0
 30
0.0
  9
$UCSORGBOTTOM
 10
0.0
 20
0.0
 30
0.0
  9
$UCSORGLEFT
 10
0.0
 20
0.0
 30
0.0
  9
$UCSORGRIGHT
 10
0.0
 20
0.0
 30
0.0
  9
$UCSORGFRONT
 10
0.0
 20
0.0
 30
0.0
  9
$UCSORGBACK
 10
0.0
 20
0.0
 30
0.0
  9
$PUCSBASE
  2

  9
$PUCSNAME
  2

  9
$PUCSORG
 10
0.0
 20
0.0
 30
0.0
  9
$PUCSXDIR
 10
1.0
 20
0.0
 30
0.0
  9
$PUCSYDIR
 10
0.0
 20
1.0
 30
0.0
  9
$PUCSORTHOREF
  2

  9
$PUCSORTHOVIEW
 70
0
  9
$PUCSORGTOP
 10
0.0
 20
0.0
 30
0.0
  9
$PUCSORGBOTTOM
 10
0.0
 20
0.0
 30
0.0
  9
$PUCSORGLEFT
 10
0.0
 20
0.0
 30
0.0
  9
$PUCSORGRIGHT
 10
0.0
 20
0.0
 30
0.0
  9
$PUCSORGFRONT
 10
0.0
 20
0.0
 30
0.0
  9
$PUCSORGBACK
 10
0.0
 20
0.0
 30
0.0
  9
$USERI1
 70
0
  9
$USERI2
 70
0
  9
$USERI3
 70
0
  9
$USERI4
 70
0
  9
$USERI5
 70
0
  9
$USERR1
 40
0.0
  9
$USERR2
 40
0.0
  9
$USERR3
 40
0.0
  9
$USERR4
 40
0.0
  9
$USERR5
 40
0.0
  9
$WORLDVIEW
 70
1
  9
$SHADEDGE
 70
3
  9
$SHADEDIF
 70
70
  9
$TILEMODE
 70
1
  9
$MAXACTVP
 70
64
  9
$PINSBASE
 10
0.0
 20
0.0
 30
0.0
  9
$PLIMCHECK
 70
0
  9
$PEXTMIN
 10
1e+20
 20
1e+20
 30
1e+20
  9
$PEXTMAX
 10
-1e+20
 20
-1e+20
 30
-1e+20
  9
$PLIMMIN
 10
0.0
 20
0.0
  9
$PLIMMAX
 10
420.0
 20
297.0
  9
$UNITMODE
 70
0
  9
$VISRETAIN
 70
1
  9
$PLINEGEN
 70
0
  9
$PSLTSCALE
 70
1
  9
$TREEDEPTH
 70
3020
  9
$CMLSTYLE
  2
Standard
  9
$CMLJUST
 70
0
  9
$CMLSCALE
 40
20.0
  9
$PROXYGRAPHICS
 70
1
  9
$MEASUREMENT
 70
1
  9
$CELWEIGHT
370
-1
  9
$ENDCAPS
280
0
  9
$JOINSTYLE
280
0
  9
$LWDISPLAY
290
0
  9
$INSUNITS
 70
4
  9
$HYPERLINKBASE
  1

  9
$STYLESHEET
  1

  9
$XEDIT
290
1
  9
$CEPSNTYPE
380
0
  9
$PSTYLEMODE
290
1
  9
$FINGERPRINTGUID
  2
{E59AC8E1-461E-45C9-8516-98841F630D1E}
  9
$VERSIONGUID
  2
{8A5A3A03-BF0A-468F-A990-5D56B5BBD1A3}
  9
$EXTNAMES
290
1
  9
$PSVPSCALE
 40
0.0
  9
$OLESTARTUP
290
0
  9
$SORTENTS
280
127
  9
$INDEXCTL
280
0
  9
$HIDETEXT
280
1
  9
$XCLIPFRAME
280
0
  9
$HALOGAP
280
0
  9
$OBSCOLOR
 70
257
  9
$OBSLTYPE
280
0
  9
$INTERSECTIONDISPLAY
280
0
  9
$INTERSECTIONCOLOR
 70
257
  9
$DIMASSOC
280
2
  9
$PROJECTNAME
  1

  9
$CAMERADISPLAY
290
0
  9
$LENSLENGTH
 40
50.0
  9
$CAMERAHEIGHT
 40
0.0
  9
$STEPSPERSEC
 40
24.0
  9
$STEPSIZE
 40
100.0
  9
$3DDWFPREC
 40
2.0
  9
$PSOLWIDTH
 40
0.005
  9
$PSOLHEIGHT
 40
0.08
  9
$LOFTANG1
 40
1.570796326795
  9
$LOFTANG2
 40
1.570796326795
  9
$LOFTMAG1
 40
0.0
  9
$LOFTMAG2
 40
0.0
  9
$LOFTPARAM
 70
7
  9
$LOFTNORMALS
280
1
  9
$LATITUDE
 40
37.795
  9
$LONGITUDE
 40
-122.394
  9
$NORTHDIRECTION
 40
0.0
  9
$TIMEZONE
 70
-8000
  9
$LIGHTGLYPHDISPLAY
280
1
  9
$TILEMODELIGHTSYNCH
280
1
  9
$CMATERIAL
347
20
  9
$SOLIDHIST
280
0
  9
$SHOWHIST
280
1
  9
$DWFFRAME
280
2
  9
$DGNFRAME
280
2
  9
$REALWORLDSCALE
290
1
  9
$INTERFERECOLOR
 62
256
  9
$CSHADOW
280
0
  9
$SHADOWPLANELOCATION
 40
0.0
  0
ENDSEC
  0
SECTION
  2
CLASSES
  0
CLASS
  1
ACDBDICTIONARYWDFLT
  2
AcDbDictionaryWithDefault
  3
ObjectDBX Classes
 90
0
 91
0
280
0
281
0
  0
CLASS
  1
SUN
  2
AcDbSun
  3
SCENEOE
 90
1153
 91
0
280
0
281
0
  0
CLASS
  1
VISUALSTYLE
  2
AcDbVisualStyle
  3
ObjectDBX Classes
 90
4095
 91
0
280
0
281
0
  0
CLASS
  1
MATERIAL
  2
AcDbMaterial
  3
ObjectDBX Classes
 90
1153
 91
0
280
0
281
0
  0
CLASS
  1
SCALE
  2
AcDbScale
  3
ObjectDBX Classes
 90
1153
 91
0
280
0
281
0
  0
CLASS
  1
TABLESTYLE
  2
AcDbTableStyle
  3
ObjectDBX Classes
 90
4095
 91
0
280
0
281
0
  0
CLASS
  1
MLEADERSTYLE
  2
AcDbMLeaderStyle
  3
ACDB_MLEADERSTYLE_CLASS
 90
4095
 91
0
280
0
281
0
  0
CLASS
  1
DICTIONARYVAR
  2
AcDbDictionaryVar
  3
ObjectDBX Classes
 90
0
 91
0
280
0
281
0
  0
CLASS
  1
CELLSTYLEMAP
  2
AcDbCellStyleMap
  3
ObjectDBX Classes
 90
1152
 91
0
280
0
281
0
  0
CLASS
  1
MENTALRAYRENDERSETTINGS
  2
AcDbMentalRayRenderSettings
  3
SCENEOE
 90
1024
 91
0
280
0
281
0
  0
CLASS
  1
ACDBDETAILVIEWSTYLE
  2
AcDbDetailViewStyle
  3
ObjectDBX Classes
 90
1025
 91
0
280
0
281
0
  0
CLASS
  1
ACDBSECTIONVIEWSTYLE
  2
AcDbSectionViewStyle
  3
ObjectDBX Classes
 90
1025
 91
0
280
0
281
0
  0
CLASS
  1
RASTERVARIABLES
  2
AcDbRasterVariables
  3
ISM
 90
0
 91
0
280
0
281
0
  0
CLASS
  1
ACDBPLACEHOLDER
  2
AcDbPlaceHolder
  3
ObjectDBX Classes
 90
0
 91
0
280
0
281
0
  0
CLASS
  1
LAYOUT
  2
AcDbLayout
  3
ObjectDBX Classes
 90
0
 91
0
280
0
281
0
  0
ENDSEC
  0
SECTION
  2
TABLES
  0
TABLE
  2
VPORT
  5
8
330
0
100
AcDbSymbolTable
 70
1
  0
VPORT
  5
23
330
8
100
AcDbSymbolTableRecord
100
AcDbViewportTableRecord
  2
*Active
 70
0
 10
0.0
 20
0.0
 11
1.0
 21
1.0
 12
0.0
 22
0.0
 13
0.0
 23
0.0
 14
0.5
 24
0.5
 15
0.5
 25
0.5
 16
0.0
 26
0.0
 36
1.0
 17
0.0
 27
0.0
 37
0.0
 40
1000.0
 41
1.34
 42
50.0
 43
0.0
 44
0.0
 50
0.0
 51
0.0
 71
0
 72
1000
 73
1
 74
3
 75
0
 76
0
 77
0
 78
0
281
0
 65
0
146
0.0
  0
ENDTAB
  0
TABLE
  2
LTYPE
  5
2
330
0
100
AcDbSymbolTable
 70
3
  0
LTYPE
  5
24
330
2
100
AcDbSymbolTableRecord
100
AcDbLinetypeTableRecord
  2
ByBlock
 70
0
  3

 72
65
 73
0
 40
0.0
  0
LTYPE
  5
25
330
2
100
AcDbSymbolTableRecord
100
AcDbLinetypeTableRecord
  2
ByLayer
 70
0
  3

 72
65
 73
0
 40
0.0
  0
LTYPE
  5
26
330
2
100
AcDbSymbolTableRecord
100
AcDbLinetypeTableRecord
  2
Continuous
 70
0
  3

 72
65
 73
0
 40
0.0
  0
ENDTAB
  0
TABLE
  2
LAYER
  5
1
330
0
100
AcDbSymbolTable
 70
2
  0
LAYER
  5
27
330
1
100
AcDbSymbolTableRecord
100
AcDbLayerTableRecord
  2
0
 70
0
 62
7
  6
Continuous
370
-3
390
13
347
21
  0
LAYER
  5
28
330
1
100
AcDbSymbolTableRecord
100
AcDbLayerTableRecord
  2
Defpoints
 70
0
 62
7
  6
Continuous
290
0
370
-3
390
13
347
21
  0
ENDTAB
  0
TABLE
  2
STYLE
  5
5
330
0
100
AcDbSymbolTable
 70
1
  0
STYLE
  5
29
330
5
100
AcDbSymbolTableRecord
100
AcDbTextStyleTableRecord
  2
Standard
 70
0
 40
0.0
 41
1.0
 50
0.0
 71
0
 42
2.5
  3
txt
  4

  0
ENDTAB
  0
TABLE
  2
VIEW
  5
7
330
0
100
AcDbSymbolTable
 70
0
  0
ENDTAB
  0
TABLE
  2
UCS
  5
6
330
0
100
AcDbSymbolTable
 70
0
  0
ENDTAB
  0
TABLE
  2
APPID
  5
3
330
0
100
AcDbSymbolTable
 70
3
  0
APPID
  5
2A
330
3
100
AcDbSymbolTableRecord
100
AcDbRegAppTableRecord
  2
ACAD
 70
0
  0
APPID
  5
4D
330
3
100
AcDbSymbolTableRecord
100
AcDbRegAppTableRecord
  2
HATCHBACKGROUNDCOLOR
 70
0
  0
APPID
  5
4E
330
3
100
AcDbSymbolTableRecord
100
AcDbRegAppTableRecord
  2
EZDXF
 70
0
  0
ENDTAB
  0
TABLE
  2
DIMSTYLE
  5
4
330
0
100
AcDbSymbolTable
 70
1
100
AcDbDimStyleTable
  0
DIMSTYLE
105
2B
330
4
100
AcDbSymbolTableRecord
100
AcDbDimStyleTableRecord
  2
Standard
 70
0
 40
1.0
 41
2.5
 42
0.625
 43
3.75
 44
1.25
 45
0.0
 46
0.0
 47
0.0
 48
0.0
 49
2.5
140
2.5
141
2.5
142
0.0
143
0.03937007874
144
1.0
145
0.0
146
1.0
147
0.625
148
0.0
 69
0
 70
0
 71
0
 72
0
 73
0
 74
0
 75
0
 76
0
 77
1
 78
8
 79
3
170
0
171
3
172
1
173
0
174
0
175
0
176
0
177
0
178
0
179
2
271
2
272
2
273
2
274
3
275
0
276
0
277
2
278
44
279
0
280
0
281
0
282
0
283
0
284
8
285
0
286
0
288
0
289
3
290
0
371
-2
372
-2
  0
ENDTAB
  0
TABLE
  2
BLOCK_RECORD
  5
9
330
0
100
AcDbSymbolTable
 70
2
  0
BLOCK_RECORD
  5
17
330
9
100
AcDbSymbolTableRecord
100
AcDbBlockTableRecord
  2
*Model_Space
340
1A
 70
0
280
1
281
0
  0
BLOCK_RECORD
  5
1B
330
9
100
AcDbSymbolTableRecord
100
AcDbBlockTableRecord
  2
*Paper_Space
340
1E
 70
0
280
1
281
0
  0
ENDTAB
  0
ENDSEC
  0
SECTION
  2
BLOCKS
  0
BLOCK
  5
18
330
17
100
AcDbEntity
  8
0
100
AcDbBlockBegin
  2
*Model_Space
 70
0
 10
0.0
 20
0.0
 30
0.0
  3
*Model_Space
  1

  0
ENDBLK
  5
19
330
17
100
AcDbEntity
  8
0
100
AcDbBlockEnd
  0
BLOCK
  5
1C
330
1B
100
AcDbEntity
  8
0
100
AcDbBlockBegin
  2
*Paper_Space
 70
0
 10
0.0
 20
0.0
 30
0.0
  3
*Paper_Space
  1

  0
ENDBLK
  5
1D
330
1B
100
AcDbEntity
  8
0
100
AcDbBlockEnd
  0
ENDSEC
  0
SECTION
  2
ENTITIES
  0
LWPOLYLINE
  5
2F
330
17
100
AcDbEntity
  8
default
100
AcDbPolyline
 90
1120
 70
0
 10
337.5749603027468
 20
553.0743854848
 10
337.980193972793
 20
553.2589478485335
 10
338.3306106394519
 20
553.4077188181334
 10
338.6664134608301
 20
553.5922811818668
 10
338.99998433995785
 20
553.7410521514668
 10
339.3333489933755
 20
553.9256145152002
 10
339.66691987250334
 20
554.0743854848
 10
340.00272269388165
 20
554.2589478485335
 10
340.3531393605405
 20
554.4077188181334
 10
340.75837303059257
 20
554.5922811818668
 10
341.2416269698942
 20
554.7410521514668
 10
341.64686066276863
 20
554.9256145152002
 10
341.99727805036025
 20
555.0743854848
 10
342.3330965089467
 20
555.2589478485335
 10
342.6669034910535
 20
555.4077188181334
 10
343.0027219496399
 20
555.5922811818668
 10
343.3531393372316
 20
555.7410521514668
 10
343.7583730301118
 20
555.9256145152002
 10
344.2416269698884
 20
556.0743854848
 10
344.6468606627686
 20
556.2589478485335
 10
344.9972780503603
 20
556.4077188181334
 10
345.3330965089526
 20
556.5922811818668
 10
345.66690349153436
 20
556.7410521514668
 10
346.00272197295476
 20
556.9256145152002
 10
346.3531400819541
 20
557.0743854848
 10
346.75838943487065
 20
557.2589478485335
 10
347.24188019855904
 20
557.4077188181334
 10
347.649583333822
 20
557.5922811818668
 10
348.01708333333147
 20
557.7410521514668
 10
348.42478649141674
 20
557.9256145152002
 10
348.9082779760379
 20
558.0743854848
 10
348.9214365801364
 20
558.0803780652968
 10
349.3135429661626
 20
558.2589478485335
 10
349.66419717814097
 20
558.4077188181334
 10
350.002469464736
 20
558.5922811818668
 10
350.3531229562565
 20
558.7410521514668
 10
350.7583723091789
 20
558.9256145152002
 10
351.2416276908211
 20
559.0743854848
 10
351.64687704374353
 20
559.2589478485335
 10
351.997530535264
 20
559.4077188181334
 10
352.3358028218591
 20
559.5922811818668
 10
352.6864570338375
 20
559.7410521514668
 10
353.0917220239623
 20
559.9256145152002
 10
353.5752135085834
 20
560.0743854848
 10
353.98291666667456
 20
560.2589478485335
 10
354.3504166666589
 20
560.4077188181334
 10
354.75811982475
 20
560.5922811818668
 10
355.2416113093713
 20
560.7410521514668
 10
355.64687629950186
 20
560.9256145152002
 10
355.9975305119551
 20
561.0743854848
 10
356.3358028213783
 20
561.2589478485335
 10
356.68645703383163
 20
561.4077188181334
 10
357.09172202396815
 20
561.5922811818668
 10
357.5752135090642
 20
561.7410521514668
 10
357.9829166899835
 20
561.9256145152002
 10
358.35041741090066
 20
562.0743854848
 10
358.7581362062059
 20
562.2589478485335
 10
359.2418637942811
 20
562.4077188181334
 10
359.64958261240844
 20
562.5922811818668
 10
360.0170840542584
 20
562.7410521514668
 10
360.4248028723918
 20
562.9256145152002
 10
360.90853046094185
 20
563.0743854848
 10
361.3162492790751
 20
563.2589478485335
 10
361.68375072092505
 20
563.4077188181334
 10
362.0914695390585
 20
563.5922811818668
 10
362.5751971276085
 20
563.7410521514668
 10
362.98291594574175
 20
563.9256145152002
 10
363.3504173875917
 20
564.0743854848
 10
363.7581362057251
 20
564.2589478485335
 10
364.24186379427516
 20
564.4077188181334
 10
364.64958261240844
 20
564.5922811818668
 10
365.0170840542584
 20
564.7410521514668
 10
365.4248028723918
 20
564.9256145152002
 10
365.90853046094185
 20
565.0743854848
 10
366.3162492790751
 20
565.2589478485335
 10
366.68375072092505
 20
565.4077188181334
 10
367.0914695390585
 20
565.5922811818668
 10
367.5751971276085
 20
565.7410521514668
 10
367.98291594574175
 20
565.9256145152002
 10
368.3504173875917
 20
566.0743854848
 10
368.7581362057251
 20
566.2589478485335
 10
369.2418637942752
 20
566.4077188181334
 10
369.6495826124143
 20
566.5922811818668
 10
370.0170840547392
 20
566.7410521514668
 10
370.4248028957006
 20
566.9256145152002
 10
370.9085312051835
 20
567.0743854848
 10
371.31626566053086
 20
567.2589478485335
 10
371.682422183906
 20
567.4070792039076
 10
371.68400320583476
 20
567.4077188181334
 10
372.0941758519709
 20
567.5922811818668
 10
372.5947506703925
 20
567.7410521514668
 10
372.88888763358034
 20
567.8548211274092
 10
373.0719160200641
 20
567.9256145152002
 10
373.57249155894357
 20
568.0743854848
 10
373.9826798422878
 20
568.2589478485335
 10
374.35065349104565
 20
568.4077188181334
 10
374.7608417743958
 20
568.5922811818668
 10
375.2614173137502
 20
568.7410521514668
 10
375.73858268624997
 20
568.9256145152002
 10
376.23915822560434
 20
569.0743854848
 10
376.64934650895447
 20
569.2589478485335
 10
377.0173201577123
 20
569.4077188181334
 10
377.42750844106246
 20
569.5922811818668
 10
377.92808398041694
 20
569.7410521514668
 10
378.40524935292245
 20
569.9256145152002
 10
378.90582489275175
 20
570.0743854848
 10
379.31601319893
 20
570.2589478485335
 10
379.68398756862075
 20
570.4077188181334
 10
380.09419148917914
 20
570.5922811818668
 10
380.5950031315125
 20
570.7410521514668
 10
381.07462230918685
 20
570.9256145152002
 10
381.59204435748
 20
571.0743854848
 10
382.0716635351602
 20
571.2589478485335
 10
382.57247517796856
 20
571.4077188181334
 10
382.9826791213609
 20
571.5922811818668
 10
383.3506542124593
 20
571.7410521514668
 10
383.76085817867386
 20
571.9256145152002
 10
384.261670542415
 20
572.0743854848
 10
384.3338971776745
 20
572.1021781264395
 10
384.74130535730336
 20
572.2589478485335
 10
385.25896350857556
 20
572.4077188181334
 10
385.7410364914246
 20
572.5922811818668
 10
386.2586946426968
 20
572.7410521514668
 10
386.73832945758517
 20
572.9256145152002
 10
387.23914182132637
 20
573.0743854848
 10
387.64934578754674
 20
573.2589478485335
 10
388.01732087912006
 20
573.4077188181334
 10
388.42752484534634
 20
573.5922811818668
 10
388.9283372095625
 20
573.7410521514668
 10
389.4079720472849
 20
573.9256145152002
 10
389.9256309199648
 20
574.0743854848
 10
390.407719562856
 20
574.2589478485335
 10
390.92561453851494
 20
574.4077188181334
 10
391.4077188186143
 20
574.5922811818668
 10
391.925614515206
 20
574.7410521514668
 10
392.40771881813345
 20
574.9256145152002
 10
392.9256145152001
 20
575.0743854848
 10
393.4077188181334
 20
575.2589478485335
 10
393.9256145152001
 20
575.4077188181334
 10
394.40771881813345
 20
575.5922811818668
 10
394.92561451520015
 20
575.7410521514668
 10
395.17838279670974
 20
575.8378185798679
 10
395.40771881813936
 20
575.9256145152002
 10
395.92561451568093
 20
576.0743854848
 10
396.40771884144823
 20
576.2589478485335
 10
396.92561525992267
 20
576.4077188181334
 10
397.40773522289817
 20
576.5922811818668
 10
397.92586774435154
 20
576.7410521514668
 10
398.4104415124958
 20
576.9256145152002
 10
398.94542054241305
 20
577.0743854848
 10
399.49942518205347
 20
577.2589478485335
 10
400.1672414846135
 20
577.4077188181334
 10
400.72124612425966
 20
577.5922811818668
 10
401.256225154652
 20
577.7410521514668
 10
401.7407989456302
 20
577.9256145152002
 10
402.2589321884912
 20
578.0743854848
 10
402.7410678115089
 20
578.2589478485335
 10
403.25920105437007
 20
578.4077188181334
 10
403.7437748453484
 20
578.5922811818668
 10
404.2787538757405
 20
578.7410521514668
 10
404.8327585153868
 20
578.9256145152002
 10
405.50057481794687
 20
579.0743854848
 10
406.05457945759304
 20
579.2589478485335
 10
406.58955848798536
 20
579.4077188181334
 10
407.07413227896353
 20
579.5922811818668
 10
407.5922655218246
 20
579.7410521514668
 10
408.0744011448422
 20
579.9256145152002
 10
408.59253438770344
 20
580.0743854848
 10
409.07710817868764
 20
580.2589478485335
 10
409.6120872095547
 20
580.4077188181334
 10
410.1660918720349
 20
580.5922811818668
 10
410.8339088960027
 20
580.7410521514668
 10
410.99816119003117
 20
580.79576998699
 10
411.3879291956852
 20
580.9256145152002
 10
411.9231450499892
 20
581.0743854848
 10
412.41018828335024
 20
581.2589478485335
 10
412.9454041381292
 20
581.4077188181334
 10
413.49942446064574
 20
581.5922811818668
 10
414.16724220602117
 20
581.7410521514668
 10
414.7212625285377
 20
581.9256145152002
 10
415.25647838331656
 20
582.0743854848
 10
415.74352161668355
 20
582.2589478485335
 10
416.2787374714626
 20
582.4077188181334
 10
416.8327577939791
 20
582.5922811818668
 10
417.5005755393546
 20
582.7410521514668
 10
418.0545958618769
 20
582.9256145152002
 10
418.5898117171308
 20
583.0743854848
 10
419.07685497332585
 20
583.2589478485335
 10
419.61207154903764
 20
583.4077188181334
 10
420.1661075087682
 20
583.5922811818668
 10
420.8341613575976
 20
583.7410521514668
 10
421.3906355081227
 20
583.9256145152002
 10
421.94269859324817
 20
584.0743854848
 10
422.49918838098154
 20
584.2589478485335
 10
423.16747905372273
 20
584.4077188181334
 10
423.6936668789704
 20
584.5822264948657
 10
423.72398447866425
 20
584.5922811818668
 10
424.2762843877014
 20
584.7410521514668
 10
424.8352280034375
 20
584.9256145152002
 10
425.52036518559254
 20
585.0743854848
 10
426.14630150487
 20
585.2589478485335
 10
426.83143940795776
 20
585.4077188181334
 10
427.39039868373595
 20
585.5922811818668
 10
427.9429354176348
 20
585.7410521514668
 10
428.0807426242318
 20
585.7865533415884
 10
428.5019103306214
 20
585.9256145152002
 10
429.18728505762095
 20
586.0743854848
 10
429.81569084210355
 20
586.2589478485335
 10
430.51791135710897
 20
586.4077188181334
 10
431.14875530955794
 20
586.5922811818668
 10
431.8509758245636
 20
586.7410521514668
 10
431.9954091477606
 20
586.7834721230665
 10
432.479381609052
 20
586.9256145152002
 10
433.1647563365264
 20
587.0743854848
 10
433.7237312723468
 20
587.2589478485335
 10
434.2762687276534
 20
587.4077188181334
 10
434.83524366347973
 20
587.5922811818668
 10
435.52061839142925
 20
587.7410521514668
 10
436.1490241987516
 20
587.9256145152002
 10
436.8512454351648
 20
588.0743854848
 10
437.482105047656
 20
588.2589478485335
 10
438.18456238704835
 20
588.4077188181334
 10
438.81543763675353
 20
588.5922811818668
 10
439.5178956975535
 20
588.7410521514668
 10
440.148770992915
 20
588.9256145152002
 10
440.85122977512265
 20
589.0743854848
 10
441.4821207076982
 20
589.2589478485335
 10
442.1848155928849
 20
589.4077188181334
 10
442.8181603306292
 20
589.5922811818668
 10
443.5377017242798
 20
589.7410521514668
 10
444.24047733352603
 20
589.9256145152002
 10
444.7425965072781
 20
590.013252509024
 10
445.0928560002943
 20
590.0743854848
 10
445.79563163236867
 20
590.2589478485335
 10
446.515173747427
 20
590.4077188181334
 10
447.14853414521934
 20
590.5922811818668
 10
447.8514658552677
 20
590.7410521514668
 10
448.48482627588817
 20
590.9256145152002
 10
449.20436911235413
 20
591.0743854848
 10
449.9071604044766
 20
591.2589478485335
 10
450.7597758961066
 20
591.4077188181334
 10
451.4650209934036
 20
591.5922811818668
 10
452.2016464417875
 20
591.7410521514668
 10
452.9069071991208
 20
591.9256145152002
 10
453.75976023607024
 20
592.0743854848
 10
454.46503665344585
 20
592.2589478485335
 10
455.20189964762403
 20
592.4077188181334
 10
455.9096298929964
 20
592.5922811818668
 10
456.7795662627965
 20
592.7410521514668
 10
457.5567429940509
 20
592.9256145152002
 10
458.4435258723149
 20
593.0743854848
 10
459.2231407943639
 20
593.2589478485335
 10
459.3637833617156
 20
593.2825427234486
 10
460.1099236735777
 20
593.4077188181334
 10
460.8871004505001
 20
593.5922811818668
 10
461.7570382631156
 20
593.7410521514668
 10
462.4647998285782
 20
593.9256145152002
 10
463.2021364720049
 20
594.0743854848
 10
463.9123518426422
 20
594.2589478485335
 10
464.16580587534634
 20
594.3014571314671
 10
464.79937226717544
 20
594.4077188181334
 10
465.64844938081075
 20
594.5922811818668
 10
466.6851535869256
 20
594.7410521514668
 10
467.53668452855777
 20
594.9256145152002
 10
468.1517605931451
 20
595.0268257553471
 10
468.4407882859418
 20
595.0743854848
 10
469.2229196305002
 20
595.2589478485335
 10
470.110413703807
 20
595.4077188181334
 10
470.8925450940274
 20
595.5922811818668
 10
471.79665029470164
 20
595.7410521514668
 10
472.6482125792521
 20
595.9256145152002
 10
473.6853911555482
 20
596.0743854848
 10
474.5394228596534
 20
596.2589478485335
 10
475.4608467747497
 20
596.4077188181334
 10
476.31733230685757
 20
596.5922811818668
 10
477.3715942164793
 20
596.7410521514668
 10
478.2950724977848
 20
596.9256145152002
 10
479.3493358497469
 20
597.0743854848
 10
479.87844612283527
 20
597.1883982328545
 10
480.2058527247733
 20
597.2589478485335
 10
481.12775101100056
 20
597.4077188181334
 10
481.9867373512437
 20
597.5922811818668
 10
483.05832086091806
 20
597.7410521514668
 10
483.8363610091256
 20
597.8849564936328
 10
484.0561846270237
 20
597.9256145152002
 10
485.2776887426663
 20
598.0743854848
 10
486.2804757791575
 20
598.2589478485335
 10
487.38646205798705
 20
598.4077188181334
 10
488.3917341968973
 20
598.5922811818668
 10
489.6307952936891
 20
598.7410521514668
 10
490.70551398697165
 20
598.9256145152002
 10
491.9614223145849
 20
599.0743854848
 10
493.03859485871595
 20
599.2589478485335
 10
493.98448269123656
 20
599.3709736360362
 10
494.2947400116658
 20
599.4077188181334
 10
495.37194387588113
 20
599.5922811818668
 10
496.6283272950834
 20
599.7410521514668
 10
497.70801628455774
 20
599.9256145152002
 10
497.9542418021476
 20
599.9543741342953
 10
498.98171914101437
 20
600.0743854848
 10
500.1357623180383
 20
600.2589478485335
 10
501.5762337312678
 20
600.4077188181334
 10
502.87163943659675
 20
600.5922811818668
 10
504.46250510551823
 20
600.7410521514668
 10
505.76531927507585
 20
600.9256145152001
 10
507.25775333326385
 20
601.0743854847883
 10
508.63500031012296
 20
601.2589478475718
 10
510.41115179747663
 20
601.407718771492
 10
511.5263606838066
 20
601.5425745715887
 10
511.9374041193634
 20
601.59227969146
 10
513.8025094867336
 20
601.7410192952959
 10
515.5885529887342
 20
601.9251065664905
 10
517.3629527113916
 20
602.0238732172473
 10
518.1720148462364
 20
602.0689072399044
 10
521.2698364653619
 20
602.2188278453978
 10
524.1475517071135
 20
602.2188278453978
 10
525.9269717582812
 20
602.2188278453978
 10
528.5958451851557
 20
602.0689072399044
 10
530.1943667449698
 20
601.9251065664905
 10
531.1747053663074
 20
601.7410192952959
 10
531.8062230038547
 20
601.6377201913186
 10
532.0840228686625
 20
601.59227969146
 10
532.7920977719904
 20
601.407718771492
 10
533.494809974287
 20
601.2589478475718
 10
534.0513472902094
 20
601.0743854847883
 10
534.5697188121522
 20
600.9256145151942
 10
534.982407972755
 20
600.741052150986
 10
535.3339547670319
 20
600.5989233474586
 10
535.3503838100074
 20
600.5922811585402
 10
535.758119056232
 20
600.4077180724493
 10
536.2416269694077
 20
600.2589313971274
 10
536.647114613322
 20
600.074130765236
 10
537.0000328323634
 20
599.9228589641859
 10
537.3533940563029
 20
599.7207381522236
 10
537.7638341254966
 20
599.4950958278597
 10
538.2817297987793
 20
599.125955418461
 10
538.8354975678783
 20
598.7562756419642
 10
539.5179106342646
 20
598.217663271826
 10
539.7429893860062
 20
598.0478099161652
 10
540.1289328314139
 20
597.7565616806451
 10
540.7562920467288
 20
597.1292024653301
 10
541.214939832741
 20
596.5206340733495
 10
541.7364695914364
 20
595.8553036183885
 10
542.03424905406
 20
595.3734361617376
 10
542.2534688584403
 20
595.0054610249479
 10
542.4072108460913
 20
594.6669191263323
 10
542.5922483242534
 20
594.3305941637752
 10
542.7410506144128
 20
593.9794320506786
 10
542.9256129781521
 20
593.5667101725272
 10
543.0743526276675
 20
593.0310199028374
 10
543.0833690619488
 20
592.999999999442
 10
543.0743526281482
 20
592.9689800976436
 10
542.9256130014313
 20
592.4332898507525
 10
542.7410513562503
 20
592.0205686911593
 10
542.5922645891352
 20
591.6694221011068
 10
542.4074596073885
 20
591.3333296349649
 10
542.2560931475292
 20
590.9971632641414
 10
542.0525364510871
 20
590.6448512352896
 10
541.8118561939469
 20
590.2200829841223
 10
541.337983868028
 20
589.6024099619378
 10
541.0153065995798
 20
589.2204251570039
 10
540.5223038636918
 20
588.6368093516332
 10
539.0295876811238
 20
587.1440931690591
 10
538.0615332661251
 20
586.325959359554
 10
537.4267776553493
 20
585.8350044221922
 10
536.9301098131417
 20
585.5224238511792
 10
536.4278929078391
 20
585.1689465497183
 10
536.0200651908241
 20
584.9456797531464
 10
535.6694059285225
 20
584.743791437599
 10
535.3335865663256
 20
584.5925351595932
 10
535.000000023356
 20
584.4077352462601
 10
534.6664141822381
 20
584.258948593737
 10
534.330610638971
 20
584.0743855081208
 10
533.9801932280646
 20
583.925614515681
 10
533.5749438746673
 20
583.7410521514727
 10
533.0914523895652
 20
583.5922811818668
 10
532.6837335714262
 20
583.4077188181334
 10
532.3159960256473
 20
583.2589478485335
 10
531.905807719463
 20
583.0743854848
 10
531.4049953552471
 20
582.9256145152002
 10
530.9253448574824
 20
582.7410521514668
 10
530.407448439008
 20
582.5922811818668
 10
529.9228746480238
 20
582.4077188181334
 10
529.3876587927701
 20
582.2589478485335
 10
528.8311690050309
 20
582.0743854848
 10
528.1460311019431
 20
581.9256145152002
 10
527.5176252946266
 20
581.7410521514668
 10
526.8151672338265
 20
581.5922811818668
 10
526.1818224960824
 20
581.4077188181334
 10
525.4620442780451
 20
581.2589478485335
 10
524.7567835435516
 20
581.0743854848
 10
523.8870839986132
 20
580.9256145152002
 10
523.1099229045786
 20
580.7410521514668
 10
522.2231400263147
 20
580.5922811818668
 10
521.4435094670575
 20
580.4077188181334
 10
520.556489763932
 20
580.2589478485335
 10
519.7768435218045
 20
580.0743854848
 10
518.8898223763384
 20
579.9256145152002
 10
518.1101604741689
 20
579.7410521514668
 10
517.2229032252488
 20
579.5922811818668
 10
516.4407875179045
 20
579.4077188181334
 10
515.5366837605205
 20
579.2589478485335
 10
514.70478913125
 20
579.0786448058457
 10
514.68513718168
 20
579.0743854848
 10
513.6481961516536
 20
578.9256145152002
 10
512.7966495728132
 20
578.7410521514668
 10
511.8925458154292
 20
578.5922811818668
 10
511.1104301080849
 20
578.4077188181334
 10
510.2231728591649
 20
578.2589478485335
 10
509.4435109569952
 20
578.0743854848
 10
508.55648981152916
 20
577.9256145152002
 10
507.7768435693958
 20
577.7410521514668
 10
506.8898238657952
 20
577.5922811818668
 10
506.11019328369827
 20
577.4077188181334
 10
505.22340968355167
 20
577.2589478485335
 10
504.44623290662923
 20
577.0743854848
 10
503.57629581494643
 20
576.9256145152002
 10
502.868549909526
 20
576.7410521514668
 10
502.31540833469376
 20
576.6294100015962
 10
502.131450090961
 20
576.5922811818668
 10
501.42370420836863
 20
576.4077188181334
 10
500.5537678380936
 20
576.2589478485335
 10
499.7766067212135
 20
576.0743854848
 10
498.89005994545363
 20
575.9256145152002
 10
498.3959502327581
 20
575.8082719789633
 10
498.1128988285792
 20
575.7410521514668
 10
497.2429624587791
 20
575.5922811818668
 10
496.53521659902077
 20
575.4077188181334
 10
495.79811750186354
 20
575.2589478485335
 10
495.09038725649117
 20
575.0743854848
 10
494.22068698967007
 20
574.9256145152002
 10
493.4459797007926
 20
574.7410521514668
 10
492.5762801549042
 20
574.5922811818668
 10
491.86856556956826
 20
574.4077188181334
 10
491.13170329679775
 20
574.2589478485335
 10
490.42642690225614
 20
574.0743854848
 10
489.5735738657816
 20
573.9256145152002
 10
488.8683131084482
 20
573.7410521514668
 10
488.1316876595895
 20
573.5922811818668
 10
487.42644253946435
 20
573.4077188181334
 10
486.96254198545245
 20
573.3267739167799
 10
486.57382632690155
 20
573.2589478485335
 10
485.871019397571
 20
573.0743854848
 10
485.1512404581259
 20
572.9256145152002
 10
484.5154262323368
 20
572.7410521514668
 10
483.79564801382446
 20
572.5922811818668
 10
483.0928567445361
 20
572.4077188181334
 10
482.85316188101837
 20
572.3658834127162
 10
482.24047735683496
 20
572.2589478485335
 10
481.5377017247606
 20
572.0743854848
 10
480.8181603306351
 20
571.9256145152002
 10
480.18481559288495
 20
571.7410521514668
 10
479.4821207076982
 20
571.5922811818668
 10
478.85122977512265
 20
571.4077188181334
 10
478.14877099291493
 20
571.2589478485335
 10
477.51789569754766
 20
571.0743854848
 10
476.81543763627275
 20
570.9256145152002
 10
476.1845623637335
 20
570.7410521514668
 10
475.48210430293346
 20
570.5922811818668
 10
474.85122903040013
 20
570.4077188181334
 10
474.8454887013309
 20
570.4065030952752
 10
474.14877096960015
 20
570.2589478485335
 10
473.51789569706676
 20
570.0743854848
 10
472.81543763626684
 20
569.9256145152002
 10
472.18456236373345
 20
569.7410521514668
 10
471.48210430293346
 20
569.5922811818668
 10
470.85122903040013
 20
569.4077188181334
 10
470.1487709696002
 20
569.2589478485335
 10
469.51789569707273
 20
569.0743854848
 10
468.8256710081536
 20
568.9277818027186
 10
468.8154376367477
 20
568.9256145152002
 10
468.1845623870483
 20
568.7410521514668
 10
467.482105047656
 20
568.5922811818668
 10
466.8512454351648
 20
568.4077188181334
 10
466.1490241987516
 20
568.2589478485335
 10
465.52061839142925
 20
568.0743854848
 10
464.8352436634798
 20
567.9256145152002
 10
464.2762687276593
 20
567.7410521514668
 10
463.7237312728276
 20
567.5922811818668
 10
463.1647563598353
 20
567.4077188181334
 10
462.47938235329366
 20
567.2589478485335
 10
461.8509922060135
 20
567.0743854848
 10
461.1490077939869
 20
566.9256145152002
 10
460.5773091258842
 20
566.7577028157791
 10
460.5206176467126
 20
566.7410521514668
 10
459.8352436406458
 20
566.5922811818668
 10
459.2762687504874
 20
566.4077188181334
 10
458.72373201706347
 20
566.2589478485335
 10
458.1647727412911
 20
566.0743854848
 10
457.47963483820337
 20
565.9256145152002
 10
456.8536985189259
 20
565.7410521514668
 10
456.16856133677095
 20
565.5922811818668
 10
455.67058699949325
 20
565.4278507846334
 10
455.60961772103485
 20
565.4077188181334
 10
455.0573178119976
 20
565.2589478485335
 10
454.5008123870561
 20
565.0743854848
 10
453.8325217143149
 20
564.9256145152002
 10
453.3578144516168
 20
564.7681756970651
 10
453.2760319265815
 20
564.7410521514668
 10
452.7239688414561
 20
564.5922811818668
 10
452.167494690931
 20
564.4077188181334
 10
451.49944084210154
 20
564.2589478485335
 10
450.94540488236504
 20
564.0743854848
 10
450.4101883061784
 20
563.9256145152002
 10
449.92314502715516
 20
563.7410521514668
 10
449.38792845096856
 20
563.5922811818668
 10
448.833892491238
 20
563.4077188181334
 10
448.1658386428834
 20
563.2589478485335
 10
447.6093645151923
 20
563.0743854848
 10
447.1267567346109
 20
562.9443312877162
 10
447.0573021514746
 20
562.9256145152002
 10
446.50082802378347
 20
562.7410521514668
 10
445.832774175429
 20
562.5922811818668
 10
445.27873821570427
 20
562.4077188181334
 10
444.74352163999254
 20
562.2589478485335
 10
444.2564783838033
 20
562.0743854848
 10
443.72126252902433
 20
561.9256145152002
 10
443.1672422293301
 20
561.7410521514668
 10
442.4994252048874
 20
561.5922811818668
 10
441.94542051957905
 20
561.4077188181334
 10
441.41044076777916
 20
561.2589478485335
 10
440.92585133958687
 20
561.0743854848
 10
440.4074819937468
 20
560.9256145152002
 10
439.92289256556035
 20
560.7410521514668
 10
439.38791281423534
 20
560.5922811818668
 10
438.83390815176097
 20
560.4077188181334
 10
438.16609184872596
 20
560.2589478485335
 10
437.6120872090739
 20
560.0743854848
 10
437.07710817868167
 20
559.9256145152002
 10
436.5925343877034
 20
559.7410521514668
 10
436.0744011448423
 20
559.5922811818668
 10
435.5922655218246
 20
559.4077188181334
 10
435.07413227896353
 20
559.2589478485335
 10
434.5895584879853
 20
559.0743854848
 10
434.05457945759304
 20
558.9256145152002
 10
433.50057481794687
 20
558.7410521514668
 10
432.83275851538684
 20
558.5922811818668
 10
432.47036226595327
 20
558.4715516723685
 10
432.27875387574636
 20
558.4077188181334
 10
431.74377484582914
 20
558.2589478485335
 10
431.25920107768485
 20
558.0743854848
 10
430.7410685562315
 20
557.9256145152002
 10
430.258948593256
 20
557.7410521514668
 10
429.74105217478154
 20
557.5922811818668
 10
429.25894784901425
 20
557.4077188181334
 10
428.7410521514727
 20
557.2589478485335
 10
428.25894784853347
 20
557.0743854848
 10
427.74105215146676
 20
556.9256145152002
 10
427.2589478485334
 20
556.7410521514668
 10
426.74105215146676
 20
556.5922811818668
 10
426.2589478485334
 20
556.4077188181334
 10
425.74105215146676
 20
556.2589478485335
 10
425.2589478485334
 20
556.0743854848
 10
424.74105215146676
 20
555.9256145152002
 10
424.2589478485334
 20
555.7410521514668
 10
423.74105215146676
 20
555.5922811818668
 10
423.2589478485334
 20
555.4077188181334
 10
422.74105215146676
 20
555.2589478485335
 10
422.2589478485334
 20
555.0743854848
 10
421.74105215146676
 20
554.9256145152002
 10
421.2589478485334
 20
554.7410521514668
 10
420.74105215146676
 20
554.5922811818668
 10
420.2589478485334
 20
554.4077188181334
 10
419.74105215146676
 20
554.2589478485335
 10
419.2589478485334
 20
554.0743854848
 10
418.7410521514668
 20
553.9256145152002
 10
418.2589478485394
 20
553.7410521514668
 10
417.7410521519476
 20
553.5922811818668
 10
417.32265433308004
 20
553.4321073489044
 10
417.25894787184825
 20
553.4077188181334
 10
416.7410528961893
 20
553.2589478485335
 10
416.25896425329813
 20
553.0743854848
 10
415.9846095050174
 20
552.9955381510246
 10
415.7413053806182
 20
552.9256145152002
 10
415.26167054289584
 20
552.7410521514668
 10
414.76085817867977
 20
552.5922811818668
 10
414.3506542124593
 20
552.4077188181334
 10
413.9826791213609
 20
552.2589478485335
 10
413.57247517796856
 20
552.0743854848
 10
413.0716635351602
 20
551.9256145152002
 10
412.59204435748006
 20
551.7410521514668
 10
412.07462230918685
 20
551.5922811818668
 10
411.5950031315066
 20
551.4077188181334
 10
411.09419148869836
 20
551.2589478485335
 10
410.6839875453118
 20
551.0743854848
 10
410.31601245468835
 20
550.9256145152002
 10
409.9058085113019
 20
550.7410521514668
 10
409.4049968684936
 20
550.5922811818668
 10
408.9253776908134
 20
550.4077188181334
 10
408.40795564252016
 20
550.2589478485335
 10
407.9283364648458
 20
550.0743854848
 10
407.4275248225124
 20
549.9256145152002
 10
407.017320901954
 20
549.7410521514668
 10
406.6493465322634
 20
549.5922811818668
 10
406.23915822609104
 20
549.4077188181334
 10
405.73858268673666
 20
549.2589478485335
 10
405.31656930527095
 20
549.095717665824
 10
405.2614173370592
 20
549.0743854848
 10
404.7608425186375
 20
548.9256145152002
 10
404.35066987249553
 20
548.7410521514668
 10
403.98293232671676
 20
548.5922811818668
 10
403.5751978485413
 20
548.4077188181334
 10
403.09146881812563
 20
548.2589478485335
 10
402.6837343399501
 20
548.0743854848
 10
402.3159967941712
 20
547.9256145152002
 10
401.90582414803515
 20
547.7410521514668
 10
401.4052493300885
 20
547.5922811818668
 10
400.92808400324503
 20
547.4077188181334
 10
400.42750918529833
 20
547.2589478485335
 10
400.0173365391681
 20
547.0743854848
 10
399.64959899386423
 20
546.9256145152002
 10
399.24186453851695
 20
546.7410521514668
 10
398.75813622903405
 20
546.5922811818668
 10
398.35041738807246
 20
546.4077188181334
 10
397.9829159457476
 20
546.2589478485335
 10
397.57519712760853
 20
546.0743854848
 10
397.0914695390585
 20
545.9256145152002
 10
396.68375072092505
 20
545.7410521514668
 10
396.3162492790751
 20
545.5922811818668
 10
395.90853046094185
 20
545.4077188181334
 10
395.42480287239187
 20
545.2589478485335
 10
395.0170840542584
 20
545.0743854848
 10
394.80065462525334
 20
544.9867710911233
 10
394.6495826124085
 20
544.9256145152002
 10
394.2418637942752
 20
544.7410521514668
 10
393.7581362057251
 20
544.5922811818668
 10
393.3504173875917
 20
544.4077188181334
 10
392.98291594574175
 20
544.2589478485335
 10
392.57519712760853
 20
544.0743854848
 10
392.0914695390585
 20
543.9256145152002
 10
391.68375072092505
 20
543.7410521514668
 10
391.3162492790751
 20
543.5922811818668
 10
390.90853046094185
 20
543.4077188181334
 10
390.47920360664585
 20
543.275678856178
 10
390.42480287239187
 20
543.2589478485335
 10
390.0170840542584
 20
543.0743854848
 10
389.6495826124085
 20
542.9256145152002
 10
389.2418637942752
 20
542.7410521514668
 10
388.7581362057251
 20
542.5922811818668
 10
388.3504173875917
 20
542.4077188181334
 10
387.98291594574175
 20
542.2589478485335
 10
387.5751971276144
 20
542.0743854848
 10
387.12289451225405
 20
541.9352793012816
 10
387.0914695395393
 20
541.9256145152002
 10
386.683750744234
 20
541.7410521514668
 10
386.3162500233168
 20
541.5922811818668
 10
385.9085468423976
 20
541.4077188181334
 10
385.4250553573015
 20
541.2589478485335
 10
385.01979036716494
 20
541.0743854848
 10
384.6691361547116
 20
540.9256145152002
 10
384.33086384528843
 20
540.7410521514668
 10
383.9802096328351
 20
540.5922811818668
 10
383.5749446426987
 20
540.4077188181334
 10
383.0914531576026
 20
540.2589478485335
 10
382.6837499766833
 20
540.0743854848
 10
382.5479482887534
 20
540.0194104939042
 10
382.3162492557662
 20
539.9256145152002
 10
381.90853046046686
 20
539.7410521514668
 10
381.4248028728667
 20
539.5922811818668
 10
381.0170840775673
 20
539.4077188181334
 10
380.64958335665017
 20
539.2589478485335
 10
380.24188017573084
 20
539.0743854848
 10
379.75838869063483
 20
538.9256145152002
 10
379.35312370050417
 20
538.7410521514668
 10
379.0024694885257
 20
538.5922811818668
 10
378.6641972019307
 20
538.4077188181334
 10
378.3135437104102
 20
538.2589478485335
 10
377.9082943574878
 20
538.0743854848
 10
377.4250389758456
 20
537.9256145152002
 10
377.01978962292907
 20
537.7410521514668
 10
376.6691361318835
 20
537.5922811818668
 10
376.3308638681165
 20
537.4077188181334
 10
375.980210377071
 20
537.2589478485335
 10
375.57496102415445
 20
537.0743854848
 10
375.0917056425123
 20
536.9256145152002
 10
374.6864562895958
 20
536.7410521514668
 10
374.33580279855016
 20
536.5922811818668
 10
373.9975305347832
 20
536.4077188181334
 10
373.6468770437377
 20
536.2589478485335
 10
373.2416276908211
 20
536.0743854848
 10
372.7583723091789
 20
535.9256145152002
 10
372.35312295626244
 20
535.7410521514668
 10
372.00246946521685
 20
535.5922811818668
 10
371.6641972014558
 20
535.4077188181334
 10
371.31354371088514
 20
535.2589478485335
 10
370.9082943808026
 20
535.0743854848
 10
370.88113451740946
 20
535.0660242633909
 10
370.4250397205682
 20
534.9256145152002
 10
370.01980602768805
 20
534.7410521514668
 10
369.6693893605542
 20
534.5922811818668
 10
369.3335865391701
 20
534.4077188181334
 10
369.0000156600422
 20
534.2589478485335
 10
368.66665100662453
 20
534.0743854848
 10
368.3330801274968
 20
533.9256145152002
 10
367.9972773061186
 20
533.7410521514668
 10
367.64686063945965
 20
533.5922811818668
 10
367.24162696941346
 20
533.4077188181334
 10
366.7583730305867
 20
533.2589478485335
 10
366.3531393605463
 20
533.0743854848
 10
366.00272269436243
 20
532.9256145152002
 10
365.66691989581227
 20
532.7410521514668
 10
365.3333497376173
 20
532.5922811818668
 10
365.0000007214078
 20
532.4077188181334
 10
364.666665945259
 20
532.2589478485335
 10
364.3333169290495
 20
532.0743854848
 10
363.99974677085453
 20
531.9256145152002
 10
363.6639439723044
 20
531.7410521514668
 10
363.3135273061204
 20
531.5922811818668
 10
362.90829363608003
 20
531.4077188181334
 10
362.42503969725334
 20
531.2589478485335
 10
362.01980602721295
 20
531.0743854848
 10
361.66938936102906
 20
530.9256145152002
 10
361.3335865624848
 20
530.7410521514668
 10
361.0000164047647
 20
530.5922811818668
 10
360.66666741138334
 20
530.4077188181334
 10
360.3333333561674
 20
530.2589478485335
 10
359.99999997716606
 20
530.0743854848
 10
359.6666659219501
 20
529.9256145152002
 10
359.33331692856865
 20
529.7410521514668
 10
358.9997467708486
 20
529.5922811818668
 10
358.6639439723044
 20
529.4077188181334
 10
358.3135273061204
 20
529.2589478485335
 10
357.90829363608003
 20
529.0743854848
 10
357.42503969725334
 20
528.9256145152002
 10
357.01980602721295
 20
528.7410521514668
 10
356.66938936102906
 20
528.5922811818668
 10
356.3335865624848
 20
528.4077188181334
 10
356.0000164047648
 20
528.2589478485335
 10
355.6666674113892
 20
528.0743854848
 10
355.33333335664815
 20
527.9256145152002
 10
355.00000000048084
 20
527.7410521514668
 10
354.6666666666726
 20
527.5922811818668
 10
354.33333333333337
 20
527.4077188181334
 10
354.0
 20
527.2589478485335
 10
353.6666666666667
 20
527.0743854848
 10
353.3333333333333
 20
526.9256145152002
 10
353.0
 20
526.7410521514668
 10
352.6666666666667
 20
526.5922811818668
 10
352.3333333333333
 20
526.4077188181334
 10
352.0
 20
526.2589478485335
 10
351.66666666666083
 20
526.0743854848
 10
351.3333333328525
 20
525.9256145152002
 10
350.9999999766852
 20
525.7410521514668
 10
350.6666659219442
 20
525.5922811818668
 10
350.33331692856865
 20
525.4077188181334
 10
349.9997467708486
 20
525.2589478485335
 10
349.6639439723044
 20
525.0743854848
 10
349.3135273061204
 20
524.9256145152002
 10
349.22022279095535
 20
524.8831192756902
 10
348.9082936360801
 20
524.7410521514668
 10
348.4250396972534
 20
524.5922811818668
 10
348.019806027213
 20
524.4077188181334
 10
347.6693893610291
 20
524.2589478485335
 10
347.3335865624848
 20
524.0743854848
 10
347.0000164047648
 20
523.9256145152002
 10
346.6666674113892
 20
523.7410521514668
 10
346.33333335664815
 20
523.5922811818668
 10
346.00000000048084
 20
523.4077188181334
 10
345.6666666666726
 20
523.2589478485335
 10
345.33333333333337
 20
523.0743854848
 10
345.0
 20
522.9256145152002
 10
344.6666666666667
 20
522.7410521514668
 10
344.3333333333333
 20
522.5922811818668
 10
344.0
 20
522.4077188181334
 10
343.6666666666667
 20
522.2589478485335
 10
343.3333333333333
 20
522.0743854848
 10
342.99999999999415
 20
521.9256145151943
 10
342.66666666618585
 20
521.741052150986
 10
342.33333331001853
 20
521.5922811585519
 10
341.9999992552775
 20
521.4077180734109
 10
341.666650261902
 20
521.2589314437688
 10
341.33308010418193
 20
521.0741322556487
 10
340.99727730563774
 20
520.9228918208378
 10
340.6468606394538
 20
520.721246124254
 10
340.2416269694134
 20
520.5005748179468
 10
340.08965367223107
 20
520.3953868916815
 10
339.7583730305867
 20
520.1660918487202
 10
339.3531393605463
 20
519.9454205424132
 10
339.0027226943625
 20
519.7437748458292
 10
338.6669198958182
 20
519.5925344110183
 10
338.3333497380981
 20
519.407735222898
 10
338.00000074472257
 20
519.2589485932559
 10
337.66666668998147
 20
519.0743855081149
 10
337.33333333381415
 20
518.925614515681
 10
337.0000000000059
 20
518.7410521514727
 10
336.66666666666674
 20
518.5922811818668
 10
336.50877316439636
 20
518.5048575878753
 10
336.3333333333333
 20
518.4077188181334
 10
336.0
 20
518.2589478485335
 10
335.6666666666667
 20
518.0743854848
 10
335.33333333332746
 20
517.9256145151943
 10
334.99999999951916
 20
517.741052150986
 10
334.6666666433519
 20
517.5922811585519
 10
334.3333325886108
 20
517.4077180734109
 10
333.99998359523534
 20
517.2589314437688
 10
333.66641343751525
 20
517.0741322556487
 10
333.33061063897105
 20
516.9228918208378
 10
332.9801939727871
 20
516.721246124254
 10
332.5749603027467
 20
516.5005748179468
 10
332.09170636392
 20
516.1660918487202
 10
331.6864726938797
 20
515.9454205424132
 10
331.33605602769575
 20
515.7437748458292
 10
331.0002532291456
 20
515.5925344110124
 10
330.66668307095057
 20
515.4077352224173
 10
330.3333340547411
 20
515.2589485699413
 10
329.9999992785923
 20
515.0743847633923
 10
329.66665026238286
 20
514.9255981109162
 10
329.33308010418784
 20
514.7407989223212
 10
328.99727730563774
 20
514.5895584875045
 10
328.6468606394538
 20
514.3879127909207
 10
328.24162696941346
 20
514.1672414846134
 10
327.75837303058665
 20
513.8327585153868
 10
327.58614773915343
 20
513.7389726756358
 10
327.3531393605405
 20
513.6120872090739
 10
327.00272269388165
 20
513.410441512015
 10
326.66691987250334
 20
513.2592010543701
 10
326.3333489933755
 20
513.0744011448423
 10
325.99998433995785
 20
512.9255988551579
 10
325.66641346083014
 20
512.7407989456301
 10
325.3306106394519
 20
512.5895584879853
 10
324.98019397279296
 20
512.3879127909265
 10
324.5749603027409
 20
512.1672414846078
 10
324.0917063634392
 20
511.832758514906
 10
324.03860906366424
 20
511.80384420713455
 10
323.68647267056485
 20
511.6120871857649
 10
323.33605528297323
 20
511.41044076777337
 10
323.00023682438683
 20
511.2591846729202
 10
322.66642984228
 20
511.0741486604134
 10
322.33061138369357
 20
510.92289256556035
 10
321.98019399610195
 20
510.7212461475687
 10
321.5749603032217
 20
510.50057481842174
 10
321.0917063634451
 20
510.1660918482452
 10
320.6864726705649
 20
509.9454205190983
 10
320.33605528297323
 20
509.7437741011067
 10
320.00023682438683
 20
509.59251800625356
 10
319.66642984227997
 20
509.4074819937467
 10
319.33061138368765
 20
509.2562258988877
 10
318.98019399562105
 20
509.0545794804211
 10
318.5749602799127
 20
508.8339081284462
 10
318.09170561920337
 20
508.4994244373368
 10
317.686456289115
 20
508.2787374709817
 10
317.3358027985443
 20
508.076854950011
 10
316.9975305347832
 20
507.9231450499833
 10
316.6468770437377
 20
507.72126252853775
 10
316.2416276908211
 20
507.50057553935454
 10
316.13973219960127
 20
507.4300487438648
 10
315.7583723091789
 20
507.1660911273124
 10
315.35312295626244
 20
506.9454041381293
 10
315.0024694652168
 20
506.74352161668355
 10
314.6641972014499
 20
506.58981171665
 10
314.3135437104043
 20
506.3879291952044
 10
313.90829435748776
 20
506.16724220602117
 10
313.4250389758456
 20
505.8327577939791
 10
313.0197896229232
 20
505.61207080479
 10
312.6691361314027
 20
505.41018828286946
 10
312.33086384480765
 20
505.2564783600078
 10
312.25983141683423
 20
505.2155826388574
 10
311.98020963282926
 20
505.0545951176294
 10
311.57494464269865
 20
504.83389249123206
 10
311.0914531576026
 20
504.499171975736
 10
310.6837499766833
 20
504.27603115855004
 10
310.31624925576614
 20
504.05730140723284
 10
309.908530460461
 20
503.83414497566093
 10
309.46883838633534
 20
503.52968069876187
 10
309.42480287238584
 20
503.49918835718586
 10
309.0170840542583
 20
503.2760319027917
 10
308.64958261240844
 20
503.05730143054177
 10
308.24186379427516
 20
502.83414497614183
 10
307.7581362057251
 20
502.4991883571918
 10
307.3504173875917
 20
502.2760319027918
 10
306.98291594574175
 20
502.0573014305418
 10
306.5751971276085
 20
501.83414497614183
 10
306.0914695390585
 20
501.4991883571918
 10
305.68375072092505
 20
501.2760319027918
 10
305.31624927907507
 20
501.05730143054177
 10
304.90853046094185
 20
500.83414497614183
 10
304.4248028723918
 20
500.4991883571918
 10
304.01708405425836
 20
500.2760319027918
 10
303.90486906102694
 20
500.2092434887396
 10
303.64958261240844
 20
500.0573014305418
 10
303.24186379427516
 20
499.83414497614183
 10
302.75813620572507
 20
499.49918835719177
 10
302.35041738758576
 20
499.2760319027859
 10
301.9829159452609
 20
499.057301430061
 10
301.57519710429955
 20
498.83414495283284
 10
301.09146879481676
 20
498.49918761295004
 10
300.77769618159147
 20
498.32744522163057
 10
300.60811030135744
 20
498.62680616592587
 10
298.6268676279266
 20
502.1241885940968
 10
296.8090136167794
 20
505.3331496975625
 10
293.8382185140673
 20
510.57733645431614
 10
294.35219572098
 20
510.84714039866566
 10
294.90462244203
 20
511.1510787741156
 10
295.51415446683
 20
511.50909914451563
 10
296.16081267913006
 20
511.9072690112156
 10
296.77034470393005
 20
512.2652893816156
 10
297.32277142498003
 20
512.5692277570655
 10
297.85219572098003
 20
512.8471403986655
 10
298.4046224420301
 20
513.1510787741156
 10
299.01415446683
 20
513.5090991445155
 10
299.66081267913
 20
513.9072690112156
 10
300.27034470393
 20
514.2652893816156
 10
300.82277142492995
 20
514.5692277570156
 10
301.35219571713003
 20
514.8471403946155
 10
301.90462230968
 20
515.1510786254655
 10
302.51415180468
 20
515.5090958798655
 10
303.16077830272997
 20
515.9072212953155
 10
303.7700530297299
 20
516.2648009249156
 10
304.32121568398
 20
516.5656363778655
 10
304.84816287693
 20
516.8279678259156
 10
305.41176429068
 20
517.0764650308656
 10
306.12190808492994
 20
517.2959668660656
 10
307.11721944132995
 20
517.4487460199656
 10
308.40154022453
 20
517.4795282437157
 10
309.77687217713003
 20
517.4413680458156
 10
311.07244666153
 20
517.4896596159655
 10
312.10184638968
 20
517.7090848047156
 10
312.86730093078
 20
518.1048312898656
 10
313.44409551138
 20
518.6951230536656
 10
313.83608461168006
 20
519.5009520032655
 10
314.04896678998006
 20
520.5953099804657
 10
314.06691506578005
 20
521.8892184211657
 10
313.92380986058004
 20
523.0463614455656
 10
313.70610047033006
 20
523.9403814518156
 10
313.46075333378
 20
524.6230781879656
 10
313.21313093778
 20
525.1875784073657
 10
312.96152826848004
 20
525.7046368527656
 10
312.71126316693005
 20
526.2095660503655
 10
312.4472433407801
 20
526.7216365812155
 10
312.1366708654301
 20
527.2774649050655
 10
311.6706231321301
 20
527.9598772556656
 10
310.92122187178006
 20
528.8429023064156
 10
309.90025270473
 20
529.7987253305655
 10
308.81787335117997
 20
530.5048048908155
 10
307.69340565328
 20
530.8572675783156
 10
306.52496157913004
 20
530.8836239266157
 10
305.49315348093006
 20
530.6203002862156
 10
304.62674598863003
 20
530.0795483928157
 10
303.88934669753
 20
529.2845375229156
 10
303.31092956038
 20
528.3826449708656
 10
302.78027561643
 20
527.4477408893156
 10
302.11893882898
 20
526.4501530623655
 10
301.29397947533005
 20
525.5022751678156
 10
300.50354110023
 20
524.8060693036156
 10
299.82095137003
 20
524.3265279287156
 10
299.17076998208
 20
523.9186819146156
 10
298.5155494818301
 20
523.5106368615656
 10
297.90476128938
 20
523.1512274032656
 10
297.35220533798
 20
522.8471504614655
 10
296.82277186653
 20
522.5692282107656
 10
296.27034471603
 20
522.2652893938656
 10
295.66081267927996
 20
521.9072690113657
 10
295.01415446683
 20
521.5090991445156
 10
294.40462244203
 20
521.1510787741156
 10
293.85219572098003
 20
520.8471403986656
 10
293.32277142498
 20
520.5692277570655
 10
292.77034470393
 20
520.2652893816155
 10
292.16081267913
 20
519.9072690112155
 10
291.51415446683
 20
519.5090991445156
 10
290.9046224420301
 20
519.1510787741156
 10
290.35219572098003
 20
518.8471403986656
 10
289.82277142498003
 20
518.5692277570656
 10
289.43250520170096
 20
518.3545080895033
 10
288.3708350049589
 20
520.2286180813745
 10
287.67812623772136
 20
521.4514200646273
 10
285.1147512265233
 20
525.9764097800223
 10
285.33580279855016
 20
526.0768549500169
 10
285.68645628959575
 20
526.2787374714626
 10
286.0917056425123
 20
526.4994244606457
 10
286.57496102415445
 20
526.8339088726879
 10
286.980210377071
 20
527.054595861871
 10
287.3308638681165
 20
527.2564783833166
 10
287.6691361318835
 20
527.4101882833503
 10
288.01978962292907
 20
527.612070804796
 10
288.4250389758456
 20
527.8327577939791
 10
288.90829435748776
 20
528.1672422060212
 10
289.3135437104043
 20
528.3879291952045
 10
289.6641972014499
 20
528.5898117166499
 10
290.00246946521094
 20
528.7435216166776
 10
290.3531229557816
 20
528.9454041376484
 10
290.75837228587005
 20
529.1660911040035
 10
291.2416269465794
 20
529.5005747951128
 10
291.5641664096641
 20
529.6762147199887
 10
291.64686066228774
 20
529.7212461470879
 10
291.99727805035434
 20
529.9228925655544
 10
292.33309650894665
 20
530.0741486604134
 10
292.6669034910535
 20
530.2591846729202
 10
293.0027219496399
 20
530.4104407677734
 10
293.3531393372316
 20
530.6120871857651
 10
293.7583730301118
 20
530.8327585149119
 10
294.24162696988833
 20
531.1672414850885
 10
294.6468606627686
 20
531.3879128142354
 10
294.99727805036025
 20
531.5895592322271
 10
295.0674384630951
 20
531.6211602052297
 10
295.3330965089467
 20
531.7408153270801
 10
295.6669034910535
 20
531.9258513395869
 10
296.0027219496399
 20
532.07710743444
 10
296.35313933723154
 20
532.2787538524317
 10
296.7583730301059
 20
532.4994251815727
 10
297.24162696940755
 20
532.8339081512744
 10
297.64686063945965
 20
533.054579457593
 10
297.9972773061186
 20
533.2562251546518
 10
298.3330801274968
 20
533.4074656122968
 10
298.66665100662453
 20
533.5922655218246
 10
299.0000156600422
 20
533.741067811509
 10
299.33358653917
 20
533.9258677210366
 10
299.6693893605483
 20
534.0771081786817
 10
300.0198060272071
 20
534.2787538757406
 10
300.4250396972533
 20
534.4994251820535
 10
300.9082936360801
 20
534.8339081512803
 10
301.3135273061263
 20
535.0545794575931
 10
301.6639439727852
 20
535.2562251546518
 10
301.99974679416346
 20
535.4074656122968
 10
302.33331767329116
 20
535.5922655218246
 10
302.66668232670884
 20
535.741067811509
 10
303.00025320583666
 20
535.9258677210366
 10
303.33605602721497
 20
536.0771081786817
 10
303.68647269387384
 20
536.2787538757406
 10
304.09170636391997
 20
536.4994251820535
 10
304.5749603027467
 20
536.8339081512802
 10
304.9801939727871
 20
537.0545794575872
 10
305.33061063897105
 20
537.256225154171
 10
305.66641343751525
 20
537.4074655889821
 10
305.99998359523534
 20
537.5922647771021
 10
306.31085858005656
 20
537.7310203820441
 10
306.3333325886167
 20
537.7410514067502
 10
306.66666664383274
 20
537.9256144923662
 10
307.000000022834
 20
538.074385507634
 10
307.33333407805
 20
538.25894859325
 10
307.66668307143135
 20
538.407735222898
 10
308.0002532291515
 20
538.5925344110183
 10
308.33605602769575
 20
538.7437748458292
 10
308.6864726938797
 20
538.9454205424132
 10
309.09170636392
 20
539.1660918487202
 10
309.5749603027467
 20
539.5005748179468
 10
309.9801939727871
 20
539.721246124254
 10
310.33061063897105
 20
539.9228918208378
 10
310.66641343751525
 20
540.0741322556487
 10
310.99998359523534
 20
540.2589314437688
 10
311.3333325886108
 20
540.4077180734109
 10
311.6666666433519
 20
540.5922811585519
 10
311.99999999951916
 20
540.741052150986
 10
312.33333333332746
 20
540.9256145151943
 10
312.6666666666667
 20
541.0743854848
 10
313.0
 20
541.2589478485335
 10
313.3333333333333
 20
541.4077188181334
 10
313.6666666666667
 20
541.5922811818668
 10
314.0
 20
541.7410521514668
 10
314.3333333333333
 20
541.9256145152002
 10
314.6666666666667
 20
542.0743854848
 10
315.0
 20
542.2589478485335
 10
315.3333333333333
 20
542.4077188181334
 10
315.6666666666667
 20
542.5922811818668
 10
316.0
 20
542.7410521514668
 10
316.3333333333333
 20
542.9256145152002
 10
316.6666666666667
 20
543.0743854848
 10
317.0
 20
543.2589478485335
 10
317.3333333333333
 20
543.4077188181334
 10
317.6666666666667
 20
543.5922811818668
 10
318.0
 20
543.7410521514668
 10
318.3333333333333
 20
543.9256145152002
 10
318.6666666666667
 20
544.0743854848
 10
319.0
 20
544.2589478485335
 10
319.3333333333333
 20
544.4077188181334
 10
319.3475327609873
 20
544.4155808579278
 10
319.6666666666667
 20
544.5922811818668
 10
320.0
 20
544.7410521514668
 10
320.3333333333333
 20
544.9256145152002
 10
320.66666666666674
 20
545.0743854848
 10
321.0000000000059
 20
545.2589478485335
 10
321.33333333381415
 20
545.4077188181334
 10
321.66666668998147
 20
545.5922811818668
 10
322.00000074472257
 20
545.7410521514668
 10
322.3333497380981
 20
545.9256145152002
 10
322.6669198958182
 20
546.0743854848
 10
323.00272269436243
 20
546.2589478485335
 10
323.3531393605463
 20
546.4077188181334
 10
323.7583730305867
 20
546.5922811818668
 10
324.2416269694134
 20
546.7410521514668
 10
324.6468606394538
 20
546.9256145152002
 10
324.99727730563774
 20
547.0743854848
 10
325.33308010418193
 20
547.2589478485335
 10
325.666650261902
 20
547.4077188181334
 10
325.9999992552775
 20
547.5922811818668
 10
326.33333331001853
 20
547.7410521514668
 10
326.66666666618585
 20
547.9256145152002
 10
326.99999999999415
 20
548.0743854848
 10
327.3333333333333
 20
548.2589478485335
 10
327.6666666666667
 20
548.4077188181334
 10
328.0
 20
548.5922811818668
 10
328.3333333333333
 20
548.7410521514668
 10
328.6666666666667
 20
548.9256145152002
 10
329.00000000000006
 20
549.0743854848
 10
329.3333333333392
 20
549.2589478485335
 10
329.6666666671475
 20
549.4077188181334
 10
330.00000002331484
 20
549.5922811818668
 10
330.3333340780559
 20
549.7410521514668
 10
330.6666830714314
 20
549.9256145152002
 10
331.0002532291515
 20
550.0743854848
 10
331.33605602769575
 20
550.2589478485335
 10
331.6864726938797
 20
550.4077188181334
 10
332.09170636392
 20
550.5922811818668
 10
332.5749603027467
 20
550.7410521514668
 10
332.9801939727871
 20
550.9256145152002
 10
333.09181521442025
 20
550.9730038147062
 10
333.33061063897105
 20
551.0743854848
 10
333.66641343751525
 20
551.2589478485335
 10
333.99998359523534
 20
551.4077188181334
 10
334.3333325886167
 20
551.5922811818668
 10
334.66666664383274
 20
551.7410521514668
 10
335.00000002283406
 20
551.9256145152002
 10
335.33333407805
 20
552.0743854848
 10
335.66668307143135
 20
552.2589478485335
 10
336.0002532291515
 20
552.4077188181334
 10
336.33605602769575
 20
552.5922811818668
 10
336.5499528666343
 20
552.6830920456017
 10
336.54995286663456
 20
552.6830920456018
 10
336.6864726938797
 20
552.7410521514668
 10
337.09170636392
 20
552.9256145152002
 10
337.5749603027468
 20
553.0743854848
  0
LWPOLYLINE
  5
30
330
17
100
AcDbEntity
  8
default
100
AcDbPolyline
 90
54
 70
0
 10
353.77716713438224
 20
535.5045049846229
 10
353.0522735635286
 20
534.5270991504368
 10
352.2350680285439
 20
533.6254517873527
 10
351.33342066545987
 20
532.808246252368
 10
350.35601483127374
 20
532.0833526815144
 10
349.312263478473
 20
531.4577521961463
 10
349.3027012852835
 20
531.4532296155874
 10
349.8240125383701
 20
530.7559060249494
 10
349.9621861503505
 20
530.8248338210668
 10
350.0993258627243
 20
530.8860410450084
 10
350.2446999972628
 20
530.9665328266967
 10
350.62885281701716
 20
531.1581671544002
 10
350.76599252939144
 20
531.219374378342
 10
350.91136666392913
 20
531.2998661600299
 10
351.2955194836854
 20
531.4915004877342
 10
351.43265919605864
 20
531.5527077116755
 10
351.5780333305958
 20
531.6331994933631
 10
351.96218615035076
 20
531.8248338210669
 10
352.09932586274203
 20
531.8860410450162
 10
352.24469999730127
 20
531.9665328267147
 10
352.6288528194442
 20
532.1581671554808
 10
352.76599259742824
 20
532.2193744086178
 10
352.911366814225
 20
532.2998662303377
 10
353.29552318469706
 20
532.491502129136
 10
353.43270723874633
 20
532.5527290108311
 10
353.57813681901456
 20
532.6332477093256
 10
353.96340923110097
 20
532.8253721849461
 10
354.10729854467513
 20
532.8895462490825
 10
354.2610898227311
 20
532.9740722921132
 10
354.7154230091724
 20
533.1946735484314
 10
355.0062791434132
 20
533.318157826666
 10
355.3526265992011
 20
533.4759006546667
 10
355.9539108383781
 20
533.7042942366907
 10
356.12916227795336
 20
533.758245843692
 10
356.24111420806815
 20
533.809233988
 10
356.35956095426434
 20
533.8613402150983
 10
356.47723308728575
 20
533.9112984477221
 10
356.59144723255037
 20
533.974072292113
 10
356.9631395971848
 20
534.1587055182795
 10
357.0999340486267
 20
534.2197153019963
 10
357.24478633623244
 20
534.2999143760104
 10
357.6288557524202
 20
534.4915021302166
 10
357.76599440543157
 20
534.552708748799
 10
357.91136694072526
 20
534.6331996339786
 10
358.29552318663616
 20
534.8248354635493
 10
358.4327072399186
 20
534.886062344815
 10
358.57813681904673
 20
534.9665810426768
 10
358.9634092311012
 20
535.1587055182796
 10
359.0044069897424
 20
535.1769903563063
 10
355.57577556794746
 20
539.7632438848694
 10
355.33300410491006
 20
538.7940458761107
 10
354.9230501449706
 20
537.6483013127388
 10
354.40276761975025
 20
536.5482563374236
 10
353.77716713438224
 20
535.5045049846229
  0
LWPOLYLINE
  5
31
330
17
100
AcDbEntity
  8
default
100
AcDbPolyline
 90
52
 70
0
 10
341.0478239488307
 20
530.2318383970659
 10
339.8674139438753
 20
530.5275157109866
 10
338.72166938050356
 20
530.937469670926
 10
337.6216244051883
 20
531.4577521961463
 10
336.5778730523876
 20
532.0833526815144
 10
335.60046721820146
 20
532.808246252368
 10
334.9707391923765
 20
533.3789984658264
 10
331.9829900688492
 20
531.2391347270459
 10
337.09080913630396
 20
524.4067429237102
 10
337.1324873078958
 20
524.4294389069161
 10
337.3960225106433
 20
524.611844118811
 10
337.85041715539444
 20
524.8917154015924
 10
338.20401476230944
 20
525.0842681226366
 10
338.503470853277
 20
525.2565887851125
 10
338.94399562760674
 20
525.4818428351241
 10
339.09109085113613
 20
525.5480922697972
 10
339.24362296598224
 20
525.6325956653601
 10
339.6287373776304
 20
525.8247732145838
 10
339.76594256701713
 20
525.8860132306149
 10
339.91136340682783
 20
525.9665310128743
 10
340.29551931595586
 20
526.1581670666318
 10
340.4326591251603
 20
526.2193743389917
 10
340.5780333284619
 20
526.2998661588457
 10
340.96218615030824
 20
526.4915004877114
 10
341.0993258627066
 20
526.5527077116652
 10
341.2446999972628
 20
526.6331994933633
 10
341.62885281701716
 20
526.8248338210668
 10
341.76599252939144
 20
526.8860410450086
 10
341.91136666392913
 20
526.9665328266965
 10
342.2955194836841
 20
527.1581671544003
 10
342.4326591960582
 20
527.219374378342
 10
342.5780333305958
 20
527.2998661600299
 10
342.96218615035207
 20
527.4915004877342
 10
343.09932586274255
 20
527.5527077116832
 10
343.24469999730127
 20
527.6331994933813
 10
343.6288528194442
 20
527.8248338221474
 10
343.76599259742824
 20
527.8860410752844
 10
343.911366814225
 20
527.9665328970043
 10
344.2955231846958
 20
528.1581687958021
 10
344.4327072387456
 20
528.2193956774973
 10
344.57813681901456
 20
528.2999143759923
 10
344.9634092311023
 20
528.4920388516134
 10
345.1072985446765
 20
528.5562129157497
 10
345.2610898227315
 20
528.6407389587799
 10
345.71542300917247
 20
528.861340215098
 10
346.0062791434133
 20
528.9848244933327
 10
346.1163548801691
 20
529.0349581314465
 10
345.28791230347235
 20
530.1431109841307
 10
344.6823564819172
 20
530.0532852633307
 10
343.46694394183066
 20
529.993575874066
 10
342.2515314017441
 20
530.0532852633307
 10
341.0478239488307
 20
530.2318383970659
  0
LWPOLYLINE
  5
32
330
17
100
AcDbEntity
  8
default
100
AcDbPolyline
 90
51
 70
0
 10
331.12665333109544
 20
541.1781633339795
 10
331.0669439418307
 20
542.393575874066
 10
331.12665333109544
 20
543.6089884141525
 10
331.2778448407687
 20
544.6282387807174
 10
331.037813849648
 20
544.508499512266
 10
330.90067413727525
 20
544.447292288325
 10
330.7553000027372
 20
544.3668005066369
 10
330.37114718298284
 20
544.1751661789334
 10
330.23400747060856
 20
544.1139589549916
 10
330.08863333607087
 20
544.0334671733037
 10
329.7044805163159
 20
543.8418328455999
 10
329.5673408039255
 20
543.780625621651
 10
329.4219666693658
 20
543.7001338399523
 10
329.03781384722095
 20
543.5084995111854
 10
328.90067406923794
 20
543.447292258049
 10
328.7552998524417
 20
543.3668004363293
 10
328.3711434819709
 20
543.1751645375315
 10
328.23395942792143
 20
543.1139376558364
 10
328.08852984765286
 20
543.0334189573416
 10
327.70325743556555
 20
542.8412944817206
 10
327.55936812199104
 20
542.7771204175841
 10
327.405576843936
 20
542.6925943745539
 10
326.95124365749285
 20
542.4719931182348
 10
326.6603875232518
 20
542.3485088400001
 10
326.31404006746567
 20
542.1907660120003
 10
325.7127558282897
 20
541.9623724299765
 10
325.5375043887133
 20
541.9084208229749
 10
325.4255524585986
 20
541.8574326786669
 10
325.307105712403
 20
541.8053264515688
 10
325.1894335793816
 20
541.755368218945
 10
325.07521943411615
 20
541.6925943745537
 10
324.7035270694804
 20
541.5079611483867
 10
324.56673261805673
 20
541.4469513646781
 10
324.4218803304731
 20
541.3667522906748
 10
324.03781091667463
 20
541.1751645375314
 10
323.9006723292734
 20
541.1139579481444
 10
323.7552998762373
 20
541.0334671029959
 10
323.37114718104255
 20
540.8418328445194
 10
323.2340074694361
 20
540.7806256210076
 10
323.0886333360384
 20
540.7001338399523
 10
322.7044805163144
 20
540.5084995122659
 10
322.56734080394136
 20
540.4472922883248
 10
322.4219666694042
 20
540.3668005066371
 10
322.17104050146014
 20
540.241626187917
 10
328.39753284631297
 20
533.6095254216343
 10
328.427208640147
 20
533.6125375488773
 10
332.52986443758897
 20
536.5509115590936
 10
332.0108377386907
 20
537.6483013127388
 10
331.60088377875127
 20
538.7940458761107
 10
331.30520646483063
 20
539.974455881066
 10
331.12665333109544
 20
541.1781633339795
  0
LWPOLYLINE
  5
33
330
17
100
AcDbEntity
  8
default
100
AcDbPolyline
 90
50
 70
0
 10
354.40276761975025
 20
548.2388954107083
 10
354.9230501449706
 20
547.1388504353931
 10
355.33300410491006
 20
545.9931058720213
 10
355.53770346431395
 20
545.1759002208865
 10
363.60513774165884
 20
553.8759724977426
 10
361.71219221120435
 20
558.0331045768412
 10
361.6194468870089
 20
557.995559658005
 10
361.30379869272355
 20
557.8526749682253
 10
360.7116767081038
 20
557.6286341779162
 10
360.53111631509665
 20
557.5731026237911
 10
360.4123524051321
 20
557.5193416782529
 10
360.2266052613758
 20
557.4397421166724
 10
359.95281592361016
 20
557.3289072177806
 10
359.6372140418178
 20
557.1860380128581
 10
359.0456821099851
 20
556.9621692177985
 10
358.8704677844576
 20
556.9082555380337
 10
358.75873748215014
 20
556.8573722661093
 10
358.639301674904
 20
556.8048503855324
 10
358.51485673702376
 20
556.7520525196784
 10
358.3922931051
 20
556.6851814427813
 10
357.9503751530265
 20
556.4715170521986
 10
357.65978151032107
 20
556.3482277932949
 10
357.3138917577151
 20
556.1907055994543
 10
356.71207991161117
 20
555.9621692182044
 10
356.5314482396161
 20
555.90658861371
 10
356.41241729523216
 20
555.8527047229013
 10
356.2266076794584
 20
555.7730767301734
 10
355.952817503699
 20
555.6622412746186
 10
355.63721413715643
 20
555.5193713895678
 10
355.04568211082284
 20
555.2955025515375
 10
354.87046778510825
 20
555.2415888716621
 10
354.7587374822056
 20
555.1907055994653
 10
354.63930167715137
 20
555.1381837198168
 10
354.5148568040331
 20
555.0853858813676
 10
354.39229325294554
 20
555.0185148440622
 10
353.95037857886086
 20
554.8048518291123
 10
353.6598174378268
 20
554.6815761061407
 10
353.31397436539527
 20
554.5240690935607
 10
352.7127525376974
 20
554.2957045282071
 10
352.5374667257297
 20
554.2417425006868
 10
352.42546963083095
 20
554.1907357602275
 10
352.3059709998531
 20
554.1381851624456
 10
352.1815250720471
 20
554.0853867680472
 10
352.0589598958228
 20
554.0185148440623
 10
352.0468824651476
 20
554.0126754864442
 10
351.51165814189307
 20
551.8173604635856
 10
352.2350680285439
 20
551.1616999607792
 10
353.0522735635286
 20
550.2600525976952
 10
353.77716713438224
 20
549.282646763509
 10
354.40276761975025
 20
548.2388954107083
  0
LWPOLYLINE
  5
34
330
17
100
AcDbEntity
  8
default
100
AcDbPolyline
 90
52
 70
0
 10
314.73340996884843
 20
532.0782109335129
 10
315.4828112291985
 20
531.1951858827629
 10
315.79959977681165
 20
530.779726873584
 10
316.26564751011165
 20
530.0973145229839
 10
316.5015135736224
 20
529.7163474632754
 10
316.8120860489724
 20
529.1605191394254
 10
316.89131765091844
 20
529.0129688412705
 10
317.1553374770684
 20
528.5008983104206
 10
317.1911777665171
 20
528.4300086144519
 10
317.3800078770466
 20
528.0490292625493
 10
321.94099218724295
 20
527.7557970187627
 10
324.9561798805371
 20
531.4310463224538
 10
318.43686206936115
 20
538.3750478973116
 10
318.4219666694042
 20
538.3668005066371
 10
318.0378138496495
 20
538.1751661789334
 10
317.9006741372757
 20
538.1139589549919
 10
317.7553000027372
 20
538.0334671733035
 10
317.37114718298284
 20
537.8418328456
 10
317.23400747060856
 20
537.7806256216583
 10
317.08863333607087
 20
537.7001338399704
 10
316.7044805163146
 20
537.508499512266
 10
316.56734080394136
 20
537.4472922883248
 10
316.4219666694042
 20
537.3668005066371
 10
316.0378138496495
 20
537.1751661789334
 10
315.9006741372757
 20
537.1139589549919
 10
315.7553000027372
 20
537.0334671733035
 10
315.37114718298284
 20
536.8418328456
 10
315.23400747060856
 20
536.7806256216583
 10
315.08863333607087
 20
536.7001338399704
 10
314.7044805163523
 20
536.5084995122828
 10
314.5673408050665
 20
536.4472922888256
 10
314.4219666710514
 20
536.3668005073346
 10
314.0378139935821
 20
536.1751662429062
 10
313.90067587410977
 20
536.1139597246957
 10
313.75530249180116
 20
536.0334682190885
 10
313.37124547288244
 20
535.8418763025959
 10
313.23459319504616
 20
535.780883072509
 10
313.089440733435
 20
535.7004680340574
 10
312.71969511554624
 20
535.5151812413624
 10
312.6097340315949
 20
535.4656564541325
 10
312.47400042514784
 20
535.3875491599792
 10
312.37140378680607
 20
535.3301055406084
 10
312.20084602543903
 20
535.2372277597519
 10
311.9373108226901
 20
535.054822547856
 10
311.48291617793734
 20
534.7749512650737
 10
311.4449172611077
 20
534.7542588319543
 10
311.54970078942273
 20
534.6925392242784
 10
312.63208014297277
 20
533.9864596640284
 10
312.9864791921212
 20
533.7325791748924
 10
313.3174162550987
 20
533.4487929011773
 10
314.33838542214875
 20
532.4929698770273
 10
314.73340996884843
 20
532.0782109335129
  0
LWPOLYLINE
  5
35
330
17
100
AcDbEntity
  8
default
100
AcDbPolyline
 90
11
 70
0
 10
318.9569678040928
 20
519.6405712489438
 10
318.823127489434
 20
518.9525417615181
 10
319.8202371271327
 20
519.5652952888049
 10
320.5108825294301
 20
523.8394825733267
 10
318.8334452180756
 20
523.9473274316052
 10
318.8860065688311
 20
523.6600420046697
 10
319.0291117740311
 20
522.5028989802697
 10
319.06643409829496
 20
521.8198682696091
 10
319.04848582249497
 20
520.5259598289091
 10
319.02246823292404
 20
520.0812249709252
 10
318.9569678040928
 20
519.6405712489438
  0
LWPOLYLINE
  5
36
330
17
100
AcDbEntity
  8
default
100
AcDbPolyline
 90
45
 70
0
 10
307.16446569435084
 20
512.3848145836657
 10
306.97205874867836
 20
512.2999805377494
 10
306.63393757862457
 20
512.1316528241886
 10
306.2337975926502
 20
511.91324852375965
 10
305.7371920442989
 20
511.62179374947226
 10
305.13560080542686
 20
511.25139636763083
 10
305.0464694136626
 20
511.19778894028946
 10
304.642829597288
 20
510.9607044021164
 10
304.56579031581833
 20
506.43726621137756
 10
304.79317407647915
 20
506.5726010745578
 10
304.9498219934609
 20
506.66204851854667
 10
305.12739381340236
 20
506.7592387780518
 10
305.39542162281583
 20
506.9448343300748
 10
305.84126840014454
 20
507.22016159189684
 10
306.1698563713719
 20
507.40000741543105
 10
306.4598407431455
 20
507.57260107455755
 10
306.6164886601497
 20
507.6620485185587
 10
306.7940604805221
 20
507.75923877829854
 10
307.06208828984086
 20
507.944834330175
 10
307.50793515186825
 20
508.2201616382333
 10
307.8365243430549
 20
508.400008121159
 10
308.1265091851113
 20
508.57260182990177
 10
308.28321317926367
 20
508.662079845493
 10
308.4609615479021
 20
508.75936364922006
 10
308.72891980219833
 20
508.9448707941735
 10
309.18361562108623
 20
509.22496815789896
 10
309.53683054325126
 20
509.4173249192847
 10
309.8361212189583
 20
509.58963647283616
 10
310.2624090827631
 20
509.8085652327921
 10
310.3822871527102
 20
509.86303747191596
 10
310.5250498339698
 20
509.9452305509121
 10
310.628520115224
 20
510.0031788815228
 10
310.7991238604403
 20
510.0960847100076
 10
311.06268734387413
 20
510.2785097385557
 10
311.51702484981126
 20
510.55835028276636
 10
311.87019542789244
 20
510.7506766886789
 10
311.94097703056434
 20
510.7914279396553
 10
311.867735105101
 20
512.0722183678299
 10
310.739803612136
 20
512.4737883759577
 10
309.96311410386346
 20
512.4448378553006
 10
309.6381946837162
 20
512.4432915605245
 10
308.3920972323242
 20
512.477865995633
 10
307.5582398245044
 20
512.4578803459115
 10
307.2455852554523
 20
512.4098882274496
 10
307.16446569435084
 20
512.3848145836657
  0
LWPOLYLINE
  5
37
330
17
100
AcDbEntity
  8
default
100
AcDbPolyline
 90
44
 70
0
 10
324.9619295465002
 20
518.0032277927079
 10
325.1324873078846
 20
518.096105573575
 10
325.39602251064383
 20
518.2785107854779
 10
325.8504171553933
 20
518.5583820682584
 10
326.2040147623115
 20
518.7509347893046
 10
326.503470853277
 20
518.9232554517793
 10
326.9439956275713
 20
519.1485095017749
 10
327.0910908500166
 20
519.2147589359611
 10
327.2436229643386
 20
519.2992623313305
 10
327.6287372337172
 20
519.4914398172826
 10
327.765940830218
 20
519.5526791275503
 10
327.9113609177785
 20
519.633196633761
 10
328.2954210260767
 20
519.8247902763082
 10
328.4320734007425
 20
519.8857835547964
 10
328.5772259311002
 20
519.9661986314261
 10
328.9469715510782
 20
520.1514854252823
 10
329.0569326350539
 20
520.2010102125241
 10
329.19266624151686
 20
520.2791175066867
 10
329.2952628798624
 20
520.3365611260597
 10
329.46582064122856
 20
520.4294389069156
 10
329.72935584397663
 20
520.611844118811
 10
330.18375048872775
 20
520.8917154015924
 10
330.53734809564276
 20
521.0842681226366
 10
330.8368041866103
 20
521.2565887851125
 10
331.27732896094005
 20
521.4818428351241
 10
331.42442418446944
 20
521.5480922697972
 10
331.57695629931555
 20
521.6325956653601
 10
331.9620707109637
 20
521.8247732145838
 10
332.0992759003513
 20
521.8860132306153
 10
332.24469674016154
 20
521.9665310128744
 10
332.62885264928894
 20
522.1581670666317
 10
332.76599245849354
 20
522.2193743389917
 10
332.9113666617952
 20
522.2998661588457
 10
333.29551948364184
 20
522.4915004877115
 10
333.4326591960405
 20
522.5527077116654
 10
333.4680123273681
 20
522.5722822841151
 10
328.4114088481292
 20
529.3361663818359
 10
324.72485051723197
 20
524.8425751640461
 10
323.75807859236374
 20
518.8595276353881
 10
324.55759483856997
 20
517.7900676222774
 10
324.6136380528246
 20
517.8181520048605
 10
324.7235992327795
 20
517.8676768394384
 10
324.85933290630487
 20
517.9457841722698
 10
324.9619295465002
 20
518.0032277927079
  0
LWPOLYLINE
  5
38
330
17
100
AcDbEntity
  8
default
100
AcDbPolyline
 90
20
 70
0
 10
374.15180819427655
 20
541.914613203597
 10
374.274373289665
 20
541.9814850879903
 10
374.7162880860454
 20
542.195148169937
 10
375.0068492277245
 20
542.3184238933493
 10
375.3526923012464
 20
542.4759309064282
 10
375.9539141289695
 20
542.7042954717931
 10
376.12919994093676
 20
542.7582574993133
 10
376.2411970358358
 20
542.8092642397727
 10
376.36069566681334
 20
542.8618148375546
 10
376.4851415946195
 20
542.914613231953
 10
376.6077067708439
 20
542.9814851559379
 10
377.0496248452121
 20
543.195149613517
 10
377.1781413679281
 20
543.2496749180505
 10
374.54700676118955
 20
544.8324619047344
 10
373.33164206216156
 20
541.5945466815057
 10
373.620580795636
 20
541.7042954717931
 10
373.79586660759037
 20
541.7582574993094
 10
373.9078637024718
 20
541.8092642397614
 10
374.02736233123267
 20
541.8618148366036
 10
374.15180819427655
 20
541.914613203597
  0
LWPOLYLINE
  5
39
330
17
100
AcDbEntity
  8
default
100
AcDbPolyline
 90
29
 70
0
 10
364.0487563425071
 20
537.5280068817654
 10
364.3396124767476
 20
537.6514911599998
 10
364.68595993253444
 20
537.809233988
 10
365.2872441717106
 20
538.0376275700237
 10
365.4624956112991
 20
538.0915791770291
 10
365.57444754143194
 20
538.1425673213446
 10
365.69289428984735
 20
538.1946735493843
 10
365.8105664883903
 20
538.244631809758
 10
365.92478071496726
 20
538.3074056945708
 10
366.29647662761016
 20
538.4920404901011
 10
366.43331542515097
 20
538.5530699200149
 10
366.5782231526427
 20
538.633295920087
 10
366.9634121601551
 20
538.8253738234341
 10
367.1073003526827
 20
538.8895472488011
 10
367.2610899480569
 20
538.9740723612551
 10
367.7154230131857
 20
539.1946735503369
 10
368.0062791950366
 20
539.3181578484498
 10
368.24560438267554
 20
539.4271577245896
 10
371.3988767908886
 20
547.8279519407079
 10
371.34074488049373
 20
548.0042816093192
 10
366.3481866372749
 20
550.9512890903279
 10
358.51841061841697
 20
542.5075119324028
 10
362.7322254467389
 20
536.8709704824088
 10
362.7660423800877
 20
536.8860633509697
 10
362.9114702788401
 20
536.966581112959
 10
363.2967425663721
 20
537.1587055193581
 10
363.4406318791824
 20
537.2228795830624
 10
363.59442315609704
 20
537.3074056254644
 10
364.0487563425071
 20
537.5280068817654
  0
LWPOLYLINE
  5
3A
330
17
100
AcDbEntity
  8
default
100
AcDbPolyline
 90
42
 70
0
 10
382.27437356156673
 20
545.3148185572189
 10
382.7162915136405
 20
545.5284829478018
 10
383.0068851563558
 20
545.6517722067097
 10
383.35277490898324
 20
545.8092944005576
 10
383.95458675638065
 20
546.0378307822017
 10
384.1352184786283
 20
546.0934114021044
 10
384.254249490563
 20
546.1472953204753
 10
384.4400621728404
 20
546.226924549994
 10
384.71388486625017
 20
546.3377729518567
 10
385.0295345453081
 20
546.4806583217475
 10
385.6216566257174
 20
546.7046991554176
 10
385.80221706917547
 20
546.7602307250589
 10
385.9209810472993
 20
546.8139916984416
 10
386.10673125757825
 20
546.893592496821
 10
386.38055311300513
 20
547.0044403420007
 10
386.6962013073082
 20
547.1473250317864
 10
387.28832329322074
 20
547.3713658224895
 10
387.4688837364801
 20
547.4268973920152
 10
387.5876477139908
 20
547.4806583651194
 10
387.77339792424624
 20
547.5602591634884
 10
388.04721977967375
 20
547.6711070086683
 10
388.3628679739749
 20
547.813991698453
 10
388.9549899598872
 20
548.0380324891561
 10
389.1355504031472
 20
548.093564058682
 10
389.25431438065743
 20
548.1473250317861
 10
389.4400645909116
 20
548.2269258301544
 10
389.7138864463385
 20
548.3377736753341
 10
390.02953464064154
 20
548.4806583651198
 10
390.62165662655497
 20
548.7046991558232
 10
390.80221706981433
 20
548.7602307253488
 10
390.92098104732383
 20
548.8139916984526
 10
391.10673125757825
 20
548.893592496821
 10
391.38055311300513
 20
549.0044403420007
 10
391.3885461572082
 20
549.0080585589334
 10
391.56914410274476
 20
550.1465250221081
 10
384.815999366343
 20
556.7415028829128
 10
375.5611539147794
 20
548.8903672373854
 10
381.84148409279527
 20
545.1123678706285
 10
381.9079291845161
 20
545.1426277338907
 10
382.02736499176274
 20
545.1951496144678
 10
382.151809929643
 20
545.2479474803218
 10
382.27437356156673
 20
545.3148185572189
  0
LWPOLYLINE
  5
3B
330
17
100
AcDbEntity
  8
default
100
AcDbPolyline
 90
36
 70
0
 10
404.597729977218
 20
554.1519817763208
 10
404.77523419659116
 20
554.2277642153038
 10
405.0537580281984
 20
554.3403705919917
 10
405.37597321432105
 20
554.4853443316397
 10
406.00371972067336
 20
554.7186072162145
 10
406.3161022679555
 20
554.811403490336
 10
406.6122682295593
 20
554.9253711806941
 10
407.0263144610592
 20
555.0642644505579
 10
407.33367761373637
 20
555.1526385629365
 10
407.6093094555518
 20
555.2587045140349
 10
407.98119176789425
 20
555.3852738832495
 10
408.16030200721895
 20
555.438480321942
 10
408.26446094144575
 20
555.4853443743599
 10
408.4419032749097
 20
555.5610988245545
 10
408.72042627257633
 20
555.6737046434661
 10
409.04263997545627
 20
555.8186777076933
 10
409.67038638809873
 20
556.051940549916
 10
409.98276893523007
 20
556.1447368239049
 10
410.27893489624523
 20
556.258704514035
 10
410.6929811277259
 20
556.3975977838912
 10
411.0003442804032
 20
556.4859718962699
 10
411.2759761222182
 20
556.5920378473681
 10
411.6478584345619
 20
556.7186072165831
 10
411.8269686738989
 20
556.7718136552793
 10
411.9311276081429
 20
556.8186777077042
 10
412.10856994366003
 20
556.8944321587278
 10
412.38709298903785
 20
557.0070379967835
 10
412.5490859402169
 20
557.0799232061911
 10
408.29757147841156
 20
562.766892963089
 10
404.22550927102566
 20
562.3348845154978
 10
401.4770615012385
 20
554.7296443241648
 10
403.8309287313612
 20
553.8820716938689
 10
403.934859981976
 20
553.9222711704072
 10
404.3141605197803
 20
554.0517572011244
 10
404.49332254060874
 20
554.1050041248325
 10
404.597729977218
 20
554.1519817763208
  0
LWPOLYLINE
  5
3C
330
17
100
AcDbEntity
  8
default
100
AcDbPolyline
 90
66
 70
0
 10
381.8396980439827
 20
565.8948530265493
 10
381.7355391768121
 20
565.8479890016939
 10
381.5580999042925
 20
565.7722357846964
 10
381.2796090980032
 20
565.6596427600487
 10
380.9574414477725
 20
565.514684890335
 10
380.33024705846543
 20
565.2815761318398
 10
380.02191869497096
 20
565.1899409920009
 10
379.73180661011554
 20
565.07772880056
 10
379.35250614737305
 20
564.9482427988758
 10
379.17334417666
 20
564.894995890062
 10
379.06893680768746
 20
564.8480182663927
 10
378.8914356492864
 20
564.7722370606198
 10
378.61294400904444
 20
564.6596434782148
 10
378.29077487557976
 20
564.5146849330595
 10
377.66358039255977
 20
564.2815761322088
 10
377.3552520289133
 20
564.1899409922378
 10
377.06513994346767
 20
564.0777288005672
 10
376.6858394807065
 20
563.9482427988758
 10
376.50667750999384
 20
563.8949958900621
 10
376.40227014102106
 20
563.8480182663927
 10
376.2247689826195
 20
563.7722370606197
 10
375.9462773423912
 20
563.6596434782202
 10
375.6241082089436
 20
563.5146849330705
 10
374.99691372714074
 20
563.2815761325778
 10
374.6885854019675
 20
563.1899410039541
 10
374.3984733751724
 20
563.0777288296006
 10
374.01917472232003
 20
562.9482433590894
 10
373.84004682755113
 20
562.8950065009685
 10
373.73568490132493
 20
562.848047533886
 10
373.55915277158556
 20
562.7726552688317
 10
373.2855876716868
 20
562.6619824651424
 10
372.97040047301516
 20
562.519311926407
 10
372.37834211642064
 20
562.2953002286858
 10
372.19778194546785
 20
562.2397688256707
 10
372.07901885734265
 20
562.1860082581752
 10
371.8932687408192
 20
562.1064075023357
 10
371.6194468859639
 20
561.9955596575306
 10
371.3037986926685
 20
561.8526749682031
 10
370.7116767067796
 20
561.6286341775108
 10
370.5311162635199
 20
561.5731026079849
 10
370.4123522860086
 20
561.5193416348804
 10
370.22660207575393
 20
561.4397408365119
 10
369.95278022032664
 20
561.328892991332
 10
369.63713202602617
 20
561.1860083015475
 10
369.04501004011314
 20
560.9619675108441
 10
368.8644495968528
 20
560.9064359413181
 10
368.745685619342
 20
560.8526749682138
 10
368.55993540908855
 20
560.7730741698458
 10
368.2861135536619
 20
560.6622263246662
 10
367.97046535935954
 20
560.5193416348808
 10
367.3783433734454
 20
560.2953008441771
 10
367.19778293018567
 20
560.2397692746513
 10
367.0790189526756
 20
560.1860083015473
 10
366.8932687424217
 20
560.1064075031791
 10
366.61944688699464
 20
559.9955596579993
 10
366.30379869269285
 20
559.8526749682142
 10
365.7116767067797
 20
559.6286341775108
 10
365.5311162635196
 20
559.5731026079848
 10
365.42748279969527
 20
559.5261907751367
 10
367.5363821121864
 20
554.8947986713611
 10
372.79607534594834
 20
551.7901067370549
 10
382.86636520782486
 20
560.3330059251748
 10
382.59081509331753
 20
566.1516387919992
 10
382.3906905444734
 20
566.0746288193061
 10
382.01880823335273
 20
565.9480594504528
 10
381.8396980439827
 20
565.8948530265493
  0
LWPOLYLINE
  5
3D
330
17
100
AcDbEntity
  8
default
100
AcDbPolyline
 90
7
 70
0
 10
386.59083565184847
 20
566.2458646362647
 10
386.8712066193111
 20
560.3254325962625
 10
394.07429390819743
 20
553.2910503856838
 10
397.30225754948333
 20
554.94654774433
 10
400.42041837982833
 20
563.5748223406263
 10
394.584482959006
 20
568.5960991568863
 10
386.59083565184847
 20
566.2458646362647
  0
LWPOLYLINE
  5
3E
330
17
100
AcDbEntity
  8
default
100
AcDbPolyline
 90
36
 70
0
 10
418.36057820653406
 20
559.0645999049523
 10
418.67197766526135
 20
559.1540526647843
 10
418.95343521004685
 20
559.2618021070526
 10
419.36057820653406
 20
559.3979332382856
 10
419.67197766526135
 20
559.4873859981177
 10
419.95343521004685
 20
559.595135440386
 10
420.360578206535
 20
559.7312665716192
 10
420.6719776652613
 20
559.820719331451
 10
420.95343521004685
 20
559.9284687737193
 10
421.36057820653406
 20
560.0645999049523
 10
421.67197766526135
 20
560.1540526647843
 10
421.95343521004685
 20
560.2618021070526
 10
422.36057820653406
 20
560.3979332382856
 10
422.67197766526135
 20
560.4873859981177
 10
422.95343521004685
 20
560.595135440386
 10
423.360578206535
 20
560.7312665716192
 10
423.6719776652613
 20
560.820719331451
 10
423.95343521004685
 20
560.9284687737193
 10
424.36057820653406
 20
561.0645999049523
 10
424.67197766526135
 20
561.1540526647843
 10
424.95343521004685
 20
561.2618021070526
 10
425.36057820653406
 20
561.3979332382856
 10
425.67197766526135
 20
561.4873859981177
 10
425.95343521004685
 20
561.595135440386
 10
426.36057820653514
 20
561.7312665716192
 10
426.51779705814687
 20
561.7764293353304
 10
420.335821299348
 20
570.0456495145336
 10
414.39302931772545
 20
570.1464592511766
 10
411.5909150908701
 20
565.042041358538
 10
416.52307810757384
 20
558.4446130387264
 10
416.6719776646875
 20
558.4873859978967
 10
416.9534352100278
 20
558.5951354403787
 10
417.3605782065349
 20
558.7312665716192
 10
417.67197766526175
 20
558.8207193314511
 10
417.95343521004685
 20
558.9284687737193
 10
418.36057820653406
 20
559.0645999049523
  0
LWPOLYLINE
  5
3F
330
17
100
AcDbEntity
  8
default
100
AcDbPolyline
 90
40
 70
0
 10
407.5154686268657
 20
574.4754710352794
 10
407.0808979180245
 20
574.3306971624752
 10
406.5877851772518
 20
574.1940193474472
 10
406.1700267616301
 20
574.100954346919
 10
405.85907697581786
 20
573.9973638291418
 10
405.61835816197924
 20
573.9238475309123
 10
405.30676256377836
 20
573.837196696704
 10
405.038864647506
 20
573.7351609003258
 10
404.63909031490465
 20
573.6018988434921
 10
404.327701197449
 20
573.5124900638683
 10
404.046447846524
 20
573.4048257868963
 10
403.6388214490252
 20
573.2685655101585
 10
403.3233857030106
 20
573.1779948269846
 10
403.03588874778825
 20
573.0684942336593
 10
402.5958294408902
 20
572.9238475309122
 10
402.1821352935323
 20
572.8088043686128
 10
401.74756458469113
 20
572.6640304958086
 10
401.25445184391936
 20
572.5273526807807
 10
400.83669342830416
 20
572.4342876802539
 10
400.5257436425054
 20
572.3306971624801
 10
400.2850248297546
 20
572.2571808645523
 10
399.9734292692954
 20
572.1705300407626
 10
399.70553141072446
 20
572.0684942615534
 10
399.30575877980755
 20
571.9352326864569
 10
398.9943955800562
 20
571.8458312240765
 10
398.7131815583196
 20
571.7381785057647
 10
398.30608742849597
 20
571.6020662514371
 10
397.9946881220386
 20
571.51261365995
 10
397.7132313832562
 20
571.4048645313445
 10
397.5257929317595
 20
571.3421931653189
 10
403.41886614635587
 20
566.2717546196654
 10
407.96782696805894
 20
566.7543576355092
 10
410.9536328506656
 20
572.1933939256705
 10
409.4475252366349
 20
575.0974249975419
 10
409.37978117985756
 20
575.071492453563
 10
408.97215478235944
 20
574.9352321768256
 10
408.65671903634495
 20
574.8446614936516
 10
408.3692220811218
 20
574.735160900326
 10
407.9291627742236
 20
574.5905141975788
 10
407.5154686268657
 20
574.4754710352794
  0
LWPOLYLINE
  5
40
330
17
100
AcDbEntity
  8
default
100
AcDbPolyline
 90
12
 70
0
 10
429.24289305556454
 20
580.9129976634159
 10
428.8253472360779
 20
580.8005731084382
 10
428.39913710134846
 20
580.6598430887005
 10
427.89241595616215
 20
580.5215824340196
 10
427.79620061905393
 20
580.5006902181204
 10
423.68923619017005
 20
572.2404445330612
 10
429.53384391078725
 20
564.4224992697127
 10
435.8149048355408
 20
570.1568251983263
 10
435.90689550479874
 20
572.5987805011682
 10
429.6074432635728
 20
581.0251412026892
 10
429.51059356619714
 20
580.9931633649379
 10
429.24289305556454
 20
580.9129976634159
  0
LWPOLYLINE
  5
41
330
17
100
AcDbEntity
  8
default
100
AcDbPolyline
 90
30
 70
0
 10
421.1923142360121
 20
578.664003707562
 10
420.95112393020736
 20
578.5903607537496
 10
420.63550098961963
 20
578.5026289213847
 10
420.36158742355497
 20
578.3988308817476
 10
419.9288657715271
 20
578.2570278855134
 10
419.5151934872803
 20
578.1420417052277
 10
419.0808583732892
 20
577.9973504149774
 10
418.58778366080884
 20
577.8606855155833
 10
418.1700041822818
 20
577.7676160238997
 10
417.85902030541206
 20
577.664017081649
 10
417.6177915269626
 20
577.5903612191536
 10
417.3021684846766
 20
577.502629240346
 10
417.02825416235754
 20
577.3988309092653
 10
416.59553243881606
 20
577.25702788582
 10
416.18186015449095
 20
577.1420417054105
 10
415.74752503997064
 20
576.9973504149824
 10
415.2544503274755
 20
576.8606855155833
 10
414.83667084894824
 20
576.7676160238996
 10
414.5256869720787
 20
576.664017081649
 10
414.2844581936294
 20
576.5903612191536
 10
413.96883515135187
 20
576.5026292403484
 10
413.6949208290492
 20
576.3988309092725
 10
413.3390177105823
 20
576.2822013630158
 10
414.4468452720903
 20
574.1461218218319
 10
420.1217373562977
 20
574.049856568221
 10
422.61462072743046
 20
579.0637371281912
 10
422.40816772339093
 20
578.9952641283412
 10
421.9210033962451
 20
578.8606039770642
 10
421.5031548091169
 20
578.7675519879739
 10
421.1923142360121
 20
578.664003707562
  0
LWPOLYLINE
  5
42
330
17
100
AcDbEntity
  8
default
100
AcDbPolyline
 90
26
 70
0
 10
462.1560731242798
 20
572.3401699684005
 10
462.42377521638866
 20
572.4203360957351
 10
462.8413411049278
 20
572.5327659076268
 10
463.26758557266055
 20
572.6735033207947
 10
463.7746172267036
 20
572.8118269094389
 10
464.2842149351728
 20
572.9224428135614
 10
464.7400397323884
 20
573.0563182504878
 10
465.1127366848591
 20
573.1503799689406
 10
465.6293769389181
 20
573.2598341801565
 10
466.07816813629347
 20
573.3911311637806
 10
466.4461508858946
 20
573.483783913618
 10
466.96287400713817
 20
573.593218886322
 10
467.4115327806178
 20
573.7244738749788
 10
467.77948449254586
 20
573.8171174624566
 10
468.1939399330923
 20
573.9048934326228
 10
466.24586811213345
 20
579.089579732544
 10
466.077952221121
 20
578.4192219187711
 10
465.66799826118154
 20
577.2734773553992
 10
465.1477157359612
 20
576.173432380084
 10
464.5221152505932
 20
575.1296810272834
 10
463.79722167973955
 20
574.1522751930972
 10
462.9800161447548
 20
573.2506278300132
 10
462.0783687816708
 20
572.4334222950284
 10
461.8018018024313
 20
572.2283062437947
 10
461.84697364122206
 20
572.2381114861753
 10
462.1560731242798
 20
572.3401699684005
  0
LWPOLYLINE
  5
43
330
17
100
AcDbEntity
  8
default
100
AcDbPolyline
 90
32
 70
0
 10
447.8076857639941
 20
568.3359962924383
 10
448.04887607090154
 20
568.4096392465572
 10
448.364499048885
 20
568.4973710892389
 10
448.63841267237115
 20
568.6011691457704
 10
449.07113592611245
 20
568.7429725798909
 10
449.48482847997207
 20
568.8579642395148
 10
449.9191981551422
 20
569.0026629591099
 10
450.41259880345416
 20
569.139396022936
 10
450.83366304988226
 20
569.233164117102
 10
451.1499624756628
 20
569.3380692049924
 10
451.4229713709068
 20
569.4200555740298
 10
451.83738129115005
 20
569.5317315170652
 10
452.2585551947284
 20
569.6714157536868
 10
452.53287656907435
 20
569.7472303072391
 10
451.7927720650416
 20
569.8570144397263
 10
450.61236206008624
 20
570.152691753647
 10
449.4666174967145
 20
570.5626457135864
 10
448.36657252139923
 20
571.0829282388067
 10
447.3228211685985
 20
571.7085287241748
 10
446.3454153344124
 20
572.4334222950284
 10
445.4437679713284
 20
573.2506278300132
 10
444.62656243634365
 20
574.1522751930972
 10
443.90166886549
 20
575.1296810272834
 10
443.8805092846637
 20
575.1649836551246
 10
439.894622748252
 20
572.1976766656153
 10
439.8316966644488
 20
570.5272606890649
 10
445.98880457331694
 20
567.8160434853536
 10
446.17069278673995
 20
567.8650591177316
 10
446.59183221890385
 20
568.0047358523608
 10
447.07899660349995
 20
568.1393960227721
 10
447.4968451905303
 20
568.2324480119067
 10
447.8076857639941
 20
568.3359962924383
  0
LWPOLYLINE
  5
44
330
17
100
AcDbEntity
  8
default
100
AcDbPolyline
 90
31
 70
0
 10
474.0781994936106
 20
575.3911405553389
 10
474.44615115940127
 20
575.4837841292651
 10
474.9628745079113
 20
575.5932190377139
 10
475.411532826962
 20
575.7244738886758
 10
475.7794844934116
 20
575.8171174627406
 10
476.29620786593864
 20
575.9265523762018
 10
476.7448662303991
 20
576.0578072356989
 10
477.1128188676099
 20
576.1504510115782
 10
477.6295588032306
 20
576.2598893205586
 10
478.0782479990099
 20
576.3911499462529
 10
478.4465017236533
 20
576.4838548877294
 10
478.9658662436545
 20
576.5938120894185
 10
479.419300234658
 20
576.7259468403505
 10
479.8057826850798
 20
576.8220511279605
 10
480.3956981631751
 20
576.9440208970033
 10
480.97044749835027
 20
577.0949610989865
 10
481.3807928708006
 20
577.18448767524
 10
482.02613134875355
 20
577.2971225329928
 10
482.5256445905546
 20
577.4283013746372
 10
482.7835898156401
 20
577.4887838320742
 10
483.3106078823159
 20
577.597713203316
 10
483.32132753130986
 20
577.6008248728516
 10
469.8887578668073
 20
583.5157145415433
 10
469.01185820344836
 20
583.3642533277161
 10
468.95838478719816
 20
583.2428165078163
 10
472.09881029160834
 20
574.8847462811254
 10
472.29620784123864
 20
574.9265523710459
 10
472.7448661602774
 20
575.0578072220055
 10
473.1128178260679
 20
575.1504507959316
 10
473.6295411745702
 20
575.2598857043788
 10
474.0781994936106
 20
575.3911405553389
  0
LWPOLYLINE
  5
45
330
17
100
AcDbEntity
  8
default
100
AcDbPolyline
 90
28
 70
0
 10
441.37045832466777
 20
584.0734474775652
 10
440.9218004600812
 20
583.9421927643049
 10
440.55384884108577
 20
583.8495492040686
 10
440.0371255164667
 20
583.7401143006796
 10
439.58846724316635
 20
583.6088594583513
 10
439.22051654880966
 20
583.5162160863822
 10
438.70380978817354
 20
583.4067845786337
 10
438.2551823465273
 20
583.2755355028862
 10
437.88753294905655
 20
583.1829533643927
 10
437.3734693141931
 20
583.0740450297698
 10
436.9296028577924
 20
582.9436817495124
 10
436.58124482820614
 20
582.8548397572282
 10
436.15302583287644
 20
582.7618883358548
 10
435.8439268184578
 20
582.659830012534
 10
435.57622478305063
 20
582.5796639039846
 10
435.15865889456484
 20
582.467234092204
 10
434.73241442734576
 20
582.3264966792057
 10
434.22538277400463
 20
582.1881730907138
 10
433.80105123219624
 20
582.0960654999667
 10
438.33882887428626
 20
576.0261804163456
 10
442.2212750172745
 20
578.9164808483082
 10
442.05015458104157
 20
579.5996319237264
 10
441.8716014473064
 20
580.8033393766399
 10
441.8118920580416
 20
582.0187519167264
 10
441.8716014473064
 20
583.2341644568129
 10
442.0171858052265
 20
584.2156144767046
 10
441.887181900427
 20
584.1828823217552
 10
441.37045832466777
 20
584.0734474775652
  0
LWPOLYLINE
  5
46
330
17
100
AcDbEntity
  8
default
100
AcDbPolyline
 90
10
 70
0
 10
485.3648676946759
 20
581.0716006485745
 10
492.02257768204436
 20
584.842550907284
 10
491.6362741799094
 20
589.2366208429448
 10
483.6121041728102
 20
592.7699790510308
 10
482.85686908201654
 20
592.665127627209
 10
482.17808344496615
 20
592.5192833037628
 10
481.9243186724216
 20
592.4715786296077
 10
481.1958287689877
 20
592.3540188609253
 10
473.8716294746846
 20
586.1325262724422
 10
485.3648676946759
 20
581.0716006485745
  0
LWPOLYLINE
  5
47
330
17
100
AcDbEntity
  8
default
100
AcDbPolyline
 90
7
 70
0
 10
496.0415558377281
 20
584.8021719204262
 10
500.0956742488779
 20
581.7694944692776
 10
507.30474156234413
 20
584.9646693337709
 10
507.4866148564033
 20
594.5622509140521
 10
498.10018224734813
 20
593.2093564718962
 10
495.58618796058
 20
589.9818254522979
 10
496.0415558377281
 20
584.8021719204262
  0
LWPOLYLINE
  5
48
330
17
100
AcDbEntity
  8
default
100
AcDbPolyline
 90
29
 70
0
 10
516.0745518228061
 20
584.4586236540432
 10
516.3960702187561
 20
584.5234420167387
 10
517.1197685544668
 20
584.6447882252172
 10
517.7380482989552
 20
584.7911480393543
 10
518.0627753077584
 20
584.8567394524081
 10
518.7863347656443
 20
584.9780946677408
 10
519.4046937795506
 20
585.1244761867886
 10
519.7294413873243
 20
585.190072566359
 10
520.4529889348853
 20
585.3114259814218
 10
521.0713221021888
 20
585.4578043263665
 10
521.3958768230793
 20
585.5233698641532
 10
522.1175384031749
 20
585.6444392889531
 10
522.4918370782115
 20
585.7333287724042
 10
519.5874292291701
 20
596.9741718010046
 10
519.2014214408204
 20
597.1128739949023
 10
518.4318055028499
 20
597.0756280519128
 10
515.9840290470512
 20
596.9393799003527
 10
514.3151430739671
 20
596.7673680404088
 10
514.1999906967093
 20
596.7568434669652
 10
512.4364762628727
 20
596.6162056012248
 10
512.1145720775895
 20
596.5772795784923
 10
511.51468223519623
 20
596.0054898238741
 10
511.30511129368097
 20
584.9462839313783
 10
513.5415161991731
 20
583.9615067366933
 10
513.7994318880501
 20
583.9985101592584
 10
514.4775848444131
 20
584.1454915642798
 10
514.7248475262622
 20
584.192599835525
 10
515.4595380523352
 20
584.3134937274341
 10
516.0745518228061
 20
584.4586236540432
  0
LWPOLYLINE
  5
49
330
17
100
AcDbEntity
  8
default
100
AcDbPolyline
 90
67
 70
0
 10
534.8708467262577
 20
595.3805816165575
 10
534.7665154997206
 20
595.4402585442792
 10
534.677285605134
 20
595.478505271519
 10
534.5735623085487
 20
595.5243636459902
 10
534.4621645456466
 20
595.5751330770311
 10
534.2875542912126
 20
595.6288647296604
 10
533.696246410059
 20
595.8526460432753
 10
533.3815729687583
 20
595.9950843092214
 10
533.1083018139799
 20
596.1055666202523
 10
532.94114660441
 20
596.1767064118792
 10
532.8509012058221
 20
596.2170658535907
 10
532.67204404213
 20
596.2683972877744
 10
532.4775018759464
 20
596.3285440828867
 10
532.1860204102662
 20
596.4252069776727
 10
531.7565035184754
 20
596.5161398298734
 10
531.530975301779
 20
596.5693750347234
 10
531.0476613296555
 20
596.6953516382003
 10
530.3675680299377
 20
596.8065963989242
 10
530.2519369665193
 20
596.8269071190882
 10
529.5074124292316
 20
596.9667133935974
 10
528.2315371949775
 20
597.0814892730665
 10
525.7866480153098
 20
597.2188278453978
 10
523.6555783276359
 20
597.2188278453978
 10
526.3935590294775
 20
586.6221028378401
 10
526.7370466355679
 20
586.722984917151
 10
527.0850545537395
 20
586.8117508993141
 10
527.5099603974018
 20
586.9040150319294
 10
527.8136922731984
 20
587.004749087025
 10
528.0486047383724
 20
587.0763054478198
 10
528.3601543548872
 20
587.162905159081
 10
528.6277848458909
 20
587.2648390996816
 10
529.0269762704346
 20
587.3979337485631
 10
529.3342661505349
 20
587.4862058658823
 10
529.6094100744642
 20
587.5920771475842
 10
529.9811921392949
 20
587.7186077764352
 10
530.1602677771971
 20
587.7718038598109
 10
530.2643794706516
 20
587.8186484430098
 10
530.4408464619777
 20
587.894011398677
 10
530.7143781558552
 20
588.0046706875681
 10
531.0295174911719
 20
588.1473250317971
 10
531.6209837886076
 20
588.3711641155238
 10
531.7961631918464
 20
588.4250670496557
 10
531.9078465510859
 20
588.4759309058252
 10
532.0262301405065
 20
588.5280082681169
 10
532.1438996625782
 20
588.5779652937488
 10
532.2581115115263
 20
588.6407379823593
 10
532.6297078102884
 20
588.825328686815
 10
532.7660131533096
 20
588.8861238801637
 10
532.9106430618635
 20
588.9662458009349
 10
533.2802102750983
 20
589.1514435603648
 10
533.3897332043263
 20
589.2007737434816
 10
533.5253024670664
 20
589.2788262948812
 10
533.6190499423823
 20
589.3314665442193
 10
533.7801184431765
 20
589.4196440924845
 10
534.0522866575232
 20
589.6112053181918
 10
534.2668746355872
 20
589.7541112674513
 10
534.558952592368
 20
589.9379320964888
 10
534.9168202869159
 20
590.2147266747137
 10
535.642167822882
 20
590.8277411226835
 10
536.6037138305388
 20
591.7892871303442
 10
536.2201055212744
 20
594.4507760313555
 10
535.8939224665779
 20
594.7082245428843
 10
535.5056233529225
 20
594.9674421022298
 10
535.3796272033237
 20
595.0543708957659
 10
535.0993503744247
 20
595.2541437625847
 10
534.9446175957374
 20
595.3392091995604
 10
534.8708467262577
 20
595.3805816165575
  0
LWPOLYLINE
  5
4A
330
17
100
AcDbEntity
  8
default
100
AcDbPolyline
 90
15
 70
0
 10
471.8737828668994
 20
590.6865043040245
 10
471.2587432946852
 20
590.5413711989519
 10
470.93703210430715
 20
590.4765220039761
 10
470.2114583492437
 20
590.354893799007
 10
469.58911794032497
 20
590.208037880604
 10
469.2526245201994
 20
590.1407334978084
 10
468.47275455688174
 20
590.0124052947045
 10
468.25564390009714
 20
589.9653483364089
 10
468.2988494015299
 20
587.8602587287314
 10
468.60951311932877
 20
587.3539872034453
 10
469.26415719185024
 20
587.4670596453361
 10
473.3877385578029
 20
590.9698085295735
 10
472.8557305538102
 20
590.8545043920801
 10
472.6084852671318
 20
590.8073999568406
 10
471.8737828668994
 20
590.6865043040245
  0
LWPOLYLINE
  5
4B
330
17
100
AcDbEntity
  8
default
100
AcDbPolyline
 90
65
 70
0
 10
349.39997402337036
 20
544.1933408730437
 10
349.19499704340063
 20
544.7662131547295
 10
348.9348557807905
 20
545.3162356423871
 10
348.62205553810645
 20
545.8381113187875
 10
348.25960875267964
 20
546.3268142358805
 10
347.85100598518727
 20
546.7776379174226
 10
347.4001823036453
 20
547.1862406849149
 10
346.9114793865522
 20
547.5486874703417
 10
346.38960371015185
 20
547.8614877130258
 10
345.83958122249425
 20
548.121628975636
 10
345.2667089408083
 20
548.3266059556056
 10
344.67650393833065
 20
548.474444612566
 10
344.0746502118739
 20
548.5637211794336
 10
343.46694394183066
 20
548.593575874066
 10
342.8592376717874
 20
548.5637211794336
 10
342.2573839453307
 20
548.474444612566
 10
341.667178942853
 20
548.3266059556056
 10
341.0943066611671
 20
548.121628975636
 10
340.5442841735095
 20
547.8614877130258
 10
340.02240849710915
 20
547.5486874703417
 10
339.53370558001603
 20
547.1862406849149
 10
339.08288189847406
 20
546.7776379174226
 10
338.6742791309817
 20
546.3268142358805
 10
338.3118323455549
 20
545.8381113187875
 10
337.99903210287084
 20
545.3162356423871
 10
337.7388908402607
 20
544.7662131547295
 10
337.53391386029097
 20
544.1933408730437
 10
337.3860752033306
 20
543.603135870566
 10
337.29679863646305
 20
543.0012821441093
 10
337.2669439418307
 20
542.393575874066
 10
337.29679863646305
 20
541.7858696040227
 10
337.3860752033306
 20
541.1840158775659
 10
337.53391386029097
 20
540.5938108750883
 10
337.7388908402607
 20
540.0209385934024
 10
337.99903210287084
 20
539.4709161057448
 10
338.3118323455549
 20
538.9490404293444
 10
338.6742791309817
 20
538.4603375122514
 10
339.08288189847406
 20
538.0095138307094
 10
339.5337055800161
 20
537.600911063217
 10
340.02240849710915
 20
537.2384642777902
 10
340.5442841735095
 20
536.9256640351061
 10
341.0943066611671
 20
536.6655227724959
 10
341.667178942853
 20
536.4605457925263
 10
342.2573839453307
 20
536.3127071355659
 10
342.8592376717874
 20
536.2234305686983
 10
343.46694394183066
 20
536.1935758740659
 10
344.0746502118739
 20
536.2234305686983
 10
344.67650393833065
 20
536.3127071355659
 10
345.2667089408083
 20
536.4605457925263
 10
345.83958122249425
 20
536.6655227724959
 10
346.38960371015185
 20
536.9256640351061
 10
346.9114793865522
 20
537.2384642777902
 10
347.40018230364524
 20
537.600911063217
 10
347.85100598518727
 20
538.0095138307094
 10
348.25960875267964
 20
538.4603375122514
 10
348.62205553810645
 20
538.9490404293444
 10
348.9348557807905
 20
539.4709161057448
 10
349.19499704340063
 20
540.0209385934024
 10
349.39997402337036
 20
540.5938108750883
 10
349.5478126803307
 20
541.1840158775659
 10
349.6370892471983
 20
541.7858696040227
 10
349.66694394183065
 20
542.393575874066
 10
349.6370892471983
 20
543.0012821441093
 10
349.5478126803307
 20
543.603135870566
 10
349.39997402337036
 20
544.1933408730437
  0
LWPOLYLINE
  5
4C
330
17
100
AcDbEntity
  8
default
100
AcDbPolyline
 90
65
 70
0
 10
460.3820373634092
 20
582.6264581867697
 10
460.29276079654164
 20
583.2283119132264
 10
460.1449221395813
 20
583.8185169157041
 10
459.93994515961157
 20
584.3913891973899
 10
459.6798038970014
 20
584.9414116850476
 10
459.3670036543174
 20
585.4632873614479
 10
459.0045568688906
 20
585.951990278541
 10
458.5959541013982
 20
586.402813960083
 10
458.14513041985623
 20
586.8114167275753
 10
457.6564275027631
 20
587.1738635130022
 10
457.1345518263628
 20
587.4866637556862
 10
456.5845293387052
 20
587.7468050182964
 10
456.01165705701925
 20
587.951781998266
 10
455.4214520545416
 20
588.0996206552264
 10
454.81959832808485
 20
588.188897222094
 10
454.2118920580416
 20
588.2187519167264
 10
453.60418578799835
 20
588.188897222094
 10
453.0023320615416
 20
588.0996206552264
 10
452.41212705906395
 20
587.951781998266
 10
451.839254777378
 20
587.7468050182964
 10
451.2892322897204
 20
587.4866637556862
 10
450.7673566133201
 20
587.1738635130022
 10
450.27865369622697
 20
586.8114167275753
 10
449.827830014685
 20
586.402813960083
 10
449.4192272471926
 20
585.951990278541
 10
449.0567804617658
 20
585.4632873614479
 10
448.7439802190818
 20
584.9414116850476
 10
448.48383895647163
 20
584.3913891973899
 10
448.2788619765019
 20
583.8185169157041
 10
448.13102331954155
 20
583.2283119132264
 10
448.041746752674
 20
582.6264581867697
 10
448.0118920580416
 20
582.0187519167264
 10
448.041746752674
 20
581.4110456466831
 10
448.13102331954155
 20
580.8091919202263
 10
448.2788619765019
 20
580.2189869177487
 10
448.48383895647163
 20
579.6461146360629
 10
448.7439802190818
 20
579.0960921484052
 10
449.0567804617658
 20
578.5742164720049
 10
449.4192272471926
 20
578.0855135549118
 10
449.827830014685
 20
577.6346898733698
 10
450.278653696227
 20
577.2260871058775
 10
450.7673566133201
 20
576.8636403204506
 10
451.2892322897204
 20
576.5508400777666
 10
451.839254777378
 20
576.2906988151564
 10
452.41212705906395
 20
576.0857218351867
 10
453.0023320615416
 20
575.9378831782263
 10
453.60418578799835
 20
575.8486066113587
 10
454.2118920580416
 20
575.8187519167263
 10
454.81959832808485
 20
575.8486066113587
 10
455.4214520545416
 20
575.9378831782263
 10
456.01165705701925
 20
576.0857218351867
 10
456.5845293387052
 20
576.2906988151564
 10
457.1345518263628
 20
576.5508400777666
 10
457.6564275027631
 20
576.8636403204506
 10
458.1451304198562
 20
577.2260871058775
 10
458.5959541013982
 20
577.6346898733698
 10
459.0045568688906
 20
578.0855135549118
 10
459.3670036543174
 20
578.5742164720049
 10
459.6798038970014
 20
579.0960921484052
 10
459.93994515961157
 20
579.6461146360629
 10
460.1449221395813
 20
580.2189869177487
 10
460.29276079654164
 20
580.8091919202263
 10
460.3820373634092
 20
581.4110456466831
 10
460.4118920580416
 20
582.0187519167264
 10
460.3820373634092
 20
582.6264581867697
  0
ENDSEC
  0
SECTION
  2
OBJECTS
  0
DICTIONARY
  5
A
330
0
100
AcDbDictionary
280
0
281
1
  3
ACAD_COLOR
350
B
  3
ACAD_GROUP
350
C
  3
ACAD_LAYOUT
350
D
  3
ACAD_MATERIAL
350
E
  3
ACAD_MLEADERSTYLE
350
F
  3
ACAD_MLINESTYLE
350
10
  3
ACAD_PLOTSETTINGS
350
11
  3
ACAD_PLOTSTYLENAME
350
12
  3
ACAD_SCALELIST
350
14
  3
ACAD_TABLESTYLE
350
15
  3
ACAD_VISUALSTYLE
350
16
  3
EZDXF_META
350
2D
  0
DICTIONARY
  5
B
330
A
100
AcDbDictionary
280
0
281
1
  0
DICTIONARY
  5
C
330
A
100
AcDbDictionary
280
0
281
1
  0
DICTIONARY
  5
D
330
A
100
AcDbDictionary
280
0
281
1
  3
Model
350
1A
  3
Layout1
350
1E
  0
DICTIONARY
  5
E
330
A
100
AcDbDictionary
280
0
281
1
  3
ByBlock
350
1F
  3
ByLayer
350
20
  3
Global
350
21
  0
DICTIONARY
  5
F
330
A
100
AcDbDictionary
280
0
281
1
  3
Standard
350
2C
  0
DICTIONARY
  5
10
330
A
100
AcDbDictionary
280
0
281
1
  3
Standard
350
22
  0
DICTIONARY
  5
11
330
A
100
AcDbDictionary
280
0
281
1
  0
ACDBDICTIONARYWDFLT
  5
12
330
A
100
AcDbDictionary
280
0
281
1
  3
Normal
350
13
100
AcDbDictionaryWithDefault
340
13
  0
ACDBPLACEHOLDER
  5
13
330
12
  0
DICTIONARY
  5
14
330
A
100
AcDbDictionary
280
0
281
1
  0
DICTIONARY
  5
15
330
A
100
AcDbDictionary
280
0
281
1
  0
DICTIONARY
  5
16
330
A
100
AcDbDictionary
280
0
281
1
  0
LAYOUT
  5
1A
330
D
100
AcDbPlotSettings
  1

  2
Adobe PDF
  4
A3
  6

 40
7.5
 41
20.0
 42
7.5
 43
20.0
 44
420.0
 45
297.0
 46
0.0
 47
0.0
 48
0.0
 49
0.0
140
0.0
141
0.0
142
1.0
143
1.0
 70
1024
 72
1
 73
0
 74
5
  7

 75
16
 76
0
 77
2
 78
300
147
1.0
148
0.0
149
0.0
100
AcDbLayout
  1
Model
 70
1
 71
0
 10
0.0
 20
0.0
 11
420.0
 21
297.0
 12
0.0
 22
0.0
 32
0.0
 14
1e+20
 24
1e+20
 34
1e+20
 15
-1e+20
 25
-1e+20
 35
-1e+20
146
0.0
 13
0.0
 23
0.0
 33
0.0
 16
1.0
 26
0.0
 36
0.0
 17
0.0
 27
1.0
 37
0.0
 76
1
330
17
  0
LAYOUT
  5
1E
330
D
100
AcDbPlotSettings
  1

  2
Adobe PDF
  4
A3
  6

 40
7.5
 41
20.0
 42
7.5
 43
20.0
 44
420.0
 45
297.0
 46
0.0
 47
0.0
 48
0.0
 49
0.0
140
0.0
141
0.0
142
1.0
143
1.0
 70
0
 72
1
 73
0
 74
5
  7

 75
16
 76
0
 77
2
 78
300
147
1.0
148
0.0
149
0.0
100
AcDbLayout
  1
Layout1
 70
1
 71
1
 10
0.0
 20
0.0
 11
420.0
 21
297.0
 12
0.0
 22
0.0
 32
0.0
 14
1e+20
 24
1e+20
 34
1e+20
 15
-1e+20
 25
-1e+20
 35
-1e+20
146
0.0
 13
0.0
 23
0.0
 33
0.0
 16
1.0
 26
0.0
 36
0.0
 17
0.0
 27
1.0
 37
0.0
 76
1
330
1B
  0
MATERIAL
  5
1F
102
{ACAD_REACTORS
330
E
102
}
330
E
100
AcDbMaterial
  1
ByBlock
  2

 70
0
 40
1.0
 71
1
 41
1.0
 91
-1023410177
 42
1.0
 72
1
  3

 73
1
 74
1
 75
1
 44
0.5
 73
0
 45
1.0
 46
1.0
 77
1
  4

 78
1
 79
1
170
1
 48
1.0
171
1
  6

172
1
173
1
174
1
140
1.0
141
1.0
175
1
  7

176
1
177
1
178
1
143
1.0
179
1
  8

270
1
271
1
272
1
145
1.0
146
1.0
273
1
  9

274
1
275
1
276
1
 42
1.0
 72
1
  3

 73
1
 74
1
 75
1
 94
63
  0
MATERIAL
  5
20
102
{ACAD_REACTORS
330
E
102
}
330
E
100
AcDbMaterial
  1
ByLayer
  2

 70
0
 40
1.0
 71
1
 41
1.0
 91
-1023410177
 42
1.0
 72
1
  3

 73
1
 74
1
 75
1
 44
0.5
 73
0
 45
1.0
 46
1.0
 77
1
  4

 78
1
 79
1
170
1
 48
1.0
171
1
  6

172
1
173
1
174
1
140
1.0
141
1.0
175
1
  7

176
1
177
1
178
1
143
1.0
179
1
  8

270
1
271
1
272
1
145
1.0
146
1.0
273
1
  9

274
1
275
1
276
1
 42
1.0
 72
1
  3

 73
1
 74
1
 75
1
 94
63
  0
MATERIAL
  5
21
102
{ACAD_REACTORS
330
E
102
}
330
E
100
AcDbMaterial
  1
Global
  2

 70
0
 40
1.0
 71
1
 41
1.0
 91
-1023410177
 42
1.0
 72
1
  3

 73
1
 74
1
 75
1
 44
0.5
 73
0
 45
1.0
 46
1.0
 77
1
  4

 78
1
 79
1
170
1
 48
1.0
171
1
  6

172
1
173
1
174
1
140
1.0
141
1.0
175
1
  7

176
1
177
1
178
1
143
1.0
179
1
  8

270
1
271
1
272
1
145
1.0
146
1.0
273
1
  9

274
1
275
1
276
1
 42
1.0
 72
1
  3

 73
1
 74
1
 75
1
 94
63
  0
MLINESTYLE
  5
22
102
{ACAD_REACTORS
330
10
102
}
330
10
100
AcDbMlineStyle
  2
Standard
 70
0
  3

 62
256
 51
90.0
 52
90.0
 71
2
 49
0.5
 62
256
  6
BYLAYER
 49
-0.5
 62
256
  6
BYLAYER
  0
MLEADERSTYLE
  5
2C
102
{ACAD_REACTORS
330
F
102
}
330
F
100
AcDbMLeaderStyle
179
2
170
2
171
1
172
0
 90
2
 40
0.0
 41
0.0
173
1
 91
-1056964608
 92
-2
290
1
 42
2.0
291
1
 43
8.0
  3
Standard
 44
4.0
300

342
29
174
1
175
1
176
0
178
1
 93
-1056964608
 45
4.0
292
0
297
0
 46
4.0
 94
-1056964608
 47
1.0
 49
1.0
140
1.0
294
1
141
0.0
177
0
142
1.0
295
0
296
0
143
3.75
271
0
272
9
273
9
  0
DICTIONARY
  5
2D
330
A
100
AcDbDictionary
281
1
  3
CREATED_BY_EZDXF
350
2E
  3
WRITTEN_BY_EZDXF
350
4F
  0
DICTIONARYVAR
  5
2E
330
2D
100
DictionaryVariables
280
0
  1
1.1.1 @ 2023-10-28T15:34:30.937779+00:00
  0
DICTIONARYVAR
  5
4F
330
2D
100
DictionaryVariables
280
0
  1
1.1.1 @ 2023-10-28T15:34:30.952625+00:00
  0
ENDSEC
  0
EOF
