  0
SECTION
  2
HEADER
  9
$ACADVER
  1
AC1024
  9
$ACADMAINTVER
 70
6
  9
$DWGCODEPAGE
  3
ANSI_1252
  9
$LASTSAVEDBY
  1
ezdxf
  9
$INSBASE
 10
0.0
 20
0.0
 30
0.0
  9
$EXTMIN
 10
1e+20
 20
1e+20
 30
1e+20
  9
$EXTMAX
 10
-1e+20
 20
-1e+20
 30
-1e+20
  9
$LIMMIN
 10
0.0
 20
0.0
  9
$LIMMAX
 10
420.0
 20
297.0
  9
$ORTHOMODE
 70
0
  9
$REGENMODE
 70
1
  9
$FILLMODE
 70
1
  9
$QTEXTMODE
 70
0
  9
$MIRRTEXT
 70
1
  9
$LTSCALE
 40
1.0
  9
$ATTMODE
 70
1
  9
$TEXTSIZE
 40
2.5
  9
$TRACEWID
 40
1.0
  9
$TEXTSTYLE
  7
Standard
  9
$CLAYER
  8
0
  9
$CELTYPE
  6
ByLayer
  9
$CECOLOR
 62
256
  9
$CELTSCALE
 40
1.0
  9
$DISPSILH
 70
0
  9
$DIMSCALE
 40
1.0
  9
$DIMASZ
 40
2.5
  9
$DIMEXO
 40
0.625
  9
$DIMDLI
 40
3.75
  9
$DIMRND
 40
0.0
  9
$DIMDLE
 40
0.0
  9
$DIMEXE
 40
1.25
  9
$DIMTP
 40
0.0
  9
$DIMTM
 40
0.0
  9
$DIMTXT
 40
2.5
  9
$DIMCEN
 40
2.5
  9
$DIMTSZ
 40
0.0
  9
$DIMTOL
 70
0
  9
$DIMLIM
 70
0
  9
$DIMTIH
 70
0
  9
$DIMTOH
 70
0
  9
$DIMSE1
 70
0
  9
$DIMSE2
 70
0
  9
$DIMTAD
 70
1
  9
$DIMZIN
 70
8
  9
$DIMBLK
  1

  9
$DIMASO
 70
1
  9
$DIMSHO
 70
1
  9
$DIMPOST
  1

  9
$DIMAPOST
  1

  9
$DIMALT
 70
0
  9
$DIMALTD
 70
3
  9
$DIMALTF
 40
0.03937007874
  9
$DIMLFAC
 40
1.0
  9
$DIMTOFL
 70
1
  9
$DIMTVP
 40
0.0
  9
$DIMTIX
 70
0
  9
$DIMSOXD
 70
0
  9
$DIMSAH
 70
0
  9
$DIMBLK1
  1

  9
$DIMBLK2
  1

  9
$DIMSTYLE
  2
ISO-25
  9
$DIMCLRD
 70
0
  9
$DIMCLRE
 70
0
  9
$DIMCLRT
 70
0
  9
$DIMTFAC
 40
1.0
  9
$DIMGAP
 40
0.625
  9
$DIMJUST
 70
0
  9
$DIMSD1
 70
0
  9
$DIMSD2
 70
0
  9
$DIMTOLJ
 70
0
  9
$DIMTZIN
 70
8
  9
$DIMALTZ
 70
0
  9
$DIMALTTZ
 70
0
  9
$DIMUPT
 70
0
  9
$DIMDEC
 70
2
  9
$DIMTDEC
 70
2
  9
$DIMALTU
 70
2
  9
$DIMALTTD
 70
3
  9
$DIMTXSTY
  7
Standard
  9
$DIMAUNIT
 70
0
  9
$DIMADEC
 70
0
  9
$DIMALTRND
 40
0.0
  9
$DIMAZIN
 70
0
  9
$DIMDSEP
 70
44
  9
$DIMATFIT
 70
3
  9
$DIMFRAC
 70
0
  9
$DIMLDRBLK
  1

  9
$DIMLUNIT
 70
2
  9
$DIMLWD
 70
-2
  9
$DIMLWE
 70
-2
  9
$DIMTMOVE
 70
0
  9
$DIMFXL
 40
1.0
  9
$DIMFXLON
 70
0
  9
$DIMJOGANG
 40
0.785398163397
  9
$DIMTFILL
 70
0
  9
$DIMTFILLCLR
 70
0
  9
$DIMARCSYM
 70
0
  9
$DIMLTYPE
  6

  9
$DIMLTEX1
  6

  9
$DIMLTEX2
  6

  9
$DIMTXTDIRECTION
 70
0
  9
$LUNITS
 70
2
  9
$LUPREC
 70
4
  9
$SKETCHINC
 40
1.0
  9
$FILLETRAD
 40
10.0
  9
$AUNITS
 70
0
  9
$AUPREC
 70
2
  9
$MENU
  1
.
  9
$ELEVATION
 40
0.0
  9
$PELEVATION
 40
0.0
  9
$THICKNESS
 40
0.0
  9
$LIMCHECK
 70
0
  9
$CHAMFERA
 40
0.0
  9
$CHAMFERB
 40
0.0
  9
$CHAMFERC
 40
0.0
  9
$CHAMFERD
 40
0.0
  9
$SKPOLY
 70
0
  9
$TDCREATE
 40
2460246.482291667
  9
$TDUCREATE
 40
2458532.153996898
  9
$TDUPDATE
 40
2460246.482291667
  9
$TDUUPDATE
 40
2458532.1544311
  9
$TDINDWG
 40
0.0
  9
$TDUSRTIMER
 40
0.0
  9
$USRTIMER
 70
1
  9
$ANGBASE
 50
0.0
  9
$ANGDIR
 70
0
  9
$PDMODE
 70
0
  9
$PDSIZE
 40
0.0
  9
$PLINEWID
 40
0.0
  9
$SPLFRAME
 70
0
  9
$SPLINETYPE
 70
6
  9
$SPLINESEGS
 70
8
  9
$HANDSEED
  5
63
  9
$SURFTAB1
 70
6
  9
$SURFTAB2
 70
6
  9
$SURFTYPE
 70
6
  9
$SURFU
 70
6
  9
$SURFV
 70
6
  9
$UCSBASE
  2

  9
$UCSNAME
  2

  9
$UCSORG
 10
0.0
 20
0.0
 30
0.0
  9
$UCSXDIR
 10
1.0
 20
0.0
 30
0.0
  9
$UCSYDIR
 10
0.0
 20
1.0
 30
0.0
  9
$UCSORTHOREF
  2

  9
$UCSORTHOVIEW
 70
0
  9
$UCSORGTOP
 10
0.0
 20
0.0
 30
0.0
  9
$UCSORGBOTTOM
 10
0.0
 20
0.0
 30
0.0
  9
$UCSORGLEFT
 10
0.0
 20
0.0
 30
0.0
  9
$UCSORGRIGHT
 10
0.0
 20
0.0
 30
0.0
  9
$UCSORGFRONT
 10
0.0
 20
0.0
 30
0.0
  9
$UCSORGBACK
 10
0.0
 20
0.0
 30
0.0
  9
$PUCSBASE
  2

  9
$PUCSNAME
  2

  9
$PUCSORG
 10
0.0
 20
0.0
 30
0.0
  9
$PUCSXDIR
 10
1.0
 20
0.0
 30
0.0
  9
$PUCSYDIR
 10
0.0
 20
1.0
 30
0.0
  9
$PUCSORTHOREF
  2

  9
$PUCSORTHOVIEW
 70
0
  9
$PUCSORGTOP
 10
0.0
 20
0.0
 30
0.0
  9
$PUCSORGBOTTOM
 10
0.0
 20
0.0
 30
0.0
  9
$PUCSORGLEFT
 10
0.0
 20
0.0
 30
0.0
  9
$PUCSORGRIGHT
 10
0.0
 20
0.0
 30
0.0
  9
$PUCSORGFRONT
 10
0.0
 20
0.0
 30
0.0
  9
$PUCSORGBACK
 10
0.0
 20
0.0
 30
0.0
  9
$USERI1
 70
0
  9
$USERI2
 70
0
  9
$USERI3
 70
0
  9
$USERI4
 70
0
  9
$USERI5
 70
0
  9
$USERR1
 40
0.0
  9
$USERR2
 40
0.0
  9
$USERR3
 40
0.0
  9
$USERR4
 40
0.0
  9
$USERR5
 40
0.0
  9
$WORLDVIEW
 70
1
  9
$SHADEDGE
 70
3
  9
$SHADEDIF
 70
70
  9
$TILEMODE
 70
1
  9
$MAXACTVP
 70
64
  9
$PINSBASE
 10
0.0
 20
0.0
 30
0.0
  9
$PLIMCHECK
 70
0
  9
$PEXTMIN
 10
1e+20
 20
1e+20
 30
1e+20
  9
$PEXTMAX
 10
-1e+20
 20
-1e+20
 30
-1e+20
  9
$PLIMMIN
 10
0.0
 20
0.0
  9
$PLIMMAX
 10
420.0
 20
297.0
  9
$UNITMODE
 70
0
  9
$VISRETAIN
 70
1
  9
$PLINEGEN
 70
0
  9
$PSLTSCALE
 70
1
  9
$TREEDEPTH
 70
3020
  9
$CMLSTYLE
  2
Standard
  9
$CMLJUST
 70
0
  9
$CMLSCALE
 40
20.0
  9
$PROXYGRAPHICS
 70
1
  9
$MEASUREMENT
 70
1
  9
$CELWEIGHT
370
-1
  9
$ENDCAPS
280
0
  9
$JOINSTYLE
280
0
  9
$LWDISPLAY
290
0
  9
$INSUNITS
 70
4
  9
$HYPERLINKBASE
  1

  9
$STYLESHEET
  1

  9
$XEDIT
290
1
  9
$CEPSNTYPE
380
0
  9
$PSTYLEMODE
290
1
  9
$FINGERPRINTGUID
  2
{2F8D9FB5-CD8E-4E90-8355-5CE68EE6E99D}
  9
$VERSIONGUID
  2
{19E8BFBC-645B-4DC3-95F2-11561D541913}
  9
$EXTNAMES
290
1
  9
$PSVPSCALE
 40
0.0
  9
$OLESTARTUP
290
0
  9
$SORTENTS
280
127
  9
$INDEXCTL
280
0
  9
$HIDETEXT
280
1
  9
$XCLIPFRAME
280
0
  9
$HALOGAP
280
0
  9
$OBSCOLOR
 70
257
  9
$OBSLTYPE
280
0
  9
$INTERSECTIONDISPLAY
280
0
  9
$INTERSECTIONCOLOR
 70
257
  9
$DIMASSOC
280
2
  9
$PROJECTNAME
  1

  9
$CAMERADISPLAY
290
0
  9
$LENSLENGTH
 40
50.0
  9
$CAMERAHEIGHT
 40
0.0
  9
$STEPSPERSEC
 40
24.0
  9
$STEPSIZE
 40
100.0
  9
$3DDWFPREC
 40
2.0
  9
$PSOLWIDTH
 40
0.005
  9
$PSOLHEIGHT
 40
0.08
  9
$LOFTANG1
 40
1.570796326795
  9
$LOFTANG2
 40
1.570796326795
  9
$LOFTMAG1
 40
0.0
  9
$LOFTMAG2
 40
0.0
  9
$LOFTPARAM
 70
7
  9
$LOFTNORMALS
280
1
  9
$LATITUDE
 40
37.795
  9
$LONGITUDE
 40
-122.394
  9
$NORTHDIRECTION
 40
0.0
  9
$TIMEZONE
 70
-8000
  9
$LIGHTGLYPHDISPLAY
280
1
  9
$TILEMODELIGHTSYNCH
280
1
  9
$CMATERIAL
347
20
  9
$SOLIDHIST
280
0
  9
$SHOWHIST
280
1
  9
$DWFFRAME
280
2
  9
$DGNFRAME
280
2
  9
$REALWORLDSCALE
290
1
  9
$INTERFERECOLOR
 62
256
  9
$CSHADOW
280
0
  9
$SHADOWPLANELOCATION
 40
0.0
  0
ENDSEC
  0
SECTION
  2
CLASSES
  0
CLASS
  1
ACDBDICTIONARYWDFLT
  2
AcDbDictionaryWithDefault
  3
ObjectDBX Classes
 90
0
 91
0
280
0
281
0
  0
CLASS
  1
SUN
  2
AcDbSun
  3
SCENEOE
 90
1153
 91
0
280
0
281
0
  0
CLASS
  1
VISUALSTYLE
  2
AcDbVisualStyle
  3
ObjectDBX Classes
 90
4095
 91
0
280
0
281
0
  0
CLASS
  1
MATERIAL
  2
AcDbMaterial
  3
ObjectDBX Classes
 90
1153
 91
0
280
0
281
0
  0
CLASS
  1
SCALE
  2
AcDbScale
  3
ObjectDBX Classes
 90
1153
 91
0
280
0
281
0
  0
CLASS
  1
TABLESTYLE
  2
AcDbTableStyle
  3
ObjectDBX Classes
 90
4095
 91
0
280
0
281
0
  0
CLASS
  1
MLEADERSTYLE
  2
AcDbMLeaderStyle
  3
ACDB_MLEADERSTYLE_CLASS
 90
4095
 91
0
280
0
281
0
  0
CLASS
  1
DICTIONARYVAR
  2
AcDbDictionaryVar
  3
ObjectDBX Classes
 90
0
 91
0
280
0
281
0
  0
CLASS
  1
CELLSTYLEMAP
  2
AcDbCellStyleMap
  3
ObjectDBX Classes
 90
1152
 91
0
280
0
281
0
  0
CLASS
  1
MENTALRAYRENDERSETTINGS
  2
AcDbMentalRayRenderSettings
  3
SCENEOE
 90
1024
 91
0
280
0
281
0
  0
CLASS
  1
ACDBDETAILVIEWSTYLE
  2
AcDbDetailViewStyle
  3
ObjectDBX Classes
 90
1025
 91
0
280
0
281
0
  0
CLASS
  1
ACDBSECTIONVIEWSTYLE
  2
AcDbSectionViewStyle
  3
ObjectDBX Classes
 90
1025
 91
0
280
0
281
0
  0
CLASS
  1
RASTERVARIABLES
  2
AcDbRasterVariables
  3
ISM
 90
0
 91
0
280
0
281
0
  0
CLASS
  1
ACDBPLACEHOLDER
  2
AcDbPlaceHolder
  3
ObjectDBX Classes
 90
0
 91
0
280
0
281
0
  0
CLASS
  1
LAYOUT
  2
AcDbLayout
  3
ObjectDBX Classes
 90
0
 91
0
280
0
281
0
  0
ENDSEC
  0
SECTION
  2
TABLES
  0
TABLE
  2
VPORT
  5
8
330
0
100
AcDbSymbolTable
 70
1
  0
VPORT
  5
23
330
8
100
AcDbSymbolTableRecord
100
AcDbViewportTableRecord
  2
*Active
 70
0
 10
0.0
 20
0.0
 11
1.0
 21
1.0
 12
0.0
 22
0.0
 13
0.0
 23
0.0
 14
0.5
 24
0.5
 15
0.5
 25
0.5
 16
0.0
 26
0.0
 36
1.0
 17
0.0
 27
0.0
 37
0.0
 40
1000.0
 41
1.34
 42
50.0
 43
0.0
 44
0.0
 50
0.0
 51
0.0
 71
0
 72
1000
 73
1
 74
3
 75
0
 76
0
 77
0
 78
0
281
0
 65
0
146
0.0
  0
ENDTAB
  0
TABLE
  2
LTYPE
  5
2
330
0
100
AcDbSymbolTable
 70
3
  0
LTYPE
  5
24
330
2
100
AcDbSymbolTableRecord
100
AcDbLinetypeTableRecord
  2
ByBlock
 70
0
  3

 72
65
 73
0
 40
0.0
  0
LTYPE
  5
25
330
2
100
AcDbSymbolTableRecord
100
AcDbLinetypeTableRecord
  2
ByLayer
 70
0
  3

 72
65
 73
0
 40
0.0
  0
LTYPE
  5
26
330
2
100
AcDbSymbolTableRecord
100
AcDbLinetypeTableRecord
  2
Continuous
 70
0
  3

 72
65
 73
0
 40
0.0
  0
ENDTAB
  0
TABLE
  2
LAYER
  5
1
330
0
100
AcDbSymbolTable
 70
2
  0
LAYER
  5
27
330
1
100
AcDbSymbolTableRecord
100
AcDbLayerTableRecord
  2
0
 70
0
 62
7
  6
Continuous
370
-3
390
13
347
21
  0
LAYER
  5
28
330
1
100
AcDbSymbolTableRecord
100
AcDbLayerTableRecord
  2
Defpoints
 70
0
 62
7
  6
Continuous
290
0
370
-3
390
13
347
21
  0
ENDTAB
  0
TABLE
  2
STYLE
  5
5
330
0
100
AcDbSymbolTable
 70
1
  0
STYLE
  5
29
330
5
100
AcDbSymbolTableRecord
100
AcDbTextStyleTableRecord
  2
Standard
 70
0
 40
0.0
 41
1.0
 50
0.0
 71
0
 42
2.5
  3
txt
  4

  0
ENDTAB
  0
TABLE
  2
VIEW
  5
7
330
0
100
AcDbSymbolTable
 70
0
  0
ENDTAB
  0
TABLE
  2
UCS
  5
6
330
0
100
AcDbSymbolTable
 70
0
  0
ENDTAB
  0
TABLE
  2
APPID
  5
3
330
0
100
AcDbSymbolTable
 70
3
  0
APPID
  5
2A
330
3
100
AcDbSymbolTableRecord
100
AcDbRegAppTableRecord
  2
ACAD
 70
0
  0
APPID
  5
60
330
3
100
AcDbSymbolTableRecord
100
AcDbRegAppTableRecord
  2
HATCHBACKGROUNDCOLOR
 70
0
  0
APPID
  5
61
330
3
100
AcDbSymbolTableRecord
100
AcDbRegAppTableRecord
  2
EZDXF
 70
0
  0
ENDTAB
  0
TABLE
  2
DIMSTYLE
  5
4
330
0
100
AcDbSymbolTable
 70
1
100
AcDbDimStyleTable
  0
DIMSTYLE
105
2B
330
4
100
AcDbSymbolTableRecord
100
AcDbDimStyleTableRecord
  2
Standard
 70
0
 40
1.0
 41
2.5
 42
0.625
 43
3.75
 44
1.25
 45
0.0
 46
0.0
 47
0.0
 48
0.0
 49
2.5
140
2.5
141
2.5
142
0.0
143
0.03937007874
144
1.0
145
0.0
146
1.0
147
0.625
148
0.0
 69
0
 70
0
 71
0
 72
0
 73
0
 74
0
 75
0
 76
0
 77
1
 78
8
 79
3
170
0
171
3
172
1
173
0
174
0
175
0
176
0
177
0
178
0
179
2
271
2
272
2
273
2
274
3
275
0
276
0
277
2
278
44
279
0
280
0
281
0
282
0
283
0
284
8
285
0
286
0
288
0
289
3
290
0
371
-2
372
-2
  0
ENDTAB
  0
TABLE
  2
BLOCK_RECORD
  5
9
330
0
100
AcDbSymbolTable
 70
2
  0
BLOCK_RECORD
  5
17
330
9
100
AcDbSymbolTableRecord
100
AcDbBlockTableRecord
  2
*Model_Space
340
1A
 70
0
280
1
281
0
  0
BLOCK_RECORD
  5
1B
330
9
100
AcDbSymbolTableRecord
100
AcDbBlockTableRecord
  2
*Paper_Space
340
1E
 70
0
280
1
281
0
  0
ENDTAB
  0
ENDSEC
  0
SECTION
  2
BLOCKS
  0
BLOCK
  5
18
330
17
100
AcDbEntity
  8
0
100
AcDbBlockBegin
  2
*Model_Space
 70
0
 10
0.0
 20
0.0
 30
0.0
  3
*Model_Space
  1

  0
ENDBLK
  5
19
330
17
100
AcDbEntity
  8
0
100
AcDbBlockEnd
  0
BLOCK
  5
1C
330
1B
100
AcDbEntity
  8
0
100
AcDbBlockBegin
  2
*Paper_Space
 70
0
 10
0.0
 20
0.0
 30
0.0
  3
*Paper_Space
  1

  0
ENDBLK
  5
1D
330
1B
100
AcDbEntity
  8
0
100
AcDbBlockEnd
  0
ENDSEC
  0
SECTION
  2
ENTITIES
  0
LWPOLYLINE
  5
2F
330
17
100
AcDbEntity
  8
default
100
AcDbPolyline
 90
1110
 70
0
 10
41.25894784853334
 20
266.3333333333333
 10
41.40771881813334
 20
266.6666666666667
 10
41.592281181866674
 20
267.0
 10
41.741052151466675
 20
267.3333333333333
 10
41.92561451520001
 20
267.6666666666667
 10
42.074385484800004
 20
268.0
 10
42.25894784853334
 20
268.3333333333333
 10
42.40771881813334
 20
268.6666666666667
 10
42.592281181866674
 20
269.0
 10
42.741052151466675
 20
269.3333333333333
 10
42.92561451520001
 20
269.6666666666667
 10
43.074385484800004
 20
270.0
 10
43.258947848533374
 20
270.33333333333337
 10
43.40771881813924
 20
270.6666666666726
 10
43.592281182347506
 20
271.00000000048084
 10
43.74105217478148
 20
271.3333333566481
 10
43.92561525992253
 20
271.6666674113892
 10
44.074401889564726
 20
272.0000164047648
 10
44.25920107768478
 20
272.3335865624848
 10
44.410441512495716
 20
272.66938936102906
 10
44.61208720907964
 20
273.01980602721295
 10
44.83275851538667
 20
273.42503969725334
 10
45.16724148461337
 20
273.90829363608003
 10
45.38791279092039
 20
274.3135273061204
 10
45.589558487504306
 20
274.6639439723044
 10
45.74079892231524
 20
274.9997467708486
 10
45.92559811043529
 20
275.33331692856865
 10
46.074384740077484
 20
275.6666659219442
 10
46.25894782521853
 20
275.9999999766852
 10
46.40771881765252
 20
276.3333333328525
 10
46.59228118186078
 20
276.66666666666083
 10
46.74105215146664
 20
277.0
 10
46.92561451520001
 20
277.3333333333333
 10
47.074385484800004
 20
277.6666666666667
 10
47.25894784853334
 20
278.0
 10
47.40771881813334
 20
278.3333333333333
 10
47.5922811818667
 20
278.66666666666674
 10
47.741052151472566
 20
279.0000000000059
 10
47.925614515680834
 20
279.33333333381415
 10
48.07438550811482
 20
279.66666668998147
 10
48.25894859325587
 20
280.00000074472257
 10
48.407735222898054
 20
280.3333497380981
 10
48.592534411018114
 20
280.6669198958182
 10
48.743774845829044
 20
281.00272269436243
 10
48.945420542412975
 20
281.3531393605463
 10
49.16609184872001
 20
281.7583730305867
 10
49.500574817946735
 20
282.24162696941346
 10
49.721246124259615
 20
282.64686063945965
 10
49.922891821318466
 20
282.9972773061186
 10
50.07413227896339
 20
283.3330801274968
 10
50.25893218849115
 20
283.66665100662453
 10
50.40773447817553
 20
284.0000156600422
 10
50.5925343877033
 20
284.33358653917
 10
50.74377484534822
 20
284.6693893605483
 10
50.94542054240712
 20
285.0198060272071
 10
51.16609184872586
 20
285.4250396972592
 10
51.500574818427516
 20
285.90829363656087
 10
51.721246147568536
 20
286.3135273294352
 10
51.92289256556017
 20
286.66394471702694
 10
52.07414866041329
 20
286.9997631756134
 10
52.259184672920064
 20
287.33357015772015
 10
52.41044076777319
 20
287.66938861630655
 10
52.612087185764864
 20
288.0198060038982
 10
52.83275851491174
 20
288.4250396967784
 10
53.1672414850883
 20
288.908293636555
 10
53.38791281423517
 20
289.3135273294352
 10
53.58955923222683
 20
289.66394471702694
 10
53.74081532707996
 20
289.9997631756134
 10
53.925851339586764
 20
290.33357015772015
 10
54.07710743444575
 20
290.6693886163124
 10
54.27875385291232
 20
291.019806004379
 10
54.49942520488733
 20
291.4250397200873
 10
54.83390889599667
 20
291.9082943807967
 10
55.05459586235175
 20
292.3135437108851
 10
55.25647838332245
 20
292.66419720145575
 10
55.41018828335018
 20
293.00246946521685
 10
55.61207080479575
 20
293.35312295626244
 10
55.83275779397896
 20
293.7583723091789
 10
56.167242206021086
 20
294.2416276908211
 10
56.387929195204286
 20
294.6468770437377
 10
56.58981171664989
 20
294.9975305347832
 10
56.74352161668348
 20
295.33580279855016
 10
56.94540413812909
 20
295.68645628959575
 10
57.16609112731229
 20
296.0917056425123
 10
57.50057553935445
 20
296.57496102415445
 10
57.721262528543505
 20
296.98021037707684
 10
57.92314505046401
 20
297.33086386859736
 10
58.07685497332573
 20
297.6691361551924
 10
58.278738215704124
 20
298.0197903671708
 10
58.499440842095524
 20
298.4250553572956
 10
58.83416135711668
 20
298.9085468419167
 10
59.057302151474495
 20
299.31625000000787
 10
59.276031181858876
 20
299.6837499999922
 10
59.499171976216694
 20
300.09145315808337
 10
59.83389249123788
 20
300.57494464270457
 10
60.05459511763515
 20
300.98020963283517
 10
60.25647836048843
 20
301.33086384528843
 10
60.41018830617827
 20
301.6691361547116
 10
60.61207154903156
 20
302.01979036716494
 10
60.832774175428824
 20
302.42505535729555
 10
61.16749469045002
 20
302.9085468419167
 10
61.39063548480783
 20
303.31625000000787
 10
61.609364515192205
 20
303.6837499999922
 10
61.83250530955002
 20
304.09145315808337
 10
62.16722582457121
 20
304.57494464270457
 10
62.38792845096848
 20
304.98020963283517
 10
62.58981169382176
 20
305.33086384528843
 10
62.7435216395116
 20
305.6691361547116
 10
62.945404882364926
 20
306.01979036716494
 10
63.16610750876805
 20
306.42505535730146
 10
63.500828024264145
 20
306.90854684239747
 10
63.72396884145007
 20
307.3162500233168
 10
63.942698592767265
 20
307.683750744234
 10
64.16585502433915
 20
308.0914695395392
 10
64.50081164281424
 20
308.5751971276144
 10
64.72396809720837
 20
308.98291594574175
 10
64.94269856945834
 20
309.3504173875917
 10
65.16585502385836
 20
309.7581362057251
 10
65.50081164280839
 20
310.24186379427516
 10
65.72396809721423
 20
310.6495826124143
 10
65.94269856993913
 20
311.01708405473914
 10
66.16387069182791
 20
311.4211773721708
 10
66.16585504716727
 20
311.4248028957006
 10
66.50081238705009
 20
311.9085312051835
 10
66.72398447866415
 20
312.31626566053086
 10
66.9429510543681
 20
312.68400320583476
 10
67.16856133677082
 20
313.0941758519709
 10
67.5203651855924
 20
313.5947506703925
 10
67.81296817153068
 20
314.0719160200641
 10
68.16477274081016
 20
314.57249155894357
 10
68.39039866042113
 20
314.98267984228784
 10
68.60960133957899
 20
315.35065349104565
 10
68.83522725919576
 20
315.7608417743958
 10
69.18703182895017
 20
316.26141731375026
 10
69.47963483772244
 20
316.73858268625577
 10
69.83143940795175
 20
317.23915822608507
 10
70.05706535039668
 20
317.64934653226334
 10
70.27626875048735
 20
318.017320901954
 10
70.50191030731233
 20
318.4275248225124
 10
70.85395098004575
 20
318.9283364648458
 10
71.14900779398677
 20
319.4079556425202
 10
71.51765887267997
 20
319.9253776908134
 10
71.81271568662686
 20
320.4049968684935
 10
72.16475635983522
 20
320.90580851130187
 10
72.3903979394942
 20
321.3160124546942
 10
72.60960206099259
 20
321.6839875457926
 10
72.83524366347967
 20
322.0941915120131
 10
73.18728505809571
 20
322.59500387622916
 10
73.48235753208478
 20
323.0746387139515
 10
73.85124543516471
 20
323.59229758663145
 10
74.14877171431665
 20
324.07438622951673
 10
74.51789571990068
 20
324.5922812047007
 10
74.81543761343272
 20
325.0743854619661
 10
75.1845616190167
 20
325.5922804371501
 10
75.48208789816867
 20
326.0743690800354
 10
75.85097580124858
 20
326.5920279527153
 10
76.14604827523765
 20
327.0716627904377
 10
76.49808966985373
 20
327.5724751546537
 10
76.72373127234671
 20
327.98267912088
 10
76.94293539432002
 20
328.3506542124534
 10
77.16857699681297
 20
328.7608581786797
 10
77.52061839142905
 20
329.26167054289584
 10
77.81569086541812
 20
329.7413053806182
 10
78.18457876849808
 20
330.25896425329813
 10
78.48210504765588
 20
330.7410528961893
 10
78.85122905371483
 20
331.2589478718482
 10
79.14877097008085
 20
331.7410521519476
 10
79.51789569707257
 20
332.2589478485394
 10
79.81543763626672
 20
332.7410521514668
 10
80.18456236373338
 20
333.25894784853347
 10
80.48210430293923
 20
333.7410521514727
 10
80.85122903088084
 20
334.25894784901425
 10
81.14877099291483
 20
334.74105217478154
 10
81.5178964417892
 20
335.258948593256
 10
81.8154540410314
 20
335.7410685562315
 10
82.18481559288477
 20
336.25920107768485
 10
82.48482699729573
 20
336.74377484582914
 10
82.87103505761299
 20
337.27875387574636
 10
83.24047733352
 20
337.83275851538684
 10
83.75952266648005
 20
338.50057481794687
 10
84.12896494239295
 20
339.05457945759304
 10
84.51517300318514
 20
339.58955848798524
 10
84.81518443043007
 20
340.0741322789635
 10
85.18454670369117
 20
340.5922655218246
 10
85.48211996297553
 20
341.0744011448422
 10
85.85148223623666
 20
341.59253438770344
 10
86.15149366348747
 20
342.0771081786876
 10
86.53770172475458
 20
342.61208720955466
 10
86.90714402350147
 20
343.1660918720349
 10
87.42619007786922
 20
343.8339088960027
 10
87.79564801381846
 20
344.3879291956852
 10
88.18209289852246
 20
344.92314504998916
 10
88.48457376815018
 20
345.41018828335024
 10
88.8710186533291
 20
345.9454041381292
 10
89.2404766121123
 20
346.49942446064574
 10
89.75952338788778
 20
347.1672422060212
 10
90.12898134667685
 20
347.7212625285435
 10
90.51542623233073
 20
348.2564783837974
 10
90.81790712479831
 20
348.74352163999833
 10
91.20435273138496
 20
349.278738216185
 10
91.57382635021034
 20
349.83277419874383
 10
92.09310995037254
 20
350.500828768506
 10
92.46503737437254
 20
351.05731855623924
 10
92.86856559287702
 20
351.6096177443437
 10
93.24294682205162
 20
352.16856133725173
 10
93.77931303413168
 20
352.85369851893176
 10
94.22068698966994
 20
353.4796348382033
 10
94.75705392315767
 20
354.1647727412911
 10
95.1314508352026
 20
354.7237320170693
 10
95.53521659950151
 20
355.2762687509682
 10
95.90962914876049
 20
355.83524366396057
 10
96.44623290663499
 20
356.5206183914351
 10
96.89007635022406
 20
357.1490241987575
 10
97.44352661751225
 20
357.8512454356457
 10
97.88982388910405
 20
358.48210507097076
 10
98.44351098030408
 20
359.18456313177086
 10
98.88983952631813
 20
359.8154540415183
 10
99.44376344190486
 20
360.51814892670495
 10
99.89254583874391
 20
361.1514936872774
 10
100.46331698420222
 20
361.87103580233565
 10
100.9815458897573
 20
362.57382707162407
 10
101.68539041131234
 20
363.42644256277913
 10
102.20607314487013
 20
364.13168766007027
 10
102.79392762365401
 20
364.8683131084541
 10
103.31462601725401
 20
365.5735738657874
 10
104.01870808460349
 20
366.4264269027369
 10
104.53942213824567
 20
367.1317033201125
 10
105.12751416282396
 20
367.8685663142907
 10
105.65068204446887
 20
368.57629655966895
 10
106.37184744514393
 20
369.446232929944
 10
106.96446183550485
 20
370.2234096840383
 10
107.70247446605147
 20
371.1101932841849
 10
108.2975427072374
 20
371.88982388910415
 10
109.03579216217074
 20
372.7768443136374
 10
109.63089167778479
 20
373.55650619298484
 10
110.36937795710487
 20
374.443763441905
 10
110.9669313235498
 20
375.22587917208324
 10
111.7222648332164
 20
376.1299836513498
 10
112.38926473121133
 20
376.981545913078
 10
113.27767233838237
 20
378.0187244898491
 10
113.94714172441635
 20
378.8727562396165
 10
114.16929377625647
 20
379.137682624523
 10
114.16929377625645
 20
379.137682624523
 10
114.719796112728
 20
379.7941815975281
 10
115.39175060118698
 20
380.6506984497203
 10
116.29771518998206
 20
381.70543400811545
 10
116.73739773069008
 20
382.254208865992
 10
117.04157003798205
 20
382.6338512198488
 10
117.98122908652034
 20
383.72228123798703
 10
118.7969842940672
 20
384.72259880926725
 10
119.86995354356385
 20
385.9443390283639
 10
120.68819387636971
 20
386.94714172490313
 10
121.64541062841478
 20
388.05312944654816
 10
122.46613610931361
 20
389.0584172911804
 10
123.2481700696869
 20
389.94713717362987
 10
123.55666378419969
 20
390.2977159356664
 10
124.44930530752741
 20
391.37491982272746
 10
125.57376498842618
 20
392.6481504732262
 10
126.54079201940547
 20
393.7997398679389
 10
127.81588278133268
 20
395.2236015994661
 10
128.85978046807995
 20
396.4520616499467
 10
130.18636166330984
 20
397.92741381477657
 10
131.3790617997493
 20
399.30467631494935
 10
133.0237574476893
 20
401.09814293247763
 10
134.44217812643075
 20
402.7011259740024
 10
136.34121278425218
 20
404.7489315557442
 10
138.1443308421829
 20
406.73661053364293
 10
140.80483963472102
 20
409.54585893001695
 10
143.55195837670175
 20
412.47706494319226
 10
148.02101116324343
 20
417.089918403148
 10
151.78821647852274
 20
420.9586822347987
 10
153.58215681663958
 20
422.8009846620374
 10
154.5959272904501
 20
423.8147551358479
 10
162.44223455351883
 20
431.6610623989166
 10
167.13397521682597
 20
436.2233456355251
 10
167.87559298646616
 20
436.9445002263706
 10
171.88994886778977
 20
440.81505543428017
 10
174.53610132239277
 20
443.27712061768864
 10
174.9625148340392
 20
443.68053953723916
 10
177.2943401521153
 20
445.88661984357526
 10
178.286947042036
 20
446.7899578373577
 10
179.34652684530027
 20
447.75424561679233
 10
181.5606266155333
 20
449.819574463105
 10
183.30983281557997
 20
451.3842183003683
 10
185.2876206430588
 20
453.2132351582589
 10
186.81362265573742
 20
454.5546748072042
 10
188.4732989147237
 20
456.0655800965905
 10
189.84804478667618
 20
457.2557636048096
 10
190.12275137510818
 20
457.50478465216753
 10
191.43914872327443
 20
458.69809657180775
 10
192.66513923998943
 20
459.7395247247894
 10
193.95592687258716
 20
460.8815413877872
 10
195.03806971290993
 20
461.77912186437663
 10
196.29445241212923
 20
462.88673359399604
 10
197.36918681113954
 20
463.776905629273
 10
198.60801252731005
 20
464.8669603758435
 10
198.90058372214727
 20
465.1056848566302
 10
198.90058372214725
 20
465.1056848566302
 10
199.6108152466891
 20
465.68520073148915
 10
200.6997181936179
 20
466.62533270881806
 10
201.63060489340788
 20
467.3716570448747
 10
202.70218840308237
 20
468.2944695849492
 10
203.62815180964697
 20
469.0358706277804
 10
204.68265126506304
 20
469.9415991135964
 10
205.53915248004714
 20
470.6135379648472
 10
206.460577117026
 20
471.386191632226
 10
207.31460884396517
 20
472.0556609954319
 10
208.3517874202613
 20
472.94406860212797
 10
209.20334968198372
 20
473.6110685001171
 10
210.1074541612503
 20
474.36640200978366
 10
210.88956989142852
 20
474.96395537622857
 10
211.25002155778137
 20
475.2639682645804
 10
211.25002155778134
 20
475.2639682645804
 10
211.77682714034862
 20
475.7024416555487
 10
212.55648901969602
 20
476.2975411711628
 10
213.44350944422936
 20
477.03579062609606
 10
214.22314004914867
 20
477.630858867282
 10
214.444584017623
 20
477.815152358575
 10
214.44458401762301
 20
477.815152358575
 10
215.10992364929527
 20
478.36887149782865
 10
215.88710040338952
 20
478.96148588818954
 10
216.75703677366454
 20
479.6826512888646
 10
217.4647670190428
 20
480.2058191705095
 10
218.2016300132211
 20
480.7939111950878
 10
218.90690643059665
 20
481.31462524872995
 10
219.75975946754613
 20
482.01870731607943
 10
220.46502022487942
 20
482.5394057096795
 10
221.2016456732633
 20
483.12726018846337
 10
221.90689077055444
 20
483.6479429220211
 10
222.7595062617095
 20
484.35178744357614
 10
223.4622975309979
 20
484.87001634913133
 10
224.18183964605618
 20
485.44078749458964
 10
224.81518440663444
 20
485.8895698914346
 10
225.51787929229607
 20
486.44349380749617
 10
226.1487702248775
 20
486.8898223763443
 10
226.85122900708524
 20
487.443510188952
 10
227.48210430245254
 20
487.88982312058596
 10
228.18456236372748
 20
488.44351021226095
 10
228.8154376362667
 20
488.8898231210668
 10
229.51789569706668
 20
489.4435102122668
 10
230.14877096959415
 20
489.88982312106094
 10
230.8512290299192
 20
490.443510211786
 10
231.48210427961854
 20
490.889823097752
 10
232.18456161901082
 20
491.44350946754435
 10
232.8154212314961
 20
491.8898067162963
 10
233.51764246743448
 20
492.44325698263464
 10
234.14604825192288
 20
492.88710040338964
 10
234.83142225846456
 20
493.42370344033134
 10
235.39038153424283
 20
493.79810035237625
 10
235.94268216468777
 20
494.2016300132212
 10
236.4991876124633
 20
494.5735730972633
 10
237.16747828567946
 20
495.09309280087956
 10
237.7239680734187
 20
495.46502022488545
 10
238.2760311585441
 20
495.86831234041085
 10
238.83250530906923
 20
496.2402241272026
 10
239.50055915789864
 20
496.7595070064321
 10
240.05459511762928
 20
497.1289806024294
 10
240.589811693341
 20
497.5154262085411
 10
241.0768549495302
 20
497.817907100997
 10
241.6120708043091
 20
498.2043519861758
 10
242.16609110399747
 20
498.5738099221309
 10
242.83390812796526
 20
499.0928559764987
 10
243.38791279043963
 20
499.4622982752397
 10
243.92289182083184
 20
499.8485063360319
 10
244.40746558898195
 20
500.1485177404487
 10
244.92559811043537
 20
500.51787929230215
 10
245.40771807341088
 20
500.8154368915443
 10
245.92561449188528
 20
501.18456234041867
 10
246.40771881765258
 20
501.4821043024526
 10
246.92561451519418
 20
501.8512290303943
 10
247.4077188181334
 20
502.1487709696001
 10
247.92561451520007
 20
502.51789569706676
 10
248.40771881813342
 20
502.81543763626684
 10
248.92561451520007
 20
503.1845623637334
 10
249.40771881813342
 20
503.48210430293346
 10
249.92561451520007
 20
503.85122903040013
 10
250.40771881813342
 20
504.14877096960015
 10
250.92561451520007
 20
504.5178956970668
 10
251.40771881813342
 20
504.81543763626684
 10
251.92561451520004
 20
505.18456236373345
 10
252.40771881813342
 20
505.48210430293346
 10
252.92561451520007
 20
505.8512290304001
 10
253.40771881813342
 20
506.14877096960015
 10
253.92561451520007
 20
506.5178956970667
 10
254.40771881813342
 20
506.8154376362668
 10
254.92561451520007
 20
507.18456236373345
 10
255.40771881813342
 20
507.4821043029335
 10
255.9256145152
 20
507.8512290304002
 10
256.40771881812753
 20
508.14877096959424
 10
256.9256145147192
 20
508.5178956965858
 10
257.40771879481855
 20
508.8154376129519
 10
257.9256137704776
 20
509.1845616190109
 10
258.4077024133687
 20
509.48208789816886
 10
258.9253612860486
 20
509.85097580124875
 10
259.404996123771
 20
510.1460482752377
 10
259.90580848798703
 20
510.4980896698539
 10
260.3160124542133
 20
510.72373127234687
 10
260.6839875457867
 20
510.94293539432033
 10
261.09419151200717
 20
511.16857699680725
 10
261.42121726102505
 20
511.39845670613437
 10
261.5950038757483
 20
511.52061839094824
 10
262.0746386906367
 20
511.8156908421033
 10
262.59229684190893
 20
512.1845780237757
 10
263.07436982475787
 20
512.4820886428913
 10
263.59202797603007
 20
512.8509758245635
 10
264.07166279091257
 20
513.1460482757127
 10
264.57247515417885
 20
513.4980896693789
 10
264.98267909756527
 20
513.7237312490322
 10
265.35065346773087
 20
513.9429346495976
 10
265.760841773915
 20
514.1685605920484
 10
266.26141731374435
 20
514.5203651622777
 10
266.73858268624986
 20
514.81296817105
 10
267.2391582256043
 20
515.1647727408044
 10
267.64934650895447
 20
515.3903986604213
 10
268.0173201577123
 20
515.6096013395792
 10
268.4275084410624
 20
515.8352272591958
 10
268.92808398041683
 20
516.1870318289502
 10
269.4052493529166
 20
516.4796348377167
 10
269.9058248922709
 20
516.8314394074711
 10
270.3160131756211
 20
517.0570653270879
 10
270.68398682437896
 20
517.2762680062458
 10
271.0941751077291
 20
517.5018939258625
 10
271.5947506470835
 20
517.853698495617
 10
272.0719160195833
 20
518.1463015043834
 10
272.57249155893766
 20
518.4981060741377
 10
272.9826798422878
 20
518.7237319937545
 10
273.35065349104565
 20
518.9429346729125
 10
273.7608417743899
 20
519.1685605925232
 10
274.2614173132694
 20
519.5203651618028
 10
274.738582662941
 20
519.8129681477411
 10
275.2391574813626
 20
520.1647719965628
 10
275.6493301274987
 20
520.3903822789655
 10
276.0170676728026
 20
520.6093488546694
 10
276.42480212815
 20
520.8325209462832
 10
276.90853043763286
 20
521.1674782861662
 10
277.3162492785942
 20
521.3906347633944
 10
277.68375072091914
 20
521.6093652361193
 10
278.09146953905844
 20
521.832521690525
 10
278.33304041282946
 20
521.99979716753
 10
278.5751971276085
 20
522.1674783094752
 10
278.98291594574175
 20
522.3906347638753
 10
279.3504173875916
 20
522.6093652361251
 10
279.75813620571915
 20
522.8325216905192
 10
280.2418637937943
 20
523.1674783089944
 10
280.6495825890995
 20
523.3906347405663
 10
281.01708331001663
 20
523.6093644918834
 10
281.4247864909359
 20
523.8325053090693
 10
281.90827797603197
 20
524.1672258245654
 10
282.3135429661626
 20
524.3879284509627
 10
282.66419717814097
 20
524.5898116933411
 10
283.002469464736
 20
524.7435216162028
 10
283.3531229562565
 20
524.9454041381234
 10
283.7583723091789
 20
525.1660911273124
 10
284.2416276908211
 20
525.5005755393545
 10
284.6468770437377
 20
525.7212625285377
 10
284.9975305347832
 20
525.9231450499833
 10
285.1147512265233
 20
525.9764097800223
 10
289.43250520170096
 20
518.3545080895032
 10
289.82277142498003
 20
518.5692277570656
 10
290.35219572098003
 20
518.8471403986656
 10
290.9046224420301
 20
519.1510787741156
 10
291.51415446683
 20
519.5090991445156
 10
292.16081267913
 20
519.9072690112155
 10
292.77034470393
 20
520.2652893816155
 10
293.32277142498
 20
520.5692277570655
 10
293.85219572098003
 20
520.8471403986656
 10
294.40462244203
 20
521.1510787741156
 10
295.01415446683
 20
521.5090991445156
 10
295.66081267927996
 20
521.9072690113657
 10
296.27034471603
 20
522.2652893938656
 10
296.82277186653
 20
522.5692282107656
 10
297.35220533798
 20
522.8471504614655
 10
297.90476128938
 20
523.1512274032656
 10
298.5155494818301
 20
523.5106368615656
 10
299.17076998208
 20
523.9186819146156
 10
299.82095137003
 20
524.3265279287156
 10
300.50354110023
 20
524.8060693036156
 10
301.29397947533005
 20
525.5022751678156
 10
302.11893882898
 20
526.4501530623655
 10
302.78027561643
 20
527.4477408893156
 10
303.31092956038
 20
528.3826449708656
 10
303.88934669753
 20
529.2845375229156
 10
304.62674598863003
 20
530.0795483928157
 10
305.49315348093006
 20
530.6203002862156
 10
306.52496157913004
 20
530.8836239266157
 10
307.69340565328
 20
530.8572675783156
 10
308.81787335117997
 20
530.5048048908155
 10
309.90025270473
 20
529.7987253305655
 10
310.92122187178006
 20
528.8429023064156
 10
311.6706231321301
 20
527.9598772556656
 10
312.1366708654301
 20
527.2774649050655
 10
312.4472433407801
 20
526.7216365812155
 10
312.71126316693005
 20
526.2095660503655
 10
312.96152826848004
 20
525.7046368527656
 10
313.21313093778
 20
525.1875784073657
 10
313.46075333378
 20
524.6230781879656
 10
313.70610047033006
 20
523.9403814518156
 10
313.92380986058004
 20
523.0463614455656
 10
314.06691506578005
 20
521.8892184211657
 10
314.04896678998006
 20
520.5953099804657
 10
313.83608461168006
 20
519.5009520032655
 10
313.44409551138
 20
518.6951230536656
 10
312.86730093078
 20
518.1048312898656
 10
312.10184638968
 20
517.7090848047156
 10
311.07244666153
 20
517.4896596159655
 10
309.77687217713003
 20
517.4413680458156
 10
308.40154022453
 20
517.4795282437157
 10
307.11721944132995
 20
517.4487460199656
 10
306.12190808492994
 20
517.2959668660656
 10
305.41176429068
 20
517.0764650308656
 10
304.84816287693
 20
516.8279678259156
 10
304.32121568398
 20
516.5656363778655
 10
303.7700530297299
 20
516.2648009249156
 10
303.16077830272997
 20
515.9072212953155
 10
302.51415180468
 20
515.5090958798655
 10
301.90462230968
 20
515.1510786254655
 10
301.35219571713003
 20
514.8471403946155
 10
300.82277142492995
 20
514.5692277570156
 10
300.27034470393
 20
514.2652893816156
 10
299.66081267913
 20
513.9072690112156
 10
299.01415446683
 20
513.5090991445155
 10
298.4046224420301
 20
513.1510787741156
 10
297.85219572098003
 20
512.8471403986655
 10
297.32277142498003
 20
512.5692277570655
 10
296.77034470393005
 20
512.2652893816156
 10
296.16081267913006
 20
511.9072690112156
 10
295.51415446683
 20
511.50909914451563
 10
294.90462244203
 20
511.1510787741156
 10
294.35219572098
 20
510.84714039866566
 10
293.8382185140673
 20
510.57733645431614
 10
296.8090136167794
 20
505.3331496975625
 10
300.77769618159147
 20
498.32744522163057
 10
300.68373433946925
 20
498.2760155213359
 10
300.3159967941653
 20
498.057048945632
 10
299.90582414802924
 20
497.83143866322933
 10
299.4052493296076
 20
497.47963481440775
 10
298.92808397993605
 20
497.18703182846946
 10
298.72681837159615
 20
497.0455823265396
 10
298.42750844105655
 20
496.83522725919
 10
298.0173201577123
 20
496.609601339579
 10
297.64934650895447
 20
496.39039866042117
 10
297.2391582256043
 20
496.1647727408044
 10
296.73858268624986
 20
495.81296817104993
 10
296.26141731374435
 20
495.52036516227764
 10
295.760841773915
 20
495.1685605920483
 10
295.3506534677367
 20
494.94293464960344
 10
294.98267909804605
 20
494.7237312495128
 10
294.5724751774877
 20
494.49808969268787
 10
294.1766759976782
 20
494.21986650906086
 10
294.0716635351543
 20
494.14604901995443
 10
293.59204435747995
 20
493.8509922060134
 10
293.4836276293296
 20
493.77374782898534
 10
293.48362762932965
 20
493.77374782898534
 10
293.0746223091868
 20
493.48234112732024
 10
292.5950031315066
 20
493.18728431337337
 10
292.0941914886983
 20
492.835243640165
 10
291.6839875453118
 20
492.60960206051186
 10
291.31601245468835
 20
492.3903979394884
 10
290.90580851130187
 20
492.1647563598352
 10
290.4049968684935
 20
491.812715686627
 10
289.9253776908133
 20
491.51765887268016
 10
289.40795564252016
 20
491.1490077939869
 10
288.9283364648399
 20
490.85395098004
 10
288.42752482203156
 20
490.50191030683163
 10
288.0173208786392
 20
490.2762687271725
 10
287.6493457875408
 20
490.0570646056742
 10
287.2391418213204
 20
489.8314230031871
 10
286.7383294571044
 20
489.47938160857115
 10
286.4475844390978
 20
489.30051459346873
 10
286.2586946193879
 20
489.184309134588
 10
285.7410357471829
 20
488.81542123198295
 10
285.2589471271257
 20
488.5178949756592
 10
284.74105287287443
 20
488.14877169100794
 10
284.2589642528173
 20
487.851245434684
 10
283.7413053806123
 20
487.482357532079
 10
283.2616705428958
 20
487.1872850580959
 10
282.7608581786797
 20
486.83524366347973
 10
282.3506542124534
 20
486.6096020609868
 10
281.98267912088
 20
486.39039793901344
 10
281.5724751546537
 20
486.1647563365205
 10
281.0716627904377
 20
485.8127149419045
 10
280.5920279527153
 20
485.51764246791544
 10
280.0743690800354
 20
485.14875456483543
 10
279.5922804371442
 20
484.8512282856776
 10
279.07438546148524
 20
484.4821042796187
 10
278.59228118138003
 20
484.1845623632467
 10
278.0743854843133
 20
483.81543763578014
 10
277.5922811585519
 20
483.517895673752
 10
277.07438474007756
 20
483.14877022487764
 10
276.59226477710206
 20
482.85121262563547
 10
276.07413225564864
 20
482.4818510737821
 10
275.5895584875044
 20
482.18183966937113
 10
275.0545794575871
 20
481.7956316090539
 10
274.5005748179409
 20
481.42618933314094
 10
273.83275851490595
 20
480.907143999706
 10
273.2787538524315
 20
480.53770170096493
 10
272.74377410110657
 20
480.15149291923996
 10
272.2591846729143
 20
479.851465854781
 10
271.74081532659926
 20
479.4818674780659
 10
271.25622587557876
 20
479.18184039077886
 10
270.721245402846
 20
478.79563088764615
 10
270.16722508032365
 20
478.42617292885706
 10
269.49917195242705
 20
477.90689077056044
 10
268.94269782473583
 20
477.53497900660267
 10
268.3906347405602
 20
477.13168689202706
 10
267.83414497566093
 20
476.759759490861
 10
267.16585502385254
 20
476.2402405086526
 10
266.6093652361191
 20
475.8683130846526
 10
266.05730143006093
 20
475.4650202481944
 10
265.50081161949953
 20
475.0930928013662
 10
265.32581835874134
 20
474.95705551907645
 10
265.3258183587412
 20
474.95705551907633
 10
264.8325209462834
 20
474.57357309775006
 10
264.276015521336
 20
474.201630036536
 10
263.7237156122987
 20
473.79810109709877
 10
263.16477199656265
 20
473.42371984509606
 10
262.4796348144077
 20
472.8873536325411
 10
261.8536984951302
 20
472.44597967699696
 10
261.64014812335665
 20
472.2787996720124
 10
261.1685605920424
 20
471.9096127435092
 10
260.60960131626416
 20
471.53521583146426
 10
260.05706458236523
 20
471.13145006716536
 10
259.49808966937303
 20
470.7570375179064
 10
258.81271494189855
 20
470.2204337600319
 10
258.3904362498119
 20
469.92217803631746
 10
258.18430913458207
 20
469.77659031644873
 10
257.48208789816874
 20
469.22314004963545
 10
256.85122828567756
 20
468.7768428008776
 10
256.14877094628537
 20
468.22315643108533
 10
255.51789569658592
 20
467.7768435451194
 10
254.81543763626084
 20
467.22315645439426
 10
254.18456236373336
 20
466.7768435456002
 10
253.48210430293338
 20
466.2231564544001
 10
252.85122903039414
 20
465.7768435455942
 10
252.14877096911917
 20
465.2231564539193
 10
251.51789567374598
 20
464.7768435222794
 10
250.81543689106334
 20
464.22315570919676
 10
250.18454593565386
 20
463.7768271175206
 10
249.48185032905937
 20
463.2229024805262
 10
248.84848993126707
 20
462.77410444646716
 10
248.1287117127548
 20
462.2030971975548
 10
247.46072645882262
 20
461.7099234210484
 10
247.42346661546367
 20
461.682414463997
 10
246.55400389443705
 20
460.96172271257046
 10
245.77931226560762
 20
460.3715934474743
 10
244.90961272019427
 20
459.650664871661
 10
244.20188249765
 20
459.12749701285003
 10
243.4647834004927
 20
458.5391688852927
 10
242.75703751790627
 20
458.0159853664396
 10
241.8871004266985
 20
457.2948192448318
 10
241.10992364978193
 20
456.7022048316486
 10
240.22314004963536
 20
455.96419220110204
 10
239.44350946754423
 20
455.36912398274427
 10
238.55648976441856
 20
454.63087524921855
 10
237.77684354511337
 20
454.03579139364666
 10
236.88982312058
 20
453.29754193871327
 10
236.11017685561268
 20
452.70245803747935
 10
235.22315570919667
 20
451.9642078606634
 10
234.44349378418133
 20
451.36910829938137
 10
233.55623581337855
 20
450.63062129817854
 10
232.7741044231464
 20
450.03305227167976
 10
231.86976311901805
 20
449.27748193715144
 10
231.01573136923903
 20
448.6080125511058
 10
229.9614687377347
 20
447.7025208892014
 10
229.03552096837245
 20
446.9611354835725
 10
227.96393745822309
 20
446.0383229430232
 10
227.0330350983968
 20
445.2919829469302
 10
225.9438946066234
 20
444.3516134247568
 10
225.87942317163098
 20
444.2989784013647
 10
225.87942317163103
 20
444.2989784013647
 10
224.9386067848311
 20
443.53088796669783
 10
223.68246163283106
 20
442.4235137842978
 10
222.53337309195084
 20
441.4589876071509
 10
221.1102232792492
 20
440.18460876404924
 10
220.46971143932592
 20
439.6407188193951
 10
220.2410700135771
 20
439.4465681969631
 10
219.88674925355141
 20
439.14569710208485
 10
218.44604173639274
 20
437.85376055452616
 10
217.21759739161055
 20
436.8098785734773
 10
216.18093116710173
 20
435.87897199247914
 10
215.75933000102313
 20
435.50038215248986
 10
214.4564528945313
 20
434.38206740973123
 10
212.83046099653677
 20
432.90484648132497
 10
211.37617142352605
 20
431.6351192710977
 10
209.5288533814131
 20
429.9365721529051
 10
207.7525313593109
 20
428.34481105077083
 10
205.21818716710985
 20
425.95920646240575
 10
203.99839614720213
 20
424.8166613969572
 10
202.31126470295646
 20
423.23637126944686
 10
201.06109482516388
 20
422.0272349649815
 10
201.06109482516385
 20
422.02723496498146
 10
197.9300895887408
 20
418.99899682864526
 10
194.71828022389076
 20
415.93710806928857
 10
191.3508974194275
 20
412.56972526482537
 10
188.1476774975298
 20
409.2165847374343
 10
188.014199678381
 20
409.07889217424224
 10
183.59361678056797
 20
404.5187233470584
 10
180.65265811524935
 20
401.39367741054525
 10
178.06612119099123
 20
398.65840088245125
 10
176.32809001874566
 20
396.7358087902376
 10
174.47914936911874
 20
394.73809721669045
 10
173.206937056484
 20
393.28132254127235
 10
171.86255267931293
 20
391.78816719451294
 10
170.81613822759334
 20
390.55719037906005
 10
169.54080774994947
 20
389.1330889318163
 10
168.5737493531358
 20
387.9814681712693
 10
167.44905284595023
 20
386.7080006944837
 10
166.55395747177405
 20
385.62834295657416
 10
165.84699753132807
 20
384.8264060436894
 10
165.44658256701626
 20
384.3721970822163
 10
164.55641057740144
 20
383.29746272886814
 10
163.46612044925968
 20
382.05840163112634
 10
162.64542628845692
 20
381.05314510659025
 10
161.6884470822064
 20
379.94739493073973
 10
160.87267623745132
 20
378.94706172225136
 10
159.81679032175515
 20
377.74240483695513
 10
159.07293547375514
 20
376.81398762522184
 10
158.28319775211796
 20
375.87547893398465
 10
157.61125890086717
 20
375.01897771900053
 10
156.72261446930935
 20
373.98156231784276
 10
156.05559891127226
 20
373.12998439607236
 10
155.30026468019796
 20
372.225879195398
 10
154.70271129091904
 20
371.44376344238583
 10
153.96422501112406
 20
370.55650619299075
 10
153.36912549551
 20
369.7768443136434
 10
152.63087604105152
 20
368.889823889585
 10
152.0358078226937
 20
368.11019330749383
 10
151.29779591307997
 20
367.22341042828003
 10
150.70519715993308
 20
366.44624931139975
 10
149.98426786271196
 20
365.57654904457866
 10
149.4635538090698
 20
364.8712726272032
 10
148.89230901436306
 20
364.1512568628965
 10
148.44104149225916
 20
363.5154269770593
 10
147.8700335219391
 20
362.7956480371392
 10
147.3518045935442
 20
362.092856745011
 10
146.64819617449322
 20
361.24047735636003
 10
146.1299828833124
 20
360.53770170144577
 10
145.55921173737914
 20
359.81815958591255
 10
145.11041370332015
 20
359.1847991881202
 10
144.7135865068162
 20
358.6814390625777
 10
144.55625296334668
 20
358.4818674785467
 10
144.10745492929354
 20
357.84850708076027
 10
143.53668378383526
 20
357.128964965702
 10
143.01847051549422
 20
356.42618933362763
 10
142.31486281832596
 20
355.5738106668594
 10
141.79664957281892
 20
354.871035057619
 10
141.22587914924324
 20
354.15149366444336
 10
140.77709679806628
 20
353.51814894953304
 10
140.22317360388726
 20
352.81545478575407
 10
139.77686069508727
 20
352.1845795132206
 10
139.2234097068663
 20
351.4823575553997
 10
138.77956624044916
 20
350.8539517252492
 10
138.24296248209973
 20
350.1685769972998
 10
137.86854993283487
 20
349.60960208430157
 10
137.46478416853589
 20
349.05706535040264
 10
137.09038725648517
 20
348.4981060746186
 10
136.5540203225225
 20
347.81296817105584
 10
136.11264634415022
 20
347.18703182895024
 10
135.5762794106625
 20
346.50189392586253
 10
135.20188252145155
 20
345.9429346729183
 10
134.79811747903523
 20
345.390398660902
 10
134.42372061265246
 20
344.83143943078585
 10
133.88735440057243
 20
344.1463022491058
 10
133.44599608224823
 20
343.52038156704833
 10
132.9098659731472
 20
342.83548048834723
 10
132.53793854914136
 20
342.27899070060806
 10
132.15125683910077
 20
341.74353802096743
 10
131.84876028659687
 20
341.25647910473015
 10
131.46231395907745
 20
340.7212618076108
 10
131.09284034025205
 20
340.16722582505207
 10
131.0491470304405
 20
340.11101468281106
 10
130.57355746102263
 20
339.49917197622267
 10
130.20164569706483
 20
338.94269784853145
 10
129.79835430342197
 20
338.3906354852886
 10
129.4264425622923
 20
337.8341613804257
 10
128.90716040447055
 20
337.166108253004
 10
128.53770244568736
 20
336.61208793048746
 10
128.15149294255468
 20
336.0771074577548
 10
127.85146585526756
 20
335.59251800673434
 10
127.48186747855253
 20
335.0741486604194
 10
127.18184041409354
 20
334.58955923222703
 10
126.79563163236854
 20
334.05457948090196
 10
126.42618933362755
 20
333.5005748184276
 10
125.90714400019257
 20
332.8327585153927
 10
125.5377017242797
 20
332.2787538757464
 10
125.1514936639624
 20
331.7437748458291
 10
124.85148225955145
 20
331.25920107768485
 10
124.48212070769807
 20
330.7410685562315
 10
124.18456310845588
 20
330.258948593256
 10
123.8154376595815
 20
329.74105217478154
 10
123.51789569754753
 20
329.25894784901425
 10
123.1487709696059
 20
328.7410521514727
 10
122.85122903040005
 20
328.25894784853347
 10
122.48210430293335
 20
327.74105215146676
 10
122.18456236373335
 20
327.2589478485334
 10
121.81543763626668
 20
326.74105215146676
 10
121.51789569706669
 20
326.2589478485334
 10
121.37651669073279
 20
326.06058785369265
 10
121.14877096960005
 20
325.7410521514668
 10
120.85122903040592
 20
325.2589478485393
 10
120.48210430341418
 20
324.7410521519476
 10
120.18456238704817
 20
324.2589478718482
 10
119.81543838098922
 20
323.7410528961893
 10
119.51791210183143
 20
323.25896425329813
 10
119.14902419875145
 20
322.7413053806182
 10
118.85395172476238
 20
322.26167054289584
 10
118.50191033014634
 20
321.76085817867977
 10
118.27626872765926
 20
321.35065421245923
 10
118.05706460616088
 20
320.9826791213609
 10
117.83142302650188
 20
320.57247517796856
 10
117.47938235329352
 20
320.07166353516027
 10
117.18432553934664
 20
319.59204435748
 10
116.81567446065345
 20
319.07462230918685
 10
116.52061764671244
 20
318.5950031315125
 10
116.168576973979
 20
318.0941914891791
 10
115.94293541715402
 20
317.6839875686207
 10
115.72373201706337
 20
317.31601319893
 10
115.49810607461842
 20
316.9058248927517
 10
115.14630150438911
 20
316.40524935292245
 10
114.85369849561685
 20
315.9280839804169
 10
114.50189392586243
 20
315.4275084410624
 10
114.27626800624564
 20
315.0173201577123
 10
114.0570653270878
 20
314.64934650895447
 10
113.83143940747685
 20
314.2391582256102
 10
113.49377336896154
 20
313.75870011349053
 10
113.47963483819734
 20
313.7385826867307
 10
113.18703185225907
 20
313.26141733705913
 10
112.83522800343748
 20
312.7608425186375
 10
112.60961772102888
 20
312.35066987249553
 10
112.39065114485003
 20
311.98293232671676
 10
112.16747903040783
 20
311.5751978485413
 10
111.83252096959221
 20
311.09146881812563
 10
111.60934885515003
 20
310.68373433995004
 10
111.39038227897123
 20
310.3159967941712
 10
111.16477199656849
 20
309.90582414803515
 10
110.81296814822177
 20
309.40524933008845
 10
110.5203651851116
 20
308.92808400324503
 10
110.16856133676492
 20
308.4275091852983
 10
109.94295105436807
 20
308.01733653916807
 10
109.72398447866415
 20
307.64959899386423
 10
109.50081238705009
 20
307.2418645385169
 10
109.16585504716727
 20
306.75813622903394
 10
108.94269856993913
 20
306.35041738807246
 10
108.72396809721423
 20
305.9829159457476
 10
108.50081164280839
 20
305.57519712760853
 10
108.16585502385836
 20
305.0914695390585
 10
107.94269856945834
 20
304.68375072092505
 10
107.72396809720834
 20
304.31624927907507
 10
107.50081164280834
 20
303.90853046094185
 10
107.16585502385837
 20
303.4248028723918
 10
106.94269856945836
 20
303.01708405425836
 10
106.72396809720837
 20
302.64958261240844
 10
106.50081164280837
 20
302.24186379427516
 10
106.16585502385837
 20
301.7581362057251
 10
105.94269856945837
 20
301.3504173875917
 10
105.72396809720837
 20
300.98291594574175
 10
105.50081164280837
 20
300.5751971276085
 10
105.16585502385837
 20
300.0914695390585
 10
104.94269856945836
 20
299.68375072092505
 10
104.7239680972084
 20
299.31624927907507
 10
104.50081164281426
 20
298.9085304609477
 10
104.16585502433917
 20
298.42480287287253
 10
103.94269859276729
 20
298.0170840775673
 10
103.72396884145009
 20
297.64958335665017
 10
103.50082802426415
 20
297.24188017573084
 10
103.16610750876809
 20
296.75838869063483
 10
102.94540488237082
 20
296.35312370050417
 10
102.74352163999241
 20
296.0024694885257
 10
102.5898117171307
 20
295.6641972019307
 10
102.38792919521016
 20
295.31354371041016
 10
102.16724220602111
 20
294.90829435748776
 10
101.83275779397897
 20
294.4250389758456
 10
101.61207080479575
 20
294.01978962292907
 10
101.41018828335015
 20
293.6691361318835
 10
101.25647838331655
 20
293.3308638681165
 10
101.05459586187094
 20
292.980210377071
 10
100.83390887268774
 20
292.57496102415445
 10
100.49942446064561
 20
292.0917056425123
 10
100.27873747146242
 20
291.68645628959575
 10
100.07685495001682
 20
291.33580279855016
 10
99.92314504998322
 20
290.9975305347832
 10
99.72126252853761
 20
290.6468770437377
 10
99.50057553935441
 20
290.2416276908211
 10
99.16609112731228
 20
289.7583723091789
 10
98.94540413812908
 20
289.35312295626244
 10
98.74352161668351
 20
289.00246946521685
 10
98.58981171665579
 20
288.66419720145575
 10
98.3879291956851
 20
288.31354371088514
 10
98.1672422293359
 20
287.90829438080254
 10
97.83275853870144
 20
287.42503972056807
 10
97.61208720955459
 20
287.01980602768793
 10
97.41044151202078
 20
286.66938936055413
 10
97.25920105437001
 20
286.3335865391701
 10
97.07440114484221
 20
286.0000156600422
 10
96.93851756448345
 20
285.6955930414956
 10
96.92559885515783
 20
285.66665100662453
 10
96.74079894563008
 20
285.3330801274968
 10
96.58955848798517
 20
284.9972773061186
 10
96.3879127909263
 20
284.64686063945965
 10
96.16724148461341
 20
284.24162696941346
 10
95.83275851538664
 20
283.75837303058665
 10
95.61208720907375
 20
283.35313936054047
 10
95.4104415120149
 20
283.00272269388165
 10
95.25920105436997
 20
282.66691987250334
 10
95.0744011448422
 20
282.3333489933755
 10
94.92559885515783
 20
281.99998433995785
 10
94.74079894563008
 20
281.6664134608301
 10
94.58955848798516
 20
281.3306106394519
 10
94.3879127909263
 20
280.980193972793
 10
94.1672414846134
 20
280.5749603027468
 10
93.83275851538669
 20
280.09170636392
 10
93.61208720907965
 20
279.6864726938797
 10
93.4104415124957
 20
279.33605602769575
 10
93.2592010776789
 20
279.0002532291456
 10
93.0744018890839
 20
278.66668307095057
 10
92.92561523660773
 20
278.3333340547411
 10
92.74105143005897
 20
277.9999992785923
 10
92.59226477758278
 20
277.66665026238286
 10
92.4074655889878
 20
277.33308010418784
 10
92.256225154171
 20
276.99727730563774
 10
92.108843481644
 20
276.7411597925024
 10
92.10884348164402
 20
276.7411597925024
 10
92.05457945758705
 20
276.6468606394538
 10
91.83390815128003
 20
276.2416269694134
 10
91.49942518205334
 20
275.7583730305867
 10
91.27875387574632
 20
275.3531393605463
 10
91.0771081791624
 20
275.00272269436243
 10
90.92586774435145
 20
274.6669198958182
 10
90.7410685562314
 20
274.3333497380981
 10
90.59228192658921
 20
274.00000074472257
 10
90.40771884144816
 20
273.66666668998147
 10
90.25894784901416
 20
273.33333333381415
 10
90.07438548480592
 20
273.0000000000059
 10
89.92561451520005
 20
272.66666666666674
 10
89.74105215146669
 20
272.3333333333333
 10
89.59228118186668
 20
272.0
 10
89.40771881813335
 20
271.6666666666667
 10
89.25894784853334
 20
271.3333333333333
 10
89.07438548480002
 20
271.0
 10
88.92561451520002
 20
270.6666666666667
 10
88.74105215146669
 20
270.3333333333333
 10
88.59228118186668
 20
270.0
 10
88.40771881813332
 20
269.6666666666667
 10
88.25894784852746
 20
269.33333333332746
 10
88.07438548431917
 20
268.99999999951916
 10
87.9256144918852
 20
268.6666666433519
 10
87.74105140674416
 20
268.3333325886108
 10
87.62233421533698
 20
268.0673526659046
 10
87.59226477710197
 20
267.99998359523534
 10
87.40746558898192
 20
267.66641343751525
 10
87.25622515417098
 20
267.33061063897105
 10
87.05457945758705
 20
266.9801939727871
 10
86.83390815128003
 20
266.5749603027467
 10
86.49942518205334
 20
266.09170636392
 10
86.27875387574632
 20
265.6864726938797
 10
86.0771081791624
 20
265.33605602769575
 10
85.92586774435145
 20
265.0002532291515
 10
85.7410685562314
 20
264.6666830714314
 10
85.59228192658921
 20
264.3333340780558
 10
85.40771884144816
 20
264.0000000233089
 10
85.25894784901416
 20
263.6666666666667
 10
85.07438548480592
 20
263.33333331002444
 10
84.92561451520005
 20
262.9999992552775
 10
84.74105215146669
 20
262.666650261902
 10
84.59228118186668
 20
262.33308010418193
 10
84.40771881813335
 20
261.99727730563774
 10
84.25894784853334
 20
261.6468606394538
 10
84.07438548480002
 20
261.2416269694134
 10
83.92561451520002
 20
260.7583730305867
 10
83.74105215146669
 20
260.3531393605463
 10
83.59228118186668
 20
260.00272269436243
 10
83.40771881813335
 20
259.6669198958182
 10
83.25894784853334
 20
259.3333497380981
 10
83.07438548480002
 20
259.00000074472257
 10
82.92561451520002
 20
258.66666668998147
 10
82.7966131547245
 20
258.43368063817957
 10
82.79661315472451
 20
258.43368063817957
 10
82.7410521514667
 20
258.33333333381415
 10
82.5922811818667
 20
258.0000000000059
 10
82.40771881813335
 20
257.66666666666674
 10
82.25894784853334
 20
257.3333333333333
 10
82.07438548480002
 20
257.0
 10
81.92561451520002
 20
256.6666666666667
 10
81.74105215146669
 20
256.3333333333333
 10
81.59228118186668
 20
256.0
 10
81.40771881813335
 20
255.66666666666666
 10
81.25894784853334
 20
255.33333333333331
 10
81.07438548480002
 20
254.99999999999412
 10
80.92561451520002
 20
254.66666666618585
 10
80.74105215146669
 20
254.33333331001856
 10
80.59228118186668
 20
253.9999992552775
 10
80.40771881813336
 20
253.66665026190196
 10
80.25894784853335
 20
253.33308010418193
 10
80.07438548480002
 20
252.99727730563768
 10
79.92561451520002
 20
252.64686063945376
 10
79.74105215146669
 20
252.24162696941343
 10
79.59228118186668
 20
251.75837303058674
 10
79.40771881813335
 20
251.35313936054638
 10
79.25894784853334
 20
251.00272269436243
 10
79.07438548480002
 20
250.66691989581815
 10
78.92561451520002
 20
250.33334973809806
 10
78.74105215146669
 20
250.00000074471666
 10
78.59228118186668
 20
249.66666668950066
 10
78.40771881813335
 20
249.33333331049937
 10
78.25894784853334
 20
248.99999925528337
 10
78.07438548480002
 20
248.666650261902
 10
77.92561451520002
 20
248.33308010418193
 10
77.74105215146669
 20
247.99727730563768
 10
77.59228118186668
 20
247.64686063945376
 10
77.40771881813335
 20
247.24162696941343
 10
77.25894784853334
 20
246.7583730305867
 10
77.2153887767714
 20
246.66273271607815
 10
61.477796026363386
 20
254.5843712033015
 10
61.486066656588044
 20
254.60081304621409
 10
61.73455500218804
 20
255.10081304621409
 10
61.98606665658804
 20
255.60081304621406
 10
62.234555002188046
 20
256.10081304621406
 10
62.48606665658804
 20
256.60081304621406
 10
62.734555002188046
 20
257.10081304621406
 10
62.98606665658804
 20
257.60081304621406
 10
63.23455500218804
 20
258.10081304621406
 10
63.486066656588044
 20
258.60081304621406
 10
63.73455500218804
 20
259.10081304621406
 10
63.98606665658803
 20
259.60081304621406
 10
64.23455500218802
 20
260.10081304621406
 10
64.48606665658802
 20
260.60081304621406
 10
64.73455500218802
 20
261.10081304621406
 10
64.98606665658802
 20
261.60081304621406
 10
65.23455500218802
 20
262.10081304621406
 10
65.48606665663803
 20
262.6008130462641
 10
65.73455500628802
 20
263.1008130502141
 10
65.98606680918802
 20
263.60081319071406
 10
66.23455840743802
 20
264.10081615416414
 10
66.48611734408803
 20
264.6008572044141
 10
66.73508481028803
 20
265.1012474224141
 10
66.99005491553804
 20
265.6038243836641
 10
67.25640263838802
 20
266.1154776269141
 10
67.57334524218804
 20
266.64973997311415
 10
67.98943102253804
 20
267.2063667345642
 10
68.54122207568805
 20
267.7287397398142
 10
69.19705975138804
 20
268.13927277031416
 10
69.95208740518804
 20
268.4588108508142
 10
70.76852743518803
 20
268.7430179430142
 10
71.52346676443804
 20
269.0642816907642
 10
72.17842917048804
 20
269.4868725392142
 10
72.72410226563804
 20
270.06809424496413
 10
73.10988523183804
 20
270.8223718836642
 10
73.32183879478804
 20
271.79305284811414
 10
73.33921934043805
 20
272.8913758605642
 10
73.19265566868805
 20
273.8329073510142
 10
72.95717495648805
 20
274.54259872221417
 10
72.64726663463804
 20
275.13575054616416
 10
72.23809153998805
 20
275.7044354103142
 10
71.71585458708803
 20
276.2284993650142
 10
71.15923730638804
 20
276.63872963886416
 10
70.62497539383803
 20
276.95481548461413
 10
70.11332201783803
 20
277.2210754570142
 10
69.61074192473802
 20
277.47603936211425
 10
69.11030667748801
 20
277.7250065315142
 10
68.60981245438802
 20
277.9765651710142
 10
68.10652991548803
 20
278.22505054111423
 10
67.58921034168803
 20
278.4764735819142
 10
67.02170780778803
 20
278.7240834052143
 10
66.32429950158803
 20
278.9694299598142
 10
65.38086753278803
 20
279.1871393341642
 10
64.11463011668803
 20
279.3302445511642
 10
62.674151796188035
 20
279.3122967088142
 10
61.47069971598804
 20
279.0994238505142
 10
60.61546500388803
 20
278.7075670924642
 10
60.01054942058804
 20
278.1320729782642
 10
59.61265738703804
 20
277.3756180689142
 10
59.39882686953804
 20
276.3899202480142
 10
59.379915429138045
 20
275.23956710511425
 10
59.51689662053804
 20
274.1768063290142
 10
59.70430614428804
 20
273.2827863387141
 10
59.844710924238036
 20
272.50570792856416
 10
59.843832397788034
 20
271.79766470681415
 10
59.69717374788804
 20
271.1721199311141
 10
59.47897873583804
 20
270.6195167016641
 10
59.23358460188805
 20
270.1043576008141
 10
58.98597152188804
 20
269.6012982625641
 10
58.73454848098804
 20
269.10086061376404
 10
58.48606635938804
 20
268.60081630681407
 10
58.23455499408804
 20
268.10081319481407
 10
57.98606665648804
 20
267.6008130502641
 10
57.734555002188046
 20
267.1008130462641
 10
57.48606665658804
 20
266.60081304621406
 10
57.234555002188046
 20
266.10081304621406
 10
56.98606665658804
 20
265.60081304621406
 10
56.73455500218804
 20
265.10081304621406
 10
56.486066656588044
 20
264.60081304621406
 10
56.23455500218804
 20
264.10081304621406
 10
55.986066656588044
 20
263.60081304621406
 10
55.73455500218804
 20
263.10081304621406
 10
55.48606665658804
 20
262.60081304621406
 10
55.23455500218804
 20
262.10081304621406
 10
54.98606665658804
 20
261.60081304621406
 10
54.734555002188046
 20
261.10081304621406
 10
54.48606665658804
 20
260.60081304621406
 10
54.23455500218804
 20
260.10081304621406
 10
53.98606665658804
 20
259.60081304621406
 10
53.73455500218804
 20
259.10081304621406
 10
53.48855387945886
 20
258.60581775350687
 10
49.022374197030096
 20
260.85390368534456
 10
49.0223741970301
 20
260.85390368534456
 10
40.62772509769053
 20
265.0794149466103
 10
40.741052151466675
 20
265.3333333333333
 10
40.92561451520001
 20
265.6666666666667
 10
41.074385484800004
 20
266.0
 10
41.25894784853334
 20
266.3333333333333
  0
LWPOLYLINE
  5
30
330
17
100
AcDbEntity
  8
default
100
AcDbPolyline
 90
61
 70
0
 10
96.29865767775637
 20
302.61632697929065
 10
95.67305719238833
 20
301.57257562648994
 10
95.6079781557128
 20
301.4848267034929
 10
96.40440680179745
 20
300.37292375182733
 10
99.63279864073893
 20
300.5567487076535
 10
99.77983836176638
 20
300.82539818146455
 10
100.05516566982514
 20
301.27124504349274
 10
100.24076122170162
 20
301.53927285281145
 10
100.33795148144179
 20
301.7168446731845
 10
100.42739892544228
 20
301.8734925901874
 10
100.59999258456953
 20
302.1634769619623
 10
100.77983840810327
 20
302.4920649331889
 10
101.05516566992556
 20
302.93791171051805
 10
101.24076122194859
 20
303.2059395199315
 10
101.33795148145363
 20
303.3835113398728
 10
101.42739892544265
 20
303.5401592568548
 10
101.59999258456969
 20
303.83014362862923
 10
101.7798384081032
 20
304.1587315998554
 10
102.0551656699254
 20
304.60457837718445
 10
102.24076122194852
 20
304.87260618659803
 10
102.33795148145363
 20
305.0501780065395
 10
102.42739892544257
 20
305.20682592352136
 10
102.59999258456982
 20
305.49681029529614
 10
102.77983840810327
 20
305.8253982665222
 10
103.05516566992529
 20
306.27124504385097
 10
103.24076122194845
 20
306.53927285326466
 10
103.33795148145374
 20
306.7168446732064
 10
103.42739892544245
 20
306.8734925901878
 10
103.59999258456973
 20
307.1634769619627
 10
103.77983840810326
 20
307.4920649331889
 10
104.0551656699255
 20
307.937911710518
 10
104.24076122195582
 20
308.205939519942
 10
104.33795148147156
 20
308.38351133990074
 10
104.42739892643623
 20
308.5401592585202
 10
104.5999926104588
 20
308.8301436718682
 10
104.77983847823027
 20
309.15873170870356
 10
105.05516657509942
 20
309.60457967403835
 10
105.24078140370773
 20
309.8726351442934
 10
105.33799993195132
 20
310.05025297892666
 10
105.42790612386378
 20
310.2076667743219
 10
105.60313854688287
 20
310.50195616936554
 10
105.78755092261618
 20
310.8372286194068
 10
106.07778958240648
 20
311.30250248159365
 10
106.33968361708176
 20
311.67514638342993
 10
106.55054622131213
 20
312.01901276946086
 10
106.72219639386364
 20
312.2802426263842
 10
106.91610439360811
 20
312.5561505282638
 10
107.00937186483449
 20
312.72571622830156
 10
107.09430392515716
 20
312.8740645762853
 10
107.26689040127292
 20
313.163910306483
 10
107.44653646969371
 20
313.4921228887177
 10
107.72183337938745
 20
313.9379135366713
 10
107.90744844779535
 20
314.2059691757948
 10
107.9278490708717
 20
314.24324102503675
 10
107.91923535754904
 20
314.25785829359666
 10
102.34312206180766
 20
315.7129018283449
 10
97.64889801773062
 20
306.8806679810984
 10
97.52457147683683
 20
306.04252652293303
 10
97.22889416291616
 20
304.86211651797765
 10
96.81894020297672
 20
303.7163719546059
 10
96.29865767775637
 20
302.61632697929065
  0
LWPOLYLINE
  5
31
330
17
100
AcDbEntity
  8
default
100
AcDbPolyline
 90
16
 70
0
 10
88.9623639977921
 20
296.5955863528536
 10
87.78195399283676
 20
296.299909038933
 10
86.57824653992331
 20
296.1213559051978
 10
85.36283399983677
 20
296.06164651593303
 10
84.14742145975022
 20
296.1213559051978
 10
82.94371400683677
 20
296.299909038933
 10
82.43541631340082
 20
296.427230983034
 10
81.30481663206592
 20
294.62196051562205
 10
85.4306805273518
 20
288.7692657597363
 10
92.88149812398478
 20
292.67040022695437
 10
93.35832203412428
 20
297.7563884346746
 10
92.78968534119979
 20
298.55026848932226
 10
92.25190488927984
 20
298.15142332338144
 10
91.20815353647914
 20
297.5258228380134
 10
90.10810856116387
 20
297.0055403127931
 10
88.9623639977921
 20
296.5955863528536
  0
LWPOLYLINE
  5
32
330
17
100
AcDbEntity
  8
default
100
AcDbPolyline
 90
16
 70
0
 10
75.77750437813883
 20
300.5951697923038
 10
75.0526108072852
 20
301.57257562648994
 10
74.42701032191717
 20
302.61632697929065
 10
73.90672779669681
 20
303.7163719546059
 10
73.49677383675737
 20
304.86211651797765
 10
73.2010965228367
 20
306.04252652293303
 10
73.04821723455628
 20
307.0731549686493
 10
71.44101611478254
 20
306.90836663078517
 10
68.59806559700519
 20
302.14976197341457
 10
73.41036492260173
 20
295.8374465405941
 10
77.70735737634823
 20
296.4138841996901
 10
78.70771755769043
 20
298.0111964241395
 10
78.4737631103937
 20
298.15142332338144
 10
77.49635727620756
 20
298.87631689423506
 10
76.59470991312358
 20
299.6935224292198
 10
75.77750437813883
 20
300.5951697923038
  0
LWPOLYLINE
  5
33
330
17
100
AcDbEntity
  8
default
100
AcDbPolyline
 90
42
 70
0
 10
75.0526108072852
 20
315.3507174053761
 10
75.77750437813883
 20
316.3281232395622
 10
76.59470991312358
 20
317.2297706026462
 10
77.49635727620756
 20
318.04697613763096
 10
78.20903763034211
 20
318.57553591159217
 10
77.3751674440157
 20
319.8675791582324
 10
77.27778552479224
 20
319.71962460873146
 10
77.08375920450905
 20
319.4436037155432
 10
76.99054891589303
 20
319.274152560874
 10
76.90518718974309
 20
319.1250916116723
 10
76.72994437340955
 20
318.8309137884458
 10
76.54570326105855
 20
318.4959736105956
 10
76.25525765002004
 20
318.030430415295
 10
75.99120645425018
 20
317.65479224844955
 10
75.77632077857017
 20
317.30549243162363
 10
75.5898077737371
 20
317.02406706841884
 10
75.31916665045388
 20
316.6442073787145
 10
75.1126128859452
 20
316.30845120567113
 10
74.94445227077276
 20
316.0529583696102
 10
74.7504262501378
 20
315.7769377345651
 10
74.65721569804577
 20
315.60748608548244
 10
74.57185537623229
 20
315.4584274808203
 10
74.39662934209439
 20
315.1642774382634
 10
74.2124180414074
 20
314.829381013726
 10
73.92221033750077
 20
314.3641637561849
 10
73.66031599174853
 20
313.99151963897594
 10
73.44945368555247
 20
313.6476537597234
 10
73.27780275904203
 20
313.3864228446225
 10
73.0838755279579
 20
313.11048774701067
 10
72.99058001936088
 20
312.9408763629078
 10
72.90518946133818
 20
312.79176258125653
 10
72.729963381355
 20
312.497612070612
 10
72.54575142060375
 20
312.16271443082695
 10
72.25554367144437
 20
311.6974970905875
 10
71.99364934540569
 20
311.3248530011296
 10
71.7827870773531
 20
310.9809871737006
 10
71.77108588638778
 20
310.9631794409681
 10
73.2599787368604
 20
311.11583748419946
 10
73.49677383675737
 20
312.06117651388837
 10
73.90672779669681
 20
313.2069210772601
 10
74.42701032191717
 20
314.3069660525754
 10
75.0526108072852
 20
315.3507174053761
  0
LWPOLYLINE
  5
34
330
17
100
AcDbEntity
  8
default
100
AcDbPolyline
 90
32
 70
0
 10
86.57824653992331
 20
320.80193712666824
 10
87.78195399283676
 20
320.62338399293304
 10
88.2401492035576
 20
320.50861206742536
 10
92.56364423269406
 20
322.15152461640537
 10
87.2856104108505
 20
330.32959365751594
 10
83.79887687837827
 20
329.6752164543535
 10
83.77278653021148
 20
329.6329425176098
 10
83.5895385548785
 20
329.3569270976697
 10
83.31661263818783
 20
328.9740019035371
 10
83.10611992132577
 20
328.6329425967733
 10
82.92287268105632
 20
328.35692820066583
 10
82.64996012666128
 20
327.9740215395021
 10
82.439493249924
 20
327.63299723984346
 10
82.2564745316789
 20
327.3572983707765
 10
81.98572206772218
 20
326.97735255499634
 10
81.77925641820683
 20
326.64174646825506
 10
81.61111885812556
 20
326.38629127539815
 10
81.41709253783525
 20
326.1102703821997
 10
81.32388224920851
 20
325.94081922751303
 10
81.23852052208517
 20
325.791758276679
 10
81.06327768119004
 20
325.4975804124789
 10
80.87903652474196
 20
325.16264016971286
 10
80.58859013654994
 20
324.69709588715557
 10
80.32452555126456
 20
324.32143890111644
 10
80.10961382802648
 20
323.97210387807473
 10
79.92287156442946
 20
323.6903620701937
 10
79.78949692503163
 20
323.503197988915
 10
81.82839983059804
 20
320.34401233526876
 10
82.94371400683677
 20
320.62338399293304
 10
84.14742145975022
 20
320.80193712666824
 10
85.36283399983677
 20
320.861646515933
 10
86.57824653992331
 20
320.80193712666824
  0
LWPOLYLINE
  5
35
330
17
100
AcDbEntity
  8
default
100
AcDbPolyline
 90
11
 70
0
 10
95.67305719238833
 20
315.3507174053761
 10
96.29865767775637
 20
314.3069660525754
 10
96.6599844298729
 20
313.5430048221949
 10
98.88448857795447
 20
317.7284336909652
 10
98.58270686678588
 20
318.05309293372557
 10
95.62830377463251
 20
319.03702400717884
 10
93.15937860679836
 20
318.0988413301595
 10
93.22931072346597
 20
318.04697613763096
 10
94.13095808654995
 20
317.2297706026462
 10
94.9481636215347
 20
316.3281232395622
 10
95.67305719238833
 20
315.3507174053761
  0
LWPOLYLINE
  5
36
330
17
100
AcDbEntity
  8
default
100
AcDbPolyline
 90
65
 70
0
 10
52.26783380721956
 20
267.3476779211942
 10
52.5139110805923
 20
267.8368744833968
 10
52.757017367923126
 20
268.3260448844146
 10
52.767833807219546
 20
268.34767792119413
 10
53.013911080548674
 20
268.83687448331005
 10
53.25701736783441
 20
269.3260448842861
 10
53.267833799644976
 20
269.34767790618605
 10
53.513910932885395
 20
269.8368741939166
 10
53.757017074883336
 20
270.32604445966814
 10
53.76782714837703
 20
270.34766484820597
 10
54.01385660315801
 20
270.8367699544004
 10
54.25691005750258
 20
271.3258896357156
 10
54.26672121749402
 20
271.3455252977602
 10
54.50897361106316
 20
271.82770949941477
 10
54.73337442064136
 20
272.283609982415
 10
54.783169564682886
 20
272.3881455767188
 10
54.623260997599374
 20
273.1509747688126
 10
54.562919774282115
 20
273.5080423697002
 10
51.85786646284363
 20
276.0361984433531
 10
51.824833821066264
 20
275.96218615034957
 10
51.63319949336365
 20
275.57803333059695
 10
51.552707711675055
 20
275.432659196058
 10
51.491500487733106
 20
275.2955194836833
 10
51.29986616003012
 20
274.91136666392987
 10
51.219374378331615
 20
274.765992529373
 10
51.15816715437714
 20
274.6288528169733
 10
50.966532825512715
 20
274.24469999512957
 10
50.88604100565851
 20
274.0993257918276
 10
50.82483373329849
 20
273.96218598262277
 10
50.633197679540615
 20
273.5780300734942
 10
50.55267989728159
 20
273.43260923368405
 10
50.491439881250166
 20
273.2954040442966
 10
50.29926233202676
 20
272.9102896326492
 10
50.21475893646376
 20
272.75775751780293
 10
50.148509501790514
 20
272.6106622942732
 10
49.923255451778566
 20
272.1701375199429
 10
49.75093478930441
 20
271.8706814289785
 10
49.558382068259654
 20
271.5170838220623
 10
49.27851078547734
 20
271.0626891773097
 10
49.09610557358212
 20
270.7991539745618
 10
49.00322779272586
 20
270.6285962131951
 10
48.94578417335351
 20
270.52599957485074
 10
48.867676879200616
 20
270.3902659684045
 10
48.818152091971115
 20
270.28030488445387
 10
48.632865299276204
 20
269.9105592665653
 10
48.55245026082473
 20
269.7654068049544
 10
48.491457030737536
 20
269.62875452711745
 10
48.29986511424475
 20
269.2446975081984
 10
48.21937360863772
 20
269.09932412589006
 10
48.158167090427575
 20
268.9621860064186
 10
47.96653282599902
 20
268.5780333289488
 10
47.88604104450747
 20
268.4326591949327
 10
47.824833821049864
 20
268.29551948364616
 10
47.633199493363655
 20
267.91136666393027
 10
47.55270771167491
 20
267.76599252939104
 10
47.49150048773297
 20
267.62885281701637
 10
47.32934795464301
 20
267.30379960988313
 10
51.25730980705439
 20
265.32662976695394
 10
51.26783380721959
 20
265.34767792119425
 10
51.513911080593445
 20
265.8368744833991
 10
51.75701736792307
 20
266.3260448844145
 10
51.76783380721959
 20
266.34767792119425
 10
52.013911080593445
 20
266.8368744833991
 10
52.25701736792307
 20
267.3260448844145
 10
52.26783380721956
 20
267.3476779211942
  0
LWPOLYLINE
  5
37
330
17
100
AcDbEntity
  8
default
100
AcDbPolyline
 90
51
 70
0
 10
56.56420831613299
 20
281.7546042744359
 10
57.16912389943298
 20
282.3300983886359
 10
57.58873993261719
 20
282.6873830860675
 10
58.04512825044445
 20
282.9963162077538
 10
58.53274410050556
 20
283.2531444637795
 10
59.38797881260557
 20
283.6450012218295
 10
59.78072700553749
 20
283.8051642001226
 10
60.18563646670248
 20
283.9314640454356
 10
60.59979341380282
 20
284.02299188729546
 10
61.803245494002816
 20
284.23586474559545
 10
62.20600537133002
 20
284.2903323580329
 10
62.61185842765377
 20
284.3119086473787
 10
64.05233674815378
 20
284.3298564897287
 10
64.67613604840379
 20
284.29861562110733
 10
65.72276621813992
 20
284.1803295590668
 10
57.13730114015063
 20
285.85867246018597
 10
57.09610554436626
 20
285.79915393237053
 10
57.003227722067784
 20
285.6285961029407
 10
56.94578251258716
 20
285.525996706001
 10
56.86764882509423
 20
285.3902174398635
 10
56.81809193583437
 20
285.2801913402227
 10
56.632262205714106
 20
284.9094841666357
 10
56.54783385061399
 20
284.7571744943811
 10
56.4817998284746
 20
284.6105658995298
 10
56.25658789238286
 20
284.1701354191304
 10
56.084267336116696
 20
283.8706799675704
 10
55.89171535474257
 20
283.51708373562565
 10
55.61184411870945
 20
283.0626891769496
 10
55.42943890666149
 20
282.7991539740962
 10
55.33656112602907
 20
282.6285962131447
 10
55.279117505602734
 20
282.5259995729711
 10
55.20101017277142
 20
282.39026589944586
 10
55.15148533819353
 20
282.280304719491
 10
54.96619682102552
 20
281.9105560153536
 10
54.88575577220379
 20
281.76535685675015
 10
54.82472976044875
 20
281.62863909991097
 10
54.6325946218131
 20
281.24362048280767
 10
54.5480914964148
 20
281.09108912118427
 10
54.48184277180866
 20
280.9439954864395
 10
54.2565887845147
 20
280.50347085188366
 10
54.084268122119894
 20
280.20401476135663
 10
53.89171540158071
 20
279.8504171553732
 10
53.79787963947572
 20
279.69806687719296
 10
54.81006118017246
 20
278.75207705176683
 10
54.841660965877495
 20
278.87147673512345
 10
54.99580250574817
 20
279.2951625474585
 10
55.18748263667083
 20
279.7032409826854
 10
55.58537467022083
 20
280.45969589203537
 10
55.86399803983804
 20
280.92601493306574
 10
56.19156471950204
 20
281.35935602331483
 10
56.56420831613299
 20
281.7546042744359
  0
LWPOLYLINE
  5
38
330
17
100
AcDbEntity
  8
default
100
AcDbPolyline
 90
13
 70
0
 10
82.26077886950225
 20
283.9717413051985
 10
82.66044703265652
 20
285.75661326758564
 10
77.96800646744668
 20
292.4130185660906
 10
73.8084233221598
 20
291.8550142417662
 10
70.5131077603437
 20
285.65484199346974
 10
72.33638256619759
 20
281.6999055206439
 10
72.37542832875039
 20
281.6800972149932
 10
72.42145179248287
 20
281.6564488283774
 10
72.93310516848287
 20
281.3901888559773
 10
73.17092378283868
 20
281.2580871237911
 10
73.70518569538869
 20
280.9420012780411
 10
73.92847061270905
 20
280.7942113550188
 10
82.26077886950225
 20
283.9717413051985
  0
LWPOLYLINE
  5
39
330
17
100
AcDbEntity
  8
default
100
AcDbPolyline
 90
44
 70
0
 10
78.13315572454599
 20
274.6019711962623
 10
78.27971939629599
 20
273.6604397058123
 10
78.3272174849562
 20
273.23760484589553
 10
78.33859341140187
 20
272.8122626595506
 10
78.32121286575186
 20
271.7139396471005
 10
78.28858152460536
 20
271.21732143868195
 10
78.20674079923629
 20
270.72640744924087
 10
78.19922938155348
 20
270.6920075077666
 10
78.83857023948804
 20
269.92788790306076
 10
83.56431513141274
 20
271.14970262178866
 10
83.70013384066759
 20
271.4219666710511
 10
83.78062562215916
 20
271.56734080506726
 10
83.84183284561682
 20
271.7044805163539
 10
84.03346717330317
 20
272.08863333607
 10
84.1139589549918
 20
272.234007470609
 10
84.1751661789338
 20
272.3711471829838
 10
84.36680050663621
 20
272.7553000027361
 10
84.44729228832503
 20
272.9006741372755
 10
84.50849951226705
 20
273.0378138496503
 10
84.70013383996964
 20
273.42196666940293
 10
84.7806256216583
 20
273.56734080394205
 10
84.84183284560032
 20
273.7044805163169
 10
85.03346717330304
 20
274.08863333606973
 10
85.11395895499173
 20
274.23400747060884
 10
85.1751661789338
 20
274.3711471829838
 10
85.3668005066362
 20
274.755300002736
 10
85.44729228833476
 20
274.90067413729304
 10
85.50849951228955
 20
275.03781384969346
 10
85.70013384115428
 20
275.42196667153775
 10
85.78062566100824
 20
275.56734087483926
 10
85.84183293336807
 20
275.70448068404363
 10
86.03346898712594
 20
276.0886365931723
 10
86.11398676938498
 20
276.23405743298247
 10
86.17522678541648
 20
276.37126262237007
 10
86.29135178613637
 20
276.6039714455938
 10
83.3584053805098
 20
280.10933454008773
 10
76.94730863046337
 20
277.66445956559846
 10
77.07884869093697
 20
277.45115126273345
 10
77.38875701278697
 20
276.85799943878345
 10
77.56068305528194
 20
276.49393497830613
 10
77.7027596758879
 20
276.11721793681767
 10
77.9382403880879
 20
275.40752656561773
 10
78.05241795008048
 20
275.0087944920084
 10
78.13315572454599
 20
274.6019711962623
  0
LWPOLYLINE
  5
3A
330
17
100
AcDbEntity
  8
default
100
AcDbPolyline
 90
29
 70
0
 10
72.726370175445
 20
264.1422732419443
 10
72.41230662906892
 20
264.02094319119544
 10
71.75026452652541
 20
263.7904828340791
 10
71.67080643275528
 20
263.7568550766907
 10
71.62741829656555
 20
263.68371676344395
 10
71.43720456747974
 20
263.3183167128783
 10
71.20291001491022
 20
262.8564937703323
 10
70.96263769435471
 20
262.37357959404574
 10
70.95274303135044
 20
262.3538024721284
 10
70.70666348375
 20
261.86465318144604
 10
70.46359809111505
 20
261.3755685705959
 10
70.45278772505321
 20
261.3539477608824
 10
70.20671044031327
 20
260.86475132745403
 10
69.96360428345476
 20
260.3755811930765
 10
69.95278785151737
 20
260.35394817110677
 10
69.70671057813885
 20
259.864751608941
 10
69.46360429085298
 20
259.3755812080136
 10
69.45278785155647
 20
259.35394817123387
 10
69.44485649619634
 20
259.33818079977937
 10
69.44703518878669
 20
259.3355768965557
 10
75.19425724586472
 20
261.62815731950104
 10
75.85982040591743
 20
266.10306603116845
 10
75.82368044093944
 20
266.0645716793726
 10
75.38023468584277
 20
265.64650257762924
 10
74.8892195894608
 20
265.285489992432
 10
74.23425718341079
 20
264.862899143982
 10
73.86630829267553
 20
264.6471453363411
 10
73.481309504695
 20
264.46353698969426
 10
72.726370175445
 20
264.1422732419443
  0
LWPOLYLINE
  5
3B
330
17
100
AcDbEntity
  8
default
100
AcDbPolyline
 90
22
 70
0
 10
75.69259437455304
 20
255.40557684393448
 10
75.77712041758448
 20
255.5593681219918
 10
75.8412944817212
 20
255.70325743556674
 10
76.03341895734066
 20
256.0885298476512
 10
76.11393765583622
 20
256.2339594279214
 10
76.1751645375318
 20
256.3711434819718
 10
76.3668004363287
 20
256.7552998524407
 10
76.44729225804907
 20
256.90067406923845
 10
76.5084995111864
 20
257.03781384722316
 10
76.70013383995152
 20
257.42196666936434
 10
76.78062562165071
 20
257.567340803925
 10
76.8418328456004
 20
257.704480516317
 10
76.88990103570407
 20
257.800838674013
 10
76.71554178744555
 20
257.92849815124646
 10
70.7123219439794
 20
255.53379960814416
 10
74.8655000045269
 20
253.44326545273012
 10
74.90842082297503
 20
253.53750438871387
 10
74.96237242997675
 20
253.71275582829048
 10
75.19076601199977
 20
254.31404006746487
 10
75.34850884000114
 20
254.66038752325437
 10
75.4719931182357
 20
254.95124365749498
 10
75.69259437455304
 20
255.40557684393448
  0
LWPOLYLINE
  5
3C
330
17
100
AcDbEntity
  8
default
100
AcDbPolyline
 90
45
 70
0
 10
64.4173249187745
 20
298.53683054230976
 10
64.22496815790505
 20
298.18361562109266
 10
63.944870794760874
 20
297.7289198030443
 10
63.759363677778026
 20
297.46096158903356
 10
63.662079915622876
 20
297.2832132881198
 10
63.57260335280183
 20
297.1265117279732
 10
63.40002665721222
 20
296.8365550838322
 10
63.22021009088068
 20
296.5080101300443
 10
62.94513966063949
 20
296.0625220022562
 10
62.76262655305853
 20
295.79888852481145
 10
62.669813882383636
 20
295.6284613455815
 10
62.611896328532595
 20
295.5250477413216
 10
62.52970348371053
 20
295.3822856829566
 10
62.47523192324796
 20
295.262409106552
 10
62.25630479658626
 20
294.83612407964426
 10
62.08401002149582
 20
294.5368620936067
 10
61.89168361608751
 20
294.1836915164557
 10
61.611843071888636
 20
293.72935401054025
 10
61.42941804334789
 20
293.4657905271172
 10
61.33651221487429
 20
293.2951867819193
 10
61.27856388532782
 20
293.1917165025124
 10
61.19637084433274
 20
293.0489538871151
 10
61.141898652559874
 20
292.9290759116605
 10
60.922971463848484
 20
292.50279074769963
 10
60.75067668867873
 20
292.2035287612257
 10
60.558350282766426
 20
291.8503581831449
 10
60.278509738555414
 20
291.3960206772071
 10
60.09608471001446
 20
291.13245719378375
 10
60.00317888154074
 20
290.96185344858566
 10
59.94523055199471
 20
290.8583831691795
 10
59.86303751100936
 20
290.71562055379906
 10
59.808565319248665
 20
290.59574257836874
 10
59.58963813159778
 20
290.1694574162424
 10
59.417343381027294
 20
289.87019547219666
 10
59.22956499388189
 20
289.52537644254306
 10
67.21111294068396
 20
287.96509121451527
 10
70.15682194614783
 20
293.50747490581125
 10
65.34176125843078
 20
299.82341243093833
 10
65.08328940135264
 20
299.77562235857886
 10
65.00314721569876
 20
299.6284613455531
 10
64.94522966078351
 20
299.52504773944594
 10
64.86303677796042
 20
299.3822856152188
 10
64.80856517014657
 20
299.26240894432095
 10
64.58963647224029
 20
298.83612121756926
 10
64.4173249187745
 20
298.53683054230976
  0
LWPOLYLINE
  5
3D
330
17
100
AcDbEntity
  8
default
100
AcDbPolyline
 90
37
 70
0
 10
89.0767445482218
 20
281.82986248005795
 10
89.24906521069678
 20
282.1293185710237
 10
89.44161793174064
 20
282.48291617793814
 10
89.72148921452262
 20
282.9373108226902
 10
89.90389442642524
 20
283.20084602544887
 10
89.99677220729224
 20
283.3714037868332
 10
90.05421582773032
 20
283.4740004270284
 10
90.1323231605619
 20
283.60973410055414
 10
90.18184799513998
 20
283.71969528050937
 10
90.36713651230791
 20
284.0894439846466
 10
90.44757756112969
 20
284.23464314325014
 10
90.50860357288457
 20
284.371360900089
 10
90.70073871151995
 20
284.7563795171919
 10
90.78524183691853
 20
284.9089108788158
 10
90.85149056152461
 20
285.0560045135605
 10
91.07674454881902
 20
285.4965291481172
 10
91.2490652112132
 20
285.7959852386431
 10
91.44161793175273
 20
286.1495828446271
 10
91.72148921452265
 20
286.6039774893569
 10
91.90389442642532
 20
286.8675126921156
 10
91.99677220729232
 20
287.0380704534999
 10
92.05421582773022
 20
287.14066709369484
 10
92.13232316056178
 20
287.27640076722054
 10
92.18184799513978
 20
287.38636194717566
 10
92.3671365123081
 20
287.75611065131363
 10
92.44757756112966
 20
287.90130980991677
 10
92.46317815035862
 20
287.936260112311
 10
86.55487102689222
 20
284.84276060480624
 10
86.14498688839376
 20
283.01226527569816
 10
88.34644202964171
 20
280.3811569843396
 10
88.36680336623829
 20
280.4219724155534
 10
88.44732087245005
 20
280.56739250311574
 10
88.50856018271774
 20
280.70459609961677
 10
88.70073766866966
 20
281.08971036899493
 10
88.78524106403957
 20
281.24224248331785
 10
88.85149049822563
 20
281.3893377057628
 10
89.0767445482218
 20
281.82986248005795
  0
LWPOLYLINE
  5
3E
330
17
100
AcDbEntity
  8
default
100
AcDbPolyline
 90
27
 70
0
 10
116.01672037038645
 20
327.02599755549886
 10
116.22721343580318
 20
327.36705742702236
 10
116.41046144560846
 20
327.64307290281755
 10
116.68338738136748
 20
328.02599812370374
 10
116.89388013646096
 20
328.3670574823961
 10
117.07712811230132
 20
328.64307290304805
 10
117.35005404826259
 20
329.02599812407647
 10
117.56054680313643
 20
329.36705748241036
 10
117.74379477896791
 20
329.64307290304794
 10
118.01672071492918
 20
330.02599812407635
 10
118.22721346980316
 20
330.3670574824105
 10
118.41046144563452
 20
330.6430729030479
 10
118.68338738160084
 20
331.0259981240834
 10
118.7779838173059
 20
331.17927180650224
 10
118.47964052390307
 20
336.0648865699768
 10
107.29031706461683
 20
338.9371821866371
 10
107.08458641730249
 20
338.8683220236562
 10
101.92639928124845
 20
320.3311073812656
 10
102.3872428345494
 20
319.83532810304314
 10
108.54904816718772
 20
318.22745277173817
 10
114.75148529825022
 20
325.1354486593508
 10
114.89038617197367
 20
325.361229455259
 10
115.07712843557069
 20
325.64297126313994
 10
115.34994281484975
 20
326.0258105561863
 10
115.56052389956331
 20
326.36701990964394
 10
115.74379475364773
 20
326.64307256737163
 10
116.01672037038645
 20
327.02599755549886
  0
LWPOLYLINE
  5
3F
330
17
100
AcDbEntity
  8
default
100
AcDbPolyline
 90
6
 70
0
 10
98.33650880679488
 20
322.3510843520053
 10
102.9469109820202
 20
338.9196989540942
 10
94.24648710153997
 20
340.79479874577373
 10
90.51404039375484
 20
332.7038014526479
 10
96.88319247635081
 20
322.8350951834582
 10
98.33650880679488
 20
322.3510843520053
  0
LWPOLYLINE
  5
40
330
17
100
AcDbEntity
  8
default
100
AcDbPolyline
 90
6
 70
0
 10
119.83242923393846
 20
339.84731325274333
 10
126.00921152252704
 20
345.5297106844373
 10
126.0089811924845
 20
345.5896893888712
 10
110.06280950084329
 20
362.92322370549664
 10
109.27635479485616
 20
342.55705405632034
 10
119.83242923393846
 20
339.84731325274333
  0
LWPOLYLINE
  5
41
330
17
100
AcDbEntity
  8
default
100
AcDbPolyline
 90
43
 70
0
 10
103.5233899701131
 20
357.6273622880303
 10
103.37044607584235
 20
357.4228034706478
 10
102.89677653681453
 20
356.8219174049306
 10
102.52531880358461
 20
356.2968573133389
 10
102.37032987822693
 20
356.0893905448355
 10
101.89683947354379
 20
355.4886773319623
 10
101.5253623510265
 20
354.96357906907804
 10
101.37048187290465
 20
354.75624585210034
 10
100.8983352151797
 20
354.15718315473316
 10
100.53026716993814
 20
353.636062249467
 10
100.38313463322902
 20
353.43828083770404
 10
99.96073118130906
 20
352.898767935501
 10
99.68941232673534
 20
352.49370556932575
 10
99.5722107736689
 20
352.32623857523464
 10
99.22876710700375
 20
351.8562501348157
 10
98.91126739264412
 20
351.3822360479234
 10
98.69409903048131
 20
351.08261832872523
 10
98.23485332418394
 20
350.4959926056057
 10
97.86557725536954
 20
349.9723022056435
 10
97.71635857837184
 20
349.77154466446916
 10
97.29413356980105
 20
349.2322078347215
 10
97.02279685739852
 20
348.8271076184193
 10
96.90578247421303
 20
348.65989235830256
 10
96.5639521450823
 20
348.1920375600729
 10
96.25013763352824
 20
347.7224981831585
 10
96.04077120566174
 20
347.43228341060615
 10
95.63292776344456
 20
346.9075957924422
 10
95.36420114862717
 20
346.5046327485491
 10
95.25810725718148
 20
346.3517817346868
 10
94.97356793347001
 20
345.95770256796413
 10
94.76293065106738
 20
345.618542407923
 10
94.56918147848069
 20
345.3295228999692
 10
94.27298773065303
 20
344.9193024624644
 10
94.303676456213
 20
344.8743152320385
 10
105.27157710678875
 20
342.51053290301934
 10
105.97874762148231
 20
360.8235451757193
 10
105.70786647715396
 20
360.4566468964527
 10
105.54128705397741
 20
360.24335269897006
 10
104.92456186075229
 20
359.49627086850046
 10
104.48754939519311
 20
358.9036205125034
 10
104.38054081178045
 20
358.7637286909201
 10
103.89390224037085
 20
358.1502482272926
 10
103.5233899701131
 20
357.6273622880303
  0
LWPOLYLINE
  5
42
330
17
100
AcDbEntity
  8
default
100
AcDbPolyline
 90
5
 70
0
 10
112.73377212323248
 20
365.92794227972627
 10
127.58637570496649
 20
349.78311963239685
 10
132.6404588483274
 20
359.0594732691534
 10
120.09322606958449
 20
372.6983512486331
 10
112.73377212323248
 20
365.92794227972627
  0
LWPOLYLINE
  5
43
330
17
100
AcDbEntity
  8
default
100
AcDbPolyline
 90
7
 70
0
 10
135.64898407598957
 20
361.6972603253089
 10
141.4589160340838
 20
363.82381068821996
 10
142.3855300634168
 20
369.14477203041315
 10
134.5156796462834
 20
377.69932198151946
 10
126.77604920882732
 20
378.8462864141911
 10
123.03700764849782
 20
375.4065148360096
 10
135.64898407598957
 20
361.6972603253089
  0
LWPOLYLINE
  5
44
330
17
100
AcDbEntity
  8
default
100
AcDbPolyline
 90
6
 70
0
 10
144.83576201321557
 20
372.38942547887564
 10
151.99914261465892
 20
377.1924777915701
 10
152.21883163880557
 20
379.13416413683444
 10
146.33162331627682
 20
385.53357645124197
 10
138.44428688380867
 20
379.336977256462
 10
144.83576201321557
 20
372.38942547887564
  0
LWPOLYLINE
  5
45
330
17
100
AcDbEntity
  8
default
100
AcDbPolyline
 90
6
 70
0
 10
134.95010844431818
 20
381.6786265759729
 10
144.05225179018453
 20
388.8296254728921
 10
136.38559736777097
 20
396.2490332252346
 10
128.66536540165544
 20
388.2546697179787
 10
128.25535029591992
 20
382.6707475236617
 10
134.95010844431818
 20
381.6786265759729
  0
LWPOLYLINE
  5
46
330
17
100
AcDbEntity
  8
default
100
AcDbPolyline
 90
9
 70
0
 10
148.88124780450016
 20
388.6701899250038
 10
154.62036881782115
 20
382.4317489406094
 10
160.73819176292298
 20
386.52712926634825
 10
160.75337811820998
 20
386.54438781209393
 10
161.59590769416275
 20
387.5616018893197
 10
161.69592849779616
 20
387.67864442839357
 10
162.52070109596247
 20
388.6142216136979
 10
156.03738135192543
 20
395.66160875046626
 10
148.88124780450016
 20
388.6701899250038
  0
LWPOLYLINE
  5
47
330
17
100
AcDbEntity
  8
default
100
AcDbPolyline
 90
14
 70
0
 10
168.1467558695552
 20
395.1337395025933
 10
169.46580386781443
 20
396.59875472047133
 10
170.71310889955436
 20
398.0270087663681
 10
170.80962056808897
 20
398.1343537409261
 10
171.8006433069022
 20
399.2051169346366
 10
167.11763104330748
 20
404.29556468268856
 10
158.09504166990519
 20
399.7372475513257
 10
158.1015719450079
 20
399.32589025981724
 10
165.14331567925922
 20
391.6714946455436
 10
165.71178724137434
 20
392.3484585754049
 10
165.81607598646193
 20
392.4687108063799
 10
167.04836095766535
 20
393.8447453650063
 10
168.05298461744175
 20
395.02656049705837
 10
168.1467558695552
 20
395.1337395025933
  0
LWPOLYLINE
  5
48
330
17
100
AcDbEntity
  8
default
100
AcDbPolyline
 90
7
 70
0
 10
139.16831439221278
 20
399.12244373746216
 10
146.5469574430026
 20
391.98175909975544
 10
154.10050354944542
 20
399.3614431284368
 10
154.08773700986058
 20
400.1656372831203
 10
148.25429717777297
 20
406.52244340023026
 10
147.64333659084514
 20
406.53143305517733
 10
139.16831439221278
 20
399.12244373746216
  0
LWPOLYLINE
  5
49
330
17
100
AcDbEntity
  8
default
100
AcDbPolyline
 90
10
 70
0
 10
184.14811059227213
 20
412.374453230761
 10
180.3853281904012
 20
415.60046377405524
 10
170.9413219136186
 20
415.994165008422
 10
169.68276999518275
 20
407.4153138906695
 10
174.5067809805464
 20
402.1716001280304
 10
177.01561199139636
 20
404.8247022401916
 10
179.95246502436086
 20
407.9453855551364
 10
180.0035644302044
 20
407.99888485504175
 10
184.1437478213852
 20
412.26980017904293
 10
184.14811059227213
 20
412.374453230761
  0
LWPOLYLINE
  5
4A
330
17
100
AcDbEntity
  8
default
100
AcDbPolyline
 90
7
 70
0
 10
156.52514181425795
 20
403.4256134778261
 10
165.73743343586102
 20
408.0797703927383
 10
167.09802291262895
 20
417.35415500728413
 10
165.98063838249072
 20
418.45445841550827
 10
157.41928844712675
 20
417.20558023126796
 10
151.68537595495582
 20
408.6995948860422
 10
156.52514181425795
 20
403.4256134778261
  0
LWPOLYLINE
  5
4B
330
17
100
AcDbEntity
  8
default
100
AcDbPolyline
 90
8
 70
0
 10
170.0778791019693
 20
420.0336344279349
 10
179.64998253947124
 20
419.6345930858515
 10
182.2522050011903
 20
429.20067761233076
 10
176.4128097947687
 20
435.5481169321574
 10
171.27121314541526
 20
433.27223083275237
 10
169.11935229367532
 20
431.17974546411585
 10
168.71081280196086
 20
421.3798027955927
 10
170.0778791019693
 20
420.0336344279349
  0
LWPOLYLINE
  5
4C
330
17
100
AcDbEntity
  8
default
100
AcDbPolyline
 90
4
 70
0
 10
159.38722540300563
 20
421.53498543653797
 10
164.74639791576192
 20
422.3167492575012
 10
164.9455217511141
 20
427.09328178464636
 10
159.38722540300563
 20
421.53498543653797
  0
LWPOLYLINE
  5
4D
330
17
100
AcDbEntity
  8
default
100
AcDbPolyline
 90
15
 70
0
 10
194.4669840740248
 20
422.6055498890326
 10
198.83520506793488
 20
426.8303953948213
 10
198.89316597662616
 20
426.8855631110824
 10
198.93746249102878
 20
426.9270544510917
 10
199.07350204093382
 20
427.217809189111
 10
197.17851208150387
 20
430.40665997751057
 10
186.0818424699828
 20
428.0400612899102
 10
183.42280869558454
 20
418.26513150846586
 10
186.61866958625615
 20
415.52516947267577
 10
187.5737438150779
 20
415.85422257507093
 10
187.73546353350451
 20
416.0235112768012
 10
187.8153635134948
 20
416.10525917075813
 10
191.18274631795805
 20
419.47264197522134
 10
191.26821880905746
 20
419.55609635800664
 10
194.4669840740248
 20
422.6055498890326
  0
LWPOLYLINE
  5
4E
330
17
100
AcDbEntity
  8
default
100
AcDbPolyline
 90
31
 70
0
 10
211.09427732607773
 20
438.08284779323066
 10
211.19987309121572
 20
438.1761006178934
 10
212.46029107491657
 20
439.2579708926779
 10
213.87692557626593
 20
440.53008176983127
 10
213.97988779409735
 20
440.6200277256984
 10
215.1575485563212
 20
441.62075588623355
 10
215.34655930776208
 20
441.7902489268124
 10
213.18176819430664
 20
444.32556895166636
 10
209.43610596635426
 20
443.99011436756
 10
209.40491770252427
 20
443.3552626728889
 10
209.22636456878908
 20
442.1515552199755
 10
208.93068725486842
 20
440.9711452150201
 10
208.520733294929
 20
439.82540065164835
 10
208.00045076970864
 20
438.7253556763331
 10
207.3748502843406
 20
437.6816043235324
 10
206.64995671348697
 20
436.70419848934625
 10
205.8327511785022
 20
435.80255112626224
 10
204.93110381541823
 20
434.9853455912775
 10
203.9536979812321
 20
434.2604520204239
 10
202.90994662843138
 20
433.6348515350559
 10
201.80990165311613
 20
433.1145690098355
 10
200.66415708974435
 20
432.70461504989606
 10
200.4916057618429
 20
432.6613931922931
 10
202.12442402908096
 20
429.9137196267167
 10
204.32544927559445
 20
431.9855676193249
 10
204.41574013616355
 20
432.0684952926376
 10
206.16821034123956
 20
433.6388827957931
 10
207.99195232666656
 20
435.31575251884897
 10
208.08772249871478
 20
435.40156370436733
 10
209.50482458730502
 20
436.638822854777
 10
211.09427732607773
 20
438.08284779323066
  0
LWPOLYLINE
  5
4F
330
17
100
AcDbEntity
  8
default
100
AcDbPolyline
 90
14
 70
0
 10
185.1711839530617
 20
431.93580172676593
 10
191.81554566663564
 20
433.35285191027765
 10
191.21930755514666
 20
433.6348515350559
 10
190.17555620234594
 20
434.2604520204239
 10
189.19815036815982
 20
434.9853455912775
 10
188.29650300507583
 20
435.80255112626224
 10
187.47929747009107
 20
436.70419848934625
 10
186.75440389923745
 20
437.6816043235324
 10
186.1288034138694
 20
438.7253556763331
 10
185.60852088864905
 20
439.82540065164835
 10
185.2875888622993
 20
440.72234557799186
 10
179.4022541604936
 20
438.6771694011986
 10
179.26416324358433
 20
438.3567501618527
 10
185.1711839530617
 20
431.93580172676593
  0
LWPOLYLINE
  5
50
330
17
100
AcDbEntity
  8
default
100
AcDbPolyline
 90
24
 70
0
 10
222.72844864165134
 20
448.1811897274363
 10
223.76543695625534
 20
449.0765307906592
 10
223.90542695646582
 20
449.19301708040393
 10
224.76777790843607
 20
449.8843967931424
 10
225.77278333116976
 20
450.7498744704626
 10
225.9104339655922
 20
450.8641895730073
 10
226.76909307392003
 20
451.5516984718765
 10
227.7579641414869
 20
452.40102621965275
 10
227.93105718890428
 20
452.5430837323141
 10
228.7237576544374
 20
453.16447596289083
 10
229.56829574314503
 20
453.8700811622705
 10
229.73855766530363
 20
454.0061437482192
 10
230.43778805887268
 20
454.5403742250952
 10
230.90610499051434
 20
454.9301661208475
 10
227.25832596607506
 20
457.5890720579773
 10
219.27390508446842
 20
454.12542131962255
 10
216.33807407971472
 20
446.7890500272624
 10
218.35395369566436
 20
444.4281294160388
 10
219.19789561647784
 20
445.1838486798102
 10
219.31879671267063
 20
445.28867410891235
 10
220.42147092134783
 20
446.2142408527241
 10
221.63215958239184
 20
447.2815421626324
 10
221.77653396883477
 20
447.4040385584431
 10
222.72844864165134
 20
448.1811897274363
  0
LWPOLYLINE
  5
51
330
17
100
AcDbEntity
  8
default
100
AcDbPolyline
 90
15
 70
0
 10
203.20130440246004
 20
455.3318657616934
 10
203.9536979812321
 20
454.88089840552703
 10
204.93110381541823
 20
454.1560048346734
 10
205.8327511785022
 20
453.3387992996887
 10
206.64995671348694
 20
452.43715193660466
 10
207.3748502843406
 20
451.45974610241853
 10
208.0004507697086
 20
450.4159947496178
 10
208.52073329492896
 20
449.31594977430257
 10
208.93068725486842
 20
448.1702052109308
 10
208.98197512976742
 20
447.96545253694
 10
212.63123465096578
 20
448.29227347299457
 10
215.39788719685748
 20
455.205883378163
 10
208.51562992483377
 20
462.68691675085574
 10
206.06699604401365
 20
462.13282757950947
 10
203.20130440246004
 20
455.3318657616934
  0
LWPOLYLINE
  5
52
330
17
100
AcDbEntity
  8
default
100
AcDbPolyline
 90
24
 70
0
 10
237.91149274262156
 20
460.5453857709385
 10
238.07815497795593
 20
460.6781800227853
 10
238.77440890061268
 20
461.2090889769086
 10
239.56600089035453
 20
461.8653080655158
 10
239.7848360784331
 20
462.03668413695124
 10
240.41808438608717
 20
462.5047971787332
 10
241.0827770895537
 20
463.0353329169259
 10
241.2296960604606
 20
463.14820687338306
 10
241.82567391720957
 20
463.58876522355945
 10
242.58838220839635
 20
464.2210044894372
 10
242.74945995342742
 20
464.34902917497215
 10
243.4423502720768
 20
464.87684545608346
 10
243.64797025202046
 20
465.04728246262806
 10
237.77801164379343
 20
472.02567036962137
 10
229.56918665301055
 20
464.6918039987795
 10
229.52402209071442
 20
460.88742767786607
 10
234.1455731748059
 20
457.5187286599796
 10
234.57831094017072
 20
457.87888769417293
 10
234.74318479682026
 20
458.0103246491252
 10
235.4390082449118
 20
458.54142874484785
 10
236.24497717229772
 20
459.21222054102446
 10
236.40986264363576
 20
459.3436663397698
 10
237.10571674837928
 20
459.8747905309682
 10
237.91149274262156
 20
460.5453857709385
  0
LWPOLYLINE
  5
53
330
17
100
AcDbEntity
  8
default
100
AcDbPolyline
 90
12
 70
0
 10
211.5907911946997
 20
465.2522702375427
 10
218.23177805449814
 20
458.03349849395454
 10
225.5274315448478
 20
461.1983611653559
 10
225.5705031468533
 20
464.8264397867024
 10
217.366732389511
 20
473.7439621044041
 10
217.2567868904654
 20
473.65631652354364
 10
216.56098536479018
 20
473.1252324595196
 10
215.75502162463843
 20
472.4544448706363
 10
215.59015970922005
 20
472.3230170301463
 10
214.8943671760782
 20
471.7919332226537
 10
214.58932046802872
 20
471.5380352593285
 10
211.5907911946997
 20
465.2522702375427
  0
LWPOLYLINE
  5
54
330
17
100
AcDbEntity
  8
default
100
AcDbPolyline
 90
20
 70
0
 10
248.63020955184788
 20
468.8586652799505
 10
249.1553337209963
 20
469.230164543159
 10
249.75605644311193
 20
469.7036624432437
 10
249.96354293730045
 20
469.858665323643
 10
250.48866706885536
 20
470.23016455469565
 10
251.08938977679762
 20
470.7036624435227
 10
251.29687627065476
 20
470.85866532365964
 10
251.82200040237066
 20
471.23016455482326
 10
252.42272310999707
 20
471.70366244331535
 10
252.53175652261007
 20
471.7851159034712
 10
254.39027873426676
 20
473.6208928739652
 10
249.4640365554951
 20
480.6999337291345
 10
247.80507245240733
 20
480.71088394802064
 10
240.7566662672907
 20
474.69849791005254
 10
246.81945209383454
 20
467.4908710566081
 10
247.08919995321372
 20
467.7035093365182
 10
247.29684005962358
 20
467.8586349000528
 10
247.82198986057557
 20
468.23015610996737
 10
248.4227225596703
 20
468.70366200470295
 10
248.63020955184788
 20
468.8586652799505
  0
LWPOLYLINE
  5
55
330
17
100
AcDbEntity
  8
default
100
AcDbPolyline
 90
20
 70
0
 10
225.08998063436349
 20
479.792046279356
 10
224.87668643688073
 20
479.6254668561794
 10
224.24701591046218
 20
479.1605808581119
 10
223.5838158110277
 20
478.6313225360735
 10
223.43483101932298
 20
478.51694081297666
 10
222.83852259565538
 20
478.0766826034203
 10
222.09010773892638
 20
477.4588206075885
 10
221.8767323523585
 20
477.29217152066406
 10
221.77848416295498
 20
477.2196337018643
 10
220.74306381959468
 20
475.98194276401773
 10
227.7171811517328
 20
468.40105724241585
 10
235.17529180739075
 20
475.06422608625144
 10
228.4427979142058
 20
482.38246623765656
 10
227.91052986303774
 20
481.9628872577699
 10
227.70597104531666
 20
481.80994336323175
 10
227.18308510604513
 20
481.43943109296595
 10
226.56960464241325
 20
480.95279252155296
 10
226.42971282083067
 20
480.8457839381408
 10
225.83706246483362
 20
480.4087714725815
 10
225.08998063436349
 20
479.792046279356
  0
LWPOLYLINE
  5
56
330
17
100
AcDbEntity
  8
default
100
AcDbPolyline
 90
37
 70
0
 10
260.38226183196485
 20
477.5779510837141
 10
260.8564030307964
 20
477.89553155274024
 10
261.3262892098092
 20
478.2388462416812
 10
261.4976581577595
 20
478.3586398224591
 10
261.9052196558902
 20
478.6310354981384
 10
262.43207266488224
 20
479.0406035649252
 10
262.7224809950581
 20
479.2501204583936
 10
263.1921761255463
 20
479.5640390735321
 10
263.6599421720553
 20
479.9057508351533
 10
263.8310346507721
 20
480.0253407678086
 10
264.23856677583973
 20
480.297713014011
 10
264.76540661233133
 20
480.7072707140786
 10
265.0558144294169
 20
480.91678720015125
 10
265.5255099518081
 20
481.2307060644343
 10
265.99327568832274
 20
481.57241743476925
 10
266.1643940585661
 20
481.6920246141089
 10
266.5719988316026
 20
481.9644416099656
 10
267.09868090519257
 20
482.3738351035206
 10
267.39314672506316
 20
482.5860394265797
 10
267.8699082511716
 20
482.9039760312574
 10
268.3295963003935
 20
483.235830934632
 10
268.6241791952276
 20
483.4329967361104
 10
268.9704997737146
 20
483.64741649744076
 10
269.35645535316667
 20
483.92260359456304
 10
269.62713804770004
 20
484.10262223424985
 10
269.6656309537388
 20
484.12645460229055
 10
266.07655636547133
 20
487.95560296066105
 10
256.39937100280076
 20
487.31670741178095
 10
252.97289608838037
 20
482.6605223119259
 10
257.8250160162865
 20
475.68799559606964
 10
257.8270646228966
 20
475.68942930095074
 10
258.2321941881323
 20
475.96078942462196
 10
258.77154408256416
 20
476.38302478432047
 10
258.9723021818347
 20
476.53224389822975
 10
259.49599287142473
 20
476.9015201712742
 10
260.0826181417326
 20
477.3607653890486
 10
260.38226183196485
 20
477.5779510837141
  0
LWPOLYLINE
  5
57
330
17
100
AcDbEntity
  8
default
100
AcDbPolyline
 90
15
 70
0
 10
237.03060436481212
 20
488.8030661195481
 10
236.50948349710836
 20
488.4349981063983
 10
235.91042081434725
 20
487.9628514603567
 10
235.7030875692499
 20
487.80797096239786
 10
235.41499915442458
 20
487.6041648153736
 10
231.74764601700008
 20
484.6981494789943
 10
238.15320579055697
 20
477.73528765235096
 10
244.3447008030489
 20
483.01671684207395
 10
238.94573509529056
 20
490.1947965867648
 10
238.80797714245998
 20
490.10272539854566
 10
238.34010877186213
 20
489.7608848238657
 10
238.1729182276103
 20
489.64388688288966
 10
237.76788512391616
 20
489.3725913701926
 10
237.22838524836436
 20
488.9501982404742
 10
237.03060436481212
 20
488.8030661195481
  0
LWPOLYLINE
  5
58
330
17
100
AcDbEntity
  8
default
100
AcDbPolyline
 90
26
 70
0
 10
248.03376171871548
 20
496.5605697052557
 10
247.69285216288682
 20
496.35016516534614
 10
247.3098408191906
 20
496.07712755734525
 10
247.039474388489
 20
495.8973379419319
 10
246.7057075425679
 20
495.6906947706046
 10
246.31454036751362
 20
495.4083062889242
 10
246.16196403141686
 20
495.30241369601964
 10
245.75895792680146
 20
495.0336659547447
 10
245.2344415219934
 20
494.62599714637975
 10
244.94016941972387
 20
494.4139433980443
 10
244.46357520914742
 20
494.09611837714385
 10
244.00381043270087
 20
493.7641518543723
 10
243.71479092537692
 20
493.5704026822431
 10
243.37563076501755
 20
493.35976539964594
 10
242.9815515984701
 20
493.07522607615823
 10
242.8287005457445
 20
492.96913215883177
 10
242.4257372334265
 20
492.700405370539
 10
242.19891678705642
 20
492.5240962681132
 10
248.07687895791605
 20
484.7091769883409
 10
249.50718933250755
 20
484.69973602937534
 10
253.0195785467513
 20
489.47266877628863
 10
249.25962343614765
 20
497.37718910099886
 10
249.0337242044649
 20
497.22721350380306
 10
248.69266535931908
 20
497.0167210594712
 10
248.30973990538695
 20
496.74379480428587
 10
248.03376171871548
 20
496.5605697052557
  0
LWPOLYLINE
  5
59
330
17
100
AcDbEntity
  8
default
100
AcDbPolyline
 90
19
 70
0
 10
274.96627577175354
 20
487.77278647241013
 10
275.30733518201606
 20
487.9832792655154
 10
275.69026042979965
 20
488.25620522054606
 10
275.96627590628987
 20
488.4394532308482
 10
276.3073357778273
 20
488.6499462962752
 10
276.69026076596214
 20
488.9228719130193
 10
276.6914927964238
 20
488.92368985578725
 10
279.4319163081236
 20
491.69557744218037
 10
277.91395769361407
 20
503.76510703610256
 10
276.79656988196075
 20
504.5461638853885
 10
268.6235802313313
 20
501.6355070085265
 10
268.87080272566527
 20
490.82355781970546
 10
272.9755971222848
 20
486.44419307335846
 10
273.3040199243148
 20
486.6475276171472
 10
273.6898895468937
 20
486.92260280873916
 10
273.96622113179745
 20
487.1060798119241
 10
274.30731554708893
 20
487.31659844447074
 10
274.69025932657553
 20
487.5895377610102
 10
274.96627577175354
 20
487.77278647241013
  0
LWPOLYLINE
  5
5A
330
17
100
AcDbEntity
  8
default
100
AcDbPolyline
 90
14
 70
0
 10
254.0337241490772
 20
500.5605468031367
 10
253.6926647907435
 20
500.35005404826296
 10
253.30973956971462
 20
500.07712811230135
 10
253.0337241490772
 20
499.89388013647
 10
252.6926647907435
 20
499.6833873815963
 10
252.61756334544947
 20
499.6298596139714
 10
256.56262401118875
 20
491.33619352057576
 10
264.8455314631574
 20
491.8830377222039
 10
264.6167223597877
 20
501.88970159739256
 10
255.08358480372297
 20
501.2603162001376
 10
255.03372414907707
 20
501.22721346980325
 10
254.69266479074315
 20
501.01672071492936
 10
254.30973956971442
 20
500.7437947789679
 10
254.0337241490772
 20
500.5605468031367
  0
LWPOLYLINE
  5
5B
330
17
100
AcDbEntity
  8
default
100
AcDbPolyline
 90
38
 70
0
 10
284.8293068364015
 20
494.2123698580874
 10
285.1642470799933
 20
494.39661101498757
 10
285.4584249445195
 20
494.5718538559234
 10
285.60748597793196
 20
494.65721562839525
 10
285.77693769422547
 20
494.7504262217021
 10
286.052958368833
 20
494.9444522702248
 10
286.30845120565033
 20
495.1126128859303
 10
286.6442073787077
 20
495.3191666504492
 10
287.0240670684187
 20
495.58980777373716
 10
287.30549243162426
 20
495.7763207785708
 10
287.6547922484501
 20
495.9912064542507
 10
288.0304304152956
 20
496.2552576500205
 10
288.49597361061666
 20
496.5457032610701
 10
288.83091378929424
 20
496.72994437387416
 10
289.125091612846
 20
496.90518719024794
 10
289.27415264462707
 20
496.990548961747
 10
289.4436043609028
 20
497.0837595550429
 10
289.71962503549946
 20
497.277785603558
 10
289.9751178723171
 20
497.44594621926376
 10
290.31087404537476
 20
497.65249998378283
 10
290.6907337350856
 20
497.92314110707065
 10
290.97215909830504
 20
498.10965411191273
 10
291.3214589155196
 20
498.32453978783013
 10
291.69709708225207
 20
498.5885909834148
 10
292.16264036101626
 20
498.87903664024634
 10
292.49758175494617
 20
499.06327841313964
 10
292.7917600466033
 20
499.23852127534855
 10
292.9408762553781
 20
499.32391328305937
 10
293.11048770667577
 20
499.41720883286433
 10
293.11419776809953
 20
499.41981626463206
 10
288.90404233243316
 20
503.49316996568814
 10
282.0366912409663
 20
503.03978193178773
 10
283.2745431684453
 20
493.19742501401953
 10
283.3570287375784
 20
493.2562048982763
 10
283.6387705447619
 20
493.44294716137483
 10
283.98810556779057
 20
493.6578588846033
 10
284.3637625538228
 20
493.9219234698837
 10
284.8293068364015
 20
494.2123698580874
  0
LWPOLYLINE
  5
5C
330
17
100
AcDbEntity
  8
default
100
AcDbPolyline
 90
37
 70
0
 10
273.5039522358666
 20
513.1209152460805
 10
273.1690545960656
 20
512.9367032853183
 10
272.87490408541015
 20
512.7614772053287
 10
272.7257903037593
 20
512.6760866473062
 10
272.5561789196565
 20
512.5827911387092
 10
272.28024382204467
 20
512.388863907625
 10
272.01901290692877
 20
512.2172129811054
 10
271.67514702728727
 20
512.0063506746725
 10
271.30250291019064
 20
511.74445632910425
 10
270.837285569199
 20
511.4542485794132
 10
270.50238792939837
 20
511.2700366186514
 10
270.2082374187438
 20
511.0948105386622
 10
270.0591236370927
 20
511.00941998063956
 10
269.8895122529896
 20
510.91612447204244
 10
269.6135771553781
 20
510.72219724095845
 10
269.3523462402768
 20
510.55054631444773
 10
269.0084803610242
 20
510.3396840082516
 10
268.63583624381505
 20
510.07778966249924
 10
268.1706189862952
 20
509.78758195860433
 10
267.83572256258344
 20
509.6033706583694
 10
267.54157252035213
 20
509.4281446242721
 10
267.3925139982512
 20
509.3427843477977
 10
267.22306291037705
 20
509.2495741001676
 10
266.9470420568679
 20
509.055547807932
 10
266.69158680894384
 20
508.8874102141086
 10
266.35598020831463
 20
508.6809442545978
 10
266.1719150432945
 20
508.54977800173106
 10
266.91751678008586
 20
505.27401346713305
 10
275.15960329491645
 20
508.20927789621055
 10
275.4368374675745
 20
514.3681679696463
 10
275.3924569704263
 20
514.3427533139729
 10
275.22284558632265
 20
514.2494578053755
 10
274.9469104887111
 20
514.0555305742915
 10
274.6856795735947
 20
513.8838796477716
 10
274.34181369395327
 20
513.6730173413388
 10
273.9691695768573
 20
513.4111229957709
 10
273.5039522358666
 20
513.1209152460805
  0
LWPOLYLINE
  5
5D
330
17
100
AcDbEntity
  8
default
100
AcDbPolyline
 90
19
 70
0
 10
279.67019421403
 20
510.2902339437157
 10
279.97324238103
 20
511.3652890810157
 10
280.57023052458
 20
512.4357350398158
 10
281.37952781533
 20
513.4045607290657
 10
282.15389285408
 20
514.0916995027156
 10
282.78990469623
 20
514.5256274748656
 10
283.34568813933
 20
514.8391703979655
 10
283.90370613033
 20
515.1500194550656
 10
284.51406288992996
 20
515.5089977776156
 10
285.0951907692621
 20
515.8668561660097
 10
284.3277833437085
 20
517.2215197220552
 10
279.5551441665739
 20
516.9064262509346
 10
279.14456637296826
 20
507.7852436956018
 10
280.357201567851
 20
506.93760868906975
 10
281.0348484921494
 20
506.9823474831828
 10
280.46826495098
 20
507.4821361433656
 10
279.92523488188
 20
508.2994885715656
 10
279.65858527753005
 20
509.23367561141566
 10
279.67019421403
 20
510.2902339437157
  0
LWPOLYLINE
  5
5E
330
17
100
AcDbEntity
  8
default
100
AcDbPolyline
 90
65
 70
0
 10
91.29586408137646
 20
310.26141151491066
 10
91.09088710140674
 20
310.8342837965966
 10
90.83074583879656
 20
311.3843062842542
 10
90.51794559611255
 20
311.9061819606545
 10
90.15549881068573
 20
312.39488487774764
 10
89.74689604319336
 20
312.8457085592896
 10
89.29607236165137
 20
313.254311326782
 10
88.8073694445583
 20
313.6167581122088
 10
88.28549376815795
 20
313.92955835489283
 10
87.73547128050032
 20
314.189699617503
 10
87.16259899881443
 20
314.3946765974727
 10
86.57239399633676
 20
314.54251525443306
 10
85.97054026988003
 20
314.6317918213006
 10
85.36283399983677
 20
314.661646515933
 10
84.75512772979349
 20
314.6317918213006
 10
84.15327400333678
 20
314.54251525443306
 10
83.5630690008591
 20
314.3946765974727
 10
82.99019671917321
 20
314.189699617503
 10
82.44017423151558
 20
313.92955835489283
 10
81.91829855511523
 20
313.6167581122088
 10
81.42959563802216
 20
313.254311326782
 10
80.97877195648017
 20
312.8457085592896
 10
80.57016918898779
 20
312.3948848777476
 10
80.20772240356098
 20
311.9061819606545
 10
79.89492216087696
 20
311.3843062842542
 10
79.63478089826678
 20
310.8342837965966
 10
79.42980391829707
 20
310.26141151491066
 10
79.28196526133674
 20
309.671206512433
 10
79.19268869446914
 20
309.06935278597626
 10
79.16283399983676
 20
308.461646515933
 10
79.19268869446914
 20
307.85394024588976
 10
79.28196526133674
 20
307.252086519433
 10
79.42980391829707
 20
306.66188151695536
 10
79.63478089826678
 20
306.08900923526943
 10
79.89492216087696
 20
305.53898674761183
 10
80.20772240356098
 20
305.0171110712115
 10
80.57016918898779
 20
304.52840815411844
 10
80.97877195648017
 20
304.0775844725764
 10
81.42959563802216
 20
303.66898170508404
 10
81.91829855511523
 20
303.3065349196572
 10
82.44017423151558
 20
302.9937346769732
 10
82.99019671917321
 20
302.73359341436304
 10
83.5630690008591
 20
302.5286164343933
 10
84.15327400333678
 20
302.38077777743297
 10
84.75512772979349
 20
302.2915012105654
 10
85.36283399983677
 20
302.261646515933
 10
85.97054026988005
 20
302.2915012105654
 10
86.57239399633676
 20
302.38077777743297
 10
87.16259899881443
 20
302.5286164343933
 10
87.73547128050032
 20
302.73359341436304
 10
88.28549376815795
 20
302.9937346769732
 10
88.8073694445583
 20
303.3065349196572
 10
89.29607236165137
 20
303.66898170508404
 10
89.74689604319336
 20
304.0775844725764
 10
90.15549881068574
 20
304.52840815411844
 10
90.51794559611255
 20
305.0171110712115
 10
90.83074583879657
 20
305.53898674761183
 10
91.09088710140675
 20
306.08900923526943
 10
91.29586408137646
 20
306.66188151695536
 10
91.4437027383368
 20
307.252086519433
 10
91.53297930520439
 20
307.85394024588976
 10
91.56283399983677
 20
308.461646515933
 10
91.53297930520439
 20
309.06935278597626
 10
91.4437027383368
 20
309.671206512433
 10
91.29586408137646
 20
310.26141151491066
  0
LWPOLYLINE
  5
5F
330
17
100
AcDbEntity
  8
default
100
AcDbPolyline
 90
65
 70
0
 10
203.23477239715663
 20
445.1783814830187
 10
203.14549583028904
 20
445.78023520947545
 10
202.99765717332872
 20
446.3704402119531
 10
202.792680193359
 20
446.94331249363904
 10
202.5325389307488
 20
447.49333498129664
 10
202.2197386880648
 20
448.01521065769697
 10
201.857291902638
 20
448.5039135747901
 10
201.44868913514563
 20
448.95473725633207
 10
200.99786545360362
 20
449.36334002382443
 10
200.50916253651056
 20
449.72578680925125
 10
199.9872868601102
 20
450.0385870519353
 10
199.43726437245257
 20
450.29872831454543
 10
198.86439209076667
 20
450.50370529451516
 10
198.274187088289
 20
450.6515439514755
 10
197.6723333618323
 20
450.74082051834307
 10
197.06462709178902
 20
450.77067521297545
 10
196.45692082174574
 20
450.74082051834307
 10
195.85506709528903
 20
450.6515439514755
 10
195.26486209281134
 20
450.50370529451516
 10
194.69198981112547
 20
450.29872831454543
 10
194.14196732346784
 20
450.0385870519353
 10
193.62009164706748
 20
449.72578680925125
 10
193.13138872997442
 20
449.36334002382443
 10
192.6805650484324
 20
448.95473725633207
 10
192.27196228094004
 20
448.50391357479003
 10
191.90951549551323
 20
448.01521065769697
 10
191.59671525282923
 20
447.49333498129664
 10
191.33657399021905
 20
446.94331249363904
 10
191.13159701024932
 20
446.3704402119531
 10
190.983758353289
 20
445.78023520947545
 10
190.8944817864214
 20
445.1783814830187
 10
190.86462709178903
 20
444.57067521297546
 10
190.8944817864214
 20
443.9629689429322
 10
190.983758353289
 20
443.36111521647547
 10
191.13159701024932
 20
442.7709102139978
 10
191.33657399021905
 20
442.1980379323119
 10
191.59671525282923
 20
441.6480154446543
 10
191.90951549551323
 20
441.12613976825395
 10
192.27196228094004
 20
440.6374368511609
 10
192.6805650484324
 20
440.18661316961885
 10
193.13138872997442
 20
439.7780104021265
 10
193.62009164706748
 20
439.41556361669967
 10
194.14196732346784
 20
439.10276337401564
 10
194.69198981112547
 20
438.8426221114055
 10
195.26486209281134
 20
438.63764513143576
 10
195.85506709528903
 20
438.4898064744754
 10
196.45692082174574
 20
438.40052990760785
 10
197.06462709178902
 20
438.37067521297547
 10
197.6723333618323
 20
438.40052990760785
 10
198.274187088289
 20
438.4898064744754
 10
198.8643920907667
 20
438.63764513143576
 10
199.43726437245257
 20
438.8426221114055
 10
199.9872868601102
 20
439.10276337401564
 10
200.50916253651056
 20
439.41556361669967
 10
200.99786545360362
 20
439.7780104021265
 10
201.44868913514563
 20
440.18661316961885
 10
201.857291902638
 20
440.6374368511609
 10
202.2197386880648
 20
441.12613976825395
 10
202.5325389307488
 20
441.6480154446543
 10
202.792680193359
 20
442.1980379323119
 10
202.99765717332872
 20
442.7709102139978
 10
203.14549583028904
 20
443.36111521647547
 10
203.23477239715663
 20
443.9629689429322
 10
203.264627091789
 20
444.57067521297546
 10
203.23477239715663
 20
445.1783814830187
  0
ENDSEC
  0
SECTION
  2
OBJECTS
  0
DICTIONARY
  5
A
330
0
100
AcDbDictionary
280
0
281
1
  3
ACAD_COLOR
350
B
  3
ACAD_GROUP
350
C
  3
ACAD_LAYOUT
350
D
  3
ACAD_MATERIAL
350
E
  3
ACAD_MLEADERSTYLE
350
F
  3
ACAD_MLINESTYLE
350
10
  3
ACAD_PLOTSETTINGS
350
11
  3
ACAD_PLOTSTYLENAME
350
12
  3
ACAD_SCALELIST
350
14
  3
ACAD_TABLESTYLE
350
15
  3
ACAD_VISUALSTYLE
350
16
  3
EZDXF_META
350
2D
  0
DICTIONARY
  5
B
330
A
100
AcDbDictionary
280
0
281
1
  0
DICTIONARY
  5
C
330
A
100
AcDbDictionary
280
0
281
1
  0
DICTIONARY
  5
D
330
A
100
AcDbDictionary
280
0
281
1
  3
Model
350
1A
  3
Layout1
350
1E
  0
DICTIONARY
  5
E
330
A
100
AcDbDictionary
280
0
281
1
  3
ByBlock
350
1F
  3
ByLayer
350
20
  3
Global
350
21
  0
DICTIONARY
  5
F
330
A
100
AcDbDictionary
280
0
281
1
  3
Standard
350
2C
  0
DICTIONARY
  5
10
330
A
100
AcDbDictionary
280
0
281
1
  3
Standard
350
22
  0
DICTIONARY
  5
11
330
A
100
AcDbDictionary
280
0
281
1
  0
ACDBDICTIONARYWDFLT
  5
12
330
A
100
AcDbDictionary
280
0
281
1
  3
Normal
350
13
100
AcDbDictionaryWithDefault
340
13
  0
ACDBPLACEHOLDER
  5
13
330
12
  0
DICTIONARY
  5
14
330
A
100
AcDbDictionary
280
0
281
1
  0
DICTIONARY
  5
15
330
A
100
AcDbDictionary
280
0
281
1
  0
DICTIONARY
  5
16
330
A
100
AcDbDictionary
280
0
281
1
  0
LAYOUT
  5
1A
330
D
100
AcDbPlotSettings
  1

  2
Adobe PDF
  4
A3
  6

 40
7.5
 41
20.0
 42
7.5
 43
20.0
 44
420.0
 45
297.0
 46
0.0
 47
0.0
 48
0.0
 49
0.0
140
0.0
141
0.0
142
1.0
143
1.0
 70
1024
 72
1
 73
0
 74
5
  7

 75
16
 76
0
 77
2
 78
300
147
1.0
148
0.0
149
0.0
100
AcDbLayout
  1
Model
 70
1
 71
0
 10
0.0
 20
0.0
 11
420.0
 21
297.0
 12
0.0
 22
0.0
 32
0.0
 14
1e+20
 24
1e+20
 34
1e+20
 15
-1e+20
 25
-1e+20
 35
-1e+20
146
0.0
 13
0.0
 23
0.0
 33
0.0
 16
1.0
 26
0.0
 36
0.0
 17
0.0
 27
1.0
 37
0.0
 76
1
330
17
  0
LAYOUT
  5
1E
330
D
100
AcDbPlotSettings
  1

  2
Adobe PDF
  4
A3
  6

 40
7.5
 41
20.0
 42
7.5
 43
20.0
 44
420.0
 45
297.0
 46
0.0
 47
0.0
 48
0.0
 49
0.0
140
0.0
141
0.0
142
1.0
143
1.0
 70
0
 72
1
 73
0
 74
5
  7

 75
16
 76
0
 77
2
 78
300
147
1.0
148
0.0
149
0.0
100
AcDbLayout
  1
Layout1
 70
1
 71
1
 10
0.0
 20
0.0
 11
420.0
 21
297.0
 12
0.0
 22
0.0
 32
0.0
 14
1e+20
 24
1e+20
 34
1e+20
 15
-1e+20
 25
-1e+20
 35
-1e+20
146
0.0
 13
0.0
 23
0.0
 33
0.0
 16
1.0
 26
0.0
 36
0.0
 17
0.0
 27
1.0
 37
0.0
 76
1
330
1B
  0
MATERIAL
  5
1F
102
{ACAD_REACTORS
330
E
102
}
330
E
100
AcDbMaterial
  1
ByBlock
  2

 70
0
 40
1.0
 71
1
 41
1.0
 91
-1023410177
 42
1.0
 72
1
  3

 73
1
 74
1
 75
1
 44
0.5
 73
0
 45
1.0
 46
1.0
 77
1
  4

 78
1
 79
1
170
1
 48
1.0
171
1
  6

172
1
173
1
174
1
140
1.0
141
1.0
175
1
  7

176
1
177
1
178
1
143
1.0
179
1
  8

270
1
271
1
272
1
145
1.0
146
1.0
273
1
  9

274
1
275
1
276
1
 42
1.0
 72
1
  3

 73
1
 74
1
 75
1
 94
63
  0
MATERIAL
  5
20
102
{ACAD_REACTORS
330
E
102
}
330
E
100
AcDbMaterial
  1
ByLayer
  2

 70
0
 40
1.0
 71
1
 41
1.0
 91
-1023410177
 42
1.0
 72
1
  3

 73
1
 74
1
 75
1
 44
0.5
 73
0
 45
1.0
 46
1.0
 77
1
  4

 78
1
 79
1
170
1
 48
1.0
171
1
  6

172
1
173
1
174
1
140
1.0
141
1.0
175
1
  7

176
1
177
1
178
1
143
1.0
179
1
  8

270
1
271
1
272
1
145
1.0
146
1.0
273
1
  9

274
1
275
1
276
1
 42
1.0
 72
1
  3

 73
1
 74
1
 75
1
 94
63
  0
MATERIAL
  5
21
102
{ACAD_REACTORS
330
E
102
}
330
E
100
AcDbMaterial
  1
Global
  2

 70
0
 40
1.0
 71
1
 41
1.0
 91
-1023410177
 42
1.0
 72
1
  3

 73
1
 74
1
 75
1
 44
0.5
 73
0
 45
1.0
 46
1.0
 77
1
  4

 78
1
 79
1
170
1
 48
1.0
171
1
  6

172
1
173
1
174
1
140
1.0
141
1.0
175
1
  7

176
1
177
1
178
1
143
1.0
179
1
  8

270
1
271
1
272
1
145
1.0
146
1.0
273
1
  9

274
1
275
1
276
1
 42
1.0
 72
1
  3

 73
1
 74
1
 75
1
 94
63
  0
MLINESTYLE
  5
22
102
{ACAD_REACTORS
330
10
102
}
330
10
100
AcDbMlineStyle
  2
Standard
 70
0
  3

 62
256
 51
90.0
 52
90.0
 71
2
 49
0.5
 62
256
  6
BYLAYER
 49
-0.5
 62
256
  6
BYLAYER
  0
MLEADERSTYLE
  5
2C
102
{ACAD_REACTORS
330
F
102
}
330
F
100
AcDbMLeaderStyle
179
2
170
2
171
1
172
0
 90
2
 40
0.0
 41
0.0
173
1
 91
-1056964608
 92
-2
290
1
 42
2.0
291
1
 43
8.0
  3
Standard
 44
4.0
300

342
29
174
1
175
1
176
0
178
1
 93
-1056964608
 45
4.0
292
0
297
0
 46
4.0
 94
-1056964608
 47
1.0
 49
1.0
140
1.0
294
1
141
0.0
177
0
142
1.0
295
0
296
0
143
3.75
271
0
272
9
273
9
  0
DICTIONARY
  5
2D
330
A
100
AcDbDictionary
281
1
  3
CREATED_BY_EZDXF
350
2E
  3
WRITTEN_BY_EZDXF
350
62
  0
DICTIONARYVAR
  5
2E
330
2D
100
DictionaryVariables
280
0
  1
1.1.1 @ 2023-10-28T15:34:30.687609+00:00
  0
DICTIONARYVAR
  5
62
330
2D
100
DictionaryVariables
280
0
  1
1.1.1 @ 2023-10-28T15:34:30.704832+00:00
  0
ENDSEC
  0
EOF
