<?xml version="1.0" standalone="no"?>
<!DOCTYPE svg PUBLIC "-//W3C//DTD SVG 1.1//EN" "http://www.w3.org/Graphics/SVG/1.1/DTD/svg11.dtd">
<svg width="216mm" height="76mm" viewBox="-28 -38 216 76" xmlns="http://www.w3.org/2000/svg" version="1.1">
<title>OpenSCAD Model</title>
<path d="
M 117.229,37.1737 L 131.13,36.7373 L 138.879,36.2465 L 143.751,35.7513 L 147.26,35.2485 L 150.121,34.7515
 L 152.649,34.2485 L 154.967,33.7515 L 156.963,33.2485 L 158.67,32.7515 L 160.198,32.2485 L 161.614,31.7515
 L 162.894,31.2484 L 164.099,30.7505 L 165.353,30.2415 L 166.682,29.7151 L 168,29.113 L 169.32,28.3952
 L 170.661,27.5809 L 171.973,26.7774 L 173.369,25.8779 L 175.049,24.6882 L 176.922,23.2514 L 178.561,21.9057
 L 179.906,20.5612 L 181.25,18.9233 L 182.681,17.0561 L 183.842,15.4049 L 184.642,14.1081 L 185.227,13.0127
 L 185.748,11.9539 L 186.246,10.774 L 186.737,9.1722 L 187.174,6.58829 L 187.467,2.50423 L 187.467,-2.50423
 L 187.174,-6.58829 L 186.737,-9.1722 L 186.246,-10.774 L 185.748,-11.9539 L 185.227,-13.0127 L 184.642,-14.1081
 L 183.842,-15.4049 L 182.681,-17.0561 L 181.25,-18.9233 L 179.906,-20.5612 L 178.561,-21.9057 L 176.922,-23.2514
 L 175.049,-24.6882 L 173.369,-25.8779 L 171.973,-26.7774 L 170.661,-27.5809 L 169.32,-28.3952 L 168,-29.113
 L 166.682,-29.7151 L 165.353,-30.2415 L 164.099,-30.7505 L 162.894,-31.2484 L 161.614,-31.7515 L 160.198,-32.2485
 L 158.67,-32.7515 L 156.963,-33.2485 L 154.967,-33.7515 L 152.649,-34.2485 L 150.121,-34.7515 L 147.26,-35.2485
 L 143.751,-35.7513 L 138.879,-36.2465 L 131.13,-36.7373 L 117.229,-37.1737 L 94.2796,-37.4668 L 65.7204,-37.4668
 L 42.771,-37.1737 L 28.8699,-36.7373 L 21.121,-36.2465 L 16.2492,-35.7513 L 12.7399,-35.2485 L 9.87906,-34.7515
 L 7.35126,-34.2485 L 5.03317,-33.7515 L 3.03741,-33.2485 L 1.33028,-32.7515 L -0.197876,-32.2485 L -1.61423,-31.7515
 L -2.89398,-31.2484 L -4.0988,-30.7505 L -5.35333,-30.2415 L -6.68202,-29.7151 L -8.00018,-29.113 L -9.31989,-28.3952
 L -10.6605,-27.5809 L -11.973,-26.7774 L -13.3685,-25.8779 L -15.0491,-24.6882 L -16.9223,-23.2514 L -18.5611,-21.9057
 L -19.9056,-20.5612 L -21.2504,-18.9233 L -22.6812,-17.0561 L -23.8415,-15.4049 L -24.6421,-14.1081 L -25.2275,-13.0127
 L -25.7484,-11.9539 L -26.2463,-10.774 L -26.7373,-9.1722 L -27.1737,-6.58829 L -27.4668,-2.50423 L -27.4668,2.50423
 L -27.1737,6.58829 L -26.7373,9.1722 L -26.2463,10.774 L -25.7484,11.9539 L -25.2275,13.0127 L -24.6421,14.1081
 L -23.8415,15.4049 L -22.6812,17.0561 L -21.2504,18.9233 L -19.9056,20.5612 L -18.5611,21.9057 L -16.9223,23.2514
 L -15.0491,24.6882 L -13.3685,25.8779 L -11.973,26.7774 L -10.6605,27.5809 L -9.31989,28.3952 L -8.00018,29.113
 L -6.68202,29.7151 L -5.35333,30.2415 L -4.0988,30.7505 L -2.89398,31.2484 L -1.61423,31.7515 L -0.197876,32.2485
 L 1.33028,32.7515 L 3.03741,33.2485 L 5.03317,33.7515 L 7.35126,34.2485 L 9.87906,34.7515 L 12.7399,35.2485
 L 16.2492,35.7513 L 21.121,36.2465 L 28.8699,36.7373 L 42.771,37.1737 L 65.7204,37.4668 L 94.2796,37.4668
 z
M 149.608,-18.0193 L 149.22,-18.0769 L 148.839,-18.1722 L 148.469,-18.3045 L 148.114,-18.4723 L 147.778,-18.6741
 L 147.462,-18.9079 L 147.172,-19.1716 L 146.908,-19.4624 L 146.674,-19.7777 L 146.472,-20.1144 L 146.304,-20.4693
 L 146.172,-20.8389 L 146.077,-21.2196 L 146.019,-21.6079 L 146,-22 L 146.019,-22.3921 L 146.077,-22.7803
 L 146.172,-23.1611 L 146.304,-23.5307 L 146.472,-23.8856 L 146.674,-24.2223 L 146.908,-24.5376 L 147.172,-24.8284
 L 147.462,-25.092 L 147.778,-25.3259 L 148.114,-25.5277 L 148.469,-25.6955 L 148.839,-25.8278 L 149.22,-25.9231
 L 149.608,-25.9807 L 150,-26 L 150.392,-25.9807 L 150.78,-25.9231 L 151.161,-25.8278 L 151.531,-25.6955
 L 151.886,-25.5277 L 152.222,-25.3259 L 152.538,-25.092 L 152.828,-24.8284 L 153.092,-24.5376 L 153.326,-24.2223
 L 153.528,-23.8856 L 153.696,-23.5307 L 153.828,-23.1611 L 153.923,-22.7803 L 153.981,-22.3921 L 154,-22
 L 153.981,-21.6079 L 153.923,-21.2196 L 153.828,-20.8389 L 153.696,-20.4693 L 153.528,-20.1144 L 153.326,-19.7777
 L 153.092,-19.4624 L 152.828,-19.1716 L 152.538,-18.9079 L 152.222,-18.6741 L 151.886,-18.4723 L 151.531,-18.3045
 L 151.161,-18.1722 L 150.78,-18.0769 L 150.392,-18.0193 L 150,-18 z
M 9.60793,-18.0193 L 9.21964,-18.0769 L 8.83885,-18.1722 L 8.46925,-18.3045 L 8.11441,-18.4723 L 7.77771,-18.6741
 L 7.46242,-18.9079 L 7.17157,-19.1716 L 6.90794,-19.4624 L 6.67412,-19.7777 L 6.47231,-20.1144 L 6.30447,-20.4693
 L 6.17223,-20.8389 L 6.07686,-21.2196 L 6.01926,-21.6079 L 6,-22 L 6.01926,-22.3921 L 6.07686,-22.7803
 L 6.17223,-23.1611 L 6.30447,-23.5307 L 6.47231,-23.8856 L 6.67412,-24.2223 L 6.90794,-24.5376 L 7.17157,-24.8284
 L 7.46242,-25.092 L 7.77771,-25.3259 L 8.11441,-25.5277 L 8.46925,-25.6955 L 8.83885,-25.8278 L 9.21964,-25.9231
 L 9.60793,-25.9807 L 10,-26 L 10.3921,-25.9807 L 10.7803,-25.9231 L 11.1611,-25.8278 L 11.5307,-25.6955
 L 11.8856,-25.5277 L 12.2223,-25.3259 L 12.5376,-25.092 L 12.8284,-24.8284 L 13.092,-24.5376 L 13.3259,-24.2223
 L 13.5277,-23.8856 L 13.6955,-23.5307 L 13.8278,-23.1611 L 13.9231,-22.7803 L 13.9807,-22.3921 L 14,-22
 L 13.9807,-21.6079 L 13.9231,-21.2196 L 13.8278,-20.8389 L 13.6955,-20.4693 L 13.5277,-20.1144 L 13.3259,-19.7777
 L 13.092,-19.4624 L 12.8284,-19.1716 L 12.5376,-18.9079 L 12.2223,-18.6741 L 11.8856,-18.4723 L 11.5307,-18.3045
 L 11.1611,-18.1722 L 10.7803,-18.0769 L 10.3921,-18.0193 L 10,-18 z
M 80,10.5 L 80,-10.5 L 101,-10.5 L 101,10.5 z
M 120,10.5 L 120,-10.5 L 141,-10.5 L 141,10.5 z
M 0,10.5 L 0,-10.5 L 21,-10.5 L 21,10.5 z
M 40,10.5 L 40,-10.5 L 61,-10.5 L 61,10.5 z
M 9.60793,25.9807 L 9.21964,25.9231 L 8.83885,25.8278 L 8.46925,25.6955 L 8.11441,25.5277 L 7.77771,25.3259
 L 7.46242,25.092 L 7.17157,24.8284 L 6.90794,24.5376 L 6.67412,24.2223 L 6.47231,23.8856 L 6.30447,23.5307
 L 6.17223,23.1611 L 6.07686,22.7803 L 6.01926,22.3921 L 6,22 L 6.01926,21.6079 L 6.07686,21.2196
 L 6.17223,20.8389 L 6.30447,20.4693 L 6.47231,20.1144 L 6.67412,19.7777 L 6.90794,19.4624 L 7.17157,19.1716
 L 7.46242,18.9079 L 7.77771,18.6741 L 8.11441,18.4723 L 8.46925,18.3045 L 8.83885,18.1722 L 9.21964,18.0769
 L 9.60793,18.0193 L 10,18 L 10.3921,18.0193 L 10.7803,18.0769 L 11.1611,18.1722 L 11.5307,18.3045
 L 11.8856,18.4723 L 12.2223,18.6741 L 12.5376,18.9079 L 12.8284,19.1716 L 13.092,19.4624 L 13.3259,19.7777
 L 13.5277,20.1144 L 13.6955,20.4693 L 13.8278,20.8389 L 13.9231,21.2196 L 13.9807,21.6079 L 14,22
 L 13.9807,22.3921 L 13.9231,22.7803 L 13.8278,23.1611 L 13.6955,23.5307 L 13.5277,23.8856 L 13.3259,24.2223
 L 13.092,24.5376 L 12.8284,24.8284 L 12.5376,25.092 L 12.2223,25.3259 L 11.8856,25.5277 L 11.5307,25.6955
 L 11.1611,25.8278 L 10.7803,25.9231 L 10.3921,25.9807 L 10,26 z
M 149.608,25.9807 L 149.22,25.9231 L 148.839,25.8278 L 148.469,25.6955 L 148.114,25.5277 L 147.778,25.3259
 L 147.462,25.092 L 147.172,24.8284 L 146.908,24.5376 L 146.674,24.2223 L 146.472,23.8856 L 146.304,23.5307
 L 146.172,23.1611 L 146.077,22.7803 L 146.019,22.3921 L 146,22 L 146.019,21.6079 L 146.077,21.2196
 L 146.172,20.8389 L 146.304,20.4693 L 146.472,20.1144 L 146.674,19.7777 L 146.908,19.4624 L 147.172,19.1716
 L 147.462,18.9079 L 147.778,18.6741 L 148.114,18.4723 L 148.469,18.3045 L 148.839,18.1722 L 149.22,18.0769
 L 149.608,18.0193 L 150,18 L 150.392,18.0193 L 150.78,18.0769 L 151.161,18.1722 L 151.531,18.3045
 L 151.886,18.4723 L 152.222,18.6741 L 152.538,18.9079 L 152.828,19.1716 L 153.092,19.4624 L 153.326,19.7777
 L 153.528,20.1144 L 153.696,20.4693 L 153.828,20.8389 L 153.923,21.2196 L 153.981,21.6079 L 154,22
 L 153.981,22.3921 L 153.923,22.7803 L 153.828,23.1611 L 153.696,23.5307 L 153.528,23.8856 L 153.326,24.2223
 L 153.092,24.5376 L 152.828,24.8284 L 152.538,25.092 L 152.222,25.3259 L 151.886,25.5277 L 151.531,25.6955
 L 151.161,25.8278 L 150.78,25.9231 L 150.392,25.9807 L 150,26 z
" stroke="black" fill="lightgray" stroke-width="0.5"/>
</svg>
