  0
SECTION
  2
HEADER
  9
$ACADVER
  1
AC1024
  9
$ACADMAINTVER
 70
6
  9
$DWGCODEPAGE
  3
ANSI_1252
  9
$LASTSAVEDBY
  1
ezdxf
  9
$INSBASE
 10
0.0
 20
0.0
 30
0.0
  9
$EXTMIN
 10
1e+20
 20
1e+20
 30
1e+20
  9
$EXTMAX
 10
-1e+20
 20
-1e+20
 30
-1e+20
  9
$LIMMIN
 10
0.0
 20
0.0
  9
$LIMMAX
 10
420.0
 20
297.0
  9
$ORTHOMODE
 70
0
  9
$REGENMODE
 70
1
  9
$FILLMODE
 70
1
  9
$QTEXTMODE
 70
0
  9
$MIRRTEXT
 70
1
  9
$LTSCALE
 40
1.0
  9
$ATTMODE
 70
1
  9
$TEXTSIZE
 40
2.5
  9
$TRACEWID
 40
1.0
  9
$TEXTSTYLE
  7
Standard
  9
$CLAYER
  8
0
  9
$CELTYPE
  6
ByLayer
  9
$CECOLOR
 62
256
  9
$CELTSCALE
 40
1.0
  9
$DISPSILH
 70
0
  9
$DIMSCALE
 40
1.0
  9
$DIMASZ
 40
2.5
  9
$DIMEXO
 40
0.625
  9
$DIMDLI
 40
3.75
  9
$DIMRND
 40
0.0
  9
$DIMDLE
 40
0.0
  9
$DIMEXE
 40
1.25
  9
$DIMTP
 40
0.0
  9
$DIMTM
 40
0.0
  9
$DIMTXT
 40
2.5
  9
$DIMCEN
 40
2.5
  9
$DIMTSZ
 40
0.0
  9
$DIMTOL
 70
0
  9
$DIMLIM
 70
0
  9
$DIMTIH
 70
0
  9
$DIMTOH
 70
0
  9
$DIMSE1
 70
0
  9
$DIMSE2
 70
0
  9
$DIMTAD
 70
1
  9
$DIMZIN
 70
8
  9
$DIMBLK
  1

  9
$DIMASO
 70
1
  9
$DIMSHO
 70
1
  9
$DIMPOST
  1

  9
$DIMAPOST
  1

  9
$DIMALT
 70
0
  9
$DIMALTD
 70
3
  9
$DIMALTF
 40
0.03937007874
  9
$DIMLFAC
 40
1.0
  9
$DIMTOFL
 70
1
  9
$DIMTVP
 40
0.0
  9
$DIMTIX
 70
0
  9
$DIMSOXD
 70
0
  9
$DIMSAH
 70
0
  9
$DIMBLK1
  1

  9
$DIMBLK2
  1

  9
$DIMSTYLE
  2
ISO-25
  9
$DIMCLRD
 70
0
  9
$DIMCLRE
 70
0
  9
$DIMCLRT
 70
0
  9
$DIMTFAC
 40
1.0
  9
$DIMGAP
 40
0.625
  9
$DIMJUST
 70
0
  9
$DIMSD1
 70
0
  9
$DIMSD2
 70
0
  9
$DIMTOLJ
 70
0
  9
$DIMTZIN
 70
8
  9
$DIMALTZ
 70
0
  9
$DIMALTTZ
 70
0
  9
$DIMUPT
 70
0
  9
$DIMDEC
 70
2
  9
$DIMTDEC
 70
2
  9
$DIMALTU
 70
2
  9
$DIMALTTD
 70
3
  9
$DIMTXSTY
  7
Standard
  9
$DIMAUNIT
 70
0
  9
$DIMADEC
 70
0
  9
$DIMALTRND
 40
0.0
  9
$DIMAZIN
 70
0
  9
$DIMDSEP
 70
44
  9
$DIMATFIT
 70
3
  9
$DIMFRAC
 70
0
  9
$DIMLDRBLK
  1

  9
$DIMLUNIT
 70
2
  9
$DIMLWD
 70
-2
  9
$DIMLWE
 70
-2
  9
$DIMTMOVE
 70
0
  9
$DIMFXL
 40
1.0
  9
$DIMFXLON
 70
0
  9
$DIMJOGANG
 40
0.785398163397
  9
$DIMTFILL
 70
0
  9
$DIMTFILLCLR
 70
0
  9
$DIMARCSYM
 70
0
  9
$DIMLTYPE
  6

  9
$DIMLTEX1
  6

  9
$DIMLTEX2
  6

  9
$DIMTXTDIRECTION
 70
0
  9
$LUNITS
 70
2
  9
$LUPREC
 70
4
  9
$SKETCHINC
 40
1.0
  9
$FILLETRAD
 40
10.0
  9
$AUNITS
 70
0
  9
$AUPREC
 70
2
  9
$MENU
  1
.
  9
$ELEVATION
 40
0.0
  9
$PELEVATION
 40
0.0
  9
$THICKNESS
 40
0.0
  9
$LIMCHECK
 70
0
  9
$CHAMFERA
 40
0.0
  9
$CHAMFERB
 40
0.0
  9
$CHAMFERC
 40
0.0
  9
$CHAMFERD
 40
0.0
  9
$SKPOLY
 70
0
  9
$TDCREATE
 40
2460246.482291667
  9
$TDUCREATE
 40
2458532.153996898
  9
$TDUPDATE
 40
2460246.482291667
  9
$TDUUPDATE
 40
2458532.1544311
  9
$TDINDWG
 40
0.0
  9
$TDUSRTIMER
 40
0.0
  9
$USRTIMER
 70
1
  9
$ANGBASE
 50
0.0
  9
$ANGDIR
 70
0
  9
$PDMODE
 70
0
  9
$PDSIZE
 40
0.0
  9
$PLINEWID
 40
0.0
  9
$SPLFRAME
 70
0
  9
$SPLINETYPE
 70
6
  9
$SPLINESEGS
 70
8
  9
$HANDSEED
  5
6E
  9
$SURFTAB1
 70
6
  9
$SURFTAB2
 70
6
  9
$SURFTYPE
 70
6
  9
$SURFU
 70
6
  9
$SURFV
 70
6
  9
$UCSBASE
  2

  9
$UCSNAME
  2

  9
$UCSORG
 10
0.0
 20
0.0
 30
0.0
  9
$UCSXDIR
 10
1.0
 20
0.0
 30
0.0
  9
$UCSYDIR
 10
0.0
 20
1.0
 30
0.0
  9
$UCSORTHOREF
  2

  9
$UCSORTHOVIEW
 70
0
  9
$UCSORGTOP
 10
0.0
 20
0.0
 30
0.0
  9
$UCSORGBOTTOM
 10
0.0
 20
0.0
 30
0.0
  9
$UCSORGLEFT
 10
0.0
 20
0.0
 30
0.0
  9
$UCSORGRIGHT
 10
0.0
 20
0.0
 30
0.0
  9
$UCSORGFRONT
 10
0.0
 20
0.0
 30
0.0
  9
$UCSORGBACK
 10
0.0
 20
0.0
 30
0.0
  9
$PUCSBASE
  2

  9
$PUCSNAME
  2

  9
$PUCSORG
 10
0.0
 20
0.0
 30
0.0
  9
$PUCSXDIR
 10
1.0
 20
0.0
 30
0.0
  9
$PUCSYDIR
 10
0.0
 20
1.0
 30
0.0
  9
$PUCSORTHOREF
  2

  9
$PUCSORTHOVIEW
 70
0
  9
$PUCSORGTOP
 10
0.0
 20
0.0
 30
0.0
  9
$PUCSORGBOTTOM
 10
0.0
 20
0.0
 30
0.0
  9
$PUCSORGLEFT
 10
0.0
 20
0.0
 30
0.0
  9
$PUCSORGRIGHT
 10
0.0
 20
0.0
 30
0.0
  9
$PUCSORGFRONT
 10
0.0
 20
0.0
 30
0.0
  9
$PUCSORGBACK
 10
0.0
 20
0.0
 30
0.0
  9
$USERI1
 70
0
  9
$USERI2
 70
0
  9
$USERI3
 70
0
  9
$USERI4
 70
0
  9
$USERI5
 70
0
  9
$USERR1
 40
0.0
  9
$USERR2
 40
0.0
  9
$USERR3
 40
0.0
  9
$USERR4
 40
0.0
  9
$USERR5
 40
0.0
  9
$WORLDVIEW
 70
1
  9
$SHADEDGE
 70
3
  9
$SHADEDIF
 70
70
  9
$TILEMODE
 70
1
  9
$MAXACTVP
 70
64
  9
$PINSBASE
 10
0.0
 20
0.0
 30
0.0
  9
$PLIMCHECK
 70
0
  9
$PEXTMIN
 10
1e+20
 20
1e+20
 30
1e+20
  9
$PEXTMAX
 10
-1e+20
 20
-1e+20
 30
-1e+20
  9
$PLIMMIN
 10
0.0
 20
0.0
  9
$PLIMMAX
 10
420.0
 20
297.0
  9
$UNITMODE
 70
0
  9
$VISRETAIN
 70
1
  9
$PLINEGEN
 70
0
  9
$PSLTSCALE
 70
1
  9
$TREEDEPTH
 70
3020
  9
$CMLSTYLE
  2
Standard
  9
$CMLJUST
 70
0
  9
$CMLSCALE
 40
20.0
  9
$PROXYGRAPHICS
 70
1
  9
$MEASUREMENT
 70
1
  9
$CELWEIGHT
370
-1
  9
$ENDCAPS
280
0
  9
$JOINSTYLE
280
0
  9
$LWDISPLAY
290
0
  9
$INSUNITS
 70
4
  9
$HYPERLINKBASE
  1

  9
$STYLESHEET
  1

  9
$XEDIT
290
1
  9
$CEPSNTYPE
380
0
  9
$PSTYLEMODE
290
1
  9
$FINGERPRINTGUID
  2
{8CC22F15-4B2D-43CE-9DCF-7A85EA82397D}
  9
$VERSIONGUID
  2
{0EEF92FD-B268-4B8C-9534-F266D4F557A7}
  9
$EXTNAMES
290
1
  9
$PSVPSCALE
 40
0.0
  9
$OLESTARTUP
290
0
  9
$SORTENTS
280
127
  9
$INDEXCTL
280
0
  9
$HIDETEXT
280
1
  9
$XCLIPFRAME
280
0
  9
$HALOGAP
280
0
  9
$OBSCOLOR
 70
257
  9
$OBSLTYPE
280
0
  9
$INTERSECTIONDISPLAY
280
0
  9
$INTERSECTIONCOLOR
 70
257
  9
$DIMASSOC
280
2
  9
$PROJECTNAME
  1

  9
$CAMERADISPLAY
290
0
  9
$LENSLENGTH
 40
50.0
  9
$CAMERAHEIGHT
 40
0.0
  9
$STEPSPERSEC
 40
24.0
  9
$STEPSIZE
 40
100.0
  9
$3DDWFPREC
 40
2.0
  9
$PSOLWIDTH
 40
0.005
  9
$PSOLHEIGHT
 40
0.08
  9
$LOFTANG1
 40
1.570796326795
  9
$LOFTANG2
 40
1.570796326795
  9
$LOFTMAG1
 40
0.0
  9
$LOFTMAG2
 40
0.0
  9
$LOFTPARAM
 70
7
  9
$LOFTNORMALS
280
1
  9
$LATITUDE
 40
37.795
  9
$LONGITUDE
 40
-122.394
  9
$NORTHDIRECTION
 40
0.0
  9
$TIMEZONE
 70
-8000
  9
$LIGHTGLYPHDISPLAY
280
1
  9
$TILEMODELIGHTSYNCH
280
1
  9
$CMATERIAL
347
20
  9
$SOLIDHIST
280
0
  9
$SHOWHIST
280
1
  9
$DWFFRAME
280
2
  9
$DGNFRAME
280
2
  9
$REALWORLDSCALE
290
1
  9
$INTERFERECOLOR
 62
256
  9
$CSHADOW
280
0
  9
$SHADOWPLANELOCATION
 40
0.0
  0
ENDSEC
  0
SECTION
  2
CLASSES
  0
CLASS
  1
ACDBDICTIONARYWDFLT
  2
AcDbDictionaryWithDefault
  3
ObjectDBX Classes
 90
0
 91
0
280
0
281
0
  0
CLASS
  1
SUN
  2
AcDbSun
  3
SCENEOE
 90
1153
 91
0
280
0
281
0
  0
CLASS
  1
VISUALSTYLE
  2
AcDbVisualStyle
  3
ObjectDBX Classes
 90
4095
 91
0
280
0
281
0
  0
CLASS
  1
MATERIAL
  2
AcDbMaterial
  3
ObjectDBX Classes
 90
1153
 91
0
280
0
281
0
  0
CLASS
  1
SCALE
  2
AcDbScale
  3
ObjectDBX Classes
 90
1153
 91
0
280
0
281
0
  0
CLASS
  1
TABLESTYLE
  2
AcDbTableStyle
  3
ObjectDBX Classes
 90
4095
 91
0
280
0
281
0
  0
CLASS
  1
MLEADERSTYLE
  2
AcDbMLeaderStyle
  3
ACDB_MLEADERSTYLE_CLASS
 90
4095
 91
0
280
0
281
0
  0
CLASS
  1
DICTIONARYVAR
  2
AcDbDictionaryVar
  3
ObjectDBX Classes
 90
0
 91
0
280
0
281
0
  0
CLASS
  1
CELLSTYLEMAP
  2
AcDbCellStyleMap
  3
ObjectDBX Classes
 90
1152
 91
0
280
0
281
0
  0
CLASS
  1
MENTALRAYRENDERSETTINGS
  2
AcDbMentalRayRenderSettings
  3
SCENEOE
 90
1024
 91
0
280
0
281
0
  0
CLASS
  1
ACDBDETAILVIEWSTYLE
  2
AcDbDetailViewStyle
  3
ObjectDBX Classes
 90
1025
 91
0
280
0
281
0
  0
CLASS
  1
ACDBSECTIONVIEWSTYLE
  2
AcDbSectionViewStyle
  3
ObjectDBX Classes
 90
1025
 91
0
280
0
281
0
  0
CLASS
  1
RASTERVARIABLES
  2
AcDbRasterVariables
  3
ISM
 90
0
 91
0
280
0
281
0
  0
CLASS
  1
ACDBPLACEHOLDER
  2
AcDbPlaceHolder
  3
ObjectDBX Classes
 90
0
 91
0
280
0
281
0
  0
CLASS
  1
LAYOUT
  2
AcDbLayout
  3
ObjectDBX Classes
 90
0
 91
0
280
0
281
0
  0
ENDSEC
  0
SECTION
  2
TABLES
  0
TABLE
  2
VPORT
  5
8
330
0
100
AcDbSymbolTable
 70
1
  0
VPORT
  5
23
330
8
100
AcDbSymbolTableRecord
100
AcDbViewportTableRecord
  2
*Active
 70
0
 10
0.0
 20
0.0
 11
1.0
 21
1.0
 12
0.0
 22
0.0
 13
0.0
 23
0.0
 14
0.5
 24
0.5
 15
0.5
 25
0.5
 16
0.0
 26
0.0
 36
1.0
 17
0.0
 27
0.0
 37
0.0
 40
1000.0
 41
1.34
 42
50.0
 43
0.0
 44
0.0
 50
0.0
 51
0.0
 71
0
 72
1000
 73
1
 74
3
 75
0
 76
0
 77
0
 78
0
281
0
 65
0
146
0.0
  0
ENDTAB
  0
TABLE
  2
LTYPE
  5
2
330
0
100
AcDbSymbolTable
 70
3
  0
LTYPE
  5
24
330
2
100
AcDbSymbolTableRecord
100
AcDbLinetypeTableRecord
  2
ByBlock
 70
0
  3

 72
65
 73
0
 40
0.0
  0
LTYPE
  5
25
330
2
100
AcDbSymbolTableRecord
100
AcDbLinetypeTableRecord
  2
ByLayer
 70
0
  3

 72
65
 73
0
 40
0.0
  0
LTYPE
  5
26
330
2
100
AcDbSymbolTableRecord
100
AcDbLinetypeTableRecord
  2
Continuous
 70
0
  3

 72
65
 73
0
 40
0.0
  0
ENDTAB
  0
TABLE
  2
LAYER
  5
1
330
0
100
AcDbSymbolTable
 70
2
  0
LAYER
  5
27
330
1
100
AcDbSymbolTableRecord
100
AcDbLayerTableRecord
  2
0
 70
0
 62
7
  6
Continuous
370
-3
390
13
347
21
  0
LAYER
  5
28
330
1
100
AcDbSymbolTableRecord
100
AcDbLayerTableRecord
  2
Defpoints
 70
0
 62
7
  6
Continuous
290
0
370
-3
390
13
347
21
  0
ENDTAB
  0
TABLE
  2
STYLE
  5
5
330
0
100
AcDbSymbolTable
 70
1
  0
STYLE
  5
29
330
5
100
AcDbSymbolTableRecord
100
AcDbTextStyleTableRecord
  2
Standard
 70
0
 40
0.0
 41
1.0
 50
0.0
 71
0
 42
2.5
  3
txt
  4

  0
ENDTAB
  0
TABLE
  2
VIEW
  5
7
330
0
100
AcDbSymbolTable
 70
0
  0
ENDTAB
  0
TABLE
  2
UCS
  5
6
330
0
100
AcDbSymbolTable
 70
0
  0
ENDTAB
  0
TABLE
  2
APPID
  5
3
330
0
100
AcDbSymbolTable
 70
3
  0
APPID
  5
2A
330
3
100
AcDbSymbolTableRecord
100
AcDbRegAppTableRecord
  2
ACAD
 70
0
  0
APPID
  5
6B
330
3
100
AcDbSymbolTableRecord
100
AcDbRegAppTableRecord
  2
HATCHBACKGROUNDCOLOR
 70
0
  0
APPID
  5
6C
330
3
100
AcDbSymbolTableRecord
100
AcDbRegAppTableRecord
  2
EZDXF
 70
0
  0
ENDTAB
  0
TABLE
  2
DIMSTYLE
  5
4
330
0
100
AcDbSymbolTable
 70
1
100
AcDbDimStyleTable
  0
DIMSTYLE
105
2B
330
4
100
AcDbSymbolTableRecord
100
AcDbDimStyleTableRecord
  2
Standard
 70
0
 40
1.0
 41
2.5
 42
0.625
 43
3.75
 44
1.25
 45
0.0
 46
0.0
 47
0.0
 48
0.0
 49
2.5
140
2.5
141
2.5
142
0.0
143
0.03937007874
144
1.0
145
0.0
146
1.0
147
0.625
148
0.0
 69
0
 70
0
 71
0
 72
0
 73
0
 74
0
 75
0
 76
0
 77
1
 78
8
 79
3
170
0
171
3
172
1
173
0
174
0
175
0
176
0
177
0
178
0
179
2
271
2
272
2
273
2
274
3
275
0
276
0
277
2
278
44
279
0
280
0
281
0
282
0
283
0
284
8
285
0
286
0
288
0
289
3
290
0
371
-2
372
-2
  0
ENDTAB
  0
TABLE
  2
BLOCK_RECORD
  5
9
330
0
100
AcDbSymbolTable
 70
2
  0
BLOCK_RECORD
  5
17
330
9
100
AcDbSymbolTableRecord
100
AcDbBlockTableRecord
  2
*Model_Space
340
1A
 70
0
280
1
281
0
  0
BLOCK_RECORD
  5
1B
330
9
100
AcDbSymbolTableRecord
100
AcDbBlockTableRecord
  2
*Paper_Space
340
1E
 70
0
280
1
281
0
  0
ENDTAB
  0
ENDSEC
  0
SECTION
  2
BLOCKS
  0
BLOCK
  5
18
330
17
100
AcDbEntity
  8
0
100
AcDbBlockBegin
  2
*Model_Space
 70
0
 10
0.0
 20
0.0
 30
0.0
  3
*Model_Space
  1

  0
ENDBLK
  5
19
330
17
100
AcDbEntity
  8
0
100
AcDbBlockEnd
  0
BLOCK
  5
1C
330
1B
100
AcDbEntity
  8
0
100
AcDbBlockBegin
  2
*Paper_Space
 70
0
 10
0.0
 20
0.0
 30
0.0
  3
*Paper_Space
  1

  0
ENDBLK
  5
1D
330
1B
100
AcDbEntity
  8
0
100
AcDbBlockEnd
  0
ENDSEC
  0
SECTION
  2
ENTITIES
  0
LWPOLYLINE
  5
2F
330
17
100
AcDbEntity
  8
default
100
AcDbPolyline
 90
1208
 70
0
 10
-12.0
 20
70.0
 10
-12.0
 20
73.16174742624004
 10
-12.0
 20
80.0
 10
-12.0
 20
80.35089605880827
 10
-12.0
 20
86.00778126676506
 10
-12.0
 20
90.0
 10
-5.0
 20
90.0
 10
-0.3184877024356163
 20
90.0
 10
0.0
 20
90.0
 10
0.0
 20
97.4289723381653
 10
0.0
 20
106.79289138208026
 10
0.0
 20
110.86103169005526
 10
0.0
 20
120.0
 10
-5.0
 20
120.0
 10
-5.0
 20
111.7878589109433
 10
-5.0
 20
110.0
 10
-12.0
 20
110.0
 10
-12.0
 20
110.52904844334286
 10
-12.0
 20
119.90991934336562
 10
-12.0
 20
120.0
 10
-12.0
 20
130.0
 10
-11.805574186643506
 20
130.0
 10
-5.0
 20
130.0
 10
0.0
 20
130.0
 10
0.0
 20
135.26987353845402
 10
0.0
 20
139.33801384660308
 10
0.0
 20
150.81265790596828
 10
0.0
 20
154.8901141397601
 10
0.0
 20
166.1666666666667
 10
0.07438548480000003
 20
166.50081164280837
 10
0.2589478485333334
 20
167.05730143054174
 10
0.4077188181333335
 20
167.6093652361251
 10
0.5922811818666668
 20
168.1658550238584
 10
0.7410521514666668
 20
168.83414497614172
 10
0.8110126726041562
 20
169.04508893443307
 10
0.9256145152000002
 20
169.39063476387508
 10
1.0743854848000003
 20
169.94269856945834
 10
1.2589478485333336
 20
170.49918835718583
 10
1.4077188181333338
 20
171.16747830899422
 10
1.5922811818666673
 20
171.72396807389356
 10
1.7410521514666673
 20
172.2760311580692
 10
1.9256145152000006
 20
172.83250528576033
 10
1.9656848377700133
 20
173.01244028518056
 10
2.0743854848000005
 20
173.50055841365693
 10
2.258947848533334
 20
174.05457873617934
 10
2.4077188181333335
 20
174.58955920891208
 10
2.5922811818666673
 20
175.07414865993252
 10
2.741052151466667
 20
175.59251800624756
 10
2.9256145152000004
 20
176.07710743443985
 10
3.074385484800001
 20
176.61208718576484
 10
3.2589478485333343
 20
177.16609184823923
 10
3.407718818133334
 20
177.8339081512742
 10
3.5922811818666673
 20
178.3879127909263
 10
3.7410521514666675
 20
178.92289182131853
 10
3.925614515200001
 20
179.40746561229682
 10
4.074385484800001
 20
179.9255988551579
 10
4.258947848533335
 20
180.4077344781756
 10
4.407718818133335
 20
180.9258677210367
 10
4.592281181866669
 20
181.41044151201493
 10
4.741052151466668
 20
181.94542054240713
 10
4.7575634973437
 20
181.99498298860496
 10
4.925614515200001
 20
182.49942518205333
 10
5.074385484800001
 20
183.16724148461338
 10
5.258947848533336
 20
183.72124612425375
 10
5.407718818133335
 20
184.25622515417103
 10
5.592281181866669
 20
184.7407989223153
 10
5.741052151466668
 20
185.2589314437687
 10
5.925614515200001
 20
185.7410514067442
 10
6.074385484800001
 20
186.2589478252186
 10
6.135412189217547
 20
186.4183586476197
 10
6.258947848533336
 20
186.7410521509859
 10
6.407718818133336
 20
187.2589478485275
 10
6.59228118186667
 20
187.7410521514667
 10
6.741052151466669
 20
188.25894784853338
 10
6.925614515200002
 20
188.74105215146673
 10
7.074385484800002
 20
189.25894784853338
 10
7.258947848533336
 20
189.74105215146673
 10
7.407718818133336
 20
190.25894784853338
 10
7.59228118186667
 20
190.74105215146673
 10
7.741052151466669
 20
191.25894784853338
 10
7.925614515200003
 20
191.74105215146673
 10
8.074385484800004
 20
192.25894784853338
 10
8.258947848533339
 20
192.74105215146673
 10
8.407718818133338
 20
193.25894784853338
 10
8.592281181866671
 20
193.74105215146673
 10
8.74105215146667
 20
194.25894784853338
 10
8.871452208681104
 20
194.5995721633404
 10
8.925614515200003
 20
194.74105215146673
 10
9.074385484800004
 20
195.25894784853335
 10
9.258947848533339
 20
195.74105215146085
 10
9.407718818133338
 20
196.2589478480526
 10
9.592281181866671
 20
196.74105212815195
 10
9.74105215146667
 20
197.2589471038109
 10
9.925614515200003
 20
197.741035746702
 10
10.074385484800004
 20
198.258694619382
 10
10.258947848533339
 20
198.73832945710433
 10
10.354599697267979
 20
199.06032526472217
 10
10.407718818133338
 20
199.23914182132046
 10
10.592281181866671
 20
199.64934578754676
 10
10.74105215146667
 20
200.01732087912006
 10
10.925614515200003
 20
200.42752484534637
 10
11.074385484800004
 20
200.92833720956241
 10
11.258947848533339
 20
201.40797204728486
 10
11.407718818133338
 20
201.92563091996476
 10
11.592281181866671
 20
202.40771956285005
 10
11.74105215146667
 20
202.92561453803407
 10
11.925614515200005
 20
203.40771879529942
 10
12.074385484800004
 20
203.92561377048344
 10
12.258947848533339
 20
204.40770241336872
 10
12.407718818133338
 20
204.92536128604866
 10
12.592281181866671
 20
205.404996123771
 10
12.74105215146667
 20
205.9058084879871
 10
12.925614515200003
 20
206.3160124542075
 10
13.074385484800006
 20
206.68398754530588
 10
13.25894784853334
 20
207.0941914886982
 10
13.40771881813334
 20
207.59500313150653
 10
13.592281181866673
 20
208.0746223091868
 10
13.741052151466672
 20
208.59204435748
 10
13.925614515200007
 20
209.07166353516018
 10
14.074385484800006
 20
209.57247517796853
 10
14.257397998734836
 20
209.97923446185808
 10
14.258947848533339
 20
209.98267912135498
 10
14.407718818133338
 20
210.35065421197842
 10
14.592281181866671
 20
210.7608581553649
 10
14.741052151466672
 20
211.2616697981732
 10
14.925614515200007
 20
211.74128897584757
 10
15.074385484800006
 20
212.25871102366588
 10
15.25894784853334
 20
212.7383301785121
 10
15.40771881813334
 20
213.23914109991273
 10
15.592281181866673
 20
213.64932938326282
 10
15.741052151466672
 20
214.01706764997445
 10
15.925614515200005
 20
214.42480215097814
 10
16.074385484800004
 20
214.90853118186863
 10
16.25894784853334
 20
215.31626566005005
 10
16.40771881813334
 20
215.68400320582887
 10
16.592281181866674
 20
216.09417585196496
 10
16.741052151466675
 20
216.59475066991166
 10
16.92561451520001
 20
217.07191599675517
 10
17.074385484800008
 20
217.57249081470184
 10
17.25894784853334
 20
217.982663460832
 10
17.40771881813334
 20
218.35040100613594
 10
17.592281181866674
 20
218.75813546148333
 10
17.656347631369645
 20
218.9664473075106
 10
17.741052151466675
 20
219.2418637709662
 10
17.92561451520001
 20
219.6495826119335
 10
18.074385484800008
 20
220.01708405473332
 10
18.25894784853334
 20
220.42480289570062
 10
18.40771881813334
 20
220.90853120518346
 10
18.592281181866674
 20
221.31626566053083
 10
18.741052151466675
 20
221.68400320583473
 10
18.92561451520001
 20
222.09417585196496
 10
19.074385484800008
 20
222.59475066991163
 10
19.25894784853334
 20
223.07191599674928
 10
19.40771881813334
 20
223.57249081422103
 10
19.592281181866674
 20
223.9826634375231
 10
19.741052151466675
 20
224.3504002618942
 10
19.92561451520001
 20
224.75811908002754
 10
20.074385484800008
 20
225.24161128605644
 10
20.25894784853334
 20
225.64687629902102
 10
20.40771881813334
 20
225.99753051194926
 10
20.592281181866678
 20
226.3358028213783
 10
20.741052151466675
 20
226.68645703383163
 10
20.901096032558986
 20
227.03788394764157
 10
20.92561451520001
 20
227.0917220239681
 10
21.074385484800008
 20
227.57521350906424
 10
21.258947848533342
 20
227.98291668998345
 10
21.40771881813334
 20
228.3504174109007
 10
21.592281181866674
 20
228.75813620620588
 10
21.741052151466675
 20
229.24186379428096
 10
21.92561451520001
 20
229.64958261240844
 10
22.074385484800008
 20
230.01708405425833
 10
22.25894784853334
 20
230.42480287238587
 10
22.40771881813334
 20
230.90853046046098
 10
22.592281181866674
 20
231.3162492557662
 10
22.741052151466675
 20
231.68374997668334
 10
22.788939040342456
 20
231.78953339061488
 10
22.92561451520001
 20
232.09145315760264
 10
23.074385484800008
 20
232.57494464269865
 10
23.258947848533342
 20
232.98020963282926
 10
23.407718818133343
 20
233.33086384480768
 10
23.592281181866674
 20
233.66913613140275
 10
23.741052151466675
 20
234.01978962292324
 10
23.92561451520001
 20
234.42503897584567
 10
24.07438548480001
 20
234.9082943574878
 10
24.258947848533346
 20
235.31354371040433
 10
24.407718818133343
 20
235.66419720144995
 10
24.592281181866678
 20
236.00246946521688
 10
24.741052151466675
 20
236.3531229562625
 10
24.92561451520001
 20
236.75837230917904
 10
25.074385484800008
 20
237.24162769082113
 10
25.258947848533342
 20
237.64687704373767
 10
25.40771881813334
 20
237.99753053478327
 10
25.592281181866678
 20
238.3358027985502
 10
25.741052151466675
 20
238.6864562895958
 10
25.92561451520001
 20
239.09170564251238
 10
26.074385484800008
 20
239.57496102415448
 10
26.258947848533342
 20
239.98021037707102
 10
26.40771881813334
 20
240.3308638681166
 10
26.592281181866678
 20
240.6691361318835
 10
26.616645879357552
 20
240.72656377557243
 10
26.741052151466675
 20
241.01978962292912
 10
26.92561451520001
 20
241.4250389758457
 10
27.074385484800008
 20
241.90829435748782
 10
27.258947848533342
 20
242.31354371040433
 10
27.407718818133343
 20
242.6641972014499
 10
27.592281181866678
 20
243.00246946521096
 10
27.74105215146668
 20
243.35312295578166
 10
27.92561451520001
 20
243.75837228587008
 10
28.07438548480001
 20
244.24162694657946
 10
28.258947848533346
 20
244.64686066228774
 10
28.407718818133343
 20
244.9972780503543
 10
28.592281181866678
 20
245.33309650894662
 10
28.592748333235765
 20
245.33414468648502
 10
28.74105215146668
 20
245.6669034910534
 10
28.92561451520001
 20
246.0027219496399
 10
29.07438548480001
 20
246.35313933723157
 10
29.258947848533346
 20
246.75837303011178
 10
29.407718818133343
 20
247.24162696988836
 10
29.592281181866678
 20
247.64686066276855
 10
29.741052151466675
 20
247.9972780503602
 10
29.92561451520001
 20
248.33309650894665
 10
30.074385484800008
 20
248.6669034910534
 10
30.258947848533342
 20
249.00272194963986
 10
30.40771881813334
 20
249.35313933723157
 10
30.592281181866678
 20
249.75837303011178
 10
30.741052151466675
 20
250.24162696988836
 10
30.92561451520001
 20
250.64686066276855
 10
31.074385484800008
 20
250.99727805036017
 10
31.258947848533342
 20
251.33309650894662
 10
31.407718818133343
 20
251.6669034910534
 10
31.592281181866678
 20
252.0027219496399
 10
31.74105215146668
 20
252.35313933723154
 10
31.92561451520001
 20
252.7583730301059
 10
32.074385484800004
 20
253.24162696940755
 10
32.25894784853334
 20
253.64686063945965
 10
32.40771881813334
 20
253.9972773061185
 10
32.45988483874712
 20
254.09219100654929
 10
32.592281181866674
 20
254.33308012749677
 10
32.741052151466675
 20
254.66665100662453
 10
32.92561451520001
 20
255.0000156600422
 10
33.074385484800004
 20
255.33358653917
 10
33.25894784853334
 20
255.66938936054825
 10
33.40771881813334
 20
256.0198060272071
 10
33.592281181866674
 20
256.4250396972533
 10
33.741052151466675
 20
256.90829363608003
 10
33.92561451520001
 20
257.3135273061204
 10
34.074385484800004
 20
257.6639439723044
 10
34.25894784853334
 20
257.9997467708486
 10
34.40771881813334
 20
258.33331692856865
 10
34.592281181866674
 20
258.6666659219442
 10
34.741052151466675
 20
258.9999999766853
 10
34.92561451520001
 20
259.3333333328584
 10
35.074385484800004
 20
259.6666666671416
 10
35.25894784853334
 20
260.0000000233148
 10
35.40771881813334
 20
260.3333340780558
 10
35.592281181866674
 20
260.6666830714314
 10
35.741052151466675
 20
261.0002532291515
 10
35.92561451520001
 20
261.33605602769575
 10
36.074385484800004
 20
261.6864726938797
 10
36.25894784853334
 20
262.09170636392
 10
36.40771881813334
 20
262.5749603027467
 10
36.592281181866674
 20
262.9801939727871
 10
36.741052151466675
 20
263.33061063897105
 10
36.92561451520001
 20
263.66641343751525
 10
37.074385484800004
 20
263.99998359523534
 10
37.25894784853334
 20
264.3333325886108
 10
37.40771881813334
 20
264.6666666433519
 10
37.592281181866674
 20
264.99999999951916
 10
37.741052151466675
 20
265.33333333332746
 10
37.92561451520001
 20
265.6666666666667
 10
38.074385484800004
 20
266.0
 10
38.25894784853334
 20
266.3333333333333
 10
38.40771881813334
 20
266.6666666666667
 10
38.592281181866674
 20
267.0
 10
38.708521115927375
 20
267.26044492948506
 10
38.741052151466675
 20
267.3333333333333
 10
38.92561451520001
 20
267.6666666666667
 10
39.074385484800004
 20
268.0
 10
39.25894784853334
 20
268.3333333333333
 10
39.40771881813334
 20
268.6666666666667
 10
39.592281181866674
 20
269.0
 10
39.741052151466675
 20
269.3333333333333
 10
39.92561451520001
 20
269.6666666666667
 10
40.07438548480001
 20
270.0
 10
40.25894784853334
 20
270.3333333333333
 10
40.40771881813334
 20
270.6666666666667
 10
40.592281181866674
 20
271.0
 10
40.741052151466675
 20
271.3333333333333
 10
40.92561451520001
 20
271.6666666666667
 10
41.074385484800004
 20
272.0
 10
41.25894784853334
 20
272.3333333333333
 10
41.40771881813334
 20
272.6666666666667
 10
41.592281181866674
 20
273.0
 10
41.741052151466675
 20
273.3333333333333
 10
41.92561451520001
 20
273.6666666666667
 10
42.074385484800004
 20
274.0
 10
42.25894784853334
 20
274.3333333333333
 10
42.40771881813334
 20
274.6666666666667
 10
42.592281181866674
 20
275.0
 10
42.741052151466675
 20
275.3333333333333
 10
42.92561451520001
 20
275.6666666666667
 10
43.074385484800004
 20
276.0
 10
43.258947848533374
 20
276.33333333333337
 10
43.40771881813924
 20
276.6666666666726
 10
43.592281182347506
 20
277.00000000048084
 10
43.74105217478148
 20
277.3333333566481
 10
43.92561525992253
 20
277.6666674113892
 10
44.074401889564726
 20
278.0000164047648
 10
44.25920107768478
 20
278.3335865624848
 10
44.410441512495716
 20
278.66938936102906
 10
44.61208720907964
 20
279.01980602721295
 10
44.83275851538667
 20
279.42503969725334
 10
45.16724148461337
 20
279.90829363608003
 10
45.38791279092039
 20
280.3135273061204
 10
45.589558487504306
 20
280.6639439723044
 10
45.74079892231524
 20
280.9997467708486
 10
45.92559811043529
 20
281.33331692856865
 10
46.074384740077484
 20
281.6666659219442
 10
46.25894782521853
 20
281.9999999766852
 10
46.40771881765252
 20
282.3333333328525
 10
46.59228118186078
 20
282.66666666666083
 10
46.74105215146664
 20
283.0
 10
46.84079797040316
 20
283.1801483554914
 10
46.92561451520001
 20
283.3333333333333
 10
47.074385484800004
 20
283.6666666666667
 10
47.25894784853334
 20
284.0
 10
47.40771881813334
 20
284.3333333333333
 10
47.5922811818667
 20
284.66666666666674
 10
47.741052151472566
 20
285.0000000000059
 10
47.925614515680834
 20
285.33333333381415
 10
48.07438550811482
 20
285.66666668998147
 10
48.25894859325587
 20
286.00000074472257
 10
48.407735222898054
 20
286.3333497380981
 10
48.592534411018114
 20
286.6669198958182
 10
48.743774845829044
 20
287.00272269436243
 10
48.945420542412975
 20
287.3531393605463
 10
49.16609184872001
 20
287.7583730305867
 10
49.500574817946735
 20
288.24162696941346
 10
49.721246124259615
 20
288.64686063945965
 10
49.922891821318466
 20
288.9972773061186
 10
50.07413227896339
 20
289.3330801274968
 10
50.25893218849115
 20
289.66665100662453
 10
50.40773447817553
 20
290.0000156600422
 10
50.5925343877033
 20
290.33358653917
 10
50.74377484534822
 20
290.6693893605483
 10
50.861031077021664
 20
290.8731553642234
 10
50.94542054240712
 20
291.0198060272071
 10
51.16609184872586
 20
291.4250396972592
 10
51.500574818427516
 20
291.90829363656087
 10
51.721246147568536
 20
292.3135273294352
 10
51.92289256556017
 20
292.66394471702694
 10
52.07414866041329
 20
292.9997631756134
 10
52.259184672920064
 20
293.33357015772015
 10
52.41044076777319
 20
293.66938861630655
 10
52.612087185764864
 20
294.0198060038982
 10
52.83275851491174
 20
294.4250396967784
 10
53.1672414850883
 20
294.908293636555
 10
53.38791281423517
 20
295.3135273294352
 10
53.58955923222683
 20
295.66394471702694
 10
53.74081532707996
 20
295.9997631756134
 10
53.925851339586764
 20
296.33357015772015
 10
54.07710743444575
 20
296.6693886163124
 10
54.27875385291232
 20
297.019806004379
 10
54.49942520488733
 20
297.4250397200873
 10
54.83390889599667
 20
297.9082943807967
 10
55.05459586235175
 20
298.3135437108851
 10
55.25647838332245
 20
298.66419720145575
 10
55.41018828335018
 20
299.00246946521685
 10
55.61207080479575
 20
299.35312295626244
 10
55.83275779397896
 20
299.7583723091789
 10
56.167242206021086
 20
300.2416276908211
 10
56.387929195204286
 20
300.6468770437377
 10
56.41953913518226
 20
300.70178093400835
 10
56.58981171664989
 20
300.9975305347832
 10
56.74352161668348
 20
301.33580279855016
 10
56.94540413812909
 20
301.68645628959575
 10
57.16609112731229
 20
302.0917056425123
 10
57.50057553935445
 20
302.57496102415445
 10
57.721262528543505
 20
302.98021037707684
 10
57.92314505046401
 20
303.33086386859736
 10
58.07685497332573
 20
303.6691361551924
 10
58.278738215704124
 20
304.0197903671708
 10
58.499440842095524
 20
304.4250553572956
 10
58.643240675451814
 20
304.6327689326446
 10
58.83416135711668
 20
304.9085468419167
 10
59.057302151474495
 20
305.31625000000787
 10
59.276031181858876
 20
305.6837499999922
 10
59.499171976216694
 20
306.09145315808337
 10
59.83389249123788
 20
306.57494464270457
 10
60.05459511763515
 20
306.98020963283517
 10
60.25647836048843
 20
307.33086384528843
 10
60.41018830617827
 20
307.6691361547116
 10
60.61207154903156
 20
308.01979036716494
 10
60.832774175428824
 20
308.42505535729555
 10
61.16749469045002
 20
308.9085468419167
 10
61.39063548480783
 20
309.31625000000787
 10
61.609364515192205
 20
309.6837499999922
 10
61.83250530955002
 20
310.09145315808337
 10
62.16722582457121
 20
310.57494464270457
 10
62.38792845096848
 20
310.98020963283517
 10
62.58981169382176
 20
311.33086384528843
 10
62.7435216395116
 20
311.6691361547116
 10
62.945404882364926
 20
312.01979036716494
 10
63.16610750876805
 20
312.42505535730146
 10
63.500828024264145
 20
312.90854684239747
 10
63.72396884145007
 20
313.3162500233168
 10
63.942698592767265
 20
313.683750744234
 10
64.16585502433915
 20
314.0914695395392
 10
64.30800497191774
 20
314.2967553810319
 10
64.50081164281424
 20
314.5751971276144
 10
64.72396809720837
 20
314.98291594574175
 10
64.94269856945834
 20
315.3504173875917
 10
65.16585502385836
 20
315.7581362057251
 10
65.50081164280839
 20
316.24186379427516
 10
65.72396809721423
 20
316.6495826124143
 10
65.94269856993913
 20
317.01708405473914
 10
66.16585504716727
 20
317.4248028957006
 10
66.50081238705009
 20
317.9085312051835
 10
66.60953049476127
 20
318.1071587222418
 10
66.72398447866415
 20
318.31626566053086
 10
66.9429510543681
 20
318.68400320583476
 10
67.16856133677082
 20
319.0941758519709
 10
67.5203651855924
 20
319.5947506703925
 10
67.81296817153068
 20
320.0719160200641
 10
68.16477274081016
 20
320.57249155894357
 10
68.39039866042113
 20
320.98267984228784
 10
68.60960133957899
 20
321.35065349104565
 10
68.83522725919576
 20
321.7608417743958
 10
69.18703182895017
 20
322.26141731375026
 10
69.47963483772244
 20
322.73858268625577
 10
69.83143940795175
 20
323.23915822608507
 10
70.05706535039668
 20
323.64934653226334
 10
70.27626875048735
 20
324.017320901954
 10
70.50191030731233
 20
324.4275248225124
 10
70.85395098004575
 20
324.9283364648458
 10
71.14900779398677
 20
325.4079556425202
 10
71.51765887267997
 20
325.9253776908134
 10
71.81271568662686
 20
326.4049968684935
 10
72.16475635983522
 20
326.90580851130187
 10
72.3903979394942
 20
327.3160124546942
 10
72.47565948634494
 20
327.4591398979883
 10
72.60960206099259
 20
327.6839875457926
 10
72.83524366347967
 20
328.0941915120131
 10
73.18728505809571
 20
328.59500387622916
 10
73.48235753208478
 20
329.0746387139515
 10
73.85124543516471
 20
329.59229758663145
 10
74.14877171431665
 20
330.07438622951673
 10
74.51789571990068
 20
330.5922812047007
 10
74.81543761343272
 20
331.0743854619661
 10
75.1845616190167
 20
331.5922804371501
 10
75.48208789816867
 20
332.0743690800354
 10
75.57242739183039
 20
332.20114211882833
 10
75.85097580124858
 20
332.5920279527153
 10
76.14604827523765
 20
333.0716627904377
 10
76.49808966985373
 20
333.5724751546537
 10
76.72373127234671
 20
333.98267912088
 10
76.94293539432002
 20
334.3506542124534
 10
77.16857699681297
 20
334.7608581786797
 10
77.52061839142905
 20
335.26167054289584
 10
77.81569086541812
 20
335.7413053806182
 10
78.18457876849808
 20
336.25896425329813
 10
78.48210504765588
 20
336.7410528961893
 10
78.85122905371483
 20
337.2589478718482
 10
79.14877097008085
 20
337.7410521519476
 10
79.51789569707257
 20
338.2589478485394
 10
79.81543763626672
 20
338.7410521514668
 10
80.18456236373338
 20
339.25894784853347
 10
80.48210430293923
 20
339.7410521514727
 10
80.85122903088084
 20
340.25894784901425
 10
81.14877099291483
 20
340.74105217478154
 10
81.5178964417892
 20
341.258948593256
 10
81.8154540410314
 20
341.7410685562315
 10
82.18481559288477
 20
342.25920107768485
 10
82.48482699729573
 20
342.74377484582914
 10
82.87103505761299
 20
343.27875387574636
 10
83.24047733352
 20
343.83275851538684
 10
83.75952266648005
 20
344.50057481794687
 10
84.12896494239295
 20
345.05457945759304
 10
84.2499288011202
 20
345.22213972995416
 10
90.01178796370957
 20
341.16418066534544
 10
93.33666595644043
 20
338.8225373851829
 10
97.32107180013452
 20
336.0164021857185
 10
97.93844058769447
 20
336.8688257363956
 10
98.55922692689447
 20
337.74112373004556
 10
99.16107448169447
 20
338.59145963044557
 10
99.78186082089448
 20
339.46375762404557
 10
100.43451277774447
 20
340.36489792649564
 10
101.04145290654448
 20
341.22334971009565
 10
101.59694680954448
 20
342.0273319906956
 10
102.12334778474447
 20
342.80524577629564
 10
102.67875350779447
 20
343.6091647089456
 10
103.28482148704448
 20
344.46709764049564
 10
103.93140008964448
 20
345.3656407790956
 10
104.5223277528945
 20
346.2321965913456
 10
105.02233959964448
 20
347.09838768759556
 10
105.41026396464447
 20
348.1330300463956
 10
105.72073198319448
 20
349.5638473358456
 10
106.00284065669449
 20
351.26363775904554
 10
106.32462428629448
 20
352.67366954614556
 10
106.75320624399447
 20
353.6251543500456
 10
107.36384941894447
 20
354.25910371409566
 10
108.21695103464448
 20
354.6629745533956
 10
109.40582432464447
 20
354.8775379477456
 10
110.79734073949447
 20
354.8952184496456
 10
111.95763099694449
 20
354.7489785679456
 10
112.77050583684448
 20
354.5152537640956
 10
113.41723432479448
 20
354.2114452328456
 10
114.08816222559449
 20
353.81051610474566
 10
114.88295095019448
 20
353.26341464954567
 10
115.8074580236945
 20
352.5724690291456
 10
116.7588333462945
 20
351.80179744424555
 10
117.5259085768945
 20
351.1076926851456
 10
118.08633422894448
 20
350.4595305770956
 10
118.53797140919447
 20
349.7619709895456
 10
118.87692203664446
 20
348.9609002900956
 10
119.07118355529448
 20
347.97428600474564
 10
119.06812493559448
 20
346.86194607184564
 10
118.85828208669447
 20
345.8883265383456
 10
118.46690176684447
 20
345.13362000874565
 10
117.89184812439449
 20
344.5523541247456
 10
117.13805864549448
 20
344.1297539560956
 10
116.16484220764447
 20
343.8084015948956
 10
115.05439024444448
 20
343.5233223370956
 10
114.07510030384448
 20
343.1977107536957
 10
113.29057674234448
 20
342.7573157943956
 10
112.60747839489449
 20
342.1330597828456
 10
111.95202174574447
 20
341.3430913485956
 10
111.28855527114449
 20
340.4631741811956
 10
110.67925173819448
 20
339.6086534523456
 10
110.12339594634449
 20
338.8051970204956
 10
109.59695008634448
 20
338.0273286976956
 10
109.04145305534448
 20
337.2233495610956
 10
108.43451278179448
 20
336.3648979224456
 10
107.78186082094449
 20
335.46375762399555
 10
107.16107448169447
 20
334.5914596304455
 10
106.55922692689447
 20
333.7411237300456
 10
105.93844058769447
 20
332.8688257364456
 10
105.28578863064448
 20
331.9676854337956
 10
104.67884848579448
 20
331.1092336346456
 10
104.55114748636184
 20
330.92440837940893
 10
104.82118369310425
 20
330.73422742531034
 10
110.68126017044652
 20
326.6070959232198
 10
113.98421236676671
 20
324.2808945311324
 10
117.27746862607724
 20
321.9615217883348
 10
118.23742352111107
 20
321.2854452724056
 10
118.05706460616088
 20
320.9826791213609
 10
117.83142302650188
 20
320.57247517796856
 10
117.47938235329352
 20
320.07166353516027
 10
117.18432553934664
 20
319.59204435748
 10
116.81567446065345
 20
319.07462230918685
 10
116.52061764671244
 20
318.5950031315125
 10
116.168576973979
 20
318.0941914891791
 10
115.94293541715402
 20
317.6839875686207
 10
115.72373201706337
 20
317.31601319893
 10
115.49810607461842
 20
316.9058248927517
 10
115.14630150438911
 20
316.40524935292245
 10
114.85369849561685
 20
315.9280839804169
 10
114.50189392586243
 20
315.4275084410624
 10
114.27626800624564
 20
315.0173201577123
 10
114.0570653270878
 20
314.64934650895447
 10
113.83143940747685
 20
314.2391582256102
 10
113.49377336896154
 20
313.75870011349053
 10
113.47963483819734
 20
313.7385826867307
 10
113.18703185225907
 20
313.26141733705913
 10
112.83522800343748
 20
312.7608425186375
 10
112.60961772102888
 20
312.35066987249553
 10
112.39065114485003
 20
311.98293232671676
 10
112.16747903040783
 20
311.5751978485413
 10
111.83252096959221
 20
311.09146881812563
 10
111.60934885515003
 20
310.68373433995004
 10
111.39038227897123
 20
310.3159967941712
 10
111.16477199656849
 20
309.90582414803515
 10
110.81296814822177
 20
309.40524933008845
 10
110.5203651851116
 20
308.92808400324503
 10
110.16856133676492
 20
308.4275091852983
 10
109.94295105436807
 20
308.01733653916807
 10
109.72398447866415
 20
307.64959899386423
 10
109.50081238705009
 20
307.2418645385169
 10
109.16585504716727
 20
306.75813622903394
 10
108.94269856993913
 20
306.35041738807246
 10
108.72396809721423
 20
305.9829159457476
 10
108.50081164280839
 20
305.57519712760853
 10
108.16585502385836
 20
305.0914695390585
 10
107.94269856945834
 20
304.68375072092505
 10
107.72396809720834
 20
304.31624927907507
 10
107.50081164280834
 20
303.90853046094185
 10
107.16585502385837
 20
303.4248028723918
 10
106.94269856945836
 20
303.01708405425836
 10
106.72396809720837
 20
302.64958261240844
 10
106.50081164280837
 20
302.24186379427516
 10
106.16585502385837
 20
301.7581362057251
 10
105.94269856945837
 20
301.3504173875917
 10
105.72396809720837
 20
300.98291594574175
 10
105.50081164280837
 20
300.5751971276085
 10
105.16585502385837
 20
300.0914695390585
 10
104.94269856945836
 20
299.68375072092505
 10
104.7239680972084
 20
299.31624927907507
 10
104.50081164281426
 20
298.9085304609477
 10
104.16585502433917
 20
298.42480287287253
 10
103.94269859276729
 20
298.0170840775673
 10
103.72396884145009
 20
297.64958335665017
 10
103.50082802426415
 20
297.24188017573084
 10
103.16610750876809
 20
296.75838869063483
 10
103.1622115447879
 20
296.7512347304407
 10
102.94540488237082
 20
296.35312370050417
 10
102.74352163999241
 20
296.0024694885257
 10
102.5898117171307
 20
295.6641972019307
 10
102.38792919521016
 20
295.31354371041016
 10
102.16724220602111
 20
294.90829435748776
 10
101.83275779397897
 20
294.4250389758456
 10
101.61207080479575
 20
294.01978962292907
 10
101.41018828335015
 20
293.6691361318835
 10
101.25647838331655
 20
293.3308638681165
 10
101.05459586187094
 20
292.980210377071
 10
100.83390887268774
 20
292.57496102415445
 10
100.49942446064561
 20
292.0917056425123
 10
100.27873747146242
 20
291.68645628959575
 10
100.07685495001682
 20
291.33580279855016
 10
99.92314504998322
 20
290.9975305347832
 10
99.72126252853761
 20
290.6468770437377
 10
99.50057553935441
 20
290.2416276908211
 10
99.16609112731228
 20
289.7583723091789
 10
99.0038796434762
 20
289.4605020128669
 10
98.94540413812908
 20
289.35312295626244
 10
98.74352161668351
 20
289.00246946521685
 10
98.58981171665579
 20
288.66419720145575
 10
98.3879291956851
 20
288.31354371088514
 10
98.1672422293359
 20
287.90829438080254
 10
97.83275853870144
 20
287.42503972056807
 10
97.61208720955459
 20
287.01980602768793
 10
97.41044151202078
 20
286.66938936055413
 10
97.25920105437001
 20
286.3335865391701
 10
97.07440114484221
 20
286.0000156600422
 10
96.93851756448345
 20
285.6955930414956
 10
96.92559885515783
 20
285.66665100662453
 10
96.74079894563008
 20
285.3330801274968
 10
96.58955848798517
 20
284.9972773061186
 10
96.3879127909263
 20
284.64686063945965
 10
96.16724148461341
 20
284.24162696941346
 10
95.83275851538664
 20
283.75837303058665
 10
95.61208720907375
 20
283.35313936054047
 10
95.4104415120149
 20
283.00272269388165
 10
95.25920105436997
 20
282.66691987250334
 10
95.0744011448422
 20
282.3333489933755
 10
94.92559885515783
 20
281.99998433995785
 10
94.74079894563008
 20
281.6664134608301
 10
94.58955848798516
 20
281.3306106394519
 10
94.3879127909263
 20
280.980193972793
 10
94.1672414846134
 20
280.5749603027468
 10
93.83275851538669
 20
280.09170636392
 10
93.61208720907965
 20
279.6864726938797
 10
93.4104415124957
 20
279.33605602769575
 10
93.2592010776789
 20
279.0002532291456
 10
93.0744018890839
 20
278.66668307095057
 10
92.92561523660773
 20
278.3333340547411
 10
92.74105143005897
 20
277.9999992785923
 10
92.59226477758278
 20
277.66665026238286
 10
92.4074655889878
 20
277.33308010418784
 10
92.256225154171
 20
276.99727730563774
 10
92.108843481644
 20
276.7411597925024
 10
92.05457945758705
 20
276.6468606394538
 10
91.83390815128003
 20
276.2416269694134
 10
91.49942518205334
 20
275.7583730305867
 10
91.27875387574632
 20
275.3531393605463
 10
91.0771081791624
 20
275.00272269436243
 10
90.92586774435145
 20
274.6669198958182
 10
90.7410685562314
 20
274.3333497380981
 10
90.59228192658921
 20
274.00000074472257
 10
90.40771884144816
 20
273.66666668998147
 10
90.25894784901416
 20
273.33333333381415
 10
90.07438548480592
 20
273.0000000000059
 10
89.92561451520005
 20
272.66666666666674
 10
89.74105215146669
 20
272.3333333333333
 10
89.59228118186668
 20
272.0
 10
89.40771881813335
 20
271.6666666666667
 10
89.25894784853334
 20
271.3333333333333
 10
89.07438548480002
 20
271.0
 10
88.92561451520002
 20
270.6666666666667
 10
88.74105215146669
 20
270.3333333333333
 10
88.59228118186668
 20
270.0
 10
88.40771881813332
 20
269.6666666666667
 10
88.25894784852746
 20
269.33333333332746
 10
88.07438548431917
 20
268.99999999951916
 10
87.9256144918852
 20
268.6666666433519
 10
87.74105140674416
 20
268.3333325886108
 10
87.62233421533698
 20
268.0673526659046
 10
87.59226477710197
 20
267.99998359523534
 10
87.40746558898192
 20
267.66641343751525
 10
87.25622515417098
 20
267.33061063897105
 10
87.05457945758705
 20
266.9801939727871
 10
86.83390815128003
 20
266.5749603027467
 10
86.49942518205334
 20
266.09170636392
 10
86.27875387574632
 20
265.6864726938797
 10
86.0771081791624
 20
265.33605602769575
 10
85.92586774435145
 20
265.0002532291515
 10
85.7410685562314
 20
264.6666830714314
 10
85.59228192658921
 20
264.3333340780558
 10
85.40771884144816
 20
264.0000000233089
 10
85.25894784901416
 20
263.6666666666667
 10
85.07438548480592
 20
263.33333331002444
 10
84.92561451520005
 20
262.9999992552775
 10
84.74105215146669
 20
262.666650261902
 10
84.59228118186668
 20
262.33308010418193
 10
84.40771881813335
 20
261.99727730563774
 10
84.25894784853334
 20
261.6468606394538
 10
84.07438548480002
 20
261.2416269694134
 10
83.92561451520002
 20
260.7583730305867
 10
83.74105215146669
 20
260.3531393605463
 10
83.59228118186668
 20
260.00272269436243
 10
83.40771881813335
 20
259.6669198958182
 10
83.25894784853334
 20
259.3333497380981
 10
83.07438548480002
 20
259.00000074472257
 10
82.92561451520002
 20
258.66666668998147
 10
82.7966131547245
 20
258.43368063817957
 10
82.7410521514667
 20
258.33333333381415
 10
82.5922811818667
 20
258.0000000000059
 10
82.40771881813335
 20
257.66666666666674
 10
82.25894784853334
 20
257.3333333333333
 10
82.07438548480002
 20
257.0
 10
81.92561451520002
 20
256.6666666666667
 10
81.74105215146669
 20
256.3333333333333
 10
81.59228118186668
 20
256.0
 10
81.40771881813335
 20
255.66666666666666
 10
81.25894784853334
 20
255.33333333333331
 10
81.07438548480002
 20
254.99999999999412
 10
80.98595267647939
 20
254.80185917389878
 10
80.92561451520002
 20
254.66666666618585
 10
80.74105215146669
 20
254.33333331001856
 10
80.59228118186668
 20
253.9999992552775
 10
80.40771881813336
 20
253.66665026190196
 10
80.25894784853335
 20
253.33308010418193
 10
80.07438548480002
 20
252.99727730563768
 10
79.92561451520002
 20
252.64686063945376
 10
79.74105215146669
 20
252.24162696941343
 10
79.59228118186668
 20
251.75837303058674
 10
79.40771881813335
 20
251.35313936054638
 10
79.25894784853334
 20
251.00272269436243
 10
79.07438548480002
 20
250.66691989581815
 10
78.92561451520002
 20
250.33334973809806
 10
78.74105215146669
 20
250.00000074471666
 10
78.59228118186668
 20
249.66666668950066
 10
78.40771881813335
 20
249.33333331049937
 10
78.25894784853334
 20
248.99999925528337
 10
78.07438548480002
 20
248.666650261902
 10
77.92561451520002
 20
248.33308010418193
 10
77.74105215146669
 20
247.99727730563768
 10
77.59228118186668
 20
247.64686063945376
 10
77.40771881813335
 20
247.24162696941343
 10
77.25894784853334
 20
246.7583730305867
 10
77.07438548480002
 20
246.3531393605405
 10
76.92561451520002
 20
246.00272269388162
 10
76.74105215146669
 20
245.66691987250334
 10
76.68170981171006
 20
245.5338638300823
 10
76.59228118186668
 20
245.33334899337555
 10
76.40771881813335
 20
244.99998433995785
 10
76.25894784853334
 20
244.66641346083009
 10
76.07438548480002
 20
244.33061063945183
 10
75.92561451520002
 20
243.980193972793
 10
75.74105215146669
 20
243.57496030274086
 10
75.59228118186668
 20
243.09170636343924
 10
75.40771881813335
 20
242.68647267056485
 10
75.25894784853334
 20
242.33605528297323
 10
75.07438548480002
 20
242.00023682438675
 10
74.92561451520002
 20
241.66642984228
 10
74.74105215146669
 20
241.33061138369354
 10
74.72369508204845
 20
241.28972828036942
 10
74.59228118186668
 20
240.9801939961019
 10
74.40771881813335
 20
240.57496030322167
 10
74.25894784853334
 20
240.09170636344513
 10
74.07438548480002
 20
239.68647267056488
 10
73.92561451520002
 20
239.33605528297323
 10
73.74105215146669
 20
239.00023682438672
 10
73.59228118186668
 20
238.66642984227997
 10
73.40771881813335
 20
238.3306113836935
 10
73.25894784853334
 20
237.9801939961019
 10
73.07438548480002
 20
237.57496030322167
 10
72.92561451520002
 20
237.09170636344513
 10
72.74105215146669
 20
236.68647267056488
 10
72.59228118186668
 20
236.3360552829732
 10
72.40771881813335
 20
236.00023682438672
 10
72.25894784853334
 20
235.66642984227997
 10
72.07438548480002
 20
235.33061138368765
 10
71.97744917652642
 20
235.10228613955312
 10
71.92561451520002
 20
234.9801939956211
 10
71.74105215146669
 20
234.57496027991277
 10
71.59228118186668
 20
234.09170561920342
 10
71.40771881813335
 20
233.68645628911497
 10
71.25894784853334
 20
233.33580279854434
 10
71.07438548480002
 20
232.99753053478324
 10
70.92561451520002
 20
232.64687704373767
 10
70.74105215146669
 20
232.24162769082113
 10
70.59228118186668
 20
231.75837230917904
 10
70.40771881813335
 20
231.3531229562625
 10
70.25894784853334
 20
231.00246946521688
 10
70.07438548480002
 20
230.66419720144995
 10
69.92561451520002
 20
230.31354371040433
 10
69.74105215146669
 20
229.9082943574878
 10
69.59228118186668
 20
229.42503897584567
 10
69.40771881813335
 20
229.01978962292324
 10
69.25894784853334
 20
228.66913613140275
 10
69.07438548480002
 20
228.33086384480768
 10
68.92561451520002
 20
227.98020963282926
 10
68.74105215146669
 20
227.57494464269865
 10
68.59228118186668
 20
227.09145315760264
 10
68.40771881813335
 20
226.68374997668334
 10
68.25894784853334
 20
226.3162492557662
 10
68.07438548480002
 20
225.90853046046098
 10
67.92561451520002
 20
225.42480287238587
 10
67.74105215146669
 20
225.01708405425833
 10
67.59228118186668
 20
224.6495826124084
 10
67.40771881813335
 20
224.24186379427505
 10
67.25894784853334
 20
223.75813620572507
 10
67.07438548480002
 20
223.3504173875917
 10
66.92561451520002
 20
222.98291594574172
 10
66.74105215146669
 20
222.5751971276084
 10
66.59228118186668
 20
222.0914695390584
 10
66.40771881813335
 20
221.68375072092508
 10
66.25894784853334
 20
221.31624927907507
 10
66.07438548480002
 20
220.90853046094173
 10
65.92561451520002
 20
220.42480287239175
 10
65.74105215146669
 20
220.0170840542584
 10
65.59228118186668
 20
219.6495826124084
 10
65.40771881813335
 20
219.24186379427505
 10
65.39745056730534
 20
219.20847666085103
 10
65.25894784853334
 20
218.75813620572504
 10
65.07438548480002
 20
218.35041738758585
 10
64.92561451520002
 20
217.98291594526094
 10
64.74105215146669
 20
217.5751971042995
 10
64.59228118186668
 20
217.09146879481668
 10
64.40771881813335
 20
216.68373433946925
 10
64.25894784853334
 20
216.31599679416533
 10
64.07438548480002
 20
215.90582414803518
 10
63.92939309649831
 20
215.4179632530439
 10
63.92561451520001
 20
215.4052493300885
 10
63.741052151466675
 20
214.928084003245
 10
63.592281181866674
 20
214.42750918529828
 10
63.40771881813334
 20
214.0173365391622
 10
63.258947848533346
 20
213.6495989933834
 10
63.07438548480001
 20
213.24186451520785
 10
62.92561451520001
 20
212.75813548479226
 10
62.741052151466675
 20
212.35040100661672
 10
62.59228118186668
 20
211.98266346083787
 10
62.40771881813335
 20
211.57249081469598
 10
62.25894784853334
 20
211.07191599627438
 10
62.07438548480001
 20
210.59475064660273
 10
61.92561451520001
 20
210.09417510772323
 10
61.88270969455464
 20
209.9988195088258
 10
61.741052151466675
 20
209.68398682437896
 10
61.592281181866674
 20
209.31601317562112
 10
61.40771881813335
 20
208.90582489227103
 10
61.258947848533346
 20
208.4052493529166
 10
61.07438548480001
 20
207.92808398041686
 10
60.92561451520001
 20
207.42750844106249
 10
60.741052151466675
 20
207.01732015771233
 10
60.59228118186668
 20
206.64934650895447
 10
60.40771881813335
 20
206.23915822560434
 10
60.258947848533346
 20
205.73858268624994
 10
60.07438548480001
 20
205.2614173137502
 10
60.03616867457271
 20
205.13282770756982
 10
59.92561451520001
 20
204.7608417743958
 10
59.741052151466675
 20
204.35065349104568
 10
59.59228118186668
 20
203.98267984228778
 10
59.40771881813335
 20
203.57249155893768
 10
59.258947848533346
 20
203.07191601958326
 10
59.074385484800004
 20
202.59475064707763
 10
58.92561451520001
 20
202.09417510724836
 10
58.741052151466675
 20
201.6839868010701
 10
58.592281181866674
 20
201.31601243137945
 10
58.40771881813334
 20
200.9058085108211
 10
58.394549187436446
 20
200.86147523534424
 10
58.258947848533346
 20
200.40499686848767
 10
58.07438548480001
 20
199.92537769081332
 10
57.92561451520001
 20
199.40795564252014
 10
57.741052151466675
 20
198.9283364648399
 10
57.59228118186668
 20
198.42752482203156
 10
57.40771881813335
 20
198.0173208786392
 10
57.25894784853334
 20
197.64934578754085
 10
57.07438548480001
 20
197.2391418213204
 10
56.92561451520001
 20
196.7383294571044
 10
56.741052151466675
 20
196.25869461938788
 10
56.592281181866674
 20
195.74103574718285
 10
56.40771881813335
 20
195.2589471271257
 10
56.258947848533346
 20
194.7410528728745
 10
56.07438548480001
 20
194.25896425281732
 10
55.92561451520001
 20
193.7413053806123
 10
55.741052151466675
 20
193.26167054289573
 10
55.592281181866674
 20
192.7608581786797
 10
55.40771881813334
 20
192.35065421245338
 10
55.40227831405449
 20
192.33719748771733
 10
55.258947848533346
 20
191.98267912088008
 10
55.07438548480001
 20
191.57247515465377
 10
54.92561451520001
 20
191.07166279043764
 10
54.741052151466675
 20
190.5920279527153
 10
54.59228118186668
 20
190.07436908003535
 10
54.40771881813335
 20
189.5922804371442
 10
54.25894784853334
 20
189.07438546148526
 10
54.074385484800004
 20
188.5922811813859
 10
53.92561451520001
 20
188.07438548479416
 10
53.741052151466675
 20
187.59228118186667
 10
53.592281181866674
 20
187.07438548480008
 10
53.40771881813334
 20
186.5922811818667
 10
53.258947848533346
 20
186.07438548480005
 10
53.07438548480001
 20
185.59228118186084
 10
52.92561451520001
 20
185.07438548431924
 10
52.741052151466675
 20
184.59228115855194
 10
52.59228118186668
 20
184.07438474007753
 10
52.40771881813335
 20
183.59226477710203
 10
52.304589077826385
 20
183.23308937799192
 10
52.25894784853334
 20
183.07413225564864
 10
52.07438548480001
 20
182.58955848750438
 10
51.92561451520001
 20
182.0545794575871
 10
51.741052151466675
 20
181.50057481794673
 10
51.592281181866674
 20
180.83275851538667
 10
51.40771881813335
 20
180.27875387574048
 10
51.258947848533346
 20
179.74377484534827
 10
51.074385484800004
 20
179.25920105437
 10
50.92561451520001
 20
178.7410678115089
 10
50.741052151466675
 20
178.2589321884912
 10
50.592281181866674
 20
177.74079894563013
 10
50.40771881813334
 20
177.25622515465187
 10
50.258947848533346
 20
176.72124612425964
 10
50.07438548480001
 20
176.16724148460756
 10
49.92561451520001
 20
175.49942518157258
 10
49.741052151466675
 20
174.94542051909818
 10
49.59228118186668
 20
174.4104407677732
 10
49.40771881813335
 20
173.9258513395809
 10
49.25894784853334
 20
173.40748199326586
 10
49.074385484800004
 20
172.92289254224542
 10
48.92561451520001
 20
172.38791206951274
 10
48.741052151466675
 20
171.83389174699616
 10
48.592281181866674
 20
171.16583861957446
 10
48.40771881813334
 20
170.60936451471144
 10
48.258947848533346
 20
170.05730215146863
 10
48.171624258408755
 20
169.79401272637685
 10
48.07438548480001
 20
169.50082802378336
 10
47.92561451520001
 20
168.83277417542882
 10
47.741052151466675
 20
168.27873821569824
 10
47.592281181866674
 20
167.74352163951167
 10
47.40771881813334
 20
167.25647836048847
 10
47.25894784853334
 20
166.72126178430182
 10
47.074385484800004
 20
166.16722582456535
 10
46.92561451520001
 20
165.49917197573592
 10
46.741052151466675
 20
164.9426978252108
 10
46.592281181866674
 20
164.39063474008535
 10
46.40771881813334
 20
163.83414495235198
 10
46.25894784853334
 20
163.16585427961078
 10
46.15749677444821
 20
162.85995186292905
 10
46.074385484800004
 20
162.60934885466924
 10
45.92561451520001
 20
162.05704894563203
 10
45.741052151466675
 20
161.49810532990182
 10
45.592281181866674
 20
160.8129681482218
 10
45.40771881813334
 20
160.18703185177833
 10
45.25894784853334
 20
159.50189467009827
 10
45.07438548480001
 20
158.9429510543622
 10
44.92561451520001
 20
158.39065114485
 10
44.77159503846402
 20
157.9262407627211
 10
44.741052151466675
 20
157.83414569706864
 10
44.592281181866674
 20
157.16585430244479
 10
44.40771881813334
 20
156.6093488318411
 10
44.25894784853334
 20
156.05704820139613
 10
44.074385484800004
 20
155.49808894844602
 10
43.92561451520001
 20
154.81271566331202
 10
43.741052151466675
 20
154.1843255388658
 10
43.592281181866674
 20
153.48234112731419
 10
43.50967427218871
 20
153.2010846073586
 10
43.40771881813334
 20
152.85395098003985
 10
43.258947848533346
 20
152.1685769734982
 10
43.074385484800004
 20
151.60960206050584
 10
42.92561451520001
 20
151.05706460567416
 10
42.741052151466675
 20
150.49808966985373
 10
42.592281181866674
 20
149.81271494190432
 10
42.40771881813334
 20
149.18430913458195
 10
42.25894784853334
 20
148.48208789816866
 10
42.074385484800004
 20
147.8512282856775
 10
41.92561451520001
 20
147.14877094628517
 10
41.741052151466675
 20
146.51789569658587
 10
41.592281181866674
 20
145.81543763626078
 10
41.40771881813334
 20
145.18456236373333
 10
41.25894784853334
 20
144.48210430293338
 10
41.074385484800004
 20
143.85122903040005
 10
40.92561451520001
 20
143.14877096960004
 10
40.741052151466675
 20
142.51789569706668
 10
40.68701356949756
 20
142.26273948211107
 10
40.592281181866674
 20
141.81543763626667
 10
40.40771881813334
 20
141.18456236372748
 10
40.25894784853334
 20
140.4821043024525
 10
40.07438548480001
 20
139.8512290070852
 10
39.92561451520001
 20
139.14877022487752
 10
39.741052151466675
 20
138.51787929230198
 10
39.592281181866674
 20
137.81518440711523
 10
39.40771881813334
 20
137.1818396693651
 10
39.25894784853334
 20
136.46229827523962
 10
39.074385484800004
 20
135.75952264316524
 10
38.92561451520001
 20
134.90714325546412
 10
38.741052151466675
 20
134.20435198617574
 10
38.592281181866674
 20
133.48457376766348
 10
38.40771881813334
 20
132.8487595418743
 10
38.25894784853334
 20
132.12898060242924
 10
38.074385484800004
 20
131.42617367309865
 10
37.92561451520001
 20
130.57355746053588
 10
37.741052151466675
 20
129.86831234041077
 10
37.592281181866674
 20
129.13168689155202
 10
37.40771881813334
 20
128.42642613421864
 10
37.33411970344947
 20
128.0045076066407
 10
37.25894784853334
 20
127.57357309774407
 10
37.074385484800004
 20
126.86829670320255
 10
36.92561451520001
 20
126.13143443043197
 10
36.741052151466675
 20
125.4237198450959
 10
36.592281181866674
 20
124.55402029920761
 10
36.40771881813334
 20
123.77931301033014
 10
36.34298399098859
 20
123.40087966011556
 10
36.25894784853334
 20
122.90961274350906
 10
36.074385484800004
 20
122.2018824981308
 10
35.92561451520001
 20
121.46478340049858
 10
35.741052151466675
 20
120.75703751790626
 10
35.592281181866674
 20
119.88710042669841
 10
35.40771881813334
 20
119.10992364977602
 10
35.25894784853334
 20
118.22314004915448
 10
35.074385484800004
 20
117.44350944422936
 10
34.92561451520001
 20
116.55648901969603
 10
34.741052151466675
 20
115.7768271403545
 10
34.592281181866674
 20
114.88956989190935
 10
34.531146568429335
 20
114.63050113886257
 10
34.40771881813334
 20
114.10745418456509
 10
34.25894784853334
 20
113.20335042670627
 10
34.074385484800004
 20
112.35180382503191
 10
33.92561451520001
 20
111.31486207359747
 10
33.741052151466675
 20
110.46329983470905
 10
33.73938620780873
 20
110.45317299032759
 10
33.592281181866674
 20
109.55895925246344
 10
33.40771881813334
 20
108.77437405706839
 10
33.25894784853334
 20
107.87003275341506
 10
33.074385484800004
 20
107.01845483165047
 10
32.92561451520001
 20
105.98127553394667
 10
32.741052151466675
 20
105.12724378417937
 10
32.592281181866674
 20
104.20581914720051
 10
32.455243463335414
 20
103.56986625346134
 10
32.40771881813334
 20
103.3493179550504
 10
32.25894784853334
 20
102.29481922151696
 10
32.074385484800004
 20
101.36887149783442
 10
31.92561451520001
 20
100.29752553442941
 10
31.851990463275374
 20
99.92717546594315
 10
31.74105215146668
 20
99.36912398273824
 10
31.592281181866678
 20
98.2975419154044
 10
31.407718818133343
 20
97.36912470367108
 10
31.258947848533342
 20
96.29754119447159
 10
31.074385484800008
 20
95.36910832269608
 10
30.92561451520001
 20
94.29728870956774
 10
30.741052151466675
 20
93.36640200978363
 10
30.592281181866678
 20
92.27773516678369
 10
30.40771881813334
 20
91.2774019354613
 10
30.258947848533342
 20
90.05566099543184
 10
30.16891632553359
 20
89.56648296253599
 10
30.074385484800008
 20
89.05285829889263
 10
29.92561451520001
 20
87.94687129818044
 10
29.741052151466675
 20
86.94159911359633
 10
29.592281181866678
 20
85.70253729444687
 10
29.407718818133343
 20
84.62780291827643
 10
29.258947848533346
 20
83.37165704439379
 10
29.07438548480001
 20
82.29199935218153
 10
28.92561451520001
 20
81.01853332106153
 10
28.74105215146668
 20
79.86694401771415
 10
28.592281181866678
 20
78.44332055671401
 10
28.476844550041804
 20
77.67654024173834
 10
28.407718818133343
 20
77.21737706582289
 10
28.258947848533346
 20
75.75982304115075
 10
28.07438548480001
 20
74.46196353067053
 10
28.000453512762792
 20
73.67138028475551
 10
27.92561451520001
 20
72.87109786317443
 10
27.74105215146668
 20
71.57073756739891
 10
27.592281181866678
 20
70.09538829390054
 10
27.407718818133343
 20
68.7900890448633
 10
27.258947848533342
 20
67.16458234053496
 10
27.122934727711513
 20
66.09847735432014
 10
27.074385484800008
 20
65.71793620040668
 10
26.92561451520001
 20
63.925660938830646
 10
26.741052151466675
 20
62.404644951104736
 10
26.670447086775685
 20
61.54571848813181
 10
26.592281181866678
 20
60.594812706479864
 10
26.40771881813334
 20
59.06882644540785
 10
26.258947848533342
 20
57.24143505541062
 10
26.074385484800008
 20
55.641031989448386
 10
25.92561451520001
 20
53.64616228902628
 10
25.741052151466675
 20
51.8970195278746
 10
25.619852342376568
 20
50.10796129395054
 10
25.592281181866678
 20
49.70097705775929
 10
25.40771881813334
 20
47.7336167954576
 10
25.274413299126035
 20
45.481034551350845
 10
25.258947848533342
 20
45.21970103971805
 10
25.074385484800008
 20
43.098615194565184
 10
24.92561451520001
 20
40.49856941863149
 10
24.741052151466675
 20
38.151842176550105
 10
24.60859744304143
 20
35.40504771328913
 10
24.592281181866678
 20
35.06668740591492
 10
24.407718818133343
 20
32.353112839015964
 10
24.258947848533346
 20
28.86704069319158
 10
24.193655463761342
 20
27.78253665493506
 10
24.07438548480001
 20
25.801466821477383
 10
23.92561451520001
 20
21.934678827483665
 10
23.741052151466675
 20
19.0946838495683
 10
23.65486817705895
 20
17.405554433640113
 10
23.592281181866674
 20
16.178904869607557
 10
23.407718818133343
 20
14.201698249294534
 10
23.294882244594813
 20
12.788706401979265
 10
23.258947848533342
 20
12.338719247276108
 10
23.074385484800008
 20
11.025886185252931
 10
22.92561451520001
 20
9.734144039131449
 10
22.741052151466675
 20
8.728746322983271
 10
22.592281181866674
 20
7.673531337903617
 10
22.40771881813334
 20
6.888898956794111
 10
22.25894784853334
 20
6.134712914997822
 10
22.074385484800008
 20
5.4294207461914405
 10
21.92561451520001
 20
4.593650319259702
 10
21.741052151466675
 20
3.9627593638208993
 10
21.592281181866674
 20
3.393375399100392
 10
21.40771881813334
 20
2.834431760518621
 10
21.258947848533342
 20
2.1663779112141937
 10
21.222889645598592
 20
2.058617606299879
 10
21.074385484800008
 20
1.6148114166886722
 10
20.92561451520001
 20
1.0969149982142252
 10
20.741052151466675
 20
0.6842572039851889
 10
20.592281181866678
 20
0.3162828333446615
 10
20.40771881813334
 20
-0.09145164484257817
 10
20.25894784853334
 20
-0.574943851346452
 10
20.074385484799976
 20
-0.9801932271028648
 10
19.925614515194116
 20
-1.3306106156502604
 10
19.741052150985844
 20
-1.6664134375151693
 10
19.702023414051457
 20
-1.7539225858480703
 10
19.592281158551863
 20
-1.999983618544206
 10
19.407718073410752
 20
-2.333333333333366
 10
19.258931443756843
 20
-2.666683048128353
 10
19.07413225468653
 20
-3.00025322963265
 10
18.922891774137277
 20
-3.336056074390105
 10
18.721244629032817
 20
-3.686474189088705
 10
18.500541728152772
 20
-4.091739452752182
 10
18.16557642994529
 20
-4.575475674879982
 10
17.939777527993467
 20
-4.9858354967997744
 10
17.701106868777966
 20
-5.373245759851206
 10
17.37617897170427
 20
-5.882260928119437
 10
16.683816605435844
 20
-6.718423967801923
 10
15.508634894730312
 20
-8.043526284000817
 10
13.399388338909477
 20
-10.15277283982165
 10
12.143716894206644
 20
-11.25852367903109
 10
11.457237635624939
 20
-11.801202264192874
 10
11.249292857394666
 20
-11.921575967936162
 10
11.020107143546616
 20
-12.054245484601731
 10
10.649779469104072
 20
-12.275833532374353
 10
10.241888368153486
 20
-12.499162991949222
 10
9.758373309889423
 20
-12.833891466244925
 10
9.352886881400588
 20
-13.054578707088645
 10
9.000000000058886
 20
-13.256225130785422
 10
8.647113123402052
 20
-13.407465588500688
 10
8.24162692276605
 20
-13.592264777096064
 10
7.758119054789001
 20
-13.741051406744111
 10
7.350383786633465
 20
-13.925614491885128
 10
6.982407224186394
 20
-14.074385484307395
 10
6.569702221004298
 20
-14.258947847565727
 10
6.051088114336883
 20
-14.407718771491899
 10
5.4919565781003925
 20
-14.592279691459899
 10
4.77028304451159
 20
-14.741019295295837
 10
3.970912469306382
 20
-14.925106566490367
 10
3.544771693640328
 20
-14.976582279777785
 10
2.780461155541928
 20
-15.068907239904432
 10
1.2099583039570316
 20
-15.21882784539779
 10
0.0
 20
-15.21882784539779
 10
0.0
 20
-3.3287160581623207
 10
0.0
 20
0.0
 10
-5.0
 20
0.0
 10
-5.0
 20
-2.096132032023756
 10
-5.0
 20
-3.199551512061204
 10
-5.0
 20
-9.66359250017846
 10
-5.0
 20
-10.0
 10
-5.265003726225556
 20
-10.0
 10
-10.357027386047752
 20
-10.0
 10
-12.0
 20
-10.0
 10
-12.0
 20
0.0
 10
-12.0
 20
0.6678155734071325
 10
-12.0
 20
4.968338802263798
 10
-12.0
 20
10.0
 10
-5.0
 20
10.0
 10
0.0
 20
10.0
 10
0.0
 20
11.89648727765962
 10
0.0
 20
16.76274905827534
 10
0.0
 20
28.928403512278262
 10
0.0
 20
33.794665293001344
 10
0.0
 20
40.0
 10
-5.0
 20
40.0
 10
-5.0
 20
37.25888051012401
 10
-5.0
 20
32.39261872942279
 10
-5.0
 20
30.0
 10
-11.193922828339304
 20
30.0
 10
-12.0
 20
30.0
 10
-12.0
 20
40.0
 10
-12.0
 20
42.91046289637129
 10
-12.0
 20
50.0
 10
-7.425244038800645
 20
50.0
 10
-5.0
 20
50.0
 10
-3.3916684115369686
 20
50.0
 10
0.0
 20
50.0
 10
0.0
 20
75.33950394715812
 10
0.0
 20
79.49816630229432
 10
0.0
 20
80.0
 10
-5.0
 20
80.0
 10
-5.0
 20
79.00770465050502
 10
-5.0
 20
72.73267264795201
 10
-5.0
 20
70.0
 10
-5.98845650630291
 20
70.0
 10
-12.0
 20
70.0
  0
LWPOLYLINE
  5
30
330
17
100
AcDbEntity
  8
default
100
AcDbPolyline
 90
33
 70
0
 10
28.917071761193213
 20
139.94278840531595
 10
28.291471275825174
 20
138.89903705251524
 10
27.56657770497155
 20
137.9216312183291
 10
26.749372169986803
 20
137.01998385524513
 10
25.847724806902818
 20
136.20277832026036
 10
24.87031897271668
 20
135.47788474940677
 10
24.758325134145764
 20
135.41075822585287
 10
24.670787062961608
 20
135.0130868931301
 10
33.51486237493038
 20
133.87551556041484
 10
33.60592932357688
 20
134.24260947998357
 10
33.73562013001737
 20
134.6893921176836
 10
33.84454950125943
 20
135.2164101843607
 10
33.90503195869609
 20
135.47435540944483
 10
34.03621080034077
 20
135.97386865124773
 10
34.14884565809359
 20
136.61920712920005
 10
34.23837223434677
 20
137.02955250164916
 10
34.38931243633036
 20
137.60430183682627
 10
34.51128220537327
 20
138.19421731492167
 10
34.60738649298284
 20
138.58069976534154
 10
34.73952124391509
 20
139.03413375634622
 10
34.84947844560424
 20
139.5534982763474
 10
34.942183387080384
 20
139.92175200098947
 10
35.073444012774935
 20
140.37044119677012
 10
35.18288232175546
 20
140.88718113239077
 10
35.26979114709084
 20
141.23235630660562
 10
30.29578671448373
 20
147.17712622635872
 10
30.321538694008854
 20
147.00352048204488
 10
30.38124808327361
 20
145.78810794195832
 10
30.321538694008854
 20
144.57269540187175
 10
30.142985560273672
 20
143.36898794895833
 10
29.847308246353002
 20
142.188577944003
 10
29.43735428641357
 20
141.0428333806312
 10
28.917071761193213
 20
139.94278840531595
  0
LWPOLYLINE
  5
31
330
17
100
AcDbEntity
  8
default
100
AcDbPolyline
 90
17
 70
0
 10
6.115187920194224
 20
142.188577944003
 10
5.819510606273555
 20
143.36898794895833
 10
5.640957472538371
 20
144.57269540187175
 10
5.581248083273612
 20
145.78810794195832
 10
5.640957472538371
 20
147.00352048204488
 10
5.819510606273555
 20
148.2072279349583
 10
6.115187920194222
 20
149.38763793991365
 10
6.525141880133656
 20
150.53338250328542
 10
6.642661915836351
 20
150.78185774223155
 10
5.0
 20
151.61977906579023
 10
5.0
 20
138.411186625863
 10
8.03992364462465
 20
137.8476898293011
 10
8.085013667687143
 20
138.34083780484255
 10
7.67102489072205
 20
138.89903705251524
 10
7.0454244053540105
 20
139.94278840531595
 10
6.525141880133656
 20
141.0428333806312
 10
6.115187920194224
 20
142.188577944003
  0
LWPOLYLINE
  5
32
330
17
100
AcDbEntity
  8
default
100
AcDbPolyline
 90
12
 70
0
 10
12.135928546631238
 20
156.72393161987793
 10
13.235973521946493
 20
157.24421414509828
 10
14.070925857486333
 20
157.54296486777935
 10
17.85021078493446
 20
162.05167779279873
 10
12.987605824135244
 20
167.86330665182322
 10
7.967548346146941
 20
166.64068262465298
 10
7.125768011435866
 20
155.02577368030325
 10
8.84420926105737
 20
154.1491973425012
 10
9.213123996560421
 20
154.5562320286715
 10
10.114771359644404
 20
155.37343756365624
 10
11.092177193830546
 20
156.09833113450986
 10
12.135928546631238
 20
156.72393161987793
  0
LWPOLYLINE
  5
33
330
17
100
AcDbEntity
  8
default
100
AcDbPolyline
 90
16
 70
0
 10
23.826567619915984
 20
156.72393161987793
 10
24.870318972716674
 20
156.0983311345099
 10
25.847724806902818
 20
155.37343756365624
 10
26.7493721699868
 20
154.5562320286715
 10
27.56657770497155
 20
153.65458466558752
 10
28.291471275825174
 20
152.6771788314014
 10
28.917071761193213
 20
151.63342747860068
 10
28.968477161492366
 20
151.52473989144943
 10
29.87262447271496
 20
155.3051145011559
 10
26.034726086072624
 20
159.59856634121388
 10
21.328567432705313
 20
159.97464476851746
 10
19.7163884977487
 20
158.05130420519492
 10
20.400368076273605
 20
157.94984541895838
 10
21.580778081228942
 20
157.6541681050377
 10
22.726522644600728
 20
157.24421414509828
 10
23.826567619915984
 20
156.72393161987793
  0
LWPOLYLINE
  5
34
330
17
100
AcDbEntity
  8
default
100
AcDbPolyline
 90
16
 70
0
 10
68.59806559700519
 20
302.14976197341457
 10
73.41036492260173
 20
295.8374465405941
 10
77.70735737634823
 20
296.4138841996901
 10
78.70771755769043
 20
298.0111964241395
 10
78.4737631103937
 20
298.15142332338144
 10
77.49635727620756
 20
298.87631689423506
 10
76.59470991312358
 20
299.6935224292198
 10
75.77750437813883
 20
300.5951697923038
 10
75.0526108072852
 20
301.57257562648994
 10
74.42701032191717
 20
302.61632697929065
 10
73.90672779669681
 20
303.7163719546059
 10
73.49677383675737
 20
304.86211651797765
 10
73.2010965228367
 20
306.04252652293303
 10
73.04821723455628
 20
307.0731549686493
 10
71.44101611478254
 20
306.90836663078517
 10
68.59806559700519
 20
302.14976197341457
  0
LWPOLYLINE
  5
35
330
17
100
AcDbEntity
  8
default
100
AcDbPolyline
 90
11
 70
0
 10
98.58270686678588
 20
318.05309293372557
 10
95.62830377463251
 20
319.03702400717884
 10
93.15937860679836
 20
318.0988413301595
 10
93.22931072346597
 20
318.04697613763096
 10
94.13095808654995
 20
317.2297706026462
 10
94.9481636215347
 20
316.3281232395622
 10
95.67305719238833
 20
315.3507174053761
 10
96.29865767775637
 20
314.3069660525754
 10
96.6599844298729
 20
313.5430048221949
 10
98.88448857795447
 20
317.7284336909652
 10
98.58270686678588
 20
318.05309293372557
  0
LWPOLYLINE
  5
36
330
17
100
AcDbEntity
  8
default
100
AcDbPolyline
 90
36
 70
0
 10
8.639766790437562
 20
-7.654846912660594
 10
8.938872347132705
 20
-7.418396680126688
 10
9.975972530200067
 20
-6.505120836665584
 10
11.867198259056822
 20
-4.613895107808832
 10
12.886747150296829
 20
-3.4642800440677037
 10
13.327941279817953
 20
-2.9314517992011626
 10
13.465079518503963
 20
-2.716618156816385
 10
13.618362291446074
 20
-2.4678095282989716
 10
13.784952243165598
 20
-2.1650541901182874
 10
14.054897818356771
 20
-1.7290179899268598
 10
14.237482614808629
 20
-1.465340289203108
 10
14.33016953360029
 20
-1.2951441185479968
 10
14.387550952623348
 20
-1.1926620231370308
 10
14.465657841419619
 20
-1.0569295350684127
 10
14.515181367101805
 20
-0.9469712702830679
 10
14.700467965140714
 20
-0.5772260563736094
 10
14.780882066242354
 20
-0.4320752771146567
 10
14.841874661160412
 20
-0.2954241266192459
 10
15.033420003103856
 20
0.0885494863152978
 10
15.113618799987668
 20
0.23340102066850804
 10
15.174627877915702
 20
0.37019387817330784
 10
15.359260972757333
 20
0.741885977092323
 10
15.422033962772414
 20
0.8560985754971344
 10
15.471991669332443
 20
0.9737697119894306
 10
15.524069049516434
 20
1.0921533507620649
 10
15.540890731475024
 20
1.1290892458979769
 10
8.910024427808821
 20
5.723238836042583
 10
4.996339716725794
 20
0.07450677768637298
 10
4.999999999999999
 20
0.0
 10
4.999999999999999
 20
-2.7784841586384275
 10
7.791728080409031
 20
-8.143710109877633
 10
7.840641792424131
 20
-8.113502849787263
 10
8.164599990928274
 20
-7.936128523090337
 10
8.452814561212731
 20
-7.763673401919352
 10
8.515165477568786
 20
-7.726975300057183
 10
8.639766790437562
 20
-7.654846912660594
  0
LWPOLYLINE
  5
37
330
17
100
AcDbEntity
  8
default
100
AcDbPolyline
 90
22
 70
0
 10
17.237260544113997
 20
6.695209949887447
 10
17.383088317796723
 20
7.25248059105404
 10
17.502247952872683
 20
7.856553642143625
 10
17.540554129863356
 20
8.033760475606648
 10
17.673013092807995
 20
8.59688499022716
 10
17.790016314632172
 20
9.426775077677862
 10
17.823227241118694
 20
9.631518803268802
 10
17.97758755913363
 20
10.472391817987859
 10
18.107219978179707
 20
11.597958584378684
 10
18.123074101946123
 20
11.721957726131862
 10
18.286754823487097
 20
12.88625503197519
 10
18.423585619360715
 20
14.59971364710288
 10
18.429360716614227
 20
14.666403115891573
 10
18.560289496282103
 20
16.06903605097289
 10
16.883128254208714
 20
17.231045550201088
 10
11.188054092228413
 20
9.011183611117303
 10
16.864642801593025
 20
5.0781986135899695
 10
16.903455941658805
 20
5.226746274691636
 10
16.942183373370355
 20
5.3666320256433115
 10
17.05055200464097
 20
5.737069356087863
 10
17.15176547186348
 20
6.305669688123353
 10
17.237260544113997
 20
6.695209949887447
  0
LWPOLYLINE
  5
38
330
17
100
AcDbEntity
  8
default
100
AcDbPolyline
 90
24
 70
0
 10
3.865052266813685
 20
6.828033579181772
 10
3.5355339059327378
 20
6.464466094067262
 10
3.1719664208182277
 20
6.134947733186316
 10
2.7778511650980113
 20
5.842651938487274
 10
2.356983684129989
 20
5.590393678258225
 10
1.9134171618254492
 20
5.380602337443566
 10
1.4514233862723116
 20
5.215298321338956
 10
0.9754516100806416
 20
5.096073597983848
 10
0.49008570164780385
 20
5.024076366639016
 10
0.0
 20
5.0
 10
0.49008570164780385
 20
4.975923633360984
 10
0.9754516100806416
 20
4.903926402016152
 10
1.4514233862723116
 20
4.784701678661044
 10
1.9134171618254492
 20
4.619397662556434
 10
2.356983684129989
 20
4.409606321741775
 10
2.7778511650980113
 20
4.157348061512726
 10
2.8974107381221486
 20
4.0686766388673234
 10
5.6220796522684395
 20
8.001268500927836
 10
4.7917161764589995
 20
8.576580058667886
 10
4.784701678661045
 20
8.548576613727688
 10
4.619397662556434
 20
8.08658283817455
 10
4.409606321741775
 20
7.643016315870011
 10
4.157348061512726
 20
7.222148834901989
 10
3.865052266813685
 20
6.828033579181772
  0
LWPOLYLINE
  5
39
330
17
100
AcDbEntity
  8
default
100
AcDbPolyline
 90
5
 70
0
 10
5.0
 20
25.46418829513373
 10
5.0
 20
13.298533841117756
 10
7.900109317153692
 20
11.289213275536895
 10
13.595183479133993
 20
19.50907521462068
 10
5.0
 20
25.46418829513373
  0
LWPOLYLINE
  5
3A
330
17
100
AcDbEntity
  8
default
100
AcDbPolyline
 90
15
 70
0
 10
4.784701678661044
 20
41.45142338627231
 10
4.903926402016152
 20
40.97545161008064
 10
4.975923633360985
 20
40.4900857016478
 10
5.0
 20
40.0
 10
5.0
 20
30.330450075878687
 10
15.873213143553585
 20
22.7970199896954
 10
19.1710133858181
 20
27.556828540186523
 10
19.265358233243035
 20
29.12389288280963
 10
19.40995973904087
 20
32.51226416896479
 10
3.59591154109149
 20
43.46891745119819
 10
3.865052266813685
 20
43.17196642081823
 10
4.157348061512726
 20
42.777851165098014
 10
4.409606321741776
 20
42.356983684129986
 10
4.619397662556434
 20
41.91341716182545
 10
4.784701678661044
 20
41.45142338627231
  0
LWPOLYLINE
  5
3B
330
17
100
AcDbEntity
  8
default
100
AcDbPolyline
 90
17
 70
0
 10
4.455346465108292
 20
47.73972572362732
 10
19.688640984766447
 20
37.18544358730914
 10
19.74685532937835
 20
38.392670128089904
 10
19.756444045782253
 20
38.543865176825804
 10
19.93682554573309
 20
40.837432355634526
 10
20.082550361009584
 20
43.38424099328134
 10
20.09320689650764
 20
43.5320432411169
 10
20.27176925697364
 20
45.58417395509473
 10
20.4164512671555
 20
48.028994916779546
 10
20.42957646596323
 20
48.20062720383224
 10
20.485698223830788
 20
48.79886247805464
 10
14.025176498107612
 20
53.27499001240358
 10
9.035181902814656
 20
52.51857794960961
 10
4.8183135092569715
 20
48.6827625632488
 10
4.784701678661045
 20
48.54857661372769
 10
4.619397662556434
 20
48.08658283817455
 10
4.455346465108292
 20
47.73972572362732
  0
LWPOLYLINE
  5
3C
330
17
100
AcDbEntity
  8
default
100
AcDbPolyline
 90
10
 70
0
 10
21.424206551122545
 20
59.47454246006949
 10
21.443892444917193
 20
59.66918278672843
 10
21.598270061536855
 20
60.945597529221736
 10
17.42177436221391
 20
55.787942591588944
 10
20.871643445588713
 20
53.39772479660268
 10
20.945167144467895
 20
54.09452691305924
 10
21.088231996230935
 20
56.012883288263474
 10
21.107305640680075
 20
56.21384768593157
 10
21.282248745624013
 20
57.730838885316956
 10
21.424206551122545
 20
59.47454246006949
  0
LWPOLYLINE
  5
3D
330
17
100
AcDbEntity
  8
default
100
AcDbPolyline
 90
6
 70
0
 10
21.249904485885054
 20
66.87153898831457
 10
20.66635254956782
 20
71.25200739130378
 10
7.334091797005385
 20
76.12268972955644
 10
9.85736292321235
 20
56.68890434317291
 10
13.444690010044724
 20
57.23269200278446
 10
21.249904485885054
 20
66.87153898831457
  0
LWPOLYLINE
  5
3E
330
17
100
AcDbEntity
  8
default
100
AcDbPolyline
 90
19
 70
0
 10
23.43356222643977
 20
77.72508387226866
 10
23.463434660681894
 20
77.96172521714364
 10
23.63113414436245
 20
79.07565812461888
 10
23.768132031743622
 20
80.38662226707005
 10
23.804055205715628
 20
80.6581842831486
 10
23.971753852514414
 20
81.7045512884951
 10
24.10815959144776
 20
82.87217206456778
 10
24.14587806728534
 20
83.13450432872641
 10
24.30877342618768
 20
84.08741381529265
 10
24.44242098228482
 20
85.21586533105076
 10
24.47985377116865
 20
85.47405706385189
 10
24.565277474045146
 20
85.97149212137958
 10
24.652041515801102
 20
87.98476367816329
 10
18.48935468494892
 20
89.12711286032572
 10
9.36368938907981
 20
79.63979089725763
 10
22.11219956772402
 20
74.982370485086
 10
23.226115966908
 20
75.882679838941
 10
23.29483028840077
 20
76.36588526528915
 10
23.43356222643977
 20
77.72508387226866
  0
LWPOLYLINE
  5
3F
330
17
100
AcDbEntity
  8
default
100
AcDbPolyline
 90
14
 70
0
 10
4.619397662556434
 20
88.08658283817455
 10
4.441995775571253
 20
87.71149806225047
 10
6.005082728806883
 20
81.91811598651111
 10
15.53249326441437
 20
91.82310464140028
 10
11.330312930978835
 20
105.26191037567332
 10
10.704847940709442
 20
105.80040788045153
 10
9.863952474668622
 20
105.79628877807409
 10
9.80704999808222
 20
105.76577149285004
 10
5.0
 20
97.92989170088036
 10
5.0
 20
90.0
 10
4.975923633360985
 20
89.5099142983522
 10
4.903926402016152
 20
89.02454838991936
 10
4.784701678661045
 20
88.54857661372769
 10
4.619397662556434
 20
88.08658283817455
  0
LWPOLYLINE
  5
40
330
17
100
AcDbEntity
  8
default
100
AcDbPolyline
 90
19
 70
0
 10
25.78709426136088
 20
94.04338149474498
 10
25.836519296725466
 20
94.33879980737679
 10
25.992968699911074
 20
95.12789172009778
 10
26.121865667371598
 20
96.05652919667276
 10
26.17034347861672
 20
96.34397857128805
 10
26.326490095378677
 20
97.12946727486684
 10
26.455219628554975
 20
98.056694174507
 10
26.503679956516642
 20
98.34401077073387
 10
26.659824627977557
 20
99.12947643974867
 10
26.788553087901846
 20
100.05669436123739
 10
26.837016434569634
 20
100.34402586877503
 10
26.993173715645337
 20
101.12954171895144
 10
27.082489670759458
 20
101.77273365509635
 10
15.968124059028924
 20
103.83295297296718
 10
19.343961180187762
 20
93.03683865536004
 10
25.44798824444007
 20
91.90536296768686
 10
25.49070743196267
 20
92.18459487429404
 10
25.65411199305971
 20
93.07025221693185
 10
25.78709426136088
 20
94.04338149474498
  0
LWPOLYLINE
  5
41
330
17
100
AcDbEntity
  8
default
100
AcDbPolyline
 90
22
 70
0
 10
28.001258595524654
 20
106.86540903909783
 10
28.12504132948952
 20
107.72837907570329
 10
28.187833699620384
 20
108.07751651576423
 10
28.345711690340863
 20
108.8059717030004
 10
28.474032670290907
 20
109.58600266338269
 10
28.54056947685937
 20
109.91930081880311
 10
28.686196255918393
 20
110.53836861026171
 10
28.80736610732815
 20
111.27492907141308
 10
28.854504403835886
 20
111.52238014805855
 10
29.001488435563648
 20
112.20055769524139
 10
29.125064189280053
 20
113.06188742131668
 10
29.1878417631745
 20
113.41090271401364
 10
29.34573708165618
 20
114.13941105750035
 10
29.47406683107357
 20
114.91929041840858
 10
29.541376345956813
 20
115.25580558700725
 10
29.609118521318006
 20
115.54287505408566
 10
20.528001084923744
 20
117.22620042134076
 10
14.190103939268738
 20
108.23067677021027
 10
27.77091735105895
 20
105.71326326039039
 10
27.80497637882315
 20
105.92421051292129
 10
27.85387124466388
 20
106.18339850020452
 10
28.001258595524654
 20
106.86540903909783
  0
LWPOLYLINE
  5
42
330
17
100
AcDbEntity
  8
default
100
AcDbPolyline
 90
6
 70
0
 10
11.902532100211829
 20
130.9939571316354
 10
4.655867306049913
 20
122.33925438253209
 10
10.531017839442939
 20
109.98215228924528
 10
17.527254621032625
 20
119.91207257518545
 10
16.000699063763022
 20
129.36159501969814
 10
11.902532100211829
 20
130.9939571316354
  0
LWPOLYLINE
  5
43
330
17
100
AcDbEntity
  8
default
100
AcDbPolyline
 90
26
 70
0
 10
30.812600589077835
 20
121.59986917202646
 10
30.90285394407771
 20
122.01871818511891
 10
31.052120256029827
 20
122.59111342083713
 10
31.173217439082737
 20
123.19110026366072
 10
31.236194084133626
 20
123.46358926696337
 10
31.36667253266168
 20
123.96392716102478
 10
31.47930539419665
 20
124.6223676483938
 10
31.543840919107055
 20
124.93805879063041
 10
31.691046857826436
 20
125.55596111581262
 10
31.81263884367599
 20
126.26677516213725
 10
31.902867567883135
 20
126.68545275469863
 10
32.05216495269648
 20
127.25794182911034
 10
32.1732791051083
 20
127.85781994949103
 10
32.23726747779367
 20
128.13411240317433
 10
32.369111666172174
 20
128.63793448228031
 10
32.48209814435396
 20
129.28564728039535
 10
32.5706076849923
 20
129.69226810130732
 10
32.63940697206828
 20
129.9551680573206
 10
22.650802243035287
 20
131.23995476402342
 10
19.991114869248122
 20
129.74193798471242
 10
21.38136539934203
 20
121.13615647424012
 10
30.397396391298077
 20
119.46489588474878
 10
30.476630025889598
 20
119.93718619758546
 10
30.543011972464406
 20
120.26518435875118
 10
30.690718298913666
 20
120.8871634253324
 10
30.812600589077835
 20
121.59986917202646
  0
LWPOLYLINE
  5
44
330
17
100
AcDbEntity
  8
default
100
AcDbPolyline
 90
8
 70
0
 10
8.780553666409105
 20
133.4960795971565
 10
8.662923633586615
 20
133.66406685160473
 10
5.0
 20
134.34304631777792
 10
5.0
 20
130.0
 10
4.975923633360985
 20
129.5099142983522
 10
4.903926402016152
 20
129.02454838991935
 10
4.847337763775745
 20
128.79863388244482
 10
8.780553666409105
 20
133.4960795971565
  0
LWPOLYLINE
  5
45
330
17
100
AcDbEntity
  8
default
100
AcDbPolyline
 90
6
 70
0
 10
16.066788480617106
 20
170.41652991669253
 10
21.454480128828436
 20
163.97733435826376
 10
25.560128645971417
 20
163.64924388146028
 10
28.066025615204126
 20
171.65883615100756
 10
20.67529400018975
 20
180.49200057331473
 10
16.066788480617106
 20
170.41652991669253
  0
LWPOLYLINE
  5
46
330
17
100
AcDbEntity
  8
default
100
AcDbPolyline
 90
42
 70
0
 10
9.899045653079467
 20
181.82997323836244
 10
9.805980652552506
 20
181.41221482274702
 10
9.669302837525155
 20
180.91910208197666
 10
9.524528964720806
 20
180.48453137313462
 10
9.409485802420972
 20
180.0708372257758
 10
9.264839099674507
 20
179.6307779188796
 10
9.155338506348603
 20
179.34328096365547
 10
9.064767823174407
 20
179.02784521764022
 10
8.92850754643751
 20
178.62021882014375
 10
8.820843269465097
 20
178.3389654692176
 10
8.731434489841051
 20
178.02757635176135
 10
8.598172433007909
 20
177.6278020191617
 10
8.49613663662937
 20
177.35990410288838
 10
8.409485802420987
 20
177.0483085046872
 10
8.335969504196875
 20
176.8075896908648
 10
8.232378986535847
 20
176.49663990539776
 10
8.139313986049931
 20
176.0788814896695
 10
8.002636190385068
 20
175.5857688067759
 10
7.857862581365544
 20
175.1511988718354
 10
7.74281960173222
 20
174.73750482385412
 10
7.598191534690193
 20
174.2974939941298
 10
7.488786958994352
 20
174.0102398665512
 10
7.398267843866798
 20
173.69484006332448
 10
7.264858229241465
 20
173.29453529283668
 10
7.162811139136053
 20
173.0265990659044
 10
7.076153401348732
 20
172.714977802347
 10
7.002649585023008
 20
172.47429590224584
 10
6.899109886131895
 20
172.16348986241636
 10
6.806062440753007
 20
171.7456621296585
 10
6.67140251902762
 20
171.25849886178173
 10
6.531726042643892
 20
170.8373602082537
 10
6.420055573467138
 20
170.42297060125702
 10
6.4063652608946855
 20
170.37738212075786
 10
12.307713551912457
 20
171.81464259931818
 10
17.73907120944932
 20
183.68909614440054
 10
16.65675067016855
 20
184.7424287297763
 10
10.37514621924306
 20
183.2920466872253
 10
10.264839071780422
 20
182.96113525594328
 10
10.162803292570754
 20
182.69323739737118
 10
10.076152468780666
 20
182.38164183691075
 10
10.002636170853501
 20
182.1409230241621
 10
9.899045653079467
 20
181.82997323836244
  0
LWPOLYLINE
  5
47
330
17
100
AcDbEntity
  8
default
100
AcDbPolyline
 90
6
 70
0
 10
33.49687495082617
 20
186.98483117716387
 10
23.58685098681599
 20
183.2455646409653
 10
31.097002847120166
 20
174.2696729870513
 10
40.38431785348803
 20
175.85932106012478
 10
40.63941765576601
 20
178.44829414831474
 10
33.49687495082617
 20
186.98483117716387
  0
LWPOLYLINE
  5
48
330
17
100
AcDbEntity
  8
default
100
AcDbPolyline
 90
7
 70
0
 10
24.219003424048424
 20
200.94948970433325
 10
19.189096923917532
 20
187.8595208413899
 10
20.66854571690783
 20
186.4196963487193
 10
32.6538848024793
 20
190.9420241988264
 10
35.743175184354186
 20
197.5243245176971
 10
33.028031336609274
 20
201.47509934101254
 10
24.219003424048424
 20
200.94948970433325
  0
LWPOLYLINE
  5
49
330
17
100
AcDbEntity
  8
default
100
AcDbPolyline
 90
40
 70
0
 10
17.438480741997882
 20
204.16030293454673
 10
17.38527444310128
 20
203.98119290781747
 10
17.258724164981135
 20
203.60935977825397
 10
17.15275543074669
 20
203.33397158089852
 10
17.064432284073952
 20
203.02664508661618
 10
16.928449384881645
 20
202.62003482624834
 10
16.820711500063826
 20
202.33861661275927
 10
16.731266061003225
 20
202.02724307283302
 10
16.595135383846674
 20
201.62010170619078
 10
16.487385645030102
 20
201.33864341343858
 10
16.39793272766989
 20
201.02724384038365
 10
16.26178271821498
 20
200.6200519757297
 10
16.15393645571988
 20
200.3383506728485
 10
16.064432284073934
 20
200.02691472053223
 10
15.925390831647904
 20
199.61233570176807
 10
15.811411646939613
 20
199.3161301988938
 10
15.718607776434588
 20
199.00372162939274
 10
15.485344417102441
 20
198.3759734271029
 10
15.340371330581645
 20
198.053759656733
 10
15.227765492901094
 20
197.77523661192393
 10
15.152011083769109
 20
197.5977943693033
 10
15.105147408668405
 20
197.49363626789307
 10
15.051941109767995
 20
197.31452624115096
 10
14.925390831647762
 20
196.94269311158718
 10
14.819422097413378
 20
196.66730491423192
 10
14.731098950740655
 20
196.35997841994958
 10
14.595116051555529
 20
195.9533681596005
 10
14.487378166951219
 20
195.67194994666573
 10
14.397932728005825
 20
195.360576406855
 10
14.261802078783122
 20
194.95343511288817
 10
14.154052653630343
 20
194.67197762614157
 10
14.1214124804983
 20
194.55835192855724
 10
16.421641296707094
 20
191.8091925214976
 10
20.525134508963674
 20
202.48823762405664
 10
17.993719189300986
 20
205.51370369523056
 10
17.81867770770447
 20
205.0426399754811
 10
17.673704643929753
 20
204.72042627360213
 10
17.56109882539388
 20
204.44190327650563
 10
17.485344417091433
 20
204.26446103593958
 10
17.438480741997882
 20
204.16030293454673
  0
LWPOLYLINE
  5
4A
330
17
100
AcDbEntity
  8
default
100
AcDbPolyline
 90
36
 70
0
 10
22.426897841000176
 20
217.46888472121205
 10
22.371366437980328
 20
217.28832455024437
 10
22.147354740260297
 20
216.69626619365297
 10
22.004684201524054
 20
216.38107899497908
 10
21.894011397834724
 20
216.1075138950806
 10
21.81861913277009
 20
215.93098176531808
 10
21.77166016542751
 20
215.8266198385155
 10
21.718423307208166
 20
215.64749194358512
 10
21.588937808033318
 20
215.2681932169139
 10
21.476725295964844
 20
214.97808033087367
 10
21.38508997387484
 20
214.66975179879498
 10
21.15195246611453
 20
214.04249415647573
 10
21.006780878737562
 20
213.71986383828028
 10
20.894011398676554
 20
213.44111609637952
 10
20.814021450306285
 20
213.25439648805315
 10
20.760242239396515
 20
213.13558765805254
 10
20.70470038720775
 20
212.95499324231827
 10
20.48068816032992
 20
212.36293307476527
 10
20.33801827771705
 20
212.04774729030348
 10
20.227346010046308
 20
211.77418297869275
 10
20.151981733607705
 20
211.59771273328835
 10
20.105136367898716
 20
211.49359930650735
 10
20.051939990061424
 20
211.31452319326092
 10
19.925371152047372
 20
210.94264269110755
 10
19.819305218339114
 20
210.66701090760574
 10
19.73093111688744
 20
210.35964779321472
 10
19.592037847361112
 20
209.9456015628877
 10
19.563361542049872
 20
209.87108092014176
 10
23.701169547159225
 20
204.92570604244247
 10
32.264318289700896
 20
205.43664476834238
 10
32.80407737893984
 20
209.62961178831756
 10
24.53543078713119
 20
219.51203191978857
 10
22.611456610573242
 20
217.89986840199722
 10
22.560259165173974
 20
217.77339792793578
 10
22.480658408503217
 20
217.58764780935581
 10
22.426897841000176
 20
217.46888472121205
  0
LWPOLYLINE
  5
4B
330
17
100
AcDbEntity
  8
default
100
AcDbPolyline
 90
55
 70
0
 10
30.86181483660319
 20
238.02736233123213
 10
30.809264239761752
 20
237.90786370247287
 10
30.75825749930903
 20
237.79586660759
 10
30.70429547179229
 20
237.62058079563423
 10
30.475930906428474
 20
237.01935896791434
 10
30.318423893349387
 20
236.6735158943918
 10
30.195148169936584
 20
236.3829547527114
 10
29.98148508799067
 20
235.94103995633265
 10
29.914613203596975
 20
235.81847486094352
 10
29.86181483660319
 20
235.69402899789878
 10
29.809264239761752
 20
235.57453036913952
 10
29.75825749930903
 20
235.46253327425666
 10
29.70429547179229
 20
235.28724746230088
 10
29.47593090642842
 20
234.6860256345809
 10
29.31842389334938
 20
234.34018256105847
 10
29.195148169936584
 20
234.0496214193781
 10
28.98148508799069
 20
233.60770662299936
 10
28.914613203597042
 20
233.48514152761032
 10
28.86181483660325
 20
233.36069566456555
 10
28.809264239761756
 20
233.24119703580618
 10
28.75825749930906
 20
233.12919994092337
 10
28.704295471792303
 20
232.95391412896754
 10
28.475930906439768
 20
232.3526923012724
 10
28.318423893859237
 20
232.00684922883957
 10
28.195148170887435
 20
231.71628808780514
 10
27.981485155938444
 20
231.27437341372223
 10
27.914614118632517
 20
231.15180986263366
 10
27.861816280183056
 20
231.02736498951467
 10
27.809294400546435
 20
230.90792918448676
 10
27.758411128629312
 20
230.79619888219665
 10
27.70449744886803
 20
230.62098455668098
 10
27.4806286538091
 20
230.02945262485022
 10
27.33775944888634
 20
229.71385074305715
 10
27.22692454999341
 20
229.44006140528884
 10
27.147324988414287
 20
229.2543142615357
 10
27.093564042875563
 20
229.1355503515698
 10
27.038032488750268
 20
228.95498995856227
 10
26.813991698442187
 20
228.36286797394519
 10
26.67110700866226
 20
228.04721977965912
 10
26.560259163487224
 20
227.773397924244
 10
26.480658365108738
 20
227.5876477139675
 10
26.42689739172568
 20
227.4688837358425
 10
26.37136582208358
 20
227.2883232923822
 10
26.147324988414233
 20
226.69620121197528
 10
26.00443961852237
 20
226.38055153291492
 10
25.95601051352884
 20
226.260919785899
 10
26.005142589565367
 20
226.17515214020386
 10
35.92454967368394
 20
230.5233277459629
 10
37.206762552727014
 20
233.51385365705937
 10
31.473336057918736
 20
239.34699471123952
 10
31.318423893349387
 20
239.00684922772513
 10
31.195148169936584
 20
238.71628808604473
 10
30.981485087990585
 20
238.2743732896658
 10
30.91461320359691
 20
238.15180819427673
 10
30.86181483660319
 20
238.02736233123213
  0
LWPOLYLINE
  5
4C
330
17
100
AcDbEntity
  8
default
100
AcDbPolyline
 90
28
 70
0
 10
36.849549204210504
 20
147.55384884078893
 10
36.94219279168787
 20
147.92180055271513
 10
37.07344778034486
 20
148.3704593261956
 10
37.182882753048915
 20
148.88718244743933
 10
37.27553550288601
 20
149.2551651970393
 10
37.40683248651007
 20
149.70395639441477
 10
37.51628669772631
 20
150.22059664847487
 10
37.610348416178766
 20
150.59329360094424
 10
37.74422385310538
 20
151.04911839816052
 10
37.85483975722832
 20
151.5587161066313
 10
37.99316334587196
 20
152.06574776067214
 10
38.1339007590399
 20
152.49199222840525
 10
38.246330570931896
 20
152.90955811694545
 10
38.326496698266055
 20
153.17726020905266
 10
38.428555180491465
 20
153.48635969211142
 10
38.52150665532015
 20
153.9145784829722
 10
38.61035791005352
 20
154.26296777114905
 10
38.74076345401733
 20
154.70696706395833
 10
38.849690926807334
 20
155.2209476348579
 10
38.943691257226845
 20
155.59334237709677
 10
38.99462875388007
 20
155.76677220977462
 10
33.73483659652993
 20
154.25731695536524
 10
32.81281704548746
 20
150.4022158482112
 10
36.47489654973856
 20
146.02541635466318
 10
36.51621587073522
 20
146.22051550726616
 10
36.608859444664624
 20
146.58846717306744
 10
36.74011429571858
 20
147.03712549242476
 10
36.849549204210504
 20
147.55384884078893
  0
LWPOLYLINE
  5
4D
330
17
100
AcDbEntity
  8
default
100
AcDbPolyline
 90
31
 70
0
 10
40.326522832519366
 20
160.51068835221494
 10
40.42862036810765
 20
160.8198888010232
 10
40.52158266567412
 20
161.24800946682538
 10
40.61185366360176
 20
161.60113136014036
 10
40.74484099858893
 20
162.05215289157258
 10
40.85491599900747
 20
162.55908294494895
 10
40.99318949919094
 20
163.06584262776943
 10
41.133996314627026
 20
163.49227339592437
 10
41.24647096098971
 20
163.90982620963612
 10
41.3285710319559
 20
164.18327552995498
 10
41.43343407869389
 20
164.4994659666461
 10
41.52718893910389
 20
164.92062003255435
 10
41.66191757964652
 20
165.40811147193776
 10
41.801601816268125
 20
165.82928537551632
 10
41.91327775930387
 20
166.2436952957606
 10
41.99526412834079
 20
166.51670419100316
 10
42.10016921623155
 20
166.8330036167849
 10
42.193937310397615
 20
167.25406786321327
 10
42.33067037422325
 20
167.74746851152383
 10
42.47536909381926
 20
168.18183818669687
 10
42.590360753443164
 20
168.595530740556
 10
42.732164187562745
 20
169.02825399429483
 10
42.83596224409477
 20
169.3021676177822
 10
42.919708942702314
 20
169.60345369137687
 10
41.301470992621034
 20
171.95813326211646
 10
31.844430743716657
 20
170.3394344463013
 10
29.239980003796518
 20
162.01483500376344
 10
32.71587784867734
 20
158.12635269016027
 10
40.23959966562688
 20
160.28551052184775
 10
40.283753749691954
 20
160.36790015226646
 10
40.326522832519366
 20
160.51068835221494
  0
LWPOLYLINE
  5
4E
330
17
100
AcDbEntity
  8
default
100
AcDbPolyline
 90
21
 70
0
 10
47.9353995847706
 20
185.97275332712596
 10
48.07153119801076
 20
186.37989802612626
 10
48.17928065739579
 20
186.66135562895403
 10
48.268733428045486
 20
186.97275512562473
 10
48.40486455960655
 20
187.37989812326086
 10
48.512614001879896
 20
187.6613556680631
 10
48.60206676171475
 20
187.97275512680002
 10
48.738197892947085
 20
188.37989812328556
 10
48.84594733521608
 20
188.661355668073
 10
48.935400095048145
 20
188.9727551268002
 10
49.07153122628771
 20
189.37989812330457
 10
49.17928066877008
 20
189.66135566864597
 10
49.26420636485193
 20
189.95699568933753
 10
44.22217271756381
 20
195.98307193629444
 10
39.337320174090564
 20
195.76758770318702
 10
36.471977062523365
 20
189.66244815802202
 10
43.05064361775294
 20
181.79983774432912
 10
47.653138519538665
 20
185.12543634179787
 10
47.73817850576437
 20
185.37983107549798
 10
47.84593950449831
 20
185.6613279509654
 10
47.9353995847706
 20
185.97275332712596
  0
LWPOLYLINE
  5
4F
330
17
100
AcDbEntity
  8
default
100
AcDbPolyline
 90
41
 70
0
 10
51.18057790280854
 20
195.33269508634152
 10
51.26890104959574
 20
195.6400215807402
 10
51.40488397671659
 20
196.04663191376738
 10
51.5126221749934
 20
196.3280509327054
 10
51.60206778227561
 20
196.6394246247907
 10
51.73821731004994
 20
197.0466147880758
 10
51.84606355543631
 20
197.32831603292863
 10
51.935567716262405
 20
197.63975194731077
 10
52.07460916835953
 20
198.05433096492393
 10
52.18858835306336
 20
198.35053646778297
 10
52.28139222356547
 20
198.66294503727417
 10
52.51465558290851
 20
199.29069323958817
 10
52.6596286698836
 20
199.6129070109632
 10
52.772234507939544
 20
199.89143005634125
 10
52.84798895896211
 20
200.06887239185602
 10
52.894853011387426
 20
200.17303132610107
 10
52.948059450084216
 20
200.35214156543987
 10
53.07462881929822
 20
200.72402387778067
 10
53.18069477039692
 20
200.9996557195972
 10
53.269068882775834
 20
201.307018872275
 10
53.407962152638945
 20
201.72106510377327
 10
53.52192984299736
 20
202.01723106537813
 10
53.614726117119446
 20
202.32961361266177
 10
53.84798900169341
 20
202.9573601190115
 10
53.992962741342374
 20
203.27957530513652
 10
54.10556911803009
 20
203.55809913674304
 10
54.181351557001186
 20
203.73560335608983
 10
54.22832920822999
 20
203.84001079212385
 10
54.281576131840225
 20
204.019172812793
 10
54.411062133892656
 20
204.39847327677495
 10
54.523274325568174
 20
204.6885853622372
 10
54.61490946554257
 20
204.99691372589464
 10
54.71318311585482
 20
205.26132541295732
 10
54.47422806825489
 20
205.54691679077223
 10
47.76177697815001
 20
197.98601412773132
 10
50.818382547829685
 20
194.33285758264051
 10
50.847988916230854
 20
194.40220563069676
 10
50.89485259133168
 20
194.50636373210725
 10
50.94805889023211
 20
194.6854737588494
 10
51.07460916835949
 20
195.0573068884317
 10
51.18057790280854
 20
195.33269508634152
  0
LWPOLYLINE
  5
50
330
17
100
AcDbEntity
  8
default
100
AcDbPolyline
 90
8
 70
0
 10
36.75582271069288
 20
208.99835754791275
 10
36.11774432146922
 20
204.04162463499233
 10
39.06075883889571
 20
199.75927780102938
 10
44.18796174414456
 20
199.98545277304947
 10
52.01589438179508
 20
208.80283347843215
 10
47.6475640386343
 20
215.1591411018744
 10
47.58270334172994
 20
215.1731504299678
 10
36.75582271069288
 20
208.99835754791275
  0
LWPOLYLINE
  5
51
330
17
100
AcDbEntity
  8
default
100
AcDbPolyline
 90
42
 70
0
 10
57.99321912125734
 20
213.94680282837382
 10
58.105988601323375
 20
214.22555057028706
 10
58.185978549704906
 20
214.41227017863832
 10
58.23975776089301
 20
214.53107900925212
 10
58.295299613197706
 20
214.71167342518604
 10
58.51931188303824
 20
215.30373368722945
 10
58.66198244495113
 20
215.61892095475173
 10
58.772655267990146
 20
215.89248610283275
 10
58.848047533885484
 20
216.06901823465142
 10
58.89500650123531
 20
216.17338016147158
 10
58.94824335945849
 20
216.3525080564149
 10
59.077728858633364
 20
216.73180678308628
 10
59.18994137070188
 20
217.02191966912662
 10
59.281576692791894
 20
217.3302482012053
 10
59.514714200563226
 20
217.95750584354897
 10
59.659885788394774
 20
218.28013616275004
 10
59.77265526883204
 20
218.55888390522085
 10
59.85264525973967
 20
218.74560360729947
 10
59.90642487652425
 20
218.8644133273036
 10
59.9619668953531
 20
219.04500801553866
 10
60.1860082581746
 20
219.63713190690177
 10
60.32889297112856
 20
219.9527801700594
 10
60.43974083566931
 20
220.22660207366664
 10
60.51934163486898
 20
220.4123522859775
 10
60.57310260798082
 20
220.5311162635068
 10
60.628634177510996
 20
220.71167670678042
 10
60.85267496821344
 20
221.3037986926913
 10
60.995559657999216
 20
221.61944688699475
 10
61.10640750317937
 20
221.89326874242258
 10
61.186008301546785
 20
222.07901895267463
 10
61.23976927465148
 20
222.1977829301864
 10
61.29530084417765
 20
222.37834337344705
 10
61.423498327173796
 20
222.7171591220545
 10
56.65481276484206
 20
224.03648298513144
 10
51.30725613422692
 20
216.89629629673436
 10
55.20190797466785
 20
211.22923285607249
 10
57.36657509220796
 20
212.2681583687479
 10
57.41106216293335
 20
212.3984733513815
 10
57.52327469231869
 20
212.6885862960719
 10
57.61491002575617
 20
212.99691486662434
 10
57.84804753387464
 20
213.6241725101611
 10
57.99321912125734
 20
213.94680282837382
  0
LWPOLYLINE
  5
52
330
17
100
AcDbEntity
  8
default
100
AcDbPolyline
 90
5
 70
0
 10
44.18731855740771
 20
217.84149976959452
 10
36.88015219848603
 20
226.5747896884568
 10
27.34036959055811
 20
222.39302260661498
 10
35.36063455604017
 20
212.8074601967819
 10
44.18731855740771
 20
217.84149976959452
  0
LWPOLYLINE
  5
53
330
17
100
AcDbEntity
  8
default
100
AcDbPolyline
 90
7
 70
0
 10
41.150688513647765
 20
232.56171138212085
 10
39.77362601971254
 20
229.34996617399156
 10
48.144239333458245
 20
219.34567870013416
 10
53.733959627337754
 20
226.80920815793797
 10
52.94349352456629
 20
230.70444063004106
 10
42.47093932889402
 20
233.32787610497326
 10
41.150688513647765
 20
232.56171138212085
  0
LWPOLYLINE
  5
54
330
17
100
AcDbEntity
  8
default
100
AcDbPolyline
 90
47
 70
0
 10
63.29530084458307
 20
227.37834337428453
 10
63.519341678252346
 20
227.97046545469132
 10
63.66222704814438
 20
228.2861151337521
 10
63.773075450006644
 20
228.55993782716078
 10
63.85270467952426
 20
228.74575050943577
 10
63.90658859789551
 20
228.8647815213711
 10
63.9621692177987
 20
229.04541324362043
 10
64.1907055994536
 20
229.64722509104115
 10
64.34822779380026
 20
229.9931148447587
 10
64.47151705315028
 20
230.2837084881222
 10
64.68518151072819
 20
230.7256265624881
 10
64.7520534347138
 20
230.8481917387139
 10
64.80485182911262
 20
230.9726376665209
 10
64.85740242689359
 20
231.0921362974965
 10
64.90840916735365
 20
231.2041333923971
 10
64.96237119487442
 20
231.37941920436597
 10
65.19073576023828
 20
231.98064103208594
 10
65.34824277331741
 20
232.32648410560853
 10
65.4715184967301
 20
232.61704524728867
 10
65.68518157867592
 20
233.05896004366733
 10
65.75205346306969
 20
233.1815251390566
 10
65.8048518300635
 20
233.3059710021014
 10
65.85740242690494
 20
233.42546963086065
 10
65.90840916735765
 20
233.53746672574346
 10
65.96237119487444
 20
233.7127525376994
 10
66.19073576023828
 20
234.31397436541928
 10
66.34824277331737
 20
234.6598174389418
 10
66.47151849673021
 20
234.95037858062224
 10
66.68518157869327
 20
235.3922933770324
 10
66.75205346366127
 20
235.514858473472
 10
66.80485183101459
 20
235.6393043371956
 10
66.85740247093747
 20
235.75880306039673
 10
66.9084096195359
 20
235.87080104514894
 10
66.96237181201775
 20
236.04608713146712
 10
67.19076592390344
 20
236.64737318453584
 10
67.32890163601049
 20
236.95067038314582
 10
66.1578334895894
 20
241.2535625747405
 10
64.9057022370398
 20
242.03317090356722
 10
63.97923585167155
 20
241.9315978102386
 10
56.78601601300761
 20
231.8822218226269
 10
57.5883579114452
 20
227.9284682031721
 10
62.920348913459115
 20
226.45329797529612
 10
62.995559657999344
 20
226.61944688699504
 10
63.10640750317947
 20
226.89326874242275
 10
63.186008301557855
 20
227.07901895269904
 10
63.23976927494095
 20
227.19778293082413
 10
63.29530084458307
 20
227.37834337428453
  0
LWPOLYLINE
  5
55
330
17
100
AcDbEntity
  8
default
100
AcDbPolyline
 90
6
 70
0
 10
52.020035553723574
 20
247.66893221391365
 10
48.13659312296659
 20
246.50439320364967
 10
44.778447705321014
 20
236.87342867581174
 10
53.81857560714707
 20
234.6088242828846
 10
59.952129498589784
 20
243.1777809644118
 10
52.020035553723574
 20
247.66893221391365
  0
LWPOLYLINE
  5
56
330
17
100
AcDbEntity
  8
default
100
AcDbPolyline
 90
35
 70
0
 10
35.889884704763524
 20
249.44123979265888
 10
35.825909593253215
 20
249.29769472495772
 10
35.640786363103665
 20
248.924883222664
 10
35.57798528856332
 20
248.81061420473907
 10
35.52800832877813
 20
248.6928977192259
 10
35.47590069872639
 20
248.57444766145608
 10
35.42491252663648
 20
248.46249566403228
 10
35.37096090416978
 20
248.28724417387613
 10
35.1425673653931
 20
247.6859600287994
 10
34.984825281600344
 20
247.33961418750798
 10
34.861341662111634
 20
247.0487590060976
 10
34.640786363103665
 20
246.59450866335723
 10
34.55655137143012
 20
246.44123979265873
 10
34.492576259919836
 20
246.29769472495764
 10
34.30745302977033
 20
245.92488322266402
 10
34.244651955230026
 20
245.81061420473915
 10
34.194674995444856
 20
245.69289771922604
 10
34.142567365393056
 20
245.57444766145608
 10
34.091579193303154
 20
245.4624956640323
 10
34.03762757083644
 20
245.28724417387613
 10
33.80923403205978
 20
244.68596002879943
 10
33.65149194826698
 20
244.3396141875079
 10
33.52800832877823
 20
244.04875900609747
 10
33.307453029770436
 20
243.59450866335746
 10
33.223218038096846
 20
243.44123979265888
 10
33.17160966848387
 20
243.32544277823948
 10
39.91212401725352
 20
236.4676988082938
 10
40.52475508349016
 20
236.82321937009692
 10
44.13093400374055
 20
247.1655294666998
 10
36.64865549450151
 20
251.14076588800887
 10
36.475900698715165
 20
250.6859600287688
 10
36.31815861492828
 20
250.33961418749521
 10
36.194674995444835
 20
250.04875900609733
 10
35.974119696437086
 20
249.59450866335743
 10
35.889884704763524
 20
249.44123979265888
  0
LWPOLYLINE
  5
57
330
17
100
AcDbEntity
  8
default
100
AcDbPolyline
 90
59
 70
0
 10
71.34850883948535
 20
245.9937208554594
 10
71.47199311728308
 20
246.2845769890653
 10
71.69259430542873
 20
246.7389100519801
 10
71.77711941787321
 20
246.89269964733433
 10
71.84129284323336
 20
247.0365878398465
 10
72.03337074657915
 20
247.42177684735606
 10
72.11359674665174
 20
247.56668457484878
 10
72.17462617656663
 20
247.70352337239186
 10
72.3592609720954
 20
248.0752192850316
 10
72.42203485690911
 20
248.1894335116102
 10
72.47199311728302
 20
248.30710571015385
 10
72.52409934532169
 20
248.4255524585669
 10
72.57508748963767
 20
248.53750438870074
 10
72.6290390966434
 20
248.7127558282904
 10
72.85743267866643
 20
249.31404006746487
 10
73.01517550666799
 20
249.6603875232548
 10
73.13865978490244
 20
249.95124365749513
 10
73.35926104121972
 20
250.40557684393448
 10
73.44378708425103
 20
250.55936812199155
 10
73.50796114838772
 20
250.70325743556646
 10
73.70008562398928
 20
251.08852984761867
 10
73.78060432185201
 20
251.23395942674836
 10
73.84183120311786
 20
251.3711434800314
 10
74.0334670326876
 20
251.7552997259405
 10
74.11395791786822
 20
251.90067226123608
 10
74.1751645364512
 20
252.0378109142487
 10
74.36675229065595
 20
252.4218803304333
 10
74.4469513646706
 20
252.56673261804016
 10
74.50796114838766
 20
252.70352706948248
 10
74.69259437455288
 20
253.07521943411467
 10
74.75536821894465
 20
253.18943357938102
 10
74.80532645156904
 20
253.30710571240368
 10
74.85743267866637
 20
253.4255524585977
 10
74.90842082297503
 20
253.53750438871387
 10
74.96237242997675
 20
253.71275582829048
 10
75.19076601199977
 20
254.31404006746487
 10
75.34850884000114
 20
254.66038752325437
 10
75.4719931182357
 20
254.95124365749498
 10
75.69259437455304
 20
255.40557684393448
 10
75.77712041758448
 20
255.5593681219918
 10
75.8412944817212
 20
255.70325743556674
 10
76.03341895734066
 20
256.0885298476512
 10
76.11393765583622
 20
256.2339594279214
 10
76.1751645375318
 20
256.3711434819718
 10
76.3668004363287
 20
256.7552998524407
 10
76.44729225804907
 20
256.90067406923845
 10
76.5084995111864
 20
257.03781384722316
 10
76.70013383995152
 20
257.42196666936434
 10
76.78062562165071
 20
257.567340803925
 10
76.8418328456004
 20
257.704480516317
 10
76.88990103570407
 20
257.800838674013
 10
76.71554178744555
 20
257.92849815124646
 10
70.51284159254283
 20
255.4542264258489
 10
67.6934432447888
 20
245.00941606378183
 10
68.34907288756222
 20
244.60120460065082
 10
70.91378712338229
 20
244.88826911872192
 10
70.9623724295702
 20
245.0460891602973
 10
71.19076601197702
 20
245.64737340074237
 10
71.34850883948535
 20
245.9937208554594
  0
LWPOLYLINE
  5
58
330
17
100
AcDbEntity
  8
default
100
AcDbPolyline
 90
7
 70
0
 10
54.86479445267469
 20
259.53546506818384
 10
54.33599787764251
 20
250.95429826434702
 10
63.296719597652555
 20
245.88073801295832
 10
63.80038161901757
 20
245.93595697218552
 10
66.6402891529724
 20
256.4567461553961
 10
60.618929248768836
 20
263.65328160719946
 10
54.86479445267469
 20
259.53546506818384
  0
LWPOLYLINE
  5
59
330
17
100
AcDbEntity
  8
default
100
AcDbPolyline
 90
47
 70
0
 10
42.49150048773297
 20
263.62885281701637
 10
42.299866160048516
 20
263.2446999972965
 10
42.219374378992654
 20
263.0993258638977
 10
42.15816715548032
 20
262.9621861522902
 10
41.966532897004576
 20
262.57803345709686
 10
41.88604205185597
 20
262.4326610040604
 10
41.824835462468336
 20
262.29552241665783
 10
41.63324770932579
 20
261.9114530028611
 10
41.55304863532166
 20
261.7666007152758
 10
41.492038851612364
 20
261.6298062638509
 10
41.30740562544681
 20
261.25811389921813
 10
41.244631781055276
 20
261.1438997539522
 10
41.19467354843101
 20
261.0262276209299
 10
41.1425673213337
 20
260.90778087473586
 10
41.09157917702496
 20
260.79582894461953
 10
41.03762757002329
 20
260.62057750504306
 10
40.80923398800026
 20
260.01929326586855
 10
40.65149115999869
 20
259.6729458100786
 10
40.528006881764384
 20
259.3820896758386
 10
40.30740562544698
 20
258.9277564893989
 10
40.22287958241559
 20
258.7739652113417
 10
40.15870551827899
 20
258.63007589776703
 10
39.96658104265948
 20
258.2448034856823
 10
39.88606234416377
 20
258.0993739054119
 10
39.8248354624682
 20
257.96218985136153
 10
39.633199563689445
 20
257.57803348092534
 10
39.55270774260192
 20
257.432659265268
 10
39.491500489894285
 20
257.2955194880507
 10
39.29986623035594
 20
256.9113667904686
 10
39.219375385196805
 20
256.7659943374106
 10
39.15816879580167
 20
256.6288557499912
 10
38.96658104265931
 20
256.2447863361948
 10
38.88638196865505
 20
256.09993404860927
 10
38.82537218494553
 20
255.96313959718393
 10
38.64073895878014
 20
255.5914472325515
 10
38.577965114388704
 20
255.47723308728578
 10
38.5280068817645
 20
255.35956095426354
 10
38.47590065466704
 20
255.2411142080692
 10
38.42491251035836
 20
255.12916227795301
 10
38.370960903356675
 20
254.95391083837646
 10
38.30816091273212
 20
254.78857937744533
 10
46.79688984667882
 20
250.27862904779613
 10
50.352477446664125
 20
251.34485329082236
 10
50.85172721417621
 20
259.44654254987836
 10
42.59263452071907
 20
263.8381033112365
 10
42.552707711674934
 20
263.7659925293911
 10
42.49150048773297
 20
263.62885281701637
  0
LWPOLYLINE
  5
5A
330
17
100
AcDbEntity
  8
default
100
AcDbPolyline
 90
7
 70
0
 10
63.3528218944557
 20
268.5108048785478
 10
63.08799329865724
 20
266.93569898372516
 10
69.44703518878669
 20
259.3355768965557
 10
75.19425724586472
 20
261.62815731950104
 10
76.00524457264692
 20
267.080824281089
 10
70.89389694482088
 20
273.1897423649207
 10
63.3528218944557
 20
268.5108048785478
  0
LWPOLYLINE
  5
5B
330
17
100
AcDbEntity
  8
default
100
AcDbPolyline
 90
6
 70
0
 10
59.379942004568875
 20
269.0060298005119
 10
50.3135183644481
 20
277.47955374000594
 10
44.83683556178585
 20
267.1751151867211
 10
52.771402910817415
 20
262.95611245557666
 10
59.12752193817869
 20
267.5047254068777
 10
59.379942004568875
 20
269.0060298005119
  0
LWPOLYLINE
  5
5C
330
17
100
AcDbEntity
  8
default
100
AcDbPolyline
 90
31
 70
0
 10
83.78062562215916
 20
271.56734080506726
 10
83.84183284561682
 20
271.7044805163539
 10
84.03346717330317
 20
272.08863333607
 10
84.1139589549918
 20
272.234007470609
 10
84.1751661789338
 20
272.3711471829838
 10
84.36680050663621
 20
272.7553000027361
 10
84.44729228832503
 20
272.9006741372755
 10
84.50849951226705
 20
273.0378138496503
 10
84.70013383996964
 20
273.42196666940293
 10
84.7806256216583
 20
273.56734080394205
 10
84.84183284560032
 20
273.7044805163169
 10
85.03346717330304
 20
274.08863333606973
 10
85.11395895499173
 20
274.23400747060884
 10
85.1751661789338
 20
274.3711471829838
 10
85.3668005066362
 20
274.755300002736
 10
85.44729228833476
 20
274.90067413729304
 10
85.50849951228955
 20
275.03781384969346
 10
85.70013384115428
 20
275.42196667153775
 10
85.78062566100824
 20
275.56734087483926
 10
85.84183293336807
 20
275.70448068404363
 10
86.03346898712594
 20
276.0886365931723
 10
86.11398676938498
 20
276.23405743298247
 10
86.17522678541648
 20
276.37126262237007
 10
86.29135178613637
 20
276.6039714455938
 10
83.3584053805098
 20
280.10933454008773
 10
73.54956159600988
 20
276.36872702278197
 10
73.52444662619382
 20
276.2791573149152
 10
78.83857023948804
 20
269.92788790306076
 10
83.56431513141274
 20
271.14970262178866
 10
83.70013384066759
 20
271.4219666710511
 10
83.78062562215916
 20
271.56734080506726
  0
LWPOLYLINE
  5
5D
330
17
100
AcDbEntity
  8
default
100
AcDbPolyline
 90
27
 70
0
 10
53.89171540158071
 20
285.8504171553732
 10
53.611844118810744
 20
285.3960225106432
 10
53.429438906915465
 20
285.1324873078952
 10
53.336561126059195
 20
284.9619295465285
 10
53.27911750668681
 20
284.85933290818406
 10
53.20101021253401
 20
284.723599301738
 10
53.151485425304486
 20
284.6136382177873
 10
52.966198632609675
 20
284.2438925998989
 10
52.88578359415814
 20
284.0987401382879
 10
52.82479036407082
 20
283.96208786045065
 10
52.633198447578096
 20
283.57803084153176
 10
52.552706941971124
 20
283.43265745922355
 10
52.49150042376096
 20
283.29551933975205
 10
52.299866159332346
 20
282.9113666622821
 10
52.21937437784084
 20
282.76599252826605
 10
52.158167154383065
 20
282.6288528169792
 10
51.966532826697204
 20
282.24469999726404
 10
51.8860410450084
 20
282.0993258627247
 10
51.824833821066264
 20
281.96218615034957
 10
51.68190434578223
 20
281.6756677503616
 10
61.77718028938398
 20
272.2405734085478
 10
69.5984827359207
 20
277.09338086191565
 10
69.77130313171074
 20
277.7097253156826
 10
66.89381081424654
 20
283.95140609750524
 10
54.214350574420024
 20
286.43006996605817
 10
54.084268122119894
 20
286.20401476135663
 10
53.89171540158071
 20
285.8504171553732
  0
LWPOLYLINE
  5
5E
330
17
100
AcDbEntity
  8
default
100
AcDbPolyline
 90
7
 70
0
 10
73.8084233221598
 20
291.8550142417662
 10
70.5131077603437
 20
285.65484199346974
 10
72.92953840829432
 20
280.4132680557668
 10
82.26077886950225
 20
283.9717413051985
 10
82.66044703265652
 20
285.75661326758564
 10
77.96800646744668
 20
292.4130185660906
 10
73.8084233221598
 20
291.8550142417662
  0
LWPOLYLINE
  5
5F
330
17
100
AcDbEntity
  8
default
100
AcDbPolyline
 90
42
 70
0
 10
60.75067668867873
 20
298.2035287612257
 10
60.558350282766426
 20
297.8503581831449
 10
60.278509738555414
 20
297.3960206772071
 10
60.09608471001446
 20
297.13245719378375
 10
60.00317888154074
 20
296.96185344858566
 10
59.94523055199471
 20
296.8583831691795
 10
59.86303751100936
 20
296.71562055379906
 10
59.808565319248665
 20
296.59574257836874
 10
59.58963813159778
 20
296.1694574162424
 10
59.417343381027294
 20
295.87019547219666
 10
59.225017020057514
 20
295.5170249600064
 10
58.94517731211258
 20
295.0626886437615
 10
58.76277183380039
 20
294.7991532311949
 10
58.66989434189619
 20
294.62859601652633
 10
58.61244917865681
 20
294.5259967046088
 10
58.53431549131194
 20
294.3902174388643
 10
58.484758602484675
 20
294.2801913401863
 10
58.29892887238061
 20
293.9094841666353
 10
58.21450051728048
 20
293.7571744943807
 10
58.148466495141264
 20
293.6105658995298
 10
57.923254559049376
 20
293.17013541913013
 10
57.75093400277664
 20
292.8706799675587
 10
57.55838202139122
 20
292.5170837355975
 10
57.27851078478824
 20
292.06268917610294
 10
57.09610554436626
 20
291.79915393237053
 10
57.003227722067784
 20
291.6285961029407
 10
56.94578251258716
 20
291.525996706001
 10
56.86764882509423
 20
291.3902174398635
 10
56.81809193583437
 20
291.2801913402227
 10
56.632262205714106
 20
290.9094841666357
 10
56.54783385061399
 20
290.7571744943811
 10
56.4817998284746
 20
290.6105658995298
 10
56.25658789238286
 20
290.1701354191304
 10
56.22369956078849
 20
290.11298268934564
 10
67.21111294068396
 20
287.96509121451527
 10
70.15682194614783
 20
293.50747490581125
 10
65.34176125843078
 20
299.82341243093833
 10
61.201524046618836
 20
299.0579045796205
 10
61.19637084433274
 20
299.0489538871151
 10
61.141898652559874
 20
298.9290759116605
 10
60.922971463848484
 20
298.50279074769963
 10
60.75067668867873
 20
298.2035287612257
  0
LWPOLYLINE
  5
60
330
17
100
AcDbEntity
  8
default
100
AcDbPolyline
 90
16
 70
0
 10
92.25190488927984
 20
298.15142332338144
 10
91.20815353647914
 20
297.5258228380134
 10
90.10810856116387
 20
297.0055403127931
 10
88.9623639977921
 20
296.5955863528536
 10
87.78195399283676
 20
296.299909038933
 10
86.57824653992331
 20
296.1213559051978
 10
85.36283399983677
 20
296.06164651593303
 10
84.14742145975022
 20
296.1213559051978
 10
82.94371400683677
 20
296.299909038933
 10
82.43541631340082
 20
296.427230983034
 10
81.30481663206592
 20
294.62196051562205
 10
85.4306805273518
 20
288.7692657597363
 10
92.88149812398478
 20
292.67040022695437
 10
93.35832203412428
 20
297.7563884346746
 10
92.78968534119979
 20
298.55026848932226
 10
92.25190488927984
 20
298.15142332338144
  0
LWPOLYLINE
  5
61
330
17
100
AcDbEntity
  8
default
100
AcDbPolyline
 90
27
 70
0
 10
66.92296980557362
 20
308.83612121756926
 10
66.75065825210783
 20
308.53683054230976
 10
66.55830149123838
 20
308.18361562109266
 10
66.2782041280942
 20
307.7289198030443
 10
66.09269701111138
 20
307.46096158903356
 10
65.99541324895621
 20
307.2832132881198
 10
65.90593668613519
 20
307.1265117279733
 10
65.73335999054588
 20
306.83655508383276
 10
65.55354342421406
 20
306.50801013004434
 10
65.27847299397283
 20
306.0625220022562
 10
65.09595988638442
 20
305.79888852480065
 10
65.00314721569876
 20
305.6284613455531
 10
64.94522966078351
 20
305.52504773944594
 10
64.86303677796042
 20
305.3822856152188
 10
64.80856517014657
 20
305.26240894432095
 10
64.58963647224029
 20
304.83612121756926
 10
64.4173249187745
 20
304.53683054230976
 10
64.22496815790505
 20
304.18361562109266
 10
63.944870794760874
 20
303.7289198030443
 10
63.86866417178093
 20
303.61884213636705
 10
64.93392653483897
 20
303.81580348452553
 10
67.88468356663361
 20
308.75485749403015
 10
67.32922754581193
 20
309.6155108814108
 10
67.2785629941167
 20
309.52504773944565
 10
67.19637011129375
 20
309.3822856152188
 10
67.1418985034799
 20
309.26240894432095
 10
66.92296980557362
 20
308.83612121756926
  0
LWPOLYLINE
  5
62
330
17
100
AcDbEntity
  8
default
100
AcDbPolyline
 90
45
 70
0
 10
75.1126128859452
 20
322.30845120567113
 10
74.94445227077276
 20
322.0529583696102
 10
74.7504262501378
 20
321.7769377345651
 10
74.65721569804577
 20
321.60748608548244
 10
74.57185537623229
 20
321.4584274808203
 10
74.39662934209439
 20
321.1642774382634
 10
74.2124180414074
 20
320.829381013726
 10
73.92221033750077
 20
320.3641637561849
 10
73.66031599174853
 20
319.99151963897594
 10
73.44945368555247
 20
319.6476537597234
 10
73.27780275904203
 20
319.3864228446225
 10
73.0838755279579
 20
319.11048774701067
 10
72.99058001936088
 20
318.9408763629078
 10
72.90518946133818
 20
318.79176258125653
 10
72.729963381355
 20
318.497612070612
 10
72.54575142060375
 20
318.16271443082695
 10
72.25554367144437
 20
317.6974970905875
 10
71.99364934540569
 20
317.3248530011296
 10
71.7827870773531
 20
316.9809871737006
 10
71.61113693940815
 20
316.71975737332497
 10
71.41722893950316
 20
316.44384947132767
 10
71.32396146850503
 20
316.2742837717048
 10
71.2390294091685
 20
316.1259354253771
 10
71.06644295795425
 20
315.8360897367454
 10
70.88679693376292
 20
315.5078772201211
 10
70.61150085911778
 20
315.0620877601789
 10
70.42590506730235
 20
314.79405978188936
 10
70.32871513887612
 20
314.6164885750695
 10
70.23926774071712
 20
314.45984074196656
 10
70.06667408163273
 20
314.16985637051863
 10
69.88682825855119
 20
313.84126840012226
 10
69.63053754969117
 20
313.42624815894567
 10
71.25436699902639
 20
310.9101996081881
 10
73.2599787368604
 20
311.11583748419946
 10
73.49677383675737
 20
312.06117651388837
 10
73.90672779669681
 20
313.2069210772601
 10
74.42701032191717
 20
314.3069660525754
 10
75.0526108072852
 20
315.3507174053761
 10
75.77750437813883
 20
316.3281232395622
 10
76.59470991312358
 20
317.2297706026462
 10
77.49635727620756
 20
318.04697613763096
 10
78.20903763034211
 20
318.57553591159217
 10
75.45768633211262
 20
322.83862736431945
 10
75.31916665045388
 20
322.6442073787145
 10
75.1126128859452
 20
322.30845120567113
  0
LWPOLYLINE
  5
63
330
17
100
AcDbEntity
  8
default
100
AcDbPolyline
 90
19
 70
0
 10
78.77278662199203
 20
327.9662759854941
 10
78.58953934774911
 20
327.6902615342296
 10
78.31662679355647
 20
327.3073548732083
 10
78.10615991659947
 20
326.9663305731911
 10
77.92314119834565
 20
326.69063170410993
 10
77.82303046464146
 20
326.55014672447305
 10
81.82839983059806
 20
320.34401233526876
 10
82.94371400683677
 20
320.62338399293304
 10
84.14742145975022
 20
320.80193712666824
 10
85.36283399983677
 20
320.861646515933
 10
86.57824653992331
 20
320.80193712666824
 10
87.78195399283676
 20
320.62338399293304
 10
88.2401492035576
 20
320.50861206742536
 10
92.56364423269406
 20
322.15152461640537
 10
87.2856104108505
 20
330.32959365751594
 10
79.35661937603408
 20
328.84151006037786
 10
79.25620524686545
 20
328.69026076667944
 10
78.9832796493974
 20
328.30733580544813
 10
78.77278662199203
 20
327.9662759854941
  0
LWPOLYLINE
  5
64
330
17
100
AcDbEntity
  8
default
100
AcDbPolyline
 90
19
 70
0
 10
84.64994595150881
 20
336.9740018755507
 10
84.43945319685473
 20
336.63294251757543
 10
84.2562052210322
 20
336.35692709695235
 10
83.98327928507544
 20
335.97400187593024
 10
83.77278653021148
 20
335.6329425176098
 10
83.5895385548785
 20
335.3569270976697
 10
83.31661263818783
 20
334.9740019035371
 10
83.10611992132577
 20
334.6329425967733
 10
82.92287268105632
 20
334.35692820066583
 10
82.64996012666128
 20
333.9740215395021
 10
82.439493249924
 20
333.63299723984346
 10
82.33100197906907
 20
333.46956630247735
 10
86.8537616636604
 20
334.3183810468763
 10
87.88242906208642
 20
336.5482709257436
 10
85.49756364464537
 20
338.2278826561747
 10
85.31661227386219
 20
337.9740013073476
 10
85.1061198295303
 20
337.63294246220175
 10
84.92287188767263
 20
337.35692709672173
 10
84.64994595150881
 20
336.9740018755507
  0
LWPOLYLINE
  5
65
330
17
100
AcDbEntity
  8
default
100
AcDbPolyline
 90
37
 70
0
 10
88.78524106403957
 20
281.24224248331785
 10
88.85149049822563
 20
281.3893377057628
 10
89.0767445482218
 20
281.82986248005795
 10
89.24906521069678
 20
282.1293185710237
 10
89.44161793174064
 20
282.48291617793814
 10
89.72148921452262
 20
282.9373108226902
 10
89.90389442642524
 20
283.20084602544887
 10
89.99677220729224
 20
283.3714037868332
 10
90.05421582773032
 20
283.4740004270284
 10
90.1323231605619
 20
283.60973410055414
 10
90.18184799513998
 20
283.71969528050937
 10
90.36713651230791
 20
284.0894439846466
 10
90.44757756112969
 20
284.23464314325014
 10
90.50860357288457
 20
284.371360900089
 10
90.70073871151995
 20
284.7563795171919
 10
90.78524183691853
 20
284.9089108788158
 10
90.85149056152461
 20
285.0560045135605
 10
91.07674454881902
 20
285.4965291481172
 10
91.2490652112132
 20
285.7959852386431
 10
91.44161793175273
 20
286.1495828446271
 10
91.72148921452265
 20
286.6039774893569
 10
91.90389442642532
 20
286.8675126921156
 10
91.99677220729232
 20
287.0380704534999
 10
92.05421582773022
 20
287.14066709369484
 10
92.13232316056178
 20
287.27640076722054
 10
92.18184799513978
 20
287.38636194717566
 10
92.3671365123081
 20
287.75611065131363
 10
92.44757756112966
 20
287.90130980991677
 10
92.46317815035862
 20
287.936260112311
 10
86.55487102689222
 20
284.84276060480624
 10
86.14498688839376
 20
283.01226527569816
 10
88.34644202964171
 20
280.3811569843396
 10
88.36680336623829
 20
280.4219724155534
 10
88.44732087245005
 20
280.56739250311574
 10
88.50856018271774
 20
280.70459609961677
 10
88.70073766866966
 20
281.08971036899493
 10
88.78524106403957
 20
281.24224248331785
  0
LWPOLYLINE
  5
66
330
17
100
AcDbEntity
  8
default
100
AcDbPolyline
 90
61
 70
0
 10
100.05516566982514
 20
301.27124504349274
 10
100.24076122170162
 20
301.53927285281145
 10
100.33795148144179
 20
301.7168446731845
 10
100.42739892544228
 20
301.8734925901874
 10
100.59999258456953
 20
302.1634769619623
 10
100.77983840810327
 20
302.4920649331889
 10
101.05516566992556
 20
302.93791171051805
 10
101.24076122194859
 20
303.2059395199315
 10
101.33795148145363
 20
303.3835113398728
 10
101.42739892544265
 20
303.5401592568548
 10
101.59999258456969
 20
303.83014362862923
 10
101.7798384081032
 20
304.1587315998554
 10
102.0551656699254
 20
304.60457837718445
 10
102.24076122194852
 20
304.87260618659803
 10
102.33795148145363
 20
305.0501780065395
 10
102.42739892544257
 20
305.20682592352136
 10
102.59999258456982
 20
305.49681029529614
 10
102.77983840810327
 20
305.8253982665222
 10
103.05516566992529
 20
306.27124504385097
 10
103.24076122194845
 20
306.53927285326466
 10
103.33795148145374
 20
306.7168446732064
 10
103.42739892544245
 20
306.8734925901878
 10
103.59999258456973
 20
307.1634769619627
 10
103.77983840810326
 20
307.4920649331889
 10
104.0551656699255
 20
307.937911710518
 10
104.24076122195582
 20
308.205939519942
 10
104.33795148147156
 20
308.38351133990074
 10
104.42739892643623
 20
308.5401592585202
 10
104.5999926104588
 20
308.8301436718682
 10
104.77983847823027
 20
309.15873170870356
 10
105.05516657509942
 20
309.60457967403835
 10
105.24078140370773
 20
309.8726351442934
 10
105.33799993195132
 20
310.05025297892666
 10
105.42790612386378
 20
310.2076667743219
 10
105.60313854688287
 20
310.50195616936554
 10
105.78755092261618
 20
310.8372286194068
 10
106.07778958240648
 20
311.30250248159365
 10
106.33968361708176
 20
311.67514638342993
 10
106.55054622131213
 20
312.01901276946086
 10
106.72219639386364
 20
312.2802426263842
 10
106.91610439360811
 20
312.5561505282638
 10
107.00937186483449
 20
312.72571622830156
 10
107.09430392515716
 20
312.8740645762853
 10
107.26689040127292
 20
313.163910306483
 10
107.44653646969371
 20
313.4921228887177
 10
107.72183337938745
 20
313.9379135366713
 10
107.90744844779535
 20
314.2059691757948
 10
107.9278490708717
 20
314.24324102503675
 10
107.91923535754904
 20
314.25785829359666
 10
102.34312206180766
 20
315.7129018283449
 10
97.64889801773062
 20
306.8806679810984
 10
97.52457147683683
 20
306.04252652293303
 10
97.22889416291616
 20
304.86211651797765
 10
96.81894020297672
 20
303.7163719546059
 10
96.29865767775637
 20
302.61632697929065
 10
95.67305719238833
 20
301.57257562648994
 10
95.6079781557128
 20
301.4848267034929
 10
96.40440680179745
 20
300.37292375182733
 10
99.63279864073893
 20
300.5567487076535
 10
99.77983836176638
 20
300.82539818146455
 10
100.05516566982514
 20
301.27124504349274
  0
LWPOLYLINE
  5
67
330
17
100
AcDbEntity
  8
default
100
AcDbPolyline
 90
6
 70
0
 10
108.54904816718772
 20
318.22745277173817
 10
110.62037448136446
 20
320.5344029846758
 10
103.3983039395562
 20
325.6207589321898
 10
101.92639928124845
 20
320.3311073812656
 10
102.3872428345494
 20
319.83532810304314
 10
108.54904816718772
 20
318.22745277173817
  0
LWPOLYLINE
  5
68
330
17
100
AcDbEntity
  8
default
100
AcDbPolyline
 90
8
 70
0
 10
94.46879457820596
 20
331.90962897099087
 10
91.20730705464155
 20
334.2066276457049
 10
90.51404039375484
 20
332.7038014526479
 10
92.73913320519871
 20
329.25612315998654
 10
93.19798359049447
 20
330.05719742879563
 10
93.78890176884447
 20
330.95210438479563
 10
94.43547993374446
 20
331.8623209653956
 10
94.46879457820596
 20
331.90962897099087
  0
LWPOLYLINE
  5
69
330
17
100
AcDbEntity
  8
default
100
AcDbPolyline
 90
65
 70
0
 10
23.914278164813307
 20
147.587872940936
 10
23.70930118484359
 20
148.16074522262187
 10
23.449159922233413
 20
148.7107677102795
 10
23.136359679549393
 20
149.23264338667985
 10
22.77391289412258
 20
149.72134630377292
 10
22.365310126630206
 20
150.17216998531492
 10
21.914486445088215
 20
150.5807727528073
 10
21.425783527995144
 20
150.9432195382341
 10
20.9039078515948
 20
151.2560197809181
 10
20.35388536393717
 20
151.51616104352829
 10
19.781013082251278
 20
151.721138023498
 10
19.190808079773607
 20
151.86897668045833
 10
18.588954353316886
 20
151.95825324732593
 10
17.981248083273613
 20
151.9881079419583
 10
17.37354181323034
 20
151.95825324732593
 10
16.771688086773615
 20
151.86897668045833
 10
16.181483084295945
 20
151.721138023498
 10
15.608610802610052
 20
151.51616104352829
 10
15.058588314952425
 20
151.2560197809181
 10
14.536712638552078
 20
150.9432195382341
 10
14.048009721459009
 20
150.5807727528073
 10
13.597186039917016
 20
150.17216998531492
 10
13.188583272424642
 20
149.72134630377292
 10
12.82613648699783
 20
149.23264338667985
 10
12.513336244313813
 20
148.7107677102795
 10
12.253194981703635
 20
148.16074522262187
 10
12.048218001733918
 20
147.587872940936
 10
11.900379344773583
 20
146.9976679384583
 10
11.811102777905992
 20
146.3958142120016
 10
11.781248083273614
 20
145.78810794195832
 10
11.811102777905992
 20
145.18040167191504
 10
11.900379344773583
 20
144.57854794545833
 10
12.048218001733918
 20
143.98834294298064
 10
12.253194981703635
 20
143.41547066129476
 10
12.513336244313813
 20
142.86544817363713
 10
12.826136486997832
 20
142.34357249723678
 10
13.188583272424644
 20
141.8548695801437
 10
13.59718603991702
 20
141.4040458986017
 10
14.04800972145901
 20
140.99544313110934
 10
14.53671263855208
 20
140.63299634568253
 10
15.058588314952427
 20
140.32019610299852
 10
15.608610802610055
 20
140.06005484038835
 10
16.181483084295948
 20
139.85507786041862
 10
16.77168808677362
 20
139.7072392034583
 10
17.373541813230336
 20
139.6179626365907
 10
17.981248083273613
 20
139.58810794195833
 10
18.58895435331689
 20
139.6179626365907
 10
19.190808079773607
 20
139.7072392034583
 10
19.781013082251278
 20
139.85507786041862
 10
20.35388536393717
 20
140.06005484038835
 10
20.9039078515948
 20
140.32019610299852
 10
21.425783527995147
 20
140.63299634568253
 10
21.914486445088215
 20
140.99544313110934
 10
22.365310126630206
 20
141.4040458986017
 10
22.77391289412258
 20
141.8548695801437
 10
23.136359679549393
 20
142.34357249723678
 10
23.449159922233413
 20
142.86544817363713
 10
23.70930118484359
 20
143.41547066129476
 10
23.914278164813307
 20
143.98834294298064
 10
24.062116821773643
 20
144.57854794545833
 10
24.15139338864123
 20
145.18040167191504
 10
24.181248083273612
 20
145.78810794195832
 10
24.15139338864123
 20
146.3958142120016
 10
24.062116821773643
 20
146.9976679384583
 10
23.914278164813307
 20
147.587872940936
  0
LWPOLYLINE
  5
6A
330
17
100
AcDbEntity
  8
default
100
AcDbPolyline
 90
65
 70
0
 10
91.53297930520439
 20
309.06935278597626
 10
91.4437027383368
 20
309.671206512433
 10
91.29586408137646
 20
310.26141151491066
 10
91.09088710140674
 20
310.8342837965966
 10
90.83074583879656
 20
311.3843062842542
 10
90.51794559611255
 20
311.9061819606545
 10
90.15549881068573
 20
312.39488487774764
 10
89.74689604319336
 20
312.8457085592896
 10
89.29607236165137
 20
313.254311326782
 10
88.8073694445583
 20
313.6167581122088
 10
88.28549376815795
 20
313.92955835489283
 10
87.73547128050032
 20
314.189699617503
 10
87.16259899881443
 20
314.3946765974727
 10
86.57239399633676
 20
314.54251525443306
 10
85.97054026988003
 20
314.6317918213006
 10
85.36283399983677
 20
314.661646515933
 10
84.75512772979349
 20
314.6317918213006
 10
84.15327400333678
 20
314.54251525443306
 10
83.5630690008591
 20
314.3946765974727
 10
82.99019671917321
 20
314.189699617503
 10
82.44017423151558
 20
313.92955835489283
 10
81.91829855511523
 20
313.6167581122088
 10
81.42959563802216
 20
313.254311326782
 10
80.97877195648017
 20
312.8457085592896
 10
80.57016918898779
 20
312.3948848777476
 10
80.20772240356098
 20
311.9061819606545
 10
79.89492216087696
 20
311.3843062842542
 10
79.63478089826678
 20
310.8342837965966
 10
79.42980391829707
 20
310.26141151491066
 10
79.28196526133674
 20
309.671206512433
 10
79.19268869446914
 20
309.06935278597626
 10
79.16283399983676
 20
308.461646515933
 10
79.19268869446914
 20
307.85394024588976
 10
79.28196526133674
 20
307.252086519433
 10
79.42980391829707
 20
306.66188151695536
 10
79.63478089826678
 20
306.08900923526943
 10
79.89492216087696
 20
305.53898674761183
 10
80.20772240356098
 20
305.0171110712115
 10
80.57016918898779
 20
304.52840815411844
 10
80.97877195648017
 20
304.0775844725764
 10
81.42959563802216
 20
303.66898170508404
 10
81.91829855511523
 20
303.3065349196572
 10
82.44017423151558
 20
302.9937346769732
 10
82.99019671917321
 20
302.73359341436304
 10
83.5630690008591
 20
302.5286164343933
 10
84.15327400333678
 20
302.38077777743297
 10
84.75512772979349
 20
302.2915012105654
 10
85.36283399983677
 20
302.261646515933
 10
85.97054026988005
 20
302.2915012105654
 10
86.57239399633676
 20
302.38077777743297
 10
87.16259899881443
 20
302.5286164343933
 10
87.73547128050032
 20
302.73359341436304
 10
88.28549376815795
 20
302.9937346769732
 10
88.8073694445583
 20
303.3065349196572
 10
89.29607236165137
 20
303.66898170508404
 10
89.74689604319336
 20
304.0775844725764
 10
90.15549881068574
 20
304.52840815411844
 10
90.51794559611255
 20
305.0171110712115
 10
90.83074583879657
 20
305.53898674761183
 10
91.09088710140675
 20
306.08900923526943
 10
91.29586408137646
 20
306.66188151695536
 10
91.4437027383368
 20
307.252086519433
 10
91.53297930520439
 20
307.85394024588976
 10
91.56283399983677
 20
308.461646515933
 10
91.53297930520439
 20
309.06935278597626
  0
ENDSEC
  0
SECTION
  2
OBJECTS
  0
DICTIONARY
  5
A
330
0
100
AcDbDictionary
280
0
281
1
  3
ACAD_COLOR
350
B
  3
ACAD_GROUP
350
C
  3
ACAD_LAYOUT
350
D
  3
ACAD_MATERIAL
350
E
  3
ACAD_MLEADERSTYLE
350
F
  3
ACAD_MLINESTYLE
350
10
  3
ACAD_PLOTSETTINGS
350
11
  3
ACAD_PLOTSTYLENAME
350
12
  3
ACAD_SCALELIST
350
14
  3
ACAD_TABLESTYLE
350
15
  3
ACAD_VISUALSTYLE
350
16
  3
EZDXF_META
350
2D
  0
DICTIONARY
  5
B
330
A
100
AcDbDictionary
280
0
281
1
  0
DICTIONARY
  5
C
330
A
100
AcDbDictionary
280
0
281
1
  0
DICTIONARY
  5
D
330
A
100
AcDbDictionary
280
0
281
1
  3
Model
350
1A
  3
Layout1
350
1E
  0
DICTIONARY
  5
E
330
A
100
AcDbDictionary
280
0
281
1
  3
ByBlock
350
1F
  3
ByLayer
350
20
  3
Global
350
21
  0
DICTIONARY
  5
F
330
A
100
AcDbDictionary
280
0
281
1
  3
Standard
350
2C
  0
DICTIONARY
  5
10
330
A
100
AcDbDictionary
280
0
281
1
  3
Standard
350
22
  0
DICTIONARY
  5
11
330
A
100
AcDbDictionary
280
0
281
1
  0
ACDBDICTIONARYWDFLT
  5
12
330
A
100
AcDbDictionary
280
0
281
1
  3
Normal
350
13
100
AcDbDictionaryWithDefault
340
13
  0
ACDBPLACEHOLDER
  5
13
330
12
  0
DICTIONARY
  5
14
330
A
100
AcDbDictionary
280
0
281
1
  0
DICTIONARY
  5
15
330
A
100
AcDbDictionary
280
0
281
1
  0
DICTIONARY
  5
16
330
A
100
AcDbDictionary
280
0
281
1
  0
LAYOUT
  5
1A
330
D
100
AcDbPlotSettings
  1

  2
Adobe PDF
  4
A3
  6

 40
7.5
 41
20.0
 42
7.5
 43
20.0
 44
420.0
 45
297.0
 46
0.0
 47
0.0
 48
0.0
 49
0.0
140
0.0
141
0.0
142
1.0
143
1.0
 70
1024
 72
1
 73
0
 74
5
  7

 75
16
 76
0
 77
2
 78
300
147
1.0
148
0.0
149
0.0
100
AcDbLayout
  1
Model
 70
1
 71
0
 10
0.0
 20
0.0
 11
420.0
 21
297.0
 12
0.0
 22
0.0
 32
0.0
 14
1e+20
 24
1e+20
 34
1e+20
 15
-1e+20
 25
-1e+20
 35
-1e+20
146
0.0
 13
0.0
 23
0.0
 33
0.0
 16
1.0
 26
0.0
 36
0.0
 17
0.0
 27
1.0
 37
0.0
 76
1
330
17
  0
LAYOUT
  5
1E
330
D
100
AcDbPlotSettings
  1

  2
Adobe PDF
  4
A3
  6

 40
7.5
 41
20.0
 42
7.5
 43
20.0
 44
420.0
 45
297.0
 46
0.0
 47
0.0
 48
0.0
 49
0.0
140
0.0
141
0.0
142
1.0
143
1.0
 70
0
 72
1
 73
0
 74
5
  7

 75
16
 76
0
 77
2
 78
300
147
1.0
148
0.0
149
0.0
100
AcDbLayout
  1
Layout1
 70
1
 71
1
 10
0.0
 20
0.0
 11
420.0
 21
297.0
 12
0.0
 22
0.0
 32
0.0
 14
1e+20
 24
1e+20
 34
1e+20
 15
-1e+20
 25
-1e+20
 35
-1e+20
146
0.0
 13
0.0
 23
0.0
 33
0.0
 16
1.0
 26
0.0
 36
0.0
 17
0.0
 27
1.0
 37
0.0
 76
1
330
1B
  0
MATERIAL
  5
1F
102
{ACAD_REACTORS
330
E
102
}
330
E
100
AcDbMaterial
  1
ByBlock
  2

 70
0
 40
1.0
 71
1
 41
1.0
 91
-1023410177
 42
1.0
 72
1
  3

 73
1
 74
1
 75
1
 44
0.5
 73
0
 45
1.0
 46
1.0
 77
1
  4

 78
1
 79
1
170
1
 48
1.0
171
1
  6

172
1
173
1
174
1
140
1.0
141
1.0
175
1
  7

176
1
177
1
178
1
143
1.0
179
1
  8

270
1
271
1
272
1
145
1.0
146
1.0
273
1
  9

274
1
275
1
276
1
 42
1.0
 72
1
  3

 73
1
 74
1
 75
1
 94
63
  0
MATERIAL
  5
20
102
{ACAD_REACTORS
330
E
102
}
330
E
100
AcDbMaterial
  1
ByLayer
  2

 70
0
 40
1.0
 71
1
 41
1.0
 91
-1023410177
 42
1.0
 72
1
  3

 73
1
 74
1
 75
1
 44
0.5
 73
0
 45
1.0
 46
1.0
 77
1
  4

 78
1
 79
1
170
1
 48
1.0
171
1
  6

172
1
173
1
174
1
140
1.0
141
1.0
175
1
  7

176
1
177
1
178
1
143
1.0
179
1
  8

270
1
271
1
272
1
145
1.0
146
1.0
273
1
  9

274
1
275
1
276
1
 42
1.0
 72
1
  3

 73
1
 74
1
 75
1
 94
63
  0
MATERIAL
  5
21
102
{ACAD_REACTORS
330
E
102
}
330
E
100
AcDbMaterial
  1
Global
  2

 70
0
 40
1.0
 71
1
 41
1.0
 91
-1023410177
 42
1.0
 72
1
  3

 73
1
 74
1
 75
1
 44
0.5
 73
0
 45
1.0
 46
1.0
 77
1
  4

 78
1
 79
1
170
1
 48
1.0
171
1
  6

172
1
173
1
174
1
140
1.0
141
1.0
175
1
  7

176
1
177
1
178
1
143
1.0
179
1
  8

270
1
271
1
272
1
145
1.0
146
1.0
273
1
  9

274
1
275
1
276
1
 42
1.0
 72
1
  3

 73
1
 74
1
 75
1
 94
63
  0
MLINESTYLE
  5
22
102
{ACAD_REACTORS
330
10
102
}
330
10
100
AcDbMlineStyle
  2
Standard
 70
0
  3

 62
256
 51
90.0
 52
90.0
 71
2
 49
0.5
 62
256
  6
BYLAYER
 49
-0.5
 62
256
  6
BYLAYER
  0
MLEADERSTYLE
  5
2C
102
{ACAD_REACTORS
330
F
102
}
330
F
100
AcDbMLeaderStyle
179
2
170
2
171
1
172
0
 90
2
 40
0.0
 41
0.0
173
1
 91
-1056964608
 92
-2
290
1
 42
2.0
291
1
 43
8.0
  3
Standard
 44
4.0
300

342
29
174
1
175
1
176
0
178
1
 93
-1056964608
 45
4.0
292
0
297
0
 46
4.0
 94
-1056964608
 47
1.0
 49
1.0
140
1.0
294
1
141
0.0
177
0
142
1.0
295
0
296
0
143
3.75
271
0
272
9
273
9
  0
DICTIONARY
  5
2D
330
A
100
AcDbDictionary
281
1
  3
CREATED_BY_EZDXF
350
2E
  3
WRITTEN_BY_EZDXF
350
6D
  0
DICTIONARYVAR
  5
2E
330
2D
100
DictionaryVariables
280
0
  1
1.1.1 @ 2023-10-28T15:34:30.435198+00:00
  0
DICTIONARYVAR
  5
6D
330
2D
100
DictionaryVariables
280
0
  1
1.1.1 @ 2023-10-28T15:34:30.455366+00:00
  0
ENDSEC
  0
EOF
