  0
SECTION
  2
HEADER
  9
$ACADVER
  1
AC1024
  9
$ACADMAINTVER
 70
6
  9
$DWGCODEPAGE
  3
ANSI_1252
  9
$LASTSAVEDBY
  1
ezdxf
  9
$INSBASE
 10
0.0
 20
0.0
 30
0.0
  9
$EXTMIN
 10
1e+20
 20
1e+20
 30
1e+20
  9
$EXTMAX
 10
-1e+20
 20
-1e+20
 30
-1e+20
  9
$LIMMIN
 10
0.0
 20
0.0
  9
$LIMMAX
 10
420.0
 20
297.0
  9
$ORTHOMODE
 70
0
  9
$REGENMODE
 70
1
  9
$FILLMODE
 70
1
  9
$QTEXTMODE
 70
0
  9
$MIRRTEXT
 70
1
  9
$LTSCALE
 40
1.0
  9
$ATTMODE
 70
1
  9
$TEXTSIZE
 40
2.5
  9
$TRACEWID
 40
1.0
  9
$TEXTSTYLE
  7
Standard
  9
$CLAYER
  8
0
  9
$CELTYPE
  6
ByLayer
  9
$CECOLOR
 62
256
  9
$CELTSCALE
 40
1.0
  9
$DISPSILH
 70
0
  9
$DIMSCALE
 40
1.0
  9
$DIMASZ
 40
2.5
  9
$DIMEXO
 40
0.625
  9
$DIMDLI
 40
3.75
  9
$DIMRND
 40
0.0
  9
$DIMDLE
 40
0.0
  9
$DIMEXE
 40
1.25
  9
$DIMTP
 40
0.0
  9
$DIMTM
 40
0.0
  9
$DIMTXT
 40
2.5
  9
$DIMCEN
 40
2.5
  9
$DIMTSZ
 40
0.0
  9
$DIMTOL
 70
0
  9
$DIMLIM
 70
0
  9
$DIMTIH
 70
0
  9
$DIMTOH
 70
0
  9
$DIMSE1
 70
0
  9
$DIMSE2
 70
0
  9
$DIMTAD
 70
1
  9
$DIMZIN
 70
8
  9
$DIMBLK
  1

  9
$DIMASO
 70
1
  9
$DIMSHO
 70
1
  9
$DIMPOST
  1

  9
$DIMAPOST
  1

  9
$DIMALT
 70
0
  9
$DIMALTD
 70
3
  9
$DIMALTF
 40
0.03937007874
  9
$DIMLFAC
 40
1.0
  9
$DIMTOFL
 70
1
  9
$DIMTVP
 40
0.0
  9
$DIMTIX
 70
0
  9
$DIMSOXD
 70
0
  9
$DIMSAH
 70
0
  9
$DIMBLK1
  1

  9
$DIMBLK2
  1

  9
$DIMSTYLE
  2
ISO-25
  9
$DIMCLRD
 70
0
  9
$DIMCLRE
 70
0
  9
$DIMCLRT
 70
0
  9
$DIMTFAC
 40
1.0
  9
$DIMGAP
 40
0.625
  9
$DIMJUST
 70
0
  9
$DIMSD1
 70
0
  9
$DIMSD2
 70
0
  9
$DIMTOLJ
 70
0
  9
$DIMTZIN
 70
8
  9
$DIMALTZ
 70
0
  9
$DIMALTTZ
 70
0
  9
$DIMUPT
 70
0
  9
$DIMDEC
 70
2
  9
$DIMTDEC
 70
2
  9
$DIMALTU
 70
2
  9
$DIMALTTD
 70
3
  9
$DIMTXSTY
  7
Standard
  9
$DIMAUNIT
 70
0
  9
$DIMADEC
 70
0
  9
$DIMALTRND
 40
0.0
  9
$DIMAZIN
 70
0
  9
$DIMDSEP
 70
44
  9
$DIMATFIT
 70
3
  9
$DIMFRAC
 70
0
  9
$DIMLDRBLK
  1

  9
$DIMLUNIT
 70
2
  9
$DIMLWD
 70
-2
  9
$DIMLWE
 70
-2
  9
$DIMTMOVE
 70
0
  9
$DIMFXL
 40
1.0
  9
$DIMFXLON
 70
0
  9
$DIMJOGANG
 40
0.785398163397
  9
$DIMTFILL
 70
0
  9
$DIMTFILLCLR
 70
0
  9
$DIMARCSYM
 70
0
  9
$DIMLTYPE
  6

  9
$DIMLTEX1
  6

  9
$DIMLTEX2
  6

  9
$DIMTXTDIRECTION
 70
0
  9
$LUNITS
 70
2
  9
$LUPREC
 70
4
  9
$SKETCHINC
 40
1.0
  9
$FILLETRAD
 40
10.0
  9
$AUNITS
 70
0
  9
$AUPREC
 70
2
  9
$MENU
  1
.
  9
$ELEVATION
 40
0.0
  9
$PELEVATION
 40
0.0
  9
$THICKNESS
 40
0.0
  9
$LIMCHECK
 70
0
  9
$CHAMFERA
 40
0.0
  9
$CHAMFERB
 40
0.0
  9
$CHAMFERC
 40
0.0
  9
$CHAMFERD
 40
0.0
  9
$SKPOLY
 70
0
  9
$TDCREATE
 40
2460246.482291667
  9
$TDUCREATE
 40
2458532.153996898
  9
$TDUPDATE
 40
2460246.482291667
  9
$TDUUPDATE
 40
2458532.1544311
  9
$TDINDWG
 40
0.0
  9
$TDUSRTIMER
 40
0.0
  9
$USRTIMER
 70
1
  9
$ANGBASE
 50
0.0
  9
$ANGDIR
 70
0
  9
$PDMODE
 70
0
  9
$PDSIZE
 40
0.0
  9
$PLINEWID
 40
0.0
  9
$SPLFRAME
 70
0
  9
$SPLINETYPE
 70
6
  9
$SPLINESEGS
 70
8
  9
$HANDSEED
  5
55
  9
$SURFTAB1
 70
6
  9
$SURFTAB2
 70
6
  9
$SURFTYPE
 70
6
  9
$SURFU
 70
6
  9
$SURFV
 70
6
  9
$UCSBASE
  2

  9
$UCSNAME
  2

  9
$UCSORG
 10
0.0
 20
0.0
 30
0.0
  9
$UCSXDIR
 10
1.0
 20
0.0
 30
0.0
  9
$UCSYDIR
 10
0.0
 20
1.0
 30
0.0
  9
$UCSORTHOREF
  2

  9
$UCSORTHOVIEW
 70
0
  9
$UCSORGTOP
 10
0.0
 20
0.0
 30
0.0
  9
$UCSORGBOTTOM
 10
0.0
 20
0.0
 30
0.0
  9
$UCSORGLEFT
 10
0.0
 20
0.0
 30
0.0
  9
$UCSORGRIGHT
 10
0.0
 20
0.0
 30
0.0
  9
$UCSORGFRONT
 10
0.0
 20
0.0
 30
0.0
  9
$UCSORGBACK
 10
0.0
 20
0.0
 30
0.0
  9
$PUCSBASE
  2

  9
$PUCSNAME
  2

  9
$PUCSORG
 10
0.0
 20
0.0
 30
0.0
  9
$PUCSXDIR
 10
1.0
 20
0.0
 30
0.0
  9
$PUCSYDIR
 10
0.0
 20
1.0
 30
0.0
  9
$PUCSORTHOREF
  2

  9
$PUCSORTHOVIEW
 70
0
  9
$PUCSORGTOP
 10
0.0
 20
0.0
 30
0.0
  9
$PUCSORGBOTTOM
 10
0.0
 20
0.0
 30
0.0
  9
$PUCSORGLEFT
 10
0.0
 20
0.0
 30
0.0
  9
$PUCSORGRIGHT
 10
0.0
 20
0.0
 30
0.0
  9
$PUCSORGFRONT
 10
0.0
 20
0.0
 30
0.0
  9
$PUCSORGBACK
 10
0.0
 20
0.0
 30
0.0
  9
$USERI1
 70
0
  9
$USERI2
 70
0
  9
$USERI3
 70
0
  9
$USERI4
 70
0
  9
$USERI5
 70
0
  9
$USERR1
 40
0.0
  9
$USERR2
 40
0.0
  9
$USERR3
 40
0.0
  9
$USERR4
 40
0.0
  9
$USERR5
 40
0.0
  9
$WORLDVIEW
 70
1
  9
$SHADEDGE
 70
3
  9
$SHADEDIF
 70
70
  9
$TILEMODE
 70
1
  9
$MAXACTVP
 70
64
  9
$PINSBASE
 10
0.0
 20
0.0
 30
0.0
  9
$PLIMCHECK
 70
0
  9
$PEXTMIN
 10
1e+20
 20
1e+20
 30
1e+20
  9
$PEXTMAX
 10
-1e+20
 20
-1e+20
 30
-1e+20
  9
$PLIMMIN
 10
0.0
 20
0.0
  9
$PLIMMAX
 10
420.0
 20
297.0
  9
$UNITMODE
 70
0
  9
$VISRETAIN
 70
1
  9
$PLINEGEN
 70
0
  9
$PSLTSCALE
 70
1
  9
$TREEDEPTH
 70
3020
  9
$CMLSTYLE
  2
Standard
  9
$CMLJUST
 70
0
  9
$CMLSCALE
 40
20.0
  9
$PROXYGRAPHICS
 70
1
  9
$MEASUREMENT
 70
1
  9
$CELWEIGHT
370
-1
  9
$ENDCAPS
280
0
  9
$JOINSTYLE
280
0
  9
$LWDISPLAY
290
0
  9
$INSUNITS
 70
4
  9
$HYPERLINKBASE
  1

  9
$STYLESHEET
  1

  9
$XEDIT
290
1
  9
$CEPSNTYPE
380
0
  9
$PSTYLEMODE
290
1
  9
$FINGERPRINTGUID
  2
{1A488D44-9B81-4D41-8A17-E2C09485062C}
  9
$VERSIONGUID
  2
{DE13B26F-50BA-40E6-B9F1-919F1B1C0719}
  9
$EXTNAMES
290
1
  9
$PSVPSCALE
 40
0.0
  9
$OLESTARTUP
290
0
  9
$SORTENTS
280
127
  9
$INDEXCTL
280
0
  9
$HIDETEXT
280
1
  9
$XCLIPFRAME
280
0
  9
$HALOGAP
280
0
  9
$OBSCOLOR
 70
257
  9
$OBSLTYPE
280
0
  9
$INTERSECTIONDISPLAY
280
0
  9
$INTERSECTIONCOLOR
 70
257
  9
$DIMASSOC
280
2
  9
$PROJECTNAME
  1

  9
$CAMERADISPLAY
290
0
  9
$LENSLENGTH
 40
50.0
  9
$CAMERAHEIGHT
 40
0.0
  9
$STEPSPERSEC
 40
24.0
  9
$STEPSIZE
 40
100.0
  9
$3DDWFPREC
 40
2.0
  9
$PSOLWIDTH
 40
0.005
  9
$PSOLHEIGHT
 40
0.08
  9
$LOFTANG1
 40
1.570796326795
  9
$LOFTANG2
 40
1.570796326795
  9
$LOFTMAG1
 40
0.0
  9
$LOFTMAG2
 40
0.0
  9
$LOFTPARAM
 70
7
  9
$LOFTNORMALS
280
1
  9
$LATITUDE
 40
37.795
  9
$LONGITUDE
 40
-122.394
  9
$NORTHDIRECTION
 40
0.0
  9
$TIMEZONE
 70
-8000
  9
$LIGHTGLYPHDISPLAY
280
1
  9
$TILEMODELIGHTSYNCH
280
1
  9
$CMATERIAL
347
20
  9
$SOLIDHIST
280
0
  9
$SHOWHIST
280
1
  9
$DWFFRAME
280
2
  9
$DGNFRAME
280
2
  9
$REALWORLDSCALE
290
1
  9
$INTERFERECOLOR
 62
256
  9
$CSHADOW
280
0
  9
$SHADOWPLANELOCATION
 40
0.0
  0
ENDSEC
  0
SECTION
  2
CLASSES
  0
CLASS
  1
ACDBDICTIONARYWDFLT
  2
AcDbDictionaryWithDefault
  3
ObjectDBX Classes
 90
0
 91
0
280
0
281
0
  0
CLASS
  1
SUN
  2
AcDbSun
  3
SCENEOE
 90
1153
 91
0
280
0
281
0
  0
CLASS
  1
VISUALSTYLE
  2
AcDbVisualStyle
  3
ObjectDBX Classes
 90
4095
 91
0
280
0
281
0
  0
CLASS
  1
MATERIAL
  2
AcDbMaterial
  3
ObjectDBX Classes
 90
1153
 91
0
280
0
281
0
  0
CLASS
  1
SCALE
  2
AcDbScale
  3
ObjectDBX Classes
 90
1153
 91
0
280
0
281
0
  0
CLASS
  1
TABLESTYLE
  2
AcDbTableStyle
  3
ObjectDBX Classes
 90
4095
 91
0
280
0
281
0
  0
CLASS
  1
MLEADERSTYLE
  2
AcDbMLeaderStyle
  3
ACDB_MLEADERSTYLE_CLASS
 90
4095
 91
0
280
0
281
0
  0
CLASS
  1
DICTIONARYVAR
  2
AcDbDictionaryVar
  3
ObjectDBX Classes
 90
0
 91
0
280
0
281
0
  0
CLASS
  1
CELLSTYLEMAP
  2
AcDbCellStyleMap
  3
ObjectDBX Classes
 90
1152
 91
0
280
0
281
0
  0
CLASS
  1
MENTALRAYRENDERSETTINGS
  2
AcDbMentalRayRenderSettings
  3
SCENEOE
 90
1024
 91
0
280
0
281
0
  0
CLASS
  1
ACDBDETAILVIEWSTYLE
  2
AcDbDetailViewStyle
  3
ObjectDBX Classes
 90
1025
 91
0
280
0
281
0
  0
CLASS
  1
ACDBSECTIONVIEWSTYLE
  2
AcDbSectionViewStyle
  3
ObjectDBX Classes
 90
1025
 91
0
280
0
281
0
  0
CLASS
  1
RASTERVARIABLES
  2
AcDbRasterVariables
  3
ISM
 90
0
 91
0
280
0
281
0
  0
CLASS
  1
ACDBPLACEHOLDER
  2
AcDbPlaceHolder
  3
ObjectDBX Classes
 90
0
 91
0
280
0
281
0
  0
CLASS
  1
LAYOUT
  2
AcDbLayout
  3
ObjectDBX Classes
 90
0
 91
0
280
0
281
0
  0
ENDSEC
  0
SECTION
  2
TABLES
  0
TABLE
  2
VPORT
  5
8
330
0
100
AcDbSymbolTable
 70
1
  0
VPORT
  5
23
330
8
100
AcDbSymbolTableRecord
100
AcDbViewportTableRecord
  2
*Active
 70
0
 10
0.0
 20
0.0
 11
1.0
 21
1.0
 12
0.0
 22
0.0
 13
0.0
 23
0.0
 14
0.5
 24
0.5
 15
0.5
 25
0.5
 16
0.0
 26
0.0
 36
1.0
 17
0.0
 27
0.0
 37
0.0
 40
1000.0
 41
1.34
 42
50.0
 43
0.0
 44
0.0
 50
0.0
 51
0.0
 71
0
 72
1000
 73
1
 74
3
 75
0
 76
0
 77
0
 78
0
281
0
 65
0
146
0.0
  0
ENDTAB
  0
TABLE
  2
LTYPE
  5
2
330
0
100
AcDbSymbolTable
 70
3
  0
LTYPE
  5
24
330
2
100
AcDbSymbolTableRecord
100
AcDbLinetypeTableRecord
  2
ByBlock
 70
0
  3

 72
65
 73
0
 40
0.0
  0
LTYPE
  5
25
330
2
100
AcDbSymbolTableRecord
100
AcDbLinetypeTableRecord
  2
ByLayer
 70
0
  3

 72
65
 73
0
 40
0.0
  0
LTYPE
  5
26
330
2
100
AcDbSymbolTableRecord
100
AcDbLinetypeTableRecord
  2
Continuous
 70
0
  3

 72
65
 73
0
 40
0.0
  0
ENDTAB
  0
TABLE
  2
LAYER
  5
1
330
0
100
AcDbSymbolTable
 70
2
  0
LAYER
  5
27
330
1
100
AcDbSymbolTableRecord
100
AcDbLayerTableRecord
  2
0
 70
0
 62
7
  6
Continuous
370
-3
390
13
347
21
  0
LAYER
  5
28
330
1
100
AcDbSymbolTableRecord
100
AcDbLayerTableRecord
  2
Defpoints
 70
0
 62
7
  6
Continuous
290
0
370
-3
390
13
347
21
  0
ENDTAB
  0
TABLE
  2
STYLE
  5
5
330
0
100
AcDbSymbolTable
 70
1
  0
STYLE
  5
29
330
5
100
AcDbSymbolTableRecord
100
AcDbTextStyleTableRecord
  2
Standard
 70
0
 40
0.0
 41
1.0
 50
0.0
 71
0
 42
2.5
  3
txt
  4

  0
ENDTAB
  0
TABLE
  2
VIEW
  5
7
330
0
100
AcDbSymbolTable
 70
0
  0
ENDTAB
  0
TABLE
  2
UCS
  5
6
330
0
100
AcDbSymbolTable
 70
0
  0
ENDTAB
  0
TABLE
  2
APPID
  5
3
330
0
100
AcDbSymbolTable
 70
3
  0
APPID
  5
2A
330
3
100
AcDbSymbolTableRecord
100
AcDbRegAppTableRecord
  2
ACAD
 70
0
  0
APPID
  5
52
330
3
100
AcDbSymbolTableRecord
100
AcDbRegAppTableRecord
  2
HATCHBACKGROUNDCOLOR
 70
0
  0
APPID
  5
53
330
3
100
AcDbSymbolTableRecord
100
AcDbRegAppTableRecord
  2
EZDXF
 70
0
  0
ENDTAB
  0
TABLE
  2
DIMSTYLE
  5
4
330
0
100
AcDbSymbolTable
 70
1
100
AcDbDimStyleTable
  0
DIMSTYLE
105
2B
330
4
100
AcDbSymbolTableRecord
100
AcDbDimStyleTableRecord
  2
Standard
 70
0
 40
1.0
 41
2.5
 42
0.625
 43
3.75
 44
1.25
 45
0.0
 46
0.0
 47
0.0
 48
0.0
 49
2.5
140
2.5
141
2.5
142
0.0
143
0.03937007874
144
1.0
145
0.0
146
1.0
147
0.625
148
0.0
 69
0
 70
0
 71
0
 72
0
 73
0
 74
0
 75
0
 76
0
 77
1
 78
8
 79
3
170
0
171
3
172
1
173
0
174
0
175
0
176
0
177
0
178
0
179
2
271
2
272
2
273
2
274
3
275
0
276
0
277
2
278
44
279
0
280
0
281
0
282
0
283
0
284
8
285
0
286
0
288
0
289
3
290
0
371
-2
372
-2
  0
ENDTAB
  0
TABLE
  2
BLOCK_RECORD
  5
9
330
0
100
AcDbSymbolTable
 70
2
  0
BLOCK_RECORD
  5
17
330
9
100
AcDbSymbolTableRecord
100
AcDbBlockTableRecord
  2
*Model_Space
340
1A
 70
0
280
1
281
0
  0
BLOCK_RECORD
  5
1B
330
9
100
AcDbSymbolTableRecord
100
AcDbBlockTableRecord
  2
*Paper_Space
340
1E
 70
0
280
1
281
0
  0
ENDTAB
  0
ENDSEC
  0
SECTION
  2
BLOCKS
  0
BLOCK
  5
18
330
17
100
AcDbEntity
  8
0
100
AcDbBlockBegin
  2
*Model_Space
 70
0
 10
0.0
 20
0.0
 30
0.0
  3
*Model_Space
  1

  0
ENDBLK
  5
19
330
17
100
AcDbEntity
  8
0
100
AcDbBlockEnd
  0
BLOCK
  5
1C
330
1B
100
AcDbEntity
  8
0
100
AcDbBlockBegin
  2
*Paper_Space
 70
0
 10
0.0
 20
0.0
 30
0.0
  3
*Paper_Space
  1

  0
ENDBLK
  5
1D
330
1B
100
AcDbEntity
  8
0
100
AcDbBlockEnd
  0
ENDSEC
  0
SECTION
  2
ENTITIES
  0
LWPOLYLINE
  5
2F
330
17
100
AcDbEntity
  8
default
100
AcDbPolyline
 90
699
 70
0
 10
12.258947848533339
 20
198.40770241336872
 10
12.407718818133338
 20
198.92536128604866
 10
12.592281181866671
 20
199.404996123771
 10
12.74105215146667
 20
199.9058084879871
 10
12.925614515200003
 20
200.3160124542075
 10
13.074385484800006
 20
200.68398754530588
 10
13.25894784853334
 20
201.0941914886982
 10
13.40771881813334
 20
201.59500313150653
 10
13.592281181866673
 20
202.0746223091868
 10
13.741052151466672
 20
202.59204435748
 10
13.925614515200007
 20
203.07166353516018
 10
14.074385484800006
 20
203.57247517796853
 10
14.258947848533339
 20
203.98267912135498
 10
14.407718818133338
 20
204.35065421197842
 10
14.592281181866671
 20
204.7608581553649
 10
14.741052151466672
 20
205.2616697981732
 10
14.925614515200007
 20
205.74128897584757
 10
15.074385484800006
 20
206.25871102366588
 10
15.25894784853334
 20
206.7383301785121
 10
15.40771881813334
 20
207.23914109991273
 10
15.592281181866673
 20
207.64932938326282
 10
15.741052151466672
 20
208.01706764997445
 10
15.796554776366428
 20
208.1396838465279
 10
15.796554776366426
 20
208.1396838465279
 10
15.925614515200005
 20
208.42480215097814
 10
16.074385484800004
 20
208.90853118186863
 10
16.25894784853334
 20
209.31626566005005
 10
16.40771881813334
 20
209.68400320582887
 10
16.592281181866674
 20
210.09417585196496
 10
16.741052151466675
 20
210.59475066991166
 10
16.92561451520001
 20
211.07191599675517
 10
17.074385484800008
 20
211.57249081470184
 10
17.25894784853334
 20
211.982663460832
 10
17.40771881813334
 20
212.35040100613594
 10
17.436221846050177
 20
212.4133697844304
 10
17.43622184605018
 20
212.4133697844304
 10
17.592281181866674
 20
212.75813546148333
 10
17.741052151466675
 20
213.2418637709662
 10
17.92561451520001
 20
213.6495826119335
 10
18.074385484800008
 20
214.01708405473332
 10
18.25894784853334
 20
214.42480289570062
 10
18.40771881813334
 20
214.90853120518346
 10
18.592281181866674
 20
215.31626566053083
 10
18.741052151466675
 20
215.68400320583473
 10
18.92561451520001
 20
216.09417585196496
 10
19.074385484800008
 20
216.59475066991163
 10
19.25894784853334
 20
217.07191599674928
 10
19.40771881813334
 20
217.57249081422103
 10
19.592281181866674
 20
217.9826634375231
 10
19.741052151466675
 20
218.3504002618942
 10
19.92561451520001
 20
218.75811908002754
 10
20.074385484800008
 20
219.24161128605644
 10
20.25894784853334
 20
219.64687629902102
 10
20.40771881813334
 20
219.99753051194926
 10
20.592281181866678
 20
220.3358028213783
 10
20.741052151466675
 20
220.68645703383163
 10
20.92561451520001
 20
221.0917220239681
 10
21.074385484800008
 20
221.57521350906424
 10
21.258947848533342
 20
221.98291668998345
 10
21.26033979564364
 20
221.98635514015885
 10
21.26033979564365
 20
221.98635514015885
 10
21.40771881813334
 20
222.3504174109007
 10
21.592281181866674
 20
222.75813620620588
 10
21.741052151466675
 20
223.24186379428096
 10
21.92561451520001
 20
223.64958261240844
 10
22.074385484800008
 20
224.01708405425833
 10
22.25894784853334
 20
224.42480287238587
 10
22.40771881813334
 20
224.90853046046098
 10
22.592281181866674
 20
225.3162492557662
 10
22.741052151466675
 20
225.68374997668334
 10
22.92561451520001
 20
226.09145315760264
 10
23.074385484800008
 20
226.57494464269865
 10
23.258947848533342
 20
226.98020963282926
 10
23.407718818133343
 20
227.33086384480768
 10
23.592281181866674
 20
227.66913613140275
 10
23.741052151466675
 20
228.01978962292324
 10
23.92561451520001
 20
228.42503897584567
 10
24.07438548480001
 20
228.9082943574878
 10
24.236078155127444
 20
229.26332800950698
 10
24.258947848533346
 20
229.31354371040433
 10
24.407718818133343
 20
229.66419720144995
 10
24.592281181866678
 20
230.00246946521688
 10
24.741052151466675
 20
230.3531229562625
 10
24.92561451520001
 20
230.75837230917904
 10
25.074385484800008
 20
231.24162769082113
 10
25.258947848533342
 20
231.64687704373767
 10
25.40771881813334
 20
231.99753053478327
 10
25.592281181866678
 20
232.3358027985502
 10
25.741052151466675
 20
232.6864562895958
 10
25.92561451520001
 20
233.09170564251238
 10
26.074385484800008
 20
233.57496102415448
 10
26.258947848533342
 20
233.98021037707102
 10
26.40771881813334
 20
234.3308638681166
 10
26.592281181866678
 20
234.6691361318835
 10
26.741052151466675
 20
235.01978962292912
 10
26.92561451520001
 20
235.4250389758457
 10
27.074385484800008
 20
235.90829435748782
 10
27.258947848533342
 20
236.31354371040433
 10
27.407718818133343
 20
236.6641972014499
 10
27.592281181866678
 20
237.00246946521096
 10
27.74105215146668
 20
237.35312295578166
 10
27.92561451520001
 20
237.75837228587008
 10
28.07438548480001
 20
238.24162694657946
 10
28.258947848533346
 20
238.64686066228774
 10
28.407718818133343
 20
238.9972780503543
 10
28.592281181866678
 20
239.33309650894662
 10
28.74105215146668
 20
239.6669034910534
 10
28.92561451520001
 20
240.0027219496399
 10
29.07438548480001
 20
240.35313933723157
 10
29.258947848533346
 20
240.75837303011178
 10
29.407718818133343
 20
241.24162696988836
 10
29.472115738554823
 20
241.38301983755997
 10
29.592281181866678
 20
241.64686066276855
 10
29.741052151466675
 20
241.9972780503602
 10
29.92561451520001
 20
242.33309650894665
 10
30.074385484800008
 20
242.6669034910534
 10
30.258947848533342
 20
243.00272194963986
 10
30.40771881813334
 20
243.35313933723157
 10
30.592281181866678
 20
243.75837303011178
 10
30.741052151466675
 20
244.24162696988836
 10
30.92561451520001
 20
244.64686066276855
 10
31.074385484800008
 20
244.99727805036017
 10
31.258947848533342
 20
245.33309650894662
 10
31.407718818133343
 20
245.6669034910534
 10
31.592281181866678
 20
246.0027219496399
 10
31.74105215146668
 20
246.35313933723154
 10
31.92561451520001
 20
246.7583730301059
 10
32.074385484800004
 20
247.24162696940755
 10
32.25894784853334
 20
247.64686063945965
 10
32.40771881813334
 20
247.9972773061185
 10
32.592281181866674
 20
248.33308012749677
 10
32.741052151466675
 20
248.66665100662453
 10
32.92561451520001
 20
249.0000156600422
 10
33.074385484800004
 20
249.33358653917
 10
33.25894784853334
 20
249.66938936054825
 10
33.40771881813334
 20
250.0198060272071
 10
33.592281181866674
 20
250.42503969725328
 10
33.741052151466675
 20
250.90829363608003
 10
33.92561451520001
 20
251.31352730612042
 10
34.074385484800004
 20
251.66394397230442
 10
34.25894784853334
 20
251.99974677084862
 10
34.40771881813334
 20
252.33331692856865
 10
34.592281181866674
 20
252.66666592194417
 10
34.741052151466675
 20
252.99999997668527
 10
34.92561451520001
 20
253.3333333328584
 10
35.074385484800004
 20
253.6666666671416
 10
35.25894784853334
 20
254.00000002331478
 10
35.40771881813334
 20
254.33333407805583
 10
35.592281181866674
 20
254.6666830714314
 10
35.741052151466675
 20
255.0002532291515
 10
35.92561451520001
 20
255.33605602769575
 10
36.074385484800004
 20
255.6864726938797
 10
36.25894784853334
 20
256.09170636392
 10
36.40771881813334
 20
256.5749603027467
 10
36.592281181866674
 20
256.9801939727871
 10
36.741052151466675
 20
257.33061063897105
 10
36.92561451520001
 20
257.66641343751525
 10
37.074385484800004
 20
257.99998359523534
 10
37.25894784853334
 20
258.3333325886108
 10
37.40771881813334
 20
258.6666666433519
 10
37.592281181866674
 20
258.99999999951916
 10
37.741052151466675
 20
259.33333333332746
 10
37.92561451520001
 20
259.6666666666667
 10
38.074385484800004
 20
260.0
 10
38.25894784853334
 20
260.3333333333333
 10
38.40771881813334
 20
260.6666666666667
 10
38.592281181866674
 20
261.0
 10
38.741052151466675
 20
261.3333333333333
 10
38.92561451520001
 20
261.6666666666667
 10
39.074385484800004
 20
262.0
 10
39.25894784853334
 20
262.3333333333333
 10
39.40771881813334
 20
262.6666666666667
 10
39.592281181866674
 20
263.0
 10
39.741052151466675
 20
263.3333333333333
 10
39.762603586360434
 20
263.37225682502435
 10
39.77525444585176
 20
263.3951052166383
 10
39.77525444585174
 20
263.3951052166383
 10
39.92561451520001
 20
263.6666666666667
 10
40.07438548480001
 20
264.0
 10
40.25894784853334
 20
264.3333333333333
 10
40.40771881813334
 20
264.6666666666667
 10
40.592281181866674
 20
265.0
 10
40.62772509769053
 20
265.0794149466103
 10
53.48855387945886
 20
258.60581775350687
 10
53.73455500218804
 20
259.10081304621406
 10
53.98606665658804
 20
259.60081304621406
 10
54.23455500218804
 20
260.10081304621406
 10
54.48606665658804
 20
260.60081304621406
 10
54.734555002188046
 20
261.10081304621406
 10
54.98606665658804
 20
261.60081304621406
 10
55.23455500218804
 20
262.10081304621406
 10
55.48606665658804
 20
262.60081304621406
 10
55.73455500218804
 20
263.10081304621406
 10
55.986066656588044
 20
263.60081304621406
 10
56.23455500218804
 20
264.10081304621406
 10
56.486066656588044
 20
264.60081304621406
 10
56.73455500218804
 20
265.10081304621406
 10
56.98606665658804
 20
265.60081304621406
 10
57.234555002188046
 20
266.10081304621406
 10
57.48606665658804
 20
266.60081304621406
 10
57.734555002188046
 20
267.1008130462641
 10
57.98606665648804
 20
267.6008130502641
 10
58.23455499408804
 20
268.10081319481407
 10
58.48606635938804
 20
268.60081630681407
 10
58.73454848098804
 20
269.10086061376404
 10
58.98597152188804
 20
269.6012982625641
 10
59.23358460188805
 20
270.1043576008141
 10
59.47897873583804
 20
270.6195167016641
 10
59.69717374788804
 20
271.1721199311141
 10
59.843832397788034
 20
271.79766470681415
 10
59.844710924238036
 20
272.50570792856416
 10
59.70430614428804
 20
273.2827863387141
 10
59.51689662053804
 20
274.1768063290142
 10
59.379915429138045
 20
275.23956710511425
 10
59.39882686953804
 20
276.3899202480142
 10
59.61265738703804
 20
277.3756180689142
 10
60.01054942058804
 20
278.1320729782642
 10
60.61546500388803
 20
278.7075670924642
 10
61.47069971598804
 20
279.0994238505142
 10
62.674151796188035
 20
279.3122967088142
 10
64.11463011668803
 20
279.3302445511642
 10
65.38086753278803
 20
279.1871393341642
 10
66.32429950158803
 20
278.9694299598142
 10
67.02170780778803
 20
278.7240834052143
 10
67.58921034168803
 20
278.4764735819142
 10
68.10652991548803
 20
278.22505054111423
 10
68.60981245438802
 20
277.9765651710142
 10
69.11030667748801
 20
277.7250065315142
 10
69.61074192473802
 20
277.47603936211425
 10
70.11332201783803
 20
277.2210754570142
 10
70.62497539383803
 20
276.95481548461413
 10
71.15923730638804
 20
276.63872963886416
 10
71.71585458708803
 20
276.2284993650142
 10
72.23809153998805
 20
275.7044354103142
 10
72.64726663463804
 20
275.13575054616416
 10
72.95717495648805
 20
274.54259872221417
 10
73.19265566868805
 20
273.8329073510142
 10
73.33921934043805
 20
272.8913758605642
 10
73.32183879478804
 20
271.79305284811414
 10
73.10988523183804
 20
270.8223718836642
 10
72.72410226563804
 20
270.06809424496413
 10
72.17842917048804
 20
269.4868725392142
 10
71.52346676443804
 20
269.0642816907642
 10
70.76852743518803
 20
268.7430179430142
 10
69.95208740518804
 20
268.4588108508142
 10
69.19705975138804
 20
268.13927277031416
 10
68.54122207568805
 20
267.7287397398142
 10
67.98943102253804
 20
267.2063667345642
 10
67.57334524218804
 20
266.64973997311415
 10
67.25640263838802
 20
266.1154776269141
 10
66.99005491553804
 20
265.6038243836641
 10
66.73508481028803
 20
265.1012474224141
 10
66.48611734408803
 20
264.6008572044141
 10
66.23455840743802
 20
264.10081615416414
 10
65.98606680918802
 20
263.60081319071406
 10
65.73455500628802
 20
263.1008130502141
 10
65.48606665663803
 20
262.6008130462641
 10
65.23455500218802
 20
262.10081304621406
 10
64.98606665658802
 20
261.60081304621406
 10
64.73455500218802
 20
261.10081304621406
 10
64.48606665658802
 20
260.60081304621406
 10
64.23455500218802
 20
260.10081304621406
 10
63.98606665658803
 20
259.60081304621406
 10
63.73455500218804
 20
259.10081304621406
 10
63.486066656588044
 20
258.60081304621406
 10
63.23455500218804
 20
258.10081304621406
 10
62.98606665658804
 20
257.60081304621406
 10
62.734555002188046
 20
257.10081304621406
 10
62.48606665658804
 20
256.60081304621406
 10
62.234555002188046
 20
256.10081304621406
 10
61.98606665658804
 20
255.60081304621406
 10
61.73455500218804
 20
255.10081304621409
 10
61.486066656588044
 20
254.60081304621409
 10
61.477796026363386
 20
254.5843712033015
 10
65.57779504167435
 20
252.52060512977522
 10
69.22535615277648
 20
250.68457715901351
 10
77.2153887767714
 20
246.66273271607815
 10
77.07438548480002
 20
246.3531393605405
 10
76.92561451520002
 20
246.00272269388162
 10
76.74105215146669
 20
245.66691987250334
 10
76.68170981171006
 20
245.5338638300823
 10
76.59228118186668
 20
245.33334899337555
 10
76.40771881813335
 20
244.99998433995785
 10
76.25894784853334
 20
244.66641346083009
 10
76.07438548480002
 20
244.33061063945183
 10
75.92561451520002
 20
243.980193972793
 10
75.74105215146669
 20
243.57496030274086
 10
75.59228118186668
 20
243.09170636343924
 10
75.40771881813335
 20
242.68647267056485
 10
75.25894784853334
 20
242.33605528297323
 10
75.07438548480002
 20
242.00023682438675
 10
74.92561451520002
 20
241.66642984228
 10
74.74105215146669
 20
241.33061138369354
 10
74.59228118186668
 20
240.9801939961019
 10
74.40771881813335
 20
240.57496030322167
 10
74.25894784853334
 20
240.09170636344513
 10
74.07438548480002
 20
239.68647267056488
 10
73.92561451520002
 20
239.33605528297323
 10
73.74105215146669
 20
239.00023682438672
 10
73.59228118186668
 20
238.66642984227997
 10
73.40771881813335
 20
238.3306113836935
 10
73.25894784853334
 20
237.9801939961019
 10
73.07438548480002
 20
237.57496030322167
 10
72.92561451520002
 20
237.09170636344513
 10
72.74105215146669
 20
236.68647267056488
 10
72.59228118186668
 20
236.3360552829732
 10
72.40771881813335
 20
236.00023682438672
 10
72.25894784853334
 20
235.66642984227997
 10
72.07438548480002
 20
235.33061138368765
 10
71.92561451520002
 20
234.9801939956211
 10
71.74105215146669
 20
234.57496027991277
 10
71.59228118186668
 20
234.09170561920342
 10
71.40771881813335
 20
233.68645628911497
 10
71.25894784853334
 20
233.33580279854434
 10
71.07438548480002
 20
232.99753053478324
 10
70.92561451520002
 20
232.64687704373767
 10
70.74105215146669
 20
232.24162769082113
 10
70.59228118186668
 20
231.75837230917904
 10
70.40771881813335
 20
231.3531229562625
 10
70.25894784853334
 20
231.00246946521688
 10
70.07438548480002
 20
230.66419720144995
 10
69.92561451520002
 20
230.31354371040433
 10
69.74105215146669
 20
229.9082943574878
 10
69.59228118186668
 20
229.42503897584567
 10
69.40771881813335
 20
229.01978962292324
 10
69.25894784853334
 20
228.66913613140275
 10
69.07438548480002
 20
228.33086384480768
 10
68.92561451520002
 20
227.98020963282926
 10
68.74105215146669
 20
227.57494464269865
 10
68.59228118186668
 20
227.09145315760264
 10
68.40771881813335
 20
226.68374997668334
 10
68.25894784853334
 20
226.3162492557662
 10
68.07438548480002
 20
225.90853046046098
 10
67.92561451520002
 20
225.42480287238587
 10
67.74105215146669
 20
225.01708405425833
 10
67.59228118186668
 20
224.6495826124084
 10
67.40771881813335
 20
224.24186379427505
 10
67.25894784853334
 20
223.75813620572507
 10
67.07438548480002
 20
223.3504173875917
 10
66.92561451520002
 20
222.98291594574172
 10
66.74105215146669
 20
222.5751971276084
 10
66.59228118186668
 20
222.0914695390584
 10
66.40771881813335
 20
221.68375072092508
 10
66.25894784853334
 20
221.31624927907507
 10
66.07438548480002
 20
220.90853046094173
 10
65.92561451520002
 20
220.42480287239175
 10
65.74105215146669
 20
220.0170840542584
 10
65.59228118186668
 20
219.6495826124084
 10
65.40771881813335
 20
219.24186379427505
 10
65.39745056730534
 20
219.20847666085103
 10
65.25894784853334
 20
218.75813620572504
 10
65.07438548480002
 20
218.35041738758585
 10
64.92561451520002
 20
217.98291594526094
 10
64.74105215146669
 20
217.5751971042995
 10
64.59228118186668
 20
217.09146879481668
 10
64.40771881813335
 20
216.68373433946925
 10
64.25894784853334
 20
216.31599679416533
 10
64.07438548480002
 20
215.90582414803518
 10
63.92561451520001
 20
215.4052493300885
 10
63.741052151466675
 20
214.928084003245
 10
63.592281181866674
 20
214.42750918529828
 10
63.40771881813334
 20
214.0173365391622
 10
63.258947848533346
 20
213.6495989933834
 10
63.07438548480001
 20
213.24186451520785
 10
62.92561451520001
 20
212.75813548479226
 10
62.741052151466675
 20
212.35040100661672
 10
62.59228118186668
 20
211.98266346083787
 10
62.40771881813335
 20
211.57249081469598
 10
62.25894784853334
 20
211.07191599627438
 10
62.07438548480001
 20
210.59475064660273
 10
61.92561451520001
 20
210.09417510772323
 10
61.741052151466675
 20
209.68398682437896
 10
61.592281181866674
 20
209.31601317562112
 10
61.40771881813335
 20
208.90582489227103
 10
61.258947848533346
 20
208.4052493529166
 10
61.07438548480001
 20
207.92808398041686
 10
60.92561451520001
 20
207.42750844106249
 10
60.741052151466675
 20
207.01732015771233
 10
60.59228118186668
 20
206.64934650895447
 10
60.40771881813335
 20
206.23915822560434
 10
60.258947848533346
 20
205.73858268624994
 10
60.07438548480001
 20
205.2614173137502
 10
59.92561451520001
 20
204.7608417743958
 10
59.741052151466675
 20
204.35065349104568
 10
59.59228118186668
 20
203.98267984228778
 10
59.40771881813335
 20
203.57249155893768
 10
59.258947848533346
 20
203.07191601958326
 10
59.074385484800004
 20
202.59475064707763
 10
58.92561451520001
 20
202.09417510724836
 10
58.741052151466675
 20
201.6839868010701
 10
58.592281181866674
 20
201.31601243137945
 10
58.40771881813334
 20
200.9058085108211
 10
58.394549187436446
 20
200.86147523534424
 10
58.258947848533346
 20
200.40499686848767
 10
58.07438548480001
 20
199.92537769081332
 10
57.92561451520001
 20
199.40795564252014
 10
57.741052151466675
 20
198.9283364648399
 10
57.59228118186668
 20
198.42752482203156
 10
57.40771881813335
 20
198.0173208786392
 10
57.25894784853334
 20
197.64934578754085
 10
57.07438548480001
 20
197.2391418213204
 10
56.92561451520001
 20
196.7383294571044
 10
56.741052151466675
 20
196.25869461938788
 10
56.592281181866674
 20
195.74103574718285
 10
56.40771881813335
 20
195.2589471271257
 10
56.258947848533346
 20
194.7410528728745
 10
56.07438548480001
 20
194.25896425281732
 10
55.92561451520001
 20
193.7413053806123
 10
55.741052151466675
 20
193.26167054289573
 10
55.592281181866674
 20
192.7608581786797
 10
55.40771881813334
 20
192.35065421245338
 10
55.258947848533346
 20
191.98267912088008
 10
55.07438548480001
 20
191.57247515465377
 10
54.92561451520001
 20
191.07166279043764
 10
54.741052151466675
 20
190.5920279527153
 10
54.59228118186668
 20
190.07436908003535
 10
54.40771881813335
 20
189.5922804371442
 10
54.25894784853334
 20
189.07438546148526
 10
54.074385484800004
 20
188.5922811813859
 10
53.92561451520001
 20
188.07438548479416
 10
53.741052151466675
 20
187.59228118186667
 10
53.592281181866674
 20
187.07438548480008
 10
53.40771881813334
 20
186.5922811818667
 10
53.258947848533346
 20
186.07438548480005
 10
53.07438548480001
 20
185.59228118186084
 10
52.92561451520001
 20
185.07438548431924
 10
52.741052151466675
 20
184.59228115855194
 10
52.59228118186668
 20
184.07438474007753
 10
52.40771881813335
 20
183.59226477710203
 10
52.25894784853334
 20
183.07413225564864
 10
52.07438548480001
 20
182.58955848750438
 10
51.92561451520001
 20
182.0545794575871
 10
51.741052151466675
 20
181.50057481794673
 10
51.592281181866674
 20
180.83275851538667
 10
51.40771881813335
 20
180.27875387574048
 10
51.258947848533346
 20
179.74377484534827
 10
51.074385484800004
 20
179.25920105437
 10
50.92561451520001
 20
178.7410678115089
 10
50.741052151466675
 20
178.2589321884912
 10
50.592281181866674
 20
177.74079894563013
 10
50.40771881813334
 20
177.25622515465187
 10
50.258947848533346
 20
176.72124612425964
 10
50.07438548480001
 20
176.16724148460756
 10
49.92561451520001
 20
175.49942518157258
 10
49.741052151466675
 20
174.94542051909818
 10
49.59228118186668
 20
174.4104407677732
 10
49.40771881813335
 20
173.9258513395809
 10
49.25894784853334
 20
173.40748199326586
 10
49.074385484800004
 20
172.92289254224542
 10
48.92561451520001
 20
172.38791206951274
 10
48.741052151466675
 20
171.83389174699616
 10
48.592281181866674
 20
171.16583861957446
 10
48.40771881813334
 20
170.60936451471144
 10
48.258947848533346
 20
170.05730215146863
 10
48.07438548480001
 20
169.50082802378336
 10
47.92561451520001
 20
168.83277417542882
 10
47.741052151466675
 20
168.27873821569824
 10
47.592281181866674
 20
167.74352163951167
 10
47.40771881813334
 20
167.25647836048847
 10
47.25894784853334
 20
166.72126178430182
 10
47.074385484800004
 20
166.16722582456535
 10
46.92561451520001
 20
165.49917197573592
 10
46.741052151466675
 20
164.9426978252108
 10
46.592281181866674
 20
164.39063474008535
 10
46.40771881813334
 20
163.83414495235198
 10
46.25894784853334
 20
163.16585427961078
 10
46.074385484800004
 20
162.60934885466924
 10
45.92561451520001
 20
162.05704894563203
 10
45.741052151466675
 20
161.49810532990182
 10
45.592281181866674
 20
160.8129681482218
 10
45.40771881813334
 20
160.18703185177833
 10
45.25894784853334
 20
159.50189467009827
 10
45.07438548480001
 20
158.9429510543622
 10
44.92561451520001
 20
158.39065114485
 10
44.77159503846402
 20
157.9262407627211
 10
44.77159503846403
 20
157.9262407627211
 10
44.741052151466675
 20
157.83414569706864
 10
44.592281181866674
 20
157.16585430244479
 10
44.40771881813334
 20
156.6093488318411
 10
44.25894784853334
 20
156.05704820139613
 10
44.074385484800004
 20
155.49808894844602
 10
43.92561451520001
 20
154.81271566331202
 10
43.741052151466675
 20
154.1843255388658
 10
43.592281181866674
 20
153.48234112731419
 10
43.40771881813334
 20
152.85395098003985
 10
43.258947848533346
 20
152.1685769734982
 10
43.074385484800004
 20
151.60960206050584
 10
42.92561451520001
 20
151.05706460567416
 10
42.741052151466675
 20
150.49808966985373
 10
42.592281181866674
 20
149.81271494190432
 10
42.40771881813334
 20
149.18430913458195
 10
42.25894784853334
 20
148.48208789816866
 10
42.074385484800004
 20
147.8512282856775
 10
41.92561451520001
 20
147.14877094628517
 10
41.741052151466675
 20
146.51789569658587
 10
41.592281181866674
 20
145.81543763626078
 10
41.40771881813334
 20
145.18456236373333
 10
41.25894784853334
 20
144.48210430293338
 10
41.074385484800004
 20
143.85122903040005
 10
40.92561451520001
 20
143.14877096960004
 10
40.741052151466675
 20
142.51789569706668
 10
40.592281181866674
 20
141.81543763626667
 10
40.40771881813334
 20
141.18456236372748
 10
40.25894784853334
 20
140.4821043024525
 10
40.07438548480001
 20
139.8512290070852
 10
39.92561451520001
 20
139.14877022487752
 10
39.741052151466675
 20
138.51787929230198
 10
39.592281181866674
 20
137.81518440711523
 10
39.40771881813334
 20
137.1818396693651
 10
39.25894784853334
 20
136.46229827523962
 10
39.074385484800004
 20
135.75952264316524
 10
38.92561451520001
 20
134.90714325546412
 10
38.741052151466675
 20
134.20435198617574
 10
38.592281181866674
 20
133.48457376766348
 10
38.40771881813334
 20
132.8487595418743
 10
38.25894784853334
 20
132.12898060242924
 10
38.074385484800004
 20
131.42617367309865
 10
37.92561451520001
 20
130.57355746053588
 10
37.741052151466675
 20
129.86831234041077
 10
37.592281181866674
 20
129.13168689155202
 10
37.40771881813334
 20
128.42642613421864
 10
37.33411970344947
 20
128.0045076066407
 10
37.25894784853334
 20
127.57357309774407
 10
37.074385484800004
 20
126.86829670320255
 10
36.92561451520001
 20
126.13143443043197
 10
36.741052151466675
 20
125.4237198450959
 10
36.592281181866674
 20
124.55402029920761
 10
36.40771881813334
 20
123.77931301033014
 10
36.34298399098859
 20
123.40087966011556
 10
36.3429839909886
 20
123.40087966011559
 10
36.25894784853334
 20
122.90961274350906
 10
36.074385484800004
 20
122.2018824981308
 10
35.92561451520001
 20
121.46478340049858
 10
35.741052151466675
 20
120.75703751790626
 10
35.592281181866674
 20
119.88710042669841
 10
35.40771881813334
 20
119.10992364977602
 10
35.25894784853334
 20
118.22314004915448
 10
35.074385484800004
 20
117.44350944422936
 10
34.92561451520001
 20
116.55648901969603
 10
34.741052151466675
 20
115.7768271403545
 10
34.592281181866674
 20
114.88956989190935
 10
34.531146568429335
 20
114.63050113886257
 10
34.40771881813334
 20
114.10745418456509
 10
34.25894784853334
 20
113.20335042670627
 10
34.074385484800004
 20
112.35180382503191
 10
33.92561451520001
 20
111.31486207359747
 10
33.741052151466675
 20
110.46329983470905
 10
33.592281181866674
 20
109.55895925246344
 10
33.40771881813334
 20
108.77437405706839
 10
33.25894784853334
 20
107.87003275341506
 10
33.074385484800004
 20
107.01845483165047
 10
32.92561451520001
 20
105.98127553394667
 10
32.741052151466675
 20
105.12724378417937
 10
32.592281181866674
 20
104.20581914720051
 10
32.455243463335414
 20
103.56986625346134
 10
32.40771881813334
 20
103.3493179550504
 10
32.25894784853334
 20
102.29481922151696
 10
32.074385484800004
 20
101.36887149783442
 10
31.92561451520001
 20
100.29752553442941
 10
31.74105215146668
 20
99.36912398273824
 10
31.592281181866678
 20
98.2975419154044
 10
31.407718818133343
 20
97.36912470367108
 10
31.258947848533342
 20
96.29754119447159
 10
31.074385484800008
 20
95.36910832269608
 10
30.92561451520001
 20
94.29728870956774
 10
30.741052151466675
 20
93.36640200978363
 10
30.592281181866678
 20
92.27773516678369
 10
30.40771881813334
 20
91.2774019354613
 10
30.258947848533342
 20
90.05566099543184
 10
30.16891632553359
 20
89.56648296253599
 10
30.074385484800008
 20
89.05285829889263
 10
29.92561451520001
 20
87.94687129818044
 10
29.741052151466675
 20
86.94159911359633
 10
29.592281181866678
 20
85.70253729444687
 10
29.407718818133343
 20
84.62780291827643
 10
29.258947848533346
 20
83.37165704439379
 10
29.07438548480001
 20
82.29199935218153
 10
28.92561451520001
 20
81.01853332106153
 10
28.74105215146668
 20
79.86694401771415
 10
28.592281181866678
 20
78.44332055671401
 10
28.407718818133343
 20
77.21737706582289
 10
28.258947848533346
 20
75.75982304115075
 10
28.07438548480001
 20
74.46196353067053
 10
28.000453512762792
 20
73.67138028475551
 10
27.92561451520001
 20
72.87109786317443
 10
27.74105215146668
 20
71.57073756739891
 10
27.592281181866678
 20
70.09538829390054
 10
27.407718818133343
 20
68.7900890448633
 10
27.258947848533342
 20
67.16458234053496
 10
27.074385484800008
 20
65.71793620040668
 10
26.92561451520001
 20
63.925660938830646
 10
26.741052151466675
 20
62.404644951104736
 10
26.670447086775685
 20
61.54571848813181
 10
26.592281181866678
 20
60.594812706479864
 10
26.40771881813334
 20
59.06882644540785
 10
26.258947848533342
 20
57.24143505541062
 10
26.074385484800008
 20
55.641031989448386
 10
25.92561451520001
 20
53.64616228902628
 10
25.741052151466675
 20
51.8970195278746
 10
25.619852342376568
 20
50.10796129395054
 10
25.592281181866678
 20
49.70097705775929
 10
25.40771881813334
 20
47.7336167954576
 10
25.274413299126035
 20
45.481034551350845
 10
25.258947848533342
 20
45.21970103971805
 10
25.074385484800008
 20
43.098615194565184
 10
24.92561451520001
 20
40.49856941863149
 10
24.741052151466675
 20
38.151842176550105
 10
24.60859744304143
 20
35.40504771328913
 10
24.592281181866678
 20
35.06668740591492
 10
24.407718818133343
 20
32.353112839015964
 10
24.258947848533346
 20
28.86704069319158
 10
24.07438548480001
 20
25.801466821477383
 10
23.92561451520001
 20
21.934678827483665
 10
23.741052151466675
 20
19.0946838495683
 10
23.592281181866674
 20
16.178904869607557
 10
23.407718818133343
 20
14.201698249294534
 10
23.294882244594813
 20
12.788706401979265
 10
23.258947848533342
 20
12.338719247276108
 10
23.074385484800008
 20
11.025886185252931
 10
22.92561451520001
 20
9.734144039131449
 10
22.741052151466675
 20
8.728746322983271
 10
22.592281181866674
 20
7.673531337903617
 10
22.40771881813334
 20
6.888898956794111
 10
22.25894784853334
 20
6.134712914997822
 10
22.074385484800008
 20
5.4294207461914405
 10
21.92561451520001
 20
4.593650319259702
 10
21.741052151466675
 20
3.9627593638208993
 10
21.592281181866674
 20
3.393375399100392
 10
21.40771881813334
 20
2.834431760518621
 10
21.258947848533342
 20
2.1663779112141937
 10
21.074385484800008
 20
1.6148114166886722
 10
20.92561451520001
 20
1.0969149982142252
 10
20.741052151466675
 20
0.6842572039851889
 10
20.592281181866678
 20
0.3162828333446615
 10
20.40771881813334
 20
-0.09145164484257817
 10
20.25894784853334
 20
-0.574943851346452
 10
20.074385484799976
 20
-0.9801932271028648
 10
19.925614515194116
 20
-1.3306106156502604
 10
19.741052150985844
 20
-1.6664134375151693
 10
19.702023414051457
 20
-1.7539225858480705
 10
19.702023414051457
 20
-1.7539225858480703
 10
19.592281158551863
 20
-1.999983618544206
 10
19.407718073410752
 20
-2.333333333333366
 10
19.258931443756843
 20
-2.666683048128353
 10
19.07413225468653
 20
-3.00025322963265
 10
18.922891774137277
 20
-3.336056074390105
 10
18.721244629032817
 20
-3.686474189088705
 10
18.500541728152772
 20
-4.091739452752182
 10
18.16557642994529
 20
-4.575475674879982
 10
17.939777527993467
 20
-4.9858354967997744
 10
17.701106868777966
 20
-5.373245759851206
 10
17.37617897170427
 20
-5.882260928119437
 10
16.683816605435844
 20
-6.718423967801923
 10
15.508634894730312
 20
-8.043526284000817
 10
13.399388338909477
 20
-10.15277283982165
 10
12.143716894206644
 20
-11.25852367903109
 10
11.457237635624939
 20
-11.801202264192874
 10
11.020107143546616
 20
-12.054245484601731
 10
10.649779469104072
 20
-12.275833532374353
 10
10.241888368153486
 20
-12.499162991949222
 10
10.0
 20
-12.666617806516083
 10
10.0
 20
-11.396046828039792
 10
10.0
 20
4.968056843384838
 10
10.0
 20
14.320045009984943
 10
10.0
 20
21.9999730779892
 10
10.0
 20
26.866234858756027
 10
10.0
 20
39.03188931300701
 10
10.0
 20
43.89815109380166
 10
10.0
 20
52.66483062246848
 10
10.0
 20
56.71052609114367
 10
10.0
 20
75.14875198255932
 10
10.0
 20
79.40732718296844
 10
10.0
 20
80.30131895451052
 10
10.0
 20
86.07135469712426
 10
10.0
 20
105.79695520298381
 10
10.0
 20
111.09903288967533
 10
10.0
 20
128.72176016024713
 10
10.0
 20
136.30680101715856
 10
10.0
 20
153.55962885220163
 10
10.0
 20
155.26941486675807
 10
10.0
 20
167.13568178292127
 10
10.0
 20
171.25260400738316
 10
10.0
 20
183.20542783944975
 10
10.0
 20
187.31066710257699
 10
10.0
 20
191.999865183042
 10
10.074385484800004
 20
192.258694619382
 10
10.258947848533339
 20
192.73832945710433
 10
10.407718818133338
 20
193.23914182132046
 10
10.592281181866671
 20
193.64934578754676
 10
10.74105215146667
 20
194.01732087912006
 10
10.925614515200003
 20
194.42752484534637
 10
11.074385484800004
 20
194.92833720956241
 10
11.258947848533339
 20
195.40797204728486
 10
11.407718818133338
 20
195.92563091996476
 10
11.592281181866671
 20
196.40771956285005
 10
11.74105215146667
 20
196.92561453803407
 10
11.925614515200005
 20
197.40771879529942
 10
12.074385484800004
 20
197.92561377048344
 10
12.258947848533339
 20
198.40770241336872
  0
LWPOLYLINE
  5
30
330
17
100
AcDbEntity
  8
default
100
AcDbPolyline
 90
16
 70
0
 10
26.034726086072624
 20
159.59856634121388
 10
21.328567432705313
 20
159.97464476851746
 10
19.7163884977487
 20
158.05130420519492
 10
20.400368076273605
 20
157.94984541895838
 10
21.580778081228942
 20
157.6541681050377
 10
22.726522644600728
 20
157.24421414509828
 10
23.826567619915984
 20
156.72393161987793
 10
24.870318972716674
 20
156.0983311345099
 10
25.847724806902818
 20
155.37343756365624
 10
26.7493721699868
 20
154.5562320286715
 10
27.56657770497155
 20
153.65458466558752
 10
28.291471275825174
 20
152.6771788314014
 10
28.917071761193213
 20
151.63342747860068
 10
28.968477161492366
 20
151.52473989144943
 10
29.87262447271496
 20
155.3051145011559
 10
26.034726086072624
 20
159.59856634121388
  0
LWPOLYLINE
  5
31
330
17
100
AcDbEntity
  8
default
100
AcDbPolyline
 90
23
 70
0
 10
17.05055200464097
 20
5.737069356087863
 10
17.15176547186348
 20
6.305669688123353
 10
17.237260544113997
 20
6.695209949887447
 10
17.383088317796723
 20
7.25248059105404
 10
17.502247952872683
 20
7.856553642143625
 10
17.540554129863356
 20
8.033760475606648
 10
17.673013092807995
 20
8.59688499022716
 10
17.790016314632172
 20
9.426775077677862
 10
17.823227241118694
 20
9.631518803268802
 10
17.97758755913363
 20
10.472391817987859
 10
18.107219978179707
 20
11.597958584378684
 10
18.123074101946123
 20
11.721957726131862
 10
18.286754823487097
 20
12.88625503197519
 10
18.423585619360715
 20
14.59971364710288
 10
18.429360716614227
 20
14.666403115891573
 10
18.560289496282103
 20
16.06903605097289
 10
16.883128254208714
 20
17.231045550201088
 10
15.0
 20
14.513073172155515
 10
15.0
 20
6.370103407099936
 10
16.864642801593025
 20
5.0781986135899695
 10
16.903455941658805
 20
5.226746274691636
 10
16.942183373370355
 20
5.3666320256433115
 10
17.05055200464097
 20
5.737069356087863
  0
LWPOLYLINE
  5
32
330
17
100
AcDbEntity
  8
default
100
AcDbPolyline
 90
7
 70
0
 10
19.1710133858181
 20
27.556828540186523
 10
19.265358233243035
 20
29.12389288280963
 10
19.40995973904087
 20
32.51226416896479
 10
15.0
 20
35.567674095914725
 10
15.0
 20
23.402019641633366
 10
15.873213143553585
 20
22.7970199896954
 10
19.1710133858181
 20
27.556828540186523
  0
LWPOLYLINE
  5
33
330
17
100
AcDbEntity
  8
default
100
AcDbPolyline
 90
13
 70
0
 10
19.74685532937835
 20
38.392670128089904
 10
19.756444045782253
 20
38.543865176825804
 10
19.93682554573309
 20
40.837432355634526
 10
20.082550361009584
 20
43.38424099328134
 10
20.09320689650764
 20
43.5320432411169
 10
20.27176925697364
 20
45.58417395509473
 10
20.4164512671555
 20
48.028994916779546
 10
20.42957646596323
 20
48.20062720383224
 10
20.485698223830788
 20
48.79886247805464
 10
15.0
 20
52.59959033058259
 10
15.0
 20
40.43393587670001
 10
19.688640984766447
 20
37.18544358730914
 10
19.74685532937835
 20
38.392670128089904
  0
LWPOLYLINE
  5
34
330
17
100
AcDbEntity
  8
default
100
AcDbPolyline
 90
10
 70
0
 10
21.107305640680075
 20
56.21384768593157
 10
21.282248745624013
 20
57.730838885316956
 10
21.424206551122545
 20
59.47454246006949
 10
21.443892444917193
 20
59.66918278672843
 10
21.598270061536855
 20
60.945597529221736
 10
17.42177436221391
 20
55.787942591588944
 10
20.871643445588713
 20
53.39772479660268
 10
20.945167144467895
 20
54.09452691305924
 10
21.088231996230935
 20
56.012883288263474
 10
21.107305640680075
 20
56.21384768593157
  0
LWPOLYLINE
  5
35
330
17
100
AcDbEntity
  8
default
100
AcDbPolyline
 90
5
 70
0
 10
15.0
 20
59.15338169743007
 10
21.249904485885054
 20
66.87153898831457
 10
20.66635254956782
 20
71.25200739130378
 10
15.0
 20
73.32209916326289
 10
15.0
 20
59.15338169743007
  0
LWPOLYLINE
  5
36
330
17
100
AcDbEntity
  8
default
100
AcDbPolyline
 90
20
 70
0
 10
22.11219956772402
 20
74.982370485086
 10
23.226115966908
 20
75.882679838941
 10
23.29483028840077
 20
76.36588526528915
 10
23.43356222643977
 20
77.72508387226866
 10
23.463434660681894
 20
77.96172521714364
 10
23.63113414436245
 20
79.07565812461888
 10
23.768132031743622
 20
80.38662226707005
 10
23.804055205715628
 20
80.6581842831486
 10
23.971753852514414
 20
81.7045512884951
 10
24.10815959144776
 20
82.87217206456778
 10
24.14587806728534
 20
83.13450432872641
 10
24.30877342618768
 20
84.08741381529265
 10
24.44242098228482
 20
85.21586533105076
 10
24.47985377116865
 20
85.47405706385189
 10
24.565277474045146
 20
85.97149212137958
 10
24.652041515801102
 20
87.98476367816329
 10
18.48935468494892
 20
89.12711286032572
 10
15.0
 20
85.4994725441248
 10
15.0
 20
77.58067436357722
 10
22.11219956772402
 20
74.982370485086
  0
LWPOLYLINE
  5
37
330
17
100
AcDbEntity
  8
default
100
AcDbPolyline
 90
19
 70
0
 10
25.49070743196267
 20
92.18459487429404
 10
25.65411199305971
 20
93.07025221693185
 10
25.78709426136088
 20
94.04338149474498
 10
25.836519296725466
 20
94.33879980737679
 10
25.992968699911074
 20
95.12789172009778
 10
26.121865667371598
 20
96.05652919667276
 10
26.17034347861672
 20
96.34397857128805
 10
26.326490095378677
 20
97.12946727486684
 10
26.455219628554975
 20
98.056694174507
 10
26.503679956516642
 20
98.34401077073387
 10
26.659824627977557
 20
99.12947643974867
 10
26.788553087901846
 20
100.05669436123739
 10
26.837016434569634
 20
100.34402586877503
 10
26.993173715645337
 20
101.12954171895144
 10
27.082489670759458
 20
101.77273365509635
 10
15.968124059028924
 20
103.83295297296718
 10
19.343961180187762
 20
93.03683865536004
 10
25.44798824444007
 20
91.90536296768686
 10
25.49070743196267
 20
92.18459487429404
  0
LWPOLYLINE
  5
38
330
17
100
AcDbEntity
  8
default
100
AcDbPolyline
 90
23
 70
0
 10
27.77091735105895
 20
105.71326326039039
 10
27.80497637882315
 20
105.92421051292129
 10
27.85387124466388
 20
106.18339850020452
 10
28.001258595524654
 20
106.86540903909783
 10
28.12504132948952
 20
107.72837907570329
 10
28.187833699620384
 20
108.07751651576423
 10
28.345711690340863
 20
108.8059717030004
 10
28.474032670290907
 20
109.58600266338269
 10
28.54056947685937
 20
109.91930081880311
 10
28.686196255918393
 20
110.53836861026171
 10
28.80736610732815
 20
111.27492907141308
 10
28.854504403835886
 20
111.52238014805855
 10
29.001488435563648
 20
112.20055769524139
 10
29.125064189280053
 20
113.06188742131668
 10
29.1878417631745
 20
113.41090271401364
 10
29.34573708165618
 20
114.13941105750035
 10
29.47406683107357
 20
114.91929041840858
 10
29.541376345956813
 20
115.25580558700725
 10
29.609118521318006
 20
115.54287505408566
 10
20.528001084923744
 20
117.22620042134076
 10
15.0
 20
109.38018093568257
 10
15.0
 20
108.0805500272079
 10
27.77091735105895
 20
105.71326326039039
  0
LWPOLYLINE
  5
39
330
17
100
AcDbEntity
  8
default
100
AcDbPolyline
 90
5
 70
0
 10
16.000699063763022
 20
129.36159501969814
 10
15.0
 20
129.76018864745078
 10
15.0
 20
116.32508178105374
 10
17.527254621032625
 20
119.91207257518545
 10
16.000699063763022
 20
129.36159501969814
  0
LWPOLYLINE
  5
3A
330
17
100
AcDbEntity
  8
default
100
AcDbPolyline
 90
26
 70
0
 10
30.543011972464406
 20
120.26518435875118
 10
30.690718298913666
 20
120.8871634253324
 10
30.812600589077835
 20
121.59986917202646
 10
30.90285394407771
 20
122.01871818511891
 10
31.052120256029827
 20
122.59111342083713
 10
31.173217439082737
 20
123.19110026366072
 10
31.236194084133626
 20
123.46358926696337
 10
31.36667253266168
 20
123.96392716102478
 10
31.47930539419665
 20
124.6223676483938
 10
31.543840919107055
 20
124.93805879063041
 10
31.691046857826436
 20
125.55596111581262
 10
31.81263884367599
 20
126.26677516213725
 10
31.902867567883135
 20
126.68545275469863
 10
32.05216495269648
 20
127.25794182911034
 10
32.1732791051083
 20
127.85781994949103
 10
32.23726747779367
 20
128.13411240317433
 10
32.369111666172174
 20
128.63793448228031
 10
32.48209814435396
 20
129.28564728039535
 10
32.5706076849923
 20
129.69226810130732
 10
32.63940697206828
 20
129.9551680573206
 10
22.650802243035287
 20
131.23995476402342
 10
19.991114869248122
 20
129.74193798471242
 10
21.38136539934203
 20
121.13615647424012
 10
30.397396391298077
 20
119.46489588474878
 10
30.476630025889598
 20
119.93718619758546
 10
30.543011972464406
 20
120.26518435875118
  0
LWPOLYLINE
  5
3B
330
17
100
AcDbEntity
  8
default
100
AcDbPolyline
 90
33
 70
0
 10
33.51486237493038
 20
133.87551556041484
 10
33.60592932357688
 20
134.24260947998357
 10
33.73562013001737
 20
134.6893921176836
 10
33.84454950125943
 20
135.2164101843607
 10
33.90503195869609
 20
135.47435540944483
 10
34.03621080034077
 20
135.97386865124773
 10
34.14884565809359
 20
136.61920712920005
 10
34.23837223434677
 20
137.02955250164916
 10
34.38931243633036
 20
137.60430183682627
 10
34.51128220537327
 20
138.19421731492167
 10
34.60738649298284
 20
138.58069976534154
 10
34.73952124391509
 20
139.03413375634622
 10
34.84947844560424
 20
139.5534982763474
 10
34.942183387080384
 20
139.92175200098947
 10
35.073444012774935
 20
140.37044119677012
 10
35.18288232175546
 20
140.88718113239077
 10
35.26979114709084
 20
141.23235630660562
 10
30.29578671448373
 20
147.17712622635872
 10
30.321538694008854
 20
147.00352048204488
 10
30.38124808327361
 20
145.78810794195832
 10
30.321538694008854
 20
144.57269540187175
 10
30.142985560273672
 20
143.36898794895833
 10
29.847308246353002
 20
142.188577944003
 10
29.43735428641357
 20
141.0428333806312
 10
28.917071761193213
 20
139.94278840531595
 10
28.291471275825174
 20
138.89903705251524
 10
27.56657770497155
 20
137.9216312183291
 10
26.749372169986803
 20
137.01998385524513
 10
25.847724806902818
 20
136.20277832026036
 10
24.87031897271668
 20
135.47788474940677
 10
24.758325134145764
 20
135.41075822585287
 10
24.670787062961608
 20
135.0130868931301
 10
33.51486237493038
 20
133.87551556041484
  0
LWPOLYLINE
  5
3C
330
17
100
AcDbEntity
  8
default
100
AcDbPolyline
 90
4
 70
0
 10
15.0
 20
165.4581579378166
 10
15.0
 20
158.6513567130804
 10
17.85021078493446
 20
162.05167779279873
 10
15.0
 20
165.4581579378166
  0
LWPOLYLINE
  5
3D
330
17
100
AcDbEntity
  8
default
100
AcDbPolyline
 90
6
 70
0
 10
28.066025615204126
 20
171.65883615100756
 10
20.67529400018975
 20
180.49200057331473
 10
16.066788480617106
 20
170.41652991669253
 10
21.454480128828436
 20
163.97733435826376
 10
25.560128645971417
 20
163.64924388146028
 10
28.066025615204126
 20
171.65883615100756
  0
LWPOLYLINE
  5
3E
330
17
100
AcDbEntity
  8
default
100
AcDbPolyline
 90
5
 70
0
 10
16.65675067016855
 20
184.7424287297763
 10
15.0
 20
184.35989566202753
 10
15.0
 20
177.70072714274863
 10
17.73907120944932
 20
183.68909614440054
 10
16.65675067016855
 20
184.7424287297763
  0
LWPOLYLINE
  5
3F
330
17
100
AcDbEntity
  8
default
100
AcDbPolyline
 90
6
 70
0
 10
40.38431785348803
 20
175.85932106012478
 10
40.63941765576601
 20
178.44829414831474
 10
33.49687495082617
 20
186.98483117716387
 10
23.58685098681599
 20
183.2455646409653
 10
31.097002847120166
 20
174.2696729870513
 10
40.38431785348803
 20
175.85932106012478
  0
LWPOLYLINE
  5
40
330
17
100
AcDbEntity
  8
default
100
AcDbPolyline
 90
7
 70
0
 10
35.743175184354186
 20
197.5243245176971
 10
33.028031336609274
 20
201.47509934101254
 10
24.219003424048424
 20
200.94948970433325
 10
19.189096923917532
 20
187.8595208413899
 10
20.66854571690783
 20
186.4196963487193
 10
32.6538848024793
 20
190.9420241988264
 10
35.743175184354186
 20
197.5243245176971
  0
LWPOLYLINE
  5
41
330
17
100
AcDbEntity
  8
default
100
AcDbPolyline
 90
40
 70
0
 10
19.152011041026903
 20
202.7093066421236
 10
19.007037976797832
 20
202.38709293923935
 10
18.8944321578867
 20
202.10856994157416
 10
18.818677707693517
 20
201.93112760811357
 10
18.771813655275384
 20
201.82696867388597
 10
18.718607216582456
 20
201.6478584345602
 10
18.59203784736839
 20
201.27597612221925
 10
18.485971896269778
 20
201.00034428040297
 10
18.397597783890873
 20
200.6929811277252
 10
18.258704514035166
 20
200.27893489624614
 10
18.14473682390502
 20
199.98276893523084
 10
18.05194054991579
 20
199.6703863880982
 10
17.81867770770447
 20
199.0426399754811
 10
17.673704643929753
 20
198.72042627360213
 10
17.56109882539388
 20
198.44190327650563
 10
17.485344417091433
 20
198.26446103593958
 10
17.438480741997882
 20
198.16030293454673
 10
17.38527444310128
 20
197.98119290781747
 10
17.258724164981135
 20
197.60935977825397
 10
17.15275543074669
 20
197.33397158089852
 10
17.064432284073952
 20
197.02664508661618
 10
16.928449384881645
 20
196.62003482624834
 10
16.820711500063826
 20
196.33861661275927
 10
16.731266061003225
 20
196.02724307283302
 10
16.595135383846674
 20
195.62010170619078
 10
16.487385645030102
 20
195.33864341343858
 10
16.39793272766989
 20
195.02724384038365
 10
16.26178271821498
 20
194.6200519757297
 10
16.15393645571988
 20
194.3383506728485
 10
16.064432284073934
 20
194.02691472053223
 10
15.925390831647904
 20
193.61233570176807
 10
15.811411646939613
 20
193.3161301988938
 10
15.718607776434588
 20
193.00372162939274
 10
15.62744552170864
 20
192.7583897363567
 10
16.421641296707094
 20
191.8091925214976
 10
20.525134508963674
 20
202.48823762405664
 10
19.50185064010625
 20
203.71123355141802
 10
19.478070157235376
 20
203.6494356018875
 10
19.38527388324907
 20
203.33705305476474
 10
19.152011041026903
 20
202.7093066421236
  0
LWPOLYLINE
  5
42
330
17
100
AcDbEntity
  8
default
100
AcDbPolyline
 90
44
 70
0
 10
24.981485223903476
 20
217.94104022826644
 10
24.914614147579968
 20
217.81847659739182
 10
24.861816282084956
 20
217.6940316601892
 10
24.809294444586097
 20
217.57459594738154
 10
24.75841158040281
 20
217.46286653410468
 10
24.704498065183422
 20
217.2876524820737
 10
24.48065836511986
 20
216.69618418161116
 10
24.33800331746925
 20
216.38104329236194
 10
24.227343453125137
 20
216.10751071266137
 10
24.151952423375032
 20
215.93098164704932
 10
24.104993483594587
 20
215.82661978730928
 10
24.051756640172435
 20
215.64749194233747
 10
23.92227114135921
 20
215.2681932168888
 10
23.810058629295256
 20
214.9780803308638
 10
23.718423307208166
 20
214.66975179879495
 10
23.485285799436905
 20
214.0424941564514
 10
23.34011421160517
 20
213.71986383724987
 10
23.22734473116796
 20
213.4411160947792
 10
23.147354740260244
 20
213.25439639270036
 10
23.09357512347575
 20
213.13558667269646
 10
23.03803310464697
 20
212.9549919844616
 10
22.81399174183656
 20
212.36286809312296
 10
22.671107029340178
 20
212.04721983097158
 10
22.560259165173974
 20
211.77339792793578
 10
22.480658408503217
 20
211.58764780935581
 10
22.426897841000176
 20
211.46888472121205
 10
22.371366437980328
 20
211.28832455024437
 10
22.147354740260297
 20
210.69626619365297
 10
22.004684201524054
 20
210.38107899497908
 10
21.894011397834724
 20
210.1075138950806
 10
21.81861913277009
 20
209.93098176531808
 10
21.77166016542751
 20
209.8266198385155
 10
21.718423307208166
 20
209.64749194358512
 10
21.588937808033318
 20
209.2681932169139
 10
21.476725295964844
 20
208.97808033087367
 10
21.38508997387484
 20
208.66975179879498
 10
21.15195246611453
 20
208.04249415647573
 10
21.131456658342273
 20
207.99694413458292
 10
23.701169547159225
 20
204.92570604244247
 10
32.264318289700896
 20
205.43664476834238
 10
32.80407737893984
 20
209.62961178831756
 10
25.291034266600573
 20
218.6089589738103
 10
25.195149614467333
 20
218.38295818030508
 10
24.981485223903476
 20
217.94104022826644
  0
LWPOLYLINE
  5
43
330
17
100
AcDbEntity
  8
default
100
AcDbPolyline
 90
45
 70
0
 10
32.97411969645472
 20
236.92488322269625
 10
32.911318622492495
 20
236.81061420582122
 10
32.86134166306414
 20
236.692897720989
 10
32.80923407609648
 20
236.57444775766442
 10
32.75824631216465
 20
236.4624966501049
 10
32.704294854648985
 20
236.28724543431588
 10
32.47593086239585
 20
235.6860255145882
 10
32.31842387209424
 20
235.34018251056062
 10
32.19514816898558
 20
235.04962141713068
 10
31.98148508797326
 20
234.6077066229615
 10
31.91461320358979
 20
234.48514152759324
 10
31.861814836603116
 20
234.36069566456527
 10
31.809264239761696
 20
234.24119703580604
 10
31.758257499309032
 20
234.12919994092331
 10
31.704295471792314
 20
233.9539141289676
 10
31.475930906428474
 20
233.35269230124766
 10
31.318423893349387
 20
233.00684922772513
 10
31.195148169936584
 20
232.71628808604473
 10
30.981485087990585
 20
232.2743732896658
 10
30.91461320359691
 20
232.15180819427673
 10
30.86181483660319
 20
232.02736233123213
 10
30.809264239761752
 20
231.90786370247287
 10
30.75825749930903
 20
231.79586660759
 10
30.70429547179229
 20
231.62058079563423
 10
30.475930906428474
 20
231.01935896791434
 10
30.318423893349387
 20
230.6735158943918
 10
30.195148169936584
 20
230.3829547527114
 10
29.98148508799067
 20
229.94103995633265
 10
29.914613203596975
 20
229.81847486094352
 10
29.86181483660319
 20
229.69402899789878
 10
29.809264239761752
 20
229.57453036913952
 10
29.75825749930903
 20
229.46253327425666
 10
29.70429547179229
 20
229.28724746230088
 10
29.47593090642842
 20
228.6860256345809
 10
29.31842389334938
 20
228.34018256105847
 10
29.195148169936584
 20
228.0496214193781
 10
28.98148508799069
 20
227.60770662299936
 10
28.914613203597042
 20
227.48514152761032
 10
28.896568285456464
 20
227.44260961726087
 10
35.92454967368394
 20
230.5233277459629
 10
37.206762552727014
 20
233.51385365705937
 10
33.26743460704205
 20
237.5216935738459
 10
33.223218038096846
 20
237.44123979265888
 10
33.15924292658655
 20
237.29769472495772
 10
32.97411969645472
 20
236.92488322269625
  0
LWPOLYLINE
  5
44
330
17
100
AcDbEntity
  8
default
100
AcDbPolyline
 90
28
 70
0
 10
36.608859444664624
 20
146.58846717306744
 10
36.74011429571858
 20
147.03712549242476
 10
36.849549204210504
 20
147.55384884078893
 10
36.94219279168787
 20
147.92180055271513
 10
37.07344778034486
 20
148.3704593261956
 10
37.182882753048915
 20
148.88718244743933
 10
37.27553550288601
 20
149.2551651970393
 10
37.40683248651007
 20
149.70395639441477
 10
37.51628669772631
 20
150.22059664847487
 10
37.610348416178766
 20
150.59329360094424
 10
37.74422385310538
 20
151.04911839816052
 10
37.85483975722832
 20
151.5587161066313
 10
37.99316334587196
 20
152.06574776067214
 10
38.1339007590399
 20
152.49199222840525
 10
38.246330570931896
 20
152.90955811694545
 10
38.326496698266055
 20
153.17726020905266
 10
38.428555180491465
 20
153.48635969211142
 10
38.52150665532015
 20
153.9145784829722
 10
38.61035791005352
 20
154.26296777114905
 10
38.74076345401733
 20
154.70696706395833
 10
38.849690926807334
 20
155.2209476348579
 10
38.943691257226845
 20
155.59334237709677
 10
38.99462875388007
 20
155.76677220977462
 10
33.73483659652993
 20
154.25731695536524
 10
32.81281704548746
 20
150.4022158482112
 10
36.47489654973856
 20
146.02541635466318
 10
36.51621587073522
 20
146.22051550726616
 10
36.608859444664624
 20
146.58846717306744
  0
LWPOLYLINE
  5
45
330
17
100
AcDbEntity
  8
default
100
AcDbPolyline
 90
31
 70
0
 10
40.23959966562688
 20
160.28551052184775
 10
40.283753749691954
 20
160.36790015226646
 10
40.326522832519366
 20
160.51068835221494
 10
40.42862036810765
 20
160.8198888010232
 10
40.52158266567412
 20
161.24800946682538
 10
40.61185366360176
 20
161.60113136014036
 10
40.74484099858893
 20
162.05215289157258
 10
40.85491599900747
 20
162.55908294494895
 10
40.99318949919094
 20
163.06584262776943
 10
41.133996314627026
 20
163.49227339592437
 10
41.24647096098971
 20
163.90982620963612
 10
41.3285710319559
 20
164.18327552995498
 10
41.43343407869389
 20
164.4994659666461
 10
41.52718893910389
 20
164.92062003255435
 10
41.66191757964652
 20
165.40811147193776
 10
41.801601816268125
 20
165.82928537551632
 10
41.91327775930387
 20
166.2436952957606
 10
41.99526412834079
 20
166.51670419100316
 10
42.10016921623155
 20
166.8330036167849
 10
42.193937310397615
 20
167.25406786321327
 10
42.33067037422325
 20
167.74746851152383
 10
42.47536909381926
 20
168.18183818669687
 10
42.590360753443164
 20
168.595530740556
 10
42.732164187562745
 20
169.02825399429483
 10
42.83596224409477
 20
169.3021676177822
 10
42.919708942702314
 20
169.60345369137687
 10
41.301470992621034
 20
171.95813326211646
 10
31.844430743716657
 20
170.3394344463013
 10
29.239980003796518
 20
162.01483500376344
 10
32.71587784867734
 20
158.12635269016027
 10
40.23959966562688
 20
160.28551052184775
  0
LWPOLYLINE
  5
46
330
17
100
AcDbEntity
  8
default
100
AcDbPolyline
 90
21
 70
0
 10
47.73817850576437
 20
185.37983107549798
 10
47.84593950449831
 20
185.6613279509654
 10
47.9353995847706
 20
185.97275332712596
 10
48.07153119801076
 20
186.37989802612626
 10
48.17928065739579
 20
186.66135562895403
 10
48.268733428045486
 20
186.97275512562473
 10
48.40486455960655
 20
187.37989812326086
 10
48.512614001879896
 20
187.6613556680631
 10
48.60206676171475
 20
187.97275512680002
 10
48.738197892947085
 20
188.37989812328556
 10
48.84594733521608
 20
188.661355668073
 10
48.935400095048145
 20
188.9727551268002
 10
49.07153122628771
 20
189.37989812330457
 10
49.17928066877008
 20
189.66135566864597
 10
49.26420636485193
 20
189.95699568933753
 10
44.22217271756381
 20
195.98307193629444
 10
39.337320174090564
 20
195.76758770318702
 10
36.471977062523365
 20
189.66244815802202
 10
43.05064361775294
 20
181.79983774432912
 10
47.653138519538665
 20
185.12543634179787
 10
47.73817850576437
 20
185.37983107549798
  0
LWPOLYLINE
  5
47
330
17
100
AcDbEntity
  8
default
100
AcDbPolyline
 90
41
 70
0
 10
50.94805889023211
 20
194.6854737588494
 10
51.07460916835949
 20
195.0573068884317
 10
51.18057790280854
 20
195.33269508634152
 10
51.26890104959574
 20
195.6400215807402
 10
51.40488397671659
 20
196.04663191376738
 10
51.5126221749934
 20
196.3280509327054
 10
51.60206778227561
 20
196.6394246247907
 10
51.73821731004994
 20
197.0466147880758
 10
51.84606355543631
 20
197.32831603292863
 10
51.935567716262405
 20
197.63975194731077
 10
52.07460916835953
 20
198.05433096492393
 10
52.18858835306336
 20
198.35053646778297
 10
52.28139222356547
 20
198.66294503727417
 10
52.51465558290851
 20
199.29069323958817
 10
52.6596286698836
 20
199.6129070109632
 10
52.772234507939544
 20
199.89143005634125
 10
52.84798895896211
 20
200.06887239185602
 10
52.894853011387426
 20
200.17303132610107
 10
52.948059450084216
 20
200.35214156543987
 10
53.07462881929822
 20
200.72402387778067
 10
53.18069477039692
 20
200.9996557195972
 10
53.269068882775834
 20
201.307018872275
 10
53.407962152638945
 20
201.72106510377327
 10
53.52192984299736
 20
202.01723106537813
 10
53.614726117119446
 20
202.32961361266177
 10
53.84798900169341
 20
202.9573601190115
 10
53.992962741342374
 20
203.27957530513652
 10
54.10556911803009
 20
203.55809913674304
 10
54.181351557001186
 20
203.73560335608983
 10
54.22832920822999
 20
203.84001079212385
 10
54.281576131840225
 20
204.019172812793
 10
54.411062133892656
 20
204.39847327677495
 10
54.523274325568174
 20
204.6885853622372
 10
54.61490946554257
 20
204.99691372589464
 10
54.71318311585482
 20
205.26132541295732
 10
54.47422806825489
 20
205.54691679077223
 10
47.76177697815001
 20
197.98601412773132
 10
50.818382547829685
 20
194.33285758264051
 10
50.847988916230854
 20
194.40220563069676
 10
50.89485259133168
 20
194.50636373210725
 10
50.94805889023211
 20
194.6854737588494
  0
LWPOLYLINE
  5
48
330
17
100
AcDbEntity
  8
default
100
AcDbPolyline
 90
8
 70
0
 10
47.6475640386343
 20
215.1591411018744
 10
47.58270334172994
 20
215.1731504299678
 10
36.75582271069288
 20
208.99835754791275
 10
36.11774432146922
 20
204.04162463499233
 10
39.06075883889571
 20
199.75927780102938
 10
44.18796174414456
 20
199.98545277304947
 10
52.01589438179508
 20
208.80283347843215
 10
47.6475640386343
 20
215.1591411018744
  0
LWPOLYLINE
  5
49
330
17
100
AcDbEntity
  8
default
100
AcDbPolyline
 90
42
 70
0
 10
57.61491002575617
 20
212.99691486662434
 10
57.84804753387464
 20
213.6241725101611
 10
57.99321912125734
 20
213.94680282837382
 10
58.105988601323375
 20
214.22555057028706
 10
58.185978549704906
 20
214.41227017863832
 10
58.23975776089301
 20
214.53107900925212
 10
58.295299613197706
 20
214.71167342518604
 10
58.51931188303824
 20
215.30373368722945
 10
58.66198244495113
 20
215.61892095475173
 10
58.772655267990146
 20
215.89248610283275
 10
58.848047533885484
 20
216.06901823465142
 10
58.89500650123531
 20
216.17338016147158
 10
58.94824335945849
 20
216.3525080564149
 10
59.077728858633364
 20
216.73180678308628
 10
59.18994137070188
 20
217.02191966912662
 10
59.281576692791894
 20
217.3302482012053
 10
59.514714200563226
 20
217.95750584354897
 10
59.659885788394774
 20
218.28013616275004
 10
59.77265526883204
 20
218.55888390522085
 10
59.85264525973967
 20
218.74560360729947
 10
59.90642487652425
 20
218.8644133273036
 10
59.9619668953531
 20
219.04500801553866
 10
60.1860082581746
 20
219.63713190690177
 10
60.32889297112856
 20
219.9527801700594
 10
60.43974083566931
 20
220.22660207366664
 10
60.51934163486898
 20
220.4123522859775
 10
60.57310260798082
 20
220.5311162635068
 10
60.628634177510996
 20
220.71167670678042
 10
60.85267496821344
 20
221.3037986926913
 10
60.995559657999216
 20
221.61944688699475
 10
61.10640750317937
 20
221.89326874242258
 10
61.186008301546785
 20
222.07901895267463
 10
61.23976927465148
 20
222.1977829301864
 10
61.29530084417765
 20
222.37834337344705
 10
61.423498327173796
 20
222.7171591220545
 10
56.65481276484206
 20
224.03648298513144
 10
51.30725613422692
 20
216.89629629673436
 10
55.20190797466785
 20
211.22923285607249
 10
57.36657509220796
 20
212.2681583687479
 10
57.41106216293335
 20
212.3984733513815
 10
57.52327469231869
 20
212.6885862960719
 10
57.61491002575617
 20
212.99691486662434
  0
LWPOLYLINE
  5
4A
330
17
100
AcDbEntity
  8
default
100
AcDbPolyline
 90
5
 70
0
 10
27.34036959055811
 20
222.39302260661498
 10
35.36063455604017
 20
212.8074601967819
 10
44.18731855740771
 20
217.84149976959452
 10
36.88015219848603
 20
226.5747896884568
 10
27.34036959055811
 20
222.39302260661498
  0
LWPOLYLINE
  5
4B
330
17
100
AcDbEntity
  8
default
100
AcDbPolyline
 90
7
 70
0
 10
52.94349352456629
 20
230.70444063004106
 10
42.47093932889402
 20
233.32787610497326
 10
41.150688513647765
 20
232.56171138212085
 10
39.77362601971254
 20
229.34996617399156
 10
48.144239333458245
 20
219.34567870013416
 10
53.733959627337754
 20
226.80920815793797
 10
52.94349352456629
 20
230.70444063004106
  0
LWPOLYLINE
  5
4C
330
17
100
AcDbEntity
  8
default
100
AcDbPolyline
 90
47
 70
0
 10
63.186008301557855
 20
227.07901895269904
 10
63.23976927494095
 20
227.19778293082413
 10
63.29530084458307
 20
227.37834337428453
 10
63.519341678252346
 20
227.97046545469132
 10
63.66222704814438
 20
228.2861151337521
 10
63.773075450006644
 20
228.55993782716078
 10
63.85270467952426
 20
228.74575050943577
 10
63.90658859789551
 20
228.8647815213711
 10
63.9621692177987
 20
229.04541324362043
 10
64.1907055994536
 20
229.64722509104115
 10
64.34822779380026
 20
229.9931148447587
 10
64.47151705315028
 20
230.2837084881222
 10
64.68518151072819
 20
230.7256265624881
 10
64.7520534347138
 20
230.8481917387139
 10
64.80485182911262
 20
230.9726376665209
 10
64.85740242689359
 20
231.0921362974965
 10
64.90840916735365
 20
231.2041333923971
 10
64.96237119487442
 20
231.37941920436597
 10
65.19073576023828
 20
231.98064103208594
 10
65.34824277331741
 20
232.32648410560853
 10
65.4715184967301
 20
232.61704524728867
 10
65.68518157867592
 20
233.05896004366733
 10
65.75205346306969
 20
233.1815251390566
 10
65.8048518300635
 20
233.3059710021014
 10
65.85740242690494
 20
233.42546963086065
 10
65.90840916735765
 20
233.53746672574346
 10
65.96237119487444
 20
233.7127525376994
 10
66.19073576023828
 20
234.31397436541928
 10
66.34824277331737
 20
234.6598174389418
 10
66.47151849673021
 20
234.95037858062224
 10
66.68518157869327
 20
235.3922933770324
 10
66.75205346366127
 20
235.514858473472
 10
66.80485183101459
 20
235.6393043371956
 10
66.85740247093747
 20
235.75880306039673
 10
66.9084096195359
 20
235.87080104514894
 10
66.96237181201775
 20
236.04608713146712
 10
67.19076592390344
 20
236.64737318453584
 10
67.32890163601049
 20
236.95067038314582
 10
66.1578334895894
 20
241.2535625747405
 10
64.9057022370398
 20
242.03317090356722
 10
63.97923585167155
 20
241.9315978102386
 10
56.78601601300761
 20
231.8822218226269
 10
57.5883579114452
 20
227.9284682031721
 10
62.920348913459115
 20
226.45329797529612
 10
62.995559657999344
 20
226.61944688699504
 10
63.10640750317947
 20
226.89326874242275
 10
63.186008301557855
 20
227.07901895269904
  0
LWPOLYLINE
  5
4D
330
17
100
AcDbEntity
  8
default
100
AcDbPolyline
 90
15
 70
0
 10
53.81857560714707
 20
234.6088242828846
 10
59.952129498589784
 20
243.1777809644118
 10
55.96181175826459
 20
245.43709869689653
 10
55.83785853478804
 20
245.33355674126418
 10
54.76741568398804
 20
244.7365717057142
 10
53.692360691188036
 20
244.43352368321422
 10
52.635802362888036
 20
244.4219147507142
 10
51.701615323088035
 20
244.68856435511418
 10
50.88426289488804
 20
245.2315944242142
 10
50.176784770138035
 20
246.0336243482642
 10
49.67883918313804
 20
246.9498805476142
 10
49.67447239300349
 20
246.96556146736594
 10
48.13659312296659
 20
246.50439320364967
 10
44.778447705321014
 20
236.87342867581174
 10
53.81857560714707
 20
234.6088242828846
  0
LWPOLYLINE
  5
4E
330
17
100
AcDbEntity
  8
default
100
AcDbPolyline
 90
41
 70
0
 10
38.577965114388704
 20
249.47723308728578
 10
38.5280068817645
 20
249.35956095426354
 10
38.47590065466704
 20
249.2411142080692
 10
38.42491251035836
 20
249.12916227795301
 10
38.370960903356675
 20
248.95391083837646
 10
38.14256732134489
 20
248.35262659922662
 10
37.98482449384258
 20
248.00627914452787
 10
37.861340216050245
 20
247.7154230109347
 10
37.640739027904544
 20
247.26108994801984
 10
37.55621391546023
 20
247.1073003526659
 10
37.49204049010014
 20
246.96341216015387
 10
37.29996258675411
 20
246.57822315264383
 10
37.21973658668155
 20
246.43331542515114
 10
37.1587071567667
 20
246.2964766276082
 10
36.974072361237965
 20
245.9247807149685
 10
36.911298476424165
 20
245.81056648838975
 10
36.861340216050245
 20
245.6928942898461
 10
36.80923398802296
 20
245.57444754145803
 10
36.75824584398731
 20
245.46249561193807
 10
36.70429423709656
 20
245.28724417254966
 10
36.475900698715165
 20
244.6859600287688
 10
36.31815861492828
 20
244.33961418749521
 10
36.194674995444835
 20
244.04875900609733
 10
35.974119696437086
 20
243.59450866335743
 10
35.889884704763524
 20
243.44123979265888
 10
35.825909593253215
 20
243.29769472495772
 10
35.640786363103665
 20
242.924883222664
 10
35.57798528856332
 20
242.81061420473907
 10
35.52800832877813
 20
242.6928977192259
 10
35.47590069872639
 20
242.57444766145608
 10
35.42491252663648
 20
242.46249566403228
 10
35.37096090416978
 20
242.28724417387613
 10
35.1425673653931
 20
241.6859600287994
 10
35.02873322798483
 20
241.43602051272106
 10
39.91212401725352
 20
236.4676988082938
 10
40.52475508349016
 20
236.82321937009692
 10
44.13093400374055
 20
247.1655294666998
 10
38.833003545235385
 20
249.98025042238288
 10
38.82537218494553
 20
249.96313959718393
 10
38.64073895878014
 20
249.5914472325515
 10
38.577965114388704
 20
249.47723308728578
  0
LWPOLYLINE
  5
4F
330
17
100
AcDbEntity
  8
default
100
AcDbPolyline
 90
9
 70
0
 10
64.24753775259238
 20
247.59250224947797
 10
59.240580770295864
 20
250.11279259908073
 10
59.23455454843804
 20
250.1008126046141
 10
58.98605658963804
 20
249.60080342516412
 10
58.73440621648804
 20
249.1006740505141
 10
58.48685312440061
 20
248.6040842026613
 10
63.296719597652555
 20
245.88073801295832
 10
63.80038161901757
 20
245.93595697218552
 10
64.24753775259238
 20
247.59250224947797
  0
LWPOLYLINE
  5
50
330
17
100
AcDbEntity
  8
default
100
AcDbPolyline
 90
30
 70
0
 10
50.23465043813803
 20
252.0634282382142
 10
50.42097556753227
 20
252.45642214115642
 10
50.546238609437204
 20
254.48915667043855
 10
42.85408584295162
 20
258.3610609934815
 10
42.82483382106639
 20
258.29551948368317
 10
42.63319949336365
 20
257.91136666393027
 10
42.552707711674934
 20
257.7659925293911
 10
42.49150048773297
 20
257.62885281701637
 10
42.299866160048516
 20
257.2446999972965
 10
42.219374378992654
 20
257.0993258638977
 10
42.15816715548032
 20
256.9621861522902
 10
41.966532897004576
 20
256.57803345709686
 10
41.88604205185597
 20
256.4326610040604
 10
41.824835462468336
 20
256.29552241665783
 10
41.63324770932579
 20
255.9114530028611
 10
41.55304863532166
 20
255.76660071527579
 10
41.492038851612364
 20
255.62980626385092
 10
41.30740562544681
 20
255.25811389921813
 10
41.244631781055325
 20
255.14389975395233
 10
41.19467354843101
 20
255.02622762092986
 10
41.1425673213337
 20
254.9077808747359
 10
41.09157917702502
 20
254.79582894461967
 10
41.03762757002329
 20
254.62057750504303
 10
40.80923398800026
 20
254.01929326586858
 10
40.65149115999887
 20
253.67294581007906
 10
40.60668318464383
 20
253.56740464580096
 10
46.79688984667882
 20
250.27862904779613
 10
49.90585901090806
 20
251.2109245405962
 10
49.98704372683804
 20
251.4585248515142
 10
50.23465043813803
 20
252.0634282382142
  0
LWPOLYLINE
  5
51
330
17
100
AcDbEntity
  8
default
100
AcDbPolyline
 90
65
 70
0
 10
24.15139338864123
 20
146.3958142120016
 10
24.062116821773643
 20
146.9976679384583
 10
23.914278164813307
 20
147.587872940936
 10
23.70930118484359
 20
148.16074522262187
 10
23.449159922233413
 20
148.7107677102795
 10
23.136359679549393
 20
149.23264338667985
 10
22.77391289412258
 20
149.72134630377292
 10
22.365310126630206
 20
150.17216998531492
 10
21.914486445088215
 20
150.5807727528073
 10
21.425783527995144
 20
150.9432195382341
 10
20.9039078515948
 20
151.2560197809181
 10
20.35388536393717
 20
151.51616104352829
 10
19.781013082251278
 20
151.721138023498
 10
19.190808079773607
 20
151.86897668045833
 10
18.588954353316886
 20
151.95825324732593
 10
17.981248083273613
 20
151.9881079419583
 10
17.37354181323034
 20
151.95825324732593
 10
16.771688086773615
 20
151.86897668045833
 10
16.181483084295945
 20
151.721138023498
 10
15.608610802610052
 20
151.51616104352829
 10
15.058588314952425
 20
151.2560197809181
 10
14.536712638552078
 20
150.9432195382341
 10
14.048009721459009
 20
150.5807727528073
 10
13.597186039917016
 20
150.17216998531492
 10
13.188583272424642
 20
149.72134630377292
 10
12.82613648699783
 20
149.23264338667985
 10
12.513336244313813
 20
148.7107677102795
 10
12.253194981703635
 20
148.16074522262187
 10
12.048218001733918
 20
147.587872940936
 10
11.900379344773583
 20
146.9976679384583
 10
11.811102777905992
 20
146.3958142120016
 10
11.781248083273614
 20
145.78810794195832
 10
11.811102777905992
 20
145.18040167191504
 10
11.900379344773583
 20
144.57854794545833
 10
12.048218001733918
 20
143.98834294298064
 10
12.253194981703635
 20
143.41547066129476
 10
12.513336244313813
 20
142.86544817363713
 10
12.826136486997832
 20
142.34357249723678
 10
13.188583272424644
 20
141.8548695801437
 10
13.59718603991702
 20
141.4040458986017
 10
14.04800972145901
 20
140.99544313110934
 10
14.53671263855208
 20
140.63299634568253
 10
15.058588314952427
 20
140.32019610299852
 10
15.608610802610055
 20
140.06005484038835
 10
16.181483084295948
 20
139.85507786041862
 10
16.77168808677362
 20
139.7072392034583
 10
17.373541813230336
 20
139.6179626365907
 10
17.981248083273613
 20
139.58810794195833
 10
18.58895435331689
 20
139.6179626365907
 10
19.190808079773607
 20
139.7072392034583
 10
19.781013082251278
 20
139.85507786041862
 10
20.35388536393717
 20
140.06005484038835
 10
20.9039078515948
 20
140.32019610299852
 10
21.425783527995147
 20
140.63299634568253
 10
21.914486445088215
 20
140.99544313110934
 10
22.365310126630206
 20
141.4040458986017
 10
22.77391289412258
 20
141.8548695801437
 10
23.136359679549393
 20
142.34357249723678
 10
23.449159922233413
 20
142.86544817363713
 10
23.70930118484359
 20
143.41547066129476
 10
23.914278164813307
 20
143.98834294298064
 10
24.062116821773643
 20
144.57854794545833
 10
24.15139338864123
 20
145.18040167191504
 10
24.181248083273612
 20
145.78810794195832
 10
24.15139338864123
 20
146.3958142120016
  0
ENDSEC
  0
SECTION
  2
OBJECTS
  0
DICTIONARY
  5
A
330
0
100
AcDbDictionary
280
0
281
1
  3
ACAD_COLOR
350
B
  3
ACAD_GROUP
350
C
  3
ACAD_LAYOUT
350
D
  3
ACAD_MATERIAL
350
E
  3
ACAD_MLEADERSTYLE
350
F
  3
ACAD_MLINESTYLE
350
10
  3
ACAD_PLOTSETTINGS
350
11
  3
ACAD_PLOTSTYLENAME
350
12
  3
ACAD_SCALELIST
350
14
  3
ACAD_TABLESTYLE
350
15
  3
ACAD_VISUALSTYLE
350
16
  3
EZDXF_META
350
2D
  0
DICTIONARY
  5
B
330
A
100
AcDbDictionary
280
0
281
1
  0
DICTIONARY
  5
C
330
A
100
AcDbDictionary
280
0
281
1
  0
DICTIONARY
  5
D
330
A
100
AcDbDictionary
280
0
281
1
  3
Model
350
1A
  3
Layout1
350
1E
  0
DICTIONARY
  5
E
330
A
100
AcDbDictionary
280
0
281
1
  3
ByBlock
350
1F
  3
ByLayer
350
20
  3
Global
350
21
  0
DICTIONARY
  5
F
330
A
100
AcDbDictionary
280
0
281
1
  3
Standard
350
2C
  0
DICTIONARY
  5
10
330
A
100
AcDbDictionary
280
0
281
1
  3
Standard
350
22
  0
DICTIONARY
  5
11
330
A
100
AcDbDictionary
280
0
281
1
  0
ACDBDICTIONARYWDFLT
  5
12
330
A
100
AcDbDictionary
280
0
281
1
  3
Normal
350
13
100
AcDbDictionaryWithDefault
340
13
  0
ACDBPLACEHOLDER
  5
13
330
12
  0
DICTIONARY
  5
14
330
A
100
AcDbDictionary
280
0
281
1
  0
DICTIONARY
  5
15
330
A
100
AcDbDictionary
280
0
281
1
  0
DICTIONARY
  5
16
330
A
100
AcDbDictionary
280
0
281
1
  0
LAYOUT
  5
1A
330
D
100
AcDbPlotSettings
  1

  2
Adobe PDF
  4
A3
  6

 40
7.5
 41
20.0
 42
7.5
 43
20.0
 44
420.0
 45
297.0
 46
0.0
 47
0.0
 48
0.0
 49
0.0
140
0.0
141
0.0
142
1.0
143
1.0
 70
1024
 72
1
 73
0
 74
5
  7

 75
16
 76
0
 77
2
 78
300
147
1.0
148
0.0
149
0.0
100
AcDbLayout
  1
Model
 70
1
 71
0
 10
0.0
 20
0.0
 11
420.0
 21
297.0
 12
0.0
 22
0.0
 32
0.0
 14
1e+20
 24
1e+20
 34
1e+20
 15
-1e+20
 25
-1e+20
 35
-1e+20
146
0.0
 13
0.0
 23
0.0
 33
0.0
 16
1.0
 26
0.0
 36
0.0
 17
0.0
 27
1.0
 37
0.0
 76
1
330
17
  0
LAYOUT
  5
1E
330
D
100
AcDbPlotSettings
  1

  2
Adobe PDF
  4
A3
  6

 40
7.5
 41
20.0
 42
7.5
 43
20.0
 44
420.0
 45
297.0
 46
0.0
 47
0.0
 48
0.0
 49
0.0
140
0.0
141
0.0
142
1.0
143
1.0
 70
0
 72
1
 73
0
 74
5
  7

 75
16
 76
0
 77
2
 78
300
147
1.0
148
0.0
149
0.0
100
AcDbLayout
  1
Layout1
 70
1
 71
1
 10
0.0
 20
0.0
 11
420.0
 21
297.0
 12
0.0
 22
0.0
 32
0.0
 14
1e+20
 24
1e+20
 34
1e+20
 15
-1e+20
 25
-1e+20
 35
-1e+20
146
0.0
 13
0.0
 23
0.0
 33
0.0
 16
1.0
 26
0.0
 36
0.0
 17
0.0
 27
1.0
 37
0.0
 76
1
330
1B
  0
MATERIAL
  5
1F
102
{ACAD_REACTORS
330
E
102
}
330
E
100
AcDbMaterial
  1
ByBlock
  2

 70
0
 40
1.0
 71
1
 41
1.0
 91
-1023410177
 42
1.0
 72
1
  3

 73
1
 74
1
 75
1
 44
0.5
 73
0
 45
1.0
 46
1.0
 77
1
  4

 78
1
 79
1
170
1
 48
1.0
171
1
  6

172
1
173
1
174
1
140
1.0
141
1.0
175
1
  7

176
1
177
1
178
1
143
1.0
179
1
  8

270
1
271
1
272
1
145
1.0
146
1.0
273
1
  9

274
1
275
1
276
1
 42
1.0
 72
1
  3

 73
1
 74
1
 75
1
 94
63
  0
MATERIAL
  5
20
102
{ACAD_REACTORS
330
E
102
}
330
E
100
AcDbMaterial
  1
ByLayer
  2

 70
0
 40
1.0
 71
1
 41
1.0
 91
-1023410177
 42
1.0
 72
1
  3

 73
1
 74
1
 75
1
 44
0.5
 73
0
 45
1.0
 46
1.0
 77
1
  4

 78
1
 79
1
170
1
 48
1.0
171
1
  6

172
1
173
1
174
1
140
1.0
141
1.0
175
1
  7

176
1
177
1
178
1
143
1.0
179
1
  8

270
1
271
1
272
1
145
1.0
146
1.0
273
1
  9

274
1
275
1
276
1
 42
1.0
 72
1
  3

 73
1
 74
1
 75
1
 94
63
  0
MATERIAL
  5
21
102
{ACAD_REACTORS
330
E
102
}
330
E
100
AcDbMaterial
  1
Global
  2

 70
0
 40
1.0
 71
1
 41
1.0
 91
-1023410177
 42
1.0
 72
1
  3

 73
1
 74
1
 75
1
 44
0.5
 73
0
 45
1.0
 46
1.0
 77
1
  4

 78
1
 79
1
170
1
 48
1.0
171
1
  6

172
1
173
1
174
1
140
1.0
141
1.0
175
1
  7

176
1
177
1
178
1
143
1.0
179
1
  8

270
1
271
1
272
1
145
1.0
146
1.0
273
1
  9

274
1
275
1
276
1
 42
1.0
 72
1
  3

 73
1
 74
1
 75
1
 94
63
  0
MLINESTYLE
  5
22
102
{ACAD_REACTORS
330
10
102
}
330
10
100
AcDbMlineStyle
  2
Standard
 70
0
  3

 62
256
 51
90.0
 52
90.0
 71
2
 49
0.5
 62
256
  6
BYLAYER
 49
-0.5
 62
256
  6
BYLAYER
  0
MLEADERSTYLE
  5
2C
102
{ACAD_REACTORS
330
F
102
}
330
F
100
AcDbMLeaderStyle
179
2
170
2
171
1
172
0
 90
2
 40
0.0
 41
0.0
173
1
 91
-1056964608
 92
-2
290
1
 42
2.0
291
1
 43
8.0
  3
Standard
 44
4.0
300

342
29
174
1
175
1
176
0
178
1
 93
-1056964608
 45
4.0
292
0
297
0
 46
4.0
 94
-1056964608
 47
1.0
 49
1.0
140
1.0
294
1
141
0.0
177
0
142
1.0
295
0
296
0
143
3.75
271
0
272
9
273
9
  0
DICTIONARY
  5
2D
330
A
100
AcDbDictionary
281
1
  3
CREATED_BY_EZDXF
350
2E
  3
WRITTEN_BY_EZDXF
350
54
  0
DICTIONARYVAR
  5
2E
330
2D
100
DictionaryVariables
280
0
  1
1.1.1 @ 2023-10-28T15:34:30.819124+00:00
  0
DICTIONARYVAR
  5
54
330
2D
100
DictionaryVariables
280
0
  1
1.1.1 @ 2023-10-28T15:34:30.830974+00:00
  0
ENDSEC
  0
EOF
