  0
SECTION
  2
HEADER
  9
$ACADVER
  1
AC1032
  9
$ACADMAINTVER
 90
4
  9
$DWGCODEPAGE
  3
ANSI_1252
  9
$LASTSAVEDBY
  1
ezdxf
  9
$REQUIREDVERSIONS
160
0
  9
$INSBASE
 10
0.0
 20
0.0
 30
0.0
  9
$EXTMIN
 10
1e+20
 20
1e+20
 30
1e+20
  9
$EXTMAX
 10
-1e+20
 20
-1e+20
 30
-1e+20
  9
$LIMMIN
 10
0.0
 20
0.0
  9
$LIMMAX
 10
420.0
 20
297.0
  9
$ORTHOMODE
 70
0
  9
$REGENMODE
 70
1
  9
$FILLMODE
 70
1
  9
$QTEXTMODE
 70
0
  9
$MIRRTEXT
 70
1
  9
$LTSCALE
 40
1.0
  9
$ATTMODE
 70
1
  9
$TEXTSIZE
 40
2.5
  9
$TRACEWID
 40
1.0
  9
$TEXTSTYLE
  7
Standard
  9
$CLAYER
  8
0
  9
$CELTYPE
  6
ByLayer
  9
$CECOLOR
 62
256
  9
$CELTSCALE
 40
1.0
  9
$DISPSILH
 70
0
  9
$DIMSCALE
 40
1.0
  9
$DIMASZ
 40
2.5
  9
$DIMEXO
 40
0.625
  9
$DIMDLI
 40
3.75
  9
$DIMRND
 40
0.0
  9
$DIMDLE
 40
0.0
  9
$DIMEXE
 40
1.25
  9
$DIMTP
 40
0.0
  9
$DIMTM
 40
0.0
  9
$DIMTXT
 40
2.5
  9
$DIMCEN
 40
2.5
  9
$DIMTSZ
 40
0.0
  9
$DIMTOL
 70
0
  9
$DIMLIM
 70
0
  9
$DIMTIH
 70
0
  9
$DIMTOH
 70
0
  9
$DIMSE1
 70
0
  9
$DIMSE2
 70
0
  9
$DIMTAD
 70
1
  9
$DIMZIN
 70
8
  9
$DIMBLK
  1

  9
$DIMASO
 70
1
  9
$DIMSHO
 70
1
  9
$DIMPOST
  1

  9
$DIMAPOST
  1

  9
$DIMALT
 70
0
  9
$DIMALTD
 70
3
  9
$DIMALTF
 40
0.03937007874
  9
$DIMLFAC
 40
1.0
  9
$DIMTOFL
 70
1
  9
$DIMTVP
 40
0.0
  9
$DIMTIX
 70
0
  9
$DIMSOXD
 70
0
  9
$DIMSAH
 70
0
  9
$DIMBLK1
  1

  9
$DIMBLK2
  1

  9
$DIMSTYLE
  2
ISO-25
  9
$DIMCLRD
 70
0
  9
$DIMCLRE
 70
0
  9
$DIMCLRT
 70
0
  9
$DIMTFAC
 40
1.0
  9
$DIMGAP
 40
0.625
  9
$DIMJUST
 70
0
  9
$DIMSD1
 70
0
  9
$DIMSD2
 70
0
  9
$DIMTOLJ
 70
0
  9
$DIMTZIN
 70
8
  9
$DIMALTZ
 70
0
  9
$DIMALTTZ
 70
0
  9
$DIMUPT
 70
0
  9
$DIMDEC
 70
2
  9
$DIMTDEC
 70
2
  9
$DIMALTU
 70
2
  9
$DIMALTTD
 70
3
  9
$DIMTXSTY
  7
Standard
  9
$DIMAUNIT
 70
0
  9
$DIMADEC
 70
0
  9
$DIMALTRND
 40
0.0
  9
$DIMAZIN
 70
0
  9
$DIMDSEP
 70
44
  9
$DIMATFIT
 70
3
  9
$DIMFRAC
 70
0
  9
$DIMLDRBLK
  1

  9
$DIMLUNIT
 70
2
  9
$DIMLWD
 70
-2
  9
$DIMLWE
 70
-2
  9
$DIMTMOVE
 70
0
  9
$DIMFXL
 40
1.0
  9
$DIMFXLON
 70
0
  9
$DIMJOGANG
 40
0.785398163397
  9
$DIMTFILL
 70
0
  9
$DIMTFILLCLR
 70
0
  9
$DIMARCSYM
 70
0
  9
$DIMLTYPE
  6

  9
$DIMLTEX1
  6

  9
$DIMLTEX2
  6

  9
$DIMTXTDIRECTION
 70
0
  9
$LUNITS
 70
2
  9
$LUPREC
 70
4
  9
$SKETCHINC
 40
1.0
  9
$FILLETRAD
 40
10.0
  9
$AUNITS
 70
0
  9
$AUPREC
 70
2
  9
$MENU
  1
.
  9
$ELEVATION
 40
0.0
  9
$PELEVATION
 40
0.0
  9
$THICKNESS
 40
0.0
  9
$LIMCHECK
 70
0
  9
$CHAMFERA
 40
0.0
  9
$CHAMFERB
 40
0.0
  9
$CHAMFERC
 40
0.0
  9
$CHAMFERD
 40
0.0
  9
$SKPOLY
 70
0
  9
$TDCREATE
 40
2460255.652638889
  9
$TDUCREATE
 40
2458532.153996898
  9
$TDUPDATE
 40
2460255.652638889
  9
$TDUUPDATE
 40
2458532.1544311
  9
$TDINDWG
 40
0.0
  9
$TDUSRTIMER
 40
0.0
  9
$USRTIMER
 70
1
  9
$ANGBASE
 50
0.0
  9
$ANGDIR
 70
0
  9
$PDMODE
 70
0
  9
$PDSIZE
 40
0.0
  9
$PLINEWID
 40
0.0
  9
$SPLFRAME
 70
0
  9
$SPLINETYPE
 70
6
  9
$SPLINESEGS
 70
8
  9
$HANDSEED
  5
6D
  9
$SURFTAB1
 70
6
  9
$SURFTAB2
 70
6
  9
$SURFTYPE
 70
6
  9
$SURFU
 70
6
  9
$SURFV
 70
6
  9
$UCSBASE
  2

  9
$UCSNAME
  2

  9
$UCSORG
 10
0.0
 20
0.0
 30
0.0
  9
$UCSXDIR
 10
1.0
 20
0.0
 30
0.0
  9
$UCSYDIR
 10
0.0
 20
1.0
 30
0.0
  9
$UCSORTHOREF
  2

  9
$UCSORTHOVIEW
 70
0
  9
$UCSORGTOP
 10
0.0
 20
0.0
 30
0.0
  9
$UCSORGBOTTOM
 10
0.0
 20
0.0
 30
0.0
  9
$UCSORGLEFT
 10
0.0
 20
0.0
 30
0.0
  9
$UCSORGRIGHT
 10
0.0
 20
0.0
 30
0.0
  9
$UCSORGFRONT
 10
0.0
 20
0.0
 30
0.0
  9
$UCSORGBACK
 10
0.0
 20
0.0
 30
0.0
  9
$PUCSBASE
  2

  9
$PUCSNAME
  2

  9
$PUCSORG
 10
0.0
 20
0.0
 30
0.0
  9
$PUCSXDIR
 10
1.0
 20
0.0
 30
0.0
  9
$PUCSYDIR
 10
0.0
 20
1.0
 30
0.0
  9
$PUCSORTHOREF
  2

  9
$PUCSORTHOVIEW
 70
0
  9
$PUCSORGTOP
 10
0.0
 20
0.0
 30
0.0
  9
$PUCSORGBOTTOM
 10
0.0
 20
0.0
 30
0.0
  9
$PUCSORGLEFT
 10
0.0
 20
0.0
 30
0.0
  9
$PUCSORGRIGHT
 10
0.0
 20
0.0
 30
0.0
  9
$PUCSORGFRONT
 10
0.0
 20
0.0
 30
0.0
  9
$PUCSORGBACK
 10
0.0
 20
0.0
 30
0.0
  9
$USERI1
 70
0
  9
$USERI2
 70
0
  9
$USERI3
 70
0
  9
$USERI4
 70
0
  9
$USERI5
 70
0
  9
$USERR1
 40
0.0
  9
$USERR2
 40
0.0
  9
$USERR3
 40
0.0
  9
$USERR4
 40
0.0
  9
$USERR5
 40
0.0
  9
$WORLDVIEW
 70
1
  9
$SHADEDGE
 70
3
  9
$SHADEDIF
 70
70
  9
$TILEMODE
 70
1
  9
$MAXACTVP
 70
64
  9
$PINSBASE
 10
0.0
 20
0.0
 30
0.0
  9
$PLIMCHECK
 70
0
  9
$PEXTMIN
 10
1e+20
 20
1e+20
 30
1e+20
  9
$PEXTMAX
 10
-1e+20
 20
-1e+20
 30
-1e+20
  9
$PLIMMIN
 10
0.0
 20
0.0
  9
$PLIMMAX
 10
420.0
 20
297.0
  9
$UNITMODE
 70
0
  9
$VISRETAIN
 70
1
  9
$PLINEGEN
 70
0
  9
$PSLTSCALE
 70
1
  9
$TREEDEPTH
 70
3020
  9
$CMLSTYLE
  2
Standard
  9
$CMLJUST
 70
0
  9
$CMLSCALE
 40
20.0
  9
$PROXYGRAPHICS
 70
1
  9
$MEASUREMENT
 70
1
  9
$CELWEIGHT
370
-1
  9
$ENDCAPS
280
0
  9
$JOINSTYLE
280
0
  9
$LWDISPLAY
290
0
  9
$INSUNITS
 70
4
  9
$HYPERLINKBASE
  1

  9
$STYLESHEET
  1

  9
$XEDIT
290
1
  9
$CEPSNTYPE
380
0
  9
$PSTYLEMODE
290
1
  9
$FINGERPRINTGUID
  2
{DA3179BB-DB73-4829-9166-48AA20607AC9}
  9
$VERSIONGUID
  2
{A1EAF38B-D48E-4F8B-8747-4AEB372EB475}
  9
$EXTNAMES
290
1
  9
$PSVPSCALE
 40
0.0
  9
$OLESTARTUP
290
0
  9
$SORTENTS
280
127
  9
$INDEXCTL
280
0
  9
$HIDETEXT
280
1
  9
$XCLIPFRAME
280
0
  9
$HALOGAP
280
0
  9
$OBSCOLOR
 70
257
  9
$OBSLTYPE
280
0
  9
$INTERSECTIONDISPLAY
280
0
  9
$INTERSECTIONCOLOR
 70
257
  9
$DIMASSOC
280
2
  9
$PROJECTNAME
  1

  9
$CAMERADISPLAY
290
0
  9
$LENSLENGTH
 40
50.0
  9
$CAMERAHEIGHT
 40
0.0
  9
$STEPSPERSEC
 40
24.0
  9
$STEPSIZE
 40
100.0
  9
$3DDWFPREC
 40
2.0
  9
$PSOLWIDTH
 40
0.005
  9
$PSOLHEIGHT
 40
0.08
  9
$LOFTANG1
 40
1.570796326795
  9
$LOFTANG2
 40
1.570796326795
  9
$LOFTMAG1
 40
0.0
  9
$LOFTMAG2
 40
0.0
  9
$LOFTPARAM
 70
7
  9
$LOFTNORMALS
280
1
  9
$LATITUDE
 40
37.795
  9
$LONGITUDE
 40
-122.394
  9
$NORTHDIRECTION
 40
0.0
  9
$TIMEZONE
 70
-8000
  9
$LIGHTGLYPHDISPLAY
280
1
  9
$TILEMODELIGHTSYNCH
280
1
  9
$CMATERIAL
347
20
  9
$SOLIDHIST
280
0
  9
$SHOWHIST
280
1
  9
$DWFFRAME
280
2
  9
$DGNFRAME
280
2
  9
$REALWORLDSCALE
290
1
  9
$INTERFERECOLOR
 62
256
  9
$CSHADOW
280
0
  9
$SHADOWPLANELOCATION
 40
0.0
  0
ENDSEC
  0
SECTION
  2
CLASSES
  0
CLASS
  1
ACDBDICTIONARYWDFLT
  2
AcDbDictionaryWithDefault
  3
ObjectDBX Classes
 90
0
 91
0
280
0
281
0
  0
CLASS
  1
SUN
  2
AcDbSun
  3
SCENEOE
 90
1153
 91
0
280
0
281
0
  0
CLASS
  1
VISUALSTYLE
  2
AcDbVisualStyle
  3
ObjectDBX Classes
 90
4095
 91
0
280
0
281
0
  0
CLASS
  1
MATERIAL
  2
AcDbMaterial
  3
ObjectDBX Classes
 90
1153
 91
0
280
0
281
0
  0
CLASS
  1
SCALE
  2
AcDbScale
  3
ObjectDBX Classes
 90
1153
 91
0
280
0
281
0
  0
CLASS
  1
TABLESTYLE
  2
AcDbTableStyle
  3
ObjectDBX Classes
 90
4095
 91
0
280
0
281
0
  0
CLASS
  1
MLEADERSTYLE
  2
AcDbMLeaderStyle
  3
ACDB_MLEADERSTYLE_CLASS
 90
4095
 91
0
280
0
281
0
  0
CLASS
  1
DICTIONARYVAR
  2
AcDbDictionaryVar
  3
ObjectDBX Classes
 90
0
 91
0
280
0
281
0
  0
CLASS
  1
CELLSTYLEMAP
  2
AcDbCellStyleMap
  3
ObjectDBX Classes
 90
1152
 91
0
280
0
281
0
  0
CLASS
  1
MENTALRAYRENDERSETTINGS
  2
AcDbMentalRayRenderSettings
  3
SCENEOE
 90
1024
 91
0
280
0
281
0
  0
CLASS
  1
ACDBDETAILVIEWSTYLE
  2
AcDbDetailViewStyle
  3
ObjectDBX Classes
 90
1025
 91
0
280
0
281
0
  0
CLASS
  1
ACDBSECTIONVIEWSTYLE
  2
AcDbSectionViewStyle
  3
ObjectDBX Classes
 90
1025
 91
0
280
0
281
0
  0
CLASS
  1
RASTERVARIABLES
  2
AcDbRasterVariables
  3
ISM
 90
0
 91
0
280
0
281
0
  0
CLASS
  1
LAYOUT
  2
AcDbLayout
  3
ObjectDBX Classes
 90
0
 91
0
280
0
281
0
  0
CLASS
  1
ACDBPLACEHOLDER
  2
AcDbPlaceHolder
  3
ObjectDBX Classes
 90
0
 91
0
280
0
281
0
  0
ENDSEC
  0
SECTION
  2
TABLES
  0
TABLE
  2
VPORT
  5
8
330
0
100
AcDbSymbolTable
 70
1
  0
VPORT
  5
23
330
8
100
AcDbSymbolTableRecord
100
AcDbViewportTableRecord
  2
*Active
 70
0
 10
0.0
 20
0.0
 11
1.0
 21
1.0
 12
0.0
 22
0.0
 13
0.0
 23
0.0
 14
0.5
 24
0.5
 15
0.5
 25
0.5
 16
0.0
 26
0.0
 36
1.0
 17
0.0
 27
0.0
 37
0.0
 40
1000.0
 41
1.34
 42
50.0
 43
0.0
 44
0.0
 50
0.0
 51
0.0
 71
0
 72
1000
 73
1
 74
3
 75
0
 76
0
 77
0
 78
0
281
0
 65
0
146
0.0
  0
ENDTAB
  0
TABLE
  2
LTYPE
  5
2
330
0
100
AcDbSymbolTable
 70
3
  0
LTYPE
  5
24
330
2
100
AcDbSymbolTableRecord
100
AcDbLinetypeTableRecord
  2
ByBlock
 70
0
  3

 72
65
 73
0
 40
0.0
  0
LTYPE
  5
25
330
2
100
AcDbSymbolTableRecord
100
AcDbLinetypeTableRecord
  2
ByLayer
 70
0
  3

 72
65
 73
0
 40
0.0
  0
LTYPE
  5
26
330
2
100
AcDbSymbolTableRecord
100
AcDbLinetypeTableRecord
  2
Continuous
 70
0
  3

 72
65
 73
0
 40
0.0
  0
ENDTAB
  0
TABLE
  2
LAYER
  5
1
330
0
100
AcDbSymbolTable
 70
2
  0
LAYER
  5
27
330
1
100
AcDbSymbolTableRecord
100
AcDbLayerTableRecord
  2
0
 70
0
 62
7
  6
Continuous
370
-3
390
13
347
21
  0
LAYER
  5
28
330
1
100
AcDbSymbolTableRecord
100
AcDbLayerTableRecord
  2
Defpoints
 70
0
 62
7
  6
Continuous
290
0
370
-3
390
13
347
21
  0
ENDTAB
  0
TABLE
  2
STYLE
  5
5
330
0
100
AcDbSymbolTable
 70
1
  0
STYLE
  5
29
330
5
100
AcDbSymbolTableRecord
100
AcDbTextStyleTableRecord
  2
Standard
 70
0
 40
0.0
 41
1.0
 50
0.0
 71
0
 42
2.5
  3
txt
  4

  0
ENDTAB
  0
TABLE
  2
VIEW
  5
7
330
0
100
AcDbSymbolTable
 70
0
  0
ENDTAB
  0
TABLE
  2
UCS
  5
6
330
0
100
AcDbSymbolTable
 70
0
  0
ENDTAB
  0
TABLE
  2
APPID
  5
3
330
0
100
AcDbSymbolTable
 70
3
  0
APPID
  5
2A
330
3
100
AcDbSymbolTableRecord
100
AcDbRegAppTableRecord
  2
ACAD
 70
0
  0
APPID
  5
6A
330
3
100
AcDbSymbolTableRecord
100
AcDbRegAppTableRecord
  2
HATCHBACKGROUNDCOLOR
 70
0
  0
APPID
  5
6B
330
3
100
AcDbSymbolTableRecord
100
AcDbRegAppTableRecord
  2
EZDXF
 70
0
  0
ENDTAB
  0
TABLE
  2
DIMSTYLE
  5
4
330
0
100
AcDbSymbolTable
 70
1
100
AcDbDimStyleTable
  0
DIMSTYLE
105
2B
330
4
100
AcDbSymbolTableRecord
100
AcDbDimStyleTableRecord
  2
Standard
 70
0
 40
1.0
 41
2.5
 42
0.625
 43
3.75
 44
1.25
 45
0.0
 46
0.0
 47
0.0
 48
0.0
 49
2.5
140
2.5
141
2.5
142
0.0
143
0.03937007874
144
1.0
145
0.0
146
1.0
147
0.625
148
0.0
 69
0
 70
0
 71
0
 72
0
 73
0
 74
0
 75
0
 76
0
 77
1
 78
8
 79
3
170
0
171
3
172
1
173
0
174
0
175
0
176
0
177
0
178
0
179
2
271
2
272
2
273
2
274
3
275
0
276
0
277
2
278
44
279
0
280
0
281
0
282
0
283
0
284
8
285
0
286
0
288
0
289
3
290
0
371
-2
372
-2
  0
ENDTAB
  0
TABLE
  2
BLOCK_RECORD
  5
9
330
0
100
AcDbSymbolTable
 70
2
  0
BLOCK_RECORD
  5
17
330
9
100
AcDbSymbolTableRecord
100
AcDbBlockTableRecord
  2
*Model_Space
340
1A
 70
0
280
1
281
0
  0
BLOCK_RECORD
  5
1B
330
9
100
AcDbSymbolTableRecord
100
AcDbBlockTableRecord
  2
*Paper_Space
340
1E
 70
0
280
1
281
0
  0
ENDTAB
  0
ENDSEC
  0
SECTION
  2
BLOCKS
  0
BLOCK
  5
18
330
17
100
AcDbEntity
  8
0
100
AcDbBlockBegin
  2
*Model_Space
 70
0
 10
0.0
 20
0.0
 30
0.0
  3
*Model_Space
  1

  0
ENDBLK
  5
19
330
17
100
AcDbEntity
  8
0
100
AcDbBlockEnd
  0
BLOCK
  5
1C
330
1B
100
AcDbEntity
  8
0
100
AcDbBlockBegin
  2
*Paper_Space
 70
0
 10
0.0
 20
0.0
 30
0.0
  3
*Paper_Space
  1

  0
ENDBLK
  5
1D
330
1B
100
AcDbEntity
  8
0
100
AcDbBlockEnd
  0
ENDSEC
  0
SECTION
  2
ENTITIES
  0
LWPOLYLINE
  5
2F
330
17
100
AcDbEntity
  8
0
 62
0
100
AcDbPolyline
 90
15
 70
0
 10
0.0
 20
0.0
 10
0.0
 20
20.0
 10
10.11
 20
20.0
 10
10.11
 20
15.1
 10
19.89
 20
15.1
 10
19.89
 20
20.0
 10
30.11
 20
20.0
 10
30.11
 20
15.1
 10
39.89
 20
15.1
 10
39.89
 20
20.0
 10
50.11
 20
20.0
 10
50.11
 20
15.1
 10
60.0
 20
15.1
 10
60.0
 20
0.0
 10
0.0
 20
0.0
  0
LWPOLYLINE
  5
30
330
17
100
AcDbEntity
  8
0
 62
1
100
AcDbPolyline
 90
41
 70
0
 10
17.442
 20
11.12
 10
17.044
 20
11.414
 10
17.044
 20
11.668
 10
17.044
 20
11.932
 10
17.492
 20
12.304
 10
17.852
 20
12.304
 10
18.23
 20
12.304
 10
18.676000000000002
 20
11.916
 10
18.666
 20
11.638
 10
18.662
 20
11.626
 10
18.286
 20
11.626
 10
18.286
 20
11.767999999999999
 10
18.048000000000002
 20
11.994
 10
17.852
 20
11.994
 10
17.642
 20
11.994
 10
17.438000000000002
 20
11.809999999999999
 10
17.438000000000002
 20
11.68
 10
17.438000000000002
 20
11.552
 10
17.618000000000002
 20
11.404
 10
17.894
 20
11.346
 10
18.304000000000002
 20
11.258
 10
18.704
 20
10.956
 10
18.704
 20
10.702
 10
18.704
 20
10.414
 10
18.238
 20
10.058
 10
17.862000000000002
 20
10.058
 10
17.448
 20
10.058
 10
16.972
 20
10.478
 10
16.984
 20
10.758
 10
16.988
 20
10.77
 10
17.364
 20
10.77
 10
17.374000000000002
 20
10.56
 10
17.666
 20
10.366
 10
17.862000000000002
 20
10.366
 10
18.072000000000003
 20
10.366
 10
18.310000000000002
 20
10.536
 10
18.310000000000002
 20
10.674
 10
18.310000000000002
 20
10.804
 10
18.112000000000002
 20
10.972
 10
17.836
 20
11.033999999999999
 10
17.442
 20
11.12
  0
LWPOLYLINE
  5
31
330
17
100
AcDbEntity
  8
0
 62
1
100
AcDbPolyline
 90
24
 70
0
 10
6.372
 20
12.304
 10
6.748
 20
12.304
 10
7.186
 20
12.304
 10
7.634
 20
11.776
 10
7.634
 20
11.336
 10
7.634
 20
11.09
 10
6.23
 20
11.09
 10
6.224
 20
11.08
 10
6.23
 20
10.767999999999999
 10
6.534000000000001
 20
10.366
 10
6.808
 20
10.366
 10
7.008
 20
10.366
 10
7.3100000000000005
 20
10.48
 10
7.42
 20
10.58
 10
7.574
 20
10.324
 10
7.458
 20
10.209999999999999
 10
7.078
 20
10.058
 10
6.808
 20
10.058
 10
6.356
 20
10.058
 10
5.822
 20
10.66
 10
5.822
 20
11.14
 10
5.822
 20
11.228
 10
5.822
 20
11.69
 10
6.372
 20
12.304
  0
LWPOLYLINE
  5
32
330
17
100
AcDbEntity
  8
0
 62
1
100
AcDbPolyline
 90
10
 70
0
 10
7.24
 20
11.45
 10
7.24
 20
11.682
 10
6.992
 20
11.994
 10
6.748
 20
11.994
 10
6.550000000000001
 20
11.994
 10
6.27
 20
11.66
 10
6.2379999999999995
 20
11.408
 10
6.242
 20
11.398
 10
7.24
 20
11.398
 10
7.24
 20
11.45
  0
LWPOLYLINE
  5
33
330
17
100
AcDbEntity
  8
0
 62
1
100
AcDbPolyline
 90
24
 70
0
 10
15.504
 20
12.304
 10
15.88
 20
12.304
 10
16.317999999999998
 20
12.304
 10
16.766
 20
11.776
 10
16.766
 20
11.336
 10
16.766
 20
11.09
 10
15.362
 20
11.09
 10
15.356
 20
11.08
 10
15.362
 20
10.767999999999999
 10
15.666
 20
10.366
 10
15.94
 20
10.366
 10
16.14
 20
10.366
 10
16.442
 20
10.48
 10
16.552
 20
10.58
 10
16.706
 20
10.324
 10
16.59
 20
10.209999999999999
 10
16.21
 20
10.058
 10
15.94
 20
10.058
 10
15.488
 20
10.058
 10
14.954
 20
10.66
 10
14.954
 20
11.14
 10
14.954
 20
11.228
 10
14.954
 20
11.69
 10
15.504
 20
12.304
  0
LWPOLYLINE
  5
34
330
17
100
AcDbEntity
  8
0
 62
1
100
AcDbPolyline
 90
10
 70
0
 10
16.372
 20
11.45
 10
16.372
 20
11.682
 10
16.124000000000002
 20
11.994
 10
15.88
 20
11.994
 10
15.682
 20
11.994
 10
15.402000000000001
 20
11.66
 10
15.370000000000001
 20
11.408
 10
15.374
 20
11.398
 10
16.372
 20
11.398
 10
16.372
 20
11.45
  0
LWPOLYLINE
  5
35
330
17
100
AcDbEntity
  8
0
 62
1
100
AcDbPolyline
 90
5
 70
0
 10
32.99
 20
10.1
 10
32.99
 20
12.264
 10
33.384
 20
12.264
 10
33.384
 20
10.1
 10
32.99
 20
10.1
  0
LWPOLYLINE
  5
36
330
17
100
AcDbEntity
  8
0
 62
1
100
AcDbPolyline
 90
17
 70
0
 10
8.314
 20
10.1
 10
7.92
 20
10.1
 10
7.92
 20
12.264
 10
8.272
 20
12.264
 10
8.31
 20
11.948
 10
8.402000000000001
 20
12.116
 10
8.672
 20
12.304
 10
8.847999999999999
 20
12.304
 10
8.892
 20
12.304
 10
8.972000000000001
 20
12.29
 10
8.998000000000001
 20
12.282
 10
8.943999999999999
 20
11.916
 10
8.742
 20
11.927999999999999
 10
8.586
 20
11.927999999999999
 10
8.372
 20
11.78
 10
8.314
 20
11.645999999999999
 10
8.314
 20
10.1
  0
LWPOLYLINE
  5
37
330
17
100
AcDbEntity
  8
0
 62
1
100
AcDbPolyline
 90
5
 70
0
 10
26.408
 20
11.176
 10
26.408
 20
11.484
 10
27.388
 20
11.484
 10
27.388
 20
11.176
 10
26.408
 20
11.176
  0
LWPOLYLINE
  5
38
330
17
100
AcDbEntity
  8
0
 62
1
100
AcDbPolyline
 90
25
 70
0
 10
30.194
 20
11.972
 10
30.194
 20
10.658
 10
30.194
 20
10.506
 10
30.32
 20
10.382
 10
30.424
 20
10.382
 10
30.458000000000002
 20
10.382
 10
30.54
 20
10.398
 10
30.572
 20
10.41
 10
30.624000000000002
 20
10.139999999999999
 10
30.580000000000002
 20
10.104
 10
30.41
 20
10.058
 10
30.324
 20
10.058
 10
30.084
 20
10.058
 10
29.8
 20
10.347999999999999
 10
29.8
 20
10.658
 10
29.8
 20
11.972
 10
29.456
 20
11.972
 10
29.456
 20
12.264
 10
29.8
 20
12.264
 10
29.8
 20
12.786
 10
30.194
 20
12.786
 10
30.194
 20
12.264
 10
30.604
 20
12.264
 10
30.604
 20
11.972
 10
30.194
 20
11.972
  0
LWPOLYLINE
  5
39
330
17
100
AcDbEntity
  8
0
 62
1
100
AcDbPolyline
 90
25
 70
0
 10
19.51
 20
10.658
 10
19.51
 20
10.506
 10
19.636
 20
10.382
 10
19.740000000000002
 20
10.382
 10
19.774
 20
10.382
 10
19.856
 20
10.398
 10
19.888
 20
10.41
 10
19.94
 20
10.139999999999999
 10
19.896
 20
10.104
 10
19.726
 20
10.058
 10
19.64
 20
10.058
 10
19.4
 20
10.058
 10
19.116
 20
10.347999999999999
 10
19.116
 20
10.658
 10
19.116
 20
11.972
 10
18.772
 20
11.972
 10
18.772
 20
12.264
 10
19.116
 20
12.264
 10
19.116
 20
12.786
 10
19.51
 20
12.786
 10
19.51
 20
12.264
 10
19.92
 20
12.264
 10
19.92
 20
11.972
 10
19.51
 20
11.972
 10
19.51
 20
10.658
  0
LWPOLYLINE
  5
3A
330
17
100
AcDbEntity
  8
0
 62
1
100
AcDbPolyline
 90
16
 70
0
 10
23.974
 20
11.724
 10
23.772000000000002
 20
11.65
 10
24.036
 20
11.594
 10
24.338
 20
11.19
 10
24.338
 20
10.922
 10
24.338
 20
10.522
 10
23.82
 20
10.1
 10
23.376
 20
10.1
 10
22.3
 20
10.1
 10
22.3
 20
13.012
 10
23.25
 20
13.012
 10
23.706
 20
13.012
 10
24.222
 20
12.618
 10
24.222
 20
12.224
 10
24.222
 20
12.03
 10
23.974
 20
11.724
  0
LWPOLYLINE
  5
3B
330
17
100
AcDbEntity
  8
0
 62
1
100
AcDbPolyline
 90
10
 70
0
 10
23.694
 20
11.466
 10
23.434
 20
11.466
 10
22.694
 20
11.466
 10
22.694
 20
10.408
 10
23.376
 20
10.408
 10
23.644000000000002
 20
10.408
 10
23.944
 20
10.674
 10
23.944
 20
10.918
 10
23.944
 20
11.174
 10
23.694
 20
11.466
  0
LWPOLYLINE
  5
3C
330
17
100
AcDbEntity
  8
0
 62
1
100
AcDbPolyline
 90
10
 70
0
 10
23.53
 20
12.702
 10
23.25
 20
12.702
 10
22.694
 20
12.702
 10
22.694
 20
11.774
 10
23.332
 20
11.774
 10
23.552
 20
11.774
 10
23.828
 20
12.016
 10
23.828
 20
12.232
 10
23.828
 20
12.468
 10
23.53
 20
12.702
  0
LWPOLYLINE
  5
3D
330
17
100
AcDbEntity
  8
0
 62
1
100
AcDbPolyline
 90
9
 70
0
 10
13.426
 20
12.702
 10
12.492
 20
12.702
 10
12.492
 20
13.012
 10
14.756
 20
13.012
 10
14.756
 20
12.702
 10
13.82
 20
12.702
 10
13.82
 20
10.1
 10
13.426
 20
10.1
 10
13.426
 20
12.702
  0
LWPOLYLINE
  5
3E
330
17
100
AcDbEntity
  8
0
 62
1
100
AcDbPolyline
 90
16
 70
0
 10
3.754
 20
13.012
 10
3.754
 20
11.724
 10
4.058
 20
11.724
 10
5.1
 20
13.012
 10
5.536
 20
13.012
 10
5.542
 20
13.001999999999999
 10
4.412
 20
11.604
 10
5.6240000000000006
 20
10.11
 10
5.618
 20
10.1
 10
5.148
 20
10.1
 10
4.094
 20
11.414
 10
3.754
 20
11.414
 10
3.754
 20
10.1
 10
3.36
 20
10.1
 10
3.36
 20
13.012
 10
3.754
 20
13.012
  0
LWPOLYLINE
  5
3F
330
17
100
AcDbEntity
  8
0
 62
1
100
AcDbPolyline
 90
21
 70
0
 10
32.672
 20
11.888
 10
32.672
 20
11.456
 10
32.672
 20
10.1
 10
32.278000000000006
 20
10.1
 10
32.278000000000006
 20
11.459999999999999
 10
32.278000000000006
 20
11.728
 10
32.048
 20
11.984
 10
31.82
 20
11.984
 10
31.656000000000002
 20
11.984
 10
31.39
 20
11.83
 10
31.304000000000002
 20
11.698
 10
31.304000000000002
 20
10.1
 10
30.91
 20
10.1
 10
30.91
 20
13.219999999999999
 10
31.304000000000002
 20
13.219999999999999
 10
31.304000000000002
 20
11.974
 10
31.416
 20
12.129999999999999
 10
31.742
 20
12.304
 10
31.94
 20
12.304
 10
32.286
 20
12.304
 10
32.672
 20
11.888
  0
LWPOLYLINE
  5
40
330
17
100
AcDbEntity
  8
0
 62
1
100
AcDbPolyline
 90
25
 70
0
 10
9.448
 20
12.264
 10
9.448
 20
12.538
 10
9.448
 20
12.884
 10
9.81
 20
13.262
 10
10.134
 20
13.262
 10
10.202
 20
13.262
 10
10.34
 20
13.24
 10
10.424
 20
13.219999999999999
 10
10.376000000000001
 20
12.92
 10
10.34
 20
12.927999999999999
 10
10.238
 20
12.94
 10
10.182
 20
12.94
 10
10.01
 20
12.94
 10
9.842
 20
12.734
 10
9.842
 20
12.538
 10
9.842
 20
12.264
 10
10.292
 20
12.264
 10
10.292
 20
11.972
 10
9.842
 20
11.972
 10
9.842
 20
10.1
 10
9.448
 20
10.1
 10
9.448
 20
11.972
 10
9.11
 20
11.972
 10
9.11
 20
12.264
 10
9.448
 20
12.264
  0
LWPOLYLINE
  5
41
330
17
100
AcDbEntity
  8
0
 62
1
100
AcDbPolyline
 90
5
 70
0
 10
45.766
 20
10.504
 10
46.160000000000004
 20
10.504
 10
46.160000000000004
 20
10.1
 10
45.766
 20
10.1
 10
45.766
 20
10.504
  0
LWPOLYLINE
  5
42
330
17
100
AcDbEntity
  8
0
 62
1
100
AcDbPolyline
 90
5
 70
0
 10
50.694
 20
10.1
 10
50.694
 20
10.504
 10
51.088
 20
10.504
 10
51.088
 20
10.1
 10
50.694
 20
10.1
  0
LWPOLYLINE
  5
43
330
17
100
AcDbEntity
  8
0
 62
1
100
AcDbPolyline
 90
31
 70
0
 10
35.398
 20
10.783999999999999
 10
35.402
 20
10.772
 10
35.412
 20
10.491999999999999
 10
34.894000000000005
 20
10.058
 10
34.55
 20
10.058
 10
34.078
 20
10.058
 10
33.578
 20
10.674
 10
33.578
 20
11.14
 10
33.578
 20
11.224
 10
33.578
 20
11.686
 10
34.08
 20
12.304
 10
34.55
 20
12.304
 10
34.93
 20
12.304
 10
35.412
 20
11.856
 10
35.404
 20
11.53
 10
35.4
 20
11.517999999999999
 10
35.044000000000004
 20
11.517999999999999
 10
35.044000000000004
 20
11.716
 10
34.763999999999996
 20
11.994
 10
34.55
 20
11.994
 10
34.24
 20
11.994
 10
33.974000000000004
 20
11.548
 10
33.974000000000004
 20
11.224
 10
33.974000000000004
 20
11.14
 10
33.974000000000004
 20
10.808
 10
34.238
 20
10.366
 10
34.55
 20
10.366
 10
34.746
 20
10.366
 10
35.044000000000004
 20
10.608
 10
35.044000000000004
 20
10.783999999999999
 10
35.398
 20
10.783999999999999
  0
LWPOLYLINE
  5
44
330
17
100
AcDbEntity
  8
0
 62
1
100
AcDbPolyline
 90
41
 70
0
 10
43.784
 20
11.414
 10
43.784
 20
11.668
 10
43.784
 20
11.932
 10
44.232
 20
12.304
 10
44.592
 20
12.304
 10
44.97
 20
12.304
 10
45.416000000000004
 20
11.916
 10
45.406
 20
11.638
 10
45.402
 20
11.626
 10
45.026
 20
11.626
 10
45.026
 20
11.767999999999999
 10
44.788000000000004
 20
11.994
 10
44.592
 20
11.994
 10
44.382
 20
11.994
 10
44.178000000000004
 20
11.809999999999999
 10
44.178000000000004
 20
11.68
 10
44.178000000000004
 20
11.552
 10
44.358000000000004
 20
11.404
 10
44.634
 20
11.346
 10
45.044000000000004
 20
11.258
 10
45.444
 20
10.956
 10
45.444
 20
10.702
 10
45.444
 20
10.414
 10
44.978
 20
10.058
 10
44.602000000000004
 20
10.058
 10
44.188
 20
10.058
 10
43.712
 20
10.478
 10
43.724000000000004
 20
10.758
 10
43.728
 20
10.77
 10
44.104
 20
10.77
 10
44.114000000000004
 20
10.56
 10
44.406
 20
10.366
 10
44.602000000000004
 20
10.366
 10
44.812
 20
10.366
 10
45.050000000000004
 20
10.536
 10
45.050000000000004
 20
10.674
 10
45.050000000000004
 20
10.804
 10
44.852000000000004
 20
10.972
 10
44.576
 20
11.033999999999999
 10
44.182
 20
11.12
 10
43.784
 20
11.414
  0
LWPOLYLINE
  5
45
330
17
100
AcDbEntity
  8
0
 62
1
100
AcDbPolyline
 90
24
 70
0
 10
40.306
 20
12.304
 10
40.682
 20
12.304
 10
41.12
 20
12.304
 10
41.568
 20
11.776
 10
41.568
 20
11.336
 10
41.568
 20
11.09
 10
40.164
 20
11.09
 10
40.158
 20
11.08
 10
40.164
 20
10.767999999999999
 10
40.468
 20
10.366
 10
40.742
 20
10.366
 10
40.942
 20
10.366
 10
41.244
 20
10.48
 10
41.354
 20
10.58
 10
41.508
 20
10.324
 10
41.392
 20
10.209999999999999
 10
41.012
 20
10.058
 10
40.742
 20
10.058
 10
40.29
 20
10.058
 10
39.756
 20
10.66
 10
39.756
 20
11.14
 10
39.756
 20
11.228
 10
39.756
 20
11.69
 10
40.306
 20
12.304
  0
LWPOLYLINE
  5
46
330
17
100
AcDbEntity
  8
0
 62
1
100
AcDbPolyline
 90
10
 70
0
 10
41.174
 20
11.45
 10
41.174
 20
11.682
 10
40.926
 20
11.994
 10
40.682
 20
11.994
 10
40.484
 20
11.994
 10
40.204
 20
11.66
 10
40.172000000000004
 20
11.408
 10
40.176
 20
11.398
 10
41.174
 20
11.398
 10
41.174
 20
11.45
  0
LWPOLYLINE
  5
47
330
17
100
AcDbEntity
  8
0
 62
1
100
AcDbPolyline
 90
41
 70
0
 10
42.244
 20
11.12
 10
41.846000000000004
 20
11.414
 10
41.846000000000004
 20
11.668
 10
41.846000000000004
 20
11.932
 10
42.294000000000004
 20
12.304
 10
42.654
 20
12.304
 10
43.032000000000004
 20
12.304
 10
43.478
 20
11.916
 10
43.468
 20
11.638
 10
43.464
 20
11.626
 10
43.088
 20
11.626
 10
43.088
 20
11.767999999999999
 10
42.85
 20
11.994
 10
42.654
 20
11.994
 10
42.444
 20
11.994
 10
42.24
 20
11.809999999999999
 10
42.24
 20
11.68
 10
42.24
 20
11.552
 10
42.42
 20
11.404
 10
42.696
 20
11.346
 10
43.106
 20
11.258
 10
43.506
 20
10.956
 10
43.506
 20
10.702
 10
43.506
 20
10.414
 10
43.04
 20
10.058
 10
42.664
 20
10.058
 10
42.25
 20
10.058
 10
41.774
 20
10.478
 10
41.786
 20
10.758
 10
41.79
 20
10.77
 10
42.166000000000004
 20
10.77
 10
42.176
 20
10.56
 10
42.468
 20
10.366
 10
42.664
 20
10.366
 10
42.874
 20
10.366
 10
43.112
 20
10.536
 10
43.112
 20
10.674
 10
43.112
 20
10.804
 10
42.914
 20
10.972
 10
42.638
 20
11.033999999999999
 10
42.244
 20
11.12
  0
LWPOLYLINE
  5
48
330
17
100
AcDbEntity
  8
0
 62
1
100
AcDbPolyline
 90
21
 70
0
 10
39.174
 20
12.304
 10
39.558
 20
11.894
 10
39.558
 20
11.466
 10
39.558
 20
10.1
 10
39.164
 20
10.1
 10
39.164
 20
11.458
 10
39.164
 20
11.744
 10
38.938
 20
11.984
 10
38.706
 20
11.984
 10
38.536
 20
11.984
 10
38.274
 20
11.82
 10
38.196
 20
11.677999999999999
 10
38.196
 20
10.1
 10
37.802
 20
10.1
 10
37.802
 20
12.264
 10
38.154
 20
12.264
 10
38.182
 20
11.942
 10
38.29
 20
12.114
 10
38.616
 20
12.304
 10
38.824
 20
12.304
 10
39.174
 20
12.304
  0
LWPOLYLINE
  5
49
330
17
100
AcDbEntity
  8
0
 62
1
100
AcDbPolyline
 90
28
 70
0
 10
52.352000000000004
 20
11.076
 10
52.172000000000004
 20
11.076
 10
51.75
 20
11.076
 10
51.254
 20
11.597999999999999
 10
51.254
 20
12.056
 10
51.254
 20
12.494
 10
51.78
 20
13.054
 10
52.156
 20
13.054
 10
52.612
 20
13.054
 10
53.138
 20
12.484
 10
53.138
 20
11.93
 10
53.138
 20
11.236
 10
53.138
 20
10.666
 10
52.568
 20
10.058
 10
52.11
 20
10.058
 10
51.956
 20
10.058
 10
51.638
 20
10.116
 10
51.512
 20
10.176
 10
51.572
 20
10.478
 10
51.69
 20
10.416
 10
51.944
 20
10.366
 10
52.11
 20
10.366
 10
52.398
 20
10.366
 10
52.744
 20
10.802
 10
52.744
 20
11.232
 10
52.744
 20
11.363999999999999
 10
52.646
 20
11.222
 10
52.352000000000004
 20
11.076
  0
LWPOLYLINE
  5
4A
330
17
100
AcDbEntity
  8
0
 62
1
100
AcDbPolyline
 90
14
 70
0
 10
52.45
 20
12.744
 10
52.168
 20
12.744
 10
51.952
 20
12.744
 10
51.648
 20
12.358
 10
51.648
 20
12.056
 10
51.648
 20
11.756
 10
51.93
 20
11.384
 10
52.172000000000004
 20
11.384
 10
52.39
 20
11.384
 10
52.68
 20
11.572
 10
52.744
 20
11.718
 10
52.744
 20
11.969999999999999
 10
52.744
 20
12.352
 10
52.45
 20
12.744
  0
LWPOLYLINE
  5
4B
330
17
100
AcDbEntity
  8
0
 62
1
100
AcDbPolyline
 90
12
 70
0
 10
49.578
 20
10.772
 10
48.27
 20
10.772
 10
48.27
 20
10.994
 10
49.554
 20
13.012
 10
49.97
 20
13.012
 10
49.97
 20
11.08
 10
50.372
 20
11.08
 10
50.372
 20
10.772
 10
49.97
 20
10.772
 10
49.97
 20
10.1
 10
49.578
 20
10.1
 10
49.578
 20
10.772
  0
LWPOLYLINE
  5
4C
330
17
100
AcDbEntity
  8
0
 62
1
100
AcDbPolyline
 90
6
 70
0
 10
49.578
 20
11.08
 10
49.578
 20
12.446
 10
49.566
 20
12.448
 10
49.528
 20
12.347999999999999
 10
48.69
 20
11.08
 10
49.578
 20
11.08
  0
LWPOLYLINE
  5
4D
330
17
100
AcDbEntity
  8
0
 62
1
100
AcDbPolyline
 90
14
 70
0
 10
36.094
 20
13.219999999999999
 10
36.094
 20
11.411999999999999
 10
36.346000000000004
 20
11.411999999999999
 10
36.938
 20
12.264
 10
37.410000000000004
 20
12.264
 10
36.67
 20
11.28
 10
37.516
 20
10.1
 10
37.052
 20
10.1
 10
36.35
 20
11.097999999999999
 10
36.094
 20
11.097999999999999
 10
36.094
 20
10.1
 10
35.7
 20
10.1
 10
35.7
 20
13.219999999999999
 10
36.094
 20
13.219999999999999
  0
LWPOLYLINE
  5
4E
330
17
100
AcDbEntity
  8
0
 62
1
100
AcDbPolyline
 90
5
 70
0
 10
45.766
 20
12.256
 10
46.160000000000004
 20
12.256
 10
46.160000000000004
 20
11.852
 10
45.766
 20
11.852
 10
45.766
 20
12.256
  0
LWPOLYLINE
  5
4F
330
17
100
AcDbEntity
  8
0
 62
1
100
AcDbPolyline
 90
5
 70
0
 10
32.99
 20
13.219999999999999
 10
33.384
 20
13.219999999999999
 10
33.384
 20
12.818
 10
32.99
 20
12.818
 10
32.99
 20
13.219999999999999
  0
LWPOLYLINE
  5
50
330
17
100
AcDbEntity
  8
0
 62
1
100
AcDbPolyline
 90
17
 70
0
 10
15.98
 20
2.2259999999999995
 10
15.878
 20
2.2439999999999998
 10
15.82
 20
2.2619999999999996
 10
15.848
 20
2.5719999999999996
 10
15.876
 20
2.5619999999999994
 10
15.98
 20
2.5479999999999996
 10
16.014000000000003
 20
2.5479999999999996
 10
16.144
 20
2.5479999999999996
 10
16.298000000000002
 20
2.7239999999999998
 10
16.298000000000002
 20
2.9219999999999997
 10
16.298000000000002
 20
5.263999999999999
 10
16.692
 20
5.263999999999999
 10
16.692
 20
2.9219999999999997
 10
16.692
 20
2.5879999999999996
 10
16.348
 20
2.2259999999999995
 10
16.042
 20
2.2259999999999995
 10
15.98
 20
2.2259999999999995
  0
LWPOLYLINE
  5
51
330
17
100
AcDbEntity
  8
0
 62
1
100
AcDbPolyline
 90
21
 70
0
 10
17.366
 20
3.058
 10
16.97
 20
3.51
 10
16.97
 20
3.9879999999999995
 10
16.97
 20
5.263999999999999
 10
17.364
 20
5.263999999999999
 10
17.364
 20
3.9839999999999995
 10
17.364
 20
3.638
 10
17.567999999999998
 20
3.3779999999999997
 10
17.784
 20
3.3779999999999997
 10
17.994
 20
3.3779999999999997
 10
18.268
 20
3.5479999999999996
 10
18.338
 20
3.7039999999999997
 10
18.338
 20
5.263999999999999
 10
18.732
 20
5.263999999999999
 10
18.732
 20
3.0999999999999996
 10
18.378
 20
3.0999999999999996
 10
18.352
 20
3.4199999999999995
 10
18.25
 20
3.2459999999999996
 10
17.93
 20
3.058
 10
17.72
 20
3.058
 10
17.366
 20
3.058
  0
LWPOLYLINE
  5
52
330
17
100
AcDbEntity
  8
0
 62
1
100
AcDbPolyline
 90
41
 70
0
 10
19.408
 20
4.119999999999999
 10
19.01
 20
4.414
 10
19.01
 20
4.667999999999999
 10
19.01
 20
4.9319999999999995
 10
19.458000000000002
 20
5.304
 10
19.818
 20
5.304
 10
20.196
 20
5.304
 10
20.642
 20
4.9159999999999995
 10
20.632
 20
4.638
 10
20.628
 20
4.6259999999999994
 10
20.252
 20
4.6259999999999994
 10
20.252
 20
4.768
 10
20.014
 20
4.994
 10
19.818
 20
4.994
 10
19.608
 20
4.994
 10
19.404
 20
4.81
 10
19.404
 20
4.68
 10
19.404
 20
4.552
 10
19.584
 20
4.404
 10
19.86
 20
4.346
 10
20.27
 20
4.257999999999999
 10
20.67
 20
3.9559999999999995
 10
20.67
 20
3.7019999999999995
 10
20.67
 20
3.4139999999999997
 10
20.204
 20
3.058
 10
19.828
 20
3.058
 10
19.414
 20
3.058
 10
18.938000000000002
 20
3.4779999999999998
 10
18.950000000000003
 20
3.7579999999999996
 10
18.954
 20
3.7699999999999996
 10
19.330000000000002
 20
3.7699999999999996
 10
19.34
 20
3.5599999999999996
 10
19.632
 20
3.3659999999999997
 10
19.828
 20
3.3659999999999997
 10
20.038
 20
3.3659999999999997
 10
20.276
 20
3.5359999999999996
 10
20.276
 20
3.6739999999999995
 10
20.276
 20
3.8039999999999994
 10
20.078
 20
3.9719999999999995
 10
19.802
 20
4.034
 10
19.408
 20
4.119999999999999
  0
LWPOLYLINE
  5
53
330
17
100
AcDbEntity
  8
0
 62
1
100
AcDbPolyline
 90
34
 70
0
 10
12.808
 20
3.058
 10
12.47
 20
3.058
 10
12.116
 20
3.4039999999999995
 10
12.116
 20
3.7079999999999997
 10
12.116
 20
4.018
 10
12.618
 20
4.367999999999999
 10
13.048
 20
4.367999999999999
 10
13.476
 20
4.367999999999999
 10
13.476
 20
4.582
 10
13.476
 20
4.771999999999999
 10
13.244
 20
4.994
 10
13.032
 20
4.994
 10
12.842
 20
4.994
 10
12.604000000000001
 20
4.8
 10
12.604000000000001
 20
4.664
 10
12.228
 20
4.664
 10
12.224
 20
4.676
 10
12.212
 20
4.912
 10
12.682
 20
5.304
 10
13.054
 20
5.304
 10
13.422
 20
5.304
 10
13.870000000000001
 20
4.93
 10
13.870000000000001
 20
4.577999999999999
 10
13.870000000000001
 20
3.5359999999999996
 10
13.870000000000001
 20
3.4199999999999995
 10
13.894
 20
3.2039999999999997
 10
13.926
 20
3.0999999999999996
 10
13.52
 20
3.0999999999999996
 10
13.5
 20
3.1979999999999995
 10
13.478
 20
3.348
 10
13.476
 20
3.4239999999999995
 10
13.366
 20
3.268
 10
13.012
 20
3.058
 10
12.808
 20
3.058
  0
LWPOLYLINE
  5
54
330
17
100
AcDbEntity
  8
0
 62
1
100
AcDbPolyline
 90
12
 70
0
 10
12.796
 20
4.101999999999999
 10
12.51
 20
3.8619999999999997
 10
12.51
 20
3.6999999999999997
 10
12.51
 20
3.5559999999999996
 10
12.69
 20
3.388
 10
12.866
 20
3.388
 10
13.08
 20
3.388
 10
13.424
 20
3.6079999999999997
 10
13.476
 20
3.7499999999999996
 10
13.476
 20
4.101999999999999
 10
13.034
 20
4.101999999999999
 10
12.796
 20
4.101999999999999
  0
LWPOLYLINE
  5
55
330
17
100
AcDbEntity
  8
0
 62
1
100
AcDbPolyline
 90
24
 70
0
 10
5.852
 20
5.304
 10
6.228
 20
5.304
 10
6.666
 20
5.304
 10
7.114
 20
4.776
 10
7.114
 20
4.335999999999999
 10
7.114
 20
4.09
 10
5.71
 20
4.09
 10
5.704000000000001
 20
4.08
 10
5.71
 20
3.768
 10
6.014
 20
3.3659999999999997
 10
6.288
 20
3.3659999999999997
 10
6.4879999999999995
 20
3.3659999999999997
 10
6.79
 20
3.4799999999999995
 10
6.9
 20
3.5799999999999996
 10
7.054
 20
3.324
 10
6.938000000000001
 20
3.2099999999999995
 10
6.558
 20
3.058
 10
6.288
 20
3.058
 10
5.836
 20
3.058
 10
5.302
 20
3.6599999999999997
 10
5.302
 20
4.14
 10
5.302
 20
4.228
 10
5.302
 20
4.6899999999999995
 10
5.852
 20
5.304
  0
LWPOLYLINE
  5
56
330
17
100
AcDbEntity
  8
0
 62
1
100
AcDbPolyline
 90
10
 70
0
 10
6.720000000000001
 20
4.449999999999999
 10
6.720000000000001
 20
4.6819999999999995
 10
6.4719999999999995
 20
4.994
 10
6.228
 20
4.994
 10
6.03
 20
4.994
 10
5.75
 20
4.66
 10
5.718
 20
4.4079999999999995
 10
5.7219999999999995
 20
4.398
 10
6.720000000000001
 20
4.398
 10
6.720000000000001
 20
4.449999999999999
  0
LWPOLYLINE
  5
57
330
17
100
AcDbEntity
  8
0
 62
1
100
AcDbPolyline
 90
17
 70
0
 10
7.7940000000000005
 20
4.646
 10
7.7940000000000005
 20
3.0999999999999996
 10
7.4
 20
3.0999999999999996
 10
7.4
 20
5.263999999999999
 10
7.752
 20
5.263999999999999
 10
7.79
 20
4.9479999999999995
 10
7.882
 20
5.116
 10
8.152000000000001
 20
5.304
 10
8.328
 20
5.304
 10
8.372
 20
5.304
 10
8.452
 20
5.289999999999999
 10
8.478
 20
5.282
 10
8.424
 20
4.9159999999999995
 10
8.222000000000001
 20
4.928
 10
8.065999999999999
 20
4.928
 10
7.852
 20
4.779999999999999
 10
7.7940000000000005
 20
4.646
  0
LWPOLYLINE
  5
58
330
17
100
AcDbEntity
  8
0
 62
1
100
AcDbPolyline
 90
25
 70
0
 10
21.476
 20
4.9719999999999995
 10
21.476
 20
3.6579999999999995
 10
21.476
 20
3.506
 10
21.602
 20
3.3819999999999997
 10
21.706
 20
3.3819999999999997
 10
21.740000000000002
 20
3.3819999999999997
 10
21.822
 20
3.3979999999999997
 10
21.854
 20
3.4099999999999997
 10
21.906
 20
3.1399999999999997
 10
21.862000000000002
 20
3.1039999999999996
 10
21.692
 20
3.058
 10
21.606
 20
3.058
 10
21.366
 20
3.058
 10
21.082
 20
3.348
 10
21.082
 20
3.6579999999999995
 10
21.082
 20
4.9719999999999995
 10
20.738
 20
4.9719999999999995
 10
20.738
 20
5.263999999999999
 10
21.082
 20
5.263999999999999
 10
21.082
 20
5.786
 10
21.476
 20
5.786
 10
21.476
 20
5.263999999999999
 10
21.886
 20
5.263999999999999
 10
21.886
 20
4.9719999999999995
 10
21.476
 20
4.9719999999999995
  0
LWPOLYLINE
  5
59
330
17
100
AcDbEntity
  8
0
 62
1
100
AcDbPolyline
 90
19
 70
0
 10
15.454
 20
5.164
 10
15.558
 20
5.029999999999999
 10
15.558
 20
6.22
 10
15.952
 20
6.22
 10
15.952
 20
3.0999999999999996
 10
15.63
 20
3.0999999999999996
 10
15.584
 20
3.3659999999999997
 10
15.478
 20
3.2139999999999995
 10
15.17
 20
3.058
 10
14.966000000000001
 20
3.058
 10
14.57
 20
3.058
 10
14.122
 20
3.6319999999999997
 10
14.122
 20
4.1
 10
14.122
 20
4.1419999999999995
 10
14.122
 20
4.664
 10
14.568
 20
5.304
 10
14.97
 20
5.304
 10
15.16
 20
5.304
 10
15.454
 20
5.164
  0
LWPOLYLINE
  5
5A
330
17
100
AcDbEntity
  8
0
 62
1
100
AcDbPolyline
 90
15
 70
0
 10
15.482000000000001
 20
3.538
 10
15.558
 20
3.6819999999999995
 10
15.558
 20
4.692
 10
15.482000000000001
 20
4.826
 10
15.24
 20
4.984
 10
15.07
 20
4.984
 10
14.786
 20
4.984
 10
14.516
 20
4.516
 10
14.516
 20
4.1419999999999995
 10
14.516
 20
4.1
 10
14.516
 20
3.772
 10
14.784
 20
3.3779999999999997
 10
15.066
 20
3.3779999999999997
 10
15.242
 20
3.3779999999999997
 10
15.482000000000001
 20
3.538
  0
LWPOLYLINE
  5
5B
330
17
100
AcDbEntity
  8
0
 62
1
100
AcDbPolyline
 90
14
 70
0
 10
3.682
 20
6.22
 10
3.682
 20
4.412
 10
3.934
 20
4.412
 10
4.526
 20
5.263999999999999
 10
4.998
 20
5.263999999999999
 10
4.258
 20
4.279999999999999
 10
5.104
 20
3.0999999999999996
 10
4.640000000000001
 20
3.0999999999999996
 10
3.938
 20
4.098
 10
3.682
 20
4.098
 10
3.682
 20
3.0999999999999996
 10
3.2880000000000003
 20
3.0999999999999996
 10
3.2880000000000003
 20
6.22
 10
3.682
 20
6.22
  0
LWPOLYLINE
  5
5C
330
17
100
AcDbEntity
  8
0
 62
1
100
AcDbPolyline
 90
25
 70
0
 10
8.928
 20
5.538
 10
8.928
 20
5.884
 10
9.29
 20
6.262
 10
9.614
 20
6.262
 10
9.682
 20
6.262
 10
9.82
 20
6.24
 10
9.904
 20
6.22
 10
9.856
 20
5.92
 10
9.82
 20
5.927999999999999
 10
9.718
 20
5.9399999999999995
 10
9.661999999999999
 20
5.9399999999999995
 10
9.49
 20
5.9399999999999995
 10
9.322
 20
5.734
 10
9.322
 20
5.538
 10
9.322
 20
5.263999999999999
 10
9.772
 20
5.263999999999999
 10
9.772
 20
4.9719999999999995
 10
9.322
 20
4.9719999999999995
 10
9.322
 20
3.0999999999999996
 10
8.928
 20
3.0999999999999996
 10
8.928
 20
4.9719999999999995
 10
8.59
 20
4.9719999999999995
 10
8.59
 20
5.263999999999999
 10
8.928
 20
5.263999999999999
 10
8.928
 20
5.538
  0
LWPOLYLINE
  5
5D
330
17
100
AcDbEntity
  8
0
 62
1
100
AcDbPolyline
 90
5
 70
0
 10
16.286
 20
5.826
 10
16.286
 20
6.22
 10
16.68
 20
6.22
 10
16.68
 20
5.826
 10
16.286
 20
5.826
  0
LWPOLYLINE
  5
5E
330
17
100
AcDbEntity
  8
0
 62
1
100
AcDbPolyline
 90
5
 70
0
 10
30.810000000000002
 20
3.0999999999999996
 10
30.810000000000002
 20
3.5039999999999996
 10
31.204
 20
3.5039999999999996
 10
31.204
 20
3.0999999999999996
 10
30.810000000000002
 20
3.0999999999999996
  0
LWPOLYLINE
  5
5F
330
17
100
AcDbEntity
  8
0
 62
1
100
AcDbPolyline
 90
5
 70
0
 10
36.0
 20
3.0999999999999996
 10
35.606
 20
3.0999999999999996
 10
35.606
 20
3.5039999999999996
 10
36.0
 20
3.5039999999999996
 10
36.0
 20
3.0999999999999996
  0
LWPOLYLINE
  5
60
330
17
100
AcDbEntity
  8
0
 62
1
100
AcDbPolyline
 90
24
 70
0
 10
25.948
 20
5.304
 10
26.324
 20
5.304
 10
26.762
 20
5.304
 10
27.21
 20
4.776
 10
27.21
 20
4.335999999999999
 10
27.21
 20
4.09
 10
25.806
 20
4.09
 10
25.8
 20
4.08
 10
25.806
 20
3.768
 10
26.11
 20
3.3659999999999997
 10
26.384
 20
3.3659999999999997
 10
26.584
 20
3.3659999999999997
 10
26.886
 20
3.4799999999999995
 10
26.996000000000002
 20
3.5799999999999996
 10
27.150000000000002
 20
3.324
 10
27.034
 20
3.2099999999999995
 10
26.654
 20
3.058
 10
26.384
 20
3.058
 10
25.932000000000002
 20
3.058
 10
25.398
 20
3.6599999999999997
 10
25.398
 20
4.14
 10
25.398
 20
4.228
 10
25.398
 20
4.6899999999999995
 10
25.948
 20
5.304
  0
LWPOLYLINE
  5
61
330
17
100
AcDbEntity
  8
0
 62
1
100
AcDbPolyline
 90
10
 70
0
 10
26.816
 20
4.449999999999999
 10
26.816
 20
4.6819999999999995
 10
26.568
 20
4.994
 10
26.324
 20
4.994
 10
26.126
 20
4.994
 10
25.846
 20
4.66
 10
25.814
 20
4.4079999999999995
 10
25.818
 20
4.398
 10
26.816
 20
4.398
 10
26.816
 20
4.449999999999999
  0
LWPOLYLINE
  5
62
330
17
100
AcDbEntity
  8
0
 62
1
100
AcDbPolyline
 90
37
 70
0
 10
23.436
 20
5.304
 10
23.746
 20
5.103999999999999
 10
23.824
 20
4.904
 10
23.926000000000002
 20
5.087999999999999
 10
24.262
 20
5.304
 10
24.486
 20
5.304
 10
24.816
 20
5.304
 10
25.2
 20
4.85
 10
25.2
 20
4.394
 10
25.2
 20
3.0999999999999996
 10
24.806
 20
3.0999999999999996
 10
24.806
 20
4.398
 10
24.806
 20
4.718
 10
24.586000000000002
 20
4.984
 10
24.368000000000002
 20
4.984
 10
24.166
 20
4.984
 10
23.916
 20
4.704
 10
23.894000000000002
 20
4.49
 10
23.894000000000002
 20
4.474
 10
23.894000000000002
 20
3.0999999999999996
 10
23.498
 20
3.0999999999999996
 10
23.498
 20
4.398
 10
23.498
 20
4.702
 10
23.272000000000002
 20
4.984
 10
23.06
 20
4.984
 10
22.88
 20
4.984
 10
22.648
 20
4.835999999999999
 10
22.586000000000002
 20
4.702
 10
22.586000000000002
 20
3.0999999999999996
 10
22.192
 20
3.0999999999999996
 10
22.192
 20
5.263999999999999
 10
22.544
 20
5.263999999999999
 10
22.572
 20
4.9799999999999995
 10
22.678
 20
5.134
 10
23.004
 20
5.304
 10
23.22
 20
5.304
 10
23.436
 20
5.304
  0
LWPOLYLINE
  5
63
330
17
100
AcDbEntity
  8
0
 62
1
100
AcDbPolyline
 90
21
 70
0
 10
28.518
 20
5.304
 10
28.868000000000002
 20
5.304
 10
29.252
 20
4.894
 10
29.252
 20
4.465999999999999
 10
29.252
 20
3.0999999999999996
 10
28.858
 20
3.0999999999999996
 10
28.858
 20
4.458
 10
28.858
 20
4.744
 10
28.632
 20
4.984
 10
28.400000000000002
 20
4.984
 10
28.23
 20
4.984
 10
27.968
 20
4.819999999999999
 10
27.89
 20
4.678
 10
27.89
 20
3.0999999999999996
 10
27.496000000000002
 20
3.0999999999999996
 10
27.496000000000002
 20
5.263999999999999
 10
27.848
 20
5.263999999999999
 10
27.876
 20
4.942
 10
27.984
 20
5.114
 10
28.310000000000002
 20
5.304
 10
28.518
 20
5.304
  0
LWPOLYLINE
  5
64
330
17
100
AcDbEntity
  8
0
 62
1
100
AcDbPolyline
 90
25
 70
0
 10
30.058
 20
3.6579999999999995
 10
30.058
 20
3.506
 10
30.184
 20
3.3819999999999997
 10
30.288
 20
3.3819999999999997
 10
30.322
 20
3.3819999999999997
 10
30.404
 20
3.3979999999999997
 10
30.436
 20
3.4099999999999997
 10
30.488
 20
3.1399999999999997
 10
30.444
 20
3.1039999999999996
 10
30.274
 20
3.058
 10
30.188
 20
3.058
 10
29.948
 20
3.058
 10
29.664
 20
3.348
 10
29.664
 20
3.6579999999999995
 10
29.664
 20
4.9719999999999995
 10
29.32
 20
4.9719999999999995
 10
29.32
 20
5.263999999999999
 10
29.664
 20
5.263999999999999
 10
29.664
 20
5.786
 10
30.058
 20
5.786
 10
30.058
 20
5.263999999999999
 10
30.468
 20
5.263999999999999
 10
30.468
 20
4.9719999999999995
 10
30.058
 20
4.9719999999999995
 10
30.058
 20
3.6579999999999995
  0
LWPOLYLINE
  5
65
330
17
100
AcDbEntity
  8
0
 62
1
100
AcDbPolyline
 90
15
 70
0
 10
33.43
 20
4.21
 10
33.43
 20
4.8999999999999995
 10
33.43
 20
5.4559999999999995
 10
33.928
 20
6.054
 10
34.356
 20
6.054
 10
34.786
 20
6.054
 10
35.284
 20
5.4559999999999995
 10
35.284
 20
4.8999999999999995
 10
35.284
 20
4.21
 10
35.284
 20
3.6519999999999997
 10
34.79
 20
3.058
 10
34.36
 20
3.058
 10
33.93
 20
3.058
 10
33.43
 20
3.654
 10
33.43
 20
4.21
  0
LWPOLYLINE
  5
66
330
17
100
AcDbEntity
  8
0
 62
1
100
AcDbPolyline
 90
15
 70
0
 10
33.824
 20
4.984
 10
33.824
 20
4.13
 10
33.824
 20
3.752
 10
34.1
 20
3.3659999999999997
 10
34.36
 20
3.3659999999999997
 10
34.620000000000005
 20
3.3659999999999997
 10
34.89
 20
3.7499999999999996
 10
34.89
 20
4.13
 10
34.89
 20
4.984
 10
34.89
 20
5.362
 10
34.616
 20
5.744
 10
34.356
 20
5.744
 10
34.096000000000004
 20
5.744
 10
33.824
 20
5.362
 10
33.824
 20
4.984
  0
LWPOLYLINE
  5
67
330
17
100
AcDbEntity
  8
0
 62
1
100
AcDbPolyline
 90
7
 70
0
 10
37.734
 20
5.904
 10
38.724000000000004
 20
6.012
 10
38.724000000000004
 20
3.0999999999999996
 10
38.33
 20
3.0999999999999996
 10
38.33
 20
5.628
 10
37.734
 20
5.619999999999999
 10
37.734
 20
5.904
  0
LWPOLYLINE
  5
68
330
17
100
AcDbEntity
  8
0
 62
1
100
AcDbPolyline
 90
7
 70
0
 10
37.362
 20
6.012
 10
37.362
 20
3.0999999999999996
 10
36.968
 20
3.0999999999999996
 10
36.968
 20
5.628
 10
36.372
 20
5.619999999999999
 10
36.372
 20
5.904
 10
37.362
 20
6.012
  0
LWPOLYLINE
  5
69
330
17
100
AcDbEntity
  8
0
 62
1
100
AcDbPolyline
 90
5
 70
0
 10
30.810000000000002
 20
5.256
 10
31.204
 20
5.256
 10
31.204
 20
4.851999999999999
 10
30.810000000000002
 20
4.851999999999999
 10
30.810000000000002
 20
5.256
  0
ENDSEC
  0
SECTION
  2
OBJECTS
  0
DICTIONARY
  5
A
330
0
100
AcDbDictionary
280
0
281
1
  3
ACAD_COLOR
350
B
  3
ACAD_GROUP
350
C
  3
ACAD_LAYOUT
350
D
  3
ACAD_MATERIAL
350
E
  3
ACAD_MLEADERSTYLE
350
F
  3
ACAD_MLINESTYLE
350
10
  3
ACAD_PLOTSETTINGS
350
11
  3
ACAD_PLOTSTYLENAME
350
12
  3
ACAD_SCALELIST
350
14
  3
ACAD_TABLESTYLE
350
15
  3
ACAD_VISUALSTYLE
350
16
  3
EZDXF_META
350
2D
  0
DICTIONARY
  5
B
330
A
100
AcDbDictionary
280
0
281
1
  0
DICTIONARY
  5
C
330
A
100
AcDbDictionary
280
0
281
1
  0
DICTIONARY
  5
D
330
A
100
AcDbDictionary
280
0
281
1
  3
Model
350
1A
  3
Layout1
350
1E
  0
DICTIONARY
  5
E
330
A
100
AcDbDictionary
280
0
281
1
  3
ByBlock
350
1F
  3
ByLayer
350
20
  3
Global
350
21
  0
DICTIONARY
  5
F
330
A
100
AcDbDictionary
280
0
281
1
  3
Standard
350
2C
  0
DICTIONARY
  5
10
330
A
100
AcDbDictionary
280
0
281
1
  3
Standard
350
22
  0
DICTIONARY
  5
11
330
A
100
AcDbDictionary
280
0
281
1
  0
ACDBDICTIONARYWDFLT
  5
12
330
A
100
AcDbDictionary
280
0
281
1
  3
Normal
350
13
100
AcDbDictionaryWithDefault
340
13
  0
ACDBPLACEHOLDER
  5
13
330
12
  0
DICTIONARY
  5
14
330
A
100
AcDbDictionary
280
0
281
1
  0
DICTIONARY
  5
15
330
A
100
AcDbDictionary
280
0
281
1
  0
DICTIONARY
  5
16
330
A
100
AcDbDictionary
280
0
281
1
  0
LAYOUT
  5
1A
330
D
100
AcDbPlotSettings
  1

  2
Adobe PDF
  4
A3
  6

 40
7.5
 41
20.0
 42
7.5
 43
20.0
 44
420.0
 45
297.0
 46
0.0
 47
0.0
 48
0.0
 49
0.0
140
0.0
141
0.0
142
1.0
143
1.0
 70
1024
 72
1
 73
0
 74
5
  7

 75
16
 76
0
 77
2
 78
300
147
1.0
148
0.0
149
0.0
100
AcDbLayout
  1
Model
 70
1
 71
0
 10
0.0
 20
0.0
 11
420.0
 21
297.0
 12
0.0
 22
0.0
 32
0.0
 14
1e+20
 24
1e+20
 34
1e+20
 15
-1e+20
 25
-1e+20
 35
-1e+20
146
0.0
 13
0.0
 23
0.0
 33
0.0
 16
1.0
 26
0.0
 36
0.0
 17
0.0
 27
1.0
 37
0.0
 76
1
330
17
  0
LAYOUT
  5
1E
330
D
100
AcDbPlotSettings
  1

  2
Adobe PDF
  4
A3
  6

 40
7.5
 41
20.0
 42
7.5
 43
20.0
 44
420.0
 45
297.0
 46
0.0
 47
0.0
 48
0.0
 49
0.0
140
0.0
141
0.0
142
1.0
143
1.0
 70
0
 72
1
 73
0
 74
5
  7

 75
16
 76
0
 77
2
 78
300
147
1.0
148
0.0
149
0.0
100
AcDbLayout
  1
Layout1
 70
1
 71
1
 10
0.0
 20
0.0
 11
420.0
 21
297.0
 12
0.0
 22
0.0
 32
0.0
 14
1e+20
 24
1e+20
 34
1e+20
 15
-1e+20
 25
-1e+20
 35
-1e+20
146
0.0
 13
0.0
 23
0.0
 33
0.0
 16
1.0
 26
0.0
 36
0.0
 17
0.0
 27
1.0
 37
0.0
 76
1
330
1B
  0
MATERIAL
  5
1F
102
{ACAD_REACTORS
330
E
102
}
330
E
100
AcDbMaterial
  1
ByBlock
  2

 70
0
 40
1.0
 71
1
 41
1.0
 91
-1023410177
 42
1.0
 72
1
  3

 73
1
 74
1
 75
1
 44
0.5
 73
0
 45
1.0
 46
1.0
 77
1
  4

 78
1
 79
1
170
1
 48
1.0
171
1
  6

172
1
173
1
174
1
140
1.0
141
1.0
175
1
  7

176
1
177
1
178
1
143
1.0
179
1
  8

270
1
271
1
272
1
145
1.0
146
1.0
273
1
  9

274
1
275
1
276
1
 42
1.0
 72
1
  3

 73
1
 74
1
 75
1
 94
63
  0
MATERIAL
  5
20
102
{ACAD_REACTORS
330
E
102
}
330
E
100
AcDbMaterial
  1
ByLayer
  2

 70
0
 40
1.0
 71
1
 41
1.0
 91
-1023410177
 42
1.0
 72
1
  3

 73
1
 74
1
 75
1
 44
0.5
 73
0
 45
1.0
 46
1.0
 77
1
  4

 78
1
 79
1
170
1
 48
1.0
171
1
  6

172
1
173
1
174
1
140
1.0
141
1.0
175
1
  7

176
1
177
1
178
1
143
1.0
179
1
  8

270
1
271
1
272
1
145
1.0
146
1.0
273
1
  9

274
1
275
1
276
1
 42
1.0
 72
1
  3

 73
1
 74
1
 75
1
 94
63
  0
MATERIAL
  5
21
102
{ACAD_REACTORS
330
E
102
}
330
E
100
AcDbMaterial
  1
Global
  2

 70
0
 40
1.0
 71
1
 41
1.0
 91
-1023410177
 42
1.0
 72
1
  3

 73
1
 74
1
 75
1
 44
0.5
 73
0
 45
1.0
 46
1.0
 77
1
  4

 78
1
 79
1
170
1
 48
1.0
171
1
  6

172
1
173
1
174
1
140
1.0
141
1.0
175
1
  7

176
1
177
1
178
1
143
1.0
179
1
  8

270
1
271
1
272
1
145
1.0
146
1.0
273
1
  9

274
1
275
1
276
1
 42
1.0
 72
1
  3

 73
1
 74
1
 75
1
 94
63
  0
MLINESTYLE
  5
22
102
{ACAD_REACTORS
330
10
102
}
330
10
100
AcDbMlineStyle
  2
Standard
 70
0
  3

 62
256
 51
90.0
 52
90.0
 71
2
 49
0.5
 62
256
  6
BYLAYER
 49
-0.5
 62
256
  6
BYLAYER
  0
MLEADERSTYLE
  5
2C
102
{ACAD_REACTORS
330
F
102
}
330
F
100
AcDbMLeaderStyle
179
2
170
2
171
1
172
0
 90
2
 40
0.0
 41
0.0
173
1
 91
-1056964608
 92
-2
290
1
 42
2.0
291
1
 43
8.0
  3
Standard
 44
4.0
300

342
29
174
1
175
1
176
0
178
1
 93
-1056964608
 45
4.0
292
0
297
0
 46
4.0
 94
-1056964608
 47
1.0
 49
1.0
140
1.0
294
1
141
0.0
177
0
142
1.0
295
0
296
0
143
3.75
271
0
272
9
273
9
  0
DICTIONARY
  5
2D
330
A
100
AcDbDictionary
281
1
  3
CREATED_BY_EZDXF
350
2E
  3
WRITTEN_BY_EZDXF
350
6C
  0
DICTIONARYVAR
  5
2E
330
2D
100
DictionaryVariables
280
0
  1
1.1.1 @ 2023-11-06T21:39:48.165016+00:00
  0
DICTIONARYVAR
  5
6C
330
2D
100
DictionaryVariables
280
0
  1
1.1.1 @ 2023-11-06T21:39:48.179611+00:00
  0
ENDSEC
  0
EOF
