solid OpenSCAD_Model
  facet normal 0 0 1
    outer loop
      vertex 0 63.5 152.4
      vertex -2 61.5 152.4
      vertex 0 0 152.4
    endloop
  endfacet
  facet normal 0 0 1
    outer loop
      vertex 0 63.5 152.4
      vertex -183.31 61.5 152.4
      vertex -2 61.5 152.4
    endloop
  endfacet
  facet normal 0 0 1
    outer loop
      vertex -183.31 61.5 152.4
      vertex -185.342 63.5 152.4
      vertex -183.31 2 152.4
    endloop
  endfacet
  facet normal -0 0 1
    outer loop
      vertex -185.342 63.5 152.4
      vertex -183.31 61.5 152.4
      vertex 0 63.5 152.4
    endloop
  endfacet
  facet normal -0 0 1
    outer loop
      vertex -2 2 152.4
      vertex 0 0 152.4
      vertex -2 61.5 152.4
    endloop
  endfacet
  facet normal -0 0 1
    outer loop
      vertex -183.31 2 152.4
      vertex 0 0 152.4
      vertex -2 2 152.4
    endloop
  endfacet
  facet normal 0 0 1
    outer loop
      vertex -183.31 2 152.4
      vertex -185.342 0 152.4
      vertex 0 0 152.4
    endloop
  endfacet
  facet normal 0 0 1
    outer loop
      vertex -185.342 0 152.4
      vertex -183.31 2 152.4
      vertex -185.342 63.5 152.4
    endloop
  endfacet
  facet normal 1 -0 0
    outer loop
      vertex 0 0 152.4
      vertex 0 63.5 50.8
      vertex 0 63.5 152.4
    endloop
  endfacet
  facet normal 1 0 0
    outer loop
      vertex 0 63.5 50.8
      vertex 0 0 152.4
      vertex 0 0 50.8
    endloop
  endfacet
  facet normal 0 1 -0
    outer loop
      vertex -20 2 52.8
      vertex -108.891 2 60.8
      vertex -20 2 60.8
    endloop
  endfacet
  facet normal 0 1 0
    outer loop
      vertex -108.891 2 60.8
      vertex -20 2 52.8
      vertex -108.891 2 52.8
    endloop
  endfacet
  facet normal 0 1 0
    outer loop
      vertex -2 2 152.4
      vertex -181.311 2 143.496
      vertex -183.31 2 152.4
    endloop
  endfacet
  facet normal 0 1 0
    outer loop
      vertex -2 2 152.4
      vertex -178.864 2 134.655
      vertex -181.311 2 143.496
    endloop
  endfacet
  facet normal 0 1 0
    outer loop
      vertex -2 2 152.4
      vertex -175.986 2 125.944
      vertex -178.864 2 134.655
    endloop
  endfacet
  facet normal 0 1 0
    outer loop
      vertex -2 2 152.4
      vertex -172.685 2 117.384
      vertex -175.986 2 125.944
    endloop
  endfacet
  facet normal 0 1 0
    outer loop
      vertex -2 2 152.4
      vertex -168.967 2 108.997
      vertex -172.685 2 117.384
    endloop
  endfacet
  facet normal 0 1 -0
    outer loop
      vertex -108.891 2 60.8
      vertex -168.967 2 108.997
      vertex -2 2 152.4
    endloop
  endfacet
  facet normal 0 1 0
    outer loop
      vertex -168.967 2 108.997
      vertex -108.891 2 60.8
      vertex -164.842 2 100.803
    endloop
  endfacet
  facet normal 0 1 0
    outer loop
      vertex -164.842 2 100.803
      vertex -108.891 2 60.8
      vertex -160.32 2 92.8203
    endloop
  endfacet
  facet normal 0 1 0
    outer loop
      vertex -160.32 2 92.8203
      vertex -108.891 2 60.8
      vertex -155.412 2 85.0695
    endloop
  endfacet
  facet normal 0 1 0
    outer loop
      vertex -155.412 2 85.0695
      vertex -108.891 2 60.8
      vertex -150.13 2 77.5689
    endloop
  endfacet
  facet normal 0 1 -0
    outer loop
      vertex -118.891 2 60.8
      vertex -150.13 2 77.5689
      vertex -108.891 2 60.8
    endloop
  endfacet
  facet normal 0 1 0
    outer loop
      vertex -20 2 60.8
      vertex -2 2 152.4
      vertex -10 2 60.8
    endloop
  endfacet
  facet normal 0 1 -0
    outer loop
      vertex -2 2 52.8
      vertex -10 2 60.8
      vertex -2 2 152.4
    endloop
  endfacet
  facet normal 0 1 0
    outer loop
      vertex -10 2 60.8
      vertex -2 2 52.8
      vertex -10 2 52.8
    endloop
  endfacet
  facet normal 0 1 0
    outer loop
      vertex -108.891 2 60.8
      vertex -2 2 152.4
      vertex -20 2 60.8
    endloop
  endfacet
  facet normal 0 1 0
    outer loop
      vertex -150.13 2 77.5689
      vertex -118.891 2 60.8
      vertex -144.485 2 70.3365
    endloop
  endfacet
  facet normal 0 1 0
    outer loop
      vertex -144.485 2 70.3365
      vertex -118.891 2 60.8
      vertex -138.493 2 63.3897
    endloop
  endfacet
  facet normal 0 1 0
    outer loop
      vertex -118.891 2 60.8
      vertex -132.167 2 56.7454
      vertex -138.493 2 63.3897
    endloop
  endfacet
  facet normal 0 1 0
    outer loop
      vertex -128.023 2 52.8
      vertex -118.891 2 60.8
      vertex -118.891 2 52.8
    endloop
  endfacet
  facet normal 0 1 0
    outer loop
      vertex -118.891 2 60.8
      vertex -128.023 2 52.8
      vertex -132.167 2 56.7454
    endloop
  endfacet
  facet normal 0 0 -1
    outer loop
      vertex -128.822 0 50.8
      vertex -118.891 10 50.8
      vertex -118.891 0 50.8
    endloop
  endfacet
  facet normal -0 0 -1
    outer loop
      vertex -118.891 10 50.8
      vertex -128.822 0 50.8
      vertex -118.891 53.5 50.8
    endloop
  endfacet
  facet normal 0 0 -1
    outer loop
      vertex -128.822 63.5 50.8
      vertex -118.891 53.5 50.8
      vertex -128.822 0 50.8
    endloop
  endfacet
  facet normal 0 0 -1
    outer loop
      vertex -118.891 53.5 50.8
      vertex -128.822 63.5 50.8
      vertex -118.891 63.5 50.8
    endloop
  endfacet
  facet normal 0 0 -1
    outer loop
      vertex -118.891 10 50.8
      vertex -108.891 53.5 50.8
      vertex -108.891 10 50.8
    endloop
  endfacet
  facet normal -0 0 -1
    outer loop
      vertex -108.891 53.5 50.8
      vertex -118.891 10 50.8
      vertex -118.891 53.5 50.8
    endloop
  endfacet
  facet normal 0 0 -1
    outer loop
      vertex -108.891 10 50.8
      vertex -20 10 50.8
      vertex -20 0 50.8
    endloop
  endfacet
  facet normal 0 0 -1
    outer loop
      vertex -20 10 50.8
      vertex -108.891 10 50.8
      vertex -20 53.5 50.8
    endloop
  endfacet
  facet normal 0 0 -1
    outer loop
      vertex -108.891 10 50.8
      vertex -20 0 50.8
      vertex -108.891 0 50.8
    endloop
  endfacet
  facet normal 0 0 -1
    outer loop
      vertex -108.891 53.5 50.8
      vertex -20 53.5 50.8
      vertex -108.891 10 50.8
    endloop
  endfacet
  facet normal 0 0 -1
    outer loop
      vertex -20 53.5 50.8
      vertex -108.891 53.5 50.8
      vertex -20 63.5 50.8
    endloop
  endfacet
  facet normal -0 0 -1
    outer loop
      vertex -20 63.5 50.8
      vertex -108.891 53.5 50.8
      vertex -108.891 63.5 50.8
    endloop
  endfacet
  facet normal 0 0 -1
    outer loop
      vertex -20 10 50.8
      vertex -10 53.5 50.8
      vertex -10 10 50.8
    endloop
  endfacet
  facet normal -0 0 -1
    outer loop
      vertex -10 53.5 50.8
      vertex -20 10 50.8
      vertex -20 53.5 50.8
    endloop
  endfacet
  facet normal 0 0 -1
    outer loop
      vertex -10 10 50.8
      vertex 0 0 50.8
      vertex -10 0 50.8
    endloop
  endfacet
  facet normal 0 0 -1
    outer loop
      vertex 0 0 50.8
      vertex -10 10 50.8
      vertex 0 63.5 50.8
    endloop
  endfacet
  facet normal 0 0 -1
    outer loop
      vertex -10 53.5 50.8
      vertex 0 63.5 50.8
      vertex -10 10 50.8
    endloop
  endfacet
  facet normal -0 0 -1
    outer loop
      vertex 0 63.5 50.8
      vertex -10 53.5 50.8
      vertex -10 63.5 50.8
    endloop
  endfacet
  facet normal 0 -1 0
    outer loop
      vertex -108.891 0 50.8
      vertex -20 0 60.8
      vertex -108.891 0 60.8
    endloop
  endfacet
  facet normal 0 -1 -0
    outer loop
      vertex -20 0 60.8
      vertex -108.891 0 50.8
      vertex -20 0 50.8
    endloop
  endfacet
  facet normal 0 -1 0
    outer loop
      vertex -133.581 0 55.3312
      vertex -118.891 0 60.8
      vertex -139.975 0 62.0466
    endloop
  endfacet
  facet normal 0 -1 0
    outer loop
      vertex -128.822 0 50.8
      vertex -118.891 0 60.8
      vertex -133.581 0 55.3312
    endloop
  endfacet
  facet normal 0 -1 -0
    outer loop
      vertex -118.891 0 60.8
      vertex -128.822 0 50.8
      vertex -118.891 0 50.8
    endloop
  endfacet
  facet normal 0 -1 0
    outer loop
      vertex -185.283 0 152.057
      vertex 0 0 152.4
      vertex -185.342 0 152.4
    endloop
  endfacet
  facet normal 0 -1 0
    outer loop
      vertex -183.251 0 143.011
      vertex 0 0 152.4
      vertex -185.283 0 152.057
    endloop
  endfacet
  facet normal 0 -1 0
    outer loop
      vertex -180.778 0 134.074
      vertex 0 0 152.4
      vertex -183.251 0 143.011
    endloop
  endfacet
  facet normal 0 -1 0
    outer loop
      vertex -177.869 0 125.27
      vertex 0 0 152.4
      vertex -180.778 0 134.074
    endloop
  endfacet
  facet normal 0 -1 0
    outer loop
      vertex -174.532 0 116.619
      vertex 0 0 152.4
      vertex -177.869 0 125.27
    endloop
  endfacet
  facet normal 0 -1 0
    outer loop
      vertex -170.775 0 108.142
      vertex 0 0 152.4
      vertex -174.532 0 116.619
    endloop
  endfacet
  facet normal 0 -1 0
    outer loop
      vertex -108.891 0 60.8
      vertex -170.775 0 108.142
      vertex -166.606 0 99.8598
    endloop
  endfacet
  facet normal 0 -1 0
    outer loop
      vertex -108.891 0 60.8
      vertex -166.606 0 99.8598
      vertex -162.036 0 91.7921
    endloop
  endfacet
  facet normal 0 -1 0
    outer loop
      vertex -108.891 0 60.8
      vertex -162.036 0 91.7921
      vertex -157.075 0 83.9583
    endloop
  endfacet
  facet normal 0 -1 0
    outer loop
      vertex -118.891 0 60.8
      vertex -157.075 0 83.9583
      vertex -151.736 0 76.3775
    endloop
  endfacet
  facet normal 0 -1 0
    outer loop
      vertex -118.891 0 60.8
      vertex -151.736 0 76.3775
      vertex -146.031 0 69.0677
    endloop
  endfacet
  facet normal 0 -1 0
    outer loop
      vertex -118.891 0 60.8
      vertex -146.031 0 69.0677
      vertex -139.975 0 62.0466
    endloop
  endfacet
  facet normal 0 -1 0
    outer loop
      vertex -157.075 0 83.9583
      vertex -118.891 0 60.8
      vertex -108.891 0 60.8
    endloop
  endfacet
  facet normal 0 -1 0
    outer loop
      vertex -170.775 0 108.142
      vertex -108.891 0 60.8
      vertex 0 0 152.4
    endloop
  endfacet
  facet normal 0 -1 0
    outer loop
      vertex -20 0 60.8
      vertex 0 0 152.4
      vertex -108.891 0 60.8
    endloop
  endfacet
  facet normal 0 -1 0
    outer loop
      vertex -10 0 60.8
      vertex 0 0 152.4
      vertex -20 0 60.8
    endloop
  endfacet
  facet normal 0 -1 0
    outer loop
      vertex 0 0 50.8
      vertex -10 0 60.8
      vertex -10 0 50.8
    endloop
  endfacet
  facet normal 0 -1 0
    outer loop
      vertex -10 0 60.8
      vertex 0 0 50.8
      vertex 0 0 152.4
    endloop
  endfacet
  facet normal -0.870101 0 -0.492874
    outer loop
      vertex -162.036 0 91.7921
      vertex -166.606 63.5 99.8598
      vertex -162.036 63.5 91.7921
    endloop
  endfacet
  facet normal -0.870101 -0 -0.492874
    outer loop
      vertex -166.606 63.5 99.8598
      vertex -162.036 0 91.7921
      vertex -166.606 0 99.8598
    endloop
  endfacet
  facet normal -0.689561 0 -0.724228
    outer loop
      vertex -133.581 0 55.3312
      vertex -128.822 63.5 50.8
      vertex -128.822 0 50.8
    endloop
  endfacet
  facet normal -0.689561 0 -0.724228
    outer loop
      vertex -128.822 63.5 50.8
      vertex -133.581 0 55.3312
      vertex -133.581 63.5 55.3312
    endloop
  endfacet
  facet normal -0.985526 0 -0.169522
    outer loop
      vertex -185.283 0 152.057
      vertex -185.342 63.5 152.4
      vertex -185.283 63.5 152.057
    endloop
  endfacet
  facet normal -0.985526 -0 -0.169522
    outer loop
      vertex -185.342 63.5 152.4
      vertex -185.283 0 152.057
      vertex -185.342 0 152.4
    endloop
  endfacet
  facet normal -0.757232 0 -0.653145
    outer loop
      vertex -139.975 0 62.0466
      vertex -146.031 63.5 69.0677
      vertex -139.975 63.5 62.0466
    endloop
  endfacet
  facet normal -0.757232 -0 -0.653145
    outer loop
      vertex -146.031 63.5 69.0677
      vertex -139.975 0 62.0466
      vertex -146.031 0 69.0677
    endloop
  endfacet
  facet normal -0.89322 0 -0.449619
    outer loop
      vertex -166.606 0 99.8598
      vertex -170.775 63.5 108.142
      vertex -166.606 63.5 99.8598
    endloop
  endfacet
  facet normal -0.89322 -0 -0.449619
    outer loop
      vertex -170.775 63.5 108.142
      vertex -166.606 0 99.8598
      vertex -170.775 0 108.142
    endloop
  endfacet
  facet normal -0.932995 0 -0.35989
    outer loop
      vertex -174.532 0 116.619
      vertex -177.869 63.5 125.27
      vertex -174.532 63.5 116.619
    endloop
  endfacet
  facet normal -0.932995 -0 -0.35989
    outer loop
      vertex -177.869 63.5 125.27
      vertex -174.532 0 116.619
      vertex -177.869 0 125.27
    endloop
  endfacet
  facet normal -0.963782 0 -0.266693
    outer loop
      vertex -180.778 0 134.074
      vertex -183.251 63.5 143.011
      vertex -180.778 63.5 134.074
    endloop
  endfacet
  facet normal -0.963782 -0 -0.266693
    outer loop
      vertex -183.251 63.5 143.011
      vertex -180.778 0 134.074
      vertex -183.251 0 143.011
    endloop
  endfacet
  facet normal -0.975687 0 -0.219168
    outer loop
      vertex -183.251 0 143.011
      vertex -185.283 63.5 152.057
      vertex -183.251 63.5 143.011
    endloop
  endfacet
  facet normal -0.975687 -0 -0.219168
    outer loop
      vertex -185.283 63.5 152.057
      vertex -183.251 0 143.011
      vertex -185.283 0 152.057
    endloop
  endfacet
  facet normal -0.724225 0 -0.689564
    outer loop
      vertex -133.581 0 55.3312
      vertex -139.975 63.5 62.0466
      vertex -133.581 63.5 55.3312
    endloop
  endfacet
  facet normal -0.724225 -0 -0.689564
    outer loop
      vertex -139.975 63.5 62.0466
      vertex -133.581 0 55.3312
      vertex -139.975 0 62.0466
    endloop
  endfacet
  facet normal -0.844839 0 -0.535021
    outer loop
      vertex -157.075 0 83.9583
      vertex -162.036 63.5 91.7921
      vertex -157.075 63.5 83.9583
    endloop
  endfacet
  facet normal -0.844839 -0 -0.535021
    outer loop
      vertex -162.036 63.5 91.7921
      vertex -157.075 0 83.9583
      vertex -162.036 0 91.7921
    endloop
  endfacet
  facet normal -0.817585 0 -0.575808
    outer loop
      vertex -151.736 0 76.3775
      vertex -157.075 63.5 83.9583
      vertex -151.736 63.5 76.3775
    endloop
  endfacet
  facet normal -0.817585 -0 -0.575808
    outer loop
      vertex -157.075 63.5 83.9583
      vertex -151.736 0 76.3775
      vertex -157.075 0 83.9583
    endloop
  endfacet
  facet normal -0.788327 0 -0.615257
    outer loop
      vertex -146.031 0 69.0677
      vertex -151.736 63.5 76.3775
      vertex -146.031 63.5 69.0677
    endloop
  endfacet
  facet normal -0.788327 -0 -0.615257
    outer loop
      vertex -151.736 63.5 76.3775
      vertex -146.031 0 69.0677
      vertex -151.736 0 76.3775
    endloop
  endfacet
  facet normal -0.914234 0 -0.405188
    outer loop
      vertex -170.775 0 108.142
      vertex -174.532 63.5 116.619
      vertex -170.775 63.5 108.142
    endloop
  endfacet
  facet normal -0.914234 -0 -0.405188
    outer loop
      vertex -174.532 63.5 116.619
      vertex -170.775 0 108.142
      vertex -174.532 0 116.619
    endloop
  endfacet
  facet normal -0.94951 0 -0.313735
    outer loop
      vertex -177.869 0 125.27
      vertex -180.778 63.5 134.074
      vertex -177.869 63.5 125.27
    endloop
  endfacet
  facet normal -0.94951 -0 -0.313735
    outer loop
      vertex -180.778 63.5 134.074
      vertex -177.869 0 125.27
      vertex -180.778 0 134.074
    endloop
  endfacet
  facet normal 0 -1 0
    outer loop
      vertex -108.891 61.5 52.8
      vertex -20 61.5 60.8
      vertex -108.891 61.5 60.8
    endloop
  endfacet
  facet normal 0 -1 -0
    outer loop
      vertex -20 61.5 60.8
      vertex -108.891 61.5 52.8
      vertex -20 61.5 52.8
    endloop
  endfacet
  facet normal 0 -1 0
    outer loop
      vertex -132.167 61.5 56.7454
      vertex -118.891 61.5 60.8
      vertex -138.493 61.5 63.3897
    endloop
  endfacet
  facet normal 0 -1 0
    outer loop
      vertex -128.023 61.5 52.8
      vertex -118.891 61.5 60.8
      vertex -132.167 61.5 56.7454
    endloop
  endfacet
  facet normal 0 -1 -0
    outer loop
      vertex -118.891 61.5 60.8
      vertex -128.023 61.5 52.8
      vertex -118.891 61.5 52.8
    endloop
  endfacet
  facet normal 0 -1 0
    outer loop
      vertex -181.311 61.5 143.496
      vertex -2 61.5 152.4
      vertex -183.31 61.5 152.4
    endloop
  endfacet
  facet normal 0 -1 0
    outer loop
      vertex -178.864 61.5 134.655
      vertex -2 61.5 152.4
      vertex -181.311 61.5 143.496
    endloop
  endfacet
  facet normal 0 -1 0
    outer loop
      vertex -175.986 61.5 125.944
      vertex -2 61.5 152.4
      vertex -178.864 61.5 134.655
    endloop
  endfacet
  facet normal 0 -1 0
    outer loop
      vertex -172.685 61.5 117.384
      vertex -2 61.5 152.4
      vertex -175.986 61.5 125.944
    endloop
  endfacet
  facet normal 0 -1 0
    outer loop
      vertex -168.967 61.5 108.997
      vertex -2 61.5 152.4
      vertex -172.685 61.5 117.384
    endloop
  endfacet
  facet normal 0 -1 0
    outer loop
      vertex -108.891 61.5 60.8
      vertex -168.967 61.5 108.997
      vertex -164.842 61.5 100.803
    endloop
  endfacet
  facet normal 0 -1 0
    outer loop
      vertex -108.891 61.5 60.8
      vertex -164.842 61.5 100.803
      vertex -160.32 61.5 92.8203
    endloop
  endfacet
  facet normal 0 -1 0
    outer loop
      vertex -108.891 61.5 60.8
      vertex -160.32 61.5 92.8203
      vertex -155.412 61.5 85.0695
    endloop
  endfacet
  facet normal 0 -1 0
    outer loop
      vertex -108.891 61.5 60.8
      vertex -155.412 61.5 85.0695
      vertex -150.13 61.5 77.5689
    endloop
  endfacet
  facet normal 0 -1 0
    outer loop
      vertex -118.891 61.5 60.8
      vertex -150.13 61.5 77.5689
      vertex -144.485 61.5 70.3365
    endloop
  endfacet
  facet normal 0 -1 0
    outer loop
      vertex -118.891 61.5 60.8
      vertex -144.485 61.5 70.3365
      vertex -138.493 61.5 63.3897
    endloop
  endfacet
  facet normal 0 -1 0
    outer loop
      vertex -150.13 61.5 77.5689
      vertex -118.891 61.5 60.8
      vertex -108.891 61.5 60.8
    endloop
  endfacet
  facet normal 0 -1 0
    outer loop
      vertex -168.967 61.5 108.997
      vertex -108.891 61.5 60.8
      vertex -2 61.5 152.4
    endloop
  endfacet
  facet normal 0 -1 0
    outer loop
      vertex -20 61.5 60.8
      vertex -2 61.5 152.4
      vertex -108.891 61.5 60.8
    endloop
  endfacet
  facet normal 0 -1 0
    outer loop
      vertex -10 61.5 60.8
      vertex -2 61.5 152.4
      vertex -20 61.5 60.8
    endloop
  endfacet
  facet normal 0 -1 0
    outer loop
      vertex -2 61.5 52.8
      vertex -10 61.5 60.8
      vertex -10 61.5 52.8
    endloop
  endfacet
  facet normal 0 -1 0
    outer loop
      vertex -10 61.5 60.8
      vertex -2 61.5 52.8
      vertex -2 61.5 152.4
    endloop
  endfacet
  facet normal 0 1 -0
    outer loop
      vertex -20 63.5 50.8
      vertex -108.891 63.5 60.8
      vertex -20 63.5 60.8
    endloop
  endfacet
  facet normal 0 1 0
    outer loop
      vertex -108.891 63.5 60.8
      vertex -20 63.5 50.8
      vertex -108.891 63.5 50.8
    endloop
  endfacet
  facet normal 0 1 0
    outer loop
      vertex 0 63.5 152.4
      vertex -185.283 63.5 152.057
      vertex -185.342 63.5 152.4
    endloop
  endfacet
  facet normal 0 1 0
    outer loop
      vertex 0 63.5 152.4
      vertex -183.251 63.5 143.011
      vertex -185.283 63.5 152.057
    endloop
  endfacet
  facet normal 0 1 0
    outer loop
      vertex 0 63.5 152.4
      vertex -180.778 63.5 134.074
      vertex -183.251 63.5 143.011
    endloop
  endfacet
  facet normal 0 1 0
    outer loop
      vertex 0 63.5 152.4
      vertex -177.869 63.5 125.27
      vertex -180.778 63.5 134.074
    endloop
  endfacet
  facet normal 0 1 0
    outer loop
      vertex 0 63.5 152.4
      vertex -174.532 63.5 116.619
      vertex -177.869 63.5 125.27
    endloop
  endfacet
  facet normal 0 1 0
    outer loop
      vertex 0 63.5 152.4
      vertex -170.775 63.5 108.142
      vertex -174.532 63.5 116.619
    endloop
  endfacet
  facet normal 0 1 -0
    outer loop
      vertex -108.891 63.5 60.8
      vertex -170.775 63.5 108.142
      vertex 0 63.5 152.4
    endloop
  endfacet
  facet normal 0 1 0
    outer loop
      vertex -170.775 63.5 108.142
      vertex -108.891 63.5 60.8
      vertex -166.606 63.5 99.8598
    endloop
  endfacet
  facet normal 0 1 0
    outer loop
      vertex -166.606 63.5 99.8598
      vertex -108.891 63.5 60.8
      vertex -162.036 63.5 91.7921
    endloop
  endfacet
  facet normal 0 1 0
    outer loop
      vertex -162.036 63.5 91.7921
      vertex -108.891 63.5 60.8
      vertex -157.075 63.5 83.9583
    endloop
  endfacet
  facet normal 0 1 -0
    outer loop
      vertex -118.891 63.5 60.8
      vertex -157.075 63.5 83.9583
      vertex -108.891 63.5 60.8
    endloop
  endfacet
  facet normal 0 1 0
    outer loop
      vertex -157.075 63.5 83.9583
      vertex -118.891 63.5 60.8
      vertex -151.736 63.5 76.3775
    endloop
  endfacet
  facet normal 0 1 0
    outer loop
      vertex -20 63.5 60.8
      vertex 0 63.5 152.4
      vertex -10 63.5 60.8
    endloop
  endfacet
  facet normal 0 1 -0
    outer loop
      vertex 0 63.5 50.8
      vertex -10 63.5 60.8
      vertex 0 63.5 152.4
    endloop
  endfacet
  facet normal 0 1 0
    outer loop
      vertex -10 63.5 60.8
      vertex 0 63.5 50.8
      vertex -10 63.5 50.8
    endloop
  endfacet
  facet normal 0 1 0
    outer loop
      vertex -108.891 63.5 60.8
      vertex 0 63.5 152.4
      vertex -20 63.5 60.8
    endloop
  endfacet
  facet normal 0 1 0
    outer loop
      vertex -151.736 63.5 76.3775
      vertex -118.891 63.5 60.8
      vertex -146.031 63.5 69.0677
    endloop
  endfacet
  facet normal 0 1 0
    outer loop
      vertex -146.031 63.5 69.0677
      vertex -118.891 63.5 60.8
      vertex -139.975 63.5 62.0466
    endloop
  endfacet
  facet normal 0 1 0
    outer loop
      vertex -118.891 63.5 60.8
      vertex -133.581 63.5 55.3312
      vertex -139.975 63.5 62.0466
    endloop
  endfacet
  facet normal 0 1 0
    outer loop
      vertex -128.822 63.5 50.8
      vertex -118.891 63.5 60.8
      vertex -118.891 63.5 50.8
    endloop
  endfacet
  facet normal 0 1 0
    outer loop
      vertex -118.891 63.5 60.8
      vertex -128.822 63.5 50.8
      vertex -133.581 63.5 55.3312
    endloop
  endfacet
  facet normal 0.914198 -0 0.405269
    outer loop
      vertex -172.685 2 117.384
      vertex -168.967 61.5 108.997
      vertex -172.685 61.5 117.384
    endloop
  endfacet
  facet normal 0.914198 0 0.405269
    outer loop
      vertex -168.967 61.5 108.997
      vertex -172.685 2 117.384
      vertex -168.967 2 108.997
    endloop
  endfacet
  facet normal 0.724242 -0 0.689546
    outer loop
      vertex -138.493 2 63.3897
      vertex -132.167 61.5 56.7454
      vertex -138.493 61.5 63.3897
    endloop
  endfacet
  facet normal 0.724242 0 0.689546
    outer loop
      vertex -132.167 61.5 56.7454
      vertex -138.493 2 63.3897
      vertex -132.167 2 56.7454
    endloop
  endfacet
  facet normal 0.975713 -0 0.219053
    outer loop
      vertex -183.31 2 152.4
      vertex -181.311 61.5 143.496
      vertex -183.31 61.5 152.4
    endloop
  endfacet
  facet normal 0.975713 0 0.219053
    outer loop
      vertex -181.311 61.5 143.496
      vertex -183.31 2 152.4
      vertex -181.311 2 143.496
    endloop
  endfacet
  facet normal 0.817611 -0 0.57577
    outer loop
      vertex -155.412 2 85.0695
      vertex -150.13 61.5 77.5689
      vertex -155.412 61.5 85.0695
    endloop
  endfacet
  facet normal 0.817611 0 0.57577
    outer loop
      vertex -150.13 61.5 77.5689
      vertex -155.412 2 85.0695
      vertex -150.13 2 77.5689
    endloop
  endfacet
  facet normal 0.949519 -0 0.313709
    outer loop
      vertex -178.864 2 134.655
      vertex -175.986 61.5 125.944
      vertex -178.864 61.5 134.655
    endloop
  endfacet
  facet normal 0.949519 0 0.313709
    outer loop
      vertex -175.986 61.5 125.944
      vertex -178.864 2 134.655
      vertex -175.986 2 125.944
    endloop
  endfacet
  facet normal 0.933028 -0 0.359804
    outer loop
      vertex -175.986 2 125.944
      vertex -172.685 61.5 117.384
      vertex -175.986 61.5 125.944
    endloop
  endfacet
  facet normal 0.933028 0 0.359804
    outer loop
      vertex -172.685 61.5 117.384
      vertex -175.986 2 125.944
      vertex -172.685 2 117.384
    endloop
  endfacet
  facet normal 0.963766 -0 0.26675
    outer loop
      vertex -181.311 2 143.496
      vertex -178.864 61.5 134.655
      vertex -181.311 61.5 143.496
    endloop
  endfacet
  facet normal 0.963766 0 0.26675
    outer loop
      vertex -178.864 61.5 134.655
      vertex -181.311 2 143.496
      vertex -178.864 2 134.655
    endloop
  endfacet
  facet normal 0.870094 -0 0.492886
    outer loop
      vertex -164.842 2 100.803
      vertex -160.32 61.5 92.8203
      vertex -164.842 61.5 100.803
    endloop
  endfacet
  facet normal 0.870094 0 0.492886
    outer loop
      vertex -160.32 61.5 92.8203
      vertex -164.842 2 100.803
      vertex -160.32 2 92.8203
    endloop
  endfacet
  facet normal 0.893203 -0 0.449654
    outer loop
      vertex -168.967 2 108.997
      vertex -164.842 61.5 100.803
      vertex -168.967 61.5 108.997
    endloop
  endfacet
  facet normal 0.893203 0 0.449654
    outer loop
      vertex -164.842 61.5 100.803
      vertex -168.967 2 108.997
      vertex -164.842 2 100.803
    endloop
  endfacet
  facet normal 0.757228 -0 0.653151
    outer loop
      vertex -144.485 2 70.3365
      vertex -138.493 61.5 63.3897
      vertex -144.485 61.5 70.3365
    endloop
  endfacet
  facet normal 0.757228 0 0.653151
    outer loop
      vertex -138.493 61.5 63.3897
      vertex -144.485 2 70.3365
      vertex -138.493 2 63.3897
    endloop
  endfacet
  facet normal 0.689539 0 0.724248
    outer loop
      vertex -132.167 61.5 56.7454
      vertex -128.023 2 52.8
      vertex -128.023 61.5 52.8
    endloop
  endfacet
  facet normal 0.689539 0 0.724248
    outer loop
      vertex -128.023 2 52.8
      vertex -132.167 61.5 56.7454
      vertex -132.167 2 56.7454
    endloop
  endfacet
  facet normal 0.84486 -0 0.534987
    outer loop
      vertex -160.32 2 92.8203
      vertex -155.412 61.5 85.0695
      vertex -160.32 61.5 92.8203
    endloop
  endfacet
  facet normal 0.84486 0 0.534987
    outer loop
      vertex -155.412 61.5 85.0695
      vertex -160.32 2 92.8203
      vertex -155.412 2 85.0695
    endloop
  endfacet
  facet normal 0.788305 -0 0.615284
    outer loop
      vertex -150.13 2 77.5689
      vertex -144.485 61.5 70.3365
      vertex -150.13 61.5 77.5689
    endloop
  endfacet
  facet normal 0.788305 0 0.615284
    outer loop
      vertex -144.485 61.5 70.3365
      vertex -150.13 2 77.5689
      vertex -144.485 2 70.3365
    endloop
  endfacet
  facet normal -0 0 1
    outer loop
      vertex -128.023 61.5 52.8
      vertex -118.891 53.5 52.8
      vertex -118.891 61.5 52.8
    endloop
  endfacet
  facet normal 0 0 1
    outer loop
      vertex -118.891 53.5 52.8
      vertex -128.023 61.5 52.8
      vertex -118.891 10 52.8
    endloop
  endfacet
  facet normal 0 0 1
    outer loop
      vertex -128.023 2 52.8
      vertex -118.891 10 52.8
      vertex -128.023 61.5 52.8
    endloop
  endfacet
  facet normal 0 0 1
    outer loop
      vertex -118.891 10 52.8
      vertex -128.023 2 52.8
      vertex -118.891 2 52.8
    endloop
  endfacet
  facet normal -0 0 1
    outer loop
      vertex -118.891 53.5 52.8
      vertex -108.891 10 52.8
      vertex -108.891 53.5 52.8
    endloop
  endfacet
  facet normal 0 0 1
    outer loop
      vertex -108.891 10 52.8
      vertex -118.891 53.5 52.8
      vertex -118.891 10 52.8
    endloop
  endfacet
  facet normal 0 0 1
    outer loop
      vertex -108.891 53.5 52.8
      vertex -20 53.5 52.8
      vertex -20 61.5 52.8
    endloop
  endfacet
  facet normal 0 0 1
    outer loop
      vertex -20 53.5 52.8
      vertex -108.891 53.5 52.8
      vertex -20 10 52.8
    endloop
  endfacet
  facet normal 0 0 1
    outer loop
      vertex -108.891 53.5 52.8
      vertex -20 61.5 52.8
      vertex -108.891 61.5 52.8
    endloop
  endfacet
  facet normal 0 0 1
    outer loop
      vertex -108.891 10 52.8
      vertex -20 10 52.8
      vertex -108.891 53.5 52.8
    endloop
  endfacet
  facet normal 0 0 1
    outer loop
      vertex -20 10 52.8
      vertex -108.891 10 52.8
      vertex -20 2 52.8
    endloop
  endfacet
  facet normal 0 0 1
    outer loop
      vertex -20 2 52.8
      vertex -108.891 10 52.8
      vertex -108.891 2 52.8
    endloop
  endfacet
  facet normal -0 0 1
    outer loop
      vertex -20 53.5 52.8
      vertex -10 10 52.8
      vertex -10 53.5 52.8
    endloop
  endfacet
  facet normal 0 0 1
    outer loop
      vertex -10 10 52.8
      vertex -20 53.5 52.8
      vertex -20 10 52.8
    endloop
  endfacet
  facet normal 0 0 1
    outer loop
      vertex -10 53.5 52.8
      vertex -2 61.5 52.8
      vertex -10 61.5 52.8
    endloop
  endfacet
  facet normal 0 0 1
    outer loop
      vertex -2 61.5 52.8
      vertex -10 53.5 52.8
      vertex -2 2 52.8
    endloop
  endfacet
  facet normal -0 0 1
    outer loop
      vertex -10 10 52.8
      vertex -2 2 52.8
      vertex -10 53.5 52.8
    endloop
  endfacet
  facet normal 0 0 1
    outer loop
      vertex -2 2 52.8
      vertex -10 10 52.8
      vertex -10 2 52.8
    endloop
  endfacet
  facet normal -1 0 0
    outer loop
      vertex -2 2 52.8
      vertex -2 61.5 152.4
      vertex -2 61.5 52.8
    endloop
  endfacet
  facet normal -1 -0 0
    outer loop
      vertex -2 61.5 152.4
      vertex -2 2 52.8
      vertex -2 2 152.4
    endloop
  endfacet
  facet normal 1 0 0
    outer loop
      vertex -20 2 60.8
      vertex -20 0 60.8
      vertex -20 2 52.8
    endloop
  endfacet
  facet normal 1 -0 0
    outer loop
      vertex -20 2 52.8
      vertex -20 10 50.8
      vertex -20 10 52.8
    endloop
  endfacet
  facet normal 1 0 0
    outer loop
      vertex -20 2 52.8
      vertex -20 0 50.8
      vertex -20 10 50.8
    endloop
  endfacet
  facet normal 1 0 0
    outer loop
      vertex -20 0 50.8
      vertex -20 2 52.8
      vertex -20 0 60.8
    endloop
  endfacet
  facet normal 0 0 -1
    outer loop
      vertex -20 0 60.8
      vertex -10 2 60.8
      vertex -10 0 60.8
    endloop
  endfacet
  facet normal -0 0 -1
    outer loop
      vertex -10 2 60.8
      vertex -20 0 60.8
      vertex -20 2 60.8
    endloop
  endfacet
  facet normal -1 0 0
    outer loop
      vertex -10 10 50.8
      vertex -10 2 52.8
      vertex -10 10 52.8
    endloop
  endfacet
  facet normal -1 0 0
    outer loop
      vertex -10 0 50.8
      vertex -10 2 52.8
      vertex -10 10 50.8
    endloop
  endfacet
  facet normal -1 0 0
    outer loop
      vertex -10 0 60.8
      vertex -10 2 52.8
      vertex -10 0 50.8
    endloop
  endfacet
  facet normal -1 0 0
    outer loop
      vertex -10 2 52.8
      vertex -10 0 60.8
      vertex -10 2 60.8
    endloop
  endfacet
  facet normal 0 -1 0
    outer loop
      vertex -20 10 50.8
      vertex -10 10 52.8
      vertex -20 10 52.8
    endloop
  endfacet
  facet normal 0 -1 -0
    outer loop
      vertex -10 10 52.8
      vertex -20 10 50.8
      vertex -10 10 50.8
    endloop
  endfacet
  facet normal 1 0 0
    outer loop
      vertex -20 61.5 52.8
      vertex -20 63.5 60.8
      vertex -20 61.5 60.8
    endloop
  endfacet
  facet normal 1 0 0
    outer loop
      vertex -20 63.5 60.8
      vertex -20 61.5 52.8
      vertex -20 63.5 50.8
    endloop
  endfacet
  facet normal 1 0 0
    outer loop
      vertex -20 53.5 50.8
      vertex -20 61.5 52.8
      vertex -20 53.5 52.8
    endloop
  endfacet
  facet normal 1 0 0
    outer loop
      vertex -20 61.5 52.8
      vertex -20 53.5 50.8
      vertex -20 63.5 50.8
    endloop
  endfacet
  facet normal 0 0 -1
    outer loop
      vertex -20 61.5 60.8
      vertex -10 63.5 60.8
      vertex -10 61.5 60.8
    endloop
  endfacet
  facet normal -0 0 -1
    outer loop
      vertex -10 63.5 60.8
      vertex -20 61.5 60.8
      vertex -20 63.5 60.8
    endloop
  endfacet
  facet normal -1 0 0
    outer loop
      vertex -10 63.5 50.8
      vertex -10 61.5 52.8
      vertex -10 63.5 60.8
    endloop
  endfacet
  facet normal -1 0 0
    outer loop
      vertex -10 53.5 50.8
      vertex -10 61.5 52.8
      vertex -10 63.5 50.8
    endloop
  endfacet
  facet normal -1 -0 0
    outer loop
      vertex -10 61.5 52.8
      vertex -10 53.5 50.8
      vertex -10 53.5 52.8
    endloop
  endfacet
  facet normal -1 -0 0
    outer loop
      vertex -10 63.5 60.8
      vertex -10 61.5 52.8
      vertex -10 61.5 60.8
    endloop
  endfacet
  facet normal 0 1 -0
    outer loop
      vertex -10 53.5 50.8
      vertex -20 53.5 52.8
      vertex -10 53.5 52.8
    endloop
  endfacet
  facet normal 0 1 0
    outer loop
      vertex -20 53.5 52.8
      vertex -10 53.5 50.8
      vertex -20 53.5 50.8
    endloop
  endfacet
  facet normal 1 0 0
    outer loop
      vertex -118.891 2 60.8
      vertex -118.891 0 60.8
      vertex -118.891 2 52.8
    endloop
  endfacet
  facet normal 1 -0 0
    outer loop
      vertex -118.891 2 52.8
      vertex -118.891 10 50.8
      vertex -118.891 10 52.8
    endloop
  endfacet
  facet normal 1 0 0
    outer loop
      vertex -118.891 2 52.8
      vertex -118.891 0 50.8
      vertex -118.891 10 50.8
    endloop
  endfacet
  facet normal 1 0 0
    outer loop
      vertex -118.891 0 50.8
      vertex -118.891 2 52.8
      vertex -118.891 0 60.8
    endloop
  endfacet
  facet normal 0 0 -1
    outer loop
      vertex -118.891 0 60.8
      vertex -108.891 2 60.8
      vertex -108.891 0 60.8
    endloop
  endfacet
  facet normal -0 0 -1
    outer loop
      vertex -108.891 2 60.8
      vertex -118.891 0 60.8
      vertex -118.891 2 60.8
    endloop
  endfacet
  facet normal -1 0 0
    outer loop
      vertex -108.891 10 50.8
      vertex -108.891 2 52.8
      vertex -108.891 10 52.8
    endloop
  endfacet
  facet normal -1 0 0
    outer loop
      vertex -108.891 0 50.8
      vertex -108.891 2 52.8
      vertex -108.891 10 50.8
    endloop
  endfacet
  facet normal -1 0 0
    outer loop
      vertex -108.891 0 60.8
      vertex -108.891 2 52.8
      vertex -108.891 0 50.8
    endloop
  endfacet
  facet normal -1 0 0
    outer loop
      vertex -108.891 2 52.8
      vertex -108.891 0 60.8
      vertex -108.891 2 60.8
    endloop
  endfacet
  facet normal 0 -1 0
    outer loop
      vertex -118.891 10 50.8
      vertex -108.891 10 52.8
      vertex -118.891 10 52.8
    endloop
  endfacet
  facet normal 0 -1 -0
    outer loop
      vertex -108.891 10 52.8
      vertex -118.891 10 50.8
      vertex -108.891 10 50.8
    endloop
  endfacet
  facet normal 1 0 0
    outer loop
      vertex -118.891 61.5 52.8
      vertex -118.891 63.5 60.8
      vertex -118.891 61.5 60.8
    endloop
  endfacet
  facet normal 1 0 0
    outer loop
      vertex -118.891 63.5 60.8
      vertex -118.891 61.5 52.8
      vertex -118.891 63.5 50.8
    endloop
  endfacet
  facet normal 1 0 0
    outer loop
      vertex -118.891 53.5 50.8
      vertex -118.891 61.5 52.8
      vertex -118.891 53.5 52.8
    endloop
  endfacet
  facet normal 1 0 0
    outer loop
      vertex -118.891 61.5 52.8
      vertex -118.891 53.5 50.8
      vertex -118.891 63.5 50.8
    endloop
  endfacet
  facet normal 0 0 -1
    outer loop
      vertex -118.891 61.5 60.8
      vertex -108.891 63.5 60.8
      vertex -108.891 61.5 60.8
    endloop
  endfacet
  facet normal -0 0 -1
    outer loop
      vertex -108.891 63.5 60.8
      vertex -118.891 61.5 60.8
      vertex -118.891 63.5 60.8
    endloop
  endfacet
  facet normal -1 0 0
    outer loop
      vertex -108.891 63.5 50.8
      vertex -108.891 61.5 52.8
      vertex -108.891 63.5 60.8
    endloop
  endfacet
  facet normal -1 0 0
    outer loop
      vertex -108.891 53.5 50.8
      vertex -108.891 61.5 52.8
      vertex -108.891 63.5 50.8
    endloop
  endfacet
  facet normal -1 -0 0
    outer loop
      vertex -108.891 61.5 52.8
      vertex -108.891 53.5 50.8
      vertex -108.891 53.5 52.8
    endloop
  endfacet
  facet normal -1 -0 0
    outer loop
      vertex -108.891 63.5 60.8
      vertex -108.891 61.5 52.8
      vertex -108.891 61.5 60.8
    endloop
  endfacet
  facet normal 0 1 -0
    outer loop
      vertex -108.891 53.5 50.8
      vertex -118.891 53.5 52.8
      vertex -108.891 53.5 52.8
    endloop
  endfacet
  facet normal 0 1 0
    outer loop
      vertex -118.891 53.5 52.8
      vertex -108.891 53.5 50.8
      vertex -118.891 53.5 50.8
    endloop
  endfacet
endsolid OpenSCAD_Model
