solid OpenSCAD_Model
  facet normal -1 0 0
    outer loop
      vertex 0 -8.5 13.0415
      vertex 0 8.5 18
      vertex 0 8.5 13.0415
    endloop
  endfacet
  facet normal -1 -0 0
    outer loop
      vertex 0 8.5 18
      vertex 0 -8.5 13.0415
      vertex 0 -8.5 18
    endloop
  endfacet
  facet normal 0 0 1
    outer loop
      vertex 165 8.5 9
      vertex 163.5 4.25 9
      vertex 165 4.25 9
    endloop
  endfacet
  facet normal 0 0 1
    outer loop
      vertex 163.5 4.25 9
      vertex 40 8.5 9
      vertex 163.5 -4.25 9
    endloop
  endfacet
  facet normal -0 0 1
    outer loop
      vertex 40 8.5 9
      vertex 163.5 4.25 9
      vertex 165 8.5 9
    endloop
  endfacet
  facet normal -0 0 1
    outer loop
      vertex 163.5 -4.25 9
      vertex 165 -8.5 9
      vertex 165 -4.25 9
    endloop
  endfacet
  facet normal 0 0 1
    outer loop
      vertex 40 -8.5 9
      vertex 163.5 -4.25 9
      vertex 40 8.5 9
    endloop
  endfacet
  facet normal 0 0 1
    outer loop
      vertex 163.5 -4.25 9
      vertex 40 -8.5 9
      vertex 165 -8.5 9
    endloop
  endfacet
  facet normal 1 -0 0
    outer loop
      vertex 40 -8.5 18
      vertex 40 8.5 9
      vertex 40 8.5 18
    endloop
  endfacet
  facet normal 1 0 0
    outer loop
      vertex 40 8.5 9
      vertex 40 -8.5 18
      vertex 40 -8.5 9
    endloop
  endfacet
  facet normal 0 -1 0
    outer loop
      vertex 7 -8.5 9
      vertex 0 -8.5 18
      vertex 0 -8.5 13.0415
    endloop
  endfacet
  facet normal 0 -1 0
    outer loop
      vertex 0 -8.5 18
      vertex 7 -8.5 9
      vertex 40 -8.5 18
    endloop
  endfacet
  facet normal 0 -1 0
    outer loop
      vertex 7 -8.5 9
      vertex 40 -8.5 9
      vertex 40 -8.5 18
    endloop
  endfacet
  facet normal 0 -1 0
    outer loop
      vertex 7 -8.5 1.04095e-15
      vertex 40 -8.5 9
      vertex 7 -8.5 9
    endloop
  endfacet
  facet normal 0 -1 0
    outer loop
      vertex 165 -8.5 1.04095e-15
      vertex 40 -8.5 9
      vertex 7 -8.5 1.04095e-15
    endloop
  endfacet
  facet normal 0 -1 0
    outer loop
      vertex 40 -8.5 9
      vertex 165 -8.5 1.04095e-15
      vertex 165 -8.5 9
    endloop
  endfacet
  facet normal -0 0 1
    outer loop
      vertex 0 8.5 18
      vertex 40 -8.5 18
      vertex 40 8.5 18
    endloop
  endfacet
  facet normal 0 0 1
    outer loop
      vertex 40 -8.5 18
      vertex 0 8.5 18
      vertex 0 -8.5 18
    endloop
  endfacet
  facet normal 0 1 -0
    outer loop
      vertex 165 8.5 -1.04095e-15
      vertex 40 8.5 9
      vertex 165 8.5 9
    endloop
  endfacet
  facet normal 0 1 0
    outer loop
      vertex 7 8.5 -1.04095e-15
      vertex 40 8.5 9
      vertex 165 8.5 -1.04095e-15
    endloop
  endfacet
  facet normal 0 1 0
    outer loop
      vertex 40 8.5 9
      vertex 7 8.5 -1.04095e-15
      vertex 7 8.5 9
    endloop
  endfacet
  facet normal 0 1 -0
    outer loop
      vertex 7 8.5 9
      vertex 0 8.5 18
      vertex 40 8.5 18
    endloop
  endfacet
  facet normal 0 1 0
    outer loop
      vertex 7 8.5 9
      vertex 40 8.5 18
      vertex 40 8.5 9
    endloop
  endfacet
  facet normal 0 1 0
    outer loop
      vertex 0 8.5 18
      vertex 7 8.5 9
      vertex 0 8.5 13.0415
    endloop
  endfacet
  facet normal -0.5 0 -0.866025
    outer loop
      vertex 0 -8.5 13.0415
      vertex 7 8.5 9
      vertex 7 -8.5 9
    endloop
  endfacet
  facet normal -0.5 0 -0.866025
    outer loop
      vertex 7 8.5 9
      vertex 0 -8.5 13.0415
      vertex 0 8.5 13.0415
    endloop
  endfacet
  facet normal -1 0 0
    outer loop
      vertex 7 -8.5 1.04095e-15
      vertex 7 8.5 9
      vertex 7 8.5 -1.04095e-15
    endloop
  endfacet
  facet normal -1 -0 0
    outer loop
      vertex 7 8.5 9
      vertex 7 -8.5 1.04095e-15
      vertex 7 -8.5 9
    endloop
  endfacet
  facet normal 0 -1.22465e-16 -1
    outer loop
      vertex 7 -8.5 1.04095e-15
      vertex 165 8.5 -1.04095e-15
      vertex 165 -8.5 1.04095e-15
    endloop
  endfacet
  facet normal -0 -1.22465e-16 -1
    outer loop
      vertex 165 8.5 -1.04095e-15
      vertex 7 -8.5 1.04095e-15
      vertex 7 8.5 -1.04095e-15
    endloop
  endfacet
  facet normal 1 0 0
    outer loop
      vertex 165 4.25 14.1667
      vertex 165 -4.25 14.1667
      vertex 165 4.25 9
    endloop
  endfacet
  facet normal 1 -0 0
    outer loop
      vertex 165 4.25 9
      vertex 165 8.5 -1.04095e-15
      vertex 165 8.5 9
    endloop
  endfacet
  facet normal 1 0 0
    outer loop
      vertex 165 -4.25 9
      vertex 165 4.25 9
      vertex 165 -4.25 14.1667
    endloop
  endfacet
  facet normal 1 0 0
    outer loop
      vertex 165 4.25 9
      vertex 165 -4.25 9
      vertex 165 8.5 -1.04095e-15
    endloop
  endfacet
  facet normal 1 0 0
    outer loop
      vertex 165 -8.5 1.04095e-15
      vertex 165 -4.25 9
      vertex 165 -8.5 9
    endloop
  endfacet
  facet normal 1 0 0
    outer loop
      vertex 165 -4.25 9
      vertex 165 -8.5 1.04095e-15
      vertex 165 8.5 -1.04095e-15
    endloop
  endfacet
  facet normal -1 0 0
    outer loop
      vertex 163.5 -4.25 9
      vertex 163.5 4.25 18
      vertex 163.5 4.25 9
    endloop
  endfacet
  facet normal -1 -0 0
    outer loop
      vertex 163.5 4.25 18
      vertex 163.5 -4.25 9
      vertex 163.5 -4.25 18
    endloop
  endfacet
  facet normal 0 -1 0
    outer loop
      vertex 165 -4.25 14.1667
      vertex 165 -4.25 18
      vertex 163.5 -4.25 18
    endloop
  endfacet
  facet normal 0 -1 0
    outer loop
      vertex 165 -4.25 18
      vertex 165 -4.25 14.1667
      vertex 168 -4.25 15.5
    endloop
  endfacet
  facet normal 0 -1 0
    outer loop
      vertex 163.5 -4.25 9
      vertex 165 -4.25 14.1667
      vertex 163.5 -4.25 18
    endloop
  endfacet
  facet normal 0 -1 -0
    outer loop
      vertex 165 -4.25 14.1667
      vertex 163.5 -4.25 9
      vertex 165 -4.25 9
    endloop
  endfacet
  facet normal -0 0 1
    outer loop
      vertex 163.5 4.25 18
      vertex 165 -4.25 18
      vertex 165 4.25 18
    endloop
  endfacet
  facet normal 0 0 1
    outer loop
      vertex 165 -4.25 18
      vertex 163.5 4.25 18
      vertex 163.5 -4.25 18
    endloop
  endfacet
  facet normal 0 1 0
    outer loop
      vertex 165 4.25 14.1667
      vertex 165 4.25 18
      vertex 168 4.25 15.5
    endloop
  endfacet
  facet normal 0 1 0
    outer loop
      vertex 165 4.25 18
      vertex 165 4.25 14.1667
      vertex 163.5 4.25 18
    endloop
  endfacet
  facet normal 0 1 0
    outer loop
      vertex 163.5 4.25 9
      vertex 165 4.25 14.1667
      vertex 165 4.25 9
    endloop
  endfacet
  facet normal 0 1 0
    outer loop
      vertex 165 4.25 14.1667
      vertex 163.5 4.25 9
      vertex 163.5 4.25 18
    endloop
  endfacet
  facet normal 0.406138 0 -0.913812
    outer loop
      vertex 165 -4.25 14.1667
      vertex 168 4.25 15.5
      vertex 168 -4.25 15.5
    endloop
  endfacet
  facet normal 0.406138 0 -0.913812
    outer loop
      vertex 168 4.25 15.5
      vertex 165 -4.25 14.1667
      vertex 165 4.25 14.1667
    endloop
  endfacet
  facet normal 0.640184 0 0.768221
    outer loop
      vertex 165 4.25 18
      vertex 168 -4.25 15.5
      vertex 168 4.25 15.5
    endloop
  endfacet
  facet normal 0.640184 0 0.768221
    outer loop
      vertex 168 -4.25 15.5
      vertex 165 4.25 18
      vertex 165 -4.25 18
    endloop
  endfacet
endsolid OpenSCAD_Model
