solid OpenSCAD_Model
  facet normal -0.965926 0.258819 0
    outer loop
      vertex 15.2954 29.05 3
      vertex 15.55 30 4
      vertex 15.55 30 3
    endloop
  endfacet
  facet normal -0.965926 0.258819 0
    outer loop
      vertex 15.55 30 4
      vertex 15.2954 29.05 3
      vertex 15.2954 29.05 4
    endloop
  endfacet
  facet normal 0.965926 0.258819 0
    outer loop
      vertex 12.0046 29.05 4
      vertex 11.75 30 3
      vertex 11.75 30 4
    endloop
  endfacet
  facet normal 0.965926 0.258819 0
    outer loop
      vertex 11.75 30 3
      vertex 12.0046 29.05 4
      vertex 12.0046 29.05 3
    endloop
  endfacet
  facet normal -0.258818 0.965926 0
    outer loop
      vertex 14.6 28.3546 3
      vertex 13.65 28.1 4
      vertex 14.6 28.3546 4
    endloop
  endfacet
  facet normal -0.258818 0.965926 0
    outer loop
      vertex 13.65 28.1 4
      vertex 14.6 28.3546 3
      vertex 13.65 28.1 3
    endloop
  endfacet
  facet normal -0.707107 0.707107 0
    outer loop
      vertex 14.6 28.3546 3
      vertex 15.2954 29.05 4
      vertex 15.2954 29.05 3
    endloop
  endfacet
  facet normal -0.707107 0.707107 0
    outer loop
      vertex 15.2954 29.05 4
      vertex 14.6 28.3546 3
      vertex 14.6 28.3546 4
    endloop
  endfacet
  facet normal 0.258818 0.965926 -0
    outer loop
      vertex 13.65 28.1 3
      vertex 12.7 28.3546 4
      vertex 13.65 28.1 4
    endloop
  endfacet
  facet normal 0.258818 0.965926 0
    outer loop
      vertex 12.7 28.3546 4
      vertex 13.65 28.1 3
      vertex 12.7 28.3546 3
    endloop
  endfacet
  facet normal -0.25882 -0.965926 0
    outer loop
      vertex 13.65 31.9 3
      vertex 14.6 31.6454 4
      vertex 13.65 31.9 4
    endloop
  endfacet
  facet normal -0.25882 -0.965926 -0
    outer loop
      vertex 14.6 31.6454 4
      vertex 13.65 31.9 3
      vertex 14.6 31.6454 3
    endloop
  endfacet
  facet normal 0.25882 -0.965926 0
    outer loop
      vertex 12.7 31.6454 3
      vertex 13.65 31.9 4
      vertex 12.7 31.6454 4
    endloop
  endfacet
  facet normal 0.25882 -0.965926 0
    outer loop
      vertex 13.65 31.9 4
      vertex 12.7 31.6454 3
      vertex 13.65 31.9 3
    endloop
  endfacet
  facet normal 0.965926 -0.258819 0
    outer loop
      vertex 11.75 30 4
      vertex 12.0046 30.95 3
      vertex 12.0046 30.95 4
    endloop
  endfacet
  facet normal 0.965926 -0.258819 0
    outer loop
      vertex 12.0046 30.95 3
      vertex 11.75 30 4
      vertex 11.75 30 3
    endloop
  endfacet
  facet normal 0.707107 0.707107 0
    outer loop
      vertex 12.7 28.3546 4
      vertex 12.0046 29.05 3
      vertex 12.0046 29.05 4
    endloop
  endfacet
  facet normal 0.707107 0.707107 0
    outer loop
      vertex 12.0046 29.05 3
      vertex 12.7 28.3546 4
      vertex 12.7 28.3546 3
    endloop
  endfacet
  facet normal 0.707107 -0.707107 0
    outer loop
      vertex 12.0046 30.95 4
      vertex 12.7 31.6454 3
      vertex 12.7 31.6454 4
    endloop
  endfacet
  facet normal 0.707107 -0.707107 0
    outer loop
      vertex 12.7 31.6454 3
      vertex 12.0046 30.95 4
      vertex 12.0046 30.95 3
    endloop
  endfacet
  facet normal -0.707107 -0.707107 0
    outer loop
      vertex 15.2954 30.95 3
      vertex 14.6 31.6454 4
      vertex 14.6 31.6454 3
    endloop
  endfacet
  facet normal -0.707107 -0.707107 0
    outer loop
      vertex 14.6 31.6454 4
      vertex 15.2954 30.95 3
      vertex 15.2954 30.95 4
    endloop
  endfacet
  facet normal -0.965926 -0.258819 0
    outer loop
      vertex 15.55 30 3
      vertex 15.2954 30.95 4
      vertex 15.2954 30.95 3
    endloop
  endfacet
  facet normal -0.965926 -0.258819 0
    outer loop
      vertex 15.2954 30.95 4
      vertex 15.55 30 3
      vertex 15.55 30 4
    endloop
  endfacet
  facet normal -0.80018 0.214408 -0.560126
    outer loop
      vertex 15.55 30 3
      vertex 17.65 30 0
      vertex 15.2954 29.05 3
    endloop
  endfacet
  facet normal 0.80018 -0.214408 -0.560126
    outer loop
      vertex 12.0046 30.95 3
      vertex 11.75 30 3
      vertex 9.65 30 0
    endloop
  endfacet
  facet normal -0.80018 -0.214408 -0.560126
    outer loop
      vertex 17.1141 32 2.44921e-016
      vertex 17.65 30 0
      vertex 15.2954 30.95 3
    endloop
  endfacet
  facet normal -0.585772 0.585773 -0.560126
    outer loop
      vertex 17.1141 28 0
      vertex 15.65 26.5359 0
      vertex 15.2954 29.05 3
    endloop
  endfacet
  facet normal -0.585772 -0.585772 -0.560126
    outer loop
      vertex 15.65 33.4641 4.24216e-016
      vertex 15.2954 30.95 3
      vertex 14.6 31.6454 3
    endloop
  endfacet
  facet normal -0.585772 -0.585773 -0.560126
    outer loop
      vertex 15.2954 30.95 3
      vertex 15.65 33.4641 4.24216e-016
      vertex 17.1141 32 2.44921e-016
    endloop
  endfacet
  facet normal 0.214408 -0.80018 -0.560126
    outer loop
      vertex 13.65 34 4.89843e-016
      vertex 12.7 31.6454 3
      vertex 11.65 33.4641 4.24216e-016
    endloop
  endfacet
  facet normal 0.585772 -0.585772 -0.560126
    outer loop
      vertex 12.7 31.6454 3
      vertex 12.0046 30.95 3
      vertex 11.65 33.4641 4.24216e-016
    endloop
  endfacet
  facet normal 0.80018 0.214408 -0.560126
    outer loop
      vertex 12.0046 29.05 3
      vertex 10.1859 28 0
      vertex 9.65 30 0
    endloop
  endfacet
  facet normal -0.214407 0.80018 -0.560126
    outer loop
      vertex 13.65 28.1 3
      vertex 14.6 28.3546 3
      vertex 13.65 26 0
    endloop
  endfacet
  facet normal -0.80018 0.214408 -0.560126
    outer loop
      vertex 17.65 30 0
      vertex 17.1141 28 0
      vertex 15.2954 29.05 3
    endloop
  endfacet
  facet normal -0.214408 -0.80018 -0.560126
    outer loop
      vertex 15.65 33.4641 4.24216e-016
      vertex 14.6 31.6454 3
      vertex 13.65 34 4.89843e-016
    endloop
  endfacet
  facet normal -0.214409 -0.80018 -0.560126
    outer loop
      vertex 13.65 34 4.89843e-016
      vertex 14.6 31.6454 3
      vertex 13.65 31.9 3
    endloop
  endfacet
  facet normal 0.585773 0.585773 -0.560126
    outer loop
      vertex 11.65 26.5359 0
      vertex 12.0046 29.05 3
      vertex 12.7 28.3546 3
    endloop
  endfacet
  facet normal 0.585772 0.585773 -0.560126
    outer loop
      vertex 12.0046 29.05 3
      vertex 11.65 26.5359 0
      vertex 10.1859 28 0
    endloop
  endfacet
  facet normal 0.214407 0.80018 -0.560126
    outer loop
      vertex 13.65 28.1 3
      vertex 13.65 26 0
      vertex 12.7 28.3546 3
    endloop
  endfacet
  facet normal 0.80018 0.214408 -0.560126
    outer loop
      vertex 11.75 30 3
      vertex 12.0046 29.05 3
      vertex 9.65 30 0
    endloop
  endfacet
  facet normal -0.214408 0.80018 -0.560126
    outer loop
      vertex 14.6 28.3546 3
      vertex 15.65 26.5359 0
      vertex 13.65 26 0
    endloop
  endfacet
  facet normal -0.585773 0.585773 -0.560126
    outer loop
      vertex 15.2954 29.05 3
      vertex 15.65 26.5359 0
      vertex 14.6 28.3546 3
    endloop
  endfacet
  facet normal -0.80018 -0.214408 -0.560126
    outer loop
      vertex 17.65 30 0
      vertex 15.55 30 3
      vertex 15.2954 30.95 3
    endloop
  endfacet
  facet normal 0.585772 -0.585773 -0.560126
    outer loop
      vertex 11.65 33.4641 4.24216e-016
      vertex 12.0046 30.95 3
      vertex 10.1859 32 2.44921e-016
    endloop
  endfacet
  facet normal 0.80018 -0.214408 -0.560126
    outer loop
      vertex 10.1859 32 2.44921e-016
      vertex 12.0046 30.95 3
      vertex 9.65 30 0
    endloop
  endfacet
  facet normal 0.214408 0.80018 -0.560126
    outer loop
      vertex 12.7 28.3546 3
      vertex 13.65 26 0
      vertex 11.65 26.5359 0
    endloop
  endfacet
  facet normal 0.214409 -0.80018 -0.560126
    outer loop
      vertex 13.65 34 4.89843e-016
      vertex 13.65 31.9 3
      vertex 12.7 31.6454 3
    endloop
  endfacet
  facet normal -0.965926 -0.258819 0
    outer loop
      vertex 17.1141 32 0
      vertex 17.65 30 0
      vertex 17.1141 32 2.44921e-016
    endloop
  endfacet
  facet normal 0.25882 -0.965926 0
    outer loop
      vertex 11.65 33.4641 0
      vertex 13.65 34 4.89843e-016
      vertex 11.65 33.4641 4.24216e-016
    endloop
  endfacet
  facet normal 0.25882 -0.965926 0
    outer loop
      vertex 13.65 34 4.89843e-016
      vertex 11.65 33.4641 0
      vertex 13.65 34 0
    endloop
  endfacet
  facet normal 0.965926 -0.258819 0
    outer loop
      vertex 10.1859 32 0
      vertex 10.1859 32 2.44921e-016
      vertex 9.65 30 0
    endloop
  endfacet
  facet normal -0.707106 -0.707107 0
    outer loop
      vertex 15.65 33.4641 0
      vertex 17.1141 32 2.44921e-016
      vertex 15.65 33.4641 4.24216e-016
    endloop
  endfacet
  facet normal -0.707106 -0.707107 -0
    outer loop
      vertex 17.1141 32 2.44921e-016
      vertex 15.65 33.4641 0
      vertex 17.1141 32 0
    endloop
  endfacet
  facet normal -0.25882 -0.965926 0
    outer loop
      vertex 13.65 34 0
      vertex 15.65 33.4641 4.24216e-016
      vertex 13.65 34 4.89843e-016
    endloop
  endfacet
  facet normal -0.25882 -0.965926 -0
    outer loop
      vertex 15.65 33.4641 4.24216e-016
      vertex 13.65 34 0
      vertex 15.65 33.4641 0
    endloop
  endfacet
  facet normal 0.707107 -0.707107 0
    outer loop
      vertex 10.1859 32 0
      vertex 11.65 33.4641 4.24216e-016
      vertex 10.1859 32 2.44921e-016
    endloop
  endfacet
  facet normal 0.707107 -0.707107 0
    outer loop
      vertex 11.65 33.4641 4.24216e-016
      vertex 10.1859 32 0
      vertex 11.65 33.4641 0
    endloop
  endfacet
  facet normal 1 0 0
    outer loop
      vertex 4 60 23.3
      vertex 4 41.5 13.65
      vertex 4 60 4
    endloop
  endfacet
  facet normal 1 0 0
    outer loop
      vertex 4 60 23.3
      vertex 4 41.2454 14.6
      vertex 4 41.5 13.65
    endloop
  endfacet
  facet normal 1 0 0
    outer loop
      vertex 4 60 23.3
      vertex 4 40.55 15.2954
      vertex 4 41.2454 14.6
    endloop
  endfacet
  facet normal 1 0 0
    outer loop
      vertex 4 60 23.3
      vertex 4 39.6 15.55
      vertex 4 40.55 15.2954
    endloop
  endfacet
  facet normal 1 -0 0
    outer loop
      vertex 4 0 23.3
      vertex 4 39.6 15.55
      vertex 4 60 23.3
    endloop
  endfacet
  facet normal 1 0 0
    outer loop
      vertex 4 37.9546 14.6
      vertex 4 21.7 13.65
      vertex 4 37.7 13.65
    endloop
  endfacet
  facet normal 1 0 0
    outer loop
      vertex 4 21.4454 14.6
      vertex 4 37.9546 14.6
      vertex 4 38.65 15.2954
    endloop
  endfacet
  facet normal 1 0 0
    outer loop
      vertex 4 39.6 15.55
      vertex 4 19.8 15.55
      vertex 4 38.65 15.2954
    endloop
  endfacet
  facet normal 1 0 0
    outer loop
      vertex 4 37.9546 14.6
      vertex 4 21.4454 14.6
      vertex 4 21.7 13.65
    endloop
  endfacet
  facet normal 1 0 0
    outer loop
      vertex 4 38.65 15.2954
      vertex 4 20.75 15.2954
      vertex 4 21.4454 14.6
    endloop
  endfacet
  facet normal 1 0 0
    outer loop
      vertex 4 38.65 15.2954
      vertex 4 19.8 15.55
      vertex 4 20.75 15.2954
    endloop
  endfacet
  facet normal 1 0 0
    outer loop
      vertex 4 18.1546 14.6
      vertex 4 0 23.3
      vertex 4 17.9 13.65
    endloop
  endfacet
  facet normal 1 0 0
    outer loop
      vertex 4 18.85 15.2954
      vertex 4 0 23.3
      vertex 4 18.1546 14.6
    endloop
  endfacet
  facet normal 1 0 0
    outer loop
      vertex 4 19.8 15.55
      vertex 4 0 23.3
      vertex 4 18.85 15.2954
    endloop
  endfacet
  facet normal 1 0 0
    outer loop
      vertex 4 39.6 15.55
      vertex 4 0 23.3
      vertex 4 19.8 15.55
    endloop
  endfacet
  facet normal 1 -0 0
    outer loop
      vertex 4 41.2454 12.7
      vertex 4 60 4
      vertex 4 41.5 13.65
    endloop
  endfacet
  facet normal 1 -0 0
    outer loop
      vertex 4 40.55 12.0046
      vertex 4 60 4
      vertex 4 41.2454 12.7
    endloop
  endfacet
  facet normal 1 -0 0
    outer loop
      vertex 4 39.6 11.75
      vertex 4 60 4
      vertex 4 40.55 12.0046
    endloop
  endfacet
  facet normal 1 0 0
    outer loop
      vertex 4 19.8 11.75
      vertex 4 39.6 11.75
      vertex 4 38.65 12.0046
    endloop
  endfacet
  facet normal 1 -0 0
    outer loop
      vertex 4 21.7 13.65
      vertex 4 37.9546 12.7
      vertex 4 37.7 13.65
    endloop
  endfacet
  facet normal 1 0 0
    outer loop
      vertex 4 21.4454 12.7
      vertex 4 37.9546 12.7
      vertex 4 21.7 13.65
    endloop
  endfacet
  facet normal 1 0 0
    outer loop
      vertex 4 37.9546 12.7
      vertex 4 21.4454 12.7
      vertex 4 38.65 12.0046
    endloop
  endfacet
  facet normal 1 0 0
    outer loop
      vertex 4 20.75 12.0046
      vertex 4 38.65 12.0046
      vertex 4 21.4454 12.7
    endloop
  endfacet
  facet normal 1 0 0
    outer loop
      vertex 4 19.8 11.75
      vertex 4 38.65 12.0046
      vertex 4 20.75 12.0046
    endloop
  endfacet
  facet normal 1 0 0
    outer loop
      vertex 4 0 4
      vertex 4 39.6 11.75
      vertex 4 19.8 11.75
    endloop
  endfacet
  facet normal 1 0 0
    outer loop
      vertex 4 0 4
      vertex 4 17.9 13.65
      vertex 4 0 23.3
    endloop
  endfacet
  facet normal 1 0 0
    outer loop
      vertex 4 17.9 13.65
      vertex 4 0 4
      vertex 4 18.1546 12.7
    endloop
  endfacet
  facet normal 1 0 0
    outer loop
      vertex 4 39.6 11.75
      vertex 4 0 4
      vertex 4 60 4
    endloop
  endfacet
  facet normal 1 0 0
    outer loop
      vertex 4 18.85 12.0046
      vertex 4 0 4
      vertex 4 19.8 11.75
    endloop
  endfacet
  facet normal 1 0 0
    outer loop
      vertex 4 18.1546 12.7
      vertex 4 0 4
      vertex 4 18.85 12.0046
    endloop
  endfacet
  facet normal -1 0 0
    outer loop
      vertex 23.3 60 4
      vertex 23.3 41.5 13.65
      vertex 23.3 60 23.3
    endloop
  endfacet
  facet normal -1 0 0
    outer loop
      vertex 23.3 60 4
      vertex 23.3 41.2454 12.7
      vertex 23.3 41.5 13.65
    endloop
  endfacet
  facet normal -1 0 0
    outer loop
      vertex 23.3 60 4
      vertex 23.3 40.55 12.0046
      vertex 23.3 41.2454 12.7
    endloop
  endfacet
  facet normal -1 0 0
    outer loop
      vertex 23.3 60 4
      vertex 23.3 39.6 11.75
      vertex 23.3 40.55 12.0046
    endloop
  endfacet
  facet normal -1 0 0
    outer loop
      vertex 23.3 0 4
      vertex 23.3 39.6 11.75
      vertex 23.3 60 4
    endloop
  endfacet
  facet normal -1 0 0
    outer loop
      vertex 23.3 37.9546 12.7
      vertex 23.3 21.7 13.65
      vertex 23.3 37.7 13.65
    endloop
  endfacet
  facet normal -1 0 0
    outer loop
      vertex 23.3 21.4454 12.7
      vertex 23.3 37.9546 12.7
      vertex 23.3 38.65 12.0046
    endloop
  endfacet
  facet normal -1 0 0
    outer loop
      vertex 23.3 39.6 11.75
      vertex 23.3 19.8 11.75
      vertex 23.3 38.65 12.0046
    endloop
  endfacet
  facet normal -1 0 0
    outer loop
      vertex 23.3 37.9546 12.7
      vertex 23.3 21.4454 12.7
      vertex 23.3 21.7 13.65
    endloop
  endfacet
  facet normal -1 0 0
    outer loop
      vertex 23.3 38.65 12.0046
      vertex 23.3 20.75 12.0046
      vertex 23.3 21.4454 12.7
    endloop
  endfacet
  facet normal -1 -0 0
    outer loop
      vertex 23.3 38.65 12.0046
      vertex 23.3 19.8 11.75
      vertex 23.3 20.75 12.0046
    endloop
  endfacet
  facet normal -1 -0 0
    outer loop
      vertex 23.3 18.1546 12.7
      vertex 23.3 0 4
      vertex 23.3 17.9 13.65
    endloop
  endfacet
  facet normal -1 -0 0
    outer loop
      vertex 23.3 18.85 12.0046
      vertex 23.3 0 4
      vertex 23.3 18.1546 12.7
    endloop
  endfacet
  facet normal -1 -0 0
    outer loop
      vertex 23.3 19.8 11.75
      vertex 23.3 0 4
      vertex 23.3 18.85 12.0046
    endloop
  endfacet
  facet normal -1 -0 0
    outer loop
      vertex 23.3 39.6 11.75
      vertex 23.3 0 4
      vertex 23.3 19.8 11.75
    endloop
  endfacet
  facet normal -1 0 0
    outer loop
      vertex 23.3 41.2454 14.6
      vertex 23.3 60 23.3
      vertex 23.3 41.5 13.65
    endloop
  endfacet
  facet normal -1 0 0
    outer loop
      vertex 23.3 40.55 15.2954
      vertex 23.3 60 23.3
      vertex 23.3 41.2454 14.6
    endloop
  endfacet
  facet normal -1 0 0
    outer loop
      vertex 23.3 39.6 15.55
      vertex 23.3 60 23.3
      vertex 23.3 40.55 15.2954
    endloop
  endfacet
  facet normal -1 0 0
    outer loop
      vertex 23.3 19.8 15.55
      vertex 23.3 39.6 15.55
      vertex 23.3 38.65 15.2954
    endloop
  endfacet
  facet normal -1 0 0
    outer loop
      vertex 23.3 21.7 13.65
      vertex 23.3 37.9546 14.6
      vertex 23.3 37.7 13.65
    endloop
  endfacet
  facet normal -1 0 0
    outer loop
      vertex 23.3 21.4454 14.6
      vertex 23.3 37.9546 14.6
      vertex 23.3 21.7 13.65
    endloop
  endfacet
  facet normal -1 0 0
    outer loop
      vertex 23.3 37.9546 14.6
      vertex 23.3 21.4454 14.6
      vertex 23.3 38.65 15.2954
    endloop
  endfacet
  facet normal -1 0 0
    outer loop
      vertex 23.3 20.75 15.2954
      vertex 23.3 38.65 15.2954
      vertex 23.3 21.4454 14.6
    endloop
  endfacet
  facet normal -1 0 0
    outer loop
      vertex 23.3 19.8 15.55
      vertex 23.3 38.65 15.2954
      vertex 23.3 20.75 15.2954
    endloop
  endfacet
  facet normal -1 0 0
    outer loop
      vertex 23.3 0 23.3
      vertex 23.3 39.6 15.55
      vertex 23.3 19.8 15.55
    endloop
  endfacet
  facet normal -1 0 0
    outer loop
      vertex 23.3 0 23.3
      vertex 23.3 17.9 13.65
      vertex 23.3 0 4
    endloop
  endfacet
  facet normal -1 0 0
    outer loop
      vertex 23.3 17.9 13.65
      vertex 23.3 0 23.3
      vertex 23.3 18.1546 14.6
    endloop
  endfacet
  facet normal -1 0 0
    outer loop
      vertex 23.3 39.6 15.55
      vertex 23.3 0 23.3
      vertex 23.3 60 23.3
    endloop
  endfacet
  facet normal -1 0 0
    outer loop
      vertex 23.3 18.85 15.2954
      vertex 23.3 0 23.3
      vertex 23.3 19.8 15.55
    endloop
  endfacet
  facet normal -1 0 0
    outer loop
      vertex 23.3 18.1546 14.6
      vertex 23.3 0 23.3
      vertex 23.3 18.85 15.2954
    endloop
  endfacet
  facet normal 0 0 1
    outer loop
      vertex 23.3 60 4
      vertex 15.55 30 4
      vertex 23.3 0 4
    endloop
  endfacet
  facet normal 0 0 1
    outer loop
      vertex 23.3 60 4
      vertex 15.2954 30.95 4
      vertex 15.55 30 4
    endloop
  endfacet
  facet normal 0 0 1
    outer loop
      vertex 23.3 60 4
      vertex 14.6 31.6454 4
      vertex 15.2954 30.95 4
    endloop
  endfacet
  facet normal 0 0 1
    outer loop
      vertex 23.3 60 4
      vertex 13.65 31.9 4
      vertex 14.6 31.6454 4
    endloop
  endfacet
  facet normal -0 0 1
    outer loop
      vertex 4 60 4
      vertex 13.65 31.9 4
      vertex 23.3 60 4
    endloop
  endfacet
  facet normal 0 0 1
    outer loop
      vertex 13.65 31.9 4
      vertex 4 60 4
      vertex 12.7 31.6454 4
    endloop
  endfacet
  facet normal 0 0 1
    outer loop
      vertex 12.0046 30.95 4
      vertex 4 60 4
      vertex 11.75 30 4
    endloop
  endfacet
  facet normal 0 0 1
    outer loop
      vertex 12.7 31.6454 4
      vertex 4 60 4
      vertex 12.0046 30.95 4
    endloop
  endfacet
  facet normal -0 0 1
    outer loop
      vertex 15.2954 29.05 4
      vertex 23.3 0 4
      vertex 15.55 30 4
    endloop
  endfacet
  facet normal -0 0 1
    outer loop
      vertex 14.6 28.3546 4
      vertex 23.3 0 4
      vertex 15.2954 29.05 4
    endloop
  endfacet
  facet normal -0 0 1
    outer loop
      vertex 13.65 28.1 4
      vertex 23.3 0 4
      vertex 14.6 28.3546 4
    endloop
  endfacet
  facet normal 0 0 1
    outer loop
      vertex 4 0 4
      vertex 13.65 28.1 4
      vertex 12.7 28.3546 4
    endloop
  endfacet
  facet normal 0 0 1
    outer loop
      vertex 4 0 4
      vertex 12.7 28.3546 4
      vertex 12.0046 29.05 4
    endloop
  endfacet
  facet normal 0 0 1
    outer loop
      vertex 13.65 28.1 4
      vertex 4 0 4
      vertex 23.3 0 4
    endloop
  endfacet
  facet normal 0 0 1
    outer loop
      vertex 11.75 30 4
      vertex 4 0 4
      vertex 12.0046 29.05 4
    endloop
  endfacet
  facet normal 0 0 1
    outer loop
      vertex 4 0 4
      vertex 11.75 30 4
      vertex 4 60 4
    endloop
  endfacet
  facet normal -1 0 0
    outer loop
      vertex 0 60 0
      vertex 0 43.6 13.65
      vertex 0 60 23.3
    endloop
  endfacet
  facet normal -1 0 0
    outer loop
      vertex 0 60 0
      vertex 0 43.0641 11.65
      vertex 0 43.6 13.65
    endloop
  endfacet
  facet normal -1 0 0
    outer loop
      vertex 0 60 0
      vertex 0 41.6 10.1859
      vertex 0 43.0641 11.65
    endloop
  endfacet
  facet normal -1 0 0
    outer loop
      vertex 0 60 0
      vertex 0 39.6 9.65
      vertex 0 41.6 10.1859
    endloop
  endfacet
  facet normal -1 0 0
    outer loop
      vertex 0 0 0
      vertex 0 39.6 9.65
      vertex 0 60 0
    endloop
  endfacet
  facet normal -1 0 0
    outer loop
      vertex 0 36.1359 11.65
      vertex 0 23.8 13.65
      vertex 0 35.6 13.65
    endloop
  endfacet
  facet normal -1 0 0
    outer loop
      vertex 0 23.2641 11.65
      vertex 0 36.1359 11.65
      vertex 0 37.6 10.1859
    endloop
  endfacet
  facet normal -1 0 0
    outer loop
      vertex 0 39.6 9.65
      vertex 0 19.8 9.65
      vertex 0 37.6 10.1859
    endloop
  endfacet
  facet normal -1 0 0
    outer loop
      vertex 0 36.1359 11.65
      vertex 0 23.2641 11.65
      vertex 0 23.8 13.65
    endloop
  endfacet
  facet normal -1 0 0
    outer loop
      vertex 0 37.6 10.1859
      vertex 0 21.8 10.1859
      vertex 0 23.2641 11.65
    endloop
  endfacet
  facet normal -1 -0 0
    outer loop
      vertex 0 37.6 10.1859
      vertex 0 19.8 9.65
      vertex 0 21.8 10.1859
    endloop
  endfacet
  facet normal -1 -0 0
    outer loop
      vertex 0 16.3359 11.65
      vertex 0 0 0
      vertex 0 15.8 13.65
    endloop
  endfacet
  facet normal -1 -0 0
    outer loop
      vertex 0 17.8 10.1859
      vertex 0 0 0
      vertex 0 16.3359 11.65
    endloop
  endfacet
  facet normal -1 -0 0
    outer loop
      vertex 0 19.8 9.65
      vertex 0 0 0
      vertex 0 17.8 10.1859
    endloop
  endfacet
  facet normal -1 -0 0
    outer loop
      vertex 0 39.6 9.65
      vertex 0 0 0
      vertex 0 19.8 9.65
    endloop
  endfacet
  facet normal -1 0 0
    outer loop
      vertex 0 43.0641 15.65
      vertex 0 60 23.3
      vertex 0 43.6 13.65
    endloop
  endfacet
  facet normal -1 0 0
    outer loop
      vertex 0 41.6 17.1141
      vertex 0 60 23.3
      vertex 0 43.0641 15.65
    endloop
  endfacet
  facet normal -1 0 0
    outer loop
      vertex 0 39.6 17.65
      vertex 0 60 23.3
      vertex 0 41.6 17.1141
    endloop
  endfacet
  facet normal -1 0 0
    outer loop
      vertex 0 19.8 17.65
      vertex 0 39.6 17.65
      vertex 0 37.6 17.1141
    endloop
  endfacet
  facet normal -1 0 0
    outer loop
      vertex 0 23.8 13.65
      vertex 0 36.1359 15.65
      vertex 0 35.6 13.65
    endloop
  endfacet
  facet normal -1 0 0
    outer loop
      vertex 0 23.2641 15.65
      vertex 0 36.1359 15.65
      vertex 0 23.8 13.65
    endloop
  endfacet
  facet normal -1 0 0
    outer loop
      vertex 0 36.1359 15.65
      vertex 0 23.2641 15.65
      vertex 0 37.6 17.1141
    endloop
  endfacet
  facet normal -1 0 0
    outer loop
      vertex 0 21.8 17.1141
      vertex 0 37.6 17.1141
      vertex 0 23.2641 15.65
    endloop
  endfacet
  facet normal -1 0 0
    outer loop
      vertex 0 19.8 17.65
      vertex 0 37.6 17.1141
      vertex 0 21.8 17.1141
    endloop
  endfacet
  facet normal -1 0 0
    outer loop
      vertex 0 39.6 17.65
      vertex 0 19.8 17.65
      vertex 0 60 23.3
    endloop
  endfacet
  facet normal -1 0 0
    outer loop
      vertex 0 0 23.3
      vertex 0 15.8 13.65
      vertex 0 0 0
    endloop
  endfacet
  facet normal -1 0 0
    outer loop
      vertex 0 15.8 13.65
      vertex 0 0 23.3
      vertex 0 16.3359 15.65
    endloop
  endfacet
  facet normal -1 0 0
    outer loop
      vertex 0 19.8 17.65
      vertex 0 0 23.3
      vertex 0 60 23.3
    endloop
  endfacet
  facet normal -1 0 0
    outer loop
      vertex 0 17.8 17.1141
      vertex 0 0 23.3
      vertex 0 19.8 17.65
    endloop
  endfacet
  facet normal -1 0 0
    outer loop
      vertex 0 16.3359 15.65
      vertex 0 0 23.3
      vertex 0 17.8 17.1141
    endloop
  endfacet
  facet normal -0 0 1
    outer loop
      vertex 0 60 23.3
      vertex 4 0 23.3
      vertex 4 60 23.3
    endloop
  endfacet
  facet normal 0 0 1
    outer loop
      vertex 4 0 23.3
      vertex 0 60 23.3
      vertex 0 0 23.3
    endloop
  endfacet
  facet normal -0 0 1
    outer loop
      vertex 23.3 60 23.3
      vertex 30.3 0 23.3
      vertex 30.3 60 23.3
    endloop
  endfacet
  facet normal 0 0 1
    outer loop
      vertex 30.3 0 23.3
      vertex 23.3 60 23.3
      vertex 23.3 0 23.3
    endloop
  endfacet
  facet normal 1 0 0
    outer loop
      vertex 30.3 60 23.3
      vertex 30.3 41.5 13.65
      vertex 30.3 60 4
    endloop
  endfacet
  facet normal 1 0 0
    outer loop
      vertex 30.3 60 23.3
      vertex 30.3 41.2454 14.6
      vertex 30.3 41.5 13.65
    endloop
  endfacet
  facet normal 1 0 0
    outer loop
      vertex 30.3 60 23.3
      vertex 30.3 40.55 15.2954
      vertex 30.3 41.2454 14.6
    endloop
  endfacet
  facet normal 1 0 0
    outer loop
      vertex 30.3 60 23.3
      vertex 30.3 39.6 15.55
      vertex 30.3 40.55 15.2954
    endloop
  endfacet
  facet normal 1 -0 0
    outer loop
      vertex 30.3 0 23.3
      vertex 30.3 39.6 15.55
      vertex 30.3 60 23.3
    endloop
  endfacet
  facet normal 1 0 0
    outer loop
      vertex 30.3 37.9546 14.6
      vertex 30.3 21.7 13.65
      vertex 30.3 37.7 13.65
    endloop
  endfacet
  facet normal 1 0 0
    outer loop
      vertex 30.3 21.4454 14.6
      vertex 30.3 37.9546 14.6
      vertex 30.3 38.65 15.2954
    endloop
  endfacet
  facet normal 1 0 0
    outer loop
      vertex 30.3 39.6 15.55
      vertex 30.3 19.8 15.55
      vertex 30.3 38.65 15.2954
    endloop
  endfacet
  facet normal 1 0 0
    outer loop
      vertex 30.3 37.9546 14.6
      vertex 30.3 21.4454 14.6
      vertex 30.3 21.7 13.65
    endloop
  endfacet
  facet normal 1 0 0
    outer loop
      vertex 30.3 38.65 15.2954
      vertex 30.3 20.75 15.2954
      vertex 30.3 21.4454 14.6
    endloop
  endfacet
  facet normal 1 0 0
    outer loop
      vertex 30.3 38.65 15.2954
      vertex 30.3 19.8 15.55
      vertex 30.3 20.75 15.2954
    endloop
  endfacet
  facet normal 1 0 0
    outer loop
      vertex 30.3 18.1546 14.6
      vertex 30.3 0 23.3
      vertex 30.3 17.9 13.65
    endloop
  endfacet
  facet normal 1 0 0
    outer loop
      vertex 30.3 18.85 15.2954
      vertex 30.3 0 23.3
      vertex 30.3 18.1546 14.6
    endloop
  endfacet
  facet normal 1 0 0
    outer loop
      vertex 30.3 19.8 15.55
      vertex 30.3 0 23.3
      vertex 30.3 18.85 15.2954
    endloop
  endfacet
  facet normal 1 0 0
    outer loop
      vertex 30.3 39.6 15.55
      vertex 30.3 0 23.3
      vertex 30.3 19.8 15.55
    endloop
  endfacet
  facet normal 1 -0 0
    outer loop
      vertex 30.3 41.2454 12.7
      vertex 30.3 60 4
      vertex 30.3 41.5 13.65
    endloop
  endfacet
  facet normal 1 -0 0
    outer loop
      vertex 30.3 40.55 12.0046
      vertex 30.3 60 4
      vertex 30.3 41.2454 12.7
    endloop
  endfacet
  facet normal 1 -0 0
    outer loop
      vertex 30.3 39.6 11.75
      vertex 30.3 60 4
      vertex 30.3 40.55 12.0046
    endloop
  endfacet
  facet normal 1 0 0
    outer loop
      vertex 30.3 19.8 11.75
      vertex 30.3 39.6 11.75
      vertex 30.3 38.65 12.0046
    endloop
  endfacet
  facet normal 1 -0 0
    outer loop
      vertex 30.3 21.7 13.65
      vertex 30.3 37.9546 12.7
      vertex 30.3 37.7 13.65
    endloop
  endfacet
  facet normal 1 0 0
    outer loop
      vertex 30.3 21.4454 12.7
      vertex 30.3 37.9546 12.7
      vertex 30.3 21.7 13.65
    endloop
  endfacet
  facet normal 1 0 0
    outer loop
      vertex 30.3 37.9546 12.7
      vertex 30.3 21.4454 12.7
      vertex 30.3 38.65 12.0046
    endloop
  endfacet
  facet normal 1 0 0
    outer loop
      vertex 30.3 20.75 12.0046
      vertex 30.3 38.65 12.0046
      vertex 30.3 21.4454 12.7
    endloop
  endfacet
  facet normal 1 0 0
    outer loop
      vertex 30.3 19.8 11.75
      vertex 30.3 38.65 12.0046
      vertex 30.3 20.75 12.0046
    endloop
  endfacet
  facet normal 1 0 0
    outer loop
      vertex 30.3 0 4
      vertex 30.3 39.6 11.75
      vertex 30.3 19.8 11.75
    endloop
  endfacet
  facet normal 1 0 0
    outer loop
      vertex 30.3 0 4
      vertex 30.3 17.9 13.65
      vertex 30.3 0 23.3
    endloop
  endfacet
  facet normal 1 0 0
    outer loop
      vertex 30.3 17.9 13.65
      vertex 30.3 0 4
      vertex 30.3 18.1546 12.7
    endloop
  endfacet
  facet normal 1 0 0
    outer loop
      vertex 30.3 39.6 11.75
      vertex 30.3 0 4
      vertex 30.3 60 4
    endloop
  endfacet
  facet normal 1 0 0
    outer loop
      vertex 30.3 18.85 12.0046
      vertex 30.3 0 4
      vertex 30.3 19.8 11.75
    endloop
  endfacet
  facet normal 1 0 0
    outer loop
      vertex 30.3 18.1546 12.7
      vertex 30.3 0 4
      vertex 30.3 18.85 12.0046
    endloop
  endfacet
  facet normal 0 0 -1
    outer loop
      vertex 50.3 0 0
      vertex 44.3 30 0
      vertex 50.3 60 0
    endloop
  endfacet
  facet normal 0 0 -1
    outer loop
      vertex 50.3 0 0
      vertex 43.7641 28 0
      vertex 44.3 30 0
    endloop
  endfacet
  facet normal 0 0 -1
    outer loop
      vertex 50.3 0 0
      vertex 42.3 26.5359 0
      vertex 43.7641 28 0
    endloop
  endfacet
  facet normal 0 0 -1
    outer loop
      vertex 50.3 0 0
      vertex 40.3 26 0
      vertex 42.3 26.5359 0
    endloop
  endfacet
  facet normal 0 0 -1
    outer loop
      vertex 50.3 0 0
      vertex 38.3 26.5359 0
      vertex 40.3 26 0
    endloop
  endfacet
  facet normal 0 0 -1
    outer loop
      vertex 15.65 26.5359 0
      vertex 38.3 26.5359 0
      vertex 50.3 0 0
    endloop
  endfacet
  facet normal 0 0 -1
    outer loop
      vertex 36.8359 28 0
      vertex 17.65 30 0
      vertex 36.3 30 0
    endloop
  endfacet
  facet normal 0 0 -1
    outer loop
      vertex 38.3 26.5359 0
      vertex 15.65 26.5359 0
      vertex 36.8359 28 0
    endloop
  endfacet
  facet normal 0 0 -1
    outer loop
      vertex 36.8359 28 0
      vertex 17.1141 28 0
      vertex 17.65 30 0
    endloop
  endfacet
  facet normal -0 0 -1
    outer loop
      vertex 36.8359 28 0
      vertex 15.65 26.5359 0
      vertex 17.1141 28 0
    endloop
  endfacet
  facet normal 0 0 -1
    outer loop
      vertex 0 0 0
      vertex 15.65 26.5359 0
      vertex 50.3 0 0
    endloop
  endfacet
  facet normal 0 0 -1
    outer loop
      vertex 15.65 26.5359 0
      vertex 0 0 0
      vertex 13.65 26 0
    endloop
  endfacet
  facet normal -0 0 -1
    outer loop
      vertex 10.1859 28 0
      vertex 0 0 0
      vertex 9.65 30 0
    endloop
  endfacet
  facet normal -0 0 -1
    outer loop
      vertex 11.65 26.5359 0
      vertex 0 0 0
      vertex 10.1859 28 0
    endloop
  endfacet
  facet normal -0 0 -1
    outer loop
      vertex 13.65 26 0
      vertex 0 0 0
      vertex 11.65 26.5359 0
    endloop
  endfacet
  facet normal 0 0 -1
    outer loop
      vertex 43.7641 32 0
      vertex 50.3 60 0
      vertex 44.3 30 0
    endloop
  endfacet
  facet normal 0 0 -1
    outer loop
      vertex 42.3 33.4641 0
      vertex 50.3 60 0
      vertex 43.7641 32 0
    endloop
  endfacet
  facet normal 0 0 -1
    outer loop
      vertex 40.3 34 0
      vertex 50.3 60 0
      vertex 42.3 33.4641 0
    endloop
  endfacet
  facet normal 0 0 -1
    outer loop
      vertex 38.3 33.4641 0
      vertex 50.3 60 0
      vertex 40.3 34 0
    endloop
  endfacet
  facet normal 0 0 -1
    outer loop
      vertex 15.65 33.4641 0
      vertex 38.3 33.4641 0
      vertex 36.8359 32 0
    endloop
  endfacet
  facet normal 0 0 -1
    outer loop
      vertex 17.65 30 0
      vertex 36.8359 32 0
      vertex 36.3 30 0
    endloop
  endfacet
  facet normal 0 0 -1
    outer loop
      vertex 17.1141 32 0
      vertex 36.8359 32 0
      vertex 17.65 30 0
    endloop
  endfacet
  facet normal 0 0 -1
    outer loop
      vertex 15.65 33.4641 0
      vertex 36.8359 32 0
      vertex 17.1141 32 0
    endloop
  endfacet
  facet normal 0 0 -1
    outer loop
      vertex 38.3 33.4641 0
      vertex 15.65 33.4641 0
      vertex 50.3 60 0
    endloop
  endfacet
  facet normal 0 0 -1
    outer loop
      vertex 0 60 0
      vertex 15.65 33.4641 0
      vertex 13.65 34 0
    endloop
  endfacet
  facet normal 0 0 -1
    outer loop
      vertex 0 60 0
      vertex 13.65 34 0
      vertex 11.65 33.4641 0
    endloop
  endfacet
  facet normal 0 0 -1
    outer loop
      vertex 0 60 0
      vertex 9.65 30 0
      vertex 0 0 0
    endloop
  endfacet
  facet normal 0 0 -1
    outer loop
      vertex 15.65 33.4641 0
      vertex 0 60 0
      vertex 50.3 60 0
    endloop
  endfacet
  facet normal 0 0 -1
    outer loop
      vertex 10.1859 32 0
      vertex 0 60 0
      vertex 11.65 33.4641 0
    endloop
  endfacet
  facet normal 0 0 -1
    outer loop
      vertex 9.65 30 0
      vertex 0 60 0
      vertex 10.1859 32 0
    endloop
  endfacet
  facet normal 0 -1 0
    outer loop
      vertex 0 0 23.3
      vertex 4 0 4
      vertex 4 0 23.3
    endloop
  endfacet
  facet normal 0 -1 0
    outer loop
      vertex 0 0 0
      vertex 23.3 0 4
      vertex 4 0 4
    endloop
  endfacet
  facet normal 0 -1 0
    outer loop
      vertex 50.3 0 0
      vertex 23.3 0 4
      vertex 0 0 0
    endloop
  endfacet
  facet normal 0 -1 0
    outer loop
      vertex 0 0 0
      vertex 4 0 4
      vertex 0 0 23.3
    endloop
  endfacet
  facet normal 0 -1 0
    outer loop
      vertex 23.3 0 4
      vertex 50.3 0 0
      vertex 30.3 0 4
    endloop
  endfacet
  facet normal 0 -1 0
    outer loop
      vertex 30.3 0 4
      vertex 50.3 0 0
      vertex 50.3 0 4
    endloop
  endfacet
  facet normal 0 -1 0
    outer loop
      vertex 23.3 0 4
      vertex 30.3 0 23.3
      vertex 23.3 0 23.3
    endloop
  endfacet
  facet normal 0 -1 -0
    outer loop
      vertex 30.3 0 23.3
      vertex 23.3 0 4
      vertex 30.3 0 4
    endloop
  endfacet
  facet normal 0 1 -0
    outer loop
      vertex 50.3 60 0
      vertex 30.3 60 4
      vertex 50.3 60 4
    endloop
  endfacet
  facet normal 0 1 0
    outer loop
      vertex 30.3 60 4
      vertex 50.3 60 0
      vertex 23.3 60 4
    endloop
  endfacet
  facet normal 0 1 0
    outer loop
      vertex 0 60 0
      vertex 23.3 60 4
      vertex 50.3 60 0
    endloop
  endfacet
  facet normal 0 1 -0
    outer loop
      vertex 30.3 60 4
      vertex 23.3 60 23.3
      vertex 30.3 60 23.3
    endloop
  endfacet
  facet normal 0 1 0
    outer loop
      vertex 23.3 60 23.3
      vertex 30.3 60 4
      vertex 23.3 60 4
    endloop
  endfacet
  facet normal 0 1 -0
    outer loop
      vertex 4 60 4
      vertex 0 60 23.3
      vertex 4 60 23.3
    endloop
  endfacet
  facet normal 0 1 0
    outer loop
      vertex 4 60 4
      vertex 0 60 0
      vertex 0 60 23.3
    endloop
  endfacet
  facet normal 0 1 0
    outer loop
      vertex 23.3 60 4
      vertex 0 60 0
      vertex 4 60 4
    endloop
  endfacet
  facet normal 0 0 1
    outer loop
      vertex 50.3 60 4
      vertex 42.2 30 4
      vertex 50.3 0 4
    endloop
  endfacet
  facet normal 0 0 1
    outer loop
      vertex 50.3 60 4
      vertex 41.9454 30.95 4
      vertex 42.2 30 4
    endloop
  endfacet
  facet normal 0 0 1
    outer loop
      vertex 50.3 60 4
      vertex 41.25 31.6454 4
      vertex 41.9454 30.95 4
    endloop
  endfacet
  facet normal 0 0 1
    outer loop
      vertex 50.3 60 4
      vertex 40.3 31.9 4
      vertex 41.25 31.6454 4
    endloop
  endfacet
  facet normal -0 0 1
    outer loop
      vertex 30.3 60 4
      vertex 40.3 31.9 4
      vertex 50.3 60 4
    endloop
  endfacet
  facet normal 0 0 1
    outer loop
      vertex 40.3 31.9 4
      vertex 30.3 60 4
      vertex 39.35 31.6454 4
    endloop
  endfacet
  facet normal 0 0 1
    outer loop
      vertex 38.6546 30.95 4
      vertex 30.3 60 4
      vertex 38.4 30 4
    endloop
  endfacet
  facet normal 0 0 1
    outer loop
      vertex 39.35 31.6454 4
      vertex 30.3 60 4
      vertex 38.6546 30.95 4
    endloop
  endfacet
  facet normal -0 0 1
    outer loop
      vertex 41.9454 29.05 4
      vertex 50.3 0 4
      vertex 42.2 30 4
    endloop
  endfacet
  facet normal -0 0 1
    outer loop
      vertex 41.25 28.3546 4
      vertex 50.3 0 4
      vertex 41.9454 29.05 4
    endloop
  endfacet
  facet normal -0 0 1
    outer loop
      vertex 40.3 28.1 4
      vertex 50.3 0 4
      vertex 41.25 28.3546 4
    endloop
  endfacet
  facet normal 0 0 1
    outer loop
      vertex 30.3 0 4
      vertex 40.3 28.1 4
      vertex 39.35 28.3546 4
    endloop
  endfacet
  facet normal 0 0 1
    outer loop
      vertex 30.3 0 4
      vertex 39.35 28.3546 4
      vertex 38.6546 29.05 4
    endloop
  endfacet
  facet normal 0 0 1
    outer loop
      vertex 30.3 0 4
      vertex 38.4 30 4
      vertex 30.3 60 4
    endloop
  endfacet
  facet normal 0 0 1
    outer loop
      vertex 40.3 28.1 4
      vertex 30.3 0 4
      vertex 50.3 0 4
    endloop
  endfacet
  facet normal 0 0 1
    outer loop
      vertex 38.4 30 4
      vertex 30.3 0 4
      vertex 38.6546 29.05 4
    endloop
  endfacet
  facet normal 1 -0 0
    outer loop
      vertex 50.3 0 4
      vertex 50.3 60 0
      vertex 50.3 60 4
    endloop
  endfacet
  facet normal 1 0 0
    outer loop
      vertex 50.3 60 0
      vertex 50.3 0 4
      vertex 50.3 0 0
    endloop
  endfacet
  facet normal 0 -0.258819 -0.965926
    outer loop
      vertex 3 19.8 15.55
      vertex 4 20.75 15.2954
      vertex 4 19.8 15.55
    endloop
  endfacet
  facet normal -0 -0.258819 -0.965926
    outer loop
      vertex 4 20.75 15.2954
      vertex 3 19.8 15.55
      vertex 3 20.75 15.2954
    endloop
  endfacet
  facet normal 0 -0.258819 -0.965926
    outer loop
      vertex 23.3 19.8 15.55
      vertex 30.3 20.75 15.2954
      vertex 30.3 19.8 15.55
    endloop
  endfacet
  facet normal -0 -0.258819 -0.965926
    outer loop
      vertex 30.3 20.75 15.2954
      vertex 23.3 19.8 15.55
      vertex 23.3 20.75 15.2954
    endloop
  endfacet
  facet normal 0 -0.258819 0.965926
    outer loop
      vertex 3 20.75 12.0046
      vertex 4 19.8 11.75
      vertex 4 20.75 12.0046
    endloop
  endfacet
  facet normal 0 -0.258819 0.965926
    outer loop
      vertex 4 19.8 11.75
      vertex 3 20.75 12.0046
      vertex 3 19.8 11.75
    endloop
  endfacet
  facet normal 0 -0.258819 0.965926
    outer loop
      vertex 23.3 20.75 12.0046
      vertex 30.3 19.8 11.75
      vertex 30.3 20.75 12.0046
    endloop
  endfacet
  facet normal 0 -0.258819 0.965926
    outer loop
      vertex 30.3 19.8 11.75
      vertex 23.3 20.75 12.0046
      vertex 23.3 19.8 11.75
    endloop
  endfacet
  facet normal 0 -0.965926 -0.258818
    outer loop
      vertex 3 21.7 13.65
      vertex 4 21.4454 14.6
      vertex 3 21.4454 14.6
    endloop
  endfacet
  facet normal 0 -0.965926 -0.258818
    outer loop
      vertex 4 21.4454 14.6
      vertex 3 21.7 13.65
      vertex 4 21.7 13.65
    endloop
  endfacet
  facet normal 0 -0.965926 -0.258818
    outer loop
      vertex 23.3 21.7 13.65
      vertex 30.3 21.4454 14.6
      vertex 23.3 21.4454 14.6
    endloop
  endfacet
  facet normal 0 -0.965926 -0.258818
    outer loop
      vertex 30.3 21.4454 14.6
      vertex 23.3 21.7 13.65
      vertex 30.3 21.7 13.65
    endloop
  endfacet
  facet normal 0 -0.707107 -0.707107
    outer loop
      vertex 3 21.4454 14.6
      vertex 4 20.75 15.2954
      vertex 3 20.75 15.2954
    endloop
  endfacet
  facet normal 0 -0.707107 -0.707107
    outer loop
      vertex 4 20.75 15.2954
      vertex 3 21.4454 14.6
      vertex 4 21.4454 14.6
    endloop
  endfacet
  facet normal 0 -0.707107 -0.707107
    outer loop
      vertex 23.3 21.4454 14.6
      vertex 30.3 20.75 15.2954
      vertex 23.3 20.75 15.2954
    endloop
  endfacet
  facet normal 0 -0.707107 -0.707107
    outer loop
      vertex 30.3 20.75 15.2954
      vertex 23.3 21.4454 14.6
      vertex 30.3 21.4454 14.6
    endloop
  endfacet
  facet normal 0 -0.965926 0.258818
    outer loop
      vertex 3 21.4454 12.7
      vertex 4 21.7 13.65
      vertex 3 21.7 13.65
    endloop
  endfacet
  facet normal 0 -0.965926 0.258818
    outer loop
      vertex 4 21.7 13.65
      vertex 3 21.4454 12.7
      vertex 4 21.4454 12.7
    endloop
  endfacet
  facet normal 0 -0.965926 0.258818
    outer loop
      vertex 23.3 21.4454 12.7
      vertex 30.3 21.7 13.65
      vertex 23.3 21.7 13.65
    endloop
  endfacet
  facet normal 0 -0.965926 0.258818
    outer loop
      vertex 30.3 21.7 13.65
      vertex 23.3 21.4454 12.7
      vertex 30.3 21.4454 12.7
    endloop
  endfacet
  facet normal 0 0.965926 0.25882
    outer loop
      vertex 4 18.1546 12.7
      vertex 3 17.9 13.65
      vertex 4 17.9 13.65
    endloop
  endfacet
  facet normal 0 0.965926 0.25882
    outer loop
      vertex 3 17.9 13.65
      vertex 4 18.1546 12.7
      vertex 3 18.1546 12.7
    endloop
  endfacet
  facet normal 0 0.965926 0.25882
    outer loop
      vertex 30.3 18.1546 12.7
      vertex 23.3 17.9 13.65
      vertex 30.3 17.9 13.65
    endloop
  endfacet
  facet normal 0 0.965926 0.25882
    outer loop
      vertex 23.3 17.9 13.65
      vertex 30.3 18.1546 12.7
      vertex 23.3 18.1546 12.7
    endloop
  endfacet
  facet normal -0 0.258819 0.965926
    outer loop
      vertex 3 19.8 11.75
      vertex 4 18.85 12.0046
      vertex 4 19.8 11.75
    endloop
  endfacet
  facet normal 0 0.258819 0.965926
    outer loop
      vertex 4 18.85 12.0046
      vertex 3 19.8 11.75
      vertex 3 18.85 12.0046
    endloop
  endfacet
  facet normal -0 0.258819 0.965926
    outer loop
      vertex 23.3 19.8 11.75
      vertex 30.3 18.85 12.0046
      vertex 30.3 19.8 11.75
    endloop
  endfacet
  facet normal 0 0.258819 0.965926
    outer loop
      vertex 30.3 18.85 12.0046
      vertex 23.3 19.8 11.75
      vertex 23.3 18.85 12.0046
    endloop
  endfacet
  facet normal 0 -0.707107 0.707107
    outer loop
      vertex 3 20.75 12.0046
      vertex 4 21.4454 12.7
      vertex 3 21.4454 12.7
    endloop
  endfacet
  facet normal 0 -0.707107 0.707107
    outer loop
      vertex 4 21.4454 12.7
      vertex 3 20.75 12.0046
      vertex 4 20.75 12.0046
    endloop
  endfacet
  facet normal 0 -0.707107 0.707107
    outer loop
      vertex 23.3 20.75 12.0046
      vertex 30.3 21.4454 12.7
      vertex 23.3 21.4454 12.7
    endloop
  endfacet
  facet normal 0 -0.707107 0.707107
    outer loop
      vertex 30.3 21.4454 12.7
      vertex 23.3 20.75 12.0046
      vertex 30.3 20.75 12.0046
    endloop
  endfacet
  facet normal 0 0.258819 -0.965926
    outer loop
      vertex 3 18.85 15.2954
      vertex 4 19.8 15.55
      vertex 4 18.85 15.2954
    endloop
  endfacet
  facet normal 0 0.258819 -0.965926
    outer loop
      vertex 4 19.8 15.55
      vertex 3 18.85 15.2954
      vertex 3 19.8 15.55
    endloop
  endfacet
  facet normal 0 0.258819 -0.965926
    outer loop
      vertex 23.3 18.85 15.2954
      vertex 30.3 19.8 15.55
      vertex 30.3 18.85 15.2954
    endloop
  endfacet
  facet normal 0 0.258819 -0.965926
    outer loop
      vertex 30.3 19.8 15.55
      vertex 23.3 18.85 15.2954
      vertex 23.3 19.8 15.55
    endloop
  endfacet
  facet normal 0 0.707107 0.707107
    outer loop
      vertex 4 18.85 12.0046
      vertex 3 18.1546 12.7
      vertex 4 18.1546 12.7
    endloop
  endfacet
  facet normal 0 0.707107 0.707107
    outer loop
      vertex 3 18.1546 12.7
      vertex 4 18.85 12.0046
      vertex 3 18.85 12.0046
    endloop
  endfacet
  facet normal 0 0.707107 0.707107
    outer loop
      vertex 30.3 18.85 12.0046
      vertex 23.3 18.1546 12.7
      vertex 30.3 18.1546 12.7
    endloop
  endfacet
  facet normal 0 0.707107 0.707107
    outer loop
      vertex 23.3 18.1546 12.7
      vertex 30.3 18.85 12.0046
      vertex 23.3 18.85 12.0046
    endloop
  endfacet
  facet normal 0 0.707107 -0.707107
    outer loop
      vertex 4 18.1546 14.6
      vertex 3 18.85 15.2954
      vertex 4 18.85 15.2954
    endloop
  endfacet
  facet normal 0 0.707107 -0.707107
    outer loop
      vertex 3 18.85 15.2954
      vertex 4 18.1546 14.6
      vertex 3 18.1546 14.6
    endloop
  endfacet
  facet normal 0 0.707107 -0.707107
    outer loop
      vertex 30.3 18.1546 14.6
      vertex 23.3 18.85 15.2954
      vertex 30.3 18.85 15.2954
    endloop
  endfacet
  facet normal 0 0.707107 -0.707107
    outer loop
      vertex 23.3 18.85 15.2954
      vertex 30.3 18.1546 14.6
      vertex 23.3 18.1546 14.6
    endloop
  endfacet
  facet normal 0 0.965926 -0.25882
    outer loop
      vertex 4 17.9 13.65
      vertex 3 18.1546 14.6
      vertex 4 18.1546 14.6
    endloop
  endfacet
  facet normal 0 0.965926 -0.25882
    outer loop
      vertex 3 18.1546 14.6
      vertex 4 17.9 13.65
      vertex 3 17.9 13.65
    endloop
  endfacet
  facet normal 0 0.965926 -0.25882
    outer loop
      vertex 30.3 17.9 13.65
      vertex 23.3 18.1546 14.6
      vertex 30.3 18.1546 14.6
    endloop
  endfacet
  facet normal 0 0.965926 -0.25882
    outer loop
      vertex 23.3 18.1546 14.6
      vertex 30.3 17.9 13.65
      vertex 23.3 17.9 13.65
    endloop
  endfacet
  facet normal -0.560126 -0.214408 -0.80018
    outer loop
      vertex 3 20.75 15.2954
      vertex 3 19.8 15.55
      vertex 2.44921e-016 19.8 17.65
    endloop
  endfacet
  facet normal -0.560126 0.214408 0.80018
    outer loop
      vertex 3 18.85 12.0046
      vertex 3 19.8 11.75
      vertex 0 19.8 9.65
    endloop
  endfacet
  facet normal -0.560126 0.214408 -0.80018
    outer loop
      vertex 2.44921e-016 19.8 17.65
      vertex 3 18.85 15.2954
      vertex 2.12108e-016 17.8 17.1141
    endloop
  endfacet
  facet normal -0.560126 -0.585772 -0.585772
    outer loop
      vertex 3 20.75 15.2954
      vertex 2.12108e-016 21.8 17.1141
      vertex 1.22461e-016 23.2641 15.65
    endloop
  endfacet
  facet normal -0.560126 0.585773 -0.585772
    outer loop
      vertex 3 18.85 15.2954
      vertex 1.22461e-016 16.3359 15.65
      vertex 2.12108e-016 17.8 17.1141
    endloop
  endfacet
  facet normal -0.560126 0.585772 -0.585772
    outer loop
      vertex 1.22461e-016 16.3359 15.65
      vertex 3 18.85 15.2954
      vertex 3 18.1546 14.6
    endloop
  endfacet
  facet normal -0.560126 0.80018 0.214408
    outer loop
      vertex 3 18.1546 12.7
      vertex 0 16.3359 11.65
      vertex 0 15.8 13.65
    endloop
  endfacet
  facet normal -0.560126 0.585772 0.585772
    outer loop
      vertex 3 18.1546 12.7
      vertex 3 18.85 12.0046
      vertex 0 16.3359 11.65
    endloop
  endfacet
  facet normal -0.560126 -0.214408 0.80018
    outer loop
      vertex 3 20.75 12.0046
      vertex 0 21.8 10.1859
      vertex 0 19.8 9.65
    endloop
  endfacet
  facet normal -0.560126 -0.80018 -0.214407
    outer loop
      vertex 3 21.7 13.65
      vertex 3 21.4454 14.6
      vertex 0 23.8 13.65
    endloop
  endfacet
  facet normal -0.560126 -0.214408 -0.80018
    outer loop
      vertex 3 20.75 15.2954
      vertex 2.44921e-016 19.8 17.65
      vertex 2.12108e-016 21.8 17.1141
    endloop
  endfacet
  facet normal -0.560126 0.80018 -0.214408
    outer loop
      vertex 1.22461e-016 16.3359 15.65
      vertex 3 18.1546 14.6
      vertex 0 15.8 13.65
    endloop
  endfacet
  facet normal -0.560126 0.80018 -0.214409
    outer loop
      vertex 3 18.1546 14.6
      vertex 3 17.9 13.65
      vertex 0 15.8 13.65
    endloop
  endfacet
  facet normal -0.560126 -0.585773 0.585773
    outer loop
      vertex 0 23.2641 11.65
      vertex 3 20.75 12.0046
      vertex 3 21.4454 12.7
    endloop
  endfacet
  facet normal -0.560126 -0.585773 0.585773
    outer loop
      vertex 3 20.75 12.0046
      vertex 0 23.2641 11.65
      vertex 0 21.8 10.1859
    endloop
  endfacet
  facet normal -0.560126 -0.80018 0.214407
    outer loop
      vertex 3 21.4454 12.7
      vertex 3 21.7 13.65
      vertex 0 23.8 13.65
    endloop
  endfacet
  facet normal -0.560126 -0.214408 0.80018
    outer loop
      vertex 3 19.8 11.75
      vertex 3 20.75 12.0046
      vertex 0 19.8 9.65
    endloop
  endfacet
  facet normal -0.560126 -0.80018 -0.214408
    outer loop
      vertex 3 21.4454 14.6
      vertex 1.22461e-016 23.2641 15.65
      vertex 0 23.8 13.65
    endloop
  endfacet
  facet normal -0.560126 -0.585772 -0.585772
    outer loop
      vertex 3 21.4454 14.6
      vertex 3 20.75 15.2954
      vertex 1.22461e-016 23.2641 15.65
    endloop
  endfacet
  facet normal -0.560126 0.214408 -0.80018
    outer loop
      vertex 3 19.8 15.55
      vertex 3 18.85 15.2954
      vertex 2.44921e-016 19.8 17.65
    endloop
  endfacet
  facet normal -0.560126 0.585772 0.585773
    outer loop
      vertex 3 18.85 12.0046
      vertex 0 17.8 10.1859
      vertex 0 16.3359 11.65
    endloop
  endfacet
  facet normal -0.560126 0.214408 0.80018
    outer loop
      vertex 3 18.85 12.0046
      vertex 0 19.8 9.65
      vertex 0 17.8 10.1859
    endloop
  endfacet
  facet normal -0.560126 -0.80018 0.214408
    outer loop
      vertex 3 21.4454 12.7
      vertex 0 23.8 13.65
      vertex 0 23.2641 11.65
    endloop
  endfacet
  facet normal -0.560126 0.80018 0.214409
    outer loop
      vertex 3 17.9 13.65
      vertex 3 18.1546 12.7
      vertex 0 15.8 13.65
    endloop
  endfacet
  facet normal 0 -0.258819 -0.965926
    outer loop
      vertex 0 19.8 17.65
      vertex 2.12108e-016 21.8 17.1141
      vertex 2.44921e-016 19.8 17.65
    endloop
  endfacet
  facet normal -0 -0.258819 -0.965926
    outer loop
      vertex 2.12108e-016 21.8 17.1141
      vertex 0 19.8 17.65
      vertex 0 21.8 17.1141
    endloop
  endfacet
  facet normal 0 -0.965926 -0.258819
    outer loop
      vertex 0 23.8 13.65
      vertex 1.22461e-016 23.2641 15.65
      vertex 0 23.2641 15.65
    endloop
  endfacet
  facet normal 0 -0.707107 -0.707107
    outer loop
      vertex 0 23.2641 15.65
      vertex 2.12108e-016 21.8 17.1141
      vertex 0 21.8 17.1141
    endloop
  endfacet
  facet normal 0 -0.707107 -0.707107
    outer loop
      vertex 2.12108e-016 21.8 17.1141
      vertex 0 23.2641 15.65
      vertex 1.22461e-016 23.2641 15.65
    endloop
  endfacet
  facet normal 0 0.707107 -0.707106
    outer loop
      vertex 1.22461e-016 16.3359 15.65
      vertex 0 17.8 17.1141
      vertex 2.12108e-016 17.8 17.1141
    endloop
  endfacet
  facet normal 0 0.707107 -0.707106
    outer loop
      vertex 0 17.8 17.1141
      vertex 1.22461e-016 16.3359 15.65
      vertex 0 16.3359 15.65
    endloop
  endfacet
  facet normal 0 0.965926 -0.258819
    outer loop
      vertex 0 16.3359 15.65
      vertex 1.22461e-016 16.3359 15.65
      vertex 0 15.8 13.65
    endloop
  endfacet
  facet normal 0 0.258819 -0.965926
    outer loop
      vertex 0 17.8 17.1141
      vertex 2.44921e-016 19.8 17.65
      vertex 2.12108e-016 17.8 17.1141
    endloop
  endfacet
  facet normal 0 0.258819 -0.965926
    outer loop
      vertex 2.44921e-016 19.8 17.65
      vertex 0 17.8 17.1141
      vertex 0 19.8 17.65
    endloop
  endfacet
  facet normal 0 -0.258819 -0.965926
    outer loop
      vertex 3 39.6 15.55
      vertex 4 40.55 15.2954
      vertex 4 39.6 15.55
    endloop
  endfacet
  facet normal -0 -0.258819 -0.965926
    outer loop
      vertex 4 40.55 15.2954
      vertex 3 39.6 15.55
      vertex 3 40.55 15.2954
    endloop
  endfacet
  facet normal 0 -0.258819 -0.965926
    outer loop
      vertex 23.3 39.6 15.55
      vertex 30.3 40.55 15.2954
      vertex 30.3 39.6 15.55
    endloop
  endfacet
  facet normal -0 -0.258819 -0.965926
    outer loop
      vertex 30.3 40.55 15.2954
      vertex 23.3 39.6 15.55
      vertex 23.3 40.55 15.2954
    endloop
  endfacet
  facet normal 0 -0.258819 0.965926
    outer loop
      vertex 3 40.55 12.0046
      vertex 4 39.6 11.75
      vertex 4 40.55 12.0046
    endloop
  endfacet
  facet normal 0 -0.258819 0.965926
    outer loop
      vertex 4 39.6 11.75
      vertex 3 40.55 12.0046
      vertex 3 39.6 11.75
    endloop
  endfacet
  facet normal 0 -0.258819 0.965926
    outer loop
      vertex 23.3 40.55 12.0046
      vertex 30.3 39.6 11.75
      vertex 30.3 40.55 12.0046
    endloop
  endfacet
  facet normal 0 -0.258819 0.965926
    outer loop
      vertex 30.3 39.6 11.75
      vertex 23.3 40.55 12.0046
      vertex 23.3 39.6 11.75
    endloop
  endfacet
  facet normal 0 -0.965926 -0.258818
    outer loop
      vertex 3 41.5 13.65
      vertex 4 41.2454 14.6
      vertex 3 41.2454 14.6
    endloop
  endfacet
  facet normal 0 -0.965926 -0.258818
    outer loop
      vertex 4 41.2454 14.6
      vertex 3 41.5 13.65
      vertex 4 41.5 13.65
    endloop
  endfacet
  facet normal 0 -0.965926 -0.258818
    outer loop
      vertex 23.3 41.5 13.65
      vertex 30.3 41.2454 14.6
      vertex 23.3 41.2454 14.6
    endloop
  endfacet
  facet normal 0 -0.965926 -0.258818
    outer loop
      vertex 30.3 41.2454 14.6
      vertex 23.3 41.5 13.65
      vertex 30.3 41.5 13.65
    endloop
  endfacet
  facet normal 0 -0.707106 -0.707108
    outer loop
      vertex 3 40.55 15.2954
      vertex 4 41.2454 14.6
      vertex 4 40.55 15.2954
    endloop
  endfacet
  facet normal -0 -0.707106 -0.707108
    outer loop
      vertex 4 41.2454 14.6
      vertex 3 40.55 15.2954
      vertex 3 41.2454 14.6
    endloop
  endfacet
  facet normal 0 -0.707106 -0.707108
    outer loop
      vertex 23.3 40.55 15.2954
      vertex 30.3 41.2454 14.6
      vertex 30.3 40.55 15.2954
    endloop
  endfacet
  facet normal -0 -0.707106 -0.707108
    outer loop
      vertex 30.3 41.2454 14.6
      vertex 23.3 40.55 15.2954
      vertex 23.3 41.2454 14.6
    endloop
  endfacet
  facet normal 0 -0.965926 0.258818
    outer loop
      vertex 3 41.2454 12.7
      vertex 4 41.5 13.65
      vertex 3 41.5 13.65
    endloop
  endfacet
  facet normal 0 -0.965926 0.258818
    outer loop
      vertex 4 41.5 13.65
      vertex 3 41.2454 12.7
      vertex 4 41.2454 12.7
    endloop
  endfacet
  facet normal 0 -0.965926 0.258818
    outer loop
      vertex 23.3 41.2454 12.7
      vertex 30.3 41.5 13.65
      vertex 23.3 41.5 13.65
    endloop
  endfacet
  facet normal 0 -0.965926 0.258818
    outer loop
      vertex 30.3 41.5 13.65
      vertex 23.3 41.2454 12.7
      vertex 30.3 41.2454 12.7
    endloop
  endfacet
  facet normal 0 0.965926 0.258818
    outer loop
      vertex 4 37.9546 12.7
      vertex 3 37.7 13.65
      vertex 4 37.7 13.65
    endloop
  endfacet
  facet normal 0 0.965926 0.258818
    outer loop
      vertex 3 37.7 13.65
      vertex 4 37.9546 12.7
      vertex 3 37.9546 12.7
    endloop
  endfacet
  facet normal 0 0.965926 0.258818
    outer loop
      vertex 30.3 37.9546 12.7
      vertex 23.3 37.7 13.65
      vertex 30.3 37.7 13.65
    endloop
  endfacet
  facet normal 0 0.965926 0.258818
    outer loop
      vertex 23.3 37.7 13.65
      vertex 30.3 37.9546 12.7
      vertex 23.3 37.9546 12.7
    endloop
  endfacet
  facet normal -0 0.25882 0.965926
    outer loop
      vertex 3 39.6 11.75
      vertex 4 38.65 12.0046
      vertex 4 39.6 11.75
    endloop
  endfacet
  facet normal 0 0.25882 0.965926
    outer loop
      vertex 4 38.65 12.0046
      vertex 3 39.6 11.75
      vertex 3 38.65 12.0046
    endloop
  endfacet
  facet normal -0 0.25882 0.965926
    outer loop
      vertex 23.3 39.6 11.75
      vertex 30.3 38.65 12.0046
      vertex 30.3 39.6 11.75
    endloop
  endfacet
  facet normal 0 0.25882 0.965926
    outer loop
      vertex 30.3 38.65 12.0046
      vertex 23.3 39.6 11.75
      vertex 23.3 38.65 12.0046
    endloop
  endfacet
  facet normal 0 -0.707106 0.707108
    outer loop
      vertex 3 41.2454 12.7
      vertex 4 40.55 12.0046
      vertex 4 41.2454 12.7
    endloop
  endfacet
  facet normal 0 -0.707106 0.707108
    outer loop
      vertex 4 40.55 12.0046
      vertex 3 41.2454 12.7
      vertex 3 40.55 12.0046
    endloop
  endfacet
  facet normal 0 -0.707106 0.707108
    outer loop
      vertex 23.3 41.2454 12.7
      vertex 30.3 40.55 12.0046
      vertex 30.3 41.2454 12.7
    endloop
  endfacet
  facet normal 0 -0.707106 0.707108
    outer loop
      vertex 30.3 40.55 12.0046
      vertex 23.3 41.2454 12.7
      vertex 23.3 40.55 12.0046
    endloop
  endfacet
  facet normal 0 0.25882 -0.965926
    outer loop
      vertex 3 38.65 15.2954
      vertex 4 39.6 15.55
      vertex 4 38.65 15.2954
    endloop
  endfacet
  facet normal 0 0.25882 -0.965926
    outer loop
      vertex 4 39.6 15.55
      vertex 3 38.65 15.2954
      vertex 3 39.6 15.55
    endloop
  endfacet
  facet normal 0 0.25882 -0.965926
    outer loop
      vertex 23.3 38.65 15.2954
      vertex 30.3 39.6 15.55
      vertex 30.3 38.65 15.2954
    endloop
  endfacet
  facet normal 0 0.25882 -0.965926
    outer loop
      vertex 30.3 39.6 15.55
      vertex 23.3 38.65 15.2954
      vertex 23.3 39.6 15.55
    endloop
  endfacet
  facet normal -0 0.707106 0.707108
    outer loop
      vertex 3 38.65 12.0046
      vertex 4 37.9546 12.7
      vertex 4 38.65 12.0046
    endloop
  endfacet
  facet normal 0 0.707106 0.707108
    outer loop
      vertex 4 37.9546 12.7
      vertex 3 38.65 12.0046
      vertex 3 37.9546 12.7
    endloop
  endfacet
  facet normal -0 0.707106 0.707108
    outer loop
      vertex 23.3 38.65 12.0046
      vertex 30.3 37.9546 12.7
      vertex 30.3 38.65 12.0046
    endloop
  endfacet
  facet normal 0 0.707106 0.707108
    outer loop
      vertex 30.3 37.9546 12.7
      vertex 23.3 38.65 12.0046
      vertex 23.3 37.9546 12.7
    endloop
  endfacet
  facet normal 0 0.707106 -0.707108
    outer loop
      vertex 3 37.9546 14.6
      vertex 4 38.65 15.2954
      vertex 4 37.9546 14.6
    endloop
  endfacet
  facet normal 0 0.707106 -0.707108
    outer loop
      vertex 4 38.65 15.2954
      vertex 3 37.9546 14.6
      vertex 3 38.65 15.2954
    endloop
  endfacet
  facet normal 0 0.707106 -0.707108
    outer loop
      vertex 23.3 37.9546 14.6
      vertex 30.3 38.65 15.2954
      vertex 30.3 37.9546 14.6
    endloop
  endfacet
  facet normal 0 0.707106 -0.707108
    outer loop
      vertex 30.3 38.65 15.2954
      vertex 23.3 37.9546 14.6
      vertex 23.3 38.65 15.2954
    endloop
  endfacet
  facet normal 0 0.965926 -0.258818
    outer loop
      vertex 4 37.7 13.65
      vertex 3 37.9546 14.6
      vertex 4 37.9546 14.6
    endloop
  endfacet
  facet normal 0 0.965926 -0.258818
    outer loop
      vertex 3 37.9546 14.6
      vertex 4 37.7 13.65
      vertex 3 37.7 13.65
    endloop
  endfacet
  facet normal 0 0.965926 -0.258818
    outer loop
      vertex 30.3 37.7 13.65
      vertex 23.3 37.9546 14.6
      vertex 30.3 37.9546 14.6
    endloop
  endfacet
  facet normal 0 0.965926 -0.258818
    outer loop
      vertex 23.3 37.9546 14.6
      vertex 30.3 37.7 13.65
      vertex 23.3 37.7 13.65
    endloop
  endfacet
  facet normal -0.560126 -0.214408 -0.80018
    outer loop
      vertex 3 40.55 15.2954
      vertex 3 39.6 15.55
      vertex 2.44921e-016 39.6 17.65
    endloop
  endfacet
  facet normal -0.560126 0.214408 0.80018
    outer loop
      vertex 3 38.65 12.0046
      vertex 3 39.6 11.75
      vertex 0 39.6 9.65
    endloop
  endfacet
  facet normal -0.560126 0.214407 -0.80018
    outer loop
      vertex 2.44921e-016 39.6 17.65
      vertex 3 38.65 15.2954
      vertex 2.12108e-016 37.6 17.1141
    endloop
  endfacet
  facet normal -0.560126 -0.585772 -0.585773
    outer loop
      vertex 3 40.55 15.2954
      vertex 2.12108e-016 41.6 17.1141
      vertex 1.22461e-016 43.0641 15.65
    endloop
  endfacet
  facet normal -0.560126 0.585773 -0.585772
    outer loop
      vertex 3 38.65 15.2954
      vertex 1.22461e-016 36.1359 15.65
      vertex 2.12108e-016 37.6 17.1141
    endloop
  endfacet
  facet normal -0.560126 0.585772 -0.585773
    outer loop
      vertex 1.22461e-016 36.1359 15.65
      vertex 3 38.65 15.2954
      vertex 3 37.9546 14.6
    endloop
  endfacet
  facet normal -0.560126 0.80018 0.214408
    outer loop
      vertex 3 37.9546 12.7
      vertex 0 36.1359 11.65
      vertex 0 35.6 13.65
    endloop
  endfacet
  facet normal -0.560126 0.585772 0.585773
    outer loop
      vertex 3 37.9546 12.7
      vertex 3 38.65 12.0046
      vertex 0 36.1359 11.65
    endloop
  endfacet
  facet normal -0.560126 -0.214408 0.80018
    outer loop
      vertex 3 40.55 12.0046
      vertex 0 41.6 10.1859
      vertex 0 39.6 9.65
    endloop
  endfacet
  facet normal -0.560126 -0.80018 -0.214407
    outer loop
      vertex 3 41.5 13.65
      vertex 3 41.2454 14.6
      vertex 0 43.6 13.65
    endloop
  endfacet
  facet normal -0.560126 -0.214408 -0.80018
    outer loop
      vertex 3 40.55 15.2954
      vertex 2.44921e-016 39.6 17.65
      vertex 2.12108e-016 41.6 17.1141
    endloop
  endfacet
  facet normal -0.560126 0.80018 -0.214408
    outer loop
      vertex 1.22461e-016 36.1359 15.65
      vertex 3 37.9546 14.6
      vertex 0 35.6 13.65
    endloop
  endfacet
  facet normal -0.560127 0.80018 -0.214407
    outer loop
      vertex 3 37.9546 14.6
      vertex 3 37.7 13.65
      vertex 0 35.6 13.65
    endloop
  endfacet
  facet normal -0.560126 -0.585772 0.585773
    outer loop
      vertex 0 41.6 10.1859
      vertex 3 41.2454 12.7
      vertex 0 43.0641 11.65
    endloop
  endfacet
  facet normal -0.560126 -0.585772 0.585773
    outer loop
      vertex 3 41.2454 12.7
      vertex 0 41.6 10.1859
      vertex 3 40.55 12.0046
    endloop
  endfacet
  facet normal -0.560126 -0.80018 0.214407
    outer loop
      vertex 3 41.2454 12.7
      vertex 3 41.5 13.65
      vertex 0 43.6 13.65
    endloop
  endfacet
  facet normal -0.560126 -0.214408 0.80018
    outer loop
      vertex 3 39.6 11.75
      vertex 3 40.55 12.0046
      vertex 0 39.6 9.65
    endloop
  endfacet
  facet normal -0.560126 -0.80018 -0.214407
    outer loop
      vertex 3 41.2454 14.6
      vertex 1.22461e-016 43.0641 15.65
      vertex 0 43.6 13.65
    endloop
  endfacet
  facet normal -0.560126 -0.585772 -0.585773
    outer loop
      vertex 3 41.2454 14.6
      vertex 3 40.55 15.2954
      vertex 1.22461e-016 43.0641 15.65
    endloop
  endfacet
  facet normal -0.560126 0.214408 -0.80018
    outer loop
      vertex 3 39.6 15.55
      vertex 3 38.65 15.2954
      vertex 2.44921e-016 39.6 17.65
    endloop
  endfacet
  facet normal -0.560126 0.585772 0.585773
    outer loop
      vertex 3 38.65 12.0046
      vertex 0 37.6 10.1859
      vertex 0 36.1359 11.65
    endloop
  endfacet
  facet normal -0.560126 0.214408 0.80018
    outer loop
      vertex 3 38.65 12.0046
      vertex 0 39.6 9.65
      vertex 0 37.6 10.1859
    endloop
  endfacet
  facet normal -0.560126 -0.80018 0.214407
    outer loop
      vertex 3 41.2454 12.7
      vertex 0 43.6 13.65
      vertex 0 43.0641 11.65
    endloop
  endfacet
  facet normal -0.560127 0.80018 0.214407
    outer loop
      vertex 3 37.7 13.65
      vertex 3 37.9546 12.7
      vertex 0 35.6 13.65
    endloop
  endfacet
  facet normal 0 -0.258819 -0.965926
    outer loop
      vertex 0 39.6 17.65
      vertex 2.12108e-016 41.6 17.1141
      vertex 2.44921e-016 39.6 17.65
    endloop
  endfacet
  facet normal -0 -0.258819 -0.965926
    outer loop
      vertex 2.12108e-016 41.6 17.1141
      vertex 0 39.6 17.65
      vertex 0 41.6 17.1141
    endloop
  endfacet
  facet normal 0 -0.965926 -0.258818
    outer loop
      vertex 0 43.6 13.65
      vertex 1.22461e-016 43.0641 15.65
      vertex 0 43.0641 15.65
    endloop
  endfacet
  facet normal 0 -0.707106 -0.707107
    outer loop
      vertex 0 41.6 17.1141
      vertex 1.22461e-016 43.0641 15.65
      vertex 2.12108e-016 41.6 17.1141
    endloop
  endfacet
  facet normal -0 -0.707106 -0.707107
    outer loop
      vertex 1.22461e-016 43.0641 15.65
      vertex 0 41.6 17.1141
      vertex 0 43.0641 15.65
    endloop
  endfacet
  facet normal 0 0.707107 -0.707106
    outer loop
      vertex 1.22461e-016 36.1359 15.65
      vertex 0 37.6 17.1141
      vertex 2.12108e-016 37.6 17.1141
    endloop
  endfacet
  facet normal 0 0.707107 -0.707106
    outer loop
      vertex 0 37.6 17.1141
      vertex 1.22461e-016 36.1359 15.65
      vertex 0 36.1359 15.65
    endloop
  endfacet
  facet normal 0 0.965926 -0.25882
    outer loop
      vertex 0 36.1359 15.65
      vertex 1.22461e-016 36.1359 15.65
      vertex 0 35.6 13.65
    endloop
  endfacet
  facet normal 0 0.258819 -0.965926
    outer loop
      vertex 0 37.6 17.1141
      vertex 2.44921e-016 39.6 17.65
      vertex 2.12108e-016 37.6 17.1141
    endloop
  endfacet
  facet normal 0 0.258819 -0.965926
    outer loop
      vertex 2.44921e-016 39.6 17.65
      vertex 0 37.6 17.1141
      vertex 0 39.6 17.65
    endloop
  endfacet
  facet normal 0.965926 -0.258818 0
    outer loop
      vertex 38.4 30 4
      vertex 38.6546 30.95 3
      vertex 38.6546 30.95 4
    endloop
  endfacet
  facet normal 0.965926 -0.258818 0
    outer loop
      vertex 38.6546 30.95 3
      vertex 38.4 30 4
      vertex 38.4 30 3
    endloop
  endfacet
  facet normal -0.965925 -0.258822 0
    outer loop
      vertex 42.2 30 3
      vertex 41.9454 30.95 4
      vertex 41.9454 30.95 3
    endloop
  endfacet
  facet normal -0.965925 -0.258822 0
    outer loop
      vertex 41.9454 30.95 4
      vertex 42.2 30 3
      vertex 42.2 30 4
    endloop
  endfacet
  facet normal 0.25882 -0.965926 0
    outer loop
      vertex 39.35 31.6454 3
      vertex 40.3 31.9 4
      vertex 39.35 31.6454 4
    endloop
  endfacet
  facet normal 0.25882 -0.965926 0
    outer loop
      vertex 40.3 31.9 4
      vertex 39.35 31.6454 3
      vertex 40.3 31.9 3
    endloop
  endfacet
  facet normal 0.707107 -0.707107 0
    outer loop
      vertex 38.6546 30.95 4
      vertex 39.35 31.6454 3
      vertex 39.35 31.6454 4
    endloop
  endfacet
  facet normal 0.707107 -0.707107 0
    outer loop
      vertex 39.35 31.6454 3
      vertex 38.6546 30.95 4
      vertex 38.6546 30.95 3
    endloop
  endfacet
  facet normal -0.25882 -0.965926 0
    outer loop
      vertex 40.3 31.9 3
      vertex 41.25 31.6454 4
      vertex 40.3 31.9 4
    endloop
  endfacet
  facet normal -0.25882 -0.965926 -0
    outer loop
      vertex 41.25 31.6454 4
      vertex 40.3 31.9 3
      vertex 41.25 31.6454 3
    endloop
  endfacet
  facet normal 0.25882 0.965926 -0
    outer loop
      vertex 40.3 28.1 3
      vertex 39.35 28.3546 4
      vertex 40.3 28.1 4
    endloop
  endfacet
  facet normal 0.25882 0.965926 0
    outer loop
      vertex 39.35 28.3546 4
      vertex 40.3 28.1 3
      vertex 39.35 28.3546 3
    endloop
  endfacet
  facet normal -0.25882 0.965926 0
    outer loop
      vertex 41.25 28.3546 3
      vertex 40.3 28.1 4
      vertex 41.25 28.3546 4
    endloop
  endfacet
  facet normal -0.25882 0.965926 0
    outer loop
      vertex 40.3 28.1 4
      vertex 41.25 28.3546 3
      vertex 40.3 28.1 3
    endloop
  endfacet
  facet normal -0.965925 0.258822 0
    outer loop
      vertex 41.9454 29.05 3
      vertex 42.2 30 4
      vertex 42.2 30 3
    endloop
  endfacet
  facet normal -0.965925 0.258822 0
    outer loop
      vertex 42.2 30 4
      vertex 41.9454 29.05 3
      vertex 41.9454 29.05 4
    endloop
  endfacet
  facet normal -0.707107 -0.707107 0
    outer loop
      vertex 41.9454 30.95 3
      vertex 41.25 31.6454 4
      vertex 41.25 31.6454 3
    endloop
  endfacet
  facet normal -0.707107 -0.707107 0
    outer loop
      vertex 41.25 31.6454 4
      vertex 41.9454 30.95 3
      vertex 41.9454 30.95 4
    endloop
  endfacet
  facet normal -0.707107 0.707107 0
    outer loop
      vertex 41.25 28.3546 3
      vertex 41.9454 29.05 4
      vertex 41.9454 29.05 3
    endloop
  endfacet
  facet normal -0.707107 0.707107 0
    outer loop
      vertex 41.9454 29.05 4
      vertex 41.25 28.3546 3
      vertex 41.25 28.3546 4
    endloop
  endfacet
  facet normal 0.707107 0.707107 0
    outer loop
      vertex 39.35 28.3546 4
      vertex 38.6546 29.05 3
      vertex 38.6546 29.05 4
    endloop
  endfacet
  facet normal 0.707107 0.707107 0
    outer loop
      vertex 38.6546 29.05 3
      vertex 39.35 28.3546 4
      vertex 39.35 28.3546 3
    endloop
  endfacet
  facet normal 0.965926 0.258818 0
    outer loop
      vertex 38.6546 29.05 4
      vertex 38.4 30 3
      vertex 38.4 30 4
    endloop
  endfacet
  facet normal 0.965926 0.258818 0
    outer loop
      vertex 38.4 30 3
      vertex 38.6546 29.05 4
      vertex 38.6546 29.05 3
    endloop
  endfacet
  facet normal 0.80018 -0.214407 -0.560127
    outer loop
      vertex 36.3 30 0
      vertex 38.6546 30.95 3
      vertex 38.4 30 3
    endloop
  endfacet
  facet normal -0.80018 0.21441 -0.560125
    outer loop
      vertex 42.2 30 3
      vertex 44.3 30 4.89843e-016
      vertex 41.9454 29.05 3
    endloop
  endfacet
  facet normal 0.80018 0.214408 -0.560126
    outer loop
      vertex 38.6546 29.05 3
      vertex 36.8359 28 0
      vertex 36.3 30 0
    endloop
  endfacet
  facet normal 0.585773 -0.585772 -0.560126
    outer loop
      vertex 38.3 33.4641 0
      vertex 38.6546 30.95 3
      vertex 36.8359 32 0
    endloop
  endfacet
  facet normal 0.585773 0.585773 -0.560126
    outer loop
      vertex 39.35 28.3546 3
      vertex 36.8359 28 0
      vertex 38.6546 29.05 3
    endloop
  endfacet
  facet normal 0.585773 0.585773 -0.560126
    outer loop
      vertex 36.8359 28 0
      vertex 39.35 28.3546 3
      vertex 38.3 26.5359 0
    endloop
  endfacet
  facet normal -0.214408 0.80018 -0.560126
    outer loop
      vertex 41.25 28.3546 3
      vertex 42.3 26.5359 2.44921e-016
      vertex 40.3 26 0
    endloop
  endfacet
  facet normal -0.585773 0.585773 -0.560126
    outer loop
      vertex 41.9454 29.05 3
      vertex 42.3 26.5359 2.44921e-016
      vertex 41.25 28.3546 3
    endloop
  endfacet
  facet normal -0.80018 -0.214408 -0.560126
    outer loop
      vertex 43.7641 32 4.24216e-016
      vertex 44.3 30 4.89843e-016
      vertex 41.9454 30.95 3
    endloop
  endfacet
  facet normal 0.214408 -0.80018 -0.560126
    outer loop
      vertex 40.3 34 0
      vertex 40.3 31.9 3
      vertex 39.35 31.6454 3
    endloop
  endfacet
  facet normal 0.80018 -0.214408 -0.560126
    outer loop
      vertex 36.8359 32 0
      vertex 38.6546 30.95 3
      vertex 36.3 30 0
    endloop
  endfacet
  facet normal 0.214408 0.80018 -0.560126
    outer loop
      vertex 39.35 28.3546 3
      vertex 40.3 26 0
      vertex 38.3 26.5359 0
    endloop
  endfacet
  facet normal 0.214408 0.80018 -0.560126
    outer loop
      vertex 40.3 28.1 3
      vertex 40.3 26 0
      vertex 39.35 28.3546 3
    endloop
  endfacet
  facet normal -0.585773 -0.585773 -0.560126
    outer loop
      vertex 43.7641 32 4.24216e-016
      vertex 41.25 31.6454 3
      vertex 42.3 33.4641 2.44921e-016
    endloop
  endfacet
  facet normal -0.585773 -0.585773 -0.560126
    outer loop
      vertex 41.25 31.6454 3
      vertex 43.7641 32 4.24216e-016
      vertex 41.9454 30.95 3
    endloop
  endfacet
  facet normal -0.214408 -0.80018 -0.560126
    outer loop
      vertex 40.3 34 0
      vertex 41.25 31.6454 3
      vertex 40.3 31.9 3
    endloop
  endfacet
  facet normal -0.80018 -0.21441 -0.560125
    outer loop
      vertex 44.3 30 4.89843e-016
      vertex 42.2 30 3
      vertex 41.9454 30.95 3
    endloop
  endfacet
  facet normal 0.214408 -0.80018 -0.560126
    outer loop
      vertex 40.3 34 0
      vertex 39.35 31.6454 3
      vertex 38.3 33.4641 0
    endloop
  endfacet
  facet normal 0.585773 -0.585773 -0.560126
    outer loop
      vertex 38.3 33.4641 0
      vertex 39.35 31.6454 3
      vertex 38.6546 30.95 3
    endloop
  endfacet
  facet normal 0.80018 0.214407 -0.560127
    outer loop
      vertex 38.4 30 3
      vertex 38.6546 29.05 3
      vertex 36.3 30 0
    endloop
  endfacet
  facet normal -0.585773 0.585773 -0.560126
    outer loop
      vertex 43.7641 28 4.24216e-016
      vertex 42.3 26.5359 2.44921e-016
      vertex 41.9454 29.05 3
    endloop
  endfacet
  facet normal -0.80018 0.214408 -0.560126
    outer loop
      vertex 44.3 30 4.89843e-016
      vertex 43.7641 28 4.24216e-016
      vertex 41.9454 29.05 3
    endloop
  endfacet
  facet normal -0.214408 -0.80018 -0.560126
    outer loop
      vertex 42.3 33.4641 2.44921e-016
      vertex 41.25 31.6454 3
      vertex 40.3 34 0
    endloop
  endfacet
  facet normal -0.214408 0.80018 -0.560126
    outer loop
      vertex 41.25 28.3546 3
      vertex 40.3 26 0
      vertex 40.3 28.1 3
    endloop
  endfacet
  facet normal -0.965926 -0.25882 0
    outer loop
      vertex 44.3 30 0
      vertex 43.7641 32 4.24216e-016
      vertex 43.7641 32 0
    endloop
  endfacet
  facet normal -0.965926 -0.25882 0
    outer loop
      vertex 43.7641 32 4.24216e-016
      vertex 44.3 30 0
      vertex 44.3 30 4.89843e-016
    endloop
  endfacet
  facet normal -0.25882 -0.965926 0
    outer loop
      vertex 42.3 33.4641 0
      vertex 42.3 33.4641 2.44921e-016
      vertex 40.3 34 0
    endloop
  endfacet
  facet normal -0.707107 -0.707107 0
    outer loop
      vertex 43.7641 32 0
      vertex 42.3 33.4641 2.44921e-016
      vertex 42.3 33.4641 0
    endloop
  endfacet
  facet normal -0.707107 -0.707107 0
    outer loop
      vertex 42.3 33.4641 2.44921e-016
      vertex 43.7641 32 0
      vertex 43.7641 32 4.24216e-016
    endloop
  endfacet
  facet normal -0.25882 0.965926 0
    outer loop
      vertex 42.3 26.5359 2.44921e-016
      vertex 42.3 26.5359 0
      vertex 40.3 26 0
    endloop
  endfacet
  facet normal -0.965926 0.25882 0
    outer loop
      vertex 43.7641 28 0
      vertex 44.3 30 4.89843e-016
      vertex 44.3 30 0
    endloop
  endfacet
  facet normal -0.965926 0.25882 0
    outer loop
      vertex 44.3 30 4.89843e-016
      vertex 43.7641 28 0
      vertex 43.7641 28 4.24216e-016
    endloop
  endfacet
  facet normal -0.707107 0.707107 0
    outer loop
      vertex 42.3 26.5359 0
      vertex 43.7641 28 4.24216e-016
      vertex 43.7641 28 0
    endloop
  endfacet
  facet normal -0.707107 0.707107 0
    outer loop
      vertex 43.7641 28 4.24216e-016
      vertex 42.3 26.5359 0
      vertex 42.3 26.5359 2.44921e-016
    endloop
  endfacet
endsolid OpenSCAD_Model
