  0
SECTION
  2
HEADER
  9
$ACADVER
  1
AC1032
  9
$ACADMAINTVER
 90
4
  9
$DWGCODEPAGE
  3
ANSI_1252
  9
$LASTSAVEDBY
  1
ezdxf
  9
$REQUIREDVERSIONS
160
0
  9
$INSBASE
 10
0.0
 20
0.0
 30
0.0
  9
$EXTMIN
 10
1e+20
 20
1e+20
 30
1e+20
  9
$EXTMAX
 10
-1e+20
 20
-1e+20
 30
-1e+20
  9
$LIMMIN
 10
0.0
 20
0.0
  9
$LIMMAX
 10
420.0
 20
297.0
  9
$ORTHOMODE
 70
0
  9
$REGENMODE
 70
1
  9
$FILLMODE
 70
1
  9
$QTEXTMODE
 70
0
  9
$MIRRTEXT
 70
1
  9
$LTSCALE
 40
1.0
  9
$ATTMODE
 70
1
  9
$TEXTSIZE
 40
2.5
  9
$TRACEWID
 40
1.0
  9
$TEXTSTYLE
  7
Standard
  9
$CLAYER
  8
0
  9
$CELTYPE
  6
ByLayer
  9
$CECOLOR
 62
256
  9
$CELTSCALE
 40
1.0
  9
$DISPSILH
 70
0
  9
$DIMSCALE
 40
1.0
  9
$DIMASZ
 40
2.5
  9
$DIMEXO
 40
0.625
  9
$DIMDLI
 40
3.75
  9
$DIMRND
 40
0.0
  9
$DIMDLE
 40
0.0
  9
$DIMEXE
 40
1.25
  9
$DIMTP
 40
0.0
  9
$DIMTM
 40
0.0
  9
$DIMTXT
 40
2.5
  9
$DIMCEN
 40
2.5
  9
$DIMTSZ
 40
0.0
  9
$DIMTOL
 70
0
  9
$DIMLIM
 70
0
  9
$DIMTIH
 70
0
  9
$DIMTOH
 70
0
  9
$DIMSE1
 70
0
  9
$DIMSE2
 70
0
  9
$DIMTAD
 70
1
  9
$DIMZIN
 70
8
  9
$DIMBLK
  1

  9
$DIMASO
 70
1
  9
$DIMSHO
 70
1
  9
$DIMPOST
  1

  9
$DIMAPOST
  1

  9
$DIMALT
 70
0
  9
$DIMALTD
 70
3
  9
$DIMALTF
 40
0.03937007874
  9
$DIMLFAC
 40
1.0
  9
$DIMTOFL
 70
1
  9
$DIMTVP
 40
0.0
  9
$DIMTIX
 70
0
  9
$DIMSOXD
 70
0
  9
$DIMSAH
 70
0
  9
$DIMBLK1
  1

  9
$DIMBLK2
  1

  9
$DIMSTYLE
  2
ISO-25
  9
$DIMCLRD
 70
0
  9
$DIMCLRE
 70
0
  9
$DIMCLRT
 70
0
  9
$DIMTFAC
 40
1.0
  9
$DIMGAP
 40
0.625
  9
$DIMJUST
 70
0
  9
$DIMSD1
 70
0
  9
$DIMSD2
 70
0
  9
$DIMTOLJ
 70
0
  9
$DIMTZIN
 70
8
  9
$DIMALTZ
 70
0
  9
$DIMALTTZ
 70
0
  9
$DIMUPT
 70
0
  9
$DIMDEC
 70
2
  9
$DIMTDEC
 70
2
  9
$DIMALTU
 70
2
  9
$DIMALTTD
 70
3
  9
$DIMTXSTY
  7
Standard
  9
$DIMAUNIT
 70
0
  9
$DIMADEC
 70
0
  9
$DIMALTRND
 40
0.0
  9
$DIMAZIN
 70
0
  9
$DIMDSEP
 70
44
  9
$DIMATFIT
 70
3
  9
$DIMFRAC
 70
0
  9
$DIMLDRBLK
  1

  9
$DIMLUNIT
 70
2
  9
$DIMLWD
 70
-2
  9
$DIMLWE
 70
-2
  9
$DIMTMOVE
 70
0
  9
$DIMFXL
 40
1.0
  9
$DIMFXLON
 70
0
  9
$DIMJOGANG
 40
0.785398163397
  9
$DIMTFILL
 70
0
  9
$DIMTFILLCLR
 70
0
  9
$DIMARCSYM
 70
0
  9
$DIMLTYPE
  6

  9
$DIMLTEX1
  6

  9
$DIMLTEX2
  6

  9
$DIMTXTDIRECTION
 70
0
  9
$LUNITS
 70
2
  9
$LUPREC
 70
4
  9
$SKETCHINC
 40
1.0
  9
$FILLETRAD
 40
10.0
  9
$AUNITS
 70
0
  9
$AUPREC
 70
2
  9
$MENU
  1
.
  9
$ELEVATION
 40
0.0
  9
$PELEVATION
 40
0.0
  9
$THICKNESS
 40
0.0
  9
$LIMCHECK
 70
0
  9
$CHAMFERA
 40
0.0
  9
$CHAMFERB
 40
0.0
  9
$CHAMFERC
 40
0.0
  9
$CHAMFERD
 40
0.0
  9
$SKPOLY
 70
0
  9
$TDCREATE
 40
2460261.861840278
  9
$TDUCREATE
 40
2458532.153996898
  9
$TDUPDATE
 40
2460261.861840278
  9
$TDUUPDATE
 40
2458532.1544311
  9
$TDINDWG
 40
0.0
  9
$TDUSRTIMER
 40
0.0
  9
$USRTIMER
 70
1
  9
$ANGBASE
 50
0.0
  9
$ANGDIR
 70
0
  9
$PDMODE
 70
0
  9
$PDSIZE
 40
0.0
  9
$PLINEWID
 40
0.0
  9
$SPLFRAME
 70
0
  9
$SPLINETYPE
 70
6
  9
$SPLINESEGS
 70
8
  9
$HANDSEED
  5
38
  9
$SURFTAB1
 70
6
  9
$SURFTAB2
 70
6
  9
$SURFTYPE
 70
6
  9
$SURFU
 70
6
  9
$SURFV
 70
6
  9
$UCSBASE
  2

  9
$UCSNAME
  2

  9
$UCSORG
 10
0.0
 20
0.0
 30
0.0
  9
$UCSXDIR
 10
1.0
 20
0.0
 30
0.0
  9
$UCSYDIR
 10
0.0
 20
1.0
 30
0.0
  9
$UCSORTHOREF
  2

  9
$UCSORTHOVIEW
 70
0
  9
$UCSORGTOP
 10
0.0
 20
0.0
 30
0.0
  9
$UCSORGBOTTOM
 10
0.0
 20
0.0
 30
0.0
  9
$UCSORGLEFT
 10
0.0
 20
0.0
 30
0.0
  9
$UCSORGRIGHT
 10
0.0
 20
0.0
 30
0.0
  9
$UCSORGFRONT
 10
0.0
 20
0.0
 30
0.0
  9
$UCSORGBACK
 10
0.0
 20
0.0
 30
0.0
  9
$PUCSBASE
  2

  9
$PUCSNAME
  2

  9
$PUCSORG
 10
0.0
 20
0.0
 30
0.0
  9
$PUCSXDIR
 10
1.0
 20
0.0
 30
0.0
  9
$PUCSYDIR
 10
0.0
 20
1.0
 30
0.0
  9
$PUCSORTHOREF
  2

  9
$PUCSORTHOVIEW
 70
0
  9
$PUCSORGTOP
 10
0.0
 20
0.0
 30
0.0
  9
$PUCSORGBOTTOM
 10
0.0
 20
0.0
 30
0.0
  9
$PUCSORGLEFT
 10
0.0
 20
0.0
 30
0.0
  9
$PUCSORGRIGHT
 10
0.0
 20
0.0
 30
0.0
  9
$PUCSORGFRONT
 10
0.0
 20
0.0
 30
0.0
  9
$PUCSORGBACK
 10
0.0
 20
0.0
 30
0.0
  9
$USERI1
 70
0
  9
$USERI2
 70
0
  9
$USERI3
 70
0
  9
$USERI4
 70
0
  9
$USERI5
 70
0
  9
$USERR1
 40
0.0
  9
$USERR2
 40
0.0
  9
$USERR3
 40
0.0
  9
$USERR4
 40
0.0
  9
$USERR5
 40
0.0
  9
$WORLDVIEW
 70
1
  9
$SHADEDGE
 70
3
  9
$SHADEDIF
 70
70
  9
$TILEMODE
 70
1
  9
$MAXACTVP
 70
64
  9
$PINSBASE
 10
0.0
 20
0.0
 30
0.0
  9
$PLIMCHECK
 70
0
  9
$PEXTMIN
 10
1e+20
 20
1e+20
 30
1e+20
  9
$PEXTMAX
 10
-1e+20
 20
-1e+20
 30
-1e+20
  9
$PLIMMIN
 10
0.0
 20
0.0
  9
$PLIMMAX
 10
420.0
 20
297.0
  9
$UNITMODE
 70
0
  9
$VISRETAIN
 70
1
  9
$PLINEGEN
 70
0
  9
$PSLTSCALE
 70
1
  9
$TREEDEPTH
 70
3020
  9
$CMLSTYLE
  2
Standard
  9
$CMLJUST
 70
0
  9
$CMLSCALE
 40
20.0
  9
$PROXYGRAPHICS
 70
1
  9
$MEASUREMENT
 70
1
  9
$CELWEIGHT
370
-1
  9
$ENDCAPS
280
0
  9
$JOINSTYLE
280
0
  9
$LWDISPLAY
290
0
  9
$INSUNITS
 70
4
  9
$HYPERLINKBASE
  1

  9
$STYLESHEET
  1

  9
$XEDIT
290
1
  9
$CEPSNTYPE
380
0
  9
$PSTYLEMODE
290
1
  9
$FINGERPRINTGUID
  2
{61311474-BAB6-4432-87D1-3F640957C48A}
  9
$VERSIONGUID
  2
{986C01FD-B19D-495B-A2F0-2E374EB26CDE}
  9
$EXTNAMES
290
1
  9
$PSVPSCALE
 40
0.0
  9
$OLESTARTUP
290
0
  9
$SORTENTS
280
127
  9
$INDEXCTL
280
0
  9
$HIDETEXT
280
1
  9
$XCLIPFRAME
280
0
  9
$HALOGAP
280
0
  9
$OBSCOLOR
 70
257
  9
$OBSLTYPE
280
0
  9
$INTERSECTIONDISPLAY
280
0
  9
$INTERSECTIONCOLOR
 70
257
  9
$DIMASSOC
280
2
  9
$PROJECTNAME
  1

  9
$CAMERADISPLAY
290
0
  9
$LENSLENGTH
 40
50.0
  9
$CAMERAHEIGHT
 40
0.0
  9
$STEPSPERSEC
 40
24.0
  9
$STEPSIZE
 40
100.0
  9
$3DDWFPREC
 40
2.0
  9
$PSOLWIDTH
 40
0.005
  9
$PSOLHEIGHT
 40
0.08
  9
$LOFTANG1
 40
1.570796326795
  9
$LOFTANG2
 40
1.570796326795
  9
$LOFTMAG1
 40
0.0
  9
$LOFTMAG2
 40
0.0
  9
$LOFTPARAM
 70
7
  9
$LOFTNORMALS
280
1
  9
$LATITUDE
 40
37.795
  9
$LONGITUDE
 40
-122.394
  9
$NORTHDIRECTION
 40
0.0
  9
$TIMEZONE
 70
-8000
  9
$LIGHTGLYPHDISPLAY
280
1
  9
$TILEMODELIGHTSYNCH
280
1
  9
$CMATERIAL
347
20
  9
$SOLIDHIST
280
0
  9
$SHOWHIST
280
1
  9
$DWFFRAME
280
2
  9
$DGNFRAME
280
2
  9
$REALWORLDSCALE
290
1
  9
$INTERFERECOLOR
 62
256
  9
$CSHADOW
280
0
  9
$SHADOWPLANELOCATION
 40
0.0
  0
ENDSEC
  0
SECTION
  2
CLASSES
  0
CLASS
  1
ACDBDICTIONARYWDFLT
  2
AcDbDictionaryWithDefault
  3
ObjectDBX Classes
 90
0
 91
0
280
0
281
0
  0
CLASS
  1
SUN
  2
AcDbSun
  3
SCENEOE
 90
1153
 91
0
280
0
281
0
  0
CLASS
  1
VISUALSTYLE
  2
AcDbVisualStyle
  3
ObjectDBX Classes
 90
4095
 91
0
280
0
281
0
  0
CLASS
  1
MATERIAL
  2
AcDbMaterial
  3
ObjectDBX Classes
 90
1153
 91
0
280
0
281
0
  0
CLASS
  1
SCALE
  2
AcDbScale
  3
ObjectDBX Classes
 90
1153
 91
0
280
0
281
0
  0
CLASS
  1
TABLESTYLE
  2
AcDbTableStyle
  3
ObjectDBX Classes
 90
4095
 91
0
280
0
281
0
  0
CLASS
  1
MLEADERSTYLE
  2
AcDbMLeaderStyle
  3
ACDB_MLEADERSTYLE_CLASS
 90
4095
 91
0
280
0
281
0
  0
CLASS
  1
DICTIONARYVAR
  2
AcDbDictionaryVar
  3
ObjectDBX Classes
 90
0
 91
0
280
0
281
0
  0
CLASS
  1
CELLSTYLEMAP
  2
AcDbCellStyleMap
  3
ObjectDBX Classes
 90
1152
 91
0
280
0
281
0
  0
CLASS
  1
MENTALRAYRENDERSETTINGS
  2
AcDbMentalRayRenderSettings
  3
SCENEOE
 90
1024
 91
0
280
0
281
0
  0
CLASS
  1
ACDBDETAILVIEWSTYLE
  2
AcDbDetailViewStyle
  3
ObjectDBX Classes
 90
1025
 91
0
280
0
281
0
  0
CLASS
  1
ACDBSECTIONVIEWSTYLE
  2
AcDbSectionViewStyle
  3
ObjectDBX Classes
 90
1025
 91
0
280
0
281
0
  0
CLASS
  1
RASTERVARIABLES
  2
AcDbRasterVariables
  3
ISM
 90
0
 91
0
280
0
281
0
  0
CLASS
  1
LAYOUT
  2
AcDbLayout
  3
ObjectDBX Classes
 90
0
 91
0
280
0
281
0
  0
CLASS
  1
ACDBPLACEHOLDER
  2
AcDbPlaceHolder
  3
ObjectDBX Classes
 90
0
 91
0
280
0
281
0
  0
ENDSEC
  0
SECTION
  2
TABLES
  0
TABLE
  2
VPORT
  5
8
330
0
100
AcDbSymbolTable
 70
1
  0
VPORT
  5
23
330
8
100
AcDbSymbolTableRecord
100
AcDbViewportTableRecord
  2
*Active
 70
0
 10
0.0
 20
0.0
 11
1.0
 21
1.0
 12
0.0
 22
0.0
 13
0.0
 23
0.0
 14
0.5
 24
0.5
 15
0.5
 25
0.5
 16
0.0
 26
0.0
 36
1.0
 17
0.0
 27
0.0
 37
0.0
 40
1000.0
 41
1.34
 42
50.0
 43
0.0
 44
0.0
 50
0.0
 51
0.0
 71
0
 72
1000
 73
1
 74
3
 75
0
 76
0
 77
0
 78
0
281
0
 65
0
146
0.0
  0
ENDTAB
  0
TABLE
  2
LTYPE
  5
2
330
0
100
AcDbSymbolTable
 70
3
  0
LTYPE
  5
24
330
2
100
AcDbSymbolTableRecord
100
AcDbLinetypeTableRecord
  2
ByBlock
 70
0
  3

 72
65
 73
0
 40
0.0
  0
LTYPE
  5
25
330
2
100
AcDbSymbolTableRecord
100
AcDbLinetypeTableRecord
  2
ByLayer
 70
0
  3

 72
65
 73
0
 40
0.0
  0
LTYPE
  5
26
330
2
100
AcDbSymbolTableRecord
100
AcDbLinetypeTableRecord
  2
Continuous
 70
0
  3

 72
65
 73
0
 40
0.0
  0
ENDTAB
  0
TABLE
  2
LAYER
  5
1
330
0
100
AcDbSymbolTable
 70
2
  0
LAYER
  5
27
330
1
100
AcDbSymbolTableRecord
100
AcDbLayerTableRecord
  2
0
 70
0
 62
7
  6
Continuous
370
-3
390
13
347
21
  0
LAYER
  5
28
330
1
100
AcDbSymbolTableRecord
100
AcDbLayerTableRecord
  2
Defpoints
 70
0
 62
7
  6
Continuous
290
0
370
-3
390
13
347
21
  0
ENDTAB
  0
TABLE
  2
STYLE
  5
5
330
0
100
AcDbSymbolTable
 70
1
  0
STYLE
  5
29
330
5
100
AcDbSymbolTableRecord
100
AcDbTextStyleTableRecord
  2
Standard
 70
0
 40
0.0
 41
1.0
 50
0.0
 71
0
 42
2.5
  3
txt
  4

  0
ENDTAB
  0
TABLE
  2
VIEW
  5
7
330
0
100
AcDbSymbolTable
 70
0
  0
ENDTAB
  0
TABLE
  2
UCS
  5
6
330
0
100
AcDbSymbolTable
 70
0
  0
ENDTAB
  0
TABLE
  2
APPID
  5
3
330
0
100
AcDbSymbolTable
 70
3
  0
APPID
  5
2A
330
3
100
AcDbSymbolTableRecord
100
AcDbRegAppTableRecord
  2
ACAD
 70
0
  0
APPID
  5
35
330
3
100
AcDbSymbolTableRecord
100
AcDbRegAppTableRecord
  2
HATCHBACKGROUNDCOLOR
 70
0
  0
APPID
  5
36
330
3
100
AcDbSymbolTableRecord
100
AcDbRegAppTableRecord
  2
EZDXF
 70
0
  0
ENDTAB
  0
TABLE
  2
DIMSTYLE
  5
4
330
0
100
AcDbSymbolTable
 70
1
100
AcDbDimStyleTable
  0
DIMSTYLE
105
2B
330
4
100
AcDbSymbolTableRecord
100
AcDbDimStyleTableRecord
  2
Standard
 70
0
 40
1.0
 41
2.5
 42
0.625
 43
3.75
 44
1.25
 45
0.0
 46
0.0
 47
0.0
 48
0.0
 49
2.5
140
2.5
141
2.5
142
0.0
143
0.03937007874
144
1.0
145
0.0
146
1.0
147
0.625
148
0.0
 69
0
 70
0
 71
0
 72
0
 73
0
 74
0
 75
0
 76
0
 77
1
 78
8
 79
3
170
0
171
3
172
1
173
0
174
0
175
0
176
0
177
0
178
0
179
2
271
2
272
2
273
2
274
3
275
0
276
0
277
2
278
44
279
0
280
0
281
0
282
0
283
0
284
8
285
0
286
0
288
0
289
3
290
0
371
-2
372
-2
  0
ENDTAB
  0
TABLE
  2
BLOCK_RECORD
  5
9
330
0
100
AcDbSymbolTable
 70
2
  0
BLOCK_RECORD
  5
17
330
9
100
AcDbSymbolTableRecord
100
AcDbBlockTableRecord
  2
*Model_Space
340
1A
 70
0
280
1
281
0
  0
BLOCK_RECORD
  5
1B
330
9
100
AcDbSymbolTableRecord
100
AcDbBlockTableRecord
  2
*Paper_Space
340
1E
 70
0
280
1
281
0
  0
ENDTAB
  0
ENDSEC
  0
SECTION
  2
BLOCKS
  0
BLOCK
  5
18
330
17
100
AcDbEntity
  8
0
100
AcDbBlockBegin
  2
*Model_Space
 70
0
 10
0.0
 20
0.0
 30
0.0
  3
*Model_Space
  1

  0
ENDBLK
  5
19
330
17
100
AcDbEntity
  8
0
100
AcDbBlockEnd
  0
BLOCK
  5
1C
330
1B
100
AcDbEntity
  8
0
100
AcDbBlockBegin
  2
*Paper_Space
 70
0
 10
0.0
 20
0.0
 30
0.0
  3
*Paper_Space
  1

  0
ENDBLK
  5
1D
330
1B
100
AcDbEntity
  8
0
100
AcDbBlockEnd
  0
ENDSEC
  0
SECTION
  2
ENTITIES
  0
LWPOLYLINE
  5
2F
330
17
100
AcDbEntity
  8
0
 62
0
100
AcDbPolyline
 90
1382
 70
0
 10
9.259551246658074
 20
-26.822598369823734
 10
9.185116365879898
 20
-26.709133106038355
 10
9.117168447934388
 20
-26.601475142788974
 10
9.055474468395694
 20
-26.49980858954001
 10
8.999797109371887
 20
-26.404310981349486
 10
8.94989492298642
 20
-26.315153187708077
 10
8.905522496696433
 20
-26.232499325186822
 10
8.866430620363786
 20
-26.156506673930373
 10
8.81136675903811
 20
-26.044677215371284
 10
8.75405602005124
 20
-25.938056074655776
 10
8.695960224870664
 20
-25.84214133367355
 10
8.637449935783662
 20
-25.7569230236401
 10
8.578895033416241
 20
-25.68238123753721
 10
8.520664477811156
 20
-25.618486152692963
 10
8.463126070121506
 20
-25.565198058764352
 10
8.406646215037398
 20
-25.522467391107988
 10
8.351589684062727
 20
-25.490234769520516
 10
8.298319379759022
 20
-25.468431042328906
 10
8.247196101072364
 20
-25.45697733580766
 10
8.198578309859222
 20
-25.4557851088978
 10
8.152821898726462
 20
-25.46475621320028
 10
7.8694409196751325
 20
-25.55042117690989
 10
7.211867355099144
 20
-25.739491694074044
 10
6.551785735465228
 20
-25.919610845502632
 10
6.2651493878604985
 20
-25.99365724667975
 10
6.221392980496611
 20
-26.009766457919312
 10
6.1804724582450685
 20
-26.036046143726242
 10
6.142742898988008
 20
-26.072395247910762
 10
6.108556584004542
 20
-26.118703170644416
 10
6.078262768437179
 20
-26.174849837827207
 10
6.052207453375882
 20
-26.240705775644077
 10
6.030733159672437
 20
-26.316132190274104
 10
6.014178703597156
 20
-26.400981052714233
 10
6.002878974449135
 20
-26.49509518867609
 10
5.997164714230107
 20
-26.59830837351288
 10
5.9973622994914315
 20
-26.710445432130502
 10
6.003793525462391
 20
-26.831322343834966
 10
6.014850685664933
 20
-26.955481901799576
 10
6.020934389879684
 20
-27.040723009155233
 10
6.025967348205188
 20
-27.134399273678522
 10
6.029654910424788
 20
-27.236505797749857
 10
6.031702118963524
 20
-27.347029869404757
 10
6.031813895025551
 20
-27.465950946876145
 10
6.029695225232259
 20
-27.593240647333186
 10
6.0250513486697
 20
-27.728862739828536
 10
6.017587944253489
 20
-27.87277314246695
 10
6.007011318319116
 20
-28.024919923803964
 10
5.9930285923453175
 20
-28.185243308483553
 10
5.975347890718018
 20
-28.35367568711884
 10
5.953678528442105
 20
-28.530141630421262
 10
5.927731198708204
 20
-28.714557907578673
 10
5.897218160221509
 20
-28.906833508883107
 10
5.861853424199785
 20
-29.106869672605725
 10
5.821352940947494
 20
-29.314559916114597
 10
5.775434785913222
 20
-29.529790071229062
 10
5.723819345137393
 20
-29.752438323803357
 10
5.66622949999768
 20
-29.98237525752882
 10
5.602390811159849
 20
-30.219463901941147
 10
5.532031701640622
 20
-30.463559784622948
 10
5.454883638892106
 20
-30.714510987579626
 10
5.370681315814509
 20
-30.972158207775234
 10
5.234439602254247
 20
-31.365432577388134
 10
4.334319057585438
 20
-31.53451307267059
 10
3.4219600527341
 20
-31.61455215741353
 10
3.1846663963886574
 20
-31.27261904265792
 10
3.034074135756036
 20
-31.047243595184714
 10
2.8920811081744193
 20
-30.826412641807572
 10
2.7584748242956882
 20
-30.61035115717262
 10
2.6330376964716766
 20
-30.399277874957487
 10
2.5155471967220833
 20
-30.193405180743603
 10
2.405776016856666
 20
-29.992939008605205
 10
2.3034922306655337
 20
-29.79807874145268
 10
2.208459458096457
 20
-29.609017115176286
 10
2.1204370313316545
 20
-29.425940126624514
 10
2.0391801626790964
 20
-29.249026945455185
 10
1.964440114191931
 20
-29.07844982989434
 10
1.8959643689284853
 20
-28.914374046435373
 10
1.8334968037650237
 20
-28.75695779350918
 10
1.7767778636730882
 20
-28.60635212915481
 10
1.7255447373724118
 20
-28.462700902717902
 10
1.6795315342698194
 20
-28.32614069060152
 10
1.6384694625946177
 20
-28.19680073609369
 10
1.6020870086396208
 20
-28.074802893291665
 10
1.5701101170177643
 20
-27.960261575143807
 10
1.5422623718428934
 20
-27.853283705625607
 10
1.5182651787438113
 20
-27.753968676066034
 10
1.4978379476195078
 20
-27.662408305636806
 10
1.4806982760445901
 20
-27.578686806017565
 10
1.4578475589054571
 20
-27.456148235143164
 10
1.4314280970864437
 20
-27.338018643220177
 10
1.4013641390082183
 20
-27.229986623059386
 10
1.3680151950491093
 20
-27.13214255205448
 10
1.3317428005073946
 20
-27.04456705399208
 10
1.2929102794471732
 20
-26.96733095633407
 10
1.2518825076793951
 20
-26.90049525286821
 10
1.2090256749950794
 20
-26.844111071744877
 10
1.1647070467683955
 20
-26.798219648913687
 10
1.1192947250475656
 20
-26.762852306972576
 10
1.0731574092514942
 20
-26.73803043943844
 10
1.0266641565904608
 20
-26.723765500446405
 10
0.9801841423292118
 20
-26.720058999882504
 10
0.6841995680850054
 20
-26.726092001203153
 10
-6.133525176275317e-15
 20
-26.730740046187485
 10
-0.6841995680850139
 20
-26.72609200120316
 10
-0.9801841423292252
 20
-26.7200589998825
 10
-1.0266641565904655
 20
-26.7237655004464
 10
-1.0731574092515075
 20
-26.73803043943844
 10
-1.1192947250475773
 20
-26.762852306972587
 10
-1.1647070467684033
 20
-26.798219648913687
 10
-1.2090256749950874
 20
-26.844111071744862
 10
-1.2518825076794124
 20
-26.90049525286821
 10
-1.2929102794471763
 20
-26.96733095633406
 10
-1.3317428005073972
 20
-27.044567053992086
 10
-1.368015195049117
 20
-27.13214255205447
 10
-1.4013641390082219
 20
-27.229986623059396
 10
-1.431428097086447
 20
-27.33801864322017
 10
-1.4578475589054671
 20
-27.45614823514316
 10
-1.480698276044602
 20
-27.578686806017554
 10
-1.4978379476195125
 20
-27.662408305636802
 10
-1.5182651787438177
 20
-27.75396867606603
 10
-1.5422623718429076
 20
-27.853283705625604
 10
-1.570110117017773
 20
-27.960261575143807
 10
-1.6020870086396302
 20
-28.074802893291665
 10
-1.6384694625946272
 20
-28.196800736093696
 10
-1.6795315342698285
 20
-28.326140690601516
 10
-1.7255447373724173
 20
-28.4627009027179
 10
-1.7767778636730966
 20
-28.606352129154804
 10
-1.8334968037650337
 20
-28.756957793509184
 10
-1.8959643689284962
 20
-28.91437404643538
 10
-1.9644401141919468
 20
-29.078449829894346
 10
-2.039180162679102
 20
-29.249026945455185
 10
-2.1204370313316616
 20
-29.425940126624514
 10
-2.208459458096472
 20
-29.60901711517628
 10
-2.303492230665551
 20
-29.798078741452677
 10
-2.405776016856676
 20
-29.99293900860521
 10
-2.515547196722096
 20
-30.193405180743614
 10
-2.6330376964716855
 20
-30.39927787495748
 10
-2.7584748242956914
 20
-30.61035115717262
 10
-2.892081108174426
 20
-30.826412641807572
 10
-3.0340741357560472
 20
-31.047243595184714
 10
-3.184666396388669
 20
-31.27261904265791
 10
-3.4177124442760753
 20
-31.608431479715325
 10
-5.0063012155404865
 20
-31.43483393566218
 10
-5.2264123289089515
 20
-31.388604048019914
 10
-5.370681315814519
 20
-30.97215820777523
 10
-5.454883638892116
 20
-30.714510987579615
 10
-5.532031701640628
 20
-30.46355978462294
 10
-5.602390811159851
 20
-30.219463901941143
 10
-5.66622949999769
 20
-29.98237525752882
 10
-5.723819345137404
 20
-29.752438323803343
 10
-5.77543478591323
 20
-29.52979007122905
 10
-5.821352940947511
 20
-29.314559916114593
 10
-5.861853424199799
 20
-29.106869672605725
 10
-5.897218160221513
 20
-28.9068335088831
 10
-5.9277311987082095
 20
-28.71455790757867
 10
-5.953678528442119
 20
-28.530141630421248
 10
-5.975347890718027
 20
-28.35367568711883
 10
-5.993028592345324
 20
-28.18524330848354
 10
-6.007011318319126
 20
-28.024919923803967
 10
-6.017587944253497
 20
-27.87277314246695
 10
-6.0250513486697095
 20
-27.72886273982853
 10
-6.029695225232268
 20
-27.59324064733318
 10
-6.03181389502556
 20
-27.465950946876138
 10
-6.03170211896353
 20
-27.34702986940475
 10
-6.029654910424802
 20
-27.236505797749857
 10
-6.025967348205195
 20
-27.134399273678522
 10
-6.020934389879689
 20
-27.040723009155233
 10
-6.014850685664945
 20
-26.955481901799576
 10
-6.0037935254624
 20
-26.831322343834962
 10
-5.997362299491436
 20
-26.710445432130502
 10
-5.997164714230106
 20
-26.598308373512868
 10
-6.002878974449144
 20
-26.49509518867609
 10
-6.014178703597158
 20
-26.400981052714222
 10
-6.030733159672442
 20
-26.316132190274107
 10
-6.052207453375897
 20
-26.24070577564407
 10
-6.078262768437189
 20
-26.174849837827214
 10
-6.108556584004545
 20
-26.118703170644405
 10
-6.142742898988016
 20
-26.072395247910748
 10
-6.18047245824508
 20
-26.036046143726235
 10
-6.221392980496615
 20
-26.00976645791931
 10
-6.265149387860512
 20
-25.99365724667975
 10
-6.5517857354652325
 20
-25.919610845502618
 10
-7.211867355099153
 20
-25.739491694074037
 10
-7.869440919675143
 20
-25.550421176909893
 10
-8.152821898726472
 20
-25.464756213200264
 10
-8.198578309859226
 20
-25.455785108897796
 10
-8.247196101072374
 20
-25.456977335807654
 10
-8.298319379759034
 20
-25.46843104232891
 10
-8.351589684062734
 20
-25.490234769520512
 10
-8.406646215037403
 20
-25.522467391107973
 10
-8.463126070121522
 20
-25.565198058764345
 10
-8.520664477811156
 20
-25.618486152692952
 10
-8.578895033416243
 20
-25.682381237537214
 10
-8.637449935783666
 20
-25.756923023640084
 10
-8.695960224870669
 20
-25.842141333673553
 10
-8.75405602005124
 20
-25.938056074655762
 10
-8.811366759038117
 20
-26.044677215371273
 10
-8.866430620363792
 20
-26.156506673930362
 10
-8.905522496696435
 20
-26.23249932518681
 10
-8.949894922986426
 20
-26.315153187708066
 10
-8.9997971093719
 20
-26.40431098134947
 10
-9.0554744683957
 20
-26.49980858954001
 10
-9.117168447934397
 20
-26.601475142788967
 10
-9.185116365879908
 20
-26.709133106038355
 10
-9.25955124665808
 20
-26.822598369823723
 10
-9.340701659669326
 20
-26.9416803452068
 10
-9.428791559734547
 20
-27.06618206243941
 10
-9.524040129629888
 20
-27.19590027331849
 10
-9.626661624791438
 20
-27.330625557187492
 10
-9.736865220271925
 20
-27.470142430540616
 10
-9.854854860029011
 20
-27.614229460182116
 10
-9.980829108624913
 20
-27.762659379892966
 10
-10.114981005415475
 20
-27.915199210554487
 10
-10.2574979213059
 20
-28.071610383676877
 10
-10.408561418149267
 20
-28.23164886827918
 10
-10.568347110863396
 20
-28.3950653010659
 10
-10.737024532339708
 20
-28.561605119843236
 10
-10.914757001215856
 20
-28.731008700115307
 10
-11.101701492586892
 20
-28.903011494803565
 10
-11.298008511720766
 20
-29.07734417702358
 10
-11.503821970851044
 20
-29.253732785859352
 10
-11.825775862829618
 20
-29.519963354740543
 10
-13.501741655527573
 20
-28.80470874928397
 10
-13.52771016405591
 20
-28.374634086817682
 10
-13.539277648475814
 20
-28.103823609563968
 10
-13.545859027506067
 20
-27.841364059725688
 10
-13.54775274938425
 20
-27.587337253951194
 10
-13.54525837572738
 20
-27.341817027489366
 10
-13.538676390899212
 20
-27.104869224735236
 10
-13.528308011468035
 20
-26.876551694070507
 10
-13.514454995848153
 20
-26.656914286986506
 10
-13.497419454218216
 20
-26.44599886148658
 10
-13.477503658809013
 20
-26.24383928975185
 10
-13.45500985465315
 20
-26.050461470058718
 10
-13.430240070888571
 20
-25.86588334293316
 10
-13.403495932707676
 20
-25.690114911524052
 10
-13.375078474042942
 20
-25.523158266176186
 10
-13.345287951079847
 20
-25.365007613182406
 10
-13.314423656687207
 20
-25.215649307691844
 10
-13.28278373585429
 20
-25.075061890748792
 10
-13.250665002223881
 20
-24.9432161304365
 10
-13.21836275580917
 20
-24.82007506709572
 10
-13.186170601982436
 20
-24.70559406258912
 10
-13.15438027182207
 20
-24.59972085357819
 10
-13.123281443904128
 20
-24.5023956087792
 10
-13.09316156762356
 20
-24.41355099016115
 10
-13.064305688129668
 20
-24.33311221804953
 10
-13.02016070957453
 20
-24.216540019416755
 10
-12.981355770422947
 20
-24.10188067549686
 10
-12.950911295817006
 20
-23.993955271067144
 10
-12.928567071756525
 20
-23.893027822148937
 10
-12.914056086292751
 20
-23.799355063208374
 10
-12.907104709107593
 20
-23.71318628795562
 10
-12.907432874621097
 20
-23.634763194281625
 10
-12.914754268536404
 20
-23.56431973340825
 10
-12.928776517728789
 20
-23.502081963324862
 10
-12.949201383384558
 20
-23.448267906583165
 10
-12.975724957293767
 20
-23.403087412519557
 10
-13.008037861199341
 20
-23.366742023972474
 10
-13.04582544910395
 20
-23.339424848560153
 10
-13.301855063441378
 20
-23.190790727720806
 10
-13.888863500568446
 20
-22.839262993350484
 10
-14.471041838549702
 20
-22.47979249932452
 10
-14.72080215157363
 20
-22.320848951693133
 10
-14.762441415885833
 20
-22.299865588290338
 10
-14.809577986488407
 20
-22.287896681102186
 10
-14.861895648358905
 20
-22.285132757595086
 10
-14.919073120470703
 20
-22.291755787336808
 10
-14.980784263157831
 20
-22.307939061591842
 10
-15.046698288168297
 20
-22.333847077640964
 10
-15.116479971302164
 20
-22.369635427882454
 10
-15.189789867529957
 20
-22.415450693770616
 10
-15.266284528485343
 20
-22.47143034464471
 10
-15.345616722225422
 20
-22.53770264149936
 10
-15.427435655150376
 20
-22.6143865457451
 10
-15.511387195973642
 20
-22.701591633005524
 10
-15.594580366791739
 20
-22.794418099893708
 10
-15.652725182247952
 20
-22.85704587548692
 10
-15.717751903836039
 20
-22.924663171233263
 10
-15.789858066631
 20
-22.99705130327188
 10
-15.869235704491912
 20
-23.073986029407745
 10
-15.956071211716235
 20
-23.155237674596865
 10
-16.050545207419287
 20
-23.240571259661813
 10
-16.152832402710036
 20
-23.329746633178814
 10
-16.263101470735332
 20
-23.42251860647821
 10
-16.381514919661736
 20
-23.518637091696835
 10
-16.508228968664557
 20
-23.617847242821043
 10
-16.643393426990162
 20
-23.719889599655453
 10
-16.787151576158802
 20
-23.824500234653357
 10
-16.939640055371726
 20
-23.93141090254131
 10
-17.100988750186453
 20
-24.040349192670426
 10
-17.271320684521896
 20
-24.151038684024826
 10
-17.45075191605358
 20
-24.263199102816234
 10
-17.639391435057835
 20
-24.376546482592705
 10
-17.837341066762967
 20
-24.49079332678839
 10
-18.04469537726296
 20
-24.605648773639455
 10
-18.261541583046654
 20
-24.720818763389488
 10
-18.487959464199143
 20
-24.83600620770945
 10
-18.72402128132097
 20
-24.95091116125103
 10
-18.969791696219133
 20
-25.06523099525622
 10
-19.374432098019987
 20
-25.24484635253021
 10
-20.768541241240804
 20
-24.075613135664256
 10
-20.68145063458542
 20
-23.672693160954537
 10
-20.619525372945926
 20
-23.408804200865127
 10
-20.555051957483048
 20
-23.154301728284207
 10
-20.48833984303169
 20
-22.909184005506
 10
-20.419697403163244
 20
-22.673441309011043
 10
-20.349431744071325
 20
-22.44705597179446
 10
-20.277848519703372
 20
-22.23000242980549
 10
-20.20525174822453
 20
-22.022247272461094
 10
-20.131943629902633
 20
-21.823749297205566
 10
-20.058224366499317
 20
-21.634459568075794
 10
-19.984391982252827
 20
-21.45432147823594
 10
-19.910742146537363
 20
-21.283270816442403
 10
-19.837567998282246
 20
-21.12123583739715
 10
-19.765159972233416
 20
-20.968137335946327
 10
-19.693805627139028
 20
-20.823888725079797
 10
-19.623789475939727
 20
-20.68839611768513
 10
-19.55539281804285
 20
-20.561558412007482
 10
-19.488893573759412
 20
-20.4432673807664
 10
-19.424566120980334
 20
-20.333407763876977
 10
-19.36268113416892
 20
-20.231857364723677
 10
-19.303505425743822
 20
-20.138487149931347
 10
-19.247301789926546
 20
-20.05316135257807
 10
-19.19432884912539
 20
-19.975737578791072
 10
-19.144840902927545
 20
-19.906066917668113
 10
-19.070882137129402
 20
-19.805727705057446
 10
-19.002581469613297
 20
-19.705789687929066
 10
-18.944148033070064
 20
-19.61008027120794
 10
-18.895402493610604
 20
-19.51892388538222
 10
-18.85615700694355
 20
-19.432639783469213
 10
-18.826215348343336
 20
-19.351541839268403
 10
-18.805373047132015
 20
-19.275938348646466
 10
-18.793417525607783
 20
-19.20613183395217
 10
-18.790128242350118
 20
-19.142418851656437
 10
-18.795276839830045
 20
-19.085089803312297
 10
-18.808627296251824
 20
-19.034428749927283
 10
-18.829936081550464
 20
-18.990713229839496
 10
-18.85895231746761
 20
-18.954214080186983
 10
-19.065386653299893
 20
-18.742015752472216
 10
-19.535786177523303
 20
-18.245150639086013
 10
-19.999391784870436
 20
-17.741940450272054
 10
-20.19700785202738
 20
-17.52150643452838
 10
-20.23144177577196
 20
-17.490067052096336
 10
-20.273601221957826
 20
-17.465824689902217
 10
-20.323233105368605
 20
-17.44904812392918
 10
-20.380077153751493
 20
-17.439999256403418
 10
-20.443866075007676
 20
-17.438932943908082
 10
-20.514325728246067
 20
-17.44609682932088
 10
-20.59117529861609
 20
-17.461731177658645
 10
-20.67412747583382
 20
-17.48606871591068
 10
-20.7628886363139
 20
-17.51933447694052
 10
-20.857159028817993
 20
-17.561745647534238
 10
-20.956632963528996
 20
-17.613511420671113
 10
-21.06099900445853
 20
-17.67483285209108
 10
-21.1661514278729
 20
-17.74177181291209
 10
-21.239036847485135
 20
-17.786389897229327
 10
-21.319895129908584
 20
-17.833955760703798
 10
-21.408857484882276
 20
-17.884205534539994
 10
-21.50604832530869
 20
-17.936871481936638
 10
-21.61158516789383
 20
-17.99168215624379
 10
-21.725578537282896
 20
-18.048362561495203
 10
-21.84813187374428
 20
-18.106634315240274
 10
-21.979341444455617
 20
-18.16621581359991
 10
-22.119296258441818
 20
-18.226822398468695
 10
-22.268077985215776
 20
-18.288166526785385
 10
-22.425760877167676
 20
-18.34995794179152
 10
-22.592411695750407
 20
-18.41190384619822
 10
-22.768089641504318
 20
-18.47370907717914
 10
-22.952846287964626
 20
-18.535076283107163
 10
-23.14672551949204
 20
-18.595706101951418
 10
-23.34976347306555
 20
-18.655297341249856
 10
-23.561988484074526
 20
-18.713547159572233
 10
-23.783421036146397
 20
-18.77015124938742
 10
-24.014073715043143
 20
-18.824804021247978
 10
-24.253951166656783
 20
-18.877198789203863
 10
-24.50305005913853
 20
-18.927027957357808
 10
-24.761359049183337
 20
-18.973983207471967
 10
-25.028858752501225
 20
-19.01775568753684
 10
-25.4532128418845
 20
-19.079539167081787
 10
-25.76777377955087
 20
-18.6877947032086
 10
-26.49274297062177
 20
-17.577329676030697
 10
-26.301342522888916
 20
-17.21505687870861
 10
-26.17051722855661
 20
-16.977660872741673
 10
-26.039770716879236
 20
-16.74999076153809
 10
-25.90940049843957
 20
-16.531961381915664
 10
-25.779700888106323
 20
-16.323480172735533
 10
-25.650962837241497
 20
-16.12444726587384
 10
-25.523473768216686
 20
-15.934755580816077
 10
-25.397517411311327
 20
-15.754290922814912
 10
-25.27337364407109
 20
-15.582932084560671
 10
-25.151318333197093
 20
-15.420550951302518
 10
-25.031623179038853
 20
-15.267012609362444
 10
-24.914555562761937
 20
-15.122175457981442
 10
-24.80037839625923
 20
-14.985891324435125
 10
-24.68934997487368
 20
-14.858005582354911
 10
-24.581723832999227
 20
-14.738357273190113
 10
-24.477748602625134
 20
-14.626779230744377
 10
-24.377667874886626
 20
-14.523098208718345
 10
-24.28172006468486
 20
-14.427135011190165
 10
-24.190138278435526
 20
-14.338704625962484
 10
-24.103150185006253
 20
-14.257616360705512
 10
-24.020977889899466
 20
-14.183673981822626
 10
-23.9438378127369
 20
-14.116675855965202
 10
-23.87194056809929
 20
-14.056415094120844
 10
-23.805490849774696
 20
-14.002679698199968
 10
-23.70720348005396
 20
-13.92601517198939
 10
-23.61447263222824
 20
-13.848210427196923
 10
-23.532383974420934
 20
-13.771815327781152
 10
-23.460852353228205
 20
-13.697190657171886
 10
-23.39978302356781
 20
-13.624694509401834
 10
-23.349071719396942
 20
-13.554682059775926
 10
-23.308604729594453
 20
-13.487505337242524
 10
-23.278258978969266
 20
-13.423512998578625
 10
-23.257902114353303
 20
-13.363050104499917
 10
-23.247392595735565
 20
-13.306457897806077
 10
-23.246579792391394
 20
-13.254073583670328
 10
-23.255304083958702
 20
-13.206230112181546
 10
-23.273396966410854
 20
-13.16325596324607
 10
-23.414925733423562
 20
-12.903231207879735
 10
-23.733828963966292
 20
-12.297878927930858
 10
-24.0444783336369
 20
-11.6882498419998
 10
-24.175293875259186
 20
-11.422673940673025
 10
-24.19996865183672
 20
-11.38311025438112
 10
-24.234024200348905
 20
-11.348392382283537
 10
-24.27728933555815
 20
-11.3188474149951
 10
-24.32958409718779
 20
-11.294797763310427
 10
-24.39071986453835
 20
-11.276560947584445
 10
-24.46049947585544
 20
-11.264449389752444
 10
-24.53871735239066
 20
-11.258770208092661
 10
-24.625159627095062
 20
-11.259825014833241
 10
-24.71960427788232
 20
-11.267909716703983
 10
-24.821821265396743
 20
-11.283314318532017
 10
-24.93157267521925
 20
-11.306322729979128
 10
-25.04861286444218
 20
-11.337212575517096
 10
-25.167925866248513
 20
-11.37329947377221
 10
-25.25014631187273
 20
-11.396598747613812
 10
-25.34083926622623
 20
-11.420585436321858
 10
-25.440059882485944
 20
-11.44497005610762
 10
-25.547855725461936
 20
-11.469461232377316
 10
-25.66426671859228
 20
-11.493765878831283
 10
-25.789325094944736
 20
-11.517589377907269
 10
-25.923055352255634
 20
-11.540635762480669
 10
-26.06547421203719
 20
-11.562607898734427
 10
-26.2165905827805
 20
-11.583207670110335
 10
-26.376405527281886
 20
-11.602136162252977
 10
-26.544912234115248
 20
-11.619093848856739
 10
-26.72209599327455
 20
-11.633780778326052
 10
-26.907934176006005
 20
-11.6458967611582
 10
-27.102396218849353
 20
-11.655141557957734
 10
-27.305443611904824
 20
-11.661215067991128
 10
-27.51702989134044
 20
-11.663817518189612
 10
-27.737100636152416
 20
-11.662649652508113
 10
-27.965593469190384
 20
-11.657412921547692
 10
-28.202438062455904
 20
-11.647809672348643
 10
-28.44755614667963
 20
-11.633543338261202
 10
-28.70086152518687
 20
-11.614318628800431
 10
-28.96226009204804
 20
-11.589841719392172
 10
-29.231649854520278
 20
-11.5598204409161
 10
-29.639465623360966
 20
-11.507082775517103
 10
-30.083002545693564
 20
-10.403114642220112
 10
-30.262403660497405
 20
-9.788160158685523
 10
-29.970584156905623
 20
-9.480658581413794
 10
-29.780561543475226
 20
-9.287362105317433
 10
-29.593238806228975
 20
-9.103409606117708
 10
-29.40887944649861
 20
-8.928638811319614
 10
-29.227741892462742
 20
-8.762881187001128
 10
-29.05007936212026
 20
-8.605962070681299
 10
-28.87613972946447
 20
-8.457700807053756
 10
-28.706165393912283
 20
-8.317910886508892
 10
-28.540393153049962
 20
-8.186400086374732
 10
-28.379054078746915
 20
-8.0629706147977
 10
-28.22237339669195
 20
-7.947419257187921
 10
-28.070570369404138
 20
-7.8395375251515045
 10
-27.92385818276756
 20
-7.739111807830829
 10
-27.782443836138214
 20
-7.645923525572974
 10
-27.646528036069704
 20
-7.559749285846071
 10
-27.516305093702634
 20
-7.480361041321881
 10
-27.391962825859988
 20
-7.407526250042023
 10
-27.273682459890537
 20
-7.34100803758499
 10
-27.161638542298263
 20
-7.280565361149293
 10
-27.055998851196737
 20
-7.225953175468636
 10
-26.956924312623098
 20
-7.176922600473055
 10
-26.86456892074601
 20
-7.133221090610303
 10
-26.77907966199871
 20
-7.094592605739935
 10
-26.700596443168273
 20
-7.060777783513515
 10
-26.585269994102337
 20
-7.013473800895191
 10
-26.474986388734823
 20
-6.9635727504268745
 10
-26.375330649882404
 20
-6.912157843355798
 10
-26.286318120064866
 20
-6.859599458396928
 10
-26.20795418021845
 20
-6.8062679724021224
 10
-26.140234255918507
 20
-6.752533520454231
 10
-26.083143829034334
 20
-6.698765756206608
 10
-26.036658454809494
 20
-6.645333612586335
 10
-26.00074378435734
 20
-6.592605062979137
 10
-25.97535559255997
 20
-6.540946883013959
 10
-25.96043981135555
 20
-6.4907244130646315
 10
-25.955932568396957
 20
-6.442301321585859
 10
-25.961760231062076
 20
-6.396039369400318
 10
-26.027886888056898
 20
-6.107473032953826
 10
-26.1716422311948
 20
-5.438529795743676
 10
-26.306295920566722
 20
-4.767695213131527
 10
-26.360608946373507
 20
-4.476673975894154
 10
-26.373694560484832
 20
-4.431920243362831
 10
-26.397120467083955
 20
-4.389301727111571
 10
-26.43081007693802
 20
-4.349179573572283
 10
-26.47467708857695
 20
-4.311912790374317
 10
-26.528625541835027
 20
-4.277858012612204
 10
-26.592549876679907
 20
-4.247369270373115
 10
-26.666334997300684
 20
-4.22079775763896
 10
-26.74985634142402
 20
-4.198491602677558
 10
-26.84297995482509
 20
-4.180795640036495
 10
-26.945562570997506
 20
-4.168051184252629
 10
-27.057451695944273
 20
-4.16059580538942
 10
-27.178485698049172
 20
-4.1587631065134785
 10
-27.30311037872415
 20
-4.16132154204569
 10
-27.388567936041923
 20
-4.161574004857912
 10
-27.48236928079373
 20
-4.160202535829854
 10
-27.5844894191356
 20
-4.156913505867886
 10
-27.694895540120818
 20
-4.151413512506386
 10
-27.81354701298074
 20
-4.1434095666660395
 10
-27.94039538862653
 20
-4.132609279625386
 10
-28.07538440537741
 20
-4.1187210501135
 10
-28.21844999892212
 20
-4.101454251431277
 10
-28.369520316515906
 20
-4.080519418509039
 10
-28.52851573541577
 20
-4.055628434807502
 10
-28.695348885551656
 20
-4.026494718969746
 10
-28.869924676432444
 20
-3.9928334111311643
 10
-29.052140328281368
 20
-3.9543615587948104
 10
-29.241885407394715
 20
-3.910798302179366
 10
-29.439041865715332
 20
-3.861865058947184
 10
-29.643484084610137
 20
-3.8072857082199087
 10
-29.85507892283908
 20
-3.746786773789502
 10
-30.073685768701875
 20
-3.6800976064323594
 10
-30.299156596345583
 20
-3.606950565234848
 10
-30.531336026213147
 20
-3.5270811978392143
 10
-30.770061389616995
 20
-3.440228419517239
 10
-31.0151627974093
 20
-3.346134690982964
 10
-31.266463212729487
 20
-3.244546194852303
 10
-31.64419642248372
 20
-3.084047490816894
 10
-31.803019426177393
 20
-1.273637013700226
 10
-31.417044670304065
 20
-1.0431232082626019
 10
-31.1819178457181
 20
-0.908262177396347
 10
-30.951911753380028
 20
-0.7816702055394322
 10
-30.72723634268221
 20
-0.6631199458926608
 10
-30.508094988677396
 20
-0.5523793911408481
 10
-30.294684395980763
 20
-0.4492120383631342
 10
-30.087194506527208
 20
-0.3533770558389118
 10
-29.885808411215244
 20
-0.2646294516608297
 10
-29.69070226547806
 20
-0.18272024407082363
 10
-29.50204520880986
 20
-0.10739663342952281
 10
-29.319999288279764
 20
-0.03840217573166767
 10
-29.144719386062345
 20
0.024523042421107217
 10
-28.976353151011143
 20
0.08164222747955313
 10
-28.815040934299915
 20
0.13322170132801006
 10
-28.660915729155004
 20
0.1795307224773912
 10
-28.51410311470001
 20
0.220841306160725
 10
-28.374721203931095
 20
0.257428043422182
 10
-28.242880595841246
 20
0.28956791929070447
 10
-28.118684331707026
 20
0.3175401301300259
 10
-28.00222785555282
 20
0.341625900256563
 10
-27.893598978802473
 20
0.3621082979173696
 10
-27.79287784912859
 20
0.37927205072003384
 10
-27.700136923505553
 20
0.393403360607136
 10
-27.615440945473082
 20
0.4047897184670846
 10
-27.491628652205772
 20
0.41922483750367556
 10
-27.371971519792652
 20
0.437521261016722
 10
-27.262139710151125
 20
0.46014276729319026
 10
-27.16224792384013
 20
0.486736851627878
 10
-27.07240126873493
 20
0.5169483235065162
 10
-26.992695201293195
 20
0.5504195392941778
 10
-26.923215473118017
 20
0.5867906361529295
 10
-26.864038082843336
 20
0.6256997670730522
 10
-26.815229233363745
 20
0.6667833369014404
 10
-26.7768452944291
 20
0.7096762392503881
 10
-26.74893277062121
 20
0.7540120941696624
 10
-26.731528274727694
 20
0.7994234864643491
 10
-26.72465850652568
 20
0.8455422045407036
 10
-26.710478741862644
 20
1.1412484769962647
 10
-26.668424521432115
 20
1.8241702117754939
 10
-26.617095882364268
 20
2.5064575589404017
 10
-26.590878243697027
 20
2.8013404182560535
 10
-26.591404195206213
 20
2.847965017419647
 10
-26.602463067566205
 20
2.8953233574409674
 10
-26.624078547821917
 20
2.9430470206497352
 10
-26.656264393895114
 20
2.990767028535391
 10
-26.699024423080303
 20
3.0381140812572616
 10
-26.7523525059719
 20
3.084718797368281
 10
-26.81623256582625
 20
3.1302119536338986
 10
-26.89063858335963
 20
3.174224724827662
 10
-26.975534606980737
 20
3.216388923385086
 10
-27.07087476845388
 20
3.2563372387973675
 10
-27.176603303986294
 20
3.293703476626703
 10
-27.29265458073076
 20
3.3281227970249643
 10
-27.413348097828695
 20
3.359282571675016
 10
-27.49570477075607
 20
3.382095643904016
 10
-27.585657689278545
 20
3.4087235550844186
 10
-27.683103566210303
 20
3.43944230248815
 10
-27.787931648285664
 20
3.474525556134019
 10
-27.90002376392752
 20
3.514244478221317
 10
-28.019254375137702
 20
3.5588675434968278
 10
-28.14549063348981
 20
3.608660360645525
 10
-28.27859244020601
 20
3.6638854947958195
 10
-28.41841251029505
 20
3.724802291228848
 10
-28.56479644072924
 20
3.791666700382094
 10
-28.717582782632938
 20
3.8647311042355623
 10
-28.876603117456693
 20
3.9442441441698897
 10
-29.041682137106594
 20
4.0304505503839705
 10
-29.21263772799808
 20
4.123590972959865
 10
-29.389281059000982
 20
4.223901814661785
 10
-29.571416673240467
 20
4.331615065555292
 10
-29.758842583716913
 20
4.446958139532113
 10
-29.951350372706667
 20
4.570153712825739
 10
-30.148725294902633
 20
4.70141956460154
 10
-30.350746384250968
 20
4.8409684197036755
 10
-30.557186564443633
 20
4.9890077936437365
 10
-30.767812763015453
 20
5.145739839908806
 10
-30.982386029002196
 20
5.311361199672491
 10
-31.314870912345
 20
5.577472723239463
 10
-30.94021378981224
 20
7.361301336673297
 10
-30.53344670392203
 20
7.471775841274276
 10
-30.270653949126384
 20
7.53819940119924
 10
-30.015023001357346
 20
7.5980420982804535
 10
-29.766694687081927
 20
7.651579492349251
 10
-29.52580224482971
 20
7.699089857192779
 10
-29.29247127715074
 20
7.74085399583209
 10
-29.066819706797098
 20
7.777155055015041
 10
-28.84895773713457
 20
7.808278339017727
 10
-28.63898781680062
 20
7.83451112284632
 10
-28.437004608611748
 20
7.856142464933216
 10
-28.24309496272756
 20
7.873463019420338
 10
-28.05733789407581
 20
7.886764848122798
 10
-27.879804564039457
 20
7.896341232266115
 10
-27.710558266405524
 20
7.902486484090225
 10
-27.54965441757392
 20
7.9054957584131085
 10
-27.397140551022105
 20
7.905664864247141
 10
-27.25305631601884
 20
7.903290076560699
 10
-27.117433480579955
 20
7.8986679482776925
 10
-26.990295938654537
 20
7.892095122607036
 10
-26.871659721531074
 20
7.883868145794234
 10
-26.761533013448545
 20
7.874283280386498
 10
-26.659916171397267
 20
7.863636319102645
 10
-26.566801749090455
 20
7.852222399398596
 10
-26.482174525088308
 20
7.8403358188187235
 10
-26.359058979007692
 20
7.820831487530913
 10
-26.2389027416651
 20
7.806166322057295
 10
-26.127040584108478
 20
7.798316693905135
 10
-26.02367805812019
 20
7.796974116040377
 10
-25.92901220314426
 20
7.801824927141897
 10
-25.843231426951892
 20
7.812550499814981
 10
-25.76651539107586
 20
7.828827451417545
 10
-25.69903490106947
 20
7.850327857394601
 10
-25.640951801642704
 20
7.8767194670148335
 10
-25.592418876726736
 20
7.9076659214023
 10
-25.553579754514903
 20
7.9428269737552
 10
-25.524568817526614
 20
7.981858711642602
 10
-25.505511117737925
 20
8.024413781269143
 10
-25.41207657969397
 20
8.305328808271927
 10
-25.18733176483909
 20
8.951579859710714
 10
-24.953827607678242
 20
9.594717840146084
 10
-24.849023746859203
 20
9.87159220886389
 10
-24.836951028348874
 20
9.91662974143314
 10
-24.83482268049778
 20
9.965215553795128
 10
-24.84276090986882
 20
10.017001280894414
 10
-24.860878513413475
 20
10.071635338787392
 10
-24.88927880277523
 20
10.128763152166991
 10
-24.928055533765214
 20
10.188027383558374
 10
-24.97729284104559
 20
10.249068164072575
 10
-25.037065178053428
 20
10.311523325604291
 10
-25.10743726219606
 20
10.375028634359445
 10
-25.18846402534568
 20
10.439218025597397
 10
-25.280190569659172
 20
10.50372383947222
 10
-25.38265212874633
 20
10.568177057856776
 10
-25.490463196240178
 20
10.63074406474978
 10
-25.56361096710284
 20
10.674930730815639
 10
-25.643044062936386
 20
10.724840213790726
 10
-25.728588563551227
 20
10.780710409670201
 10
-25.82006398742577
 20
10.842774959172733
 10
-25.917283386419708
 20
10.911263086757744
 10
-26.020053444204578
 20
10.986399441653568
 10
-26.128174578368395
 20
11.06840394097814
 10
-26.241441046152186
 20
11.157491615034756
 10
-26.35964105377224
 20
11.253872454862938
 10
-26.48255686928238
 20
11.357751262125314
 10
-26.6099649389259
 20
11.469327501408092
 10
-26.741636006928363
 20
11.58879515501419
 10
-26.87733523867807
 20
11.716342580325163
 10
-27.016822347241067
 20
11.852152369808136
 10
-27.159851723155242
 20
11.996401213742327
 10
-27.306172567446254
 20
12.149259765738632
 10
-27.45552902780665
 20
12.31089251112446
 10
-27.607660337878528
 20
12.481457638265628
 10
-27.76230095957766
 20
12.66110691289482
 10
-27.919180728394792
 20
12.849985555514065
 10
-28.07802500161237
 20
13.048232121942151
 10
-28.23855480936638
 20
13.25597838706794
 10
-28.400487008488813
 20
13.473349231878279
 10
-28.66160255179822
 20
13.837064336261772
 10
-28.628008007486997
 20
13.915782189537177
 10
-27.79456858854689
 20
15.435796304547386
 10
-27.385322676734344
 20
15.432527457763895
 10
-27.114354128155355
 20
15.425587215175499
 10
-26.852057302917608
 20
15.41424237840062
 10
-26.59849346010795
 20
15.398796283290645
 10
-26.353715820040577
 20
15.3795528318109
 10
-26.117769567833864
 20
15.356816301207152
 10
-25.89069186126603
 20
15.330891153555527
 10
-25.672511842890607
 20
15.302081845787887
 10
-25.463250656402593
 20
15.270692640285501
 10
-25.262921467232722
 20
15.237027416132213
 10
-25.071529487352073
 20
15.201389481118557
 10
-24.88907200426584
 20
15.164081384587657
 10
-24.71553841417219
 20
15.125404731212981
 10
-24.550910259260775
 20
15.085659995797604
 10
-24.395161269124188
 20
15.045146339183976
 10
-24.24825740625318
 20
15.004161425362604
 10
-24.110156915584234
 20
14.963001239867037
 10
-23.980810378067645
 20
14.921959909542421
 10
-23.86016076822007
 20
14.881329523773102
 10
-23.74814351562682
 20
14.841399957255252
 10
-23.64468657035443
 20
14.802458694398423
 10
-23.549710472234583
 20
14.764790655439871
 10
-23.463128423976347
 20
14.728678024353911
 10
-23.38484636806497
 20
14.694400078638338
 10
-23.27155848600771
 20
14.642402844051363
 10
-23.159814582181127
 20
14.59586373782559
 10
-23.05421838120007
 20
14.55812514625519
 10
-22.95505104123495
 20
14.52894547904933
 10
-22.862586919784384
 20
14.508075866905319
 10
-22.77709340259063
 20
14.495260329804891
 10
-22.698830736442158
 20
14.490235949113002
 10
-22.62805186594512
 20
14.492733043393487
 10
-22.56500227434318
 20
14.502475347853611
 10
-22.50991982846354
 20
14.51918019732829
 10
-22.46303462786506
 20
14.542558712712912
 10
-22.42456885826221
 20
14.572315990752237
 10
-22.39473664929699
 20
14.608151297091256
 10
-22.228976950124274
 20
14.853440896189202
 10
-21.83820983562372
 20
15.415091780204174
 10
-21.439848095496046
 20
15.971381792061601
 10
-21.264230835436397
 20
16.209713164869722
 10
-21.240454825209454
 20
16.249823403086967
 10
-21.22529710697084
 20
16.296033300352036
 10
-21.21896934329974
 20
16.348040380866824
 10
-21.221675004543467
 20
16.405536530627383
 10
-21.23360923454251
 20
16.468208196088707
 10
-21.254958720885107
 20
16.535736585833973
 10
-21.285901569756188
 20
16.60779787514901
 10
-21.32660718544287
 20
16.684063413401223
 10
-21.377236154557036
 20
16.764199934121194
 10
-21.437940135033106
 20
16.84786976768362
 10
-21.50886174995696
 20
16.9347310564833
 10
-21.59013448627976
 20
17.02443797250042
 10
-21.677067250496314
 20
17.113771902960135
 10
-21.735581083758163
 20
17.176055039981296
 10
-21.798603167567045
 20
17.245544536719493
 10
-21.865901847594426
 20
17.322422544235472
 10
-21.937240299551583
 20
17.406865345884487
 10
-22.01237666382338
 20
17.499043227856564
 10
-22.091064183138766
 20
17.599120352656033
 10
-22.173051343214638
 20
17.707254635587198
 10
-22.25808201631011
 20
17.823597624314345
 10
-22.345895607625057
 20
17.94829438156063
 10
-22.436227204477184
 20
18.08148337101141
 10
-22.52880772818821
 20
18.22329634648322
 10
-22.623364088610703
 20
18.37385824442127
 10
-22.719619341224014
 20
18.533287079784472
 10
-22.81729284672746
 20
18.70169384537702
 10
-22.91610043305721
 20
18.879182414683434
 10
-23.015754559752015
 20
19.065849448262313
 10
-23.115964484591775
 20
19.26178430375249
 10
-23.216436432432175
 20
19.46706894954468
 10
-23.316873766156824
 20
19.681777882168756
 10
-23.416977159666768
 20
19.90597804744434
 10
-23.516444772828915
 20
20.139728765446172
 10
-23.614972428299
 20
20.383081659324223
 10
-23.71225379013873
 20
20.63608058802708
 10
-23.855964864484466
 20
21.030433957533283
 10
-23.355757252395797
 20
21.62684534532353
 10
-22.603291648226183
 20
22.3634205378031
 10
-22.206154546128392
 20
22.248719111826603
 10
-21.947106701415535
 20
22.168929792768132
 10
-21.697597354308826
 20
22.08723881678158
 10
-21.45760365320872
 20
22.00395479870595
 10
-21.22709485310681
 20
21.919384729666255
 10
-21.006032370516238
 20
21.83383379428162
 10
-20.79436984241896
 20
21.74760518939708
 10
-20.592053189186387
 20
21.66099994442243
 10
-20.399020681439893
 20
21.574316743365117
 10
-20.215203010804693
 20
21.487851748638942
 10
-20.040523364515277
 20
21.401898426731762
 10
-20.0
 20
21.381064680957568
 10
-20.0
 20
100.0
 10
20.0
 20
100.0
 10
20.0
 20
21.381064680957568
 10
20.04052336451531
 20
21.40189842673178
 10
20.21520301080472
 20
21.487851748638953
 10
20.39902068143992
 20
21.574316743365124
 10
20.592053189186416
 20
21.660999944422443
 10
20.79436984241899
 20
21.7476051893971
 10
21.006032370516277
 20
21.83383379428164
 10
21.227094853106827
 20
21.919384729666266
 10
21.457603653208754
 20
22.003954798705976
 10
21.697597354308854
 20
22.087238816781593
 10
21.947106701415567
 20
22.168929792768143
 10
22.20615454612842
 20
22.248719111826617
 10
22.599342585081512
 20
22.362279966520365
 10
23.811970709878903
 20
21.12349136234938
 10
23.86555730000289
 20
21.05675628019124
 10
23.712253790138757
 20
20.63608058802709
 10
23.614972428299023
 20
20.38308165932423
 10
23.516444772828937
 20
20.139728765446186
 10
23.416977159666796
 20
19.905978047444357
 10
23.316873766156856
 20
19.68177788216877
 10
23.2164364324322
 20
19.467068949544682
 10
23.1159644845918
 20
19.2617843037525
 10
23.01575455975204
 20
19.065849448262316
 10
22.91610043305724
 20
18.87918241468344
 10
22.81729284672748
 20
18.701693845377026
 10
22.719619341224046
 20
18.53328707978449
 10
22.623364088610725
 20
18.37385824442128
 10
22.528807728188237
 20
18.223296346483227
 10
22.436227204477206
 20
18.081483371011416
 10
22.345895607625092
 20
17.94829438156064
 10
22.258082016310137
 20
17.823597624314356
 10
22.173051343214674
 20
17.707254635587212
 10
22.09106418313879
 20
17.599120352656037
 10
22.012376663823417
 20
17.49904322785658
 10
21.937240299551604
 20
17.406865345884494
 10
21.865901847594458
 20
17.322422544235476
 10
21.79860316756707
 20
17.245544536719514
 10
21.73558108375818
 20
17.1760550399813
 10
21.677067250496346
 20
17.113771902960142
 10
21.590134486279787
 20
17.02443797250043
 10
21.508861749956992
 20
16.934731056483315
 10
21.437940135033127
 20
16.847869767683637
 10
21.377236154557067
 20
16.7641999341212
 10
21.326607185442885
 20
16.684063413401233
 10
21.28590156975622
 20
16.60779787514902
 10
21.254958720885142
 20
16.535736585833984
 10
21.233609234542538
 20
16.468208196088714
 10
21.221675004543496
 20
16.405536530627394
 10
21.218969343299758
 20
16.348040380866827
 10
21.22529710697087
 20
16.296033300352043
 10
21.24045482520948
 20
16.24982340308698
 10
21.264230835436432
 20
16.209713164869733
 10
21.439848095496068
 20
15.971381792061608
 10
21.838209835623744
 20
15.415091780204174
 10
22.228976950124306
 20
14.853440896189204
 10
22.394736649297016
 20
14.60815129709126
 10
22.424568858262226
 20
14.57231599075224
 10
22.46303462786509
 20
14.54255871271292
 10
22.509919828463566
 20
14.5191801973283
 10
22.565002274343207
 20
14.50247534785362
 10
22.628051865945142
 20
14.49273304339349
 10
22.698830736442186
 20
14.490235949113002
 10
22.77709340259065
 20
14.495260329804898
 10
22.86258691978441
 20
14.508075866905328
 10
22.95505104123498
 20
14.528945479049337
 10
23.054218381200105
 20
14.558125146255202
 10
23.15981458218115
 20
14.5958637378256
 10
23.271558486007734
 20
14.642402844051372
 10
23.384846368065
 20
14.694400078638344
 10
23.46312842397636
 20
14.728678024353917
 10
23.54971047223461
 20
14.764790655439883
 10
23.644686570354462
 20
14.802458694398426
 10
23.74814351562684
 20
14.841399957255252
 10
23.860160768220098
 20
14.881329523773108
 10
23.980810378067673
 20
14.92195990954243
 10
24.110156915584263
 20
14.963001239867042
 10
24.248257406253206
 20
15.004161425362602
 10
24.39516126912421
 20
15.045146339183981
 10
24.550910259260807
 20
15.085659995797611
 10
24.71553841417222
 20
15.125404731212987
 10
24.889072004265884
 20
15.164081384587664
 10
25.0715294873521
 20
15.201389481118564
 10
25.262921467232754
 20
15.237027416132216
 10
25.46325065640262
 20
15.2706926402855
 10
25.672511842890643
 20
15.30208184578789
 10
25.890691861266056
 20
15.330891153555534
 10
26.1177695678339
 20
15.356816301207163
 10
26.353715820040602
 20
15.379552831810905
 10
26.598493460107978
 20
15.39879628329066
 10
26.852057302917636
 20
15.414242378400623
 10
27.114354128155384
 20
15.425587215175502
 10
27.385322676734376
 20
15.4325274577639
 10
27.80681140029864
 20
15.43589409385857
 10
28.648846420615385
 20
13.81929596626777
 10
28.400487008488838
 20
13.473349231878279
 10
28.238554809366402
 20
13.25597838706794
 10
28.0780250016124
 20
13.048232121942153
 10
27.919180728394814
 20
12.849985555514074
 10
27.762300959577694
 20
12.661106912894821
 10
27.607660337878553
 20
12.48145763826563
 10
27.45552902780668
 20
12.310892511124461
 10
27.306172567446282
 20
12.149259765738627
 10
27.159851723155267
 20
11.996401213742327
 10
27.016822347241085
 20
11.852152369808138
 10
26.877335238678103
 20
11.71634258032517
 10
26.74163600692839
 20
11.588795155014187
 10
26.60996493892592
 20
11.469327501408092
 10
26.482556869282398
 20
11.357751262125314
 10
26.359641053772272
 20
11.253872454862938
 10
26.24144104615221
 20
11.157491615034758
 10
26.128174578368426
 20
11.068403940978143
 10
26.0200534442046
 20
10.986399441653566
 10
25.91728338641974
 20
10.911263086757748
 10
25.820063987425787
 20
10.842774959172733
 10
25.72858856355126
 20
10.780710409670192
 10
25.643044062936415
 20
10.724840213790735
 10
25.563610967102857
 20
10.674930730815639
 10
25.490463196240206
 20
10.630744064749779
 10
25.382652128746358
 20
10.568177057856776
 10
25.2801905696592
 20
10.503723839472226
 10
25.188464025345702
 20
10.439218025597404
 10
25.10743726219609
 20
10.375028634359444
 10
25.03706517805344
 20
10.311523325604297
 10
24.97729284104561
 20
10.249068164072577
 10
24.928055533765257
 20
10.188027383558374
 10
24.88927880277526
 20
10.128763152166988
 10
24.8608785134135
 20
10.071635338787393
 10
24.842760909868836
 20
10.017001280894412
 10
24.834822680497805
 20
9.965215553795128
 10
24.8369510283489
 20
9.916629741433146
 10
24.84902374685924
 20
9.871592208863893
 10
24.95382760767826
 20
9.594717840146082
 10
25.18733176483911
 20
8.951579859710705
 10
25.412076579693995
 20
8.305328808271918
 10
25.505511117737946
 20
8.024413781269141
 10
25.524568817526625
 20
7.9818587116426
 10
25.553579754514928
 20
7.9428269737551975
 10
25.59241887672676
 20
7.9076659214023035
 10
25.640951801642736
 20
7.8767194670148335
 10
25.699034901069485
 20
7.850327857394594
 10
25.766515391075888
 20
7.828827451417533
 10
25.843231426951903
 20
7.812550499814982
 10
25.929012203144282
 20
7.801824927141898
 10
26.023678058120215
 20
7.796974116040375
 10
26.127040584108506
 20
7.798316693905138
 10
26.238902741665118
 20
7.806166322057295
 10
26.359058979007713
 20
7.820831487530914
 10
26.482174525088332
 20
7.84033581881872
 10
26.56680174909047
 20
7.852222399398594
 10
26.659916171397295
 20
7.863636319102649
 10
26.761533013448567
 20
7.874283280386492
 10
26.871659721531092
 20
7.883868145794228
 10
26.99029593865456
 20
7.892095122607032
 10
27.117433480579983
 20
7.8986679482776925
 10
27.25305631601886
 20
7.903290076560697
 10
27.397140551022126
 20
7.9056648642471306
 10
27.54965441757394
 20
7.905495758413106
 10
27.710558266405553
 20
7.902486484090223
 10
27.879804564039482
 20
7.896341232266113
 10
28.057337894075843
 20
7.886764848122793
 10
28.243094962727586
 20
7.873463019420336
 10
28.437004608611776
 20
7.85614246493321
 10
28.638987816800643
 20
7.834511122846312
 10
28.848957737134594
 20
7.808278339017719
 10
29.066819706797123
 20
7.777155055015039
 10
29.292471277150767
 20
7.74085399583209
 10
29.52580224482973
 20
7.699089857192777
 10
29.76669468708196
 20
7.651579492349255
 10
30.01502300135737
 20
7.598042098280447
 10
30.270653949126412
 20
7.538199401199234
 10
30.533446703922056
 20
7.471775841274272
 10
30.967300349246493
 20
7.353944855928806
 10
31.302809834556292
 20
5.567819376735549
 10
30.982386029002214
 20
5.311361199672484
 10
30.767812763015474
 20
5.145739839908801
 10
30.557186564443654
 20
4.989007793643733
 10
30.350746384250986
 20
4.840968419703679
 10
30.148725294902658
 20
4.701419564601533
 10
29.95135037270669
 20
4.570153712825735
 10
29.758842583716934
 20
4.446958139532108
 10
29.571416673240492
 20
4.33161506555528
 10
29.389281059001007
 20
4.223901814661775
 10
29.212637727998096
 20
4.123590972959861
 10
29.04168213710662
 20
4.030450550383968
 10
28.876603117456714
 20
3.9442441441698826
 10
28.71758278263296
 20
3.864731104235557
 10
28.56479644072926
 20
3.7916667003820885
 10
28.418412510295074
 20
3.724802291228839
 10
28.27859244020603
 20
3.6638854947958133
 10
28.14549063348984
 20
3.60866036064552
 10
28.01925437513772
 20
3.5588675434968198
 10
27.900023763927543
 20
3.5142444782213125
 10
27.78793164828568
 20
3.4745255561340147
 10
27.68310356621033
 20
3.439442302488133
 10
27.585657689278566
 20
3.4087235550844213
 10
27.495704770756088
 20
3.3820956439040106
 10
27.413348097828724
 20
3.359282571675005
 10
27.29265458073078
 20
3.3281227970249576
 10
27.176603303986322
 20
3.2937034766267006
 10
27.070874768453894
 20
3.256337238797368
 10
26.975534606980762
 20
3.2163889233850758
 10
26.890638583359642
 20
3.1742247248276625
 10
26.816232565826276
 20
3.1302119536338933
 10
26.75235250597193
 20
3.084718797368271
 10
26.699024423080328
 20
3.0381140812572505
 10
26.656264393895135
 20
2.990767028535387
 10
26.624078547821938
 20
2.943047020649727
 10
26.60246306756623
 20
2.895323357440959
 10
26.591404195206234
 20
2.847965017419646
 10
26.59087824369706
 20
2.8013404182560455
 10
26.617095882364286
 20
2.5064575589403955
 10
26.668424521432133
 20
1.8241702117754797
 10
26.71047874186266
 20
1.1412484769962499
 10
26.7246585065257
 20
0.8455422045406955
 10
26.7315282747277
 20
0.7994234864643431
 10
26.748932770621227
 20
0.7540120941696521
 10
26.77684529442912
 20
0.7096762392503843
 10
26.815229233363763
 20
0.6667833369014329
 10
26.864038082843344
 20
0.625699767073041
 10
26.923215473118034
 20
0.5867906361529117
 10
26.992695201293202
 20
0.5504195392941756
 10
27.072401268734946
 20
0.5169483235065108
 10
27.162247923840145
 20
0.48673685162787056
 10
27.262139710151153
 20
0.460142767293185
 10
27.37197151979267
 20
0.4375212610167173
 10
27.491628652205787
 20
0.41922483750367207
 10
27.615440945473104
 20
0.40478971846707346
 10
27.700136923505564
 20
0.39340336060712894
 10
27.79287784912861
 20
0.3792720507200287
 10
27.89359897880249
 20
0.3621082979173587
 10
28.002227855552835
 20
0.34162590025655254
 10
28.118684331707048
 20
0.3175401301300164
 10
28.242880595841264
 20
0.2895679192906978
 10
28.374721203931113
 20
0.25742804342217296
 10
28.514103114700028
 20
0.22084130616070916
 10
28.660915729155022
 20
0.17953072247738147
 10
28.81504093429994
 20
0.13322170132799985
 10
28.97635315101117
 20
0.0816422274795428
 10
29.144719386062373
 20
0.02452304242109248
 10
29.319999288279785
 20
-0.038402175731676584
 10
29.502045208809886
 20
-0.1073966334295352
 10
29.690702265478073
 20
-0.18272024407083645
 10
29.88580841121526
 20
-0.26462945166084445
 10
30.087194506527226
 20
-0.3533770558389198
 10
30.294684395980784
 20
-0.44921203836314244
 10
30.50809498867741
 20
-0.5523793911408548
 10
30.72723634268224
 20
-0.6631199458926663
 10
30.951911753380045
 20
-0.7816702055394442
 10
31.181917845718118
 20
-0.9082621773963588
 10
31.417044670304087
 20
-1.0431232082626132
 10
31.781005647771458
 20
-1.2604898330745617
 10
31.774169947023548
 20
-1.9010419777181133
 10
31.644927614756213
 20
-3.0837368074851232
 10
31.266463212729505
 20
-3.2445461948523158
 10
31.015162797409317
 20
-3.3461346909829737
 10
30.77006138961701
 20
-3.4402284195172483
 10
30.53133602621316
 20
-3.527081197839216
 10
30.2991565963456
 20
-3.60695056523486
 10
30.07368576870189
 20
-3.6800976064323696
 10
29.855078922839095
 20
-3.746786773789512
 10
29.64348408461015
 20
-3.8072857082199274
 10
29.43904186571535
 20
-3.8618650589471994
 10
29.24188540739473
 20
-3.910798302179374
 10
29.05214032828139
 20
-3.954361558794818
 10
28.869924676432458
 20
-3.9928334111311754
 10
28.695348885551663
 20
-4.026494718969756
 10
28.528515735415784
 20
-4.055628434807512
 10
28.369520316515924
 20
-4.080519418509054
 10
28.21844999892214
 20
-4.101454251431289
 10
28.07538440537743
 20
-4.118721050113512
 10
27.940395388626538
 20
-4.132609279625398
 10
27.813547012980756
 20
-4.143409566666049
 10
27.69489554012083
 20
-4.151413512506394
 10
27.58448941913562
 20
-4.156913505867908
 10
27.482369280793748
 20
-4.1602025358298595
 10
27.388567936041934
 20
-4.161574004857922
 10
27.303110378724167
 20
-4.161321542045706
 10
27.17848569804919
 20
-4.15876310651349
 10
27.057451695944295
 20
-4.160595805389429
 10
26.945562570997517
 20
-4.168051184252633
 10
26.842979954825108
 20
-4.18079564003651
 10
26.74985634142403
 20
-4.198491602677561
 10
26.666334997300698
 20
-4.2207977576389695
 10
26.59254987667993
 20
-4.247369270373131
 10
26.528625541835048
 20
-4.277858012612221
 10
26.474677088576968
 20
-4.311912790374326
 10
26.43081007693803
 20
-4.349179573572295
 10
26.397120467083976
 20
-4.389301727111585
 10
26.373694560484854
 20
-4.431920243362837
 10
26.36060894637353
 20
-4.476673975894169
 10
26.306295920566725
 20
-4.767695213131536
 10
26.171642231194813
 20
-5.438529795743694
 10
26.027886888056912
 20
-6.107473032953845
 10
25.961760231062083
 20
-6.396039369400331
 10
25.955932568396967
 20
-6.442301321585868
 10
25.960439811355567
 20
-6.4907244130646475
 10
25.975355592559985
 20
-6.540946883013967
 10
26.000743784357354
 20
-6.592605062979148
 10
26.036658454809498
 20
-6.645333612586348
 10
26.08314382903435
 20
-6.6987657562066305
 10
26.140234255918514
 20
-6.752533520454236
 10
26.20795418021847
 20
-6.806267972402134
 10
26.28631812006488
 20
-6.859599458396938
 10
26.375330649882425
 20
-6.91215784335581
 10
26.474986388734838
 20
-6.9635727504268825
 10
26.585269994102347
 20
-7.0134738008951985
 10
26.70059644316828
 20
-7.0607777835135295
 10
26.779079661998715
 20
-7.094592605739944
 10
26.864568920746024
 20
-7.133221090610312
 10
26.9569243126231
 20
-7.176922600473069
 10
27.055998851196748
 20
-7.225953175468649
 10
27.161638542298274
 20
-7.280565361149307
 10
27.27368245989056
 20
-7.341008037585001
 10
27.391962825860002
 20
-7.407526250042036
 10
27.51630509370264
 20
-7.480361041321899
 10
27.64652803606971
 20
-7.559749285846083
 10
27.782443836138228
 20
-7.645923525572989
 10
27.923858182767578
 20
-7.739111807830846
 10
28.07057036940416
 20
-7.839537525151525
 10
28.222373396691964
 20
-7.947419257187934
 10
28.37905407874693
 20
-8.062970614797717
 10
28.540393153049973
 20
-8.186400086374746
 10
28.70616539391229
 20
-8.31791088650891
 10
28.87613972946449
 20
-8.457700807053769
 10
29.05007936212028
 20
-8.605962070681313
 10
29.227741892462756
 20
-8.762881187001138
 10
29.40887944649863
 20
-8.928638811319624
 10
29.59323880622899
 20
-9.103409606117724
 10
29.780561543475237
 20
-9.287362105317449
 10
29.970584156905634
 20
-9.480658581413808
 10
30.252626987829213
 20
-9.777858097894736
 10
29.854141499767884
 20
-11.042738416498757
 10
29.65693672643622
 20
-11.504823458299555
 10
29.23164985452029
 20
-11.559820440916114
 10
28.96226009204804
 20
-11.589841719392185
 10
28.700861525186877
 20
-11.614318628800444
 10
28.447556146679645
 20
-11.633543338261207
 10
28.20243806245591
 20
-11.647809672348657
 10
27.965593469190388
 20
-11.657412921547706
 10
27.737100636152427
 20
-11.662649652508128
 10
27.51702989134045
 20
-11.663817518189633
 10
27.30544361190483
 20
-11.661215067991145
 10
27.10239621884936
 20
-11.655141557957744
 10
26.907934176006016
 20
-11.645896761158209
 10
26.722095993274554
 20
-11.633780778326065
 10
26.54491223411525
 20
-11.61909384885675
 10
26.376405527281893
 20
-11.60213616225299
 10
26.216590582780512
 20
-11.583207670110355
 10
26.065474212037202
 20
-11.562607898734441
 10
25.923055352255645
 20
-11.540635762480685
 10
25.78932509494474
 20
-11.517589377907282
 10
25.66426671859229
 20
-11.493765878831297
 10
25.547855725461947
 20
-11.469461232377327
 10
25.440059882485954
 20
-11.444970056107644
 10
25.340839266226247
 20
-11.420585436321868
 10
25.25014631187274
 20
-11.396598747613824
 10
25.167925866248517
 20
-11.37329947377223
 10
25.048612864442187
 20
-11.337212575517109
 10
24.931572675219268
 20
-11.30632272997914
 10
24.821821265396746
 20
-11.283314318532023
 10
24.71960427788233
 20
-11.267909716704
 10
24.62515962709507
 20
-11.259825014833245
 10
24.538717352390673
 20
-11.258770208092674
 10
24.46049947585545
 20
-11.264449389752464
 10
24.390719864538365
 20
-11.276560947584466
 10
24.329584097187798
 20
-11.29479776331044
 10
24.27728933555815
 20
-11.318847414995114
 10
24.23402420034892
 20
-11.348392382283553
 10
24.199968651836738
 20
-11.383110254381128
 10
24.175293875259204
 20
-11.422673940673045
 10
24.044478333636903
 20
-11.688249841999808
 10
23.733828963966292
 20
-12.297878927930876
 10
23.414925733423573
 20
-12.903231207879756
 10
23.273396966410857
 20
-13.163255963246085
 10
23.255304083958706
 20
-13.206230112181556
 10
23.2465797923914
 20
-13.254073583670346
 10
23.24739259573558
 20
-13.306457897806089
 10
23.257902114353314
 20
-13.36305010449993
 10
23.278258978969262
 20
-13.423512998578635
 10
23.308604729594457
 20
-13.487505337242547
 10
23.34907171939695
 20
-13.554682059775931
 10
23.39978302356782
 20
-13.624694509401847
 10
23.46085235322821
 20
-13.697190657171898
 10
23.532383974420956
 20
-13.771815327781166
 10
23.614472632228246
 20
-13.848210427196932
 10
23.70720348005397
 20
-13.926015171989397
 10
23.8054908497747
 20
-14.002679698199982
 10
23.87194056809929
 20
-14.056415094120851
 10
23.943837812736906
 20
-14.116675855965214
 10
24.020977889899466
 20
-14.183673981822638
 10
24.103150185006257
 20
-14.257616360705528
 10
24.19013827843553
 20
-14.338704625962498
 10
24.281720064684873
 20
-14.42713501119018
 10
24.37766787488663
 20
-14.523098208718359
 10
24.477748602625134
 20
-14.626779230744393
 10
24.581723832999234
 20
-14.738357273190129
 10
24.689349974873682
 20
-14.858005582354929
 10
24.800378396259244
 20
-14.985891324435142
 10
24.91455556276195
 20
-15.122175457981465
 10
25.03162317903886
 20
-15.267012609362457
 10
25.151318333197096
 20
-15.420550951302536
 10
25.27337364407109
 20
-15.582932084560685
 10
25.39751741131133
 20
-15.754290922814931
 10
25.523473768216697
 20
-15.934755580816093
 10
25.65096283724151
 20
-16.124447265873858
 10
25.77970088810633
 20
-16.323480172735543
 10
25.909400498439584
 20
-16.531961381915675
 10
26.03977071687924
 20
-16.749990761538108
 10
26.170517228556616
 20
-16.977660872741687
 10
26.301342522888923
 20
-17.215056878708626
 10
26.493910081814356
 20
-17.579538723300608
 10
25.46695363399736
 20
-19.08153974624359
 10
25.028858752501232
 20
-19.01775568753686
 10
24.761359049183337
 20
-18.973983207471978
 10
24.503050059138534
 20
-18.92702795735782
 10
24.253951166656794
 20
-18.87719878920387
 10
24.014073715043146
 20
-18.824804021247996
 10
23.783421036146393
 20
-18.770151249387432
 10
23.561988484074526
 20
-18.713547159572244
 10
23.349763473065554
 20
-18.655297341249877
 10
23.146725519492044
 20
-18.595706101951436
 10
22.95284628796463
 20
-18.535076283107173
 10
22.76808964150432
 20
-18.47370907717915
 10
22.5924116957504
 20
-18.411903846198232
 10
22.425760877167676
 20
-18.349957941791526
 10
22.268077985215772
 20
-18.288166526785396
 10
22.119296258441818
 20
-18.226822398468713
 10
21.97934144445562
 20
-18.166215813599923
 10
21.848131873744286
 20
-18.106634315240292
 10
21.72557853728289
 20
-18.048362561495214
 10
21.61158516789383
 20
-17.991682156243805
 10
21.50604832530869
 20
-17.93687148193665
 10
21.40885748488228
 20
-17.88420553454002
 10
21.3198951299086
 20
-17.833955760703812
 10
21.239036847485142
 20
-17.786389897229338
 10
21.166151427872908
 20
-17.741771812912113
 10
21.060999004458534
 20
-17.674832852091093
 10
20.956632963529007
 20
-17.61351142067113
 10
20.857159028817993
 20
-17.56174564753424
 10
20.76288863631391
 20
-17.519334476940543
 10
20.674127475833824
 20
-17.48606871591068
 10
20.591175298616093
 20
-17.46173117765866
 10
20.514325728246067
 20
-17.446096829320897
 10
20.443866075007683
 20
-17.438932943908103
 10
20.38007715375149
 20
-17.439999256403432
 10
20.3232331053686
 20
-17.44904812392919
 10
20.273601221957826
 20
-17.46582468990223
 10
20.231441775771966
 20
-17.49006705209635
 10
20.197007852027387
 20
-17.5215064345284
 10
19.999391784870433
 20
-17.74194045027206
 10
19.535786177523295
 20
-18.245150639086027
 10
19.065386653299896
 20
-18.742015752472238
 10
18.8589523174676
 20
-18.954214080186993
 10
18.829936081550464
 20
-18.990713229839507
 10
18.808627296251828
 20
-19.0344287499273
 10
18.795276839830045
 20
-19.08508980331231
 10
18.79012824235012
 20
-19.142418851656448
 10
18.793417525607772
 20
-19.206131833952178
 10
18.805373047132004
 20
-19.275938348646484
 10
18.826215348343332
 20
-19.351541839268403
 10
18.856157006943555
 20
-19.43263978346923
 10
18.8954024936106
 20
-19.518923885382225
 10
18.94414803307007
 20
-19.610080271207956
 10
19.0025814696133
 20
-19.705789687929073
 10
19.070882137129402
 20
-19.805727705057457
 10
19.144840902927537
 20
-19.906066917668124
 10
19.194328849125387
 20
-19.975737578791076
 10
19.24730178992655
 20
-20.05316135257808
 10
19.30350542574382
 20
-20.13848714993136
 10
19.362681134168916
 20
-20.231857364723687
 10
19.424566120980334
 20
-20.33340776387699
 10
19.488893573759416
 20
-20.443267380766418
 10
19.55539281804285
 20
-20.561558412007493
 10
19.62378947593972
 20
-20.68839611768514
 10
19.693805627139028
 20
-20.823888725079808
 10
19.765159972233423
 20
-20.968137335946345
 10
19.83756799828225
 20
-21.12123583739717
 10
19.910742146537366
 20
-21.283270816442425
 10
19.98439198225283
 20
-21.454321478235954
 10
20.05822436649932
 20
-21.63445956807581
 10
20.13194362990263
 20
-21.823749297205577
 10
20.20525174822452
 20
-22.02224727246111
 10
20.277848519703376
 20
-22.230002429805506
 10
20.349431744071328
 20
-22.447055971794477
 10
20.419697403163244
 20
-22.673441309011054
 10
20.488339843031696
 20
-22.90918400550601
 10
20.55505195748305
 20
-23.15430172828422
 10
20.619525372945926
 20
-23.408804200865145
 10
20.681450634585413
 20
-23.672693160954555
 10
20.772477864086703
 20
-24.093825708046317
 10
19.351634812401645
 20
-25.234726891935107
 10
18.96979169621913
 20
-25.06523099525623
 10
18.724021281320965
 20
-24.950911161251042
 10
18.487959464199143
 20
-24.836006207709456
 10
18.261541583046657
 20
-24.720818763389495
 10
18.04469537726296
 20
-24.60564877363947
 10
17.83734106676296
 20
-24.490793326788395
 10
17.63939143505783
 20
-24.376546482592715
 10
17.450751916053576
 20
-24.26319910281625
 10
17.27132068452189
 20
-24.151038684024844
 10
17.10098875018645
 20
-24.040349192670437
 10
16.939640055371726
 20
-23.93141090254132
 10
16.787151576158788
 20
-23.824500234653364
 10
16.64339342699015
 20
-23.719889599655456
 10
16.50822896866455
 20
-23.617847242821043
 10
16.381514919661736
 20
-23.51863709169685
 10
16.263101470735332
 20
-23.42251860647822
 10
16.152832402710033
 20
-23.32974663317883
 10
16.05054520741928
 20
-23.240571259661817
 10
15.956071211716234
 20
-23.155237674596876
 10
15.869235704491908
 20
-23.07398602940775
 10
15.789858066630995
 20
-22.997051303271903
 10
15.71775190383604
 20
-22.924663171233277
 10
15.652725182247954
 20
-22.857045875486932
 10
15.594580366791734
 20
-22.794418099893726
 10
15.511387195973636
 20
-22.701591633005535
 10
15.42743565515038
 20
-22.614386545745113
 10
15.345616722225419
 20
-22.53770264149936
 10
15.266284528485345
 20
-22.471430344644727
 10
15.189789867529957
 20
-22.415450693770616
 10
15.116479971302171
 20
-22.369635427882468
 10
15.04669828816829
 20
-22.33384707764098
 10
14.980784263157833
 20
-22.30793906159186
 10
14.919073120470696
 20
-22.291755787336815
 10
14.861895648358896
 20
-22.285132757595093
 10
14.8095779864884
 20
-22.287896681102197
 10
14.762441415885835
 20
-22.299865588290345
 10
14.720802151573626
 20
-22.32084895169315
 10
14.471041838549695
 20
-22.479792499324525
 10
13.888863500568439
 20
-22.839262993350495
 10
13.30185506344138
 20
-23.190790727720827
 10
13.045825449103939
 20
-23.33942484856016
 10
13.00803786119934
 20
-23.366742023972485
 10
12.97572495729376
 20
-23.40308741251957
 10
12.949201383384557
 20
-23.44826790658318
 10
12.928776517728787
 20
-23.502081963324876
 10
12.914754268536393
 20
-23.564319733408254
 10
12.907432874621087
 20
-23.634763194281636
 10
12.907104709107589
 20
-23.71318628795562
 10
12.914056086292753
 20
-23.799355063208385
 10
12.928567071756518
 20
-23.89302782214894
 10
12.950911295817011
 20
-23.993955271067158
 10
12.981355770422947
 20
-24.10188067549687
 10
13.020160709574522
 20
-24.216540019416765
 10
13.064305688129657
 20
-24.333112218049536
 10
13.093161567623556
 20
-24.413550990161152
 10
13.123281443904121
 20
-24.502395608779203
 10
13.154380271822058
 20
-24.599720853578198
 10
13.18617060198243
 20
-24.705594062589128
 10
13.218362755809165
 20
-24.820075067095733
 10
13.250665002223876
 20
-24.943216130436515
 10
13.282783735854284
 20
-25.0750618907488
 10
13.314423656687199
 20
-25.215649307691848
 10
13.34528795107984
 20
-25.365007613182414
 10
13.375078474042938
 20
-25.523158266176203
 10
13.403495932707672
 20
-25.69011491152407
 10
13.430240070888567
 20
-25.86588334293318
 10
13.455009854653149
 20
-26.05046147005873
 10
13.477503658809011
 20
-26.24383928975186
 10
13.497419454218203
 20
-26.445998861486586
 10
13.514454995848142
 20
-26.656914286986517
 10
13.528308011468035
 20
-26.876551694070518
 10
13.538676390899209
 20
-27.10486922473525
 10
13.545258375727375
 20
-27.341817027489373
 10
13.54775274938425
 20
-27.587337253951205
 10
13.545859027506063
 20
-27.8413640597257
 10
13.539277648475807
 20
-28.103823609563978
 10
13.5277101640559
 20
-28.374634086817693
 10
13.501146805596168
 20
-28.814560292478582
 10
13.301670683813121
 20
-28.918461118164068
 10
11.818827150342363
 20
-29.514217315557406
 10
11.503821970851035
 20
-29.25373278585936
 10
11.298008511720758
 20
-29.077344177023583
 10
11.101701492586887
 20
-28.90301149480357
 10
10.914757001215856
 20
-28.731008700115314
 10
10.737024532339701
 20
-28.56160511984325
 10
10.568347110863384
 20
-28.3950653010659
 10
10.40856141814926
 20
-28.231648868279184
 10
10.257497921305886
 20
-28.07161038367689
 10
10.114981005415464
 20
-27.915199210554498
 10
9.98082910862491
 20
-27.76265937989297
 10
9.854854860029008
 20
-27.61422946018212
 10
9.73686522027191
 20
-27.470142430540612
 10
9.626661624791426
 20
-27.330625557187492
 10
9.52404012962988
 20
-27.19590027331849
 10
9.428791559734542
 20
-27.06618206243942
 10
9.340701659669323
 20
-26.94168034520681
 10
9.259551246658074
 20
-26.822598369823734
  0
LWPOLYLINE
  5
30
330
17
100
AcDbEntity
  8
0
 62
0
100
AcDbPolyline
 90
65
 70
0
 10
9.701133907831903
 20
5.185364105085977
 10
9.146165735327997
 20
6.111272563215624
 10
8.503114986990102
 20
6.9783261258001055
 10
7.778174593052021
 20
7.778174593052024
 10
6.978326125800102
 20
8.503114986990106
 10
6.11127256321562
 20
9.146165735328
 10
5.185364105085974
 20
9.701133907831906
 10
4.20951775601599
 20
10.162674857624152
 10
3.1931314497990826
 20
10.526343693054299
 10
2.1459935421774112
 20
10.788638084435535
 10
1.078188543625161
 20
10.947031993394166
 10
-2.0206672185931327e-15
 20
11.0
 10
-1.078188543625165
 20
10.947031993394166
 10
-2.1459935421774152
 20
10.788638084435533
 10
-3.193131449799087
 20
10.526343693054297
 10
-4.209517756015994
 20
10.162674857624152
 10
-5.185364105085976
 20
9.701133907831904
 10
-6.111272563215624
 20
9.146165735327997
 10
-6.9783261258001055
 20
8.503114986990104
 10
-7.778174593052024
 20
7.778174593052022
 10
-8.503114986990107
 20
6.978326125800098
 10
-9.146165735328
 20
6.111272563215621
 10
-9.701133907831906
 20
5.1853641050859745
 10
-10.162674857624156
 20
4.209517756015987
 10
-10.526343693054299
 20
3.193131449799083
 10
-10.788638084435535
 20
2.145993542177412
 10
-10.947031993394166
 20
1.0781885436251666
 10
-11.0
 20
-1.3471114790620886e-15
 10
-10.947031993394164
 20
-1.078188543625169
 10
-10.788638084435535
 20
-2.145993542177415
 10
-10.526343693054297
 20
-3.193131449799086
 10
-10.162674857624154
 20
-4.209517756015988
 10
-9.701133907831904
 20
-5.185364105085976
 10
-9.146165735328
 20
-6.111272563215624
 10
-8.503114986990107
 20
-6.9783261258001
 10
-7.778174593052022
 20
-7.778174593052023
 10
-6.978326125800099
 20
-8.503114986990107
 10
-6.111272563215621
 20
-9.146165735328
 10
-5.1853641050859745
 20
-9.701133907831906
 10
-4.209517756015987
 20
-10.162674857624154
 10
-3.193131449799084
 20
-10.526343693054299
 10
-2.1459935421774103
 20
-10.788638084435535
 10
-1.078188543625167
 20
-10.947031993394166
 10
6.735557395310443e-16
 20
-11.0
 10
1.0781885436251684
 20
-10.947031993394164
 10
2.1459935421774117
 20
-10.788638084435535
 10
3.1931314497990857
 20
-10.526343693054299
 10
4.209517756015988
 20
-10.162674857624154
 10
5.185364105085976
 20
-9.701133907831904
 10
6.111272563215625
 20
-9.146165735327997
 10
6.9783261258001
 20
-8.503114986990106
 10
7.778174593052023
 20
-7.778174593052023
 10
8.503114986990107
 20
-6.9783261258001
 10
9.146165735327997
 20
-6.111272563215624
 10
9.701133907831906
 20
-5.1853641050859745
 10
10.162674857624154
 20
-4.2095177560159875
 10
10.526343693054297
 20
-3.1931314497990857
 10
10.788638084435535
 20
-2.145993542177411
 10
10.947031993394166
 20
-1.0781885436251666
 10
11.0
 20
0.0
 10
10.947031993394166
 20
1.0781885436251655
 10
10.788638084435533
 20
2.145993542177416
 10
10.526343693054297
 20
3.1931314497990875
 10
10.162674857624152
 20
4.209517756015995
 10
9.701133907831903
 20
5.185364105085977
  0
LWPOLYLINE
  5
31
330
17
100
AcDbEntity
  8
0
 62
0
100
AcDbPolyline
 90
65
 70
0
 10
16.616789181894752
 20
0.6696960066389082
 10
16.543362212609622
 20
0.8249442894454964
 10
16.455071821529454
 20
0.9722479077843038
 10
16.352768293384788
 20
1.1101882472863804
 10
16.237436867076458
 20
1.2374368670764584
 10
16.11018824728638
 20
1.3527682933847895
 10
15.972247907784304
 20
1.4550718215294545
 10
15.824944289445495
 20
1.5433622126096214
 10
15.669696006638908
 20
1.6167891818947515
 10
15.507998185195309
 20
1.6746455875313657
 10
15.341408063528224
 20
1.7163742407056533
 10
15.17152999557673
 20
1.7415732716763446
 10
15.0
 20
1.75
 10
14.82847000442327
 20
1.7415732716763446
 10
14.658591936471774
 20
1.716374240705653
 10
14.492001814804691
 20
1.6746455875313655
 10
14.330303993361092
 20
1.6167891818947515
 10
14.175055710554505
 20
1.5433622126096211
 10
14.027752092215696
 20
1.4550718215294542
 10
13.88981175271362
 20
1.352768293384789
 10
13.762563132923542
 20
1.237436867076458
 10
13.64723170661521
 20
1.1101882472863793
 10
13.544928178470546
 20
0.9722479077843034
 10
13.45663778739038
 20
0.8249442894454959
 10
13.383210818105248
 20
0.6696960066389069
 10
13.325354412468634
 20
0.5079981851953087
 10
13.283625759294347
 20
0.3414080635282246
 10
13.258426728323656
 20
0.17152999557673104
 10
13.25
 20
-2.143131898507868e-16
 10
13.258426728323656
 20
-0.17152999557673143
 10
13.283625759294347
 20
-0.34140806352822506
 10
13.325354412468634
 20
-0.5079981851953091
 10
13.383210818105248
 20
-0.6696960066389073
 10
13.45663778739038
 20
-0.8249442894454961
 10
13.544928178470546
 20
-0.9722479077843038
 10
13.64723170661521
 20
-1.1101882472863795
 10
13.762563132923542
 20
-1.2374368670764582
 10
13.889811752713621
 20
-1.35276829338479
 10
14.027752092215696
 20
-1.4550718215294545
 10
14.175055710554505
 20
-1.5433622126096214
 10
14.330303993361094
 20
-1.6167891818947517
 10
14.492001814804691
 20
-1.6746455875313657
 10
14.658591936471776
 20
-1.7163742407056533
 10
14.828470004423268
 20
-1.7415732716763446
 10
15.0
 20
-1.75
 10
15.171529995576732
 20
-1.7415732716763443
 10
15.341408063528224
 20
-1.7163742407056533
 10
15.507998185195309
 20
-1.6746455875313657
 10
15.669696006638908
 20
-1.6167891818947517
 10
15.824944289445495
 20
-1.5433622126096211
 10
15.972247907784304
 20
-1.4550718215294542
 10
16.11018824728638
 20
-1.3527682933847895
 10
16.237436867076458
 20
-1.2374368670764582
 10
16.35276829338479
 20
-1.1101882472863795
 10
16.455071821529454
 20
-0.9722479077843038
 10
16.543362212609622
 20
-0.8249442894454959
 10
16.616789181894752
 20
-0.6696960066389072
 10
16.674645587531366
 20
-0.507998185195309
 10
16.716374240705655
 20
-0.34140806352822445
 10
16.741573271676344
 20
-0.17152999557673104
 10
16.75
 20
0.0
 10
16.741573271676344
 20
0.17152999557673088
 10
16.716374240705655
 20
0.3414080635282253
 10
16.674645587531366
 20
0.5079981851953094
 10
16.616789181894752
 20
0.6696960066389082
  0
LWPOLYLINE
  5
32
330
17
100
AcDbEntity
  8
0
 62
0
100
AcDbPolyline
 90
65
 70
0
 10
-13.325354412468634
 20
0.5079981851953094
 10
-13.383210818105248
 20
0.6696960066389082
 10
-13.45663778739038
 20
0.8249442894454964
 10
-13.544928178470546
 20
0.9722479077843038
 10
-13.64723170661521
 20
1.1101882472863804
 10
-13.762563132923542
 20
1.2374368670764584
 10
-13.88981175271362
 20
1.3527682933847895
 10
-14.027752092215696
 20
1.4550718215294545
 10
-14.175055710554505
 20
1.5433622126096214
 10
-14.330303993361092
 20
1.6167891818947515
 10
-14.492001814804691
 20
1.6746455875313657
 10
-14.658591936471776
 20
1.7163742407056533
 10
-14.82847000442327
 20
1.7415732716763446
 10
-15.0
 20
1.75
 10
-15.17152999557673
 20
1.7415732716763446
 10
-15.341408063528226
 20
1.716374240705653
 10
-15.507998185195309
 20
1.6746455875313655
 10
-15.669696006638908
 20
1.6167891818947515
 10
-15.824944289445495
 20
1.5433622126096211
 10
-15.972247907784304
 20
1.4550718215294542
 10
-16.11018824728638
 20
1.352768293384789
 10
-16.237436867076458
 20
1.237436867076458
 10
-16.35276829338479
 20
1.1101882472863793
 10
-16.455071821529454
 20
0.9722479077843034
 10
-16.543362212609622
 20
0.8249442894454959
 10
-16.616789181894752
 20
0.6696960066389069
 10
-16.674645587531366
 20
0.5079981851953087
 10
-16.716374240705655
 20
0.3414080635282246
 10
-16.741573271676344
 20
0.17152999557673104
 10
-16.75
 20
-2.143131898507868e-16
 10
-16.741573271676344
 20
-0.17152999557673143
 10
-16.716374240705655
 20
-0.34140806352822506
 10
-16.674645587531366
 20
-0.5079981851953091
 10
-16.616789181894752
 20
-0.6696960066389073
 10
-16.543362212609622
 20
-0.8249442894454961
 10
-16.455071821529454
 20
-0.9722479077843038
 10
-16.35276829338479
 20
-1.1101882472863795
 10
-16.237436867076458
 20
-1.2374368670764582
 10
-16.11018824728638
 20
-1.35276829338479
 10
-15.972247907784304
 20
-1.4550718215294545
 10
-15.824944289445495
 20
-1.5433622126096214
 10
-15.669696006638906
 20
-1.6167891818947517
 10
-15.507998185195309
 20
-1.6746455875313657
 10
-15.341408063528224
 20
-1.7163742407056533
 10
-15.171529995576732
 20
-1.7415732716763446
 10
-15.0
 20
-1.75
 10
-14.828470004423268
 20
-1.7415732716763443
 10
-14.658591936471776
 20
-1.7163742407056533
 10
-14.492001814804691
 20
-1.6746455875313657
 10
-14.330303993361092
 20
-1.6167891818947517
 10
-14.175055710554505
 20
-1.5433622126096211
 10
-14.027752092215696
 20
-1.4550718215294542
 10
-13.889811752713621
 20
-1.3527682933847895
 10
-13.762563132923542
 20
-1.2374368670764582
 10
-13.64723170661521
 20
-1.1101882472863795
 10
-13.544928178470546
 20
-0.9722479077843038
 10
-13.45663778739038
 20
-0.8249442894454959
 10
-13.383210818105248
 20
-0.6696960066389072
 10
-13.325354412468634
 20
-0.507998185195309
 10
-13.283625759294347
 20
-0.34140806352822445
 10
-13.258426728323656
 20
-0.17152999557673104
 10
-13.25
 20
0.0
 10
-13.258426728323656
 20
0.17152999557673088
 10
-13.283625759294347
 20
0.3414080635282253
 10
-13.325354412468634
 20
0.5079981851953094
  0
LWPOLYLINE
  5
33
330
17
100
AcDbEntity
  8
0
 62
0
100
AcDbPolyline
 90
65
 70
0
 10
0.9807852804032303
 20
30.195090322016128
 10
0.9569403357322088
 20
30.290284677254462
 10
0.9238795325112865
 20
30.38268343236509
 10
0.8819212643483548
 20
30.471396736825998
 10
0.8314696123025452
 20
30.5555702330196
 10
0.7730104533627365
 20
30.634393284163647
 10
0.7071067811865474
 20
30.707106781186546
 10
0.6343932841636456
 20
30.773010453362737
 10
0.5555702330196018
 20
30.831469612302545
 10
0.4713967368259976
 20
30.881921264348357
 10
0.38268343236509
 20
30.923879532511286
 10
0.29028467725446205
 20
30.95694033573221
 10
0.1950903220161283
 20
30.980785280403232
 10
0.09801714032956009
 20
30.995184726672196
 10
-1.8369701987210297e-16
 20
31.0
 10
-0.09801714032956045
 20
30.995184726672196
 10
-0.19509032201612866
 20
30.98078528040323
 10
-0.29028467725446244
 20
30.95694033573221
 10
-0.38268343236509034
 20
30.923879532511286
 10
-0.47139673682599786
 20
30.881921264348357
 10
-0.5555702330196022
 20
30.831469612302545
 10
-0.6343932841636459
 20
30.773010453362737
 10
-0.7071067811865477
 20
30.707106781186546
 10
-0.7730104533627371
 20
30.634393284163647
 10
-0.8314696123025455
 20
30.5555702330196
 10
-0.881921264348355
 20
30.471396736825998
 10
-0.9238795325112868
 20
30.38268343236509
 10
-0.9569403357322089
 20
30.290284677254462
 10
-0.9807852804032304
 20
30.195090322016128
 10
-0.9951847266721969
 20
30.09801714032956
 10
-1.0
 20
30.0
 10
-0.9951847266721968
 20
29.90198285967044
 10
-0.9807852804032304
 20
29.804909677983872
 10
-0.9569403357322088
 20
29.709715322745538
 10
-0.9238795325112867
 20
29.61731656763491
 10
-0.8819212643483549
 20
29.528603263174002
 10
-0.8314696123025453
 20
29.4444297669804
 10
-0.773010453362737
 20
29.365606715836353
 10
-0.7071067811865475
 20
29.292893218813454
 10
-0.6343932841636454
 20
29.226989546637263
 10
-0.555570233019602
 20
29.168530387697455
 10
-0.4713967368259977
 20
29.118078735651643
 10
-0.3826834323650897
 20
29.076120467488714
 10
-0.29028467725446216
 20
29.04305966426779
 10
-0.1950903220161282
 20
29.019214719596768
 10
-0.09801714032956065
 20
29.004815273327804
 10
6.123233995736766e-17
 20
29.0
 10
0.09801714032956077
 20
29.004815273327804
 10
0.19509032201612833
 20
29.019214719596768
 10
0.29028467725446233
 20
29.04305966426779
 10
0.38268343236508984
 20
29.076120467488714
 10
0.4713967368259978
 20
29.118078735651643
 10
0.5555702330196023
 20
29.168530387697455
 10
0.6343932841636455
 20
29.226989546637263
 10
0.7071067811865476
 20
29.292893218813454
 10
0.773010453362737
 20
29.365606715836353
 10
0.8314696123025452
 20
29.4444297669804
 10
0.881921264348355
 20
29.528603263174002
 10
0.9238795325112867
 20
29.61731656763491
 10
0.9569403357322088
 20
29.709715322745538
 10
0.9807852804032304
 20
29.804909677983872
 10
0.9951847266721969
 20
29.90198285967044
 10
1.0
 20
30.0
 10
0.9951847266721969
 20
30.09801714032956
 10
0.9807852804032303
 20
30.195090322016128
  0
LWPOLYLINE
  5
34
330
17
100
AcDbEntity
  8
0
 62
0
100
AcDbPolyline
 90
65
 70
0
 10
0.9951847266721969
 20
60.09801714032956
 10
0.9807852804032303
 20
60.19509032201613
 10
0.9569403357322088
 20
60.29028467725446
 10
0.9238795325112865
 20
60.38268343236509
 10
0.8819212643483548
 20
60.471396736825994
 10
0.8314696123025452
 20
60.5555702330196
 10
0.7730104533627365
 20
60.63439328416364
 10
0.7071067811865474
 20
60.707106781186546
 10
0.6343932841636456
 20
60.77301045336274
 10
0.5555702330196018
 20
60.83146961230255
 10
0.4713967368259976
 20
60.88192126434836
 10
0.38268343236509
 20
60.923879532511286
 10
0.29028467725446205
 20
60.956940335732206
 10
0.1950903220161283
 20
60.98078528040323
 10
0.09801714032956009
 20
60.9951847266722
 10
-1.8369701987210297e-16
 20
61.0
 10
-0.09801714032956045
 20
60.9951847266722
 10
-0.19509032201612866
 20
60.98078528040323
 10
-0.29028467725446244
 20
60.956940335732206
 10
-0.38268343236509034
 20
60.923879532511286
 10
-0.47139673682599786
 20
60.88192126434836
 10
-0.5555702330196022
 20
60.83146961230255
 10
-0.6343932841636459
 20
60.77301045336274
 10
-0.7071067811865477
 20
60.707106781186546
 10
-0.7730104533627371
 20
60.63439328416364
 10
-0.8314696123025455
 20
60.5555702330196
 10
-0.881921264348355
 20
60.471396736825994
 10
-0.9238795325112868
 20
60.38268343236509
 10
-0.9569403357322089
 20
60.29028467725446
 10
-0.9807852804032304
 20
60.19509032201613
 10
-0.9951847266721969
 20
60.09801714032956
 10
-1.0
 20
60.0
 10
-0.9951847266721968
 20
59.90198285967044
 10
-0.9807852804032304
 20
59.80490967798387
 10
-0.9569403357322088
 20
59.70971532274554
 10
-0.9238795325112867
 20
59.61731656763491
 10
-0.8819212643483549
 20
59.528603263174006
 10
-0.8314696123025453
 20
59.4444297669804
 10
-0.773010453362737
 20
59.36560671583636
 10
-0.7071067811865475
 20
59.292893218813454
 10
-0.6343932841636454
 20
59.22698954663726
 10
-0.555570233019602
 20
59.16853038769745
 10
-0.4713967368259977
 20
59.11807873565164
 10
-0.3826834323650897
 20
59.076120467488714
 10
-0.29028467725446216
 20
59.043059664267794
 10
-0.1950903220161282
 20
59.01921471959677
 10
-0.09801714032956065
 20
59.0048152733278
 10
6.123233995736766e-17
 20
59.0
 10
0.09801714032956077
 20
59.0048152733278
 10
0.19509032201612833
 20
59.01921471959677
 10
0.29028467725446233
 20
59.043059664267794
 10
0.38268343236508984
 20
59.076120467488714
 10
0.4713967368259978
 20
59.11807873565164
 10
0.5555702330196023
 20
59.16853038769745
 10
0.6343932841636455
 20
59.22698954663726
 10
0.7071067811865476
 20
59.292893218813454
 10
0.773010453362737
 20
59.36560671583636
 10
0.8314696123025452
 20
59.4444297669804
 10
0.881921264348355
 20
59.528603263174006
 10
0.9238795325112867
 20
59.61731656763491
 10
0.9569403357322088
 20
59.70971532274554
 10
0.9807852804032304
 20
59.80490967798387
 10
0.9951847266721969
 20
59.90198285967044
 10
1.0
 20
60.0
 10
0.9951847266721969
 20
60.09801714032956
  0
ENDSEC
  0
SECTION
  2
OBJECTS
  0
DICTIONARY
  5
A
330
0
100
AcDbDictionary
280
0
281
1
  3
ACAD_COLOR
350
B
  3
ACAD_GROUP
350
C
  3
ACAD_LAYOUT
350
D
  3
ACAD_MATERIAL
350
E
  3
ACAD_MLEADERSTYLE
350
F
  3
ACAD_MLINESTYLE
350
10
  3
ACAD_PLOTSETTINGS
350
11
  3
ACAD_PLOTSTYLENAME
350
12
  3
ACAD_SCALELIST
350
14
  3
ACAD_TABLESTYLE
350
15
  3
ACAD_VISUALSTYLE
350
16
  3
EZDXF_META
350
2D
  0
DICTIONARY
  5
B
330
A
100
AcDbDictionary
280
0
281
1
  0
DICTIONARY
  5
C
330
A
100
AcDbDictionary
280
0
281
1
  0
DICTIONARY
  5
D
330
A
100
AcDbDictionary
280
0
281
1
  3
Model
350
1A
  3
Layout1
350
1E
  0
DICTIONARY
  5
E
330
A
100
AcDbDictionary
280
0
281
1
  3
ByBlock
350
1F
  3
ByLayer
350
20
  3
Global
350
21
  0
DICTIONARY
  5
F
330
A
100
AcDbDictionary
280
0
281
1
  3
Standard
350
2C
  0
DICTIONARY
  5
10
330
A
100
AcDbDictionary
280
0
281
1
  3
Standard
350
22
  0
DICTIONARY
  5
11
330
A
100
AcDbDictionary
280
0
281
1
  0
ACDBDICTIONARYWDFLT
  5
12
330
A
100
AcDbDictionary
280
0
281
1
  3
Normal
350
13
100
AcDbDictionaryWithDefault
340
13
  0
ACDBPLACEHOLDER
  5
13
330
12
  0
DICTIONARY
  5
14
330
A
100
AcDbDictionary
280
0
281
1
  0
DICTIONARY
  5
15
330
A
100
AcDbDictionary
280
0
281
1
  0
DICTIONARY
  5
16
330
A
100
AcDbDictionary
280
0
281
1
  0
LAYOUT
  5
1A
330
D
100
AcDbPlotSettings
  1

  2
Adobe PDF
  4
A3
  6

 40
7.5
 41
20.0
 42
7.5
 43
20.0
 44
420.0
 45
297.0
 46
0.0
 47
0.0
 48
0.0
 49
0.0
140
0.0
141
0.0
142
1.0
143
1.0
 70
1024
 72
1
 73
0
 74
5
  7

 75
16
 76
0
 77
2
 78
300
147
1.0
148
0.0
149
0.0
100
AcDbLayout
  1
Model
 70
1
 71
0
 10
0.0
 20
0.0
 11
420.0
 21
297.0
 12
0.0
 22
0.0
 32
0.0
 14
1e+20
 24
1e+20
 34
1e+20
 15
-1e+20
 25
-1e+20
 35
-1e+20
146
0.0
 13
0.0
 23
0.0
 33
0.0
 16
1.0
 26
0.0
 36
0.0
 17
0.0
 27
1.0
 37
0.0
 76
1
330
17
  0
LAYOUT
  5
1E
330
D
100
AcDbPlotSettings
  1

  2
Adobe PDF
  4
A3
  6

 40
7.5
 41
20.0
 42
7.5
 43
20.0
 44
420.0
 45
297.0
 46
0.0
 47
0.0
 48
0.0
 49
0.0
140
0.0
141
0.0
142
1.0
143
1.0
 70
0
 72
1
 73
0
 74
5
  7

 75
16
 76
0
 77
2
 78
300
147
1.0
148
0.0
149
0.0
100
AcDbLayout
  1
Layout1
 70
1
 71
1
 10
0.0
 20
0.0
 11
420.0
 21
297.0
 12
0.0
 22
0.0
 32
0.0
 14
1e+20
 24
1e+20
 34
1e+20
 15
-1e+20
 25
-1e+20
 35
-1e+20
146
0.0
 13
0.0
 23
0.0
 33
0.0
 16
1.0
 26
0.0
 36
0.0
 17
0.0
 27
1.0
 37
0.0
 76
1
330
1B
  0
MATERIAL
  5
1F
102
{ACAD_REACTORS
330
E
102
}
330
E
100
AcDbMaterial
  1
ByBlock
  2

 70
0
 40
1.0
 71
1
 41
1.0
 91
-1023410177
 42
1.0
 72
1
  3

 73
1
 74
1
 75
1
 44
0.5
 73
0
 45
1.0
 46
1.0
 77
1
  4

 78
1
 79
1
170
1
 48
1.0
171
1
  6

172
1
173
1
174
1
140
1.0
141
1.0
175
1
  7

176
1
177
1
178
1
143
1.0
179
1
  8

270
1
271
1
272
1
145
1.0
146
1.0
273
1
  9

274
1
275
1
276
1
 42
1.0
 72
1
  3

 73
1
 74
1
 75
1
 94
63
  0
MATERIAL
  5
20
102
{ACAD_REACTORS
330
E
102
}
330
E
100
AcDbMaterial
  1
ByLayer
  2

 70
0
 40
1.0
 71
1
 41
1.0
 91
-1023410177
 42
1.0
 72
1
  3

 73
1
 74
1
 75
1
 44
0.5
 73
0
 45
1.0
 46
1.0
 77
1
  4

 78
1
 79
1
170
1
 48
1.0
171
1
  6

172
1
173
1
174
1
140
1.0
141
1.0
175
1
  7

176
1
177
1
178
1
143
1.0
179
1
  8

270
1
271
1
272
1
145
1.0
146
1.0
273
1
  9

274
1
275
1
276
1
 42
1.0
 72
1
  3

 73
1
 74
1
 75
1
 94
63
  0
MATERIAL
  5
21
102
{ACAD_REACTORS
330
E
102
}
330
E
100
AcDbMaterial
  1
Global
  2

 70
0
 40
1.0
 71
1
 41
1.0
 91
-1023410177
 42
1.0
 72
1
  3

 73
1
 74
1
 75
1
 44
0.5
 73
0
 45
1.0
 46
1.0
 77
1
  4

 78
1
 79
1
170
1
 48
1.0
171
1
  6

172
1
173
1
174
1
140
1.0
141
1.0
175
1
  7

176
1
177
1
178
1
143
1.0
179
1
  8

270
1
271
1
272
1
145
1.0
146
1.0
273
1
  9

274
1
275
1
276
1
 42
1.0
 72
1
  3

 73
1
 74
1
 75
1
 94
63
  0
MLINESTYLE
  5
22
102
{ACAD_REACTORS
330
10
102
}
330
10
100
AcDbMlineStyle
  2
Standard
 70
0
  3

 62
256
 51
90.0
 52
90.0
 71
2
 49
0.5
 62
256
  6
BYLAYER
 49
-0.5
 62
256
  6
BYLAYER
  0
MLEADERSTYLE
  5
2C
102
{ACAD_REACTORS
330
F
102
}
330
F
100
AcDbMLeaderStyle
179
2
170
2
171
1
172
0
 90
2
 40
0.0
 41
0.0
173
1
 91
-1056964608
 92
-2
290
1
 42
2.0
291
1
 43
8.0
  3
Standard
 44
4.0
300

342
29
174
1
175
1
176
0
178
1
 93
-1056964608
 45
4.0
292
0
297
0
 46
4.0
 94
-1056964608
 47
1.0
 49
1.0
140
1.0
294
1
141
0.0
177
0
142
1.0
295
0
296
0
143
3.75
271
0
272
9
273
9
  0
DICTIONARY
  5
2D
330
A
100
AcDbDictionary
281
1
  3
CREATED_BY_EZDXF
350
2E
  3
WRITTEN_BY_EZDXF
350
37
  0
DICTIONARYVAR
  5
2E
330
2D
100
DictionaryVariables
280
0
  1
1.1.1 @ 2023-11-13T02:41:03.966339+00:00
  0
DICTIONARYVAR
  5
37
330
2D
100
DictionaryVariables
280
0
  1
1.1.1 @ 2023-11-13T02:41:03.980840+00:00
  0
ENDSEC
  0
EOF
