  0
SECTION
  2
HEADER
  9
$ACADVER
  1
AC1032
  9
$ACADMAINTVER
 90
4
  9
$DWGCODEPAGE
  3
ANSI_1252
  9
$LASTSAVEDBY
  1
ezdxf
  9
$REQUIREDVERSIONS
160
0
  9
$INSBASE
 10
0.0
 20
0.0
 30
0.0
  9
$EXTMIN
 10
1e+20
 20
1e+20
 30
1e+20
  9
$EXTMAX
 10
-1e+20
 20
-1e+20
 30
-1e+20
  9
$LIMMIN
 10
0.0
 20
0.0
  9
$LIMMAX
 10
420.0
 20
297.0
  9
$ORTHOMODE
 70
0
  9
$REGENMODE
 70
1
  9
$FILLMODE
 70
1
  9
$QTEXTMODE
 70
0
  9
$MIRRTEXT
 70
1
  9
$LTSCALE
 40
1.0
  9
$ATTMODE
 70
1
  9
$TEXTSIZE
 40
2.5
  9
$TRACEWID
 40
1.0
  9
$TEXTSTYLE
  7
Standard
  9
$CLAYER
  8
0
  9
$CELTYPE
  6
ByLayer
  9
$CECOLOR
 62
256
  9
$CELTSCALE
 40
1.0
  9
$DISPSILH
 70
0
  9
$DIMSCALE
 40
1.0
  9
$DIMASZ
 40
2.5
  9
$DIMEXO
 40
0.625
  9
$DIMDLI
 40
3.75
  9
$DIMRND
 40
0.0
  9
$DIMDLE
 40
0.0
  9
$DIMEXE
 40
1.25
  9
$DIMTP
 40
0.0
  9
$DIMTM
 40
0.0
  9
$DIMTXT
 40
2.5
  9
$DIMCEN
 40
2.5
  9
$DIMTSZ
 40
0.0
  9
$DIMTOL
 70
0
  9
$DIMLIM
 70
0
  9
$DIMTIH
 70
0
  9
$DIMTOH
 70
0
  9
$DIMSE1
 70
0
  9
$DIMSE2
 70
0
  9
$DIMTAD
 70
1
  9
$DIMZIN
 70
8
  9
$DIMBLK
  1

  9
$DIMASO
 70
1
  9
$DIMSHO
 70
1
  9
$DIMPOST
  1

  9
$DIMAPOST
  1

  9
$DIMALT
 70
0
  9
$DIMALTD
 70
3
  9
$DIMALTF
 40
0.03937007874
  9
$DIMLFAC
 40
1.0
  9
$DIMTOFL
 70
1
  9
$DIMTVP
 40
0.0
  9
$DIMTIX
 70
0
  9
$DIMSOXD
 70
0
  9
$DIMSAH
 70
0
  9
$DIMBLK1
  1

  9
$DIMBLK2
  1

  9
$DIMSTYLE
  2
ISO-25
  9
$DIMCLRD
 70
0
  9
$DIMCLRE
 70
0
  9
$DIMCLRT
 70
0
  9
$DIMTFAC
 40
1.0
  9
$DIMGAP
 40
0.625
  9
$DIMJUST
 70
0
  9
$DIMSD1
 70
0
  9
$DIMSD2
 70
0
  9
$DIMTOLJ
 70
0
  9
$DIMTZIN
 70
8
  9
$DIMALTZ
 70
0
  9
$DIMALTTZ
 70
0
  9
$DIMUPT
 70
0
  9
$DIMDEC
 70
2
  9
$DIMTDEC
 70
2
  9
$DIMALTU
 70
2
  9
$DIMALTTD
 70
3
  9
$DIMTXSTY
  7
Standard
  9
$DIMAUNIT
 70
0
  9
$DIMADEC
 70
0
  9
$DIMALTRND
 40
0.0
  9
$DIMAZIN
 70
0
  9
$DIMDSEP
 70
44
  9
$DIMATFIT
 70
3
  9
$DIMFRAC
 70
0
  9
$DIMLDRBLK
  1

  9
$DIMLUNIT
 70
2
  9
$DIMLWD
 70
-2
  9
$DIMLWE
 70
-2
  9
$DIMTMOVE
 70
0
  9
$DIMFXL
 40
1.0
  9
$DIMFXLON
 70
0
  9
$DIMJOGANG
 40
0.785398163397
  9
$DIMTFILL
 70
0
  9
$DIMTFILLCLR
 70
0
  9
$DIMARCSYM
 70
0
  9
$DIMLTYPE
  6

  9
$DIMLTEX1
  6

  9
$DIMLTEX2
  6

  9
$DIMTXTDIRECTION
 70
0
  9
$LUNITS
 70
2
  9
$LUPREC
 70
4
  9
$SKETCHINC
 40
1.0
  9
$FILLETRAD
 40
10.0
  9
$AUNITS
 70
0
  9
$AUPREC
 70
2
  9
$MENU
  1
.
  9
$ELEVATION
 40
0.0
  9
$PELEVATION
 40
0.0
  9
$THICKNESS
 40
0.0
  9
$LIMCHECK
 70
0
  9
$CHAMFERA
 40
0.0
  9
$CHAMFERB
 40
0.0
  9
$CHAMFERC
 40
0.0
  9
$CHAMFERD
 40
0.0
  9
$SKPOLY
 70
0
  9
$TDCREATE
 40
2460259.899201389
  9
$TDUCREATE
 40
2458532.153996898
  9
$TDUPDATE
 40
2460259.899201389
  9
$TDUUPDATE
 40
2458532.1544311
  9
$TDINDWG
 40
0.0
  9
$TDUSRTIMER
 40
0.0
  9
$USRTIMER
 70
1
  9
$ANGBASE
 50
0.0
  9
$ANGDIR
 70
0
  9
$PDMODE
 70
0
  9
$PDSIZE
 40
0.0
  9
$PLINEWID
 40
0.0
  9
$SPLFRAME
 70
0
  9
$SPLINETYPE
 70
6
  9
$SPLINESEGS
 70
8
  9
$HANDSEED
  5
36
  9
$SURFTAB1
 70
6
  9
$SURFTAB2
 70
6
  9
$SURFTYPE
 70
6
  9
$SURFU
 70
6
  9
$SURFV
 70
6
  9
$UCSBASE
  2

  9
$UCSNAME
  2

  9
$UCSORG
 10
0.0
 20
0.0
 30
0.0
  9
$UCSXDIR
 10
1.0
 20
0.0
 30
0.0
  9
$UCSYDIR
 10
0.0
 20
1.0
 30
0.0
  9
$UCSORTHOREF
  2

  9
$UCSORTHOVIEW
 70
0
  9
$UCSORGTOP
 10
0.0
 20
0.0
 30
0.0
  9
$UCSORGBOTTOM
 10
0.0
 20
0.0
 30
0.0
  9
$UCSORGLEFT
 10
0.0
 20
0.0
 30
0.0
  9
$UCSORGRIGHT
 10
0.0
 20
0.0
 30
0.0
  9
$UCSORGFRONT
 10
0.0
 20
0.0
 30
0.0
  9
$UCSORGBACK
 10
0.0
 20
0.0
 30
0.0
  9
$PUCSBASE
  2

  9
$PUCSNAME
  2

  9
$PUCSORG
 10
0.0
 20
0.0
 30
0.0
  9
$PUCSXDIR
 10
1.0
 20
0.0
 30
0.0
  9
$PUCSYDIR
 10
0.0
 20
1.0
 30
0.0
  9
$PUCSORTHOREF
  2

  9
$PUCSORTHOVIEW
 70
0
  9
$PUCSORGTOP
 10
0.0
 20
0.0
 30
0.0
  9
$PUCSORGBOTTOM
 10
0.0
 20
0.0
 30
0.0
  9
$PUCSORGLEFT
 10
0.0
 20
0.0
 30
0.0
  9
$PUCSORGRIGHT
 10
0.0
 20
0.0
 30
0.0
  9
$PUCSORGFRONT
 10
0.0
 20
0.0
 30
0.0
  9
$PUCSORGBACK
 10
0.0
 20
0.0
 30
0.0
  9
$USERI1
 70
0
  9
$USERI2
 70
0
  9
$USERI3
 70
0
  9
$USERI4
 70
0
  9
$USERI5
 70
0
  9
$USERR1
 40
0.0
  9
$USERR2
 40
0.0
  9
$USERR3
 40
0.0
  9
$USERR4
 40
0.0
  9
$USERR5
 40
0.0
  9
$WORLDVIEW
 70
1
  9
$SHADEDGE
 70
3
  9
$SHADEDIF
 70
70
  9
$TILEMODE
 70
1
  9
$MAXACTVP
 70
64
  9
$PINSBASE
 10
0.0
 20
0.0
 30
0.0
  9
$PLIMCHECK
 70
0
  9
$PEXTMIN
 10
1e+20
 20
1e+20
 30
1e+20
  9
$PEXTMAX
 10
-1e+20
 20
-1e+20
 30
-1e+20
  9
$PLIMMIN
 10
0.0
 20
0.0
  9
$PLIMMAX
 10
420.0
 20
297.0
  9
$UNITMODE
 70
0
  9
$VISRETAIN
 70
1
  9
$PLINEGEN
 70
0
  9
$PSLTSCALE
 70
1
  9
$TREEDEPTH
 70
3020
  9
$CMLSTYLE
  2
Standard
  9
$CMLJUST
 70
0
  9
$CMLSCALE
 40
20.0
  9
$PROXYGRAPHICS
 70
1
  9
$MEASUREMENT
 70
1
  9
$CELWEIGHT
370
-1
  9
$ENDCAPS
280
0
  9
$JOINSTYLE
280
0
  9
$LWDISPLAY
290
0
  9
$INSUNITS
 70
4
  9
$HYPERLINKBASE
  1

  9
$STYLESHEET
  1

  9
$XEDIT
290
1
  9
$CEPSNTYPE
380
0
  9
$PSTYLEMODE
290
1
  9
$FINGERPRINTGUID
  2
{0F6546ED-6558-424E-816B-B11870971B5F}
  9
$VERSIONGUID
  2
{8A543CA2-1B01-4954-B096-E6989D9AD88B}
  9
$EXTNAMES
290
1
  9
$PSVPSCALE
 40
0.0
  9
$OLESTARTUP
290
0
  9
$SORTENTS
280
127
  9
$INDEXCTL
280
0
  9
$HIDETEXT
280
1
  9
$XCLIPFRAME
280
0
  9
$HALOGAP
280
0
  9
$OBSCOLOR
 70
257
  9
$OBSLTYPE
280
0
  9
$INTERSECTIONDISPLAY
280
0
  9
$INTERSECTIONCOLOR
 70
257
  9
$DIMASSOC
280
2
  9
$PROJECTNAME
  1

  9
$CAMERADISPLAY
290
0
  9
$LENSLENGTH
 40
50.0
  9
$CAMERAHEIGHT
 40
0.0
  9
$STEPSPERSEC
 40
24.0
  9
$STEPSIZE
 40
100.0
  9
$3DDWFPREC
 40
2.0
  9
$PSOLWIDTH
 40
0.005
  9
$PSOLHEIGHT
 40
0.08
  9
$LOFTANG1
 40
1.570796326795
  9
$LOFTANG2
 40
1.570796326795
  9
$LOFTMAG1
 40
0.0
  9
$LOFTMAG2
 40
0.0
  9
$LOFTPARAM
 70
7
  9
$LOFTNORMALS
280
1
  9
$LATITUDE
 40
37.795
  9
$LONGITUDE
 40
-122.394
  9
$NORTHDIRECTION
 40
0.0
  9
$TIMEZONE
 70
-8000
  9
$LIGHTGLYPHDISPLAY
280
1
  9
$TILEMODELIGHTSYNCH
280
1
  9
$CMATERIAL
347
20
  9
$SOLIDHIST
280
0
  9
$SHOWHIST
280
1
  9
$DWFFRAME
280
2
  9
$DGNFRAME
280
2
  9
$REALWORLDSCALE
290
1
  9
$INTERFERECOLOR
 62
256
  9
$CSHADOW
280
0
  9
$SHADOWPLANELOCATION
 40
0.0
  0
ENDSEC
  0
SECTION
  2
CLASSES
  0
CLASS
  1
ACDBDICTIONARYWDFLT
  2
AcDbDictionaryWithDefault
  3
ObjectDBX Classes
 90
0
 91
0
280
0
281
0
  0
CLASS
  1
SUN
  2
AcDbSun
  3
SCENEOE
 90
1153
 91
0
280
0
281
0
  0
CLASS
  1
VISUALSTYLE
  2
AcDbVisualStyle
  3
ObjectDBX Classes
 90
4095
 91
0
280
0
281
0
  0
CLASS
  1
MATERIAL
  2
AcDbMaterial
  3
ObjectDBX Classes
 90
1153
 91
0
280
0
281
0
  0
CLASS
  1
SCALE
  2
AcDbScale
  3
ObjectDBX Classes
 90
1153
 91
0
280
0
281
0
  0
CLASS
  1
TABLESTYLE
  2
AcDbTableStyle
  3
ObjectDBX Classes
 90
4095
 91
0
280
0
281
0
  0
CLASS
  1
MLEADERSTYLE
  2
AcDbMLeaderStyle
  3
ACDB_MLEADERSTYLE_CLASS
 90
4095
 91
0
280
0
281
0
  0
CLASS
  1
DICTIONARYVAR
  2
AcDbDictionaryVar
  3
ObjectDBX Classes
 90
0
 91
0
280
0
281
0
  0
CLASS
  1
CELLSTYLEMAP
  2
AcDbCellStyleMap
  3
ObjectDBX Classes
 90
1152
 91
0
280
0
281
0
  0
CLASS
  1
MENTALRAYRENDERSETTINGS
  2
AcDbMentalRayRenderSettings
  3
SCENEOE
 90
1024
 91
0
280
0
281
0
  0
CLASS
  1
ACDBDETAILVIEWSTYLE
  2
AcDbDetailViewStyle
  3
ObjectDBX Classes
 90
1025
 91
0
280
0
281
0
  0
CLASS
  1
ACDBSECTIONVIEWSTYLE
  2
AcDbSectionViewStyle
  3
ObjectDBX Classes
 90
1025
 91
0
280
0
281
0
  0
CLASS
  1
RASTERVARIABLES
  2
AcDbRasterVariables
  3
ISM
 90
0
 91
0
280
0
281
0
  0
CLASS
  1
ACDBPLACEHOLDER
  2
AcDbPlaceHolder
  3
ObjectDBX Classes
 90
0
 91
0
280
0
281
0
  0
CLASS
  1
LAYOUT
  2
AcDbLayout
  3
ObjectDBX Classes
 90
0
 91
0
280
0
281
0
  0
ENDSEC
  0
SECTION
  2
TABLES
  0
TABLE
  2
VPORT
  5
8
330
0
100
AcDbSymbolTable
 70
1
  0
VPORT
  5
23
330
8
100
AcDbSymbolTableRecord
100
AcDbViewportTableRecord
  2
*Active
 70
0
 10
0.0
 20
0.0
 11
1.0
 21
1.0
 12
0.0
 22
0.0
 13
0.0
 23
0.0
 14
0.5
 24
0.5
 15
0.5
 25
0.5
 16
0.0
 26
0.0
 36
1.0
 17
0.0
 27
0.0
 37
0.0
 40
1000.0
 41
1.34
 42
50.0
 43
0.0
 44
0.0
 50
0.0
 51
0.0
 71
0
 72
1000
 73
1
 74
3
 75
0
 76
0
 77
0
 78
0
281
0
 65
0
146
0.0
  0
ENDTAB
  0
TABLE
  2
LTYPE
  5
2
330
0
100
AcDbSymbolTable
 70
3
  0
LTYPE
  5
24
330
2
100
AcDbSymbolTableRecord
100
AcDbLinetypeTableRecord
  2
ByBlock
 70
0
  3

 72
65
 73
0
 40
0.0
  0
LTYPE
  5
25
330
2
100
AcDbSymbolTableRecord
100
AcDbLinetypeTableRecord
  2
ByLayer
 70
0
  3

 72
65
 73
0
 40
0.0
  0
LTYPE
  5
26
330
2
100
AcDbSymbolTableRecord
100
AcDbLinetypeTableRecord
  2
Continuous
 70
0
  3

 72
65
 73
0
 40
0.0
  0
ENDTAB
  0
TABLE
  2
LAYER
  5
1
330
0
100
AcDbSymbolTable
 70
2
  0
LAYER
  5
27
330
1
100
AcDbSymbolTableRecord
100
AcDbLayerTableRecord
  2
0
 70
0
 62
7
  6
Continuous
370
-3
390
13
347
21
  0
LAYER
  5
28
330
1
100
AcDbSymbolTableRecord
100
AcDbLayerTableRecord
  2
Defpoints
 70
0
 62
7
  6
Continuous
290
0
370
-3
390
13
347
21
  0
ENDTAB
  0
TABLE
  2
STYLE
  5
5
330
0
100
AcDbSymbolTable
 70
1
  0
STYLE
  5
29
330
5
100
AcDbSymbolTableRecord
100
AcDbTextStyleTableRecord
  2
Standard
 70
0
 40
0.0
 41
1.0
 50
0.0
 71
0
 42
2.5
  3
txt
  4

  0
ENDTAB
  0
TABLE
  2
VIEW
  5
7
330
0
100
AcDbSymbolTable
 70
0
  0
ENDTAB
  0
TABLE
  2
UCS
  5
6
330
0
100
AcDbSymbolTable
 70
0
  0
ENDTAB
  0
TABLE
  2
APPID
  5
3
330
0
100
AcDbSymbolTable
 70
3
  0
APPID
  5
2A
330
3
100
AcDbSymbolTableRecord
100
AcDbRegAppTableRecord
  2
ACAD
 70
0
  0
APPID
  5
33
330
3
100
AcDbSymbolTableRecord
100
AcDbRegAppTableRecord
  2
HATCHBACKGROUNDCOLOR
 70
0
  0
APPID
  5
34
330
3
100
AcDbSymbolTableRecord
100
AcDbRegAppTableRecord
  2
EZDXF
 70
0
  0
ENDTAB
  0
TABLE
  2
DIMSTYLE
  5
4
330
0
100
AcDbSymbolTable
 70
1
100
AcDbDimStyleTable
  0
DIMSTYLE
105
2B
330
4
100
AcDbSymbolTableRecord
100
AcDbDimStyleTableRecord
  2
Standard
 70
0
 40
1.0
 41
2.5
 42
0.625
 43
3.75
 44
1.25
 45
0.0
 46
0.0
 47
0.0
 48
0.0
 49
2.5
140
2.5
141
2.5
142
0.0
143
0.03937007874
144
1.0
145
0.0
146
1.0
147
0.625
148
0.0
 69
0
 70
0
 71
0
 72
0
 73
0
 74
0
 75
0
 76
0
 77
1
 78
8
 79
3
170
0
171
3
172
1
173
0
174
0
175
0
176
0
177
0
178
0
179
2
271
2
272
2
273
2
274
3
275
0
276
0
277
2
278
44
279
0
280
0
281
0
282
0
283
0
284
8
285
0
286
0
288
0
289
3
290
0
371
-2
372
-2
  0
ENDTAB
  0
TABLE
  2
BLOCK_RECORD
  5
9
330
0
100
AcDbSymbolTable
 70
2
  0
BLOCK_RECORD
  5
17
330
9
100
AcDbSymbolTableRecord
100
AcDbBlockTableRecord
  2
*Model_Space
340
1A
 70
0
280
1
281
0
  0
BLOCK_RECORD
  5
1B
330
9
100
AcDbSymbolTableRecord
100
AcDbBlockTableRecord
  2
*Paper_Space
340
1E
 70
0
280
1
281
0
  0
ENDTAB
  0
ENDSEC
  0
SECTION
  2
BLOCKS
  0
BLOCK
  5
18
330
17
100
AcDbEntity
  8
0
100
AcDbBlockBegin
  2
*Model_Space
 70
0
 10
0.0
 20
0.0
 30
0.0
  3
*Model_Space
  1

  0
ENDBLK
  5
19
330
17
100
AcDbEntity
  8
0
100
AcDbBlockEnd
  0
BLOCK
  5
1C
330
1B
100
AcDbEntity
  8
0
100
AcDbBlockBegin
  2
*Paper_Space
 70
0
 10
0.0
 20
0.0
 30
0.0
  3
*Paper_Space
  1

  0
ENDBLK
  5
1D
330
1B
100
AcDbEntity
  8
0
100
AcDbBlockEnd
  0
ENDSEC
  0
SECTION
  2
ENTITIES
  0
LWPOLYLINE
  5
2F
330
17
100
AcDbEntity
  8
0
 62
0
100
AcDbPolyline
 90
1382
 70
0
 10
5.6554599710636735
 20
-28.09797313383539
 10
5.585143526723609
 20
-27.962636125804547
 10
5.520963946593995
 20
-27.833613306553772
 10
5.462672541070644
 20
-27.711069316066848
 10
5.410016917803793
 20
-27.595161844597083
 10
5.362741153200831
 20
-27.486041556648185
 10
5.320585965407537
 20
-27.383852018924948
 10
5.283288888679935
 20
-27.288729632282113
 10
5.250584449057293
 20
-27.200803567696507
 10
5.2222043412478785
 20
-27.120195706287603
 10
5.182880790340278
 20
-27.00190997185724
 10
5.1406220901230775
 20
-26.888478094914955
 10
5.096127791192361
 20
-26.785545999249827
 10
5.049766361814245
 20
-26.693154267152092
 10
5.001906948198592
 20
-26.611333542423985
 10
4.952919134727709
 20
-26.540104520216232
 10
4.903172704059249
 20
-26.47947794230066
 10
4.853037397221666
 20
-26.429454597780506
 10
4.802882673820699
 20
-26.390025329236206
 10
4.7530774724754306
 20
-26.361171044302896
 10
4.703989971601988
 20
-26.342862732672696
 10
4.655987350663079
 20
-26.335061488512657
 10
4.609435552001231
 20
-26.33771853828693
 10
4.317029287627775
 20
-26.38399857556672
 10
3.6398352999521912
 20
-26.481768490908483
 10
2.961375494855882
 20
-26.5703289005652
 10
2.6673262433347675
 20
-26.604655318603417
 10
2.6217838481962485
 20
-26.61465632441295
 10
2.5776660451415463
 20
-26.635119229413867
 10
2.5353383653209756
 20
-26.665992268424567
 10
2.4951648688548347
 20
-26.707213840710686
 10
2.457507907992229
 20
-26.75871254745131
 10
2.4227278911658394
 20
-26.82040723456648
 10
2.391183048059265
 20
-26.89220704088505
 10
2.363229195803108
 20
-26.974011451630275
 10
2.3392195064156316
 20
-27.065710357197258
 10
2.319504275602869
 20
-27.167184117194626
 10
2.304430693032936
 20
-27.278303629719904
 10
2.2943426141982495
 20
-27.398930405835838
 10
2.2883903964526677
 20
-27.52343915143076
 10
2.2828104407641905
 20
-27.608714716129597
 10
2.275040938804264
 20
-27.70220379594023
 10
2.2647906516366976
 20
-27.803861417327095
 10
2.251769099882907
 20
-27.913634823341038
 10
2.235686750230467
 20
-28.031463483651258
 10
2.2162552018662605
 20
-28.15727910880293
 10
2.193187372742093
 20
-28.291005668699768
 10
2.1661976855800034
 20
-28.43255941531187
 10
2.1350022535248954
 20
-28.581848909604886
 10
2.099319065351788
 20
-28.738775052686847
 10
2.0588681701354834
 20
-28.903231121164037
 10
2.0133718612900675
 20
-29.075102806698627
 10
1.962554859886192
 20
-29.254268259755953
 10
1.906144497153966
 20
-29.440598137529463
 10
1.8438708960797827
 20
-29.63395565602823
 10
1.7754671520054723
 20
-29.83419664631009
 10
1.7006695121386999
 20
-30.04116961484151
 10
1.6192175538834386
 20
-30.25471580796434
 10
1.5308543619002546
 20
-30.4746692804462
 10
1.435326703806831
 20
-30.70085696808855
 10
1.3323852044275295
 20
-30.933098764370115
 10
1.2217845185053635
 20
-31.171207601091474
 10
1.1032835017857783
 20
-31.414989532994994
 10
0.9147598978120927
 20
-31.78604934630416
 10
-1.060343060292155e-14
 20
-31.830988618379113
 10
-0.9147598978120998
 20
-31.786049346304164
 10
-1.1032835017857907
 20
-31.414989532994994
 10
-1.2217845185053753
 20
-31.171207601091467
 10
-1.3323852044275373
 20
-30.93309876437011
 10
-1.4353267038068345
 20
-30.700856968088548
 10
-1.5308543619002648
 20
-30.474669280446204
 10
-1.6192175538834515
 20
-30.25471580796433
 10
-1.7006695121387094
 20
-30.041169614841504
 10
-1.7754671520054905
 20
-29.83419664631009
 10
-1.8438708960797978
 20
-29.633955656028235
 10
-1.9061444971539732
 20
-29.440598137529456
 10
-1.962554859886198
 20
-29.25426825975595
 10
-2.013371861290083
 20
-29.075102806698617
 10
-2.058868170135494
 20
-28.90323112116403
 10
-2.099319065351797
 20
-28.738775052686837
 10
-2.1350022535249056
 20
-28.58184890960489
 10
-2.16619768558001
 20
-28.432559415311875
 10
-2.193187372742103
 20
-28.291005668699768
 10
-2.21625520186627
 20
-28.15727910880292
 10
-2.2356867502304767
 20
-28.031463483651255
 10
-2.251769099882916
 20
-27.913634823341035
 10
-2.264790651636713
 20
-27.8038614173271
 10
-2.275040938804272
 20
-27.70220379594023
 10
-2.2828104407641963
 20
-27.6087147161296
 10
-2.2883903964526806
 20
-27.523439151430765
 10
-2.294342614198261
 20
-27.398930405835838
 10
-2.3044306930329412
 20
-27.278303629719908
 10
-2.3195042756028714
 20
-27.167184117194616
 10
-2.33921950641564
 20
-27.06571035719726
 10
-2.36322919580311
 20
-26.97401145163027
 10
-2.3911830480592697
 20
-26.892207040885058
 10
-2.422727891165857
 20
-26.820407234566478
 10
-2.4575079079922393
 20
-26.75871254745132
 10
-2.4951648688548413
 20
-26.70721384071068
 10
-2.535338365320986
 20
-26.665992268424556
 10
-2.5776660451415596
 20
-26.635119229413863
 10
-2.621783848196254
 20
-26.61465632441295
 10
-2.667326243334782
 20
-26.60465531860342
 10
-2.96137549485589
 20
-26.57032890056519
 10
-3.6398352999522037
 20
-26.48176849090848
 10
-4.3170292876277845
 20
-26.38399857556673
 10
-4.609435552001244
 20
-26.337718538286918
 10
-4.655987350663083
 20
-26.335061488512654
 10
-4.7039899716020015
 20
-26.342862732672693
 10
-4.753077472475444
 20
-26.3611710443029
 10
-4.802882673820707
 20
-26.390025329236206
 10
-4.853037397221672
 20
-26.42945459778049
 10
-4.903172704059266
 20
-26.479477942300655
 10
-4.95291913472771
 20
-26.54010452021622
 10
-5.001906948198595
 20
-26.61133354242399
 10
-5.049766361814251
 20
-26.69315426715208
 10
-5.096127791192366
 20
-26.785545999249834
 10
-5.14062209012308
 20
-26.888478094914944
 10
-5.182880790340287
 20
-27.001909971857234
 10
-5.222204341247888
 20
-27.120195706287593
 10
-5.250584449057296
 20
-27.2008035676965
 10
-5.283288888679941
 20
-27.288729632282106
 10
-5.320585965407551
 20
-27.383852018924937
 10
-5.36274115320084
 20
-27.486041556648185
 10
-5.410016917803802
 20
-27.59516184459708
 10
-5.4626725410706545
 20
-27.71106931606685
 10
-5.520963946594004
 20
-27.833613306553765
 10
-5.5851435267236145
 20
-27.96263612580454
 10
-5.6554599710636815
 20
-28.097973133835378
 10
-5.73215809653689
 20
-28.23945282089212
 10
-5.815478679101688
 20
-28.38689689131829
 10
-5.905658287210001
 20
-28.540120351299095
 10
-6.002929117090723
 20
-28.698931600444848
 10
-6.107518829944518
 20
-28.86313252717741
 10
-6.219650391134153
 20
-29.032518607880412
 10
-6.339541911453951
 20
-29.206879009772155
 10
-6.467406490561043
 20
-29.38599669745853
 10
-6.6034520626507796
 20
-29.56964854312213
 10
-6.747881244457001
 20
-29.7576054403009
 10
-6.900891185656388
 20
-29.949632421207145
 10
-7.062673421758693
 20
-30.14548877754077
 10
-7.233413729557049
 20
-30.34492818474049
 10
-7.41329198521862
 20
-30.547698829623663
 10
-7.689893883918935
 20
-30.848650392094697
 10
-9.240048257776655
 20
-30.460356935159826
 10
-9.45181427546886
 20
-30.384585842449567
 10
-9.538033498648916
 20
-29.952374176718426
 10
-9.586368598122503
 20
-29.685661148455708
 10
-9.6286269152581
 20
-29.426542325356888
 10
-9.665092977831454
 20
-29.175139400722067
 10
-9.69605350342809
 20
-28.931566312396228
 10
-9.721797211873549
 20
-28.695929207445065
 10
-9.742614637168455
 20
-28.468326411098097
 10
-9.758797939022433
 20
-28.248848399959282
 10
-9.770640714079569
 20
-28.037577779494942
 10
-9.778437806929388
 20
-27.834589265795664
 10
-9.782485120996432
 20
-27.639949671613202
 10
-9.783079429401656
 20
-27.453717896670142
 10
-9.78051818588887
 20
-27.27594492223723
 10
-9.775099335909017
 20
-27.106673809971518
 10
-9.767121127954955
 20
-26.945939705007405
 10
-9.756881925239178
 20
-26.793769843289933
 10
-9.74468001780654
 20
-26.650183563137414
 10
-9.73081343517368
 20
-26.51519232101989
 10
-9.715579759586486
 20
-26.388799711535633
 10
-9.699275939986537
 20
-26.271001491569045
 10
-9.682198106776893
 20
-26.16178560860855
 10
-9.664641387477134
 20
-26.061132233203235
 10
-9.64689972335708
 20
-25.96901379553306
 10
-9.629265687137817
 20
-25.88539502606825
 10
-9.601405122960772
 20
-25.763897513379924
 10
-9.578574393755654
 20
-25.645022174244087
 10
-9.563109321302639
 20
-25.53395647076469
 10
-9.554716165071858
 20
-25.430926527435155
 10
-9.553095441406295
 20
-25.3361503293606
 10
-9.557942123106256
 20
-25.249837588992627
 10
-9.56894584194581
 20
-25.17218961744343
 10
-9.58579109402097
 20
-25.103399200442183
 10
-9.60815744782716
 20
-25.04365047899325
 10
-9.635719754962805
 20
-24.993118834794632
 10
-9.668148363354469
 20
-24.951970780472113
 10
-9.7051093328979
 20
-24.92036385468268
 10
-9.746264653408279
 20
-24.898446522138684
 10
-10.020148604277534
 20
-24.78605948217541
 10
-10.649555966797669
 20
-24.517736867967553
 10
-11.27525975694298
 20
-24.240887774980628
 10
-11.544336599209855
 20
-24.117433661030752
 10
-11.588445267448574
 20
-24.102315616899254
 10
-11.636772571474047
 20
-24.09687661762738
 10
-11.688979298020952
 20
-24.101262358158436
 10
-11.744722380305195
 20
-24.115609365424998
 10
-11.803655119852463
 20
-24.140044907301917
 10
-11.865427410346882
 20
-24.174686906605587
 10
-11.929685963389296
 20
-24.21964386018229
 10
-11.996074536054108
 20
-24.275014763126542
 10
-12.064234160132319
 20
-24.340889038167575
 10
-12.133803372948238
 20
-24.417346470260068
 10
-12.204418449635916
 20
-24.504457146412538
 10
-12.275713636761225
 20
-24.602281400784683
 10
-12.345492072953302
 20
-24.705571412249007
 10
-12.394567510117772
 20
-24.77553325404371
 10
-12.449781348729179
 20
-24.85137522942896
 10
-12.511359061458718
 20
-24.93290758906642
 10
-12.57952142786003
 20
-25.01993432797207
 10
-12.654484380225144
 20
-25.11225329099457
 10
-12.73645885170039
 20
-25.209656281864927
 10
-12.82565062674069
 20
-25.311929175768956
 10
-12.92226019398165
 20
-25.418852035394696
 10
-13.026482601606302
 20
-25.530199230403326
 10
-13.13850731528384
 20
-25.64573956027235
 10
-13.258518078754605
 20
-25.765236380455733
 10
-13.386692777136677
 20
-25.888447731806664
 10
-13.523203303026428
 20
-26.015126473204823
 10
-13.668215425465526
 20
-26.145020417329942
 10
-13.821888661844937
 20
-26.277872469521196
 10
-13.984376152815313
 20
-26.413420769660274
 10
-14.155824540271878
 20
-26.551398837014805
 10
-14.336373848481275
 20
-26.691535717977594
 10
-14.52615736841551
 20
-26.833556136635114
 10
-14.725301545356004
 20
-26.97718064809642
 10
-14.93392586983409
 20
-27.122125794516055
 10
-15.152142771964165
 20
-27.26810426373671
 10
-15.380057519233567
 20
-27.41482505048253
 10
-15.73526443973998
 20
-27.634736550844167
 10
-17.298226373727804
 20
-26.697933219388965
 10
-17.265391184517117
 20
-26.268328250748965
 10
-17.239975573535116
 20
-25.998465011302386
 10
-17.21075741582114
 20
-25.7375538595456
 10
-17.17804352054862
 20
-25.485635211385834
 10
-17.142140713099938
 20
-25.242741424064896
 10
-17.103355644921898
 20
-25.008896812750642
 10
-17.061994604055712
 20
-24.784117671371078
 10
-17.01836332643206
 20
-24.568412297665937
 10
-16.972766808023128
 20
-24.361781022440173
 10
-16.925509117941246
 20
-24.16421624299081
 10
-16.876893212573986
 20
-23.97570246068301
 10
-16.827220750844912
 20
-23.79621632264807
 10
-16.776791910688363
 20
-23.62572666757328
 10
-16.72590520682577
 20
-23.464194575551982
 10
-16.674857309930616
 20
-23.31157342196129
 10
-16.623942867268156
 20
-23.16780893533215
 10
-16.57345432489505
 20
-23.032839259174608
 10
-16.52368175150365
 20
-22.906595017720417
 10
-16.47491266399393
 20
-22.788999385541306
 10
-16.42743185485631
 20
-22.679968161002275
 10
-16.381521221446494
 20
-22.57940984350498
 10
-16.337459597233234
 20
-22.48722571447648
 10
-16.295522585098272
 20
-22.403309922054937
 10
-16.255982392767297
 20
-22.327549569424946
 10
-16.196375337259038
 20
-22.21807420434518
 10
-16.142319050755628
 20
-22.10976674227465
 10
-16.09746229695551
 20
-22.006992082976428
 10
-16.06158323568268
 20
-21.910047215880834
 10
-16.034452300624043
 20
-21.819222842337652
 10
-16.015832355558214
 20
-21.734803193445494
 10
-16.00547885464307
 20
-21.657065851499652
 10
-16.00314000668249
 20
-21.58628157514608
 10
-16.008556943289726
 20
-21.52271412832651
 10
-16.021463890863785
 20
-21.46662011309872
 10
-16.04158834629314
 20
-21.41824880641365
 10
-16.068651256299457
 20
-21.377842000929437
 10
-16.102367200332495
 20
-21.34563384994064
 10
-16.335773130849628
 20
-21.163521420669902
 10
-16.869447786062562
 20
-20.735336862712412
 10
-17.397255790966895
 20
-20.299941222806826
 10
-17.623047012680896
 20
-20.108469059053554
 10
-17.661441212356962
 20
-20.082011256737605
 10
-17.706508984412125
 20
-20.06373539972805
 10
-17.75796300255439
 20
-20.053873298848192
 10
-17.815509756372226
 20
-20.052648976552238
 10
-17.87884974037292
 20
-20.060278519405944
 10
-17.94767764632762
 20
-20.076969934881372
 10
-18.021682558828168
 20
-20.102923012536806
 10
-18.100548153959867
 20
-20.138329189651195
 10
-18.183952900992285
 20
-20.18337142138013
 10
-18.271570266989425
 20
-20.23822405549854
 10
-18.363068924238622
 20
-20.30305271179297
 10
-18.458112960396726
 20
-20.378014166164373
 10
-18.55317113447602
 20
-20.458647907032713
 10
-18.61930220032625
 20
-20.512774979461433
 10
-18.69293048010311
 20
-20.57090801328595
 10
-18.774221891580723
 20
-20.632803463789454
 10
-18.86333614569615
 20
-20.698213028773715
 10
-18.96042662657918
 20
-20.766883791713596
 10
-19.065640274721755
 20
-20.838558367740717
 10
-19.17911747334949
 20
-20.912975052388358
 10
-19.3009919380589
 20
-20.989867973030155
 10
-19.431390609780408
 20
-21.06896724294231
 10
-19.570433551127774
 20
-21.14999911791907
 10
-19.71823384619059
 20
-21.23268615536824
 10
-19.87489750382765
 20
-21.316747375814025
 10
-20.04052336451529
 20
-21.401898426731773
 10
-20.215203010804704
 20
-21.487851748638942
 10
-20.399020681439907
 20
-21.574316743365117
 10
-20.592053189186398
 20
-21.660999944422432
 10
-20.794369842418966
 20
-21.74760518939709
 10
-21.006032370516255
 20
-21.833833794281627
 10
-21.227094853106816
 20
-21.919384729666255
 10
-21.457603653208732
 20
-22.003954798705962
 10
-21.697597354308837
 20
-22.087238816781582
 10
-21.947106701415546
 20
-22.168929792768136
 10
-22.2061545461284
 20
-22.248719111826603
 10
-22.631483726717224
 20
-22.37156299436806
 10
-23.853397492994176
 20
-21.023388908273294
 10
-23.712253790138742
 20
-20.636080588027085
 10
-23.614972428299005
 20
-20.383081659324223
 10
-23.51644477282892
 20
-20.139728765446176
 10
-23.41697715966678
 20
-19.905978047444343
 10
-23.31687376615683
 20
-19.68177788216876
 10
-23.216436432432182
 20
-19.46706894954468
 10
-23.115964484591778
 20
-19.261784303752492
 10
-23.015754559752025
 20
-19.065849448262313
 10
-22.91610043305722
 20
-18.879182414683434
 10
-22.81729284672747
 20
-18.70169384537702
 10
-22.719619341224025
 20
-18.53328707978448
 10
-22.623364088610707
 20
-18.37385824442127
 10
-22.528807728188212
 20
-18.22329634648322
 10
-22.43622720447719
 20
-18.08148337101141
 10
-22.345895607625067
 20
-17.948294381560633
 10
-22.25808201631012
 20
-17.823597624314345
 10
-22.17305134321465
 20
-17.707254635587205
 10
-22.091064183138773
 20
-17.59912035265603
 10
-22.012376663823392
 20
-17.499043227856568
 10
-21.93724029955159
 20
-17.406865345884487
 10
-21.865901847594436
 20
-17.322422544235476
 10
-21.798603167567055
 20
-17.245544536719503
 10
-21.735581083758174
 20
-17.176055039981296
 10
-21.677067250496332
 20
-17.11377190296014
 10
-21.59013448627977
 20
-17.024437972500426
 10
-21.50886174995697
 20
-16.934731056483304
 10
-21.43794013503311
 20
-16.847869767683623
 10
-21.37723615455705
 20
-16.764199934121198
 10
-21.32660718544287
 20
-16.684063413401223
 10
-21.285901569756202
 20
-16.607797875149014
 10
-21.25495872088512
 20
-16.535736585833973
 10
-21.23360923454252
 20
-16.468208196088707
 10
-21.221675004543478
 20
-16.405536530627387
 10
-21.218969343299744
 20
-16.348040380866824
 10
-21.22529710697085
 20
-16.296033300352036
 10
-21.24045482520946
 20
-16.249823403086967
 10
-21.264230835436408
 20
-16.209713164869722
 10
-21.43984809549605
 20
-15.971381792061603
 10
-21.83820983562373
 20
-15.415091780204172
 10
-22.228976950124288
 20
-14.853440896189205
 10
-22.394736649297
 20
-14.608151297091256
 10
-22.424568858262212
 20
-14.572315990752234
 10
-22.463034627865074
 20
-14.542558712712912
 10
-22.50991982846356
 20
-14.519180197328293
 10
-22.565002274343193
 20
-14.502475347853615
 10
-22.628051865945135
 20
-14.492733043393484
 10
-22.69883073644217
 20
-14.490235949113
 10
-22.777093402590637
 20
-14.495260329804891
 10
-22.862586919784395
 20
-14.508075866905324
 10
-22.955051041234952
 20
-14.528945479049327
 10
-23.054218381200084
 20
-14.558125146255199
 10
-23.15981458218113
 20
-14.595863737825592
 10
-23.271558486007716
 20
-14.642402844051366
 10
-23.38484636806498
 20
-14.694400078638335
 10
-23.46312842397635
 20
-14.728678024353911
 10
-23.549710472234587
 20
-14.764790655439874
 10
-23.644686570354438
 20
-14.80245869439842
 10
-23.748143515626825
 20
-14.841399957255252
 10
-23.86016076822008
 20
-14.881329523773104
 10
-23.98081037806766
 20
-14.921959909542425
 10
-24.110156915584245
 20
-14.963001239867042
 10
-24.248257406253188
 20
-15.0041614253626
 10
-24.395161269124195
 20
-15.045146339183976
 10
-24.55091025926079
 20
-15.085659995797606
 10
-24.715538414172205
 20
-15.125404731212985
 10
-24.88907200426586
 20
-15.164081384587659
 10
-25.071529487352084
 20
-15.201389481118563
 10
-25.262921467232733
 20
-15.23702741613221
 10
-25.463250656402604
 20
-15.270692640285498
 10
-25.672511842890618
 20
-15.302081845787885
 10
-25.890691861266035
 20
-15.330891153555529
 10
-26.117769567833875
 20
-15.356816301207155
 10
-26.353715820040584
 20
-15.3795528318109
 10
-26.598493460107957
 20
-15.39879628329065
 10
-26.852057302917615
 20
-15.41424237840062
 10
-27.114354128155366
 20
-15.4255872151755
 10
-27.38532267673435
 20
-15.432527457763891
 10
-27.814137158608546
 20
-15.435952608264682
 10
-28.072425727779013
 20
-15.005024164649376
 10
-28.639434214992892
 20
-13.806185443213232
 10
-28.40048700848882
 20
-13.473349231878275
 10
-28.238554809366388
 20
-13.255978387067936
 10
-28.078025001612378
 20
-13.04823212194215
 10
-27.919180728394796
 20
-12.849985555514067
 10
-27.762300959577665
 20
-12.661106912894818
 10
-27.60766033787853
 20
-12.481457638265628
 10
-27.45552902780666
 20
-12.310892511124461
 10
-27.306172567446264
 20
-12.149259765738627
 10
-27.15985172315525
 20
-11.996401213742324
 10
-27.01682234724107
 20
-11.852152369808133
 10
-26.87733523867808
 20
-11.716342580325167
 10
-26.741636006928367
 20
-11.588795155014184
 10
-26.6099649389259
 20
-11.469327501408088
 10
-26.48255686928238
 20
-11.35775126212531
 10
-26.35964105377225
 20
-11.253872454862936
 10
-26.24144104615219
 20
-11.15749161503475
 10
-26.1281745783684
 20
-11.068403940978143
 10
-26.020053444204578
 20
-10.986399441653564
 10
-25.917283386419715
 20
-10.911263086757742
 10
-25.820063987425772
 20
-10.84277495917273
 10
-25.72858856355124
 20
-10.7807104096702
 10
-25.643044062936394
 20
-10.72484021379073
 10
-25.563610967102846
 20
-10.674930730815637
 10
-25.490463196240192
 20
-10.630744064749777
 10
-25.382652128746336
 20
-10.56817705785678
 10
-25.280190569659183
 20
-10.503723839472222
 10
-25.18846402534568
 20
-10.439218025597398
 10
-25.107437262196072
 20
-10.375028634359444
 10
-25.037065178053425
 20
-10.311523325604291
 10
-24.977292841045596
 20
-10.249068164072575
 10
-24.928055533765228
 20
-10.188027383558369
 10
-24.889278802775237
 20
-10.128763152166988
 10
-24.860878513413482
 20
-10.071635338787392
 10
-24.84276090986882
 20
-10.017001280894412
 10
-24.834822680497787
 20
-9.965215553795124
 10
-24.83695102834888
 20
-9.916629741433137
 10
-24.84902374685921
 20
-9.87159220886389
 10
-24.953827607678246
 20
-9.594717840146082
 10
-25.1873317648391
 20
-8.951579859710707
 10
-25.412076579693977
 20
-8.305328808271925
 10
-25.505511117737925
 20
-8.024413781269141
 10
-25.52456881752661
 20
-7.981858711642597
 10
-25.55357975451491
 20
-7.9428269737551975
 10
-25.592418876726747
 20
-7.9076659214023
 10
-25.640951801642714
 20
-7.876719467014832
 10
-25.69903490106947
 20
-7.850327857394594
 10
-25.766515391075867
 20
-7.8288274514175376
 10
-25.843231426951895
 20
-7.812550499814978
 10
-25.929012203144268
 20
-7.801824927141899
 10
-26.02367805812019
 20
-7.796974116040371
 10
-26.12704058410849
 20
-7.7983166939051385
 10
-26.2389027416651
 20
-7.806166322057292
 10
-26.359058979007695
 20
-7.8208314875309135
 10
-26.48217452508831
 20
-7.840335818818716
 10
-26.566801749090455
 20
-7.852222399398593
 10
-26.65991617139727
 20
-7.863636319102647
 10
-26.76153301344855
 20
-7.874283280386491
 10
-26.871659721531074
 20
-7.8838681457942315
 10
-26.99029593865454
 20
-7.892095122607034
 10
-27.11743348057997
 20
-7.898667948277691
 10
-27.25305631601884
 20
-7.903290076560702
 10
-27.397140551022108
 20
-7.905664864247133
 10
-27.549654417573926
 20
-7.905495758413105
 10
-27.710558266405535
 20
-7.902486484090222
 10
-27.879804564039468
 20
-7.896341232266116
 10
-28.057337894075822
 20
-7.886764848122794
 10
-28.243094962727568
 20
-7.87346301942034
 10
-28.437004608611755
 20
-7.856142464933211
 10
-28.638987816800626
 20
-7.834511122846313
 10
-28.848957737134576
 20
-7.808278339017721
 10
-29.0668197067971
 20
-7.77715505501504
 10
-29.292471277150742
 20
-7.74085399583209
 10
-29.525802244829713
 20
-7.699089857192777
 10
-29.766694687081937
 20
-7.651579492349254
 10
-30.01502300135735
 20
-7.598042098280449
 10
-30.27065394912639
 20
-7.538199401199237
 10
-30.53344670392203
 20
-7.47177584127427
 10
-30.930282943505965
 20
-7.363998470645072
 10
-31.219365097588984
 20
-6.209917819651289
 10
-31.31335896935878
 20
-5.57626260671457
 10
-30.982386029002203
 20
-5.311361199672485
 10
-30.76781276301546
 20
-5.145739839908803
 10
-30.557186564443636
 20
-4.989007793643734
 10
-30.350746384250964
 20
-4.840968419703676
 10
-30.148725294902633
 20
-4.701419564601536
 10
-29.951350372706667
 20
-4.570153712825738
 10
-29.758842583716916
 20
-4.446958139532114
 10
-29.571416673240474
 20
-4.331615065555285
 10
-29.38928105900099
 20
-4.223901814661778
 10
-29.212637727998082
 20
-4.123590972959859
 10
-29.041682137106598
 20
-4.0304505503839705
 10
-28.876603117456693
 20
-3.944244144169883
 10
-28.717582782632935
 20
-3.8647311042355588
 10
-28.564796440729243
 20
-3.791666700382088
 10
-28.418412510295056
 20
-3.724802291228844
 10
-28.278592440206012
 20
-3.663885494795811
 10
-28.145490633489814
 20
-3.6086603606455268
 10
-28.0192543751377
 20
-3.558867543496823
 10
-27.90002376392752
 20
-3.514244478221313
 10
-27.787931648285664
 20
-3.474525556134016
 10
-27.683103566210313
 20
-3.439442302488144
 10
-27.58565768927855
 20
-3.4087235550844213
 10
-27.495704770756074
 20
-3.382095643904012
 10
-27.413348097828706
 20
-3.3592825716750094
 10
-27.292654580730765
 20
-3.328122797024966
 10
-27.1766033039863
 20
-3.293703476626702
 10
-27.070874768453876
 20
-3.2563372387973684
 10
-26.975534606980744
 20
-3.216388923385081
 10
-26.890638583359628
 20
-3.1742247248276607
 10
-26.81623256582626
 20
-3.130211953633895
 10
-26.752352505971903
 20
-3.0847187973682724
 10
-26.69902442308031
 20
-3.0381140812572545
 10
-26.656264393895118
 20
-2.9907670285353896
 10
-26.624078547821917
 20
-2.9430470206497326
 10
-26.60246306756621
 20
-2.8953233574409616
 10
-26.591404195206216
 20
-2.8479650174196434
 10
-26.59087824369703
 20
-2.8013404182560513
 10
-26.61709588236427
 20
-2.506457558940398
 10
-26.66842452143212
 20
-1.8241702117754854
 10
-26.710478741862644
 20
-1.141248476996261
 10
-26.72465850652568
 20
-0.8455422045407013
 10
-26.731528274727687
 20
-0.7994234864643457
 10
-26.74893277062121
 20
-0.7540120941696568
 10
-26.776845294429105
 20
-0.7096762392503853
 10
-26.815229233363745
 20
-0.6667833369014377
 10
-26.864038082843333
 20
-0.6256997670730444
 10
-26.92321547311802
 20
-0.5867906361529206
 10
-26.99269520129319
 20
-0.5504195392941739
 10
-27.072401268734932
 20
-0.5169483235065157
 10
-27.162247923840123
 20
-0.4867368516278725
 10
-27.262139710151132
 20
-0.4601427672931916
 10
-27.371971519792652
 20
-0.43752126101672023
 10
-27.49162865220577
 20
-0.41922483750367645
 10
-27.615440945473082
 20
-0.4047897184670776
 10
-27.700136923505553
 20
-0.3934033606071312
 10
-27.792877849128587
 20
-0.37927205072003506
 10
-27.89359897880247
 20
-0.36210829791736227
 10
-28.00222785555282
 20
-0.3416259002565596
 10
-28.11868433170703
 20
-0.3175401301300227
 10
-28.24288059584125
 20
-0.2895679192907
 10
-28.374721203931095
 20
-0.25742804342218273
 10
-28.51410311470001
 20
-0.22084130616071626
 10
-28.660915729155004
 20
-0.1795307224773854
 10
-28.815040934299915
 20
-0.1332217013280046
 10
-28.976353151011153
 20
-0.08164222747955034
 10
-29.144719386062352
 20
-0.02452304242110032
 10
-29.319999288279764
 20
0.03840217573166748
 10
-29.502045208809864
 20
0.10739663342952877
 10
-29.69070226547806
 20
0.18272024407083165
 10
-29.885808411215244
 20
0.2646294516608372
 10
-30.087194506527204
 20
0.3533770558389122
 10
-30.294684395980763
 20
0.44921203836313445
 10
-30.508094988677396
 20
0.552379391140851
 10
-30.727236342682218
 20
0.6631199458926609
 10
-30.951911753380024
 20
0.7816702055394361
 10
-31.181917845718097
 20
0.9082621773963507
 10
-31.417044670304062
 20
1.043123208262608
 10
-31.76940508184598
 20
1.2535616841321362
 10
-31.680231271354863
 20
3.068736296580915
 10
-31.26646321272949
 20
3.24454619485231
 10
-31.0151627974093
 20
3.3461346909829683
 10
-30.770061389616995
 20
3.440228419517243
 10
-30.53133602621314
 20
3.5270811978392134
 10
-30.29915659634558
 20
3.6069505652348504
 10
-30.07368576870187
 20
3.68009760643236
 10
-29.85507892283908
 20
3.746786773789503
 10
-29.643484084610137
 20
3.8072857082199163
 10
-29.439041865715332
 20
3.8618650589471915
 10
-29.24188540739471
 20
3.9107983021793715
 10
-29.052140328281368
 20
3.95436155879481
 10
-28.869924676432436
 20
3.9928334111311705
 10
-28.695348885551645
 20
4.026494718969748
 10
-28.52851573541577
 20
4.055628434807507
 10
-28.369520316515903
 20
4.080519418509044
 10
-28.21844999892212
 20
4.101454251431285
 10
-28.07538440537741
 20
4.118721050113499
 10
-27.940395388626523
 20
4.13260927962539
 10
-27.813547012980735
 20
4.143409566666042
 10
-27.694895540120815
 20
4.151413512506389
 10
-27.584489419135604
 20
4.156913505867894
 10
-27.48236928079373
 20
4.160202535829853
 10
-27.38856793604192
 20
4.161574004857917
 10
-27.30311037872415
 20
4.161321542045697
 10
-27.178485698049176
 20
4.158763106513478
 10
-27.057451695944277
 20
4.160595805389422
 10
-26.9455625709975
 20
4.1680511842526276
 10
-26.842979954825093
 20
4.180795640036501
 10
-26.749856341424017
 20
4.198491602677558
 10
-26.666334997300684
 20
4.220797757638963
 10
-26.5925498766799
 20
4.247369270373123
 10
-26.528625541835027
 20
4.277858012612212
 10
-26.47467708857695
 20
4.311912790374319
 10
-26.430810076938013
 20
4.349179573572285
 10
-26.397120467083955
 20
4.389301727111576
 10
-26.37369456048484
 20
4.4319202433628355
 10
-26.360608946373507
 20
4.476673975894156
 10
-26.30629592056672
 20
4.767695213131531
 10
-26.1716422311948
 20
5.438529795743684
 10
-26.027886888056898
 20
6.10747303295383
 10
-25.96176023106207
 20
6.39603936940032
 10
-25.955932568396953
 20
6.4423013215858616
 10
-25.960439811355545
 20
6.490724413064638
 10
-25.975355592559968
 20
6.540946883013961
 10
-26.000743784357336
 20
6.592605062979138
 10
-26.036658454809487
 20
6.645333612586342
 10
-26.08314382903433
 20
6.698765756206616
 10
-26.1402342559185
 20
6.752533520454234
 10
-26.207954180218454
 20
6.806267972402124
 10
-26.28631812006486
 20
6.859599458396931
 10
-26.375330649882407
 20
6.912157843355798
 10
-26.47498638873482
 20
6.9635727504268745
 10
-26.585269994102333
 20
7.013473800895189
 10
-26.700596443168262
 20
7.060777783513521
 10
-26.779079661998708
 20
7.094592605739939
 10
-26.864568920746006
 20
7.1332210906103
 10
-26.956924312623087
 20
7.17692260047306
 10
-27.055998851196737
 20
7.225953175468638
 10
-27.16163854229826
 20
7.280565361149296
 10
-27.27368245989054
 20
7.341008037584995
 10
-27.391962825859984
 20
7.407526250042021
 10
-27.51630509370263
 20
7.480361041321889
 10
-27.646528036069693
 20
7.559749285846074
 10
-27.78244383613821
 20
7.64592352557298
 10
-27.923858182767564
 20
7.739111807830834
 10
-28.070570369404134
 20
7.839537525151511
 10
-28.222373396691946
 20
7.94741925718792
 10
-28.37905407874691
 20
8.062970614797706
 10
-28.540393153049955
 20
8.186400086374737
 10
-28.706165393912276
 20
8.317910886508898
 10
-28.87613972946447
 20
8.457700807053754
 10
-29.05007936212026
 20
8.6059620706813
 10
-29.227741892462742
 20
8.762881187001131
 10
-29.408879446498613
 20
8.928638811319614
 10
-29.59323880622897
 20
9.10340960611771
 10
-29.78056154347522
 20
9.287362105317436
 10
-29.970584156905613
 20
9.480658581413797
 10
-30.26373674365285
 20
9.78956488032986
 10
-29.649671232923943
 20
11.505763012860905
 10
-29.231649854520274
 20
11.559820440916106
 10
-28.96226009204803
 20
11.589841719392174
 10
-28.700861525186866
 20
11.614318628800435
 10
-28.447556146679624
 20
11.633543338261198
 10
-28.202438062455897
 20
11.647809672348643
 10
-27.965593469190377
 20
11.657412921547692
 10
-27.737100636152412
 20
11.662649652508113
 10
-27.51702989134043
 20
11.663817518189617
 10
-27.305443611904817
 20
11.661215067991133
 10
-27.102396218849346
 20
11.655141557957737
 10
-26.907934176006
 20
11.645896761158196
 10
-26.722095993274536
 20
11.633780778326056
 10
-26.544912234115237
 20
11.619093848856737
 10
-26.37640552728188
 20
11.602136162252979
 10
-26.216590582780494
 20
11.583207670110339
 10
-26.065474212037188
 20
11.562607898734434
 10
-25.92305535225563
 20
11.540635762480665
 10
-25.789325094944726
 20
11.517589377907269
 10
-25.664266718592273
 20
11.493765878831285
 10
-25.547855725461936
 20
11.469461232377318
 10
-25.44005988248594
 20
11.444970056107627
 10
-25.340839266226226
 20
11.420585436321856
 10
-25.250146311872726
 20
11.396598747613815
 10
-25.167925866248506
 20
11.373299473772217
 10
-25.048612864442177
 20
11.337212575517094
 10
-24.931572675219247
 20
11.30632272997913
 10
-24.821821265396732
 20
11.283314318532012
 10
-24.719604277882315
 20
11.267909716703988
 10
-24.625159627095055
 20
11.259825014833238
 10
-24.538717352390655
 20
11.258770208092663
 10
-24.46049947585543
 20
11.26444938975245
 10
-24.390719864538347
 20
11.276560947584452
 10
-24.32958409718778
 20
11.294797763310427
 10
-24.27728933555814
 20
11.318847414995098
 10
-24.234024200348898
 20
11.348392382283539
 10
-24.199968651836723
 20
11.383110254381123
 10
-24.175293875259186
 20
11.422673940673027
 10
-24.044478333636892
 20
11.6882498419998
 10
-23.733828963966282
 20
12.297878927930864
 10
-23.41492573342356
 20
12.903231207879736
 10
-23.273396966410846
 20
13.16325596324607
 10
-23.255304083958695
 20
13.206230112181546
 10
-23.246579792391387
 20
13.254073583670332
 10
-23.247392595735562
 20
13.306457897806078
 10
-23.257902114353296
 20
13.363050104499916
 10
-23.278258978969255
 20
13.423512998578627
 10
-23.30860472959444
 20
13.487505337242528
 10
-23.349071719396935
 20
13.554682059775926
 10
-23.39978302356781
 20
13.624694509401834
 10
-23.46085235322819
 20
13.697190657171884
 10
-23.532383974420938
 20
13.77181532778115
 10
-23.61447263222823
 20
13.84821042719692
 10
-23.707203480053956
 20
13.926015171989384
 10
-23.80549084977468
 20
14.00267969819997
 10
-23.871940568099284
 20
14.056415094120844
 10
-23.94383781273689
 20
14.116675855965196
 10
-24.020977889899456
 20
14.183673981822626
 10
-24.10315018500625
 20
14.257616360705514
 10
-24.190138278435516
 20
14.338704625962484
 10
-24.28172006468486
 20
14.427135011190169
 10
-24.377667874886615
 20
14.52309820871834
 10
-24.477748602625127
 20
14.626779230744381
 10
-24.581723832999216
 20
14.738357273190113
 10
-24.68934997487367
 20
14.858005582354915
 10
-24.80037839625923
 20
14.985891324435128
 10
-24.914555562761933
 20
15.122175457981445
 10
-25.031623179038846
 20
15.267012609362439
 10
-25.151318333197086
 20
15.42055095130252
 10
-25.27337364407108
 20
15.582932084560673
 10
-25.397517411311316
 20
15.754290922814915
 10
-25.52347376821668
 20
15.934755580816075
 10
-25.650962837241494
 20
16.12444726587384
 10
-25.77970088810632
 20
16.323480172735533
 10
-25.909400498439567
 20
16.53196138191566
 10
-26.039770716879232
 20
16.74999076153809
 10
-26.1705172285566
 20
16.977660872741673
 10
-26.301342522888906
 20
17.21505687870861
 10
-26.510500154947586
 20
17.61093954954186
 10
-26.4664997657304
 20
17.68434976395718
 10
-25.433847817893817
 20
19.076719732572847
 10
-25.02885875250122
 20
19.017755687536845
 10
-24.76135904918333
 20
18.973983207471964
 10
-24.503050059138523
 20
18.927027957357808
 10
-24.253951166656776
 20
18.877198789203856
 10
-24.014073715043136
 20
18.824804021247978
 10
-23.783421036146386
 20
18.770151249387414
 10
-23.56198848407452
 20
18.71354715957223
 10
-23.349763473065543
 20
18.655297341249856
 10
-23.146725519492033
 20
18.595706101951418
 10
-22.952846287964615
 20
18.535076283107163
 10
-22.768089641504307
 20
18.473709077179134
 10
-22.59241169575039
 20
18.411903846198218
 10
-22.425760877167665
 20
18.349957941791512
 10
-22.26807798521576
 20
18.288166526785382
 10
-22.119296258441807
 20
18.226822398468695
 10
-21.97934144445561
 20
18.166215813599912
 10
-21.848131873744272
 20
18.106634315240267
 10
-21.725578537282882
 20
18.0483625614952
 10
-21.611585167893818
 20
17.991682156243787
 10
-21.506048325308683
 20
17.936871481936638
 10
-21.40885748488227
 20
17.884205534539998
 10
-21.31989512990858
 20
17.833955760703795
 10
-21.23903684748513
 20
17.786389897229327
 10
-21.166151427872894
 20
17.741771812912095
 10
-21.060999004458523
 20
17.674832852091075
 10
-20.956632963528993
 20
17.613511420671113
 10
-20.857159028817982
 20
17.561745647534227
 10
-20.762888636313896
 20
17.519334476940525
 10
-20.674127475833814
 20
17.486068715910672
 10
-20.59117529861608
 20
17.461731177658645
 10
-20.514325728246053
 20
17.44609682932088
 10
-20.443866075007666
 20
17.438932943908085
 10
-20.38007715375148
 20
17.439999256403414
 10
-20.32323310536859
 20
17.449048123929174
 10
-20.27360122195781
 20
17.465824689902213
 10
-20.231441775771955
 20
17.49006705209634
 10
-20.197007852027376
 20
17.52150643452838
 10
-20.0
 20
17.741262006938076
 10
-20.0
 20
21.49240230864468
 10
-20.05822436649931
 20
21.63445956807579
 10
-20.131943629902622
 20
21.823749297205563
 10
-20.205251748224516
 20
22.022247272461094
 10
-20.27784851970337
 20
22.230002429805488
 10
-20.349431744071317
 20
22.447055971794455
 10
-20.419697403163234
 20
22.67344130901104
 10
-20.48833984303168
 20
22.909184005505992
 10
-20.555051957483045
 20
23.154301728284203
 10
-20.61952537294592
 20
23.408804200865127
 10
-20.681450634585406
 20
23.672693160954534
 10
-20.77012539934404
 20
24.08294215732808
 10
-20.19336540778916
 20
24.60568694287735
 10
-20.0
 20
24.749096503194295
 10
-20.0
 20
100.0
 10
20.0
 20
100.0
 10
20.0
 20
24.74909650319429
 10
20.193365407789155
 20
24.605686942877348
 10
20.770125399344053
 20
24.082942157328052
 10
20.681450634585435
 20
23.672693160954548
 10
20.619525372945944
 20
23.40880420086514
 10
20.55505195748307
 20
23.154301728284217
 10
20.488339843031703
 20
22.909184005506017
 10
20.41969740316327
 20
22.673441309011057
 10
20.349431744071342
 20
22.447055971794466
 10
20.277848519703397
 20
22.230002429805502
 10
20.205251748224544
 20
22.022247272461104
 10
20.131943629902654
 20
21.823749297205577
 10
20.058224366499328
 20
21.6344595680758
 10
20.0
 20
21.49240230864463
 10
20.0
 20
17.741262006938115
 10
20.1970078520274
 20
17.521506434528387
 10
20.231441775771973
 20
17.490067052096347
 10
20.27360122195784
 20
17.465824689902224
 10
20.323233105368615
 20
17.449048123929188
 10
20.380077153751508
 20
17.43999925640343
 10
20.443866075007687
 20
17.43893294390809
 10
20.514325728246085
 20
17.446096829320883
 10
20.5911752986161
 20
17.461731177658656
 10
20.67412747583384
 20
17.486068715910687
 10
20.762888636313924
 20
17.519334476940536
 10
20.857159028818014
 20
17.561745647534245
 10
20.956632963529014
 20
17.613511420671124
 10
21.060999004458548
 20
17.67483285209109
 10
21.166151427872922
 20
17.741771812912102
 10
21.23903684748515
 20
17.786389897229334
 10
21.31989512990861
 20
17.833955760703812
 10
21.408857484882297
 20
17.884205534540005
 10
21.506048325308704
 20
17.93687148193664
 10
21.611585167893846
 20
17.991682156243797
 10
21.72557853728291
 20
18.04836256149521
 10
21.8481318737443
 20
18.106634315240278
 10
21.979341444455635
 20
18.166215813599912
 10
22.11929625844183
 20
18.226822398468702
 10
22.268077985215793
 20
18.288166526785393
 10
22.425760877167697
 20
18.349957941791523
 10
22.592411695750428
 20
18.411903846198232
 10
22.768089641504336
 20
18.473709077179144
 10
22.952846287964647
 20
18.53507628310717
 10
23.146725519492062
 20
18.59570610195142
 10
23.349763473065575
 20
18.655297341249863
 10
23.56198848407455
 20
18.71354715957224
 10
23.78342103614642
 20
18.770151249387432
 10
24.014073715043157
 20
18.82480402124799
 10
24.253951166656808
 20
18.877198789203874
 10
24.503050059138552
 20
18.927027957357815
 10
24.761359049183362
 20
18.97398320747197
 10
25.02885875250125
 20
19.017755687536855
 10
25.43384781789382
 20
19.076719732572858
 10
26.466499765730404
 20
17.684349763957176
 10
26.51050015494761
 20
17.610939549541847
 10
26.301342522888934
 20
17.215056878708612
 10
26.170517228556626
 20
16.977660872741676
 10
26.039770716879257
 20
16.749990761538097
 10
25.90940049843959
 20
16.531961381915675
 10
25.77970088810635
 20
16.32348017273554
 10
25.65096283724152
 20
16.124447265873844
 10
25.523473768216707
 20
15.93475558081608
 10
25.397517411311345
 20
15.754290922814915
 10
25.27337364407111
 20
15.582932084560676
 10
25.151318333197104
 20
15.420550951302525
 10
25.031623179038878
 20
15.26701260936245
 10
24.914555562761958
 20
15.122175457981449
 10
24.800378396259255
 20
14.985891324435132
 10
24.689349974873693
 20
14.858005582354918
 10
24.581723832999252
 20
14.738357273190118
 10
24.477748602625155
 20
14.626779230744386
 10
24.37766787488665
 20
14.523098208718348
 10
24.28172006468488
 20
14.427135011190169
 10
24.190138278435548
 20
14.33870462596249
 10
24.10315018500627
 20
14.257616360705518
 10
24.02097788989949
 20
14.183673981822622
 10
23.94383781273692
 20
14.11667585596521
 10
23.8719405680993
 20
14.056415094120846
 10
23.805490849774714
 20
14.002679698199971
 10
23.707203480053984
 20
13.926015171989388
 10
23.614472632228264
 20
13.84821042719693
 10
23.53238397442096
 20
13.77181532778116
 10
23.460852353228226
 20
13.697190657171888
 10
23.399783023567824
 20
13.624694509401841
 10
23.349071719396964
 20
13.554682059775931
 10
23.308604729594478
 20
13.487505337242533
 10
23.278258978969287
 20
13.423512998578628
 10
23.25790211435332
 20
13.363050104499923
 10
23.247392595735587
 20
13.306457897806078
 10
23.246579792391415
 20
13.254073583670333
 10
23.25530408395872
 20
13.206230112181556
 10
23.273396966410886
 20
13.163255963246078
 10
23.41492573342358
 20
12.903231207879738
 10
23.733828963966307
 20
12.297878927930858
 10
24.04447833363692
 20
11.688249841999795
 10
24.175293875259207
 20
11.422673940673027
 10
24.199968651836738
 20
11.383110254381123
 10
24.234024200348927
 20
11.34839238228354
 10
24.277289335558166
 20
11.318847414995105
 10
24.32958409718781
 20
11.29479776331043
 10
24.390719864538365
 20
11.276560947584448
 10
24.460499475855457
 20
11.264449389752443
 10
24.538717352390673
 20
11.258770208092667
 10
24.62515962709508
 20
11.259825014833243
 10
24.719604277882343
 20
11.26790971670399
 10
24.821821265396764
 20
11.28331431853202
 10
24.931572675219268
 20
11.306322729979133
 10
25.048612864442198
 20
11.337212575517098
 10
25.16792586624853
 20
11.373299473772217
 10
25.250146311872744
 20
11.396598747613815
 10
25.340839266226254
 20
11.420585436321863
 10
25.44005988248597
 20
11.444970056107625
 10
25.547855725461954
 20
11.469461232377315
 10
25.664266718592298
 20
11.493765878831285
 10
25.789325094944754
 20
11.517589377907273
 10
25.923055352255655
 20
11.540635762480665
 10
26.06547421203721
 20
11.562607898734427
 10
26.216590582780515
 20
11.583207670110339
 10
26.376405527281907
 20
11.602136162252979
 10
26.544912234115266
 20
11.619093848856739
 10
26.722095993274575
 20
11.633780778326056
 10
26.907934176006027
 20
11.645896761158198
 10
27.102396218849375
 20
11.655141557957736
 10
27.305443611904842
 20
11.661215067991128
 10
27.517029891340464
 20
11.663817518189614
 10
27.73710063615244
 20
11.662649652508115
 10
27.96559346919041
 20
11.657412921547698
 10
28.20243806245592
 20
11.647809672348645
 10
28.447556146679656
 20
11.633543338261207
 10
28.70086152518689
 20
11.614318628800431
 10
28.96226009204806
 20
11.589841719392172
 10
29.231649854520303
 20
11.559820440916106
 10
29.64967123292395
 20
11.505763012860914
 10
30.26373674365286
 20
9.78956488032984
 10
29.970584156905637
 20
9.480658581413794
 10
29.78056154347524
 20
9.287362105317433
 10
29.593238806228996
 20
9.103409606117708
 10
29.408879446498634
 20
8.928638811319619
 10
29.22774189246277
 20
8.762881187001128
 10
29.050079362120282
 20
8.605962070681297
 10
28.876139729464494
 20
8.457700807053751
 10
28.7061653939123
 20
8.317910886508889
 10
28.540393153049983
 20
8.186400086374732
 10
28.37905407874693
 20
8.062970614797704
 10
28.222373396691975
 20
7.947419257187921
 10
28.070570369404155
 20
7.839537525151506
 10
27.923858182767585
 20
7.73911180783083
 10
27.78244383613823
 20
7.645923525572976
 10
27.64652803606972
 20
7.559749285846069
 10
27.516305093702655
 20
7.480361041321886
 10
27.391962825860016
 20
7.407526250042019
 10
27.27368245989056
 20
7.341008037584989
 10
27.161638542298288
 20
7.280565361149295
 10
27.055998851196755
 20
7.225953175468636
 10
26.956924312623116
 20
7.176922600473046
 10
26.864568920746034
 20
7.133221090610306
 10
26.779079661998725
 20
7.094592605739935
 10
26.70059644316829
 20
7.0607777835135135
 10
26.585269994102358
 20
7.013473800895184
 10
26.474986388734848
 20
6.963572750426875
 10
26.375330649882425
 20
6.912157843355801
 10
26.286318120064887
 20
6.859599458396924
 10
26.20795418021847
 20
6.806267972402126
 10
26.140234255918525
 20
6.752533520454231
 10
26.083143829034366
 20
6.69876575620661
 10
26.036658454809515
 20
6.645333612586333
 10
26.00074378435736
 20
6.592605062979137
 10
25.97535559255999
 20
6.540946883013955
 10
25.96043981135557
 20
6.490724413064632
 10
25.955932568396978
 20
6.442301321585864
 10
25.961760231062105
 20
6.396039369400317
 10
26.027886888056916
 20
6.107473032953825
 10
26.171642231194816
 20
5.438529795743672
 10
26.30629592056674
 20
4.7676952131315185
 10
26.360608946373528
 20
4.476673975894149
 10
26.37369456048485
 20
4.431920243362831
 10
26.397120467083976
 20
4.389301727111569
 10
26.430810076938034
 20
4.349179573572284
 10
26.474677088576975
 20
4.311912790374315
 10
26.52862554183504
 20
4.277858012612202
 10
26.592549876679925
 20
4.247369270373108
 10
26.666334997300694
 20
4.220797757638962
 10
26.74985634142404
 20
4.198491602677556
 10
26.842979954825115
 20
4.180795640036496
 10
26.945562570997527
 20
4.168051184252626
 10
27.057451695944295
 20
4.160595805389419
 10
27.178485698049194
 20
4.158763106513476
 10
27.303110378724174
 20
4.161321542045689
 10
27.388567936041934
 20
4.16157400485791
 10
27.48236928079375
 20
4.1602025358298516
 10
27.584489419135622
 20
4.156913505867884
 10
27.694895540120832
 20
4.15141351250638
 10
27.813547012980756
 20
4.143409566666035
 10
27.94039538862655
 20
4.1326092796253855
 10
28.07538440537743
 20
4.118721050113492
 10
28.21844999892214
 20
4.101454251431271
 10
28.36952031651592
 20
4.080519418509037
 10
28.528515735415795
 20
4.055628434807499
 10
28.69534888555167
 20
4.026494718969741
 10
28.86992467643247
 20
3.9928334111311594
 10
29.05214032828139
 20
3.9543615587948038
 10
29.241885407394737
 20
3.910798302179362
 10
29.43904186571535
 20
3.86186505894718
 10
29.643484084610158
 20
3.8072857082199043
 10
29.855078922839105
 20
3.746786773789496
 10
30.0736857687019
 20
3.6800976064323545
 10
30.299156596345597
 20
3.6069505652348455
 10
30.531336026213168
 20
3.527081197839212
 10
30.770061389617016
 20
3.4402284195172337
 10
31.01516279740932
 20
3.346134690982958
 10
31.266463212729516
 20
3.2445461948523007
 10
31.680231271354863
 20
3.068736296580916
 10
31.76940508184599
 20
1.2535616841321067
 10
31.41704467030408
 20
1.0431232082625974
 10
31.181917845718115
 20
0.9082621773963424
 10
30.951911753380042
 20
0.7816702055394286
 10
30.727236342682236
 20
0.6631199458926604
 10
30.508094988677417
 20
0.5523793911408406
 10
30.29468439598078
 20
0.449212038363126
 10
30.087194506527222
 20
0.35337705583890344
 10
29.88580841121526
 20
0.2646294516608211
 10
29.69070226547808
 20
0.18272024407081783
 10
29.50204520880988
 20
0.1073966334295223
 10
29.319999288279785
 20
0.03840217573166139
 10
29.144719386062366
 20
-0.024523042421110718
 10
28.976353151011168
 20
-0.08164222747955903
 10
28.815040934299933
 20
-0.1332217013280133
 10
28.660915729155025
 20
-0.1795307224773985
 10
28.51410311470003
 20
-0.22084130616072623
 10
28.37472120393112
 20
-0.25742804342219283
 10
28.242880595841264
 20
-0.2895679192907108
 10
28.11868433170705
 20
-0.3175401301300305
 10
28.002227855552835
 20
-0.34162590025656664
 10
27.89359897880249
 20
-0.36210829791738314
 10
27.79287784912861
 20
-0.3792720507200372
 10
27.700136923505568
 20
-0.3934033606071395
 10
27.615440945473104
 20
-0.4047897184670921
 10
27.491628652205787
 20
-0.4192248375036863
 10
27.371971519792677
 20
-0.43752126101672684
 10
27.262139710151146
 20
-0.46014276729319403
 10
27.162247923840145
 20
-0.4867368516278861
 10
27.072401268734943
 20
-0.5169483235065178
 10
26.99269520129321
 20
-0.5504195392941821
 10
26.923215473118045
 20
-0.5867906361529348
 10
26.864038082843354
 20
-0.6256997670730594
 10
26.815229233363763
 20
-0.6667833369014453
 10
26.77684529442912
 20
-0.7096762392503969
 10
26.74893277062123
 20
-0.754012094169669
 10
26.731528274727708
 20
-0.7994234864643494
 10
26.72465850652571
 20
-0.8455422045407145
 10
26.710478741862655
 20
-1.1412484769962694
 10
26.668424521432133
 20
-1.8241702117755025
 10
26.617095882364286
 20
-2.5064575589404154
 10
26.590878243697045
 20
-2.801340418256063
 10
26.591404195206227
 20
-2.847965017419652
 10
26.602463067566227
 20
-2.8953233574409754
 10
26.624078547821934
 20
-2.943047020649739
 10
26.656264393895135
 20
-2.9907670285353998
 10
26.699024423080314
 20
-3.0381140812572673
 10
26.752352505971917
 20
-3.084718797368293
 10
26.81623256582627
 20
-3.130211953633899
 10
26.890638583359646
 20
-3.17422472482767
 10
26.97553460698076
 20
-3.2163889233850913
 10
27.0708747684539
 20
-3.2563372387973777
 10
27.176603303986315
 20
-3.2937034766267095
 10
27.29265458073078
 20
-3.328122797024972
 10
27.41334809782872
 20
-3.3592825716750236
 10
27.49570477075608
 20
-3.3820956439040204
 10
27.585657689278566
 20
-3.4087235550844293
 10
27.683103566210324
 20
-3.439442302488157
 10
27.787931648285678
 20
-3.474525556134029
 10
27.900023763927535
 20
-3.5142444782213254
 10
28.01925437513772
 20
-3.5588675434968327
 10
28.14549063348983
 20
-3.6086603606455383
 10
28.278592440206022
 20
-3.6638854947958293
 10
28.418412510295067
 20
-3.7248022912288556
 10
28.564796440729264
 20
-3.7916667003821023
 10
28.717582782632956
 20
-3.864731104235573
 10
28.876603117456717
 20
-3.9442441441699017
 10
29.041682137106616
 20
-4.030450550383983
 10
29.2126377279981
 20
-4.1235909729598745
 10
29.389281059001
 20
-4.223901814661793
 10
29.57141667324049
 20
-4.331615065555303
 10
29.758842583716937
 20
-4.446958139532125
 10
29.95135037270669
 20
-4.570153712825751
 10
30.148725294902647
 20
-4.701419564601546
 10
30.35074638425099
 20
-4.840968419703684
 10
30.557186564443654
 20
-4.989007793643749
 10
30.767812763015474
 20
-5.145739839908818
 10
30.98238602900222
 20
-5.3113611996725005
 10
31.313358969358784
 20
-5.576262606714575
 10
31.219365097588994
 20
-6.209917819651306
 10
30.93028294350596
 20
-7.363998470645087
 10
30.533446703922046
 20
-7.471775841274285
 10
30.2706539491264
 20
-7.538199401199249
 10
30.01502300135736
 20
-7.5980420982804615
 10
29.76669468708195
 20
-7.651579492349257
 10
29.525802244829727
 20
-7.699089857192791
 10
29.292471277150753
 20
-7.740853995832103
 10
29.066819706797112
 20
-7.777155055015053
 10
28.848957737134587
 20
-7.8082783390177415
 10
28.63898781680064
 20
-7.834511122846331
 10
28.437004608611765
 20
-7.856142464933221
 10
28.243094962727582
 20
-7.87346301942035
 10
28.05733789407583
 20
-7.886764848122807
 10
27.879804564039475
 20
-7.896341232266127
 10
27.710558266405542
 20
-7.902486484090234
 10
27.54965441757394
 20
-7.905495758413123
 10
27.397140551022122
 20
-7.905664864247147
 10
27.253056316018856
 20
-7.903290076560717
 10
27.117433480579972
 20
-7.898667948277703
 10
26.990295938654555
 20
-7.892095122607047
 10
26.871659721531085
 20
-7.883868145794241
 10
26.76153301344856
 20
-7.874283280386515
 10
26.659916171397292
 20
-7.863636319102656
 10
26.566801749090466
 20
-7.852222399398604
 10
26.482174525088322
 20
-7.840335818818735
 10
26.359058979007706
 20
-7.820831487530927
 10
26.238902741665118
 20
-7.8061663220573045
 10
26.127040584108496
 20
-7.798316693905144
 10
26.023678058120204
 20
-7.7969741160403885
 10
25.929012203144275
 20
-7.801824927141903
 10
25.84323142695191
 20
-7.81255049981499
 10
25.766515391075885
 20
-7.828827451417556
 10
25.699034901069485
 20
-7.850327857394613
 10
25.640951801642725
 20
-7.876719467014843
 10
25.592418876726754
 20
-7.907665921402314
 10
25.553579754514924
 20
-7.9428269737552135
 10
25.524568817526628
 20
-7.981858711642606
 10
25.505511117737946
 20
-8.02441378126916
 10
25.41207657969398
 20
-8.305328808271934
 10
25.187331764839104
 20
-8.951579859710726
 10
24.953827607678257
 20
-9.594717840146101
 10
24.849023746859217
 20
-9.871592208863904
 10
24.83695102834889
 20
-9.916629741433148
 10
24.834822680497798
 20
-9.965215553795142
 10
24.842760909868833
 20
-10.017001280894423
 10
24.860878513413493
 20
-10.071635338787404
 10
24.889278802775237
 20
-10.128763152167
 10
24.928055533765235
 20
-10.188027383558392
 10
24.9772928410456
 20
-10.24906816407258
 10
25.03706517805344
 20
-10.311523325604304
 10
25.10743726219608
 20
-10.375028634359456
 10
25.188464025345702
 20
-10.439218025597413
 10
25.28019056965919
 20
-10.503723839472231
 10
25.382652128746347
 20
-10.568177057856788
 10
25.490463196240196
 20
-10.630744064749793
 10
25.563610967102846
 20
-10.674930730815646
 10
25.643044062936404
 20
-10.72484021379074
 10
25.728588563551245
 20
-10.780710409670213
 10
25.82006398742578
 20
-10.842774959172745
 10
25.917283386419722
 20
-10.911263086757756
 10
26.020053444204596
 20
-10.986399441653578
 10
26.12817457836841
 20
-11.068403940978158
 10
26.241441046152193
 20
-11.157491615034768
 10
26.359641053772258
 20
-11.25387245486295
 10
26.482556869282394
 20
-11.357751262125328
 10
26.609964938925913
 20
-11.469327501408106
 10
26.74163600692839
 20
-11.588795155014207
 10
26.87733523867809
 20
-11.71634258032518
 10
27.01682234724108
 20
-11.85215236980815
 10
27.159851723155253
 20
-11.99640121374234
 10
27.306172567446268
 20
-12.149259765738647
 10
27.455529027806673
 20
-12.310892511124477
 10
27.607660337878546
 20
-12.481457638265644
 10
27.762300959577676
 20
-12.66110691289483
 10
27.919180728394814
 20
-12.84998555551408
 10
28.07802500161239
 20
-13.048232121942169
 10
28.238554809366395
 20
-13.255978387067954
 10
28.40048700848883
 20
-13.473349231878293
 10
28.63943421499289
 20
-13.806185443213224
 10
28.072425727779002
 20
-15.005024164649392
 10
27.814137158608528
 20
-15.435952608264694
 10
27.385322676734358
 20
-15.432527457763907
 10
27.11435412815537
 20
-15.425587215175513
 10
26.85205730291762
 20
-15.414242378400633
 10
26.59849346010797
 20
-15.398796283290658
 10
26.35371582004059
 20
-15.379552831810916
 10
26.117769567833875
 20
-15.356816301207168
 10
25.89069186126604
 20
-15.330891153555543
 10
25.672511842890625
 20
-15.302081845787908
 10
25.46325065640261
 20
-15.270692640285517
 10
25.26292146723274
 20
-15.237027416132223
 10
25.07152948735209
 20
-15.201389481118573
 10
24.88907200426586
 20
-15.164081384587671
 10
24.715538414172205
 20
-15.125404731212996
 10
24.55091025926079
 20
-15.085659995797618
 10
24.395161269124202
 20
-15.045146339183995
 10
24.248257406253195
 20
-15.004161425362614
 10
24.110156915584252
 20
-14.96300123986706
 10
23.980810378067655
 20
-14.921959909542435
 10
23.860160768220087
 20
-14.881329523773118
 10
23.74814351562683
 20
-14.841399957255263
 10
23.64468657035444
 20
-14.802458694398444
 10
23.549710472234604
 20
-14.764790655439889
 10
23.463128423976357
 20
-14.728678024353924
 10
23.384846368064984
 20
-14.694400078638354
 10
23.27155848600772
 20
-14.64240284405138
 10
23.159814582181145
 20
-14.595863737825606
 10
23.054218381200084
 20
-14.558125146255204
 10
22.955051041234963
 20
-14.528945479049346
 10
22.8625869197844
 20
-14.508075866905328
 10
22.777093402590648
 20
-14.495260329804905
 10
22.698830736442176
 20
-14.490235949113021
 10
22.628051865945142
 20
-14.492733043393505
 10
22.565002274343197
 20
-14.502475347853627
 10
22.509919828463556
 20
-14.519180197328307
 10
22.463034627865078
 20
-14.54255871271293
 10
22.424568858262223
 20
-14.572315990752246
 10
22.39473664929701
 20
-14.608151297091277
 10
22.228976950124284
 20
-14.853440896189213
 10
21.838209835623726
 20
-15.41509178020419
 10
21.439848095496057
 20
-15.971381792061624
 10
21.264230835436404
 20
-16.209713164869736
 10
21.240454825209465
 20
-16.249823403086978
 10
21.225297106970853
 20
-16.296033300352054
 10
21.21896934329975
 20
-16.348040380866838
 10
21.221675004543485
 20
-16.4055365306274
 10
21.233609234542513
 20
-16.468208196088717
 10
21.254958720885117
 20
-16.535736585833995
 10
21.285901569756202
 20
-16.607797875149018
 10
21.326607185442878
 20
-16.684063413401237
 10
21.37723615455705
 20
-16.76419993412121
 10
21.437940135033124
 20
-16.84786976768364
 10
21.508861749956974
 20
-16.934731056483315
 10
21.590134486279773
 20
-17.024437972500436
 10
21.67706725049633
 20
-17.113771902960153
 10
21.73558108375817
 20
-17.176055039981303
 10
21.79860316756706
 20
-17.245544536719514
 10
21.865901847594433
 20
-17.32242254423549
 10
21.93724029955159
 20
-17.4068653458845
 10
22.012376663823396
 20
-17.499043227856582
 10
22.09106418313878
 20
-17.599120352656048
 10
22.17305134321465
 20
-17.70725463558722
 10
22.258082016310112
 20
-17.82359762431436
 10
22.34589560762507
 20
-17.948294381560647
 10
22.4362272044772
 20
-18.081483371011426
 10
22.52880772818822
 20
-18.223296346483238
 10
22.623364088610717
 20
-18.373858244421296
 10
22.71961934122403
 20
-18.533287079784493
 10
22.817292846727472
 20
-18.701693845377036
 10
22.916100433057217
 20
-18.87918241468345
 10
23.015754559752022
 20
-19.06584944826233
 10
23.115964484591785
 20
-19.26178430375251
 10
23.21643643243219
 20
-19.467068949544696
 10
23.316873766156835
 20
-19.68177788216877
 10
23.41697715966679
 20
-19.905978047444357
 10
23.516444772828923
 20
-20.139728765446193
 10
23.61497242829901
 20
-20.38308165932424
 10
23.712253790138742
 20
-20.636080588027102
 10
23.853397492994183
 20
-21.023388908273297
 10
22.63148372671721
 20
-22.371562994368077
 10
22.2061545461284
 20
-22.248719111826617
 10
21.947106701415542
 20
-22.168929792768147
 10
21.697597354308837
 20
-22.087238816781593
 10
21.45760365320874
 20
-22.00395479870597
 10
21.227094853106816
 20
-21.919384729666273
 10
21.006032370516248
 20
-21.833833794281638
 10
20.794369842418966
 20
-21.7476051893971
 10
20.592053189186394
 20
-21.660999944422453
 10
20.399020681439904
 20
-21.574316743365134
 10
20.215203010804704
 20
-21.487851748638953
 10
20.04052336451529
 20
-21.401898426731783
 10
19.87489750382764
 20
-21.316747375814035
 10
19.718233846190582
 20
-21.232686155368246
 10
19.570433551127767
 20
-21.149999117919076
 10
19.431390609780408
 20
-21.06896724294233
 10
19.300991938058903
 20
-20.98986797303017
 10
19.17911747334949
 20
-20.912975052388376
 10
19.065640274721748
 20
-20.838558367740724
 10
18.96042662657918
 20
-20.76688379171361
 10
18.863336145696145
 20
-20.698213028773722
 10
18.77422189158072
 20
-20.63280346378948
 10
18.69293048010312
 20
-20.57090801328597
 10
18.619302200326253
 20
-20.512774979461444
 10
18.55317113447602
 20
-20.45864790703273
 10
18.458112960396722
 20
-20.378014166164387
 10
18.36306892423863
 20
-20.303052711792983
 10
18.27157026698942
 20
-20.238224055498545
 10
18.18395290099229
 20
-20.183371421380148
 10
18.100548153959867
 20
-20.138329189651195
 10
18.021682558828175
 20
-20.10292301253682
 10
17.947677646327616
 20
-20.07696993488139
 10
17.878849740372925
 20
-20.060278519405966
 10
17.81550975637222
 20
-20.05264897655225
 10
17.757963002554384
 20
-20.053873298848202
 10
17.70650898441212
 20
-20.063735399728063
 10
17.661441212356966
 20
-20.082011256737616
 10
17.623047012680896
 20
-20.108469059053576
 10
17.397255790966888
 20
-20.29994122280683
 10
16.869447786062555
 20
-20.735336862712426
 10
16.33577313084963
 20
-21.163521420669923
 10
16.102367200332484
 20
-21.34563384994065
 10
16.068651256299457
 20
-21.377842000929448
 10
16.041588346293135
 20
-21.41824880641367
 10
16.021463890863785
 20
-21.466620113098735
 10
16.008556943289726
 20
-21.522714128326523
 10
16.00314000668248
 20
-21.586281575146085
 10
16.00547885464306
 20
-21.657065851499667
 10
16.01583235555821
 20
-21.734803193445494
 10
16.034452300624046
 20
-21.819222842337666
 10
16.061583235682672
 20
-21.91004721588084
 10
16.097462296955516
 20
-22.006992082976442
 10
16.142319050755628
 20
-22.109766742274658
 10
16.196375337259035
 20
-22.21807420434519
 10
16.25598239276729
 20
-22.327549569424956
 10
16.29552258509827
 20
-22.40330992205494
 10
16.33745959723323
 20
-22.487225714476487
 10
16.381521221446484
 20
-22.57940984350499
 10
16.427431854856305
 20
-22.679968161002286
 10
16.474912663993926
 20
-22.78899938554132
 10
16.52368175150365
 20
-22.906595017720434
 10
16.573454324895046
 20
-23.03283925917462
 10
16.62394286726815
 20
-23.167808935332157
 10
16.674857309930612
 20
-23.3115734219613
 10
16.72590520682577
 20
-23.464194575552
 10
16.776791910688363
 20
-23.625726667573296
 10
16.827220750844912
 20
-23.796216322648096
 10
16.876893212573986
 20
-23.97570246068302
 10
16.925509117941246
 20
-24.164216242990825
 10
16.972766808023117
 20
-24.361781022440184
 10
17.01836332643205
 20
-24.56841229766595
 10
17.061994604055712
 20
-24.784117671371092
 10
17.103355644921898
 20
-25.00889681275066
 10
17.142140713099934
 20
-25.242741424064903
 10
17.178043520548623
 20
-25.485635211385844
 10
17.210757415821135
 20
-25.737553859545613
 10
17.239975573535112
 20
-25.9984650113024
 10
17.26539118451711
 20
-26.26832825074898
 10
17.298226373727807
 20
-26.697933219388975
 10
15.735264439739971
 20
-27.634736550844174
 10
15.38005751923356
 20
-27.41482505048254
 10
15.152142771964156
 20
-27.268104263736717
 10
14.933925869834086
 20
-27.122125794516062
 10
14.725301545356006
 20
-26.97718064809643
 10
14.526157368415506
 20
-26.833556136635128
 10
14.336373848481262
 20
-26.691535717977597
 10
14.15582454027187
 20
-26.551398837014812
 10
13.984376152815301
 20
-26.41342076966029
 10
13.821888661844929
 20
-26.27787246952121
 10
13.66821542546552
 20
-26.14502041732995
 10
13.523203303026424
 20
-26.01512647320483
 10
13.38669277713666
 20
-25.888447731806668
 10
13.258518078754594
 20
-25.765236380455733
 10
13.13850731528383
 20
-25.64573956027235
 10
13.026482601606299
 20
-25.53019923040334
 10
12.922260193981648
 20
-25.418852035394707
 10
12.825650626740684
 20
-25.31192917576897
 10
12.736458851700379
 20
-25.20965628186493
 10
12.654484380225137
 20
-25.11225329099458
 10
12.579521427860023
 20
-25.019934327972074
 10
12.511359061458709
 20
-24.93290758906644
 10
12.449781348729177
 20
-24.851375229428974
 10
12.394567510117772
 20
-24.775533254043722
 10
12.345492072953297
 20
-24.70557141224902
 10
12.275713636761218
 20
-24.602281400784694
 10
12.204418449635918
 20
-24.504457146412552
 10
12.133803372948233
 20
-24.417346470260068
 10
12.064234160132317
 20
-24.340889038167592
 10
11.996074536054106
 20
-24.275014763126542
 10
11.9296859633893
 20
-24.219643860182305
 10
11.86542741034687
 20
-24.1746869066056
 10
11.803655119852461
 20
-24.140044907301935
 10
11.744722380305188
 20
-24.115609365425
 10
11.68897929802094
 20
-24.10126235815844
 10
11.636772571474037
 20
-24.09687661762739
 10
11.588445267448572
 20
-24.10231561689926
 10
11.544336599209846
 20
-24.11743366103077
 10
11.275259756942969
 20
-24.240887774980628
 10
10.64955596679766
 20
-24.517736867967564
 10
10.02014860427753
 20
-24.78605948217543
 10
9.746264653408264
 20
-24.898446522138688
 10
9.705109332897896
 20
-24.920363854682687
 10
9.668148363354458
 20
-24.951970780472124
 10
9.6357197549628
 20
-24.993118834794647
 10
9.608157447827157
 20
-25.04365047899326
 10
9.585791094020957
 20
-25.10339920044218
 10
9.568945841945796
 20
-25.17218961744344
 10
9.557942123106251
 20
-25.249837588992623
 10
9.553095441406295
 20
-25.33615032936061
 10
9.554716165071849
 20
-25.430926527435155
 10
9.56310932130264
 20
-25.533956470764704
 10
9.57857439375565
 20
-25.64502217424409
 10
9.601405122960763
 20
-25.76389751337993
 10
9.629265687137805
 20
-25.885395026068252
 10
9.646899723357073
 20
-25.96901379553306
 10
9.664641387477127
 20
-26.06113223320324
 10
9.682198106776879
 20
-26.161785608608554
 10
9.69927593998653
 20
-26.271001491569052
 10
9.715579759586479
 20
-26.388799711535643
 10
9.730813435173673
 20
-26.5151923210199
 10
9.74468001780653
 20
-26.65018356313742
 10
9.75688192523917
 20
-26.793769843289937
 10
9.767121127954944
 20
-26.945939705007408
 10
9.775099335909012
 20
-27.106673809971532
 10
9.780518185888862
 20
-27.275944922237244
 10
9.783079429401646
 20
-27.45371789667016
 10
9.782485120996428
 20
-27.63994967161321
 10
9.778437806929384
 20
-27.834589265795675
 10
9.770640714079555
 20
-28.037577779494946
 10
9.758797939022417
 20
-28.24884839995929
 10
9.74261463716845
 20
-28.468326411098108
 10
9.72179721187354
 20
-28.69592920744508
 10
9.69605350342808
 20
-28.93156631239623
 10
9.665092977831453
 20
-29.175139400722074
 10
9.628626915258094
 20
-29.426542325356895
 10
9.586368598122494
 20
-29.68566114845572
 10
9.538033498648906
 20
-29.952374176718433
 10
9.451814275468854
 20
-30.38458584244956
 10
9.24004825777663
 20
-30.46035693515983
 10
7.689893883918925
 20
-30.848650392094704
 10
7.413291985218609
 20
-30.54769882962367
 10
7.233413729557037
 20
-30.34492818474049
 10
7.062673421758686
 20
-30.145488777540773
 10
6.900891185656385
 20
-29.94963242120715
 10
6.747881244456993
 20
-29.75760544030091
 10
6.603452062650765
 20
-29.569648543122128
 10
6.467406490561033
 20
-29.38599669745853
 10
6.339541911453934
 20
-29.206879009772162
 10
6.21965039113414
 20
-29.032518607880423
 10
6.107518829944511
 20
-28.86313252717741
 10
6.002929117090717
 20
-28.698931600444848
 10
5.9056582872099845
 20
-28.54012035129909
 10
5.815478679101677
 20
-28.386896891318287
 10
5.732158096536879
 20
-28.239452820892115
 10
5.6554599710636735
 20
-28.09797313383539
  0
LWPOLYLINE
  5
30
330
17
100
AcDbEntity
  8
0
 62
0
100
AcDbPolyline
 90
65
 70
0
 10
17.822973990410016
 20
0.8563397979006644
 10
17.725444620908295
 20
1.1289161254770168
 10
17.601667729827646
 20
1.390620373636694
 10
17.45283535629251
 20
1.6389321874078264
 10
17.280380837420072
 20
1.8714601882827555
 10
17.085965004500316
 20
2.085965004500316
 10
16.871460188282754
 20
2.280380837420074
 10
16.638932187407825
 20
2.452835356292509
 10
16.390620373636693
 20
2.6016677298276476
 10
16.128916125477016
 20
2.725444620908296
 10
15.856339797900663
 20
2.8229739904100164
 10
15.575516449947578
 20
2.89331657718953
 10
15.289150563972202
 20
2.935794943682981
 10
15.0
 20
2.95
 10
14.710849436027797
 20
2.935794943682981
 10
14.42448355005242
 20
2.8933165771895295
 10
14.143660202099335
 20
2.8229739904100164
 10
13.871083874522984
 20
2.7254446209082954
 10
13.609379626363307
 20
2.601667729827647
 10
13.361067812592173
 20
2.4528353562925087
 10
13.128539811717244
 20
2.2803808374200734
 10
12.914034995499684
 20
2.085965004500315
 10
12.719619162579924
 20
1.8714601882827537
 10
12.547164643707491
 20
1.6389321874078258
 10
12.398332270172352
 20
1.390620373636693
 10
12.274555379091703
 20
1.1289161254770146
 10
12.177026009589984
 20
0.8563397979006633
 10
12.10668342281047
 20
0.5755164499475787
 10
12.064205056317018
 20
0.28915056397220373
 10
12.05
 20
-3.612708057484692e-16
 10
12.06420505631702
 20
-0.28915056397220446
 10
12.10668342281047
 20
-0.5755164499475794
 10
12.177026009589984
 20
-0.8563397979006641
 10
12.274555379091705
 20
-1.1289161254770153
 10
12.398332270172354
 20
-1.3906203736366936
 10
12.547164643707491
 20
-1.6389321874078264
 10
12.719619162579926
 20
-1.8714601882827544
 10
12.914034995499685
 20
-2.0859650045003155
 10
13.128539811717246
 20
-2.2803808374200747
 10
13.361067812592175
 20
-2.4528353562925087
 10
13.609379626363307
 20
-2.6016677298276476
 10
13.871083874522984
 20
-2.725444620908296
 10
14.143660202099337
 20
-2.8229739904100164
 10
14.424483550052422
 20
-2.89331657718953
 10
14.710849436027797
 20
-2.935794943682981
 10
15.0
 20
-2.95
 10
15.289150563972203
 20
-2.9357949436829807
 10
15.575516449947578
 20
-2.89331657718953
 10
15.856339797900663
 20
-2.8229739904100164
 10
16.128916125477016
 20
-2.725444620908296
 10
16.390620373636693
 20
-2.601667729827647
 10
16.63893218740783
 20
-2.4528353562925087
 10
16.871460188282754
 20
-2.280380837420074
 10
17.085965004500316
 20
-2.0859650045003155
 10
17.280380837420076
 20
-1.8714601882827544
 10
17.45283535629251
 20
-1.6389321874078264
 10
17.601667729827646
 20
-1.390620373636693
 10
17.725444620908295
 20
-1.128916125477015
 10
17.822973990410016
 20
-0.856339797900664
 10
17.89331657718953
 20
-0.5755164499475783
 10
17.935794943682982
 20
-0.2891505639722038
 10
17.95
 20
0.0
 10
17.935794943682982
 20
0.2891505639722035
 10
17.89331657718953
 20
0.5755164499475798
 10
17.822973990410016
 20
0.8563397979006644
  0
LWPOLYLINE
  5
31
330
17
100
AcDbEntity
  8
0
 62
0
100
AcDbPolyline
 90
65
 70
0
 10
-12.10668342281047
 20
0.5755164499475798
 10
-12.177026009589984
 20
0.8563397979006644
 10
-12.274555379091705
 20
1.1289161254770168
 10
-12.398332270172354
 20
1.390620373636694
 10
-12.547164643707491
 20
1.6389321874078264
 10
-12.719619162579928
 20
1.8714601882827555
 10
-12.914034995499685
 20
2.085965004500316
 10
-13.128539811717246
 20
2.280380837420074
 10
-13.361067812592175
 20
2.452835356292509
 10
-13.609379626363307
 20
2.6016677298276476
 10
-13.871083874522984
 20
2.725444620908296
 10
-14.143660202099337
 20
2.8229739904100164
 10
-14.424483550052422
 20
2.89331657718953
 10
-14.710849436027798
 20
2.935794943682981
 10
-15.0
 20
2.95
 10
-15.289150563972203
 20
2.935794943682981
 10
-15.57551644994758
 20
2.8933165771895295
 10
-15.856339797900665
 20
2.8229739904100164
 10
-16.128916125477016
 20
2.7254446209082954
 10
-16.390620373636693
 20
2.601667729827647
 10
-16.638932187407825
 20
2.4528353562925087
 10
-16.871460188282754
 20
2.2803808374200734
 10
-17.085965004500316
 20
2.085965004500315
 10
-17.280380837420076
 20
1.8714601882827537
 10
-17.45283535629251
 20
1.6389321874078258
 10
-17.601667729827646
 20
1.390620373636693
 10
-17.725444620908295
 20
1.1289161254770146
 10
-17.822973990410016
 20
0.8563397979006633
 10
-17.89331657718953
 20
0.5755164499475787
 10
-17.935794943682982
 20
0.28915056397220373
 10
-17.95
 20
-3.612708057484692e-16
 10
-17.935794943682982
 20
-0.28915056397220446
 10
-17.89331657718953
 20
-0.5755164499475794
 10
-17.822973990410016
 20
-0.8563397979006641
 10
-17.725444620908295
 20
-1.1289161254770153
 10
-17.601667729827646
 20
-1.3906203736366936
 10
-17.45283535629251
 20
-1.6389321874078264
 10
-17.280380837420076
 20
-1.8714601882827544
 10
-17.085965004500316
 20
-2.0859650045003155
 10
-16.871460188282754
 20
-2.2803808374200747
 10
-16.638932187407825
 20
-2.4528353562925087
 10
-16.390620373636693
 20
-2.6016677298276476
 10
-16.128916125477016
 20
-2.725444620908296
 10
-15.856339797900663
 20
-2.8229739904100164
 10
-15.575516449947578
 20
-2.89331657718953
 10
-15.289150563972203
 20
-2.935794943682981
 10
-15.0
 20
-2.95
 10
-14.710849436027797
 20
-2.9357949436829807
 10
-14.424483550052422
 20
-2.89331657718953
 10
-14.143660202099337
 20
-2.8229739904100164
 10
-13.871083874522984
 20
-2.725444620908296
 10
-13.609379626363307
 20
-2.601667729827647
 10
-13.361067812592173
 20
-2.4528353562925087
 10
-13.128539811717246
 20
-2.280380837420074
 10
-12.914034995499684
 20
-2.0859650045003155
 10
-12.719619162579926
 20
-1.8714601882827544
 10
-12.547164643707491
 20
-1.6389321874078264
 10
-12.398332270172352
 20
-1.390620373636693
 10
-12.274555379091705
 20
-1.128916125477015
 10
-12.177026009589984
 20
-0.856339797900664
 10
-12.10668342281047
 20
-0.5755164499475783
 10
-12.064205056317018
 20
-0.2891505639722038
 10
-12.05
 20
0.0
 10
-12.064205056317018
 20
0.2891505639722035
 10
-12.10668342281047
 20
0.5755164499475798
  0
LWPOLYLINE
  5
32
330
17
100
AcDbEntity
  8
0
 62
0
100
AcDbPolyline
 90
65
 70
0
 10
1.9903694533443939
 20
0.196034280659121
 10
1.9615705608064606
 20
0.39018064403225744
 10
1.9138806714644176
 20
0.580569354508925
 10
1.847759065022573
 20
0.7653668647301808
 10
1.7638425286967097
 20
0.9427934736519958
 10
1.6629392246050905
 20
1.1111404660392044
 10
1.546020906725473
 20
1.2687865683272919
 10
1.4142135623730947
 20
1.4142135623730954
 10
1.2687865683272912
 20
1.5460209067254738
 10
1.1111404660392037
 20
1.662939224605091
 10
0.9427934736519952
 20
1.76384252869671
 10
0.76536686473018
 20
1.8477590650225733
 10
0.5805693545089241
 20
1.9138806714644179
 10
0.3901806440322566
 20
1.9615705608064609
 10
0.19603428065912018
 20
1.9903694533443939
 10
-3.6739403974420594e-16
 20
2.0
 10
-0.1960342806591209
 20
1.9903694533443939
 10
-0.39018064403225733
 20
1.9615705608064606
 10
-0.5805693545089249
 20
1.9138806714644176
 10
-0.7653668647301807
 20
1.847759065022573
 10
-0.9427934736519957
 20
1.7638425286967099
 10
-1.1111404660392044
 20
1.6629392246050905
 10
-1.2687865683272919
 20
1.5460209067254733
 10
-1.4142135623730954
 20
1.414213562373095
 10
-1.5460209067254742
 20
1.2687865683272905
 10
-1.662939224605091
 20
1.111140466039204
 10
-1.76384252869671
 20
0.9427934736519953
 10
-1.8477590650225737
 20
0.7653668647301793
 10
-1.9138806714644179
 20
0.5805693545089242
 10
-1.9615705608064609
 20
0.3901806440322567
 10
-1.9903694533443939
 20
0.19603428065912118
 10
-2.0
 20
-2.4492935982947064e-16
 10
-1.9903694533443936
 20
-0.19603428065912165
 10
-1.9615705608064609
 20
-0.3901806440322572
 10
-1.9138806714644176
 20
-0.5805693545089248
 10
-1.8477590650225735
 20
-0.7653668647301798
 10
-1.7638425286967099
 20
-0.9427934736519956
 10
-1.6629392246050907
 20
-1.1111404660392044
 10
-1.546020906725474
 20
-1.268786568327291
 10
-1.414213562373095
 20
-1.4142135623730951
 10
-1.2687865683272908
 20
-1.5460209067254742
 10
-1.111140466039204
 20
-1.6629392246050907
 10
-0.9427934736519954
 20
-1.76384252869671
 10
-0.7653668647301795
 20
-1.8477590650225735
 10
-0.5805693545089243
 20
-1.9138806714644179
 10
-0.3901806440322564
 20
-1.9615705608064609
 10
-0.1960342806591213
 20
-1.9903694533443939
 10
1.2246467991473532e-16
 20
-2.0
 10
0.19603428065912154
 20
-1.9903694533443936
 10
0.39018064403225666
 20
-1.9615705608064609
 10
0.5805693545089247
 20
-1.9138806714644179
 10
0.7653668647301797
 20
-1.8477590650225735
 10
0.9427934736519956
 20
-1.7638425286967099
 10
1.1111404660392046
 20
-1.6629392246050905
 10
1.268786568327291
 20
-1.5460209067254738
 10
1.4142135623730951
 20
-1.4142135623730951
 10
1.546020906725474
 20
-1.268786568327291
 10
1.6629392246050905
 20
-1.1111404660392044
 10
1.76384252869671
 20
-0.9427934736519953
 10
1.8477590650225735
 20
-0.7653668647301796
 10
1.9138806714644176
 20
-0.5805693545089247
 10
1.9615705608064609
 20
-0.3901806440322565
 10
1.9903694533443939
 20
-0.1960342806591212
 10
2.0
 20
0.0
 10
1.9903694533443939
 20
0.196034280659121
  0
ENDSEC
  0
SECTION
  2
OBJECTS
  0
DICTIONARY
  5
A
330
0
100
AcDbDictionary
280
0
281
1
  3
ACAD_COLOR
350
B
  3
ACAD_GROUP
350
C
  3
ACAD_LAYOUT
350
D
  3
ACAD_MATERIAL
350
E
  3
ACAD_MLEADERSTYLE
350
F
  3
ACAD_MLINESTYLE
350
10
  3
ACAD_PLOTSETTINGS
350
11
  3
ACAD_PLOTSTYLENAME
350
12
  3
ACAD_SCALELIST
350
14
  3
ACAD_TABLESTYLE
350
15
  3
ACAD_VISUALSTYLE
350
16
  3
EZDXF_META
350
2D
  0
DICTIONARY
  5
B
330
A
100
AcDbDictionary
280
0
281
1
  0
DICTIONARY
  5
C
330
A
100
AcDbDictionary
280
0
281
1
  0
DICTIONARY
  5
D
330
A
100
AcDbDictionary
280
0
281
1
  3
Model
350
1A
  3
Layout1
350
1E
  0
DICTIONARY
  5
E
330
A
100
AcDbDictionary
280
0
281
1
  3
ByBlock
350
1F
  3
ByLayer
350
20
  3
Global
350
21
  0
DICTIONARY
  5
F
330
A
100
AcDbDictionary
280
0
281
1
  3
Standard
350
2C
  0
DICTIONARY
  5
10
330
A
100
AcDbDictionary
280
0
281
1
  3
Standard
350
22
  0
DICTIONARY
  5
11
330
A
100
AcDbDictionary
280
0
281
1
  0
ACDBDICTIONARYWDFLT
  5
12
330
A
100
AcDbDictionary
280
0
281
1
  3
Normal
350
13
100
AcDbDictionaryWithDefault
340
13
  0
ACDBPLACEHOLDER
  5
13
330
12
  0
DICTIONARY
  5
14
330
A
100
AcDbDictionary
280
0
281
1
  0
DICTIONARY
  5
15
330
A
100
AcDbDictionary
280
0
281
1
  0
DICTIONARY
  5
16
330
A
100
AcDbDictionary
280
0
281
1
  0
LAYOUT
  5
1A
330
D
100
AcDbPlotSettings
  1

  2
Adobe PDF
  4
A3
  6

 40
7.5
 41
20.0
 42
7.5
 43
20.0
 44
420.0
 45
297.0
 46
0.0
 47
0.0
 48
0.0
 49
0.0
140
0.0
141
0.0
142
1.0
143
1.0
 70
1024
 72
1
 73
0
 74
5
  7

 75
16
 76
0
 77
2
 78
300
147
1.0
148
0.0
149
0.0
100
AcDbLayout
  1
Model
 70
1
 71
0
 10
0.0
 20
0.0
 11
420.0
 21
297.0
 12
0.0
 22
0.0
 32
0.0
 14
1e+20
 24
1e+20
 34
1e+20
 15
-1e+20
 25
-1e+20
 35
-1e+20
146
0.0
 13
0.0
 23
0.0
 33
0.0
 16
1.0
 26
0.0
 36
0.0
 17
0.0
 27
1.0
 37
0.0
 76
1
330
17
  0
LAYOUT
  5
1E
330
D
100
AcDbPlotSettings
  1

  2
Adobe PDF
  4
A3
  6

 40
7.5
 41
20.0
 42
7.5
 43
20.0
 44
420.0
 45
297.0
 46
0.0
 47
0.0
 48
0.0
 49
0.0
140
0.0
141
0.0
142
1.0
143
1.0
 70
0
 72
1
 73
0
 74
5
  7

 75
16
 76
0
 77
2
 78
300
147
1.0
148
0.0
149
0.0
100
AcDbLayout
  1
Layout1
 70
1
 71
1
 10
0.0
 20
0.0
 11
420.0
 21
297.0
 12
0.0
 22
0.0
 32
0.0
 14
1e+20
 24
1e+20
 34
1e+20
 15
-1e+20
 25
-1e+20
 35
-1e+20
146
0.0
 13
0.0
 23
0.0
 33
0.0
 16
1.0
 26
0.0
 36
0.0
 17
0.0
 27
1.0
 37
0.0
 76
1
330
1B
  0
MATERIAL
  5
1F
102
{ACAD_REACTORS
330
E
102
}
330
E
100
AcDbMaterial
  1
ByBlock
  2

 70
0
 40
1.0
 71
1
 41
1.0
 91
-1023410177
 42
1.0
 72
1
  3

 73
1
 74
1
 75
1
 44
0.5
 73
0
 45
1.0
 46
1.0
 77
1
  4

 78
1
 79
1
170
1
 48
1.0
171
1
  6

172
1
173
1
174
1
140
1.0
141
1.0
175
1
  7

176
1
177
1
178
1
143
1.0
179
1
  8

270
1
271
1
272
1
145
1.0
146
1.0
273
1
  9

274
1
275
1
276
1
 42
1.0
 72
1
  3

 73
1
 74
1
 75
1
 94
63
  0
MATERIAL
  5
20
102
{ACAD_REACTORS
330
E
102
}
330
E
100
AcDbMaterial
  1
ByLayer
  2

 70
0
 40
1.0
 71
1
 41
1.0
 91
-1023410177
 42
1.0
 72
1
  3

 73
1
 74
1
 75
1
 44
0.5
 73
0
 45
1.0
 46
1.0
 77
1
  4

 78
1
 79
1
170
1
 48
1.0
171
1
  6

172
1
173
1
174
1
140
1.0
141
1.0
175
1
  7

176
1
177
1
178
1
143
1.0
179
1
  8

270
1
271
1
272
1
145
1.0
146
1.0
273
1
  9

274
1
275
1
276
1
 42
1.0
 72
1
  3

 73
1
 74
1
 75
1
 94
63
  0
MATERIAL
  5
21
102
{ACAD_REACTORS
330
E
102
}
330
E
100
AcDbMaterial
  1
Global
  2

 70
0
 40
1.0
 71
1
 41
1.0
 91
-1023410177
 42
1.0
 72
1
  3

 73
1
 74
1
 75
1
 44
0.5
 73
0
 45
1.0
 46
1.0
 77
1
  4

 78
1
 79
1
170
1
 48
1.0
171
1
  6

172
1
173
1
174
1
140
1.0
141
1.0
175
1
  7

176
1
177
1
178
1
143
1.0
179
1
  8

270
1
271
1
272
1
145
1.0
146
1.0
273
1
  9

274
1
275
1
276
1
 42
1.0
 72
1
  3

 73
1
 74
1
 75
1
 94
63
  0
MLINESTYLE
  5
22
102
{ACAD_REACTORS
330
10
102
}
330
10
100
AcDbMlineStyle
  2
Standard
 70
0
  3

 62
256
 51
90.0
 52
90.0
 71
2
 49
0.5
 62
256
  6
BYLAYER
 49
-0.5
 62
256
  6
BYLAYER
  0
MLEADERSTYLE
  5
2C
102
{ACAD_REACTORS
330
F
102
}
330
F
100
AcDbMLeaderStyle
179
2
170
2
171
1
172
0
 90
2
 40
0.0
 41
0.0
173
1
 91
-1056964608
 92
-2
290
1
 42
2.0
291
1
 43
8.0
  3
Standard
 44
4.0
300

342
29
174
1
175
1
176
0
178
1
 93
-1056964608
 45
4.0
292
0
297
0
 46
4.0
 94
-1056964608
 47
1.0
 49
1.0
140
1.0
294
1
141
0.0
177
0
142
1.0
295
0
296
0
143
3.75
271
0
272
9
273
9
  0
DICTIONARY
  5
2D
330
A
100
AcDbDictionary
281
1
  3
CREATED_BY_EZDXF
350
2E
  3
WRITTEN_BY_EZDXF
350
35
  0
DICTIONARYVAR
  5
2E
330
2D
100
DictionaryVariables
280
0
  1
1.1.1 @ 2023-11-11T03:34:51.130935+00:00
  0
DICTIONARYVAR
  5
35
330
2D
100
DictionaryVariables
280
0
  1
1.1.1 @ 2023-11-11T03:34:51.145434+00:00
  0
ENDSEC
  0
EOF
