solid OpenSCAD_Model
  facet normal -1 0 0
    outer loop
      vertex -8 -8 0
      vertex -8 -8 6
      vertex -8 -5 0
    endloop
  endfacet
  facet normal -1 0 0
    outer loop
      vertex -8 -5 4
      vertex -8 -8 6
      vertex -8 8 6
    endloop
  endfacet
  facet normal -1 0 0
    outer loop
      vertex -8 5 0
      vertex -8 8 6
      vertex -8 8 0
    endloop
  endfacet
  facet normal -1 0 0
    outer loop
      vertex -8 5 4
      vertex -8 8 6
      vertex -8 5 0
    endloop
  endfacet
  facet normal -1 0 0
    outer loop
      vertex -8 -5 0
      vertex -8 -8 6
      vertex -8 -5 4
    endloop
  endfacet
  facet normal -1 0 0
    outer loop
      vertex -8 -5 4
      vertex -8 8 6
      vertex -8 5 4
    endloop
  endfacet
  facet normal 0 -1 0
    outer loop
      vertex -5 -8 2
      vertex -8 -8 0
      vertex 8 -8 0
    endloop
  endfacet
  facet normal 0 -1 0
    outer loop
      vertex -5 -8 2
      vertex -5 -8 6
      vertex -8 -8 6
    endloop
  endfacet
  facet normal 0 -1 0
    outer loop
      vertex 8 -8 6
      vertex 5 -8 6
      vertex 8 -8 0
    endloop
  endfacet
  facet normal 0 -1 0
    outer loop
      vertex 5 -8 6
      vertex 5 -8 2
      vertex 8 -8 0
    endloop
  endfacet
  facet normal 0 -1 0
    outer loop
      vertex -8 -8 6
      vertex -8 -8 0
      vertex -5 -8 2
    endloop
  endfacet
  facet normal 0 -1 0
    outer loop
      vertex 5 -8 2
      vertex -5 -8 2
      vertex 8 -8 0
    endloop
  endfacet
  facet normal 0 0 -1
    outer loop
      vertex -8 -8 0
      vertex -8 -5 0
      vertex 8 -8 0
    endloop
  endfacet
  facet normal 0 0 -1
    outer loop
      vertex 8 -8 0
      vertex -8 -5 0
      vertex 8 -5 0
    endloop
  endfacet
  facet normal 0 1 0
    outer loop
      vertex 5 -5 2
      vertex 8 -5 0
      vertex -5 -5 2
    endloop
  endfacet
  facet normal 0 1 0
    outer loop
      vertex -8 -5 0
      vertex -8 -5 4
      vertex -5 -5 2
    endloop
  endfacet
  facet normal 0 1 0
    outer loop
      vertex -8 -5 0
      vertex -5 -5 2
      vertex 8 -5 0
    endloop
  endfacet
  facet normal 0 1 0
    outer loop
      vertex 8 -5 0
      vertex 5 -5 2
      vertex 5 -5 4
    endloop
  endfacet
  facet normal 0 1 0
    outer loop
      vertex 8 -5 0
      vertex 5 -5 4
      vertex 8 -5 4
    endloop
  endfacet
  facet normal 0 1 0
    outer loop
      vertex -5 -5 2
      vertex -8 -5 4
      vertex -5 -5 4
    endloop
  endfacet
  facet normal 0 0 -1
    outer loop
      vertex -8 -5 4
      vertex -8 5 4
      vertex -5 -5 4
    endloop
  endfacet
  facet normal 0 0 -1
    outer loop
      vertex -5 -5 4
      vertex -8 5 4
      vertex -5 5 4
    endloop
  endfacet
  facet normal 0 -1 0
    outer loop
      vertex -5 5 2
      vertex -8 5 0
      vertex 8 5 0
    endloop
  endfacet
  facet normal 0 -1 0
    outer loop
      vertex -5 5 2
      vertex -5 5 4
      vertex -8 5 4
    endloop
  endfacet
  facet normal 0 -1 0
    outer loop
      vertex 8 5 4
      vertex 5 5 4
      vertex 8 5 0
    endloop
  endfacet
  facet normal 0 -1 0
    outer loop
      vertex 5 5 4
      vertex 5 5 2
      vertex 8 5 0
    endloop
  endfacet
  facet normal 0 -1 0
    outer loop
      vertex -8 5 4
      vertex -8 5 0
      vertex -5 5 2
    endloop
  endfacet
  facet normal 0 -1 0
    outer loop
      vertex 5 5 2
      vertex -5 5 2
      vertex 8 5 0
    endloop
  endfacet
  facet normal 0 0 -1
    outer loop
      vertex -8 5 0
      vertex -8 8 0
      vertex 8 5 0
    endloop
  endfacet
  facet normal 0 0 -1
    outer loop
      vertex 8 5 0
      vertex -8 8 0
      vertex 8 8 0
    endloop
  endfacet
  facet normal 0 1 0
    outer loop
      vertex 5 8 2
      vertex 8 8 0
      vertex -5 8 2
    endloop
  endfacet
  facet normal 0 1 0
    outer loop
      vertex -8 8 0
      vertex -8 8 6
      vertex -5 8 2
    endloop
  endfacet
  facet normal 0 1 0
    outer loop
      vertex -8 8 0
      vertex -5 8 2
      vertex 8 8 0
    endloop
  endfacet
  facet normal 0 1 0
    outer loop
      vertex 8 8 0
      vertex 5 8 2
      vertex 5 8 6
    endloop
  endfacet
  facet normal 0 1 0
    outer loop
      vertex 8 8 0
      vertex 5 8 6
      vertex 8 8 6
    endloop
  endfacet
  facet normal 0 1 0
    outer loop
      vertex -5 8 2
      vertex -8 8 6
      vertex -5 8 6
    endloop
  endfacet
  facet normal 0 0 1
    outer loop
      vertex -8 8 6
      vertex -8 -8 6
      vertex -5 -8 6
    endloop
  endfacet
  facet normal 0 0 1
    outer loop
      vertex -5 8 6
      vertex -8 8 6
      vertex -5 -8 6
    endloop
  endfacet
  facet normal 1 0 0
    outer loop
      vertex -5 -8 6
      vertex -5 -8 2
      vertex -5 -5 2
    endloop
  endfacet
  facet normal 1 0 0
    outer loop
      vertex -5 5 4
      vertex -5 -8 6
      vertex -5 -5 4
    endloop
  endfacet
  facet normal 1 0 0
    outer loop
      vertex -5 -5 4
      vertex -5 -8 6
      vertex -5 -5 2
    endloop
  endfacet
  facet normal 1 0 0
    outer loop
      vertex -5 8 6
      vertex -5 -8 6
      vertex -5 5 4
    endloop
  endfacet
  facet normal 1 0 0
    outer loop
      vertex -5 8 2
      vertex -5 5 4
      vertex -5 5 2
    endloop
  endfacet
  facet normal 1 0 0
    outer loop
      vertex -5 8 6
      vertex -5 5 4
      vertex -5 8 2
    endloop
  endfacet
  facet normal 0 0 1
    outer loop
      vertex -5 -5 2
      vertex -5 -8 2
      vertex 5 -8 2
    endloop
  endfacet
  facet normal 0 0 1
    outer loop
      vertex 5 -5 2
      vertex -5 -5 2
      vertex 5 -8 2
    endloop
  endfacet
  facet normal -1 0 0
    outer loop
      vertex 5 -8 2
      vertex 5 -8 6
      vertex 5 -5 2
    endloop
  endfacet
  facet normal -1 0 0
    outer loop
      vertex 5 -5 4
      vertex 5 -8 6
      vertex 5 8 6
    endloop
  endfacet
  facet normal -1 0 0
    outer loop
      vertex 5 5 2
      vertex 5 8 6
      vertex 5 8 2
    endloop
  endfacet
  facet normal -1 0 0
    outer loop
      vertex 5 5 4
      vertex 5 8 6
      vertex 5 5 2
    endloop
  endfacet
  facet normal -1 0 0
    outer loop
      vertex 5 -5 2
      vertex 5 -8 6
      vertex 5 -5 4
    endloop
  endfacet
  facet normal -1 0 0
    outer loop
      vertex 5 -5 4
      vertex 5 8 6
      vertex 5 5 4
    endloop
  endfacet
  facet normal 0 0 1
    outer loop
      vertex 5 8 6
      vertex 5 -8 6
      vertex 8 -8 6
    endloop
  endfacet
  facet normal 0 0 1
    outer loop
      vertex 8 8 6
      vertex 5 8 6
      vertex 8 -8 6
    endloop
  endfacet
  facet normal 1 0 0
    outer loop
      vertex 8 -8 6
      vertex 8 -8 0
      vertex 8 -5 0
    endloop
  endfacet
  facet normal 1 0 0
    outer loop
      vertex 8 5 4
      vertex 8 -8 6
      vertex 8 -5 4
    endloop
  endfacet
  facet normal 1 0 0
    outer loop
      vertex 8 -5 4
      vertex 8 -8 6
      vertex 8 -5 0
    endloop
  endfacet
  facet normal 1 0 0
    outer loop
      vertex 8 8 6
      vertex 8 -8 6
      vertex 8 5 4
    endloop
  endfacet
  facet normal 1 0 0
    outer loop
      vertex 8 8 0
      vertex 8 5 4
      vertex 8 5 0
    endloop
  endfacet
  facet normal 1 0 0
    outer loop
      vertex 8 8 6
      vertex 8 5 4
      vertex 8 8 0
    endloop
  endfacet
  facet normal 0 0 -1
    outer loop
      vertex 5 -5 4
      vertex 5 5 4
      vertex 8 -5 4
    endloop
  endfacet
  facet normal 0 0 -1
    outer loop
      vertex 8 -5 4
      vertex 5 5 4
      vertex 8 5 4
    endloop
  endfacet
  facet normal 0 0 1
    outer loop
      vertex -5 8 2
      vertex -5 5 2
      vertex 5 5 2
    endloop
  endfacet
  facet normal 0 0 1
    outer loop
      vertex 5 8 2
      vertex -5 8 2
      vertex 5 5 2
    endloop
  endfacet
  facet normal -1 0 0
    outer loop
      vertex 1 1 0
      vertex 1 1 6
      vertex 1 4 0
    endloop
  endfacet
  facet normal -1 0 0
    outer loop
      vertex 1 4 4
      vertex 1 1 6
      vertex 1 17 6
    endloop
  endfacet
  facet normal -1 0 0
    outer loop
      vertex 1 14 0
      vertex 1 17 6
      vertex 1 17 0
    endloop
  endfacet
  facet normal -1 0 0
    outer loop
      vertex 1 14 4
      vertex 1 17 6
      vertex 1 14 0
    endloop
  endfacet
  facet normal -1 0 0
    outer loop
      vertex 1 4 0
      vertex 1 1 6
      vertex 1 4 4
    endloop
  endfacet
  facet normal -1 0 0
    outer loop
      vertex 1 4 4
      vertex 1 17 6
      vertex 1 14 4
    endloop
  endfacet
  facet normal 0 -1 0
    outer loop
      vertex 4 1 2
      vertex 1 1 0
      vertex 17 1 0
    endloop
  endfacet
  facet normal 0 -1 0
    outer loop
      vertex 4 1 2
      vertex 4 1 6
      vertex 1 1 6
    endloop
  endfacet
  facet normal 0 -1 0
    outer loop
      vertex 17 1 6
      vertex 14 1 6
      vertex 17 1 0
    endloop
  endfacet
  facet normal 0 -1 0
    outer loop
      vertex 14 1 6
      vertex 14 1 2
      vertex 17 1 0
    endloop
  endfacet
  facet normal 0 -1 0
    outer loop
      vertex 1 1 6
      vertex 1 1 0
      vertex 4 1 2
    endloop
  endfacet
  facet normal 0 -1 0
    outer loop
      vertex 14 1 2
      vertex 4 1 2
      vertex 17 1 0
    endloop
  endfacet
  facet normal 0 0 -1
    outer loop
      vertex 1 1 0
      vertex 1 4 0
      vertex 17 1 0
    endloop
  endfacet
  facet normal 0 0 -1
    outer loop
      vertex 17 1 0
      vertex 1 4 0
      vertex 17 4 0
    endloop
  endfacet
  facet normal 0 1 0
    outer loop
      vertex 14 4 2
      vertex 17 4 0
      vertex 4 4 2
    endloop
  endfacet
  facet normal 0 1 0
    outer loop
      vertex 1 4 0
      vertex 1 4 4
      vertex 4 4 2
    endloop
  endfacet
  facet normal 0 1 0
    outer loop
      vertex 1 4 0
      vertex 4 4 2
      vertex 17 4 0
    endloop
  endfacet
  facet normal 0 1 0
    outer loop
      vertex 17 4 0
      vertex 14 4 2
      vertex 14 4 4
    endloop
  endfacet
  facet normal 0 1 0
    outer loop
      vertex 17 4 0
      vertex 14 4 4
      vertex 17 4 4
    endloop
  endfacet
  facet normal 0 1 0
    outer loop
      vertex 4 4 2
      vertex 1 4 4
      vertex 4 4 4
    endloop
  endfacet
  facet normal 0 0 -1
    outer loop
      vertex 1 4 4
      vertex 1 14 4
      vertex 4 4 4
    endloop
  endfacet
  facet normal 0 0 -1
    outer loop
      vertex 4 4 4
      vertex 1 14 4
      vertex 4 14 4
    endloop
  endfacet
  facet normal 0 -1 0
    outer loop
      vertex 4 14 2
      vertex 1 14 0
      vertex 17 14 0
    endloop
  endfacet
  facet normal 0 -1 0
    outer loop
      vertex 4 14 2
      vertex 4 14 4
      vertex 1 14 4
    endloop
  endfacet
  facet normal 0 -1 0
    outer loop
      vertex 17 14 4
      vertex 14 14 4
      vertex 17 14 0
    endloop
  endfacet
  facet normal 0 -1 0
    outer loop
      vertex 14 14 4
      vertex 14 14 2
      vertex 17 14 0
    endloop
  endfacet
  facet normal 0 -1 0
    outer loop
      vertex 1 14 4
      vertex 1 14 0
      vertex 4 14 2
    endloop
  endfacet
  facet normal 0 -1 0
    outer loop
      vertex 14 14 2
      vertex 4 14 2
      vertex 17 14 0
    endloop
  endfacet
  facet normal 0 0 -1
    outer loop
      vertex 1 14 0
      vertex 1 17 0
      vertex 17 14 0
    endloop
  endfacet
  facet normal 0 0 -1
    outer loop
      vertex 17 14 0
      vertex 1 17 0
      vertex 17 17 0
    endloop
  endfacet
  facet normal 0 1 0
    outer loop
      vertex 14 17 2
      vertex 17 17 0
      vertex 4 17 2
    endloop
  endfacet
  facet normal 0 1 0
    outer loop
      vertex 1 17 0
      vertex 1 17 6
      vertex 4 17 2
    endloop
  endfacet
  facet normal 0 1 0
    outer loop
      vertex 1 17 0
      vertex 4 17 2
      vertex 17 17 0
    endloop
  endfacet
  facet normal 0 1 0
    outer loop
      vertex 17 17 0
      vertex 14 17 2
      vertex 14 17 6
    endloop
  endfacet
  facet normal 0 1 0
    outer loop
      vertex 17 17 0
      vertex 14 17 6
      vertex 17 17 6
    endloop
  endfacet
  facet normal 0 1 0
    outer loop
      vertex 4 17 2
      vertex 1 17 6
      vertex 4 17 6
    endloop
  endfacet
  facet normal 0 0 1
    outer loop
      vertex 1 17 6
      vertex 1 1 6
      vertex 4 1 6
    endloop
  endfacet
  facet normal 0 0 1
    outer loop
      vertex 4 17 6
      vertex 1 17 6
      vertex 4 1 6
    endloop
  endfacet
  facet normal 1 0 0
    outer loop
      vertex 4 1 6
      vertex 4 1 2
      vertex 4 4 2
    endloop
  endfacet
  facet normal 1 0 0
    outer loop
      vertex 4 14 4
      vertex 4 1 6
      vertex 4 4 4
    endloop
  endfacet
  facet normal 1 0 0
    outer loop
      vertex 4 4 4
      vertex 4 1 6
      vertex 4 4 2
    endloop
  endfacet
  facet normal 1 0 0
    outer loop
      vertex 4 17 6
      vertex 4 1 6
      vertex 4 14 4
    endloop
  endfacet
  facet normal 1 0 0
    outer loop
      vertex 4 17 2
      vertex 4 14 4
      vertex 4 14 2
    endloop
  endfacet
  facet normal 1 0 0
    outer loop
      vertex 4 17 6
      vertex 4 14 4
      vertex 4 17 2
    endloop
  endfacet
  facet normal 0 0 1
    outer loop
      vertex 4 4 2
      vertex 4 1 2
      vertex 14 1 2
    endloop
  endfacet
  facet normal 0 0 1
    outer loop
      vertex 14 4 2
      vertex 4 4 2
      vertex 14 1 2
    endloop
  endfacet
  facet normal -1 0 0
    outer loop
      vertex 14 1 2
      vertex 14 1 6
      vertex 14 4 2
    endloop
  endfacet
  facet normal -1 0 0
    outer loop
      vertex 14 4 4
      vertex 14 1 6
      vertex 14 17 6
    endloop
  endfacet
  facet normal -1 0 0
    outer loop
      vertex 14 14 2
      vertex 14 17 6
      vertex 14 17 2
    endloop
  endfacet
  facet normal -1 0 0
    outer loop
      vertex 14 14 4
      vertex 14 17 6
      vertex 14 14 2
    endloop
  endfacet
  facet normal -1 0 0
    outer loop
      vertex 14 4 2
      vertex 14 1 6
      vertex 14 4 4
    endloop
  endfacet
  facet normal -1 0 0
    outer loop
      vertex 14 4 4
      vertex 14 17 6
      vertex 14 14 4
    endloop
  endfacet
  facet normal 0 0 1
    outer loop
      vertex 14 17 6
      vertex 14 1 6
      vertex 17 1 6
    endloop
  endfacet
  facet normal 0 0 1
    outer loop
      vertex 17 17 6
      vertex 14 17 6
      vertex 17 1 6
    endloop
  endfacet
  facet normal 1 0 0
    outer loop
      vertex 17 1 6
      vertex 17 1 0
      vertex 17 4 0
    endloop
  endfacet
  facet normal 1 0 0
    outer loop
      vertex 17 14 4
      vertex 17 1 6
      vertex 17 4 4
    endloop
  endfacet
  facet normal 1 0 0
    outer loop
      vertex 17 4 4
      vertex 17 1 6
      vertex 17 4 0
    endloop
  endfacet
  facet normal 1 0 0
    outer loop
      vertex 17 17 6
      vertex 17 1 6
      vertex 17 14 4
    endloop
  endfacet
  facet normal 1 0 0
    outer loop
      vertex 17 17 0
      vertex 17 14 4
      vertex 17 14 0
    endloop
  endfacet
  facet normal 1 0 0
    outer loop
      vertex 17 17 6
      vertex 17 14 4
      vertex 17 17 0
    endloop
  endfacet
  facet normal 0 0 -1
    outer loop
      vertex 14 4 4
      vertex 14 14 4
      vertex 17 4 4
    endloop
  endfacet
  facet normal 0 0 -1
    outer loop
      vertex 17 4 4
      vertex 14 14 4
      vertex 17 14 4
    endloop
  endfacet
  facet normal 0 0 1
    outer loop
      vertex 4 17 2
      vertex 4 14 2
      vertex 14 14 2
    endloop
  endfacet
  facet normal 0 0 1
    outer loop
      vertex 14 17 2
      vertex 4 17 2
      vertex 14 14 2
    endloop
  endfacet
  facet normal -1 0 0
    outer loop
      vertex -8 10 0
      vertex -8 10 6
      vertex -8 13 0
    endloop
  endfacet
  facet normal -1 0 0
    outer loop
      vertex -8 13 4
      vertex -8 10 6
      vertex -8 26 6
    endloop
  endfacet
  facet normal -1 0 0
    outer loop
      vertex -8 23 0
      vertex -8 26 6
      vertex -8 26 0
    endloop
  endfacet
  facet normal -1 0 0
    outer loop
      vertex -8 23 4
      vertex -8 26 6
      vertex -8 23 0
    endloop
  endfacet
  facet normal -1 0 0
    outer loop
      vertex -8 13 0
      vertex -8 10 6
      vertex -8 13 4
    endloop
  endfacet
  facet normal -1 0 0
    outer loop
      vertex -8 13 4
      vertex -8 26 6
      vertex -8 23 4
    endloop
  endfacet
  facet normal 0 -1 0
    outer loop
      vertex -5 10 2
      vertex -8 10 0
      vertex 8 10 0
    endloop
  endfacet
  facet normal 0 -1 0
    outer loop
      vertex -5 10 2
      vertex -5 10 6
      vertex -8 10 6
    endloop
  endfacet
  facet normal 0 -1 0
    outer loop
      vertex 8 10 6
      vertex 5 10 6
      vertex 8 10 0
    endloop
  endfacet
  facet normal 0 -1 0
    outer loop
      vertex 5 10 6
      vertex 5 10 2
      vertex 8 10 0
    endloop
  endfacet
  facet normal 0 -1 0
    outer loop
      vertex -8 10 6
      vertex -8 10 0
      vertex -5 10 2
    endloop
  endfacet
  facet normal 0 -1 0
    outer loop
      vertex 5 10 2
      vertex -5 10 2
      vertex 8 10 0
    endloop
  endfacet
  facet normal 0 0 -1
    outer loop
      vertex -8 10 0
      vertex -8 13 0
      vertex 8 10 0
    endloop
  endfacet
  facet normal 0 0 -1
    outer loop
      vertex 8 10 0
      vertex -8 13 0
      vertex 8 13 0
    endloop
  endfacet
  facet normal 0 1 0
    outer loop
      vertex 5 13 2
      vertex 8 13 0
      vertex -5 13 2
    endloop
  endfacet
  facet normal 0 1 0
    outer loop
      vertex -8 13 0
      vertex -8 13 4
      vertex -5 13 2
    endloop
  endfacet
  facet normal 0 1 0
    outer loop
      vertex -8 13 0
      vertex -5 13 2
      vertex 8 13 0
    endloop
  endfacet
  facet normal 0 1 0
    outer loop
      vertex 8 13 0
      vertex 5 13 2
      vertex 5 13 4
    endloop
  endfacet
  facet normal 0 1 0
    outer loop
      vertex 8 13 0
      vertex 5 13 4
      vertex 8 13 4
    endloop
  endfacet
  facet normal 0 1 0
    outer loop
      vertex -5 13 2
      vertex -8 13 4
      vertex -5 13 4
    endloop
  endfacet
  facet normal 0 0 -1
    outer loop
      vertex -8 13 4
      vertex -8 23 4
      vertex -5 13 4
    endloop
  endfacet
  facet normal 0 0 -1
    outer loop
      vertex -5 13 4
      vertex -8 23 4
      vertex -5 23 4
    endloop
  endfacet
  facet normal 0 -1 0
    outer loop
      vertex -5 23 2
      vertex -8 23 0
      vertex 8 23 0
    endloop
  endfacet
  facet normal 0 -1 0
    outer loop
      vertex -5 23 2
      vertex -5 23 4
      vertex -8 23 4
    endloop
  endfacet
  facet normal 0 -1 0
    outer loop
      vertex 8 23 4
      vertex 5 23 4
      vertex 8 23 0
    endloop
  endfacet
  facet normal 0 -1 0
    outer loop
      vertex 5 23 4
      vertex 5 23 2
      vertex 8 23 0
    endloop
  endfacet
  facet normal 0 -1 0
    outer loop
      vertex -8 23 4
      vertex -8 23 0
      vertex -5 23 2
    endloop
  endfacet
  facet normal 0 -1 0
    outer loop
      vertex 5 23 2
      vertex -5 23 2
      vertex 8 23 0
    endloop
  endfacet
  facet normal 0 0 -1
    outer loop
      vertex -8 23 0
      vertex -8 26 0
      vertex 8 23 0
    endloop
  endfacet
  facet normal 0 0 -1
    outer loop
      vertex 8 23 0
      vertex -8 26 0
      vertex 8 26 0
    endloop
  endfacet
  facet normal 0 1 0
    outer loop
      vertex 5 26 2
      vertex 8 26 0
      vertex -5 26 2
    endloop
  endfacet
  facet normal 0 1 0
    outer loop
      vertex -8 26 0
      vertex -8 26 6
      vertex -5 26 2
    endloop
  endfacet
  facet normal 0 1 0
    outer loop
      vertex -8 26 0
      vertex -5 26 2
      vertex 8 26 0
    endloop
  endfacet
  facet normal 0 1 0
    outer loop
      vertex 8 26 0
      vertex 5 26 2
      vertex 5 26 6
    endloop
  endfacet
  facet normal 0 1 0
    outer loop
      vertex 8 26 0
      vertex 5 26 6
      vertex 8 26 6
    endloop
  endfacet
  facet normal 0 1 0
    outer loop
      vertex -5 26 2
      vertex -8 26 6
      vertex -5 26 6
    endloop
  endfacet
  facet normal 0 0 1
    outer loop
      vertex -8 26 6
      vertex -8 10 6
      vertex -5 10 6
    endloop
  endfacet
  facet normal 0 0 1
    outer loop
      vertex -5 26 6
      vertex -8 26 6
      vertex -5 10 6
    endloop
  endfacet
  facet normal 1 0 0
    outer loop
      vertex -5 10 6
      vertex -5 10 2
      vertex -5 13 2
    endloop
  endfacet
  facet normal 1 0 0
    outer loop
      vertex -5 23 4
      vertex -5 10 6
      vertex -5 13 4
    endloop
  endfacet
  facet normal 1 0 0
    outer loop
      vertex -5 13 4
      vertex -5 10 6
      vertex -5 13 2
    endloop
  endfacet
  facet normal 1 0 0
    outer loop
      vertex -5 26 6
      vertex -5 10 6
      vertex -5 23 4
    endloop
  endfacet
  facet normal 1 0 0
    outer loop
      vertex -5 26 2
      vertex -5 23 4
      vertex -5 23 2
    endloop
  endfacet
  facet normal 1 0 0
    outer loop
      vertex -5 26 6
      vertex -5 23 4
      vertex -5 26 2
    endloop
  endfacet
  facet normal 0 0 1
    outer loop
      vertex -5 13 2
      vertex -5 10 2
      vertex 5 10 2
    endloop
  endfacet
  facet normal 0 0 1
    outer loop
      vertex 5 13 2
      vertex -5 13 2
      vertex 5 10 2
    endloop
  endfacet
  facet normal -1 0 0
    outer loop
      vertex 5 10 2
      vertex 5 10 6
      vertex 5 13 2
    endloop
  endfacet
  facet normal -1 0 0
    outer loop
      vertex 5 13 4
      vertex 5 10 6
      vertex 5 26 6
    endloop
  endfacet
  facet normal -1 0 0
    outer loop
      vertex 5 23 2
      vertex 5 26 6
      vertex 5 26 2
    endloop
  endfacet
  facet normal -1 0 0
    outer loop
      vertex 5 23 4
      vertex 5 26 6
      vertex 5 23 2
    endloop
  endfacet
  facet normal -1 0 0
    outer loop
      vertex 5 13 2
      vertex 5 10 6
      vertex 5 13 4
    endloop
  endfacet
  facet normal -1 0 0
    outer loop
      vertex 5 13 4
      vertex 5 26 6
      vertex 5 23 4
    endloop
  endfacet
  facet normal 0 0 1
    outer loop
      vertex 5 26 6
      vertex 5 10 6
      vertex 8 10 6
    endloop
  endfacet
  facet normal 0 0 1
    outer loop
      vertex 8 26 6
      vertex 5 26 6
      vertex 8 10 6
    endloop
  endfacet
  facet normal 1 0 0
    outer loop
      vertex 8 10 6
      vertex 8 10 0
      vertex 8 13 0
    endloop
  endfacet
  facet normal 1 0 0
    outer loop
      vertex 8 23 4
      vertex 8 10 6
      vertex 8 13 4
    endloop
  endfacet
  facet normal 1 0 0
    outer loop
      vertex 8 13 4
      vertex 8 10 6
      vertex 8 13 0
    endloop
  endfacet
  facet normal 1 0 0
    outer loop
      vertex 8 26 6
      vertex 8 10 6
      vertex 8 23 4
    endloop
  endfacet
  facet normal 1 0 0
    outer loop
      vertex 8 26 0
      vertex 8 23 4
      vertex 8 23 0
    endloop
  endfacet
  facet normal 1 0 0
    outer loop
      vertex 8 26 6
      vertex 8 23 4
      vertex 8 26 0
    endloop
  endfacet
  facet normal 0 0 -1
    outer loop
      vertex 5 13 4
      vertex 5 23 4
      vertex 8 13 4
    endloop
  endfacet
  facet normal 0 0 -1
    outer loop
      vertex 8 13 4
      vertex 5 23 4
      vertex 8 23 4
    endloop
  endfacet
  facet normal 0 0 1
    outer loop
      vertex -5 26 2
      vertex -5 23 2
      vertex 5 23 2
    endloop
  endfacet
  facet normal 0 0 1
    outer loop
      vertex 5 26 2
      vertex -5 26 2
      vertex 5 23 2
    endloop
  endfacet
  facet normal -1 0 0
    outer loop
      vertex 10 -8 0
      vertex 10 -8 6
      vertex 10 -5 0
    endloop
  endfacet
  facet normal -1 0 0
    outer loop
      vertex 10 -5 4
      vertex 10 -8 6
      vertex 10 8 6
    endloop
  endfacet
  facet normal -1 0 0
    outer loop
      vertex 10 5 0
      vertex 10 8 6
      vertex 10 8 0
    endloop
  endfacet
  facet normal -1 0 0
    outer loop
      vertex 10 5 4
      vertex 10 8 6
      vertex 10 5 0
    endloop
  endfacet
  facet normal -1 0 0
    outer loop
      vertex 10 -5 0
      vertex 10 -8 6
      vertex 10 -5 4
    endloop
  endfacet
  facet normal -1 0 0
    outer loop
      vertex 10 -5 4
      vertex 10 8 6
      vertex 10 5 4
    endloop
  endfacet
  facet normal 0 -1 0
    outer loop
      vertex 13 -8 2
      vertex 10 -8 0
      vertex 26 -8 0
    endloop
  endfacet
  facet normal 0 -1 0
    outer loop
      vertex 13 -8 2
      vertex 13 -8 6
      vertex 10 -8 6
    endloop
  endfacet
  facet normal 0 -1 0
    outer loop
      vertex 26 -8 6
      vertex 23 -8 6
      vertex 26 -8 0
    endloop
  endfacet
  facet normal 0 -1 0
    outer loop
      vertex 23 -8 6
      vertex 23 -8 2
      vertex 26 -8 0
    endloop
  endfacet
  facet normal 0 -1 0
    outer loop
      vertex 10 -8 6
      vertex 10 -8 0
      vertex 13 -8 2
    endloop
  endfacet
  facet normal 0 -1 0
    outer loop
      vertex 23 -8 2
      vertex 13 -8 2
      vertex 26 -8 0
    endloop
  endfacet
  facet normal 0 0 -1
    outer loop
      vertex 10 -8 0
      vertex 10 -5 0
      vertex 26 -8 0
    endloop
  endfacet
  facet normal 0 0 -1
    outer loop
      vertex 26 -8 0
      vertex 10 -5 0
      vertex 26 -5 0
    endloop
  endfacet
  facet normal 0 1 0
    outer loop
      vertex 23 -5 2
      vertex 26 -5 0
      vertex 13 -5 2
    endloop
  endfacet
  facet normal 0 1 0
    outer loop
      vertex 10 -5 0
      vertex 10 -5 4
      vertex 13 -5 2
    endloop
  endfacet
  facet normal 0 1 0
    outer loop
      vertex 10 -5 0
      vertex 13 -5 2
      vertex 26 -5 0
    endloop
  endfacet
  facet normal 0 1 0
    outer loop
      vertex 26 -5 0
      vertex 23 -5 2
      vertex 23 -5 4
    endloop
  endfacet
  facet normal 0 1 0
    outer loop
      vertex 26 -5 0
      vertex 23 -5 4
      vertex 26 -5 4
    endloop
  endfacet
  facet normal 0 1 0
    outer loop
      vertex 13 -5 2
      vertex 10 -5 4
      vertex 13 -5 4
    endloop
  endfacet
  facet normal 0 0 -1
    outer loop
      vertex 10 -5 4
      vertex 10 5 4
      vertex 13 -5 4
    endloop
  endfacet
  facet normal 0 0 -1
    outer loop
      vertex 13 -5 4
      vertex 10 5 4
      vertex 13 5 4
    endloop
  endfacet
  facet normal 0 -1 0
    outer loop
      vertex 13 5 2
      vertex 10 5 0
      vertex 26 5 0
    endloop
  endfacet
  facet normal 0 -1 0
    outer loop
      vertex 13 5 2
      vertex 13 5 4
      vertex 10 5 4
    endloop
  endfacet
  facet normal 0 -1 0
    outer loop
      vertex 26 5 4
      vertex 23 5 4
      vertex 26 5 0
    endloop
  endfacet
  facet normal 0 -1 0
    outer loop
      vertex 23 5 4
      vertex 23 5 2
      vertex 26 5 0
    endloop
  endfacet
  facet normal 0 -1 0
    outer loop
      vertex 10 5 4
      vertex 10 5 0
      vertex 13 5 2
    endloop
  endfacet
  facet normal 0 -1 0
    outer loop
      vertex 23 5 2
      vertex 13 5 2
      vertex 26 5 0
    endloop
  endfacet
  facet normal 0 0 -1
    outer loop
      vertex 10 5 0
      vertex 10 8 0
      vertex 26 5 0
    endloop
  endfacet
  facet normal 0 0 -1
    outer loop
      vertex 26 5 0
      vertex 10 8 0
      vertex 26 8 0
    endloop
  endfacet
  facet normal 0 1 0
    outer loop
      vertex 23 8 2
      vertex 26 8 0
      vertex 13 8 2
    endloop
  endfacet
  facet normal 0 1 0
    outer loop
      vertex 10 8 0
      vertex 10 8 6
      vertex 13 8 2
    endloop
  endfacet
  facet normal 0 1 0
    outer loop
      vertex 10 8 0
      vertex 13 8 2
      vertex 26 8 0
    endloop
  endfacet
  facet normal 0 1 0
    outer loop
      vertex 26 8 0
      vertex 23 8 2
      vertex 23 8 6
    endloop
  endfacet
  facet normal 0 1 0
    outer loop
      vertex 26 8 0
      vertex 23 8 6
      vertex 26 8 6
    endloop
  endfacet
  facet normal 0 1 0
    outer loop
      vertex 13 8 2
      vertex 10 8 6
      vertex 13 8 6
    endloop
  endfacet
  facet normal 0 0 1
    outer loop
      vertex 10 8 6
      vertex 10 -8 6
      vertex 13 -8 6
    endloop
  endfacet
  facet normal 0 0 1
    outer loop
      vertex 13 8 6
      vertex 10 8 6
      vertex 13 -8 6
    endloop
  endfacet
  facet normal 1 0 0
    outer loop
      vertex 13 -8 6
      vertex 13 -8 2
      vertex 13 -5 2
    endloop
  endfacet
  facet normal 1 0 0
    outer loop
      vertex 13 5 4
      vertex 13 -8 6
      vertex 13 -5 4
    endloop
  endfacet
  facet normal 1 0 0
    outer loop
      vertex 13 -5 4
      vertex 13 -8 6
      vertex 13 -5 2
    endloop
  endfacet
  facet normal 1 0 0
    outer loop
      vertex 13 8 6
      vertex 13 -8 6
      vertex 13 5 4
    endloop
  endfacet
  facet normal 1 0 0
    outer loop
      vertex 13 8 2
      vertex 13 5 4
      vertex 13 5 2
    endloop
  endfacet
  facet normal 1 0 0
    outer loop
      vertex 13 8 6
      vertex 13 5 4
      vertex 13 8 2
    endloop
  endfacet
  facet normal 0 0 1
    outer loop
      vertex 13 -5 2
      vertex 13 -8 2
      vertex 23 -8 2
    endloop
  endfacet
  facet normal 0 0 1
    outer loop
      vertex 23 -5 2
      vertex 13 -5 2
      vertex 23 -8 2
    endloop
  endfacet
  facet normal -1 0 0
    outer loop
      vertex 23 -8 2
      vertex 23 -8 6
      vertex 23 -5 2
    endloop
  endfacet
  facet normal -1 0 0
    outer loop
      vertex 23 -5 4
      vertex 23 -8 6
      vertex 23 8 6
    endloop
  endfacet
  facet normal -1 0 0
    outer loop
      vertex 23 5 2
      vertex 23 8 6
      vertex 23 8 2
    endloop
  endfacet
  facet normal -1 0 0
    outer loop
      vertex 23 5 4
      vertex 23 8 6
      vertex 23 5 2
    endloop
  endfacet
  facet normal -1 0 0
    outer loop
      vertex 23 -5 2
      vertex 23 -8 6
      vertex 23 -5 4
    endloop
  endfacet
  facet normal -1 0 0
    outer loop
      vertex 23 -5 4
      vertex 23 8 6
      vertex 23 5 4
    endloop
  endfacet
  facet normal 0 0 1
    outer loop
      vertex 23 8 6
      vertex 23 -8 6
      vertex 26 -8 6
    endloop
  endfacet
  facet normal 0 0 1
    outer loop
      vertex 26 8 6
      vertex 23 8 6
      vertex 26 -8 6
    endloop
  endfacet
  facet normal 1 0 0
    outer loop
      vertex 26 -8 6
      vertex 26 -8 0
      vertex 26 -5 0
    endloop
  endfacet
  facet normal 1 0 0
    outer loop
      vertex 26 5 4
      vertex 26 -8 6
      vertex 26 -5 4
    endloop
  endfacet
  facet normal 1 0 0
    outer loop
      vertex 26 -5 4
      vertex 26 -8 6
      vertex 26 -5 0
    endloop
  endfacet
  facet normal 1 0 0
    outer loop
      vertex 26 8 6
      vertex 26 -8 6
      vertex 26 5 4
    endloop
  endfacet
  facet normal 1 0 0
    outer loop
      vertex 26 8 0
      vertex 26 5 4
      vertex 26 5 0
    endloop
  endfacet
  facet normal 1 0 0
    outer loop
      vertex 26 8 6
      vertex 26 5 4
      vertex 26 8 0
    endloop
  endfacet
  facet normal 0 0 -1
    outer loop
      vertex 23 -5 4
      vertex 23 5 4
      vertex 26 -5 4
    endloop
  endfacet
  facet normal 0 0 -1
    outer loop
      vertex 26 -5 4
      vertex 23 5 4
      vertex 26 5 4
    endloop
  endfacet
  facet normal 0 0 1
    outer loop
      vertex 13 8 2
      vertex 13 5 2
      vertex 23 5 2
    endloop
  endfacet
  facet normal 0 0 1
    outer loop
      vertex 23 8 2
      vertex 13 8 2
      vertex 23 5 2
    endloop
  endfacet
  facet normal -1 0 0
    outer loop
      vertex 19 1 0
      vertex 19 1 6
      vertex 19 4 0
    endloop
  endfacet
  facet normal -1 0 0
    outer loop
      vertex 19 4 4
      vertex 19 1 6
      vertex 19 17 6
    endloop
  endfacet
  facet normal -1 0 0
    outer loop
      vertex 19 14 0
      vertex 19 17 6
      vertex 19 17 0
    endloop
  endfacet
  facet normal -1 0 0
    outer loop
      vertex 19 14 4
      vertex 19 17 6
      vertex 19 14 0
    endloop
  endfacet
  facet normal -1 0 0
    outer loop
      vertex 19 4 0
      vertex 19 1 6
      vertex 19 4 4
    endloop
  endfacet
  facet normal -1 0 0
    outer loop
      vertex 19 4 4
      vertex 19 17 6
      vertex 19 14 4
    endloop
  endfacet
  facet normal 0 -1 0
    outer loop
      vertex 22 1 2
      vertex 19 1 0
      vertex 35 1 0
    endloop
  endfacet
  facet normal 0 -1 0
    outer loop
      vertex 22 1 2
      vertex 22 1 6
      vertex 19 1 6
    endloop
  endfacet
  facet normal 0 -1 0
    outer loop
      vertex 35 1 6
      vertex 32 1 6
      vertex 35 1 0
    endloop
  endfacet
  facet normal 0 -1 0
    outer loop
      vertex 32 1 6
      vertex 32 1 2
      vertex 35 1 0
    endloop
  endfacet
  facet normal 0 -1 0
    outer loop
      vertex 19 1 6
      vertex 19 1 0
      vertex 22 1 2
    endloop
  endfacet
  facet normal 0 -1 0
    outer loop
      vertex 32 1 2
      vertex 22 1 2
      vertex 35 1 0
    endloop
  endfacet
  facet normal 0 0 -1
    outer loop
      vertex 19 1 0
      vertex 19 4 0
      vertex 35 1 0
    endloop
  endfacet
  facet normal 0 0 -1
    outer loop
      vertex 35 1 0
      vertex 19 4 0
      vertex 35 4 0
    endloop
  endfacet
  facet normal 0 1 0
    outer loop
      vertex 32 4 2
      vertex 35 4 0
      vertex 22 4 2
    endloop
  endfacet
  facet normal 0 1 0
    outer loop
      vertex 19 4 0
      vertex 19 4 4
      vertex 22 4 2
    endloop
  endfacet
  facet normal 0 1 0
    outer loop
      vertex 19 4 0
      vertex 22 4 2
      vertex 35 4 0
    endloop
  endfacet
  facet normal 0 1 0
    outer loop
      vertex 35 4 0
      vertex 32 4 2
      vertex 32 4 4
    endloop
  endfacet
  facet normal 0 1 0
    outer loop
      vertex 35 4 0
      vertex 32 4 4
      vertex 35 4 4
    endloop
  endfacet
  facet normal 0 1 0
    outer loop
      vertex 22 4 2
      vertex 19 4 4
      vertex 22 4 4
    endloop
  endfacet
  facet normal 0 0 -1
    outer loop
      vertex 19 4 4
      vertex 19 14 4
      vertex 22 4 4
    endloop
  endfacet
  facet normal 0 0 -1
    outer loop
      vertex 22 4 4
      vertex 19 14 4
      vertex 22 14 4
    endloop
  endfacet
  facet normal 0 -1 0
    outer loop
      vertex 22 14 2
      vertex 19 14 0
      vertex 35 14 0
    endloop
  endfacet
  facet normal 0 -1 0
    outer loop
      vertex 22 14 2
      vertex 22 14 4
      vertex 19 14 4
    endloop
  endfacet
  facet normal 0 -1 0
    outer loop
      vertex 35 14 4
      vertex 32 14 4
      vertex 35 14 0
    endloop
  endfacet
  facet normal 0 -1 0
    outer loop
      vertex 32 14 4
      vertex 32 14 2
      vertex 35 14 0
    endloop
  endfacet
  facet normal 0 -1 0
    outer loop
      vertex 19 14 4
      vertex 19 14 0
      vertex 22 14 2
    endloop
  endfacet
  facet normal 0 -1 0
    outer loop
      vertex 32 14 2
      vertex 22 14 2
      vertex 35 14 0
    endloop
  endfacet
  facet normal 0 0 -1
    outer loop
      vertex 19 14 0
      vertex 19 17 0
      vertex 35 14 0
    endloop
  endfacet
  facet normal 0 0 -1
    outer loop
      vertex 35 14 0
      vertex 19 17 0
      vertex 35 17 0
    endloop
  endfacet
  facet normal 0 1 0
    outer loop
      vertex 32 17 2
      vertex 35 17 0
      vertex 22 17 2
    endloop
  endfacet
  facet normal 0 1 0
    outer loop
      vertex 19 17 0
      vertex 19 17 6
      vertex 22 17 2
    endloop
  endfacet
  facet normal 0 1 0
    outer loop
      vertex 19 17 0
      vertex 22 17 2
      vertex 35 17 0
    endloop
  endfacet
  facet normal 0 1 0
    outer loop
      vertex 35 17 0
      vertex 32 17 2
      vertex 32 17 6
    endloop
  endfacet
  facet normal 0 1 0
    outer loop
      vertex 35 17 0
      vertex 32 17 6
      vertex 35 17 6
    endloop
  endfacet
  facet normal 0 1 0
    outer loop
      vertex 22 17 2
      vertex 19 17 6
      vertex 22 17 6
    endloop
  endfacet
  facet normal 0 0 1
    outer loop
      vertex 19 17 6
      vertex 19 1 6
      vertex 22 1 6
    endloop
  endfacet
  facet normal 0 0 1
    outer loop
      vertex 22 17 6
      vertex 19 17 6
      vertex 22 1 6
    endloop
  endfacet
  facet normal 1 0 0
    outer loop
      vertex 22 1 6
      vertex 22 1 2
      vertex 22 4 2
    endloop
  endfacet
  facet normal 1 0 0
    outer loop
      vertex 22 14 4
      vertex 22 1 6
      vertex 22 4 4
    endloop
  endfacet
  facet normal 1 0 0
    outer loop
      vertex 22 4 4
      vertex 22 1 6
      vertex 22 4 2
    endloop
  endfacet
  facet normal 1 0 0
    outer loop
      vertex 22 17 6
      vertex 22 1 6
      vertex 22 14 4
    endloop
  endfacet
  facet normal 1 0 0
    outer loop
      vertex 22 17 2
      vertex 22 14 4
      vertex 22 14 2
    endloop
  endfacet
  facet normal 1 0 0
    outer loop
      vertex 22 17 6
      vertex 22 14 4
      vertex 22 17 2
    endloop
  endfacet
  facet normal 0 0 1
    outer loop
      vertex 22 4 2
      vertex 22 1 2
      vertex 32 1 2
    endloop
  endfacet
  facet normal 0 0 1
    outer loop
      vertex 32 4 2
      vertex 22 4 2
      vertex 32 1 2
    endloop
  endfacet
  facet normal -1 0 0
    outer loop
      vertex 32 1 2
      vertex 32 1 6
      vertex 32 4 2
    endloop
  endfacet
  facet normal -1 0 0
    outer loop
      vertex 32 4 4
      vertex 32 1 6
      vertex 32 17 6
    endloop
  endfacet
  facet normal -1 0 0
    outer loop
      vertex 32 14 2
      vertex 32 17 6
      vertex 32 17 2
    endloop
  endfacet
  facet normal -1 0 0
    outer loop
      vertex 32 14 4
      vertex 32 17 6
      vertex 32 14 2
    endloop
  endfacet
  facet normal -1 0 0
    outer loop
      vertex 32 4 2
      vertex 32 1 6
      vertex 32 4 4
    endloop
  endfacet
  facet normal -1 0 0
    outer loop
      vertex 32 4 4
      vertex 32 17 6
      vertex 32 14 4
    endloop
  endfacet
  facet normal 0 0 1
    outer loop
      vertex 32 17 6
      vertex 32 1 6
      vertex 35 1 6
    endloop
  endfacet
  facet normal 0 0 1
    outer loop
      vertex 35 17 6
      vertex 32 17 6
      vertex 35 1 6
    endloop
  endfacet
  facet normal 1 0 0
    outer loop
      vertex 35 1 6
      vertex 35 1 0
      vertex 35 4 0
    endloop
  endfacet
  facet normal 1 0 0
    outer loop
      vertex 35 14 4
      vertex 35 1 6
      vertex 35 4 4
    endloop
  endfacet
  facet normal 1 0 0
    outer loop
      vertex 35 4 4
      vertex 35 1 6
      vertex 35 4 0
    endloop
  endfacet
  facet normal 1 0 0
    outer loop
      vertex 35 17 6
      vertex 35 1 6
      vertex 35 14 4
    endloop
  endfacet
  facet normal 1 0 0
    outer loop
      vertex 35 17 0
      vertex 35 14 4
      vertex 35 14 0
    endloop
  endfacet
  facet normal 1 0 0
    outer loop
      vertex 35 17 6
      vertex 35 14 4
      vertex 35 17 0
    endloop
  endfacet
  facet normal 0 0 -1
    outer loop
      vertex 32 4 4
      vertex 32 14 4
      vertex 35 4 4
    endloop
  endfacet
  facet normal 0 0 -1
    outer loop
      vertex 35 4 4
      vertex 32 14 4
      vertex 35 14 4
    endloop
  endfacet
  facet normal 0 0 1
    outer loop
      vertex 22 17 2
      vertex 22 14 2
      vertex 32 14 2
    endloop
  endfacet
  facet normal 0 0 1
    outer loop
      vertex 32 17 2
      vertex 22 17 2
      vertex 32 14 2
    endloop
  endfacet
  facet normal -1 0 0
    outer loop
      vertex 10 10 0
      vertex 10 10 6
      vertex 10 13 0
    endloop
  endfacet
  facet normal -1 0 0
    outer loop
      vertex 10 13 4
      vertex 10 10 6
      vertex 10 26 6
    endloop
  endfacet
  facet normal -1 0 0
    outer loop
      vertex 10 23 0
      vertex 10 26 6
      vertex 10 26 0
    endloop
  endfacet
  facet normal -1 0 0
    outer loop
      vertex 10 23 4
      vertex 10 26 6
      vertex 10 23 0
    endloop
  endfacet
  facet normal -1 0 0
    outer loop
      vertex 10 13 0
      vertex 10 10 6
      vertex 10 13 4
    endloop
  endfacet
  facet normal -1 0 0
    outer loop
      vertex 10 13 4
      vertex 10 26 6
      vertex 10 23 4
    endloop
  endfacet
  facet normal 0 -1 0
    outer loop
      vertex 13 10 2
      vertex 10 10 0
      vertex 26 10 0
    endloop
  endfacet
  facet normal 0 -1 0
    outer loop
      vertex 13 10 2
      vertex 13 10 6
      vertex 10 10 6
    endloop
  endfacet
  facet normal 0 -1 0
    outer loop
      vertex 26 10 6
      vertex 23 10 6
      vertex 26 10 0
    endloop
  endfacet
  facet normal 0 -1 0
    outer loop
      vertex 23 10 6
      vertex 23 10 2
      vertex 26 10 0
    endloop
  endfacet
  facet normal 0 -1 0
    outer loop
      vertex 10 10 6
      vertex 10 10 0
      vertex 13 10 2
    endloop
  endfacet
  facet normal 0 -1 0
    outer loop
      vertex 23 10 2
      vertex 13 10 2
      vertex 26 10 0
    endloop
  endfacet
  facet normal 0 0 -1
    outer loop
      vertex 10 10 0
      vertex 10 13 0
      vertex 26 10 0
    endloop
  endfacet
  facet normal 0 0 -1
    outer loop
      vertex 26 10 0
      vertex 10 13 0
      vertex 26 13 0
    endloop
  endfacet
  facet normal 0 1 0
    outer loop
      vertex 23 13 2
      vertex 26 13 0
      vertex 13 13 2
    endloop
  endfacet
  facet normal 0 1 0
    outer loop
      vertex 10 13 0
      vertex 10 13 4
      vertex 13 13 2
    endloop
  endfacet
  facet normal 0 1 0
    outer loop
      vertex 10 13 0
      vertex 13 13 2
      vertex 26 13 0
    endloop
  endfacet
  facet normal 0 1 0
    outer loop
      vertex 26 13 0
      vertex 23 13 2
      vertex 23 13 4
    endloop
  endfacet
  facet normal 0 1 0
    outer loop
      vertex 26 13 0
      vertex 23 13 4
      vertex 26 13 4
    endloop
  endfacet
  facet normal 0 1 0
    outer loop
      vertex 13 13 2
      vertex 10 13 4
      vertex 13 13 4
    endloop
  endfacet
  facet normal 0 0 -1
    outer loop
      vertex 10 13 4
      vertex 10 23 4
      vertex 13 13 4
    endloop
  endfacet
  facet normal 0 0 -1
    outer loop
      vertex 13 13 4
      vertex 10 23 4
      vertex 13 23 4
    endloop
  endfacet
  facet normal 0 -1 0
    outer loop
      vertex 13 23 2
      vertex 10 23 0
      vertex 26 23 0
    endloop
  endfacet
  facet normal 0 -1 0
    outer loop
      vertex 13 23 2
      vertex 13 23 4
      vertex 10 23 4
    endloop
  endfacet
  facet normal 0 -1 0
    outer loop
      vertex 26 23 4
      vertex 23 23 4
      vertex 26 23 0
    endloop
  endfacet
  facet normal 0 -1 0
    outer loop
      vertex 23 23 4
      vertex 23 23 2
      vertex 26 23 0
    endloop
  endfacet
  facet normal 0 -1 0
    outer loop
      vertex 10 23 4
      vertex 10 23 0
      vertex 13 23 2
    endloop
  endfacet
  facet normal 0 -1 0
    outer loop
      vertex 23 23 2
      vertex 13 23 2
      vertex 26 23 0
    endloop
  endfacet
  facet normal 0 0 -1
    outer loop
      vertex 10 23 0
      vertex 10 26 0
      vertex 26 23 0
    endloop
  endfacet
  facet normal 0 0 -1
    outer loop
      vertex 26 23 0
      vertex 10 26 0
      vertex 26 26 0
    endloop
  endfacet
  facet normal 0 1 0
    outer loop
      vertex 23 26 2
      vertex 26 26 0
      vertex 13 26 2
    endloop
  endfacet
  facet normal 0 1 0
    outer loop
      vertex 10 26 0
      vertex 10 26 6
      vertex 13 26 2
    endloop
  endfacet
  facet normal 0 1 0
    outer loop
      vertex 10 26 0
      vertex 13 26 2
      vertex 26 26 0
    endloop
  endfacet
  facet normal 0 1 0
    outer loop
      vertex 26 26 0
      vertex 23 26 2
      vertex 23 26 6
    endloop
  endfacet
  facet normal 0 1 0
    outer loop
      vertex 26 26 0
      vertex 23 26 6
      vertex 26 26 6
    endloop
  endfacet
  facet normal 0 1 0
    outer loop
      vertex 13 26 2
      vertex 10 26 6
      vertex 13 26 6
    endloop
  endfacet
  facet normal 0 0 1
    outer loop
      vertex 10 26 6
      vertex 10 10 6
      vertex 13 10 6
    endloop
  endfacet
  facet normal 0 0 1
    outer loop
      vertex 13 26 6
      vertex 10 26 6
      vertex 13 10 6
    endloop
  endfacet
  facet normal 1 0 0
    outer loop
      vertex 13 10 6
      vertex 13 10 2
      vertex 13 13 2
    endloop
  endfacet
  facet normal 1 0 0
    outer loop
      vertex 13 23 4
      vertex 13 10 6
      vertex 13 13 4
    endloop
  endfacet
  facet normal 1 0 0
    outer loop
      vertex 13 13 4
      vertex 13 10 6
      vertex 13 13 2
    endloop
  endfacet
  facet normal 1 0 0
    outer loop
      vertex 13 26 6
      vertex 13 10 6
      vertex 13 23 4
    endloop
  endfacet
  facet normal 1 0 0
    outer loop
      vertex 13 26 2
      vertex 13 23 4
      vertex 13 23 2
    endloop
  endfacet
  facet normal 1 0 0
    outer loop
      vertex 13 26 6
      vertex 13 23 4
      vertex 13 26 2
    endloop
  endfacet
  facet normal 0 0 1
    outer loop
      vertex 13 13 2
      vertex 13 10 2
      vertex 23 10 2
    endloop
  endfacet
  facet normal 0 0 1
    outer loop
      vertex 23 13 2
      vertex 13 13 2
      vertex 23 10 2
    endloop
  endfacet
  facet normal -1 0 0
    outer loop
      vertex 23 10 2
      vertex 23 10 6
      vertex 23 13 2
    endloop
  endfacet
  facet normal -1 0 0
    outer loop
      vertex 23 13 4
      vertex 23 10 6
      vertex 23 26 6
    endloop
  endfacet
  facet normal -1 0 0
    outer loop
      vertex 23 23 2
      vertex 23 26 6
      vertex 23 26 2
    endloop
  endfacet
  facet normal -1 0 0
    outer loop
      vertex 23 23 4
      vertex 23 26 6
      vertex 23 23 2
    endloop
  endfacet
  facet normal -1 0 0
    outer loop
      vertex 23 13 2
      vertex 23 10 6
      vertex 23 13 4
    endloop
  endfacet
  facet normal -1 0 0
    outer loop
      vertex 23 13 4
      vertex 23 26 6
      vertex 23 23 4
    endloop
  endfacet
  facet normal 0 0 1
    outer loop
      vertex 23 26 6
      vertex 23 10 6
      vertex 26 10 6
    endloop
  endfacet
  facet normal 0 0 1
    outer loop
      vertex 26 26 6
      vertex 23 26 6
      vertex 26 10 6
    endloop
  endfacet
  facet normal 1 0 0
    outer loop
      vertex 26 10 6
      vertex 26 10 0
      vertex 26 13 0
    endloop
  endfacet
  facet normal 1 0 0
    outer loop
      vertex 26 23 4
      vertex 26 10 6
      vertex 26 13 4
    endloop
  endfacet
  facet normal 1 0 0
    outer loop
      vertex 26 13 4
      vertex 26 10 6
      vertex 26 13 0
    endloop
  endfacet
  facet normal 1 0 0
    outer loop
      vertex 26 26 6
      vertex 26 10 6
      vertex 26 23 4
    endloop
  endfacet
  facet normal 1 0 0
    outer loop
      vertex 26 26 0
      vertex 26 23 4
      vertex 26 23 0
    endloop
  endfacet
  facet normal 1 0 0
    outer loop
      vertex 26 26 6
      vertex 26 23 4
      vertex 26 26 0
    endloop
  endfacet
  facet normal 0 0 -1
    outer loop
      vertex 23 13 4
      vertex 23 23 4
      vertex 26 13 4
    endloop
  endfacet
  facet normal 0 0 -1
    outer loop
      vertex 26 13 4
      vertex 23 23 4
      vertex 26 23 4
    endloop
  endfacet
  facet normal 0 0 1
    outer loop
      vertex 13 26 2
      vertex 13 23 2
      vertex 23 23 2
    endloop
  endfacet
  facet normal 0 0 1
    outer loop
      vertex 23 26 2
      vertex 13 26 2
      vertex 23 23 2
    endloop
  endfacet
endsolid OpenSCAD_Model
