  0
SECTION
  2
HEADER
  9
$ACADVER
  1
AC1032
  9
$ACADMAINTVER
 90
4
  9
$DWGCODEPAGE
  3
ANSI_1252
  9
$LASTSAVEDBY
  1
ezdxf
  9
$REQUIREDVERSIONS
160
0
  9
$INSBASE
 10
0.0
 20
0.0
 30
0.0
  9
$EXTMIN
 10
1e+20
 20
1e+20
 30
1e+20
  9
$EXTMAX
 10
-1e+20
 20
-1e+20
 30
-1e+20
  9
$LIMMIN
 10
0.0
 20
0.0
  9
$LIMMAX
 10
420.0
 20
297.0
  9
$ORTHOMODE
 70
0
  9
$REGENMODE
 70
1
  9
$FILLMODE
 70
1
  9
$QTEXTMODE
 70
0
  9
$MIRRTEXT
 70
1
  9
$LTSCALE
 40
1.0
  9
$ATTMODE
 70
1
  9
$TEXTSIZE
 40
2.5
  9
$TRACEWID
 40
1.0
  9
$TEXTSTYLE
  7
Standard
  9
$CLAYER
  8
0
  9
$CELTYPE
  6
ByLayer
  9
$CECOLOR
 62
256
  9
$CELTSCALE
 40
1.0
  9
$DISPSILH
 70
0
  9
$DIMSCALE
 40
1.0
  9
$DIMASZ
 40
2.5
  9
$DIMEXO
 40
0.625
  9
$DIMDLI
 40
3.75
  9
$DIMRND
 40
0.0
  9
$DIMDLE
 40
0.0
  9
$DIMEXE
 40
1.25
  9
$DIMTP
 40
0.0
  9
$DIMTM
 40
0.0
  9
$DIMTXT
 40
2.5
  9
$DIMCEN
 40
2.5
  9
$DIMTSZ
 40
0.0
  9
$DIMTOL
 70
0
  9
$DIMLIM
 70
0
  9
$DIMTIH
 70
0
  9
$DIMTOH
 70
0
  9
$DIMSE1
 70
0
  9
$DIMSE2
 70
0
  9
$DIMTAD
 70
1
  9
$DIMZIN
 70
8
  9
$DIMBLK
  1

  9
$DIMASO
 70
1
  9
$DIMSHO
 70
1
  9
$DIMPOST
  1

  9
$DIMAPOST
  1

  9
$DIMALT
 70
0
  9
$DIMALTD
 70
3
  9
$DIMALTF
 40
0.03937007874
  9
$DIMLFAC
 40
1.0
  9
$DIMTOFL
 70
1
  9
$DIMTVP
 40
0.0
  9
$DIMTIX
 70
0
  9
$DIMSOXD
 70
0
  9
$DIMSAH
 70
0
  9
$DIMBLK1
  1

  9
$DIMBLK2
  1

  9
$DIMSTYLE
  2
ISO-25
  9
$DIMCLRD
 70
0
  9
$DIMCLRE
 70
0
  9
$DIMCLRT
 70
0
  9
$DIMTFAC
 40
1.0
  9
$DIMGAP
 40
0.625
  9
$DIMJUST
 70
0
  9
$DIMSD1
 70
0
  9
$DIMSD2
 70
0
  9
$DIMTOLJ
 70
0
  9
$DIMTZIN
 70
8
  9
$DIMALTZ
 70
0
  9
$DIMALTTZ
 70
0
  9
$DIMUPT
 70
0
  9
$DIMDEC
 70
2
  9
$DIMTDEC
 70
2
  9
$DIMALTU
 70
2
  9
$DIMALTTD
 70
3
  9
$DIMTXSTY
  7
Standard
  9
$DIMAUNIT
 70
0
  9
$DIMADEC
 70
0
  9
$DIMALTRND
 40
0.0
  9
$DIMAZIN
 70
0
  9
$DIMDSEP
 70
44
  9
$DIMATFIT
 70
3
  9
$DIMFRAC
 70
0
  9
$DIMLDRBLK
  1

  9
$DIMLUNIT
 70
2
  9
$DIMLWD
 70
-2
  9
$DIMLWE
 70
-2
  9
$DIMTMOVE
 70
0
  9
$DIMFXL
 40
1.0
  9
$DIMFXLON
 70
0
  9
$DIMJOGANG
 40
0.785398163397
  9
$DIMTFILL
 70
0
  9
$DIMTFILLCLR
 70
0
  9
$DIMARCSYM
 70
0
  9
$DIMLTYPE
  6

  9
$DIMLTEX1
  6

  9
$DIMLTEX2
  6

  9
$DIMTXTDIRECTION
 70
0
  9
$LUNITS
 70
2
  9
$LUPREC
 70
4
  9
$SKETCHINC
 40
1.0
  9
$FILLETRAD
 40
10.0
  9
$AUNITS
 70
0
  9
$AUPREC
 70
2
  9
$MENU
  1
.
  9
$ELEVATION
 40
0.0
  9
$PELEVATION
 40
0.0
  9
$THICKNESS
 40
0.0
  9
$LIMCHECK
 70
0
  9
$CHAMFERA
 40
0.0
  9
$CHAMFERB
 40
0.0
  9
$CHAMFERC
 40
0.0
  9
$CHAMFERD
 40
0.0
  9
$SKPOLY
 70
0
  9
$TDCREATE
 40
2460681.8196643516
  9
$TDUCREATE
 40
2458532.153996898
  9
$TDUPDATE
 40
2460681.8196643516
  9
$TDUUPDATE
 40
2458532.1544311
  9
$TDINDWG
 40
0.0
  9
$TDUSRTIMER
 40
0.0
  9
$USRTIMER
 70
1
  9
$ANGBASE
 50
0.0
  9
$ANGDIR
 70
0
  9
$PDMODE
 70
0
  9
$PDSIZE
 40
0.0
  9
$PLINEWID
 40
0.0
  9
$SPLFRAME
 70
0
  9
$SPLINETYPE
 70
6
  9
$SPLINESEGS
 70
8
  9
$HANDSEED
  5
35
  9
$SURFTAB1
 70
6
  9
$SURFTAB2
 70
6
  9
$SURFTYPE
 70
6
  9
$SURFU
 70
6
  9
$SURFV
 70
6
  9
$UCSBASE
  2

  9
$UCSNAME
  2

  9
$UCSORG
 10
0.0
 20
0.0
 30
0.0
  9
$UCSXDIR
 10
1.0
 20
0.0
 30
0.0
  9
$UCSYDIR
 10
0.0
 20
1.0
 30
0.0
  9
$UCSORTHOREF
  2

  9
$UCSORTHOVIEW
 70
0
  9
$UCSORGTOP
 10
0.0
 20
0.0
 30
0.0
  9
$UCSORGBOTTOM
 10
0.0
 20
0.0
 30
0.0
  9
$UCSORGLEFT
 10
0.0
 20
0.0
 30
0.0
  9
$UCSORGRIGHT
 10
0.0
 20
0.0
 30
0.0
  9
$UCSORGFRONT
 10
0.0
 20
0.0
 30
0.0
  9
$UCSORGBACK
 10
0.0
 20
0.0
 30
0.0
  9
$PUCSBASE
  2

  9
$PUCSNAME
  2

  9
$PUCSORG
 10
0.0
 20
0.0
 30
0.0
  9
$PUCSXDIR
 10
1.0
 20
0.0
 30
0.0
  9
$PUCSYDIR
 10
0.0
 20
1.0
 30
0.0
  9
$PUCSORTHOREF
  2

  9
$PUCSORTHOVIEW
 70
0
  9
$PUCSORGTOP
 10
0.0
 20
0.0
 30
0.0
  9
$PUCSORGBOTTOM
 10
0.0
 20
0.0
 30
0.0
  9
$PUCSORGLEFT
 10
0.0
 20
0.0
 30
0.0
  9
$PUCSORGRIGHT
 10
0.0
 20
0.0
 30
0.0
  9
$PUCSORGFRONT
 10
0.0
 20
0.0
 30
0.0
  9
$PUCSORGBACK
 10
0.0
 20
0.0
 30
0.0
  9
$USERI1
 70
0
  9
$USERI2
 70
0
  9
$USERI3
 70
0
  9
$USERI4
 70
0
  9
$USERI5
 70
0
  9
$USERR1
 40
0.0
  9
$USERR2
 40
0.0
  9
$USERR3
 40
0.0
  9
$USERR4
 40
0.0
  9
$USERR5
 40
0.0
  9
$WORLDVIEW
 70
1
  9
$SHADEDGE
 70
3
  9
$SHADEDIF
 70
70
  9
$TILEMODE
 70
1
  9
$MAXACTVP
 70
64
  9
$PINSBASE
 10
0.0
 20
0.0
 30
0.0
  9
$PLIMCHECK
 70
0
  9
$PEXTMIN
 10
1e+20
 20
1e+20
 30
1e+20
  9
$PEXTMAX
 10
-1e+20
 20
-1e+20
 30
-1e+20
  9
$PLIMMIN
 10
0.0
 20
0.0
  9
$PLIMMAX
 10
420.0
 20
297.0
  9
$UNITMODE
 70
0
  9
$VISRETAIN
 70
1
  9
$PLINEGEN
 70
0
  9
$PSLTSCALE
 70
1
  9
$TREEDEPTH
 70
3020
  9
$CMLSTYLE
  2
Standard
  9
$CMLJUST
 70
0
  9
$CMLSCALE
 40
20.0
  9
$PROXYGRAPHICS
 70
1
  9
$MEASUREMENT
 70
1
  9
$CELWEIGHT
370
-1
  9
$ENDCAPS
280
0
  9
$JOINSTYLE
280
0
  9
$LWDISPLAY
290
0
  9
$INSUNITS
 70
4
  9
$HYPERLINKBASE
  1

  9
$STYLESHEET
  1

  9
$XEDIT
290
1
  9
$CEPSNTYPE
380
0
  9
$PSTYLEMODE
290
1
  9
$FINGERPRINTGUID
  2
{E7A86C9E-BDC8-4840-BA1A-3A5FC2564565}
  9
$VERSIONGUID
  2
{51F34997-EE0C-4C8C-B823-ADFA2F4944F1}
  9
$EXTNAMES
290
1
  9
$PSVPSCALE
 40
0.0
  9
$OLESTARTUP
290
0
  9
$SORTENTS
280
127
  9
$INDEXCTL
280
0
  9
$HIDETEXT
280
1
  9
$XCLIPFRAME
280
1
  9
$HALOGAP
280
0
  9
$OBSCOLOR
 70
257
  9
$OBSLTYPE
280
0
  9
$INTERSECTIONDISPLAY
280
0
  9
$INTERSECTIONCOLOR
 70
257
  9
$DIMASSOC
280
2
  9
$PROJECTNAME
  1

  9
$CAMERADISPLAY
290
0
  9
$LENSLENGTH
 40
50.0
  9
$CAMERAHEIGHT
 40
0.0
  9
$STEPSPERSEC
 40
24.0
  9
$STEPSIZE
 40
100.0
  9
$3DDWFPREC
 40
2.0
  9
$PSOLWIDTH
 40
0.005
  9
$PSOLHEIGHT
 40
0.08
  9
$LOFTANG1
 40
1.570796326795
  9
$LOFTANG2
 40
1.570796326795
  9
$LOFTMAG1
 40
0.0
  9
$LOFTMAG2
 40
0.0
  9
$LOFTPARAM
 70
7
  9
$LOFTNORMALS
280
1
  9
$LATITUDE
 40
37.795
  9
$LONGITUDE
 40
-122.394
  9
$NORTHDIRECTION
 40
0.0
  9
$TIMEZONE
 70
-8000
  9
$LIGHTGLYPHDISPLAY
280
1
  9
$TILEMODELIGHTSYNCH
280
1
  9
$CMATERIAL
347
20
  9
$SOLIDHIST
280
0
  9
$SHOWHIST
280
1
  9
$DWFFRAME
280
2
  9
$DGNFRAME
280
2
  9
$REALWORLDSCALE
290
1
  9
$INTERFERECOLOR
 62
256
  9
$CSHADOW
280
0
  9
$SHADOWPLANELOCATION
 40
0.0
  0
ENDSEC
  0
SECTION
  2
CLASSES
  0
CLASS
  1
ACDBDICTIONARYWDFLT
  2
AcDbDictionaryWithDefault
  3
ObjectDBX Classes
 90
0
 91
0
280
0
281
0
  0
CLASS
  1
SUN
  2
AcDbSun
  3
SCENEOE
 90
1153
 91
0
280
0
281
0
  0
CLASS
  1
VISUALSTYLE
  2
AcDbVisualStyle
  3
ObjectDBX Classes
 90
4095
 91
0
280
0
281
0
  0
CLASS
  1
MATERIAL
  2
AcDbMaterial
  3
ObjectDBX Classes
 90
1153
 91
0
280
0
281
0
  0
CLASS
  1
SCALE
  2
AcDbScale
  3
ObjectDBX Classes
 90
1153
 91
0
280
0
281
0
  0
CLASS
  1
TABLESTYLE
  2
AcDbTableStyle
  3
ObjectDBX Classes
 90
4095
 91
0
280
0
281
0
  0
CLASS
  1
MLEADERSTYLE
  2
AcDbMLeaderStyle
  3
ACDB_MLEADERSTYLE_CLASS
 90
4095
 91
0
280
0
281
0
  0
CLASS
  1
DICTIONARYVAR
  2
AcDbDictionaryVar
  3
ObjectDBX Classes
 90
0
 91
0
280
0
281
0
  0
CLASS
  1
CELLSTYLEMAP
  2
AcDbCellStyleMap
  3
ObjectDBX Classes
 90
1152
 91
0
280
0
281
0
  0
CLASS
  1
MENTALRAYRENDERSETTINGS
  2
AcDbMentalRayRenderSettings
  3
SCENEOE
 90
1024
 91
0
280
0
281
0
  0
CLASS
  1
ACDBDETAILVIEWSTYLE
  2
AcDbDetailViewStyle
  3
ObjectDBX Classes
 90
1025
 91
0
280
0
281
0
  0
CLASS
  1
ACDBSECTIONVIEWSTYLE
  2
AcDbSectionViewStyle
  3
ObjectDBX Classes
 90
1025
 91
0
280
0
281
0
  0
CLASS
  1
RASTERVARIABLES
  2
AcDbRasterVariables
  3
ISM
 90
0
 91
0
280
0
281
0
  0
CLASS
  1
ACDBPLACEHOLDER
  2
AcDbPlaceHolder
  3
ObjectDBX Classes
 90
0
 91
0
280
0
281
0
  0
CLASS
  1
LAYOUT
  2
AcDbLayout
  3
ObjectDBX Classes
 90
0
 91
0
280
0
281
0
  0
ENDSEC
  0
SECTION
  2
TABLES
  0
TABLE
  2
VPORT
  5
8
330
0
100
AcDbSymbolTable
 70
1
  0
VPORT
  5
23
330
8
100
AcDbSymbolTableRecord
100
AcDbViewportTableRecord
  2
*Active
 70
0
 10
0.0
 20
0.0
 11
1.0
 21
1.0
 12
0.0
 22
0.0
 13
0.0
 23
0.0
 14
0.5
 24
0.5
 15
0.5
 25
0.5
 16
0.0
 26
0.0
 36
1.0
 17
0.0
 27
0.0
 37
0.0
 40
1000.0
 41
1.34
 42
50.0
 43
0.0
 44
0.0
 50
0.0
 51
0.0
 71
0
 72
1000
 73
1
 74
3
 75
0
 76
0
 77
0
 78
0
281
0
 65
0
146
0.0
  0
ENDTAB
  0
TABLE
  2
LTYPE
  5
2
330
0
100
AcDbSymbolTable
 70
3
  0
LTYPE
  5
24
330
2
100
AcDbSymbolTableRecord
100
AcDbLinetypeTableRecord
  2
ByBlock
 70
0
  3

 72
65
 73
0
 40
0.0
  0
LTYPE
  5
25
330
2
100
AcDbSymbolTableRecord
100
AcDbLinetypeTableRecord
  2
ByLayer
 70
0
  3

 72
65
 73
0
 40
0.0
  0
LTYPE
  5
26
330
2
100
AcDbSymbolTableRecord
100
AcDbLinetypeTableRecord
  2
Continuous
 70
0
  3

 72
65
 73
0
 40
0.0
  0
ENDTAB
  0
TABLE
  2
LAYER
  5
1
330
0
100
AcDbSymbolTable
 70
2
  0
LAYER
  5
27
330
1
100
AcDbSymbolTableRecord
100
AcDbLayerTableRecord
  2
0
 70
0
 62
7
  6
Continuous
370
-3
390
13
347
21
  0
LAYER
  5
28
330
1
100
AcDbSymbolTableRecord
100
AcDbLayerTableRecord
  2
Defpoints
 70
0
 62
7
  6
Continuous
290
0
370
-3
390
13
347
21
  0
ENDTAB
  0
TABLE
  2
STYLE
  5
5
330
0
100
AcDbSymbolTable
 70
1
  0
STYLE
  5
29
330
5
100
AcDbSymbolTableRecord
100
AcDbTextStyleTableRecord
  2
Standard
 70
0
 40
0.0
 41
1.0
 50
0.0
 71
0
 42
2.5
  3
txt
  4

  0
ENDTAB
  0
TABLE
  2
VIEW
  5
7
330
0
100
AcDbSymbolTable
 70
0
  0
ENDTAB
  0
TABLE
  2
UCS
  5
6
330
0
100
AcDbSymbolTable
 70
0
  0
ENDTAB
  0
TABLE
  2
APPID
  5
3
330
0
100
AcDbSymbolTable
 70
3
  0
APPID
  5
2A
330
3
100
AcDbSymbolTableRecord
100
AcDbRegAppTableRecord
  2
ACAD
 70
0
  0
APPID
  5
32
330
3
100
AcDbSymbolTableRecord
100
AcDbRegAppTableRecord
  2
HATCHBACKGROUNDCOLOR
 70
0
  0
APPID
  5
33
330
3
100
AcDbSymbolTableRecord
100
AcDbRegAppTableRecord
  2
EZDXF
 70
0
  0
ENDTAB
  0
TABLE
  2
DIMSTYLE
  5
4
330
0
100
AcDbSymbolTable
 70
1
100
AcDbDimStyleTable
  0
DIMSTYLE
105
2B
330
4
100
AcDbSymbolTableRecord
100
AcDbDimStyleTableRecord
  2
Standard
 70
0
 40
1.0
 41
2.5
 42
0.625
 43
3.75
 44
1.25
 45
0.0
 46
0.0
 47
0.0
 48
0.0
 49
2.5
140
2.5
141
2.5
142
0.0
143
0.03937007874
144
1.0
145
0.0
146
1.0
147
0.625
148
0.0
 69
0
 70
0
 71
0
 72
0
 73
0
 74
0
 75
0
 76
0
 77
1
 78
8
 79
3
170
0
171
3
172
1
173
0
174
0
175
0
176
0
177
0
178
0
179
2
271
2
272
2
273
2
274
3
275
0
276
0
277
2
278
44
279
0
280
0
281
0
282
0
283
0
284
8
285
0
286
0
288
0
289
3
290
0
371
-2
372
-2
  0
ENDTAB
  0
TABLE
  2
BLOCK_RECORD
  5
9
330
0
100
AcDbSymbolTable
 70
2
  0
BLOCK_RECORD
  5
17
330
9
100
AcDbSymbolTableRecord
100
AcDbBlockTableRecord
  2
*Model_Space
340
1A
 70
0
280
1
281
0
  0
BLOCK_RECORD
  5
1B
330
9
100
AcDbSymbolTableRecord
100
AcDbBlockTableRecord
  2
*Paper_Space
340
1E
 70
0
280
1
281
0
  0
ENDTAB
  0
ENDSEC
  0
SECTION
  2
BLOCKS
  0
BLOCK
  5
18
330
17
100
AcDbEntity
  8
0
100
AcDbBlockBegin
  2
*Model_Space
 70
0
 10
0.0
 20
0.0
 30
0.0
  3
*Model_Space
  1

  0
ENDBLK
  5
19
330
17
100
AcDbEntity
  8
0
100
AcDbBlockEnd
  0
BLOCK
  5
1C
330
1B
100
AcDbEntity
  8
0
100
AcDbBlockBegin
  2
*Paper_Space
 70
0
 10
0.0
 20
0.0
 30
0.0
  3
*Paper_Space
  1

  0
ENDBLK
  5
1D
330
1B
100
AcDbEntity
  8
0
100
AcDbBlockEnd
  0
ENDSEC
  0
SECTION
  2
ENTITIES
  0
LWPOLYLINE
  5
2F
330
17
100
AcDbEntity
  8
0
 62
0
100
AcDbPolyline
 90
100
 70
0
 10
36.760000000000005
 20
47.129999999999995
 10
-0.269999999999996
 20
62.83
 10
-0.269999999999996
 20
67.47439556203997
 10
-0.4416195790440156
 20
67.37153074499278
 10
-0.9738994058094619
 20
67.11978113601519
 10
-1.5282919364732237
 20
66.92141631668966
 10
-2.099458067903228
 20
66.77834664866353
 10
-2.681897158022636
 20
66.69194997104972
 10
-3.269999999999996
 20
66.66305833108291
 10
-3.858102841977356
 20
66.69194997104972
 10
-4.440541932096764
 20
66.77834664866353
 10
-5.011708063526768
 20
66.92141631668966
 10
-5.56610059419053
 20
67.11978113601518
 10
-6.098380420955976
 20
67.37153074499278
 10
-6.603421398117604
 20
67.67424065726763
 10
-7.0763597049818685
 20
68.02499561090649
 10
-7.512640687119287
 20
68.42041764396362
 10
-7.908062720176417
 20
68.85669862610104
 10
-8.258817673815273
 20
69.32963693296529
 10
-8.561527586090122
 20
69.83467791012691
 10
-8.813277195067712
 20
70.36695773689237
 10
-9.011642014393246
 20
70.92135026755614
 10
-9.154711682419375
 20
71.49251639898614
 10
-9.24110836003318
 20
72.07495548910555
 10
-9.269999999999996
 20
72.66305833108291
 10
-9.24110836003318
 20
73.25116117306027
 10
-9.154711682419375
 20
73.83360026317968
 10
-9.011642014393246
 20
74.40476639460968
 10
-8.813277195067712
 20
74.95915892527344
 10
-8.561527586090122
 20
75.49143875203889
 10
-8.258817673815273
 20
75.99647972920052
 10
-7.908062720176417
 20
76.46941803606478
 10
-7.512640687119287
 20
76.90569901820218
 10
-7.0763597049818685
 20
77.30112105125933
 10
-6.603421398117604
 20
77.65187600489818
 10
-6.098380420955991
 20
77.95458591717303
 10
-5.566100594190544
 20
78.20633552615062
 10
-5.011708063526768
 20
78.40470034547616
 10
-4.440541932096764
 20
78.54777001350229
 10
-3.858102841977356
 20
78.63416669111609
 10
-3.269999999999996
 20
78.66305833108291
 10
-2.681897158022636
 20
78.63416669111609
 10
-2.099458067903228
 20
78.54777001350229
 10
-1.5282919364732237
 20
78.40470034547616
 10
-0.9738994058094619
 20
78.20633552615062
 10
-0.4416195790440156
 20
77.95458591717303
 10
-0.269999999999996
 20
77.85172110012586
 10
-0.269999999999996
 20
85.04
 10
54.400000000000006
 20
57.559999999999995
 10
85.04
 20
57.559999999999995
 10
85.04
 20
36.699999999999996
 10
54.400000000000006
 20
36.699999999999996
 10
-0.269999999999996
 20
9.269999999999996
 10
-0.269999999999996
 20
16.403949977378872
 10
-0.4416195790440156
 20
16.301085160331684
 10
-0.9738994058094619
 20
16.049335551354094
 10
-1.5282919364732237
 20
15.85097073202856
 10
-2.099458067903228
 20
15.707901064002431
 10
-2.681897158022636
 20
15.621504386388633
 10
-3.269999999999996
 20
15.592612746421814
 10
-3.858102841977356
 20
15.621504386388633
 10
-4.440541932096764
 20
15.707901064002431
 10
-5.011708063526768
 20
15.85097073202856
 10
-5.56610059419053
 20
16.049335551354094
 10
-6.098380420955976
 20
16.301085160331684
 10
-6.603421398117604
 20
16.60379507260654
 10
-7.0763597049818685
 20
16.954550026245393
 10
-7.512640687119287
 20
17.34997205930253
 10
-7.908062720176417
 20
17.786253041439938
 10
-8.258817673815273
 20
18.2591913483042
 10
-8.561527586090122
 20
18.764232325465827
 10
-8.813277195067712
 20
19.296512152231273
 10
-9.011642014393246
 20
19.85090468289504
 10
-9.154711682419375
 20
20.422070814325043
 10
-9.24110836003318
 20
21.00450990444445
 10
-9.269999999999996
 20
21.592612746421814
 10
-9.24110836003318
 20
22.180715588399174
 10
-9.154711682419375
 20
22.763154678518582
 10
-9.011642014393246
 20
23.334320809948586
 10
-8.813277195067712
 20
23.888713340612355
 10
-8.561527586090122
 20
24.4209931673778
 10
-8.258817673815273
 20
24.926034144539425
 10
-7.908062720176417
 20
25.398972451403687
 10
-7.512640687119287
 20
25.835253433541098
 10
-7.0763597049818685
 20
26.230675466598235
 10
-6.603421398117604
 20
26.581430420237083
 10
-6.098380420955991
 20
26.884140332511944
 10
-5.566100594190544
 20
27.135889941489534
 10
-5.011708063526768
 20
27.334254760815067
 10
-4.440541932096764
 20
27.477324428841197
 10
-3.858102841977356
 20
27.563721106454995
 10
-3.269999999999996
 20
27.592612746421814
 10
-2.681897158022636
 20
27.563721106454995
 10
-2.099458067903228
 20
27.477324428841197
 10
-1.5282919364732237
 20
27.334254760815067
 10
-0.9738994058094619
 20
27.135889941489534
 10
-0.4416195790440156
 20
26.884140332511944
 10
-0.269999999999996
 20
26.781275515464756
 10
-0.269999999999996
 20
31.359999999999992
 10
36.760000000000005
 20
47.129999999999995
  0
LWPOLYLINE
  5
30
330
17
100
AcDbEntity
  8
0
 62
0
100
AcDbPolyline
 90
65
 70
0
 10
-4.140854031763382
 20
24.46343375361844
 10
-4.418050297095263
 20
24.364251343955672
 10
-4.684190210477993
 20
24.238376539466877
 10
-4.936710699058807
 20
24.08702158332945
 10
-5.173179852490932
 20
23.911644106510025
 10
-5.3913203435596415
 20
23.713933089981456
 10
-5.589031360088214
 20
23.49579259891275
 10
-5.764408836907634
 20
23.259323445480618
 10
-5.915763793045059
 20
23.006802956899808
 10
-6.041638597533861
 20
22.740663043517085
 10
-6.140821007196621
 20
22.4634667781852
 10
-6.2123558412096855
 20
22.177883712470198
 10
-6.255554180016588
 20
21.886664167410494
 10
-6.269999999999996
 20
21.592612746421814
 10
-6.255554180016588
 20
21.298561325433134
 10
-6.2123558412096855
 20
21.00734178037343
 10
-6.140821007196621
 20
20.721758714658428
 10
-6.041638597533861
 20
20.444562449326543
 10
-5.915763793045059
 20
20.17842253594382
 10
-5.764408836907634
 20
19.925902047363007
 10
-5.5890313600882
 20
19.689432893930878
 10
-5.3913203435596415
 20
19.471292402862172
 10
-5.173179852490932
 20
19.273581386333603
 10
-4.936710699058807
 20
19.098203909514176
 10
-4.684190210477993
 20
18.94684895337675
 10
-4.418050297095263
 20
18.820974148887956
 10
-4.140854031763382
 20
18.72179173922519
 10
-3.85527096604838
 20
18.650256905212125
 10
-3.564051420988676
 20
18.60705856640522
 10
-3.269999999999996
 20
18.592612746421814
 10
-2.975948579011316
 20
18.60705856640522
 10
-2.684729033951612
 20
18.650256905212125
 10
-2.39914596823661
 20
18.72179173922519
 10
-2.121949702904729
 20
18.820974148887956
 10
-1.8558097895219987
 20
18.94684895337675
 10
-1.603289300941185
 20
19.098203909514176
 10
-1.3668201475090598
 20
19.273581386333603
 10
-1.1486796564403505
 20
19.471292402862172
 10
-0.9509686399117783
 20
19.689432893930878
 10
-0.7755911630923578
 20
19.92590204736301
 10
-0.624236206954933
 20
20.17842253594382
 10
-0.4983614024661307
 20
20.444562449326547
 10
-0.3991789928033711
 20
20.721758714658428
 10
-0.3276441587903065
 20
21.00734178037343
 10
-0.2844458199834037
 20
21.298561325433134
 10
-0.269999999999996
 20
21.592612746421814
 10
-0.2844458199834037
 20
21.886664167410494
 10
-0.3276441587903065
 20
22.177883712470198
 10
-0.3991789928033711
 20
22.4634667781852
 10
-0.4983614024661307
 20
22.74066304351708
 10
-0.624236206954933
 20
23.006802956899808
 10
-0.7755911630923578
 20
23.25932344548062
 10
-0.9509686399117783
 20
23.49579259891275
 10
-1.1486796564403505
 20
23.713933089981456
 10
-1.3668201475090598
 20
23.911644106510025
 10
-1.603289300941185
 20
24.08702158332945
 10
-1.8558097895219987
 20
24.238376539466877
 10
-2.121949702904729
 20
24.364251343955672
 10
-2.39914596823661
 20
24.46343375361844
 10
-2.684729033951612
 20
24.534968587631504
 10
-2.975948579011316
 20
24.578166926438406
 10
-3.269999999999996
 20
24.592612746421814
 10
-3.564051420988676
 20
24.578166926438406
 10
-3.85527096604838
 20
24.534968587631504
 10
-4.140854031763382
 20
24.46343375361844
  0
LWPOLYLINE
  5
31
330
17
100
AcDbEntity
  8
0
 62
0
100
AcDbPolyline
 90
65
 70
0
 10
-3.85527096604838
 20
75.6054141722926
 10
-4.140854031763382
 20
75.53387933827953
 10
-4.418050297095263
 20
75.43469692861677
 10
-4.684190210477993
 20
75.30882212412797
 10
-4.936710699058807
 20
75.15746716799055
 10
-5.173179852490932
 20
74.98208969117111
 10
-5.3913203435596415
 20
74.78437867464255
 10
-5.589031360088214
 20
74.56623818357384
 10
-5.764408836907634
 20
74.32976903014172
 10
-5.915763793045059
 20
74.0772485415609
 10
-6.041638597533861
 20
73.81110862817818
 10
-6.140821007196621
 20
73.5339123628463
 10
-6.2123558412096855
 20
73.24832929713129
 10
-6.255554180016588
 20
72.95710975207159
 10
-6.269999999999996
 20
72.66305833108291
 10
-6.255554180016588
 20
72.36900691009423
 10
-6.2123558412096855
 20
72.07778736503452
 10
-6.140821007196621
 20
71.79220429931952
 10
-6.041638597533861
 20
71.51500803398764
 10
-5.915763793045059
 20
71.24886812060491
 10
-5.764408836907634
 20
70.99634763202411
 10
-5.5890313600882
 20
70.75987847859197
 10
-5.3913203435596415
 20
70.54173798752326
 10
-5.173179852490932
 20
70.34402697099469
 10
-4.936710699058807
 20
70.16864949417527
 10
-4.684190210477993
 20
70.01729453803785
 10
-4.418050297095263
 20
69.89141973354904
 10
-4.140854031763382
 20
69.79223732388628
 10
-3.85527096604838
 20
69.72070248987322
 10
-3.564051420988676
 20
69.67750415106632
 10
-3.269999999999996
 20
69.66305833108291
 10
-2.975948579011316
 20
69.67750415106632
 10
-2.684729033951612
 20
69.72070248987322
 10
-2.39914596823661
 20
69.79223732388628
 10
-2.121949702904729
 20
69.89141973354904
 10
-1.8558097895219987
 20
70.01729453803785
 10
-1.603289300941185
 20
70.16864949417527
 10
-1.3668201475090598
 20
70.34402697099469
 10
-1.1486796564403505
 20
70.54173798752326
 10
-0.9509686399117783
 20
70.75987847859197
 10
-0.7755911630923578
 20
70.99634763202411
 10
-0.624236206954933
 20
71.24886812060493
 10
-0.4983614024661307
 20
71.51500803398764
 10
-0.3991789928033711
 20
71.79220429931952
 10
-0.3276441587903065
 20
72.07778736503452
 10
-0.2844458199834037
 20
72.36900691009423
 10
-0.269999999999996
 20
72.66305833108291
 10
-0.2844458199834037
 20
72.95710975207159
 10
-0.3276441587903065
 20
73.24832929713129
 10
-0.3991789928033711
 20
73.5339123628463
 10
-0.4983614024661307
 20
73.81110862817818
 10
-0.624236206954933
 20
74.0772485415609
 10
-0.7755911630923578
 20
74.32976903014172
 10
-0.9509686399117783
 20
74.56623818357384
 10
-1.1486796564403505
 20
74.78437867464255
 10
-1.3668201475090598
 20
74.98208969117113
 10
-1.603289300941185
 20
75.15746716799055
 10
-1.8558097895219987
 20
75.30882212412797
 10
-2.121949702904729
 20
75.43469692861677
 10
-2.39914596823661
 20
75.53387933827953
 10
-2.684729033951612
 20
75.6054141722926
 10
-2.975948579011316
 20
75.6486125110995
 10
-3.269999999999996
 20
75.66305833108291
 10
-3.564051420988676
 20
75.6486125110995
 10
-3.85527096604838
 20
75.6054141722926
  0
ENDSEC
  0
SECTION
  2
OBJECTS
  0
DICTIONARY
  5
A
330
0
100
AcDbDictionary
280
0
281
1
  3
ACAD_COLOR
350
B
  3
ACAD_GROUP
350
C
  3
ACAD_LAYOUT
350
D
  3
ACAD_MATERIAL
350
E
  3
ACAD_MLEADERSTYLE
350
F
  3
ACAD_MLINESTYLE
350
10
  3
ACAD_PLOTSETTINGS
350
11
  3
ACAD_PLOTSTYLENAME
350
12
  3
ACAD_SCALELIST
350
14
  3
ACAD_TABLESTYLE
350
15
  3
ACAD_VISUALSTYLE
350
16
  3
EZDXF_META
350
2D
  0
DICTIONARY
  5
B
330
A
100
AcDbDictionary
280
0
281
1
  0
DICTIONARY
  5
C
330
A
100
AcDbDictionary
280
0
281
1
  0
DICTIONARY
  5
D
330
A
100
AcDbDictionary
280
0
281
1
  3
Model
350
1A
  3
Layout1
350
1E
  0
DICTIONARY
  5
E
330
A
100
AcDbDictionary
280
0
281
1
  3
ByBlock
350
1F
  3
ByLayer
350
20
  3
Global
350
21
  0
DICTIONARY
  5
F
330
A
100
AcDbDictionary
280
0
281
1
  3
Standard
350
2C
  0
DICTIONARY
  5
10
330
A
100
AcDbDictionary
280
0
281
1
  3
Standard
350
22
  0
DICTIONARY
  5
11
330
A
100
AcDbDictionary
280
0
281
1
  0
ACDBDICTIONARYWDFLT
  5
12
330
A
100
AcDbDictionary
280
0
281
1
  3
Normal
350
13
100
AcDbDictionaryWithDefault
340
13
  0
ACDBPLACEHOLDER
  5
13
330
12
  0
DICTIONARY
  5
14
330
A
100
AcDbDictionary
280
0
281
1
  0
DICTIONARY
  5
15
330
A
100
AcDbDictionary
280
0
281
1
  0
DICTIONARY
  5
16
330
A
100
AcDbDictionary
280
0
281
1
  0
LAYOUT
  5
1A
330
D
100
AcDbPlotSettings
  1

  4
A3
  6

 40
7.5
 41
20.0
 42
7.5
 43
20.0
 44
420.0
 45
297.0
 46
0.0
 47
0.0
 48
0.0
 49
0.0
140
0.0
141
0.0
142
1.0
143
1.0
 70
1024
 72
1
 73
0
 74
5
  7

 75
16
 76
0
 77
2
 78
300
147
1.0
148
0.0
149
0.0
100
AcDbLayout
  1
Model
 70
1
 71
0
 10
0.0
 20
0.0
 11
420.0
 21
297.0
 12
0.0
 22
0.0
 32
0.0
 14
1e+20
 24
1e+20
 34
1e+20
 15
-1e+20
 25
-1e+20
 35
-1e+20
146
0.0
 13
0.0
 23
0.0
 33
0.0
 16
1.0
 26
0.0
 36
0.0
 17
0.0
 27
1.0
 37
0.0
 76
1
330
17
  0
LAYOUT
  5
1E
330
D
100
AcDbPlotSettings
  1

  4
A3
  6

 40
7.5
 41
20.0
 42
7.5
 43
20.0
 44
420.0
 45
297.0
 46
0.0
 47
0.0
 48
0.0
 49
0.0
140
0.0
141
0.0
142
1.0
143
1.0
 70
0
 72
1
 73
0
 74
5
  7

 75
16
 76
0
 77
2
 78
300
147
1.0
148
0.0
149
0.0
100
AcDbLayout
  1
Layout1
 70
1
 71
1
 10
0.0
 20
0.0
 11
420.0
 21
297.0
 12
0.0
 22
0.0
 32
0.0
 14
1e+20
 24
1e+20
 34
1e+20
 15
-1e+20
 25
-1e+20
 35
-1e+20
146
0.0
 13
0.0
 23
0.0
 33
0.0
 16
1.0
 26
0.0
 36
0.0
 17
0.0
 27
1.0
 37
0.0
 76
1
330
1B
  0
MATERIAL
  5
1F
102
{ACAD_REACTORS
330
E
102
}
330
E
100
AcDbMaterial
  1
ByBlock
  2

 70
0
 40
1.0
 71
1
 41
1.0
 91
-1023410177
 42
1.0
 72
1
  3

 73
1
 74
1
 75
1
 44
0.5
 73
0
 45
1.0
 46
1.0
 77
1
  4

 78
1
 79
1
170
1
 48
1.0
171
1
  6

172
1
173
1
174
1
140
1.0
141
1.0
175
1
  7

176
1
177
1
178
1
143
1.0
179
1
  8

270
1
271
1
272
1
145
1.0
146
1.0
273
1
  9

274
1
275
1
276
1
 42
1.0
 72
1
  3

 73
1
 74
1
 75
1
 94
63
  0
MATERIAL
  5
20
102
{ACAD_REACTORS
330
E
102
}
330
E
100
AcDbMaterial
  1
ByLayer
  2

 70
0
 40
1.0
 71
1
 41
1.0
 91
-1023410177
 42
1.0
 72
1
  3

 73
1
 74
1
 75
1
 44
0.5
 73
0
 45
1.0
 46
1.0
 77
1
  4

 78
1
 79
1
170
1
 48
1.0
171
1
  6

172
1
173
1
174
1
140
1.0
141
1.0
175
1
  7

176
1
177
1
178
1
143
1.0
179
1
  8

270
1
271
1
272
1
145
1.0
146
1.0
273
1
  9

274
1
275
1
276
1
 42
1.0
 72
1
  3

 73
1
 74
1
 75
1
 94
63
  0
MATERIAL
  5
21
102
{ACAD_REACTORS
330
E
102
}
330
E
100
AcDbMaterial
  1
Global
  2

 70
0
 40
1.0
 71
1
 41
1.0
 91
-1023410177
 42
1.0
 72
1
  3

 73
1
 74
1
 75
1
 44
0.5
 73
0
 45
1.0
 46
1.0
 77
1
  4

 78
1
 79
1
170
1
 48
1.0
171
1
  6

172
1
173
1
174
1
140
1.0
141
1.0
175
1
  7

176
1
177
1
178
1
143
1.0
179
1
  8

270
1
271
1
272
1
145
1.0
146
1.0
273
1
  9

274
1
275
1
276
1
 42
1.0
 72
1
  3

 73
1
 74
1
 75
1
 94
63
  0
MLINESTYLE
  5
22
102
{ACAD_REACTORS
330
10
102
}
330
10
100
AcDbMlineStyle
  2
Standard
 70
0
  3

 62
256
 51
90.0
 52
90.0
 71
2
 49
0.5
 62
256
  6
BYLAYER
 49
-0.5
 62
256
  6
BYLAYER
  0
MLEADERSTYLE
  5
2C
102
{ACAD_REACTORS
330
F
102
}
330
F
100
AcDbMLeaderStyle
179
2
170
2
171
1
172
0
 90
2
 40
0.0
 41
0.0
173
1
 91
-1056964608
 92
-2
290
1
 42
2.0
291
1
 43
8.0
  3
Standard
 44
4.0
300

342
29
174
1
175
1
176
0
178
1
 93
-1056964608
 45
4.0
292
0
297
0
 46
4.0
 94
-1056964608
 47
1.0
 49
1.0
140
1.0
294
1
141
0.0
177
0
142
1.0
295
0
296
0
143
3.75
271
0
272
9
273
9
  0
DICTIONARY
  5
2D
330
A
100
AcDbDictionary
281
1
  3
CREATED_BY_EZDXF
350
2E
  3
WRITTEN_BY_EZDXF
350
34
  0
DICTIONARYVAR
  5
2E
330
2D
100
DictionaryVariables
280
0
  1
1.3.2 @ 2025-01-06T02:40:19.293326+00:00
  0
DICTIONARYVAR
  5
34
330
2D
100
DictionaryVariables
280
0
  1
1.3.2 @ 2025-01-06T02:40:19.297896+00:00
  0
ENDSEC
  0
EOF
