solid OpenSCAD_Model
  facet normal -1 0 0
    outer loop
      vertex 0 3 0
      vertex 0 0 0
      vertex 0 3 12
    endloop
  endfacet
  facet normal -1 0 0
    outer loop
      vertex 0 26.5 0
      vertex 0 11.5 3
      vertex 0 26.5 3
    endloop
  endfacet
  facet normal -1 0 0
    outer loop
      vertex 0 8.5 0
      vertex 0 11.5 3
      vertex 0 26.5 0
    endloop
  endfacet
  facet normal -1 0 0
    outer loop
      vertex 0 8.5 12
      vertex 0 11.5 3
      vertex 0 8.5 0
    endloop
  endfacet
  facet normal -1 0 0
    outer loop
      vertex 0 11.5 3
      vertex 0 8.5 12
      vertex 0 11.5 15
    endloop
  endfacet
  facet normal -1 0 0
    outer loop
      vertex 0 3 12
      vertex 0 11.5 15
      vertex 0 8.5 12
    endloop
  endfacet
  facet normal -1 0 0
    outer loop
      vertex 0 3 12
      vertex 0 0 15
      vertex 0 11.5 15
    endloop
  endfacet
  facet normal -1 0 0
    outer loop
      vertex 0 0 15
      vertex 0 3 12
      vertex 0 0 0
    endloop
  endfacet
  facet normal -0 0 1
    outer loop
      vertex 0 11.5 15
      vertex 25 0 15
      vertex 25 11.5 15
    endloop
  endfacet
  facet normal 0 0 1
    outer loop
      vertex 25 0 15
      vertex 0 11.5 15
      vertex 0 0 15
    endloop
  endfacet
  facet normal 1 0 0
    outer loop
      vertex 25 11.5 15
      vertex 25 8.5 12
      vertex 25 11.5 3
    endloop
  endfacet
  facet normal 1 0 0
    outer loop
      vertex 25 11.5 15
      vertex 25 3 12
      vertex 25 8.5 12
    endloop
  endfacet
  facet normal 1 -0 0
    outer loop
      vertex 25 0 15
      vertex 25 3 12
      vertex 25 11.5 15
    endloop
  endfacet
  facet normal 1 0 0
    outer loop
      vertex 25 0 0
      vertex 25 3 12
      vertex 25 0 15
    endloop
  endfacet
  facet normal 1 0 0
    outer loop
      vertex 25 3 12
      vertex 25 0 0
      vertex 25 3 0
    endloop
  endfacet
  facet normal 1 -0 0
    outer loop
      vertex 25 11.5 3
      vertex 25 26.5 0
      vertex 25 26.5 3
    endloop
  endfacet
  facet normal 1 0 0
    outer loop
      vertex 25 11.5 3
      vertex 25 8.5 0
      vertex 25 26.5 0
    endloop
  endfacet
  facet normal 1 0 0
    outer loop
      vertex 25 8.5 0
      vertex 25 11.5 3
      vertex 25 8.5 12
    endloop
  endfacet
  facet normal 0 1 0
    outer loop
      vertex 25 3 12
      vertex 12.5 3 7.9
      vertex 0 3 12
    endloop
  endfacet
  facet normal 0 1 0
    outer loop
      vertex 25 3 12
      vertex 13.45 3 7.64545
      vertex 12.5 3 7.9
    endloop
  endfacet
  facet normal 0 1 0
    outer loop
      vertex 25 3 12
      vertex 14.1454 3 6.95
      vertex 13.45 3 7.64545
    endloop
  endfacet
  facet normal 0 1 0
    outer loop
      vertex 25 3 12
      vertex 14.4 3 6
      vertex 14.1454 3 6.95
    endloop
  endfacet
  facet normal 0 1 -0
    outer loop
      vertex 25 3 0
      vertex 14.4 3 6
      vertex 25 3 12
    endloop
  endfacet
  facet normal 0 1 0
    outer loop
      vertex 14.4 3 6
      vertex 25 3 0
      vertex 14.1454 3 5.05
    endloop
  endfacet
  facet normal 0 1 0
    outer loop
      vertex 13.45 3 4.35455
      vertex 25 3 0
      vertex 12.5 3 4.1
    endloop
  endfacet
  facet normal 0 1 0
    outer loop
      vertex 14.1454 3 5.05
      vertex 25 3 0
      vertex 13.45 3 4.35455
    endloop
  endfacet
  facet normal 0 1 -0
    outer loop
      vertex 11.55 3 7.64545
      vertex 0 3 12
      vertex 12.5 3 7.9
    endloop
  endfacet
  facet normal 0 1 -0
    outer loop
      vertex 10.8546 3 6.95
      vertex 0 3 12
      vertex 11.55 3 7.64545
    endloop
  endfacet
  facet normal 0 1 -0
    outer loop
      vertex 10.6 3 6
      vertex 0 3 12
      vertex 10.8546 3 6.95
    endloop
  endfacet
  facet normal 0 1 0
    outer loop
      vertex 0 3 0
      vertex 10.6 3 6
      vertex 10.8546 3 5.05
    endloop
  endfacet
  facet normal 0 1 0
    outer loop
      vertex 0 3 0
      vertex 10.8546 3 5.05
      vertex 11.55 3 4.35455
    endloop
  endfacet
  facet normal 0 1 0
    outer loop
      vertex 0 3 0
      vertex 12.5 3 4.1
      vertex 25 3 0
    endloop
  endfacet
  facet normal 0 1 0
    outer loop
      vertex 10.6 3 6
      vertex 0 3 0
      vertex 0 3 12
    endloop
  endfacet
  facet normal 0 1 0
    outer loop
      vertex 12.5 3 4.1
      vertex 0 3 0
      vertex 11.55 3 4.35455
    endloop
  endfacet
  facet normal 0 0 -1
    outer loop
      vertex 0 0 0
      vertex 25 3 0
      vertex 25 0 0
    endloop
  endfacet
  facet normal -0 0 -1
    outer loop
      vertex 25 3 0
      vertex 0 0 0
      vertex 0 3 0
    endloop
  endfacet
  facet normal 0 -1 0
    outer loop
      vertex 0 0 15
      vertex 12.5 0 10
      vertex 25 0 15
    endloop
  endfacet
  facet normal 0 -1 0
    outer loop
      vertex 0 0 15
      vertex 10.5 0 9.4641
      vertex 12.5 0 10
    endloop
  endfacet
  facet normal 0 -1 0
    outer loop
      vertex 0 0 15
      vertex 9.0359 0 8
      vertex 10.5 0 9.4641
    endloop
  endfacet
  facet normal 0 -1 0
    outer loop
      vertex 0 0 15
      vertex 8.5 0 6
      vertex 9.0359 0 8
    endloop
  endfacet
  facet normal 0 -1 0
    outer loop
      vertex 0 0 0
      vertex 8.5 0 6
      vertex 0 0 15
    endloop
  endfacet
  facet normal 0 -1 -0
    outer loop
      vertex 10.5 0 2.5359
      vertex 0 0 0
      vertex 12.5 0 2
    endloop
  endfacet
  facet normal 0 -1 -0
    outer loop
      vertex 9.0359 0 4
      vertex 0 0 0
      vertex 10.5 0 2.5359
    endloop
  endfacet
  facet normal 0 -1 -0
    outer loop
      vertex 8.5 0 6
      vertex 0 0 0
      vertex 9.0359 0 4
    endloop
  endfacet
  facet normal 0 -1 0
    outer loop
      vertex 14.5 0 9.4641
      vertex 25 0 15
      vertex 12.5 0 10
    endloop
  endfacet
  facet normal 0 -1 0
    outer loop
      vertex 15.9641 0 8
      vertex 25 0 15
      vertex 14.5 0 9.4641
    endloop
  endfacet
  facet normal 0 -1 0
    outer loop
      vertex 16.5 0 6
      vertex 25 0 15
      vertex 15.9641 0 8
    endloop
  endfacet
  facet normal 0 -1 0
    outer loop
      vertex 25 0 0
      vertex 16.5 0 6
      vertex 15.9641 0 4
    endloop
  endfacet
  facet normal 0 -1 0
    outer loop
      vertex 16.5 0 6
      vertex 25 0 0
      vertex 25 0 15
    endloop
  endfacet
  facet normal 0 -1 0
    outer loop
      vertex 14.5 0 2.5359
      vertex 25 0 0
      vertex 15.9641 0 4
    endloop
  endfacet
  facet normal 0 -1 0
    outer loop
      vertex 12.5 0 2
      vertex 25 0 0
      vertex 14.5 0 2.5359
    endloop
  endfacet
  facet normal 0 -1 0
    outer loop
      vertex 25 0 0
      vertex 12.5 0 2
      vertex 0 0 0
    endloop
  endfacet
  facet normal 0 1 0
    outer loop
      vertex 25 11.5 15
      vertex 12.5 11.5 7.9
      vertex 0 11.5 15
    endloop
  endfacet
  facet normal 0 1 0
    outer loop
      vertex 25 11.5 15
      vertex 13.45 11.5 7.64545
      vertex 12.5 11.5 7.9
    endloop
  endfacet
  facet normal 0 1 0
    outer loop
      vertex 25 11.5 15
      vertex 14.1454 11.5 6.95
      vertex 13.45 11.5 7.64545
    endloop
  endfacet
  facet normal 0 1 -0
    outer loop
      vertex 25 11.5 3
      vertex 14.1454 11.5 6.95
      vertex 25 11.5 15
    endloop
  endfacet
  facet normal 0 1 0
    outer loop
      vertex 14.1454 11.5 6.95
      vertex 25 11.5 3
      vertex 14.4 11.5 6
    endloop
  endfacet
  facet normal 0 1 0
    outer loop
      vertex 14.4 11.5 6
      vertex 25 11.5 3
      vertex 14.1454 11.5 5.05
    endloop
  endfacet
  facet normal 0 1 0
    outer loop
      vertex 13.45 11.5 4.35455
      vertex 25 11.5 3
      vertex 12.5 11.5 4.1
    endloop
  endfacet
  facet normal 0 1 0
    outer loop
      vertex 14.1454 11.5 5.05
      vertex 25 11.5 3
      vertex 13.45 11.5 4.35455
    endloop
  endfacet
  facet normal 0 1 -0
    outer loop
      vertex 11.55 11.5 7.64545
      vertex 0 11.5 15
      vertex 12.5 11.5 7.9
    endloop
  endfacet
  facet normal 0 1 -0
    outer loop
      vertex 10.8546 11.5 6.95
      vertex 0 11.5 15
      vertex 11.55 11.5 7.64545
    endloop
  endfacet
  facet normal 0 1 0
    outer loop
      vertex 0 11.5 3
      vertex 10.8546 11.5 6.95
      vertex 10.6 11.5 6
    endloop
  endfacet
  facet normal 0 1 0
    outer loop
      vertex 0 11.5 3
      vertex 10.6 11.5 6
      vertex 10.8546 11.5 5.05
    endloop
  endfacet
  facet normal 0 1 0
    outer loop
      vertex 0 11.5 3
      vertex 10.8546 11.5 5.05
      vertex 11.55 11.5 4.35455
    endloop
  endfacet
  facet normal 0 1 0
    outer loop
      vertex 10.8546 11.5 6.95
      vertex 0 11.5 3
      vertex 0 11.5 15
    endloop
  endfacet
  facet normal 0 1 0
    outer loop
      vertex 12.5 11.5 4.1
      vertex 0 11.5 3
      vertex 11.55 11.5 4.35455
    endloop
  endfacet
  facet normal 0 1 0
    outer loop
      vertex 0 11.5 3
      vertex 12.5 11.5 4.1
      vertex 25 11.5 3
    endloop
  endfacet
  facet normal 0 0 -1
    outer loop
      vertex 25 8.5 0
      vertex 14.4 19 0
      vertex 25 26.5 0
    endloop
  endfacet
  facet normal 0 0 -1
    outer loop
      vertex 25 8.5 0
      vertex 14.1454 18.05 0
      vertex 14.4 19 0
    endloop
  endfacet
  facet normal 0 0 -1
    outer loop
      vertex 25 8.5 0
      vertex 13.45 17.3546 0
      vertex 14.1454 18.05 0
    endloop
  endfacet
  facet normal 0 0 -1
    outer loop
      vertex 25 8.5 0
      vertex 12.5 17.1 0
      vertex 13.45 17.3546 0
    endloop
  endfacet
  facet normal 0 0 -1
    outer loop
      vertex 0 8.5 0
      vertex 12.5 17.1 0
      vertex 25 8.5 0
    endloop
  endfacet
  facet normal -0 0 -1
    outer loop
      vertex 10.8546 18.05 0
      vertex 0 8.5 0
      vertex 10.6 19 0
    endloop
  endfacet
  facet normal -0 0 -1
    outer loop
      vertex 11.55 17.3546 0
      vertex 0 8.5 0
      vertex 10.8546 18.05 0
    endloop
  endfacet
  facet normal -0 0 -1
    outer loop
      vertex 12.5 17.1 0
      vertex 0 8.5 0
      vertex 11.55 17.3546 0
    endloop
  endfacet
  facet normal 0 0 -1
    outer loop
      vertex 14.1454 19.95 0
      vertex 25 26.5 0
      vertex 14.4 19 0
    endloop
  endfacet
  facet normal 0 0 -1
    outer loop
      vertex 13.45 20.6454 0
      vertex 25 26.5 0
      vertex 14.1454 19.95 0
    endloop
  endfacet
  facet normal 0 0 -1
    outer loop
      vertex 12.5 20.9 0
      vertex 25 26.5 0
      vertex 13.45 20.6454 0
    endloop
  endfacet
  facet normal 0 0 -1
    outer loop
      vertex 0 26.5 0
      vertex 12.5 20.9 0
      vertex 11.55 20.6454 0
    endloop
  endfacet
  facet normal 0 0 -1
    outer loop
      vertex 0 26.5 0
      vertex 10.6 19 0
      vertex 0 8.5 0
    endloop
  endfacet
  facet normal 0 0 -1
    outer loop
      vertex 12.5 20.9 0
      vertex 0 26.5 0
      vertex 25 26.5 0
    endloop
  endfacet
  facet normal 0 0 -1
    outer loop
      vertex 10.8546 19.95 0
      vertex 0 26.5 0
      vertex 11.55 20.6454 0
    endloop
  endfacet
  facet normal 0 0 -1
    outer loop
      vertex 10.6 19 0
      vertex 0 26.5 0
      vertex 10.8546 19.95 0
    endloop
  endfacet
  facet normal 0 -1 0
    outer loop
      vertex 0 8.5 12
      vertex 12.5 8.5 7.9
      vertex 25 8.5 12
    endloop
  endfacet
  facet normal 0 -1 0
    outer loop
      vertex 0 8.5 12
      vertex 11.55 8.5 7.64545
      vertex 12.5 8.5 7.9
    endloop
  endfacet
  facet normal 0 -1 0
    outer loop
      vertex 0 8.5 12
      vertex 10.8546 8.5 6.95
      vertex 11.55 8.5 7.64545
    endloop
  endfacet
  facet normal 0 -1 0
    outer loop
      vertex 0 8.5 12
      vertex 10.6 8.5 6
      vertex 10.8546 8.5 6.95
    endloop
  endfacet
  facet normal 0 -1 0
    outer loop
      vertex 0 8.5 0
      vertex 10.6 8.5 6
      vertex 0 8.5 12
    endloop
  endfacet
  facet normal 0 -1 -0
    outer loop
      vertex 10.6 8.5 6
      vertex 0 8.5 0
      vertex 10.8546 8.5 5.05
    endloop
  endfacet
  facet normal 0 -1 -0
    outer loop
      vertex 11.55 8.5 4.35455
      vertex 0 8.5 0
      vertex 12.5 8.5 4.1
    endloop
  endfacet
  facet normal 0 -1 -0
    outer loop
      vertex 10.8546 8.5 5.05
      vertex 0 8.5 0
      vertex 11.55 8.5 4.35455
    endloop
  endfacet
  facet normal 0 -1 0
    outer loop
      vertex 13.45 8.5 7.64545
      vertex 25 8.5 12
      vertex 12.5 8.5 7.9
    endloop
  endfacet
  facet normal 0 -1 0
    outer loop
      vertex 14.1454 8.5 6.95
      vertex 25 8.5 12
      vertex 13.45 8.5 7.64545
    endloop
  endfacet
  facet normal 0 -1 0
    outer loop
      vertex 14.4 8.5 6
      vertex 25 8.5 12
      vertex 14.1454 8.5 6.95
    endloop
  endfacet
  facet normal 0 -1 0
    outer loop
      vertex 25 8.5 0
      vertex 14.4 8.5 6
      vertex 14.1454 8.5 5.05
    endloop
  endfacet
  facet normal 0 -1 0
    outer loop
      vertex 25 8.5 0
      vertex 14.1454 8.5 5.05
      vertex 13.45 8.5 4.35455
    endloop
  endfacet
  facet normal 0 -1 0
    outer loop
      vertex 25 8.5 0
      vertex 12.5 8.5 4.1
      vertex 0 8.5 0
    endloop
  endfacet
  facet normal 0 -1 0
    outer loop
      vertex 14.4 8.5 6
      vertex 25 8.5 0
      vertex 25 8.5 12
    endloop
  endfacet
  facet normal 0 -1 0
    outer loop
      vertex 12.5 8.5 4.1
      vertex 25 8.5 0
      vertex 13.45 8.5 4.35455
    endloop
  endfacet
  facet normal 0 0 -1
    outer loop
      vertex 0 3 12
      vertex 25 8.5 12
      vertex 25 3 12
    endloop
  endfacet
  facet normal -0 0 -1
    outer loop
      vertex 25 8.5 12
      vertex 0 3 12
      vertex 0 8.5 12
    endloop
  endfacet
  facet normal 0 0 1
    outer loop
      vertex 25 26.5 3
      vertex 14.4 19 3
      vertex 25 11.5 3
    endloop
  endfacet
  facet normal 0 0 1
    outer loop
      vertex 25 26.5 3
      vertex 14.1454 19.95 3
      vertex 14.4 19 3
    endloop
  endfacet
  facet normal 0 0 1
    outer loop
      vertex 25 26.5 3
      vertex 13.45 20.6454 3
      vertex 14.1454 19.95 3
    endloop
  endfacet
  facet normal 0 0 1
    outer loop
      vertex 25 26.5 3
      vertex 12.5 20.9 3
      vertex 13.45 20.6454 3
    endloop
  endfacet
  facet normal -0 0 1
    outer loop
      vertex 0 26.5 3
      vertex 12.5 20.9 3
      vertex 25 26.5 3
    endloop
  endfacet
  facet normal 0 0 1
    outer loop
      vertex 10.8546 19.95 3
      vertex 0 26.5 3
      vertex 10.6 19 3
    endloop
  endfacet
  facet normal 0 0 1
    outer loop
      vertex 11.55 20.6454 3
      vertex 0 26.5 3
      vertex 10.8546 19.95 3
    endloop
  endfacet
  facet normal 0 0 1
    outer loop
      vertex 12.5 20.9 3
      vertex 0 26.5 3
      vertex 11.55 20.6454 3
    endloop
  endfacet
  facet normal -0 0 1
    outer loop
      vertex 14.1454 18.05 3
      vertex 25 11.5 3
      vertex 14.4 19 3
    endloop
  endfacet
  facet normal -0 0 1
    outer loop
      vertex 13.45 17.3546 3
      vertex 25 11.5 3
      vertex 14.1454 18.05 3
    endloop
  endfacet
  facet normal -0 0 1
    outer loop
      vertex 12.5 17.1 3
      vertex 25 11.5 3
      vertex 13.45 17.3546 3
    endloop
  endfacet
  facet normal 0 0 1
    outer loop
      vertex 0 11.5 3
      vertex 12.5 17.1 3
      vertex 11.55 17.3546 3
    endloop
  endfacet
  facet normal 0 0 1
    outer loop
      vertex 0 11.5 3
      vertex 10.6 19 3
      vertex 0 26.5 3
    endloop
  endfacet
  facet normal 0 0 1
    outer loop
      vertex 10.6 19 3
      vertex 0 11.5 3
      vertex 10.8546 18.05 3
    endloop
  endfacet
  facet normal 0 0 1
    outer loop
      vertex 12.5 17.1 3
      vertex 0 11.5 3
      vertex 25 11.5 3
    endloop
  endfacet
  facet normal 0 0 1
    outer loop
      vertex 10.8546 18.05 3
      vertex 0 11.5 3
      vertex 11.55 17.3546 3
    endloop
  endfacet
  facet normal 0 1 -0
    outer loop
      vertex 25 26.5 0
      vertex 0 26.5 3
      vertex 25 26.5 3
    endloop
  endfacet
  facet normal 0 1 0
    outer loop
      vertex 0 26.5 3
      vertex 25 26.5 0
      vertex 0 26.5 0
    endloop
  endfacet
  facet normal -0.965926 -0.258819 0
    outer loop
      vertex 14.4 19 0
      vertex 14.1454 19.95 3
      vertex 14.1454 19.95 0
    endloop
  endfacet
  facet normal -0.965926 -0.258819 0
    outer loop
      vertex 14.1454 19.95 3
      vertex 14.4 19 0
      vertex 14.4 19 3
    endloop
  endfacet
  facet normal 0.965926 -0.258819 0
    outer loop
      vertex 10.6 19 3
      vertex 10.8546 19.95 0
      vertex 10.8546 19.95 3
    endloop
  endfacet
  facet normal 0.965926 -0.258819 0
    outer loop
      vertex 10.8546 19.95 0
      vertex 10.6 19 3
      vertex 10.6 19 0
    endloop
  endfacet
  facet normal -0.25882 -0.965926 0
    outer loop
      vertex 12.5 20.9 0
      vertex 13.45 20.6454 3
      vertex 12.5 20.9 3
    endloop
  endfacet
  facet normal -0.25882 -0.965926 -0
    outer loop
      vertex 13.45 20.6454 3
      vertex 12.5 20.9 0
      vertex 13.45 20.6454 0
    endloop
  endfacet
  facet normal -0.707106 -0.707108 0
    outer loop
      vertex 13.45 20.6454 0
      vertex 14.1454 19.95 3
      vertex 13.45 20.6454 3
    endloop
  endfacet
  facet normal -0.707106 -0.707108 -0
    outer loop
      vertex 14.1454 19.95 3
      vertex 13.45 20.6454 0
      vertex 14.1454 19.95 0
    endloop
  endfacet
  facet normal 0.25882 -0.965926 0
    outer loop
      vertex 11.55 20.6454 0
      vertex 12.5 20.9 3
      vertex 11.55 20.6454 3
    endloop
  endfacet
  facet normal 0.25882 -0.965926 0
    outer loop
      vertex 12.5 20.9 3
      vertex 11.55 20.6454 0
      vertex 12.5 20.9 0
    endloop
  endfacet
  facet normal -0.25882 0.965926 0
    outer loop
      vertex 13.45 17.3546 0
      vertex 12.5 17.1 3
      vertex 13.45 17.3546 3
    endloop
  endfacet
  facet normal -0.25882 0.965926 0
    outer loop
      vertex 12.5 17.1 3
      vertex 13.45 17.3546 0
      vertex 12.5 17.1 0
    endloop
  endfacet
  facet normal 0.25882 0.965926 -0
    outer loop
      vertex 12.5 17.1 0
      vertex 11.55 17.3546 3
      vertex 12.5 17.1 3
    endloop
  endfacet
  facet normal 0.25882 0.965926 0
    outer loop
      vertex 11.55 17.3546 3
      vertex 12.5 17.1 0
      vertex 11.55 17.3546 0
    endloop
  endfacet
  facet normal 0.965926 0.258819 0
    outer loop
      vertex 10.8546 18.05 3
      vertex 10.6 19 0
      vertex 10.6 19 3
    endloop
  endfacet
  facet normal 0.965926 0.258819 0
    outer loop
      vertex 10.6 19 0
      vertex 10.8546 18.05 3
      vertex 10.8546 18.05 0
    endloop
  endfacet
  facet normal 0.707106 0.707108 -0
    outer loop
      vertex 11.55 17.3546 0
      vertex 10.8546 18.05 3
      vertex 11.55 17.3546 3
    endloop
  endfacet
  facet normal 0.707106 0.707108 0
    outer loop
      vertex 10.8546 18.05 3
      vertex 11.55 17.3546 0
      vertex 10.8546 18.05 0
    endloop
  endfacet
  facet normal 0.707106 -0.707108 0
    outer loop
      vertex 10.8546 19.95 0
      vertex 11.55 20.6454 3
      vertex 10.8546 19.95 3
    endloop
  endfacet
  facet normal 0.707106 -0.707108 0
    outer loop
      vertex 11.55 20.6454 3
      vertex 10.8546 19.95 0
      vertex 11.55 20.6454 0
    endloop
  endfacet
  facet normal -0.707106 0.707108 0
    outer loop
      vertex 14.1454 18.05 0
      vertex 13.45 17.3546 3
      vertex 14.1454 18.05 3
    endloop
  endfacet
  facet normal -0.707106 0.707108 0
    outer loop
      vertex 13.45 17.3546 3
      vertex 14.1454 18.05 0
      vertex 13.45 17.3546 0
    endloop
  endfacet
  facet normal -0.965926 0.258819 0
    outer loop
      vertex 14.1454 18.05 0
      vertex 14.4 19 3
      vertex 14.4 19 0
    endloop
  endfacet
  facet normal -0.965926 0.258819 0
    outer loop
      vertex 14.4 19 3
      vertex 14.1454 18.05 0
      vertex 14.1454 18.05 3
    endloop
  endfacet
  facet normal -0.965926 0 -0.258819
    outer loop
      vertex 14.4 8.5 6
      vertex 14.1454 11.5 6.95
      vertex 14.4 11.5 6
    endloop
  endfacet
  facet normal -0.965926 -0 -0.258819
    outer loop
      vertex 14.1454 11.5 6.95
      vertex 14.4 8.5 6
      vertex 14.1454 8.5 6.95
    endloop
  endfacet
  facet normal 0.965926 0 -0.258819
    outer loop
      vertex 10.8546 8.5 6.95
      vertex 10.6 11.5 6
      vertex 10.8546 11.5 6.95
    endloop
  endfacet
  facet normal 0.965926 0 -0.258819
    outer loop
      vertex 10.6 11.5 6
      vertex 10.8546 8.5 6.95
      vertex 10.6 8.5 6
    endloop
  endfacet
  facet normal -0.258819 0 -0.965926
    outer loop
      vertex 12.5 8.5 7.9
      vertex 13.45 11.5 7.64545
      vertex 13.45 8.5 7.64545
    endloop
  endfacet
  facet normal -0.258819 0 -0.965926
    outer loop
      vertex 13.45 11.5 7.64545
      vertex 12.5 8.5 7.9
      vertex 12.5 11.5 7.9
    endloop
  endfacet
  facet normal -0.707107 0 -0.707107
    outer loop
      vertex 14.1454 8.5 6.95
      vertex 13.45 11.5 7.64545
      vertex 14.1454 11.5 6.95
    endloop
  endfacet
  facet normal -0.707107 -0 -0.707107
    outer loop
      vertex 13.45 11.5 7.64545
      vertex 14.1454 8.5 6.95
      vertex 13.45 8.5 7.64545
    endloop
  endfacet
  facet normal 0.258819 0 -0.965926
    outer loop
      vertex 11.55 8.5 7.64545
      vertex 12.5 11.5 7.9
      vertex 12.5 8.5 7.9
    endloop
  endfacet
  facet normal 0.258819 0 -0.965926
    outer loop
      vertex 12.5 11.5 7.9
      vertex 11.55 8.5 7.64545
      vertex 11.55 11.5 7.64545
    endloop
  endfacet
  facet normal -0.258819 0 0.965926
    outer loop
      vertex 12.5 11.5 4.1
      vertex 13.45 8.5 4.35455
      vertex 13.45 11.5 4.35455
    endloop
  endfacet
  facet normal -0.258819 0 0.965926
    outer loop
      vertex 13.45 8.5 4.35455
      vertex 12.5 11.5 4.1
      vertex 12.5 8.5 4.1
    endloop
  endfacet
  facet normal 0.258819 0 0.965926
    outer loop
      vertex 11.55 11.5 4.35455
      vertex 12.5 8.5 4.1
      vertex 12.5 11.5 4.1
    endloop
  endfacet
  facet normal 0.258819 0 0.965926
    outer loop
      vertex 12.5 8.5 4.1
      vertex 11.55 11.5 4.35455
      vertex 11.55 8.5 4.35455
    endloop
  endfacet
  facet normal 0.965926 -0 0.258819
    outer loop
      vertex 10.6 8.5 6
      vertex 10.8546 11.5 5.05
      vertex 10.6 11.5 6
    endloop
  endfacet
  facet normal 0.965926 0 0.258819
    outer loop
      vertex 10.8546 11.5 5.05
      vertex 10.6 8.5 6
      vertex 10.8546 8.5 5.05
    endloop
  endfacet
  facet normal 0.707107 0 -0.707107
    outer loop
      vertex 11.55 8.5 7.64545
      vertex 10.8546 11.5 6.95
      vertex 11.55 11.5 7.64545
    endloop
  endfacet
  facet normal 0.707107 0 -0.707107
    outer loop
      vertex 10.8546 11.5 6.95
      vertex 11.55 8.5 7.64545
      vertex 10.8546 8.5 6.95
    endloop
  endfacet
  facet normal 0.707107 -0 0.707107
    outer loop
      vertex 10.8546 8.5 5.05
      vertex 11.55 11.5 4.35455
      vertex 10.8546 11.5 5.05
    endloop
  endfacet
  facet normal 0.707107 0 0.707107
    outer loop
      vertex 11.55 11.5 4.35455
      vertex 10.8546 8.5 5.05
      vertex 11.55 8.5 4.35455
    endloop
  endfacet
  facet normal -0.707107 0 0.707107
    outer loop
      vertex 13.45 8.5 4.35455
      vertex 14.1454 11.5 5.05
      vertex 13.45 11.5 4.35455
    endloop
  endfacet
  facet normal -0.707107 0 0.707107
    outer loop
      vertex 14.1454 11.5 5.05
      vertex 13.45 8.5 4.35455
      vertex 14.1454 8.5 5.05
    endloop
  endfacet
  facet normal -0.965926 0 0.258819
    outer loop
      vertex 14.1454 8.5 5.05
      vertex 14.4 11.5 6
      vertex 14.1454 11.5 5.05
    endloop
  endfacet
  facet normal -0.965926 0 0.258819
    outer loop
      vertex 14.4 11.5 6
      vertex 14.1454 8.5 5.05
      vertex 14.4 8.5 6
    endloop
  endfacet
  facet normal -0.80018 -0.560126 -0.214408
    outer loop
      vertex 14.4 3 6
      vertex 16.5 0 6
      vertex 14.1454 3 6.95
    endloop
  endfacet
  facet normal 0.80018 -0.560126 0.214408
    outer loop
      vertex 9.0359 0 4
      vertex 10.8546 3 5.05
      vertex 8.5 0 6
    endloop
  endfacet
  facet normal 0.214408 -0.560126 -0.80018
    outer loop
      vertex 11.55 3 7.64545
      vertex 12.5 2.44921e-016 10
      vertex 10.5 2.12108e-016 9.4641
    endloop
  endfacet
  facet normal -0.585772 -0.560126 0.585772
    outer loop
      vertex 15.9641 0 4
      vertex 13.45 3 4.35455
      vertex 14.5 0 2.5359
    endloop
  endfacet
  facet normal -0.585772 -0.560126 0.585772
    outer loop
      vertex 13.45 3 4.35455
      vertex 15.9641 0 4
      vertex 14.1454 3 5.05
    endloop
  endfacet
  facet normal -0.585773 -0.560126 -0.585772
    outer loop
      vertex 14.1454 3 6.95
      vertex 15.9641 1.22461e-016 8
      vertex 14.5 2.12108e-016 9.4641
    endloop
  endfacet
  facet normal -0.214408 -0.560126 0.80018
    outer loop
      vertex 14.5 0 2.5359
      vertex 13.45 3 4.35455
      vertex 12.5 0 2
    endloop
  endfacet
  facet normal 0.214408 -0.560126 0.80018
    outer loop
      vertex 12.5 0 2
      vertex 12.5 3 4.1
      vertex 11.55 3 4.35455
    endloop
  endfacet
  facet normal 0.585773 -0.560126 -0.585773
    outer loop
      vertex 9.0359 1.22461e-016 8
      vertex 11.55 3 7.64545
      vertex 10.5 2.12108e-016 9.4641
    endloop
  endfacet
  facet normal 0.585773 -0.560126 -0.585773
    outer loop
      vertex 11.55 3 7.64545
      vertex 9.0359 1.22461e-016 8
      vertex 10.8546 3 6.95
    endloop
  endfacet
  facet normal -0.214408 -0.560126 -0.80018
    outer loop
      vertex 12.5 3 7.9
      vertex 13.45 3 7.64545
      vertex 12.5 2.44921e-016 10
    endloop
  endfacet
  facet normal -0.80018 -0.560126 -0.214408
    outer loop
      vertex 14.1454 3 6.95
      vertex 16.5 0 6
      vertex 15.9641 1.22461e-016 8
    endloop
  endfacet
  facet normal -0.214408 -0.560126 0.80018
    outer loop
      vertex 12.5 0 2
      vertex 13.45 3 4.35455
      vertex 12.5 3 4.1
    endloop
  endfacet
  facet normal 0.80018 -0.560126 0.214408
    outer loop
      vertex 10.8546 3 5.05
      vertex 10.6 3 6
      vertex 8.5 0 6
    endloop
  endfacet
  facet normal 0.80018 -0.560126 -0.214408
    outer loop
      vertex 10.6 3 6
      vertex 10.8546 3 6.95
      vertex 8.5 0 6
    endloop
  endfacet
  facet normal 0.80018 -0.560126 -0.214408
    outer loop
      vertex 10.8546 3 6.95
      vertex 9.0359 1.22461e-016 8
      vertex 8.5 0 6
    endloop
  endfacet
  facet normal -0.214408 -0.560126 -0.80018
    outer loop
      vertex 13.45 3 7.64545
      vertex 14.5 2.12108e-016 9.4641
      vertex 12.5 2.44921e-016 10
    endloop
  endfacet
  facet normal -0.585772 -0.560126 -0.585772
    outer loop
      vertex 14.1454 3 6.95
      vertex 14.5 2.12108e-016 9.4641
      vertex 13.45 3 7.64545
    endloop
  endfacet
  facet normal -0.80018 -0.560126 0.214408
    outer loop
      vertex 16.5 0 6
      vertex 14.4 3 6
      vertex 14.1454 3 5.05
    endloop
  endfacet
  facet normal -0.80018 -0.560126 0.214408
    outer loop
      vertex 15.9641 0 4
      vertex 16.5 0 6
      vertex 14.1454 3 5.05
    endloop
  endfacet
  facet normal 0.585773 -0.560126 0.585772
    outer loop
      vertex 10.5 0 2.5359
      vertex 10.8546 3 5.05
      vertex 9.0359 0 4
    endloop
  endfacet
  facet normal 0.214408 -0.560126 -0.80018
    outer loop
      vertex 12.5 3 7.9
      vertex 12.5 2.44921e-016 10
      vertex 11.55 3 7.64545
    endloop
  endfacet
  facet normal 0.214408 -0.560126 0.80018
    outer loop
      vertex 12.5 0 2
      vertex 11.55 3 4.35455
      vertex 10.5 0 2.5359
    endloop
  endfacet
  facet normal 0.585772 -0.560126 0.585772
    outer loop
      vertex 10.5 0 2.5359
      vertex 11.55 3 4.35455
      vertex 10.8546 3 5.05
    endloop
  endfacet
  facet normal -0.965926 -0 -0.25882
    outer loop
      vertex 15.9641 1.22461e-016 8
      vertex 16.5 0 6
      vertex 15.9641 0 8
    endloop
  endfacet
  facet normal 0.965926 0 -0.25882
    outer loop
      vertex 9.0359 1.22461e-016 8
      vertex 9.0359 0 8
      vertex 8.5 0 6
    endloop
  endfacet
  facet normal -0.258819 0 -0.965926
    outer loop
      vertex 12.5 0 10
      vertex 14.5 2.12108e-016 9.4641
      vertex 14.5 0 9.4641
    endloop
  endfacet
  facet normal -0.258819 0 -0.965926
    outer loop
      vertex 14.5 2.12108e-016 9.4641
      vertex 12.5 0 10
      vertex 12.5 2.44921e-016 10
    endloop
  endfacet
  facet normal -0.707107 0 -0.707107
    outer loop
      vertex 15.9641 0 8
      vertex 14.5 2.12108e-016 9.4641
      vertex 15.9641 1.22461e-016 8
    endloop
  endfacet
  facet normal -0.707107 -0 -0.707107
    outer loop
      vertex 14.5 2.12108e-016 9.4641
      vertex 15.9641 0 8
      vertex 14.5 0 9.4641
    endloop
  endfacet
  facet normal 0.25882 0 -0.965926
    outer loop
      vertex 10.5 0 9.4641
      vertex 12.5 2.44921e-016 10
      vertex 12.5 0 10
    endloop
  endfacet
  facet normal 0.25882 0 -0.965926
    outer loop
      vertex 12.5 2.44921e-016 10
      vertex 10.5 0 9.4641
      vertex 10.5 2.12108e-016 9.4641
    endloop
  endfacet
  facet normal 0.707107 0 -0.707107
    outer loop
      vertex 10.5 0 9.4641
      vertex 9.0359 1.22461e-016 8
      vertex 10.5 2.12108e-016 9.4641
    endloop
  endfacet
  facet normal 0.707107 0 -0.707107
    outer loop
      vertex 9.0359 1.22461e-016 8
      vertex 10.5 0 9.4641
      vertex 9.0359 0 8
    endloop
  endfacet
endsolid OpenSCAD_Model
